<?xml version="1.0" encoding="UTF-8" standalone="no"?>
<!DOCTYPE svg PUBLIC "-//W3C//DTD SVG 1.1//EN"
 "http://www.w3.org/Graphics/SVG/1.1/DTD/svg11.dtd">
<!-- Generated by graphviz version 2.44.0 (20200408.0750)
 -->
<!-- Title: my_first_flow Pages: 1 -->
<svg width="554pt" height="302pt"
 viewBox="28.80 28.80 525.08 273.54" xmlns="http://www.w3.org/2000/svg" xmlns:xlink="http://www.w3.org/1999/xlink">
<g id="graph0" class="graph" transform="scale(1 1) rotate(0) translate(32.8 269.54)">
<title>my_first_flow</title>
<polygon fill="white" stroke="transparent" points="-4,4 -4,-240.74 492.28,-240.74 492.28,4 -4,4"/>
<text text-anchor="middle" x="244.14" y="-221.54" font-family="Times,serif" font-size="14.00">my&#45;first&#45;flow</text>
<!-- /my&#45;first&#45;flow/add -->
<g id="node1" class="node">
<title>/my&#45;first&#45;flow/add</title>
<g id="a_node1"><a xlink:href="../../flowstdlib/math/add/add.html" xlink:title="add\n(Add)">
<ellipse fill="coral" stroke="black" cx="251.64" cy="-99.87" rx="34.8" ry="26.74"/>
<text text-anchor="middle" x="251.64" y="-103.67" font-family="Times,serif" font-size="14.00">add</text>
<text text-anchor="middle" x="251.64" y="-88.67" font-family="Times,serif" font-size="14.00">(Add)</text>
</a>
</g>
</g>
<!-- /my&#45;first&#45;flow/add&#45;&gt;/my&#45;first&#45;flow/add -->
<g id="edge3" class="edge">
<title>/my&#45;first&#45;flow/add:sw&#45;&gt;/my&#45;first&#45;flow/add:w</title>
<path fill="none" stroke="black" d="M230.64,-78.87C213.09,-67.87 198.99,-67.87 198.99,-89.37 198.99,-103.48 204.16,-108.33 209.31,-106.89"/>
<polygon fill="black" stroke="black" points="211.84,-109.31 216.64,-99.87 207,-104.26 211.84,-109.31"/>
<text text-anchor="middle" x="218.23" y="-67.41" font-family="Times,serif" font-size="14.00">sum</text>
<text text-anchor="middle" x="211.14" y="-103.67" font-family="Times,serif" font-size="14.00">i2</text>
</g>
<!-- /my&#45;first&#45;flow/add&#45;&gt;/my&#45;first&#45;flow/add -->
<g id="edge5" class="edge">
<title>/my&#45;first&#45;flow/add:e&#45;&gt;/my&#45;first&#45;flow/add:ne</title>
<path fill="none" stroke="black" d="M286.64,-99.87C292.29,-88.87 304.29,-88.87 304.29,-110.37 304.29,-128.01 294.8,-131.18 281.7,-125.67"/>
<polygon fill="black" stroke="black" points="283.11,-122.46 272.64,-120.87 279.84,-128.65 283.11,-122.46"/>
<text text-anchor="middle" x="292.15" y="-103.65" font-family="Times,serif" font-size="14.00">i2</text>
<text text-anchor="middle" x="267.14" y="-124.67" font-family="Times,serif" font-size="14.00">i1</text>
</g>
<!-- /my&#45;first&#45;flow/Stdout -->
<g id="node4" class="node">
<title>/my&#45;first&#45;flow/Stdout</title>
<g id="a_node4"><a xlink:href="../../context/stdio/stdout.html" xlink:title="Stdout">
<ellipse fill="coral" stroke="black" cx="264.64" cy="-18" rx="33.6" ry="18"/>
<text text-anchor="middle" x="264.64" y="-14.3" font-family="Times,serif" font-size="14.00">Stdout</text>
</a>
</g>
</g>
<!-- /my&#45;first&#45;flow/add&#45;&gt;/my&#45;first&#45;flow/Stdout -->
<g id="edge4" class="edge">
<title>/my&#45;first&#45;flow/add:sw&#45;&gt;/my&#45;first&#45;flow/Stdout:w</title>
<path fill="none" stroke="black" d="M230.64,-77.87C214.76,-61.99 206.02,-30.29 219.66,-20.77"/>
<polygon fill="black" stroke="black" points="220.94,-24.04 229.64,-18 219.07,-17.3 220.94,-24.04"/>
<text text-anchor="middle" x="202.07" y="-50.7" font-family="Times,serif" font-size="14.00">sum</text>
</g>
<!-- initializer/my&#45;first&#45;flow/add_0 -->
<!-- initializer/my&#45;first&#45;flow/add_0&#45;&gt;/my&#45;first&#45;flow/add -->
<g id="edge1" class="edge">
<title>initializer/my&#45;first&#45;flow/add_0&#45;&gt;/my&#45;first&#45;flow/add:ne</title>
<path fill="none" stroke="blue" stroke-dasharray="1,5" d="M344.03,-178.06C325.59,-165.88 300.73,-148.19 280.05,-129"/>
<polygon fill="blue" stroke="blue" points="282.27,-126.28 272.64,-121.87 277.42,-131.33 282.27,-126.28"/>
<text text-anchor="middle" x="319.14" y="-148.54" font-family="Times,serif" font-size="14.00">0</text>
</g>
<!-- initializer/my&#45;first&#45;flow/add_1 -->
<!-- initializer/my&#45;first&#45;flow/add_1&#45;&gt;/my&#45;first&#45;flow/add -->
<g id="edge2" class="edge">
<title>initializer/my&#45;first&#45;flow/add_1&#45;&gt;/my&#45;first&#45;flow/add:w</title>
<path fill="none" stroke="blue" stroke-dasharray="1,5" d="M125.51,-177.78C138.39,-152.62 166.49,-107.64 205.49,-100.76"/>
<polygon fill="blue" stroke="blue" points="205.98,-104.23 215.64,-99.87 205.37,-97.26 205.98,-104.23"/>
<text text-anchor="middle" x="147.14" y="-148.54" font-family="Times,serif" font-size="14.00">1</text>
</g>
</g>
</svg>
