<?xml version="1.0" encoding="UTF-8" standalone="no"?>
<!DOCTYPE svg PUBLIC "-//W3C//DTD SVG 1.1//EN"
 "http://www.w3.org/Graphics/SVG/1.1/DTD/svg11.dtd">
<!-- Generated by graphviz version 2.43.0 (0)
 -->
<!-- Title: args Pages: 1 -->
<svg width="230pt" height="197pt"
 viewBox="28.80 28.80 200.74 167.80" xmlns="http://www.w3.org/2000/svg" xmlns:xlink="http://www.w3.org/1999/xlink">
<g id="graph0" class="graph" transform="scale(1 1) rotate(0) translate(32.8 163.8)">
<title>args</title>
<polygon fill="white" stroke="transparent" points="-4,4 -4,-135 167.94,-135 167.94,4 -4,4"/>
<text text-anchor="middle" x="81.97" y="-115.8" font-family="Times,serif" font-size="14.00">args</text>
<!-- /args/get -->
<g id="node1" class="node">
<title>/args/get</title>
<g id="a_node1"><a xlink:href="../../flowr/src/bin/flowrcli/context/args/get.html" xlink:title="get">
<polygon fill="white" stroke="black" points="-0.14,-84.44 32.13,-72 64.41,-84.44 64.38,-104.56 -0.11,-104.56 -0.14,-84.44"/>
<text text-anchor="middle" x="32.13" y="-86.3" font-family="Times,serif" font-size="14.00">get</text>
</a>
</g>
</g>
<!-- /args/stdout -->
<g id="node2" class="node">
<title>/args/stdout</title>
<g id="a_node2"><a xlink:href="../../flowr/src/bin/flowrcli/context/stdio/stdout.html" xlink:title="stdout">
<polygon fill="black" stroke="black" points="163.75,-23.56 114.13,-36 64.52,-23.56 64.56,-3.44 163.71,-3.44 163.75,-23.56"/>
<text text-anchor="middle" x="114.13" y="-14.3" font-family="Times,serif" font-size="14.00" fill="white">stdout</text>
</a>
</g>
</g>
<!-- /args/get&#45;&gt;/args/stdout -->
<g id="edge1" class="edge">
<title>/args/get:e&#45;&gt;/args/stdout:w</title>
<path fill="none" stroke="black" d="M65.13,-90C91.9,-90 50.15,-39.69 54.43,-23.18"/>
<polygon fill="black" stroke="black" points="56.33,-26.12 63.13,-18 52.75,-20.1 56.33,-26.12"/>
<text text-anchor="middle" x="39.66" y="-57.84" font-family="Times,serif" font-size="14.00">json[2]</text>
</g>
</g>
</svg>
