<?xml version="1.0" encoding="UTF-8" standalone="no"?>
<!DOCTYPE svg PUBLIC "-//W3C//DTD SVG 1.1//EN"
 "http://www.w3.org/Graphics/SVG/1.1/DTD/svg11.dtd">
<!-- Generated by graphviz version 2.43.0 (0)
 -->
<!-- Title: arrays Pages: 1 -->
<svg width="1057pt" height="353pt"
 viewBox="0.00 0.00 1057.39 353.00" xmlns="http://www.w3.org/2000/svg" xmlns:xlink="http://www.w3.org/1999/xlink">
<g id="graph0" class="graph" transform="scale(1 1) rotate(0) translate(4 349)">
<title>arrays</title>
<polygon fill="white" stroke="transparent" points="-4,4 -4,-349 1053.39,-349 1053.39,4 -4,4"/>
<text text-anchor="middle" x="524.7" y="-329.8" font-family="Times,serif" font-size="14.00">/arrays</text>
<g id="clust1" class="cluster">
<title>cluster_sequence</title>
<polygon fill="none" stroke="black" points="8,-65 8,-314 668,-314 668,-65 8,-65"/>
<text text-anchor="middle" x="338" y="-298.8" font-family="Times,serif" font-size="14.00">/arrays/sequence</text>
</g>
<!-- r4 -->
<g id="node1" class="node">
<title>r4</title>
<g id="a_node1"><a xlink:href="file:///home/runner/work/flow/flow/target/flowstdlib/control/compare_switch/compare_switch.html" xlink:title="compare_switch (#4)">
<ellipse fill="coral" stroke="black" cx="296" cy="-265" rx="108.58" ry="18"/>
<text text-anchor="middle" x="296" y="-261.3" font-family="Times,serif" font-size="14.00">compare_switch (#4)</text>
</a>
</g>
</g>
<!-- r4&#45;&gt;r4 -->
<g id="edge2" class="edge">
<title>r4:e&#45;&gt;r4:n</title>
<path fill="none" stroke="black" d="M405,-265C428.54,-254.5 476.54,-254.5 476.54,-274 476.54,-292.47 368.54,-293.45 306,-284.57"/>
<polygon fill="black" stroke="black" points="306.42,-281.1 296,-283 305.33,-288.01 306.42,-281.1"/>
<text text-anchor="middle" x="283.5" y="-286.8" font-family="Times,serif" font-size="14.00">left</text>
<text text-anchor="middle" x="429.5" y="-268.8" font-family="Times,serif" font-size="14.00">/left&#45;gt</text>
</g>
<!-- r0 -->
<g id="node2" class="node">
<title>r0</title>
<g id="a_node2"><a xlink:href="file:///home/runner/work/flow/flow/target/flowstdlib/data/accumulate/accumulate.html" xlink:title="accumulator (#0)">
<ellipse fill="coral" stroke="black" cx="568" cy="-178" rx="91.78" ry="18"/>
<text text-anchor="middle" x="568" y="-174.3" font-family="Times,serif" font-size="14.00">accumulator (#0)</text>
</a>
</g>
</g>
<!-- r4&#45;&gt;r0 -->
<g id="edge1" class="edge">
<title>r4:s&#45;&gt;r0:n</title>
<path fill="none" stroke="black" d="M296,-247C296,-127.61 552.3,-307.84 567.31,-206.01"/>
<polygon fill="black" stroke="black" points="570.81,-206.22 568,-196 563.82,-205.74 570.81,-206.22"/>
<text text-anchor="middle" x="545" y="-199.8" font-family="Times,serif" font-size="14.00">values</text>
<text text-anchor="middle" x="264" y="-235.8" font-family="Times,serif" font-size="14.00">/right&#45;lte</text>
</g>
<!-- r3 -->
<g id="node3" class="node">
<title>r3</title>
<g id="a_node3"><a xlink:href="file:///home/runner/work/flow/flow/target/flowstdlib/math/add/add.html" xlink:title="add (#3)">
<ellipse fill="coral" stroke="black" cx="67" cy="-178" rx="51.19" ry="18"/>
<text text-anchor="middle" x="67" y="-174.3" font-family="Times,serif" font-size="14.00">add (#3)</text>
</a>
</g>
</g>
<!-- r4&#45;&gt;r3 -->
<g id="edge3" class="edge">
<title>r4:se&#45;&gt;r3:n</title>
<path fill="none" stroke="black" d="M314,-247C351.08,-209.92 102.59,-246.64 70.41,-205.63"/>
<polygon fill="black" stroke="black" points="73.64,-204.26 67,-196 67.04,-206.59 73.64,-204.26"/>
<text text-anchor="middle" x="60" y="-199.8" font-family="Times,serif" font-size="14.00">i1</text>
<text text-anchor="middle" x="307" y="-235.8" font-family="Times,serif" font-size="14.00">:1</text>
</g>
<!-- r6 -->
<g id="node4" class="node">
<title>r6</title>
<g id="a_node4"><a xlink:href="file:///home/runner/work/flow/flow/target/flowstdlib/math/compare/compare.html" xlink:title="not&#45;last (#6)">
<ellipse fill="coral" stroke="black" cx="260" cy="-178" rx="69.59" ry="18"/>
<text text-anchor="middle" x="260" y="-174.3" font-family="Times,serif" font-size="14.00">not&#45;last (#6)</text>
</a>
</g>
</g>
<!-- r4&#45;&gt;r6 -->
<g id="edge4" class="edge">
<title>r4:sw&#45;&gt;r6:ne</title>
<path fill="none" stroke="black" d="M278,-247C264.98,-233.98 283.7,-219.03 282.58,-205.28"/>
<polygon fill="black" stroke="black" points="285.56,-203.42 278,-196 279.28,-206.52 285.56,-203.42"/>
<text text-anchor="middle" x="260" y="-199.8" font-family="Times,serif" font-size="14.00">right</text>
<text text-anchor="middle" x="271" y="-250.8" font-family="Times,serif" font-size="14.00">:0</text>
</g>
<!-- r4&#45;&gt;r6 -->
<g id="edge5" class="edge">
<title>r4:se&#45;&gt;r6:n</title>
<path fill="none" stroke="black" d="M314,-247C324.67,-236.33 315.93,-225.37 306,-214 294.83,-201.21 273.42,-210.57 264.29,-205.31"/>
<polygon fill="black" stroke="black" points="267.37,-203.61 260,-196 261.01,-206.55 267.37,-203.61"/>
<text text-anchor="middle" x="247.5" y="-199.8" font-family="Times,serif" font-size="14.00">left</text>
<text text-anchor="middle" x="321" y="-235.8" font-family="Times,serif" font-size="14.00">:1</text>
</g>
<!-- r0&#45;&gt;r0 -->
<g id="edge14" class="edge">
<title>r0:sw&#45;&gt;r0:ne</title>
<path fill="none" stroke="black" d="M550,-160C404.36,-173 404.36,-217 568,-217 727.81,-217 731.55,-203.65 596,-196.5"/>
<polygon fill="black" stroke="black" points="596.16,-193.01 586,-196 595.81,-200 596.16,-193.01"/>
<text text-anchor="middle" x="610" y="-199.8" font-family="Times,serif" font-size="14.00">partial</text>
<text text-anchor="middle" x="524" y="-148.8" font-family="Times,serif" font-size="14.00">/partial</text>
</g>
<!-- r1 -->
<g id="node9" class="node">
<title>r1</title>
<g id="a_node9"><a xlink:href="file:///home/runner/work/flow/flow/target/flowstdlib/math/add/add.html" xlink:title="add (#1)">
<ellipse fill="coral" stroke="black" cx="793" cy="-91" rx="51.19" ry="18"/>
<text text-anchor="middle" x="793" y="-87.3" font-family="Times,serif" font-size="14.00">add (#1)</text>
</a>
</g>
</g>
<!-- r0&#45;&gt;r1 -->
<g id="edge15" class="edge">
<title>r0:e&#45;&gt;r1:n</title>
<path fill="none" stroke="black" d="M661,-178C680.25,-178 713.72,-135.48 731,-127 752.74,-116.34 781.93,-131.28 790.52,-118.98"/>
<polygon fill="black" stroke="black" points="793.99,-119.55 793,-109 787.19,-117.86 793.99,-119.55"/>
<text text-anchor="middle" x="786" y="-112.8" font-family="Times,serif" font-size="14.00">i1</text>
<text text-anchor="middle" x="685" y="-181.8" font-family="Times,serif" font-size="14.00">/chunk</text>
</g>
<!-- r5 -->
<g id="node5" class="node">
<title>r5</title>
<g id="a_node5"><a xlink:href="file:///home/runner/work/flow/flow/target/flowstdlib/control/tap/tap.html" xlink:title="next&#45;tap (#5)">
<ellipse fill="coral" stroke="black" cx="305" cy="-91" rx="72.59" ry="18"/>
<text text-anchor="middle" x="305" y="-87.3" font-family="Times,serif" font-size="14.00">next&#45;tap (#5)</text>
</a>
</g>
</g>
<!-- r3&#45;&gt;r5 -->
<g id="edge6" class="edge">
<title>r3:e&#45;&gt;r5:n</title>
<path fill="none" stroke="black" d="M120,-178C137.1,-178 138.29,-166.76 154,-160 168.04,-153.96 270.37,-133.54 298.09,-116.67"/>
<polygon fill="black" stroke="black" points="300.91,-118.77 305,-109 295.71,-114.09 300.91,-118.77"/>
<text text-anchor="middle" x="289" y="-112.8" font-family="Times,serif" font-size="14.00">data</text>
</g>
<!-- r7 -->
<g id="node6" class="node">
<title>r7</title>
<g id="a_node6"><a xlink:href="file:///home/runner/work/flow/flow/target/flowstdlib/control/tap/tap.html" xlink:title="step&#45;tap (#7)">
<ellipse fill="coral" stroke="black" cx="88" cy="-91" rx="72.29" ry="18"/>
<text text-anchor="middle" x="88" y="-87.3" font-family="Times,serif" font-size="14.00">step&#45;tap (#7)</text>
</a>
</g>
</g>
<!-- r3&#45;&gt;r7 -->
<g id="edge7" class="edge">
<title>r3:se&#45;&gt;r7:n</title>
<path fill="none" stroke="black" d="M84,-160C97.44,-146.56 91.2,-135.84 88.8,-119.4"/>
<polygon fill="black" stroke="black" points="92.25,-118.7 88,-109 85.27,-119.24 92.25,-118.7"/>
<text text-anchor="middle" x="72" y="-112.8" font-family="Times,serif" font-size="14.00">data</text>
<text text-anchor="middle" x="77" y="-148.8" font-family="Times,serif" font-size="14.00">:1</text>
</g>
<!-- r6&#45;&gt;r5 -->
<g id="edge10" class="edge">
<title>r6:se&#45;&gt;r5:ne</title>
<path fill="none" stroke="black" d="M278,-160C296.2,-141.8 331.54,-133.11 328.43,-117.74"/>
<polygon fill="black" stroke="black" points="331.25,-115.65 323,-109 325.3,-119.34 331.25,-115.65"/>
<text text-anchor="middle" x="348.5" y="-112.8" font-family="Times,serif" font-size="14.00">control</text>
<text text-anchor="middle" x="270" y="-148.8" font-family="Times,serif" font-size="14.00">/lt</text>
</g>
<!-- r6&#45;&gt;r7 -->
<g id="edge11" class="edge">
<title>r6:se&#45;&gt;r7:ne</title>
<path fill="none" stroke="black" d="M278,-160C304.1,-133.9 158.62,-136.58 114.51,-114.75"/>
<polygon fill="black" stroke="black" points="116.25,-111.7 106,-109 112.33,-117.5 116.25,-111.7"/>
<text text-anchor="middle" x="131.5" y="-112.8" font-family="Times,serif" font-size="14.00">control</text>
<text text-anchor="middle" x="286" y="-148.8" font-family="Times,serif" font-size="14.00">/lt</text>
</g>
<!-- r5&#45;&gt;r4 -->
<g id="edge8" class="edge">
<title>r5:e&#45;&gt;r4:ne</title>
<path fill="none" stroke="black" d="M379,-91C442.9,-91 421.18,-266.18 404.54,-283 398.74,-288.87 346.32,-290.57 323.74,-287.06"/>
<polygon fill="black" stroke="black" points="324.59,-283.66 314,-284 322.49,-290.34 324.59,-283.66"/>
<text text-anchor="middle" x="332" y="-287.8" font-family="Times,serif" font-size="14.00">right</text>
</g>
<!-- r7&#45;&gt;r3 -->
<g id="edge9" class="edge">
<title>r7:e&#45;&gt;r3:ne</title>
<path fill="none" stroke="black" d="M161,-91C169.01,-91 163.78,-101.94 160,-109 153.71,-120.76 143.43,-115.93 136,-127 118.61,-152.93 142.76,-175.54 118.35,-195 109.39,-202.14 100.62,-205.21 92.24,-201.74"/>
<polygon fill="black" stroke="black" points="94.21,-198.84 84,-196 90.21,-204.59 94.21,-198.84"/>
<text text-anchor="middle" x="77" y="-199.8" font-family="Times,serif" font-size="14.00">i2</text>
</g>
<!-- initializerr0_1 -->
<!-- initializerr0_1&#45;&gt;r0 -->
<g id="edge12" class="edge">
<title>initializerr0_1&#45;&gt;r0:n</title>
<path fill="none" stroke="blue" stroke-dasharray="1,5" d="M702.92,-251.01C657.81,-238.24 594.36,-218.61 574.32,-204.08"/>
<polygon fill="blue" stroke="blue" points="576.92,-201.72 568,-196 571.41,-206.03 576.92,-201.72"/>
<text text-anchor="middle" x="632.5" y="-217.8" font-family="Times,serif" font-size="14.00">[]</text>
</g>
<!-- initializerr0_2 -->
<!-- initializerr0_2&#45;&gt;r0 -->
<g id="edge13" class="edge">
<title>initializerr0_2&#45;&gt;r0:n</title>
<path fill="none" stroke="blue" d="M912.34,-254.46C812.74,-238.95 623.01,-209 577.83,-198.96"/>
<polygon fill="blue" stroke="blue" points="578.58,-195.53 568,-196 576.57,-202.23 578.58,-195.53"/>
<text text-anchor="middle" x="751" y="-217.8" font-family="Times,serif" font-size="14.00">4</text>
</g>
<!-- r2 -->
<g id="node11" class="node">
<title>r2</title>
<g id="a_node11"><a xlink:href="file:///home/runner/work/flow/flow/flowr/src/cli/stdio/stdout.html" xlink:title="print (#2)">
<ellipse fill="coral" stroke="black" cx="845" cy="-18" rx="57.39" ry="18"/>
<text text-anchor="middle" x="845" y="-14.3" font-family="Times,serif" font-size="14.00">print (#2)</text>
</a>
</g>
</g>
<!-- r1&#45;&gt;r2 -->
<g id="edge17" class="edge">
<title>r1:e&#45;&gt;r2:n</title>
<path fill="none" stroke="black" d="M846,-91C867.2,-91 850.88,-68.02 846.17,-45.98"/>
<polygon fill="black" stroke="black" points="849.64,-45.52 845,-36 842.69,-46.34 849.64,-45.52"/>
</g>
<!-- initializerr1_1 -->
<!-- initializerr1_1&#45;&gt;r1 -->
<g id="edge16" class="edge">
<title>initializerr1_1&#45;&gt;r1:w</title>
<path fill="none" stroke="blue" d="M785.82,-160.42C759.35,-138.94 718.82,-103.11 730.04,-93.46"/>
<polygon fill="blue" stroke="blue" points="731.13,-96.79 740,-91 729.45,-90 731.13,-96.79"/>
<text text-anchor="middle" x="768" y="-130.8" font-family="Times,serif" font-size="14.00">1</text>
</g>
</g>
</svg>
