<?xml version="1.0" encoding="UTF-8" standalone="no"?>
<!DOCTYPE svg PUBLIC "-//W3C//DTD SVG 1.1//EN"
 "http://www.w3.org/Graphics/SVG/1.1/DTD/svg11.dtd">
<!-- Generated by graphviz version 2.43.0 (0)
 -->
<!-- Title: arrays Pages: 1 -->
<svg width="1057pt" height="322pt"
 viewBox="0.00 0.00 1057.39 322.00" xmlns="http://www.w3.org/2000/svg" xmlns:xlink="http://www.w3.org/1999/xlink">
<g id="graph0" class="graph" transform="scale(1 1) rotate(0) translate(4 318)">
<title>arrays</title>
<polygon fill="white" stroke="transparent" points="-4,4 -4,-318 1053.39,-318 1053.39,4 -4,4"/>
<text text-anchor="middle" x="524.7" y="-298.8" font-family="Times,serif" font-size="14.00">/arrays</text>
<g id="clust1" class="cluster">
<title>cluster_sequence</title>
<polygon fill="none" stroke="black" points="8,-64 8,-283 668,-283 668,-64 8,-64"/>
<text text-anchor="middle" x="338" y="-267.8" font-family="Times,serif" font-size="14.00">/arrays/sequence</text>
</g>
<!-- r3 -->
<g id="node1" class="node">
<title>r3</title>
<g id="a_node1"><a xlink:href="file:///home/runner/.flow/lib/flowstdlib/control/compare_switch/compare_switch.html" xlink:title="compare_switch (#3)">
<ellipse fill="coral" stroke="black" cx="296" cy="-234" rx="108.58" ry="18"/>
<text text-anchor="middle" x="296" y="-230.3" font-family="Times,serif" font-size="14.00">compare_switch (#3)</text>
</a>
</g>
</g>
<!-- r3&#45;&gt;r3 -->
<g id="edge2" class="edge">
<title>r3:e&#45;&gt;r3:n</title>
<path fill="none" stroke="black" d="M405,-234C428.54,-216 476.54,-216 476.54,-243 476.54,-268.58 368.54,-269.92 306,-254.7"/>
<polygon fill="black" stroke="black" points="306.57,-251.22 296,-252 304.74,-257.98 306.57,-251.22"/>
<text text-anchor="middle" x="283.5" y="-255.8" font-family="Times,serif" font-size="14.00">left</text>
<text text-anchor="middle" x="429.5" y="-237.8" font-family="Times,serif" font-size="14.00">/left&#45;gt</text>
</g>
<!-- r0 -->
<g id="node2" class="node">
<title>r0</title>
<g id="a_node2"><a xlink:href="file:///home/runner/.flow/lib/flowstdlib/data/accumulate/accumulate.html" xlink:title="accumulator (#0)">
<ellipse fill="coral" stroke="black" cx="568" cy="-162" rx="91.78" ry="18"/>
<text text-anchor="middle" x="568" y="-158.3" font-family="Times,serif" font-size="14.00">accumulator (#0)</text>
</a>
</g>
</g>
<!-- r3&#45;&gt;r0 -->
<g id="edge1" class="edge">
<title>r3:s&#45;&gt;r0:n</title>
<path fill="none" stroke="black" d="M296,-216C296,-158.84 535.06,-230.8 564.95,-189.78"/>
<polygon fill="black" stroke="black" points="568.36,-190.59 568,-180 561.68,-188.5 568.36,-190.59"/>
<text text-anchor="middle" x="545" y="-183.8" font-family="Times,serif" font-size="14.00">values</text>
<text text-anchor="middle" x="264" y="-204.8" font-family="Times,serif" font-size="14.00">/right&#45;lte</text>
</g>
<!-- r2 -->
<g id="node3" class="node">
<title>r2</title>
<g id="a_node3"><a xlink:href="file:///home/runner/.flow/lib/flowstdlib/math/add/add.html" xlink:title="add (#2)">
<ellipse fill="coral" stroke="black" cx="67" cy="-162" rx="51.19" ry="18"/>
<text text-anchor="middle" x="67" y="-158.3" font-family="Times,serif" font-size="14.00">add (#2)</text>
</a>
</g>
</g>
<!-- r3&#45;&gt;r2 -->
<g id="edge3" class="edge">
<title>r3:se&#45;&gt;r2:n</title>
<path fill="none" stroke="black" d="M314,-216C389.84,-140.16 88.17,-281.01 68.05,-190.19"/>
<polygon fill="black" stroke="black" points="71.51,-189.59 67,-180 64.54,-190.31 71.51,-189.59"/>
<text text-anchor="middle" x="60" y="-183.8" font-family="Times,serif" font-size="14.00">i1</text>
<text text-anchor="middle" x="307" y="-204.8" font-family="Times,serif" font-size="14.00">:1</text>
</g>
<!-- r5 -->
<g id="node4" class="node">
<title>r5</title>
<g id="a_node4"><a xlink:href="file:///home/runner/.flow/lib/flowstdlib/math/compare/compare.html" xlink:title="not&#45;last (#5)">
<ellipse fill="coral" stroke="black" cx="260" cy="-162" rx="69.59" ry="18"/>
<text text-anchor="middle" x="260" y="-158.3" font-family="Times,serif" font-size="14.00">not&#45;last (#5)</text>
</a>
</g>
</g>
<!-- r3&#45;&gt;r5 -->
<g id="edge4" class="edge">
<title>r3:sw&#45;&gt;r5:ne</title>
<path fill="none" stroke="black" d="M278,-216C269.78,-207.78 279.48,-198.47 281.06,-189.66"/>
<polygon fill="black" stroke="black" points="284.35,-188.48 278,-180 277.68,-190.59 284.35,-188.48"/>
<text text-anchor="middle" x="260" y="-183.8" font-family="Times,serif" font-size="14.00">right</text>
<text text-anchor="middle" x="271" y="-219.8" font-family="Times,serif" font-size="14.00">:0</text>
</g>
<!-- r3&#45;&gt;r5 -->
<g id="edge5" class="edge">
<title>r3:se&#45;&gt;r5:n</title>
<path fill="none" stroke="black" d="M314,-216C331.69,-198.31 278.09,-205.92 263.54,-189.44"/>
<polygon fill="black" stroke="black" points="266.79,-188.13 260,-180 260.23,-190.59 266.79,-188.13"/>
<text text-anchor="middle" x="247.5" y="-183.8" font-family="Times,serif" font-size="14.00">left</text>
<text text-anchor="middle" x="321" y="-204.8" font-family="Times,serif" font-size="14.00">:1</text>
</g>
<!-- r0&#45;&gt;r0 -->
<g id="edge14" class="edge">
<title>r0:sw&#45;&gt;r0:ne</title>
<path fill="none" stroke="black" d="M550,-144C404.36,-162 404.36,-216 568,-216 727.81,-216 731.55,-193.11 596,-180.86"/>
<polygon fill="black" stroke="black" points="596.26,-177.37 586,-180 595.66,-184.35 596.26,-177.37"/>
<text text-anchor="middle" x="610" y="-183.8" font-family="Times,serif" font-size="14.00">partial</text>
<text text-anchor="middle" x="524" y="-132.8" font-family="Times,serif" font-size="14.00">/partial</text>
</g>
<!-- r1 -->
<g id="node9" class="node">
<title>r1</title>
<g id="a_node9"><a xlink:href="file:///home/runner/.flow/lib/flowstdlib/math/add/add.html" xlink:title="add (#1)">
<ellipse fill="coral" stroke="black" cx="793" cy="-90" rx="51.19" ry="18"/>
<text text-anchor="middle" x="793" y="-86.3" font-family="Times,serif" font-size="14.00">add (#1)</text>
</a>
</g>
</g>
<!-- r0&#45;&gt;r1 -->
<g id="edge15" class="edge">
<title>r0:e&#45;&gt;r1:n</title>
<path fill="none" stroke="black" d="M661,-162C678.49,-162 679.99,-151.06 696,-144 734.46,-127.05 783.66,-149.43 791.83,-118.28"/>
<polygon fill="black" stroke="black" points="795.34,-118.33 793,-108 788.39,-117.54 795.34,-118.33"/>
<text text-anchor="middle" x="786" y="-111.8" font-family="Times,serif" font-size="14.00">i1</text>
<text text-anchor="middle" x="685" y="-165.8" font-family="Times,serif" font-size="14.00">/chunk</text>
</g>
<!-- r4 -->
<g id="node5" class="node">
<title>r4</title>
<g id="a_node5"><a xlink:href="file:///home/runner/.flow/lib/flowstdlib/control/tap/tap.html" xlink:title="next&#45;tap (#4)">
<ellipse fill="coral" stroke="black" cx="305" cy="-90" rx="72.59" ry="18"/>
<text text-anchor="middle" x="305" y="-86.3" font-family="Times,serif" font-size="14.00">next&#45;tap (#4)</text>
</a>
</g>
</g>
<!-- r2&#45;&gt;r4 -->
<g id="edge6" class="edge">
<title>r2:e&#45;&gt;r4:n</title>
<path fill="none" stroke="black" d="M120,-162C137.1,-162 138,-150.03 154,-144 215.03,-121 295.61,-170.97 304.24,-118.22"/>
<polygon fill="black" stroke="black" points="307.75,-118.23 305,-108 300.77,-117.71 307.75,-118.23"/>
<text text-anchor="middle" x="289" y="-111.8" font-family="Times,serif" font-size="14.00">data</text>
</g>
<!-- r6 -->
<g id="node6" class="node">
<title>r6</title>
<g id="a_node6"><a xlink:href="file:///home/runner/.flow/lib/flowstdlib/control/tap/tap.html" xlink:title="step&#45;tap (#6)">
<ellipse fill="coral" stroke="black" cx="88" cy="-90" rx="72.29" ry="18"/>
<text text-anchor="middle" x="88" y="-86.3" font-family="Times,serif" font-size="14.00">step&#45;tap (#6)</text>
</a>
</g>
</g>
<!-- r2&#45;&gt;r6 -->
<g id="edge7" class="edge">
<title>r2:se&#45;&gt;r6:n</title>
<path fill="none" stroke="black" d="M84,-144C92.72,-135.28 90.43,-128.25 88.88,-118.2"/>
<polygon fill="black" stroke="black" points="92.35,-117.66 88,-108 85.37,-118.26 92.35,-117.66"/>
<text text-anchor="middle" x="72" y="-111.8" font-family="Times,serif" font-size="14.00">data</text>
<text text-anchor="middle" x="77" y="-132.8" font-family="Times,serif" font-size="14.00">:1</text>
</g>
<!-- r5&#45;&gt;r4 -->
<g id="edge10" class="edge">
<title>r5:se&#45;&gt;r4:ne</title>
<path fill="none" stroke="black" d="M278,-144C292.29,-129.71 323.32,-126.83 326.88,-117.36"/>
<polygon fill="black" stroke="black" points="330.06,-115.9 323,-108 323.6,-118.58 330.06,-115.9"/>
<text text-anchor="middle" x="348.5" y="-111.8" font-family="Times,serif" font-size="14.00">control</text>
<text text-anchor="middle" x="270" y="-132.8" font-family="Times,serif" font-size="14.00">/lt</text>
</g>
<!-- r5&#45;&gt;r6 -->
<g id="edge11" class="edge">
<title>r5:se&#45;&gt;r6:ne</title>
<path fill="none" stroke="black" d="M278,-144C330.85,-91.15 175.59,-157.07 113.74,-114.42"/>
<polygon fill="black" stroke="black" points="115.93,-111.69 106,-108 111.46,-117.08 115.93,-111.69"/>
<text text-anchor="middle" x="131.5" y="-111.8" font-family="Times,serif" font-size="14.00">control</text>
<text text-anchor="middle" x="286" y="-132.8" font-family="Times,serif" font-size="14.00">/lt</text>
</g>
<!-- r4&#45;&gt;r3 -->
<g id="edge8" class="edge">
<title>r4:e&#45;&gt;r3:ne</title>
<path fill="none" stroke="black" d="M379,-90C455.22,-90 431.1,-225.15 404.54,-252 392.44,-264.24 345.19,-266.68 322.88,-258.23"/>
<polygon fill="black" stroke="black" points="324.39,-255.05 314,-253 320.85,-261.09 324.39,-255.05"/>
<text text-anchor="middle" x="332" y="-256.8" font-family="Times,serif" font-size="14.00">right</text>
</g>
<!-- r6&#45;&gt;r2 -->
<g id="edge9" class="edge">
<title>r6:e&#45;&gt;r2:ne</title>
<path fill="none" stroke="black" d="M161,-90C182.93,-90 137.22,-167.82 118.35,-179 108.59,-184.78 100.35,-188.48 92.33,-185.59"/>
<polygon fill="black" stroke="black" points="94.25,-182.67 84,-180 90.35,-188.48 94.25,-182.67"/>
<text text-anchor="middle" x="77" y="-183.8" font-family="Times,serif" font-size="14.00">i2</text>
</g>
<!-- initializerr0_1 -->
<!-- initializerr0_1&#45;&gt;r0 -->
<g id="edge12" class="edge">
<title>initializerr0_1&#45;&gt;r0:n</title>
<path fill="none" stroke="blue" stroke-dasharray="1,5" d="M699.54,-220.62C656.19,-209.9 597.92,-194.72 576.42,-185.56"/>
<polygon fill="blue" stroke="blue" points="578.27,-182.59 568,-180 574.42,-188.43 578.27,-182.59"/>
<text text-anchor="middle" x="694.04" y="-209.42" font-family="Times,serif" font-size="14.00">[]</text>
</g>
<!-- initializerr0_2 -->
<!-- initializerr0_2&#45;&gt;r0 -->
<g id="edge13" class="edge">
<title>initializerr0_2&#45;&gt;r0:n</title>
<path fill="none" stroke="blue" d="M913.01,-223.42C896.47,-220.91 878.56,-218.27 862,-216 832.32,-211.93 613.12,-212.71 573.97,-188.07"/>
<polygon fill="blue" stroke="blue" points="576.76,-185.95 568,-180 571.14,-190.12 576.76,-185.95"/>
<text text-anchor="middle" x="908.01" y="-212.22" font-family="Times,serif" font-size="14.00">4</text>
</g>
<!-- r7 -->
<g id="node11" class="node">
<title>r7</title>
<g id="a_node11"><a xlink:href="file:///home/runner/work/flow/flow/flowr/src/bin/flowrcli/cli/stdio/stdout.html" xlink:title="stdout (#7)">
<ellipse fill="coral" stroke="black" cx="845" cy="-18" rx="63.89" ry="18"/>
<text text-anchor="middle" x="845" y="-14.3" font-family="Times,serif" font-size="14.00">stdout (#7)</text>
</a>
</g>
</g>
<!-- r1&#45;&gt;r7 -->
<g id="edge17" class="edge">
<title>r1:e&#45;&gt;r7:n</title>
<path fill="none" stroke="black" d="M846,-90C866.72,-90 850.92,-67.65 846.21,-46.09"/>
<polygon fill="black" stroke="black" points="849.67,-45.51 845,-36 842.72,-46.35 849.67,-45.51"/>
</g>
<!-- initializerr1_1 -->
<!-- initializerr1_1&#45;&gt;r1 -->
<g id="edge16" class="edge">
<title>initializerr1_1&#45;&gt;r1:w</title>
<path fill="none" stroke="blue" d="M783.23,-144.89C759.09,-127.87 725.83,-102.27 730.3,-93.27"/>
<polygon fill="blue" stroke="blue" points="731.64,-96.51 740,-90 729.41,-89.88 731.64,-96.51"/>
<text text-anchor="middle" x="778.23" y="-133.69" font-family="Times,serif" font-size="14.00">1</text>
</g>
</g>
</svg>
