<?xml version="1.0" encoding="UTF-8" standalone="no"?>
<!DOCTYPE svg PUBLIC "-//W3C//DTD SVG 1.1//EN"
 "http://www.w3.org/Graphics/SVG/1.1/DTD/svg11.dtd">
<!-- Generated by graphviz version 2.43.0 (0)
 -->
<!-- Title: arrays Pages: 1 -->
<svg width="1477pt" height="428pt"
 viewBox="28.80 28.80 1448.39 399.28" xmlns="http://www.w3.org/2000/svg" xmlns:xlink="http://www.w3.org/1999/xlink">
<g id="graph0" class="graph" transform="scale(1 1) rotate(0) translate(32.8 395.28)">
<title>arrays</title>
<polygon fill="white" stroke="transparent" points="-4,4 -4,-366.48 1415.59,-366.48 1415.59,4 -4,4"/>
<text text-anchor="middle" x="705.8" y="-347.28" font-family="Times,serif" font-size="14.00">arrays</text>
<!-- /arrays/sequence -->
<g id="node1" class="node">
<title>/arrays/sequence</title>
<g id="a_node1"><a xlink:href="lib://flowstdlib/math/sequence.dot.svg" xlink:title="sequence">
<ellipse fill="aquamarine" stroke="black" cx="72" cy="-267.48" rx="72" ry="72"/>
<text text-anchor="middle" x="72" y="-263.78" font-family="Times,serif" font-size="14.00">sequence</text>
</a>
</g>
</g>
<!-- /arrays/accumulator -->
<g id="node2" class="node">
<title>/arrays/accumulator</title>
<g id="a_node2"><a xlink:href="../../../target/flowstdlib/data/accumulate/accumulate.html" xlink:title="accumulator\n(accumulate)">
<ellipse fill="coral" stroke="black" cx="489" cy="-117.61" rx="77.15" ry="26.74"/>
<text text-anchor="middle" x="489" y="-121.41" font-family="Times,serif" font-size="14.00">accumulator</text>
<text text-anchor="middle" x="489" y="-106.41" font-family="Times,serif" font-size="14.00">(accumulate)</text>
</a>
</g>
</g>
<!-- initializer/arrays/accumulator_1 -->
<!-- initializer/arrays/accumulator_1&#45;&gt;/arrays/accumulator -->
<g id="edge1" class="edge">
<title>initializer/arrays/accumulator_1&#45;&gt;/arrays/accumulator:n</title>
<path fill="none" stroke="blue" stroke-dasharray="1,5" d="M348.74,-249.75C389.93,-224.51 464.53,-177.16 484.16,-153.66"/>
<polygon fill="blue" stroke="blue" points="487.44,-154.96 489,-144.48 481.24,-151.7 487.44,-154.96"/>
<text text-anchor="middle" x="480.5" y="-166.28" font-family="Times,serif" font-size="14.00">[]</text>
</g>
<!-- initializer/arrays/accumulator_2 -->
<!-- initializer/arrays/accumulator_2&#45;&gt;/arrays/accumulator -->
<g id="edge2" class="edge">
<title>initializer/arrays/accumulator_2&#45;&gt;/arrays/accumulator:n</title>
<path fill="none" stroke="blue" d="M599,-250.65C553.64,-234.41 496.65,-204.38 489.7,-154.68"/>
<polygon fill="blue" stroke="blue" points="493.18,-154.22 489,-144.48 486.2,-154.7 493.18,-154.22"/>
<text text-anchor="middle" x="501" y="-166.28" font-family="Times,serif" font-size="14.00">4</text>
</g>
<!-- /arrays/add -->
<g id="node5" class="node">
<title>/arrays/add</title>
<g id="a_node5"><a xlink:href="../../../target/flowstdlib/math/add/add.html" xlink:title="add">
<ellipse fill="coral" stroke="black" cx="979" cy="-117.61" rx="27.9" ry="18"/>
<text text-anchor="middle" x="979" y="-113.91" font-family="Times,serif" font-size="14.00">add</text>
</a>
</g>
</g>
<!-- /arrays/print -->
<g id="node7" class="node">
<title>/arrays/print</title>
<g id="a_node7"><a xlink:href="../../../flowr/src/cli/stdio/stdout.html" xlink:title="print\n(stdout)">
<ellipse fill="coral" stroke="black" cx="1059" cy="-26.87" rx="51.74" ry="26.74"/>
<text text-anchor="middle" x="1059" y="-30.67" font-family="Times,serif" font-size="14.00">print</text>
<text text-anchor="middle" x="1059" y="-15.67" font-family="Times,serif" font-size="14.00">(stdout)</text>
</a>
</g>
</g>
<!-- /arrays/add&#45;&gt;/arrays/print -->
<g id="edge7" class="edge">
<title>/arrays/add:e&#45;&gt;/arrays/print:w</title>
<path fill="none" stroke="black" d="M1008,-117.61C1043.61,-117.61 983.35,-46.89 996.49,-30.32"/>
<polygon fill="black" stroke="black" points="997.79,-33.57 1006,-26.87 995.41,-26.99 997.79,-33.57"/>
</g>
<!-- initializer/arrays/add_1 -->
<!-- initializer/arrays/add_1&#45;&gt;/arrays/add -->
<g id="edge3" class="edge">
<title>initializer/arrays/add_1&#45;&gt;/arrays/add:w</title>
<path fill="none" stroke="blue" d="M943.92,-249.4C929.73,-213.2 902.28,-131.07 939.71,-119.08"/>
<polygon fill="blue" stroke="blue" points="940.6,-122.49 950,-117.61 939.61,-115.56 940.6,-122.49"/>
<text text-anchor="middle" x="928" y="-166.28" font-family="Times,serif" font-size="14.00">1</text>
</g>
<!-- /arrays/sequence/ -->
<g id="node8" class="node">
<title>/arrays/sequence/</title>
<ellipse fill="none" stroke="black" cx="1180" cy="-267.48" rx="92.88" ry="18"/>
<text text-anchor="middle" x="1180" y="-263.78" font-family="Times,serif" font-size="14.00">/arrays/sequence/</text>
</g>
<!-- /arrays/accumulator/ -->
<g id="node9" class="node">
<title>/arrays/accumulator/</title>
<ellipse fill="none" stroke="black" cx="1287" cy="-117.61" rx="106.68" ry="18"/>
<text text-anchor="middle" x="1287" y="-113.91" font-family="Times,serif" font-size="14.00">/arrays/accumulator/</text>
</g>
<!-- /arrays/sequence/&#45;&gt;/arrays/accumulator/ -->
<g id="edge4" class="edge">
<title>/arrays/sequence/:s&#45;&gt;/arrays/accumulator/:w</title>
<path fill="none" stroke="black" d="M1180,-248.48C1180,-194.18 1128.43,-127.2 1168.91,-118.55"/>
<polygon fill="black" stroke="black" points="1169.37,-122.02 1179,-117.61 1168.72,-115.05 1169.37,-122.02"/>
<text text-anchor="middle" x="1125.77" y="-170.19" font-family="Times,serif" font-size="14.00">sequence</text>
<text text-anchor="middle" x="1156" y="-121.41" font-family="Times,serif" font-size="14.00">values</text>
</g>
<!-- /arrays/accumulator/&#45;&gt;/arrays/accumulator/ -->
<g id="edge5" class="edge">
<title>/arrays/accumulator/:s&#45;&gt;/arrays/accumulator/:n</title>
<path fill="none" stroke="black" d="M1287,-99.61C1328.53,-88.61 1411.59,-88.61 1411.59,-117.61 1411.59,-144.46 1340.4,-146.45 1296.88,-137.87"/>
<polygon fill="black" stroke="black" points="1297.53,-134.43 1287,-135.61 1295.97,-141.25 1297.53,-134.43"/>
<text text-anchor="middle" x="1263.03" y="-88.4" font-family="Times,serif" font-size="14.00">partial</text>
<text text-anchor="middle" x="1263" y="-139.41" font-family="Times,serif" font-size="14.00">partial</text>
</g>
<!-- /arrays/add/ -->
<g id="node10" class="node">
<title>/arrays/add/</title>
<ellipse fill="none" stroke="black" cx="1288" cy="-26.87" rx="66.09" ry="18"/>
<text text-anchor="middle" x="1288" y="-23.17" font-family="Times,serif" font-size="14.00">/arrays/add/</text>
</g>
<!-- /arrays/accumulator/&#45;&gt;/arrays/add/ -->
<g id="edge6" class="edge">
<title>/arrays/accumulator/:se&#45;&gt;/arrays/add/:ne</title>
<path fill="none" stroke="black" d="M1305,-98.61C1319.38,-84.23 1321.52,-67.62 1311.4,-52.57"/>
<polygon fill="black" stroke="black" points="1314.08,-50.32 1305,-44.87 1308.7,-54.8 1314.08,-50.32"/>
<text text-anchor="middle" x="1339.16" y="-75.97" font-family="Times,serif" font-size="14.00">chunk</text>
<text text-anchor="middle" x="1298" y="-48.67" font-family="Times,serif" font-size="14.00">i1</text>
</g>
</g>
</svg>
