<?xml version="1.0" encoding="UTF-8" standalone="no"?>
<!DOCTYPE svg PUBLIC "-//W3C//DTD SVG 1.1//EN"
 "http://www.w3.org/Graphics/SVG/1.1/DTD/svg11.dtd">
<!-- Generated by graphviz version 2.43.0 (0)
 -->
<!-- Title: arrays Pages: 1 -->
<svg width="1052pt" height="479pt"
 viewBox="28.80 28.80 1023.39 450.23" xmlns="http://www.w3.org/2000/svg" xmlns:xlink="http://www.w3.org/1999/xlink">
<g id="graph0" class="graph" transform="scale(1 1) rotate(0) translate(32.8 446.23)">
<title>arrays</title>
<polygon fill="white" stroke="transparent" points="-4,4 -4,-417.43 990.59,-417.43 990.59,4 -4,4"/>
<text text-anchor="middle" x="493.29" y="-398.23" font-family="Times,serif" font-size="14.00">arrays</text>
<!-- /arrays/sequence -->
<g id="node1" class="node">
<title>/arrays/sequence</title>
<g id="a_node1"><a xlink:href="../../../../../.flow/lib/flowstdlib/math/sequence.toml.dot.svg" xlink:title="sequence">
<ellipse fill="aquamarine" stroke="black" cx="72" cy="-246.43" rx="72" ry="72"/>
<text text-anchor="middle" x="72" y="-242.73" font-family="Times,serif" font-size="14.00">sequence</text>
</a>
</g>
</g>
<!-- /arrays/accumulator -->
<g id="node2" class="node">
<title>/arrays/accumulator</title>
<g id="a_node2"><a xlink:href="../../../../../.flow/lib/flowstdlib/data/accumulate/accumulate.html" xlink:title="accumulator\n(accumulate)">
<ellipse fill="coral" stroke="black" cx="493" cy="-246.43" rx="77.15" ry="26.74"/>
<text text-anchor="middle" x="493" y="-250.23" font-family="Times,serif" font-size="14.00">accumulator</text>
<text text-anchor="middle" x="493" y="-235.23" font-family="Times,serif" font-size="14.00">(accumulate)</text>
</a>
</g>
</g>
<!-- /arrays/accumulator&#45;&gt;/arrays/accumulator -->
<g id="edge5" class="edge">
<title>/arrays/accumulator:s&#45;&gt;/arrays/accumulator:n</title>
<path fill="none" stroke="black" d="M493,-219.43C524.69,-187.93 588.07,-187.93 588.07,-246.43 588.07,-300.36 534.21,-304.57 500.96,-280.22"/>
<polygon fill="black" stroke="black" points="502.88,-277.25 493,-273.43 498.34,-282.58 502.88,-277.25"/>
<text text-anchor="middle" x="469.01" y="-208.22" font-family="Times,serif" font-size="14.00">partial</text>
<text text-anchor="middle" x="469" y="-277.23" font-family="Times,serif" font-size="14.00">partial</text>
</g>
<!-- /arrays/add -->
<g id="node5" class="node">
<title>/arrays/add</title>
<g id="a_node5"><a xlink:href="../../../../../.flow/lib/flowstdlib/math/add/add.html" xlink:title="add">
<ellipse fill="coral" stroke="black" cx="405" cy="-120.43" rx="27.9" ry="18"/>
<text text-anchor="middle" x="405" y="-116.73" font-family="Times,serif" font-size="14.00">add</text>
</a>
</g>
</g>
<!-- /arrays/accumulator&#45;&gt;/arrays/add -->
<g id="edge6" class="edge">
<title>/arrays/accumulator:se&#45;&gt;/arrays/add:ne</title>
<path fill="none" stroke="black" d="M518,-220.43C555.77,-182.66 472.02,-178 428.6,-144.11"/>
<polygon fill="black" stroke="black" points="430.82,-141.4 421,-137.43 426.2,-146.66 430.82,-141.4"/>
<text text-anchor="middle" x="452.51" y="-172.12" font-family="Times,serif" font-size="14.00">chunk</text>
<text text-anchor="middle" x="428" y="-141.23" font-family="Times,serif" font-size="14.00">i1</text>
</g>
<!-- initializer/arrays/accumulator_1 -->
<!-- initializer/arrays/accumulator_1&#45;&gt;/arrays/accumulator -->
<g id="edge1" class="edge">
<title>initializer/arrays/accumulator_1&#45;&gt;/arrays/accumulator:n</title>
<path fill="none" stroke="blue" stroke-dasharray="1,5" d="M493,-354.25C493,-337.22 493,-310.06 493,-284.75"/>
<polygon fill="blue" stroke="blue" points="496.5,-284.43 493,-274.43 489.5,-284.43 496.5,-284.43"/>
<text text-anchor="middle" x="487.5" y="-343.05" font-family="Times,serif" font-size="14.00">[]</text>
</g>
<!-- initializer/arrays/accumulator_2 -->
<!-- initializer/arrays/accumulator_2&#45;&gt;/arrays/accumulator -->
<g id="edge2" class="edge">
<title>initializer/arrays/accumulator_2&#45;&gt;/arrays/accumulator:n</title>
<path fill="none" stroke="blue" d="M712.71,-359.96C622.81,-347.95 510.61,-324.99 494.87,-284.27"/>
<polygon fill="blue" stroke="blue" points="498.3,-283.6 493,-274.43 491.43,-284.9 498.3,-283.6"/>
<text text-anchor="middle" x="707.71" y="-348.76" font-family="Times,serif" font-size="14.00">4</text>
</g>
<!-- /arrays/print -->
<g id="node7" class="node">
<title>/arrays/print</title>
<g id="a_node7"><a xlink:href="../../flowr/src/cli/stdio/stdout.html" xlink:title="print\n(stdout)">
<polygon fill="black" stroke="black" points="560.61,-43.54 497,-66.64 433.39,-43.54 433.45,-6.17 560.55,-6.17 560.61,-43.54"/>
<text text-anchor="middle" x="497" y="-37.01" font-family="Times,serif" font-size="14.00" fill="white">print</text>
<text text-anchor="middle" x="497" y="-22.01" font-family="Times,serif" font-size="14.00" fill="white">(stdout)</text>
</a>
</g>
</g>
<!-- /arrays/add&#45;&gt;/arrays/print -->
<g id="edge7" class="edge">
<title>/arrays/add:e&#45;&gt;/arrays/print:w</title>
<path fill="none" stroke="black" d="M434,-120.43C467.93,-120.43 411.27,-53.65 422.54,-36.96"/>
<polygon fill="black" stroke="black" points="423.99,-40.15 432,-33.21 421.41,-33.64 423.99,-40.15"/>
</g>
<!-- initializer/arrays/add_1 -->
<!-- initializer/arrays/add_1&#45;&gt;/arrays/add -->
<g id="edge3" class="edge">
<title>initializer/arrays/add_1&#45;&gt;/arrays/add:w</title>
<path fill="none" stroke="blue" d="M284.43,-228.31C293.8,-196.28 318.72,-129.76 365.93,-121.31"/>
<polygon fill="blue" stroke="blue" points="366.35,-124.79 376,-120.43 365.73,-117.82 366.35,-124.79"/>
<text text-anchor="middle" x="279.43" y="-217.11" font-family="Times,serif" font-size="14.00">1</text>
</g>
<!-- /arrays/sequence/sequence -->
<g id="node8" class="node">
<title>/arrays/sequence/sequence</title>
<ellipse fill="none" stroke="black" cx="181" cy="-372.43" rx="135.68" ry="18"/>
<text text-anchor="middle" x="181" y="-368.73" font-family="Times,serif" font-size="14.00">/arrays/sequence/sequence</text>
</g>
<!-- /arrays/sequence/sequence&#45;&gt;/arrays/accumulator -->
<g id="edge4" class="edge">
<title>/arrays/sequence/sequence:s&#45;&gt;/arrays/accumulator:w</title>
<path fill="none" stroke="black" d="M181,-354.43C181,-303.57 371.9,-355.23 407,-318.43 415.59,-309.42 406.05,-271.27 408.73,-254.45"/>
<polygon fill="black" stroke="black" points="411.6,-256.46 415,-246.43 406.09,-252.15 411.6,-256.46"/>
<text text-anchor="middle" x="392" y="-250.23" font-family="Times,serif" font-size="14.00">values</text>
</g>
</g>
</svg>
