<?xml version="1.0" encoding="UTF-8" standalone="no"?>
<!DOCTYPE svg PUBLIC "-//W3C//DTD SVG 1.1//EN"
 "http://www.w3.org/Graphics/SVG/1.1/DTD/svg11.dtd">
<!-- Generated by graphviz version 2.43.0 (0)
 -->
<!-- Title: arrays Pages: 1 -->
<svg width="1052pt" height="449pt"
 viewBox="28.80 28.80 1023.39 419.80" xmlns="http://www.w3.org/2000/svg" xmlns:xlink="http://www.w3.org/1999/xlink">
<g id="graph0" class="graph" transform="scale(1 1) rotate(0) translate(32.8 415.8)">
<title>arrays</title>
<polygon fill="white" stroke="transparent" points="-4,4 -4,-387 990.59,-387 990.59,4 -4,4"/>
<text text-anchor="middle" x="493.29" y="-367.8" font-family="Times,serif" font-size="14.00">arrays</text>
<!-- /arrays/sequence -->
<g id="node1" class="node">
<title>/arrays/sequence</title>
<g id="a_node1"><a xlink:href="../../../../../.flow/lib/flowstdlib/math/sequence.toml.dot.svg" xlink:title="sequence">
<ellipse fill="aquamarine" stroke="black" cx="72" cy="-216" rx="72" ry="72"/>
<text text-anchor="middle" x="72" y="-212.3" font-family="Times,serif" font-size="14.00">sequence</text>
</a>
</g>
</g>
<!-- /arrays/accumulator -->
<g id="node2" class="node">
<title>/arrays/accumulator</title>
<g id="a_node2"><a xlink:href="../../../../../.flow/lib/flowstdlib/data/accumulate/accumulate.html" xlink:title="accumulator\n(accumulate)">
<ellipse fill="coral" stroke="black" cx="493" cy="-216" rx="77.15" ry="26.74"/>
<text text-anchor="middle" x="493" y="-219.8" font-family="Times,serif" font-size="14.00">accumulator</text>
<text text-anchor="middle" x="493" y="-204.8" font-family="Times,serif" font-size="14.00">(accumulate)</text>
</a>
</g>
</g>
<!-- /arrays/accumulator&#45;&gt;/arrays/accumulator -->
<g id="edge5" class="edge">
<title>/arrays/accumulator:s&#45;&gt;/arrays/accumulator:n</title>
<path fill="none" stroke="black" d="M493,-189C524.69,-157.5 588.07,-157.5 588.07,-216 588.07,-269.93 534.21,-274.14 500.96,-249.79"/>
<polygon fill="black" stroke="black" points="502.88,-246.83 493,-243 498.34,-252.15 502.88,-246.83"/>
<text text-anchor="middle" x="469.01" y="-177.79" font-family="Times,serif" font-size="14.00">partial</text>
<text text-anchor="middle" x="469" y="-246.8" font-family="Times,serif" font-size="14.00">partial</text>
</g>
<!-- /arrays/add -->
<g id="node5" class="node">
<title>/arrays/add</title>
<g id="a_node5"><a xlink:href="../../../../../.flow/lib/flowstdlib/math/add/add.html" xlink:title="add">
<ellipse fill="coral" stroke="black" cx="405" cy="-90" rx="27.9" ry="18"/>
<text text-anchor="middle" x="405" y="-86.3" font-family="Times,serif" font-size="14.00">add</text>
</a>
</g>
</g>
<!-- /arrays/accumulator&#45;&gt;/arrays/add -->
<g id="edge6" class="edge">
<title>/arrays/accumulator:se&#45;&gt;/arrays/add:ne</title>
<path fill="none" stroke="black" d="M518,-190C555.77,-152.23 472.02,-147.57 428.6,-113.68"/>
<polygon fill="black" stroke="black" points="430.82,-110.98 421,-107 426.2,-116.23 430.82,-110.98"/>
<text text-anchor="middle" x="452.51" y="-141.7" font-family="Times,serif" font-size="14.00">chunk</text>
<text text-anchor="middle" x="428" y="-110.8" font-family="Times,serif" font-size="14.00">i1</text>
</g>
<!-- initializer/arrays/accumulator_1 -->
<!-- initializer/arrays/accumulator_1&#45;&gt;/arrays/accumulator -->
<g id="edge1" class="edge">
<title>initializer/arrays/accumulator_1&#45;&gt;/arrays/accumulator:n</title>
<path fill="none" stroke="blue" stroke-dasharray="1,5" d="M493,-323.83C493,-306.79 493,-279.63 493,-254.32"/>
<polygon fill="blue" stroke="blue" points="496.5,-254 493,-244 489.5,-254 496.5,-254"/>
<text text-anchor="middle" x="487.5" y="-312.63" font-family="Times,serif" font-size="14.00">[]</text>
</g>
<!-- initializer/arrays/accumulator_2 -->
<!-- initializer/arrays/accumulator_2&#45;&gt;/arrays/accumulator -->
<g id="edge2" class="edge">
<title>initializer/arrays/accumulator_2&#45;&gt;/arrays/accumulator:n</title>
<path fill="none" stroke="blue" d="M712.71,-329.53C622.81,-317.52 510.61,-294.57 494.87,-253.84"/>
<polygon fill="blue" stroke="blue" points="498.3,-253.17 493,-244 491.43,-254.48 498.3,-253.17"/>
<text text-anchor="middle" x="707.71" y="-318.33" font-family="Times,serif" font-size="14.00">4</text>
</g>
<!-- /arrays/stdout -->
<g id="node7" class="node">
<title>/arrays/stdout</title>
<g id="a_node7"><a xlink:href="../../flowr/src/cli/stdio/stdout.html" xlink:title="stdout">
<polygon fill="black" stroke="black" points="532.62,-23.56 483,-36 433.38,-23.56 433.43,-3.44 532.57,-3.44 532.62,-23.56"/>
<text text-anchor="middle" x="483" y="-14.3" font-family="Times,serif" font-size="14.00" fill="white">stdout</text>
</a>
</g>
</g>
<!-- /arrays/add&#45;&gt;/arrays/stdout -->
<g id="edge7" class="edge">
<title>/arrays/add:e&#45;&gt;/arrays/stdout:w</title>
<path fill="none" stroke="black" d="M434,-90C460.76,-90 419.01,-39.69 423.29,-23.18"/>
<polygon fill="black" stroke="black" points="425.19,-26.12 432,-18 421.62,-20.1 425.19,-26.12"/>
</g>
<!-- initializer/arrays/add_1 -->
<!-- initializer/arrays/add_1&#45;&gt;/arrays/add -->
<g id="edge3" class="edge">
<title>initializer/arrays/add_1&#45;&gt;/arrays/add:w</title>
<path fill="none" stroke="blue" d="M284.43,-197.88C293.8,-165.85 318.72,-99.33 365.93,-90.89"/>
<polygon fill="blue" stroke="blue" points="366.35,-94.36 376,-90 365.73,-87.39 366.35,-94.36"/>
<text text-anchor="middle" x="279.43" y="-186.68" font-family="Times,serif" font-size="14.00">1</text>
</g>
<!-- /arrays/sequence/sequence -->
<g id="node8" class="node">
<title>/arrays/sequence/sequence</title>
<ellipse fill="none" stroke="black" cx="181" cy="-342" rx="135.68" ry="18"/>
<text text-anchor="middle" x="181" y="-338.3" font-family="Times,serif" font-size="14.00">/arrays/sequence/sequence</text>
</g>
<!-- /arrays/sequence/sequence&#45;&gt;/arrays/accumulator -->
<g id="edge4" class="edge">
<title>/arrays/sequence/sequence:s&#45;&gt;/arrays/accumulator:w</title>
<path fill="none" stroke="black" d="M181,-324C181,-273.14 371.9,-324.8 407,-288 415.59,-278.99 406.05,-240.85 408.73,-224.03"/>
<polygon fill="black" stroke="black" points="411.6,-226.04 415,-216 406.09,-221.73 411.6,-226.04"/>
<text text-anchor="middle" x="392" y="-219.8" font-family="Times,serif" font-size="14.00">values</text>
</g>
</g>
</svg>
