<?xml version="1.0" encoding="UTF-8" standalone="no"?>
<!DOCTYPE svg PUBLIC "-//W3C//DTD SVG 1.1//EN"
 "http://www.w3.org/Graphics/SVG/1.1/DTD/svg11.dtd">
<!-- Generated by graphviz version 2.43.0 (0)
 -->
<!-- Title: sequence Pages: 1 -->
<svg width="1017pt" height="538pt"
 viewBox="28.80 28.80 987.87 509.02" xmlns="http://www.w3.org/2000/svg" xmlns:xlink="http://www.w3.org/1999/xlink">
<g id="graph0" class="graph" transform="scale(1 1) rotate(0) translate(32.8 505.02)">
<title>sequence</title>
<polygon fill="white" stroke="transparent" points="-4,4 -4,-476.22 955.07,-476.22 955.07,4 -4,4"/>
<text text-anchor="middle" x="475.54" y="-457.02" font-family="Times,serif" font-size="14.00">sequence</text>
<!-- /arrays/sequence/start -->
<g id="node1" class="node">
<title>/arrays/sequence/start</title>
<polygon fill="white" stroke="black" points="672.09,-436.78 631.14,-449.22 590.2,-436.78 590.24,-416.66 672.05,-416.66 672.09,-436.78"/>
<text text-anchor="middle" x="631.14" y="-427.52" font-family="Times,serif" font-size="14.00">start</text>
</g>
<!-- /arrays/sequence/limit -->
<g id="node2" class="node">
<title>/arrays/sequence/limit</title>
<polygon fill="white" stroke="black" points="770.48,-436.78 730.14,-449.22 689.8,-436.78 689.84,-416.66 770.44,-416.66 770.48,-436.78"/>
<text text-anchor="middle" x="730.14" y="-427.52" font-family="Times,serif" font-size="14.00">limit</text>
</g>
<!-- /arrays/sequence/step -->
<g id="node3" class="node">
<title>/arrays/sequence/step</title>
<polygon fill="white" stroke="black" points="863.66,-436.78 826.14,-449.22 788.62,-436.78 788.66,-416.66 863.63,-416.66 863.66,-436.78"/>
<text text-anchor="middle" x="826.14" y="-427.52" font-family="Times,serif" font-size="14.00">step</text>
</g>
<!-- /arrays/sequence/sequence -->
<g id="node4" class="node">
<title>/arrays/sequence/sequence</title>
<polygon fill="black" stroke="black" points="289.28,-12.44 356.14,0 423,-12.44 422.94,-32.56 289.34,-32.56 289.28,-12.44"/>
<text text-anchor="middle" x="356.14" y="-14.3" font-family="Times,serif" font-size="14.00" fill="white">sequence</text>
</g>
<!-- /arrays/sequence/last -->
<g id="node5" class="node">
<title>/arrays/sequence/last</title>
<polygon fill="black" stroke="black" points="440.55,-12.44 475.14,0 509.73,-12.44 509.7,-32.56 440.58,-32.56 440.55,-12.44"/>
<text text-anchor="middle" x="475.14" y="-14.3" font-family="Times,serif" font-size="14.00" fill="white">last</text>
</g>
<!-- /arrays/sequence/compare_switch -->
<g id="node6" class="node">
<title>/arrays/sequence/compare_switch</title>
<g id="a_node6"><a xlink:href="../../../target/flowstdlib/control/compare_switch/compare_switch.html" xlink:title="compare_switch">
<ellipse fill="coral" stroke="black" cx="85.14" cy="-260.61" rx="85.29" ry="18"/>
<text text-anchor="middle" x="85.14" y="-256.91" font-family="Times,serif" font-size="14.00">compare_switch</text>
</a>
</g>
</g>
<!-- /arrays/sequence/add -->
<g id="node7" class="node">
<title>/arrays/sequence/add</title>
<g id="a_node7"><a xlink:href="../../../target/flowstdlib/math/add/add.html" xlink:title="add">
<ellipse fill="coral" stroke="black" cx="249.14" cy="-179.74" rx="27.9" ry="18"/>
<text text-anchor="middle" x="249.14" y="-176.04" font-family="Times,serif" font-size="14.00">add</text>
</a>
</g>
</g>
<!-- /arrays/sequence/next&#45;tap/ -->
<g id="node14" class="node">
<title>/arrays/sequence/next&#45;tap/</title>
<ellipse fill="none" stroke="black" cx="356.14" cy="-98.87" rx="133.78" ry="18"/>
<text text-anchor="middle" x="356.14" y="-95.17" font-family="Times,serif" font-size="14.00">/arrays/sequence/next&#45;tap/</text>
</g>
<!-- /arrays/sequence/add&#45;&gt;/arrays/sequence/next&#45;tap/ -->
<g id="edge7" class="edge">
<title>/arrays/sequence/add:e&#45;&gt;/arrays/sequence/next&#45;tap/:nw</title>
<path fill="none" stroke="black" d="M278.14,-179.74C286.9,-179.74 280.89,-168.74 286.14,-161.74 302.03,-140.58 313.56,-139.23 330.51,-124.9"/>
<polygon fill="black" stroke="black" points="333.16,-127.22 338.14,-117.87 328.42,-122.07 333.16,-127.22"/>
<text text-anchor="middle" x="322.14" y="-121.67" font-family="Times,serif" font-size="14.00">data</text>
</g>
<!-- /arrays/sequence/next&#45;tap -->
<g id="node8" class="node">
<title>/arrays/sequence/next&#45;tap</title>
<g id="a_node8"><a xlink:href="../../../target/flowstdlib/control/tap/tap.html" xlink:title="next&#45;tap\n(tap)">
<ellipse fill="coral" stroke="black" cx="796.14" cy="-350.35" rx="53.98" ry="26.74"/>
<text text-anchor="middle" x="796.14" y="-354.15" font-family="Times,serif" font-size="14.00">next&#45;tap</text>
<text text-anchor="middle" x="796.14" y="-339.15" font-family="Times,serif" font-size="14.00">(tap)</text>
</a>
</g>
</g>
<!-- /arrays/sequence/compare_switch/ -->
<g id="node12" class="node">
<title>/arrays/sequence/compare_switch/</title>
<ellipse fill="none" stroke="black" cx="631.14" cy="-260.61" rx="170.07" ry="18"/>
<text text-anchor="middle" x="631.14" y="-256.91" font-family="Times,serif" font-size="14.00">/arrays/sequence/compare_switch/</text>
</g>
<!-- /arrays/sequence/next&#45;tap&#45;&gt;/arrays/sequence/compare_switch/ -->
<g id="edge9" class="edge">
<title>/arrays/sequence/next&#45;tap:e&#45;&gt;/arrays/sequence/compare_switch/:ne</title>
<path fill="none" stroke="black" d="M851.14,-350.35C863.09,-350.35 857.81,-332.65 850.14,-323.48 793.77,-256.08 719.84,-337.41 656.78,-286.49"/>
<polygon fill="black" stroke="black" points="658.91,-283.71 649.14,-279.61 654.23,-288.91 658.91,-283.71"/>
<text text-anchor="middle" x="631.14" y="-283.41" font-family="Times,serif" font-size="14.00">right</text>
</g>
<!-- /arrays/sequence/step&#45;tap -->
<g id="node9" class="node">
<title>/arrays/sequence/step&#45;tap</title>
<g id="a_node9"><a xlink:href="../../../target/flowstdlib/control/tap/tap.html" xlink:title="step&#45;tap\n(tap)">
<ellipse fill="coral" stroke="black" cx="241.14" cy="-260.61" rx="53.07" ry="26.74"/>
<text text-anchor="middle" x="241.14" y="-264.41" font-family="Times,serif" font-size="14.00">step&#45;tap</text>
<text text-anchor="middle" x="241.14" y="-249.41" font-family="Times,serif" font-size="14.00">(tap)</text>
</a>
</g>
</g>
<!-- /arrays/sequence/add/ -->
<g id="node13" class="node">
<title>/arrays/sequence/add/</title>
<ellipse fill="none" stroke="black" cx="407.14" cy="-179.74" rx="112.38" ry="18"/>
<text text-anchor="middle" x="407.14" y="-176.04" font-family="Times,serif" font-size="14.00">/arrays/sequence/add/</text>
</g>
<!-- /arrays/sequence/step&#45;tap&#45;&gt;/arrays/sequence/add/ -->
<g id="edge11" class="edge">
<title>/arrays/sequence/step&#45;tap:e&#45;&gt;/arrays/sequence/add/:w</title>
<path fill="none" stroke="black" d="M295.14,-260.61C309.4,-260.61 288.48,-209.76 288.18,-188.7"/>
<polygon fill="black" stroke="black" points="291.36,-190.18 293.14,-179.74 285.23,-186.79 291.36,-190.18"/>
<text text-anchor="middle" x="286.14" y="-183.54" font-family="Times,serif" font-size="14.00">i2</text>
</g>
<!-- /arrays/sequence/not&#45;last -->
<g id="node10" class="node">
<title>/arrays/sequence/not&#45;last</title>
<g id="a_node10"><a xlink:href="../../../target/flowstdlib/math/compare/compare.html" xlink:title="not&#45;last\n(compare)">
<ellipse fill="coral" stroke="black" cx="888.14" cy="-98.87" rx="62.87" ry="26.74"/>
<text text-anchor="middle" x="888.14" y="-102.67" font-family="Times,serif" font-size="14.00">not&#45;last</text>
<text text-anchor="middle" x="888.14" y="-87.67" font-family="Times,serif" font-size="14.00">(compare)</text>
</a>
</g>
</g>
<!-- /arrays/sequence/ -->
<g id="node11" class="node">
<title>/arrays/sequence/</title>
<ellipse fill="none" stroke="black" cx="631.14" cy="-350.35" rx="92.88" ry="18"/>
<text text-anchor="middle" x="631.14" y="-346.65" font-family="Times,serif" font-size="14.00">/arrays/sequence/</text>
</g>
<!-- /arrays/sequence/&#45;&gt;/arrays/sequence/compare_switch/ -->
<g id="edge1" class="edge">
<title>/arrays/sequence/:s&#45;&gt;/arrays/sequence/compare_switch/:ne</title>
<path fill="none" stroke="black" d="M631.14,-331.35C624.04,-312.14 644.47,-301.75 649.37,-289.76"/>
<polygon fill="black" stroke="black" points="652.86,-289.53 649.14,-279.61 645.86,-289.69 652.86,-289.53"/>
<text text-anchor="middle" x="621.1" y="-308.08" font-family="Times,serif" font-size="14.00">start</text>
<text text-anchor="middle" x="667.14" y="-283.41" font-family="Times,serif" font-size="14.00">right</text>
</g>
<!-- /arrays/sequence/&#45;&gt;/arrays/sequence/compare_switch/ -->
<g id="edge2" class="edge">
<title>/arrays/sequence/:s&#45;&gt;/arrays/sequence/compare_switch/:ne</title>
<path fill="none" stroke="black" d="M631.14,-331.35C638.88,-310.43 665.97,-299.97 656.8,-286.51"/>
<polygon fill="black" stroke="black" points="658.91,-283.71 649.14,-279.61 654.23,-288.91 658.91,-283.71"/>
<text text-anchor="middle" x="667.33" y="-309.91" font-family="Times,serif" font-size="14.00">limit</text>
<text text-anchor="middle" x="636.64" y="-268.41" font-family="Times,serif" font-size="14.00">left</text>
</g>
<!-- /arrays/sequence/&#45;&gt;/arrays/sequence/add/ -->
<g id="edge5" class="edge">
<title>/arrays/sequence/:s&#45;&gt;/arrays/sequence/add/:w</title>
<path fill="none" stroke="black" d="M631.14,-331.35C631.14,-249.44 528.26,-317.74 452.14,-287.48 377.1,-257.64 336.69,-266.38 294.14,-197.74 292.63,-195.29 291.03,-192.28 289.99,-189.42"/>
<polygon fill="black" stroke="black" points="293.38,-190.33 293.14,-179.74 286.72,-188.17 293.38,-190.33"/>
<text text-anchor="middle" x="434.45" y="-290.42" font-family="Times,serif" font-size="14.00">step</text>
<text text-anchor="middle" x="286.14" y="-168.54" font-family="Times,serif" font-size="14.00">i2</text>
</g>
<!-- /arrays/sequence/compare_switch/&#45;&gt;/arrays/sequence/ -->
<g id="edge3" class="edge">
<title>/arrays/sequence/compare_switch/:s&#45;&gt;/arrays/sequence/:n</title>
<path fill="none" stroke="black" d="M631.14,-241.61C622.14,-222.69 779.09,-229.19 792.43,-242.61 803.71,-253.96 800.02,-264.53 792.43,-278.61 775.19,-310.57 744.48,-293.39 724.14,-323.48 712.75,-340.34 730.76,-355.38 715.08,-368.35 702.53,-378.74 651.92,-386.22 635.55,-378.76"/>
<polygon fill="black" stroke="black" points="638.55,-376.92 631.14,-369.35 632.21,-379.89 638.55,-376.92"/>
<text text-anchor="middle" x="601.64" y="-230.41" font-family="Times,serif" font-size="14.00">right&#45;lte</text>
<text text-anchor="middle" x="597.64" y="-373.15" font-family="Times,serif" font-size="14.00">sequence</text>
</g>
<!-- /arrays/sequence/compare_switch/&#45;&gt;/arrays/sequence/ -->
<g id="edge15" class="edge">
<title>/arrays/sequence/compare_switch/:s&#45;&gt;/arrays/sequence/:n</title>
<path fill="none" stroke="black" d="M631.14,-241.61C640.14,-222.69 797.09,-229.19 810.43,-242.61 821.71,-253.96 818.02,-264.53 810.43,-278.61 793.19,-310.57 762.48,-293.39 742.14,-323.48 730.75,-340.34 748.76,-355.38 733.08,-368.35 719.41,-379.67 660.6,-387.53 638.62,-376.4"/>
<polygon fill="black" stroke="black" points="640.82,-373.67 631.14,-369.35 636.01,-378.76 640.82,-373.67"/>
<text text-anchor="middle" x="663.14" y="-230.41" font-family="Times,serif" font-size="14.00">right&#45;gte</text>
<text text-anchor="middle" x="644.64" y="-373.15" font-family="Times,serif" font-size="14.00">last</text>
</g>
<!-- /arrays/sequence/compare_switch/&#45;&gt;/arrays/sequence/compare_switch/ -->
<g id="edge4" class="edge">
<title>/arrays/sequence/compare_switch/:s&#45;&gt;/arrays/sequence/compare_switch/:ne</title>
<path fill="none" stroke="black" d="M631.14,-242.61C693.9,-222.61 819.43,-222.61 819.43,-260.61 819.43,-296.68 722.55,-298.51 659.03,-281.5"/>
<polygon fill="black" stroke="black" points="659.72,-278.06 649.14,-278.61 657.76,-284.77 659.72,-278.06"/>
<text text-anchor="middle" x="612.51" y="-245.37" font-family="Times,serif" font-size="14.00">left&#45;gt</text>
<text text-anchor="middle" x="661.64" y="-282.41" font-family="Times,serif" font-size="14.00">left</text>
</g>
<!-- /arrays/sequence/compare_switch/&#45;&gt;/arrays/sequence/add/ -->
<g id="edge6" class="edge">
<title>/arrays/sequence/compare_switch/:se&#45;&gt;/arrays/sequence/add/:ne</title>
<path fill="none" stroke="black" d="M649.14,-241.61C718.49,-172.26 511.43,-263.05 432.78,-204.33"/>
<polygon fill="black" stroke="black" points="435,-201.63 425.14,-197.74 430.42,-206.93 435,-201.63"/>
<text text-anchor="middle" x="519.37" y="-228.58" font-family="Times,serif" font-size="14.00">right</text>
<text text-anchor="middle" x="418.14" y="-201.54" font-family="Times,serif" font-size="14.00">i1</text>
</g>
<!-- /arrays/sequence/not&#45;last/ -->
<g id="node15" class="node">
<title>/arrays/sequence/not&#45;last/</title>
<ellipse fill="none" stroke="black" cx="668.14" cy="-179.74" rx="130.78" ry="18"/>
<text text-anchor="middle" x="668.14" y="-176.04" font-family="Times,serif" font-size="14.00">/arrays/sequence/not&#45;last/</text>
</g>
<!-- /arrays/sequence/compare_switch/&#45;&gt;/arrays/sequence/not&#45;last/ -->
<g id="edge12" class="edge">
<title>/arrays/sequence/compare_switch/:se&#45;&gt;/arrays/sequence/not&#45;last/:ne</title>
<path fill="none" stroke="black" d="M649.14,-241.61C656.27,-227.38 680.81,-219.52 686.41,-207.98"/>
<polygon fill="black" stroke="black" points="689.9,-207.65 686.14,-197.74 682.9,-207.83 689.9,-207.65"/>
<text text-anchor="middle" x="682.3" y="-211.62" font-family="Times,serif" font-size="14.00">left</text>
<text text-anchor="middle" x="668.14" y="-201.54" font-family="Times,serif" font-size="14.00">right</text>
</g>
<!-- /arrays/sequence/compare_switch/&#45;&gt;/arrays/sequence/not&#45;last/ -->
<g id="edge13" class="edge">
<title>/arrays/sequence/compare_switch/:se&#45;&gt;/arrays/sequence/not&#45;last/:ne</title>
<path fill="none" stroke="black" d="M649.14,-241.61C672.59,-225.97 703.53,-218.03 693.7,-204.43"/>
<polygon fill="black" stroke="black" points="695.95,-201.75 686.14,-197.74 691.31,-206.99 695.95,-201.75"/>
<text text-anchor="middle" x="654.39" y="-217.31" font-family="Times,serif" font-size="14.00">right</text>
<text text-anchor="middle" x="698.64" y="-201.54" font-family="Times,serif" font-size="14.00">left</text>
</g>
<!-- /arrays/sequence/step&#45;tap/ -->
<g id="node16" class="node">
<title>/arrays/sequence/step&#45;tap/</title>
<ellipse fill="none" stroke="black" cx="673.14" cy="-98.87" rx="133.78" ry="18"/>
<text text-anchor="middle" x="673.14" y="-95.17" font-family="Times,serif" font-size="14.00">/arrays/sequence/step&#45;tap/</text>
</g>
<!-- /arrays/sequence/add/&#45;&gt;/arrays/sequence/step&#45;tap/ -->
<g id="edge10" class="edge">
<title>/arrays/sequence/add/:e&#45;&gt;/arrays/sequence/step&#45;tap/:nw</title>
<path fill="none" stroke="black" d="M521.14,-179.74C529.73,-179.74 521.96,-167.69 528.14,-161.74 568.48,-122.92 607.69,-155.44 647.23,-124.87"/>
<polygon fill="black" stroke="black" points="649.97,-127.12 655.14,-117.87 645.33,-121.87 649.97,-127.12"/>
<text text-anchor="middle" x="580.52" y="-144.02" font-family="Times,serif" font-size="14.00">i2</text>
<text text-anchor="middle" x="639.14" y="-121.67" font-family="Times,serif" font-size="14.00">data</text>
</g>
<!-- /arrays/sequence/not&#45;last/&#45;&gt;/arrays/sequence/next&#45;tap/ -->
<g id="edge8" class="edge">
<title>/arrays/sequence/not&#45;last/:se&#45;&gt;/arrays/sequence/next&#45;tap/:nw</title>
<path fill="none" stroke="black" d="M686.14,-161.74C737.81,-110.07 338.3,-165.17 333.57,-126.84"/>
<polygon fill="black" stroke="black" points="336.72,-128.37 338.14,-117.87 330.48,-125.19 336.72,-128.37"/>
<text text-anchor="middle" x="525.52" y="-143.09" font-family="Times,serif" font-size="14.00">lt</text>
<text text-anchor="middle" x="363.64" y="-121.67" font-family="Times,serif" font-size="14.00">control</text>
</g>
<!-- /arrays/sequence/not&#45;last/&#45;&gt;/arrays/sequence/step&#45;tap/ -->
<g id="edge14" class="edge">
<title>/arrays/sequence/not&#45;last/:se&#45;&gt;/arrays/sequence/step&#45;tap/:nw</title>
<path fill="none" stroke="black" d="M686.14,-161.74C699.33,-148.55 662.69,-139.5 654.08,-128.12"/>
<polygon fill="black" stroke="black" points="657.59,-128.18 655.14,-117.87 650.63,-127.45 657.59,-128.18"/>
<text text-anchor="middle" x="665.11" y="-143.59" font-family="Times,serif" font-size="14.00">lt</text>
<text text-anchor="middle" x="680.64" y="-121.67" font-family="Times,serif" font-size="14.00">control</text>
</g>
</g>
</svg>
