<?xml version="1.0" encoding="UTF-8" standalone="no"?>
<!DOCTYPE svg PUBLIC "-//W3C//DTD SVG 1.1//EN"
 "http://www.w3.org/Graphics/SVG/1.1/DTD/svg11.dtd">
<!-- Generated by graphviz version 2.43.0 (0)
 -->
<!-- Title: sequence Pages: 1 -->
<svg width="558pt" height="448pt"
 viewBox="28.80 28.80 529.13 419.28" xmlns="http://www.w3.org/2000/svg" xmlns:xlink="http://www.w3.org/1999/xlink">
<g id="graph0" class="graph" transform="scale(1 1) rotate(0) translate(32.8 415.28)">
<title>sequence</title>
<polygon fill="white" stroke="transparent" points="-4,4 -4,-386.48 496.33,-386.48 496.33,4 -4,4"/>
<text text-anchor="middle" x="246.16" y="-367.28" font-family="Times,serif" font-size="14.00">sequence</text>
<!-- /arrays/sequence/start -->
<g id="node1" class="node">
<title>/arrays/sequence/start</title>
<polygon fill="white" stroke="black" points="318.49,-347.04 277.55,-359.48 236.6,-347.04 236.64,-326.92 318.45,-326.92 318.49,-347.04"/>
<text text-anchor="middle" x="277.55" y="-337.78" font-family="Times,serif" font-size="14.00">start</text>
</g>
<!-- /arrays/sequence/compare_switch -->
<g id="node6" class="node">
<title>/arrays/sequence/compare_switch</title>
<g id="a_node6"><a xlink:href="../control/compare_switch/compare_switch.html" xlink:title="compare_switch">
<ellipse fill="coral" stroke="black" cx="251.55" cy="-269.48" rx="85.29" ry="18"/>
<text text-anchor="middle" x="251.55" y="-265.78" font-family="Times,serif" font-size="14.00">compare_switch</text>
</a>
</g>
</g>
<!-- /arrays/sequence/start&#45;&gt;/arrays/sequence/compare_switch -->
<g id="edge1" class="edge">
<title>/arrays/sequence/start:s&#45;&gt;/arrays/sequence/compare_switch:ne</title>
<path fill="none" stroke="black" d="M277.55,-325.48C277.55,-312.27 280.01,-304.17 275.69,-295.62"/>
<polygon fill="black" stroke="black" points="278.36,-293.35 269.55,-287.48 272.78,-297.57 278.36,-293.35"/>
<text text-anchor="middle" x="251.55" y="-291.28" font-family="Times,serif" font-size="14.00">right</text>
</g>
<!-- /arrays/sequence/limit -->
<g id="node2" class="node">
<title>/arrays/sequence/limit</title>
<polygon fill="white" stroke="black" points="218.88,-347.04 178.55,-359.48 138.21,-347.04 138.24,-326.92 218.85,-326.92 218.88,-347.04"/>
<text text-anchor="middle" x="178.55" y="-337.78" font-family="Times,serif" font-size="14.00">limit</text>
</g>
<!-- /arrays/sequence/limit&#45;&gt;/arrays/sequence/compare_switch -->
<g id="edge2" class="edge">
<title>/arrays/sequence/limit:s&#45;&gt;/arrays/sequence/compare_switch:ne</title>
<path fill="none" stroke="black" d="M178.55,-325.48C178.55,-287.13 271.95,-310.53 274.53,-296.21"/>
<polygon fill="black" stroke="black" points="277.54,-294.43 269.55,-287.48 271.47,-297.9 277.54,-294.43"/>
<text text-anchor="middle" x="282.05" y="-291.28" font-family="Times,serif" font-size="14.00">left</text>
</g>
<!-- /arrays/sequence/step -->
<g id="node3" class="node">
<title>/arrays/sequence/step</title>
<polygon fill="white" stroke="black" points="420.06,-347.04 382.55,-359.48 345.03,-347.04 345.06,-326.92 420.03,-326.92 420.06,-347.04"/>
<text text-anchor="middle" x="382.55" y="-337.78" font-family="Times,serif" font-size="14.00">step</text>
</g>
<!-- /arrays/sequence/add -->
<g id="node7" class="node">
<title>/arrays/sequence/add</title>
<g id="a_node7"><a xlink:href="add/add.html" xlink:title="add">
<ellipse fill="coral" stroke="black" cx="353.55" cy="-188.61" rx="27.9" ry="18"/>
<text text-anchor="middle" x="353.55" y="-184.91" font-family="Times,serif" font-size="14.00">add</text>
</a>
</g>
</g>
<!-- /arrays/sequence/step&#45;&gt;/arrays/sequence/add -->
<g id="edge5" class="edge">
<title>/arrays/sequence/step:s&#45;&gt;/arrays/sequence/add:w</title>
<path fill="none" stroke="black" d="M382.55,-325.48C382.55,-291.52 379.13,-281.65 363.55,-251.48 351.55,-228.26 335.22,-230.89 325.55,-206.61 324.53,-204.05 323.14,-201.12 322.09,-198.39"/>
<polygon fill="black" stroke="black" points="325.5,-199.16 324.55,-188.61 318.72,-197.46 325.5,-199.16"/>
<text text-anchor="middle" x="317.55" y="-192.41" font-family="Times,serif" font-size="14.00">i2</text>
</g>
<!-- /arrays/sequence/sequence -->
<g id="node4" class="node">
<title>/arrays/sequence/sequence</title>
<polygon fill="black" stroke="black" points="86.68,-12.44 153.55,0 220.41,-12.44 220.34,-32.56 86.75,-32.56 86.68,-12.44"/>
<text text-anchor="middle" x="153.55" y="-14.3" font-family="Times,serif" font-size="14.00" fill="white">sequence</text>
</g>
<!-- /arrays/sequence/last -->
<g id="node5" class="node">
<title>/arrays/sequence/last</title>
<polygon fill="black" stroke="black" points="-0.05,-12.44 34.55,0 69.14,-12.44 69.1,-32.56 -0.01,-32.56 -0.05,-12.44"/>
<text text-anchor="middle" x="34.55" y="-14.3" font-family="Times,serif" font-size="14.00" fill="white">last</text>
</g>
<!-- /arrays/sequence/compare_switch&#45;&gt;/arrays/sequence/sequence -->
<g id="edge3" class="edge">
<title>/arrays/sequence/compare_switch:s&#45;&gt;/arrays/sequence/sequence:n</title>
<path fill="none" stroke="black" d="M251.55,-251.48C251.55,-212.9 195.08,-246.8 172.55,-215.48 127.21,-152.48 151.25,-118.13 153.4,-44.2"/>
<polygon fill="black" stroke="black" points="156.9,-44.05 153.55,-34 149.9,-43.95 156.9,-44.05"/>
<text text-anchor="middle" x="115.89" y="-150.32" font-family="Times,serif" font-size="14.00">right&#45;lte</text>
</g>
<!-- /arrays/sequence/compare_switch&#45;&gt;/arrays/sequence/last -->
<g id="edge15" class="edge">
<title>/arrays/sequence/compare_switch:s&#45;&gt;/arrays/sequence/last:n</title>
<path fill="none" stroke="black" d="M251.55,-251.48C251.55,-201.31 183.71,-246.84 144.55,-215.48 73.66,-158.71 37.3,-130.45 34.7,-44.23"/>
<polygon fill="black" stroke="black" points="38.19,-43.95 34.55,-34 31.19,-44.05 38.19,-43.95"/>
<text text-anchor="middle" x="75.29" y="-188.92" font-family="Times,serif" font-size="14.00">right&#45;gte</text>
</g>
<!-- /arrays/sequence/compare_switch&#45;&gt;/arrays/sequence/compare_switch -->
<g id="edge4" class="edge">
<title>/arrays/sequence/compare_switch:s&#45;&gt;/arrays/sequence/compare_switch:ne</title>
<path fill="none" stroke="black" d="M251.55,-251.48C285.93,-233.48 354.69,-233.48 354.69,-269.48 354.69,-302.39 312.28,-305.21 278.73,-291.71"/>
<polygon fill="black" stroke="black" points="280.09,-288.49 269.55,-287.48 277.16,-294.84 280.09,-288.49"/>
<text text-anchor="middle" x="229.75" y="-240.17" font-family="Times,serif" font-size="14.00">left&#45;gt</text>
<text text-anchor="middle" x="257.05" y="-291.28" font-family="Times,serif" font-size="14.00">left</text>
</g>
<!-- /arrays/sequence/compare_switch&#45;&gt;/arrays/sequence/add -->
<g id="edge6" class="edge">
<title>/arrays/sequence/compare_switch:se&#45;&gt;/arrays/sequence/add:ne</title>
<path fill="none" stroke="black" d="M269.55,-251.48C301.01,-220.01 386.68,-236.47 375.75,-213.61"/>
<polygon fill="black" stroke="black" points="378.44,-211.37 369.55,-205.61 372.91,-215.66 378.44,-211.37"/>
<text text-anchor="middle" x="302.16" y="-235.45" font-family="Times,serif" font-size="14.00">right</text>
<text text-anchor="middle" x="376.55" y="-209.41" font-family="Times,serif" font-size="14.00">i1</text>
</g>
<!-- /arrays/sequence/not&#45;last -->
<g id="node10" class="node">
<title>/arrays/sequence/not&#45;last</title>
<g id="a_node10"><a xlink:href="compare/compare.html" xlink:title="not&#45;last\n(compare)">
<ellipse fill="coral" stroke="black" cx="244.55" cy="-188.61" rx="62.87" ry="26.74"/>
<text text-anchor="middle" x="244.55" y="-192.41" font-family="Times,serif" font-size="14.00">not&#45;last</text>
<text text-anchor="middle" x="244.55" y="-177.41" font-family="Times,serif" font-size="14.00">(compare)</text>
</a>
</g>
</g>
<!-- /arrays/sequence/compare_switch&#45;&gt;/arrays/sequence/not&#45;last -->
<g id="edge12" class="edge">
<title>/arrays/sequence/compare_switch:se&#45;&gt;/arrays/sequence/not&#45;last:ne</title>
<path fill="none" stroke="black" d="M269.55,-251.48C271.42,-243.06 271.94,-233.53 271.09,-224.5"/>
<polygon fill="black" stroke="black" points="274.54,-223.95 269.55,-214.61 267.63,-225.03 274.54,-223.95"/>
<text text-anchor="middle" x="283.99" y="-221.86" font-family="Times,serif" font-size="14.00">left</text>
<text text-anchor="middle" x="251.55" y="-218.41" font-family="Times,serif" font-size="14.00">right</text>
</g>
<!-- /arrays/sequence/compare_switch&#45;&gt;/arrays/sequence/not&#45;last -->
<g id="edge13" class="edge">
<title>/arrays/sequence/compare_switch:se&#45;&gt;/arrays/sequence/not&#45;last:ne</title>
<path fill="none" stroke="black" d="M269.55,-251.48C286.75,-241.79 289.58,-230.63 278.02,-220.46"/>
<polygon fill="black" stroke="black" points="279.76,-217.42 269.55,-214.61 275.78,-223.18 279.76,-217.42"/>
<text text-anchor="middle" x="298.89" y="-227.15" font-family="Times,serif" font-size="14.00">right</text>
<text text-anchor="middle" x="282.05" y="-218.41" font-family="Times,serif" font-size="14.00">left</text>
</g>
<!-- /arrays/sequence/next&#45;tap -->
<g id="node8" class="node">
<title>/arrays/sequence/next&#45;tap</title>
<g id="a_node8"><a xlink:href="../control/tap/tap.html" xlink:title="next&#45;tap\n(tap)">
<ellipse fill="coral" stroke="black" cx="401.55" cy="-98.87" rx="53.98" ry="26.74"/>
<text text-anchor="middle" x="401.55" y="-102.67" font-family="Times,serif" font-size="14.00">next&#45;tap</text>
<text text-anchor="middle" x="401.55" y="-87.67" font-family="Times,serif" font-size="14.00">(tap)</text>
</a>
</g>
</g>
<!-- /arrays/sequence/add&#45;&gt;/arrays/sequence/next&#45;tap -->
<g id="edge7" class="edge">
<title>/arrays/sequence/add:e&#45;&gt;/arrays/sequence/next&#45;tap:nw</title>
<path fill="none" stroke="black" d="M382.55,-188.61C407.68,-188.61 369.75,-154.97 373.04,-132.81"/>
<polygon fill="black" stroke="black" points="376.17,-134.37 377.55,-123.87 369.92,-131.22 376.17,-134.37"/>
<text text-anchor="middle" x="361.55" y="-127.67" font-family="Times,serif" font-size="14.00">data</text>
</g>
<!-- /arrays/sequence/step&#45;tap -->
<g id="node9" class="node">
<title>/arrays/sequence/step&#45;tap</title>
<g id="a_node9"><a xlink:href="../control/tap/tap.html" xlink:title="step&#45;tap\n(tap)">
<ellipse fill="coral" stroke="black" cx="276.55" cy="-98.87" rx="53.07" ry="26.74"/>
<text text-anchor="middle" x="276.55" y="-102.67" font-family="Times,serif" font-size="14.00">step&#45;tap</text>
<text text-anchor="middle" x="276.55" y="-87.67" font-family="Times,serif" font-size="14.00">(tap)</text>
</a>
</g>
</g>
<!-- /arrays/sequence/add&#45;&gt;/arrays/sequence/step&#45;tap -->
<g id="edge10" class="edge">
<title>/arrays/sequence/add:e&#45;&gt;/arrays/sequence/step&#45;tap:nw</title>
<path fill="none" stroke="black" d="M382.55,-188.61C390.56,-188.61 386.33,-177.04 381.55,-170.61 347.72,-125.11 228.02,-161.08 246.01,-131.72"/>
<polygon fill="black" stroke="black" points="248.83,-133.79 252.55,-123.87 243.45,-129.31 248.83,-133.79"/>
<text text-anchor="middle" x="311.27" y="-149.8" font-family="Times,serif" font-size="14.00">i2</text>
<text text-anchor="middle" x="236.55" y="-127.67" font-family="Times,serif" font-size="14.00">data</text>
</g>
<!-- /arrays/sequence/next&#45;tap&#45;&gt;/arrays/sequence/compare_switch -->
<g id="edge9" class="edge">
<title>/arrays/sequence/next&#45;tap:e&#45;&gt;/arrays/sequence/compare_switch:ne</title>
<path fill="none" stroke="black" d="M456.55,-98.87C555.87,-98.87 425.16,-242.35 336.69,-287.48 313.43,-299.35 295.62,-307.37 277.4,-295.05"/>
<polygon fill="black" stroke="black" points="279.46,-292.21 269.55,-288.48 274.97,-297.58 279.46,-292.21"/>
<text text-anchor="middle" x="287.55" y="-292.28" font-family="Times,serif" font-size="14.00">right</text>
</g>
<!-- /arrays/sequence/step&#45;tap&#45;&gt;/arrays/sequence/add -->
<g id="edge11" class="edge">
<title>/arrays/sequence/step&#45;tap:e&#45;&gt;/arrays/sequence/add:w</title>
<path fill="none" stroke="black" d="M330.55,-98.87C346.71,-98.87 319.74,-157.54 319.39,-180.01"/>
<polygon fill="black" stroke="black" points="316.4,-181.83 324.55,-188.61 322.41,-178.23 316.4,-181.83"/>
<text text-anchor="middle" x="317.55" y="-177.41" font-family="Times,serif" font-size="14.00">i2</text>
</g>
<!-- /arrays/sequence/not&#45;last&#45;&gt;/arrays/sequence/next&#45;tap -->
<g id="edge8" class="edge">
<title>/arrays/sequence/not&#45;last:se&#45;&gt;/arrays/sequence/next&#45;tap:nw</title>
<path fill="none" stroke="black" d="M269.55,-162.61C303.07,-129.09 336.44,-155.58 369.94,-130.49"/>
<polygon fill="black" stroke="black" points="372.3,-133.08 377.55,-123.87 367.71,-127.8 372.3,-133.08"/>
<text text-anchor="middle" x="318.17" y="-132.04" font-family="Times,serif" font-size="14.00">lt</text>
<text text-anchor="middle" x="403.05" y="-127.67" font-family="Times,serif" font-size="14.00">control</text>
</g>
<!-- /arrays/sequence/not&#45;last&#45;&gt;/arrays/sequence/step&#45;tap -->
<g id="edge14" class="edge">
<title>/arrays/sequence/not&#45;last:se&#45;&gt;/arrays/sequence/step&#45;tap:nw</title>
<path fill="none" stroke="black" d="M269.55,-162.61C279.41,-152.74 257.95,-143.51 251.66,-133.96"/>
<polygon fill="black" stroke="black" points="255.15,-134.14 252.55,-123.87 248.18,-133.52 255.15,-134.14"/>
<text text-anchor="middle" x="255.61" y="-147.09" font-family="Times,serif" font-size="14.00">lt</text>
<text text-anchor="middle" x="278.05" y="-127.67" font-family="Times,serif" font-size="14.00">control</text>
</g>
</g>
</svg>
