<?xml version="1.0" encoding="UTF-8" standalone="no"?>
<!DOCTYPE svg PUBLIC "-//W3C//DTD SVG 1.1//EN"
 "http://www.w3.org/Graphics/SVG/1.1/DTD/svg11.dtd">
<!-- Generated by graphviz version 2.43.0 (0)
 -->
<!-- Title: sequence Pages: 1 -->
<svg width="995pt" height="424pt"
 viewBox="28.80 28.80 965.74 395.54" xmlns="http://www.w3.org/2000/svg" xmlns:xlink="http://www.w3.org/1999/xlink">
<g id="page0,1_graph0" class="graph" transform="scale(1 1) rotate(0) translate(32.8 391.54)">
<title>sequence</title>
<polygon fill="white" stroke="transparent" points="-4,4 -4,-362.74 932.94,-362.74 932.94,4 -4,4"/>
<text text-anchor="middle" x="464.47" y="-343.54" font-family="Times,serif" font-size="14.00">sequence</text>
<!-- /arrays/sequence/start -->
<g id="node1" class="node">
<title>/arrays/sequence/start</title>
<polygon fill="white" stroke="black" points="506.7,-323.3 465.76,-335.74 424.81,-323.3 424.85,-303.18 506.66,-303.18 506.7,-323.3"/>
<text text-anchor="middle" x="465.76" y="-314.04" font-family="Times,serif" font-size="14.00">start</text>
</g>
<!-- /arrays/sequence/compare -->
<g id="node6" class="node">
<title>/arrays/sequence/compare</title>
<g id="a_node6"><a xlink:href="../../flowstdlib/control/compare_switch/compare_switch.html" xlink:title="compare\n(compare_switch)">
<ellipse fill="coral" stroke="black" cx="486.76" cy="-167.87" rx="100.32" ry="26.74"/>
<text text-anchor="middle" x="486.76" y="-171.67" font-family="Times,serif" font-size="14.00">compare</text>
<text text-anchor="middle" x="486.76" y="-156.67" font-family="Times,serif" font-size="14.00">(compare_switch)</text>
</a>
</g>
</g>
<!-- /arrays/sequence/start&#45;&gt;/arrays/sequence/compare -->
<g id="edge4" class="edge">
<title>/arrays/sequence/start:s&#45;&gt;/arrays/sequence/compare:ne</title>
<path fill="none" stroke="black" d="M465.76,-301.74C465.76,-279.22 514.91,-229.1 515.99,-204.21"/>
<polygon fill="black" stroke="black" points="519.3,-203.07 512.76,-194.74 512.68,-205.33 519.3,-203.07"/>
<text text-anchor="middle" x="494.76" y="-198.54" font-family="Times,serif" font-size="14.00">right</text>
</g>
<!-- /arrays/sequence/end -->
<g id="node2" class="node">
<title>/arrays/sequence/end</title>
<polygon fill="white" stroke="black" points="594.35,-323.3 559.76,-335.74 525.17,-323.3 525.2,-303.18 594.32,-303.18 594.35,-323.3"/>
<text text-anchor="middle" x="559.76" y="-314.04" font-family="Times,serif" font-size="14.00">end</text>
</g>
<!-- /arrays/sequence/end&#45;&gt;/arrays/sequence/compare -->
<g id="edge5" class="edge">
<title>/arrays/sequence/end:s&#45;&gt;/arrays/sequence/compare:ne</title>
<path fill="none" stroke="black" d="M559.76,-301.74C559.76,-291.07 528.56,-222.27 523.76,-212.74 521.65,-208.55 520.56,-205.71 519.16,-203.09"/>
<polygon fill="black" stroke="black" points="521.62,-200.54 512.76,-194.74 516.07,-204.8 521.62,-200.54"/>
<text text-anchor="middle" x="525.26" y="-198.54" font-family="Times,serif" font-size="14.00">left</text>
</g>
<!-- /arrays/sequence/step -->
<g id="node3" class="node">
<title>/arrays/sequence/step</title>
<polygon fill="white" stroke="black" points="75.28,-323.3 37.76,-335.74 0.24,-323.3 0.27,-303.18 75.24,-303.18 75.28,-323.3"/>
<text text-anchor="middle" x="37.76" y="-314.04" font-family="Times,serif" font-size="14.00">step</text>
</g>
<!-- /arrays/sequence/add -->
<g id="node9" class="node">
<title>/arrays/sequence/add</title>
<g id="a_node9"><a xlink:href="../../flowstdlib/math/add/add.html" xlink:title="add">
<ellipse fill="coral" stroke="black" cx="304.76" cy="-72" rx="27.9" ry="18"/>
<text text-anchor="middle" x="304.76" y="-68.3" font-family="Times,serif" font-size="14.00">add</text>
</a>
</g>
</g>
<!-- /arrays/sequence/step&#45;&gt;/arrays/sequence/add -->
<g id="edge6" class="edge">
<title>/arrays/sequence/step:s&#45;&gt;/arrays/sequence/add:w</title>
<path fill="none" stroke="black" d="M37.76,-301.74C37.76,-230.03 6.7,-196.79 51.76,-141 82.57,-102.85 207.73,-75.38 265.74,-72.29"/>
<polygon fill="black" stroke="black" points="265.86,-75.79 275.76,-72 265.66,-68.79 265.86,-75.79"/>
<text text-anchor="middle" x="268.76" y="-75.8" font-family="Times,serif" font-size="14.00">i2</text>
</g>
<!-- /arrays/sequence/sequence -->
<g id="node4" class="node">
<title>/arrays/sequence/sequence</title>
<polygon fill="black" stroke="black" points="342.9,-12.44 409.76,0 476.62,-12.44 476.56,-32.56 342.96,-32.56 342.9,-12.44"/>
<text text-anchor="middle" x="409.76" y="-14.3" font-family="Times,serif" font-size="14.00" fill="white">sequence</text>
</g>
<!-- /arrays/sequence/last -->
<g id="node5" class="node">
<title>/arrays/sequence/last</title>
<polygon fill="black" stroke="black" points="494.17,-12.44 528.76,0 563.35,-12.44 563.32,-32.56 494.2,-32.56 494.17,-12.44"/>
<text text-anchor="middle" x="528.76" y="-14.3" font-family="Times,serif" font-size="14.00" fill="white">last</text>
</g>
<!-- /arrays/sequence/compare&#45;&gt;/arrays/sequence/sequence -->
<g id="edge8" class="edge">
<title>/arrays/sequence/compare:s&#45;&gt;/arrays/sequence/sequence:n</title>
<path fill="none" stroke="black" d="M486.76,-141C486.76,-86.07 419.08,-91.59 410.62,-44.21"/>
<polygon fill="black" stroke="black" points="414.09,-43.67 409.76,-34 407.11,-44.26 414.09,-43.67"/>
<text text-anchor="middle" x="418.56" y="-91.18" font-family="Times,serif" font-size="14.00">right&#45;lte</text>
</g>
<!-- /arrays/sequence/compare&#45;&gt;/arrays/sequence/last -->
<g id="edge12" class="edge">
<title>/arrays/sequence/compare:s&#45;&gt;/arrays/sequence/last:n</title>
<path fill="none" stroke="black" d="M486.76,-141C486.76,-129.37 499.85,-133.02 505.76,-123 524.64,-90.97 528.2,-77.36 528.69,-44.37"/>
<polygon fill="black" stroke="black" points="532.19,-44.02 528.76,-34 525.19,-43.98 532.19,-44.02"/>
<text text-anchor="middle" x="489.29" y="-96.27" font-family="Times,serif" font-size="14.00">right&#45;gte</text>
</g>
<!-- /arrays/sequence/compare&#45;&gt;/arrays/sequence/compare -->
<g id="edge9" class="edge">
<title>/arrays/sequence/compare:s&#45;&gt;/arrays/sequence/compare:ne</title>
<path fill="none" stroke="black" d="M486.76,-140.87C526.23,-127.87 605.17,-127.87 605.17,-167.37 605.17,-203.63 560.56,-206.6 522.71,-196.79"/>
<polygon fill="black" stroke="black" points="523.34,-193.33 512.76,-193.87 521.37,-200.05 523.34,-193.33"/>
<text text-anchor="middle" x="470.06" y="-128.07" font-family="Times,serif" font-size="14.00">left&#45;gt</text>
<text text-anchor="middle" x="500.26" y="-182.67" font-family="Times,serif" font-size="14.00">left</text>
</g>
<!-- /arrays/sequence/compare&#45;&gt;/arrays/sequence/add -->
<g id="edge10" class="edge">
<title>/arrays/sequence/compare:sw&#45;&gt;/arrays/sequence/add:ne</title>
<path fill="none" stroke="black" d="M460.76,-141C439.56,-119.8 423.94,-133.22 395.76,-123 364.85,-111.79 349.83,-114.17 328.33,-96"/>
<polygon fill="black" stroke="black" points="330.48,-93.22 320.76,-89 325.73,-98.36 330.48,-93.22"/>
<text text-anchor="middle" x="363.29" y="-124.41" font-family="Times,serif" font-size="14.00">right&#45;lt</text>
<text text-anchor="middle" x="327.76" y="-92.8" font-family="Times,serif" font-size="14.00">i1</text>
</g>
<!-- initializer/arrays/sequence/compare_0 -->
<!-- initializer/arrays/sequence/compare_0&#45;&gt;/arrays/sequence/compare -->
<g id="edge1" class="edge">
<title>initializer/arrays/sequence/compare_0&#45;&gt;/arrays/sequence/compare:ne</title>
<path fill="none" stroke="blue" stroke-dasharray="1,5" d="M676.9,-246.85C621.88,-232.9 547.79,-212.9 521.33,-200.08"/>
<polygon fill="blue" stroke="blue" points="523.1,-197.06 512.76,-194.74 519.4,-203 523.1,-197.06"/>
<text text-anchor="middle" x="610.26" y="-216.54" font-family="Times,serif" font-size="14.00">20</text>
</g>
<!-- initializer/arrays/sequence/compare_1 -->
<!-- initializer/arrays/sequence/compare_1&#45;&gt;/arrays/sequence/compare -->
<g id="edge2" class="edge">
<title>initializer/arrays/sequence/compare_1&#45;&gt;/arrays/sequence/compare:ne</title>
<path fill="none" stroke="blue" stroke-dasharray="1,5" d="M342.56,-246.6C398.27,-231.16 477.23,-208.84 503.75,-199.2"/>
<polygon fill="blue" stroke="blue" points="505.35,-202.31 512.76,-194.74 502.24,-196.04 505.35,-202.31"/>
<text text-anchor="middle" x="463.76" y="-216.54" font-family="Times,serif" font-size="14.00">1</text>
</g>
<!-- /arrays/sequence/add&#45;&gt;/arrays/sequence/compare -->
<g id="edge11" class="edge">
<title>/arrays/sequence/add:e&#45;&gt;/arrays/sequence/compare:ne</title>
<path fill="none" stroke="black" d="M333.76,-72C417.34,-72 433.97,-101.58 514.76,-123 546.81,-131.5 566.74,-114.88 587.17,-141 601.64,-159.51 603.67,-177.14 587.17,-193.87 577.5,-203.66 540.5,-205.95 521.61,-199.7"/>
<polygon fill="black" stroke="black" points="523.21,-196.59 512.76,-194.87 519.86,-202.73 523.21,-196.59"/>
<text text-anchor="middle" x="530.76" y="-198.67" font-family="Times,serif" font-size="14.00">right</text>
</g>
<!-- /arrays/sequence/add&#45;&gt;/arrays/sequence/add -->
<g id="edge7" class="edge">
<title>/arrays/sequence/add:e&#45;&gt;/arrays/sequence/add:w</title>
<path fill="none" stroke="black" d="M332.76,-72C350.71,-85 350.71,-111 304.76,-111 266.35,-111 260.05,-92.83 269.5,-79.28"/>
<polygon fill="black" stroke="black" points="272.17,-81.55 276.76,-72 267.22,-76.61 272.17,-81.55"/>
<text text-anchor="middle" x="339.77" y="-75.8" font-family="Times,serif" font-size="14.00">i2</text>
<text text-anchor="middle" x="269.76" y="-60.8" font-family="Times,serif" font-size="14.00">i2</text>
</g>
<!-- initializer/arrays/sequence/add_1 -->
<!-- initializer/arrays/sequence/add_1&#45;&gt;/arrays/sequence/add -->
<g id="edge3" class="edge">
<title>initializer/arrays/sequence/add_1&#45;&gt;/arrays/sequence/add:w</title>
<path fill="none" stroke="blue" stroke-dasharray="1,5" d="M219.49,-149.47C224.36,-124.76 236.88,-81.57 265.79,-73.37"/>
<polygon fill="blue" stroke="blue" points="266.33,-76.82 275.76,-72 265.38,-69.89 266.33,-76.82"/>
<text text-anchor="middle" x="237.76" y="-111.8" font-family="Times,serif" font-size="14.00">1</text>
</g>
</g>
</svg>
