<?xml version="1.0" encoding="UTF-8" standalone="no"?>
<!DOCTYPE svg PUBLIC "-//W3C//DTD SVG 1.1//EN"
 "http://www.w3.org/Graphics/SVG/1.1/DTD/svg11.dtd">
<!-- Generated by graphviz version 2.40.1 (20161225.0304)
 -->
<!-- Title: primitives Pages: 1 -->
<svg width="837pt" height="476pt"
 viewBox="28.80 28.80 808.53 447.54" xmlns="http://www.w3.org/2000/svg" xmlns:xlink="http://www.w3.org/1999/xlink">
<g id="graph0" class="graph" transform="scale(1 1) rotate(0) translate(32.8 443.5401)">
<title>primitives</title>
<polygon fill="#ffffff" stroke="transparent" points="-4,4 -4,-414.7401 775.7261,-414.7401 775.7261,4 -4,4"/>
<text text-anchor="middle" x="385.863" y="-395.5401" font-family="Times,serif" font-size="14.00" fill="#000000">primitives</text>
<!-- /primitives/add -->
<g id="node1" class="node">
<title>/primitives/add</title>
<g id="a_node1"><a xlink:href="../../flowstdlib/math/add/add.html" xlink:title="add">
<ellipse fill="#ff7f50" stroke="#000000" cx="286.8379" cy="-282.7401" rx="27.8951" ry="18"/>
<text text-anchor="middle" x="286.8379" y="-279.0401" font-family="Times,serif" font-size="14.00" fill="#000000">add</text>
</a>
</g>
</g>
<!-- /primitives/divide -->
<g id="node4" class="node">
<title>/primitives/divide</title>
<g id="a_node4"><a xlink:href="../../flowstdlib/math/divide/divide.html" xlink:title="divide">
<ellipse fill="#ff7f50" stroke="#000000" cx="446.8379" cy="-195.7401" rx="38.9931" ry="18"/>
<text text-anchor="middle" x="446.8379" y="-192.0401" font-family="Times,serif" font-size="14.00" fill="#000000">divide</text>
</a>
</g>
</g>
<!-- /primitives/add&#45;&gt;/primitives/divide -->
<g id="edge6" class="edge">
<title>/primitives/add:sw&#45;&gt;/primitives/divide:w</title>
<path fill="none" stroke="#000000" d="M270.8379,-266.7401C227.2994,-223.2016 353.7799,-255.7042 398.8379,-213.7401 401.5992,-211.1684 402.0406,-207.563 402.2996,-204.2537"/>
<polygon fill="#000000" stroke="#000000" points="405.3188,-206.0311 407.8379,-195.7401 399.4511,-202.214 405.3188,-206.0311"/>
<text text-anchor="middle" x="324.4968" y="-239.7171" font-family="Times,serif" font-size="14.00" fill="#000000">sum</text>
<text text-anchor="middle" x="376.8379" y="-199.5401" font-family="Times,serif" font-size="14.00" fill="#000000">dividend</text>
</g>
<!-- initializer/primitives/add_0 -->
<!-- initializer/primitives/add_0&#45;&gt;/primitives/add -->
<g id="edge1" class="edge">
<title>initializer/primitives/add_0&#45;&gt;/primitives/add:ne</title>
<path fill="none" stroke="#0000ff" stroke-dasharray="1,5" d="M384.288,-352.5154C361.1753,-341.5618 332.6352,-325.6712 310.1969,-305.6769"/>
<polygon fill="#0000ff" stroke="#0000ff" points="312.5154,-303.0526 302.8379,-298.7401 307.7139,-308.1463 312.5154,-303.0526"/>
<text text-anchor="middle" x="349.8379" y="-322.5401" font-family="Times,serif" font-size="14.00" fill="#000000">2</text>
</g>
<!-- initializer/primitives/add_1 -->
<!-- initializer/primitives/add_1&#45;&gt;/primitives/add -->
<g id="edge2" class="edge">
<title>initializer/primitives/add_1&#45;&gt;/primitives/add:w</title>
<path fill="none" stroke="#0000ff" stroke-dasharray="1,5" d="M149.1333,-351.7137C168.1316,-328.0724 205.5538,-288.9318 248.6658,-283.3983"/>
<polygon fill="#0000ff" stroke="#0000ff" points="249.0848,-286.8786 258.8379,-282.7401 248.6328,-279.8932 249.0848,-286.8786"/>
<text text-anchor="middle" x="181.8379" y="-322.5401" font-family="Times,serif" font-size="14.00" fill="#000000">1</text>
</g>
<!-- /primitives/tap -->
<g id="node6" class="node">
<title>/primitives/tap</title>
<g id="a_node6"><a xlink:href="../../flowstdlib/control/tap/tap.html" xlink:title="tap">
<ellipse fill="#ff7f50" stroke="#000000" cx="517.8379" cy="-108.7401" rx="27" ry="18"/>
<text text-anchor="middle" x="517.8379" y="-105.0401" font-family="Times,serif" font-size="14.00" fill="#000000">tap</text>
</a>
</g>
</g>
<!-- /primitives/divide&#45;&gt;/primitives/tap -->
<g id="edge8" class="edge">
<title>/primitives/divide:se&#45;&gt;/primitives/tap:nw</title>
<path fill="none" stroke="#000000" d="M462.8379,-179.7401C481.7621,-160.816 481.6354,-148.6927 495.7968,-131.4688"/>
<polygon fill="#000000" stroke="#000000" points="498.6906,-133.4895 502.8379,-123.7401 493.516,-128.7752 498.6906,-133.4895"/>
<text text-anchor="middle" x="461.311" y="-155.5905" font-family="Times,serif" font-size="14.00" fill="#000000">result</text>
<text text-anchor="middle" x="486.8379" y="-127.5401" font-family="Times,serif" font-size="14.00" fill="#000000">data</text>
</g>
<!-- /primitives/compare -->
<g id="node8" class="node">
<title>/primitives/compare</title>
<g id="a_node8"><a xlink:href="../../flowstdlib/math/compare/compare.html" xlink:title="compare">
<ellipse fill="#ff7f50" stroke="#000000" cx="383.8379" cy="-108.7401" rx="51.1914" ry="18"/>
<text text-anchor="middle" x="383.8379" y="-105.0401" font-family="Times,serif" font-size="14.00" fill="#000000">compare</text>
</a>
</g>
</g>
<!-- /primitives/divide&#45;&gt;/primitives/compare -->
<g id="edge9" class="edge">
<title>/primitives/divide:se&#45;&gt;/primitives/compare:ne</title>
<path fill="none" stroke="#000000" d="M462.8379,-179.7401C468.1622,-174.4159 426.9792,-145.5725 408.7194,-131.9798"/>
<polygon fill="#000000" stroke="#000000" points="410.8508,-129.2032 400.8379,-125.7401 406.5058,-134.6914 410.8508,-129.2032"/>
<text text-anchor="middle" x="444.2106" y="-139.086" font-family="Times,serif" font-size="14.00" fill="#000000">result</text>
<text text-anchor="middle" x="388.3379" y="-129.5401" font-family="Times,serif" font-size="14.00" fill="#000000">left</text>
</g>
<!-- /primitives/print -->
<g id="node10" class="node">
<title>/primitives/print</title>
<g id="a_node10"><a xlink:href="../../flowr/src/lib/flowruntime/stdio/stdout.html" xlink:title="print\n(stdout)">
<ellipse fill="#ff7f50" stroke="#000000" cx="514.8379" cy="-26.8701" rx="51.7379" ry="26.7407"/>
<text text-anchor="middle" x="514.8379" y="-30.6701" font-family="Times,serif" font-size="14.00" fill="#000000">print</text>
<text text-anchor="middle" x="514.8379" y="-15.6701" font-family="Times,serif" font-size="14.00" fill="#000000">(stdout)</text>
</a>
</g>
</g>
<!-- /primitives/divide&#45;&gt;/primitives/print -->
<g id="edge7" class="edge">
<title>/primitives/divide:se&#45;&gt;/primitives/print:w</title>
<path fill="none" stroke="#000000" d="M462.8379,-179.7401C508.0654,-134.5127 407.9245,-38.9596 452.7194,-27.9172"/>
<polygon fill="#000000" stroke="#000000" points="453.2514,-31.381 462.8379,-26.8701 452.5307,-24.4181 453.2514,-31.381"/>
<text text-anchor="middle" x="436.4358" y="-79.7979" font-family="Times,serif" font-size="14.00" fill="#000000">result</text>
</g>
<!-- initializer/primitives/divide_1 -->
<!-- initializer/primitives/divide_1&#45;&gt;/primitives/divide -->
<g id="edge3" class="edge">
<title>initializer/primitives/divide_1&#45;&gt;/primitives/divide:nw</title>
<path fill="none" stroke="#0000ff" stroke-dasharray="1,5" d="M453.7998,-264.7761C438.039,-252.1753 421.6683,-235.0397 425.5883,-220.4397"/>
<polygon fill="#0000ff" stroke="#0000ff" points="428.668,-222.1104 430.8379,-211.7401 422.6746,-218.4937 428.668,-222.1104"/>
<text text-anchor="middle" x="438.8379" y="-235.5401" font-family="Times,serif" font-size="14.00" fill="#000000">2</text>
</g>
<!-- /primitives/tap&#45;&gt;/primitives/print -->
<g id="edge11" class="edge">
<title>/primitives/tap:e&#45;&gt;/primitives/print:w</title>
<path fill="none" stroke="#000000" d="M544.8379,-108.7401C552.8379,-108.7401 549.1783,-97.4603 544.8379,-90.7401 523.1455,-57.1536 484.5304,-87.3267 462.8379,-53.7401 459.0922,-47.9405 455.686,-39.8659 455.7863,-34.0852"/>
<polygon fill="#000000" stroke="#000000" points="458.3514,-36.4681 462.8379,-26.8701 453.3453,-31.5754 458.3514,-36.4681"/>
</g>
<!-- initializer/primitives/tap_1 -->
<!-- initializer/primitives/tap_1&#45;&gt;/primitives/tap -->
<g id="edge4" class="edge">
<title>initializer/primitives/tap_1&#45;&gt;/primitives/tap:nw</title>
<path fill="none" stroke="#0000ff" stroke-dasharray="1,5" d="M587.9486,-178.9939C552.6079,-166.1136 510.0633,-148.1566 501.7937,-133.837"/>
<polygon fill="#0000ff" stroke="#0000ff" points="505.2906,-134.0471 502.8379,-123.7401 498.3277,-133.327 505.2906,-134.0471"/>
<text text-anchor="middle" x="556.8379" y="-148.5401" font-family="Times,serif" font-size="14.00" fill="#000000">false</text>
</g>
<!-- /primitives/compare&#45;&gt;/primitives/print -->
<g id="edge10" class="edge">
<title>/primitives/compare:sw&#45;&gt;/primitives/print:w</title>
<path fill="none" stroke="#000000" d="M366.8379,-91.7401C332.7727,-57.6749 401.4001,-30.5715 452.5536,-27.2192"/>
<polygon fill="#000000" stroke="#000000" points="452.9625,-30.7075 462.8379,-26.8701 452.7249,-23.7115 452.9625,-30.7075"/>
<text text-anchor="middle" x="399.3171" y="-39.2916" font-family="Times,serif" font-size="14.00" fill="#000000">gt</text>
</g>
<!-- initializer/primitives/compare_1 -->
<!-- initializer/primitives/compare_1&#45;&gt;/primitives/compare -->
<g id="edge5" class="edge">
<title>initializer/primitives/compare_1&#45;&gt;/primitives/compare:ne</title>
<path fill="none" stroke="#0000ff" stroke-dasharray="1,5" d="M337.7959,-182.3465C382.7429,-173.0249 421.679,-157.7883 407.1247,-133.5535"/>
<polygon fill="#0000ff" stroke="#0000ff" points="409.8337,-131.3372 400.8379,-125.7401 404.3799,-135.7254 409.8337,-131.3372"/>
<text text-anchor="middle" x="413.8379" y="-148.5401" font-family="Times,serif" font-size="14.00" fill="#000000">1</text>
</g>
</g>
</svg>
