<?xml version="1.0" encoding="UTF-8" standalone="no"?>
<!DOCTYPE svg PUBLIC "-//W3C//DTD SVG 1.1//EN"
 "http://www.w3.org/Graphics/SVG/1.1/DTD/svg11.dtd">
<!-- Generated by graphviz version 2.40.1 (0)
 -->
<!-- Title: primitives Pages: 1 -->
<svg width="870pt" height="530pt"
 viewBox="28.80 28.80 841.53 500.76" xmlns="http://www.w3.org/2000/svg" xmlns:xlink="http://www.w3.org/1999/xlink">
<g id="graph0" class="graph" transform="scale(1 1) rotate(0) translate(32.8 496.7605)">
<title>primitives</title>
<polygon fill="#ffffff" stroke="transparent" points="-4,4 -4,-467.9605 808.7261,-467.9605 808.7261,4 -4,4"/>
<text text-anchor="middle" x="402.363" y="-448.7605" font-family="Times,serif" font-size="14.00" fill="#000000">primitives</text>
<!-- /primitives/add -->
<g id="node1" class="node">
<title>/primitives/add</title>
<g id="a_node1"><a xlink:href="../../flowstdlib/math/add/add.toml" xlink:title="add\n(Add)">
<ellipse fill="#ff7f50" stroke="#000000" cx="289.8379" cy="-327.0904" rx="38.7821" ry="26.7407"/>
<text text-anchor="middle" x="289.8379" y="-330.8904" font-family="Times,serif" font-size="14.00" fill="#000000">add</text>
<text text-anchor="middle" x="289.8379" y="-315.8904" font-family="Times,serif" font-size="14.00" fill="#000000">(Add)</text>
</a>
</g>
</g>
<!-- /primitives/divide -->
<g id="node4" class="node">
<title>/primitives/divide</title>
<g id="a_node4"><a xlink:href="../../flowstdlib/math/divide/divide.toml" xlink:title="divide\n(Divide)">
<ellipse fill="#ff7f50" stroke="#000000" cx="466.8379" cy="-222.3503" rx="51.7379" ry="26.7407"/>
<text text-anchor="middle" x="466.8379" y="-226.1503" font-family="Times,serif" font-size="14.00" fill="#000000">divide</text>
<text text-anchor="middle" x="466.8379" y="-211.1503" font-family="Times,serif" font-size="14.00" fill="#000000">(Divide)</text>
</a>
</g>
</g>
<!-- /primitives/add&#45;&gt;/primitives/divide -->
<g id="edge6" class="edge">
<title>/primitives/add:sw&#45;&gt;/primitives/divide:w</title>
<path fill="none" stroke="#000000" d="M267.8379,-305.0904C220.7578,-258.0103 361.9924,-298.4337 406.8379,-249.2203 411.4276,-244.1836 409.6634,-236.6197 409.1601,-230.7991"/>
<polygon fill="#000000" stroke="#000000" points="412.1651,-232.6025 414.8379,-222.3503 406.3552,-228.698 412.1651,-232.6025"/>
<text text-anchor="middle" x="327.0251" y="-278.6579" font-family="Times,serif" font-size="14.00" fill="#000000">sum</text>
<text text-anchor="middle" x="383.8379" y="-226.1503" font-family="Times,serif" font-size="14.00" fill="#000000">dividend</text>
</g>
<!-- initializer/primitives/add_0 -->
<!-- initializer/primitives/add_0&#45;&gt;/primitives/add -->
<g id="edge1" class="edge">
<title>initializer/primitives/add_0&#45;&gt;/primitives/add:ne</title>
<path fill="none" stroke="#0000ff" stroke-dasharray="1,5" d="M390.952,-405.4427C369.3088,-393.5436 341.4734,-376.3164 319.172,-356.0693"/>
<polygon fill="#0000ff" stroke="#0000ff" points="321.495,-353.4484 311.8379,-349.0904 316.6695,-358.5194 321.495,-353.4484"/>
<text text-anchor="middle" x="362.8379" y="-375.7605" font-family="Times,serif" font-size="14.00" fill="#000000">2</text>
</g>
<!-- initializer/primitives/add_1 -->
<!-- initializer/primitives/add_1&#45;&gt;/primitives/add -->
<g id="edge2" class="edge">
<title>initializer/primitives/add_1&#45;&gt;/primitives/add:w</title>
<path fill="none" stroke="#0000ff" stroke-dasharray="1,5" d="M146.372,-404.928C162.8609,-379.1095 197.42,-334.0208 240.8386,-327.8078"/>
<polygon fill="#0000ff" stroke="#0000ff" points="241.1141,-331.2971 250.8379,-327.0904 240.6131,-324.3151 241.1141,-331.2971"/>
<text text-anchor="middle" x="175.8379" y="-375.7605" font-family="Times,serif" font-size="14.00" fill="#000000">1</text>
</g>
<!-- /primitives/tap -->
<g id="node6" class="node">
<title>/primitives/tap</title>
<g id="a_node6"><a xlink:href="../../flowstdlib/control/tap/tap.toml" xlink:title="tap\n(Tap)">
<ellipse fill="#ff7f50" stroke="#000000" cx="555.8379" cy="-117.6102" rx="37.4533" ry="26.7407"/>
<text text-anchor="middle" x="555.8379" y="-121.4102" font-family="Times,serif" font-size="14.00" fill="#000000">tap</text>
<text text-anchor="middle" x="555.8379" y="-106.4102" font-family="Times,serif" font-size="14.00" fill="#000000">(Tap)</text>
</a>
</g>
</g>
<!-- /primitives/divide&#45;&gt;/primitives/tap -->
<g id="edge8" class="edge">
<title>/primitives/divide:se&#45;&gt;/primitives/tap:nw</title>
<path fill="none" stroke="#000000" d="M490.8379,-198.3503C511.0348,-178.1534 511.2539,-165.6671 526.7685,-147.2774"/>
<polygon fill="#000000" stroke="#000000" points="529.6324,-149.3346 533.8379,-139.6102 524.4861,-144.5895 529.6324,-149.3346"/>
<text text-anchor="middle" x="490.943" y="-172.5931" font-family="Times,serif" font-size="14.00" fill="#000000">result</text>
<text text-anchor="middle" x="517.8379" y="-143.4102" font-family="Times,serif" font-size="14.00" fill="#000000">data</text>
</g>
<!-- /primitives/compare -->
<g id="node8" class="node">
<title>/primitives/compare</title>
<g id="a_node8"><a xlink:href="../../flowstdlib/math/compare/compare.toml" xlink:title="compare\n(Compare)">
<ellipse fill="#ff7f50" stroke="#000000" cx="397.8379" cy="-117.6102" rx="65.1077" ry="26.7407"/>
<text text-anchor="middle" x="397.8379" y="-121.4102" font-family="Times,serif" font-size="14.00" fill="#000000">compare</text>
<text text-anchor="middle" x="397.8379" y="-106.4102" font-family="Times,serif" font-size="14.00" fill="#000000">(Compare)</text>
</a>
</g>
</g>
<!-- /primitives/divide&#45;&gt;/primitives/compare -->
<g id="edge9" class="edge">
<title>/primitives/divide:se&#45;&gt;/primitives/compare:ne</title>
<path fill="none" stroke="#000000" d="M490.8379,-198.3503C496.5857,-192.6025 450.4764,-162.6142 430.8453,-148.7231"/>
<polygon fill="#000000" stroke="#000000" points="432.9103,-145.8962 422.8379,-142.6102 428.6627,-151.4602 432.9103,-145.8962"/>
<text text-anchor="middle" x="480.1333" y="-156.8641" font-family="Times,serif" font-size="14.00" fill="#000000">result</text>
<text text-anchor="middle" x="410.3379" y="-146.4102" font-family="Times,serif" font-size="14.00" fill="#000000">left</text>
</g>
<!-- /primitives/print -->
<g id="node10" class="node">
<title>/primitives/print</title>
<g id="a_node10"><a xlink:href="../../flowruntime/stdio/stdout.toml" xlink:title="print\n(Stdout)">
<ellipse fill="#ff7f50" stroke="#000000" cx="543.8379" cy="-26.8701" rx="53.066" ry="26.7407"/>
<text text-anchor="middle" x="543.8379" y="-30.6701" font-family="Times,serif" font-size="14.00" fill="#000000">print</text>
<text text-anchor="middle" x="543.8379" y="-15.6701" font-family="Times,serif" font-size="14.00" fill="#000000">(Stdout)</text>
</a>
</g>
</g>
<!-- /primitives/divide&#45;&gt;/primitives/print -->
<g id="edge7" class="edge">
<title>/primitives/divide:se&#45;&gt;/primitives/print:w</title>
<path fill="none" stroke="#000000" d="M490.8379,-198.3503C541.9923,-147.1959 427.3638,-38.6484 480.7723,-27.756"/>
<polygon fill="#000000" stroke="#000000" points="481.1834,-31.2335 490.8379,-26.8701 480.5696,-24.2604 481.1834,-31.2335"/>
<text text-anchor="middle" x="495.7041" y="-86.7421" font-family="Times,serif" font-size="14.00" fill="#000000">result</text>
</g>
<!-- initializer/primitives/divide_1 -->
<!-- initializer/primitives/divide_1&#45;&gt;/primitives/divide -->
<g id="edge3" class="edge">
<title>initializer/primitives/divide_1&#45;&gt;/primitives/divide:nw</title>
<path fill="none" stroke="#0000ff" stroke-dasharray="1,5" d="M469.3919,-309.1279C451.5037,-294.2208 431.3082,-272.6959 437.2177,-255.1234"/>
<polygon fill="#0000ff" stroke="#0000ff" points="440.3907,-256.6586 442.8379,-246.3503 434.4965,-252.8826 440.3907,-256.6586"/>
<text text-anchor="middle" x="447.8379" y="-271.0203" font-family="Times,serif" font-size="14.00" fill="#000000">2</text>
</g>
<!-- /primitives/tap&#45;&gt;/primitives/print -->
<g id="edge11" class="edge">
<title>/primitives/tap:e&#45;&gt;/primitives/print:w</title>
<path fill="none" stroke="#000000" d="M593.8379,-117.6102C605.7802,-117.6102 600.7083,-100.5082 593.8379,-90.7401 565.8546,-50.9537 518.8213,-93.5265 490.8379,-53.7401 486.866,-48.0929 483.4952,-39.9946 483.6655,-34.1666"/>
<polygon fill="#000000" stroke="#000000" points="486.3238,-36.4551 490.8379,-26.8701 481.3318,-31.548 486.3238,-36.4551"/>
</g>
<!-- initializer/primitives/tap_1 -->
<!-- initializer/primitives/tap_1&#45;&gt;/primitives/tap -->
<g id="edge4" class="edge">
<title>initializer/primitives/tap_1&#45;&gt;/primitives/tap:nw</title>
<path fill="none" stroke="#0000ff" stroke-dasharray="1,5" d="M604.6658,-206.6993C560.9858,-193.7611 514.1011,-173.3783 527.6295,-147.7349"/>
<polygon fill="#0000ff" stroke="#0000ff" points="530.5473,-149.681 533.8379,-139.6102 524.9852,-145.4309 530.5473,-149.681"/>
<text text-anchor="middle" x="554.8379" y="-166.2802" font-family="Times,serif" font-size="14.00" fill="#000000">false</text>
</g>
<!-- /primitives/compare&#45;&gt;/primitives/print -->
<g id="edge10" class="edge">
<title>/primitives/compare:sw&#45;&gt;/primitives/print:w</title>
<path fill="none" stroke="#000000" d="M372.8379,-92.6102C332.7089,-52.4811 420.248,-29.4747 480.6562,-27.0783"/>
<polygon fill="#000000" stroke="#000000" points="480.9117,-30.5739 490.8379,-26.8701 480.7684,-23.5754 480.9117,-30.5739"/>
<text text-anchor="middle" x="417.9499" y="-37.8751" font-family="Times,serif" font-size="14.00" fill="#000000">gt</text>
</g>
<!-- initializer/primitives/compare_1 -->
<!-- initializer/primitives/compare_1&#45;&gt;/primitives/compare -->
<g id="edge5" class="edge">
<title>initializer/primitives/compare_1&#45;&gt;/primitives/compare:ne</title>
<path fill="none" stroke="#0000ff" stroke-dasharray="1,5" d="M342.3733,-208.6695C396.277,-197.9129 447.5459,-179.7629 429.4102,-150.6733"/>
<polygon fill="#0000ff" stroke="#0000ff" points="431.869,-148.1501 422.8379,-142.6102 426.4431,-152.5728 431.869,-148.1501"/>
<text text-anchor="middle" x="437.8379" y="-166.2802" font-family="Times,serif" font-size="14.00" fill="#000000">1</text>
</g>
</g>
</svg>
