<?xml version="1.0" encoding="UTF-8" standalone="no"?>
<!DOCTYPE svg PUBLIC "-//W3C//DTD SVG 1.1//EN"
 "http://www.w3.org/Graphics/SVG/1.1/DTD/svg11.dtd">
<!-- Generated by graphviz version 2.42.4 (0)
 -->
<!-- Title: primitives Pages: 1 -->
<svg width="870pt" height="530pt"
 viewBox="28.80 28.80 841.53 500.76" xmlns="http://www.w3.org/2000/svg" xmlns:xlink="http://www.w3.org/1999/xlink">
<g id="graph0" class="graph" transform="scale(1 1) rotate(0) translate(32.8 496.76)">
<title>primitives</title>
<polygon fill="white" stroke="transparent" points="-4,4 -4,-467.96 808.73,-467.96 808.73,4 -4,4"/>
<text text-anchor="middle" x="402.36" y="-448.76" font-family="Times,serif" font-size="14.00">primitives</text>
<!-- /primitives/add -->
<g id="node1" class="node">
<title>/primitives/add</title>
<g id="a_node1"><a xlink:href="../../flowstdlib/math/add/add.html" xlink:title="add\n(Add)">
<ellipse fill="coral" stroke="black" cx="289.84" cy="-327.09" rx="38.78" ry="26.74"/>
<text text-anchor="middle" x="289.84" y="-330.89" font-family="Times,serif" font-size="14.00">add</text>
<text text-anchor="middle" x="289.84" y="-315.89" font-family="Times,serif" font-size="14.00">(Add)</text>
</a>
</g>
</g>
<!-- /primitives/divide -->
<g id="node4" class="node">
<title>/primitives/divide</title>
<g id="a_node4"><a xlink:href="../../flowstdlib/math/divide/divide.html" xlink:title="divide\n(Divide)">
<ellipse fill="coral" stroke="black" cx="466.84" cy="-222.35" rx="51.74" ry="26.74"/>
<text text-anchor="middle" x="466.84" y="-226.15" font-family="Times,serif" font-size="14.00">divide</text>
<text text-anchor="middle" x="466.84" y="-211.15" font-family="Times,serif" font-size="14.00">(Divide)</text>
</a>
</g>
</g>
<!-- /primitives/add&#45;&gt;/primitives/divide -->
<g id="edge6" class="edge">
<title>/primitives/add:sw&#45;&gt;/primitives/divide:w</title>
<path fill="none" stroke="black" d="M267.84,-304.09C220.87,-257.13 362.8,-298.94 406.84,-249.22 411.25,-244.24 409.35,-236.82 408.6,-231.04"/>
<polygon fill="black" stroke="black" points="411.67,-232.72 413.84,-222.35 405.68,-229.11 411.67,-232.72"/>
<text text-anchor="middle" x="326.96" y="-278.71" font-family="Times,serif" font-size="14.00">sum</text>
<text text-anchor="middle" x="398.34" y="-211.15" font-family="Times,serif" font-size="14.00">dividend</text>
</g>
<!-- initializer/primitives/add_0 -->
<!-- initializer/primitives/add_0&#45;&gt;/primitives/add -->
<g id="edge1" class="edge">
<title>initializer/primitives/add_0&#45;&gt;/primitives/add:ne</title>
<path fill="none" stroke="blue" stroke-dasharray="1,5" d="M391.36,-405.47C369.61,-394.01 341.51,-377.2 319.18,-357.05"/>
<polygon fill="blue" stroke="blue" points="321.5,-354.43 311.84,-350.09 316.68,-359.51 321.5,-354.43"/>
<text text-anchor="middle" x="362.84" y="-375.76" font-family="Times,serif" font-size="14.00">2</text>
</g>
<!-- initializer/primitives/add_1 -->
<!-- initializer/primitives/add_1&#45;&gt;/primitives/add -->
<g id="edge2" class="edge">
<title>initializer/primitives/add_1&#45;&gt;/primitives/add:w</title>
<path fill="none" stroke="blue" stroke-dasharray="1,5" d="M145.73,-405C161.84,-379.63 196.36,-334.09 239.83,-327.82"/>
<polygon fill="blue" stroke="blue" points="240.12,-331.3 249.84,-327.09 239.61,-324.32 240.12,-331.3"/>
<text text-anchor="middle" x="172.84" y="-375.76" font-family="Times,serif" font-size="14.00">1</text>
</g>
<!-- /primitives/tap -->
<g id="node6" class="node">
<title>/primitives/tap</title>
<g id="a_node6"><a xlink:href="../../flowstdlib/control/tap/tap.html" xlink:title="tap\n(Tap)">
<ellipse fill="coral" stroke="black" cx="555.84" cy="-117.61" rx="37.45" ry="26.74"/>
<text text-anchor="middle" x="555.84" y="-121.41" font-family="Times,serif" font-size="14.00">tap</text>
<text text-anchor="middle" x="555.84" y="-106.41" font-family="Times,serif" font-size="14.00">(Tap)</text>
</a>
</g>
</g>
<!-- /primitives/divide&#45;&gt;/primitives/tap -->
<g id="edge8" class="edge">
<title>/primitives/divide:se&#45;&gt;/primitives/tap:nw</title>
<path fill="none" stroke="black" d="M490.84,-197.35C510.59,-177.6 511.54,-165.94 526.89,-148.08"/>
<polygon fill="black" stroke="black" points="529.59,-150.32 533.84,-140.61 524.46,-145.55 529.59,-150.32"/>
<text text-anchor="middle" x="490.95" y="-172.6" font-family="Times,serif" font-size="14.00">result</text>
<text text-anchor="middle" x="517.84" y="-144.41" font-family="Times,serif" font-size="14.00">data</text>
</g>
<!-- /primitives/compare -->
<g id="node8" class="node">
<title>/primitives/compare</title>
<g id="a_node8"><a xlink:href="../../flowstdlib/math/compare/compare.html" xlink:title="compare\n(Compare)">
<ellipse fill="coral" stroke="black" cx="397.84" cy="-117.61" rx="65.11" ry="26.74"/>
<text text-anchor="middle" x="397.84" y="-121.41" font-family="Times,serif" font-size="14.00">compare</text>
<text text-anchor="middle" x="397.84" y="-106.41" font-family="Times,serif" font-size="14.00">(Compare)</text>
</a>
</g>
</g>
<!-- /primitives/divide&#45;&gt;/primitives/compare -->
<g id="edge9" class="edge">
<title>/primitives/divide:se&#45;&gt;/primitives/compare:ne</title>
<path fill="none" stroke="black" d="M490.84,-197.35C496.48,-191.71 450.81,-163.23 431.08,-149.74"/>
<polygon fill="black" stroke="black" points="432.95,-146.76 422.84,-143.61 428.78,-152.38 432.95,-146.76"/>
<text text-anchor="middle" x="479.98" y="-156.91" font-family="Times,serif" font-size="14.00">result</text>
<text text-anchor="middle" x="410.34" y="-147.41" font-family="Times,serif" font-size="14.00">left</text>
</g>
<!-- /primitives/print -->
<g id="node10" class="node">
<title>/primitives/print</title>
<g id="a_node10"><a xlink:href="../../flowruntime/stdio/stdout.html" xlink:title="print\n(Stdout)">
<ellipse fill="coral" stroke="black" cx="543.84" cy="-26.87" rx="53.07" ry="26.74"/>
<text text-anchor="middle" x="543.84" y="-30.67" font-family="Times,serif" font-size="14.00">print</text>
<text text-anchor="middle" x="543.84" y="-15.67" font-family="Times,serif" font-size="14.00">(Stdout)</text>
</a>
</g>
</g>
<!-- /primitives/divide&#45;&gt;/primitives/print -->
<g id="edge7" class="edge">
<title>/primitives/divide:se&#45;&gt;/primitives/print:w</title>
<path fill="none" stroke="black" d="M490.84,-197.35C541.69,-146.49 426.83,-38.58 479.84,-27.75"/>
<polygon fill="black" stroke="black" points="480.18,-31.23 489.84,-26.87 479.57,-24.26 480.18,-31.23"/>
<text text-anchor="middle" x="495.28" y="-86.33" font-family="Times,serif" font-size="14.00">result</text>
</g>
<!-- initializer/primitives/divide_1 -->
<!-- initializer/primitives/divide_1&#45;&gt;/primitives/divide -->
<g id="edge3" class="edge">
<title>initializer/primitives/divide_1&#45;&gt;/primitives/divide:nw</title>
<path fill="none" stroke="blue" stroke-dasharray="1,5" d="M470.32,-309.27C452.38,-294.78 431.62,-273.51 437.3,-256.07"/>
<polygon fill="blue" stroke="blue" points="440.43,-257.67 442.84,-247.35 434.52,-253.92 440.43,-257.67"/>
<text text-anchor="middle" x="447.84" y="-271.02" font-family="Times,serif" font-size="14.00">2</text>
</g>
<!-- /primitives/tap&#45;&gt;/primitives/print -->
<g id="edge11" class="edge">
<title>/primitives/tap:e&#45;&gt;/primitives/print:w</title>
<path fill="none" stroke="black" d="M594.84,-117.61C606.79,-117.61 600.89,-100.39 593.84,-90.74 565.12,-51.48 519.56,-93 490.84,-53.74 486.76,-48.16 483.07,-40.05 482.99,-34.2"/>
<polygon fill="black" stroke="black" points="485.57,-36.57 489.84,-26.87 480.45,-31.79 485.57,-36.57"/>
</g>
<!-- initializer/primitives/tap_1 -->
<!-- initializer/primitives/tap_1&#45;&gt;/primitives/tap -->
<g id="edge4" class="edge">
<title>initializer/primitives/tap_1&#45;&gt;/primitives/tap:nw</title>
<path fill="none" stroke="blue" stroke-dasharray="1,5" d="M605.73,-206.62C561.86,-194.17 514.25,-174.28 527.65,-148.72"/>
<polygon fill="blue" stroke="blue" points="530.56,-150.68 533.84,-140.61 524.99,-146.44 530.56,-150.68"/>
<text text-anchor="middle" x="551.84" y="-166.28" font-family="Times,serif" font-size="14.00">false</text>
</g>
<!-- /primitives/compare&#45;&gt;/primitives/print -->
<g id="edge10" class="edge">
<title>/primitives/compare:sw&#45;&gt;/primitives/print:w</title>
<path fill="none" stroke="black" d="M372.84,-91.61C333.11,-51.89 419.94,-29.41 479.76,-27.07"/>
<polygon fill="black" stroke="black" points="479.91,-30.57 489.84,-26.87 479.77,-23.57 479.91,-30.57"/>
<text text-anchor="middle" x="417.56" y="-37.72" font-family="Times,serif" font-size="14.00">gt</text>
</g>
<!-- initializer/primitives/compare_1 -->
<!-- initializer/primitives/compare_1&#45;&gt;/primitives/compare -->
<g id="edge5" class="edge">
<title>initializer/primitives/compare_1&#45;&gt;/primitives/compare:ne</title>
<path fill="none" stroke="blue" stroke-dasharray="1,5" d="M341.65,-208.6C395.73,-198.32 447.45,-180.66 429.4,-151.66"/>
<polygon fill="blue" stroke="blue" points="431.87,-149.15 422.84,-143.61 426.44,-153.57 431.87,-149.15"/>
<text text-anchor="middle" x="437.84" y="-166.28" font-family="Times,serif" font-size="14.00">1</text>
</g>
</g>
</svg>
