<?xml version="1.0" encoding="UTF-8" standalone="no"?>
<!DOCTYPE svg PUBLIC "-//W3C//DTD SVG 1.1//EN"
 "http://www.w3.org/Graphics/SVG/1.1/DTD/svg11.dtd">
<!-- Generated by graphviz version 2.44.1 (20200629.0846)
 -->
<!-- Title: primitives Pages: 1 -->
<svg width="687pt" height="476pt"
 viewBox="28.80 28.80 658.03 447.54" xmlns="http://www.w3.org/2000/svg" xmlns:xlink="http://www.w3.org/1999/xlink">
<g id="graph0" class="graph" transform="scale(1 1) rotate(0) translate(32.8 443.54)">
<title>primitives</title>
<polygon fill="white" stroke="transparent" points="-4,4 -4,-414.74 625.23,-414.74 625.23,4 -4,4"/>
<text text-anchor="middle" x="310.62" y="-395.54" font-family="Times,serif" font-size="14.00">primitives</text>
<!-- /primitives/add -->
<g id="node1" class="node">
<title>/primitives/add</title>
<g id="a_node1"><a xlink:href="../../flowstdlib/math/add/add.html" xlink:title="add">
<ellipse fill="coral" stroke="black" cx="228.59" cy="-282.74" rx="27" ry="18"/>
<text text-anchor="middle" x="228.59" y="-279.04" font-family="Times,serif" font-size="14.00">add</text>
</a>
</g>
</g>
<!-- /primitives/divide -->
<g id="node4" class="node">
<title>/primitives/divide</title>
<g id="a_node4"><a xlink:href="../../flowstdlib/math/divide/divide.html" xlink:title="divide">
<ellipse fill="coral" stroke="black" cx="361.59" cy="-195.74" rx="32.49" ry="18"/>
<text text-anchor="middle" x="361.59" y="-192.04" font-family="Times,serif" font-size="14.00">divide</text>
</a>
</g>
</g>
<!-- /primitives/add&#45;&gt;/primitives/divide -->
<g id="edge6" class="edge">
<title>/primitives/add:sw&#45;&gt;/primitives/divide:w</title>
<path fill="none" stroke="black" d="M213.59,-266.74C176.06,-229.21 284.77,-252.9 320.59,-213.74 322.85,-211.27 323.11,-207.98 323.09,-204.89"/>
<polygon fill="black" stroke="black" points="326.31,-206.26 327.59,-195.74 320.03,-203.17 326.31,-206.26"/>
<text text-anchor="middle" x="259.64" y="-239.77" font-family="Times,serif" font-size="14.00">sum</text>
<text text-anchor="middle" x="303.59" y="-199.54" font-family="Times,serif" font-size="14.00">dividend</text>
</g>
<!-- initializer/primitives/add_0 -->
<!-- initializer/primitives/add_0&#45;&gt;/primitives/add -->
<g id="edge1" class="edge">
<title>initializer/primitives/add_0&#45;&gt;/primitives/add:ne</title>
<path fill="none" stroke="blue" stroke-dasharray="1,5" d="M311.25,-352.17C293.7,-340.51 270.37,-323.81 250.86,-305.73"/>
<polygon fill="blue" stroke="blue" points="253.22,-303.15 243.59,-298.74 248.37,-308.19 253.22,-303.15"/>
<text text-anchor="middle" x="286.09" y="-322.54" font-family="Times,serif" font-size="14.00">2</text>
</g>
<!-- initializer/primitives/add_1 -->
<!-- initializer/primitives/add_1&#45;&gt;/primitives/add -->
<g id="edge2" class="edge">
<title>initializer/primitives/add_1&#45;&gt;/primitives/add:w</title>
<path fill="none" stroke="blue" stroke-dasharray="1,5" d="M115.29,-351.75C128.25,-328.84 154.97,-290.15 190.38,-283.67"/>
<polygon fill="blue" stroke="blue" points="190.95,-287.14 200.59,-282.74 190.31,-280.17 190.95,-287.14"/>
<text text-anchor="middle" x="139.09" y="-322.54" font-family="Times,serif" font-size="14.00">1</text>
</g>
<!-- /primitives/tap -->
<g id="node6" class="node">
<title>/primitives/tap</title>
<g id="a_node6"><a xlink:href="../../flowstdlib/control/tap/tap.html" xlink:title="tap">
<ellipse fill="coral" stroke="black" cx="432.59" cy="-108.74" rx="27" ry="18"/>
<text text-anchor="middle" x="432.59" y="-105.04" font-family="Times,serif" font-size="14.00">tap</text>
</a>
</g>
</g>
<!-- /primitives/divide&#45;&gt;/primitives/tap -->
<g id="edge8" class="edge">
<title>/primitives/divide:se&#45;&gt;/primitives/tap:nw</title>
<path fill="none" stroke="black" d="M377.59,-178.74C396.07,-160.26 396.67,-148.95 410.67,-132.26"/>
<polygon fill="black" stroke="black" points="413.4,-134.47 417.59,-124.74 408.24,-129.73 413.4,-134.47"/>
<text text-anchor="middle" x="382.06" y="-155.59" font-family="Times,serif" font-size="14.00">result</text>
<text text-anchor="middle" x="406.09" y="-128.54" font-family="Times,serif" font-size="14.00">data</text>
</g>
<!-- /primitives/compare -->
<g id="node8" class="node">
<title>/primitives/compare</title>
<g id="a_node8"><a xlink:href="../../flowstdlib/math/compare/compare.html" xlink:title="compare">
<ellipse fill="coral" stroke="black" cx="307.59" cy="-108.74" rx="41.69" ry="18"/>
<text text-anchor="middle" x="307.59" y="-105.04" font-family="Times,serif" font-size="14.00">compare</text>
</a>
</g>
</g>
<!-- /primitives/divide&#45;&gt;/primitives/compare -->
<g id="edge9" class="edge">
<title>/primitives/divide:se&#45;&gt;/primitives/compare:ne</title>
<path fill="none" stroke="black" d="M377.59,-178.74C382.28,-174.05 348.88,-147.01 332.62,-133.59"/>
<polygon fill="black" stroke="black" points="334.47,-130.57 324.59,-126.74 329.92,-135.89 334.47,-130.57"/>
<text text-anchor="middle" x="368.22" y="-139.16" font-family="Times,serif" font-size="14.00">result</text>
<text text-anchor="middle" x="315.09" y="-130.54" font-family="Times,serif" font-size="14.00">left</text>
</g>
<!-- /primitives/print -->
<g id="node10" class="node">
<title>/primitives/print</title>
<g id="a_node10"><a xlink:href="../../flowr/src/lib/flowruntime/stdio/stdout.html" xlink:title="print\n(stdout)">
<ellipse fill="coral" stroke="black" cx="419.59" cy="-26.87" rx="41.94" ry="26.74"/>
<text text-anchor="middle" x="419.59" y="-30.67" font-family="Times,serif" font-size="14.00">print</text>
<text text-anchor="middle" x="419.59" y="-15.67" font-family="Times,serif" font-size="14.00">(stdout)</text>
</a>
</g>
</g>
<!-- /primitives/divide&#45;&gt;/primitives/print -->
<g id="edge7" class="edge">
<title>/primitives/divide:se&#45;&gt;/primitives/print:w</title>
<path fill="none" stroke="black" d="M377.59,-178.74C422.52,-133.81 322.15,-38.88 366.55,-27.91"/>
<polygon fill="black" stroke="black" points="367,-31.38 376.59,-26.87 366.28,-24.42 367,-31.38"/>
<text text-anchor="middle" x="356.76" y="-79.38" font-family="Times,serif" font-size="14.00">result</text>
</g>
<!-- initializer/primitives/divide_1 -->
<!-- initializer/primitives/divide_1&#45;&gt;/primitives/divide -->
<g id="edge3" class="edge">
<title>initializer/primitives/divide_1&#45;&gt;/primitives/divide:nw</title>
<path fill="none" stroke="blue" stroke-dasharray="1,5" d="M366.83,-264.98C352.36,-252.72 336.93,-235.83 340.39,-221.62"/>
<polygon fill="blue" stroke="blue" points="343.55,-223.14 345.59,-212.74 337.51,-219.6 343.55,-223.14"/>
<text text-anchor="middle" x="351.09" y="-235.54" font-family="Times,serif" font-size="14.00">2</text>
</g>
<!-- /primitives/tap&#45;&gt;/primitives/print -->
<g id="edge11" class="edge">
<title>/primitives/tap:e&#45;&gt;/primitives/print:w</title>
<path fill="none" stroke="black" d="M460.59,-108.74C468.6,-108.74 464.12,-97.35 459.59,-90.74 436.97,-57.77 399.9,-86.92 377.59,-53.74 373.84,-48.16 370.21,-40.36 369.88,-34.6"/>
<polygon fill="black" stroke="black" points="372.68,-36.72 376.59,-26.87 367.39,-32.12 372.68,-36.72"/>
</g>
<!-- initializer/primitives/tap_1 -->
<!-- initializer/primitives/tap_1&#45;&gt;/primitives/tap -->
<g id="edge4" class="edge">
<title>initializer/primitives/tap_1&#45;&gt;/primitives/tap:nw</title>
<path fill="none" stroke="blue" stroke-dasharray="1,5" d="M467.19,-179.77C436.83,-168.52 404.95,-151.89 411.85,-133.17"/>
<polygon fill="blue" stroke="blue" points="414.86,-134.98 417.59,-124.74 409.07,-131.04 414.86,-134.98"/>
<text text-anchor="middle" x="437.59" y="-148.54" font-family="Times,serif" font-size="14.00">false</text>
</g>
<!-- /primitives/compare&#45;&gt;/primitives/print -->
<g id="edge10" class="edge">
<title>/primitives/compare:sw&#45;&gt;/primitives/print:w</title>
<path fill="none" stroke="black" d="M290.59,-90.74C259.23,-59.38 319.62,-31.02 366.53,-27.28"/>
<polygon fill="black" stroke="black" points="366.74,-30.78 376.59,-26.87 366.45,-23.78 366.74,-30.78"/>
<text text-anchor="middle" x="320.05" y="-39.78" font-family="Times,serif" font-size="14.00">gt</text>
</g>
<!-- initializer/primitives/compare_1 -->
<!-- initializer/primitives/compare_1&#45;&gt;/primitives/compare -->
<g id="edge5" class="edge">
<title>initializer/primitives/compare_1&#45;&gt;/primitives/compare:ne</title>
<path fill="none" stroke="blue" stroke-dasharray="1,5" d="M263.65,-181.45C303.51,-171.79 341.75,-156.57 330.65,-134.74"/>
<polygon fill="blue" stroke="blue" points="333.42,-132.6 324.59,-126.74 327.84,-136.82 333.42,-132.6"/>
<text text-anchor="middle" x="335.09" y="-148.54" font-family="Times,serif" font-size="14.00">1</text>
</g>
</g>
</svg>
