<?xml version="1.0" encoding="UTF-8" standalone="no"?>
<!DOCTYPE svg PUBLIC "-//W3C//DTD SVG 1.1//EN"
 "http://www.w3.org/Graphics/SVG/1.1/DTD/svg11.dtd">
<!-- Generated by graphviz version 2.43.0 (0)
 -->
<!-- Title: primitives Pages: 1 -->
<svg width="848pt" height="476pt"
 viewBox="28.80 28.80 819.53 447.54" xmlns="http://www.w3.org/2000/svg" xmlns:xlink="http://www.w3.org/1999/xlink">
<g id="graph0" class="graph" transform="scale(1 1) rotate(0) translate(32.8 443.54)">
<title>primitives</title>
<polygon fill="white" stroke="transparent" points="-4,4 -4,-414.74 786.73,-414.74 786.73,4 -4,4"/>
<text text-anchor="middle" x="391.36" y="-395.54" font-family="Times,serif" font-size="14.00">primitives</text>
<!-- /primitives/add -->
<g id="node1" class="node">
<title>/primitives/add</title>
<g id="a_node1"><a xlink:href="../../flowstdlib/math/add/add.html" xlink:title="add">
<ellipse fill="coral" stroke="black" cx="286.84" cy="-282.74" rx="27.9" ry="18"/>
<text text-anchor="middle" x="286.84" y="-279.04" font-family="Times,serif" font-size="14.00">add</text>
</a>
</g>
</g>
<!-- /primitives/divide -->
<g id="node4" class="node">
<title>/primitives/divide</title>
<g id="a_node4"><a xlink:href="../../flowstdlib/math/divide/divide.html" xlink:title="divide">
<ellipse fill="coral" stroke="black" cx="457.84" cy="-195.74" rx="38.99" ry="18"/>
<text text-anchor="middle" x="457.84" y="-192.04" font-family="Times,serif" font-size="14.00">divide</text>
</a>
</g>
</g>
<!-- /primitives/add&#45;&gt;/primitives/divide -->
<g id="edge6" class="edge">
<title>/primitives/add:e&#45;&gt;/primitives/divide:w</title>
<path fill="none" stroke="black" d="M315.84,-282.74C324.59,-282.74 318.02,-271.28 323.84,-264.74 353.37,-231.53 380.31,-246.95 409.84,-213.74 412.2,-211.08 412.52,-207.61 412.65,-204.43"/>
<polygon fill="black" stroke="black" points="415.72,-206.12 417.84,-195.74 409.71,-202.53 415.72,-206.12"/>
<text text-anchor="middle" x="402.34" y="-184.54" font-family="Times,serif" font-size="14.00">dividend</text>
</g>
<!-- initializer/primitives/add_0 -->
<!-- initializer/primitives/add_0&#45;&gt;/primitives/add -->
<g id="edge1" class="edge">
<title>initializer/primitives/add_0&#45;&gt;/primitives/add:ne</title>
<path fill="none" stroke="blue" stroke-dasharray="1,5" d="M384.47,-352.47C361.27,-341.95 332.59,-326.5 310.18,-306.64"/>
<polygon fill="blue" stroke="blue" points="312.52,-304.04 302.84,-299.74 307.73,-309.14 312.52,-304.04"/>
<text text-anchor="middle" x="349.84" y="-322.54" font-family="Times,serif" font-size="14.00">2</text>
</g>
<!-- initializer/primitives/add_1 -->
<!-- initializer/primitives/add_1&#45;&gt;/primitives/add -->
<g id="edge2" class="edge">
<title>initializer/primitives/add_1&#45;&gt;/primitives/add:w</title>
<path fill="none" stroke="blue" stroke-dasharray="1,5" d="M148.37,-351.75C167,-328.5 204.46,-288.99 247.65,-283.4"/>
<polygon fill="blue" stroke="blue" points="248.09,-286.88 257.84,-282.74 247.63,-279.9 248.09,-286.88"/>
<text text-anchor="middle" x="181.84" y="-322.54" font-family="Times,serif" font-size="14.00">1</text>
</g>
<!-- /primitives/tap -->
<g id="node6" class="node">
<title>/primitives/tap</title>
<g id="a_node6"><a xlink:href="../../flowstdlib/control/tap/tap.html" xlink:title="tap">
<ellipse fill="coral" stroke="black" cx="528.84" cy="-108.74" rx="27" ry="18"/>
<text text-anchor="middle" x="528.84" y="-105.04" font-family="Times,serif" font-size="14.00">tap</text>
</a>
</g>
</g>
<!-- /primitives/divide&#45;&gt;/primitives/tap -->
<g id="edge8" class="edge">
<title>/primitives/divide:se&#45;&gt;/primitives/tap:nw</title>
<path fill="none" stroke="black" d="M473.84,-178.74C492.32,-160.26 492.91,-148.95 506.92,-132.26"/>
<polygon fill="black" stroke="black" points="509.64,-134.47 513.84,-124.74 504.49,-129.73 509.64,-134.47"/>
<text text-anchor="middle" x="472.31" y="-155.59" font-family="Times,serif" font-size="14.00">result</text>
<text text-anchor="middle" x="497.84" y="-128.54" font-family="Times,serif" font-size="14.00">data</text>
</g>
<!-- /primitives/compare -->
<g id="node8" class="node">
<title>/primitives/compare</title>
<g id="a_node8"><a xlink:href="../../flowstdlib/math/compare/compare.html" xlink:title="compare">
<ellipse fill="coral" stroke="black" cx="394.84" cy="-108.74" rx="50.89" ry="18"/>
<text text-anchor="middle" x="394.84" y="-105.04" font-family="Times,serif" font-size="14.00">compare</text>
</a>
</g>
</g>
<!-- /primitives/divide&#45;&gt;/primitives/compare -->
<g id="edge9" class="edge">
<title>/primitives/divide:se&#45;&gt;/primitives/compare:ne</title>
<path fill="none" stroke="black" d="M473.84,-178.74C479.05,-173.52 438.27,-146.15 419.94,-132.97"/>
<polygon fill="black" stroke="black" points="421.9,-130.07 411.84,-126.74 417.63,-135.61 421.9,-130.07"/>
<text text-anchor="middle" x="455.37" y="-139.36" font-family="Times,serif" font-size="14.00">result</text>
<text text-anchor="middle" x="399.34" y="-130.54" font-family="Times,serif" font-size="14.00">left</text>
</g>
<!-- /primitives/print -->
<g id="node10" class="node">
<title>/primitives/print</title>
<g id="a_node10"><a xlink:href="../../flowr/src/lib/flowruntime/stdio/stdout.html" xlink:title="print\n(stdout)">
<ellipse fill="coral" stroke="black" cx="525.84" cy="-26.87" rx="51.74" ry="26.74"/>
<text text-anchor="middle" x="525.84" y="-30.67" font-family="Times,serif" font-size="14.00">print</text>
<text text-anchor="middle" x="525.84" y="-15.67" font-family="Times,serif" font-size="14.00">(stdout)</text>
</a>
</g>
</g>
<!-- /primitives/divide&#45;&gt;/primitives/print -->
<g id="edge7" class="edge">
<title>/primitives/divide:se&#45;&gt;/primitives/print:w</title>
<path fill="none" stroke="black" d="M473.84,-178.74C518.77,-133.81 418.4,-38.88 462.8,-27.91"/>
<polygon fill="black" stroke="black" points="463.25,-31.38 472.84,-26.87 462.53,-24.42 463.25,-31.38"/>
<text text-anchor="middle" x="447.01" y="-79.38" font-family="Times,serif" font-size="14.00">result</text>
</g>
<!-- initializer/primitives/divide_1 -->
<!-- initializer/primitives/divide_1&#45;&gt;/primitives/divide -->
<g id="edge3" class="edge">
<title>initializer/primitives/divide_1&#45;&gt;/primitives/divide:nw</title>
<path fill="none" stroke="blue" stroke-dasharray="1,5" d="M459.45,-264.7C446.55,-252.29 432.94,-235.3 436.69,-221.37"/>
<polygon fill="blue" stroke="blue" points="439.72,-223.12 441.84,-212.74 433.71,-219.53 439.72,-223.12"/>
<text text-anchor="middle" x="447.84" y="-235.54" font-family="Times,serif" font-size="14.00">2</text>
</g>
<!-- /primitives/tap&#45;&gt;/primitives/print -->
<g id="edge11" class="edge">
<title>/primitives/tap:e&#45;&gt;/primitives/print:w</title>
<path fill="none" stroke="black" d="M556.84,-108.74C564.85,-108.74 560.37,-97.35 555.84,-90.74 533.22,-57.77 496.15,-86.92 473.84,-53.74 470.09,-48.16 466.46,-40.36 466.13,-34.6"/>
<polygon fill="black" stroke="black" points="468.92,-36.72 472.84,-26.87 463.64,-32.12 468.92,-36.72"/>
</g>
<!-- initializer/primitives/tap_1 -->
<!-- initializer/primitives/tap_1&#45;&gt;/primitives/tap -->
<g id="edge4" class="edge">
<title>initializer/primitives/tap_1&#45;&gt;/primitives/tap:nw</title>
<path fill="none" stroke="blue" stroke-dasharray="1,5" d="M599.82,-178.89C564.4,-166.46 521.35,-148.94 512.88,-134.77"/>
<polygon fill="blue" stroke="blue" points="516.37,-135.03 513.84,-124.74 509.4,-134.36 516.37,-135.03"/>
<text text-anchor="middle" x="567.84" y="-148.54" font-family="Times,serif" font-size="14.00">false</text>
</g>
<!-- /primitives/compare&#45;&gt;/primitives/print -->
<g id="edge10" class="edge">
<title>/primitives/compare:sw&#45;&gt;/primitives/print:w</title>
<path fill="none" stroke="black" d="M377.84,-90.74C344.18,-57.08 412.12,-30.5 462.68,-27.21"/>
<polygon fill="black" stroke="black" points="462.96,-30.7 472.84,-26.87 462.73,-23.71 462.96,-30.7"/>
<text text-anchor="middle" x="409.94" y="-39.13" font-family="Times,serif" font-size="14.00">gt</text>
</g>
<!-- initializer/primitives/compare_1 -->
<!-- initializer/primitives/compare_1&#45;&gt;/primitives/compare -->
<g id="edge5" class="edge">
<title>initializer/primitives/compare_1&#45;&gt;/primitives/compare:ne</title>
<path fill="none" stroke="blue" stroke-dasharray="1,5" d="M348.12,-182.38C393.27,-173.5 432.59,-158.69 418.11,-134.54"/>
<polygon fill="blue" stroke="blue" points="420.83,-132.34 411.84,-126.74 415.38,-136.73 420.83,-132.34"/>
<text text-anchor="middle" x="425.84" y="-148.54" font-family="Times,serif" font-size="14.00">1</text>
</g>
</g>
</svg>
