<?xml version="1.0" encoding="UTF-8" standalone="no"?>
<!DOCTYPE svg PUBLIC "-//W3C//DTD SVG 1.1//EN"
 "http://www.w3.org/Graphics/SVG/1.1/DTD/svg11.dtd">
<!-- Generated by graphviz version 2.44.0 (20200408.0750)
 -->
<!-- Title: primitives Pages: 1 -->
<svg width="713pt" height="530pt"
 viewBox="28.80 28.80 684.03 500.76" xmlns="http://www.w3.org/2000/svg" xmlns:xlink="http://www.w3.org/1999/xlink">
<g id="graph0" class="graph" transform="scale(1 1) rotate(0) translate(32.8 496.76)">
<title>primitives</title>
<polygon fill="white" stroke="transparent" points="-4,4 -4,-467.96 651.23,-467.96 651.23,4 -4,4"/>
<text text-anchor="middle" x="323.62" y="-448.76" font-family="Times,serif" font-size="14.00">primitives</text>
<!-- /primitives/add -->
<g id="node1" class="node">
<title>/primitives/add</title>
<g id="a_node1"><a xlink:href="../../flowstdlib/math/add/add.toml" xlink:title="add\n(Add)">
<ellipse fill="coral" stroke="black" cx="229.59" cy="-327.09" rx="34.8" ry="26.74"/>
<text text-anchor="middle" x="229.59" y="-330.89" font-family="Times,serif" font-size="14.00">add</text>
<text text-anchor="middle" x="229.59" y="-315.89" font-family="Times,serif" font-size="14.00">(Add)</text>
</a>
</g>
</g>
<!-- /primitives/divide -->
<g id="node4" class="node">
<title>/primitives/divide</title>
<g id="a_node4"><a xlink:href="../../flowstdlib/math/divide/divide.toml" xlink:title="divide\n(Divide)">
<ellipse fill="coral" stroke="black" cx="376.59" cy="-222.35" rx="43.68" ry="26.74"/>
<text text-anchor="middle" x="376.59" y="-226.15" font-family="Times,serif" font-size="14.00">divide</text>
<text text-anchor="middle" x="376.59" y="-211.15" font-family="Times,serif" font-size="14.00">(Divide)</text>
</a>
</g>
</g>
<!-- /primitives/add&#45;&gt;/primitives/divide -->
<g id="edge6" class="edge">
<title>/primitives/add:sw&#45;&gt;/primitives/divide:w</title>
<path fill="none" stroke="black" d="M208.59,-305.09C168.41,-264.91 286.81,-292.54 323.59,-249.22 328,-244.03 326.25,-236.48 325.8,-230.7"/>
<polygon fill="black" stroke="black" points="328.77,-232.56 331.59,-222.35 323.02,-228.58 328.77,-232.56"/>
<text text-anchor="middle" x="259.77" y="-277.22" font-family="Times,serif" font-size="14.00">sum</text>
<text text-anchor="middle" x="307.59" y="-226.15" font-family="Times,serif" font-size="14.00">dividend</text>
</g>
<!-- initializer/primitives/add_0 -->
<!-- initializer/primitives/add_0&#45;&gt;/primitives/add -->
<g id="edge1" class="edge">
<title>initializer/primitives/add_0&#45;&gt;/primitives/add:ne</title>
<path fill="none" stroke="blue" stroke-dasharray="1,5" d="M315.58,-405.29C299.47,-392.73 277.15,-374.58 257.83,-356.15"/>
<polygon fill="blue" stroke="blue" points="260.19,-353.57 250.59,-349.09 255.3,-358.58 260.19,-353.57"/>
<text text-anchor="middle" x="295.09" y="-375.76" font-family="Times,serif" font-size="14.00">2</text>
</g>
<!-- initializer/primitives/add_1 -->
<!-- initializer/primitives/add_1&#45;&gt;/primitives/add -->
<g id="edge2" class="edge">
<title>initializer/primitives/add_1&#45;&gt;/primitives/add:w</title>
<path fill="none" stroke="blue" stroke-dasharray="1,5" d="M113.22,-404.56C123.93,-379.53 147.48,-335.53 183.2,-328.15"/>
<polygon fill="blue" stroke="blue" points="184,-331.59 193.59,-327.09 183.29,-324.63 184,-331.59"/>
<text text-anchor="middle" x="133.09" y="-375.76" font-family="Times,serif" font-size="14.00">1</text>
</g>
<!-- /primitives/tap -->
<g id="node6" class="node">
<title>/primitives/tap</title>
<g id="a_node6"><a xlink:href="../../flowstdlib/control/tap/tap.toml" xlink:title="tap\n(Tap)">
<ellipse fill="coral" stroke="black" cx="460.59" cy="-117.61" rx="33.47" ry="26.74"/>
<text text-anchor="middle" x="460.59" y="-121.41" font-family="Times,serif" font-size="14.00">tap</text>
<text text-anchor="middle" x="460.59" y="-106.41" font-family="Times,serif" font-size="14.00">(Tap)</text>
</a>
</g>
</g>
<!-- /primitives/divide&#45;&gt;/primitives/tap -->
<g id="edge8" class="edge">
<title>/primitives/divide:se&#45;&gt;/primitives/tap:nw</title>
<path fill="none" stroke="black" d="M399.59,-198.35C419.31,-178.63 417.98,-165.36 432.76,-147.15"/>
<polygon fill="black" stroke="black" points="435.47,-149.37 439.59,-139.61 430.28,-144.67 435.47,-149.37"/>
<text text-anchor="middle" x="404.18" y="-172.59" font-family="Times,serif" font-size="14.00">result</text>
<text text-anchor="middle" x="428.09" y="-143.41" font-family="Times,serif" font-size="14.00">data</text>
</g>
<!-- /primitives/compare -->
<g id="node8" class="node">
<title>/primitives/compare</title>
<g id="a_node8"><a xlink:href="../../flowstdlib/math/compare/compare.toml" xlink:title="compare\n(Compare)">
<ellipse fill="coral" stroke="black" cx="317.59" cy="-117.61" rx="53.98" ry="26.74"/>
<text text-anchor="middle" x="317.59" y="-121.41" font-family="Times,serif" font-size="14.00">compare</text>
<text text-anchor="middle" x="317.59" y="-106.41" font-family="Times,serif" font-size="14.00">(Compare)</text>
</a>
</g>
</g>
<!-- /primitives/divide&#45;&gt;/primitives/compare -->
<g id="edge9" class="edge">
<title>/primitives/divide:se&#45;&gt;/primitives/compare:ne</title>
<path fill="none" stroke="black" d="M399.59,-198.35C404.78,-193.17 366.68,-163.23 349.33,-149.15"/>
<polygon fill="black" stroke="black" points="351.49,-146.39 341.59,-142.61 346.97,-151.74 351.49,-146.39"/>
<text text-anchor="middle" x="388.04" y="-156.92" font-family="Times,serif" font-size="14.00">result</text>
<text text-anchor="middle" x="332.09" y="-146.41" font-family="Times,serif" font-size="14.00">left</text>
</g>
<!-- /primitives/print -->
<g id="node10" class="node">
<title>/primitives/print</title>
<g id="a_node10"><a xlink:href="../../flowruntime/stdio/stdout.toml" xlink:title="print\n(Stdout)">
<ellipse fill="coral" stroke="black" cx="443.59" cy="-26.87" rx="43.27" ry="26.74"/>
<text text-anchor="middle" x="443.59" y="-30.67" font-family="Times,serif" font-size="14.00">print</text>
<text text-anchor="middle" x="443.59" y="-15.67" font-family="Times,serif" font-size="14.00">(Stdout)</text>
</a>
</g>
</g>
<!-- /primitives/divide&#45;&gt;/primitives/print -->
<g id="edge7" class="edge">
<title>/primitives/divide:se&#45;&gt;/primitives/print:w</title>
<path fill="none" stroke="black" d="M399.59,-198.35C450.75,-147.2 335.21,-38.65 388.53,-27.76"/>
<polygon fill="black" stroke="black" points="388.94,-31.23 398.59,-26.87 388.32,-24.26 388.94,-31.23"/>
<text text-anchor="middle" x="408.74" y="-101.74" font-family="Times,serif" font-size="14.00">result</text>
</g>
<!-- initializer/primitives/divide_1 -->
<!-- initializer/primitives/divide_1&#45;&gt;/primitives/divide -->
<g id="edge3" class="edge">
<title>initializer/primitives/divide_1&#45;&gt;/primitives/divide:nw</title>
<path fill="none" stroke="blue" stroke-dasharray="1,5" d="M377.48,-309.1C361.09,-294.24 342.09,-272.39 348.05,-254.99"/>
<polygon fill="blue" stroke="blue" points="351.14,-256.66 353.59,-246.35 345.24,-252.88 351.14,-256.66"/>
<text text-anchor="middle" x="356.09" y="-271.02" font-family="Times,serif" font-size="14.00">2</text>
</g>
<!-- /primitives/tap&#45;&gt;/primitives/print -->
<g id="edge11" class="edge">
<title>/primitives/tap:e&#45;&gt;/primitives/print:w</title>
<path fill="none" stroke="black" d="M495.59,-117.61C507.54,-117.61 501.52,-100.48 494.59,-90.74 468.33,-53.82 425.86,-90.66 399.59,-53.74 395.69,-48.26 392.08,-40.45 391.8,-34.65"/>
<polygon fill="black" stroke="black" points="394.65,-36.71 398.59,-26.87 389.38,-32.1 394.65,-36.71"/>
</g>
<!-- initializer/primitives/tap_1 -->
<!-- initializer/primitives/tap_1&#45;&gt;/primitives/tap -->
<g id="edge4" class="edge">
<title>initializer/primitives/tap_1&#45;&gt;/primitives/tap:nw</title>
<path fill="none" stroke="blue" stroke-dasharray="1,5" d="M511.81,-205.04C483.54,-189.26 445.04,-165.47 438.29,-149.57"/>
<polygon fill="blue" stroke="blue" points="441.77,-149.98 439.59,-139.61 434.83,-149.07 441.77,-149.98"/>
<text text-anchor="middle" x="479.59" y="-166.28" font-family="Times,serif" font-size="14.00">false</text>
</g>
<!-- /primitives/compare&#45;&gt;/primitives/print -->
<g id="edge10" class="edge">
<title>/primitives/compare:sw&#45;&gt;/primitives/print:w</title>
<path fill="none" stroke="black" d="M293.59,-92.61C257.02,-56.04 333.24,-30.16 388.25,-27.16"/>
<polygon fill="black" stroke="black" points="388.69,-30.65 398.59,-26.87 388.5,-23.65 388.69,-30.65"/>
<text text-anchor="middle" x="333.62" y="-38.83" font-family="Times,serif" font-size="14.00">gt</text>
</g>
<!-- initializer/primitives/compare_1 -->
<!-- initializer/primitives/compare_1&#45;&gt;/primitives/compare -->
<g id="edge5" class="edge">
<title>initializer/primitives/compare_1&#45;&gt;/primitives/compare:ne</title>
<path fill="none" stroke="blue" stroke-dasharray="1,5" d="M264,-207.87C311.92,-196.44 362.74,-177.61 347.95,-150.79"/>
<polygon fill="blue" stroke="blue" points="350.49,-148.35 341.59,-142.61 344.97,-152.65 350.49,-148.35"/>
<text text-anchor="middle" x="353.09" y="-166.28" font-family="Times,serif" font-size="14.00">1</text>
</g>
</g>
</svg>
