<?xml version="1.0" encoding="UTF-8" standalone="no"?>
<!DOCTYPE svg PUBLIC "-//W3C//DTD SVG 1.1//EN"
 "http://www.w3.org/Graphics/SVG/1.1/DTD/svg11.dtd">
<!-- Generated by graphviz version 2.40.1 (0)
 -->
<!-- Title: primitives Pages: 1 -->
<svg width="586pt" height="401pt"
 viewBox="0.00 0.00 585.79 401.00" xmlns="http://www.w3.org/2000/svg" xmlns:xlink="http://www.w3.org/1999/xlink">
<g id="graph0" class="graph" transform="scale(1 1) rotate(0) translate(4 397)">
<title>primitives</title>
<polygon fill="#ffffff" stroke="transparent" points="-4,4 -4,-397 581.7866,-397 581.7866,4 -4,4"/>
<text text-anchor="middle" x="288.8933" y="-377.8" font-family="Times,serif" font-size="14.00" fill="#000000">/primitives</text>
<!-- r0 -->
<g id="node1" class="node">
<title>r0</title>
<g id="a_node1"><a xlink:href="file:///home/andrew/workspace/flow/flowstdlib/math/add/add.toml" xlink:title="add (#0)">
<ellipse fill="#ff7f50" stroke="#000000" cx="408.3933" cy="-265" rx="51.1914" ry="18"/>
<text text-anchor="middle" x="408.3933" y="-261.3" font-family="Times,serif" font-size="14.00" fill="#000000">add (#0)</text>
</a>
</g>
</g>
<!-- r1 -->
<g id="node4" class="node">
<title>r1</title>
<g id="a_node4"><a xlink:href="file:///home/andrew/workspace/flow/flowstdlib/math/divide/divide.toml" xlink:title="divide (#1)">
<ellipse fill="#ff7f50" stroke="#000000" cx="285.3933" cy="-178" rx="62.2891" ry="18"/>
<text text-anchor="middle" x="285.3933" y="-174.3" font-family="Times,serif" font-size="14.00" fill="#000000">divide (#1)</text>
</a>
</g>
</g>
<!-- r0&#45;&gt;r1 -->
<g id="edge3" class="edge">
<title>r0:se&#45;&gt;r1:n</title>
<path fill="none" stroke="#000000" d="M425.3933,-248C469.6696,-203.7237 305.8192,-255.7776 287.116,-206.0926"/>
<polygon fill="#000000" stroke="#000000" points="290.526,-205.2685 285.3933,-196 283.6258,-206.4464 290.526,-205.2685"/>
<text text-anchor="middle" x="254.3933" y="-199.8" font-family="Times,serif" font-size="14.00" fill="#000000">dividend</text>
<text text-anchor="middle" x="442.8933" y="-236.8" font-family="Times,serif" font-size="14.00" fill="#000000">/sum</text>
</g>
<!-- initializerr0_0 -->
<!-- initializerr0_0&#45;&gt;r0 -->
<g id="edge1" class="edge">
<title>initializerr0_0&#45;&gt;r0:ne</title>
<path fill="none" stroke="#0000ff" stroke-dasharray="1,5" d="M481.9656,-334.3791C468.2588,-322.3611 449.7116,-305.727 432.9468,-289.4406"/>
<polygon fill="#0000ff" stroke="#0000ff" points="434.9736,-286.5242 425.3933,-282 430.0613,-291.5111 434.9736,-286.5242"/>
<text text-anchor="middle" x="465.3933" y="-304.8" font-family="Times,serif" font-size="14.00" fill="#000000">2</text>
</g>
<!-- initializerr0_1 -->
<!-- initializerr0_1&#45;&gt;r0 -->
<g id="edge2" class="edge">
<title>initializerr0_1&#45;&gt;r0:w</title>
<path fill="none" stroke="#0000ff" stroke-dasharray="1,5" d="M290.6475,-333.9735C304.5538,-312.5719 328.5996,-278.4687 346.7582,-268.094"/>
<polygon fill="#0000ff" stroke="#0000ff" points="347.9423,-271.3899 356.3933,-265 345.802,-264.7251 347.9423,-271.3899"/>
<text text-anchor="middle" x="317.3933" y="-304.8" font-family="Times,serif" font-size="14.00" fill="#000000">1</text>
</g>
<!-- r4 -->
<g id="node6" class="node">
<title>r4</title>
<g id="a_node6"><a xlink:href="file:///home/andrew/workspace/flow/flowruntime/stdio/stdout.toml" xlink:title="print (#4)">
<ellipse fill="#ff7f50" stroke="#000000" cx="298.3933" cy="-18" rx="57.3905" ry="18"/>
<text text-anchor="middle" x="298.3933" y="-14.3" font-family="Times,serif" font-size="14.00" fill="#000000">print (#4)</text>
</a>
</g>
</g>
<!-- r1&#45;&gt;r4 -->
<g id="edge5" class="edge">
<title>r1:se&#45;&gt;r4:n</title>
<path fill="none" stroke="#000000" d="M303.3933,-160C339.9568,-123.4365 303.5692,-94.922 298.8779,-46.0535"/>
<polygon fill="#000000" stroke="#000000" points="302.3708,-45.8198 298.3933,-36 295.379,-46.157 302.3708,-45.8198"/>
<text text-anchor="middle" x="279.8933" y="-148.8" font-family="Times,serif" font-size="14.00" fill="#000000">/result</text>
</g>
<!-- r2 -->
<g id="node7" class="node">
<title>r2</title>
<g id="a_node7"><a xlink:href="file:///home/andrew/workspace/flow/flowstdlib/control/tap/tap.toml" xlink:title="tap (#2)">
<ellipse fill="#ff7f50" stroke="#000000" cx="140.3933" cy="-91" rx="49.2915" ry="18"/>
<text text-anchor="middle" x="140.3933" y="-87.3" font-family="Times,serif" font-size="14.00" fill="#000000">tap (#2)</text>
</a>
</g>
</g>
<!-- r1&#45;&gt;r2 -->
<g id="edge6" class="edge">
<title>r1:se&#45;&gt;r2:n</title>
<path fill="none" stroke="#000000" d="M303.3933,-160C323.0797,-140.3136 269.9844,-150.2476 243.3933,-142 201.2474,-128.9278 149.6841,-152.5543 141.5081,-119.3344"/>
<polygon fill="#000000" stroke="#000000" points="144.9457,-118.5669 140.3933,-109 137.9861,-119.3177 144.9457,-118.5669"/>
<text text-anchor="middle" x="124.3933" y="-112.8" font-family="Times,serif" font-size="14.00" fill="#000000">data</text>
<text text-anchor="middle" x="326.8933" y="-148.8" font-family="Times,serif" font-size="14.00" fill="#000000">/result</text>
</g>
<!-- r3 -->
<g id="node8" class="node">
<title>r3</title>
<g id="a_node8"><a xlink:href="file:///home/andrew/workspace/flow/flowstdlib/math/compare/compare.toml" xlink:title="compare (#3)">
<ellipse fill="#ff7f50" stroke="#000000" cx="481.3933" cy="-91" rx="74.187" ry="18"/>
<text text-anchor="middle" x="481.3933" y="-87.3" font-family="Times,serif" font-size="14.00" fill="#000000">compare (#3)</text>
</a>
</g>
</g>
<!-- r1&#45;&gt;r3 -->
<g id="edge7" class="edge">
<title>r1:se&#45;&gt;r3:n</title>
<path fill="none" stroke="#000000" d="M303.3933,-160C329.8747,-133.5186 455.6041,-147.0797 477.9824,-118.7069"/>
<polygon fill="#000000" stroke="#000000" points="481.3801,-119.5948 481.3933,-109 474.776,-117.2741 481.3801,-119.5948"/>
<text text-anchor="middle" x="468.8933" y="-112.8" font-family="Times,serif" font-size="14.00" fill="#000000">left</text>
<text text-anchor="middle" x="326.8933" y="-163.8" font-family="Times,serif" font-size="14.00" fill="#000000">/result</text>
</g>
<!-- initializerr1_1 -->
<!-- initializerr1_1&#45;&gt;r1 -->
<g id="edge4" class="edge">
<title>initializerr1_1&#45;&gt;r1:nw</title>
<path fill="none" stroke="#0000ff" stroke-dasharray="1,5" d="M222.9075,-247.2644C232.5152,-235.0151 246.1431,-218.329 260.0903,-203.5321"/>
<polygon fill="#0000ff" stroke="#0000ff" points="262.9451,-205.6158 267.3933,-196 257.9194,-200.7431 262.9451,-205.6158"/>
<text text-anchor="middle" x="256.3933" y="-217.8" font-family="Times,serif" font-size="14.00" fill="#000000">2</text>
</g>
<!-- r2&#45;&gt;r4 -->
<g id="edge9" class="edge">
<title>r2:e&#45;&gt;r4:n</title>
<path fill="none" stroke="#000000" d="M190.3933,-91C220.2241,-91 219.6443,-67.2048 246.3933,-54 264.2114,-45.204 287.4032,-54.9638 295.4737,-45.8151"/>
<polygon fill="#000000" stroke="#000000" points="298.8969,-46.5829 298.3933,-36 292.1874,-44.587 298.8969,-46.5829"/>
</g>
<!-- r3&#45;&gt;r4 -->
<g id="edge11" class="edge">
<title>r3:e&#45;&gt;r4:n</title>
<path fill="none" stroke="#000000" d="M555.3933,-91C563.3933,-91 560.6316,-79.0465 555.3933,-73 538.4212,-53.4095 344.498,-62.4421 305.2825,-43.5566"/>
<polygon fill="#000000" stroke="#000000" points="307.717,-41.0319 298.3933,-36 302.544,-45.7479 307.717,-41.0319"/>
<text text-anchor="middle" x="565.3933" y="-94.8" font-family="Times,serif" font-size="14.00" fill="#000000">/gt</text>
</g>
<!-- initializerr2_1 -->
<!-- initializerr2_1&#45;&gt;r2 -->
<g id="edge8" class="edge">
<title>initializerr2_1&#45;&gt;r2:nw</title>
<path fill="none" stroke="#0000ff" stroke-dasharray="1,5" d="M80.1555,-159.6817C83.4929,-149.3257 88.7429,-136.5757 96.3933,-127 102.9764,-118.7603 108.6844,-117.9098 115.2271,-114.2306"/>
<polygon fill="#0000ff" stroke="#0000ff" points="117.5661,-116.8484 123.3933,-108 113.32,-111.2833 117.5661,-116.8484"/>
<text text-anchor="middle" x="113.3933" y="-130.8" font-family="Times,serif" font-size="14.00" fill="#000000">false</text>
</g>
<!-- initializerr3_1 -->
<!-- initializerr3_1&#45;&gt;r3 -->
<g id="edge10" class="edge">
<title>initializerr3_1&#45;&gt;r3:ne</title>
<path fill="none" stroke="#0000ff" stroke-dasharray="1,5" d="M505.6872,-159.7728C509.0144,-147.141 511.3033,-130.3538 505.3177,-117.5254"/>
<polygon fill="#0000ff" stroke="#0000ff" points="507.974,-115.2146 499.3933,-109 502.2257,-119.2092 507.974,-115.2146"/>
<text text-anchor="middle" x="513.3933" y="-130.8" font-family="Times,serif" font-size="14.00" fill="#000000">1</text>
</g>
</g>
</svg>
