<?xml version="1.0" encoding="UTF-8" standalone="no"?>
<!DOCTYPE svg PUBLIC "-//W3C//DTD SVG 1.1//EN"
 "http://www.w3.org/Graphics/SVG/1.1/DTD/svg11.dtd">
<!-- Generated by graphviz version 2.44.1 (20200629.0846)
 -->
<!-- Title: primitives Pages: 1 -->
<svg width="507pt" height="401pt"
 viewBox="0.00 0.00 506.89 401.00" xmlns="http://www.w3.org/2000/svg" xmlns:xlink="http://www.w3.org/1999/xlink">
<g id="graph0" class="graph" transform="scale(1 1) rotate(0) translate(4 397)">
<title>primitives</title>
<polygon fill="white" stroke="transparent" points="-4,4 -4,-397 502.89,-397 502.89,4 -4,4"/>
<text text-anchor="middle" x="249.44" y="-377.8" font-family="Times,serif" font-size="14.00">/primitives</text>
<!-- r4 -->
<g id="node1" class="node">
<title>r4</title>
<g id="a_node1"><a xlink:href="file:///Users/andrew/workspace/flow/flowstdlib/math/add/add.html" xlink:title="add (#4)">
<ellipse fill="coral" stroke="black" cx="347.44" cy="-265" rx="40.09" ry="18"/>
<text text-anchor="middle" x="347.44" y="-261.3" font-family="Times,serif" font-size="14.00">add (#4)</text>
</a>
</g>
</g>
<!-- r2 -->
<g id="node4" class="node">
<title>r2</title>
<g id="a_node4"><a xlink:href="file:///Users/andrew/workspace/flow/flowstdlib/math/divide/divide.html" xlink:title="divide (#2)">
<ellipse fill="coral" stroke="black" cx="242.44" cy="-178" rx="50.09" ry="18"/>
<text text-anchor="middle" x="242.44" y="-174.3" font-family="Times,serif" font-size="14.00">divide (#2)</text>
</a>
</g>
</g>
<!-- r4&#45;&gt;r2 -->
<g id="edge3" class="edge">
<title>r4:se&#45;&gt;r2:n</title>
<path fill="none" stroke="black" d="M364.44,-247C403.32,-208.12 262.68,-248.79 244.38,-206.07"/>
<polygon fill="black" stroke="black" points="247.77,-205.16 242.44,-196 240.9,-206.48 247.77,-205.16"/>
<text text-anchor="middle" x="218.44" y="-199.8" font-family="Times,serif" font-size="14.00">dividend</text>
<text text-anchor="middle" x="350.44" y="-235.8" font-family="Times,serif" font-size="14.00">/sum</text>
</g>
<!-- initializerr4_0 -->
<!-- initializerr4_0&#45;&gt;r4 -->
<g id="edge1" class="edge">
<title>initializerr4_0&#45;&gt;r4:ne</title>
<path fill="none" stroke="blue" stroke-dasharray="1,5" d="M415.27,-334.44C403.64,-322.57 387.36,-306.01 371.93,-290.5"/>
<polygon fill="blue" stroke="blue" points="373.98,-287.61 364.44,-283 369.03,-292.55 373.98,-287.61"/>
<text text-anchor="middle" x="398.94" y="-304.8" font-family="Times,serif" font-size="14.00">2</text>
</g>
<!-- initializerr4_1 -->
<!-- initializerr4_1&#45;&gt;r4 -->
<g id="edge2" class="edge">
<title>initializerr4_1&#45;&gt;r4:w</title>
<path fill="none" stroke="blue" stroke-dasharray="1,5" d="M247.46,-334.01C258.95,-313.25 279.3,-279.55 295.79,-268.58"/>
<polygon fill="blue" stroke="blue" points="297.28,-271.75 305.44,-265 294.85,-265.19 297.28,-271.75"/>
<text text-anchor="middle" x="269.94" y="-304.8" font-family="Times,serif" font-size="14.00">1</text>
</g>
<!-- r1 -->
<g id="node6" class="node">
<title>r1</title>
<g id="a_node6"><a xlink:href="file:///Users/andrew/workspace/flow/flowr/src/lib/flowruntime/stdio/stdout.html" xlink:title="print (#1)">
<ellipse fill="coral" stroke="black" cx="245.44" cy="-18" rx="44.39" ry="18"/>
<text text-anchor="middle" x="245.44" y="-14.3" font-family="Times,serif" font-size="14.00">print (#1)</text>
</a>
</g>
</g>
<!-- r2&#45;&gt;r1 -->
<g id="edge5" class="edge">
<title>r2:se&#45;&gt;r1:n</title>
<path fill="none" stroke="black" d="M259.44,-160C296.21,-123.23 251.74,-95.17 246.03,-46.1"/>
<polygon fill="black" stroke="black" points="249.52,-45.78 245.44,-36 242.53,-46.19 249.52,-45.78"/>
<text text-anchor="middle" x="242.44" y="-148.8" font-family="Times,serif" font-size="14.00">/result</text>
</g>
<!-- r0 -->
<g id="node7" class="node">
<title>r0</title>
<g id="a_node7"><a xlink:href="file:///Users/andrew/workspace/flow/flowstdlib/control/tap/tap.html" xlink:title="tap (#0)">
<ellipse fill="coral" stroke="black" cx="98.44" cy="-91" rx="38.19" ry="18"/>
<text text-anchor="middle" x="98.44" y="-87.3" font-family="Times,serif" font-size="14.00">tap (#0)</text>
</a>
</g>
</g>
<!-- r2&#45;&gt;r0 -->
<g id="edge6" class="edge">
<title>r2:se&#45;&gt;r0:n</title>
<path fill="none" stroke="black" d="M259.44,-160C281.85,-137.59 220.72,-151.36 190.44,-142 172.94,-136.59 119.48,-132.28 103.2,-118.02"/>
<polygon fill="black" stroke="black" points="106.2,-116.21 98.44,-109 100.01,-119.48 106.2,-116.21"/>
<text text-anchor="middle" x="86.94" y="-112.8" font-family="Times,serif" font-size="14.00">data</text>
<text text-anchor="middle" x="276.44" y="-148.8" font-family="Times,serif" font-size="14.00">/result</text>
</g>
<!-- r3 -->
<g id="node8" class="node">
<title>r3</title>
<g id="a_node8"><a xlink:href="file:///Users/andrew/workspace/flow/flowstdlib/math/compare/compare.html" xlink:title="compare (#3)">
<ellipse fill="coral" stroke="black" cx="412.44" cy="-91" rx="58.49" ry="18"/>
<text text-anchor="middle" x="412.44" y="-87.3" font-family="Times,serif" font-size="14.00">compare (#3)</text>
</a>
</g>
</g>
<!-- r2&#45;&gt;r3 -->
<g id="edge7" class="edge">
<title>r2:se&#45;&gt;r3:n</title>
<path fill="none" stroke="black" d="M259.44,-160C307.46,-111.99 401.8,-173.49 411.61,-119.19"/>
<polygon fill="black" stroke="black" points="415.12,-119.25 412.44,-109 408.14,-118.68 415.12,-119.25"/>
<text text-anchor="middle" x="402.94" y="-112.8" font-family="Times,serif" font-size="14.00">left</text>
<text text-anchor="middle" x="242.44" y="-163.8" font-family="Times,serif" font-size="14.00">/result</text>
</g>
<!-- initializerr2_1 -->
<!-- initializerr2_1&#45;&gt;r2 -->
<g id="edge4" class="edge">
<title>initializerr2_1&#45;&gt;r2:nw</title>
<path fill="none" stroke="blue" stroke-dasharray="1,5" d="M185.19,-247.02C193.35,-234.73 205.38,-217.8 218.5,-203.31"/>
<polygon fill="blue" stroke="blue" points="221.1,-205.66 225.44,-196 216.02,-200.84 221.1,-205.66"/>
<text text-anchor="middle" x="211.94" y="-217.8" font-family="Times,serif" font-size="14.00">2</text>
</g>
<!-- r0&#45;&gt;r1 -->
<g id="edge9" class="edge">
<title>r0:e&#45;&gt;r1:n</title>
<path fill="none" stroke="black" d="M138.44,-91C167.91,-91 167.08,-67.15 193.44,-54 211.23,-45.13 234.44,-54.94 242.52,-45.81"/>
<polygon fill="black" stroke="black" points="245.94,-46.58 245.44,-36 239.23,-44.58 245.94,-46.58"/>
</g>
<!-- r3&#45;&gt;r1 -->
<g id="edge11" class="edge">
<title>r3:e&#45;&gt;r1:n</title>
<path fill="none" stroke="black" d="M472.44,-91C480.46,-91 476.8,-78.96 471.44,-73 456.3,-56.14 288.87,-60.15 252.42,-43.25"/>
<polygon fill="black" stroke="black" points="254.9,-40.78 245.44,-36 249.86,-45.63 254.9,-40.78"/>
<text text-anchor="middle" x="479.94" y="-94.8" font-family="Times,serif" font-size="14.00">/gt</text>
</g>
<!-- initializerr0_1 -->
<!-- initializerr0_1&#45;&gt;r0 -->
<g id="edge8" class="edge">
<title>initializerr0_1&#45;&gt;r0:nw</title>
<path fill="none" stroke="blue" stroke-dasharray="1,5" d="M60.1,-159.7C60.49,-149.76 61.99,-137.26 66.44,-127 69.06,-120.99 71.45,-118.17 74.61,-115.24"/>
<polygon fill="blue" stroke="blue" points="77.47,-117.36 82.44,-108 72.72,-112.21 77.47,-117.36"/>
<text text-anchor="middle" x="79.44" y="-130.8" font-family="Times,serif" font-size="14.00">false</text>
</g>
<!-- initializerr3_1 -->
<!-- initializerr3_1&#45;&gt;r3 -->
<g id="edge10" class="edge">
<title>initializerr3_1&#45;&gt;r3:ne</title>
<path fill="none" stroke="blue" stroke-dasharray="1,5" d="M441.41,-159.99C442.74,-147.42 442.68,-130.29 435.57,-117.26"/>
<polygon fill="blue" stroke="blue" points="438.21,-114.95 429.44,-109 432.59,-119.12 438.21,-114.95"/>
<text text-anchor="middle" x="444.94" y="-130.8" font-family="Times,serif" font-size="14.00">1</text>
</g>
</g>
</svg>
