<?xml version="1.0" encoding="UTF-8" standalone="no"?>
<!DOCTYPE svg PUBLIC "-//W3C//DTD SVG 1.1//EN"
 "http://www.w3.org/Graphics/SVG/1.1/DTD/svg11.dtd">
<!-- Generated by graphviz version 2.42.4 (0)
 -->
<!-- Title: primitives Pages: 1 -->
<svg width="586pt" height="401pt"
 viewBox="0.00 0.00 585.79 401.00" xmlns="http://www.w3.org/2000/svg" xmlns:xlink="http://www.w3.org/1999/xlink">
<g id="graph0" class="graph" transform="scale(1 1) rotate(0) translate(4 397)">
<title>primitives</title>
<polygon fill="white" stroke="transparent" points="-4,4 -4,-397 581.79,-397 581.79,4 -4,4"/>
<text text-anchor="middle" x="288.89" y="-377.8" font-family="Times,serif" font-size="14.00">/primitives</text>
<!-- r0 -->
<g id="node1" class="node">
<title>r0</title>
<g id="a_node1"><a xlink:href="file:///home/andrew/workspace/flow/flowstdlib/math/add/add.html" xlink:title="add (#0)">
<ellipse fill="coral" stroke="black" cx="408.39" cy="-265" rx="51.19" ry="18"/>
<text text-anchor="middle" x="408.39" y="-261.3" font-family="Times,serif" font-size="14.00">add (#0)</text>
</a>
</g>
</g>
<!-- r1 -->
<g id="node4" class="node">
<title>r1</title>
<g id="a_node4"><a xlink:href="file:///home/andrew/workspace/flow/flowstdlib/math/divide/divide.html" xlink:title="divide (#1)">
<ellipse fill="coral" stroke="black" cx="285.39" cy="-178" rx="62.29" ry="18"/>
<text text-anchor="middle" x="285.39" y="-174.3" font-family="Times,serif" font-size="14.00">divide (#1)</text>
</a>
</g>
</g>
<!-- r0&#45;&gt;r1 -->
<g id="edge3" class="edge">
<title>r0:se&#45;&gt;r1:n</title>
<path fill="none" stroke="black" d="M425.39,-247C469.57,-202.83 305.81,-255.54 287.12,-206.06"/>
<polygon fill="black" stroke="black" points="290.53,-205.27 285.39,-196 283.63,-206.45 290.53,-205.27"/>
<text text-anchor="middle" x="254.39" y="-199.8" font-family="Times,serif" font-size="14.00">dividend</text>
<text text-anchor="middle" x="407.89" y="-235.8" font-family="Times,serif" font-size="14.00">/sum</text>
</g>
<!-- initializerr0_0 -->
<!-- initializerr0_0&#45;&gt;r0 -->
<g id="edge1" class="edge">
<title>initializerr0_0&#45;&gt;r0:ne</title>
<path fill="none" stroke="blue" stroke-dasharray="1,5" d="M482.48,-334.6C468.68,-322.99 449.83,-306.65 432.97,-290.43"/>
<polygon fill="blue" stroke="blue" points="434.98,-287.5 425.39,-283 430.08,-292.5 434.98,-287.5"/>
<text text-anchor="middle" x="464.39" y="-304.8" font-family="Times,serif" font-size="14.00">2</text>
</g>
<!-- initializerr0_1 -->
<!-- initializerr0_1&#45;&gt;r0 -->
<g id="edge2" class="edge">
<title>initializerr0_1&#45;&gt;r0:w</title>
<path fill="none" stroke="blue" stroke-dasharray="1,5" d="M289.96,-334.01C303.57,-312.96 327.61,-278.59 345.76,-268.12"/>
<polygon fill="blue" stroke="blue" points="346.96,-271.41 355.39,-265 344.8,-264.76 346.96,-271.41"/>
<text text-anchor="middle" x="317.39" y="-304.8" font-family="Times,serif" font-size="14.00">1</text>
</g>
<!-- r4 -->
<g id="node6" class="node">
<title>r4</title>
<g id="a_node6"><a xlink:href="file:///home/andrew/workspace/flow/flowruntime/stdio/stdout.html" xlink:title="print (#4)">
<ellipse fill="coral" stroke="black" cx="298.39" cy="-18" rx="57.39" ry="18"/>
<text text-anchor="middle" x="298.39" y="-14.3" font-family="Times,serif" font-size="14.00">print (#4)</text>
</a>
</g>
</g>
<!-- r1&#45;&gt;r4 -->
<g id="edge5" class="edge">
<title>r1:se&#45;&gt;r4:n</title>
<path fill="none" stroke="black" d="M303.39,-160C339.96,-123.44 303.57,-94.92 298.88,-46.05"/>
<polygon fill="black" stroke="black" points="302.37,-45.82 298.39,-36 295.38,-46.16 302.37,-45.82"/>
<text text-anchor="middle" x="279.89" y="-148.8" font-family="Times,serif" font-size="14.00">/result</text>
</g>
<!-- r2 -->
<g id="node7" class="node">
<title>r2</title>
<g id="a_node7"><a xlink:href="file:///home/andrew/workspace/flow/flowstdlib/control/tap/tap.html" xlink:title="tap (#2)">
<ellipse fill="coral" stroke="black" cx="140.39" cy="-91" rx="49.29" ry="18"/>
<text text-anchor="middle" x="140.39" y="-87.3" font-family="Times,serif" font-size="14.00">tap (#2)</text>
</a>
</g>
</g>
<!-- r1&#45;&gt;r2 -->
<g id="edge6" class="edge">
<title>r1:se&#45;&gt;r2:n</title>
<path fill="none" stroke="black" d="M303.39,-160C323.08,-140.31 269.98,-150.25 243.39,-142 201.25,-128.93 149.68,-152.55 141.51,-119.33"/>
<polygon fill="black" stroke="black" points="144.95,-118.57 140.39,-109 137.99,-119.32 144.95,-118.57"/>
<text text-anchor="middle" x="124.39" y="-112.8" font-family="Times,serif" font-size="14.00">data</text>
<text text-anchor="middle" x="326.89" y="-148.8" font-family="Times,serif" font-size="14.00">/result</text>
</g>
<!-- r3 -->
<g id="node8" class="node">
<title>r3</title>
<g id="a_node8"><a xlink:href="file:///home/andrew/workspace/flow/flowstdlib/math/compare/compare.html" xlink:title="compare (#3)">
<ellipse fill="coral" stroke="black" cx="481.39" cy="-91" rx="74.19" ry="18"/>
<text text-anchor="middle" x="481.39" y="-87.3" font-family="Times,serif" font-size="14.00">compare (#3)</text>
</a>
</g>
</g>
<!-- r1&#45;&gt;r3 -->
<g id="edge7" class="edge">
<title>r1:se&#45;&gt;r3:n</title>
<path fill="none" stroke="black" d="M303.39,-160C329.87,-133.52 455.6,-147.08 477.98,-118.71"/>
<polygon fill="black" stroke="black" points="481.38,-119.59 481.39,-109 474.78,-117.27 481.38,-119.59"/>
<text text-anchor="middle" x="468.89" y="-112.8" font-family="Times,serif" font-size="14.00">left</text>
<text text-anchor="middle" x="326.89" y="-163.8" font-family="Times,serif" font-size="14.00">/result</text>
</g>
<!-- initializerr1_1 -->
<!-- initializerr1_1&#45;&gt;r1 -->
<g id="edge4" class="edge">
<title>initializerr1_1&#45;&gt;r1:nw</title>
<path fill="none" stroke="blue" stroke-dasharray="1,5" d="M222.53,-247.14C232.17,-235.08 245.99,-218.41 260.04,-203.56"/>
<polygon fill="blue" stroke="blue" points="262.93,-205.61 267.39,-196 257.91,-200.73 262.93,-205.61"/>
<text text-anchor="middle" x="254.39" y="-217.8" font-family="Times,serif" font-size="14.00">2</text>
</g>
<!-- r2&#45;&gt;r4 -->
<g id="edge9" class="edge">
<title>r2:e&#45;&gt;r4:n</title>
<path fill="none" stroke="black" d="M191.39,-91C220.85,-91 220.03,-67.15 246.39,-54 264.17,-45.13 287.39,-54.94 295.47,-45.81"/>
<polygon fill="black" stroke="black" points="298.89,-46.58 298.39,-36 292.18,-44.58 298.89,-46.58"/>
</g>
<!-- r3&#45;&gt;r4 -->
<g id="edge11" class="edge">
<title>r3:e&#45;&gt;r4:n</title>
<path fill="none" stroke="black" d="M556.39,-91C564.41,-91 560.81,-78.91 555.39,-73 537.88,-53.89 344.39,-62.54 305.27,-43.57"/>
<polygon fill="black" stroke="black" points="307.71,-41.05 298.39,-36 302.52,-45.76 307.71,-41.05"/>
<text text-anchor="middle" x="566.39" y="-94.8" font-family="Times,serif" font-size="14.00">/gt</text>
</g>
<!-- initializerr2_1 -->
<!-- initializerr2_1&#45;&gt;r2 -->
<g id="edge8" class="edge">
<title>initializerr2_1&#45;&gt;r2:nw</title>
<path fill="none" stroke="blue" stroke-dasharray="1,5" d="M79.83,-159.92C83.14,-149.58 88.48,-136.58 96.39,-127 102.99,-119.01 108.79,-118.47 115.31,-115.02"/>
<polygon fill="blue" stroke="blue" points="117.46,-117.78 123.39,-109 113.28,-112.16 117.46,-117.78"/>
<text text-anchor="middle" x="113.39" y="-130.8" font-family="Times,serif" font-size="14.00">false</text>
</g>
<!-- initializerr3_1 -->
<!-- initializerr3_1&#45;&gt;r3 -->
<g id="edge10" class="edge">
<title>initializerr3_1&#45;&gt;r3:ne</title>
<path fill="none" stroke="blue" stroke-dasharray="1,5" d="M505.35,-159.94C508.78,-147.33 511.3,-130.18 505.14,-117.21"/>
<polygon fill="blue" stroke="blue" points="508,-115.18 499.39,-109 502.26,-119.2 508,-115.18"/>
<text text-anchor="middle" x="513.39" y="-130.8" font-family="Times,serif" font-size="14.00">1</text>
</g>
</g>
</svg>
