<?xml version="1.0" encoding="UTF-8" standalone="no"?>
<!DOCTYPE svg PUBLIC "-//W3C//DTD SVG 1.1//EN"
 "http://www.w3.org/Graphics/SVG/1.1/DTD/svg11.dtd">
<!-- Generated by graphviz version 2.42.3 (20191010.1750)
 -->
<!-- Title: primitives Pages: 1 -->
<svg width="504pt" height="397pt"
 viewBox="0.00 0.00 504.40 397.00" xmlns="http://www.w3.org/2000/svg" xmlns:xlink="http://www.w3.org/1999/xlink">
<g id="graph0" class="graph" transform="scale(1 1) rotate(0) translate(4 393)">
<title>primitives</title>
<polygon fill="white" stroke="transparent" points="-4,4 -4,-393 500.4,-393 500.4,4 -4,4"/>
<text text-anchor="middle" x="248.2" y="-373.8" font-family="Times,serif" font-size="14.00">/primitives</text>
<!-- r0 -->
<g id="node1" class="node">
<title>r0</title>
<g id="a_node1"><a xlink:href="file:///Users/andrew/workspace/flow/flowstdlib/math/add/add.toml" xlink:title="add (#0)">
<ellipse fill="coral" stroke="black" cx="345.2" cy="-263" rx="39.64" ry="18"/>
<text text-anchor="middle" x="345.2" y="-258.8" font-family="Times,serif" font-size="14.00">add (#0)</text>
</a>
</g>
</g>
<!-- r1 -->
<g id="node4" class="node">
<title>r1</title>
<g id="a_node4"><a xlink:href="file:///Users/andrew/workspace/flow/flowstdlib/math/divide/divide.toml" xlink:title="divide (#1)">
<ellipse fill="coral" stroke="black" cx="241.2" cy="-177" rx="49.31" ry="18"/>
<text text-anchor="middle" x="241.2" y="-172.8" font-family="Times,serif" font-size="14.00">divide (#1)</text>
</a>
</g>
</g>
<!-- r0&#45;&gt;r1 -->
<g id="edge3" class="edge">
<title>r0:se&#45;&gt;r1:n</title>
<path fill="none" stroke="black" d="M361.2,-246C399.54,-207.66 261.11,-247.14 243.11,-204.94"/>
<polygon fill="black" stroke="black" points="246.52,-204.16 241.2,-195 239.65,-205.48 246.52,-204.16"/>
<text text-anchor="middle" x="216.7" y="-197.8" font-family="Times,serif" font-size="14.00">dividend</text>
<text text-anchor="middle" x="374.81" y="-234.8" font-family="Times,serif" font-size="14.00">/sum</text>
</g>
<!-- initializerr0_0 -->
<!-- initializerr0_0&#45;&gt;r0 -->
<g id="edge1" class="edge">
<title>initializerr0_0&#45;&gt;r0:ne</title>
<path fill="none" stroke="blue" stroke-dasharray="1,5" d="M412.71,-331.51C400.77,-319.57 384.03,-302.83 368.32,-287.12"/>
<polygon fill="blue" stroke="blue" points="370.75,-284.6 361.2,-280 365.8,-289.55 370.75,-284.6"/>
<text text-anchor="middle" x="395.7" y="-301.8" font-family="Times,serif" font-size="14.00">2</text>
</g>
<!-- initializerr0_1 -->
<!-- initializerr0_1&#45;&gt;r0 -->
<g id="edge2" class="edge">
<title>initializerr0_1&#45;&gt;r0:w</title>
<path fill="none" stroke="blue" stroke-dasharray="1,5" d="M246.47,-330.8C258.05,-310.23 278.32,-277.23 294.65,-266.5"/>
<polygon fill="blue" stroke="blue" points="296.01,-269.73 304.2,-263 293.61,-263.15 296.01,-269.73"/>
<text text-anchor="middle" x="268.7" y="-301.8" font-family="Times,serif" font-size="14.00">1</text>
</g>
<!-- r4 -->
<g id="node6" class="node">
<title>r4</title>
<g id="a_node6"><a xlink:href="file:///Users/andrew/workspace/flow/flowruntime/stdio/stdout.toml" xlink:title="print (#4)">
<ellipse fill="coral" stroke="black" cx="243.2" cy="-18" rx="43.51" ry="18"/>
<text text-anchor="middle" x="243.2" y="-13.8" font-family="Times,serif" font-size="14.00">print (#4)</text>
</a>
</g>
</g>
<!-- r1&#45;&gt;r4 -->
<g id="edge5" class="edge">
<title>r1:se&#45;&gt;r4:n</title>
<path fill="none" stroke="black" d="M258.2,-159C294.71,-122.49 249.58,-94.73 243.8,-46.03"/>
<polygon fill="black" stroke="black" points="247.29,-45.77 243.2,-36 240.3,-46.19 247.29,-45.77"/>
<text text-anchor="middle" x="240.7" y="-147.8" font-family="Times,serif" font-size="14.00">/result</text>
</g>
<!-- r2 -->
<g id="node7" class="node">
<title>r2</title>
<g id="a_node7"><a xlink:href="file:///Users/andrew/workspace/flow/flowstdlib/control/tap/tap.toml" xlink:title="tap (#2)">
<ellipse fill="coral" stroke="black" cx="96.2" cy="-91" rx="37.71" ry="18"/>
<text text-anchor="middle" x="96.2" y="-86.8" font-family="Times,serif" font-size="14.00">tap (#2)</text>
</a>
</g>
</g>
<!-- r1&#45;&gt;r2 -->
<g id="edge6" class="edge">
<title>r1:se&#45;&gt;r2:n</title>
<path fill="none" stroke="black" d="M258.2,-159C280.92,-136.29 218.95,-150.28 188.2,-141 170.72,-135.72 117.24,-131.98 100.96,-117.94"/>
<polygon fill="black" stroke="black" points="103.99,-116.18 96.2,-109 97.81,-119.47 103.99,-116.18"/>
<text text-anchor="middle" x="84.54" y="-111.8" font-family="Times,serif" font-size="14.00">data</text>
<text text-anchor="middle" x="275.7" y="-147.8" font-family="Times,serif" font-size="14.00">/result</text>
</g>
<!-- r3 -->
<g id="node8" class="node">
<title>r3</title>
<g id="a_node8"><a xlink:href="file:///Users/andrew/workspace/flow/flowstdlib/math/compare/compare.toml" xlink:title="compare (#3)">
<ellipse fill="coral" stroke="black" cx="409.2" cy="-91" rx="57.49" ry="18"/>
<text text-anchor="middle" x="409.2" y="-86.8" font-family="Times,serif" font-size="14.00">compare (#3)</text>
</a>
</g>
</g>
<!-- r1&#45;&gt;r3 -->
<g id="edge7" class="edge">
<title>r1:se&#45;&gt;r3:n</title>
<path fill="none" stroke="black" d="M258.2,-159C305.55,-111.65 398.69,-172.58 408.38,-119.04"/>
<polygon fill="black" stroke="black" points="411.88,-119.25 409.2,-109 404.9,-118.68 411.88,-119.25"/>
<text text-anchor="middle" x="399.87" y="-111.8" font-family="Times,serif" font-size="14.00">left</text>
<text text-anchor="middle" x="275.7" y="-161.8" font-family="Times,serif" font-size="14.00">/result</text>
</g>
<!-- initializerr1_1 -->
<!-- initializerr1_1&#45;&gt;r1 -->
<g id="edge4" class="edge">
<title>initializerr1_1&#45;&gt;r1:nw</title>
<path fill="none" stroke="blue" stroke-dasharray="1,5" d="M184.22,-245.03C192.35,-233.06 204.18,-216.71 217,-202.58"/>
<polygon fill="blue" stroke="blue" points="219.85,-204.66 224.2,-195 214.78,-199.84 219.85,-204.66"/>
<text text-anchor="middle" x="211.7" y="-215.8" font-family="Times,serif" font-size="14.00">2</text>
</g>
<!-- r2&#45;&gt;r4 -->
<g id="edge9" class="edge">
<title>r2:e&#45;&gt;r4:n</title>
<path fill="none" stroke="black" d="M135.2,-91C164.66,-91 163.8,-67.07 190.2,-54 208.49,-44.94 232.44,-55.37 240.45,-45.68"/>
<polygon fill="black" stroke="black" points="243.84,-46.58 243.2,-36 237.1,-44.66 243.84,-46.58"/>
</g>
<!-- r3&#45;&gt;r4 -->
<g id="edge11" class="edge">
<title>r3:e&#45;&gt;r4:n</title>
<path fill="none" stroke="black" d="M468.2,-91C476.21,-91 472.55,-78.96 467.2,-73 452.26,-56.35 287.69,-59.97 250.6,-43.42"/>
<polygon fill="black" stroke="black" points="252.74,-40.61 243.2,-36 247.78,-45.55 252.74,-40.61"/>
<text text-anchor="middle" x="475.59" y="-93.8" font-family="Times,serif" font-size="14.00">/gt</text>
</g>
<!-- initializerr2_1 -->
<!-- initializerr2_1&#45;&gt;r2 -->
<g id="edge8" class="edge">
<title>initializerr2_1&#45;&gt;r2:nw</title>
<path fill="none" stroke="blue" stroke-dasharray="1,5" d="M59.39,-158.64C59.53,-148.99 60.71,-136.97 64.77,-127 67.21,-121.02 69.48,-118.15 72.53,-115.2"/>
<polygon fill="blue" stroke="blue" points="75.31,-117.4 80.2,-108 70.52,-112.3 75.31,-117.4"/>
<text text-anchor="middle" x="78.41" y="-129.8" font-family="Times,serif" font-size="14.00">false</text>
</g>
<!-- initializerr3_1 -->
<!-- initializerr3_1&#45;&gt;r3 -->
<g id="edge10" class="edge">
<title>initializerr3_1&#45;&gt;r3:ne</title>
<path fill="none" stroke="blue" stroke-dasharray="1,5" d="M438.78,-158.96C439.8,-146.59 439.37,-129.85 432.26,-117.09"/>
<polygon fill="blue" stroke="blue" points="434.99,-114.91 426.2,-109 429.39,-119.1 434.99,-114.91"/>
<text text-anchor="middle" x="441.7" y="-129.8" font-family="Times,serif" font-size="14.00">1</text>
</g>
</g>
</svg>
