<?xml version="1.0" encoding="UTF-8" standalone="no"?>
<!DOCTYPE svg PUBLIC "-//W3C//DTD SVG 1.1//EN"
 "http://www.w3.org/Graphics/SVG/1.1/DTD/svg11.dtd">
<!-- Generated by graphviz version 2.42.3 (20191010.1750)
 -->
<!-- Title: primitives Pages: 1 -->
<svg width="713pt" height="514pt"
 viewBox="28.80 28.80 684.59 485.45" xmlns="http://www.w3.org/2000/svg" xmlns:xlink="http://www.w3.org/1999/xlink">
<g id="graph0" class="graph" transform="scale(1 1) rotate(0) translate(32.8 481.45)">
<title>primitives</title>
<polygon fill="white" stroke="transparent" points="-4,4 -4,-452.65 651.79,-452.65 651.79,4 -4,4"/>
<text text-anchor="middle" x="323.9" y="-433.45" font-family="Times,serif" font-size="14.00">primitives</text>
<!-- /primitives/add -->
<g id="node1" class="node">
<title>/primitives/add</title>
<ellipse fill="coral" stroke="black" cx="229.38" cy="-315.19" rx="34.91" ry="25.41"/>
<text text-anchor="middle" x="229.38" y="-317.99" font-family="Times,serif" font-size="14.00">add</text>
<text text-anchor="middle" x="229.38" y="-303.99" font-family="Times,serif" font-size="14.00">(Add)</text>
</g>
<!-- /primitives/divide -->
<g id="node4" class="node">
<title>/primitives/divide</title>
<ellipse fill="coral" stroke="black" cx="376.38" cy="-214.28" rx="44.7" ry="25.41"/>
<text text-anchor="middle" x="376.38" y="-217.08" font-family="Times,serif" font-size="14.00">divide</text>
<text text-anchor="middle" x="376.38" y="-203.08" font-family="Times,serif" font-size="14.00">(Divide)</text>
</g>
<!-- /primitives/add&#45;&gt;/primitives/divide -->
<g id="edge6" class="edge">
<title>/primitives/add:sw&#45;&gt;/primitives/divide:w</title>
<path fill="none" stroke="black" d="M208.38,-293.19C168.81,-253.62 285.55,-281.86 322.38,-239.74 326.53,-234.99 325.18,-228.1 324.78,-222.69"/>
<polygon fill="black" stroke="black" points="327.75,-224.54 330.38,-214.28 321.92,-220.66 327.75,-224.54"/>
<text text-anchor="middle" x="259.23" y="-265.77" font-family="Times,serif" font-size="14.00">sum</text>
<text text-anchor="middle" x="318.13" y="-203.08" font-family="Times,serif" font-size="14.00">dividend</text>
</g>
<!-- initializer/primitives/add_0 -->
<!-- initializer/primitives/add_0&#45;&gt;/primitives/add -->
<g id="edge1" class="edge">
<title>initializer/primitives/add_0&#45;&gt;/primitives/add:ne</title>
<path fill="none" stroke="blue" stroke-dasharray="1,5" d="M314.11,-390.91C298.05,-378.94 276.31,-361.88 257.64,-344.24"/>
<polygon fill="blue" stroke="blue" points="259.99,-341.65 250.38,-337.19 255.12,-346.67 259.99,-341.65"/>
<text text-anchor="middle" x="291.88" y="-361.45" font-family="Times,serif" font-size="14.00">2</text>
</g>
<!-- initializer/primitives/add_1 -->
<!-- initializer/primitives/add_1&#45;&gt;/primitives/add -->
<g id="edge2" class="edge">
<title>initializer/primitives/add_1&#45;&gt;/primitives/add:w</title>
<path fill="none" stroke="blue" stroke-dasharray="1,5" d="M113.33,-390.26C124.3,-365.78 148.03,-323.33 183.17,-316.22"/>
<polygon fill="blue" stroke="blue" points="183.78,-319.67 193.38,-315.19 183.08,-312.71 183.78,-319.67"/>
<text text-anchor="middle" x="132.88" y="-361.45" font-family="Times,serif" font-size="14.00">1</text>
</g>
<!-- /primitives/tap -->
<g id="node6" class="node">
<title>/primitives/tap</title>
<ellipse fill="coral" stroke="black" cx="459.38" cy="-113.37" rx="32.71" ry="25.41"/>
<text text-anchor="middle" x="459.38" y="-116.17" font-family="Times,serif" font-size="14.00">tap</text>
<text text-anchor="middle" x="459.38" y="-102.17" font-family="Times,serif" font-size="14.00">(Tap)</text>
</g>
<!-- /primitives/divide&#45;&gt;/primitives/tap -->
<g id="edge8" class="edge">
<title>/primitives/divide:se&#45;&gt;/primitives/tap:nw</title>
<path fill="none" stroke="black" d="M398.38,-191.28C417.84,-171.82 417.71,-159.54 432.58,-141.77"/>
<polygon fill="black" stroke="black" points="435.19,-144.1 439.38,-134.37 430.04,-139.37 435.19,-144.1"/>
<text text-anchor="middle" x="403.43" y="-165.44" font-family="Times,serif" font-size="14.00">result</text>
<text text-anchor="middle" x="427.72" y="-137.17" font-family="Times,serif" font-size="14.00">data</text>
</g>
<!-- /primitives/compare -->
<g id="node8" class="node">
<title>/primitives/compare</title>
<ellipse fill="coral" stroke="black" cx="316.38" cy="-113.37" rx="54.39" ry="25.41"/>
<text text-anchor="middle" x="316.38" y="-116.17" font-family="Times,serif" font-size="14.00">compare</text>
<text text-anchor="middle" x="316.38" y="-102.17" font-family="Times,serif" font-size="14.00">(Compare)</text>
</g>
<!-- /primitives/divide&#45;&gt;/primitives/compare -->
<g id="edge9" class="edge">
<title>/primitives/divide:se&#45;&gt;/primitives/compare:ne</title>
<path fill="none" stroke="black" d="M398.38,-191.28C403.53,-186.13 364.75,-157.38 347.19,-143.74"/>
<polygon fill="black" stroke="black" points="349.34,-140.98 339.38,-137.37 344.91,-146.4 349.34,-140.98"/>
<text text-anchor="middle" x="386.3" y="-150.84" font-family="Times,serif" font-size="14.00">result</text>
<text text-anchor="middle" x="348.71" y="-140.17" font-family="Times,serif" font-size="14.00">left</text>
</g>
<!-- /primitives/print -->
<g id="node10" class="node">
<title>/primitives/print</title>
<ellipse fill="coral" stroke="black" cx="442.38" cy="-25.46" rx="43.53" ry="25.41"/>
<text text-anchor="middle" x="442.38" y="-28.26" font-family="Times,serif" font-size="14.00">print</text>
<text text-anchor="middle" x="442.38" y="-14.26" font-family="Times,serif" font-size="14.00">(Stdout)</text>
</g>
<!-- /primitives/divide&#45;&gt;/primitives/print -->
<g id="edge7" class="edge">
<title>/primitives/divide:se&#45;&gt;/primitives/print:w</title>
<path fill="none" stroke="black" d="M398.38,-191.28C447.74,-141.91 336.56,-37.28 387.34,-26.38"/>
<polygon fill="black" stroke="black" points="387.74,-29.86 397.38,-25.46 387.1,-22.89 387.74,-29.86"/>
<text text-anchor="middle" x="407.87" y="-97.19" font-family="Times,serif" font-size="14.00">result</text>
</g>
<!-- initializer/primitives/divide_1 -->
<!-- initializer/primitives/divide_1&#45;&gt;/primitives/divide -->
<g id="edge3" class="edge">
<title>initializer/primitives/divide_1&#45;&gt;/primitives/divide:nw</title>
<path fill="none" stroke="blue" stroke-dasharray="1,5" d="M377.11,-297.2C361.42,-283 343.63,-262.5 348.91,-245.98"/>
<polygon fill="blue" stroke="blue" points="352.02,-247.61 354.38,-237.28 346.1,-243.88 352.02,-247.61"/>
<text text-anchor="middle" x="356.88" y="-260.54" font-family="Times,serif" font-size="14.00">2</text>
</g>
<!-- /primitives/tap&#45;&gt;/primitives/print -->
<g id="edge11" class="edge">
<title>/primitives/tap:e&#45;&gt;/primitives/print:w</title>
<path fill="none" stroke="black" d="M493.38,-113.37C504.7,-113.37 498.93,-97.14 492.38,-87.91 466.38,-51.31 424.38,-87.52 398.38,-50.91 394.79,-45.86 391.44,-38.72 391,-33.29"/>
<polygon fill="black" stroke="black" points="393.78,-35.42 397.38,-25.46 388.35,-31 393.78,-35.42"/>
</g>
<!-- initializer/primitives/tap_1 -->
<!-- initializer/primitives/tap_1&#45;&gt;/primitives/tap -->
<g id="edge4" class="edge">
<title>initializer/primitives/tap_1&#45;&gt;/primitives/tap:nw</title>
<path fill="none" stroke="blue" stroke-dasharray="1,5" d="M496.72,-198.01C462.65,-184.82 423.95,-164.47 433.56,-142.52"/>
<polygon fill="blue" stroke="blue" points="436.41,-144.54 439.38,-134.37 430.72,-140.47 436.41,-144.54"/>
<text text-anchor="middle" x="456.59" y="-159.62" font-family="Times,serif" font-size="14.00">false</text>
</g>
<!-- /primitives/compare&#45;&gt;/primitives/print -->
<g id="edge10" class="edge">
<title>/primitives/compare:sw&#45;&gt;/primitives/print:w</title>
<path fill="none" stroke="black" d="M293.38,-89.37C257.34,-53.33 332.92,-28.6 387.19,-25.73"/>
<polygon fill="black" stroke="black" points="387.48,-29.23 397.38,-25.46 387.29,-22.23 387.48,-29.23"/>
<text text-anchor="middle" x="333.53" y="-35.99" font-family="Times,serif" font-size="14.00">gt</text>
</g>
<!-- initializer/primitives/compare_1 -->
<!-- initializer/primitives/compare_1&#45;&gt;/primitives/compare -->
<g id="edge5" class="edge">
<title>initializer/primitives/compare_1&#45;&gt;/primitives/compare:ne</title>
<path fill="none" stroke="blue" stroke-dasharray="1,5" d="M265.35,-199.97C311.89,-189.03 360,-171.11 345.55,-145.26"/>
<polygon fill="blue" stroke="blue" points="348.3,-143.09 339.38,-137.37 342.78,-147.4 348.3,-143.09"/>
<text text-anchor="middle" x="350.88" y="-159.62" font-family="Times,serif" font-size="14.00">1</text>
</g>
</g>
</svg>
