<svg height="270" viewBox="-80 -50 610 270" width="610" xmlns="http://www.w3.org/2000/svg" xmlns:xlink="http://www.w3.org/1999/xlink">
<style>
.node-subflow rect { cursor: pointer; }
.node-subflow:hover rect { stroke-width: 3; }
.node:hover rect { stroke-width: 3; }
.port-label { pointer-events: none; }
.edge path { transition: stroke-width 0.15s; }
.edge:hover path { stroke-width: 3; }
text { user-select: none; }
</style>
<g class="flow-graph">
<g class="node">
<rect fill="#4D80E6" height="120" rx="10" ry="10" stroke="#444444" stroke-width="2" width="180" x="50" y="50"/>
<text dominant-baseline="central" fill="#FFFFFF" font-family="sans-serif" font-size="16" text-anchor="middle" x="140" y="68">
add
</text>
<text dominant-baseline="central" fill="#FFFFFF" font-family="sans-serif" font-size="12" text-anchor="middle" x="140" y="86">
...flowstdlib/math/add
</text>
<title>add (lib://flowstdlib/math/add)</title>
<g>
<path d="M 50 120 A 5 5 0 0 0 50 130 Z" fill="#FFFFFF" stroke="#444444" stroke-width="1"/>
<title>i1: number</title>
</g>
<text dominant-baseline="central" fill="#FFFFFF" font-family="sans-serif" font-size="11" text-anchor="start" x="58" y="125">
i1
</text>
<g>
<path d="M 50 140 A 5 5 0 0 0 50 150 Z" fill="#FFFFFF" stroke="#444444" stroke-width="1"/>
<title>i2: number</title>
</g>
<text dominant-baseline="central" fill="#FFFFFF" font-family="sans-serif" font-size="11" text-anchor="start" x="58" y="145">
i2
</text>
<g>
<path d="M 230 130 A 5 5 0 0 1 230 140 Z" fill="#FFFFFF" stroke="#444444" stroke-width="1"/>
<title>: number</title>
</g>
<text dominant-baseline="central" fill="#FFFFFF" font-family="sans-serif" font-size="11" text-anchor="end" x="222" y="135">

</text>
</g>
<g class="node">
<rect fill="#4DBF73" height="120" rx="10" ry="10" stroke="#444444" stroke-width="2" width="180" x="300" y="50"/>
<text dominant-baseline="central" fill="#FFFFFF" font-family="sans-serif" font-size="16" text-anchor="middle" x="390" y="68">
stdout
</text>
<text dominant-baseline="central" fill="#FFFFFF" font-family="sans-serif" font-size="12" text-anchor="middle" x="390" y="86">
context://stdio/stdout
</text>
<title>stdout (context://stdio/stdout)</title>
<g>
<path d="M 300 130 A 5 5 0 0 0 300 140 Z" fill="#FFFFFF" stroke="#444444" stroke-width="1"/>
<title>: generic</title>
</g>
<text dominant-baseline="central" fill="#FFFFFF" font-family="sans-serif" font-size="11" text-anchor="start" x="308" y="135">

</text>
</g>
<g class="edge">
<g>
<path d="M 235 135 L 250 135 Q 260 135 260 145 L 260 185 Q 260 195 250 195 L 30 195 Q 20 195 20 185 L 20 155 Q 20 145 30 145 L 45 145" fill="none" stroke="#808080" stroke-width="2"/>
<path d="M 45 145 L 39.473633 147.33652 L 39.473633 142.66348 Z" fill="#808080" stroke="none"/>
</g>
</g>
<g class="edge">
<g>
<path d="M 235 135 C 265 135, 265 135, 295 135" fill="none" stroke="#808080" stroke-width="2"/>
<path d="M 295 135 L 289.47363 137.33652 L 289.47363 132.66348 Z" fill="#808080" stroke="none"/>
<text dominant-baseline="central" fill="#808080" font-family="sans-serif" font-size="11" text-anchor="middle" x="265" y="127">
next value
</text>
<title>add → stdout</title>
</g>
</g>
<g class="edge">
<g>
<path d="M 235 135 L 250 135 Q 260 135 260 145 L 260 185 Q 260 195 250 195 L 30 195 Q 20 195 20 185 L 20 135 Q 20 125 30 125 L 45 125" fill="none" stroke="#808080" stroke-width="2"/>
<path d="M 45 125 L 39.473633 127.33651 L 39.473633 122.66349 Z" fill="#808080" stroke="none"/>
</g>
</g>
<g>
<text dominant-baseline="central" fill="#4488CC" font-family="sans-serif" font-size="12" text-anchor="middle" x="-20" y="125">
0 (once)
</text>
<g>
<path d="M 15 125 C 45 125, 20 125, 50 125" fill="none" stroke="#4488CC" stroke-dasharray="4 2" stroke-width="2"/>
<path d="M 50 125 L 44.473633 127.33651 L 44.473633 122.66349 Z" fill="#4488CC" stroke="none"/>
</g>
<title>i1: 0</title>
<text dominant-baseline="central" fill="#4488CC" font-family="sans-serif" font-size="12" text-anchor="middle" x="-20" y="145">
1 (once)
</text>
<g>
<path d="M 15 145 C 45 145, 20 145, 50 145" fill="none" stroke="#4488CC" stroke-dasharray="4 2" stroke-width="2"/>
<path d="M 50 145 L 44.473633 147.33652 L 44.473633 142.66348 Z" fill="#4488CC" stroke="none"/>
</g>
<title>i2: 1</title>
</g>
<g/>
</g>
</svg>