<svg height="270" viewBox="-80 -50 610 270" width="610" xmlns="http://www.w3.org/2000/svg" xmlns:xlink="http://www.w3.org/1999/xlink">
<style>
.node-subflow rect { cursor: pointer; }
.node-subflow:hover rect { stroke-width: 3; }
.node-function:hover rect, .node-function:hover path { stroke-width: 3; }
.port-label { pointer-events: none; }
.edge path { transition: stroke-width 0.15s; }
.edge:hover path { stroke-width: 3; }
text { user-select: none; }
</style>
<g class="flow-graph">
<g class="node-function">
<rect fill="#FF7F50" height="120" rx="10" ry="10" stroke="#444444" stroke-width="1.5" width="180" x="50" y="50"/>
<text dominant-baseline="central" fill="#222222" font-family="sans-serif" font-size="14" text-anchor="middle" x="140" y="65">
add
</text>
<title>add (lib://flowstdlib/math/add)</title>
<g>
<circle cx="50" cy="115" fill="#888888" r="5" stroke="#444444" stroke-width="1"/>
<title>i1: number</title>
</g>
<text dominant-baseline="central" fill="#222222" font-family="sans-serif" font-size="10" text-anchor="start" x="58" y="115">
i1
</text>
<g>
<circle cx="50" cy="135" fill="#888888" r="5" stroke="#444444" stroke-width="1"/>
<title>i2: number</title>
</g>
<text dominant-baseline="central" fill="#222222" font-family="sans-serif" font-size="10" text-anchor="start" x="58" y="135">
i2
</text>
<g>
<circle cx="230" cy="125" fill="#888888" r="5" stroke="#444444" stroke-width="1"/>
<title>: number</title>
</g>
<text dominant-baseline="central" fill="#222222" font-family="sans-serif" font-size="10" text-anchor="end" x="222" y="125">

</text>
</g>
<g class="node-sink">
<path d="M 390 50 L 480 86 L 480 170 L 300 170 L 300 86 Z" fill="#333333" stroke="#444444" stroke-width="1.5"/>
<text dominant-baseline="central" fill="#FFFFFF" font-family="sans-serif" font-size="14" text-anchor="middle" x="390" y="65">
stdout
</text>
<title>stdout (context://stdio/stdout)</title>
<g>
<circle cx="300" cy="125" fill="#888888" r="5" stroke="#444444" stroke-width="1"/>
<title>: generic</title>
</g>
<text dominant-baseline="central" fill="#FFFFFF" font-family="sans-serif" font-size="10" text-anchor="start" x="308" y="125">

</text>
</g>
<g class="edge">
<g>
<path d="M 230 125 C 260 200, 20 200, 50 135" fill="none" stroke="#555555" stroke-width="1.5"/>
<path d="M 50 135 L 49.740784 142.9958 L 44.083565 140.38478 Z" fill="#555555" stroke="none"/>
</g>
</g>
<g class="edge">
<g>
<path d="M 230 125 C 270 125, 260 125, 300 125" fill="none" stroke="#555555" stroke-width="1.5"/>
<path d="M 300 125 L 292.6315 128.11534 L 292.6315 121.88465 Z" fill="#555555" stroke="none"/>
<text dominant-baseline="central" fill="#555555" font-family="sans-serif" font-size="10" text-anchor="middle" x="265" y="117">
next value
</text>
<title>add → stdout</title>
</g>
</g>
<g class="edge">
<g>
<path d="M 230 125 C 260 200, 20 200, 50 115" fill="none" stroke="#555555" stroke-width="1.5"/>
<path d="M 50 115 L 50.48536 122.98526 L 44.60988 120.91156 Z" fill="#555555" stroke="none"/>
</g>
</g>
<g>
<text dominant-baseline="central" fill="#4488CC" font-family="sans-serif" font-size="11" text-anchor="middle" x="-20" y="115">
0 (once)
</text>
<g>
<path d="M 15 115 C 55 115, 10 115, 50 115" fill="none" stroke="#4488CC" stroke-dasharray="4 2" stroke-width="1.5"/>
<path d="M 50 115 L 42.63151 118.11535 L 42.63151 111.88465 Z" fill="#4488CC" stroke="none"/>
</g>
<title>i1: 0</title>
<text dominant-baseline="central" fill="#4488CC" font-family="sans-serif" font-size="11" text-anchor="middle" x="-20" y="135">
1 (once)
</text>
<g>
<path d="M 15 135 C 55 135, 10 135, 50 135" fill="none" stroke="#4488CC" stroke-dasharray="4 2" stroke-width="1.5"/>
<path d="M 50 135 L 42.63151 138.11534 L 42.63151 131.88466 Z" fill="#4488CC" stroke="none"/>
</g>
<title>i2: 1</title>
</g>
<g/>
</g>
</svg>