<?xml version="1.0" encoding="UTF-8" standalone="no"?>
<!DOCTYPE svg PUBLIC "-//W3C//DTD SVG 1.1//EN"
 "http://www.w3.org/Graphics/SVG/1.1/DTD/svg11.dtd">
<!-- Generated by graphviz version 2.43.0 (0)
 -->
<!-- Title: sequence Pages: 1 -->
<svg width="417pt" height="358pt"
 viewBox="28.80 28.80 388.24 329.54" xmlns="http://www.w3.org/2000/svg" xmlns:xlink="http://www.w3.org/1999/xlink">
<g id="page0,1_graph0" class="graph" transform="scale(1 1) rotate(0) translate(32.8 325.54)">
<title>sequence</title>
<polygon fill="white" stroke="transparent" points="-4,4 -4,-296.74 355.44,-296.74 355.44,4 -4,4"/>
<text text-anchor="middle" x="175.72" y="-277.54" font-family="Times,serif" font-size="14.00">sequence</text>
<!-- /sequence/start -->
<g id="node1" class="node">
<title>/sequence/start</title>
<polygon fill="white" stroke="black" points="294.7,-257.3 253.76,-269.74 212.81,-257.3 212.85,-237.18 294.66,-237.18 294.7,-257.3"/>
<text text-anchor="middle" x="253.76" y="-248.04" font-family="Times,serif" font-size="14.00">start</text>
</g>
<!-- /sequence/compare -->
<g id="node6" class="node">
<title>/sequence/compare</title>
<g id="a_node6"><a xlink:href="../flowstdlib/control/compare_switch/compare_switch.html" xlink:title="compare\n(compare_switch)">
<ellipse fill="coral" stroke="black" cx="165.76" cy="-170.87" rx="100.32" ry="26.74"/>
<text text-anchor="middle" x="165.76" y="-174.67" font-family="Times,serif" font-size="14.00">compare</text>
<text text-anchor="middle" x="165.76" y="-159.67" font-family="Times,serif" font-size="14.00">(compare_switch)</text>
</a>
</g>
</g>
<!-- /sequence/start&#45;&gt;/sequence/compare -->
<g id="edge1" class="edge">
<title>/sequence/start:s&#45;&gt;/sequence/compare:ne</title>
<path fill="none" stroke="black" d="M253.76,-235.74C253.76,-206.96 222.71,-217.43 199.77,-203.92"/>
<polygon fill="black" stroke="black" points="201.81,-201.08 191.76,-197.74 197.54,-206.62 201.81,-201.08"/>
<text text-anchor="middle" x="173.76" y="-201.54" font-family="Times,serif" font-size="14.00">right</text>
</g>
<!-- /sequence/end -->
<g id="node2" class="node">
<title>/sequence/end</title>
<polygon fill="white" stroke="black" points="194.35,-257.3 159.76,-269.74 125.17,-257.3 125.2,-237.18 194.32,-237.18 194.35,-257.3"/>
<text text-anchor="middle" x="159.76" y="-248.04" font-family="Times,serif" font-size="14.00">end</text>
</g>
<!-- /sequence/end&#45;&gt;/sequence/compare -->
<g id="edge2" class="edge">
<title>/sequence/end:s&#45;&gt;/sequence/compare:ne</title>
<path fill="none" stroke="black" d="M159.76,-235.74C159.76,-219.7 184.89,-215.15 192.65,-207.87"/>
<polygon fill="black" stroke="black" points="196.12,-207.39 191.76,-197.74 189.15,-208.01 196.12,-207.39"/>
<text text-anchor="middle" x="204.26" y="-201.54" font-family="Times,serif" font-size="14.00">left</text>
</g>
<!-- /sequence/step -->
<g id="node3" class="node">
<title>/sequence/step</title>
<polygon fill="white" stroke="black" points="75.28,-257.3 37.76,-269.74 0.24,-257.3 0.27,-237.18 75.24,-237.18 75.28,-257.3"/>
<text text-anchor="middle" x="37.76" y="-248.04" font-family="Times,serif" font-size="14.00">step</text>
</g>
<!-- /sequence/add -->
<g id="node7" class="node">
<title>/sequence/add</title>
<g id="a_node7"><a xlink:href="../flowstdlib/math/add/add.html" xlink:title="add">
<ellipse fill="coral" stroke="black" cx="109.76" cy="-90" rx="27.9" ry="18"/>
<text text-anchor="middle" x="109.76" y="-86.3" font-family="Times,serif" font-size="14.00">add</text>
</a>
</g>
</g>
<!-- /sequence/step&#45;&gt;/sequence/add -->
<g id="edge3" class="edge">
<title>/sequence/step:s&#45;&gt;/sequence/add:w</title>
<path fill="none" stroke="black" d="M37.76,-235.74C37.76,-171.9 15.83,-98.52 70.49,-90.69"/>
<polygon fill="black" stroke="black" points="71.01,-94.16 80.76,-90 70.55,-87.18 71.01,-94.16"/>
<text text-anchor="middle" x="73.76" y="-93.8" font-family="Times,serif" font-size="14.00">i2</text>
</g>
<!-- /sequence/sequence -->
<g id="node4" class="node">
<title>/sequence/sequence</title>
<polygon fill="black" stroke="black" points="217.9,-12.44 284.76,0 351.62,-12.44 351.56,-32.56 217.96,-32.56 217.9,-12.44"/>
<text text-anchor="middle" x="284.76" y="-14.3" font-family="Times,serif" font-size="14.00" fill="white">sequence</text>
</g>
<!-- /sequence/last -->
<g id="node5" class="node">
<title>/sequence/last</title>
<polygon fill="black" stroke="black" points="131.17,-12.44 165.76,0 200.35,-12.44 200.32,-32.56 131.2,-32.56 131.17,-12.44"/>
<text text-anchor="middle" x="165.76" y="-14.3" font-family="Times,serif" font-size="14.00" fill="white">last</text>
</g>
<!-- /sequence/compare&#45;&gt;/sequence/sequence -->
<g id="edge5" class="edge">
<title>/sequence/compare:s&#45;&gt;/sequence/sequence:n</title>
<path fill="none" stroke="black" d="M165.76,-144C165.76,-75.63 272.98,-102.84 283.87,-44.18"/>
<polygon fill="black" stroke="black" points="287.37,-44.27 284.76,-34 280.4,-43.66 287.37,-44.27"/>
<text text-anchor="middle" x="195.86" y="-92.77" font-family="Times,serif" font-size="14.00">right&#45;lte</text>
</g>
<!-- /sequence/compare&#45;&gt;/sequence/last -->
<g id="edge9" class="edge">
<title>/sequence/compare:s&#45;&gt;/sequence/last:n</title>
<path fill="none" stroke="black" d="M165.76,-144C165.76,-98.64 165.76,-84.85 165.76,-44.05"/>
<polygon fill="black" stroke="black" points="169.26,-44 165.76,-34 162.26,-44 169.26,-44"/>
<text text-anchor="middle" x="181.76" y="-77.79" font-family="Times,serif" font-size="14.00">right&#45;gte</text>
</g>
<!-- /sequence/compare&#45;&gt;/sequence/compare -->
<g id="edge6" class="edge">
<title>/sequence/compare:s&#45;&gt;/sequence/compare:ne</title>
<path fill="none" stroke="black" d="M165.76,-143.87C205.23,-123.87 284.17,-123.87 284.17,-170.37 284.17,-213.24 239.18,-216.59 201.22,-201.18"/>
<polygon fill="black" stroke="black" points="202.31,-197.83 191.76,-196.87 199.41,-204.2 202.31,-197.83"/>
<text text-anchor="middle" x="143.99" y="-132.55" font-family="Times,serif" font-size="14.00">left&#45;gt</text>
<text text-anchor="middle" x="179.26" y="-200.67" font-family="Times,serif" font-size="14.00">left</text>
</g>
<!-- /sequence/compare&#45;&gt;/sequence/add -->
<g id="edge7" class="edge">
<title>/sequence/compare:sw&#45;&gt;/sequence/add:ne</title>
<path fill="none" stroke="black" d="M139.76,-144C130.24,-134.48 134.38,-125.14 131.26,-115.7"/>
<polygon fill="black" stroke="black" points="134.06,-113.58 125.76,-107 128.15,-117.32 134.06,-113.58"/>
<text text-anchor="middle" x="107.25" y="-114.21" font-family="Times,serif" font-size="14.00">right&#45;lt</text>
<text text-anchor="middle" x="132.76" y="-110.8" font-family="Times,serif" font-size="14.00">i1</text>
</g>
<!-- /sequence/add&#45;&gt;/sequence/compare -->
<g id="edge8" class="edge">
<title>/sequence/add:e&#45;&gt;/sequence/compare:ne</title>
<path fill="none" stroke="black" d="M138.76,-90C148.63,-90 143.76,-102.23 151.76,-108 194.99,-139.19 234.63,-101.02 266.17,-144 280.07,-162.95 282.67,-180.14 266.17,-196.87 245.39,-217.93 220.96,-220.83 199.29,-204.46"/>
<polygon fill="black" stroke="black" points="201.59,-201.82 191.76,-197.87 196.98,-207.09 201.59,-201.82"/>
<text text-anchor="middle" x="209.76" y="-201.67" font-family="Times,serif" font-size="14.00">right</text>
</g>
<!-- /sequence/add&#45;&gt;/sequence/add -->
<g id="edge4" class="edge">
<title>/sequence/add:e&#45;&gt;/sequence/add:w</title>
<path fill="none" stroke="black" d="M137.76,-90C155.71,-108 155.71,-144 109.76,-144 69.91,-144 64.62,-116.93 75.62,-98"/>
<polygon fill="black" stroke="black" points="78.45,-100.06 81.76,-90 72.89,-95.8 78.45,-100.06"/>
<text text-anchor="middle" x="144.77" y="-93.81" font-family="Times,serif" font-size="14.00">i2</text>
<text text-anchor="middle" x="74.76" y="-78.8" font-family="Times,serif" font-size="14.00">i2</text>
</g>
</g>
</svg>
