<?xml version="1.0" encoding="UTF-8" standalone="no"?>
<!DOCTYPE svg PUBLIC "-//W3C//DTD SVG 1.1//EN"
 "http://www.w3.org/Graphics/SVG/1.1/DTD/svg11.dtd">
<!-- Generated by graphviz version 2.42.4 (0)
 -->
<!-- Title: reverse_echo Pages: 1 -->
<svg width="257pt" height="211pt"
 viewBox="0.00 0.00 257.25 211.00" xmlns="http://www.w3.org/2000/svg" xmlns:xlink="http://www.w3.org/1999/xlink">
<g id="graph0" class="graph" transform="scale(1 1) rotate(0) translate(4 207)">
<title>reverse_echo</title>
<polygon fill="white" stroke="transparent" points="-4,4 -4,-207 253.25,-207 253.25,4 -4,4"/>
<text text-anchor="middle" x="124.62" y="-187.8" font-family="Times,serif" font-size="14.00">/reverse&#45;echo</text>
<!-- r0 -->
<g id="node1" class="node">
<title>r0</title>
<g id="a_node1"><a xlink:href="file:///home/andrew/workspace/flow/flowruntime/stdio/readline.html" xlink:title="read (#0)">
<ellipse fill="coral" stroke="black" cx="55.25" cy="-162" rx="55.49" ry="18"/>
<text text-anchor="middle" x="55.25" y="-158.3" font-family="Times,serif" font-size="14.00">read (#0)</text>
</a>
</g>
</g>
<!-- r1 -->
<g id="node2" class="node">
<title>r1</title>
<g id="a_node2"><a xlink:href="file:///home/andrew/workspace/flow/samples/reverse-echo/reverse/reverse.html" xlink:title="reverse (#1)">
<ellipse fill="coral" stroke="black" cx="110.25" cy="-90" rx="69.59" ry="18"/>
<text text-anchor="middle" x="110.25" y="-86.3" font-family="Times,serif" font-size="14.00">reverse (#1)</text>
</a>
</g>
</g>
<!-- r0&#45;&gt;r1 -->
<g id="edge1" class="edge">
<title>r0:e&#45;&gt;r1:n</title>
<path fill="none" stroke="black" d="M111.25,-162C131.97,-162 116.17,-139.65 111.46,-118.09"/>
<polygon fill="black" stroke="black" points="114.91,-117.51 110.25,-108 107.96,-118.35 114.91,-117.51"/>
</g>
<!-- r2 -->
<g id="node3" class="node">
<title>r2</title>
<g id="a_node3"><a xlink:href="file:///home/andrew/workspace/flow/flowruntime/stdio/stdout.html" xlink:title="print (#2)">
<ellipse fill="coral" stroke="black" cx="180.25" cy="-18" rx="57.39" ry="18"/>
<text text-anchor="middle" x="180.25" y="-14.3" font-family="Times,serif" font-size="14.00">print (#2)</text>
</a>
</g>
</g>
<!-- r1&#45;&gt;r2 -->
<g id="edge2" class="edge">
<title>r1:e&#45;&gt;r2:n</title>
<path fill="none" stroke="black" d="M181.25,-90C201.97,-90 186.17,-67.65 181.46,-46.09"/>
<polygon fill="black" stroke="black" points="184.91,-45.51 180.25,-36 177.96,-46.35 184.91,-45.51"/>
<text text-anchor="middle" x="215.25" y="-93.8" font-family="Times,serif" font-size="14.00">/reversed</text>
</g>
</g>
</svg>
