<?xml version="1.0" encoding="UTF-8" standalone="no"?>
<!DOCTYPE svg PUBLIC "-//W3C//DTD SVG 1.1//EN"
 "http://www.w3.org/Graphics/SVG/1.1/DTD/svg11.dtd">
<!-- Generated by graphviz version 2.44.0 (20200408.0750)
 -->
<!-- Title: reverse_echo Pages: 1 -->
<svg width="199pt" height="211pt"
 viewBox="0.00 0.00 198.90 211.00" xmlns="http://www.w3.org/2000/svg" xmlns:xlink="http://www.w3.org/1999/xlink">
<g id="graph0" class="graph" transform="scale(1 1) rotate(0) translate(4 207)">
<title>reverse_echo</title>
<polygon fill="white" stroke="transparent" points="-4,4 -4,-207 194.9,-207 194.9,4 -4,4"/>
<text text-anchor="middle" x="95.45" y="-187.8" font-family="Times,serif" font-size="14.00">/reverse&#45;echo</text>
<!-- r0 -->
<g id="node1" class="node">
<title>r0</title>
<g id="a_node1"><a xlink:href="file:///Users/andrew/workspace/flow/flowruntime/stdio/readline.toml" xlink:title="read (#0)">
<ellipse fill="coral" stroke="black" cx="42.9" cy="-162" rx="42.79" ry="18"/>
<text text-anchor="middle" x="42.9" y="-158.3" font-family="Times,serif" font-size="14.00">read (#0)</text>
</a>
</g>
</g>
<!-- r1 -->
<g id="node2" class="node">
<title>r1</title>
<g id="a_node2"><a xlink:href="file:///Users/andrew/workspace/flow/samples/reverse-echo/reverse/reverse.toml" xlink:title="reverse (#1)">
<ellipse fill="coral" stroke="black" cx="85.9" cy="-90" rx="53.09" ry="18"/>
<text text-anchor="middle" x="85.9" y="-86.3" font-family="Times,serif" font-size="14.00">reverse (#1)</text>
</a>
</g>
</g>
<!-- r0&#45;&gt;r1 -->
<g id="edge1" class="edge">
<title>r0:e&#45;&gt;r1:n</title>
<path fill="none" stroke="black" d="M86.9,-162C107.62,-162 91.82,-139.65 87.11,-118.09"/>
<polygon fill="black" stroke="black" points="90.56,-117.51 85.9,-108 83.61,-118.35 90.56,-117.51"/>
</g>
<!-- r2 -->
<g id="node3" class="node">
<title>r2</title>
<g id="a_node3"><a xlink:href="file:///Users/andrew/workspace/flow/flowruntime/stdio/stdout.toml" xlink:title="print (#2)">
<ellipse fill="coral" stroke="black" cx="139.9" cy="-18" rx="44.39" ry="18"/>
<text text-anchor="middle" x="139.9" y="-14.3" font-family="Times,serif" font-size="14.00">print (#2)</text>
</a>
</g>
</g>
<!-- r1&#45;&gt;r2 -->
<g id="edge2" class="edge">
<title>r1:e&#45;&gt;r2:n</title>
<path fill="none" stroke="black" d="M140.9,-90C161.62,-90 145.82,-67.65 141.11,-46.09"/>
<polygon fill="black" stroke="black" points="144.56,-45.51 139.9,-36 137.61,-46.35 144.56,-45.51"/>
<text text-anchor="middle" x="165.9" y="-93.8" font-family="Times,serif" font-size="14.00">/reversed</text>
</g>
</g>
</svg>
