<?xml version="1.0" encoding="UTF-8" standalone="no"?>
<!DOCTYPE svg PUBLIC "-//W3C//DTD SVG 1.1//EN"
 "http://www.w3.org/Graphics/SVG/1.1/DTD/svg11.dtd">
<!-- Generated by graphviz version 2.42.3 (20191010.1750)
 -->
<!-- Title: reverse_echo Pages: 1 -->
<svg width="199pt" height="210pt"
 viewBox="0.00 0.00 198.57 210.00" xmlns="http://www.w3.org/2000/svg" xmlns:xlink="http://www.w3.org/1999/xlink">
<g id="graph0" class="graph" transform="scale(1 1) rotate(0) translate(4 206)">
<title>reverse_echo</title>
<polygon fill="white" stroke="transparent" points="-4,4 -4,-206 194.57,-206 194.57,4 -4,4"/>
<text text-anchor="middle" x="95.29" y="-186.8" font-family="Times,serif" font-size="14.00">/reverse&#45;echo</text>
<!-- r0 -->
<g id="node1" class="node">
<title>r0</title>
<g id="a_node1"><a xlink:href="read" xlink:title="read (#0)">
<ellipse fill="coral" stroke="black" cx="42.27" cy="-162" rx="42.04" ry="18"/>
<text text-anchor="middle" x="42.27" y="-157.8" font-family="Times,serif" font-size="14.00">read (#0)</text>
</a>
</g>
</g>
<!-- r1 -->
<g id="node2" class="node">
<title>r1</title>
<g id="a_node2"><a xlink:href="reverse" xlink:title="reverse (#1)">
<ellipse fill="coral" stroke="black" cx="85.27" cy="-90" rx="52.66" ry="18"/>
<text text-anchor="middle" x="85.27" y="-85.8" font-family="Times,serif" font-size="14.00">reverse (#1)</text>
</a>
</g>
</g>
<!-- r0&#45;&gt;r1 -->
<g id="edge1" class="edge">
<title>r0:e&#45;&gt;r1:n</title>
<path fill="none" stroke="black" d="M86.27,-162C106.99,-162 91.19,-139.65 86.48,-118.09"/>
<polygon fill="black" stroke="black" points="89.94,-117.51 85.27,-108 82.99,-118.35 89.94,-117.51"/>
</g>
<!-- r2 -->
<g id="node3" class="node">
<title>r2</title>
<g id="a_node3"><a xlink:href="print" xlink:title="print (#2)">
<ellipse fill="coral" stroke="black" cx="138.27" cy="-18" rx="43.51" ry="18"/>
<text text-anchor="middle" x="138.27" y="-13.8" font-family="Times,serif" font-size="14.00">print (#2)</text>
</a>
</g>
</g>
<!-- r1&#45;&gt;r2 -->
<g id="edge2" class="edge">
<title>r1:e&#45;&gt;r2:n</title>
<path fill="none" stroke="black" d="M139.27,-90C159.99,-90 144.19,-67.65 139.48,-46.09"/>
<polygon fill="black" stroke="black" points="142.94,-45.51 138.27,-36 135.99,-46.35 142.94,-45.51"/>
<text text-anchor="middle" x="164.92" y="-92.8" font-family="Times,serif" font-size="14.00">/reversed</text>
</g>
</g>
</svg>
