<?xml version="1.0" encoding="UTF-8" standalone="no"?>
<!DOCTYPE svg PUBLIC "-//W3C//DTD SVG 1.1//EN"
 "http://www.w3.org/Graphics/SVG/1.1/DTD/svg11.dtd">
<!-- Generated by graphviz version 2.40.1 (0)
 -->
<!-- Title: reverse_echo Pages: 1 -->
<svg width="256pt" height="211pt"
 viewBox="0.00 0.00 256.25 211.00" xmlns="http://www.w3.org/2000/svg" xmlns:xlink="http://www.w3.org/1999/xlink">
<g id="graph0" class="graph" transform="scale(1 1) rotate(0) translate(4 207)">
<title>reverse_echo</title>
<polygon fill="#ffffff" stroke="transparent" points="-4,4 -4,-207 252.2451,-207 252.2451,4 -4,4"/>
<text text-anchor="middle" x="124.1225" y="-187.8" font-family="Times,serif" font-size="14.00" fill="#000000">/reverse&#45;echo</text>
<!-- r0 -->
<g id="node1" class="node">
<title>r0</title>
<g id="a_node1"><a xlink:href="file:///home/andrew/workspace/flow/flowruntime/stdio/readline.toml" xlink:title="read (#0)">
<ellipse fill="#ff7f50" stroke="#000000" cx="55.2451" cy="-162" rx="55.4913" ry="18"/>
<text text-anchor="middle" x="55.2451" y="-158.3" font-family="Times,serif" font-size="14.00" fill="#000000">read (#0)</text>
</a>
</g>
</g>
<!-- r1 -->
<g id="node2" class="node">
<title>r1</title>
<g id="a_node2"><a xlink:href="file:///home/andrew/workspace/flow/samples/reverse-echo/reverse/reverse.toml" xlink:title="reverse (#1)">
<ellipse fill="#ff7f50" stroke="#000000" cx="110.2451" cy="-90" rx="69.5877" ry="18"/>
<text text-anchor="middle" x="110.2451" y="-86.3" font-family="Times,serif" font-size="14.00" fill="#000000">reverse (#1)</text>
</a>
</g>
</g>
<!-- r0&#45;&gt;r1 -->
<g id="edge1" class="edge">
<title>r0:e&#45;&gt;r1:n</title>
<path fill="none" stroke="#000000" d="M110.2451,-162C130.9638,-162 115.9104,-139.6424 111.4069,-118.0882"/>
<polygon fill="#000000" stroke="#000000" points="114.8663,-117.5339 110.2451,-108 107.9123,-118.3348 114.8663,-117.5339"/>
</g>
<!-- r2 -->
<g id="node3" class="node">
<title>r2</title>
<g id="a_node3"><a xlink:href="file:///home/andrew/workspace/flow/flowruntime/stdio/stdout.toml" xlink:title="print (#2)">
<ellipse fill="#ff7f50" stroke="#000000" cx="180.2451" cy="-18" rx="57.3905" ry="18"/>
<text text-anchor="middle" x="180.2451" y="-14.3" font-family="Times,serif" font-size="14.00" fill="#000000">print (#2)</text>
</a>
</g>
</g>
<!-- r1&#45;&gt;r2 -->
<g id="edge2" class="edge">
<title>r1:e&#45;&gt;r2:n</title>
<path fill="none" stroke="#000000" d="M180.2451,-90C200.9638,-90 185.9104,-67.6424 181.4069,-46.0882"/>
<polygon fill="#000000" stroke="#000000" points="184.8663,-45.5339 180.2451,-36 177.9123,-46.3348 184.8663,-45.5339"/>
<text text-anchor="middle" x="214.2451" y="-93.8" font-family="Times,serif" font-size="14.00" fill="#000000">/reversed</text>
</g>
</g>
</svg>
