<?xml version="1.0" encoding="UTF-8" standalone="no"?>
<!DOCTYPE svg PUBLIC "-//W3C//DTD SVG 1.1//EN"
 "http://www.w3.org/Graphics/SVG/1.1/DTD/svg11.dtd">
<!-- Generated by graphviz version 2.44.1 (20200629.0846)
 -->
<!-- Title: reverse_echo Pages: 1 -->
<svg width="186pt" height="211pt"
 viewBox="0.00 0.00 185.90 211.00" xmlns="http://www.w3.org/2000/svg" xmlns:xlink="http://www.w3.org/1999/xlink">
<g id="graph0" class="graph" transform="scale(1 1) rotate(0) translate(4 207)">
<title>reverse_echo</title>
<polygon fill="white" stroke="transparent" points="-4,4 -4,-207 181.9,-207 181.9,4 -4,4"/>
<text text-anchor="middle" x="88.95" y="-187.8" font-family="Times,serif" font-size="14.00">/reverse&#45;echo</text>
<!-- r2 -->
<g id="node1" class="node">
<title>r2</title>
<g id="a_node1"><a xlink:href="file:///Users/andrew/workspace/flow/flowr/src/lib/flowruntime/stdio/readline.html" xlink:title="readline (#2)">
<ellipse fill="coral" stroke="black" cx="55.9" cy="-162" rx="55.79" ry="18"/>
<text text-anchor="middle" x="55.9" y="-158.3" font-family="Times,serif" font-size="14.00">readline (#2)</text>
</a>
</g>
</g>
<!-- r0 -->
<g id="node2" class="node">
<title>r0</title>
<g id="a_node2"><a xlink:href="file:///Users/andrew/workspace/flow/samples/reverse-echo/reverse/reverse.html" xlink:title="reverse (#0)">
<ellipse fill="coral" stroke="black" cx="72.9" cy="-90" rx="53.09" ry="18"/>
<text text-anchor="middle" x="72.9" y="-86.3" font-family="Times,serif" font-size="14.00">reverse (#0)</text>
</a>
</g>
</g>
<!-- r2&#45;&gt;r0 -->
<g id="edge1" class="edge">
<title>r2:se&#45;&gt;r0:n</title>
<path fill="none" stroke="black" d="M72.9,-144C81.56,-135.34 76.96,-128.22 74.32,-118.17"/>
<polygon fill="black" stroke="black" points="77.75,-117.42 72.9,-108 70.82,-118.39 77.75,-117.42"/>
<text text-anchor="middle" x="55.4" y="-132.8" font-family="Times,serif" font-size="14.00">/string</text>
</g>
<!-- r1 -->
<g id="node3" class="node">
<title>r1</title>
<g id="a_node3"><a xlink:href="file:///Users/andrew/workspace/flow/flowr/src/lib/flowruntime/stdio/stdout.html" xlink:title="print (#1)">
<ellipse fill="coral" stroke="black" cx="126.9" cy="-18" rx="44.39" ry="18"/>
<text text-anchor="middle" x="126.9" y="-14.3" font-family="Times,serif" font-size="14.00">print (#1)</text>
</a>
</g>
</g>
<!-- r0&#45;&gt;r1 -->
<g id="edge2" class="edge">
<title>r0:e&#45;&gt;r1:n</title>
<path fill="none" stroke="black" d="M127.9,-90C148.62,-90 132.82,-67.65 128.11,-46.09"/>
<polygon fill="black" stroke="black" points="131.56,-45.51 126.9,-36 124.61,-46.35 131.56,-45.51"/>
<text text-anchor="middle" x="152.9" y="-93.8" font-family="Times,serif" font-size="14.00">/reversed</text>
</g>
</g>
</svg>
