<?xml version="1.0" encoding="UTF-8" standalone="no"?>
<!DOCTYPE svg PUBLIC "-//W3C//DTD SVG 1.1//EN"
 "http://www.w3.org/Graphics/SVG/1.1/DTD/svg11.dtd">
<!-- Generated by graphviz version 2.43.0 (0)
 -->
<!-- Title: mandlebrot Pages: 1 -->
<svg width="1968pt" height="321pt"
 viewBox="0.00 0.00 1967.84 321.00" xmlns="http://www.w3.org/2000/svg" xmlns:xlink="http://www.w3.org/1999/xlink">
<g id="graph0" class="graph" transform="scale(1 1) rotate(0) translate(4 317)">
<title>mandlebrot</title>
<polygon fill="white" stroke="transparent" points="-4,4 -4,-317 1963.84,-317 1963.84,4 -4,4"/>
<text text-anchor="middle" x="979.92" y="-297.8" font-family="Times,serif" font-size="14.00">/mandlebrot</text>
<g id="clust1" class="cluster">
<title>cluster_parse_args</title>
<polygon fill="none" stroke="black" points="63.84,-89 63.84,-251 926.84,-251 926.84,-89 63.84,-89"/>
<text text-anchor="middle" x="495.34" y="-235.8" font-family="Times,serif" font-size="14.00">/mandlebrot/parse_args</text>
</g>
<g id="clust2" class="cluster">
<title>cluster_generate_pixels</title>
<polygon fill="none" stroke="black" points="1103.84,-8 1103.84,-282 1951.84,-282 1951.84,-8 1103.84,-8"/>
<text text-anchor="middle" x="1527.84" y="-266.8" font-family="Times,serif" font-size="14.00">/mandlebrot/generate_pixels</text>
</g>
<g id="clust3" class="cluster">
<title>cluster_y_sequence</title>
<polygon fill="none" stroke="black" points="1287.84,-16 1287.84,-251 1943.84,-251 1943.84,-16 1287.84,-16"/>
<text text-anchor="middle" x="1615.84" y="-235.8" font-family="Times,serif" font-size="14.00">/mandlebrot/generate_pixels/y&#45;sequence</text>
</g>
<g id="clust4" class="cluster">
<title>cluster_render</title>
<polygon fill="none" stroke="black" points="934.84,-176 934.84,-251 1090.84,-251 1090.84,-176 934.84,-176"/>
<text text-anchor="middle" x="1012.84" y="-235.8" font-family="Times,serif" font-size="14.00">/mandlebrot/render</text>
</g>
<!-- r9 -->
<g id="node1" class="node">
<title>r9</title>
<g id="a_node1"><a xlink:href="file:///home/runner/work/flow/flow/flowr/src/cli/args/get.html" xlink:title="args (#9)">
<ellipse fill="coral" stroke="black" cx="370.84" cy="-202" rx="54.69" ry="18"/>
<text text-anchor="middle" x="370.84" y="-198.3" font-family="Times,serif" font-size="14.00">args (#9)</text>
</a>
</g>
</g>
<!-- r10 -->
<g id="node2" class="node">
<title>r10</title>
<g id="a_node2"><a xlink:href="file:///home/runner/work/flow/flow/flowr/src/cli/image/image_buffer.html" xlink:title="image_buffer (#10)">
<ellipse fill="coral" stroke="black" cx="618.84" cy="-115" rx="100.98" ry="18"/>
<text text-anchor="middle" x="618.84" y="-111.3" font-family="Times,serif" font-size="14.00">image_buffer (#10)</text>
</a>
</g>
</g>
<!-- r9&#45;&gt;r10 -->
<g id="edge1" class="edge">
<title>r9:s&#45;&gt;r10:w</title>
<path fill="none" stroke="black" d="M370.84,-183C370.84,-162.89 385.24,-160.73 402.84,-151 434.37,-133.59 448.01,-145.33 481.84,-133 494.43,-128.41 498.01,-120.3 506.84,-116.75"/>
<polygon fill="black" stroke="black" points="507.6,-120.17 516.84,-115 506.39,-113.27 507.6,-120.17"/>
<text text-anchor="middle" x="486.34" y="-118.8" font-family="Times,serif" font-size="14.00">filename</text>
<text text-anchor="middle" x="340.34" y="-171.8" font-family="Times,serif" font-size="14.00">/string/1</text>
</g>
<!-- r9&#45;&gt;r10 -->
<g id="edge5" class="edge">
<title>r9:s&#45;&gt;r10:nw</title>
<path fill="none" stroke="black" d="M370.84,-183C370.84,-138.87 421.87,-161.05 464.84,-151 491.51,-144.76 562.64,-152.6 592.44,-138.63"/>
<polygon fill="black" stroke="black" points="594.49,-141.47 600.84,-133 590.59,-135.66 594.49,-141.47"/>
<text text-anchor="middle" x="586.84" y="-136.8" font-family="Times,serif" font-size="14.00">size</text>
<text text-anchor="middle" x="394.84" y="-171.8" font-family="Times,serif" font-size="14.00">/json/2</text>
</g>
<!-- r1 -->
<g id="node3" class="node">
<title>r1</title>
<g id="a_node3"><a xlink:href="file:///home/runner/work/flow/flow/target/flowstdlib/math/subtract/subtract.html" xlink:title="height (#1)">
<ellipse fill="coral" stroke="black" cx="854.84" cy="-115" rx="63.89" ry="18"/>
<text text-anchor="middle" x="854.84" y="-111.3" font-family="Times,serif" font-size="14.00">height (#1)</text>
</a>
</g>
</g>
<!-- r9&#45;&gt;r1 -->
<g id="edge2" class="edge">
<title>r9:s&#45;&gt;r1:n</title>
<path fill="none" stroke="black" d="M370.84,-183C370.84,-158.08 782.17,-159.59 846.44,-138.8"/>
<polygon fill="black" stroke="black" points="848.6,-141.56 854.84,-133 844.63,-135.8 848.6,-141.56"/>
<text text-anchor="middle" x="847.84" y="-136.8" font-family="Times,serif" font-size="14.00">i1</text>
<text text-anchor="middle" x="401.34" y="-171.8" font-family="Times,serif" font-size="14.00">/json/2/1</text>
</g>
<!-- r2 -->
<g id="node4" class="node">
<title>r2</title>
<g id="a_node4"><a xlink:href="file:///home/runner/work/flow/flow/target/flowstdlib/control/join/join.html" xlink:title="width&#45;gate (#2)">
<ellipse fill="coral" stroke="black" cx="343.84" cy="-115" rx="83.69" ry="18"/>
<text text-anchor="middle" x="343.84" y="-111.3" font-family="Times,serif" font-size="14.00">width&#45;gate (#2)</text>
</a>
</g>
</g>
<!-- r9&#45;&gt;r2 -->
<g id="edge3" class="edge">
<title>r9:sw&#45;&gt;r2:n</title>
<path fill="none" stroke="black" d="M353.84,-184C340.06,-170.22 342.42,-159.83 343.49,-143.05"/>
<polygon fill="black" stroke="black" points="346.99,-143.12 343.84,-133 340,-142.87 346.99,-143.12"/>
<text text-anchor="middle" x="327.84" y="-136.8" font-family="Times,serif" font-size="14.00">data</text>
<text text-anchor="middle" x="323.34" y="-187.8" font-family="Times,serif" font-size="14.00">/json/2/0</text>
</g>
<!-- r11 -->
<g id="node5" class="node">
<title>r11</title>
<g id="a_node5"><a xlink:href="file:///home/runner/work/flow/flow/flowsamples/mandlebrot/pixel_to_point/pixel_to_point.html" xlink:title="p2p (#11)">
<ellipse fill="coral" stroke="black" cx="129.84" cy="-115" rx="57.69" ry="18"/>
<text text-anchor="middle" x="129.84" y="-111.3" font-family="Times,serif" font-size="14.00">p2p (#11)</text>
</a>
</g>
</g>
<!-- r9&#45;&gt;r11 -->
<g id="edge4" class="edge">
<title>r9:s&#45;&gt;r11:nw</title>
<path fill="none" stroke="black" d="M370.84,-183C370.84,-170.31 168.15,-149.71 121.88,-137.75"/>
<polygon fill="black" stroke="black" points="123.32,-134.56 112.84,-133 120.07,-140.75 123.32,-134.56"/>
<text text-anchor="middle" x="98.84" y="-136.8" font-family="Times,serif" font-size="14.00">size</text>
<text text-anchor="middle" x="394.84" y="-186.8" font-family="Times,serif" font-size="14.00">/json/2</text>
</g>
<!-- r9&#45;&gt;r11 -->
<g id="edge6" class="edge">
<title>r9:se&#45;&gt;r11:n</title>
<path fill="none" stroke="black" d="M387.84,-184C425.44,-146.4 324.93,-161.69 272.84,-151 259.55,-148.27 166.04,-148.74 137.86,-139.19"/>
<polygon fill="black" stroke="black" points="139.9,-136.34 129.84,-133 135.62,-141.88 139.9,-136.34"/>
<text text-anchor="middle" x="155.84" y="-136.8" font-family="Times,serif" font-size="14.00">bounds</text>
<text text-anchor="middle" x="411.84" y="-187.8" font-family="Times,serif" font-size="14.00">/json/3</text>
</g>
<!-- r10&#45;&gt;r10 -->
<g id="edge30" class="edge">
<title>r10:sw&#45;&gt;r10:w</title>
<path fill="none" stroke="black" d="M600.84,-97C543.26,-88 446.1,-88 446.1,-106 446.1,-121.75 482.85,-123.72 507.95,-117.94"/>
<polygon fill="black" stroke="black" points="509.25,-121.2 517.84,-115 507.26,-114.49 509.25,-121.2"/>
<text text-anchor="middle" x="487.34" y="-103.8" font-family="Times,serif" font-size="14.00">filename</text>
<text text-anchor="middle" x="593.84" y="-85.8" font-family="Times,serif" font-size="14.00">:3</text>
</g>
<!-- r10&#45;&gt;r10 -->
<g id="edge31" class="edge">
<title>r10:s&#45;&gt;r10:nw</title>
<path fill="none" stroke="black" d="M618.84,-97C561.26,-88 446.1,-88 446.1,-115 446.1,-140.47 532.57,-141.91 590.7,-134.44"/>
<polygon fill="black" stroke="black" points="591.44,-137.87 600.84,-133 590.45,-130.94 591.44,-137.87"/>
<text text-anchor="middle" x="614.84" y="-136.8" font-family="Times,serif" font-size="14.00">size</text>
<text text-anchor="middle" x="611.84" y="-85.8" font-family="Times,serif" font-size="14.00">:2</text>
</g>
<!-- r5 -->
<g id="node7" class="node">
<title>r5</title>
<g id="a_node7"><a xlink:href="file:///home/runner/work/flow/flow/target/flowstdlib/control/compare_switch/compare_switch.html" xlink:title="compare_switch (#5)">
<ellipse fill="coral" stroke="black" cx="1580.84" cy="-202" rx="108.58" ry="18"/>
<text text-anchor="middle" x="1580.84" y="-198.3" font-family="Times,serif" font-size="14.00">compare_switch (#5)</text>
</a>
</g>
</g>
<!-- r1&#45;&gt;r5 -->
<g id="edge8" class="edge">
<title>r1:e&#45;&gt;r5:n</title>
<path fill="none" stroke="black" d="M919.84,-115C1122.45,-115 1170.96,-148.91 1372.84,-166 1407.95,-168.97 1665.19,-158.39 1689.39,-184 1700.37,-195.63 1700.65,-208.63 1689.39,-220 1682.45,-226.99 1614.5,-231.27 1589.78,-226.05"/>
<polygon fill="black" stroke="black" points="1591.27,-222.87 1580.84,-221 1587.83,-228.97 1591.27,-222.87"/>
<text text-anchor="middle" x="1568.34" y="-224.8" font-family="Times,serif" font-size="14.00">left</text>
</g>
<!-- r2&#45;&gt;r2 -->
<g id="edge21" class="edge">
<title>r2:e&#45;&gt;r2:n</title>
<path fill="none" stroke="black" d="M427.84,-115C451.69,-106 499.69,-106 499.69,-124 499.69,-140.91 407.99,-141.93 353.82,-134.53"/>
<polygon fill="black" stroke="black" points="354.26,-131.06 343.84,-133 353.2,-137.98 354.26,-131.06"/>
<text text-anchor="middle" x="359.84" y="-136.8" font-family="Times,serif" font-size="14.00">data</text>
</g>
<!-- r3 -->
<g id="node8" class="node">
<title>r3</title>
<g id="a_node8"><a xlink:href="file:///home/runner/work/flow/flow/target/flowstdlib/data/duplicate/duplicate.html" xlink:title="y&#45;duplicator (#3)">
<ellipse fill="coral" stroke="black" cx="1385.84" cy="-115" rx="89.88" ry="18"/>
<text text-anchor="middle" x="1385.84" y="-111.3" font-family="Times,serif" font-size="14.00">y&#45;duplicator (#3)</text>
</a>
</g>
</g>
<!-- r2&#45;&gt;r3 -->
<g id="edge22" class="edge">
<title>r2:e&#45;&gt;r3:ne</title>
<path fill="none" stroke="black" d="M428.84,-115C472.12,-115 475.51,-145.53 517.84,-154.5 687.85,-190.53 735.11,-158.27 908.84,-154.5 1014.84,-152.2 1447.84,-206.58 1410.32,-141.11"/>
<polygon fill="black" stroke="black" points="1412.82,-138.63 1403.84,-133 1407.35,-143 1412.82,-138.63"/>
<text text-anchor="middle" x="1382.34" y="-136.8" font-family="Times,serif" font-size="14.00">factor</text>
</g>
<!-- r11&#45;&gt;r11 -->
<g id="edge25" class="edge">
<title>r11:sw&#45;&gt;r11:n</title>
<path fill="none" stroke="black" d="M112.84,-98C69.56,-89 0,-89 0,-115.5 0,-140.08 74.5,-141.86 119.83,-134.8"/>
<polygon fill="black" stroke="black" points="120.62,-138.22 129.84,-133 119.38,-131.33 120.62,-138.22"/>
<text text-anchor="middle" x="103.84" y="-136.8" font-family="Times,serif" font-size="14.00">bounds</text>
<text text-anchor="middle" x="105.84" y="-86.8" font-family="Times,serif" font-size="14.00">:0</text>
</g>
<!-- r11&#45;&gt;r11 -->
<g id="edge26" class="edge">
<title>r11:s&#45;&gt;r11:nw</title>
<path fill="none" stroke="black" d="M129.84,-97C86.56,-88 0,-88 0,-114.5 0,-139.03 59.62,-140.85 102.81,-133.85"/>
<polygon fill="black" stroke="black" points="103.64,-137.25 112.84,-132 102.38,-130.37 103.64,-137.25"/>
<text text-anchor="middle" x="98.84" y="-120.8" font-family="Times,serif" font-size="14.00">size</text>
<text text-anchor="middle" x="122.84" y="-85.8" font-family="Times,serif" font-size="14.00">:2</text>
</g>
<!-- r12 -->
<g id="node14" class="node">
<title>r12</title>
<g id="a_node14"><a xlink:href="file:///home/runner/work/flow/flow/flowsamples/mandlebrot/escapes/escapes.html" xlink:title="p2v (#12)">
<ellipse fill="coral" stroke="black" cx="999.84" cy="-202" rx="57.39" ry="18"/>
<text text-anchor="middle" x="999.84" y="-198.3" font-family="Times,serif" font-size="14.00">p2v (#12)</text>
</a>
</g>
</g>
<!-- r11&#45;&gt;r12 -->
<g id="edge27" class="edge">
<title>r11:e&#45;&gt;r12:n</title>
<path fill="none" stroke="black" d="M188.84,-115C206.34,-115 207.02,-128.21 223.84,-133 268.12,-145.61 590.88,-163.4 636.84,-166 770.93,-173.57 804.72,-169.24 938.84,-176 965.14,-177.32 1039.06,-164.77 1057.04,-184 1067.96,-195.69 1068.25,-208.59 1057.04,-220 1050.36,-226.8 1021.53,-231.11 1007.53,-227.48"/>
<polygon fill="black" stroke="black" points="1009.75,-224.77 999.84,-221 1005.23,-230.12 1009.75,-224.77"/>
<text text-anchor="middle" x="960.34" y="-224.8" font-family="Times,serif" font-size="14.00">pixel_point</text>
</g>
<!-- initializerr1_1 -->
<!-- initializerr1_1&#45;&gt;r1 -->
<g id="edge7" class="edge">
<title>initializerr1_1&#45;&gt;r1:w</title>
<path fill="none" stroke="blue" stroke-dasharray="1,5" d="M1163.31,-186.81C1127.57,-175.21 1074.42,-159.41 1026.84,-151 1000.95,-146.42 809.25,-151.79 790.84,-133 788.65,-130.76 786.8,-127.53 785.83,-124.42"/>
<polygon fill="blue" stroke="blue" points="789.14,-125.57 789.84,-115 782.7,-122.83 789.14,-125.57"/>
<text text-anchor="middle" x="1095.84" y="-154.8" font-family="Times,serif" font-size="14.00">1</text>
</g>
<!-- r5&#45;&gt;r2 -->
<g id="edge9" class="edge">
<title>r5:s&#45;&gt;r2:ne</title>
<path fill="none" stroke="black" d="M1580.84,-183C1580.84,-157.84 1492.98,-177.05 1467.84,-176 1263.97,-167.47 1212.76,-173.42 1008.84,-166 992.04,-165.39 452.66,-148.21 371.76,-135.58"/>
<polygon fill="black" stroke="black" points="372.4,-132.13 361.84,-133 370.64,-138.91 372.4,-132.13"/>
<text text-anchor="middle" x="387.34" y="-136.8" font-family="Times,serif" font-size="14.00">control</text>
<text text-anchor="middle" x="1548.84" y="-171.8" font-family="Times,serif" font-size="14.00">/right&#45;lte</text>
</g>
<!-- r5&#45;&gt;r5 -->
<g id="edge11" class="edge">
<title>r5:e&#45;&gt;r5:n</title>
<path fill="none" stroke="black" d="M1689.84,-202C1713.39,-191.5 1761.39,-191.5 1761.39,-211 1761.39,-229.47 1653.38,-230.45 1590.84,-221.57"/>
<polygon fill="black" stroke="black" points="1591.27,-218.1 1580.84,-220 1590.18,-225.01 1591.27,-218.1"/>
<text text-anchor="middle" x="1593.34" y="-223.8" font-family="Times,serif" font-size="14.00">left</text>
<text text-anchor="middle" x="1714.34" y="-205.8" font-family="Times,serif" font-size="14.00">/left&#45;gt</text>
</g>
<!-- r5&#45;&gt;r3 -->
<g id="edge10" class="edge">
<title>r5:s&#45;&gt;r3:n</title>
<path fill="none" stroke="black" d="M1580.84,-183C1580.84,-97.37 1402.24,-211.79 1386.89,-143.36"/>
<polygon fill="black" stroke="black" points="1390.33,-142.6 1385.84,-133 1383.37,-143.3 1390.33,-142.6"/>
<text text-anchor="middle" x="1405.34" y="-136.8" font-family="Times,serif" font-size="14.00">value</text>
<text text-anchor="middle" x="1612.84" y="-171.8" font-family="Times,serif" font-size="14.00">/right&#45;lte</text>
</g>
<!-- r4 -->
<g id="node9" class="node">
<title>r4</title>
<g id="a_node9"><a xlink:href="file:///home/runner/work/flow/flow/target/flowstdlib/math/add/add.html" xlink:title="add (#4)">
<ellipse fill="coral" stroke="black" cx="1598.84" cy="-115" rx="51.19" ry="18"/>
<text text-anchor="middle" x="1598.84" y="-111.3" font-family="Times,serif" font-size="14.00">add (#4)</text>
</a>
</g>
</g>
<!-- r5&#45;&gt;r4 -->
<g id="edge12" class="edge">
<title>r5:se&#45;&gt;r4:n</title>
<path fill="none" stroke="black" d="M1598.84,-183C1611.98,-169.86 1603.15,-159.28 1599.91,-143.18"/>
<polygon fill="black" stroke="black" points="1603.36,-142.58 1598.84,-133 1596.4,-143.31 1603.36,-142.58"/>
<text text-anchor="middle" x="1591.84" y="-136.8" font-family="Times,serif" font-size="14.00">i1</text>
<text text-anchor="middle" x="1591.84" y="-186.8" font-family="Times,serif" font-size="14.00">:1</text>
</g>
<!-- r7 -->
<g id="node10" class="node">
<title>r7</title>
<g id="a_node10"><a xlink:href="file:///home/runner/work/flow/flow/target/flowstdlib/math/compare/compare.html" xlink:title="not&#45;last (#7)">
<ellipse fill="coral" stroke="black" cx="1791.84" cy="-115" rx="69.59" ry="18"/>
<text text-anchor="middle" x="1791.84" y="-111.3" font-family="Times,serif" font-size="14.00">not&#45;last (#7)</text>
</a>
</g>
</g>
<!-- r5&#45;&gt;r7 -->
<g id="edge13" class="edge">
<title>r5:sw&#45;&gt;r7:ne</title>
<path fill="none" stroke="black" d="M1562.84,-183C1538.34,-158.5 1684.08,-173.79 1717.84,-166 1755.87,-157.22 1824.62,-162.37 1815.92,-141.23"/>
<polygon fill="black" stroke="black" points="1818.6,-138.97 1809.84,-133 1812.97,-143.12 1818.6,-138.97"/>
<text text-anchor="middle" x="1791.84" y="-136.8" font-family="Times,serif" font-size="14.00">right</text>
<text text-anchor="middle" x="1555.84" y="-186.8" font-family="Times,serif" font-size="14.00">:0</text>
</g>
<!-- r5&#45;&gt;r7 -->
<g id="edge14" class="edge">
<title>r5:se&#45;&gt;r7:n</title>
<path fill="none" stroke="black" d="M1598.84,-183C1616.09,-165.75 1680.2,-157.01 1703.84,-151 1719.71,-146.97 1768.76,-150.87 1785.88,-141.38"/>
<polygon fill="black" stroke="black" points="1788.9,-143.18 1791.84,-133 1783.2,-139.12 1788.9,-143.18"/>
<text text-anchor="middle" x="1779.34" y="-136.8" font-family="Times,serif" font-size="14.00">left</text>
<text text-anchor="middle" x="1605.84" y="-186.8" font-family="Times,serif" font-size="14.00">:1</text>
</g>
<!-- r0 -->
<g id="node13" class="node">
<title>r0</title>
<g id="a_node13"><a xlink:href="file:///home/runner/work/flow/flow/target/flowstdlib/data/enumerate/enumerate.html" xlink:title="enumerate (#0)">
<ellipse fill="coral" stroke="black" cx="1195.84" cy="-42" rx="84.49" ry="18"/>
<text text-anchor="middle" x="1195.84" y="-38.3" font-family="Times,serif" font-size="14.00">enumerate (#0)</text>
</a>
</g>
</g>
<!-- r3&#45;&gt;r0 -->
<g id="edge23" class="edge">
<title>r3:e&#45;&gt;r0:n</title>
<path fill="none" stroke="black" d="M1476.84,-115C1484.86,-115 1481.29,-102.88 1475.84,-97 1435.76,-53.76 1223.87,-114.5 1198.36,-69.98"/>
<polygon fill="black" stroke="black" points="1201.68,-68.84 1195.84,-60 1194.89,-70.55 1201.68,-68.84"/>
</g>
<!-- r6 -->
<g id="node11" class="node">
<title>r6</title>
<g id="a_node11"><a xlink:href="file:///home/runner/work/flow/flow/target/flowstdlib/control/tap/tap.html" xlink:title="next&#45;tap (#6)">
<ellipse fill="coral" stroke="black" cx="1812.84" cy="-42" rx="72.59" ry="18"/>
<text text-anchor="middle" x="1812.84" y="-38.3" font-family="Times,serif" font-size="14.00">next&#45;tap (#6)</text>
</a>
</g>
</g>
<!-- r4&#45;&gt;r6 -->
<g id="edge15" class="edge">
<title>r4:e&#45;&gt;r6:n</title>
<path fill="none" stroke="black" d="M1651.84,-115C1670.87,-115 1668.62,-97.08 1685.84,-89 1734.78,-66.04 1803.04,-111.14 1811.89,-70.12"/>
<polygon fill="black" stroke="black" points="1815.39,-70.29 1812.84,-60 1808.42,-69.63 1815.39,-70.29"/>
<text text-anchor="middle" x="1796.84" y="-63.8" font-family="Times,serif" font-size="14.00">data</text>
</g>
<!-- r8 -->
<g id="node12" class="node">
<title>r8</title>
<g id="a_node12"><a xlink:href="file:///home/runner/work/flow/flow/target/flowstdlib/control/tap/tap.html" xlink:title="step&#45;tap (#8)">
<ellipse fill="coral" stroke="black" cx="1595.84" cy="-42" rx="72.29" ry="18"/>
<text text-anchor="middle" x="1595.84" y="-38.3" font-family="Times,serif" font-size="14.00">step&#45;tap (#8)</text>
</a>
</g>
</g>
<!-- r4&#45;&gt;r8 -->
<g id="edge16" class="edge">
<title>r4:se&#45;&gt;r8:n</title>
<path fill="none" stroke="black" d="M1615.84,-97C1626.48,-86.36 1607.05,-80.99 1599.05,-69.56"/>
<polygon fill="black" stroke="black" points="1602.34,-68.37 1595.84,-60 1595.71,-70.59 1602.34,-68.37"/>
<text text-anchor="middle" x="1579.84" y="-63.8" font-family="Times,serif" font-size="14.00">data</text>
<text text-anchor="middle" x="1608.84" y="-85.8" font-family="Times,serif" font-size="14.00">:1</text>
</g>
<!-- r7&#45;&gt;r6 -->
<g id="edge19" class="edge">
<title>r7:se&#45;&gt;r6:ne</title>
<path fill="none" stroke="black" d="M1809.84,-96C1819.67,-86.18 1833.94,-78.21 1834.93,-69.31"/>
<polygon fill="black" stroke="black" points="1838.07,-67.75 1830.84,-60 1831.66,-70.56 1838.07,-67.75"/>
<text text-anchor="middle" x="1856.34" y="-63.8" font-family="Times,serif" font-size="14.00">control</text>
<text text-anchor="middle" x="1801.84" y="-84.8" font-family="Times,serif" font-size="14.00">/lt</text>
</g>
<!-- r7&#45;&gt;r8 -->
<g id="edge20" class="edge">
<title>r7:se&#45;&gt;r8:ne</title>
<path fill="none" stroke="black" d="M1809.84,-96C1839.02,-66.83 1670.89,-87.94 1622.45,-65.65"/>
<polygon fill="black" stroke="black" points="1624.13,-62.56 1613.84,-60 1620.29,-68.41 1624.13,-62.56"/>
<text text-anchor="middle" x="1639.34" y="-63.8" font-family="Times,serif" font-size="14.00">control</text>
<text text-anchor="middle" x="1817.84" y="-84.8" font-family="Times,serif" font-size="14.00">/lt</text>
</g>
<!-- r6&#45;&gt;r5 -->
<g id="edge17" class="edge">
<title>r6:e&#45;&gt;r5:ne</title>
<path fill="none" stroke="black" d="M1886.84,-42C1927.58,-42 1920.43,-99.1 1897.84,-133 1842.18,-216.55 1787.71,-199.74 1689.39,-220 1672.6,-223.46 1629.06,-232.07 1607.72,-225.76"/>
<polygon fill="black" stroke="black" points="1609.31,-222.64 1598.84,-221 1606,-228.81 1609.31,-222.64"/>
<text text-anchor="middle" x="1616.84" y="-224.8" font-family="Times,serif" font-size="14.00">right</text>
</g>
<!-- r8&#45;&gt;r4 -->
<g id="edge18" class="edge">
<title>r8:e&#45;&gt;r4:ne</title>
<path fill="none" stroke="black" d="M1668.84,-42C1709.7,-42 1681.96,-106.32 1650.19,-132 1641.28,-139.2 1632.49,-142.24 1624.1,-138.75"/>
<polygon fill="black" stroke="black" points="1626.05,-135.84 1615.84,-133 1622.05,-141.59 1626.05,-135.84"/>
<text text-anchor="middle" x="1608.84" y="-136.8" font-family="Times,serif" font-size="14.00">i2</text>
</g>
<!-- r0&#45;&gt;r11 -->
<g id="edge24" class="edge">
<title>r0:e&#45;&gt;r11:ne</title>
<path fill="none" stroke="black" d="M1281.84,-42C1283.85,-42 1282.28,-58.6 1280.84,-60 1238.73,-100.95 276.75,-63.47 223.84,-89 201.36,-99.85 210.19,-121.18 187.69,-132 174.9,-138.15 165,-143.14 155.16,-138.9"/>
<polygon fill="black" stroke="black" points="157.03,-135.93 146.84,-133 152.97,-141.64 157.03,-135.93"/>
<text text-anchor="middle" x="164.34" y="-136.8" font-family="Times,serif" font-size="14.00">pixel</text>
</g>
<!-- r12&#45;&gt;r10 -->
<g id="edge28" class="edge">
<title>r12:se&#45;&gt;r10:n</title>
<path fill="none" stroke="black" d="M1016.84,-184C1046.22,-154.63 675.41,-174.42 624.58,-141.21"/>
<polygon fill="black" stroke="black" points="627.44,-139.19 618.84,-133 621.71,-143.2 627.44,-139.19"/>
<text text-anchor="middle" x="636.34" y="-136.8" font-family="Times,serif" font-size="14.00">pixel</text>
<text text-anchor="middle" x="1009.84" y="-172.8" font-family="Times,serif" font-size="14.00">/0</text>
</g>
<!-- r12&#45;&gt;r10 -->
<g id="edge29" class="edge">
<title>r12:s&#45;&gt;r10:ne</title>
<path fill="none" stroke="black" d="M999.84,-183C999.84,-107.43 907.67,-161.58 832.84,-151 813.47,-148.26 684.3,-148.39 646.19,-137.38"/>
<polygon fill="black" stroke="black" points="647.39,-134.07 636.84,-133 644.41,-140.41 647.39,-134.07"/>
<text text-anchor="middle" x="656.34" y="-136.8" font-family="Times,serif" font-size="14.00">value</text>
<text text-anchor="middle" x="992.84" y="-171.8" font-family="Times,serif" font-size="14.00">/1</text>
</g>
</g>
</svg>
