<?xml version="1.0" encoding="UTF-8" standalone="no"?>
<!DOCTYPE svg PUBLIC "-//W3C//DTD SVG 1.1//EN"
 "http://www.w3.org/Graphics/SVG/1.1/DTD/svg11.dtd">
<!-- Generated by graphviz version 2.43.0 (0)
 -->
<!-- Title: mandlebrot Pages: 1 -->
<svg width="1969pt" height="305pt"
 viewBox="0.00 0.00 1968.84 305.00" xmlns="http://www.w3.org/2000/svg" xmlns:xlink="http://www.w3.org/1999/xlink">
<g id="graph0" class="graph" transform="scale(1 1) rotate(0) translate(4 301)">
<title>mandlebrot</title>
<polygon fill="white" stroke="transparent" points="-4,4 -4,-301 1964.84,-301 1964.84,4 -4,4"/>
<text text-anchor="middle" x="980.42" y="-281.8" font-family="Times,serif" font-size="14.00">/mandlebrot</text>
<g id="clust1" class="cluster">
<title>cluster_parse_args</title>
<polygon fill="none" stroke="black" points="63.84,-88 63.84,-235 927.84,-235 927.84,-88 63.84,-88"/>
<text text-anchor="middle" x="495.84" y="-219.8" font-family="Times,serif" font-size="14.00">/mandlebrot/parse_args</text>
</g>
<g id="clust2" class="cluster">
<title>cluster_generate_pixels</title>
<polygon fill="none" stroke="black" points="1104.84,-8 1104.84,-266 1952.84,-266 1952.84,-8 1104.84,-8"/>
<text text-anchor="middle" x="1528.84" y="-250.8" font-family="Times,serif" font-size="14.00">/mandlebrot/generate_pixels</text>
</g>
<g id="clust3" class="cluster">
<title>cluster_y_sequence</title>
<polygon fill="none" stroke="black" points="1288.84,-16 1288.84,-235 1944.84,-235 1944.84,-16 1288.84,-16"/>
<text text-anchor="middle" x="1616.84" y="-219.8" font-family="Times,serif" font-size="14.00">/mandlebrot/generate_pixels/y&#45;sequence</text>
</g>
<g id="clust4" class="cluster">
<title>cluster_render</title>
<polygon fill="none" stroke="black" points="935.84,-160 935.84,-235 1091.84,-235 1091.84,-160 935.84,-160"/>
<text text-anchor="middle" x="1013.84" y="-219.8" font-family="Times,serif" font-size="14.00">/mandlebrot/render</text>
</g>
<!-- r9 -->
<g id="node1" class="node">
<title>r9</title>
<g id="a_node1"><a xlink:href="file:///home/runner/work/flow/flow/flowr/src/cli/args/get.html" xlink:title="get (#9)">
<ellipse fill="coral" stroke="black" cx="300.84" cy="-186" rx="49.29" ry="18"/>
<text text-anchor="middle" x="300.84" y="-182.3" font-family="Times,serif" font-size="14.00">get (#9)</text>
</a>
</g>
</g>
<!-- r10 -->
<g id="node2" class="node">
<title>r10</title>
<g id="a_node2"><a xlink:href="file:///home/runner/work/flow/flow/flowr/src/cli/image/image_buffer.html" xlink:title="image_buffer (#10)">
<ellipse fill="coral" stroke="black" cx="360.84" cy="-114" rx="100.98" ry="18"/>
<text text-anchor="middle" x="360.84" y="-110.3" font-family="Times,serif" font-size="14.00">image_buffer (#10)</text>
</a>
</g>
</g>
<!-- r9&#45;&gt;r10 -->
<g id="edge1" class="edge">
<title>r9:s&#45;&gt;r10:w</title>
<path fill="none" stroke="black" d="M300.84,-167C300.84,-143.04 270.48,-153.47 259.84,-132 258.62,-129.53 257.18,-126.63 256.13,-123.89"/>
<polygon fill="black" stroke="black" points="259.57,-124.57 258.84,-114 252.82,-122.72 259.57,-124.57"/>
<text text-anchor="middle" x="228.34" y="-117.8" font-family="Times,serif" font-size="14.00">filename</text>
<text text-anchor="middle" x="270.34" y="-155.8" font-family="Times,serif" font-size="14.00">/string/1</text>
</g>
<!-- r9&#45;&gt;r10 -->
<g id="edge5" class="edge">
<title>r9:s&#45;&gt;r10:nw</title>
<path fill="none" stroke="black" d="M300.84,-167C300.84,-146.31 318.84,-147.94 334.8,-138.27"/>
<polygon fill="black" stroke="black" points="337.1,-140.9 342.84,-132 332.8,-135.38 337.1,-140.9"/>
<text text-anchor="middle" x="328.84" y="-135.8" font-family="Times,serif" font-size="14.00">size</text>
<text text-anchor="middle" x="324.84" y="-155.8" font-family="Times,serif" font-size="14.00">/json/2</text>
</g>
<!-- r1 -->
<g id="node3" class="node">
<title>r1</title>
<g id="a_node3"><a xlink:href="file:///home/runner/.flow/lib/flowstdlib/math/subtract/subtract.html" xlink:title="height (#1)">
<ellipse fill="coral" stroke="black" cx="855.84" cy="-114" rx="63.89" ry="18"/>
<text text-anchor="middle" x="855.84" y="-110.3" font-family="Times,serif" font-size="14.00">height (#1)</text>
</a>
</g>
</g>
<!-- r9&#45;&gt;r1 -->
<g id="edge2" class="edge">
<title>r9:s&#45;&gt;r1:n</title>
<path fill="none" stroke="black" d="M300.84,-167C300.84,-108.59 796.8,-184.55 851.05,-140.84"/>
<polygon fill="black" stroke="black" points="854.15,-142.46 855.84,-132 848,-139.12 854.15,-142.46"/>
<text text-anchor="middle" x="848.84" y="-135.8" font-family="Times,serif" font-size="14.00">i1</text>
<text text-anchor="middle" x="331.34" y="-170.8" font-family="Times,serif" font-size="14.00">/json/2/1</text>
</g>
<!-- r2 -->
<g id="node4" class="node">
<title>r2</title>
<g id="a_node4"><a xlink:href="file:///home/runner/.flow/lib/flowstdlib/control/join/join.html" xlink:title="width&#45;gate (#2)">
<ellipse fill="coral" stroke="black" cx="617.84" cy="-114" rx="83.69" ry="18"/>
<text text-anchor="middle" x="617.84" y="-110.3" font-family="Times,serif" font-size="14.00">width&#45;gate (#2)</text>
</a>
</g>
</g>
<!-- r9&#45;&gt;r2 -->
<g id="edge3" class="edge">
<title>r9:sw&#45;&gt;r2:n</title>
<path fill="none" stroke="black" d="M283.84,-168C180.85,-65 596.71,-270.81 617.07,-142.29"/>
<polygon fill="black" stroke="black" points="620.59,-142.23 617.84,-132 613.61,-141.71 620.59,-142.23"/>
<text text-anchor="middle" x="601.84" y="-135.8" font-family="Times,serif" font-size="14.00">data</text>
<text text-anchor="middle" x="253.34" y="-171.8" font-family="Times,serif" font-size="14.00">/json/2/0</text>
</g>
<!-- r11 -->
<g id="node5" class="node">
<title>r11</title>
<g id="a_node5"><a xlink:href="file:///home/runner/work/flow/flow/flowsamples/mandlebrot/pixel_to_point/pixel_to_point.html" xlink:title="p2p (#11)">
<ellipse fill="coral" stroke="black" cx="129.84" cy="-114" rx="57.69" ry="18"/>
<text text-anchor="middle" x="129.84" y="-110.3" font-family="Times,serif" font-size="14.00">p2p (#11)</text>
</a>
</g>
</g>
<!-- r9&#45;&gt;r11 -->
<g id="edge4" class="edge">
<title>r9:s&#45;&gt;r11:nw</title>
<path fill="none" stroke="black" d="M300.84,-167C300.84,-86.16 76.38,-181.81 106.18,-139.63"/>
<polygon fill="black" stroke="black" points="108.9,-141.83 112.84,-132 103.63,-137.23 108.9,-141.83"/>
<text text-anchor="middle" x="98.84" y="-135.8" font-family="Times,serif" font-size="14.00">size</text>
<text text-anchor="middle" x="276.84" y="-155.8" font-family="Times,serif" font-size="14.00">/json/2</text>
</g>
<!-- r9&#45;&gt;r11 -->
<g id="edge6" class="edge">
<title>r9:se&#45;&gt;r11:n</title>
<path fill="none" stroke="black" d="M317.84,-168C375.42,-110.43 150.6,-208 131.18,-141.92"/>
<polygon fill="black" stroke="black" points="134.64,-141.45 129.84,-132 127.71,-142.38 134.64,-141.45"/>
<text text-anchor="middle" x="155.84" y="-135.8" font-family="Times,serif" font-size="14.00">bounds</text>
<text text-anchor="middle" x="341.84" y="-156.8" font-family="Times,serif" font-size="14.00">/json/3</text>
</g>
<!-- r10&#45;&gt;r10 -->
<g id="edge30" class="edge">
<title>r10:sw&#45;&gt;r10:w</title>
<path fill="none" stroke="black" d="M342.84,-96C285.26,-78 188.1,-78 188.1,-105 188.1,-129.05 226.18,-131.68 251.28,-119.25"/>
<polygon fill="black" stroke="black" points="253.15,-122.21 259.84,-114 249.49,-116.24 253.15,-122.21"/>
<text text-anchor="middle" x="229.34" y="-102.8" font-family="Times,serif" font-size="14.00">filename</text>
<text text-anchor="middle" x="335.84" y="-84.8" font-family="Times,serif" font-size="14.00">:3</text>
</g>
<!-- r10&#45;&gt;r10 -->
<g id="edge31" class="edge">
<title>r10:s&#45;&gt;r10:nw</title>
<path fill="none" stroke="black" d="M360.84,-96C303.26,-78 188.1,-78 188.1,-114 188.1,-148.03 274.93,-149.89 333.07,-134.79"/>
<polygon fill="black" stroke="black" points="334.19,-138.11 342.84,-132 332.27,-131.38 334.19,-138.11"/>
<text text-anchor="middle" x="356.84" y="-135.8" font-family="Times,serif" font-size="14.00">size</text>
<text text-anchor="middle" x="353.84" y="-84.8" font-family="Times,serif" font-size="14.00">:2</text>
</g>
<!-- r5 -->
<g id="node7" class="node">
<title>r5</title>
<g id="a_node7"><a xlink:href="file:///home/runner/.flow/lib/flowstdlib/control/compare_switch/compare_switch.html" xlink:title="compare_switch (#5)">
<ellipse fill="coral" stroke="black" cx="1581.84" cy="-186" rx="108.58" ry="18"/>
<text text-anchor="middle" x="1581.84" y="-182.3" font-family="Times,serif" font-size="14.00">compare_switch (#5)</text>
</a>
</g>
</g>
<!-- r1&#45;&gt;r5 -->
<g id="edge8" class="edge">
<title>r1:e&#45;&gt;r5:n</title>
<path fill="none" stroke="black" d="M920.84,-114C942.27,-114 1675.77,-152.33 1690.39,-168 1701.3,-179.7 1701.65,-192.63 1690.39,-204 1675.93,-218.59 1607.38,-226.55 1587.35,-213.69"/>
<polygon fill="black" stroke="black" points="1590.15,-211.57 1581.84,-205 1584.24,-215.32 1590.15,-211.57"/>
<text text-anchor="middle" x="1569.34" y="-208.8" font-family="Times,serif" font-size="14.00">left</text>
</g>
<!-- r2&#45;&gt;r2 -->
<g id="edge21" class="edge">
<title>r2:e&#45;&gt;r2:n</title>
<path fill="none" stroke="black" d="M701.84,-114C725.69,-96 773.69,-96 773.69,-123 773.69,-148.42 681.61,-149.91 627.48,-134.98"/>
<polygon fill="black" stroke="black" points="628.43,-131.61 617.84,-132 626.37,-138.3 628.43,-131.61"/>
<text text-anchor="middle" x="633.84" y="-135.8" font-family="Times,serif" font-size="14.00">data</text>
</g>
<!-- r3 -->
<g id="node8" class="node">
<title>r3</title>
<g id="a_node8"><a xlink:href="file:///home/runner/.flow/lib/flowstdlib/data/duplicate/duplicate.html" xlink:title="y&#45;duplicator (#3)">
<ellipse fill="coral" stroke="black" cx="1386.84" cy="-114" rx="89.88" ry="18"/>
<text text-anchor="middle" x="1386.84" y="-110.3" font-family="Times,serif" font-size="14.00">y&#45;duplicator (#3)</text>
</a>
</g>
</g>
<!-- r2&#45;&gt;r3 -->
<g id="edge22" class="edge">
<title>r2:e&#45;&gt;r3:ne</title>
<path fill="none" stroke="black" d="M702.84,-114C744.88,-114 750.43,-138.78 791.84,-146 847.75,-155.74 1342.74,-169.2 1401.15,-141.46"/>
<polygon fill="black" stroke="black" points="1404.47,-142.59 1404.84,-132 1397.95,-140.04 1404.47,-142.59"/>
<text text-anchor="middle" x="1383.34" y="-135.8" font-family="Times,serif" font-size="14.00">factor</text>
</g>
<!-- r11&#45;&gt;r11 -->
<g id="edge25" class="edge">
<title>r11:sw&#45;&gt;r11:n</title>
<path fill="none" stroke="black" d="M112.84,-97C69.56,-79 0,-79 0,-114.5 0,-147.57 75.13,-149.83 120.4,-135.43"/>
<polygon fill="black" stroke="black" points="121.64,-138.71 129.84,-132 119.25,-132.13 121.64,-138.71"/>
<text text-anchor="middle" x="103.84" y="-135.8" font-family="Times,serif" font-size="14.00">bounds</text>
<text text-anchor="middle" x="116.34" y="-85.8" font-family="Times,serif" font-size="14.00">:0</text>
</g>
<!-- r11&#45;&gt;r11 -->
<g id="edge26" class="edge">
<title>r11:s&#45;&gt;r11:nw</title>
<path fill="none" stroke="black" d="M129.84,-96C86.56,-78 0,-78 0,-113.5 0,-146.5 60.12,-148.82 103.36,-134.52"/>
<polygon fill="black" stroke="black" points="104.69,-137.76 112.84,-131 102.25,-131.2 104.69,-137.76"/>
<text text-anchor="middle" x="98.84" y="-119.8" font-family="Times,serif" font-size="14.00">size</text>
<text text-anchor="middle" x="136.84" y="-84.8" font-family="Times,serif" font-size="14.00">:2</text>
</g>
<!-- r12 -->
<g id="node14" class="node">
<title>r12</title>
<g id="a_node14"><a xlink:href="file:///home/runner/work/flow/flow/flowsamples/mandlebrot/escapes/escapes.html" xlink:title="p2v (#12)">
<ellipse fill="coral" stroke="black" cx="1000.84" cy="-186" rx="57.39" ry="18"/>
<text text-anchor="middle" x="1000.84" y="-182.3" font-family="Times,serif" font-size="14.00">p2v (#12)</text>
</a>
</g>
</g>
<!-- r11&#45;&gt;r12 -->
<g id="edge27" class="edge">
<title>r11:e&#45;&gt;r12:n</title>
<path fill="none" stroke="black" d="M188.84,-114C206.34,-114 206.93,-127.55 223.84,-132 377.85,-172.48 780.84,-151.51 939.84,-160 992.42,-162.81 1022.09,-129.53 1058.04,-168 1068.96,-179.69 1069.25,-192.59 1058.04,-204 1043.14,-219.16 1013.18,-227.44 1003.76,-214.9"/>
<polygon fill="black" stroke="black" points="1007.02,-213.61 1000.84,-205 1000.31,-215.58 1007.02,-213.61"/>
<text text-anchor="middle" x="961.34" y="-208.8" font-family="Times,serif" font-size="14.00">pixel_point</text>
</g>
<!-- initializerr1_1 -->
<!-- initializerr1_1&#45;&gt;r1 -->
<g id="edge7" class="edge">
<title>initializerr1_1&#45;&gt;r1:w</title>
<path fill="none" stroke="blue" stroke-dasharray="1,5" d="M1160.28,-171.47C1144.44,-167.21 1126.48,-162.88 1109.84,-160 1074.89,-153.95 816.52,-157.48 791.84,-132 789.67,-129.75 787.82,-126.51 786.85,-123.4"/>
<polygon fill="blue" stroke="blue" points="790.15,-124.57 790.84,-114 783.71,-121.83 790.15,-124.57"/>
<text text-anchor="middle" x="1155.28" y="-160.27" font-family="Times,serif" font-size="14.00">1</text>
</g>
<!-- r5&#45;&gt;r2 -->
<g id="edge9" class="edge">
<title>r5:s&#45;&gt;r2:ne</title>
<path fill="none" stroke="black" d="M1581.84,-167C1581.84,-116.62 747.76,-164.78 645.01,-136.21"/>
<polygon fill="black" stroke="black" points="646.39,-133 635.84,-132 643.47,-139.36 646.39,-133"/>
<text text-anchor="middle" x="661.34" y="-135.8" font-family="Times,serif" font-size="14.00">control</text>
<text text-anchor="middle" x="1549.84" y="-155.8" font-family="Times,serif" font-size="14.00">/right&#45;lte</text>
</g>
<!-- r5&#45;&gt;r5 -->
<g id="edge11" class="edge">
<title>r5:e&#45;&gt;r5:n</title>
<path fill="none" stroke="black" d="M1690.84,-186C1714.39,-168 1762.39,-168 1762.39,-195 1762.39,-220.58 1654.38,-221.92 1591.84,-206.7"/>
<polygon fill="black" stroke="black" points="1592.41,-203.22 1581.84,-204 1590.59,-209.98 1592.41,-203.22"/>
<text text-anchor="middle" x="1594.34" y="-207.8" font-family="Times,serif" font-size="14.00">left</text>
<text text-anchor="middle" x="1715.34" y="-189.8" font-family="Times,serif" font-size="14.00">/left&#45;gt</text>
</g>
<!-- r5&#45;&gt;r3 -->
<g id="edge10" class="edge">
<title>r5:s&#45;&gt;r3:n</title>
<path fill="none" stroke="black" d="M1581.84,-167C1581.84,-126.76 1418.92,-167.62 1390.92,-141.32"/>
<polygon fill="black" stroke="black" points="1394.06,-139.76 1386.84,-132 1387.64,-142.56 1394.06,-139.76"/>
<text text-anchor="middle" x="1406.34" y="-135.8" font-family="Times,serif" font-size="14.00">value</text>
<text text-anchor="middle" x="1613.84" y="-155.8" font-family="Times,serif" font-size="14.00">/right&#45;lte</text>
</g>
<!-- r4 -->
<g id="node9" class="node">
<title>r4</title>
<g id="a_node9"><a xlink:href="file:///home/runner/.flow/lib/flowstdlib/math/add/add.html" xlink:title="add (#4)">
<ellipse fill="coral" stroke="black" cx="1599.84" cy="-114" rx="51.19" ry="18"/>
<text text-anchor="middle" x="1599.84" y="-110.3" font-family="Times,serif" font-size="14.00">add (#4)</text>
</a>
</g>
</g>
<!-- r5&#45;&gt;r4 -->
<g id="edge12" class="edge">
<title>r5:se&#45;&gt;r4:n</title>
<path fill="none" stroke="black" d="M1599.84,-167C1608.18,-158.66 1603.88,-151.8 1601.31,-142.19"/>
<polygon fill="black" stroke="black" points="1604.73,-141.4 1599.84,-132 1597.81,-142.4 1604.73,-141.4"/>
<text text-anchor="middle" x="1592.84" y="-135.8" font-family="Times,serif" font-size="14.00">i1</text>
<text text-anchor="middle" x="1592.84" y="-170.8" font-family="Times,serif" font-size="14.00">:1</text>
</g>
<!-- r7 -->
<g id="node10" class="node">
<title>r7</title>
<g id="a_node10"><a xlink:href="file:///home/runner/.flow/lib/flowstdlib/math/compare/compare.html" xlink:title="not&#45;last (#7)">
<ellipse fill="coral" stroke="black" cx="1792.84" cy="-114" rx="69.59" ry="18"/>
<text text-anchor="middle" x="1792.84" y="-110.3" font-family="Times,serif" font-size="14.00">not&#45;last (#7)</text>
</a>
</g>
</g>
<!-- r5&#45;&gt;r7 -->
<g id="edge13" class="edge">
<title>r5:sw&#45;&gt;r7:ne</title>
<path fill="none" stroke="black" d="M1563.84,-167C1488.35,-91.51 1859.94,-201.64 1817.63,-139.92"/>
<polygon fill="black" stroke="black" points="1820.01,-137.32 1810.84,-132 1814.69,-141.87 1820.01,-137.32"/>
<text text-anchor="middle" x="1792.84" y="-135.8" font-family="Times,serif" font-size="14.00">right</text>
<text text-anchor="middle" x="1556.84" y="-170.8" font-family="Times,serif" font-size="14.00">:0</text>
</g>
<!-- r5&#45;&gt;r7 -->
<g id="edge14" class="edge">
<title>r5:se&#45;&gt;r7:n</title>
<path fill="none" stroke="black" d="M1599.84,-167C1658.84,-108.01 1781.69,-209.72 1792.13,-142.15"/>
<polygon fill="black" stroke="black" points="1795.64,-142.22 1792.84,-132 1788.65,-141.73 1795.64,-142.22"/>
<text text-anchor="middle" x="1780.34" y="-135.8" font-family="Times,serif" font-size="14.00">left</text>
<text text-anchor="middle" x="1606.84" y="-170.8" font-family="Times,serif" font-size="14.00">:1</text>
</g>
<!-- r0 -->
<g id="node13" class="node">
<title>r0</title>
<g id="a_node13"><a xlink:href="file:///home/runner/.flow/lib/flowstdlib/data/enumerate/enumerate.html" xlink:title="enumerate (#0)">
<ellipse fill="coral" stroke="black" cx="1196.84" cy="-42" rx="84.49" ry="18"/>
<text text-anchor="middle" x="1196.84" y="-38.3" font-family="Times,serif" font-size="14.00">enumerate (#0)</text>
</a>
</g>
</g>
<!-- r3&#45;&gt;r0 -->
<g id="edge23" class="edge">
<title>r3:e&#45;&gt;r0:n</title>
<path fill="none" stroke="black" d="M1477.84,-114C1485.86,-114 1482.3,-101.87 1476.84,-96 1436.71,-52.85 1224.86,-114.37 1199.36,-69.96"/>
<polygon fill="black" stroke="black" points="1202.69,-68.84 1196.84,-60 1195.9,-70.55 1202.69,-68.84"/>
</g>
<!-- r6 -->
<g id="node11" class="node">
<title>r6</title>
<g id="a_node11"><a xlink:href="file:///home/runner/.flow/lib/flowstdlib/control/tap/tap.html" xlink:title="next&#45;tap (#6)">
<ellipse fill="coral" stroke="black" cx="1812.84" cy="-42" rx="72.59" ry="18"/>
<text text-anchor="middle" x="1812.84" y="-38.3" font-family="Times,serif" font-size="14.00">next&#45;tap (#6)</text>
</a>
</g>
</g>
<!-- r4&#45;&gt;r6 -->
<g id="edge15" class="edge">
<title>r4:e&#45;&gt;r6:n</title>
<path fill="none" stroke="black" d="M1652.84,-114C1671.87,-114 1669.6,-96.03 1686.84,-88 1735.4,-65.39 1803.11,-110.59 1811.89,-70.02"/>
<polygon fill="black" stroke="black" points="1815.38,-70.29 1812.84,-60 1808.42,-69.62 1815.38,-70.29"/>
<text text-anchor="middle" x="1796.84" y="-63.8" font-family="Times,serif" font-size="14.00">data</text>
</g>
<!-- r8 -->
<g id="node12" class="node">
<title>r8</title>
<g id="a_node12"><a xlink:href="file:///home/runner/.flow/lib/flowstdlib/control/tap/tap.html" xlink:title="step&#45;tap (#8)">
<ellipse fill="coral" stroke="black" cx="1595.84" cy="-42" rx="72.29" ry="18"/>
<text text-anchor="middle" x="1595.84" y="-38.3" font-family="Times,serif" font-size="14.00">step&#45;tap (#8)</text>
</a>
</g>
</g>
<!-- r4&#45;&gt;r8 -->
<g id="edge16" class="edge">
<title>r4:se&#45;&gt;r8:n</title>
<path fill="none" stroke="black" d="M1616.84,-96C1627.28,-85.56 1607.75,-80.66 1599.38,-69.73"/>
<polygon fill="black" stroke="black" points="1602.55,-68.2 1595.84,-60 1595.97,-70.59 1602.55,-68.2"/>
<text text-anchor="middle" x="1579.84" y="-63.8" font-family="Times,serif" font-size="14.00">data</text>
<text text-anchor="middle" x="1609.84" y="-84.8" font-family="Times,serif" font-size="14.00">:1</text>
</g>
<!-- r7&#45;&gt;r6 -->
<g id="edge19" class="edge">
<title>r7:se&#45;&gt;r6:ne</title>
<path fill="none" stroke="black" d="M1810.84,-95C1820.25,-85.6 1833.69,-77.85 1834.81,-69.3"/>
<polygon fill="black" stroke="black" points="1837.99,-67.82 1830.84,-60 1831.55,-70.57 1837.99,-67.82"/>
<text text-anchor="middle" x="1856.34" y="-63.8" font-family="Times,serif" font-size="14.00">control</text>
<text text-anchor="middle" x="1802.84" y="-83.8" font-family="Times,serif" font-size="14.00">/lt</text>
</g>
<!-- r7&#45;&gt;r8 -->
<g id="edge20" class="edge">
<title>r7:se&#45;&gt;r8:ne</title>
<path fill="none" stroke="black" d="M1810.84,-95C1871.27,-34.58 1691.72,-116.02 1621.8,-66.68"/>
<polygon fill="black" stroke="black" points="1623.75,-63.75 1613.84,-60 1619.25,-69.11 1623.75,-63.75"/>
<text text-anchor="middle" x="1639.34" y="-63.8" font-family="Times,serif" font-size="14.00">control</text>
<text text-anchor="middle" x="1818.84" y="-83.8" font-family="Times,serif" font-size="14.00">/lt</text>
</g>
<!-- r6&#45;&gt;r5 -->
<g id="edge17" class="edge">
<title>r6:e&#45;&gt;r5:ne</title>
<path fill="none" stroke="black" d="M1886.84,-42C1927.2,-42 1922.26,-99.14 1898.84,-132 1876.7,-163.08 1663.87,-230.63 1608.68,-210.28"/>
<polygon fill="black" stroke="black" points="1610.22,-207.13 1599.84,-205 1606.63,-213.13 1610.22,-207.13"/>
<text text-anchor="middle" x="1617.84" y="-208.8" font-family="Times,serif" font-size="14.00">right</text>
</g>
<!-- r8&#45;&gt;r4 -->
<g id="edge18" class="edge">
<title>r8:e&#45;&gt;r4:ne</title>
<path fill="none" stroke="black" d="M1668.84,-42C1709.17,-42 1682.43,-105.49 1651.19,-131 1642.32,-138.24 1633.51,-141.26 1625.1,-137.76"/>
<polygon fill="black" stroke="black" points="1627.05,-134.85 1616.84,-132 1623.05,-140.59 1627.05,-134.85"/>
<text text-anchor="middle" x="1609.84" y="-135.8" font-family="Times,serif" font-size="14.00">i2</text>
</g>
<!-- r0&#45;&gt;r11 -->
<g id="edge24" class="edge">
<title>r0:e&#45;&gt;r11:ne</title>
<path fill="none" stroke="black" d="M1282.84,-42C1284.85,-42 1283.28,-58.6 1281.84,-60 1239.67,-100.97 276.81,-62.47 223.84,-88 201.35,-98.84 210.19,-120.18 187.69,-131 174.9,-137.15 165,-142.14 155.16,-137.9"/>
<polygon fill="black" stroke="black" points="157.03,-134.93 146.84,-132 152.97,-140.64 157.03,-134.93"/>
<text text-anchor="middle" x="164.34" y="-135.8" font-family="Times,serif" font-size="14.00">pixel</text>
</g>
<!-- r12&#45;&gt;r10 -->
<g id="edge28" class="edge">
<title>r12:se&#45;&gt;r10:n</title>
<path fill="none" stroke="black" d="M1017.84,-168C1042.03,-143.82 445.92,-165.37 368.98,-138.31"/>
<polygon fill="black" stroke="black" points="370.89,-135.37 360.84,-132 366.6,-140.9 370.89,-135.37"/>
<text text-anchor="middle" x="378.34" y="-135.8" font-family="Times,serif" font-size="14.00">pixel</text>
<text text-anchor="middle" x="1010.84" y="-156.8" font-family="Times,serif" font-size="14.00">/0</text>
</g>
<!-- r12&#45;&gt;r10 -->
<g id="edge29" class="edge">
<title>r12:s&#45;&gt;r10:ne</title>
<path fill="none" stroke="black" d="M1000.84,-167C1000.84,-100.62 473.84,-174.38 387.44,-137.38"/>
<polygon fill="black" stroke="black" points="389.18,-134.34 378.84,-132 385.47,-140.27 389.18,-134.34"/>
<text text-anchor="middle" x="398.34" y="-135.8" font-family="Times,serif" font-size="14.00">value</text>
<text text-anchor="middle" x="993.84" y="-155.8" font-family="Times,serif" font-size="14.00">/1</text>
</g>
</g>
</svg>
