<?xml version="1.0" encoding="UTF-8" standalone="no"?>
<!DOCTYPE svg PUBLIC "-//W3C//DTD SVG 1.1//EN"
 "http://www.w3.org/Graphics/SVG/1.1/DTD/svg11.dtd">
<!-- Generated by graphviz version 2.43.0 (0)
 -->
<!-- Title: generate_pixels Pages: 1 -->
<svg width="575pt" height="792pt"
 viewBox="28.80 28.80 545.91 763.02" xmlns="http://www.w3.org/2000/svg" xmlns:xlink="http://www.w3.org/1999/xlink">
<g id="page0,1_graph0" class="graph" transform="scale(1 1) rotate(0) translate(32.8 759.02)">
<title>generate_pixels</title>
<polygon fill="white" stroke="transparent" points="-4,4 -4,-730.22 513.11,-730.22 513.11,4 -4,4"/>
<text text-anchor="middle" x="254.56" y="-711.02" font-family="Times,serif" font-size="14.00">generate_pixels</text>
<!-- /mandlebrot/generate_pixels/size -->
<g id="node1" class="node">
<title>/mandlebrot/generate_pixels/size</title>
<polygon fill="white" stroke="black" points="282.91,-690.78 247.71,-703.22 212.51,-690.78 212.55,-670.66 282.88,-670.66 282.91,-690.78"/>
<text text-anchor="middle" x="247.71" y="-681.52" font-family="Times,serif" font-size="14.00">size</text>
</g>
<!-- /mandlebrot/generate_pixels/height -->
<g id="node3" class="node">
<title>/mandlebrot/generate_pixels/height</title>
<g id="a_node3"><a xlink:href="../../flowstdlib/math/subtract/subtract.html" xlink:title="height\n(subtract)">
<ellipse fill="coral" stroke="black" cx="309.71" cy="-535.35" rx="61.54" ry="26.74"/>
<text text-anchor="middle" x="309.71" y="-539.15" font-family="Times,serif" font-size="14.00">height</text>
<text text-anchor="middle" x="309.71" y="-524.15" font-family="Times,serif" font-size="14.00">(subtract)</text>
</a>
</g>
</g>
<!-- /mandlebrot/generate_pixels/size&#45;&gt;/mandlebrot/generate_pixels/height -->
<g id="edge2" class="edge">
<title>/mandlebrot/generate_pixels/size:s&#45;&gt;/mandlebrot/generate_pixels/height:ne</title>
<path fill="none" stroke="black" d="M247.71,-669.22C247.71,-617.47 444.73,-687.35 479.71,-649.22 548.54,-574.21 434.98,-651.07 342.2,-568.42"/>
<polygon fill="black" stroke="black" points="344.39,-565.67 334.71,-561.35 339.58,-570.76 344.39,-565.67"/>
<text text-anchor="middle" x="269.03" y="-653.43" font-family="Times,serif" font-size="14.00">[1]</text>
<text text-anchor="middle" x="327.71" y="-565.15" font-family="Times,serif" font-size="14.00">i1</text>
</g>
<!-- /mandlebrot/generate_pixels/width&#45;gate -->
<g id="node6" class="node">
<title>/mandlebrot/generate_pixels/width&#45;gate</title>
<g id="a_node6"><a xlink:href="../../flowstdlib/control/join/join.html" xlink:title="width&#45;gate\n(join)">
<ellipse fill="coral" stroke="black" cx="129.71" cy="-263.61" rx="65.52" ry="26.74"/>
<text text-anchor="middle" x="129.71" y="-267.41" font-family="Times,serif" font-size="14.00">width&#45;gate</text>
<text text-anchor="middle" x="129.71" y="-252.41" font-family="Times,serif" font-size="14.00">(join)</text>
</a>
</g>
</g>
<!-- /mandlebrot/generate_pixels/size&#45;&gt;/mandlebrot/generate_pixels/width&#45;gate -->
<g id="edge5" class="edge">
<title>/mandlebrot/generate_pixels/size:s&#45;&gt;/mandlebrot/generate_pixels/width&#45;gate:nw</title>
<path fill="none" stroke="black" d="M247.71,-669.22C247.71,-643.35 35.25,-666.18 15.71,-649.22 -5.13,-631.13 1.71,-616.32 1.71,-588.72 1.71,-588.72 1.71,-588.72 1.71,-398.48 1.71,-335.38 51.87,-336.4 97.2,-296.65"/>
<polygon fill="black" stroke="black" points="99.8,-299 104.71,-289.61 95.02,-293.89 99.8,-299"/>
<text text-anchor="middle" x="164.01" y="-659.71" font-family="Times,serif" font-size="14.00">[0]</text>
<text text-anchor="middle" x="88.71" y="-293.41" font-family="Times,serif" font-size="14.00">data</text>
</g>
<!-- /mandlebrot/generate_pixels/pixels -->
<g id="node2" class="node">
<title>/mandlebrot/generate_pixels/pixels</title>
<polygon fill="black" stroke="black" points="414.41,-12.44 461.71,0 509.01,-12.44 508.97,-32.56 414.46,-32.56 414.41,-12.44"/>
<text text-anchor="middle" x="461.71" y="-14.3" font-family="Times,serif" font-size="14.00" fill="white">pixels</text>
</g>
<!-- /mandlebrot/generate_pixels/y&#45;sequence -->
<g id="node5" class="node">
<title>/mandlebrot/generate_pixels/y&#45;sequence</title>
<g id="a_node5"><a xlink:href="lib://flowstdlib/math/sequence.dot.svg" xlink:title="y&#45;sequence">
<ellipse fill="aquamarine" stroke="black" cx="267.71" cy="-399.48" rx="72" ry="72"/>
<text text-anchor="middle" x="267.71" y="-395.78" font-family="Times,serif" font-size="14.00">y&#45;sequence</text>
</a>
</g>
</g>
<!-- /mandlebrot/generate_pixels/height&#45;&gt;/mandlebrot/generate_pixels/y&#45;sequence -->
<g id="edge3" class="edge">
<title>/mandlebrot/generate_pixels/height:e&#45;&gt;/mandlebrot/generate_pixels/y&#45;sequence:n</title>
<path fill="none" stroke="black" d="M372.71,-535.35C384.66,-535.35 378.78,-518.11 371.71,-508.48 345.07,-472.17 279.7,-512.69 269.16,-481.63"/>
<polygon fill="black" stroke="black" points="272.59,-480.89 267.71,-471.48 265.66,-481.87 272.59,-480.89"/>
<text text-anchor="middle" x="254.21" y="-475.28" font-family="Times,serif" font-size="14.00">end</text>
</g>
<!-- initializer/mandlebrot/generate_pixels/height_1 -->
<!-- initializer/mandlebrot/generate_pixels/height_1&#45;&gt;/mandlebrot/generate_pixels/height -->
<g id="edge1" class="edge">
<title>initializer/mandlebrot/generate_pixels/height_1&#45;&gt;/mandlebrot/generate_pixels/height:w</title>
<path fill="none" stroke="blue" stroke-dasharray="1,5" d="M240.66,-612.82C231.84,-589.07 219.83,-548.25 236.77,-537.83"/>
<polygon fill="blue" stroke="blue" points="237.86,-541.17 246.71,-535.35 236.16,-534.38 237.86,-541.17"/>
<text text-anchor="middle" x="238.71" y="-584.02" font-family="Times,serif" font-size="14.00">1</text>
</g>
<!-- /mandlebrot/generate_pixels/y&#45;sequence&#45;&gt;/mandlebrot/generate_pixels/width&#45;gate -->
<g id="edge4" class="edge">
<title>/mandlebrot/generate_pixels/y&#45;sequence:s&#45;&gt;/mandlebrot/generate_pixels/width&#45;gate:nw</title>
<path fill="none" stroke="black" d="M267.71,-327.48C267.71,-296.68 137.89,-308.96 108.2,-299.15"/>
<polygon fill="black" stroke="black" points="111.44,-297.8 104.71,-289.61 104.86,-300.2 111.44,-297.8"/>
<text text-anchor="middle" x="152.77" y="-308.63" font-family="Times,serif" font-size="14.00">sequence</text>
<text text-anchor="middle" x="130.21" y="-293.41" font-family="Times,serif" font-size="14.00">control</text>
</g>
<!-- /mandlebrot/generate_pixels/y&#45;duplicator -->
<g id="node7" class="node">
<title>/mandlebrot/generate_pixels/y&#45;duplicator</title>
<g id="a_node7"><a xlink:href="../../flowstdlib/data/duplicate/duplicate.html" xlink:title="y&#45;duplicator\n(duplicate)">
<ellipse fill="coral" stroke="black" cx="267.71" cy="-172.87" rx="72.25" ry="26.74"/>
<text text-anchor="middle" x="267.71" y="-176.67" font-family="Times,serif" font-size="14.00">y&#45;duplicator</text>
<text text-anchor="middle" x="267.71" y="-161.67" font-family="Times,serif" font-size="14.00">(duplicate)</text>
</a>
</g>
</g>
<!-- /mandlebrot/generate_pixels/y&#45;sequence&#45;&gt;/mandlebrot/generate_pixels/y&#45;duplicator -->
<g id="edge7" class="edge">
<title>/mandlebrot/generate_pixels/y&#45;sequence:s&#45;&gt;/mandlebrot/generate_pixels/y&#45;duplicator:n</title>
<path fill="none" stroke="black" d="M267.71,-327.48C267.71,-274.26 267.71,-258.45 267.71,-209.91"/>
<polygon fill="black" stroke="black" points="271.21,-209.74 267.71,-199.74 264.21,-209.74 271.21,-209.74"/>
<text text-anchor="middle" x="234.21" y="-267.23" font-family="Times,serif" font-size="14.00">sequence</text>
<text text-anchor="middle" x="248.21" y="-203.54" font-family="Times,serif" font-size="14.00">value</text>
</g>
<!-- /mandlebrot/generate_pixels/width&#45;gate&#45;&gt;/mandlebrot/generate_pixels/width&#45;gate -->
<g id="edge6" class="edge">
<title>/mandlebrot/generate_pixels/width&#45;gate:e&#45;&gt;/mandlebrot/generate_pixels/width&#45;gate:nw</title>
<path fill="none" stroke="black" d="M195.71,-263.61C213.47,-279.9 213.47,-312.48 150.21,-312.48 99.8,-312.48 89.56,-303.17 96.47,-294.73"/>
<polygon fill="black" stroke="black" points="98.77,-297.38 104.71,-288.61 94.59,-291.76 98.77,-297.38"/>
<text text-anchor="middle" x="88.71" y="-277.41" font-family="Times,serif" font-size="14.00">data</text>
</g>
<!-- /mandlebrot/generate_pixels/width&#45;gate&#45;&gt;/mandlebrot/generate_pixels/y&#45;duplicator -->
<g id="edge8" class="edge">
<title>/mandlebrot/generate_pixels/width&#45;gate:e&#45;&gt;/mandlebrot/generate_pixels/y&#45;duplicator:w</title>
<path fill="none" stroke="black" d="M196.71,-263.61C232.32,-263.61 172.06,-192.89 185.2,-176.32"/>
<polygon fill="black" stroke="black" points="186.5,-179.57 194.71,-172.87 184.12,-172.99 186.5,-179.57"/>
<text text-anchor="middle" x="173.21" y="-176.67" font-family="Times,serif" font-size="14.00">factor</text>
</g>
<!-- /mandlebrot/generate_pixels/enumerate -->
<g id="node8" class="node">
<title>/mandlebrot/generate_pixels/enumerate</title>
<g id="a_node8"><a xlink:href="../../flowstdlib/data/enumerate/enumerate.html" xlink:title="enumerate">
<ellipse fill="coral" stroke="black" cx="400.71" cy="-91" rx="61.19" ry="18"/>
<text text-anchor="middle" x="400.71" y="-87.3" font-family="Times,serif" font-size="14.00">enumerate</text>
</a>
</g>
</g>
<!-- /mandlebrot/generate_pixels/y&#45;duplicator&#45;&gt;/mandlebrot/generate_pixels/enumerate -->
<g id="edge9" class="edge">
<title>/mandlebrot/generate_pixels/y&#45;duplicator:e&#45;&gt;/mandlebrot/generate_pixels/enumerate:w</title>
<path fill="none" stroke="black" d="M340.71,-172.87C371.99,-172.87 321.15,-112.41 329.33,-95.4"/>
<polygon fill="black" stroke="black" points="331.15,-98.42 338.71,-91 328.17,-92.08 331.15,-98.42"/>
</g>
<!-- /mandlebrot/generate_pixels/enumerate&#45;&gt;/mandlebrot/generate_pixels/pixels -->
<g id="edge10" class="edge">
<title>/mandlebrot/generate_pixels/enumerate:e&#45;&gt;/mandlebrot/generate_pixels/pixels:n</title>
<path fill="none" stroke="black" d="M462.71,-91C484.78,-91 467.64,-66.97 462.86,-44.03"/>
<polygon fill="black" stroke="black" points="466.32,-43.54 461.71,-34 459.37,-44.33 466.32,-43.54"/>
</g>
</g>
</svg>
