<?xml version="1.0" encoding="UTF-8" standalone="no"?>
<!DOCTYPE svg PUBLIC "-//W3C//DTD SVG 1.1//EN"
 "http://www.w3.org/Graphics/SVG/1.1/DTD/svg11.dtd">
<!-- Generated by graphviz version 2.43.0 (0)
 -->
<!-- Title: generate_pixels Pages: 1 -->
<svg width="1257pt" height="648pt"
 viewBox="28.80 28.80 1228.66 619.02" xmlns="http://www.w3.org/2000/svg" xmlns:xlink="http://www.w3.org/1999/xlink">
<g id="graph0" class="graph" transform="scale(1 1) rotate(0) translate(32.8 615.02)">
<title>generate_pixels</title>
<polygon fill="white" stroke="transparent" points="-4,4 -4,-586.22 1195.86,-586.22 1195.86,4 -4,4"/>
<text text-anchor="middle" x="595.93" y="-567.02" font-family="Times,serif" font-size="14.00">generate_pixels</text>
<!-- /mandlebrot/generate_pixels/size -->
<g id="node1" class="node">
<title>/mandlebrot/generate_pixels/size</title>
<polygon fill="white" stroke="black" points="107.32,-546.78 72.12,-559.22 36.93,-546.78 36.96,-526.66 107.29,-526.66 107.32,-546.78"/>
<text text-anchor="middle" x="72.12" y="-537.52" font-family="Times,serif" font-size="14.00">size</text>
</g>
<!-- /mandlebrot/generate_pixels/pixels -->
<g id="node2" class="node">
<title>/mandlebrot/generate_pixels/pixels</title>
<polygon fill="black" stroke="black" points="147.83,-12.44 195.12,0 242.42,-12.44 242.38,-32.56 147.87,-32.56 147.83,-12.44"/>
<text text-anchor="middle" x="195.12" y="-14.3" font-family="Times,serif" font-size="14.00" fill="white">pixels</text>
</g>
<!-- /mandlebrot/generate_pixels/height -->
<g id="node3" class="node">
<title>/mandlebrot/generate_pixels/height</title>
<g id="a_node3"><a xlink:href="../../../target/flowstdlib/math/subtract/subtract.html" xlink:title="height\n(subtract)">
<ellipse fill="coral" stroke="black" cx="752.12" cy="-244.61" rx="61.54" ry="26.74"/>
<text text-anchor="middle" x="752.12" y="-248.41" font-family="Times,serif" font-size="14.00">height</text>
<text text-anchor="middle" x="752.12" y="-233.41" font-family="Times,serif" font-size="14.00">(subtract)</text>
</a>
</g>
</g>
<!-- /mandlebrot/generate_pixels/y&#45;sequence/ -->
<g id="node11" class="node">
<title>/mandlebrot/generate_pixels/y&#45;sequence/</title>
<ellipse fill="none" stroke="black" cx="814.12" cy="-153.87" rx="200.66" ry="18"/>
<text text-anchor="middle" x="814.12" y="-150.17" font-family="Times,serif" font-size="14.00">/mandlebrot/generate_pixels/y&#45;sequence/</text>
</g>
<!-- /mandlebrot/generate_pixels/height&#45;&gt;/mandlebrot/generate_pixels/y&#45;sequence/ -->
<g id="edge3" class="edge">
<title>/mandlebrot/generate_pixels/height:e&#45;&gt;/mandlebrot/generate_pixels/y&#45;sequence/:n</title>
<path fill="none" stroke="black" d="M815.12,-244.61C843.65,-244.61 820.34,-212.72 815.11,-183.17"/>
<polygon fill="black" stroke="black" points="818.56,-182.49 814.12,-172.87 811.59,-183.16 818.56,-182.49"/>
<text text-anchor="middle" x="797.12" y="-176.67" font-family="Times,serif" font-size="14.00">limit</text>
</g>
<!-- initializer/mandlebrot/generate_pixels/height_1 -->
<!-- initializer/mandlebrot/generate_pixels/height_1&#45;&gt;/mandlebrot/generate_pixels/height -->
<g id="edge1" class="edge">
<title>initializer/mandlebrot/generate_pixels/height_1&#45;&gt;/mandlebrot/generate_pixels/height:w</title>
<path fill="none" stroke="blue" stroke-dasharray="1,5" d="M682.92,-460.24C662.11,-408.8 607.8,-258.32 678.79,-245.49"/>
<polygon fill="blue" stroke="blue" points="679.46,-248.94 689.12,-244.61 678.87,-241.97 679.46,-248.94"/>
<text text-anchor="middle" x="677.12" y="-357.78" font-family="Times,serif" font-size="14.00">1</text>
</g>
<!-- /mandlebrot/generate_pixels/y&#45;sequence -->
<g id="node5" class="node">
<title>/mandlebrot/generate_pixels/y&#45;sequence</title>
<g id="a_node5"><a xlink:href="lib://flowstdlib/math/sequence.dot.svg" xlink:title="y&#45;sequence">
<ellipse fill="aquamarine" stroke="black" cx="790.12" cy="-361.48" rx="72" ry="72"/>
<text text-anchor="middle" x="790.12" y="-357.78" font-family="Times,serif" font-size="14.00">y&#45;sequence</text>
</a>
</g>
</g>
<!-- /mandlebrot/generate_pixels/width&#45;gate -->
<g id="node6" class="node">
<title>/mandlebrot/generate_pixels/width&#45;gate</title>
<g id="a_node6"><a xlink:href="../../../target/flowstdlib/control/join/join.html" xlink:title="width&#45;gate\n(join)">
<ellipse fill="coral" stroke="black" cx="515.12" cy="-153.87" rx="65.52" ry="26.74"/>
<text text-anchor="middle" x="515.12" y="-157.67" font-family="Times,serif" font-size="14.00">width&#45;gate</text>
<text text-anchor="middle" x="515.12" y="-142.67" font-family="Times,serif" font-size="14.00">(join)</text>
</a>
</g>
</g>
<!-- /mandlebrot/generate_pixels/width&#45;gate/ -->
<g id="node12" class="node">
<title>/mandlebrot/generate_pixels/width&#45;gate/</title>
<ellipse fill="none" stroke="black" cx="578.12" cy="-72" rx="198.76" ry="18"/>
<text text-anchor="middle" x="578.12" y="-68.3" font-family="Times,serif" font-size="14.00">/mandlebrot/generate_pixels/width&#45;gate/</text>
</g>
<!-- /mandlebrot/generate_pixels/width&#45;gate&#45;&gt;/mandlebrot/generate_pixels/width&#45;gate/ -->
<g id="edge6" class="edge">
<title>/mandlebrot/generate_pixels/width&#45;gate:e&#45;&gt;/mandlebrot/generate_pixels/width&#45;gate/:nw</title>
<path fill="none" stroke="black" d="M582.12,-153.87C594.08,-153.87 584.39,-138.5 581.12,-127 577.41,-113.93 561.28,-107.44 557.46,-99.86"/>
<polygon fill="black" stroke="black" points="560.9,-100.57 560.12,-90 554.14,-98.74 560.9,-100.57"/>
<text text-anchor="middle" x="544.12" y="-93.8" font-family="Times,serif" font-size="14.00">data</text>
</g>
<!-- /mandlebrot/generate_pixels/y&#45;duplicator/ -->
<g id="node13" class="node">
<title>/mandlebrot/generate_pixels/y&#45;duplicator/</title>
<ellipse fill="none" stroke="black" cx="987.12" cy="-72" rx="204.96" ry="18"/>
<text text-anchor="middle" x="987.12" y="-68.3" font-family="Times,serif" font-size="14.00">/mandlebrot/generate_pixels/y&#45;duplicator/</text>
</g>
<!-- /mandlebrot/generate_pixels/width&#45;gate&#45;&gt;/mandlebrot/generate_pixels/y&#45;duplicator/ -->
<g id="edge8" class="edge">
<title>/mandlebrot/generate_pixels/width&#45;gate:e&#45;&gt;/mandlebrot/generate_pixels/y&#45;duplicator/:w</title>
<path fill="none" stroke="black" d="M582.12,-153.87C597.56,-153.87 590.94,-135.03 604.12,-127 671.65,-85.87 723.47,-147.13 778.12,-90 779.31,-88.76 779.3,-85.37 779.21,-81.85"/>
<polygon fill="black" stroke="black" points="782.65,-82.48 781.12,-72 775.78,-81.15 782.65,-82.48"/>
<text text-anchor="middle" x="770.37" y="-60.8" font-family="Times,serif" font-size="14.00">factor</text>
</g>
<!-- /mandlebrot/generate_pixels/y&#45;duplicator -->
<g id="node7" class="node">
<title>/mandlebrot/generate_pixels/y&#45;duplicator</title>
<g id="a_node7"><a xlink:href="../../../target/flowstdlib/data/duplicate/duplicate.html" xlink:title="y&#45;duplicator\n(duplicate)">
<ellipse fill="coral" stroke="black" cx="72.12" cy="-478.35" rx="72.25" ry="26.74"/>
<text text-anchor="middle" x="72.12" y="-482.15" font-family="Times,serif" font-size="14.00">y&#45;duplicator</text>
<text text-anchor="middle" x="72.12" y="-467.15" font-family="Times,serif" font-size="14.00">(duplicate)</text>
</a>
</g>
</g>
<!-- /mandlebrot/generate_pixels/enumerate -->
<g id="node8" class="node">
<title>/mandlebrot/generate_pixels/enumerate</title>
<g id="a_node8"><a xlink:href="../../../target/flowstdlib/data/enumerate/enumerate.html" xlink:title="enumerate">
<ellipse fill="coral" stroke="black" cx="205.12" cy="-244.61" rx="61.19" ry="18"/>
<text text-anchor="middle" x="205.12" y="-240.91" font-family="Times,serif" font-size="14.00">enumerate</text>
</a>
</g>
</g>
<!-- /mandlebrot/generate_pixels/y&#45;duplicator&#45;&gt;/mandlebrot/generate_pixels/enumerate -->
<g id="edge9" class="edge">
<title>/mandlebrot/generate_pixels/y&#45;duplicator:e&#45;&gt;/mandlebrot/generate_pixels/enumerate:w</title>
<path fill="none" stroke="black" d="M145.12,-478.35C245.16,-478.35 54.37,-261.64 132.82,-245.55"/>
<polygon fill="black" stroke="black" points="133.49,-249.01 143.12,-244.61 132.85,-242.04 133.49,-249.01"/>
</g>
<!-- /mandlebrot/generate_pixels/ -->
<g id="node9" class="node">
<title>/mandlebrot/generate_pixels/</title>
<ellipse fill="none" stroke="black" cx="266.12" cy="-153.87" rx="146.47" ry="18"/>
<text text-anchor="middle" x="266.12" y="-150.17" font-family="Times,serif" font-size="14.00">/mandlebrot/generate_pixels/</text>
</g>
<!-- /mandlebrot/generate_pixels/enumerate&#45;&gt;/mandlebrot/generate_pixels/ -->
<g id="edge10" class="edge">
<title>/mandlebrot/generate_pixels/enumerate:e&#45;&gt;/mandlebrot/generate_pixels/:n</title>
<path fill="none" stroke="black" d="M267.12,-244.61C295.65,-244.61 272.34,-212.72 267.11,-183.17"/>
<polygon fill="black" stroke="black" points="270.56,-182.49 266.12,-172.87 263.59,-183.16 270.56,-182.49"/>
<text text-anchor="middle" x="244.62" y="-176.67" font-family="Times,serif" font-size="14.00">pixels</text>
</g>
<!-- /mandlebrot/generate_pixels/height/ -->
<g id="node10" class="node">
<title>/mandlebrot/generate_pixels/height/</title>
<ellipse fill="none" stroke="black" cx="195.12" cy="-72" rx="178.97" ry="18"/>
<text text-anchor="middle" x="195.12" y="-68.3" font-family="Times,serif" font-size="14.00">/mandlebrot/generate_pixels/height/</text>
</g>
<!-- /mandlebrot/generate_pixels/&#45;&gt;/mandlebrot/generate_pixels/height/ -->
<g id="edge2" class="edge">
<title>/mandlebrot/generate_pixels/:s&#45;&gt;/mandlebrot/generate_pixels/height/:ne</title>
<path fill="none" stroke="black" d="M266.12,-134.87C266.12,-107.5 241.61,-110.55 220.84,-96.37"/>
<polygon fill="black" stroke="black" points="223.06,-93.67 213.12,-90 218.61,-99.07 223.06,-93.67"/>
<text text-anchor="middle" x="217.97" y="-110.44" font-family="Times,serif" font-size="14.00">size[1]</text>
<text text-anchor="middle" x="206.12" y="-93.8" font-family="Times,serif" font-size="14.00">i1</text>
</g>
<!-- /mandlebrot/generate_pixels/&#45;&gt;/mandlebrot/generate_pixels/width&#45;gate/ -->
<g id="edge5" class="edge">
<title>/mandlebrot/generate_pixels/:s&#45;&gt;/mandlebrot/generate_pixels/width&#45;gate/:nw</title>
<path fill="none" stroke="black" d="M266.12,-134.87C266.12,-72.01 489.83,-130.42 551.9,-96.05"/>
<polygon fill="black" stroke="black" points="554.14,-98.75 560.12,-90 550,-93.11 554.14,-98.75"/>
<text text-anchor="middle" x="389.69" y="-109.78" font-family="Times,serif" font-size="14.00">size[0]</text>
<text text-anchor="middle" x="576.12" y="-93.8" font-family="Times,serif" font-size="14.00">data</text>
</g>
<!-- /mandlebrot/generate_pixels/y&#45;sequence/&#45;&gt;/mandlebrot/generate_pixels/width&#45;gate/ -->
<g id="edge4" class="edge">
<title>/mandlebrot/generate_pixels/y&#45;sequence/:s&#45;&gt;/mandlebrot/generate_pixels/width&#45;gate/:nw</title>
<path fill="none" stroke="black" d="M814.12,-134.87C814.12,-83.37 576.38,-120.91 557.48,-99.67"/>
<polygon fill="black" stroke="black" points="560.87,-100.57 560.12,-90 554.11,-98.72 560.87,-100.57"/>
<text text-anchor="middle" x="659.41" y="-109.72" font-family="Times,serif" font-size="14.00">sequence</text>
<text text-anchor="middle" x="534.62" y="-93.8" font-family="Times,serif" font-size="14.00">control</text>
</g>
<!-- /mandlebrot/generate_pixels/y&#45;sequence/&#45;&gt;/mandlebrot/generate_pixels/y&#45;duplicator/ -->
<g id="edge7" class="edge">
<title>/mandlebrot/generate_pixels/y&#45;sequence/:s&#45;&gt;/mandlebrot/generate_pixels/y&#45;duplicator/:n</title>
<path fill="none" stroke="black" d="M814.12,-134.87C814.12,-59.32 970.64,-158.76 985.93,-100.3"/>
<polygon fill="black" stroke="black" points="989.45,-100.34 987.12,-90 982.49,-99.53 989.45,-100.34"/>
<text text-anchor="middle" x="867.06" y="-116.22" font-family="Times,serif" font-size="14.00">sequence</text>
<text text-anchor="middle" x="967.62" y="-93.8" font-family="Times,serif" font-size="14.00">value</text>
</g>
</g>
</svg>
