<?xml version="1.0" encoding="UTF-8" standalone="no"?>
<!DOCTYPE svg PUBLIC "-//W3C//DTD SVG 1.1//EN"
 "http://www.w3.org/Graphics/SVG/1.1/DTD/svg11.dtd">
<!-- Generated by graphviz version 2.43.0 (0)
 -->
<!-- Title: generate_pixels Pages: 1 -->
<svg width="1221pt" height="628pt"
 viewBox="28.80 28.80 1192.53 599.28" xmlns="http://www.w3.org/2000/svg" xmlns:xlink="http://www.w3.org/1999/xlink">
<g id="graph0" class="graph" transform="scale(1 1) rotate(0) translate(32.8 595.28)">
<title>generate_pixels</title>
<polygon fill="white" stroke="transparent" points="-4,4 -4,-566.48 1159.73,-566.48 1159.73,4 -4,4"/>
<text text-anchor="middle" x="577.86" y="-547.28" font-family="Times,serif" font-size="14.00">generate_pixels</text>
<!-- /mandlebrot/generate_pixels/size -->
<g id="node1" class="node">
<title>/mandlebrot/generate_pixels/size</title>
<polygon fill="white" stroke="black" points="543.93,-527.04 508.73,-539.48 473.53,-527.04 473.56,-506.92 543.89,-506.92 543.93,-527.04"/>
<text text-anchor="middle" x="508.73" y="-517.78" font-family="Times,serif" font-size="14.00">size</text>
</g>
<!-- /mandlebrot/generate_pixels/height -->
<g id="node3" class="node">
<title>/mandlebrot/generate_pixels/height</title>
<g id="a_node3"><a xlink:href="../../../../../.flow/lib/flowstdlib/math/subtract/subtract.html" xlink:title="height\n(subtract)">
<ellipse fill="coral" stroke="black" cx="359.73" cy="-368.61" rx="61.54" ry="26.74"/>
<text text-anchor="middle" x="359.73" y="-372.41" font-family="Times,serif" font-size="14.00">height</text>
<text text-anchor="middle" x="359.73" y="-357.41" font-family="Times,serif" font-size="14.00">(subtract)</text>
</a>
</g>
</g>
<!-- /mandlebrot/generate_pixels/size&#45;&gt;/mandlebrot/generate_pixels/height -->
<g id="edge2" class="edge">
<title>/mandlebrot/generate_pixels/size:s&#45;&gt;/mandlebrot/generate_pixels/height:ne</title>
<path fill="none" stroke="black" d="M508.73,-505.48C508.73,-468.51 497.76,-456.7 470.73,-431.48 443.05,-405.66 418.88,-420.66 392.58,-401.39"/>
<polygon fill="black" stroke="black" points="394.59,-398.5 384.73,-394.61 390.01,-403.79 394.59,-398.5"/>
<text text-anchor="middle" x="454.3" y="-414.94" font-family="Times,serif" font-size="14.00">[1]</text>
<text text-anchor="middle" x="377.73" y="-398.41" font-family="Times,serif" font-size="14.00">i1</text>
</g>
<!-- /mandlebrot/generate_pixels/width&#45;gate -->
<g id="node6" class="node">
<title>/mandlebrot/generate_pixels/width&#45;gate</title>
<g id="a_node6"><a xlink:href="../../../../../.flow/lib/flowstdlib/control/join/join.html" xlink:title="width&#45;gate\n(join)">
<ellipse fill="coral" stroke="black" cx="661.73" cy="-368.61" rx="65.52" ry="26.74"/>
<text text-anchor="middle" x="661.73" y="-372.41" font-family="Times,serif" font-size="14.00">width&#45;gate</text>
<text text-anchor="middle" x="661.73" y="-357.41" font-family="Times,serif" font-size="14.00">(join)</text>
</a>
</g>
</g>
<!-- /mandlebrot/generate_pixels/size&#45;&gt;/mandlebrot/generate_pixels/width&#45;gate -->
<g id="edge5" class="edge">
<title>/mandlebrot/generate_pixels/size:s&#45;&gt;/mandlebrot/generate_pixels/width&#45;gate:nw</title>
<path fill="none" stroke="black" d="M508.73,-505.48C508.73,-468.51 519.49,-456.48 546.73,-431.48 575.84,-404.76 601.39,-421.62 628.91,-401.37"/>
<polygon fill="black" stroke="black" points="631.46,-403.8 636.73,-394.61 626.88,-398.5 631.46,-403.8"/>
<text text-anchor="middle" x="546.16" y="-412.97" font-family="Times,serif" font-size="14.00">[0]</text>
<text text-anchor="middle" x="620.73" y="-398.41" font-family="Times,serif" font-size="14.00">data</text>
</g>
<!-- /mandlebrot/generate_pixels/pixels -->
<g id="node2" class="node">
<title>/mandlebrot/generate_pixels/pixels</title>
<polygon fill="black" stroke="black" points="946.43,-12.44 993.73,0 1041.03,-12.44 1040.98,-32.56 946.48,-32.56 946.43,-12.44"/>
<text text-anchor="middle" x="993.73" y="-14.3" font-family="Times,serif" font-size="14.00" fill="white">pixels</text>
</g>
<!-- /mandlebrot/generate_pixels/y&#45;sequence/limit -->
<g id="node9" class="node">
<title>/mandlebrot/generate_pixels/y&#45;sequence/limit</title>
<ellipse fill="none" stroke="black" cx="421.73" cy="-278.87" rx="222.06" ry="18"/>
<text text-anchor="middle" x="421.73" y="-275.17" font-family="Times,serif" font-size="14.00">/mandlebrot/generate_pixels/y&#45;sequence/limit</text>
</g>
<!-- /mandlebrot/generate_pixels/height&#45;&gt;/mandlebrot/generate_pixels/y&#45;sequence/limit -->
<g id="edge3" class="edge">
<title>/mandlebrot/generate_pixels/height:e&#45;&gt;/mandlebrot/generate_pixels/y&#45;sequence/limit:n</title>
<path fill="none" stroke="black" d="M422.73,-368.61C450.86,-368.61 427.86,-337.17 422.7,-308.03"/>
<polygon fill="black" stroke="black" points="426.16,-307.49 421.73,-297.87 419.2,-308.16 426.16,-307.49"/>
</g>
<!-- initializer/mandlebrot/generate_pixels/height_1 -->
<!-- initializer/mandlebrot/generate_pixels/height_1&#45;&gt;/mandlebrot/generate_pixels/height -->
<g id="edge1" class="edge">
<title>initializer/mandlebrot/generate_pixels/height_1&#45;&gt;/mandlebrot/generate_pixels/height:w</title>
<path fill="none" stroke="blue" stroke-dasharray="1,5" d="M236.31,-431.15C244.13,-410.23 260.41,-376.97 286.62,-369.94"/>
<polygon fill="blue" stroke="blue" points="287.27,-373.38 296.73,-368.61 286.36,-366.44 287.27,-373.38"/>
<text text-anchor="middle" x="231.31" y="-419.95" font-family="Times,serif" font-size="14.00">1</text>
</g>
<!-- /mandlebrot/generate_pixels/y&#45;sequence -->
<g id="node5" class="node">
<title>/mandlebrot/generate_pixels/y&#45;sequence</title>
<g id="a_node5"><a xlink:href="../../../../../.flow/lib/flowstdlib/math/sequence.toml.dot.svg" xlink:title="y&#45;sequence">
<ellipse fill="aquamarine" stroke="black" cx="1083.73" cy="-144" rx="72" ry="72"/>
<text text-anchor="middle" x="1083.73" y="-140.3" font-family="Times,serif" font-size="14.00">y&#45;sequence</text>
</a>
</g>
</g>
<!-- /mandlebrot/generate_pixels/width&#45;gate&#45;&gt;/mandlebrot/generate_pixels/width&#45;gate -->
<g id="edge6" class="edge">
<title>/mandlebrot/generate_pixels/width&#45;gate:e&#45;&gt;/mandlebrot/generate_pixels/width&#45;gate:nw</title>
<path fill="none" stroke="black" d="M727.73,-368.61C745.49,-390.9 745.49,-435.48 682.23,-435.48 628.85,-435.48 620.51,-416.5 629.88,-401.43"/>
<polygon fill="black" stroke="black" points="632.77,-403.44 636.73,-393.61 627.51,-398.83 632.77,-403.44"/>
<text text-anchor="middle" x="652.73" y="-397.41" font-family="Times,serif" font-size="14.00">data</text>
</g>
<!-- /mandlebrot/generate_pixels/y&#45;duplicator -->
<g id="node7" class="node">
<title>/mandlebrot/generate_pixels/y&#45;duplicator</title>
<g id="a_node7"><a xlink:href="../../../../../.flow/lib/flowstdlib/data/duplicate/duplicate.html" xlink:title="y&#45;duplicator\n(duplicate)">
<ellipse fill="coral" stroke="black" cx="799.73" cy="-278.87" rx="72.25" ry="26.74"/>
<text text-anchor="middle" x="799.73" y="-282.67" font-family="Times,serif" font-size="14.00">y&#45;duplicator</text>
<text text-anchor="middle" x="799.73" y="-267.67" font-family="Times,serif" font-size="14.00">(duplicate)</text>
</a>
</g>
</g>
<!-- /mandlebrot/generate_pixels/width&#45;gate&#45;&gt;/mandlebrot/generate_pixels/y&#45;duplicator -->
<g id="edge8" class="edge">
<title>/mandlebrot/generate_pixels/width&#45;gate:e&#45;&gt;/mandlebrot/generate_pixels/y&#45;duplicator:w</title>
<path fill="none" stroke="black" d="M728.73,-368.61C763.95,-368.61 704.33,-298.67 717.33,-282.28"/>
<polygon fill="black" stroke="black" points="718.52,-285.57 726.73,-278.87 716.14,-278.99 718.52,-285.57"/>
<text text-anchor="middle" x="705.23" y="-282.67" font-family="Times,serif" font-size="14.00">factor</text>
</g>
<!-- /mandlebrot/generate_pixels/enumerate -->
<g id="node8" class="node">
<title>/mandlebrot/generate_pixels/enumerate</title>
<g id="a_node8"><a xlink:href="../../../../../.flow/lib/flowstdlib/data/enumerate/enumerate.html" xlink:title="enumerate">
<ellipse fill="coral" stroke="black" cx="932.73" cy="-144" rx="61.19" ry="18"/>
<text text-anchor="middle" x="932.73" y="-140.3" font-family="Times,serif" font-size="14.00">enumerate</text>
</a>
</g>
</g>
<!-- /mandlebrot/generate_pixels/y&#45;duplicator&#45;&gt;/mandlebrot/generate_pixels/enumerate -->
<g id="edge9" class="edge">
<title>/mandlebrot/generate_pixels/y&#45;duplicator:e&#45;&gt;/mandlebrot/generate_pixels/enumerate:w</title>
<path fill="none" stroke="black" d="M872.73,-278.87C928.46,-278.87 827.02,-162.3 860.65,-145.91"/>
<polygon fill="black" stroke="black" points="861.55,-149.3 870.73,-144 860.25,-142.42 861.55,-149.3"/>
</g>
<!-- /mandlebrot/generate_pixels/enumerate&#45;&gt;/mandlebrot/generate_pixels/pixels -->
<g id="edge10" class="edge">
<title>/mandlebrot/generate_pixels/enumerate:e&#45;&gt;/mandlebrot/generate_pixels/pixels:n</title>
<path fill="none" stroke="black" d="M994.73,-144C1005.19,-144 997.02,-72.44 994.44,-44.11"/>
<polygon fill="black" stroke="black" points="997.92,-43.73 993.73,-34 990.94,-44.22 997.92,-43.73"/>
</g>
<!-- /mandlebrot/generate_pixels/y&#45;sequence/sequence -->
<g id="node10" class="node">
<title>/mandlebrot/generate_pixels/y&#45;sequence/sequence</title>
<ellipse fill="none" stroke="black" cx="799.73" cy="-449.48" rx="244.26" ry="18"/>
<text text-anchor="middle" x="799.73" y="-445.78" font-family="Times,serif" font-size="14.00">/mandlebrot/generate_pixels/y&#45;sequence/sequence</text>
</g>
<!-- /mandlebrot/generate_pixels/y&#45;sequence/sequence&#45;&gt;/mandlebrot/generate_pixels/width&#45;gate -->
<g id="edge4" class="edge">
<title>/mandlebrot/generate_pixels/y&#45;sequence/sequence:s&#45;&gt;/mandlebrot/generate_pixels/width&#45;gate:nw</title>
<path fill="none" stroke="black" d="M799.73,-431.48C799.73,-361.56 608.73,-437.16 630.16,-402.44"/>
<polygon fill="black" stroke="black" points="632.98,-404.52 636.73,-394.61 627.62,-400.02 632.98,-404.52"/>
<text text-anchor="middle" x="662.23" y="-398.41" font-family="Times,serif" font-size="14.00">control</text>
</g>
<!-- /mandlebrot/generate_pixels/y&#45;sequence/sequence&#45;&gt;/mandlebrot/generate_pixels/y&#45;duplicator -->
<g id="edge7" class="edge">
<title>/mandlebrot/generate_pixels/y&#45;sequence/sequence:s&#45;&gt;/mandlebrot/generate_pixels/y&#45;duplicator:n</title>
<path fill="none" stroke="black" d="M799.73,-431.48C799.73,-379.09 799.73,-363.53 799.73,-315.75"/>
<polygon fill="black" stroke="black" points="803.23,-315.74 799.73,-305.74 796.23,-315.74 803.23,-315.74"/>
<text text-anchor="middle" x="780.23" y="-309.54" font-family="Times,serif" font-size="14.00">value</text>
</g>
</g>
</svg>
