<?xml version="1.0" encoding="UTF-8" standalone="no"?>
<!DOCTYPE svg PUBLIC "-//W3C//DTD SVG 1.1//EN"
 "http://www.w3.org/Graphics/SVG/1.1/DTD/svg11.dtd">
<!-- Generated by graphviz version 2.43.0 (0)
 -->
<!-- Title: parse_args Pages: 1 -->
<svg width="728pt" height="286pt"
 viewBox="28.80 28.80 698.78 257.54" xmlns="http://www.w3.org/2000/svg" xmlns:xlink="http://www.w3.org/1999/xlink">
<g id="graph0" class="graph" transform="scale(1 1) rotate(0) translate(32.8 253.54)">
<title>parse_args</title>
<polygon fill="white" stroke="transparent" points="-4,4 -4,-224.74 665.98,-224.74 665.98,4 -4,4"/>
<text text-anchor="middle" x="330.99" y="-205.54" font-family="Times,serif" font-size="14.00">parse_args</text>
<!-- /mandlebrot/parse_args/filename -->
<g id="node1" class="node">
<title>/mandlebrot/parse_args/filename</title>
<polygon fill="black" stroke="black" points="322.64,-12.44 384.36,0 446.08,-12.44 446.02,-32.56 322.69,-32.56 322.64,-12.44"/>
<text text-anchor="middle" x="384.36" y="-14.3" font-family="Times,serif" font-size="14.00" fill="white">filename</text>
</g>
<!-- /mandlebrot/parse_args/size -->
<g id="node2" class="node">
<title>/mandlebrot/parse_args/size</title>
<polygon fill="black" stroke="black" points="464.16,-12.44 499.36,0 534.55,-12.44 534.52,-32.56 464.19,-32.56 464.16,-12.44"/>
<text text-anchor="middle" x="499.36" y="-14.3" font-family="Times,serif" font-size="14.00" fill="white">size</text>
</g>
<!-- /mandlebrot/parse_args/bounds -->
<g id="node3" class="node">
<title>/mandlebrot/parse_args/bounds</title>
<polygon fill="black" stroke="black" points="552.6,-12.44 607.36,0 662.11,-12.44 662.06,-32.56 552.65,-32.56 552.6,-12.44"/>
<text text-anchor="middle" x="607.36" y="-14.3" font-family="Times,serif" font-size="14.00" fill="white">bounds</text>
</g>
<!-- /mandlebrot/parse_args/args -->
<g id="node4" class="node">
<title>/mandlebrot/parse_args/args</title>
<g id="a_node4"><a xlink:href="../../../flowr/src/cli/args/get.html" xlink:title="args\n(get)">
<ellipse fill="coral" stroke="black" cx="35.36" cy="-170.87" rx="35.21" ry="26.74"/>
<text text-anchor="middle" x="35.36" y="-174.67" font-family="Times,serif" font-size="14.00">args</text>
<text text-anchor="middle" x="35.36" y="-159.67" font-family="Times,serif" font-size="14.00">(get)</text>
</a>
</g>
</g>
<!-- /mandlebrot/parse_args/args/ -->
<g id="node5" class="node">
<title>/mandlebrot/parse_args/args/</title>
<ellipse fill="none" stroke="black" cx="236.36" cy="-170.87" rx="147.57" ry="18"/>
<text text-anchor="middle" x="236.36" y="-167.17" font-family="Times,serif" font-size="14.00">/mandlebrot/parse_args/args/</text>
</g>
<!-- /mandlebrot/parse_args/ -->
<g id="node6" class="node">
<title>/mandlebrot/parse_args/</title>
<ellipse fill="none" stroke="black" cx="384.36" cy="-90" rx="124.28" ry="18"/>
<text text-anchor="middle" x="384.36" y="-86.3" font-family="Times,serif" font-size="14.00">/mandlebrot/parse_args/</text>
</g>
<!-- /mandlebrot/parse_args/args/&#45;&gt;/mandlebrot/parse_args/ -->
<g id="edge1" class="edge">
<title>/mandlebrot/parse_args/args/:e&#45;&gt;/mandlebrot/parse_args/:n</title>
<path fill="none" stroke="black" d="M385.36,-170.87C394.21,-170.87 372.22,-143.17 380.02,-117.37"/>
<polygon fill="black" stroke="black" points="383.33,-118.55 384.36,-108 376.98,-115.61 383.33,-118.55"/>
<text text-anchor="middle" x="347.97" y="-129.44" font-family="Times,serif" font-size="14.00">string[1]</text>
<text text-anchor="middle" x="353.86" y="-111.8" font-family="Times,serif" font-size="14.00">filename</text>
</g>
<!-- /mandlebrot/parse_args/args/&#45;&gt;/mandlebrot/parse_args/ -->
<g id="edge2" class="edge">
<title>/mandlebrot/parse_args/args/:e&#45;&gt;/mandlebrot/parse_args/:n</title>
<path fill="none" stroke="black" d="M385.36,-170.87C410.03,-170.87 390.36,-143.65 385.41,-118.04"/>
<polygon fill="black" stroke="black" points="388.88,-117.58 384.36,-108 381.92,-118.31 388.88,-117.58"/>
<text text-anchor="middle" x="415.56" y="-141.19" font-family="Times,serif" font-size="14.00">json[2]</text>
<text text-anchor="middle" x="398.36" y="-111.8" font-family="Times,serif" font-size="14.00">size</text>
</g>
<!-- /mandlebrot/parse_args/args/&#45;&gt;/mandlebrot/parse_args/ -->
<g id="edge3" class="edge">
<title>/mandlebrot/parse_args/args/:e&#45;&gt;/mandlebrot/parse_args/:n</title>
<path fill="none" stroke="black" d="M385.36,-170.87C426.81,-170.87 407.29,-142.43 389.86,-116.35"/>
<polygon fill="black" stroke="black" points="392.78,-114.42 384.36,-108 386.94,-118.27 392.78,-114.42"/>
<text text-anchor="middle" x="423.6" y="-134.26" font-family="Times,serif" font-size="14.00">json[3]</text>
<text text-anchor="middle" x="410.36" y="-111.8" font-family="Times,serif" font-size="14.00">bounds</text>
</g>
</g>
</svg>
