<?xml version="1.0" encoding="UTF-8" standalone="no"?>
<!DOCTYPE svg PUBLIC "-//W3C//DTD SVG 1.1//EN"
 "http://www.w3.org/Graphics/SVG/1.1/DTD/svg11.dtd">
<!-- Generated by graphviz version 2.43.0 (0)
 -->
<!-- Title: parse_args Pages: 1 -->
<svg width="405pt" height="227pt"
 viewBox="28.80 28.80 376.29 198.23" xmlns="http://www.w3.org/2000/svg" xmlns:xlink="http://www.w3.org/1999/xlink">
<g id="graph0" class="graph" transform="scale(1 1) rotate(0) translate(32.8 194.23)">
<title>parse_args</title>
<polygon fill="white" stroke="transparent" points="-4,4 -4,-165.43 343.49,-165.43 343.49,4 -4,4"/>
<text text-anchor="middle" x="169.74" y="-146.23" font-family="Times,serif" font-size="14.00">parse_args</text>
<!-- /mandlebrot/parse_args/filename -->
<g id="node1" class="node">
<title>/mandlebrot/parse_args/filename</title>
<polygon fill="black" stroke="black" points="0.14,-12.44 61.86,0 123.58,-12.44 123.52,-32.56 0.2,-32.56 0.14,-12.44"/>
<text text-anchor="middle" x="61.86" y="-14.3" font-family="Times,serif" font-size="14.00" fill="white">filename</text>
</g>
<!-- /mandlebrot/parse_args/size -->
<g id="node2" class="node">
<title>/mandlebrot/parse_args/size</title>
<polygon fill="black" stroke="black" points="141.66,-12.44 176.86,0 212.06,-12.44 212.02,-32.56 141.7,-32.56 141.66,-12.44"/>
<text text-anchor="middle" x="176.86" y="-14.3" font-family="Times,serif" font-size="14.00" fill="white">size</text>
</g>
<!-- /mandlebrot/parse_args/bounds -->
<g id="node3" class="node">
<title>/mandlebrot/parse_args/bounds</title>
<polygon fill="black" stroke="black" points="230.1,-12.44 284.86,0 339.62,-12.44 339.57,-32.56 230.15,-32.56 230.1,-12.44"/>
<text text-anchor="middle" x="284.86" y="-14.3" font-family="Times,serif" font-size="14.00" fill="white">bounds</text>
</g>
<!-- /mandlebrot/parse_args/args -->
<g id="node4" class="node">
<title>/mandlebrot/parse_args/args</title>
<g id="a_node4"><a xlink:href="../../flowr/src/cli/args/get.html" xlink:title="args\n(get)">
<polygon fill="white" stroke="black" points="88.96,-94.88 132.86,-71.79 176.76,-94.88 176.72,-132.26 89,-132.26 88.96,-94.88"/>
<text text-anchor="middle" x="132.86" y="-109.01" font-family="Times,serif" font-size="14.00">args</text>
<text text-anchor="middle" x="132.86" y="-94.01" font-family="Times,serif" font-size="14.00">(get)</text>
</a>
</g>
</g>
<!-- /mandlebrot/parse_args/args&#45;&gt;/mandlebrot/parse_args/filename -->
<g id="edge1" class="edge">
<title>/mandlebrot/parse_args/args:e&#45;&gt;/mandlebrot/parse_args/filename:n</title>
<path fill="none" stroke="black" d="M177.86,-105.21C192.63,-105.21 185.69,-83.84 176.86,-72 147.06,-32.05 73.87,-79.64 63.17,-44.21"/>
<polygon fill="black" stroke="black" points="66.61,-43.47 61.86,-34 59.66,-44.37 66.61,-43.47"/>
<text text-anchor="middle" x="86.87" y="-59.65" font-family="Times,serif" font-size="14.00">string[1]</text>
</g>
<!-- /mandlebrot/parse_args/args&#45;&gt;/mandlebrot/parse_args/size -->
<g id="edge2" class="edge">
<title>/mandlebrot/parse_args/args:e&#45;&gt;/mandlebrot/parse_args/size:n</title>
<path fill="none" stroke="black" d="M177.86,-105.21C206.17,-105.21 183.03,-73.56 177.84,-44.22"/>
<polygon fill="black" stroke="black" points="181.29,-43.62 176.86,-34 174.33,-44.29 181.29,-43.62"/>
<text text-anchor="middle" x="159.86" y="-55.92" font-family="Times,serif" font-size="14.00">json[2]</text>
</g>
<!-- /mandlebrot/parse_args/args&#45;&gt;/mandlebrot/parse_args/bounds -->
<g id="edge3" class="edge">
<title>/mandlebrot/parse_args/args:e&#45;&gt;/mandlebrot/parse_args/bounds:n</title>
<path fill="none" stroke="black" d="M177.86,-105.21C231.41,-105.21 278.6,-92.83 284.29,-44.21"/>
<polygon fill="black" stroke="black" points="287.79,-44.18 284.86,-34 280.8,-43.79 287.79,-44.18"/>
<text text-anchor="middle" x="224.55" y="-96.73" font-family="Times,serif" font-size="14.00">json[3]</text>
</g>
</g>
</svg>
