<?xml version="1.0" encoding="UTF-8" standalone="no"?>
<!DOCTYPE svg PUBLIC "-//W3C//DTD SVG 1.1//EN"
 "http://www.w3.org/Graphics/SVG/1.1/DTD/svg11.dtd">
<!-- Generated by graphviz version 2.43.0 (0)
 -->
<!-- Title: parse_args Pages: 1 -->
<svg width="4511pt" height="620pt"
 viewBox="28.80 28.80 4482.53 591.50" xmlns="http://www.w3.org/2000/svg" xmlns:xlink="http://www.w3.org/1999/xlink">
<g id="page0,1_graph0" class="graph" transform="scale(1 1) rotate(0) translate(32.8 587.5)">
<title>parse_args</title>
<polygon fill="white" stroke="transparent" points="-4,4 -4,-558.7 4449.73,-558.7 4449.73,4 -4,4"/>
<text text-anchor="middle" x="2222.86" y="-539.5" font-family="Times,serif" font-size="14.00">parse_args</text>
<!-- /mandlebrot/parse_args/filename -->
<g id="node1" class="node">
<title>/mandlebrot/parse_args/filename</title>
<polygon fill="black" stroke="black" points="1.28,-12.44 63,0 124.72,-12.44 124.66,-32.56 1.34,-32.56 1.28,-12.44"/>
<text text-anchor="middle" x="63" y="-14.3" font-family="Times,serif" font-size="14.00" fill="white">filename</text>
</g>
<!-- /mandlebrot/parse_args/size -->
<g id="node2" class="node">
<title>/mandlebrot/parse_args/size</title>
<polygon fill="black" stroke="black" points="496.8,-12.44 532,0 567.2,-12.44 567.16,-32.56 496.84,-32.56 496.8,-12.44"/>
<text text-anchor="middle" x="532" y="-14.3" font-family="Times,serif" font-size="14.00" fill="white">size</text>
</g>
<!-- /mandlebrot/parse_args/bounds -->
<g id="node3" class="node">
<title>/mandlebrot/parse_args/bounds</title>
<polygon fill="black" stroke="black" points="3515.24,-12.44 3570,0 3624.76,-12.44 3624.71,-32.56 3515.29,-32.56 3515.24,-12.44"/>
<text text-anchor="middle" x="3570" y="-14.3" font-family="Times,serif" font-size="14.00" fill="white">bounds</text>
</g>
<!-- /mandlebrot/parse_args/args -->
<g id="node4" class="node">
<title>/mandlebrot/parse_args/args</title>
<g id="a_node4"><a xlink:href="../../flowr/src/lib/context/args/get.html" xlink:title="args\n(get)">
<ellipse fill="coral" stroke="black" cx="129" cy="-504.83" rx="35.21" ry="26.74"/>
<text text-anchor="middle" x="129" y="-508.63" font-family="Times,serif" font-size="14.00">args</text>
<text text-anchor="middle" x="129" y="-493.63" font-family="Times,serif" font-size="14.00">(get)</text>
</a>
</g>
</g>
<!-- /mandlebrot/parse_args/args&#45;&gt;/mandlebrot/parse_args/filename -->
<g id="edge12" class="edge">
<title>/mandlebrot/parse_args/args:e&#45;&gt;/mandlebrot/parse_args/filename:n</title>
<path fill="none" stroke="black" d="M166,-504.83C177.95,-504.83 170.53,-488.55 165,-477.96 138.73,-427.64 63,-457.86 63,-401.09 63,-401.09 63,-401.09 63,-98.87 63,-73.76 63,-65.05 63,-44.16"/>
<polygon fill="black" stroke="black" points="66.5,-44 63,-34 59.5,-44 66.5,-44"/>
<text text-anchor="middle" x="31.5" y="-367.11" font-family="Times,serif" font-size="14.00">string[1]</text>
</g>
<!-- /mandlebrot/parse_args/split_size -->
<g id="node5" class="node">
<title>/mandlebrot/parse_args/split_size</title>
<g id="a_node5"><a xlink:href="../../flowstdlib/data/ordered_split/ordered_split.html" xlink:title="split_size\n(ordered_split)">
<ellipse fill="coral" stroke="black" cx="252" cy="-400.09" rx="86.03" ry="26.74"/>
<text text-anchor="middle" x="252" y="-403.89" font-family="Times,serif" font-size="14.00">split_size</text>
<text text-anchor="middle" x="252" y="-388.89" font-family="Times,serif" font-size="14.00">(ordered_split)</text>
</a>
</g>
</g>
<!-- /mandlebrot/parse_args/args&#45;&gt;/mandlebrot/parse_args/split_size -->
<g id="edge13" class="edge">
<title>/mandlebrot/parse_args/args:e&#45;&gt;/mandlebrot/parse_args/split_size:w</title>
<path fill="none" stroke="black" d="M166,-504.83C185.37,-504.83 155.01,-432.32 157.67,-407.96"/>
<polygon fill="black" stroke="black" points="160.46,-410.08 164,-400.09 155.01,-405.69 160.46,-410.08"/>
<text text-anchor="middle" x="133.48" y="-456.18" font-family="Times,serif" font-size="14.00">string[2]</text>
<text text-anchor="middle" x="142.5" y="-403.89" font-family="Times,serif" font-size="14.00">string</text>
</g>
<!-- /mandlebrot/parse_args/split_upper_left -->
<g id="node11" class="node">
<title>/mandlebrot/parse_args/split_upper_left</title>
<g id="a_node11"><a xlink:href="../../flowstdlib/data/ordered_split/ordered_split.html" xlink:title="split_upper_left\n(ordered_split)">
<ellipse fill="coral" stroke="black" cx="1137" cy="-400.09" rx="90.52" ry="26.74"/>
<text text-anchor="middle" x="1137" y="-403.89" font-family="Times,serif" font-size="14.00">split_upper_left</text>
<text text-anchor="middle" x="1137" y="-388.89" font-family="Times,serif" font-size="14.00">(ordered_split)</text>
</a>
</g>
</g>
<!-- /mandlebrot/parse_args/args&#45;&gt;/mandlebrot/parse_args/split_upper_left -->
<g id="edge18" class="edge">
<title>/mandlebrot/parse_args/args:e&#45;&gt;/mandlebrot/parse_args/split_upper_left:w</title>
<path fill="none" stroke="black" d="M166,-504.83C178.34,-504.83 163.58,-485.93 173,-477.96 208.53,-447.88 930.18,-404.05 1034.76,-400.34"/>
<polygon fill="black" stroke="black" points="1035.09,-403.84 1045,-400.09 1034.92,-396.84 1035.09,-403.84"/>
<text text-anchor="middle" x="572.03" y="-431.13" font-family="Times,serif" font-size="14.00">string[3]</text>
<text text-anchor="middle" x="1023.5" y="-403.89" font-family="Times,serif" font-size="14.00">string</text>
</g>
<!-- /mandlebrot/parse_args/split_lower_right -->
<g id="node14" class="node">
<title>/mandlebrot/parse_args/split_lower_right</title>
<g id="a_node14"><a xlink:href="../../flowstdlib/data/ordered_split/ordered_split.html" xlink:title="split_lower_right\n(ordered_split)">
<ellipse fill="coral" stroke="black" cx="2172" cy="-400.09" rx="96.75" ry="26.74"/>
<text text-anchor="middle" x="2172" y="-403.89" font-family="Times,serif" font-size="14.00">split_lower_right</text>
<text text-anchor="middle" x="2172" y="-388.89" font-family="Times,serif" font-size="14.00">(ordered_split)</text>
</a>
</g>
</g>
<!-- /mandlebrot/parse_args/args&#45;&gt;/mandlebrot/parse_args/split_lower_right -->
<g id="edge20" class="edge">
<title>/mandlebrot/parse_args/args:e&#45;&gt;/mandlebrot/parse_args/split_lower_right:w</title>
<path fill="none" stroke="black" d="M166,-504.83C178.34,-504.83 163.31,-485.61 173,-477.96 192.19,-462.81 1028.57,-460.93 1053,-459.96 1503.76,-442.14 1617.72,-400.72 2063.74,-400.1"/>
<polygon fill="black" stroke="black" points="2064,-403.6 2074,-400.09 2064,-396.6 2064,-403.6"/>
<text text-anchor="middle" x="1088.88" y="-460.81" font-family="Times,serif" font-size="14.00">string[4]</text>
<text text-anchor="middle" x="2052.5" y="-403.89" font-family="Times,serif" font-size="14.00">string</text>
</g>
<!-- /mandlebrot/parse_args/size_to_json -->
<g id="node7" class="node">
<title>/mandlebrot/parse_args/size_to_json</title>
<g id="a_node7"><a xlink:href="../../flowstdlib/fmt/to_json/to_json.html" xlink:title="size_to_json\n(to_json)">
<ellipse fill="coral" stroke="black" cx="162" cy="-309.35" rx="71.34" ry="26.74"/>
<text text-anchor="middle" x="162" y="-313.15" font-family="Times,serif" font-size="14.00">size_to_json</text>
<text text-anchor="middle" x="162" y="-298.15" font-family="Times,serif" font-size="14.00">(to_json)</text>
</a>
</g>
</g>
<!-- /mandlebrot/parse_args/split_size&#45;&gt;/mandlebrot/parse_args/size_to_json -->
<g id="edge14" class="edge">
<title>/mandlebrot/parse_args/split_size:e&#45;&gt;/mandlebrot/parse_args/size_to_json:w</title>
<path fill="none" stroke="black" d="M340,-400.09C351.95,-400.09 346.97,-382.12 339,-373.22 264.37,-289.87 164.63,-419.57 90,-336.22 85.27,-330.93 81.59,-322.45 81.88,-316.43"/>
<polygon fill="black" stroke="black" points="84.38,-318.89 89,-309.35 79.44,-313.92 84.38,-318.89"/>
</g>
<!-- initializer/mandlebrot/parse_args/split_size_1 -->
<!-- initializer/mandlebrot/parse_args/split_size_1&#45;&gt;/mandlebrot/parse_args/split_size -->
<g id="edge1" class="edge">
<title>initializer/mandlebrot/parse_args/split_size_1&#45;&gt;/mandlebrot/parse_args/split_size:w</title>
<path fill="none" stroke="blue" d="M270.55,-490.45C230.4,-479.56 190.34,-460.4 165,-426.96 160.83,-421.45 157.15,-413.33 157.1,-407.46"/>
<polygon fill="blue" stroke="blue" points="159.72,-409.78 164,-400.09 154.61,-405 159.72,-409.78"/>
<text text-anchor="middle" x="210" y="-448.76" font-family="Times,serif" font-size="14.00">&quot;x&quot;</text>
</g>
<!-- /mandlebrot/parse_args/accumulate_size -->
<g id="node8" class="node">
<title>/mandlebrot/parse_args/accumulate_size</title>
<g id="a_node8"><a xlink:href="../../flowstdlib/data/accumulate/accumulate.html" xlink:title="accumulate_size\n(accumulate)">
<ellipse fill="coral" stroke="black" cx="506" cy="-204.61" rx="94.09" ry="26.74"/>
<text text-anchor="middle" x="506" y="-208.41" font-family="Times,serif" font-size="14.00">accumulate_size</text>
<text text-anchor="middle" x="506" y="-193.41" font-family="Times,serif" font-size="14.00">(accumulate)</text>
</a>
</g>
</g>
<!-- /mandlebrot/parse_args/size_to_json&#45;&gt;/mandlebrot/parse_args/accumulate_size -->
<g id="edge15" class="edge">
<title>/mandlebrot/parse_args/size_to_json:e&#45;&gt;/mandlebrot/parse_args/accumulate_size:w</title>
<path fill="none" stroke="black" d="M235,-309.35C247.46,-309.35 234.85,-291.9 243,-282.48 294.52,-222.91 325.92,-206.04 400.66,-204.7"/>
<polygon fill="black" stroke="black" points="401.03,-208.2 411,-204.61 400.97,-201.2 401.03,-208.2"/>
<text text-anchor="middle" x="388" y="-208.41" font-family="Times,serif" font-size="14.00">values</text>
</g>
<!-- /mandlebrot/parse_args/accumulate_size&#45;&gt;/mandlebrot/parse_args/size -->
<g id="edge17" class="edge">
<title>/mandlebrot/parse_args/accumulate_size:se&#45;&gt;/mandlebrot/parse_args/size:n</title>
<path fill="none" stroke="black" d="M532,-177.74C574.7,-135.04 536.67,-101.71 532.38,-44.23"/>
<polygon fill="black" stroke="black" points="535.87,-43.86 532,-34 528.88,-44.12 535.87,-43.86"/>
<text text-anchor="middle" x="524.22" y="-105.3" font-family="Times,serif" font-size="14.00">chunk</text>
</g>
<!-- /mandlebrot/parse_args/accumulate_size&#45;&gt;/mandlebrot/parse_args/accumulate_size -->
<g id="edge16" class="edge">
<title>/mandlebrot/parse_args/accumulate_size:s&#45;&gt;/mandlebrot/parse_args/accumulate_size:n</title>
<path fill="none" stroke="black" d="M506,-177.61C543.35,-164.61 618.05,-164.61 618.05,-204.61 618.05,-241.41 554.83,-244.35 515.63,-234.47"/>
<polygon fill="black" stroke="black" points="516.58,-231.1 506,-231.61 514.59,-237.81 516.58,-231.1"/>
<text text-anchor="middle" x="482.01" y="-166.41" font-family="Times,serif" font-size="14.00">partial</text>
<text text-anchor="middle" x="482" y="-235.41" font-family="Times,serif" font-size="14.00">partial</text>
</g>
<!-- initializer/mandlebrot/parse_args/accumulate_size_1 -->
<!-- initializer/mandlebrot/parse_args/accumulate_size_1&#45;&gt;/mandlebrot/parse_args/accumulate_size -->
<g id="edge2" class="edge">
<title>initializer/mandlebrot/parse_args/accumulate_size_1&#45;&gt;/mandlebrot/parse_args/accumulate_size:n</title>
<path fill="none" stroke="blue" stroke-dasharray="1,5" d="M506,-291.25C506,-278.23 506,-259.57 506,-241.8"/>
<polygon fill="blue" stroke="blue" points="509.5,-241.48 506,-231.48 502.5,-241.48 509.5,-241.48"/>
<text text-anchor="middle" x="511.5" y="-253.28" font-family="Times,serif" font-size="14.00">[]</text>
</g>
<!-- initializer/mandlebrot/parse_args/accumulate_size_2 -->
<!-- initializer/mandlebrot/parse_args/accumulate_size_2&#45;&gt;/mandlebrot/parse_args/accumulate_size -->
<g id="edge3" class="edge">
<title>initializer/mandlebrot/parse_args/accumulate_size_2&#45;&gt;/mandlebrot/parse_args/accumulate_size:n</title>
<path fill="none" stroke="blue" d="M890,-294.4C751.26,-279.89 555.06,-256.75 513.8,-238.12"/>
<polygon fill="blue" stroke="blue" points="515.88,-235.3 506,-231.48 511.35,-240.63 515.88,-235.3"/>
<text text-anchor="middle" x="639" y="-253.28" font-family="Times,serif" font-size="14.00">2</text>
</g>
<!-- /mandlebrot/parse_args/upper_left_to_json -->
<g id="node13" class="node">
<title>/mandlebrot/parse_args/upper_left_to_json</title>
<g id="a_node13"><a xlink:href="../../flowstdlib/fmt/to_json/to_json.html" xlink:title="upper_left_to_json\n(to_json)">
<ellipse fill="coral" stroke="black" cx="1407" cy="-309.35" rx="103.48" ry="26.74"/>
<text text-anchor="middle" x="1407" y="-313.15" font-family="Times,serif" font-size="14.00">upper_left_to_json</text>
<text text-anchor="middle" x="1407" y="-298.15" font-family="Times,serif" font-size="14.00">(to_json)</text>
</a>
</g>
</g>
<!-- /mandlebrot/parse_args/split_upper_left&#45;&gt;/mandlebrot/parse_args/upper_left_to_json -->
<g id="edge19" class="edge">
<title>/mandlebrot/parse_args/split_upper_left:e&#45;&gt;/mandlebrot/parse_args/upper_left_to_json:w</title>
<path fill="none" stroke="black" d="M1229,-400.09C1269.82,-400.09 1273.82,-371.11 1295,-336.22 1298.54,-330.4 1296.87,-322.91 1296.67,-317.31"/>
<polygon fill="black" stroke="black" points="1299.52,-319.36 1303,-309.35 1294.04,-315 1299.52,-319.36"/>
</g>
<!-- initializer/mandlebrot/parse_args/split_upper_left_1 -->
<!-- initializer/mandlebrot/parse_args/split_upper_left_1&#45;&gt;/mandlebrot/parse_args/split_upper_left -->
<g id="edge4" class="edge">
<title>initializer/mandlebrot/parse_args/split_upper_left_1&#45;&gt;/mandlebrot/parse_args/split_upper_left:w</title>
<path fill="none" stroke="blue" d="M1039.01,-486.7C1029.21,-460.69 1014.71,-413.1 1034.99,-402.31"/>
<polygon fill="blue" stroke="blue" points="1035.99,-405.67 1045,-400.09 1034.48,-398.84 1035.99,-405.67"/>
<text text-anchor="middle" x="1039.5" y="-448.76" font-family="Times,serif" font-size="14.00">&quot;,&quot;</text>
</g>
<!-- /mandlebrot/parse_args/accumulate_upper_left -->
<g id="node17" class="node">
<title>/mandlebrot/parse_args/accumulate_upper_left</title>
<g id="a_node17"><a xlink:href="../../flowstdlib/data/accumulate/accumulate.html" xlink:title="accumulate_upper_left\n(accumulate)">
<ellipse fill="coral" stroke="black" cx="1902" cy="-204.61" rx="125.73" ry="26.74"/>
<text text-anchor="middle" x="1902" y="-208.41" font-family="Times,serif" font-size="14.00">accumulate_upper_left</text>
<text text-anchor="middle" x="1902" y="-193.41" font-family="Times,serif" font-size="14.00">(accumulate)</text>
</a>
</g>
</g>
<!-- /mandlebrot/parse_args/upper_left_to_json&#45;&gt;/mandlebrot/parse_args/accumulate_upper_left -->
<g id="edge22" class="edge">
<title>/mandlebrot/parse_args/upper_left_to_json:e&#45;&gt;/mandlebrot/parse_args/accumulate_upper_left:w</title>
<path fill="none" stroke="black" d="M1511,-309.35C1523.59,-309.35 1510.98,-291.27 1520,-282.48 1560.22,-243.33 1699.89,-208.48 1764.87,-204.91"/>
<polygon fill="black" stroke="black" points="1765.11,-208.4 1775,-204.61 1764.9,-201.41 1765.11,-208.4"/>
<text text-anchor="middle" x="1752" y="-208.41" font-family="Times,serif" font-size="14.00">values</text>
</g>
<!-- /mandlebrot/parse_args/lower_right_to_json -->
<g id="node16" class="node">
<title>/mandlebrot/parse_args/lower_right_to_json</title>
<g id="a_node16"><a xlink:href="../../flowstdlib/fmt/to_json/to_json.html" xlink:title="lower_right_to_json\n(to_json)">
<ellipse fill="coral" stroke="black" cx="2808" cy="-309.35" rx="109.7" ry="26.74"/>
<text text-anchor="middle" x="2808" y="-313.15" font-family="Times,serif" font-size="14.00">lower_right_to_json</text>
<text text-anchor="middle" x="2808" y="-298.15" font-family="Times,serif" font-size="14.00">(to_json)</text>
</a>
</g>
</g>
<!-- /mandlebrot/parse_args/split_lower_right&#45;&gt;/mandlebrot/parse_args/lower_right_to_json -->
<g id="edge21" class="edge">
<title>/mandlebrot/parse_args/split_lower_right:e&#45;&gt;/mandlebrot/parse_args/lower_right_to_json:w</title>
<path fill="none" stroke="black" d="M2270,-400.09C2364.19,-400.09 2617.96,-398.07 2689,-336.22 2694.21,-331.68 2692.27,-323.91 2691.63,-317.89"/>
<polygon fill="black" stroke="black" points="2694.64,-319.68 2697,-309.35 2688.72,-315.95 2694.64,-319.68"/>
</g>
<!-- initializer/mandlebrot/parse_args/split_lower_right_1 -->
<!-- initializer/mandlebrot/parse_args/split_lower_right_1&#45;&gt;/mandlebrot/parse_args/split_lower_right -->
<g id="edge5" class="edge">
<title>initializer/mandlebrot/parse_args/split_lower_right_1&#45;&gt;/mandlebrot/parse_args/split_lower_right:w</title>
<path fill="none" stroke="blue" d="M2068.01,-486.7C2058.21,-460.69 2043.71,-413.1 2063.99,-402.31"/>
<polygon fill="blue" stroke="blue" points="2064.99,-405.67 2074,-400.09 2063.48,-398.84 2064.99,-405.67"/>
<text text-anchor="middle" x="2067.5" y="-448.76" font-family="Times,serif" font-size="14.00">&quot;,&quot;</text>
</g>
<!-- /mandlebrot/parse_args/accumulate_lower_right -->
<g id="node20" class="node">
<title>/mandlebrot/parse_args/accumulate_lower_right</title>
<g id="a_node20"><a xlink:href="../../flowstdlib/data/accumulate/accumulate.html" xlink:title="accumulate_lower_right\n(accumulate)">
<ellipse fill="coral" stroke="black" cx="3181" cy="-204.61" rx="132.46" ry="26.74"/>
<text text-anchor="middle" x="3181" y="-208.41" font-family="Times,serif" font-size="14.00">accumulate_lower_right</text>
<text text-anchor="middle" x="3181" y="-193.41" font-family="Times,serif" font-size="14.00">(accumulate)</text>
</a>
</g>
</g>
<!-- /mandlebrot/parse_args/lower_right_to_json&#45;&gt;/mandlebrot/parse_args/accumulate_lower_right -->
<g id="edge24" class="edge">
<title>/mandlebrot/parse_args/lower_right_to_json:e&#45;&gt;/mandlebrot/parse_args/accumulate_lower_right:w</title>
<path fill="none" stroke="black" d="M2919,-309.35C2931.46,-309.35 2919.52,-292.44 2927,-282.48 2963.3,-234.14 2981.95,-207.61 3037.9,-204.85"/>
<polygon fill="black" stroke="black" points="3038.09,-208.35 3048,-204.61 3037.92,-201.35 3038.09,-208.35"/>
<text text-anchor="middle" x="3025" y="-208.41" font-family="Times,serif" font-size="14.00">values</text>
</g>
<!-- /mandlebrot/parse_args/accumulate_upper_left&#45;&gt;/mandlebrot/parse_args/accumulate_upper_left -->
<g id="edge23" class="edge">
<title>/mandlebrot/parse_args/accumulate_upper_left:s&#45;&gt;/mandlebrot/parse_args/accumulate_upper_left:n</title>
<path fill="none" stroke="black" d="M1902,-177.61C1949.96,-164.61 2045.87,-164.61 2045.87,-204.61 2045.87,-242.03 1961.92,-244.44 1911.83,-233.95"/>
<polygon fill="black" stroke="black" points="1912.54,-230.53 1902,-231.61 1910.92,-237.33 1912.54,-230.53"/>
<text text-anchor="middle" x="1878.02" y="-166.41" font-family="Times,serif" font-size="14.00">partial</text>
<text text-anchor="middle" x="1878" y="-235.41" font-family="Times,serif" font-size="14.00">partial</text>
</g>
<!-- /mandlebrot/parse_args/accumulate_bounds -->
<g id="node23" class="node">
<title>/mandlebrot/parse_args/accumulate_bounds</title>
<g id="a_node23"><a xlink:href="../../flowstdlib/data/accumulate/accumulate.html" xlink:title="accumulate_bounds\n(accumulate)">
<ellipse fill="coral" stroke="black" cx="3544" cy="-99.87" rx="111.03" ry="26.74"/>
<text text-anchor="middle" x="3544" y="-103.67" font-family="Times,serif" font-size="14.00">accumulate_bounds</text>
<text text-anchor="middle" x="3544" y="-88.67" font-family="Times,serif" font-size="14.00">(accumulate)</text>
</a>
</g>
</g>
<!-- /mandlebrot/parse_args/accumulate_upper_left&#45;&gt;/mandlebrot/parse_args/accumulate_bounds -->
<g id="edge27" class="edge">
<title>/mandlebrot/parse_args/accumulate_upper_left:se&#45;&gt;/mandlebrot/parse_args/accumulate_bounds:w</title>
<path fill="none" stroke="black" d="M1928,-177.74C1985.49,-120.25 3272.28,-100.96 3421.88,-99.92"/>
<polygon fill="black" stroke="black" points="3422.02,-103.42 3432,-99.87 3421.98,-96.42 3422.02,-103.42"/>
<text text-anchor="middle" x="2658.13" y="-120.12" font-family="Times,serif" font-size="14.00">chunk</text>
<text text-anchor="middle" x="3409" y="-103.67" font-family="Times,serif" font-size="14.00">values</text>
</g>
<!-- initializer/mandlebrot/parse_args/accumulate_upper_left_1 -->
<!-- initializer/mandlebrot/parse_args/accumulate_upper_left_1&#45;&gt;/mandlebrot/parse_args/accumulate_upper_left -->
<g id="edge6" class="edge">
<title>initializer/mandlebrot/parse_args/accumulate_upper_left_1&#45;&gt;/mandlebrot/parse_args/accumulate_upper_left:n</title>
<path fill="none" stroke="blue" stroke-dasharray="1,5" d="M1853.58,-291.52C1874.21,-280.51 1895.81,-263.96 1900.89,-241.48"/>
<polygon fill="blue" stroke="blue" points="1904.37,-241.81 1902,-231.48 1897.41,-241.03 1904.37,-241.81"/>
<text text-anchor="middle" x="1902.5" y="-253.28" font-family="Times,serif" font-size="14.00">[]</text>
</g>
<!-- initializer/mandlebrot/parse_args/accumulate_upper_left_2 -->
<!-- initializer/mandlebrot/parse_args/accumulate_upper_left_2&#45;&gt;/mandlebrot/parse_args/accumulate_upper_left -->
<g id="edge7" class="edge">
<title>initializer/mandlebrot/parse_args/accumulate_upper_left_2&#45;&gt;/mandlebrot/parse_args/accumulate_upper_left:n</title>
<path fill="none" stroke="blue" d="M2259.77,-293.6C2129.87,-278.79 1949.04,-255.7 1909.73,-237.98"/>
<polygon fill="blue" stroke="blue" points="1911.91,-235.23 1902,-231.48 1907.4,-240.59 1911.91,-235.23"/>
<text text-anchor="middle" x="2039" y="-253.28" font-family="Times,serif" font-size="14.00">2</text>
</g>
<!-- /mandlebrot/parse_args/accumulate_lower_right&#45;&gt;/mandlebrot/parse_args/accumulate_lower_right -->
<g id="edge25" class="edge">
<title>/mandlebrot/parse_args/accumulate_lower_right:s&#45;&gt;/mandlebrot/parse_args/accumulate_lower_right:n</title>
<path fill="none" stroke="black" d="M3181,-177.61C3231.08,-164.61 3331.23,-164.61 3331.23,-204.61 3331.23,-242.11 3243.2,-244.45 3190.94,-233.89"/>
<polygon fill="black" stroke="black" points="3191.53,-230.43 3181,-231.61 3189.97,-237.26 3191.53,-230.43"/>
<text text-anchor="middle" x="3157.02" y="-166.41" font-family="Times,serif" font-size="14.00">partial</text>
<text text-anchor="middle" x="3157" y="-235.41" font-family="Times,serif" font-size="14.00">partial</text>
</g>
<!-- /mandlebrot/parse_args/accumulate_lower_right&#45;&gt;/mandlebrot/parse_args/accumulate_bounds -->
<g id="edge28" class="edge">
<title>/mandlebrot/parse_args/accumulate_lower_right:se&#45;&gt;/mandlebrot/parse_args/accumulate_bounds:w</title>
<path fill="none" stroke="black" d="M3208,-177.74C3280.13,-105.61 3323.73,-100.16 3422,-99.88"/>
<polygon fill="black" stroke="black" points="3422,-103.38 3432,-99.87 3422,-96.38 3422,-103.38"/>
<text text-anchor="middle" x="3290.54" y="-113.6" font-family="Times,serif" font-size="14.00">chunk</text>
<text text-anchor="middle" x="3409" y="-88.67" font-family="Times,serif" font-size="14.00">values</text>
</g>
<!-- initializer/mandlebrot/parse_args/accumulate_lower_right_1 -->
<!-- initializer/mandlebrot/parse_args/accumulate_lower_right_1&#45;&gt;/mandlebrot/parse_args/accumulate_lower_right -->
<g id="edge8" class="edge">
<title>initializer/mandlebrot/parse_args/accumulate_lower_right_1&#45;&gt;/mandlebrot/parse_args/accumulate_lower_right:n</title>
<path fill="none" stroke="blue" stroke-dasharray="1,5" d="M3208.37,-291.3C3197.75,-278.84 3185.37,-260.84 3181.93,-241.62"/>
<polygon fill="blue" stroke="blue" points="3185.4,-241.12 3181,-231.48 3178.43,-241.76 3185.4,-241.12"/>
<text text-anchor="middle" x="3194.5" y="-253.28" font-family="Times,serif" font-size="14.00">[]</text>
</g>
<!-- initializer/mandlebrot/parse_args/accumulate_lower_right_2 -->
<!-- initializer/mandlebrot/parse_args/accumulate_lower_right_2&#45;&gt;/mandlebrot/parse_args/accumulate_lower_right -->
<g id="edge9" class="edge">
<title>initializer/mandlebrot/parse_args/accumulate_lower_right_2&#45;&gt;/mandlebrot/parse_args/accumulate_lower_right:n</title>
<path fill="none" stroke="blue" d="M3670.54,-293.93C3500.94,-277.21 3241.99,-250.14 3190.2,-235.87"/>
<polygon fill="blue" stroke="blue" points="3191.53,-232.63 3181,-231.48 3188.52,-238.95 3191.53,-232.63"/>
<text text-anchor="middle" x="3393" y="-253.28" font-family="Times,serif" font-size="14.00">2</text>
</g>
<!-- /mandlebrot/parse_args/accumulate_bounds&#45;&gt;/mandlebrot/parse_args/bounds -->
<g id="edge29" class="edge">
<title>/mandlebrot/parse_args/accumulate_bounds:se&#45;&gt;/mandlebrot/parse_args/bounds:n</title>
<path fill="none" stroke="black" d="M3570,-73C3579.67,-63.33 3574.08,-55.43 3571.29,-44.01"/>
<polygon fill="black" stroke="black" points="3574.75,-43.47 3570,-34 3567.81,-44.37 3574.75,-43.47"/>
<text text-anchor="middle" x="3552.27" y="-56.27" font-family="Times,serif" font-size="14.00">chunk</text>
</g>
<!-- /mandlebrot/parse_args/accumulate_bounds&#45;&gt;/mandlebrot/parse_args/accumulate_bounds -->
<g id="edge26" class="edge">
<title>/mandlebrot/parse_args/accumulate_bounds:s&#45;&gt;/mandlebrot/parse_args/accumulate_bounds:n</title>
<path fill="none" stroke="black" d="M3544,-72.87C3587.01,-61.87 3673.02,-61.87 3673.02,-99.87 3673.02,-135.12 3598.99,-137.67 3553.95,-129.07"/>
<polygon fill="black" stroke="black" points="3554.52,-125.61 3544,-126.87 3553.01,-132.45 3554.52,-125.61"/>
<text text-anchor="middle" x="3520.03" y="-61.66" font-family="Times,serif" font-size="14.00">partial</text>
<text text-anchor="middle" x="3520" y="-130.67" font-family="Times,serif" font-size="14.00">partial</text>
</g>
<!-- initializer/mandlebrot/parse_args/accumulate_bounds_1 -->
<!-- initializer/mandlebrot/parse_args/accumulate_bounds_1&#45;&gt;/mandlebrot/parse_args/accumulate_bounds -->
<g id="edge10" class="edge">
<title>initializer/mandlebrot/parse_args/accumulate_bounds_1&#45;&gt;/mandlebrot/parse_args/accumulate_bounds:n</title>
<path fill="none" stroke="blue" stroke-dasharray="1,5" d="M3586.76,-186.64C3569.13,-175.15 3549.92,-158.17 3545.13,-136.84"/>
<polygon fill="blue" stroke="blue" points="3548.59,-136.29 3544,-126.74 3541.63,-137.07 3548.59,-136.29"/>
<text text-anchor="middle" x="3559.5" y="-148.54" font-family="Times,serif" font-size="14.00">[]</text>
</g>
<!-- initializer/mandlebrot/parse_args/accumulate_bounds_2 -->
<!-- initializer/mandlebrot/parse_args/accumulate_bounds_2&#45;&gt;/mandlebrot/parse_args/accumulate_bounds -->
<g id="edge11" class="edge">
<title>initializer/mandlebrot/parse_args/accumulate_bounds_2&#45;&gt;/mandlebrot/parse_args/accumulate_bounds:n</title>
<path fill="none" stroke="blue" d="M4030.21,-189.42C3862.89,-172.69 3604.81,-145.37 3553.17,-131.12"/>
<polygon fill="blue" stroke="blue" points="3554.53,-127.89 3544,-126.74 3551.52,-134.21 3554.53,-127.89"/>
<text text-anchor="middle" x="3753" y="-148.54" font-family="Times,serif" font-size="14.00">2</text>
</g>
</g>
</svg>
