<?xml version="1.0" encoding="UTF-8" standalone="no"?>
<!DOCTYPE svg PUBLIC "-//W3C//DTD SVG 1.1//EN"
 "http://www.w3.org/Graphics/SVG/1.1/DTD/svg11.dtd">
<!-- Generated by graphviz version 2.43.0 (0)
 -->
<!-- Title: parse_args Pages: 1 -->
<svg width="405pt" height="197pt"
 viewBox="28.80 28.80 376.29 167.80" xmlns="http://www.w3.org/2000/svg" xmlns:xlink="http://www.w3.org/1999/xlink">
<g id="graph0" class="graph" transform="scale(1 1) rotate(0) translate(32.8 163.8)">
<title>parse_args</title>
<polygon fill="white" stroke="transparent" points="-4,4 -4,-135 343.49,-135 343.49,4 -4,4"/>
<text text-anchor="middle" x="169.74" y="-115.8" font-family="Times,serif" font-size="14.00">parse_args</text>
<!-- /mandlebrot/parse_args/filename -->
<g id="node1" class="node">
<title>/mandlebrot/parse_args/filename</title>
<polygon fill="black" stroke="black" points="0.14,-12.44 61.86,0 123.58,-12.44 123.52,-32.56 0.2,-32.56 0.14,-12.44"/>
<text text-anchor="middle" x="61.86" y="-14.3" font-family="Times,serif" font-size="14.00" fill="white">filename</text>
</g>
<!-- /mandlebrot/parse_args/size -->
<g id="node2" class="node">
<title>/mandlebrot/parse_args/size</title>
<polygon fill="black" stroke="black" points="141.66,-12.44 176.86,0 212.06,-12.44 212.02,-32.56 141.7,-32.56 141.66,-12.44"/>
<text text-anchor="middle" x="176.86" y="-14.3" font-family="Times,serif" font-size="14.00" fill="white">size</text>
</g>
<!-- /mandlebrot/parse_args/bounds -->
<g id="node3" class="node">
<title>/mandlebrot/parse_args/bounds</title>
<polygon fill="black" stroke="black" points="230.1,-12.44 284.86,0 339.62,-12.44 339.57,-32.56 230.15,-32.56 230.1,-12.44"/>
<text text-anchor="middle" x="284.86" y="-14.3" font-family="Times,serif" font-size="14.00" fill="white">bounds</text>
</g>
<!-- /mandlebrot/parse_args/get -->
<g id="node4" class="node">
<title>/mandlebrot/parse_args/get</title>
<g id="a_node4"><a xlink:href="../../flowr/src/bin/flowrcli/context/args/get.html" xlink:title="get">
<polygon fill="white" stroke="black" points="112.59,-84.44 144.86,-72 177.13,-84.44 177.1,-104.56 112.62,-104.56 112.59,-84.44"/>
<text text-anchor="middle" x="144.86" y="-86.3" font-family="Times,serif" font-size="14.00">get</text>
</a>
</g>
</g>
<!-- /mandlebrot/parse_args/get&#45;&gt;/mandlebrot/parse_args/filename -->
<g id="edge1" class="edge">
<title>/mandlebrot/parse_args/get:e&#45;&gt;/mandlebrot/parse_args/filename:n</title>
<path fill="none" stroke="black" d="M177.86,-90C185.87,-90 181.73,-78.36 176.86,-72 146.56,-32.44 73.8,-79.69 63.17,-44.22"/>
<polygon fill="black" stroke="black" points="66.6,-43.48 61.86,-34 59.66,-44.36 66.6,-43.48"/>
<text text-anchor="middle" x="87.75" y="-59.72" font-family="Times,serif" font-size="14.00">string[1]</text>
</g>
<!-- /mandlebrot/parse_args/get&#45;&gt;/mandlebrot/parse_args/size -->
<g id="edge2" class="edge">
<title>/mandlebrot/parse_args/get:e&#45;&gt;/mandlebrot/parse_args/size:n</title>
<path fill="none" stroke="black" d="M177.86,-90C199.45,-90 182.84,-66.61 178.05,-44.16"/>
<polygon fill="black" stroke="black" points="181.5,-43.52 176.86,-34 174.55,-44.34 181.5,-43.52"/>
<text text-anchor="middle" x="158.62" y="-49.72" font-family="Times,serif" font-size="14.00">json[2]</text>
</g>
<!-- /mandlebrot/parse_args/get&#45;&gt;/mandlebrot/parse_args/bounds -->
<g id="edge3" class="edge">
<title>/mandlebrot/parse_args/get:e&#45;&gt;/mandlebrot/parse_args/bounds:n</title>
<path fill="none" stroke="black" d="M177.86,-90C227.97,-90 277.78,-87.97 284.17,-44.03"/>
<polygon fill="black" stroke="black" points="287.66,-44.22 284.86,-34 280.68,-43.74 287.66,-44.22"/>
<text text-anchor="middle" x="222.92" y="-87.29" font-family="Times,serif" font-size="14.00">json[3]</text>
</g>
</g>
</svg>
