<?xml version="1.0" encoding="UTF-8" standalone="no"?>
<!DOCTYPE svg PUBLIC "-//W3C//DTD SVG 1.1//EN"
 "http://www.w3.org/Graphics/SVG/1.1/DTD/svg11.dtd">
<!-- Generated by graphviz version 2.43.0 (0)
 -->
<!-- Title: render Pages: 1 -->
<svg width="1149pt" height="301pt"
 viewBox="28.80 28.80 1120.39 272.55" xmlns="http://www.w3.org/2000/svg" xmlns:xlink="http://www.w3.org/1999/xlink">
<g id="graph0" class="graph" transform="scale(1 1) rotate(0) translate(32.8 268.55)">
<title>render</title>
<polygon fill="white" stroke="transparent" points="-4,4 -4,-239.75 1087.59,-239.75 1087.59,4 -4,4"/>
<text text-anchor="middle" x="541.79" y="-220.55" font-family="Times,serif" font-size="14.00">render</text>
<!-- /mandlebrot/render/filename -->
<g id="node1" class="node">
<title>/mandlebrot/render/filename</title>
<polygon fill="white" stroke="black" points="150.82,-200.31 89.1,-212.75 27.38,-200.31 27.43,-180.19 150.76,-180.19 150.82,-200.31"/>
<text text-anchor="middle" x="89.1" y="-191.05" font-family="Times,serif" font-size="14.00">filename</text>
</g>
<!-- /mandlebrot/render/size -->
<g id="node2" class="node">
<title>/mandlebrot/render/size</title>
<polygon fill="white" stroke="black" points="239.29,-200.31 204.1,-212.75 168.9,-200.31 168.93,-180.19 239.26,-180.19 239.29,-200.31"/>
<text text-anchor="middle" x="204.1" y="-191.05" font-family="Times,serif" font-size="14.00">size</text>
</g>
<!-- /mandlebrot/render/bounds -->
<g id="node3" class="node">
<title>/mandlebrot/render/bounds</title>
<polygon fill="white" stroke="black" points="366.85,-200.31 312.1,-212.75 257.34,-200.31 257.39,-180.19 366.8,-180.19 366.85,-200.31"/>
<text text-anchor="middle" x="312.1" y="-191.05" font-family="Times,serif" font-size="14.00">bounds</text>
</g>
<!-- /mandlebrot/render/pixel -->
<g id="node4" class="node">
<title>/mandlebrot/render/pixel</title>
<polygon fill="white" stroke="black" points="467.04,-200.31 426.1,-212.75 385.15,-200.31 385.19,-180.19 467,-180.19 467.04,-200.31"/>
<text text-anchor="middle" x="426.1" y="-191.05" font-family="Times,serif" font-size="14.00">pixel</text>
</g>
<!-- /mandlebrot/render/p2p -->
<g id="node5" class="node">
<title>/mandlebrot/render/p2p</title>
<g id="a_node5"><a xlink:href="../../../flowsamples/mandlebrot/pixel_to_point/pixel_to_point.html" xlink:title="p2p\n(pixel_to_point)">
<ellipse fill="coral" stroke="black" cx="89.1" cy="-113.88" rx="89.19" ry="26.74"/>
<text text-anchor="middle" x="89.1" y="-117.68" font-family="Times,serif" font-size="14.00">p2p</text>
<text text-anchor="middle" x="89.1" y="-102.68" font-family="Times,serif" font-size="14.00">(pixel_to_point)</text>
</a>
</g>
</g>
<!-- /mandlebrot/render/p2v/ -->
<g id="node10" class="node">
<title>/mandlebrot/render/p2v/</title>
<ellipse fill="none" stroke="black" cx="160.1" cy="-33.01" rx="124.28" ry="18"/>
<text text-anchor="middle" x="160.1" y="-29.31" font-family="Times,serif" font-size="14.00">/mandlebrot/render/p2v/</text>
</g>
<!-- /mandlebrot/render/p2p&#45;&gt;/mandlebrot/render/p2v/ -->
<g id="edge6" class="edge">
<title>/mandlebrot/render/p2p:e&#45;&gt;/mandlebrot/render/p2v/:ne</title>
<path fill="none" stroke="black" d="M179.1,-113.88C203.77,-113.88 199.5,-80.28 184.56,-58.81"/>
<polygon fill="black" stroke="black" points="187.17,-56.47 178.1,-51.01 181.78,-60.94 187.17,-56.47"/>
<text text-anchor="middle" x="138.6" y="-54.81" font-family="Times,serif" font-size="14.00">pixel_point</text>
</g>
<!-- /mandlebrot/render/p2v -->
<g id="node6" class="node">
<title>/mandlebrot/render/p2v</title>
<g id="a_node6"><a xlink:href="../../../flowsamples/mandlebrot/escapes/escapes.html" xlink:title="p2v\n(escapes)">
<ellipse fill="coral" stroke="black" cx="420.1" cy="-113.88" rx="58.88" ry="26.74"/>
<text text-anchor="middle" x="420.1" y="-117.68" font-family="Times,serif" font-size="14.00">p2v</text>
<text text-anchor="middle" x="420.1" y="-102.68" font-family="Times,serif" font-size="14.00">(escapes)</text>
</a>
</g>
</g>
<!-- /mandlebrot/render/image_buffer/ -->
<g id="node11" class="node">
<title>/mandlebrot/render/image_buffer/</title>
<ellipse fill="none" stroke="black" cx="470.1" cy="-33.01" rx="167.87" ry="18"/>
<text text-anchor="middle" x="470.1" y="-29.31" font-family="Times,serif" font-size="14.00">/mandlebrot/render/image_buffer/</text>
</g>
<!-- /mandlebrot/render/p2v&#45;&gt;/mandlebrot/render/image_buffer/ -->
<g id="edge11" class="edge">
<title>/mandlebrot/render/p2v:e&#45;&gt;/mandlebrot/render/image_buffer/:ne</title>
<path fill="none" stroke="black" d="M480.1,-113.88C504.85,-113.88 507.66,-80.7 494.45,-59.14"/>
<polygon fill="black" stroke="black" points="497.01,-56.73 488.1,-51.01 491.5,-61.04 497.01,-56.73"/>
<text text-anchor="middle" x="491.82" y="-84.04" font-family="Times,serif" font-size="14.00">[0]</text>
<text text-anchor="middle" x="470.6" y="-54.81" font-family="Times,serif" font-size="14.00">pixel</text>
</g>
<!-- /mandlebrot/render/p2v&#45;&gt;/mandlebrot/render/image_buffer/ -->
<g id="edge12" class="edge">
<title>/mandlebrot/render/p2v:e&#45;&gt;/mandlebrot/render/image_buffer/:n</title>
<path fill="none" stroke="black" d="M480.1,-113.88C492.05,-113.88 480.78,-98.84 479.1,-87.01 477.34,-74.63 473.08,-69.81 471.11,-61.02"/>
<polygon fill="black" stroke="black" points="474.59,-60.6 470.1,-51.01 467.63,-61.31 474.59,-60.6"/>
<text text-anchor="middle" x="468.11" y="-70.52" font-family="Times,serif" font-size="14.00">[1]</text>
<text text-anchor="middle" x="450.6" y="-54.81" font-family="Times,serif" font-size="14.00">value</text>
</g>
<!-- /mandlebrot/render/image_buffer -->
<g id="node7" class="node">
<title>/mandlebrot/render/image_buffer</title>
<g id="a_node7"><a xlink:href="../../../flowr/src/cli/image/image_buffer.html" xlink:title="image_buffer">
<ellipse fill="coral" stroke="black" cx="1012.1" cy="-33.01" rx="71.49" ry="18"/>
<text text-anchor="middle" x="1012.1" y="-29.31" font-family="Times,serif" font-size="14.00">image_buffer</text>
</a>
</g>
</g>
<!-- /mandlebrot/render/ -->
<g id="node8" class="node">
<title>/mandlebrot/render/</title>
<ellipse fill="none" stroke="black" cx="655.1" cy="-113.88" rx="104.78" ry="18"/>
<text text-anchor="middle" x="655.1" y="-110.18" font-family="Times,serif" font-size="14.00">/mandlebrot/render/</text>
</g>
<!-- /mandlebrot/render/p2p/ -->
<g id="node9" class="node">
<title>/mandlebrot/render/p2p/</title>
<ellipse fill="none" stroke="black" cx="780.1" cy="-33.01" rx="124.58" ry="18"/>
<text text-anchor="middle" x="780.1" y="-29.31" font-family="Times,serif" font-size="14.00">/mandlebrot/render/p2p/</text>
</g>
<!-- /mandlebrot/render/&#45;&gt;/mandlebrot/render/p2p/ -->
<g id="edge1" class="edge">
<title>/mandlebrot/render/:s&#45;&gt;/mandlebrot/render/p2p/:n</title>
<path fill="none" stroke="black" d="M655.1,-94.88C655.1,-39.91 764.05,-100.66 778.51,-61.06"/>
<polygon fill="black" stroke="black" points="782,-61.43 780.1,-51.01 775.08,-60.34 782,-61.43"/>
<text text-anchor="middle" x="691.52" y="-76.73" font-family="Times,serif" font-size="14.00">bounds</text>
<text text-anchor="middle" x="754.1" y="-54.81" font-family="Times,serif" font-size="14.00">bounds</text>
</g>
<!-- /mandlebrot/render/&#45;&gt;/mandlebrot/render/p2p/ -->
<g id="edge3" class="edge">
<title>/mandlebrot/render/:s&#45;&gt;/mandlebrot/render/p2p/:w</title>
<path fill="none" stroke="black" d="M655.1,-94.88C655.1,-84.78 647.14,-56.15 648.36,-41.65"/>
<polygon fill="black" stroke="black" points="651.48,-43.27 654.1,-33.01 645.65,-39.4 651.48,-43.27"/>
<text text-anchor="middle" x="636.35" y="-68.41" font-family="Times,serif" font-size="14.00">size</text>
<text text-anchor="middle" x="640.1" y="-36.81" font-family="Times,serif" font-size="14.00">size</text>
</g>
<!-- /mandlebrot/render/&#45;&gt;/mandlebrot/render/p2p/ -->
<g id="edge5" class="edge">
<title>/mandlebrot/render/:s&#45;&gt;/mandlebrot/render/p2p/:ne</title>
<path fill="none" stroke="black" d="M655.1,-94.88C655.1,-32.81 820.71,-89.37 804.45,-58.9"/>
<polygon fill="black" stroke="black" points="807.09,-56.6 798.1,-51.01 801.64,-60.99 807.09,-56.6"/>
<text text-anchor="middle" x="744.59" y="-68.34" font-family="Times,serif" font-size="14.00">pixel</text>
<text text-anchor="middle" x="815.6" y="-54.81" font-family="Times,serif" font-size="14.00">pixel</text>
</g>
<!-- /mandlebrot/render/&#45;&gt;/mandlebrot/render/image_buffer/ -->
<g id="edge7" class="edge">
<title>/mandlebrot/render/:s&#45;&gt;/mandlebrot/render/image_buffer/:nw</title>
<path fill="none" stroke="black" d="M655.1,-94.88C655.1,-6.72 410.39,-106.48 445.26,-58.75"/>
<polygon fill="black" stroke="black" points="448.11,-60.82 452.1,-51.01 442.86,-56.19 448.11,-60.82"/>
<text text-anchor="middle" x="521.64" y="-63.5" font-family="Times,serif" font-size="14.00">filename</text>
<text text-anchor="middle" x="421.6" y="-54.81" font-family="Times,serif" font-size="14.00">filename</text>
</g>
<!-- /mandlebrot/render/&#45;&gt;/mandlebrot/render/image_buffer/ -->
<g id="edge9" class="edge">
<title>/mandlebrot/render/:s&#45;&gt;/mandlebrot/render/image_buffer/:w</title>
<path fill="none" stroke="black" d="M655.1,-94.88C655.1,-15.83 356.05,-108.77 302.1,-51.01 299.96,-48.72 298.12,-45.47 297.14,-42.37"/>
<polygon fill="black" stroke="black" points="300.43,-43.58 301.1,-33.01 293.98,-40.86 300.43,-43.58"/>
<text text-anchor="middle" x="492.19" y="-70.34" font-family="Times,serif" font-size="14.00">size</text>
<text text-anchor="middle" x="287.1" y="-36.81" font-family="Times,serif" font-size="14.00">size</text>
</g>
<!-- /mandlebrot/render/p2p/&#45;&gt;/mandlebrot/render/p2p/ -->
<g id="edge2" class="edge">
<title>/mandlebrot/render/p2p/:s&#45;&gt;/mandlebrot/render/p2p/:n</title>
<path fill="none" stroke="black" d="M780.1,-15.01C827.69,4.99 922.88,4.99 922.88,-33.01 922.88,-68.63 839.22,-70.86 789.54,-54.52"/>
<polygon fill="black" stroke="black" points="790.69,-51.21 780.1,-51.01 788.25,-57.77 790.69,-51.21"/>
<text text-anchor="middle" x="754.11" y="-3.8" font-family="Times,serif" font-size="14.00">bounds</text>
<text text-anchor="middle" x="806.1" y="-54.81" font-family="Times,serif" font-size="14.00">bounds</text>
</g>
<!-- /mandlebrot/render/p2p/&#45;&gt;/mandlebrot/render/p2p/ -->
<g id="edge4" class="edge">
<title>/mandlebrot/render/p2p/:e&#45;&gt;/mandlebrot/render/p2p/:w</title>
<path fill="none" stroke="black" d="M905.1,-33.01C922.88,-52.34 922.88,-91.01 780.1,-91.01 655.71,-91.01 639.68,-61.67 649.37,-41.32"/>
<polygon fill="black" stroke="black" points="652.31,-43.23 655.1,-33.01 646.54,-39.26 652.31,-43.23"/>
<text text-anchor="middle" x="793.73" y="-94.81" font-family="Times,serif" font-size="14.00">size</text>
<text text-anchor="middle" x="641.1" y="-21.81" font-family="Times,serif" font-size="14.00">size</text>
</g>
<!-- /mandlebrot/render/image_buffer/&#45;&gt;/mandlebrot/render/image_buffer/ -->
<g id="edge8" class="edge">
<title>/mandlebrot/render/image_buffer/:sw&#45;&gt;/mandlebrot/render/image_buffer/:nw</title>
<path fill="none" stroke="black" d="M452.1,-15.01C390.2,4.99 284.41,4.99 284.41,-33.01 284.41,-69.08 379.73,-70.91 442.35,-53.9"/>
<polygon fill="black" stroke="black" points="443.5,-57.2 452.1,-51.01 441.51,-50.49 443.5,-57.2"/>
<text text-anchor="middle" x="421.57" y="-3.8" font-family="Times,serif" font-size="14.00">filename</text>
<text text-anchor="middle" x="421.6" y="-39.81" font-family="Times,serif" font-size="14.00">filename</text>
</g>
<!-- /mandlebrot/render/image_buffer/&#45;&gt;/mandlebrot/render/image_buffer/ -->
<g id="edge10" class="edge">
<title>/mandlebrot/render/image_buffer/:e&#45;&gt;/mandlebrot/render/image_buffer/:w</title>
<path fill="none" stroke="black" d="M638.1,-33.01C655.78,-52.34 655.78,-91.01 470.1,-91.01 308.35,-91.01 287.5,-61.67 296.5,-41.32"/>
<polygon fill="black" stroke="black" points="299.41,-43.26 302.1,-33.01 293.61,-39.35 299.41,-43.26"/>
<text text-anchor="middle" x="455.62" y="-79.81" font-family="Times,serif" font-size="14.00">size</text>
<text text-anchor="middle" x="288.1" y="-21.81" font-family="Times,serif" font-size="14.00">size</text>
</g>
</g>
</svg>
