<?xml version="1.0" encoding="UTF-8" standalone="no"?>
<!DOCTYPE svg PUBLIC "-//W3C//DTD SVG 1.1//EN"
 "http://www.w3.org/Graphics/SVG/1.1/DTD/svg11.dtd">
<!-- Generated by graphviz version 2.43.0 (0)
 -->
<!-- Title: render Pages: 1 -->
<svg width="505pt" height="388pt"
 viewBox="28.80 28.80 476.63 359.29" xmlns="http://www.w3.org/2000/svg" xmlns:xlink="http://www.w3.org/1999/xlink">
<g id="graph0" class="graph" transform="scale(1 1) rotate(0) translate(32.8 355.29)">
<title>render</title>
<polygon fill="white" stroke="transparent" points="-4,4 -4,-326.49 443.83,-326.49 443.83,4 -4,4"/>
<text text-anchor="middle" x="219.92" y="-307.29" font-family="Times,serif" font-size="14.00">render</text>
<!-- /mandlebrot/render/filename -->
<g id="node1" class="node">
<title>/mandlebrot/render/filename</title>
<polygon fill="white" stroke="black" points="123.58,-287.06 61.86,-299.49 0.14,-287.06 0.2,-266.93 123.52,-266.93 123.58,-287.06"/>
<text text-anchor="middle" x="61.86" y="-277.79" font-family="Times,serif" font-size="14.00">filename</text>
</g>
<!-- /mandlebrot/render/image_buffer -->
<g id="node7" class="node">
<title>/mandlebrot/render/image_buffer</title>
<g id="a_node7"><a xlink:href="../../flowr/src/bin/flowrcli/cli/image/image_buffer.html" xlink:title="image_buffer">
<polygon fill="black" stroke="black" points="350.1,-35.58 261.86,-48.01 173.62,-35.58 173.7,-15.45 350.02,-15.45 350.1,-35.58"/>
<text text-anchor="middle" x="261.86" y="-26.31" font-family="Times,serif" font-size="14.00" fill="white">image_buffer</text>
</a>
</g>
</g>
<!-- /mandlebrot/render/filename&#45;&gt;/mandlebrot/render/image_buffer -->
<g id="edge7" class="edge">
<title>/mandlebrot/render/filename:s&#45;&gt;/mandlebrot/render/image_buffer:nw</title>
<path fill="none" stroke="black" d="M61.86,-265.49C61.86,-166.54 119.99,-153.08 190.86,-84.01 209.32,-66.02 221.63,-67.14 238.38,-53.74"/>
<polygon fill="black" stroke="black" points="240.77,-56.3 245.86,-47.01 236.08,-51.1 240.77,-56.3"/>
<text text-anchor="middle" x="215.36" y="-50.81" font-family="Times,serif" font-size="14.00">filename</text>
</g>
<!-- /mandlebrot/render/size -->
<g id="node2" class="node">
<title>/mandlebrot/render/size</title>
<polygon fill="white" stroke="black" points="212.06,-287.06 176.86,-299.49 141.66,-287.06 141.7,-266.93 212.02,-266.93 212.06,-287.06"/>
<text text-anchor="middle" x="176.86" y="-277.79" font-family="Times,serif" font-size="14.00">size</text>
</g>
<!-- /mandlebrot/render/p2p -->
<g id="node5" class="node">
<title>/mandlebrot/render/p2p</title>
<g id="a_node5"><a xlink:href="pixel_to_point/pixel_to_point.html" xlink:title="p2p\n(pixel_to_point)">
<ellipse fill="coral" stroke="black" cx="274.86" cy="-200.62" rx="89.19" ry="26.74"/>
<text text-anchor="middle" x="274.86" y="-204.42" font-family="Times,serif" font-size="14.00">p2p</text>
<text text-anchor="middle" x="274.86" y="-189.42" font-family="Times,serif" font-size="14.00">(pixel_to_point)</text>
</a>
</g>
</g>
<!-- /mandlebrot/render/size&#45;&gt;/mandlebrot/render/p2p -->
<g id="edge3" class="edge">
<title>/mandlebrot/render/size:s&#45;&gt;/mandlebrot/render/p2p:w</title>
<path fill="none" stroke="black" d="M176.86,-265.49C176.86,-240.76 161.6,-211.11 175,-202.85"/>
<polygon fill="black" stroke="black" points="175.88,-206.24 184.86,-200.62 174.33,-199.42 175.88,-206.24"/>
<text text-anchor="middle" x="170.86" y="-204.42" font-family="Times,serif" font-size="14.00">size</text>
</g>
<!-- /mandlebrot/render/size&#45;&gt;/mandlebrot/render/image_buffer -->
<g id="edge9" class="edge">
<title>/mandlebrot/render/size:s&#45;&gt;/mandlebrot/render/image_buffer:w</title>
<path fill="none" stroke="black" d="M176.86,-265.49C176.86,-164.4 75.49,-38.93 162.86,-30.47"/>
<polygon fill="black" stroke="black" points="163.03,-33.96 172.86,-30.01 162.71,-26.97 163.03,-33.96"/>
<text text-anchor="middle" x="158.86" y="-33.81" font-family="Times,serif" font-size="14.00">size</text>
</g>
<!-- /mandlebrot/render/bounds -->
<g id="node3" class="node">
<title>/mandlebrot/render/bounds</title>
<polygon fill="white" stroke="black" points="339.62,-287.06 284.86,-299.49 230.1,-287.06 230.15,-266.93 339.57,-266.93 339.62,-287.06"/>
<text text-anchor="middle" x="284.86" y="-277.79" font-family="Times,serif" font-size="14.00">bounds</text>
</g>
<!-- /mandlebrot/render/bounds&#45;&gt;/mandlebrot/render/p2p -->
<g id="edge1" class="edge">
<title>/mandlebrot/render/bounds:s&#45;&gt;/mandlebrot/render/p2p:n</title>
<path fill="none" stroke="black" d="M284.86,-265.49C284.86,-251.99 278.88,-247.09 276.17,-237.48"/>
<polygon fill="black" stroke="black" points="279.63,-236.96 274.86,-227.49 272.69,-237.86 279.63,-236.96"/>
<text text-anchor="middle" x="248.86" y="-231.29" font-family="Times,serif" font-size="14.00">bounds</text>
</g>
<!-- /mandlebrot/render/pixel -->
<g id="node4" class="node">
<title>/mandlebrot/render/pixel</title>
<polygon fill="white" stroke="black" points="439.8,-287.06 398.86,-299.49 357.92,-287.06 357.95,-266.93 439.77,-266.93 439.8,-287.06"/>
<text text-anchor="middle" x="398.86" y="-277.79" font-family="Times,serif" font-size="14.00">pixel</text>
</g>
<!-- /mandlebrot/render/pixel&#45;&gt;/mandlebrot/render/p2p -->
<g id="edge5" class="edge">
<title>/mandlebrot/render/pixel:s&#45;&gt;/mandlebrot/render/p2p:ne</title>
<path fill="none" stroke="black" d="M398.86,-265.49C398.86,-222.43 343.65,-254.54 309.14,-233.95"/>
<polygon fill="black" stroke="black" points="310.9,-230.88 300.86,-227.49 306.6,-236.4 310.9,-230.88"/>
<text text-anchor="middle" x="318.36" y="-231.29" font-family="Times,serif" font-size="14.00">pixel</text>
</g>
<!-- /mandlebrot/render/p2p&#45;&gt;/mandlebrot/render/p2p -->
<g id="edge2" class="edge">
<title>/mandlebrot/render/p2p:s&#45;&gt;/mandlebrot/render/p2p:n</title>
<path fill="none" stroke="black" d="M274.86,-173.62C310.56,-153.62 381.96,-153.62 381.96,-200.62 381.96,-243.77 321.79,-247.31 284.31,-232.13"/>
<polygon fill="black" stroke="black" points="285.39,-228.77 274.86,-227.62 282.38,-235.09 285.39,-228.77"/>
<text text-anchor="middle" x="248.87" y="-162.42" font-family="Times,serif" font-size="14.00">bounds</text>
<text text-anchor="middle" x="300.86" y="-231.42" font-family="Times,serif" font-size="14.00">bounds</text>
</g>
<!-- /mandlebrot/render/p2p&#45;&gt;/mandlebrot/render/p2p -->
<g id="edge4" class="edge">
<title>/mandlebrot/render/p2p:e&#45;&gt;/mandlebrot/render/p2p:w</title>
<path fill="none" stroke="black" d="M363.86,-200.62C381.96,-222.91 381.96,-267.49 274.86,-267.49 180.31,-267.49 169.23,-232.75 180.39,-209.27"/>
<polygon fill="black" stroke="black" points="183.47,-210.95 185.86,-200.62 177.55,-207.2 183.47,-210.95"/>
<text text-anchor="middle" x="260.58" y="-256.29" font-family="Times,serif" font-size="14.00">size</text>
<text text-anchor="middle" x="171.86" y="-189.42" font-family="Times,serif" font-size="14.00">size</text>
</g>
<!-- /mandlebrot/render/p2v -->
<g id="node6" class="node">
<title>/mandlebrot/render/p2v</title>
<g id="a_node6"><a xlink:href="escapes/escapes.html" xlink:title="p2v\n(escapes)">
<ellipse fill="coral" stroke="black" cx="258.86" cy="-110.88" rx="58.88" ry="26.74"/>
<text text-anchor="middle" x="258.86" y="-114.68" font-family="Times,serif" font-size="14.00">p2v</text>
<text text-anchor="middle" x="258.86" y="-99.68" font-family="Times,serif" font-size="14.00">(escapes)</text>
</a>
</g>
</g>
<!-- /mandlebrot/render/p2p&#45;&gt;/mandlebrot/render/p2v -->
<g id="edge6" class="edge">
<title>/mandlebrot/render/p2p:e&#45;&gt;/mandlebrot/render/p2v:ne</title>
<path fill="none" stroke="black" d="M364.86,-200.62C376.81,-200.62 370.49,-183.7 363.86,-173.75 344.18,-144.24 317.2,-160.67 291.71,-143.41"/>
<polygon fill="black" stroke="black" points="293.79,-140.59 283.86,-136.88 289.31,-145.97 293.79,-140.59"/>
<text text-anchor="middle" x="323.36" y="-140.68" font-family="Times,serif" font-size="14.00">pixel_point</text>
</g>
<!-- /mandlebrot/render/p2v&#45;&gt;/mandlebrot/render/image_buffer -->
<g id="edge11" class="edge">
<title>/mandlebrot/render/p2v:e&#45;&gt;/mandlebrot/render/image_buffer:ne</title>
<path fill="none" stroke="black" d="M318.86,-110.88C330.81,-110.88 322.85,-94.87 317.86,-84.01 309.33,-65.45 298.91,-64.06 285.57,-53.8"/>
<polygon fill="black" stroke="black" points="287.68,-50.99 277.86,-47.01 283.06,-56.25 287.68,-50.99"/>
<text text-anchor="middle" x="297.88" y="-73.24" font-family="Times,serif" font-size="14.00">[0]</text>
<text text-anchor="middle" x="295.36" y="-50.81" font-family="Times,serif" font-size="14.00">pixel</text>
</g>
<!-- /mandlebrot/render/p2v&#45;&gt;/mandlebrot/render/image_buffer -->
<g id="edge12" class="edge">
<title>/mandlebrot/render/p2v:e&#45;&gt;/mandlebrot/render/image_buffer:n</title>
<path fill="none" stroke="black" d="M318.86,-110.88C330.81,-110.88 323.78,-94.4 317.86,-84.01 305.26,-61.93 272.96,-73.07 264.12,-57.86"/>
<polygon fill="black" stroke="black" points="267.51,-56.98 261.86,-48.01 260.69,-58.54 267.51,-56.98"/>
<text text-anchor="middle" x="282.61" y="-72.71" font-family="Times,serif" font-size="14.00">[1]</text>
<text text-anchor="middle" x="242.36" y="-51.81" font-family="Times,serif" font-size="14.00">value</text>
</g>
<!-- /mandlebrot/render/image_buffer&#45;&gt;/mandlebrot/render/image_buffer -->
<g id="edge8" class="edge">
<title>/mandlebrot/render/image_buffer:sw&#45;&gt;/mandlebrot/render/image_buffer:nw</title>
<path fill="none" stroke="black" d="M246.86,-15.01C211.4,4.99 155.49,4.99 155.49,-30.51 155.49,-63.1 201.76,-65.78 236.78,-50.52"/>
<polygon fill="black" stroke="black" points="238.46,-53.6 245.86,-46.01 235.35,-47.33 238.46,-53.6"/>
<text text-anchor="middle" x="277.33" y="-3.8" font-family="Times,serif" font-size="14.00">filename</text>
<text text-anchor="middle" x="276.36" y="-49.81" font-family="Times,serif" font-size="14.00">filename</text>
</g>
<!-- /mandlebrot/render/image_buffer&#45;&gt;/mandlebrot/render/image_buffer -->
<g id="edge10" class="edge">
<title>/mandlebrot/render/image_buffer:e&#45;&gt;/mandlebrot/render/image_buffer:w</title>
<path fill="none" stroke="black" d="M349.86,-30.01C368.23,-49.35 368.23,-88.01 261.86,-88.01 169.2,-88.01 157.26,-58.67 167.86,-38.33"/>
<polygon fill="black" stroke="black" points="170.85,-40.17 173.86,-30.01 165.17,-36.08 170.85,-40.17"/>
<text text-anchor="middle" x="247.59" y="-76.81" font-family="Times,serif" font-size="14.00">size</text>
<text text-anchor="middle" x="159.86" y="-18.81" font-family="Times,serif" font-size="14.00">size</text>
</g>
</g>
</svg>
