<?xml version="1.0" encoding="UTF-8" standalone="no"?>
<!DOCTYPE svg PUBLIC "-//W3C//DTD SVG 1.1//EN"
 "http://www.w3.org/Graphics/SVG/1.1/DTD/svg11.dtd">
<!-- Generated by graphviz version 2.43.0 (0)
 -->
<!-- Title: mandlebrot Pages: 1 -->
<svg width="800pt" height="377pt"
 viewBox="28.80 28.80 770.94 347.80" xmlns="http://www.w3.org/2000/svg" xmlns:xlink="http://www.w3.org/1999/xlink">
<g id="graph0" class="graph" transform="scale(1 1) rotate(0) translate(32.8 343.8)">
<title>mandlebrot</title>
<polygon fill="white" stroke="transparent" points="-4,4 -4,-315 738.14,-315 738.14,4 -4,4"/>
<text text-anchor="middle" x="367.07" y="-295.8" font-family="Times,serif" font-size="14.00">mandlebrot</text>
<!-- /mandlebrot/parse_args -->
<g id="node1" class="node">
<title>/mandlebrot/parse_args</title>
<g id="a_node1"><a xlink:href="parse_args.dot.svg" xlink:title="parse_args">
<ellipse fill="aquamarine" stroke="black" cx="72" cy="-216" rx="72" ry="72"/>
<text text-anchor="middle" x="72" y="-212.3" font-family="Times,serif" font-size="14.00">parse_args</text>
</a>
</g>
</g>
<!-- /mandlebrot/generate_pixels -->
<g id="node2" class="node">
<title>/mandlebrot/generate_pixels</title>
<g id="a_node2"><a xlink:href="generate_pixels.dot.svg" xlink:title="generate_pixels">
<ellipse fill="aquamarine" stroke="black" cx="234" cy="-216" rx="72" ry="72"/>
<text text-anchor="middle" x="234" y="-212.3" font-family="Times,serif" font-size="14.00">generate_pixels</text>
</a>
</g>
</g>
<!-- /mandlebrot/render -->
<g id="node3" class="node">
<title>/mandlebrot/render</title>
<g id="a_node3"><a xlink:href="render.dot.svg" xlink:title="render">
<ellipse fill="aquamarine" stroke="black" cx="396" cy="-216" rx="72" ry="72"/>
<text text-anchor="middle" x="396" y="-212.3" font-family="Times,serif" font-size="14.00">render</text>
</a>
</g>
</g>
<!-- /mandlebrot/parse_args/ -->
<g id="node4" class="node">
<title>/mandlebrot/parse_args/</title>
<ellipse fill="none" stroke="black" cx="610" cy="-216" rx="124.28" ry="18"/>
<text text-anchor="middle" x="610" y="-212.3" font-family="Times,serif" font-size="14.00">/mandlebrot/parse_args/</text>
</g>
<!-- /mandlebrot/generate_pixels/ -->
<g id="node5" class="node">
<title>/mandlebrot/generate_pixels/</title>
<ellipse fill="none" stroke="black" cx="418" cy="-90" rx="146.47" ry="18"/>
<text text-anchor="middle" x="418" y="-86.3" font-family="Times,serif" font-size="14.00">/mandlebrot/generate_pixels/</text>
</g>
<!-- /mandlebrot/parse_args/&#45;&gt;/mandlebrot/generate_pixels/ -->
<g id="edge1" class="edge">
<title>/mandlebrot/parse_args/:s&#45;&gt;/mandlebrot/generate_pixels/:n</title>
<path fill="none" stroke="black" d="M610,-197C610,-153.46 445.44,-154.56 421.02,-117.65"/>
<polygon fill="black" stroke="black" points="424.32,-116.5 418,-108 417.64,-118.59 424.32,-116.5"/>
<text text-anchor="middle" x="499.75" y="-156.25" font-family="Times,serif" font-size="14.00">size</text>
<text text-anchor="middle" x="404" y="-111.8" font-family="Times,serif" font-size="14.00">size</text>
</g>
<!-- /mandlebrot/render/ -->
<g id="node6" class="node">
<title>/mandlebrot/render/</title>
<ellipse fill="none" stroke="black" cx="610" cy="-18" rx="104.78" ry="18"/>
<text text-anchor="middle" x="610" y="-14.3" font-family="Times,serif" font-size="14.00">/mandlebrot/render/</text>
</g>
<!-- /mandlebrot/parse_args/&#45;&gt;/mandlebrot/render/ -->
<g id="edge2" class="edge">
<title>/mandlebrot/parse_args/:s&#45;&gt;/mandlebrot/render/:n</title>
<path fill="none" stroke="black" d="M610,-197C610,-128.94 610,-109.43 610,-46.11"/>
<polygon fill="black" stroke="black" points="613.5,-46 610,-36 606.5,-46 613.5,-46"/>
<text text-anchor="middle" x="579.5" y="-120.09" font-family="Times,serif" font-size="14.00">filename</text>
<text text-anchor="middle" x="579.5" y="-39.8" font-family="Times,serif" font-size="14.00">filename</text>
</g>
<!-- /mandlebrot/parse_args/&#45;&gt;/mandlebrot/render/ -->
<g id="edge3" class="edge">
<title>/mandlebrot/parse_args/:s&#45;&gt;/mandlebrot/render/:n</title>
<path fill="none" stroke="black" d="M610,-197C601.44,-128.94 601.02,-109.43 608.75,-46.11"/>
<polygon fill="black" stroke="black" points="612.24,-46.35 610,-36 605.3,-45.49 612.24,-46.35"/>
<text text-anchor="middle" x="589.25" y="-105.09" font-family="Times,serif" font-size="14.00">size</text>
<text text-anchor="middle" x="624" y="-39.8" font-family="Times,serif" font-size="14.00">size</text>
</g>
<!-- /mandlebrot/parse_args/&#45;&gt;/mandlebrot/render/ -->
<g id="edge4" class="edge">
<title>/mandlebrot/parse_args/:s&#45;&gt;/mandlebrot/render/:n</title>
<path fill="none" stroke="black" d="M610,-197C618.56,-128.94 618.98,-109.43 611.25,-46.11"/>
<polygon fill="black" stroke="black" points="614.7,-45.49 610,-36 607.76,-46.35 614.7,-45.49"/>
<text text-anchor="middle" x="642.75" y="-120.09" font-family="Times,serif" font-size="14.00">bounds</text>
<text text-anchor="middle" x="636" y="-39.8" font-family="Times,serif" font-size="14.00">bounds</text>
</g>
<!-- /mandlebrot/generate_pixels/&#45;&gt;/mandlebrot/render/ -->
<g id="edge5" class="edge">
<title>/mandlebrot/generate_pixels/:s&#45;&gt;/mandlebrot/render/:n</title>
<path fill="none" stroke="black" d="M418,-72C418,11.09 593.85,-111.41 608.97,-45.98"/>
<polygon fill="black" stroke="black" points="612.45,-46.31 610,-36 605.49,-45.59 612.45,-46.31"/>
<text text-anchor="middle" x="492.23" y="-57.73" font-family="Times,serif" font-size="14.00">pixels</text>
<text text-anchor="middle" x="592.5" y="-39.8" font-family="Times,serif" font-size="14.00">pixel</text>
</g>
</g>
</svg>
