<?xml version="1.0" encoding="UTF-8" standalone="no"?>
<!DOCTYPE svg PUBLIC "-//W3C//DTD SVG 1.1//EN"
 "http://www.w3.org/Graphics/SVG/1.1/DTD/svg11.dtd">
<!-- Generated by graphviz version 2.43.0 (0)
 -->
<!-- Title: mandlebrot Pages: 1 -->
<svg width="2019pt" height="305pt"
 viewBox="28.80 28.80 1990.33 275.80" xmlns="http://www.w3.org/2000/svg" xmlns:xlink="http://www.w3.org/1999/xlink">
<g id="graph0" class="graph" transform="scale(1 1) rotate(0) translate(32.8 271.8)">
<title>mandlebrot</title>
<polygon fill="white" stroke="transparent" points="-4,4 -4,-243 1957.53,-243 1957.53,4 -4,4"/>
<text text-anchor="middle" x="976.77" y="-223.8" font-family="Times,serif" font-size="14.00">mandlebrot</text>
<!-- /mandlebrot/parse_args -->
<g id="node1" class="node">
<title>/mandlebrot/parse_args</title>
<g id="a_node1"><a xlink:href="parse_args.toml.dot.svg" xlink:title="parse_args">
<ellipse fill="aquamarine" stroke="black" cx="72" cy="-144" rx="72" ry="72"/>
<text text-anchor="middle" x="72" y="-140.3" font-family="Times,serif" font-size="14.00">parse_args</text>
</a>
</g>
</g>
<!-- /mandlebrot/generate_pixels -->
<g id="node2" class="node">
<title>/mandlebrot/generate_pixels</title>
<g id="a_node2"><a xlink:href="generate_pixels.toml.dot.svg" xlink:title="generate_pixels">
<ellipse fill="aquamarine" stroke="black" cx="234" cy="-144" rx="72" ry="72"/>
<text text-anchor="middle" x="234" y="-140.3" font-family="Times,serif" font-size="14.00">generate_pixels</text>
</a>
</g>
</g>
<!-- /mandlebrot/render -->
<g id="node3" class="node">
<title>/mandlebrot/render</title>
<g id="a_node3"><a xlink:href="render.toml.dot.svg" xlink:title="render">
<ellipse fill="aquamarine" stroke="black" cx="396" cy="-144" rx="72" ry="72"/>
<text text-anchor="middle" x="396" y="-140.3" font-family="Times,serif" font-size="14.00">render</text>
</a>
</g>
</g>
<!-- /mandlebrot/parse_args/size -->
<g id="node4" class="node">
<title>/mandlebrot/parse_args/size</title>
<ellipse fill="none" stroke="black" cx="628" cy="-144" rx="141.88" ry="18"/>
<text text-anchor="middle" x="628" y="-140.3" font-family="Times,serif" font-size="14.00">/mandlebrot/parse_args/size</text>
</g>
<!-- /mandlebrot/generate_pixels/size -->
<g id="node5" class="node">
<title>/mandlebrot/generate_pixels/size</title>
<ellipse fill="none" stroke="black" cx="485" cy="-18" rx="164.37" ry="18"/>
<text text-anchor="middle" x="485" y="-14.3" font-family="Times,serif" font-size="14.00">/mandlebrot/generate_pixels/size</text>
</g>
<!-- /mandlebrot/parse_args/size&#45;&gt;/mandlebrot/generate_pixels/size -->
<g id="edge1" class="edge">
<title>/mandlebrot/parse_args/size:s&#45;&gt;/mandlebrot/generate_pixels/size:n</title>
<path fill="none" stroke="black" d="M628,-125C628,-53.8 498.62,-105.25 485.99,-46.03"/>
<polygon fill="black" stroke="black" points="489.47,-45.61 485,-36 482.5,-46.3 489.47,-45.61"/>
</g>
<!-- /mandlebrot/render/size -->
<g id="node8" class="node">
<title>/mandlebrot/render/size</title>
<ellipse fill="none" stroke="black" cx="790" cy="-18" rx="122.38" ry="18"/>
<text text-anchor="middle" x="790" y="-14.3" font-family="Times,serif" font-size="14.00">/mandlebrot/render/size</text>
</g>
<!-- /mandlebrot/parse_args/size&#45;&gt;/mandlebrot/render/size -->
<g id="edge3" class="edge">
<title>/mandlebrot/parse_args/size:s&#45;&gt;/mandlebrot/render/size:n</title>
<path fill="none" stroke="black" d="M628,-125C628,-46.54 775.77,-111.7 789.05,-46.15"/>
<polygon fill="black" stroke="black" points="792.55,-46.28 790,-36 785.58,-45.63 792.55,-46.28"/>
</g>
<!-- /mandlebrot/parse_args/filename -->
<g id="node6" class="node">
<title>/mandlebrot/parse_args/filename</title>
<ellipse fill="none" stroke="black" cx="1093" cy="-144" rx="163.27" ry="18"/>
<text text-anchor="middle" x="1093" y="-140.3" font-family="Times,serif" font-size="14.00">/mandlebrot/parse_args/filename</text>
</g>
<!-- /mandlebrot/render/filename -->
<g id="node7" class="node">
<title>/mandlebrot/render/filename</title>
<ellipse fill="none" stroke="black" cx="1093" cy="-18" rx="143.77" ry="18"/>
<text text-anchor="middle" x="1093" y="-14.3" font-family="Times,serif" font-size="14.00">/mandlebrot/render/filename</text>
</g>
<!-- /mandlebrot/parse_args/filename&#45;&gt;/mandlebrot/render/filename -->
<g id="edge2" class="edge">
<title>/mandlebrot/parse_args/filename:s&#45;&gt;/mandlebrot/render/filename:n</title>
<path fill="none" stroke="black" d="M1093,-125C1093,-89.15 1093,-77.67 1093,-46.39"/>
<polygon fill="black" stroke="black" points="1096.5,-46 1093,-36 1089.5,-46 1096.5,-46"/>
</g>
<!-- /mandlebrot/parse_args/bounds -->
<g id="node9" class="node">
<title>/mandlebrot/parse_args/bounds</title>
<ellipse fill="none" stroke="black" cx="1431" cy="-144" rx="157.07" ry="18"/>
<text text-anchor="middle" x="1431" y="-140.3" font-family="Times,serif" font-size="14.00">/mandlebrot/parse_args/bounds</text>
</g>
<!-- /mandlebrot/render/bounds -->
<g id="node10" class="node">
<title>/mandlebrot/render/bounds</title>
<ellipse fill="none" stroke="black" cx="1431" cy="-18" rx="137.58" ry="18"/>
<text text-anchor="middle" x="1431" y="-14.3" font-family="Times,serif" font-size="14.00">/mandlebrot/render/bounds</text>
</g>
<!-- /mandlebrot/parse_args/bounds&#45;&gt;/mandlebrot/render/bounds -->
<g id="edge4" class="edge">
<title>/mandlebrot/parse_args/bounds:s&#45;&gt;/mandlebrot/render/bounds:n</title>
<path fill="none" stroke="black" d="M1431,-125C1431,-89.15 1431,-77.67 1431,-46.39"/>
<polygon fill="black" stroke="black" points="1434.5,-46 1431,-36 1427.5,-46 1434.5,-46"/>
</g>
<!-- /mandlebrot/generate_pixels/pixels -->
<g id="node11" class="node">
<title>/mandlebrot/generate_pixels/pixels</title>
<ellipse fill="none" stroke="black" cx="1780" cy="-144" rx="173.57" ry="18"/>
<text text-anchor="middle" x="1780" y="-140.3" font-family="Times,serif" font-size="14.00">/mandlebrot/generate_pixels/pixels</text>
</g>
<!-- /mandlebrot/render/pixel -->
<g id="node12" class="node">
<title>/mandlebrot/render/pixel</title>
<ellipse fill="none" stroke="black" cx="1780" cy="-18" rx="126.98" ry="18"/>
<text text-anchor="middle" x="1780" y="-14.3" font-family="Times,serif" font-size="14.00">/mandlebrot/render/pixel</text>
</g>
<!-- /mandlebrot/generate_pixels/pixels&#45;&gt;/mandlebrot/render/pixel -->
<g id="edge5" class="edge">
<title>/mandlebrot/generate_pixels/pixels:s&#45;&gt;/mandlebrot/render/pixel:n</title>
<path fill="none" stroke="black" d="M1780,-125C1780,-89.15 1780,-77.67 1780,-46.39"/>
<polygon fill="black" stroke="black" points="1783.5,-46 1780,-36 1776.5,-46 1783.5,-46"/>
</g>
</g>
</svg>
