<?xml version="1.0" encoding="UTF-8" standalone="no"?>
<!DOCTYPE svg PUBLIC "-//W3C//DTD SVG 1.1//EN"
 "http://www.w3.org/Graphics/SVG/1.1/DTD/svg11.dtd">
<!-- Generated by graphviz version 2.43.0 (0)
 -->
<!-- Title: y_sequence Pages: 1 -->
<svg width="1422pt" height="538pt"
 viewBox="28.80 28.80 1392.87 509.02" xmlns="http://www.w3.org/2000/svg" xmlns:xlink="http://www.w3.org/1999/xlink">
<g id="graph0" class="graph" transform="scale(1 1) rotate(0) translate(32.8 505.02)">
<title>y_sequence</title>
<polygon fill="white" stroke="transparent" points="-4,4 -4,-476.22 1360.07,-476.22 1360.07,4 -4,4"/>
<text text-anchor="middle" x="678.04" y="-457.02" font-family="Times,serif" font-size="14.00">y&#45;sequence</text>
<!-- /mandlebrot/generate_pixels/y&#45;sequence/start -->
<g id="node1" class="node">
<title>/mandlebrot/generate_pixels/y&#45;sequence/start</title>
<polygon fill="white" stroke="black" points="942.09,-436.78 901.14,-449.22 860.2,-436.78 860.24,-416.66 942.05,-416.66 942.09,-436.78"/>
<text text-anchor="middle" x="901.14" y="-427.52" font-family="Times,serif" font-size="14.00">start</text>
</g>
<!-- /mandlebrot/generate_pixels/y&#45;sequence/limit -->
<g id="node2" class="node">
<title>/mandlebrot/generate_pixels/y&#45;sequence/limit</title>
<polygon fill="white" stroke="black" points="1040.48,-436.78 1000.14,-449.22 959.8,-436.78 959.84,-416.66 1040.44,-416.66 1040.48,-436.78"/>
<text text-anchor="middle" x="1000.14" y="-427.52" font-family="Times,serif" font-size="14.00">limit</text>
</g>
<!-- /mandlebrot/generate_pixels/y&#45;sequence/step -->
<g id="node3" class="node">
<title>/mandlebrot/generate_pixels/y&#45;sequence/step</title>
<polygon fill="white" stroke="black" points="1133.66,-436.78 1096.14,-449.22 1058.62,-436.78 1058.66,-416.66 1133.63,-416.66 1133.66,-436.78"/>
<text text-anchor="middle" x="1096.14" y="-427.52" font-family="Times,serif" font-size="14.00">step</text>
</g>
<!-- /mandlebrot/generate_pixels/y&#45;sequence/sequence -->
<g id="node4" class="node">
<title>/mandlebrot/generate_pixels/y&#45;sequence/sequence</title>
<polygon fill="black" stroke="black" points="343.28,-12.44 410.14,0 477,-12.44 476.94,-32.56 343.34,-32.56 343.28,-12.44"/>
<text text-anchor="middle" x="410.14" y="-14.3" font-family="Times,serif" font-size="14.00" fill="white">sequence</text>
</g>
<!-- /mandlebrot/generate_pixels/y&#45;sequence/last -->
<g id="node5" class="node">
<title>/mandlebrot/generate_pixels/y&#45;sequence/last</title>
<polygon fill="black" stroke="black" points="494.55,-12.44 529.14,0 563.73,-12.44 563.7,-32.56 494.58,-32.56 494.55,-12.44"/>
<text text-anchor="middle" x="529.14" y="-14.3" font-family="Times,serif" font-size="14.00" fill="white">last</text>
</g>
<!-- /mandlebrot/generate_pixels/y&#45;sequence/compare_switch -->
<g id="node6" class="node">
<title>/mandlebrot/generate_pixels/y&#45;sequence/compare_switch</title>
<g id="a_node6"><a xlink:href="../../../target/flowstdlib/control/compare_switch/compare_switch.html" xlink:title="compare_switch">
<ellipse fill="coral" stroke="black" cx="85.14" cy="-260.61" rx="85.29" ry="18"/>
<text text-anchor="middle" x="85.14" y="-256.91" font-family="Times,serif" font-size="14.00">compare_switch</text>
</a>
</g>
</g>
<!-- /mandlebrot/generate_pixels/y&#45;sequence/add -->
<g id="node7" class="node">
<title>/mandlebrot/generate_pixels/y&#45;sequence/add</title>
<g id="a_node7"><a xlink:href="../../../target/flowstdlib/math/add/add.html" xlink:title="add">
<ellipse fill="coral" stroke="black" cx="248.14" cy="-179.74" rx="27.9" ry="18"/>
<text text-anchor="middle" x="248.14" y="-176.04" font-family="Times,serif" font-size="14.00">add</text>
</a>
</g>
</g>
<!-- /mandlebrot/generate_pixels/y&#45;sequence/next&#45;tap/ -->
<g id="node14" class="node">
<title>/mandlebrot/generate_pixels/y&#45;sequence/next&#45;tap/</title>
<ellipse fill="none" stroke="black" cx="410.14" cy="-98.87" rx="242.36" ry="18"/>
<text text-anchor="middle" x="410.14" y="-95.17" font-family="Times,serif" font-size="14.00">/mandlebrot/generate_pixels/y&#45;sequence/next&#45;tap/</text>
</g>
<!-- /mandlebrot/generate_pixels/y&#45;sequence/add&#45;&gt;/mandlebrot/generate_pixels/y&#45;sequence/next&#45;tap/ -->
<g id="edge7" class="edge">
<title>/mandlebrot/generate_pixels/y&#45;sequence/add:e&#45;&gt;/mandlebrot/generate_pixels/y&#45;sequence/next&#45;tap/:nw</title>
<path fill="none" stroke="black" d="M277.14,-179.74C285.9,-179.74 278.86,-167.84 285.14,-161.74 319.42,-128.45 351.03,-150.55 384.51,-124.62"/>
<polygon fill="black" stroke="black" points="386.97,-127.12 392.14,-117.87 382.33,-121.88 386.97,-127.12"/>
<text text-anchor="middle" x="376.14" y="-121.67" font-family="Times,serif" font-size="14.00">data</text>
</g>
<!-- /mandlebrot/generate_pixels/y&#45;sequence/next&#45;tap -->
<g id="node8" class="node">
<title>/mandlebrot/generate_pixels/y&#45;sequence/next&#45;tap</title>
<g id="a_node8"><a xlink:href="../../../target/flowstdlib/control/tap/tap.html" xlink:title="next&#45;tap\n(tap)">
<ellipse fill="coral" stroke="black" cx="1174.14" cy="-350.35" rx="53.98" ry="26.74"/>
<text text-anchor="middle" x="1174.14" y="-354.15" font-family="Times,serif" font-size="14.00">next&#45;tap</text>
<text text-anchor="middle" x="1174.14" y="-339.15" font-family="Times,serif" font-size="14.00">(tap)</text>
</a>
</g>
</g>
<!-- /mandlebrot/generate_pixels/y&#45;sequence/compare_switch/ -->
<g id="node12" class="node">
<title>/mandlebrot/generate_pixels/y&#45;sequence/compare_switch/</title>
<ellipse fill="none" stroke="black" cx="901.14" cy="-260.61" rx="278.35" ry="18"/>
<text text-anchor="middle" x="901.14" y="-256.91" font-family="Times,serif" font-size="14.00">/mandlebrot/generate_pixels/y&#45;sequence/compare_switch/</text>
</g>
<!-- /mandlebrot/generate_pixels/y&#45;sequence/next&#45;tap&#45;&gt;/mandlebrot/generate_pixels/y&#45;sequence/compare_switch/ -->
<g id="edge9" class="edge">
<title>/mandlebrot/generate_pixels/y&#45;sequence/next&#45;tap:e&#45;&gt;/mandlebrot/generate_pixels/y&#45;sequence/compare_switch/:ne</title>
<path fill="none" stroke="black" d="M1229.14,-350.35C1241.09,-350.35 1236.14,-332.36 1228.14,-323.48 1137.64,-223.06 1023.2,-369.88 926.65,-286.6"/>
<polygon fill="black" stroke="black" points="928.85,-283.86 919.14,-279.61 924.08,-288.98 928.85,-283.86"/>
<text text-anchor="middle" x="901.14" y="-283.41" font-family="Times,serif" font-size="14.00">right</text>
</g>
<!-- /mandlebrot/generate_pixels/y&#45;sequence/step&#45;tap -->
<g id="node9" class="node">
<title>/mandlebrot/generate_pixels/y&#45;sequence/step&#45;tap</title>
<g id="a_node9"><a xlink:href="../../../target/flowstdlib/control/tap/tap.html" xlink:title="step&#45;tap\n(tap)">
<ellipse fill="coral" stroke="black" cx="241.14" cy="-260.61" rx="53.07" ry="26.74"/>
<text text-anchor="middle" x="241.14" y="-264.41" font-family="Times,serif" font-size="14.00">step&#45;tap</text>
<text text-anchor="middle" x="241.14" y="-249.41" font-family="Times,serif" font-size="14.00">(tap)</text>
</a>
</g>
</g>
<!-- /mandlebrot/generate_pixels/y&#45;sequence/add/ -->
<g id="node13" class="node">
<title>/mandlebrot/generate_pixels/y&#45;sequence/add/</title>
<ellipse fill="none" stroke="black" cx="515.14" cy="-179.74" rx="220.96" ry="18"/>
<text text-anchor="middle" x="515.14" y="-176.04" font-family="Times,serif" font-size="14.00">/mandlebrot/generate_pixels/y&#45;sequence/add/</text>
</g>
<!-- /mandlebrot/generate_pixels/y&#45;sequence/step&#45;tap&#45;&gt;/mandlebrot/generate_pixels/y&#45;sequence/add/ -->
<g id="edge11" class="edge">
<title>/mandlebrot/generate_pixels/y&#45;sequence/step&#45;tap:e&#45;&gt;/mandlebrot/generate_pixels/y&#45;sequence/add/:w</title>
<path fill="none" stroke="black" d="M295.14,-260.61C309.4,-260.61 288.48,-209.76 288.18,-188.7"/>
<polygon fill="black" stroke="black" points="291.36,-190.18 293.14,-179.74 285.23,-186.79 291.36,-190.18"/>
<text text-anchor="middle" x="286.14" y="-183.54" font-family="Times,serif" font-size="14.00">i2</text>
</g>
<!-- /mandlebrot/generate_pixels/y&#45;sequence/not&#45;last -->
<g id="node10" class="node">
<title>/mandlebrot/generate_pixels/y&#45;sequence/not&#45;last</title>
<g id="a_node10"><a xlink:href="../../../target/flowstdlib/math/compare/compare.html" xlink:title="not&#45;last\n(compare)">
<ellipse fill="coral" stroke="black" cx="1293.14" cy="-98.87" rx="62.87" ry="26.74"/>
<text text-anchor="middle" x="1293.14" y="-102.67" font-family="Times,serif" font-size="14.00">not&#45;last</text>
<text text-anchor="middle" x="1293.14" y="-87.67" font-family="Times,serif" font-size="14.00">(compare)</text>
</a>
</g>
</g>
<!-- /mandlebrot/generate_pixels/y&#45;sequence/ -->
<g id="node11" class="node">
<title>/mandlebrot/generate_pixels/y&#45;sequence/</title>
<ellipse fill="none" stroke="black" cx="901.14" cy="-350.35" rx="200.66" ry="18"/>
<text text-anchor="middle" x="901.14" y="-346.65" font-family="Times,serif" font-size="14.00">/mandlebrot/generate_pixels/y&#45;sequence/</text>
</g>
<!-- /mandlebrot/generate_pixels/y&#45;sequence/&#45;&gt;/mandlebrot/generate_pixels/y&#45;sequence/compare_switch/ -->
<g id="edge1" class="edge">
<title>/mandlebrot/generate_pixels/y&#45;sequence/:s&#45;&gt;/mandlebrot/generate_pixels/y&#45;sequence/compare_switch/:ne</title>
<path fill="none" stroke="black" d="M901.14,-331.35C894.04,-312.14 914.47,-301.75 919.37,-289.76"/>
<polygon fill="black" stroke="black" points="922.86,-289.53 919.14,-279.61 915.86,-289.69 922.86,-289.53"/>
<text text-anchor="middle" x="891.1" y="-308.08" font-family="Times,serif" font-size="14.00">start</text>
<text text-anchor="middle" x="937.14" y="-283.41" font-family="Times,serif" font-size="14.00">right</text>
</g>
<!-- /mandlebrot/generate_pixels/y&#45;sequence/&#45;&gt;/mandlebrot/generate_pixels/y&#45;sequence/compare_switch/ -->
<g id="edge2" class="edge">
<title>/mandlebrot/generate_pixels/y&#45;sequence/:s&#45;&gt;/mandlebrot/generate_pixels/y&#45;sequence/compare_switch/:ne</title>
<path fill="none" stroke="black" d="M901.14,-331.35C908.88,-310.43 935.97,-299.97 926.8,-286.51"/>
<polygon fill="black" stroke="black" points="928.91,-283.71 919.14,-279.61 924.23,-288.91 928.91,-283.71"/>
<text text-anchor="middle" x="937.33" y="-309.91" font-family="Times,serif" font-size="14.00">limit</text>
<text text-anchor="middle" x="906.64" y="-268.41" font-family="Times,serif" font-size="14.00">left</text>
</g>
<!-- /mandlebrot/generate_pixels/y&#45;sequence/&#45;&gt;/mandlebrot/generate_pixels/y&#45;sequence/add/ -->
<g id="edge5" class="edge">
<title>/mandlebrot/generate_pixels/y&#45;sequence/:s&#45;&gt;/mandlebrot/generate_pixels/y&#45;sequence/add/:w</title>
<path fill="none" stroke="black" d="M901.14,-331.35C901.14,-266.83 677.21,-301.09 614.14,-287.48 469.76,-256.32 386.61,-312.92 294.14,-197.74 292.26,-195.4 290.52,-192.28 289.51,-189.3"/>
<polygon fill="black" stroke="black" points="292.86,-190.33 293.14,-179.74 286.32,-187.84 292.86,-190.33"/>
<text text-anchor="middle" x="577.11" y="-287.18" font-family="Times,serif" font-size="14.00">step</text>
<text text-anchor="middle" x="286.14" y="-168.54" font-family="Times,serif" font-size="14.00">i2</text>
</g>
<!-- /mandlebrot/generate_pixels/y&#45;sequence/compare_switch/&#45;&gt;/mandlebrot/generate_pixels/y&#45;sequence/ -->
<g id="edge3" class="edge">
<title>/mandlebrot/generate_pixels/y&#45;sequence/compare_switch/:s&#45;&gt;/mandlebrot/generate_pixels/y&#45;sequence/:n</title>
<path fill="none" stroke="black" d="M901.14,-241.61C892.14,-226.16 1159.41,-231.66 1170.32,-242.61 1181.61,-253.94 1177.91,-264.53 1170.32,-278.61 1153.11,-310.54 1122.48,-293.44 1102.14,-323.48 1090.73,-340.34 1108.71,-355.44 1092.97,-368.35 1078.15,-380.51 940.49,-388.99 907.77,-376.97"/>
<polygon fill="black" stroke="black" points="910.35,-374.6 901.14,-369.35 905.07,-379.19 910.35,-374.6"/>
<text text-anchor="middle" x="871.64" y="-230.41" font-family="Times,serif" font-size="14.00">right&#45;lte</text>
<text text-anchor="middle" x="867.64" y="-373.15" font-family="Times,serif" font-size="14.00">sequence</text>
</g>
<!-- /mandlebrot/generate_pixels/y&#45;sequence/compare_switch/&#45;&gt;/mandlebrot/generate_pixels/y&#45;sequence/ -->
<g id="edge15" class="edge">
<title>/mandlebrot/generate_pixels/y&#45;sequence/compare_switch/:s&#45;&gt;/mandlebrot/generate_pixels/y&#45;sequence/:n</title>
<path fill="none" stroke="black" d="M901.14,-241.61C910.14,-226.16 1177.41,-231.66 1188.32,-242.61 1199.61,-253.94 1195.91,-264.53 1188.32,-278.61 1171.11,-310.54 1140.48,-293.44 1120.14,-323.48 1108.73,-340.34 1126.71,-355.44 1110.97,-368.35 1095.54,-381.01 947.02,-389.68 909.42,-375.39"/>
<polygon fill="black" stroke="black" points="911.28,-372.42 901.14,-369.35 907.15,-378.07 911.28,-372.42"/>
<text text-anchor="middle" x="933.14" y="-230.41" font-family="Times,serif" font-size="14.00">right&#45;gte</text>
<text text-anchor="middle" x="914.64" y="-373.15" font-family="Times,serif" font-size="14.00">last</text>
</g>
<!-- /mandlebrot/generate_pixels/y&#45;sequence/compare_switch/&#45;&gt;/mandlebrot/generate_pixels/y&#45;sequence/compare_switch/ -->
<g id="edge4" class="edge">
<title>/mandlebrot/generate_pixels/y&#45;sequence/compare_switch/:s&#45;&gt;/mandlebrot/generate_pixels/y&#45;sequence/compare_switch/:ne</title>
<path fill="none" stroke="black" d="M901.14,-242.61C999.87,-222.61 1197.32,-222.61 1197.32,-260.61 1197.32,-297.35 1029.59,-298.57 929.23,-280.54"/>
<polygon fill="black" stroke="black" points="929.62,-277.05 919.14,-278.61 928.31,-283.92 929.62,-277.05"/>
<text text-anchor="middle" x="884.44" y="-245.37" font-family="Times,serif" font-size="14.00">left&#45;gt</text>
<text text-anchor="middle" x="931.64" y="-282.41" font-family="Times,serif" font-size="14.00">left</text>
</g>
<!-- /mandlebrot/generate_pixels/y&#45;sequence/compare_switch/&#45;&gt;/mandlebrot/generate_pixels/y&#45;sequence/add/ -->
<g id="edge6" class="edge">
<title>/mandlebrot/generate_pixels/y&#45;sequence/compare_switch/:se&#45;&gt;/mandlebrot/generate_pixels/y&#45;sequence/add/:ne</title>
<path fill="none" stroke="black" d="M919.14,-241.61C1038.85,-121.91 670.12,-312.13 540.59,-204.53"/>
<polygon fill="black" stroke="black" points="542.89,-201.89 533.14,-197.74 538.18,-207.06 542.89,-201.89"/>
<text text-anchor="middle" x="709.58" y="-223.62" font-family="Times,serif" font-size="14.00">right</text>
<text text-anchor="middle" x="526.14" y="-201.54" font-family="Times,serif" font-size="14.00">i1</text>
</g>
<!-- /mandlebrot/generate_pixels/y&#45;sequence/not&#45;last/ -->
<g id="node15" class="node">
<title>/mandlebrot/generate_pixels/y&#45;sequence/not&#45;last/</title>
<ellipse fill="none" stroke="black" cx="993.14" cy="-179.74" rx="239.36" ry="18"/>
<text text-anchor="middle" x="993.14" y="-176.04" font-family="Times,serif" font-size="14.00">/mandlebrot/generate_pixels/y&#45;sequence/not&#45;last/</text>
</g>
<!-- /mandlebrot/generate_pixels/y&#45;sequence/compare_switch/&#45;&gt;/mandlebrot/generate_pixels/y&#45;sequence/not&#45;last/ -->
<g id="edge12" class="edge">
<title>/mandlebrot/generate_pixels/y&#45;sequence/compare_switch/:se&#45;&gt;/mandlebrot/generate_pixels/y&#45;sequence/not&#45;last/:ne</title>
<path fill="none" stroke="black" d="M919.14,-241.61C939.39,-213.46 1012.9,-225.65 1014.78,-207.26"/>
<polygon fill="black" stroke="black" points="1017.98,-205.84 1011.14,-197.74 1011.44,-208.33 1017.98,-205.84"/>
<text text-anchor="middle" x="952.84" y="-210.76" font-family="Times,serif" font-size="14.00">left</text>
<text text-anchor="middle" x="993.14" y="-201.54" font-family="Times,serif" font-size="14.00">right</text>
</g>
<!-- /mandlebrot/generate_pixels/y&#45;sequence/compare_switch/&#45;&gt;/mandlebrot/generate_pixels/y&#45;sequence/not&#45;last/ -->
<g id="edge13" class="edge">
<title>/mandlebrot/generate_pixels/y&#45;sequence/compare_switch/:se&#45;&gt;/mandlebrot/generate_pixels/y&#45;sequence/not&#45;last/:ne</title>
<path fill="none" stroke="black" d="M919.14,-241.61C956.81,-212.21 1037.42,-226.81 1018.66,-204.63"/>
<polygon fill="black" stroke="black" points="1020.88,-201.92 1011.14,-197.74 1016.15,-207.08 1020.88,-201.92"/>
<text text-anchor="middle" x="983.66" y="-227.72" font-family="Times,serif" font-size="14.00">right</text>
<text text-anchor="middle" x="1023.64" y="-201.54" font-family="Times,serif" font-size="14.00">left</text>
</g>
<!-- /mandlebrot/generate_pixels/y&#45;sequence/step&#45;tap/ -->
<g id="node16" class="node">
<title>/mandlebrot/generate_pixels/y&#45;sequence/step&#45;tap/</title>
<ellipse fill="none" stroke="black" cx="970.14" cy="-98.87" rx="241.56" ry="18"/>
<text text-anchor="middle" x="970.14" y="-95.17" font-family="Times,serif" font-size="14.00">/mandlebrot/generate_pixels/y&#45;sequence/step&#45;tap/</text>
</g>
<!-- /mandlebrot/generate_pixels/y&#45;sequence/add/&#45;&gt;/mandlebrot/generate_pixels/y&#45;sequence/step&#45;tap/ -->
<g id="edge10" class="edge">
<title>/mandlebrot/generate_pixels/y&#45;sequence/add/:e&#45;&gt;/mandlebrot/generate_pixels/y&#45;sequence/step&#45;tap/:nw</title>
<path fill="none" stroke="black" d="M737.14,-179.74C745.9,-179.74 738.34,-167.25 745.14,-161.74 815.51,-104.75 880.63,-178.49 944.74,-124.68"/>
<polygon fill="black" stroke="black" points="947.15,-127.21 952.14,-117.87 942.41,-122.06 947.15,-127.21"/>
<text text-anchor="middle" x="838.74" y="-145.6" font-family="Times,serif" font-size="14.00">i2</text>
<text text-anchor="middle" x="936.14" y="-121.67" font-family="Times,serif" font-size="14.00">data</text>
</g>
<!-- /mandlebrot/generate_pixels/y&#45;sequence/not&#45;last/&#45;&gt;/mandlebrot/generate_pixels/y&#45;sequence/next&#45;tap/ -->
<g id="edge8" class="edge">
<title>/mandlebrot/generate_pixels/y&#45;sequence/not&#45;last/:se&#45;&gt;/mandlebrot/generate_pixels/y&#45;sequence/next&#45;tap/:nw</title>
<path fill="none" stroke="black" d="M1011.14,-161.74C1105.8,-67.09 341.55,-206.74 385.87,-125.81"/>
<polygon fill="black" stroke="black" points="388.69,-127.89 392.14,-117.87 383.2,-123.55 388.69,-127.89"/>
<text text-anchor="middle" x="711.89" y="-142.43" font-family="Times,serif" font-size="14.00">lt</text>
<text text-anchor="middle" x="417.64" y="-121.67" font-family="Times,serif" font-size="14.00">control</text>
</g>
<!-- /mandlebrot/generate_pixels/y&#45;sequence/not&#45;last/&#45;&gt;/mandlebrot/generate_pixels/y&#45;sequence/step&#45;tap/ -->
<g id="edge14" class="edge">
<title>/mandlebrot/generate_pixels/y&#45;sequence/not&#45;last/:se&#45;&gt;/mandlebrot/generate_pixels/y&#45;sequence/step&#45;tap/:nw</title>
<path fill="none" stroke="black" d="M1011.14,-161.74C1030.28,-142.61 961.41,-140.92 950.3,-127.79"/>
<polygon fill="black" stroke="black" points="953.75,-128.34 952.14,-117.87 946.87,-127.06 953.75,-128.34"/>
<text text-anchor="middle" x="976.37" y="-143.66" font-family="Times,serif" font-size="14.00">lt</text>
<text text-anchor="middle" x="977.64" y="-121.67" font-family="Times,serif" font-size="14.00">control</text>
</g>
</g>
</svg>
