<?xml version="1.0" encoding="UTF-8" standalone="no"?>
<!DOCTYPE svg PUBLIC "-//W3C//DTD SVG 1.1//EN"
 "http://www.w3.org/Graphics/SVG/1.1/DTD/svg11.dtd">
<!-- Generated by graphviz version 2.44.0 (20200408.0750)
 -->
<!-- Title: index_f Pages: 1 -->
<svg width="567pt" height="339pt"
 viewBox="28.80 28.80 538.40 309.80" xmlns="http://www.w3.org/2000/svg" xmlns:xlink="http://www.w3.org/1999/xlink">
<g id="graph0" class="graph" transform="scale(1 1) rotate(0) translate(32.8 305.8)">
<title>index_f</title>
<polygon fill="white" stroke="transparent" points="-4,4 -4,-277 505.6,-277 505.6,4 -4,4"/>
<text text-anchor="middle" x="250.8" y="-257.8" font-family="Times,serif" font-size="14.00">index_f</text>
<!-- /index_f/value -->
<g id="node1" class="node">
<title>/index_f/value</title>
<polygon fill="white" stroke="black" points="73.87,-237.56 36.96,-250 0.04,-237.56 0.08,-217.44 73.83,-217.44 73.87,-237.56"/>
<text text-anchor="middle" x="36.96" y="-228.3" font-family="Times,serif" font-size="14.00">value</text>
</g>
<!-- /index_f/index -->
<g id="node4" class="node">
<title>/index_f/index</title>
<g id="a_node4"><a xlink:href="../../flowstdlib/control/index/index.html" xlink:title="index">
<ellipse fill="coral" stroke="black" cx="224.96" cy="-91" rx="30.59" ry="18"/>
<text text-anchor="middle" x="224.96" y="-87.3" font-family="Times,serif" font-size="14.00">index</text>
</a>
</g>
</g>
<!-- /index_f/value&#45;&gt;/index_f/index -->
<g id="edge3" class="edge">
<title>/index_f/value:s&#45;&gt;/index_f/index:n</title>
<path fill="none" stroke="black" d="M36.96,-216C36.96,-190.35 33.18,-178.5 50.96,-160 56.98,-153.73 182.28,-127.78 216.43,-114.33"/>
<polygon fill="black" stroke="black" points="218.33,-117.27 224.96,-109 214.62,-111.33 218.33,-117.27"/>
<text text-anchor="middle" x="209.96" y="-112.8" font-family="Times,serif" font-size="14.00">value</text>
</g>
<!-- /index_f/select_index -->
<g id="node2" class="node">
<title>/index_f/select_index</title>
<polygon fill="white" stroke="black" points="344.42,-237.56 276.96,-250 209.49,-237.56 209.55,-217.44 344.36,-217.44 344.42,-237.56"/>
<text text-anchor="middle" x="276.96" y="-228.3" font-family="Times,serif" font-size="14.00">select_index</text>
</g>
<!-- /index_f/select_index&#45;&gt;/index_f/index -->
<g id="edge4" class="edge">
<title>/index_f/select_index:s&#45;&gt;/index_f/index:n</title>
<path fill="none" stroke="black" d="M276.96,-216C276.96,-190.35 273.94,-183.18 262.96,-160 252.55,-138.05 231.96,-137.04 226.38,-119.25"/>
<polygon fill="black" stroke="black" points="229.8,-118.42 224.96,-109 222.87,-119.39 229.8,-118.42"/>
<text text-anchor="middle" x="258.96" y="-112.8" font-family="Times,serif" font-size="14.00">select_index</text>
</g>
<!-- /index_f/selected_value -->
<g id="node3" class="node">
<title>/index_f/selected_value</title>
<polygon fill="black" stroke="black" points="178.71,-12.44 255.96,0 333.2,-12.44 333.13,-32.56 178.78,-32.56 178.71,-12.44"/>
<text text-anchor="middle" x="255.96" y="-14.3" font-family="Times,serif" font-size="14.00" fill="white">selected_value</text>
</g>
<!-- /index_f/index&#45;&gt;/index_f/selected_value -->
<g id="edge7" class="edge">
<title>/index_f/index:e&#45;&gt;/index_f/selected_value:n</title>
<path fill="none" stroke="black" d="M256.96,-91C279.03,-91 261.89,-66.97 257.1,-44.03"/>
<polygon fill="black" stroke="black" points="260.57,-43.54 255.96,-34 253.61,-44.33 260.57,-43.54"/>
<text text-anchor="middle" x="222.29" y="-50.11" font-family="Times,serif" font-size="14.00">selected_value</text>
</g>
<!-- /index_f/index&#45;&gt;/index_f/index -->
<g id="edge5" class="edge">
<title>/index_f/index:s&#45;&gt;/index_f/index:nw</title>
<path fill="none" stroke="black" d="M224.96,-73C208.77,-64 176.41,-64 176.41,-90 176.41,-110.92 187,-115.01 199.58,-111.12"/>
<polygon fill="black" stroke="black" points="201.21,-114.22 208.96,-107 198.39,-107.81 201.21,-114.22"/>
<text text-anchor="middle" x="209.86" y="-61.75" font-family="Times,serif" font-size="14.00">value</text>
<text text-anchor="middle" x="167.46" y="-95.8" font-family="Times,serif" font-size="14.00">previous_value</text>
</g>
<!-- /index_f/index&#45;&gt;/index_f/index -->
<g id="edge6" class="edge">
<title>/index_f/index:sw&#45;&gt;/index_f/index:ne</title>
<path fill="none" stroke="black" d="M208.96,-75C176.41,-87 176.41,-127 224.96,-127 268,-127 272.88,-117.56 250.74,-109.85"/>
<polygon fill="black" stroke="black" points="251.53,-106.44 240.96,-107 249.58,-113.16 251.53,-106.44"/>
<text text-anchor="middle" x="193.43" y="-78.81" font-family="Times,serif" font-size="14.00">index</text>
<text text-anchor="middle" x="282.96" y="-95.8" font-family="Times,serif" font-size="14.00">previous_index</text>
</g>
<!-- initializer/index_f/index_1 -->
<!-- initializer/index_f/index_1&#45;&gt;/index_f/index -->
<g id="edge1" class="edge">
<title>initializer/index_f/index_1&#45;&gt;/index_f/index:nw</title>
<path fill="none" stroke="blue" stroke-dasharray="1,5" d="M167.75,-160.07C176.07,-147.6 188.41,-130.3 201.84,-115.48"/>
<polygon fill="blue" stroke="blue" points="204.6,-117.66 208.96,-108 199.53,-112.84 204.6,-117.66"/>
<text text-anchor="middle" x="198.96" y="-130.8" font-family="Times,serif" font-size="14.00">42</text>
</g>
<!-- initializer/index_f/index_2 -->
<!-- initializer/index_f/index_2&#45;&gt;/index_f/index -->
<g id="edge2" class="edge">
<title>initializer/index_f/index_2&#45;&gt;/index_f/index:ne</title>
<path fill="none" stroke="blue" stroke-dasharray="1,5" d="M364.31,-160.8C343.5,-150.67 315.86,-137.59 290.96,-127 272.67,-119.23 261.76,-122.92 248.86,-114.52"/>
<polygon fill="blue" stroke="blue" points="250.9,-111.67 240.96,-108 246.44,-117.06 250.9,-111.67"/>
<text text-anchor="middle" x="328.96" y="-130.8" font-family="Times,serif" font-size="14.00">&#45;1</text>
</g>
</g>
</svg>
