<?xml version="1.0" encoding="UTF-8" standalone="no"?>
<!DOCTYPE svg PUBLIC "-//W3C//DTD SVG 1.1//EN"
 "http://www.w3.org/Graphics/SVG/1.1/DTD/svg11.dtd">
<!-- Generated by graphviz version 2.43.0 (0)
 -->
<!-- Title: index_f Pages: 1 -->
<svg width="675pt" height="339pt"
 viewBox="28.80 28.80 645.97 309.80" xmlns="http://www.w3.org/2000/svg" xmlns:xlink="http://www.w3.org/1999/xlink">
<g id="graph0" class="graph" transform="scale(1 1) rotate(0) translate(32.8 305.8)">
<title>index_f</title>
<polygon fill="white" stroke="transparent" points="-4,4 -4,-277 613.17,-277 613.17,4 -4,4"/>
<text text-anchor="middle" x="304.59" y="-257.8" font-family="Times,serif" font-size="14.00">index_f</text>
<!-- /index_f/value -->
<g id="node1" class="node">
<title>/index_f/value</title>
<polygon fill="white" stroke="black" points="88.56,-237.56 44.19,-250 -0.19,-237.56 -0.14,-217.44 88.52,-217.44 88.56,-237.56"/>
<text text-anchor="middle" x="44.19" y="-228.3" font-family="Times,serif" font-size="14.00">value</text>
</g>
<!-- /index_f/index -->
<g id="node4" class="node">
<title>/index_f/index</title>
<g id="a_node4"><a xlink:href="../../flowstdlib/control/index/index.html" xlink:title="index">
<ellipse fill="coral" stroke="black" cx="269.19" cy="-91" rx="36.29" ry="18"/>
<text text-anchor="middle" x="269.19" y="-87.3" font-family="Times,serif" font-size="14.00">index</text>
</a>
</g>
</g>
<!-- /index_f/value&#45;&gt;/index_f/index -->
<g id="edge3" class="edge">
<title>/index_f/value:s&#45;&gt;/index_f/index:n</title>
<path fill="none" stroke="black" d="M44.19,-216C44.19,-190.35 39.97,-178.07 58.19,-160 65.68,-152.57 221.61,-128.33 260.47,-114.31"/>
<polygon fill="black" stroke="black" points="262.46,-117.19 269.19,-109 258.82,-111.21 262.46,-117.19"/>
<text text-anchor="middle" x="249.69" y="-112.8" font-family="Times,serif" font-size="14.00">value</text>
</g>
<!-- /index_f/select_index -->
<g id="node2" class="node">
<title>/index_f/select_index</title>
<polygon fill="white" stroke="black" points="417.79,-237.56 334.19,-250 250.58,-237.56 250.66,-217.44 417.71,-217.44 417.79,-237.56"/>
<text text-anchor="middle" x="334.19" y="-228.3" font-family="Times,serif" font-size="14.00">select_index</text>
</g>
<!-- /index_f/select_index&#45;&gt;/index_f/index -->
<g id="edge4" class="edge">
<title>/index_f/select_index:s&#45;&gt;/index_f/index:n</title>
<path fill="none" stroke="black" d="M334.19,-216C334.19,-190.35 332.83,-182.32 320.19,-160 306.3,-135.48 277.43,-139.43 270.64,-118.98"/>
<polygon fill="black" stroke="black" points="274.09,-118.39 269.19,-109 267.16,-119.4 274.09,-118.39"/>
<text text-anchor="middle" x="313.19" y="-112.8" font-family="Times,serif" font-size="14.00">select_index</text>
</g>
<!-- /index_f/selected_value -->
<g id="node3" class="node">
<title>/index_f/selected_value</title>
<polygon fill="black" stroke="black" points="208.77,-12.44 306.19,0 403.6,-12.44 403.51,-32.56 208.86,-32.56 208.77,-12.44"/>
<text text-anchor="middle" x="306.19" y="-14.3" font-family="Times,serif" font-size="14.00" fill="white">selected_value</text>
</g>
<!-- /index_f/index&#45;&gt;/index_f/selected_value -->
<g id="edge7" class="edge">
<title>/index_f/index:e&#45;&gt;/index_f/selected_value:n</title>
<path fill="none" stroke="black" d="M307.19,-91C329.26,-91 312.12,-66.97 307.33,-44.03"/>
<polygon fill="black" stroke="black" points="310.8,-43.54 306.19,-34 303.84,-44.33 310.8,-43.54"/>
<text text-anchor="middle" x="260.02" y="-50.11" font-family="Times,serif" font-size="14.00">selected_value</text>
</g>
<!-- /index_f/index&#45;&gt;/index_f/index -->
<g id="edge5" class="edge">
<title>/index_f/index:s&#45;&gt;/index_f/index:nw</title>
<path fill="none" stroke="black" d="M269.19,-73C251.05,-64 214.79,-64 214.79,-90 214.79,-111.53 228.69,-115.23 243.76,-110.76"/>
<polygon fill="black" stroke="black" points="245.19,-113.95 253.19,-107 242.6,-107.45 245.19,-113.95"/>
<text text-anchor="middle" x="249.47" y="-61.69" font-family="Times,serif" font-size="14.00">value</text>
<text text-anchor="middle" x="199.69" y="-95.8" font-family="Times,serif" font-size="14.00">previous_value</text>
</g>
<!-- /index_f/index&#45;&gt;/index_f/index -->
<g id="edge6" class="edge">
<title>/index_f/index:sw&#45;&gt;/index_f/index:ne</title>
<path fill="none" stroke="black" d="M253.19,-75C214.79,-87 214.79,-127 269.19,-127 318.48,-127 323.1,-117.14 294.96,-109.34"/>
<polygon fill="black" stroke="black" points="295.73,-105.93 285.19,-107 294.09,-112.73 295.73,-105.93"/>
<text text-anchor="middle" x="233.17" y="-78.8" font-family="Times,serif" font-size="14.00">index</text>
<text text-anchor="middle" x="339.19" y="-95.8" font-family="Times,serif" font-size="14.00">previous_index</text>
</g>
<!-- initializer/index_f/index_1 -->
<!-- initializer/index_f/index_1&#45;&gt;/index_f/index -->
<g id="edge1" class="edge">
<title>initializer/index_f/index_1&#45;&gt;/index_f/index:nw</title>
<path fill="none" stroke="blue" stroke-dasharray="1,5" d="M204.36,-159.94C215.32,-147.76 230.79,-130.87 245.85,-115.43"/>
<polygon fill="blue" stroke="blue" points="248.65,-117.58 253.19,-108 243.67,-112.66 248.65,-117.58"/>
<text text-anchor="middle" x="243.69" y="-130.8" font-family="Times,serif" font-size="14.00">42</text>
</g>
<!-- initializer/index_f/index_2 -->
<!-- initializer/index_f/index_2&#45;&gt;/index_f/index -->
<g id="edge2" class="edge">
<title>initializer/index_f/index_2&#45;&gt;/index_f/index:ne</title>
<path fill="none" stroke="blue" stroke-dasharray="1,5" d="M439.03,-160.82C413.25,-150.64 378.94,-137.49 348.19,-127 324.18,-118.81 309.98,-126.09 293.15,-114.68"/>
<polygon fill="blue" stroke="blue" points="295.1,-111.74 285.19,-108 290.6,-117.11 295.1,-111.74"/>
<text text-anchor="middle" x="394.19" y="-130.8" font-family="Times,serif" font-size="14.00">&#45;1</text>
</g>
</g>
</svg>
