<?xml version="1.0" encoding="UTF-8" standalone="no"?>
<!DOCTYPE svg PUBLIC "-//W3C//DTD SVG 1.1//EN"
 "http://www.w3.org/Graphics/SVG/1.1/DTD/svg11.dtd">
<!-- Generated by graphviz version 2.43.0 (0)
 -->
<!-- Title: router Pages: 1 -->
<svg width="1286pt" height="707pt"
 viewBox="0.00 0.00 1286.00 707.00" xmlns="http://www.w3.org/2000/svg" xmlns:xlink="http://www.w3.org/1999/xlink">
<g id="graph0" class="graph" transform="scale(1 1) rotate(0) translate(4 703)">
<title>router</title>
<polygon fill="white" stroke="transparent" points="-4,4 -4,-703 1282,-703 1282,4 -4,4"/>
<text text-anchor="middle" x="639" y="-683.8" font-family="Times,serif" font-size="14.00">/router</text>
<g id="clust1" class="cluster">
<title>cluster_A_tracker</title>
<polygon fill="none" stroke="black" points="8,-65 8,-526 717,-526 717,-65 8,-65"/>
<text text-anchor="middle" x="362.5" y="-510.8" font-family="Times,serif" font-size="14.00">/router/A_tracker</text>
</g>
<g id="clust2" class="cluster">
<title>cluster_B_tracker</title>
<polygon fill="none" stroke="black" points="730,-138 730,-432 1236,-432 1236,-138 730,-138"/>
<text text-anchor="middle" x="983" y="-416.8" font-family="Times,serif" font-size="14.00">/router/B_tracker</text>
</g>
<!-- r18 -->
<g id="node1" class="node">
<title>r18</title>
<g id="a_node1"><a xlink:href="file:///home/runner/work/flow/flow/flowr/src/cli/stdio/readline.html" xlink:title="readline (#18)">
<ellipse fill="coral" stroke="black" cx="444" cy="-658" rx="77.99" ry="18"/>
<text text-anchor="middle" x="444" y="-654.3" font-family="Times,serif" font-size="14.00">readline (#18)</text>
</a>
</g>
</g>
<!-- r16 -->
<g id="node2" class="node">
<title>r16</title>
<g id="a_node2"><a xlink:href="file:///home/runner/work/flow/flow/target/flowstdlib/data/accumulate/accumulate.html" xlink:title="accumulate_triples (#16)">
<ellipse fill="coral" stroke="black" cx="675" cy="-571" rx="128.08" ry="18"/>
<text text-anchor="middle" x="675" y="-567.3" font-family="Times,serif" font-size="14.00">accumulate_triples (#16)</text>
</a>
</g>
</g>
<!-- r18&#45;&gt;r16 -->
<g id="edge1" class="edge">
<title>r18:sw&#45;&gt;r16:n</title>
<path fill="none" stroke="black" d="M426,-640C407.94,-621.94 626.16,-617.93 668.1,-596.45"/>
<polygon fill="black" stroke="black" points="670.77,-598.71 675,-589 665.64,-593.96 670.77,-598.71"/>
<text text-anchor="middle" x="652" y="-592.8" font-family="Times,serif" font-size="14.00">values</text>
<text text-anchor="middle" x="409" y="-628.8" font-family="Times,serif" font-size="14.00">/json</text>
</g>
<!-- r16&#45;&gt;r16 -->
<g id="edge4" class="edge">
<title>r16:sw&#45;&gt;r16:ne</title>
<path fill="none" stroke="black" d="M657,-553C474.96,-565 474.96,-607 675,-607 871.23,-607 874.97,-595.45 703.2,-589.35"/>
<polygon fill="black" stroke="black" points="703.11,-585.84 693,-589 702.87,-592.84 703.11,-585.84"/>
<text text-anchor="middle" x="717" y="-592.8" font-family="Times,serif" font-size="14.00">partial</text>
<text text-anchor="middle" x="631" y="-541.8" font-family="Times,serif" font-size="14.00">/partial</text>
</g>
<!-- r4 -->
<g id="node5" class="node">
<title>r4</title>
<g id="a_node5"><a xlink:href="file:///home/runner/work/flow/flow/target/flowstdlib/math/add/add.html" xlink:title="forward_sum (#4)">
<ellipse fill="coral" stroke="black" cx="335" cy="-383" rx="94.78" ry="18"/>
<text text-anchor="middle" x="335" y="-379.3" font-family="Times,serif" font-size="14.00">forward_sum (#4)</text>
</a>
</g>
</g>
<!-- r16&#45;&gt;r4 -->
<g id="edge5" class="edge">
<title>r16:se&#45;&gt;r4:n</title>
<path fill="none" stroke="black" d="M693,-553C730.4,-515.6 665.33,-486.26 620,-459 567.79,-427.6 360.46,-462.2 337.14,-411.99"/>
<polygon fill="black" stroke="black" points="340.51,-411.05 335,-402 333.67,-412.51 340.51,-411.05"/>
<text text-anchor="middle" x="328" y="-405.8" font-family="Times,serif" font-size="14.00">i1</text>
<text text-anchor="middle" x="723.5" y="-541.8" font-family="Times,serif" font-size="14.00">/chunk/0</text>
</g>
<!-- r2 -->
<g id="node6" class="node">
<title>r2</title>
<g id="a_node6"><a xlink:href="file:///home/runner/work/flow/flow/target/flowstdlib/math/add/add.html" xlink:title="cross_distance (#2)">
<ellipse fill="coral" stroke="black" cx="482" cy="-477" rx="102.08" ry="18"/>
<text text-anchor="middle" x="482" y="-473.3" font-family="Times,serif" font-size="14.00">cross_distance (#2)</text>
</a>
</g>
</g>
<!-- r16&#45;&gt;r2 -->
<g id="edge6" class="edge">
<title>r16:se&#45;&gt;r2:ne</title>
<path fill="none" stroke="black" d="M693,-553C696.46,-549.54 549.13,-511.52 509.59,-499.42"/>
<polygon fill="black" stroke="black" points="510.59,-496.06 500,-496 508.24,-502.66 510.59,-496.06"/>
<text text-anchor="middle" x="493" y="-499.8" font-family="Times,serif" font-size="14.00">i2</text>
<text text-anchor="middle" x="662.5" y="-541.8" font-family="Times,serif" font-size="14.00">/chunk/1</text>
</g>
<!-- r16&#45;&gt;r2 -->
<g id="edge7" class="edge">
<title>r16:se&#45;&gt;r2:n</title>
<path fill="none" stroke="black" d="M693,-553C717.24,-528.76 651.15,-543.73 618,-535 560.75,-519.93 490.76,-554.4 482.76,-506.03"/>
<polygon fill="black" stroke="black" points="486.24,-505.71 482,-496 479.26,-506.23 486.24,-505.71"/>
<text text-anchor="middle" x="475" y="-499.8" font-family="Times,serif" font-size="14.00">i1</text>
<text text-anchor="middle" x="662.5" y="-556.8" font-family="Times,serif" font-size="14.00">/chunk/2</text>
</g>
<!-- r12 -->
<g id="node7" class="node">
<title>r12</title>
<g id="a_node7"><a xlink:href="file:///home/runner/work/flow/flow/target/flowstdlib/math/add/add.html" xlink:title="forward_sum (#12)">
<ellipse fill="coral" stroke="black" cx="839" cy="-383" rx="100.98" ry="18"/>
<text text-anchor="middle" x="839" y="-379.3" font-family="Times,serif" font-size="14.00">forward_sum (#12)</text>
</a>
</g>
</g>
<!-- r16&#45;&gt;r12 -->
<g id="edge8" class="edge">
<title>r16:se&#45;&gt;r12:n</title>
<path fill="none" stroke="black" d="M693,-553C711.19,-534.81 727.42,-550.43 748,-535 802.5,-494.12 835.65,-475.48 838.76,-412.12"/>
<polygon fill="black" stroke="black" points="842.26,-412.08 839,-402 835.26,-411.91 842.26,-412.08"/>
<text text-anchor="middle" x="832" y="-405.8" font-family="Times,serif" font-size="14.00">i1</text>
<text text-anchor="middle" x="723.5" y="-556.8" font-family="Times,serif" font-size="14.00">/chunk/1</text>
</g>
<!-- r10 -->
<g id="node8" class="node">
<title>r10</title>
<g id="a_node8"><a xlink:href="file:///home/runner/work/flow/flow/target/flowstdlib/math/add/add.html" xlink:title="cross_distance (#10)">
<ellipse fill="coral" stroke="black" cx="1120" cy="-383" rx="107.78" ry="18"/>
<text text-anchor="middle" x="1120" y="-379.3" font-family="Times,serif" font-size="14.00">cross_distance (#10)</text>
</a>
</g>
</g>
<!-- r16&#45;&gt;r10 -->
<g id="edge9" class="edge">
<title>r16:se&#45;&gt;r10:n</title>
<path fill="none" stroke="black" d="M693,-553C710.51,-535.49 778.62,-539.38 803,-535 949.86,-508.62 1112.2,-552.63 1119.73,-412.42"/>
<polygon fill="black" stroke="black" points="1123.24,-412.09 1120,-402 1116.24,-411.91 1123.24,-412.09"/>
<text text-anchor="middle" x="1113" y="-405.8" font-family="Times,serif" font-size="14.00">i1</text>
<text text-anchor="middle" x="723.5" y="-541.8" font-family="Times,serif" font-size="14.00">/chunk/2</text>
</g>
<!-- initializerr16_1 -->
<!-- initializerr16_1&#45;&gt;r16 -->
<g id="edge2" class="edge">
<title>initializerr16_1&#45;&gt;r16:n</title>
<path fill="none" stroke="blue" stroke-dasharray="1,5" d="M675,-639.95C675,-628.89 675,-613.87 675,-599.39"/>
<polygon fill="blue" stroke="blue" points="678.5,-599 675,-589 671.5,-599 678.5,-599"/>
<text text-anchor="middle" x="680.5" y="-610.8" font-family="Times,serif" font-size="14.00">[]</text>
</g>
<!-- initializerr16_2 -->
<!-- initializerr16_2&#45;&gt;r16 -->
<g id="edge3" class="edge">
<title>initializerr16_2&#45;&gt;r16:n</title>
<path fill="none" stroke="blue" d="M856.19,-644.32C798.5,-630.15 710.65,-607.56 683.37,-595.06"/>
<polygon fill="blue" stroke="blue" points="685.15,-592.03 675,-589 681.05,-597.7 685.15,-592.03"/>
<text text-anchor="middle" x="769" y="-610.8" font-family="Times,serif" font-size="14.00">3</text>
</g>
<!-- r1 -->
<g id="node10" class="node">
<title>r1</title>
<g id="a_node10"><a xlink:href="file:///home/runner/work/flow/flow/target/flowstdlib/math/compare/compare.html" xlink:title="compare (#1)">
<ellipse fill="coral" stroke="black" cx="216" cy="-310" rx="74.19" ry="18"/>
<text text-anchor="middle" x="216" y="-306.3" font-family="Times,serif" font-size="14.00">compare (#1)</text>
</a>
</g>
</g>
<!-- r4&#45;&gt;r1 -->
<g id="edge11" class="edge">
<title>r4:e&#45;&gt;r1:n</title>
<path fill="none" stroke="black" d="M431,-383C439.01,-383 435.33,-370.98 430,-365 400.41,-331.77 243.51,-369.38 219.17,-337.65"/>
<polygon fill="black" stroke="black" points="222.45,-336.41 216,-328 215.8,-338.59 222.45,-336.41"/>
<text text-anchor="middle" x="203.5" y="-331.8" font-family="Times,serif" font-size="14.00">left</text>
</g>
<!-- r7 -->
<g id="node11" class="node">
<title>r7</title>
<g id="a_node11"><a xlink:href="file:///home/runner/work/flow/flow/target/flowstdlib/control/select/select.html" xlink:title="select_total (#7)">
<ellipse fill="coral" stroke="black" cx="437" cy="-237" rx="87.18" ry="18"/>
<text text-anchor="middle" x="437" y="-233.3" font-family="Times,serif" font-size="14.00">select_total (#7)</text>
</a>
</g>
</g>
<!-- r4&#45;&gt;r7 -->
<g id="edge12" class="edge">
<title>r4:e&#45;&gt;r7:n</title>
<path fill="none" stroke="black" d="M431,-383C484.61,-383 442.6,-320.03 437.49,-265.14"/>
<polygon fill="black" stroke="black" points="440.98,-264.82 437,-255 433.99,-265.16 440.98,-264.82"/>
<text text-anchor="middle" x="430" y="-258.8" font-family="Times,serif" font-size="14.00">i1</text>
</g>
<!-- r3 -->
<g id="node9" class="node">
<title>r3</title>
<g id="a_node9"><a xlink:href="file:///home/runner/work/flow/flow/target/flowstdlib/math/add/add.html" xlink:title="cross_sum (#3)">
<ellipse fill="coral" stroke="black" cx="584" cy="-383" rx="82.59" ry="18"/>
<text text-anchor="middle" x="584" y="-379.3" font-family="Times,serif" font-size="14.00">cross_sum (#3)</text>
</a>
</g>
</g>
<!-- r2&#45;&gt;r3 -->
<g id="edge10" class="edge">
<title>r2:e&#45;&gt;r3:n</title>
<path fill="none" stroke="black" d="M585,-477C614.95,-477 590.28,-443.37 584.96,-412.36"/>
<polygon fill="black" stroke="black" points="588.4,-411.64 584,-402 581.43,-412.28 588.4,-411.64"/>
<text text-anchor="middle" x="577" y="-405.8" font-family="Times,serif" font-size="14.00">i1</text>
</g>
<!-- r9 -->
<g id="node19" class="node">
<title>r9</title>
<g id="a_node19"><a xlink:href="file:///home/runner/work/flow/flow/target/flowstdlib/math/compare/compare.html" xlink:title="compare (#9)">
<ellipse fill="coral" stroke="black" cx="1043" cy="-310" rx="74.19" ry="18"/>
<text text-anchor="middle" x="1043" y="-306.3" font-family="Times,serif" font-size="14.00">compare (#9)</text>
</a>
</g>
</g>
<!-- r12&#45;&gt;r9 -->
<g id="edge27" class="edge">
<title>r12:e&#45;&gt;r9:n</title>
<path fill="none" stroke="black" d="M941,-383C942.32,-383 1010.11,-347.07 1034.43,-333.27"/>
<polygon fill="black" stroke="black" points="1036.32,-336.22 1043,-328 1032.65,-330.26 1036.32,-336.22"/>
<text text-anchor="middle" x="1030.5" y="-331.8" font-family="Times,serif" font-size="14.00">left</text>
</g>
<!-- r15 -->
<g id="node20" class="node">
<title>r15</title>
<g id="a_node20"><a xlink:href="file:///home/runner/work/flow/flow/target/flowstdlib/control/select/select.html" xlink:title="select_total (#15)">
<ellipse fill="coral" stroke="black" cx="835" cy="-237" rx="92.88" ry="18"/>
<text text-anchor="middle" x="835" y="-233.3" font-family="Times,serif" font-size="14.00">select_total (#15)</text>
</a>
</g>
</g>
<!-- r12&#45;&gt;r15 -->
<g id="edge28" class="edge">
<title>r12:e&#45;&gt;r15:n</title>
<path fill="none" stroke="black" d="M941,-383C949.01,-383 943.19,-372.35 940,-365 927.83,-336.9 851.48,-297.14 837.27,-264.78"/>
<polygon fill="black" stroke="black" points="840.67,-263.95 835,-255 833.86,-265.53 840.67,-263.95"/>
<text text-anchor="middle" x="828" y="-258.8" font-family="Times,serif" font-size="14.00">i1</text>
</g>
<!-- r11 -->
<g id="node15" class="node">
<title>r11</title>
<g id="a_node15"><a xlink:href="file:///home/runner/work/flow/flow/target/flowstdlib/math/add/add.html" xlink:title="cross_sum (#11)">
<ellipse fill="coral" stroke="black" cx="621" cy="-164" rx="88.28" ry="18"/>
<text text-anchor="middle" x="621" y="-160.3" font-family="Times,serif" font-size="14.00">cross_sum (#11)</text>
</a>
</g>
</g>
<!-- r10&#45;&gt;r11 -->
<g id="edge26" class="edge">
<title>r10:e&#45;&gt;r11:n</title>
<path fill="none" stroke="black" d="M1229,-383C1301.92,-383 1283.99,-272.09 1234,-219 1228.6,-213.26 710.01,-193.83 631.03,-184.17"/>
<polygon fill="black" stroke="black" points="631.51,-180.7 621,-182 630.03,-187.54 631.51,-180.7"/>
<text text-anchor="middle" x="614" y="-185.8" font-family="Times,serif" font-size="14.00">i1</text>
</g>
<!-- r3&#45;&gt;r1 -->
<g id="edge13" class="edge">
<title>r3:e&#45;&gt;r1:ne</title>
<path fill="none" stroke="black" d="M668,-383C676.01,-383 672.58,-370.75 667,-365 635.27,-332.31 308.45,-358.76 242.87,-333.19"/>
<polygon fill="black" stroke="black" points="244.4,-330.03 234,-328 240.86,-336.07 244.4,-330.03"/>
<text text-anchor="middle" x="252" y="-331.8" font-family="Times,serif" font-size="14.00">right</text>
</g>
<!-- r3&#45;&gt;r7 -->
<g id="edge14" class="edge">
<title>r3:e&#45;&gt;r7:ne</title>
<path fill="none" stroke="black" d="M668,-383C676.01,-383 671.35,-371.73 667,-365 611.29,-278.81 535.3,-326.62 462.49,-262.06"/>
<polygon fill="black" stroke="black" points="464.68,-259.31 455,-255 459.88,-264.41 464.68,-259.31"/>
<text text-anchor="middle" x="448" y="-258.8" font-family="Times,serif" font-size="14.00">i2</text>
</g>
<!-- r1&#45;&gt;r7 -->
<g id="edge17" class="edge">
<title>r1:sw&#45;&gt;r7:nw</title>
<path fill="none" stroke="black" d="M198,-292C164.92,-258.92 357.97,-286.41 410.66,-260.67"/>
<polygon fill="black" stroke="black" points="412.7,-263.52 419,-255 408.76,-257.73 412.7,-263.52"/>
<text text-anchor="middle" x="393.5" y="-258.8" font-family="Times,serif" font-size="14.00">control</text>
<text text-anchor="middle" x="186" y="-280.8" font-family="Times,serif" font-size="14.00">/lte</text>
</g>
<!-- r6 -->
<g id="node12" class="node">
<title>r6</title>
<g id="a_node12"><a xlink:href="file:///home/runner/work/flow/flow/target/flowstdlib/control/select/select.html" xlink:title="select_string (#6)">
<ellipse fill="coral" stroke="black" cx="184" cy="-237" rx="93.68" ry="18"/>
<text text-anchor="middle" x="184" y="-233.3" font-family="Times,serif" font-size="14.00">select_string (#6)</text>
</a>
</g>
</g>
<!-- r1&#45;&gt;r6 -->
<g id="edge15" class="edge">
<title>r1:sw&#45;&gt;r6:nw</title>
<path fill="none" stroke="black" d="M198,-292C186.11,-280.11 164.27,-273.68 162.1,-264.26"/>
<polygon fill="black" stroke="black" points="165.34,-265.57 166,-255 158.89,-262.86 165.34,-265.57"/>
<text text-anchor="middle" x="140.5" y="-258.8" font-family="Times,serif" font-size="14.00">control</text>
<text text-anchor="middle" x="210" y="-280.8" font-family="Times,serif" font-size="14.00">/lte</text>
</g>
<!-- r5 -->
<g id="node13" class="node">
<title>r5</title>
<g id="a_node13"><a xlink:href="file:///home/runner/work/flow/flow/target/flowstdlib/control/select/select.html" xlink:title="select_route (#5)">
<ellipse fill="coral" stroke="black" cx="132" cy="-91" rx="90.98" ry="18"/>
<text text-anchor="middle" x="132" y="-87.3" font-family="Times,serif" font-size="14.00">select_route (#5)</text>
</a>
</g>
</g>
<!-- r1&#45;&gt;r5 -->
<g id="edge16" class="edge">
<title>r1:sw&#45;&gt;r5:nw</title>
<path fill="none" stroke="black" d="M198,-292C174.64,-268.64 74.25,-281.11 54,-255 22.13,-213.91 26.37,-182.05 54,-138 67.77,-116.05 87.35,-126.34 106.05,-115.23"/>
<polygon fill="black" stroke="black" points="108.29,-117.92 114,-109 103.97,-112.42 108.29,-117.92"/>
<text text-anchor="middle" x="88.5" y="-112.8" font-family="Times,serif" font-size="14.00">control</text>
<text text-anchor="middle" x="186" y="-295.8" font-family="Times,serif" font-size="14.00">/lte</text>
</g>
<!-- r7&#45;&gt;r4 -->
<g id="edge20" class="edge">
<title>r7:sw&#45;&gt;r4:ne</title>
<path fill="none" stroke="black" d="M419,-218C408.14,-207.14 360.69,-208.06 349.91,-219 338.68,-230.4 344.96,-239.78 349.91,-255 382.32,-354.69 469.19,-361.19 429.89,-401 425.09,-405.87 382.54,-407.46 362.68,-404.79"/>
<polygon fill="black" stroke="black" points="363.58,-401.41 353,-402 361.64,-408.13 363.58,-401.41"/>
<text text-anchor="middle" x="346" y="-405.8" font-family="Times,serif" font-size="14.00">i2</text>
<text text-anchor="middle" x="385.5" y="-206.8" font-family="Times,serif" font-size="14.00">/select_i1</text>
</g>
<!-- r7&#45;&gt;r11 -->
<g id="edge21" class="edge">
<title>r7:sw&#45;&gt;r11:ne</title>
<path fill="none" stroke="black" d="M419,-219C388.33,-188.33 606.61,-209.84 638.17,-192.22"/>
<polygon fill="black" stroke="black" points="641.68,-192.25 639,-182 634.71,-191.69 641.68,-192.25"/>
<text text-anchor="middle" x="632" y="-185.8" font-family="Times,serif" font-size="14.00">i2</text>
<text text-anchor="middle" x="452.5" y="-207.8" font-family="Times,serif" font-size="14.00">/select_i1</text>
</g>
<!-- r20 -->
<g id="node16" class="node">
<title>r20</title>
<g id="a_node16"><a xlink:href="file:///home/runner/work/flow/flow/target/flowstdlib/fmt/to_string/to_string.html" xlink:title="to_string (#20)">
<ellipse fill="coral" stroke="black" cx="379" cy="-164" rx="81.49" ry="18"/>
<text text-anchor="middle" x="379" y="-160.3" font-family="Times,serif" font-size="14.00">to_string (#20)</text>
</a>
</g>
</g>
<!-- r7&#45;&gt;r20 -->
<g id="edge22" class="edge">
<title>r7:sw&#45;&gt;r20:n</title>
<path fill="none" stroke="black" d="M419,-219C404.82,-204.82 386.69,-205.36 380.88,-192.21"/>
<polygon fill="black" stroke="black" points="384.25,-191.2 379,-182 377.37,-192.47 384.25,-191.2"/>
<text text-anchor="middle" x="385.5" y="-207.8" font-family="Times,serif" font-size="14.00">/select_i1</text>
</g>
<!-- r0 -->
<g id="node14" class="node">
<title>r0</title>
<g id="a_node14"><a xlink:href="file:///home/runner/work/flow/flow/target/flowstdlib/data/append/append.html" xlink:title="append (#0)">
<ellipse fill="coral" stroke="black" cx="158" cy="-164" rx="68.49" ry="18"/>
<text text-anchor="middle" x="158" y="-160.3" font-family="Times,serif" font-size="14.00">append (#0)</text>
</a>
</g>
</g>
<!-- r6&#45;&gt;r0 -->
<g id="edge18" class="edge">
<title>r6:sw&#45;&gt;r0:ne</title>
<path fill="none" stroke="black" d="M166,-219C157.31,-210.31 172.31,-201.03 176.58,-192.02"/>
<polygon fill="black" stroke="black" points="180.02,-191.33 175,-182 173.1,-192.42 180.02,-191.33"/>
<text text-anchor="middle" x="166.5" y="-185.8" font-family="Times,serif" font-size="14.00">s2</text>
<text text-anchor="middle" x="132.5" y="-207.8" font-family="Times,serif" font-size="14.00">/select_i1</text>
</g>
<!-- r5&#45;&gt;r0 -->
<g id="edge19" class="edge">
<title>r5:sw&#45;&gt;r0:n</title>
<path fill="none" stroke="black" d="M114,-72C108.26,-66.26 46.7,-67.23 41.01,-73 29.77,-84.39 30.86,-96.63 41.01,-109 67.62,-141.46 199.63,-113.54 226.24,-146 236.39,-158.37 237.47,-170.6 226.24,-182 222.21,-186.09 185.1,-188.91 167.36,-186.74"/>
<polygon fill="black" stroke="black" points="168.58,-183.46 158,-183 165.99,-189.96 168.58,-183.46"/>
<text text-anchor="middle" x="149.5" y="-186.8" font-family="Times,serif" font-size="14.00">s1</text>
<text text-anchor="middle" x="80.5" y="-60.8" font-family="Times,serif" font-size="14.00">/select_i1</text>
</g>
<!-- r0&#45;&gt;r5 -->
<g id="edge23" class="edge">
<title>r0:e&#45;&gt;r5:n</title>
<path fill="none" stroke="black" d="M228,-164C236.01,-164 231.7,-152.49 227,-146 215.78,-130.53 155.86,-130.95 137.41,-117.85"/>
<polygon fill="black" stroke="black" points="140.2,-115.71 132,-109 134.23,-119.36 140.2,-115.71"/>
<text text-anchor="middle" x="125" y="-112.8" font-family="Times,serif" font-size="14.00">i1</text>
</g>
<!-- r13 -->
<g id="node17" class="node">
<title>r13</title>
<g id="a_node17"><a xlink:href="file:///home/runner/work/flow/flow/target/flowstdlib/control/select/select.html" xlink:title="select_route (#13)">
<ellipse fill="coral" stroke="black" cx="612" cy="-91" rx="96.68" ry="18"/>
<text text-anchor="middle" x="612" y="-87.3" font-family="Times,serif" font-size="14.00">select_route (#13)</text>
</a>
</g>
</g>
<!-- r0&#45;&gt;r13 -->
<g id="edge24" class="edge">
<title>r0:e&#45;&gt;r13:ne</title>
<path fill="none" stroke="black" d="M228,-164C247.02,-164 244.24,-144.8 262,-138 334.57,-110.21 651.91,-161.1 635.88,-117.24"/>
<polygon fill="black" stroke="black" points="638.66,-115.11 630,-109 632.96,-119.17 638.66,-115.11"/>
<text text-anchor="middle" x="623" y="-112.8" font-family="Times,serif" font-size="14.00">i2</text>
</g>
<!-- r17 -->
<g id="node18" class="node">
<title>r17</title>
<g id="a_node18"><a xlink:href="file:///home/runner/work/flow/flow/target/flowstdlib/data/append/append.html" xlink:title="append (#17)">
<ellipse fill="coral" stroke="black" cx="369" cy="-91" rx="74.19" ry="18"/>
<text text-anchor="middle" x="369" y="-87.3" font-family="Times,serif" font-size="14.00">append (#17)</text>
</a>
</g>
</g>
<!-- r0&#45;&gt;r17 -->
<g id="edge25" class="edge">
<title>r0:e&#45;&gt;r17:n</title>
<path fill="none" stroke="black" d="M228,-164C247.02,-164 244.94,-146.42 262,-138 302.73,-117.89 359.3,-152.08 367.89,-118.95"/>
<polygon fill="black" stroke="black" points="371.37,-119.33 369,-109 364.41,-118.55 371.37,-119.33"/>
<text text-anchor="middle" x="360.5" y="-112.8" font-family="Times,serif" font-size="14.00">s1</text>
</g>
<!-- r11&#45;&gt;r9 -->
<g id="edge29" class="edge">
<title>r11:e&#45;&gt;r9:ne</title>
<path fill="none" stroke="black" d="M711,-164C715.01,-164 710.33,-178.01 710,-182 707.35,-214.39 684.49,-230.65 706,-255 751.37,-306.35 790.8,-267.39 859,-274 887.61,-276.77 1097.49,-270.98 1117.09,-292 1128.01,-303.7 1128.31,-316.59 1117.09,-328 1110.27,-334.95 1085.25,-337.03 1070.43,-333.41"/>
<polygon fill="black" stroke="black" points="1071.54,-330.06 1061,-329 1068.58,-336.4 1071.54,-330.06"/>
<text text-anchor="middle" x="1079" y="-332.8" font-family="Times,serif" font-size="14.00">right</text>
</g>
<!-- r11&#45;&gt;r15 -->
<g id="edge30" class="edge">
<title>r11:e&#45;&gt;r15:ne</title>
<path fill="none" stroke="black" d="M711,-164C715.02,-164 710.24,-179.07 713,-182 779.46,-252.56 865.48,-144.87 927.94,-219 938.25,-231.24 939.18,-243.61 927.94,-255 923.28,-259.72 882.2,-261.29 862.72,-258.76"/>
<polygon fill="black" stroke="black" points="863.58,-255.36 853,-256 861.67,-262.1 863.58,-255.36"/>
<text text-anchor="middle" x="846" y="-259.8" font-family="Times,serif" font-size="14.00">i2</text>
</g>
<!-- r20&#45;&gt;r17 -->
<g id="edge40" class="edge">
<title>r20:e&#45;&gt;r17:ne</title>
<path fill="none" stroke="black" d="M462,-164C470.01,-164 465.4,-152.7 461,-146 442.86,-118.39 418.57,-131.51 394.97,-115.61"/>
<polygon fill="black" stroke="black" points="396.93,-112.69 387,-109 392.46,-118.08 396.93,-112.69"/>
<text text-anchor="middle" x="378.5" y="-112.8" font-family="Times,serif" font-size="14.00">s2</text>
</g>
<!-- r8 -->
<g id="node22" class="node">
<title>r8</title>
<g id="a_node22"><a xlink:href="file:///home/runner/work/flow/flow/target/flowstdlib/data/append/append.html" xlink:title="append (#8)">
<ellipse fill="coral" stroke="black" cx="904" cy="-164" rx="68.49" ry="18"/>
<text text-anchor="middle" x="904" y="-160.3" font-family="Times,serif" font-size="14.00">append (#8)</text>
</a>
</g>
</g>
<!-- r13&#45;&gt;r8 -->
<g id="edge35" class="edge">
<title>r13:sw&#45;&gt;r8:n</title>
<path fill="none" stroke="black" d="M594,-72C587.81,-65.81 521.31,-66.77 515.16,-73 503.92,-84.39 504.31,-97.24 515.16,-109 532.43,-127.73 954.97,-127.27 972.24,-146 983.09,-157.76 983.47,-170.6 972.24,-182 968.21,-186.09 931.1,-188.91 913.36,-186.74"/>
<polygon fill="black" stroke="black" points="914.58,-183.46 904,-183 911.99,-189.96 914.58,-183.46"/>
<text text-anchor="middle" x="895.5" y="-186.8" font-family="Times,serif" font-size="14.00">s1</text>
<text text-anchor="middle" x="560.5" y="-60.8" font-family="Times,serif" font-size="14.00">/select_i1</text>
</g>
<!-- r19 -->
<g id="node23" class="node">
<title>r19</title>
<g id="a_node23"><a xlink:href="file:///home/runner/work/flow/flow/flowr/src/cli/stdio/stdout.html" xlink:title="stdout (#19)">
<ellipse fill="coral" stroke="black" cx="443" cy="-18" rx="69.59" ry="18"/>
<text text-anchor="middle" x="443" y="-14.3" font-family="Times,serif" font-size="14.00">stdout (#19)</text>
</a>
</g>
</g>
<!-- r17&#45;&gt;r19 -->
<g id="edge41" class="edge">
<title>r17:e&#45;&gt;r19:n</title>
<path fill="none" stroke="black" d="M444,-91C465.2,-91 448.88,-68.02 444.17,-45.98"/>
<polygon fill="black" stroke="black" points="447.64,-45.52 443,-36 440.69,-46.34 447.64,-45.52"/>
</g>
<!-- r9&#45;&gt;r13 -->
<g id="edge32" class="edge">
<title>r9:sw&#45;&gt;r13:nw</title>
<path fill="none" stroke="black" d="M1025,-292C991.65,-258.65 1203.69,-291.14 1234,-255 1244.28,-242.74 1243.21,-232.08 1234,-219 1144.46,-91.8 679.94,-111.01 604.34,-110"/>
<polygon fill="black" stroke="black" points="604.29,-106.48 594,-109 603.62,-113.45 604.29,-106.48"/>
<text text-anchor="middle" x="568.5" y="-112.8" font-family="Times,serif" font-size="14.00">control</text>
<text text-anchor="middle" x="1013" y="-280.8" font-family="Times,serif" font-size="14.00">/lte</text>
</g>
<!-- r9&#45;&gt;r15 -->
<g id="edge33" class="edge">
<title>r9:sw&#45;&gt;r15:nw</title>
<path fill="none" stroke="black" d="M1025,-292C996.08,-263.08 834.52,-281.66 815.29,-264.99"/>
<polygon fill="black" stroke="black" points="818.77,-265.45 817,-255 811.87,-264.27 818.77,-265.45"/>
<text text-anchor="middle" x="791.5" y="-258.8" font-family="Times,serif" font-size="14.00">control</text>
<text text-anchor="middle" x="1037" y="-280.8" font-family="Times,serif" font-size="14.00">/lte</text>
</g>
<!-- r14 -->
<g id="node21" class="node">
<title>r14</title>
<g id="a_node21"><a xlink:href="file:///home/runner/work/flow/flow/target/flowstdlib/control/select/select.html" xlink:title="select_string (#14)">
<ellipse fill="coral" stroke="black" cx="1099" cy="-237" rx="99.38" ry="18"/>
<text text-anchor="middle" x="1099" y="-233.3" font-family="Times,serif" font-size="14.00">select_string (#14)</text>
</a>
</g>
</g>
<!-- r9&#45;&gt;r14 -->
<g id="edge31" class="edge">
<title>r9:sw&#45;&gt;r14:nw</title>
<path fill="none" stroke="black" d="M1025,-292C1006.21,-273.21 1048.58,-275.27 1072.97,-261.05"/>
<polygon fill="black" stroke="black" points="1075.12,-263.81 1081,-255 1070.91,-258.22 1075.12,-263.81"/>
<text text-anchor="middle" x="1055.5" y="-258.8" font-family="Times,serif" font-size="14.00">control</text>
<text text-anchor="middle" x="1013" y="-295.8" font-family="Times,serif" font-size="14.00">/lte</text>
</g>
<!-- r15&#45;&gt;r12 -->
<g id="edge36" class="edge">
<title>r15:sw&#45;&gt;r12:ne</title>
<path fill="none" stroke="black" d="M817,-218C811.11,-212.11 747.91,-213.07 742.06,-219 730.82,-230.39 734.81,-240.73 742.06,-255 766.97,-304.04 793.63,-301.8 842,-328 862.42,-339.06 926.54,-345.89 939.74,-365 948.83,-378.16 950.99,-389.62 939.74,-401 934.52,-406.29 887.89,-407.93 866.8,-404.93"/>
<polygon fill="black" stroke="black" points="867.58,-401.51 857,-402 865.58,-408.21 867.58,-401.51"/>
<text text-anchor="middle" x="850" y="-405.8" font-family="Times,serif" font-size="14.00">i2</text>
<text text-anchor="middle" x="783.5" y="-206.8" font-family="Times,serif" font-size="14.00">/select_i1</text>
</g>
<!-- r15&#45;&gt;r3 -->
<g id="edge37" class="edge">
<title>r15:sw&#45;&gt;r3:ne</title>
<path fill="none" stroke="black" d="M817,-218C805.22,-206.22 754.99,-208.5 742.06,-219 729.33,-229.33 739.26,-239.47 734,-255 711.07,-322.7 726.46,-362.02 666.54,-401 656.87,-407.29 627.54,-410.67 611.17,-406.47"/>
<polygon fill="black" stroke="black" points="612.52,-403.24 602,-402 609.45,-409.53 612.52,-403.24"/>
<text text-anchor="middle" x="595" y="-405.8" font-family="Times,serif" font-size="14.00">i2</text>
<text text-anchor="middle" x="850.5" y="-206.8" font-family="Times,serif" font-size="14.00">/select_i1</text>
</g>
<!-- r14&#45;&gt;r8 -->
<g id="edge34" class="edge">
<title>r14:sw&#45;&gt;r8:ne</title>
<path fill="none" stroke="black" d="M1081,-219C1031.91,-169.91 978.14,-227.42 928.6,-188.74"/>
<polygon fill="black" stroke="black" points="930.8,-186.02 921,-182 926.15,-191.26 930.8,-186.02"/>
<text text-anchor="middle" x="912.5" y="-185.8" font-family="Times,serif" font-size="14.00">s2</text>
<text text-anchor="middle" x="1047.5" y="-207.8" font-family="Times,serif" font-size="14.00">/select_i1</text>
</g>
<!-- r8&#45;&gt;r5 -->
<g id="edge39" class="edge">
<title>r8:e&#45;&gt;r5:ne</title>
<path fill="none" stroke="black" d="M974,-164C982.01,-164 978.7,-151.64 973,-146 941.99,-115.32 251.84,-138.91 159.19,-113.17"/>
<polygon fill="black" stroke="black" points="160.55,-109.95 150,-109 157.66,-116.32 160.55,-109.95"/>
<text text-anchor="middle" x="143" y="-112.8" font-family="Times,serif" font-size="14.00">i2</text>
</g>
<!-- r8&#45;&gt;r13 -->
<g id="edge38" class="edge">
<title>r8:e&#45;&gt;r13:n</title>
<path fill="none" stroke="black" d="M974,-164C982.01,-164 978.51,-151.81 973,-146 919.15,-89.24 875.83,-134.99 798,-127 780.01,-125.15 652.22,-128.62 619.58,-115.82"/>
<polygon fill="black" stroke="black" points="621.77,-113.09 612,-109 617.09,-118.29 621.77,-113.09"/>
<text text-anchor="middle" x="605" y="-112.8" font-family="Times,serif" font-size="14.00">i1</text>
</g>
</g>
</svg>
