<?xml version="1.0" encoding="UTF-8" standalone="no"?>
<!DOCTYPE svg PUBLIC "-//W3C//DTD SVG 1.1//EN"
 "http://www.w3.org/Graphics/SVG/1.1/DTD/svg11.dtd">
<!-- Generated by graphviz version 2.43.0 (0)
 -->
<!-- Title: router Pages: 1 -->
<svg width="1395pt" height="721pt"
 viewBox="0.00 0.00 1395.47 721.00" xmlns="http://www.w3.org/2000/svg" xmlns:xlink="http://www.w3.org/1999/xlink">
<g id="graph0" class="graph" transform="scale(1 1) rotate(0) translate(4 717)">
<title>router</title>
<polygon fill="white" stroke="transparent" points="-4,4 -4,-717 1391.47,-717 1391.47,4 -4,4"/>
<text text-anchor="middle" x="693.74" y="-697.8" font-family="Times,serif" font-size="14.00">/router</text>
<g id="clust1" class="cluster">
<title>cluster_A_tracker</title>
<polygon fill="none" stroke="black" points="8,-64 8,-502 717,-502 717,-64 8,-64"/>
<text text-anchor="middle" x="362.5" y="-486.8" font-family="Times,serif" font-size="14.00">/router/A_tracker</text>
</g>
<g id="clust2" class="cluster">
<title>cluster_B_tracker</title>
<polygon fill="none" stroke="black" points="846,-136 846,-427 1352,-427 1352,-136 846,-136"/>
<text text-anchor="middle" x="1099" y="-411.8" font-family="Times,serif" font-size="14.00">/router/B_tracker</text>
</g>
<!-- r18 -->
<g id="node1" class="node">
<title>r18</title>
<g id="a_node1"><a xlink:href="file:///home/runner/work/flow/flow/flowr/src/bin/flowrcli/cli/stdio/readline.html" xlink:title="readline (#18)">
<ellipse fill="coral" stroke="black" cx="498" cy="-600" rx="77.99" ry="18"/>
<text text-anchor="middle" x="498" y="-596.3" font-family="Times,serif" font-size="14.00">readline (#18)</text>
</a>
</g>
</g>
<!-- r16 -->
<g id="node3" class="node">
<title>r16</title>
<g id="a_node3"><a xlink:href="file:///home/runner/.flow/lib/flowstdlib/data/accumulate/accumulate.html" xlink:title="accumulate_triples (#16)">
<ellipse fill="coral" stroke="black" cx="729" cy="-528" rx="128.08" ry="18"/>
<text text-anchor="middle" x="729" y="-524.3" font-family="Times,serif" font-size="14.00">accumulate_triples (#16)</text>
</a>
</g>
</g>
<!-- r18&#45;&gt;r16 -->
<g id="edge2" class="edge">
<title>r18:sw&#45;&gt;r16:n</title>
<path fill="none" stroke="black" d="M480,-582C443.09,-545.09 692.13,-594.45 725.36,-555.67"/>
<polygon fill="black" stroke="black" points="728.76,-556.59 729,-546 722.21,-554.13 728.76,-556.59"/>
<text text-anchor="middle" x="706" y="-549.8" font-family="Times,serif" font-size="14.00">values</text>
<text text-anchor="middle" x="463" y="-570.8" font-family="Times,serif" font-size="14.00">/json</text>
</g>
<!-- initializerr18_0 -->
<!-- initializerr18_0&#45;&gt;r18 -->
<g id="edge1" class="edge">
<title>initializerr18_0&#45;&gt;r18:n</title>
<path fill="none" stroke="blue" d="M498,-653.81C498,-646.28 498,-637.1 498,-628.06"/>
<polygon fill="blue" stroke="blue" points="501.5,-628 498,-618 494.5,-628 501.5,-628"/>
<text text-anchor="middle" x="491" y="-642.61" font-family="Times,serif" font-size="14.00">&quot;&quot;</text>
</g>
<!-- r16&#45;&gt;r16 -->
<g id="edge5" class="edge">
<title>r16:sw&#45;&gt;r16:ne</title>
<path fill="none" stroke="black" d="M711,-510C528.96,-528 528.96,-582 729,-582 925.23,-582 928.97,-558.91 757.2,-546.7"/>
<polygon fill="black" stroke="black" points="757.22,-543.19 747,-546 756.74,-550.17 757.22,-543.19"/>
<text text-anchor="middle" x="771" y="-549.8" font-family="Times,serif" font-size="14.00">partial</text>
<text text-anchor="middle" x="685" y="-498.8" font-family="Times,serif" font-size="14.00">/partial</text>
</g>
<!-- r4 -->
<g id="node6" class="node">
<title>r4</title>
<g id="a_node6"><a xlink:href="file:///home/runner/.flow/lib/flowstdlib/math/add/add.html" xlink:title="forward_sum (#4)">
<ellipse fill="coral" stroke="black" cx="355" cy="-378" rx="94.78" ry="18"/>
<text text-anchor="middle" x="355" y="-374.3" font-family="Times,serif" font-size="14.00">forward_sum (#4)</text>
</a>
</g>
</g>
<!-- r16&#45;&gt;r4 -->
<g id="edge6" class="edge">
<title>r16:se&#45;&gt;r4:n</title>
<path fill="none" stroke="black" d="M747,-510C779.89,-477.11 716.44,-454.05 674,-435 655.94,-426.89 515.64,-429.51 496,-427 436.17,-419.34 364.03,-456.3 355.78,-407.2"/>
<polygon fill="black" stroke="black" points="359.25,-406.7 355,-397 352.27,-407.24 359.25,-406.7"/>
<text text-anchor="middle" x="348" y="-400.8" font-family="Times,serif" font-size="14.00">i1</text>
<text text-anchor="middle" x="777.5" y="-498.8" font-family="Times,serif" font-size="14.00">/chunk/0</text>
</g>
<!-- r2 -->
<g id="node7" class="node">
<title>r2</title>
<g id="a_node7"><a xlink:href="file:///home/runner/.flow/lib/flowstdlib/math/add/add.html" xlink:title="cross_distance (#2)">
<ellipse fill="coral" stroke="black" cx="536" cy="-453" rx="102.08" ry="18"/>
<text text-anchor="middle" x="536" y="-449.3" font-family="Times,serif" font-size="14.00">cross_distance (#2)</text>
</a>
</g>
</g>
<!-- r16&#45;&gt;r2 -->
<g id="edge7" class="edge">
<title>r16:se&#45;&gt;r2:ne</title>
<path fill="none" stroke="black" d="M747,-510C755.73,-501.27 704.15,-504.2 692,-502 633.74,-491.44 602.09,-513.6 561.43,-478.89"/>
<polygon fill="black" stroke="black" points="563.71,-476.23 554,-472 558.95,-481.37 563.71,-476.23"/>
<text text-anchor="middle" x="547" y="-475.8" font-family="Times,serif" font-size="14.00">i2</text>
<text text-anchor="middle" x="716.5" y="-498.8" font-family="Times,serif" font-size="14.00">/chunk/1</text>
</g>
<!-- r16&#45;&gt;r2 -->
<g id="edge8" class="edge">
<title>r16:se&#45;&gt;r2:n</title>
<path fill="none" stroke="black" d="M747,-510C755.73,-501.27 704.18,-504.06 692,-502 626.05,-490.87 545.06,-537.26 536.71,-482.17"/>
<polygon fill="black" stroke="black" points="540.18,-481.73 536,-472 533.2,-482.22 540.18,-481.73"/>
<text text-anchor="middle" x="529" y="-475.8" font-family="Times,serif" font-size="14.00">i1</text>
<text text-anchor="middle" x="716.5" y="-513.8" font-family="Times,serif" font-size="14.00">/chunk/2</text>
</g>
<!-- r12 -->
<g id="node8" class="node">
<title>r12</title>
<g id="a_node8"><a xlink:href="file:///home/runner/.flow/lib/flowstdlib/math/add/add.html" xlink:title="forward_sum (#12)">
<ellipse fill="coral" stroke="black" cx="1243" cy="-378" rx="100.98" ry="18"/>
<text text-anchor="middle" x="1243" y="-374.3" font-family="Times,serif" font-size="14.00">forward_sum (#12)</text>
</a>
</g>
</g>
<!-- r16&#45;&gt;r12 -->
<g id="edge9" class="edge">
<title>r16:se&#45;&gt;r12:n</title>
<path fill="none" stroke="black" d="M747,-510C754.27,-502.73 921.89,-503.89 932,-502 1071.91,-475.9 1234.83,-539.64 1242.7,-407.31"/>
<polygon fill="black" stroke="black" points="1246.21,-407.1 1243,-397 1239.21,-406.9 1246.21,-407.1"/>
<text text-anchor="middle" x="1236" y="-400.8" font-family="Times,serif" font-size="14.00">i1</text>
<text text-anchor="middle" x="777.5" y="-513.8" font-family="Times,serif" font-size="14.00">/chunk/1</text>
</g>
<!-- r10 -->
<g id="node9" class="node">
<title>r10</title>
<g id="a_node9"><a xlink:href="file:///home/runner/.flow/lib/flowstdlib/math/add/add.html" xlink:title="cross_distance (#10)">
<ellipse fill="coral" stroke="black" cx="962" cy="-378" rx="107.78" ry="18"/>
<text text-anchor="middle" x="962" y="-374.3" font-family="Times,serif" font-size="14.00">cross_distance (#10)</text>
</a>
</g>
</g>
<!-- r16&#45;&gt;r10 -->
<g id="edge10" class="edge">
<title>r16:se&#45;&gt;r10:n</title>
<path fill="none" stroke="black" d="M747,-510C764.47,-492.53 778.9,-510.76 802,-502 878.26,-473.07 955.4,-481.29 961.6,-406.99"/>
<polygon fill="black" stroke="black" points="965.1,-407.13 962,-397 958.1,-406.85 965.1,-407.13"/>
<text text-anchor="middle" x="955" y="-400.8" font-family="Times,serif" font-size="14.00">i1</text>
<text text-anchor="middle" x="777.5" y="-498.8" font-family="Times,serif" font-size="14.00">/chunk/2</text>
</g>
<!-- initializerr16_1 -->
<!-- initializerr16_1&#45;&gt;r16 -->
<g id="edge3" class="edge">
<title>initializerr16_1&#45;&gt;r16:n</title>
<path fill="none" stroke="blue" stroke-dasharray="1,5" d="M729,-581.81C729,-574.28 729,-565.1 729,-556.06"/>
<polygon fill="blue" stroke="blue" points="732.5,-556 729,-546 725.5,-556 732.5,-556"/>
<text text-anchor="middle" x="723.5" y="-570.61" font-family="Times,serif" font-size="14.00">[]</text>
</g>
<!-- initializerr16_2 -->
<!-- initializerr16_2&#45;&gt;r16 -->
<g id="edge4" class="edge">
<title>initializerr16_2&#45;&gt;r16:n</title>
<path fill="none" stroke="blue" d="M901.82,-588.13C844.41,-577.57 763.57,-561.69 737.47,-551.5"/>
<polygon fill="blue" stroke="blue" points="739.29,-548.51 729,-546 735.48,-554.38 739.29,-548.51"/>
<text text-anchor="middle" x="896.82" y="-576.93" font-family="Times,serif" font-size="14.00">3</text>
</g>
<!-- r1 -->
<g id="node11" class="node">
<title>r1</title>
<g id="a_node11"><a xlink:href="file:///home/runner/.flow/lib/flowstdlib/math/compare/compare.html" xlink:title="compare (#1)">
<ellipse fill="coral" stroke="black" cx="228" cy="-306" rx="74.19" ry="18"/>
<text text-anchor="middle" x="228" y="-302.3" font-family="Times,serif" font-size="14.00">compare (#1)</text>
</a>
</g>
</g>
<!-- r4&#45;&gt;r1 -->
<g id="edge12" class="edge">
<title>r4:e&#45;&gt;r1:n</title>
<path fill="none" stroke="black" d="M451,-378C459.01,-378 455.36,-365.96 450,-360 419.18,-325.75 256.52,-366.53 231.29,-333.95"/>
<polygon fill="black" stroke="black" points="234.46,-332.4 228,-324 227.81,-334.59 234.46,-332.4"/>
<text text-anchor="middle" x="215.5" y="-327.8" font-family="Times,serif" font-size="14.00">left</text>
</g>
<!-- r7 -->
<g id="node12" class="node">
<title>r7</title>
<g id="a_node12"><a xlink:href="file:///home/runner/.flow/lib/flowstdlib/control/select/select.html" xlink:title="select_total (#7)">
<ellipse fill="coral" stroke="black" cx="437" cy="-234" rx="87.18" ry="18"/>
<text text-anchor="middle" x="437" y="-230.3" font-family="Times,serif" font-size="14.00">select_total (#7)</text>
</a>
</g>
</g>
<!-- r4&#45;&gt;r7 -->
<g id="edge13" class="edge">
<title>r4:e&#45;&gt;r7:n</title>
<path fill="none" stroke="black" d="M451,-378C504.04,-378 444.81,-316.27 437.68,-262.02"/>
<polygon fill="black" stroke="black" points="441.17,-261.74 437,-252 434.19,-262.22 441.17,-261.74"/>
<text text-anchor="middle" x="430" y="-255.8" font-family="Times,serif" font-size="14.00">i1</text>
</g>
<!-- r3 -->
<g id="node10" class="node">
<title>r3</title>
<g id="a_node10"><a xlink:href="file:///home/runner/.flow/lib/flowstdlib/math/add/add.html" xlink:title="cross_sum (#3)">
<ellipse fill="coral" stroke="black" cx="615" cy="-378" rx="82.59" ry="18"/>
<text text-anchor="middle" x="615" y="-374.3" font-family="Times,serif" font-size="14.00">cross_sum (#3)</text>
</a>
</g>
</g>
<!-- r2&#45;&gt;r3 -->
<g id="edge11" class="edge">
<title>r2:e&#45;&gt;r3:n</title>
<path fill="none" stroke="black" d="M639,-453C647.01,-453 640.37,-442.65 638,-435 633.35,-419.97 621.51,-417.3 616.89,-406.85"/>
<polygon fill="black" stroke="black" points="620.32,-406.16 615,-397 613.44,-407.48 620.32,-406.16"/>
<text text-anchor="middle" x="608" y="-400.8" font-family="Times,serif" font-size="14.00">i1</text>
</g>
<!-- r9 -->
<g id="node20" class="node">
<title>r9</title>
<g id="a_node20"><a xlink:href="file:///home/runner/.flow/lib/flowstdlib/math/compare/compare.html" xlink:title="compare (#9)">
<ellipse fill="coral" stroke="black" cx="1245" cy="-306" rx="74.19" ry="18"/>
<text text-anchor="middle" x="1245" y="-302.3" font-family="Times,serif" font-size="14.00">compare (#9)</text>
</a>
</g>
</g>
<!-- r12&#45;&gt;r9 -->
<g id="edge28" class="edge">
<title>r12:e&#45;&gt;r9:n</title>
<path fill="none" stroke="black" d="M1345,-378C1353.01,-378 1348.78,-366.43 1344,-360 1318.49,-325.64 1256.9,-363.13 1246.5,-334.08"/>
<polygon fill="black" stroke="black" points="1249.94,-333.37 1245,-324 1243.01,-334.41 1249.94,-333.37"/>
<text text-anchor="middle" x="1232.5" y="-327.8" font-family="Times,serif" font-size="14.00">left</text>
</g>
<!-- r15 -->
<g id="node21" class="node">
<title>r15</title>
<g id="a_node21"><a xlink:href="file:///home/runner/.flow/lib/flowstdlib/control/select/select.html" xlink:title="select_total (#15)">
<ellipse fill="coral" stroke="black" cx="981" cy="-234" rx="92.88" ry="18"/>
<text text-anchor="middle" x="981" y="-230.3" font-family="Times,serif" font-size="14.00">select_total (#15)</text>
</a>
</g>
</g>
<!-- r12&#45;&gt;r15 -->
<g id="edge29" class="edge">
<title>r12:e&#45;&gt;r15:n</title>
<path fill="none" stroke="black" d="M1345,-378C1353.01,-378 1349.33,-365.98 1344,-360 1281.29,-289.63 1224.94,-352.21 1135,-324 1102.19,-313.71 1001.53,-293.8 983.71,-261.82"/>
<polygon fill="black" stroke="black" points="987.03,-260.71 981,-252 980.29,-262.57 987.03,-260.71"/>
<text text-anchor="middle" x="974" y="-255.8" font-family="Times,serif" font-size="14.00">i1</text>
</g>
<!-- r11 -->
<g id="node16" class="node">
<title>r11</title>
<g id="a_node16"><a xlink:href="file:///home/runner/.flow/lib/flowstdlib/math/add/add.html" xlink:title="cross_sum (#11)">
<ellipse fill="coral" stroke="black" cx="621" cy="-162" rx="88.28" ry="18"/>
<text text-anchor="middle" x="621" y="-158.3" font-family="Times,serif" font-size="14.00">cross_sum (#11)</text>
</a>
</g>
</g>
<!-- r10&#45;&gt;r11 -->
<g id="edge27" class="edge">
<title>r10:e&#45;&gt;r11:n</title>
<path fill="none" stroke="black" d="M1071,-378C1079.01,-378 1075.22,-366.08 1070,-360 1019.09,-300.77 971.56,-350.26 898,-324 770.64,-278.54 628.42,-316.71 621.28,-190.23"/>
<polygon fill="black" stroke="black" points="624.77,-189.9 621,-180 617.78,-190.09 624.77,-189.9"/>
<text text-anchor="middle" x="614" y="-183.8" font-family="Times,serif" font-size="14.00">i1</text>
</g>
<!-- r3&#45;&gt;r1 -->
<g id="edge14" class="edge">
<title>r3:e&#45;&gt;r1:ne</title>
<path fill="none" stroke="black" d="M699,-378C707.01,-378 703.6,-365.73 698,-360 629.95,-290.29 337.6,-388.32 253.87,-330.52"/>
<polygon fill="black" stroke="black" points="255.93,-327.68 246,-324 251.47,-333.07 255.93,-327.68"/>
<text text-anchor="middle" x="264" y="-327.8" font-family="Times,serif" font-size="14.00">right</text>
</g>
<!-- r3&#45;&gt;r7 -->
<g id="edge15" class="edge">
<title>r3:e&#45;&gt;r7:ne</title>
<path fill="none" stroke="black" d="M699,-378C707.01,-378 702.96,-366.29 698,-360 663.54,-316.27 629.06,-346.22 578,-324 523.32,-300.2 502.28,-297.1 462.63,-259.45"/>
<polygon fill="black" stroke="black" points="464.6,-256.48 455,-252 459.71,-261.49 464.6,-256.48"/>
<text text-anchor="middle" x="448" y="-255.8" font-family="Times,serif" font-size="14.00">i2</text>
</g>
<!-- r1&#45;&gt;r7 -->
<g id="edge18" class="edge">
<title>r1:sw&#45;&gt;r7:nw</title>
<path fill="none" stroke="black" d="M210,-288C145.82,-223.82 337.22,-311.65 411.01,-258.76"/>
<polygon fill="black" stroke="black" points="413.63,-261.13 419,-252 409.11,-255.79 413.63,-261.13"/>
<text text-anchor="middle" x="393.5" y="-255.8" font-family="Times,serif" font-size="14.00">control</text>
<text text-anchor="middle" x="198" y="-276.8" font-family="Times,serif" font-size="14.00">/lte</text>
</g>
<!-- r6 -->
<g id="node13" class="node">
<title>r6</title>
<g id="a_node13"><a xlink:href="file:///home/runner/.flow/lib/flowstdlib/control/select/select.html" xlink:title="select_string (#6)">
<ellipse fill="coral" stroke="black" cx="184" cy="-234" rx="93.68" ry="18"/>
<text text-anchor="middle" x="184" y="-230.3" font-family="Times,serif" font-size="14.00">select_string (#6)</text>
</a>
</g>
</g>
<!-- r1&#45;&gt;r6 -->
<g id="edge16" class="edge">
<title>r1:sw&#45;&gt;r6:nw</title>
<path fill="none" stroke="black" d="M210,-288C195.9,-273.9 165.53,-270.76 162.13,-261.29"/>
<polygon fill="black" stroke="black" points="165.38,-262.58 166,-252 158.92,-259.88 165.38,-262.58"/>
<text text-anchor="middle" x="140.5" y="-255.8" font-family="Times,serif" font-size="14.00">control</text>
<text text-anchor="middle" x="222" y="-276.8" font-family="Times,serif" font-size="14.00">/lte</text>
</g>
<!-- r5 -->
<g id="node14" class="node">
<title>r5</title>
<g id="a_node14"><a xlink:href="file:///home/runner/.flow/lib/flowstdlib/control/select/select.html" xlink:title="select_route (#5)">
<ellipse fill="coral" stroke="black" cx="132" cy="-90" rx="90.98" ry="18"/>
<text text-anchor="middle" x="132" y="-86.3" font-family="Times,serif" font-size="14.00">select_route (#5)</text>
</a>
</g>
</g>
<!-- r1&#45;&gt;r5 -->
<g id="edge17" class="edge">
<title>r1:sw&#45;&gt;r5:nw</title>
<path fill="none" stroke="black" d="M210,-288C159.69,-237.69 98.3,-307.68 54,-252 21.9,-211.65 26.31,-179.49 54,-136 67.83,-114.28 87.46,-125.06 106.1,-114.16"/>
<polygon fill="black" stroke="black" points="108.26,-116.91 114,-108 103.96,-111.39 108.26,-116.91"/>
<text text-anchor="middle" x="88.5" y="-111.8" font-family="Times,serif" font-size="14.00">control</text>
<text text-anchor="middle" x="198" y="-291.8" font-family="Times,serif" font-size="14.00">/lte</text>
</g>
<!-- r7&#45;&gt;r4 -->
<g id="edge21" class="edge">
<title>r7:sw&#45;&gt;r4:ne</title>
<path fill="none" stroke="black" d="M419,-215C397.28,-193.28 371.47,-194.13 349.91,-216 338.68,-227.4 344.07,-237.1 349.91,-252 395.3,-367.85 496.26,-349.02 449.89,-396 439.86,-406.17 401.31,-408.48 381.88,-401.9"/>
<polygon fill="black" stroke="black" points="383.45,-398.77 373,-397 380.06,-404.9 383.45,-398.77"/>
<text text-anchor="middle" x="366" y="-400.8" font-family="Times,serif" font-size="14.00">i2</text>
<text text-anchor="middle" x="385.5" y="-203.8" font-family="Times,serif" font-size="14.00">/select_i1</text>
</g>
<!-- r7&#45;&gt;r11 -->
<g id="edge22" class="edge">
<title>r7:sw&#45;&gt;r11:ne</title>
<path fill="none" stroke="black" d="M419,-216C351.81,-148.81 680.24,-241.81 645.51,-187.77"/>
<polygon fill="black" stroke="black" points="648.11,-185.42 639,-180 642.74,-189.91 648.11,-185.42"/>
<text text-anchor="middle" x="632" y="-183.8" font-family="Times,serif" font-size="14.00">i2</text>
<text text-anchor="middle" x="452.5" y="-204.8" font-family="Times,serif" font-size="14.00">/select_i1</text>
</g>
<!-- r20 -->
<g id="node17" class="node">
<title>r20</title>
<g id="a_node17"><a xlink:href="file:///home/runner/.flow/lib/flowstdlib/fmt/to_string/to_string.html" xlink:title="to_string (#20)">
<ellipse fill="coral" stroke="black" cx="379" cy="-162" rx="81.49" ry="18"/>
<text text-anchor="middle" x="379" y="-158.3" font-family="Times,serif" font-size="14.00">to_string (#20)</text>
</a>
</g>
</g>
<!-- r7&#45;&gt;r20 -->
<g id="edge23" class="edge">
<title>r7:sw&#45;&gt;r20:n</title>
<path fill="none" stroke="black" d="M419,-216C404.99,-201.99 386.75,-202.9 380.9,-190.04"/>
<polygon fill="black" stroke="black" points="384.3,-189.18 379,-180 377.42,-190.48 384.3,-189.18"/>
<text text-anchor="middle" x="385.5" y="-204.8" font-family="Times,serif" font-size="14.00">/select_i1</text>
</g>
<!-- r0 -->
<g id="node15" class="node">
<title>r0</title>
<g id="a_node15"><a xlink:href="file:///home/runner/.flow/lib/flowstdlib/data/append/append.html" xlink:title="append (#0)">
<ellipse fill="coral" stroke="black" cx="158" cy="-162" rx="68.49" ry="18"/>
<text text-anchor="middle" x="158" y="-158.3" font-family="Times,serif" font-size="14.00">append (#0)</text>
</a>
</g>
</g>
<!-- r6&#45;&gt;r0 -->
<g id="edge19" class="edge">
<title>r6:sw&#45;&gt;r0:ne</title>
<path fill="none" stroke="black" d="M166,-216C157.62,-207.62 171.96,-198.71 176.36,-190.04"/>
<polygon fill="black" stroke="black" points="179.81,-189.44 175,-180 172.87,-190.38 179.81,-189.44"/>
<text text-anchor="middle" x="166.5" y="-183.8" font-family="Times,serif" font-size="14.00">s2</text>
<text text-anchor="middle" x="132.5" y="-204.8" font-family="Times,serif" font-size="14.00">/select_i1</text>
</g>
<!-- r5&#45;&gt;r0 -->
<g id="edge20" class="edge">
<title>r5:sw&#45;&gt;r0:n</title>
<path fill="none" stroke="black" d="M114,-71C91.06,-48.06 63.79,-48.9 41.01,-72 29.77,-83.39 30.83,-95.65 41.01,-108 94.36,-172.71 172.9,-79.29 226.24,-144 236.42,-156.35 237.47,-168.6 226.24,-180 217.93,-188.44 180.95,-193.56 165.17,-188.16"/>
<polygon fill="black" stroke="black" points="167.55,-185.59 158,-181 162.6,-190.54 167.55,-185.59"/>
<text text-anchor="middle" x="149.5" y="-184.8" font-family="Times,serif" font-size="14.00">s1</text>
<text text-anchor="middle" x="80.5" y="-59.8" font-family="Times,serif" font-size="14.00">/select_i1</text>
</g>
<!-- r0&#45;&gt;r5 -->
<g id="edge24" class="edge">
<title>r0:e&#45;&gt;r5:n</title>
<path fill="none" stroke="black" d="M228,-162C236.01,-162 231.73,-150.46 227,-144 202.72,-110.84 143.94,-145.62 133.57,-118.1"/>
<polygon fill="black" stroke="black" points="137,-117.34 132,-108 130.08,-118.42 137,-117.34"/>
<text text-anchor="middle" x="125" y="-111.8" font-family="Times,serif" font-size="14.00">i1</text>
</g>
<!-- r13 -->
<g id="node18" class="node">
<title>r13</title>
<g id="a_node18"><a xlink:href="file:///home/runner/.flow/lib/flowstdlib/control/select/select.html" xlink:title="select_route (#13)">
<ellipse fill="coral" stroke="black" cx="612" cy="-90" rx="96.68" ry="18"/>
<text text-anchor="middle" x="612" y="-86.3" font-family="Times,serif" font-size="14.00">select_route (#13)</text>
</a>
</g>
</g>
<!-- r0&#45;&gt;r13 -->
<g id="edge25" class="edge">
<title>r0:e&#45;&gt;r13:ne</title>
<path fill="none" stroke="black" d="M228,-162C247.02,-162 244.23,-142.78 262,-136 334.59,-108.31 651.9,-159.99 635.88,-116.23"/>
<polygon fill="black" stroke="black" points="638.66,-114.1 630,-108 632.96,-118.17 638.66,-114.1"/>
<text text-anchor="middle" x="623" y="-111.8" font-family="Times,serif" font-size="14.00">i2</text>
</g>
<!-- r17 -->
<g id="node19" class="node">
<title>r17</title>
<g id="a_node19"><a xlink:href="file:///home/runner/.flow/lib/flowstdlib/data/append/append.html" xlink:title="append (#17)">
<ellipse fill="coral" stroke="black" cx="369" cy="-90" rx="74.19" ry="18"/>
<text text-anchor="middle" x="369" y="-86.3" font-family="Times,serif" font-size="14.00">append (#17)</text>
</a>
</g>
</g>
<!-- r0&#45;&gt;r17 -->
<g id="edge26" class="edge">
<title>r0:e&#45;&gt;r17:n</title>
<path fill="none" stroke="black" d="M228,-162C247.02,-162 244.91,-144.35 262,-136 302.55,-116.19 358.82,-150.58 367.78,-118.33"/>
<polygon fill="black" stroke="black" points="371.3,-118.34 369,-108 364.35,-117.52 371.3,-118.34"/>
<text text-anchor="middle" x="360.5" y="-111.8" font-family="Times,serif" font-size="14.00">s1</text>
</g>
<!-- r11&#45;&gt;r9 -->
<g id="edge30" class="edge">
<title>r11:e&#45;&gt;r9:ne</title>
<path fill="none" stroke="black" d="M711,-162C785.34,-162 781.49,-228.44 852,-252 901.37,-268.5 1283.73,-249.8 1319.09,-288 1329.96,-299.74 1330.31,-312.59 1319.09,-324 1304.21,-339.15 1286.78,-342.01 1271.05,-331.64"/>
<polygon fill="black" stroke="black" points="1272.94,-328.66 1263,-325 1268.49,-334.06 1272.94,-328.66"/>
<text text-anchor="middle" x="1281" y="-328.8" font-family="Times,serif" font-size="14.00">right</text>
</g>
<!-- r11&#45;&gt;r15 -->
<g id="edge31" class="edge">
<title>r11:e&#45;&gt;r15:ne</title>
<path fill="none" stroke="black" d="M711,-162C763.61,-162 775.97,-172.19 828,-180 882.62,-188.2 1037.82,-174.21 1073.94,-216 1084.4,-228.11 1085.18,-240.61 1073.94,-252 1064.21,-261.86 1026.94,-264.16 1007.92,-257.87"/>
<polygon fill="black" stroke="black" points="1009.45,-254.72 999,-253 1006.1,-260.86 1009.45,-254.72"/>
<text text-anchor="middle" x="992" y="-256.8" font-family="Times,serif" font-size="14.00">i2</text>
</g>
<!-- r20&#45;&gt;r17 -->
<g id="edge41" class="edge">
<title>r20:e&#45;&gt;r17:ne</title>
<path fill="none" stroke="black" d="M462,-162C470.01,-162 465.44,-150.67 461,-144 442.81,-116.64 418.45,-130.26 394.93,-114.55"/>
<polygon fill="black" stroke="black" points="396.94,-111.67 387,-108 392.48,-117.07 396.94,-111.67"/>
<text text-anchor="middle" x="378.5" y="-111.8" font-family="Times,serif" font-size="14.00">s2</text>
</g>
<!-- r8 -->
<g id="node23" class="node">
<title>r8</title>
<g id="a_node23"><a xlink:href="file:///home/runner/.flow/lib/flowstdlib/data/append/append.html" xlink:title="append (#8)">
<ellipse fill="coral" stroke="black" cx="922" cy="-162" rx="68.49" ry="18"/>
<text text-anchor="middle" x="922" y="-158.3" font-family="Times,serif" font-size="14.00">append (#8)</text>
</a>
</g>
</g>
<!-- r13&#45;&gt;r8 -->
<g id="edge36" class="edge">
<title>r13:sw&#45;&gt;r8:n</title>
<path fill="none" stroke="black" d="M594,-71C581.61,-58.61 527.47,-59.53 515.16,-72 503.92,-83.39 504.28,-96.27 515.16,-108 587.14,-185.64 918.26,-66.36 990.24,-144 1001.12,-155.73 1001.47,-168.6 990.24,-180 981.93,-188.44 944.95,-193.56 929.17,-188.16"/>
<polygon fill="black" stroke="black" points="931.55,-185.59 922,-181 926.6,-190.54 931.55,-185.59"/>
<text text-anchor="middle" x="913.5" y="-184.8" font-family="Times,serif" font-size="14.00">s1</text>
<text text-anchor="middle" x="560.5" y="-59.8" font-family="Times,serif" font-size="14.00">/select_i1</text>
</g>
<!-- r19 -->
<g id="node24" class="node">
<title>r19</title>
<g id="a_node24"><a xlink:href="file:///home/runner/work/flow/flow/flowr/src/bin/flowrcli/cli/stdio/stdout.html" xlink:title="stdout (#19)">
<ellipse fill="coral" stroke="black" cx="443" cy="-18" rx="69.59" ry="18"/>
<text text-anchor="middle" x="443" y="-14.3" font-family="Times,serif" font-size="14.00">stdout (#19)</text>
</a>
</g>
</g>
<!-- r17&#45;&gt;r19 -->
<g id="edge42" class="edge">
<title>r17:e&#45;&gt;r19:n</title>
<path fill="none" stroke="black" d="M444,-90C464.72,-90 448.92,-67.65 444.21,-46.09"/>
<polygon fill="black" stroke="black" points="447.67,-45.51 443,-36 440.72,-46.35 447.67,-45.51"/>
</g>
<!-- r9&#45;&gt;r13 -->
<g id="edge33" class="edge">
<title>r9:sw&#45;&gt;r13:nw</title>
<path fill="none" stroke="black" d="M1227,-288C1177.6,-238.6 1336.63,-306.76 1380,-252 1389.93,-239.46 1389.99,-228.5 1380,-216 1279.3,-90 1185.64,-159.07 1026,-136 983.51,-129.86 645.6,-139.47 597.68,-117.42"/>
<polygon fill="black" stroke="black" points="600.9,-116.04 594,-108 594.38,-118.59 600.9,-116.04"/>
<text text-anchor="middle" x="568.5" y="-111.8" font-family="Times,serif" font-size="14.00">control</text>
<text text-anchor="middle" x="1215" y="-276.8" font-family="Times,serif" font-size="14.00">/lte</text>
</g>
<!-- r9&#45;&gt;r15 -->
<g id="edge34" class="edge">
<title>r9:sw&#45;&gt;r15:nw</title>
<path fill="none" stroke="black" d="M1227,-288C1146.05,-207.05 896.6,-327.24 955.79,-259.64"/>
<polygon fill="black" stroke="black" points="958.69,-261.68 963,-252 953.59,-256.87 958.69,-261.68"/>
<text text-anchor="middle" x="937.5" y="-255.8" font-family="Times,serif" font-size="14.00">control</text>
<text text-anchor="middle" x="1239" y="-276.8" font-family="Times,serif" font-size="14.00">/lte</text>
</g>
<!-- r14 -->
<g id="node22" class="node">
<title>r14</title>
<g id="a_node22"><a xlink:href="file:///home/runner/.flow/lib/flowstdlib/control/select/select.html" xlink:title="select_string (#14)">
<ellipse fill="coral" stroke="black" cx="1245" cy="-234" rx="99.38" ry="18"/>
<text text-anchor="middle" x="1245" y="-230.3" font-family="Times,serif" font-size="14.00">select_string (#14)</text>
</a>
</g>
</g>
<!-- r9&#45;&gt;r14 -->
<g id="edge32" class="edge">
<title>r9:sw&#45;&gt;r14:nw</title>
<path fill="none" stroke="black" d="M1227,-288C1218.34,-279.34 1216.31,-269.47 1220.91,-260.24"/>
<polygon fill="black" stroke="black" points="1223.87,-262.12 1227,-252 1218.24,-257.96 1223.87,-262.12"/>
<text text-anchor="middle" x="1201.5" y="-255.8" font-family="Times,serif" font-size="14.00">control</text>
<text text-anchor="middle" x="1215" y="-291.8" font-family="Times,serif" font-size="14.00">/lte</text>
</g>
<!-- r15&#45;&gt;r12 -->
<g id="edge37" class="edge">
<title>r15:sw&#45;&gt;r12:ne</title>
<path fill="none" stroke="black" d="M963,-215C962.79,-214.79 606.41,-187.08 1003,-324 1074.97,-348.85 1292.81,-303.4 1343.74,-360 1354.44,-371.89 1354.99,-384.62 1343.74,-396 1332.79,-407.09 1290.29,-409.44 1269.68,-401.98"/>
<polygon fill="black" stroke="black" points="1271.42,-398.94 1261,-397 1267.93,-405.01 1271.42,-398.94"/>
<text text-anchor="middle" x="1254" y="-400.8" font-family="Times,serif" font-size="14.00">i2</text>
<text text-anchor="middle" x="929.5" y="-203.8" font-family="Times,serif" font-size="14.00">/select_i1</text>
</g>
<!-- r15&#45;&gt;r3 -->
<g id="edge38" class="edge">
<title>r15:sw&#45;&gt;r3:ne</title>
<path fill="none" stroke="black" d="M963,-215C939.45,-191.45 918.93,-203.48 888.06,-216 780.1,-259.77 805.45,-352.12 697.54,-396 674.5,-405.37 658.14,-414.5 640.97,-403.53"/>
<polygon fill="black" stroke="black" points="642.95,-400.63 633,-397 638.52,-406.04 642.95,-400.63"/>
<text text-anchor="middle" x="626" y="-400.8" font-family="Times,serif" font-size="14.00">i2</text>
<text text-anchor="middle" x="996.5" y="-203.8" font-family="Times,serif" font-size="14.00">/select_i1</text>
</g>
<!-- r14&#45;&gt;r8 -->
<g id="edge35" class="edge">
<title>r14:sw&#45;&gt;r8:ne</title>
<path fill="none" stroke="black" d="M1227,-216C1138.28,-127.28 1035.98,-263.38 946.51,-186.96"/>
<polygon fill="black" stroke="black" points="948.72,-184.23 939,-180 943.96,-189.36 948.72,-184.23"/>
<text text-anchor="middle" x="930.5" y="-183.8" font-family="Times,serif" font-size="14.00">s2</text>
<text text-anchor="middle" x="1193.5" y="-204.8" font-family="Times,serif" font-size="14.00">/select_i1</text>
</g>
<!-- r8&#45;&gt;r5 -->
<g id="edge40" class="edge">
<title>r8:e&#45;&gt;r5:ne</title>
<path fill="none" stroke="black" d="M992,-162C1000.01,-162 996.7,-149.63 991,-144 926.59,-80.4 261.12,-168.13 158.35,-113.9"/>
<polygon fill="black" stroke="black" points="160.19,-110.91 150,-108 156.15,-116.63 160.19,-110.91"/>
<text text-anchor="middle" x="143" y="-111.8" font-family="Times,serif" font-size="14.00">i2</text>
</g>
<!-- r8&#45;&gt;r13 -->
<g id="edge39" class="edge">
<title>r8:e&#45;&gt;r13:n</title>
<path fill="none" stroke="black" d="M992,-162C1000.01,-162 996.55,-149.78 991,-144 963.91,-115.83 663.41,-145.09 617.79,-116.35"/>
<polygon fill="black" stroke="black" points="620.57,-114.22 612,-108 614.82,-118.21 620.57,-114.22"/>
<text text-anchor="middle" x="605" y="-111.8" font-family="Times,serif" font-size="14.00">i1</text>
</g>
</g>
</svg>
