<?xml version="1.0" encoding="UTF-8" standalone="no"?>
<!DOCTYPE svg PUBLIC "-//W3C//DTD SVG 1.1//EN"
 "http://www.w3.org/Graphics/SVG/1.1/DTD/svg11.dtd">
<!-- Generated by graphviz version 2.43.0 (0)
 -->
<!-- Title: B_tracker Pages: 1 -->
<svg width="2296pt" height="717pt"
 viewBox="28.80 28.80 2266.81 688.50" xmlns="http://www.w3.org/2000/svg" xmlns:xlink="http://www.w3.org/1999/xlink">
<g id="graph0" class="graph" transform="scale(1 1) rotate(0) translate(32.8 684.5)">
<title>B_tracker</title>
<polygon fill="white" stroke="transparent" points="-4,4 -4,-655.7 2234.01,-655.7 2234.01,4 -4,4"/>
<text text-anchor="middle" x="1115.01" y="-636.5" font-family="Times,serif" font-size="14.00">B_tracker</text>
<!-- /router/B_tracker/forward -->
<g id="node1" class="node">
<title>/router/B_tracker/forward</title>
<polygon fill="white" stroke="black" points="776.79,-616.26 718,-628.7 659.21,-616.26 659.26,-596.14 776.74,-596.14 776.79,-616.26"/>
<text text-anchor="middle" x="718" y="-607" font-family="Times,serif" font-size="14.00">forward</text>
</g>
<!-- /router/B_tracker/cross -->
<g id="node2" class="node">
<title>/router/B_tracker/cross</title>
<polygon fill="white" stroke="black" points="881.26,-616.26 838,-628.7 794.74,-616.26 794.78,-596.14 881.22,-596.14 881.26,-616.26"/>
<text text-anchor="middle" x="838" y="-607" font-family="Times,serif" font-size="14.00">cross</text>
</g>
<!-- /router/B_tracker/other -->
<g id="node3" class="node">
<title>/router/B_tracker/other</title>
<polygon fill="white" stroke="black" points="988.37,-616.26 944,-628.7 899.63,-616.26 899.67,-596.14 988.33,-596.14 988.37,-616.26"/>
<text text-anchor="middle" x="944" y="-607" font-family="Times,serif" font-size="14.00">other</text>
</g>
<!-- /router/B_tracker/forward_string -->
<g id="node4" class="node">
<title>/router/B_tracker/forward_string</title>
<polygon fill="white" stroke="black" points="1202.02,-616.26 1104,-628.7 1005.98,-616.26 1006.07,-596.14 1201.93,-596.14 1202.02,-616.26"/>
<text text-anchor="middle" x="1104" y="-607" font-family="Times,serif" font-size="14.00">forward_string</text>
</g>
<!-- /router/B_tracker/cross_string -->
<g id="node5" class="node">
<title>/router/B_tracker/cross_string</title>
<polygon fill="white" stroke="black" points="1387.6,-616.26 1304,-628.7 1220.4,-616.26 1220.48,-596.14 1387.52,-596.14 1387.6,-616.26"/>
<text text-anchor="middle" x="1304" y="-607" font-family="Times,serif" font-size="14.00">cross_string</text>
</g>
<!-- /router/B_tracker/forward_route -->
<g id="node6" class="node">
<title>/router/B_tracker/forward_route</title>
<polygon fill="white" stroke="black" points="1594.6,-616.26 1500,-628.7 1405.4,-616.26 1405.49,-596.14 1594.51,-596.14 1594.6,-616.26"/>
<text text-anchor="middle" x="1500" y="-607" font-family="Times,serif" font-size="14.00">forward_route</text>
</g>
<!-- /router/B_tracker/forward_distance -->
<g id="node7" class="node">
<title>/router/B_tracker/forward_distance</title>
<polygon fill="white" stroke="black" points="1837.44,-616.26 1725,-628.7 1612.56,-616.26 1612.66,-596.14 1837.34,-596.14 1837.44,-616.26"/>
<text text-anchor="middle" x="1725" y="-607" font-family="Times,serif" font-size="14.00">forward_distance</text>
</g>
<!-- /router/B_tracker/other_route -->
<g id="node8" class="node">
<title>/router/B_tracker/other_route</title>
<polygon fill="white" stroke="black" points="2016.17,-616.26 1936,-628.7 1855.83,-616.26 1855.9,-596.14 2016.1,-596.14 2016.17,-616.26"/>
<text text-anchor="middle" x="1936" y="-607" font-family="Times,serif" font-size="14.00">other_route</text>
</g>
<!-- /router/B_tracker/other_distance -->
<g id="node9" class="node">
<title>/router/B_tracker/other_distance</title>
<polygon fill="white" stroke="black" points="2230.02,-616.26 2132,-628.7 2033.98,-616.26 2034.07,-596.14 2229.93,-596.14 2230.02,-616.26"/>
<text text-anchor="middle" x="2132" y="-607" font-family="Times,serif" font-size="14.00">other_distance</text>
</g>
<!-- /router/B_tracker/route -->
<g id="node10" class="node">
<title>/router/B_tracker/route</title>
<polygon fill="black" stroke="black" points="1331.63,-12.44 1376,0 1420.37,-12.44 1420.33,-32.56 1331.67,-32.56 1331.63,-12.44"/>
<text text-anchor="middle" x="1376" y="-14.3" font-family="Times,serif" font-size="14.00" fill="white">route</text>
</g>
<!-- /router/B_tracker/distance -->
<g id="node11" class="node">
<title>/router/B_tracker/distance</title>
<polygon fill="black" stroke="black" points="1438.28,-12.44 1500,0 1561.72,-12.44 1561.66,-32.56 1438.34,-32.56 1438.28,-12.44"/>
<text text-anchor="middle" x="1500" y="-14.3" font-family="Times,serif" font-size="14.00" fill="white">distance</text>
</g>
<!-- /router/B_tracker/cross_distance -->
<g id="node12" class="node">
<title>/router/B_tracker/cross_distance</title>
<g id="a_node12"><a xlink:href="../../../target/flowstdlib/math/add/add.html" xlink:title="cross_distance\n(add)">
<ellipse fill="coral" stroke="black" cx="92" cy="-260.61" rx="85.62" ry="26.74"/>
<text text-anchor="middle" x="92" y="-264.41" font-family="Times,serif" font-size="14.00">cross_distance</text>
<text text-anchor="middle" x="92" y="-249.41" font-family="Times,serif" font-size="14.00">(add)</text>
</a>
</g>
</g>
<!-- /router/B_tracker/cross_sum/ -->
<g id="node23" class="node">
<title>/router/B_tracker/cross_sum/</title>
<ellipse fill="none" stroke="black" cx="160" cy="-179.74" rx="144.87" ry="18"/>
<text text-anchor="middle" x="160" y="-176.04" font-family="Times,serif" font-size="14.00">/router/B_tracker/cross_sum/</text>
</g>
<!-- /router/B_tracker/cross_distance&#45;&gt;/router/B_tracker/cross_sum/ -->
<g id="edge6" class="edge">
<title>/router/B_tracker/cross_distance:e&#45;&gt;/router/B_tracker/cross_sum/:ne</title>
<path fill="none" stroke="black" d="M179,-260.61C203.67,-260.61 199.4,-227.01 184.47,-205.54"/>
<polygon fill="black" stroke="black" points="187.08,-203.2 178,-197.74 181.69,-207.67 187.08,-203.2"/>
<text text-anchor="middle" x="171" y="-201.54" font-family="Times,serif" font-size="14.00">i1</text>
</g>
<!-- /router/B_tracker/forward_sum -->
<g id="node13" class="node">
<title>/router/B_tracker/forward_sum</title>
<g id="a_node13"><a xlink:href="../../../target/flowstdlib/math/add/add.html" xlink:title="forward_sum\n(add)">
<ellipse fill="coral" stroke="black" cx="882" cy="-529.83" rx="77.56" ry="26.74"/>
<text text-anchor="middle" x="882" y="-533.63" font-family="Times,serif" font-size="14.00">forward_sum</text>
<text text-anchor="middle" x="882" y="-518.63" font-family="Times,serif" font-size="14.00">(add)</text>
</a>
</g>
</g>
<!-- /router/B_tracker/compare/ -->
<g id="node24" class="node">
<title>/router/B_tracker/compare/</title>
<ellipse fill="none" stroke="black" cx="869" cy="-440.09" rx="136.48" ry="18"/>
<text text-anchor="middle" x="869" y="-436.39" font-family="Times,serif" font-size="14.00">/router/B_tracker/compare/</text>
</g>
<!-- /router/B_tracker/forward_sum&#45;&gt;/router/B_tracker/compare/ -->
<g id="edge7" class="edge">
<title>/router/B_tracker/forward_sum:e&#45;&gt;/router/B_tracker/compare/:ne</title>
<path fill="none" stroke="black" d="M961,-529.83C972.95,-529.83 966.08,-513.25 960,-502.96 942.63,-473.55 918.96,-483.29 894.84,-465.81"/>
<polygon fill="black" stroke="black" points="896.87,-462.94 887,-459.09 892.32,-468.25 896.87,-462.94"/>
<text text-anchor="middle" x="874.5" y="-462.89" font-family="Times,serif" font-size="14.00">left</text>
</g>
<!-- /router/B_tracker/select_total/ -->
<g id="node27" class="node">
<title>/router/B_tracker/select_total/</title>
<ellipse fill="none" stroke="black" cx="855" cy="-350.35" rx="149.47" ry="18"/>
<text text-anchor="middle" x="855" y="-346.65" font-family="Times,serif" font-size="14.00">/router/B_tracker/select_total/</text>
</g>
<!-- /router/B_tracker/forward_sum&#45;&gt;/router/B_tracker/select_total/ -->
<g id="edge15" class="edge">
<title>/router/B_tracker/forward_sum:e&#45;&gt;/router/B_tracker/select_total/:ne</title>
<path fill="none" stroke="black" d="M961,-529.83C1017.93,-529.83 1047.75,-459.07 1014,-413.22 977.22,-363.26 925.45,-410.02 880.69,-376.08"/>
<polygon fill="black" stroke="black" points="882.83,-373.3 873,-369.35 878.22,-378.57 882.83,-373.3"/>
<text text-anchor="middle" x="866" y="-373.15" font-family="Times,serif" font-size="14.00">i1</text>
</g>
<!-- /router/B_tracker/cross_sum -->
<g id="node14" class="node">
<title>/router/B_tracker/cross_sum</title>
<g id="a_node14"><a xlink:href="../../../target/flowstdlib/math/add/add.html" xlink:title="cross_sum\n(add)">
<ellipse fill="coral" stroke="black" cx="718" cy="-529.83" rx="64.19" ry="26.74"/>
<text text-anchor="middle" x="718" y="-533.63" font-family="Times,serif" font-size="14.00">cross_sum</text>
<text text-anchor="middle" x="718" y="-518.63" font-family="Times,serif" font-size="14.00">(add)</text>
</a>
</g>
</g>
<!-- /router/B_tracker/cross_sum&#45;&gt;/router/B_tracker/compare/ -->
<g id="edge8" class="edge">
<title>/router/B_tracker/cross_sum:e&#45;&gt;/router/B_tracker/compare/:ne</title>
<path fill="none" stroke="black" d="M784,-529.83C796.9,-529.83 786.14,-512.34 795,-502.96 822.96,-473.38 900.8,-487.4 893.09,-467.32"/>
<polygon fill="black" stroke="black" points="895.76,-465.05 887,-459.09 890.13,-469.21 895.76,-465.05"/>
<text text-anchor="middle" x="905" y="-462.89" font-family="Times,serif" font-size="14.00">right</text>
</g>
<!-- /router/B_tracker/cross_sum&#45;&gt;/router/B_tracker/select_total/ -->
<g id="edge16" class="edge">
<title>/router/B_tracker/cross_sum:e&#45;&gt;/router/B_tracker/select_total/:w</title>
<path fill="none" stroke="black" d="M784,-529.83C795.95,-529.83 789.04,-513.27 783,-502.96 767.47,-476.46 741.51,-492.2 724,-466.96 696.25,-426.97 657.67,-361.08 693.82,-351.52"/>
<polygon fill="black" stroke="black" points="694.47,-354.97 704,-350.35 693.67,-348.02 694.47,-354.97"/>
<text text-anchor="middle" x="697" y="-354.15" font-family="Times,serif" font-size="14.00">i2</text>
</g>
<!-- /router/B_tracker/compare -->
<g id="node15" class="node">
<title>/router/B_tracker/compare</title>
<g id="a_node15"><a xlink:href="../../../target/flowstdlib/math/compare/compare.html" xlink:title="compare">
<ellipse fill="coral" stroke="black" cx="1112" cy="-440.09" rx="50.89" ry="18"/>
<text text-anchor="middle" x="1112" y="-436.39" font-family="Times,serif" font-size="14.00">compare</text>
</a>
</g>
</g>
<!-- /router/B_tracker/select_string -->
<g id="node16" class="node">
<title>/router/B_tracker/select_string</title>
<g id="a_node16"><a xlink:href="../../../target/flowstdlib/control/select/select.html" xlink:title="select_string\n(select)">
<ellipse fill="coral" stroke="black" cx="1601" cy="-98.87" rx="76.24" ry="26.74"/>
<text text-anchor="middle" x="1601" y="-102.67" font-family="Times,serif" font-size="14.00">select_string</text>
<text text-anchor="middle" x="1601" y="-87.67" font-family="Times,serif" font-size="14.00">(select)</text>
</a>
</g>
</g>
<!-- /router/B_tracker/select_route -->
<g id="node17" class="node">
<title>/router/B_tracker/select_route</title>
<g id="a_node17"><a xlink:href="../../../target/flowstdlib/control/select/select.html" xlink:title="select_route\n(select)">
<ellipse fill="coral" stroke="black" cx="1254" cy="-440.09" rx="73.58" ry="26.74"/>
<text text-anchor="middle" x="1254" y="-443.89" font-family="Times,serif" font-size="14.00">select_route</text>
<text text-anchor="middle" x="1254" y="-428.89" font-family="Times,serif" font-size="14.00">(select)</text>
</a>
</g>
</g>
<!-- /router/B_tracker/select_total -->
<g id="node18" class="node">
<title>/router/B_tracker/select_total</title>
<g id="a_node18"><a xlink:href="../../../target/flowstdlib/control/select/select.html" xlink:title="select_total\n(select)">
<ellipse fill="coral" stroke="black" cx="1418" cy="-350.35" rx="69.09" ry="26.74"/>
<text text-anchor="middle" x="1418" y="-354.15" font-family="Times,serif" font-size="14.00">select_total</text>
<text text-anchor="middle" x="1418" y="-339.15" font-family="Times,serif" font-size="14.00">(select)</text>
</a>
</g>
</g>
<!-- /router/B_tracker/append -->
<g id="node19" class="node">
<title>/router/B_tracker/append</title>
<g id="a_node19"><a xlink:href="../../../target/flowstdlib/data/append/append.html" xlink:title="append">
<ellipse fill="coral" stroke="black" cx="1067" cy="-350.35" rx="44.69" ry="18"/>
<text text-anchor="middle" x="1067" y="-346.65" font-family="Times,serif" font-size="14.00">append</text>
</a>
</g>
</g>
<!-- /router/B_tracker/ -->
<g id="node20" class="node">
<title>/router/B_tracker/</title>
<ellipse fill="none" stroke="black" cx="838" cy="-260.61" rx="93.68" ry="18"/>
<text text-anchor="middle" x="838" y="-256.91" font-family="Times,serif" font-size="14.00">/router/B_tracker/</text>
</g>
<!-- /router/B_tracker/append&#45;&gt;/router/B_tracker/ -->
<g id="edge21" class="edge">
<title>/router/B_tracker/append:e&#45;&gt;/router/B_tracker/:n</title>
<path fill="none" stroke="black" d="M1113,-350.35C1121.01,-350.35 1117.27,-338.38 1112,-332.35 1073.59,-288.39 864.67,-335.41 840.32,-289.34"/>
<polygon fill="black" stroke="black" points="843.72,-288.53 838,-279.61 836.91,-290.15 843.72,-288.53"/>
<text text-anchor="middle" x="818.5" y="-283.41" font-family="Times,serif" font-size="14.00">route</text>
</g>
<!-- /router/B_tracker/cross_distance/ -->
<g id="node21" class="node">
<title>/router/B_tracker/cross_distance/</title>
<ellipse fill="none" stroke="black" cx="820" cy="-179.74" rx="164.37" ry="18"/>
<text text-anchor="middle" x="820" y="-176.04" font-family="Times,serif" font-size="14.00">/router/B_tracker/cross_distance/</text>
</g>
<!-- /router/B_tracker/&#45;&gt;/router/B_tracker/cross_distance/ -->
<g id="edge1" class="edge">
<title>/router/B_tracker/:s&#45;&gt;/router/B_tracker/cross_distance/:ne</title>
<path fill="none" stroke="black" d="M838,-241.61C838,-226.23 846.58,-216.39 843.43,-206.15"/>
<polygon fill="black" stroke="black" points="846.37,-204.24 838,-197.74 840.49,-208.04 846.37,-204.24"/>
<text text-anchor="middle" x="823.22" y="-224.7" font-family="Times,serif" font-size="14.00">cross</text>
<text text-anchor="middle" x="831" y="-201.54" font-family="Times,serif" font-size="14.00">i1</text>
</g>
<!-- /router/B_tracker/&#45;&gt;/router/B_tracker/cross_distance/ -->
<g id="edge2" class="edge">
<title>/router/B_tracker/:s&#45;&gt;/router/B_tracker/cross_distance/:w</title>
<path fill="none" stroke="black" d="M838,-241.61C838,-157.97 708.59,-261.95 655,-197.74 653.07,-195.43 651.33,-192.33 650.31,-189.34"/>
<polygon fill="black" stroke="black" points="653.68,-190.33 654,-179.74 647.15,-187.82 653.68,-190.33"/>
<text text-anchor="middle" x="727.45" y="-219.89" font-family="Times,serif" font-size="14.00">other</text>
<text text-anchor="middle" x="647" y="-183.54" font-family="Times,serif" font-size="14.00">i2</text>
</g>
<!-- /router/B_tracker/forward_sum/ -->
<g id="node22" class="node">
<title>/router/B_tracker/forward_sum/</title>
<ellipse fill="none" stroke="black" cx="480" cy="-179.74" rx="157.07" ry="18"/>
<text text-anchor="middle" x="480" y="-176.04" font-family="Times,serif" font-size="14.00">/router/B_tracker/forward_sum/</text>
</g>
<!-- /router/B_tracker/&#45;&gt;/router/B_tracker/forward_sum/ -->
<g id="edge3" class="edge">
<title>/router/B_tracker/:s&#45;&gt;/router/B_tracker/forward_sum/:w</title>
<path fill="none" stroke="black" d="M838,-241.61C838,-184.07 362.09,-239.02 322,-197.74 319.82,-195.49 317.97,-192.26 317,-189.14"/>
<polygon fill="black" stroke="black" points="320.3,-190.31 321,-179.74 313.86,-187.57 320.3,-190.31"/>
<text text-anchor="middle" x="517.76" y="-217.56" font-family="Times,serif" font-size="14.00">forward_distance</text>
<text text-anchor="middle" x="314" y="-183.54" font-family="Times,serif" font-size="14.00">i2</text>
</g>
<!-- /router/B_tracker/&#45;&gt;/router/B_tracker/forward_sum/ -->
<g id="edge4" class="edge">
<title>/router/B_tracker/:s&#45;&gt;/router/B_tracker/forward_sum/:ne</title>
<path fill="none" stroke="black" d="M838,-241.61C838,-168.7 575.93,-244.5 506.19,-203.93"/>
<polygon fill="black" stroke="black" points="508.09,-200.98 498,-197.74 503.87,-206.56 508.09,-200.98"/>
<text text-anchor="middle" x="638.96" y="-216.54" font-family="Times,serif" font-size="14.00">forward</text>
<text text-anchor="middle" x="491" y="-201.54" font-family="Times,serif" font-size="14.00">i1</text>
</g>
<!-- /router/B_tracker/&#45;&gt;/router/B_tracker/cross_sum/ -->
<g id="edge5" class="edge">
<title>/router/B_tracker/:s&#45;&gt;/router/B_tracker/cross_sum/:w</title>
<path fill="none" stroke="black" d="M838,-241.61C838,-150.04 79.83,-262.42 15,-197.74 12.78,-195.53 10.92,-192.3 9.96,-189.18"/>
<polygon fill="black" stroke="black" points="13.28,-190.31 14,-179.74 6.85,-187.56 13.28,-190.31"/>
<text text-anchor="middle" x="372.88" y="-214.48" font-family="Times,serif" font-size="14.00">other_distance</text>
<text text-anchor="middle" x="7" y="-183.54" font-family="Times,serif" font-size="14.00">i2</text>
</g>
<!-- /router/B_tracker/select_string/ -->
<g id="node25" class="node">
<title>/router/B_tracker/select_string/</title>
<ellipse fill="none" stroke="black" cx="1483" cy="-179.74" rx="155.97" ry="18"/>
<text text-anchor="middle" x="1483" y="-176.04" font-family="Times,serif" font-size="14.00">/router/B_tracker/select_string/</text>
</g>
<!-- /router/B_tracker/&#45;&gt;/router/B_tracker/select_string/ -->
<g id="edge9" class="edge">
<title>/router/B_tracker/:s&#45;&gt;/router/B_tracker/select_string/:ne</title>
<path fill="none" stroke="black" d="M838,-241.61C838,-173.69 1443.25,-237.79 1499.54,-207.85"/>
<polygon fill="black" stroke="black" points="1503.03,-208.14 1501,-197.74 1496.11,-207.14 1503.03,-208.14"/>
<text text-anchor="middle" x="1222.49" y="-214.84" font-family="Times,serif" font-size="14.00">forward_string</text>
<text text-anchor="middle" x="1494" y="-201.54" font-family="Times,serif" font-size="14.00">i1</text>
</g>
<!-- /router/B_tracker/&#45;&gt;/router/B_tracker/select_string/ -->
<g id="edge10" class="edge">
<title>/router/B_tracker/:s&#45;&gt;/router/B_tracker/select_string/:w</title>
<path fill="none" stroke="black" d="M838,-241.61C838,-188.05 1274.47,-228.94 1318,-197.74 1321,-195.59 1321.34,-192.05 1321.38,-188.68"/>
<polygon fill="black" stroke="black" points="1324.51,-190.23 1326,-179.74 1318.3,-187.01 1324.51,-190.23"/>
<text text-anchor="middle" x="1037.85" y="-215.05" font-family="Times,serif" font-size="14.00">cross_string</text>
<text text-anchor="middle" x="1319" y="-183.54" font-family="Times,serif" font-size="14.00">i2</text>
</g>
<!-- /router/B_tracker/select_route/ -->
<g id="node26" class="node">
<title>/router/B_tracker/select_route/</title>
<ellipse fill="none" stroke="black" cx="1156" cy="-179.74" rx="153.27" ry="18"/>
<text text-anchor="middle" x="1156" y="-176.04" font-family="Times,serif" font-size="14.00">/router/B_tracker/select_route/</text>
</g>
<!-- /router/B_tracker/&#45;&gt;/router/B_tracker/select_route/ -->
<g id="edge12" class="edge">
<title>/router/B_tracker/:s&#45;&gt;/router/B_tracker/select_route/:ne</title>
<path fill="none" stroke="black" d="M838,-241.61C838,-171.31 1177.27,-240.45 1179,-206.61"/>
<polygon fill="black" stroke="black" points="1181.96,-204.73 1174,-197.74 1175.86,-208.17 1181.96,-204.73"/>
<text text-anchor="middle" x="955.35" y="-199.16" font-family="Times,serif" font-size="14.00">forward_route</text>
<text text-anchor="middle" x="1167" y="-201.54" font-family="Times,serif" font-size="14.00">i1</text>
</g>
<!-- /router/B_tracker/&#45;&gt;/router/B_tracker/select_route/ -->
<g id="edge13" class="edge">
<title>/router/B_tracker/:s&#45;&gt;/router/B_tracker/select_route/:w</title>
<path fill="none" stroke="black" d="M838,-241.61C838,-170.02 938.9,-244.64 993,-197.74 995.69,-195.41 996.07,-192 996.16,-188.78"/>
<polygon fill="black" stroke="black" points="999.36,-190.21 1001,-179.74 993.19,-186.9 999.36,-190.21"/>
<text text-anchor="middle" x="877.38" y="-217.07" font-family="Times,serif" font-size="14.00">other_route</text>
<text text-anchor="middle" x="994" y="-183.54" font-family="Times,serif" font-size="14.00">i2</text>
</g>
<!-- /router/B_tracker/compare/&#45;&gt;/router/B_tracker/select_string/ -->
<g id="edge11" class="edge">
<title>/router/B_tracker/compare/:s&#45;&gt;/router/B_tracker/select_string/:nw</title>
<path fill="none" stroke="black" d="M869,-421.09C869,-359.43 1084.74,-397.41 1143,-377.22 1294.48,-324.72 1346.89,-314.04 1457.62,-205.06"/>
<polygon fill="black" stroke="black" points="1460.37,-207.27 1465,-197.74 1455.44,-202.3 1460.37,-207.27"/>
<text text-anchor="middle" x="1175.97" y="-366.44" font-family="Times,serif" font-size="14.00">lte</text>
<text text-anchor="middle" x="1439.5" y="-201.54" font-family="Times,serif" font-size="14.00">control</text>
</g>
<!-- /router/B_tracker/compare/&#45;&gt;/router/B_tracker/select_route/ -->
<g id="edge14" class="edge">
<title>/router/B_tracker/compare/:s&#45;&gt;/router/B_tracker/select_route/:nw</title>
<path fill="none" stroke="black" d="M869,-421.09C869,-307.41 1043.81,-460.68 1121,-377.22 1172.96,-321.04 1089.49,-260.14 1131.25,-205.42"/>
<polygon fill="black" stroke="black" points="1134.03,-207.56 1138,-197.74 1128.77,-202.94 1134.03,-207.56"/>
<text text-anchor="middle" x="1120.46" y="-294.58" font-family="Times,serif" font-size="14.00">lte</text>
<text text-anchor="middle" x="1112.5" y="-201.54" font-family="Times,serif" font-size="14.00">control</text>
</g>
<!-- /router/B_tracker/compare/&#45;&gt;/router/B_tracker/select_total/ -->
<g id="edge17" class="edge">
<title>/router/B_tracker/compare/:s&#45;&gt;/router/B_tracker/select_total/:nw</title>
<path fill="none" stroke="black" d="M869,-421.09C869,-398.91 834.6,-391.17 832.79,-378.55"/>
<polygon fill="black" stroke="black" points="836.02,-379.9 837,-369.35 829.66,-376.99 836.02,-379.9"/>
<text text-anchor="middle" x="841.87" y="-399.89" font-family="Times,serif" font-size="14.00">lte</text>
<text text-anchor="middle" x="811.5" y="-373.15" font-family="Times,serif" font-size="14.00">control</text>
</g>
<!-- /router/B_tracker/append/ -->
<g id="node28" class="node">
<title>/router/B_tracker/append/</title>
<ellipse fill="none" stroke="black" cx="1376" cy="-98.87" rx="130.78" ry="18"/>
<text text-anchor="middle" x="1376" y="-95.17" font-family="Times,serif" font-size="14.00">/router/B_tracker/append/</text>
</g>
<!-- /router/B_tracker/select_string/&#45;&gt;/router/B_tracker/append/ -->
<g id="edge19" class="edge">
<title>/router/B_tracker/select_string/:sw&#45;&gt;/router/B_tracker/append/:nw</title>
<path fill="none" stroke="black" d="M1465,-161.74C1431.78,-128.52 1339.53,-149.74 1351.67,-125.88"/>
<polygon fill="black" stroke="black" points="1354.55,-127.89 1358,-117.87 1349.05,-123.55 1354.55,-127.89"/>
<text text-anchor="middle" x="1379.52" y="-145.85" font-family="Times,serif" font-size="14.00">select_i1</text>
<text text-anchor="middle" x="1349.5" y="-121.67" font-family="Times,serif" font-size="14.00">s2</text>
</g>
<!-- /router/B_tracker/select_route/&#45;&gt;/router/B_tracker/append/ -->
<g id="edge18" class="edge">
<title>/router/B_tracker/select_route/:sw&#45;&gt;/router/B_tracker/append/:w</title>
<path fill="none" stroke="black" d="M1138,-161.74C1101.61,-125.35 1178.8,-101.85 1233.7,-99.13"/>
<polygon fill="black" stroke="black" points="1234.09,-102.62 1244,-98.87 1233.91,-95.63 1234.09,-102.62"/>
<text text-anchor="middle" x="1153.61" y="-109.98" font-family="Times,serif" font-size="14.00">select_i1</text>
<text text-anchor="middle" x="1235.5" y="-102.67" font-family="Times,serif" font-size="14.00">s1</text>
</g>
<!-- /router/B_tracker/select_total/&#45;&gt;/router/B_tracker/ -->
<g id="edge20" class="edge">
<title>/router/B_tracker/select_total/:sw&#45;&gt;/router/B_tracker/:n</title>
<path fill="none" stroke="black" d="M837,-331.35C823.28,-317.63 833.42,-306.6 836.93,-289.68"/>
<polygon fill="black" stroke="black" points="840.42,-289.92 838,-279.61 833.46,-289.18 840.42,-289.92"/>
<text text-anchor="middle" x="801.24" y="-307.55" font-family="Times,serif" font-size="14.00">select_i1</text>
<text text-anchor="middle" x="868.5" y="-283.41" font-family="Times,serif" font-size="14.00">distance</text>
</g>
</g>
</svg>
