<?xml version="1.0" encoding="UTF-8" standalone="no"?>
<!DOCTYPE svg PUBLIC "-//W3C//DTD SVG 1.1//EN"
 "http://www.w3.org/Graphics/SVG/1.1/DTD/svg11.dtd">
<!-- Generated by graphviz version 2.43.0 (0)
 -->
<!-- Title: B_tracker Pages: 1 -->
<svg width="1636pt" height="610pt"
 viewBox="28.80 28.80 1607.00 581.02" xmlns="http://www.w3.org/2000/svg" xmlns:xlink="http://www.w3.org/1999/xlink">
<g id="graph0" class="graph" transform="scale(1 1) rotate(0) translate(32.8 577.02)">
<title>B_tracker</title>
<polygon fill="white" stroke="transparent" points="-4,4 -4,-548.22 1574.2,-548.22 1574.2,4 -4,4"/>
<text text-anchor="middle" x="785.1" y="-529.02" font-family="Times,serif" font-size="14.00">B_tracker</text>
<!-- /router/B_tracker/forward -->
<g id="node1" class="node">
<title>/router/B_tracker/forward</title>
<polygon fill="white" stroke="black" points="1570.34,-508.78 1511.55,-521.22 1452.76,-508.78 1452.81,-488.66 1570.29,-488.66 1570.34,-508.78"/>
<text text-anchor="middle" x="1511.55" y="-499.52" font-family="Times,serif" font-size="14.00">forward</text>
</g>
<!-- /router/B_tracker/forward_sum -->
<g id="node13" class="node">
<title>/router/B_tracker/forward_sum</title>
<g id="a_node13"><a xlink:href="../../../../../.flow/lib/flowstdlib/math/add/add.html" xlink:title="forward_sum\n(add)">
<ellipse fill="coral" stroke="black" cx="1301.55" cy="-332.61" rx="77.56" ry="26.74"/>
<text text-anchor="middle" x="1301.55" y="-336.41" font-family="Times,serif" font-size="14.00">forward_sum</text>
<text text-anchor="middle" x="1301.55" y="-321.41" font-family="Times,serif" font-size="14.00">(add)</text>
</a>
</g>
</g>
<!-- /router/B_tracker/forward&#45;&gt;/router/B_tracker/forward_sum -->
<g id="edge4" class="edge">
<title>/router/B_tracker/forward:s&#45;&gt;/router/B_tracker/forward_sum:ne</title>
<path fill="none" stroke="black" d="M1511.55,-487.22C1511.55,-390.6 1405.25,-426.62 1334.17,-365.67"/>
<polygon fill="black" stroke="black" points="1336.27,-362.84 1326.55,-358.61 1331.51,-367.97 1336.27,-362.84"/>
<text text-anchor="middle" x="1319.55" y="-362.41" font-family="Times,serif" font-size="14.00">i1</text>
</g>
<!-- /router/B_tracker/cross -->
<g id="node2" class="node">
<title>/router/B_tracker/cross</title>
<polygon fill="white" stroke="black" points="984.82,-508.78 941.55,-521.22 898.29,-508.78 898.33,-488.66 984.77,-488.66 984.82,-508.78"/>
<text text-anchor="middle" x="941.55" y="-499.52" font-family="Times,serif" font-size="14.00">cross</text>
</g>
<!-- /router/B_tracker/cross_distance -->
<g id="node12" class="node">
<title>/router/B_tracker/cross_distance</title>
<g id="a_node12"><a xlink:href="../../../../../.flow/lib/flowstdlib/math/add/add.html" xlink:title="cross_distance\n(add)">
<ellipse fill="coral" stroke="black" cx="915.55" cy="-422.35" rx="85.62" ry="26.74"/>
<text text-anchor="middle" x="915.55" y="-426.15" font-family="Times,serif" font-size="14.00">cross_distance</text>
<text text-anchor="middle" x="915.55" y="-411.15" font-family="Times,serif" font-size="14.00">(add)</text>
</a>
</g>
</g>
<!-- /router/B_tracker/cross&#45;&gt;/router/B_tracker/cross_distance -->
<g id="edge1" class="edge">
<title>/router/B_tracker/cross:s&#45;&gt;/router/B_tracker/cross_distance:ne</title>
<path fill="none" stroke="black" d="M941.55,-487.22C941.55,-474.69 948.13,-466.4 946.64,-458.08"/>
<polygon fill="black" stroke="black" points="949.56,-456.15 941.55,-449.22 943.49,-459.64 949.56,-456.15"/>
<text text-anchor="middle" x="934.55" y="-453.02" font-family="Times,serif" font-size="14.00">i1</text>
</g>
<!-- /router/B_tracker/other -->
<g id="node3" class="node">
<title>/router/B_tracker/other</title>
<polygon fill="white" stroke="black" points="879.92,-508.78 835.55,-521.22 791.18,-508.78 791.22,-488.66 879.88,-488.66 879.92,-508.78"/>
<text text-anchor="middle" x="835.55" y="-499.52" font-family="Times,serif" font-size="14.00">other</text>
</g>
<!-- /router/B_tracker/other&#45;&gt;/router/B_tracker/cross_distance -->
<g id="edge2" class="edge">
<title>/router/B_tracker/other:s&#45;&gt;/router/B_tracker/cross_distance:w</title>
<path fill="none" stroke="black" d="M835.55,-487.22C835.55,-463.21 810.86,-434.48 818.85,-425.31"/>
<polygon fill="black" stroke="black" points="820.01,-428.62 828.55,-422.35 817.96,-421.92 820.01,-428.62"/>
<text text-anchor="middle" x="821.55" y="-426.15" font-family="Times,serif" font-size="14.00">i2</text>
</g>
<!-- /router/B_tracker/forward_string -->
<g id="node4" class="node">
<title>/router/B_tracker/forward_string</title>
<polygon fill="white" stroke="black" points="381.57,-508.78 283.55,-521.22 185.53,-508.78 185.62,-488.66 381.48,-488.66 381.57,-508.78"/>
<text text-anchor="middle" x="283.55" y="-499.52" font-family="Times,serif" font-size="14.00">forward_string</text>
</g>
<!-- /router/B_tracker/select_string -->
<g id="node16" class="node">
<title>/router/B_tracker/select_string</title>
<g id="a_node16"><a xlink:href="../../../../../.flow/lib/flowstdlib/control/select/select.html" xlink:title="select_string\n(select)">
<ellipse fill="coral" stroke="black" cx="461.55" cy="-170.87" rx="76.24" ry="26.74"/>
<text text-anchor="middle" x="461.55" y="-174.67" font-family="Times,serif" font-size="14.00">select_string</text>
<text text-anchor="middle" x="461.55" y="-159.67" font-family="Times,serif" font-size="14.00">(select)</text>
</a>
</g>
</g>
<!-- /router/B_tracker/forward_string&#45;&gt;/router/B_tracker/select_string -->
<g id="edge9" class="edge">
<title>/router/B_tracker/forward_string:s&#45;&gt;/router/B_tracker/select_string:ne</title>
<path fill="none" stroke="black" d="M283.55,-487.22C283.55,-482.8 451.02,-255.46 482.52,-206.81"/>
<polygon fill="black" stroke="black" points="485.76,-208.18 487.55,-197.74 479.64,-204.79 485.76,-208.18"/>
<text text-anchor="middle" x="480.55" y="-201.54" font-family="Times,serif" font-size="14.00">i1</text>
</g>
<!-- /router/B_tracker/cross_string -->
<g id="node5" class="node">
<title>/router/B_tracker/cross_string</title>
<polygon fill="white" stroke="black" points="167.15,-508.78 83.55,-521.22 -0.05,-508.78 0.03,-488.66 167.07,-488.66 167.15,-508.78"/>
<text text-anchor="middle" x="83.55" y="-499.52" font-family="Times,serif" font-size="14.00">cross_string</text>
</g>
<!-- /router/B_tracker/cross_string&#45;&gt;/router/B_tracker/select_string -->
<g id="edge10" class="edge">
<title>/router/B_tracker/cross_string:s&#45;&gt;/router/B_tracker/select_string:w</title>
<path fill="none" stroke="black" d="M83.55,-487.22C83.55,-296.86 186.08,-175.2 373.41,-170.98"/>
<polygon fill="black" stroke="black" points="373.59,-174.48 383.55,-170.87 373.51,-167.48 373.59,-174.48"/>
<text text-anchor="middle" x="376.55" y="-174.67" font-family="Times,serif" font-size="14.00">i2</text>
</g>
<!-- /router/B_tracker/forward_route -->
<g id="node6" class="node">
<title>/router/B_tracker/forward_route</title>
<polygon fill="white" stroke="black" points="1192.15,-508.78 1097.55,-521.22 1002.95,-508.78 1003.04,-488.66 1192.06,-488.66 1192.15,-508.78"/>
<text text-anchor="middle" x="1097.55" y="-499.52" font-family="Times,serif" font-size="14.00">forward_route</text>
</g>
<!-- /router/B_tracker/select_route -->
<g id="node17" class="node">
<title>/router/B_tracker/select_route</title>
<g id="a_node17"><a xlink:href="../../../../../.flow/lib/flowstdlib/control/select/select.html" xlink:title="select_route\n(select)">
<ellipse fill="coral" stroke="black" cx="742.55" cy="-170.87" rx="73.58" ry="26.74"/>
<text text-anchor="middle" x="742.55" y="-174.67" font-family="Times,serif" font-size="14.00">select_route</text>
<text text-anchor="middle" x="742.55" y="-159.67" font-family="Times,serif" font-size="14.00">(select)</text>
</a>
</g>
</g>
<!-- /router/B_tracker/forward_route&#45;&gt;/router/B_tracker/select_route -->
<g id="edge12" class="edge">
<title>/router/B_tracker/forward_route:s&#45;&gt;/router/B_tracker/select_route:ne</title>
<path fill="none" stroke="black" d="M1097.55,-487.22C1097.55,-364.41 1084.29,-309.39 987.55,-233.74 912.2,-174.81 842.71,-260.53 774.95,-203.67"/>
<polygon fill="black" stroke="black" points="777.28,-201.06 767.55,-196.87 772.55,-206.21 777.28,-201.06"/>
<text text-anchor="middle" x="760.55" y="-200.67" font-family="Times,serif" font-size="14.00">i1</text>
</g>
<!-- /router/B_tracker/forward_distance -->
<g id="node7" class="node">
<title>/router/B_tracker/forward_distance</title>
<polygon fill="white" stroke="black" points="1435,-508.78 1322.55,-521.22 1210.11,-508.78 1210.21,-488.66 1434.89,-488.66 1435,-508.78"/>
<text text-anchor="middle" x="1322.55" y="-499.52" font-family="Times,serif" font-size="14.00">forward_distance</text>
</g>
<!-- /router/B_tracker/forward_distance&#45;&gt;/router/B_tracker/forward_sum -->
<g id="edge3" class="edge">
<title>/router/B_tracker/forward_distance:s&#45;&gt;/router/B_tracker/forward_sum:w</title>
<path fill="none" stroke="black" d="M1322.55,-487.22C1322.55,-409.38 1158.04,-339.74 1212.4,-333.12"/>
<polygon fill="black" stroke="black" points="1212.74,-336.61 1222.55,-332.61 1212.39,-329.62 1212.74,-336.61"/>
<text text-anchor="middle" x="1215.55" y="-336.41" font-family="Times,serif" font-size="14.00">i2</text>
</g>
<!-- /router/B_tracker/other_route -->
<g id="node8" class="node">
<title>/router/B_tracker/other_route</title>
<polygon fill="white" stroke="black" points="559.73,-508.78 479.55,-521.22 399.38,-508.78 399.45,-488.66 559.65,-488.66 559.73,-508.78"/>
<text text-anchor="middle" x="479.55" y="-499.52" font-family="Times,serif" font-size="14.00">other_route</text>
</g>
<!-- /router/B_tracker/other_route&#45;&gt;/router/B_tracker/select_route -->
<g id="edge13" class="edge">
<title>/router/B_tracker/other_route:s&#45;&gt;/router/B_tracker/select_route:w</title>
<path fill="none" stroke="black" d="M479.55,-487.22C479.55,-327.18 502.96,-177.44 657.2,-171.08"/>
<polygon fill="black" stroke="black" points="657.62,-174.57 667.55,-170.87 657.48,-167.57 657.62,-174.57"/>
<text text-anchor="middle" x="660.55" y="-174.67" font-family="Times,serif" font-size="14.00">i2</text>
</g>
<!-- /router/B_tracker/other_distance -->
<g id="node9" class="node">
<title>/router/B_tracker/other_distance</title>
<polygon fill="white" stroke="black" points="773.57,-508.78 675.55,-521.22 577.53,-508.78 577.62,-488.66 773.48,-488.66 773.57,-508.78"/>
<text text-anchor="middle" x="675.55" y="-499.52" font-family="Times,serif" font-size="14.00">other_distance</text>
</g>
<!-- /router/B_tracker/cross_sum -->
<g id="node14" class="node">
<title>/router/B_tracker/cross_sum</title>
<g id="a_node14"><a xlink:href="../../../../../.flow/lib/flowstdlib/math/add/add.html" xlink:title="cross_sum\n(add)">
<ellipse fill="coral" stroke="black" cx="831.55" cy="-332.61" rx="64.19" ry="26.74"/>
<text text-anchor="middle" x="831.55" y="-336.41" font-family="Times,serif" font-size="14.00">cross_sum</text>
<text text-anchor="middle" x="831.55" y="-321.41" font-family="Times,serif" font-size="14.00">(add)</text>
</a>
</g>
</g>
<!-- /router/B_tracker/other_distance&#45;&gt;/router/B_tracker/cross_sum -->
<g id="edge5" class="edge">
<title>/router/B_tracker/other_distance:s&#45;&gt;/router/B_tracker/cross_sum:w</title>
<path fill="none" stroke="black" d="M675.55,-487.22C675.55,-411.28 685.12,-339.37 755.25,-333.06"/>
<polygon fill="black" stroke="black" points="755.71,-336.54 765.55,-332.61 755.41,-329.55 755.71,-336.54"/>
<text text-anchor="middle" x="758.55" y="-336.41" font-family="Times,serif" font-size="14.00">i2</text>
</g>
<!-- /router/B_tracker/route -->
<g id="node10" class="node">
<title>/router/B_tracker/route</title>
<polygon fill="black" stroke="black" points="606.18,-12.44 650.55,0 694.92,-12.44 694.88,-32.56 606.22,-32.56 606.18,-12.44"/>
<text text-anchor="middle" x="650.55" y="-14.3" font-family="Times,serif" font-size="14.00" fill="white">route</text>
</g>
<!-- /router/B_tracker/distance -->
<g id="node11" class="node">
<title>/router/B_tracker/distance</title>
<polygon fill="black" stroke="black" points="865.83,-12.44 927.55,0 989.27,-12.44 989.21,-32.56 865.89,-32.56 865.83,-12.44"/>
<text text-anchor="middle" x="927.55" y="-14.3" font-family="Times,serif" font-size="14.00" fill="white">distance</text>
</g>
<!-- /router/B_tracker/cross_distance&#45;&gt;/router/B_tracker/cross_sum -->
<g id="edge6" class="edge">
<title>/router/B_tracker/cross_distance:e&#45;&gt;/router/B_tracker/cross_sum:ne</title>
<path fill="none" stroke="black" d="M1002.55,-422.35C1014.5,-422.35 1009.06,-404.78 1001.55,-395.48 962.05,-346.58 909.67,-399.2 864.34,-365.38"/>
<polygon fill="black" stroke="black" points="866.39,-362.53 856.55,-358.61 861.8,-367.81 866.39,-362.53"/>
<text text-anchor="middle" x="849.55" y="-362.41" font-family="Times,serif" font-size="14.00">i1</text>
</g>
<!-- /router/B_tracker/compare -->
<g id="node15" class="node">
<title>/router/B_tracker/compare</title>
<g id="a_node15"><a xlink:href="../../../../../.flow/lib/flowstdlib/math/compare/compare.html" xlink:title="compare">
<ellipse fill="coral" stroke="black" cx="927.55" cy="-251.74" rx="50.89" ry="18"/>
<text text-anchor="middle" x="927.55" y="-248.04" font-family="Times,serif" font-size="14.00">compare</text>
</a>
</g>
</g>
<!-- /router/B_tracker/forward_sum&#45;&gt;/router/B_tracker/compare -->
<g id="edge7" class="edge">
<title>/router/B_tracker/forward_sum:e&#45;&gt;/router/B_tracker/compare:ne</title>
<path fill="none" stroke="black" d="M1380.55,-332.61C1392.5,-332.61 1387.81,-314.38 1379.55,-305.74 1314.89,-238.08 1033.9,-331.32 952.62,-276.35"/>
<polygon fill="black" stroke="black" points="954.5,-273.37 944.55,-269.74 950.07,-278.79 954.5,-273.37"/>
<text text-anchor="middle" x="932.05" y="-273.54" font-family="Times,serif" font-size="14.00">left</text>
</g>
<!-- /router/B_tracker/select_total -->
<g id="node18" class="node">
<title>/router/B_tracker/select_total</title>
<g id="a_node18"><a xlink:href="../../../../../.flow/lib/flowstdlib/control/select/select.html" xlink:title="select_total\n(select)">
<ellipse fill="coral" stroke="black" cx="952.55" cy="-170.87" rx="69.09" ry="26.74"/>
<text text-anchor="middle" x="952.55" y="-174.67" font-family="Times,serif" font-size="14.00">select_total</text>
<text text-anchor="middle" x="952.55" y="-159.67" font-family="Times,serif" font-size="14.00">(select)</text>
</a>
</g>
</g>
<!-- /router/B_tracker/forward_sum&#45;&gt;/router/B_tracker/select_total -->
<g id="edge15" class="edge">
<title>/router/B_tracker/forward_sum:e&#45;&gt;/router/B_tracker/select_total:ne</title>
<path fill="none" stroke="black" d="M1380.55,-332.61C1392.5,-332.61 1386.99,-315.09 1379.55,-305.74 1376.27,-301.61 1047.94,-217.84 987.14,-200.05"/>
<polygon fill="black" stroke="black" points="988.14,-196.69 977.55,-196.87 985.94,-203.34 988.14,-196.69"/>
<text text-anchor="middle" x="970.55" y="-200.67" font-family="Times,serif" font-size="14.00">i1</text>
</g>
<!-- /router/B_tracker/cross_sum&#45;&gt;/router/B_tracker/compare -->
<g id="edge8" class="edge">
<title>/router/B_tracker/cross_sum:e&#45;&gt;/router/B_tracker/compare:ne</title>
<path fill="none" stroke="black" d="M897.55,-332.61C928.76,-332.61 961.48,-302.04 950.38,-277.94"/>
<polygon fill="black" stroke="black" points="953.2,-275.86 944.55,-269.74 947.49,-279.92 953.2,-275.86"/>
<text text-anchor="middle" x="962.55" y="-273.54" font-family="Times,serif" font-size="14.00">right</text>
</g>
<!-- /router/B_tracker/cross_sum&#45;&gt;/router/B_tracker/select_total -->
<g id="edge16" class="edge">
<title>/router/B_tracker/cross_sum:e&#45;&gt;/router/B_tracker/select_total:w</title>
<path fill="none" stroke="black" d="M897.55,-332.61C909.5,-332.61 900.73,-316.93 896.55,-305.74 889.36,-286.49 874.38,-289.12 867.55,-269.74 854.06,-231.48 839.85,-180.56 871.4,-172.09"/>
<polygon fill="black" stroke="black" points="872.04,-175.54 881.55,-170.87 871.21,-168.59 872.04,-175.54"/>
<text text-anchor="middle" x="874.55" y="-174.67" font-family="Times,serif" font-size="14.00">i2</text>
</g>
<!-- /router/B_tracker/compare&#45;&gt;/router/B_tracker/select_string -->
<g id="edge11" class="edge">
<title>/router/B_tracker/compare:s&#45;&gt;/router/B_tracker/select_string:nw</title>
<path fill="none" stroke="black" d="M927.55,-233.74C927.55,-184.49 499.13,-225.96 440.21,-206.79"/>
<polygon fill="black" stroke="black" points="443.24,-205.03 435.55,-197.74 437.02,-208.23 443.24,-205.03"/>
<text text-anchor="middle" x="671.58" y="-213.23" font-family="Times,serif" font-size="14.00">lte</text>
<text text-anchor="middle" x="410.05" y="-201.54" font-family="Times,serif" font-size="14.00">control</text>
</g>
<!-- /router/B_tracker/compare&#45;&gt;/router/B_tracker/select_route -->
<g id="edge14" class="edge">
<title>/router/B_tracker/compare:s&#45;&gt;/router/B_tracker/select_route:nw</title>
<path fill="none" stroke="black" d="M927.55,-233.74C927.55,-193.02 747.72,-219.8 718.4,-206.88"/>
<polygon fill="black" stroke="black" points="721.89,-206.54 717.55,-196.87 714.91,-207.13 721.89,-206.54"/>
<text text-anchor="middle" x="813.03" y="-213.74" font-family="Times,serif" font-size="14.00">lte</text>
<text text-anchor="middle" x="692.05" y="-200.67" font-family="Times,serif" font-size="14.00">control</text>
</g>
<!-- /router/B_tracker/compare&#45;&gt;/router/B_tracker/select_total -->
<g id="edge17" class="edge">
<title>/router/B_tracker/compare:s&#45;&gt;/router/B_tracker/select_total:nw</title>
<path fill="none" stroke="black" d="M927.55,-233.74C927.55,-221.71 921.3,-213.71 922.57,-205.72"/>
<polygon fill="black" stroke="black" points="925.7,-207.3 927.55,-196.87 919.6,-203.87 925.7,-207.3"/>
<text text-anchor="middle" x="914.45" y="-219.94" font-family="Times,serif" font-size="14.00">lte</text>
<text text-anchor="middle" x="902.05" y="-200.67" font-family="Times,serif" font-size="14.00">control</text>
</g>
<!-- /router/B_tracker/append -->
<g id="node19" class="node">
<title>/router/B_tracker/append</title>
<g id="a_node19"><a xlink:href="../../../../../.flow/lib/flowstdlib/data/append/append.html" xlink:title="append">
<ellipse fill="coral" stroke="black" cx="605.55" cy="-90" rx="44.69" ry="18"/>
<text text-anchor="middle" x="605.55" y="-86.3" font-family="Times,serif" font-size="14.00">append</text>
</a>
</g>
</g>
<!-- /router/B_tracker/select_string&#45;&gt;/router/B_tracker/append -->
<g id="edge19" class="edge">
<title>/router/B_tracker/select_string:sw&#45;&gt;/router/B_tracker/append:nw</title>
<path fill="none" stroke="black" d="M435.55,-144C388.57,-97.02 524.7,-151.53 580.61,-114.46"/>
<polygon fill="black" stroke="black" points="583,-117.03 588.55,-108 578.58,-111.6 583,-117.03"/>
<text text-anchor="middle" x="480.28" y="-132.06" font-family="Times,serif" font-size="14.00">select_i1</text>
<text text-anchor="middle" x="580.05" y="-111.8" font-family="Times,serif" font-size="14.00">s2</text>
</g>
<!-- /router/B_tracker/select_route&#45;&gt;/router/B_tracker/append -->
<g id="edge18" class="edge">
<title>/router/B_tracker/select_route:sw&#45;&gt;/router/B_tracker/append:w</title>
<path fill="none" stroke="black" d="M717.55,-144.87C666.87,-94.19 606.61,-162.92 560.55,-108 558.62,-105.7 556.87,-102.59 555.86,-99.61"/>
<polygon fill="black" stroke="black" points="559.23,-100.59 559.55,-90 552.7,-98.08 559.23,-100.59"/>
<text text-anchor="middle" x="605.74" y="-131.84" font-family="Times,serif" font-size="14.00">select_i1</text>
<text text-anchor="middle" x="551.05" y="-93.8" font-family="Times,serif" font-size="14.00">s1</text>
</g>
<!-- /router/B_tracker/select_total&#45;&gt;/router/B_tracker/distance -->
<g id="edge20" class="edge">
<title>/router/B_tracker/select_total:sw&#45;&gt;/router/B_tracker/distance:n</title>
<path fill="none" stroke="black" d="M927.55,-144.87C895.16,-112.48 923,-87.08 927.07,-44.07"/>
<polygon fill="black" stroke="black" points="930.57,-44.16 927.55,-34 923.58,-43.82 930.57,-44.16"/>
<text text-anchor="middle" x="885.27" y="-90.51" font-family="Times,serif" font-size="14.00">select_i1</text>
</g>
<!-- /router/B_tracker/append&#45;&gt;/router/B_tracker/route -->
<g id="edge21" class="edge">
<title>/router/B_tracker/append:e&#45;&gt;/router/B_tracker/route:n</title>
<path fill="none" stroke="black" d="M651.55,-90C673.14,-90 656.53,-66.61 651.74,-44.16"/>
<polygon fill="black" stroke="black" points="655.19,-43.52 650.55,-34 648.24,-44.34 655.19,-43.52"/>
</g>
</g>
</svg>
