<?xml version="1.0" encoding="UTF-8" standalone="no"?>
<!DOCTYPE svg PUBLIC "-//W3C//DTD SVG 1.1//EN"
 "http://www.w3.org/Graphics/SVG/1.1/DTD/svg11.dtd">
<!-- Generated by graphviz version 2.43.0 (0)
 -->
<!-- Title: router Pages: 1 -->
<svg width="1864pt" height="556pt"
 viewBox="28.80 28.80 1834.74 527.54" xmlns="http://www.w3.org/2000/svg" xmlns:xlink="http://www.w3.org/1999/xlink">
<g id="graph0" class="graph" transform="scale(1 1) rotate(0) translate(32.8 523.54)">
<title>router</title>
<polygon fill="white" stroke="transparent" points="-4,4 -4,-494.74 1801.94,-494.74 1801.94,4 -4,4"/>
<text text-anchor="middle" x="898.97" y="-475.54" font-family="Times,serif" font-size="14.00">router</text>
<!-- /router/readline -->
<g id="node1" class="node">
<title>/router/readline</title>
<g id="a_node1"><a xlink:href="../../../flowr/src/cli/stdio/readline.html" xlink:title="readline">
<ellipse fill="coral" stroke="black" cx="48.75" cy="-395.74" rx="48.99" ry="18"/>
<text text-anchor="middle" x="48.75" y="-392.04" font-family="Times,serif" font-size="14.00">readline</text>
</a>
</g>
</g>
<!-- /router/accumulate_triples -->
<g id="node2" class="node">
<title>/router/accumulate_triples</title>
<g id="a_node2"><a xlink:href="../../../target/flowstdlib/data/accumulate/accumulate.html" xlink:title="accumulate_triples\n(accumulate)">
<ellipse fill="coral" stroke="black" cx="501.75" cy="-245.87" rx="107.46" ry="26.74"/>
<text text-anchor="middle" x="501.75" y="-249.67" font-family="Times,serif" font-size="14.00">accumulate_triples</text>
<text text-anchor="middle" x="501.75" y="-234.67" font-family="Times,serif" font-size="14.00">(accumulate)</text>
</a>
</g>
</g>
<!-- initializer/router/accumulate_triples_1 -->
<!-- initializer/router/accumulate_triples_1&#45;&gt;/router/accumulate_triples -->
<g id="edge1" class="edge">
<title>initializer/router/accumulate_triples_1&#45;&gt;/router/accumulate_triples:n</title>
<path fill="none" stroke="blue" stroke-dasharray="1,5" d="M337.33,-377.96C386.76,-352.82 475.57,-305.72 497,-281.56"/>
<polygon fill="blue" stroke="blue" points="500.09,-283.2 501.75,-272.74 493.92,-279.89 500.09,-283.2"/>
<text text-anchor="middle" x="491.25" y="-294.54" font-family="Times,serif" font-size="14.00">[]</text>
</g>
<!-- initializer/router/accumulate_triples_2 -->
<!-- initializer/router/accumulate_triples_2&#45;&gt;/router/accumulate_triples -->
<g id="edge2" class="edge">
<title>initializer/router/accumulate_triples_2&#45;&gt;/router/accumulate_triples:n</title>
<path fill="none" stroke="blue" d="M621.73,-379.3C569.72,-364.16 509.3,-335.41 502.4,-282.84"/>
<polygon fill="blue" stroke="blue" points="505.88,-282.49 501.75,-272.74 498.9,-282.94 505.88,-282.49"/>
<text text-anchor="middle" x="512.75" y="-294.54" font-family="Times,serif" font-size="14.00">3</text>
</g>
<!-- /router/A_tracker -->
<g id="node5" class="node">
<title>/router/A_tracker</title>
<g id="a_node5"><a xlink:href="path_tracker.dot.svg" xlink:title="A_tracker">
<ellipse fill="aquamarine" stroke="black" cx="976.75" cy="-395.74" rx="72" ry="72"/>
<text text-anchor="middle" x="976.75" y="-392.04" font-family="Times,serif" font-size="14.00">A_tracker</text>
</a>
</g>
</g>
<!-- /router/B_tracker -->
<g id="node6" class="node">
<title>/router/B_tracker</title>
<g id="a_node6"><a xlink:href="path_tracker.dot.svg" xlink:title="B_tracker">
<ellipse fill="aquamarine" stroke="black" cx="1138.75" cy="-395.74" rx="72" ry="72"/>
<text text-anchor="middle" x="1138.75" y="-392.04" font-family="Times,serif" font-size="14.00">B_tracker</text>
</a>
</g>
</g>
<!-- /router/to_string -->
<g id="node7" class="node">
<title>/router/to_string</title>
<g id="a_node7"><a xlink:href="../../../target/flowstdlib/fmt/to_string/to_string.html" xlink:title="to_string">
<ellipse fill="coral" stroke="black" cx="1677.75" cy="-91" rx="51.99" ry="18"/>
<text text-anchor="middle" x="1677.75" y="-87.3" font-family="Times,serif" font-size="14.00">to_string</text>
</a>
</g>
</g>
<!-- /router/append/ -->
<g id="node14" class="node">
<title>/router/append/</title>
<ellipse fill="none" stroke="black" cx="1714.75" cy="-18" rx="83.39" ry="18"/>
<text text-anchor="middle" x="1714.75" y="-14.3" font-family="Times,serif" font-size="14.00">/router/append/</text>
</g>
<!-- /router/to_string&#45;&gt;/router/append/ -->
<g id="edge20" class="edge">
<title>/router/to_string:e&#45;&gt;/router/append/:nw</title>
<path fill="none" stroke="black" d="M1730.75,-91C1738.76,-91 1732.81,-80.4 1729.75,-73 1723.57,-58.05 1700.26,-53.5 1694.49,-45.98"/>
<polygon fill="black" stroke="black" points="1697.95,-46.53 1696.75,-36 1691.13,-44.98 1697.95,-46.53"/>
<text text-anchor="middle" x="1688.25" y="-39.8" font-family="Times,serif" font-size="14.00">s2</text>
</g>
<!-- /router/append -->
<g id="node8" class="node">
<title>/router/append</title>
<g id="a_node8"><a xlink:href="../../../target/flowstdlib/data/append/append.html" xlink:title="append">
<ellipse fill="coral" stroke="black" cx="1666.75" cy="-395.74" rx="44.69" ry="18"/>
<text text-anchor="middle" x="1666.75" y="-392.04" font-family="Times,serif" font-size="14.00">append</text>
</a>
</g>
</g>
<!-- /router/stdout -->
<g id="node9" class="node">
<title>/router/stdout</title>
<g id="a_node9"><a xlink:href="../../../flowr/src/cli/stdio/stdout.html" xlink:title="stdout">
<ellipse fill="coral" stroke="black" cx="1752.75" cy="-245.87" rx="40.09" ry="18"/>
<text text-anchor="middle" x="1752.75" y="-242.17" font-family="Times,serif" font-size="14.00">stdout</text>
</a>
</g>
</g>
<!-- /router/append&#45;&gt;/router/stdout -->
<g id="edge21" class="edge">
<title>/router/append:e&#45;&gt;/router/stdout:w</title>
<path fill="none" stroke="black" d="M1712.75,-395.74C1726.86,-395.74 1703.64,-288.06 1706.38,-255.25"/>
<polygon fill="black" stroke="black" points="1709.7,-256.41 1710.75,-245.87 1703.35,-253.46 1709.7,-256.41"/>
</g>
<!-- /router/readline/ -->
<g id="node10" class="node">
<title>/router/readline/</title>
<ellipse fill="none" stroke="black" cx="1315.75" cy="-395.74" rx="87.18" ry="18"/>
<text text-anchor="middle" x="1315.75" y="-392.04" font-family="Times,serif" font-size="14.00">/router/readline/</text>
</g>
<!-- /router/accumulate_triples/ -->
<g id="node11" class="node">
<title>/router/accumulate_triples/</title>
<ellipse fill="none" stroke="black" cx="1539.75" cy="-245.87" rx="136.48" ry="18"/>
<text text-anchor="middle" x="1539.75" y="-242.17" font-family="Times,serif" font-size="14.00">/router/accumulate_triples/</text>
</g>
<!-- /router/readline/&#45;&gt;/router/accumulate_triples/ -->
<g id="edge3" class="edge">
<title>/router/readline/:e&#45;&gt;/router/accumulate_triples/:w</title>
<path fill="none" stroke="black" d="M1403.75,-395.74C1466.33,-395.74 1350.77,-263.47 1391.78,-247.45"/>
<polygon fill="black" stroke="black" points="1392.42,-250.89 1401.75,-245.87 1391.32,-243.98 1392.42,-250.89"/>
<text text-anchor="middle" x="1387.65" y="-324.4" font-family="Times,serif" font-size="14.00">json</text>
<text text-anchor="middle" x="1378.75" y="-249.67" font-family="Times,serif" font-size="14.00">values</text>
</g>
<!-- /router/accumulate_triples/&#45;&gt;/router/accumulate_triples/ -->
<g id="edge4" class="edge">
<title>/router/accumulate_triples/:s&#45;&gt;/router/accumulate_triples/:n</title>
<path fill="none" stroke="black" d="M1539.75,-227.87C1591.24,-216.87 1694.23,-216.87 1694.23,-245.87 1694.23,-273.11 1603.34,-274.76 1549.63,-265.74"/>
<polygon fill="black" stroke="black" points="1550.22,-262.29 1539.75,-263.87 1548.92,-269.17 1550.22,-262.29"/>
<text text-anchor="middle" x="1515.78" y="-216.66" font-family="Times,serif" font-size="14.00">partial</text>
<text text-anchor="middle" x="1515.75" y="-267.67" font-family="Times,serif" font-size="14.00">partial</text>
</g>
<!-- /router/A_tracker/ -->
<g id="node12" class="node">
<title>/router/A_tracker/</title>
<ellipse fill="none" stroke="black" cx="1557.75" cy="-164" rx="92.88" ry="18"/>
<text text-anchor="middle" x="1557.75" y="-160.3" font-family="Times,serif" font-size="14.00">/router/A_tracker/</text>
</g>
<!-- /router/accumulate_triples/&#45;&gt;/router/A_tracker/ -->
<g id="edge5" class="edge">
<title>/router/accumulate_triples/:se&#45;&gt;/router/A_tracker/:n</title>
<path fill="none" stroke="black" d="M1557.75,-226.87C1569.31,-215.3 1561.9,-205.94 1558.87,-191.94"/>
<polygon fill="black" stroke="black" points="1562.34,-191.54 1557.75,-182 1555.39,-192.33 1562.34,-191.54"/>
<text text-anchor="middle" x="1593.62" y="-207.16" font-family="Times,serif" font-size="14.00">chunk[0]</text>
<text text-anchor="middle" x="1529.25" y="-185.8" font-family="Times,serif" font-size="14.00">forward</text>
</g>
<!-- /router/accumulate_triples/&#45;&gt;/router/A_tracker/ -->
<g id="edge6" class="edge">
<title>/router/accumulate_triples/:se&#45;&gt;/router/A_tracker/:n</title>
<path fill="none" stroke="black" d="M1557.75,-226.87C1561.93,-215.3 1553.19,-205.94 1554.89,-191.94"/>
<polygon fill="black" stroke="black" points="1558.34,-192.58 1557.75,-182 1551.62,-190.64 1558.34,-192.58"/>
<text text-anchor="middle" x="1524.39" y="-208.81" font-family="Times,serif" font-size="14.00">chunk[1]</text>
<text text-anchor="middle" x="1577.25" y="-185.8" font-family="Times,serif" font-size="14.00">other</text>
</g>
<!-- /router/accumulate_triples/&#45;&gt;/router/A_tracker/ -->
<g id="edge7" class="edge">
<title>/router/accumulate_triples/:se&#45;&gt;/router/A_tracker/:n</title>
<path fill="none" stroke="black" d="M1557.75,-226.87C1577.06,-215.08 1570.37,-205.58 1562.4,-191.13"/>
<polygon fill="black" stroke="black" points="1565.4,-189.32 1557.75,-182 1559.17,-192.5 1565.4,-189.32"/>
<text text-anchor="middle" x="1599.32" y="-190.1" font-family="Times,serif" font-size="14.00">chunk[2]</text>
<text text-anchor="middle" x="1538.75" y="-185.8" font-family="Times,serif" font-size="14.00">cross</text>
</g>
<!-- /router/B_tracker/ -->
<g id="node13" class="node">
<title>/router/B_tracker/</title>
<ellipse fill="none" stroke="black" cx="1439.75" cy="-91" rx="93.68" ry="18"/>
<text text-anchor="middle" x="1439.75" y="-87.3" font-family="Times,serif" font-size="14.00">/router/B_tracker/</text>
</g>
<!-- /router/accumulate_triples/&#45;&gt;/router/B_tracker/ -->
<g id="edge8" class="edge">
<title>/router/accumulate_triples/:se&#45;&gt;/router/B_tracker/:n</title>
<path fill="none" stroke="black" d="M1557.75,-226.87C1592.77,-191.85 1487.12,-220.32 1455.75,-182 1437.01,-159.11 1438.95,-145.43 1439.61,-119.25"/>
<polygon fill="black" stroke="black" points="1443.11,-119.05 1439.75,-109 1436.11,-118.95 1443.11,-119.05"/>
<text text-anchor="middle" x="1424.24" y="-185.79" font-family="Times,serif" font-size="14.00">chunk[1]</text>
<text text-anchor="middle" x="1411.25" y="-112.8" font-family="Times,serif" font-size="14.00">forward</text>
</g>
<!-- /router/accumulate_triples/&#45;&gt;/router/B_tracker/ -->
<g id="edge9" class="edge">
<title>/router/accumulate_triples/:se&#45;&gt;/router/B_tracker/:n</title>
<path fill="none" stroke="black" d="M1557.75,-226.87C1591.62,-193 1490.77,-218.5 1459.75,-182 1440.26,-159.07 1439.63,-145.67 1439.72,-119.02"/>
<polygon fill="black" stroke="black" points="1443.22,-119.01 1439.75,-109 1436.22,-118.99 1443.22,-119.01"/>
<text text-anchor="middle" x="1428.24" y="-170.79" font-family="Times,serif" font-size="14.00">chunk[2]</text>
<text text-anchor="middle" x="1458.75" y="-112.8" font-family="Times,serif" font-size="14.00">cross</text>
</g>
<!-- /router/A_tracker/&#45;&gt;/router/to_string -->
<g id="edge19" class="edge">
<title>/router/A_tracker/:s&#45;&gt;/router/to_string:w</title>
<path fill="none" stroke="black" d="M1557.75,-146C1557.75,-121.54 1592.01,-144.84 1609.75,-128 1618.89,-119.31 1613.65,-104.28 1616.23,-96.31"/>
<polygon fill="black" stroke="black" points="1618.11,-99.26 1624.75,-91 1614.41,-93.32 1618.11,-99.26"/>
<text text-anchor="middle" x="1579.26" y="-131.79" font-family="Times,serif" font-size="14.00">distance</text>
</g>
<!-- /router/A_tracker/&#45;&gt;/router/A_tracker/ -->
<g id="edge10" class="edge">
<title>/router/A_tracker/:s&#45;&gt;/router/A_tracker/:n</title>
<path fill="none" stroke="black" d="M1557.75,-146C1594.73,-141.5 1668.69,-141.5 1668.69,-164 1668.69,-184.57 1606.89,-186.33 1568.03,-183.05"/>
<polygon fill="black" stroke="black" points="1568.05,-179.53 1557.75,-182 1567.34,-186.5 1568.05,-179.53"/>
<text text-anchor="middle" x="1538.35" y="-134.79" font-family="Times,serif" font-size="14.00">route</text>
<text text-anchor="middle" x="1608.75" y="-185.8" font-family="Times,serif" font-size="14.00">forward_route</text>
</g>
<!-- /router/A_tracker/&#45;&gt;/router/A_tracker/ -->
<g id="edge12" class="edge">
<title>/router/A_tracker/:s&#45;&gt;/router/A_tracker/:n</title>
<path fill="none" stroke="black" d="M1557.75,-146C1600.73,-137 1686.69,-137 1686.69,-164 1686.69,-189.05 1612.7,-190.86 1567.69,-183.8"/>
<polygon fill="black" stroke="black" points="1568.21,-180.34 1557.75,-182 1566.96,-187.23 1568.21,-180.34"/>
<text text-anchor="middle" x="1588.31" y="-134.79" font-family="Times,serif" font-size="14.00">distance</text>
<text text-anchor="middle" x="1619.75" y="-170.8" font-family="Times,serif" font-size="14.00">forward_distance</text>
</g>
<!-- /router/A_tracker/&#45;&gt;/router/B_tracker/ -->
<g id="edge14" class="edge">
<title>/router/A_tracker/:s&#45;&gt;/router/B_tracker/:n</title>
<path fill="none" stroke="black" d="M1557.75,-146C1557.75,-122.06 1468.21,-132.61 1445.12,-117.56"/>
<polygon fill="black" stroke="black" points="1448.03,-115.6 1439.75,-109 1442.1,-119.33 1448.03,-115.6"/>
<text text-anchor="middle" x="1479.21" y="-131.3" font-family="Times,serif" font-size="14.00">route</text>
<text text-anchor="middle" x="1481.75" y="-112.8" font-family="Times,serif" font-size="14.00">other_route</text>
</g>
<!-- /router/A_tracker/&#45;&gt;/router/B_tracker/ -->
<g id="edge16" class="edge">
<title>/router/A_tracker/:s&#45;&gt;/router/B_tracker/:n</title>
<path fill="none" stroke="black" d="M1557.75,-146C1557.75,-122.06 1468.21,-132.61 1445.12,-117.56"/>
<polygon fill="black" stroke="black" points="1448.03,-115.6 1439.75,-109 1442.1,-119.33 1448.03,-115.6"/>
<text text-anchor="middle" x="1529.21" y="-116.3" font-family="Times,serif" font-size="14.00">distance</text>
<text text-anchor="middle" x="1386.75" y="-112.8" font-family="Times,serif" font-size="14.00">other_distance</text>
</g>
<!-- /router/A_tracker/&#45;&gt;/router/append/ -->
<g id="edge18" class="edge">
<title>/router/A_tracker/:s&#45;&gt;/router/append/:w</title>
<path fill="none" stroke="black" d="M1557.75,-146C1557.75,-131.95 1574.9,-138.92 1583.75,-128 1614.62,-89.87 1582.34,-28.06 1619.42,-19.1"/>
<polygon fill="black" stroke="black" points="1620.17,-22.54 1629.75,-18 1619.43,-15.58 1620.17,-22.54"/>
<text text-anchor="middle" x="1579.15" y="-86.13" font-family="Times,serif" font-size="14.00">route</text>
<text text-anchor="middle" x="1621.25" y="-21.8" font-family="Times,serif" font-size="14.00">s1</text>
</g>
<!-- /router/B_tracker/&#45;&gt;/router/A_tracker/ -->
<g id="edge15" class="edge">
<title>/router/B_tracker/:s&#45;&gt;/router/A_tracker/:n</title>
<path fill="none" stroke="black" d="M1439.75,-72C1430.75,-61.6 1514.84,-68.76 1524.34,-73 1554.62,-86.51 1546.41,-110.79 1574.75,-128 1601.08,-143.99 1622.94,-121.55 1641.69,-146 1651.42,-158.7 1652.94,-170.63 1641.69,-182 1636.27,-187.48 1587.2,-191.09 1566.37,-188.28"/>
<polygon fill="black" stroke="black" points="1568.1,-185.24 1557.75,-183 1564.45,-191.21 1568.1,-185.24"/>
<text text-anchor="middle" x="1569.71" y="-102.8" font-family="Times,serif" font-size="14.00">route</text>
<text text-anchor="middle" x="1515.75" y="-171.8" font-family="Times,serif" font-size="14.00">other_route</text>
</g>
<!-- /router/B_tracker/&#45;&gt;/router/A_tracker/ -->
<g id="edge17" class="edge">
<title>/router/B_tracker/:s&#45;&gt;/router/A_tracker/:n</title>
<path fill="none" stroke="black" d="M1439.75,-72C1448.75,-61.6 1532.84,-68.76 1542.34,-73 1572.62,-86.51 1564.41,-110.79 1592.75,-128 1619.08,-143.99 1640.94,-121.55 1659.69,-146 1669.42,-158.7 1670.94,-170.63 1659.69,-182 1653.56,-188.19 1591.61,-192 1566.99,-186.83"/>
<polygon fill="black" stroke="black" points="1568.32,-183.6 1557.75,-183 1565.64,-190.06 1568.32,-183.6"/>
<text text-anchor="middle" x="1511.85" y="-61.8" font-family="Times,serif" font-size="14.00">distance</text>
<text text-anchor="middle" x="1504.75" y="-186.8" font-family="Times,serif" font-size="14.00">other_distance</text>
</g>
<!-- /router/B_tracker/&#45;&gt;/router/B_tracker/ -->
<g id="edge11" class="edge">
<title>/router/B_tracker/:s&#45;&gt;/router/B_tracker/:n</title>
<path fill="none" stroke="black" d="M1439.75,-73C1476.94,-68.5 1551.34,-68.5 1551.34,-91 1551.34,-111.57 1489.18,-113.33 1450.09,-110.05"/>
<polygon fill="black" stroke="black" points="1450.05,-106.53 1439.75,-109 1449.34,-113.49 1450.05,-106.53"/>
<text text-anchor="middle" x="1459.35" y="-61.79" font-family="Times,serif" font-size="14.00">route</text>
<text text-anchor="middle" x="1388.75" y="-97.8" font-family="Times,serif" font-size="14.00">forward_route</text>
</g>
<!-- /router/B_tracker/&#45;&gt;/router/B_tracker/ -->
<g id="edge13" class="edge">
<title>/router/B_tracker/:s&#45;&gt;/router/B_tracker/:n</title>
<path fill="none" stroke="black" d="M1439.75,-73C1482.94,-64 1569.34,-64 1569.34,-91 1569.34,-116.05 1494.98,-117.86 1449.74,-110.8"/>
<polygon fill="black" stroke="black" points="1450.21,-107.33 1439.75,-109 1448.97,-114.22 1450.21,-107.33"/>
<text text-anchor="middle" x="1409.31" y="-61.79" font-family="Times,serif" font-size="14.00">distance</text>
<text text-anchor="middle" x="1501.75" y="-97.8" font-family="Times,serif" font-size="14.00">forward_distance</text>
</g>
</g>
</svg>
