<?xml version="1.0" encoding="UTF-8" standalone="no"?>
<!DOCTYPE svg PUBLIC "-//W3C//DTD SVG 1.1//EN"
 "http://www.w3.org/Graphics/SVG/1.1/DTD/svg11.dtd">
<!-- Generated by graphviz version 2.43.0 (0)
 -->
<!-- Title: router Pages: 1 -->
<svg width="3843pt" height="466pt"
 viewBox="28.80 28.80 3814.42 437.54" xmlns="http://www.w3.org/2000/svg" xmlns:xlink="http://www.w3.org/1999/xlink">
<g id="graph0" class="graph" transform="scale(1 1) rotate(0) translate(32.8 433.54)">
<title>router</title>
<polygon fill="white" stroke="transparent" points="-4,4 -4,-404.74 3781.62,-404.74 3781.62,4 -4,4"/>
<text text-anchor="middle" x="1888.81" y="-385.54" font-family="Times,serif" font-size="14.00">router</text>
<!-- /router/readline -->
<g id="node1" class="node">
<title>/router/readline</title>
<g id="a_node1"><a xlink:href="../../flowr/src/bin/flowrcli/context/stdio/readline.html" xlink:title="readline">
<polygon fill="black" stroke="black" points="251.44,-23.56 191.44,-36 131.43,-23.56 131.49,-3.44 251.39,-3.44 251.44,-23.56"/>
<text text-anchor="middle" x="191.44" y="-14.3" font-family="Times,serif" font-size="14.00" fill="white">readline</text>
</a>
</g>
</g>
<!-- /router/accumulate_triples -->
<g id="node3" class="node">
<title>/router/accumulate_triples</title>
<g id="a_node3"><a xlink:href="../../../../../.flow/lib/flowstdlib/data/accumulate/accumulate.html" xlink:title="accumulate_triples\n(accumulate)">
<ellipse fill="coral" stroke="black" cx="735.44" cy="-170.87" rx="107.46" ry="26.74"/>
<text text-anchor="middle" x="735.44" y="-174.67" font-family="Times,serif" font-size="14.00">accumulate_triples</text>
<text text-anchor="middle" x="735.44" y="-159.67" font-family="Times,serif" font-size="14.00">(accumulate)</text>
</a>
</g>
</g>
<!-- /router/readline&#45;&gt;/router/accumulate_triples -->
<g id="edge4" class="edge">
<title>/router/readline:e&#45;&gt;/router/accumulate_triples:w</title>
<path fill="none" stroke="black" d="M252.44,-18C303.39,-18 280.1,-81.21 323.44,-108 379.19,-142.47 541.45,-168.35 616.09,-170.7"/>
<polygon fill="black" stroke="black" points="616.38,-174.2 626.44,-170.87 616.5,-167.2 616.38,-174.2"/>
<text text-anchor="middle" x="412.88" y="-147.82" font-family="Times,serif" font-size="14.00">json</text>
<text text-anchor="middle" x="603.44" y="-174.67" font-family="Times,serif" font-size="14.00">values</text>
</g>
<!-- initializer/router/readline_0 -->
<!-- initializer/router/readline_0&#45;&gt;/router/readline -->
<g id="edge1" class="edge">
<title>initializer/router/readline_0&#45;&gt;/router/readline:n</title>
<path fill="none" stroke="blue" d="M168.65,-72.33C177.77,-65.49 186.28,-56.67 189.77,-46.15"/>
<polygon fill="blue" stroke="blue" points="193.27,-46.44 191.44,-36 186.36,-45.3 193.27,-46.44"/>
<text text-anchor="middle" x="161.65" y="-61.13" font-family="Times,serif" font-size="14.00">&quot;&quot;</text>
</g>
<!-- /router/accumulate_triples&#45;&gt;/router/accumulate_triples -->
<g id="edge5" class="edge">
<title>/router/accumulate_triples:s&#45;&gt;/router/accumulate_triples:n</title>
<path fill="none" stroke="black" d="M735.44,-143.87C777.26,-123.87 860.92,-123.87 860.92,-170.87 860.92,-214.57 788.61,-217.64 744.84,-201.78"/>
<polygon fill="black" stroke="black" points="746.01,-198.48 735.44,-197.87 743.32,-204.94 746.01,-198.48"/>
<text text-anchor="middle" x="711.45" y="-132.66" font-family="Times,serif" font-size="14.00">partial</text>
<text text-anchor="middle" x="711.44" y="-201.67" font-family="Times,serif" font-size="14.00">partial</text>
</g>
<!-- /router/A_tracker/forward -->
<g id="node11" class="node">
<title>/router/A_tracker/forward</title>
<ellipse fill="none" stroke="black" cx="1248.44" cy="-90" rx="129.98" ry="18"/>
<text text-anchor="middle" x="1248.44" y="-86.3" font-family="Times,serif" font-size="14.00">/router/A_tracker/forward</text>
</g>
<!-- /router/accumulate_triples&#45;&gt;/router/A_tracker/forward -->
<g id="edge6" class="edge">
<title>/router/accumulate_triples:se&#45;&gt;/router/A_tracker/forward:n</title>
<path fill="none" stroke="black" d="M761.44,-144C835.62,-69.81 1221.56,-206.86 1247.11,-117.97"/>
<polygon fill="black" stroke="black" points="1250.59,-118.37 1248.44,-108 1243.65,-117.45 1250.59,-118.37"/>
<text text-anchor="middle" x="991.02" y="-140.3" font-family="Times,serif" font-size="14.00">chunk[0]</text>
</g>
<!-- /router/A_tracker/other -->
<g id="node12" class="node">
<title>/router/A_tracker/other</title>
<ellipse fill="none" stroke="black" cx="1514.44" cy="-90" rx="118.08" ry="18"/>
<text text-anchor="middle" x="1514.44" y="-86.3" font-family="Times,serif" font-size="14.00">/router/A_tracker/other</text>
</g>
<!-- /router/accumulate_triples&#45;&gt;/router/A_tracker/other -->
<g id="edge7" class="edge">
<title>/router/accumulate_triples:se&#45;&gt;/router/A_tracker/other:n</title>
<path fill="none" stroke="black" d="M761.44,-144C818.12,-87.32 1455.99,-182.87 1510.7,-117.77"/>
<polygon fill="black" stroke="black" points="1514.13,-118.59 1514.44,-108 1507.6,-116.09 1514.13,-118.59"/>
<text text-anchor="middle" x="1105.82" y="-137.87" font-family="Times,serif" font-size="14.00">chunk[1]</text>
</g>
<!-- /router/A_tracker/cross -->
<g id="node13" class="node">
<title>/router/A_tracker/cross</title>
<ellipse fill="none" stroke="black" cx="450.44" cy="-90" rx="117.78" ry="18"/>
<text text-anchor="middle" x="450.44" y="-86.3" font-family="Times,serif" font-size="14.00">/router/A_tracker/cross</text>
</g>
<!-- /router/accumulate_triples&#45;&gt;/router/A_tracker/cross -->
<g id="edge8" class="edge">
<title>/router/accumulate_triples:se&#45;&gt;/router/A_tracker/cross:n</title>
<path fill="none" stroke="black" d="M761.44,-144C857.23,-48.2 471.67,-236.73 451.27,-118.31"/>
<polygon fill="black" stroke="black" points="454.74,-117.68 450.44,-108 447.76,-118.25 454.74,-117.68"/>
<text text-anchor="middle" x="578.57" y="-152.18" font-family="Times,serif" font-size="14.00">chunk[2]</text>
</g>
<!-- /router/B_tracker/forward -->
<g id="node14" class="node">
<title>/router/B_tracker/forward</title>
<ellipse fill="none" stroke="black" cx="716.44" cy="-90" rx="129.98" ry="18"/>
<text text-anchor="middle" x="716.44" y="-86.3" font-family="Times,serif" font-size="14.00">/router/B_tracker/forward</text>
</g>
<!-- /router/accumulate_triples&#45;&gt;/router/B_tracker/forward -->
<g id="edge9" class="edge">
<title>/router/accumulate_triples:se&#45;&gt;/router/B_tracker/forward:n</title>
<path fill="none" stroke="black" d="M761.44,-144C776.86,-128.58 733.38,-131.89 720.14,-117.4"/>
<polygon fill="black" stroke="black" points="723.36,-116.02 716.44,-108 716.84,-118.59 723.36,-116.02"/>
<text text-anchor="middle" x="707.19" y="-115.68" font-family="Times,serif" font-size="14.00">chunk[1]</text>
</g>
<!-- /router/B_tracker/cross -->
<g id="node15" class="node">
<title>/router/B_tracker/cross</title>
<ellipse fill="none" stroke="black" cx="982.44" cy="-90" rx="118.08" ry="18"/>
<text text-anchor="middle" x="982.44" y="-86.3" font-family="Times,serif" font-size="14.00">/router/B_tracker/cross</text>
</g>
<!-- /router/accumulate_triples&#45;&gt;/router/B_tracker/cross -->
<g id="edge10" class="edge">
<title>/router/accumulate_triples:se&#45;&gt;/router/B_tracker/cross:n</title>
<path fill="none" stroke="black" d="M761.44,-144C829.2,-76.24 971.37,-197.86 981.83,-118.14"/>
<polygon fill="black" stroke="black" points="985.33,-118.19 982.44,-108 978.34,-117.77 985.33,-118.19"/>
<text text-anchor="middle" x="861.63" y="-124.36" font-family="Times,serif" font-size="14.00">chunk[2]</text>
</g>
<!-- initializer/router/accumulate_triples_1 -->
<!-- initializer/router/accumulate_triples_1&#45;&gt;/router/accumulate_triples -->
<g id="edge2" class="edge">
<title>initializer/router/accumulate_triples_1&#45;&gt;/router/accumulate_triples:n</title>
<path fill="none" stroke="blue" stroke-dasharray="1,5" d="M631.75,-290.07C679.18,-277.11 728.23,-252.92 734.72,-207.97"/>
<polygon fill="blue" stroke="blue" points="738.22,-207.96 735.44,-197.74 731.24,-207.47 738.22,-207.96"/>
<text text-anchor="middle" x="626.25" y="-278.87" font-family="Times,serif" font-size="14.00">[]</text>
</g>
<!-- initializer/router/accumulate_triples_2 -->
<!-- initializer/router/accumulate_triples_2&#45;&gt;/router/accumulate_triples -->
<g id="edge3" class="edge">
<title>initializer/router/accumulate_triples_2&#45;&gt;/router/accumulate_triples:n</title>
<path fill="none" stroke="blue" d="M839.37,-290.13C791.77,-277.2 742.65,-253.02 736.16,-207.99"/>
<polygon fill="blue" stroke="blue" points="739.63,-207.47 735.44,-197.74 732.65,-207.96 739.63,-207.47"/>
<text text-anchor="middle" x="834.37" y="-278.93" font-family="Times,serif" font-size="14.00">3</text>
</g>
<!-- /router/A_tracker -->
<g id="node6" class="node">
<title>/router/A_tracker</title>
<g id="a_node6"><a xlink:href="path_tracker.toml.dot.svg" xlink:title="A_tracker">
<ellipse fill="aquamarine" stroke="black" cx="1489.44" cy="-305.74" rx="72" ry="72"/>
<text text-anchor="middle" x="1489.44" y="-302.04" font-family="Times,serif" font-size="14.00">A_tracker</text>
</a>
</g>
</g>
<!-- /router/B_tracker -->
<g id="node7" class="node">
<title>/router/B_tracker</title>
<g id="a_node7"><a xlink:href="path_tracker.toml.dot.svg" xlink:title="B_tracker">
<ellipse fill="aquamarine" stroke="black" cx="1831.44" cy="-305.74" rx="72" ry="72"/>
<text text-anchor="middle" x="1831.44" y="-302.04" font-family="Times,serif" font-size="14.00">B_tracker</text>
</a>
</g>
</g>
<!-- /router/to_string -->
<g id="node8" class="node">
<title>/router/to_string</title>
<g id="a_node8"><a xlink:href="../../../../../.flow/lib/flowstdlib/fmt/to_string/to_string.html" xlink:title="to_string">
<ellipse fill="coral" stroke="black" cx="2375.44" cy="-170.87" rx="51.99" ry="18"/>
<text text-anchor="middle" x="2375.44" y="-167.17" font-family="Times,serif" font-size="14.00">to_string</text>
</a>
</g>
</g>
<!-- /router/append -->
<g id="node9" class="node">
<title>/router/append</title>
<g id="a_node9"><a xlink:href="../../../../../.flow/lib/flowstdlib/data/append/append.html" xlink:title="append">
<ellipse fill="coral" stroke="black" cx="2377.44" cy="-90" rx="44.69" ry="18"/>
<text text-anchor="middle" x="2377.44" y="-86.3" font-family="Times,serif" font-size="14.00">append</text>
</a>
</g>
</g>
<!-- /router/to_string&#45;&gt;/router/append -->
<g id="edge21" class="edge">
<title>/router/to_string:e&#45;&gt;/router/append:nw</title>
<path fill="none" stroke="black" d="M2428.44,-170.87C2436.45,-170.87 2431.41,-159.83 2427.44,-152.87 2412.19,-126.11 2354.95,-130.92 2355.24,-116.72"/>
<polygon fill="black" stroke="black" points="2358.32,-118.38 2360.44,-108 2352.31,-114.8 2358.32,-118.38"/>
<text text-anchor="middle" x="2351.94" y="-111.8" font-family="Times,serif" font-size="14.00">s2</text>
</g>
<!-- /router/stdout -->
<g id="node10" class="node">
<title>/router/stdout</title>
<g id="a_node10"><a xlink:href="../../flowr/src/bin/flowrcli/context/stdio/stdout.html" xlink:title="stdout">
<polygon fill="black" stroke="black" points="2522.06,-23.56 2472.44,-36 2422.82,-23.56 2422.87,-3.44 2522.01,-3.44 2522.06,-23.56"/>
<text text-anchor="middle" x="2472.44" y="-14.3" font-family="Times,serif" font-size="14.00" fill="white">stdout</text>
</a>
</g>
</g>
<!-- /router/append&#45;&gt;/router/stdout -->
<g id="edge22" class="edge">
<title>/router/append:e&#45;&gt;/router/stdout:w</title>
<path fill="none" stroke="black" d="M2423.44,-90C2435.88,-90 2418.1,-46.49 2417.08,-27.12"/>
<polygon fill="black" stroke="black" points="2420.28,-28.53 2421.44,-18 2413.97,-25.51 2420.28,-28.53"/>
</g>
<!-- /router/A_tracker/route -->
<g id="node16" class="node">
<title>/router/A_tracker/route</title>
<ellipse fill="none" stroke="black" cx="1845.44" cy="-170.87" rx="118.08" ry="18"/>
<text text-anchor="middle" x="1845.44" y="-167.17" font-family="Times,serif" font-size="14.00">/router/A_tracker/route</text>
</g>
<!-- /router/A_tracker/route&#45;&gt;/router/append -->
<g id="edge19" class="edge">
<title>/router/A_tracker/route:s&#45;&gt;/router/append:w</title>
<path fill="none" stroke="black" d="M1845.44,-151.87C1845.44,-101.96 2244.28,-121.08 2292.44,-108 2306.97,-104.05 2310.97,-95.13 2321.38,-91.54"/>
<polygon fill="black" stroke="black" points="2322.08,-94.97 2331.44,-90 2321.02,-88.05 2322.08,-94.97"/>
<text text-anchor="middle" x="2322.94" y="-93.8" font-family="Times,serif" font-size="14.00">s1</text>
</g>
<!-- /router/A_tracker/forward_route -->
<g id="node17" class="node">
<title>/router/A_tracker/forward_route</title>
<ellipse fill="none" stroke="black" cx="1810.44" cy="-90" rx="159.47" ry="18"/>
<text text-anchor="middle" x="1810.44" y="-86.3" font-family="Times,serif" font-size="14.00">/router/A_tracker/forward_route</text>
</g>
<!-- /router/A_tracker/route&#45;&gt;/router/A_tracker/forward_route -->
<g id="edge11" class="edge">
<title>/router/A_tracker/route:s&#45;&gt;/router/A_tracker/forward_route:n</title>
<path fill="none" stroke="black" d="M1845.44,-151.87C1845.44,-131.02 1820.98,-131.8 1812.95,-118.05"/>
<polygon fill="black" stroke="black" points="1816.26,-116.85 1810.44,-108 1809.47,-118.55 1816.26,-116.85"/>
</g>
<!-- /router/B_tracker/other_route -->
<g id="node24" class="node">
<title>/router/B_tracker/other_route</title>
<ellipse fill="none" stroke="black" cx="2135.44" cy="-90" rx="147.57" ry="18"/>
<text text-anchor="middle" x="2135.44" y="-86.3" font-family="Times,serif" font-size="14.00">/router/B_tracker/other_route</text>
</g>
<!-- /router/A_tracker/route&#45;&gt;/router/B_tracker/other_route -->
<g id="edge15" class="edge">
<title>/router/A_tracker/route:s&#45;&gt;/router/B_tracker/other_route:n</title>
<path fill="none" stroke="black" d="M1845.44,-151.87C1845.44,-90.38 2103.52,-163.87 2132.75,-117.67"/>
<polygon fill="black" stroke="black" points="2136.13,-118.57 2135.44,-108 2129.39,-116.7 2136.13,-118.57"/>
</g>
<!-- /router/B_tracker/route -->
<g id="node18" class="node">
<title>/router/B_tracker/route</title>
<ellipse fill="none" stroke="black" cx="2761.44" cy="-170.87" rx="118.08" ry="18"/>
<text text-anchor="middle" x="2761.44" y="-167.17" font-family="Times,serif" font-size="14.00">/router/B_tracker/route</text>
</g>
<!-- /router/B_tracker/forward_route -->
<g id="node19" class="node">
<title>/router/B_tracker/forward_route</title>
<ellipse fill="none" stroke="black" cx="2599.44" cy="-90" rx="159.47" ry="18"/>
<text text-anchor="middle" x="2599.44" y="-86.3" font-family="Times,serif" font-size="14.00">/router/B_tracker/forward_route</text>
</g>
<!-- /router/B_tracker/route&#45;&gt;/router/B_tracker/forward_route -->
<g id="edge12" class="edge">
<title>/router/B_tracker/route:s&#45;&gt;/router/B_tracker/forward_route:n</title>
<path fill="none" stroke="black" d="M2761.44,-151.87C2761.44,-81.06 2615.47,-172.36 2600.65,-118.02"/>
<polygon fill="black" stroke="black" points="2604.11,-117.51 2599.44,-108 2597.16,-118.35 2604.11,-117.51"/>
</g>
<!-- /router/A_tracker/other_route -->
<g id="node25" class="node">
<title>/router/A_tracker/other_route</title>
<ellipse fill="none" stroke="black" cx="2924.44" cy="-90" rx="147.57" ry="18"/>
<text text-anchor="middle" x="2924.44" y="-86.3" font-family="Times,serif" font-size="14.00">/router/A_tracker/other_route</text>
</g>
<!-- /router/B_tracker/route&#45;&gt;/router/A_tracker/other_route -->
<g id="edge16" class="edge">
<title>/router/B_tracker/route:s&#45;&gt;/router/A_tracker/other_route:n</title>
<path fill="none" stroke="black" d="M2761.44,-151.87C2761.44,-80.66 2908.3,-172.71 2923.22,-118.07"/>
<polygon fill="black" stroke="black" points="2926.71,-118.35 2924.44,-108 2919.76,-117.51 2926.71,-118.35"/>
</g>
<!-- /router/A_tracker/distance -->
<g id="node20" class="node">
<title>/router/A_tracker/distance</title>
<ellipse fill="none" stroke="black" cx="2143.44" cy="-305.74" rx="131.88" ry="18"/>
<text text-anchor="middle" x="2143.44" y="-302.04" font-family="Times,serif" font-size="14.00">/router/A_tracker/distance</text>
</g>
<!-- /router/A_tracker/distance&#45;&gt;/router/to_string -->
<g id="edge20" class="edge">
<title>/router/A_tracker/distance:s&#45;&gt;/router/to_string:w</title>
<path fill="none" stroke="black" d="M2143.44,-286.74C2143.44,-201.06 2259.89,-263.81 2314.44,-197.74 2318.78,-192.49 2317.04,-184.94 2316.61,-179.18"/>
<polygon fill="black" stroke="black" points="2319.56,-181.07 2322.44,-170.87 2313.83,-177.05 2319.56,-181.07"/>
</g>
<!-- /router/A_tracker/forward_distance -->
<g id="node21" class="node">
<title>/router/A_tracker/forward_distance</title>
<ellipse fill="none" stroke="black" cx="1536.44" cy="-170.87" rx="172.77" ry="18"/>
<text text-anchor="middle" x="1536.44" y="-167.17" font-family="Times,serif" font-size="14.00">/router/A_tracker/forward_distance</text>
</g>
<!-- /router/A_tracker/distance&#45;&gt;/router/A_tracker/forward_distance -->
<g id="edge13" class="edge">
<title>/router/A_tracker/distance:s&#45;&gt;/router/A_tracker/forward_distance:n</title>
<path fill="none" stroke="black" d="M2143.44,-286.74C2143.44,-181.41 2016.24,-251.65 1912.44,-233.74 1874.07,-227.12 1584.48,-231.21 1541.71,-198.48"/>
<polygon fill="black" stroke="black" points="1544.65,-196.57 1536.44,-189.87 1538.68,-200.23 1544.65,-196.57"/>
</g>
<!-- /router/B_tracker/other_distance -->
<g id="node26" class="node">
<title>/router/B_tracker/other_distance</title>
<ellipse fill="none" stroke="black" cx="2143.44" cy="-170.87" rx="161.67" ry="18"/>
<text text-anchor="middle" x="2143.44" y="-167.17" font-family="Times,serif" font-size="14.00">/router/B_tracker/other_distance</text>
</g>
<!-- /router/A_tracker/distance&#45;&gt;/router/B_tracker/other_distance -->
<g id="edge17" class="edge">
<title>/router/A_tracker/distance:s&#45;&gt;/router/B_tracker/other_distance:n</title>
<path fill="none" stroke="black" d="M2143.44,-286.74C2143.44,-247.39 2143.44,-235.01 2143.44,-200.3"/>
<polygon fill="black" stroke="black" points="2146.94,-199.87 2143.44,-189.87 2139.94,-199.87 2146.94,-199.87"/>
</g>
<!-- /router/B_tracker/distance -->
<g id="node22" class="node">
<title>/router/B_tracker/distance</title>
<ellipse fill="none" stroke="black" cx="3439.44" cy="-170.87" rx="132.68" ry="18"/>
<text text-anchor="middle" x="3439.44" y="-167.17" font-family="Times,serif" font-size="14.00">/router/B_tracker/distance</text>
</g>
<!-- /router/B_tracker/forward_distance -->
<g id="node23" class="node">
<title>/router/B_tracker/forward_distance</title>
<ellipse fill="none" stroke="black" cx="3263.44" cy="-90" rx="173.57" ry="18"/>
<text text-anchor="middle" x="3263.44" y="-86.3" font-family="Times,serif" font-size="14.00">/router/B_tracker/forward_distance</text>
</g>
<!-- /router/B_tracker/distance&#45;&gt;/router/B_tracker/forward_distance -->
<g id="edge14" class="edge">
<title>/router/B_tracker/distance:s&#45;&gt;/router/B_tracker/forward_distance:n</title>
<path fill="none" stroke="black" d="M3439.44,-151.87C3439.44,-75.03 3279.55,-178.05 3264.56,-118.07"/>
<polygon fill="black" stroke="black" points="3268.03,-117.55 3263.44,-108 3261.07,-118.33 3268.03,-117.55"/>
</g>
<!-- /router/A_tracker/other_distance -->
<g id="node27" class="node">
<title>/router/A_tracker/other_distance</title>
<ellipse fill="none" stroke="black" cx="3616.44" cy="-90" rx="161.37" ry="18"/>
<text text-anchor="middle" x="3616.44" y="-86.3" font-family="Times,serif" font-size="14.00">/router/A_tracker/other_distance</text>
</g>
<!-- /router/B_tracker/distance&#45;&gt;/router/A_tracker/other_distance -->
<g id="edge18" class="edge">
<title>/router/B_tracker/distance:s&#45;&gt;/router/A_tracker/other_distance:n</title>
<path fill="none" stroke="black" d="M3439.44,-151.87C3439.44,-74.62 3600.23,-178.4 3615.31,-118.12"/>
<polygon fill="black" stroke="black" points="3618.81,-118.33 3616.44,-108 3611.85,-117.55 3618.81,-118.33"/>
</g>
</g>
</svg>
