<?xml version="1.0" encoding="UTF-8" standalone="no"?>
<!DOCTYPE svg PUBLIC "-//W3C//DTD SVG 1.1//EN"
 "http://www.w3.org/Graphics/SVG/1.1/DTD/svg11.dtd">
<!-- Generated by graphviz version 2.43.0 (0)
 -->
<!-- Title: router Pages: 1 -->
<svg width="3643pt" height="538pt"
 viewBox="28.80 28.80 3613.97 509.54" xmlns="http://www.w3.org/2000/svg" xmlns:xlink="http://www.w3.org/1999/xlink">
<g id="graph0" class="graph" transform="scale(1 1) rotate(0) translate(32.8 505.54)">
<title>router</title>
<polygon fill="white" stroke="transparent" points="-4,4 -4,-476.74 3581.17,-476.74 3581.17,4 -4,4"/>
<text text-anchor="middle" x="1788.59" y="-457.54" font-family="Times,serif" font-size="14.00">router</text>
<!-- /router/readline -->
<g id="node1" class="node">
<title>/router/readline</title>
<g id="a_node1"><a xlink:href="../../flowr/src/cli/stdio/readline.html" xlink:title="readline">
<polygon fill="white" stroke="black" points="287.98,-426.18 347.99,-413.74 408,-426.18 407.94,-446.3 288.04,-446.3 287.98,-426.18"/>
<text text-anchor="middle" x="347.99" y="-428.04" font-family="Times,serif" font-size="14.00">readline</text>
</a>
</g>
</g>
<!-- /router/accumulate_triples -->
<g id="node2" class="node">
<title>/router/accumulate_triples</title>
<g id="a_node2"><a xlink:href="../../target/flowstdlib/data/accumulate/accumulate.html" xlink:title="accumulate_triples\n(accumulate)">
<ellipse fill="coral" stroke="black" cx="623.99" cy="-170.87" rx="107.46" ry="26.74"/>
<text text-anchor="middle" x="623.99" y="-174.67" font-family="Times,serif" font-size="14.00">accumulate_triples</text>
<text text-anchor="middle" x="623.99" y="-159.67" font-family="Times,serif" font-size="14.00">(accumulate)</text>
</a>
</g>
</g>
<!-- /router/readline&#45;&gt;/router/accumulate_triples -->
<g id="edge3" class="edge">
<title>/router/readline:e&#45;&gt;/router/accumulate_triples:w</title>
<path fill="none" stroke="black" d="M408.99,-431.74C431.08,-431.74 416,-252.9 426.99,-233.74 449.12,-195.13 464.5,-174.13 504.8,-171.22"/>
<polygon fill="black" stroke="black" points="505.11,-174.71 514.99,-170.87 504.87,-167.72 505.11,-174.71"/>
<text text-anchor="middle" x="407.3" y="-304.88" font-family="Times,serif" font-size="14.00">json</text>
<text text-anchor="middle" x="491.99" y="-174.67" font-family="Times,serif" font-size="14.00">values</text>
</g>
<!-- /router/accumulate_triples&#45;&gt;/router/accumulate_triples -->
<g id="edge4" class="edge">
<title>/router/accumulate_triples:s&#45;&gt;/router/accumulate_triples:n</title>
<path fill="none" stroke="black" d="M623.99,-143.87C665.82,-123.87 749.47,-123.87 749.47,-170.87 749.47,-214.57 677.17,-217.64 633.39,-201.78"/>
<polygon fill="black" stroke="black" points="634.57,-198.48 623.99,-197.87 631.88,-204.94 634.57,-198.48"/>
<text text-anchor="middle" x="600" y="-132.66" font-family="Times,serif" font-size="14.00">partial</text>
<text text-anchor="middle" x="599.99" y="-201.67" font-family="Times,serif" font-size="14.00">partial</text>
</g>
<!-- /router/A_tracker/forward -->
<g id="node10" class="node">
<title>/router/A_tracker/forward</title>
<ellipse fill="none" stroke="black" cx="129.99" cy="-90" rx="129.98" ry="18"/>
<text text-anchor="middle" x="129.99" y="-86.3" font-family="Times,serif" font-size="14.00">/router/A_tracker/forward</text>
</g>
<!-- /router/accumulate_triples&#45;&gt;/router/A_tracker/forward -->
<g id="edge5" class="edge">
<title>/router/accumulate_triples:se&#45;&gt;/router/A_tracker/forward:n</title>
<path fill="none" stroke="black" d="M649.99,-144C729.33,-64.65 166.94,-213.96 131.71,-118.06"/>
<polygon fill="black" stroke="black" points="135.13,-117.27 129.99,-108 128.23,-118.45 135.13,-117.27"/>
<text text-anchor="middle" x="360.07" y="-145.7" font-family="Times,serif" font-size="14.00">chunk[0]</text>
</g>
<!-- /router/A_tracker/other -->
<g id="node11" class="node">
<title>/router/A_tracker/other</title>
<ellipse fill="none" stroke="black" cx="395.99" cy="-90" rx="118.08" ry="18"/>
<text text-anchor="middle" x="395.99" y="-86.3" font-family="Times,serif" font-size="14.00">/router/A_tracker/other</text>
</g>
<!-- /router/accumulate_triples&#45;&gt;/router/A_tracker/other -->
<g id="edge6" class="edge">
<title>/router/accumulate_triples:se&#45;&gt;/router/A_tracker/other:n</title>
<path fill="none" stroke="black" d="M649.99,-144C728.01,-65.98 417.12,-212.04 397.01,-118.19"/>
<polygon fill="black" stroke="black" points="400.46,-117.6 395.99,-108 393.5,-118.3 400.46,-117.6"/>
<text text-anchor="middle" x="494.76" y="-132.59" font-family="Times,serif" font-size="14.00">chunk[1]</text>
</g>
<!-- /router/A_tracker/cross -->
<g id="node12" class="node">
<title>/router/A_tracker/cross</title>
<ellipse fill="none" stroke="black" cx="649.99" cy="-90" rx="117.78" ry="18"/>
<text text-anchor="middle" x="649.99" y="-86.3" font-family="Times,serif" font-size="14.00">/router/A_tracker/cross</text>
</g>
<!-- /router/accumulate_triples&#45;&gt;/router/A_tracker/cross -->
<g id="edge7" class="edge">
<title>/router/accumulate_triples:se&#45;&gt;/router/A_tracker/cross:n</title>
<path fill="none" stroke="black" d="M649.99,-144C658.65,-135.34 654.05,-128.22 651.42,-118.17"/>
<polygon fill="black" stroke="black" points="654.84,-117.42 649.99,-108 647.91,-118.39 654.84,-117.42"/>
<text text-anchor="middle" x="622.08" y="-114.23" font-family="Times,serif" font-size="14.00">chunk[2]</text>
</g>
<!-- /router/B_tracker/forward -->
<g id="node13" class="node">
<title>/router/B_tracker/forward</title>
<ellipse fill="none" stroke="black" cx="915.99" cy="-90" rx="129.98" ry="18"/>
<text text-anchor="middle" x="915.99" y="-86.3" font-family="Times,serif" font-size="14.00">/router/B_tracker/forward</text>
</g>
<!-- /router/accumulate_triples&#45;&gt;/router/B_tracker/forward -->
<g id="edge8" class="edge">
<title>/router/accumulate_triples:se&#45;&gt;/router/B_tracker/forward:n</title>
<path fill="none" stroke="black" d="M649.99,-144C731.79,-62.2 905.08,-217.38 915.5,-118.06"/>
<polygon fill="black" stroke="black" points="919,-118.16 915.99,-108 912,-117.82 919,-118.16"/>
<text text-anchor="middle" x="778.02" y="-141.4" font-family="Times,serif" font-size="14.00">chunk[1]</text>
</g>
<!-- /router/B_tracker/cross -->
<g id="node14" class="node">
<title>/router/B_tracker/cross</title>
<ellipse fill="none" stroke="black" cx="1181.99" cy="-90" rx="118.08" ry="18"/>
<text text-anchor="middle" x="1181.99" y="-86.3" font-family="Times,serif" font-size="14.00">/router/B_tracker/cross</text>
</g>
<!-- /router/accumulate_triples&#45;&gt;/router/B_tracker/cross -->
<g id="edge9" class="edge">
<title>/router/accumulate_triples:se&#45;&gt;/router/B_tracker/cross:n</title>
<path fill="none" stroke="black" d="M649.99,-144C689.51,-104.48 1127.91,-160.21 1177.44,-116.91"/>
<polygon fill="black" stroke="black" points="1180.56,-118.5 1181.99,-108 1174.33,-115.32 1180.56,-118.5"/>
<text text-anchor="middle" x="884.47" y="-135.85" font-family="Times,serif" font-size="14.00">chunk[2]</text>
</g>
<!-- initializer/router/accumulate_triples_1 -->
<!-- initializer/router/accumulate_triples_1&#45;&gt;/router/accumulate_triples -->
<g id="edge1" class="edge">
<title>initializer/router/accumulate_triples_1&#45;&gt;/router/accumulate_triples:n</title>
<path fill="none" stroke="blue" stroke-dasharray="1,5" d="M623.99,-287.69C623.99,-268.8 623.99,-237.15 623.99,-207.94"/>
<polygon fill="blue" stroke="blue" points="627.49,-207.74 623.99,-197.74 620.49,-207.74 627.49,-207.74"/>
<text text-anchor="middle" x="618.49" y="-276.49" font-family="Times,serif" font-size="14.00">[]</text>
</g>
<!-- initializer/router/accumulate_triples_2 -->
<!-- initializer/router/accumulate_triples_2&#45;&gt;/router/accumulate_triples -->
<g id="edge2" class="edge">
<title>initializer/router/accumulate_triples_2&#45;&gt;/router/accumulate_triples:n</title>
<path fill="none" stroke="blue" d="M978.65,-288.08C939.07,-272.25 876.71,-248.71 820.99,-233.74 781.54,-223.14 648.51,-239.17 626.95,-207.44"/>
<polygon fill="blue" stroke="blue" points="630.26,-206.28 623.99,-197.74 623.56,-208.33 630.26,-206.28"/>
<text text-anchor="middle" x="973.65" y="-276.88" font-family="Times,serif" font-size="14.00">3</text>
</g>
<!-- /router/A_tracker -->
<g id="node5" class="node">
<title>/router/A_tracker</title>
<g id="a_node5"><a xlink:href="path_tracker.toml.dot.svg" xlink:title="A_tracker">
<ellipse fill="aquamarine" stroke="black" cx="1482.99" cy="-305.74" rx="72" ry="72"/>
<text text-anchor="middle" x="1482.99" y="-302.04" font-family="Times,serif" font-size="14.00">A_tracker</text>
</a>
</g>
</g>
<!-- /router/B_tracker -->
<g id="node6" class="node">
<title>/router/B_tracker</title>
<g id="a_node6"><a xlink:href="path_tracker.toml.dot.svg" xlink:title="B_tracker">
<ellipse fill="aquamarine" stroke="black" cx="1691.99" cy="-305.74" rx="72" ry="72"/>
<text text-anchor="middle" x="1691.99" y="-302.04" font-family="Times,serif" font-size="14.00">B_tracker</text>
</a>
</g>
</g>
<!-- /router/to_string -->
<g id="node7" class="node">
<title>/router/to_string</title>
<g id="a_node7"><a xlink:href="../../target/flowstdlib/fmt/to_string/to_string.html" xlink:title="to_string">
<ellipse fill="coral" stroke="black" cx="2169.99" cy="-170.87" rx="51.99" ry="18"/>
<text text-anchor="middle" x="2169.99" y="-167.17" font-family="Times,serif" font-size="14.00">to_string</text>
</a>
</g>
</g>
<!-- /router/append -->
<g id="node8" class="node">
<title>/router/append</title>
<g id="a_node8"><a xlink:href="../../target/flowstdlib/data/append/append.html" xlink:title="append">
<ellipse fill="coral" stroke="black" cx="2206.99" cy="-90" rx="44.69" ry="18"/>
<text text-anchor="middle" x="2206.99" y="-86.3" font-family="Times,serif" font-size="14.00">append</text>
</a>
</g>
</g>
<!-- /router/to_string&#45;&gt;/router/append -->
<g id="edge20" class="edge">
<title>/router/to_string:e&#45;&gt;/router/append:nw</title>
<path fill="none" stroke="black" d="M2222.99,-170.87C2231,-170.87 2224.64,-160.43 2221.99,-152.87 2215.53,-134.45 2188.04,-127.89 2185.91,-117.22"/>
<polygon fill="black" stroke="black" points="2189.15,-118.56 2189.99,-108 2182.74,-115.73 2189.15,-118.56"/>
<text text-anchor="middle" x="2181.49" y="-111.8" font-family="Times,serif" font-size="14.00">s2</text>
</g>
<!-- /router/stdout -->
<g id="node9" class="node">
<title>/router/stdout</title>
<g id="a_node9"><a xlink:href="../../flowr/src/cli/stdio/stdout.html" xlink:title="stdout">
<polygon fill="black" stroke="black" points="2351.61,-23.56 2301.99,-36 2252.37,-23.56 2252.42,-3.44 2351.56,-3.44 2351.61,-23.56"/>
<text text-anchor="middle" x="2301.99" y="-14.3" font-family="Times,serif" font-size="14.00" fill="white">stdout</text>
</a>
</g>
</g>
<!-- /router/append&#45;&gt;/router/stdout -->
<g id="edge21" class="edge">
<title>/router/append:e&#45;&gt;/router/stdout:w</title>
<path fill="none" stroke="black" d="M2252.99,-90C2279.75,-90 2238,-39.69 2242.28,-23.18"/>
<polygon fill="black" stroke="black" points="2244.18,-26.12 2250.99,-18 2240.6,-20.1 2244.18,-26.12"/>
</g>
<!-- /router/A_tracker/route -->
<g id="node15" class="node">
<title>/router/A_tracker/route</title>
<ellipse fill="none" stroke="black" cx="1639.99" cy="-170.87" rx="118.08" ry="18"/>
<text text-anchor="middle" x="1639.99" y="-167.17" font-family="Times,serif" font-size="14.00">/router/A_tracker/route</text>
</g>
<!-- /router/A_tracker/route&#45;&gt;/router/append -->
<g id="edge18" class="edge">
<title>/router/A_tracker/route:s&#45;&gt;/router/append:w</title>
<path fill="none" stroke="black" d="M1639.99,-151.87C1639.99,-138.32 2077.7,-96.49 2150.97,-90.67"/>
<polygon fill="black" stroke="black" points="2151.25,-94.16 2160.99,-90 2150.78,-87.18 2151.25,-94.16"/>
<text text-anchor="middle" x="2152.49" y="-93.8" font-family="Times,serif" font-size="14.00">s1</text>
</g>
<!-- /router/A_tracker/forward_route -->
<g id="node16" class="node">
<title>/router/A_tracker/forward_route</title>
<ellipse fill="none" stroke="black" cx="1477.99" cy="-90" rx="159.47" ry="18"/>
<text text-anchor="middle" x="1477.99" y="-86.3" font-family="Times,serif" font-size="14.00">/router/A_tracker/forward_route</text>
</g>
<!-- /router/A_tracker/route&#45;&gt;/router/A_tracker/forward_route -->
<g id="edge10" class="edge">
<title>/router/A_tracker/route:s&#45;&gt;/router/A_tracker/forward_route:n</title>
<path fill="none" stroke="black" d="M1639.99,-151.87C1639.99,-81.06 1494.02,-172.36 1479.2,-118.02"/>
<polygon fill="black" stroke="black" points="1482.66,-117.51 1477.99,-108 1475.71,-118.35 1482.66,-117.51"/>
</g>
<!-- /router/B_tracker/other_route -->
<g id="node23" class="node">
<title>/router/B_tracker/other_route</title>
<ellipse fill="none" stroke="black" cx="1802.99" cy="-90" rx="147.57" ry="18"/>
<text text-anchor="middle" x="1802.99" y="-86.3" font-family="Times,serif" font-size="14.00">/router/B_tracker/other_route</text>
</g>
<!-- /router/A_tracker/route&#45;&gt;/router/B_tracker/other_route -->
<g id="edge14" class="edge">
<title>/router/A_tracker/route:s&#45;&gt;/router/B_tracker/other_route:n</title>
<path fill="none" stroke="black" d="M1639.99,-151.87C1639.99,-80.66 1786.85,-172.71 1801.77,-118.07"/>
<polygon fill="black" stroke="black" points="1805.26,-118.35 1802.99,-108 1798.31,-117.51 1805.26,-118.35"/>
</g>
<!-- /router/B_tracker/route -->
<g id="node17" class="node">
<title>/router/B_tracker/route</title>
<ellipse fill="none" stroke="black" cx="2561.99" cy="-305.74" rx="118.08" ry="18"/>
<text text-anchor="middle" x="2561.99" y="-302.04" font-family="Times,serif" font-size="14.00">/router/B_tracker/route</text>
</g>
<!-- /router/B_tracker/forward_route -->
<g id="node18" class="node">
<title>/router/B_tracker/forward_route</title>
<ellipse fill="none" stroke="black" cx="2398.99" cy="-170.87" rx="159.47" ry="18"/>
<text text-anchor="middle" x="2398.99" y="-167.17" font-family="Times,serif" font-size="14.00">/router/B_tracker/forward_route</text>
</g>
<!-- /router/B_tracker/route&#45;&gt;/router/B_tracker/forward_route -->
<g id="edge11" class="edge">
<title>/router/B_tracker/route:s&#45;&gt;/router/B_tracker/forward_route:n</title>
<path fill="none" stroke="black" d="M2561.99,-286.74C2561.99,-206.09 2412.7,-268.27 2399.87,-199.89"/>
<polygon fill="black" stroke="black" points="2403.35,-199.53 2398.99,-189.87 2396.37,-200.14 2403.35,-199.53"/>
</g>
<!-- /router/A_tracker/other_route -->
<g id="node24" class="node">
<title>/router/A_tracker/other_route</title>
<ellipse fill="none" stroke="black" cx="2723.99" cy="-170.87" rx="147.57" ry="18"/>
<text text-anchor="middle" x="2723.99" y="-167.17" font-family="Times,serif" font-size="14.00">/router/A_tracker/other_route</text>
</g>
<!-- /router/B_tracker/route&#45;&gt;/router/A_tracker/other_route -->
<g id="edge15" class="edge">
<title>/router/B_tracker/route:s&#45;&gt;/router/A_tracker/other_route:n</title>
<path fill="none" stroke="black" d="M2561.99,-286.74C2561.99,-206.45 2710.37,-267.95 2723.12,-199.85"/>
<polygon fill="black" stroke="black" points="2726.61,-200.14 2723.99,-189.87 2719.63,-199.53 2726.61,-200.14"/>
</g>
<!-- /router/A_tracker/distance -->
<g id="node19" class="node">
<title>/router/A_tracker/distance</title>
<ellipse fill="none" stroke="black" cx="1937.99" cy="-305.74" rx="131.88" ry="18"/>
<text text-anchor="middle" x="1937.99" y="-302.04" font-family="Times,serif" font-size="14.00">/router/A_tracker/distance</text>
</g>
<!-- /router/A_tracker/distance&#45;&gt;/router/to_string -->
<g id="edge19" class="edge">
<title>/router/A_tracker/distance:s&#45;&gt;/router/to_string:w</title>
<path fill="none" stroke="black" d="M1937.99,-286.74C1937.99,-201.06 2054.44,-263.81 2108.99,-197.74 2113.33,-192.49 2111.59,-184.94 2111.16,-179.18"/>
<polygon fill="black" stroke="black" points="2114.11,-181.07 2116.99,-170.87 2108.38,-177.05 2114.11,-181.07"/>
</g>
<!-- /router/A_tracker/forward_distance -->
<g id="node20" class="node">
<title>/router/A_tracker/forward_distance</title>
<ellipse fill="none" stroke="black" cx="1330.99" cy="-170.87" rx="172.77" ry="18"/>
<text text-anchor="middle" x="1330.99" y="-167.17" font-family="Times,serif" font-size="14.00">/router/A_tracker/forward_distance</text>
</g>
<!-- /router/A_tracker/distance&#45;&gt;/router/A_tracker/forward_distance -->
<g id="edge12" class="edge">
<title>/router/A_tracker/distance:s&#45;&gt;/router/A_tracker/forward_distance:n</title>
<path fill="none" stroke="black" d="M1937.99,-286.74C1937.99,-209.72 1848.4,-249.41 1772.99,-233.74 1727.88,-224.37 1381.75,-237.27 1335.98,-198.87"/>
<polygon fill="black" stroke="black" points="1338.9,-196.92 1330.99,-189.87 1332.78,-200.31 1338.9,-196.92"/>
</g>
<!-- /router/B_tracker/other_distance -->
<g id="node25" class="node">
<title>/router/B_tracker/other_distance</title>
<ellipse fill="none" stroke="black" cx="1937.99" cy="-170.87" rx="161.67" ry="18"/>
<text text-anchor="middle" x="1937.99" y="-167.17" font-family="Times,serif" font-size="14.00">/router/B_tracker/other_distance</text>
</g>
<!-- /router/A_tracker/distance&#45;&gt;/router/B_tracker/other_distance -->
<g id="edge16" class="edge">
<title>/router/A_tracker/distance:s&#45;&gt;/router/B_tracker/other_distance:n</title>
<path fill="none" stroke="black" d="M1937.99,-286.74C1937.99,-247.39 1937.99,-235.01 1937.99,-200.3"/>
<polygon fill="black" stroke="black" points="1941.49,-199.87 1937.99,-189.87 1934.49,-199.87 1941.49,-199.87"/>
</g>
<!-- /router/B_tracker/distance -->
<g id="node21" class="node">
<title>/router/B_tracker/distance</title>
<ellipse fill="none" stroke="black" cx="3238.99" cy="-305.74" rx="132.68" ry="18"/>
<text text-anchor="middle" x="3238.99" y="-302.04" font-family="Times,serif" font-size="14.00">/router/B_tracker/distance</text>
</g>
<!-- /router/B_tracker/forward_distance -->
<g id="node22" class="node">
<title>/router/B_tracker/forward_distance</title>
<ellipse fill="none" stroke="black" cx="3062.99" cy="-170.87" rx="173.57" ry="18"/>
<text text-anchor="middle" x="3062.99" y="-167.17" font-family="Times,serif" font-size="14.00">/router/B_tracker/forward_distance</text>
</g>
<!-- /router/B_tracker/distance&#45;&gt;/router/B_tracker/forward_distance -->
<g id="edge13" class="edge">
<title>/router/B_tracker/distance:s&#45;&gt;/router/B_tracker/forward_distance:n</title>
<path fill="none" stroke="black" d="M3238.99,-286.74C3238.99,-201.11 3077.13,-272.74 3063.85,-200.02"/>
<polygon fill="black" stroke="black" points="3067.32,-199.54 3062.99,-189.87 3060.35,-200.13 3067.32,-199.54"/>
</g>
<!-- /router/A_tracker/other_distance -->
<g id="node26" class="node">
<title>/router/A_tracker/other_distance</title>
<ellipse fill="none" stroke="black" cx="3415.99" cy="-170.87" rx="161.37" ry="18"/>
<text text-anchor="middle" x="3415.99" y="-167.17" font-family="Times,serif" font-size="14.00">/router/A_tracker/other_distance</text>
</g>
<!-- /router/B_tracker/distance&#45;&gt;/router/A_tracker/other_distance -->
<g id="edge17" class="edge">
<title>/router/B_tracker/distance:s&#45;&gt;/router/A_tracker/other_distance:n</title>
<path fill="none" stroke="black" d="M3238.99,-286.74C3238.99,-200.74 3401.77,-273.07 3415.12,-200.06"/>
<polygon fill="black" stroke="black" points="3418.63,-200.13 3415.99,-189.87 3411.65,-199.54 3418.63,-200.13"/>
</g>
</g>
</svg>
