<?xml version="1.0" encoding="UTF-8" standalone="no"?>
<!DOCTYPE svg PUBLIC "-//W3C//DTD SVG 1.1//EN"
 "http://www.w3.org/Graphics/SVG/1.1/DTD/svg11.dtd">
<!-- Generated by graphviz version 2.43.0 (0)
 -->
<!-- Title: sequence_of_sequences Pages: 1 -->
<svg width="1228pt" height="341pt"
 viewBox="0.00 0.00 1228.49 341.00" xmlns="http://www.w3.org/2000/svg" xmlns:xlink="http://www.w3.org/1999/xlink">
<g id="graph0" class="graph" transform="scale(1 1) rotate(0) translate(4 337)">
<title>sequence_of_sequences</title>
<polygon fill="white" stroke="transparent" points="-4,4 -4,-337 1224.49,-337 1224.49,4 -4,4"/>
<text text-anchor="middle" x="610.25" y="-317.8" font-family="Times,serif" font-size="14.00">/sequence&#45;of&#45;sequences</text>
<g id="clust1" class="cluster">
<title>cluster_limit_sequence</title>
<polygon fill="none" stroke="black" points="8,-80 8,-302 794,-302 794,-80 8,-80"/>
<text text-anchor="middle" x="401" y="-286.8" font-family="Times,serif" font-size="14.00">/sequence&#45;of&#45;sequences/limit&#45;sequence</text>
</g>
<g id="clust2" class="cluster">
<title>cluster_sequence_of_sequences</title>
<polygon fill="none" stroke="black" points="802,-8 802,-155 1180,-155 1180,-8 802,-8"/>
<text text-anchor="middle" x="991" y="-139.8" font-family="Times,serif" font-size="14.00">/sequence&#45;of&#45;sequences/sequence&#45;of&#45;sequences</text>
</g>
<!-- r1 -->
<g id="node1" class="node">
<title>r1</title>
<g id="a_node1"><a xlink:href="file:///home/runner/work/flow/flow/target/flowstdlib/control/compare_switch/compare_switch.html" xlink:title="compare_switch (#1)">
<ellipse fill="coral" stroke="black" cx="349" cy="-253" rx="108.58" ry="18"/>
<text text-anchor="middle" x="349" y="-249.3" font-family="Times,serif" font-size="14.00">compare_switch (#1)</text>
</a>
</g>
</g>
<!-- r1&#45;&gt;r1 -->
<g id="edge3" class="edge">
<title>r1:e&#45;&gt;r1:n</title>
<path fill="none" stroke="black" d="M458,-253C481.54,-235 529.54,-235 529.54,-262 529.54,-287.58 421.54,-288.92 359,-273.7"/>
<polygon fill="black" stroke="black" points="359.57,-270.22 349,-271 357.74,-276.98 359.57,-270.22"/>
<text text-anchor="middle" x="336.5" y="-274.8" font-family="Times,serif" font-size="14.00">left</text>
<text text-anchor="middle" x="482.5" y="-256.8" font-family="Times,serif" font-size="14.00">/left&#45;gt</text>
</g>
<!-- r5 -->
<g id="node2" class="node">
<title>r5</title>
<g id="a_node2"><a xlink:href="file:///home/runner/work/flow/flow/target/flowstdlib/math/add/add.html" xlink:title="add (#5)">
<ellipse fill="coral" stroke="black" cx="687" cy="-106" rx="51.19" ry="18"/>
<text text-anchor="middle" x="687" y="-102.3" font-family="Times,serif" font-size="14.00">add (#5)</text>
</a>
</g>
</g>
<!-- r1&#45;&gt;r5 -->
<g id="edge1" class="edge">
<title>r1:s&#45;&gt;r5:ne</title>
<path fill="none" stroke="black" d="M349,-235C349,-194.99 475.86,-175.09 514,-163 592.48,-138.12 749.97,-180.79 710.85,-131.57"/>
<polygon fill="black" stroke="black" points="713.31,-129.07 704,-124 708.12,-133.76 713.31,-129.07"/>
<text text-anchor="middle" x="697" y="-127.8" font-family="Times,serif" font-size="14.00">i2</text>
<text text-anchor="middle" x="317" y="-223.8" font-family="Times,serif" font-size="14.00">/right&#45;lte</text>
</g>
<!-- r6 -->
<g id="node3" class="node">
<title>r6</title>
<g id="a_node3"><a xlink:href="file:///home/runner/work/flow/flow/target/flowstdlib/control/compare_switch/compare_switch.html" xlink:title="compare_switch (#6)">
<ellipse fill="coral" stroke="black" cx="659" cy="-181" rx="108.58" ry="18"/>
<text text-anchor="middle" x="659" y="-177.3" font-family="Times,serif" font-size="14.00">compare_switch (#6)</text>
</a>
</g>
</g>
<!-- r1&#45;&gt;r6 -->
<g id="edge2" class="edge">
<title>r1:s&#45;&gt;r6:n</title>
<path fill="none" stroke="black" d="M349,-235C349,-169.44 626.02,-257.63 656.32,-208.89"/>
<polygon fill="black" stroke="black" points="659.76,-209.57 659,-199 653.01,-207.74 659.76,-209.57"/>
<text text-anchor="middle" x="646.5" y="-202.8" font-family="Times,serif" font-size="14.00">left</text>
<text text-anchor="middle" x="381" y="-223.8" font-family="Times,serif" font-size="14.00">/right&#45;lte</text>
</g>
<!-- r0 -->
<g id="node4" class="node">
<title>r0</title>
<g id="a_node4"><a xlink:href="file:///home/runner/work/flow/flow/target/flowstdlib/math/add/add.html" xlink:title="add (#0)">
<ellipse fill="coral" stroke="black" cx="67" cy="-181" rx="51.19" ry="18"/>
<text text-anchor="middle" x="67" y="-177.3" font-family="Times,serif" font-size="14.00">add (#0)</text>
</a>
</g>
</g>
<!-- r1&#45;&gt;r0 -->
<g id="edge4" class="edge">
<title>r1:se&#45;&gt;r0:n</title>
<path fill="none" stroke="black" d="M367,-235C459.36,-142.64 88.23,-322.94 67.87,-209.29"/>
<polygon fill="black" stroke="black" points="71.33,-208.67 67,-199 64.35,-209.26 71.33,-208.67"/>
<text text-anchor="middle" x="60" y="-202.8" font-family="Times,serif" font-size="14.00">i1</text>
<text text-anchor="middle" x="360" y="-238.8" font-family="Times,serif" font-size="14.00">:1</text>
</g>
<!-- r3 -->
<g id="node5" class="node">
<title>r3</title>
<g id="a_node5"><a xlink:href="file:///home/runner/work/flow/flow/target/flowstdlib/math/compare/compare.html" xlink:title="not&#45;last (#3)">
<ellipse fill="coral" stroke="black" cx="260" cy="-181" rx="69.59" ry="18"/>
<text text-anchor="middle" x="260" y="-177.3" font-family="Times,serif" font-size="14.00">not&#45;last (#3)</text>
</a>
</g>
</g>
<!-- r1&#45;&gt;r3 -->
<g id="edge5" class="edge">
<title>r1:sw&#45;&gt;r3:ne</title>
<path fill="none" stroke="black" d="M331,-235C313.54,-217.54 301.65,-218.43 285.67,-205.85"/>
<polygon fill="black" stroke="black" points="287.79,-203.05 278,-199 283.13,-208.27 287.79,-203.05"/>
<text text-anchor="middle" x="260" y="-202.8" font-family="Times,serif" font-size="14.00">right</text>
<text text-anchor="middle" x="324" y="-238.8" font-family="Times,serif" font-size="14.00">:0</text>
</g>
<!-- r1&#45;&gt;r3 -->
<g id="edge6" class="edge">
<title>r1:se&#45;&gt;r3:n</title>
<path fill="none" stroke="black" d="M367,-235C399.71,-202.29 281.18,-241.94 262.46,-209.02"/>
<polygon fill="black" stroke="black" points="265.78,-207.88 260,-199 258.98,-209.55 265.78,-207.88"/>
<text text-anchor="middle" x="247.5" y="-202.8" font-family="Times,serif" font-size="14.00">left</text>
<text text-anchor="middle" x="360" y="-223.8" font-family="Times,serif" font-size="14.00">:1</text>
</g>
<!-- r7 -->
<g id="node10" class="node">
<title>r7</title>
<g id="a_node10"><a xlink:href="file:///home/runner/work/flow/flow/target/flowstdlib/control/tap/tap.html" xlink:title="next&#45;tap (#7)">
<ellipse fill="coral" stroke="black" cx="1099" cy="-34" rx="72.59" ry="18"/>
<text text-anchor="middle" x="1099" y="-30.3" font-family="Times,serif" font-size="14.00">next&#45;tap (#7)</text>
</a>
</g>
</g>
<!-- r5&#45;&gt;r7 -->
<g id="edge18" class="edge">
<title>r5:e&#45;&gt;r7:n</title>
<path fill="none" stroke="black" d="M740,-106C762.71,-106 762.38,-86.95 784,-80 814.51,-70.19 1051.43,-84.21 1092.83,-60.09"/>
<polygon fill="black" stroke="black" points="1095.72,-62.08 1099,-52 1090.16,-57.83 1095.72,-62.08"/>
<text text-anchor="middle" x="1083" y="-55.8" font-family="Times,serif" font-size="14.00">data</text>
</g>
<!-- r9 -->
<g id="node11" class="node">
<title>r9</title>
<g id="a_node11"><a xlink:href="file:///home/runner/work/flow/flow/target/flowstdlib/control/tap/tap.html" xlink:title="step&#45;tap (#9)">
<ellipse fill="coral" stroke="black" cx="882" cy="-34" rx="72.29" ry="18"/>
<text text-anchor="middle" x="882" y="-30.3" font-family="Times,serif" font-size="14.00">step&#45;tap (#9)</text>
</a>
</g>
</g>
<!-- r5&#45;&gt;r9 -->
<g id="edge19" class="edge">
<title>r5:se&#45;&gt;r9:n</title>
<path fill="none" stroke="black" d="M704,-88C729.86,-62.14 855.04,-86.73 878.28,-61.53"/>
<polygon fill="black" stroke="black" points="881.63,-62.59 882,-52 875.1,-60.04 881.63,-62.59"/>
<text text-anchor="middle" x="866" y="-55.8" font-family="Times,serif" font-size="14.00">data</text>
<text text-anchor="middle" x="697" y="-76.8" font-family="Times,serif" font-size="14.00">:1</text>
</g>
<!-- r6&#45;&gt;r5 -->
<g id="edge15" class="edge">
<title>r6:se&#45;&gt;r5:n</title>
<path fill="none" stroke="black" d="M677,-163C686.65,-153.35 687.32,-146.24 687.16,-135.27"/>
<polygon fill="black" stroke="black" points="690.65,-134.94 687,-125 683.66,-135.05 690.65,-134.94"/>
<text text-anchor="middle" x="680" y="-128.8" font-family="Times,serif" font-size="14.00">i1</text>
<text text-anchor="middle" x="670" y="-151.8" font-family="Times,serif" font-size="14.00">:1</text>
</g>
<!-- r6&#45;&gt;r6 -->
<g id="edge14" class="edge">
<title>r6:e&#45;&gt;r6:n</title>
<path fill="none" stroke="black" d="M768,-181C791.54,-163 839.54,-163 839.54,-190 839.54,-215.58 731.54,-216.92 669,-201.7"/>
<polygon fill="black" stroke="black" points="669.57,-198.22 659,-199 667.74,-204.98 669.57,-198.22"/>
<text text-anchor="middle" x="671.5" y="-202.8" font-family="Times,serif" font-size="14.00">left</text>
<text text-anchor="middle" x="792.5" y="-184.8" font-family="Times,serif" font-size="14.00">/left&#45;gt</text>
</g>
<!-- r10 -->
<g id="node8" class="node">
<title>r10</title>
<g id="a_node8"><a xlink:href="file:///home/runner/work/flow/flow/flowr/src/cli/stdio/stdout.html" xlink:title="stdout (#10)">
<ellipse fill="coral" stroke="black" cx="1091" cy="-106" rx="69.59" ry="18"/>
<text text-anchor="middle" x="1091" y="-102.3" font-family="Times,serif" font-size="14.00">stdout (#10)</text>
</a>
</g>
</g>
<!-- r6&#45;&gt;r10 -->
<g id="edge13" class="edge">
<title>r6:s&#45;&gt;r10:n</title>
<path fill="none" stroke="black" d="M659,-163C659,-153.91 977.02,-156.37 986,-155 1030.23,-148.25 1082.15,-169.7 1089.99,-135.06"/>
<polygon fill="black" stroke="black" points="1093.48,-135.3 1091,-125 1086.52,-134.6 1093.48,-135.3"/>
<text text-anchor="middle" x="627" y="-151.8" font-family="Times,serif" font-size="14.00">/right&#45;lte</text>
</g>
<!-- r8 -->
<g id="node9" class="node">
<title>r8</title>
<g id="a_node9"><a xlink:href="file:///home/runner/work/flow/flow/target/flowstdlib/math/compare/compare.html" xlink:title="not&#45;last (#8)">
<ellipse fill="coral" stroke="black" cx="880" cy="-106" rx="69.59" ry="18"/>
<text text-anchor="middle" x="880" y="-102.3" font-family="Times,serif" font-size="14.00">not&#45;last (#8)</text>
</a>
</g>
</g>
<!-- r6&#45;&gt;r8 -->
<g id="edge16" class="edge">
<title>r6:sw&#45;&gt;r8:ne</title>
<path fill="none" stroke="black" d="M641,-163C628.02,-150.02 787.95,-158.32 806,-155 844,-148.01 912.53,-153.91 904,-133.13"/>
<polygon fill="black" stroke="black" points="906.76,-130.97 898,-125 901.12,-135.12 906.76,-130.97"/>
<text text-anchor="middle" x="880" y="-128.8" font-family="Times,serif" font-size="14.00">right</text>
<text text-anchor="middle" x="634" y="-166.8" font-family="Times,serif" font-size="14.00">:0</text>
</g>
<!-- r6&#45;&gt;r8 -->
<g id="edge17" class="edge">
<title>r6:se&#45;&gt;r8:n</title>
<path fill="none" stroke="black" d="M677,-163C687.15,-152.85 792,-158.18 806,-155 836.82,-147.99 871.44,-157.82 878.64,-134.98"/>
<polygon fill="black" stroke="black" points="882.12,-135.38 880,-125 875.19,-134.44 882.12,-135.38"/>
<text text-anchor="middle" x="867.5" y="-113.8" font-family="Times,serif" font-size="14.00">left</text>
<text text-anchor="middle" x="684" y="-151.8" font-family="Times,serif" font-size="14.00">:1</text>
</g>
<!-- r2 -->
<g id="node6" class="node">
<title>r2</title>
<g id="a_node6"><a xlink:href="file:///home/runner/work/flow/flow/target/flowstdlib/control/tap/tap.html" xlink:title="next&#45;tap (#2)">
<ellipse fill="coral" stroke="black" cx="305" cy="-106" rx="72.59" ry="18"/>
<text text-anchor="middle" x="305" y="-102.3" font-family="Times,serif" font-size="14.00">next&#45;tap (#2)</text>
</a>
</g>
</g>
<!-- r0&#45;&gt;r2 -->
<g id="edge7" class="edge">
<title>r0:e&#45;&gt;r2:n</title>
<path fill="none" stroke="black" d="M120,-181C137.1,-181 137.87,-168.66 154,-163 215.73,-141.33 295.69,-188.51 304.25,-135.28"/>
<polygon fill="black" stroke="black" points="307.76,-135.23 305,-125 300.78,-134.72 307.76,-135.23"/>
<text text-anchor="middle" x="289" y="-128.8" font-family="Times,serif" font-size="14.00">data</text>
</g>
<!-- r4 -->
<g id="node7" class="node">
<title>r4</title>
<g id="a_node7"><a xlink:href="file:///home/runner/work/flow/flow/target/flowstdlib/control/tap/tap.html" xlink:title="step&#45;tap (#4)">
<ellipse fill="coral" stroke="black" cx="88" cy="-106" rx="72.29" ry="18"/>
<text text-anchor="middle" x="88" y="-102.3" font-family="Times,serif" font-size="14.00">step&#45;tap (#4)</text>
</a>
</g>
</g>
<!-- r0&#45;&gt;r4 -->
<g id="edge8" class="edge">
<title>r0:se&#45;&gt;r4:n</title>
<path fill="none" stroke="black" d="M84,-163C93.38,-153.62 90.55,-146.07 88.86,-135.11"/>
<polygon fill="black" stroke="black" points="92.33,-134.67 88,-125 85.36,-135.26 92.33,-134.67"/>
<text text-anchor="middle" x="72" y="-128.8" font-family="Times,serif" font-size="14.00">data</text>
<text text-anchor="middle" x="77" y="-151.8" font-family="Times,serif" font-size="14.00">:1</text>
</g>
<!-- r3&#45;&gt;r2 -->
<g id="edge11" class="edge">
<title>r3:se&#45;&gt;r2:ne</title>
<path fill="none" stroke="black" d="M278,-163C292.89,-148.11 324.94,-144.56 327.25,-134.1"/>
<polygon fill="black" stroke="black" points="330.4,-132.58 323,-125 324.06,-135.54 330.4,-132.58"/>
<text text-anchor="middle" x="348.5" y="-128.8" font-family="Times,serif" font-size="14.00">control</text>
<text text-anchor="middle" x="270" y="-151.8" font-family="Times,serif" font-size="14.00">/lt</text>
</g>
<!-- r3&#45;&gt;r4 -->
<g id="edge12" class="edge">
<title>r3:se&#45;&gt;r4:ne</title>
<path fill="none" stroke="black" d="M278,-163C290.95,-150.05 213.91,-158.81 196,-155 158.3,-146.98 139.23,-153.47 113.47,-131.87"/>
<polygon fill="black" stroke="black" points="115.73,-129.2 106,-125 110.99,-134.35 115.73,-129.2"/>
<text text-anchor="middle" x="131.5" y="-128.8" font-family="Times,serif" font-size="14.00">control</text>
<text text-anchor="middle" x="286" y="-151.8" font-family="Times,serif" font-size="14.00">/lt</text>
</g>
<!-- r2&#45;&gt;r1 -->
<g id="edge9" class="edge">
<title>r2:e&#45;&gt;r1:ne</title>
<path fill="none" stroke="black" d="M379,-106C560,-106 527.63,-200.13 457.54,-271 445.44,-283.24 398.19,-285.68 375.88,-277.23"/>
<polygon fill="black" stroke="black" points="377.39,-274.05 367,-272 373.85,-280.09 377.39,-274.05"/>
<text text-anchor="middle" x="385" y="-275.8" font-family="Times,serif" font-size="14.00">right</text>
</g>
<!-- r4&#45;&gt;r0 -->
<g id="edge10" class="edge">
<title>r4:e&#45;&gt;r0:ne</title>
<path fill="none" stroke="black" d="M161,-106C183.53,-106 137.63,-186.34 118.35,-198 108.65,-203.86 100.37,-207.52 92.34,-204.6"/>
<polygon fill="black" stroke="black" points="94.25,-201.67 84,-199 90.35,-207.48 94.25,-201.67"/>
<text text-anchor="middle" x="77" y="-202.8" font-family="Times,serif" font-size="14.00">i2</text>
</g>
<!-- r8&#45;&gt;r7 -->
<g id="edge22" class="edge">
<title>r8:se&#45;&gt;r7:ne</title>
<path fill="none" stroke="black" d="M898,-87C964.98,-20.02 1169.82,-113.81 1123.87,-59.39"/>
<polygon fill="black" stroke="black" points="1126.37,-56.94 1117,-52 1121.25,-61.71 1126.37,-56.94"/>
<text text-anchor="middle" x="1142.5" y="-55.8" font-family="Times,serif" font-size="14.00">control</text>
<text text-anchor="middle" x="890" y="-75.8" font-family="Times,serif" font-size="14.00">/lt</text>
</g>
<!-- r8&#45;&gt;r9 -->
<g id="edge23" class="edge">
<title>r8:se&#45;&gt;r9:ne</title>
<path fill="none" stroke="black" d="M898,-87C906.35,-78.65 909.52,-69.18 905.77,-60.29"/>
<polygon fill="black" stroke="black" points="908.59,-58.21 900,-52 902.84,-62.21 908.59,-58.21"/>
<text text-anchor="middle" x="925.5" y="-55.8" font-family="Times,serif" font-size="14.00">control</text>
<text text-anchor="middle" x="906" y="-75.8" font-family="Times,serif" font-size="14.00">/lt</text>
</g>
<!-- r7&#45;&gt;r6 -->
<g id="edge20" class="edge">
<title>r7:e&#45;&gt;r6:ne</title>
<path fill="none" stroke="black" d="M1173,-34C1227.83,-34 1233.74,-114.3 1197,-155 1151.35,-205.56 755.41,-211.93 686.83,-202.55"/>
<polygon fill="black" stroke="black" points="687.56,-199.12 677,-200 685.8,-205.9 687.56,-199.12"/>
<text text-anchor="middle" x="695" y="-203.8" font-family="Times,serif" font-size="14.00">right</text>
</g>
<!-- r9&#45;&gt;r5 -->
<g id="edge21" class="edge">
<title>r9:e&#45;&gt;r5:ne</title>
<path fill="none" stroke="black" d="M955,-34C963.01,-34 959.35,-46.04 954,-52 902.85,-108.98 852.64,-46.05 784,-80 759.02,-92.36 764.1,-112.34 738.35,-123 728.2,-127.2 720.48,-131.46 712.92,-129.51"/>
<polygon fill="black" stroke="black" points="714.35,-126.28 704,-124 710.67,-132.23 714.35,-126.28"/>
<text text-anchor="middle" x="711" y="-127.8" font-family="Times,serif" font-size="14.00">i2</text>
</g>
</g>
</svg>
