<?xml version="1.0" encoding="UTF-8" standalone="no"?>
<!DOCTYPE svg PUBLIC "-//W3C//DTD SVG 1.1//EN"
 "http://www.w3.org/Graphics/SVG/1.1/DTD/svg11.dtd">
<!-- Generated by graphviz version 2.43.0 (0)
 -->
<!-- Title: sequence_of_sequences Pages: 1 -->
<svg width="1535pt" height="538pt"
 viewBox="28.80 28.80 1505.87 509.02" xmlns="http://www.w3.org/2000/svg" xmlns:xlink="http://www.w3.org/1999/xlink">
<g id="graph0" class="graph" transform="scale(1 1) rotate(0) translate(32.8 505.02)">
<title>sequence_of_sequences</title>
<polygon fill="white" stroke="transparent" points="-4,4 -4,-476.22 1473.07,-476.22 1473.07,4 -4,4"/>
<text text-anchor="middle" x="734.54" y="-457.02" font-family="Times,serif" font-size="14.00">sequence&#45;of&#45;sequences</text>
<!-- /sequence&#45;of&#45;sequences/sequence&#45;of&#45;sequences/start -->
<g id="node1" class="node">
<title>/sequence&#45;of&#45;sequences/sequence&#45;of&#45;sequences/start</title>
<polygon fill="white" stroke="black" points="1018.09,-436.78 977.14,-449.22 936.2,-436.78 936.24,-416.66 1018.05,-416.66 1018.09,-436.78"/>
<text text-anchor="middle" x="977.14" y="-427.52" font-family="Times,serif" font-size="14.00">start</text>
</g>
<!-- /sequence&#45;of&#45;sequences/sequence&#45;of&#45;sequences/limit -->
<g id="node2" class="node">
<title>/sequence&#45;of&#45;sequences/sequence&#45;of&#45;sequences/limit</title>
<polygon fill="white" stroke="black" points="1116.48,-436.78 1076.14,-449.22 1035.8,-436.78 1035.84,-416.66 1116.44,-416.66 1116.48,-436.78"/>
<text text-anchor="middle" x="1076.14" y="-427.52" font-family="Times,serif" font-size="14.00">limit</text>
</g>
<!-- /sequence&#45;of&#45;sequences/sequence&#45;of&#45;sequences/step -->
<g id="node3" class="node">
<title>/sequence&#45;of&#45;sequences/sequence&#45;of&#45;sequences/step</title>
<polygon fill="white" stroke="black" points="1209.66,-436.78 1172.14,-449.22 1134.62,-436.78 1134.66,-416.66 1209.63,-416.66 1209.66,-436.78"/>
<text text-anchor="middle" x="1172.14" y="-427.52" font-family="Times,serif" font-size="14.00">step</text>
</g>
<!-- /sequence&#45;of&#45;sequences/sequence&#45;of&#45;sequences/sequence -->
<g id="node4" class="node">
<title>/sequence&#45;of&#45;sequences/sequence&#45;of&#45;sequences/sequence</title>
<polygon fill="black" stroke="black" points="358.28,-12.44 425.14,0 492,-12.44 491.94,-32.56 358.34,-32.56 358.28,-12.44"/>
<text text-anchor="middle" x="425.14" y="-14.3" font-family="Times,serif" font-size="14.00" fill="white">sequence</text>
</g>
<!-- /sequence&#45;of&#45;sequences/sequence&#45;of&#45;sequences/last -->
<g id="node5" class="node">
<title>/sequence&#45;of&#45;sequences/sequence&#45;of&#45;sequences/last</title>
<polygon fill="black" stroke="black" points="509.55,-12.44 544.14,0 578.73,-12.44 578.7,-32.56 509.58,-32.56 509.55,-12.44"/>
<text text-anchor="middle" x="544.14" y="-14.3" font-family="Times,serif" font-size="14.00" fill="white">last</text>
</g>
<!-- /sequence&#45;of&#45;sequences/sequence&#45;of&#45;sequences/compare_switch -->
<g id="node6" class="node">
<title>/sequence&#45;of&#45;sequences/sequence&#45;of&#45;sequences/compare_switch</title>
<g id="a_node6"><a xlink:href="../../../target/flowstdlib/control/compare_switch/compare_switch.html" xlink:title="compare_switch">
<ellipse fill="coral" stroke="black" cx="85.14" cy="-260.61" rx="85.29" ry="18"/>
<text text-anchor="middle" x="85.14" y="-256.91" font-family="Times,serif" font-size="14.00">compare_switch</text>
</a>
</g>
</g>
<!-- /sequence&#45;of&#45;sequences/sequence&#45;of&#45;sequences/add -->
<g id="node7" class="node">
<title>/sequence&#45;of&#45;sequences/sequence&#45;of&#45;sequences/add</title>
<g id="a_node7"><a xlink:href="../../../target/flowstdlib/math/add/add.html" xlink:title="add">
<ellipse fill="coral" stroke="black" cx="248.14" cy="-179.74" rx="27.9" ry="18"/>
<text text-anchor="middle" x="248.14" y="-176.04" font-family="Times,serif" font-size="14.00">add</text>
</a>
</g>
</g>
<!-- /sequence&#45;of&#45;sequences/sequence&#45;of&#45;sequences/next&#45;tap/ -->
<g id="node14" class="node">
<title>/sequence&#45;of&#45;sequences/sequence&#45;of&#45;sequences/next&#45;tap/</title>
<ellipse fill="none" stroke="black" cx="425.14" cy="-98.87" rx="272.15" ry="18"/>
<text text-anchor="middle" x="425.14" y="-95.17" font-family="Times,serif" font-size="14.00">/sequence&#45;of&#45;sequences/sequence&#45;of&#45;sequences/next&#45;tap/</text>
</g>
<!-- /sequence&#45;of&#45;sequences/sequence&#45;of&#45;sequences/add&#45;&gt;/sequence&#45;of&#45;sequences/sequence&#45;of&#45;sequences/next&#45;tap/ -->
<g id="edge7" class="edge">
<title>/sequence&#45;of&#45;sequences/sequence&#45;of&#45;sequences/add:e&#45;&gt;/sequence&#45;of&#45;sequences/sequence&#45;of&#45;sequences/next&#45;tap/:nw</title>
<path fill="none" stroke="black" d="M277.14,-179.74C285.9,-179.74 278.73,-167.7 285.14,-161.74 324.71,-124.96 361.5,-154.4 399.52,-124.65"/>
<polygon fill="black" stroke="black" points="401.99,-127.13 407.14,-117.87 397.34,-121.9 401.99,-127.13"/>
<text text-anchor="middle" x="391.14" y="-121.67" font-family="Times,serif" font-size="14.00">data</text>
</g>
<!-- /sequence&#45;of&#45;sequences/sequence&#45;of&#45;sequences/next&#45;tap -->
<g id="node8" class="node">
<title>/sequence&#45;of&#45;sequences/sequence&#45;of&#45;sequences/next&#45;tap</title>
<g id="a_node8"><a xlink:href="../../../target/flowstdlib/control/tap/tap.html" xlink:title="next&#45;tap\n(tap)">
<ellipse fill="coral" stroke="black" cx="1280.14" cy="-350.35" rx="53.98" ry="26.74"/>
<text text-anchor="middle" x="1280.14" y="-354.15" font-family="Times,serif" font-size="14.00">next&#45;tap</text>
<text text-anchor="middle" x="1280.14" y="-339.15" font-family="Times,serif" font-size="14.00">(tap)</text>
</a>
</g>
</g>
<!-- /sequence&#45;of&#45;sequences/sequence&#45;of&#45;sequences/compare_switch/ -->
<g id="node12" class="node">
<title>/sequence&#45;of&#45;sequences/sequence&#45;of&#45;sequences/compare_switch/</title>
<ellipse fill="none" stroke="black" cx="977.14" cy="-260.61" rx="308.95" ry="18"/>
<text text-anchor="middle" x="977.14" y="-256.91" font-family="Times,serif" font-size="14.00">/sequence&#45;of&#45;sequences/sequence&#45;of&#45;sequences/compare_switch/</text>
</g>
<!-- /sequence&#45;of&#45;sequences/sequence&#45;of&#45;sequences/next&#45;tap&#45;&gt;/sequence&#45;of&#45;sequences/sequence&#45;of&#45;sequences/compare_switch/ -->
<g id="edge9" class="edge">
<title>/sequence&#45;of&#45;sequences/sequence&#45;of&#45;sequences/next&#45;tap:e&#45;&gt;/sequence&#45;of&#45;sequences/sequence&#45;of&#45;sequences/compare_switch/:ne</title>
<path fill="none" stroke="black" d="M1335.14,-350.35C1347.09,-350.35 1342.2,-332.31 1334.14,-323.48 1234.14,-213.88 1108.61,-378.95 1002.73,-286.7"/>
<polygon fill="black" stroke="black" points="1004.84,-283.88 995.14,-279.61 1000.06,-289 1004.84,-283.88"/>
<text text-anchor="middle" x="977.14" y="-283.41" font-family="Times,serif" font-size="14.00">right</text>
</g>
<!-- /sequence&#45;of&#45;sequences/sequence&#45;of&#45;sequences/step&#45;tap -->
<g id="node9" class="node">
<title>/sequence&#45;of&#45;sequences/sequence&#45;of&#45;sequences/step&#45;tap</title>
<g id="a_node9"><a xlink:href="../../../target/flowstdlib/control/tap/tap.html" xlink:title="step&#45;tap\n(tap)">
<ellipse fill="coral" stroke="black" cx="241.14" cy="-260.61" rx="53.07" ry="26.74"/>
<text text-anchor="middle" x="241.14" y="-264.41" font-family="Times,serif" font-size="14.00">step&#45;tap</text>
<text text-anchor="middle" x="241.14" y="-249.41" font-family="Times,serif" font-size="14.00">(tap)</text>
</a>
</g>
</g>
<!-- /sequence&#45;of&#45;sequences/sequence&#45;of&#45;sequences/add/ -->
<g id="node13" class="node">
<title>/sequence&#45;of&#45;sequences/sequence&#45;of&#45;sequences/add/</title>
<ellipse fill="none" stroke="black" cx="545.14" cy="-179.74" rx="250.76" ry="18"/>
<text text-anchor="middle" x="545.14" y="-176.04" font-family="Times,serif" font-size="14.00">/sequence&#45;of&#45;sequences/sequence&#45;of&#45;sequences/add/</text>
</g>
<!-- /sequence&#45;of&#45;sequences/sequence&#45;of&#45;sequences/step&#45;tap&#45;&gt;/sequence&#45;of&#45;sequences/sequence&#45;of&#45;sequences/add/ -->
<g id="edge11" class="edge">
<title>/sequence&#45;of&#45;sequences/sequence&#45;of&#45;sequences/step&#45;tap:e&#45;&gt;/sequence&#45;of&#45;sequences/sequence&#45;of&#45;sequences/add/:w</title>
<path fill="none" stroke="black" d="M295.14,-260.61C309.4,-260.61 288.48,-209.76 288.18,-188.7"/>
<polygon fill="black" stroke="black" points="291.36,-190.18 293.14,-179.74 285.23,-186.79 291.36,-190.18"/>
<text text-anchor="middle" x="286.14" y="-183.54" font-family="Times,serif" font-size="14.00">i2</text>
</g>
<!-- /sequence&#45;of&#45;sequences/sequence&#45;of&#45;sequences/not&#45;last -->
<g id="node10" class="node">
<title>/sequence&#45;of&#45;sequences/sequence&#45;of&#45;sequences/not&#45;last</title>
<g id="a_node10"><a xlink:href="../../../target/flowstdlib/math/compare/compare.html" xlink:title="not&#45;last\n(compare)">
<ellipse fill="coral" stroke="black" cx="1406.14" cy="-98.87" rx="62.87" ry="26.74"/>
<text text-anchor="middle" x="1406.14" y="-102.67" font-family="Times,serif" font-size="14.00">not&#45;last</text>
<text text-anchor="middle" x="1406.14" y="-87.67" font-family="Times,serif" font-size="14.00">(compare)</text>
</a>
</g>
</g>
<!-- /sequence&#45;of&#45;sequences/sequence&#45;of&#45;sequences/ -->
<g id="node11" class="node">
<title>/sequence&#45;of&#45;sequences/sequence&#45;of&#45;sequences/</title>
<ellipse fill="none" stroke="black" cx="977.14" cy="-350.35" rx="231.26" ry="18"/>
<text text-anchor="middle" x="977.14" y="-346.65" font-family="Times,serif" font-size="14.00">/sequence&#45;of&#45;sequences/sequence&#45;of&#45;sequences/</text>
</g>
<!-- /sequence&#45;of&#45;sequences/sequence&#45;of&#45;sequences/&#45;&gt;/sequence&#45;of&#45;sequences/sequence&#45;of&#45;sequences/compare_switch/ -->
<g id="edge1" class="edge">
<title>/sequence&#45;of&#45;sequences/sequence&#45;of&#45;sequences/:s&#45;&gt;/sequence&#45;of&#45;sequences/sequence&#45;of&#45;sequences/compare_switch/:ne</title>
<path fill="none" stroke="black" d="M977.14,-331.35C970.04,-312.14 990.47,-301.75 995.37,-289.76"/>
<polygon fill="black" stroke="black" points="998.86,-289.53 995.14,-279.61 991.86,-289.69 998.86,-289.53"/>
<text text-anchor="middle" x="967.1" y="-308.08" font-family="Times,serif" font-size="14.00">start</text>
<text text-anchor="middle" x="1013.14" y="-283.41" font-family="Times,serif" font-size="14.00">right</text>
</g>
<!-- /sequence&#45;of&#45;sequences/sequence&#45;of&#45;sequences/&#45;&gt;/sequence&#45;of&#45;sequences/sequence&#45;of&#45;sequences/compare_switch/ -->
<g id="edge2" class="edge">
<title>/sequence&#45;of&#45;sequences/sequence&#45;of&#45;sequences/:s&#45;&gt;/sequence&#45;of&#45;sequences/sequence&#45;of&#45;sequences/compare_switch/:ne</title>
<path fill="none" stroke="black" d="M977.14,-331.35C984.88,-310.43 1011.97,-299.97 1002.8,-286.51"/>
<polygon fill="black" stroke="black" points="1004.91,-283.71 995.14,-279.61 1000.23,-288.91 1004.91,-283.71"/>
<text text-anchor="middle" x="1013.33" y="-309.91" font-family="Times,serif" font-size="14.00">limit</text>
<text text-anchor="middle" x="982.64" y="-268.41" font-family="Times,serif" font-size="14.00">left</text>
</g>
<!-- /sequence&#45;of&#45;sequences/sequence&#45;of&#45;sequences/&#45;&gt;/sequence&#45;of&#45;sequences/sequence&#45;of&#45;sequences/add/ -->
<g id="edge5" class="edge">
<title>/sequence&#45;of&#45;sequences/sequence&#45;of&#45;sequences/:s&#45;&gt;/sequence&#45;of&#45;sequences/sequence&#45;of&#45;sequences/add/:w</title>
<path fill="none" stroke="black" d="M977.14,-331.35C977.14,-260.01 729.21,-300.89 659.14,-287.48 495.07,-256.08 400.81,-326.3 294.14,-197.74 292.22,-195.43 290.48,-192.32 289.47,-189.34"/>
<polygon fill="black" stroke="black" points="292.83,-190.33 293.14,-179.74 286.3,-187.83 292.83,-190.33"/>
<text text-anchor="middle" x="615.96" y="-286.81" font-family="Times,serif" font-size="14.00">step</text>
<text text-anchor="middle" x="286.14" y="-168.54" font-family="Times,serif" font-size="14.00">i2</text>
</g>
<!-- /sequence&#45;of&#45;sequences/sequence&#45;of&#45;sequences/compare_switch/&#45;&gt;/sequence&#45;of&#45;sequences/sequence&#45;of&#45;sequences/ -->
<g id="edge3" class="edge">
<title>/sequence&#45;of&#45;sequences/sequence&#45;of&#45;sequences/compare_switch/:s&#45;&gt;/sequence&#45;of&#45;sequences/sequence&#45;of&#45;sequences/:n</title>
<path fill="none" stroke="black" d="M977.14,-241.61C968.14,-224.46 1264.76,-230.46 1276.87,-242.61 1288.16,-253.94 1284.48,-264.54 1276.87,-278.61 1259.5,-310.69 1228.47,-293.19 1208.14,-323.48 1196.83,-340.34 1215.15,-355.38 1199.52,-368.35 1182.21,-382.72 1018.04,-392.39 983.3,-377.36"/>
<polygon fill="black" stroke="black" points="986.01,-375.14 977.14,-369.35 980.46,-379.41 986.01,-375.14"/>
<text text-anchor="middle" x="947.64" y="-230.41" font-family="Times,serif" font-size="14.00">right&#45;lte</text>
<text text-anchor="middle" x="943.64" y="-373.15" font-family="Times,serif" font-size="14.00">sequence</text>
</g>
<!-- /sequence&#45;of&#45;sequences/sequence&#45;of&#45;sequences/compare_switch/&#45;&gt;/sequence&#45;of&#45;sequences/sequence&#45;of&#45;sequences/ -->
<g id="edge15" class="edge">
<title>/sequence&#45;of&#45;sequences/sequence&#45;of&#45;sequences/compare_switch/:s&#45;&gt;/sequence&#45;of&#45;sequences/sequence&#45;of&#45;sequences/:n</title>
<path fill="none" stroke="black" d="M977.14,-241.61C986.14,-224.46 1282.76,-230.46 1294.87,-242.61 1306.16,-253.94 1302.48,-264.54 1294.87,-278.61 1277.5,-310.69 1246.47,-293.19 1226.14,-323.48 1214.83,-340.34 1233.15,-355.38 1217.52,-368.35 1199.63,-383.2 1024.89,-393.03 984.95,-375.77"/>
<polygon fill="black" stroke="black" points="987.09,-373 977.14,-369.35 982.64,-378.41 987.09,-373"/>
<text text-anchor="middle" x="1009.14" y="-230.41" font-family="Times,serif" font-size="14.00">right&#45;gte</text>
<text text-anchor="middle" x="990.64" y="-373.15" font-family="Times,serif" font-size="14.00">last</text>
</g>
<!-- /sequence&#45;of&#45;sequences/sequence&#45;of&#45;sequences/compare_switch/&#45;&gt;/sequence&#45;of&#45;sequences/sequence&#45;of&#45;sequences/compare_switch/ -->
<g id="edge4" class="edge">
<title>/sequence&#45;of&#45;sequences/sequence&#45;of&#45;sequences/compare_switch/:s&#45;&gt;/sequence&#45;of&#45;sequences/sequence&#45;of&#45;sequences/compare_switch/:ne</title>
<path fill="none" stroke="black" d="M977.14,-242.61C1086.05,-222.61 1303.87,-222.61 1303.87,-260.61 1303.87,-297.46 1115.97,-298.58 1005.28,-280.37"/>
<polygon fill="black" stroke="black" points="1005.59,-276.87 995.14,-278.61 1004.4,-283.77 1005.59,-276.87"/>
<text text-anchor="middle" x="960.98" y="-245.37" font-family="Times,serif" font-size="14.00">left&#45;gt</text>
<text text-anchor="middle" x="1007.64" y="-282.41" font-family="Times,serif" font-size="14.00">left</text>
</g>
<!-- /sequence&#45;of&#45;sequences/sequence&#45;of&#45;sequences/compare_switch/&#45;&gt;/sequence&#45;of&#45;sequences/sequence&#45;of&#45;sequences/add/ -->
<g id="edge6" class="edge">
<title>/sequence&#45;of&#45;sequences/sequence&#45;of&#45;sequences/compare_switch/:se&#45;&gt;/sequence&#45;of&#45;sequences/sequence&#45;of&#45;sequences/add/:ne</title>
<path fill="none" stroke="black" d="M995.14,-241.61C1061.11,-175.64 659.51,-260 571.11,-204.02"/>
<polygon fill="black" stroke="black" points="573.16,-201.18 563.14,-197.74 568.83,-206.68 573.16,-201.18"/>
<text text-anchor="middle" x="761.37" y="-226.15" font-family="Times,serif" font-size="14.00">right</text>
<text text-anchor="middle" x="556.14" y="-201.54" font-family="Times,serif" font-size="14.00">i1</text>
</g>
<!-- /sequence&#45;of&#45;sequences/sequence&#45;of&#45;sequences/not&#45;last/ -->
<g id="node15" class="node">
<title>/sequence&#45;of&#45;sequences/sequence&#45;of&#45;sequences/not&#45;last/</title>
<ellipse fill="none" stroke="black" cx="1083.14" cy="-179.74" rx="269.15" ry="18"/>
<text text-anchor="middle" x="1083.14" y="-176.04" font-family="Times,serif" font-size="14.00">/sequence&#45;of&#45;sequences/sequence&#45;of&#45;sequences/not&#45;last/</text>
</g>
<!-- /sequence&#45;of&#45;sequences/sequence&#45;of&#45;sequences/compare_switch/&#45;&gt;/sequence&#45;of&#45;sequences/sequence&#45;of&#45;sequences/not&#45;last/ -->
<g id="edge12" class="edge">
<title>/sequence&#45;of&#45;sequences/sequence&#45;of&#45;sequences/compare_switch/:se&#45;&gt;/sequence&#45;of&#45;sequences/sequence&#45;of&#45;sequences/not&#45;last/:ne</title>
<path fill="none" stroke="black" d="M995.14,-241.61C1019.45,-209.22 1107.48,-228.72 1105.49,-206.87"/>
<polygon fill="black" stroke="black" points="1108.6,-205.26 1101.14,-197.74 1102.28,-208.27 1108.6,-205.26"/>
<text text-anchor="middle" x="1035.89" y="-210.12" font-family="Times,serif" font-size="14.00">left</text>
<text text-anchor="middle" x="1083.14" y="-201.54" font-family="Times,serif" font-size="14.00">right</text>
</g>
<!-- /sequence&#45;of&#45;sequences/sequence&#45;of&#45;sequences/compare_switch/&#45;&gt;/sequence&#45;of&#45;sequences/sequence&#45;of&#45;sequences/not&#45;last/ -->
<g id="edge13" class="edge">
<title>/sequence&#45;of&#45;sequences/sequence&#45;of&#45;sequences/compare_switch/:se&#45;&gt;/sequence&#45;of&#45;sequences/sequence&#45;of&#45;sequences/not&#45;last/:ne</title>
<path fill="none" stroke="black" d="M995.14,-241.61C1036.85,-208.23 1130.8,-229.96 1108.76,-204.76"/>
<polygon fill="black" stroke="black" points="1110.87,-201.94 1101.14,-197.74 1106.13,-207.09 1110.87,-201.94"/>
<text text-anchor="middle" x="1066.49" y="-226.56" font-family="Times,serif" font-size="14.00">right</text>
<text text-anchor="middle" x="1113.64" y="-201.54" font-family="Times,serif" font-size="14.00">left</text>
</g>
<!-- /sequence&#45;of&#45;sequences/sequence&#45;of&#45;sequences/step&#45;tap/ -->
<g id="node16" class="node">
<title>/sequence&#45;of&#45;sequences/sequence&#45;of&#45;sequences/step&#45;tap/</title>
<ellipse fill="none" stroke="black" cx="1053.14" cy="-98.87" rx="272.15" ry="18"/>
<text text-anchor="middle" x="1053.14" y="-95.17" font-family="Times,serif" font-size="14.00">/sequence&#45;of&#45;sequences/sequence&#45;of&#45;sequences/step&#45;tap/</text>
</g>
<!-- /sequence&#45;of&#45;sequences/sequence&#45;of&#45;sequences/add/&#45;&gt;/sequence&#45;of&#45;sequences/sequence&#45;of&#45;sequences/step&#45;tap/ -->
<g id="edge10" class="edge">
<title>/sequence&#45;of&#45;sequences/sequence&#45;of&#45;sequences/add/:e&#45;&gt;/sequence&#45;of&#45;sequences/sequence&#45;of&#45;sequences/step&#45;tap/:nw</title>
<path fill="none" stroke="black" d="M797.14,-179.74C805.9,-179.74 798.28,-167.18 805.14,-161.74 883.81,-99.35 956.28,-185.02 1027.38,-125.02"/>
<polygon fill="black" stroke="black" points="1030.16,-127.22 1035.14,-117.87 1025.42,-122.07 1030.16,-127.22"/>
<text text-anchor="middle" x="910.37" y="-146" font-family="Times,serif" font-size="14.00">i2</text>
<text text-anchor="middle" x="1019.14" y="-121.67" font-family="Times,serif" font-size="14.00">data</text>
</g>
<!-- /sequence&#45;of&#45;sequences/sequence&#45;of&#45;sequences/not&#45;last/&#45;&gt;/sequence&#45;of&#45;sequences/sequence&#45;of&#45;sequences/next&#45;tap/ -->
<g id="edge8" class="edge">
<title>/sequence&#45;of&#45;sequences/sequence&#45;of&#45;sequences/not&#45;last/:se&#45;&gt;/sequence&#45;of&#45;sequences/sequence&#45;of&#45;sequences/next&#45;tap/:nw</title>
<path fill="none" stroke="black" d="M1101.14,-161.74C1151.83,-111.05 464.13,-163.68 408.09,-127.92"/>
<polygon fill="black" stroke="black" points="411.57,-127.5 407.14,-117.87 404.6,-128.15 411.57,-127.5"/>
<text text-anchor="middle" x="749.03" y="-143.6" font-family="Times,serif" font-size="14.00">lt</text>
<text text-anchor="middle" x="432.64" y="-121.67" font-family="Times,serif" font-size="14.00">control</text>
</g>
<!-- /sequence&#45;of&#45;sequences/sequence&#45;of&#45;sequences/not&#45;last/&#45;&gt;/sequence&#45;of&#45;sequences/sequence&#45;of&#45;sequences/step&#45;tap/ -->
<g id="edge14" class="edge">
<title>/sequence&#45;of&#45;sequences/sequence&#45;of&#45;sequences/not&#45;last/:se&#45;&gt;/sequence&#45;of&#45;sequences/sequence&#45;of&#45;sequences/step&#45;tap/:nw</title>
<path fill="none" stroke="black" d="M1101.14,-161.74C1121.96,-140.92 1044.45,-141.66 1033,-127.91"/>
<polygon fill="black" stroke="black" points="1036.48,-128.38 1035.14,-117.87 1029.64,-126.92 1036.48,-128.38"/>
<text text-anchor="middle" x="1062.7" y="-143.62" font-family="Times,serif" font-size="14.00">lt</text>
<text text-anchor="middle" x="1060.64" y="-121.67" font-family="Times,serif" font-size="14.00">control</text>
</g>
</g>
</svg>
