<?xml version="1.0" encoding="UTF-8" standalone="no"?>
<!DOCTYPE svg PUBLIC "-//W3C//DTD SVG 1.1//EN"
 "http://www.w3.org/Graphics/SVG/1.1/DTD/svg11.dtd">
<!-- Generated by graphviz version 2.42.3 (20191010.1750)
 -->
<!-- Title: first_flow Pages: 1 -->
<svg width="527pt" height="413pt"
 viewBox="28.80 28.80 498.50 384.54" xmlns="http://www.w3.org/2000/svg" xmlns:xlink="http://www.w3.org/1999/xlink">
<g id="graph0" class="graph" transform="scale(1 1) rotate(0) translate(32.8 380.54)">
<title>first_flow</title>
<polygon fill="white" stroke="transparent" points="-4,4 -4,-351.74 465.7,-351.74 465.7,4 -4,4"/>
<text text-anchor="middle" x="230.85" y="-332.54" font-family="Times,serif" font-size="14.00">first&#45;flow</text>
<!-- /first&#45;flow/HEAD&#45;1 -->
<g id="node1" class="node">
<title>/first&#45;flow/HEAD&#45;1</title>
<g id="a_node1"><a xlink:href="../../flowstdlib/data/buffer/buffer.toml" xlink:title="HEAD&#45;1\n(Buffer)">
<ellipse fill="coral" stroke="black" cx="304.74" cy="-214.28" rx="47.11" ry="25.41"/>
<text text-anchor="middle" x="304.74" y="-217.08" font-family="Times,serif" font-size="14.00">HEAD&#45;1</text>
<text text-anchor="middle" x="304.74" y="-203.08" font-family="Times,serif" font-size="14.00">(Buffer)</text>
</a>
</g>
</g>
<!-- /first&#45;flow/add -->
<g id="node5" class="node">
<title>/first&#45;flow/add</title>
<g id="a_node5"><a xlink:href="../../flowstdlib/math/add/add.toml" xlink:title="add\n(Add)">
<ellipse fill="coral" stroke="black" cx="426.74" cy="-126.37" rx="34.91" ry="25.41"/>
<text text-anchor="middle" x="426.74" y="-129.17" font-family="Times,serif" font-size="14.00">add</text>
<text text-anchor="middle" x="426.74" y="-115.17" font-family="Times,serif" font-size="14.00">(Add)</text>
</a>
</g>
</g>
<!-- /first&#45;flow/HEAD&#45;1&#45;&gt;/first&#45;flow/add -->
<g id="edge3" class="edge">
<title>/first&#45;flow/HEAD&#45;1:e&#45;&gt;/first&#45;flow/add:ne</title>
<path fill="none" stroke="black" d="M352.74,-214.28C400.32,-214.28 472.37,-188.93 453.97,-156.34"/>
<polygon fill="black" stroke="black" points="456.66,-154.09 447.74,-148.37 451.14,-158.4 456.66,-154.09"/>
<text text-anchor="middle" x="453.19" y="-151.17" font-family="Times,serif" font-size="14.00">i1</text>
</g>
<!-- /first&#45;flow/print -->
<g id="node6" class="node">
<title>/first&#45;flow/print</title>
<g id="a_node6"><a xlink:href="../../flowruntime/stdio/stdout.toml" xlink:title="print\n(Stdout)">
<ellipse fill="coral" stroke="black" cx="329.74" cy="-126.37" rx="43.53" ry="25.41"/>
<text text-anchor="middle" x="329.74" y="-129.17" font-family="Times,serif" font-size="14.00">print</text>
<text text-anchor="middle" x="329.74" y="-115.17" font-family="Times,serif" font-size="14.00">(Stdout)</text>
</a>
</g>
</g>
<!-- /first&#45;flow/HEAD&#45;1&#45;&gt;/first&#45;flow/print -->
<g id="edge7" class="edge">
<title>/first&#45;flow/HEAD&#45;1:e&#45;&gt;/first&#45;flow/print:w</title>
<path fill="none" stroke="black" d="M352.74,-214.28C364.07,-214.28 357.66,-198.48 351.74,-188.82 334.18,-160.15 303.31,-180.5 285.74,-151.82 282.6,-146.69 279.32,-139.83 278.63,-134.52"/>
<polygon fill="black" stroke="black" points="281.55,-136.47 284.74,-126.37 275.95,-132.27 281.55,-136.47"/>
</g>
<!-- initializer/first&#45;flow/HEAD&#45;1_0 -->
<!-- initializer/first&#45;flow/HEAD&#45;1_0&#45;&gt;/first&#45;flow/HEAD&#45;1 -->
<g id="edge1" class="edge">
<title>initializer/first&#45;flow/HEAD&#45;1_0&#45;&gt;/first&#45;flow/HEAD&#45;1:w</title>
<path fill="none" stroke="blue" stroke-dasharray="1,5" d="M250.7,-289.34C242.19,-266.33 230.84,-227.43 246.66,-216.95"/>
<polygon fill="blue" stroke="blue" points="247.97,-220.22 256.74,-214.28 246.18,-213.46 247.97,-220.22"/>
<text text-anchor="middle" x="249.24" y="-260.54" font-family="Times,serif" font-size="14.00">1</text>
</g>
<!-- /first&#45;flow/HEAD -->
<g id="node3" class="node">
<title>/first&#45;flow/HEAD</title>
<g id="a_node3"><a xlink:href="../../flowstdlib/data/buffer/buffer.toml" xlink:title="HEAD\n(Buffer)">
<ellipse fill="coral" stroke="black" cx="250.74" cy="-25.46" rx="43.64" ry="25.41"/>
<text text-anchor="middle" x="250.74" y="-28.26" font-family="Times,serif" font-size="14.00">HEAD</text>
<text text-anchor="middle" x="250.74" y="-14.26" font-family="Times,serif" font-size="14.00">(Buffer)</text>
</a>
</g>
</g>
<!-- /first&#45;flow/HEAD&#45;&gt;/first&#45;flow/HEAD&#45;1 -->
<g id="edge4" class="edge">
<title>/first&#45;flow/HEAD:e&#45;&gt;/first&#45;flow/HEAD&#45;1:w</title>
<path fill="none" stroke="black" d="M295.74,-25.46C307.07,-25.46 296.91,-39.8 294.74,-50.91 281.21,-120.37 191.96,-205.16 246.69,-213.6"/>
<polygon fill="black" stroke="black" points="246.53,-217.09 256.74,-214.28 247,-210.11 246.53,-217.09"/>
</g>
<!-- /first&#45;flow/HEAD&#45;&gt;/first&#45;flow/add -->
<g id="edge5" class="edge">
<title>/first&#45;flow/HEAD:e&#45;&gt;/first&#45;flow/add:w</title>
<path fill="none" stroke="black" d="M295.74,-25.46C308.54,-25.46 375.73,-90.21 382.74,-100.91 386.2,-106.18 384.89,-113.04 384.69,-118.3"/>
<polygon fill="black" stroke="black" points="381.94,-120.47 390.74,-126.37 387.54,-116.27 381.94,-120.47"/>
<text text-anchor="middle" x="385.3" y="-129.17" font-family="Times,serif" font-size="14.00">i2</text>
</g>
<!-- initializer/first&#45;flow/HEAD_0 -->
<!-- initializer/first&#45;flow/HEAD_0&#45;&gt;/first&#45;flow/HEAD -->
<g id="edge2" class="edge">
<title>initializer/first&#45;flow/HEAD_0&#45;&gt;/first&#45;flow/HEAD:w</title>
<path fill="none" stroke="blue" stroke-dasharray="1,5" d="M121.26,-107.96C132.3,-81.58 157.3,-33.72 195.69,-26.4"/>
<polygon fill="blue" stroke="blue" points="196.12,-29.88 205.74,-25.46 195.46,-22.91 196.12,-29.88"/>
<text text-anchor="middle" x="145.24" y="-71.71" font-family="Times,serif" font-size="14.00">1</text>
</g>
<!-- /first&#45;flow/add&#45;&gt;/first&#45;flow/HEAD -->
<g id="edge6" class="edge">
<title>/first&#45;flow/add:sw&#45;&gt;/first&#45;flow/HEAD:w</title>
<path fill="none" stroke="black" d="M405.74,-104.37C389.18,-87.8 388.09,-78.57 366.74,-68.91 334.15,-54.16 231.11,-77.12 206.74,-50.91 202.41,-46.25 199.05,-38.78 198.96,-33.13"/>
<polygon fill="black" stroke="black" points="201.74,-35.27 205.74,-25.46 196.5,-30.63 201.74,-35.27"/>
<text text-anchor="middle" x="294.28" y="-66.49" font-family="Times,serif" font-size="14.00">sum</text>
</g>
</g>
</svg>
