<?xml version="1.0" encoding="UTF-8" standalone="no"?>
<!DOCTYPE svg PUBLIC "-//W3C//DTD SVG 1.1//EN"
 "http://www.w3.org/Graphics/SVG/1.1/DTD/svg11.dtd">
<!-- Generated by graphviz version 2.42.3 (20191010.1750)
 -->
<!-- Title: first_flow Pages: 1 -->
<svg width="591pt" height="311pt"
 viewBox="0.00 0.00 590.95 311.00" xmlns="http://www.w3.org/2000/svg" xmlns:xlink="http://www.w3.org/1999/xlink">
<g id="graph0" class="graph" transform="scale(1 1) rotate(0) translate(4 307)">
<title>first_flow</title>
<polygon fill="white" stroke="transparent" points="-4,4 -4,-307 586.95,-307 586.95,4 -4,4"/>
<text text-anchor="middle" x="291.48" y="-287.8" font-family="Times,serif" font-size="14.00">/first&#45;flow</text>
<!-- r0 -->
<g id="node1" class="node">
<title>r0</title>
<g id="a_node1"><a xlink:href="file:///Users/andrew/workspace/flow/flowstdlib/data/buffer/buffer.toml" xlink:title="HEAD&#45;1 (#0)">
<ellipse fill="coral" stroke="black" cx="401.2" cy="-177" rx="58.96" ry="18"/>
<text text-anchor="middle" x="401.2" y="-172.8" font-family="Times,serif" font-size="14.00">HEAD&#45;1 (#0)</text>
</a>
</g>
</g>
<!-- r2 -->
<g id="node3" class="node">
<title>r2</title>
<g id="a_node3"><a xlink:href="file:///Users/andrew/workspace/flow/flowstdlib/math/add/add.toml" xlink:title="add (#2)">
<ellipse fill="coral" stroke="black" cx="232.2" cy="-104" rx="39.64" ry="18"/>
<text text-anchor="middle" x="232.2" y="-99.8" font-family="Times,serif" font-size="14.00">add (#2)</text>
</a>
</g>
</g>
<!-- r0&#45;&gt;r2 -->
<g id="edge2" class="edge">
<title>r0:e&#45;&gt;r2:n</title>
<path fill="none" stroke="black" d="M461.2,-177C469.21,-177 465.56,-164.96 460.2,-159 428.42,-123.68 260.07,-166.04 235.26,-131.79"/>
<polygon fill="black" stroke="black" points="238.52,-130.5 232.2,-122 231.84,-132.59 238.52,-130.5"/>
<text text-anchor="middle" x="226.76" y="-124.8" font-family="Times,serif" font-size="14.00">i1</text>
</g>
<!-- r3 -->
<g id="node4" class="node">
<title>r3</title>
<g id="a_node4"><a xlink:href="file:///Users/andrew/workspace/flow/flowruntime/stdio/stdout.toml" xlink:title="print (#3)">
<ellipse fill="coral" stroke="black" cx="539.2" cy="-104" rx="43.51" ry="18"/>
<text text-anchor="middle" x="539.2" y="-99.8" font-family="Times,serif" font-size="14.00">print (#3)</text>
</a>
</g>
</g>
<!-- r0&#45;&gt;r3 -->
<g id="edge3" class="edge">
<title>r0:e&#45;&gt;r3:n</title>
<path fill="none" stroke="black" d="M461.2,-177C499.97,-177 533.03,-166.49 538.43,-132.29"/>
<polygon fill="black" stroke="black" points="541.94,-132.23 539.2,-122 534.96,-131.71 541.94,-132.23"/>
</g>
<!-- initializerr0_0 -->
<!-- initializerr0_0&#45;&gt;r0 -->
<g id="edge1" class="edge">
<title>initializerr0_0&#45;&gt;r0:w</title>
<path fill="none" stroke="blue" stroke-dasharray="1,5" d="M335.27,-244.8C327.6,-223.84 317.97,-189.98 331.29,-179.91"/>
<polygon fill="blue" stroke="blue" points="332.59,-183.18 341.2,-177 330.62,-176.46 332.59,-183.18"/>
<text text-anchor="middle" x="332.7" y="-215.8" font-family="Times,serif" font-size="14.00">1</text>
</g>
<!-- r1 -->
<g id="node5" class="node">
<title>r1</title>
<g id="a_node5"><a xlink:href="file:///Users/andrew/workspace/flow/flowstdlib/data/buffer/buffer.toml" xlink:title="HEAD (#1)">
<ellipse fill="coral" stroke="black" cx="209.2" cy="-18" rx="51.73" ry="18"/>
<text text-anchor="middle" x="209.2" y="-13.8" font-family="Times,serif" font-size="14.00">HEAD (#1)</text>
</a>
</g>
</g>
<!-- r2&#45;&gt;r1 -->
<g id="edge7" class="edge">
<title>r2:se&#45;&gt;r1:n</title>
<path fill="none" stroke="black" d="M248.2,-87C265.78,-69.42 223.14,-65.42 211.85,-45.82"/>
<polygon fill="black" stroke="black" points="215.19,-44.74 209.2,-36 208.43,-46.57 215.19,-44.74"/>
<text text-anchor="middle" x="261.81" y="-75.8" font-family="Times,serif" font-size="14.00">/sum</text>
</g>
<!-- r1&#45;&gt;r0 -->
<g id="edge5" class="edge">
<title>r1:e&#45;&gt;r0:n</title>
<path fill="none" stroke="black" d="M262.2,-18C370.23,-18 415.55,-60.63 460.18,-159 466.79,-173.57 471.4,-183.59 460.18,-195 456.81,-198.43 426.58,-200.9 410.76,-199.37"/>
<polygon fill="black" stroke="black" points="411.8,-196.02 401.2,-196 409.47,-202.63 411.8,-196.02"/>
</g>
<!-- r1&#45;&gt;r2 -->
<g id="edge6" class="edge">
<title>r1:e&#45;&gt;r2:ne</title>
<path fill="none" stroke="black" d="M262.2,-18C292.68,-18 294.65,-96.4 272.02,-120 267.44,-124.78 262.21,-126.9 257.1,-125.99"/>
<polygon fill="black" stroke="black" points="258.63,-122.84 248.2,-121 255.21,-128.95 258.63,-122.84"/>
<text text-anchor="middle" x="242.76" y="-123.8" font-family="Times,serif" font-size="14.00">i2</text>
</g>
<!-- initializerr1_0 -->
<!-- initializerr1_0&#45;&gt;r1 -->
<g id="edge4" class="edge">
<title>initializerr1_0&#45;&gt;r1:w</title>
<path fill="none" stroke="blue" stroke-dasharray="1,5" d="M69.47,-85.8C82.99,-63.1 110.41,-25.25 145.96,-18.91"/>
<polygon fill="blue" stroke="blue" points="146.55,-22.37 156.2,-18 145.93,-15.4 146.55,-22.37"/>
<text text-anchor="middle" x="94.7" y="-56.8" font-family="Times,serif" font-size="14.00">1</text>
</g>
</g>
</svg>
