<?xml version="1.0" encoding="UTF-8" standalone="no"?>
<!DOCTYPE svg PUBLIC "-//W3C//DTD SVG 1.1//EN"
 "http://www.w3.org/Graphics/SVG/1.1/DTD/svg11.dtd">
<!-- Generated by graphviz version 2.44.1 (20200629.0846)
 -->
<!-- Title: router Pages: 1 -->
<svg width="762pt" height="606pt"
 viewBox="28.80 28.80 733.38 577.54" xmlns="http://www.w3.org/2000/svg" xmlns:xlink="http://www.w3.org/1999/xlink">
<g id="graph0" class="graph" transform="scale(1 1) rotate(0) translate(32.8 573.54)">
<title>router</title>
<polygon fill="white" stroke="transparent" points="-4,4 -4,-544.74 700.58,-544.74 700.58,4 -4,4"/>
<text text-anchor="middle" x="348.29" y="-525.54" font-family="Times,serif" font-size="14.00">router</text>
<!-- /router/readline -->
<g id="node1" class="node">
<title>/router/readline</title>
<g id="a_node1"><a xlink:href="../../flowr/src/lib/flowruntime/stdio/readline.html" xlink:title="readline">
<ellipse fill="coral" stroke="black" cx="39" cy="-499.74" rx="38.99" ry="18"/>
<text text-anchor="middle" x="39" y="-496.04" font-family="Times,serif" font-size="14.00">readline</text>
</a>
</g>
</g>
<!-- /router/accumulate_triples -->
<g id="node2" class="node">
<title>/router/accumulate_triples</title>
<g id="a_node2"><a xlink:href="../../flowstdlib/data/accumulate/accumulate.html" xlink:title="accumulate_triples\n(accumulate)">
<ellipse fill="coral" stroke="black" cx="242" cy="-403.87" rx="84.29" ry="26.74"/>
<text text-anchor="middle" x="242" y="-407.67" font-family="Times,serif" font-size="14.00">accumulate_triples</text>
<text text-anchor="middle" x="242" y="-392.67" font-family="Times,serif" font-size="14.00">(accumulate)</text>
</a>
</g>
</g>
<!-- /router/readline&#45;&gt;/router/accumulate_triples -->
<g id="edge3" class="edge">
<title>/router/readline:e&#45;&gt;/router/accumulate_triples:w</title>
<path fill="none" stroke="black" d="M79,-499.74C87.75,-499.74 82.23,-489.09 87,-481.74 110.34,-445.75 110.58,-409.94 146.94,-404.56"/>
<polygon fill="black" stroke="black" points="147.26,-408.05 157,-403.87 146.78,-401.07 147.26,-408.05"/>
<text text-anchor="middle" x="93.61" y="-450.1" font-family="Times,serif" font-size="14.00">json</text>
<text text-anchor="middle" x="139.5" y="-407.67" font-family="Times,serif" font-size="14.00">values</text>
</g>
<!-- /router/accumulate_triples&#45;&gt;/router/accumulate_triples -->
<g id="edge4" class="edge">
<title>/router/accumulate_triples:s&#45;&gt;/router/accumulate_triples:n</title>
<path fill="none" stroke="black" d="M242,-376.87C276.05,-365.87 344.14,-365.87 344.14,-403.87 344.14,-438.46 287.73,-441.57 251.92,-433.55"/>
<polygon fill="black" stroke="black" points="252.56,-430.1 242,-430.87 250.74,-436.86 252.56,-430.1"/>
<text text-anchor="middle" x="224.52" y="-365.66" font-family="Times,serif" font-size="14.00">partial</text>
<text text-anchor="middle" x="224.5" y="-434.67" font-family="Times,serif" font-size="14.00">partial</text>
</g>
<!-- /router/A_tracker -->
<g id="node5" class="node">
<title>/router/A_tracker</title>
<g id="a_node5"><a xlink:href="path_tracker.dot.svg" xlink:title="A_tracker">
<ellipse fill="aquamarine" stroke="black" cx="268" cy="-268" rx="72" ry="72"/>
<text text-anchor="middle" x="268" y="-264.3" font-family="Times,serif" font-size="14.00">A_tracker</text>
</a>
</g>
</g>
<!-- /router/accumulate_triples&#45;&gt;/router/A_tracker -->
<g id="edge5" class="edge">
<title>/router/accumulate_triples:se&#45;&gt;/router/A_tracker:n</title>
<path fill="none" stroke="black" d="M268,-377C276.99,-368.01 272.07,-360.63 269.38,-350.14"/>
<polygon fill="black" stroke="black" points="272.82,-349.44 268,-340 265.88,-350.38 272.82,-349.44"/>
<text text-anchor="middle" x="296.19" y="-361.73" font-family="Times,serif" font-size="14.00">chunk[0]</text>
<text text-anchor="middle" x="246.5" y="-343.8" font-family="Times,serif" font-size="14.00">forward</text>
</g>
<!-- /router/accumulate_triples&#45;&gt;/router/A_tracker -->
<g id="edge6" class="edge">
<title>/router/accumulate_triples:se&#45;&gt;/router/A_tracker:n</title>
<path fill="none" stroke="black" d="M268,-377C270.07,-367.83 263.27,-360.33 264.73,-349.5"/>
<polygon fill="black" stroke="black" points="268.05,-350.6 268,-340 261.43,-348.32 268.05,-350.6"/>
<text text-anchor="middle" x="240.85" y="-363.06" font-family="Times,serif" font-size="14.00">chunk[1]</text>
<text text-anchor="middle" x="282" y="-343.8" font-family="Times,serif" font-size="14.00">other</text>
</g>
<!-- /router/accumulate_triples&#45;&gt;/router/A_tracker -->
<g id="edge7" class="edge">
<title>/router/accumulate_triples:se&#45;&gt;/router/A_tracker:n</title>
<path fill="none" stroke="black" d="M268,-377C284.6,-367.65 280.31,-360.04 273.31,-348.85"/>
<polygon fill="black" stroke="black" points="276.14,-346.77 268,-340 270.14,-350.38 276.14,-346.77"/>
<text text-anchor="middle" x="300.82" y="-342.65" font-family="Times,serif" font-size="14.00">chunk[2]</text>
<text text-anchor="middle" x="254" y="-343.8" font-family="Times,serif" font-size="14.00">cross</text>
</g>
<!-- /router/B_tracker -->
<g id="node6" class="node">
<title>/router/B_tracker</title>
<g id="a_node6"><a xlink:href="path_tracker.dot.svg" xlink:title="B_tracker">
<ellipse fill="aquamarine" stroke="black" cx="374" cy="-87" rx="72" ry="72"/>
<text text-anchor="middle" x="374" y="-83.3" font-family="Times,serif" font-size="14.00">B_tracker</text>
</a>
</g>
</g>
<!-- /router/accumulate_triples&#45;&gt;/router/B_tracker -->
<g id="edge8" class="edge">
<title>/router/accumulate_triples:se&#45;&gt;/router/B_tracker:n</title>
<path fill="none" stroke="black" d="M268,-377C306.56,-338.44 352.09,-383.5 385,-340 428.73,-282.2 415.75,-244.75 390,-177 387.86,-171.37 383.06,-169.77 379.28,-167.54"/>
<polygon fill="black" stroke="black" points="382.23,-165.67 374,-159 376.28,-169.35 382.23,-165.67"/>
<text text-anchor="middle" x="353.13" y="-364.15" font-family="Times,serif" font-size="14.00">chunk[1]</text>
<text text-anchor="middle" x="352.5" y="-162.8" font-family="Times,serif" font-size="14.00">forward</text>
</g>
<!-- /router/accumulate_triples&#45;&gt;/router/B_tracker -->
<g id="edge9" class="edge">
<title>/router/accumulate_triples:se&#45;&gt;/router/B_tracker:n</title>
<path fill="none" stroke="black" d="M268,-377C305.36,-339.63 349.33,-382.31 381,-340 424.17,-282.34 384.89,-250.03 386,-178 386,-177.56 386.13,-177.43 386,-177 384.6,-172.4 381.6,-170.3 378.95,-168.16"/>
<polygon fill="black" stroke="black" points="381.83,-166.13 374,-159 375.68,-169.46 381.83,-166.13"/>
<text text-anchor="middle" x="374.77" y="-268.2" font-family="Times,serif" font-size="14.00">chunk[2]</text>
<text text-anchor="middle" x="388" y="-162.8" font-family="Times,serif" font-size="14.00">cross</text>
</g>
<!-- initializer/router/accumulate_triples_1 -->
<!-- initializer/router/accumulate_triples_1&#45;&gt;/router/accumulate_triples -->
<g id="edge1" class="edge">
<title>initializer/router/accumulate_triples_1&#45;&gt;/router/accumulate_triples:n</title>
<path fill="none" stroke="blue" stroke-dasharray="1,5" d="M242,-481.7C242,-470.63 242,-455.62 242,-441.13"/>
<polygon fill="blue" stroke="blue" points="245.5,-440.74 242,-430.74 238.5,-440.74 245.5,-440.74"/>
<text text-anchor="middle" x="247" y="-452.54" font-family="Times,serif" font-size="14.00">[]</text>
</g>
<!-- initializer/router/accumulate_triples_2 -->
<!-- initializer/router/accumulate_triples_2&#45;&gt;/router/accumulate_triples -->
<g id="edge2" class="edge">
<title>initializer/router/accumulate_triples_2&#45;&gt;/router/accumulate_triples:n</title>
<path fill="none" stroke="blue" d="M452.8,-486.44C373.99,-475.36 272.52,-457.97 247.67,-439.17"/>
<polygon fill="blue" stroke="blue" points="250.49,-437.08 242,-430.74 244.68,-440.99 250.49,-437.08"/>
<text text-anchor="middle" x="320.5" y="-452.54" font-family="Times,serif" font-size="14.00">3</text>
</g>
<!-- /router/A_tracker&#45;&gt;/router/A_tracker -->
<g id="edge10" class="edge">
<title>/router/A_tracker:s&#45;&gt;/router/A_tracker:n</title>
<path fill="none" stroke="black" d="M268,-196C298,-184.75 358,-184.75 358,-268 358,-342.8 309.57,-350.39 277.97,-343.01"/>
<polygon fill="black" stroke="black" points="278.58,-339.53 268,-340 276.56,-346.24 278.58,-339.53"/>
<text text-anchor="middle" x="282" y="-184.8" font-family="Times,serif" font-size="14.00">route</text>
<text text-anchor="middle" x="229" y="-328.8" font-family="Times,serif" font-size="14.00">forward_route</text>
</g>
<!-- /router/A_tracker&#45;&gt;/router/A_tracker -->
<g id="edge12" class="edge">
<title>/router/A_tracker:s&#45;&gt;/router/A_tracker:n</title>
<path fill="none" stroke="black" d="M268,-196C304,-173.5 376,-173.5 376,-268 376,-355.12 314.81,-361.93 277.04,-344.83"/>
<polygon fill="black" stroke="black" points="278.47,-341.62 268,-340 275.17,-347.8 278.47,-341.62"/>
<text text-anchor="middle" x="245.5" y="-184.8" font-family="Times,serif" font-size="14.00">distance</text>
<text text-anchor="middle" x="315" y="-328.8" font-family="Times,serif" font-size="14.00">forward_distance</text>
</g>
<!-- /router/A_tracker&#45;&gt;/router/B_tracker -->
<g id="edge14" class="edge">
<title>/router/A_tracker:s&#45;&gt;/router/B_tracker:n</title>
<path fill="none" stroke="black" d="M268,-196C268,-174.56 346.28,-181.07 368.3,-167.49"/>
<polygon fill="black" stroke="black" points="371.33,-169.26 374,-159 365.52,-165.35 371.33,-169.26"/>
<text text-anchor="middle" x="307.03" y="-166.3" font-family="Times,serif" font-size="14.00">route</text>
<text text-anchor="middle" x="405.5" y="-162.8" font-family="Times,serif" font-size="14.00">other_route</text>
</g>
<!-- /router/A_tracker&#45;&gt;/router/B_tracker -->
<g id="edge16" class="edge">
<title>/router/A_tracker:s&#45;&gt;/router/B_tracker:n</title>
<path fill="none" stroke="black" d="M268,-196C268,-174.56 346.28,-181.07 368.3,-167.49"/>
<polygon fill="black" stroke="black" points="371.33,-169.26 374,-159 365.52,-165.35 371.33,-169.26"/>
<text text-anchor="middle" x="343.53" y="-181.3" font-family="Times,serif" font-size="14.00">distance</text>
<text text-anchor="middle" x="334.5" y="-147.8" font-family="Times,serif" font-size="14.00">other_distance</text>
</g>
<!-- /router/print -->
<g id="node7" class="node">
<title>/router/print</title>
<g id="a_node7"><a xlink:href="../../flowr/src/lib/flowruntime/stdio/stdout.html" xlink:title="print\n(stdout)">
<ellipse fill="coral" stroke="black" cx="242" cy="-87" rx="41.94" ry="26.74"/>
<text text-anchor="middle" x="242" y="-90.8" font-family="Times,serif" font-size="14.00">print</text>
<text text-anchor="middle" x="242" y="-75.8" font-family="Times,serif" font-size="14.00">(stdout)</text>
</a>
</g>
</g>
<!-- /router/A_tracker&#45;&gt;/router/print -->
<g id="edge18" class="edge">
<title>/router/A_tracker:s&#45;&gt;/router/print:w</title>
<path fill="none" stroke="black" d="M268,-196C268,-148.61 216.88,-158.15 200,-113.87 197.73,-107.94 194.22,-100.73 193.22,-95.27"/>
<polygon fill="black" stroke="black" points="196.13,-97.2 199,-87 190.4,-93.19 196.13,-97.2"/>
<text text-anchor="middle" x="215.65" y="-151.08" font-family="Times,serif" font-size="14.00">route</text>
</g>
<!-- /router/A_tracker&#45;&gt;/router/print -->
<g id="edge19" class="edge">
<title>/router/A_tracker:s&#45;&gt;/router/print:w</title>
<path fill="none" stroke="black" d="M268,-196C268,-148.61 216.88,-158.15 200,-113.87 197.73,-107.94 194.22,-100.73 193.22,-95.27"/>
<polygon fill="black" stroke="black" points="196.13,-97.2 199,-87 190.4,-93.19 196.13,-97.2"/>
<text text-anchor="middle" x="207.15" y="-136.08" font-family="Times,serif" font-size="14.00">distance</text>
</g>
<!-- /router/B_tracker&#45;&gt;/router/A_tracker -->
<g id="edge15" class="edge">
<title>/router/B_tracker:s&#45;&gt;/router/A_tracker:n</title>
<path fill="none" stroke="black" d="M374,-14C365,-6 431.38,-9.31 437,-15 481.94,-60.57 474.7,-107.28 437,-159 421.6,-180.13 399.36,-158.39 381,-177 327.77,-230.94 391.62,-294.53 331,-340 326.57,-343.32 293.85,-346.35 277.04,-345.26"/>
<polygon fill="black" stroke="black" points="278.53,-342.1 268,-341 275.55,-348.43 278.53,-342.1"/>
<text text-anchor="middle" x="379.58" y="-202.41" font-family="Times,serif" font-size="14.00">route</text>
<text text-anchor="middle" x="299.5" y="-344.8" font-family="Times,serif" font-size="14.00">other_route</text>
</g>
<!-- /router/B_tracker&#45;&gt;/router/A_tracker -->
<g id="edge17" class="edge">
<title>/router/B_tracker:s&#45;&gt;/router/A_tracker:n</title>
<path fill="none" stroke="black" d="M374,-14C383,-6 449.38,-9.31 455,-15 499.94,-60.57 492.7,-107.28 455,-159 439.6,-180.13 417.36,-158.39 399,-177 345.77,-230.94 409.62,-294.53 349,-340 343.75,-343.94 298.66,-347.47 277.66,-344.2"/>
<polygon fill="black" stroke="black" points="278.59,-340.82 268,-341 276.39,-347.47 278.59,-340.82"/>
<text text-anchor="middle" x="404.33" y="-191.36" font-family="Times,serif" font-size="14.00">distance</text>
<text text-anchor="middle" x="228.5" y="-344.8" font-family="Times,serif" font-size="14.00">other_distance</text>
</g>
<!-- /router/B_tracker&#45;&gt;/router/B_tracker -->
<g id="edge11" class="edge">
<title>/router/B_tracker:s&#45;&gt;/router/B_tracker:n</title>
<path fill="none" stroke="black" d="M374,-15C404,-3.75 464,-3.75 464,-87 464,-161.8 415.57,-169.39 383.97,-162.01"/>
<polygon fill="black" stroke="black" points="384.58,-158.53 374,-159 382.56,-165.24 384.58,-158.53"/>
<text text-anchor="middle" x="388" y="-3.8" font-family="Times,serif" font-size="14.00">route</text>
<text text-anchor="middle" x="413" y="-147.8" font-family="Times,serif" font-size="14.00">forward_route</text>
</g>
<!-- /router/B_tracker&#45;&gt;/router/B_tracker -->
<g id="edge13" class="edge">
<title>/router/B_tracker:s&#45;&gt;/router/B_tracker:n</title>
<path fill="none" stroke="black" d="M374,-15C410,7.5 482,7.5 482,-87 482,-174.12 420.81,-180.93 383.04,-163.83"/>
<polygon fill="black" stroke="black" points="384.47,-160.62 374,-159 381.17,-166.8 384.47,-160.62"/>
<text text-anchor="middle" x="351.5" y="-3.8" font-family="Times,serif" font-size="14.00">distance</text>
<text text-anchor="middle" x="327" y="-162.8" font-family="Times,serif" font-size="14.00">forward_distance</text>
</g>
</g>
</svg>
