<?xml version="1.0" encoding="UTF-8" standalone="no"?>
<!DOCTYPE svg PUBLIC "-//W3C//DTD SVG 1.1//EN"
 "http://www.w3.org/Graphics/SVG/1.1/DTD/svg11.dtd">
<!-- Generated by graphviz version 2.43.0 (0)
 -->
<!-- Title: router Pages: 1 -->
<svg width="953pt" height="606pt"
 viewBox="28.80 28.80 924.03 577.54" xmlns="http://www.w3.org/2000/svg" xmlns:xlink="http://www.w3.org/1999/xlink">
<g id="graph0" class="graph" transform="scale(1 1) rotate(0) translate(32.8 573.54)">
<title>router</title>
<polygon fill="white" stroke="transparent" points="-4,4 -4,-544.74 891.23,-544.74 891.23,4 -4,4"/>
<text text-anchor="middle" x="443.61" y="-525.54" font-family="Times,serif" font-size="14.00">router</text>
<!-- /router/readline -->
<g id="node1" class="node">
<title>/router/readline</title>
<g id="a_node1"><a xlink:href="../../flowr/src/lib/flowruntime/stdio/readline.html" xlink:title="readline">
<ellipse fill="coral" stroke="black" cx="48.75" cy="-499.74" rx="48.99" ry="18"/>
<text text-anchor="middle" x="48.75" y="-496.04" font-family="Times,serif" font-size="14.00">readline</text>
</a>
</g>
</g>
<!-- /router/accumulate_triples -->
<g id="node2" class="node">
<title>/router/accumulate_triples</title>
<g id="a_node2"><a xlink:href="../../flowstdlib/data/accumulate/accumulate.html" xlink:title="accumulate_triples\n(accumulate)">
<ellipse fill="coral" stroke="black" cx="303.75" cy="-403.87" rx="107.46" ry="26.74"/>
<text text-anchor="middle" x="303.75" y="-407.67" font-family="Times,serif" font-size="14.00">accumulate_triples</text>
<text text-anchor="middle" x="303.75" y="-392.67" font-family="Times,serif" font-size="14.00">(accumulate)</text>
</a>
</g>
</g>
<!-- /router/readline&#45;&gt;/router/accumulate_triples -->
<g id="edge3" class="edge">
<title>/router/readline:e&#45;&gt;/router/accumulate_triples:w</title>
<path fill="none" stroke="black" d="M98.75,-499.74C107.5,-499.74 101.57,-488.8 106.75,-481.74 135.5,-442.49 141.73,-408.79 184.68,-404.36"/>
<polygon fill="black" stroke="black" points="184.93,-407.86 194.75,-403.87 184.59,-400.86 184.93,-407.86"/>
<text text-anchor="middle" x="117.01" y="-446.1" font-family="Times,serif" font-size="14.00">json</text>
<text text-anchor="middle" x="171.75" y="-407.67" font-family="Times,serif" font-size="14.00">values</text>
</g>
<!-- /router/accumulate_triples&#45;&gt;/router/accumulate_triples -->
<g id="edge4" class="edge">
<title>/router/accumulate_triples:s&#45;&gt;/router/accumulate_triples:n</title>
<path fill="none" stroke="black" d="M303.75,-376.87C345.57,-365.87 429.23,-365.87 429.23,-403.87 429.23,-439.05 357.53,-441.66 313.7,-433.13"/>
<polygon fill="black" stroke="black" points="314.27,-429.67 303.75,-430.87 312.72,-436.5 314.27,-429.67"/>
<text text-anchor="middle" x="279.78" y="-365.66" font-family="Times,serif" font-size="14.00">partial</text>
<text text-anchor="middle" x="279.75" y="-434.67" font-family="Times,serif" font-size="14.00">partial</text>
</g>
<!-- /router/A_tracker -->
<g id="node5" class="node">
<title>/router/A_tracker</title>
<g id="a_node5"><a xlink:href="path_tracker.dot.svg" xlink:title="A_tracker">
<ellipse fill="aquamarine" stroke="black" cx="329.75" cy="-268" rx="72" ry="72"/>
<text text-anchor="middle" x="329.75" y="-264.3" font-family="Times,serif" font-size="14.00">A_tracker</text>
</a>
</g>
</g>
<!-- /router/accumulate_triples&#45;&gt;/router/A_tracker -->
<g id="edge5" class="edge">
<title>/router/accumulate_triples:se&#45;&gt;/router/A_tracker:n</title>
<path fill="none" stroke="black" d="M329.75,-377C338.74,-368.01 333.82,-360.63 331.13,-350.14"/>
<polygon fill="black" stroke="black" points="334.57,-349.44 329.75,-340 327.63,-350.38 334.57,-349.44"/>
<text text-anchor="middle" x="364.94" y="-361.73" font-family="Times,serif" font-size="14.00">chunk[0]</text>
<text text-anchor="middle" x="301.25" y="-343.8" font-family="Times,serif" font-size="14.00">forward</text>
</g>
<!-- /router/accumulate_triples&#45;&gt;/router/A_tracker -->
<g id="edge6" class="edge">
<title>/router/accumulate_triples:se&#45;&gt;/router/A_tracker:n</title>
<path fill="none" stroke="black" d="M329.75,-377C331.82,-367.83 325.02,-360.33 326.48,-349.5"/>
<polygon fill="black" stroke="black" points="329.8,-350.6 329.75,-340 323.18,-348.32 329.8,-350.6"/>
<text text-anchor="middle" x="295.6" y="-363.06" font-family="Times,serif" font-size="14.00">chunk[1]</text>
<text text-anchor="middle" x="349.25" y="-343.8" font-family="Times,serif" font-size="14.00">other</text>
</g>
<!-- /router/accumulate_triples&#45;&gt;/router/A_tracker -->
<g id="edge7" class="edge">
<title>/router/accumulate_triples:se&#45;&gt;/router/A_tracker:n</title>
<path fill="none" stroke="black" d="M329.75,-377C346.34,-367.65 342.06,-360.04 335.06,-348.85"/>
<polygon fill="black" stroke="black" points="337.89,-346.77 329.75,-340 331.89,-350.38 337.89,-346.77"/>
<text text-anchor="middle" x="369.57" y="-357.65" font-family="Times,serif" font-size="14.00">chunk[2]</text>
<text text-anchor="middle" x="310.75" y="-343.8" font-family="Times,serif" font-size="14.00">cross</text>
</g>
<!-- /router/B_tracker -->
<g id="node6" class="node">
<title>/router/B_tracker</title>
<g id="a_node6"><a xlink:href="path_tracker.dot.svg" xlink:title="B_tracker">
<ellipse fill="aquamarine" stroke="black" cx="432.75" cy="-87" rx="72" ry="72"/>
<text text-anchor="middle" x="432.75" y="-83.3" font-family="Times,serif" font-size="14.00">B_tracker</text>
</a>
</g>
</g>
<!-- /router/accumulate_triples&#45;&gt;/router/B_tracker -->
<g id="edge8" class="edge">
<title>/router/accumulate_triples:se&#45;&gt;/router/B_tracker:n</title>
<path fill="none" stroke="black" d="M329.75,-377C368.31,-338.44 413.84,-383.5 446.75,-340 490.47,-282.2 480.38,-243.58 451.75,-177 449.02,-170.66 442.83,-169.6 438.25,-167.36"/>
<polygon fill="black" stroke="black" points="441.17,-165.42 432.75,-159 435.33,-169.28 441.17,-165.42"/>
<text text-anchor="middle" x="421.88" y="-349.15" font-family="Times,serif" font-size="14.00">chunk[1]</text>
<text text-anchor="middle" x="404.25" y="-162.8" font-family="Times,serif" font-size="14.00">forward</text>
</g>
<!-- /router/accumulate_triples&#45;&gt;/router/B_tracker -->
<g id="edge9" class="edge">
<title>/router/accumulate_triples:se&#45;&gt;/router/B_tracker:n</title>
<path fill="none" stroke="black" d="M329.75,-377C367.11,-339.63 411.08,-382.31 442.75,-340 485.91,-282.34 446.63,-250.03 447.75,-178 447.75,-177.56 447.9,-177.42 447.75,-177 445.81,-171.65 441.5,-169.88 438,-167.68"/>
<polygon fill="black" stroke="black" points="440.92,-165.74 432.75,-159 434.93,-169.37 440.92,-165.74"/>
<text text-anchor="middle" x="492.52" y="-268.2" font-family="Times,serif" font-size="14.00">chunk[2]</text>
<text text-anchor="middle" x="451.75" y="-162.8" font-family="Times,serif" font-size="14.00">cross</text>
</g>
<!-- initializer/router/accumulate_triples_1 -->
<!-- initializer/router/accumulate_triples_1&#45;&gt;/router/accumulate_triples -->
<g id="edge1" class="edge">
<title>initializer/router/accumulate_triples_1&#45;&gt;/router/accumulate_triples:n</title>
<path fill="none" stroke="blue" stroke-dasharray="1,5" d="M303.75,-481.7C303.75,-470.63 303.75,-455.62 303.75,-441.13"/>
<polygon fill="blue" stroke="blue" points="307.25,-440.74 303.75,-430.74 300.25,-440.74 307.25,-440.74"/>
<text text-anchor="middle" x="309.25" y="-452.54" font-family="Times,serif" font-size="14.00">[]</text>
</g>
<!-- initializer/router/accumulate_triples_2 -->
<!-- initializer/router/accumulate_triples_2&#45;&gt;/router/accumulate_triples -->
<g id="edge2" class="edge">
<title>initializer/router/accumulate_triples_2&#45;&gt;/router/accumulate_triples:n</title>
<path fill="none" stroke="blue" d="M559.48,-487.61C458.64,-477.82 335.56,-461.68 308.97,-439.52"/>
<polygon fill="blue" stroke="blue" points="311.86,-437.55 303.75,-430.74 305.85,-441.13 311.86,-437.55"/>
<text text-anchor="middle" x="384.75" y="-452.54" font-family="Times,serif" font-size="14.00">3</text>
</g>
<!-- /router/A_tracker&#45;&gt;/router/A_tracker -->
<g id="edge10" class="edge">
<title>/router/A_tracker:s&#45;&gt;/router/A_tracker:n</title>
<path fill="none" stroke="black" d="M329.75,-196C359.75,-184.75 419.75,-184.75 419.75,-268 419.75,-342.8 371.31,-350.39 339.72,-343.01"/>
<polygon fill="black" stroke="black" points="340.33,-339.53 329.75,-340 338.31,-346.24 340.33,-339.53"/>
<text text-anchor="middle" x="349.25" y="-184.8" font-family="Times,serif" font-size="14.00">route</text>
<text text-anchor="middle" x="278.75" y="-328.8" font-family="Times,serif" font-size="14.00">forward_route</text>
</g>
<!-- /router/A_tracker&#45;&gt;/router/A_tracker -->
<g id="edge12" class="edge">
<title>/router/A_tracker:s&#45;&gt;/router/A_tracker:n</title>
<path fill="none" stroke="black" d="M329.75,-196C365.75,-173.5 437.75,-173.5 437.75,-268 437.75,-355.12 376.56,-361.93 338.79,-344.83"/>
<polygon fill="black" stroke="black" points="340.22,-341.62 329.75,-340 336.92,-347.8 340.22,-341.62"/>
<text text-anchor="middle" x="299.25" y="-184.8" font-family="Times,serif" font-size="14.00">distance</text>
<text text-anchor="middle" x="391.75" y="-328.8" font-family="Times,serif" font-size="14.00">forward_distance</text>
</g>
<!-- /router/A_tracker&#45;&gt;/router/B_tracker -->
<g id="edge14" class="edge">
<title>/router/A_tracker:s&#45;&gt;/router/B_tracker:n</title>
<path fill="none" stroke="black" d="M329.75,-196C329.75,-175.1 405.81,-180.76 427.21,-167.33"/>
<polygon fill="black" stroke="black" points="430.12,-169.27 432.75,-159 424.29,-165.39 430.12,-169.27"/>
<text text-anchor="middle" x="400.77" y="-181.3" font-family="Times,serif" font-size="14.00">route</text>
<text text-anchor="middle" x="474.75" y="-162.8" font-family="Times,serif" font-size="14.00">other_route</text>
</g>
<!-- /router/A_tracker&#45;&gt;/router/B_tracker -->
<g id="edge16" class="edge">
<title>/router/A_tracker:s&#45;&gt;/router/B_tracker:n</title>
<path fill="none" stroke="black" d="M329.75,-196C329.75,-175.1 405.81,-180.76 427.21,-167.33"/>
<polygon fill="black" stroke="black" points="430.12,-169.27 432.75,-159 424.29,-165.39 430.12,-169.27"/>
<text text-anchor="middle" x="411.77" y="-181.3" font-family="Times,serif" font-size="14.00">distance</text>
<text text-anchor="middle" x="379.75" y="-162.8" font-family="Times,serif" font-size="14.00">other_distance</text>
</g>
<!-- /router/print -->
<g id="node7" class="node">
<title>/router/print</title>
<g id="a_node7"><a xlink:href="../../flowr/src/lib/flowruntime/stdio/stdout.html" xlink:title="print\n(stdout)">
<ellipse fill="coral" stroke="black" cx="290.75" cy="-87" rx="51.74" ry="26.74"/>
<text text-anchor="middle" x="290.75" y="-90.8" font-family="Times,serif" font-size="14.00">print</text>
<text text-anchor="middle" x="290.75" y="-75.8" font-family="Times,serif" font-size="14.00">(stdout)</text>
</a>
</g>
</g>
<!-- /router/A_tracker&#45;&gt;/router/print -->
<g id="edge18" class="edge">
<title>/router/A_tracker:s&#45;&gt;/router/print:w</title>
<path fill="none" stroke="black" d="M329.75,-196C329.75,-141.52 261.8,-163.24 238.75,-113.87 235.98,-107.95 232.37,-100.47 231.61,-94.91"/>
<polygon fill="black" stroke="black" points="234.38,-97.05 237.75,-87 228.85,-92.76 234.38,-97.05"/>
<text text-anchor="middle" x="261.52" y="-152.33" font-family="Times,serif" font-size="14.00">route</text>
</g>
<!-- /router/A_tracker&#45;&gt;/router/print -->
<g id="edge19" class="edge">
<title>/router/A_tracker:s&#45;&gt;/router/print:w</title>
<path fill="none" stroke="black" d="M329.75,-196C329.75,-141.52 261.8,-163.24 238.75,-113.87 235.98,-107.95 232.37,-100.47 231.61,-94.91"/>
<polygon fill="black" stroke="black" points="234.38,-97.05 237.75,-87 228.85,-92.76 234.38,-97.05"/>
<text text-anchor="middle" x="250.52" y="-137.33" font-family="Times,serif" font-size="14.00">distance</text>
</g>
<!-- /router/B_tracker&#45;&gt;/router/A_tracker -->
<g id="edge15" class="edge">
<title>/router/B_tracker:s&#45;&gt;/router/A_tracker:n</title>
<path fill="none" stroke="black" d="M432.75,-14C423.75,-6 490.13,-9.31 495.75,-15 540.69,-60.57 533.02,-106.98 495.75,-159 481.26,-179.22 460.07,-159.15 442.75,-177 389.97,-231.38 453.37,-294.53 392.75,-340 388.32,-343.32 355.6,-346.35 338.79,-345.26"/>
<polygon fill="black" stroke="black" points="340.28,-342.1 329.75,-341 337.3,-348.43 340.28,-342.1"/>
<text text-anchor="middle" x="446.8" y="-202.87" font-family="Times,serif" font-size="14.00">route</text>
<text text-anchor="middle" x="287.75" y="-344.8" font-family="Times,serif" font-size="14.00">other_route</text>
</g>
<!-- /router/B_tracker&#45;&gt;/router/A_tracker -->
<g id="edge17" class="edge">
<title>/router/B_tracker:s&#45;&gt;/router/A_tracker:n</title>
<path fill="none" stroke="black" d="M432.75,-14C441.75,-6 508.13,-9.31 513.75,-15 558.69,-60.57 551.02,-106.98 513.75,-159 499.26,-179.22 478.07,-159.15 460.75,-177 407.97,-231.38 471.37,-294.53 410.75,-340 405.5,-343.94 360.41,-347.47 339.41,-344.2"/>
<polygon fill="black" stroke="black" points="340.34,-340.82 329.75,-341 338.14,-347.47 340.34,-340.82"/>
<text text-anchor="middle" x="474.23" y="-191.5" font-family="Times,serif" font-size="14.00">distance</text>
<text text-anchor="middle" x="382.75" y="-344.8" font-family="Times,serif" font-size="14.00">other_distance</text>
</g>
<!-- /router/B_tracker&#45;&gt;/router/B_tracker -->
<g id="edge11" class="edge">
<title>/router/B_tracker:s&#45;&gt;/router/B_tracker:n</title>
<path fill="none" stroke="black" d="M432.75,-15C462.75,-3.75 522.75,-3.75 522.75,-87 522.75,-161.8 474.31,-169.39 442.72,-162.01"/>
<polygon fill="black" stroke="black" points="443.33,-158.53 432.75,-159 441.31,-165.24 443.33,-158.53"/>
<text text-anchor="middle" x="452.25" y="-3.8" font-family="Times,serif" font-size="14.00">route</text>
<text text-anchor="middle" x="381.75" y="-147.8" font-family="Times,serif" font-size="14.00">forward_route</text>
</g>
<!-- /router/B_tracker&#45;&gt;/router/B_tracker -->
<g id="edge13" class="edge">
<title>/router/B_tracker:s&#45;&gt;/router/B_tracker:n</title>
<path fill="none" stroke="black" d="M432.75,-15C468.75,7.5 540.75,7.5 540.75,-87 540.75,-174.12 479.56,-180.93 441.79,-163.83"/>
<polygon fill="black" stroke="black" points="443.22,-160.62 432.75,-159 439.92,-166.8 443.22,-160.62"/>
<text text-anchor="middle" x="402.25" y="-3.8" font-family="Times,serif" font-size="14.00">distance</text>
<text text-anchor="middle" x="494.75" y="-147.8" font-family="Times,serif" font-size="14.00">forward_distance</text>
</g>
</g>
</svg>
