<?xml version="1.0" encoding="UTF-8" standalone="no"?>
<!DOCTYPE svg PUBLIC "-//W3C//DTD SVG 1.1//EN"
 "http://www.w3.org/Graphics/SVG/1.1/DTD/svg11.dtd">
<!-- Generated by graphviz version 2.40.1 (20161225.0304)
 -->
<!-- Title: router Pages: 1 -->
<svg width="961pt" height="606pt"
 viewBox="28.80 28.80 931.98 577.54" xmlns="http://www.w3.org/2000/svg" xmlns:xlink="http://www.w3.org/1999/xlink">
<g id="graph0" class="graph" transform="scale(1 1) rotate(0) translate(32.8 573.5422)">
<title>router</title>
<polygon fill="#ffffff" stroke="transparent" points="-4,4 -4,-544.7422 899.1788,-544.7422 899.1788,4 -4,4"/>
<text text-anchor="middle" x="447.5894" y="-525.5422" font-family="Times,serif" font-size="14.00" fill="#000000">router</text>
<!-- /router/readline -->
<g id="node1" class="node">
<title>/router/readline</title>
<g id="a_node1"><a xlink:href="../../flowr/src/lib/flowruntime/stdio/readline.html" xlink:title="readline">
<ellipse fill="#ff7f50" stroke="#000000" cx="48.7457" cy="-499.7422" rx="48.9926" ry="18"/>
<text text-anchor="middle" x="48.7457" y="-496.0422" font-family="Times,serif" font-size="14.00" fill="#000000">readline</text>
</a>
</g>
</g>
<!-- /router/accumulate_triples -->
<g id="node2" class="node">
<title>/router/accumulate_triples</title>
<g id="a_node2"><a xlink:href="../../flowstdlib/data/accumulate/accumulate.html" xlink:title="accumulate_triples\n(accumulate)">
<ellipse fill="#ff7f50" stroke="#000000" cx="305.7457" cy="-403.8721" rx="108.789" ry="26.7407"/>
<text text-anchor="middle" x="305.7457" y="-407.6721" font-family="Times,serif" font-size="14.00" fill="#000000">accumulate_triples</text>
<text text-anchor="middle" x="305.7457" y="-392.6721" font-family="Times,serif" font-size="14.00" fill="#000000">(accumulate)</text>
</a>
</g>
</g>
<!-- /router/readline&#45;&gt;/router/accumulate_triples -->
<g id="edge3" class="edge">
<title>/router/readline:e&#45;&gt;/router/accumulate_triples:w</title>
<path fill="none" stroke="#000000" d="M97.7457,-499.7422C106.6899,-499.7422 101.2576,-488.8048 106.7457,-481.7422 136.9819,-442.8306 143.0858,-408.8346 186.5503,-404.3685"/>
<polygon fill="#000000" stroke="#000000" points="186.9278,-407.8544 196.7457,-403.8721 186.5873,-400.8627 186.9278,-407.8544"/>
<text text-anchor="middle" x="118.0922" y="-446.2609" font-family="Times,serif" font-size="14.00" fill="#000000">json</text>
<text text-anchor="middle" x="173.7457" y="-407.6721" font-family="Times,serif" font-size="14.00" fill="#000000">values</text>
</g>
<!-- /router/accumulate_triples&#45;&gt;/router/accumulate_triples -->
<g id="edge4" class="edge">
<title>/router/accumulate_triples:s&#45;&gt;/router/accumulate_triples:n</title>
<path fill="none" stroke="#000000" d="M305.7457,-376.8721C348.0438,-365.8721 432.6401,-365.8721 432.6401,-403.8721 432.6401,-439.126 359.8288,-441.6737 315.5306,-433.0744"/>
<polygon fill="#000000" stroke="#000000" points="316.2702,-429.6533 305.7457,-430.8721 314.7331,-436.4825 316.2702,-429.6533"/>
<text text-anchor="middle" x="281.7767" y="-365.6641" font-family="Times,serif" font-size="14.00" fill="#000000">partial</text>
<text text-anchor="middle" x="281.7457" y="-434.6721" font-family="Times,serif" font-size="14.00" fill="#000000">partial</text>
</g>
<!-- /router/A_tracker -->
<g id="node5" class="node">
<title>/router/A_tracker</title>
<g id="a_node5"><a xlink:href="path_tracker.dot.svg" xlink:title="A_tracker">
<ellipse fill="#7fffd4" stroke="#000000" cx="331.7457" cy="-268.0021" rx="72" ry="72"/>
<text text-anchor="middle" x="331.7457" y="-264.3021" font-family="Times,serif" font-size="14.00" fill="#000000">A_tracker</text>
</a>
</g>
</g>
<!-- /router/accumulate_triples&#45;&gt;/router/A_tracker -->
<g id="edge5" class="edge">
<title>/router/accumulate_triples:se&#45;&gt;/router/A_tracker:n</title>
<path fill="none" stroke="#000000" d="M331.7457,-377.8721C341.0437,-368.5741 335.8135,-360.9631 333.0804,-350.0525"/>
<polygon fill="#000000" stroke="#000000" points="336.5318,-349.4542 331.7457,-340.0021 329.5927,-350.3758 336.5318,-349.4542"/>
<text text-anchor="middle" x="367.4678" y="-361.9419" font-family="Times,serif" font-size="14.00" fill="#000000">chunk[0]</text>
<text text-anchor="middle" x="303.2457" y="-343.8021" font-family="Times,serif" font-size="14.00" fill="#000000">forward</text>
</g>
<!-- /router/accumulate_triples&#45;&gt;/router/A_tracker -->
<g id="edge6" class="edge">
<title>/router/accumulate_triples:se&#45;&gt;/router/A_tracker:n</title>
<path fill="none" stroke="#000000" d="M331.7457,-377.8721C334.0351,-368.4812 327.1079,-360.8111 328.5053,-349.7242"/>
<polygon fill="#000000" stroke="#000000" points="331.904,-350.5957 331.7457,-340.0021 325.2632,-348.3823 331.904,-350.5957"/>
<text text-anchor="middle" x="297.1989" y="-363.5157" font-family="Times,serif" font-size="14.00" fill="#000000">chunk[1]</text>
<text text-anchor="middle" x="351.2457" y="-343.8021" font-family="Times,serif" font-size="14.00" fill="#000000">other</text>
</g>
<!-- /router/accumulate_triples&#45;&gt;/router/A_tracker -->
<g id="edge7" class="edge">
<title>/router/accumulate_triples:se&#45;&gt;/router/A_tracker:n</title>
<path fill="none" stroke="#000000" d="M331.7457,-377.8721C348.7281,-368.2022 344.0555,-360.3569 336.8788,-348.7271"/>
<polygon fill="#000000" stroke="#000000" points="339.8332,-346.8463 331.7457,-340.0021 333.7999,-350.3959 339.8332,-346.8463"/>
<text text-anchor="middle" x="372.2601" y="-358.2168" font-family="Times,serif" font-size="14.00" fill="#000000">chunk[2]</text>
<text text-anchor="middle" x="312.2457" y="-343.8021" font-family="Times,serif" font-size="14.00" fill="#000000">cross</text>
</g>
<!-- /router/B_tracker -->
<g id="node6" class="node">
<title>/router/B_tracker</title>
<g id="a_node6"><a xlink:href="path_tracker.dot.svg" xlink:title="B_tracker">
<ellipse fill="#7fffd4" stroke="#000000" cx="434.7457" cy="-87.0021" rx="72" ry="72"/>
<text text-anchor="middle" x="434.7457" y="-83.3021" font-family="Times,serif" font-size="14.00" fill="#000000">B_tracker</text>
</a>
</g>
</g>
<!-- /router/accumulate_triples&#45;&gt;/router/B_tracker -->
<g id="edge8" class="edge">
<title>/router/accumulate_triples:se&#45;&gt;/router/B_tracker:n</title>
<path fill="none" stroke="#000000" d="M331.7457,-377.8721C370.3934,-339.2244 415.9167,-383.7004 448.7457,-340.0021 492.2796,-282.0544 482.3841,-243.5827 453.7457,-177.0021 451.0167,-170.6575 444.8301,-169.6022 440.2539,-167.357"/>
<polygon fill="#000000" stroke="#000000" points="443.1721,-165.4244 434.7457,-159.0021 437.3278,-169.2774 443.1721,-165.4244"/>
<text text-anchor="middle" x="424.4426" y="-349.6317" font-family="Times,serif" font-size="14.00" fill="#000000">chunk[1]</text>
<text text-anchor="middle" x="406.2457" y="-162.8021" font-family="Times,serif" font-size="14.00" fill="#000000">forward</text>
</g>
<!-- /router/accumulate_triples&#45;&gt;/router/B_tracker -->
<g id="edge9" class="edge">
<title>/router/accumulate_triples:se&#45;&gt;/router/B_tracker:n</title>
<path fill="none" stroke="#000000" d="M331.7457,-377.8721C369.1994,-340.4184 413.1502,-382.5143 444.7457,-340.0021 487.7145,-282.1867 448.6344,-250.0278 449.7457,-178.0021 449.7525,-177.5577 449.897,-177.42 449.7457,-177.0021 447.807,-171.6472 443.5026,-169.8804 439.9999,-167.6754"/>
<polygon fill="#000000" stroke="#000000" points="442.9206,-165.7416 434.7457,-159.0021 436.9335,-169.3686 442.9206,-165.7416"/>
<text text-anchor="middle" x="494.9454" y="-268.1487" font-family="Times,serif" font-size="14.00" fill="#000000">chunk[2]</text>
<text text-anchor="middle" x="454.2457" y="-162.8021" font-family="Times,serif" font-size="14.00" fill="#000000">cross</text>
</g>
<!-- initializer/router/accumulate_triples_1 -->
<!-- initializer/router/accumulate_triples_1&#45;&gt;/router/accumulate_triples -->
<g id="edge1" class="edge">
<title>initializer/router/accumulate_triples_1&#45;&gt;/router/accumulate_triples:n</title>
<path fill="none" stroke="#0000ff" stroke-dasharray="1,5" d="M305.7457,-481.5825C305.7457,-470.3856 305.7457,-455.4583 305.7457,-441.0662"/>
<polygon fill="#0000ff" stroke="#0000ff" points="309.2458,-440.7421 305.7457,-430.7422 302.2458,-440.7422 309.2458,-440.7421"/>
<text text-anchor="middle" x="311.2457" y="-452.5422" font-family="Times,serif" font-size="14.00" fill="#000000">[]</text>
</g>
<!-- initializer/router/accumulate_triples_2 -->
<!-- initializer/router/accumulate_triples_2&#45;&gt;/router/accumulate_triples -->
<g id="edge2" class="edge">
<title>initializer/router/accumulate_triples_2&#45;&gt;/router/accumulate_triples:n</title>
<path fill="none" stroke="#0000ff" d="M589.8736,-485.3515C487.6561,-471.8554 349.0538,-451.6197 314.0407,-437.0129"/>
<polygon fill="#0000ff" stroke="#0000ff" points="315.8335,-433.9806 305.7457,-430.7422 311.6121,-439.5646 315.8335,-433.9806"/>
<text text-anchor="middle" x="440.7457" y="-452.5422" font-family="Times,serif" font-size="14.00" fill="#000000">3</text>
</g>
<!-- /router/A_tracker&#45;&gt;/router/A_tracker -->
<g id="edge10" class="edge">
<title>/router/A_tracker:s&#45;&gt;/router/A_tracker:n</title>
<path fill="none" stroke="#000000" d="M331.7457,-196.0021C361.7457,-184.7521 421.7457,-184.7521 421.7457,-268.0021 421.7457,-342.797 373.3143,-350.3933 341.7204,-343.0062"/>
<polygon fill="#000000" stroke="#000000" points="342.3302,-339.5347 331.7457,-340.0021 340.3115,-346.2373 342.3302,-339.5347"/>
<text text-anchor="middle" x="351.2512" y="-184.8" font-family="Times,serif" font-size="14.00" fill="#000000">route</text>
<text text-anchor="middle" x="280.2457" y="-328.8021" font-family="Times,serif" font-size="14.00" fill="#000000">forward_route</text>
</g>
<!-- /router/A_tracker&#45;&gt;/router/A_tracker -->
<g id="edge12" class="edge">
<title>/router/A_tracker:s&#45;&gt;/router/A_tracker:n</title>
<path fill="none" stroke="#000000" d="M331.7457,-196.0021C367.7457,-173.5021 439.7457,-173.5021 439.7457,-268.0021 439.7457,-355.1192 378.5562,-361.9253 340.7909,-344.8292"/>
<polygon fill="#000000" stroke="#000000" points="342.2159,-341.6225 331.7457,-340.0021 338.9201,-347.7981 342.2159,-341.6225"/>
<text text-anchor="middle" x="301.249" y="-184.8" font-family="Times,serif" font-size="14.00" fill="#000000">distance</text>
<text text-anchor="middle" x="394.2457" y="-328.8021" font-family="Times,serif" font-size="14.00" fill="#000000">forward_distance</text>
</g>
<!-- /router/A_tracker&#45;&gt;/router/B_tracker -->
<g id="edge14" class="edge">
<title>/router/A_tracker:s&#45;&gt;/router/B_tracker:n</title>
<path fill="none" stroke="#000000" d="M331.7457,-196.0021C331.7457,-175.1013 407.8138,-180.7599 429.2079,-167.3289"/>
<polygon fill="#000000" stroke="#000000" points="432.1224,-169.267 434.7457,-159.0021 426.2936,-165.3906 432.1224,-169.267"/>
<text text-anchor="middle" x="402.774" y="-181.2986" font-family="Times,serif" font-size="14.00" fill="#000000">route</text>
<text text-anchor="middle" x="477.2457" y="-162.8021" font-family="Times,serif" font-size="14.00" fill="#000000">other_route</text>
</g>
<!-- /router/A_tracker&#45;&gt;/router/B_tracker -->
<g id="edge16" class="edge">
<title>/router/A_tracker:s&#45;&gt;/router/B_tracker:n</title>
<path fill="none" stroke="#000000" d="M331.7457,-196.0021C331.7457,-175.1013 407.8138,-180.7599 429.2079,-167.3289"/>
<polygon fill="#000000" stroke="#000000" points="432.1224,-169.267 434.7457,-159.0021 426.2936,-165.3906 432.1224,-169.267"/>
<text text-anchor="middle" x="413.774" y="-181.2986" font-family="Times,serif" font-size="14.00" fill="#000000">distance</text>
<text text-anchor="middle" x="381.2457" y="-162.8021" font-family="Times,serif" font-size="14.00" fill="#000000">other_distance</text>
</g>
<!-- /router/print -->
<g id="node7" class="node">
<title>/router/print</title>
<g id="a_node7"><a xlink:href="../../flowr/src/lib/flowruntime/stdio/stdout.html" xlink:title="print\n(stdout)">
<ellipse fill="#ff7f50" stroke="#000000" cx="292.7457" cy="-87.0021" rx="51.7379" ry="26.7407"/>
<text text-anchor="middle" x="292.7457" y="-90.8021" font-family="Times,serif" font-size="14.00" fill="#000000">print</text>
<text text-anchor="middle" x="292.7457" y="-75.8021" font-family="Times,serif" font-size="14.00" fill="#000000">(stdout)</text>
</a>
</g>
</g>
<!-- /router/A_tracker&#45;&gt;/router/print -->
<g id="edge18" class="edge">
<title>/router/A_tracker:s&#45;&gt;/router/print:w</title>
<path fill="none" stroke="#000000" d="M331.7457,-196.0021C331.7457,-141.5212 262.8759,-163.6558 240.7457,-113.8721 238.0928,-107.9043 234.7699,-100.4277 234.2565,-94.8773"/>
<polygon fill="#000000" stroke="#000000" points="237.0875,-96.9453 240.7457,-87.0021 231.6853,-92.4939 237.0875,-96.9453"/>
<text text-anchor="middle" x="264.0879" y="-152.8822" font-family="Times,serif" font-size="14.00" fill="#000000">route</text>
</g>
<!-- /router/A_tracker&#45;&gt;/router/print -->
<g id="edge19" class="edge">
<title>/router/A_tracker:s&#45;&gt;/router/print:w</title>
<path fill="none" stroke="#000000" d="M331.7457,-196.0021C331.7457,-141.5212 262.8759,-163.6558 240.7457,-113.8721 238.0928,-107.9043 234.7699,-100.4277 234.2565,-94.8773"/>
<polygon fill="#000000" stroke="#000000" points="237.0875,-96.9453 240.7457,-87.0021 231.6853,-92.4939 237.0875,-96.9453"/>
<text text-anchor="middle" x="253.0879" y="-137.8822" font-family="Times,serif" font-size="14.00" fill="#000000">distance</text>
</g>
<!-- /router/B_tracker&#45;&gt;/router/A_tracker -->
<g id="edge15" class="edge">
<title>/router/B_tracker:s&#45;&gt;/router/A_tracker:n</title>
<path fill="none" stroke="#000000" d="M434.7457,-15.0021C425.7457,-15.0021 497.7457,-159.0021 497.7457,-159.0021 483.2569,-179.2243 462.0726,-159.1516 444.7457,-177.0021 391.9671,-231.3753 455.6798,-294.957 394.7457,-340.0021 390.2978,-343.2901 357.5814,-345.8557 340.7876,-344.4819"/>
<polygon fill="#000000" stroke="#000000" points="342.26,-341.3055 331.7457,-340.0021 339.1523,-347.5778 342.26,-341.3055"/>
<text text-anchor="middle" x="448.9701" y="-202.5587" font-family="Times,serif" font-size="14.00" fill="#000000">route</text>
<text text-anchor="middle" x="289.2457" y="-343.8021" font-family="Times,serif" font-size="14.00" fill="#000000">other_route</text>
</g>
<!-- /router/B_tracker&#45;&gt;/router/A_tracker -->
<g id="edge17" class="edge">
<title>/router/B_tracker:s&#45;&gt;/router/A_tracker:n</title>
<path fill="none" stroke="#000000" d="M434.7457,-15.0021C443.7457,-15.0021 515.7457,-159.0021 515.7457,-159.0021 501.2569,-179.2243 480.0726,-159.1516 462.7457,-177.0021 409.9671,-231.3753 473.6798,-294.957 412.7457,-340.0021 407.4685,-343.9031 362.3995,-346.7873 341.4052,-343.2819"/>
<polygon fill="#000000" stroke="#000000" points="342.3401,-339.9031 331.7457,-340.0021 340.0894,-346.5314 342.3401,-339.9031"/>
<text text-anchor="middle" x="476.2493" y="-191.5267" font-family="Times,serif" font-size="14.00" fill="#000000">distance</text>
<text text-anchor="middle" x="385.2457" y="-343.8021" font-family="Times,serif" font-size="14.00" fill="#000000">other_distance</text>
</g>
<!-- /router/B_tracker&#45;&gt;/router/B_tracker -->
<g id="edge11" class="edge">
<title>/router/B_tracker:s&#45;&gt;/router/B_tracker:n</title>
<path fill="none" stroke="#000000" d="M434.7457,-15.0021C464.7457,-3.7521 524.7457,-3.7521 524.7457,-87.0021 524.7457,-161.797 476.3143,-169.3933 444.7204,-162.0062"/>
<polygon fill="#000000" stroke="#000000" points="445.3302,-158.5347 434.7457,-159.0021 443.3115,-165.2373 445.3302,-158.5347"/>
<text text-anchor="middle" x="454.2512" y="-3.8" font-family="Times,serif" font-size="14.00" fill="#000000">route</text>
<text text-anchor="middle" x="383.2457" y="-147.8021" font-family="Times,serif" font-size="14.00" fill="#000000">forward_route</text>
</g>
<!-- /router/B_tracker&#45;&gt;/router/B_tracker -->
<g id="edge13" class="edge">
<title>/router/B_tracker:s&#45;&gt;/router/B_tracker:n</title>
<path fill="none" stroke="#000000" d="M434.7457,-15.0021C470.7457,7.4979 542.7457,7.4979 542.7457,-87.0021 542.7457,-174.1192 481.5562,-180.9253 443.7909,-163.8292"/>
<polygon fill="#000000" stroke="#000000" points="445.2159,-160.6225 434.7457,-159.0021 441.9201,-166.7981 445.2159,-160.6225"/>
<text text-anchor="middle" x="404.249" y="-3.8" font-family="Times,serif" font-size="14.00" fill="#000000">distance</text>
<text text-anchor="middle" x="497.2457" y="-147.8021" font-family="Times,serif" font-size="14.00" fill="#000000">forward_distance</text>
</g>
</g>
</svg>
