<?xml version="1.0" encoding="UTF-8" standalone="no"?>
<!DOCTYPE svg PUBLIC "-//W3C//DTD SVG 1.1//EN"
 "http://www.w3.org/Graphics/SVG/1.1/DTD/svg11.dtd">
<!-- Generated by graphviz version 2.44.0 (20200408.0750)
 -->
<!-- Title: router Pages: 1 -->
<svg width="911pt" height="715pt"
 viewBox="28.80 28.80 881.71 686.02" xmlns="http://www.w3.org/2000/svg" xmlns:xlink="http://www.w3.org/1999/xlink">
<g id="graph0" class="graph" transform="scale(1 1) rotate(0) translate(32.8 682.02)">
<title>router</title>
<polygon fill="white" stroke="transparent" points="-4,4 -4,-653.22 848.91,-653.22 848.91,4 -4,4"/>
<text text-anchor="middle" x="422.46" y="-634.02" font-family="Times,serif" font-size="14.00">router</text>
<!-- /router/readline -->
<g id="node1" class="node">
<title>/router/readline</title>
<g id="a_node1"><a xlink:href="../../flowruntime/stdio/readline.html" xlink:title="readline\n(Readline)">
<ellipse fill="coral" stroke="black" cx="52.33" cy="-599.35" rx="52.15" ry="26.74"/>
<text text-anchor="middle" x="52.33" y="-603.15" font-family="Times,serif" font-size="14.00">readline</text>
<text text-anchor="middle" x="52.33" y="-588.15" font-family="Times,serif" font-size="14.00">(Readline)</text>
</a>
</g>
</g>
<!-- /router/to_number -->
<g id="node2" class="node">
<title>/router/to_number</title>
<g id="a_node2"><a xlink:href="../../flowstdlib/fmt/to_number/to_number.html" xlink:title="to_number\n(ToNumber)">
<ellipse fill="coral" stroke="black" cx="166.33" cy="-508.61" rx="60.62" ry="26.74"/>
<text text-anchor="middle" x="166.33" y="-512.41" font-family="Times,serif" font-size="14.00">to_number</text>
<text text-anchor="middle" x="166.33" y="-497.41" font-family="Times,serif" font-size="14.00">(ToNumber)</text>
</a>
</g>
</g>
<!-- /router/readline&#45;&gt;/router/to_number -->
<g id="edge3" class="edge">
<title>/router/readline:e&#45;&gt;/router/to_number:w</title>
<path fill="none" stroke="black" d="M106.33,-599.35C141.94,-599.35 81.68,-528.63 94.82,-512.06"/>
<polygon fill="black" stroke="black" points="96.12,-515.31 104.33,-508.61 93.73,-508.73 96.12,-515.31"/>
</g>
<!-- /router/accumulate_triples -->
<g id="node3" class="node">
<title>/router/accumulate_triples</title>
<g id="a_node3"><a xlink:href="../../flowstdlib/data/accumulate/accumulate.html" xlink:title="accumulate_triples\n(Accumulate)">
<ellipse fill="coral" stroke="black" cx="390.33" cy="-403.87" rx="84.29" ry="26.74"/>
<text text-anchor="middle" x="390.33" y="-407.67" font-family="Times,serif" font-size="14.00">accumulate_triples</text>
<text text-anchor="middle" x="390.33" y="-392.67" font-family="Times,serif" font-size="14.00">(Accumulate)</text>
</a>
</g>
</g>
<!-- /router/to_number&#45;&gt;/router/accumulate_triples -->
<g id="edge4" class="edge">
<title>/router/to_number:e&#45;&gt;/router/accumulate_triples:w</title>
<path fill="none" stroke="black" d="M228.33,-508.61C240.67,-508.61 229.48,-492.61 235.33,-481.74 255.65,-443.96 258.44,-409.66 295.21,-404.53"/>
<polygon fill="black" stroke="black" points="295.58,-408.02 305.33,-403.87 295.12,-401.03 295.58,-408.02"/>
<text text-anchor="middle" x="287.83" y="-407.67" font-family="Times,serif" font-size="14.00">values</text>
</g>
<!-- /router/accumulate_triples&#45;&gt;/router/accumulate_triples -->
<g id="edge5" class="edge">
<title>/router/accumulate_triples:s&#45;&gt;/router/accumulate_triples:n</title>
<path fill="none" stroke="black" d="M390.33,-376.87C424.37,-365.87 492.47,-365.87 492.47,-403.87 492.47,-438.46 436.06,-441.57 400.25,-433.55"/>
<polygon fill="black" stroke="black" points="400.89,-430.1 390.33,-430.87 399.07,-436.86 400.89,-430.1"/>
<text text-anchor="middle" x="372.85" y="-365.66" font-family="Times,serif" font-size="14.00">partial</text>
<text text-anchor="middle" x="372.83" y="-434.67" font-family="Times,serif" font-size="14.00">partial</text>
</g>
<!-- /router/A_tracker -->
<g id="node6" class="node">
<title>/router/A_tracker</title>
<g id="a_node6"><a xlink:href="path_tracker.dot.svg" xlink:title="A_tracker">
<ellipse fill="aquamarine" stroke="black" cx="416.33" cy="-268" rx="72" ry="72"/>
<text text-anchor="middle" x="416.33" y="-264.3" font-family="Times,serif" font-size="14.00">A_tracker</text>
</a>
</g>
</g>
<!-- /router/accumulate_triples&#45;&gt;/router/A_tracker -->
<g id="edge6" class="edge">
<title>/router/accumulate_triples:se&#45;&gt;/router/A_tracker:n</title>
<path fill="none" stroke="black" d="M416.33,-377C425.32,-368.01 420.4,-360.63 417.71,-350.14"/>
<polygon fill="black" stroke="black" points="421.15,-349.44 416.33,-340 414.21,-350.38 421.15,-349.44"/>
<text text-anchor="middle" x="444.52" y="-361.73" font-family="Times,serif" font-size="14.00">chunk[0]</text>
<text text-anchor="middle" x="394.83" y="-343.8" font-family="Times,serif" font-size="14.00">forward</text>
</g>
<!-- /router/accumulate_triples&#45;&gt;/router/A_tracker -->
<g id="edge7" class="edge">
<title>/router/accumulate_triples:se&#45;&gt;/router/A_tracker:n</title>
<path fill="none" stroke="black" d="M416.33,-377C418.4,-367.83 411.6,-360.33 413.06,-349.5"/>
<polygon fill="black" stroke="black" points="416.38,-350.6 416.33,-340 409.76,-348.32 416.38,-350.6"/>
<text text-anchor="middle" x="389.18" y="-363.06" font-family="Times,serif" font-size="14.00">chunk[1]</text>
<text text-anchor="middle" x="430.33" y="-343.8" font-family="Times,serif" font-size="14.00">other</text>
</g>
<!-- /router/accumulate_triples&#45;&gt;/router/A_tracker -->
<g id="edge8" class="edge">
<title>/router/accumulate_triples:se&#45;&gt;/router/A_tracker:n</title>
<path fill="none" stroke="black" d="M416.33,-377C432.92,-367.65 428.64,-360.04 421.64,-348.85"/>
<polygon fill="black" stroke="black" points="424.47,-346.77 416.33,-340 418.47,-350.38 424.47,-346.77"/>
<text text-anchor="middle" x="449.15" y="-342.65" font-family="Times,serif" font-size="14.00">chunk[2]</text>
<text text-anchor="middle" x="402.33" y="-343.8" font-family="Times,serif" font-size="14.00">cross</text>
</g>
<!-- /router/B_tracker -->
<g id="node7" class="node">
<title>/router/B_tracker</title>
<g id="a_node7"><a xlink:href="path_tracker.dot.svg" xlink:title="B_tracker">
<ellipse fill="aquamarine" stroke="black" cx="521.33" cy="-87" rx="72" ry="72"/>
<text text-anchor="middle" x="521.33" y="-83.3" font-family="Times,serif" font-size="14.00">B_tracker</text>
</a>
</g>
</g>
<!-- /router/accumulate_triples&#45;&gt;/router/B_tracker -->
<g id="edge9" class="edge">
<title>/router/accumulate_triples:se&#45;&gt;/router/B_tracker:n</title>
<path fill="none" stroke="black" d="M416.33,-377C454.89,-338.44 500.42,-383.5 533.33,-340 577.06,-282.2 565.1,-244.35 538.33,-177 536.04,-171.25 530.95,-169.76 526.93,-167.59"/>
<polygon fill="black" stroke="black" points="529.72,-165.47 521.33,-159 523.86,-169.29 529.72,-165.47"/>
<text text-anchor="middle" x="501.46" y="-364.15" font-family="Times,serif" font-size="14.00">chunk[1]</text>
<text text-anchor="middle" x="499.83" y="-162.8" font-family="Times,serif" font-size="14.00">forward</text>
</g>
<!-- /router/accumulate_triples&#45;&gt;/router/B_tracker -->
<g id="edge10" class="edge">
<title>/router/accumulate_triples:se&#45;&gt;/router/B_tracker:n</title>
<path fill="none" stroke="black" d="M416.33,-377C453.69,-339.63 497.66,-382.31 529.33,-340 572.5,-282.34 533.21,-250.03 534.33,-178 534.33,-177.56 534.46,-177.42 534.33,-177 532.71,-172.01 529.14,-170.03 526.15,-167.79"/>
<polygon fill="black" stroke="black" points="529.21,-166.08 521.33,-159 523.07,-169.45 529.21,-166.08"/>
<text text-anchor="middle" x="523.1" y="-268.2" font-family="Times,serif" font-size="14.00">chunk[2]</text>
<text text-anchor="middle" x="535.33" y="-162.8" font-family="Times,serif" font-size="14.00">cross</text>
</g>
<!-- initializer/router/accumulate_triples_1 -->
<!-- initializer/router/accumulate_triples_1&#45;&gt;/router/accumulate_triples -->
<g id="edge1" class="edge">
<title>initializer/router/accumulate_triples_1&#45;&gt;/router/accumulate_triples:n</title>
<path fill="none" stroke="blue" stroke-dasharray="1,5" d="M390.33,-490.51C390.33,-477.49 390.33,-458.83 390.33,-441.06"/>
<polygon fill="blue" stroke="blue" points="393.83,-440.74 390.33,-430.74 386.83,-440.74 393.83,-440.74"/>
<text text-anchor="middle" x="395.33" y="-452.54" font-family="Times,serif" font-size="14.00">[]</text>
</g>
<!-- initializer/router/accumulate_triples_2 -->
<!-- initializer/router/accumulate_triples_2&#45;&gt;/router/accumulate_triples -->
<g id="edge2" class="edge">
<title>initializer/router/accumulate_triples_2&#45;&gt;/router/accumulate_triples:n</title>
<path fill="none" stroke="blue" d="M626.1,-493.03C547.57,-476.95 429.89,-451.44 398.34,-436.9"/>
<polygon fill="blue" stroke="blue" points="400.39,-434.06 390.33,-430.74 396.12,-439.61 400.39,-434.06"/>
<text text-anchor="middle" x="493.83" y="-452.54" font-family="Times,serif" font-size="14.00">3</text>
</g>
<!-- /router/A_tracker&#45;&gt;/router/A_tracker -->
<g id="edge11" class="edge">
<title>/router/A_tracker:s&#45;&gt;/router/A_tracker:n</title>
<path fill="none" stroke="black" d="M416.33,-196C446.33,-184.75 506.33,-184.75 506.33,-268 506.33,-342.8 457.89,-350.39 426.3,-343.01"/>
<polygon fill="black" stroke="black" points="426.91,-339.53 416.33,-340 424.89,-346.24 426.91,-339.53"/>
<text text-anchor="middle" x="430.33" y="-184.8" font-family="Times,serif" font-size="14.00">route</text>
<text text-anchor="middle" x="377.33" y="-328.8" font-family="Times,serif" font-size="14.00">forward_route</text>
</g>
<!-- /router/A_tracker&#45;&gt;/router/A_tracker -->
<g id="edge13" class="edge">
<title>/router/A_tracker:s&#45;&gt;/router/A_tracker:n</title>
<path fill="none" stroke="black" d="M416.33,-196C452.33,-173.5 524.33,-173.5 524.33,-268 524.33,-355.12 463.14,-361.93 425.37,-344.83"/>
<polygon fill="black" stroke="black" points="426.8,-341.62 416.33,-340 423.5,-347.8 426.8,-341.62"/>
<text text-anchor="middle" x="393.83" y="-184.8" font-family="Times,serif" font-size="14.00">distance</text>
<text text-anchor="middle" x="463.33" y="-343.8" font-family="Times,serif" font-size="14.00">forward_distance</text>
</g>
<!-- /router/A_tracker&#45;&gt;/router/B_tracker -->
<g id="edge15" class="edge">
<title>/router/A_tracker:s&#45;&gt;/router/B_tracker:n</title>
<path fill="none" stroke="black" d="M416.33,-196C416.33,-174.74 493.87,-180.97 515.68,-167.44"/>
<polygon fill="black" stroke="black" points="518.67,-169.26 521.33,-159 512.86,-165.37 518.67,-169.26"/>
<text text-anchor="middle" x="454.85" y="-166.3" font-family="Times,serif" font-size="14.00">route</text>
<text text-anchor="middle" x="552.83" y="-162.8" font-family="Times,serif" font-size="14.00">other_route</text>
</g>
<!-- /router/A_tracker&#45;&gt;/router/B_tracker -->
<g id="edge17" class="edge">
<title>/router/A_tracker:s&#45;&gt;/router/B_tracker:n</title>
<path fill="none" stroke="black" d="M416.33,-196C416.33,-174.74 493.87,-180.97 515.68,-167.44"/>
<polygon fill="black" stroke="black" points="518.67,-169.26 521.33,-159 512.86,-165.37 518.67,-169.26"/>
<text text-anchor="middle" x="491.35" y="-181.3" font-family="Times,serif" font-size="14.00">distance</text>
<text text-anchor="middle" x="481.83" y="-147.8" font-family="Times,serif" font-size="14.00">other_distance</text>
</g>
<!-- /router/print -->
<g id="node8" class="node">
<title>/router/print</title>
<g id="a_node8"><a xlink:href="../../flowruntime/stdio/stdout.html" xlink:title="print\n(Stdout)">
<ellipse fill="coral" stroke="black" cx="388.33" cy="-87" rx="43.27" ry="26.74"/>
<text text-anchor="middle" x="388.33" y="-90.8" font-family="Times,serif" font-size="14.00">print</text>
<text text-anchor="middle" x="388.33" y="-75.8" font-family="Times,serif" font-size="14.00">(Stdout)</text>
</a>
</g>
</g>
<!-- /router/A_tracker&#45;&gt;/router/print -->
<g id="edge19" class="edge">
<title>/router/A_tracker:s&#45;&gt;/router/print:w</title>
<path fill="none" stroke="black" d="M416.33,-196C416.33,-147.46 362.26,-158.98 344.33,-113.87 341.98,-107.97 338.47,-100.76 337.49,-95.29"/>
<polygon fill="black" stroke="black" points="340.43,-97.19 343.33,-87 334.71,-93.16 340.43,-97.19"/>
<text text-anchor="middle" x="362.13" y="-151.35" font-family="Times,serif" font-size="14.00">route</text>
</g>
<!-- /router/A_tracker&#45;&gt;/router/print -->
<g id="edge20" class="edge">
<title>/router/A_tracker:s&#45;&gt;/router/print:w</title>
<path fill="none" stroke="black" d="M416.33,-196C416.33,-147.46 362.26,-158.98 344.33,-113.87 341.98,-107.97 338.47,-100.76 337.49,-95.29"/>
<polygon fill="black" stroke="black" points="340.43,-97.19 343.33,-87 334.71,-93.16 340.43,-97.19"/>
<text text-anchor="middle" x="353.63" y="-136.35" font-family="Times,serif" font-size="14.00">distance</text>
</g>
<!-- /router/B_tracker&#45;&gt;/router/A_tracker -->
<g id="edge16" class="edge">
<title>/router/B_tracker:s&#45;&gt;/router/A_tracker:n</title>
<path fill="none" stroke="black" d="M521.33,-14C512.33,-6 578.71,-9.31 584.33,-15 629.27,-60.57 621.89,-107.18 584.33,-159 569.23,-179.83 547.34,-158.65 529.33,-177 476.25,-231.08 539.95,-294.53 479.33,-340 474.9,-343.32 442.18,-346.35 425.37,-345.26"/>
<polygon fill="black" stroke="black" points="426.86,-342.1 416.33,-341 423.88,-348.43 426.86,-342.1"/>
<text text-anchor="middle" x="527.95" y="-187.45" font-family="Times,serif" font-size="14.00">route</text>
<text text-anchor="middle" x="384.83" y="-344.8" font-family="Times,serif" font-size="14.00">other_route</text>
</g>
<!-- /router/B_tracker&#45;&gt;/router/A_tracker -->
<g id="edge18" class="edge">
<title>/router/B_tracker:s&#45;&gt;/router/A_tracker:n</title>
<path fill="none" stroke="black" d="M521.33,-14C530.33,-6 596.71,-9.31 602.33,-15 647.27,-60.57 639.89,-107.18 602.33,-159 587.23,-179.83 565.34,-158.65 547.33,-177 494.25,-231.08 557.95,-294.53 497.33,-340 492.08,-343.94 446.99,-347.47 425.99,-344.2"/>
<polygon fill="black" stroke="black" points="426.92,-340.82 416.33,-341 424.72,-347.47 426.92,-340.82"/>
<text text-anchor="middle" x="552.71" y="-206.4" font-family="Times,serif" font-size="14.00">distance</text>
<text text-anchor="middle" x="455.83" y="-344.8" font-family="Times,serif" font-size="14.00">other_distance</text>
</g>
<!-- /router/B_tracker&#45;&gt;/router/B_tracker -->
<g id="edge12" class="edge">
<title>/router/B_tracker:s&#45;&gt;/router/B_tracker:n</title>
<path fill="none" stroke="black" d="M521.33,-15C551.33,-3.75 611.33,-3.75 611.33,-87 611.33,-161.8 562.89,-169.39 531.3,-162.01"/>
<polygon fill="black" stroke="black" points="531.91,-158.53 521.33,-159 529.89,-165.24 531.91,-158.53"/>
<text text-anchor="middle" x="535.33" y="-3.8" font-family="Times,serif" font-size="14.00">route</text>
<text text-anchor="middle" x="560.33" y="-147.8" font-family="Times,serif" font-size="14.00">forward_route</text>
</g>
<!-- /router/B_tracker&#45;&gt;/router/B_tracker -->
<g id="edge14" class="edge">
<title>/router/B_tracker:s&#45;&gt;/router/B_tracker:n</title>
<path fill="none" stroke="black" d="M521.33,-15C557.33,7.5 629.33,7.5 629.33,-87 629.33,-174.12 568.14,-180.93 530.37,-163.83"/>
<polygon fill="black" stroke="black" points="531.8,-160.62 521.33,-159 528.5,-166.8 531.8,-160.62"/>
<text text-anchor="middle" x="498.83" y="-3.8" font-family="Times,serif" font-size="14.00">distance</text>
<text text-anchor="middle" x="474.33" y="-162.8" font-family="Times,serif" font-size="14.00">forward_distance</text>
</g>
</g>
</svg>
