<?xml version="1.0" encoding="UTF-8" standalone="no"?>
<!DOCTYPE svg PUBLIC "-//W3C//DTD SVG 1.1//EN"
 "http://www.w3.org/Graphics/SVG/1.1/DTD/svg11.dtd">
<!-- Generated by graphviz version 2.40.1 (0)
 -->
<!-- Title: router Pages: 1 -->
<svg width="302pt" height="211pt"
 viewBox="0.00 0.00 302.34 211.00" xmlns="http://www.w3.org/2000/svg" xmlns:xlink="http://www.w3.org/1999/xlink">
<g id="graph0" class="graph" transform="scale(1 1) rotate(0) translate(4 207)">
<title>router</title>
<polygon fill="#ffffff" stroke="transparent" points="-4,4 -4,-207 298.3385,-207 298.3385,4 -4,4"/>
<text text-anchor="middle" x="147.1693" y="-187.8" font-family="Times,serif" font-size="14.00" fill="#000000">/router</text>
<!-- r0 -->
<g id="node1" class="node">
<title>r0</title>
<g id="a_node1"><a xlink:href="file:///home/andrew/workspace/flow/flowruntime/stdio/readline.toml" xlink:title="readline (#0)">
<ellipse fill="#ff7f50" stroke="#000000" cx="72.1436" cy="-162" rx="72.2875" ry="18"/>
<text text-anchor="middle" x="72.1436" y="-158.3" font-family="Times,serif" font-size="14.00" fill="#000000">readline (#0)</text>
</a>
</g>
</g>
<!-- r1 -->
<g id="node2" class="node">
<title>r1</title>
<g id="a_node2"><a xlink:href="file:///home/andrew/workspace/flow/samples/router/read_section/read_section.toml" xlink:title="read_section (#1)">
<ellipse fill="#ff7f50" stroke="#000000" cx="144.1436" cy="-90" rx="92.8835" ry="18"/>
<text text-anchor="middle" x="144.1436" y="-86.3" font-family="Times,serif" font-size="14.00" fill="#000000">read_section (#1)</text>
</a>
</g>
</g>
<!-- r0&#45;&gt;r1 -->
<g id="edge1" class="edge">
<title>r0:e&#45;&gt;r1:n</title>
<path fill="none" stroke="#000000" d="M144.1436,-162C164.8623,-162 149.8089,-139.6424 145.3054,-118.0882"/>
<polygon fill="#000000" stroke="#000000" points="148.7648,-117.5339 144.1436,-108 141.8108,-118.3348 148.7648,-117.5339"/>
</g>
<!-- r2 -->
<g id="node3" class="node">
<title>r2</title>
<g id="a_node3"><a xlink:href="file:///home/andrew/workspace/flow/flowruntime/stdio/stdout.toml" xlink:title="print (#2)">
<ellipse fill="#ff7f50" stroke="#000000" cx="237.1436" cy="-18" rx="57.3905" ry="18"/>
<text text-anchor="middle" x="237.1436" y="-14.3" font-family="Times,serif" font-size="14.00" fill="#000000">print (#2)</text>
</a>
</g>
</g>
<!-- r1&#45;&gt;r2 -->
<g id="edge2" class="edge">
<title>r1:e&#45;&gt;r2:n</title>
<path fill="none" stroke="#000000" d="M237.1436,-90C257.8623,-90 242.8089,-67.6424 238.3054,-46.0882"/>
<polygon fill="#000000" stroke="#000000" points="241.7648,-45.5339 237.1436,-36 234.8108,-46.3348 241.7648,-45.5339"/>
</g>
</g>
</svg>
