<?xml version="1.0" encoding="UTF-8" standalone="no"?>
<!DOCTYPE svg PUBLIC "-//W3C//DTD SVG 1.1//EN"
 "http://www.w3.org/Graphics/SVG/1.1/DTD/svg11.dtd">
<!-- Generated by graphviz version 2.40.1 (20161225.0304)
 -->
<!-- Title: router Pages: 1 -->
<svg width="2014pt" height="1081pt"
 viewBox="0.00 0.00 2014.00 1081.00" xmlns="http://www.w3.org/2000/svg" xmlns:xlink="http://www.w3.org/1999/xlink">
<g id="graph0" class="graph" transform="scale(1 1) rotate(0) translate(4 1077)">
<title>router</title>
<polygon fill="#ffffff" stroke="transparent" points="-4,4 -4,-1077 2010,-1077 2010,4 -4,4"/>
<text text-anchor="middle" x="1003" y="-1057.8" font-family="Times,serif" font-size="14.00" fill="#000000">/router</text>
<g id="clust1" class="cluster">
<title>cluster_A_tracker</title>
<polygon fill="none" stroke="#000000" points="101,-81 101,-900 1099,-900 1099,-81 101,-81"/>
<text text-anchor="middle" x="600" y="-884.8" font-family="Times,serif" font-size="14.00" fill="#000000">/router/A_tracker</text>
</g>
<g id="clust2" class="cluster">
<title>cluster_B_tracker</title>
<polygon fill="none" stroke="#000000" points="1107,-8 1107,-681 1904,-681 1904,-8 1107,-8"/>
<text text-anchor="middle" x="1505.5" y="-665.8" font-family="Times,serif" font-size="14.00" fill="#000000">/router/B_tracker</text>
</g>
<!-- r0 -->
<g id="node1" class="node">
<title>r0</title>
<g id="a_node1"><a xlink:href="file:///home/travis/build/andrewdavidmackenzie/flow/flowr/src/lib/flowruntime/stdio/readline.html" xlink:title="readline (#0)">
<ellipse fill="#ff7f50" stroke="#000000" cx="108" cy="-1032" rx="72.2875" ry="18"/>
<text text-anchor="middle" x="108" y="-1028.3" font-family="Times,serif" font-size="14.00" fill="#000000">readline (#0)</text>
</a>
</g>
</g>
<!-- r1 -->
<g id="node2" class="node">
<title>r1</title>
<g id="a_node2"><a xlink:href="file:///home/travis/build/andrewdavidmackenzie/flow/flowstdlib/data/accumulate/accumulate.html" xlink:title="accumulate_triples (#1)">
<ellipse fill="#ff7f50" stroke="#000000" cx="328" cy="-945" rx="123.4781" ry="18"/>
<text text-anchor="middle" x="328" y="-941.3" font-family="Times,serif" font-size="14.00" fill="#000000">accumulate_triples (#1)</text>
</a>
</g>
</g>
<!-- r0&#45;&gt;r1 -->
<g id="edge1" class="edge">
<title>r0:e&#45;&gt;r1:n</title>
<path fill="none" stroke="#000000" d="M180,-1032C197.8885,-1032 199.8573,-1021.7079 216,-1014 226.4114,-1009.0287 298.9879,-985.8735 321.4139,-970.5453"/>
<polygon fill="#000000" stroke="#000000" points="324.0608,-972.8353 328,-963 318.7872,-968.2321 324.0608,-972.8353"/>
<text text-anchor="middle" x="305" y="-966.8" font-family="Times,serif" font-size="14.00" fill="#000000">values</text>
<text text-anchor="middle" x="197" y="-1035.8" font-family="Times,serif" font-size="14.00" fill="#000000">/json</text>
</g>
<!-- r1&#45;&gt;r1 -->
<g id="edge4" class="edge">
<title>r1:e&#45;&gt;r1:ne</title>
<path fill="none" stroke="#000000" d="M452,-945C475.489,-936 523.489,-936 523.489,-954 523.489,-971.0859 422.2815,-971.9536 356.2712,-964.3003"/>
<polygon fill="#000000" stroke="#000000" points="356.3604,-960.7837 346,-963 355.4812,-967.7283 356.3604,-960.7837"/>
<text text-anchor="middle" x="370" y="-966.8" font-family="Times,serif" font-size="14.00" fill="#000000">partial</text>
<text text-anchor="middle" x="478" y="-948.8" font-family="Times,serif" font-size="14.00" fill="#000000">/partial</text>
</g>
<!-- r9 -->
<g id="node5" class="node">
<title>r9</title>
<g id="a_node5"><a xlink:href="file:///home/travis/build/andrewdavidmackenzie/flow/flowstdlib/math/add/add.html" xlink:title="forward_sum (#9)">
<ellipse fill="#ff7f50" stroke="#000000" cx="614" cy="-726" rx="94.7833" ry="18"/>
<text text-anchor="middle" x="614" y="-722.3" font-family="Times,serif" font-size="14.00" fill="#000000">forward_sum (#9)</text>
</a>
</g>
</g>
<!-- r1&#45;&gt;r9 -->
<g id="edge5" class="edge">
<title>r1:s&#45;&gt;r9:n</title>
<path fill="none" stroke="#000000" d="M328,-927C328,-829.0799 385.8149,-804.5645 474,-762 498.828,-750.0162 588.1597,-769.4235 609.4306,-753.0032"/>
<polygon fill="#000000" stroke="#000000" points="612.5953,-754.5013 614,-744 606.3532,-751.3332 612.5953,-754.5013"/>
<text text-anchor="middle" x="607" y="-747.8" font-family="Times,serif" font-size="14.00" fill="#000000">i1</text>
<text text-anchor="middle" x="296.5" y="-915.8" font-family="Times,serif" font-size="14.00" fill="#000000">/chunk/0</text>
</g>
<!-- r7 -->
<g id="node6" class="node">
<title>r7</title>
<g id="a_node6"><a xlink:href="file:///home/travis/build/andrewdavidmackenzie/flow/flowstdlib/math/add/add.html" xlink:title="cross_distance (#7)">
<ellipse fill="#ff7f50" stroke="#000000" cx="764" cy="-851" rx="103.1819" ry="18"/>
<text text-anchor="middle" x="764" y="-847.3" font-family="Times,serif" font-size="14.00" fill="#000000">cross_distance (#7)</text>
</a>
</g>
</g>
<!-- r1&#45;&gt;r7 -->
<g id="edge6" class="edge">
<title>r1:sw&#45;&gt;r7:ne</title>
<path fill="none" stroke="#000000" d="M310,-927C285.1605,-902.1605 590.215,-904.8992 625,-900 691.5782,-890.6229 817.5223,-916.2149 788.6135,-876.5573"/>
<polygon fill="#000000" stroke="#000000" points="791.2194,-874.2204 782,-869 785.9517,-878.8303 791.2194,-874.2204"/>
<text text-anchor="middle" x="775" y="-872.8" font-family="Times,serif" font-size="14.00" fill="#000000">i2</text>
<text text-anchor="middle" x="341.5" y="-915.8" font-family="Times,serif" font-size="14.00" fill="#000000">/chunk/1</text>
</g>
<!-- r1&#45;&gt;r7 -->
<g id="edge7" class="edge">
<title>r1:se&#45;&gt;r7:n</title>
<path fill="none" stroke="#000000" d="M346,-927C409.7213,-863.2787 736.9598,-955.06 762.4281,-879.1148"/>
<polygon fill="#000000" stroke="#000000" points="765.9227,-879.4189 764,-869 759.0058,-878.3439 765.9227,-879.4189"/>
<text text-anchor="middle" x="757" y="-872.8" font-family="Times,serif" font-size="14.00" fill="#000000">i1</text>
<text text-anchor="middle" x="377.5" y="-915.8" font-family="Times,serif" font-size="14.00" fill="#000000">/chunk/2</text>
</g>
<!-- r16 -->
<g id="node7" class="node">
<title>r16</title>
<g id="a_node7"><a xlink:href="file:///home/travis/build/andrewdavidmackenzie/flow/flowstdlib/math/add/add.html" xlink:title="forward_sum (#16)">
<ellipse fill="#ff7f50" stroke="#000000" cx="1788" cy="-486" rx="100.9827" ry="18"/>
<text text-anchor="middle" x="1788" y="-482.3" font-family="Times,serif" font-size="14.00" fill="#000000">forward_sum (#16)</text>
</a>
</g>
</g>
<!-- r1&#45;&gt;r16 -->
<g id="edge8" class="edge">
<title>r1:sw&#45;&gt;r16:n</title>
<path fill="none" stroke="#000000" d="M310,-927C274.079,-891.079 131.127,-916.2615 83,-900 42.4165,-886.2873 0,-893.8376 0,-851 0,-851 0,-851 0,-595.5 0,-551.3694 40.8582,-554.0987 83,-541 104.6026,-534.2854 1640.1979,-528.2522 1778.118,-507.0884"/>
<polygon fill="#000000" stroke="#000000" points="1779.4993,-510.3237 1788,-504 1777.4112,-503.6424 1779.4993,-510.3237"/>
<text text-anchor="middle" x="1781" y="-507.8" font-family="Times,serif" font-size="14.00" fill="#000000">i1</text>
<text text-anchor="middle" x="278.5" y="-915.8" font-family="Times,serif" font-size="14.00" fill="#000000">/chunk/1</text>
</g>
<!-- r13 -->
<g id="node8" class="node">
<title>r13</title>
<g id="a_node8"><a xlink:href="file:///home/travis/build/andrewdavidmackenzie/flow/flowstdlib/math/add/add.html" xlink:title="cross_distance (#13)">
<ellipse fill="#ff7f50" stroke="#000000" cx="1506" cy="-486" rx="109.381" ry="18"/>
<text text-anchor="middle" x="1506" y="-482.3" font-family="Times,serif" font-size="14.00" fill="#000000">cross_distance (#13)</text>
</a>
</g>
</g>
<!-- r1&#45;&gt;r13 -->
<g id="edge9" class="edge">
<title>r1:se&#45;&gt;r13:n</title>
<path fill="none" stroke="#000000" d="M346,-927C361.1532,-911.8468 1095.5919,-900.9647 1117,-900 1314.6548,-891.0928 2006,-1048.8554 2006,-851 2006,-851 2006,-851 2006,-595.5 2006,-569.3568 1577.4645,-537.4003 1513.8538,-510.3941"/>
<polygon fill="#000000" stroke="#000000" points="1515.9647,-507.5994 1506,-504 1511.5451,-513.0279 1515.9647,-507.5994"/>
<text text-anchor="middle" x="1499" y="-507.8" font-family="Times,serif" font-size="14.00" fill="#000000">i1</text>
<text text-anchor="middle" x="314.5" y="-930.8" font-family="Times,serif" font-size="14.00" fill="#000000">/chunk/2</text>
</g>
<!-- initializerr1_1 -->
<!-- initializerr1_1&#45;&gt;r1 -->
<g id="edge2" class="edge">
<title>initializerr1_1&#45;&gt;r1:n</title>
<path fill="none" stroke="#0000ff" stroke-dasharray="1,5" d="M328,-1013.8403C328,-1002.6435 328,-987.7161 328,-973.324"/>
<polygon fill="#0000ff" stroke="#0000ff" points="331.5001,-973 328,-963 324.5001,-973 331.5001,-973"/>
<text text-anchor="middle" x="333.5" y="-984.8" font-family="Times,serif" font-size="14.00" fill="#000000">[]</text>
</g>
<!-- initializerr1_2 -->
<!-- initializerr1_2&#45;&gt;r1 -->
<g id="edge3" class="edge">
<title>initializerr1_2&#45;&gt;r1:n</title>
<path fill="none" stroke="#0000ff" d="M500.3286,-1018.6934C445.2876,-1004.2146 362.5393,-981.4804 336.294,-969.0879"/>
<polygon fill="#0000ff" stroke="#0000ff" points="338.1325,-966.0958 328,-963 333.9904,-971.7388 338.1325,-966.0958"/>
<text text-anchor="middle" x="418" y="-984.8" font-family="Times,serif" font-size="14.00" fill="#000000">3</text>
</g>
<!-- r8 -->
<g id="node11" class="node">
<title>r8</title>
<g id="a_node11"><a xlink:href="file:///home/travis/build/andrewdavidmackenzie/flow/flowstdlib/math/compare/compare.html" xlink:title="compare (#8)">
<ellipse fill="#ff7f50" stroke="#000000" cx="632" cy="-559" rx="74.9875" ry="18"/>
<text text-anchor="middle" x="632" y="-555.3" font-family="Times,serif" font-size="14.00" fill="#000000">compare (#8)</text>
</a>
</g>
</g>
<!-- r9&#45;&gt;r8 -->
<g id="edge12" class="edge">
<title>r9:se&#45;&gt;r8:n</title>
<path fill="none" stroke="#000000" d="M632,-708C670.6767,-669.3233 636.6835,-639.0849 632.4254,-587.2909"/>
<polygon fill="#000000" stroke="#000000" points="635.9101,-586.8469 632,-577 628.9161,-587.136 635.9101,-586.8469"/>
<text text-anchor="middle" x="619.5" y="-580.8" font-family="Times,serif" font-size="14.00" fill="#000000">left</text>
<text text-anchor="middle" x="614.5" y="-696.8" font-family="Times,serif" font-size="14.00" fill="#000000">/sum</text>
</g>
<!-- r5 -->
<g id="node12" class="node">
<title>r5</title>
<g id="a_node12"><a xlink:href="file:///home/travis/build/andrewdavidmackenzie/flow/flowstdlib/control/select/select.html" xlink:title="select_total (#5)">
<ellipse fill="#ff7f50" stroke="#000000" cx="733" cy="-413" rx="88.2844" ry="18"/>
<text text-anchor="middle" x="733" y="-409.3" font-family="Times,serif" font-size="14.00" fill="#000000">select_total (#5)</text>
</a>
</g>
</g>
<!-- r9&#45;&gt;r5 -->
<g id="edge13" class="edge">
<title>r9:se&#45;&gt;r5:n</title>
<path fill="none" stroke="#000000" d="M632,-708C643.5384,-696.4616 651.9117,-700.961 664,-690 709.3955,-648.838 724.5946,-635.4492 743,-577 747.8057,-561.7388 743.725,-556.9836 743,-541 740.9362,-495.5038 734.0948,-482.0001 733.1168,-441.0876"/>
<polygon fill="#000000" stroke="#000000" points="736.6156,-440.9588 733,-431 729.6161,-441.0399 736.6156,-440.9588"/>
<text text-anchor="middle" x="726" y="-434.8" font-family="Times,serif" font-size="14.00" fill="#000000">i1</text>
<text text-anchor="middle" x="649.5" y="-696.8" font-family="Times,serif" font-size="14.00" fill="#000000">/sum</text>
</g>
<!-- r4 -->
<g id="node9" class="node">
<title>r4</title>
<g id="a_node9"><a xlink:href="file:///home/travis/build/andrewdavidmackenzie/flow/flowstdlib/math/add/add.html" xlink:title="cross_sum (#4)">
<ellipse fill="#ff7f50" stroke="#000000" cx="910" cy="-726" rx="83.3857" ry="18"/>
<text text-anchor="middle" x="910" y="-722.3" font-family="Times,serif" font-size="14.00" fill="#000000">cross_sum (#4)</text>
</a>
</g>
</g>
<!-- r7&#45;&gt;r4 -->
<g id="edge10" class="edge">
<title>r7:se&#45;&gt;r4:n</title>
<path fill="none" stroke="#000000" d="M782,-833C822.0654,-792.9346 867.6888,-839.4967 904,-796 916.5795,-780.9312 912.2026,-770.8338 910.5277,-754.0718"/>
<polygon fill="#000000" stroke="#000000" points="914.0185,-753.8032 910,-744 907.0281,-754.1695 914.0185,-753.8032"/>
<text text-anchor="middle" x="903" y="-747.8" font-family="Times,serif" font-size="14.00" fill="#000000">i1</text>
<text text-anchor="middle" x="764.5" y="-821.8" font-family="Times,serif" font-size="14.00" fill="#000000">/sum</text>
</g>
<!-- r15 -->
<g id="node26" class="node">
<title>r15</title>
<g id="a_node26"><a xlink:href="file:///home/travis/build/andrewdavidmackenzie/flow/flowstdlib/math/compare/compare.html" xlink:title="compare (#15)">
<ellipse fill="#ff7f50" stroke="#000000" cx="1196" cy="-326" rx="80.6858" ry="18"/>
<text text-anchor="middle" x="1196" y="-322.3" font-family="Times,serif" font-size="14.00" fill="#000000">compare (#15)</text>
</a>
</g>
</g>
<!-- r16&#45;&gt;r15 -->
<g id="edge35" class="edge">
<title>r16:se&#45;&gt;r15:n</title>
<path fill="none" stroke="#000000" d="M1806,-468C1852.6138,-421.3862 1256.2172,-413.8143 1200.2026,-353.3203"/>
<polygon fill="#000000" stroke="#000000" points="1203.3012,-351.6774 1196,-344 1196.92,-354.5548 1203.3012,-351.6774"/>
<text text-anchor="middle" x="1183.5" y="-347.8" font-family="Times,serif" font-size="14.00" fill="#000000">left</text>
<text text-anchor="middle" x="1788.5" y="-456.8" font-family="Times,serif" font-size="14.00" fill="#000000">/sum</text>
</g>
<!-- r11 -->
<g id="node27" class="node">
<title>r11</title>
<g id="a_node27"><a xlink:href="file:///home/travis/build/andrewdavidmackenzie/flow/flowstdlib/control/select/select.html" xlink:title="select_total (#11)">
<ellipse fill="#ff7f50" stroke="#000000" cx="1800" cy="-180" rx="94.4839" ry="18"/>
<text text-anchor="middle" x="1800" y="-176.3" font-family="Times,serif" font-size="14.00" fill="#000000">select_total (#11)</text>
</a>
</g>
</g>
<!-- r16&#45;&gt;r11 -->
<g id="edge36" class="edge">
<title>r16:se&#45;&gt;r11:n</title>
<path fill="none" stroke="#000000" d="M1806,-468C1823.9161,-450.0839 1821,-438.3372 1821,-413 1821,-413 1821,-413 1821,-253 1821,-230.7183 1805.7717,-225.4757 1801.2508,-208.2524"/>
<polygon fill="#000000" stroke="#000000" points="1804.6853,-207.5025 1800,-198 1797.7368,-208.3503 1804.6853,-207.5025"/>
<text text-anchor="middle" x="1793" y="-201.8" font-family="Times,serif" font-size="14.00" fill="#000000">i1</text>
<text text-anchor="middle" x="1823.5" y="-456.8" font-family="Times,serif" font-size="14.00" fill="#000000">/sum</text>
</g>
<!-- r14 -->
<g id="node21" class="node">
<title>r14</title>
<g id="a_node21"><a xlink:href="file:///home/travis/build/andrewdavidmackenzie/flow/flowstdlib/math/add/add.html" xlink:title="cross_sum (#14)">
<ellipse fill="#ff7f50" stroke="#000000" cx="1002" cy="-253" rx="89.0842" ry="18"/>
<text text-anchor="middle" x="1002" y="-249.3" font-family="Times,serif" font-size="14.00" fill="#000000">cross_sum (#14)</text>
</a>
</g>
</g>
<!-- r13&#45;&gt;r14 -->
<g id="edge33" class="edge">
<title>r13:se&#45;&gt;r14:n</title>
<path fill="none" stroke="#000000" d="M1524,-468C1580.8281,-411.1719 1424.6663,-451.6595 1347,-431 1187.0094,-388.4419 1009.4432,-437.9087 1002.2275,-281.122"/>
<polygon fill="#000000" stroke="#000000" points="1005.7239,-280.9188 1002,-271 998.7257,-281.0761 1005.7239,-280.9188"/>
<text text-anchor="middle" x="995" y="-274.8" font-family="Times,serif" font-size="14.00" fill="#000000">i1</text>
<text text-anchor="middle" x="1506.5" y="-456.8" font-family="Times,serif" font-size="14.00" fill="#000000">/sum</text>
</g>
<!-- r4&#45;&gt;r8 -->
<g id="edge15" class="edge">
<title>r4:se&#45;&gt;r8:ne</title>
<path fill="none" stroke="#000000" d="M928,-708C939.0351,-696.9649 707.7116,-606.7383 658.6514,-582.0921"/>
<polygon fill="#000000" stroke="#000000" points="660.3934,-579.0562 650,-577 656.8426,-585.0888 660.3934,-579.0562"/>
<text text-anchor="middle" x="668" y="-580.8" font-family="Times,serif" font-size="14.00" fill="#000000">right</text>
<text text-anchor="middle" x="910.5" y="-696.8" font-family="Times,serif" font-size="14.00" fill="#000000">/sum</text>
</g>
<!-- r4&#45;&gt;r5 -->
<g id="edge16" class="edge">
<title>r4:se&#45;&gt;r5:ne</title>
<path fill="none" stroke="#000000" d="M928,-708C939.1086,-696.8914 1078.4903,-759.6243 758.1656,-438.1781"/>
<polygon fill="#000000" stroke="#000000" points="760.542,-435.6045 751,-431 755.5879,-440.55 760.542,-435.6045"/>
<text text-anchor="middle" x="744" y="-434.8" font-family="Times,serif" font-size="14.00" fill="#000000">i2</text>
<text text-anchor="middle" x="945.5" y="-696.8" font-family="Times,serif" font-size="14.00" fill="#000000">/sum</text>
</g>
<!-- initializerr9_1 -->
<!-- initializerr9_1&#45;&gt;r9 -->
<g id="edge11" class="edge">
<title>initializerr9_1&#45;&gt;r9:w</title>
<path fill="none" stroke="#0000ff" stroke-dasharray="1,5" d="M506.556,-832.8239C496.2503,-801.2702 480.0069,-738.6628 509.032,-727.6678"/>
<polygon fill="#0000ff" stroke="#0000ff" points="509.7147,-731.1023 519,-726 508.5595,-724.1983 509.7147,-731.1023"/>
<text text-anchor="middle" x="501" y="-784.8" font-family="Times,serif" font-size="14.00" fill="#000000">0</text>
</g>
<!-- r8&#45;&gt;r5 -->
<g id="edge19" class="edge">
<title>r8:se&#45;&gt;r5:nw</title>
<path fill="none" stroke="#000000" d="M650,-541C687.6444,-503.3556 676.5428,-474.9064 708.094,-438.4114"/>
<polygon fill="#000000" stroke="#000000" points="710.7434,-440.7022 715,-431 705.6221,-435.9301 710.7434,-440.7022"/>
<text text-anchor="middle" x="689" y="-434.8" font-family="Times,serif" font-size="14.00" fill="#000000">control</text>
<text text-anchor="middle" x="638" y="-529.8" font-family="Times,serif" font-size="14.00" fill="#000000">/lte</text>
</g>
<!-- r2 -->
<g id="node14" class="node">
<title>r2</title>
<g id="a_node14"><a xlink:href="file:///home/travis/build/andrewdavidmackenzie/flow/flowstdlib/control/select/select.html" xlink:title="select_string (#2)">
<ellipse fill="#ff7f50" stroke="#000000" cx="330" cy="-413" rx="94.7833" ry="18"/>
<text text-anchor="middle" x="330" y="-409.3" font-family="Times,serif" font-size="14.00" fill="#000000">select_string (#2)</text>
</a>
</g>
</g>
<!-- r8&#45;&gt;r2 -->
<g id="edge17" class="edge">
<title>r8:se&#45;&gt;r2:nw</title>
<path fill="none" stroke="#000000" d="M650,-541C671.5567,-519.4433 542.424,-534.0207 514,-523 474.1111,-507.534 473.5197,-486.616 435,-468 387.4161,-445.0033 287.9203,-467.4715 305.4425,-438.9043"/>
<polygon fill="#000000" stroke="#000000" points="308.3088,-440.9311 312,-431 302.9214,-436.4616 308.3088,-440.9311"/>
<text text-anchor="middle" x="286" y="-434.8" font-family="Times,serif" font-size="14.00" fill="#000000">control</text>
<text text-anchor="middle" x="662" y="-529.8" font-family="Times,serif" font-size="14.00" fill="#000000">/lte</text>
</g>
<!-- r3 -->
<g id="node15" class="node">
<title>r3</title>
<g id="a_node15"><a xlink:href="file:///home/travis/build/andrewdavidmackenzie/flow/flowstdlib/control/select/select.html" xlink:title="select_route (#3)">
<ellipse fill="#ff7f50" stroke="#000000" cx="467" cy="-107" rx="91.784" ry="18"/>
<text text-anchor="middle" x="467" y="-103.3" font-family="Times,serif" font-size="14.00" fill="#000000">select_route (#3)</text>
</a>
</g>
</g>
<!-- r8&#45;&gt;r3 -->
<g id="edge18" class="edge">
<title>r8:se&#45;&gt;r3:nw</title>
<path fill="none" stroke="#000000" d="M650,-541C665.7098,-525.2902 363.9538,-291.3329 355,-271 347.1156,-253.0957 349.197,-175.7971 359,-162 381.8967,-129.7743 412.5804,-151.0982 441.0402,-131.6462"/>
<polygon fill="#000000" stroke="#000000" points="443.5672,-134.0959 449,-125 439.0807,-128.7226 443.5672,-134.0959"/>
<text text-anchor="middle" x="423" y="-128.8" font-family="Times,serif" font-size="14.00" fill="#000000">control</text>
<text text-anchor="middle" x="638" y="-544.8" font-family="Times,serif" font-size="14.00" fill="#000000">/lte</text>
</g>
<!-- r5&#45;&gt;r9 -->
<g id="edge26" class="edge">
<title>r5:e&#45;&gt;r9:ne</title>
<path fill="none" stroke="#000000" d="M822,-413C899.7316,-413 772.5143,-699.3418 708.8916,-744 697.2551,-752.1679 660.1166,-755.1082 641.0093,-748.9062"/>
<polygon fill="#000000" stroke="#000000" points="642.4561,-745.7088 632,-744 639.1083,-751.8564 642.4561,-745.7088"/>
<text text-anchor="middle" x="625" y="-747.8" font-family="Times,serif" font-size="14.00" fill="#000000">i2</text>
<text text-anchor="middle" x="856.5" y="-416.8" font-family="Times,serif" font-size="14.00" fill="#000000">/select_i1</text>
</g>
<!-- r5&#45;&gt;r14 -->
<g id="edge27" class="edge">
<title>r5:e&#45;&gt;r14:ne</title>
<path fill="none" stroke="#000000" d="M822,-413C901.5258,-413 881.6103,-327.8511 951,-289 972.6043,-276.9038 1016.2443,-286.3998 1023.6169,-280.447"/>
<polygon fill="#000000" stroke="#000000" points="1026.8443,-279.0874 1020,-271 1020.307,-281.5904 1026.8443,-279.0874"/>
<text text-anchor="middle" x="1013" y="-274.8" font-family="Times,serif" font-size="14.00" fill="#000000">i2</text>
<text text-anchor="middle" x="856.5" y="-401.8" font-family="Times,serif" font-size="14.00" fill="#000000">/select_i1</text>
</g>
<!-- r18 -->
<g id="node22" class="node">
<title>r18</title>
<g id="a_node22"><a xlink:href="file:///home/travis/build/andrewdavidmackenzie/flow/flowr/src/lib/flowruntime/stdio/stdout.html" xlink:title="print (#18)">
<ellipse fill="#ff7f50" stroke="#000000" cx="805" cy="-107" rx="63.0888" ry="18"/>
<text text-anchor="middle" x="805" y="-103.3" font-family="Times,serif" font-size="14.00" fill="#000000">print (#18)</text>
</a>
</g>
</g>
<!-- r5&#45;&gt;r18 -->
<g id="edge28" class="edge">
<title>r5:e&#45;&gt;r18:n</title>
<path fill="none" stroke="#000000" d="M822,-413C827.3395,-413 895.5833,-338.0034 821,-143 818.8492,-137.3765 814.0555,-135.7708 810.2728,-133.5372"/>
<polygon fill="#000000" stroke="#000000" points="813.2327,-131.6689 805,-125 807.277,-135.3473 813.2327,-131.6689"/>
<text text-anchor="middle" x="787.5" y="-416.8" font-family="Times,serif" font-size="14.00" fill="#000000">/select_i1</text>
</g>
<!-- initializerr4_1 -->
<!-- initializerr4_1&#45;&gt;r4 -->
<g id="edge14" class="edge">
<title>initializerr4_1&#45;&gt;r4:w</title>
<path fill="none" stroke="#0000ff" stroke-dasharray="1,5" d="M979.1402,-835.0417C908.7159,-803.0545 763.5576,-733.5447 815.8674,-726.5676"/>
<polygon fill="#0000ff" stroke="#0000ff" points="816.2114,-730.0539 826,-726 815.8199,-723.0648 816.2114,-730.0539"/>
<text text-anchor="middle" x="899" y="-784.8" font-family="Times,serif" font-size="14.00" fill="#000000">0</text>
</g>
<!-- r6 -->
<g id="node18" class="node">
<title>r6</title>
<g id="a_node18"><a xlink:href="file:///home/travis/build/andrewdavidmackenzie/flow/flowstdlib/data/append/append.html" xlink:title="append (#6)">
<ellipse fill="#ff7f50" stroke="#000000" cx="177" cy="-253" rx="68.4888" ry="18"/>
<text text-anchor="middle" x="177" y="-249.3" font-family="Times,serif" font-size="14.00" fill="#000000">append (#6)</text>
</a>
</g>
</g>
<!-- r2&#45;&gt;r6 -->
<g id="edge22" class="edge">
<title>r2:e&#45;&gt;r6:ne</title>
<path fill="none" stroke="#000000" d="M425,-413C433,-413 429.0952,-401.8724 425,-395 423.3442,-392.2212 245.0246,-298.1148 202.8469,-275.0311"/>
<polygon fill="#000000" stroke="#000000" points="204.4229,-271.901 194,-270 200.9625,-277.9859 204.4229,-271.901"/>
<text text-anchor="middle" x="185.5" y="-273.8" font-family="Times,serif" font-size="14.00" fill="#000000">s2</text>
<text text-anchor="middle" x="459.5" y="-416.8" font-family="Times,serif" font-size="14.00" fill="#000000">/select_i1</text>
</g>
<!-- r3&#45;&gt;r6 -->
<g id="edge25" class="edge">
<title>r3:e&#45;&gt;r6:n</title>
<path fill="none" stroke="#000000" d="M559,-107C567,-107 562.9203,-118.0264 559,-125 551.3521,-138.6043 453.0297,-191.1636 439,-198 397.6378,-218.155 290.5108,-262.7555 245.2439,-271 233.8209,-273.0805 199.8861,-280.8649 184.6066,-277.5934"/>
<polygon fill="#000000" stroke="#000000" points="186.8489,-274.9052 177,-271 182.2639,-280.1947 186.8489,-274.9052"/>
<text text-anchor="middle" x="168.5" y="-274.8" font-family="Times,serif" font-size="14.00" fill="#000000">s1</text>
<text text-anchor="middle" x="593.5" y="-110.8" font-family="Times,serif" font-size="14.00" fill="#000000">/select_i1</text>
</g>
<!-- initializerr2_0 -->
<!-- initializerr2_0&#45;&gt;r2 -->
<g id="edge20" class="edge">
<title>initializerr2_0&#45;&gt;r2:ne</title>
<path fill="none" stroke="#0000ff" d="M404.4733,-540.5909C397.5415,-515.5675 382.1716,-470.3203 355.1288,-438.7195"/>
<polygon fill="#0000ff" stroke="#0000ff" points="357.3557,-435.972 348,-431 352.2131,-440.7211 357.3557,-435.972"/>
<text text-anchor="middle" x="404.5" y="-482.3" font-family="Times,serif" font-size="14.00" fill="#000000">&quot;A&quot;</text>
</g>
<!-- initializerr2_1 -->
<!-- initializerr2_1&#45;&gt;r2 -->
<g id="edge21" class="edge">
<title>initializerr2_1&#45;&gt;r2:w</title>
<path fill="none" stroke="#0000ff" d="M183.4207,-540.8042C181.1993,-504.2653 181.4944,-424.5576 225.0373,-414.1325"/>
<polygon fill="#0000ff" stroke="#0000ff" points="225.4593,-417.6072 235,-413 224.6686,-410.652 225.4593,-417.6072"/>
<text text-anchor="middle" x="204" y="-482.3" font-family="Times,serif" font-size="14.00" fill="#000000">&quot;BC&quot;</text>
</g>
<!-- r6&#45;&gt;r3 -->
<g id="edge29" class="edge">
<title>r6:e&#45;&gt;r3:n</title>
<path fill="none" stroke="#000000" d="M246,-253C310.4827,-253 302.5357,-193.1417 359,-162 399.9584,-139.4103 457.1839,-170.1463 465.8754,-135.3349"/>
<polygon fill="#000000" stroke="#000000" points="469.3976,-135.32 467,-125 462.4387,-134.5627 469.3976,-135.32"/>
<text text-anchor="middle" x="460" y="-128.8" font-family="Times,serif" font-size="14.00" fill="#000000">i1</text>
</g>
<!-- r6&#45;&gt;r18 -->
<g id="edge31" class="edge">
<title>r6:e&#45;&gt;r18:n</title>
<path fill="none" stroke="#000000" d="M246,-253C295.1006,-253 306.3883,-241.9113 355,-235 492.3742,-215.4691 532.4301,-238.9677 665,-198 728.64,-178.3335 797.6057,-193.4554 804.4459,-135.0257"/>
<polygon fill="#000000" stroke="#000000" points="807.9428,-135.1779 805,-125 800.9534,-134.7916 807.9428,-135.1779"/>
</g>
<!-- r12 -->
<g id="node23" class="node">
<title>r12</title>
<g id="a_node23"><a xlink:href="file:///home/travis/build/andrewdavidmackenzie/flow/flowstdlib/control/select/select.html" xlink:title="select_route (#12)">
<ellipse fill="#ff7f50" stroke="#000000" cx="206" cy="-107" rx="97.4827" ry="18"/>
<text text-anchor="middle" x="206" y="-103.3" font-family="Times,serif" font-size="14.00" fill="#000000">select_route (#12)</text>
</a>
</g>
</g>
<!-- r6&#45;&gt;r12 -->
<g id="edge30" class="edge">
<title>r6:e&#45;&gt;r12:ne</title>
<path fill="none" stroke="#000000" d="M246,-253C254,-253 248.9585,-242.4328 246,-235 237.6287,-213.9687 219.3713,-219.0313 211,-198 205.0829,-183.1343 208.3098,-177.7722 211,-162 213.1064,-149.6506 225.2677,-142.3062 227.3655,-134.5756"/>
<polygon fill="#000000" stroke="#000000" points="230.6179,-133.2737 224,-125 224.0139,-135.5948 230.6179,-133.2737"/>
<text text-anchor="middle" x="217" y="-128.8" font-family="Times,serif" font-size="14.00" fill="#000000">i2</text>
</g>
<!-- initializerr3_0 -->
<!-- initializerr3_0&#45;&gt;r3 -->
<g id="edge23" class="edge">
<title>initializerr3_0&#45;&gt;r3:ne</title>
<path fill="none" stroke="#0000ff" stroke-dasharray="1,5" d="M674.267,-235.3502C650.1791,-210.9776 603.2932,-167.2823 555,-143 529.6637,-130.2606 512.2095,-143.6885 492.8384,-131.3824"/>
<polygon fill="#0000ff" stroke="#0000ff" points="494.9645,-128.6001 485,-125 490.5446,-134.0282 494.9645,-128.6001"/>
<text text-anchor="middle" x="640" y="-176.3" font-family="Times,serif" font-size="14.00" fill="#000000">&quot;&quot;</text>
</g>
<!-- initializerr3_1 -->
<!-- initializerr3_1&#45;&gt;r3 -->
<g id="edge24" class="edge">
<title>initializerr3_1&#45;&gt;r3:w</title>
<path fill="none" stroke="#0000ff" stroke-dasharray="1,5" d="M447.4327,-235.389C408.1797,-199.1361 326.7308,-118.6707 364.9661,-108.1437"/>
<polygon fill="#0000ff" stroke="#0000ff" points="365.4607,-111.6101 375,-107 364.6679,-104.6551 365.4607,-111.6101"/>
<text text-anchor="middle" x="414" y="-176.3" font-family="Times,serif" font-size="14.00" fill="#000000">&quot;&quot;</text>
</g>
<!-- r14&#45;&gt;r15 -->
<g id="edge37" class="edge">
<title>r14:se&#45;&gt;r15:ne</title>
<path fill="none" stroke="#000000" d="M1020,-235C1031.1632,-223.8368 1079.1417,-224.6262 1091.0421,-235 1103.2168,-245.6129 1085.9847,-258.3292 1096,-271 1110.4842,-289.3246 1122.3855,-284.1551 1145,-290 1173.5761,-297.3858 1257.1882,-285.7603 1276.5928,-308 1276.5928,-308 1239.9021,-329.1025 1222.7033,-338.9944"/>
<polygon fill="#000000" stroke="#000000" points="1220.9235,-335.9803 1214,-344 1224.4135,-342.0483 1220.9235,-335.9803"/>
<text text-anchor="middle" x="1232" y="-347.8" font-family="Times,serif" font-size="14.00" fill="#000000">right</text>
<text text-anchor="middle" x="1002.5" y="-223.8" font-family="Times,serif" font-size="14.00" fill="#000000">/sum</text>
</g>
<!-- r14&#45;&gt;r11 -->
<g id="edge38" class="edge">
<title>r14:se&#45;&gt;r11:ne</title>
<path fill="none" stroke="#000000" d="M1020,-235C1048.8384,-206.1616 1725.0554,-225.5809 1810.1341,-204.5655"/>
<polygon fill="#000000" stroke="#000000" points="1812.5657,-207.095 1818,-198 1808.0801,-201.721 1812.5657,-207.095"/>
<text text-anchor="middle" x="1811" y="-201.8" font-family="Times,serif" font-size="14.00" fill="#000000">i2</text>
<text text-anchor="middle" x="1037.5" y="-223.8" font-family="Times,serif" font-size="14.00" fill="#000000">/sum</text>
</g>
<!-- r17 -->
<g id="node31" class="node">
<title>r17</title>
<g id="a_node31"><a xlink:href="file:///home/travis/build/andrewdavidmackenzie/flow/flowstdlib/data/append/append.html" xlink:title="append (#17)">
<ellipse fill="#ff7f50" stroke="#000000" cx="1189" cy="-34" rx="74.187" ry="18"/>
<text text-anchor="middle" x="1189" y="-30.3" font-family="Times,serif" font-size="14.00" fill="#000000">append (#17)</text>
</a>
</g>
</g>
<!-- r12&#45;&gt;r17 -->
<g id="edge46" class="edge">
<title>r12:e&#45;&gt;r17:n</title>
<path fill="none" stroke="#000000" d="M304,-107C323.378,-107 320.7089,-87.3985 339,-81 344.2156,-79.1755 1083.6331,-60.552 1178.927,-53.3227"/>
<polygon fill="#000000" stroke="#000000" points="1179.5408,-56.7722 1189,-52 1178.6294,-49.8318 1179.5408,-56.7722"/>
<text text-anchor="middle" x="1180.5" y="-55.8" font-family="Times,serif" font-size="14.00" fill="#000000">s1</text>
<text text-anchor="middle" x="338.5" y="-110.8" font-family="Times,serif" font-size="14.00" fill="#000000">/select_i1</text>
</g>
<!-- initializerr13_1 -->
<!-- initializerr13_1&#45;&gt;r13 -->
<g id="edge32" class="edge">
<title>initializerr13_1&#45;&gt;r13:w</title>
<path fill="none" stroke="#0000ff" d="M1421.0903,-614.0975C1397.9821,-578.0048 1352.263,-498.9514 1387.0326,-487.4157"/>
<polygon fill="#0000ff" stroke="#0000ff" points="1387.5916,-490.8715 1397,-486 1386.6072,-483.9411 1387.5916,-490.8715"/>
<text text-anchor="middle" x="1403" y="-555.3" font-family="Times,serif" font-size="14.00" fill="#000000">0</text>
</g>
<!-- initializerr16_1 -->
<!-- initializerr16_1&#45;&gt;r16 -->
<g id="edge34" class="edge">
<title>initializerr16_1&#45;&gt;r16:w</title>
<path fill="none" stroke="#0000ff" stroke-dasharray="1,5" d="M1663.7979,-613.8042C1654.3371,-577.5711 1638.6112,-498.8886 1676.7562,-487.4087"/>
<polygon fill="#0000ff" stroke="#0000ff" points="1677.5701,-490.8298 1687,-486 1676.6164,-483.8951 1677.5701,-490.8298"/>
<text text-anchor="middle" x="1660" y="-555.3" font-family="Times,serif" font-size="14.00" fill="#000000">0</text>
</g>
<!-- r15&#45;&gt;r12 -->
<g id="edge40" class="edge">
<title>r15:se&#45;&gt;r12:nw</title>
<path fill="none" stroke="#000000" d="M1214,-308C1249.6914,-272.3086 1172.9345,-255.9231 1127,-235 937.8203,-148.829 871.458,-186.2796 665,-162 641.2833,-159.2109 259.9821,-146.7383 196.405,-130.6035"/>
<polygon fill="#000000" stroke="#000000" points="198.262,-127.635 188,-125 194.3789,-133.4593 198.262,-127.635"/>
<text text-anchor="middle" x="162" y="-128.8" font-family="Times,serif" font-size="14.00" fill="#000000">control</text>
<text text-anchor="middle" x="1202" y="-296.8" font-family="Times,serif" font-size="14.00" fill="#000000">/lte</text>
</g>
<!-- r15&#45;&gt;r11 -->
<g id="edge41" class="edge">
<title>r15:se&#45;&gt;r11:nw</title>
<path fill="none" stroke="#000000" d="M1214,-308C1223.9279,-298.0721 1450.4186,-274.5598 1464,-271 1507.275,-259.6573 1514.8216,-246.7051 1558,-235 1651.9657,-209.5272 1706.7122,-265.1864 1774.5319,-205.0449"/>
<polygon fill="#000000" stroke="#000000" points="1777.1275,-207.408 1782,-198 1772.3241,-202.316 1777.1275,-207.408"/>
<text text-anchor="middle" x="1756" y="-201.8" font-family="Times,serif" font-size="14.00" fill="#000000">control</text>
<text text-anchor="middle" x="1226" y="-296.8" font-family="Times,serif" font-size="14.00" fill="#000000">/lte</text>
</g>
<!-- r10 -->
<g id="node28" class="node">
<title>r10</title>
<g id="a_node28"><a xlink:href="file:///home/travis/build/andrewdavidmackenzie/flow/flowstdlib/control/select/select.html" xlink:title="select_string (#10)">
<ellipse fill="#ff7f50" stroke="#000000" cx="1490" cy="-180" rx="100.9827" ry="18"/>
<text text-anchor="middle" x="1490" y="-176.3" font-family="Times,serif" font-size="14.00" fill="#000000">select_string (#10)</text>
</a>
</g>
</g>
<!-- r15&#45;&gt;r10 -->
<g id="edge39" class="edge">
<title>r15:se&#45;&gt;r10:nw</title>
<path fill="none" stroke="#000000" d="M1214,-308C1249.3651,-272.6349 1395.8512,-300.8237 1436,-271 1462.0904,-251.6193 1449.7108,-228.7861 1465.4777,-205.7974"/>
<polygon fill="#000000" stroke="#000000" points="1468.2685,-207.916 1472,-198 1462.8993,-203.4247 1468.2685,-207.916"/>
<text text-anchor="middle" x="1446" y="-201.8" font-family="Times,serif" font-size="14.00" fill="#000000">control</text>
<text text-anchor="middle" x="1202" y="-311.8" font-family="Times,serif" font-size="14.00" fill="#000000">/lte</text>
</g>
<!-- r11&#45;&gt;r16 -->
<g id="edge47" class="edge">
<title>r11:e&#45;&gt;r16:ne</title>
<path fill="none" stroke="#000000" d="M1895,-180C1927.4444,-180 1895,-220.5556 1895,-253 1895,-413 1895,-413 1895,-413 1895,-453.54 1918.3743,-476.3349 1888.7411,-504 1883.3072,-509.0729 1836.8132,-510.1923 1815.777,-506.9982"/>
<polygon fill="#000000" stroke="#000000" points="1816.5867,-503.5857 1806,-504 1814.5344,-510.2781 1816.5867,-503.5857"/>
<text text-anchor="middle" x="1799" y="-507.8" font-family="Times,serif" font-size="14.00" fill="#000000">i2</text>
<text text-anchor="middle" x="1929.5" y="-183.8" font-family="Times,serif" font-size="14.00" fill="#000000">/select_i1</text>
</g>
<!-- r11&#45;&gt;r4 -->
<g id="edge48" class="edge">
<title>r11:e&#45;&gt;r4:ne</title>
<path fill="none" stroke="#000000" d="M1895,-180C1953.6751,-180 2005,-194.3249 2005,-253 2005,-486 2005,-486 2005,-486 2005,-615.9945 1906.5048,-629.8416 1787,-681 1615.1219,-754.5787 1022.7021,-751.7137 938.0472,-745.3959"/>
<polygon fill="#000000" stroke="#000000" points="938.3865,-741.9095 928,-744 937.4232,-748.8429 938.3865,-741.9095"/>
<text text-anchor="middle" x="921" y="-747.8" font-family="Times,serif" font-size="14.00" fill="#000000">i2</text>
<text text-anchor="middle" x="1929.5" y="-168.8" font-family="Times,serif" font-size="14.00" fill="#000000">/select_i1</text>
</g>
<!-- r10&#45;&gt;r17 -->
<g id="edge44" class="edge">
<title>r10:e&#45;&gt;r17:ne</title>
<path fill="none" stroke="#000000" d="M1591,-180C1599,-180 1595.8154,-168.3884 1591,-162 1578.66,-145.6288 1274.7842,-79.0177 1216.1902,-56.5928"/>
<polygon fill="#000000" stroke="#000000" points="1217.5098,-53.3396 1207,-52 1214.3805,-59.6012 1217.5098,-53.3396"/>
<text text-anchor="middle" x="1198.5" y="-55.8" font-family="Times,serif" font-size="14.00" fill="#000000">s2</text>
<text text-anchor="middle" x="1625.5" y="-183.8" font-family="Times,serif" font-size="14.00" fill="#000000">/select_i1</text>
</g>
<!-- initializerr10_0 -->
<!-- initializerr10_0&#45;&gt;r10 -->
<g id="edge42" class="edge">
<title>initializerr10_0&#45;&gt;r10:ne</title>
<path fill="none" stroke="#0000ff" d="M1641.6764,-308.7859C1611.2385,-286.7343 1557.9291,-246.4112 1515.2871,-205.1644"/>
<polygon fill="#0000ff" stroke="#0000ff" points="1517.5846,-202.515 1508,-198 1512.6771,-207.5066 1517.5846,-202.515"/>
<text text-anchor="middle" x="1603.5" y="-249.3" font-family="Times,serif" font-size="14.00" fill="#000000">&quot;B&quot;</text>
</g>
<!-- initializerr10_1 -->
<!-- initializerr10_1&#45;&gt;r10 -->
<g id="edge43" class="edge">
<title>initializerr10_1&#45;&gt;r10:w</title>
<path fill="none" stroke="#0000ff" d="M1417.4137,-308.0975C1392.949,-272.0048 1344.3002,-192.9514 1378.9937,-181.4157"/>
<polygon fill="#0000ff" stroke="#0000ff" points="1379.5889,-184.8664 1389,-180 1378.6083,-177.9354 1379.5889,-184.8664"/>
<text text-anchor="middle" x="1405.5" y="-249.3" font-family="Times,serif" font-size="14.00" fill="#000000">&quot;C&quot;</text>
</g>
<!-- r17&#45;&gt;r3 -->
<g id="edge50" class="edge">
<title>r17:e&#45;&gt;r3:ne</title>
<path fill="none" stroke="#000000" d="M1263,-34C1271,-34 1268.5078,-46.1979 1263,-52 1220.3331,-96.9461 767.0679,-70.4487 706,-81 638.6482,-92.6371 626.2735,-115.1184 558.6419,-125 545.3586,-126.9408 512.1004,-133.4842 494.1896,-129.3855"/>
<polygon fill="#000000" stroke="#000000" points="495.5324,-126.1483 485,-125 492.5175,-132.4658 495.5324,-126.1483"/>
<text text-anchor="middle" x="478" y="-128.8" font-family="Times,serif" font-size="14.00" fill="#000000">i2</text>
</g>
<!-- r17&#45;&gt;r12 -->
<g id="edge49" class="edge">
<title>r17:e&#45;&gt;r12:n</title>
<path fill="none" stroke="#000000" d="M1263,-34C1271,-34 1268.554,-46.2421 1263,-52 1242.6607,-73.0859 765.2831,-70.1033 736,-71 713.9478,-71.6752 358.784,-71.2353 339,-81 316.466,-92.122 326.1636,-114.1626 303.4913,-125 295.6651,-128.741 237.8567,-133.4368 215.1343,-129.5969"/>
<polygon fill="#000000" stroke="#000000" points="216.506,-126.369 206,-125 213.3592,-132.6219 216.506,-126.369"/>
<text text-anchor="middle" x="199" y="-128.8" font-family="Times,serif" font-size="14.00" fill="#000000">i1</text>
</g>
<!-- initializerr12_0 -->
<!-- initializerr12_0&#45;&gt;r12 -->
<g id="edge45" class="edge">
<title>initializerr12_0&#45;&gt;r12:ne</title>
<path fill="none" stroke="#0000ff" stroke-dasharray="1,5" d="M1178.5403,-614.4186C1130.2045,-569.5089 994.1614,-450.2309 857,-395 529.7581,-263.2293 302.1385,-539.2281 73,-271 62.6075,-258.8346 65.7452,-249.2607 73,-235 75.0129,-231.0432 186.7731,-156.0407 216.7395,-132.1457"/>
<polygon fill="#0000ff" stroke="#0000ff" points="219.3278,-134.509 224,-125 214.4177,-129.5199 219.3278,-134.509"/>
<text text-anchor="middle" x="810" y="-365.8" font-family="Times,serif" font-size="14.00" fill="#000000">&quot;&quot;</text>
</g>
</g>
</svg>
