<?xml version="1.0" encoding="UTF-8" standalone="no"?>
<!DOCTYPE svg PUBLIC "-//W3C//DTD SVG 1.1//EN"
 "http://www.w3.org/Graphics/SVG/1.1/DTD/svg11.dtd">
<!-- Generated by graphviz version 2.44.0 (20200408.0750)
 -->
<!-- Title: router Pages: 1 -->
<svg width="2202pt" height="939pt"
 viewBox="0.00 0.00 2201.58 939.00" xmlns="http://www.w3.org/2000/svg" xmlns:xlink="http://www.w3.org/1999/xlink">
<g id="graph0" class="graph" transform="scale(1 1) rotate(0) translate(4 935)">
<title>router</title>
<polygon fill="white" stroke="transparent" points="-4,4 -4,-935 2197.58,-935 2197.58,4 -4,4"/>
<text text-anchor="middle" x="1096.79" y="-915.8" font-family="Times,serif" font-size="14.00">/router</text>
<g id="clust2" class="cluster">
<title>cluster_B_tracker</title>
<polygon fill="none" stroke="black" points="1181.44,-154 1181.44,-758 2151.44,-758 2151.44,-154 1181.44,-154"/>
<text text-anchor="middle" x="1666.44" y="-742.8" font-family="Times,serif" font-size="14.00">/router/B_tracker</text>
</g>
<g id="clust1" class="cluster">
<title>cluster_A_tracker</title>
<polygon fill="none" stroke="black" points="179.44,-8 179.44,-490 1125.44,-490 1125.44,-8 179.44,-8"/>
<text text-anchor="middle" x="652.44" y="-474.8" font-family="Times,serif" font-size="14.00">/router/A_tracker</text>
</g>
<!-- r0 -->
<g id="node1" class="node">
<title>r0</title>
<g id="a_node1"><a xlink:href="file:///Users/andrew/workspace/flow/flowruntime/stdio/readline.html" xlink:title="readline (#0)">
<ellipse fill="coral" stroke="black" cx="664.44" cy="-890" rx="55.79" ry="18"/>
<text text-anchor="middle" x="664.44" y="-886.3" font-family="Times,serif" font-size="14.00">readline (#0)</text>
</a>
</g>
</g>
<!-- r1 -->
<g id="node2" class="node">
<title>r1</title>
<g id="a_node2"><a xlink:href="file:///Users/andrew/workspace/flow/flowstdlib/fmt/to_number/to_number.html" xlink:title="to_number (#1)">
<ellipse fill="coral" stroke="black" cx="720.44" cy="-817" rx="66.09" ry="18"/>
<text text-anchor="middle" x="720.44" y="-813.3" font-family="Times,serif" font-size="14.00">to_number (#1)</text>
</a>
</g>
</g>
<!-- r0&#45;&gt;r1 -->
<g id="edge1" class="edge">
<title>r0:e&#45;&gt;r1:n</title>
<path fill="none" stroke="black" d="M721.44,-890C742.64,-890 726.32,-867.02 721.61,-844.98"/>
<polygon fill="black" stroke="black" points="725.08,-844.52 720.44,-835 718.13,-845.34 725.08,-844.52"/>
</g>
<!-- r2 -->
<g id="node3" class="node">
<title>r2</title>
<g id="a_node3"><a xlink:href="file:///Users/andrew/workspace/flow/flowstdlib/data/accumulate/accumulate.html" xlink:title="accumulate_triples (#2)">
<ellipse fill="coral" stroke="black" cx="919.44" cy="-709" rx="94.78" ry="18"/>
<text text-anchor="middle" x="919.44" y="-705.3" font-family="Times,serif" font-size="14.00">accumulate_triples (#2)</text>
</a>
</g>
</g>
<!-- r1&#45;&gt;r2 -->
<g id="edge2" class="edge">
<title>r1:e&#45;&gt;r2:n</title>
<path fill="none" stroke="black" d="M788.44,-817C796,-817 887.31,-757.77 912.84,-735.53"/>
<polygon fill="black" stroke="black" points="915.48,-737.83 919.44,-728 910.21,-733.21 915.48,-737.83"/>
<text text-anchor="middle" x="901.94" y="-731.8" font-family="Times,serif" font-size="14.00">values</text>
</g>
<!-- r2&#45;&gt;r2 -->
<g id="edge5" class="edge">
<title>r2:e&#45;&gt;r2:ne</title>
<path fill="none" stroke="black" d="M1014.44,-709C1038.33,-698.5 1086.33,-698.5 1086.33,-718 1086.33,-736.36 1003.68,-737.43 947.58,-728.74"/>
<polygon fill="black" stroke="black" points="947.88,-725.24 937.44,-727 946.7,-732.14 947.88,-725.24"/>
<text text-anchor="middle" x="954.94" y="-730.8" font-family="Times,serif" font-size="14.00">partial</text>
<text text-anchor="middle" x="1033.94" y="-712.8" font-family="Times,serif" font-size="14.00">/partial</text>
</g>
<!-- r4 -->
<g id="node6" class="node">
<title>r4</title>
<g id="a_node6"><a xlink:href="file:///Users/andrew/workspace/flow/flowstdlib/math/add/add.html" xlink:title="forward_sum (#4)">
<ellipse fill="coral" stroke="black" cx="627.44" cy="-354" rx="75.29" ry="18"/>
<text text-anchor="middle" x="627.44" y="-350.3" font-family="Times,serif" font-size="14.00">forward_sum (#4)</text>
</a>
</g>
</g>
<!-- r2&#45;&gt;r4 -->
<g id="edge6" class="edge">
<title>r2:s&#45;&gt;r4:n</title>
<path fill="none" stroke="black" d="M919.44,-691C919.44,-503.5 78.44,-810.5 78.44,-623 78.44,-623 78.44,-623 78.44,-498 78.44,-324.43 348.96,-400.3 446.44,-390 463.87,-388.16 587.18,-391.17 619.63,-378.83"/>
<polygon fill="black" stroke="black" points="622.21,-381.22 627.44,-372 617.61,-375.95 622.21,-381.22"/>
<text text-anchor="middle" x="621.94" y="-375.8" font-family="Times,serif" font-size="14.00">i1</text>
<text text-anchor="middle" x="895.44" y="-679.8" font-family="Times,serif" font-size="14.00">/chunk/0</text>
</g>
<!-- r3 -->
<g id="node7" class="node">
<title>r3</title>
<g id="a_node7"><a xlink:href="file:///Users/andrew/workspace/flow/flowstdlib/math/add/add.html" xlink:title="cross_distance (#3)">
<ellipse fill="coral" stroke="black" cx="1038.44" cy="-441" rx="79.09" ry="18"/>
<text text-anchor="middle" x="1038.44" y="-437.3" font-family="Times,serif" font-size="14.00">cross_distance (#3)</text>
</a>
</g>
</g>
<!-- r2&#45;&gt;r3 -->
<g id="edge7" class="edge">
<title>r2:sw&#45;&gt;r3:ne</title>
<path fill="none" stroke="black" d="M901.44,-691C866.94,-656.5 57.58,-707.85 23.44,-673 -8.29,-640.62 -7.15,-604.46 23.44,-571 91.1,-496.97 823.35,-505.49 922.44,-490 978.73,-481.2 1084.32,-500.3 1062.98,-467.76"/>
<polygon fill="black" stroke="black" points="1065.56,-465.39 1056.44,-460 1060.21,-469.9 1065.56,-465.39"/>
<text text-anchor="middle" x="1050.94" y="-463.8" font-family="Times,serif" font-size="14.00">i2</text>
<text text-anchor="middle" x="925.44" y="-679.8" font-family="Times,serif" font-size="14.00">/chunk/1</text>
</g>
<!-- r2&#45;&gt;r3 -->
<g id="edge8" class="edge">
<title>r2:se&#45;&gt;r3:n</title>
<path fill="none" stroke="black" d="M937.44,-691C1014.19,-614.24 1037.02,-574.57 1038.37,-470.3"/>
<polygon fill="black" stroke="black" points="1041.87,-470.02 1038.44,-460 1034.87,-469.98 1041.87,-470.02"/>
<text text-anchor="middle" x="1032.94" y="-463.8" font-family="Times,serif" font-size="14.00">i1</text>
<text text-anchor="middle" x="961.44" y="-679.8" font-family="Times,serif" font-size="14.00">/chunk/2</text>
</g>
<!-- r12 -->
<g id="node8" class="node">
<title>r12</title>
<g id="a_node8"><a xlink:href="file:///Users/andrew/workspace/flow/flowstdlib/math/add/add.html" xlink:title="forward_sum (#12)">
<ellipse fill="coral" stroke="black" cx="1268.44" cy="-535" rx="79.09" ry="18"/>
<text text-anchor="middle" x="1268.44" y="-531.3" font-family="Times,serif" font-size="14.00">forward_sum (#12)</text>
</a>
</g>
</g>
<!-- r2&#45;&gt;r12 -->
<g id="edge9" class="edge">
<title>r2:sw&#45;&gt;r12:n</title>
<path fill="none" stroke="black" d="M901.44,-691C872.28,-661.85 953.67,-687.03 992.44,-673 1081.46,-640.78 1090.49,-603.41 1179.44,-571 1194.99,-565.33 1244.92,-570.43 1262.36,-561.31"/>
<polygon fill="black" stroke="black" points="1265.35,-563.14 1268.44,-553 1259.71,-559 1265.35,-563.14"/>
<text text-anchor="middle" x="1262.94" y="-556.8" font-family="Times,serif" font-size="14.00">i1</text>
<text text-anchor="middle" x="877.44" y="-679.8" font-family="Times,serif" font-size="14.00">/chunk/1</text>
</g>
<!-- r11 -->
<g id="node9" class="node">
<title>r11</title>
<g id="a_node9"><a xlink:href="file:///Users/andrew/workspace/flow/flowstdlib/math/add/add.html" xlink:title="cross_distance (#11)">
<ellipse fill="coral" stroke="black" cx="1477.44" cy="-622" rx="83.39" ry="18"/>
<text text-anchor="middle" x="1477.44" y="-618.3" font-family="Times,serif" font-size="14.00">cross_distance (#11)</text>
</a>
</g>
</g>
<!-- r2&#45;&gt;r11 -->
<g id="edge10" class="edge">
<title>r2:se&#45;&gt;r11:n</title>
<path fill="none" stroke="black" d="M937.44,-691C953.29,-675.14 1116.11,-675.09 1138.44,-673 1146.9,-672.21 1413.79,-653.84 1467.92,-643.25"/>
<polygon fill="black" stroke="black" points="1469.11,-646.55 1477.44,-640 1466.84,-639.92 1469.11,-646.55"/>
<text text-anchor="middle" x="1471.94" y="-643.8" font-family="Times,serif" font-size="14.00">i1</text>
<text text-anchor="middle" x="913.44" y="-694.8" font-family="Times,serif" font-size="14.00">/chunk/2</text>
</g>
<!-- initializerr2_1 -->
<!-- initializerr2_1&#45;&gt;r2 -->
<g id="edge3" class="edge">
<title>initializerr2_1&#45;&gt;r2:n</title>
<path fill="none" stroke="blue" stroke-dasharray="1,5" d="M919.44,-798.8C919.44,-783.49 919.44,-760.18 919.44,-738.27"/>
<polygon fill="blue" stroke="blue" points="922.94,-738 919.44,-728 915.94,-738 922.94,-738"/>
<text text-anchor="middle" x="924.44" y="-769.8" font-family="Times,serif" font-size="14.00">[]</text>
</g>
<!-- initializerr2_2 -->
<!-- initializerr2_2&#45;&gt;r2 -->
<g id="edge4" class="edge">
<title>initializerr2_2&#45;&gt;r2:n</title>
<path fill="none" stroke="blue" d="M1067.19,-804.95C1015.94,-791.23 937.51,-766.13 922.11,-737.74"/>
<polygon fill="blue" stroke="blue" points="925.46,-736.72 919.44,-728 918.71,-738.57 925.46,-736.72"/>
<text text-anchor="middle" x="989.94" y="-769.8" font-family="Times,serif" font-size="14.00">3</text>
</g>
<!-- r6 -->
<g id="node12" class="node">
<title>r6</title>
<g id="a_node12"><a xlink:href="file:///Users/andrew/workspace/flow/flowstdlib/math/compare/compare.html" xlink:title="compare (#6)">
<ellipse fill="coral" stroke="black" cx="776.44" cy="-267" rx="58.49" ry="18"/>
<text text-anchor="middle" x="776.44" y="-263.3" font-family="Times,serif" font-size="14.00">compare (#6)</text>
</a>
</g>
</g>
<!-- r4&#45;&gt;r6 -->
<g id="edge13" class="edge">
<title>r4:se&#45;&gt;r6:n</title>
<path fill="none" stroke="black" d="M645.44,-336C686.94,-294.5 766.08,-341.1 775.51,-295.1"/>
<polygon fill="black" stroke="black" points="779.01,-295.28 776.44,-285 772.04,-294.64 779.01,-295.28"/>
<text text-anchor="middle" x="766.94" y="-288.8" font-family="Times,serif" font-size="14.00">left</text>
<text text-anchor="middle" x="631.44" y="-324.8" font-family="Times,serif" font-size="14.00">/sum</text>
</g>
<!-- r9 -->
<g id="node13" class="node">
<title>r9</title>
<g id="a_node13"><a xlink:href="file:///Users/andrew/workspace/flow/flowstdlib/control/select/select.html" xlink:title="select_total (#9)">
<ellipse fill="coral" stroke="black" cx="843.44" cy="-180" rx="67.69" ry="18"/>
<text text-anchor="middle" x="843.44" y="-176.3" font-family="Times,serif" font-size="14.00">select_total (#9)</text>
</a>
</g>
</g>
<!-- r4&#45;&gt;r9 -->
<g id="edge14" class="edge">
<title>r4:se&#45;&gt;r9:n</title>
<path fill="none" stroke="black" d="M645.44,-336C675.15,-306.29 651.34,-277.26 682.44,-249 683.18,-248.33 799.41,-212.67 833.9,-201.37"/>
<polygon fill="black" stroke="black" points="835.18,-204.63 843.44,-198 832.84,-198.03 835.18,-204.63"/>
<text text-anchor="middle" x="837.94" y="-201.8" font-family="Times,serif" font-size="14.00">i1</text>
<text text-anchor="middle" x="659.44" y="-324.8" font-family="Times,serif" font-size="14.00">/sum</text>
</g>
<!-- r5 -->
<g id="node10" class="node">
<title>r5</title>
<g id="a_node10"><a xlink:href="file:///Users/andrew/workspace/flow/flowstdlib/math/add/add.html" xlink:title="cross_sum (#5)">
<ellipse fill="coral" stroke="black" cx="1255.44" cy="-267" rx="65.79" ry="18"/>
<text text-anchor="middle" x="1255.44" y="-263.3" font-family="Times,serif" font-size="14.00">cross_sum (#5)</text>
</a>
</g>
</g>
<!-- r3&#45;&gt;r5 -->
<g id="edge11" class="edge">
<title>r3:se&#45;&gt;r5:n</title>
<path fill="none" stroke="black" d="M1056.44,-423C1073.68,-405.76 1223.11,-328.53 1250.97,-294.17"/>
<polygon fill="black" stroke="black" points="1254.21,-295.52 1255.44,-285 1247.91,-292.46 1254.21,-295.52"/>
<text text-anchor="middle" x="1249.94" y="-288.8" font-family="Times,serif" font-size="14.00">i1</text>
<text text-anchor="middle" x="1042.44" y="-411.8" font-family="Times,serif" font-size="14.00">/sum</text>
</g>
<!-- r14 -->
<g id="node27" class="node">
<title>r14</title>
<g id="a_node27"><a xlink:href="file:///Users/andrew/workspace/flow/flowstdlib/math/compare/compare.html" xlink:title="compare (#14)">
<ellipse fill="coral" stroke="black" cx="1474.44" cy="-441" rx="63.09" ry="18"/>
<text text-anchor="middle" x="1474.44" y="-437.3" font-family="Times,serif" font-size="14.00">compare (#14)</text>
</a>
</g>
</g>
<!-- r12&#45;&gt;r14 -->
<g id="edge36" class="edge">
<title>r12:se&#45;&gt;r14:n</title>
<path fill="none" stroke="black" d="M1286.44,-517C1345.52,-457.91 1463.71,-539.68 1473.75,-470.29"/>
<polygon fill="black" stroke="black" points="1477.27,-470.21 1474.44,-460 1470.28,-469.75 1477.27,-470.21"/>
<text text-anchor="middle" x="1464.94" y="-463.8" font-family="Times,serif" font-size="14.00">left</text>
<text text-anchor="middle" x="1272.44" y="-505.8" font-family="Times,serif" font-size="14.00">/sum</text>
</g>
<!-- r17 -->
<g id="node28" class="node">
<title>r17</title>
<g id="a_node28"><a xlink:href="file:///Users/andrew/workspace/flow/flowstdlib/control/select/select.html" xlink:title="select_total (#17)">
<ellipse fill="coral" stroke="black" cx="1324.44" cy="-354" rx="72.29" ry="18"/>
<text text-anchor="middle" x="1324.44" y="-350.3" font-family="Times,serif" font-size="14.00">select_total (#17)</text>
</a>
</g>
</g>
<!-- r12&#45;&gt;r17 -->
<g id="edge37" class="edge">
<title>r12:se&#45;&gt;r17:n</title>
<path fill="none" stroke="black" d="M1286.44,-517C1300.51,-502.93 1256.32,-515.66 1245.44,-499 1226.97,-470.72 1229.28,-452.66 1245.44,-423 1263.55,-389.74 1313.72,-409.2 1322.96,-382.04"/>
<polygon fill="black" stroke="black" points="1326.45,-382.4 1324.44,-372 1319.52,-381.38 1326.45,-382.4"/>
<text text-anchor="middle" x="1318.94" y="-375.8" font-family="Times,serif" font-size="14.00">i1</text>
<text text-anchor="middle" x="1300.44" y="-505.8" font-family="Times,serif" font-size="14.00">/sum</text>
</g>
<!-- r13 -->
<g id="node22" class="node">
<title>r13</title>
<g id="a_node22"><a xlink:href="file:///Users/andrew/workspace/flow/flowstdlib/math/add/add.html" xlink:title="cross_sum (#13)">
<ellipse fill="coral" stroke="black" cx="1492.44" cy="-535" rx="69.59" ry="18"/>
<text text-anchor="middle" x="1492.44" y="-531.3" font-family="Times,serif" font-size="14.00">cross_sum (#13)</text>
</a>
</g>
</g>
<!-- r11&#45;&gt;r13 -->
<g id="edge34" class="edge">
<title>r11:se&#45;&gt;r13:n</title>
<path fill="none" stroke="black" d="M1495.44,-604C1508.98,-590.45 1497.53,-579.62 1493.63,-562.93"/>
<polygon fill="black" stroke="black" points="1497.1,-562.51 1492.44,-553 1490.15,-563.35 1497.1,-562.51"/>
<text text-anchor="middle" x="1486.94" y="-556.8" font-family="Times,serif" font-size="14.00">i1</text>
<text text-anchor="middle" x="1481.44" y="-592.8" font-family="Times,serif" font-size="14.00">/sum</text>
</g>
<!-- r5&#45;&gt;r6 -->
<g id="edge16" class="edge">
<title>r5:se&#45;&gt;r6:ne</title>
<path fill="none" stroke="black" d="M1274.44,-249C1301.04,-222.4 1227.36,-247.1 1189.79,-249 1031.47,-257.01 993.25,-276.99 834.93,-285 820.25,-285.74 813.44,-289.78 802.15,-287.32"/>
<polygon fill="black" stroke="black" points="803.03,-283.92 792.44,-284 800.77,-290.54 803.03,-283.92"/>
<text text-anchor="middle" x="805.44" y="-287.8" font-family="Times,serif" font-size="14.00">right</text>
<text text-anchor="middle" x="1260.44" y="-237.8" font-family="Times,serif" font-size="14.00">/sum</text>
</g>
<!-- r5&#45;&gt;r9 -->
<g id="edge17" class="edge">
<title>r5:se&#45;&gt;r9:ne</title>
<path fill="none" stroke="black" d="M1273.44,-249C1288.98,-233.46 1098.25,-233.67 1076.44,-231 1054.74,-228.35 910.44,-217.48 870.38,-202.79"/>
<polygon fill="black" stroke="black" points="871.91,-199.63 861.44,-198 868.6,-205.8 871.91,-199.63"/>
<text text-anchor="middle" x="855.94" y="-201.8" font-family="Times,serif" font-size="14.00">i2</text>
<text text-anchor="middle" x="1287.44" y="-237.8" font-family="Times,serif" font-size="14.00">/sum</text>
</g>
<!-- initializerr4_1 -->
<!-- initializerr4_1&#45;&gt;r4 -->
<g id="edge12" class="edge">
<title>initializerr4_1&#45;&gt;r4:w</title>
<path fill="none" stroke="blue" stroke-dasharray="1,5" d="M451.35,-423.01C467.59,-399.86 500.53,-360.59 540.43,-354.74"/>
<polygon fill="blue" stroke="blue" points="540.72,-358.23 550.44,-354 540.21,-351.24 540.72,-358.23"/>
<text text-anchor="middle" x="479.94" y="-393.8" font-family="Times,serif" font-size="14.00">0</text>
</g>
<!-- r6&#45;&gt;r9 -->
<g id="edge20" class="edge">
<title>r6:se&#45;&gt;r9:nw</title>
<path fill="none" stroke="black" d="M793.44,-249C809.7,-232.74 807.67,-220.74 818.79,-205.67"/>
<polygon fill="black" stroke="black" points="821.53,-207.85 825.44,-198 816.24,-203.26 821.53,-207.85"/>
<text text-anchor="middle" x="805.94" y="-201.8" font-family="Times,serif" font-size="14.00">control</text>
<text text-anchor="middle" x="784.44" y="-237.8" font-family="Times,serif" font-size="14.00">/lte</text>
</g>
<!-- r7 -->
<g id="node15" class="node">
<title>r7</title>
<g id="a_node15"><a xlink:href="file:///Users/andrew/workspace/flow/flowstdlib/control/select/select.html" xlink:title="select_string (#7)">
<ellipse fill="coral" stroke="black" cx="556.44" cy="-180" rx="72.29" ry="18"/>
<text text-anchor="middle" x="556.44" y="-176.3" font-family="Times,serif" font-size="14.00">select_string (#7)</text>
</a>
</g>
</g>
<!-- r6&#45;&gt;r7 -->
<g id="edge18" class="edge">
<title>r6:se&#45;&gt;r7:nw</title>
<path fill="none" stroke="black" d="M793.44,-249C797.91,-244.53 595.41,-212.75 548.14,-201.45"/>
<polygon fill="black" stroke="black" points="549.03,-198.05 538.44,-198 546.69,-204.65 549.03,-198.05"/>
<text text-anchor="middle" x="518.94" y="-201.8" font-family="Times,serif" font-size="14.00">control</text>
<text text-anchor="middle" x="802.44" y="-237.8" font-family="Times,serif" font-size="14.00">/lte</text>
</g>
<!-- r8 -->
<g id="node16" class="node">
<title>r8</title>
<g id="a_node16"><a xlink:href="file:///Users/andrew/workspace/flow/flowstdlib/control/select/select.html" xlink:title="select_route (#8)">
<ellipse fill="coral" stroke="black" cx="1259.44" cy="-180" rx="70.39" ry="18"/>
<text text-anchor="middle" x="1259.44" y="-176.3" font-family="Times,serif" font-size="14.00">select_route (#8)</text>
</a>
</g>
</g>
<!-- r6&#45;&gt;r8 -->
<g id="edge19" class="edge">
<title>r6:se&#45;&gt;r8:nw</title>
<path fill="none" stroke="black" d="M793.44,-249C810.15,-232.28 981.94,-233.64 1005.44,-231 1107.19,-219.57 1162.78,-269.39 1234.04,-205.04"/>
<polygon fill="black" stroke="black" points="1236.61,-207.43 1241.44,-198 1231.78,-202.36 1236.61,-207.43"/>
<text text-anchor="middle" x="1221.94" y="-201.8" font-family="Times,serif" font-size="14.00">control</text>
<text text-anchor="middle" x="784.44" y="-252.8" font-family="Times,serif" font-size="14.00">/lte</text>
</g>
<!-- r9&#45;&gt;r4 -->
<g id="edge27" class="edge">
<title>r9:e&#45;&gt;r4:ne</title>
<path fill="none" stroke="black" d="M912.44,-180C937.57,-180 887.86,-266.89 870.44,-285 841.34,-315.24 743.51,-361.69 702.83,-372 693.17,-374.45 669.08,-379.19 654.7,-376.84"/>
<polygon fill="black" stroke="black" points="656.02,-373.6 645.44,-373 653.33,-380.06 656.02,-373.6"/>
<text text-anchor="middle" x="639.94" y="-376.8" font-family="Times,serif" font-size="14.00">i2</text>
<text text-anchor="middle" x="938.44" y="-183.8" font-family="Times,serif" font-size="14.00">/select_i1</text>
</g>
<!-- r9&#45;&gt;r13 -->
<g id="edge28" class="edge">
<title>r9:e&#45;&gt;r13:ne</title>
<path fill="none" stroke="black" d="M912.44,-180C985.18,-180 1491.76,-236.64 1563.44,-249 1726.5,-277.11 1766.55,-289.81 1925.44,-336 2040.02,-369.31 2110.06,-325.91 2179.44,-423 2196.75,-447.23 2199.4,-467.9 2179.44,-490 2134.09,-540.21 1600.96,-556.22 1520.54,-554.67"/>
<polygon fill="black" stroke="black" points="1520.65,-551.17 1510.44,-554 1520.18,-558.16 1520.65,-551.17"/>
<text text-anchor="middle" x="1504.94" y="-557.8" font-family="Times,serif" font-size="14.00">i2</text>
<text text-anchor="middle" x="938.44" y="-168.8" font-family="Times,serif" font-size="14.00">/select_i1</text>
</g>
<!-- r19 -->
<g id="node23" class="node">
<title>r19</title>
<g id="a_node23"><a xlink:href="file:///Users/andrew/workspace/flow/flowruntime/stdio/stdout.html" xlink:title="print (#19)">
<ellipse fill="coral" stroke="black" cx="918.44" cy="-34" rx="48.99" ry="18"/>
<text text-anchor="middle" x="918.44" y="-30.3" font-family="Times,serif" font-size="14.00">print (#19)</text>
</a>
</g>
</g>
<!-- r9&#45;&gt;r19 -->
<g id="edge29" class="edge">
<title>r9:e&#45;&gt;r19:n</title>
<path fill="none" stroke="black" d="M912.44,-180C966.05,-180 924.04,-117.03 918.93,-62.14"/>
<polygon fill="black" stroke="black" points="922.42,-61.82 918.44,-52 915.43,-62.16 922.42,-61.82"/>
<text text-anchor="middle" x="886.44" y="-183.8" font-family="Times,serif" font-size="14.00">/select_i1</text>
</g>
<!-- initializerr5_1 -->
<!-- initializerr5_1&#45;&gt;r5 -->
<g id="edge15" class="edge">
<title>initializerr5_1&#45;&gt;r5:w</title>
<path fill="none" stroke="blue" stroke-dasharray="1,5" d="M857.86,-425.44C871.3,-419.18 887.15,-411.77 901.44,-405 916.02,-398.09 1128.05,-288.98 1178.63,-269.85"/>
<polygon fill="blue" stroke="blue" points="1179.81,-273.15 1188.44,-267 1177.86,-266.43 1179.81,-273.15"/>
<text text-anchor="middle" x="1037.94" y="-350.3" font-family="Times,serif" font-size="14.00">0</text>
</g>
<!-- r10 -->
<g id="node19" class="node">
<title>r10</title>
<g id="a_node19"><a xlink:href="file:///Users/andrew/workspace/flow/flowstdlib/data/append/append.html" xlink:title="Append (#10)">
<ellipse fill="coral" stroke="black" cx="1057.44" cy="-107" rx="59.59" ry="18"/>
<text text-anchor="middle" x="1057.44" y="-103.3" font-family="Times,serif" font-size="14.00">Append (#10)</text>
</a>
</g>
</g>
<!-- r7&#45;&gt;r10 -->
<g id="edge23" class="edge">
<title>r7:e&#45;&gt;r10:ne</title>
<path fill="none" stroke="black" d="M629.44,-180C679.67,-180 689.84,-161.96 739.44,-154 771.81,-148.81 1025.07,-150.78 1070.12,-133.61"/>
<polygon fill="black" stroke="black" points="1073.16,-135.35 1075.44,-125 1067.21,-131.67 1073.16,-135.35"/>
<text text-anchor="middle" x="1068.94" y="-128.8" font-family="Times,serif" font-size="14.00">s2</text>
<text text-anchor="middle" x="655.44" y="-183.8" font-family="Times,serif" font-size="14.00">/select_i1</text>
</g>
<!-- r8&#45;&gt;r10 -->
<g id="edge26" class="edge">
<title>r8:e&#45;&gt;r10:n</title>
<path fill="none" stroke="black" d="M1330.44,-180C1338.45,-180 1334.99,-167.78 1329.44,-162 1300.68,-132.04 1184.45,-150.49 1143.44,-144 1108.7,-138.5 1066.96,-159.14 1058.84,-135.01"/>
<polygon fill="black" stroke="black" points="1062.29,-134.42 1057.44,-125 1055.36,-135.39 1062.29,-134.42"/>
<text text-anchor="middle" x="1050.94" y="-128.8" font-family="Times,serif" font-size="14.00">s1</text>
<text text-anchor="middle" x="1356.44" y="-183.8" font-family="Times,serif" font-size="14.00">/select_i1</text>
</g>
<!-- initializerr7_0 -->
<!-- initializerr7_0&#45;&gt;r7 -->
<g id="edge21" class="edge">
<title>initializerr7_0&#45;&gt;r7:ne</title>
<path fill="none" stroke="blue" d="M541.49,-251.05C561.3,-239.32 583.33,-222.45 579.73,-206.93"/>
<polygon fill="blue" stroke="blue" points="582.55,-204.82 574.44,-198 576.52,-208.39 582.55,-204.82"/>
<text text-anchor="middle" x="589.44" y="-219.8" font-family="Times,serif" font-size="14.00">&quot;A&quot;</text>
</g>
<!-- initializerr7_1 -->
<!-- initializerr7_1&#45;&gt;r7 -->
<g id="edge22" class="edge">
<title>initializerr7_1&#45;&gt;r7:w</title>
<path fill="none" stroke="blue" d="M337.02,-249.42C363.83,-225.84 417.71,-184.97 473.39,-180.42"/>
<polygon fill="blue" stroke="blue" points="473.59,-183.91 483.44,-180 473.3,-176.92 473.59,-183.91"/>
<text text-anchor="middle" x="392.94" y="-219.8" font-family="Times,serif" font-size="14.00">&quot;BC&quot;</text>
</g>
<!-- r10&#45;&gt;r8 -->
<g id="edge30" class="edge">
<title>r10:e&#45;&gt;r8:n</title>
<path fill="none" stroke="black" d="M1118.44,-107C1166.93,-107 1299.97,-123.63 1329.63,-162 1339.42,-174.66 1340.86,-186.61 1329.63,-198 1325.46,-202.23 1286.92,-205.12 1268.78,-202.81"/>
<polygon fill="black" stroke="black" points="1270.02,-199.54 1259.44,-199 1267.37,-206.02 1270.02,-199.54"/>
<text text-anchor="middle" x="1253.94" y="-202.8" font-family="Times,serif" font-size="14.00">i1</text>
</g>
<!-- r10&#45;&gt;r19 -->
<g id="edge32" class="edge">
<title>r10:e&#45;&gt;r19:n</title>
<path fill="none" stroke="black" d="M1118.44,-107C1126.45,-107 1122.73,-95.02 1117.44,-89 1090.29,-58.12 946.5,-90.36 921.99,-61.78"/>
<polygon fill="black" stroke="black" points="925.14,-60.2 918.44,-52 918.56,-62.59 925.14,-60.2"/>
</g>
<!-- r16 -->
<g id="node24" class="node">
<title>r16</title>
<g id="a_node24"><a xlink:href="file:///Users/andrew/workspace/flow/flowstdlib/control/select/select.html" xlink:title="select_route (#16)">
<ellipse fill="coral" stroke="black" cx="1543.44" cy="-354" rx="74.99" ry="18"/>
<text text-anchor="middle" x="1543.44" y="-350.3" font-family="Times,serif" font-size="14.00">select_route (#16)</text>
</a>
</g>
</g>
<!-- r10&#45;&gt;r16 -->
<g id="edge31" class="edge">
<title>r10:e&#45;&gt;r16:ne</title>
<path fill="none" stroke="black" d="M1118.44,-107C1326.04,-107 1394.33,-128.58 1563.44,-249 1612.18,-283.71 1661,-330.2 1618.18,-372 1611.06,-378.95 1585.4,-381.11 1570.51,-377.33"/>
<polygon fill="black" stroke="black" points="1571.97,-374.15 1561.44,-373 1568.96,-380.46 1571.97,-374.15"/>
<text text-anchor="middle" x="1555.94" y="-376.8" font-family="Times,serif" font-size="14.00">i2</text>
</g>
<!-- initializerr8_0 -->
<!-- initializerr8_0&#45;&gt;r8 -->
<g id="edge24" class="edge">
<title>initializerr8_0&#45;&gt;r8:ne</title>
<path fill="none" stroke="blue" stroke-dasharray="1,5" d="M670.27,-426.66C795.72,-381.16 1202.26,-233.24 1268.37,-203.2"/>
<polygon fill="blue" stroke="blue" points="1270.5,-206.01 1277.44,-198 1267.02,-199.94 1270.5,-206.01"/>
<text text-anchor="middle" x="1008.94" y="-306.8" font-family="Times,serif" font-size="14.00">&quot;&quot;</text>
</g>
<!-- initializerr8_1 -->
<!-- initializerr8_1&#45;&gt;r8 -->
<g id="edge25" class="edge">
<title>initializerr8_1&#45;&gt;r8:w</title>
<path fill="none" stroke="blue" stroke-dasharray="1,5" d="M237.56,-422.96C217.48,-385.83 177.49,-297.09 223.44,-249 238.61,-233.12 596.5,-232.19 618.44,-231 735.16,-224.67 1029.4,-223.7 1143.44,-198 1160.67,-194.12 1165.42,-184.49 1178.46,-181.16"/>
<polygon fill="blue" stroke="blue" points="1178.91,-184.63 1188.44,-180 1178.1,-177.68 1178.91,-184.63"/>
<text text-anchor="middle" x="208.94" y="-306.8" font-family="Times,serif" font-size="14.00">&quot;&quot;</text>
</g>
<!-- r13&#45;&gt;r14 -->
<g id="edge38" class="edge">
<title>r13:se&#45;&gt;r14:ne</title>
<path fill="none" stroke="black" d="M1510.44,-517C1527.22,-500.22 1514.77,-483.08 1498.55,-466.21"/>
<polygon fill="black" stroke="black" points="1500.95,-463.66 1491.44,-459 1495.97,-468.58 1500.95,-463.66"/>
<text text-anchor="middle" x="1504.44" y="-462.8" font-family="Times,serif" font-size="14.00">right</text>
<text text-anchor="middle" x="1496.44" y="-505.8" font-family="Times,serif" font-size="14.00">/sum</text>
</g>
<!-- r13&#45;&gt;r17 -->
<g id="edge39" class="edge">
<title>r13:se&#45;&gt;r17:ne</title>
<path fill="none" stroke="black" d="M1510.44,-517C1553.7,-473.73 1420.3,-531.61 1375.44,-490 1338.16,-455.43 1375.29,-416.12 1349.05,-379.72"/>
<polygon fill="black" stroke="black" points="1351.6,-377.32 1342.44,-372 1346.28,-381.87 1351.6,-377.32"/>
<text text-anchor="middle" x="1336.94" y="-375.8" font-family="Times,serif" font-size="14.00">i2</text>
<text text-anchor="middle" x="1524.44" y="-505.8" font-family="Times,serif" font-size="14.00">/sum</text>
</g>
<!-- r18 -->
<g id="node32" class="node">
<title>r18</title>
<g id="a_node32"><a xlink:href="file:///Users/andrew/workspace/flow/flowstdlib/data/append/append.html" xlink:title="Append (#18)">
<ellipse fill="coral" stroke="black" cx="1467.44" cy="-267" rx="59.59" ry="18"/>
<text text-anchor="middle" x="1467.44" y="-263.3" font-family="Times,serif" font-size="14.00">Append (#18)</text>
</a>
</g>
</g>
<!-- r16&#45;&gt;r18 -->
<g id="edge47" class="edge">
<title>r16:e&#45;&gt;r18:n</title>
<path fill="none" stroke="black" d="M1619.44,-354C1627.45,-354 1623.76,-341.99 1618.44,-336 1587.88,-301.57 1559.12,-335.23 1516.44,-318 1495.7,-309.63 1474.75,-310.62 1468.99,-294.89"/>
<polygon fill="black" stroke="black" points="1472.44,-294.34 1467.44,-285 1465.53,-295.42 1472.44,-294.34"/>
<text text-anchor="middle" x="1460.94" y="-288.8" font-family="Times,serif" font-size="14.00">s1</text>
<text text-anchor="middle" x="1645.44" y="-357.8" font-family="Times,serif" font-size="14.00">/select_i1</text>
</g>
<!-- initializerr11_1 -->
<!-- initializerr11_1&#45;&gt;r11 -->
<g id="edge33" class="edge">
<title>initializerr11_1&#45;&gt;r11:w</title>
<path fill="none" stroke="blue" d="M1386.57,-691.01C1378.73,-669.67 1368.68,-634.63 1382.75,-624.7"/>
<polygon fill="blue" stroke="blue" points="1383.74,-628.05 1392.44,-622 1381.86,-621.31 1383.74,-628.05"/>
<text text-anchor="middle" x="1383.94" y="-661.8" font-family="Times,serif" font-size="14.00">0</text>
</g>
<!-- initializerr12_1 -->
<!-- initializerr12_1&#45;&gt;r12 -->
<g id="edge35" class="edge">
<title>initializerr12_1&#45;&gt;r12:w</title>
<path fill="none" stroke="blue" stroke-dasharray="1,5" d="M1236.05,-604.82C1208.46,-583.22 1165.38,-546.58 1177.65,-537.22"/>
<polygon fill="blue" stroke="blue" points="1178.46,-540.63 1187.44,-535 1176.91,-533.8 1178.46,-540.63"/>
<text text-anchor="middle" x="1215.94" y="-574.8" font-family="Times,serif" font-size="14.00">0</text>
</g>
<!-- r14&#45;&gt;r16 -->
<g id="edge41" class="edge">
<title>r14:se&#45;&gt;r16:nw</title>
<path fill="none" stroke="black" d="M1491.44,-423C1507.99,-406.45 1506.98,-394.91 1518.59,-379.76"/>
<polygon fill="black" stroke="black" points="1521.45,-381.81 1525.44,-372 1516.2,-377.18 1521.45,-381.81"/>
<text text-anchor="middle" x="1505.94" y="-375.8" font-family="Times,serif" font-size="14.00">control</text>
<text text-anchor="middle" x="1482.44" y="-411.8" font-family="Times,serif" font-size="14.00">/lte</text>
</g>
<!-- r14&#45;&gt;r17 -->
<g id="edge42" class="edge">
<title>r14:se&#45;&gt;r17:nw</title>
<path fill="none" stroke="black" d="M1491.44,-423C1517.59,-396.85 1336.58,-400.38 1307.71,-382.11"/>
<polygon fill="black" stroke="black" points="1311.16,-381.49 1306.44,-372 1304.21,-382.36 1311.16,-381.49"/>
<text text-anchor="middle" x="1286.94" y="-375.8" font-family="Times,serif" font-size="14.00">control</text>
<text text-anchor="middle" x="1500.44" y="-411.8" font-family="Times,serif" font-size="14.00">/lte</text>
</g>
<!-- r15 -->
<g id="node29" class="node">
<title>r15</title>
<g id="a_node29"><a xlink:href="file:///Users/andrew/workspace/flow/flowstdlib/control/select/select.html" xlink:title="select_string (#15)">
<ellipse fill="coral" stroke="black" cx="1812.44" cy="-354" rx="76.89" ry="18"/>
<text text-anchor="middle" x="1812.44" y="-350.3" font-family="Times,serif" font-size="14.00">select_string (#15)</text>
</a>
</g>
</g>
<!-- r14&#45;&gt;r15 -->
<g id="edge40" class="edge">
<title>r14:se&#45;&gt;r15:nw</title>
<path fill="none" stroke="black" d="M1491.44,-423C1514.08,-400.35 1602.84,-410.24 1634.44,-405 1702.57,-393.7 1739.4,-420.49 1787.01,-378.95"/>
<polygon fill="black" stroke="black" points="1789.53,-381.39 1794.44,-372 1784.75,-376.28 1789.53,-381.39"/>
<text text-anchor="middle" x="1774.94" y="-375.8" font-family="Times,serif" font-size="14.00">control</text>
<text text-anchor="middle" x="1482.44" y="-426.8" font-family="Times,serif" font-size="14.00">/lte</text>
</g>
<!-- r17&#45;&gt;r12 -->
<g id="edge48" class="edge">
<title>r17:e&#45;&gt;r12:ne</title>
<path fill="none" stroke="black" d="M1397.44,-354C1405.45,-354 1401.59,-365.86 1396.44,-372 1373.84,-398.92 1341.28,-362.47 1319.44,-390 1289.33,-427.95 1296.12,-456.53 1319.44,-499 1326.61,-512.06 1340.56,-503.94 1347.73,-517 1355.43,-531.03 1358.95,-541.59 1347.73,-553 1340.12,-560.74 1311.83,-562.9 1295.78,-558.58"/>
<polygon fill="black" stroke="black" points="1296.96,-555.26 1286.44,-554 1293.88,-561.54 1296.96,-555.26"/>
<text text-anchor="middle" x="1280.94" y="-557.8" font-family="Times,serif" font-size="14.00">i2</text>
<text text-anchor="middle" x="1423.44" y="-357.8" font-family="Times,serif" font-size="14.00">/select_i1</text>
</g>
<!-- r17&#45;&gt;r5 -->
<g id="edge49" class="edge">
<title>r17:e&#45;&gt;r5:ne</title>
<path fill="none" stroke="black" d="M1397.44,-354C1405.45,-354 1401.07,-342.54 1396.44,-336 1364.35,-290.74 1321.1,-322.3 1281.34,-291.94"/>
<polygon fill="black" stroke="black" points="1283.26,-288.97 1273.44,-285 1278.64,-294.23 1283.26,-288.97"/>
<text text-anchor="middle" x="1267.94" y="-288.8" font-family="Times,serif" font-size="14.00">i2</text>
<text text-anchor="middle" x="1423.44" y="-342.8" font-family="Times,serif" font-size="14.00">/select_i1</text>
</g>
<!-- r15&#45;&gt;r18 -->
<g id="edge45" class="edge">
<title>r15:e&#45;&gt;r18:ne</title>
<path fill="none" stroke="black" d="M1890.44,-354C1898.45,-354 1894.9,-341.86 1889.44,-336 1885.93,-332.23 1557.45,-296.39 1495.44,-286.96"/>
<polygon fill="black" stroke="black" points="1495.92,-283.49 1485.44,-285 1494.58,-290.36 1495.92,-283.49"/>
<text text-anchor="middle" x="1478.94" y="-288.8" font-family="Times,serif" font-size="14.00">s2</text>
<text text-anchor="middle" x="1916.44" y="-357.8" font-family="Times,serif" font-size="14.00">/select_i1</text>
</g>
<!-- initializerr15_0 -->
<!-- initializerr15_0&#45;&gt;r15 -->
<g id="edge43" class="edge">
<title>initializerr15_0&#45;&gt;r15:ne</title>
<path fill="none" stroke="blue" d="M2023.21,-431.37C1964.01,-421.12 1873.77,-402.37 1838.51,-378.52"/>
<polygon fill="blue" stroke="blue" points="1840.42,-375.56 1830.44,-372 1836.02,-381 1840.42,-375.56"/>
<text text-anchor="middle" x="1912.44" y="-393.8" font-family="Times,serif" font-size="14.00">&quot;B&quot;</text>
</g>
<!-- initializerr15_1 -->
<!-- initializerr15_1&#45;&gt;r15 -->
<g id="edge44" class="edge">
<title>initializerr15_1&#45;&gt;r15:w</title>
<path fill="none" stroke="blue" d="M1851.68,-424.25C1834.4,-413.69 1810.56,-399.93 1788.44,-390 1765.74,-379.81 1750.48,-391.81 1735.44,-372 1733.62,-369.61 1731.9,-366.48 1730.88,-363.5"/>
<polygon fill="blue" stroke="blue" points="1734.21,-364.59 1734.44,-354 1727.65,-362.14 1734.21,-364.59"/>
<text text-anchor="middle" x="1828.44" y="-393.8" font-family="Times,serif" font-size="14.00">&quot;C&quot;</text>
</g>
<!-- r18&#45;&gt;r8 -->
<g id="edge51" class="edge">
<title>r18:e&#45;&gt;r8:ne</title>
<path fill="none" stroke="black" d="M1528.44,-267C1536.45,-267 1532.68,-255.06 1527.44,-249 1510.46,-229.35 1331.63,-219.73 1286.31,-202.84"/>
<polygon fill="black" stroke="black" points="1287.89,-199.72 1277.44,-198 1284.54,-205.86 1287.89,-199.72"/>
<text text-anchor="middle" x="1271.94" y="-201.8" font-family="Times,serif" font-size="14.00">i2</text>
</g>
<!-- r18&#45;&gt;r16 -->
<g id="edge50" class="edge">
<title>r18:e&#45;&gt;r16:n</title>
<path fill="none" stroke="black" d="M1528.44,-267C1564.58,-267 1650.72,-339.02 1618.18,-372 1613.69,-376.55 1571.85,-379.61 1552.8,-376.99"/>
<polygon fill="black" stroke="black" points="1554.01,-373.7 1543.44,-373 1551.26,-380.14 1554.01,-373.7"/>
<text text-anchor="middle" x="1537.94" y="-376.8" font-family="Times,serif" font-size="14.00">i1</text>
</g>
<!-- initializerr16_0 -->
<!-- initializerr16_0&#45;&gt;r16 -->
<g id="edge46" class="edge">
<title>initializerr16_0&#45;&gt;r16:ne</title>
<path fill="none" stroke="blue" stroke-dasharray="1,5" d="M1641.36,-425.48C1619.59,-414.86 1591.11,-398.84 1568.76,-378.91"/>
<polygon fill="blue" stroke="blue" points="1571.11,-376.31 1561.44,-372 1566.31,-381.41 1571.11,-376.31"/>
<text text-anchor="middle" x="1609.94" y="-393.8" font-family="Times,serif" font-size="14.00">&quot;&quot;</text>
</g>
</g>
</svg>
