<?xml version="1.0" encoding="UTF-8" standalone="no"?>
<!DOCTYPE svg PUBLIC "-//W3C//DTD SVG 1.1//EN"
 "http://www.w3.org/Graphics/SVG/1.1/DTD/svg11.dtd">
<!-- Generated by graphviz version 2.44.0 (20200408.0750)
 -->
<!-- Title: router Pages: 1 -->
<svg width="1946pt" height="852pt"
 viewBox="0.00 0.00 1946.00 852.00" xmlns="http://www.w3.org/2000/svg" xmlns:xlink="http://www.w3.org/1999/xlink">
<g id="graph0" class="graph" transform="scale(1 1) rotate(0) translate(4 848)">
<title>router</title>
<polygon fill="white" stroke="transparent" points="-4,4 -4,-848 1942,-848 1942,4 -4,4"/>
<text text-anchor="middle" x="969" y="-828.8" font-family="Times,serif" font-size="14.00">/router</text>
<g id="clust1" class="cluster">
<title>cluster_A_tracker</title>
<polygon fill="none" stroke="black" points="1050,-81 1050,-598 1930,-598 1930,-81 1050,-81"/>
<text text-anchor="middle" x="1490" y="-582.8" font-family="Times,serif" font-size="14.00">/router/A_tracker</text>
</g>
<g id="clust2" class="cluster">
<title>cluster_B_tracker</title>
<polygon fill="none" stroke="black" points="8,-8 8,-417 702,-417 702,-8 8,-8"/>
<text text-anchor="middle" x="355" y="-401.8" font-family="Times,serif" font-size="14.00">/router/B_tracker</text>
</g>
<!-- r0 -->
<g id="node1" class="node">
<title>r0</title>
<g id="a_node1"><a xlink:href="file:///Users/andrew/workspace/flow/flowruntime/stdio/readline.html" xlink:title="readline (#0)">
<ellipse fill="coral" stroke="black" cx="494" cy="-803" rx="55.79" ry="18"/>
<text text-anchor="middle" x="494" y="-799.3" font-family="Times,serif" font-size="14.00">readline (#0)</text>
</a>
</g>
</g>
<!-- r1 -->
<g id="node2" class="node">
<title>r1</title>
<g id="a_node2"><a xlink:href="file:///Users/andrew/workspace/flow/flowstdlib/fmt/to_json/to_json.html" xlink:title="to_json (#1)">
<ellipse fill="coral" stroke="black" cx="550" cy="-730" rx="53.89" ry="18"/>
<text text-anchor="middle" x="550" y="-726.3" font-family="Times,serif" font-size="14.00">to_json (#1)</text>
</a>
</g>
</g>
<!-- r0&#45;&gt;r1 -->
<g id="edge1" class="edge">
<title>r0:e&#45;&gt;r1:n</title>
<path fill="none" stroke="black" d="M551,-803C572.2,-803 555.88,-780.02 551.17,-757.98"/>
<polygon fill="black" stroke="black" points="554.64,-757.52 550,-748 547.69,-758.34 554.64,-757.52"/>
</g>
<!-- r2 -->
<g id="node3" class="node">
<title>r2</title>
<g id="a_node3"><a xlink:href="file:///Users/andrew/workspace/flow/flowstdlib/data/accumulate/accumulate.html" xlink:title="accumulate_triples (#2)">
<ellipse fill="coral" stroke="black" cx="736" cy="-643" rx="94.78" ry="18"/>
<text text-anchor="middle" x="736" y="-639.3" font-family="Times,serif" font-size="14.00">accumulate_triples (#2)</text>
</a>
</g>
</g>
<!-- r1&#45;&gt;r2 -->
<g id="edge2" class="edge">
<title>r1:e&#45;&gt;r2:n</title>
<path fill="none" stroke="black" d="M605,-730C605.43,-730 697.54,-681.69 727.03,-665.92"/>
<polygon fill="black" stroke="black" points="728.91,-668.88 736,-661 725.55,-662.74 728.91,-668.88"/>
<text text-anchor="middle" x="718.5" y="-664.8" font-family="Times,serif" font-size="14.00">values</text>
</g>
<!-- r2&#45;&gt;r2 -->
<g id="edge5" class="edge">
<title>r2:e&#45;&gt;r2:ne</title>
<path fill="none" stroke="black" d="M831,-643C854.89,-634 902.89,-634 902.89,-652 902.89,-668.95 820.24,-669.94 764.14,-662.49"/>
<polygon fill="black" stroke="black" points="764.4,-658.99 754,-661 763.39,-665.91 764.4,-658.99"/>
<text text-anchor="middle" x="771.5" y="-664.8" font-family="Times,serif" font-size="14.00">partial</text>
<text text-anchor="middle" x="850.5" y="-646.8" font-family="Times,serif" font-size="14.00">/partial</text>
</g>
<!-- r4 -->
<g id="node6" class="node">
<title>r4</title>
<g id="a_node6"><a xlink:href="file:///Users/andrew/workspace/flow/flowstdlib/math/add/add.html" xlink:title="forward_sum (#4)">
<ellipse fill="coral" stroke="black" cx="1202" cy="-462" rx="75.29" ry="18"/>
<text text-anchor="middle" x="1202" y="-458.3" font-family="Times,serif" font-size="14.00">forward_sum (#4)</text>
</a>
</g>
</g>
<!-- r2&#45;&gt;r4 -->
<g id="edge6" class="edge">
<title>r2:s&#45;&gt;r4:n</title>
<path fill="none" stroke="black" d="M736,-625C736,-458.68 926.91,-539.38 1088,-498 1109.25,-492.54 1177.57,-502.02 1196.88,-488.82"/>
<polygon fill="black" stroke="black" points="1200,-490.4 1202,-480 1193.95,-486.89 1200,-490.4"/>
<text text-anchor="middle" x="1196.5" y="-483.8" font-family="Times,serif" font-size="14.00">i1</text>
<text text-anchor="middle" x="712" y="-613.8" font-family="Times,serif" font-size="14.00">/chunk/0</text>
</g>
<!-- r3 -->
<g id="node7" class="node">
<title>r3</title>
<g id="a_node7"><a xlink:href="file:///Users/andrew/workspace/flow/flowstdlib/math/add/add.html" xlink:title="cross_distance (#3)">
<ellipse fill="coral" stroke="black" cx="1523" cy="-549" rx="79.09" ry="18"/>
<text text-anchor="middle" x="1523" y="-545.3" font-family="Times,serif" font-size="14.00">cross_distance (#3)</text>
</a>
</g>
</g>
<!-- r2&#45;&gt;r3 -->
<g id="edge7" class="edge">
<title>r2:sw&#45;&gt;r3:ne</title>
<path fill="none" stroke="black" d="M718,-625C690.91,-597.91 1369.01,-602.9 1407,-598 1463.51,-590.71 1568.91,-608.5 1547.55,-575.78"/>
<polygon fill="black" stroke="black" points="1550.12,-573.4 1541,-568 1544.76,-577.9 1550.12,-573.4"/>
<text text-anchor="middle" x="1546.5" y="-571.8" font-family="Times,serif" font-size="14.00">i2</text>
<text text-anchor="middle" x="742" y="-613.8" font-family="Times,serif" font-size="14.00">/chunk/1</text>
</g>
<!-- r2&#45;&gt;r3 -->
<g id="edge8" class="edge">
<title>r2:se&#45;&gt;r3:n</title>
<path fill="none" stroke="black" d="M754,-625C779.67,-599.33 1371.08,-603.33 1407,-598 1455.97,-590.74 1514.15,-617.08 1522.09,-578.03"/>
<polygon fill="black" stroke="black" points="1525.58,-578.28 1523,-568 1518.61,-577.64 1525.58,-578.28"/>
<text text-anchor="middle" x="1517.5" y="-571.8" font-family="Times,serif" font-size="14.00">i1</text>
<text text-anchor="middle" x="778" y="-613.8" font-family="Times,serif" font-size="14.00">/chunk/2</text>
</g>
<!-- r12 -->
<g id="node8" class="node">
<title>r12</title>
<g id="a_node8"><a xlink:href="file:///Users/andrew/workspace/flow/flowstdlib/math/add/add.html" xlink:title="forward_sum (#12)">
<ellipse fill="coral" stroke="black" cx="377" cy="-281" rx="79.09" ry="18"/>
<text text-anchor="middle" x="377" y="-277.3" font-family="Times,serif" font-size="14.00">forward_sum (#12)</text>
</a>
</g>
</g>
<!-- r2&#45;&gt;r12 -->
<g id="edge9" class="edge">
<title>r2:sw&#45;&gt;r12:n</title>
<path fill="none" stroke="black" d="M718,-625C507.06,-414.06 51,-848.31 51,-550 51,-550 51,-550 51,-367 51,-288.67 143.25,-332.63 220,-317 234.72,-314 339.15,-315.81 369.03,-305.4"/>
<polygon fill="black" stroke="black" points="371.4,-307.99 377,-299 367.01,-302.54 371.4,-307.99"/>
<text text-anchor="middle" x="371.5" y="-302.8" font-family="Times,serif" font-size="14.00">i1</text>
<text text-anchor="middle" x="694" y="-613.8" font-family="Times,serif" font-size="14.00">/chunk/1</text>
</g>
<!-- r11 -->
<g id="node9" class="node">
<title>r11</title>
<g id="a_node9"><a xlink:href="file:///Users/andrew/workspace/flow/flowstdlib/math/add/add.html" xlink:title="cross_distance (#11)">
<ellipse fill="coral" stroke="black" cx="611" cy="-281" rx="83.39" ry="18"/>
<text text-anchor="middle" x="611" y="-277.3" font-family="Times,serif" font-size="14.00">cross_distance (#11)</text>
</a>
</g>
</g>
<!-- r2&#45;&gt;r11 -->
<g id="edge10" class="edge">
<title>r2:se&#45;&gt;r11:n</title>
<path fill="none" stroke="black" d="M754,-625C766.93,-612.07 775.01,-615.87 791,-607 832.74,-583.86 882,-597.72 882,-550 882,-550 882,-550 882,-367 882,-246.46 626.65,-412.87 611.68,-309.15"/>
<polygon fill="black" stroke="black" points="615.17,-308.74 611,-299 608.18,-309.21 615.17,-308.74"/>
<text text-anchor="middle" x="605.5" y="-302.8" font-family="Times,serif" font-size="14.00">i1</text>
<text text-anchor="middle" x="730" y="-628.8" font-family="Times,serif" font-size="14.00">/chunk/2</text>
</g>
<!-- initializerr2_1 -->
<!-- initializerr2_1&#45;&gt;r2 -->
<g id="edge3" class="edge">
<title>initializerr2_1&#45;&gt;r2:n</title>
<path fill="none" stroke="blue" stroke-dasharray="1,5" d="M736,-711.95C736,-700.89 736,-685.87 736,-671.39"/>
<polygon fill="blue" stroke="blue" points="739.5,-671 736,-661 732.5,-671 739.5,-671"/>
<text text-anchor="middle" x="741" y="-682.8" font-family="Times,serif" font-size="14.00">[]</text>
</g>
<!-- initializerr2_2 -->
<!-- initializerr2_2&#45;&gt;r2 -->
<g id="edge4" class="edge">
<title>initializerr2_2&#45;&gt;r2:n</title>
<path fill="none" stroke="blue" d="M888.07,-716.69C841.37,-702.41 768.35,-679.27 744.12,-667.1"/>
<polygon fill="blue" stroke="blue" points="746.1,-664.21 736,-661 741.89,-669.8 746.1,-664.21"/>
<text text-anchor="middle" x="818.5" y="-682.8" font-family="Times,serif" font-size="14.00">3</text>
</g>
<!-- r6 -->
<g id="node12" class="node">
<title>r6</title>
<g id="a_node12"><a xlink:href="file:///Users/andrew/workspace/flow/flowstdlib/math/compare/compare.html" xlink:title="compare (#6)">
<ellipse fill="coral" stroke="black" cx="1405" cy="-368" rx="58.49" ry="18"/>
<text text-anchor="middle" x="1405" y="-364.3" font-family="Times,serif" font-size="14.00">compare (#6)</text>
</a>
</g>
</g>
<!-- r4&#45;&gt;r6 -->
<g id="edge13" class="edge">
<title>r4:se&#45;&gt;r6:n</title>
<path fill="none" stroke="black" d="M1220,-444C1243.63,-420.37 1260.96,-435.5 1293,-426 1339.78,-412.12 1395.94,-435.69 1404.01,-397.44"/>
<polygon fill="black" stroke="black" points="1407.54,-397.28 1405,-387 1400.58,-396.63 1407.54,-397.28"/>
<text text-anchor="middle" x="1395.5" y="-390.8" font-family="Times,serif" font-size="14.00">left</text>
<text text-anchor="middle" x="1206" y="-432.8" font-family="Times,serif" font-size="14.00">/sum</text>
</g>
<!-- r9 -->
<g id="node13" class="node">
<title>r9</title>
<g id="a_node13"><a xlink:href="file:///Users/andrew/workspace/flow/flowstdlib/control/select/select.html" xlink:title="select_total (#9)">
<ellipse fill="coral" stroke="black" cx="1563" cy="-281" rx="67.69" ry="18"/>
<text text-anchor="middle" x="1563" y="-277.3" font-family="Times,serif" font-size="14.00">select_total (#9)</text>
</a>
</g>
</g>
<!-- r4&#45;&gt;r9 -->
<g id="edge14" class="edge">
<title>r4:se&#45;&gt;r9:n</title>
<path fill="none" stroke="black" d="M1220,-444C1261.4,-402.6 1209.48,-353.82 1255,-317 1279.21,-297.42 1513.49,-326.83 1556.3,-306.72"/>
<polygon fill="black" stroke="black" points="1559.09,-308.85 1563,-299 1553.8,-304.26 1559.09,-308.85"/>
<text text-anchor="middle" x="1557.5" y="-302.8" font-family="Times,serif" font-size="14.00">i1</text>
<text text-anchor="middle" x="1234" y="-432.8" font-family="Times,serif" font-size="14.00">/sum</text>
</g>
<!-- r5 -->
<g id="node10" class="node">
<title>r5</title>
<g id="a_node10"><a xlink:href="file:///Users/andrew/workspace/flow/flowstdlib/math/add/add.html" xlink:title="cross_sum (#5)">
<ellipse fill="coral" stroke="black" cx="1415" cy="-462" rx="65.79" ry="18"/>
<text text-anchor="middle" x="1415" y="-458.3" font-family="Times,serif" font-size="14.00">cross_sum (#5)</text>
</a>
</g>
</g>
<!-- r3&#45;&gt;r5 -->
<g id="edge11" class="edge">
<title>r3:se&#45;&gt;r5:n</title>
<path fill="none" stroke="black" d="M1541,-531C1581.05,-490.95 1435.26,-534.27 1416.88,-490.06"/>
<polygon fill="black" stroke="black" points="1420.28,-489.18 1415,-480 1413.4,-490.47 1420.28,-489.18"/>
<text text-anchor="middle" x="1409.5" y="-483.8" font-family="Times,serif" font-size="14.00">i1</text>
<text text-anchor="middle" x="1527" y="-519.8" font-family="Times,serif" font-size="14.00">/sum</text>
</g>
<!-- r14 -->
<g id="node27" class="node">
<title>r14</title>
<g id="a_node27"><a xlink:href="file:///Users/andrew/workspace/flow/flowstdlib/math/compare/compare.html" xlink:title="compare (#14)">
<ellipse fill="coral" stroke="black" cx="483" cy="-194" rx="63.09" ry="18"/>
<text text-anchor="middle" x="483" y="-190.3" font-family="Times,serif" font-size="14.00">compare (#14)</text>
</a>
</g>
</g>
<!-- r12&#45;&gt;r14 -->
<g id="edge36" class="edge">
<title>r12:se&#45;&gt;r14:n</title>
<path fill="none" stroke="black" d="M395,-263C424.22,-233.78 473.55,-253.14 481.81,-222.16"/>
<polygon fill="black" stroke="black" points="485.31,-222.34 483,-212 478.36,-221.52 485.31,-222.34"/>
<text text-anchor="middle" x="473.5" y="-215.8" font-family="Times,serif" font-size="14.00">left</text>
<text text-anchor="middle" x="381" y="-251.8" font-family="Times,serif" font-size="14.00">/sum</text>
</g>
<!-- r17 -->
<g id="node28" class="node">
<title>r17</title>
<g id="a_node28"><a xlink:href="file:///Users/andrew/workspace/flow/flowstdlib/control/select/select.html" xlink:title="select_total (#17)">
<ellipse fill="coral" stroke="black" cx="621" cy="-107" rx="72.29" ry="18"/>
<text text-anchor="middle" x="621" y="-103.3" font-family="Times,serif" font-size="14.00">select_total (#17)</text>
</a>
</g>
</g>
<!-- r12&#45;&gt;r17 -->
<g id="edge37" class="edge">
<title>r12:se&#45;&gt;r17:n</title>
<path fill="none" stroke="black" d="M395,-263C421.08,-236.92 440.36,-254.49 476,-245 523.68,-232.3 545.09,-244.74 582,-212 610.98,-186.3 619.57,-170.3 620.83,-135.38"/>
<polygon fill="black" stroke="black" points="624.33,-135.06 621,-125 617.33,-134.94 624.33,-135.06"/>
<text text-anchor="middle" x="615.5" y="-128.8" font-family="Times,serif" font-size="14.00">i1</text>
<text text-anchor="middle" x="409" y="-251.8" font-family="Times,serif" font-size="14.00">/sum</text>
</g>
<!-- r13 -->
<g id="node22" class="node">
<title>r13</title>
<g id="a_node22"><a xlink:href="file:///Users/andrew/workspace/flow/flowstdlib/math/add/add.html" xlink:title="cross_sum (#13)">
<ellipse fill="coral" stroke="black" cx="1128" cy="-194" rx="69.59" ry="18"/>
<text text-anchor="middle" x="1128" y="-190.3" font-family="Times,serif" font-size="14.00">cross_sum (#13)</text>
</a>
</g>
</g>
<!-- r11&#45;&gt;r13 -->
<g id="edge34" class="edge">
<title>r11:se&#45;&gt;r13:n</title>
<path fill="none" stroke="black" d="M629,-263C662.39,-229.61 683.54,-238.48 730,-230 749.82,-226.38 1063.26,-232.77 1119.42,-217.26"/>
<polygon fill="black" stroke="black" points="1121.31,-220.21 1128,-212 1117.65,-214.25 1121.31,-220.21"/>
<text text-anchor="middle" x="1122.5" y="-215.8" font-family="Times,serif" font-size="14.00">i1</text>
<text text-anchor="middle" x="615" y="-251.8" font-family="Times,serif" font-size="14.00">/sum</text>
</g>
<!-- r5&#45;&gt;r6 -->
<g id="edge16" class="edge">
<title>r5:se&#45;&gt;r6:ne</title>
<path fill="none" stroke="black" d="M1433,-444C1449.09,-427.91 1442.95,-410.06 1428.94,-393.51"/>
<polygon fill="black" stroke="black" points="1431.36,-390.97 1422,-386 1426.22,-395.72 1431.36,-390.97"/>
<text text-anchor="middle" x="1435" y="-389.8" font-family="Times,serif" font-size="14.00">right</text>
<text text-anchor="middle" x="1419" y="-432.8" font-family="Times,serif" font-size="14.00">/sum</text>
</g>
<!-- r5&#45;&gt;r9 -->
<g id="edge17" class="edge">
<title>r5:se&#45;&gt;r9:ne</title>
<path fill="none" stroke="black" d="M1433,-444C1455.41,-421.59 1474.28,-436.83 1499,-417 1521.09,-399.29 1586.23,-337.96 1584.97,-308.55"/>
<polygon fill="black" stroke="black" points="1588.07,-306.89 1581,-299 1581.6,-309.58 1588.07,-306.89"/>
<text text-anchor="middle" x="1575.5" y="-302.8" font-family="Times,serif" font-size="14.00">i2</text>
<text text-anchor="middle" x="1447" y="-432.8" font-family="Times,serif" font-size="14.00">/sum</text>
</g>
<!-- initializerr4_1 -->
<!-- initializerr4_1&#45;&gt;r4 -->
<g id="edge12" class="edge">
<title>initializerr4_1&#45;&gt;r4:w</title>
<path fill="none" stroke="blue" stroke-dasharray="1,5" d="M1112.7,-531.01C1106.81,-509.67 1099.99,-474.63 1115.03,-464.7"/>
<polygon fill="blue" stroke="blue" points="1116.26,-467.99 1125,-462 1114.43,-461.23 1116.26,-467.99"/>
<text text-anchor="middle" x="1111.5" y="-501.8" font-family="Times,serif" font-size="14.00">0</text>
</g>
<!-- r6&#45;&gt;r9 -->
<g id="edge20" class="edge">
<title>r6:se&#45;&gt;r9:nw</title>
<path fill="none" stroke="black" d="M1422,-350C1430.39,-341.61 1453.27,-322.08 1464,-317 1493.94,-302.82 1514.42,-320.64 1537.18,-305.49"/>
<polygon fill="black" stroke="black" points="1539.54,-308.08 1545,-299 1535.07,-302.69 1539.54,-308.08"/>
<text text-anchor="middle" x="1525.5" y="-302.8" font-family="Times,serif" font-size="14.00">control</text>
<text text-anchor="middle" x="1413" y="-338.8" font-family="Times,serif" font-size="14.00">/lte</text>
</g>
<!-- r7 -->
<g id="node15" class="node">
<title>r7</title>
<g id="a_node15"><a xlink:href="file:///Users/andrew/workspace/flow/flowstdlib/control/select/select.html" xlink:title="select_string (#7)">
<ellipse fill="coral" stroke="black" cx="1793" cy="-281" rx="72.29" ry="18"/>
<text text-anchor="middle" x="1793" y="-277.3" font-family="Times,serif" font-size="14.00">select_string (#7)</text>
</a>
</g>
</g>
<!-- r6&#45;&gt;r7 -->
<g id="edge18" class="edge">
<title>r6:se&#45;&gt;r7:nw</title>
<path fill="none" stroke="black" d="M1422,-350C1425.17,-346.83 1708.41,-310.55 1765.18,-301.05"/>
<polygon fill="black" stroke="black" points="1765.93,-304.47 1775,-299 1764.5,-297.62 1765.93,-304.47"/>
<text text-anchor="middle" x="1755.5" y="-302.8" font-family="Times,serif" font-size="14.00">control</text>
<text text-anchor="middle" x="1431" y="-338.8" font-family="Times,serif" font-size="14.00">/lte</text>
</g>
<!-- r8 -->
<g id="node16" class="node">
<title>r8</title>
<g id="a_node16"><a xlink:href="file:///Users/andrew/workspace/flow/flowstdlib/control/select/select.html" xlink:title="select_route (#8)">
<ellipse fill="coral" stroke="black" cx="1515" cy="-107" rx="70.39" ry="18"/>
<text text-anchor="middle" x="1515" y="-103.3" font-family="Times,serif" font-size="14.00">select_route (#8)</text>
</a>
</g>
</g>
<!-- r6&#45;&gt;r8 -->
<g id="edge19" class="edge">
<title>r6:se&#45;&gt;r8:nw</title>
<path fill="none" stroke="black" d="M1422,-350C1432.49,-339.51 1423.33,-331.37 1427,-317 1448.59,-232.43 1434.02,-192.41 1489.84,-132.42"/>
<polygon fill="black" stroke="black" points="1492.57,-134.63 1497,-125 1487.54,-129.76 1492.57,-134.63"/>
<text text-anchor="middle" x="1477.5" y="-128.8" font-family="Times,serif" font-size="14.00">control</text>
<text text-anchor="middle" x="1413" y="-353.8" font-family="Times,serif" font-size="14.00">/lte</text>
</g>
<!-- r9&#45;&gt;r4 -->
<g id="edge27" class="edge">
<title>r9:e&#45;&gt;r4:ne</title>
<path fill="none" stroke="black" d="M1632,-281C1640.01,-281 1636.58,-293.25 1631,-299 1615.01,-315.5 1447.59,-312.79 1425,-317 1373.15,-326.67 1350.49,-315.04 1311,-350 1283.87,-374.02 1286.78,-389.6 1279,-425 1273.75,-448.89 1294.79,-462.81 1277.39,-480 1270.23,-487.08 1244.25,-489.22 1229.18,-485.38"/>
<polygon fill="black" stroke="black" points="1230.53,-482.15 1220,-481 1227.52,-488.47 1230.53,-482.15"/>
<text text-anchor="middle" x="1214.5" y="-484.8" font-family="Times,serif" font-size="14.00">i2</text>
<text text-anchor="middle" x="1658" y="-284.8" font-family="Times,serif" font-size="14.00">/select_i1</text>
</g>
<!-- r9&#45;&gt;r13 -->
<g id="edge28" class="edge">
<title>r9:e&#45;&gt;r13:ne</title>
<path fill="none" stroke="black" d="M1632,-281C1640.01,-281 1636.52,-268.8 1631,-263 1558.54,-186.88 1242.59,-282.49 1153.65,-218.47"/>
<polygon fill="black" stroke="black" points="1155.9,-215.79 1146,-212 1151.37,-221.13 1155.9,-215.79"/>
<text text-anchor="middle" x="1140.5" y="-215.8" font-family="Times,serif" font-size="14.00">i2</text>
<text text-anchor="middle" x="1658" y="-269.8" font-family="Times,serif" font-size="14.00">/select_i1</text>
</g>
<!-- r19 -->
<g id="node23" class="node">
<title>r19</title>
<g id="a_node23"><a xlink:href="file:///Users/andrew/workspace/flow/flowruntime/stdio/stdout.html" xlink:title="print (#19)">
<ellipse fill="coral" stroke="black" cx="1861" cy="-107" rx="48.99" ry="18"/>
<text text-anchor="middle" x="1861" y="-103.3" font-family="Times,serif" font-size="14.00">print (#19)</text>
</a>
</g>
</g>
<!-- r9&#45;&gt;r19 -->
<g id="edge29" class="edge">
<title>r9:e&#45;&gt;r19:n</title>
<path fill="none" stroke="black" d="M1632,-281C1656.88,-281 1661.16,-270.09 1685,-263 1772.51,-236.97 1828.02,-284.13 1884,-212 1902.81,-187.76 1895.66,-170.47 1882,-143 1878.67,-136.29 1871.6,-135.64 1866.58,-133.37"/>
<polygon fill="black" stroke="black" points="1869.46,-131.38 1861,-125 1863.64,-135.26 1869.46,-131.38"/>
<text text-anchor="middle" x="1606" y="-284.8" font-family="Times,serif" font-size="14.00">/select_i1</text>
</g>
<!-- initializerr5_1 -->
<!-- initializerr5_1&#45;&gt;r5 -->
<g id="edge15" class="edge">
<title>initializerr5_1&#45;&gt;r5:w</title>
<path fill="none" stroke="blue" stroke-dasharray="1,5" d="M1311.07,-530.6C1312.06,-508.61 1316.94,-472.58 1337.97,-463.92"/>
<polygon fill="blue" stroke="blue" points="1338.83,-467.31 1348,-462 1337.52,-460.44 1338.83,-467.31"/>
<text text-anchor="middle" x="1317.5" y="-501.8" font-family="Times,serif" font-size="14.00">0</text>
</g>
<!-- r10 -->
<g id="node19" class="node">
<title>r10</title>
<g id="a_node19"><a xlink:href="file:///Users/andrew/workspace/flow/flowstdlib/data/append/append.html" xlink:title="Append (#10)">
<ellipse fill="coral" stroke="black" cx="1788" cy="-194" rx="59.59" ry="18"/>
<text text-anchor="middle" x="1788" y="-190.3" font-family="Times,serif" font-size="14.00">Append (#10)</text>
</a>
</g>
</g>
<!-- r7&#45;&gt;r10 -->
<g id="edge23" class="edge">
<title>r7:e&#45;&gt;r10:ne</title>
<path fill="none" stroke="black" d="M1866,-281C1874.01,-281 1868.53,-270.19 1865,-263 1851.33,-235.17 1834.52,-235.93 1813.58,-218.86"/>
<polygon fill="black" stroke="black" points="1815.76,-216.11 1806,-212 1811.07,-221.31 1815.76,-216.11"/>
<text text-anchor="middle" x="1799.5" y="-215.8" font-family="Times,serif" font-size="14.00">s2</text>
<text text-anchor="middle" x="1892" y="-284.8" font-family="Times,serif" font-size="14.00">/select_i1</text>
</g>
<!-- r8&#45;&gt;r10 -->
<g id="edge26" class="edge">
<title>r8:e&#45;&gt;r10:n</title>
<path fill="none" stroke="black" d="M1586,-107C1593.52,-107 1843.2,-170.04 1847.79,-176 1857.56,-188.67 1859.01,-200.59 1847.79,-212 1844.35,-215.5 1813.4,-218 1797.44,-216.39"/>
<polygon fill="black" stroke="black" points="1798.59,-213.09 1788,-213 1796.23,-219.68 1798.59,-213.09"/>
<text text-anchor="middle" x="1781.5" y="-216.8" font-family="Times,serif" font-size="14.00">s1</text>
<text text-anchor="middle" x="1612" y="-110.8" font-family="Times,serif" font-size="14.00">/select_i1</text>
</g>
<!-- initializerr7_0 -->
<!-- initializerr7_0&#45;&gt;r7 -->
<g id="edge21" class="edge">
<title>initializerr7_0&#45;&gt;r7:ne</title>
<path fill="none" stroke="blue" d="M1851.25,-350.02C1843.09,-337.73 1831.07,-320.8 1817.95,-306.31"/>
<polygon fill="blue" stroke="blue" points="1820.42,-303.84 1811,-299 1815.35,-308.66 1820.42,-303.84"/>
<text text-anchor="middle" x="1848" y="-320.8" font-family="Times,serif" font-size="14.00">&quot;A&quot;</text>
</g>
<!-- initializerr7_1 -->
<!-- initializerr7_1&#45;&gt;r7 -->
<g id="edge22" class="edge">
<title>initializerr7_1&#45;&gt;r7:w</title>
<path fill="none" stroke="blue" d="M1671.33,-350.01C1675.31,-327.79 1685.52,-290.71 1709.93,-282.6"/>
<polygon fill="blue" stroke="blue" points="1710.67,-286.03 1720,-281 1709.57,-279.11 1710.67,-286.03"/>
<text text-anchor="middle" x="1694.5" y="-320.8" font-family="Times,serif" font-size="14.00">&quot;BC&quot;</text>
</g>
<!-- r10&#45;&gt;r8 -->
<g id="edge30" class="edge">
<title>r10:e&#45;&gt;r8:n</title>
<path fill="none" stroke="black" d="M1849,-194C1887.21,-194 1951.18,-184.29 1754,-143 1730.79,-138.14 1559.34,-148.78 1522.12,-132.36"/>
<polygon fill="black" stroke="black" points="1524.47,-129.75 1515,-125 1519.44,-134.62 1524.47,-129.75"/>
<text text-anchor="middle" x="1509.5" y="-128.8" font-family="Times,serif" font-size="14.00">i1</text>
</g>
<!-- r10&#45;&gt;r19 -->
<g id="edge32" class="edge">
<title>r10:e&#45;&gt;r19:n</title>
<path fill="none" stroke="black" d="M1849,-194C1876.84,-194 1864.48,-163.69 1861.56,-135.02"/>
<polygon fill="black" stroke="black" points="1865.05,-134.79 1861,-125 1858.06,-135.18 1865.05,-134.79"/>
</g>
<!-- r16 -->
<g id="node24" class="node">
<title>r16</title>
<g id="a_node24"><a xlink:href="file:///Users/andrew/workspace/flow/flowstdlib/control/select/select.html" xlink:title="select_route (#16)">
<ellipse fill="coral" stroke="black" cx="1133" cy="-107" rx="74.99" ry="18"/>
<text text-anchor="middle" x="1133" y="-103.3" font-family="Times,serif" font-size="14.00">select_route (#16)</text>
</a>
</g>
</g>
<!-- r10&#45;&gt;r16 -->
<g id="edge31" class="edge">
<title>r10:e&#45;&gt;r16:ne</title>
<path fill="none" stroke="black" d="M1849,-194C1857.01,-194 1853.45,-181.87 1848,-176 1843.18,-170.81 1602.06,-143.6 1595,-143 1572.18,-141.05 1224.58,-142.25 1160.52,-128.5"/>
<polygon fill="black" stroke="black" points="1161.59,-125.16 1151,-125 1159.18,-131.73 1161.59,-125.16"/>
<text text-anchor="middle" x="1145.5" y="-128.8" font-family="Times,serif" font-size="14.00">i2</text>
</g>
<!-- initializerr8_0 -->
<!-- initializerr8_0&#45;&gt;r8 -->
<g id="edge24" class="edge">
<title>initializerr8_0&#45;&gt;r8:ne</title>
<path fill="none" stroke="blue" stroke-dasharray="1,5" d="M1581.32,-176.46C1570.53,-164.45 1555.21,-147.68 1540.28,-132.37"/>
<polygon fill="blue" stroke="blue" points="1542.52,-129.66 1533,-125 1537.53,-134.58 1542.52,-129.66"/>
<text text-anchor="middle" x="1570.5" y="-146.8" font-family="Times,serif" font-size="14.00">&quot;&quot;</text>
</g>
<!-- initializerr8_1 -->
<!-- initializerr8_1&#45;&gt;r8 -->
<g id="edge25" class="edge">
<title>initializerr8_1&#45;&gt;r8:w</title>
<path fill="none" stroke="blue" stroke-dasharray="1,5" d="M1341.46,-176.01C1358.5,-152.81 1392.99,-113.42 1434.01,-107.7"/>
<polygon fill="blue" stroke="blue" points="1434.27,-111.19 1444,-107 1433.78,-104.21 1434.27,-111.19"/>
<text text-anchor="middle" x="1374.5" y="-146.8" font-family="Times,serif" font-size="14.00">&quot;&quot;</text>
</g>
<!-- r13&#45;&gt;r14 -->
<g id="edge38" class="edge">
<title>r13:se&#45;&gt;r14:ne</title>
<path fill="none" stroke="black" d="M1147,-176C1174.83,-148.17 1097.78,-174.62 1058.46,-176 830.3,-184 774.2,-204 546.04,-212 529.27,-212.59 521.75,-217.48 508.61,-214.35"/>
<polygon fill="black" stroke="black" points="509.59,-210.98 499,-211 507.29,-217.59 509.59,-210.98"/>
<text text-anchor="middle" x="512" y="-214.8" font-family="Times,serif" font-size="14.00">right</text>
<text text-anchor="middle" x="1133" y="-164.8" font-family="Times,serif" font-size="14.00">/sum</text>
</g>
<!-- r13&#45;&gt;r17 -->
<g id="edge39" class="edge">
<title>r13:se&#45;&gt;r17:ne</title>
<path fill="none" stroke="black" d="M1146,-176C1191.82,-130.18 1068.17,-151.96 1004,-143 966.38,-137.74 704.81,-151.7 647.74,-130.01"/>
<polygon fill="black" stroke="black" points="649.42,-126.93 639,-125 645.94,-133.01 649.42,-126.93"/>
<text text-anchor="middle" x="633.5" y="-128.8" font-family="Times,serif" font-size="14.00">i2</text>
<text text-anchor="middle" x="1160" y="-164.8" font-family="Times,serif" font-size="14.00">/sum</text>
</g>
<!-- r18 -->
<g id="node32" class="node">
<title>r18</title>
<g id="a_node32"><a xlink:href="file:///Users/andrew/workspace/flow/flowstdlib/data/append/append.html" xlink:title="Append (#18)">
<ellipse fill="coral" stroke="black" cx="634" cy="-34" rx="59.59" ry="18"/>
<text text-anchor="middle" x="634" y="-30.3" font-family="Times,serif" font-size="14.00">Append (#18)</text>
</a>
</g>
</g>
<!-- r16&#45;&gt;r18 -->
<g id="edge47" class="edge">
<title>r16:e&#45;&gt;r18:n</title>
<path fill="none" stroke="black" d="M1209,-107C1217.01,-107 1213.64,-94.69 1208,-89 1197.63,-78.54 718.56,-69.5 643.77,-55.63"/>
<polygon fill="black" stroke="black" points="644.59,-52.2 634,-52 642.15,-58.77 644.59,-52.2"/>
<text text-anchor="middle" x="627.5" y="-55.8" font-family="Times,serif" font-size="14.00">s1</text>
<text text-anchor="middle" x="1235" y="-110.8" font-family="Times,serif" font-size="14.00">/select_i1</text>
</g>
<!-- initializerr11_1 -->
<!-- initializerr11_1&#45;&gt;r11 -->
<g id="edge33" class="edge">
<title>initializerr11_1&#45;&gt;r11:w</title>
<path fill="none" stroke="blue" d="M441.12,-350.42C459.99,-328.94 493.64,-293.11 516.03,-283.46"/>
<polygon fill="blue" stroke="blue" points="517.13,-286.79 526,-281 515.45,-280 517.13,-286.79"/>
<text text-anchor="middle" x="473.5" y="-320.8" font-family="Times,serif" font-size="14.00">0</text>
</g>
<!-- initializerr12_1 -->
<!-- initializerr12_1&#45;&gt;r12 -->
<g id="edge35" class="edge">
<title>initializerr12_1&#45;&gt;r12:w</title>
<path fill="none" stroke="blue" stroke-dasharray="1,5" d="M230.38,-350.01C238.62,-327.39 256.57,-289.4 286.03,-282.2"/>
<polygon fill="blue" stroke="blue" points="286.49,-285.67 296,-281 285.65,-278.72 286.49,-285.67"/>
<text text-anchor="middle" x="247.5" y="-320.8" font-family="Times,serif" font-size="14.00">0</text>
</g>
<!-- r14&#45;&gt;r16 -->
<g id="edge41" class="edge">
<title>r14:se&#45;&gt;r16:nw</title>
<path fill="none" stroke="black" d="M500,-176C521.92,-154.08 746.12,-145.66 777,-143 811.91,-139.99 1052.06,-150.05 1106.23,-129.93"/>
<polygon fill="black" stroke="black" points="1108,-132.95 1115,-125 1104.57,-126.85 1108,-132.95"/>
<text text-anchor="middle" x="1095.5" y="-128.8" font-family="Times,serif" font-size="14.00">control</text>
<text text-anchor="middle" x="491" y="-164.8" font-family="Times,serif" font-size="14.00">/lte</text>
</g>
<!-- r14&#45;&gt;r17 -->
<g id="edge42" class="edge">
<title>r14:se&#45;&gt;r17:nw</title>
<path fill="none" stroke="black" d="M500,-176C533.58,-142.42 562.53,-158.42 595.46,-131.81"/>
<polygon fill="black" stroke="black" points="597.92,-134.3 603,-125 593.23,-129.1 597.92,-134.3"/>
<text text-anchor="middle" x="583.5" y="-128.8" font-family="Times,serif" font-size="14.00">control</text>
<text text-anchor="middle" x="509" y="-164.8" font-family="Times,serif" font-size="14.00">/lte</text>
</g>
<!-- r15 -->
<g id="node29" class="node">
<title>r15</title>
<g id="a_node29"><a xlink:href="file:///Users/andrew/workspace/flow/flowstdlib/control/select/select.html" xlink:title="select_string (#15)">
<ellipse fill="coral" stroke="black" cx="366" cy="-107" rx="76.89" ry="18"/>
<text text-anchor="middle" x="366" y="-103.3" font-family="Times,serif" font-size="14.00">select_string (#15)</text>
</a>
</g>
</g>
<!-- r14&#45;&gt;r15 -->
<g id="edge40" class="edge">
<title>r14:se&#45;&gt;r15:nw</title>
<path fill="none" stroke="black" d="M500,-176C524.61,-151.39 461.95,-154.17 429,-143 398.99,-132.82 341.48,-146.1 342.45,-133.49"/>
<polygon fill="black" stroke="black" points="345.46,-135.29 348,-125 339.6,-131.45 345.46,-135.29"/>
<text text-anchor="middle" x="328.5" y="-128.8" font-family="Times,serif" font-size="14.00">control</text>
<text text-anchor="middle" x="491" y="-179.8" font-family="Times,serif" font-size="14.00">/lte</text>
</g>
<!-- r17&#45;&gt;r12 -->
<g id="edge48" class="edge">
<title>r17:e&#45;&gt;r12:ne</title>
<path fill="none" stroke="black" d="M694,-107C752.13,-107 663.32,-178.24 616,-212 591.91,-229.18 517.68,-246.68 493,-263 473.94,-275.61 477.38,-290.19 456.29,-299 446.38,-303.15 419.94,-307.37 404.5,-304.23"/>
<polygon fill="black" stroke="black" points="405.56,-300.87 395,-300 402.71,-307.27 405.56,-300.87"/>
<text text-anchor="middle" x="389.5" y="-303.8" font-family="Times,serif" font-size="14.00">i2</text>
<text text-anchor="middle" x="720" y="-110.8" font-family="Times,serif" font-size="14.00">/select_i1</text>
</g>
<!-- r17&#45;&gt;r5 -->
<g id="edge49" class="edge">
<title>r17:e&#45;&gt;r5:ne</title>
<path fill="none" stroke="black" d="M694,-107C1000.89,-107 1018.9,-322.88 1311,-417 1329.17,-422.85 1468.25,-429.48 1480.64,-444 1491.03,-456.17 1491.84,-468.57 1480.64,-480 1475.09,-485.67 1455.28,-487.61 1442.56,-485.07"/>
<polygon fill="black" stroke="black" points="1443.57,-481.69 1433,-481 1440.83,-488.13 1443.57,-481.69"/>
<text text-anchor="middle" x="1427.5" y="-484.8" font-family="Times,serif" font-size="14.00">i2</text>
<text text-anchor="middle" x="720" y="-95.8" font-family="Times,serif" font-size="14.00">/select_i1</text>
</g>
<!-- r15&#45;&gt;r18 -->
<g id="edge45" class="edge">
<title>r15:e&#45;&gt;r18:ne</title>
<path fill="none" stroke="black" d="M444,-107C476.77,-107 481.53,-90.15 513,-81 569.57,-64.55 680.56,-92.43 658.74,-59.9"/>
<polygon fill="black" stroke="black" points="661.15,-57.33 652,-52 655.83,-61.88 661.15,-57.33"/>
<text text-anchor="middle" x="645.5" y="-55.8" font-family="Times,serif" font-size="14.00">s2</text>
<text text-anchor="middle" x="470" y="-110.8" font-family="Times,serif" font-size="14.00">/select_i1</text>
</g>
<!-- initializerr15_0 -->
<!-- initializerr15_0&#45;&gt;r15 -->
<g id="edge43" class="edge">
<title>initializerr15_0&#45;&gt;r15:ne</title>
<path fill="none" stroke="blue" d="M327.51,-180.77C359.97,-170.07 397.08,-153.17 389.71,-133.35"/>
<polygon fill="blue" stroke="blue" points="392.53,-131.28 384,-125 386.75,-135.23 392.53,-131.28"/>
<text text-anchor="middle" x="400" y="-146.8" font-family="Times,serif" font-size="14.00">&quot;B&quot;</text>
</g>
<!-- initializerr15_1 -->
<!-- initializerr15_1&#45;&gt;r15 -->
<g id="edge44" class="edge">
<title>initializerr15_1&#45;&gt;r15:w</title>
<path fill="none" stroke="blue" d="M103.03,-177.03C137.84,-153.32 208.75,-111.19 277.83,-107.29"/>
<polygon fill="blue" stroke="blue" points="278.1,-110.78 288,-107 277.9,-103.79 278.1,-110.78"/>
<text text-anchor="middle" x="167" y="-146.8" font-family="Times,serif" font-size="14.00">&quot;C&quot;</text>
</g>
<!-- r18&#45;&gt;r8 -->
<g id="edge51" class="edge">
<title>r18:e&#45;&gt;r8:ne</title>
<path fill="none" stroke="black" d="M695,-34C744.55,-34 1551.25,-52.9 1585.19,-89 1596.15,-100.66 1596.4,-113.58 1585.19,-125 1578.91,-131.4 1556.03,-133.41 1542.19,-130.19"/>
<polygon fill="black" stroke="black" points="1543.55,-126.96 1533,-126 1540.65,-133.33 1543.55,-126.96"/>
<text text-anchor="middle" x="1527.5" y="-129.8" font-family="Times,serif" font-size="14.00">i2</text>
</g>
<!-- r18&#45;&gt;r16 -->
<g id="edge50" class="edge">
<title>r18:e&#45;&gt;r16:n</title>
<path fill="none" stroke="black" d="M695,-34C768.42,-34 783.28,-60.86 856,-71 894.76,-76.4 1180.79,-60.63 1207.74,-89 1218.76,-100.6 1218.98,-113.61 1207.74,-125 1203.25,-129.55 1161.41,-132.61 1142.36,-129.99"/>
<polygon fill="black" stroke="black" points="1143.57,-126.7 1133,-126 1140.83,-133.14 1143.57,-126.7"/>
<text text-anchor="middle" x="1127.5" y="-129.8" font-family="Times,serif" font-size="14.00">i1</text>
</g>
<!-- initializerr16_0 -->
<!-- initializerr16_0&#45;&gt;r16 -->
<g id="edge46" class="edge">
<title>initializerr16_0&#45;&gt;r16:ne</title>
<path fill="none" stroke="blue" stroke-dasharray="1,5" d="M655.64,-351.33C701.45,-324.69 798.5,-269.61 884,-230 884.4,-229.81 1094.3,-147.68 1141.61,-128.82"/>
<polygon fill="blue" stroke="blue" points="1143.06,-132.01 1151,-125 1140.42,-125.53 1143.06,-132.01"/>
<text text-anchor="middle" x="890.5" y="-233.8" font-family="Times,serif" font-size="14.00">&quot;&quot;</text>
</g>
</g>
</svg>
