<?xml version="1.0" encoding="UTF-8" standalone="no"?>
<!DOCTYPE svg PUBLIC "-//W3C//DTD SVG 1.1//EN"
 "http://www.w3.org/Graphics/SVG/1.1/DTD/svg11.dtd">
<!-- Generated by graphviz version 2.40.1 (20161225.0304)
 -->
<!-- Title: router Pages: 1 -->
<svg width="2003pt" height="1081pt"
 viewBox="0.00 0.00 2003.00 1081.00" xmlns="http://www.w3.org/2000/svg" xmlns:xlink="http://www.w3.org/1999/xlink">
<g id="graph0" class="graph" transform="scale(1 1) rotate(0) translate(4 1077)">
<title>router</title>
<polygon fill="#ffffff" stroke="transparent" points="-4,4 -4,-1077 1999,-1077 1999,4 -4,4"/>
<text text-anchor="middle" x="997.5" y="-1057.8" font-family="Times,serif" font-size="14.00" fill="#000000">/router</text>
<g id="clust1" class="cluster">
<title>cluster_A_tracker</title>
<polygon fill="none" stroke="#000000" points="101,-81 101,-900 1087,-900 1087,-81 101,-81"/>
<text text-anchor="middle" x="594" y="-884.8" font-family="Times,serif" font-size="14.00" fill="#000000">/router/A_tracker</text>
</g>
<g id="clust2" class="cluster">
<title>cluster_B_tracker</title>
<polygon fill="none" stroke="#000000" points="1096,-8 1096,-681 1893,-681 1893,-8 1096,-8"/>
<text text-anchor="middle" x="1494.5" y="-665.8" font-family="Times,serif" font-size="14.00" fill="#000000">/router/B_tracker</text>
</g>
<!-- r8 -->
<g id="node1" class="node">
<title>r8</title>
<g id="a_node1"><a xlink:href="file:///home/travis/build/andrewdavidmackenzie/flow/flowr/src/lib/flowruntime/stdio/readline.html" xlink:title="readline (#8)">
<ellipse fill="#ff7f50" stroke="#000000" cx="90" cy="-1032" rx="72.2875" ry="18"/>
<text text-anchor="middle" x="90" y="-1028.3" font-family="Times,serif" font-size="14.00" fill="#000000">readline (#8)</text>
</a>
</g>
</g>
<!-- r18 -->
<g id="node2" class="node">
<title>r18</title>
<g id="a_node2"><a xlink:href="file:///home/travis/build/andrewdavidmackenzie/flow/flowstdlib/data/accumulate/accumulate.html" xlink:title="accumulate_triples (#18)">
<ellipse fill="#ff7f50" stroke="#000000" cx="316" cy="-945" rx="129.1772" ry="18"/>
<text text-anchor="middle" x="316" y="-941.3" font-family="Times,serif" font-size="14.00" fill="#000000">accumulate_triples (#18)</text>
</a>
</g>
</g>
<!-- r8&#45;&gt;r18 -->
<g id="edge1" class="edge">
<title>r8:e&#45;&gt;r18:n</title>
<path fill="none" stroke="#000000" d="M162,-1032C179.8885,-1032 181.7835,-1021.5514 198,-1014 208.9757,-1008.889 286.1296,-986.061 309.3828,-970.5249"/>
<polygon fill="#000000" stroke="#000000" points="312.0246,-972.8208 316,-963 306.768,-968.1982 312.0246,-972.8208"/>
<text text-anchor="middle" x="293" y="-966.8" font-family="Times,serif" font-size="14.00" fill="#000000">values</text>
<text text-anchor="middle" x="179" y="-1035.8" font-family="Times,serif" font-size="14.00" fill="#000000">/json</text>
</g>
<!-- r18&#45;&gt;r18 -->
<g id="edge4" class="edge">
<title>r18:e&#45;&gt;r18:ne</title>
<path fill="none" stroke="#000000" d="M446,-945C469.3385,-936 517.3385,-936 517.3385,-954 517.3385,-971.1211 412.1859,-971.9571 344.163,-964.2529"/>
<polygon fill="#000000" stroke="#000000" points="344.3531,-960.75 334,-963 343.4966,-967.6974 344.3531,-960.75"/>
<text text-anchor="middle" x="358" y="-966.8" font-family="Times,serif" font-size="14.00" fill="#000000">partial</text>
<text text-anchor="middle" x="472" y="-948.8" font-family="Times,serif" font-size="14.00" fill="#000000">/partial</text>
</g>
<!-- r4 -->
<g id="node5" class="node">
<title>r4</title>
<g id="a_node5"><a xlink:href="file:///home/travis/build/andrewdavidmackenzie/flow/flowstdlib/math/add/add.html" xlink:title="forward_sum (#4)">
<ellipse fill="#ff7f50" stroke="#000000" cx="614" cy="-726" rx="94.7833" ry="18"/>
<text text-anchor="middle" x="614" y="-722.3" font-family="Times,serif" font-size="14.00" fill="#000000">forward_sum (#4)</text>
</a>
</g>
</g>
<!-- r18&#45;&gt;r4 -->
<g id="edge5" class="edge">
<title>r18:s&#45;&gt;r4:n</title>
<path fill="none" stroke="#000000" d="M316,-927C316,-826.6884 378.4898,-803.0889 470,-762 495.9719,-750.3384 588.3147,-770.3719 609.6009,-753.0392"/>
<polygon fill="#000000" stroke="#000000" points="612.771,-754.5233 614,-744 606.4768,-751.4601 612.771,-754.5233"/>
<text text-anchor="middle" x="607" y="-747.8" font-family="Times,serif" font-size="14.00" fill="#000000">i1</text>
<text text-anchor="middle" x="284.5" y="-915.8" font-family="Times,serif" font-size="14.00" fill="#000000">/chunk/0</text>
</g>
<!-- r1 -->
<g id="node6" class="node">
<title>r1</title>
<g id="a_node6"><a xlink:href="file:///home/travis/build/andrewdavidmackenzie/flow/flowstdlib/math/add/add.html" xlink:title="cross_distance (#1)">
<ellipse fill="#ff7f50" stroke="#000000" cx="752" cy="-851" rx="103.1819" ry="18"/>
<text text-anchor="middle" x="752" y="-847.3" font-family="Times,serif" font-size="14.00" fill="#000000">cross_distance (#1)</text>
</a>
</g>
</g>
<!-- r18&#45;&gt;r1 -->
<g id="edge6" class="edge">
<title>r18:sw&#45;&gt;r1:ne</title>
<path fill="none" stroke="#000000" d="M298,-927C273.1605,-902.1605 578.215,-904.8992 613,-900 679.5782,-890.6229 805.5223,-916.2149 776.6135,-876.5573"/>
<polygon fill="#000000" stroke="#000000" points="779.2194,-874.2204 770,-869 773.9517,-878.8303 779.2194,-874.2204"/>
<text text-anchor="middle" x="763" y="-872.8" font-family="Times,serif" font-size="14.00" fill="#000000">i2</text>
<text text-anchor="middle" x="329.5" y="-915.8" font-family="Times,serif" font-size="14.00" fill="#000000">/chunk/1</text>
</g>
<!-- r18&#45;&gt;r1 -->
<g id="edge7" class="edge">
<title>r18:se&#45;&gt;r1:n</title>
<path fill="none" stroke="#000000" d="M334,-927C397.7213,-863.2787 724.9598,-955.06 750.4281,-879.1148"/>
<polygon fill="#000000" stroke="#000000" points="753.9227,-879.4189 752,-869 747.0058,-878.3439 753.9227,-879.4189"/>
<text text-anchor="middle" x="745" y="-872.8" font-family="Times,serif" font-size="14.00" fill="#000000">i1</text>
<text text-anchor="middle" x="365.5" y="-915.8" font-family="Times,serif" font-size="14.00" fill="#000000">/chunk/2</text>
</g>
<!-- r14 -->
<g id="node7" class="node">
<title>r14</title>
<g id="a_node7"><a xlink:href="file:///home/travis/build/andrewdavidmackenzie/flow/flowstdlib/math/add/add.html" xlink:title="forward_sum (#14)">
<ellipse fill="#ff7f50" stroke="#000000" cx="1772" cy="-486" rx="100.9827" ry="18"/>
<text text-anchor="middle" x="1772" y="-482.3" font-family="Times,serif" font-size="14.00" fill="#000000">forward_sum (#14)</text>
</a>
</g>
</g>
<!-- r18&#45;&gt;r14 -->
<g id="edge8" class="edge">
<title>r18:sw&#45;&gt;r14:n</title>
<path fill="none" stroke="#000000" d="M298,-927C263.9507,-892.9507 128.5686,-915.5633 83,-900 42.4615,-886.1546 0,-893.8376 0,-851 0,-851 0,-851 0,-595.5 0,-551.3694 40.8596,-554.1031 83,-541 104.3993,-534.3461 1625.5849,-528.055 1762.2107,-507.0614"/>
<polygon fill="#000000" stroke="#000000" points="1763.5005,-510.3253 1772,-504 1761.4111,-503.6444 1763.5005,-510.3253"/>
<text text-anchor="middle" x="1765" y="-507.8" font-family="Times,serif" font-size="14.00" fill="#000000">i1</text>
<text text-anchor="middle" x="266.5" y="-915.8" font-family="Times,serif" font-size="14.00" fill="#000000">/chunk/1</text>
</g>
<!-- r12 -->
<g id="node8" class="node">
<title>r12</title>
<g id="a_node8"><a xlink:href="file:///home/travis/build/andrewdavidmackenzie/flow/flowstdlib/math/add/add.html" xlink:title="cross_distance (#12)">
<ellipse fill="#ff7f50" stroke="#000000" cx="1490" cy="-486" rx="109.381" ry="18"/>
<text text-anchor="middle" x="1490" y="-482.3" font-family="Times,serif" font-size="14.00" fill="#000000">cross_distance (#12)</text>
</a>
</g>
</g>
<!-- r18&#45;&gt;r12 -->
<g id="edge9" class="edge">
<title>r18:se&#45;&gt;r12:n</title>
<path fill="none" stroke="#000000" d="M334,-927C349.1532,-911.8468 1083.5919,-900.9641 1105,-900 1302.8768,-891.089 1995,-1049.0773 1995,-851 1995,-851 1995,-851 1995,-595.5 1995,-569.1038 1562.1792,-537.5969 1497.9323,-510.4421"/>
<polygon fill="#000000" stroke="#000000" points="1499.969,-507.5874 1490,-504 1495.5561,-513.0211 1499.969,-507.5874"/>
<text text-anchor="middle" x="1483" y="-507.8" font-family="Times,serif" font-size="14.00" fill="#000000">i1</text>
<text text-anchor="middle" x="302.5" y="-930.8" font-family="Times,serif" font-size="14.00" fill="#000000">/chunk/2</text>
</g>
<!-- initializerr18_1 -->
<!-- initializerr18_1&#45;&gt;r18 -->
<g id="edge2" class="edge">
<title>initializerr18_1&#45;&gt;r18:n</title>
<path fill="none" stroke="#0000ff" stroke-dasharray="1,5" d="M316,-1013.8403C316,-1002.6435 316,-987.7161 316,-973.324"/>
<polygon fill="#0000ff" stroke="#0000ff" points="319.5001,-973 316,-963 312.5001,-973 319.5001,-973"/>
<text text-anchor="middle" x="321.5" y="-984.8" font-family="Times,serif" font-size="14.00" fill="#000000">[]</text>
</g>
<!-- initializerr18_2 -->
<!-- initializerr18_2&#45;&gt;r18 -->
<g id="edge3" class="edge">
<title>initializerr18_2&#45;&gt;r18:n</title>
<path fill="none" stroke="#0000ff" d="M496.6685,-1018.6005C438.3581,-1004.1531 351.2858,-981.5507 324.2847,-969.0529"/>
<polygon fill="#0000ff" stroke="#0000ff" points="326.1393,-966.0733 316,-963 322.0098,-971.7254 326.1393,-966.0733"/>
<text text-anchor="middle" x="410" y="-984.8" font-family="Times,serif" font-size="14.00" fill="#000000">3</text>
</g>
<!-- r5 -->
<g id="node11" class="node">
<title>r5</title>
<g id="a_node11"><a xlink:href="file:///home/travis/build/andrewdavidmackenzie/flow/flowstdlib/math/compare/compare.html" xlink:title="compare (#5)">
<ellipse fill="#ff7f50" stroke="#000000" cx="632" cy="-559" rx="74.9875" ry="18"/>
<text text-anchor="middle" x="632" y="-555.3" font-family="Times,serif" font-size="14.00" fill="#000000">compare (#5)</text>
</a>
</g>
</g>
<!-- r4&#45;&gt;r5 -->
<g id="edge12" class="edge">
<title>r4:se&#45;&gt;r5:n</title>
<path fill="none" stroke="#000000" d="M632,-708C670.6767,-669.3233 636.6835,-639.0849 632.4254,-587.2909"/>
<polygon fill="#000000" stroke="#000000" points="635.9101,-586.8469 632,-577 628.9161,-587.136 635.9101,-586.8469"/>
<text text-anchor="middle" x="619.5" y="-580.8" font-family="Times,serif" font-size="14.00" fill="#000000">left</text>
<text text-anchor="middle" x="614.5" y="-696.8" font-family="Times,serif" font-size="14.00" fill="#000000">/sum</text>
</g>
<!-- r3 -->
<g id="node12" class="node">
<title>r3</title>
<g id="a_node12"><a xlink:href="file:///home/travis/build/andrewdavidmackenzie/flow/flowstdlib/control/select/select.html" xlink:title="select_total (#3)">
<ellipse fill="#ff7f50" stroke="#000000" cx="722" cy="-413" rx="88.2844" ry="18"/>
<text text-anchor="middle" x="722" y="-409.3" font-family="Times,serif" font-size="14.00" fill="#000000">select_total (#3)</text>
</a>
</g>
</g>
<!-- r4&#45;&gt;r3 -->
<g id="edge13" class="edge">
<title>r4:se&#45;&gt;r3:n</title>
<path fill="none" stroke="#000000" d="M632,-708C643.5384,-696.4616 651.9117,-700.961 664,-690 709.3955,-648.838 724.5946,-635.4492 743,-577 752.226,-547.7015 726.371,-484.6413 722.4823,-441.0747"/>
<polygon fill="#000000" stroke="#000000" points="725.9743,-440.8212 722,-431 718.9823,-441.156 725.9743,-440.8212"/>
<text text-anchor="middle" x="715" y="-434.8" font-family="Times,serif" font-size="14.00" fill="#000000">i1</text>
<text text-anchor="middle" x="649.5" y="-696.8" font-family="Times,serif" font-size="14.00" fill="#000000">/sum</text>
</g>
<!-- r0 -->
<g id="node9" class="node">
<title>r0</title>
<g id="a_node9"><a xlink:href="file:///home/travis/build/andrewdavidmackenzie/flow/flowstdlib/math/add/add.html" xlink:title="cross_sum (#0)">
<ellipse fill="#ff7f50" stroke="#000000" cx="910" cy="-726" rx="83.3857" ry="18"/>
<text text-anchor="middle" x="910" y="-722.3" font-family="Times,serif" font-size="14.00" fill="#000000">cross_sum (#0)</text>
</a>
</g>
</g>
<!-- r1&#45;&gt;r0 -->
<g id="edge10" class="edge">
<title>r1:se&#45;&gt;r0:n</title>
<path fill="none" stroke="#000000" d="M770,-833C813.688,-789.312 863.8145,-842.9299 904,-796 916.7673,-781.09 912.2613,-770.8834 910.5414,-754.0834"/>
<polygon fill="#000000" stroke="#000000" points="914.0312,-753.7979 910,-744 907.0413,-754.1733 914.0312,-753.7979"/>
<text text-anchor="middle" x="903" y="-747.8" font-family="Times,serif" font-size="14.00" fill="#000000">i1</text>
<text text-anchor="middle" x="752.5" y="-821.8" font-family="Times,serif" font-size="14.00" fill="#000000">/sum</text>
</g>
<!-- r10 -->
<g id="node26" class="node">
<title>r10</title>
<g id="a_node26"><a xlink:href="file:///home/travis/build/andrewdavidmackenzie/flow/flowstdlib/math/compare/compare.html" xlink:title="compare (#10)">
<ellipse fill="#ff7f50" stroke="#000000" cx="1185" cy="-326" rx="80.6858" ry="18"/>
<text text-anchor="middle" x="1185" y="-322.3" font-family="Times,serif" font-size="14.00" fill="#000000">compare (#10)</text>
</a>
</g>
</g>
<!-- r14&#45;&gt;r10 -->
<g id="edge35" class="edge">
<title>r14:se&#45;&gt;r10:n</title>
<path fill="none" stroke="#000000" d="M1790,-468C1836.247,-421.753 1244.7251,-413.3542 1189.1683,-353.2532"/>
<polygon fill="#000000" stroke="#000000" points="1192.2984,-351.6801 1185,-344 1185.9161,-354.5552 1192.2984,-351.6801"/>
<text text-anchor="middle" x="1172.5" y="-347.8" font-family="Times,serif" font-size="14.00" fill="#000000">left</text>
<text text-anchor="middle" x="1772.5" y="-456.8" font-family="Times,serif" font-size="14.00" fill="#000000">/sum</text>
</g>
<!-- r15 -->
<g id="node27" class="node">
<title>r15</title>
<g id="a_node27"><a xlink:href="file:///home/travis/build/andrewdavidmackenzie/flow/flowstdlib/control/select/select.html" xlink:title="select_total (#15)">
<ellipse fill="#ff7f50" stroke="#000000" cx="1789" cy="-180" rx="94.4839" ry="18"/>
<text text-anchor="middle" x="1789" y="-176.3" font-family="Times,serif" font-size="14.00" fill="#000000">select_total (#15)</text>
</a>
</g>
</g>
<!-- r14&#45;&gt;r15 -->
<g id="edge36" class="edge">
<title>r14:se&#45;&gt;r15:n</title>
<path fill="none" stroke="#000000" d="M1790,-468C1808.3922,-449.6078 1810,-439.0104 1810,-413 1810,-413 1810,-413 1810,-253 1810,-230.7183 1794.7717,-225.4757 1790.2508,-208.2524"/>
<polygon fill="#000000" stroke="#000000" points="1793.6853,-207.5025 1789,-198 1786.7368,-208.3503 1793.6853,-207.5025"/>
<text text-anchor="middle" x="1782" y="-201.8" font-family="Times,serif" font-size="14.00" fill="#000000">i1</text>
<text text-anchor="middle" x="1807.5" y="-456.8" font-family="Times,serif" font-size="14.00" fill="#000000">/sum</text>
</g>
<!-- r9 -->
<g id="node21" class="node">
<title>r9</title>
<g id="a_node21"><a xlink:href="file:///home/travis/build/andrewdavidmackenzie/flow/flowstdlib/math/add/add.html" xlink:title="cross_sum (#9)">
<ellipse fill="#ff7f50" stroke="#000000" cx="996" cy="-253" rx="83.3857" ry="18"/>
<text text-anchor="middle" x="996" y="-249.3" font-family="Times,serif" font-size="14.00" fill="#000000">cross_sum (#9)</text>
</a>
</g>
</g>
<!-- r12&#45;&gt;r9 -->
<g id="edge33" class="edge">
<title>r12:se&#45;&gt;r9:n</title>
<path fill="none" stroke="#000000" d="M1508,-468C1563.9056,-412.0944 1410.3477,-451.5402 1334,-431 1176.9518,-388.7486 1003.6193,-435.124 996.2439,-281.4168"/>
<polygon fill="#000000" stroke="#000000" points="999.7332,-280.9153 996,-271 992.7351,-281.0792 999.7332,-280.9153"/>
<text text-anchor="middle" x="989" y="-274.8" font-family="Times,serif" font-size="14.00" fill="#000000">i1</text>
<text text-anchor="middle" x="1490.5" y="-456.8" font-family="Times,serif" font-size="14.00" fill="#000000">/sum</text>
</g>
<!-- r0&#45;&gt;r5 -->
<g id="edge15" class="edge">
<title>r0:se&#45;&gt;r5:ne</title>
<path fill="none" stroke="#000000" d="M928,-708C939.0351,-696.9649 707.7116,-606.7383 658.6514,-582.0921"/>
<polygon fill="#000000" stroke="#000000" points="660.3934,-579.0562 650,-577 656.8426,-585.0888 660.3934,-579.0562"/>
<text text-anchor="middle" x="668" y="-580.8" font-family="Times,serif" font-size="14.00" fill="#000000">right</text>
<text text-anchor="middle" x="910.5" y="-696.8" font-family="Times,serif" font-size="14.00" fill="#000000">/sum</text>
</g>
<!-- r0&#45;&gt;r3 -->
<g id="edge16" class="edge">
<title>r0:se&#45;&gt;r3:ne</title>
<path fill="none" stroke="#000000" d="M928,-708C939.4497,-696.5503 1080.5492,-772.5127 747.4507,-438.4613"/>
<polygon fill="#000000" stroke="#000000" points="749.5427,-435.603 740,-431 744.5894,-440.5492 749.5427,-435.603"/>
<text text-anchor="middle" x="733" y="-434.8" font-family="Times,serif" font-size="14.00" fill="#000000">i2</text>
<text text-anchor="middle" x="945.5" y="-696.8" font-family="Times,serif" font-size="14.00" fill="#000000">/sum</text>
</g>
<!-- initializerr4_1 -->
<!-- initializerr4_1&#45;&gt;r4 -->
<g id="edge11" class="edge">
<title>initializerr4_1&#45;&gt;r4:w</title>
<path fill="none" stroke="#0000ff" stroke-dasharray="1,5" d="M496.234,-832.8239C488.8492,-801.2702 478.4399,-738.6628 508.7814,-727.6678"/>
<polygon fill="#0000ff" stroke="#0000ff" points="509.6944,-731.0652 519,-726 508.5668,-724.1566 509.6944,-731.0652"/>
<text text-anchor="middle" x="494" y="-784.8" font-family="Times,serif" font-size="14.00" fill="#000000">0</text>
</g>
<!-- r5&#45;&gt;r3 -->
<g id="edge19" class="edge">
<title>r5:se&#45;&gt;r3:nw</title>
<path fill="none" stroke="#000000" d="M650,-541C685.9532,-505.0468 668.2756,-473.9149 697.106,-438.6021"/>
<polygon fill="#000000" stroke="#000000" points="699.875,-440.7588 704,-431 694.6896,-436.0564 699.875,-440.7588"/>
<text text-anchor="middle" x="678" y="-434.8" font-family="Times,serif" font-size="14.00" fill="#000000">control</text>
<text text-anchor="middle" x="638" y="-529.8" font-family="Times,serif" font-size="14.00" fill="#000000">/lte</text>
</g>
<!-- r6 -->
<g id="node14" class="node">
<title>r6</title>
<g id="a_node14"><a xlink:href="file:///home/travis/build/andrewdavidmackenzie/flow/flowstdlib/control/select/select.html" xlink:title="select_string (#6)">
<ellipse fill="#ff7f50" stroke="#000000" cx="330" cy="-413" rx="94.7833" ry="18"/>
<text text-anchor="middle" x="330" y="-409.3" font-family="Times,serif" font-size="14.00" fill="#000000">select_string (#6)</text>
</a>
</g>
</g>
<!-- r5&#45;&gt;r6 -->
<g id="edge17" class="edge">
<title>r5:se&#45;&gt;r6:nw</title>
<path fill="none" stroke="#000000" d="M650,-541C671.5567,-519.4433 542.424,-534.0207 514,-523 474.1111,-507.534 473.5197,-486.616 435,-468 387.4161,-445.0033 287.9203,-467.4715 305.4425,-438.9043"/>
<polygon fill="#000000" stroke="#000000" points="308.3088,-440.9311 312,-431 302.9214,-436.4616 308.3088,-440.9311"/>
<text text-anchor="middle" x="286" y="-434.8" font-family="Times,serif" font-size="14.00" fill="#000000">control</text>
<text text-anchor="middle" x="662" y="-529.8" font-family="Times,serif" font-size="14.00" fill="#000000">/lte</text>
</g>
<!-- r7 -->
<g id="node15" class="node">
<title>r7</title>
<g id="a_node15"><a xlink:href="file:///home/travis/build/andrewdavidmackenzie/flow/flowstdlib/control/select/select.html" xlink:title="select_route (#7)">
<ellipse fill="#ff7f50" stroke="#000000" cx="467" cy="-107" rx="91.784" ry="18"/>
<text text-anchor="middle" x="467" y="-103.3" font-family="Times,serif" font-size="14.00" fill="#000000">select_route (#7)</text>
</a>
</g>
</g>
<!-- r5&#45;&gt;r7 -->
<g id="edge18" class="edge">
<title>r5:se&#45;&gt;r7:nw</title>
<path fill="none" stroke="#000000" d="M650,-541C665.7098,-525.2902 363.9538,-291.3329 355,-271 347.1156,-253.0957 349.197,-175.7971 359,-162 381.8967,-129.7743 412.5804,-151.0982 441.0402,-131.6462"/>
<polygon fill="#000000" stroke="#000000" points="443.5672,-134.0959 449,-125 439.0807,-128.7226 443.5672,-134.0959"/>
<text text-anchor="middle" x="423" y="-128.8" font-family="Times,serif" font-size="14.00" fill="#000000">control</text>
<text text-anchor="middle" x="638" y="-544.8" font-family="Times,serif" font-size="14.00" fill="#000000">/lte</text>
</g>
<!-- r3&#45;&gt;r4 -->
<g id="edge26" class="edge">
<title>r3:e&#45;&gt;r4:ne</title>
<path fill="none" stroke="#000000" d="M811,-413C887.9759,-413 771.1931,-698.7915 708.8916,-744 697.3849,-752.3497 660.1602,-755.1693 641.0203,-748.9216"/>
<polygon fill="#000000" stroke="#000000" points="642.4548,-745.7172 632,-744 639.102,-751.8621 642.4548,-745.7172"/>
<text text-anchor="middle" x="625" y="-747.8" font-family="Times,serif" font-size="14.00" fill="#000000">i2</text>
<text text-anchor="middle" x="845.5" y="-416.8" font-family="Times,serif" font-size="14.00" fill="#000000">/select_i1</text>
</g>
<!-- r3&#45;&gt;r9 -->
<g id="edge27" class="edge">
<title>r3:e&#45;&gt;r9:ne</title>
<path fill="none" stroke="#000000" d="M811,-413C890.5258,-413 870.2907,-327.2748 940,-289 964.3385,-275.6366 1014.6477,-288.1906 1018.7302,-279.9221"/>
<polygon fill="#000000" stroke="#000000" points="1021.7764,-278.1957 1014,-271 1015.5918,-281.4746 1021.7764,-278.1957"/>
<text text-anchor="middle" x="1007" y="-274.8" font-family="Times,serif" font-size="14.00" fill="#000000">i2</text>
<text text-anchor="middle" x="845.5" y="-401.8" font-family="Times,serif" font-size="14.00" fill="#000000">/select_i1</text>
</g>
<!-- r17 -->
<g id="node22" class="node">
<title>r17</title>
<g id="a_node22"><a xlink:href="file:///home/travis/build/andrewdavidmackenzie/flow/flowr/src/lib/flowruntime/stdio/stdout.html" xlink:title="print (#17)">
<ellipse fill="#ff7f50" stroke="#000000" cx="805" cy="-107" rx="63.0888" ry="18"/>
<text text-anchor="middle" x="805" y="-103.3" font-family="Times,serif" font-size="14.00" fill="#000000">print (#17)</text>
</a>
</g>
</g>
<!-- r3&#45;&gt;r17 -->
<g id="edge28" class="edge">
<title>r3:e&#45;&gt;r17:n</title>
<path fill="none" stroke="#000000" d="M811,-413C870.8191,-413 819.8887,-203.8087 821,-144 821.0083,-143.5556 821.1579,-143.4154 821,-143 818.8603,-137.3722 814.0653,-135.7671 810.2792,-133.5348"/>
<polygon fill="#000000" stroke="#000000" points="813.2371,-131.6634 805,-125 807.2839,-135.3457 813.2371,-131.6634"/>
<text text-anchor="middle" x="776.5" y="-416.8" font-family="Times,serif" font-size="14.00" fill="#000000">/select_i1</text>
</g>
<!-- initializerr0_1 -->
<!-- initializerr0_1&#45;&gt;r0 -->
<g id="edge14" class="edge">
<title>initializerr0_1&#45;&gt;r0:w</title>
<path fill="none" stroke="#0000ff" stroke-dasharray="1,5" d="M968.6558,-834.7866C902.2007,-802.7482 766.7178,-733.792 816.0066,-726.6084"/>
<polygon fill="#0000ff" stroke="#0000ff" points="816.2312,-730.1013 826,-726 815.8058,-723.1142 816.2312,-730.1013"/>
<text text-anchor="middle" x="894" y="-784.8" font-family="Times,serif" font-size="14.00" fill="#000000">0</text>
</g>
<!-- r2 -->
<g id="node18" class="node">
<title>r2</title>
<g id="a_node18"><a xlink:href="file:///home/travis/build/andrewdavidmackenzie/flow/flowstdlib/data/append/append.html" xlink:title="append (#2)">
<ellipse fill="#ff7f50" stroke="#000000" cx="177" cy="-253" rx="68.4888" ry="18"/>
<text text-anchor="middle" x="177" y="-249.3" font-family="Times,serif" font-size="14.00" fill="#000000">append (#2)</text>
</a>
</g>
</g>
<!-- r6&#45;&gt;r2 -->
<g id="edge22" class="edge">
<title>r6:e&#45;&gt;r2:ne</title>
<path fill="none" stroke="#000000" d="M425,-413C433,-413 429.0952,-401.8724 425,-395 423.3442,-392.2212 245.0246,-298.1148 202.8469,-275.0311"/>
<polygon fill="#000000" stroke="#000000" points="204.4229,-271.901 194,-270 200.9625,-277.9859 204.4229,-271.901"/>
<text text-anchor="middle" x="185.5" y="-273.8" font-family="Times,serif" font-size="14.00" fill="#000000">s2</text>
<text text-anchor="middle" x="459.5" y="-416.8" font-family="Times,serif" font-size="14.00" fill="#000000">/select_i1</text>
</g>
<!-- r7&#45;&gt;r2 -->
<g id="edge25" class="edge">
<title>r7:e&#45;&gt;r2:n</title>
<path fill="none" stroke="#000000" d="M559,-107C567,-107 562.9203,-118.0264 559,-125 551.3521,-138.6043 453.0297,-191.1636 439,-198 397.6378,-218.155 290.5108,-262.7555 245.2439,-271 233.8209,-273.0805 199.8861,-280.8649 184.6066,-277.5934"/>
<polygon fill="#000000" stroke="#000000" points="186.8489,-274.9052 177,-271 182.2639,-280.1947 186.8489,-274.9052"/>
<text text-anchor="middle" x="168.5" y="-274.8" font-family="Times,serif" font-size="14.00" fill="#000000">s1</text>
<text text-anchor="middle" x="593.5" y="-110.8" font-family="Times,serif" font-size="14.00" fill="#000000">/select_i1</text>
</g>
<!-- initializerr6_0 -->
<!-- initializerr6_0&#45;&gt;r6 -->
<g id="edge20" class="edge">
<title>initializerr6_0&#45;&gt;r6:ne</title>
<path fill="none" stroke="#0000ff" d="M404.4733,-540.5909C397.5415,-515.5675 382.1716,-470.3203 355.1288,-438.7195"/>
<polygon fill="#0000ff" stroke="#0000ff" points="357.3557,-435.972 348,-431 352.2131,-440.7211 357.3557,-435.972"/>
<text text-anchor="middle" x="404.5" y="-482.3" font-family="Times,serif" font-size="14.00" fill="#000000">&quot;A&quot;</text>
</g>
<!-- initializerr6_1 -->
<!-- initializerr6_1&#45;&gt;r6 -->
<g id="edge21" class="edge">
<title>initializerr6_1&#45;&gt;r6:w</title>
<path fill="none" stroke="#0000ff" d="M183.4207,-540.8042C181.1993,-504.2653 181.4944,-424.5576 225.0373,-414.1325"/>
<polygon fill="#0000ff" stroke="#0000ff" points="225.4593,-417.6072 235,-413 224.6686,-410.652 225.4593,-417.6072"/>
<text text-anchor="middle" x="204" y="-482.3" font-family="Times,serif" font-size="14.00" fill="#000000">&quot;BC&quot;</text>
</g>
<!-- r2&#45;&gt;r7 -->
<g id="edge29" class="edge">
<title>r2:e&#45;&gt;r7:n</title>
<path fill="none" stroke="#000000" d="M246,-253C310.4827,-253 302.5357,-193.1417 359,-162 399.9584,-139.4103 457.1839,-170.1463 465.8754,-135.3349"/>
<polygon fill="#000000" stroke="#000000" points="469.3976,-135.32 467,-125 462.4387,-134.5627 469.3976,-135.32"/>
<text text-anchor="middle" x="460" y="-128.8" font-family="Times,serif" font-size="14.00" fill="#000000">i1</text>
</g>
<!-- r2&#45;&gt;r17 -->
<g id="edge31" class="edge">
<title>r2:e&#45;&gt;r17:n</title>
<path fill="none" stroke="#000000" d="M246,-253C295.1006,-253 306.3883,-241.9113 355,-235 492.3742,-215.4691 532.4301,-238.9677 665,-198 728.64,-178.3335 797.6057,-193.4554 804.4459,-135.0257"/>
<polygon fill="#000000" stroke="#000000" points="807.9428,-135.1779 805,-125 800.9534,-134.7916 807.9428,-135.1779"/>
</g>
<!-- r16 -->
<g id="node23" class="node">
<title>r16</title>
<g id="a_node23"><a xlink:href="file:///home/travis/build/andrewdavidmackenzie/flow/flowstdlib/control/select/select.html" xlink:title="select_route (#16)">
<ellipse fill="#ff7f50" stroke="#000000" cx="206" cy="-107" rx="97.4827" ry="18"/>
<text text-anchor="middle" x="206" y="-103.3" font-family="Times,serif" font-size="14.00" fill="#000000">select_route (#16)</text>
</a>
</g>
</g>
<!-- r2&#45;&gt;r16 -->
<g id="edge30" class="edge">
<title>r2:e&#45;&gt;r16:ne</title>
<path fill="none" stroke="#000000" d="M246,-253C254,-253 248.9585,-242.4328 246,-235 237.6287,-213.9687 219.3713,-219.0313 211,-198 205.0829,-183.1343 208.3098,-177.7722 211,-162 213.1064,-149.6506 225.2677,-142.3062 227.3655,-134.5756"/>
<polygon fill="#000000" stroke="#000000" points="230.6179,-133.2737 224,-125 224.0139,-135.5948 230.6179,-133.2737"/>
<text text-anchor="middle" x="217" y="-128.8" font-family="Times,serif" font-size="14.00" fill="#000000">i2</text>
</g>
<!-- initializerr7_0 -->
<!-- initializerr7_0&#45;&gt;r7 -->
<g id="edge23" class="edge">
<title>initializerr7_0&#45;&gt;r7:ne</title>
<path fill="none" stroke="#0000ff" stroke-dasharray="1,5" d="M674.267,-235.3502C650.1791,-210.9776 603.2932,-167.2823 555,-143 529.6637,-130.2606 512.2095,-143.6885 492.8384,-131.3824"/>
<polygon fill="#0000ff" stroke="#0000ff" points="494.9645,-128.6001 485,-125 490.5446,-134.0282 494.9645,-128.6001"/>
<text text-anchor="middle" x="640" y="-176.3" font-family="Times,serif" font-size="14.00" fill="#000000">&quot;&quot;</text>
</g>
<!-- initializerr7_1 -->
<!-- initializerr7_1&#45;&gt;r7 -->
<g id="edge24" class="edge">
<title>initializerr7_1&#45;&gt;r7:w</title>
<path fill="none" stroke="#0000ff" stroke-dasharray="1,5" d="M447.4327,-235.389C408.1797,-199.1361 326.7308,-118.6707 364.9661,-108.1437"/>
<polygon fill="#0000ff" stroke="#0000ff" points="365.4607,-111.6101 375,-107 364.6679,-104.6551 365.4607,-111.6101"/>
<text text-anchor="middle" x="414" y="-176.3" font-family="Times,serif" font-size="14.00" fill="#000000">&quot;&quot;</text>
</g>
<!-- r9&#45;&gt;r10 -->
<g id="edge37" class="edge">
<title>r9:se&#45;&gt;r10:ne</title>
<path fill="none" stroke="#000000" d="M1014,-235C1024.244,-224.756 1068.2917,-225.458 1079.1926,-235 1091.3387,-245.6319 1074.0163,-258.3157 1084,-271 1098.4465,-289.3542 1110.3825,-284.1665 1133,-290 1161.7931,-297.4263 1246.0321,-285.6043 1265.5928,-308 1265.5928,-308 1228.9021,-329.1025 1211.7033,-338.9944"/>
<polygon fill="#000000" stroke="#000000" points="1209.9235,-335.9803 1203,-344 1213.4135,-342.0483 1209.9235,-335.9803"/>
<text text-anchor="middle" x="1221" y="-347.8" font-family="Times,serif" font-size="14.00" fill="#000000">right</text>
<text text-anchor="middle" x="996.5" y="-223.8" font-family="Times,serif" font-size="14.00" fill="#000000">/sum</text>
</g>
<!-- r9&#45;&gt;r15 -->
<g id="edge38" class="edge">
<title>r9:se&#45;&gt;r15:ne</title>
<path fill="none" stroke="#000000" d="M1014,-235C1042.6581,-206.3419 1714.6382,-225.4445 1799.1835,-204.5288"/>
<polygon fill="#000000" stroke="#000000" points="1801.5687,-207.0968 1807,-198 1797.0813,-201.7243 1801.5687,-207.0968"/>
<text text-anchor="middle" x="1800" y="-201.8" font-family="Times,serif" font-size="14.00" fill="#000000">i2</text>
<text text-anchor="middle" x="1031.5" y="-223.8" font-family="Times,serif" font-size="14.00" fill="#000000">/sum</text>
</g>
<!-- r13 -->
<g id="node31" class="node">
<title>r13</title>
<g id="a_node31"><a xlink:href="file:///home/travis/build/andrewdavidmackenzie/flow/flowstdlib/data/append/append.html" xlink:title="append (#13)">
<ellipse fill="#ff7f50" stroke="#000000" cx="1178" cy="-34" rx="74.187" ry="18"/>
<text text-anchor="middle" x="1178" y="-30.3" font-family="Times,serif" font-size="14.00" fill="#000000">append (#13)</text>
</a>
</g>
</g>
<!-- r16&#45;&gt;r13 -->
<g id="edge46" class="edge">
<title>r16:e&#45;&gt;r13:n</title>
<path fill="none" stroke="#000000" d="M304,-107C332.3645,-107 328.8865,-78.3308 356,-70 376.4457,-63.7179 1079.5522,-73.4465 1168.7314,-55.947"/>
<polygon fill="#000000" stroke="#000000" points="1170.1708,-59.1383 1178,-52 1167.4282,-52.6979 1170.1708,-59.1383"/>
<text text-anchor="middle" x="1169.5" y="-55.8" font-family="Times,serif" font-size="14.00" fill="#000000">s1</text>
<text text-anchor="middle" x="338.5" y="-110.8" font-family="Times,serif" font-size="14.00" fill="#000000">/select_i1</text>
</g>
<!-- initializerr12_1 -->
<!-- initializerr12_1&#45;&gt;r12 -->
<g id="edge32" class="edge">
<title>initializerr12_1&#45;&gt;r12:w</title>
<path fill="none" stroke="#0000ff" d="M1409.4137,-614.0975C1384.949,-578.0048 1336.3002,-498.9514 1370.9937,-487.4157"/>
<polygon fill="#0000ff" stroke="#0000ff" points="1371.5889,-490.8664 1381,-486 1370.6083,-483.9354 1371.5889,-490.8664"/>
<text text-anchor="middle" x="1390" y="-555.3" font-family="Times,serif" font-size="14.00" fill="#000000">0</text>
</g>
<!-- initializerr14_1 -->
<!-- initializerr14_1&#45;&gt;r14 -->
<g id="edge34" class="edge">
<title>initializerr14_1&#45;&gt;r14:w</title>
<path fill="none" stroke="#0000ff" stroke-dasharray="1,5" d="M1652.2015,-613.8042C1641.5498,-577.5711 1623.2205,-498.8886 1660.8406,-487.4087"/>
<polygon fill="#0000ff" stroke="#0000ff" points="1661.5755,-490.8404 1671,-486 1660.614,-483.9067 1661.5755,-490.8404"/>
<text text-anchor="middle" x="1647" y="-555.3" font-family="Times,serif" font-size="14.00" fill="#000000">0</text>
</g>
<!-- r10&#45;&gt;r16 -->
<g id="edge40" class="edge">
<title>r10:se&#45;&gt;r16:nw</title>
<path fill="none" stroke="#000000" d="M1203,-308C1238.9327,-272.0673 1161.261,-256.0295 1115,-235 930.5493,-151.1515 866.1788,-186.0778 665,-162 641.2891,-159.1622 259.9833,-146.7284 196.4052,-130.602"/>
<polygon fill="#000000" stroke="#000000" points="198.2623,-127.6336 188,-125 194.3801,-133.4585 198.2623,-127.6336"/>
<text text-anchor="middle" x="162" y="-128.8" font-family="Times,serif" font-size="14.00" fill="#000000">control</text>
<text text-anchor="middle" x="1191" y="-296.8" font-family="Times,serif" font-size="14.00" fill="#000000">/lte</text>
</g>
<!-- r10&#45;&gt;r15 -->
<g id="edge41" class="edge">
<title>r10:se&#45;&gt;r15:nw</title>
<path fill="none" stroke="#000000" d="M1203,-308C1212.889,-298.111 1438.4728,-274.5498 1452,-271 1495.2717,-259.6447 1502.8174,-246.6896 1546,-235 1640.3832,-209.4502 1695.3838,-265.4697 1763.4994,-205.0751"/>
<polygon fill="#000000" stroke="#000000" points="1766.1272,-207.4078 1771,-198 1761.324,-202.3157 1766.1272,-207.4078"/>
<text text-anchor="middle" x="1745" y="-201.8" font-family="Times,serif" font-size="14.00" fill="#000000">control</text>
<text text-anchor="middle" x="1215" y="-296.8" font-family="Times,serif" font-size="14.00" fill="#000000">/lte</text>
</g>
<!-- r11 -->
<g id="node28" class="node">
<title>r11</title>
<g id="a_node28"><a xlink:href="file:///home/travis/build/andrewdavidmackenzie/flow/flowstdlib/control/select/select.html" xlink:title="select_string (#11)">
<ellipse fill="#ff7f50" stroke="#000000" cx="1478" cy="-180" rx="100.9827" ry="18"/>
<text text-anchor="middle" x="1478" y="-176.3" font-family="Times,serif" font-size="14.00" fill="#000000">select_string (#11)</text>
</a>
</g>
</g>
<!-- r10&#45;&gt;r11 -->
<g id="edge39" class="edge">
<title>r10:se&#45;&gt;r11:nw</title>
<path fill="none" stroke="#000000" d="M1203,-308C1238.2101,-272.7899 1384.038,-300.7077 1424,-271 1450.0833,-251.6097 1437.7093,-228.7842 1453.4775,-205.7971"/>
<polygon fill="#000000" stroke="#000000" points="1456.2682,-207.9159 1460,-198 1450.8991,-203.4244 1456.2682,-207.9159"/>
<text text-anchor="middle" x="1434" y="-201.8" font-family="Times,serif" font-size="14.00" fill="#000000">control</text>
<text text-anchor="middle" x="1191" y="-311.8" font-family="Times,serif" font-size="14.00" fill="#000000">/lte</text>
</g>
<!-- r15&#45;&gt;r14 -->
<g id="edge47" class="edge">
<title>r15:e&#45;&gt;r14:ne</title>
<path fill="none" stroke="#000000" d="M1884,-180C1916.4444,-180 1884,-220.5556 1884,-253 1884,-413 1884,-413 1884,-413 1884,-453.7528 1903.2756,-477.0105 1872.7411,-504 1867.1712,-508.9232 1820.7611,-510.135 1799.762,-506.9817"/>
<polygon fill="#000000" stroke="#000000" points="1800.5863,-503.5739 1790,-504 1798.5414,-510.2686 1800.5863,-503.5739"/>
<text text-anchor="middle" x="1783" y="-507.8" font-family="Times,serif" font-size="14.00" fill="#000000">i2</text>
<text text-anchor="middle" x="1918.5" y="-183.8" font-family="Times,serif" font-size="14.00" fill="#000000">/select_i1</text>
</g>
<!-- r15&#45;&gt;r0 -->
<g id="edge48" class="edge">
<title>r15:e&#45;&gt;r0:ne</title>
<path fill="none" stroke="#000000" d="M1884,-180C1942.6751,-180 1994,-194.3249 1994,-253 1994,-486 1994,-486 1994,-486 1994,-615.9945 1895.4764,-629.7754 1776,-681 1609.0236,-752.5898 1021.8602,-751.3756 937.9567,-745.3547"/>
<polygon fill="#000000" stroke="#000000" points="938.3806,-741.8802 928,-744 937.4368,-748.8163 938.3806,-741.8802"/>
<text text-anchor="middle" x="921" y="-747.8" font-family="Times,serif" font-size="14.00" fill="#000000">i2</text>
<text text-anchor="middle" x="1918.5" y="-168.8" font-family="Times,serif" font-size="14.00" fill="#000000">/select_i1</text>
</g>
<!-- r11&#45;&gt;r13 -->
<g id="edge44" class="edge">
<title>r11:e&#45;&gt;r13:ne</title>
<path fill="none" stroke="#000000" d="M1579,-180C1587,-180 1583.8132,-168.3901 1579,-162 1566.6954,-145.6639 1263.6109,-78.9908 1205.1669,-56.5861"/>
<polygon fill="#000000" stroke="#000000" points="1206.5092,-53.3441 1196,-52 1203.3773,-59.6044 1206.5092,-53.3441"/>
<text text-anchor="middle" x="1187.5" y="-55.8" font-family="Times,serif" font-size="14.00" fill="#000000">s2</text>
<text text-anchor="middle" x="1613.5" y="-183.8" font-family="Times,serif" font-size="14.00" fill="#000000">/select_i1</text>
</g>
<!-- initializerr11_0 -->
<!-- initializerr11_0&#45;&gt;r11 -->
<g id="edge42" class="edge">
<title>initializerr11_0&#45;&gt;r11:ne</title>
<path fill="none" stroke="#0000ff" d="M1630.2109,-308.6362C1599.4952,-286.59 1545.993,-246.4332 1503.2953,-205.1693"/>
<polygon fill="#0000ff" stroke="#0000ff" points="1505.5857,-202.5129 1496,-198 1500.6792,-207.5056 1505.5857,-202.5129"/>
<text text-anchor="middle" x="1591.5" y="-249.3" font-family="Times,serif" font-size="14.00" fill="#000000">&quot;B&quot;</text>
</g>
<!-- initializerr11_1 -->
<!-- initializerr11_1&#45;&gt;r11 -->
<g id="edge43" class="edge">
<title>initializerr11_1&#45;&gt;r11:w</title>
<path fill="none" stroke="#0000ff" d="M1406.2774,-308.0975C1381.5397,-272.0048 1332.3018,-192.9514 1366.9846,-181.4157"/>
<polygon fill="#0000ff" stroke="#0000ff" points="1367.5883,-184.8652 1377,-180 1366.6085,-177.9341 1367.5883,-184.8652"/>
<text text-anchor="middle" x="1393.5" y="-249.3" font-family="Times,serif" font-size="14.00" fill="#000000">&quot;C&quot;</text>
</g>
<!-- r13&#45;&gt;r7 -->
<g id="edge50" class="edge">
<title>r13:e&#45;&gt;r7:ne</title>
<path fill="none" stroke="#000000" d="M1252,-34C1260,-34 1257.5048,-46.1951 1252,-52 1210.1965,-96.0828 765.8598,-70.6252 706,-81 638.6543,-92.6723 626.2735,-115.1184 558.6419,-125 545.3586,-126.9408 512.1004,-133.4842 494.1896,-129.3855"/>
<polygon fill="#000000" stroke="#000000" points="495.5324,-126.1483 485,-125 492.5175,-132.4658 495.5324,-126.1483"/>
<text text-anchor="middle" x="478" y="-128.8" font-family="Times,serif" font-size="14.00" fill="#000000">i2</text>
</g>
<!-- r13&#45;&gt;r16 -->
<g id="edge49" class="edge">
<title>r13:e&#45;&gt;r16:n</title>
<path fill="none" stroke="#000000" d="M1252,-34C1260,-34 1257.5663,-46.2541 1252,-52 1216.6901,-88.4493 384.4327,-58.39 339,-81 316.5027,-92.196 326.1636,-114.1626 303.4913,-125 295.6651,-128.741 237.8567,-133.4368 215.1343,-129.5969"/>
<polygon fill="#000000" stroke="#000000" points="216.506,-126.369 206,-125 213.3592,-132.6219 216.506,-126.369"/>
<text text-anchor="middle" x="199" y="-128.8" font-family="Times,serif" font-size="14.00" fill="#000000">i1</text>
</g>
<!-- initializerr16_0 -->
<!-- initializerr16_0&#45;&gt;r16 -->
<g id="edge45" class="edge">
<title>initializerr16_0&#45;&gt;r16:ne</title>
<path fill="none" stroke="#0000ff" stroke-dasharray="1,5" d="M1167.5332,-614.4362C1119.1805,-569.5683 983.1007,-450.3814 846,-395 523.3795,-264.6785 298.7121,-535.8051 73,-271 62.6209,-258.8232 65.7452,-249.2607 73,-235 75.0129,-231.0432 186.7731,-156.0407 216.7395,-132.1457"/>
<polygon fill="#0000ff" stroke="#0000ff" points="219.3278,-134.509 224,-125 214.4177,-129.5199 219.3278,-134.509"/>
<text text-anchor="middle" x="800" y="-365.8" font-family="Times,serif" font-size="14.00" fill="#000000">&quot;&quot;</text>
</g>
</g>
</svg>
