<?xml version="1.0" encoding="UTF-8" standalone="no"?>
<!DOCTYPE svg PUBLIC "-//W3C//DTD SVG 1.1//EN"
 "http://www.w3.org/Graphics/SVG/1.1/DTD/svg11.dtd">
<!-- Generated by graphviz version 2.40.1 (20161225.0304)
 -->
<!-- Title: router Pages: 1 -->
<svg width="2024pt" height="1081pt"
 viewBox="0.00 0.00 2024.00 1081.00" xmlns="http://www.w3.org/2000/svg" xmlns:xlink="http://www.w3.org/1999/xlink">
<g id="graph0" class="graph" transform="scale(1 1) rotate(0) translate(4 1077)">
<title>router</title>
<polygon fill="#ffffff" stroke="transparent" points="-4,4 -4,-1077 2020,-1077 2020,4 -4,4"/>
<text text-anchor="middle" x="1008" y="-1057.8" font-family="Times,serif" font-size="14.00" fill="#000000">/router</text>
<g id="clust1" class="cluster">
<title>cluster_A_tracker</title>
<polygon fill="none" stroke="#000000" points="101,-81 101,-900 1123,-900 1123,-81 101,-81"/>
<text text-anchor="middle" x="612" y="-884.8" font-family="Times,serif" font-size="14.00" fill="#000000">/router/A_tracker</text>
</g>
<g id="clust2" class="cluster">
<title>cluster_B_tracker</title>
<polygon fill="none" stroke="#000000" points="1141,-8 1141,-681 1903,-681 1903,-8 1141,-8"/>
<text text-anchor="middle" x="1522" y="-665.8" font-family="Times,serif" font-size="14.00" fill="#000000">/router/B_tracker</text>
</g>
<!-- r1 -->
<g id="node1" class="node">
<title>r1</title>
<g id="a_node1"><a xlink:href="file:///home/travis/build/andrewdavidmackenzie/flow/flowr/src/lib/flowruntime/stdio/readline.html" xlink:title="readline (#1)">
<ellipse fill="#ff7f50" stroke="#000000" cx="96" cy="-1032" rx="72.2875" ry="18"/>
<text text-anchor="middle" x="96" y="-1028.3" font-family="Times,serif" font-size="14.00" fill="#000000">readline (#1)</text>
</a>
</g>
</g>
<!-- r0 -->
<g id="node2" class="node">
<title>r0</title>
<g id="a_node2"><a xlink:href="file:///home/travis/build/andrewdavidmackenzie/flow/flowstdlib/data/accumulate/accumulate.html" xlink:title="accumulate_triples (#0)">
<ellipse fill="#ff7f50" stroke="#000000" cx="316" cy="-945" rx="123.4781" ry="18"/>
<text text-anchor="middle" x="316" y="-941.3" font-family="Times,serif" font-size="14.00" fill="#000000">accumulate_triples (#0)</text>
</a>
</g>
</g>
<!-- r1&#45;&gt;r0 -->
<g id="edge1" class="edge">
<title>r1:e&#45;&gt;r0:n</title>
<path fill="none" stroke="#000000" d="M168,-1032C185.8885,-1032 187.8573,-1021.7079 204,-1014 214.4114,-1009.0287 286.9879,-985.8735 309.4139,-970.5453"/>
<polygon fill="#000000" stroke="#000000" points="312.0608,-972.8353 316,-963 306.7872,-968.2321 312.0608,-972.8353"/>
<text text-anchor="middle" x="293" y="-966.8" font-family="Times,serif" font-size="14.00" fill="#000000">values</text>
<text text-anchor="middle" x="185" y="-1035.8" font-family="Times,serif" font-size="14.00" fill="#000000">/json</text>
</g>
<!-- r0&#45;&gt;r0 -->
<g id="edge4" class="edge">
<title>r0:e&#45;&gt;r0:ne</title>
<path fill="none" stroke="#000000" d="M440,-945C463.489,-936 511.489,-936 511.489,-954 511.489,-971.0859 410.2815,-971.9536 344.2712,-964.3003"/>
<polygon fill="#000000" stroke="#000000" points="344.3604,-960.7837 334,-963 343.4812,-967.7283 344.3604,-960.7837"/>
<text text-anchor="middle" x="358" y="-966.8" font-family="Times,serif" font-size="14.00" fill="#000000">partial</text>
<text text-anchor="middle" x="466" y="-948.8" font-family="Times,serif" font-size="14.00" fill="#000000">/partial</text>
</g>
<!-- r17 -->
<g id="node5" class="node">
<title>r17</title>
<g id="a_node5"><a xlink:href="file:///home/travis/build/andrewdavidmackenzie/flow/flowstdlib/math/add/add.html" xlink:title="forward_sum (#17)">
<ellipse fill="#ff7f50" stroke="#000000" cx="643" cy="-726" rx="100.9827" ry="18"/>
<text text-anchor="middle" x="643" y="-722.3" font-family="Times,serif" font-size="14.00" fill="#000000">forward_sum (#17)</text>
</a>
</g>
</g>
<!-- r0&#45;&gt;r17 -->
<g id="edge5" class="edge">
<title>r0:s&#45;&gt;r17:n</title>
<path fill="none" stroke="#000000" d="M316,-927C316,-821.0683 389.1943,-800.1964 488,-762 516.8057,-750.8643 617.2493,-772.7916 638.8767,-753.2245"/>
<polygon fill="#000000" stroke="#000000" points="642.1144,-754.5578 643,-744 635.7238,-751.7011 642.1144,-754.5578"/>
<text text-anchor="middle" x="636" y="-747.8" font-family="Times,serif" font-size="14.00" fill="#000000">i1</text>
<text text-anchor="middle" x="284.5" y="-915.8" font-family="Times,serif" font-size="14.00" fill="#000000">/chunk/0</text>
</g>
<!-- r14 -->
<g id="node6" class="node">
<title>r14</title>
<g id="a_node6"><a xlink:href="file:///home/travis/build/andrewdavidmackenzie/flow/flowstdlib/math/add/add.html" xlink:title="cross_distance (#14)">
<ellipse fill="#ff7f50" stroke="#000000" cx="770" cy="-851" rx="109.381" ry="18"/>
<text text-anchor="middle" x="770" y="-847.3" font-family="Times,serif" font-size="14.00" fill="#000000">cross_distance (#14)</text>
</a>
</g>
</g>
<!-- r0&#45;&gt;r14 -->
<g id="edge6" class="edge">
<title>r0:sw&#45;&gt;r14:ne</title>
<path fill="none" stroke="#000000" d="M298,-927C272.221,-901.221 588.8732,-904.8958 625,-900 694.2215,-890.6194 825.3522,-917.9835 794.6677,-876.5735"/>
<polygon fill="#000000" stroke="#000000" points="797.235,-874.1929 788,-869 791.981,-878.8185 797.235,-874.1929"/>
<text text-anchor="middle" x="781" y="-872.8" font-family="Times,serif" font-size="14.00" fill="#000000">i2</text>
<text text-anchor="middle" x="329.5" y="-915.8" font-family="Times,serif" font-size="14.00" fill="#000000">/chunk/1</text>
</g>
<!-- r0&#45;&gt;r14 -->
<g id="edge7" class="edge">
<title>r0:se&#45;&gt;r14:n</title>
<path fill="none" stroke="#000000" d="M334,-927C400.5495,-860.4505 743.1803,-958.9083 768.5182,-879.0476"/>
<polygon fill="#000000" stroke="#000000" points="772.0035,-879.4037 770,-869 765.0784,-878.3823 772.0035,-879.4037"/>
<text text-anchor="middle" x="763" y="-872.8" font-family="Times,serif" font-size="14.00" fill="#000000">i1</text>
<text text-anchor="middle" x="365.5" y="-915.8" font-family="Times,serif" font-size="14.00" fill="#000000">/chunk/2</text>
</g>
<!-- r3 -->
<g id="node7" class="node">
<title>r3</title>
<g id="a_node7"><a xlink:href="file:///home/travis/build/andrewdavidmackenzie/flow/flowstdlib/math/add/add.html" xlink:title="forward_sum (#3)">
<ellipse fill="#ff7f50" stroke="#000000" cx="1790" cy="-486" rx="94.7833" ry="18"/>
<text text-anchor="middle" x="1790" y="-482.3" font-family="Times,serif" font-size="14.00" fill="#000000">forward_sum (#3)</text>
</a>
</g>
</g>
<!-- r0&#45;&gt;r3 -->
<g id="edge8" class="edge">
<title>r0:sw&#45;&gt;r3:n</title>
<path fill="none" stroke="#000000" d="M298,-927C263.9507,-892.9507 128.5686,-915.5633 83,-900 42.4615,-886.1546 0,-893.8376 0,-851 0,-851 0,-851 0,-595.5 0,-551.3694 40.8581,-554.0982 83,-541 104.628,-534.2778 1642.0245,-528.2768 1780.1064,-507.0917"/>
<polygon fill="#000000" stroke="#000000" points="1781.4992,-510.3235 1790,-504 1779.4112,-503.6421 1781.4992,-510.3235"/>
<text text-anchor="middle" x="1783" y="-507.8" font-family="Times,serif" font-size="14.00" fill="#000000">i1</text>
<text text-anchor="middle" x="266.5" y="-915.8" font-family="Times,serif" font-size="14.00" fill="#000000">/chunk/1</text>
</g>
<!-- r10 -->
<g id="node8" class="node">
<title>r10</title>
<g id="a_node8"><a xlink:href="file:///home/travis/build/andrewdavidmackenzie/flow/flowstdlib/math/add/add.html" xlink:title="cross_distance (#10)">
<ellipse fill="#ff7f50" stroke="#000000" cx="1514" cy="-486" rx="109.381" ry="18"/>
<text text-anchor="middle" x="1514" y="-482.3" font-family="Times,serif" font-size="14.00" fill="#000000">cross_distance (#10)</text>
</a>
</g>
</g>
<!-- r0&#45;&gt;r10 -->
<g id="edge9" class="edge">
<title>r0:se&#45;&gt;r10:n</title>
<path fill="none" stroke="#000000" d="M334,-927C341.9299,-919.0701 1129.7966,-900.501 1141,-900 1335.5546,-891.2989 2016,-1045.7491 2016,-851 2016,-851 2016,-851 2016,-595.5 2016,-569.2556 1585.7504,-537.4789 1521.8852,-510.4133"/>
<polygon fill="#000000" stroke="#000000" points="1523.9664,-507.5946 1514,-504 1519.5495,-513.0252 1523.9664,-507.5946"/>
<text text-anchor="middle" x="1507" y="-507.8" font-family="Times,serif" font-size="14.00" fill="#000000">i1</text>
<text text-anchor="middle" x="302.5" y="-930.8" font-family="Times,serif" font-size="14.00" fill="#000000">/chunk/2</text>
</g>
<!-- initializerr0_1 -->
<!-- initializerr0_1&#45;&gt;r0 -->
<g id="edge2" class="edge">
<title>initializerr0_1&#45;&gt;r0:n</title>
<path fill="none" stroke="#0000ff" stroke-dasharray="1,5" d="M316,-1013.8403C316,-1002.6435 316,-987.7161 316,-973.324"/>
<polygon fill="#0000ff" stroke="#0000ff" points="319.5001,-973 316,-963 312.5001,-973 319.5001,-973"/>
<text text-anchor="middle" x="321.5" y="-984.8" font-family="Times,serif" font-size="14.00" fill="#000000">[]</text>
</g>
<!-- initializerr0_2 -->
<!-- initializerr0_2&#45;&gt;r0 -->
<g id="edge3" class="edge">
<title>initializerr0_2&#45;&gt;r0:n</title>
<path fill="none" stroke="#0000ff" d="M488.3286,-1018.6934C433.2876,-1004.2146 350.5393,-981.4804 324.294,-969.0879"/>
<polygon fill="#0000ff" stroke="#0000ff" points="326.1325,-966.0958 316,-963 321.9904,-971.7388 326.1325,-966.0958"/>
<text text-anchor="middle" x="406" y="-984.8" font-family="Times,serif" font-size="14.00" fill="#000000">3</text>
</g>
<!-- r15 -->
<g id="node11" class="node">
<title>r15</title>
<g id="a_node11"><a xlink:href="file:///home/travis/build/andrewdavidmackenzie/flow/flowstdlib/math/compare/compare.html" xlink:title="compare (#15)">
<ellipse fill="#ff7f50" stroke="#000000" cx="661" cy="-559" rx="80.6858" ry="18"/>
<text text-anchor="middle" x="661" y="-555.3" font-family="Times,serif" font-size="14.00" fill="#000000">compare (#15)</text>
</a>
</g>
</g>
<!-- r17&#45;&gt;r15 -->
<g id="edge12" class="edge">
<title>r17:se&#45;&gt;r15:n</title>
<path fill="none" stroke="#000000" d="M661,-708C699.6767,-669.3233 665.6835,-639.0849 661.4254,-587.2909"/>
<polygon fill="#000000" stroke="#000000" points="664.9101,-586.8469 661,-577 657.9161,-587.136 664.9101,-586.8469"/>
<text text-anchor="middle" x="648.5" y="-580.8" font-family="Times,serif" font-size="14.00" fill="#000000">left</text>
<text text-anchor="middle" x="643.5" y="-696.8" font-family="Times,serif" font-size="14.00" fill="#000000">/sum</text>
</g>
<!-- r16 -->
<g id="node12" class="node">
<title>r16</title>
<g id="a_node12"><a xlink:href="file:///home/travis/build/andrewdavidmackenzie/flow/flowstdlib/control/select/select.html" xlink:title="select_total (#16)">
<ellipse fill="#ff7f50" stroke="#000000" cx="761" cy="-413" rx="94.4839" ry="18"/>
<text text-anchor="middle" x="761" y="-409.3" font-family="Times,serif" font-size="14.00" fill="#000000">select_total (#16)</text>
</a>
</g>
</g>
<!-- r17&#45;&gt;r16 -->
<g id="edge13" class="edge">
<title>r17:se&#45;&gt;r16:n</title>
<path fill="none" stroke="#000000" d="M661,-708C672.5384,-696.4616 680.7229,-700.7491 693,-690 740.2827,-648.6022 758.0847,-636.6055 778,-577 783.0704,-561.8246 779.2255,-556.953 778,-541 774.4849,-495.2405 762.8602,-482.2881 761.1984,-441.1542"/>
<polygon fill="#000000" stroke="#000000" points="764.6948,-440.9297 761,-431 757.6962,-441.0665 764.6948,-440.9297"/>
<text text-anchor="middle" x="754" y="-434.8" font-family="Times,serif" font-size="14.00" fill="#000000">i1</text>
<text text-anchor="middle" x="678.5" y="-696.8" font-family="Times,serif" font-size="14.00" fill="#000000">/sum</text>
</g>
<!-- r11 -->
<g id="node9" class="node">
<title>r11</title>
<g id="a_node9"><a xlink:href="file:///home/travis/build/andrewdavidmackenzie/flow/flowstdlib/math/add/add.html" xlink:title="cross_sum (#11)">
<ellipse fill="#ff7f50" stroke="#000000" cx="945" cy="-726" rx="89.0842" ry="18"/>
<text text-anchor="middle" x="945" y="-722.3" font-family="Times,serif" font-size="14.00" fill="#000000">cross_sum (#11)</text>
</a>
</g>
</g>
<!-- r14&#45;&gt;r11 -->
<g id="edge10" class="edge">
<title>r14:se&#45;&gt;r11:n</title>
<path fill="none" stroke="#000000" d="M788,-833C836.2483,-784.7517 890.9898,-846.3872 937,-796 950.3036,-781.4308 946.8527,-771.0743 945.4495,-754.1479"/>
<polygon fill="#000000" stroke="#000000" points="948.9392,-753.8353 945,-744 941.946,-754.1451 948.9392,-753.8353"/>
<text text-anchor="middle" x="938" y="-747.8" font-family="Times,serif" font-size="14.00" fill="#000000">i1</text>
<text text-anchor="middle" x="770.5" y="-821.8" font-family="Times,serif" font-size="14.00" fill="#000000">/sum</text>
</g>
<!-- r8 -->
<g id="node26" class="node">
<title>r8</title>
<g id="a_node26"><a xlink:href="file:///home/travis/build/andrewdavidmackenzie/flow/flowstdlib/math/compare/compare.html" xlink:title="compare (#8)">
<ellipse fill="#ff7f50" stroke="#000000" cx="1224" cy="-326" rx="74.9875" ry="18"/>
<text text-anchor="middle" x="1224" y="-322.3" font-family="Times,serif" font-size="14.00" fill="#000000">compare (#8)</text>
</a>
</g>
</g>
<!-- r3&#45;&gt;r8 -->
<g id="edge35" class="edge">
<title>r3:se&#45;&gt;r8:n</title>
<path fill="none" stroke="#000000" d="M1808,-468C1852.6159,-423.3841 1283.9959,-411.4723 1228.3602,-353.3303"/>
<polygon fill="#000000" stroke="#000000" points="1231.4046,-351.5777 1224,-344 1225.0629,-354.5414 1231.4046,-351.5777"/>
<text text-anchor="middle" x="1211.5" y="-347.8" font-family="Times,serif" font-size="14.00" fill="#000000">left</text>
<text text-anchor="middle" x="1790.5" y="-456.8" font-family="Times,serif" font-size="14.00" fill="#000000">/sum</text>
</g>
<!-- r6 -->
<g id="node27" class="node">
<title>r6</title>
<g id="a_node27"><a xlink:href="file:///home/travis/build/andrewdavidmackenzie/flow/flowstdlib/control/select/select.html" xlink:title="select_total (#6)">
<ellipse fill="#ff7f50" stroke="#000000" cx="1805" cy="-180" rx="88.2844" ry="18"/>
<text text-anchor="middle" x="1805" y="-176.3" font-family="Times,serif" font-size="14.00" fill="#000000">select_total (#6)</text>
</a>
</g>
</g>
<!-- r3&#45;&gt;r6 -->
<g id="edge36" class="edge">
<title>r3:se&#45;&gt;r6:n</title>
<path fill="none" stroke="#000000" d="M1808,-468C1825.6915,-450.3085 1820,-438.0195 1820,-413 1820,-413 1820,-413 1820,-253 1820,-231.4238 1809.1226,-225.0843 1805.8934,-208.0315"/>
<polygon fill="#000000" stroke="#000000" points="1809.3734,-207.6501 1805,-198 1802.401,-208.2711 1809.3734,-207.6501"/>
<text text-anchor="middle" x="1798" y="-201.8" font-family="Times,serif" font-size="14.00" fill="#000000">i1</text>
<text text-anchor="middle" x="1825.5" y="-456.8" font-family="Times,serif" font-size="14.00" fill="#000000">/sum</text>
</g>
<!-- r9 -->
<g id="node21" class="node">
<title>r9</title>
<g id="a_node21"><a xlink:href="file:///home/travis/build/andrewdavidmackenzie/flow/flowstdlib/math/add/add.html" xlink:title="cross_sum (#9)">
<ellipse fill="#ff7f50" stroke="#000000" cx="1032" cy="-253" rx="83.3857" ry="18"/>
<text text-anchor="middle" x="1032" y="-249.3" font-family="Times,serif" font-size="14.00" fill="#000000">cross_sum (#9)</text>
</a>
</g>
</g>
<!-- r10&#45;&gt;r9 -->
<g id="edge33" class="edge">
<title>r10:se&#45;&gt;r9:n</title>
<path fill="none" stroke="#000000" d="M1532,-468C1585.1423,-414.8577 1439.3246,-451.4293 1367,-431 1211.6254,-387.1119 1039.5636,-433.9008 1032.2421,-281.3403"/>
<polygon fill="#000000" stroke="#000000" points="1035.7332,-280.9153 1032,-271 1028.7351,-281.0792 1035.7332,-280.9153"/>
<text text-anchor="middle" x="1025" y="-274.8" font-family="Times,serif" font-size="14.00" fill="#000000">i1</text>
<text text-anchor="middle" x="1514.5" y="-456.8" font-family="Times,serif" font-size="14.00" fill="#000000">/sum</text>
</g>
<!-- r11&#45;&gt;r15 -->
<g id="edge15" class="edge">
<title>r11:se&#45;&gt;r15:ne</title>
<path fill="none" stroke="#000000" d="M963,-708C974.2304,-696.7696 737.9106,-606.8832 687.8271,-582.1338"/>
<polygon fill="#000000" stroke="#000000" points="689.404,-579.0021 679,-577 685.8847,-585.0531 689.404,-579.0021"/>
<text text-anchor="middle" x="697" y="-580.8" font-family="Times,serif" font-size="14.00" fill="#000000">right</text>
<text text-anchor="middle" x="945.5" y="-696.8" font-family="Times,serif" font-size="14.00" fill="#000000">/sum</text>
</g>
<!-- r11&#45;&gt;r16 -->
<g id="edge16" class="edge">
<title>r11:se&#45;&gt;r16:ne</title>
<path fill="none" stroke="#000000" d="M963,-708C973.0949,-697.9051 1115.3994,-768.4609 786.3604,-438.3721"/>
<polygon fill="#000000" stroke="#000000" points="788.5423,-435.6038 779,-431 783.5887,-440.5496 788.5423,-435.6038"/>
<text text-anchor="middle" x="772" y="-434.8" font-family="Times,serif" font-size="14.00" fill="#000000">i2</text>
<text text-anchor="middle" x="980.5" y="-696.8" font-family="Times,serif" font-size="14.00" fill="#000000">/sum</text>
</g>
<!-- initializerr17_1 -->
<!-- initializerr17_1&#45;&gt;r17 -->
<g id="edge11" class="edge">
<title>initializerr17_1&#45;&gt;r17:w</title>
<path fill="none" stroke="#0000ff" stroke-dasharray="1,5" d="M504.5002,-832.8239C501.0597,-801.1348 498.6178,-738.1249 531.6988,-727.5291"/>
<polygon fill="#0000ff" stroke="#0000ff" points="532.6223,-730.9304 542,-726 531.5945,-724.0063 532.6223,-730.9304"/>
<text text-anchor="middle" x="508" y="-784.8" font-family="Times,serif" font-size="14.00" fill="#000000">0</text>
</g>
<!-- r15&#45;&gt;r16 -->
<g id="edge19" class="edge">
<title>r15:se&#45;&gt;r16:nw</title>
<path fill="none" stroke="#000000" d="M679,-541C716.4954,-503.5046 704.785,-474.7853 736.1297,-438.3869"/>
<polygon fill="#000000" stroke="#000000" points="738.7525,-440.7061 743,-431 733.6267,-435.9389 738.7525,-440.7061"/>
<text text-anchor="middle" x="717" y="-434.8" font-family="Times,serif" font-size="14.00" fill="#000000">control</text>
<text text-anchor="middle" x="667" y="-529.8" font-family="Times,serif" font-size="14.00" fill="#000000">/lte</text>
</g>
<!-- r12 -->
<g id="node14" class="node">
<title>r12</title>
<g id="a_node14"><a xlink:href="file:///home/travis/build/andrewdavidmackenzie/flow/flowstdlib/control/select/select.html" xlink:title="select_string (#12)">
<ellipse fill="#ff7f50" stroke="#000000" cx="322" cy="-413" rx="100.9827" ry="18"/>
<text text-anchor="middle" x="322" y="-409.3" font-family="Times,serif" font-size="14.00" fill="#000000">select_string (#12)</text>
</a>
</g>
</g>
<!-- r15&#45;&gt;r12 -->
<g id="edge17" class="edge">
<title>r15:se&#45;&gt;r12:nw</title>
<path fill="none" stroke="#000000" d="M679,-541C705.0811,-514.9189 548.4207,-536.2537 514,-523 475.0899,-508.0176 475.5816,-486.058 438,-468 386.0091,-443.0184 276.2226,-470.5114 297.4205,-438.7232"/>
<polygon fill="#000000" stroke="#000000" points="300.1794,-440.882 304,-431 294.8508,-436.3425 300.1794,-440.882"/>
<text text-anchor="middle" x="278" y="-434.8" font-family="Times,serif" font-size="14.00" fill="#000000">control</text>
<text text-anchor="middle" x="691" y="-529.8" font-family="Times,serif" font-size="14.00" fill="#000000">/lte</text>
</g>
<!-- r13 -->
<g id="node15" class="node">
<title>r13</title>
<g id="a_node15"><a xlink:href="file:///home/travis/build/andrewdavidmackenzie/flow/flowstdlib/control/select/select.html" xlink:title="select_route (#13)">
<ellipse fill="#ff7f50" stroke="#000000" cx="472" cy="-107" rx="97.4827" ry="18"/>
<text text-anchor="middle" x="472" y="-103.3" font-family="Times,serif" font-size="14.00" fill="#000000">select_route (#13)</text>
</a>
</g>
</g>
<!-- r15&#45;&gt;r13 -->
<g id="edge18" class="edge">
<title>r15:se&#45;&gt;r13:nw</title>
<path fill="none" stroke="#000000" d="M679,-541C695.2087,-524.7913 376.9552,-291.648 367,-271 345.9529,-227.3461 337.0221,-202.2596 364,-162 386.0062,-129.1597 417.4273,-150.9926 446.0204,-131.6325"/>
<polygon fill="#000000" stroke="#000000" points="448.5469,-134.0838 454,-125 444.0724,-128.7005 448.5469,-134.0838"/>
<text text-anchor="middle" x="428" y="-128.8" font-family="Times,serif" font-size="14.00" fill="#000000">control</text>
<text text-anchor="middle" x="667" y="-544.8" font-family="Times,serif" font-size="14.00" fill="#000000">/lte</text>
</g>
<!-- r16&#45;&gt;r17 -->
<g id="edge26" class="edge">
<title>r16:e&#45;&gt;r17:ne</title>
<path fill="none" stroke="#000000" d="M856,-413C933.6707,-413 807.2603,-699.3004 743.7411,-744 731.0537,-752.9283 690.1277,-756.046 669.8384,-748.9927"/>
<polygon fill="#000000" stroke="#000000" points="671.4283,-745.871 661,-744 667.9854,-751.9658 671.4283,-745.871"/>
<text text-anchor="middle" x="654" y="-747.8" font-family="Times,serif" font-size="14.00" fill="#000000">i2</text>
<text text-anchor="middle" x="890.5" y="-416.8" font-family="Times,serif" font-size="14.00" fill="#000000">/select_i1</text>
</g>
<!-- r16&#45;&gt;r9 -->
<g id="edge27" class="edge">
<title>r16:e&#45;&gt;r9:ne</title>
<path fill="none" stroke="#000000" d="M856,-413C935.5258,-413 915.903,-328.3694 985,-289 1004.3304,-277.9861 1042.4478,-285.0816 1052.1516,-280.8067"/>
<polygon fill="#000000" stroke="#000000" points="1055.5618,-280.0176 1050,-271 1048.7244,-281.5178 1055.5618,-280.0176"/>
<text text-anchor="middle" x="1043" y="-274.8" font-family="Times,serif" font-size="14.00" fill="#000000">i2</text>
<text text-anchor="middle" x="890.5" y="-401.8" font-family="Times,serif" font-size="14.00" fill="#000000">/select_i1</text>
</g>
<!-- r2 -->
<g id="node22" class="node">
<title>r2</title>
<g id="a_node22"><a xlink:href="file:///home/travis/build/andrewdavidmackenzie/flow/flowr/src/lib/flowruntime/stdio/stdout.html" xlink:title="print (#2)">
<ellipse fill="#ff7f50" stroke="#000000" cx="839" cy="-107" rx="57.3905" ry="18"/>
<text text-anchor="middle" x="839" y="-103.3" font-family="Times,serif" font-size="14.00" fill="#000000">print (#2)</text>
</a>
</g>
</g>
<!-- r16&#45;&gt;r2 -->
<g id="edge28" class="edge">
<title>r16:e&#45;&gt;r2:n</title>
<path fill="none" stroke="#000000" d="M856,-413C861.3395,-413 929.5833,-338.0034 855,-143 852.8492,-137.3765 848.0555,-135.7708 844.2728,-133.5372"/>
<polygon fill="#000000" stroke="#000000" points="847.2327,-131.6689 839,-125 841.277,-135.3473 847.2327,-131.6689"/>
<text text-anchor="middle" x="821.5" y="-416.8" font-family="Times,serif" font-size="14.00" fill="#000000">/select_i1</text>
</g>
<!-- initializerr11_1 -->
<!-- initializerr11_1&#45;&gt;r11 -->
<g id="edge14" class="edge">
<title>initializerr11_1&#45;&gt;r11:w</title>
<path fill="none" stroke="#0000ff" stroke-dasharray="1,5" d="M998.39,-834.6584C931.8357,-802.5625 796.7645,-733.7728 846.017,-726.6069"/>
<polygon fill="#0000ff" stroke="#0000ff" points="846.2308,-730.1004 856,-726 845.806,-723.1133 846.2308,-730.1004"/>
<text text-anchor="middle" x="924" y="-784.8" font-family="Times,serif" font-size="14.00" fill="#000000">0</text>
</g>
<!-- r18 -->
<g id="node18" class="node">
<title>r18</title>
<g id="a_node18"><a xlink:href="file:///home/travis/build/andrewdavidmackenzie/flow/flowstdlib/data/append/append.html" xlink:title="append (#18)">
<ellipse fill="#ff7f50" stroke="#000000" cx="183" cy="-253" rx="74.187" ry="18"/>
<text text-anchor="middle" x="183" y="-249.3" font-family="Times,serif" font-size="14.00" fill="#000000">append (#18)</text>
</a>
</g>
</g>
<!-- r12&#45;&gt;r18 -->
<g id="edge22" class="edge">
<title>r12:e&#45;&gt;r18:ne</title>
<path fill="none" stroke="#000000" d="M423,-413C431,-413 427.0491,-401.8996 423,-395 367.5863,-300.5761 286.1918,-347.7244 208.5055,-278.11"/>
<polygon fill="#000000" stroke="#000000" points="210.6668,-275.3364 201,-271 205.8527,-280.4182 210.6668,-275.3364"/>
<text text-anchor="middle" x="192.5" y="-274.8" font-family="Times,serif" font-size="14.00" fill="#000000">s2</text>
<text text-anchor="middle" x="457.5" y="-416.8" font-family="Times,serif" font-size="14.00" fill="#000000">/select_i1</text>
</g>
<!-- r13&#45;&gt;r18 -->
<g id="edge25" class="edge">
<title>r13:e&#45;&gt;r18:n</title>
<path fill="none" stroke="#000000" d="M570,-107C637.2889,-107 509.4971,-168.5398 449,-198 407.9783,-217.9763 301.9691,-262.7531 257.0934,-271 244.4418,-273.325 206.3353,-282.0668 190.2691,-277.9288"/>
<polygon fill="#000000" stroke="#000000" points="192.6534,-275.3661 183,-271 187.8236,-280.4331 192.6534,-275.3661"/>
<text text-anchor="middle" x="174.5" y="-274.8" font-family="Times,serif" font-size="14.00" fill="#000000">s1</text>
<text text-anchor="middle" x="604.5" y="-110.8" font-family="Times,serif" font-size="14.00" fill="#000000">/select_i1</text>
</g>
<!-- initializerr12_0 -->
<!-- initializerr12_0&#45;&gt;r12 -->
<g id="edge20" class="edge">
<title>initializerr12_0&#45;&gt;r12:ne</title>
<path fill="none" stroke="#0000ff" d="M417.5919,-540.8969C404.3209,-516.4369 378.2205,-472.0302 347.1351,-438.4258"/>
<polygon fill="#0000ff" stroke="#0000ff" points="349.4523,-435.7859 340,-431 344.4047,-440.6358 349.4523,-435.7859"/>
<text text-anchor="middle" x="407.5" y="-482.3" font-family="Times,serif" font-size="14.00" fill="#000000">&quot;A&quot;</text>
</g>
<!-- initializerr12_1 -->
<!-- initializerr12_1&#45;&gt;r12 -->
<g id="edge21" class="edge">
<title>initializerr12_1&#45;&gt;r12:w</title>
<path fill="none" stroke="#0000ff" d="M187.195,-540.8042C180.5,-504.4182 170.852,-425.2238 211.0108,-414.267"/>
<polygon fill="#0000ff" stroke="#0000ff" points="211.5199,-417.7306 221,-413 210.639,-410.7862 211.5199,-417.7306"/>
<text text-anchor="middle" x="200" y="-482.3" font-family="Times,serif" font-size="14.00" fill="#000000">&quot;BC&quot;</text>
</g>
<!-- r18&#45;&gt;r13 -->
<g id="edge29" class="edge">
<title>r18:e&#45;&gt;r13:n</title>
<path fill="none" stroke="#000000" d="M257,-253C319.4282,-253 309.7435,-192.8791 364,-162 404.652,-138.8636 462.1361,-170.0609 470.8698,-135.3249"/>
<polygon fill="#000000" stroke="#000000" points="474.391,-135.3215 472,-125 467.4326,-134.5598 474.391,-135.3215"/>
<text text-anchor="middle" x="465" y="-128.8" font-family="Times,serif" font-size="14.00" fill="#000000">i1</text>
</g>
<!-- r18&#45;&gt;r2 -->
<g id="edge31" class="edge">
<title>r18:e&#45;&gt;r2:n</title>
<path fill="none" stroke="#000000" d="M257,-253C306.5391,-253 317.9223,-241.7457 367,-235 514.0862,-214.7831 556.9797,-241.2817 699,-198 762.7163,-178.582 831.6135,-193.4807 838.4465,-135.0276"/>
<polygon fill="#000000" stroke="#000000" points="841.9435,-135.1777 839,-125 834.9541,-134.7919 841.9435,-135.1777"/>
</g>
<!-- r5 -->
<g id="node23" class="node">
<title>r5</title>
<g id="a_node23"><a xlink:href="file:///home/travis/build/andrewdavidmackenzie/flow/flowstdlib/control/select/select.html" xlink:title="select_route (#5)">
<ellipse fill="#ff7f50" stroke="#000000" cx="211" cy="-107" rx="91.784" ry="18"/>
<text text-anchor="middle" x="211" y="-103.3" font-family="Times,serif" font-size="14.00" fill="#000000">select_route (#5)</text>
</a>
</g>
</g>
<!-- r18&#45;&gt;r5 -->
<g id="edge30" class="edge">
<title>r18:e&#45;&gt;r5:ne</title>
<path fill="none" stroke="#000000" d="M257,-253C265,-253 258.2493,-242.9018 257,-235 254.3002,-217.9244 249.5227,-214.6856 245,-198 237.295,-169.5737 249.1406,-152.6285 235.5486,-132.7795"/>
<polygon fill="#000000" stroke="#000000" points="238.1175,-130.3964 229,-125 232.7623,-134.9044 238.1175,-130.3964"/>
<text text-anchor="middle" x="222" y="-128.8" font-family="Times,serif" font-size="14.00" fill="#000000">i2</text>
</g>
<!-- initializerr13_0 -->
<!-- initializerr13_0&#45;&gt;r13 -->
<g id="edge23" class="edge">
<title>initializerr13_0&#45;&gt;r13:ne</title>
<path fill="none" stroke="#0000ff" stroke-dasharray="1,5" d="M705.4867,-235.2691C682.6348,-210.383 637.3725,-165.6132 589,-143 551.8103,-125.6145 526.122,-151.6271 497.6963,-131.5503"/>
<polygon fill="#0000ff" stroke="#0000ff" points="499.8838,-128.816 490,-125 495.3468,-134.1467 499.8838,-128.816"/>
<text text-anchor="middle" x="674" y="-176.3" font-family="Times,serif" font-size="14.00" fill="#000000">&quot;&quot;</text>
</g>
<!-- initializerr13_1 -->
<!-- initializerr13_1&#45;&gt;r13 -->
<g id="edge24" class="edge">
<title>initializerr13_1&#45;&gt;r13:w</title>
<path fill="none" stroke="#0000ff" stroke-dasharray="1,5" d="M462.609,-235.389C417.4197,-198.9844 322.971,-117.9965 363.9449,-108.0153"/>
<polygon fill="#0000ff" stroke="#0000ff" points="364.4022,-111.487 374,-107 363.699,-104.5224 364.4022,-111.487"/>
<text text-anchor="middle" x="424" y="-176.3" font-family="Times,serif" font-size="14.00" fill="#000000">&quot;&quot;</text>
</g>
<!-- r9&#45;&gt;r8 -->
<g id="edge37" class="edge">
<title>r9:se&#45;&gt;r8:ne</title>
<path fill="none" stroke="#000000" d="M1050,-235C1060.244,-224.756 1103.7962,-226.0556 1115.1926,-235 1128.1502,-245.1697 1113.1336,-258.6208 1124,-271 1139.4089,-288.5541 1150.4038,-284.0845 1173,-290 1200.3076,-297.1489 1280.2515,-286.6725 1298.7434,-308 1298.7434,-308 1266.8252,-328.25 1250.8662,-338.375"/>
<polygon fill="#000000" stroke="#000000" points="1248.569,-335.6874 1242,-344 1252.319,-341.5982 1248.569,-335.6874"/>
<text text-anchor="middle" x="1260" y="-347.8" font-family="Times,serif" font-size="14.00" fill="#000000">right</text>
<text text-anchor="middle" x="1032.5" y="-223.8" font-family="Times,serif" font-size="14.00" fill="#000000">/sum</text>
</g>
<!-- r9&#45;&gt;r6 -->
<g id="edge38" class="edge">
<title>r9:se&#45;&gt;r6:ne</title>
<path fill="none" stroke="#000000" d="M1050,-235C1077.9072,-207.0928 1731.5778,-224.8608 1815.1163,-204.4471"/>
<polygon fill="#000000" stroke="#000000" points="1817.4746,-207.04 1823,-198 1813.0432,-201.6212 1817.4746,-207.04"/>
<text text-anchor="middle" x="1816" y="-201.8" font-family="Times,serif" font-size="14.00" fill="#000000">i2</text>
<text text-anchor="middle" x="1067.5" y="-223.8" font-family="Times,serif" font-size="14.00" fill="#000000">/sum</text>
</g>
<!-- r7 -->
<g id="node31" class="node">
<title>r7</title>
<g id="a_node31"><a xlink:href="file:///home/travis/build/andrewdavidmackenzie/flow/flowstdlib/data/append/append.html" xlink:title="append (#7)">
<ellipse fill="#ff7f50" stroke="#000000" cx="1217" cy="-34" rx="68.4888" ry="18"/>
<text text-anchor="middle" x="1217" y="-30.3" font-family="Times,serif" font-size="14.00" fill="#000000">append (#7)</text>
</a>
</g>
</g>
<!-- r5&#45;&gt;r7 -->
<g id="edge46" class="edge">
<title>r5:e&#45;&gt;r7:n</title>
<path fill="none" stroke="#000000" d="M303,-107C322.7365,-107 320.3236,-87.3815 339,-81 344.4064,-79.1527 1109.7592,-60.6809 1206.9014,-53.3323"/>
<polygon fill="#000000" stroke="#000000" points="1207.5437,-56.778 1217,-52 1206.6281,-49.8381 1207.5437,-56.778"/>
<text text-anchor="middle" x="1208.5" y="-55.8" font-family="Times,serif" font-size="14.00" fill="#000000">s1</text>
<text text-anchor="middle" x="337.5" y="-110.8" font-family="Times,serif" font-size="14.00" fill="#000000">/select_i1</text>
</g>
<!-- initializerr10_1 -->
<!-- initializerr10_1&#45;&gt;r10 -->
<g id="edge32" class="edge">
<title>initializerr10_1&#45;&gt;r10:w</title>
<path fill="none" stroke="#0000ff" d="M1441.1767,-614.0975C1414.2342,-578.0048 1360.2454,-498.9514 1394.8973,-487.4157"/>
<polygon fill="#0000ff" stroke="#0000ff" points="1395.5825,-490.8539 1405,-486 1394.611,-483.9217 1395.5825,-490.8539"/>
<text text-anchor="middle" x="1419" y="-555.3" font-family="Times,serif" font-size="14.00" fill="#000000">0</text>
</g>
<!-- initializerr3_1 -->
<!-- initializerr3_1&#45;&gt;r3 -->
<g id="edge34" class="edge">
<title>initializerr3_1&#45;&gt;r3:w</title>
<path fill="none" stroke="#0000ff" stroke-dasharray="1,5" d="M1678.8395,-613.8042C1667.4656,-577.5711 1647.5602,-498.8886 1684.8856,-487.4087"/>
<polygon fill="#0000ff" stroke="#0000ff" points="1685.5785,-490.8461 1695,-486 1684.6128,-483.913 1685.5785,-490.8461"/>
<text text-anchor="middle" x="1673" y="-555.3" font-family="Times,serif" font-size="14.00" fill="#000000">0</text>
</g>
<!-- r8&#45;&gt;r5 -->
<g id="edge40" class="edge">
<title>r8:se&#45;&gt;r5:nw</title>
<path fill="none" stroke="#000000" d="M1242,-308C1278.6633,-271.3367 1198.3835,-256.0523 1151,-235 965.0365,-152.3771 901.1113,-185.6648 699,-162 673.7936,-159.0486 267.6047,-147.5738 201.4827,-130.7688"/>
<polygon fill="#000000" stroke="#000000" points="203.2373,-127.7293 193,-125 199.3008,-133.5176 203.2373,-127.7293"/>
<text text-anchor="middle" x="167" y="-128.8" font-family="Times,serif" font-size="14.00" fill="#000000">control</text>
<text text-anchor="middle" x="1230" y="-296.8" font-family="Times,serif" font-size="14.00" fill="#000000">/lte</text>
</g>
<!-- r8&#45;&gt;r6 -->
<g id="edge41" class="edge">
<title>r8:se&#45;&gt;r6:nw</title>
<path fill="none" stroke="#000000" d="M1242,-308C1251.656,-298.344 1471.7799,-274.4213 1485,-271 1529.5178,-259.479 1537.6446,-247.1312 1582,-235 1667.815,-211.5296 1717.5499,-259.4521 1779.3947,-205.1417"/>
<polygon fill="#000000" stroke="#000000" points="1782.1061,-207.3968 1787,-198 1777.3143,-202.294 1782.1061,-207.3968"/>
<text text-anchor="middle" x="1761" y="-201.8" font-family="Times,serif" font-size="14.00" fill="#000000">control</text>
<text text-anchor="middle" x="1254" y="-296.8" font-family="Times,serif" font-size="14.00" fill="#000000">/lte</text>
</g>
<!-- r4 -->
<g id="node28" class="node">
<title>r4</title>
<g id="a_node28"><a xlink:href="file:///home/travis/build/andrewdavidmackenzie/flow/flowstdlib/control/select/select.html" xlink:title="select_string (#4)">
<ellipse fill="#ff7f50" stroke="#000000" cx="1511" cy="-180" rx="94.7833" ry="18"/>
<text text-anchor="middle" x="1511" y="-176.3" font-family="Times,serif" font-size="14.00" fill="#000000">select_string (#4)</text>
</a>
</g>
</g>
<!-- r8&#45;&gt;r4 -->
<g id="edge39" class="edge">
<title>r8:se&#45;&gt;r4:nw</title>
<path fill="none" stroke="#000000" d="M1242,-308C1276.2806,-273.7194 1418.1588,-300.0117 1457,-271 1483.0392,-251.5505 1470.7004,-228.7721 1486.4761,-205.7952"/>
<polygon fill="#000000" stroke="#000000" points="1489.266,-207.9151 1493,-198 1483.8979,-203.4224 1489.266,-207.9151"/>
<text text-anchor="middle" x="1467" y="-201.8" font-family="Times,serif" font-size="14.00" fill="#000000">control</text>
<text text-anchor="middle" x="1230" y="-311.8" font-family="Times,serif" font-size="14.00" fill="#000000">/lte</text>
</g>
<!-- r6&#45;&gt;r3 -->
<g id="edge47" class="edge">
<title>r6:e&#45;&gt;r3:ne</title>
<path fill="none" stroke="#000000" d="M1894,-180C1926.4444,-180 1894,-220.5556 1894,-253 1894,-413 1894,-413 1894,-413 1894,-453.6465 1915.0303,-476.7273 1884.8916,-504 1874.3005,-513.5839 1836.1282,-515.5878 1816.8302,-508.9295"/>
<polygon fill="#000000" stroke="#000000" points="1818.4376,-505.8184 1808,-504 1815.0255,-511.9305 1818.4376,-505.8184"/>
<text text-anchor="middle" x="1801" y="-507.8" font-family="Times,serif" font-size="14.00" fill="#000000">i2</text>
<text text-anchor="middle" x="1928.5" y="-183.8" font-family="Times,serif" font-size="14.00" fill="#000000">/select_i1</text>
</g>
<!-- r6&#45;&gt;r11 -->
<g id="edge48" class="edge">
<title>r6:e&#45;&gt;r11:ne</title>
<path fill="none" stroke="#000000" d="M1894,-180C1952.6751,-180 2004,-194.3249 2004,-253 2004,-486 2004,-486 2004,-486 2004,-612.3927 1912.4607,-629.5808 1797,-681 1653.7561,-744.7922 1058.2612,-750.3506 973.103,-745.2537"/>
<polygon fill="#000000" stroke="#000000" points="973.3549,-741.7582 963,-744 972.4928,-748.7049 973.3549,-741.7582"/>
<text text-anchor="middle" x="956" y="-747.8" font-family="Times,serif" font-size="14.00" fill="#000000">i2</text>
<text text-anchor="middle" x="1928.5" y="-168.8" font-family="Times,serif" font-size="14.00" fill="#000000">/select_i1</text>
</g>
<!-- r4&#45;&gt;r7 -->
<g id="edge44" class="edge">
<title>r4:e&#45;&gt;r7:ne</title>
<path fill="none" stroke="#000000" d="M1606,-180C1614,-180 1610.7802,-168.4148 1606,-162 1581.7868,-129.507 1301.6699,-87.0186 1242.5493,-56.7037"/>
<polygon fill="#000000" stroke="#000000" points="1244.2611,-53.6383 1234,-51 1240.3762,-59.4614 1244.2611,-53.6383"/>
<text text-anchor="middle" x="1225.5" y="-54.8" font-family="Times,serif" font-size="14.00" fill="#000000">s2</text>
<text text-anchor="middle" x="1640.5" y="-183.8" font-family="Times,serif" font-size="14.00" fill="#000000">/select_i1</text>
</g>
<!-- initializerr4_0 -->
<!-- initializerr4_0&#45;&gt;r4 -->
<g id="edge42" class="edge">
<title>initializerr4_0&#45;&gt;r4:ne</title>
<path fill="none" stroke="#0000ff" d="M1650.1666,-308.4137C1623.5874,-285.7279 1576.2752,-244.5083 1536.3603,-205.2939"/>
<polygon fill="#0000ff" stroke="#0000ff" points="1538.5667,-202.553 1529,-198 1533.6394,-207.5251 1538.5667,-202.553"/>
<text text-anchor="middle" x="1618.5" y="-249.3" font-family="Times,serif" font-size="14.00" fill="#000000">&quot;B&quot;</text>
</g>
<!-- initializerr4_1 -->
<!-- initializerr4_1&#45;&gt;r4 -->
<g id="edge43" class="edge">
<title>initializerr4_1&#45;&gt;r4:w</title>
<path fill="none" stroke="#0000ff" d="M1435.7591,-308.0975C1413.9926,-272.0048 1371.1758,-192.9514 1406.0609,-181.4157"/>
<polygon fill="#0000ff" stroke="#0000ff" points="1406.5935,-184.8752 1416,-180 1405.6064,-177.9452 1406.5935,-184.8752"/>
<text text-anchor="middle" x="1426.5" y="-249.3" font-family="Times,serif" font-size="14.00" fill="#000000">&quot;C&quot;</text>
</g>
<!-- r7&#45;&gt;r13 -->
<g id="edge50" class="edge">
<title>r7:e&#45;&gt;r13:ne</title>
<path fill="none" stroke="#000000" d="M1286,-34C1294,-34 1291.5031,-46.1934 1286,-52 1244.6674,-95.6119 805.4209,-72.0816 746,-81 666.0466,-93.0001 649.7379,-115.1488 569.4913,-125 554.9032,-126.7909 518.2078,-134.2487 499.0974,-129.5089"/>
<polygon fill="#000000" stroke="#000000" points="500.5142,-126.3049 490,-125 497.4056,-132.5768 500.5142,-126.3049"/>
<text text-anchor="middle" x="483" y="-128.8" font-family="Times,serif" font-size="14.00" fill="#000000">i2</text>
</g>
<!-- r7&#45;&gt;r5 -->
<g id="edge49" class="edge">
<title>r7:e&#45;&gt;r5:n</title>
<path fill="none" stroke="#000000" d="M1286,-34C1294,-34 1291.5561,-46.2442 1286,-52 1265.2287,-73.5178 777.8942,-70.1067 748,-71 725.2811,-71.6789 359.4432,-71.066 339,-81 316.1832,-92.0874 325.5925,-114.1923 302.6419,-125 295.337,-128.44 241.9928,-132.8271 220.2181,-129.419"/>
<polygon fill="#000000" stroke="#000000" points="221.5304,-126.1668 211,-125 218.5044,-132.4789 221.5304,-126.1668"/>
<text text-anchor="middle" x="204" y="-128.8" font-family="Times,serif" font-size="14.00" fill="#000000">i1</text>
</g>
<!-- initializerr5_0 -->
<!-- initializerr5_0&#45;&gt;r5 -->
<g id="edge45" class="edge">
<title>initializerr5_0&#45;&gt;r5:ne</title>
<path fill="none" stroke="#0000ff" stroke-dasharray="1,5" d="M1206.9528,-614.3578C1159.6763,-569.3033 1026.4837,-449.7095 891,-395 720.5202,-326.1588 192.8671,-410.4071 73,-271 62.5685,-258.868 65.6354,-249.2043 73,-235 81.3895,-218.819 201.6453,-160.287 225.7831,-134.6267"/>
<polygon fill="#0000ff" stroke="#0000ff" points="229.1501,-135.5938 229,-125 222.511,-133.3751 229.1501,-135.5938"/>
<text text-anchor="middle" x="827" y="-365.8" font-family="Times,serif" font-size="14.00" fill="#000000">&quot;&quot;</text>
</g>
</g>
</svg>
