<?xml version="1.0" encoding="UTF-8" standalone="no"?>
<!DOCTYPE svg PUBLIC "-//W3C//DTD SVG 1.1//EN"
 "http://www.w3.org/Graphics/SVG/1.1/DTD/svg11.dtd">
<!-- Generated by graphviz version 2.40.1 (20161225.0304)
 -->
<!-- Title: router Pages: 1 -->
<svg width="2038pt" height="1081pt"
 viewBox="0.00 0.00 2038.00 1081.00" xmlns="http://www.w3.org/2000/svg" xmlns:xlink="http://www.w3.org/1999/xlink">
<g id="graph0" class="graph" transform="scale(1 1) rotate(0) translate(4 1077)">
<title>router</title>
<polygon fill="#ffffff" stroke="transparent" points="-4,4 -4,-1077 2034,-1077 2034,4 -4,4"/>
<text text-anchor="middle" x="1015" y="-1057.8" font-family="Times,serif" font-size="14.00" fill="#000000">/router</text>
<g id="clust1" class="cluster">
<title>cluster_A_tracker</title>
<polygon fill="none" stroke="#000000" points="101,-81 101,-900 1123,-900 1123,-81 101,-81"/>
<text text-anchor="middle" x="612" y="-884.8" font-family="Times,serif" font-size="14.00" fill="#000000">/router/A_tracker</text>
</g>
<g id="clust2" class="cluster">
<title>cluster_B_tracker</title>
<polygon fill="none" stroke="#000000" points="1131,-8 1131,-681 1928,-681 1928,-8 1131,-8"/>
<text text-anchor="middle" x="1529.5" y="-665.8" font-family="Times,serif" font-size="14.00" fill="#000000">/router/B_tracker</text>
</g>
<!-- r1 -->
<g id="node1" class="node">
<title>r1</title>
<g id="a_node1"><a xlink:href="file:///home/travis/build/andrewdavidmackenzie/flow/flowr/src/lib/flowruntime/stdio/readline.html" xlink:title="readline (#1)">
<ellipse fill="#ff7f50" stroke="#000000" cx="132" cy="-1032" rx="72.2875" ry="18"/>
<text text-anchor="middle" x="132" y="-1028.3" font-family="Times,serif" font-size="14.00" fill="#000000">readline (#1)</text>
</a>
</g>
</g>
<!-- r2 -->
<g id="node2" class="node">
<title>r2</title>
<g id="a_node2"><a xlink:href="file:///home/travis/build/andrewdavidmackenzie/flow/flowstdlib/data/accumulate/accumulate.html" xlink:title="accumulate_triples (#2)">
<ellipse fill="#ff7f50" stroke="#000000" cx="352" cy="-945" rx="123.4781" ry="18"/>
<text text-anchor="middle" x="352" y="-941.3" font-family="Times,serif" font-size="14.00" fill="#000000">accumulate_triples (#2)</text>
</a>
</g>
</g>
<!-- r1&#45;&gt;r2 -->
<g id="edge1" class="edge">
<title>r1:e&#45;&gt;r2:n</title>
<path fill="none" stroke="#000000" d="M204,-1032C221.8885,-1032 223.8573,-1021.7079 240,-1014 250.4114,-1009.0287 322.9879,-985.8735 345.4139,-970.5453"/>
<polygon fill="#000000" stroke="#000000" points="348.0608,-972.8353 352,-963 342.7872,-968.2321 348.0608,-972.8353"/>
<text text-anchor="middle" x="329" y="-966.8" font-family="Times,serif" font-size="14.00" fill="#000000">values</text>
<text text-anchor="middle" x="221" y="-1035.8" font-family="Times,serif" font-size="14.00" fill="#000000">/json</text>
</g>
<!-- r2&#45;&gt;r2 -->
<g id="edge4" class="edge">
<title>r2:e&#45;&gt;r2:ne</title>
<path fill="none" stroke="#000000" d="M476,-945C499.489,-936 547.489,-936 547.489,-954 547.489,-971.0859 446.2815,-971.9536 380.2712,-964.3003"/>
<polygon fill="#000000" stroke="#000000" points="380.3604,-960.7837 370,-963 379.4812,-967.7283 380.3604,-960.7837"/>
<text text-anchor="middle" x="394" y="-966.8" font-family="Times,serif" font-size="14.00" fill="#000000">partial</text>
<text text-anchor="middle" x="502" y="-948.8" font-family="Times,serif" font-size="14.00" fill="#000000">/partial</text>
</g>
<!-- r5 -->
<g id="node5" class="node">
<title>r5</title>
<g id="a_node5"><a xlink:href="file:///home/travis/build/andrewdavidmackenzie/flow/flowstdlib/math/add/add.html" xlink:title="forward_sum (#5)">
<ellipse fill="#ff7f50" stroke="#000000" cx="632" cy="-726" rx="94.7833" ry="18"/>
<text text-anchor="middle" x="632" y="-722.3" font-family="Times,serif" font-size="14.00" fill="#000000">forward_sum (#5)</text>
</a>
</g>
</g>
<!-- r2&#45;&gt;r5 -->
<g id="edge5" class="edge">
<title>r2:s&#45;&gt;r5:n</title>
<path fill="none" stroke="#000000" d="M352,-927C352,-830.2488 407.5084,-805.3589 494,-762 518.1911,-749.8728 605.704,-768.865 627.2043,-753.0842"/>
<polygon fill="#000000" stroke="#000000" points="630.4266,-754.4774 632,-744 624.2362,-751.2093 630.4266,-754.4774"/>
<text text-anchor="middle" x="625" y="-747.8" font-family="Times,serif" font-size="14.00" fill="#000000">i1</text>
<text text-anchor="middle" x="320.5" y="-915.8" font-family="Times,serif" font-size="14.00" fill="#000000">/chunk/0</text>
</g>
<!-- r7 -->
<g id="node6" class="node">
<title>r7</title>
<g id="a_node6"><a xlink:href="file:///home/travis/build/andrewdavidmackenzie/flow/flowstdlib/math/add/add.html" xlink:title="cross_distance (#7)">
<ellipse fill="#ff7f50" stroke="#000000" cx="788" cy="-851" rx="103.1819" ry="18"/>
<text text-anchor="middle" x="788" y="-847.3" font-family="Times,serif" font-size="14.00" fill="#000000">cross_distance (#7)</text>
</a>
</g>
</g>
<!-- r2&#45;&gt;r7 -->
<g id="edge6" class="edge">
<title>r2:sw&#45;&gt;r7:ne</title>
<path fill="none" stroke="#000000" d="M334,-927C309.1605,-902.1605 614.215,-904.8992 649,-900 715.5782,-890.6229 841.5223,-916.2149 812.6135,-876.5573"/>
<polygon fill="#000000" stroke="#000000" points="815.2194,-874.2204 806,-869 809.9517,-878.8303 815.2194,-874.2204"/>
<text text-anchor="middle" x="799" y="-872.8" font-family="Times,serif" font-size="14.00" fill="#000000">i2</text>
<text text-anchor="middle" x="365.5" y="-915.8" font-family="Times,serif" font-size="14.00" fill="#000000">/chunk/1</text>
</g>
<!-- r2&#45;&gt;r7 -->
<g id="edge7" class="edge">
<title>r2:se&#45;&gt;r7:n</title>
<path fill="none" stroke="#000000" d="M370,-927C433.7213,-863.2787 760.9598,-955.06 786.4281,-879.1148"/>
<polygon fill="#000000" stroke="#000000" points="789.9227,-879.4189 788,-869 783.0058,-878.3439 789.9227,-879.4189"/>
<text text-anchor="middle" x="781" y="-872.8" font-family="Times,serif" font-size="14.00" fill="#000000">i1</text>
<text text-anchor="middle" x="401.5" y="-915.8" font-family="Times,serif" font-size="14.00" fill="#000000">/chunk/2</text>
</g>
<!-- r13 -->
<g id="node7" class="node">
<title>r13</title>
<g id="a_node7"><a xlink:href="file:///home/travis/build/andrewdavidmackenzie/flow/flowstdlib/math/add/add.html" xlink:title="forward_sum (#13)">
<ellipse fill="#ff7f50" stroke="#000000" cx="1812" cy="-486" rx="100.9827" ry="18"/>
<text text-anchor="middle" x="1812" y="-482.3" font-family="Times,serif" font-size="14.00" fill="#000000">forward_sum (#13)</text>
</a>
</g>
</g>
<!-- r2&#45;&gt;r13 -->
<g id="edge8" class="edge">
<title>r2:sw&#45;&gt;r13:n</title>
<path fill="none" stroke="#000000" d="M334,-927C294.3316,-887.3316 136.2476,-917.6593 83,-900 42.3401,-886.5154 0,-893.8376 0,-851 0,-851 0,-851 0,-595.5 0,-551.3694 40.8563,-554.0924 83,-541 104.93,-534.1872 1665.3036,-528.5364 1802.4034,-507.063"/>
<polygon fill="#000000" stroke="#000000" points="1803.5377,-510.375 1812,-504 1801.4092,-503.7065 1803.5377,-510.375"/>
<text text-anchor="middle" x="1805" y="-507.8" font-family="Times,serif" font-size="14.00" fill="#000000">i1</text>
<text text-anchor="middle" x="302.5" y="-915.8" font-family="Times,serif" font-size="14.00" fill="#000000">/chunk/1</text>
</g>
<!-- r16 -->
<g id="node8" class="node">
<title>r16</title>
<g id="a_node8"><a xlink:href="file:///home/travis/build/andrewdavidmackenzie/flow/flowstdlib/math/add/add.html" xlink:title="cross_distance (#16)">
<ellipse fill="#ff7f50" stroke="#000000" cx="1530" cy="-486" rx="109.381" ry="18"/>
<text text-anchor="middle" x="1530" y="-482.3" font-family="Times,serif" font-size="14.00" fill="#000000">cross_distance (#16)</text>
</a>
</g>
</g>
<!-- r2&#45;&gt;r16 -->
<g id="edge9" class="edge">
<title>r2:se&#45;&gt;r16:n</title>
<path fill="none" stroke="#000000" d="M370,-927C385.1532,-911.8468 1119.5919,-900.9647 1141,-900 1338.6548,-891.0928 2030,-1048.8554 2030,-851 2030,-851 2030,-851 2030,-595.5 2030,-569.3568 1601.4645,-537.4003 1537.8538,-510.3941"/>
<polygon fill="#000000" stroke="#000000" points="1539.9647,-507.5994 1530,-504 1535.5451,-513.0279 1539.9647,-507.5994"/>
<text text-anchor="middle" x="1523" y="-507.8" font-family="Times,serif" font-size="14.00" fill="#000000">i1</text>
<text text-anchor="middle" x="338.5" y="-930.8" font-family="Times,serif" font-size="14.00" fill="#000000">/chunk/2</text>
</g>
<!-- initializerr2_1 -->
<!-- initializerr2_1&#45;&gt;r2 -->
<g id="edge2" class="edge">
<title>initializerr2_1&#45;&gt;r2:n</title>
<path fill="none" stroke="#0000ff" stroke-dasharray="1,5" d="M352,-1013.8403C352,-1002.6435 352,-987.7161 352,-973.324"/>
<polygon fill="#0000ff" stroke="#0000ff" points="355.5001,-973 352,-963 348.5001,-973 355.5001,-973"/>
<text text-anchor="middle" x="357.5" y="-984.8" font-family="Times,serif" font-size="14.00" fill="#000000">[]</text>
</g>
<!-- initializerr2_2 -->
<!-- initializerr2_2&#45;&gt;r2 -->
<g id="edge3" class="edge">
<title>initializerr2_2&#45;&gt;r2:n</title>
<path fill="none" stroke="#0000ff" d="M524.3286,-1018.6934C469.2876,-1004.2146 386.5393,-981.4804 360.294,-969.0879"/>
<polygon fill="#0000ff" stroke="#0000ff" points="362.1325,-966.0958 352,-963 357.9904,-971.7388 362.1325,-966.0958"/>
<text text-anchor="middle" x="442" y="-984.8" font-family="Times,serif" font-size="14.00" fill="#000000">3</text>
</g>
<!-- r8 -->
<g id="node11" class="node">
<title>r8</title>
<g id="a_node11"><a xlink:href="file:///home/travis/build/andrewdavidmackenzie/flow/flowstdlib/math/compare/compare.html" xlink:title="compare (#8)">
<ellipse fill="#ff7f50" stroke="#000000" cx="632" cy="-559" rx="74.9875" ry="18"/>
<text text-anchor="middle" x="632" y="-555.3" font-family="Times,serif" font-size="14.00" fill="#000000">compare (#8)</text>
</a>
</g>
</g>
<!-- r5&#45;&gt;r8 -->
<g id="edge12" class="edge">
<title>r5:se&#45;&gt;r8:n</title>
<path fill="none" stroke="#000000" d="M650,-708C689.1212,-668.8788 638.6321,-639.4013 632.5811,-587.049"/>
<polygon fill="#000000" stroke="#000000" points="636.0715,-586.7812 632,-577 629.0832,-587.1854 636.0715,-586.7812"/>
<text text-anchor="middle" x="619.5" y="-580.8" font-family="Times,serif" font-size="14.00" fill="#000000">left</text>
<text text-anchor="middle" x="632.5" y="-696.8" font-family="Times,serif" font-size="14.00" fill="#000000">/sum</text>
</g>
<!-- r9 -->
<g id="node12" class="node">
<title>r9</title>
<g id="a_node12"><a xlink:href="file:///home/travis/build/andrewdavidmackenzie/flow/flowstdlib/control/select/select.html" xlink:title="select_total (#9)">
<ellipse fill="#ff7f50" stroke="#000000" cx="757" cy="-413" rx="88.2844" ry="18"/>
<text text-anchor="middle" x="757" y="-409.3" font-family="Times,serif" font-size="14.00" fill="#000000">select_total (#9)</text>
</a>
</g>
</g>
<!-- r5&#45;&gt;r9 -->
<g id="edge13" class="edge">
<title>r5:se&#45;&gt;r9:n</title>
<path fill="none" stroke="#000000" d="M650,-708C661.2656,-696.7344 669.8718,-701.4013 681,-690 721.0127,-649.0053 726.1417,-631.7483 743,-577 761.1345,-518.1072 757.4941,-498.3424 757.0417,-441.2907"/>
<polygon fill="#000000" stroke="#000000" points="760.5406,-440.9857 757,-431 753.5406,-441.0141 760.5406,-440.9857"/>
<text text-anchor="middle" x="750" y="-434.8" font-family="Times,serif" font-size="14.00" fill="#000000">i1</text>
<text text-anchor="middle" x="667.5" y="-696.8" font-family="Times,serif" font-size="14.00" fill="#000000">/sum</text>
</g>
<!-- r3 -->
<g id="node9" class="node">
<title>r3</title>
<g id="a_node9"><a xlink:href="file:///home/travis/build/andrewdavidmackenzie/flow/flowstdlib/math/add/add.html" xlink:title="cross_sum (#3)">
<ellipse fill="#ff7f50" stroke="#000000" cx="910" cy="-726" rx="83.3857" ry="18"/>
<text text-anchor="middle" x="910" y="-722.3" font-family="Times,serif" font-size="14.00" fill="#000000">cross_sum (#3)</text>
</a>
</g>
</g>
<!-- r7&#45;&gt;r3 -->
<g id="edge10" class="edge">
<title>r7:se&#45;&gt;r3:n</title>
<path fill="none" stroke="#000000" d="M806,-833C846.4136,-792.5864 902.6813,-803.2502 909.3469,-754.2477"/>
<polygon fill="#000000" stroke="#000000" points="912.8568,-754.2024 910,-744 905.8709,-753.7571 912.8568,-754.2024"/>
<text text-anchor="middle" x="903" y="-747.8" font-family="Times,serif" font-size="14.00" fill="#000000">i1</text>
<text text-anchor="middle" x="788.5" y="-821.8" font-family="Times,serif" font-size="14.00" fill="#000000">/sum</text>
</g>
<!-- r11 -->
<g id="node26" class="node">
<title>r11</title>
<g id="a_node26"><a xlink:href="file:///home/travis/build/andrewdavidmackenzie/flow/flowstdlib/math/compare/compare.html" xlink:title="compare (#11)">
<ellipse fill="#ff7f50" stroke="#000000" cx="1220" cy="-326" rx="80.6858" ry="18"/>
<text text-anchor="middle" x="1220" y="-322.3" font-family="Times,serif" font-size="14.00" fill="#000000">compare (#11)</text>
</a>
</g>
</g>
<!-- r13&#45;&gt;r11 -->
<g id="edge35" class="edge">
<title>r13:se&#45;&gt;r11:n</title>
<path fill="none" stroke="#000000" d="M1830,-468C1876.6138,-421.3862 1280.2172,-413.8143 1224.2026,-353.3203"/>
<polygon fill="#000000" stroke="#000000" points="1227.3012,-351.6774 1220,-344 1220.92,-354.5548 1227.3012,-351.6774"/>
<text text-anchor="middle" x="1207.5" y="-347.8" font-family="Times,serif" font-size="14.00" fill="#000000">left</text>
<text text-anchor="middle" x="1812.5" y="-456.8" font-family="Times,serif" font-size="14.00" fill="#000000">/sum</text>
</g>
<!-- r17 -->
<g id="node27" class="node">
<title>r17</title>
<g id="a_node27"><a xlink:href="file:///home/travis/build/andrewdavidmackenzie/flow/flowstdlib/control/select/select.html" xlink:title="select_total (#17)">
<ellipse fill="#ff7f50" stroke="#000000" cx="1824" cy="-180" rx="94.4839" ry="18"/>
<text text-anchor="middle" x="1824" y="-176.3" font-family="Times,serif" font-size="14.00" fill="#000000">select_total (#17)</text>
</a>
</g>
</g>
<!-- r13&#45;&gt;r17 -->
<g id="edge36" class="edge">
<title>r13:se&#45;&gt;r17:n</title>
<path fill="none" stroke="#000000" d="M1830,-468C1847.9161,-450.0839 1845,-438.3372 1845,-413 1845,-413 1845,-413 1845,-253 1845,-230.7183 1829.7717,-225.4757 1825.2508,-208.2524"/>
<polygon fill="#000000" stroke="#000000" points="1828.6853,-207.5025 1824,-198 1821.7368,-208.3503 1828.6853,-207.5025"/>
<text text-anchor="middle" x="1817" y="-201.8" font-family="Times,serif" font-size="14.00" fill="#000000">i1</text>
<text text-anchor="middle" x="1847.5" y="-456.8" font-family="Times,serif" font-size="14.00" fill="#000000">/sum</text>
</g>
<!-- r14 -->
<g id="node21" class="node">
<title>r14</title>
<g id="a_node21"><a xlink:href="file:///home/travis/build/andrewdavidmackenzie/flow/flowstdlib/math/add/add.html" xlink:title="cross_sum (#14)">
<ellipse fill="#ff7f50" stroke="#000000" cx="1026" cy="-253" rx="89.0842" ry="18"/>
<text text-anchor="middle" x="1026" y="-249.3" font-family="Times,serif" font-size="14.00" fill="#000000">cross_sum (#14)</text>
</a>
</g>
</g>
<!-- r16&#45;&gt;r14 -->
<g id="edge33" class="edge">
<title>r16:se&#45;&gt;r14:n</title>
<path fill="none" stroke="#000000" d="M1548,-468C1604.8281,-411.1719 1448.6663,-451.6595 1371,-431 1211.0094,-388.4419 1033.4432,-437.9087 1026.2275,-281.122"/>
<polygon fill="#000000" stroke="#000000" points="1029.7239,-280.9188 1026,-271 1022.7257,-281.0761 1029.7239,-280.9188"/>
<text text-anchor="middle" x="1019" y="-274.8" font-family="Times,serif" font-size="14.00" fill="#000000">i1</text>
<text text-anchor="middle" x="1530.5" y="-456.8" font-family="Times,serif" font-size="14.00" fill="#000000">/sum</text>
</g>
<!-- r3&#45;&gt;r8 -->
<g id="edge15" class="edge">
<title>r3:se&#45;&gt;r8:ne</title>
<path fill="none" stroke="#000000" d="M928,-708C939.0351,-696.9649 707.7116,-606.7383 658.6514,-582.0921"/>
<polygon fill="#000000" stroke="#000000" points="660.3934,-579.0562 650,-577 656.8426,-585.0888 660.3934,-579.0562"/>
<text text-anchor="middle" x="668" y="-580.8" font-family="Times,serif" font-size="14.00" fill="#000000">right</text>
<text text-anchor="middle" x="910.5" y="-696.8" font-family="Times,serif" font-size="14.00" fill="#000000">/sum</text>
</g>
<!-- r3&#45;&gt;r9 -->
<g id="edge16" class="edge">
<title>r3:se&#45;&gt;r9:ne</title>
<path fill="none" stroke="#000000" d="M928,-708C938.3694,-697.6306 1076.8525,-734.5582 782.4832,-438.5044"/>
<polygon fill="#000000" stroke="#000000" points="784.5395,-435.6097 775,-431 779.5827,-440.5525 784.5395,-435.6097"/>
<text text-anchor="middle" x="768" y="-434.8" font-family="Times,serif" font-size="14.00" fill="#000000">i2</text>
<text text-anchor="middle" x="945.5" y="-696.8" font-family="Times,serif" font-size="14.00" fill="#000000">/sum</text>
</g>
<!-- initializerr5_1 -->
<!-- initializerr5_1&#45;&gt;r5 -->
<g id="edge11" class="edge">
<title>initializerr5_1&#45;&gt;r5:w</title>
<path fill="none" stroke="#0000ff" stroke-dasharray="1,5" d="M529.692,-832.8239C517.8853,-801.2702 498.6589,-738.6628 527.1234,-727.6678"/>
<polygon fill="#0000ff" stroke="#0000ff" points="527.7224,-731.1163 537,-726 526.5568,-724.214 527.7224,-731.1163"/>
<text text-anchor="middle" x="522" y="-784.8" font-family="Times,serif" font-size="14.00" fill="#000000">0</text>
</g>
<!-- r8&#45;&gt;r9 -->
<g id="edge19" class="edge">
<title>r8:se&#45;&gt;r9:nw</title>
<path fill="none" stroke="#000000" d="M650,-541C691.8622,-499.1378 694.3722,-478.0166 731.6229,-438.585"/>
<polygon fill="#000000" stroke="#000000" points="734.5368,-440.6089 739,-431 729.5188,-435.7284 734.5368,-440.6089"/>
<text text-anchor="middle" x="713" y="-434.8" font-family="Times,serif" font-size="14.00" fill="#000000">control</text>
<text text-anchor="middle" x="638" y="-529.8" font-family="Times,serif" font-size="14.00" fill="#000000">/lte</text>
</g>
<!-- r4 -->
<g id="node14" class="node">
<title>r4</title>
<g id="a_node14"><a xlink:href="file:///home/travis/build/andrewdavidmackenzie/flow/flowstdlib/control/select/select.html" xlink:title="select_string (#4)">
<ellipse fill="#ff7f50" stroke="#000000" cx="323" cy="-413" rx="94.7833" ry="18"/>
<text text-anchor="middle" x="323" y="-409.3" font-family="Times,serif" font-size="14.00" fill="#000000">select_string (#4)</text>
</a>
</g>
</g>
<!-- r8&#45;&gt;r4 -->
<g id="edge17" class="edge">
<title>r8:se&#45;&gt;r4:nw</title>
<path fill="none" stroke="#000000" d="M650,-541C671.5567,-519.4433 542.5487,-533.6938 514,-523 472.559,-507.477 471.1238,-486.6655 431,-468 381.8021,-445.1133 279.507,-468.4722 298.5273,-438.7078"/>
<polygon fill="#000000" stroke="#000000" points="301.2494,-440.9088 305,-431 295.8888,-436.4072 301.2494,-440.9088"/>
<text text-anchor="middle" x="279" y="-434.8" font-family="Times,serif" font-size="14.00" fill="#000000">control</text>
<text text-anchor="middle" x="662" y="-529.8" font-family="Times,serif" font-size="14.00" fill="#000000">/lte</text>
</g>
<!-- r10 -->
<g id="node15" class="node">
<title>r10</title>
<g id="a_node15"><a xlink:href="file:///home/travis/build/andrewdavidmackenzie/flow/flowstdlib/control/select/select.html" xlink:title="select_route (#10)">
<ellipse fill="#ff7f50" stroke="#000000" cx="473" cy="-107" rx="97.4827" ry="18"/>
<text text-anchor="middle" x="473" y="-103.3" font-family="Times,serif" font-size="14.00" fill="#000000">select_route (#10)</text>
</a>
</g>
</g>
<!-- r8&#45;&gt;r10 -->
<g id="edge18" class="edge">
<title>r8:se&#45;&gt;r10:nw</title>
<path fill="none" stroke="#000000" d="M650,-541C681.4196,-509.5804 372.9076,-311.6657 355,-271 346.419,-251.5136 352.8516,-172.9692 361,-162 385.577,-128.915 417.4903,-152.1458 447.1187,-131.6218"/>
<polygon fill="#000000" stroke="#000000" points="449.5951,-134.1125 455,-125 445.0922,-128.7531 449.5951,-134.1125"/>
<text text-anchor="middle" x="429" y="-128.8" font-family="Times,serif" font-size="14.00" fill="#000000">control</text>
<text text-anchor="middle" x="638" y="-544.8" font-family="Times,serif" font-size="14.00" fill="#000000">/lte</text>
</g>
<!-- r9&#45;&gt;r5 -->
<g id="edge26" class="edge">
<title>r9:e&#45;&gt;r5:ne</title>
<path fill="none" stroke="#000000" d="M846,-413C924.1729,-413 791.2516,-699.6289 726.8916,-744 715.1867,-752.0696 678.0936,-755.0752 659.0035,-748.8978"/>
<polygon fill="#000000" stroke="#000000" points="660.4569,-745.7042 650,-744 657.1118,-751.8532 660.4569,-745.7042"/>
<text text-anchor="middle" x="643" y="-747.8" font-family="Times,serif" font-size="14.00" fill="#000000">i2</text>
<text text-anchor="middle" x="880.5" y="-416.8" font-family="Times,serif" font-size="14.00" fill="#000000">/select_i1</text>
</g>
<!-- r9&#45;&gt;r14 -->
<g id="edge27" class="edge">
<title>r9:e&#45;&gt;r14:ne</title>
<path fill="none" stroke="#000000" d="M846,-413C925.5258,-413 905.6103,-327.8511 975,-289 996.6043,-276.9038 1040.2443,-286.3998 1047.6169,-280.447"/>
<polygon fill="#000000" stroke="#000000" points="1050.8443,-279.0874 1044,-271 1044.307,-281.5904 1050.8443,-279.0874"/>
<text text-anchor="middle" x="1037" y="-274.8" font-family="Times,serif" font-size="14.00" fill="#000000">i2</text>
<text text-anchor="middle" x="880.5" y="-401.8" font-family="Times,serif" font-size="14.00" fill="#000000">/select_i1</text>
</g>
<!-- r0 -->
<g id="node22" class="node">
<title>r0</title>
<g id="a_node22"><a xlink:href="file:///home/travis/build/andrewdavidmackenzie/flow/flowr/src/lib/flowruntime/stdio/stdout.html" xlink:title="print (#0)">
<ellipse fill="#ff7f50" stroke="#000000" cx="827" cy="-107" rx="57.3905" ry="18"/>
<text text-anchor="middle" x="827" y="-103.3" font-family="Times,serif" font-size="14.00" fill="#000000">print (#0)</text>
</a>
</g>
</g>
<!-- r9&#45;&gt;r0 -->
<g id="edge28" class="edge">
<title>r9:e&#45;&gt;r0:n</title>
<path fill="none" stroke="#000000" d="M846,-413C851.4278,-413 918.4823,-338.0308 843,-143 840.8269,-137.3851 836.036,-135.7783 832.26,-133.5421"/>
<polygon fill="#000000" stroke="#000000" points="835.2237,-131.68 827,-125 829.2631,-135.3503 835.2237,-131.68"/>
<text text-anchor="middle" x="811.5" y="-416.8" font-family="Times,serif" font-size="14.00" fill="#000000">/select_i1</text>
</g>
<!-- initializerr3_1 -->
<!-- initializerr3_1&#45;&gt;r3 -->
<g id="edge14" class="edge">
<title>initializerr3_1&#45;&gt;r3:w</title>
<path fill="none" stroke="#0000ff" stroke-dasharray="1,5" d="M999.9543,-835.4214C921.4587,-803.4837 756.8594,-733.0237 815.6658,-726.4882"/>
<polygon fill="#0000ff" stroke="#0000ff" points="816.1763,-729.9681 826,-726 815.8459,-722.9759 816.1763,-729.9681"/>
<text text-anchor="middle" x="909" y="-784.8" font-family="Times,serif" font-size="14.00" fill="#000000">0</text>
</g>
<!-- r6 -->
<g id="node18" class="node">
<title>r6</title>
<g id="a_node18"><a xlink:href="file:///home/travis/build/andrewdavidmackenzie/flow/flowstdlib/data/append/append.html" xlink:title="append (#6)">
<ellipse fill="#ff7f50" stroke="#000000" cx="177" cy="-253" rx="68.4888" ry="18"/>
<text text-anchor="middle" x="177" y="-249.3" font-family="Times,serif" font-size="14.00" fill="#000000">append (#6)</text>
</a>
</g>
</g>
<!-- r4&#45;&gt;r6 -->
<g id="edge22" class="edge">
<title>r4:e&#45;&gt;r6:ne</title>
<path fill="none" stroke="#000000" d="M418,-413C426,-413 422.0505,-401.8988 418,-395 362.0805,-299.7578 279.9421,-347.3936 201.5715,-277.1723"/>
<polygon fill="#000000" stroke="#000000" points="203.6669,-274.3362 194,-270 198.8529,-279.4181 203.6669,-274.3362"/>
<text text-anchor="middle" x="185.5" y="-273.8" font-family="Times,serif" font-size="14.00" fill="#000000">s2</text>
<text text-anchor="middle" x="452.5" y="-416.8" font-family="Times,serif" font-size="14.00" fill="#000000">/select_i1</text>
</g>
<!-- r10&#45;&gt;r6 -->
<g id="edge25" class="edge">
<title>r10:e&#45;&gt;r6:n</title>
<path fill="none" stroke="#000000" d="M571,-107C640.8004,-107 506.2715,-168.5243 443,-198 400.5373,-217.7817 291.358,-262.7604 245.2439,-271 233.814,-273.0423 199.8828,-280.847 184.6054,-277.5871"/>
<polygon fill="#000000" stroke="#000000" points="186.8504,-274.9012 177,-271 182.2676,-280.1926 186.8504,-274.9012"/>
<text text-anchor="middle" x="168.5" y="-274.8" font-family="Times,serif" font-size="14.00" fill="#000000">s1</text>
<text text-anchor="middle" x="605.5" y="-110.8" font-family="Times,serif" font-size="14.00" fill="#000000">/select_i1</text>
</g>
<!-- initializerr4_0 -->
<!-- initializerr4_0&#45;&gt;r4 -->
<g id="edge20" class="edge">
<title>initializerr4_0&#45;&gt;r4:ne</title>
<path fill="none" stroke="#0000ff" d="M403.2031,-540.771C394.5565,-515.8544 376.2098,-470.5935 347.9801,-438.4584"/>
<polygon fill="#0000ff" stroke="#0000ff" points="350.3886,-435.9098 341,-431 345.2776,-440.6929 350.3886,-435.9098"/>
<text text-anchor="middle" x="400.5" y="-482.3" font-family="Times,serif" font-size="14.00" fill="#000000">&quot;A&quot;</text>
</g>
<!-- initializerr4_1 -->
<!-- initializerr4_1&#45;&gt;r4 -->
<g id="edge21" class="edge">
<title>initializerr4_1&#45;&gt;r4:w</title>
<path fill="none" stroke="#0000ff" d="M182.6558,-540.8042C178.8932,-504.3418 175.7436,-424.8909 217.9573,-414.1989"/>
<polygon fill="#0000ff" stroke="#0000ff" points="218.4854,-417.6608 228,-413 217.6556,-410.7101 218.4854,-417.6608"/>
<text text-anchor="middle" x="200" y="-482.3" font-family="Times,serif" font-size="14.00" fill="#000000">&quot;BC&quot;</text>
</g>
<!-- r6&#45;&gt;r10 -->
<g id="edge29" class="edge">
<title>r6:e&#45;&gt;r10:n</title>
<path fill="none" stroke="#000000" d="M246,-253C311.1774,-253 303.6225,-192.9179 361,-162 403.7249,-138.9777 463.3339,-171.8018 471.9468,-135.2049"/>
<polygon fill="#000000" stroke="#000000" points="475.4548,-135.3065 473,-125 468.4918,-134.5878 475.4548,-135.3065"/>
<text text-anchor="middle" x="466" y="-128.8" font-family="Times,serif" font-size="14.00" fill="#000000">i1</text>
</g>
<!-- r6&#45;&gt;r0 -->
<g id="edge31" class="edge">
<title>r6:e&#45;&gt;r0:n</title>
<path fill="none" stroke="#000000" d="M246,-253C295.1006,-253 306.3628,-241.7296 355,-235 501.6304,-214.7117 544.3467,-240.9703 686,-198 750.0995,-178.5555 819.5534,-193.8333 826.442,-135.0816"/>
<polygon fill="#000000" stroke="#000000" points="829.9419,-135.1782 827,-125 822.9526,-134.7913 829.9419,-135.1782"/>
</g>
<!-- r12 -->
<g id="node23" class="node">
<title>r12</title>
<g id="a_node23"><a xlink:href="file:///home/travis/build/andrewdavidmackenzie/flow/flowstdlib/control/select/select.html" xlink:title="select_route (#12)">
<ellipse fill="#ff7f50" stroke="#000000" cx="206" cy="-107" rx="97.4827" ry="18"/>
<text text-anchor="middle" x="206" y="-103.3" font-family="Times,serif" font-size="14.00" fill="#000000">select_route (#12)</text>
</a>
</g>
</g>
<!-- r6&#45;&gt;r12 -->
<g id="edge30" class="edge">
<title>r6:e&#45;&gt;r12:ne</title>
<path fill="none" stroke="#000000" d="M246,-253C254,-253 247.3451,-242.8861 246,-235 243.0694,-217.8182 236.9783,-214.9699 233,-198 229.9251,-184.8837 233.6565,-151.6488 228.5919,-133.8985"/>
<polygon fill="#000000" stroke="#000000" points="231.6961,-132.2815 224,-125 225.4755,-135.4916 231.6961,-132.2815"/>
<text text-anchor="middle" x="217" y="-128.8" font-family="Times,serif" font-size="14.00" fill="#000000">i2</text>
</g>
<!-- initializerr10_0 -->
<!-- initializerr10_0&#45;&gt;r10 -->
<g id="edge23" class="edge">
<title>initializerr10_0&#45;&gt;r10:ne</title>
<path fill="none" stroke="#0000ff" stroke-dasharray="1,5" d="M693.0175,-235.0269C669.945,-210.2702 624.8004,-166.1216 577,-143 545.2791,-127.6563 523.2643,-147.8302 498.9796,-131.6293"/>
<polygon fill="#0000ff" stroke="#0000ff" points="500.9285,-128.6981 491,-125 496.4553,-134.0824 500.9285,-128.6981"/>
<text text-anchor="middle" x="661" y="-176.3" font-family="Times,serif" font-size="14.00" fill="#000000">&quot;&quot;</text>
</g>
<!-- initializerr10_1 -->
<!-- initializerr10_1&#45;&gt;r10 -->
<g id="edge24" class="edge">
<title>initializerr10_1&#45;&gt;r10:w</title>
<path fill="none" stroke="#0000ff" stroke-dasharray="1,5" d="M452.5484,-235.389C411.4944,-199.1361 326.1558,-118.6707 364.8092,-108.1437"/>
<polygon fill="#0000ff" stroke="#0000ff" points="365.4528,-111.5935 375,-107 364.672,-104.6372 365.4528,-111.5935"/>
<text text-anchor="middle" x="418" y="-176.3" font-family="Times,serif" font-size="14.00" fill="#000000">&quot;&quot;</text>
</g>
<!-- r14&#45;&gt;r11 -->
<g id="edge37" class="edge">
<title>r14:se&#45;&gt;r11:ne</title>
<path fill="none" stroke="#000000" d="M1044,-235C1055.1632,-223.8368 1103.1417,-224.6262 1115.0421,-235 1127.2168,-245.6129 1109.9847,-258.3292 1120,-271 1134.4842,-289.3246 1146.3855,-284.1551 1169,-290 1197.5761,-297.3858 1281.1882,-285.7603 1300.5928,-308 1300.5928,-308 1263.9021,-329.1025 1246.7033,-338.9944"/>
<polygon fill="#000000" stroke="#000000" points="1244.9235,-335.9803 1238,-344 1248.4135,-342.0483 1244.9235,-335.9803"/>
<text text-anchor="middle" x="1256" y="-347.8" font-family="Times,serif" font-size="14.00" fill="#000000">right</text>
<text text-anchor="middle" x="1026.5" y="-223.8" font-family="Times,serif" font-size="14.00" fill="#000000">/sum</text>
</g>
<!-- r14&#45;&gt;r17 -->
<g id="edge38" class="edge">
<title>r14:se&#45;&gt;r17:ne</title>
<path fill="none" stroke="#000000" d="M1044,-235C1072.8384,-206.1616 1749.0554,-225.5809 1834.1341,-204.5655"/>
<polygon fill="#000000" stroke="#000000" points="1836.5657,-207.095 1842,-198 1832.0801,-201.721 1836.5657,-207.095"/>
<text text-anchor="middle" x="1835" y="-201.8" font-family="Times,serif" font-size="14.00" fill="#000000">i2</text>
<text text-anchor="middle" x="1061.5" y="-223.8" font-family="Times,serif" font-size="14.00" fill="#000000">/sum</text>
</g>
<!-- r15 -->
<g id="node31" class="node">
<title>r15</title>
<g id="a_node31"><a xlink:href="file:///home/travis/build/andrewdavidmackenzie/flow/flowstdlib/data/append/append.html" xlink:title="append (#15)">
<ellipse fill="#ff7f50" stroke="#000000" cx="1213" cy="-34" rx="74.187" ry="18"/>
<text text-anchor="middle" x="1213" y="-30.3" font-family="Times,serif" font-size="14.00" fill="#000000">append (#15)</text>
</a>
</g>
</g>
<!-- r12&#45;&gt;r15 -->
<g id="edge46" class="edge">
<title>r12:e&#45;&gt;r15:n</title>
<path fill="none" stroke="#000000" d="M304,-107C323.7365,-107 321.3242,-87.3833 340,-81 345.3755,-79.1627 1106.3699,-60.6517 1202.9589,-53.3266"/>
<polygon fill="#000000" stroke="#000000" points="1203.5446,-56.7797 1213,-52 1202.6277,-49.8401 1203.5446,-56.7797"/>
<text text-anchor="middle" x="1204.5" y="-55.8" font-family="Times,serif" font-size="14.00" fill="#000000">s1</text>
<text text-anchor="middle" x="338.5" y="-110.8" font-family="Times,serif" font-size="14.00" fill="#000000">/select_i1</text>
</g>
<!-- initializerr16_1 -->
<!-- initializerr16_1&#45;&gt;r16 -->
<g id="edge32" class="edge">
<title>initializerr16_1&#45;&gt;r16:w</title>
<path fill="none" stroke="#0000ff" d="M1445.0903,-614.0975C1421.9821,-578.0048 1376.263,-498.9514 1411.0326,-487.4157"/>
<polygon fill="#0000ff" stroke="#0000ff" points="1411.5916,-490.8715 1421,-486 1410.6072,-483.9411 1411.5916,-490.8715"/>
<text text-anchor="middle" x="1427" y="-555.3" font-family="Times,serif" font-size="14.00" fill="#000000">0</text>
</g>
<!-- initializerr13_1 -->
<!-- initializerr13_1&#45;&gt;r13 -->
<g id="edge34" class="edge">
<title>initializerr13_1&#45;&gt;r13:w</title>
<path fill="none" stroke="#0000ff" stroke-dasharray="1,5" d="M1687.7979,-613.8042C1678.3371,-577.5711 1662.6112,-498.8886 1700.7562,-487.4087"/>
<polygon fill="#0000ff" stroke="#0000ff" points="1701.5701,-490.8298 1711,-486 1700.6164,-483.8951 1701.5701,-490.8298"/>
<text text-anchor="middle" x="1684" y="-555.3" font-family="Times,serif" font-size="14.00" fill="#000000">0</text>
</g>
<!-- r11&#45;&gt;r12 -->
<g id="edge40" class="edge">
<title>r11:se&#45;&gt;r12:nw</title>
<path fill="none" stroke="#000000" d="M1238,-308C1273.6914,-272.3086 1196.9449,-255.9002 1151,-235 960.5785,-148.3777 893.8175,-185.9922 686,-162 661.1854,-159.1352 261.4225,-147.337 196.348,-130.6954"/>
<polygon fill="#000000" stroke="#000000" points="198.2332,-127.7446 188,-125 194.2881,-133.5271 198.2332,-127.7446"/>
<text text-anchor="middle" x="162" y="-128.8" font-family="Times,serif" font-size="14.00" fill="#000000">control</text>
<text text-anchor="middle" x="1226" y="-296.8" font-family="Times,serif" font-size="14.00" fill="#000000">/lte</text>
</g>
<!-- r11&#45;&gt;r17 -->
<g id="edge41" class="edge">
<title>r11:se&#45;&gt;r17:nw</title>
<path fill="none" stroke="#000000" d="M1238,-308C1247.9279,-298.0721 1474.4186,-274.5598 1488,-271 1531.275,-259.6573 1538.8216,-246.7051 1582,-235 1675.9657,-209.5272 1730.7122,-265.1864 1798.5319,-205.0449"/>
<polygon fill="#000000" stroke="#000000" points="1801.1275,-207.408 1806,-198 1796.3241,-202.316 1801.1275,-207.408"/>
<text text-anchor="middle" x="1780" y="-201.8" font-family="Times,serif" font-size="14.00" fill="#000000">control</text>
<text text-anchor="middle" x="1250" y="-296.8" font-family="Times,serif" font-size="14.00" fill="#000000">/lte</text>
</g>
<!-- r18 -->
<g id="node28" class="node">
<title>r18</title>
<g id="a_node28"><a xlink:href="file:///home/travis/build/andrewdavidmackenzie/flow/flowstdlib/control/select/select.html" xlink:title="select_string (#18)">
<ellipse fill="#ff7f50" stroke="#000000" cx="1514" cy="-180" rx="100.9827" ry="18"/>
<text text-anchor="middle" x="1514" y="-176.3" font-family="Times,serif" font-size="14.00" fill="#000000">select_string (#18)</text>
</a>
</g>
</g>
<!-- r11&#45;&gt;r18 -->
<g id="edge39" class="edge">
<title>r11:se&#45;&gt;r18:nw</title>
<path fill="none" stroke="#000000" d="M1238,-308C1273.3651,-272.6349 1419.8512,-300.8237 1460,-271 1486.0904,-251.6193 1473.7108,-228.7861 1489.4777,-205.7974"/>
<polygon fill="#000000" stroke="#000000" points="1492.2685,-207.916 1496,-198 1486.8993,-203.4247 1492.2685,-207.916"/>
<text text-anchor="middle" x="1470" y="-201.8" font-family="Times,serif" font-size="14.00" fill="#000000">control</text>
<text text-anchor="middle" x="1226" y="-311.8" font-family="Times,serif" font-size="14.00" fill="#000000">/lte</text>
</g>
<!-- r17&#45;&gt;r13 -->
<g id="edge47" class="edge">
<title>r17:e&#45;&gt;r13:ne</title>
<path fill="none" stroke="#000000" d="M1919,-180C1951.4444,-180 1919,-220.5556 1919,-253 1919,-413 1919,-413 1919,-413 1919,-453.54 1942.3743,-476.3349 1912.7411,-504 1907.3072,-509.0729 1860.8132,-510.1923 1839.777,-506.9982"/>
<polygon fill="#000000" stroke="#000000" points="1840.5867,-503.5857 1830,-504 1838.5344,-510.2781 1840.5867,-503.5857"/>
<text text-anchor="middle" x="1823" y="-507.8" font-family="Times,serif" font-size="14.00" fill="#000000">i2</text>
<text text-anchor="middle" x="1953.5" y="-183.8" font-family="Times,serif" font-size="14.00" fill="#000000">/select_i1</text>
</g>
<!-- r17&#45;&gt;r3 -->
<g id="edge48" class="edge">
<title>r17:e&#45;&gt;r3:ne</title>
<path fill="none" stroke="#000000" d="M1919,-180C1977.6751,-180 2029,-194.3249 2029,-253 2029,-486 2029,-486 2029,-486 2029,-615.9945 1930.5639,-629.98 1811,-681 1627.994,-759.0919 1023.2421,-752.4502 937.9721,-745.4653"/>
<polygon fill="#000000" stroke="#000000" points="938.4026,-741.9911 928,-744 937.3849,-748.9167 938.4026,-741.9911"/>
<text text-anchor="middle" x="921" y="-747.8" font-family="Times,serif" font-size="14.00" fill="#000000">i2</text>
<text text-anchor="middle" x="1953.5" y="-168.8" font-family="Times,serif" font-size="14.00" fill="#000000">/select_i1</text>
</g>
<!-- r18&#45;&gt;r15 -->
<g id="edge44" class="edge">
<title>r18:e&#45;&gt;r15:ne</title>
<path fill="none" stroke="#000000" d="M1615,-180C1623,-180 1619.8154,-168.3884 1615,-162 1602.66,-145.6288 1298.7842,-79.0177 1240.1902,-56.5928"/>
<polygon fill="#000000" stroke="#000000" points="1241.5098,-53.3396 1231,-52 1238.3805,-59.6012 1241.5098,-53.3396"/>
<text text-anchor="middle" x="1222.5" y="-55.8" font-family="Times,serif" font-size="14.00" fill="#000000">s2</text>
<text text-anchor="middle" x="1649.5" y="-183.8" font-family="Times,serif" font-size="14.00" fill="#000000">/select_i1</text>
</g>
<!-- initializerr18_0 -->
<!-- initializerr18_0&#45;&gt;r18 -->
<g id="edge42" class="edge">
<title>initializerr18_0&#45;&gt;r18:ne</title>
<path fill="none" stroke="#0000ff" d="M1665.6764,-308.7859C1635.2385,-286.7343 1581.9291,-246.4112 1539.2871,-205.1644"/>
<polygon fill="#0000ff" stroke="#0000ff" points="1541.5846,-202.515 1532,-198 1536.6771,-207.5066 1541.5846,-202.515"/>
<text text-anchor="middle" x="1627.5" y="-249.3" font-family="Times,serif" font-size="14.00" fill="#000000">&quot;B&quot;</text>
</g>
<!-- initializerr18_1 -->
<!-- initializerr18_1&#45;&gt;r18 -->
<g id="edge43" class="edge">
<title>initializerr18_1&#45;&gt;r18:w</title>
<path fill="none" stroke="#0000ff" d="M1441.4137,-308.0975C1416.949,-272.0048 1368.3002,-192.9514 1402.9937,-181.4157"/>
<polygon fill="#0000ff" stroke="#0000ff" points="1403.5889,-184.8664 1413,-180 1402.6083,-177.9354 1403.5889,-184.8664"/>
<text text-anchor="middle" x="1429.5" y="-249.3" font-family="Times,serif" font-size="14.00" fill="#000000">&quot;C&quot;</text>
</g>
<!-- r15&#45;&gt;r10 -->
<g id="edge50" class="edge">
<title>r15:e&#45;&gt;r10:ne</title>
<path fill="none" stroke="#000000" d="M1287,-34C1295,-34 1292.5067,-46.1969 1287,-52 1244.6471,-96.6322 794.766,-71.3412 734,-81 659.6773,-92.8137 645.098,-115.1372 570.4913,-125 555.9205,-126.9262 519.2136,-134.2942 500.0988,-129.5204"/>
<polygon fill="#000000" stroke="#000000" points="501.5129,-126.3148 491,-125 498.3984,-132.5838 501.5129,-126.3148"/>
<text text-anchor="middle" x="484" y="-128.8" font-family="Times,serif" font-size="14.00" fill="#000000">i2</text>
</g>
<!-- r15&#45;&gt;r12 -->
<g id="edge49" class="edge">
<title>r15:e&#45;&gt;r12:n</title>
<path fill="none" stroke="#000000" d="M1287,-34C1295,-34 1292.5565,-46.2445 1287,-52 1266.1502,-73.5963 777.0052,-70.1035 747,-71 724.3922,-71.6754 360.3527,-71.134 340,-81 317.1342,-92.0842 326.4916,-114.1975 303.4913,-125 295.6399,-128.6876 237.8466,-133.4155 215.1313,-129.5905"/>
<polygon fill="#000000" stroke="#000000" points="216.5066,-126.3646 206,-125 213.3624,-132.6188 216.5066,-126.3646"/>
<text text-anchor="middle" x="199" y="-128.8" font-family="Times,serif" font-size="14.00" fill="#000000">i1</text>
</g>
<!-- initializerr12_0 -->
<!-- initializerr12_0&#45;&gt;r12 -->
<g id="edge45" class="edge">
<title>initializerr12_0&#45;&gt;r12:ne</title>
<path fill="none" stroke="#0000ff" stroke-dasharray="1,5" d="M1202.555,-614.3819C1154.2543,-569.3848 1018.2877,-449.9162 881,-395 712.3356,-327.5329 191.3086,-408.8499 73,-271 62.5796,-258.8585 65.7452,-249.2607 73,-235 81.0885,-219.1006 197.6322,-160.1304 220.9345,-134.5439"/>
<polygon fill="#0000ff" stroke="#0000ff" points="224.2742,-135.5913 224,-125 217.6095,-133.4506 224.2742,-135.5913"/>
<text text-anchor="middle" x="815" y="-365.8" font-family="Times,serif" font-size="14.00" fill="#000000">&quot;&quot;</text>
</g>
</g>
</svg>
