<?xml version="1.0" encoding="UTF-8" standalone="no"?>
<!DOCTYPE svg PUBLIC "-//W3C//DTD SVG 1.1//EN"
 "http://www.w3.org/Graphics/SVG/1.1/DTD/svg11.dtd">
<!-- Generated by graphviz version 2.42.3 (20191010.1750)
 -->
<!-- Title: router Pages: 1 -->
<svg width="235pt" height="210pt"
 viewBox="0.00 0.00 235.28 210.00" xmlns="http://www.w3.org/2000/svg" xmlns:xlink="http://www.w3.org/1999/xlink">
<g id="graph0" class="graph" transform="scale(1 1) rotate(0) translate(4 206)">
<title>router</title>
<polygon fill="white" stroke="transparent" points="-4,4 -4,-206 231.28,-206 231.28,4 -4,4"/>
<text text-anchor="middle" x="113.64" y="-186.8" font-family="Times,serif" font-size="14.00">/router</text>
<!-- r0 -->
<g id="node1" class="node">
<title>r0</title>
<ellipse fill="coral" stroke="black" cx="55.53" cy="-162" rx="55.56" ry="18"/>
<text text-anchor="middle" x="55.53" y="-157.8" font-family="Times,serif" font-size="14.00">readline (#0)</text>
</g>
<!-- r1 -->
<g id="node2" class="node">
<title>r1</title>
<ellipse fill="coral" stroke="black" cx="111.53" cy="-90" rx="71.98" ry="18"/>
<text text-anchor="middle" x="111.53" y="-85.8" font-family="Times,serif" font-size="14.00">read_section (#1)</text>
</g>
<!-- r0&#45;&gt;r1 -->
<g id="edge1" class="edge">
<title>r0:e&#45;&gt;r1:n</title>
<path fill="none" stroke="black" d="M112.53,-162C133.25,-162 117.45,-139.65 112.74,-118.09"/>
<polygon fill="black" stroke="black" points="116.2,-117.51 111.53,-108 109.25,-118.35 116.2,-117.51"/>
</g>
<!-- r2 -->
<g id="node3" class="node">
<title>r2</title>
<ellipse fill="coral" stroke="black" cx="183.53" cy="-18" rx="43.51" ry="18"/>
<text text-anchor="middle" x="183.53" y="-13.8" font-family="Times,serif" font-size="14.00">print (#2)</text>
</g>
<!-- r1&#45;&gt;r2 -->
<g id="edge2" class="edge">
<title>r1:e&#45;&gt;r2:n</title>
<path fill="none" stroke="black" d="M184.53,-90C205.25,-90 189.45,-67.65 184.74,-46.09"/>
<polygon fill="black" stroke="black" points="188.2,-45.51 183.53,-36 181.25,-46.35 188.2,-45.51"/>
</g>
</g>
</svg>
