<?xml version="1.0" encoding="UTF-8" standalone="no"?>
<!DOCTYPE svg PUBLIC "-//W3C//DTD SVG 1.1//EN"
 "http://www.w3.org/Graphics/SVG/1.1/DTD/svg11.dtd">
<!-- Generated by graphviz version 2.44.1 (20200629.0846)
 -->
<!-- Title: router Pages: 1 -->
<svg width="1926pt" height="779pt"
 viewBox="0.00 0.00 1926.00 779.00" xmlns="http://www.w3.org/2000/svg" xmlns:xlink="http://www.w3.org/1999/xlink">
<g id="graph0" class="graph" transform="scale(1 1) rotate(0) translate(4 775)">
<title>router</title>
<polygon fill="white" stroke="transparent" points="-4,4 -4,-775 1922,-775 1922,4 -4,4"/>
<text text-anchor="middle" x="959" y="-755.8" font-family="Times,serif" font-size="14.00">/router</text>
<g id="clust1" class="cluster">
<title>cluster_A_tracker</title>
<polygon fill="none" stroke="black" points="1022,-81 1022,-598 1910,-598 1910,-81 1022,-81"/>
<text text-anchor="middle" x="1466" y="-582.8" font-family="Times,serif" font-size="14.00">/router/A_tracker</text>
</g>
<g id="clust2" class="cluster">
<title>cluster_B_tracker</title>
<polygon fill="none" stroke="black" points="8,-8 8,-417 674,-417 674,-8 8,-8"/>
<text text-anchor="middle" x="341" y="-401.8" font-family="Times,serif" font-size="14.00">/router/B_tracker</text>
</g>
<!-- r1 -->
<g id="node1" class="node">
<title>r1</title>
<g id="a_node1"><a xlink:href="file:///Users/andrew/workspace/flow/flowr/src/lib/flowruntime/stdio/readline.html" xlink:title="readline (#1)">
<ellipse fill="coral" stroke="black" cx="520" cy="-730" rx="55.79" ry="18"/>
<text text-anchor="middle" x="520" y="-726.3" font-family="Times,serif" font-size="14.00">readline (#1)</text>
</a>
</g>
</g>
<!-- r2 -->
<g id="node2" class="node">
<title>r2</title>
<g id="a_node2"><a xlink:href="file:///Users/andrew/workspace/flow/flowstdlib/data/accumulate/accumulate.html" xlink:title="accumulate_triples (#2)">
<ellipse fill="coral" stroke="black" cx="708" cy="-643" rx="94.78" ry="18"/>
<text text-anchor="middle" x="708" y="-639.3" font-family="Times,serif" font-size="14.00">accumulate_triples (#2)</text>
</a>
</g>
</g>
<!-- r1&#45;&gt;r2 -->
<g id="edge1" class="edge">
<title>r1:e&#45;&gt;r2:n</title>
<path fill="none" stroke="black" d="M577,-730C577.43,-730 669.54,-681.69 699.03,-665.92"/>
<polygon fill="black" stroke="black" points="700.91,-668.88 708,-661 697.55,-662.74 700.91,-668.88"/>
<text text-anchor="middle" x="690.5" y="-664.8" font-family="Times,serif" font-size="14.00">values</text>
<text text-anchor="middle" x="590.5" y="-733.8" font-family="Times,serif" font-size="14.00">/json</text>
</g>
<!-- r2&#45;&gt;r2 -->
<g id="edge4" class="edge">
<title>r2:e&#45;&gt;r2:ne</title>
<path fill="none" stroke="black" d="M803,-643C826.89,-634 874.89,-634 874.89,-652 874.89,-668.95 792.24,-669.94 736.14,-662.49"/>
<polygon fill="black" stroke="black" points="736.4,-658.99 726,-661 735.39,-665.91 736.4,-658.99"/>
<text text-anchor="middle" x="743.5" y="-664.8" font-family="Times,serif" font-size="14.00">partial</text>
<text text-anchor="middle" x="822.5" y="-646.8" font-family="Times,serif" font-size="14.00">/partial</text>
</g>
<!-- r14 -->
<g id="node5" class="node">
<title>r14</title>
<g id="a_node5"><a xlink:href="file:///Users/andrew/workspace/flow/flowstdlib/math/add/add.html" xlink:title="forward_sum (#14)">
<ellipse fill="coral" stroke="black" cx="1173" cy="-462" rx="79.09" ry="18"/>
<text text-anchor="middle" x="1173" y="-458.3" font-family="Times,serif" font-size="14.00">forward_sum (#14)</text>
</a>
</g>
</g>
<!-- r2&#45;&gt;r14 -->
<g id="edge5" class="edge">
<title>r2:s&#45;&gt;r14:n</title>
<path fill="none" stroke="black" d="M708,-625C708,-459.1 898.34,-539.35 1059,-498 1080.25,-492.53 1148.57,-502.02 1167.88,-488.81"/>
<polygon fill="black" stroke="black" points="1171,-490.4 1173,-480 1164.95,-486.89 1171,-490.4"/>
<text text-anchor="middle" x="1167.5" y="-483.8" font-family="Times,serif" font-size="14.00">i1</text>
<text text-anchor="middle" x="684" y="-613.8" font-family="Times,serif" font-size="14.00">/chunk/0</text>
</g>
<!-- r12 -->
<g id="node6" class="node">
<title>r12</title>
<g id="a_node6"><a xlink:href="file:///Users/andrew/workspace/flow/flowstdlib/math/add/add.html" xlink:title="cross_distance (#12)">
<ellipse fill="coral" stroke="black" cx="1517" cy="-549" rx="83.39" ry="18"/>
<text text-anchor="middle" x="1517" y="-545.3" font-family="Times,serif" font-size="14.00">cross_distance (#12)</text>
</a>
</g>
</g>
<!-- r2&#45;&gt;r12 -->
<g id="edge6" class="edge">
<title>r2:sw&#45;&gt;r12:ne</title>
<path fill="none" stroke="black" d="M690,-625C662.17,-597.17 1358.95,-602.92 1398,-598 1455.74,-590.73 1563.49,-609.3 1541.68,-575.94"/>
<polygon fill="black" stroke="black" points="1544.12,-573.39 1535,-568 1538.77,-577.9 1544.12,-573.39"/>
<text text-anchor="middle" x="1529.5" y="-571.8" font-family="Times,serif" font-size="14.00">i2</text>
<text text-anchor="middle" x="714" y="-613.8" font-family="Times,serif" font-size="14.00">/chunk/1</text>
</g>
<!-- r2&#45;&gt;r12 -->
<g id="edge7" class="edge">
<title>r2:se&#45;&gt;r12:n</title>
<path fill="none" stroke="black" d="M726,-625C752.42,-598.58 1361.02,-603.35 1398,-598 1448.29,-590.73 1508.16,-618.31 1516.11,-578.01"/>
<polygon fill="black" stroke="black" points="1519.6,-578.27 1517,-568 1512.63,-577.65 1519.6,-578.27"/>
<text text-anchor="middle" x="1511.5" y="-571.8" font-family="Times,serif" font-size="14.00">i1</text>
<text text-anchor="middle" x="750" y="-613.8" font-family="Times,serif" font-size="14.00">/chunk/2</text>
</g>
<!-- r4 -->
<g id="node7" class="node">
<title>r4</title>
<g id="a_node7"><a xlink:href="file:///Users/andrew/workspace/flow/flowstdlib/math/add/add.html" xlink:title="forward_sum (#4)">
<ellipse fill="coral" stroke="black" cx="360" cy="-281" rx="75.29" ry="18"/>
<text text-anchor="middle" x="360" y="-277.3" font-family="Times,serif" font-size="14.00">forward_sum (#4)</text>
</a>
</g>
</g>
<!-- r2&#45;&gt;r4 -->
<g id="edge8" class="edge">
<title>r2:sw&#45;&gt;r4:n</title>
<path fill="none" stroke="black" d="M690,-625C487.8,-422.8 51,-835.95 51,-550 51,-550 51,-550 51,-367 51,-292.07 138.74,-332.7 212,-317 225.79,-314.04 323.42,-315.08 352.1,-305.23"/>
<polygon fill="black" stroke="black" points="354.31,-307.94 360,-299 349.98,-302.44 354.31,-307.94"/>
<text text-anchor="middle" x="354.5" y="-302.8" font-family="Times,serif" font-size="14.00">i1</text>
<text text-anchor="middle" x="666" y="-613.8" font-family="Times,serif" font-size="14.00">/chunk/1</text>
</g>
<!-- r3 -->
<g id="node8" class="node">
<title>r3</title>
<g id="a_node8"><a xlink:href="file:///Users/andrew/workspace/flow/flowstdlib/math/add/add.html" xlink:title="cross_distance (#3)">
<ellipse fill="coral" stroke="black" cx="587" cy="-281" rx="79.09" ry="18"/>
<text text-anchor="middle" x="587" y="-277.3" font-family="Times,serif" font-size="14.00">cross_distance (#3)</text>
</a>
</g>
</g>
<!-- r2&#45;&gt;r3 -->
<g id="edge9" class="edge">
<title>r2:se&#45;&gt;r3:n</title>
<path fill="none" stroke="black" d="M726,-625C738.93,-612.07 747.01,-615.87 763,-607 804.74,-583.86 854,-597.72 854,-550 854,-550 854,-550 854,-367 854,-248.13 602.42,-411.35 587.67,-309.01"/>
<polygon fill="black" stroke="black" points="591.16,-308.74 587,-299 584.18,-309.21 591.16,-308.74"/>
<text text-anchor="middle" x="581.5" y="-302.8" font-family="Times,serif" font-size="14.00">i1</text>
<text text-anchor="middle" x="702" y="-628.8" font-family="Times,serif" font-size="14.00">/chunk/2</text>
</g>
<!-- initializerr2_1 -->
<!-- initializerr2_1&#45;&gt;r2 -->
<g id="edge2" class="edge">
<title>initializerr2_1&#45;&gt;r2:n</title>
<path fill="none" stroke="blue" stroke-dasharray="1,5" d="M708,-711.95C708,-700.89 708,-685.87 708,-671.39"/>
<polygon fill="blue" stroke="blue" points="711.5,-671 708,-661 704.5,-671 711.5,-671"/>
<text text-anchor="middle" x="713" y="-682.8" font-family="Times,serif" font-size="14.00">[]</text>
</g>
<!-- initializerr2_2 -->
<!-- initializerr2_2&#45;&gt;r2 -->
<g id="edge3" class="edge">
<title>initializerr2_2&#45;&gt;r2:n</title>
<path fill="none" stroke="blue" d="M860.07,-716.69C813.37,-702.41 740.35,-679.27 716.12,-667.1"/>
<polygon fill="blue" stroke="blue" points="718.1,-664.21 708,-661 713.89,-669.8 718.1,-664.21"/>
<text text-anchor="middle" x="790.5" y="-682.8" font-family="Times,serif" font-size="14.00">3</text>
</g>
<!-- r18 -->
<g id="node11" class="node">
<title>r18</title>
<g id="a_node11"><a xlink:href="file:///Users/andrew/workspace/flow/flowstdlib/math/compare/compare.html" xlink:title="compare (#18)">
<ellipse fill="coral" stroke="black" cx="1361" cy="-368" rx="63.09" ry="18"/>
<text text-anchor="middle" x="1361" y="-364.3" font-family="Times,serif" font-size="14.00">compare (#18)</text>
</a>
</g>
</g>
<!-- r14&#45;&gt;r18 -->
<g id="edge12" class="edge">
<title>r14:se&#45;&gt;r18:n</title>
<path fill="none" stroke="black" d="M1191,-444C1216.64,-418.36 1336.43,-425.18 1357.75,-396.57"/>
<polygon fill="black" stroke="black" points="1361.1,-397.59 1361,-387 1354.47,-395.34 1361.1,-397.59"/>
<text text-anchor="middle" x="1351.5" y="-390.8" font-family="Times,serif" font-size="14.00">left</text>
<text text-anchor="middle" x="1177" y="-432.8" font-family="Times,serif" font-size="14.00">/sum</text>
</g>
<!-- r11 -->
<g id="node12" class="node">
<title>r11</title>
<g id="a_node12"><a xlink:href="file:///Users/andrew/workspace/flow/flowstdlib/control/select/select.html" xlink:title="select_total (#11)">
<ellipse fill="coral" stroke="black" cx="1523" cy="-281" rx="72.29" ry="18"/>
<text text-anchor="middle" x="1523" y="-277.3" font-family="Times,serif" font-size="14.00">select_total (#11)</text>
</a>
</g>
</g>
<!-- r14&#45;&gt;r11 -->
<g id="edge13" class="edge">
<title>r14:se&#45;&gt;r11:n</title>
<path fill="none" stroke="black" d="M1191,-444C1231.19,-403.81 1164.61,-355.95 1206,-317 1229.38,-295 1472.8,-327.36 1516.35,-306.75"/>
<polygon fill="black" stroke="black" points="1519.15,-308.87 1523,-299 1513.83,-304.31 1519.15,-308.87"/>
<text text-anchor="middle" x="1517.5" y="-302.8" font-family="Times,serif" font-size="14.00">i1</text>
<text text-anchor="middle" x="1205" y="-432.8" font-family="Times,serif" font-size="14.00">/sum</text>
</g>
<!-- r13 -->
<g id="node9" class="node">
<title>r13</title>
<g id="a_node9"><a xlink:href="file:///Users/andrew/workspace/flow/flowstdlib/math/add/add.html" xlink:title="cross_sum (#13)">
<ellipse fill="coral" stroke="black" cx="1394" cy="-462" rx="69.59" ry="18"/>
<text text-anchor="middle" x="1394" y="-458.3" font-family="Times,serif" font-size="14.00">cross_sum (#13)</text>
</a>
</g>
</g>
<!-- r12&#45;&gt;r13 -->
<g id="edge10" class="edge">
<title>r12:se&#45;&gt;r13:n</title>
<path fill="none" stroke="black" d="M1535,-531C1579.45,-486.55 1414.56,-539.88 1395.73,-490.12"/>
<polygon fill="black" stroke="black" points="1399.14,-489.27 1394,-480 1392.24,-490.45 1399.14,-489.27"/>
<text text-anchor="middle" x="1388.5" y="-483.8" font-family="Times,serif" font-size="14.00">i1</text>
<text text-anchor="middle" x="1521" y="-519.8" font-family="Times,serif" font-size="14.00">/sum</text>
</g>
<!-- r9 -->
<g id="node26" class="node">
<title>r9</title>
<g id="a_node26"><a xlink:href="file:///Users/andrew/workspace/flow/flowstdlib/math/compare/compare.html" xlink:title="compare (#9)">
<ellipse fill="coral" stroke="black" cx="460" cy="-194" rx="58.49" ry="18"/>
<text text-anchor="middle" x="460" y="-190.3" font-family="Times,serif" font-size="14.00">compare (#9)</text>
</a>
</g>
</g>
<!-- r4&#45;&gt;r9 -->
<g id="edge35" class="edge">
<title>r4:se&#45;&gt;r9:n</title>
<path fill="none" stroke="black" d="M378,-263C405.62,-235.38 450.89,-251.34 458.8,-222.07"/>
<polygon fill="black" stroke="black" points="462.29,-222.34 460,-212 455.34,-221.52 462.29,-222.34"/>
<text text-anchor="middle" x="450.5" y="-215.8" font-family="Times,serif" font-size="14.00">left</text>
<text text-anchor="middle" x="364" y="-251.8" font-family="Times,serif" font-size="14.00">/sum</text>
</g>
<!-- r7 -->
<g id="node27" class="node">
<title>r7</title>
<g id="a_node27"><a xlink:href="file:///Users/andrew/workspace/flow/flowstdlib/control/select/select.html" xlink:title="select_total (#7)">
<ellipse fill="coral" stroke="black" cx="597" cy="-107" rx="67.69" ry="18"/>
<text text-anchor="middle" x="597" y="-103.3" font-family="Times,serif" font-size="14.00">select_total (#7)</text>
</a>
</g>
</g>
<!-- r4&#45;&gt;r7 -->
<g id="edge36" class="edge">
<title>r4:se&#45;&gt;r7:n</title>
<path fill="none" stroke="black" d="M378,-263C402.85,-238.15 421.18,-254.57 455,-245 499.63,-232.37 519.03,-242.47 554,-212 583.85,-185.99 595.13,-170.77 596.78,-135.08"/>
<polygon fill="black" stroke="black" points="600.28,-135.07 597,-125 593.28,-134.92 600.28,-135.07"/>
<text text-anchor="middle" x="591.5" y="-128.8" font-family="Times,serif" font-size="14.00">i1</text>
<text text-anchor="middle" x="392" y="-251.8" font-family="Times,serif" font-size="14.00">/sum</text>
</g>
<!-- r5 -->
<g id="node21" class="node">
<title>r5</title>
<g id="a_node21"><a xlink:href="file:///Users/andrew/workspace/flow/flowstdlib/math/add/add.html" xlink:title="cross_sum (#5)">
<ellipse fill="coral" stroke="black" cx="1096" cy="-194" rx="65.79" ry="18"/>
<text text-anchor="middle" x="1096" y="-190.3" font-family="Times,serif" font-size="14.00">cross_sum (#5)</text>
</a>
</g>
</g>
<!-- r3&#45;&gt;r5 -->
<g id="edge33" class="edge">
<title>r3:se&#45;&gt;r5:n</title>
<path fill="none" stroke="black" d="M605,-263C637.2,-230.8 657.25,-238.46 702,-230 721.55,-226.3 1030.57,-232.55 1087.14,-217.31"/>
<polygon fill="black" stroke="black" points="1089.22,-220.14 1096,-212 1085.62,-214.14 1089.22,-220.14"/>
<text text-anchor="middle" x="1090.5" y="-215.8" font-family="Times,serif" font-size="14.00">i1</text>
<text text-anchor="middle" x="591" y="-251.8" font-family="Times,serif" font-size="14.00">/sum</text>
</g>
<!-- r13&#45;&gt;r18 -->
<g id="edge15" class="edge">
<title>r13:se&#45;&gt;r18:ne</title>
<path fill="none" stroke="black" d="M1412,-444C1430.74,-425.26 1406.12,-410.76 1385.58,-392.99"/>
<polygon fill="black" stroke="black" points="1387.72,-390.21 1378,-386 1382.98,-395.35 1387.72,-390.21"/>
<text text-anchor="middle" x="1391" y="-389.8" font-family="Times,serif" font-size="14.00">right</text>
<text text-anchor="middle" x="1398" y="-432.8" font-family="Times,serif" font-size="14.00">/sum</text>
</g>
<!-- r13&#45;&gt;r11 -->
<g id="edge16" class="edge">
<title>r13:se&#45;&gt;r11:ne</title>
<path fill="none" stroke="black" d="M1412,-444C1429.31,-426.69 1441.94,-433.52 1460,-417 1480.81,-397.97 1546.09,-337.59 1544.93,-308.48"/>
<polygon fill="black" stroke="black" points="1548.06,-306.9 1541,-299 1541.6,-309.58 1548.06,-306.9"/>
<text text-anchor="middle" x="1535.5" y="-302.8" font-family="Times,serif" font-size="14.00">i2</text>
<text text-anchor="middle" x="1426" y="-432.8" font-family="Times,serif" font-size="14.00">/sum</text>
</g>
<!-- initializerr14_1 -->
<!-- initializerr14_1&#45;&gt;r14 -->
<g id="edge11" class="edge">
<title>initializerr14_1&#45;&gt;r14:w</title>
<path fill="none" stroke="blue" stroke-dasharray="1,5" d="M1087.74,-531.01C1079.4,-509.67 1068.53,-474.63 1082.37,-464.7"/>
<polygon fill="blue" stroke="blue" points="1083.32,-468.07 1092,-462 1081.43,-461.33 1083.32,-468.07"/>
<text text-anchor="middle" x="1084.5" y="-501.8" font-family="Times,serif" font-size="14.00">0</text>
</g>
<!-- r18&#45;&gt;r11 -->
<g id="edge19" class="edge">
<title>r18:se&#45;&gt;r11:nw</title>
<path fill="none" stroke="black" d="M1378,-350C1386.64,-341.36 1410.88,-322.08 1422,-317 1452.98,-302.85 1473.9,-321.31 1497.3,-305.44"/>
<polygon fill="black" stroke="black" points="1499.58,-308.1 1505,-299 1495.08,-302.73 1499.58,-308.1"/>
<text text-anchor="middle" x="1485.5" y="-302.8" font-family="Times,serif" font-size="14.00">control</text>
<text text-anchor="middle" x="1369" y="-338.8" font-family="Times,serif" font-size="14.00">/lte</text>
</g>
<!-- r15 -->
<g id="node14" class="node">
<title>r15</title>
<g id="a_node14"><a xlink:href="file:///Users/andrew/workspace/flow/flowstdlib/control/select/select.html" xlink:title="select_string (#15)">
<ellipse fill="coral" stroke="black" cx="1763" cy="-281" rx="76.89" ry="18"/>
<text text-anchor="middle" x="1763" y="-277.3" font-family="Times,serif" font-size="14.00">select_string (#15)</text>
</a>
</g>
</g>
<!-- r18&#45;&gt;r15 -->
<g id="edge17" class="edge">
<title>r18:se&#45;&gt;r15:nw</title>
<path fill="none" stroke="black" d="M1378,-350C1384.62,-343.38 1677.18,-312.59 1735.18,-301.63"/>
<polygon fill="black" stroke="black" points="1736.24,-304.96 1745,-299 1734.44,-298.2 1736.24,-304.96"/>
<text text-anchor="middle" x="1725.5" y="-302.8" font-family="Times,serif" font-size="14.00">control</text>
<text text-anchor="middle" x="1387" y="-338.8" font-family="Times,serif" font-size="14.00">/lte</text>
</g>
<!-- r16 -->
<g id="node15" class="node">
<title>r16</title>
<g id="a_node15"><a xlink:href="file:///Users/andrew/workspace/flow/flowstdlib/control/select/select.html" xlink:title="select_route (#16)">
<ellipse fill="coral" stroke="black" cx="1491" cy="-107" rx="74.99" ry="18"/>
<text text-anchor="middle" x="1491" y="-103.3" font-family="Times,serif" font-size="14.00">select_route (#16)</text>
</a>
</g>
</g>
<!-- r18&#45;&gt;r16 -->
<g id="edge18" class="edge">
<title>r18:se&#45;&gt;r16:nw</title>
<path fill="none" stroke="black" d="M1378,-350C1388.49,-339.51 1378.7,-331.2 1383,-317 1409.33,-230.16 1406.61,-194.33 1465.87,-132.29"/>
<polygon fill="black" stroke="black" points="1468.51,-134.6 1473,-125 1463.51,-129.7 1468.51,-134.6"/>
<text text-anchor="middle" x="1453.5" y="-128.8" font-family="Times,serif" font-size="14.00">control</text>
<text text-anchor="middle" x="1369" y="-353.8" font-family="Times,serif" font-size="14.00">/lte</text>
</g>
<!-- r11&#45;&gt;r14 -->
<g id="edge26" class="edge">
<title>r11:e&#45;&gt;r14:ne</title>
<path fill="none" stroke="black" d="M1596,-281C1604.01,-281 1600.58,-293.25 1595,-299 1578.45,-316.03 1405.38,-312.83 1382,-317 1327.54,-326.7 1303.45,-313.38 1262,-350 1234.66,-374.15 1215.64,-392.91 1231,-426 1236.22,-437.24 1247.08,-432.76 1252.29,-444 1259.03,-458.51 1263.51,-468.59 1252.29,-480 1244.68,-487.74 1216.4,-489.9 1200.34,-485.58"/>
<polygon fill="black" stroke="black" points="1201.52,-482.26 1191,-481 1198.44,-488.54 1201.52,-482.26"/>
<text text-anchor="middle" x="1185.5" y="-484.8" font-family="Times,serif" font-size="14.00">i2</text>
<text text-anchor="middle" x="1622" y="-284.8" font-family="Times,serif" font-size="14.00">/select_i1</text>
</g>
<!-- r11&#45;&gt;r5 -->
<g id="edge27" class="edge">
<title>r11:e&#45;&gt;r5:ne</title>
<path fill="none" stroke="black" d="M1596,-281C1604.01,-281 1600.52,-268.81 1595,-263 1523.24,-187.55 1210.44,-281.75 1121.86,-218.61"/>
<polygon fill="black" stroke="black" points="1123.9,-215.76 1114,-212 1119.4,-221.12 1123.9,-215.76"/>
<text text-anchor="middle" x="1108.5" y="-215.8" font-family="Times,serif" font-size="14.00">i2</text>
<text text-anchor="middle" x="1622" y="-269.8" font-family="Times,serif" font-size="14.00">/select_i1</text>
</g>
<!-- r0 -->
<g id="node22" class="node">
<title>r0</title>
<g id="a_node22"><a xlink:href="file:///Users/andrew/workspace/flow/flowr/src/lib/flowruntime/stdio/stdout.html" xlink:title="print (#0)">
<ellipse fill="coral" stroke="black" cx="1843" cy="-107" rx="44.39" ry="18"/>
<text text-anchor="middle" x="1843" y="-103.3" font-family="Times,serif" font-size="14.00">print (#0)</text>
</a>
</g>
</g>
<!-- r11&#45;&gt;r0 -->
<g id="edge28" class="edge">
<title>r11:e&#45;&gt;r0:n</title>
<path fill="none" stroke="black" d="M1596,-281C1621.3,-281 1625.67,-269.94 1650,-263 1744.02,-236.18 1803.4,-288.73 1864,-212 1883.01,-187.93 1876.81,-170.86 1864,-143 1860.87,-136.19 1853.76,-135.56 1848.68,-133.33"/>
<polygon fill="black" stroke="black" points="1851.52,-131.29 1843,-125 1845.74,-135.23 1851.52,-131.29"/>
<text text-anchor="middle" x="1570" y="-284.8" font-family="Times,serif" font-size="14.00">/select_i1</text>
</g>
<!-- initializerr13_1 -->
<!-- initializerr13_1&#45;&gt;r13 -->
<g id="edge14" class="edge">
<title>initializerr13_1&#45;&gt;r13:w</title>
<path fill="none" stroke="blue" stroke-dasharray="1,5" d="M1295.15,-530.6C1293.67,-508.8 1294.35,-473.22 1313.07,-464.16"/>
<polygon fill="blue" stroke="blue" points="1313.97,-467.54 1323,-462 1312.49,-460.7 1313.97,-467.54"/>
<text text-anchor="middle" x="1298.5" y="-501.8" font-family="Times,serif" font-size="14.00">0</text>
</g>
<!-- r17 -->
<g id="node18" class="node">
<title>r17</title>
<g id="a_node18"><a xlink:href="file:///Users/andrew/workspace/flow/flowstdlib/data/append/append.html" xlink:title="append (#17)">
<ellipse fill="coral" stroke="black" cx="1770" cy="-194" rx="57.69" ry="18"/>
<text text-anchor="middle" x="1770" y="-190.3" font-family="Times,serif" font-size="14.00">append (#17)</text>
</a>
</g>
</g>
<!-- r15&#45;&gt;r17 -->
<g id="edge22" class="edge">
<title>r15:e&#45;&gt;r17:ne</title>
<path fill="none" stroke="black" d="M1841,-281C1849.01,-281 1843.34,-270.28 1840,-263 1827.91,-236.65 1813.76,-235.11 1794.6,-218.98"/>
<polygon fill="black" stroke="black" points="1796.73,-216.19 1787,-212 1792,-221.34 1796.73,-216.19"/>
<text text-anchor="middle" x="1780.5" y="-215.8" font-family="Times,serif" font-size="14.00">s2</text>
<text text-anchor="middle" x="1867" y="-284.8" font-family="Times,serif" font-size="14.00">/select_i1</text>
</g>
<!-- r16&#45;&gt;r17 -->
<g id="edge25" class="edge">
<title>r16:e&#45;&gt;r17:n</title>
<path fill="none" stroke="black" d="M1567,-107C1574.49,-107 1823.27,-170.06 1827.84,-176 1837.61,-188.68 1839.06,-200.59 1827.84,-212 1821.09,-218.88 1791.93,-223.23 1777.77,-219.56"/>
<polygon fill="black" stroke="black" points="1779.9,-216.77 1770,-213 1775.39,-222.12 1779.9,-216.77"/>
<text text-anchor="middle" x="1763.5" y="-216.8" font-family="Times,serif" font-size="14.00">s1</text>
<text text-anchor="middle" x="1593" y="-110.8" font-family="Times,serif" font-size="14.00">/select_i1</text>
</g>
<!-- initializerr15_0 -->
<!-- initializerr15_0&#45;&gt;r15 -->
<g id="edge20" class="edge">
<title>initializerr15_0&#45;&gt;r15:ne</title>
<path fill="none" stroke="blue" d="M1824.71,-350.31C1815.49,-338.17 1802.12,-321.34 1788.27,-306.53"/>
<polygon fill="blue" stroke="blue" points="1790.46,-303.76 1781,-299 1785.43,-308.63 1790.46,-303.76"/>
<text text-anchor="middle" x="1820" y="-320.8" font-family="Times,serif" font-size="14.00">&quot;A&quot;</text>
</g>
<!-- initializerr15_1 -->
<!-- initializerr15_1&#45;&gt;r15 -->
<g id="edge21" class="edge">
<title>initializerr15_1&#45;&gt;r15:w</title>
<path fill="none" stroke="blue" d="M1637.17,-350.01C1640.94,-327.79 1650.78,-290.71 1675,-282.6"/>
<polygon fill="blue" stroke="blue" points="1675.68,-286.04 1685,-281 1674.57,-279.12 1675.68,-286.04"/>
<text text-anchor="middle" x="1660.5" y="-320.8" font-family="Times,serif" font-size="14.00">&quot;BC&quot;</text>
</g>
<!-- r17&#45;&gt;r16 -->
<g id="edge29" class="edge">
<title>r17:e&#45;&gt;r16:n</title>
<path fill="none" stroke="black" d="M1829,-194C1866.75,-194 1927.79,-183.55 1735,-143 1711.31,-138.02 1536.27,-149.2 1498.27,-132.5"/>
<polygon fill="black" stroke="black" points="1500.47,-129.74 1491,-125 1495.45,-134.62 1500.47,-129.74"/>
<text text-anchor="middle" x="1485.5" y="-128.8" font-family="Times,serif" font-size="14.00">i1</text>
</g>
<!-- r17&#45;&gt;r0 -->
<g id="edge31" class="edge">
<title>r17:e&#45;&gt;r0:n</title>
<path fill="none" stroke="black" d="M1829,-194C1856.99,-194 1846.11,-163.83 1843.5,-135.06"/>
<polygon fill="black" stroke="black" points="1846.99,-134.81 1843,-125 1840,-135.16 1846.99,-134.81"/>
</g>
<!-- r6 -->
<g id="node23" class="node">
<title>r6</title>
<g id="a_node23"><a xlink:href="file:///Users/andrew/workspace/flow/flowstdlib/control/select/select.html" xlink:title="select_route (#6)">
<ellipse fill="coral" stroke="black" cx="1100" cy="-107" rx="70.39" ry="18"/>
<text text-anchor="middle" x="1100" y="-103.3" font-family="Times,serif" font-size="14.00">select_route (#6)</text>
</a>
</g>
</g>
<!-- r17&#45;&gt;r6 -->
<g id="edge30" class="edge">
<title>r17:e&#45;&gt;r6:ne</title>
<path fill="none" stroke="black" d="M1829,-194C1837.01,-194 1833.46,-181.87 1828,-176 1818.16,-165.42 1584.4,-144.21 1570,-143 1546.77,-141.06 1192.9,-142.52 1127.69,-128.55"/>
<polygon fill="black" stroke="black" points="1128.59,-125.16 1118,-125 1126.18,-131.73 1128.59,-125.16"/>
<text text-anchor="middle" x="1112.5" y="-128.8" font-family="Times,serif" font-size="14.00">i2</text>
</g>
<!-- initializerr16_0 -->
<!-- initializerr16_0&#45;&gt;r16 -->
<g id="edge23" class="edge">
<title>initializerr16_0&#45;&gt;r16:ne</title>
<path fill="none" stroke="blue" stroke-dasharray="1,5" d="M1559.13,-176.38C1547.72,-164.47 1531.7,-147.89 1516.42,-132.46"/>
<polygon fill="blue" stroke="blue" points="1518.53,-129.62 1509,-125 1513.57,-134.56 1518.53,-129.62"/>
<text text-anchor="middle" x="1545.5" y="-146.8" font-family="Times,serif" font-size="14.00">&quot;&quot;</text>
</g>
<!-- initializerr16_1 -->
<!-- initializerr16_1&#45;&gt;r16 -->
<g id="edge24" class="edge">
<title>initializerr16_1&#45;&gt;r16:w</title>
<path fill="none" stroke="blue" stroke-dasharray="1,5" d="M1310.73,-176.01C1328.16,-152.81 1363.36,-113.42 1404.9,-107.7"/>
<polygon fill="blue" stroke="blue" points="1405.27,-111.18 1415,-107 1404.78,-104.2 1405.27,-111.18"/>
<text text-anchor="middle" x="1344.5" y="-146.8" font-family="Times,serif" font-size="14.00">&quot;&quot;</text>
</g>
<!-- r5&#45;&gt;r9 -->
<g id="edge37" class="edge">
<title>r5:se&#45;&gt;r9:ne</title>
<path fill="none" stroke="black" d="M1115,-176C1141.6,-149.4 1067.95,-174.68 1030.36,-176 802.44,-184 746.41,-204 518.49,-212 503.81,-212.52 497,-216.69 485.71,-214.29"/>
<polygon fill="black" stroke="black" points="486.59,-210.89 476,-211 484.35,-217.52 486.59,-210.89"/>
<text text-anchor="middle" x="489" y="-214.8" font-family="Times,serif" font-size="14.00">right</text>
<text text-anchor="middle" x="1101" y="-164.8" font-family="Times,serif" font-size="14.00">/sum</text>
</g>
<!-- r5&#45;&gt;r7 -->
<g id="edge38" class="edge">
<title>r5:se&#45;&gt;r7:ne</title>
<path fill="none" stroke="black" d="M1114,-176C1158.59,-131.41 1038.43,-151.94 976,-143 938.88,-137.68 681.18,-151.36 624,-130.09"/>
<polygon fill="black" stroke="black" points="625.43,-126.87 615,-125 621.98,-132.97 625.43,-126.87"/>
<text text-anchor="middle" x="609.5" y="-128.8" font-family="Times,serif" font-size="14.00">i2</text>
<text text-anchor="middle" x="1128" y="-164.8" font-family="Times,serif" font-size="14.00">/sum</text>
</g>
<!-- r10 -->
<g id="node31" class="node">
<title>r10</title>
<g id="a_node31"><a xlink:href="file:///Users/andrew/workspace/flow/flowstdlib/data/append/append.html" xlink:title="append (#10)">
<ellipse fill="coral" stroke="black" cx="608" cy="-34" rx="57.69" ry="18"/>
<text text-anchor="middle" x="608" y="-30.3" font-family="Times,serif" font-size="14.00">append (#10)</text>
</a>
</g>
</g>
<!-- r6&#45;&gt;r10 -->
<g id="edge46" class="edge">
<title>r6:e&#45;&gt;r10:n</title>
<path fill="none" stroke="black" d="M1171,-107C1179.01,-107 1175.64,-94.69 1170,-89 1159.85,-78.75 690.8,-69.25 617.57,-55.57"/>
<polygon fill="black" stroke="black" points="618.59,-52.22 608,-52 616.15,-58.78 618.59,-52.22"/>
<text text-anchor="middle" x="601.5" y="-55.8" font-family="Times,serif" font-size="14.00">s1</text>
<text text-anchor="middle" x="1197" y="-110.8" font-family="Times,serif" font-size="14.00">/select_i1</text>
</g>
<!-- initializerr3_1 -->
<!-- initializerr3_1&#45;&gt;r3 -->
<g id="edge32" class="edge">
<title>initializerr3_1&#45;&gt;r3:w</title>
<path fill="none" stroke="blue" d="M426.13,-350.42C443.62,-329.04 474.83,-293.44 496.15,-283.59"/>
<polygon fill="blue" stroke="blue" points="497.22,-286.93 506,-281 495.44,-280.16 497.22,-286.93"/>
<text text-anchor="middle" x="456.5" y="-320.8" font-family="Times,serif" font-size="14.00">0</text>
</g>
<!-- initializerr4_1 -->
<!-- initializerr4_1&#45;&gt;r4 -->
<g id="edge34" class="edge">
<title>initializerr4_1&#45;&gt;r4:w</title>
<path fill="none" stroke="blue" stroke-dasharray="1,5" d="M224.18,-350.01C230.72,-327.59 245.52,-290.06 272.82,-282.39"/>
<polygon fill="blue" stroke="blue" points="273.57,-285.82 283,-281 272.62,-278.89 273.57,-285.82"/>
<text text-anchor="middle" x="239.5" y="-320.8" font-family="Times,serif" font-size="14.00">0</text>
</g>
<!-- r9&#45;&gt;r6 -->
<g id="edge40" class="edge">
<title>r9:se&#45;&gt;r6:nw</title>
<path fill="none" stroke="black" d="M477,-176C498.53,-154.47 718.67,-145.66 749,-143 783.32,-139.99 1019,-149.67 1073.02,-129.99"/>
<polygon fill="black" stroke="black" points="1074.96,-132.92 1082,-125 1071.56,-126.8 1074.96,-132.92"/>
<text text-anchor="middle" x="1062.5" y="-128.8" font-family="Times,serif" font-size="14.00">control</text>
<text text-anchor="middle" x="468" y="-164.8" font-family="Times,serif" font-size="14.00">/lte</text>
</g>
<!-- r9&#45;&gt;r7 -->
<g id="edge41" class="edge">
<title>r9:se&#45;&gt;r7:nw</title>
<path fill="none" stroke="black" d="M477,-176C510.32,-142.68 538.87,-158.21 571.52,-131.76"/>
<polygon fill="black" stroke="black" points="573.93,-134.3 579,-125 569.23,-129.11 573.93,-134.3"/>
<text text-anchor="middle" x="559.5" y="-128.8" font-family="Times,serif" font-size="14.00">control</text>
<text text-anchor="middle" x="486" y="-164.8" font-family="Times,serif" font-size="14.00">/lte</text>
</g>
<!-- r8 -->
<g id="node28" class="node">
<title>r8</title>
<g id="a_node28"><a xlink:href="file:///Users/andrew/workspace/flow/flowstdlib/control/select/select.html" xlink:title="select_string (#8)">
<ellipse fill="coral" stroke="black" cx="351" cy="-107" rx="72.29" ry="18"/>
<text text-anchor="middle" x="351" y="-103.3" font-family="Times,serif" font-size="14.00">select_string (#8)</text>
</a>
</g>
</g>
<!-- r9&#45;&gt;r8 -->
<g id="edge39" class="edge">
<title>r9:se&#45;&gt;r8:nw</title>
<path fill="none" stroke="black" d="M477,-176C499.35,-153.65 443.69,-153.86 414,-143 384.24,-132.12 326.55,-145.9 327.46,-133.45"/>
<polygon fill="black" stroke="black" points="330.45,-135.28 333,-125 324.59,-131.45 330.45,-135.28"/>
<text text-anchor="middle" x="313.5" y="-128.8" font-family="Times,serif" font-size="14.00">control</text>
<text text-anchor="middle" x="468" y="-179.8" font-family="Times,serif" font-size="14.00">/lte</text>
</g>
<!-- r7&#45;&gt;r4 -->
<g id="edge47" class="edge">
<title>r7:e&#45;&gt;r4:ne</title>
<path fill="none" stroke="black" d="M666,-107C723.87,-107 635.64,-177.74 589,-212 566.3,-228.67 496.42,-247.36 473,-263 453.76,-275.85 456.79,-290.19 435.39,-299 426.18,-302.79 401.84,-306.78 387.33,-304.03"/>
<polygon fill="black" stroke="black" points="388.57,-300.76 378,-300 385.79,-307.18 388.57,-300.76"/>
<text text-anchor="middle" x="372.5" y="-303.8" font-family="Times,serif" font-size="14.00">i2</text>
<text text-anchor="middle" x="692" y="-110.8" font-family="Times,serif" font-size="14.00">/select_i1</text>
</g>
<!-- r7&#45;&gt;r13 -->
<g id="edge48" class="edge">
<title>r7:e&#45;&gt;r13:ne</title>
<path fill="none" stroke="black" d="M666,-107C964.58,-107 977.33,-326.94 1262,-417 1283.54,-423.81 1448.67,-427 1463.54,-444 1474.08,-456.04 1474.75,-468.58 1463.54,-480 1457.4,-486.26 1435.2,-488.27 1421.49,-485.23"/>
<polygon fill="black" stroke="black" points="1422.56,-481.87 1412,-481 1419.71,-488.27 1422.56,-481.87"/>
<text text-anchor="middle" x="1406.5" y="-484.8" font-family="Times,serif" font-size="14.00">i2</text>
<text text-anchor="middle" x="692" y="-95.8" font-family="Times,serif" font-size="14.00">/select_i1</text>
</g>
<!-- r8&#45;&gt;r10 -->
<g id="edge44" class="edge">
<title>r8:e&#45;&gt;r10:ne</title>
<path fill="none" stroke="black" d="M424,-107C456.77,-107 461.58,-90.32 493,-81 546.54,-65.12 651.33,-90.41 631.67,-59.92"/>
<polygon fill="black" stroke="black" points="634.12,-57.39 625,-52 628.77,-61.9 634.12,-57.39"/>
<text text-anchor="middle" x="618.5" y="-55.8" font-family="Times,serif" font-size="14.00">s2</text>
<text text-anchor="middle" x="450" y="-110.8" font-family="Times,serif" font-size="14.00">/select_i1</text>
</g>
<!-- initializerr8_0 -->
<!-- initializerr8_0&#45;&gt;r8 -->
<g id="edge42" class="edge">
<title>initializerr8_0&#45;&gt;r8:ne</title>
<path fill="none" stroke="blue" d="M311.71,-181.16C344.12,-170.46 381.99,-153.36 374.71,-133.4"/>
<polygon fill="blue" stroke="blue" points="377.52,-131.3 369,-125 371.73,-135.24 377.52,-131.3"/>
<text text-anchor="middle" x="385" y="-146.8" font-family="Times,serif" font-size="14.00">&quot;B&quot;</text>
</g>
<!-- initializerr8_1 -->
<!-- initializerr8_1&#45;&gt;r8 -->
<g id="edge43" class="edge">
<title>initializerr8_1&#45;&gt;r8:w</title>
<path fill="none" stroke="blue" d="M97.43,-177.03C131.26,-153.37 200.13,-111.36 267.62,-107.32"/>
<polygon fill="blue" stroke="blue" points="268.11,-110.8 278,-107 267.9,-103.81 268.11,-110.8"/>
<text text-anchor="middle" x="160" y="-146.8" font-family="Times,serif" font-size="14.00">&quot;C&quot;</text>
</g>
<!-- r10&#45;&gt;r16 -->
<g id="edge50" class="edge">
<title>r10:e&#45;&gt;r16:ne</title>
<path fill="none" stroke="black" d="M667,-34C717.02,-34 1531.47,-52.56 1565.74,-89 1576.71,-100.65 1576.96,-113.59 1565.74,-125 1558.77,-132.1 1533.02,-134.17 1518.09,-130.35"/>
<polygon fill="black" stroke="black" points="1519.53,-127.16 1509,-126 1516.51,-133.47 1519.53,-127.16"/>
<text text-anchor="middle" x="1503.5" y="-129.8" font-family="Times,serif" font-size="14.00">i2</text>
</g>
<!-- r10&#45;&gt;r6 -->
<g id="edge49" class="edge">
<title>r10:e&#45;&gt;r6:n</title>
<path fill="none" stroke="black" d="M667,-34C739.12,-34 753.59,-60.86 825,-71 863.03,-76.4 1143.75,-61.14 1170.19,-89 1181.21,-100.6 1181.43,-113.61 1170.19,-125 1166.02,-129.23 1127.48,-132.12 1109.35,-129.81"/>
<polygon fill="black" stroke="black" points="1110.58,-126.54 1100,-126 1107.94,-133.02 1110.58,-126.54"/>
<text text-anchor="middle" x="1094.5" y="-129.8" font-family="Times,serif" font-size="14.00">i1</text>
</g>
<!-- initializerr6_0 -->
<!-- initializerr6_0&#45;&gt;r6 -->
<g id="edge45" class="edge">
<title>initializerr6_0&#45;&gt;r6:ne</title>
<path fill="none" stroke="blue" stroke-dasharray="1,5" d="M631.74,-351.55C676.48,-324.99 771.87,-269.74 856,-230 857.57,-229.26 1062.54,-148.72 1108.8,-129.21"/>
<polygon fill="blue" stroke="blue" points="1110.36,-132.34 1118,-125 1107.45,-125.98 1110.36,-132.34"/>
<text text-anchor="middle" x="862.5" y="-233.8" font-family="Times,serif" font-size="14.00">&quot;&quot;</text>
</g>
</g>
</svg>
