<?xml version="1.0" encoding="UTF-8" standalone="no"?>
<!DOCTYPE svg PUBLIC "-//W3C//DTD SVG 1.1//EN"
 "http://www.w3.org/Graphics/SVG/1.1/DTD/svg11.dtd">
<!-- Generated by graphviz version 2.40.1 (20161225.0304)
 -->
<!-- Title: router Pages: 1 -->
<svg width="2000pt" height="1081pt"
 viewBox="0.00 0.00 2000.00 1081.00" xmlns="http://www.w3.org/2000/svg" xmlns:xlink="http://www.w3.org/1999/xlink">
<g id="graph0" class="graph" transform="scale(1 1) rotate(0) translate(4 1077)">
<title>router</title>
<polygon fill="#ffffff" stroke="transparent" points="-4,4 -4,-1077 1996,-1077 1996,4 -4,4"/>
<text text-anchor="middle" x="996" y="-1057.8" font-family="Times,serif" font-size="14.00" fill="#000000">/router</text>
<g id="clust1" class="cluster">
<title>cluster_A_tracker</title>
<polygon fill="none" stroke="#000000" points="101,-81 101,-900 1111,-900 1111,-81 101,-81"/>
<text text-anchor="middle" x="606" y="-884.8" font-family="Times,serif" font-size="14.00" fill="#000000">/router/A_tracker</text>
</g>
<g id="clust2" class="cluster">
<title>cluster_B_tracker</title>
<polygon fill="none" stroke="#000000" points="1129,-8 1129,-681 1891,-681 1891,-8 1129,-8"/>
<text text-anchor="middle" x="1510" y="-665.8" font-family="Times,serif" font-size="14.00" fill="#000000">/router/B_tracker</text>
</g>
<!-- r17 -->
<g id="node1" class="node">
<title>r17</title>
<g id="a_node1"><a xlink:href="file:///home/travis/build/andrewdavidmackenzie/flow/flowr/src/lib/flowruntime/stdio/readline.html" xlink:title="readline (#17)">
<ellipse fill="#ff7f50" stroke="#000000" cx="84" cy="-1032" rx="77.9862" ry="18"/>
<text text-anchor="middle" x="84" y="-1028.3" font-family="Times,serif" font-size="14.00" fill="#000000">readline (#17)</text>
</a>
</g>
</g>
<!-- r18 -->
<g id="node2" class="node">
<title>r18</title>
<g id="a_node2"><a xlink:href="file:///home/travis/build/andrewdavidmackenzie/flow/flowstdlib/data/accumulate/accumulate.html" xlink:title="accumulate_triples (#18)">
<ellipse fill="#ff7f50" stroke="#000000" cx="316" cy="-945" rx="129.1772" ry="18"/>
<text text-anchor="middle" x="316" y="-941.3" font-family="Times,serif" font-size="14.00" fill="#000000">accumulate_triples (#18)</text>
</a>
</g>
</g>
<!-- r17&#45;&gt;r18 -->
<g id="edge1" class="edge">
<title>r17:e&#45;&gt;r18:n</title>
<path fill="none" stroke="#000000" d="M162,-1032C179.8885,-1032 181.7835,-1021.5514 198,-1014 208.9757,-1008.889 286.1296,-986.061 309.3828,-970.5249"/>
<polygon fill="#000000" stroke="#000000" points="312.0246,-972.8208 316,-963 306.768,-968.1982 312.0246,-972.8208"/>
<text text-anchor="middle" x="293" y="-966.8" font-family="Times,serif" font-size="14.00" fill="#000000">values</text>
<text text-anchor="middle" x="179" y="-1035.8" font-family="Times,serif" font-size="14.00" fill="#000000">/json</text>
</g>
<!-- r18&#45;&gt;r18 -->
<g id="edge4" class="edge">
<title>r18:e&#45;&gt;r18:ne</title>
<path fill="none" stroke="#000000" d="M446,-945C469.3385,-936 517.3385,-936 517.3385,-954 517.3385,-971.1211 412.1859,-971.9571 344.163,-964.2529"/>
<polygon fill="#000000" stroke="#000000" points="344.3531,-960.75 334,-963 343.4966,-967.6974 344.3531,-960.75"/>
<text text-anchor="middle" x="358" y="-966.8" font-family="Times,serif" font-size="14.00" fill="#000000">partial</text>
<text text-anchor="middle" x="472" y="-948.8" font-family="Times,serif" font-size="14.00" fill="#000000">/partial</text>
</g>
<!-- r12 -->
<g id="node5" class="node">
<title>r12</title>
<g id="a_node5"><a xlink:href="file:///home/travis/build/andrewdavidmackenzie/flow/flowstdlib/math/add/add.html" xlink:title="forward_sum (#12)">
<ellipse fill="#ff7f50" stroke="#000000" cx="643" cy="-726" rx="100.9827" ry="18"/>
<text text-anchor="middle" x="643" y="-722.3" font-family="Times,serif" font-size="14.00" fill="#000000">forward_sum (#12)</text>
</a>
</g>
</g>
<!-- r18&#45;&gt;r12 -->
<g id="edge5" class="edge">
<title>r18:s&#45;&gt;r12:n</title>
<path fill="none" stroke="#000000" d="M316,-927C316,-821.0683 389.1943,-800.1964 488,-762 516.8057,-750.8643 617.2493,-772.7916 638.8767,-753.2245"/>
<polygon fill="#000000" stroke="#000000" points="642.1144,-754.5578 643,-744 635.7238,-751.7011 642.1144,-754.5578"/>
<text text-anchor="middle" x="636" y="-747.8" font-family="Times,serif" font-size="14.00" fill="#000000">i1</text>
<text text-anchor="middle" x="284.5" y="-915.8" font-family="Times,serif" font-size="14.00" fill="#000000">/chunk/0</text>
</g>
<!-- r10 -->
<g id="node6" class="node">
<title>r10</title>
<g id="a_node6"><a xlink:href="file:///home/travis/build/andrewdavidmackenzie/flow/flowstdlib/math/add/add.html" xlink:title="cross_distance (#10)">
<ellipse fill="#ff7f50" stroke="#000000" cx="770" cy="-851" rx="109.381" ry="18"/>
<text text-anchor="middle" x="770" y="-847.3" font-family="Times,serif" font-size="14.00" fill="#000000">cross_distance (#10)</text>
</a>
</g>
</g>
<!-- r18&#45;&gt;r10 -->
<g id="edge6" class="edge">
<title>r18:sw&#45;&gt;r10:ne</title>
<path fill="none" stroke="#000000" d="M298,-927C272.221,-901.221 588.8753,-904.9109 625,-900 694.2175,-890.5904 825.3517,-917.9805 794.6677,-876.5733"/>
<polygon fill="#000000" stroke="#000000" points="797.235,-874.1928 788,-869 791.9811,-878.8184 797.235,-874.1928"/>
<text text-anchor="middle" x="781" y="-872.8" font-family="Times,serif" font-size="14.00" fill="#000000">i2</text>
<text text-anchor="middle" x="329.5" y="-915.8" font-family="Times,serif" font-size="14.00" fill="#000000">/chunk/1</text>
</g>
<!-- r18&#45;&gt;r10 -->
<g id="edge7" class="edge">
<title>r18:se&#45;&gt;r10:n</title>
<path fill="none" stroke="#000000" d="M334,-927C400.5495,-860.4505 743.1803,-958.9083 768.5182,-879.0476"/>
<polygon fill="#000000" stroke="#000000" points="772.0035,-879.4037 770,-869 765.0784,-878.3823 772.0035,-879.4037"/>
<text text-anchor="middle" x="763" y="-872.8" font-family="Times,serif" font-size="14.00" fill="#000000">i1</text>
<text text-anchor="middle" x="365.5" y="-915.8" font-family="Times,serif" font-size="14.00" fill="#000000">/chunk/2</text>
</g>
<!-- r1 -->
<g id="node7" class="node">
<title>r1</title>
<g id="a_node7"><a xlink:href="file:///home/travis/build/andrewdavidmackenzie/flow/flowstdlib/math/add/add.html" xlink:title="forward_sum (#1)">
<ellipse fill="#ff7f50" stroke="#000000" cx="1772" cy="-486" rx="94.7833" ry="18"/>
<text text-anchor="middle" x="1772" y="-482.3" font-family="Times,serif" font-size="14.00" fill="#000000">forward_sum (#1)</text>
</a>
</g>
</g>
<!-- r18&#45;&gt;r1 -->
<g id="edge8" class="edge">
<title>r18:sw&#45;&gt;r1:n</title>
<path fill="none" stroke="#000000" d="M298,-927C263.9507,-892.9507 128.5686,-915.5633 83,-900 42.4615,-886.1546 0,-893.8376 0,-851 0,-851 0,-851 0,-595.5 0,-551.3694 40.8596,-554.1031 83,-541 104.3993,-534.3461 1625.5849,-528.055 1762.2107,-507.0614"/>
<polygon fill="#000000" stroke="#000000" points="1763.5005,-510.3253 1772,-504 1761.4111,-503.6444 1763.5005,-510.3253"/>
<text text-anchor="middle" x="1765" y="-507.8" font-family="Times,serif" font-size="14.00" fill="#000000">i1</text>
<text text-anchor="middle" x="266.5" y="-915.8" font-family="Times,serif" font-size="14.00" fill="#000000">/chunk/1</text>
</g>
<!-- r0 -->
<g id="node8" class="node">
<title>r0</title>
<g id="a_node8"><a xlink:href="file:///home/travis/build/andrewdavidmackenzie/flow/flowstdlib/math/add/add.html" xlink:title="cross_distance (#0)">
<ellipse fill="#ff7f50" stroke="#000000" cx="1502" cy="-486" rx="103.1819" ry="18"/>
<text text-anchor="middle" x="1502" y="-482.3" font-family="Times,serif" font-size="14.00" fill="#000000">cross_distance (#0)</text>
</a>
</g>
</g>
<!-- r18&#45;&gt;r0 -->
<g id="edge9" class="edge">
<title>r18:se&#45;&gt;r0:n</title>
<path fill="none" stroke="#000000" d="M334,-927C341.8121,-919.1879 1117.9633,-900.5007 1129,-900 1320.8893,-891.295 1992,-1043.0867 1992,-851 1992,-851 1992,-851 1992,-595.5 1992,-569.9166 1573.8054,-537.1457 1510.096,-510.4674"/>
<polygon fill="#000000" stroke="#000000" points="1511.9977,-507.5068 1502,-504 1507.6287,-512.976 1511.9977,-507.5068"/>
<text text-anchor="middle" x="1495" y="-507.8" font-family="Times,serif" font-size="14.00" fill="#000000">i1</text>
<text text-anchor="middle" x="302.5" y="-930.8" font-family="Times,serif" font-size="14.00" fill="#000000">/chunk/2</text>
</g>
<!-- initializerr18_1 -->
<!-- initializerr18_1&#45;&gt;r18 -->
<g id="edge2" class="edge">
<title>initializerr18_1&#45;&gt;r18:n</title>
<path fill="none" stroke="#0000ff" stroke-dasharray="1,5" d="M316,-1013.8403C316,-1002.6435 316,-987.7161 316,-973.324"/>
<polygon fill="#0000ff" stroke="#0000ff" points="319.5001,-973 316,-963 312.5001,-973 319.5001,-973"/>
<text text-anchor="middle" x="321.5" y="-984.8" font-family="Times,serif" font-size="14.00" fill="#000000">[]</text>
</g>
<!-- initializerr18_2 -->
<!-- initializerr18_2&#45;&gt;r18 -->
<g id="edge3" class="edge">
<title>initializerr18_2&#45;&gt;r18:n</title>
<path fill="none" stroke="#0000ff" d="M496.6685,-1018.6005C438.3581,-1004.1531 351.2858,-981.5507 324.2847,-969.0529"/>
<polygon fill="#0000ff" stroke="#0000ff" points="326.1393,-966.0733 316,-963 322.0098,-971.7254 326.1393,-966.0733"/>
<text text-anchor="middle" x="410" y="-984.8" font-family="Times,serif" font-size="14.00" fill="#000000">3</text>
</g>
<!-- r14 -->
<g id="node11" class="node">
<title>r14</title>
<g id="a_node11"><a xlink:href="file:///home/travis/build/andrewdavidmackenzie/flow/flowstdlib/math/compare/compare.html" xlink:title="compare (#14)">
<ellipse fill="#ff7f50" stroke="#000000" cx="661" cy="-559" rx="80.6858" ry="18"/>
<text text-anchor="middle" x="661" y="-555.3" font-family="Times,serif" font-size="14.00" fill="#000000">compare (#14)</text>
</a>
</g>
</g>
<!-- r12&#45;&gt;r14 -->
<g id="edge12" class="edge">
<title>r12:se&#45;&gt;r14:n</title>
<path fill="none" stroke="#000000" d="M661,-708C699.6767,-669.3233 665.6835,-639.0849 661.4254,-587.2909"/>
<polygon fill="#000000" stroke="#000000" points="664.9101,-586.8469 661,-577 657.9161,-587.136 664.9101,-586.8469"/>
<text text-anchor="middle" x="648.5" y="-580.8" font-family="Times,serif" font-size="14.00" fill="#000000">left</text>
<text text-anchor="middle" x="643.5" y="-696.8" font-family="Times,serif" font-size="14.00" fill="#000000">/sum</text>
</g>
<!-- r13 -->
<g id="node12" class="node">
<title>r13</title>
<g id="a_node12"><a xlink:href="file:///home/travis/build/andrewdavidmackenzie/flow/flowstdlib/control/select/select.html" xlink:title="select_total (#13)">
<ellipse fill="#ff7f50" stroke="#000000" cx="749" cy="-413" rx="94.4839" ry="18"/>
<text text-anchor="middle" x="749" y="-409.3" font-family="Times,serif" font-size="14.00" fill="#000000">select_total (#13)</text>
</a>
</g>
</g>
<!-- r12&#45;&gt;r13 -->
<g id="edge13" class="edge">
<title>r12:se&#45;&gt;r13:n</title>
<path fill="none" stroke="#000000" d="M661,-708C672.5384,-696.4616 680.7229,-700.7491 693,-690 740.2827,-648.6022 758.0847,-636.6055 778,-577 789.942,-541.2583 758.1975,-471.4921 750.5934,-440.928"/>
<polygon fill="#000000" stroke="#000000" points="754.0406,-440.319 749,-431 747.129,-441.4283 754.0406,-440.319"/>
<text text-anchor="middle" x="742" y="-434.8" font-family="Times,serif" font-size="14.00" fill="#000000">i1</text>
<text text-anchor="middle" x="678.5" y="-696.8" font-family="Times,serif" font-size="14.00" fill="#000000">/sum</text>
</g>
<!-- r8 -->
<g id="node9" class="node">
<title>r8</title>
<g id="a_node9"><a xlink:href="file:///home/travis/build/andrewdavidmackenzie/flow/flowstdlib/math/add/add.html" xlink:title="cross_sum (#8)">
<ellipse fill="#ff7f50" stroke="#000000" cx="945" cy="-726" rx="83.3857" ry="18"/>
<text text-anchor="middle" x="945" y="-722.3" font-family="Times,serif" font-size="14.00" fill="#000000">cross_sum (#8)</text>
</a>
</g>
</g>
<!-- r10&#45;&gt;r8 -->
<g id="edge10" class="edge">
<title>r10:se&#45;&gt;r8:n</title>
<path fill="none" stroke="#000000" d="M788,-833C836.8586,-784.1414 893.2994,-847.8245 939,-796 951.9829,-781.2774 947.3286,-770.9419 945.5572,-754.0971"/>
<polygon fill="#000000" stroke="#000000" points="949.0458,-753.7919 945,-744 942.0564,-754.1777 949.0458,-753.7919"/>
<text text-anchor="middle" x="938" y="-747.8" font-family="Times,serif" font-size="14.00" fill="#000000">i1</text>
<text text-anchor="middle" x="770.5" y="-821.8" font-family="Times,serif" font-size="14.00" fill="#000000">/sum</text>
</g>
<!-- r3 -->
<g id="node26" class="node">
<title>r3</title>
<g id="a_node26"><a xlink:href="file:///home/travis/build/andrewdavidmackenzie/flow/flowstdlib/math/compare/compare.html" xlink:title="compare (#3)">
<ellipse fill="#ff7f50" stroke="#000000" cx="1212" cy="-326" rx="74.9875" ry="18"/>
<text text-anchor="middle" x="1212" y="-322.3" font-family="Times,serif" font-size="14.00" fill="#000000">compare (#3)</text>
</a>
</g>
</g>
<!-- r1&#45;&gt;r3 -->
<g id="edge35" class="edge">
<title>r1:se&#45;&gt;r3:n</title>
<path fill="none" stroke="#000000" d="M1790,-468C1834.1774,-423.8226 1271.3815,-410.9252 1216.3156,-353.247"/>
<polygon fill="#000000" stroke="#000000" points="1219.4008,-351.5815 1212,-344 1213.0576,-354.5419 1219.4008,-351.5815"/>
<text text-anchor="middle" x="1199.5" y="-347.8" font-family="Times,serif" font-size="14.00" fill="#000000">left</text>
<text text-anchor="middle" x="1772.5" y="-456.8" font-family="Times,serif" font-size="14.00" fill="#000000">/sum</text>
</g>
<!-- r6 -->
<g id="node27" class="node">
<title>r6</title>
<g id="a_node27"><a xlink:href="file:///home/travis/build/andrewdavidmackenzie/flow/flowstdlib/control/select/select.html" xlink:title="select_total (#6)">
<ellipse fill="#ff7f50" stroke="#000000" cx="1793" cy="-180" rx="88.2844" ry="18"/>
<text text-anchor="middle" x="1793" y="-176.3" font-family="Times,serif" font-size="14.00" fill="#000000">select_total (#6)</text>
</a>
</g>
</g>
<!-- r1&#45;&gt;r6 -->
<g id="edge36" class="edge">
<title>r1:se&#45;&gt;r6:n</title>
<path fill="none" stroke="#000000" d="M1790,-468C1808.187,-449.813 1808,-438.7202 1808,-413 1808,-413 1808,-413 1808,-253 1808,-231.4238 1797.1226,-225.0843 1793.8934,-208.0315"/>
<polygon fill="#000000" stroke="#000000" points="1797.3734,-207.6501 1793,-198 1790.401,-208.2711 1797.3734,-207.6501"/>
<text text-anchor="middle" x="1786" y="-201.8" font-family="Times,serif" font-size="14.00" fill="#000000">i1</text>
<text text-anchor="middle" x="1807.5" y="-456.8" font-family="Times,serif" font-size="14.00" fill="#000000">/sum</text>
</g>
<!-- r4 -->
<g id="node21" class="node">
<title>r4</title>
<g id="a_node21"><a xlink:href="file:///home/travis/build/andrewdavidmackenzie/flow/flowstdlib/math/add/add.html" xlink:title="cross_sum (#4)">
<ellipse fill="#ff7f50" stroke="#000000" cx="1020" cy="-253" rx="83.3857" ry="18"/>
<text text-anchor="middle" x="1020" y="-249.3" font-family="Times,serif" font-size="14.00" fill="#000000">cross_sum (#4)</text>
</a>
</g>
</g>
<!-- r0&#45;&gt;r4 -->
<g id="edge33" class="edge">
<title>r0:se&#45;&gt;r4:n</title>
<path fill="none" stroke="#000000" d="M1520,-468C1573.4489,-414.5511 1426.7427,-451.5444 1354,-431 1199.0013,-387.2244 1027.5373,-433.5217 1020.2412,-281.3157"/>
<polygon fill="#000000" stroke="#000000" points="1023.7329,-280.9154 1020,-271 1016.7348,-281.0791 1023.7329,-280.9154"/>
<text text-anchor="middle" x="1013" y="-274.8" font-family="Times,serif" font-size="14.00" fill="#000000">i1</text>
<text text-anchor="middle" x="1502.5" y="-456.8" font-family="Times,serif" font-size="14.00" fill="#000000">/sum</text>
</g>
<!-- r8&#45;&gt;r14 -->
<g id="edge15" class="edge">
<title>r8:se&#45;&gt;r14:ne</title>
<path fill="none" stroke="#000000" d="M963,-708C974.2304,-696.7696 737.9106,-606.8832 687.8271,-582.1338"/>
<polygon fill="#000000" stroke="#000000" points="689.404,-579.0021 679,-577 685.8847,-585.0531 689.404,-579.0021"/>
<text text-anchor="middle" x="697" y="-580.8" font-family="Times,serif" font-size="14.00" fill="#000000">right</text>
<text text-anchor="middle" x="945.5" y="-696.8" font-family="Times,serif" font-size="14.00" fill="#000000">/sum</text>
</g>
<!-- r8&#45;&gt;r13 -->
<g id="edge16" class="edge">
<title>r8:se&#45;&gt;r13:ne</title>
<path fill="none" stroke="#000000" d="M963,-708C973.4548,-697.5452 1118.4221,-783.2399 774.178,-438.1864"/>
<polygon fill="#000000" stroke="#000000" points="776.5433,-435.6018 767,-431 771.5906,-440.5487 776.5433,-435.6018"/>
<text text-anchor="middle" x="760" y="-434.8" font-family="Times,serif" font-size="14.00" fill="#000000">i2</text>
<text text-anchor="middle" x="980.5" y="-696.8" font-family="Times,serif" font-size="14.00" fill="#000000">/sum</text>
</g>
<!-- initializerr12_1 -->
<!-- initializerr12_1&#45;&gt;r12 -->
<g id="edge11" class="edge">
<title>initializerr12_1&#45;&gt;r12:w</title>
<path fill="none" stroke="#0000ff" stroke-dasharray="1,5" d="M504.5002,-832.8239C501.0597,-801.1348 498.6178,-738.1249 531.6988,-727.5291"/>
<polygon fill="#0000ff" stroke="#0000ff" points="532.6223,-730.9304 542,-726 531.5945,-724.0063 532.6223,-730.9304"/>
<text text-anchor="middle" x="508" y="-784.8" font-family="Times,serif" font-size="14.00" fill="#000000">0</text>
</g>
<!-- r14&#45;&gt;r13 -->
<g id="edge19" class="edge">
<title>r14:se&#45;&gt;r13:nw</title>
<path fill="none" stroke="#000000" d="M679,-541C714.6985,-505.3015 695.7364,-473.711 724.1753,-438.5581"/>
<polygon fill="#000000" stroke="#000000" points="726.8958,-440.7676 731,-431 721.7004,-436.0763 726.8958,-440.7676"/>
<text text-anchor="middle" x="705" y="-434.8" font-family="Times,serif" font-size="14.00" fill="#000000">control</text>
<text text-anchor="middle" x="667" y="-529.8" font-family="Times,serif" font-size="14.00" fill="#000000">/lte</text>
</g>
<!-- r15 -->
<g id="node14" class="node">
<title>r15</title>
<g id="a_node14"><a xlink:href="file:///home/travis/build/andrewdavidmackenzie/flow/flowstdlib/control/select/select.html" xlink:title="select_string (#15)">
<ellipse fill="#ff7f50" stroke="#000000" cx="313" cy="-413" rx="100.9827" ry="18"/>
<text text-anchor="middle" x="313" y="-409.3" font-family="Times,serif" font-size="14.00" fill="#000000">select_string (#15)</text>
</a>
</g>
</g>
<!-- r14&#45;&gt;r15 -->
<g id="edge17" class="edge">
<title>r14:se&#45;&gt;r15:nw</title>
<path fill="none" stroke="#000000" d="M679,-541C705.0811,-514.9189 548.6153,-535.7369 514,-523 473.1621,-507.9734 472.5674,-486.1095 433,-468 379.0949,-443.3283 266.4247,-471.6098 288.2352,-438.938"/>
<polygon fill="#000000" stroke="#000000" points="291.1776,-440.8813 295,-431 285.8498,-436.3409 291.1776,-440.8813"/>
<text text-anchor="middle" x="269" y="-434.8" font-family="Times,serif" font-size="14.00" fill="#000000">control</text>
<text text-anchor="middle" x="691" y="-529.8" font-family="Times,serif" font-size="14.00" fill="#000000">/lte</text>
</g>
<!-- r11 -->
<g id="node15" class="node">
<title>r11</title>
<g id="a_node15"><a xlink:href="file:///home/travis/build/andrewdavidmackenzie/flow/flowstdlib/control/select/select.html" xlink:title="select_route (#11)">
<ellipse fill="#ff7f50" stroke="#000000" cx="462" cy="-107" rx="97.4827" ry="18"/>
<text text-anchor="middle" x="462" y="-103.3" font-family="Times,serif" font-size="14.00" fill="#000000">select_route (#11)</text>
</a>
</g>
</g>
<!-- r14&#45;&gt;r11 -->
<g id="edge18" class="edge">
<title>r14:se&#45;&gt;r11:nw</title>
<path fill="none" stroke="#000000" d="M679,-541C695.568,-524.432 365.2279,-292.0805 355,-271 333.8496,-227.4074 325.95,-202.1989 353,-162 375.3748,-128.7489 407.3386,-151.381 436.313,-131.4369"/>
<polygon fill="#000000" stroke="#000000" points="438.5801,-134.1036 444,-125 434.086,-128.7367 438.5801,-134.1036"/>
<text text-anchor="middle" x="418" y="-128.8" font-family="Times,serif" font-size="14.00" fill="#000000">control</text>
<text text-anchor="middle" x="667" y="-544.8" font-family="Times,serif" font-size="14.00" fill="#000000">/lte</text>
</g>
<!-- r13&#45;&gt;r12 -->
<g id="edge26" class="edge">
<title>r13:e&#45;&gt;r12:ne</title>
<path fill="none" stroke="#000000" d="M844,-413C920.8558,-413 805.9184,-698.8249 743.7411,-744 731.1901,-753.119 690.1703,-756.1056 669.8483,-749.0066"/>
<polygon fill="#000000" stroke="#000000" points="671.427,-745.8785 661,-744 667.9797,-751.9708 671.427,-745.8785"/>
<text text-anchor="middle" x="654" y="-747.8" font-family="Times,serif" font-size="14.00" fill="#000000">i2</text>
<text text-anchor="middle" x="878.5" y="-416.8" font-family="Times,serif" font-size="14.00" fill="#000000">/select_i1</text>
</g>
<!-- r13&#45;&gt;r4 -->
<g id="edge27" class="edge">
<title>r13:e&#45;&gt;r4:ne</title>
<path fill="none" stroke="#000000" d="M844,-413C923.5258,-413 903.903,-328.3694 973,-289 992.3304,-277.9861 1030.4478,-285.0816 1040.1516,-280.8067"/>
<polygon fill="#000000" stroke="#000000" points="1043.5618,-280.0176 1038,-271 1036.7244,-281.5178 1043.5618,-280.0176"/>
<text text-anchor="middle" x="1031" y="-274.8" font-family="Times,serif" font-size="14.00" fill="#000000">i2</text>
<text text-anchor="middle" x="878.5" y="-401.8" font-family="Times,serif" font-size="14.00" fill="#000000">/select_i1</text>
</g>
<!-- r16 -->
<g id="node22" class="node">
<title>r16</title>
<g id="a_node22"><a xlink:href="file:///home/travis/build/andrewdavidmackenzie/flow/flowr/src/lib/flowruntime/stdio/stdout.html" xlink:title="print (#16)">
<ellipse fill="#ff7f50" stroke="#000000" cx="827" cy="-107" rx="63.0888" ry="18"/>
<text text-anchor="middle" x="827" y="-103.3" font-family="Times,serif" font-size="14.00" fill="#000000">print (#16)</text>
</a>
</g>
</g>
<!-- r13&#45;&gt;r16 -->
<g id="edge28" class="edge">
<title>r13:e&#45;&gt;r16:n</title>
<path fill="none" stroke="#000000" d="M844,-413C849.3395,-413 917.5833,-338.0034 843,-143 840.8492,-137.3765 836.0555,-135.7708 832.2728,-133.5372"/>
<polygon fill="#000000" stroke="#000000" points="835.2327,-131.6689 827,-125 829.277,-135.3473 835.2327,-131.6689"/>
<text text-anchor="middle" x="809.5" y="-416.8" font-family="Times,serif" font-size="14.00" fill="#000000">/select_i1</text>
</g>
<!-- initializerr8_1 -->
<!-- initializerr8_1&#45;&gt;r8 -->
<g id="edge14" class="edge">
<title>initializerr8_1&#45;&gt;r8:w</title>
<path fill="none" stroke="#0000ff" stroke-dasharray="1,5" d="M994.2986,-834.6584C931.6937,-802.6948 805.0119,-734.3395 850.8302,-726.6987"/>
<polygon fill="#0000ff" stroke="#0000ff" points="851.2634,-730.1772 861,-726 850.7836,-723.1937 851.2634,-730.1772"/>
<text text-anchor="middle" x="925" y="-784.8" font-family="Times,serif" font-size="14.00" fill="#000000">0</text>
</g>
<!-- r9 -->
<g id="node18" class="node">
<title>r9</title>
<g id="a_node18"><a xlink:href="file:///home/travis/build/andrewdavidmackenzie/flow/flowstdlib/data/append/append.html" xlink:title="append (#9)">
<ellipse fill="#ff7f50" stroke="#000000" cx="177" cy="-253" rx="68.4888" ry="18"/>
<text text-anchor="middle" x="177" y="-249.3" font-family="Times,serif" font-size="14.00" fill="#000000">append (#9)</text>
</a>
</g>
</g>
<!-- r15&#45;&gt;r9 -->
<g id="edge22" class="edge">
<title>r15:e&#45;&gt;r9:ne</title>
<path fill="none" stroke="#000000" d="M414,-413C422,-413 418.0239,-401.9144 414,-395 359.2026,-300.8402 278.7381,-346.4333 201.4669,-277.0791"/>
<polygon fill="#000000" stroke="#000000" points="203.6651,-274.3401 194,-270 198.849,-279.4201 203.6651,-274.3401"/>
<text text-anchor="middle" x="185.5" y="-273.8" font-family="Times,serif" font-size="14.00" fill="#000000">s2</text>
<text text-anchor="middle" x="448.5" y="-416.8" font-family="Times,serif" font-size="14.00" fill="#000000">/select_i1</text>
</g>
<!-- r11&#45;&gt;r9 -->
<g id="edge25" class="edge">
<title>r11:e&#45;&gt;r9:n</title>
<path fill="none" stroke="#000000" d="M560,-107C627.6447,-107 498.8922,-168.5392 438,-198 396.7686,-217.9485 290.2992,-262.7542 245.2439,-271 233.8227,-273.0903 199.8869,-280.8694 184.6069,-277.595"/>
<polygon fill="#000000" stroke="#000000" points="186.8485,-274.9062 177,-271 182.263,-280.1952 186.8485,-274.9062"/>
<text text-anchor="middle" x="168.5" y="-274.8" font-family="Times,serif" font-size="14.00" fill="#000000">s1</text>
<text text-anchor="middle" x="594.5" y="-110.8" font-family="Times,serif" font-size="14.00" fill="#000000">/select_i1</text>
</g>
<!-- initializerr15_0 -->
<!-- initializerr15_0&#45;&gt;r15 -->
<g id="edge20" class="edge">
<title>initializerr15_0&#45;&gt;r15:ne</title>
<path fill="none" stroke="#0000ff" d="M415.7118,-540.7683C400.1895,-516.4594 370.4601,-472.5104 337.9707,-438.1712"/>
<polygon fill="#0000ff" stroke="#0000ff" points="340.4798,-435.7311 331,-431 335.4604,-440.6102 340.4798,-435.7311"/>
<text text-anchor="middle" x="402.5" y="-482.3" font-family="Times,serif" font-size="14.00" fill="#000000">&quot;A&quot;</text>
</g>
<!-- initializerr15_1 -->
<!-- initializerr15_1&#45;&gt;r15 -->
<g id="edge21" class="edge">
<title>initializerr15_1&#45;&gt;r15:w</title>
<path fill="none" stroke="#0000ff" d="M186.1517,-540.8042C177.3978,-504.5711 163.22,-425.8886 201.7001,-414.4087"/>
<polygon fill="#0000ff" stroke="#0000ff" points="202.5666,-417.8229 212,-413 201.6179,-410.8875 202.5666,-417.8229"/>
<text text-anchor="middle" x="196" y="-482.3" font-family="Times,serif" font-size="14.00" fill="#000000">&quot;BC&quot;</text>
</g>
<!-- r9&#45;&gt;r11 -->
<g id="edge29" class="edge">
<title>r9:e&#45;&gt;r11:n</title>
<path fill="none" stroke="#000000" d="M246,-253C308.4282,-253 298.7001,-192.8027 353,-162 394.1957,-138.6309 452.5357,-170.6668 460.9686,-134.9579"/>
<polygon fill="#000000" stroke="#000000" points="464.4511,-135.3074 462,-125 457.4883,-134.5862 464.4511,-135.3074"/>
<text text-anchor="middle" x="455" y="-128.8" font-family="Times,serif" font-size="14.00" fill="#000000">i1</text>
</g>
<!-- r9&#45;&gt;r16 -->
<g id="edge31" class="edge">
<title>r9:e&#45;&gt;r16:n</title>
<path fill="none" stroke="#000000" d="M246,-253C295.1006,-253 306.3617,-241.7215 355,-235 502.0713,-214.6756 544.9797,-241.2817 687,-198 750.7163,-178.582 819.6135,-193.4807 826.4465,-135.0276"/>
<polygon fill="#000000" stroke="#000000" points="829.9435,-135.1777 827,-125 822.9541,-134.7919 829.9435,-135.1777"/>
</g>
<!-- r5 -->
<g id="node23" class="node">
<title>r5</title>
<g id="a_node23"><a xlink:href="file:///home/travis/build/andrewdavidmackenzie/flow/flowstdlib/control/select/select.html" xlink:title="select_route (#5)">
<ellipse fill="#ff7f50" stroke="#000000" cx="201" cy="-107" rx="91.784" ry="18"/>
<text text-anchor="middle" x="201" y="-103.3" font-family="Times,serif" font-size="14.00" fill="#000000">select_route (#5)</text>
</a>
</g>
</g>
<!-- r9&#45;&gt;r5 -->
<g id="edge30" class="edge">
<title>r9:e&#45;&gt;r5:ne</title>
<path fill="none" stroke="#000000" d="M246,-253C254,-253 247.3451,-242.8861 246,-235 243.0694,-217.8182 237.5428,-214.8275 233,-198 225.3651,-169.7191 238.6295,-152.562 225.4463,-132.7513"/>
<polygon fill="#000000" stroke="#000000" points="228.0852,-130.4507 219,-125 222.7032,-134.9266 228.0852,-130.4507"/>
<text text-anchor="middle" x="212" y="-128.8" font-family="Times,serif" font-size="14.00" fill="#000000">i2</text>
</g>
<!-- initializerr11_0 -->
<!-- initializerr11_0&#45;&gt;r11 -->
<g id="edge23" class="edge">
<title>initializerr11_0&#45;&gt;r11:ne</title>
<path fill="none" stroke="#0000ff" stroke-dasharray="1,5" d="M693.4755,-235.2928C670.6101,-210.4358 625.3314,-165.7009 577,-143 540.7233,-125.9611 515.6251,-150.9369 487.9008,-131.677"/>
<polygon fill="#0000ff" stroke="#0000ff" points="489.897,-128.7815 480,-125 485.3787,-134.128 489.897,-128.7815"/>
<text text-anchor="middle" x="662" y="-176.3" font-family="Times,serif" font-size="14.00" fill="#000000">&quot;&quot;</text>
</g>
<!-- initializerr11_1 -->
<!-- initializerr11_1&#45;&gt;r11 -->
<g id="edge24" class="edge">
<title>initializerr11_1&#45;&gt;r11:w</title>
<path fill="none" stroke="#0000ff" stroke-dasharray="1,5" d="M450.9094,-235.389C406.3336,-198.9844 313.21,-117.9965 354.002,-108.0153"/>
<polygon fill="#0000ff" stroke="#0000ff" points="354.4048,-111.4924 364,-107 353.6975,-104.5283 354.4048,-111.4924"/>
<text text-anchor="middle" x="413" y="-176.3" font-family="Times,serif" font-size="14.00" fill="#000000">&quot;&quot;</text>
</g>
<!-- r4&#45;&gt;r3 -->
<g id="edge37" class="edge">
<title>r4:se&#45;&gt;r3:ne</title>
<path fill="none" stroke="#000000" d="M1038,-235C1048.244,-224.756 1091.7962,-226.0556 1103.1926,-235 1116.1502,-245.1697 1101.1336,-258.6208 1112,-271 1127.4089,-288.5541 1138.4038,-284.0845 1161,-290 1188.3076,-297.1489 1268.2515,-286.6725 1286.7434,-308 1286.7434,-308 1254.8252,-328.25 1238.8662,-338.375"/>
<polygon fill="#000000" stroke="#000000" points="1236.569,-335.6874 1230,-344 1240.319,-341.5982 1236.569,-335.6874"/>
<text text-anchor="middle" x="1248" y="-347.8" font-family="Times,serif" font-size="14.00" fill="#000000">right</text>
<text text-anchor="middle" x="1020.5" y="-223.8" font-family="Times,serif" font-size="14.00" fill="#000000">/sum</text>
</g>
<!-- r4&#45;&gt;r6 -->
<g id="edge38" class="edge">
<title>r4:se&#45;&gt;r6:ne</title>
<path fill="none" stroke="#000000" d="M1038,-235C1065.9072,-207.0928 1719.5778,-224.8608 1803.1163,-204.4471"/>
<polygon fill="#000000" stroke="#000000" points="1805.4746,-207.04 1811,-198 1801.0432,-201.6212 1805.4746,-207.04"/>
<text text-anchor="middle" x="1804" y="-201.8" font-family="Times,serif" font-size="14.00" fill="#000000">i2</text>
<text text-anchor="middle" x="1055.5" y="-223.8" font-family="Times,serif" font-size="14.00" fill="#000000">/sum</text>
</g>
<!-- r7 -->
<g id="node31" class="node">
<title>r7</title>
<g id="a_node31"><a xlink:href="file:///home/travis/build/andrewdavidmackenzie/flow/flowstdlib/data/append/append.html" xlink:title="append (#7)">
<ellipse fill="#ff7f50" stroke="#000000" cx="1205" cy="-34" rx="68.4888" ry="18"/>
<text text-anchor="middle" x="1205" y="-30.3" font-family="Times,serif" font-size="14.00" fill="#000000">append (#7)</text>
</a>
</g>
</g>
<!-- r5&#45;&gt;r7 -->
<g id="edge46" class="edge">
<title>r5:e&#45;&gt;r7:n</title>
<path fill="none" stroke="#000000" d="M293,-107C312.7365,-107 310.3239,-87.3822 329,-81 334.394,-79.1567 1098.0035,-60.6692 1194.9244,-53.33"/>
<polygon fill="#000000" stroke="#000000" points="1195.5441,-56.7787 1205,-52 1194.6279,-49.8389 1195.5441,-56.7787"/>
<text text-anchor="middle" x="1196.5" y="-55.8" font-family="Times,serif" font-size="14.00" fill="#000000">s1</text>
<text text-anchor="middle" x="327.5" y="-110.8" font-family="Times,serif" font-size="14.00" fill="#000000">/select_i1</text>
</g>
<!-- initializerr0_1 -->
<!-- initializerr0_1&#45;&gt;r0 -->
<g id="edge32" class="edge">
<title>initializerr0_1&#45;&gt;r0:w</title>
<path fill="none" stroke="#0000ff" d="M1424.6852,-614.0975C1400.7649,-578.0048 1353.2913,-498.9514 1388.0105,-487.4157"/>
<polygon fill="#0000ff" stroke="#0000ff" points="1388.5901,-490.8686 1398,-486 1387.6078,-483.9378 1388.5901,-490.8686"/>
<text text-anchor="middle" x="1406" y="-555.3" font-family="Times,serif" font-size="14.00" fill="#000000">0</text>
</g>
<!-- initializerr1_1 -->
<!-- initializerr1_1&#45;&gt;r1 -->
<g id="edge34" class="edge">
<title>initializerr1_1&#45;&gt;r1:w</title>
<path fill="none" stroke="#0000ff" stroke-dasharray="1,5" d="M1655.5604,-613.8042C1645.6251,-577.5711 1628.8613,-498.8886 1666.7913,-487.4087"/>
<polygon fill="#0000ff" stroke="#0000ff" points="1667.5723,-490.8342 1677,-486 1666.6154,-483.8999 1667.5723,-490.8342"/>
<text text-anchor="middle" x="1651" y="-555.3" font-family="Times,serif" font-size="14.00" fill="#000000">0</text>
</g>
<!-- r3&#45;&gt;r5 -->
<g id="edge40" class="edge">
<title>r3:se&#45;&gt;r5:nw</title>
<path fill="none" stroke="#000000" d="M1230,-308C1266.6633,-271.3367 1186.3835,-256.0523 1139,-235 953.0365,-152.3771 889.1079,-185.694 687,-162 661.8932,-159.0566 257.3095,-147.5119 191.4491,-130.75"/>
<polygon fill="#000000" stroke="#000000" points="193.2364,-127.7327 183,-125 189.298,-133.5198 193.2364,-127.7327"/>
<text text-anchor="middle" x="157" y="-128.8" font-family="Times,serif" font-size="14.00" fill="#000000">control</text>
<text text-anchor="middle" x="1218" y="-296.8" font-family="Times,serif" font-size="14.00" fill="#000000">/lte</text>
</g>
<!-- r3&#45;&gt;r6 -->
<g id="edge41" class="edge">
<title>r3:se&#45;&gt;r6:nw</title>
<path fill="none" stroke="#000000" d="M1230,-308C1239.656,-298.344 1459.7799,-274.4213 1473,-271 1517.5178,-259.479 1525.6446,-247.1312 1570,-235 1655.815,-211.5296 1705.5499,-259.4521 1767.3947,-205.1417"/>
<polygon fill="#000000" stroke="#000000" points="1770.1061,-207.3968 1775,-198 1765.3143,-202.294 1770.1061,-207.3968"/>
<text text-anchor="middle" x="1749" y="-201.8" font-family="Times,serif" font-size="14.00" fill="#000000">control</text>
<text text-anchor="middle" x="1242" y="-296.8" font-family="Times,serif" font-size="14.00" fill="#000000">/lte</text>
</g>
<!-- r2 -->
<g id="node28" class="node">
<title>r2</title>
<g id="a_node28"><a xlink:href="file:///home/travis/build/andrewdavidmackenzie/flow/flowstdlib/control/select/select.html" xlink:title="select_string (#2)">
<ellipse fill="#ff7f50" stroke="#000000" cx="1499" cy="-180" rx="94.7833" ry="18"/>
<text text-anchor="middle" x="1499" y="-176.3" font-family="Times,serif" font-size="14.00" fill="#000000">select_string (#2)</text>
</a>
</g>
</g>
<!-- r3&#45;&gt;r2 -->
<g id="edge39" class="edge">
<title>r3:se&#45;&gt;r2:nw</title>
<path fill="none" stroke="#000000" d="M1230,-308C1264.2806,-273.7194 1406.1588,-300.0117 1445,-271 1471.0392,-251.5505 1458.7004,-228.7721 1474.4761,-205.7952"/>
<polygon fill="#000000" stroke="#000000" points="1477.266,-207.9151 1481,-198 1471.8979,-203.4224 1477.266,-207.9151"/>
<text text-anchor="middle" x="1455" y="-201.8" font-family="Times,serif" font-size="14.00" fill="#000000">control</text>
<text text-anchor="middle" x="1218" y="-311.8" font-family="Times,serif" font-size="14.00" fill="#000000">/lte</text>
</g>
<!-- r6&#45;&gt;r1 -->
<g id="edge47" class="edge">
<title>r6:e&#45;&gt;r1:ne</title>
<path fill="none" stroke="#000000" d="M1882,-180C1914.4444,-180 1882,-220.5556 1882,-253 1882,-413 1882,-413 1882,-413 1882,-453.9981 1898.1657,-477.4901 1866.8916,-504 1855.9957,-513.236 1818.0282,-515.4736 1798.8056,-508.9014"/>
<polygon fill="#000000" stroke="#000000" points="1800.4399,-505.8054 1790,-504 1797.0354,-511.9218 1800.4399,-505.8054"/>
<text text-anchor="middle" x="1783" y="-507.8" font-family="Times,serif" font-size="14.00" fill="#000000">i2</text>
<text text-anchor="middle" x="1916.5" y="-183.8" font-family="Times,serif" font-size="14.00" fill="#000000">/select_i1</text>
</g>
<!-- r6&#45;&gt;r8 -->
<g id="edge48" class="edge">
<title>r6:e&#45;&gt;r8:ne</title>
<path fill="none" stroke="#000000" d="M1882,-180C1940.6751,-180 1992,-194.3249 1992,-253 1992,-486 1992,-486 1992,-486 1992,-616.3261 1892.7348,-629.5367 1773,-681 1622.5947,-745.6458 1056.2287,-750.1866 973.1493,-745.2421"/>
<polygon fill="#000000" stroke="#000000" points="973.3511,-741.7408 963,-744 972.5007,-748.6889 973.3511,-741.7408"/>
<text text-anchor="middle" x="956" y="-747.8" font-family="Times,serif" font-size="14.00" fill="#000000">i2</text>
<text text-anchor="middle" x="1916.5" y="-168.8" font-family="Times,serif" font-size="14.00" fill="#000000">/select_i1</text>
</g>
<!-- r2&#45;&gt;r7 -->
<g id="edge44" class="edge">
<title>r2:e&#45;&gt;r7:ne</title>
<path fill="none" stroke="#000000" d="M1594,-180C1602,-180 1598.7802,-168.4148 1594,-162 1582.1199,-146.0575 1288.9587,-78.1357 1231.2768,-55.6723"/>
<polygon fill="#000000" stroke="#000000" points="1232.5056,-52.3724 1222,-51 1229.3568,-58.6242 1232.5056,-52.3724"/>
<text text-anchor="middle" x="1213.5" y="-54.8" font-family="Times,serif" font-size="14.00" fill="#000000">s2</text>
<text text-anchor="middle" x="1628.5" y="-183.8" font-family="Times,serif" font-size="14.00" fill="#000000">/select_i1</text>
</g>
<!-- initializerr2_0 -->
<!-- initializerr2_0&#45;&gt;r2 -->
<g id="edge42" class="edge">
<title>initializerr2_0&#45;&gt;r2:ne</title>
<path fill="none" stroke="#0000ff" d="M1638.1666,-308.4137C1611.5874,-285.7279 1564.2752,-244.5083 1524.3603,-205.2939"/>
<polygon fill="#0000ff" stroke="#0000ff" points="1526.5667,-202.553 1517,-198 1521.6394,-207.5251 1526.5667,-202.553"/>
<text text-anchor="middle" x="1606.5" y="-249.3" font-family="Times,serif" font-size="14.00" fill="#000000">&quot;B&quot;</text>
</g>
<!-- initializerr2_1 -->
<!-- initializerr2_1&#45;&gt;r2 -->
<g id="edge43" class="edge">
<title>initializerr2_1&#45;&gt;r2:w</title>
<path fill="none" stroke="#0000ff" d="M1423.7591,-308.0975C1401.9926,-272.0048 1359.1758,-192.9514 1394.0609,-181.4157"/>
<polygon fill="#0000ff" stroke="#0000ff" points="1394.5935,-184.8752 1404,-180 1393.6064,-177.9452 1394.5935,-184.8752"/>
<text text-anchor="middle" x="1414.5" y="-249.3" font-family="Times,serif" font-size="14.00" fill="#000000">&quot;C&quot;</text>
</g>
<!-- r7&#45;&gt;r11 -->
<g id="edge50" class="edge">
<title>r7:e&#45;&gt;r11:ne</title>
<path fill="none" stroke="#000000" d="M1274,-34C1282,-34 1279.5048,-46.1951 1274,-52 1232.1965,-96.0828 788.031,-71.6668 728,-81 651.5151,-92.8913 636.2648,-115.1419 559.4913,-125 544.9134,-126.8719 508.2112,-134.276 489.0982,-129.5158"/>
<polygon fill="#000000" stroke="#000000" points="490.5134,-126.3108 480,-125 487.4013,-132.581 490.5134,-126.3108"/>
<text text-anchor="middle" x="473" y="-128.8" font-family="Times,serif" font-size="14.00" fill="#000000">i2</text>
</g>
<!-- r7&#45;&gt;r5 -->
<g id="edge49" class="edge">
<title>r7:e&#45;&gt;r5:n</title>
<path fill="none" stroke="#000000" d="M1274,-34C1282,-34 1279.5559,-46.244 1274,-52 1253.268,-73.4785 766.8386,-70.1065 737,-71 714.3367,-71.6787 349.393,-71.0897 329,-81 306.1835,-92.0881 315.5925,-114.1923 292.6419,-125 285.337,-128.44 231.9928,-132.8271 210.2181,-129.419"/>
<polygon fill="#000000" stroke="#000000" points="211.5304,-126.1668 201,-125 208.5044,-132.4789 211.5304,-126.1668"/>
<text text-anchor="middle" x="194" y="-128.8" font-family="Times,serif" font-size="14.00" fill="#000000">i1</text>
</g>
<!-- initializerr5_0 -->
<!-- initializerr5_0&#45;&gt;r5 -->
<g id="edge45" class="edge">
<title>initializerr5_0&#45;&gt;r5:ne</title>
<path fill="none" stroke="#0000ff" stroke-dasharray="1,5" d="M1194.9457,-614.3752C1147.6524,-569.3622 1014.4232,-449.8589 879,-395 711.0395,-326.9606 190.9969,-408.5385 73,-271 62.5819,-258.8566 65.8602,-249.3187 73,-235 80.7536,-219.4503 192.5986,-160.5148 215.7753,-134.8121"/>
<polygon fill="#0000ff" stroke="#0000ff" points="219.2028,-135.5929 219,-125 212.5528,-133.4074 219.2028,-135.5929"/>
<text text-anchor="middle" x="813" y="-365.8" font-family="Times,serif" font-size="14.00" fill="#000000">&quot;&quot;</text>
</g>
</g>
</svg>
