<?xml version="1.0" encoding="UTF-8" standalone="no"?>
<!DOCTYPE svg PUBLIC "-//W3C//DTD SVG 1.1//EN"
 "http://www.w3.org/Graphics/SVG/1.1/DTD/svg11.dtd">
<!-- Generated by graphviz version 2.43.0 (0)
 -->
<!-- Title: A_tracker Pages: 1 -->
<svg width="2457pt" height="718pt"
 viewBox="28.80 28.80 2427.93 688.76" xmlns="http://www.w3.org/2000/svg" xmlns:xlink="http://www.w3.org/1999/xlink">
<g id="page0,1_graph0" class="graph" transform="scale(1 1) rotate(0) translate(32.8 684.76)">
<title>A_tracker</title>
<polygon fill="white" stroke="transparent" points="-4,4 -4,-655.96 2395.13,-655.96 2395.13,4 -4,4"/>
<text text-anchor="middle" x="1195.56" y="-636.76" font-family="Times,serif" font-size="14.00">A_tracker</text>
<!-- /router/A_tracker/forward -->
<g id="node1" class="node">
<title>/router/A_tracker/forward</title>
<polygon fill="white" stroke="black" points="1685.12,-616.52 1626.33,-628.96 1567.54,-616.52 1567.59,-596.4 1685.07,-596.4 1685.12,-616.52"/>
<text text-anchor="middle" x="1626.33" y="-607.26" font-family="Times,serif" font-size="14.00">forward</text>
</g>
<!-- /router/A_tracker/forward_sum -->
<g id="node13" class="node">
<title>/router/A_tracker/forward_sum</title>
<g id="a_node13"><a xlink:href="../../flowstdlib/math/add/add.html" xlink:title="forward_sum\n(add)">
<ellipse fill="coral" stroke="black" cx="1530.33" cy="-422.35" rx="77.56" ry="26.74"/>
<text text-anchor="middle" x="1530.33" y="-426.15" font-family="Times,serif" font-size="14.00">forward_sum</text>
<text text-anchor="middle" x="1530.33" y="-411.15" font-family="Times,serif" font-size="14.00">(add)</text>
</a>
</g>
</g>
<!-- /router/A_tracker/forward&#45;&gt;/router/A_tracker/forward_sum -->
<g id="edge10" class="edge">
<title>/router/A_tracker/forward:s&#45;&gt;/router/A_tracker/forward_sum:ne</title>
<path fill="none" stroke="black" d="M1626.33,-594.96C1626.33,-554.76 1591.24,-557.43 1574.33,-520.96 1561.89,-494.13 1575.12,-476.34 1561.83,-456.2"/>
<polygon fill="black" stroke="black" points="1564.4,-453.82 1555.33,-448.35 1559.01,-458.29 1564.4,-453.82"/>
<text text-anchor="middle" x="1548.33" y="-452.15" font-family="Times,serif" font-size="14.00">i1</text>
</g>
<!-- /router/A_tracker/cross -->
<g id="node2" class="node">
<title>/router/A_tracker/cross</title>
<polygon fill="white" stroke="black" points="2183.6,-616.52 2140.33,-628.96 2097.07,-616.52 2097.11,-596.4 2183.56,-596.4 2183.6,-616.52"/>
<text text-anchor="middle" x="2140.33" y="-607.26" font-family="Times,serif" font-size="14.00">cross</text>
</g>
<!-- /router/A_tracker/cross_distance -->
<g id="node12" class="node">
<title>/router/A_tracker/cross_distance</title>
<g id="a_node12"><a xlink:href="../../flowstdlib/math/add/add.html" xlink:title="cross_distance\n(add)">
<ellipse fill="coral" stroke="black" cx="2117.33" cy="-494.09" rx="85.62" ry="26.74"/>
<text text-anchor="middle" x="2117.33" y="-497.89" font-family="Times,serif" font-size="14.00">cross_distance</text>
<text text-anchor="middle" x="2117.33" y="-482.89" font-family="Times,serif" font-size="14.00">(add)</text>
</a>
</g>
</g>
<!-- /router/A_tracker/cross&#45;&gt;/router/A_tracker/cross_distance -->
<g id="edge7" class="edge">
<title>/router/A_tracker/cross:s&#45;&gt;/router/A_tracker/cross_distance:ne</title>
<path fill="none" stroke="black" d="M2140.33,-594.96C2140.33,-565.9 2160.81,-548.62 2149.59,-528.95"/>
<polygon fill="black" stroke="black" points="2152.26,-526.67 2143.33,-520.96 2146.75,-530.99 2152.26,-526.67"/>
<text text-anchor="middle" x="2136.33" y="-524.76" font-family="Times,serif" font-size="14.00">i1</text>
</g>
<!-- /router/A_tracker/other -->
<g id="node3" class="node">
<title>/router/A_tracker/other</title>
<polygon fill="white" stroke="black" points="2078.7,-616.52 2034.33,-628.96 1989.96,-616.52 1990,-596.4 2078.66,-596.4 2078.7,-616.52"/>
<text text-anchor="middle" x="2034.33" y="-607.26" font-family="Times,serif" font-size="14.00">other</text>
</g>
<!-- /router/A_tracker/other&#45;&gt;/router/A_tracker/cross_distance -->
<g id="edge8" class="edge">
<title>/router/A_tracker/other:s&#45;&gt;/router/A_tracker/cross_distance:w</title>
<path fill="none" stroke="black" d="M2034.33,-594.96C2034.33,-576.47 2016.37,-519.94 2022.62,-500.63"/>
<polygon fill="black" stroke="black" points="2024.97,-503.23 2030.33,-494.09 2020.44,-497.89 2024.97,-503.23"/>
<text text-anchor="middle" x="2023.33" y="-497.89" font-family="Times,serif" font-size="14.00">i2</text>
</g>
<!-- /router/A_tracker/forward_string -->
<g id="node4" class="node">
<title>/router/A_tracker/forward_string</title>
<polygon fill="white" stroke="black" points="992.35,-616.52 894.33,-628.96 796.31,-616.52 796.4,-596.4 992.26,-596.4 992.35,-616.52"/>
<text text-anchor="middle" x="894.33" y="-607.26" font-family="Times,serif" font-size="14.00">forward_string</text>
</g>
<!-- /router/A_tracker/select_string -->
<g id="node18" class="node">
<title>/router/A_tracker/select_string</title>
<g id="a_node18"><a xlink:href="../../flowstdlib/control/select/select.html" xlink:title="select_string\n(select)">
<ellipse fill="coral" stroke="black" cx="769.33" cy="-172.87" rx="76.24" ry="26.74"/>
<text text-anchor="middle" x="769.33" y="-176.67" font-family="Times,serif" font-size="14.00">select_string</text>
<text text-anchor="middle" x="769.33" y="-161.67" font-family="Times,serif" font-size="14.00">(select)</text>
</a>
</g>
</g>
<!-- /router/A_tracker/forward_string&#45;&gt;/router/A_tracker/select_string -->
<g id="edge15" class="edge">
<title>/router/A_tracker/forward_string:s&#45;&gt;/router/A_tracker/select_string:ne</title>
<path fill="none" stroke="black" d="M894.33,-594.96C894.33,-549.86 912.33,-540.19 912.33,-495.09 912.33,-495.09 912.33,-495.09 912.33,-267.74 912.33,-256.41 902.64,-257.2 893.33,-250.74 867.36,-232.73 858.39,-232.3 830.33,-217.74 818.32,-211.51 811.35,-211.55 803.09,-206.16"/>
<polygon fill="black" stroke="black" points="805.27,-203.42 795.33,-199.74 800.8,-208.81 805.27,-203.42"/>
<text text-anchor="middle" x="788.33" y="-203.54" font-family="Times,serif" font-size="14.00">i1</text>
</g>
<!-- /router/A_tracker/cross_string -->
<g id="node5" class="node">
<title>/router/A_tracker/cross_string</title>
<polygon fill="white" stroke="black" points="525.93,-616.52 442.33,-628.96 358.73,-616.52 358.81,-596.4 525.86,-596.4 525.93,-616.52"/>
<text text-anchor="middle" x="442.33" y="-607.26" font-family="Times,serif" font-size="14.00">cross_string</text>
</g>
<!-- /router/A_tracker/cross_string&#45;&gt;/router/A_tracker/select_string -->
<g id="edge16" class="edge">
<title>/router/A_tracker/cross_string:s&#45;&gt;/router/A_tracker/select_string:w</title>
<path fill="none" stroke="black" d="M442.33,-594.96C442.33,-550.57 442.33,-539.48 442.33,-495.09 442.33,-495.09 442.33,-495.09 442.33,-267.74 442.33,-226.49 348.33,-173.96 680.86,-172.89"/>
<polygon fill="black" stroke="black" points="681.34,-176.39 691.33,-172.87 681.33,-169.39 681.34,-176.39"/>
<text text-anchor="middle" x="684.33" y="-176.67" font-family="Times,serif" font-size="14.00">i2</text>
</g>
<!-- /router/A_tracker/forward_route -->
<g id="node6" class="node">
<title>/router/A_tracker/forward_route</title>
<polygon fill="white" stroke="black" points="2390.93,-616.52 2296.33,-628.96 2201.74,-616.52 2201.82,-596.4 2390.84,-596.4 2390.93,-616.52"/>
<text text-anchor="middle" x="2296.33" y="-607.26" font-family="Times,serif" font-size="14.00">forward_route</text>
</g>
<!-- /router/A_tracker/select_route -->
<g id="node21" class="node">
<title>/router/A_tracker/select_route</title>
<g id="a_node21"><a xlink:href="../../flowstdlib/control/select/select.html" xlink:title="select_route\n(select)">
<ellipse fill="coral" stroke="black" cx="1440.33" cy="-172.87" rx="73.58" ry="26.74"/>
<text text-anchor="middle" x="1440.33" y="-176.67" font-family="Times,serif" font-size="14.00">select_route</text>
<text text-anchor="middle" x="1440.33" y="-161.67" font-family="Times,serif" font-size="14.00">(select)</text>
</a>
</g>
</g>
<!-- /router/A_tracker/forward_route&#45;&gt;/router/A_tracker/select_route -->
<g id="edge18" class="edge">
<title>/router/A_tracker/forward_route:s&#45;&gt;/router/A_tracker/select_route:ne</title>
<path fill="none" stroke="black" d="M2296.33,-594.96C2296.33,-411.7 2239.13,-319.68 2069.33,-250.74 2054.8,-244.84 1553.43,-215.25 1475.33,-201.6"/>
<polygon fill="black" stroke="black" points="1475.9,-198.13 1465.33,-198.87 1474.06,-204.88 1475.9,-198.13"/>
<text text-anchor="middle" x="1458.33" y="-202.67" font-family="Times,serif" font-size="14.00">i1</text>
</g>
<!-- /router/A_tracker/forward_distance -->
<g id="node7" class="node">
<title>/router/A_tracker/forward_distance</title>
<polygon fill="white" stroke="black" points="1549.78,-616.52 1437.33,-628.96 1324.89,-616.52 1324.99,-596.4 1549.67,-596.4 1549.78,-616.52"/>
<text text-anchor="middle" x="1437.33" y="-607.26" font-family="Times,serif" font-size="14.00">forward_distance</text>
</g>
<!-- /router/A_tracker/forward_distance&#45;&gt;/router/A_tracker/forward_sum -->
<g id="edge9" class="edge">
<title>/router/A_tracker/forward_distance:s&#45;&gt;/router/A_tracker/forward_sum:w</title>
<path fill="none" stroke="black" d="M1437.33,-594.96C1437.33,-564.31 1485.07,-599.58 1503.33,-574.96 1543.61,-520.67 1397.85,-433 1441.37,-423.24"/>
<polygon fill="black" stroke="black" points="1441.68,-426.73 1451.33,-422.35 1441.06,-419.75 1441.68,-426.73"/>
<text text-anchor="middle" x="1444.33" y="-426.15" font-family="Times,serif" font-size="14.00">i2</text>
</g>
<!-- /router/A_tracker/other_route -->
<g id="node8" class="node">
<title>/router/A_tracker/other_route</title>
<polygon fill="white" stroke="black" points="1170.51,-616.52 1090.33,-628.96 1010.16,-616.52 1010.23,-596.4 1170.43,-596.4 1170.51,-616.52"/>
<text text-anchor="middle" x="1090.33" y="-607.26" font-family="Times,serif" font-size="14.00">other_route</text>
</g>
<!-- /router/A_tracker/other_route&#45;&gt;/router/A_tracker/select_route -->
<g id="edge19" class="edge">
<title>/router/A_tracker/other_route:s&#45;&gt;/router/A_tracker/select_route:w</title>
<path fill="none" stroke="black" d="M1090.33,-594.96C1090.33,-585.8 1087.23,-583.92 1085.33,-574.96 1077.85,-539.71 1071.33,-531.13 1071.33,-495.09 1071.33,-495.09 1071.33,-495.09 1071.33,-267.74 1071.33,-189.49 496.32,-173 1355.16,-172.87"/>
<polygon fill="black" stroke="black" points="1355.33,-176.37 1365.33,-172.87 1355.33,-169.37 1355.33,-176.37"/>
<text text-anchor="middle" x="1358.33" y="-176.67" font-family="Times,serif" font-size="14.00">i2</text>
</g>
<!-- /router/A_tracker/other_distance -->
<g id="node9" class="node">
<title>/router/A_tracker/other_distance</title>
<polygon fill="white" stroke="black" points="1972.35,-616.52 1874.33,-628.96 1776.31,-616.52 1776.4,-596.4 1972.26,-596.4 1972.35,-616.52"/>
<text text-anchor="middle" x="1874.33" y="-607.26" font-family="Times,serif" font-size="14.00">other_distance</text>
</g>
<!-- /router/A_tracker/cross_sum -->
<g id="node15" class="node">
<title>/router/A_tracker/cross_sum</title>
<g id="a_node15"><a xlink:href="../../flowstdlib/math/add/add.html" xlink:title="cross_sum\n(add)">
<ellipse fill="coral" stroke="black" cx="2077.33" cy="-350.61" rx="64.19" ry="26.74"/>
<text text-anchor="middle" x="2077.33" y="-354.41" font-family="Times,serif" font-size="14.00">cross_sum</text>
<text text-anchor="middle" x="2077.33" y="-339.41" font-family="Times,serif" font-size="14.00">(add)</text>
</a>
</g>
</g>
<!-- /router/A_tracker/other_distance&#45;&gt;/router/A_tracker/cross_sum -->
<g id="edge11" class="edge">
<title>/router/A_tracker/other_distance:s&#45;&gt;/router/A_tracker/cross_sum:w</title>
<path fill="none" stroke="black" d="M1874.33,-594.96C1874.33,-536.04 1952.64,-570.63 1984.33,-520.96 1993.23,-507.01 1992.6,-390.19 2004.6,-358.51"/>
<polygon fill="black" stroke="black" points="2007.51,-360.49 2011.33,-350.61 2002.18,-355.95 2007.51,-360.49"/>
<text text-anchor="middle" x="2004.33" y="-354.41" font-family="Times,serif" font-size="14.00">i2</text>
</g>
<!-- /router/A_tracker/route -->
<g id="node10" class="node">
<title>/router/A_tracker/route</title>
<polygon fill="black" stroke="black" points="1153.96,-12.44 1198.33,0 1242.7,-12.44 1242.66,-32.56 1154,-32.56 1153.96,-12.44"/>
<text text-anchor="middle" x="1198.33" y="-14.3" font-family="Times,serif" font-size="14.00" fill="white">route</text>
</g>
<!-- /router/A_tracker/distance -->
<g id="node11" class="node">
<title>/router/A_tracker/distance</title>
<polygon fill="black" stroke="black" points="2064.61,-12.44 2126.33,0 2188.05,-12.44 2187.99,-32.56 2064.67,-32.56 2064.61,-12.44"/>
<text text-anchor="middle" x="2126.33" y="-14.3" font-family="Times,serif" font-size="14.00" fill="white">distance</text>
</g>
<!-- /router/A_tracker/cross_distance&#45;&gt;/router/A_tracker/cross_sum -->
<g id="edge12" class="edge">
<title>/router/A_tracker/cross_distance:e&#45;&gt;/router/A_tracker/cross_sum:ne</title>
<path fill="none" stroke="black" d="M2204.33,-494.09C2216.28,-494.09 2208.4,-478.04 2203.33,-467.22 2179.23,-415.82 2148.79,-418.69 2109.73,-383.62"/>
<polygon fill="black" stroke="black" points="2112,-380.95 2102.33,-376.61 2107.18,-386.03 2112,-380.95"/>
<text text-anchor="middle" x="2095.33" y="-380.41" font-family="Times,serif" font-size="14.00">i1</text>
</g>
<!-- /router/A_tracker/compare -->
<g id="node17" class="node">
<title>/router/A_tracker/compare</title>
<g id="a_node17"><a xlink:href="../../flowstdlib/math/compare/compare.html" xlink:title="compare">
<ellipse fill="coral" stroke="black" cx="1583.33" cy="-268.74" rx="50.89" ry="18"/>
<text text-anchor="middle" x="1583.33" y="-265.04" font-family="Times,serif" font-size="14.00">compare</text>
</a>
</g>
</g>
<!-- /router/A_tracker/forward_sum&#45;&gt;/router/A_tracker/compare -->
<g id="edge13" class="edge">
<title>/router/A_tracker/forward_sum:e&#45;&gt;/router/A_tracker/compare:ne</title>
<path fill="none" stroke="black" d="M1609.33,-422.35C1631.37,-422.35 1689.53,-381.36 1607.32,-293.94"/>
<polygon fill="black" stroke="black" points="1609.81,-291.48 1600.33,-286.74 1604.78,-296.35 1609.81,-291.48"/>
<text text-anchor="middle" x="1587.83" y="-290.54" font-family="Times,serif" font-size="14.00">left</text>
</g>
<!-- /router/A_tracker/select_total -->
<g id="node24" class="node">
<title>/router/A_tracker/select_total</title>
<g id="a_node24"><a xlink:href="../../flowstdlib/control/select/select.html" xlink:title="select_total\n(select)">
<ellipse fill="coral" stroke="black" cx="2151.33" cy="-172.87" rx="69.09" ry="26.74"/>
<text text-anchor="middle" x="2151.33" y="-176.67" font-family="Times,serif" font-size="14.00">select_total</text>
<text text-anchor="middle" x="2151.33" y="-161.67" font-family="Times,serif" font-size="14.00">(select)</text>
</a>
</g>
</g>
<!-- /router/A_tracker/forward_sum&#45;&gt;/router/A_tracker/select_total -->
<g id="edge21" class="edge">
<title>/router/A_tracker/forward_sum:e&#45;&gt;/router/A_tracker/select_total:ne</title>
<path fill="none" stroke="black" d="M1609.33,-422.35C1822.48,-422.35 1880.98,-386.51 2069.33,-286.74 2120.31,-259.74 2207.99,-244.38 2182.9,-206.71"/>
<polygon fill="black" stroke="black" points="2185.44,-204.29 2176.33,-198.87 2180.07,-208.78 2185.44,-204.29"/>
<text text-anchor="middle" x="2169.33" y="-202.67" font-family="Times,serif" font-size="14.00">i1</text>
</g>
<!-- initializer/router/A_tracker/forward_sum_1 -->
<!-- initializer/router/A_tracker/forward_sum_1&#45;&gt;/router/A_tracker/forward_sum -->
<g id="edge1" class="edge">
<title>initializer/router/A_tracker/forward_sum_1&#45;&gt;/router/A_tracker/forward_sum:w</title>
<path fill="none" stroke="blue" stroke-dasharray="1,5" d="M1303.78,-538.77C1323.99,-504.44 1374.97,-430.09 1441.04,-422.91"/>
<polygon fill="blue" stroke="blue" points="1441.54,-426.39 1451.33,-422.35 1441.16,-419.4 1441.54,-426.39"/>
<text text-anchor="middle" x="1361.33" y="-490.39" font-family="Times,serif" font-size="14.00">0</text>
</g>
<!-- /router/A_tracker/cross_sum&#45;&gt;/router/A_tracker/compare -->
<g id="edge14" class="edge">
<title>/router/A_tracker/cross_sum:e&#45;&gt;/router/A_tracker/compare:ne</title>
<path fill="none" stroke="black" d="M2143.33,-350.61C2155.28,-350.61 2150.65,-332.32 2142.33,-323.74 2102.28,-282.43 1684.97,-325.03 1608.98,-292.16"/>
<polygon fill="black" stroke="black" points="1610.66,-289.08 1600.33,-286.74 1606.95,-295.01 1610.66,-289.08"/>
<text text-anchor="middle" x="1618.33" y="-290.54" font-family="Times,serif" font-size="14.00">right</text>
</g>
<!-- /router/A_tracker/cross_sum&#45;&gt;/router/A_tracker/select_total -->
<g id="edge22" class="edge">
<title>/router/A_tracker/cross_sum:e&#45;&gt;/router/A_tracker/select_total:w</title>
<path fill="none" stroke="black" d="M2143.33,-350.61C2155.28,-350.61 2145.26,-335.33 2142.33,-323.74 2134.64,-293.26 2066.41,-202.19 2072.05,-178.53"/>
<polygon fill="black" stroke="black" points="2074.06,-181.41 2080.33,-172.87 2070.1,-175.63 2074.06,-181.41"/>
<text text-anchor="middle" x="2073.33" y="-176.67" font-family="Times,serif" font-size="14.00">i2</text>
</g>
<!-- initializer/router/A_tracker/cross_sum_1 -->
<!-- initializer/router/A_tracker/cross_sum_1&#45;&gt;/router/A_tracker/cross_sum -->
<g id="edge2" class="edge">
<title>initializer/router/A_tracker/cross_sum_1&#45;&gt;/router/A_tracker/cross_sum:w</title>
<path fill="none" stroke="blue" stroke-dasharray="1,5" d="M1818.5,-476.27C1874.25,-451.71 1972.69,-405.88 1999.33,-377.48 2004.64,-371.82 2003.27,-363.41 2004.01,-357.51"/>
<polygon fill="blue" stroke="blue" points="2006.45,-360.01 2011.33,-350.61 2001.65,-354.92 2006.45,-360.01"/>
<text text-anchor="middle" x="1980.33" y="-418.65" font-family="Times,serif" font-size="14.00">0</text>
</g>
<!-- /router/A_tracker/compare&#45;&gt;/router/A_tracker/select_string -->
<g id="edge17" class="edge">
<title>/router/A_tracker/compare:s&#45;&gt;/router/A_tracker/select_string:nw</title>
<path fill="none" stroke="black" d="M1583.33,-250.74C1583.33,-245.29 849.13,-209.24 753.53,-201.06"/>
<polygon fill="black" stroke="black" points="753.7,-197.55 743.33,-199.74 752.8,-204.49 753.7,-197.55"/>
<text text-anchor="middle" x="1154" y="-228.49" font-family="Times,serif" font-size="14.00">lte</text>
<text text-anchor="middle" x="717.83" y="-203.54" font-family="Times,serif" font-size="14.00">control</text>
</g>
<!-- /router/A_tracker/compare&#45;&gt;/router/A_tracker/select_route -->
<g id="edge20" class="edge">
<title>/router/A_tracker/compare:s&#45;&gt;/router/A_tracker/select_route:nw</title>
<path fill="none" stroke="black" d="M1583.33,-250.74C1583.33,-176.87 1383.83,-245.69 1408.68,-206.76"/>
<polygon fill="black" stroke="black" points="1411.56,-208.77 1415.33,-198.87 1406.21,-204.26 1411.56,-208.77"/>
<text text-anchor="middle" x="1489.28" y="-218.76" font-family="Times,serif" font-size="14.00">lte</text>
<text text-anchor="middle" x="1389.83" y="-202.67" font-family="Times,serif" font-size="14.00">control</text>
</g>
<!-- /router/A_tracker/compare&#45;&gt;/router/A_tracker/select_total -->
<g id="edge23" class="edge">
<title>/router/A_tracker/compare:s&#45;&gt;/router/A_tracker/select_total:nw</title>
<path fill="none" stroke="black" d="M1583.33,-250.74C1583.33,-192.97 2037.69,-237.14 2117.39,-204.3"/>
<polygon fill="black" stroke="black" points="2119.6,-207.05 2126.33,-198.87 2115.97,-201.06 2119.6,-207.05"/>
<text text-anchor="middle" x="1845.17" y="-221.95" font-family="Times,serif" font-size="14.00">lte</text>
<text text-anchor="middle" x="2100.83" y="-202.67" font-family="Times,serif" font-size="14.00">control</text>
</g>
<!-- /router/A_tracker/append -->
<g id="node25" class="node">
<title>/router/A_tracker/append</title>
<g id="a_node25"><a xlink:href="../../flowstdlib/data/append/append.html" xlink:title="append">
<ellipse fill="coral" stroke="black" cx="1153.33" cy="-91" rx="44.69" ry="18"/>
<text text-anchor="middle" x="1153.33" y="-87.3" font-family="Times,serif" font-size="14.00">append</text>
</a>
</g>
</g>
<!-- /router/A_tracker/select_string&#45;&gt;/router/A_tracker/append -->
<g id="edge25" class="edge">
<title>/router/A_tracker/select_string:sw&#45;&gt;/router/A_tracker/append:nw</title>
<path fill="none" stroke="black" d="M743.33,-146C621.7,-24.37 997.12,-224.94 1128.76,-115.89"/>
<polygon fill="black" stroke="black" points="1131.29,-118.32 1136.33,-109 1126.58,-113.14 1131.29,-118.32"/>
<text text-anchor="middle" x="905.8" y="-148.14" font-family="Times,serif" font-size="14.00">select_i1</text>
<text text-anchor="middle" x="1127.83" y="-112.8" font-family="Times,serif" font-size="14.00">s2</text>
</g>
<!-- initializer/router/A_tracker/select_string_0 -->
<!-- initializer/router/A_tracker/select_string_0&#45;&gt;/router/A_tracker/select_string -->
<g id="edge3" class="edge">
<title>initializer/router/A_tracker/select_string_0&#45;&gt;/router/A_tracker/select_string:ne</title>
<path fill="none" stroke="blue" d="M746.62,-251.65C779.2,-241.45 809.34,-226.64 801.25,-207.97"/>
<polygon fill="blue" stroke="blue" points="804.01,-205.82 795.33,-199.74 798.32,-209.9 804.01,-205.82"/>
<text text-anchor="middle" x="814.33" y="-221.54" font-family="Times,serif" font-size="14.00">&quot;A&quot;</text>
</g>
<!-- initializer/router/A_tracker/select_string_1 -->
<!-- initializer/router/A_tracker/select_string_1&#45;&gt;/router/A_tracker/select_string -->
<g id="edge4" class="edge">
<title>initializer/router/A_tracker/select_string_1&#45;&gt;/router/A_tracker/select_string:w</title>
<path fill="none" stroke="blue" d="M257.56,-251.22C342.91,-224.62 522.43,-175.06 680.92,-172.94"/>
<polygon fill="blue" stroke="blue" points="681.36,-176.44 691.33,-172.87 681.31,-169.44 681.36,-176.44"/>
<text text-anchor="middle" x="384.83" y="-221.54" font-family="Times,serif" font-size="14.00">&quot;BC&quot;</text>
</g>
<!-- /router/A_tracker/select_route&#45;&gt;/router/A_tracker/append -->
<g id="edge24" class="edge">
<title>/router/A_tracker/select_route:sw&#45;&gt;/router/A_tracker/append:w</title>
<path fill="none" stroke="black" d="M1415.33,-146.87C1318.12,-49.66 1202.22,-209.42 1108.33,-109 1106.19,-106.71 1104.35,-103.47 1103.38,-100.36"/>
<polygon fill="black" stroke="black" points="1106.66,-101.57 1107.33,-91 1100.22,-98.85 1106.66,-101.57"/>
<text text-anchor="middle" x="1229.05" y="-132.95" font-family="Times,serif" font-size="14.00">select_i1</text>
<text text-anchor="middle" x="1098.83" y="-94.8" font-family="Times,serif" font-size="14.00">s1</text>
</g>
<!-- initializer/router/A_tracker/select_route_0 -->
<!-- initializer/router/A_tracker/select_route_0&#45;&gt;/router/A_tracker/select_route -->
<g id="edge5" class="edge">
<title>initializer/router/A_tracker/select_route_0&#45;&gt;/router/A_tracker/select_route:ne</title>
<path fill="none" stroke="blue" stroke-dasharray="1,5" d="M1739.32,-253.98C1641.43,-241.48 1511.88,-222.31 1474.01,-204.38"/>
<polygon fill="blue" stroke="blue" points="1475.65,-201.28 1465.33,-198.87 1471.89,-207.19 1475.65,-201.28"/>
<text text-anchor="middle" x="1590.33" y="-221.54" font-family="Times,serif" font-size="14.00">&quot;&quot;</text>
</g>
<!-- initializer/router/A_tracker/select_route_1 -->
<!-- initializer/router/A_tracker/select_route_1&#45;&gt;/router/A_tracker/select_route -->
<g id="edge6" class="edge">
<title>initializer/router/A_tracker/select_route_1&#45;&gt;/router/A_tracker/select_route:w</title>
<path fill="none" stroke="blue" stroke-dasharray="1,5" d="M1312.48,-250.34C1316.48,-225.73 1327.37,-182.81 1355.22,-174.34"/>
<polygon fill="blue" stroke="blue" points="1355.94,-177.78 1365.33,-172.87 1354.93,-170.85 1355.94,-177.78"/>
<text text-anchor="middle" x="1326.33" y="-221.54" font-family="Times,serif" font-size="14.00">&quot;&quot;</text>
</g>
<!-- /router/A_tracker/select_total&#45;&gt;/router/A_tracker/distance -->
<g id="edge26" class="edge">
<title>/router/A_tracker/select_total:sw&#45;&gt;/router/A_tracker/distance:n</title>
<path fill="none" stroke="black" d="M2126.33,-146.87C2093.35,-113.89 2121.69,-88.03 2125.84,-44.25"/>
<polygon fill="black" stroke="black" points="2129.35,-44.16 2126.33,-34 2122.36,-43.82 2129.35,-44.16"/>
<text text-anchor="middle" x="2083.86" y="-91.46" font-family="Times,serif" font-size="14.00">select_i1</text>
</g>
<!-- /router/A_tracker/append&#45;&gt;/router/A_tracker/route -->
<g id="edge27" class="edge">
<title>/router/A_tracker/append:e&#45;&gt;/router/A_tracker/route:n</title>
<path fill="none" stroke="black" d="M1199.33,-91C1221.4,-91 1204.26,-66.97 1199.48,-44.03"/>
<polygon fill="black" stroke="black" points="1202.94,-43.54 1198.33,-34 1195.99,-44.33 1202.94,-43.54"/>
</g>
</g>
</svg>
