<?xml version="1.0" encoding="UTF-8" standalone="no"?>
<!DOCTYPE svg PUBLIC "-//W3C//DTD SVG 1.1//EN"
 "http://www.w3.org/Graphics/SVG/1.1/DTD/svg11.dtd">
<!-- Generated by graphviz version 2.44.1 (20200629.0846)
 -->
<!-- Title: A_tracker Pages: 1 -->
<svg width="1976pt" height="718pt"
 viewBox="28.80 28.80 1947.50 688.76" xmlns="http://www.w3.org/2000/svg" xmlns:xlink="http://www.w3.org/1999/xlink">
<g id="graph0" class="graph" transform="scale(1 1) rotate(0) translate(32.8 684.76)">
<title>A_tracker</title>
<polygon fill="white" stroke="transparent" points="-4,4 -4,-655.96 1914.7,-655.96 1914.7,4 -4,4"/>
<text text-anchor="middle" x="955.35" y="-636.76" font-family="Times,serif" font-size="14.00">A_tracker</text>
<!-- /router/A_tracker/forward -->
<g id="node1" class="node">
<title>/router/A_tracker/forward</title>
<polygon fill="white" stroke="black" points="1289.48,-616.52 1242.19,-628.96 1194.89,-616.52 1194.93,-596.4 1289.44,-596.4 1289.48,-616.52"/>
<text text-anchor="middle" x="1242.19" y="-607.26" font-family="Times,serif" font-size="14.00">forward</text>
</g>
<!-- /router/A_tracker/forward_sum -->
<g id="node13" class="node">
<title>/router/A_tracker/forward_sum</title>
<g id="a_node13"><a xlink:href="../../flowstdlib/math/add/add.html" xlink:title="forward_sum\n(add)">
<ellipse fill="coral" stroke="black" cx="1209.19" cy="-422.35" rx="62.87" ry="26.74"/>
<text text-anchor="middle" x="1209.19" y="-426.15" font-family="Times,serif" font-size="14.00">forward_sum</text>
<text text-anchor="middle" x="1209.19" y="-411.15" font-family="Times,serif" font-size="14.00">(add)</text>
</a>
</g>
</g>
<!-- /router/A_tracker/forward&#45;&gt;/router/A_tracker/forward_sum -->
<g id="edge10" class="edge">
<title>/router/A_tracker/forward:s&#45;&gt;/router/A_tracker/forward_sum:ne</title>
<path fill="none" stroke="black" d="M1242.19,-594.96C1242.19,-588.01 1240.57,-490.77 1236.52,-458.49"/>
<polygon fill="black" stroke="black" points="1239.84,-457.31 1234.19,-448.35 1233.02,-458.88 1239.84,-457.31"/>
<text text-anchor="middle" x="1228.69" y="-452.15" font-family="Times,serif" font-size="14.00">i1</text>
</g>
<!-- /router/A_tracker/cross -->
<g id="node2" class="node">
<title>/router/A_tracker/cross</title>
<polygon fill="white" stroke="black" points="1741.38,-616.52 1706.19,-628.96 1670.99,-616.52 1671.02,-596.4 1741.35,-596.4 1741.38,-616.52"/>
<text text-anchor="middle" x="1706.19" y="-607.26" font-family="Times,serif" font-size="14.00">cross</text>
</g>
<!-- /router/A_tracker/cross_distance -->
<g id="node12" class="node">
<title>/router/A_tracker/cross_distance</title>
<g id="a_node12"><a xlink:href="../../flowstdlib/math/add/add.html" xlink:title="cross_distance\n(add)">
<ellipse fill="coral" stroke="black" cx="1682.19" cy="-494.09" rx="67.35" ry="26.74"/>
<text text-anchor="middle" x="1682.19" y="-497.89" font-family="Times,serif" font-size="14.00">cross_distance</text>
<text text-anchor="middle" x="1682.19" y="-482.89" font-family="Times,serif" font-size="14.00">(add)</text>
</a>
</g>
</g>
<!-- /router/A_tracker/cross&#45;&gt;/router/A_tracker/cross_distance -->
<g id="edge7" class="edge">
<title>/router/A_tracker/cross:s&#45;&gt;/router/A_tracker/cross_distance:ne</title>
<path fill="none" stroke="black" d="M1706.19,-594.96C1706.19,-565.45 1725.47,-547.91 1713.44,-527.91"/>
<polygon fill="black" stroke="black" points="1716.17,-525.71 1707.19,-520.09 1710.7,-530.09 1716.17,-525.71"/>
<text text-anchor="middle" x="1701.69" y="-523.89" font-family="Times,serif" font-size="14.00">i1</text>
</g>
<!-- /router/A_tracker/other -->
<g id="node3" class="node">
<title>/router/A_tracker/other</title>
<polygon fill="white" stroke="black" points="1652.38,-616.52 1617.19,-628.96 1581.99,-616.52 1582.02,-596.4 1652.35,-596.4 1652.38,-616.52"/>
<text text-anchor="middle" x="1617.19" y="-607.26" font-family="Times,serif" font-size="14.00">other</text>
</g>
<!-- /router/A_tracker/other&#45;&gt;/router/A_tracker/cross_distance -->
<g id="edge8" class="edge">
<title>/router/A_tracker/other:s&#45;&gt;/router/A_tracker/cross_distance:w</title>
<path fill="none" stroke="black" d="M1617.19,-594.96C1617.19,-576.48 1599.91,-519.94 1606.4,-500.63"/>
<polygon fill="black" stroke="black" points="1608.78,-503.2 1614.19,-494.09 1604.28,-497.84 1608.78,-503.2"/>
<text text-anchor="middle" x="1608.69" y="-497.89" font-family="Times,serif" font-size="14.00">i2</text>
</g>
<!-- /router/A_tracker/forward_string -->
<g id="node4" class="node">
<title>/router/A_tracker/forward_string</title>
<polygon fill="white" stroke="black" points="790.04,-616.52 712.19,-628.96 634.33,-616.52 634.4,-596.4 789.97,-596.4 790.04,-616.52"/>
<text text-anchor="middle" x="712.19" y="-607.26" font-family="Times,serif" font-size="14.00">forward_string</text>
</g>
<!-- /router/A_tracker/select_string -->
<g id="node18" class="node">
<title>/router/A_tracker/select_string</title>
<g id="a_node18"><a xlink:href="../../flowstdlib/control/select/select.html" xlink:title="select_string\n(select)">
<ellipse fill="coral" stroke="black" cx="609.19" cy="-172.87" rx="60.21" ry="26.74"/>
<text text-anchor="middle" x="609.19" y="-176.67" font-family="Times,serif" font-size="14.00">select_string</text>
<text text-anchor="middle" x="609.19" y="-161.67" font-family="Times,serif" font-size="14.00">(select)</text>
</a>
</g>
</g>
<!-- /router/A_tracker/forward_string&#45;&gt;/router/A_tracker/select_string -->
<g id="edge15" class="edge">
<title>/router/A_tracker/forward_string:s&#45;&gt;/router/A_tracker/select_string:ne</title>
<path fill="none" stroke="black" d="M712.19,-594.96C712.19,-550.01 728.19,-540.04 728.19,-495.09 728.19,-495.09 728.19,-495.09 728.19,-267.74 728.19,-256.41 717.91,-257.97 709.19,-250.74 690.64,-235.36 686.15,-231.22 666.19,-217.74 655.92,-210.81 649.62,-210.23 642.19,-205.44"/>
<polygon fill="black" stroke="black" points="644.13,-202.52 634.19,-198.87 639.69,-207.92 644.13,-202.52"/>
<text text-anchor="middle" x="628.69" y="-202.67" font-family="Times,serif" font-size="14.00">i1</text>
</g>
<!-- /router/A_tracker/cross_string -->
<g id="node5" class="node">
<title>/router/A_tracker/cross_string</title>
<polygon fill="white" stroke="black" points="415.94,-616.52 350.19,-628.96 284.43,-616.52 284.49,-596.4 415.88,-596.4 415.94,-616.52"/>
<text text-anchor="middle" x="350.19" y="-607.26" font-family="Times,serif" font-size="14.00">cross_string</text>
</g>
<!-- /router/A_tracker/cross_string&#45;&gt;/router/A_tracker/select_string -->
<g id="edge16" class="edge">
<title>/router/A_tracker/cross_string:s&#45;&gt;/router/A_tracker/select_string:w</title>
<path fill="none" stroke="black" d="M350.19,-594.96C350.19,-550.57 350.19,-539.48 350.19,-495.09 350.19,-495.09 350.19,-495.09 350.19,-267.74 350.19,-235.08 328.89,-174.79 538.05,-172.91"/>
<polygon fill="black" stroke="black" points="538.2,-176.41 548.19,-172.87 538.17,-169.41 538.2,-176.41"/>
<text text-anchor="middle" x="542.69" y="-176.67" font-family="Times,serif" font-size="14.00">i2</text>
</g>
<!-- /router/A_tracker/forward_route -->
<g id="node6" class="node">
<title>/router/A_tracker/forward_route</title>
<polygon fill="white" stroke="black" points="1910.72,-616.52 1835.19,-628.96 1759.65,-616.52 1759.72,-596.4 1910.65,-596.4 1910.72,-616.52"/>
<text text-anchor="middle" x="1835.19" y="-607.26" font-family="Times,serif" font-size="14.00">forward_route</text>
</g>
<!-- /router/A_tracker/select_route -->
<g id="node21" class="node">
<title>/router/A_tracker/select_route</title>
<g id="a_node21"><a xlink:href="../../flowstdlib/control/select/select.html" xlink:title="select_route\n(select)">
<ellipse fill="coral" stroke="black" cx="1079.19" cy="-172.87" rx="57.97" ry="26.74"/>
<text text-anchor="middle" x="1079.19" y="-176.67" font-family="Times,serif" font-size="14.00">select_route</text>
<text text-anchor="middle" x="1079.19" y="-161.67" font-family="Times,serif" font-size="14.00">(select)</text>
</a>
</g>
</g>
<!-- /router/A_tracker/forward_route&#45;&gt;/router/A_tracker/select_route -->
<g id="edge18" class="edge">
<title>/router/A_tracker/forward_route:s&#45;&gt;/router/A_tracker/select_route:ne</title>
<path fill="none" stroke="black" d="M1835.19,-594.96C1835.19,-404.83 1760.81,-313.07 1581.19,-250.74 1575.39,-248.73 1181.42,-209.84 1113.17,-199.82"/>
<polygon fill="black" stroke="black" points="1113.67,-196.35 1103.19,-197.87 1112.33,-203.22 1113.67,-196.35"/>
<text text-anchor="middle" x="1097.69" y="-201.67" font-family="Times,serif" font-size="14.00">i1</text>
</g>
<!-- /router/A_tracker/forward_distance -->
<g id="node7" class="node">
<title>/router/A_tracker/forward_distance</title>
<polygon fill="white" stroke="black" points="1176.43,-616.52 1088.19,-628.96 999.94,-616.52 1000.03,-596.4 1176.35,-596.4 1176.43,-616.52"/>
<text text-anchor="middle" x="1088.19" y="-607.26" font-family="Times,serif" font-size="14.00">forward_distance</text>
</g>
<!-- /router/A_tracker/forward_distance&#45;&gt;/router/A_tracker/forward_sum -->
<g id="edge9" class="edge">
<title>/router/A_tracker/forward_distance:s&#45;&gt;/router/A_tracker/forward_sum:w</title>
<path fill="none" stroke="black" d="M1088.19,-594.96C1088.19,-573.48 1119.8,-592.51 1132.19,-574.96 1169.21,-522.49 1087.37,-433.21 1135.13,-423.26"/>
<polygon fill="black" stroke="black" points="1135.54,-426.74 1145.19,-422.35 1134.91,-419.76 1135.54,-426.74"/>
<text text-anchor="middle" x="1139.69" y="-426.15" font-family="Times,serif" font-size="14.00">i2</text>
</g>
<!-- /router/A_tracker/other_route -->
<g id="node8" class="node">
<title>/router/A_tracker/other_route</title>
<polygon fill="white" stroke="black" points="934.62,-616.52 871.19,-628.96 807.75,-616.52 807.81,-596.4 934.56,-596.4 934.62,-616.52"/>
<text text-anchor="middle" x="871.19" y="-607.26" font-family="Times,serif" font-size="14.00">other_route</text>
</g>
<!-- /router/A_tracker/other_route&#45;&gt;/router/A_tracker/select_route -->
<g id="edge19" class="edge">
<title>/router/A_tracker/other_route:s&#45;&gt;/router/A_tracker/select_route:w</title>
<path fill="none" stroke="black" d="M871.19,-594.96C871.19,-563.03 823.5,-598.73 802.19,-574.96 778.12,-548.13 788.19,-531.13 788.19,-495.09 788.19,-495.09 788.19,-495.09 788.19,-267.74 788.19,-229.31 722.31,-174.18 1009.81,-172.89"/>
<polygon fill="black" stroke="black" points="1010.19,-176.39 1020.19,-172.87 1010.18,-169.39 1010.19,-176.39"/>
<text text-anchor="middle" x="1014.69" y="-176.67" font-family="Times,serif" font-size="14.00">i2</text>
</g>
<!-- /router/A_tracker/other_distance -->
<g id="node9" class="node">
<title>/router/A_tracker/other_distance</title>
<polygon fill="white" stroke="black" points="1563.33,-616.52 1487.19,-628.96 1411.04,-616.52 1411.12,-596.4 1563.26,-596.4 1563.33,-616.52"/>
<text text-anchor="middle" x="1487.19" y="-607.26" font-family="Times,serif" font-size="14.00">other_distance</text>
</g>
<!-- /router/A_tracker/cross_sum -->
<g id="node15" class="node">
<title>/router/A_tracker/cross_sum</title>
<g id="a_node15"><a xlink:href="../../flowstdlib/math/add/add.html" xlink:title="cross_sum\n(add)">
<ellipse fill="coral" stroke="black" cx="1637.19" cy="-350.61" rx="52.15" ry="26.74"/>
<text text-anchor="middle" x="1637.19" y="-354.41" font-family="Times,serif" font-size="14.00">cross_sum</text>
<text text-anchor="middle" x="1637.19" y="-339.41" font-family="Times,serif" font-size="14.00">(add)</text>
</a>
</g>
</g>
<!-- /router/A_tracker/other_distance&#45;&gt;/router/A_tracker/cross_sum -->
<g id="edge11" class="edge">
<title>/router/A_tracker/other_distance:s&#45;&gt;/router/A_tracker/cross_sum:w</title>
<path fill="none" stroke="black" d="M1487.19,-594.96C1487.19,-546.2 1546.57,-564.67 1568.19,-520.96 1575.42,-506.32 1567.27,-391.04 1576.89,-358.9"/>
<polygon fill="black" stroke="black" points="1579.92,-360.69 1583.19,-350.61 1574.35,-356.46 1579.92,-360.69"/>
<text text-anchor="middle" x="1577.69" y="-354.41" font-family="Times,serif" font-size="14.00">i2</text>
</g>
<!-- /router/A_tracker/route -->
<g id="node10" class="node">
<title>/router/A_tracker/route</title>
<polygon fill="black" stroke="black" points="738.99,-12.44 774.19,0 809.38,-12.44 809.35,-32.56 739.02,-32.56 738.99,-12.44"/>
<text text-anchor="middle" x="774.19" y="-14.3" font-family="Times,serif" font-size="14.00" fill="white">route</text>
</g>
<!-- /router/A_tracker/distance -->
<g id="node11" class="node">
<title>/router/A_tracker/distance</title>
<polygon fill="black" stroke="black" points="1582.17,-12.44 1631.19,0 1680.2,-12.44 1680.15,-32.56 1582.22,-32.56 1582.17,-12.44"/>
<text text-anchor="middle" x="1631.19" y="-14.3" font-family="Times,serif" font-size="14.00" fill="white">distance</text>
</g>
<!-- /router/A_tracker/cross_distance&#45;&gt;/router/A_tracker/cross_sum -->
<g id="edge12" class="edge">
<title>/router/A_tracker/cross_distance:sw&#45;&gt;/router/A_tracker/cross_sum:ne</title>
<path fill="none" stroke="black" d="M1657.19,-468.09C1630.82,-441.73 1679.42,-411.09 1667.11,-383.92"/>
<polygon fill="black" stroke="black" points="1669.84,-381.72 1661.19,-375.61 1664.14,-385.78 1669.84,-381.72"/>
<text text-anchor="middle" x="1647.32" y="-425.39" font-family="Times,serif" font-size="14.00">sum</text>
<text text-anchor="middle" x="1655.69" y="-379.41" font-family="Times,serif" font-size="14.00">i1</text>
</g>
<!-- /router/A_tracker/compare -->
<g id="node17" class="node">
<title>/router/A_tracker/compare</title>
<g id="a_node17"><a xlink:href="../../flowstdlib/math/compare/compare.html" xlink:title="compare">
<ellipse fill="coral" stroke="black" cx="1194.19" cy="-268.74" rx="41.69" ry="18"/>
<text text-anchor="middle" x="1194.19" y="-265.04" font-family="Times,serif" font-size="14.00">compare</text>
</a>
</g>
</g>
<!-- /router/A_tracker/forward_sum&#45;&gt;/router/A_tracker/compare -->
<g id="edge13" class="edge">
<title>/router/A_tracker/forward_sum:sw&#45;&gt;/router/A_tracker/compare:ne</title>
<path fill="none" stroke="black" d="M1184.19,-396.35C1151.48,-363.65 1232.17,-328.24 1217.18,-295.11"/>
<polygon fill="black" stroke="black" points="1219.86,-292.83 1211.19,-286.74 1214.17,-296.91 1219.86,-292.83"/>
<text text-anchor="middle" x="1185.74" y="-345.28" font-family="Times,serif" font-size="14.00">sum</text>
<text text-anchor="middle" x="1201.69" y="-290.54" font-family="Times,serif" font-size="14.00">left</text>
</g>
<!-- /router/A_tracker/select_total -->
<g id="node24" class="node">
<title>/router/A_tracker/select_total</title>
<g id="a_node24"><a xlink:href="../../flowstdlib/control/select/select.html" xlink:title="select_total\n(select)">
<ellipse fill="coral" stroke="black" cx="1655.19" cy="-172.87" rx="55.31" ry="26.74"/>
<text text-anchor="middle" x="1655.19" y="-176.67" font-family="Times,serif" font-size="14.00">select_total</text>
<text text-anchor="middle" x="1655.19" y="-161.67" font-family="Times,serif" font-size="14.00">(select)</text>
</a>
</g>
</g>
<!-- /router/A_tracker/forward_sum&#45;&gt;/router/A_tracker/select_total -->
<g id="edge21" class="edge">
<title>/router/A_tracker/forward_sum:sw&#45;&gt;/router/A_tracker/select_total:ne</title>
<path fill="none" stroke="black" d="M1184.19,-396.35C1168.01,-380.17 1561.14,-297.77 1581.19,-286.74 1629.28,-260.28 1709.23,-242 1685.8,-205.86"/>
<polygon fill="black" stroke="black" points="1688.26,-203.34 1679.19,-197.87 1682.87,-207.81 1688.26,-203.34"/>
<text text-anchor="middle" x="1425.47" y="-327" font-family="Times,serif" font-size="14.00">sum</text>
<text text-anchor="middle" x="1673.69" y="-201.67" font-family="Times,serif" font-size="14.00">i1</text>
</g>
<!-- initializer/router/A_tracker/forward_sum_1 -->
<!-- initializer/router/A_tracker/forward_sum_1&#45;&gt;/router/A_tracker/forward_sum -->
<g id="edge1" class="edge">
<title>initializer/router/A_tracker/forward_sum_1&#45;&gt;/router/A_tracker/forward_sum:w</title>
<path fill="none" stroke="blue" stroke-dasharray="1,5" d="M978.48,-538.77C1002.58,-504.3 1062.75,-429.48 1134.92,-422.83"/>
<polygon fill="blue" stroke="blue" points="1135.36,-426.31 1145.19,-422.35 1135.03,-419.32 1135.36,-426.31"/>
<text text-anchor="middle" x="1042.69" y="-490.39" font-family="Times,serif" font-size="14.00">0</text>
</g>
<!-- /router/A_tracker/cross_sum&#45;&gt;/router/A_tracker/compare -->
<g id="edge14" class="edge">
<title>/router/A_tracker/cross_sum:sw&#45;&gt;/router/A_tracker/compare:ne</title>
<path fill="none" stroke="black" d="M1613.19,-325.61C1552.08,-264.5 1294.77,-343.88 1219.1,-293.19"/>
<polygon fill="black" stroke="black" points="1221.15,-290.35 1211.19,-286.74 1216.73,-295.77 1221.15,-290.35"/>
<text text-anchor="middle" x="1400.06" y="-309.98" font-family="Times,serif" font-size="14.00">sum</text>
<text text-anchor="middle" x="1224.19" y="-290.54" font-family="Times,serif" font-size="14.00">right</text>
</g>
<!-- /router/A_tracker/cross_sum&#45;&gt;/router/A_tracker/select_total -->
<g id="edge22" class="edge">
<title>/router/A_tracker/cross_sum:sw&#45;&gt;/router/A_tracker/select_total:w</title>
<path fill="none" stroke="black" d="M1613.19,-325.61C1591.72,-304.14 1570.35,-199.76 1590.01,-177.18"/>
<polygon fill="black" stroke="black" points="1591.62,-180.29 1599.19,-172.87 1588.65,-173.96 1591.62,-180.29"/>
<text text-anchor="middle" x="1598.14" y="-255.43" font-family="Times,serif" font-size="14.00">sum</text>
<text text-anchor="middle" x="1593.69" y="-176.67" font-family="Times,serif" font-size="14.00">i2</text>
</g>
<!-- initializer/router/A_tracker/cross_sum_1 -->
<!-- initializer/router/A_tracker/cross_sum_1&#45;&gt;/router/A_tracker/cross_sum -->
<g id="edge2" class="edge">
<title>initializer/router/A_tracker/cross_sum_1&#45;&gt;/router/A_tracker/cross_sum:w</title>
<path fill="none" stroke="blue" stroke-dasharray="1,5" d="M1439.53,-476.4C1476.32,-457.03 1534.36,-421.99 1571.19,-377.48 1576.14,-371.5 1574.83,-363.15 1575.69,-357.35"/>
<polygon fill="blue" stroke="blue" points="1578.09,-359.9 1583.19,-350.61 1573.41,-354.69 1578.09,-359.9"/>
<text text-anchor="middle" x="1555.69" y="-418.65" font-family="Times,serif" font-size="14.00">0</text>
</g>
<!-- /router/A_tracker/compare&#45;&gt;/router/A_tracker/select_string -->
<g id="edge17" class="edge">
<title>/router/A_tracker/compare:s&#45;&gt;/router/A_tracker/select_string:nw</title>
<path fill="none" stroke="black" d="M1194.19,-250.74C1194.19,-226.1 997.74,-234.81 973.19,-232.74 963.52,-231.93 653.74,-211.6 593.99,-201.84"/>
<polygon fill="black" stroke="black" points="594.77,-198.42 584.19,-198.87 592.74,-205.12 594.77,-198.42"/>
<text text-anchor="middle" x="911.27" y="-232.74" font-family="Times,serif" font-size="14.00">lte</text>
<text text-anchor="middle" x="564.69" y="-202.67" font-family="Times,serif" font-size="14.00">control</text>
</g>
<!-- /router/A_tracker/compare&#45;&gt;/router/A_tracker/select_route -->
<g id="edge20" class="edge">
<title>/router/A_tracker/compare:s&#45;&gt;/router/A_tracker/select_route:nw</title>
<path fill="none" stroke="black" d="M1194.19,-250.74C1194.19,-189.03 1032.3,-237.2 1048.83,-205.84"/>
<polygon fill="black" stroke="black" points="1051.68,-207.87 1055.19,-197.87 1046.21,-203.5 1051.68,-207.87"/>
<text text-anchor="middle" x="1117.78" y="-220.7" font-family="Times,serif" font-size="14.00">lte</text>
<text text-anchor="middle" x="1035.69" y="-201.67" font-family="Times,serif" font-size="14.00">control</text>
</g>
<!-- /router/A_tracker/compare&#45;&gt;/router/A_tracker/select_total -->
<g id="edge23" class="edge">
<title>/router/A_tracker/compare:s&#45;&gt;/router/A_tracker/select_total:nw</title>
<path fill="none" stroke="black" d="M1194.19,-250.74C1194.19,-228.05 1555.42,-216.84 1621.44,-201.53"/>
<polygon fill="black" stroke="black" points="1623.05,-204.66 1631.19,-197.87 1620.59,-198.11 1623.05,-204.66"/>
<text text-anchor="middle" x="1405.67" y="-224.94" font-family="Times,serif" font-size="14.00">lte</text>
<text text-anchor="middle" x="1611.69" y="-201.67" font-family="Times,serif" font-size="14.00">control</text>
</g>
<!-- /router/A_tracker/append -->
<g id="node25" class="node">
<title>/router/A_tracker/append</title>
<g id="a_node25"><a xlink:href="../../flowstdlib/data/append/append.html" xlink:title="append">
<ellipse fill="coral" stroke="black" cx="737.19" cy="-91" rx="36.29" ry="18"/>
<text text-anchor="middle" x="737.19" y="-87.3" font-family="Times,serif" font-size="14.00">append</text>
</a>
</g>
</g>
<!-- /router/A_tracker/select_string&#45;&gt;/router/A_tracker/append -->
<g id="edge25" class="edge">
<title>/router/A_tracker/select_string:sw&#45;&gt;/router/A_tracker/append:nw</title>
<path fill="none" stroke="black" d="M584.19,-146.87C541.79,-104.48 662.49,-147.68 713.38,-114.31"/>
<polygon fill="black" stroke="black" points="715.61,-117.01 721.19,-108 711.21,-111.56 715.61,-117.01"/>
<text text-anchor="middle" x="628.24" y="-131.9" font-family="Times,serif" font-size="14.00">select_i1</text>
<text text-anchor="middle" x="714.69" y="-111.8" font-family="Times,serif" font-size="14.00">s2</text>
</g>
<!-- initializer/router/A_tracker/select_string_0 -->
<!-- initializer/router/A_tracker/select_string_0&#45;&gt;/router/A_tracker/select_string -->
<g id="edge3" class="edge">
<title>initializer/router/A_tracker/select_string_0&#45;&gt;/router/A_tracker/select_string:ne</title>
<path fill="none" stroke="blue" d="M589.74,-251.64C617.7,-240.61 645.75,-224.89 639.92,-207.52"/>
<polygon fill="blue" stroke="blue" points="642.63,-205.27 634.19,-198.87 636.79,-209.14 642.63,-205.27"/>
<text text-anchor="middle" x="651.19" y="-221.54" font-family="Times,serif" font-size="14.00">&quot;A&quot;</text>
</g>
<!-- initializer/router/A_tracker/select_string_1 -->
<!-- initializer/router/A_tracker/select_string_1&#45;&gt;/router/A_tracker/select_string -->
<g id="edge4" class="edge">
<title>initializer/router/A_tracker/select_string_1&#45;&gt;/router/A_tracker/select_string:w</title>
<path fill="none" stroke="blue" d="M201.07,-251.22C268.56,-224.75 410.4,-175.55 537.86,-172.98"/>
<polygon fill="blue" stroke="blue" points="538.22,-176.47 548.19,-172.87 538.15,-169.47 538.22,-176.47"/>
<text text-anchor="middle" x="304.69" y="-221.54" font-family="Times,serif" font-size="14.00">&quot;BC&quot;</text>
</g>
<!-- /router/A_tracker/select_route&#45;&gt;/router/A_tracker/append -->
<g id="edge24" class="edge">
<title>/router/A_tracker/select_route:sw&#45;&gt;/router/A_tracker/append:w</title>
<path fill="none" stroke="black" d="M1055.19,-147.87C942.95,-35.64 809.37,-224.2 700.19,-109 698.03,-106.73 696.19,-103.48 695.21,-100.38"/>
<polygon fill="black" stroke="black" points="698.51,-101.57 699.19,-91 692.06,-98.84 698.51,-101.57"/>
<text text-anchor="middle" x="852" y="-133.36" font-family="Times,serif" font-size="14.00">select_i1</text>
<text text-anchor="middle" x="692.69" y="-94.8" font-family="Times,serif" font-size="14.00">s1</text>
</g>
<!-- initializer/router/A_tracker/select_route_0 -->
<!-- initializer/router/A_tracker/select_route_0&#45;&gt;/router/A_tracker/select_route -->
<g id="edge5" class="edge">
<title>initializer/router/A_tracker/select_route_0&#45;&gt;/router/A_tracker/select_route:ne</title>
<path fill="none" stroke="blue" stroke-dasharray="1,5" d="M1341.77,-252.63C1264.25,-236.1 1146.93,-210.7 1112.75,-201.17"/>
<polygon fill="blue" stroke="blue" points="1113.78,-197.82 1103.19,-197.87 1111.5,-204.44 1113.78,-197.82"/>
<text text-anchor="middle" x="1247.69" y="-221.54" font-family="Times,serif" font-size="14.00">&quot;&quot;</text>
</g>
<!-- initializer/router/A_tracker/select_route_1 -->
<!-- initializer/router/A_tracker/select_route_1&#45;&gt;/router/A_tracker/select_route -->
<g id="edge6" class="edge">
<title>initializer/router/A_tracker/select_route_1&#45;&gt;/router/A_tracker/select_route:w</title>
<path fill="none" stroke="blue" stroke-dasharray="1,5" d="M975.83,-250.34C977.67,-225.84 984.58,-183.18 1010.29,-174.46"/>
<polygon fill="blue" stroke="blue" points="1010.87,-177.91 1020.19,-172.87 1009.76,-171 1010.87,-177.91"/>
<text text-anchor="middle" x="985.69" y="-221.54" font-family="Times,serif" font-size="14.00">&quot;&quot;</text>
</g>
<!-- /router/A_tracker/select_total&#45;&gt;/router/A_tracker/distance -->
<g id="edge26" class="edge">
<title>/router/A_tracker/select_total:sw&#45;&gt;/router/A_tracker/distance:n</title>
<path fill="none" stroke="black" d="M1631.19,-147.87C1597.85,-114.53 1626.63,-88.4 1630.72,-44.06"/>
<polygon fill="black" stroke="black" points="1634.22,-44.15 1631.19,-34 1627.23,-43.83 1634.22,-44.15"/>
<text text-anchor="middle" x="1595.66" y="-91.8" font-family="Times,serif" font-size="14.00">select_i1</text>
</g>
<!-- /router/A_tracker/append&#45;&gt;/router/A_tracker/route -->
<g id="edge27" class="edge">
<title>/router/A_tracker/append:e&#45;&gt;/router/A_tracker/route:n</title>
<path fill="none" stroke="black" d="M775.19,-91C797.26,-91 780.12,-66.97 775.33,-44.03"/>
<polygon fill="black" stroke="black" points="778.8,-43.54 774.19,-34 771.84,-44.33 778.8,-43.54"/>
</g>
</g>
</svg>
