<?xml version="1.0" encoding="UTF-8" standalone="no"?>
<!DOCTYPE svg PUBLIC "-//W3C//DTD SVG 1.1//EN"
 "http://www.w3.org/Graphics/SVG/1.1/DTD/svg11.dtd">
<!-- Generated by graphviz version 2.40.1 (20161225.0304)
 -->
<!-- Title: A_tracker Pages: 1 -->
<svg width="2448pt" height="718pt"
 viewBox="28.80 28.80 2418.98 688.76" xmlns="http://www.w3.org/2000/svg" xmlns:xlink="http://www.w3.org/1999/xlink">
<g id="graph0" class="graph" transform="scale(1 1) rotate(0) translate(32.8 684.7605)">
<title>A_tracker</title>
<polygon fill="#ffffff" stroke="transparent" points="-4,4 -4,-655.9605 2386.1827,-655.9605 2386.1827,4 -4,4"/>
<text text-anchor="middle" x="1191.0913" y="-636.7605" font-family="Times,serif" font-size="14.00" fill="#000000">A_tracker</text>
<!-- /router/A_tracker/forward -->
<g id="node1" class="node">
<title>/router/A_tracker/forward</title>
<polygon fill="#ffffff" stroke="#000000" points="1621.3741,-616.5228 1562.5813,-628.9605 1503.7885,-616.5228 1503.8434,-596.3982 1621.3192,-596.3982 1621.3741,-616.5228"/>
<text text-anchor="middle" x="1562.5813" y="-607.2605" font-family="Times,serif" font-size="14.00" fill="#000000">forward</text>
</g>
<!-- /router/A_tracker/forward_sum -->
<g id="node13" class="node">
<title>/router/A_tracker/forward_sum</title>
<g id="a_node13"><a xlink:href="../../flowstdlib/math/add/add.html" xlink:title="forward_sum\n(add)">
<ellipse fill="#ff7f50" stroke="#000000" cx="1522.5813" cy="-422.3503" rx="77.5641" ry="26.7407"/>
<text text-anchor="middle" x="1522.5813" y="-426.1503" font-family="Times,serif" font-size="14.00" fill="#000000">forward_sum</text>
<text text-anchor="middle" x="1522.5813" y="-411.1503" font-family="Times,serif" font-size="14.00" fill="#000000">(add)</text>
</a>
</g>
</g>
<!-- /router/A_tracker/forward&#45;&gt;/router/A_tracker/forward_sum -->
<g id="edge10" class="edge">
<title>/router/A_tracker/forward:s&#45;&gt;/router/A_tracker/forward_sum:ne</title>
<path fill="none" stroke="#000000" d="M1562.5813,-595.9605C1562.5813,-562.388 1556.9457,-554.3639 1553.5813,-520.9605 1552.9292,-514.4861 1553.1871,-475.6423 1550.4286,-456.9427"/>
<polygon fill="#000000" stroke="#000000" points="1553.7823,-455.9409 1547.5813,-447.3503 1547.0717,-457.9329 1553.7823,-455.9409"/>
<text text-anchor="middle" x="1540.5813" y="-451.1503" font-family="Times,serif" font-size="14.00" fill="#000000">i1</text>
</g>
<!-- /router/A_tracker/cross -->
<g id="node2" class="node">
<title>/router/A_tracker/cross</title>
<polygon fill="#ffffff" stroke="#000000" points="2172.9531,-616.5228 2128.5813,-628.9605 2084.2095,-616.5228 2084.2509,-596.3982 2172.9117,-596.3982 2172.9531,-616.5228"/>
<text text-anchor="middle" x="2128.5813" y="-607.2605" font-family="Times,serif" font-size="14.00" fill="#000000">cross</text>
</g>
<!-- /router/A_tracker/cross_distance -->
<g id="node12" class="node">
<title>/router/A_tracker/cross_distance</title>
<g id="a_node12"><a xlink:href="../../flowstdlib/math/add/add.html" xlink:title="cross_distance\n(add)">
<ellipse fill="#ff7f50" stroke="#000000" cx="2105.5813" cy="-494.0904" rx="86.9483" ry="26.7407"/>
<text text-anchor="middle" x="2105.5813" y="-497.8904" font-family="Times,serif" font-size="14.00" fill="#000000">cross_distance</text>
<text text-anchor="middle" x="2105.5813" y="-482.8904" font-family="Times,serif" font-size="14.00" fill="#000000">(add)</text>
</a>
</g>
</g>
<!-- /router/A_tracker/cross&#45;&gt;/router/A_tracker/cross_distance -->
<g id="edge7" class="edge">
<title>/router/A_tracker/cross:s&#45;&gt;/router/A_tracker/cross_distance:ne</title>
<path fill="none" stroke="#000000" d="M2128.5813,-595.9605C2128.5813,-566.0369 2149.7023,-548.2888 2137.8508,-528.0149"/>
<polygon fill="#000000" stroke="#000000" points="2140.5307,-525.7613 2131.5813,-520.0904 2135.041,-530.1045 2140.5307,-525.7613"/>
<text text-anchor="middle" x="2124.5813" y="-523.8904" font-family="Times,serif" font-size="14.00" fill="#000000">i1</text>
</g>
<!-- /router/A_tracker/other -->
<g id="node3" class="node">
<title>/router/A_tracker/other</title>
<polygon fill="#ffffff" stroke="#000000" points="2066.9531,-616.5228 2022.5813,-628.9605 1978.2095,-616.5228 1978.2509,-596.3982 2066.9117,-596.3982 2066.9531,-616.5228"/>
<text text-anchor="middle" x="2022.5813" y="-607.2605" font-family="Times,serif" font-size="14.00" fill="#000000">other</text>
</g>
<!-- /router/A_tracker/other&#45;&gt;/router/A_tracker/cross_distance -->
<g id="edge8" class="edge">
<title>/router/A_tracker/other:s&#45;&gt;/router/A_tracker/cross_distance:w</title>
<path fill="none" stroke="#000000" d="M2022.5813,-595.9605C2022.5813,-577.2876 2004.4734,-520.1917 2010.7926,-500.6959"/>
<polygon fill="#000000" stroke="#000000" points="2013.2185,-503.2278 2018.5813,-494.0904 2008.6909,-497.8891 2013.2185,-503.2278"/>
<text text-anchor="middle" x="2011.5813" y="-497.8904" font-family="Times,serif" font-size="14.00" fill="#000000">i2</text>
</g>
<!-- /router/A_tracker/forward_string -->
<g id="node4" class="node">
<title>/router/A_tracker/forward_string</title>
<polygon fill="#ffffff" stroke="#000000" points="997.2114,-616.5228 898.5813,-628.9605 799.9512,-616.5228 800.0433,-596.3982 997.1193,-596.3982 997.2114,-616.5228"/>
<text text-anchor="middle" x="898.5813" y="-607.2605" font-family="Times,serif" font-size="14.00" fill="#000000">forward_string</text>
</g>
<!-- /router/A_tracker/select_string -->
<g id="node18" class="node">
<title>/router/A_tracker/select_string</title>
<g id="a_node18"><a xlink:href="../../flowstdlib/control/select/select.html" xlink:title="select_string\n(select)">
<ellipse fill="#ff7f50" stroke="#000000" cx="783.5813" cy="-172.8701" rx="77.5641" ry="26.7407"/>
<text text-anchor="middle" x="783.5813" y="-176.6701" font-family="Times,serif" font-size="14.00" fill="#000000">select_string</text>
<text text-anchor="middle" x="783.5813" y="-161.6701" font-family="Times,serif" font-size="14.00" fill="#000000">(select)</text>
</a>
</g>
</g>
<!-- /router/A_tracker/forward_string&#45;&gt;/router/A_tracker/select_string -->
<g id="edge15" class="edge">
<title>/router/A_tracker/forward_string:s&#45;&gt;/router/A_tracker/select_string:ne</title>
<path fill="none" stroke="#000000" d="M898.5813,-595.9605C898.5813,-548.886 927.5813,-541.1648 927.5813,-494.0904 927.5813,-494.0904 927.5813,-494.0904 927.5813,-268.7401 927.5813,-257.1079 918.0326,-257.5212 908.5813,-250.7401 899.9251,-244.5295 840.4774,-217.2452 817.1525,-203.6633"/>
<polygon fill="#000000" stroke="#000000" points="818.8263,-200.5702 808.5813,-197.8701 814.9064,-206.3697 818.8263,-200.5702"/>
<text text-anchor="middle" x="801.5813" y="-201.6701" font-family="Times,serif" font-size="14.00" fill="#000000">i1</text>
</g>
<!-- /router/A_tracker/cross_string -->
<g id="node5" class="node">
<title>/router/A_tracker/cross_string</title>
<polygon fill="#ffffff" stroke="#000000" points="533.7899,-616.5228 449.5813,-628.9605 365.3728,-616.5228 365.4514,-596.3982 533.7113,-596.3982 533.7899,-616.5228"/>
<text text-anchor="middle" x="449.5813" y="-607.2605" font-family="Times,serif" font-size="14.00" fill="#000000">cross_string</text>
</g>
<!-- /router/A_tracker/cross_string&#45;&gt;/router/A_tracker/select_string -->
<g id="edge16" class="edge">
<title>/router/A_tracker/cross_string:s&#45;&gt;/router/A_tracker/select_string:w</title>
<path fill="none" stroke="#000000" d="M449.5813,-595.9605C449.5813,-550.6849 449.5813,-539.366 449.5813,-494.0904 449.5813,-494.0904 449.5813,-494.0904 449.5813,-268.7401 449.5813,-224.707 366.5119,-173.923 695.2314,-172.8862"/>
<polygon fill="#000000" stroke="#000000" points="695.5868,-176.3857 705.5813,-172.8701 695.5758,-169.3858 695.5868,-176.3857"/>
<text text-anchor="middle" x="698.5813" y="-176.6701" font-family="Times,serif" font-size="14.00" fill="#000000">i2</text>
</g>
<!-- /router/A_tracker/forward_route -->
<g id="node6" class="node">
<title>/router/A_tracker/forward_route</title>
<polygon fill="#ffffff" stroke="#000000" points="2382.2842,-616.5228 2286.5813,-628.9605 2190.8785,-616.5228 2190.9678,-596.3982 2382.1948,-596.3982 2382.2842,-616.5228"/>
<text text-anchor="middle" x="2286.5813" y="-607.2605" font-family="Times,serif" font-size="14.00" fill="#000000">forward_route</text>
</g>
<!-- /router/A_tracker/select_route -->
<g id="node21" class="node">
<title>/router/A_tracker/select_route</title>
<g id="a_node21"><a xlink:href="../../flowstdlib/control/select/select.html" xlink:title="select_route\n(select)">
<ellipse fill="#ff7f50" stroke="#000000" cx="1360.5813" cy="-172.8701" rx="74.4932" ry="26.7407"/>
<text text-anchor="middle" x="1360.5813" y="-176.6701" font-family="Times,serif" font-size="14.00" fill="#000000">select_route</text>
<text text-anchor="middle" x="1360.5813" y="-161.6701" font-family="Times,serif" font-size="14.00" fill="#000000">(select)</text>
</a>
</g>
</g>
<!-- /router/A_tracker/forward_route&#45;&gt;/router/A_tracker/select_route -->
<g id="edge18" class="edge">
<title>/router/A_tracker/forward_route:s&#45;&gt;/router/A_tracker/select_route:ne</title>
<path fill="none" stroke="#000000" d="M2286.5813,-595.9605C2286.5813,-396.4321 2190.27,-309.4717 1999.5813,-250.7401 1984.3075,-246.0358 1472.9425,-214.5844 1395.2443,-200.5781"/>
<polygon fill="#000000" stroke="#000000" points="1396.1548,-197.1985 1385.5813,-197.8701 1394.2658,-203.9388 1396.1548,-197.1985"/>
<text text-anchor="middle" x="1378.5813" y="-201.6701" font-family="Times,serif" font-size="14.00" fill="#000000">i1</text>
</g>
<!-- /router/A_tracker/forward_distance -->
<g id="node7" class="node">
<title>/router/A_tracker/forward_distance</title>
<polygon fill="#ffffff" stroke="#000000" points="1485.6329,-616.5228 1372.5813,-628.9605 1259.5297,-616.5228 1259.6352,-596.3982 1485.5274,-596.3982 1485.6329,-616.5228"/>
<text text-anchor="middle" x="1372.5813" y="-607.2605" font-family="Times,serif" font-size="14.00" fill="#000000">forward_distance</text>
</g>
<!-- /router/A_tracker/forward_distance&#45;&gt;/router/A_tracker/forward_sum -->
<g id="edge9" class="edge">
<title>/router/A_tracker/forward_distance:s&#45;&gt;/router/A_tracker/forward_sum:w</title>
<path fill="none" stroke="#000000" d="M1372.5813,-595.9605C1372.5813,-568.545 1413.8278,-596.6613 1430.5813,-574.9605 1469.8465,-524.1001 1386.874,-433.387 1434.5299,-423.2741"/>
<polygon fill="#000000" stroke="#000000" points="1434.9437,-426.7509 1444.5813,-422.3503 1434.3029,-419.7803 1434.9437,-426.7509"/>
<text text-anchor="middle" x="1437.5813" y="-426.1503" font-family="Times,serif" font-size="14.00" fill="#000000">i2</text>
</g>
<!-- /router/A_tracker/other_route -->
<g id="node8" class="node">
<title>/router/A_tracker/other_route</title>
<polygon fill="#ffffff" stroke="#000000" points="1177.8629,-616.5228 1096.5813,-628.9605 1015.2997,-616.5228 1015.3756,-596.3982 1177.787,-596.3982 1177.8629,-616.5228"/>
<text text-anchor="middle" x="1096.5813" y="-607.2605" font-family="Times,serif" font-size="14.00" fill="#000000">other_route</text>
</g>
<!-- /router/A_tracker/other_route&#45;&gt;/router/A_tracker/select_route -->
<g id="edge19" class="edge">
<title>/router/A_tracker/other_route:s&#45;&gt;/router/A_tracker/select_route:w</title>
<path fill="none" stroke="#000000" d="M1096.5813,-595.9605C1096.5813,-554.886 1034.7738,-604.8318 1006.5813,-574.9605 981.5445,-548.4327 992.5813,-530.5673 992.5813,-494.0904 992.5813,-494.0904 992.5813,-494.0904 992.5813,-268.7401 992.5813,-218.5049 838.2159,-173.5553 1275.4741,-172.8778"/>
<polygon fill="#000000" stroke="#000000" points="1275.584,-176.3778 1285.5813,-172.8701 1275.5786,-169.3778 1275.584,-176.3778"/>
<text text-anchor="middle" x="1278.5813" y="-176.6701" font-family="Times,serif" font-size="14.00" fill="#000000">i2</text>
</g>
<!-- /router/A_tracker/other_distance -->
<g id="node9" class="node">
<title>/router/A_tracker/other_distance</title>
<polygon fill="#ffffff" stroke="#000000" points="1960.2114,-616.5228 1861.5813,-628.9605 1762.9512,-616.5228 1763.0433,-596.3982 1960.1193,-596.3982 1960.2114,-616.5228"/>
<text text-anchor="middle" x="1861.5813" y="-607.2605" font-family="Times,serif" font-size="14.00" fill="#000000">other_distance</text>
</g>
<!-- /router/A_tracker/cross_sum -->
<g id="node15" class="node">
<title>/router/A_tracker/cross_sum</title>
<g id="a_node15"><a xlink:href="../../flowstdlib/math/add/add.html" xlink:title="cross_sum\n(add)">
<ellipse fill="#ff7f50" stroke="#000000" cx="2055.5813" cy="-350.6102" rx="65.1077" ry="26.7407"/>
<text text-anchor="middle" x="2055.5813" y="-354.4102" font-family="Times,serif" font-size="14.00" fill="#000000">cross_sum</text>
<text text-anchor="middle" x="2055.5813" y="-339.4102" font-family="Times,serif" font-size="14.00" fill="#000000">(add)</text>
</a>
</g>
</g>
<!-- /router/A_tracker/other_distance&#45;&gt;/router/A_tracker/cross_sum -->
<g id="edge11" class="edge">
<title>/router/A_tracker/other_distance:s&#45;&gt;/router/A_tracker/cross_sum:w</title>
<path fill="none" stroke="#000000" d="M1861.5813,-595.9605C1861.5813,-536.7892 1941.0717,-571.6595 1971.5813,-520.9605 1980.0587,-506.8732 1973.8657,-390.1542 1984.2668,-358.5021"/>
<polygon fill="#000000" stroke="#000000" points="1987.0666,-360.6051 1990.5813,-350.6102 1981.6009,-356.2318 1987.0666,-360.6051"/>
<text text-anchor="middle" x="1983.5813" y="-354.4102" font-family="Times,serif" font-size="14.00" fill="#000000">i2</text>
</g>
<!-- /router/A_tracker/route -->
<g id="node10" class="node">
<title>/router/A_tracker/route</title>
<polygon fill="#000000" stroke="#000000" points="1049.2095,-12.4377 1093.5813,0 1137.9531,-12.4377 1137.9117,-32.5623 1049.2509,-32.5623 1049.2095,-12.4377"/>
<text text-anchor="middle" x="1093.5813" y="-14.3" font-family="Times,serif" font-size="14.00" fill="#ffffff">route</text>
</g>
<!-- /router/A_tracker/distance -->
<g id="node11" class="node">
<title>/router/A_tracker/distance</title>
<polygon fill="#000000" stroke="#000000" points="1992.8616,-12.4377 2054.5813,0 2116.3011,-12.4377 2116.2435,-32.5623 1992.9192,-32.5623 1992.8616,-12.4377"/>
<text text-anchor="middle" x="2054.5813" y="-14.3" font-family="Times,serif" font-size="14.00" fill="#ffffff">distance</text>
</g>
<!-- /router/A_tracker/cross_distance&#45;&gt;/router/A_tracker/cross_sum -->
<g id="edge12" class="edge">
<title>/router/A_tracker/cross_distance:sw&#45;&gt;/router/A_tracker/cross_sum:ne</title>
<path fill="none" stroke="#000000" d="M2079.5813,-468.0904C2053.2408,-441.7499 2099.3349,-411.0697 2086.5758,-383.9154"/>
<polygon fill="#000000" stroke="#000000" points="2089.2719,-381.6703 2080.5813,-375.6102 2083.5959,-385.7671 2089.2719,-381.6703"/>
<text text-anchor="middle" x="2064.7024" y="-425.3948" font-family="Times,serif" font-size="14.00" fill="#000000">sum</text>
<text text-anchor="middle" x="2073.5813" y="-379.4102" font-family="Times,serif" font-size="14.00" fill="#000000">i1</text>
</g>
<!-- /router/A_tracker/compare -->
<g id="node17" class="node">
<title>/router/A_tracker/compare</title>
<g id="a_node17"><a xlink:href="../../flowstdlib/math/compare/compare.html" xlink:title="compare">
<ellipse fill="#ff7f50" stroke="#000000" cx="1505.5813" cy="-268.7401" rx="51.1914" ry="18"/>
<text text-anchor="middle" x="1505.5813" y="-265.0401" font-family="Times,serif" font-size="14.00" fill="#000000">compare</text>
</a>
</g>
</g>
<!-- /router/A_tracker/forward_sum&#45;&gt;/router/A_tracker/compare -->
<g id="edge13" class="edge">
<title>/router/A_tracker/forward_sum:sw&#45;&gt;/router/A_tracker/compare:ne</title>
<path fill="none" stroke="#000000" d="M1497.5813,-397.3503C1464.3042,-364.0732 1544.8758,-327.5602 1528.4981,-293.8028"/>
<polygon fill="#000000" stroke="#000000" points="1531.3195,-291.7314 1522.5813,-285.7401 1525.676,-295.8729 1531.3195,-291.7314"/>
<text text-anchor="middle" x="1494.4948" y="-345.4526" font-family="Times,serif" font-size="14.00" fill="#000000">sum</text>
<text text-anchor="middle" x="1510.0813" y="-289.5401" font-family="Times,serif" font-size="14.00" fill="#000000">left</text>
</g>
<!-- /router/A_tracker/select_total -->
<g id="node24" class="node">
<title>/router/A_tracker/select_total</title>
<g id="a_node24"><a xlink:href="../../flowstdlib/control/select/select.html" xlink:title="select_total\n(select)">
<ellipse fill="#ff7f50" stroke="#000000" cx="2080.5813" cy="-172.8701" rx="70.922" ry="26.7407"/>
<text text-anchor="middle" x="2080.5813" y="-176.6701" font-family="Times,serif" font-size="14.00" fill="#000000">select_total</text>
<text text-anchor="middle" x="2080.5813" y="-161.6701" font-family="Times,serif" font-size="14.00" fill="#000000">(select)</text>
</a>
</g>
</g>
<!-- /router/A_tracker/forward_sum&#45;&gt;/router/A_tracker/select_total -->
<g id="edge21" class="edge">
<title>/router/A_tracker/forward_sum:sw&#45;&gt;/router/A_tracker/select_total:ne</title>
<path fill="none" stroke="#000000" d="M1497.5813,-397.3503C1477.3879,-377.1568 1973.894,-299.2186 1999.5813,-286.7401 2051.4727,-261.5322 2138.3542,-244.6031 2113.1584,-206.7321"/>
<polygon fill="#000000" stroke="#000000" points="2115.6823,-204.2943 2106.5813,-198.8701 2110.3133,-208.7859 2115.6823,-204.2943"/>
<text text-anchor="middle" x="1791.6095" y="-328.8384" font-family="Times,serif" font-size="14.00" fill="#000000">sum</text>
<text text-anchor="middle" x="2099.5813" y="-202.6701" font-family="Times,serif" font-size="14.00" fill="#000000">i1</text>
</g>
<!-- initializer/router/A_tracker/forward_sum_1 -->
<!-- initializer/router/A_tracker/forward_sum_1&#45;&gt;/router/A_tracker/forward_sum -->
<g id="edge1" class="edge">
<title>initializer/router/A_tracker/forward_sum_1&#45;&gt;/router/A_tracker/forward_sum:w</title>
<path fill="none" stroke="#0000ff" stroke-dasharray="1,5" d="M1234.7246,-538.8063C1267.9637,-503.4629 1348.1878,-428.3599 1434.3246,-422.6904"/>
<polygon fill="#0000ff" stroke="#0000ff" points="1434.7028,-426.1799 1444.5813,-422.3503 1434.4708,-419.1837 1434.7028,-426.1799"/>
<text text-anchor="middle" x="1318.5813" y="-490.3904" font-family="Times,serif" font-size="14.00" fill="#000000">0</text>
</g>
<!-- /router/A_tracker/cross_sum&#45;&gt;/router/A_tracker/compare -->
<g id="edge14" class="edge">
<title>/router/A_tracker/cross_sum:sw&#45;&gt;/router/A_tracker/compare:ne</title>
<path fill="none" stroke="#000000" d="M2030.5813,-325.6102C1952.8571,-247.886 1622.8039,-358.935 1530.2948,-292.2717"/>
<polygon fill="#000000" stroke="#000000" points="1532.4746,-289.5313 1522.5813,-285.7401 1527.9511,-294.8734 1532.4746,-289.5313"/>
<text text-anchor="middle" x="1761.3568" y="-309.4493" font-family="Times,serif" font-size="14.00" fill="#000000">sum</text>
<text text-anchor="middle" x="1540.5813" y="-289.5401" font-family="Times,serif" font-size="14.00" fill="#000000">right</text>
</g>
<!-- /router/A_tracker/cross_sum&#45;&gt;/router/A_tracker/select_total -->
<g id="edge22" class="edge">
<title>/router/A_tracker/cross_sum:sw&#45;&gt;/router/A_tracker/select_total:w</title>
<path fill="none" stroke="#000000" d="M2030.5813,-325.6102C2009.0992,-304.128 1982.2638,-200.6481 2000.3467,-177.4791"/>
<polygon fill="#000000" stroke="#000000" points="2002.1969,-180.4675 2009.5813,-172.8701 1999.0708,-174.2043 2002.1969,-180.4675"/>
<text text-anchor="middle" x="2016.1062" y="-255.8851" font-family="Times,serif" font-size="14.00" fill="#000000">sum</text>
<text text-anchor="middle" x="2002.5813" y="-176.6701" font-family="Times,serif" font-size="14.00" fill="#000000">i2</text>
</g>
<!-- initializer/router/A_tracker/cross_sum_1 -->
<!-- initializer/router/A_tracker/cross_sum_1&#45;&gt;/router/A_tracker/cross_sum -->
<g id="edge2" class="edge">
<title>initializer/router/A_tracker/cross_sum_1&#45;&gt;/router/A_tracker/cross_sum:w</title>
<path fill="none" stroke="#0000ff" stroke-dasharray="1,5" d="M1812.9632,-476.5299C1860.1029,-458.0046 1930.0488,-424.8864 1976.5813,-377.4802 1982.3295,-371.6241 1981.2704,-362.9273 1982.613,-357.0264"/>
<polygon fill="#0000ff" stroke="#0000ff" points="1984.9876,-359.608 1990.5813,-350.6102 1980.5974,-354.1558 1984.9876,-359.608"/>
<text text-anchor="middle" x="1956.5813" y="-418.6503" font-family="Times,serif" font-size="14.00" fill="#000000">0</text>
</g>
<!-- /router/A_tracker/compare&#45;&gt;/router/A_tracker/select_string -->
<g id="edge17" class="edge">
<title>/router/A_tracker/compare:s&#45;&gt;/router/A_tracker/select_string:nw</title>
<path fill="none" stroke="#000000" d="M1505.5813,-250.7401C1505.5813,-235.4296 1245.8548,-233.8041 1230.5813,-232.7401 1218.7214,-231.9139 834.7299,-211.6689 768.2146,-200.927"/>
<polygon fill="#000000" stroke="#000000" points="769.1716,-197.5587 758.5813,-197.8701 767.0543,-204.2308 769.1716,-197.5587"/>
<text text-anchor="middle" x="1153.1939" y="-232.7317" font-family="Times,serif" font-size="14.00" fill="#000000">lte</text>
<text text-anchor="middle" x="732.5813" y="-201.6701" font-family="Times,serif" font-size="14.00" fill="#000000">control</text>
</g>
<!-- /router/A_tracker/compare&#45;&gt;/router/A_tracker/select_route -->
<g id="edge20" class="edge">
<title>/router/A_tracker/compare:s&#45;&gt;/router/A_tracker/select_route:nw</title>
<path fill="none" stroke="#000000" d="M1505.5813,-250.7401C1505.5813,-175.9421 1303.6689,-245.3113 1328.8482,-205.8588"/>
<polygon fill="#000000" stroke="#000000" points="1331.813,-207.7721 1335.5813,-197.8701 1326.4605,-203.2609 1331.813,-207.7721"/>
<text text-anchor="middle" x="1410.5107" y="-218.1737" font-family="Times,serif" font-size="14.00" fill="#000000">lte</text>
<text text-anchor="middle" x="1309.5813" y="-201.6701" font-family="Times,serif" font-size="14.00" fill="#000000">control</text>
</g>
<!-- /router/A_tracker/compare&#45;&gt;/router/A_tracker/select_total -->
<g id="edge23" class="edge">
<title>/router/A_tracker/compare:s&#45;&gt;/router/A_tracker/select_total:nw</title>
<path fill="none" stroke="#000000" d="M1505.5813,-250.7401C1505.5813,-192.2209 1966.8445,-237.6885 2046.0312,-204.1464"/>
<polygon fill="#000000" stroke="#000000" points="2047.9094,-207.1002 2054.5813,-198.8701 2044.2332,-201.1432 2047.9094,-207.1002"/>
<text text-anchor="middle" x="1770.5236" y="-221.8979" font-family="Times,serif" font-size="14.00" fill="#000000">lte</text>
<text text-anchor="middle" x="2028.5813" y="-202.6701" font-family="Times,serif" font-size="14.00" fill="#000000">control</text>
</g>
<!-- /router/A_tracker/append -->
<g id="node25" class="node">
<title>/router/A_tracker/append</title>
<g id="a_node25"><a xlink:href="../../flowstdlib/data/append/append.html" xlink:title="append">
<ellipse fill="#ff7f50" stroke="#000000" cx="1048.5813" cy="-91" rx="44.6926" ry="18"/>
<text text-anchor="middle" x="1048.5813" y="-87.3" font-family="Times,serif" font-size="14.00" fill="#000000">append</text>
</a>
</g>
</g>
<!-- /router/A_tracker/select_string&#45;&gt;/router/A_tracker/append -->
<g id="edge25" class="edge">
<title>/router/A_tracker/select_string:sw&#45;&gt;/router/A_tracker/append:nw</title>
<path fill="none" stroke="#000000" d="M758.5813,-147.8701C674.2464,-63.5352 930.2148,-187.5674 1024.062,-114.6276"/>
<polygon fill="#000000" stroke="#000000" points="1026.3937,-117.2379 1031.5813,-108 1021.7651,-111.9866 1026.3937,-117.2379"/>
<text text-anchor="middle" x="862.4974" y="-125.6965" font-family="Times,serif" font-size="14.00" fill="#000000">select_i1</text>
<text text-anchor="middle" x="1023.0813" y="-111.8" font-family="Times,serif" font-size="14.00" fill="#000000">s2</text>
</g>
<!-- initializer/router/A_tracker/select_string_0 -->
<!-- initializer/router/A_tracker/select_string_0&#45;&gt;/router/A_tracker/select_string -->
<g id="edge3" class="edge">
<title>initializer/router/A_tracker/select_string_0&#45;&gt;/router/A_tracker/select_string:ne</title>
<path fill="none" stroke="#0000ff" d="M759.144,-251.6886C792.4545,-240.8986 823.2422,-225.3435 814.529,-206.0533"/>
<polygon fill="#0000ff" stroke="#0000ff" points="817.2918,-203.9015 808.5813,-197.8701 811.6294,-208.017 817.2918,-203.9015"/>
<text text-anchor="middle" x="827.0813" y="-221.5401" font-family="Times,serif" font-size="14.00" fill="#000000">&quot;A&quot;</text>
</g>
<!-- initializer/router/A_tracker/select_string_1 -->
<!-- initializer/router/A_tracker/select_string_1&#45;&gt;/router/A_tracker/select_string -->
<g id="edge4" class="edge">
<title>initializer/router/A_tracker/select_string_1&#45;&gt;/router/A_tracker/select_string:w</title>
<path fill="none" stroke="#0000ff" d="M264.4881,-251.2675C352.8804,-224.1824 534.886,-174.9417 695.5208,-172.9334"/>
<polygon fill="#0000ff" stroke="#0000ff" points="695.6036,-176.4331 705.5813,-172.8701 695.5594,-169.4332 695.6036,-176.4331"/>
<text text-anchor="middle" x="404.5813" y="-221.5401" font-family="Times,serif" font-size="14.00" fill="#000000">&quot;BC&quot;</text>
</g>
<!-- /router/A_tracker/select_route&#45;&gt;/router/A_tracker/append -->
<g id="edge24" class="edge">
<title>/router/A_tracker/select_route:sw&#45;&gt;/router/A_tracker/append:w</title>
<path fill="none" stroke="#000000" d="M1335.5813,-147.8701C1230.5311,-42.8199 1102.335,-219.9901 1003.5813,-109 1001.421,-106.572 999.6956,-103.146 998.9447,-99.9337"/>
<polygon fill="#000000" stroke="#000000" points="1002.0812,-101.4881 1003.5813,-91 995.8681,-98.2635 1002.0812,-101.4881"/>
<text text-anchor="middle" x="1135.178" y="-134.4752" font-family="Times,serif" font-size="14.00" fill="#000000">select_i1</text>
<text text-anchor="middle" x="995.0813" y="-94.8" font-family="Times,serif" font-size="14.00" fill="#000000">s1</text>
</g>
<!-- initializer/router/A_tracker/select_route_0 -->
<!-- initializer/router/A_tracker/select_route_0&#45;&gt;/router/A_tracker/select_route -->
<g id="edge5" class="edge">
<title>initializer/router/A_tracker/select_route_0&#45;&gt;/router/A_tracker/select_route:ne</title>
<path fill="none" stroke="#0000ff" stroke-dasharray="1,5" d="M1660.9261,-254.0978C1561.801,-241.1426 1432.2502,-221.5372 1394.2874,-203.4318"/>
<polygon fill="#0000ff" stroke="#0000ff" points="1395.8928,-200.3041 1385.5813,-197.8701 1392.1242,-206.2032 1395.8928,-200.3041"/>
<text text-anchor="middle" x="1512.5813" y="-221.5401" font-family="Times,serif" font-size="14.00" fill="#000000">&quot;&quot;</text>
</g>
<!-- initializer/router/A_tracker/select_route_1 -->
<!-- initializer/router/A_tracker/select_route_1&#45;&gt;/router/A_tracker/select_route -->
<g id="edge6" class="edge">
<title>initializer/router/A_tracker/select_route_1&#45;&gt;/router/A_tracker/select_route:w</title>
<path fill="none" stroke="#0000ff" stroke-dasharray="1,5" d="M1231.0361,-250.7077C1235.4452,-225.757 1247.0442,-182.8098 1275.3338,-174.3435"/>
<polygon fill="#0000ff" stroke="#0000ff" points="1276.1813,-177.7578 1285.5813,-172.8701 1275.1849,-170.829 1276.1813,-177.7578"/>
<text text-anchor="middle" x="1245.5813" y="-221.5401" font-family="Times,serif" font-size="14.00" fill="#000000">&quot;&quot;</text>
</g>
<!-- /router/A_tracker/select_total&#45;&gt;/router/A_tracker/distance -->
<g id="edge26" class="edge">
<title>/router/A_tracker/select_total:sw&#45;&gt;/router/A_tracker/distance:n</title>
<path fill="none" stroke="#000000" d="M2054.5813,-146.8701C2021.2417,-113.5305 2050.0232,-87.4041 2054.1139,-43.0645"/>
<polygon fill="#000000" stroke="#000000" points="2057.6136,-43.1516 2054.5813,-33 2050.6211,-42.8268 2057.6136,-43.1516"/>
<text text-anchor="middle" x="2011.5519" y="-90.8047" font-family="Times,serif" font-size="14.00" fill="#000000">select_i1</text>
</g>
<!-- /router/A_tracker/append&#45;&gt;/router/A_tracker/route -->
<g id="edge27" class="edge">
<title>/router/A_tracker/append:e&#45;&gt;/router/A_tracker/route:n</title>
<path fill="none" stroke="#000000" d="M1093.5813,-91C1116.0362,-91 1099.3705,-66.5496 1094.7007,-43.2072"/>
<polygon fill="#000000" stroke="#000000" points="1098.1507,-42.5588 1093.5813,-33 1091.1924,-43.322 1098.1507,-42.5588"/>
</g>
</g>
</svg>
