<?xml version="1.0" encoding="UTF-8" standalone="no"?>
<!DOCTYPE svg PUBLIC "-//W3C//DTD SVG 1.1//EN"
 "http://www.w3.org/Graphics/SVG/1.1/DTD/svg11.dtd">
<!-- Generated by graphviz version 2.40.1 (20161225.0304)
 -->
<!-- Title: B_tracker Pages: 1 -->
<svg width="2367pt" height="698pt"
 viewBox="28.80 28.80 2337.76 669.02" xmlns="http://www.w3.org/2000/svg" xmlns:xlink="http://www.w3.org/1999/xlink">
<g id="page0,1_graph0" class="graph" transform="scale(1 1) rotate(0) translate(32.8 665.0203)">
<title>B_tracker</title>
<polygon fill="#ffffff" stroke="transparent" points="-4,4 -4,-636.2203 2304.9555,-636.2203 2304.9555,4 -4,4"/>
<text text-anchor="middle" x="1150.4778" y="-617.0203" font-family="Times,serif" font-size="14.00" fill="#000000">B_tracker</text>
<!-- /router/B_tracker/forward -->
<g id="node1" class="node">
<title>/router/B_tracker/forward</title>
<polygon fill="#ffffff" stroke="#000000" points="1720.147,-596.7827 1661.3542,-609.2203 1602.5613,-596.7827 1602.6162,-576.658 1720.0921,-576.658 1720.147,-596.7827"/>
<text text-anchor="middle" x="1661.3542" y="-587.5203" font-family="Times,serif" font-size="14.00" fill="#000000">forward</text>
</g>
<!-- /router/B_tracker/forward_sum -->
<g id="node14" class="node">
<title>/router/B_tracker/forward_sum</title>
<g id="a_node14"><a xlink:href="../../flowstdlib/math/add/add.html" xlink:title="forward_sum\n(add)">
<ellipse fill="#ff7f50" stroke="#000000" cx="1475.3542" cy="-441.3503" rx="77.5641" ry="26.7407"/>
<text text-anchor="middle" x="1475.3542" y="-445.1503" font-family="Times,serif" font-size="14.00" fill="#000000">forward_sum</text>
<text text-anchor="middle" x="1475.3542" y="-430.1503" font-family="Times,serif" font-size="14.00" fill="#000000">(add)</text>
</a>
</g>
</g>
<!-- /router/B_tracker/forward&#45;&gt;/router/B_tracker/forward_sum -->
<g id="edge9" class="edge">
<title>/router/B_tracker/forward:s&#45;&gt;/router/B_tracker/forward_sum:ne</title>
<path fill="none" stroke="#000000" d="M1661.3542,-576.2203C1661.3542,-546.4924 1648.9238,-538.5689 1626.3542,-519.2203 1582.9491,-482.01 1547.6584,-506.0617 1507.844,-473.1801"/>
<polygon fill="#000000" stroke="#000000" points="1510.1016,-470.5021 1500.3542,-466.3503 1505.385,-475.6745 1510.1016,-470.5021"/>
<text text-anchor="middle" x="1493.3542" y="-470.1503" font-family="Times,serif" font-size="14.00" fill="#000000">i1</text>
</g>
<!-- /router/B_tracker/cross -->
<g id="node2" class="node">
<title>/router/B_tracker/cross</title>
<polygon fill="#ffffff" stroke="#000000" points="1215.726,-596.7827 1171.3542,-609.2203 1126.9824,-596.7827 1127.0238,-576.658 1215.6845,-576.658 1215.726,-596.7827"/>
<text text-anchor="middle" x="1171.3542" y="-587.5203" font-family="Times,serif" font-size="14.00" fill="#000000">cross</text>
</g>
<!-- /router/B_tracker/cross_distance -->
<g id="node12" class="node">
<title>/router/B_tracker/cross_distance</title>
<g id="a_node12"><a xlink:href="../../flowstdlib/math/add/add.html" xlink:title="cross_distance\n(add)">
<ellipse fill="#ff7f50" stroke="#000000" cx="1136.3542" cy="-441.3503" rx="86.9483" ry="26.7407"/>
<text text-anchor="middle" x="1136.3542" y="-445.1503" font-family="Times,serif" font-size="14.00" fill="#000000">cross_distance</text>
<text text-anchor="middle" x="1136.3542" y="-430.1503" font-family="Times,serif" font-size="14.00" fill="#000000">(add)</text>
</a>
</g>
</g>
<!-- /router/B_tracker/cross&#45;&gt;/router/B_tracker/cross_distance -->
<g id="edge6" class="edge">
<title>/router/B_tracker/cross:s&#45;&gt;/router/B_tracker/cross_distance:ne</title>
<path fill="none" stroke="#000000" d="M1171.3542,-576.2203C1171.3542,-531.2721 1193.0648,-505.6633 1169.047,-474.8691"/>
<polygon fill="#000000" stroke="#000000" points="1171.6174,-472.4926 1162.3542,-467.3503 1166.3888,-477.1469 1171.6174,-472.4926"/>
<text text-anchor="middle" x="1155.3542" y="-471.1503" font-family="Times,serif" font-size="14.00" fill="#000000">i1</text>
</g>
<!-- /router/B_tracker/other -->
<g id="node3" class="node">
<title>/router/B_tracker/other</title>
<polygon fill="#ffffff" stroke="#000000" points="868.726,-596.7827 824.3542,-609.2203 779.9824,-596.7827 780.0238,-576.658 868.6845,-576.658 868.726,-596.7827"/>
<text text-anchor="middle" x="824.3542" y="-587.5203" font-family="Times,serif" font-size="14.00" fill="#000000">other</text>
</g>
<!-- /router/B_tracker/other&#45;&gt;/router/B_tracker/cross_distance -->
<g id="edge7" class="edge">
<title>/router/B_tracker/other:s&#45;&gt;/router/B_tracker/cross_distance:w</title>
<path fill="none" stroke="#000000" d="M824.3542,-576.2203C824.3542,-526.885 746.7668,-593.2627 715.3542,-555.2203 705.1667,-542.8828 705.4074,-531.7528 715.3542,-519.2203 760.79,-461.9729 956.1556,-442.911 1039.3197,-441.4436"/>
<polygon fill="#000000" stroke="#000000" points="1039.3872,-444.9432 1049.3542,-441.3503 1039.322,-437.9435 1039.3872,-444.9432"/>
<text text-anchor="middle" x="1042.3542" y="-445.1503" font-family="Times,serif" font-size="14.00" fill="#000000">i2</text>
</g>
<!-- /router/B_tracker/forward_string -->
<g id="node4" class="node">
<title>/router/B_tracker/forward_string</title>
<polygon fill="#ffffff" stroke="#000000" points="545.9842,-596.7827 447.3542,-609.2203 348.7241,-596.7827 348.8161,-576.658 545.8922,-576.658 545.9842,-596.7827"/>
<text text-anchor="middle" x="447.3542" y="-587.5203" font-family="Times,serif" font-size="14.00" fill="#000000">forward_string</text>
</g>
<!-- /router/B_tracker/select_string -->
<g id="node18" class="node">
<title>/router/B_tracker/select_string</title>
<g id="a_node18"><a xlink:href="../../flowstdlib/control/select/select.html" xlink:title="select_string\n(select)">
<ellipse fill="#ff7f50" stroke="#000000" cx="624.3542" cy="-172.8701" rx="77.5641" ry="26.7407"/>
<text text-anchor="middle" x="624.3542" y="-176.6701" font-family="Times,serif" font-size="14.00" fill="#000000">select_string</text>
<text text-anchor="middle" x="624.3542" y="-161.6701" font-family="Times,serif" font-size="14.00" fill="#000000">(select)</text>
</a>
</g>
</g>
<!-- /router/B_tracker/forward_string&#45;&gt;/router/B_tracker/select_string -->
<g id="edge14" class="edge">
<title>/router/B_tracker/forward_string:s&#45;&gt;/router/B_tracker/select_string:ne</title>
<path fill="none" stroke="#000000" d="M447.3542,-576.2203C447.3542,-522.2844 536.3542,-547.6563 536.3542,-493.7203 536.3542,-493.7203 536.3542,-493.7203 536.3542,-268.7401 536.3542,-213.8577 669.1306,-235.7803 655.5787,-206.0758"/>
<polygon fill="#000000" stroke="#000000" points="658.1862,-203.722 649.3542,-197.8701 652.6092,-207.9525 658.1862,-203.722"/>
<text text-anchor="middle" x="642.3542" y="-201.6701" font-family="Times,serif" font-size="14.00" fill="#000000">i1</text>
</g>
<!-- /router/B_tracker/cross_string -->
<g id="node5" class="node">
<title>/router/B_tracker/cross_string</title>
<polygon fill="#ffffff" stroke="#000000" points="168.5627,-596.7827 84.3542,-609.2203 .1456,-596.7827 .2242,-576.658 168.4841,-576.658 168.5627,-596.7827"/>
<text text-anchor="middle" x="84.3542" y="-587.5203" font-family="Times,serif" font-size="14.00" fill="#000000">cross_string</text>
</g>
<!-- /router/B_tracker/cross_string&#45;&gt;/router/B_tracker/select_string -->
<g id="edge15" class="edge">
<title>/router/B_tracker/cross_string:s&#45;&gt;/router/B_tracker/select_string:w</title>
<path fill="none" stroke="#000000" d="M84.3542,-576.2203C84.3542,-539.5537 84.3542,-530.387 84.3542,-493.7203 84.3542,-493.7203 84.3542,-493.7203 84.3542,-268.7401 84.3542,-258.6052 89.6662,-255.9589 98.3542,-250.7401 182.1845,-200.3842 428.7072,-174.5626 536.0997,-172.9506"/>
<polygon fill="#000000" stroke="#000000" points="536.382,-176.4486 546.3542,-172.8701 536.3269,-169.4488 536.382,-176.4486"/>
<text text-anchor="middle" x="539.3542" y="-176.6701" font-family="Times,serif" font-size="14.00" fill="#000000">i2</text>
</g>
<!-- /router/B_tracker/forward_route -->
<g id="node6" class="node">
<title>/router/B_tracker/forward_route</title>
<polygon fill="#ffffff" stroke="#000000" points="2301.057,-596.7827 2205.3542,-609.2203 2109.6513,-596.7827 2109.7406,-576.658 2300.9677,-576.658 2301.057,-596.7827"/>
<text text-anchor="middle" x="2205.3542" y="-587.5203" font-family="Times,serif" font-size="14.00" fill="#000000">forward_route</text>
</g>
<!-- /router/B_tracker/select_route -->
<g id="node21" class="node">
<title>/router/B_tracker/select_route</title>
<g id="a_node21"><a xlink:href="../../flowstdlib/control/select/select.html" xlink:title="select_route\n(select)">
<ellipse fill="#ff7f50" stroke="#000000" cx="1834.3542" cy="-172.8701" rx="74.4932" ry="26.7407"/>
<text text-anchor="middle" x="1834.3542" y="-176.6701" font-family="Times,serif" font-size="14.00" fill="#000000">select_route</text>
<text text-anchor="middle" x="1834.3542" y="-161.6701" font-family="Times,serif" font-size="14.00" fill="#000000">(select)</text>
</a>
</g>
</g>
<!-- /router/B_tracker/forward_route&#45;&gt;/router/B_tracker/select_route -->
<g id="edge17" class="edge">
<title>/router/B_tracker/forward_route:s&#45;&gt;/router/B_tracker/select_route:ne</title>
<path fill="none" stroke="#000000" d="M2205.3542,-576.2203C2205.3542,-539.5537 2205.3542,-530.387 2205.3542,-493.7203 2205.3542,-493.7203 2205.3542,-493.7203 2205.3542,-268.7401 2205.3542,-258.6052 2200.0789,-255.8972 2191.3542,-250.7401 2161.396,-233.0324 1922.0228,-225.3557 1868.0779,-203.0307"/>
<polygon fill="#000000" stroke="#000000" points="1869.743,-199.9492 1859.3542,-197.8701 1866.1789,-205.974 1869.743,-199.9492"/>
<text text-anchor="middle" x="1852.3542" y="-201.6701" font-family="Times,serif" font-size="14.00" fill="#000000">i1</text>
</g>
<!-- /router/B_tracker/forward_distance -->
<g id="node7" class="node">
<title>/router/B_tracker/forward_distance</title>
<polygon fill="#ffffff" stroke="#000000" points="1584.4058,-596.7827 1471.3542,-609.2203 1358.3026,-596.7827 1358.4081,-576.658 1584.3002,-576.658 1584.4058,-596.7827"/>
<text text-anchor="middle" x="1471.3542" y="-587.5203" font-family="Times,serif" font-size="14.00" fill="#000000">forward_distance</text>
</g>
<!-- /router/B_tracker/forward_distance&#45;&gt;/router/B_tracker/forward_sum -->
<g id="edge8" class="edge">
<title>/router/B_tracker/forward_distance:s&#45;&gt;/router/B_tracker/forward_sum:w</title>
<path fill="none" stroke="#000000" d="M1471.3542,-576.2203C1471.3542,-545.2006 1589.137,-578.7467 1609.3542,-555.2203 1619.7822,-543.0854 1619.2568,-531.7877 1609.3542,-519.2203 1549.3751,-443.1012 1457.3332,-544.3395 1397.3542,-468.2203 1392.9656,-462.6509 1389.5784,-454.2224 1390.0502,-448.2935"/>
<polygon fill="#000000" stroke="#000000" points="1392.5178,-450.7769 1397.3542,-441.3503 1387.6949,-445.7034 1392.5178,-450.7769"/>
<text text-anchor="middle" x="1390.3542" y="-445.1503" font-family="Times,serif" font-size="14.00" fill="#000000">i2</text>
</g>
<!-- /router/B_tracker/other_route -->
<g id="node8" class="node">
<title>/router/B_tracker/other_route</title>
<polygon fill="#ffffff" stroke="#000000" points="1900.6357,-596.7827 1819.3542,-609.2203 1738.0726,-596.7827 1738.1485,-576.658 1900.5599,-576.658 1900.6357,-596.7827"/>
<text text-anchor="middle" x="1819.3542" y="-587.5203" font-family="Times,serif" font-size="14.00" fill="#000000">other_route</text>
</g>
<!-- /router/B_tracker/other_route&#45;&gt;/router/B_tracker/select_route -->
<g id="edge18" class="edge">
<title>/router/B_tracker/other_route:s&#45;&gt;/router/B_tracker/select_route:w</title>
<path fill="none" stroke="#000000" d="M1819.3542,-576.2203C1819.3542,-530.8821 1759.3542,-539.0586 1759.3542,-493.7203 1759.3542,-493.7203 1759.3542,-493.7203 1759.3542,-268.7401 1759.3542,-230.2922 1724.6609,-183.171 1749.1901,-174.3343"/>
<polygon fill="#000000" stroke="#000000" points="1749.9554,-177.7603 1759.3542,-172.8701 1748.9572,-170.8318 1749.9554,-177.7603"/>
<text text-anchor="middle" x="1752.3542" y="-176.6701" font-family="Times,serif" font-size="14.00" fill="#000000">i2</text>
</g>
<!-- /router/B_tracker/other_distance -->
<g id="node9" class="node">
<title>/router/B_tracker/other_distance</title>
<polygon fill="#ffffff" stroke="#000000" points="761.9842,-596.7827 663.3542,-609.2203 564.7241,-596.7827 564.8161,-576.658 761.8922,-576.658 761.9842,-596.7827"/>
<text text-anchor="middle" x="663.3542" y="-587.5203" font-family="Times,serif" font-size="14.00" fill="#000000">other_distance</text>
</g>
<!-- /router/B_tracker/cross_sum -->
<g id="node16" class="node">
<title>/router/B_tracker/cross_sum</title>
<g id="a_node16"><a xlink:href="../../flowstdlib/math/add/add.html" xlink:title="cross_sum\n(add)">
<ellipse fill="#ff7f50" stroke="#000000" cx="1167.3542" cy="-350.6102" rx="65.1077" ry="26.7407"/>
<text text-anchor="middle" x="1167.3542" y="-354.4102" font-family="Times,serif" font-size="14.00" fill="#000000">cross_sum</text>
<text text-anchor="middle" x="1167.3542" y="-339.4102" font-family="Times,serif" font-size="14.00" fill="#000000">(add)</text>
</a>
</g>
</g>
<!-- /router/B_tracker/other_distance&#45;&gt;/router/B_tracker/cross_sum -->
<g id="edge10" class="edge">
<title>/router/B_tracker/other_distance:s&#45;&gt;/router/B_tracker/cross_sum:w</title>
<path fill="none" stroke="#000000" d="M663.3542,-576.2203C663.3542,-382.0613 892.2715,-351.5923 1092.252,-350.6341"/>
<polygon fill="#000000" stroke="#000000" points="1092.3625,-354.134 1102.3542,-350.6102 1092.3459,-347.134 1092.3625,-354.134"/>
<text text-anchor="middle" x="1095.3542" y="-354.4102" font-family="Times,serif" font-size="14.00" fill="#000000">i2</text>
</g>
<!-- /router/B_tracker/route -->
<g id="node10" class="node">
<title>/router/B_tracker/route</title>
<polygon fill="#000000" stroke="#000000" points="1064.9824,-12.4377 1109.3542,0 1153.726,-12.4377 1153.6845,-32.5623 1065.0238,-32.5623 1064.9824,-12.4377"/>
<text text-anchor="middle" x="1109.3542" y="-14.3" font-family="Times,serif" font-size="14.00" fill="#ffffff">route</text>
</g>
<!-- /router/B_tracker/distance -->
<g id="node11" class="node">
<title>/router/B_tracker/distance</title>
<polygon fill="#000000" stroke="#000000" points="1315.6344,-12.4377 1377.3542,0 1439.0739,-12.4377 1439.0163,-32.5623 1315.692,-32.5623 1315.6344,-12.4377"/>
<text text-anchor="middle" x="1377.3542" y="-14.3" font-family="Times,serif" font-size="14.00" fill="#ffffff">distance</text>
</g>
<!-- /router/B_tracker/cross_distance&#45;&gt;/router/B_tracker/cross_sum -->
<g id="edge11" class="edge">
<title>/router/B_tracker/cross_distance:sw&#45;&gt;/router/B_tracker/cross_sum:ne</title>
<path fill="none" stroke="#000000" d="M1110.3542,-415.3503C1085.7442,-390.7404 1185.1408,-400.2288 1195.4078,-385.2091"/>
<polygon fill="#000000" stroke="#000000" points="1198.721,-384.0786 1192.3542,-375.6102 1192.0504,-386.2007 1198.721,-384.0786"/>
<text text-anchor="middle" x="1135.8845" y="-399.2772" font-family="Times,serif" font-size="14.00" fill="#000000">sum</text>
<text text-anchor="middle" x="1185.3542" y="-379.4102" font-family="Times,serif" font-size="14.00" fill="#000000">i1</text>
</g>
<!-- initializer/router/B_tracker/cross_distance_1 -->
<!-- initializer/router/B_tracker/cross_distance_1&#45;&gt;/router/B_tracker/cross_distance -->
<g id="edge1" class="edge">
<title>initializer/router/B_tracker/cross_distance_1&#45;&gt;/router/B_tracker/cross_distance:w</title>
<path fill="none" stroke="#0000ff" d="M946.6255,-519.1879C962.69,-493.4236 996.3999,-448.47 1039.1928,-442.1074"/>
<polygon fill="#0000ff" stroke="#0000ff" points="1039.6419,-445.5837 1049.3542,-441.3503 1039.1217,-438.6031 1039.6419,-445.5837"/>
<text text-anchor="middle" x="976.3542" y="-490.0203" font-family="Times,serif" font-size="14.00" fill="#000000">0</text>
</g>
<!-- /router/B_tracker/compare -->
<g id="node17" class="node">
<title>/router/B_tracker/compare</title>
<g id="a_node17"><a xlink:href="../../flowstdlib/math/compare/compare.html" xlink:title="compare">
<ellipse fill="#ff7f50" stroke="#000000" cx="1256.3542" cy="-268.7401" rx="51.1914" ry="18"/>
<text text-anchor="middle" x="1256.3542" y="-265.0401" font-family="Times,serif" font-size="14.00" fill="#000000">compare</text>
</a>
</g>
</g>
<!-- /router/B_tracker/forward_sum&#45;&gt;/router/B_tracker/compare -->
<g id="edge12" class="edge">
<title>/router/B_tracker/forward_sum:sw&#45;&gt;/router/B_tracker/compare:ne</title>
<path fill="none" stroke="#000000" d="M1450.3542,-416.3503C1383.6538,-349.6499 1345.2463,-354.4278 1280.5352,-292.7532"/>
<polygon fill="#000000" stroke="#000000" points="1282.9539,-290.223 1273.3542,-285.7401 1278.063,-295.231 1282.9539,-290.223"/>
<text text-anchor="middle" x="1346.1492" y="-354.7284" font-family="Times,serif" font-size="14.00" fill="#000000">sum</text>
<text text-anchor="middle" x="1260.8542" y="-289.5401" font-family="Times,serif" font-size="14.00" fill="#000000">left</text>
</g>
<!-- /router/B_tracker/select_total -->
<g id="node23" class="node">
<title>/router/B_tracker/select_total</title>
<g id="a_node23"><a xlink:href="../../flowstdlib/control/select/select.html" xlink:title="select_total\n(select)">
<ellipse fill="#ff7f50" stroke="#000000" cx="1403.3542" cy="-172.8701" rx="70.922" ry="26.7407"/>
<text text-anchor="middle" x="1403.3542" y="-176.6701" font-family="Times,serif" font-size="14.00" fill="#000000">select_total</text>
<text text-anchor="middle" x="1403.3542" y="-161.6701" font-family="Times,serif" font-size="14.00" fill="#000000">(select)</text>
</a>
</g>
</g>
<!-- /router/B_tracker/forward_sum&#45;&gt;/router/B_tracker/select_total -->
<g id="edge20" class="edge">
<title>/router/B_tracker/forward_sum:sw&#45;&gt;/router/B_tracker/select_total:ne</title>
<path fill="none" stroke="#000000" d="M1450.3542,-416.3503C1384.2369,-350.2331 1489.6403,-273.4682 1436.2532,-206.5607"/>
<polygon fill="#000000" stroke="#000000" points="1438.6371,-203.9767 1429.3542,-198.8701 1433.4264,-208.651 1438.6371,-203.9767"/>
<text text-anchor="middle" x="1424.3722" y="-311.354" font-family="Times,serif" font-size="14.00" fill="#000000">sum</text>
<text text-anchor="middle" x="1422.3542" y="-202.6701" font-family="Times,serif" font-size="14.00" fill="#000000">i1</text>
</g>
<!-- initializer/router/B_tracker/forward_sum_1 -->
<!-- initializer/router/B_tracker/forward_sum_1&#45;&gt;/router/B_tracker/forward_sum -->
<g id="edge2" class="edge">
<title>initializer/router/B_tracker/forward_sum_1&#45;&gt;/router/B_tracker/forward_sum:w</title>
<path fill="none" stroke="#0000ff" stroke-dasharray="1,5" d="M1390.2487,-519.1879C1381.5991,-495.1051 1370.1388,-454.2559 1387.3276,-443.8302"/>
<polygon fill="#0000ff" stroke="#0000ff" points="1388.487,-447.1489 1397.3542,-441.3503 1386.8063,-440.3537 1388.487,-447.1489"/>
<text text-anchor="middle" x="1389.3542" y="-490.0203" font-family="Times,serif" font-size="14.00" fill="#000000">0</text>
</g>
<!-- /router/B_tracker/cross_sum&#45;&gt;/router/B_tracker/compare -->
<g id="edge13" class="edge">
<title>/router/B_tracker/cross_sum:sw&#45;&gt;/router/B_tracker/compare:ne</title>
<path fill="none" stroke="#000000" d="M1142.3542,-325.6102C1102.6823,-285.9383 1284.0587,-322.1002 1278.9257,-294.2774"/>
<polygon fill="#000000" stroke="#000000" points="1281.7505,-292.2017 1273.3542,-285.7401 1275.8884,-296.0274 1281.7505,-292.2017"/>
<text text-anchor="middle" x="1182.1733" y="-309.3002" font-family="Times,serif" font-size="14.00" fill="#000000">sum</text>
<text text-anchor="middle" x="1291.3542" y="-289.5401" font-family="Times,serif" font-size="14.00" fill="#000000">right</text>
</g>
<!-- /router/B_tracker/cross_sum&#45;&gt;/router/B_tracker/select_total -->
<g id="edge21" class="edge">
<title>/router/B_tracker/cross_sum:sw&#45;&gt;/router/B_tracker/select_total:w</title>
<path fill="none" stroke="#000000" d="M1142.3542,-325.6102C1138.8522,-322.1083 1312.9954,-290.3796 1316.3542,-286.7401 1348.1709,-252.2641 1291.9914,-185.1294 1322.093,-174.3471"/>
<polygon fill="#000000" stroke="#000000" points="1322.9549,-177.7592 1332.3542,-172.8701 1321.9575,-170.8306 1322.9549,-177.7592"/>
<text text-anchor="middle" x="1305.686" y="-230.2322" font-family="Times,serif" font-size="14.00" fill="#000000">sum</text>
<text text-anchor="middle" x="1325.3542" y="-176.6701" font-family="Times,serif" font-size="14.00" fill="#000000">i2</text>
</g>
<!-- /router/B_tracker/compare&#45;&gt;/router/B_tracker/select_string -->
<g id="edge16" class="edge">
<title>/router/B_tracker/compare:s&#45;&gt;/router/B_tracker/select_string:nw</title>
<path fill="none" stroke="#000000" d="M1256.3542,-250.7401C1256.3542,-217.269 685.7902,-222.4475 607.4991,-203.8102"/>
<polygon fill="#000000" stroke="#000000" points="609.4961,-200.9347 599.3542,-197.8701 605.3714,-206.5904 609.4961,-200.9347"/>
<text text-anchor="middle" x="918.6368" y="-224.4071" font-family="Times,serif" font-size="14.00" fill="#000000">lte</text>
<text text-anchor="middle" x="573.3542" y="-201.6701" font-family="Times,serif" font-size="14.00" fill="#000000">control</text>
</g>
<!-- /router/B_tracker/compare&#45;&gt;/router/B_tracker/select_route -->
<g id="edge19" class="edge">
<title>/router/B_tracker/compare:s&#45;&gt;/router/B_tracker/select_route:nw</title>
<path fill="none" stroke="#000000" d="M1256.3542,-250.7401C1256.3542,-221.7464 1725.1562,-219.8278 1800.0194,-201.6076"/>
<polygon fill="#000000" stroke="#000000" points="1801.3716,-204.8364 1809.3542,-197.8701 1798.7696,-198.338 1801.3716,-204.8364"/>
<text text-anchor="middle" x="1523.0072" y="-224.3332" font-family="Times,serif" font-size="14.00" fill="#000000">lte</text>
<text text-anchor="middle" x="1783.3542" y="-201.6701" font-family="Times,serif" font-size="14.00" fill="#000000">control</text>
</g>
<!-- /router/B_tracker/compare&#45;&gt;/router/B_tracker/select_total -->
<g id="edge22" class="edge">
<title>/router/B_tracker/compare:s&#45;&gt;/router/B_tracker/select_total:nw</title>
<path fill="none" stroke="#000000" d="M1256.3542,-250.7401C1256.3542,-232.6048 1265.0574,-227.4817 1280.3542,-217.7401 1314.2156,-196.1758 1341.2713,-224.2149 1369.3889,-205.4759"/>
<polygon fill="#000000" stroke="#000000" points="1371.8911,-207.9478 1377.3542,-198.8701 1367.4225,-202.5597 1371.8911,-207.9478"/>
<text text-anchor="middle" x="1308.5855" y="-213.2916" font-family="Times,serif" font-size="14.00" fill="#000000">lte</text>
<text text-anchor="middle" x="1351.3542" y="-202.6701" font-family="Times,serif" font-size="14.00" fill="#000000">control</text>
</g>
<!-- /router/B_tracker/append -->
<g id="node24" class="node">
<title>/router/B_tracker/append</title>
<g id="a_node24"><a xlink:href="../../flowstdlib/data/append/append.html" xlink:title="append">
<ellipse fill="#ff7f50" stroke="#000000" cx="1064.3542" cy="-91" rx="44.6926" ry="18"/>
<text text-anchor="middle" x="1064.3542" y="-87.3" font-family="Times,serif" font-size="14.00" fill="#000000">append</text>
</a>
</g>
</g>
<!-- /router/B_tracker/select_string&#45;&gt;/router/B_tracker/append -->
<g id="edge24" class="edge">
<title>/router/B_tracker/select_string:sw&#45;&gt;/router/B_tracker/append:nw</title>
<path fill="none" stroke="#000000" d="M599.3542,-147.8701C460.4895,-9.0054 890.437,-240.931 1039.6208,-115.102"/>
<polygon fill="#000000" stroke="#000000" points="1042.3562,-117.3419 1047.3542,-108 1037.6214,-112.1862 1042.3562,-117.3419"/>
<text text-anchor="middle" x="788.4011" y="-151.3847" font-family="Times,serif" font-size="14.00" fill="#000000">select_i1</text>
<text text-anchor="middle" x="1038.8542" y="-111.8" font-family="Times,serif" font-size="14.00" fill="#000000">s2</text>
</g>
<!-- initializer/router/B_tracker/select_string_0 -->
<!-- initializer/router/B_tracker/select_string_0&#45;&gt;/router/B_tracker/select_string -->
<g id="edge3" class="edge">
<title>initializer/router/B_tracker/select_string_0&#45;&gt;/router/B_tracker/select_string:ne</title>
<path fill="none" stroke="#0000ff" d="M725.037,-250.8848C704.0312,-239.7104 677.8789,-223.858 656.8506,-204.9651"/>
<polygon fill="#0000ff" stroke="#0000ff" points="659.0229,-202.2021 649.3542,-197.8701 654.2111,-207.286 659.0229,-202.2021"/>
<text text-anchor="middle" x="704.8542" y="-221.5401" font-family="Times,serif" font-size="14.00" fill="#000000">&quot;B&quot;</text>
</g>
<!-- initializer/router/B_tracker/select_string_1 -->
<!-- initializer/router/B_tracker/select_string_1&#45;&gt;/router/B_tracker/select_string -->
<g id="edge4" class="edge">
<title>initializer/router/B_tracker/select_string_1&#45;&gt;/router/B_tracker/select_string:w</title>
<path fill="none" stroke="#0000ff" d="M335.8646,-250.7077C376.0091,-224.0755 457.4942,-176.9396 536.2654,-173.1177"/>
<polygon fill="#0000ff" stroke="#0000ff" points="536.4431,-176.6145 546.3542,-172.8701 536.2712,-169.6166 536.4431,-176.6145"/>
<text text-anchor="middle" x="403.8542" y="-221.5401" font-family="Times,serif" font-size="14.00" fill="#000000">&quot;C&quot;</text>
</g>
<!-- /router/B_tracker/select_route&#45;&gt;/router/B_tracker/append -->
<g id="edge23" class="edge">
<title>/router/B_tracker/select_route:sw&#45;&gt;/router/B_tracker/append:w</title>
<path fill="none" stroke="#000000" d="M1809.3542,-147.8701C1747.2108,-85.7267 1079.9513,-172.652 1019.3542,-109 1017.1132,-106.6461 1015.3728,-103.2341 1014.6323,-100.0121"/>
<polygon fill="#000000" stroke="#000000" points="1017.8133,-101.4822 1019.3542,-91 1011.6128,-98.2335 1017.8133,-101.4822"/>
<text text-anchor="middle" x="1381.6409" y="-132.8052" font-family="Times,serif" font-size="14.00" fill="#000000">select_i1</text>
<text text-anchor="middle" x="1010.8542" y="-94.8" font-family="Times,serif" font-size="14.00" fill="#000000">s1</text>
</g>
<!-- initializer/router/B_tracker/select_route_0 -->
<!-- initializer/router/B_tracker/select_route_0&#45;&gt;/router/B_tracker/select_route -->
<g id="edge5" class="edge">
<title>initializer/router/B_tracker/select_route_0&#45;&gt;/router/B_tracker/select_route:ne</title>
<path fill="none" stroke="#0000ff" stroke-dasharray="1,5" d="M1939.6361,-251.0182C1916.7918,-240.1417 1888.9141,-224.5328 1866.8845,-204.958"/>
<polygon fill="#0000ff" stroke="#0000ff" points="1869.0348,-202.1754 1859.3542,-197.8701 1864.237,-207.2726 1869.0348,-202.1754"/>
<text text-anchor="middle" x="1908.3542" y="-221.5401" font-family="Times,serif" font-size="14.00" fill="#000000">&quot;&quot;</text>
</g>
<!-- /router/B_tracker/select_total&#45;&gt;/router/B_tracker/distance -->
<g id="edge25" class="edge">
<title>/router/B_tracker/select_total:sw&#45;&gt;/router/B_tracker/distance:n</title>
<path fill="none" stroke="#000000" d="M1377.3542,-146.8701C1344.0146,-113.5305 1372.796,-87.4041 1376.8868,-43.0645"/>
<polygon fill="#000000" stroke="#000000" points="1380.3864,-43.1516 1377.3542,-33 1373.3939,-42.8268 1380.3864,-43.1516"/>
<text text-anchor="middle" x="1334.3247" y="-90.8047" font-family="Times,serif" font-size="14.00" fill="#000000">select_i1</text>
</g>
<!-- /router/B_tracker/append&#45;&gt;/router/B_tracker/route -->
<g id="edge26" class="edge">
<title>/router/B_tracker/append:e&#45;&gt;/router/B_tracker/route:n</title>
<path fill="none" stroke="#000000" d="M1109.3542,-91C1131.809,-91 1115.1433,-66.5496 1110.4735,-43.2072"/>
<polygon fill="#000000" stroke="#000000" points="1113.9235,-42.5588 1109.3542,-33 1106.9652,-43.322 1113.9235,-42.5588"/>
</g>
</g>
</svg>
