<?xml version="1.0" encoding="UTF-8" standalone="no"?>
<!DOCTYPE svg PUBLIC "-//W3C//DTD SVG 1.1//EN"
 "http://www.w3.org/Graphics/SVG/1.1/DTD/svg11.dtd">
<!-- Generated by graphviz version 2.44.0 (20200408.0750)
 -->
<!-- Title: B_tracker Pages: 1 -->
<svg width="1862pt" height="716pt"
 viewBox="28.80 28.80 1833.19 686.76" xmlns="http://www.w3.org/2000/svg" xmlns:xlink="http://www.w3.org/1999/xlink">
<g id="graph0" class="graph" transform="scale(1 1) rotate(0) translate(32.8 682.76)">
<title>B_tracker</title>
<polygon fill="white" stroke="transparent" points="-4,4 -4,-653.96 1800.39,-653.96 1800.39,4 -4,4"/>
<text text-anchor="middle" x="898.2" y="-634.76" font-family="Times,serif" font-size="14.00">B_tracker</text>
<!-- /router/B_tracker/forward -->
<g id="node1" class="node">
<title>/router/B_tracker/forward</title>
<polygon fill="white" stroke="black" points="1337.17,-614.52 1289.88,-626.96 1242.58,-614.52 1242.62,-594.4 1337.13,-594.4 1337.17,-614.52"/>
<text text-anchor="middle" x="1289.88" y="-605.26" font-family="Times,serif" font-size="14.00">forward</text>
</g>
<!-- /router/B_tracker/forward_sum -->
<g id="node14" class="node">
<title>/router/B_tracker/forward_sum</title>
<g id="a_node14"><a xlink:href="../../flowstdlib/math/add/add.html" xlink:title="forward_sum\n(Add)">
<ellipse fill="coral" stroke="black" cx="1136.88" cy="-459.09" rx="62.87" ry="26.74"/>
<text text-anchor="middle" x="1136.88" y="-462.89" font-family="Times,serif" font-size="14.00">forward_sum</text>
<text text-anchor="middle" x="1136.88" y="-447.89" font-family="Times,serif" font-size="14.00">(Add)</text>
</a>
</g>
</g>
<!-- /router/B_tracker/forward&#45;&gt;/router/B_tracker/forward_sum -->
<g id="edge9" class="edge">
<title>/router/B_tracker/forward:s&#45;&gt;/router/B_tracker/forward_sum:ne</title>
<path fill="none" stroke="black" d="M1289.88,-592.96C1289.88,-522.05 1221.39,-536.11 1169.41,-492.03"/>
<polygon fill="black" stroke="black" points="1171.6,-489.29 1161.88,-485.09 1166.86,-494.44 1171.6,-489.29"/>
<text text-anchor="middle" x="1156.38" y="-488.89" font-family="Times,serif" font-size="14.00">i1</text>
</g>
<!-- /router/B_tracker/cross -->
<g id="node2" class="node">
<title>/router/B_tracker/cross</title>
<polygon fill="white" stroke="black" points="931.07,-614.52 895.88,-626.96 860.68,-614.52 860.71,-594.4 931.04,-594.4 931.07,-614.52"/>
<text text-anchor="middle" x="895.88" y="-605.26" font-family="Times,serif" font-size="14.00">cross</text>
</g>
<!-- /router/B_tracker/cross_distance -->
<g id="node12" class="node">
<title>/router/B_tracker/cross_distance</title>
<g id="a_node12"><a xlink:href="../../flowstdlib/math/add/add.html" xlink:title="cross_distance\n(Add)">
<ellipse fill="coral" stroke="black" cx="785.88" cy="-459.09" rx="67.35" ry="26.74"/>
<text text-anchor="middle" x="785.88" y="-462.89" font-family="Times,serif" font-size="14.00">cross_distance</text>
<text text-anchor="middle" x="785.88" y="-447.89" font-family="Times,serif" font-size="14.00">(Add)</text>
</a>
</g>
</g>
<!-- /router/B_tracker/cross&#45;&gt;/router/B_tracker/cross_distance -->
<g id="edge6" class="edge">
<title>/router/B_tracker/cross:s&#45;&gt;/router/B_tracker/cross_distance:ne</title>
<path fill="none" stroke="black" d="M895.88,-592.96C895.88,-567.31 896.2,-558.24 881.88,-536.96 862.1,-507.58 842.55,-511.55 818.49,-491.98"/>
<polygon fill="black" stroke="black" points="820.64,-489.2 810.88,-485.09 815.94,-494.39 820.64,-489.2"/>
<text text-anchor="middle" x="805.38" y="-488.89" font-family="Times,serif" font-size="14.00">i1</text>
</g>
<!-- /router/B_tracker/other -->
<g id="node3" class="node">
<title>/router/B_tracker/other</title>
<polygon fill="white" stroke="black" points="659.07,-614.52 623.88,-626.96 588.68,-614.52 588.71,-594.4 659.04,-594.4 659.07,-614.52"/>
<text text-anchor="middle" x="623.88" y="-605.26" font-family="Times,serif" font-size="14.00">other</text>
</g>
<!-- /router/B_tracker/other&#45;&gt;/router/B_tracker/cross_distance -->
<g id="edge7" class="edge">
<title>/router/B_tracker/other:s&#45;&gt;/router/B_tracker/cross_distance:w</title>
<path fill="none" stroke="black" d="M623.88,-592.96C623.88,-557.17 567.82,-601.24 545.88,-572.96 536.07,-560.32 537.2,-550.41 545.88,-536.96 589.49,-469.33 630.46,-459.8 707.76,-459.13"/>
<polygon fill="black" stroke="black" points="707.89,-462.63 717.88,-459.09 707.86,-455.63 707.89,-462.63"/>
<text text-anchor="middle" x="712.38" y="-462.89" font-family="Times,serif" font-size="14.00">i2</text>
</g>
<!-- /router/B_tracker/forward_string -->
<g id="node4" class="node">
<title>/router/B_tracker/forward_string</title>
<polygon fill="white" stroke="black" points="399.73,-614.52 321.88,-626.96 244.02,-614.52 244.09,-594.4 399.66,-594.4 399.73,-614.52"/>
<text text-anchor="middle" x="321.88" y="-605.26" font-family="Times,serif" font-size="14.00">forward_string</text>
</g>
<!-- /router/B_tracker/select_string -->
<g id="node18" class="node">
<title>/router/B_tracker/select_string</title>
<g id="a_node18"><a xlink:href="../../flowstdlib/control/select/select.html" xlink:title="select_string\n(Select)">
<ellipse fill="coral" stroke="black" cx="480.88" cy="-172.87" rx="60.21" ry="26.74"/>
<text text-anchor="middle" x="480.88" y="-176.67" font-family="Times,serif" font-size="14.00">select_string</text>
<text text-anchor="middle" x="480.88" y="-161.67" font-family="Times,serif" font-size="14.00">(Select)</text>
</a>
</g>
</g>
<!-- /router/B_tracker/forward_string&#45;&gt;/router/B_tracker/select_string -->
<g id="edge14" class="edge">
<title>/router/B_tracker/forward_string:s&#45;&gt;/router/B_tracker/select_string:ne</title>
<path fill="none" stroke="black" d="M321.88,-592.96C321.88,-537.28 417.88,-568.14 417.88,-512.46 417.88,-512.46 417.88,-512.46 417.88,-276.61 417.88,-263.54 423.18,-260.5 431.88,-250.74 455.67,-224.03 518.31,-226.28 511.66,-207.03"/>
<polygon fill="black" stroke="black" points="514.52,-205 505.88,-198.87 508.8,-209.05 514.52,-205"/>
<text text-anchor="middle" x="500.38" y="-202.67" font-family="Times,serif" font-size="14.00">i1</text>
</g>
<!-- /router/B_tracker/cross_string -->
<g id="node5" class="node">
<title>/router/B_tracker/cross_string</title>
<polygon fill="white" stroke="black" points="131.63,-614.52 65.88,-626.96 0.12,-614.52 0.18,-594.4 131.57,-594.4 131.63,-614.52"/>
<text text-anchor="middle" x="65.88" y="-605.26" font-family="Times,serif" font-size="14.00">cross_string</text>
</g>
<!-- /router/B_tracker/cross_string&#45;&gt;/router/B_tracker/select_string -->
<g id="edge15" class="edge">
<title>/router/B_tracker/cross_string:s&#45;&gt;/router/B_tracker/select_string:w</title>
<path fill="none" stroke="black" d="M65.88,-592.96C65.88,-557.18 65.88,-548.24 65.88,-512.46 65.88,-512.46 65.88,-512.46 65.88,-276.61 65.88,-196.56 103.96,-173.37 409.82,-172.88"/>
<polygon fill="black" stroke="black" points="409.88,-176.38 419.88,-172.87 409.87,-169.38 409.88,-176.38"/>
<text text-anchor="middle" x="414.38" y="-176.67" font-family="Times,serif" font-size="14.00">i2</text>
</g>
<!-- /router/B_tracker/forward_route -->
<g id="node6" class="node">
<title>/router/B_tracker/forward_route</title>
<polygon fill="white" stroke="black" points="1796.41,-614.52 1720.88,-626.96 1645.34,-614.52 1645.41,-594.4 1796.34,-594.4 1796.41,-614.52"/>
<text text-anchor="middle" x="1720.88" y="-605.26" font-family="Times,serif" font-size="14.00">forward_route</text>
</g>
<!-- /router/B_tracker/select_route -->
<g id="node21" class="node">
<title>/router/B_tracker/select_route</title>
<g id="a_node21"><a xlink:href="../../flowstdlib/control/select/select.html" xlink:title="select_route\n(Select)">
<ellipse fill="coral" stroke="black" cx="1430.88" cy="-172.87" rx="57.97" ry="26.74"/>
<text text-anchor="middle" x="1430.88" y="-176.67" font-family="Times,serif" font-size="14.00">select_route</text>
<text text-anchor="middle" x="1430.88" y="-161.67" font-family="Times,serif" font-size="14.00">(Select)</text>
</a>
</g>
</g>
<!-- /router/B_tracker/forward_route&#45;&gt;/router/B_tracker/select_route -->
<g id="edge17" class="edge">
<title>/router/B_tracker/forward_route:s&#45;&gt;/router/B_tracker/select_route:ne</title>
<path fill="none" stroke="black" d="M1720.88,-592.96C1720.88,-557.18 1720.88,-548.24 1720.88,-512.46 1720.88,-512.46 1720.88,-512.46 1720.88,-276.61 1720.88,-263.54 1717.36,-258.56 1706.88,-250.74 1685.87,-235.07 1508.87,-220.72 1463.74,-202.87"/>
<polygon fill="black" stroke="black" points="1465.31,-199.73 1454.88,-197.87 1461.87,-205.83 1465.31,-199.73"/>
<text text-anchor="middle" x="1449.38" y="-201.67" font-family="Times,serif" font-size="14.00">i1</text>
</g>
<!-- /router/B_tracker/forward_distance -->
<g id="node7" class="node">
<title>/router/B_tracker/forward_distance</title>
<polygon fill="white" stroke="black" points="1224.12,-614.52 1135.88,-626.96 1047.63,-614.52 1047.72,-594.4 1224.04,-594.4 1224.12,-614.52"/>
<text text-anchor="middle" x="1135.88" y="-605.26" font-family="Times,serif" font-size="14.00">forward_distance</text>
</g>
<!-- /router/B_tracker/forward_distance&#45;&gt;/router/B_tracker/forward_sum -->
<g id="edge8" class="edge">
<title>/router/B_tracker/forward_distance:s&#45;&gt;/router/B_tracker/forward_sum:w</title>
<path fill="none" stroke="black" d="M1135.88,-592.96C1135.88,-546.76 1208.52,-608.63 1237.88,-572.96 1248.04,-560.61 1247.36,-549.84 1237.88,-536.96 1192.62,-475.49 1120.27,-546.58 1073.88,-485.96 1069.68,-480.47 1066.01,-472.35 1065.96,-466.47"/>
<polygon fill="black" stroke="black" points="1068.6,-468.78 1072.88,-459.09 1063.49,-464 1068.6,-468.78"/>
<text text-anchor="middle" x="1067.38" y="-462.89" font-family="Times,serif" font-size="14.00">i2</text>
</g>
<!-- /router/B_tracker/other_route -->
<g id="node8" class="node">
<title>/router/B_tracker/other_route</title>
<polygon fill="white" stroke="black" points="1482.31,-614.52 1418.88,-626.96 1355.44,-614.52 1355.5,-594.4 1482.25,-594.4 1482.31,-614.52"/>
<text text-anchor="middle" x="1418.88" y="-605.26" font-family="Times,serif" font-size="14.00">other_route</text>
</g>
<!-- /router/B_tracker/other_route&#45;&gt;/router/B_tracker/select_route -->
<g id="edge18" class="edge">
<title>/router/B_tracker/other_route:s&#45;&gt;/router/B_tracker/select_route:w</title>
<path fill="none" stroke="black" d="M1418.88,-592.96C1418.88,-551.75 1372.88,-553.67 1372.88,-512.46 1372.88,-512.46 1372.88,-512.46 1372.88,-276.61 1372.88,-234.64 1333.85,-183.13 1361.6,-174.22"/>
<polygon fill="black" stroke="black" points="1362.42,-177.64 1371.88,-172.87 1361.51,-170.7 1362.42,-177.64"/>
<text text-anchor="middle" x="1366.38" y="-176.67" font-family="Times,serif" font-size="14.00">i2</text>
</g>
<!-- /router/B_tracker/other_distance -->
<g id="node9" class="node">
<title>/router/B_tracker/other_distance</title>
<polygon fill="white" stroke="black" points="570.02,-614.52 493.88,-626.96 417.74,-614.52 417.81,-594.4 569.95,-594.4 570.02,-614.52"/>
<text text-anchor="middle" x="493.88" y="-605.26" font-family="Times,serif" font-size="14.00">other_distance</text>
</g>
<!-- /router/B_tracker/cross_sum -->
<g id="node16" class="node">
<title>/router/B_tracker/cross_sum</title>
<g id="a_node16"><a xlink:href="../../flowstdlib/math/add/add.html" xlink:title="cross_sum\n(Add)">
<ellipse fill="coral" stroke="black" cx="793.88" cy="-368.35" rx="52.15" ry="26.74"/>
<text text-anchor="middle" x="793.88" y="-372.15" font-family="Times,serif" font-size="14.00">cross_sum</text>
<text text-anchor="middle" x="793.88" y="-357.15" font-family="Times,serif" font-size="14.00">(Add)</text>
</a>
</g>
</g>
<!-- /router/B_tracker/other_distance&#45;&gt;/router/B_tracker/cross_sum -->
<g id="edge10" class="edge">
<title>/router/B_tracker/other_distance:s&#45;&gt;/router/B_tracker/cross_sum:w</title>
<path fill="none" stroke="black" d="M493.88,-592.96C493.88,-500.34 684.05,-391.99 730.33,-371.71"/>
<polygon fill="black" stroke="black" points="731.6,-374.97 739.88,-368.35 729.28,-368.37 731.6,-374.97"/>
<text text-anchor="middle" x="734.38" y="-372.15" font-family="Times,serif" font-size="14.00">i2</text>
</g>
<!-- /router/B_tracker/route -->
<g id="node10" class="node">
<title>/router/B_tracker/route</title>
<polygon fill="black" stroke="black" points="742.68,-12.44 777.88,0 813.07,-12.44 813.04,-32.56 742.71,-32.56 742.68,-12.44"/>
<text text-anchor="middle" x="777.88" y="-14.3" font-family="Times,serif" font-size="14.00" fill="white">route</text>
</g>
<!-- /router/B_tracker/distance -->
<g id="node11" class="node">
<title>/router/B_tracker/distance</title>
<polygon fill="black" stroke="black" points="906.87,-12.44 955.88,0 1004.89,-12.44 1004.84,-32.56 906.91,-32.56 906.87,-12.44"/>
<text text-anchor="middle" x="955.88" y="-14.3" font-family="Times,serif" font-size="14.00" fill="white">distance</text>
</g>
<!-- /router/B_tracker/cross_distance&#45;&gt;/router/B_tracker/cross_sum -->
<g id="edge11" class="edge">
<title>/router/B_tracker/cross_distance:sw&#45;&gt;/router/B_tracker/cross_sum:ne</title>
<path fill="none" stroke="black" d="M760.88,-433.09C743.3,-415.52 805.06,-414.63 818.48,-403.58"/>
<polygon fill="black" stroke="black" points="821.96,-403.13 817.88,-393.35 814.97,-403.54 821.96,-403.13"/>
<text text-anchor="middle" x="777.35" y="-417.03" font-family="Times,serif" font-size="14.00">sum</text>
<text text-anchor="middle" x="812.38" y="-397.15" font-family="Times,serif" font-size="14.00">i1</text>
</g>
<!-- initializer/router/B_tracker/cross_distance_1 -->
<!-- initializer/router/B_tracker/cross_distance_1&#45;&gt;/router/B_tracker/cross_distance -->
<g id="edge1" class="edge">
<title>initializer/router/B_tracker/cross_distance_1&#45;&gt;/router/B_tracker/cross_distance:w</title>
<path fill="none" stroke="blue" d="M707.73,-536.56C700.16,-512.81 690.29,-471.99 707.8,-461.57"/>
<polygon fill="blue" stroke="blue" points="709,-464.88 717.88,-459.09 707.33,-458.08 709,-464.88"/>
<text text-anchor="middle" x="706.38" y="-507.76" font-family="Times,serif" font-size="14.00">0</text>
</g>
<!-- /router/B_tracker/compare -->
<g id="node17" class="node">
<title>/router/B_tracker/compare</title>
<g id="a_node17"><a xlink:href="../../flowstdlib/math/compare/compare.html" xlink:title="compare\n(Compare)">
<ellipse fill="coral" stroke="black" cx="848.88" cy="-277.61" rx="53.98" ry="26.74"/>
<text text-anchor="middle" x="848.88" y="-281.41" font-family="Times,serif" font-size="14.00">compare</text>
<text text-anchor="middle" x="848.88" y="-266.41" font-family="Times,serif" font-size="14.00">(Compare)</text>
</a>
</g>
</g>
<!-- /router/B_tracker/forward_sum&#45;&gt;/router/B_tracker/compare -->
<g id="edge12" class="edge">
<title>/router/B_tracker/forward_sum:sw&#45;&gt;/router/B_tracker/compare:ne</title>
<path fill="none" stroke="black" d="M1111.88,-433.09C1084.21,-405.42 1061.56,-430.29 1025.88,-414.22 952.28,-381.08 933.87,-363.59 879.99,-309.73"/>
<polygon fill="black" stroke="black" points="882.42,-307.21 872.88,-302.61 877.47,-312.16 882.42,-307.21"/>
<text text-anchor="middle" x="967.31" y="-395.12" font-family="Times,serif" font-size="14.00">sum</text>
<text text-anchor="middle" x="863.38" y="-306.41" font-family="Times,serif" font-size="14.00">left</text>
</g>
<!-- /router/B_tracker/select_total -->
<g id="node23" class="node">
<title>/router/B_tracker/select_total</title>
<g id="a_node23"><a xlink:href="../../flowstdlib/control/select/select.html" xlink:title="select_total\n(Select)">
<ellipse fill="coral" stroke="black" cx="979.88" cy="-172.87" rx="55.31" ry="26.74"/>
<text text-anchor="middle" x="979.88" y="-176.67" font-family="Times,serif" font-size="14.00">select_total</text>
<text text-anchor="middle" x="979.88" y="-161.67" font-family="Times,serif" font-size="14.00">(Select)</text>
</a>
</g>
</g>
<!-- /router/B_tracker/forward_sum&#45;&gt;/router/B_tracker/select_total -->
<g id="edge20" class="edge">
<title>/router/B_tracker/forward_sum:sw&#45;&gt;/router/B_tracker/select_total:ne</title>
<path fill="none" stroke="black" d="M1111.88,-433.09C1033.08,-354.29 1081.93,-283.75 1011.11,-205.47"/>
<polygon fill="black" stroke="black" points="1013.31,-202.7 1003.88,-197.87 1008.24,-207.53 1013.31,-202.7"/>
<text text-anchor="middle" x="1045.82" y="-318.96" font-family="Times,serif" font-size="14.00">sum</text>
<text text-anchor="middle" x="998.38" y="-201.67" font-family="Times,serif" font-size="14.00">i1</text>
</g>
<!-- initializer/router/B_tracker/forward_sum_1 -->
<!-- initializer/router/B_tracker/forward_sum_1&#45;&gt;/router/B_tracker/forward_sum -->
<g id="edge2" class="edge">
<title>initializer/router/B_tracker/forward_sum_1&#45;&gt;/router/B_tracker/forward_sum:w</title>
<path fill="none" stroke="blue" stroke-dasharray="1,5" d="M1066.82,-536.56C1058,-512.81 1045.99,-471.99 1062.94,-461.57"/>
<polygon fill="blue" stroke="blue" points="1064.02,-464.91 1072.88,-459.09 1062.33,-458.12 1064.02,-464.91"/>
<text text-anchor="middle" x="1063.38" y="-507.76" font-family="Times,serif" font-size="14.00">0</text>
</g>
<!-- /router/B_tracker/cross_sum&#45;&gt;/router/B_tracker/compare -->
<g id="edge13" class="edge">
<title>/router/B_tracker/cross_sum:sw&#45;&gt;/router/B_tracker/compare:ne</title>
<path fill="none" stroke="black" d="M769.88,-343.35C738.74,-312.21 873.58,-332.04 877.46,-311.65"/>
<polygon fill="black" stroke="black" points="880.52,-309.95 872.88,-302.61 874.27,-313.11 880.52,-309.95"/>
<text text-anchor="middle" x="798.51" y="-327.27" font-family="Times,serif" font-size="14.00">sum</text>
<text text-anchor="middle" x="885.88" y="-306.41" font-family="Times,serif" font-size="14.00">right</text>
</g>
<!-- /router/B_tracker/cross_sum&#45;&gt;/router/B_tracker/select_total -->
<g id="edge21" class="edge">
<title>/router/B_tracker/cross_sum:sw&#45;&gt;/router/B_tracker/select_total:w</title>
<path fill="none" stroke="black" d="M769.88,-343.35C723.91,-297.39 868.99,-354.19 910.88,-304.48 946.09,-262.69 876.26,-184.85 913.5,-174.11"/>
<polygon fill="black" stroke="black" points="914.36,-177.53 923.88,-172.87 913.53,-170.58 914.36,-177.53"/>
<text text-anchor="middle" x="902.73" y="-227" font-family="Times,serif" font-size="14.00">sum</text>
<text text-anchor="middle" x="918.38" y="-176.67" font-family="Times,serif" font-size="14.00">i2</text>
</g>
<!-- /router/B_tracker/compare&#45;&gt;/router/B_tracker/select_string -->
<g id="edge16" class="edge">
<title>/router/B_tracker/compare:s&#45;&gt;/router/B_tracker/select_string:nw</title>
<path fill="none" stroke="black" d="M848.88,-250.74C848.88,-211.6 513.91,-225.66 461.19,-207.41"/>
<polygon fill="black" stroke="black" points="464.13,-205.51 455.88,-198.87 458.18,-209.21 464.13,-205.51"/>
<text text-anchor="middle" x="645.48" y="-224.19" font-family="Times,serif" font-size="14.00">lte</text>
<text text-anchor="middle" x="436.38" y="-202.67" font-family="Times,serif" font-size="14.00">control</text>
</g>
<!-- /router/B_tracker/compare&#45;&gt;/router/B_tracker/select_route -->
<g id="edge19" class="edge">
<title>/router/B_tracker/compare:s&#45;&gt;/router/B_tracker/select_route:nw</title>
<path fill="none" stroke="black" d="M848.88,-250.74C848.88,-221.49 1321.92,-219.97 1397.46,-201.64"/>
<polygon fill="black" stroke="black" points="1398.89,-204.83 1406.88,-197.87 1396.29,-198.33 1398.89,-204.83"/>
<text text-anchor="middle" x="1120.53" y="-224.31" font-family="Times,serif" font-size="14.00">lte</text>
<text text-anchor="middle" x="1387.38" y="-201.67" font-family="Times,serif" font-size="14.00">control</text>
</g>
<!-- /router/B_tracker/compare&#45;&gt;/router/B_tracker/select_total -->
<g id="edge22" class="edge">
<title>/router/B_tracker/compare:s&#45;&gt;/router/B_tracker/select_total:nw</title>
<path fill="none" stroke="black" d="M848.88,-250.74C848.88,-232.6 857.79,-227.81 872.88,-217.74 901.35,-198.74 924.18,-219.69 948.07,-204.26"/>
<polygon fill="black" stroke="black" points="950.35,-206.91 955.88,-197.87 945.92,-201.49 950.35,-206.91"/>
<text text-anchor="middle" x="895.29" y="-197.99" font-family="Times,serif" font-size="14.00">lte</text>
<text text-anchor="middle" x="936.38" y="-201.67" font-family="Times,serif" font-size="14.00">control</text>
</g>
<!-- /router/B_tracker/Append -->
<g id="node24" class="node">
<title>/router/B_tracker/Append</title>
<g id="a_node24"><a xlink:href="../../flowstdlib/data/append/append.html" xlink:title="Append">
<ellipse fill="coral" stroke="black" cx="738.88" cy="-91" rx="38.19" ry="18"/>
<text text-anchor="middle" x="738.88" y="-87.3" font-family="Times,serif" font-size="14.00">Append</text>
</a>
</g>
</g>
<!-- /router/B_tracker/select_string&#45;&gt;/router/B_tracker/Append -->
<g id="edge24" class="edge">
<title>/router/B_tracker/select_string:sw&#45;&gt;/router/B_tracker/Append:nw</title>
<path fill="none" stroke="black" d="M455.88,-146.87C373.48,-64.48 623.24,-185.56 715.25,-114.7"/>
<polygon fill="black" stroke="black" points="717.67,-117.23 722.88,-108 713.05,-111.96 717.67,-117.23"/>
<text text-anchor="middle" x="564.02" y="-125" font-family="Times,serif" font-size="14.00">select_i1</text>
<text text-anchor="middle" x="716.38" y="-111.8" font-family="Times,serif" font-size="14.00">s2</text>
</g>
<!-- initializer/router/B_tracker/select_string_0 -->
<!-- initializer/router/B_tracker/select_string_0&#45;&gt;/router/B_tracker/select_string -->
<g id="edge3" class="edge">
<title>initializer/router/B_tracker/select_string_0&#45;&gt;/router/B_tracker/select_string:ne</title>
<path fill="none" stroke="blue" d="M573.31,-259.69C556.98,-246 533.55,-225.78 513.01,-205.88"/>
<polygon fill="blue" stroke="blue" points="515.46,-203.39 505.88,-198.87 510.55,-208.38 515.46,-203.39"/>
<text text-anchor="middle" x="552.88" y="-221.54" font-family="Times,serif" font-size="14.00">&quot;B&quot;</text>
</g>
<!-- initializer/router/B_tracker/select_string_1 -->
<!-- initializer/router/B_tracker/select_string_1&#45;&gt;/router/B_tracker/select_string -->
<g id="edge4" class="edge">
<title>initializer/router/B_tracker/select_string_1&#45;&gt;/router/B_tracker/select_string:w</title>
<path fill="none" stroke="blue" d="M257.72,-259.48C285.31,-231.51 345.4,-178.6 409.55,-173.3"/>
<polygon fill="blue" stroke="blue" points="410.03,-176.78 419.88,-172.87 409.74,-169.79 410.03,-176.78"/>
<text text-anchor="middle" x="315.88" y="-221.54" font-family="Times,serif" font-size="14.00">&quot;C&quot;</text>
</g>
<!-- /router/B_tracker/select_route&#45;&gt;/router/B_tracker/Append -->
<g id="edge23" class="edge">
<title>/router/B_tracker/select_route:sw&#45;&gt;/router/B_tracker/Append:w</title>
<path fill="none" stroke="black" d="M1406.88,-147.87C1351.25,-92.24 755.52,-164.62 699.88,-109 697.66,-106.79 695.8,-103.56 694.84,-100.44"/>
<polygon fill="black" stroke="black" points="698.16,-101.57 698.88,-91 691.72,-98.82 698.16,-101.57"/>
<text text-anchor="middle" x="1028.41" y="-132.24" font-family="Times,serif" font-size="14.00">select_i1</text>
<text text-anchor="middle" x="692.38" y="-94.8" font-family="Times,serif" font-size="14.00">s1</text>
</g>
<!-- initializer/router/B_tracker/select_route_0 -->
<!-- initializer/router/B_tracker/select_route_0&#45;&gt;/router/B_tracker/select_route -->
<g id="edge5" class="edge">
<title>initializer/router/B_tracker/select_route_0&#45;&gt;/router/B_tracker/select_route:ne</title>
<path fill="none" stroke="blue" stroke-dasharray="1,5" d="M1525.23,-259.67C1508.06,-245.92 1483.51,-225.52 1462.25,-205.09"/>
<polygon fill="blue" stroke="blue" points="1464.47,-202.37 1454.88,-197.87 1459.57,-207.37 1464.47,-202.37"/>
<text text-anchor="middle" x="1497.38" y="-221.54" font-family="Times,serif" font-size="14.00">&quot;&quot;</text>
</g>
<!-- /router/B_tracker/select_total&#45;&gt;/router/B_tracker/distance -->
<g id="edge25" class="edge">
<title>/router/B_tracker/select_total:sw&#45;&gt;/router/B_tracker/distance:n</title>
<path fill="none" stroke="black" d="M955.88,-147.87C922.54,-114.53 951.32,-88.4 955.41,-44.06"/>
<polygon fill="black" stroke="black" points="958.91,-44.15 955.88,-34 951.92,-43.83 958.91,-44.15"/>
<text text-anchor="middle" x="920.35" y="-91.8" font-family="Times,serif" font-size="14.00">select_i1</text>
</g>
<!-- /router/B_tracker/Append&#45;&gt;/router/B_tracker/route -->
<g id="edge26" class="edge">
<title>/router/B_tracker/Append:e&#45;&gt;/router/B_tracker/route:n</title>
<path fill="none" stroke="black" d="M778.88,-91C800.95,-91 783.81,-66.97 779.02,-44.03"/>
<polygon fill="black" stroke="black" points="782.49,-43.54 777.88,-34 775.53,-44.33 782.49,-43.54"/>
</g>
</g>
</svg>
