<?xml version="1.0" encoding="UTF-8" standalone="no"?>
<!DOCTYPE svg PUBLIC "-//W3C//DTD SVG 1.1//EN"
 "http://www.w3.org/Graphics/SVG/1.1/DTD/svg11.dtd">
<!-- Generated by graphviz version 2.43.0 (0)
 -->
<!-- Title: B_tracker Pages: 1 -->
<svg width="2339pt" height="698pt"
 viewBox="28.80 28.80 2310.15 669.02" xmlns="http://www.w3.org/2000/svg" xmlns:xlink="http://www.w3.org/1999/xlink">
<g id="page0,1_graph0" class="graph" transform="scale(1 1) rotate(0) translate(32.8 665.02)">
<title>B_tracker</title>
<polygon fill="white" stroke="transparent" points="-4,4 -4,-636.22 2277.35,-636.22 2277.35,4 -4,4"/>
<text text-anchor="middle" x="1136.67" y="-617.02" font-family="Times,serif" font-size="14.00">B_tracker</text>
<!-- /router/B_tracker/forward -->
<g id="node1" class="node">
<title>/router/B_tracker/forward</title>
<polygon fill="white" stroke="black" points="1700.34,-596.78 1641.55,-609.22 1582.76,-596.78 1582.81,-576.66 1700.29,-576.66 1700.34,-596.78"/>
<text text-anchor="middle" x="1641.55" y="-587.52" font-family="Times,serif" font-size="14.00">forward</text>
</g>
<!-- /router/B_tracker/forward_sum -->
<g id="node14" class="node">
<title>/router/B_tracker/forward_sum</title>
<g id="a_node14"><a xlink:href="../../flowstdlib/math/add/add.html" xlink:title="forward_sum\n(add)">
<ellipse fill="coral" stroke="black" cx="1457.55" cy="-441.35" rx="77.56" ry="26.74"/>
<text text-anchor="middle" x="1457.55" y="-445.15" font-family="Times,serif" font-size="14.00">forward_sum</text>
<text text-anchor="middle" x="1457.55" y="-430.15" font-family="Times,serif" font-size="14.00">(add)</text>
</a>
</g>
</g>
<!-- /router/B_tracker/forward&#45;&gt;/router/B_tracker/forward_sum -->
<g id="edge9" class="edge">
<title>/router/B_tracker/forward:s&#45;&gt;/router/B_tracker/forward_sum:ne</title>
<path fill="none" stroke="black" d="M1641.55,-575.22C1641.55,-493.33 1550.86,-524.83 1490.16,-474.3"/>
<polygon fill="black" stroke="black" points="1492.3,-471.51 1482.55,-467.35 1487.58,-476.68 1492.3,-471.51"/>
<text text-anchor="middle" x="1475.55" y="-471.15" font-family="Times,serif" font-size="14.00">i1</text>
</g>
<!-- /router/B_tracker/cross -->
<g id="node2" class="node">
<title>/router/B_tracker/cross</title>
<polygon fill="white" stroke="black" points="1198.82,-596.78 1155.55,-609.22 1112.29,-596.78 1112.33,-576.66 1198.77,-576.66 1198.82,-596.78"/>
<text text-anchor="middle" x="1155.55" y="-587.52" font-family="Times,serif" font-size="14.00">cross</text>
</g>
<!-- /router/B_tracker/cross_distance -->
<g id="node12" class="node">
<title>/router/B_tracker/cross_distance</title>
<g id="a_node12"><a xlink:href="../../flowstdlib/math/add/add.html" xlink:title="cross_distance\n(add)">
<ellipse fill="coral" stroke="black" cx="1022.55" cy="-441.35" rx="85.62" ry="26.74"/>
<text text-anchor="middle" x="1022.55" y="-445.15" font-family="Times,serif" font-size="14.00">cross_distance</text>
<text text-anchor="middle" x="1022.55" y="-430.15" font-family="Times,serif" font-size="14.00">(add)</text>
</a>
</g>
</g>
<!-- /router/B_tracker/cross&#45;&gt;/router/B_tracker/cross_distance -->
<g id="edge6" class="edge">
<title>/router/B_tracker/cross:s&#45;&gt;/router/B_tracker/cross_distance:ne</title>
<path fill="none" stroke="black" d="M1155.55,-575.22C1155.55,-549.57 1157.22,-539.53 1141.55,-519.22 1115.01,-484.81 1086.7,-498.83 1056.32,-475.11"/>
<polygon fill="black" stroke="black" points="1058.35,-472.24 1048.55,-468.22 1053.71,-477.48 1058.35,-472.24"/>
<text text-anchor="middle" x="1041.55" y="-472.02" font-family="Times,serif" font-size="14.00">i1</text>
</g>
<!-- /router/B_tracker/other -->
<g id="node3" class="node">
<title>/router/B_tracker/other</title>
<polygon fill="white" stroke="black" points="859.92,-596.78 815.55,-609.22 771.18,-596.78 771.22,-576.66 859.88,-576.66 859.92,-596.78"/>
<text text-anchor="middle" x="815.55" y="-587.52" font-family="Times,serif" font-size="14.00">other</text>
</g>
<!-- /router/B_tracker/other&#45;&gt;/router/B_tracker/cross_distance -->
<g id="edge7" class="edge">
<title>/router/B_tracker/other:s&#45;&gt;/router/B_tracker/cross_distance:w</title>
<path fill="none" stroke="black" d="M815.55,-575.22C815.55,-526.4 738.77,-592.75 707.55,-555.22 697.32,-542.92 698.24,-532.23 707.55,-519.22 736.87,-478.22 865.6,-445.4 925.26,-441.7"/>
<polygon fill="black" stroke="black" points="925.67,-445.19 935.55,-441.35 925.44,-438.19 925.67,-445.19"/>
<text text-anchor="middle" x="928.55" y="-445.15" font-family="Times,serif" font-size="14.00">i2</text>
</g>
<!-- /router/B_tracker/forward_string -->
<g id="node4" class="node">
<title>/router/B_tracker/forward_string</title>
<polygon fill="white" stroke="black" points="539.57,-596.78 441.55,-609.22 343.53,-596.78 343.62,-576.66 539.48,-576.66 539.57,-596.78"/>
<text text-anchor="middle" x="441.55" y="-587.52" font-family="Times,serif" font-size="14.00">forward_string</text>
</g>
<!-- /router/B_tracker/select_string -->
<g id="node18" class="node">
<title>/router/B_tracker/select_string</title>
<g id="a_node18"><a xlink:href="../../flowstdlib/control/select/select.html" xlink:title="select_string\n(select)">
<ellipse fill="coral" stroke="black" cx="615.55" cy="-172.87" rx="76.24" ry="26.74"/>
<text text-anchor="middle" x="615.55" y="-176.67" font-family="Times,serif" font-size="14.00">select_string</text>
<text text-anchor="middle" x="615.55" y="-161.67" font-family="Times,serif" font-size="14.00">(select)</text>
</a>
</g>
</g>
<!-- /router/B_tracker/forward_string&#45;&gt;/router/B_tracker/select_string -->
<g id="edge14" class="edge">
<title>/router/B_tracker/forward_string:s&#45;&gt;/router/B_tracker/select_string:ne</title>
<path fill="none" stroke="black" d="M441.55,-575.22C441.55,-522.21 529.55,-547.73 529.55,-494.72 529.55,-494.72 529.55,-494.72 529.55,-267.74 529.55,-213.83 660.83,-236.75 647.65,-207.78"/>
<polygon fill="black" stroke="black" points="650.38,-205.59 641.55,-199.74 644.81,-209.82 650.38,-205.59"/>
<text text-anchor="middle" x="634.55" y="-203.54" font-family="Times,serif" font-size="14.00">i1</text>
</g>
<!-- /router/B_tracker/cross_string -->
<g id="node5" class="node">
<title>/router/B_tracker/cross_string</title>
<polygon fill="white" stroke="black" points="167.15,-596.78 83.55,-609.22 -0.05,-596.78 0.03,-576.66 167.07,-576.66 167.15,-596.78"/>
<text text-anchor="middle" x="83.55" y="-587.52" font-family="Times,serif" font-size="14.00">cross_string</text>
</g>
<!-- /router/B_tracker/cross_string&#45;&gt;/router/B_tracker/select_string -->
<g id="edge15" class="edge">
<title>/router/B_tracker/cross_string:s&#45;&gt;/router/B_tracker/select_string:w</title>
<path fill="none" stroke="black" d="M83.55,-575.22C83.55,-539.44 83.55,-530.5 83.55,-494.72 83.55,-494.72 83.55,-494.72 83.55,-267.74 83.55,-257.95 89.1,-255.68 97.55,-250.74 180.54,-202.28 422,-174.68 527.48,-172.96"/>
<polygon fill="black" stroke="black" points="527.58,-176.46 537.55,-172.87 527.52,-169.46 527.58,-176.46"/>
<text text-anchor="middle" x="530.55" y="-176.67" font-family="Times,serif" font-size="14.00">i2</text>
</g>
<!-- /router/B_tracker/forward_route -->
<g id="node6" class="node">
<title>/router/B_tracker/forward_route</title>
<polygon fill="white" stroke="black" points="2273.15,-596.78 2178.55,-609.22 2083.95,-596.78 2084.04,-576.66 2273.06,-576.66 2273.15,-596.78"/>
<text text-anchor="middle" x="2178.55" y="-587.52" font-family="Times,serif" font-size="14.00">forward_route</text>
</g>
<!-- /router/B_tracker/select_route -->
<g id="node21" class="node">
<title>/router/B_tracker/select_route</title>
<g id="a_node21"><a xlink:href="../../flowstdlib/control/select/select.html" xlink:title="select_route\n(select)">
<ellipse fill="coral" stroke="black" cx="1812.55" cy="-172.87" rx="73.58" ry="26.74"/>
<text text-anchor="middle" x="1812.55" y="-176.67" font-family="Times,serif" font-size="14.00">select_route</text>
<text text-anchor="middle" x="1812.55" y="-161.67" font-family="Times,serif" font-size="14.00">(select)</text>
</a>
</g>
</g>
<!-- /router/B_tracker/forward_route&#45;&gt;/router/B_tracker/select_route -->
<g id="edge17" class="edge">
<title>/router/B_tracker/forward_route:s&#45;&gt;/router/B_tracker/select_route:ne</title>
<path fill="none" stroke="black" d="M2178.55,-575.22C2178.55,-539.44 2178.55,-530.5 2178.55,-494.72 2178.55,-494.72 2178.55,-494.72 2178.55,-267.74 2178.55,-257.95 2173.05,-255.6 2164.55,-250.74 2134.86,-233.76 1900.23,-226 1846.48,-204.09"/>
<polygon fill="black" stroke="black" points="1847.95,-200.9 1837.55,-198.87 1844.41,-206.94 1847.95,-200.9"/>
<text text-anchor="middle" x="1830.55" y="-202.67" font-family="Times,serif" font-size="14.00">i1</text>
</g>
<!-- /router/B_tracker/forward_distance -->
<g id="node7" class="node">
<title>/router/B_tracker/forward_distance</title>
<polygon fill="white" stroke="black" points="1565,-596.78 1452.55,-609.22 1340.11,-596.78 1340.21,-576.66 1564.89,-576.66 1565,-596.78"/>
<text text-anchor="middle" x="1452.55" y="-587.52" font-family="Times,serif" font-size="14.00">forward_distance</text>
</g>
<!-- /router/B_tracker/forward_distance&#45;&gt;/router/B_tracker/forward_sum -->
<g id="edge8" class="edge">
<title>/router/B_tracker/forward_distance:s&#45;&gt;/router/B_tracker/forward_sum:w</title>
<path fill="none" stroke="black" d="M1452.55,-575.22C1452.55,-544.45 1569.43,-578.49 1589.55,-555.22 1600.02,-543.12 1599.44,-531.8 1589.55,-519.22 1530.19,-443.72 1440.31,-542.61 1379.55,-468.22 1375.18,-462.87 1371.53,-454.72 1371.55,-448.81"/>
<polygon fill="black" stroke="black" points="1374.25,-451.03 1378.55,-441.35 1369.15,-446.24 1374.25,-451.03"/>
<text text-anchor="middle" x="1371.55" y="-445.15" font-family="Times,serif" font-size="14.00">i2</text>
</g>
<!-- /router/B_tracker/other_route -->
<g id="node8" class="node">
<title>/router/B_tracker/other_route</title>
<polygon fill="white" stroke="black" points="1878.73,-596.78 1798.55,-609.22 1718.38,-596.78 1718.45,-576.66 1878.65,-576.66 1878.73,-596.78"/>
<text text-anchor="middle" x="1798.55" y="-587.52" font-family="Times,serif" font-size="14.00">other_route</text>
</g>
<!-- /router/B_tracker/other_route&#45;&gt;/router/B_tracker/select_route -->
<g id="edge18" class="edge">
<title>/router/B_tracker/other_route:s&#45;&gt;/router/B_tracker/select_route:w</title>
<path fill="none" stroke="black" d="M1798.55,-575.22C1798.55,-530.6 1738.55,-539.34 1738.55,-494.72 1738.55,-494.72 1738.55,-494.72 1738.55,-267.74 1738.55,-229.69 1703.4,-183.06 1727.52,-174.32"/>
<polygon fill="black" stroke="black" points="1728.15,-177.76 1737.55,-172.87 1727.15,-170.84 1728.15,-177.76"/>
<text text-anchor="middle" x="1730.55" y="-176.67" font-family="Times,serif" font-size="14.00">i2</text>
</g>
<!-- /router/B_tracker/other_distance -->
<g id="node9" class="node">
<title>/router/B_tracker/other_distance</title>
<polygon fill="white" stroke="black" points="753.57,-596.78 655.55,-609.22 557.53,-596.78 557.62,-576.66 753.48,-576.66 753.57,-596.78"/>
<text text-anchor="middle" x="655.55" y="-587.52" font-family="Times,serif" font-size="14.00">other_distance</text>
</g>
<!-- /router/B_tracker/cross_sum -->
<g id="node16" class="node">
<title>/router/B_tracker/cross_sum</title>
<g id="a_node16"><a xlink:href="../../flowstdlib/math/add/add.html" xlink:title="cross_sum\n(add)">
<ellipse fill="coral" stroke="black" cx="1092.55" cy="-350.61" rx="64.19" ry="26.74"/>
<text text-anchor="middle" x="1092.55" y="-354.41" font-family="Times,serif" font-size="14.00">cross_sum</text>
<text text-anchor="middle" x="1092.55" y="-339.41" font-family="Times,serif" font-size="14.00">(add)</text>
</a>
</g>
</g>
<!-- /router/B_tracker/other_distance&#45;&gt;/router/B_tracker/cross_sum -->
<g id="edge10" class="edge">
<title>/router/B_tracker/other_distance:s&#45;&gt;/router/B_tracker/cross_sum:w</title>
<path fill="none" stroke="black" d="M655.55,-575.22C655.55,-412.87 886.12,-353.74 1016.21,-350.73"/>
<polygon fill="black" stroke="black" points="1016.59,-354.23 1026.55,-350.61 1016.51,-347.23 1016.59,-354.23"/>
<text text-anchor="middle" x="1019.55" y="-354.41" font-family="Times,serif" font-size="14.00">i2</text>
</g>
<!-- /router/B_tracker/route -->
<g id="node10" class="node">
<title>/router/B_tracker/route</title>
<polygon fill="black" stroke="black" points="1089.18,-12.44 1133.55,0 1177.92,-12.44 1177.88,-32.56 1089.22,-32.56 1089.18,-12.44"/>
<text text-anchor="middle" x="1133.55" y="-14.3" font-family="Times,serif" font-size="14.00" fill="white">route</text>
</g>
<!-- /router/B_tracker/distance -->
<g id="node11" class="node">
<title>/router/B_tracker/distance</title>
<polygon fill="black" stroke="black" points="1343.83,-12.44 1405.55,0 1467.27,-12.44 1467.21,-32.56 1343.89,-32.56 1343.83,-12.44"/>
<text text-anchor="middle" x="1405.55" y="-14.3" font-family="Times,serif" font-size="14.00" fill="white">distance</text>
</g>
<!-- /router/B_tracker/cross_distance&#45;&gt;/router/B_tracker/cross_sum -->
<g id="edge11" class="edge">
<title>/router/B_tracker/cross_distance:e&#45;&gt;/router/B_tracker/cross_sum:ne</title>
<path fill="none" stroke="black" d="M1109.55,-441.35C1135.15,-441.35 1137.76,-406.87 1123.92,-384.69"/>
<polygon fill="black" stroke="black" points="1126.49,-382.3 1117.55,-376.61 1120.99,-386.63 1126.49,-382.3"/>
<text text-anchor="middle" x="1110.55" y="-380.41" font-family="Times,serif" font-size="14.00">i1</text>
</g>
<!-- initializer/router/B_tracker/cross_distance_1 -->
<!-- initializer/router/B_tracker/cross_distance_1&#45;&gt;/router/B_tracker/cross_distance -->
<g id="edge1" class="edge">
<title>initializer/router/B_tracker/cross_distance_1&#45;&gt;/router/B_tracker/cross_distance:w</title>
<path fill="none" stroke="blue" d="M919.65,-518.82C913.72,-494.86 906.73,-453.52 925.74,-443.56"/>
<polygon fill="blue" stroke="blue" points="926.56,-446.96 935.55,-441.35 925.03,-440.13 926.56,-446.96"/>
<text text-anchor="middle" x="921.55" y="-490.02" font-family="Times,serif" font-size="14.00">0</text>
</g>
<!-- /router/B_tracker/compare -->
<g id="node17" class="node">
<title>/router/B_tracker/compare</title>
<g id="a_node17"><a xlink:href="../../flowstdlib/math/compare/compare.html" xlink:title="compare">
<ellipse fill="coral" stroke="black" cx="1284.55" cy="-268.74" rx="50.89" ry="18"/>
<text text-anchor="middle" x="1284.55" y="-265.04" font-family="Times,serif" font-size="14.00">compare</text>
</a>
</g>
</g>
<!-- /router/B_tracker/forward_sum&#45;&gt;/router/B_tracker/compare -->
<g id="edge12" class="edge">
<title>/router/B_tracker/forward_sum:e&#45;&gt;/router/B_tracker/compare:ne</title>
<path fill="none" stroke="black" d="M1536.55,-441.35C1548.5,-441.35 1543.06,-423.77 1535.55,-414.48 1515.08,-389.16 1494.27,-409.77 1464.55,-396.48 1388.09,-362.3 1365.17,-349.55 1308.95,-294.09"/>
<polygon fill="black" stroke="black" points="1311.11,-291.31 1301.55,-286.74 1306.18,-296.27 1311.11,-291.31"/>
<text text-anchor="middle" x="1289.05" y="-290.54" font-family="Times,serif" font-size="14.00">left</text>
</g>
<!-- /router/B_tracker/select_total -->
<g id="node23" class="node">
<title>/router/B_tracker/select_total</title>
<g id="a_node23"><a xlink:href="../../flowstdlib/control/select/select.html" xlink:title="select_total\n(select)">
<ellipse fill="coral" stroke="black" cx="1430.55" cy="-172.87" rx="69.09" ry="26.74"/>
<text text-anchor="middle" x="1430.55" y="-176.67" font-family="Times,serif" font-size="14.00">select_total</text>
<text text-anchor="middle" x="1430.55" y="-161.67" font-family="Times,serif" font-size="14.00">(select)</text>
</a>
</g>
</g>
<!-- /router/B_tracker/forward_sum&#45;&gt;/router/B_tracker/select_total -->
<g id="edge20" class="edge">
<title>/router/B_tracker/forward_sum:e&#45;&gt;/router/B_tracker/select_total:ne</title>
<path fill="none" stroke="black" d="M1536.55,-441.35C1563.96,-441.35 1673.38,-419.69 1462.85,-206.22"/>
<polygon fill="black" stroke="black" points="1465.08,-203.5 1455.55,-198.87 1460.11,-208.43 1465.08,-203.5"/>
<text text-anchor="middle" x="1448.55" y="-202.67" font-family="Times,serif" font-size="14.00">i1</text>
</g>
<!-- initializer/router/B_tracker/forward_sum_1 -->
<!-- initializer/router/B_tracker/forward_sum_1&#45;&gt;/router/B_tracker/forward_sum -->
<g id="edge2" class="edge">
<title>initializer/router/B_tracker/forward_sum_1&#45;&gt;/router/B_tracker/forward_sum:w</title>
<path fill="none" stroke="blue" stroke-dasharray="1,5" d="M1372.5,-518.82C1363.68,-495.07 1351.67,-454.25 1368.61,-443.83"/>
<polygon fill="blue" stroke="blue" points="1369.7,-447.17 1378.55,-441.35 1368,-440.38 1369.7,-447.17"/>
<text text-anchor="middle" x="1371.55" y="-490.02" font-family="Times,serif" font-size="14.00">0</text>
</g>
<!-- /router/B_tracker/cross_sum&#45;&gt;/router/B_tracker/compare -->
<g id="edge13" class="edge">
<title>/router/B_tracker/cross_sum:e&#45;&gt;/router/B_tracker/compare:ne</title>
<path fill="none" stroke="black" d="M1158.55,-350.61C1189,-350.61 1294.49,-320.55 1303.9,-296.55"/>
<polygon fill="black" stroke="black" points="1307.28,-295.65 1301.55,-286.74 1300.48,-297.28 1307.28,-295.65"/>
<text text-anchor="middle" x="1319.55" y="-290.54" font-family="Times,serif" font-size="14.00">right</text>
</g>
<!-- /router/B_tracker/cross_sum&#45;&gt;/router/B_tracker/select_total -->
<g id="edge21" class="edge">
<title>/router/B_tracker/cross_sum:e&#45;&gt;/router/B_tracker/select_total:w</title>
<path fill="none" stroke="black" d="M1158.55,-350.61C1202.25,-350.61 1320.25,-323.06 1344.55,-286.74 1370.72,-247.63 1318.01,-183.86 1349.6,-174.13"/>
<polygon fill="black" stroke="black" points="1350.07,-177.6 1359.55,-172.87 1349.19,-170.65 1350.07,-177.6"/>
<text text-anchor="middle" x="1352.55" y="-176.67" font-family="Times,serif" font-size="14.00">i2</text>
</g>
<!-- /router/B_tracker/compare&#45;&gt;/router/B_tracker/select_string -->
<g id="edge16" class="edge">
<title>/router/B_tracker/compare:s&#45;&gt;/router/B_tracker/select_string:nw</title>
<path fill="none" stroke="black" d="M1284.55,-250.74C1284.55,-215.28 678.42,-224.96 597.65,-205.8"/>
<polygon fill="black" stroke="black" points="599.65,-202.93 589.55,-199.74 595.46,-208.53 599.65,-202.93"/>
<text text-anchor="middle" x="927.69" y="-225.05" font-family="Times,serif" font-size="14.00">lte</text>
<text text-anchor="middle" x="564.05" y="-203.54" font-family="Times,serif" font-size="14.00">control</text>
</g>
<!-- /router/B_tracker/compare&#45;&gt;/router/B_tracker/select_route -->
<g id="edge19" class="edge">
<title>/router/B_tracker/compare:s&#45;&gt;/router/B_tracker/select_route:nw</title>
<path fill="none" stroke="black" d="M1284.55,-250.74C1284.55,-197.3 1703.69,-234.54 1778.8,-204.11"/>
<polygon fill="black" stroke="black" points="1780.77,-207.01 1787.55,-198.87 1777.17,-201.01 1780.77,-207.01"/>
<text text-anchor="middle" x="1526.63" y="-222.32" font-family="Times,serif" font-size="14.00">lte</text>
<text text-anchor="middle" x="1762.05" y="-202.67" font-family="Times,serif" font-size="14.00">control</text>
</g>
<!-- /router/B_tracker/compare&#45;&gt;/router/B_tracker/select_total -->
<g id="edge22" class="edge">
<title>/router/B_tracker/compare:s&#45;&gt;/router/B_tracker/select_total:nw</title>
<path fill="none" stroke="black" d="M1284.55,-250.74C1284.55,-232.6 1293.25,-227.48 1308.55,-217.74 1342.41,-196.18 1369.47,-224.21 1397.59,-205.48"/>
<polygon fill="black" stroke="black" points="1400.09,-207.95 1405.55,-198.87 1395.62,-202.56 1400.09,-207.95"/>
<text text-anchor="middle" x="1336.78" y="-213.29" font-family="Times,serif" font-size="14.00">lte</text>
<text text-anchor="middle" x="1380.05" y="-202.67" font-family="Times,serif" font-size="14.00">control</text>
</g>
<!-- /router/B_tracker/append -->
<g id="node24" class="node">
<title>/router/B_tracker/append</title>
<g id="a_node24"><a xlink:href="../../flowstdlib/data/append/append.html" xlink:title="append">
<ellipse fill="coral" stroke="black" cx="1088.55" cy="-91" rx="44.69" ry="18"/>
<text text-anchor="middle" x="1088.55" y="-87.3" font-family="Times,serif" font-size="14.00">append</text>
</a>
</g>
</g>
<!-- /router/B_tracker/select_string&#45;&gt;/router/B_tracker/append -->
<g id="edge24" class="edge">
<title>/router/B_tracker/select_string:sw&#45;&gt;/router/B_tracker/append:nw</title>
<path fill="none" stroke="black" d="M589.55,-146C440,3.55 904.72,-252.69 1064.19,-115.82"/>
<polygon fill="black" stroke="black" points="1066.59,-118.36 1071.55,-109 1061.84,-113.23 1066.59,-118.36"/>
<text text-anchor="middle" x="795.47" y="-153.57" font-family="Times,serif" font-size="14.00">select_i1</text>
<text text-anchor="middle" x="1063.05" y="-112.8" font-family="Times,serif" font-size="14.00">s2</text>
</g>
<!-- initializer/router/B_tracker/select_string_0 -->
<!-- initializer/router/B_tracker/select_string_0&#45;&gt;/router/B_tracker/select_string -->
<g id="edge3" class="edge">
<title>initializer/router/B_tracker/select_string_0&#45;&gt;/router/B_tracker/select_string:ne</title>
<path fill="none" stroke="blue" d="M716.06,-250.99C695.35,-240.35 669.54,-225.12 648.9,-206.68"/>
<polygon fill="blue" stroke="blue" points="651.23,-204.06 641.55,-199.74 646.42,-209.15 651.23,-204.06"/>
<text text-anchor="middle" x="697.05" y="-221.54" font-family="Times,serif" font-size="14.00">&quot;B&quot;</text>
</g>
<!-- initializer/router/B_tracker/select_string_1 -->
<!-- initializer/router/B_tracker/select_string_1&#45;&gt;/router/B_tracker/select_string -->
<g id="edge4" class="edge">
<title>initializer/router/B_tracker/select_string_1&#45;&gt;/router/B_tracker/select_string:w</title>
<path fill="none" stroke="blue" d="M330.18,-250.78C368.85,-224.66 449.18,-177.18 527.08,-173.14"/>
<polygon fill="blue" stroke="blue" points="527.65,-176.63 537.55,-172.87 527.46,-169.63 527.65,-176.63"/>
<text text-anchor="middle" x="393.05" y="-221.54" font-family="Times,serif" font-size="14.00">&quot;C&quot;</text>
</g>
<!-- /router/B_tracker/select_route&#45;&gt;/router/B_tracker/append -->
<g id="edge23" class="edge">
<title>/router/B_tracker/select_route:sw&#45;&gt;/router/B_tracker/append:w</title>
<path fill="none" stroke="black" d="M1787.55,-146.87C1729.02,-88.34 1102.22,-167.39 1043.55,-109 1041.33,-106.79 1039.47,-103.56 1038.51,-100.45"/>
<polygon fill="black" stroke="black" points="1041.83,-101.57 1042.55,-91 1035.4,-98.82 1041.83,-101.57"/>
<text text-anchor="middle" x="1383.6" y="-131.7" font-family="Times,serif" font-size="14.00">select_i1</text>
<text text-anchor="middle" x="1034.05" y="-94.8" font-family="Times,serif" font-size="14.00">s1</text>
</g>
<!-- initializer/router/B_tracker/select_route_0 -->
<!-- initializer/router/B_tracker/select_route_0&#45;&gt;/router/B_tracker/select_route -->
<g id="edge5" class="edge">
<title>initializer/router/B_tracker/select_route_0&#45;&gt;/router/B_tracker/select_route:ne</title>
<path fill="none" stroke="blue" stroke-dasharray="1,5" d="M1917.34,-251.06C1894.72,-240.54 1866.91,-225.27 1845.03,-205.89"/>
<polygon fill="blue" stroke="blue" points="1847.24,-203.17 1837.55,-198.87 1842.44,-208.27 1847.24,-203.17"/>
<text text-anchor="middle" x="1886.55" y="-221.54" font-family="Times,serif" font-size="14.00">&quot;&quot;</text>
</g>
<!-- /router/B_tracker/select_total&#45;&gt;/router/B_tracker/distance -->
<g id="edge25" class="edge">
<title>/router/B_tracker/select_total:sw&#45;&gt;/router/B_tracker/distance:n</title>
<path fill="none" stroke="black" d="M1405.55,-146.87C1372.57,-113.89 1400.91,-88.03 1405.06,-44.25"/>
<polygon fill="black" stroke="black" points="1408.57,-44.16 1405.55,-34 1401.58,-43.82 1408.57,-44.16"/>
<text text-anchor="middle" x="1363.08" y="-91.46" font-family="Times,serif" font-size="14.00">select_i1</text>
</g>
<!-- /router/B_tracker/append&#45;&gt;/router/B_tracker/route -->
<g id="edge26" class="edge">
<title>/router/B_tracker/append:e&#45;&gt;/router/B_tracker/route:n</title>
<path fill="none" stroke="black" d="M1134.55,-91C1156.62,-91 1139.48,-66.97 1134.7,-44.03"/>
<polygon fill="black" stroke="black" points="1138.16,-43.54 1133.55,-34 1131.21,-44.33 1138.16,-43.54"/>
</g>
</g>
</svg>
