<?xml version="1.0" encoding="UTF-8" standalone="no"?>
<!DOCTYPE svg PUBLIC "-//W3C//DTD SVG 1.1//EN"
 "http://www.w3.org/Graphics/SVG/1.1/DTD/svg11.dtd">
<!-- Generated by graphviz version 2.42.3 (20191010.1750)
 -->
<!-- Title: router Pages: 1 -->
<svg width="395pt" height="312pt"
 viewBox="28.80 28.80 366.65 283.54" xmlns="http://www.w3.org/2000/svg" xmlns:xlink="http://www.w3.org/1999/xlink">
<g id="graph0" class="graph" transform="scale(1 1) rotate(0) translate(32.8 279.54)">
<title>router</title>
<polygon fill="white" stroke="transparent" points="-4,4 -4,-250.74 333.85,-250.74 333.85,4 -4,4"/>
<text text-anchor="middle" x="164.93" y="-231.54" font-family="Times,serif" font-size="14.00">router</text>
<!-- /router/readline -->
<g id="node1" class="node">
<title>/router/readline</title>
<ellipse fill="coral" stroke="black" cx="53.09" cy="-199.28" rx="53.18" ry="25.41"/>
<text text-anchor="middle" x="53.09" y="-202.08" font-family="Times,serif" font-size="14.00">readline</text>
<text text-anchor="middle" x="53.09" y="-188.08" font-family="Times,serif" font-size="14.00">(Readline)</text>
</g>
<!-- /router/read_section -->
<g id="node2" class="node">
<title>/router/read_section</title>
<ellipse fill="coral" stroke="black" cx="174.09" cy="-112.37" rx="67.88" ry="25.41"/>
<text text-anchor="middle" x="174.09" y="-115.17" font-family="Times,serif" font-size="14.00">read_section</text>
<text text-anchor="middle" x="174.09" y="-101.17" font-family="Times,serif" font-size="14.00">(ReadSection)</text>
</g>
<!-- /router/readline&#45;&gt;/router/read_section -->
<g id="edge1" class="edge">
<title>/router/readline:e&#45;&gt;/router/read_section:w</title>
<path fill="none" stroke="black" d="M107.09,-199.28C140.9,-199.28 84.43,-132.74 95.67,-116.1"/>
<polygon fill="black" stroke="black" points="97.08,-119.31 105.09,-112.37 94.51,-112.8 97.08,-119.31"/>
</g>
<!-- /router/print -->
<g id="node3" class="node">
<title>/router/print</title>
<ellipse fill="coral" stroke="black" cx="286.09" cy="-25.46" rx="43.53" ry="25.41"/>
<text text-anchor="middle" x="286.09" y="-28.26" font-family="Times,serif" font-size="14.00">print</text>
<text text-anchor="middle" x="286.09" y="-14.26" font-family="Times,serif" font-size="14.00">(Stdout)</text>
</g>
<!-- /router/read_section&#45;&gt;/router/print -->
<g id="edge2" class="edge">
<title>/router/read_section:e&#45;&gt;/router/print:w</title>
<path fill="none" stroke="black" d="M243.09,-112.37C276.9,-112.37 220.43,-45.83 231.67,-29.19"/>
<polygon fill="black" stroke="black" points="233.08,-32.39 241.09,-25.46 230.51,-25.89 233.08,-32.39"/>
</g>
</g>
</svg>
