<?xml version="1.0" encoding="UTF-8" standalone="no"?>
<!DOCTYPE svg PUBLIC "-//W3C//DTD SVG 1.1//EN"
 "http://www.w3.org/Graphics/SVG/1.1/DTD/svg11.dtd">
<!-- Generated by graphviz version 2.44.1 (20200629.0846)
 -->
<!-- Title: matrix_mult Pages: 1 -->
<svg width="372pt" height="574pt"
 viewBox="28.80 28.80 342.80 545.54" xmlns="http://www.w3.org/2000/svg" xmlns:xlink="http://www.w3.org/1999/xlink">
<g id="graph0" class="graph" transform="scale(1 1) rotate(0) translate(32.8 541.54)">
<title>matrix_mult</title>
<polygon fill="white" stroke="transparent" points="-4,4 -4,-512.74 310,-512.74 310,4 -4,4"/>
<text text-anchor="middle" x="153" y="-493.54" font-family="Times,serif" font-size="14.00">matrix_mult</text>
<!-- /matrix_mult/readline -->
<g id="node1" class="node">
<title>/matrix_mult/readline</title>
<g id="a_node1"><a xlink:href="../../flowr/src/lib/flowruntime/stdio/readline.html" xlink:title="readline">
<ellipse fill="coral" stroke="black" cx="114" cy="-467.74" rx="38.99" ry="18"/>
<text text-anchor="middle" x="114" y="-464.04" font-family="Times,serif" font-size="14.00">readline</text>
</a>
</g>
</g>
<!-- /matrix_mult/select_0 -->
<g id="node2" class="node">
<title>/matrix_mult/select_0</title>
<g id="a_node2"><a xlink:href="lib://flowstdlib/control/index_f.dot.svg" xlink:title="select_0">
<ellipse fill="aquamarine" stroke="black" cx="72" cy="-341.74" rx="72" ry="72"/>
<text text-anchor="middle" x="72" y="-338.04" font-family="Times,serif" font-size="14.00">select_0</text>
</a>
</g>
</g>
<!-- /matrix_mult/readline&#45;&gt;/matrix_mult/select_0 -->
<g id="edge1" class="edge">
<title>/matrix_mult/readline:e&#45;&gt;/matrix_mult/select_0:n</title>
<path fill="none" stroke="black" d="M154,-467.74C162.01,-467.74 157.55,-456.33 153,-449.74 132.98,-420.74 83.96,-446.34 73.85,-423.86"/>
<polygon fill="black" stroke="black" points="77.24,-422.95 72,-413.74 70.35,-424.21 77.24,-422.95"/>
<text text-anchor="middle" x="101.61" y="-438.18" font-family="Times,serif" font-size="14.00">json</text>
<text text-anchor="middle" x="57" y="-417.54" font-family="Times,serif" font-size="14.00">value</text>
</g>
<!-- /matrix_mult/select_1 -->
<g id="node3" class="node">
<title>/matrix_mult/select_1</title>
<g id="a_node3"><a xlink:href="lib://flowstdlib/control/index_f.dot.svg" xlink:title="select_1">
<ellipse fill="aquamarine" stroke="black" cx="234" cy="-341.74" rx="72" ry="72"/>
<text text-anchor="middle" x="234" y="-338.04" font-family="Times,serif" font-size="14.00">select_1</text>
</a>
</g>
</g>
<!-- /matrix_mult/readline&#45;&gt;/matrix_mult/select_1 -->
<g id="edge2" class="edge">
<title>/matrix_mult/readline:e&#45;&gt;/matrix_mult/select_1:n</title>
<path fill="none" stroke="black" d="M154,-467.74C193.21,-467.74 227.58,-458.46 233.2,-424.11"/>
<polygon fill="black" stroke="black" points="236.72,-423.98 234,-413.74 229.74,-423.44 236.72,-423.98"/>
<text text-anchor="middle" x="194.74" y="-462.59" font-family="Times,serif" font-size="14.00">json</text>
<text text-anchor="middle" x="219" y="-417.54" font-family="Times,serif" font-size="14.00">value</text>
</g>
<!-- /matrix_mult/multiply -->
<g id="node4" class="node">
<title>/matrix_mult/multiply</title>
<g id="a_node4"><a xlink:href="multiply.dot.svg" xlink:title="multiply">
<ellipse fill="aquamarine" stroke="black" cx="153" cy="-161.74" rx="72" ry="72"/>
<text text-anchor="middle" x="153" y="-158.04" font-family="Times,serif" font-size="14.00">multiply</text>
</a>
</g>
</g>
<!-- /matrix_mult/select_0&#45;&gt;/matrix_mult/multiply -->
<g id="edge3" class="edge">
<title>/matrix_mult/select_0:s&#45;&gt;/matrix_mult/multiply:n</title>
<path fill="none" stroke="black" d="M72,-269.74C72,-234.5 136.82,-265.02 150.49,-243.66"/>
<polygon fill="black" stroke="black" points="153.94,-244.29 153,-233.74 147.15,-242.57 153.94,-244.29"/>
<text text-anchor="middle" x="72.46" y="-255.54" font-family="Times,serif" font-size="14.00">selected_value</text>
<text text-anchor="middle" x="149.5" y="-237.54" font-family="Times,serif" font-size="14.00">a</text>
</g>
<!-- /matrix_mult/select_1&#45;&gt;/matrix_mult/multiply -->
<g id="edge4" class="edge">
<title>/matrix_mult/select_1:s&#45;&gt;/matrix_mult/multiply:n</title>
<path fill="none" stroke="black" d="M234,-269.74C234,-234.5 169.18,-265.02 155.51,-243.66"/>
<polygon fill="black" stroke="black" points="158.85,-242.57 153,-233.74 152.06,-244.29 158.85,-242.57"/>
<text text-anchor="middle" x="153.54" y="-255.54" font-family="Times,serif" font-size="14.00">selected_value</text>
<text text-anchor="middle" x="156.5" y="-237.54" font-family="Times,serif" font-size="14.00">b</text>
</g>
<!-- /matrix_mult/print -->
<g id="node5" class="node">
<title>/matrix_mult/print</title>
<g id="a_node5"><a xlink:href="../../flowr/src/lib/flowruntime/stdio/stdout.html" xlink:title="print\n(stdout)">
<ellipse fill="coral" stroke="black" cx="195" cy="-26.87" rx="41.94" ry="26.74"/>
<text text-anchor="middle" x="195" y="-30.67" font-family="Times,serif" font-size="14.00">print</text>
<text text-anchor="middle" x="195" y="-15.67" font-family="Times,serif" font-size="14.00">(stdout)</text>
</a>
</g>
</g>
<!-- /matrix_mult/multiply&#45;&gt;/matrix_mult/print -->
<g id="edge5" class="edge">
<title>/matrix_mult/multiply:s&#45;&gt;/matrix_mult/print:w</title>
<path fill="none" stroke="black" d="M153,-89.74C153,-66.6 133.15,-38.67 142.2,-29.75"/>
<polygon fill="black" stroke="black" points="143.39,-33.05 152,-26.87 141.42,-26.33 143.39,-33.05"/>
<text text-anchor="middle" x="123.19" y="-58.18" font-family="Times,serif" font-size="14.00">product</text>
</g>
</g>
</svg>
