<?xml version="1.0" encoding="UTF-8" standalone="no"?>
<!DOCTYPE svg PUBLIC "-//W3C//DTD SVG 1.1//EN"
 "http://www.w3.org/Graphics/SVG/1.1/DTD/svg11.dtd">
<!-- Generated by graphviz version 2.44.0 (20200408.0750)
 -->
<!-- Title: matrix_mult Pages: 1 -->
<svg width="426pt" height="664pt"
 viewBox="28.80 28.80 397.05 635.28" xmlns="http://www.w3.org/2000/svg" xmlns:xlink="http://www.w3.org/1999/xlink">
<g id="graph0" class="graph" transform="scale(1 1) rotate(0) translate(32.8 631.28)">
<title>matrix_mult</title>
<polygon fill="white" stroke="transparent" points="-4,4 -4,-602.48 364.25,-602.48 364.25,4 -4,4"/>
<text text-anchor="middle" x="180.12" y="-583.28" font-family="Times,serif" font-size="14.00">matrix_mult</text>
<!-- /matrix_mult/Readline -->
<g id="node1" class="node">
<title>/matrix_mult/Readline</title>
<g id="a_node1"><a xlink:href="../../flowruntime/stdio/readline.html" xlink:title="Readline">
<ellipse fill="coral" stroke="black" cx="42.25" cy="-557.48" rx="42.49" ry="18"/>
<text text-anchor="middle" x="42.25" y="-553.78" font-family="Times,serif" font-size="14.00">Readline</text>
</a>
</g>
</g>
<!-- /matrix_mult/to_json -->
<g id="node2" class="node">
<title>/matrix_mult/to_json</title>
<g id="a_node2"><a xlink:href="../../flowstdlib/fmt/to_json/to_json.html" xlink:title="to_json\n(ToNumber)">
<ellipse fill="coral" stroke="black" cx="146.25" cy="-476.61" rx="60.62" ry="26.74"/>
<text text-anchor="middle" x="146.25" y="-480.41" font-family="Times,serif" font-size="14.00">to_json</text>
<text text-anchor="middle" x="146.25" y="-465.41" font-family="Times,serif" font-size="14.00">(ToNumber)</text>
</a>
</g>
</g>
<!-- /matrix_mult/Readline&#45;&gt;/matrix_mult/to_json -->
<g id="edge1" class="edge">
<title>/matrix_mult/Readline:e&#45;&gt;/matrix_mult/to_json:w</title>
<path fill="none" stroke="black" d="M86.25,-557.48C117.14,-557.48 66.91,-497.76 74.99,-480.96"/>
<polygon fill="black" stroke="black" points="76.68,-484.03 84.25,-476.61 73.71,-477.69 76.68,-484.03"/>
</g>
<!-- /matrix_mult/select_0 -->
<g id="node3" class="node">
<title>/matrix_mult/select_0</title>
<g id="a_node3"><a xlink:href="../../flowstdlib/control/index_f.dot.svg" xlink:title="select_0">
<ellipse fill="aquamarine" stroke="black" cx="126.25" cy="-341.74" rx="72" ry="72"/>
<text text-anchor="middle" x="126.25" y="-338.04" font-family="Times,serif" font-size="14.00">select_0</text>
</a>
</g>
</g>
<!-- /matrix_mult/to_json&#45;&gt;/matrix_mult/select_0 -->
<g id="edge2" class="edge">
<title>/matrix_mult/to_json:e&#45;&gt;/matrix_mult/select_0:n</title>
<path fill="none" stroke="black" d="M208.25,-476.61C220.2,-476.61 213.94,-459.64 207.25,-449.74 187.5,-420.55 138.27,-446.3 128.1,-423.86"/>
<polygon fill="black" stroke="black" points="131.49,-422.95 126.25,-413.74 124.61,-424.21 131.49,-422.95"/>
<text text-anchor="middle" x="111.25" y="-417.54" font-family="Times,serif" font-size="14.00">value</text>
</g>
<!-- /matrix_mult/select_1 -->
<g id="node4" class="node">
<title>/matrix_mult/select_1</title>
<g id="a_node4"><a xlink:href="../../flowstdlib/control/index_f.dot.svg" xlink:title="select_1">
<ellipse fill="aquamarine" stroke="black" cx="288.25" cy="-341.74" rx="72" ry="72"/>
<text text-anchor="middle" x="288.25" y="-338.04" font-family="Times,serif" font-size="14.00">select_1</text>
</a>
</g>
</g>
<!-- /matrix_mult/to_json&#45;&gt;/matrix_mult/select_1 -->
<g id="edge3" class="edge">
<title>/matrix_mult/to_json:e&#45;&gt;/matrix_mult/select_1:n</title>
<path fill="none" stroke="black" d="M208.25,-476.61C249.93,-476.61 282.75,-461.61 287.62,-423.84"/>
<polygon fill="black" stroke="black" points="291.12,-423.94 288.25,-413.74 284.13,-423.5 291.12,-423.94"/>
<text text-anchor="middle" x="273.25" y="-417.54" font-family="Times,serif" font-size="14.00">value</text>
</g>
<!-- /matrix_mult/multiply -->
<g id="node5" class="node">
<title>/matrix_mult/multiply</title>
<g id="a_node5"><a xlink:href="multiply.dot.svg" xlink:title="multiply">
<ellipse fill="aquamarine" stroke="black" cx="207.25" cy="-161.74" rx="72" ry="72"/>
<text text-anchor="middle" x="207.25" y="-158.04" font-family="Times,serif" font-size="14.00">multiply</text>
</a>
</g>
</g>
<!-- /matrix_mult/select_0&#45;&gt;/matrix_mult/multiply -->
<g id="edge4" class="edge">
<title>/matrix_mult/select_0:s&#45;&gt;/matrix_mult/multiply:n</title>
<path fill="none" stroke="black" d="M126.25,-269.74C126.25,-234.5 191.06,-265.02 204.73,-243.66"/>
<polygon fill="black" stroke="black" points="208.18,-244.29 207.25,-233.74 201.4,-242.57 208.18,-244.29"/>
<text text-anchor="middle" x="126.71" y="-255.54" font-family="Times,serif" font-size="14.00">selected_value</text>
<text text-anchor="middle" x="203.75" y="-237.54" font-family="Times,serif" font-size="14.00">a</text>
</g>
<!-- /matrix_mult/select_1&#45;&gt;/matrix_mult/multiply -->
<g id="edge5" class="edge">
<title>/matrix_mult/select_1:s&#45;&gt;/matrix_mult/multiply:n</title>
<path fill="none" stroke="black" d="M288.25,-269.74C288.25,-234.5 223.43,-265.02 209.76,-243.66"/>
<polygon fill="black" stroke="black" points="213.1,-242.57 207.25,-233.74 206.31,-244.29 213.1,-242.57"/>
<text text-anchor="middle" x="207.79" y="-255.54" font-family="Times,serif" font-size="14.00">selected_value</text>
<text text-anchor="middle" x="210.75" y="-237.54" font-family="Times,serif" font-size="14.00">b</text>
</g>
<!-- /matrix_mult/print -->
<g id="node6" class="node">
<title>/matrix_mult/print</title>
<g id="a_node6"><a xlink:href="../../flowruntime/stdio/stdout.html" xlink:title="print\n(Stdout)">
<ellipse fill="coral" stroke="black" cx="251.25" cy="-26.87" rx="43.27" ry="26.74"/>
<text text-anchor="middle" x="251.25" y="-30.67" font-family="Times,serif" font-size="14.00">print</text>
<text text-anchor="middle" x="251.25" y="-15.67" font-family="Times,serif" font-size="14.00">(Stdout)</text>
</a>
</g>
</g>
<!-- /matrix_mult/multiply&#45;&gt;/matrix_mult/print -->
<g id="edge6" class="edge">
<title>/matrix_mult/multiply:s&#45;&gt;/matrix_mult/print:w</title>
<path fill="none" stroke="black" d="M207.25,-89.74C207.25,-66.6 187.4,-38.67 196.44,-29.75"/>
<polygon fill="black" stroke="black" points="197.64,-33.05 206.25,-26.87 195.67,-26.33 197.64,-33.05"/>
<text text-anchor="middle" x="177.44" y="-58.18" font-family="Times,serif" font-size="14.00">product</text>
</g>
</g>
</svg>
