<?xml version="1.0" encoding="UTF-8" standalone="no"?>
<!DOCTYPE svg PUBLIC "-//W3C//DTD SVG 1.1//EN"
 "http://www.w3.org/Graphics/SVG/1.1/DTD/svg11.dtd">
<!-- Generated by graphviz version 2.40.1 (20161225.0304)
 -->
<!-- Title: matrix_mult Pages: 1 -->
<svg width="372pt" height="574pt"
 viewBox="28.80 28.80 342.80 545.54" xmlns="http://www.w3.org/2000/svg" xmlns:xlink="http://www.w3.org/1999/xlink">
<g id="graph0" class="graph" transform="scale(1 1) rotate(0) translate(32.8 541.5401)">
<title>matrix_mult</title>
<polygon fill="#ffffff" stroke="transparent" points="-4,4 -4,-512.7401 310,-512.7401 310,4 -4,4"/>
<text text-anchor="middle" x="153" y="-493.5401" font-family="Times,serif" font-size="14.00" fill="#000000">matrix_mult</text>
<!-- /matrix_mult/readline -->
<g id="node1" class="node">
<title>/matrix_mult/readline</title>
<g id="a_node1"><a xlink:href="../../flowr/src/lib/flowruntime/stdio/readline.html" xlink:title="readline">
<ellipse fill="#ff7f50" stroke="#000000" cx="104" cy="-467.7401" rx="48.9926" ry="18"/>
<text text-anchor="middle" x="104" y="-464.0401" font-family="Times,serif" font-size="14.00" fill="#000000">readline</text>
</a>
</g>
</g>
<!-- /matrix_mult/select_0 -->
<g id="node2" class="node">
<title>/matrix_mult/select_0</title>
<g id="a_node2"><a xlink:href="lib://flowstdlib/control/index_f.dot.svg" xlink:title="select_0">
<ellipse fill="#7fffd4" stroke="#000000" cx="72" cy="-341.7401" rx="72" ry="72"/>
<text text-anchor="middle" x="72" y="-338.0401" font-family="Times,serif" font-size="14.00" fill="#000000">select_0</text>
</a>
</g>
</g>
<!-- /matrix_mult/readline&#45;&gt;/matrix_mult/select_0 -->
<g id="edge1" class="edge">
<title>/matrix_mult/readline:e&#45;&gt;/matrix_mult/select_0:n</title>
<path fill="none" stroke="#000000" d="M153,-467.7401C161,-467.7401 157.3593,-456.4481 153,-449.7401 133.797,-420.1913 84.1343,-446.2241 73.8722,-423.8452"/>
<polygon fill="#000000" stroke="#000000" points="77.2632,-422.9352 72,-413.7401 70.3803,-424.2104 77.2632,-422.9352"/>
<text text-anchor="middle" x="97.3536" y="-437.9088" font-family="Times,serif" font-size="14.00" fill="#000000">json</text>
<text text-anchor="middle" x="52.5" y="-417.5401" font-family="Times,serif" font-size="14.00" fill="#000000">value</text>
</g>
<!-- /matrix_mult/select_1 -->
<g id="node3" class="node">
<title>/matrix_mult/select_1</title>
<g id="a_node3"><a xlink:href="lib://flowstdlib/control/index_f.dot.svg" xlink:title="select_1">
<ellipse fill="#7fffd4" stroke="#000000" cx="234" cy="-341.7401" rx="72" ry="72"/>
<text text-anchor="middle" x="234" y="-338.0401" font-family="Times,serif" font-size="14.00" fill="#000000">select_1</text>
</a>
</g>
</g>
<!-- /matrix_mult/readline&#45;&gt;/matrix_mult/select_1 -->
<g id="edge2" class="edge">
<title>/matrix_mult/readline:e&#45;&gt;/matrix_mult/select_1:n</title>
<path fill="none" stroke="#000000" d="M153,-467.7401C192.7174,-467.7401 227.7721,-458.6955 233.256,-423.743"/>
<polygon fill="#000000" stroke="#000000" points="236.7486,-423.9722 234,-413.7401 229.7678,-423.4529 236.7486,-423.9722"/>
<text text-anchor="middle" x="191.0078" y="-462.6293" font-family="Times,serif" font-size="14.00" fill="#000000">json</text>
<text text-anchor="middle" x="214.5" y="-417.5401" font-family="Times,serif" font-size="14.00" fill="#000000">value</text>
</g>
<!-- /matrix_mult/multiply -->
<g id="node4" class="node">
<title>/matrix_mult/multiply</title>
<g id="a_node4"><a xlink:href="multiply.dot.svg" xlink:title="multiply">
<ellipse fill="#7fffd4" stroke="#000000" cx="153" cy="-161.7401" rx="72" ry="72"/>
<text text-anchor="middle" x="153" y="-158.0401" font-family="Times,serif" font-size="14.00" fill="#000000">multiply</text>
</a>
</g>
</g>
<!-- /matrix_mult/select_0&#45;&gt;/matrix_mult/multiply -->
<g id="edge3" class="edge">
<title>/matrix_mult/select_0:s&#45;&gt;/matrix_mult/multiply:n</title>
<path fill="none" stroke="#000000" d="M72,-269.7401C72,-234.4997 136.8151,-265.0236 150.487,-243.6553"/>
<polygon fill="#000000" stroke="#000000" points="153.9358,-244.2935 153,-233.7401 147.1504,-242.5737 153.9358,-244.2935"/>
<text text-anchor="middle" x="59.4611" y="-255.5385" font-family="Times,serif" font-size="14.00" fill="#000000">selected_value</text>
<text text-anchor="middle" x="148.5" y="-237.5401" font-family="Times,serif" font-size="14.00" fill="#000000">a</text>
</g>
<!-- /matrix_mult/select_1&#45;&gt;/matrix_mult/multiply -->
<g id="edge4" class="edge">
<title>/matrix_mult/select_1:s&#45;&gt;/matrix_mult/multiply:n</title>
<path fill="none" stroke="#000000" d="M234,-269.7401C234,-234.4997 169.1849,-265.0236 155.513,-243.6553"/>
<polygon fill="#000000" stroke="#000000" points="158.8496,-242.5737 153,-233.7401 152.0642,-244.2935 158.8496,-242.5737"/>
<text text-anchor="middle" x="246.5389" y="-255.5385" font-family="Times,serif" font-size="14.00" fill="#000000">selected_value</text>
<text text-anchor="middle" x="158" y="-237.5401" font-family="Times,serif" font-size="14.00" fill="#000000">b</text>
</g>
<!-- /matrix_mult/print -->
<g id="node5" class="node">
<title>/matrix_mult/print</title>
<g id="a_node5"><a xlink:href="../../flowr/src/lib/flowruntime/stdio/stdout.html" xlink:title="print\n(stdout)">
<ellipse fill="#ff7f50" stroke="#000000" cx="205" cy="-26.8701" rx="51.7379" ry="26.7407"/>
<text text-anchor="middle" x="205" y="-30.6701" font-family="Times,serif" font-size="14.00" fill="#000000">print</text>
<text text-anchor="middle" x="205" y="-15.6701" font-family="Times,serif" font-size="14.00" fill="#000000">(stdout)</text>
</a>
</g>
</g>
<!-- /matrix_mult/multiply&#45;&gt;/matrix_mult/print -->
<g id="edge5" class="edge">
<title>/matrix_mult/multiply:s&#45;&gt;/matrix_mult/print:w</title>
<path fill="none" stroke="#000000" d="M153,-89.7401C153,-66.6004 133.8375,-38.6701 143.1193,-29.7527"/>
<polygon fill="#000000" stroke="#000000" points="144.3804,-33.0307 153,-26.8701 142.4199,-26.3108 144.3804,-33.0307"/>
<text text-anchor="middle" x="116.0683" y="-58.1809" font-family="Times,serif" font-size="14.00" fill="#000000">product</text>
</g>
</g>
</svg>
