<?xml version="1.0" encoding="UTF-8" standalone="no"?>
<!DOCTYPE svg PUBLIC "-//W3C//DTD SVG 1.1//EN"
 "http://www.w3.org/Graphics/SVG/1.1/DTD/svg11.dtd">
<!-- Generated by graphviz version 2.42.3 (20191010.1750)
 -->
<!-- Title: matrix_mult Pages: 1 -->
<svg width="638pt" height="610pt"
 viewBox="0.00 0.00 638.10 610.00" xmlns="http://www.w3.org/2000/svg" xmlns:xlink="http://www.w3.org/1999/xlink">
<g id="graph0" class="graph" transform="scale(1 1) rotate(0) translate(4 606)">
<title>matrix_mult</title>
<polygon fill="white" stroke="transparent" points="-4,4 -4,-606 634.1,-606 634.1,4 -4,4"/>
<text text-anchor="middle" x="315.05" y="-586.8" font-family="Times,serif" font-size="14.00">/matrix_mult</text>
<g id="clust1" class="cluster">
<title>cluster_multiply</title>
<polygon fill="none" stroke="black" points="34.1,-8 34.1,-572 622.1,-572 622.1,-8 34.1,-8"/>
<text text-anchor="middle" x="328.1" y="-556.8" font-family="Times,serif" font-size="14.00">/matrix_mult/multiply</text>
</g>
<!-- r0 -->
<g id="node1" class="node">
<title>r0</title>
<g id="a_node1"><a xlink:href="b_info" xlink:title="b_info (#0)">
<ellipse fill="coral" stroke="black" cx="478.1" cy="-438" rx="50.28" ry="18"/>
<text text-anchor="middle" x="478.1" y="-433.8" font-family="Times,serif" font-size="14.00">b_info (#0)</text>
</a>
</g>
</g>
<!-- r4 -->
<g id="node3" class="node">
<title>r4</title>
<g id="a_node3"><a xlink:href="duplicate" xlink:title="duplicate (#4)">
<ellipse fill="coral" stroke="black" cx="356.1" cy="-352" rx="59.43" ry="18"/>
<text text-anchor="middle" x="356.1" y="-347.8" font-family="Times,serif" font-size="14.00">duplicate (#4)</text>
</a>
</g>
</g>
<!-- r0&#45;&gt;r4 -->
<g id="edge2" class="edge">
<title>r0:se&#45;&gt;r4:ne</title>
<path fill="none" stroke="black" d="M495.1,-420C501.37,-413.74 430.32,-391.31 422.1,-388 404.28,-380.83 393.62,-384.44 381.17,-376.58"/>
<polygon fill="black" stroke="black" points="383.07,-373.61 373.1,-370 378.64,-379.03 383.07,-373.61"/>
<text text-anchor="middle" x="356.78" y="-372.8" font-family="Times,serif" font-size="14.00">factor</text>
<text text-anchor="middle" x="469.44" y="-408.8" font-family="Times,serif" font-size="14.00">/columns</text>
</g>
<!-- r2 -->
<g id="node4" class="node">
<title>r2</title>
<g id="a_node4"><a xlink:href="duplicate_rows" xlink:title="duplicate_rows (#2)">
<ellipse fill="coral" stroke="black" cx="143.1" cy="-352" rx="81.16" ry="18"/>
<text text-anchor="middle" x="143.1" y="-347.8" font-family="Times,serif" font-size="14.00">duplicate_rows (#2)</text>
</a>
</g>
</g>
<!-- r0&#45;&gt;r2 -->
<g id="edge3" class="edge">
<title>r0:se&#45;&gt;r2:ne</title>
<path fill="none" stroke="black" d="M495.1,-420C507.26,-407.85 228.02,-387.14 170.84,-373.55"/>
<polygon fill="black" stroke="black" points="171.7,-370.13 161.1,-370 169.3,-376.71 171.7,-370.13"/>
<text text-anchor="middle" x="144.78" y="-372.8" font-family="Times,serif" font-size="14.00">factor</text>
<text text-anchor="middle" x="520.77" y="-408.8" font-family="Times,serif" font-size="14.00">/columns</text>
</g>
<!-- r6 -->
<g id="node5" class="node">
<title>r6</title>
<g id="a_node5"><a xlink:href="compose_rows" xlink:title="compose_rows (#6)">
<ellipse fill="coral" stroke="black" cx="152.1" cy="-193" rx="80.21" ry="18"/>
<text text-anchor="middle" x="152.1" y="-188.8" font-family="Times,serif" font-size="14.00">compose_rows (#6)</text>
</a>
</g>
</g>
<!-- r0&#45;&gt;r6 -->
<g id="edge4" class="edge">
<title>r0:se&#45;&gt;r6:nw</title>
<path fill="none" stroke="black" d="M495.1,-420C556.04,-359.06 459.2,-303.28 384.1,-261 362.89,-249.06 178.71,-235.51 140.04,-219.22"/>
<polygon fill="black" stroke="black" points="142.8,-217.05 134.1,-211 137.12,-221.15 142.8,-217.05"/>
<text text-anchor="middle" x="102.61" y="-213.8" font-family="Times,serif" font-size="14.00">chunk_size</text>
<text text-anchor="middle" x="520.77" y="-422.8" font-family="Times,serif" font-size="14.00">/columns</text>
</g>
<!-- initializerr0_0 -->
<!-- initializerr0_0&#45;&gt;r0 -->
<g id="edge1" class="edge">
<title>initializerr0_0&#45;&gt;r0:w</title>
<path fill="none" stroke="blue" stroke-dasharray="1,5" d="M421.17,-505.8C413.5,-484.84 403.88,-450.98 417.19,-440.91"/>
<polygon fill="blue" stroke="blue" points="418.5,-444.18 427.1,-438 416.52,-437.46 418.5,-444.18"/>
<text text-anchor="middle" x="447.34" y="-476.8" font-family="Times,serif" font-size="14.00">[[5,6],[7,8]]</text>
</g>
<!-- r5 -->
<g id="node10" class="node">
<title>r5</title>
<g id="a_node10"><a xlink:href="multiply" xlink:title="multiply (#5)">
<ellipse fill="coral" stroke="black" cx="291.1" cy="-279" rx="57.05" ry="18"/>
<text text-anchor="middle" x="291.1" y="-274.8" font-family="Times,serif" font-size="14.00">multiply (#5)</text>
</a>
</g>
</g>
<!-- r4&#45;&gt;r5 -->
<g id="edge11" class="edge">
<title>r4:e&#45;&gt;r5:ne</title>
<path fill="none" stroke="black" d="M417.1,-352C425.12,-352 420.93,-340.39 416.1,-334 388.03,-296.82 350.73,-327.26 317.11,-303.76"/>
<polygon fill="black" stroke="black" points="319,-300.77 309.1,-297 314.49,-306.12 319,-300.77"/>
<text text-anchor="middle" x="305.6" y="-299.8" font-family="Times,serif" font-size="14.00">b</text>
</g>
<!-- r2&#45;&gt;r5 -->
<g id="edge8" class="edge">
<title>r2:e&#45;&gt;r5:n</title>
<path fill="none" stroke="black" d="M225.1,-352C232.86,-352 271.58,-321.99 285.83,-305.62"/>
<polygon fill="black" stroke="black" points="288.87,-307.36 291.1,-297 282.9,-303.7 288.87,-307.36"/>
<text text-anchor="middle" x="288" y="-299.8" font-family="Times,serif" font-size="14.00">a</text>
</g>
<!-- r6&#45;&gt;r6 -->
<g id="edge14" class="edge">
<title>r6:e&#45;&gt;r6:ne</title>
<path fill="none" stroke="black" d="M232.1,-193C256.21,-182.5 304.21,-182.5 304.21,-202 304.21,-220.28 230.9,-221.42 179.96,-212.84"/>
<polygon fill="black" stroke="black" points="180.58,-209.4 170.1,-211 179.29,-216.28 180.58,-209.4"/>
<text text-anchor="middle" x="152.22" y="-213.8" font-family="Times,serif" font-size="14.00">partial</text>
<text text-anchor="middle" x="251.93" y="-195.8" font-family="Times,serif" font-size="14.00">/partial</text>
</g>
<!-- r6&#45;&gt;r6 -->
<g id="edge15" class="edge">
<title>r6:s&#45;&gt;r6:nw</title>
<path fill="none" stroke="black" d="M152.1,-175C101.4,-164.5 0,-164.5 0,-193 0,-219.72 73.3,-221.39 124.24,-212.84"/>
<polygon fill="black" stroke="black" points="124.92,-216.28 134.1,-211 123.63,-209.4 124.92,-216.28"/>
<text text-anchor="middle" x="165.59" y="-213.8" font-family="Times,serif" font-size="14.00">chunk_size</text>
<text text-anchor="middle" x="118.67" y="-163.8" font-family="Times,serif" font-size="14.00">/chunk_size</text>
</g>
<!-- r7 -->
<g id="node8" class="node">
<title>r7</title>
<g id="a_node8"><a xlink:href="compose_matrix" xlink:title="compose_matrix (#7)">
<ellipse fill="coral" stroke="black" cx="440.1" cy="-107" rx="85.99" ry="18"/>
<text text-anchor="middle" x="440.1" y="-102.8" font-family="Times,serif" font-size="14.00">compose_matrix (#7)</text>
</a>
</g>
</g>
<!-- r6&#45;&gt;r7 -->
<g id="edge16" class="edge">
<title>r6:s&#45;&gt;r7:n</title>
<path fill="none" stroke="black" d="M152.1,-175C152.1,-145.44 390.68,-155.17 433.55,-132.67"/>
<polygon fill="black" stroke="black" points="436.27,-134.88 440.1,-125 430.95,-130.33 436.27,-134.88"/>
<text text-anchor="middle" x="422.22" y="-127.8" font-family="Times,serif" font-size="14.00">values</text>
<text text-anchor="middle" x="171.15" y="-163.8" font-family="Times,serif" font-size="14.00">/chunk</text>
</g>
<!-- r1 -->
<g id="node6" class="node">
<title>r1</title>
<g id="a_node6"><a xlink:href="a_info" xlink:title="a_info (#1)">
<ellipse fill="coral" stroke="black" cx="372.1" cy="-193" rx="49.79" ry="18"/>
<text text-anchor="middle" x="372.1" y="-188.8" font-family="Times,serif" font-size="14.00">a_info (#1)</text>
</a>
</g>
</g>
<!-- r1&#45;&gt;r7 -->
<g id="edge6" class="edge">
<title>r1:e&#45;&gt;r7:nw</title>
<path fill="none" stroke="black" d="M423.1,-193C449.55,-193 412.59,-157.3 417.25,-134.06"/>
<polygon fill="black" stroke="black" points="420.47,-135.47 422.1,-125 414.3,-132.16 420.47,-135.47"/>
<text text-anchor="middle" x="390.61" y="-127.8" font-family="Times,serif" font-size="14.00">chunk_size</text>
<text text-anchor="middle" x="438.66" y="-195.8" font-family="Times,serif" font-size="14.00">/rows</text>
</g>
<!-- initializerr1_0 -->
<!-- initializerr1_0&#45;&gt;r1 -->
<g id="edge5" class="edge">
<title>initializerr1_0&#45;&gt;r1:w</title>
<path fill="none" stroke="blue" stroke-dasharray="1,5" d="M509.84,-266.71C425.08,-244.67 253.18,-197.68 310.89,-193.33"/>
<polygon fill="blue" stroke="blue" points="311.22,-196.82 321.1,-193 311,-189.82 311.22,-196.82"/>
<text text-anchor="middle" x="446.34" y="-231.8" font-family="Times,serif" font-size="14.00">[[1,2],[3,4]]</text>
</g>
<!-- r7&#45;&gt;r7 -->
<g id="edge18" class="edge">
<title>r7:e&#45;&gt;r7:ne</title>
<path fill="none" stroke="black" d="M526.1,-107C550.1,-98 598.1,-98 598.1,-116 598.1,-132.91 521.02,-133.93 468.02,-126.53"/>
<polygon fill="black" stroke="black" points="468.52,-123.07 458.1,-125 467.45,-129.99 468.52,-123.07"/>
<text text-anchor="middle" x="475.98" y="-127.8" font-family="Times,serif" font-size="14.00">partial</text>
<text text-anchor="middle" x="545.93" y="-109.8" font-family="Times,serif" font-size="14.00">/partial</text>
</g>
<!-- r7&#45;&gt;r7 -->
<g id="edge19" class="edge">
<title>r7:s&#45;&gt;r7:nw</title>
<path fill="none" stroke="black" d="M440.1,-89C387.44,-80 282.11,-80 282.11,-107 282.11,-132.37 359.18,-133.9 412.18,-126.53"/>
<polygon fill="black" stroke="black" points="412.75,-129.99 422.1,-125 411.69,-123.07 412.75,-129.99"/>
<text text-anchor="middle" x="453.59" y="-127.8" font-family="Times,serif" font-size="14.00">chunk_size</text>
<text text-anchor="middle" x="406.67" y="-77.8" font-family="Times,serif" font-size="14.00">/chunk_size</text>
</g>
<!-- r8 -->
<g id="node15" class="node">
<title>r8</title>
<g id="a_node15"><a xlink:href="print" xlink:title="print (#8)">
<ellipse fill="coral" stroke="black" cx="440.1" cy="-34" rx="43.51" ry="18"/>
<text text-anchor="middle" x="440.1" y="-29.8" font-family="Times,serif" font-size="14.00">print (#8)</text>
</a>
</g>
</g>
<!-- r7&#45;&gt;r8 -->
<g id="edge20" class="edge">
<title>r7:s&#45;&gt;r8:n</title>
<path fill="none" stroke="black" d="M440.1,-89C440.1,-76.54 440.1,-71.16 440.1,-62.13"/>
<polygon fill="black" stroke="black" points="443.6,-62 440.1,-52 436.6,-62 443.6,-62"/>
<text text-anchor="middle" x="459.15" y="-77.8" font-family="Times,serif" font-size="14.00">/chunk</text>
</g>
<!-- initializerr2_0 -->
<!-- initializerr2_0&#45;&gt;r2 -->
<g id="edge7" class="edge">
<title>initializerr2_0&#45;&gt;r2:w</title>
<path fill="none" stroke="blue" stroke-dasharray="1,5" d="M86.69,-420.21C68.35,-399.31 41.4,-365.12 51.43,-354.94"/>
<polygon fill="blue" stroke="blue" points="52.56,-358.26 61.1,-352 50.52,-351.56 52.56,-358.26"/>
<text text-anchor="middle" x="103.34" y="-390.8" font-family="Times,serif" font-size="14.00">[[1,2],[3,4]]</text>
</g>
<!-- r5&#45;&gt;r6 -->
<g id="edge12" class="edge">
<title>r5:e&#45;&gt;r6:n</title>
<path fill="none" stroke="black" d="M349.1,-279C357.12,-279 353.19,-267.19 348.1,-261 335.5,-245.68 192.4,-235.96 159.03,-218.43"/>
<polygon fill="black" stroke="black" points="161.48,-215.93 152.1,-211 156.36,-220.7 161.48,-215.93"/>
<text text-anchor="middle" x="169.99" y="-199.8" font-family="Times,serif" font-size="14.00">values</text>
</g>
<!-- r3 -->
<g id="node11" class="node">
<title>r3</title>
<g id="a_node11"><a xlink:href="transpose" xlink:title="transpose (#3)">
<ellipse fill="coral" stroke="black" cx="295.1" cy="-438" rx="60.4" ry="18"/>
<text text-anchor="middle" x="295.1" y="-433.8" font-family="Times,serif" font-size="14.00">transpose (#3)</text>
</a>
</g>
</g>
<!-- r3&#45;&gt;r4 -->
<g id="edge10" class="edge">
<title>r3:e&#45;&gt;r4:n</title>
<path fill="none" stroke="black" d="M357.1,-438C384.02,-438 362.2,-408.04 357.1,-380.13"/>
<polygon fill="black" stroke="black" points="360.57,-379.61 356.1,-370 353.6,-380.3 360.57,-379.61"/>
<text text-anchor="middle" x="340.94" y="-372.8" font-family="Times,serif" font-size="14.00">value</text>
</g>
<!-- initializerr3_0 -->
<!-- initializerr3_0&#45;&gt;r3 -->
<g id="edge9" class="edge">
<title>initializerr3_0&#45;&gt;r3:w</title>
<path fill="none" stroke="blue" stroke-dasharray="1,5" d="M227.17,-505.8C219.5,-484.84 209.88,-450.98 223.19,-440.91"/>
<polygon fill="blue" stroke="blue" points="224.5,-444.18 233.1,-438 222.52,-437.46 224.5,-444.18"/>
<text text-anchor="middle" x="253.34" y="-476.8" font-family="Times,serif" font-size="14.00">[[5,6],[7,8]]</text>
</g>
<!-- initializerr6_1 -->
<!-- initializerr6_1&#45;&gt;r6 -->
<g id="edge13" class="edge">
<title>initializerr6_1&#45;&gt;r6:n</title>
<path fill="none" stroke="blue" stroke-dasharray="1,5" d="M123.31,-261.98C134.59,-251.82 146.93,-237.56 150.84,-221.34"/>
<polygon fill="blue" stroke="blue" points="154.37,-221.35 152.1,-211 147.42,-220.5 154.37,-221.35"/>
<text text-anchor="middle" x="151.77" y="-231.8" font-family="Times,serif" font-size="14.00">[]</text>
</g>
<!-- initializerr7_1 -->
<!-- initializerr7_1&#45;&gt;r7 -->
<g id="edge17" class="edge">
<title>initializerr7_1&#45;&gt;r7:n</title>
<path fill="none" stroke="blue" stroke-dasharray="1,5" d="M504.43,-182.8C477.07,-174.89 447.42,-160.53 441.26,-134.94"/>
<polygon fill="blue" stroke="blue" points="444.74,-134.53 440.1,-125 437.78,-135.34 444.74,-134.53"/>
<text text-anchor="middle" x="458.77" y="-145.8" font-family="Times,serif" font-size="14.00">[]</text>
</g>
</g>
</svg>
