<?xml version="1.0" encoding="UTF-8" standalone="no"?>
<!DOCTYPE svg PUBLIC "-//W3C//DTD SVG 1.1//EN"
 "http://www.w3.org/Graphics/SVG/1.1/DTD/svg11.dtd">
<!-- Generated by graphviz version 2.44.0 (20200408.0750)
 -->
<!-- Title: matrix_mult Pages: 1 -->
<svg width="1214pt" height="786pt"
 viewBox="0.00 0.00 1214.00 786.00" xmlns="http://www.w3.org/2000/svg" xmlns:xlink="http://www.w3.org/1999/xlink">
<g id="graph0" class="graph" transform="scale(1 1) rotate(0) translate(4 782)">
<title>matrix_mult</title>
<polygon fill="white" stroke="transparent" points="-4,4 -4,-782 1210,-782 1210,4 -4,4"/>
<text text-anchor="middle" x="603" y="-762.8" font-family="Times,serif" font-size="14.00">/matrix_mult</text>
<g id="clust1" class="cluster">
<title>cluster_select_0</title>
<polygon fill="none" stroke="black" points="8,-328 8,-584 530,-584 530,-328 8,-328"/>
<text text-anchor="middle" x="269" y="-568.8" font-family="Times,serif" font-size="14.00">/matrix_mult/select_0</text>
</g>
<g id="clust2" class="cluster">
<title>cluster_select_1</title>
<polygon fill="none" stroke="black" points="676,-422 676,-692 1198,-692 1198,-422 676,-422"/>
<text text-anchor="middle" x="937" y="-676.8" font-family="Times,serif" font-size="14.00">/matrix_mult/select_1</text>
</g>
<g id="clust3" class="cluster">
<title>cluster_multiply</title>
<polygon fill="none" stroke="black" points="538,-8 538,-403 944,-403 944,-8 538,-8"/>
<text text-anchor="middle" x="741" y="-387.8" font-family="Times,serif" font-size="14.00">/matrix_mult/multiply</text>
</g>
<!-- r0 -->
<g id="node1" class="node">
<title>r0</title>
<g id="a_node1"><a xlink:href="file:///Users/andrew/workspace/flow/flowruntime/stdio/readline.html" xlink:title="Readline (#0)">
<ellipse fill="coral" stroke="black" cx="499" cy="-737" rx="59.29" ry="18"/>
<text text-anchor="middle" x="499" y="-733.3" font-family="Times,serif" font-size="14.00">Readline (#0)</text>
</a>
</g>
</g>
<!-- r1 -->
<g id="node2" class="node">
<title>r1</title>
<g id="a_node2"><a xlink:href="file:///Users/andrew/workspace/flow/flowstdlib/fmt/to_json/to_json.html" xlink:title="to_json (#1)">
<ellipse fill="coral" stroke="black" cx="558" cy="-643" rx="53.89" ry="18"/>
<text text-anchor="middle" x="558" y="-639.3" font-family="Times,serif" font-size="14.00">to_json (#1)</text>
</a>
</g>
</g>
<!-- r0&#45;&gt;r1 -->
<g id="edge1" class="edge">
<title>r0:e&#45;&gt;r1:n</title>
<path fill="none" stroke="black" d="M559,-737C588.95,-737 564.28,-703.37 558.96,-672.36"/>
<polygon fill="black" stroke="black" points="562.4,-671.64 558,-662 555.43,-672.28 562.4,-671.64"/>
</g>
<!-- r2 -->
<g id="node3" class="node">
<title>r2</title>
<g id="a_node3"><a xlink:href="file:///Users/andrew/workspace/flow/flowstdlib/control/index/index.html" xlink:title="Index (#2)">
<ellipse fill="coral" stroke="black" cx="339" cy="-448" rx="48.19" ry="18"/>
<text text-anchor="middle" x="339" y="-444.3" font-family="Times,serif" font-size="14.00">Index (#2)</text>
</a>
</g>
</g>
<!-- r1&#45;&gt;r2 -->
<g id="edge2" class="edge">
<title>r1:e&#45;&gt;r2:n</title>
<path fill="none" stroke="black" d="M613,-643C631.89,-643 672.84,-609.12 558,-517 510.83,-479.16 484.95,-497.46 426,-484 410.21,-480.39 361.78,-483.88 344.89,-474.35"/>
<polygon fill="black" stroke="black" points="347.62,-472.15 339,-466 341.9,-476.19 347.62,-472.15"/>
<text text-anchor="middle" x="324" y="-469.8" font-family="Times,serif" font-size="14.00">value</text>
</g>
<!-- r3 -->
<g id="node4" class="node">
<title>r3</title>
<g id="a_node4"><a xlink:href="file:///Users/andrew/workspace/flow/flowstdlib/control/index/index.html" xlink:title="Index (#3)">
<ellipse fill="coral" stroke="black" cx="863" cy="-535" rx="48.19" ry="18"/>
<text text-anchor="middle" x="863" y="-531.3" font-family="Times,serif" font-size="14.00">Index (#3)</text>
</a>
</g>
</g>
<!-- r1&#45;&gt;r3 -->
<g id="edge3" class="edge">
<title>r1:e&#45;&gt;r3:n</title>
<path fill="none" stroke="black" d="M613,-643C634.54,-643 637.82,-632.53 658,-625 678.12,-617.5 825.01,-586.16 856.9,-562.37"/>
<polygon fill="black" stroke="black" points="859.94,-564.14 863,-554 854.28,-560.02 859.94,-564.14"/>
<text text-anchor="middle" x="848" y="-557.8" font-family="Times,serif" font-size="14.00">value</text>
</g>
<!-- r2&#45;&gt;r2 -->
<g id="edge7" class="edge">
<title>r2:sw&#45;&gt;r2:ne</title>
<path fill="none" stroke="black" d="M322,-431C218.9,-443 218.9,-484 339,-484 454.99,-484 458.96,-472.81 366.21,-465.73"/>
<polygon fill="black" stroke="black" points="366.23,-462.23 356,-465 365.72,-469.21 366.23,-462.23"/>
<text text-anchor="middle" x="397.5" y="-468.8" font-family="Times,serif" font-size="14.00">previous_value</text>
<text text-anchor="middle" x="305" y="-419.8" font-family="Times,serif" font-size="14.00">/value</text>
</g>
<!-- r2&#45;&gt;r2 -->
<g id="edge8" class="edge">
<title>r2:s&#45;&gt;r2:nw</title>
<path fill="none" stroke="black" d="M339,-430C298.97,-421 218.9,-421 218.9,-447.5 218.9,-471.88 272.27,-473.83 311.98,-466.98"/>
<polygon fill="black" stroke="black" points="312.87,-470.37 322,-465 311.51,-463.51 312.87,-470.37"/>
<text text-anchor="middle" x="280" y="-468.8" font-family="Times,serif" font-size="14.00">previous_index</text>
<text text-anchor="middle" x="356" y="-418.8" font-family="Times,serif" font-size="14.00">/index</text>
</g>
<!-- r5 -->
<g id="node8" class="node">
<title>r5</title>
<g id="a_node8"><a xlink:href="file:///Users/andrew/workspace/flow/flowstdlib/data/info/info.html" xlink:title="a_info (#5)">
<ellipse fill="coral" stroke="black" cx="238" cy="-354" rx="50.09" ry="18"/>
<text text-anchor="middle" x="238" y="-350.3" font-family="Times,serif" font-size="14.00">a_info (#5)</text>
</a>
</g>
</g>
<!-- r2&#45;&gt;r5 -->
<g id="edge9" class="edge">
<title>r2:e&#45;&gt;r5:n</title>
<path fill="none" stroke="black" d="M389,-448C397.01,-448 392.73,-436.47 388,-430 348.11,-375.47 249.2,-437.1 238.87,-383.13"/>
<polygon fill="black" stroke="black" points="242.35,-382.66 238,-373 235.37,-383.26 242.35,-382.66"/>
<text text-anchor="middle" x="431" y="-451.8" font-family="Times,serif" font-size="14.00">/selected_value</text>
</g>
<!-- r6 -->
<g id="node9" class="node">
<title>r6</title>
<g id="a_node9"><a xlink:href="file:///Users/andrew/workspace/flow/flowstdlib/data/duplicate_rows/duplicate_rows.html" xlink:title="duplicate_rows (#6)">
<ellipse fill="coral" stroke="black" cx="441" cy="-354" rx="81.49" ry="18"/>
<text text-anchor="middle" x="441" y="-350.3" font-family="Times,serif" font-size="14.00">duplicate_rows (#6)</text>
</a>
</g>
</g>
<!-- r2&#45;&gt;r6 -->
<g id="edge10" class="edge">
<title>r2:e&#45;&gt;r6:n</title>
<path fill="none" stroke="black" d="M389,-448C406.51,-448 432.54,-407.22 439.33,-383.02"/>
<polygon fill="black" stroke="black" points="442.81,-383.44 441,-373 435.91,-382.29 442.81,-383.44"/>
<text text-anchor="middle" x="431" y="-436.8" font-family="Times,serif" font-size="14.00">/selected_value</text>
</g>
<!-- r3&#45;&gt;r3 -->
<g id="edge14" class="edge">
<title>r3:sw&#45;&gt;r3:ne</title>
<path fill="none" stroke="black" d="M846,-518C742.9,-531 742.9,-574 863,-574 978.99,-574 982.96,-560.94 890.21,-552.84"/>
<polygon fill="black" stroke="black" points="890.25,-549.33 880,-552 889.68,-556.31 890.25,-549.33"/>
<text text-anchor="middle" x="921.5" y="-555.8" font-family="Times,serif" font-size="14.00">previous_value</text>
<text text-anchor="middle" x="829" y="-506.8" font-family="Times,serif" font-size="14.00">/value</text>
</g>
<!-- r3&#45;&gt;r3 -->
<g id="edge15" class="edge">
<title>r3:s&#45;&gt;r3:nw</title>
<path fill="none" stroke="black" d="M863,-517C822.97,-506.5 742.9,-506.5 742.9,-534.5 742.9,-560.31 796.5,-562.33 836.24,-554.26"/>
<polygon fill="black" stroke="black" points="837.05,-557.67 846,-552 835.47,-550.85 837.05,-557.67"/>
<text text-anchor="middle" x="804" y="-555.8" font-family="Times,serif" font-size="14.00">previous_index</text>
<text text-anchor="middle" x="880" y="-505.8" font-family="Times,serif" font-size="14.00">/index</text>
</g>
<!-- r4 -->
<g id="node13" class="node">
<title>r4</title>
<g id="a_node13"><a xlink:href="file:///Users/andrew/workspace/flow/flowstdlib/data/info/info.html" xlink:title="b_info (#4)">
<ellipse fill="coral" stroke="black" cx="929" cy="-448" rx="50.89" ry="18"/>
<text text-anchor="middle" x="929" y="-444.3" font-family="Times,serif" font-size="14.00">b_info (#4)</text>
</a>
</g>
</g>
<!-- r3&#45;&gt;r4 -->
<g id="edge16" class="edge">
<title>r3:e&#45;&gt;r4:n</title>
<path fill="none" stroke="black" d="M913,-535C941.16,-535 931.74,-504.98 929.44,-476.11"/>
<polygon fill="black" stroke="black" points="932.93,-475.84 929,-466 925.94,-476.14 932.93,-475.84"/>
<text text-anchor="middle" x="955" y="-538.8" font-family="Times,serif" font-size="14.00">/selected_value</text>
</g>
<!-- r7 -->
<g id="node14" class="node">
<title>r7</title>
<g id="a_node14"><a xlink:href="file:///Users/andrew/workspace/flow/flowstdlib/data/transpose/transpose.html" xlink:title="transpose (#7)">
<ellipse fill="coral" stroke="black" cx="745" cy="-448" rx="61.19" ry="18"/>
<text text-anchor="middle" x="745" y="-444.3" font-family="Times,serif" font-size="14.00">transpose (#7)</text>
</a>
</g>
</g>
<!-- r3&#45;&gt;r7 -->
<g id="edge17" class="edge">
<title>r3:e&#45;&gt;r7:n</title>
<path fill="none" stroke="black" d="M913,-535C921.01,-535 916.94,-523.31 912,-517 866.45,-458.91 756.46,-535.4 745.83,-476.22"/>
<polygon fill="black" stroke="black" points="749.3,-475.68 745,-466 742.32,-476.25 749.3,-475.68"/>
<text text-anchor="middle" x="955" y="-523.8" font-family="Times,serif" font-size="14.00">/selected_value</text>
</g>
<!-- initializerr2_1 -->
<!-- initializerr2_1&#45;&gt;r2 -->
<g id="edge4" class="edge">
<title>initializerr2_1&#45;&gt;r2:nw</title>
<path fill="none" stroke="blue" stroke-dasharray="1,5" d="M280.37,-517.13C288.95,-504.9 301.52,-488.01 314.93,-473.4"/>
<polygon fill="blue" stroke="blue" points="317.62,-475.65 322,-466 312.56,-470.81 317.62,-475.65"/>
<text text-anchor="middle" x="311" y="-487.8" font-family="Times,serif" font-size="14.00">42</text>
</g>
<!-- initializerr2_2 -->
<!-- initializerr2_2&#45;&gt;r2 -->
<g id="edge5" class="edge">
<title>initializerr2_2&#45;&gt;r2:ne</title>
<path fill="none" stroke="blue" stroke-dasharray="1,5" d="M431.67,-519.13C411.41,-508.27 384.66,-492.14 363.31,-472.92"/>
<polygon fill="blue" stroke="blue" points="365.67,-470.34 356,-466 360.85,-475.42 365.67,-470.34"/>
<text text-anchor="middle" x="402" y="-487.8" font-family="Times,serif" font-size="14.00">&#45;1</text>
</g>
<!-- initializerr2_3 -->
<!-- initializerr2_3&#45;&gt;r2 -->
<g id="edge6" class="edge">
<title>initializerr2_3&#45;&gt;r2:n</title>
<path fill="none" stroke="blue" d="M120.07,-522.56C159.18,-512.41 217.89,-497.19 269,-484 281.27,-480.83 317.76,-481.46 332.61,-473.97"/>
<polygon fill="blue" stroke="blue" points="335.47,-475.99 339,-466 330.01,-471.61 335.47,-475.99"/>
<text text-anchor="middle" x="272.5" y="-487.8" font-family="Times,serif" font-size="14.00">0</text>
</g>
<!-- r11 -->
<g id="node17" class="node">
<title>r11</title>
<g id="a_node17"><a xlink:href="file:///Users/andrew/workspace/flow/flowstdlib/data/accumulate/accumulate.html" xlink:title="compose_matrix (#11)">
<ellipse fill="coral" stroke="black" cx="638" cy="-107" rx="91.78" ry="18"/>
<text text-anchor="middle" x="638" y="-103.3" font-family="Times,serif" font-size="14.00">compose_matrix (#11)</text>
</a>
</g>
</g>
<!-- r5&#45;&gt;r11 -->
<g id="edge21" class="edge">
<title>r5:e&#45;&gt;r11:nw</title>
<path fill="none" stroke="black" d="M289,-354C292.94,-354 506.65,-178.08 510,-176 552.73,-149.44 578.34,-161.23 612.56,-131.91"/>
<polygon fill="black" stroke="black" points="615.05,-134.37 620,-125 610.29,-129.24 615.05,-134.37"/>
<text text-anchor="middle" x="589.5" y="-128.8" font-family="Times,serif" font-size="14.00">chunk_size</text>
<text text-anchor="middle" x="304.5" y="-357.8" font-family="Times,serif" font-size="14.00">/rows</text>
</g>
<!-- r9 -->
<g id="node18" class="node">
<title>r9</title>
<g id="a_node18"><a xlink:href="file:///Users/andrew/workspace/flow/flowstdlib/data/multiply_row/multiply_row.html" xlink:title="multiply (#9)">
<ellipse fill="coral" stroke="black" cx="806" cy="-281" rx="57.69" ry="18"/>
<text text-anchor="middle" x="806" y="-277.3" font-family="Times,serif" font-size="14.00">multiply (#9)</text>
</a>
</g>
</g>
<!-- r6&#45;&gt;r9 -->
<g id="edge22" class="edge">
<title>r6:e&#45;&gt;r9:n</title>
<path fill="none" stroke="black" d="M524,-354C526.9,-354 523.98,-330.08 526,-328 567,-285.9 778.09,-352.52 803.5,-308.87"/>
<polygon fill="black" stroke="black" points="806.93,-309.55 806,-299 800.15,-307.83 806.93,-309.55"/>
<text text-anchor="middle" x="802.5" y="-302.8" font-family="Times,serif" font-size="14.00">a</text>
</g>
<!-- initializerr3_1 -->
<!-- initializerr3_1&#45;&gt;r3 -->
<g id="edge11" class="edge">
<title>initializerr3_1&#45;&gt;r3:nw</title>
<path fill="none" stroke="blue" stroke-dasharray="1,5" d="M913.2,-626.3C887.69,-608.76 850.06,-580.54 844.33,-563.09"/>
<polygon fill="blue" stroke="blue" points="847.82,-563.44 846,-553 840.92,-562.3 847.82,-563.44"/>
<text text-anchor="middle" x="890" y="-595.8" font-family="Times,serif" font-size="14.00">42</text>
</g>
<!-- initializerr3_2 -->
<!-- initializerr3_2&#45;&gt;r3 -->
<g id="edge12" class="edge">
<title>initializerr3_2&#45;&gt;r3:ne</title>
<path fill="none" stroke="blue" stroke-dasharray="1,5" d="M1085,-630.95C1026.04,-615.72 925.71,-587.04 887.85,-559.58"/>
<polygon fill="blue" stroke="blue" points="889.91,-556.74 880,-553 885.42,-562.1 889.91,-556.74"/>
<text text-anchor="middle" x="1005" y="-595.8" font-family="Times,serif" font-size="14.00">&#45;1</text>
</g>
<!-- initializerr3_3 -->
<!-- initializerr3_3&#45;&gt;r3 -->
<g id="edge13" class="edge">
<title>initializerr3_3&#45;&gt;r3:n</title>
<path fill="none" stroke="blue" d="M773.42,-627.26C803.84,-611.15 848.5,-584.82 860.14,-563.62"/>
<polygon fill="blue" stroke="blue" points="863.51,-564.58 863,-554 856.8,-562.59 863.51,-564.58"/>
<text text-anchor="middle" x="834.5" y="-595.8" font-family="Times,serif" font-size="14.00">1</text>
</g>
<!-- r4&#45;&gt;r6 -->
<g id="edge19" class="edge">
<title>r4:se&#45;&gt;r6:ne</title>
<path fill="none" stroke="black" d="M946,-430C978.78,-397.22 888.25,-425.17 842,-422 759.74,-416.36 537.94,-432.34 466.9,-379.76"/>
<polygon fill="black" stroke="black" points="468.87,-376.84 459,-373 464.32,-382.16 468.87,-376.84"/>
<text text-anchor="middle" x="443" y="-376.8" font-family="Times,serif" font-size="14.00">factor</text>
<text text-anchor="middle" x="920.5" y="-418.8" font-family="Times,serif" font-size="14.00">/columns</text>
</g>
<!-- r8 -->
<g id="node15" class="node">
<title>r8</title>
<g id="a_node15"><a xlink:href="file:///Users/andrew/workspace/flow/flowstdlib/data/duplicate/duplicate.html" xlink:title="duplicate (#8)">
<ellipse fill="coral" stroke="black" cx="804" cy="-354" rx="59.59" ry="18"/>
<text text-anchor="middle" x="804" y="-350.3" font-family="Times,serif" font-size="14.00">duplicate (#8)</text>
</a>
</g>
</g>
<!-- r4&#45;&gt;r8 -->
<g id="edge18" class="edge">
<title>r4:se&#45;&gt;r8:ne</title>
<path fill="none" stroke="black" d="M946,-430C955.38,-420.62 861.62,-392.22 830.85,-378.09"/>
<polygon fill="black" stroke="black" points="832.41,-374.95 822,-373 828.92,-381.02 832.41,-374.95"/>
<text text-anchor="middle" x="838" y="-376.8" font-family="Times,serif" font-size="14.00">factor</text>
<text text-anchor="middle" x="971.5" y="-418.8" font-family="Times,serif" font-size="14.00">/columns</text>
</g>
<!-- r10 -->
<g id="node16" class="node">
<title>r10</title>
<g id="a_node16"><a xlink:href="file:///Users/andrew/workspace/flow/flowstdlib/data/accumulate/accumulate.html" xlink:title="compose_rows (#10)">
<ellipse fill="coral" stroke="black" cx="631" cy="-194" rx="85.29" ry="18"/>
<text text-anchor="middle" x="631" y="-190.3" font-family="Times,serif" font-size="14.00">compose_rows (#10)</text>
</a>
</g>
</g>
<!-- r4&#45;&gt;r10 -->
<g id="edge20" class="edge">
<title>r4:se&#45;&gt;r10:nw</title>
<path fill="none" stroke="black" d="M946,-430C1000.44,-375.56 955.91,-315.92 900,-263 849.79,-215.48 816.1,-241.91 748,-230 724.24,-225.84 639.03,-230.47 616.23,-221.69"/>
<polygon fill="black" stroke="black" points="619.48,-220.38 613,-212 612.84,-222.59 619.48,-220.38"/>
<text text-anchor="middle" x="582.5" y="-215.8" font-family="Times,serif" font-size="14.00">chunk_size</text>
<text text-anchor="middle" x="971.5" y="-433.8" font-family="Times,serif" font-size="14.00">/columns</text>
</g>
<!-- r7&#45;&gt;r8 -->
<g id="edge23" class="edge">
<title>r7:e&#45;&gt;r8:n</title>
<path fill="none" stroke="black" d="M807,-448C837.1,-448 810.44,-414.1 804.94,-382.96"/>
<polygon fill="black" stroke="black" points="808.43,-382.63 804,-373 801.46,-383.28 808.43,-382.63"/>
<text text-anchor="middle" x="789" y="-376.8" font-family="Times,serif" font-size="14.00">value</text>
</g>
<!-- r8&#45;&gt;r9 -->
<g id="edge24" class="edge">
<title>r8:e&#45;&gt;r9:ne</title>
<path fill="none" stroke="black" d="M865,-354C873.01,-354 867.46,-343.23 864,-336 855.07,-317.32 844.38,-316.18 830.83,-305.85"/>
<polygon fill="black" stroke="black" points="832.83,-302.95 823,-299 828.22,-308.22 832.83,-302.95"/>
<text text-anchor="middle" x="819.5" y="-302.8" font-family="Times,serif" font-size="14.00">b</text>
</g>
<!-- r10&#45;&gt;r10 -->
<g id="edge27" class="edge">
<title>r10:e&#45;&gt;r10:ne</title>
<path fill="none" stroke="black" d="M717,-194C740.14,-183.5 788.14,-183.5 788.14,-203 788.14,-221.32 711.57,-222.43 658.87,-213.79"/>
<polygon fill="black" stroke="black" points="659.46,-210.34 649,-212 658.21,-217.23 659.46,-210.34"/>
<text text-anchor="middle" x="631.5" y="-215.8" font-family="Times,serif" font-size="14.00">partial</text>
<text text-anchor="middle" x="736.5" y="-197.8" font-family="Times,serif" font-size="14.00">/partial</text>
</g>
<!-- r10&#45;&gt;r10 -->
<g id="edge28" class="edge">
<title>r10:s&#45;&gt;r10:nw</title>
<path fill="none" stroke="black" d="M631,-176C578.62,-165.5 473.86,-165.5 473.86,-194 473.86,-220.77 550.43,-222.4 603.13,-213.79"/>
<polygon fill="black" stroke="black" points="603.78,-217.23 613,-212 602.54,-210.34 603.78,-217.23"/>
<text text-anchor="middle" x="643.5" y="-215.8" font-family="Times,serif" font-size="14.00">chunk_size</text>
<text text-anchor="middle" x="598.5" y="-164.8" font-family="Times,serif" font-size="14.00">/chunk_size</text>
</g>
<!-- r10&#45;&gt;r11 -->
<g id="edge29" class="edge">
<title>r10:s&#45;&gt;r11:n</title>
<path fill="none" stroke="black" d="M631,-176C631,-156.87 635.89,-150.07 637.5,-134.99"/>
<polygon fill="black" stroke="black" points="640.99,-135.16 638,-125 634,-134.81 640.99,-135.16"/>
<text text-anchor="middle" x="655.5" y="-128.8" font-family="Times,serif" font-size="14.00">values</text>
<text text-anchor="middle" x="649.5" y="-164.8" font-family="Times,serif" font-size="14.00">/chunk</text>
</g>
<!-- r11&#45;&gt;r11 -->
<g id="edge31" class="edge">
<title>r11:e&#45;&gt;r11:ne</title>
<path fill="none" stroke="black" d="M730,-107C753.64,-98 801.64,-98 801.64,-116 801.64,-132.95 720.91,-133.94 665.94,-126.49"/>
<polygon fill="black" stroke="black" points="666.41,-123.02 656,-125 665.37,-129.94 666.41,-123.02"/>
<text text-anchor="middle" x="673.5" y="-128.8" font-family="Times,serif" font-size="14.00">partial</text>
<text text-anchor="middle" x="749.5" y="-110.8" font-family="Times,serif" font-size="14.00">/partial</text>
</g>
<!-- r11&#45;&gt;r11 -->
<g id="edge32" class="edge">
<title>r11:s&#45;&gt;r11:nw</title>
<path fill="none" stroke="black" d="M638,-89C583.45,-80 474.36,-80 474.36,-107 474.36,-132.42 555.09,-133.91 610.06,-126.49"/>
<polygon fill="black" stroke="black" points="610.63,-129.94 620,-125 609.59,-123.02 610.63,-129.94"/>
<text text-anchor="middle" x="589.5" y="-128.8" font-family="Times,serif" font-size="14.00">chunk_size</text>
<text text-anchor="middle" x="605.5" y="-77.8" font-family="Times,serif" font-size="14.00">/chunk_size</text>
</g>
<!-- r12 -->
<g id="node21" class="node">
<title>r12</title>
<g id="a_node21"><a xlink:href="file:///Users/andrew/workspace/flow/flowruntime/stdio/stdout.html" xlink:title="print (#12)">
<ellipse fill="coral" stroke="black" cx="638" cy="-34" rx="48.99" ry="18"/>
<text text-anchor="middle" x="638" y="-30.3" font-family="Times,serif" font-size="14.00">print (#12)</text>
</a>
</g>
</g>
<!-- r11&#45;&gt;r12 -->
<g id="edge33" class="edge">
<title>r11:s&#45;&gt;r12:n</title>
<path fill="none" stroke="black" d="M638,-89C638,-76.54 638,-71.16 638,-62.13"/>
<polygon fill="black" stroke="black" points="641.5,-62 638,-52 634.5,-62 641.5,-62"/>
<text text-anchor="middle" x="656.5" y="-77.8" font-family="Times,serif" font-size="14.00">/chunk</text>
</g>
<!-- r9&#45;&gt;r10 -->
<g id="edge25" class="edge">
<title>r9:e&#45;&gt;r10:n</title>
<path fill="none" stroke="black" d="M865,-281C873.01,-281 869.19,-269.1 864,-263 848.63,-244.95 674.31,-239.59 637.72,-219.69"/>
<polygon fill="black" stroke="black" points="640.21,-217.23 631,-212 634.94,-221.83 640.21,-217.23"/>
<text text-anchor="middle" x="613.5" y="-200.8" font-family="Times,serif" font-size="14.00">values</text>
</g>
<!-- initializerr10_1 -->
<!-- initializerr10_1&#45;&gt;r10 -->
<g id="edge26" class="edge">
<title>initializerr10_1&#45;&gt;r10:n</title>
<path fill="none" stroke="blue" stroke-dasharray="1,5" d="M618.9,-263.08C623.45,-252.09 628.59,-237.1 630.36,-222.23"/>
<polygon fill="blue" stroke="blue" points="633.87,-222.2 631,-212 626.88,-221.76 633.87,-222.2"/>
<text text-anchor="middle" x="633" y="-233.8" font-family="Times,serif" font-size="14.00">[]</text>
</g>
<!-- initializerr11_1 -->
<!-- initializerr11_1&#45;&gt;r11 -->
<g id="edge30" class="edge">
<title>initializerr11_1&#45;&gt;r11:n</title>
<path fill="none" stroke="blue" stroke-dasharray="1,5" d="M819,-183.07C759.99,-171.18 668.73,-150.67 644.23,-133.25"/>
<polygon fill="blue" stroke="blue" points="646.82,-130.87 638,-125 641.23,-135.09 646.82,-130.87"/>
<text text-anchor="middle" x="711" y="-146.8" font-family="Times,serif" font-size="14.00">[]</text>
</g>
</g>
</svg>
