<?xml version="1.0" encoding="UTF-8" standalone="no"?>
<!DOCTYPE svg PUBLIC "-//W3C//DTD SVG 1.1//EN"
 "http://www.w3.org/Graphics/SVG/1.1/DTD/svg11.dtd">
<!-- Generated by graphviz version 2.40.1 (20161225.0304)
 -->
<!-- Title: matrix_mult Pages: 1 -->
<svg width="1508pt" height="1001pt"
 viewBox="0.00 0.00 1508.00 1001.00" xmlns="http://www.w3.org/2000/svg" xmlns:xlink="http://www.w3.org/1999/xlink">
<g id="graph0" class="graph" transform="scale(1 1) rotate(0) translate(4 997)">
<title>matrix_mult</title>
<polygon fill="#ffffff" stroke="transparent" points="-4,4 -4,-997 1504,-997 1504,4 -4,4"/>
<text text-anchor="middle" x="750" y="-977.8" font-family="Times,serif" font-size="14.00" fill="#000000">/matrix_mult</text>
<g id="clust1" class="cluster">
<title>cluster_select_0</title>
<polygon fill="none" stroke="#000000" points="840,-480 840,-868 1492,-868 1492,-480 840,-480"/>
<text text-anchor="middle" x="1166" y="-852.8" font-family="Times,serif" font-size="14.00" fill="#000000">/matrix_mult/select_0</text>
</g>
<g id="clust2" class="cluster">
<title>cluster_select_1</title>
<polygon fill="none" stroke="#000000" points="8,-574 8,-962 624,-962 624,-574 8,-574"/>
<text text-anchor="middle" x="316" y="-946.8" font-family="Times,serif" font-size="14.00" fill="#000000">/matrix_mult/select_1</text>
</g>
<g id="clust3" class="cluster">
<title>cluster_multiply</title>
<polygon fill="none" stroke="#000000" points="356,-8 356,-555 832,-555 832,-8 356,-8"/>
<text text-anchor="middle" x="594" y="-539.8" font-family="Times,serif" font-size="14.00" fill="#000000">/matrix_mult/multiply</text>
</g>
<!-- r0 -->
<g id="node1" class="node">
<title>r0</title>
<g id="a_node1"><a xlink:href="file:///home/travis/build/andrewdavidmackenzie/flow/flowr/src/lib/flowruntime/stdio/readline.html" xlink:title="readline (#0)">
<ellipse fill="#ff7f50" stroke="#000000" cx="704" cy="-819" rx="72.2875" ry="18"/>
<text text-anchor="middle" x="704" y="-815.3" font-family="Times,serif" font-size="14.00" fill="#000000">readline (#0)</text>
</a>
</g>
</g>
<!-- r11 -->
<g id="node2" class="node">
<title>r11</title>
<g id="a_node2"><a xlink:href="file:///home/travis/build/andrewdavidmackenzie/flow/flowstdlib/control/index/index.html" xlink:title="index (#11)">
<ellipse fill="#ff7f50" stroke="#000000" cx="1028" cy="-673" rx="65.7887" ry="18"/>
<text text-anchor="middle" x="1028" y="-669.3" font-family="Times,serif" font-size="14.00" fill="#000000">index (#11)</text>
</a>
</g>
</g>
<!-- r0&#45;&gt;r11 -->
<g id="edge1" class="edge">
<title>r0:e&#45;&gt;r11:n</title>
<path fill="none" stroke="#000000" d="M776,-819C782.9925,-819 977.4193,-723.6965 1019.8665,-697.3023"/>
<polygon fill="#000000" stroke="#000000" points="1022.239,-699.8917 1028,-691 1017.9515,-694.3583 1022.239,-699.8917"/>
<text text-anchor="middle" x="1008.5" y="-694.8" font-family="Times,serif" font-size="14.00" fill="#000000">value</text>
<text text-anchor="middle" x="793" y="-822.8" font-family="Times,serif" font-size="14.00" fill="#000000">/json</text>
</g>
<!-- r1 -->
<g id="node3" class="node">
<title>r1</title>
<g id="a_node3"><a xlink:href="file:///home/travis/build/andrewdavidmackenzie/flow/flowstdlib/control/index/index.html" xlink:title="index (#1)">
<ellipse fill="#ff7f50" stroke="#000000" cx="359" cy="-746" rx="59.5901" ry="18"/>
<text text-anchor="middle" x="359" y="-742.3" font-family="Times,serif" font-size="14.00" fill="#000000">index (#1)</text>
</a>
</g>
</g>
<!-- r0&#45;&gt;r1 -->
<g id="edge2" class="edge">
<title>r0:e&#45;&gt;r1:n</title>
<path fill="none" stroke="#000000" d="M776,-819C784,-819 781.4011,-806.9015 776,-801 772.4348,-797.1045 431.3901,-774.5619 368.8065,-766.1004"/>
<polygon fill="#000000" stroke="#000000" points="369.5113,-762.672 359,-764 368.0452,-769.5168 369.5113,-762.672"/>
<text text-anchor="middle" x="339.5" y="-767.8" font-family="Times,serif" font-size="14.00" fill="#000000">value</text>
<text text-anchor="middle" x="793" y="-807.8" font-family="Times,serif" font-size="14.00" fill="#000000">/json</text>
</g>
<!-- r11&#45;&gt;r11 -->
<g id="edge6" class="edge">
<title>r11:sw&#45;&gt;r11:ne</title>
<path fill="none" stroke="#000000" d="M1010,-655C890.3558,-667 890.3558,-709 1028,-709 1161.6116,-709 1165.526,-697.6928 1056.2071,-691.5423"/>
<polygon fill="#000000" stroke="#000000" points="1056.1717,-688.0356 1046,-691 1055.8002,-695.0258 1056.1717,-688.0356"/>
<text text-anchor="middle" x="1100" y="-694.8" font-family="Times,serif" font-size="14.00" fill="#000000">previous_value</text>
<text text-anchor="middle" x="988.5" y="-643.8" font-family="Times,serif" font-size="14.00" fill="#000000">/value</text>
</g>
<!-- r11&#45;&gt;r11 -->
<g id="edge7" class="edge">
<title>r11:s&#45;&gt;r11:nw</title>
<path fill="none" stroke="#000000" d="M1028,-655C982.1186,-646 890.3558,-646 890.3558,-673 890.3558,-698.1016 954.1104,-699.8665 999.9437,-692.7587"/>
<polygon fill="#000000" stroke="#000000" points="1000.7525,-696.1705 1010,-691 999.5465,-689.2751 1000.7525,-696.1705"/>
<text text-anchor="middle" x="955.5" y="-694.8" font-family="Times,serif" font-size="14.00" fill="#000000">previous_index</text>
<text text-anchor="middle" x="1050" y="-643.8" font-family="Times,serif" font-size="14.00" fill="#000000">/index</text>
</g>
<!-- r4 -->
<g id="node7" class="node">
<title>r4</title>
<g id="a_node7"><a xlink:href="file:///home/travis/build/andrewdavidmackenzie/flow/flowstdlib/data/info/info.html" xlink:title="a_info (#4)">
<ellipse fill="#ff7f50" stroke="#000000" cx="1191" cy="-506" rx="61.99" ry="18"/>
<text text-anchor="middle" x="1191" y="-502.3" font-family="Times,serif" font-size="14.00" fill="#000000">a_info (#4)</text>
</a>
</g>
</g>
<!-- r11&#45;&gt;r4 -->
<g id="edge8" class="edge">
<title>r11:e&#45;&gt;r4:n</title>
<path fill="none" stroke="#000000" d="M1094,-673C1169.6233,-673 1189.342,-608.9035 1190.897,-534.1311"/>
<polygon fill="#000000" stroke="#000000" points="1194.398,-534.0351 1191,-524 1187.3984,-533.9639 1194.398,-534.0351"/>
<text text-anchor="middle" x="1149.5" y="-676.8" font-family="Times,serif" font-size="14.00" fill="#000000">/selected_value</text>
</g>
<!-- r3 -->
<g id="node8" class="node">
<title>r3</title>
<g id="a_node8"><a xlink:href="file:///home/travis/build/andrewdavidmackenzie/flow/flowstdlib/data/duplicate_rows/duplicate_rows.html" xlink:title="duplicate_rows (#3)">
<ellipse fill="#ff7f50" stroke="#000000" cx="953" cy="-506" rx="104.7816" ry="18"/>
<text text-anchor="middle" x="953" y="-502.3" font-family="Times,serif" font-size="14.00" fill="#000000">duplicate_rows (#3)</text>
</a>
</g>
</g>
<!-- r11&#45;&gt;r3 -->
<g id="edge9" class="edge">
<title>r11:e&#45;&gt;r3:n</title>
<path fill="none" stroke="#000000" d="M1094,-673C1102,-673 1097.1967,-662.3335 1094,-655 1061.2879,-579.9563 962.0457,-606.9129 953.5774,-534.3884"/>
<polygon fill="#000000" stroke="#000000" points="957.0497,-533.7903 953,-524 950.0605,-534.1789 957.0497,-533.7903"/>
<text text-anchor="middle" x="1149.5" y="-661.8" font-family="Times,serif" font-size="14.00" fill="#000000">/selected_value</text>
</g>
<!-- r1&#45;&gt;r1 -->
<g id="edge13" class="edge">
<title>r1:sw&#45;&gt;r1:ne</title>
<path fill="none" stroke="#000000" d="M341,-728C227.2053,-740 227.2053,-782 359,-782 486.8048,-782 490.6739,-770.7156 387.0215,-764.5609"/>
<polygon fill="#000000" stroke="#000000" points="387.18,-761.0644 377,-764 386.7887,-768.0535 387.18,-761.0644"/>
<text text-anchor="middle" x="431" y="-767.8" font-family="Times,serif" font-size="14.00" fill="#000000">previous_value</text>
<text text-anchor="middle" x="319.5" y="-716.8" font-family="Times,serif" font-size="14.00" fill="#000000">/value</text>
</g>
<!-- r1&#45;&gt;r1 -->
<g id="edge14" class="edge">
<title>r1:s&#45;&gt;r1:nw</title>
<path fill="none" stroke="#000000" d="M359,-728C315.0684,-719 227.2053,-719 227.2053,-746 227.2053,-771.0488 287.3359,-772.859 331.1057,-765.8034"/>
<polygon fill="#000000" stroke="#000000" points="331.7897,-769.2365 341,-764 330.5345,-762.3499 331.7897,-769.2365"/>
<text text-anchor="middle" x="286.5" y="-767.8" font-family="Times,serif" font-size="14.00" fill="#000000">previous_index</text>
<text text-anchor="middle" x="381" y="-716.8" font-family="Times,serif" font-size="14.00" fill="#000000">/index</text>
</g>
<!-- r6 -->
<g id="node12" class="node">
<title>r6</title>
<g id="a_node12"><a xlink:href="file:///home/travis/build/andrewdavidmackenzie/flow/flowstdlib/data/info/info.html" xlink:title="b_info (#6)">
<ellipse fill="#ff7f50" stroke="#000000" cx="470" cy="-600" rx="62.2891" ry="18"/>
<text text-anchor="middle" x="470" y="-596.3" font-family="Times,serif" font-size="14.00" fill="#000000">b_info (#6)</text>
</a>
</g>
</g>
<!-- r1&#45;&gt;r6 -->
<g id="edge15" class="edge">
<title>r1:e&#45;&gt;r6:n</title>
<path fill="none" stroke="#000000" d="M419,-746C476.8893,-746 470.906,-686.3407 470.0785,-628.0846"/>
<polygon fill="#000000" stroke="#000000" points="473.5778,-627.9724 470,-618 466.578,-628.027 473.5778,-627.9724"/>
<text text-anchor="middle" x="474.5" y="-749.8" font-family="Times,serif" font-size="14.00" fill="#000000">/selected_value</text>
</g>
<!-- r8 -->
<g id="node13" class="node">
<title>r8</title>
<g id="a_node13"><a xlink:href="file:///home/travis/build/andrewdavidmackenzie/flow/flowstdlib/data/transpose/transpose.html" xlink:title="transpose (#8)">
<ellipse fill="#ff7f50" stroke="#000000" cx="191" cy="-600" rx="79.8859" ry="18"/>
<text text-anchor="middle" x="191" y="-596.3" font-family="Times,serif" font-size="14.00" fill="#000000">transpose (#8)</text>
</a>
</g>
</g>
<!-- r1&#45;&gt;r8 -->
<g id="edge16" class="edge">
<title>r1:e&#45;&gt;r8:n</title>
<path fill="none" stroke="#000000" d="M419,-746C427,-746 423.2538,-734.7753 419,-728 361.1029,-635.7842 201.7269,-724.4075 191.5147,-628.2357"/>
<polygon fill="#000000" stroke="#000000" points="194.9979,-627.8116 191,-618 188.0067,-628.1632 194.9979,-627.8116"/>
<text text-anchor="middle" x="474.5" y="-734.8" font-family="Times,serif" font-size="14.00" fill="#000000">/selected_value</text>
</g>
<!-- initializerr11_1 -->
<!-- initializerr11_1&#45;&gt;r11 -->
<g id="edge3" class="edge">
<title>initializerr11_1&#45;&gt;r11:nw</title>
<path fill="none" stroke="#0000ff" stroke-dasharray="1,5" d="M1142.6205,-801.6892C1105.5434,-774.0416 1035.3896,-720.8761 1015.2528,-699.6585"/>
<polygon fill="#0000ff" stroke="#0000ff" points="1018.1792,-697.7343 1010,-691 1012.1944,-701.3651 1018.1792,-697.7343"/>
<text text-anchor="middle" x="1100.5" y="-742.3" font-family="Times,serif" font-size="14.00" fill="#000000">42</text>
</g>
<!-- initializerr11_2 -->
<!-- initializerr11_2&#45;&gt;r11 -->
<g id="edge4" class="edge">
<title>initializerr11_2&#45;&gt;r11:ne</title>
<path fill="none" stroke="#0000ff" stroke-dasharray="1,5" d="M1356.8762,-803.9177C1272.9344,-775.7207 1097.4319,-716.0644 1054.9216,-696.0797"/>
<polygon fill="#0000ff" stroke="#0000ff" points="1056.4219,-692.9064 1046,-691 1052.9583,-698.9895 1056.4219,-692.9064"/>
<text text-anchor="middle" x="1245" y="-742.3" font-family="Times,serif" font-size="14.00" fill="#000000">&#45;1</text>
</g>
<!-- initializerr11_3 -->
<!-- initializerr11_3&#45;&gt;r11 -->
<g id="edge5" class="edge">
<title>initializerr11_3&#45;&gt;r11:n</title>
<path fill="none" stroke="#0000ff" d="M955.2374,-801.8653C982.2325,-781.4374 1021.9237,-744.5348 1027.3718,-700.9897"/>
<polygon fill="#0000ff" stroke="#0000ff" points="1030.8654,-701.2 1028,-691 1023.8792,-700.7606 1030.8654,-701.2"/>
<text text-anchor="middle" x="1024" y="-742.3" font-family="Times,serif" font-size="14.00" fill="#000000">0</text>
</g>
<!-- r7 -->
<g id="node16" class="node">
<title>r7</title>
<g id="a_node16"><a xlink:href="file:///home/travis/build/andrewdavidmackenzie/flow/flowstdlib/data/accumulate/accumulate.html" xlink:title="compose_matrix (#7)">
<ellipse fill="#ff7f50" stroke="#000000" cx="696" cy="-145" rx="110.4804" ry="18"/>
<text text-anchor="middle" x="696" y="-141.3" font-family="Times,serif" font-size="14.00" fill="#000000">compose_matrix (#7)</text>
</a>
</g>
</g>
<!-- r4&#45;&gt;r7 -->
<g id="edge20" class="edge">
<title>r4:e&#45;&gt;r7:nw</title>
<path fill="none" stroke="#000000" d="M1253,-506C1261,-506 1258.0639,-494.1933 1253,-488 1226.4481,-455.5259 1068,-492.4472 1068,-450.5 1068,-450.5 1068,-450.5 1068,-207.5 1068,-168.8262 737.106,-187.9976 683.6396,-171.3357"/>
<polygon fill="#000000" stroke="#000000" points="686.5025,-169.3213 678,-163 680.7047,-173.2438 686.5025,-169.3213"/>
<text text-anchor="middle" x="638" y="-166.8" font-family="Times,serif" font-size="14.00" fill="#000000">chunk_size</text>
<text text-anchor="middle" x="1273" y="-509.8" font-family="Times,serif" font-size="14.00" fill="#000000">/rows</text>
</g>
<!-- r9 -->
<g id="node17" class="node">
<title>r9</title>
<g id="a_node17"><a xlink:href="file:///home/travis/build/andrewdavidmackenzie/flow/flowstdlib/data/multiply_row/multiply_row.html" xlink:title="multiply (#9)">
<ellipse fill="#ff7f50" stroke="#000000" cx="751" cy="-395" rx="72.5877" ry="18"/>
<text text-anchor="middle" x="751" y="-391.3" font-family="Times,serif" font-size="14.00" fill="#000000">multiply (#9)</text>
</a>
</g>
</g>
<!-- r3&#45;&gt;r9 -->
<g id="edge21" class="edge">
<title>r3:e&#45;&gt;r9:n</title>
<path fill="none" stroke="#000000" d="M1058,-506C1066,-506 1062.9402,-494.2924 1058,-488 1038.1371,-462.7005 797.0647,-450.283 756.7121,-421.3863"/>
<polygon fill="#000000" stroke="#000000" points="759.5222,-419.2946 751,-413 753.7368,-423.2353 759.5222,-419.2946"/>
<text text-anchor="middle" x="746.5" y="-416.8" font-family="Times,serif" font-size="14.00" fill="#000000">a</text>
</g>
<!-- initializerr1_1 -->
<!-- initializerr1_1&#45;&gt;r1 -->
<g id="edge10" class="edge">
<title>initializerr1_1&#45;&gt;r1:nw</title>
<path fill="none" stroke="#0000ff" stroke-dasharray="1,5" d="M313.0376,-894.9275C309.307,-865.7678 306.3835,-807.9618 334.1584,-771.8093"/>
<polygon fill="#0000ff" stroke="#0000ff" points="337.0429,-773.8282 341,-764 331.7777,-769.2154 337.0429,-773.8282"/>
<text text-anchor="middle" x="327.5" y="-815.3" font-family="Times,serif" font-size="14.00" fill="#000000">42</text>
</g>
<!-- initializerr1_2 -->
<!-- initializerr1_2&#45;&gt;r1 -->
<g id="edge11" class="edge">
<title>initializerr1_2&#45;&gt;r1:ne</title>
<path fill="none" stroke="#0000ff" stroke-dasharray="1,5" d="M519.6417,-895.4411C489.7821,-869.4676 432.4369,-818.7493 384.3306,-771.2808"/>
<polygon fill="#0000ff" stroke="#0000ff" points="386.5616,-768.5637 377,-764 381.6287,-773.5303 386.5616,-768.5637"/>
<text text-anchor="middle" x="494" y="-815.3" font-family="Times,serif" font-size="14.00" fill="#000000">&#45;1</text>
</g>
<!-- initializerr1_3 -->
<!-- initializerr1_3&#45;&gt;r1 -->
<g id="edge12" class="edge">
<title>initializerr1_3&#45;&gt;r1:n</title>
<path fill="none" stroke="#0000ff" d="M118.9606,-896.1278C155.4211,-873.5379 222.7165,-832.6434 282,-801 311.9626,-785.007 349.9346,-798.4012 357.611,-774.2271"/>
<polygon fill="#0000ff" stroke="#0000ff" points="361.1223,-774.3801 359,-764 354.1859,-773.438 361.1223,-774.3801"/>
<text text-anchor="middle" x="287" y="-815.3" font-family="Times,serif" font-size="14.00" fill="#000000">1</text>
</g>
<!-- r6&#45;&gt;r3 -->
<g id="edge18" class="edge">
<title>r6:se&#45;&gt;r3:ne</title>
<path fill="none" stroke="#000000" d="M488,-582C516.0503,-553.9497 804.8222,-561.2243 844,-555 897.3473,-546.5246 996.7802,-562.524 977.4862,-531.8029"/>
<polygon fill="#000000" stroke="#000000" points="980.084,-529.4527 971,-524 974.701,-533.9274 980.084,-529.4527"/>
<text text-anchor="middle" x="949.5" y="-527.8" font-family="Times,serif" font-size="14.00" fill="#000000">factor</text>
<text text-anchor="middle" x="455.5" y="-570.8" font-family="Times,serif" font-size="14.00" fill="#000000">/columns</text>
</g>
<!-- r5 -->
<g id="node14" class="node">
<title>r5</title>
<g id="a_node14"><a xlink:href="file:///home/travis/build/andrewdavidmackenzie/flow/flowstdlib/data/duplicate/duplicate.html" xlink:title="duplicate (#5)">
<ellipse fill="#ff7f50" stroke="#000000" cx="519" cy="-506" rx="77.1866" ry="18"/>
<text text-anchor="middle" x="519" y="-502.3" font-family="Times,serif" font-size="14.00" fill="#000000">duplicate (#5)</text>
</a>
</g>
</g>
<!-- r6&#45;&gt;r5 -->
<g id="edge17" class="edge">
<title>r6:se&#45;&gt;r5:ne</title>
<path fill="none" stroke="#000000" d="M488,-582C508.879,-561.121 549.0045,-550.6431 542.7242,-532.3644"/>
<polygon fill="#000000" stroke="#000000" points="545.536,-530.2759 537,-524 539.7593,-534.2292 545.536,-530.2759"/>
<text text-anchor="middle" x="515.5" y="-527.8" font-family="Times,serif" font-size="14.00" fill="#000000">factor</text>
<text text-anchor="middle" x="520.5" y="-570.8" font-family="Times,serif" font-size="14.00" fill="#000000">/columns</text>
</g>
<!-- r10 -->
<g id="node15" class="node">
<title>r10</title>
<g id="a_node15"><a xlink:href="file:///home/travis/build/andrewdavidmackenzie/flow/flowstdlib/data/accumulate/accumulate.html" xlink:title="compose_rows (#10)">
<ellipse fill="#ff7f50" stroke="#000000" cx="697" cy="-270" rx="108.5808" ry="18"/>
<text text-anchor="middle" x="697" y="-266.3" font-family="Times,serif" font-size="14.00" fill="#000000">compose_rows (#10)</text>
</a>
</g>
</g>
<!-- r6&#45;&gt;r10 -->
<g id="edge19" class="edge">
<title>r6:se&#45;&gt;r10:nw</title>
<path fill="none" stroke="#000000" d="M488,-582C515.1311,-554.8689 440.4719,-571.8488 406,-555 370.8933,-537.8409 333,-545.0757 333,-506 333,-506 333,-506 333,-332.5 333,-258.3088 599.6976,-335.5731 670.6664,-294.3005"/>
<polygon fill="#000000" stroke="#000000" points="673.1339,-296.8227 679,-288 668.9124,-291.2389 673.1339,-296.8227"/>
<text text-anchor="middle" x="639" y="-291.8" font-family="Times,serif" font-size="14.00" fill="#000000">chunk_size</text>
<text text-anchor="middle" x="520.5" y="-585.8" font-family="Times,serif" font-size="14.00" fill="#000000">/columns</text>
</g>
<!-- r8&#45;&gt;r5 -->
<g id="edge22" class="edge">
<title>r8:e&#45;&gt;r5:n</title>
<path fill="none" stroke="#000000" d="M271,-600C277.3748,-600 466.6061,-546.1467 510.1334,-528.7449"/>
<polygon fill="#000000" stroke="#000000" points="511.8345,-531.8042 519,-524 508.5317,-525.6324 511.8345,-531.8042"/>
<text text-anchor="middle" x="499.5" y="-527.8" font-family="Times,serif" font-size="14.00" fill="#000000">value</text>
</g>
<!-- r5&#45;&gt;r9 -->
<g id="edge23" class="edge">
<title>r5:e&#45;&gt;r9:ne</title>
<path fill="none" stroke="#000000" d="M597,-506C615.6706,-506 740.6231,-448.6627 765.6466,-422.7865"/>
<polygon fill="#000000" stroke="#000000" points="769.0694,-423.5946 769,-413 762.4474,-421.3255 769.0694,-423.5946"/>
<text text-anchor="middle" x="764" y="-416.8" font-family="Times,serif" font-size="14.00" fill="#000000">b</text>
</g>
<!-- r10&#45;&gt;r10 -->
<g id="edge26" class="edge">
<title>r10:e&#45;&gt;r10:ne</title>
<path fill="none" stroke="#000000" d="M806,-270C829.5404,-261 877.5404,-261 877.5404,-279 877.5404,-296.0156 786.0696,-296.9462 725.2281,-289.3943"/>
<polygon fill="#000000" stroke="#000000" points="725.3811,-285.8829 715,-288 724.4356,-292.8188 725.3811,-285.8829"/>
<text text-anchor="middle" x="739" y="-291.8" font-family="Times,serif" font-size="14.00" fill="#000000">partial</text>
<text text-anchor="middle" x="832" y="-273.8" font-family="Times,serif" font-size="14.00" fill="#000000">/partial</text>
</g>
<!-- r10&#45;&gt;r10 -->
<g id="edge27" class="edge">
<title>r10:s&#45;&gt;r10:nw</title>
<path fill="none" stroke="#000000" d="M697,-252C636.8199,-243 516.4596,-243 516.4596,-270 516.4596,-295.5234 607.9304,-296.9193 668.7719,-289.3929"/>
<polygon fill="#000000" stroke="#000000" points="669.5638,-292.8174 679,-288 668.6192,-285.8814 669.5638,-292.8174"/>
<text text-anchor="middle" x="719" y="-291.8" font-family="Times,serif" font-size="14.00" fill="#000000">chunk_size</text>
<text text-anchor="middle" x="654.5" y="-240.8" font-family="Times,serif" font-size="14.00" fill="#000000">/chunk_size</text>
</g>
<!-- r10&#45;&gt;r7 -->
<g id="edge28" class="edge">
<title>r10:s&#45;&gt;r7:n</title>
<path fill="none" stroke="#000000" d="M697,-252C697,-216.1505 696.1787,-204.6721 696.0247,-173.3922"/>
<polygon fill="#000000" stroke="#000000" points="699.5239,-172.9916 696,-163 692.5239,-173.0083 699.5239,-172.9916"/>
<text text-anchor="middle" x="719" y="-166.8" font-family="Times,serif" font-size="14.00" fill="#000000">values</text>
<text text-anchor="middle" x="721.5" y="-240.8" font-family="Times,serif" font-size="14.00" fill="#000000">/chunk</text>
</g>
<!-- r7&#45;&gt;r7 -->
<g id="edge30" class="edge">
<title>r7:e&#45;&gt;r7:ne</title>
<path fill="none" stroke="#000000" d="M807,-145C830.4902,-136 878.4902,-136 878.4902,-154 878.4902,-171.0508 785.4747,-171.9499 723.9593,-164.3474"/>
<polygon fill="#000000" stroke="#000000" points="724.379,-160.8724 714,-163 723.4404,-167.8092 724.379,-160.8724"/>
<text text-anchor="middle" x="738" y="-166.8" font-family="Times,serif" font-size="14.00" fill="#000000">partial</text>
<text text-anchor="middle" x="833" y="-148.8" font-family="Times,serif" font-size="14.00" fill="#000000">/partial</text>
</g>
<!-- r7&#45;&gt;r7 -->
<g id="edge31" class="edge">
<title>r7:s&#45;&gt;r7:nw</title>
<path fill="none" stroke="#000000" d="M696,-127C635.1699,-118 513.5098,-118 513.5098,-145 513.5098,-170.5762 606.5253,-171.9249 668.0407,-164.3461"/>
<polygon fill="#000000" stroke="#000000" points="668.5589,-167.808 678,-163 667.6213,-160.871 668.5589,-167.808"/>
<text text-anchor="middle" x="638" y="-166.8" font-family="Times,serif" font-size="14.00" fill="#000000">chunk_size</text>
<text text-anchor="middle" x="653.5" y="-115.8" font-family="Times,serif" font-size="14.00" fill="#000000">/chunk_size</text>
</g>
<!-- r2 -->
<g id="node20" class="node">
<title>r2</title>
<g id="a_node20"><a xlink:href="file:///home/travis/build/andrewdavidmackenzie/flow/flowr/src/lib/flowruntime/stdio/stdout.html" xlink:title="print (#2)">
<ellipse fill="#ff7f50" stroke="#000000" cx="696" cy="-34" rx="57.3905" ry="18"/>
<text text-anchor="middle" x="696" y="-30.3" font-family="Times,serif" font-size="14.00" fill="#000000">print (#2)</text>
</a>
</g>
</g>
<!-- r7&#45;&gt;r2 -->
<g id="edge32" class="edge">
<title>r7:s&#45;&gt;r2:n</title>
<path fill="none" stroke="#000000" d="M696,-127C696,-97.3125 696,-87.4553 696,-62.1057"/>
<polygon fill="#000000" stroke="#000000" points="699.5001,-62 696,-52 692.5001,-62 699.5001,-62"/>
<text text-anchor="middle" x="720.5" y="-115.8" font-family="Times,serif" font-size="14.00" fill="#000000">/chunk</text>
</g>
<!-- r9&#45;&gt;r10 -->
<g id="edge24" class="edge">
<title>r9:e&#45;&gt;r10:n</title>
<path fill="none" stroke="#000000" d="M824,-395C832,-395 827.6926,-384.0968 824,-377 793.8637,-319.0812 706.8629,-352.8776 697.7709,-298.0176"/>
<polygon fill="#000000" stroke="#000000" points="701.257,-297.702 697,-288 694.2776,-298.2391 701.257,-297.702"/>
<text text-anchor="middle" x="674" y="-276.8" font-family="Times,serif" font-size="14.00" fill="#000000">values</text>
</g>
<!-- initializerr10_1 -->
<!-- initializerr10_1&#45;&gt;r10 -->
<g id="edge25" class="edge">
<title>initializerr10_1&#45;&gt;r10:n</title>
<path fill="none" stroke="#0000ff" stroke-dasharray="1,5" d="M554.1343,-378.1187C595.5681,-354.7091 667.5631,-313.2626 690.0712,-295.4452"/>
<polygon fill="#0000ff" stroke="#0000ff" points="692.7495,-297.7048 697,-288 687.6252,-292.936 692.7495,-297.7048"/>
<text text-anchor="middle" x="649.5" y="-328.8" font-family="Times,serif" font-size="14.00" fill="#000000">[]</text>
</g>
<!-- initializerr7_1 -->
<!-- initializerr7_1&#45;&gt;r7 -->
<g id="edge29" class="edge">
<title>initializerr7_1&#45;&gt;r7:n</title>
<path fill="none" stroke="#0000ff" stroke-dasharray="1,5" d="M481.7006,-254.8232C544.3235,-231.7712 658.5317,-188.6368 688.5899,-169.8933"/>
<polygon fill="#0000ff" stroke="#0000ff" points="691.0621,-172.3738 696,-163 686.2943,-167.2485 691.0621,-172.3738"/>
<text text-anchor="middle" x="626.5" y="-203.8" font-family="Times,serif" font-size="14.00" fill="#000000">[]</text>
</g>
</g>
</svg>
