<?xml version="1.0" encoding="UTF-8" standalone="no"?>
<!DOCTYPE svg PUBLIC "-//W3C//DTD SVG 1.1//EN"
 "http://www.w3.org/Graphics/SVG/1.1/DTD/svg11.dtd">
<!-- Generated by graphviz version 2.40.1 (20161225.0304)
 -->
<!-- Title: matrix_mult Pages: 1 -->
<svg width="1508pt" height="1001pt"
 viewBox="0.00 0.00 1508.00 1001.00" xmlns="http://www.w3.org/2000/svg" xmlns:xlink="http://www.w3.org/1999/xlink">
<g id="graph0" class="graph" transform="scale(1 1) rotate(0) translate(4 997)">
<title>matrix_mult</title>
<polygon fill="#ffffff" stroke="transparent" points="-4,4 -4,-997 1504,-997 1504,4 -4,4"/>
<text text-anchor="middle" x="750" y="-977.8" font-family="Times,serif" font-size="14.00" fill="#000000">/matrix_mult</text>
<g id="clust1" class="cluster">
<title>cluster_select_0</title>
<polygon fill="none" stroke="#000000" points="876,-480 876,-868 1492,-868 1492,-480 876,-480"/>
<text text-anchor="middle" x="1184" y="-852.8" font-family="Times,serif" font-size="14.00" fill="#000000">/matrix_mult/select_0</text>
</g>
<g id="clust2" class="cluster">
<title>cluster_select_1</title>
<polygon fill="none" stroke="#000000" points="8,-574 8,-962 660,-962 660,-574 8,-574"/>
<text text-anchor="middle" x="334" y="-946.8" font-family="Times,serif" font-size="14.00" fill="#000000">/matrix_mult/select_1</text>
</g>
<g id="clust3" class="cluster">
<title>cluster_multiply</title>
<polygon fill="none" stroke="#000000" points="404,-8 404,-555 868,-555 868,-8 404,-8"/>
<text text-anchor="middle" x="636" y="-539.8" font-family="Times,serif" font-size="14.00" fill="#000000">/matrix_mult/multiply</text>
</g>
<!-- r1 -->
<g id="node1" class="node">
<title>r1</title>
<g id="a_node1"><a xlink:href="file:///home/travis/build/andrewdavidmackenzie/flow/flowr/src/lib/flowruntime/stdio/readline.html" xlink:title="readline (#1)">
<ellipse fill="#ff7f50" stroke="#000000" cx="740" cy="-819" rx="72.2875" ry="18"/>
<text text-anchor="middle" x="740" y="-815.3" font-family="Times,serif" font-size="14.00" fill="#000000">readline (#1)</text>
</a>
</g>
</g>
<!-- r0 -->
<g id="node2" class="node">
<title>r0</title>
<g id="a_node2"><a xlink:href="file:///home/travis/build/andrewdavidmackenzie/flow/flowstdlib/control/index/index.html" xlink:title="index (#0)">
<ellipse fill="#ff7f50" stroke="#000000" cx="1065" cy="-673" rx="59.5901" ry="18"/>
<text text-anchor="middle" x="1065" y="-669.3" font-family="Times,serif" font-size="14.00" fill="#000000">index (#0)</text>
</a>
</g>
</g>
<!-- r1&#45;&gt;r0 -->
<g id="edge1" class="edge">
<title>r1:e&#45;&gt;r0:n</title>
<path fill="none" stroke="#000000" d="M812,-819C819.0146,-819 1014.2173,-723.7161 1056.834,-697.3087"/>
<polygon fill="#000000" stroke="#000000" points="1059.2263,-699.8834 1065,-691 1054.9467,-694.3439 1059.2263,-699.8834"/>
<text text-anchor="middle" x="1045.5" y="-694.8" font-family="Times,serif" font-size="14.00" fill="#000000">value</text>
<text text-anchor="middle" x="829" y="-822.8" font-family="Times,serif" font-size="14.00" fill="#000000">/json</text>
</g>
<!-- r11 -->
<g id="node3" class="node">
<title>r11</title>
<g id="a_node3"><a xlink:href="file:///home/travis/build/andrewdavidmackenzie/flow/flowstdlib/control/index/index.html" xlink:title="index (#11)">
<ellipse fill="#ff7f50" stroke="#000000" cx="466" cy="-746" rx="65.7887" ry="18"/>
<text text-anchor="middle" x="466" y="-742.3" font-family="Times,serif" font-size="14.00" fill="#000000">index (#11)</text>
</a>
</g>
</g>
<!-- r1&#45;&gt;r11 -->
<g id="edge2" class="edge">
<title>r1:e&#45;&gt;r11:n</title>
<path fill="none" stroke="#000000" d="M812,-819C820,-819 817.3477,-806.95 812,-801 800.3395,-788.0261 528.001,-784.0802 474.9211,-769.2299"/>
<polygon fill="#000000" stroke="#000000" points="476.397,-766.0381 466,-764 472.8567,-772.0769 476.397,-766.0381"/>
<text text-anchor="middle" x="446.5" y="-767.8" font-family="Times,serif" font-size="14.00" fill="#000000">value</text>
<text text-anchor="middle" x="829" y="-807.8" font-family="Times,serif" font-size="14.00" fill="#000000">/json</text>
</g>
<!-- r0&#45;&gt;r0 -->
<g id="edge6" class="edge">
<title>r0:sw&#45;&gt;r0:ne</title>
<path fill="none" stroke="#000000" d="M1047,-655C933.2053,-667 933.2053,-709 1065,-709 1192.8048,-709 1196.6739,-697.7156 1093.0215,-691.5609"/>
<polygon fill="#000000" stroke="#000000" points="1093.18,-688.0644 1083,-691 1092.7887,-695.0535 1093.18,-688.0644"/>
<text text-anchor="middle" x="1137" y="-694.8" font-family="Times,serif" font-size="14.00" fill="#000000">previous_value</text>
<text text-anchor="middle" x="1025.5" y="-643.8" font-family="Times,serif" font-size="14.00" fill="#000000">/value</text>
</g>
<!-- r0&#45;&gt;r0 -->
<g id="edge7" class="edge">
<title>r0:s&#45;&gt;r0:nw</title>
<path fill="none" stroke="#000000" d="M1065,-655C1021.0684,-646 933.2053,-646 933.2053,-673 933.2053,-698.0488 993.3359,-699.859 1037.1057,-692.8034"/>
<polygon fill="#000000" stroke="#000000" points="1037.7897,-696.2365 1047,-691 1036.5345,-689.3499 1037.7897,-696.2365"/>
<text text-anchor="middle" x="992.5" y="-694.8" font-family="Times,serif" font-size="14.00" fill="#000000">previous_index</text>
<text text-anchor="middle" x="1087" y="-643.8" font-family="Times,serif" font-size="14.00" fill="#000000">/index</text>
</g>
<!-- r3 -->
<g id="node7" class="node">
<title>r3</title>
<g id="a_node7"><a xlink:href="file:///home/travis/build/andrewdavidmackenzie/flow/flowstdlib/data/info/info.html" xlink:title="a_info (#3)">
<ellipse fill="#ff7f50" stroke="#000000" cx="1227" cy="-506" rx="61.99" ry="18"/>
<text text-anchor="middle" x="1227" y="-502.3" font-family="Times,serif" font-size="14.00" fill="#000000">a_info (#3)</text>
</a>
</g>
</g>
<!-- r0&#45;&gt;r3 -->
<g id="edge8" class="edge">
<title>r0:e&#45;&gt;r3:n</title>
<path fill="none" stroke="#000000" d="M1125,-673C1201.8043,-673 1225.0231,-610.0337 1226.8766,-534.2768"/>
<polygon fill="#000000" stroke="#000000" points="1230.3796,-534.0413 1227,-524 1223.3801,-533.9572 1230.3796,-534.0413"/>
<text text-anchor="middle" x="1180.5" y="-676.8" font-family="Times,serif" font-size="14.00" fill="#000000">/selected_value</text>
</g>
<!-- r6 -->
<g id="node8" class="node">
<title>r6</title>
<g id="a_node8"><a xlink:href="file:///home/travis/build/andrewdavidmackenzie/flow/flowstdlib/data/duplicate_rows/duplicate_rows.html" xlink:title="duplicate_rows (#6)">
<ellipse fill="#ff7f50" stroke="#000000" cx="989" cy="-506" rx="104.7816" ry="18"/>
<text text-anchor="middle" x="989" y="-502.3" font-family="Times,serif" font-size="14.00" fill="#000000">duplicate_rows (#6)</text>
</a>
</g>
</g>
<!-- r0&#45;&gt;r6 -->
<g id="edge9" class="edge">
<title>r0:e&#45;&gt;r6:n</title>
<path fill="none" stroke="#000000" d="M1125,-673C1133,-673 1128.1305,-662.3621 1125,-655 1093.57,-581.0863 997.7354,-605.5314 989.5576,-534.2041"/>
<polygon fill="#000000" stroke="#000000" points="993.0405,-533.7941 989,-524 986.051,-534.1761 993.0405,-533.7941"/>
<text text-anchor="middle" x="1180.5" y="-661.8" font-family="Times,serif" font-size="14.00" fill="#000000">/selected_value</text>
</g>
<!-- r11&#45;&gt;r11 -->
<g id="edge13" class="edge">
<title>r11:sw&#45;&gt;r11:ne</title>
<path fill="none" stroke="#000000" d="M448,-728C328.3558,-740 328.3558,-782 466,-782 599.6116,-782 603.526,-770.6928 494.2071,-764.5423"/>
<polygon fill="#000000" stroke="#000000" points="494.1717,-761.0356 484,-764 493.8002,-768.0258 494.1717,-761.0356"/>
<text text-anchor="middle" x="538" y="-767.8" font-family="Times,serif" font-size="14.00" fill="#000000">previous_value</text>
<text text-anchor="middle" x="426.5" y="-716.8" font-family="Times,serif" font-size="14.00" fill="#000000">/value</text>
</g>
<!-- r11&#45;&gt;r11 -->
<g id="edge14" class="edge">
<title>r11:s&#45;&gt;r11:nw</title>
<path fill="none" stroke="#000000" d="M466,-728C420.1186,-719 328.3558,-719 328.3558,-746 328.3558,-771.1016 392.1104,-772.8665 437.9437,-765.7587"/>
<polygon fill="#000000" stroke="#000000" points="438.7525,-769.1705 448,-764 437.5465,-762.2751 438.7525,-769.1705"/>
<text text-anchor="middle" x="393.5" y="-767.8" font-family="Times,serif" font-size="14.00" fill="#000000">previous_index</text>
<text text-anchor="middle" x="488" y="-716.8" font-family="Times,serif" font-size="14.00" fill="#000000">/index</text>
</g>
<!-- r7 -->
<g id="node12" class="node">
<title>r7</title>
<g id="a_node12"><a xlink:href="file:///home/travis/build/andrewdavidmackenzie/flow/flowstdlib/data/info/info.html" xlink:title="b_info (#7)">
<ellipse fill="#ff7f50" stroke="#000000" cx="549" cy="-600" rx="62.2891" ry="18"/>
<text text-anchor="middle" x="549" y="-596.3" font-family="Times,serif" font-size="14.00" fill="#000000">b_info (#7)</text>
</a>
</g>
</g>
<!-- r11&#45;&gt;r7 -->
<g id="edge15" class="edge">
<title>r11:e&#45;&gt;r7:n</title>
<path fill="none" stroke="#000000" d="M532,-746C586.0258,-746 553.3973,-683.4208 549.3882,-628.2071"/>
<polygon fill="#000000" stroke="#000000" points="552.8776,-627.8597 549,-618 545.8827,-628.1258 552.8776,-627.8597"/>
<text text-anchor="middle" x="587.5" y="-749.8" font-family="Times,serif" font-size="14.00" fill="#000000">/selected_value</text>
</g>
<!-- r8 -->
<g id="node13" class="node">
<title>r8</title>
<g id="a_node13"><a xlink:href="file:///home/travis/build/andrewdavidmackenzie/flow/flowstdlib/data/transpose/transpose.html" xlink:title="transpose (#8)">
<ellipse fill="#ff7f50" stroke="#000000" cx="270" cy="-600" rx="79.8859" ry="18"/>
<text text-anchor="middle" x="270" y="-596.3" font-family="Times,serif" font-size="14.00" fill="#000000">transpose (#8)</text>
</a>
</g>
</g>
<!-- r11&#45;&gt;r8 -->
<g id="edge16" class="edge">
<title>r11:e&#45;&gt;r8:n</title>
<path fill="none" stroke="#000000" d="M532,-746C540,-746 536.4286,-734.6624 532,-728 464.0685,-625.8034 280.782,-737.5929 270.4551,-628.1444"/>
<polygon fill="#000000" stroke="#000000" points="273.9447,-627.8331 270,-618 266.9517,-628.1468 273.9447,-627.8331"/>
<text text-anchor="middle" x="587.5" y="-734.8" font-family="Times,serif" font-size="14.00" fill="#000000">/selected_value</text>
</g>
<!-- initializerr0_1 -->
<!-- initializerr0_1&#45;&gt;r0 -->
<g id="edge3" class="edge">
<title>initializerr0_1&#45;&gt;r0:nw</title>
<path fill="none" stroke="#0000ff" stroke-dasharray="1,5" d="M1164.7184,-801.4345C1133.6359,-773.0706 1073.9041,-718.3526 1053.7861,-698.4497"/>
<polygon fill="#0000ff" stroke="#0000ff" points="1056.3216,-696.0357 1047,-691 1051.1467,-700.7496 1056.3216,-696.0357"/>
<text text-anchor="middle" x="1130.5" y="-742.3" font-family="Times,serif" font-size="14.00" fill="#000000">42</text>
</g>
<!-- initializerr0_2 -->
<!-- initializerr0_2&#45;&gt;r0 -->
<g id="edge4" class="edge">
<title>initializerr0_2&#45;&gt;r0:ne</title>
<path fill="none" stroke="#0000ff" stroke-dasharray="1,5" d="M1364.6746,-804.1097C1287.9346,-777.4498 1132.3193,-722.0147 1091.1556,-696.9498"/>
<polygon fill="#0000ff" stroke="#0000ff" points="1093.1415,-694.0662 1083,-691 1089.0159,-699.7212 1093.1415,-694.0662"/>
<text text-anchor="middle" x="1257" y="-742.3" font-family="Times,serif" font-size="14.00" fill="#000000">&#45;1</text>
</g>
<!-- initializerr0_3 -->
<!-- initializerr0_3&#45;&gt;r0 -->
<g id="edge5" class="edge">
<title>initializerr0_3&#45;&gt;r0:n</title>
<path fill="none" stroke="#0000ff" d="M987.3134,-802.1028C1016.2369,-782.0303 1058.5268,-745.6086 1064.3308,-701.2075"/>
<polygon fill="#0000ff" stroke="#0000ff" points="1067.8382,-701.2076 1065,-691 1060.8532,-700.7496 1067.8382,-701.2076"/>
<text text-anchor="middle" x="1061" y="-742.3" font-family="Times,serif" font-size="14.00" fill="#000000">0</text>
</g>
<!-- r2 -->
<g id="node16" class="node">
<title>r2</title>
<g id="a_node16"><a xlink:href="file:///home/travis/build/andrewdavidmackenzie/flow/flowstdlib/data/accumulate/accumulate.html" xlink:title="compose_matrix (#2)">
<ellipse fill="#ff7f50" stroke="#000000" cx="732" cy="-145" rx="110.4804" ry="18"/>
<text text-anchor="middle" x="732" y="-141.3" font-family="Times,serif" font-size="14.00" fill="#000000">compose_matrix (#2)</text>
</a>
</g>
</g>
<!-- r3&#45;&gt;r2 -->
<g id="edge20" class="edge">
<title>r3:e&#45;&gt;r2:nw</title>
<path fill="none" stroke="#000000" d="M1289,-506C1297,-506 1294.0639,-494.1933 1289,-488 1262.4481,-455.5259 1104,-492.4472 1104,-450.5 1104,-450.5 1104,-450.5 1104,-207.5 1104,-168.8262 773.106,-187.9976 719.6396,-171.3357"/>
<polygon fill="#000000" stroke="#000000" points="722.5025,-169.3213 714,-163 716.7047,-173.2438 722.5025,-169.3213"/>
<text text-anchor="middle" x="674" y="-166.8" font-family="Times,serif" font-size="14.00" fill="#000000">chunk_size</text>
<text text-anchor="middle" x="1309" y="-509.8" font-family="Times,serif" font-size="14.00" fill="#000000">/rows</text>
</g>
<!-- r5 -->
<g id="node17" class="node">
<title>r5</title>
<g id="a_node17"><a xlink:href="file:///home/travis/build/andrewdavidmackenzie/flow/flowstdlib/data/multiply_row/multiply_row.html" xlink:title="multiply (#5)">
<ellipse fill="#ff7f50" stroke="#000000" cx="787" cy="-395" rx="72.5877" ry="18"/>
<text text-anchor="middle" x="787" y="-391.3" font-family="Times,serif" font-size="14.00" fill="#000000">multiply (#5)</text>
</a>
</g>
</g>
<!-- r6&#45;&gt;r5 -->
<g id="edge21" class="edge">
<title>r6:e&#45;&gt;r5:n</title>
<path fill="none" stroke="#000000" d="M1094,-506C1102,-506 1098.9402,-494.2924 1094,-488 1074.1371,-462.7005 833.0647,-450.283 792.7121,-421.3863"/>
<polygon fill="#000000" stroke="#000000" points="795.5222,-419.2946 787,-413 789.7368,-423.2353 795.5222,-419.2946"/>
<text text-anchor="middle" x="782.5" y="-416.8" font-family="Times,serif" font-size="14.00" fill="#000000">a</text>
</g>
<!-- initializerr11_1 -->
<!-- initializerr11_1&#45;&gt;r11 -->
<g id="edge10" class="edge">
<title>initializerr11_1&#45;&gt;r11:nw</title>
<path fill="none" stroke="#0000ff" stroke-dasharray="1,5" d="M345.6105,-894.8063C363.7429,-867.1094 400.8661,-813.1784 440.7832,-771.3879"/>
<polygon fill="#0000ff" stroke="#0000ff" points="443.5159,-773.5992 448,-764 438.5085,-768.7077 443.5159,-773.5992"/>
<text text-anchor="middle" x="423.5" y="-815.3" font-family="Times,serif" font-size="14.00" fill="#000000">42</text>
</g>
<!-- initializerr11_2 -->
<!-- initializerr11_2&#45;&gt;r11 -->
<g id="edge11" class="edge">
<title>initializerr11_2&#45;&gt;r11:ne</title>
<path fill="none" stroke="#0000ff" stroke-dasharray="1,5" d="M563.2322,-894.9691C551.9313,-866.6796 526.8932,-811.0346 491.2657,-771.6477"/>
<polygon fill="#0000ff" stroke="#0000ff" points="493.4252,-768.8391 484,-764 488.3503,-773.6605 493.4252,-768.8391"/>
<text text-anchor="middle" x="558" y="-815.3" font-family="Times,serif" font-size="14.00" fill="#000000">&#45;1</text>
</g>
<!-- initializerr11_3 -->
<!-- initializerr11_3&#45;&gt;r11 -->
<g id="edge12" class="edge">
<title>initializerr11_3&#45;&gt;r11:n</title>
<path fill="none" stroke="#0000ff" d="M129.2437,-896.2861C174.0741,-872.7719 259.6703,-829.6056 336,-801 388.7362,-781.2364 456.8498,-818.808 465.158,-774.0835"/>
<polygon fill="#0000ff" stroke="#0000ff" points="468.6557,-774.2566 466,-764 461.68,-773.6741 468.6557,-774.2566"/>
<text text-anchor="middle" x="341" y="-815.3" font-family="Times,serif" font-size="14.00" fill="#000000">1</text>
</g>
<!-- r7&#45;&gt;r6 -->
<g id="edge18" class="edge">
<title>r7:se&#45;&gt;r6:ne</title>
<path fill="none" stroke="#000000" d="M567,-582C591.6829,-557.3171 845.5542,-560.6554 880,-555 933.3027,-546.2486 1032.7739,-562.4852 1013.4856,-531.7988"/>
<polygon fill="#000000" stroke="#000000" points="1016.0851,-529.4508 1007,-524 1010.703,-533.9267 1016.0851,-529.4508"/>
<text text-anchor="middle" x="985.5" y="-527.8" font-family="Times,serif" font-size="14.00" fill="#000000">factor</text>
<text text-anchor="middle" x="534.5" y="-570.8" font-family="Times,serif" font-size="14.00" fill="#000000">/columns</text>
</g>
<!-- r4 -->
<g id="node14" class="node">
<title>r4</title>
<g id="a_node14"><a xlink:href="file:///home/travis/build/andrewdavidmackenzie/flow/flowstdlib/data/duplicate/duplicate.html" xlink:title="duplicate (#4)">
<ellipse fill="#ff7f50" stroke="#000000" cx="567" cy="-506" rx="77.1866" ry="18"/>
<text text-anchor="middle" x="567" y="-502.3" font-family="Times,serif" font-size="14.00" fill="#000000">duplicate (#4)</text>
</a>
</g>
</g>
<!-- r7&#45;&gt;r4 -->
<g id="edge17" class="edge">
<title>r7:se&#45;&gt;r4:ne</title>
<path fill="none" stroke="#000000" d="M567,-582C583.4014,-565.5986 599.0013,-548.6476 590.9516,-532.0916"/>
<polygon fill="#000000" stroke="#000000" points="593.7446,-529.9818 585,-524 588.1057,-534.1294 593.7446,-529.9818"/>
<text text-anchor="middle" x="563.5" y="-527.8" font-family="Times,serif" font-size="14.00" fill="#000000">factor</text>
<text text-anchor="middle" x="599.5" y="-570.8" font-family="Times,serif" font-size="14.00" fill="#000000">/columns</text>
</g>
<!-- r9 -->
<g id="node15" class="node">
<title>r9</title>
<g id="a_node15"><a xlink:href="file:///home/travis/build/andrewdavidmackenzie/flow/flowstdlib/data/accumulate/accumulate.html" xlink:title="compose_rows (#9)">
<ellipse fill="#ff7f50" stroke="#000000" cx="739" cy="-270" rx="102.8821" ry="18"/>
<text text-anchor="middle" x="739" y="-266.3" font-family="Times,serif" font-size="14.00" fill="#000000">compose_rows (#9)</text>
</a>
</g>
</g>
<!-- r7&#45;&gt;r9 -->
<g id="edge19" class="edge">
<title>r7:se&#45;&gt;r9:nw</title>
<path fill="none" stroke="#000000" d="M567,-582C585.2561,-563.7439 477.6488,-565.3587 454,-555 418.2073,-539.322 381,-545.0757 381,-506 381,-506 381,-506 381,-332.5 381,-259.5743 643.0585,-334.8255 712.8091,-294.1971"/>
<polygon fill="#000000" stroke="#000000" points="715.137,-296.8247 721,-288 710.9135,-291.2424 715.137,-296.8247"/>
<text text-anchor="middle" x="681" y="-291.8" font-family="Times,serif" font-size="14.00" fill="#000000">chunk_size</text>
<text text-anchor="middle" x="599.5" y="-585.8" font-family="Times,serif" font-size="14.00" fill="#000000">/columns</text>
</g>
<!-- r8&#45;&gt;r4 -->
<g id="edge22" class="edge">
<title>r8:e&#45;&gt;r4:n</title>
<path fill="none" stroke="#000000" d="M350,-600C361.2766,-600 521.7636,-550.724 559.2229,-530.3863"/>
<polygon fill="#000000" stroke="#000000" points="561.4929,-533.0511 567,-524 557.0506,-527.6414 561.4929,-533.0511"/>
<text text-anchor="middle" x="586.5" y="-527.8" font-family="Times,serif" font-size="14.00" fill="#000000">value</text>
</g>
<!-- r4&#45;&gt;r5 -->
<g id="edge23" class="edge">
<title>r4:e&#45;&gt;r5:ne</title>
<path fill="none" stroke="#000000" d="M645,-506C662.5908,-506 777.8179,-448.5809 801.6554,-422.8803"/>
<polygon fill="#000000" stroke="#000000" points="805.1088,-423.5943 805,-413 798.4784,-421.3498 805.1088,-423.5943"/>
<text text-anchor="middle" x="800" y="-416.8" font-family="Times,serif" font-size="14.00" fill="#000000">b</text>
</g>
<!-- r9&#45;&gt;r9 -->
<g id="edge26" class="edge">
<title>r9:e&#45;&gt;r9:ne</title>
<path fill="none" stroke="#000000" d="M842,-270C865.6909,-261 913.6909,-261 913.6909,-279 913.6909,-295.9805 826.0682,-296.9423 767.2566,-289.441"/>
<polygon fill="#000000" stroke="#000000" points="767.3897,-285.9254 757,-288 766.4157,-292.8574 767.3897,-285.9254"/>
<text text-anchor="middle" x="781" y="-291.8" font-family="Times,serif" font-size="14.00" fill="#000000">partial</text>
<text text-anchor="middle" x="868" y="-273.8" font-family="Times,serif" font-size="14.00" fill="#000000">/partial</text>
</g>
<!-- r9&#45;&gt;r9 -->
<g id="edge27" class="edge">
<title>r9:s&#45;&gt;r9:nw</title>
<path fill="none" stroke="#000000" d="M739,-252C680.7697,-243 564.3091,-243 564.3091,-270 564.3091,-295.4707 651.9318,-296.9134 710.7434,-289.4394"/>
<polygon fill="#000000" stroke="#000000" points="711.5835,-292.8559 721,-288 710.6106,-285.9238 711.5835,-292.8559"/>
<text text-anchor="middle" x="761" y="-291.8" font-family="Times,serif" font-size="14.00" fill="#000000">chunk_size</text>
<text text-anchor="middle" x="696.5" y="-240.8" font-family="Times,serif" font-size="14.00" fill="#000000">/chunk_size</text>
</g>
<!-- r9&#45;&gt;r2 -->
<g id="edge28" class="edge">
<title>r9:s&#45;&gt;r2:n</title>
<path fill="none" stroke="#000000" d="M739,-252C739,-215.8871 733.2013,-204.6531 732.1594,-173.0107"/>
<polygon fill="#000000" stroke="#000000" points="735.6588,-172.943 732,-163 728.6597,-173.0545 735.6588,-172.943"/>
<text text-anchor="middle" x="755" y="-166.8" font-family="Times,serif" font-size="14.00" fill="#000000">values</text>
<text text-anchor="middle" x="763.5" y="-240.8" font-family="Times,serif" font-size="14.00" fill="#000000">/chunk</text>
</g>
<!-- r2&#45;&gt;r2 -->
<g id="edge30" class="edge">
<title>r2:e&#45;&gt;r2:ne</title>
<path fill="none" stroke="#000000" d="M843,-145C866.4902,-136 914.4902,-136 914.4902,-154 914.4902,-171.0508 821.4747,-171.9499 759.9593,-164.3474"/>
<polygon fill="#000000" stroke="#000000" points="760.379,-160.8724 750,-163 759.4404,-167.8092 760.379,-160.8724"/>
<text text-anchor="middle" x="774" y="-166.8" font-family="Times,serif" font-size="14.00" fill="#000000">partial</text>
<text text-anchor="middle" x="869" y="-148.8" font-family="Times,serif" font-size="14.00" fill="#000000">/partial</text>
</g>
<!-- r2&#45;&gt;r2 -->
<g id="edge31" class="edge">
<title>r2:s&#45;&gt;r2:nw</title>
<path fill="none" stroke="#000000" d="M732,-127C671.1699,-118 549.5098,-118 549.5098,-145 549.5098,-170.5762 642.5253,-171.9249 704.0407,-164.3461"/>
<polygon fill="#000000" stroke="#000000" points="704.5589,-167.808 714,-163 703.6213,-160.871 704.5589,-167.808"/>
<text text-anchor="middle" x="674" y="-166.8" font-family="Times,serif" font-size="14.00" fill="#000000">chunk_size</text>
<text text-anchor="middle" x="689.5" y="-115.8" font-family="Times,serif" font-size="14.00" fill="#000000">/chunk_size</text>
</g>
<!-- r10 -->
<g id="node20" class="node">
<title>r10</title>
<g id="a_node20"><a xlink:href="file:///home/travis/build/andrewdavidmackenzie/flow/flowr/src/lib/flowruntime/stdio/stdout.html" xlink:title="print (#10)">
<ellipse fill="#ff7f50" stroke="#000000" cx="732" cy="-34" rx="63.0888" ry="18"/>
<text text-anchor="middle" x="732" y="-30.3" font-family="Times,serif" font-size="14.00" fill="#000000">print (#10)</text>
</a>
</g>
</g>
<!-- r2&#45;&gt;r10 -->
<g id="edge32" class="edge">
<title>r2:s&#45;&gt;r10:n</title>
<path fill="none" stroke="#000000" d="M732,-127C732,-97.3125 732,-87.4553 732,-62.1057"/>
<polygon fill="#000000" stroke="#000000" points="735.5001,-62 732,-52 728.5001,-62 735.5001,-62"/>
<text text-anchor="middle" x="756.5" y="-115.8" font-family="Times,serif" font-size="14.00" fill="#000000">/chunk</text>
</g>
<!-- r5&#45;&gt;r9 -->
<g id="edge24" class="edge">
<title>r5:e&#45;&gt;r9:n</title>
<path fill="none" stroke="#000000" d="M860,-395C868,-395 863.611,-384.1387 860,-377 831.5147,-320.687 748.7569,-350.9654 739.7905,-298.0515"/>
<polygon fill="#000000" stroke="#000000" points="743.2733,-297.6948 739,-288 736.2949,-298.2437 743.2733,-297.6948"/>
<text text-anchor="middle" x="716" y="-276.8" font-family="Times,serif" font-size="14.00" fill="#000000">values</text>
</g>
<!-- initializerr9_1 -->
<!-- initializerr9_1&#45;&gt;r9 -->
<g id="edge25" class="edge">
<title>initializerr9_1&#45;&gt;r9:n</title>
<path fill="none" stroke="#0000ff" stroke-dasharray="1,5" d="M598.54,-378.6432C641.4108,-356.6538 713.7247,-317.9049 733.7324,-296.9379"/>
<polygon fill="#0000ff" stroke="#0000ff" points="736.9379,-298.3922 739,-288 730.9073,-294.8381 736.9379,-298.3922"/>
<text text-anchor="middle" x="699.5" y="-328.8" font-family="Times,serif" font-size="14.00" fill="#000000">[]</text>
</g>
<!-- initializerr2_1 -->
<!-- initializerr2_1&#45;&gt;r2 -->
<g id="edge29" class="edge">
<title>initializerr2_1&#45;&gt;r2:n</title>
<path fill="none" stroke="#0000ff" stroke-dasharray="1,5" d="M528.0184,-254.6278C587.5062,-231.526 695.3949,-188.5848 724.5622,-169.983"/>
<polygon fill="#0000ff" stroke="#0000ff" points="727.1052,-172.3964 732,-163 722.3139,-167.2931 727.1052,-172.3964"/>
<text text-anchor="middle" x="666.5" y="-203.8" font-family="Times,serif" font-size="14.00" fill="#000000">[]</text>
</g>
</g>
</svg>
