<?xml version="1.0" encoding="UTF-8" standalone="no"?>
<!DOCTYPE svg PUBLIC "-//W3C//DTD SVG 1.1//EN"
 "http://www.w3.org/Graphics/SVG/1.1/DTD/svg11.dtd">
<!-- Generated by graphviz version 2.44.0 (20200408.0750)
 -->
<!-- Title: matrix_mult Pages: 1 -->
<svg width="640pt" height="616pt"
 viewBox="0.00 0.00 640.24 616.00" xmlns="http://www.w3.org/2000/svg" xmlns:xlink="http://www.w3.org/1999/xlink">
<g id="graph0" class="graph" transform="scale(1 1) rotate(0) translate(4 612)">
<title>matrix_mult</title>
<polygon fill="white" stroke="transparent" points="-4,4 -4,-612 636.24,-612 636.24,4 -4,4"/>
<text text-anchor="middle" x="316.12" y="-592.8" font-family="Times,serif" font-size="14.00">/matrix_mult</text>
<g id="clust1" class="cluster">
<title>cluster_multiply</title>
<polygon fill="none" stroke="black" points="34.24,-8 34.24,-577 624.24,-577 624.24,-8 34.24,-8"/>
<text text-anchor="middle" x="329.24" y="-561.8" font-family="Times,serif" font-size="14.00">/matrix_mult/multiply</text>
</g>
<!-- r0 -->
<g id="node1" class="node">
<title>r0</title>
<g id="a_node1"><a xlink:href="file:///Users/andrew/workspace/flow/flowstdlib/data/info/info.toml" xlink:title="b_info (#0)">
<ellipse fill="coral" stroke="black" cx="480.24" cy="-441" rx="50.89" ry="18"/>
<text text-anchor="middle" x="480.24" y="-437.3" font-family="Times,serif" font-size="14.00">b_info (#0)</text>
</a>
</g>
</g>
<!-- r4 -->
<g id="node3" class="node">
<title>r4</title>
<g id="a_node3"><a xlink:href="file:///Users/andrew/workspace/flow/flowstdlib/data/duplicate/duplicate.toml" xlink:title="duplicate (#4)">
<ellipse fill="coral" stroke="black" cx="357.24" cy="-354" rx="59.59" ry="18"/>
<text text-anchor="middle" x="357.24" y="-350.3" font-family="Times,serif" font-size="14.00">duplicate (#4)</text>
</a>
</g>
</g>
<!-- r0&#45;&gt;r4 -->
<g id="edge2" class="edge">
<title>r0:se&#45;&gt;r4:ne</title>
<path fill="none" stroke="black" d="M497.24,-423C503.54,-416.71 432.48,-393.37 424.24,-390 406.46,-382.73 395.78,-386.41 383.31,-378.57"/>
<polygon fill="black" stroke="black" points="385.21,-375.6 375.24,-372 380.79,-381.03 385.21,-375.6"/>
<text text-anchor="middle" x="359.24" y="-375.8" font-family="Times,serif" font-size="14.00">factor</text>
<text text-anchor="middle" x="471.74" y="-411.8" font-family="Times,serif" font-size="14.00">/columns</text>
</g>
<!-- r2 -->
<g id="node4" class="node">
<title>r2</title>
<g id="a_node4"><a xlink:href="file:///Users/andrew/workspace/flow/flowstdlib/data/duplicate_rows/duplicate_rows.toml" xlink:title="duplicate_rows (#2)">
<ellipse fill="coral" stroke="black" cx="144.24" cy="-354" rx="81.49" ry="18"/>
<text text-anchor="middle" x="144.24" y="-350.3" font-family="Times,serif" font-size="14.00">duplicate_rows (#2)</text>
</a>
</g>
</g>
<!-- r0&#45;&gt;r2 -->
<g id="edge3" class="edge">
<title>r0:se&#45;&gt;r2:ne</title>
<path fill="none" stroke="black" d="M497.24,-423C509.46,-410.78 228.17,-389.24 171.64,-375.49"/>
<polygon fill="black" stroke="black" points="172.84,-372.2 162.24,-372 170.4,-378.76 172.84,-372.2"/>
<text text-anchor="middle" x="146.24" y="-375.8" font-family="Times,serif" font-size="14.00">factor</text>
<text text-anchor="middle" x="522.74" y="-411.8" font-family="Times,serif" font-size="14.00">/columns</text>
</g>
<!-- r6 -->
<g id="node5" class="node">
<title>r6</title>
<g id="a_node5"><a xlink:href="file:///Users/andrew/workspace/flow/flowstdlib/data/accumulate/accumulate.toml" xlink:title="compose_rows (#6)">
<ellipse fill="coral" stroke="black" cx="153.24" cy="-194" rx="81.49" ry="18"/>
<text text-anchor="middle" x="153.24" y="-190.3" font-family="Times,serif" font-size="14.00">compose_rows (#6)</text>
</a>
</g>
</g>
<!-- r0&#45;&gt;r6 -->
<g id="edge4" class="edge">
<title>r0:se&#45;&gt;r6:nw</title>
<path fill="none" stroke="black" d="M497.24,-423C558.44,-361.8 461.59,-305.58 386.24,-263 364.95,-250.97 180.02,-236.81 141.2,-220.3"/>
<polygon fill="black" stroke="black" points="143.92,-218.08 135.24,-212 138.24,-222.16 143.92,-218.08"/>
<text text-anchor="middle" x="104.74" y="-215.8" font-family="Times,serif" font-size="14.00">chunk_size</text>
<text text-anchor="middle" x="522.74" y="-426.8" font-family="Times,serif" font-size="14.00">/columns</text>
</g>
<!-- initializerr0_0 -->
<!-- initializerr0_0&#45;&gt;r0 -->
<g id="edge1" class="edge">
<title>initializerr0_0&#45;&gt;r0:w</title>
<path fill="none" stroke="blue" stroke-dasharray="1,5" d="M422.38,-510.01C414.54,-488.67 404.49,-453.63 418.55,-443.7"/>
<polygon fill="blue" stroke="blue" points="419.55,-447.05 428.24,-441 417.67,-440.31 419.55,-447.05"/>
<text text-anchor="middle" x="449.24" y="-480.8" font-family="Times,serif" font-size="14.00">[[5,6],[7,8]]</text>
</g>
<!-- r5 -->
<g id="node10" class="node">
<title>r5</title>
<g id="a_node10"><a xlink:href="file:///Users/andrew/workspace/flow/flowstdlib/data/multiply_row/multiply_row.toml" xlink:title="multiply (#5)">
<ellipse fill="coral" stroke="black" cx="292.24" cy="-281" rx="57.69" ry="18"/>
<text text-anchor="middle" x="292.24" y="-277.3" font-family="Times,serif" font-size="14.00">multiply (#5)</text>
</a>
</g>
</g>
<!-- r4&#45;&gt;r5 -->
<g id="edge11" class="edge">
<title>r4:e&#45;&gt;r5:ne</title>
<path fill="none" stroke="black" d="M418.24,-354C426.26,-354 422.08,-342.39 417.24,-336 388.77,-298.39 350.9,-329.74 316.89,-305.51"/>
<polygon fill="black" stroke="black" points="319.13,-302.82 309.24,-299 314.59,-308.15 319.13,-302.82"/>
<text text-anchor="middle" x="305.74" y="-302.8" font-family="Times,serif" font-size="14.00">b</text>
</g>
<!-- r2&#45;&gt;r5 -->
<g id="edge8" class="edge">
<title>r2:e&#45;&gt;r5:n</title>
<path fill="none" stroke="black" d="M227.24,-354C234.93,-354 273.04,-323.94 287.05,-307.59"/>
<polygon fill="black" stroke="black" points="290.07,-309.37 292.24,-299 284.08,-305.75 290.07,-309.37"/>
<text text-anchor="middle" x="288.74" y="-302.8" font-family="Times,serif" font-size="14.00">a</text>
</g>
<!-- r6&#45;&gt;r6 -->
<g id="edge14" class="edge">
<title>r6:e&#45;&gt;r6:ne</title>
<path fill="none" stroke="black" d="M235.24,-194C258.49,-183.5 306.49,-183.5 306.49,-203 306.49,-221.28 232.52,-222.42 181.18,-213.84"/>
<polygon fill="black" stroke="black" points="181.71,-210.38 171.24,-212 180.44,-217.27 181.71,-210.38"/>
<text text-anchor="middle" x="153.74" y="-215.8" font-family="Times,serif" font-size="14.00">partial</text>
<text text-anchor="middle" x="254.74" y="-197.8" font-family="Times,serif" font-size="14.00">/partial</text>
</g>
<!-- r6&#45;&gt;r6 -->
<g id="edge15" class="edge">
<title>r6:s&#45;&gt;r6:nw</title>
<path fill="none" stroke="black" d="M153.24,-176C102.16,-165.5 0,-165.5 0,-194 0,-220.72 73.97,-222.39 125.31,-213.84"/>
<polygon fill="black" stroke="black" points="126.05,-217.26 135.24,-212 124.77,-210.38 126.05,-217.26"/>
<text text-anchor="middle" x="165.74" y="-215.8" font-family="Times,serif" font-size="14.00">chunk_size</text>
<text text-anchor="middle" x="120.74" y="-164.8" font-family="Times,serif" font-size="14.00">/chunk_size</text>
</g>
<!-- r7 -->
<g id="node8" class="node">
<title>r7</title>
<g id="a_node8"><a xlink:href="file:///Users/andrew/workspace/flow/flowstdlib/data/accumulate/accumulate.toml" xlink:title="compose_matrix (#7)">
<ellipse fill="coral" stroke="black" cx="442.24" cy="-107" rx="87.18" ry="18"/>
<text text-anchor="middle" x="442.24" y="-103.3" font-family="Times,serif" font-size="14.00">compose_matrix (#7)</text>
</a>
</g>
</g>
<!-- r6&#45;&gt;r7 -->
<g id="edge16" class="edge">
<title>r6:s&#45;&gt;r7:n</title>
<path fill="none" stroke="black" d="M153.24,-176C153.24,-146.32 392.65,-155.43 435.66,-132.72"/>
<polygon fill="black" stroke="black" points="438.42,-134.88 442.24,-125 433.09,-130.34 438.42,-134.88"/>
<text text-anchor="middle" x="424.74" y="-128.8" font-family="Times,serif" font-size="14.00">values</text>
<text text-anchor="middle" x="171.74" y="-164.8" font-family="Times,serif" font-size="14.00">/chunk</text>
</g>
<!-- r1 -->
<g id="node6" class="node">
<title>r1</title>
<g id="a_node6"><a xlink:href="file:///Users/andrew/workspace/flow/flowstdlib/data/info/info.toml" xlink:title="a_info (#1)">
<ellipse fill="coral" stroke="black" cx="374.24" cy="-194" rx="50.09" ry="18"/>
<text text-anchor="middle" x="374.24" y="-190.3" font-family="Times,serif" font-size="14.00">a_info (#1)</text>
</a>
</g>
</g>
<!-- r1&#45;&gt;r7 -->
<g id="edge6" class="edge">
<title>r1:e&#45;&gt;r7:nw</title>
<path fill="none" stroke="black" d="M425.24,-194C452.2,-194 414.25,-157.45 419.38,-133.88"/>
<polygon fill="black" stroke="black" points="422.51,-135.45 424.24,-125 416.37,-132.09 422.51,-135.45"/>
<text text-anchor="middle" x="393.74" y="-128.8" font-family="Times,serif" font-size="14.00">chunk_size</text>
<text text-anchor="middle" x="440.74" y="-197.8" font-family="Times,serif" font-size="14.00">/rows</text>
</g>
<!-- initializerr1_0 -->
<!-- initializerr1_0&#45;&gt;r1 -->
<g id="edge5" class="edge">
<title>initializerr1_0&#45;&gt;r1:w</title>
<path fill="none" stroke="blue" stroke-dasharray="1,5" d="M511.96,-268.58C427.17,-246.28 255.21,-198.74 313.01,-194.33"/>
<polygon fill="blue" stroke="blue" points="313.36,-197.82 323.24,-194 313.14,-190.82 313.36,-197.82"/>
<text text-anchor="middle" x="457.24" y="-233.8" font-family="Times,serif" font-size="14.00">[[1,2],[3,4]]</text>
</g>
<!-- r7&#45;&gt;r7 -->
<g id="edge18" class="edge">
<title>r7:e&#45;&gt;r7:ne</title>
<path fill="none" stroke="black" d="M529.24,-107C553.34,-98 601.34,-98 601.34,-116 601.34,-132.91 523.61,-133.93 470.23,-126.53"/>
<polygon fill="black" stroke="black" points="470.66,-123.06 460.24,-125 469.6,-129.98 470.66,-123.06"/>
<text text-anchor="middle" x="477.74" y="-128.8" font-family="Times,serif" font-size="14.00">partial</text>
<text text-anchor="middle" x="548.74" y="-110.8" font-family="Times,serif" font-size="14.00">/partial</text>
</g>
<!-- r7&#45;&gt;r7 -->
<g id="edge19" class="edge">
<title>r7:s&#45;&gt;r7:nw</title>
<path fill="none" stroke="black" d="M442.24,-89C389.21,-80 283.15,-80 283.15,-107 283.15,-132.37 360.87,-133.9 414.25,-126.53"/>
<polygon fill="black" stroke="black" points="414.89,-129.98 424.24,-125 413.83,-123.06 414.89,-129.98"/>
<text text-anchor="middle" x="454.74" y="-128.8" font-family="Times,serif" font-size="14.00">chunk_size</text>
<text text-anchor="middle" x="409.74" y="-77.8" font-family="Times,serif" font-size="14.00">/chunk_size</text>
</g>
<!-- r8 -->
<g id="node15" class="node">
<title>r8</title>
<g id="a_node15"><a xlink:href="file:///Users/andrew/workspace/flow/flowruntime/stdio/stdout.toml" xlink:title="print (#8)">
<ellipse fill="coral" stroke="black" cx="442.24" cy="-34" rx="44.39" ry="18"/>
<text text-anchor="middle" x="442.24" y="-30.3" font-family="Times,serif" font-size="14.00">print (#8)</text>
</a>
</g>
</g>
<!-- r7&#45;&gt;r8 -->
<g id="edge20" class="edge">
<title>r7:s&#45;&gt;r8:n</title>
<path fill="none" stroke="black" d="M442.24,-89C442.24,-76.54 442.24,-71.16 442.24,-62.13"/>
<polygon fill="black" stroke="black" points="445.74,-62 442.24,-52 438.74,-62 445.74,-62"/>
<text text-anchor="middle" x="460.74" y="-77.8" font-family="Times,serif" font-size="14.00">/chunk</text>
</g>
<!-- initializerr2_0 -->
<!-- initializerr2_0&#45;&gt;r2 -->
<g id="edge7" class="edge">
<title>initializerr2_0&#45;&gt;r2:w</title>
<path fill="none" stroke="blue" stroke-dasharray="1,5" d="M87.12,-423.42C68.71,-402.33 41.28,-367.41 51.44,-357.01"/>
<polygon fill="blue" stroke="blue" points="52.71,-360.28 61.24,-354 50.66,-353.59 52.71,-360.28"/>
<text text-anchor="middle" x="105.24" y="-393.8" font-family="Times,serif" font-size="14.00">[[1,2],[3,4]]</text>
</g>
<!-- r5&#45;&gt;r6 -->
<g id="edge12" class="edge">
<title>r5:e&#45;&gt;r6:n</title>
<path fill="none" stroke="black" d="M351.24,-281C359.26,-281 355.32,-269.2 350.24,-263 337.59,-247.56 193.74,-237.26 160.2,-219.5"/>
<polygon fill="black" stroke="black" points="162.61,-216.95 153.24,-212 157.48,-221.71 162.61,-216.95"/>
<text text-anchor="middle" x="135.74" y="-200.8" font-family="Times,serif" font-size="14.00">values</text>
</g>
<!-- r3 -->
<g id="node11" class="node">
<title>r3</title>
<g id="a_node11"><a xlink:href="file:///Users/andrew/workspace/flow/flowstdlib/data/transpose/transpose.toml" xlink:title="transpose (#3)">
<ellipse fill="coral" stroke="black" cx="296.24" cy="-441" rx="61.19" ry="18"/>
<text text-anchor="middle" x="296.24" y="-437.3" font-family="Times,serif" font-size="14.00">transpose (#3)</text>
</a>
</g>
</g>
<!-- r3&#45;&gt;r4 -->
<g id="edge10" class="edge">
<title>r3:e&#45;&gt;r4:n</title>
<path fill="none" stroke="black" d="M358.24,-441C385.56,-441 363.42,-410.6 358.26,-382.28"/>
<polygon fill="black" stroke="black" points="361.71,-381.61 357.24,-372 354.74,-382.3 361.71,-381.61"/>
<text text-anchor="middle" x="342.24" y="-375.8" font-family="Times,serif" font-size="14.00">value</text>
</g>
<!-- initializerr3_0 -->
<!-- initializerr3_0&#45;&gt;r3 -->
<g id="edge9" class="edge">
<title>initializerr3_0&#45;&gt;r3:w</title>
<path fill="none" stroke="blue" stroke-dasharray="1,5" d="M228.38,-510.01C220.54,-488.67 210.49,-453.63 224.55,-443.7"/>
<polygon fill="blue" stroke="blue" points="225.55,-447.05 234.24,-441 223.67,-440.31 225.55,-447.05"/>
<text text-anchor="middle" x="255.24" y="-480.8" font-family="Times,serif" font-size="14.00">[[5,6],[7,8]]</text>
</g>
<!-- initializerr6_1 -->
<!-- initializerr6_1&#45;&gt;r6 -->
<g id="edge13" class="edge">
<title>initializerr6_1&#45;&gt;r6:n</title>
<path fill="none" stroke="blue" stroke-dasharray="1,5" d="M123.58,-264.02C135.26,-253.63 148.14,-238.9 152.05,-222.11"/>
<polygon fill="blue" stroke="blue" points="155.55,-222.34 153.24,-212 148.6,-221.52 155.55,-222.34"/>
<text text-anchor="middle" x="153.24" y="-233.8" font-family="Times,serif" font-size="14.00">[]</text>
</g>
<!-- initializerr7_1 -->
<!-- initializerr7_1&#45;&gt;r7 -->
<g id="edge17" class="edge">
<title>initializerr7_1&#45;&gt;r7:n</title>
<path fill="none" stroke="blue" stroke-dasharray="1,5" d="M506.9,-183.54C479.46,-175.45 449.61,-160.83 443.41,-135.02"/>
<polygon fill="blue" stroke="blue" points="446.88,-134.53 442.24,-125 439.92,-135.34 446.88,-134.53"/>
<text text-anchor="middle" x="461.24" y="-146.8" font-family="Times,serif" font-size="14.00">[]</text>
</g>
</g>
</svg>
