<?xml version="1.0" encoding="UTF-8" standalone="no"?>
<!DOCTYPE svg PUBLIC "-//W3C//DTD SVG 1.1//EN"
 "http://www.w3.org/Graphics/SVG/1.1/DTD/svg11.dtd">
<!-- Generated by graphviz version 2.44.1 (20200629.0846)
 -->
<!-- Title: matrix_mult Pages: 1 -->
<svg width="1242pt" height="731pt"
 viewBox="0.00 0.00 1242.00 731.00" xmlns="http://www.w3.org/2000/svg" xmlns:xlink="http://www.w3.org/1999/xlink">
<g id="graph0" class="graph" transform="scale(1 1) rotate(0) translate(4 727)">
<title>matrix_mult</title>
<polygon fill="white" stroke="transparent" points="-4,4 -4,-727 1238,-727 1238,4 -4,4"/>
<text text-anchor="middle" x="617" y="-707.8" font-family="Times,serif" font-size="14.00">/matrix_mult</text>
<g id="clust1" class="cluster">
<title>cluster_select_0</title>
<polygon fill="none" stroke="black" points="8,-328 8,-584 558,-584 558,-328 8,-328"/>
<text text-anchor="middle" x="283" y="-568.8" font-family="Times,serif" font-size="14.00">/matrix_mult/select_0</text>
</g>
<g id="clust2" class="cluster">
<title>cluster_select_1</title>
<polygon fill="none" stroke="black" points="704,-422 704,-692 1226,-692 1226,-422 704,-422"/>
<text text-anchor="middle" x="965" y="-676.8" font-family="Times,serif" font-size="14.00">/matrix_mult/select_1</text>
</g>
<g id="clust3" class="cluster">
<title>cluster_multiply</title>
<polygon fill="none" stroke="black" points="566,-8 566,-403 955,-403 955,-8 566,-8"/>
<text text-anchor="middle" x="760.5" y="-387.8" font-family="Times,serif" font-size="14.00">/matrix_mult/multiply</text>
</g>
<!-- r10 -->
<g id="node1" class="node">
<title>r10</title>
<g id="a_node1"><a xlink:href="file:///Users/andrew/workspace/flow/flowr/src/lib/flowruntime/stdio/readline.html" xlink:title="readline (#10)">
<ellipse fill="coral" stroke="black" cx="579" cy="-643" rx="60.39" ry="18"/>
<text text-anchor="middle" x="579" y="-639.3" font-family="Times,serif" font-size="14.00">readline (#10)</text>
</a>
</g>
</g>
<!-- r11 -->
<g id="node2" class="node">
<title>r11</title>
<g id="a_node2"><a xlink:href="file:///Users/andrew/workspace/flow/flowstdlib/control/index/index.html" xlink:title="index (#11)">
<ellipse fill="coral" stroke="black" cx="358" cy="-448" rx="51.99" ry="18"/>
<text text-anchor="middle" x="358" y="-444.3" font-family="Times,serif" font-size="14.00">index (#11)</text>
</a>
</g>
</g>
<!-- r10&#45;&gt;r11 -->
<g id="edge1" class="edge">
<title>r10:e&#45;&gt;r11:n</title>
<path fill="none" stroke="black" d="M641,-643C660.13,-643 702.44,-609.12 586,-517 535.87,-477.34 508.43,-497.74 446,-484 430.01,-480.48 381.04,-484.05 363.95,-474.43"/>
<polygon fill="black" stroke="black" points="366.63,-472.15 358,-466 360.91,-476.19 366.63,-472.15"/>
<text text-anchor="middle" x="343" y="-469.8" font-family="Times,serif" font-size="14.00">value</text>
<text text-anchor="middle" x="654.5" y="-646.8" font-family="Times,serif" font-size="14.00">/json</text>
</g>
<!-- r1 -->
<g id="node3" class="node">
<title>r1</title>
<g id="a_node3"><a xlink:href="file:///Users/andrew/workspace/flow/flowstdlib/control/index/index.html" xlink:title="index (#1)">
<ellipse fill="coral" stroke="black" cx="891" cy="-535" rx="47.39" ry="18"/>
<text text-anchor="middle" x="891" y="-531.3" font-family="Times,serif" font-size="14.00">index (#1)</text>
</a>
</g>
</g>
<!-- r10&#45;&gt;r1 -->
<g id="edge2" class="edge">
<title>r10:e&#45;&gt;r1:n</title>
<path fill="none" stroke="black" d="M641,-643C662.54,-643 665.82,-632.53 686,-625 706.12,-617.5 853.01,-586.16 884.9,-562.37"/>
<polygon fill="black" stroke="black" points="887.94,-564.14 891,-554 882.28,-560.02 887.94,-564.14"/>
<text text-anchor="middle" x="876" y="-557.8" font-family="Times,serif" font-size="14.00">value</text>
<text text-anchor="middle" x="654.5" y="-631.8" font-family="Times,serif" font-size="14.00">/json</text>
</g>
<!-- r11&#45;&gt;r11 -->
<g id="edge6" class="edge">
<title>r11:sw&#45;&gt;r11:ne</title>
<path fill="none" stroke="black" d="M341,-431C234,-443 234,-484 358,-484 478,-484 481.87,-472.76 385.01,-465.69"/>
<polygon fill="black" stroke="black" points="385.22,-462.2 375,-465 384.73,-469.18 385.22,-462.2"/>
<text text-anchor="middle" x="416.5" y="-468.8" font-family="Times,serif" font-size="14.00">previous_value</text>
<text text-anchor="middle" x="324" y="-419.8" font-family="Times,serif" font-size="14.00">/value</text>
</g>
<!-- r11&#45;&gt;r11 -->
<g id="edge7" class="edge">
<title>r11:s&#45;&gt;r11:nw</title>
<path fill="none" stroke="black" d="M358,-430C316.67,-421 234,-421 234,-447.5 234,-471.98 290.05,-473.85 331.17,-466.89"/>
<polygon fill="black" stroke="black" points="331.84,-470.33 341,-465 330.52,-463.45 331.84,-470.33"/>
<text text-anchor="middle" x="299" y="-468.8" font-family="Times,serif" font-size="14.00">previous_index</text>
<text text-anchor="middle" x="375" y="-418.8" font-family="Times,serif" font-size="14.00">/index</text>
</g>
<!-- r7 -->
<g id="node7" class="node">
<title>r7</title>
<g id="a_node7"><a xlink:href="file:///Users/andrew/workspace/flow/flowstdlib/data/info/info.html" xlink:title="a_info (#7)">
<ellipse fill="coral" stroke="black" cx="266" cy="-354" rx="50.09" ry="18"/>
<text text-anchor="middle" x="266" y="-350.3" font-family="Times,serif" font-size="14.00">a_info (#7)</text>
</a>
</g>
</g>
<!-- r11&#45;&gt;r7 -->
<g id="edge8" class="edge">
<title>r11:e&#45;&gt;r7:n</title>
<path fill="none" stroke="black" d="M411,-448C419.01,-448 414.69,-436.5 410,-430 371.95,-377.22 277.16,-434.8 266.9,-383.11"/>
<polygon fill="black" stroke="black" points="270.38,-382.65 266,-373 263.4,-383.27 270.38,-382.65"/>
<text text-anchor="middle" x="453" y="-451.8" font-family="Times,serif" font-size="14.00">/selected_value</text>
</g>
<!-- r9 -->
<g id="node8" class="node">
<title>r9</title>
<g id="a_node8"><a xlink:href="file:///Users/andrew/workspace/flow/flowstdlib/data/duplicate_rows/duplicate_rows.html" xlink:title="duplicate_rows (#9)">
<ellipse fill="coral" stroke="black" cx="469" cy="-354" rx="81.49" ry="18"/>
<text text-anchor="middle" x="469" y="-350.3" font-family="Times,serif" font-size="14.00">duplicate_rows (#9)</text>
</a>
</g>
</g>
<!-- r11&#45;&gt;r9 -->
<g id="edge9" class="edge">
<title>r11:e&#45;&gt;r9:n</title>
<path fill="none" stroke="black" d="M411,-448C449.68,-448 466.22,-420.31 468.67,-383.17"/>
<polygon fill="black" stroke="black" points="472.18,-383.11 469,-373 465.18,-382.88 472.18,-383.11"/>
<text text-anchor="middle" x="453" y="-436.8" font-family="Times,serif" font-size="14.00">/selected_value</text>
</g>
<!-- r1&#45;&gt;r1 -->
<g id="edge13" class="edge">
<title>r1:sw&#45;&gt;r1:ne</title>
<path fill="none" stroke="black" d="M874,-518C771.55,-531 771.55,-574 891,-574 1006.36,-574 1010.31,-560.94 918.14,-552.84"/>
<polygon fill="black" stroke="black" points="918.25,-549.34 908,-552 917.68,-556.31 918.25,-549.34"/>
<text text-anchor="middle" x="949.5" y="-555.8" font-family="Times,serif" font-size="14.00">previous_value</text>
<text text-anchor="middle" x="857" y="-506.8" font-family="Times,serif" font-size="14.00">/value</text>
</g>
<!-- r1&#45;&gt;r1 -->
<g id="edge14" class="edge">
<title>r1:s&#45;&gt;r1:nw</title>
<path fill="none" stroke="black" d="M891,-517C851.18,-506.5 771.55,-506.5 771.55,-534.5 771.55,-560.26 824.56,-562.32 864.04,-554.31"/>
<polygon fill="black" stroke="black" points="865.05,-557.67 874,-552 863.47,-550.85 865.05,-557.67"/>
<text text-anchor="middle" x="832" y="-555.8" font-family="Times,serif" font-size="14.00">previous_index</text>
<text text-anchor="middle" x="908" y="-505.8" font-family="Times,serif" font-size="14.00">/index</text>
</g>
<!-- r2 -->
<g id="node12" class="node">
<title>r2</title>
<g id="a_node12"><a xlink:href="file:///Users/andrew/workspace/flow/flowstdlib/data/info/info.html" xlink:title="b_info (#2)">
<ellipse fill="coral" stroke="black" cx="957" cy="-448" rx="50.89" ry="18"/>
<text text-anchor="middle" x="957" y="-444.3" font-family="Times,serif" font-size="14.00">b_info (#2)</text>
</a>
</g>
</g>
<!-- r1&#45;&gt;r2 -->
<g id="edge15" class="edge">
<title>r1:e&#45;&gt;r2:n</title>
<path fill="none" stroke="black" d="M940,-535C968.25,-535 959.56,-505.06 957.42,-476.14"/>
<polygon fill="black" stroke="black" points="960.91,-475.85 957,-466 953.91,-476.13 960.91,-475.85"/>
<text text-anchor="middle" x="982" y="-538.8" font-family="Times,serif" font-size="14.00">/selected_value</text>
</g>
<!-- r4 -->
<g id="node13" class="node">
<title>r4</title>
<g id="a_node13"><a xlink:href="file:///Users/andrew/workspace/flow/flowstdlib/data/transpose/transpose.html" xlink:title="transpose (#4)">
<ellipse fill="coral" stroke="black" cx="773" cy="-448" rx="61.19" ry="18"/>
<text text-anchor="middle" x="773" y="-444.3" font-family="Times,serif" font-size="14.00">transpose (#4)</text>
</a>
</g>
</g>
<!-- r1&#45;&gt;r4 -->
<g id="edge16" class="edge">
<title>r1:e&#45;&gt;r4:n</title>
<path fill="none" stroke="black" d="M940,-535C948.01,-535 943.94,-523.31 939,-517 893.75,-459.19 784.4,-535.04 773.83,-476.17"/>
<polygon fill="black" stroke="black" points="777.3,-475.68 773,-466 770.32,-476.25 777.3,-475.68"/>
<text text-anchor="middle" x="982" y="-523.8" font-family="Times,serif" font-size="14.00">/selected_value</text>
</g>
<!-- initializerr11_1 -->
<!-- initializerr11_1&#45;&gt;r11 -->
<g id="edge3" class="edge">
<title>initializerr11_1&#45;&gt;r11:nw</title>
<path fill="none" stroke="blue" stroke-dasharray="1,5" d="M296.13,-517.14C305.78,-505.08 319.6,-488.41 333.65,-473.56"/>
<polygon fill="blue" stroke="blue" points="336.54,-475.61 341,-466 331.52,-470.73 336.54,-475.61"/>
<text text-anchor="middle" x="329" y="-487.8" font-family="Times,serif" font-size="14.00">42</text>
</g>
<!-- initializerr11_2 -->
<!-- initializerr11_2&#45;&gt;r11 -->
<g id="edge4" class="edge">
<title>initializerr11_2&#45;&gt;r11:ne</title>
<path fill="none" stroke="blue" stroke-dasharray="1,5" d="M452.89,-519.22C431.85,-508.52 404.29,-492.54 382.46,-473.04"/>
<polygon fill="blue" stroke="blue" points="384.68,-470.32 375,-466 379.87,-475.41 384.68,-470.32"/>
<text text-anchor="middle" x="422" y="-487.8" font-family="Times,serif" font-size="14.00">&#45;1</text>
</g>
<!-- initializerr11_3 -->
<!-- initializerr11_3&#45;&gt;r11 -->
<g id="edge5" class="edge">
<title>initializerr11_3&#45;&gt;r11:n</title>
<path fill="none" stroke="blue" d="M127.99,-522.54C194.98,-506.19 313.67,-477.2 348.28,-468.52"/>
<polygon fill="blue" stroke="blue" points="349.2,-471.9 358,-466 347.44,-465.12 349.2,-471.9"/>
<text text-anchor="middle" x="286.5" y="-487.8" font-family="Times,serif" font-size="14.00">0</text>
</g>
<!-- r3 -->
<g id="node16" class="node">
<title>r3</title>
<g id="a_node16"><a xlink:href="file:///Users/andrew/workspace/flow/flowstdlib/data/accumulate/accumulate.html" xlink:title="compose_matrix (#3)">
<ellipse fill="coral" stroke="black" cx="661" cy="-107" rx="87.18" ry="18"/>
<text text-anchor="middle" x="661" y="-103.3" font-family="Times,serif" font-size="14.00">compose_matrix (#3)</text>
</a>
</g>
</g>
<!-- r7&#45;&gt;r3 -->
<g id="edge20" class="edge">
<title>r7:e&#45;&gt;r3:nw</title>
<path fill="none" stroke="black" d="M317,-354C320.94,-354 534.67,-178.11 538,-176 578.73,-150.17 602.77,-160 635.43,-132.03"/>
<polygon fill="black" stroke="black" points="638.05,-134.37 643,-125 633.29,-129.24 638.05,-134.37"/>
<text text-anchor="middle" x="612.5" y="-128.8" font-family="Times,serif" font-size="14.00">chunk_size</text>
<text text-anchor="middle" x="332.5" y="-357.8" font-family="Times,serif" font-size="14.00">/rows</text>
</g>
<!-- r5 -->
<g id="node17" class="node">
<title>r5</title>
<g id="a_node17"><a xlink:href="file:///Users/andrew/workspace/flow/flowstdlib/data/multiply_row/multiply_row.html" xlink:title="multiply (#5)">
<ellipse fill="coral" stroke="black" cx="824" cy="-281" rx="57.69" ry="18"/>
<text text-anchor="middle" x="824" y="-277.3" font-family="Times,serif" font-size="14.00">multiply (#5)</text>
</a>
</g>
</g>
<!-- r9&#45;&gt;r5 -->
<g id="edge21" class="edge">
<title>r9:e&#45;&gt;r5:n</title>
<path fill="none" stroke="black" d="M552,-354C554.9,-354 551.98,-330.08 554,-328 593.39,-287.4 796.23,-350.47 821.43,-308.79"/>
<polygon fill="black" stroke="black" points="824.85,-309.56 824,-299 818.08,-307.78 824.85,-309.56"/>
<text text-anchor="middle" x="820.5" y="-302.8" font-family="Times,serif" font-size="14.00">a</text>
</g>
<!-- initializerr1_1 -->
<!-- initializerr1_1&#45;&gt;r1 -->
<g id="edge10" class="edge">
<title>initializerr1_1&#45;&gt;r1:nw</title>
<path fill="none" stroke="blue" stroke-dasharray="1,5" d="M941.2,-626.3C915.69,-608.76 878.06,-580.54 872.33,-563.09"/>
<polygon fill="blue" stroke="blue" points="875.82,-563.44 874,-553 868.92,-562.3 875.82,-563.44"/>
<text text-anchor="middle" x="918" y="-595.8" font-family="Times,serif" font-size="14.00">42</text>
</g>
<!-- initializerr1_2 -->
<!-- initializerr1_2&#45;&gt;r1 -->
<g id="edge11" class="edge">
<title>initializerr1_2&#45;&gt;r1:ne</title>
<path fill="none" stroke="blue" stroke-dasharray="1,5" d="M1113,-630.95C1054.04,-615.72 953.71,-587.04 915.85,-559.58"/>
<polygon fill="blue" stroke="blue" points="917.91,-556.74 908,-553 913.42,-562.1 917.91,-556.74"/>
<text text-anchor="middle" x="1033" y="-595.8" font-family="Times,serif" font-size="14.00">&#45;1</text>
</g>
<!-- initializerr1_3 -->
<!-- initializerr1_3&#45;&gt;r1 -->
<g id="edge12" class="edge">
<title>initializerr1_3&#45;&gt;r1:n</title>
<path fill="none" stroke="blue" d="M801.42,-627.26C831.84,-611.15 876.5,-584.82 888.14,-563.62"/>
<polygon fill="blue" stroke="blue" points="891.51,-564.58 891,-554 884.8,-562.59 891.51,-564.58"/>
<text text-anchor="middle" x="862.5" y="-595.8" font-family="Times,serif" font-size="14.00">1</text>
</g>
<!-- r2&#45;&gt;r9 -->
<g id="edge18" class="edge">
<title>r2:se&#45;&gt;r9:ne</title>
<path fill="none" stroke="black" d="M974,-430C1006.78,-397.22 916.25,-425.17 870,-422 787.74,-416.36 565.94,-432.34 494.9,-379.76"/>
<polygon fill="black" stroke="black" points="496.87,-376.84 487,-373 492.32,-382.16 496.87,-376.84"/>
<text text-anchor="middle" x="471" y="-376.8" font-family="Times,serif" font-size="14.00">factor</text>
<text text-anchor="middle" x="948.5" y="-418.8" font-family="Times,serif" font-size="14.00">/columns</text>
</g>
<!-- r6 -->
<g id="node14" class="node">
<title>r6</title>
<g id="a_node14"><a xlink:href="file:///Users/andrew/workspace/flow/flowstdlib/data/duplicate/duplicate.html" xlink:title="duplicate (#6)">
<ellipse fill="coral" stroke="black" cx="822" cy="-354" rx="59.59" ry="18"/>
<text text-anchor="middle" x="822" y="-350.3" font-family="Times,serif" font-size="14.00">duplicate (#6)</text>
</a>
</g>
</g>
<!-- r2&#45;&gt;r6 -->
<g id="edge17" class="edge">
<title>r2:se&#45;&gt;r6:ne</title>
<path fill="none" stroke="black" d="M974,-430C984.06,-419.94 881.76,-392.37 849.07,-378.07"/>
<polygon fill="black" stroke="black" points="850.44,-374.83 840,-373 847.02,-380.94 850.44,-374.83"/>
<text text-anchor="middle" x="856" y="-376.8" font-family="Times,serif" font-size="14.00">factor</text>
<text text-anchor="middle" x="999.5" y="-418.8" font-family="Times,serif" font-size="14.00">/columns</text>
</g>
<!-- r8 -->
<g id="node15" class="node">
<title>r8</title>
<g id="a_node15"><a xlink:href="file:///Users/andrew/workspace/flow/flowstdlib/data/accumulate/accumulate.html" xlink:title="compose_rows (#8)">
<ellipse fill="coral" stroke="black" cx="655" cy="-194" rx="81.49" ry="18"/>
<text text-anchor="middle" x="655" y="-190.3" font-family="Times,serif" font-size="14.00">compose_rows (#8)</text>
</a>
</g>
</g>
<!-- r2&#45;&gt;r8 -->
<g id="edge19" class="edge">
<title>r2:se&#45;&gt;r8:nw</title>
<path fill="none" stroke="black" d="M974,-430C1029.36,-374.64 976.16,-315.4 918,-263 867.93,-217.89 836.34,-241.86 770,-230 746.6,-225.82 662.65,-230.26 640.18,-221.57"/>
<polygon fill="black" stroke="black" points="643.47,-220.39 637,-212 636.83,-222.59 643.47,-220.39"/>
<text text-anchor="middle" x="606.5" y="-215.8" font-family="Times,serif" font-size="14.00">chunk_size</text>
<text text-anchor="middle" x="999.5" y="-433.8" font-family="Times,serif" font-size="14.00">/columns</text>
</g>
<!-- r4&#45;&gt;r6 -->
<g id="edge22" class="edge">
<title>r4:e&#45;&gt;r6:n</title>
<path fill="none" stroke="black" d="M835,-448C843.01,-448 835.05,-437.94 834,-430 831.11,-408.14 824.44,-400.95 822.52,-383.31"/>
<polygon fill="black" stroke="black" points="826,-382.81 822,-373 819.01,-383.16 826,-382.81"/>
<text text-anchor="middle" x="807" y="-376.8" font-family="Times,serif" font-size="14.00">value</text>
</g>
<!-- r6&#45;&gt;r5 -->
<g id="edge23" class="edge">
<title>r6:e&#45;&gt;r5:ne</title>
<path fill="none" stroke="black" d="M883,-354C891.01,-354 885.46,-343.23 882,-336 873.07,-317.32 862.38,-316.18 848.83,-305.85"/>
<polygon fill="black" stroke="black" points="850.83,-302.95 841,-299 846.22,-308.22 850.83,-302.95"/>
<text text-anchor="middle" x="837.5" y="-302.8" font-family="Times,serif" font-size="14.00">b</text>
</g>
<!-- r8&#45;&gt;r8 -->
<g id="edge26" class="edge">
<title>r8:e&#45;&gt;r8:ne</title>
<path fill="none" stroke="black" d="M737,-194C760.24,-183.5 808.24,-183.5 808.24,-203 808.24,-221.28 734.27,-222.42 682.94,-213.84"/>
<polygon fill="black" stroke="black" points="683.47,-210.38 673,-212 682.19,-217.27 683.47,-210.38"/>
<text text-anchor="middle" x="655.5" y="-215.8" font-family="Times,serif" font-size="14.00">partial</text>
<text text-anchor="middle" x="756.5" y="-197.8" font-family="Times,serif" font-size="14.00">/partial</text>
</g>
<!-- r8&#45;&gt;r8 -->
<g id="edge27" class="edge">
<title>r8:s&#45;&gt;r8:nw</title>
<path fill="none" stroke="black" d="M655,-176C603.92,-165.5 501.76,-165.5 501.76,-194 501.76,-220.72 575.73,-222.39 627.06,-213.84"/>
<polygon fill="black" stroke="black" points="627.81,-217.26 637,-212 626.53,-210.38 627.81,-217.26"/>
<text text-anchor="middle" x="667.5" y="-215.8" font-family="Times,serif" font-size="14.00">chunk_size</text>
<text text-anchor="middle" x="622.5" y="-164.8" font-family="Times,serif" font-size="14.00">/chunk_size</text>
</g>
<!-- r8&#45;&gt;r3 -->
<g id="edge28" class="edge">
<title>r8:s&#45;&gt;r3:n</title>
<path fill="none" stroke="black" d="M655,-176C655,-157.1 659.11,-150.18 660.53,-135.4"/>
<polygon fill="black" stroke="black" points="664.04,-135.15 661,-125 657.05,-134.83 664.04,-135.15"/>
<text text-anchor="middle" x="678.5" y="-128.8" font-family="Times,serif" font-size="14.00">values</text>
<text text-anchor="middle" x="673.5" y="-164.8" font-family="Times,serif" font-size="14.00">/chunk</text>
</g>
<!-- r3&#45;&gt;r3 -->
<g id="edge30" class="edge">
<title>r3:e&#45;&gt;r3:ne</title>
<path fill="none" stroke="black" d="M748,-107C772.09,-98 820.09,-98 820.09,-116 820.09,-132.91 742.37,-133.93 688.99,-126.53"/>
<polygon fill="black" stroke="black" points="689.42,-123.06 679,-125 688.35,-129.98 689.42,-123.06"/>
<text text-anchor="middle" x="696.5" y="-128.8" font-family="Times,serif" font-size="14.00">partial</text>
<text text-anchor="middle" x="767.5" y="-110.8" font-family="Times,serif" font-size="14.00">/partial</text>
</g>
<!-- r3&#45;&gt;r3 -->
<g id="edge31" class="edge">
<title>r3:s&#45;&gt;r3:nw</title>
<path fill="none" stroke="black" d="M661,-89C607.97,-80 501.91,-80 501.91,-107 501.91,-132.37 579.63,-133.9 633.01,-126.53"/>
<polygon fill="black" stroke="black" points="633.65,-129.98 643,-125 632.59,-123.06 633.65,-129.98"/>
<text text-anchor="middle" x="673.5" y="-128.8" font-family="Times,serif" font-size="14.00">chunk_size</text>
<text text-anchor="middle" x="628.5" y="-77.8" font-family="Times,serif" font-size="14.00">/chunk_size</text>
</g>
<!-- r0 -->
<g id="node20" class="node">
<title>r0</title>
<g id="a_node20"><a xlink:href="file:///Users/andrew/workspace/flow/flowr/src/lib/flowruntime/stdio/stdout.html" xlink:title="print (#0)">
<ellipse fill="coral" stroke="black" cx="661" cy="-34" rx="44.39" ry="18"/>
<text text-anchor="middle" x="661" y="-30.3" font-family="Times,serif" font-size="14.00">print (#0)</text>
</a>
</g>
</g>
<!-- r3&#45;&gt;r0 -->
<g id="edge32" class="edge">
<title>r3:s&#45;&gt;r0:n</title>
<path fill="none" stroke="black" d="M661,-89C661,-76.54 661,-71.16 661,-62.13"/>
<polygon fill="black" stroke="black" points="664.5,-62 661,-52 657.5,-62 664.5,-62"/>
<text text-anchor="middle" x="679.5" y="-77.8" font-family="Times,serif" font-size="14.00">/chunk</text>
</g>
<!-- r5&#45;&gt;r8 -->
<g id="edge24" class="edge">
<title>r5:e&#45;&gt;r8:n</title>
<path fill="none" stroke="black" d="M883,-281C891.01,-281 887.18,-269.11 882,-263 867.12,-245.43 698.69,-239.21 662.02,-219.79"/>
<polygon fill="black" stroke="black" points="664.29,-217.09 655,-212 659.09,-221.77 664.29,-217.09"/>
<text text-anchor="middle" x="637.5" y="-200.8" font-family="Times,serif" font-size="14.00">values</text>
</g>
<!-- initializerr8_1 -->
<!-- initializerr8_1&#45;&gt;r8 -->
<g id="edge25" class="edge">
<title>initializerr8_1&#45;&gt;r8:n</title>
<path fill="none" stroke="blue" stroke-dasharray="1,5" d="M642.3,-263.12C647.07,-252.15 652.47,-237.17 654.33,-222.26"/>
<polygon fill="blue" stroke="blue" points="657.84,-222.21 655,-212 650.86,-221.75 657.84,-222.21"/>
<text text-anchor="middle" x="657" y="-233.8" font-family="Times,serif" font-size="14.00">[]</text>
</g>
<!-- initializerr3_1 -->
<!-- initializerr3_1&#45;&gt;r3 -->
<g id="edge29" class="edge">
<title>initializerr3_1&#45;&gt;r3:n</title>
<path fill="none" stroke="blue" stroke-dasharray="1,5" d="M838.24,-183.28C781.14,-171.31 691.29,-150.43 667.14,-133.14"/>
<polygon fill="blue" stroke="blue" points="669.82,-130.88 661,-125 664.23,-135.09 669.82,-130.88"/>
<text text-anchor="middle" x="732" y="-146.8" font-family="Times,serif" font-size="14.00">[]</text>
</g>
</g>
</svg>
