<?xml version="1.0" encoding="UTF-8" standalone="no"?>
<!DOCTYPE svg PUBLIC "-//W3C//DTD SVG 1.1//EN"
 "http://www.w3.org/Graphics/SVG/1.1/DTD/svg11.dtd">
<!-- Generated by graphviz version 2.42.4 (0)
 -->
<!-- Title: matrix_mult Pages: 1 -->
<svg width="734pt" height="616pt"
 viewBox="0.00 0.00 734.39 616.00" xmlns="http://www.w3.org/2000/svg" xmlns:xlink="http://www.w3.org/1999/xlink">
<g id="graph0" class="graph" transform="scale(1 1) rotate(0) translate(4 612)">
<title>matrix_mult</title>
<polygon fill="white" stroke="transparent" points="-4,4 -4,-612 730.39,-612 730.39,4 -4,4"/>
<text text-anchor="middle" x="363.2" y="-592.8" font-family="Times,serif" font-size="14.00">/matrix_mult</text>
<g id="clust1" class="cluster">
<title>cluster_multiply</title>
<polygon fill="none" stroke="black" points="38.39,-8 38.39,-577 718.39,-577 718.39,-8 38.39,-8"/>
<text text-anchor="middle" x="378.39" y="-561.8" font-family="Times,serif" font-size="14.00">/matrix_mult/multiply</text>
</g>
<!-- r0 -->
<g id="node1" class="node">
<title>r0</title>
<g id="a_node1"><a xlink:href="file:///home/andrew/workspace/flow/flowstdlib/data/info/info.html" xlink:title="b_info (#0)">
<ellipse fill="coral" stroke="black" cx="562.39" cy="-441" rx="61.99" ry="18"/>
<text text-anchor="middle" x="562.39" y="-437.3" font-family="Times,serif" font-size="14.00">b_info (#0)</text>
</a>
</g>
</g>
<!-- r4 -->
<g id="node3" class="node">
<title>r4</title>
<g id="a_node3"><a xlink:href="file:///home/andrew/workspace/flow/flowstdlib/data/duplicate/duplicate.html" xlink:title="duplicate (#4)">
<ellipse fill="coral" stroke="black" cx="428.39" cy="-354" rx="77.19" ry="18"/>
<text text-anchor="middle" x="428.39" y="-350.3" font-family="Times,serif" font-size="14.00">duplicate (#4)</text>
</a>
</g>
</g>
<!-- r0&#45;&gt;r4 -->
<g id="edge2" class="edge">
<title>r0:se&#45;&gt;r4:ne</title>
<path fill="none" stroke="black" d="M579.39,-423C592.41,-409.98 520.64,-396.45 503.39,-390 482.2,-382.08 469.39,-388.22 454.45,-378.61"/>
<polygon fill="black" stroke="black" points="456.34,-375.64 446.39,-372 451.9,-381.05 456.34,-375.64"/>
<text text-anchor="middle" x="424.89" y="-375.8" font-family="Times,serif" font-size="14.00">factor</text>
<text text-anchor="middle" x="547.39" y="-411.8" font-family="Times,serif" font-size="14.00">/columns</text>
</g>
<!-- r2 -->
<g id="node4" class="node">
<title>r2</title>
<g id="a_node4"><a xlink:href="file:///home/andrew/workspace/flow/flowstdlib/data/duplicate_rows/duplicate_rows.html" xlink:title="duplicate_rows (#2)">
<ellipse fill="coral" stroke="black" cx="175.39" cy="-354" rx="103.98" ry="18"/>
<text text-anchor="middle" x="175.39" y="-350.3" font-family="Times,serif" font-size="14.00">duplicate_rows (#2)</text>
</a>
</g>
</g>
<!-- r0&#45;&gt;r2 -->
<g id="edge3" class="edge">
<title>r0:se&#45;&gt;r2:ne</title>
<path fill="none" stroke="black" d="M579.39,-423C593.52,-408.87 265.16,-390.37 203,-375.58"/>
<polygon fill="black" stroke="black" points="203.98,-372.21 193.39,-372 201.54,-378.77 203.98,-372.21"/>
<text text-anchor="middle" x="171.89" y="-375.8" font-family="Times,serif" font-size="14.00">factor</text>
<text text-anchor="middle" x="611.39" y="-411.8" font-family="Times,serif" font-size="14.00">/columns</text>
</g>
<!-- r6 -->
<g id="node5" class="node">
<title>r6</title>
<g id="a_node5"><a xlink:href="file:///home/andrew/workspace/flow/flowstdlib/data/accumulate/accumulate.html" xlink:title="compose_rows (#6)">
<ellipse fill="coral" stroke="black" cx="173.39" cy="-194" rx="101.28" ry="18"/>
<text text-anchor="middle" x="173.39" y="-190.3" font-family="Times,serif" font-size="14.00">compose_rows (#6)</text>
</a>
</g>
</g>
<!-- r0&#45;&gt;r6 -->
<g id="edge4" class="edge">
<title>r0:se&#45;&gt;r6:nw</title>
<path fill="none" stroke="black" d="M579.39,-423C639.5,-362.89 457.78,-266.33 450.39,-263 423.98,-251.09 201.89,-239.08 160.61,-220.63"/>
<polygon fill="black" stroke="black" points="163.56,-218.74 155.39,-212 157.57,-222.37 163.56,-218.74"/>
<text text-anchor="middle" x="116.39" y="-215.8" font-family="Times,serif" font-size="14.00">chunk_size</text>
<text text-anchor="middle" x="611.39" y="-426.8" font-family="Times,serif" font-size="14.00">/columns</text>
</g>
<!-- initializerr0_0 -->
<!-- initializerr0_0&#45;&gt;r0 -->
<g id="edge1" class="edge">
<title>initializerr0_0&#45;&gt;r0:w</title>
<path fill="none" stroke="blue" stroke-dasharray="1,5" d="M493.53,-510.01C485.69,-488.67 475.64,-453.63 489.7,-443.7"/>
<polygon fill="blue" stroke="blue" points="490.7,-447.05 499.39,-441 488.82,-440.31 490.7,-447.05"/>
<text text-anchor="middle" x="528.39" y="-480.8" font-family="Times,serif" font-size="14.00">[[5,6],[7,8]]</text>
</g>
<!-- r5 -->
<g id="node10" class="node">
<title>r5</title>
<g id="a_node10"><a xlink:href="file:///home/andrew/workspace/flow/flowstdlib/data/multiply_row/multiply_row.html" xlink:title="multiply (#5)">
<ellipse fill="coral" stroke="black" cx="341.39" cy="-281" rx="72.59" ry="18"/>
<text text-anchor="middle" x="341.39" y="-277.3" font-family="Times,serif" font-size="14.00">multiply (#5)</text>
</a>
</g>
</g>
<!-- r4&#45;&gt;r5 -->
<g id="edge11" class="edge">
<title>r4:e&#45;&gt;r5:ne</title>
<path fill="none" stroke="black" d="M507.39,-354C515.4,-354 511.49,-342.18 506.39,-336 465.78,-286.77 412.95,-340.35 367,-305.65"/>
<polygon fill="black" stroke="black" points="369.22,-302.95 359.39,-299 364.62,-308.22 369.22,-302.95"/>
<text text-anchor="middle" x="354.39" y="-302.8" font-family="Times,serif" font-size="14.00">b</text>
</g>
<!-- r2&#45;&gt;r5 -->
<g id="edge8" class="edge">
<title>r2:e&#45;&gt;r5:n</title>
<path fill="none" stroke="black" d="M280.39,-354C295.79,-354 328.63,-327.84 338.52,-308.7"/>
<polygon fill="black" stroke="black" points="341.91,-309.58 341.39,-299 335.19,-307.59 341.91,-309.58"/>
<text text-anchor="middle" x="336.89" y="-302.8" font-family="Times,serif" font-size="14.00">a</text>
</g>
<!-- r6&#45;&gt;r6 -->
<g id="edge14" class="edge">
<title>r6:e&#45;&gt;r6:ne</title>
<path fill="none" stroke="black" d="M275.39,-194C298.78,-183.5 346.78,-183.5 346.78,-203 346.78,-221.4 259.93,-222.44 201.57,-213.68"/>
<polygon fill="black" stroke="black" points="201.83,-210.18 191.39,-212 200.69,-217.08 201.83,-210.18"/>
<text text-anchor="middle" x="215.39" y="-215.8" font-family="Times,serif" font-size="14.00">partial</text>
<text text-anchor="middle" x="301.39" y="-197.8" font-family="Times,serif" font-size="14.00">/partial</text>
</g>
<!-- r6&#45;&gt;r6 -->
<g id="edge15" class="edge">
<title>r6:s&#45;&gt;r6:nw</title>
<path fill="none" stroke="black" d="M173.39,-176C115.59,-165.5 0,-165.5 0,-194 0,-220.89 86.85,-222.41 145.21,-213.68"/>
<polygon fill="black" stroke="black" points="146.09,-217.08 155.39,-212 144.95,-210.18 146.09,-217.08"/>
<text text-anchor="middle" x="194.39" y="-215.8" font-family="Times,serif" font-size="14.00">chunk_size</text>
<text text-anchor="middle" x="132.39" y="-164.8" font-family="Times,serif" font-size="14.00">/chunk_size</text>
</g>
<!-- r7 -->
<g id="node8" class="node">
<title>r7</title>
<g id="a_node8"><a xlink:href="file:///home/andrew/workspace/flow/flowstdlib/data/accumulate/accumulate.html" xlink:title="compose_matrix (#7)">
<ellipse fill="coral" stroke="black" cx="506.39" cy="-107" rx="109.68" ry="18"/>
<text text-anchor="middle" x="506.39" y="-103.3" font-family="Times,serif" font-size="14.00">compose_matrix (#7)</text>
</a>
</g>
</g>
<!-- r6&#45;&gt;r7 -->
<g id="edge16" class="edge">
<title>r6:s&#45;&gt;r7:n</title>
<path fill="none" stroke="black" d="M173.39,-176C173.39,-141.64 454,-158.93 500.04,-133.04"/>
<polygon fill="black" stroke="black" points="502.94,-135.02 506.39,-125 497.44,-130.68 502.94,-135.02"/>
<text text-anchor="middle" x="483.39" y="-128.8" font-family="Times,serif" font-size="14.00">values</text>
<text text-anchor="middle" x="197.39" y="-164.8" font-family="Times,serif" font-size="14.00">/chunk</text>
</g>
<!-- r1 -->
<g id="node6" class="node">
<title>r1</title>
<g id="a_node6"><a xlink:href="file:///home/andrew/workspace/flow/flowstdlib/data/info/info.html" xlink:title="a_info (#1)">
<ellipse fill="coral" stroke="black" cx="426.39" cy="-194" rx="61.99" ry="18"/>
<text text-anchor="middle" x="426.39" y="-190.3" font-family="Times,serif" font-size="14.00">a_info (#1)</text>
</a>
</g>
</g>
<!-- r1&#45;&gt;r7 -->
<g id="edge6" class="edge">
<title>r1:e&#45;&gt;r7:nw</title>
<path fill="none" stroke="black" d="M489.39,-194C516.35,-194 478.39,-157.45 483.53,-133.88"/>
<polygon fill="black" stroke="black" points="486.66,-135.45 488.39,-125 480.52,-132.09 486.66,-135.45"/>
<text text-anchor="middle" x="527.39" y="-128.8" font-family="Times,serif" font-size="14.00">chunk_size</text>
<text text-anchor="middle" x="509.39" y="-197.8" font-family="Times,serif" font-size="14.00">/rows</text>
</g>
<!-- initializerr1_0 -->
<!-- initializerr1_0&#45;&gt;r1 -->
<g id="edge5" class="edge">
<title>initializerr1_0&#45;&gt;r1:w</title>
<path fill="none" stroke="blue" stroke-dasharray="1,5" d="M568.93,-272.34C497.33,-262.6 390.14,-243.19 364.39,-212 362.48,-209.68 360.73,-206.57 359.72,-203.59"/>
<polygon fill="blue" stroke="blue" points="363.08,-204.59 363.39,-194 356.55,-202.09 363.08,-204.59"/>
<text text-anchor="middle" x="467.39" y="-233.8" font-family="Times,serif" font-size="14.00">[[1,2],[3,4]]</text>
</g>
<!-- r7&#45;&gt;r7 -->
<g id="edge18" class="edge">
<title>r7:e&#45;&gt;r7:ne</title>
<path fill="none" stroke="black" d="M616.39,-107C640.23,-98 688.23,-98 688.23,-116 688.23,-133.05 595.6,-133.95 534.31,-126.35"/>
<polygon fill="black" stroke="black" points="534.77,-122.88 524.39,-125 533.83,-129.81 534.77,-122.88"/>
<text text-anchor="middle" x="548.39" y="-128.8" font-family="Times,serif" font-size="14.00">partial</text>
<text text-anchor="middle" x="642.39" y="-110.8" font-family="Times,serif" font-size="14.00">/partial</text>
</g>
<!-- r7&#45;&gt;r7 -->
<g id="edge19" class="edge">
<title>r7:s&#45;&gt;r7:nw</title>
<path fill="none" stroke="black" d="M506.39,-89C445.78,-80 324.55,-80 324.55,-107 324.55,-132.58 417.18,-133.92 478.47,-126.35"/>
<polygon fill="black" stroke="black" points="478.95,-129.81 488.39,-125 478.01,-122.88 478.95,-129.81"/>
<text text-anchor="middle" x="449.39" y="-128.8" font-family="Times,serif" font-size="14.00">chunk_size</text>
<text text-anchor="middle" x="465.39" y="-77.8" font-family="Times,serif" font-size="14.00">/chunk_size</text>
</g>
<!-- r8 -->
<g id="node15" class="node">
<title>r8</title>
<g id="a_node15"><a xlink:href="file:///home/andrew/workspace/flow/flowruntime/stdio/stdout.html" xlink:title="print (#8)">
<ellipse fill="coral" stroke="black" cx="506.39" cy="-34" rx="57.39" ry="18"/>
<text text-anchor="middle" x="506.39" y="-30.3" font-family="Times,serif" font-size="14.00">print (#8)</text>
</a>
</g>
</g>
<!-- r7&#45;&gt;r8 -->
<g id="edge20" class="edge">
<title>r7:s&#45;&gt;r8:n</title>
<path fill="none" stroke="black" d="M506.39,-89C506.39,-76.54 506.39,-71.16 506.39,-62.13"/>
<polygon fill="black" stroke="black" points="509.89,-62 506.39,-52 502.89,-62 509.89,-62"/>
<text text-anchor="middle" x="530.39" y="-77.8" font-family="Times,serif" font-size="14.00">/chunk</text>
</g>
<!-- initializerr2_0 -->
<!-- initializerr2_0&#45;&gt;r2 -->
<g id="edge7" class="edge">
<title>initializerr2_0&#45;&gt;r2:w</title>
<path fill="none" stroke="blue" stroke-dasharray="1,5" d="M103.98,-423.42C82.51,-402.14 50.09,-366.76 60.66,-356.73"/>
<polygon fill="blue" stroke="blue" points="61.71,-360.07 70.39,-354 59.82,-353.33 61.71,-360.07"/>
<text text-anchor="middle" x="127.39" y="-393.8" font-family="Times,serif" font-size="14.00">[[1,2],[3,4]]</text>
</g>
<!-- r5&#45;&gt;r6 -->
<g id="edge12" class="edge">
<title>r5:e&#45;&gt;r6:n</title>
<path fill="none" stroke="black" d="M415.39,-281C423.4,-281 419.61,-269.08 414.39,-263 398.45,-244.41 218.18,-240.17 180.34,-219.89"/>
<polygon fill="black" stroke="black" points="182.62,-217.19 173.39,-212 177.37,-221.82 182.62,-217.19"/>
<text text-anchor="middle" x="150.39" y="-200.8" font-family="Times,serif" font-size="14.00">values</text>
</g>
<!-- r3 -->
<g id="node11" class="node">
<title>r3</title>
<g id="a_node11"><a xlink:href="file:///home/andrew/workspace/flow/flowstdlib/data/transpose/transpose.html" xlink:title="transpose (#3)">
<ellipse fill="coral" stroke="black" cx="348.39" cy="-441" rx="79.89" ry="18"/>
<text text-anchor="middle" x="348.39" y="-437.3" font-family="Times,serif" font-size="14.00">transpose (#3)</text>
</a>
</g>
</g>
<!-- r3&#45;&gt;r4 -->
<g id="edge10" class="edge">
<title>r3:e&#45;&gt;r4:n</title>
<path fill="none" stroke="black" d="M429.39,-441C456.71,-441 434.57,-410.6 429.4,-382.28"/>
<polygon fill="black" stroke="black" points="432.86,-381.61 428.39,-372 425.89,-382.3 432.86,-381.61"/>
<text text-anchor="middle" x="447.89" y="-375.8" font-family="Times,serif" font-size="14.00">value</text>
</g>
<!-- initializerr3_0 -->
<!-- initializerr3_0&#45;&gt;r3 -->
<g id="edge9" class="edge">
<title>initializerr3_0&#45;&gt;r3:w</title>
<path fill="none" stroke="blue" stroke-dasharray="1,5" d="M261.53,-510.01C253.69,-488.67 243.64,-453.63 257.7,-443.7"/>
<polygon fill="blue" stroke="blue" points="258.7,-447.05 267.39,-441 256.82,-440.31 258.7,-447.05"/>
<text text-anchor="middle" x="296.39" y="-480.8" font-family="Times,serif" font-size="14.00">[[5,6],[7,8]]</text>
</g>
<!-- initializerr6_1 -->
<!-- initializerr6_1&#45;&gt;r6 -->
<g id="edge13" class="edge">
<title>initializerr6_1&#45;&gt;r6:n</title>
<path fill="none" stroke="blue" stroke-dasharray="1,5" d="M143.75,-263.58C155.53,-253.23 168.33,-238.68 172.21,-222.03"/>
<polygon fill="blue" stroke="blue" points="175.7,-222.34 173.39,-212 168.75,-221.52 175.7,-222.34"/>
<text text-anchor="middle" x="173.89" y="-233.8" font-family="Times,serif" font-size="14.00">[]</text>
</g>
<!-- initializerr7_1 -->
<!-- initializerr7_1&#45;&gt;r7 -->
<g id="edge17" class="edge">
<title>initializerr7_1&#45;&gt;r7:n</title>
<path fill="none" stroke="blue" stroke-dasharray="1,5" d="M572.78,-183.82C543.51,-176.02 513.72,-161.66 507.55,-135.28"/>
<polygon fill="blue" stroke="blue" points="510.99,-134.54 506.39,-125 504.03,-135.33 510.99,-134.54"/>
<text text-anchor="middle" x="524.89" y="-146.8" font-family="Times,serif" font-size="14.00">[]</text>
</g>
</g>
</svg>
