<?xml version="1.0" encoding="UTF-8" standalone="no"?>
<!DOCTYPE svg PUBLIC "-//W3C//DTD SVG 1.1//EN"
 "http://www.w3.org/Graphics/SVG/1.1/DTD/svg11.dtd">
<!-- Generated by graphviz version 2.40.1 (20161225.0304)
 -->
<!-- Title: matrix_mult Pages: 1 -->
<svg width="1508pt" height="1001pt"
 viewBox="0.00 0.00 1508.00 1001.00" xmlns="http://www.w3.org/2000/svg" xmlns:xlink="http://www.w3.org/1999/xlink">
<g id="graph0" class="graph" transform="scale(1 1) rotate(0) translate(4 997)">
<title>matrix_mult</title>
<polygon fill="#ffffff" stroke="transparent" points="-4,4 -4,-997 1504,-997 1504,4 -4,4"/>
<text text-anchor="middle" x="750" y="-977.8" font-family="Times,serif" font-size="14.00" fill="#000000">/matrix_mult</text>
<g id="clust1" class="cluster">
<title>cluster_select_0</title>
<polygon fill="none" stroke="#000000" points="840,-480 840,-868 1492,-868 1492,-480 840,-480"/>
<text text-anchor="middle" x="1166" y="-852.8" font-family="Times,serif" font-size="14.00" fill="#000000">/matrix_mult/select_0</text>
</g>
<g id="clust2" class="cluster">
<title>cluster_select_1</title>
<polygon fill="none" stroke="#000000" points="8,-574 8,-962 624,-962 624,-574 8,-574"/>
<text text-anchor="middle" x="316" y="-946.8" font-family="Times,serif" font-size="14.00" fill="#000000">/matrix_mult/select_1</text>
</g>
<g id="clust3" class="cluster">
<title>cluster_multiply</title>
<polygon fill="none" stroke="#000000" points="368,-8 368,-555 832,-555 832,-8 368,-8"/>
<text text-anchor="middle" x="600" y="-539.8" font-family="Times,serif" font-size="14.00" fill="#000000">/matrix_mult/multiply</text>
</g>
<!-- r9 -->
<g id="node1" class="node">
<title>r9</title>
<g id="a_node1"><a xlink:href="file:///home/travis/build/andrewdavidmackenzie/flow/flowr/src/lib/flowruntime/stdio/readline.html" xlink:title="readline (#9)">
<ellipse fill="#ff7f50" stroke="#000000" cx="704" cy="-819" rx="72.2875" ry="18"/>
<text text-anchor="middle" x="704" y="-815.3" font-family="Times,serif" font-size="14.00" fill="#000000">readline (#9)</text>
</a>
</g>
</g>
<!-- r10 -->
<g id="node2" class="node">
<title>r10</title>
<g id="a_node2"><a xlink:href="file:///home/travis/build/andrewdavidmackenzie/flow/flowstdlib/control/index/index.html" xlink:title="index (#10)">
<ellipse fill="#ff7f50" stroke="#000000" cx="1025" cy="-673" rx="65.7887" ry="18"/>
<text text-anchor="middle" x="1025" y="-669.3" font-family="Times,serif" font-size="14.00" fill="#000000">index (#10)</text>
</a>
</g>
</g>
<!-- r9&#45;&gt;r10 -->
<g id="edge1" class="edge">
<title>r9:e&#45;&gt;r10:n</title>
<path fill="none" stroke="#000000" d="M776,-819C789.9744,-819 979.8288,-728.2348 1018.2489,-698.5181"/>
<polygon fill="#000000" stroke="#000000" points="1020.9228,-700.7789 1025,-691 1015.7145,-696.102 1020.9228,-700.7789"/>
<text text-anchor="middle" x="1005.5" y="-694.8" font-family="Times,serif" font-size="14.00" fill="#000000">value</text>
<text text-anchor="middle" x="793" y="-822.8" font-family="Times,serif" font-size="14.00" fill="#000000">/json</text>
</g>
<!-- r0 -->
<g id="node3" class="node">
<title>r0</title>
<g id="a_node3"><a xlink:href="file:///home/travis/build/andrewdavidmackenzie/flow/flowstdlib/control/index/index.html" xlink:title="index (#0)">
<ellipse fill="#ff7f50" stroke="#000000" cx="367" cy="-746" rx="59.5901" ry="18"/>
<text text-anchor="middle" x="367" y="-742.3" font-family="Times,serif" font-size="14.00" fill="#000000">index (#0)</text>
</a>
</g>
</g>
<!-- r9&#45;&gt;r0 -->
<g id="edge2" class="edge">
<title>r9:e&#45;&gt;r0:n</title>
<path fill="none" stroke="#000000" d="M776,-819C784,-819 781.396,-806.9062 776,-801 769.0119,-793.3512 437.3604,-778.4862 376.5301,-767.276"/>
<polygon fill="#000000" stroke="#000000" points="377.5947,-763.941 367,-764 375.3191,-770.5608 377.5947,-763.941"/>
<text text-anchor="middle" x="347.5" y="-767.8" font-family="Times,serif" font-size="14.00" fill="#000000">value</text>
<text text-anchor="middle" x="793" y="-807.8" font-family="Times,serif" font-size="14.00" fill="#000000">/json</text>
</g>
<!-- r10&#45;&gt;r10 -->
<g id="edge6" class="edge">
<title>r10:sw&#45;&gt;r10:ne</title>
<path fill="none" stroke="#000000" d="M1007,-655C887.3558,-667 887.3558,-709 1025,-709 1158.6116,-709 1162.526,-697.6928 1053.2071,-691.5423"/>
<polygon fill="#000000" stroke="#000000" points="1053.1717,-688.0356 1043,-691 1052.8002,-695.0258 1053.1717,-688.0356"/>
<text text-anchor="middle" x="1097" y="-694.8" font-family="Times,serif" font-size="14.00" fill="#000000">previous_value</text>
<text text-anchor="middle" x="985.5" y="-643.8" font-family="Times,serif" font-size="14.00" fill="#000000">/value</text>
</g>
<!-- r10&#45;&gt;r10 -->
<g id="edge7" class="edge">
<title>r10:s&#45;&gt;r10:nw</title>
<path fill="none" stroke="#000000" d="M1025,-655C979.1186,-646 887.3558,-646 887.3558,-673 887.3558,-698.1016 951.1104,-699.8665 996.9437,-692.7587"/>
<polygon fill="#000000" stroke="#000000" points="997.7525,-696.1705 1007,-691 996.5465,-689.2751 997.7525,-696.1705"/>
<text text-anchor="middle" x="952.5" y="-694.8" font-family="Times,serif" font-size="14.00" fill="#000000">previous_index</text>
<text text-anchor="middle" x="1047" y="-643.8" font-family="Times,serif" font-size="14.00" fill="#000000">/index</text>
</g>
<!-- r4 -->
<g id="node7" class="node">
<title>r4</title>
<g id="a_node7"><a xlink:href="file:///home/travis/build/andrewdavidmackenzie/flow/flowstdlib/data/info/info.html" xlink:title="a_info (#4)">
<ellipse fill="#ff7f50" stroke="#000000" cx="1191" cy="-506" rx="61.99" ry="18"/>
<text text-anchor="middle" x="1191" y="-502.3" font-family="Times,serif" font-size="14.00" fill="#000000">a_info (#4)</text>
</a>
</g>
</g>
<!-- r10&#45;&gt;r4 -->
<g id="edge8" class="edge">
<title>r10:e&#45;&gt;r4:n</title>
<path fill="none" stroke="#000000" d="M1091,-673C1167.327,-673 1189.1502,-609.5769 1190.8847,-534.2179"/>
<polygon fill="#000000" stroke="#000000" points="1194.3869,-534.0389 1191,-524 1187.3873,-533.9599 1194.3869,-534.0389"/>
<text text-anchor="middle" x="1146.5" y="-676.8" font-family="Times,serif" font-size="14.00" fill="#000000">/selected_value</text>
</g>
<!-- r6 -->
<g id="node8" class="node">
<title>r6</title>
<g id="a_node8"><a xlink:href="file:///home/travis/build/andrewdavidmackenzie/flow/flowstdlib/data/duplicate_rows/duplicate_rows.html" xlink:title="duplicate_rows (#6)">
<ellipse fill="#ff7f50" stroke="#000000" cx="953" cy="-506" rx="104.7816" ry="18"/>
<text text-anchor="middle" x="953" y="-502.3" font-family="Times,serif" font-size="14.00" fill="#000000">duplicate_rows (#6)</text>
</a>
</g>
</g>
<!-- r10&#45;&gt;r6 -->
<g id="edge9" class="edge">
<title>r10:e&#45;&gt;r6:n</title>
<path fill="none" stroke="#000000" d="M1091,-673C1099,-673 1094.1573,-662.3506 1091,-655 1059.0581,-580.6365 961.8596,-606.0811 953.5656,-534.2775"/>
<polygon fill="#000000" stroke="#000000" points="957.0443,-533.7926 953,-524 950.0548,-534.1772 957.0443,-533.7926"/>
<text text-anchor="middle" x="1146.5" y="-661.8" font-family="Times,serif" font-size="14.00" fill="#000000">/selected_value</text>
</g>
<!-- r0&#45;&gt;r0 -->
<g id="edge13" class="edge">
<title>r0:sw&#45;&gt;r0:ne</title>
<path fill="none" stroke="#000000" d="M349,-728C235.2053,-740 235.2053,-782 367,-782 494.8048,-782 498.6739,-770.7156 395.0215,-764.5609"/>
<polygon fill="#000000" stroke="#000000" points="395.18,-761.0644 385,-764 394.7887,-768.0535 395.18,-761.0644"/>
<text text-anchor="middle" x="439" y="-767.8" font-family="Times,serif" font-size="14.00" fill="#000000">previous_value</text>
<text text-anchor="middle" x="327.5" y="-716.8" font-family="Times,serif" font-size="14.00" fill="#000000">/value</text>
</g>
<!-- r0&#45;&gt;r0 -->
<g id="edge14" class="edge">
<title>r0:s&#45;&gt;r0:nw</title>
<path fill="none" stroke="#000000" d="M367,-728C323.0684,-719 235.2053,-719 235.2053,-746 235.2053,-771.0488 295.3359,-772.859 339.1057,-765.8034"/>
<polygon fill="#000000" stroke="#000000" points="339.7897,-769.2365 349,-764 338.5345,-762.3499 339.7897,-769.2365"/>
<text text-anchor="middle" x="294.5" y="-767.8" font-family="Times,serif" font-size="14.00" fill="#000000">previous_index</text>
<text text-anchor="middle" x="389" y="-716.8" font-family="Times,serif" font-size="14.00" fill="#000000">/index</text>
</g>
<!-- r7 -->
<g id="node12" class="node">
<title>r7</title>
<g id="a_node12"><a xlink:href="file:///home/travis/build/andrewdavidmackenzie/flow/flowstdlib/data/info/info.html" xlink:title="b_info (#7)">
<ellipse fill="#ff7f50" stroke="#000000" cx="482" cy="-600" rx="62.2891" ry="18"/>
<text text-anchor="middle" x="482" y="-596.3" font-family="Times,serif" font-size="14.00" fill="#000000">b_info (#7)</text>
</a>
</g>
</g>
<!-- r0&#45;&gt;r7 -->
<g id="edge15" class="edge">
<title>r0:e&#45;&gt;r7:n</title>
<path fill="none" stroke="#000000" d="M427,-746C485.5321,-746 482.5508,-686.9484 482.0497,-628.1843"/>
<polygon fill="#000000" stroke="#000000" points="485.5488,-627.9828 482,-618 478.5489,-628.017 485.5488,-627.9828"/>
<text text-anchor="middle" x="482.5" y="-749.8" font-family="Times,serif" font-size="14.00" fill="#000000">/selected_value</text>
</g>
<!-- r5 -->
<g id="node13" class="node">
<title>r5</title>
<g id="a_node13"><a xlink:href="file:///home/travis/build/andrewdavidmackenzie/flow/flowstdlib/data/transpose/transpose.html" xlink:title="transpose (#5)">
<ellipse fill="#ff7f50" stroke="#000000" cx="203" cy="-600" rx="79.8859" ry="18"/>
<text text-anchor="middle" x="203" y="-596.3" font-family="Times,serif" font-size="14.00" fill="#000000">transpose (#5)</text>
</a>
</g>
</g>
<!-- r0&#45;&gt;r5 -->
<g id="edge16" class="edge">
<title>r0:e&#45;&gt;r5:n</title>
<path fill="none" stroke="#000000" d="M427,-746C435,-746 431.2302,-734.7901 427,-728 370.2424,-636.8961 213.5467,-722.9821 203.5061,-628.0944"/>
<polygon fill="#000000" stroke="#000000" points="206.9964,-627.8122 203,-618 200.0052,-628.1627 206.9964,-627.8122"/>
<text text-anchor="middle" x="482.5" y="-734.8" font-family="Times,serif" font-size="14.00" fill="#000000">/selected_value</text>
</g>
<!-- initializerr10_1 -->
<!-- initializerr10_1&#45;&gt;r10 -->
<g id="edge3" class="edge">
<title>initializerr10_1&#45;&gt;r10:nw</title>
<path fill="none" stroke="#0000ff" stroke-dasharray="1,5" d="M1142.1788,-801.7011C1104.4004,-774.071 1032.9161,-720.9334 1012.3722,-699.686"/>
<polygon fill="#0000ff" stroke="#0000ff" points="1015.2368,-697.6638 1007,-691 1009.2835,-701.3459 1015.2368,-697.6638"/>
<text text-anchor="middle" x="1099.5" y="-742.3" font-family="Times,serif" font-size="14.00" fill="#000000">42</text>
</g>
<!-- initializerr10_2 -->
<!-- initializerr10_2&#45;&gt;r10 -->
<g id="edge4" class="edge">
<title>initializerr10_2&#45;&gt;r10:ne</title>
<path fill="none" stroke="#0000ff" stroke-dasharray="1,5" d="M1356.4943,-803.931C1271.6585,-775.6961 1094.0872,-715.8822 1051.7169,-695.9717"/>
<polygon fill="#0000ff" stroke="#0000ff" points="1053.4205,-692.9141 1043,-691 1049.9524,-698.9946 1053.4205,-692.9141"/>
<text text-anchor="middle" x="1243" y="-742.3" font-family="Times,serif" font-size="14.00" fill="#000000">&#45;1</text>
</g>
<!-- initializerr10_3 -->
<!-- initializerr10_3&#45;&gt;r10 -->
<g id="edge5" class="edge">
<title>initializerr10_3&#45;&gt;r10:n</title>
<path fill="none" stroke="#0000ff" d="M954.4649,-801.688C980.5786,-781.1372 1018.9481,-744.1796 1024.3573,-701.1588"/>
<polygon fill="#0000ff" stroke="#0000ff" points="1027.8615,-701.2011 1025,-691 1020.8755,-700.759 1027.8615,-701.2011"/>
<text text-anchor="middle" x="1021" y="-742.3" font-family="Times,serif" font-size="14.00" fill="#000000">0</text>
</g>
<!-- r2 -->
<g id="node16" class="node">
<title>r2</title>
<g id="a_node16"><a xlink:href="file:///home/travis/build/andrewdavidmackenzie/flow/flowstdlib/data/accumulate/accumulate.html" xlink:title="compose_matrix (#2)">
<ellipse fill="#ff7f50" stroke="#000000" cx="696" cy="-145" rx="110.4804" ry="18"/>
<text text-anchor="middle" x="696" y="-141.3" font-family="Times,serif" font-size="14.00" fill="#000000">compose_matrix (#2)</text>
</a>
</g>
</g>
<!-- r4&#45;&gt;r2 -->
<g id="edge20" class="edge">
<title>r4:e&#45;&gt;r2:nw</title>
<path fill="none" stroke="#000000" d="M1253,-506C1261,-506 1258.0639,-494.1933 1253,-488 1226.4481,-455.5259 1068,-492.4472 1068,-450.5 1068,-450.5 1068,-450.5 1068,-207.5 1068,-168.8262 737.106,-187.9976 683.6396,-171.3357"/>
<polygon fill="#000000" stroke="#000000" points="686.5025,-169.3213 678,-163 680.7047,-173.2438 686.5025,-169.3213"/>
<text text-anchor="middle" x="638" y="-166.8" font-family="Times,serif" font-size="14.00" fill="#000000">chunk_size</text>
<text text-anchor="middle" x="1273" y="-509.8" font-family="Times,serif" font-size="14.00" fill="#000000">/rows</text>
</g>
<!-- r1 -->
<g id="node17" class="node">
<title>r1</title>
<g id="a_node17"><a xlink:href="file:///home/travis/build/andrewdavidmackenzie/flow/flowstdlib/data/multiply_row/multiply_row.html" xlink:title="multiply (#1)">
<ellipse fill="#ff7f50" stroke="#000000" cx="751" cy="-395" rx="72.5877" ry="18"/>
<text text-anchor="middle" x="751" y="-391.3" font-family="Times,serif" font-size="14.00" fill="#000000">multiply (#1)</text>
</a>
</g>
</g>
<!-- r6&#45;&gt;r1 -->
<g id="edge21" class="edge">
<title>r6:e&#45;&gt;r1:n</title>
<path fill="none" stroke="#000000" d="M1058,-506C1066,-506 1062.9402,-494.2924 1058,-488 1038.1371,-462.7005 797.0647,-450.283 756.7121,-421.3863"/>
<polygon fill="#000000" stroke="#000000" points="759.5222,-419.2946 751,-413 753.7368,-423.2353 759.5222,-419.2946"/>
<text text-anchor="middle" x="746.5" y="-416.8" font-family="Times,serif" font-size="14.00" fill="#000000">a</text>
</g>
<!-- initializerr0_1 -->
<!-- initializerr0_1&#45;&gt;r0 -->
<g id="edge10" class="edge">
<title>initializerr0_1&#45;&gt;r0:nw</title>
<path fill="none" stroke="#0000ff" stroke-dasharray="1,5" d="M314.3219,-895.0003C312.6084,-865.9454 313.4495,-808.2928 342.0288,-771.8765"/>
<polygon fill="#0000ff" stroke="#0000ff" points="344.9933,-773.808 349,-764 339.7514,-769.1686 344.9933,-773.808"/>
<text text-anchor="middle" x="334.5" y="-815.3" font-family="Times,serif" font-size="14.00" fill="#000000">42</text>
</g>
<!-- initializerr0_2 -->
<!-- initializerr0_2&#45;&gt;r0 -->
<g id="edge11" class="edge">
<title>initializerr0_2&#45;&gt;r0:ne</title>
<path fill="none" stroke="#0000ff" stroke-dasharray="1,5" d="M521.1597,-895.3451C493.1879,-869.0365 438.9399,-817.6436 392.1434,-771.122"/>
<polygon fill="#0000ff" stroke="#0000ff" points="394.5529,-768.5819 385,-764 389.6105,-773.5391 394.5529,-768.5819"/>
<text text-anchor="middle" x="498" y="-815.3" font-family="Times,serif" font-size="14.00" fill="#000000">&#45;1</text>
</g>
<!-- initializerr0_3 -->
<!-- initializerr0_3&#45;&gt;r0 -->
<g id="edge12" class="edge">
<title>initializerr0_3&#45;&gt;r0:n</title>
<path fill="none" stroke="#0000ff" d="M118.9978,-896.1562C155.8778,-873.4206 224.3607,-832.173 285,-801 317.0866,-784.5051 358.0333,-800.2069 365.7247,-774.0553"/>
<polygon fill="#0000ff" stroke="#0000ff" points="369.2139,-774.3609 367,-764 362.2695,-773.4801 369.2139,-774.3609"/>
<text text-anchor="middle" x="290" y="-815.3" font-family="Times,serif" font-size="14.00" fill="#000000">1</text>
</g>
<!-- r7&#45;&gt;r6 -->
<g id="edge18" class="edge">
<title>r7:se&#45;&gt;r6:ne</title>
<path fill="none" stroke="#000000" d="M500,-582C527.1103,-554.8897 806.1431,-561.0655 844,-555 897.3361,-546.4545 996.7786,-562.5141 977.4861,-531.8018"/>
<polygon fill="#000000" stroke="#000000" points="980.0843,-529.4522 971,-524 974.7015,-533.9272 980.0843,-529.4522"/>
<text text-anchor="middle" x="949.5" y="-527.8" font-family="Times,serif" font-size="14.00" fill="#000000">factor</text>
<text text-anchor="middle" x="467.5" y="-570.8" font-family="Times,serif" font-size="14.00" fill="#000000">/columns</text>
</g>
<!-- r8 -->
<g id="node14" class="node">
<title>r8</title>
<g id="a_node14"><a xlink:href="file:///home/travis/build/andrewdavidmackenzie/flow/flowstdlib/data/duplicate/duplicate.html" xlink:title="duplicate (#8)">
<ellipse fill="#ff7f50" stroke="#000000" cx="531" cy="-506" rx="77.1866" ry="18"/>
<text text-anchor="middle" x="531" y="-502.3" font-family="Times,serif" font-size="14.00" fill="#000000">duplicate (#8)</text>
</a>
</g>
</g>
<!-- r7&#45;&gt;r8 -->
<g id="edge17" class="edge">
<title>r7:se&#45;&gt;r8:ne</title>
<path fill="none" stroke="#000000" d="M500,-582C520.879,-561.121 561.0045,-550.6431 554.7242,-532.3644"/>
<polygon fill="#000000" stroke="#000000" points="557.536,-530.2759 549,-524 551.7593,-534.2292 557.536,-530.2759"/>
<text text-anchor="middle" x="527.5" y="-527.8" font-family="Times,serif" font-size="14.00" fill="#000000">factor</text>
<text text-anchor="middle" x="532.5" y="-570.8" font-family="Times,serif" font-size="14.00" fill="#000000">/columns</text>
</g>
<!-- r3 -->
<g id="node15" class="node">
<title>r3</title>
<g id="a_node15"><a xlink:href="file:///home/travis/build/andrewdavidmackenzie/flow/flowstdlib/data/accumulate/accumulate.html" xlink:title="compose_rows (#3)">
<ellipse fill="#ff7f50" stroke="#000000" cx="703" cy="-270" rx="102.8821" ry="18"/>
<text text-anchor="middle" x="703" y="-266.3" font-family="Times,serif" font-size="14.00" fill="#000000">compose_rows (#3)</text>
</a>
</g>
</g>
<!-- r7&#45;&gt;r3 -->
<g id="edge19" class="edge">
<title>r7:se&#45;&gt;r3:nw</title>
<path fill="none" stroke="#000000" d="M500,-582C527.1311,-554.8689 452.4719,-571.8488 418,-555 382.8933,-537.8409 345,-545.0757 345,-506 345,-506 345,-506 345,-332.5 345,-259.5743 607.0585,-334.8255 676.8091,-294.1971"/>
<polygon fill="#000000" stroke="#000000" points="679.137,-296.8247 685,-288 674.9135,-291.2424 679.137,-296.8247"/>
<text text-anchor="middle" x="645" y="-291.8" font-family="Times,serif" font-size="14.00" fill="#000000">chunk_size</text>
<text text-anchor="middle" x="532.5" y="-585.8" font-family="Times,serif" font-size="14.00" fill="#000000">/columns</text>
</g>
<!-- r5&#45;&gt;r8 -->
<g id="edge22" class="edge">
<title>r5:e&#45;&gt;r8:n</title>
<path fill="none" stroke="#000000" d="M283,-600C289.3748,-600 478.6061,-546.1467 522.1334,-528.7449"/>
<polygon fill="#000000" stroke="#000000" points="523.8345,-531.8042 531,-524 520.5317,-525.6324 523.8345,-531.8042"/>
<text text-anchor="middle" x="550.5" y="-527.8" font-family="Times,serif" font-size="14.00" fill="#000000">value</text>
</g>
<!-- r8&#45;&gt;r1 -->
<g id="edge23" class="edge">
<title>r8:e&#45;&gt;r1:ne</title>
<path fill="none" stroke="#000000" d="M609,-506C626.5908,-506 741.8179,-448.5809 765.6554,-422.8803"/>
<polygon fill="#000000" stroke="#000000" points="769.1088,-423.5943 769,-413 762.4784,-421.3498 769.1088,-423.5943"/>
<text text-anchor="middle" x="764" y="-416.8" font-family="Times,serif" font-size="14.00" fill="#000000">b</text>
</g>
<!-- r3&#45;&gt;r3 -->
<g id="edge26" class="edge">
<title>r3:e&#45;&gt;r3:ne</title>
<path fill="none" stroke="#000000" d="M806,-270C829.6909,-261 877.6909,-261 877.6909,-279 877.6909,-295.9805 790.0682,-296.9423 731.2566,-289.441"/>
<polygon fill="#000000" stroke="#000000" points="731.3897,-285.9254 721,-288 730.4157,-292.8574 731.3897,-285.9254"/>
<text text-anchor="middle" x="745" y="-291.8" font-family="Times,serif" font-size="14.00" fill="#000000">partial</text>
<text text-anchor="middle" x="832" y="-273.8" font-family="Times,serif" font-size="14.00" fill="#000000">/partial</text>
</g>
<!-- r3&#45;&gt;r3 -->
<g id="edge27" class="edge">
<title>r3:s&#45;&gt;r3:nw</title>
<path fill="none" stroke="#000000" d="M703,-252C644.7697,-243 528.3091,-243 528.3091,-270 528.3091,-295.4707 615.9318,-296.9134 674.7434,-289.4394"/>
<polygon fill="#000000" stroke="#000000" points="675.5835,-292.8559 685,-288 674.6106,-285.9238 675.5835,-292.8559"/>
<text text-anchor="middle" x="725" y="-291.8" font-family="Times,serif" font-size="14.00" fill="#000000">chunk_size</text>
<text text-anchor="middle" x="660.5" y="-240.8" font-family="Times,serif" font-size="14.00" fill="#000000">/chunk_size</text>
</g>
<!-- r3&#45;&gt;r2 -->
<g id="edge28" class="edge">
<title>r3:s&#45;&gt;r2:n</title>
<path fill="none" stroke="#000000" d="M703,-252C703,-215.8871 697.2013,-204.6531 696.1594,-173.0107"/>
<polygon fill="#000000" stroke="#000000" points="699.6588,-172.943 696,-163 692.6597,-173.0545 699.6588,-172.943"/>
<text text-anchor="middle" x="719" y="-166.8" font-family="Times,serif" font-size="14.00" fill="#000000">values</text>
<text text-anchor="middle" x="727.5" y="-240.8" font-family="Times,serif" font-size="14.00" fill="#000000">/chunk</text>
</g>
<!-- r2&#45;&gt;r2 -->
<g id="edge30" class="edge">
<title>r2:e&#45;&gt;r2:ne</title>
<path fill="none" stroke="#000000" d="M807,-145C830.4902,-136 878.4902,-136 878.4902,-154 878.4902,-171.0508 785.4747,-171.9499 723.9593,-164.3474"/>
<polygon fill="#000000" stroke="#000000" points="724.379,-160.8724 714,-163 723.4404,-167.8092 724.379,-160.8724"/>
<text text-anchor="middle" x="738" y="-166.8" font-family="Times,serif" font-size="14.00" fill="#000000">partial</text>
<text text-anchor="middle" x="833" y="-148.8" font-family="Times,serif" font-size="14.00" fill="#000000">/partial</text>
</g>
<!-- r2&#45;&gt;r2 -->
<g id="edge31" class="edge">
<title>r2:s&#45;&gt;r2:nw</title>
<path fill="none" stroke="#000000" d="M696,-127C635.1699,-118 513.5098,-118 513.5098,-145 513.5098,-170.5762 606.5253,-171.9249 668.0407,-164.3461"/>
<polygon fill="#000000" stroke="#000000" points="668.5589,-167.808 678,-163 667.6213,-160.871 668.5589,-167.808"/>
<text text-anchor="middle" x="638" y="-166.8" font-family="Times,serif" font-size="14.00" fill="#000000">chunk_size</text>
<text text-anchor="middle" x="653.5" y="-115.8" font-family="Times,serif" font-size="14.00" fill="#000000">/chunk_size</text>
</g>
<!-- r11 -->
<g id="node20" class="node">
<title>r11</title>
<g id="a_node20"><a xlink:href="file:///home/travis/build/andrewdavidmackenzie/flow/flowr/src/lib/flowruntime/stdio/stdout.html" xlink:title="print (#11)">
<ellipse fill="#ff7f50" stroke="#000000" cx="696" cy="-34" rx="63.0888" ry="18"/>
<text text-anchor="middle" x="696" y="-30.3" font-family="Times,serif" font-size="14.00" fill="#000000">print (#11)</text>
</a>
</g>
</g>
<!-- r2&#45;&gt;r11 -->
<g id="edge32" class="edge">
<title>r2:s&#45;&gt;r11:n</title>
<path fill="none" stroke="#000000" d="M696,-127C696,-97.3125 696,-87.4553 696,-62.1057"/>
<polygon fill="#000000" stroke="#000000" points="699.5001,-62 696,-52 692.5001,-62 699.5001,-62"/>
<text text-anchor="middle" x="720.5" y="-115.8" font-family="Times,serif" font-size="14.00" fill="#000000">/chunk</text>
</g>
<!-- r1&#45;&gt;r3 -->
<g id="edge24" class="edge">
<title>r1:e&#45;&gt;r3:n</title>
<path fill="none" stroke="#000000" d="M824,-395C832,-395 827.611,-384.1387 824,-377 795.5147,-320.687 712.7569,-350.9654 703.7905,-298.0515"/>
<polygon fill="#000000" stroke="#000000" points="707.2733,-297.6948 703,-288 700.2949,-298.2437 707.2733,-297.6948"/>
<text text-anchor="middle" x="680" y="-276.8" font-family="Times,serif" font-size="14.00" fill="#000000">values</text>
</g>
<!-- initializerr3_1 -->
<!-- initializerr3_1&#45;&gt;r3 -->
<g id="edge25" class="edge">
<title>initializerr3_1&#45;&gt;r3:n</title>
<path fill="none" stroke="#0000ff" stroke-dasharray="1,5" d="M562.54,-378.6432C605.4108,-356.6538 677.7247,-317.9049 697.7324,-296.9379"/>
<polygon fill="#0000ff" stroke="#0000ff" points="700.9379,-298.3922 703,-288 694.9073,-294.8381 700.9379,-298.3922"/>
<text text-anchor="middle" x="663.5" y="-328.8" font-family="Times,serif" font-size="14.00" fill="#000000">[]</text>
</g>
<!-- initializerr2_1 -->
<!-- initializerr2_1&#45;&gt;r2 -->
<g id="edge29" class="edge">
<title>initializerr2_1&#45;&gt;r2:n</title>
<path fill="none" stroke="#0000ff" stroke-dasharray="1,5" d="M492.0184,-254.6278C551.5062,-231.526 659.3949,-188.5848 688.5622,-169.983"/>
<polygon fill="#0000ff" stroke="#0000ff" points="691.1052,-172.3964 696,-163 686.3139,-167.2931 691.1052,-172.3964"/>
<text text-anchor="middle" x="630.5" y="-203.8" font-family="Times,serif" font-size="14.00" fill="#000000">[]</text>
</g>
</g>
</svg>
