<?xml version="1.0" encoding="UTF-8" standalone="no"?>
<!DOCTYPE svg PUBLIC "-//W3C//DTD SVG 1.1//EN"
 "http://www.w3.org/Graphics/SVG/1.1/DTD/svg11.dtd">
<!-- Generated by graphviz version 2.40.1 (0)
 -->
<!-- Title: matrix_mult Pages: 1 -->
<svg width="759pt" height="844pt"
 viewBox="0.00 0.00 759.39 844.00" xmlns="http://www.w3.org/2000/svg" xmlns:xlink="http://www.w3.org/1999/xlink">
<g id="graph0" class="graph" transform="scale(1 1) rotate(0) translate(4 840)">
<title>matrix_mult</title>
<polygon fill="#ffffff" stroke="transparent" points="-4,4 -4,-840 755.391,-840 755.391,4 -4,4"/>
<text text-anchor="middle" x="375.6955" y="-820.8" font-family="Times,serif" font-size="14.00" fill="#000000">/matrix_mult</text>
<g id="clust1" class="cluster">
<title>cluster_multiply</title>
<polygon fill="none" stroke="#000000" points="39.391,-8 39.391,-805 719.391,-805 719.391,-8 39.391,-8"/>
<text text-anchor="middle" x="379.391" y="-789.8" font-family="Times,serif" font-size="14.00" fill="#000000">/matrix_mult/multiply</text>
</g>
<!-- r0 -->
<g id="node1" class="node">
<title>r0</title>
<g id="a_node1"><a xlink:href="file:///home/andrew/workspace/flow/flowstdlib/data/info/info.toml" xlink:title="b_info (#0)">
<ellipse fill="#ff7f50" stroke="#000000" cx="563.391" cy="-631" rx="61.99" ry="18"/>
<text text-anchor="middle" x="563.391" y="-627.3" font-family="Times,serif" font-size="14.00" fill="#000000">b_info (#0)</text>
</a>
</g>
</g>
<!-- r4 -->
<g id="node3" class="node">
<title>r4</title>
<g id="a_node3"><a xlink:href="file:///home/andrew/workspace/flow/flowstdlib/data/duplicate/duplicate.toml" xlink:title="duplicate (#4)">
<ellipse fill="#ff7f50" stroke="#000000" cx="430.391" cy="-506" rx="77.1866" ry="18"/>
<text text-anchor="middle" x="430.391" y="-502.3" font-family="Times,serif" font-size="14.00" fill="#000000">duplicate (#4)</text>
</a>
</g>
</g>
<!-- r0&#45;&gt;r4 -->
<g id="edge2" class="edge">
<title>r0:se&#45;&gt;r4:ne</title>
<path fill="none" stroke="#000000" d="M580.391,-614C585.8335,-608.5575 487.2905,-549.5927 456.9261,-529.9334"/>
<polygon fill="#000000" stroke="#000000" points="458.5997,-526.8342 448.391,-524 454.6041,-532.5818 458.5997,-526.8342"/>
<text text-anchor="middle" x="426.891" y="-527.8" font-family="Times,serif" font-size="14.00" fill="#000000">factor</text>
<text text-anchor="middle" x="612.391" y="-602.8" font-family="Times,serif" font-size="14.00" fill="#000000">/columns</text>
</g>
<!-- r2 -->
<g id="node4" class="node">
<title>r2</title>
<g id="a_node4"><a xlink:href="file:///home/andrew/workspace/flow/flowstdlib/data/duplicate_rows/duplicate_rows.toml" xlink:title="duplicate_rows (#2)">
<ellipse fill="#ff7f50" stroke="#000000" cx="177.391" cy="-506" rx="103.9815" ry="18"/>
<text text-anchor="middle" x="177.391" y="-502.3" font-family="Times,serif" font-size="14.00" fill="#000000">duplicate_rows (#2)</text>
</a>
</g>
</g>
<!-- r0&#45;&gt;r2 -->
<g id="edge3" class="edge">
<title>r0:se&#45;&gt;r2:ne</title>
<path fill="none" stroke="#000000" d="M580.391,-614C594.7702,-599.6208 265.8651,-548.0412 204.6401,-528.1401"/>
<polygon fill="#000000" stroke="#000000" points="205.9483,-524.8911 195.391,-524 203.0884,-531.2802 205.9483,-524.8911"/>
<text text-anchor="middle" x="173.891" y="-527.8" font-family="Times,serif" font-size="14.00" fill="#000000">factor</text>
<text text-anchor="middle" x="548.391" y="-602.8" font-family="Times,serif" font-size="14.00" fill="#000000">/columns</text>
</g>
<!-- r6 -->
<g id="node5" class="node">
<title>r6</title>
<g id="a_node5"><a xlink:href="file:///home/andrew/workspace/flow/flowstdlib/data/accumulate/accumulate.toml" xlink:title="compose_rows (#6)">
<ellipse fill="#ff7f50" stroke="#000000" cx="173.391" cy="-270" rx="101.2821" ry="18"/>
<text text-anchor="middle" x="173.391" y="-266.3" font-family="Times,serif" font-size="14.00" fill="#000000">compose_rows (#6)</text>
</a>
</g>
</g>
<!-- r0&#45;&gt;r6 -->
<g id="edge4" class="edge">
<title>r0:se&#45;&gt;r6:nw</title>
<path fill="none" stroke="#000000" d="M580.391,-614C665.1914,-529.1996 551.3482,-443.2629 451.391,-377 438.7837,-368.6425 209.2953,-315.3736 163.0903,-294.5004"/>
<polygon fill="#000000" stroke="#000000" points="165.2898,-291.7768 155.391,-288 160.774,-297.1255 165.2898,-291.7768"/>
<text text-anchor="middle" x="116.391" y="-291.8" font-family="Times,serif" font-size="14.00" fill="#000000">chunk_size</text>
<text text-anchor="middle" x="612.391" y="-617.8" font-family="Times,serif" font-size="14.00" fill="#000000">/columns</text>
</g>
<!-- initializerr0_0 -->
<!-- initializerr0_0&#45;&gt;r0 -->
<g id="edge1" class="edge">
<title>initializerr0_0&#45;&gt;r0:w</title>
<path fill="none" stroke="#0000ff" stroke-dasharray="1,5" d="M494.083,-737.8239C482.2763,-706.2702 463.0499,-643.6628 491.5144,-632.6678"/>
<polygon fill="#0000ff" stroke="#0000ff" points="492.1134,-636.1163 501.391,-631 490.9478,-629.214 492.1134,-636.1163"/>
<text text-anchor="middle" x="522.391" y="-689.8" font-family="Times,serif" font-size="14.00" fill="#000000">[[5,6],[7,8]]</text>
</g>
<!-- r5 -->
<g id="node10" class="node">
<title>r5</title>
<g id="a_node10"><a xlink:href="file:///home/andrew/workspace/flow/flowstdlib/data/multiply_row/multiply_row.toml" xlink:title="multiply (#5)">
<ellipse fill="#ff7f50" stroke="#000000" cx="342.391" cy="-395" rx="72.5877" ry="18"/>
<text text-anchor="middle" x="342.391" y="-391.3" font-family="Times,serif" font-size="14.00" fill="#000000">multiply (#5)</text>
</a>
</g>
</g>
<!-- r4&#45;&gt;r5 -->
<g id="edge11" class="edge">
<title>r4:e&#45;&gt;r5:ne</title>
<path fill="none" stroke="#000000" d="M508.391,-506C516.391,-506 512.5785,-494.8165 508.391,-488 471.6767,-428.2354 418.0813,-461.4844 368.063,-420.002"/>
<polygon fill="#000000" stroke="#000000" points="370.1367,-417.156 360.391,-413 365.4178,-422.3264 370.1367,-417.156"/>
<text text-anchor="middle" x="355.391" y="-416.8" font-family="Times,serif" font-size="14.00" fill="#000000">b</text>
</g>
<!-- r2&#45;&gt;r5 -->
<g id="edge8" class="edge">
<title>r2:e&#45;&gt;r5:n</title>
<path fill="none" stroke="#000000" d="M281.391,-506C303.3068,-506 334.3188,-452.3101 341.0637,-422.9142"/>
<polygon fill="#000000" stroke="#000000" points="344.533,-423.376 342.391,-413 337.5949,-422.4471 344.533,-423.376"/>
<text text-anchor="middle" x="337.891" y="-416.8" font-family="Times,serif" font-size="14.00" fill="#000000">a</text>
</g>
<!-- r6&#45;&gt;r6 -->
<g id="edge14" class="edge">
<title>r6:e&#45;&gt;r6:ne</title>
<path fill="none" stroke="#000000" d="M275.391,-270C298.782,-261 346.782,-261 346.782,-279 346.782,-295.9805 259.9305,-296.9423 201.57,-289.441"/>
<polygon fill="#000000" stroke="#000000" points="201.7829,-285.9364 191.391,-288 200.8016,-292.8672 201.7829,-285.9364"/>
<text text-anchor="middle" x="215.391" y="-291.8" font-family="Times,serif" font-size="14.00" fill="#000000">partial</text>
<text text-anchor="middle" x="301.391" y="-273.8" font-family="Times,serif" font-size="14.00" fill="#000000">/partial</text>
</g>
<!-- r6&#45;&gt;r6 -->
<g id="edge15" class="edge">
<title>r6:s&#45;&gt;r6:nw</title>
<path fill="none" stroke="#000000" d="M173.391,-252C115.594,-243 0,-243 0,-270 0,-295.4707 86.8515,-296.9134 145.212,-289.4394"/>
<polygon fill="#000000" stroke="#000000" points="145.9796,-292.8658 155.391,-288 144.9994,-285.9347 145.9796,-292.8658"/>
<text text-anchor="middle" x="194.391" y="-291.8" font-family="Times,serif" font-size="14.00" fill="#000000">chunk_size</text>
<text text-anchor="middle" x="132.391" y="-240.8" font-family="Times,serif" font-size="14.00" fill="#000000">/chunk_size</text>
</g>
<!-- r7 -->
<g id="node8" class="node">
<title>r7</title>
<g id="a_node8"><a xlink:href="file:///home/andrew/workspace/flow/flowstdlib/data/accumulate/accumulate.toml" xlink:title="compose_matrix (#7)">
<ellipse fill="#ff7f50" stroke="#000000" cx="440.391" cy="-145" rx="109.6807" ry="18"/>
<text text-anchor="middle" x="440.391" y="-141.3" font-family="Times,serif" font-size="14.00" fill="#000000">compose_matrix (#7)</text>
</a>
</g>
</g>
<!-- r6&#45;&gt;r7 -->
<g id="edge16" class="edge">
<title>r6:s&#45;&gt;r7:n</title>
<path fill="none" stroke="#000000" d="M173.391,-252C173.391,-237.9828 387.9747,-190.1363 432.4002,-169.1154"/>
<polygon fill="#000000" stroke="#000000" points="434.5768,-171.857 440.391,-163 430.3226,-166.2981 434.5768,-171.857"/>
<text text-anchor="middle" x="417.391" y="-166.8" font-family="Times,serif" font-size="14.00" fill="#000000">values</text>
<text text-anchor="middle" x="197.391" y="-240.8" font-family="Times,serif" font-size="14.00" fill="#000000">/chunk</text>
</g>
<!-- r1 -->
<g id="node6" class="node">
<title>r1</title>
<g id="a_node6"><a xlink:href="file:///home/andrew/workspace/flow/flowstdlib/data/info/info.toml" xlink:title="a_info (#1)">
<ellipse fill="#ff7f50" stroke="#000000" cx="649.391" cy="-270" rx="61.99" ry="18"/>
<text text-anchor="middle" x="649.391" y="-266.3" font-family="Times,serif" font-size="14.00" fill="#000000">a_info (#1)</text>
</a>
</g>
</g>
<!-- r1&#45;&gt;r7 -->
<g id="edge6" class="edge">
<title>r1:e&#45;&gt;r7:nw</title>
<path fill="none" stroke="#000000" d="M711.391,-270C719.391,-270 716.143,-258.4357 711.391,-252 674.1254,-201.5311 413.1347,-209.1403 417.3013,-171.7083"/>
<polygon fill="#000000" stroke="#000000" points="420.3667,-173.3997 422.391,-163 414.3232,-169.8675 420.3667,-173.3997"/>
<text text-anchor="middle" x="461.391" y="-166.8" font-family="Times,serif" font-size="14.00" fill="#000000">chunk_size</text>
<text text-anchor="middle" x="731.391" y="-273.8" font-family="Times,serif" font-size="14.00" fill="#000000">/rows</text>
</g>
<!-- initializerr1_0 -->
<!-- initializerr1_0&#45;&gt;r1 -->
<g id="edge5" class="edge">
<title>initializerr1_0&#45;&gt;r1:w</title>
<path fill="none" stroke="#0000ff" stroke-dasharray="1,5" d="M621.6283,-377.0905C596.6282,-345.6323 551.122,-282.7257 577.4165,-271.6762"/>
<polygon fill="#0000ff" stroke="#0000ff" points="578.1093,-275.1089 587.391,-270 576.9492,-268.2057 578.1093,-275.1089"/>
<text text-anchor="middle" x="634.391" y="-328.8" font-family="Times,serif" font-size="14.00" fill="#000000">[[1,2],[3,4]]</text>
</g>
<!-- r7&#45;&gt;r7 -->
<g id="edge18" class="edge">
<title>r7:e&#45;&gt;r7:ne</title>
<path fill="none" stroke="#000000" d="M550.391,-145C574.2313,-136 622.2313,-136 622.2313,-154 622.2313,-171.0508 529.6046,-171.9499 468.3144,-164.3474"/>
<polygon fill="#000000" stroke="#000000" points="468.771,-160.8774 458.391,-163 467.8291,-167.8137 468.771,-160.8774"/>
<text text-anchor="middle" x="482.391" y="-166.8" font-family="Times,serif" font-size="14.00" fill="#000000">partial</text>
<text text-anchor="middle" x="576.391" y="-148.8" font-family="Times,serif" font-size="14.00" fill="#000000">/partial</text>
</g>
<!-- r7&#45;&gt;r7 -->
<g id="edge19" class="edge">
<title>r7:s&#45;&gt;r7:nw</title>
<path fill="none" stroke="#000000" d="M440.391,-127C379.7776,-118 258.5507,-118 258.5507,-145 258.5507,-170.5762 351.1774,-171.9249 412.4676,-164.3461"/>
<polygon fill="#000000" stroke="#000000" points="412.9523,-167.8125 422.391,-163 412.0113,-160.876 412.9523,-167.8125"/>
<text text-anchor="middle" x="383.391" y="-166.8" font-family="Times,serif" font-size="14.00" fill="#000000">chunk_size</text>
<text text-anchor="middle" x="399.391" y="-115.8" font-family="Times,serif" font-size="14.00" fill="#000000">/chunk_size</text>
</g>
<!-- r8 -->
<g id="node15" class="node">
<title>r8</title>
<g id="a_node15"><a xlink:href="file:///home/andrew/workspace/flow/flowruntime/stdio/stdout.toml" xlink:title="print (#8)">
<ellipse fill="#ff7f50" stroke="#000000" cx="440.391" cy="-34" rx="57.3905" ry="18"/>
<text text-anchor="middle" x="440.391" y="-30.3" font-family="Times,serif" font-size="14.00" fill="#000000">print (#8)</text>
</a>
</g>
</g>
<!-- r7&#45;&gt;r8 -->
<g id="edge20" class="edge">
<title>r7:s&#45;&gt;r8:n</title>
<path fill="none" stroke="#000000" d="M440.391,-127C440.391,-97.3125 440.391,-87.4553 440.391,-62.1057"/>
<polygon fill="#000000" stroke="#000000" points="443.8911,-62 440.391,-52 436.8911,-62 443.8911,-62"/>
<text text-anchor="middle" x="464.391" y="-115.8" font-family="Times,serif" font-size="14.00" fill="#000000">/chunk</text>
</g>
<!-- initializerr2_0 -->
<!-- initializerr2_0&#45;&gt;r2 -->
<g id="edge7" class="edge">
<title>initializerr2_0&#45;&gt;r2:w</title>
<path fill="none" stroke="#0000ff" stroke-dasharray="1,5" d="M107.6283,-613.0905C82.6282,-581.6323 37.122,-518.7257 63.4165,-507.6762"/>
<polygon fill="#0000ff" stroke="#0000ff" points="64.1093,-511.1089 73.391,-506 62.9492,-504.2057 64.1093,-511.1089"/>
<text text-anchor="middle" x="120.391" y="-564.8" font-family="Times,serif" font-size="14.00" fill="#000000">[[1,2],[3,4]]</text>
</g>
<!-- r5&#45;&gt;r6 -->
<g id="edge12" class="edge">
<title>r5:e&#45;&gt;r6:n</title>
<path fill="none" stroke="#000000" d="M415.391,-395C423.391,-395 419.9686,-383.5609 415.391,-377 400.5985,-355.7986 215.4596,-323.7204 179.4407,-296.6081"/>
<polygon fill="#000000" stroke="#000000" points="182.0045,-294.1691 173.391,-288 176.2774,-298.1941 182.0045,-294.1691"/>
<text text-anchor="middle" x="150.391" y="-276.8" font-family="Times,serif" font-size="14.00" fill="#000000">values</text>
</g>
<!-- r3 -->
<g id="node11" class="node">
<title>r3</title>
<g id="a_node11"><a xlink:href="file:///home/andrew/workspace/flow/flowstdlib/data/transpose/transpose.toml" xlink:title="transpose (#3)">
<ellipse fill="#ff7f50" stroke="#000000" cx="349.391" cy="-631" rx="79.8859" ry="18"/>
<text text-anchor="middle" x="349.391" y="-627.3" font-family="Times,serif" font-size="14.00" fill="#000000">transpose (#3)</text>
</a>
</g>
</g>
<!-- r3&#45;&gt;r4 -->
<g id="edge10" class="edge">
<title>r3:e&#45;&gt;r4:n</title>
<path fill="none" stroke="#000000" d="M429.391,-631C437.391,-631 432.234,-620.4778 429.391,-613 425.5871,-602.9951 417.1949,-605.0049 413.391,-595 403.1661,-568.1064 424.441,-558.5942 429.3923,-534.1618"/>
<polygon fill="#000000" stroke="#000000" points="432.8961,-534.2944 430.391,-524 425.9296,-533.6097 432.8961,-534.2944"/>
<text text-anchor="middle" x="449.891" y="-527.8" font-family="Times,serif" font-size="14.00" fill="#000000">value</text>
</g>
<!-- initializerr3_0 -->
<!-- initializerr3_0&#45;&gt;r3 -->
<g id="edge9" class="edge">
<title>initializerr3_0&#45;&gt;r3:w</title>
<path fill="none" stroke="#0000ff" stroke-dasharray="1,5" d="M262.083,-737.8239C250.2763,-706.2702 231.0499,-643.6628 259.5144,-632.6678"/>
<polygon fill="#0000ff" stroke="#0000ff" points="260.1134,-636.1163 269.391,-631 258.9478,-629.214 260.1134,-636.1163"/>
<text text-anchor="middle" x="290.391" y="-689.8" font-family="Times,serif" font-size="14.00" fill="#000000">[[5,6],[7,8]]</text>
</g>
<!-- initializerr6_1 -->
<!-- initializerr6_1&#45;&gt;r6 -->
<g id="edge13" class="edge">
<title>initializerr6_1&#45;&gt;r6:n</title>
<path fill="none" stroke="#0000ff" stroke-dasharray="1,5" d="M136.8691,-377.2906C150.4745,-358.9901 169.2634,-328.828 172.8034,-298.0134"/>
<polygon fill="#0000ff" stroke="#0000ff" points="176.2991,-298.1879 173.391,-288 169.3111,-297.7778 176.2991,-298.1879"/>
<text text-anchor="middle" x="170.891" y="-328.8" font-family="Times,serif" font-size="14.00" fill="#000000">[]</text>
</g>
<!-- initializerr7_1 -->
<!-- initializerr7_1&#45;&gt;r7 -->
<g id="edge17" class="edge">
<title>initializerr7_1&#45;&gt;r7:n</title>
<path fill="none" stroke="#0000ff" stroke-dasharray="1,5" d="M440.391,-251.8249C440.391,-232.782 440.391,-201.7041 440.391,-173.0217"/>
<polygon fill="#0000ff" stroke="#0000ff" points="443.8911,-173 440.391,-163 436.8911,-173 443.8911,-173"/>
<text text-anchor="middle" x="445.891" y="-203.8" font-family="Times,serif" font-size="14.00" fill="#000000">[]</text>
</g>
</g>
</svg>
