<?xml version="1.0" encoding="UTF-8" standalone="no"?>
<!DOCTYPE svg PUBLIC "-//W3C//DTD SVG 1.1//EN"
 "http://www.w3.org/Graphics/SVG/1.1/DTD/svg11.dtd">
<!-- Generated by graphviz version 2.40.1 (20161225.0304)
 -->
<!-- Title: matrix_mult Pages: 1 -->
<svg width="1472pt" height="1001pt"
 viewBox="0.00 0.00 1472.00 1001.00" xmlns="http://www.w3.org/2000/svg" xmlns:xlink="http://www.w3.org/1999/xlink">
<g id="graph0" class="graph" transform="scale(1 1) rotate(0) translate(4 997)">
<title>matrix_mult</title>
<polygon fill="#ffffff" stroke="transparent" points="-4,4 -4,-997 1468,-997 1468,4 -4,4"/>
<text text-anchor="middle" x="732" y="-977.8" font-family="Times,serif" font-size="14.00" fill="#000000">/matrix_mult</text>
<g id="clust1" class="cluster">
<title>cluster_select_0</title>
<polygon fill="none" stroke="#000000" points="840,-480 840,-868 1456,-868 1456,-480 840,-480"/>
<text text-anchor="middle" x="1148" y="-852.8" font-family="Times,serif" font-size="14.00" fill="#000000">/matrix_mult/select_0</text>
</g>
<g id="clust2" class="cluster">
<title>cluster_select_1</title>
<polygon fill="none" stroke="#000000" points="8,-574 8,-962 624,-962 624,-574 8,-574"/>
<text text-anchor="middle" x="316" y="-946.8" font-family="Times,serif" font-size="14.00" fill="#000000">/matrix_mult/select_1</text>
</g>
<g id="clust3" class="cluster">
<title>cluster_multiply</title>
<polygon fill="none" stroke="#000000" points="368,-8 368,-555 832,-555 832,-8 368,-8"/>
<text text-anchor="middle" x="600" y="-539.8" font-family="Times,serif" font-size="14.00" fill="#000000">/matrix_mult/multiply</text>
</g>
<!-- r3 -->
<g id="node1" class="node">
<title>r3</title>
<g id="a_node1"><a xlink:href="file:///home/travis/build/andrewdavidmackenzie/flow/flowr/src/lib/flowruntime/stdio/readline.html" xlink:title="readline (#3)">
<ellipse fill="#ff7f50" stroke="#000000" cx="704" cy="-819" rx="72.2875" ry="18"/>
<text text-anchor="middle" x="704" y="-815.3" font-family="Times,serif" font-size="14.00" fill="#000000">readline (#3)</text>
</a>
</g>
</g>
<!-- r2 -->
<g id="node2" class="node">
<title>r2</title>
<g id="a_node2"><a xlink:href="file:///home/travis/build/andrewdavidmackenzie/flow/flowstdlib/control/index/index.html" xlink:title="index (#2)">
<ellipse fill="#ff7f50" stroke="#000000" cx="1097" cy="-673" rx="59.5901" ry="18"/>
<text text-anchor="middle" x="1097" y="-669.3" font-family="Times,serif" font-size="14.00" fill="#000000">index (#2)</text>
</a>
</g>
</g>
<!-- r3&#45;&gt;r2 -->
<g id="edge1" class="edge">
<title>r3:e&#45;&gt;r2:n</title>
<path fill="none" stroke="#000000" d="M776,-819C788.2072,-819 964.5834,-732.3217 976,-728 981.4699,-725.9294 1061.603,-706.5565 1088.3683,-696.0579"/>
<polygon fill="#000000" stroke="#000000" points="1090.1416,-699.0755 1097,-691 1086.6026,-693.036 1090.1416,-699.0755"/>
<text text-anchor="middle" x="1077.5" y="-694.8" font-family="Times,serif" font-size="14.00" fill="#000000">value</text>
<text text-anchor="middle" x="793" y="-822.8" font-family="Times,serif" font-size="14.00" fill="#000000">/json</text>
</g>
<!-- r0 -->
<g id="node3" class="node">
<title>r0</title>
<g id="a_node3"><a xlink:href="file:///home/travis/build/andrewdavidmackenzie/flow/flowstdlib/control/index/index.html" xlink:title="index (#0)">
<ellipse fill="#ff7f50" stroke="#000000" cx="369" cy="-746" rx="59.5901" ry="18"/>
<text text-anchor="middle" x="369" y="-742.3" font-family="Times,serif" font-size="14.00" fill="#000000">index (#0)</text>
</a>
</g>
</g>
<!-- r3&#45;&gt;r0 -->
<g id="edge2" class="edge">
<title>r3:e&#45;&gt;r0:n</title>
<path fill="none" stroke="#000000" d="M776,-819C784,-819 781.3947,-806.9074 776,-801 769.0475,-793.3868 439.0166,-778.4471 378.4835,-767.2643"/>
<polygon fill="#000000" stroke="#000000" points="379.5947,-763.9453 369,-764 377.3164,-770.5642 379.5947,-763.9453"/>
<text text-anchor="middle" x="349.5" y="-767.8" font-family="Times,serif" font-size="14.00" fill="#000000">value</text>
<text text-anchor="middle" x="793" y="-807.8" font-family="Times,serif" font-size="14.00" fill="#000000">/json</text>
</g>
<!-- r2&#45;&gt;r2 -->
<g id="edge6" class="edge">
<title>r2:sw&#45;&gt;r2:ne</title>
<path fill="none" stroke="#000000" d="M1079,-655C965.2053,-667 965.2053,-709 1097,-709 1224.8048,-709 1228.6739,-697.7156 1125.0215,-691.5609"/>
<polygon fill="#000000" stroke="#000000" points="1125.18,-688.0644 1115,-691 1124.7887,-695.0535 1125.18,-688.0644"/>
<text text-anchor="middle" x="1169" y="-694.8" font-family="Times,serif" font-size="14.00" fill="#000000">previous_value</text>
<text text-anchor="middle" x="1057.5" y="-643.8" font-family="Times,serif" font-size="14.00" fill="#000000">/value</text>
</g>
<!-- r2&#45;&gt;r2 -->
<g id="edge7" class="edge">
<title>r2:s&#45;&gt;r2:nw</title>
<path fill="none" stroke="#000000" d="M1097,-655C1053.0684,-646 965.2053,-646 965.2053,-673 965.2053,-698.0488 1025.3359,-699.859 1069.1057,-692.8034"/>
<polygon fill="#000000" stroke="#000000" points="1069.7897,-696.2365 1079,-691 1068.5345,-689.3499 1069.7897,-696.2365"/>
<text text-anchor="middle" x="1024.5" y="-694.8" font-family="Times,serif" font-size="14.00" fill="#000000">previous_index</text>
<text text-anchor="middle" x="1119" y="-643.8" font-family="Times,serif" font-size="14.00" fill="#000000">/index</text>
</g>
<!-- r8 -->
<g id="node7" class="node">
<title>r8</title>
<g id="a_node7"><a xlink:href="file:///home/travis/build/andrewdavidmackenzie/flow/flowstdlib/data/info/info.html" xlink:title="a_info (#8)">
<ellipse fill="#ff7f50" stroke="#000000" cx="1191" cy="-506" rx="61.99" ry="18"/>
<text text-anchor="middle" x="1191" y="-502.3" font-family="Times,serif" font-size="14.00" fill="#000000">a_info (#8)</text>
</a>
</g>
</g>
<!-- r2&#45;&gt;r8 -->
<g id="edge8" class="edge">
<title>r2:e&#45;&gt;r8:n</title>
<path fill="none" stroke="#000000" d="M1157,-673C1221.6078,-673 1194.0701,-599.6487 1191.2268,-534.033"/>
<polygon fill="#000000" stroke="#000000" points="1194.7252,-533.9183 1191,-524 1187.727,-534.0766 1194.7252,-533.9183"/>
<text text-anchor="middle" x="1212.5" y="-676.8" font-family="Times,serif" font-size="14.00" fill="#000000">/selected_value</text>
</g>
<!-- r6 -->
<g id="node8" class="node">
<title>r6</title>
<g id="a_node8"><a xlink:href="file:///home/travis/build/andrewdavidmackenzie/flow/flowstdlib/data/duplicate_rows/duplicate_rows.html" xlink:title="duplicate_rows (#6)">
<ellipse fill="#ff7f50" stroke="#000000" cx="953" cy="-506" rx="104.7816" ry="18"/>
<text text-anchor="middle" x="953" y="-502.3" font-family="Times,serif" font-size="14.00" fill="#000000">duplicate_rows (#6)</text>
</a>
</g>
</g>
<!-- r2&#45;&gt;r6 -->
<g id="edge9" class="edge">
<title>r2:e&#45;&gt;r6:n</title>
<path fill="none" stroke="#000000" d="M1157,-673C1165,-673 1160.8352,-662.0207 1157,-655 1107.0587,-563.5782 963.0056,-627.1982 953.4946,-534.1534"/>
<polygon fill="#000000" stroke="#000000" points="956.9825,-533.8178 953,-524 949.9908,-534.1585 956.9825,-533.8178"/>
<text text-anchor="middle" x="1212.5" y="-661.8" font-family="Times,serif" font-size="14.00" fill="#000000">/selected_value</text>
</g>
<!-- r0&#45;&gt;r0 -->
<g id="edge13" class="edge">
<title>r0:sw&#45;&gt;r0:ne</title>
<path fill="none" stroke="#000000" d="M351,-728C237.2053,-740 237.2053,-782 369,-782 496.8048,-782 500.6739,-770.7156 397.0215,-764.5609"/>
<polygon fill="#000000" stroke="#000000" points="397.18,-761.0644 387,-764 396.7887,-768.0535 397.18,-761.0644"/>
<text text-anchor="middle" x="441" y="-767.8" font-family="Times,serif" font-size="14.00" fill="#000000">previous_value</text>
<text text-anchor="middle" x="329.5" y="-716.8" font-family="Times,serif" font-size="14.00" fill="#000000">/value</text>
</g>
<!-- r0&#45;&gt;r0 -->
<g id="edge14" class="edge">
<title>r0:s&#45;&gt;r0:nw</title>
<path fill="none" stroke="#000000" d="M369,-728C325.0684,-719 237.2053,-719 237.2053,-746 237.2053,-771.0488 297.3359,-772.859 341.1057,-765.8034"/>
<polygon fill="#000000" stroke="#000000" points="341.7897,-769.2365 351,-764 340.5345,-762.3499 341.7897,-769.2365"/>
<text text-anchor="middle" x="296.5" y="-767.8" font-family="Times,serif" font-size="14.00" fill="#000000">previous_index</text>
<text text-anchor="middle" x="391" y="-716.8" font-family="Times,serif" font-size="14.00" fill="#000000">/index</text>
</g>
<!-- r7 -->
<g id="node12" class="node">
<title>r7</title>
<g id="a_node12"><a xlink:href="file:///home/travis/build/andrewdavidmackenzie/flow/flowstdlib/data/info/info.html" xlink:title="b_info (#7)">
<ellipse fill="#ff7f50" stroke="#000000" cx="486" cy="-600" rx="62.2891" ry="18"/>
<text text-anchor="middle" x="486" y="-596.3" font-family="Times,serif" font-size="14.00" fill="#000000">b_info (#7)</text>
</a>
</g>
</g>
<!-- r0&#45;&gt;r7 -->
<g id="edge15" class="edge">
<title>r0:e&#45;&gt;r7:n</title>
<path fill="none" stroke="#000000" d="M429,-746C487.8689,-746 486.3749,-687.2667 486.0354,-628.2366"/>
<polygon fill="#000000" stroke="#000000" points="489.5347,-627.9878 486,-618 482.5347,-628.0121 489.5347,-627.9878"/>
<text text-anchor="middle" x="484.5" y="-749.8" font-family="Times,serif" font-size="14.00" fill="#000000">/selected_value</text>
</g>
<!-- r11 -->
<g id="node13" class="node">
<title>r11</title>
<g id="a_node13"><a xlink:href="file:///home/travis/build/andrewdavidmackenzie/flow/flowstdlib/data/transpose/transpose.html" xlink:title="transpose (#11)">
<ellipse fill="#ff7f50" stroke="#000000" cx="198" cy="-600" rx="85.5853" ry="18"/>
<text text-anchor="middle" x="198" y="-596.3" font-family="Times,serif" font-size="14.00" fill="#000000">transpose (#11)</text>
</a>
</g>
</g>
<!-- r0&#45;&gt;r11 -->
<g id="edge16" class="edge">
<title>r0:e&#45;&gt;r11:n</title>
<path fill="none" stroke="#000000" d="M429,-746C437,-746 433.2711,-734.7645 429,-728 370.1877,-634.8542 208.5361,-725.6626 198.4904,-628.0474"/>
<polygon fill="#000000" stroke="#000000" points="201.9834,-627.8175 198,-618 194.9917,-628.1588 201.9834,-627.8175"/>
<text text-anchor="middle" x="484.5" y="-734.8" font-family="Times,serif" font-size="14.00" fill="#000000">/selected_value</text>
</g>
<!-- initializerr2_1 -->
<!-- initializerr2_1&#45;&gt;r2 -->
<g id="edge3" class="edge">
<title>initializerr2_1&#45;&gt;r2:nw</title>
<path fill="none" stroke="#0000ff" stroke-dasharray="1,5" d="M1126.3988,-801.6803C1098.0323,-777.1203 1053.9218,-731.5434 1072.7964,-698.9782"/>
<polygon fill="#0000ff" stroke="#0000ff" points="1075.6246,-701.0428 1079,-691 1070.0986,-696.7459 1075.6246,-701.0428"/>
<text text-anchor="middle" x="1097.5" y="-742.3" font-family="Times,serif" font-size="14.00" fill="#000000">42</text>
</g>
<!-- initializerr2_2 -->
<!-- initializerr2_2&#45;&gt;r2 -->
<g id="edge4" class="edge">
<title>initializerr2_2&#45;&gt;r2:ne</title>
<path fill="none" stroke="#0000ff" stroke-dasharray="1,5" d="M1323.2668,-805.1761C1269.2494,-787.7956 1181.9209,-753.3662 1122.4703,-698.1933"/>
<polygon fill="#0000ff" stroke="#0000ff" points="1124.6311,-695.4151 1115,-691 1119.7757,-700.4575 1124.6311,-695.4151"/>
<text text-anchor="middle" x="1226" y="-742.3" font-family="Times,serif" font-size="14.00" fill="#000000">&#45;1</text>
</g>
<!-- initializerr2_3 -->
<!-- initializerr2_3&#45;&gt;r2 -->
<g id="edge5" class="edge">
<title>initializerr2_3&#45;&gt;r2:n</title>
<path fill="none" stroke="#0000ff" d="M945.8602,-801.4594C969.3071,-782.8077 1007.7917,-752.6576 1042,-728 1062.5386,-713.1956 1088.3954,-718.2685 1095.2614,-701.29"/>
<polygon fill="#0000ff" stroke="#0000ff" points="1098.7851,-701.4434 1097,-691 1091.8829,-700.2771 1098.7851,-701.4434"/>
<text text-anchor="middle" x="1047" y="-742.3" font-family="Times,serif" font-size="14.00" fill="#000000">0</text>
</g>
<!-- r9 -->
<g id="node16" class="node">
<title>r9</title>
<g id="a_node16"><a xlink:href="file:///home/travis/build/andrewdavidmackenzie/flow/flowstdlib/data/accumulate/accumulate.html" xlink:title="compose_matrix (#9)">
<ellipse fill="#ff7f50" stroke="#000000" cx="696" cy="-145" rx="110.4804" ry="18"/>
<text text-anchor="middle" x="696" y="-141.3" font-family="Times,serif" font-size="14.00" fill="#000000">compose_matrix (#9)</text>
</a>
</g>
</g>
<!-- r8&#45;&gt;r9 -->
<g id="edge20" class="edge">
<title>r8:e&#45;&gt;r9:nw</title>
<path fill="none" stroke="#000000" d="M1253,-506C1261,-506 1258.2594,-494.0282 1253,-488 1212.5973,-441.691 979,-511.9565 979,-450.5 979,-450.5 979,-450.5 979,-207.5 979,-145.1666 682.5612,-200.5748 673.7011,-172.1544"/>
<polygon fill="#000000" stroke="#000000" points="676.9173,-173.5394 678,-163 670.5812,-170.5639 676.9173,-173.5394"/>
<text text-anchor="middle" x="638" y="-166.8" font-family="Times,serif" font-size="14.00" fill="#000000">chunk_size</text>
<text text-anchor="middle" x="1273" y="-509.8" font-family="Times,serif" font-size="14.00" fill="#000000">/rows</text>
</g>
<!-- r4 -->
<g id="node17" class="node">
<title>r4</title>
<g id="a_node17"><a xlink:href="file:///home/travis/build/andrewdavidmackenzie/flow/flowstdlib/data/multiply_row/multiply_row.html" xlink:title="multiply (#4)">
<ellipse fill="#ff7f50" stroke="#000000" cx="751" cy="-395" rx="72.5877" ry="18"/>
<text text-anchor="middle" x="751" y="-391.3" font-family="Times,serif" font-size="14.00" fill="#000000">multiply (#4)</text>
</a>
</g>
</g>
<!-- r6&#45;&gt;r4 -->
<g id="edge21" class="edge">
<title>r6:e&#45;&gt;r4:n</title>
<path fill="none" stroke="#000000" d="M1058,-506C1066,-506 1063.2669,-494.0216 1058,-488 1038.2195,-465.3848 953.2818,-476.7297 924,-470 848.6463,-452.6817 759.4238,-490.295 751.5598,-423.1816"/>
<polygon fill="#000000" stroke="#000000" points="755.0438,-422.7928 751,-413 748.0543,-423.1771 755.0438,-422.7928"/>
<text text-anchor="middle" x="746.5" y="-416.8" font-family="Times,serif" font-size="14.00" fill="#000000">a</text>
</g>
<!-- initializerr0_1 -->
<!-- initializerr0_1&#45;&gt;r0 -->
<g id="edge10" class="edge">
<title>initializerr0_1&#45;&gt;r0:nw</title>
<path fill="none" stroke="#0000ff" stroke-dasharray="1,5" d="M314.6195,-894.5232C313.4471,-865.3304 315.3678,-808.1355 344.0282,-771.8523"/>
<polygon fill="#0000ff" stroke="#0000ff" points="346.9778,-773.8017 351,-764 341.7433,-769.1541 346.9778,-773.8017"/>
<text text-anchor="middle" x="336.5" y="-815.3" font-family="Times,serif" font-size="14.00" fill="#000000">42</text>
</g>
<!-- initializerr0_2 -->
<!-- initializerr0_2&#45;&gt;r0 -->
<g id="edge11" class="edge">
<title>initializerr0_2&#45;&gt;r0:ne</title>
<path fill="none" stroke="#0000ff" stroke-dasharray="1,5" d="M521.476,-895.2663C493.9584,-868.8575 440.5317,-817.3342 394.0922,-771.0779"/>
<polygon fill="#0000ff" stroke="#0000ff" points="396.5506,-768.5866 387,-764 391.6058,-773.5413 396.5506,-768.5866"/>
<text text-anchor="middle" x="499" y="-815.3" font-family="Times,serif" font-size="14.00" fill="#000000">&#45;1</text>
</g>
<!-- initializerr0_3 -->
<!-- initializerr0_3&#45;&gt;r0 -->
<g id="edge12" class="edge">
<title>initializerr0_3&#45;&gt;r0:n</title>
<path fill="none" stroke="#0000ff" d="M119.1299,-896.1312C156.1922,-873.3674 225.02,-832.0878 286,-801 318.4683,-784.4476 359.9221,-800.5259 367.7089,-774.1504"/>
<polygon fill="#0000ff" stroke="#0000ff" points="371.2101,-774.3617 369,-764 364.2661,-773.4784 371.2101,-774.3617"/>
<text text-anchor="middle" x="291" y="-815.3" font-family="Times,serif" font-size="14.00" fill="#000000">1</text>
</g>
<!-- r7&#45;&gt;r6 -->
<g id="edge18" class="edge">
<title>r7:se&#45;&gt;r6:ne</title>
<path fill="none" stroke="#000000" d="M504,-582C530.797,-555.203 806.5833,-561.0125 844,-555 897.3322,-546.43 996.7781,-562.5107 977.486,-531.8015"/>
<polygon fill="#000000" stroke="#000000" points="980.0844,-529.452 971,-524 974.7017,-533.9272 980.0844,-529.452"/>
<text text-anchor="middle" x="949.5" y="-527.8" font-family="Times,serif" font-size="14.00" fill="#000000">factor</text>
<text text-anchor="middle" x="471.5" y="-570.8" font-family="Times,serif" font-size="14.00" fill="#000000">/columns</text>
</g>
<!-- r10 -->
<g id="node14" class="node">
<title>r10</title>
<g id="a_node14"><a xlink:href="file:///home/travis/build/andrewdavidmackenzie/flow/flowstdlib/data/duplicate/duplicate.html" xlink:title="duplicate (#10)">
<ellipse fill="#ff7f50" stroke="#000000" cx="537" cy="-506" rx="83.3857" ry="18"/>
<text text-anchor="middle" x="537" y="-502.3" font-family="Times,serif" font-size="14.00" fill="#000000">duplicate (#10)</text>
</a>
</g>
</g>
<!-- r7&#45;&gt;r10 -->
<g id="edge17" class="edge">
<title>r7:se&#45;&gt;r10:ne</title>
<path fill="none" stroke="#000000" d="M504,-582C525.2381,-560.7619 566.9397,-550.8676 560.7729,-532.4654"/>
<polygon fill="#000000" stroke="#000000" points="563.5257,-530.2899 555,-524 557.7424,-534.2338 563.5257,-530.2899"/>
<text text-anchor="middle" x="533.5" y="-527.8" font-family="Times,serif" font-size="14.00" fill="#000000">factor</text>
<text text-anchor="middle" x="536.5" y="-570.8" font-family="Times,serif" font-size="14.00" fill="#000000">/columns</text>
</g>
<!-- r5 -->
<g id="node15" class="node">
<title>r5</title>
<g id="a_node15"><a xlink:href="file:///home/travis/build/andrewdavidmackenzie/flow/flowstdlib/data/accumulate/accumulate.html" xlink:title="compose_rows (#5)">
<ellipse fill="#ff7f50" stroke="#000000" cx="703" cy="-270" rx="102.8821" ry="18"/>
<text text-anchor="middle" x="703" y="-266.3" font-family="Times,serif" font-size="14.00" fill="#000000">compose_rows (#5)</text>
</a>
</g>
</g>
<!-- r7&#45;&gt;r5 -->
<g id="edge19" class="edge">
<title>r7:se&#45;&gt;r5:nw</title>
<path fill="none" stroke="#000000" d="M504,-582C532.3279,-553.6721 454.1137,-572.3418 418,-555 382.7751,-538.085 345,-545.0757 345,-506 345,-506 345,-506 345,-332.5 345,-259.5743 607.0585,-334.8255 676.8091,-294.1971"/>
<polygon fill="#000000" stroke="#000000" points="679.137,-296.8247 685,-288 674.9135,-291.2424 679.137,-296.8247"/>
<text text-anchor="middle" x="645" y="-291.8" font-family="Times,serif" font-size="14.00" fill="#000000">chunk_size</text>
<text text-anchor="middle" x="536.5" y="-585.8" font-family="Times,serif" font-size="14.00" fill="#000000">/columns</text>
</g>
<!-- r11&#45;&gt;r10 -->
<g id="edge22" class="edge">
<title>r11:e&#45;&gt;r10:n</title>
<path fill="none" stroke="#000000" d="M284,-600C290.4924,-600 483.5473,-546.2507 527.9542,-528.7808"/>
<polygon fill="#000000" stroke="#000000" points="529.7943,-531.7671 537,-524 526.5234,-525.5783 529.7943,-531.7671"/>
<text text-anchor="middle" x="556.5" y="-527.8" font-family="Times,serif" font-size="14.00" fill="#000000">value</text>
</g>
<!-- r10&#45;&gt;r4 -->
<g id="edge23" class="edge">
<title>r10:e&#45;&gt;r4:ne</title>
<path fill="none" stroke="#000000" d="M621,-506C681.2775,-506 682.0069,-461.4975 734,-431 742.7228,-425.8835 757.1919,-424.8008 765.4577,-422.408"/>
<polygon fill="#000000" stroke="#000000" points="768.7518,-423.5919 769,-413 762.2007,-421.1253 768.7518,-423.5919"/>
<text text-anchor="middle" x="764" y="-416.8" font-family="Times,serif" font-size="14.00" fill="#000000">b</text>
</g>
<!-- r5&#45;&gt;r5 -->
<g id="edge26" class="edge">
<title>r5:e&#45;&gt;r5:ne</title>
<path fill="none" stroke="#000000" d="M806,-270C829.6909,-261 877.6909,-261 877.6909,-279 877.6909,-295.9805 790.0682,-296.9423 731.2566,-289.441"/>
<polygon fill="#000000" stroke="#000000" points="731.3897,-285.9254 721,-288 730.4157,-292.8574 731.3897,-285.9254"/>
<text text-anchor="middle" x="745" y="-291.8" font-family="Times,serif" font-size="14.00" fill="#000000">partial</text>
<text text-anchor="middle" x="832" y="-273.8" font-family="Times,serif" font-size="14.00" fill="#000000">/partial</text>
</g>
<!-- r5&#45;&gt;r5 -->
<g id="edge27" class="edge">
<title>r5:s&#45;&gt;r5:nw</title>
<path fill="none" stroke="#000000" d="M703,-252C644.7697,-243 528.3091,-243 528.3091,-270 528.3091,-295.4707 615.9318,-296.9134 674.7434,-289.4394"/>
<polygon fill="#000000" stroke="#000000" points="675.5835,-292.8559 685,-288 674.6106,-285.9238 675.5835,-292.8559"/>
<text text-anchor="middle" x="725" y="-291.8" font-family="Times,serif" font-size="14.00" fill="#000000">chunk_size</text>
<text text-anchor="middle" x="660.5" y="-240.8" font-family="Times,serif" font-size="14.00" fill="#000000">/chunk_size</text>
</g>
<!-- r5&#45;&gt;r9 -->
<g id="edge28" class="edge">
<title>r5:s&#45;&gt;r9:n</title>
<path fill="none" stroke="#000000" d="M703,-252C703,-215.8871 697.2013,-204.6531 696.1594,-173.0107"/>
<polygon fill="#000000" stroke="#000000" points="699.6588,-172.943 696,-163 692.6597,-173.0545 699.6588,-172.943"/>
<text text-anchor="middle" x="719" y="-166.8" font-family="Times,serif" font-size="14.00" fill="#000000">values</text>
<text text-anchor="middle" x="727.5" y="-240.8" font-family="Times,serif" font-size="14.00" fill="#000000">/chunk</text>
</g>
<!-- r9&#45;&gt;r9 -->
<g id="edge30" class="edge">
<title>r9:e&#45;&gt;r9:ne</title>
<path fill="none" stroke="#000000" d="M807,-145C830.4902,-136 878.4902,-136 878.4902,-154 878.4902,-171.0508 785.4747,-171.9499 723.9593,-164.3474"/>
<polygon fill="#000000" stroke="#000000" points="724.379,-160.8724 714,-163 723.4404,-167.8092 724.379,-160.8724"/>
<text text-anchor="middle" x="738" y="-166.8" font-family="Times,serif" font-size="14.00" fill="#000000">partial</text>
<text text-anchor="middle" x="833" y="-148.8" font-family="Times,serif" font-size="14.00" fill="#000000">/partial</text>
</g>
<!-- r9&#45;&gt;r9 -->
<g id="edge31" class="edge">
<title>r9:s&#45;&gt;r9:nw</title>
<path fill="none" stroke="#000000" d="M696,-127C635.1699,-118 513.5098,-118 513.5098,-145 513.5098,-170.5762 606.5253,-171.9249 668.0407,-164.3461"/>
<polygon fill="#000000" stroke="#000000" points="668.5589,-167.808 678,-163 667.6213,-160.871 668.5589,-167.808"/>
<text text-anchor="middle" x="638" y="-166.8" font-family="Times,serif" font-size="14.00" fill="#000000">chunk_size</text>
<text text-anchor="middle" x="653.5" y="-115.8" font-family="Times,serif" font-size="14.00" fill="#000000">/chunk_size</text>
</g>
<!-- r1 -->
<g id="node20" class="node">
<title>r1</title>
<g id="a_node20"><a xlink:href="file:///home/travis/build/andrewdavidmackenzie/flow/flowr/src/lib/flowruntime/stdio/stdout.html" xlink:title="print (#1)">
<ellipse fill="#ff7f50" stroke="#000000" cx="696" cy="-34" rx="57.3905" ry="18"/>
<text text-anchor="middle" x="696" y="-30.3" font-family="Times,serif" font-size="14.00" fill="#000000">print (#1)</text>
</a>
</g>
</g>
<!-- r9&#45;&gt;r1 -->
<g id="edge32" class="edge">
<title>r9:s&#45;&gt;r1:n</title>
<path fill="none" stroke="#000000" d="M696,-127C696,-97.3125 696,-87.4553 696,-62.1057"/>
<polygon fill="#000000" stroke="#000000" points="699.5001,-62 696,-52 692.5001,-62 699.5001,-62"/>
<text text-anchor="middle" x="720.5" y="-115.8" font-family="Times,serif" font-size="14.00" fill="#000000">/chunk</text>
</g>
<!-- r4&#45;&gt;r5 -->
<g id="edge24" class="edge">
<title>r4:e&#45;&gt;r5:n</title>
<path fill="none" stroke="#000000" d="M824,-395C832,-395 827.611,-384.1387 824,-377 795.5147,-320.687 712.7569,-350.9654 703.7905,-298.0515"/>
<polygon fill="#000000" stroke="#000000" points="707.2733,-297.6948 703,-288 700.2949,-298.2437 707.2733,-297.6948"/>
<text text-anchor="middle" x="680" y="-276.8" font-family="Times,serif" font-size="14.00" fill="#000000">values</text>
</g>
<!-- initializerr5_1 -->
<!-- initializerr5_1&#45;&gt;r5 -->
<g id="edge25" class="edge">
<title>initializerr5_1&#45;&gt;r5:n</title>
<path fill="none" stroke="#0000ff" stroke-dasharray="1,5" d="M562.54,-378.6432C605.4108,-356.6538 677.7247,-317.9049 697.7324,-296.9379"/>
<polygon fill="#0000ff" stroke="#0000ff" points="700.9379,-298.3922 703,-288 694.9073,-294.8381 700.9379,-298.3922"/>
<text text-anchor="middle" x="663.5" y="-328.8" font-family="Times,serif" font-size="14.00" fill="#000000">[]</text>
</g>
<!-- initializerr9_1 -->
<!-- initializerr9_1&#45;&gt;r9 -->
<g id="edge29" class="edge">
<title>initializerr9_1&#45;&gt;r9:n</title>
<path fill="none" stroke="#0000ff" stroke-dasharray="1,5" d="M492.0184,-254.6278C551.5062,-231.526 659.3949,-188.5848 688.5622,-169.983"/>
<polygon fill="#0000ff" stroke="#0000ff" points="691.1052,-172.3964 696,-163 686.3139,-167.2931 691.1052,-172.3964"/>
<text text-anchor="middle" x="630.5" y="-203.8" font-family="Times,serif" font-size="14.00" fill="#000000">[]</text>
</g>
</g>
</svg>
