<?xml version="1.0" encoding="UTF-8" standalone="no"?>
<!DOCTYPE svg PUBLIC "-//W3C//DTD SVG 1.1//EN"
 "http://www.w3.org/Graphics/SVG/1.1/DTD/svg11.dtd">
<!-- Generated by graphviz version 2.40.1 (20161225.0304)
 -->
<!-- Title: matrix_mult Pages: 1 -->
<svg width="1520pt" height="1001pt"
 viewBox="0.00 0.00 1520.00 1001.00" xmlns="http://www.w3.org/2000/svg" xmlns:xlink="http://www.w3.org/1999/xlink">
<g id="graph0" class="graph" transform="scale(1 1) rotate(0) translate(4 997)">
<title>matrix_mult</title>
<polygon fill="#ffffff" stroke="transparent" points="-4,4 -4,-997 1516,-997 1516,4 -4,4"/>
<text text-anchor="middle" x="756" y="-977.8" font-family="Times,serif" font-size="14.00" fill="#000000">/matrix_mult</text>
<g id="clust1" class="cluster">
<title>cluster_select_0</title>
<polygon fill="none" stroke="#000000" points="888,-480 888,-868 1504,-868 1504,-480 888,-480"/>
<text text-anchor="middle" x="1196" y="-852.8" font-family="Times,serif" font-size="14.00" fill="#000000">/matrix_mult/select_0</text>
</g>
<g id="clust2" class="cluster">
<title>cluster_select_1</title>
<polygon fill="none" stroke="#000000" points="8,-574 8,-962 660,-962 660,-574 8,-574"/>
<text text-anchor="middle" x="334" y="-946.8" font-family="Times,serif" font-size="14.00" fill="#000000">/matrix_mult/select_1</text>
</g>
<g id="clust3" class="cluster">
<title>cluster_multiply</title>
<polygon fill="none" stroke="#000000" points="416,-8 416,-555 880,-555 880,-8 416,-8"/>
<text text-anchor="middle" x="648" y="-539.8" font-family="Times,serif" font-size="14.00" fill="#000000">/matrix_mult/multiply</text>
</g>
<!-- r11 -->
<g id="node1" class="node">
<title>r11</title>
<g id="a_node1"><a xlink:href="file:///home/travis/build/andrewdavidmackenzie/flow/flowr/src/lib/flowruntime/stdio/readline.html" xlink:title="readline (#11)">
<ellipse fill="#ff7f50" stroke="#000000" cx="746" cy="-819" rx="77.9862" ry="18"/>
<text text-anchor="middle" x="746" y="-815.3" font-family="Times,serif" font-size="14.00" fill="#000000">readline (#11)</text>
</a>
</g>
</g>
<!-- r0 -->
<g id="node2" class="node">
<title>r0</title>
<g id="a_node2"><a xlink:href="file:///home/travis/build/andrewdavidmackenzie/flow/flowstdlib/control/index/index.html" xlink:title="index (#0)">
<ellipse fill="#ff7f50" stroke="#000000" cx="1077" cy="-673" rx="59.5901" ry="18"/>
<text text-anchor="middle" x="1077" y="-669.3" font-family="Times,serif" font-size="14.00" fill="#000000">index (#0)</text>
</a>
</g>
</g>
<!-- r11&#45;&gt;r0 -->
<g id="edge1" class="edge">
<title>r11:e&#45;&gt;r0:n</title>
<path fill="none" stroke="#000000" d="M824,-819C831.0146,-819 1026.2173,-723.7161 1068.834,-697.3087"/>
<polygon fill="#000000" stroke="#000000" points="1071.2263,-699.8834 1077,-691 1066.9467,-694.3439 1071.2263,-699.8834"/>
<text text-anchor="middle" x="1057.5" y="-694.8" font-family="Times,serif" font-size="14.00" fill="#000000">value</text>
<text text-anchor="middle" x="841" y="-822.8" font-family="Times,serif" font-size="14.00" fill="#000000">/json</text>
</g>
<!-- r10 -->
<g id="node3" class="node">
<title>r10</title>
<g id="a_node3"><a xlink:href="file:///home/travis/build/andrewdavidmackenzie/flow/flowstdlib/control/index/index.html" xlink:title="index (#10)">
<ellipse fill="#ff7f50" stroke="#000000" cx="473" cy="-746" rx="65.7887" ry="18"/>
<text text-anchor="middle" x="473" y="-742.3" font-family="Times,serif" font-size="14.00" fill="#000000">index (#10)</text>
</a>
</g>
</g>
<!-- r11&#45;&gt;r10 -->
<g id="edge2" class="edge">
<title>r11:e&#45;&gt;r10:n</title>
<path fill="none" stroke="#000000" d="M824,-819C832,-819 829.3521,-806.946 824,-801 812.1373,-787.8211 534.6982,-784.2552 481.7032,-769.1933"/>
<polygon fill="#000000" stroke="#000000" points="483.3809,-766.1187 473,-764 479.7939,-772.1298 483.3809,-766.1187"/>
<text text-anchor="middle" x="453.5" y="-767.8" font-family="Times,serif" font-size="14.00" fill="#000000">value</text>
<text text-anchor="middle" x="841" y="-807.8" font-family="Times,serif" font-size="14.00" fill="#000000">/json</text>
</g>
<!-- r0&#45;&gt;r0 -->
<g id="edge6" class="edge">
<title>r0:sw&#45;&gt;r0:ne</title>
<path fill="none" stroke="#000000" d="M1059,-655C945.2053,-667 945.2053,-709 1077,-709 1204.8048,-709 1208.6739,-697.7156 1105.0215,-691.5609"/>
<polygon fill="#000000" stroke="#000000" points="1105.18,-688.0644 1095,-691 1104.7887,-695.0535 1105.18,-688.0644"/>
<text text-anchor="middle" x="1149" y="-694.8" font-family="Times,serif" font-size="14.00" fill="#000000">previous_value</text>
<text text-anchor="middle" x="1037.5" y="-643.8" font-family="Times,serif" font-size="14.00" fill="#000000">/value</text>
</g>
<!-- r0&#45;&gt;r0 -->
<g id="edge7" class="edge">
<title>r0:s&#45;&gt;r0:nw</title>
<path fill="none" stroke="#000000" d="M1077,-655C1033.0684,-646 945.2053,-646 945.2053,-673 945.2053,-698.0488 1005.3359,-699.859 1049.1057,-692.8034"/>
<polygon fill="#000000" stroke="#000000" points="1049.7897,-696.2365 1059,-691 1048.5345,-689.3499 1049.7897,-696.2365"/>
<text text-anchor="middle" x="1004.5" y="-694.8" font-family="Times,serif" font-size="14.00" fill="#000000">previous_index</text>
<text text-anchor="middle" x="1099" y="-643.8" font-family="Times,serif" font-size="14.00" fill="#000000">/index</text>
</g>
<!-- r5 -->
<g id="node7" class="node">
<title>r5</title>
<g id="a_node7"><a xlink:href="file:///home/travis/build/andrewdavidmackenzie/flow/flowstdlib/data/info/info.html" xlink:title="a_info (#5)">
<ellipse fill="#ff7f50" stroke="#000000" cx="1239" cy="-506" rx="61.99" ry="18"/>
<text text-anchor="middle" x="1239" y="-502.3" font-family="Times,serif" font-size="14.00" fill="#000000">a_info (#5)</text>
</a>
</g>
</g>
<!-- r0&#45;&gt;r5 -->
<g id="edge8" class="edge">
<title>r0:e&#45;&gt;r5:n</title>
<path fill="none" stroke="#000000" d="M1137,-673C1213.8043,-673 1237.0231,-610.0337 1238.8766,-534.2768"/>
<polygon fill="#000000" stroke="#000000" points="1242.3796,-534.0413 1239,-524 1235.3801,-533.9572 1242.3796,-534.0413"/>
<text text-anchor="middle" x="1192.5" y="-676.8" font-family="Times,serif" font-size="14.00" fill="#000000">/selected_value</text>
</g>
<!-- r4 -->
<g id="node8" class="node">
<title>r4</title>
<g id="a_node8"><a xlink:href="file:///home/travis/build/andrewdavidmackenzie/flow/flowstdlib/data/duplicate_rows/duplicate_rows.html" xlink:title="duplicate_rows (#4)">
<ellipse fill="#ff7f50" stroke="#000000" cx="1001" cy="-506" rx="104.7816" ry="18"/>
<text text-anchor="middle" x="1001" y="-502.3" font-family="Times,serif" font-size="14.00" fill="#000000">duplicate_rows (#4)</text>
</a>
</g>
</g>
<!-- r0&#45;&gt;r4 -->
<g id="edge9" class="edge">
<title>r0:e&#45;&gt;r4:n</title>
<path fill="none" stroke="#000000" d="M1137,-673C1145,-673 1140.1305,-662.3621 1137,-655 1105.57,-581.0863 1009.7354,-605.5314 1001.5576,-534.2041"/>
<polygon fill="#000000" stroke="#000000" points="1005.0405,-533.7941 1001,-524 998.051,-534.1761 1005.0405,-533.7941"/>
<text text-anchor="middle" x="1192.5" y="-661.8" font-family="Times,serif" font-size="14.00" fill="#000000">/selected_value</text>
</g>
<!-- r10&#45;&gt;r10 -->
<g id="edge13" class="edge">
<title>r10:sw&#45;&gt;r10:ne</title>
<path fill="none" stroke="#000000" d="M455,-728C335.3558,-740 335.3558,-782 473,-782 606.6116,-782 610.526,-770.6928 501.2071,-764.5423"/>
<polygon fill="#000000" stroke="#000000" points="501.1717,-761.0356 491,-764 500.8002,-768.0258 501.1717,-761.0356"/>
<text text-anchor="middle" x="545" y="-767.8" font-family="Times,serif" font-size="14.00" fill="#000000">previous_value</text>
<text text-anchor="middle" x="433.5" y="-716.8" font-family="Times,serif" font-size="14.00" fill="#000000">/value</text>
</g>
<!-- r10&#45;&gt;r10 -->
<g id="edge14" class="edge">
<title>r10:s&#45;&gt;r10:nw</title>
<path fill="none" stroke="#000000" d="M473,-728C427.1186,-719 335.3558,-719 335.3558,-746 335.3558,-771.1016 399.1104,-772.8665 444.9437,-765.7587"/>
<polygon fill="#000000" stroke="#000000" points="445.7525,-769.1705 455,-764 444.5465,-762.2751 445.7525,-769.1705"/>
<text text-anchor="middle" x="400.5" y="-767.8" font-family="Times,serif" font-size="14.00" fill="#000000">previous_index</text>
<text text-anchor="middle" x="495" y="-716.8" font-family="Times,serif" font-size="14.00" fill="#000000">/index</text>
</g>
<!-- r6 -->
<g id="node12" class="node">
<title>r6</title>
<g id="a_node12"><a xlink:href="file:///home/travis/build/andrewdavidmackenzie/flow/flowstdlib/data/info/info.html" xlink:title="b_info (#6)">
<ellipse fill="#ff7f50" stroke="#000000" cx="557" cy="-600" rx="62.2891" ry="18"/>
<text text-anchor="middle" x="557" y="-596.3" font-family="Times,serif" font-size="14.00" fill="#000000">b_info (#6)</text>
</a>
</g>
</g>
<!-- r10&#45;&gt;r6 -->
<g id="edge15" class="edge">
<title>r10:e&#45;&gt;r6:n</title>
<path fill="none" stroke="#000000" d="M539,-746C593.0825,-746 561.2902,-683.4742 557.3789,-628.2165"/>
<polygon fill="#000000" stroke="#000000" points="560.8683,-627.8634 557,-618 553.8731,-628.1229 560.8683,-627.8634"/>
<text text-anchor="middle" x="594.5" y="-749.8" font-family="Times,serif" font-size="14.00" fill="#000000">/selected_value</text>
</g>
<!-- r7 -->
<g id="node13" class="node">
<title>r7</title>
<g id="a_node13"><a xlink:href="file:///home/travis/build/andrewdavidmackenzie/flow/flowstdlib/data/transpose/transpose.html" xlink:title="transpose (#7)">
<ellipse fill="#ff7f50" stroke="#000000" cx="278" cy="-600" rx="79.8859" ry="18"/>
<text text-anchor="middle" x="278" y="-596.3" font-family="Times,serif" font-size="14.00" fill="#000000">transpose (#7)</text>
</a>
</g>
</g>
<!-- r10&#45;&gt;r7 -->
<g id="edge16" class="edge">
<title>r10:e&#45;&gt;r7:n</title>
<path fill="none" stroke="#000000" d="M539,-746C547,-746 543.424,-734.6654 539,-728 471.3585,-626.0886 288.7426,-737.2223 278.4534,-628.1123"/>
<polygon fill="#000000" stroke="#000000" points="281.9445,-627.8332 278,-618 274.9515,-628.1468 281.9445,-627.8332"/>
<text text-anchor="middle" x="594.5" y="-734.8" font-family="Times,serif" font-size="14.00" fill="#000000">/selected_value</text>
</g>
<!-- initializerr0_1 -->
<!-- initializerr0_1&#45;&gt;r0 -->
<g id="edge3" class="edge">
<title>initializerr0_1&#45;&gt;r0:nw</title>
<path fill="none" stroke="#0000ff" stroke-dasharray="1,5" d="M1176.7184,-801.4345C1145.6359,-773.0706 1085.9041,-718.3526 1065.7861,-698.4497"/>
<polygon fill="#0000ff" stroke="#0000ff" points="1068.3216,-696.0357 1059,-691 1063.1467,-700.7496 1068.3216,-696.0357"/>
<text text-anchor="middle" x="1142.5" y="-742.3" font-family="Times,serif" font-size="14.00" fill="#000000">42</text>
</g>
<!-- initializerr0_2 -->
<!-- initializerr0_2&#45;&gt;r0 -->
<g id="edge4" class="edge">
<title>initializerr0_2&#45;&gt;r0:ne</title>
<path fill="none" stroke="#0000ff" stroke-dasharray="1,5" d="M1376.6746,-804.1097C1299.9346,-777.4498 1144.3193,-722.0147 1103.1556,-696.9498"/>
<polygon fill="#0000ff" stroke="#0000ff" points="1105.1415,-694.0662 1095,-691 1101.0159,-699.7212 1105.1415,-694.0662"/>
<text text-anchor="middle" x="1269" y="-742.3" font-family="Times,serif" font-size="14.00" fill="#000000">&#45;1</text>
</g>
<!-- initializerr0_3 -->
<!-- initializerr0_3&#45;&gt;r0 -->
<g id="edge5" class="edge">
<title>initializerr0_3&#45;&gt;r0:n</title>
<path fill="none" stroke="#0000ff" d="M999.3134,-802.1028C1028.2369,-782.0303 1070.5268,-745.6086 1076.3308,-701.2075"/>
<polygon fill="#0000ff" stroke="#0000ff" points="1079.8382,-701.2076 1077,-691 1072.8532,-700.7496 1079.8382,-701.2076"/>
<text text-anchor="middle" x="1073" y="-742.3" font-family="Times,serif" font-size="14.00" fill="#000000">0</text>
</g>
<!-- r8 -->
<g id="node16" class="node">
<title>r8</title>
<g id="a_node16"><a xlink:href="file:///home/travis/build/andrewdavidmackenzie/flow/flowstdlib/data/accumulate/accumulate.html" xlink:title="compose_matrix (#8)">
<ellipse fill="#ff7f50" stroke="#000000" cx="744" cy="-145" rx="110.4804" ry="18"/>
<text text-anchor="middle" x="744" y="-141.3" font-family="Times,serif" font-size="14.00" fill="#000000">compose_matrix (#8)</text>
</a>
</g>
</g>
<!-- r5&#45;&gt;r8 -->
<g id="edge20" class="edge">
<title>r5:e&#45;&gt;r8:nw</title>
<path fill="none" stroke="#000000" d="M1301,-506C1309,-506 1306.0639,-494.1933 1301,-488 1274.4481,-455.5259 1116,-492.4472 1116,-450.5 1116,-450.5 1116,-450.5 1116,-207.5 1116,-168.8262 785.106,-187.9976 731.6396,-171.3357"/>
<polygon fill="#000000" stroke="#000000" points="734.5025,-169.3213 726,-163 728.7047,-173.2438 734.5025,-169.3213"/>
<text text-anchor="middle" x="686" y="-166.8" font-family="Times,serif" font-size="14.00" fill="#000000">chunk_size</text>
<text text-anchor="middle" x="1321" y="-509.8" font-family="Times,serif" font-size="14.00" fill="#000000">/rows</text>
</g>
<!-- r9 -->
<g id="node17" class="node">
<title>r9</title>
<g id="a_node17"><a xlink:href="file:///home/travis/build/andrewdavidmackenzie/flow/flowstdlib/data/multiply_row/multiply_row.html" xlink:title="multiply (#9)">
<ellipse fill="#ff7f50" stroke="#000000" cx="799" cy="-395" rx="72.5877" ry="18"/>
<text text-anchor="middle" x="799" y="-391.3" font-family="Times,serif" font-size="14.00" fill="#000000">multiply (#9)</text>
</a>
</g>
</g>
<!-- r4&#45;&gt;r9 -->
<g id="edge21" class="edge">
<title>r4:e&#45;&gt;r9:n</title>
<path fill="none" stroke="#000000" d="M1106,-506C1114,-506 1110.9402,-494.2924 1106,-488 1086.1371,-462.7005 845.0647,-450.283 804.7121,-421.3863"/>
<polygon fill="#000000" stroke="#000000" points="807.5222,-419.2946 799,-413 801.7368,-423.2353 807.5222,-419.2946"/>
<text text-anchor="middle" x="794.5" y="-416.8" font-family="Times,serif" font-size="14.00" fill="#000000">a</text>
</g>
<!-- initializerr10_1 -->
<!-- initializerr10_1&#45;&gt;r10 -->
<g id="edge10" class="edge">
<title>initializerr10_1&#45;&gt;r10:nw</title>
<path fill="none" stroke="#0000ff" stroke-dasharray="1,5" d="M346.7,-895.0334C366.4854,-867.5806 406.6882,-813.8917 447.8503,-771.2774"/>
<polygon fill="#0000ff" stroke="#0000ff" points="450.4885,-773.5863 455,-764 445.4951,-768.6805 450.4885,-773.5863"/>
<text text-anchor="middle" x="428.5" y="-815.3" font-family="Times,serif" font-size="14.00" fill="#000000">42</text>
</g>
<!-- initializerr10_2 -->
<!-- initializerr10_2&#45;&gt;r10 -->
<g id="edge11" class="edge">
<title>initializerr10_2&#45;&gt;r10:ne</title>
<path fill="none" stroke="#0000ff" stroke-dasharray="1,5" d="M564.3141,-894.7995C554.6664,-866.2757 532.6992,-810.3008 498.0904,-771.5148"/>
<polygon fill="#0000ff" stroke="#0000ff" points="500.4085,-768.8715 491,-764 495.317,-773.6754 500.4085,-768.8715"/>
<text text-anchor="middle" x="561" y="-815.3" font-family="Times,serif" font-size="14.00" fill="#000000">&#45;1</text>
</g>
<!-- initializerr10_3 -->
<!-- initializerr10_3&#45;&gt;r10 -->
<g id="edge12" class="edge">
<title>initializerr10_3&#45;&gt;r10:n</title>
<path fill="none" stroke="#0000ff" d="M129.6353,-896.2327C175.028,-872.6543 261.7,-829.4114 339,-801 393.48,-780.976 463.8619,-820.449 472.1849,-774.075"/>
<polygon fill="#0000ff" stroke="#0000ff" points="475.6822,-774.2497 473,-764 468.7049,-773.6852 475.6822,-774.2497"/>
<text text-anchor="middle" x="344" y="-815.3" font-family="Times,serif" font-size="14.00" fill="#000000">1</text>
</g>
<!-- r6&#45;&gt;r4 -->
<g id="edge18" class="edge">
<title>r6:se&#45;&gt;r4:ne</title>
<path fill="none" stroke="#000000" d="M575,-582C599.996,-557.004 857.1142,-560.7083 892,-555 945.3075,-546.2774 1044.7746,-562.4892 1025.4857,-531.7992"/>
<polygon fill="#000000" stroke="#000000" points="1028.085,-529.451 1019,-524 1022.7028,-533.9267 1028.085,-529.451"/>
<text text-anchor="middle" x="997.5" y="-527.8" font-family="Times,serif" font-size="14.00" fill="#000000">factor</text>
<text text-anchor="middle" x="542.5" y="-570.8" font-family="Times,serif" font-size="14.00" fill="#000000">/columns</text>
</g>
<!-- r3 -->
<g id="node14" class="node">
<title>r3</title>
<g id="a_node14"><a xlink:href="file:///home/travis/build/andrewdavidmackenzie/flow/flowstdlib/data/duplicate/duplicate.html" xlink:title="duplicate (#3)">
<ellipse fill="#ff7f50" stroke="#000000" cx="579" cy="-506" rx="77.1866" ry="18"/>
<text text-anchor="middle" x="579" y="-502.3" font-family="Times,serif" font-size="14.00" fill="#000000">duplicate (#3)</text>
</a>
</g>
</g>
<!-- r6&#45;&gt;r3 -->
<g id="edge17" class="edge">
<title>r6:se&#45;&gt;r3:ne</title>
<path fill="none" stroke="#000000" d="M575,-582C591.7534,-565.2466 610.3569,-548.8511 602.885,-532.1983"/>
<polygon fill="#000000" stroke="#000000" points="605.6748,-530.0827 597,-524 599.9882,-534.1647 605.6748,-530.0827"/>
<text text-anchor="middle" x="575.5" y="-527.8" font-family="Times,serif" font-size="14.00" fill="#000000">factor</text>
<text text-anchor="middle" x="607.5" y="-570.8" font-family="Times,serif" font-size="14.00" fill="#000000">/columns</text>
</g>
<!-- r2 -->
<g id="node15" class="node">
<title>r2</title>
<g id="a_node15"><a xlink:href="file:///home/travis/build/andrewdavidmackenzie/flow/flowstdlib/data/accumulate/accumulate.html" xlink:title="compose_rows (#2)">
<ellipse fill="#ff7f50" stroke="#000000" cx="751" cy="-270" rx="102.8821" ry="18"/>
<text text-anchor="middle" x="751" y="-266.3" font-family="Times,serif" font-size="14.00" fill="#000000">compose_rows (#2)</text>
</a>
</g>
</g>
<!-- r6&#45;&gt;r2 -->
<g id="edge19" class="edge">
<title>r6:se&#45;&gt;r2:nw</title>
<path fill="none" stroke="#000000" d="M575,-582C610.2907,-546.7093 511.632,-575.2134 466,-555 430.2725,-539.174 393,-545.0757 393,-506 393,-506 393,-506 393,-332.5 393,-259.5743 655.0585,-334.8255 724.8091,-294.1971"/>
<polygon fill="#000000" stroke="#000000" points="727.137,-296.8247 733,-288 722.9135,-291.2424 727.137,-296.8247"/>
<text text-anchor="middle" x="693" y="-291.8" font-family="Times,serif" font-size="14.00" fill="#000000">chunk_size</text>
<text text-anchor="middle" x="607.5" y="-585.8" font-family="Times,serif" font-size="14.00" fill="#000000">/columns</text>
</g>
<!-- r7&#45;&gt;r3 -->
<g id="edge22" class="edge">
<title>r7:e&#45;&gt;r3:n</title>
<path fill="none" stroke="#000000" d="M358,-600C369.462,-600 532.9245,-550.8876 571.0786,-530.4439"/>
<polygon fill="#000000" stroke="#000000" points="573.4512,-533.0256 579,-524 569.0339,-527.5954 573.4512,-533.0256"/>
<text text-anchor="middle" x="598.5" y="-527.8" font-family="Times,serif" font-size="14.00" fill="#000000">value</text>
</g>
<!-- r3&#45;&gt;r9 -->
<g id="edge23" class="edge">
<title>r3:e&#45;&gt;r9:ne</title>
<path fill="none" stroke="#000000" d="M657,-506C674.5908,-506 789.8179,-448.5809 813.6554,-422.8803"/>
<polygon fill="#000000" stroke="#000000" points="817.1088,-423.5943 817,-413 810.4784,-421.3498 817.1088,-423.5943"/>
<text text-anchor="middle" x="812" y="-416.8" font-family="Times,serif" font-size="14.00" fill="#000000">b</text>
</g>
<!-- r2&#45;&gt;r2 -->
<g id="edge26" class="edge">
<title>r2:e&#45;&gt;r2:ne</title>
<path fill="none" stroke="#000000" d="M854,-270C877.6909,-261 925.6909,-261 925.6909,-279 925.6909,-295.9805 838.0682,-296.9423 779.2566,-289.441"/>
<polygon fill="#000000" stroke="#000000" points="779.3897,-285.9254 769,-288 778.4157,-292.8574 779.3897,-285.9254"/>
<text text-anchor="middle" x="793" y="-291.8" font-family="Times,serif" font-size="14.00" fill="#000000">partial</text>
<text text-anchor="middle" x="880" y="-273.8" font-family="Times,serif" font-size="14.00" fill="#000000">/partial</text>
</g>
<!-- r2&#45;&gt;r2 -->
<g id="edge27" class="edge">
<title>r2:s&#45;&gt;r2:nw</title>
<path fill="none" stroke="#000000" d="M751,-252C692.7697,-243 576.3091,-243 576.3091,-270 576.3091,-295.4707 663.9318,-296.9134 722.7434,-289.4394"/>
<polygon fill="#000000" stroke="#000000" points="723.5835,-292.8559 733,-288 722.6106,-285.9238 723.5835,-292.8559"/>
<text text-anchor="middle" x="773" y="-291.8" font-family="Times,serif" font-size="14.00" fill="#000000">chunk_size</text>
<text text-anchor="middle" x="708.5" y="-240.8" font-family="Times,serif" font-size="14.00" fill="#000000">/chunk_size</text>
</g>
<!-- r2&#45;&gt;r8 -->
<g id="edge28" class="edge">
<title>r2:s&#45;&gt;r8:n</title>
<path fill="none" stroke="#000000" d="M751,-252C751,-215.8871 745.2013,-204.6531 744.1594,-173.0107"/>
<polygon fill="#000000" stroke="#000000" points="747.6588,-172.943 744,-163 740.6597,-173.0545 747.6588,-172.943"/>
<text text-anchor="middle" x="767" y="-166.8" font-family="Times,serif" font-size="14.00" fill="#000000">values</text>
<text text-anchor="middle" x="775.5" y="-240.8" font-family="Times,serif" font-size="14.00" fill="#000000">/chunk</text>
</g>
<!-- r8&#45;&gt;r8 -->
<g id="edge30" class="edge">
<title>r8:e&#45;&gt;r8:ne</title>
<path fill="none" stroke="#000000" d="M855,-145C878.4902,-136 926.4902,-136 926.4902,-154 926.4902,-171.0508 833.4747,-171.9499 771.9593,-164.3474"/>
<polygon fill="#000000" stroke="#000000" points="772.379,-160.8724 762,-163 771.4404,-167.8092 772.379,-160.8724"/>
<text text-anchor="middle" x="786" y="-166.8" font-family="Times,serif" font-size="14.00" fill="#000000">partial</text>
<text text-anchor="middle" x="881" y="-148.8" font-family="Times,serif" font-size="14.00" fill="#000000">/partial</text>
</g>
<!-- r8&#45;&gt;r8 -->
<g id="edge31" class="edge">
<title>r8:s&#45;&gt;r8:nw</title>
<path fill="none" stroke="#000000" d="M744,-127C683.1699,-118 561.5098,-118 561.5098,-145 561.5098,-170.5762 654.5253,-171.9249 716.0407,-164.3461"/>
<polygon fill="#000000" stroke="#000000" points="716.5589,-167.808 726,-163 715.6213,-160.871 716.5589,-167.808"/>
<text text-anchor="middle" x="686" y="-166.8" font-family="Times,serif" font-size="14.00" fill="#000000">chunk_size</text>
<text text-anchor="middle" x="701.5" y="-115.8" font-family="Times,serif" font-size="14.00" fill="#000000">/chunk_size</text>
</g>
<!-- r1 -->
<g id="node20" class="node">
<title>r1</title>
<g id="a_node20"><a xlink:href="file:///home/travis/build/andrewdavidmackenzie/flow/flowr/src/lib/flowruntime/stdio/stdout.html" xlink:title="print (#1)">
<ellipse fill="#ff7f50" stroke="#000000" cx="744" cy="-34" rx="57.3905" ry="18"/>
<text text-anchor="middle" x="744" y="-30.3" font-family="Times,serif" font-size="14.00" fill="#000000">print (#1)</text>
</a>
</g>
</g>
<!-- r8&#45;&gt;r1 -->
<g id="edge32" class="edge">
<title>r8:s&#45;&gt;r1:n</title>
<path fill="none" stroke="#000000" d="M744,-127C744,-97.3125 744,-87.4553 744,-62.1057"/>
<polygon fill="#000000" stroke="#000000" points="747.5001,-62 744,-52 740.5001,-62 747.5001,-62"/>
<text text-anchor="middle" x="768.5" y="-115.8" font-family="Times,serif" font-size="14.00" fill="#000000">/chunk</text>
</g>
<!-- r9&#45;&gt;r2 -->
<g id="edge24" class="edge">
<title>r9:e&#45;&gt;r2:n</title>
<path fill="none" stroke="#000000" d="M872,-395C880,-395 875.611,-384.1387 872,-377 843.5147,-320.687 760.7569,-350.9654 751.7905,-298.0515"/>
<polygon fill="#000000" stroke="#000000" points="755.2733,-297.6948 751,-288 748.2949,-298.2437 755.2733,-297.6948"/>
<text text-anchor="middle" x="728" y="-276.8" font-family="Times,serif" font-size="14.00" fill="#000000">values</text>
</g>
<!-- initializerr2_1 -->
<!-- initializerr2_1&#45;&gt;r2 -->
<g id="edge25" class="edge">
<title>initializerr2_1&#45;&gt;r2:n</title>
<path fill="none" stroke="#0000ff" stroke-dasharray="1,5" d="M610.54,-378.6432C653.4108,-356.6538 725.7247,-317.9049 745.7324,-296.9379"/>
<polygon fill="#0000ff" stroke="#0000ff" points="748.9379,-298.3922 751,-288 742.9073,-294.8381 748.9379,-298.3922"/>
<text text-anchor="middle" x="711.5" y="-328.8" font-family="Times,serif" font-size="14.00" fill="#000000">[]</text>
</g>
<!-- initializerr8_1 -->
<!-- initializerr8_1&#45;&gt;r8 -->
<g id="edge29" class="edge">
<title>initializerr8_1&#45;&gt;r8:n</title>
<path fill="none" stroke="#0000ff" stroke-dasharray="1,5" d="M540.0184,-254.6278C599.5062,-231.526 707.3949,-188.5848 736.5622,-169.983"/>
<polygon fill="#0000ff" stroke="#0000ff" points="739.1052,-172.3964 744,-163 734.3139,-167.2931 739.1052,-172.3964"/>
<text text-anchor="middle" x="678.5" y="-203.8" font-family="Times,serif" font-size="14.00" fill="#000000">[]</text>
</g>
</g>
</svg>
