<?xml version="1.0" encoding="UTF-8" standalone="no"?>
<!DOCTYPE svg PUBLIC "-//W3C//DTD SVG 1.1//EN"
 "http://www.w3.org/Graphics/SVG/1.1/DTD/svg11.dtd">
<!-- Generated by graphviz version 2.40.1 (20161225.0304)
 -->
<!-- Title: matrix_mult Pages: 1 -->
<svg width="1508pt" height="1001pt"
 viewBox="0.00 0.00 1508.00 1001.00" xmlns="http://www.w3.org/2000/svg" xmlns:xlink="http://www.w3.org/1999/xlink">
<g id="graph0" class="graph" transform="scale(1 1) rotate(0) translate(4 997)">
<title>matrix_mult</title>
<polygon fill="#ffffff" stroke="transparent" points="-4,4 -4,-997 1504,-997 1504,4 -4,4"/>
<text text-anchor="middle" x="750" y="-977.8" font-family="Times,serif" font-size="14.00" fill="#000000">/matrix_mult</text>
<g id="clust1" class="cluster">
<title>cluster_select_0</title>
<polygon fill="none" stroke="#000000" points="876,-480 876,-868 1492,-868 1492,-480 876,-480"/>
<text text-anchor="middle" x="1184" y="-852.8" font-family="Times,serif" font-size="14.00" fill="#000000">/matrix_mult/select_0</text>
</g>
<g id="clust2" class="cluster">
<title>cluster_select_1</title>
<polygon fill="none" stroke="#000000" points="8,-574 8,-962 660,-962 660,-574 8,-574"/>
<text text-anchor="middle" x="334" y="-946.8" font-family="Times,serif" font-size="14.00" fill="#000000">/matrix_mult/select_1</text>
</g>
<g id="clust3" class="cluster">
<title>cluster_multiply</title>
<polygon fill="none" stroke="#000000" points="404,-8 404,-555 868,-555 868,-8 404,-8"/>
<text text-anchor="middle" x="636" y="-539.8" font-family="Times,serif" font-size="14.00" fill="#000000">/matrix_mult/multiply</text>
</g>
<!-- r0 -->
<g id="node1" class="node">
<title>r0</title>
<g id="a_node1"><a xlink:href="file:///home/travis/build/andrewdavidmackenzie/flow/flowr/src/lib/flowruntime/stdio/readline.html" xlink:title="readline (#0)">
<ellipse fill="#ff7f50" stroke="#000000" cx="740" cy="-819" rx="72.2875" ry="18"/>
<text text-anchor="middle" x="740" y="-815.3" font-family="Times,serif" font-size="14.00" fill="#000000">readline (#0)</text>
</a>
</g>
</g>
<!-- r1 -->
<g id="node2" class="node">
<title>r1</title>
<g id="a_node2"><a xlink:href="file:///home/travis/build/andrewdavidmackenzie/flow/flowstdlib/control/index/index.html" xlink:title="index (#1)">
<ellipse fill="#ff7f50" stroke="#000000" cx="1098" cy="-673" rx="59.5901" ry="18"/>
<text text-anchor="middle" x="1098" y="-669.3" font-family="Times,serif" font-size="14.00" fill="#000000">index (#1)</text>
</a>
</g>
</g>
<!-- r0&#45;&gt;r1 -->
<g id="edge1" class="edge">
<title>r0:e&#45;&gt;r1:n</title>
<path fill="none" stroke="#000000" d="M812,-819C834.1136,-819 968.6412,-736.6331 989,-728 991.4033,-726.9809 1062.533,-705.0958 1088.57,-695.3543"/>
<polygon fill="#000000" stroke="#000000" points="1090.3884,-698.3698 1098,-691 1087.4538,-692.0146 1090.3884,-698.3698"/>
<text text-anchor="middle" x="1078.5" y="-694.8" font-family="Times,serif" font-size="14.00" fill="#000000">value</text>
<text text-anchor="middle" x="829" y="-822.8" font-family="Times,serif" font-size="14.00" fill="#000000">/json</text>
</g>
<!-- r11 -->
<g id="node3" class="node">
<title>r11</title>
<g id="a_node3"><a xlink:href="file:///home/travis/build/andrewdavidmackenzie/flow/flowstdlib/control/index/index.html" xlink:title="index (#11)">
<ellipse fill="#ff7f50" stroke="#000000" cx="386" cy="-746" rx="65.7887" ry="18"/>
<text text-anchor="middle" x="386" y="-742.3" font-family="Times,serif" font-size="14.00" fill="#000000">index (#11)</text>
</a>
</g>
</g>
<!-- r0&#45;&gt;r11 -->
<g id="edge2" class="edge">
<title>r0:e&#45;&gt;r11:n</title>
<path fill="none" stroke="#000000" d="M812,-819C820,-819 817.4066,-806.8965 812,-801 808.3548,-797.0244 459.9519,-774.6499 396.0181,-766.1267"/>
<polygon fill="#000000" stroke="#000000" points="396.5088,-762.6529 386,-764 395.0552,-769.5003 396.5088,-762.6529"/>
<text text-anchor="middle" x="366.5" y="-767.8" font-family="Times,serif" font-size="14.00" fill="#000000">value</text>
<text text-anchor="middle" x="829" y="-807.8" font-family="Times,serif" font-size="14.00" fill="#000000">/json</text>
</g>
<!-- r1&#45;&gt;r1 -->
<g id="edge6" class="edge">
<title>r1:sw&#45;&gt;r1:ne</title>
<path fill="none" stroke="#000000" d="M1080,-655C966.2053,-667 966.2053,-709 1098,-709 1225.8048,-709 1229.6739,-697.7156 1126.0215,-691.5609"/>
<polygon fill="#000000" stroke="#000000" points="1126.18,-688.0644 1116,-691 1125.7887,-695.0535 1126.18,-688.0644"/>
<text text-anchor="middle" x="1170" y="-694.8" font-family="Times,serif" font-size="14.00" fill="#000000">previous_value</text>
<text text-anchor="middle" x="1058.5" y="-643.8" font-family="Times,serif" font-size="14.00" fill="#000000">/value</text>
</g>
<!-- r1&#45;&gt;r1 -->
<g id="edge7" class="edge">
<title>r1:s&#45;&gt;r1:nw</title>
<path fill="none" stroke="#000000" d="M1098,-655C1054.0684,-646 966.2053,-646 966.2053,-673 966.2053,-698.0488 1026.3359,-699.859 1070.1057,-692.8034"/>
<polygon fill="#000000" stroke="#000000" points="1070.7897,-696.2365 1080,-691 1069.5345,-689.3499 1070.7897,-696.2365"/>
<text text-anchor="middle" x="1025.5" y="-694.8" font-family="Times,serif" font-size="14.00" fill="#000000">previous_index</text>
<text text-anchor="middle" x="1120" y="-643.8" font-family="Times,serif" font-size="14.00" fill="#000000">/index</text>
</g>
<!-- r5 -->
<g id="node7" class="node">
<title>r5</title>
<g id="a_node7"><a xlink:href="file:///home/travis/build/andrewdavidmackenzie/flow/flowstdlib/data/info/info.html" xlink:title="a_info (#5)">
<ellipse fill="#ff7f50" stroke="#000000" cx="1227" cy="-506" rx="61.99" ry="18"/>
<text text-anchor="middle" x="1227" y="-502.3" font-family="Times,serif" font-size="14.00" fill="#000000">a_info (#5)</text>
</a>
</g>
</g>
<!-- r1&#45;&gt;r5 -->
<g id="edge8" class="edge">
<title>r1:e&#45;&gt;r5:n</title>
<path fill="none" stroke="#000000" d="M1158,-673C1227.5574,-673 1227.2039,-603.9383 1227.0179,-534.2745"/>
<polygon fill="#000000" stroke="#000000" points="1230.5175,-533.9939 1227,-524 1223.5175,-534.0061 1230.5175,-533.9939"/>
<text text-anchor="middle" x="1213.5" y="-676.8" font-family="Times,serif" font-size="14.00" fill="#000000">/selected_value</text>
</g>
<!-- r4 -->
<g id="node8" class="node">
<title>r4</title>
<g id="a_node8"><a xlink:href="file:///home/travis/build/andrewdavidmackenzie/flow/flowstdlib/data/duplicate_rows/duplicate_rows.html" xlink:title="duplicate_rows (#4)">
<ellipse fill="#ff7f50" stroke="#000000" cx="989" cy="-506" rx="104.7816" ry="18"/>
<text text-anchor="middle" x="989" y="-502.3" font-family="Times,serif" font-size="14.00" fill="#000000">duplicate_rows (#4)</text>
</a>
</g>
</g>
<!-- r1&#45;&gt;r4 -->
<g id="edge9" class="edge">
<title>r1:e&#45;&gt;r4:n</title>
<path fill="none" stroke="#000000" d="M1158,-673C1166,-673 1161.5207,-662.1836 1158,-655 1117.7286,-572.8304 998.3213,-615.5555 989.5145,-533.9977"/>
<polygon fill="#000000" stroke="#000000" points="993.0095,-533.8069 989,-524 986.0187,-534.1667 993.0095,-533.8069"/>
<text text-anchor="middle" x="1213.5" y="-661.8" font-family="Times,serif" font-size="14.00" fill="#000000">/selected_value</text>
</g>
<!-- r11&#45;&gt;r11 -->
<g id="edge13" class="edge">
<title>r11:sw&#45;&gt;r11:ne</title>
<path fill="none" stroke="#000000" d="M368,-728C248.3558,-740 248.3558,-782 386,-782 519.6116,-782 523.526,-770.6928 414.2071,-764.5423"/>
<polygon fill="#000000" stroke="#000000" points="414.1717,-761.0356 404,-764 413.8002,-768.0258 414.1717,-761.0356"/>
<text text-anchor="middle" x="458" y="-767.8" font-family="Times,serif" font-size="14.00" fill="#000000">previous_value</text>
<text text-anchor="middle" x="346.5" y="-716.8" font-family="Times,serif" font-size="14.00" fill="#000000">/value</text>
</g>
<!-- r11&#45;&gt;r11 -->
<g id="edge14" class="edge">
<title>r11:s&#45;&gt;r11:nw</title>
<path fill="none" stroke="#000000" d="M386,-728C340.1186,-719 248.3558,-719 248.3558,-746 248.3558,-771.1016 312.1104,-772.8665 357.9437,-765.7587"/>
<polygon fill="#000000" stroke="#000000" points="358.7525,-769.1705 368,-764 357.5465,-762.2751 358.7525,-769.1705"/>
<text text-anchor="middle" x="313.5" y="-767.8" font-family="Times,serif" font-size="14.00" fill="#000000">previous_index</text>
<text text-anchor="middle" x="408" y="-716.8" font-family="Times,serif" font-size="14.00" fill="#000000">/index</text>
</g>
<!-- r3 -->
<g id="node12" class="node">
<title>r3</title>
<g id="a_node12"><a xlink:href="file:///home/travis/build/andrewdavidmackenzie/flow/flowstdlib/data/info/info.html" xlink:title="b_info (#3)">
<ellipse fill="#ff7f50" stroke="#000000" cx="506" cy="-600" rx="62.2891" ry="18"/>
<text text-anchor="middle" x="506" y="-596.3" font-family="Times,serif" font-size="14.00" fill="#000000">b_info (#3)</text>
</a>
</g>
</g>
<!-- r11&#45;&gt;r3 -->
<g id="edge15" class="edge">
<title>r11:e&#45;&gt;r3:n</title>
<path fill="none" stroke="#000000" d="M452,-746C510.3676,-746 506.6392,-686.7928 506.0569,-628.1588"/>
<polygon fill="#000000" stroke="#000000" points="509.556,-627.9802 506,-618 502.5561,-628.0195 509.556,-627.9802"/>
<text text-anchor="middle" x="507.5" y="-749.8" font-family="Times,serif" font-size="14.00" fill="#000000">/selected_value</text>
</g>
<!-- r7 -->
<g id="node13" class="node">
<title>r7</title>
<g id="a_node13"><a xlink:href="file:///home/travis/build/andrewdavidmackenzie/flow/flowstdlib/data/transpose/transpose.html" xlink:title="transpose (#7)">
<ellipse fill="#ff7f50" stroke="#000000" cx="227" cy="-600" rx="79.8859" ry="18"/>
<text text-anchor="middle" x="227" y="-596.3" font-family="Times,serif" font-size="14.00" fill="#000000">transpose (#7)</text>
</a>
</g>
</g>
<!-- r11&#45;&gt;r7 -->
<g id="edge16" class="edge">
<title>r11:e&#45;&gt;r7:n</title>
<path fill="none" stroke="#000000" d="M452,-746C460,-746 456.2362,-734.7864 452,-728 394.9578,-636.6184 237.5917,-723.338 227.5082,-628.1297"/>
<polygon fill="#000000" stroke="#000000" points="230.9968,-627.812 227,-618 224.0056,-628.1629 230.9968,-627.812"/>
<text text-anchor="middle" x="507.5" y="-734.8" font-family="Times,serif" font-size="14.00" fill="#000000">/selected_value</text>
</g>
<!-- initializerr1_1 -->
<!-- initializerr1_1&#45;&gt;r1 -->
<g id="edge3" class="edge">
<title>initializerr1_1&#45;&gt;r1:nw</title>
<path fill="none" stroke="#0000ff" stroke-dasharray="1,5" d="M1153.7172,-802.3341C1114.2471,-778.7797 1052.6028,-734.6423 1073.7386,-698.9426"/>
<polygon fill="#0000ff" stroke="#0000ff" points="1076.5577,-701.02 1080,-691 1071.0604,-696.6864 1076.5577,-701.02"/>
<text text-anchor="middle" x="1109.5" y="-742.3" font-family="Times,serif" font-size="14.00" fill="#000000">42</text>
</g>
<!-- initializerr1_2 -->
<!-- initializerr1_2&#45;&gt;r1 -->
<g id="edge4" class="edge">
<title>initializerr1_2&#45;&gt;r1:ne</title>
<path fill="none" stroke="#0000ff" stroke-dasharray="1,5" d="M1350.6519,-807.1172C1288.4195,-791.6187 1189.1657,-759 1123.4451,-698.1606"/>
<polygon fill="#0000ff" stroke="#0000ff" points="1125.6337,-695.4094 1116,-691 1120.7813,-700.4547 1125.6337,-695.4094"/>
<text text-anchor="middle" x="1232" y="-742.3" font-family="Times,serif" font-size="14.00" fill="#000000">&#45;1</text>
</g>
<!-- initializerr1_3 -->
<!-- initializerr1_3&#45;&gt;r1 -->
<g id="edge5" class="edge">
<title>initializerr1_3&#45;&gt;r1:n</title>
<path fill="none" stroke="#0000ff" d="M974.415,-801.1259C990.3571,-781.9247 1017.3297,-751.0655 1044,-728 1062.9109,-711.6452 1089.1991,-717.5609 1096.2186,-701.0835"/>
<polygon fill="#0000ff" stroke="#0000ff" points="1099.7069,-701.4564 1098,-691 1092.8136,-700.2386 1099.7069,-701.4564"/>
<text text-anchor="middle" x="1049" y="-742.3" font-family="Times,serif" font-size="14.00" fill="#000000">0</text>
</g>
<!-- r6 -->
<g id="node16" class="node">
<title>r6</title>
<g id="a_node16"><a xlink:href="file:///home/travis/build/andrewdavidmackenzie/flow/flowstdlib/data/accumulate/accumulate.html" xlink:title="compose_matrix (#6)">
<ellipse fill="#ff7f50" stroke="#000000" cx="732" cy="-145" rx="110.4804" ry="18"/>
<text text-anchor="middle" x="732" y="-141.3" font-family="Times,serif" font-size="14.00" fill="#000000">compose_matrix (#6)</text>
</a>
</g>
</g>
<!-- r5&#45;&gt;r6 -->
<g id="edge20" class="edge">
<title>r5:e&#45;&gt;r6:nw</title>
<path fill="none" stroke="#000000" d="M1289,-506C1297,-506 1294.0258,-494.2243 1289,-488 1239.3022,-426.4504 1115,-529.6089 1115,-450.5 1115,-450.5 1115,-450.5 1115,-207.5 1115,-167.6617 773.2813,-188.5203 719.4424,-171.4114"/>
<polygon fill="#000000" stroke="#000000" points="722.3709,-169.4945 714,-163 716.4938,-173.2972 722.3709,-169.4945"/>
<text text-anchor="middle" x="674" y="-166.8" font-family="Times,serif" font-size="14.00" fill="#000000">chunk_size</text>
<text text-anchor="middle" x="1309" y="-509.8" font-family="Times,serif" font-size="14.00" fill="#000000">/rows</text>
</g>
<!-- r10 -->
<g id="node17" class="node">
<title>r10</title>
<g id="a_node17"><a xlink:href="file:///home/travis/build/andrewdavidmackenzie/flow/flowstdlib/data/multiply_row/multiply_row.html" xlink:title="multiply (#10)">
<ellipse fill="#ff7f50" stroke="#000000" cx="781" cy="-395" rx="78.7863" ry="18"/>
<text text-anchor="middle" x="781" y="-391.3" font-family="Times,serif" font-size="14.00" fill="#000000">multiply (#10)</text>
</a>
</g>
</g>
<!-- r4&#45;&gt;r10 -->
<g id="edge21" class="edge">
<title>r4:e&#45;&gt;r10:n</title>
<path fill="none" stroke="#000000" d="M1094,-506C1102,-506 1098.9541,-494.2815 1094,-488 1073.6704,-462.2236 826.91,-450.7067 786.5627,-421.3271"/>
<polygon fill="#000000" stroke="#000000" points="789.4652,-419.3711 781,-413 783.6445,-423.2595 789.4652,-419.3711"/>
<text text-anchor="middle" x="776.5" y="-416.8" font-family="Times,serif" font-size="14.00" fill="#000000">a</text>
</g>
<!-- initializerr11_1 -->
<!-- initializerr11_1&#45;&gt;r11 -->
<g id="edge10" class="edge">
<title>initializerr11_1&#45;&gt;r11:nw</title>
<path fill="none" stroke="#0000ff" stroke-dasharray="1,5" d="M332.4563,-894.5122C331.033,-865.3039 332.4911,-808.0868 361.0458,-771.8424"/>
<polygon fill="#0000ff" stroke="#0000ff" points="363.984,-773.8042 368,-764 358.7466,-769.1599 363.984,-773.8042"/>
<text text-anchor="middle" x="353.5" y="-815.3" font-family="Times,serif" font-size="14.00" fill="#000000">42</text>
</g>
<!-- initializerr11_2 -->
<!-- initializerr11_2&#45;&gt;r11 -->
<g id="edge11" class="edge">
<title>initializerr11_2&#45;&gt;r11:ne</title>
<path fill="none" stroke="#0000ff" stroke-dasharray="1,5" d="M549.165,-895.5643C518.5648,-869.6927 459.8211,-819.0192 411.1096,-771.0539"/>
<polygon fill="#0000ff" stroke="#0000ff" points="413.564,-768.5586 404,-764 408.6337,-773.5278 413.564,-768.5586"/>
<text text-anchor="middle" x="523" y="-815.3" font-family="Times,serif" font-size="14.00" fill="#000000">&#45;1</text>
</g>
<!-- initializerr11_3 -->
<!-- initializerr11_3&#45;&gt;r11 -->
<g id="edge12" class="edge">
<title>initializerr11_3&#45;&gt;r11:n</title>
<path fill="none" stroke="#0000ff" d="M127.3166,-896.1671C166.9435,-873.6213 240.0131,-832.7761 304,-801 336.3131,-784.9532 377.0775,-800.2945 384.7312,-774.0681"/>
<polygon fill="#0000ff" stroke="#0000ff" points="388.2221,-774.3592 386,-764 381.277,-773.4839 388.2221,-774.3592"/>
<text text-anchor="middle" x="309" y="-815.3" font-family="Times,serif" font-size="14.00" fill="#000000">1</text>
</g>
<!-- r3&#45;&gt;r4 -->
<g id="edge18" class="edge">
<title>r3:se&#45;&gt;r4:ne</title>
<path fill="none" stroke="#000000" d="M524,-582C552.0503,-553.9497 840.8222,-561.2243 880,-555 933.3473,-546.5246 1032.7802,-562.524 1013.4862,-531.8029"/>
<polygon fill="#000000" stroke="#000000" points="1016.084,-529.4527 1007,-524 1010.701,-533.9274 1016.084,-529.4527"/>
<text text-anchor="middle" x="985.5" y="-527.8" font-family="Times,serif" font-size="14.00" fill="#000000">factor</text>
<text text-anchor="middle" x="491.5" y="-570.8" font-family="Times,serif" font-size="14.00" fill="#000000">/columns</text>
</g>
<!-- r9 -->
<g id="node14" class="node">
<title>r9</title>
<g id="a_node14"><a xlink:href="file:///home/travis/build/andrewdavidmackenzie/flow/flowstdlib/data/duplicate/duplicate.html" xlink:title="duplicate (#9)">
<ellipse fill="#ff7f50" stroke="#000000" cx="555" cy="-506" rx="77.1866" ry="18"/>
<text text-anchor="middle" x="555" y="-502.3" font-family="Times,serif" font-size="14.00" fill="#000000">duplicate (#9)</text>
</a>
</g>
</g>
<!-- r3&#45;&gt;r9 -->
<g id="edge17" class="edge">
<title>r3:se&#45;&gt;r9:ne</title>
<path fill="none" stroke="#000000" d="M524,-582C544.879,-561.121 585.0045,-550.6431 578.7242,-532.3644"/>
<polygon fill="#000000" stroke="#000000" points="581.536,-530.2759 573,-524 575.7593,-534.2292 581.536,-530.2759"/>
<text text-anchor="middle" x="551.5" y="-527.8" font-family="Times,serif" font-size="14.00" fill="#000000">factor</text>
<text text-anchor="middle" x="556.5" y="-570.8" font-family="Times,serif" font-size="14.00" fill="#000000">/columns</text>
</g>
<!-- r8 -->
<g id="node15" class="node">
<title>r8</title>
<g id="a_node15"><a xlink:href="file:///home/travis/build/andrewdavidmackenzie/flow/flowstdlib/data/accumulate/accumulate.html" xlink:title="compose_rows (#8)">
<ellipse fill="#ff7f50" stroke="#000000" cx="739" cy="-270" rx="102.8821" ry="18"/>
<text text-anchor="middle" x="739" y="-266.3" font-family="Times,serif" font-size="14.00" fill="#000000">compose_rows (#8)</text>
</a>
</g>
</g>
<!-- r3&#45;&gt;r8 -->
<g id="edge19" class="edge">
<title>r3:se&#45;&gt;r8:nw</title>
<path fill="none" stroke="#000000" d="M524,-582C551.1311,-554.8689 476.4719,-571.8488 442,-555 406.8933,-537.8409 369,-545.0757 369,-506 369,-506 369,-506 369,-332.5 369,-256.889 641.445,-336.6452 712.9632,-294.1457"/>
<polygon fill="#000000" stroke="#000000" points="715.1825,-296.8548 721,-288 710.9303,-291.2942 715.1825,-296.8548"/>
<text text-anchor="middle" x="681" y="-291.8" font-family="Times,serif" font-size="14.00" fill="#000000">chunk_size</text>
<text text-anchor="middle" x="556.5" y="-585.8" font-family="Times,serif" font-size="14.00" fill="#000000">/columns</text>
</g>
<!-- r7&#45;&gt;r9 -->
<g id="edge22" class="edge">
<title>r7:e&#45;&gt;r9:n</title>
<path fill="none" stroke="#000000" d="M307,-600C313.3748,-600 502.6061,-546.1467 546.1334,-528.7449"/>
<polygon fill="#000000" stroke="#000000" points="547.8345,-531.8042 555,-524 544.5317,-525.6324 547.8345,-531.8042"/>
<text text-anchor="middle" x="535.5" y="-527.8" font-family="Times,serif" font-size="14.00" fill="#000000">value</text>
</g>
<!-- r9&#45;&gt;r10 -->
<g id="edge23" class="edge">
<title>r9:e&#45;&gt;r10:ne</title>
<path fill="none" stroke="#000000" d="M633,-506C651.1687,-506 771.7458,-448.3577 795.8107,-422.6578"/>
<polygon fill="#000000" stroke="#000000" points="799.1877,-423.5932 799,-413 792.5408,-421.3981 799.1877,-423.5932"/>
<text text-anchor="middle" x="794" y="-416.8" font-family="Times,serif" font-size="14.00" fill="#000000">b</text>
</g>
<!-- r8&#45;&gt;r8 -->
<g id="edge26" class="edge">
<title>r8:e&#45;&gt;r8:ne</title>
<path fill="none" stroke="#000000" d="M842,-270C865.6909,-261 913.6909,-261 913.6909,-279 913.6909,-295.9805 826.0682,-296.9423 767.2566,-289.441"/>
<polygon fill="#000000" stroke="#000000" points="767.3897,-285.9254 757,-288 766.4157,-292.8574 767.3897,-285.9254"/>
<text text-anchor="middle" x="781" y="-291.8" font-family="Times,serif" font-size="14.00" fill="#000000">partial</text>
<text text-anchor="middle" x="868" y="-273.8" font-family="Times,serif" font-size="14.00" fill="#000000">/partial</text>
</g>
<!-- r8&#45;&gt;r8 -->
<g id="edge27" class="edge">
<title>r8:s&#45;&gt;r8:nw</title>
<path fill="none" stroke="#000000" d="M739,-252C680.7697,-243 564.3091,-243 564.3091,-270 564.3091,-295.4707 651.9318,-296.9134 710.7434,-289.4394"/>
<polygon fill="#000000" stroke="#000000" points="711.5835,-292.8559 721,-288 710.6106,-285.9238 711.5835,-292.8559"/>
<text text-anchor="middle" x="761" y="-291.8" font-family="Times,serif" font-size="14.00" fill="#000000">chunk_size</text>
<text text-anchor="middle" x="696.5" y="-240.8" font-family="Times,serif" font-size="14.00" fill="#000000">/chunk_size</text>
</g>
<!-- r8&#45;&gt;r6 -->
<g id="edge28" class="edge">
<title>r8:s&#45;&gt;r6:n</title>
<path fill="none" stroke="#000000" d="M739,-252C739,-215.8871 733.2013,-204.6531 732.1594,-173.0107"/>
<polygon fill="#000000" stroke="#000000" points="735.6588,-172.943 732,-163 728.6597,-173.0545 735.6588,-172.943"/>
<text text-anchor="middle" x="755" y="-166.8" font-family="Times,serif" font-size="14.00" fill="#000000">values</text>
<text text-anchor="middle" x="763.5" y="-240.8" font-family="Times,serif" font-size="14.00" fill="#000000">/chunk</text>
</g>
<!-- r6&#45;&gt;r6 -->
<g id="edge30" class="edge">
<title>r6:e&#45;&gt;r6:ne</title>
<path fill="none" stroke="#000000" d="M843,-145C866.4902,-136 914.4902,-136 914.4902,-154 914.4902,-171.0508 821.4747,-171.9499 759.9593,-164.3474"/>
<polygon fill="#000000" stroke="#000000" points="760.379,-160.8724 750,-163 759.4404,-167.8092 760.379,-160.8724"/>
<text text-anchor="middle" x="774" y="-166.8" font-family="Times,serif" font-size="14.00" fill="#000000">partial</text>
<text text-anchor="middle" x="869" y="-148.8" font-family="Times,serif" font-size="14.00" fill="#000000">/partial</text>
</g>
<!-- r6&#45;&gt;r6 -->
<g id="edge31" class="edge">
<title>r6:s&#45;&gt;r6:nw</title>
<path fill="none" stroke="#000000" d="M732,-127C671.1699,-118 549.5098,-118 549.5098,-145 549.5098,-170.5762 642.5253,-171.9249 704.0407,-164.3461"/>
<polygon fill="#000000" stroke="#000000" points="704.5589,-167.808 714,-163 703.6213,-160.871 704.5589,-167.808"/>
<text text-anchor="middle" x="674" y="-166.8" font-family="Times,serif" font-size="14.00" fill="#000000">chunk_size</text>
<text text-anchor="middle" x="689.5" y="-115.8" font-family="Times,serif" font-size="14.00" fill="#000000">/chunk_size</text>
</g>
<!-- r2 -->
<g id="node20" class="node">
<title>r2</title>
<g id="a_node20"><a xlink:href="file:///home/travis/build/andrewdavidmackenzie/flow/flowr/src/lib/flowruntime/stdio/stdout.html" xlink:title="print (#2)">
<ellipse fill="#ff7f50" stroke="#000000" cx="732" cy="-34" rx="57.3905" ry="18"/>
<text text-anchor="middle" x="732" y="-30.3" font-family="Times,serif" font-size="14.00" fill="#000000">print (#2)</text>
</a>
</g>
</g>
<!-- r6&#45;&gt;r2 -->
<g id="edge32" class="edge">
<title>r6:s&#45;&gt;r2:n</title>
<path fill="none" stroke="#000000" d="M732,-127C732,-97.3125 732,-87.4553 732,-62.1057"/>
<polygon fill="#000000" stroke="#000000" points="735.5001,-62 732,-52 728.5001,-62 735.5001,-62"/>
<text text-anchor="middle" x="756.5" y="-115.8" font-family="Times,serif" font-size="14.00" fill="#000000">/chunk</text>
</g>
<!-- r10&#45;&gt;r8 -->
<g id="edge24" class="edge">
<title>r10:e&#45;&gt;r8:n</title>
<path fill="none" stroke="#000000" d="M860,-395C868,-395 863.611,-384.1387 860,-377 831.5147,-320.687 748.7569,-350.9654 739.7905,-298.0515"/>
<polygon fill="#000000" stroke="#000000" points="743.2733,-297.6948 739,-288 736.2949,-298.2437 743.2733,-297.6948"/>
<text text-anchor="middle" x="716" y="-276.8" font-family="Times,serif" font-size="14.00" fill="#000000">values</text>
</g>
<!-- initializerr8_1 -->
<!-- initializerr8_1&#45;&gt;r8 -->
<g id="edge25" class="edge">
<title>initializerr8_1&#45;&gt;r8:n</title>
<path fill="none" stroke="#0000ff" stroke-dasharray="1,5" d="M588.7971,-378.834C635.0603,-356.8751 713.3866,-317.9239 733.9392,-296.6434"/>
<polygon fill="#0000ff" stroke="#0000ff" points="736.9676,-298.3981 739,-288 730.9268,-294.8611 736.9676,-298.3981"/>
<text text-anchor="middle" x="696.5" y="-328.8" font-family="Times,serif" font-size="14.00" fill="#000000">[]</text>
</g>
<!-- initializerr6_1 -->
<!-- initializerr6_1&#45;&gt;r6 -->
<g id="edge29" class="edge">
<title>initializerr6_1&#45;&gt;r6:n</title>
<path fill="none" stroke="#0000ff" stroke-dasharray="1,5" d="M528.0184,-254.6278C587.5062,-231.526 695.3949,-188.5848 724.5622,-169.983"/>
<polygon fill="#0000ff" stroke="#0000ff" points="727.1052,-172.3964 732,-163 722.3139,-167.2931 727.1052,-172.3964"/>
<text text-anchor="middle" x="666.5" y="-203.8" font-family="Times,serif" font-size="14.00" fill="#000000">[]</text>
</g>
</g>
</svg>
