<?xml version="1.0" encoding="UTF-8" standalone="no"?>
<!DOCTYPE svg PUBLIC "-//W3C//DTD SVG 1.1//EN"
 "http://www.w3.org/Graphics/SVG/1.1/DTD/svg11.dtd">
<!-- Generated by graphviz version 2.40.1 (20161225.0304)
 -->
<!-- Title: matrix_mult Pages: 1 -->
<svg width="1484pt" height="1001pt"
 viewBox="0.00 0.00 1484.00 1001.00" xmlns="http://www.w3.org/2000/svg" xmlns:xlink="http://www.w3.org/1999/xlink">
<g id="graph0" class="graph" transform="scale(1 1) rotate(0) translate(4 997)">
<title>matrix_mult</title>
<polygon fill="#ffffff" stroke="transparent" points="-4,4 -4,-997 1480,-997 1480,4 -4,4"/>
<text text-anchor="middle" x="738" y="-977.8" font-family="Times,serif" font-size="14.00" fill="#000000">/matrix_mult</text>
<g id="clust1" class="cluster">
<title>cluster_select_0</title>
<polygon fill="none" stroke="#000000" points="852,-480 852,-868 1468,-868 1468,-480 852,-480"/>
<text text-anchor="middle" x="1160" y="-852.8" font-family="Times,serif" font-size="14.00" fill="#000000">/matrix_mult/select_0</text>
</g>
<g id="clust2" class="cluster">
<title>cluster_select_1</title>
<polygon fill="none" stroke="#000000" points="8,-574 8,-962 624,-962 624,-574 8,-574"/>
<text text-anchor="middle" x="316" y="-946.8" font-family="Times,serif" font-size="14.00" fill="#000000">/matrix_mult/select_1</text>
</g>
<g id="clust3" class="cluster">
<title>cluster_multiply</title>
<polygon fill="none" stroke="#000000" points="380,-8 380,-555 844,-555 844,-8 380,-8"/>
<text text-anchor="middle" x="612" y="-539.8" font-family="Times,serif" font-size="14.00" fill="#000000">/matrix_mult/multiply</text>
</g>
<!-- r10 -->
<g id="node1" class="node">
<title>r10</title>
<g id="a_node1"><a xlink:href="file:///home/travis/build/andrewdavidmackenzie/flow/flowr/src/lib/flowruntime/stdio/readline.html" xlink:title="readline (#10)">
<ellipse fill="#ff7f50" stroke="#000000" cx="710" cy="-819" rx="77.9862" ry="18"/>
<text text-anchor="middle" x="710" y="-815.3" font-family="Times,serif" font-size="14.00" fill="#000000">readline (#10)</text>
</a>
</g>
</g>
<!-- r9 -->
<g id="node2" class="node">
<title>r9</title>
<g id="a_node2"><a xlink:href="file:///home/travis/build/andrewdavidmackenzie/flow/flowstdlib/control/index/index.html" xlink:title="index (#9)">
<ellipse fill="#ff7f50" stroke="#000000" cx="1109" cy="-673" rx="59.5901" ry="18"/>
<text text-anchor="middle" x="1109" y="-669.3" font-family="Times,serif" font-size="14.00" fill="#000000">index (#9)</text>
</a>
</g>
</g>
<!-- r10&#45;&gt;r9 -->
<g id="edge1" class="edge">
<title>r10:e&#45;&gt;r9:n</title>
<path fill="none" stroke="#000000" d="M788,-819C800.2072,-819 976.5834,-732.3217 988,-728 993.4699,-725.9294 1073.603,-706.5565 1100.3683,-696.0579"/>
<polygon fill="#000000" stroke="#000000" points="1102.1416,-699.0755 1109,-691 1098.6026,-693.036 1102.1416,-699.0755"/>
<text text-anchor="middle" x="1089.5" y="-694.8" font-family="Times,serif" font-size="14.00" fill="#000000">value</text>
<text text-anchor="middle" x="805" y="-822.8" font-family="Times,serif" font-size="14.00" fill="#000000">/json</text>
</g>
<!-- r0 -->
<g id="node3" class="node">
<title>r0</title>
<g id="a_node3"><a xlink:href="file:///home/travis/build/andrewdavidmackenzie/flow/flowstdlib/control/index/index.html" xlink:title="index (#0)">
<ellipse fill="#ff7f50" stroke="#000000" cx="352" cy="-746" rx="59.5901" ry="18"/>
<text text-anchor="middle" x="352" y="-742.3" font-family="Times,serif" font-size="14.00" fill="#000000">index (#0)</text>
</a>
</g>
</g>
<!-- r10&#45;&gt;r0 -->
<g id="edge2" class="edge">
<title>r10:e&#45;&gt;r0:n</title>
<path fill="none" stroke="#000000" d="M788,-819C796,-819 793.4124,-806.8912 788,-801 784.2578,-796.9268 426.152,-774.6522 361.835,-766.1006"/>
<polygon fill="#000000" stroke="#000000" points="362.5105,-762.666 352,-764 361.0484,-769.5116 362.5105,-762.666"/>
<text text-anchor="middle" x="332.5" y="-767.8" font-family="Times,serif" font-size="14.00" fill="#000000">value</text>
<text text-anchor="middle" x="805" y="-807.8" font-family="Times,serif" font-size="14.00" fill="#000000">/json</text>
</g>
<!-- r9&#45;&gt;r9 -->
<g id="edge6" class="edge">
<title>r9:sw&#45;&gt;r9:ne</title>
<path fill="none" stroke="#000000" d="M1091,-655C977.2053,-667 977.2053,-709 1109,-709 1236.8048,-709 1240.6739,-697.7156 1137.0215,-691.5609"/>
<polygon fill="#000000" stroke="#000000" points="1137.18,-688.0644 1127,-691 1136.7887,-695.0535 1137.18,-688.0644"/>
<text text-anchor="middle" x="1181" y="-694.8" font-family="Times,serif" font-size="14.00" fill="#000000">previous_value</text>
<text text-anchor="middle" x="1069.5" y="-643.8" font-family="Times,serif" font-size="14.00" fill="#000000">/value</text>
</g>
<!-- r9&#45;&gt;r9 -->
<g id="edge7" class="edge">
<title>r9:s&#45;&gt;r9:nw</title>
<path fill="none" stroke="#000000" d="M1109,-655C1065.0684,-646 977.2053,-646 977.2053,-673 977.2053,-698.0488 1037.3359,-699.859 1081.1057,-692.8034"/>
<polygon fill="#000000" stroke="#000000" points="1081.7897,-696.2365 1091,-691 1080.5345,-689.3499 1081.7897,-696.2365"/>
<text text-anchor="middle" x="1036.5" y="-694.8" font-family="Times,serif" font-size="14.00" fill="#000000">previous_index</text>
<text text-anchor="middle" x="1131" y="-643.8" font-family="Times,serif" font-size="14.00" fill="#000000">/index</text>
</g>
<!-- r2 -->
<g id="node7" class="node">
<title>r2</title>
<g id="a_node7"><a xlink:href="file:///home/travis/build/andrewdavidmackenzie/flow/flowstdlib/data/info/info.html" xlink:title="a_info (#2)">
<ellipse fill="#ff7f50" stroke="#000000" cx="1203" cy="-506" rx="61.99" ry="18"/>
<text text-anchor="middle" x="1203" y="-502.3" font-family="Times,serif" font-size="14.00" fill="#000000">a_info (#2)</text>
</a>
</g>
</g>
<!-- r9&#45;&gt;r2 -->
<g id="edge8" class="edge">
<title>r9:e&#45;&gt;r2:n</title>
<path fill="none" stroke="#000000" d="M1169,-673C1233.6078,-673 1206.0701,-599.6487 1203.2268,-534.033"/>
<polygon fill="#000000" stroke="#000000" points="1206.7252,-533.9183 1203,-524 1199.727,-534.0766 1206.7252,-533.9183"/>
<text text-anchor="middle" x="1224.5" y="-676.8" font-family="Times,serif" font-size="14.00" fill="#000000">/selected_value</text>
</g>
<!-- r3 -->
<g id="node8" class="node">
<title>r3</title>
<g id="a_node8"><a xlink:href="file:///home/travis/build/andrewdavidmackenzie/flow/flowstdlib/data/duplicate_rows/duplicate_rows.html" xlink:title="duplicate_rows (#3)">
<ellipse fill="#ff7f50" stroke="#000000" cx="965" cy="-506" rx="104.7816" ry="18"/>
<text text-anchor="middle" x="965" y="-502.3" font-family="Times,serif" font-size="14.00" fill="#000000">duplicate_rows (#3)</text>
</a>
</g>
</g>
<!-- r9&#45;&gt;r3 -->
<g id="edge9" class="edge">
<title>r9:e&#45;&gt;r3:n</title>
<path fill="none" stroke="#000000" d="M1169,-673C1177,-673 1172.8352,-662.0207 1169,-655 1119.0587,-563.5782 975.0056,-627.1982 965.4946,-534.1534"/>
<polygon fill="#000000" stroke="#000000" points="968.9825,-533.8178 965,-524 961.9908,-534.1585 968.9825,-533.8178"/>
<text text-anchor="middle" x="1224.5" y="-661.8" font-family="Times,serif" font-size="14.00" fill="#000000">/selected_value</text>
</g>
<!-- r0&#45;&gt;r0 -->
<g id="edge13" class="edge">
<title>r0:sw&#45;&gt;r0:ne</title>
<path fill="none" stroke="#000000" d="M334,-728C220.2053,-740 220.2053,-782 352,-782 479.8048,-782 483.6739,-770.7156 380.0215,-764.5609"/>
<polygon fill="#000000" stroke="#000000" points="380.18,-761.0644 370,-764 379.7887,-768.0535 380.18,-761.0644"/>
<text text-anchor="middle" x="424" y="-767.8" font-family="Times,serif" font-size="14.00" fill="#000000">previous_value</text>
<text text-anchor="middle" x="312.5" y="-716.8" font-family="Times,serif" font-size="14.00" fill="#000000">/value</text>
</g>
<!-- r0&#45;&gt;r0 -->
<g id="edge14" class="edge">
<title>r0:s&#45;&gt;r0:nw</title>
<path fill="none" stroke="#000000" d="M352,-728C308.0684,-719 220.2053,-719 220.2053,-746 220.2053,-771.0488 280.3359,-772.859 324.1057,-765.8034"/>
<polygon fill="#000000" stroke="#000000" points="324.7897,-769.2365 334,-764 323.5345,-762.3499 324.7897,-769.2365"/>
<text text-anchor="middle" x="279.5" y="-767.8" font-family="Times,serif" font-size="14.00" fill="#000000">previous_index</text>
<text text-anchor="middle" x="374" y="-716.8" font-family="Times,serif" font-size="14.00" fill="#000000">/index</text>
</g>
<!-- r7 -->
<g id="node12" class="node">
<title>r7</title>
<g id="a_node12"><a xlink:href="file:///home/travis/build/andrewdavidmackenzie/flow/flowstdlib/data/info/info.html" xlink:title="b_info (#7)">
<ellipse fill="#ff7f50" stroke="#000000" cx="519" cy="-600" rx="62.2891" ry="18"/>
<text text-anchor="middle" x="519" y="-596.3" font-family="Times,serif" font-size="14.00" fill="#000000">b_info (#7)</text>
</a>
</g>
</g>
<!-- r0&#45;&gt;r7 -->
<g id="edge15" class="edge">
<title>r0:e&#45;&gt;r7:n</title>
<path fill="none" stroke="#000000" d="M412,-746C482.672,-746 515.8294,-697.078 518.7826,-628.2898"/>
<polygon fill="#000000" stroke="#000000" points="522.2879,-628.0717 519,-618 515.2894,-627.9238 522.2879,-628.0717"/>
<text text-anchor="middle" x="467.5" y="-749.8" font-family="Times,serif" font-size="14.00" fill="#000000">/selected_value</text>
</g>
<!-- r5 -->
<g id="node13" class="node">
<title>r5</title>
<g id="a_node13"><a xlink:href="file:///home/travis/build/andrewdavidmackenzie/flow/flowstdlib/data/transpose/transpose.html" xlink:title="transpose (#5)">
<ellipse fill="#ff7f50" stroke="#000000" cx="272" cy="-600" rx="79.8859" ry="18"/>
<text text-anchor="middle" x="272" y="-596.3" font-family="Times,serif" font-size="14.00" fill="#000000">transpose (#5)</text>
</a>
</g>
</g>
<!-- r0&#45;&gt;r5 -->
<g id="edge16" class="edge">
<title>r0:e&#45;&gt;r5:n</title>
<path fill="none" stroke="#000000" d="M412,-746C420,-746 415.4971,-735.1952 412,-728 379.0303,-660.166 281.7265,-693.5978 272.6767,-628.3643"/>
<polygon fill="#000000" stroke="#000000" points="276.1442,-627.7507 272,-618 269.159,-628.2068 276.1442,-627.7507"/>
<text text-anchor="middle" x="467.5" y="-734.8" font-family="Times,serif" font-size="14.00" fill="#000000">/selected_value</text>
</g>
<!-- initializerr9_1 -->
<!-- initializerr9_1&#45;&gt;r9 -->
<g id="edge3" class="edge">
<title>initializerr9_1&#45;&gt;r9:nw</title>
<path fill="none" stroke="#0000ff" stroke-dasharray="1,5" d="M1138.3988,-801.6803C1110.0323,-777.1203 1065.9218,-731.5434 1084.7964,-698.9782"/>
<polygon fill="#0000ff" stroke="#0000ff" points="1087.6246,-701.0428 1091,-691 1082.0986,-696.7459 1087.6246,-701.0428"/>
<text text-anchor="middle" x="1109.5" y="-742.3" font-family="Times,serif" font-size="14.00" fill="#000000">42</text>
</g>
<!-- initializerr9_2 -->
<!-- initializerr9_2&#45;&gt;r9 -->
<g id="edge4" class="edge">
<title>initializerr9_2&#45;&gt;r9:ne</title>
<path fill="none" stroke="#0000ff" stroke-dasharray="1,5" d="M1335.2668,-805.1761C1281.2494,-787.7956 1193.9209,-753.3662 1134.4703,-698.1933"/>
<polygon fill="#0000ff" stroke="#0000ff" points="1136.6311,-695.4151 1127,-691 1131.7757,-700.4575 1136.6311,-695.4151"/>
<text text-anchor="middle" x="1238" y="-742.3" font-family="Times,serif" font-size="14.00" fill="#000000">&#45;1</text>
</g>
<!-- initializerr9_3 -->
<!-- initializerr9_3&#45;&gt;r9 -->
<g id="edge5" class="edge">
<title>initializerr9_3&#45;&gt;r9:n</title>
<path fill="none" stroke="#0000ff" d="M957.8602,-801.4594C981.3071,-782.8077 1019.7917,-752.6576 1054,-728 1074.5386,-713.1956 1100.3954,-718.2685 1107.2614,-701.29"/>
<polygon fill="#0000ff" stroke="#0000ff" points="1110.7851,-701.4434 1109,-691 1103.8829,-700.2771 1110.7851,-701.4434"/>
<text text-anchor="middle" x="1059" y="-742.3" font-family="Times,serif" font-size="14.00" fill="#000000">0</text>
</g>
<!-- r4 -->
<g id="node16" class="node">
<title>r4</title>
<g id="a_node16"><a xlink:href="file:///home/travis/build/andrewdavidmackenzie/flow/flowstdlib/data/accumulate/accumulate.html" xlink:title="compose_matrix (#4)">
<ellipse fill="#ff7f50" stroke="#000000" cx="708" cy="-145" rx="110.4804" ry="18"/>
<text text-anchor="middle" x="708" y="-141.3" font-family="Times,serif" font-size="14.00" fill="#000000">compose_matrix (#4)</text>
</a>
</g>
</g>
<!-- r2&#45;&gt;r4 -->
<g id="edge20" class="edge">
<title>r2:e&#45;&gt;r4:nw</title>
<path fill="none" stroke="#000000" d="M1265,-506C1273,-506 1270.2594,-494.0282 1265,-488 1224.5973,-441.691 991,-511.9565 991,-450.5 991,-450.5 991,-450.5 991,-207.5 991,-145.1666 694.5612,-200.5748 685.7011,-172.1544"/>
<polygon fill="#000000" stroke="#000000" points="688.9173,-173.5394 690,-163 682.5812,-170.5639 688.9173,-173.5394"/>
<text text-anchor="middle" x="650" y="-166.8" font-family="Times,serif" font-size="14.00" fill="#000000">chunk_size</text>
<text text-anchor="middle" x="1285" y="-509.8" font-family="Times,serif" font-size="14.00" fill="#000000">/rows</text>
</g>
<!-- r1 -->
<g id="node17" class="node">
<title>r1</title>
<g id="a_node17"><a xlink:href="file:///home/travis/build/andrewdavidmackenzie/flow/flowstdlib/data/multiply_row/multiply_row.html" xlink:title="multiply (#1)">
<ellipse fill="#ff7f50" stroke="#000000" cx="763" cy="-395" rx="72.5877" ry="18"/>
<text text-anchor="middle" x="763" y="-391.3" font-family="Times,serif" font-size="14.00" fill="#000000">multiply (#1)</text>
</a>
</g>
</g>
<!-- r3&#45;&gt;r1 -->
<g id="edge21" class="edge">
<title>r3:e&#45;&gt;r1:n</title>
<path fill="none" stroke="#000000" d="M1070,-506C1078,-506 1075.2669,-494.0216 1070,-488 1050.2195,-465.3848 965.2818,-476.7297 936,-470 860.6463,-452.6817 771.4238,-490.295 763.5598,-423.1816"/>
<polygon fill="#000000" stroke="#000000" points="767.0438,-422.7928 763,-413 760.0543,-423.1771 767.0438,-422.7928"/>
<text text-anchor="middle" x="758.5" y="-416.8" font-family="Times,serif" font-size="14.00" fill="#000000">a</text>
</g>
<!-- initializerr0_1 -->
<!-- initializerr0_1&#45;&gt;r0 -->
<g id="edge10" class="edge">
<title>initializerr0_1&#45;&gt;r0:nw</title>
<path fill="none" stroke="#0000ff" stroke-dasharray="1,5" d="M311.8978,-894.8798C306.3791,-865.6516 300.1276,-807.7452 327.257,-771.7654"/>
<polygon fill="#0000ff" stroke="#0000ff" points="330.0862,-773.8454 334,-764 324.8007,-769.2558 330.0862,-773.8454"/>
<text text-anchor="middle" x="321.5" y="-815.3" font-family="Times,serif" font-size="14.00" fill="#000000">42</text>
</g>
<!-- initializerr0_2 -->
<!-- initializerr0_2&#45;&gt;r0 -->
<g id="edge11" class="edge">
<title>initializerr0_2&#45;&gt;r0:ne</title>
<path fill="none" stroke="#0000ff" stroke-dasharray="1,5" d="M518.5309,-895.7301C487.0271,-870.0674 426.6536,-819.6631 377.2108,-771.142"/>
<polygon fill="#0000ff" stroke="#0000ff" points="379.5679,-768.5504 370,-764 374.6419,-773.5238 379.5679,-768.5504"/>
<text text-anchor="middle" x="491" y="-815.3" font-family="Times,serif" font-size="14.00" fill="#000000">&#45;1</text>
</g>
<!-- initializerr0_3 -->
<!-- initializerr0_3&#45;&gt;r0 -->
<g id="edge12" class="edge">
<title>initializerr0_3&#45;&gt;r0:n</title>
<path fill="none" stroke="#0000ff" d="M118.9032,-896.0695C154.9253,-873.59 221.0215,-833.0038 279,-801 307.3616,-785.3446 343.1086,-797.0788 350.589,-774.1364"/>
<polygon fill="#0000ff" stroke="#0000ff" points="354.0878,-774.3871 352,-764 347.1546,-773.4219 354.0878,-774.3871"/>
<text text-anchor="middle" x="284" y="-815.3" font-family="Times,serif" font-size="14.00" fill="#000000">1</text>
</g>
<!-- r7&#45;&gt;r3 -->
<g id="edge18" class="edge">
<title>r7:se&#45;&gt;r3:ne</title>
<path fill="none" stroke="#000000" d="M537,-582C562.1526,-556.8474 820.8941,-560.7347 856,-555 909.3098,-546.2915 1008.7749,-562.4912 989.4857,-531.7994"/>
<polygon fill="#000000" stroke="#000000" points="992.085,-529.4511 983,-524 986.7027,-533.9268 992.085,-529.4511"/>
<text text-anchor="middle" x="961.5" y="-527.8" font-family="Times,serif" font-size="14.00" fill="#000000">factor</text>
<text text-anchor="middle" x="504.5" y="-570.8" font-family="Times,serif" font-size="14.00" fill="#000000">/columns</text>
</g>
<!-- r8 -->
<g id="node14" class="node">
<title>r8</title>
<g id="a_node14"><a xlink:href="file:///home/travis/build/andrewdavidmackenzie/flow/flowstdlib/data/duplicate/duplicate.html" xlink:title="duplicate (#8)">
<ellipse fill="#ff7f50" stroke="#000000" cx="543" cy="-506" rx="77.1866" ry="18"/>
<text text-anchor="middle" x="543" y="-502.3" font-family="Times,serif" font-size="14.00" fill="#000000">duplicate (#8)</text>
</a>
</g>
</g>
<!-- r7&#45;&gt;r8 -->
<g id="edge17" class="edge">
<title>r7:se&#45;&gt;r8:ne</title>
<path fill="none" stroke="#000000" d="M537,-582C553.9525,-565.0475 574.061,-548.9662 566.8615,-532.2587"/>
<polygon fill="#000000" stroke="#000000" points="569.642,-530.1291 561,-524 563.9336,-534.1806 569.642,-530.1291"/>
<text text-anchor="middle" x="539.5" y="-527.8" font-family="Times,serif" font-size="14.00" fill="#000000">factor</text>
<text text-anchor="middle" x="569.5" y="-570.8" font-family="Times,serif" font-size="14.00" fill="#000000">/columns</text>
</g>
<!-- r6 -->
<g id="node15" class="node">
<title>r6</title>
<g id="a_node15"><a xlink:href="file:///home/travis/build/andrewdavidmackenzie/flow/flowstdlib/data/accumulate/accumulate.html" xlink:title="compose_rows (#6)">
<ellipse fill="#ff7f50" stroke="#000000" cx="715" cy="-270" rx="102.8821" ry="18"/>
<text text-anchor="middle" x="715" y="-266.3" font-family="Times,serif" font-size="14.00" fill="#000000">compose_rows (#6)</text>
</a>
</g>
</g>
<!-- r7&#45;&gt;r6 -->
<g id="edge19" class="edge">
<title>r7:se&#45;&gt;r6:nw</title>
<path fill="none" stroke="#000000" d="M537,-582C571.6809,-547.3191 474.8002,-574.9618 430,-555 394.3071,-539.0962 357,-545.0757 357,-506 357,-506 357,-506 357,-332.5 357,-259.5743 619.0585,-334.8255 688.8091,-294.1971"/>
<polygon fill="#000000" stroke="#000000" points="691.137,-296.8247 697,-288 686.9135,-291.2424 691.137,-296.8247"/>
<text text-anchor="middle" x="657" y="-291.8" font-family="Times,serif" font-size="14.00" fill="#000000">chunk_size</text>
<text text-anchor="middle" x="569.5" y="-585.8" font-family="Times,serif" font-size="14.00" fill="#000000">/columns</text>
</g>
<!-- r5&#45;&gt;r8 -->
<g id="edge22" class="edge">
<title>r5:e&#45;&gt;r8:n</title>
<path fill="none" stroke="#000000" d="M352,-600C354.4759,-600 496.2924,-544.994 533.9187,-528.5211"/>
<polygon fill="#000000" stroke="#000000" points="535.6079,-531.59 543,-524 532.4882,-525.3236 535.6079,-531.59"/>
<text text-anchor="middle" x="562.5" y="-527.8" font-family="Times,serif" font-size="14.00" fill="#000000">value</text>
</g>
<!-- r8&#45;&gt;r1 -->
<g id="edge23" class="edge">
<title>r8:e&#45;&gt;r1:ne</title>
<path fill="none" stroke="#000000" d="M621,-506C685.7884,-506 689.3842,-462.4989 746,-431 754.837,-426.0834 769.2882,-424.9695 777.5187,-422.5148"/>
<polygon fill="#000000" stroke="#000000" points="780.8508,-423.5938 781,-413 774.277,-421.1885 780.8508,-423.5938"/>
<text text-anchor="middle" x="776" y="-416.8" font-family="Times,serif" font-size="14.00" fill="#000000">b</text>
</g>
<!-- r6&#45;&gt;r6 -->
<g id="edge26" class="edge">
<title>r6:e&#45;&gt;r6:ne</title>
<path fill="none" stroke="#000000" d="M818,-270C841.6909,-261 889.6909,-261 889.6909,-279 889.6909,-295.9805 802.0682,-296.9423 743.2566,-289.441"/>
<polygon fill="#000000" stroke="#000000" points="743.3897,-285.9254 733,-288 742.4157,-292.8574 743.3897,-285.9254"/>
<text text-anchor="middle" x="757" y="-291.8" font-family="Times,serif" font-size="14.00" fill="#000000">partial</text>
<text text-anchor="middle" x="844" y="-273.8" font-family="Times,serif" font-size="14.00" fill="#000000">/partial</text>
</g>
<!-- r6&#45;&gt;r6 -->
<g id="edge27" class="edge">
<title>r6:s&#45;&gt;r6:nw</title>
<path fill="none" stroke="#000000" d="M715,-252C656.7697,-243 540.3091,-243 540.3091,-270 540.3091,-295.4707 627.9318,-296.9134 686.7434,-289.4394"/>
<polygon fill="#000000" stroke="#000000" points="687.5835,-292.8559 697,-288 686.6106,-285.9238 687.5835,-292.8559"/>
<text text-anchor="middle" x="737" y="-291.8" font-family="Times,serif" font-size="14.00" fill="#000000">chunk_size</text>
<text text-anchor="middle" x="672.5" y="-240.8" font-family="Times,serif" font-size="14.00" fill="#000000">/chunk_size</text>
</g>
<!-- r6&#45;&gt;r4 -->
<g id="edge28" class="edge">
<title>r6:s&#45;&gt;r4:n</title>
<path fill="none" stroke="#000000" d="M715,-252C715,-215.8871 709.2013,-204.6531 708.1594,-173.0107"/>
<polygon fill="#000000" stroke="#000000" points="711.6588,-172.943 708,-163 704.6597,-173.0545 711.6588,-172.943"/>
<text text-anchor="middle" x="731" y="-166.8" font-family="Times,serif" font-size="14.00" fill="#000000">values</text>
<text text-anchor="middle" x="739.5" y="-240.8" font-family="Times,serif" font-size="14.00" fill="#000000">/chunk</text>
</g>
<!-- r4&#45;&gt;r4 -->
<g id="edge30" class="edge">
<title>r4:e&#45;&gt;r4:ne</title>
<path fill="none" stroke="#000000" d="M819,-145C842.4902,-136 890.4902,-136 890.4902,-154 890.4902,-171.0508 797.4747,-171.9499 735.9593,-164.3474"/>
<polygon fill="#000000" stroke="#000000" points="736.379,-160.8724 726,-163 735.4404,-167.8092 736.379,-160.8724"/>
<text text-anchor="middle" x="750" y="-166.8" font-family="Times,serif" font-size="14.00" fill="#000000">partial</text>
<text text-anchor="middle" x="845" y="-148.8" font-family="Times,serif" font-size="14.00" fill="#000000">/partial</text>
</g>
<!-- r4&#45;&gt;r4 -->
<g id="edge31" class="edge">
<title>r4:s&#45;&gt;r4:nw</title>
<path fill="none" stroke="#000000" d="M708,-127C647.1699,-118 525.5098,-118 525.5098,-145 525.5098,-170.5762 618.5253,-171.9249 680.0407,-164.3461"/>
<polygon fill="#000000" stroke="#000000" points="680.5589,-167.808 690,-163 679.6213,-160.871 680.5589,-167.808"/>
<text text-anchor="middle" x="650" y="-166.8" font-family="Times,serif" font-size="14.00" fill="#000000">chunk_size</text>
<text text-anchor="middle" x="665.5" y="-115.8" font-family="Times,serif" font-size="14.00" fill="#000000">/chunk_size</text>
</g>
<!-- r11 -->
<g id="node20" class="node">
<title>r11</title>
<g id="a_node20"><a xlink:href="file:///home/travis/build/andrewdavidmackenzie/flow/flowr/src/lib/flowruntime/stdio/stdout.html" xlink:title="print (#11)">
<ellipse fill="#ff7f50" stroke="#000000" cx="708" cy="-34" rx="63.0888" ry="18"/>
<text text-anchor="middle" x="708" y="-30.3" font-family="Times,serif" font-size="14.00" fill="#000000">print (#11)</text>
</a>
</g>
</g>
<!-- r4&#45;&gt;r11 -->
<g id="edge32" class="edge">
<title>r4:s&#45;&gt;r11:n</title>
<path fill="none" stroke="#000000" d="M708,-127C708,-97.3125 708,-87.4553 708,-62.1057"/>
<polygon fill="#000000" stroke="#000000" points="711.5001,-62 708,-52 704.5001,-62 711.5001,-62"/>
<text text-anchor="middle" x="732.5" y="-115.8" font-family="Times,serif" font-size="14.00" fill="#000000">/chunk</text>
</g>
<!-- r1&#45;&gt;r6 -->
<g id="edge24" class="edge">
<title>r1:e&#45;&gt;r6:n</title>
<path fill="none" stroke="#000000" d="M836,-395C844,-395 839.611,-384.1387 836,-377 807.5147,-320.687 724.7569,-350.9654 715.7905,-298.0515"/>
<polygon fill="#000000" stroke="#000000" points="719.2733,-297.6948 715,-288 712.2949,-298.2437 719.2733,-297.6948"/>
<text text-anchor="middle" x="692" y="-276.8" font-family="Times,serif" font-size="14.00" fill="#000000">values</text>
</g>
<!-- initializerr6_1 -->
<!-- initializerr6_1&#45;&gt;r6 -->
<g id="edge25" class="edge">
<title>initializerr6_1&#45;&gt;r6:n</title>
<path fill="none" stroke="#0000ff" stroke-dasharray="1,5" d="M574.54,-378.6432C617.4108,-356.6538 689.7247,-317.9049 709.7324,-296.9379"/>
<polygon fill="#0000ff" stroke="#0000ff" points="712.9379,-298.3922 715,-288 706.9073,-294.8381 712.9379,-298.3922"/>
<text text-anchor="middle" x="675.5" y="-328.8" font-family="Times,serif" font-size="14.00" fill="#000000">[]</text>
</g>
<!-- initializerr4_1 -->
<!-- initializerr4_1&#45;&gt;r4 -->
<g id="edge29" class="edge">
<title>initializerr4_1&#45;&gt;r4:n</title>
<path fill="none" stroke="#0000ff" stroke-dasharray="1,5" d="M504.0184,-254.6278C563.5062,-231.526 671.3949,-188.5848 700.5622,-169.983"/>
<polygon fill="#0000ff" stroke="#0000ff" points="703.1052,-172.3964 708,-163 698.3139,-167.2931 703.1052,-172.3964"/>
<text text-anchor="middle" x="642.5" y="-203.8" font-family="Times,serif" font-size="14.00" fill="#000000">[]</text>
</g>
</g>
</svg>
