<?xml version="1.0" encoding="UTF-8" standalone="no"?>
<!DOCTYPE svg PUBLIC "-//W3C//DTD SVG 1.1//EN"
 "http://www.w3.org/Graphics/SVG/1.1/DTD/svg11.dtd">
<!-- Generated by graphviz version 2.44.1 (20200629.0846)
 -->
<!-- Title: matrix_mult Pages: 1 -->
<svg width="1242pt" height="731pt"
 viewBox="0.00 0.00 1242.00 731.00" xmlns="http://www.w3.org/2000/svg" xmlns:xlink="http://www.w3.org/1999/xlink">
<g id="graph0" class="graph" transform="scale(1 1) rotate(0) translate(4 727)">
<title>matrix_mult</title>
<polygon fill="white" stroke="transparent" points="-4,4 -4,-727 1238,-727 1238,4 -4,4"/>
<text text-anchor="middle" x="617" y="-707.8" font-family="Times,serif" font-size="14.00">/matrix_mult</text>
<g id="clust1" class="cluster">
<title>cluster_select_0</title>
<polygon fill="none" stroke="black" points="8,-328 8,-584 530,-584 530,-328 8,-328"/>
<text text-anchor="middle" x="269" y="-568.8" font-family="Times,serif" font-size="14.00">/matrix_mult/select_0</text>
</g>
<g id="clust2" class="cluster">
<title>cluster_select_1</title>
<polygon fill="none" stroke="black" points="676,-422 676,-692 1226,-692 1226,-422 676,-422"/>
<text text-anchor="middle" x="951" y="-676.8" font-family="Times,serif" font-size="14.00">/matrix_mult/select_1</text>
</g>
<g id="clust3" class="cluster">
<title>cluster_multiply</title>
<polygon fill="none" stroke="black" points="538,-8 538,-403 927,-403 927,-8 538,-8"/>
<text text-anchor="middle" x="732.5" y="-387.8" font-family="Times,serif" font-size="14.00">/matrix_mult/multiply</text>
</g>
<!-- r10 -->
<g id="node1" class="node">
<title>r10</title>
<g id="a_node1"><a xlink:href="file:///Users/andrew/workspace/flow/flowr/src/lib/flowruntime/stdio/readline.html" xlink:title="readline (#10)">
<ellipse fill="coral" stroke="black" cx="552" cy="-643" rx="60.39" ry="18"/>
<text text-anchor="middle" x="552" y="-639.3" font-family="Times,serif" font-size="14.00">readline (#10)</text>
</a>
</g>
</g>
<!-- r0 -->
<g id="node2" class="node">
<title>r0</title>
<g id="a_node2"><a xlink:href="file:///Users/andrew/workspace/flow/flowstdlib/control/index/index.html" xlink:title="index (#0)">
<ellipse fill="coral" stroke="black" cx="340" cy="-448" rx="47.39" ry="18"/>
<text text-anchor="middle" x="340" y="-444.3" font-family="Times,serif" font-size="14.00">index (#0)</text>
</a>
</g>
</g>
<!-- r10&#45;&gt;r0 -->
<g id="edge1" class="edge">
<title>r10:e&#45;&gt;r0:n</title>
<path fill="none" stroke="black" d="M614,-643C633.12,-643 674.53,-609.95 558,-517 511.06,-479.56 485.52,-497.42 427,-484 411.21,-480.38 362.78,-483.87 345.89,-474.35"/>
<polygon fill="black" stroke="black" points="348.63,-472.15 340,-466 342.91,-476.19 348.63,-472.15"/>
<text text-anchor="middle" x="325" y="-469.8" font-family="Times,serif" font-size="14.00">value</text>
<text text-anchor="middle" x="627.5" y="-646.8" font-family="Times,serif" font-size="14.00">/json</text>
</g>
<!-- r11 -->
<g id="node3" class="node">
<title>r11</title>
<g id="a_node3"><a xlink:href="file:///Users/andrew/workspace/flow/flowstdlib/control/index/index.html" xlink:title="index (#11)">
<ellipse fill="coral" stroke="black" cx="865" cy="-535" rx="51.99" ry="18"/>
<text text-anchor="middle" x="865" y="-531.3" font-family="Times,serif" font-size="14.00">index (#11)</text>
</a>
</g>
</g>
<!-- r10&#45;&gt;r11 -->
<g id="edge2" class="edge">
<title>r10:e&#45;&gt;r11:n</title>
<path fill="none" stroke="black" d="M614,-643C635.13,-643 638.22,-632.43 658,-625 678.27,-617.38 826.63,-586.3 858.84,-562.42"/>
<polygon fill="black" stroke="black" points="861.92,-564.14 865,-554 856.27,-560 861.92,-564.14"/>
<text text-anchor="middle" x="850" y="-557.8" font-family="Times,serif" font-size="14.00">value</text>
<text text-anchor="middle" x="627.5" y="-631.8" font-family="Times,serif" font-size="14.00">/json</text>
</g>
<!-- r0&#45;&gt;r0 -->
<g id="edge6" class="edge">
<title>r0:sw&#45;&gt;r0:ne</title>
<path fill="none" stroke="black" d="M323,-431C220.55,-443 220.55,-484 340,-484 455.36,-484 459.31,-472.81 367.14,-465.73"/>
<polygon fill="black" stroke="black" points="367.23,-462.23 357,-465 366.72,-469.21 367.23,-462.23"/>
<text text-anchor="middle" x="398.5" y="-468.8" font-family="Times,serif" font-size="14.00">previous_value</text>
<text text-anchor="middle" x="306" y="-419.8" font-family="Times,serif" font-size="14.00">/value</text>
</g>
<!-- r0&#45;&gt;r0 -->
<g id="edge7" class="edge">
<title>r0:s&#45;&gt;r0:nw</title>
<path fill="none" stroke="black" d="M340,-430C300.18,-421 220.55,-421 220.55,-447.5 220.55,-471.88 273.56,-473.83 313.04,-466.98"/>
<polygon fill="black" stroke="black" points="313.87,-470.38 323,-465 312.51,-463.52 313.87,-470.38"/>
<text text-anchor="middle" x="281" y="-468.8" font-family="Times,serif" font-size="14.00">previous_index</text>
<text text-anchor="middle" x="357" y="-418.8" font-family="Times,serif" font-size="14.00">/index</text>
</g>
<!-- r7 -->
<g id="node7" class="node">
<title>r7</title>
<g id="a_node7"><a xlink:href="file:///Users/andrew/workspace/flow/flowstdlib/data/info/info.html" xlink:title="a_info (#7)">
<ellipse fill="coral" stroke="black" cx="238" cy="-354" rx="50.09" ry="18"/>
<text text-anchor="middle" x="238" y="-350.3" font-family="Times,serif" font-size="14.00">a_info (#7)</text>
</a>
</g>
</g>
<!-- r0&#45;&gt;r7 -->
<g id="edge8" class="edge">
<title>r0:e&#45;&gt;r7:n</title>
<path fill="none" stroke="black" d="M389,-448C397.01,-448 392.73,-436.47 388,-430 348.11,-375.47 249.2,-437.1 238.87,-383.13"/>
<polygon fill="black" stroke="black" points="242.35,-382.66 238,-373 235.37,-383.26 242.35,-382.66"/>
<text text-anchor="middle" x="431" y="-451.8" font-family="Times,serif" font-size="14.00">/selected_value</text>
</g>
<!-- r6 -->
<g id="node8" class="node">
<title>r6</title>
<g id="a_node8"><a xlink:href="file:///Users/andrew/workspace/flow/flowstdlib/data/duplicate_rows/duplicate_rows.html" xlink:title="duplicate_rows (#6)">
<ellipse fill="coral" stroke="black" cx="441" cy="-354" rx="81.49" ry="18"/>
<text text-anchor="middle" x="441" y="-350.3" font-family="Times,serif" font-size="14.00">duplicate_rows (#6)</text>
</a>
</g>
</g>
<!-- r0&#45;&gt;r6 -->
<g id="edge9" class="edge">
<title>r0:e&#45;&gt;r6:n</title>
<path fill="none" stroke="black" d="M389,-448C426.08,-448 438.82,-419.23 440.74,-383.3"/>
<polygon fill="black" stroke="black" points="444.24,-383.09 441,-373 437.24,-382.91 444.24,-383.09"/>
<text text-anchor="middle" x="431" y="-436.8" font-family="Times,serif" font-size="14.00">/selected_value</text>
</g>
<!-- r11&#45;&gt;r11 -->
<g id="edge13" class="edge">
<title>r11:sw&#45;&gt;r11:ne</title>
<path fill="none" stroke="black" d="M848,-518C741,-531 741,-574 865,-574 985,-574 988.87,-560.89 892.01,-552.79"/>
<polygon fill="black" stroke="black" points="892.24,-549.3 882,-552 891.69,-556.28 892.24,-549.3"/>
<text text-anchor="middle" x="923.5" y="-555.8" font-family="Times,serif" font-size="14.00">previous_value</text>
<text text-anchor="middle" x="831" y="-506.8" font-family="Times,serif" font-size="14.00">/value</text>
</g>
<!-- r11&#45;&gt;r11 -->
<g id="edge14" class="edge">
<title>r11:s&#45;&gt;r11:nw</title>
<path fill="none" stroke="black" d="M865,-517C823.67,-506.5 741,-506.5 741,-534.5 741,-560.37 797.05,-562.34 838.17,-554.21"/>
<polygon fill="black" stroke="black" points="839.01,-557.61 848,-552 837.48,-550.78 839.01,-557.61"/>
<text text-anchor="middle" x="806" y="-555.8" font-family="Times,serif" font-size="14.00">previous_index</text>
<text text-anchor="middle" x="882" y="-505.8" font-family="Times,serif" font-size="14.00">/index</text>
</g>
<!-- r5 -->
<g id="node12" class="node">
<title>r5</title>
<g id="a_node12"><a xlink:href="file:///Users/andrew/workspace/flow/flowstdlib/data/info/info.html" xlink:title="b_info (#5)">
<ellipse fill="coral" stroke="black" cx="929" cy="-448" rx="50.89" ry="18"/>
<text text-anchor="middle" x="929" y="-444.3" font-family="Times,serif" font-size="14.00">b_info (#5)</text>
</a>
</g>
</g>
<!-- r11&#45;&gt;r5 -->
<g id="edge15" class="edge">
<title>r11:e&#45;&gt;r5:n</title>
<path fill="none" stroke="black" d="M918,-535C945.78,-535 932.66,-504.64 929.59,-476"/>
<polygon fill="black" stroke="black" points="933.08,-475.78 929,-466 926.09,-476.19 933.08,-475.78"/>
<text text-anchor="middle" x="960" y="-538.8" font-family="Times,serif" font-size="14.00">/selected_value</text>
</g>
<!-- r1 -->
<g id="node13" class="node">
<title>r1</title>
<g id="a_node13"><a xlink:href="file:///Users/andrew/workspace/flow/flowstdlib/data/transpose/transpose.html" xlink:title="transpose (#1)">
<ellipse fill="coral" stroke="black" cx="745" cy="-448" rx="61.19" ry="18"/>
<text text-anchor="middle" x="745" y="-444.3" font-family="Times,serif" font-size="14.00">transpose (#1)</text>
</a>
</g>
</g>
<!-- r11&#45;&gt;r1 -->
<g id="edge16" class="edge">
<title>r11:e&#45;&gt;r1:n</title>
<path fill="none" stroke="black" d="M918,-535C926.01,-535 921.97,-523.29 917,-517 869.87,-457.39 756.33,-537.51 745.79,-476.12"/>
<polygon fill="black" stroke="black" points="749.27,-475.7 745,-466 742.29,-476.24 749.27,-475.7"/>
<text text-anchor="middle" x="960" y="-523.8" font-family="Times,serif" font-size="14.00">/selected_value</text>
</g>
<!-- initializerr0_1 -->
<!-- initializerr0_1&#45;&gt;r0 -->
<g id="edge3" class="edge">
<title>initializerr0_1&#45;&gt;r0:nw</title>
<path fill="none" stroke="blue" stroke-dasharray="1,5" d="M280.68,-517.19C289.48,-504.99 302.31,-488.12 315.86,-473.44"/>
<polygon fill="blue" stroke="blue" points="318.6,-475.64 323,-466 313.55,-470.79 318.6,-475.64"/>
<text text-anchor="middle" x="312" y="-487.8" font-family="Times,serif" font-size="14.00">42</text>
</g>
<!-- initializerr0_2 -->
<!-- initializerr0_2&#45;&gt;r0 -->
<g id="edge4" class="edge">
<title>initializerr0_2&#45;&gt;r0:ne</title>
<path fill="none" stroke="blue" stroke-dasharray="1,5" d="M432.46,-519.29C412.36,-508.41 385.66,-492.17 364.31,-472.93"/>
<polygon fill="blue" stroke="blue" points="366.67,-470.34 357,-466 361.85,-475.42 366.67,-470.34"/>
<text text-anchor="middle" x="403" y="-487.8" font-family="Times,serif" font-size="14.00">&#45;1</text>
</g>
<!-- initializerr0_3 -->
<!-- initializerr0_3&#45;&gt;r0 -->
<g id="edge5" class="edge">
<title>initializerr0_3&#45;&gt;r0:n</title>
<path fill="none" stroke="blue" d="M120.06,-522.52C159.17,-512.34 217.87,-497.1 269,-484 281.44,-480.81 318.45,-481.58 333.52,-474.05"/>
<polygon fill="blue" stroke="blue" points="336.45,-475.98 340,-466 331,-471.59 336.45,-475.98"/>
<text text-anchor="middle" x="272.5" y="-487.8" font-family="Times,serif" font-size="14.00">0</text>
</g>
<!-- r8 -->
<g id="node16" class="node">
<title>r8</title>
<g id="a_node16"><a xlink:href="file:///Users/andrew/workspace/flow/flowstdlib/data/accumulate/accumulate.html" xlink:title="compose_matrix (#8)">
<ellipse fill="coral" stroke="black" cx="633" cy="-107" rx="87.18" ry="18"/>
<text text-anchor="middle" x="633" y="-103.3" font-family="Times,serif" font-size="14.00">compose_matrix (#8)</text>
</a>
</g>
</g>
<!-- r7&#45;&gt;r8 -->
<g id="edge20" class="edge">
<title>r7:e&#45;&gt;r8:nw</title>
<path fill="none" stroke="black" d="M289,-354C292.94,-354 506.67,-178.11 510,-176 550.73,-150.17 574.77,-160 607.43,-132.03"/>
<polygon fill="black" stroke="black" points="610.05,-134.37 615,-125 605.29,-129.24 610.05,-134.37"/>
<text text-anchor="middle" x="584.5" y="-128.8" font-family="Times,serif" font-size="14.00">chunk_size</text>
<text text-anchor="middle" x="304.5" y="-357.8" font-family="Times,serif" font-size="14.00">/rows</text>
</g>
<!-- r3 -->
<g id="node17" class="node">
<title>r3</title>
<g id="a_node17"><a xlink:href="file:///Users/andrew/workspace/flow/flowstdlib/data/multiply_row/multiply_row.html" xlink:title="multiply (#3)">
<ellipse fill="coral" stroke="black" cx="796" cy="-281" rx="57.69" ry="18"/>
<text text-anchor="middle" x="796" y="-277.3" font-family="Times,serif" font-size="14.00">multiply (#3)</text>
</a>
</g>
</g>
<!-- r6&#45;&gt;r3 -->
<g id="edge21" class="edge">
<title>r6:e&#45;&gt;r3:n</title>
<path fill="none" stroke="black" d="M524,-354C526.9,-354 523.98,-330.08 526,-328 565.39,-287.4 768.23,-350.47 793.43,-308.79"/>
<polygon fill="black" stroke="black" points="796.85,-309.56 796,-299 790.08,-307.78 796.85,-309.56"/>
<text text-anchor="middle" x="792.5" y="-302.8" font-family="Times,serif" font-size="14.00">a</text>
</g>
<!-- initializerr11_1 -->
<!-- initializerr11_1&#45;&gt;r11 -->
<g id="edge10" class="edge">
<title>initializerr11_1&#45;&gt;r11:nw</title>
<path fill="none" stroke="blue" stroke-dasharray="1,5" d="M924.3,-626.57C895.38,-609.12 852.53,-580.83 846.29,-562.99"/>
<polygon fill="blue" stroke="blue" points="849.77,-563.45 848,-553 842.87,-562.27 849.77,-563.45"/>
<text text-anchor="middle" x="898" y="-595.8" font-family="Times,serif" font-size="14.00">42</text>
</g>
<!-- initializerr11_2 -->
<!-- initializerr11_2&#45;&gt;r11 -->
<g id="edge11" class="edge">
<title>initializerr11_2&#45;&gt;r11:ne</title>
<path fill="none" stroke="blue" stroke-dasharray="1,5" d="M1103.28,-631.33C1038.89,-616.65 930.13,-588.73 889.9,-559.62"/>
<polygon fill="blue" stroke="blue" points="891.91,-556.74 882,-553 887.42,-562.1 891.91,-556.74"/>
<text text-anchor="middle" x="1010" y="-595.8" font-family="Times,serif" font-size="14.00">&#45;1</text>
</g>
<!-- initializerr11_3 -->
<!-- initializerr11_3&#45;&gt;r11 -->
<g id="edge12" class="edge">
<title>initializerr11_3&#45;&gt;r11:n</title>
<path fill="none" stroke="blue" d="M791.21,-629.13C821.39,-617.26 857.76,-596.48 864.05,-563.97"/>
<polygon fill="blue" stroke="blue" points="867.54,-564.29 865,-554 860.57,-563.62 867.54,-564.29"/>
<text text-anchor="middle" x="851.5" y="-595.8" font-family="Times,serif" font-size="14.00">1</text>
</g>
<!-- r5&#45;&gt;r6 -->
<g id="edge18" class="edge">
<title>r5:se&#45;&gt;r6:ne</title>
<path fill="none" stroke="black" d="M946,-430C978.78,-397.22 888.25,-425.17 842,-422 759.74,-416.36 537.94,-432.34 466.9,-379.76"/>
<polygon fill="black" stroke="black" points="468.87,-376.84 459,-373 464.32,-382.16 468.87,-376.84"/>
<text text-anchor="middle" x="443" y="-376.8" font-family="Times,serif" font-size="14.00">factor</text>
<text text-anchor="middle" x="920.5" y="-418.8" font-family="Times,serif" font-size="14.00">/columns</text>
</g>
<!-- r2 -->
<g id="node14" class="node">
<title>r2</title>
<g id="a_node14"><a xlink:href="file:///Users/andrew/workspace/flow/flowstdlib/data/duplicate/duplicate.html" xlink:title="duplicate (#2)">
<ellipse fill="coral" stroke="black" cx="794" cy="-354" rx="59.59" ry="18"/>
<text text-anchor="middle" x="794" y="-350.3" font-family="Times,serif" font-size="14.00">duplicate (#2)</text>
</a>
</g>
</g>
<!-- r5&#45;&gt;r2 -->
<g id="edge17" class="edge">
<title>r5:se&#45;&gt;r2:ne</title>
<path fill="none" stroke="black" d="M946,-430C956.06,-419.94 853.76,-392.37 821.07,-378.07"/>
<polygon fill="black" stroke="black" points="822.44,-374.83 812,-373 819.02,-380.94 822.44,-374.83"/>
<text text-anchor="middle" x="828" y="-376.8" font-family="Times,serif" font-size="14.00">factor</text>
<text text-anchor="middle" x="971.5" y="-418.8" font-family="Times,serif" font-size="14.00">/columns</text>
</g>
<!-- r4 -->
<g id="node15" class="node">
<title>r4</title>
<g id="a_node15"><a xlink:href="file:///Users/andrew/workspace/flow/flowstdlib/data/accumulate/accumulate.html" xlink:title="compose_rows (#4)">
<ellipse fill="coral" stroke="black" cx="627" cy="-194" rx="81.49" ry="18"/>
<text text-anchor="middle" x="627" y="-190.3" font-family="Times,serif" font-size="14.00">compose_rows (#4)</text>
</a>
</g>
</g>
<!-- r5&#45;&gt;r4 -->
<g id="edge19" class="edge">
<title>r5:se&#45;&gt;r4:nw</title>
<path fill="none" stroke="black" d="M946,-430C1001.36,-374.64 948.16,-315.4 890,-263 839.93,-217.89 808.34,-241.86 742,-230 718.6,-225.82 634.65,-230.26 612.18,-221.57"/>
<polygon fill="black" stroke="black" points="615.47,-220.39 609,-212 608.83,-222.59 615.47,-220.39"/>
<text text-anchor="middle" x="578.5" y="-215.8" font-family="Times,serif" font-size="14.00">chunk_size</text>
<text text-anchor="middle" x="971.5" y="-433.8" font-family="Times,serif" font-size="14.00">/columns</text>
</g>
<!-- r1&#45;&gt;r2 -->
<g id="edge22" class="edge">
<title>r1:e&#45;&gt;r2:n</title>
<path fill="none" stroke="black" d="M807,-448C815.01,-448 807.05,-437.94 806,-430 803.11,-408.14 796.44,-400.95 794.52,-383.31"/>
<polygon fill="black" stroke="black" points="798,-382.81 794,-373 791.01,-383.16 798,-382.81"/>
<text text-anchor="middle" x="779" y="-376.8" font-family="Times,serif" font-size="14.00">value</text>
</g>
<!-- r2&#45;&gt;r3 -->
<g id="edge23" class="edge">
<title>r2:e&#45;&gt;r3:ne</title>
<path fill="none" stroke="black" d="M855,-354C863.01,-354 857.46,-343.23 854,-336 845.07,-317.32 834.38,-316.18 820.83,-305.85"/>
<polygon fill="black" stroke="black" points="822.83,-302.95 813,-299 818.22,-308.22 822.83,-302.95"/>
<text text-anchor="middle" x="809.5" y="-302.8" font-family="Times,serif" font-size="14.00">b</text>
</g>
<!-- r4&#45;&gt;r4 -->
<g id="edge26" class="edge">
<title>r4:e&#45;&gt;r4:ne</title>
<path fill="none" stroke="black" d="M709,-194C732.24,-183.5 780.24,-183.5 780.24,-203 780.24,-221.28 706.27,-222.42 654.94,-213.84"/>
<polygon fill="black" stroke="black" points="655.47,-210.38 645,-212 654.19,-217.27 655.47,-210.38"/>
<text text-anchor="middle" x="627.5" y="-215.8" font-family="Times,serif" font-size="14.00">partial</text>
<text text-anchor="middle" x="728.5" y="-197.8" font-family="Times,serif" font-size="14.00">/partial</text>
</g>
<!-- r4&#45;&gt;r4 -->
<g id="edge27" class="edge">
<title>r4:s&#45;&gt;r4:nw</title>
<path fill="none" stroke="black" d="M627,-176C575.92,-165.5 473.76,-165.5 473.76,-194 473.76,-220.72 547.73,-222.39 599.06,-213.84"/>
<polygon fill="black" stroke="black" points="599.81,-217.26 609,-212 598.53,-210.38 599.81,-217.26"/>
<text text-anchor="middle" x="639.5" y="-215.8" font-family="Times,serif" font-size="14.00">chunk_size</text>
<text text-anchor="middle" x="594.5" y="-164.8" font-family="Times,serif" font-size="14.00">/chunk_size</text>
</g>
<!-- r4&#45;&gt;r8 -->
<g id="edge28" class="edge">
<title>r4:s&#45;&gt;r8:n</title>
<path fill="none" stroke="black" d="M627,-176C627,-157.1 631.11,-150.18 632.53,-135.4"/>
<polygon fill="black" stroke="black" points="636.04,-135.15 633,-125 629.05,-134.83 636.04,-135.15"/>
<text text-anchor="middle" x="650.5" y="-128.8" font-family="Times,serif" font-size="14.00">values</text>
<text text-anchor="middle" x="645.5" y="-164.8" font-family="Times,serif" font-size="14.00">/chunk</text>
</g>
<!-- r8&#45;&gt;r8 -->
<g id="edge30" class="edge">
<title>r8:e&#45;&gt;r8:ne</title>
<path fill="none" stroke="black" d="M720,-107C744.09,-98 792.09,-98 792.09,-116 792.09,-132.91 714.37,-133.93 660.99,-126.53"/>
<polygon fill="black" stroke="black" points="661.42,-123.06 651,-125 660.35,-129.98 661.42,-123.06"/>
<text text-anchor="middle" x="668.5" y="-128.8" font-family="Times,serif" font-size="14.00">partial</text>
<text text-anchor="middle" x="739.5" y="-110.8" font-family="Times,serif" font-size="14.00">/partial</text>
</g>
<!-- r8&#45;&gt;r8 -->
<g id="edge31" class="edge">
<title>r8:s&#45;&gt;r8:nw</title>
<path fill="none" stroke="black" d="M633,-89C579.97,-80 473.91,-80 473.91,-107 473.91,-132.37 551.63,-133.9 605.01,-126.53"/>
<polygon fill="black" stroke="black" points="605.65,-129.98 615,-125 604.59,-123.06 605.65,-129.98"/>
<text text-anchor="middle" x="584.5" y="-128.8" font-family="Times,serif" font-size="14.00">chunk_size</text>
<text text-anchor="middle" x="600.5" y="-77.8" font-family="Times,serif" font-size="14.00">/chunk_size</text>
</g>
<!-- r9 -->
<g id="node20" class="node">
<title>r9</title>
<g id="a_node20"><a xlink:href="file:///Users/andrew/workspace/flow/flowr/src/lib/flowruntime/stdio/stdout.html" xlink:title="print (#9)">
<ellipse fill="coral" stroke="black" cx="633" cy="-34" rx="44.39" ry="18"/>
<text text-anchor="middle" x="633" y="-30.3" font-family="Times,serif" font-size="14.00">print (#9)</text>
</a>
</g>
</g>
<!-- r8&#45;&gt;r9 -->
<g id="edge32" class="edge">
<title>r8:s&#45;&gt;r9:n</title>
<path fill="none" stroke="black" d="M633,-89C633,-76.54 633,-71.16 633,-62.13"/>
<polygon fill="black" stroke="black" points="636.5,-62 633,-52 629.5,-62 636.5,-62"/>
<text text-anchor="middle" x="651.5" y="-77.8" font-family="Times,serif" font-size="14.00">/chunk</text>
</g>
<!-- r3&#45;&gt;r4 -->
<g id="edge24" class="edge">
<title>r3:e&#45;&gt;r4:n</title>
<path fill="none" stroke="black" d="M855,-281C863.01,-281 859.18,-269.11 854,-263 839.12,-245.43 670.69,-239.21 634.02,-219.79"/>
<polygon fill="black" stroke="black" points="636.29,-217.09 627,-212 631.09,-221.77 636.29,-217.09"/>
<text text-anchor="middle" x="609.5" y="-200.8" font-family="Times,serif" font-size="14.00">values</text>
</g>
<!-- initializerr4_1 -->
<!-- initializerr4_1&#45;&gt;r4 -->
<g id="edge25" class="edge">
<title>initializerr4_1&#45;&gt;r4:n</title>
<path fill="none" stroke="blue" stroke-dasharray="1,5" d="M614.3,-263.12C619.07,-252.15 624.47,-237.17 626.33,-222.26"/>
<polygon fill="blue" stroke="blue" points="629.84,-222.21 627,-212 622.86,-221.75 629.84,-222.21"/>
<text text-anchor="middle" x="629" y="-233.8" font-family="Times,serif" font-size="14.00">[]</text>
</g>
<!-- initializerr8_1 -->
<!-- initializerr8_1&#45;&gt;r8 -->
<g id="edge29" class="edge">
<title>initializerr8_1&#45;&gt;r8:n</title>
<path fill="none" stroke="blue" stroke-dasharray="1,5" d="M810.24,-183.28C753.14,-171.31 663.29,-150.43 639.14,-133.14"/>
<polygon fill="blue" stroke="blue" points="641.82,-130.88 633,-125 636.23,-135.09 641.82,-130.88"/>
<text text-anchor="middle" x="704" y="-146.8" font-family="Times,serif" font-size="14.00">[]</text>
</g>
</g>
</svg>
