<?xml version="1.0" encoding="UTF-8" standalone="no"?>
<!DOCTYPE svg PUBLIC "-//W3C//DTD SVG 1.1//EN"
 "http://www.w3.org/Graphics/SVG/1.1/DTD/svg11.dtd">
<!-- Generated by graphviz version 2.40.1 (20161225.0304)
 -->
<!-- Title: matrix_mult Pages: 1 -->
<svg width="1544pt" height="1001pt"
 viewBox="0.00 0.00 1544.00 1001.00" xmlns="http://www.w3.org/2000/svg" xmlns:xlink="http://www.w3.org/1999/xlink">
<g id="graph0" class="graph" transform="scale(1 1) rotate(0) translate(4 997)">
<title>matrix_mult</title>
<polygon fill="#ffffff" stroke="transparent" points="-4,4 -4,-997 1540,-997 1540,4 -4,4"/>
<text text-anchor="middle" x="768" y="-977.8" font-family="Times,serif" font-size="14.00" fill="#000000">/matrix_mult</text>
<g id="clust1" class="cluster">
<title>cluster_select_0</title>
<polygon fill="none" stroke="#000000" points="876,-480 876,-868 1528,-868 1528,-480 876,-480"/>
<text text-anchor="middle" x="1202" y="-852.8" font-family="Times,serif" font-size="14.00" fill="#000000">/matrix_mult/select_0</text>
</g>
<g id="clust2" class="cluster">
<title>cluster_select_1</title>
<polygon fill="none" stroke="#000000" points="8,-574 8,-962 660,-962 660,-574 8,-574"/>
<text text-anchor="middle" x="334" y="-946.8" font-family="Times,serif" font-size="14.00" fill="#000000">/matrix_mult/select_1</text>
</g>
<g id="clust3" class="cluster">
<title>cluster_multiply</title>
<polygon fill="none" stroke="#000000" points="404,-8 404,-555 868,-555 868,-8 404,-8"/>
<text text-anchor="middle" x="636" y="-539.8" font-family="Times,serif" font-size="14.00" fill="#000000">/matrix_mult/multiply</text>
</g>
<!-- r0 -->
<g id="node1" class="node">
<title>r0</title>
<g id="a_node1"><a xlink:href="file:///home/travis/build/andrewdavidmackenzie/flow/flowr/src/lib/flowruntime/stdio/readline.html" xlink:title="readline (#0)">
<ellipse fill="#ff7f50" stroke="#000000" cx="740" cy="-819" rx="72.2875" ry="18"/>
<text text-anchor="middle" x="740" y="-815.3" font-family="Times,serif" font-size="14.00" fill="#000000">readline (#0)</text>
</a>
</g>
</g>
<!-- r11 -->
<g id="node2" class="node">
<title>r11</title>
<g id="a_node2"><a xlink:href="file:///home/travis/build/andrewdavidmackenzie/flow/flowstdlib/control/index/index.html" xlink:title="index (#11)">
<ellipse fill="#ff7f50" stroke="#000000" cx="1061" cy="-673" rx="65.7887" ry="18"/>
<text text-anchor="middle" x="1061" y="-669.3" font-family="Times,serif" font-size="14.00" fill="#000000">index (#11)</text>
</a>
</g>
</g>
<!-- r0&#45;&gt;r11 -->
<g id="edge1" class="edge">
<title>r0:e&#45;&gt;r11:n</title>
<path fill="none" stroke="#000000" d="M812,-819C825.9744,-819 1015.8288,-728.2348 1054.2489,-698.5181"/>
<polygon fill="#000000" stroke="#000000" points="1056.9228,-700.7789 1061,-691 1051.7145,-696.102 1056.9228,-700.7789"/>
<text text-anchor="middle" x="1041.5" y="-694.8" font-family="Times,serif" font-size="14.00" fill="#000000">value</text>
<text text-anchor="middle" x="829" y="-822.8" font-family="Times,serif" font-size="14.00" fill="#000000">/json</text>
</g>
<!-- r10 -->
<g id="node3" class="node">
<title>r10</title>
<g id="a_node3"><a xlink:href="file:///home/travis/build/andrewdavidmackenzie/flow/flowstdlib/control/index/index.html" xlink:title="index (#10)">
<ellipse fill="#ff7f50" stroke="#000000" cx="370" cy="-746" rx="65.7887" ry="18"/>
<text text-anchor="middle" x="370" y="-742.3" font-family="Times,serif" font-size="14.00" fill="#000000">index (#10)</text>
</a>
</g>
</g>
<!-- r0&#45;&gt;r10 -->
<g id="edge2" class="edge">
<title>r0:e&#45;&gt;r10:n</title>
<path fill="none" stroke="#000000" d="M812,-819C820,-819 817.4158,-806.8881 812,-801 808.2043,-796.8733 445.1721,-774.7114 379.9703,-766.1178"/>
<polygon fill="#000000" stroke="#000000" points="380.509,-762.6542 370,-764 379.0545,-769.5015 380.509,-762.6542"/>
<text text-anchor="middle" x="350.5" y="-767.8" font-family="Times,serif" font-size="14.00" fill="#000000">value</text>
<text text-anchor="middle" x="829" y="-807.8" font-family="Times,serif" font-size="14.00" fill="#000000">/json</text>
</g>
<!-- r11&#45;&gt;r11 -->
<g id="edge6" class="edge">
<title>r11:sw&#45;&gt;r11:ne</title>
<path fill="none" stroke="#000000" d="M1043,-655C923.3558,-667 923.3558,-709 1061,-709 1194.6116,-709 1198.526,-697.6928 1089.2071,-691.5423"/>
<polygon fill="#000000" stroke="#000000" points="1089.1717,-688.0356 1079,-691 1088.8002,-695.0258 1089.1717,-688.0356"/>
<text text-anchor="middle" x="1133" y="-694.8" font-family="Times,serif" font-size="14.00" fill="#000000">previous_value</text>
<text text-anchor="middle" x="1021.5" y="-643.8" font-family="Times,serif" font-size="14.00" fill="#000000">/value</text>
</g>
<!-- r11&#45;&gt;r11 -->
<g id="edge7" class="edge">
<title>r11:s&#45;&gt;r11:nw</title>
<path fill="none" stroke="#000000" d="M1061,-655C1015.1186,-646 923.3558,-646 923.3558,-673 923.3558,-698.1016 987.1104,-699.8665 1032.9437,-692.7587"/>
<polygon fill="#000000" stroke="#000000" points="1033.7525,-696.1705 1043,-691 1032.5465,-689.2751 1033.7525,-696.1705"/>
<text text-anchor="middle" x="988.5" y="-694.8" font-family="Times,serif" font-size="14.00" fill="#000000">previous_index</text>
<text text-anchor="middle" x="1083" y="-643.8" font-family="Times,serif" font-size="14.00" fill="#000000">/index</text>
</g>
<!-- r5 -->
<g id="node7" class="node">
<title>r5</title>
<g id="a_node7"><a xlink:href="file:///home/travis/build/andrewdavidmackenzie/flow/flowstdlib/data/info/info.html" xlink:title="a_info (#5)">
<ellipse fill="#ff7f50" stroke="#000000" cx="1227" cy="-506" rx="61.99" ry="18"/>
<text text-anchor="middle" x="1227" y="-502.3" font-family="Times,serif" font-size="14.00" fill="#000000">a_info (#5)</text>
</a>
</g>
</g>
<!-- r11&#45;&gt;r5 -->
<g id="edge8" class="edge">
<title>r11:e&#45;&gt;r5:n</title>
<path fill="none" stroke="#000000" d="M1127,-673C1203.327,-673 1225.1502,-609.5769 1226.8847,-534.2179"/>
<polygon fill="#000000" stroke="#000000" points="1230.3869,-534.0389 1227,-524 1223.3873,-533.9599 1230.3869,-534.0389"/>
<text text-anchor="middle" x="1182.5" y="-676.8" font-family="Times,serif" font-size="14.00" fill="#000000">/selected_value</text>
</g>
<!-- r3 -->
<g id="node8" class="node">
<title>r3</title>
<g id="a_node8"><a xlink:href="file:///home/travis/build/andrewdavidmackenzie/flow/flowstdlib/data/duplicate_rows/duplicate_rows.html" xlink:title="duplicate_rows (#3)">
<ellipse fill="#ff7f50" stroke="#000000" cx="989" cy="-506" rx="104.7816" ry="18"/>
<text text-anchor="middle" x="989" y="-502.3" font-family="Times,serif" font-size="14.00" fill="#000000">duplicate_rows (#3)</text>
</a>
</g>
</g>
<!-- r11&#45;&gt;r3 -->
<g id="edge9" class="edge">
<title>r11:e&#45;&gt;r3:n</title>
<path fill="none" stroke="#000000" d="M1127,-673C1135,-673 1130.1573,-662.3506 1127,-655 1095.0581,-580.6365 997.8596,-606.0811 989.5656,-534.2775"/>
<polygon fill="#000000" stroke="#000000" points="993.0443,-533.7926 989,-524 986.0548,-534.1772 993.0443,-533.7926"/>
<text text-anchor="middle" x="1182.5" y="-661.8" font-family="Times,serif" font-size="14.00" fill="#000000">/selected_value</text>
</g>
<!-- r10&#45;&gt;r10 -->
<g id="edge13" class="edge">
<title>r10:sw&#45;&gt;r10:ne</title>
<path fill="none" stroke="#000000" d="M352,-728C232.3558,-740 232.3558,-782 370,-782 503.6116,-782 507.526,-770.6928 398.2071,-764.5423"/>
<polygon fill="#000000" stroke="#000000" points="398.1717,-761.0356 388,-764 397.8002,-768.0258 398.1717,-761.0356"/>
<text text-anchor="middle" x="442" y="-767.8" font-family="Times,serif" font-size="14.00" fill="#000000">previous_value</text>
<text text-anchor="middle" x="330.5" y="-716.8" font-family="Times,serif" font-size="14.00" fill="#000000">/value</text>
</g>
<!-- r10&#45;&gt;r10 -->
<g id="edge14" class="edge">
<title>r10:s&#45;&gt;r10:nw</title>
<path fill="none" stroke="#000000" d="M370,-728C324.1186,-719 232.3558,-719 232.3558,-746 232.3558,-771.1016 296.1104,-772.8665 341.9437,-765.7587"/>
<polygon fill="#000000" stroke="#000000" points="342.7525,-769.1705 352,-764 341.5465,-762.2751 342.7525,-769.1705"/>
<text text-anchor="middle" x="297.5" y="-767.8" font-family="Times,serif" font-size="14.00" fill="#000000">previous_index</text>
<text text-anchor="middle" x="392" y="-716.8" font-family="Times,serif" font-size="14.00" fill="#000000">/index</text>
</g>
<!-- r2 -->
<g id="node12" class="node">
<title>r2</title>
<g id="a_node12"><a xlink:href="file:///home/travis/build/andrewdavidmackenzie/flow/flowstdlib/data/info/info.html" xlink:title="b_info (#2)">
<ellipse fill="#ff7f50" stroke="#000000" cx="543" cy="-600" rx="62.2891" ry="18"/>
<text text-anchor="middle" x="543" y="-596.3" font-family="Times,serif" font-size="14.00" fill="#000000">b_info (#2)</text>
</a>
</g>
</g>
<!-- r10&#45;&gt;r2 -->
<g id="edge15" class="edge">
<title>r10:e&#45;&gt;r2:n</title>
<path fill="none" stroke="#000000" d="M436,-746C506.672,-746 539.8294,-697.078 542.7826,-628.2898"/>
<polygon fill="#000000" stroke="#000000" points="546.2879,-628.0717 543,-618 539.2894,-627.9238 546.2879,-628.0717"/>
<text text-anchor="middle" x="491.5" y="-749.8" font-family="Times,serif" font-size="14.00" fill="#000000">/selected_value</text>
</g>
<!-- r4 -->
<g id="node13" class="node">
<title>r4</title>
<g id="a_node13"><a xlink:href="file:///home/travis/build/andrewdavidmackenzie/flow/flowstdlib/data/transpose/transpose.html" xlink:title="transpose (#4)">
<ellipse fill="#ff7f50" stroke="#000000" cx="296" cy="-600" rx="79.8859" ry="18"/>
<text text-anchor="middle" x="296" y="-596.3" font-family="Times,serif" font-size="14.00" fill="#000000">transpose (#4)</text>
</a>
</g>
</g>
<!-- r10&#45;&gt;r4 -->
<g id="edge16" class="edge">
<title>r10:e&#45;&gt;r4:n</title>
<path fill="none" stroke="#000000" d="M436,-746C444,-746 439.4971,-735.1952 436,-728 403.0303,-660.166 305.7265,-693.5978 296.6767,-628.3643"/>
<polygon fill="#000000" stroke="#000000" points="300.1442,-627.7507 296,-618 293.159,-628.2068 300.1442,-627.7507"/>
<text text-anchor="middle" x="491.5" y="-734.8" font-family="Times,serif" font-size="14.00" fill="#000000">/selected_value</text>
</g>
<!-- initializerr11_1 -->
<!-- initializerr11_1&#45;&gt;r11 -->
<g id="edge3" class="edge">
<title>initializerr11_1&#45;&gt;r11:nw</title>
<path fill="none" stroke="#0000ff" stroke-dasharray="1,5" d="M1178.1788,-801.7011C1140.4004,-774.071 1068.9161,-720.9334 1048.3722,-699.686"/>
<polygon fill="#0000ff" stroke="#0000ff" points="1051.2368,-697.6638 1043,-691 1045.2835,-701.3459 1051.2368,-697.6638"/>
<text text-anchor="middle" x="1135.5" y="-742.3" font-family="Times,serif" font-size="14.00" fill="#000000">42</text>
</g>
<!-- initializerr11_2 -->
<!-- initializerr11_2&#45;&gt;r11 -->
<g id="edge4" class="edge">
<title>initializerr11_2&#45;&gt;r11:ne</title>
<path fill="none" stroke="#0000ff" stroke-dasharray="1,5" d="M1392.4943,-803.931C1307.6585,-775.6961 1130.0872,-715.8822 1087.7169,-695.9717"/>
<polygon fill="#0000ff" stroke="#0000ff" points="1089.4205,-692.9141 1079,-691 1085.9524,-698.9946 1089.4205,-692.9141"/>
<text text-anchor="middle" x="1279" y="-742.3" font-family="Times,serif" font-size="14.00" fill="#000000">&#45;1</text>
</g>
<!-- initializerr11_3 -->
<!-- initializerr11_3&#45;&gt;r11 -->
<g id="edge5" class="edge">
<title>initializerr11_3&#45;&gt;r11:n</title>
<path fill="none" stroke="#0000ff" d="M990.4649,-801.688C1016.5786,-781.1372 1054.9481,-744.1796 1060.3573,-701.1588"/>
<polygon fill="#0000ff" stroke="#0000ff" points="1063.8615,-701.2011 1061,-691 1056.8755,-700.759 1063.8615,-701.2011"/>
<text text-anchor="middle" x="1057" y="-742.3" font-family="Times,serif" font-size="14.00" fill="#000000">0</text>
</g>
<!-- r6 -->
<g id="node16" class="node">
<title>r6</title>
<g id="a_node16"><a xlink:href="file:///home/travis/build/andrewdavidmackenzie/flow/flowstdlib/data/accumulate/accumulate.html" xlink:title="compose_matrix (#6)">
<ellipse fill="#ff7f50" stroke="#000000" cx="732" cy="-145" rx="110.4804" ry="18"/>
<text text-anchor="middle" x="732" y="-141.3" font-family="Times,serif" font-size="14.00" fill="#000000">compose_matrix (#6)</text>
</a>
</g>
</g>
<!-- r5&#45;&gt;r6 -->
<g id="edge20" class="edge">
<title>r5:e&#45;&gt;r6:nw</title>
<path fill="none" stroke="#000000" d="M1289,-506C1297,-506 1294.0639,-494.1933 1289,-488 1262.4481,-455.5259 1104,-492.4472 1104,-450.5 1104,-450.5 1104,-450.5 1104,-207.5 1104,-168.8262 773.106,-187.9976 719.6396,-171.3357"/>
<polygon fill="#000000" stroke="#000000" points="722.5025,-169.3213 714,-163 716.7047,-173.2438 722.5025,-169.3213"/>
<text text-anchor="middle" x="674" y="-166.8" font-family="Times,serif" font-size="14.00" fill="#000000">chunk_size</text>
<text text-anchor="middle" x="1309" y="-509.8" font-family="Times,serif" font-size="14.00" fill="#000000">/rows</text>
</g>
<!-- r7 -->
<g id="node17" class="node">
<title>r7</title>
<g id="a_node17"><a xlink:href="file:///home/travis/build/andrewdavidmackenzie/flow/flowstdlib/data/multiply_row/multiply_row.html" xlink:title="multiply (#7)">
<ellipse fill="#ff7f50" stroke="#000000" cx="787" cy="-395" rx="72.5877" ry="18"/>
<text text-anchor="middle" x="787" y="-391.3" font-family="Times,serif" font-size="14.00" fill="#000000">multiply (#7)</text>
</a>
</g>
</g>
<!-- r3&#45;&gt;r7 -->
<g id="edge21" class="edge">
<title>r3:e&#45;&gt;r7:n</title>
<path fill="none" stroke="#000000" d="M1094,-506C1102,-506 1098.9402,-494.2924 1094,-488 1074.1371,-462.7005 833.0647,-450.283 792.7121,-421.3863"/>
<polygon fill="#000000" stroke="#000000" points="795.5222,-419.2946 787,-413 789.7368,-423.2353 795.5222,-419.2946"/>
<text text-anchor="middle" x="782.5" y="-416.8" font-family="Times,serif" font-size="14.00" fill="#000000">a</text>
</g>
<!-- initializerr10_1 -->
<!-- initializerr10_1&#45;&gt;r10 -->
<g id="edge10" class="edge">
<title>initializerr10_1&#45;&gt;r10:nw</title>
<path fill="none" stroke="#0000ff" stroke-dasharray="1,5" d="M329.8978,-894.8798C324.3791,-865.6516 318.1276,-807.7452 345.257,-771.7654"/>
<polygon fill="#0000ff" stroke="#0000ff" points="348.0862,-773.8454 352,-764 342.8007,-769.2558 348.0862,-773.8454"/>
<text text-anchor="middle" x="339.5" y="-815.3" font-family="Times,serif" font-size="14.00" fill="#000000">42</text>
</g>
<!-- initializerr10_2 -->
<!-- initializerr10_2&#45;&gt;r10 -->
<g id="edge11" class="edge">
<title>initializerr10_2&#45;&gt;r10:ne</title>
<path fill="none" stroke="#0000ff" stroke-dasharray="1,5" d="M545.747,-895.5846C511.2276,-870.2969 446.4267,-820.9584 395.1422,-771.0444"/>
<polygon fill="#0000ff" stroke="#0000ff" points="397.5774,-768.5303 388,-764 392.6619,-773.5141 397.5774,-768.5303"/>
<text text-anchor="middle" x="514" y="-815.3" font-family="Times,serif" font-size="14.00" fill="#000000">&#45;1</text>
</g>
<!-- initializerr10_3 -->
<!-- initializerr10_3&#45;&gt;r10 -->
<g id="edge12" class="edge">
<title>initializerr10_3&#45;&gt;r10:n</title>
<path fill="none" stroke="#0000ff" d="M127.1145,-896.0888C165.6908,-873.803 235.9887,-833.6109 297,-801 325.5704,-785.729 361.1543,-797.1628 368.5965,-774.1501"/>
<polygon fill="#0000ff" stroke="#0000ff" points="372.0972,-774.3852 370,-764 365.1632,-773.4263 372.0972,-774.3852"/>
<text text-anchor="middle" x="302" y="-815.3" font-family="Times,serif" font-size="14.00" fill="#000000">1</text>
</g>
<!-- r2&#45;&gt;r3 -->
<g id="edge18" class="edge">
<title>r2:se&#45;&gt;r3:ne</title>
<path fill="none" stroke="#000000" d="M561,-582C586.1526,-556.8474 844.8941,-560.7347 880,-555 933.3098,-546.2915 1032.7749,-562.4912 1013.4857,-531.7994"/>
<polygon fill="#000000" stroke="#000000" points="1016.085,-529.4511 1007,-524 1010.7027,-533.9268 1016.085,-529.4511"/>
<text text-anchor="middle" x="985.5" y="-527.8" font-family="Times,serif" font-size="14.00" fill="#000000">factor</text>
<text text-anchor="middle" x="528.5" y="-570.8" font-family="Times,serif" font-size="14.00" fill="#000000">/columns</text>
</g>
<!-- r1 -->
<g id="node14" class="node">
<title>r1</title>
<g id="a_node14"><a xlink:href="file:///home/travis/build/andrewdavidmackenzie/flow/flowstdlib/data/duplicate/duplicate.html" xlink:title="duplicate (#1)">
<ellipse fill="#ff7f50" stroke="#000000" cx="567" cy="-506" rx="77.1866" ry="18"/>
<text text-anchor="middle" x="567" y="-502.3" font-family="Times,serif" font-size="14.00" fill="#000000">duplicate (#1)</text>
</a>
</g>
</g>
<!-- r2&#45;&gt;r1 -->
<g id="edge17" class="edge">
<title>r2:se&#45;&gt;r1:ne</title>
<path fill="none" stroke="#000000" d="M561,-582C577.9525,-565.0475 598.061,-548.9662 590.8615,-532.2587"/>
<polygon fill="#000000" stroke="#000000" points="593.642,-530.1291 585,-524 587.9336,-534.1806 593.642,-530.1291"/>
<text text-anchor="middle" x="563.5" y="-527.8" font-family="Times,serif" font-size="14.00" fill="#000000">factor</text>
<text text-anchor="middle" x="593.5" y="-570.8" font-family="Times,serif" font-size="14.00" fill="#000000">/columns</text>
</g>
<!-- r8 -->
<g id="node15" class="node">
<title>r8</title>
<g id="a_node15"><a xlink:href="file:///home/travis/build/andrewdavidmackenzie/flow/flowstdlib/data/accumulate/accumulate.html" xlink:title="compose_rows (#8)">
<ellipse fill="#ff7f50" stroke="#000000" cx="739" cy="-270" rx="102.8821" ry="18"/>
<text text-anchor="middle" x="739" y="-266.3" font-family="Times,serif" font-size="14.00" fill="#000000">compose_rows (#8)</text>
</a>
</g>
</g>
<!-- r2&#45;&gt;r8 -->
<g id="edge19" class="edge">
<title>r2:se&#45;&gt;r8:nw</title>
<path fill="none" stroke="#000000" d="M561,-582C595.6809,-547.3191 498.8002,-574.9618 454,-555 418.3071,-539.0962 381,-545.0757 381,-506 381,-506 381,-506 381,-332.5 381,-259.5743 643.0585,-334.8255 712.8091,-294.1971"/>
<polygon fill="#000000" stroke="#000000" points="715.137,-296.8247 721,-288 710.9135,-291.2424 715.137,-296.8247"/>
<text text-anchor="middle" x="681" y="-291.8" font-family="Times,serif" font-size="14.00" fill="#000000">chunk_size</text>
<text text-anchor="middle" x="593.5" y="-585.8" font-family="Times,serif" font-size="14.00" fill="#000000">/columns</text>
</g>
<!-- r4&#45;&gt;r1 -->
<g id="edge22" class="edge">
<title>r4:e&#45;&gt;r1:n</title>
<path fill="none" stroke="#000000" d="M376,-600C378.4759,-600 520.2924,-544.994 557.9187,-528.5211"/>
<polygon fill="#000000" stroke="#000000" points="559.6079,-531.59 567,-524 556.4882,-525.3236 559.6079,-531.59"/>
<text text-anchor="middle" x="586.5" y="-527.8" font-family="Times,serif" font-size="14.00" fill="#000000">value</text>
</g>
<!-- r1&#45;&gt;r7 -->
<g id="edge23" class="edge">
<title>r1:e&#45;&gt;r7:ne</title>
<path fill="none" stroke="#000000" d="M645,-506C662.5908,-506 777.8179,-448.5809 801.6554,-422.8803"/>
<polygon fill="#000000" stroke="#000000" points="805.1088,-423.5943 805,-413 798.4784,-421.3498 805.1088,-423.5943"/>
<text text-anchor="middle" x="800" y="-416.8" font-family="Times,serif" font-size="14.00" fill="#000000">b</text>
</g>
<!-- r8&#45;&gt;r8 -->
<g id="edge26" class="edge">
<title>r8:e&#45;&gt;r8:ne</title>
<path fill="none" stroke="#000000" d="M842,-270C865.6909,-261 913.6909,-261 913.6909,-279 913.6909,-295.9805 826.0682,-296.9423 767.2566,-289.441"/>
<polygon fill="#000000" stroke="#000000" points="767.3897,-285.9254 757,-288 766.4157,-292.8574 767.3897,-285.9254"/>
<text text-anchor="middle" x="781" y="-291.8" font-family="Times,serif" font-size="14.00" fill="#000000">partial</text>
<text text-anchor="middle" x="868" y="-273.8" font-family="Times,serif" font-size="14.00" fill="#000000">/partial</text>
</g>
<!-- r8&#45;&gt;r8 -->
<g id="edge27" class="edge">
<title>r8:s&#45;&gt;r8:nw</title>
<path fill="none" stroke="#000000" d="M739,-252C680.7697,-243 564.3091,-243 564.3091,-270 564.3091,-295.4707 651.9318,-296.9134 710.7434,-289.4394"/>
<polygon fill="#000000" stroke="#000000" points="711.5835,-292.8559 721,-288 710.6106,-285.9238 711.5835,-292.8559"/>
<text text-anchor="middle" x="761" y="-291.8" font-family="Times,serif" font-size="14.00" fill="#000000">chunk_size</text>
<text text-anchor="middle" x="696.5" y="-240.8" font-family="Times,serif" font-size="14.00" fill="#000000">/chunk_size</text>
</g>
<!-- r8&#45;&gt;r6 -->
<g id="edge28" class="edge">
<title>r8:s&#45;&gt;r6:n</title>
<path fill="none" stroke="#000000" d="M739,-252C739,-215.8871 733.2013,-204.6531 732.1594,-173.0107"/>
<polygon fill="#000000" stroke="#000000" points="735.6588,-172.943 732,-163 728.6597,-173.0545 735.6588,-172.943"/>
<text text-anchor="middle" x="755" y="-166.8" font-family="Times,serif" font-size="14.00" fill="#000000">values</text>
<text text-anchor="middle" x="763.5" y="-240.8" font-family="Times,serif" font-size="14.00" fill="#000000">/chunk</text>
</g>
<!-- r6&#45;&gt;r6 -->
<g id="edge30" class="edge">
<title>r6:e&#45;&gt;r6:ne</title>
<path fill="none" stroke="#000000" d="M843,-145C866.4902,-136 914.4902,-136 914.4902,-154 914.4902,-171.0508 821.4747,-171.9499 759.9593,-164.3474"/>
<polygon fill="#000000" stroke="#000000" points="760.379,-160.8724 750,-163 759.4404,-167.8092 760.379,-160.8724"/>
<text text-anchor="middle" x="774" y="-166.8" font-family="Times,serif" font-size="14.00" fill="#000000">partial</text>
<text text-anchor="middle" x="869" y="-148.8" font-family="Times,serif" font-size="14.00" fill="#000000">/partial</text>
</g>
<!-- r6&#45;&gt;r6 -->
<g id="edge31" class="edge">
<title>r6:s&#45;&gt;r6:nw</title>
<path fill="none" stroke="#000000" d="M732,-127C671.1699,-118 549.5098,-118 549.5098,-145 549.5098,-170.5762 642.5253,-171.9249 704.0407,-164.3461"/>
<polygon fill="#000000" stroke="#000000" points="704.5589,-167.808 714,-163 703.6213,-160.871 704.5589,-167.808"/>
<text text-anchor="middle" x="674" y="-166.8" font-family="Times,serif" font-size="14.00" fill="#000000">chunk_size</text>
<text text-anchor="middle" x="689.5" y="-115.8" font-family="Times,serif" font-size="14.00" fill="#000000">/chunk_size</text>
</g>
<!-- r9 -->
<g id="node20" class="node">
<title>r9</title>
<g id="a_node20"><a xlink:href="file:///home/travis/build/andrewdavidmackenzie/flow/flowr/src/lib/flowruntime/stdio/stdout.html" xlink:title="print (#9)">
<ellipse fill="#ff7f50" stroke="#000000" cx="732" cy="-34" rx="57.3905" ry="18"/>
<text text-anchor="middle" x="732" y="-30.3" font-family="Times,serif" font-size="14.00" fill="#000000">print (#9)</text>
</a>
</g>
</g>
<!-- r6&#45;&gt;r9 -->
<g id="edge32" class="edge">
<title>r6:s&#45;&gt;r9:n</title>
<path fill="none" stroke="#000000" d="M732,-127C732,-97.3125 732,-87.4553 732,-62.1057"/>
<polygon fill="#000000" stroke="#000000" points="735.5001,-62 732,-52 728.5001,-62 735.5001,-62"/>
<text text-anchor="middle" x="756.5" y="-115.8" font-family="Times,serif" font-size="14.00" fill="#000000">/chunk</text>
</g>
<!-- r7&#45;&gt;r8 -->
<g id="edge24" class="edge">
<title>r7:e&#45;&gt;r8:n</title>
<path fill="none" stroke="#000000" d="M860,-395C868,-395 863.611,-384.1387 860,-377 831.5147,-320.687 748.7569,-350.9654 739.7905,-298.0515"/>
<polygon fill="#000000" stroke="#000000" points="743.2733,-297.6948 739,-288 736.2949,-298.2437 743.2733,-297.6948"/>
<text text-anchor="middle" x="716" y="-276.8" font-family="Times,serif" font-size="14.00" fill="#000000">values</text>
</g>
<!-- initializerr8_1 -->
<!-- initializerr8_1&#45;&gt;r8 -->
<g id="edge25" class="edge">
<title>initializerr8_1&#45;&gt;r8:n</title>
<path fill="none" stroke="#0000ff" stroke-dasharray="1,5" d="M598.54,-378.6432C641.4108,-356.6538 713.7247,-317.9049 733.7324,-296.9379"/>
<polygon fill="#0000ff" stroke="#0000ff" points="736.9379,-298.3922 739,-288 730.9073,-294.8381 736.9379,-298.3922"/>
<text text-anchor="middle" x="699.5" y="-328.8" font-family="Times,serif" font-size="14.00" fill="#000000">[]</text>
</g>
<!-- initializerr6_1 -->
<!-- initializerr6_1&#45;&gt;r6 -->
<g id="edge29" class="edge">
<title>initializerr6_1&#45;&gt;r6:n</title>
<path fill="none" stroke="#0000ff" stroke-dasharray="1,5" d="M528.0184,-254.6278C587.5062,-231.526 695.3949,-188.5848 724.5622,-169.983"/>
<polygon fill="#0000ff" stroke="#0000ff" points="727.1052,-172.3964 732,-163 722.3139,-167.2931 727.1052,-172.3964"/>
<text text-anchor="middle" x="666.5" y="-203.8" font-family="Times,serif" font-size="14.00" fill="#000000">[]</text>
</g>
</g>
</svg>
