<?xml version="1.0" encoding="UTF-8" standalone="no"?>
<!DOCTYPE svg PUBLIC "-//W3C//DTD SVG 1.1//EN"
 "http://www.w3.org/Graphics/SVG/1.1/DTD/svg11.dtd">
<!-- Generated by graphviz version 2.40.1 (20161225.0304)
 -->
<!-- Title: matrix_mult Pages: 1 -->
<svg width="1472pt" height="1001pt"
 viewBox="0.00 0.00 1472.00 1001.00" xmlns="http://www.w3.org/2000/svg" xmlns:xlink="http://www.w3.org/1999/xlink">
<g id="graph0" class="graph" transform="scale(1 1) rotate(0) translate(4 997)">
<title>matrix_mult</title>
<polygon fill="#ffffff" stroke="transparent" points="-4,4 -4,-997 1468,-997 1468,4 -4,4"/>
<text text-anchor="middle" x="732" y="-977.8" font-family="Times,serif" font-size="14.00" fill="#000000">/matrix_mult</text>
<g id="clust1" class="cluster">
<title>cluster_select_0</title>
<polygon fill="none" stroke="#000000" points="840,-480 840,-868 1456,-868 1456,-480 840,-480"/>
<text text-anchor="middle" x="1148" y="-852.8" font-family="Times,serif" font-size="14.00" fill="#000000">/matrix_mult/select_0</text>
</g>
<g id="clust2" class="cluster">
<title>cluster_select_1</title>
<polygon fill="none" stroke="#000000" points="8,-574 8,-962 624,-962 624,-574 8,-574"/>
<text text-anchor="middle" x="316" y="-946.8" font-family="Times,serif" font-size="14.00" fill="#000000">/matrix_mult/select_1</text>
</g>
<g id="clust3" class="cluster">
<title>cluster_multiply</title>
<polygon fill="none" stroke="#000000" points="368,-8 368,-555 832,-555 832,-8 368,-8"/>
<text text-anchor="middle" x="600" y="-539.8" font-family="Times,serif" font-size="14.00" fill="#000000">/matrix_mult/multiply</text>
</g>
<!-- r3 -->
<g id="node1" class="node">
<title>r3</title>
<g id="a_node1"><a xlink:href="file:///home/travis/build/andrewdavidmackenzie/flow/flowr/src/lib/flowruntime/stdio/readline.html" xlink:title="readline (#3)">
<ellipse fill="#ff7f50" stroke="#000000" cx="704" cy="-819" rx="72.2875" ry="18"/>
<text text-anchor="middle" x="704" y="-815.3" font-family="Times,serif" font-size="14.00" fill="#000000">readline (#3)</text>
</a>
</g>
</g>
<!-- r1 -->
<g id="node2" class="node">
<title>r1</title>
<g id="a_node2"><a xlink:href="file:///home/travis/build/andrewdavidmackenzie/flow/flowstdlib/control/index/index.html" xlink:title="index (#1)">
<ellipse fill="#ff7f50" stroke="#000000" cx="1101" cy="-673" rx="59.5901" ry="18"/>
<text text-anchor="middle" x="1101" y="-669.3" font-family="Times,serif" font-size="14.00" fill="#000000">index (#1)</text>
</a>
</g>
</g>
<!-- r3&#45;&gt;r1 -->
<g id="edge1" class="edge">
<title>r3:e&#45;&gt;r1:n</title>
<path fill="none" stroke="#000000" d="M776,-819C788.3084,-819 966.4708,-732.3098 978,-728 983.5613,-725.9211 1065.0182,-706.6273 1092.2257,-696.0943"/>
<polygon fill="#000000" stroke="#000000" points="1094.1093,-699.0479 1101,-691 1090.5945,-692.9943 1094.1093,-699.0479"/>
<text text-anchor="middle" x="1081.5" y="-694.8" font-family="Times,serif" font-size="14.00" fill="#000000">value</text>
<text text-anchor="middle" x="793" y="-822.8" font-family="Times,serif" font-size="14.00" fill="#000000">/json</text>
</g>
<!-- r0 -->
<g id="node3" class="node">
<title>r0</title>
<g id="a_node3"><a xlink:href="file:///home/travis/build/andrewdavidmackenzie/flow/flowstdlib/control/index/index.html" xlink:title="index (#0)">
<ellipse fill="#ff7f50" stroke="#000000" cx="367" cy="-746" rx="59.5901" ry="18"/>
<text text-anchor="middle" x="367" y="-742.3" font-family="Times,serif" font-size="14.00" fill="#000000">index (#0)</text>
</a>
</g>
</g>
<!-- r3&#45;&gt;r0 -->
<g id="edge2" class="edge">
<title>r3:e&#45;&gt;r0:n</title>
<path fill="none" stroke="#000000" d="M776,-819C784,-819 781.396,-806.9062 776,-801 769.0119,-793.3512 437.3604,-778.4862 376.5301,-767.276"/>
<polygon fill="#000000" stroke="#000000" points="377.5947,-763.941 367,-764 375.3191,-770.5608 377.5947,-763.941"/>
<text text-anchor="middle" x="347.5" y="-767.8" font-family="Times,serif" font-size="14.00" fill="#000000">value</text>
<text text-anchor="middle" x="793" y="-807.8" font-family="Times,serif" font-size="14.00" fill="#000000">/json</text>
</g>
<!-- r1&#45;&gt;r1 -->
<g id="edge6" class="edge">
<title>r1:sw&#45;&gt;r1:ne</title>
<path fill="none" stroke="#000000" d="M1083,-655C969.2053,-667 969.2053,-709 1101,-709 1228.8048,-709 1232.6739,-697.7156 1129.0215,-691.5609"/>
<polygon fill="#000000" stroke="#000000" points="1129.18,-688.0644 1119,-691 1128.7887,-695.0535 1129.18,-688.0644"/>
<text text-anchor="middle" x="1173" y="-694.8" font-family="Times,serif" font-size="14.00" fill="#000000">previous_value</text>
<text text-anchor="middle" x="1061.5" y="-643.8" font-family="Times,serif" font-size="14.00" fill="#000000">/value</text>
</g>
<!-- r1&#45;&gt;r1 -->
<g id="edge7" class="edge">
<title>r1:s&#45;&gt;r1:nw</title>
<path fill="none" stroke="#000000" d="M1101,-655C1057.0684,-646 969.2053,-646 969.2053,-673 969.2053,-698.0488 1029.3359,-699.859 1073.1057,-692.8034"/>
<polygon fill="#000000" stroke="#000000" points="1073.7897,-696.2365 1083,-691 1072.5345,-689.3499 1073.7897,-696.2365"/>
<text text-anchor="middle" x="1028.5" y="-694.8" font-family="Times,serif" font-size="14.00" fill="#000000">previous_index</text>
<text text-anchor="middle" x="1123" y="-643.8" font-family="Times,serif" font-size="14.00" fill="#000000">/index</text>
</g>
<!-- r10 -->
<g id="node7" class="node">
<title>r10</title>
<g id="a_node7"><a xlink:href="file:///home/travis/build/andrewdavidmackenzie/flow/flowstdlib/data/info/info.html" xlink:title="a_info (#10)">
<ellipse fill="#ff7f50" stroke="#000000" cx="1197" cy="-506" rx="67.6881" ry="18"/>
<text text-anchor="middle" x="1197" y="-502.3" font-family="Times,serif" font-size="14.00" fill="#000000">a_info (#10)</text>
</a>
</g>
</g>
<!-- r1&#45;&gt;r10 -->
<g id="edge8" class="edge">
<title>r1:e&#45;&gt;r10:n</title>
<path fill="none" stroke="#000000" d="M1161,-673C1225.8011,-673 1199.8984,-599.8326 1197.2144,-534.0599"/>
<polygon fill="#000000" stroke="#000000" points="1200.7124,-533.9231 1197,-524 1193.714,-534.0723 1200.7124,-533.9231"/>
<text text-anchor="middle" x="1216.5" y="-676.8" font-family="Times,serif" font-size="14.00" fill="#000000">/selected_value</text>
</g>
<!-- r5 -->
<g id="node8" class="node">
<title>r5</title>
<g id="a_node8"><a xlink:href="file:///home/travis/build/andrewdavidmackenzie/flow/flowstdlib/data/duplicate_rows/duplicate_rows.html" xlink:title="duplicate_rows (#5)">
<ellipse fill="#ff7f50" stroke="#000000" cx="953" cy="-506" rx="104.7816" ry="18"/>
<text text-anchor="middle" x="953" y="-502.3" font-family="Times,serif" font-size="14.00" fill="#000000">duplicate_rows (#5)</text>
</a>
</g>
</g>
<!-- r1&#45;&gt;r5 -->
<g id="edge9" class="edge">
<title>r1:e&#45;&gt;r5:n</title>
<path fill="none" stroke="#000000" d="M1161,-673C1169,-673 1164.8661,-662.0038 1161,-655 1109.9049,-562.4355 962.897,-628.6642 953.4749,-534.0035"/>
<polygon fill="#000000" stroke="#000000" points="956.9704,-533.8227 953,-524 949.9783,-534.1548 956.9704,-533.8227"/>
<text text-anchor="middle" x="1216.5" y="-661.8" font-family="Times,serif" font-size="14.00" fill="#000000">/selected_value</text>
</g>
<!-- r0&#45;&gt;r0 -->
<g id="edge13" class="edge">
<title>r0:sw&#45;&gt;r0:ne</title>
<path fill="none" stroke="#000000" d="M349,-728C235.2053,-740 235.2053,-782 367,-782 494.8048,-782 498.6739,-770.7156 395.0215,-764.5609"/>
<polygon fill="#000000" stroke="#000000" points="395.18,-761.0644 385,-764 394.7887,-768.0535 395.18,-761.0644"/>
<text text-anchor="middle" x="439" y="-767.8" font-family="Times,serif" font-size="14.00" fill="#000000">previous_value</text>
<text text-anchor="middle" x="327.5" y="-716.8" font-family="Times,serif" font-size="14.00" fill="#000000">/value</text>
</g>
<!-- r0&#45;&gt;r0 -->
<g id="edge14" class="edge">
<title>r0:s&#45;&gt;r0:nw</title>
<path fill="none" stroke="#000000" d="M367,-728C323.0684,-719 235.2053,-719 235.2053,-746 235.2053,-771.0488 295.3359,-772.859 339.1057,-765.8034"/>
<polygon fill="#000000" stroke="#000000" points="339.7897,-769.2365 349,-764 338.5345,-762.3499 339.7897,-769.2365"/>
<text text-anchor="middle" x="294.5" y="-767.8" font-family="Times,serif" font-size="14.00" fill="#000000">previous_index</text>
<text text-anchor="middle" x="389" y="-716.8" font-family="Times,serif" font-size="14.00" fill="#000000">/index</text>
</g>
<!-- r11 -->
<g id="node12" class="node">
<title>r11</title>
<g id="a_node12"><a xlink:href="file:///home/travis/build/andrewdavidmackenzie/flow/flowstdlib/data/info/info.html" xlink:title="b_info (#11)">
<ellipse fill="#ff7f50" stroke="#000000" cx="485" cy="-600" rx="68.4888" ry="18"/>
<text text-anchor="middle" x="485" y="-596.3" font-family="Times,serif" font-size="14.00" fill="#000000">b_info (#11)</text>
</a>
</g>
</g>
<!-- r0&#45;&gt;r11 -->
<g id="edge15" class="edge">
<title>r0:e&#45;&gt;r11:n</title>
<path fill="none" stroke="#000000" d="M427,-746C486.0411,-746 485.2873,-687.4295 485.0283,-628.2633"/>
<polygon fill="#000000" stroke="#000000" points="488.5277,-627.9903 485,-618 481.5277,-628.0097 488.5277,-627.9903"/>
<text text-anchor="middle" x="482.5" y="-749.8" font-family="Times,serif" font-size="14.00" fill="#000000">/selected_value</text>
</g>
<!-- r4 -->
<g id="node13" class="node">
<title>r4</title>
<g id="a_node13"><a xlink:href="file:///home/travis/build/andrewdavidmackenzie/flow/flowstdlib/data/transpose/transpose.html" xlink:title="transpose (#4)">
<ellipse fill="#ff7f50" stroke="#000000" cx="202" cy="-600" rx="79.8859" ry="18"/>
<text text-anchor="middle" x="202" y="-596.3" font-family="Times,serif" font-size="14.00" fill="#000000">transpose (#4)</text>
</a>
</g>
</g>
<!-- r0&#45;&gt;r4 -->
<g id="edge16" class="edge">
<title>r0:e&#45;&gt;r4:n</title>
<path fill="none" stroke="#000000" d="M427,-746C435,-746 431.2362,-734.7864 427,-728 369.9578,-636.6184 212.5917,-723.338 202.5082,-628.1297"/>
<polygon fill="#000000" stroke="#000000" points="205.9968,-627.812 202,-618 199.0056,-628.1629 205.9968,-627.812"/>
<text text-anchor="middle" x="482.5" y="-734.8" font-family="Times,serif" font-size="14.00" fill="#000000">/selected_value</text>
</g>
<!-- initializerr1_1 -->
<!-- initializerr1_1&#45;&gt;r1 -->
<g id="edge3" class="edge">
<title>initializerr1_1&#45;&gt;r1:nw</title>
<path fill="none" stroke="#0000ff" stroke-dasharray="1,5" d="M1127.2907,-801.5787C1100.1242,-776.8933 1057.9968,-731.1545 1076.8474,-698.8912"/>
<polygon fill="#0000ff" stroke="#0000ff" points="1079.6114,-701.0384 1083,-691 1074.091,-696.7342 1079.6114,-701.0384"/>
<text text-anchor="middle" x="1100.5" y="-742.3" font-family="Times,serif" font-size="14.00" fill="#000000">42</text>
</g>
<!-- initializerr1_2 -->
<!-- initializerr1_2&#45;&gt;r1 -->
<g id="edge4" class="edge">
<title>initializerr1_2&#45;&gt;r1:ne</title>
<path fill="none" stroke="#0000ff" stroke-dasharray="1,5" d="M1324.0901,-804.9169C1270.9725,-787.3002 1185.0594,-752.646 1126.3756,-698.1072"/>
<polygon fill="#0000ff" stroke="#0000ff" points="1128.6295,-695.4186 1119,-691 1123.7723,-700.4592 1128.6295,-695.4186"/>
<text text-anchor="middle" x="1231" y="-742.3" font-family="Times,serif" font-size="14.00" fill="#000000">&#45;1</text>
</g>
<!-- initializerr1_3 -->
<!-- initializerr1_3&#45;&gt;r1 -->
<g id="edge5" class="edge">
<title>initializerr1_3&#45;&gt;r1:n</title>
<path fill="none" stroke="#0000ff" d="M946.4428,-801.4748C970.5083,-782.8359 1009.9899,-752.6964 1045,-728 1066.1388,-713.0885 1092.7278,-718.6478 1099.4176,-700.9337"/>
<polygon fill="#0000ff" stroke="#0000ff" points="1102.8832,-701.4261 1101,-691 1095.9704,-700.3249 1102.8832,-701.4261"/>
<text text-anchor="middle" x="1050" y="-742.3" font-family="Times,serif" font-size="14.00" fill="#000000">0</text>
</g>
<!-- r9 -->
<g id="node16" class="node">
<title>r9</title>
<g id="a_node16"><a xlink:href="file:///home/travis/build/andrewdavidmackenzie/flow/flowstdlib/data/accumulate/accumulate.html" xlink:title="compose_matrix (#9)">
<ellipse fill="#ff7f50" stroke="#000000" cx="696" cy="-145" rx="110.4804" ry="18"/>
<text text-anchor="middle" x="696" y="-141.3" font-family="Times,serif" font-size="14.00" fill="#000000">compose_matrix (#9)</text>
</a>
</g>
</g>
<!-- r10&#45;&gt;r9 -->
<g id="edge20" class="edge">
<title>r10:e&#45;&gt;r9:nw</title>
<path fill="none" stroke="#000000" d="M1265,-506C1273,-506 1270.2763,-494.0133 1265,-488 1222.7236,-439.8185 979,-514.5996 979,-450.5 979,-450.5 979,-450.5 979,-207.5 979,-145.1666 682.5612,-200.5748 673.7011,-172.1544"/>
<polygon fill="#000000" stroke="#000000" points="676.9173,-173.5394 678,-163 670.5812,-170.5639 676.9173,-173.5394"/>
<text text-anchor="middle" x="638" y="-166.8" font-family="Times,serif" font-size="14.00" fill="#000000">chunk_size</text>
<text text-anchor="middle" x="1285" y="-509.8" font-family="Times,serif" font-size="14.00" fill="#000000">/rows</text>
</g>
<!-- r8 -->
<g id="node17" class="node">
<title>r8</title>
<g id="a_node17"><a xlink:href="file:///home/travis/build/andrewdavidmackenzie/flow/flowstdlib/data/multiply_row/multiply_row.html" xlink:title="multiply (#8)">
<ellipse fill="#ff7f50" stroke="#000000" cx="751" cy="-395" rx="72.5877" ry="18"/>
<text text-anchor="middle" x="751" y="-391.3" font-family="Times,serif" font-size="14.00" fill="#000000">multiply (#8)</text>
</a>
</g>
</g>
<!-- r5&#45;&gt;r8 -->
<g id="edge21" class="edge">
<title>r5:e&#45;&gt;r8:n</title>
<path fill="none" stroke="#000000" d="M1058,-506C1066,-506 1063.2669,-494.0216 1058,-488 1038.2195,-465.3848 953.2818,-476.7297 924,-470 848.6463,-452.6817 759.4238,-490.295 751.5598,-423.1816"/>
<polygon fill="#000000" stroke="#000000" points="755.0438,-422.7928 751,-413 748.0543,-423.1771 755.0438,-422.7928"/>
<text text-anchor="middle" x="746.5" y="-416.8" font-family="Times,serif" font-size="14.00" fill="#000000">a</text>
</g>
<!-- initializerr0_1 -->
<!-- initializerr0_1&#45;&gt;r0 -->
<g id="edge10" class="edge">
<title>initializerr0_1&#45;&gt;r0:nw</title>
<path fill="none" stroke="#0000ff" stroke-dasharray="1,5" d="M314.3219,-895.0003C312.6084,-865.9454 313.4495,-808.2928 342.0288,-771.8765"/>
<polygon fill="#0000ff" stroke="#0000ff" points="344.9933,-773.808 349,-764 339.7514,-769.1686 344.9933,-773.808"/>
<text text-anchor="middle" x="334.5" y="-815.3" font-family="Times,serif" font-size="14.00" fill="#000000">42</text>
</g>
<!-- initializerr0_2 -->
<!-- initializerr0_2&#45;&gt;r0 -->
<g id="edge11" class="edge">
<title>initializerr0_2&#45;&gt;r0:ne</title>
<path fill="none" stroke="#0000ff" stroke-dasharray="1,5" d="M521.1597,-895.3451C493.1879,-869.0365 438.9399,-817.6436 392.1434,-771.122"/>
<polygon fill="#0000ff" stroke="#0000ff" points="394.5529,-768.5819 385,-764 389.6105,-773.5391 394.5529,-768.5819"/>
<text text-anchor="middle" x="498" y="-815.3" font-family="Times,serif" font-size="14.00" fill="#000000">&#45;1</text>
</g>
<!-- initializerr0_3 -->
<!-- initializerr0_3&#45;&gt;r0 -->
<g id="edge12" class="edge">
<title>initializerr0_3&#45;&gt;r0:n</title>
<path fill="none" stroke="#0000ff" d="M118.9978,-896.1562C155.8778,-873.4206 224.3607,-832.173 285,-801 317.0866,-784.5051 358.0333,-800.2069 365.7247,-774.0553"/>
<polygon fill="#0000ff" stroke="#0000ff" points="369.2139,-774.3609 367,-764 362.2695,-773.4801 369.2139,-774.3609"/>
<text text-anchor="middle" x="290" y="-815.3" font-family="Times,serif" font-size="14.00" fill="#000000">1</text>
</g>
<!-- r11&#45;&gt;r5 -->
<g id="edge18" class="edge">
<title>r11:se&#45;&gt;r5:ne</title>
<path fill="none" stroke="#000000" d="M502,-583C528.96,-556.04 806.3632,-561.0951 844,-555 897.3217,-546.3648 996.7766,-562.5015 977.4859,-531.8005"/>
<polygon fill="#000000" stroke="#000000" points="980.0847,-529.4516 971,-524 974.7022,-533.927 980.0847,-529.4516"/>
<text text-anchor="middle" x="949.5" y="-527.8" font-family="Times,serif" font-size="14.00" fill="#000000">factor</text>
<text text-anchor="middle" x="534.5" y="-571.8" font-family="Times,serif" font-size="14.00" fill="#000000">/columns</text>
</g>
<!-- r6 -->
<g id="node14" class="node">
<title>r6</title>
<g id="a_node14"><a xlink:href="file:///home/travis/build/andrewdavidmackenzie/flow/flowstdlib/data/duplicate/duplicate.html" xlink:title="duplicate (#6)">
<ellipse fill="#ff7f50" stroke="#000000" cx="531" cy="-506" rx="77.1866" ry="18"/>
<text text-anchor="middle" x="531" y="-502.3" font-family="Times,serif" font-size="14.00" fill="#000000">duplicate (#6)</text>
</a>
</g>
</g>
<!-- r11&#45;&gt;r6 -->
<g id="edge17" class="edge">
<title>r11:se&#45;&gt;r6:ne</title>
<path fill="none" stroke="#000000" d="M502,-583C522.7428,-562.2572 561.32,-550.7924 554.759,-532.3691"/>
<polygon fill="#000000" stroke="#000000" points="557.5522,-530.2539 549,-524 551.7856,-534.2221 557.5522,-530.2539"/>
<text text-anchor="middle" x="527.5" y="-527.8" font-family="Times,serif" font-size="14.00" fill="#000000">factor</text>
<text text-anchor="middle" x="469.5" y="-571.8" font-family="Times,serif" font-size="14.00" fill="#000000">/columns</text>
</g>
<!-- r7 -->
<g id="node15" class="node">
<title>r7</title>
<g id="a_node15"><a xlink:href="file:///home/travis/build/andrewdavidmackenzie/flow/flowstdlib/data/accumulate/accumulate.html" xlink:title="compose_rows (#7)">
<ellipse fill="#ff7f50" stroke="#000000" cx="703" cy="-270" rx="102.8821" ry="18"/>
<text text-anchor="middle" x="703" y="-266.3" font-family="Times,serif" font-size="14.00" fill="#000000">compose_rows (#7)</text>
</a>
</g>
</g>
<!-- r11&#45;&gt;r7 -->
<g id="edge19" class="edge">
<title>r11:se&#45;&gt;r7:nw</title>
<path fill="none" stroke="#000000" d="M502,-583C529.8266,-555.1734 453.3239,-572.3454 418,-555 382.9248,-537.7767 345,-545.0757 345,-506 345,-506 345,-506 345,-332.5 345,-259.5743 607.0585,-334.8255 676.8091,-294.1971"/>
<polygon fill="#000000" stroke="#000000" points="679.137,-296.8247 685,-288 674.9135,-291.2424 679.137,-296.8247"/>
<text text-anchor="middle" x="645" y="-291.8" font-family="Times,serif" font-size="14.00" fill="#000000">chunk_size</text>
<text text-anchor="middle" x="534.5" y="-586.8" font-family="Times,serif" font-size="14.00" fill="#000000">/columns</text>
</g>
<!-- r4&#45;&gt;r6 -->
<g id="edge22" class="edge">
<title>r4:e&#45;&gt;r6:n</title>
<path fill="none" stroke="#000000" d="M282,-600C288.3983,-600 478.3944,-546.1674 522.0975,-528.752"/>
<polygon fill="#000000" stroke="#000000" points="523.8263,-531.7967 531,-524 520.53,-525.6214 523.8263,-531.7967"/>
<text text-anchor="middle" x="550.5" y="-527.8" font-family="Times,serif" font-size="14.00" fill="#000000">value</text>
</g>
<!-- r6&#45;&gt;r8 -->
<g id="edge23" class="edge">
<title>r6:e&#45;&gt;r8:ne</title>
<path fill="none" stroke="#000000" d="M609,-506C673.7884,-506 677.3842,-462.4989 734,-431 742.837,-426.0834 757.2882,-424.9695 765.5187,-422.5148"/>
<polygon fill="#000000" stroke="#000000" points="768.8508,-423.5938 769,-413 762.277,-421.1885 768.8508,-423.5938"/>
<text text-anchor="middle" x="764" y="-416.8" font-family="Times,serif" font-size="14.00" fill="#000000">b</text>
</g>
<!-- r7&#45;&gt;r7 -->
<g id="edge26" class="edge">
<title>r7:e&#45;&gt;r7:ne</title>
<path fill="none" stroke="#000000" d="M806,-270C829.6909,-261 877.6909,-261 877.6909,-279 877.6909,-295.9805 790.0682,-296.9423 731.2566,-289.441"/>
<polygon fill="#000000" stroke="#000000" points="731.3897,-285.9254 721,-288 730.4157,-292.8574 731.3897,-285.9254"/>
<text text-anchor="middle" x="745" y="-291.8" font-family="Times,serif" font-size="14.00" fill="#000000">partial</text>
<text text-anchor="middle" x="832" y="-273.8" font-family="Times,serif" font-size="14.00" fill="#000000">/partial</text>
</g>
<!-- r7&#45;&gt;r7 -->
<g id="edge27" class="edge">
<title>r7:s&#45;&gt;r7:nw</title>
<path fill="none" stroke="#000000" d="M703,-252C644.7697,-243 528.3091,-243 528.3091,-270 528.3091,-295.4707 615.9318,-296.9134 674.7434,-289.4394"/>
<polygon fill="#000000" stroke="#000000" points="675.5835,-292.8559 685,-288 674.6106,-285.9238 675.5835,-292.8559"/>
<text text-anchor="middle" x="725" y="-291.8" font-family="Times,serif" font-size="14.00" fill="#000000">chunk_size</text>
<text text-anchor="middle" x="660.5" y="-240.8" font-family="Times,serif" font-size="14.00" fill="#000000">/chunk_size</text>
</g>
<!-- r7&#45;&gt;r9 -->
<g id="edge28" class="edge">
<title>r7:s&#45;&gt;r9:n</title>
<path fill="none" stroke="#000000" d="M703,-252C703,-215.8871 697.2013,-204.6531 696.1594,-173.0107"/>
<polygon fill="#000000" stroke="#000000" points="699.6588,-172.943 696,-163 692.6597,-173.0545 699.6588,-172.943"/>
<text text-anchor="middle" x="719" y="-166.8" font-family="Times,serif" font-size="14.00" fill="#000000">values</text>
<text text-anchor="middle" x="727.5" y="-240.8" font-family="Times,serif" font-size="14.00" fill="#000000">/chunk</text>
</g>
<!-- r9&#45;&gt;r9 -->
<g id="edge30" class="edge">
<title>r9:e&#45;&gt;r9:ne</title>
<path fill="none" stroke="#000000" d="M807,-145C830.4902,-136 878.4902,-136 878.4902,-154 878.4902,-171.0508 785.4747,-171.9499 723.9593,-164.3474"/>
<polygon fill="#000000" stroke="#000000" points="724.379,-160.8724 714,-163 723.4404,-167.8092 724.379,-160.8724"/>
<text text-anchor="middle" x="738" y="-166.8" font-family="Times,serif" font-size="14.00" fill="#000000">partial</text>
<text text-anchor="middle" x="833" y="-148.8" font-family="Times,serif" font-size="14.00" fill="#000000">/partial</text>
</g>
<!-- r9&#45;&gt;r9 -->
<g id="edge31" class="edge">
<title>r9:s&#45;&gt;r9:nw</title>
<path fill="none" stroke="#000000" d="M696,-127C635.1699,-118 513.5098,-118 513.5098,-145 513.5098,-170.5762 606.5253,-171.9249 668.0407,-164.3461"/>
<polygon fill="#000000" stroke="#000000" points="668.5589,-167.808 678,-163 667.6213,-160.871 668.5589,-167.808"/>
<text text-anchor="middle" x="638" y="-166.8" font-family="Times,serif" font-size="14.00" fill="#000000">chunk_size</text>
<text text-anchor="middle" x="653.5" y="-115.8" font-family="Times,serif" font-size="14.00" fill="#000000">/chunk_size</text>
</g>
<!-- r2 -->
<g id="node20" class="node">
<title>r2</title>
<g id="a_node20"><a xlink:href="file:///home/travis/build/andrewdavidmackenzie/flow/flowr/src/lib/flowruntime/stdio/stdout.html" xlink:title="print (#2)">
<ellipse fill="#ff7f50" stroke="#000000" cx="696" cy="-34" rx="57.3905" ry="18"/>
<text text-anchor="middle" x="696" y="-30.3" font-family="Times,serif" font-size="14.00" fill="#000000">print (#2)</text>
</a>
</g>
</g>
<!-- r9&#45;&gt;r2 -->
<g id="edge32" class="edge">
<title>r9:s&#45;&gt;r2:n</title>
<path fill="none" stroke="#000000" d="M696,-127C696,-97.3125 696,-87.4553 696,-62.1057"/>
<polygon fill="#000000" stroke="#000000" points="699.5001,-62 696,-52 692.5001,-62 699.5001,-62"/>
<text text-anchor="middle" x="720.5" y="-115.8" font-family="Times,serif" font-size="14.00" fill="#000000">/chunk</text>
</g>
<!-- r8&#45;&gt;r7 -->
<g id="edge24" class="edge">
<title>r8:e&#45;&gt;r7:n</title>
<path fill="none" stroke="#000000" d="M824,-395C832,-395 827.611,-384.1387 824,-377 795.5147,-320.687 712.7569,-350.9654 703.7905,-298.0515"/>
<polygon fill="#000000" stroke="#000000" points="707.2733,-297.6948 703,-288 700.2949,-298.2437 707.2733,-297.6948"/>
<text text-anchor="middle" x="680" y="-276.8" font-family="Times,serif" font-size="14.00" fill="#000000">values</text>
</g>
<!-- initializerr7_1 -->
<!-- initializerr7_1&#45;&gt;r7 -->
<g id="edge25" class="edge">
<title>initializerr7_1&#45;&gt;r7:n</title>
<path fill="none" stroke="#0000ff" stroke-dasharray="1,5" d="M562.54,-378.6432C605.4108,-356.6538 677.7247,-317.9049 697.7324,-296.9379"/>
<polygon fill="#0000ff" stroke="#0000ff" points="700.9379,-298.3922 703,-288 694.9073,-294.8381 700.9379,-298.3922"/>
<text text-anchor="middle" x="663.5" y="-328.8" font-family="Times,serif" font-size="14.00" fill="#000000">[]</text>
</g>
<!-- initializerr9_1 -->
<!-- initializerr9_1&#45;&gt;r9 -->
<g id="edge29" class="edge">
<title>initializerr9_1&#45;&gt;r9:n</title>
<path fill="none" stroke="#0000ff" stroke-dasharray="1,5" d="M492.0184,-254.6278C551.5062,-231.526 659.3949,-188.5848 688.5622,-169.983"/>
<polygon fill="#0000ff" stroke="#0000ff" points="691.1052,-172.3964 696,-163 686.3139,-167.2931 691.1052,-172.3964"/>
<text text-anchor="middle" x="630.5" y="-203.8" font-family="Times,serif" font-size="14.00" fill="#000000">[]</text>
</g>
</g>
</svg>
