<?xml version="1.0" encoding="UTF-8" standalone="no"?>
<!DOCTYPE svg PUBLIC "-//W3C//DTD SVG 1.1//EN"
 "http://www.w3.org/Graphics/SVG/1.1/DTD/svg11.dtd">
<!-- Generated by graphviz version 2.40.1 (20161225.0304)
 -->
<!-- Title: select_1 Pages: 1 -->
<svg width="1375pt" height="339pt"
 viewBox="28.80 28.80 1346.59 309.80" xmlns="http://www.w3.org/2000/svg" xmlns:xlink="http://www.w3.org/1999/xlink">
<g id="page0,1_graph0" class="graph" transform="scale(1 1) rotate(0) translate(32.8 305.8)">
<title>select_1</title>
<polygon fill="#ffffff" stroke="transparent" points="-4,4 -4,-277 1313.7902,-277 1313.7902,4 -4,4"/>
<text text-anchor="middle" x="654.8951" y="-257.8" font-family="Times,serif" font-size="14.00" fill="#000000">select_1</text>
<!-- /matrix_mult/select_1/value -->
<g id="node1" class="node">
<title>/matrix_mult/select_1/value</title>
<polygon fill="#ffffff" stroke="#000000" points="947.5293,-237.5623 903.1575,-250 858.7857,-237.5623 858.8271,-217.4377 947.4879,-217.4377 947.5293,-237.5623"/>
<text text-anchor="middle" x="903.1575" y="-228.3" font-family="Times,serif" font-size="14.00" fill="#000000">value</text>
</g>
<!-- /matrix_mult/select_1/index -->
<g id="node4" class="node">
<title>/matrix_mult/select_1/index</title>
<g id="a_node4"><a xlink:href="../../flowstdlib/control/index/index.html" xlink:title="index">
<ellipse fill="#ff7f50" stroke="#000000" cx="708.1575" cy="-91" rx="36.2938" ry="18"/>
<text text-anchor="middle" x="708.1575" y="-87.3" font-family="Times,serif" font-size="14.00" fill="#000000">index</text>
</a>
</g>
</g>
<!-- /matrix_mult/select_1/value&#45;&gt;/matrix_mult/select_1/index -->
<g id="edge4" class="edge">
<title>/matrix_mult/select_1/value:s&#45;&gt;/matrix_mult/select_1/index:n</title>
<path fill="none" stroke="#000000" d="M903.1575,-217C903.1575,-190.9137 907.2889,-178.7549 889.1575,-160 833.6765,-102.6112 719.0694,-184.5597 708.8846,-119.2262"/>
<polygon fill="#000000" stroke="#000000" points="712.358,-118.7266 708.1575,-109 705.3756,-119.2231 712.358,-118.7266"/>
<text text-anchor="middle" x="688.6575" y="-112.8" font-family="Times,serif" font-size="14.00" fill="#000000">value</text>
</g>
<!-- /matrix_mult/select_1/select_index -->
<g id="node2" class="node">
<title>/matrix_mult/select_1/select_index</title>
<polygon fill="#ffffff" stroke="#000000" points="170.4729,-237.5623 85.1575,-250 -.1578,-237.5623 -.0782,-217.4377 170.3932,-217.4377 170.4729,-237.5623"/>
<text text-anchor="middle" x="85.1575" y="-228.3" font-family="Times,serif" font-size="14.00" fill="#000000">select_index</text>
</g>
<!-- /matrix_mult/select_1/select_index&#45;&gt;/matrix_mult/select_1/index -->
<g id="edge5" class="edge">
<title>/matrix_mult/select_1/select_index:s&#45;&gt;/matrix_mult/select_1/index:n</title>
<path fill="none" stroke="#000000" d="M85.1575,-217C85.1575,-190.9137 79.3195,-176.9395 99.1575,-160 111.1091,-149.7946 622.8878,-129.3241 698.7891,-112.872"/>
<polygon fill="#000000" stroke="#000000" points="700.2526,-116.0543 708.1575,-109 697.5789,-109.5851 700.2526,-116.0543"/>
<text text-anchor="middle" x="753.1575" y="-112.8" font-family="Times,serif" font-size="14.00" fill="#000000">select_index</text>
</g>
<!-- /matrix_mult/select_1/selected_value -->
<g id="node3" class="node">
<title>/matrix_mult/select_1/selected_value</title>
<polygon fill="#000000" stroke="#000000" points="647.1345,-12.4377 745.1575,0 843.1805,-12.4377 843.089,-32.5623 647.226,-32.5623 647.1345,-12.4377"/>
<text text-anchor="middle" x="745.1575" y="-14.3" font-family="Times,serif" font-size="14.00" fill="#ffffff">selected_value</text>
</g>
<!-- /matrix_mult/select_1/index&#45;&gt;/matrix_mult/select_1/selected_value -->
<g id="edge8" class="edge">
<title>/matrix_mult/select_1/index:e&#45;&gt;/matrix_mult/select_1/selected_value:n</title>
<path fill="none" stroke="#000000" d="M745.1575,-91C767.6124,-91 750.9467,-66.5496 746.2769,-43.2072"/>
<polygon fill="#000000" stroke="#000000" points="749.7269,-42.5588 745.1575,-33 742.7686,-43.322 749.7269,-42.5588"/>
<text text-anchor="middle" x="698.3173" y="-49.5835" font-family="Times,serif" font-size="14.00" fill="#000000">selected_value</text>
</g>
<!-- /matrix_mult/select_1/index&#45;&gt;/matrix_mult/select_1/index -->
<g id="edge6" class="edge">
<title>/matrix_mult/select_1/index:s&#45;&gt;/matrix_mult/select_1/index:nw</title>
<path fill="none" stroke="#000000" d="M708.1575,-73C690.0253,-64 653.7608,-64 653.7608,-90 653.7608,-111.5313 667.658,-115.2319 682.7328,-110.7567"/>
<polygon fill="#000000" stroke="#000000" points="684.1643,-113.954 692.1575,-107 681.5723,-107.4515 684.1643,-113.954"/>
<text text-anchor="middle" x="688.4442" y="-61.6949" font-family="Times,serif" font-size="14.00" fill="#000000">value</text>
<text text-anchor="middle" x="638.1575" y="-95.8" font-family="Times,serif" font-size="14.00" fill="#000000">previous_value</text>
</g>
<!-- /matrix_mult/select_1/index&#45;&gt;/matrix_mult/select_1/index -->
<g id="edge7" class="edge">
<title>/matrix_mult/select_1/index:sw&#45;&gt;/matrix_mult/select_1/index:ne</title>
<path fill="none" stroke="#000000" d="M692.1575,-75C653.7608,-87 653.7608,-127 708.1575,-127 757.4546,-127 762.0762,-117.1445 733.931,-109.3423"/>
<polygon fill="#000000" stroke="#000000" points="734.6979,-105.927 724.1575,-107 733.0664,-112.7343 734.6979,-105.927"/>
<text text-anchor="middle" x="712.1435" y="-63.8044" font-family="Times,serif" font-size="14.00" fill="#000000">index</text>
<text text-anchor="middle" x="778.6575" y="-95.8" font-family="Times,serif" font-size="14.00" fill="#000000">previous_index</text>
</g>
<!-- initializer/matrix_mult/select_1/index_1 -->
<!-- initializer/matrix_mult/select_1/index_1&#45;&gt;/matrix_mult/select_1/index -->
<g id="edge1" class="edge">
<title>initializer/matrix_mult/select_1/index_1&#45;&gt;/matrix_mult/select_1/index:nw</title>
<path fill="none" stroke="#0000ff" stroke-dasharray="1,5" d="M685.8489,-159.8745C682.3133,-146.7231 679.7691,-128.956 686.1857,-115.5092"/>
<polygon fill="#0000ff" stroke="#0000ff" points="689.2778,-117.196 692.1575,-107 683.5481,-113.1748 689.2778,-117.196"/>
<text text-anchor="middle" x="691.6575" y="-130.8" font-family="Times,serif" font-size="14.00" fill="#000000">42</text>
</g>
<!-- initializer/matrix_mult/select_1/index_2 -->
<!-- initializer/matrix_mult/select_1/index_2&#45;&gt;/matrix_mult/select_1/index -->
<g id="edge2" class="edge">
<title>initializer/matrix_mult/select_1/index_2&#45;&gt;/matrix_mult/select_1/index:ne</title>
<path fill="none" stroke="#0000ff" stroke-dasharray="1,5" d="M1056.9069,-160.7493C1017.8609,-149.5862 964.7909,-135.5837 917.1575,-127 877.8719,-119.9206 772.043,-134.9393 732.3583,-113.0155"/>
<polygon fill="#0000ff" stroke="#0000ff" points="734.291,-110.0926 724.1575,-107 730.1507,-115.7369 734.291,-110.0926"/>
<text text-anchor="middle" x="989.1575" y="-130.8" font-family="Times,serif" font-size="14.00" fill="#000000">&#45;1</text>
</g>
<!-- initializer/matrix_mult/select_1/index_3 -->
<!-- initializer/matrix_mult/select_1/index_3&#45;&gt;/matrix_mult/select_1/index -->
<g id="edge3" class="edge">
<title>initializer/matrix_mult/select_1/index_3&#45;&gt;/matrix_mult/select_1/index:n</title>
<path fill="none" stroke="#0000ff" d="M415.325,-163.7126C521.319,-150.2853 664.8542,-130.085 700.098,-115.2131"/>
<polygon fill="#0000ff" stroke="#0000ff" points="702.3746,-117.8774 708.1575,-109 698.1008,-112.3335 702.3746,-117.8774"/>
<text text-anchor="middle" x="653.1575" y="-130.8" font-family="Times,serif" font-size="14.00" fill="#000000">1</text>
</g>
</g>
</svg>
