<?xml version="1.0" encoding="UTF-8" standalone="no"?>
<!DOCTYPE svg PUBLIC "-//W3C//DTD SVG 1.1//EN"
 "http://www.w3.org/Graphics/SVG/1.1/DTD/svg11.dtd">
<!-- Generated by graphviz version 2.44.1 (20200629.0846)
 -->
<!-- Title: select_1 Pages: 1 -->
<svg width="1102pt" height="339pt"
 viewBox="28.80 28.80 1073.67 309.80" xmlns="http://www.w3.org/2000/svg" xmlns:xlink="http://www.w3.org/1999/xlink">
<g id="graph0" class="graph" transform="scale(1 1) rotate(0) translate(32.8 305.8)">
<title>select_1</title>
<polygon fill="white" stroke="transparent" points="-4,4 -4,-277 1040.87,-277 1040.87,4 -4,4"/>
<text text-anchor="middle" x="518.43" y="-257.8" font-family="Times,serif" font-size="14.00">select_1</text>
<!-- /matrix_mult/select_1/value -->
<g id="node1" class="node">
<title>/matrix_mult/select_1/value</title>
<polygon fill="white" stroke="black" points="752.39,-237.56 715.48,-250 678.57,-237.56 678.61,-217.44 752.36,-217.44 752.39,-237.56"/>
<text text-anchor="middle" x="715.48" y="-228.3" font-family="Times,serif" font-size="14.00">value</text>
</g>
<!-- /matrix_mult/select_1/index -->
<g id="node4" class="node">
<title>/matrix_mult/select_1/index</title>
<g id="a_node4"><a xlink:href="../../flowstdlib/control/index/index.html" xlink:title="index">
<ellipse fill="coral" stroke="black" cx="563.48" cy="-91" rx="30.59" ry="18"/>
<text text-anchor="middle" x="563.48" y="-87.3" font-family="Times,serif" font-size="14.00">index</text>
</a>
</g>
</g>
<!-- /matrix_mult/select_1/value&#45;&gt;/matrix_mult/select_1/index -->
<g id="edge4" class="edge">
<title>/matrix_mult/select_1/value:s&#45;&gt;/matrix_mult/select_1/index:n</title>
<path fill="none" stroke="black" d="M715.48,-216C715.48,-190.35 718.61,-179.1 701.48,-160 660.39,-114.17 574.37,-167.38 564.43,-119.22"/>
<polygon fill="black" stroke="black" points="567.89,-118.64 563.48,-109 560.92,-119.28 567.89,-118.64"/>
<text text-anchor="middle" x="548.48" y="-112.8" font-family="Times,serif" font-size="14.00">value</text>
</g>
<!-- /matrix_mult/select_1/select_index -->
<g id="node2" class="node">
<title>/matrix_mult/select_1/select_index</title>
<polygon fill="white" stroke="black" points="134.95,-237.56 67.48,-250 0.02,-237.56 0.08,-217.44 134.89,-217.44 134.95,-237.56"/>
<text text-anchor="middle" x="67.48" y="-228.3" font-family="Times,serif" font-size="14.00">select_index</text>
</g>
<!-- /matrix_mult/select_1/select_index&#45;&gt;/matrix_mult/select_1/index -->
<g id="edge5" class="edge">
<title>/matrix_mult/select_1/select_index:s&#45;&gt;/matrix_mult/select_1/index:n</title>
<path fill="none" stroke="black" d="M67.48,-216C67.48,-190.35 62.12,-176.83 81.48,-160 90.79,-151.91 487.49,-127.14 554.05,-112.69"/>
<polygon fill="black" stroke="black" points="555.45,-115.91 563.48,-109 552.9,-109.39 555.45,-115.91"/>
<text text-anchor="middle" x="597.48" y="-112.8" font-family="Times,serif" font-size="14.00">select_index</text>
</g>
<!-- /matrix_mult/select_1/selected_value -->
<g id="node3" class="node">
<title>/matrix_mult/select_1/selected_value</title>
<polygon fill="black" stroke="black" points="517.24,-12.44 594.48,0 671.73,-12.44 671.66,-32.56 517.31,-32.56 517.24,-12.44"/>
<text text-anchor="middle" x="594.48" y="-14.3" font-family="Times,serif" font-size="14.00" fill="white">selected_value</text>
</g>
<!-- /matrix_mult/select_1/index&#45;&gt;/matrix_mult/select_1/selected_value -->
<g id="edge8" class="edge">
<title>/matrix_mult/select_1/index:e&#45;&gt;/matrix_mult/select_1/selected_value:n</title>
<path fill="none" stroke="black" d="M595.48,-91C617.55,-91 600.41,-66.97 595.63,-44.03"/>
<polygon fill="black" stroke="black" points="599.1,-43.54 594.48,-34 592.14,-44.33 599.1,-43.54"/>
<text text-anchor="middle" x="560.82" y="-50.11" font-family="Times,serif" font-size="14.00">selected_value</text>
</g>
<!-- /matrix_mult/select_1/index&#45;&gt;/matrix_mult/select_1/index -->
<g id="edge6" class="edge">
<title>/matrix_mult/select_1/index:s&#45;&gt;/matrix_mult/select_1/index:nw</title>
<path fill="none" stroke="black" d="M563.48,-73C547.3,-64 514.94,-64 514.94,-90 514.94,-110.92 525.53,-115.01 538.1,-111.12"/>
<polygon fill="black" stroke="black" points="539.73,-114.22 547.48,-107 536.92,-107.81 539.73,-114.22"/>
<text text-anchor="middle" x="548.39" y="-61.75" font-family="Times,serif" font-size="14.00">value</text>
<text text-anchor="middle" x="505.98" y="-110.8" font-family="Times,serif" font-size="14.00">previous_value</text>
</g>
<!-- /matrix_mult/select_1/index&#45;&gt;/matrix_mult/select_1/index -->
<g id="edge7" class="edge">
<title>/matrix_mult/select_1/index:sw&#45;&gt;/matrix_mult/select_1/index:ne</title>
<path fill="none" stroke="black" d="M547.48,-75C514.94,-87 514.94,-127 563.48,-127 606.53,-127 611.41,-117.56 589.27,-109.85"/>
<polygon fill="black" stroke="black" points="590.06,-106.44 579.48,-107 588.11,-113.16 590.06,-106.44"/>
<text text-anchor="middle" x="531.96" y="-78.81" font-family="Times,serif" font-size="14.00">index</text>
<text text-anchor="middle" x="621.48" y="-95.8" font-family="Times,serif" font-size="14.00">previous_index</text>
</g>
<!-- initializer/matrix_mult/select_1/index_1 -->
<!-- initializer/matrix_mult/select_1/index_1&#45;&gt;/matrix_mult/select_1/index -->
<g id="edge1" class="edge">
<title>initializer/matrix_mult/select_1/index_1&#45;&gt;/matrix_mult/select_1/index:nw</title>
<path fill="none" stroke="blue" stroke-dasharray="1,5" d="M541.52,-159.99C538.01,-147.19 535.36,-129.65 541.62,-116.39"/>
<polygon fill="blue" stroke="blue" points="544.63,-118.2 547.48,-108 538.89,-114.19 544.63,-118.2"/>
<text text-anchor="middle" x="544.48" y="-130.8" font-family="Times,serif" font-size="14.00">42</text>
</g>
<!-- initializer/matrix_mult/select_1/index_2 -->
<!-- initializer/matrix_mult/select_1/index_2&#45;&gt;/matrix_mult/select_1/index -->
<g id="edge2" class="edge">
<title>initializer/matrix_mult/select_1/index_2&#45;&gt;/matrix_mult/select_1/index:ne</title>
<path fill="none" stroke="blue" stroke-dasharray="1,5" d="M840.61,-160.68C810.04,-149.63 767.75,-135.56 729.48,-127 699.77,-120.36 620.23,-129.66 587.9,-113.78"/>
<polygon fill="blue" stroke="blue" points="589.71,-110.78 579.48,-108 585.74,-116.55 589.71,-110.78"/>
<text text-anchor="middle" x="786.48" y="-130.8" font-family="Times,serif" font-size="14.00">&#45;1</text>
</g>
<!-- initializer/matrix_mult/select_1/index_3 -->
<!-- initializer/matrix_mult/select_1/index_3&#45;&gt;/matrix_mult/select_1/index -->
<g id="edge3" class="edge">
<title>initializer/matrix_mult/select_1/index_3&#45;&gt;/matrix_mult/select_1/index:n</title>
<path fill="none" stroke="blue" d="M322.52,-163.18C405.65,-149.46 522.89,-128.58 555.05,-115.12"/>
<polygon fill="blue" stroke="blue" points="557.44,-117.7 563.48,-109 553.33,-112.04 557.44,-117.7"/>
<text text-anchor="middle" x="511.98" y="-130.8" font-family="Times,serif" font-size="14.00">1</text>
</g>
</g>
</svg>
