<?xml version="1.0" encoding="UTF-8" standalone="no"?>
<!DOCTYPE svg PUBLIC "-//W3C//DTD SVG 1.1//EN"
 "http://www.w3.org/Graphics/SVG/1.1/DTD/svg11.dtd">
<!-- Generated by graphviz version 2.44.1 (20200629.0846)
 -->
<!-- Title: multiply Pages: 1 -->
<svg width="953pt" height="714pt"
 viewBox="28.80 28.80 924.26 685.50" xmlns="http://www.w3.org/2000/svg" xmlns:xlink="http://www.w3.org/1999/xlink">
<g id="graph0" class="graph" transform="scale(1 1) rotate(0) translate(32.8 681.5)">
<title>multiply</title>
<polygon fill="white" stroke="transparent" points="-4,4 -4,-652.7 891.46,-652.7 891.46,4 -4,4"/>
<text text-anchor="middle" x="443.73" y="-633.5" font-family="Times,serif" font-size="14.00">multiply</text>
<!-- /matrix_mult/multiply/a -->
<g id="node1" class="node">
<title>/matrix_mult/multiply/a</title>
<polygon fill="white" stroke="black" points="104.13,-613.26 77.13,-625.7 50.13,-613.26 50.15,-593.14 104.1,-593.14 104.13,-613.26"/>
<text text-anchor="middle" x="77.13" y="-604" font-family="Times,serif" font-size="14.00">a</text>
</g>
<!-- /matrix_mult/multiply/a_info -->
<g id="node5" class="node">
<title>/matrix_mult/multiply/a_info</title>
<g id="a_node5"><a xlink:href="../../flowstdlib/data/info/info.html" xlink:title="a_info\n(info)">
<ellipse fill="coral" stroke="black" cx="57.13" cy="-454.09" rx="36.12" ry="26.74"/>
<text text-anchor="middle" x="57.13" y="-457.89" font-family="Times,serif" font-size="14.00">a_info</text>
<text text-anchor="middle" x="57.13" y="-442.89" font-family="Times,serif" font-size="14.00">(info)</text>
</a>
</g>
</g>
<!-- /matrix_mult/multiply/a&#45;&gt;/matrix_mult/multiply/a_info -->
<g id="edge4" class="edge">
<title>/matrix_mult/multiply/a:s&#45;&gt;/matrix_mult/multiply/a_info:w</title>
<path fill="none" stroke="black" d="M77.13,-591.7C77.13,-529.51 -31.6,-462.72 10.12,-454.86"/>
<polygon fill="black" stroke="black" points="10.43,-458.35 20.13,-454.09 9.89,-451.37 10.43,-458.35"/>
</g>
<!-- /matrix_mult/multiply/duplicate_rows -->
<g id="node6" class="node">
<title>/matrix_mult/multiply/duplicate_rows</title>
<g id="a_node6"><a xlink:href="../../flowstdlib/data/duplicate_rows/duplicate_rows.html" xlink:title="duplicate_rows">
<ellipse fill="coral" stroke="black" cx="167.13" cy="-391.22" rx="64.19" ry="18"/>
<text text-anchor="middle" x="167.13" y="-387.52" font-family="Times,serif" font-size="14.00">duplicate_rows</text>
</a>
</g>
</g>
<!-- /matrix_mult/multiply/a&#45;&gt;/matrix_mult/multiply/duplicate_rows -->
<g id="edge5" class="edge">
<title>/matrix_mult/multiply/a:s&#45;&gt;/matrix_mult/multiply/duplicate_rows:w</title>
<path fill="none" stroke="black" d="M77.13,-591.7C77.13,-581.56 85.25,-581.43 88.13,-571.7 88.43,-570.67 96.81,-439.32 100.01,-401.38"/>
<polygon fill="black" stroke="black" points="103.52,-401.54 101.13,-391.22 96.56,-400.78 103.52,-401.54"/>
</g>
<!-- /matrix_mult/multiply/b -->
<g id="node2" class="node">
<title>/matrix_mult/multiply/b</title>
<polygon fill="white" stroke="black" points="283.13,-613.26 256.13,-625.7 229.13,-613.26 229.15,-593.14 283.1,-593.14 283.13,-613.26"/>
<text text-anchor="middle" x="256.13" y="-604" font-family="Times,serif" font-size="14.00">b</text>
</g>
<!-- /matrix_mult/multiply/b_info -->
<g id="node4" class="node">
<title>/matrix_mult/multiply/b_info</title>
<g id="a_node4"><a xlink:href="../../flowstdlib/data/info/info.html" xlink:title="b_info\n(info)">
<ellipse fill="coral" stroke="black" cx="248.13" cy="-525.83" rx="36.54" ry="26.74"/>
<text text-anchor="middle" x="248.13" y="-529.63" font-family="Times,serif" font-size="14.00">b_info</text>
<text text-anchor="middle" x="248.13" y="-514.63" font-family="Times,serif" font-size="14.00">(info)</text>
</a>
</g>
</g>
<!-- /matrix_mult/multiply/b&#45;&gt;/matrix_mult/multiply/b_info -->
<g id="edge3" class="edge">
<title>/matrix_mult/multiply/b:s&#45;&gt;/matrix_mult/multiply/b_info:w</title>
<path fill="none" stroke="black" d="M256.13,-591.7C256.13,-565.23 222.57,-576.57 211.13,-552.7 208.31,-546.81 204.7,-539.32 203.96,-533.75"/>
<polygon fill="black" stroke="black" points="206.75,-535.87 210.13,-525.83 201.22,-531.57 206.75,-535.87"/>
</g>
<!-- /matrix_mult/multiply/transpose -->
<g id="node7" class="node">
<title>/matrix_mult/multiply/transpose</title>
<g id="a_node7"><a xlink:href="../../flowstdlib/data/transpose/transpose.html" xlink:title="transpose">
<ellipse fill="coral" stroke="black" cx="347.13" cy="-525.83" rx="44.39" ry="18"/>
<text text-anchor="middle" x="347.13" y="-522.13" font-family="Times,serif" font-size="14.00">transpose</text>
</a>
</g>
</g>
<!-- /matrix_mult/multiply/b&#45;&gt;/matrix_mult/multiply/transpose -->
<g id="edge6" class="edge">
<title>/matrix_mult/multiply/b:s&#45;&gt;/matrix_mult/multiply/transpose:w</title>
<path fill="none" stroke="black" d="M256.13,-591.7C256.13,-567.5 282.24,-573.78 294.13,-552.7 297.35,-546.99 295.64,-539.76 295.18,-534.24"/>
<polygon fill="black" stroke="black" points="298.22,-536.02 301.13,-525.83 292.5,-531.98 298.22,-536.02"/>
</g>
<!-- /matrix_mult/multiply/product -->
<g id="node3" class="node">
<title>/matrix_mult/multiply/product</title>
<polygon fill="black" stroke="black" points="456.44,-12.44 503.13,0 549.82,-12.44 549.78,-32.56 456.48,-32.56 456.44,-12.44"/>
<text text-anchor="middle" x="503.13" y="-14.3" font-family="Times,serif" font-size="14.00" fill="white">product</text>
</g>
<!-- /matrix_mult/multiply/b_info&#45;&gt;/matrix_mult/multiply/duplicate_rows -->
<g id="edge9" class="edge">
<title>/matrix_mult/multiply/b_info:s&#45;&gt;/matrix_mult/multiply/duplicate_rows:w</title>
<path fill="none" stroke="black" d="M248.13,-498.96C248.13,-460.88 121.63,-441.93 102.13,-409.22 100.66,-406.75 99.08,-403.73 98.03,-400.87"/>
<polygon fill="black" stroke="black" points="101.41,-401.81 101.13,-391.22 94.74,-399.67 101.41,-401.81"/>
<text text-anchor="middle" x="149.72" y="-452.23" font-family="Times,serif" font-size="14.00">columns</text>
<text text-anchor="middle" x="85.13" y="-395.02" font-family="Times,serif" font-size="14.00">factor</text>
</g>
<!-- /matrix_mult/multiply/duplicate -->
<g id="node8" class="node">
<title>/matrix_mult/multiply/duplicate</title>
<g id="a_node8"><a xlink:href="../../flowstdlib/data/duplicate/duplicate.html" xlink:title="duplicate">
<ellipse fill="coral" stroke="black" cx="292.13" cy="-391.22" rx="42.79" ry="18"/>
<text text-anchor="middle" x="292.13" y="-387.52" font-family="Times,serif" font-size="14.00">duplicate</text>
</a>
</g>
</g>
<!-- /matrix_mult/multiply/b_info&#45;&gt;/matrix_mult/multiply/duplicate -->
<g id="edge8" class="edge">
<title>/matrix_mult/multiply/b_info:s&#45;&gt;/matrix_mult/multiply/duplicate:w</title>
<path fill="none" stroke="black" d="M248.13,-498.96C248.13,-489.28 240.3,-424.81 243.64,-400.49"/>
<polygon fill="black" stroke="black" points="246.92,-401.75 248.13,-391.22 240.62,-398.69 246.92,-401.75"/>
<text text-anchor="middle" x="220.42" y="-448.9" font-family="Times,serif" font-size="14.00">columns</text>
<text text-anchor="middle" x="248.13" y="-380.02" font-family="Times,serif" font-size="14.00">factor</text>
</g>
<!-- /matrix_mult/multiply/compose_rows -->
<g id="node10" class="node">
<title>/matrix_mult/multiply/compose_rows</title>
<g id="a_node10"><a xlink:href="../../flowstdlib/data/accumulate/accumulate.html" xlink:title="compose_rows\n(accumulate)">
<ellipse fill="coral" stroke="black" cx="375.13" cy="-204.61" rx="69.09" ry="26.74"/>
<text text-anchor="middle" x="375.13" y="-208.41" font-family="Times,serif" font-size="14.00">compose_rows</text>
<text text-anchor="middle" x="375.13" y="-193.41" font-family="Times,serif" font-size="14.00">(accumulate)</text>
</a>
</g>
</g>
<!-- /matrix_mult/multiply/b_info&#45;&gt;/matrix_mult/multiply/compose_rows -->
<g id="edge15" class="edge">
<title>/matrix_mult/multiply/b_info:s&#45;&gt;/matrix_mult/multiply/compose_rows:n</title>
<path fill="none" stroke="black" d="M248.13,-498.96C248.13,-484.36 337.18,-422.06 344.13,-409.22 380.64,-341.72 375.66,-314.07 375.17,-241.53"/>
<polygon fill="black" stroke="black" points="378.67,-241.47 375.13,-231.48 371.67,-241.49 378.67,-241.47"/>
<text text-anchor="middle" x="379.62" y="-389.07" font-family="Times,serif" font-size="14.00">columns</text>
<text text-anchor="middle" x="344.63" y="-235.28" font-family="Times,serif" font-size="14.00">chunk_size</text>
</g>
<!-- /matrix_mult/multiply/compose_matrix -->
<g id="node12" class="node">
<title>/matrix_mult/multiply/compose_matrix</title>
<g id="a_node12"><a xlink:href="../../flowstdlib/data/accumulate/accumulate.html" xlink:title="compose_matrix\n(accumulate)">
<ellipse fill="coral" stroke="black" cx="477.13" cy="-99.87" rx="76.24" ry="26.74"/>
<text text-anchor="middle" x="477.13" y="-103.67" font-family="Times,serif" font-size="14.00">compose_matrix</text>
<text text-anchor="middle" x="477.13" y="-88.67" font-family="Times,serif" font-size="14.00">(accumulate)</text>
</a>
</g>
</g>
<!-- /matrix_mult/multiply/a_info&#45;&gt;/matrix_mult/multiply/compose_matrix -->
<g id="edge19" class="edge">
<title>/matrix_mult/multiply/a_info:s&#45;&gt;/matrix_mult/multiply/compose_matrix:n</title>
<path fill="none" stroke="black" d="M57.13,-427.22C57.13,-394.78 69.13,-387.66 69.13,-355.22 69.13,-355.22 69.13,-355.22 69.13,-203.61 69.13,-193.11 407.11,-147.6 467.84,-130.81"/>
<polygon fill="black" stroke="black" points="469.38,-133.96 477.13,-126.74 466.57,-127.55 469.38,-133.96"/>
<text text-anchor="middle" x="232.18" y="-173.38" font-family="Times,serif" font-size="14.00">rows</text>
<text text-anchor="middle" x="446.63" y="-130.54" font-family="Times,serif" font-size="14.00">chunk_size</text>
</g>
<!-- /matrix_mult/multiply/multiply -->
<g id="node9" class="node">
<title>/matrix_mult/multiply/multiply</title>
<g id="a_node9"><a xlink:href="../../flowstdlib/data/multiply_row/multiply_row.html" xlink:title="multiply\n(multiply_row)">
<ellipse fill="coral" stroke="black" cx="266.13" cy="-309.35" rx="70.92" ry="26.74"/>
<text text-anchor="middle" x="266.13" y="-313.15" font-family="Times,serif" font-size="14.00">multiply</text>
<text text-anchor="middle" x="266.13" y="-298.15" font-family="Times,serif" font-size="14.00">(multiply_row)</text>
</a>
</g>
</g>
<!-- /matrix_mult/multiply/duplicate_rows&#45;&gt;/matrix_mult/multiply/multiply -->
<g id="edge10" class="edge">
<title>/matrix_mult/multiply/duplicate_rows:e&#45;&gt;/matrix_mult/multiply/multiply:w</title>
<path fill="none" stroke="black" d="M233.13,-391.22C241.14,-391.22 235.4,-380.53 232.13,-373.22 222.64,-351.99 204.43,-357.54 195.13,-336.22 192.59,-330.4 189.1,-323.18 188.17,-317.69"/>
<polygon fill="black" stroke="black" points="191.16,-319.52 194.13,-309.35 185.47,-315.45 191.16,-319.52"/>
<text text-anchor="middle" x="190.63" y="-313.15" font-family="Times,serif" font-size="14.00">a</text>
</g>
<!-- /matrix_mult/multiply/transpose&#45;&gt;/matrix_mult/multiply/duplicate -->
<g id="edge7" class="edge">
<title>/matrix_mult/multiply/transpose:e&#45;&gt;/matrix_mult/multiply/duplicate:n</title>
<path fill="none" stroke="black" d="M393.13,-525.83C401.14,-525.83 395.43,-515.13 392.13,-507.83 367.96,-454.27 300.67,-469.48 292.87,-419.37"/>
<polygon fill="black" stroke="black" points="296.35,-418.94 292.13,-409.22 289.37,-419.45 296.35,-418.94"/>
<text text-anchor="middle" x="277.13" y="-413.02" font-family="Times,serif" font-size="14.00">value</text>
</g>
<!-- /matrix_mult/multiply/duplicate&#45;&gt;/matrix_mult/multiply/multiply -->
<g id="edge11" class="edge">
<title>/matrix_mult/multiply/duplicate:e&#45;&gt;/matrix_mult/multiply/multiply:nw</title>
<path fill="none" stroke="black" d="M336.13,-391.22C344.14,-391.22 339.83,-379.71 335.13,-373.22 311.44,-340.55 229.18,-362.14 234.1,-344.62"/>
<polygon fill="black" stroke="black" points="237.14,-346.38 240.13,-336.22 231.45,-342.3 237.14,-346.38"/>
<text text-anchor="middle" x="236.63" y="-340.02" font-family="Times,serif" font-size="14.00">b</text>
</g>
<!-- /matrix_mult/multiply/multiply&#45;&gt;/matrix_mult/multiply/compose_rows -->
<g id="edge14" class="edge">
<title>/matrix_mult/multiply/multiply:e&#45;&gt;/matrix_mult/multiply/compose_rows:w</title>
<path fill="none" stroke="black" d="M338.13,-309.35C382.1,-309.35 280.11,-224.81 294.43,-207.63"/>
<polygon fill="black" stroke="black" points="295.62,-210.93 304.13,-204.61 293.54,-204.24 295.62,-210.93"/>
<text text-anchor="middle" x="286.63" y="-208.41" font-family="Times,serif" font-size="14.00">values</text>
</g>
<!-- /matrix_mult/multiply/compose_rows&#45;&gt;/matrix_mult/multiply/compose_rows -->
<g id="edge12" class="edge">
<title>/matrix_mult/multiply/compose_rows:s&#45;&gt;/matrix_mult/multiply/compose_rows:n</title>
<path fill="none" stroke="black" d="M375.13,-177.61C404.23,-171.11 462.43,-171.11 462.43,-204.61 462.43,-234.58 415.86,-237.74 385.21,-233.42"/>
<polygon fill="black" stroke="black" points="385.59,-229.93 375.13,-231.61 384.35,-236.82 385.59,-229.93"/>
<text text-anchor="middle" x="392.65" y="-166.41" font-family="Times,serif" font-size="14.00">partial</text>
<text text-anchor="middle" x="392.63" y="-235.41" font-family="Times,serif" font-size="14.00">partial</text>
</g>
<!-- /matrix_mult/multiply/compose_rows&#45;&gt;/matrix_mult/multiply/compose_rows -->
<g id="edge13" class="edge">
<title>/matrix_mult/multiply/compose_rows:s&#45;&gt;/matrix_mult/multiply/compose_rows:n</title>
<path fill="none" stroke="black" d="M375.13,-177.61C410.23,-164.61 480.43,-164.61 480.43,-204.61 480.43,-241.17 421.78,-244.31 384.89,-234.66"/>
<polygon fill="black" stroke="black" points="385.72,-231.25 375.13,-231.61 383.63,-237.93 385.72,-231.25"/>
<text text-anchor="middle" x="344.64" y="-166.41" font-family="Times,serif" font-size="14.00">chunk_size</text>
<text text-anchor="middle" x="405.63" y="-235.41" font-family="Times,serif" font-size="14.00">chunk_size</text>
</g>
<!-- /matrix_mult/multiply/compose_rows&#45;&gt;/matrix_mult/multiply/compose_matrix -->
<g id="edge18" class="edge">
<title>/matrix_mult/multiply/compose_rows:se&#45;&gt;/matrix_mult/multiply/compose_matrix:w</title>
<path fill="none" stroke="black" d="M400.13,-178.61C421.4,-157.34 379.53,-114.48 389.54,-102.84"/>
<polygon fill="black" stroke="black" points="390.61,-106.17 399.13,-99.87 388.54,-99.49 390.61,-106.17"/>
<text text-anchor="middle" x="382.02" y="-140.83" font-family="Times,serif" font-size="14.00">chunk</text>
<text text-anchor="middle" x="381.63" y="-103.67" font-family="Times,serif" font-size="14.00">values</text>
</g>
<!-- initializer/matrix_mult/multiply/compose_rows_1 -->
<!-- initializer/matrix_mult/multiply/compose_rows_1&#45;&gt;/matrix_mult/multiply/compose_rows -->
<g id="edge1" class="edge">
<title>initializer/matrix_mult/multiply/compose_rows_1&#45;&gt;/matrix_mult/multiply/compose_rows:n</title>
<path fill="none" stroke="blue" stroke-dasharray="1,5" d="M498.53,-293.14C448.16,-281.71 391.01,-264.12 377.9,-241.24"/>
<polygon fill="blue" stroke="blue" points="381.23,-240.14 375.13,-231.48 374.5,-242.06 381.23,-240.14"/>
<text text-anchor="middle" x="410.13" y="-253.28" font-family="Times,serif" font-size="14.00">[]</text>
</g>
<!-- /matrix_mult/multiply/compose_matrix&#45;&gt;/matrix_mult/multiply/product -->
<g id="edge20" class="edge">
<title>/matrix_mult/multiply/compose_matrix:se&#45;&gt;/matrix_mult/multiply/product:n</title>
<path fill="none" stroke="black" d="M503.13,-73C512.8,-63.33 507.21,-55.43 504.42,-44.01"/>
<polygon fill="black" stroke="black" points="507.88,-43.47 503.13,-34 500.94,-44.37 507.88,-43.47"/>
<text text-anchor="middle" x="489.9" y="-56.27" font-family="Times,serif" font-size="14.00">chunk</text>
</g>
<!-- /matrix_mult/multiply/compose_matrix&#45;&gt;/matrix_mult/multiply/compose_matrix -->
<g id="edge16" class="edge">
<title>/matrix_mult/multiply/compose_matrix:s&#45;&gt;/matrix_mult/multiply/compose_matrix:n</title>
<path fill="none" stroke="black" d="M477.13,-72.87C508.59,-67.37 571.5,-67.37 571.5,-99.87 571.5,-129.2 520.27,-132.06 487.16,-128.3"/>
<polygon fill="black" stroke="black" points="487.52,-124.82 477.13,-126.87 486.54,-131.75 487.52,-124.82"/>
<text text-anchor="middle" x="459.68" y="-61.66" font-family="Times,serif" font-size="14.00">partial</text>
<text text-anchor="middle" x="494.63" y="-130.67" font-family="Times,serif" font-size="14.00">partial</text>
</g>
<!-- /matrix_mult/multiply/compose_matrix&#45;&gt;/matrix_mult/multiply/compose_matrix -->
<g id="edge17" class="edge">
<title>/matrix_mult/multiply/compose_matrix:s&#45;&gt;/matrix_mult/multiply/compose_matrix:n</title>
<path fill="none" stroke="black" d="M477.13,-72.87C514.59,-61.87 589.5,-61.87 589.5,-99.87 589.5,-134.75 526.37,-137.61 487.04,-129.34"/>
<polygon fill="black" stroke="black" points="487.68,-125.89 477.13,-126.87 485.99,-132.68 487.68,-125.89"/>
<text text-anchor="middle" x="507.66" y="-61.66" font-family="Times,serif" font-size="14.00">chunk_size</text>
<text text-anchor="middle" x="507.63" y="-130.67" font-family="Times,serif" font-size="14.00">chunk_size</text>
</g>
<!-- initializer/matrix_mult/multiply/compose_matrix_1 -->
<!-- initializer/matrix_mult/multiply/compose_matrix_1&#45;&gt;/matrix_mult/multiply/compose_matrix -->
<g id="edge2" class="edge">
<title>initializer/matrix_mult/multiply/compose_matrix_1&#45;&gt;/matrix_mult/multiply/compose_matrix:n</title>
<path fill="none" stroke="blue" stroke-dasharray="1,5" d="M604.03,-188.54C551.5,-177.34 492.82,-159.93 479.79,-136.42"/>
<polygon fill="blue" stroke="blue" points="483.15,-135.46 477.13,-126.74 476.4,-137.31 483.15,-135.46"/>
<text text-anchor="middle" x="514.13" y="-148.54" font-family="Times,serif" font-size="14.00">[]</text>
</g>
</g>
</svg>
