<?xml version="1.0" encoding="UTF-8" standalone="no"?>
<!DOCTYPE svg PUBLIC "-//W3C//DTD SVG 1.1//EN"
 "http://www.w3.org/Graphics/SVG/1.1/DTD/svg11.dtd">
<!-- Generated by graphviz version 2.42.4 (0)
 -->
<!-- Title: multiply Pages: 1 -->
<svg width="1455pt" height="761pt"
 viewBox="28.80 28.80 1426.48 732.50" xmlns="http://www.w3.org/2000/svg" xmlns:xlink="http://www.w3.org/1999/xlink">
<g id="graph0" class="graph" transform="scale(1 1) rotate(0) translate(32.8 728.5)">
<title>multiply</title>
<polygon fill="white" stroke="transparent" points="-4,4 -4,-699.7 1393.68,-699.7 1393.68,4 -4,4"/>
<text text-anchor="middle" x="694.84" y="-680.5" font-family="Times,serif" font-size="14.00">multiply</text>
<!-- /matrix_mult/multiply/a -->
<g id="node1" class="node">
<title>/matrix_mult/multiply/a</title>
<polygon fill="white" stroke="black" points="243.66,-660.26 216.66,-672.7 189.66,-660.26 189.68,-640.14 243.63,-640.14 243.66,-660.26"/>
<text text-anchor="middle" x="216.66" y="-651" font-family="Times,serif" font-size="14.00">a</text>
</g>
<!-- /matrix_mult/multiply/a_info -->
<g id="node6" class="node">
<title>/matrix_mult/multiply/a_info</title>
<g id="a_node6"><a xlink:href="../../flowstdlib/data/info/info.html" xlink:title="a_info\n(Info)">
<ellipse fill="coral" stroke="black" cx="258.66" cy="-504.83" rx="41.94" ry="26.74"/>
<text text-anchor="middle" x="258.66" y="-508.63" font-family="Times,serif" font-size="14.00">a_info</text>
<text text-anchor="middle" x="258.66" y="-493.63" font-family="Times,serif" font-size="14.00">(Info)</text>
</a>
</g>
</g>
<!-- /matrix_mult/multiply/a&#45;&gt;/matrix_mult/multiply/a_info -->
<g id="edge8" class="edge">
<title>/matrix_mult/multiply/a:s&#45;&gt;/matrix_mult/multiply/a_info:w</title>
<path fill="none" stroke="black" d="M216.66,-638.7C216.66,-594.7 49.16,-651.35 19.66,-618.7 -34.91,-558.31 25.91,-506.73 205.61,-504.88"/>
<polygon fill="black" stroke="black" points="205.67,-508.38 215.66,-504.83 205.64,-501.38 205.67,-508.38"/>
</g>
<!-- /matrix_mult/multiply/duplicate_rows -->
<g id="node8" class="node">
<title>/matrix_mult/multiply/duplicate_rows</title>
<g id="a_node8"><a xlink:href="../../flowstdlib/data/duplicate_rows/duplicate_rows.html" xlink:title="duplicate_rows\n(DuplicateRows)">
<ellipse fill="coral" stroke="black" cx="649.66" cy="-400.09" rx="94.51" ry="26.74"/>
<text text-anchor="middle" x="649.66" y="-403.89" font-family="Times,serif" font-size="14.00">duplicate_rows</text>
<text text-anchor="middle" x="649.66" y="-388.89" font-family="Times,serif" font-size="14.00">(DuplicateRows)</text>
</a>
</g>
</g>
<!-- /matrix_mult/multiply/a&#45;&gt;/matrix_mult/multiply/duplicate_rows -->
<g id="edge9" class="edge">
<title>/matrix_mult/multiply/a:s&#45;&gt;/matrix_mult/multiply/duplicate_rows:w</title>
<path fill="none" stroke="black" d="M216.66,-638.7C216.66,-594.7 381.1,-648.3 413.66,-618.7 460.85,-575.8 406.71,-531.31 441.66,-477.96 472.92,-430.21 490.85,-403.35 543.42,-400.37"/>
<polygon fill="black" stroke="black" points="543.75,-403.86 553.66,-400.09 543.56,-396.86 543.75,-403.86"/>
</g>
<!-- /matrix_mult/multiply/b -->
<g id="node2" class="node">
<title>/matrix_mult/multiply/b</title>
<polygon fill="white" stroke="black" points="1164.66,-660.26 1137.66,-672.7 1110.66,-660.26 1110.68,-640.14 1164.63,-640.14 1164.66,-660.26"/>
<text text-anchor="middle" x="1137.66" y="-651" font-family="Times,serif" font-size="14.00">b</text>
</g>
<!-- /matrix_mult/multiply/b_info -->
<g id="node4" class="node">
<title>/matrix_mult/multiply/b_info</title>
<g id="a_node4"><a xlink:href="../../flowstdlib/data/info/info.html" xlink:title="b_info\n(Info)">
<ellipse fill="coral" stroke="black" cx="1179.66" cy="-504.83" rx="41.94" ry="26.74"/>
<text text-anchor="middle" x="1179.66" y="-508.63" font-family="Times,serif" font-size="14.00">b_info</text>
<text text-anchor="middle" x="1179.66" y="-493.63" font-family="Times,serif" font-size="14.00">(Info)</text>
</a>
</g>
</g>
<!-- /matrix_mult/multiply/b&#45;&gt;/matrix_mult/multiply/b_info -->
<g id="edge7" class="edge">
<title>/matrix_mult/multiply/b:s&#45;&gt;/matrix_mult/multiply/b_info:w</title>
<path fill="none" stroke="black" d="M1137.66,-638.7C1137.66,-594.48 1306,-651.51 1335.66,-618.7 1346.39,-606.83 1345.43,-595.37 1335.66,-582.7 1300.29,-536.87 1265.74,-564.05 1209.66,-549.7 1177.7,-541.52 1158.43,-557.32 1137.66,-531.7 1133.3,-526.33 1129.65,-518.19 1129.66,-512.28"/>
<polygon fill="black" stroke="black" points="1132.36,-514.52 1136.66,-504.83 1127.26,-509.72 1132.36,-514.52"/>
</g>
<!-- /matrix_mult/multiply/transpose -->
<g id="node10" class="node">
<title>/matrix_mult/multiply/transpose</title>
<g id="a_node10"><a xlink:href="../../flowstdlib/data/transpose/transpose.html" xlink:title="transpose\n(Transpose)">
<ellipse fill="coral" stroke="black" cx="997.66" cy="-504.83" rx="71.34" ry="26.74"/>
<text text-anchor="middle" x="997.66" y="-508.63" font-family="Times,serif" font-size="14.00">transpose</text>
<text text-anchor="middle" x="997.66" y="-493.63" font-family="Times,serif" font-size="14.00">(Transpose)</text>
</a>
</g>
</g>
<!-- /matrix_mult/multiply/b&#45;&gt;/matrix_mult/multiply/transpose -->
<g id="edge10" class="edge">
<title>/matrix_mult/multiply/b:s&#45;&gt;/matrix_mult/multiply/transpose:w</title>
<path fill="none" stroke="black" d="M1137.66,-638.7C1137.66,-594.48 971.83,-649.04 939.66,-618.7 935.88,-615.14 924.13,-542.19 923.27,-514.96"/>
<polygon fill="black" stroke="black" points="926.77,-515.21 924.66,-504.83 919.83,-514.27 926.77,-515.21"/>
</g>
<!-- /matrix_mult/multiply/product -->
<g id="node3" class="node">
<title>/matrix_mult/multiply/product</title>
<polygon fill="black" stroke="black" points="413.97,-12.44 471.66,0 529.34,-12.44 529.29,-32.56 414.02,-32.56 413.97,-12.44"/>
<text text-anchor="middle" x="471.66" y="-14.3" font-family="Times,serif" font-size="14.00" fill="white">product</text>
</g>
<!-- /matrix_mult/multiply/b_info&#45;&gt;/matrix_mult/multiply/duplicate_rows -->
<g id="edge13" class="edge">
<title>/matrix_mult/multiply/b_info:s&#45;&gt;/matrix_mult/multiply/duplicate_rows:w</title>
<path fill="none" stroke="black" d="M1179.66,-477.96C1179.66,-443.12 578.74,-452.13 554.66,-426.96 549.75,-421.83 546.1,-413.32 546.45,-407.25"/>
<polygon fill="black" stroke="black" points="549.03,-409.62 553.66,-400.09 544.1,-404.66 549.03,-409.62"/>
<text text-anchor="middle" x="836.31" y="-452.3" font-family="Times,serif" font-size="14.00">columns</text>
<text text-anchor="middle" x="532.16" y="-403.89" font-family="Times,serif" font-size="14.00">factor</text>
</g>
<!-- /matrix_mult/multiply/duplicate -->
<g id="node12" class="node">
<title>/matrix_mult/multiply/duplicate</title>
<g id="a_node12"><a xlink:href="../../flowstdlib/data/duplicate/duplicate.html" xlink:title="duplicate\n(Duplicate)">
<ellipse fill="coral" stroke="black" cx="1067.66" cy="-400.09" rx="67.35" ry="26.74"/>
<text text-anchor="middle" x="1067.66" y="-403.89" font-family="Times,serif" font-size="14.00">duplicate</text>
<text text-anchor="middle" x="1067.66" y="-388.89" font-family="Times,serif" font-size="14.00">(Duplicate)</text>
</a>
</g>
</g>
<!-- /matrix_mult/multiply/b_info&#45;&gt;/matrix_mult/multiply/duplicate -->
<g id="edge12" class="edge">
<title>/matrix_mult/multiply/b_info:s&#45;&gt;/matrix_mult/multiply/duplicate:w</title>
<path fill="none" stroke="black" d="M1179.66,-477.96C1179.66,-462.74 1134.07,-449.84 1119.66,-444.96 1094.32,-436.38 1018.47,-446.91 1000.66,-426.96 995.93,-421.67 992.25,-413.19 992.54,-407.17"/>
<polygon fill="black" stroke="black" points="995.04,-409.63 999.66,-400.09 990.1,-404.66 995.04,-409.63"/>
<text text-anchor="middle" x="1062.94" y="-445.14" font-family="Times,serif" font-size="14.00">columns</text>
<text text-anchor="middle" x="978.16" y="-403.89" font-family="Times,serif" font-size="14.00">factor</text>
</g>
<!-- /matrix_mult/multiply/compose_rows -->
<g id="node14" class="node">
<title>/matrix_mult/multiply/compose_rows</title>
<g id="a_node14"><a xlink:href="../../flowstdlib/data/accumulate/accumulate.html" xlink:title="compose_rows\n(Accumulate)">
<ellipse fill="coral" stroke="black" cx="773.66" cy="-204.61" rx="84.71" ry="26.74"/>
<text text-anchor="middle" x="773.66" y="-208.41" font-family="Times,serif" font-size="14.00">compose_rows</text>
<text text-anchor="middle" x="773.66" y="-193.41" font-family="Times,serif" font-size="14.00">(Accumulate)</text>
</a>
</g>
</g>
<!-- /matrix_mult/multiply/b_info&#45;&gt;/matrix_mult/multiply/compose_rows -->
<g id="edge19" class="edge">
<title>/matrix_mult/multiply/b_info:s&#45;&gt;/matrix_mult/multiply/compose_rows:n</title>
<path fill="none" stroke="black" d="M1179.66,-477.96C1179.66,-390.92 1227.09,-346.07 1167.66,-282.48 1139.69,-252.56 824.5,-272.25 779.09,-240.01"/>
<polygon fill="black" stroke="black" points="781.98,-238.03 773.66,-231.48 776.08,-241.79 781.98,-238.03"/>
<text text-anchor="middle" x="950.17" y="-265.93" font-family="Times,serif" font-size="14.00">columns</text>
<text text-anchor="middle" x="734.66" y="-235.28" font-family="Times,serif" font-size="14.00">chunk_size</text>
</g>
<!-- initializer/matrix_mult/multiply/b_info_0 -->
<!-- initializer/matrix_mult/multiply/b_info_0&#45;&gt;/matrix_mult/multiply/b_info -->
<g id="edge1" class="edge">
<title>initializer/matrix_mult/multiply/b_info_0&#45;&gt;/matrix_mult/multiply/b_info:w</title>
<path fill="none" stroke="blue" stroke-dasharray="1,5" d="M1130.6,-582.3C1121.78,-558.55 1109.77,-517.73 1126.72,-507.31"/>
<polygon fill="blue" stroke="blue" points="1127.8,-510.65 1136.66,-504.83 1126.11,-503.86 1127.8,-510.65"/>
<text text-anchor="middle" x="1164.66" y="-553.5" font-family="Times,serif" font-size="14.00">[[5,6],[7,8]]</text>
</g>
<!-- /matrix_mult/multiply/compose_matrix -->
<g id="node16" class="node">
<title>/matrix_mult/multiply/compose_matrix</title>
<g id="a_node16"><a xlink:href="../../flowstdlib/data/accumulate/accumulate.html" xlink:title="compose_matrix\n(Accumulate)">
<ellipse fill="coral" stroke="black" cx="445.66" cy="-99.87" rx="94.09" ry="26.74"/>
<text text-anchor="middle" x="445.66" y="-103.67" font-family="Times,serif" font-size="14.00">compose_matrix</text>
<text text-anchor="middle" x="445.66" y="-88.67" font-family="Times,serif" font-size="14.00">(Accumulate)</text>
</a>
</g>
</g>
<!-- /matrix_mult/multiply/a_info&#45;&gt;/matrix_mult/multiply/compose_matrix -->
<g id="edge23" class="edge">
<title>/matrix_mult/multiply/a_info:s&#45;&gt;/matrix_mult/multiply/compose_matrix:n</title>
<path fill="none" stroke="black" d="M258.66,-477.96C258.66,-410.45 389.66,-468.6 389.66,-401.09 389.66,-401.09 389.66,-401.09 389.66,-203.61 389.66,-165.14 436.04,-168.03 444.38,-137"/>
<polygon fill="black" stroke="black" points="447.89,-137.1 445.66,-126.74 440.95,-136.23 447.89,-137.1"/>
<text text-anchor="middle" x="372.16" y="-380.21" font-family="Times,serif" font-size="14.00">rows</text>
<text text-anchor="middle" x="406.66" y="-130.54" font-family="Times,serif" font-size="14.00">chunk_size</text>
</g>
<!-- initializer/matrix_mult/multiply/a_info_0 -->
<!-- initializer/matrix_mult/multiply/a_info_0&#45;&gt;/matrix_mult/multiply/a_info -->
<g id="edge2" class="edge">
<title>initializer/matrix_mult/multiply/a_info_0&#45;&gt;/matrix_mult/multiply/a_info:w</title>
<path fill="none" stroke="blue" stroke-dasharray="1,5" d="M209.6,-582.3C200.78,-558.55 188.77,-517.73 205.72,-507.31"/>
<polygon fill="blue" stroke="blue" points="206.8,-510.65 215.66,-504.83 205.11,-503.86 206.8,-510.65"/>
<text text-anchor="middle" x="243.66" y="-553.5" font-family="Times,serif" font-size="14.00">[[1,2],[3,4]]</text>
</g>
<!-- /matrix_mult/multiply/multiply -->
<g id="node13" class="node">
<title>/matrix_mult/multiply/multiply</title>
<g id="a_node13"><a xlink:href="../../flowstdlib/data/multiply_row/multiply_row.html" xlink:title="multiply\n(MultiplyRow)">
<ellipse fill="coral" stroke="black" cx="604.66" cy="-309.35" rx="83.38" ry="26.74"/>
<text text-anchor="middle" x="604.66" y="-313.15" font-family="Times,serif" font-size="14.00">multiply</text>
<text text-anchor="middle" x="604.66" y="-298.15" font-family="Times,serif" font-size="14.00">(MultiplyRow)</text>
</a>
</g>
</g>
<!-- /matrix_mult/multiply/duplicate_rows&#45;&gt;/matrix_mult/multiply/multiply -->
<g id="edge14" class="edge">
<title>/matrix_mult/multiply/duplicate_rows:e&#45;&gt;/matrix_mult/multiply/multiply:w</title>
<path fill="none" stroke="black" d="M745.66,-400.09C757.61,-400.09 752.55,-382.19 744.66,-373.22 677.96,-297.5 587.35,-411.94 520.66,-336.22 515.96,-330.9 512.28,-322.42 512.56,-316.41"/>
<polygon fill="black" stroke="black" points="515.04,-318.89 519.66,-309.35 510.1,-313.93 515.04,-318.89"/>
<text text-anchor="middle" x="515.16" y="-313.15" font-family="Times,serif" font-size="14.00">a</text>
</g>
<!-- initializer/matrix_mult/multiply/duplicate_rows_0 -->
<!-- initializer/matrix_mult/multiply/duplicate_rows_0&#45;&gt;/matrix_mult/multiply/duplicate_rows -->
<g id="edge3" class="edge">
<title>initializer/matrix_mult/multiply/duplicate_rows_0&#45;&gt;/matrix_mult/multiply/duplicate_rows:w</title>
<path fill="none" stroke="blue" stroke-dasharray="1,5" d="M650.1,-486.93C600.83,-459.83 514.13,-408.9 543.57,-401.1"/>
<polygon fill="blue" stroke="blue" points="544.05,-404.57 553.66,-400.09 543.36,-397.61 544.05,-404.57"/>
<text text-anchor="middle" x="640.66" y="-448.76" font-family="Times,serif" font-size="14.00">[[1,2],[3,4]]</text>
</g>
<!-- /matrix_mult/multiply/transpose&#45;&gt;/matrix_mult/multiply/duplicate -->
<g id="edge11" class="edge">
<title>/matrix_mult/multiply/transpose:e&#45;&gt;/matrix_mult/multiply/duplicate:n</title>
<path fill="none" stroke="black" d="M1070.66,-504.83C1101.91,-504.83 1074.32,-469.63 1068.63,-437.31"/>
<polygon fill="black" stroke="black" points="1072.08,-436.59 1067.66,-426.96 1065.11,-437.24 1072.08,-436.59"/>
<text text-anchor="middle" x="1048.16" y="-430.76" font-family="Times,serif" font-size="14.00">value</text>
</g>
<!-- initializer/matrix_mult/multiply/transpose_0 -->
<!-- initializer/matrix_mult/multiply/transpose_0&#45;&gt;/matrix_mult/multiply/transpose -->
<g id="edge4" class="edge">
<title>initializer/matrix_mult/multiply/transpose_0&#45;&gt;/matrix_mult/multiply/transpose:w</title>
<path fill="none" stroke="blue" stroke-dasharray="1,5" d="M735.24,-582.95C761.62,-572.28 797.27,-558.81 829.66,-549.7 870.18,-538.3 894.68,-563.16 922.66,-531.7 923.79,-530.42 923.31,-521.86 923.24,-514.74"/>
<polygon fill="blue" stroke="blue" points="926.7,-515.23 924.66,-504.83 919.78,-514.23 926.7,-515.23"/>
<text text-anchor="middle" x="870.66" y="-553.5" font-family="Times,serif" font-size="14.00">[[5,6],[7,8]]</text>
</g>
<!-- /matrix_mult/multiply/duplicate&#45;&gt;/matrix_mult/multiply/multiply -->
<g id="edge15" class="edge">
<title>/matrix_mult/multiply/duplicate:e&#45;&gt;/matrix_mult/multiply/multiply:nw</title>
<path fill="none" stroke="black" d="M1135.66,-400.09C1147.61,-400.09 1142.98,-381.79 1134.66,-373.22 1115.15,-353.14 658.35,-357.02 587.28,-341.76"/>
<polygon fill="black" stroke="black" points="588.96,-338.68 578.66,-336.22 585.18,-344.57 588.96,-338.68"/>
<text text-anchor="middle" x="573.66" y="-340.02" font-family="Times,serif" font-size="14.00">b</text>
</g>
<!-- /matrix_mult/multiply/multiply&#45;&gt;/matrix_mult/multiply/compose_rows -->
<g id="edge18" class="edge">
<title>/matrix_mult/multiply/multiply:e&#45;&gt;/matrix_mult/multiply/compose_rows:w</title>
<path fill="none" stroke="black" d="M689.66,-309.35C694.36,-309.35 686.34,-240.87 686.18,-214.65"/>
<polygon fill="black" stroke="black" points="689.66,-215.01 687.66,-204.61 682.74,-213.99 689.66,-215.01"/>
<text text-anchor="middle" x="664.66" y="-208.41" font-family="Times,serif" font-size="14.00">values</text>
</g>
<!-- /matrix_mult/multiply/compose_rows&#45;&gt;/matrix_mult/multiply/compose_rows -->
<g id="edge16" class="edge">
<title>/matrix_mult/multiply/compose_rows:s&#45;&gt;/matrix_mult/multiply/compose_rows:n</title>
<path fill="none" stroke="black" d="M773.66,-177.61C807.94,-171.11 876.51,-171.11 876.51,-204.61 876.51,-235.1 819.71,-237.84 783.65,-233.19"/>
<polygon fill="black" stroke="black" points="784.08,-229.71 773.66,-231.61 782.99,-236.62 784.08,-229.71"/>
<text text-anchor="middle" x="797.68" y="-166.41" font-family="Times,serif" font-size="14.00">partial</text>
<text text-anchor="middle" x="797.66" y="-235.41" font-family="Times,serif" font-size="14.00">partial</text>
</g>
<!-- /matrix_mult/multiply/compose_rows&#45;&gt;/matrix_mult/multiply/compose_rows -->
<g id="edge17" class="edge">
<title>/matrix_mult/multiply/compose_rows:s&#45;&gt;/matrix_mult/multiply/compose_rows:n</title>
<path fill="none" stroke="black" d="M773.66,-177.61C813.94,-164.61 894.51,-164.61 894.51,-204.61 894.51,-241.56 825.75,-244.38 783.51,-234.34"/>
<polygon fill="black" stroke="black" points="784.23,-230.91 773.66,-231.61 782.36,-237.66 784.23,-230.91"/>
<text text-anchor="middle" x="734.67" y="-166.41" font-family="Times,serif" font-size="14.00">chunk_size</text>
<text text-anchor="middle" x="812.66" y="-235.41" font-family="Times,serif" font-size="14.00">chunk_size</text>
</g>
<!-- /matrix_mult/multiply/compose_rows&#45;&gt;/matrix_mult/multiply/compose_matrix -->
<g id="edge22" class="edge">
<title>/matrix_mult/multiply/compose_rows:se&#45;&gt;/matrix_mult/multiply/compose_matrix:w</title>
<path fill="none" stroke="black" d="M799.66,-177.74C941.36,-36.04 487.86,-273.73 351.66,-126.74 346.83,-121.54 343.17,-113.04 343.49,-106.99"/>
<polygon fill="black" stroke="black" points="346.03,-109.4 350.66,-99.87 341.1,-104.44 346.03,-109.4"/>
<text text-anchor="middle" x="557.95" y="-175.39" font-family="Times,serif" font-size="14.00">chunk</text>
<text text-anchor="middle" x="327.66" y="-103.67" font-family="Times,serif" font-size="14.00">values</text>
</g>
<!-- initializer/matrix_mult/multiply/compose_rows_1 -->
<!-- initializer/matrix_mult/multiply/compose_rows_1&#45;&gt;/matrix_mult/multiply/compose_rows -->
<g id="edge5" class="edge">
<title>initializer/matrix_mult/multiply/compose_rows_1&#45;&gt;/matrix_mult/multiply/compose_rows:n</title>
<path fill="none" stroke="blue" stroke-dasharray="1,5" d="M831.3,-292.91C803.56,-283.18 779.51,-267.32 774.58,-241.47"/>
<polygon fill="blue" stroke="blue" points="778.06,-241.12 773.66,-231.48 771.09,-241.76 778.06,-241.12"/>
<text text-anchor="middle" x="789.16" y="-253.28" font-family="Times,serif" font-size="14.00">[]</text>
</g>
<!-- /matrix_mult/multiply/compose_matrix&#45;&gt;/matrix_mult/multiply/product -->
<g id="edge24" class="edge">
<title>/matrix_mult/multiply/compose_matrix:se&#45;&gt;/matrix_mult/multiply/product:n</title>
<path fill="none" stroke="black" d="M471.66,-73C481.33,-63.33 475.74,-55.43 472.95,-44.01"/>
<polygon fill="black" stroke="black" points="476.41,-43.47 471.66,-34 469.46,-44.37 476.41,-43.47"/>
<text text-anchor="middle" x="453.92" y="-56.27" font-family="Times,serif" font-size="14.00">chunk</text>
</g>
<!-- /matrix_mult/multiply/compose_matrix&#45;&gt;/matrix_mult/multiply/compose_matrix -->
<g id="edge20" class="edge">
<title>/matrix_mult/multiply/compose_matrix:s&#45;&gt;/matrix_mult/multiply/compose_matrix:n</title>
<path fill="none" stroke="black" d="M445.66,-72.87C483,-67.37 557.7,-67.37 557.7,-99.87 557.7,-129.64 495.02,-132.14 455.79,-128.12"/>
<polygon fill="black" stroke="black" points="456.01,-124.62 445.66,-126.87 455.15,-131.57 456.01,-124.62"/>
<text text-anchor="middle" x="421.71" y="-61.66" font-family="Times,serif" font-size="14.00">partial</text>
<text text-anchor="middle" x="469.66" y="-130.67" font-family="Times,serif" font-size="14.00">partial</text>
</g>
<!-- /matrix_mult/multiply/compose_matrix&#45;&gt;/matrix_mult/multiply/compose_matrix -->
<g id="edge21" class="edge">
<title>/matrix_mult/multiply/compose_matrix:s&#45;&gt;/matrix_mult/multiply/compose_matrix:n</title>
<path fill="none" stroke="black" d="M445.66,-72.87C489,-61.87 575.7,-61.87 575.7,-99.87 575.7,-135.12 501.08,-137.67 455.68,-129.07"/>
<polygon fill="black" stroke="black" points="456.17,-125.6 445.66,-126.87 454.67,-132.43 456.17,-125.6"/>
<text text-anchor="middle" x="484.69" y="-61.66" font-family="Times,serif" font-size="14.00">chunk_size</text>
<text text-anchor="middle" x="484.66" y="-130.67" font-family="Times,serif" font-size="14.00">chunk_size</text>
</g>
<!-- initializer/matrix_mult/multiply/compose_matrix_1 -->
<!-- initializer/matrix_mult/multiply/compose_matrix_1&#45;&gt;/matrix_mult/multiply/compose_matrix -->
<g id="edge6" class="edge">
<title>initializer/matrix_mult/multiply/compose_matrix_1&#45;&gt;/matrix_mult/multiply/compose_matrix:n</title>
<path fill="none" stroke="blue" stroke-dasharray="1,5" d="M1009.47,-189.58C826.11,-170.44 514.59,-137.53 455.49,-128.71"/>
<polygon fill="blue" stroke="blue" points="456.15,-125.27 445.66,-126.74 454.77,-132.14 456.15,-125.27"/>
<text text-anchor="middle" x="717.16" y="-148.54" font-family="Times,serif" font-size="14.00">[]</text>
</g>
</g>
</svg>
