<?xml version="1.0" encoding="UTF-8" standalone="no"?>
<!DOCTYPE svg PUBLIC "-//W3C//DTD SVG 1.1//EN"
 "http://www.w3.org/Graphics/SVG/1.1/DTD/svg11.dtd">
<!-- Generated by graphviz version 2.40.1 (20161225.0304)
 -->
<!-- Title: multiply Pages: 1 -->
<svg width="1148pt" height="714pt"
 viewBox="28.80 28.80 1119.27 685.50" xmlns="http://www.w3.org/2000/svg" xmlns:xlink="http://www.w3.org/1999/xlink">
<g id="graph0" class="graph" transform="scale(1 1) rotate(0) translate(32.8 681.5006)">
<title>multiply</title>
<polygon fill="#ffffff" stroke="transparent" points="-4,4 -4,-652.7006 1086.4747,-652.7006 1086.4747,4 -4,4"/>
<text text-anchor="middle" x="541.2374" y="-633.5006" font-family="Times,serif" font-size="14.00" fill="#000000">multiply</text>
<!-- /matrix_mult/multiply/a -->
<g id="node1" class="node">
<title>/matrix_mult/multiply/a</title>
<polygon fill="#ffffff" stroke="#000000" points="126.4966,-613.2629 99.4966,-625.7006 72.4966,-613.2629 72.5218,-593.1383 126.4714,-593.1383 126.4966,-613.2629"/>
<text text-anchor="middle" x="99.4966" y="-604.0006" font-family="Times,serif" font-size="14.00" fill="#000000">a</text>
</g>
<!-- /matrix_mult/multiply/a_info -->
<g id="node5" class="node">
<title>/matrix_mult/multiply/a_info</title>
<g id="a_node5"><a xlink:href="../../flowstdlib/data/info/info.html" xlink:title="a_info\n(info)">
<ellipse fill="#ff7f50" stroke="#000000" cx="61.4966" cy="-454.0904" rx="41.9398" ry="26.7407"/>
<text text-anchor="middle" x="61.4966" y="-457.8904" font-family="Times,serif" font-size="14.00" fill="#000000">a_info</text>
<text text-anchor="middle" x="61.4966" y="-442.8904" font-family="Times,serif" font-size="14.00" fill="#000000">(info)</text>
</a>
</g>
</g>
<!-- /matrix_mult/multiply/a&#45;&gt;/matrix_mult/multiply/a_info -->
<g id="edge4" class="edge">
<title>/matrix_mult/multiply/a:s&#45;&gt;/matrix_mult/multiply/a_info:w</title>
<path fill="none" stroke="#000000" d="M99.4966,-592.7006C99.4966,-525.6005 -34.997,-461.7465 9.4816,-454.7283"/>
<polygon fill="#000000" stroke="#000000" points="9.7394,-458.219 19.4966,-454.0904 9.2944,-451.2332 9.7394,-458.219"/>
</g>
<!-- /matrix_mult/multiply/duplicate_rows -->
<g id="node6" class="node">
<title>/matrix_mult/multiply/duplicate_rows</title>
<g id="a_node6"><a xlink:href="../../flowstdlib/data/duplicate_rows/duplicate_rows.html" xlink:title="duplicate_rows">
<ellipse fill="#ff7f50" stroke="#000000" cx="192.4966" cy="-391.2203" rx="81.4863" ry="18"/>
<text text-anchor="middle" x="192.4966" y="-387.5203" font-family="Times,serif" font-size="14.00" fill="#000000">duplicate_rows</text>
</a>
</g>
</g>
<!-- /matrix_mult/multiply/a&#45;&gt;/matrix_mult/multiply/duplicate_rows -->
<g id="edge5" class="edge">
<title>/matrix_mult/multiply/a:s&#45;&gt;/matrix_mult/multiply/duplicate_rows:w</title>
<path fill="none" stroke="#000000" d="M99.4966,-592.7006C99.4966,-583.1063 103.2197,-581.2095 104.4966,-571.7006 105.0677,-567.4476 105.3818,-438.3909 108.601,-401.1743"/>
<polygon fill="#000000" stroke="#000000" points="112.0639,-401.6986 110.4966,-391.2203 105.1875,-400.389 112.0639,-401.6986"/>
</g>
<!-- /matrix_mult/multiply/b -->
<g id="node2" class="node">
<title>/matrix_mult/multiply/b</title>
<polygon fill="#ffffff" stroke="#000000" points="322.4966,-613.2629 295.4966,-625.7006 268.4966,-613.2629 268.5218,-593.1383 322.4714,-593.1383 322.4966,-613.2629"/>
<text text-anchor="middle" x="295.4966" y="-604.0006" font-family="Times,serif" font-size="14.00" fill="#000000">b</text>
</g>
<!-- /matrix_mult/multiply/b_info -->
<g id="node4" class="node">
<title>/matrix_mult/multiply/b_info</title>
<g id="a_node4"><a xlink:href="../../flowstdlib/data/info/info.html" xlink:title="b_info\n(info)">
<ellipse fill="#ff7f50" stroke="#000000" cx="287.4966" cy="-525.8305" rx="42.3529" ry="26.7407"/>
<text text-anchor="middle" x="287.4966" y="-529.6305" font-family="Times,serif" font-size="14.00" fill="#000000">b_info</text>
<text text-anchor="middle" x="287.4966" y="-514.6305" font-family="Times,serif" font-size="14.00" fill="#000000">(info)</text>
</a>
</g>
</g>
<!-- /matrix_mult/multiply/b&#45;&gt;/matrix_mult/multiply/b_info -->
<g id="edge3" class="edge">
<title>/matrix_mult/multiply/b:s&#45;&gt;/matrix_mult/multiply/b_info:w</title>
<path fill="none" stroke="#000000" d="M295.4966,-592.7006C295.4966,-563.8939 257.1004,-578.6037 244.4966,-552.7006 241.6392,-546.8279 238.3355,-539.3424 237.8814,-533.7644"/>
<polygon fill="#000000" stroke="#000000" points="240.7809,-535.7524 244.4966,-525.8305 235.4045,-531.2696 240.7809,-535.7524"/>
</g>
<!-- /matrix_mult/multiply/transpose -->
<g id="node7" class="node">
<title>/matrix_mult/multiply/transpose</title>
<g id="a_node7"><a xlink:href="../../flowstdlib/data/transpose/transpose.html" xlink:title="transpose">
<ellipse fill="#ff7f50" stroke="#000000" cx="404.4966" cy="-525.8305" rx="56.59" ry="18"/>
<text text-anchor="middle" x="404.4966" y="-522.1305" font-family="Times,serif" font-size="14.00" fill="#000000">transpose</text>
</a>
</g>
</g>
<!-- /matrix_mult/multiply/b&#45;&gt;/matrix_mult/multiply/transpose -->
<g id="edge6" class="edge">
<title>/matrix_mult/multiply/b:s&#45;&gt;/matrix_mult/multiply/transpose:w</title>
<path fill="none" stroke="#000000" d="M295.4966,-592.7006C295.4966,-566.5992 324.3596,-574.642 338.4966,-552.7006 342.3336,-546.7453 340.7167,-538.9879 340.8091,-533.34"/>
<polygon fill="#000000" stroke="#000000" points="343.4598,-535.6262 347.4966,-525.8305 338.2322,-530.9708 343.4598,-535.6262"/>
</g>
<!-- /matrix_mult/multiply/product -->
<g id="node3" class="node">
<title>/matrix_mult/multiply/product</title>
<polygon fill="#000000" stroke="#000000" points="536.7038,-12.4377 595.4966,0 654.2894,-12.4377 654.2346,-32.5623 536.7587,-32.5623 536.7038,-12.4377"/>
<text text-anchor="middle" x="595.4966" y="-14.3" font-family="Times,serif" font-size="14.00" fill="#ffffff">product</text>
</g>
<!-- /matrix_mult/multiply/b_info&#45;&gt;/matrix_mult/multiply/duplicate_rows -->
<g id="edge9" class="edge">
<title>/matrix_mult/multiply/b_info:s&#45;&gt;/matrix_mult/multiply/duplicate_rows:w</title>
<path fill="none" stroke="#000000" d="M287.4966,-498.9605C287.4966,-454.8605 133.5764,-446.7986 110.4966,-409.2203 108.9266,-406.664 107.4091,-403.4937 106.5474,-400.5293"/>
<polygon fill="#000000" stroke="#000000" points="109.8131,-401.7931 110.4966,-391.2203 103.369,-399.0592 109.8131,-401.7931"/>
<text text-anchor="middle" x="167.4208" y="-452.5905" font-family="Times,serif" font-size="14.00" fill="#000000">columns</text>
<text text-anchor="middle" x="88.9966" y="-395.0203" font-family="Times,serif" font-size="14.00" fill="#000000">factor</text>
</g>
<!-- /matrix_mult/multiply/duplicate -->
<g id="node8" class="node">
<title>/matrix_mult/multiply/duplicate</title>
<g id="a_node8"><a xlink:href="../../flowstdlib/data/duplicate/duplicate.html" xlink:title="duplicate">
<ellipse fill="#ff7f50" stroke="#000000" cx="345.4966" cy="-391.2203" rx="53.8905" ry="18"/>
<text text-anchor="middle" x="345.4966" y="-387.5203" font-family="Times,serif" font-size="14.00" fill="#000000">duplicate</text>
</a>
</g>
</g>
<!-- /matrix_mult/multiply/b_info&#45;&gt;/matrix_mult/multiply/duplicate -->
<g id="edge8" class="edge">
<title>/matrix_mult/multiply/b_info:s&#45;&gt;/matrix_mult/multiply/duplicate:w</title>
<path fill="none" stroke="#000000" d="M287.4966,-498.9605C287.4966,-489.2272 282.229,-424.1852 286.6791,-400.1366"/>
<polygon fill="#000000" stroke="#000000" points="289.8223,-401.6821 291.4966,-391.2203 283.6637,-398.3545 289.8223,-401.6821"/>
<text text-anchor="middle" x="254.6104" y="-449.0301" font-family="Times,serif" font-size="14.00" fill="#000000">columns</text>
<text text-anchor="middle" x="280.7466" y="-380.0203" font-family="Times,serif" font-size="14.00" fill="#000000">factor</text>
</g>
<!-- /matrix_mult/multiply/compose_rows -->
<g id="node10" class="node">
<title>/matrix_mult/multiply/compose_rows</title>
<g id="a_node10"><a xlink:href="../../flowstdlib/data/accumulate/accumulate.html" xlink:title="compose_rows\n(accumulate)">
<ellipse fill="#ff7f50" stroke="#000000" cx="448.4966" cy="-204.6102" rx="86.0347" ry="26.7407"/>
<text text-anchor="middle" x="448.4966" y="-208.4102" font-family="Times,serif" font-size="14.00" fill="#000000">compose_rows</text>
<text text-anchor="middle" x="448.4966" y="-193.4102" font-family="Times,serif" font-size="14.00" fill="#000000">(accumulate)</text>
</a>
</g>
</g>
<!-- /matrix_mult/multiply/b_info&#45;&gt;/matrix_mult/multiply/compose_rows -->
<g id="edge15" class="edge">
<title>/matrix_mult/multiply/b_info:s&#45;&gt;/matrix_mult/multiply/compose_rows:n</title>
<path fill="none" stroke="#000000" d="M287.4966,-498.9605C287.4966,-482.222 399.3655,-423.2488 408.4966,-409.2203 450.7701,-344.2744 448.7659,-315.0077 448.5156,-241.6368"/>
<polygon fill="#000000" stroke="#000000" points="452.0154,-241.4737 448.4966,-231.4802 445.0154,-241.4868 452.0154,-241.4737"/>
<text text-anchor="middle" x="447.9064" y="-398.765" font-family="Times,serif" font-size="14.00" fill="#000000">columns</text>
<text text-anchor="middle" x="408.4966" y="-235.2802" font-family="Times,serif" font-size="14.00" fill="#000000">chunk_size</text>
</g>
<!-- /matrix_mult/multiply/compose_matrix -->
<g id="node12" class="node">
<title>/matrix_mult/multiply/compose_matrix</title>
<g id="a_node12"><a xlink:href="../../flowstdlib/data/accumulate/accumulate.html" xlink:title="compose_matrix\n(accumulate)">
<ellipse fill="#ff7f50" stroke="#000000" cx="569.4966" cy="-99.8701" rx="94.5053" ry="26.7407"/>
<text text-anchor="middle" x="569.4966" y="-103.6701" font-family="Times,serif" font-size="14.00" fill="#000000">compose_matrix</text>
<text text-anchor="middle" x="569.4966" y="-88.6701" font-family="Times,serif" font-size="14.00" fill="#000000">(accumulate)</text>
</a>
</g>
</g>
<!-- /matrix_mult/multiply/a_info&#45;&gt;/matrix_mult/multiply/compose_matrix -->
<g id="edge19" class="edge">
<title>/matrix_mult/multiply/a_info:s&#45;&gt;/matrix_mult/multiply/compose_matrix:n</title>
<path fill="none" stroke="#000000" d="M61.4966,-427.2203C61.4966,-394.3157 76.4966,-387.625 76.4966,-354.7203 76.4966,-354.7203 76.4966,-354.7203 76.4966,-204.6102 76.4966,-198.2603 490.1654,-144.0206 559.6488,-129.6268"/>
<polygon fill="#000000" stroke="#000000" points="560.8849,-132.9117 569.4966,-126.7401 558.9159,-126.1944 560.8849,-132.9117"/>
<text text-anchor="middle" x="274.4959" y="-173.9379" font-family="Times,serif" font-size="14.00" fill="#000000">rows</text>
<text text-anchor="middle" x="529.4966" y="-130.5401" font-family="Times,serif" font-size="14.00" fill="#000000">chunk_size</text>
</g>
<!-- /matrix_mult/multiply/multiply -->
<g id="node9" class="node">
<title>/matrix_mult/multiply/multiply</title>
<g id="a_node9"><a xlink:href="../../flowstdlib/data/multiply_row/multiply_row.html" xlink:title="multiply\n(multiply_row)">
<ellipse fill="#ff7f50" stroke="#000000" cx="319.4966" cy="-309.3503" rx="85.6199" ry="26.7407"/>
<text text-anchor="middle" x="319.4966" y="-313.1503" font-family="Times,serif" font-size="14.00" fill="#000000">multiply</text>
<text text-anchor="middle" x="319.4966" y="-298.1503" font-family="Times,serif" font-size="14.00" fill="#000000">(multiply_row)</text>
</a>
</g>
</g>
<!-- /matrix_mult/multiply/duplicate_rows&#45;&gt;/matrix_mult/multiply/multiply -->
<g id="edge10" class="edge">
<title>/matrix_mult/multiply/duplicate_rows:e&#45;&gt;/matrix_mult/multiply/multiply:w</title>
<path fill="none" stroke="#000000" d="M274.4966,-391.2203C282.4966,-391.2203 277.7464,-380.5305 274.4966,-373.2203 264.5258,-350.7915 243.4675,-358.6491 233.4966,-336.2203 230.8436,-330.2526 227.5207,-322.776 227.0073,-317.2256"/>
<polygon fill="#000000" stroke="#000000" points="229.8385,-319.2936 233.4966,-309.3503 224.4362,-314.8421 229.8385,-319.2936"/>
<text text-anchor="middle" x="228.9966" y="-313.1503" font-family="Times,serif" font-size="14.00" fill="#000000">a</text>
</g>
<!-- /matrix_mult/multiply/transpose&#45;&gt;/matrix_mult/multiply/duplicate -->
<g id="edge7" class="edge">
<title>/matrix_mult/multiply/transpose:e&#45;&gt;/matrix_mult/multiply/duplicate:n</title>
<path fill="none" stroke="#000000" d="M461.4966,-525.8305C469.4966,-525.8305 464.8543,-515.0918 461.4966,-507.8305 434.6495,-449.7712 354.9008,-473.8286 346.2586,-419.4724"/>
<polygon fill="#000000" stroke="#000000" points="349.7283,-418.9334 345.4966,-409.2203 342.7475,-419.4523 349.7283,-418.9334"/>
<text text-anchor="middle" x="325.9966" y="-413.0203" font-family="Times,serif" font-size="14.00" fill="#000000">value</text>
</g>
<!-- /matrix_mult/multiply/duplicate&#45;&gt;/matrix_mult/multiply/multiply -->
<g id="edge11" class="edge">
<title>/matrix_mult/multiply/duplicate:e&#45;&gt;/matrix_mult/multiply/multiply:nw</title>
<path fill="none" stroke="#000000" d="M399.4966,-391.2203C407.4966,-391.2203 404.1047,-379.7599 399.4966,-373.2203 373.3821,-336.1595 278.4906,-364.2221 287.2572,-343.4803"/>
<polygon fill="#000000" stroke="#000000" points="290.1849,-345.4143 293.4966,-335.3503 284.6318,-341.1524 290.1849,-345.4143"/>
<text text-anchor="middle" x="288.4966" y="-339.1503" font-family="Times,serif" font-size="14.00" fill="#000000">b</text>
</g>
<!-- /matrix_mult/multiply/multiply&#45;&gt;/matrix_mult/multiply/compose_rows -->
<g id="edge14" class="edge">
<title>/matrix_mult/multiply/multiply:e&#45;&gt;/matrix_mult/multiply/compose_rows:w</title>
<path fill="none" stroke="#000000" d="M405.4966,-309.3503C450.8604,-309.3503 338.4383,-224.8051 351.7518,-207.6319"/>
<polygon fill="#000000" stroke="#000000" points="352.9819,-210.9149 361.4966,-204.6102 350.9087,-204.229 352.9819,-210.9149"/>
<text text-anchor="middle" x="338.4966" y="-208.4102" font-family="Times,serif" font-size="14.00" fill="#000000">values</text>
</g>
<!-- /matrix_mult/multiply/compose_rows&#45;&gt;/matrix_mult/multiply/compose_rows -->
<g id="edge12" class="edge">
<title>/matrix_mult/multiply/compose_rows:s&#45;&gt;/matrix_mult/multiply/compose_rows:n</title>
<path fill="none" stroke="#000000" d="M448.4966,-177.6102C483.2523,-171.1102 552.7637,-171.1102 552.7637,-204.6102 552.7637,-235.1004 495.1815,-237.8398 458.6304,-233.1851"/>
<polygon fill="#000000" stroke="#000000" points="458.9155,-229.6875 448.4966,-231.6102 457.8405,-236.6045 458.9155,-229.6875"/>
<text text-anchor="middle" x="472.5221" y="-166.4054" font-family="Times,serif" font-size="14.00" fill="#000000">partial</text>
<text text-anchor="middle" x="472.4966" y="-235.4102" font-family="Times,serif" font-size="14.00" fill="#000000">partial</text>
</g>
<!-- /matrix_mult/multiply/compose_rows&#45;&gt;/matrix_mult/multiply/compose_rows -->
<g id="edge13" class="edge">
<title>/matrix_mult/multiply/compose_rows:s&#45;&gt;/matrix_mult/multiply/compose_rows:n</title>
<path fill="none" stroke="#000000" d="M448.4966,-177.6102C489.2523,-164.6102 570.7637,-164.6102 570.7637,-204.6102 570.7637,-241.6414 500.9027,-244.3898 458.1947,-234.2788"/>
<polygon fill="#000000" stroke="#000000" points="459.0669,-230.8888 448.4966,-231.6102 457.2096,-237.638 459.0669,-230.8888"/>
<text text-anchor="middle" x="408.5116" y="-166.4054" font-family="Times,serif" font-size="14.00" fill="#000000">chunk_size</text>
<text text-anchor="middle" x="488.4966" y="-235.4102" font-family="Times,serif" font-size="14.00" fill="#000000">chunk_size</text>
</g>
<!-- /matrix_mult/multiply/compose_rows&#45;&gt;/matrix_mult/multiply/compose_matrix -->
<g id="edge18" class="edge">
<title>/matrix_mult/multiply/compose_rows:se&#45;&gt;/matrix_mult/multiply/compose_matrix:w</title>
<path fill="none" stroke="#000000" d="M474.4966,-178.6102C495.7624,-157.3444 454.6325,-114.4776 464.8548,-102.8419"/>
<polygon fill="#000000" stroke="#000000" points="465.9712,-106.1603 474.4966,-99.8701 463.9093,-99.4709 465.9712,-106.1603"/>
<text text-anchor="middle" x="451.2798" y="-140.8279" font-family="Times,serif" font-size="14.00" fill="#000000">chunk</text>
<text text-anchor="middle" x="451.4966" y="-103.6701" font-family="Times,serif" font-size="14.00" fill="#000000">values</text>
</g>
<!-- initializer/matrix_mult/multiply/compose_rows_1 -->
<!-- initializer/matrix_mult/multiply/compose_rows_1&#45;&gt;/matrix_mult/multiply/compose_rows -->
<g id="edge1" class="edge">
<title>initializer/matrix_mult/multiply/compose_rows_1&#45;&gt;/matrix_mult/multiply/compose_rows:n</title>
<path fill="none" stroke="#0000ff" stroke-dasharray="1,5" d="M581.5071,-293.7165C523.6505,-283.0483 463.8168,-266.2628 451.0032,-241.4061"/>
<polygon fill="#0000ff" stroke="#0000ff" points="454.3386,-240.3189 448.4966,-231.4802 447.5517,-242.0328 454.3386,-240.3189"/>
<text text-anchor="middle" x="480.9966" y="-253.2802" font-family="Times,serif" font-size="14.00" fill="#000000">[]</text>
</g>
<!-- /matrix_mult/multiply/compose_matrix&#45;&gt;/matrix_mult/multiply/product -->
<g id="edge20" class="edge">
<title>/matrix_mult/multiply/compose_matrix:se&#45;&gt;/matrix_mult/multiply/product:n</title>
<path fill="none" stroke="#000000" d="M595.4966,-73.8701C605.7319,-63.6348 599.6547,-55.2937 596.7635,-43.1358"/>
<polygon fill="#000000" stroke="#000000" points="600.21,-42.4887 595.4966,-33 593.264,-43.3569 600.21,-42.4887"/>
<text text-anchor="middle" x="576.8764" y="-55.9233" font-family="Times,serif" font-size="14.00" fill="#000000">chunk</text>
</g>
<!-- /matrix_mult/multiply/compose_matrix&#45;&gt;/matrix_mult/multiply/compose_matrix -->
<g id="edge16" class="edge">
<title>/matrix_mult/multiply/compose_matrix:s&#45;&gt;/matrix_mult/multiply/compose_matrix:n</title>
<path fill="none" stroke="#000000" d="M569.4966,-72.8701C607.0807,-67.3701 682.2489,-67.3701 682.2489,-99.8701 682.2489,-129.704 618.9072,-132.1514 579.4423,-128.0976"/>
<polygon fill="#000000" stroke="#000000" points="579.8501,-124.6215 569.4966,-126.8701 578.9925,-131.5688 579.8501,-124.6215"/>
<text text-anchor="middle" x="545.5517" y="-61.662" font-family="Times,serif" font-size="14.00" fill="#000000">partial</text>
<text text-anchor="middle" x="593.4966" y="-130.6701" font-family="Times,serif" font-size="14.00" fill="#000000">partial</text>
</g>
<!-- /matrix_mult/multiply/compose_matrix&#45;&gt;/matrix_mult/multiply/compose_matrix -->
<g id="edge17" class="edge">
<title>/matrix_mult/multiply/compose_matrix:s&#45;&gt;/matrix_mult/multiply/compose_matrix:n</title>
<path fill="none" stroke="#000000" d="M569.4966,-72.8701C613.0807,-61.8701 700.2489,-61.8701 700.2489,-99.8701 700.2489,-135.1982 624.9078,-137.6822 579.2911,-129.0178"/>
<polygon fill="#000000" stroke="#000000" points="580.0143,-125.5933 569.4966,-126.8701 578.5148,-132.4309 580.0143,-125.5933"/>
<text text-anchor="middle" x="609.5286" y="-61.662" font-family="Times,serif" font-size="14.00" fill="#000000">chunk_size</text>
<text text-anchor="middle" x="609.4966" y="-130.6701" font-family="Times,serif" font-size="14.00" fill="#000000">chunk_size</text>
</g>
<!-- initializer/matrix_mult/multiply/compose_matrix_1 -->
<!-- initializer/matrix_mult/multiply/compose_matrix_1&#45;&gt;/matrix_mult/multiply/compose_matrix -->
<g id="edge2" class="edge">
<title>initializer/matrix_mult/multiply/compose_matrix_1&#45;&gt;/matrix_mult/multiply/compose_matrix:n</title>
<path fill="none" stroke="#0000ff" stroke-dasharray="1,5" d="M705.224,-189.2505C645.1989,-178.8153 584.4328,-162.1455 571.8583,-136.5704"/>
<polygon fill="#0000ff" stroke="#0000ff" points="575.2359,-135.6458 569.4966,-126.7401 568.4295,-137.2811 575.2359,-135.6458"/>
<text text-anchor="middle" x="602.9966" y="-148.5401" font-family="Times,serif" font-size="14.00" fill="#000000">[]</text>
</g>
</g>
</svg>
