<?xml version="1.0" encoding="UTF-8" standalone="no"?>
<!DOCTYPE svg PUBLIC "-//W3C//DTD SVG 1.1//EN"
 "http://www.w3.org/Graphics/SVG/1.1/DTD/svg11.dtd">
<!-- Generated by graphviz version 2.44.0 (20200408.0750)
 -->
<!-- Title: multiply Pages: 1 -->
<svg width="1003pt" height="732pt"
 viewBox="28.80 28.80 973.77 703.24" xmlns="http://www.w3.org/2000/svg" xmlns:xlink="http://www.w3.org/1999/xlink">
<g id="graph0" class="graph" transform="scale(1 1) rotate(0) translate(32.8 699.24)">
<title>multiply</title>
<polygon fill="white" stroke="transparent" points="-4,4 -4,-670.44 940.97,-670.44 940.97,4 -4,4"/>
<text text-anchor="middle" x="468.49" y="-651.24" font-family="Times,serif" font-size="14.00">multiply</text>
<!-- /matrix_mult/multiply/a -->
<g id="node1" class="node">
<title>/matrix_mult/multiply/a</title>
<polygon fill="white" stroke="black" points="115.64,-631 88.64,-643.44 61.64,-631 61.67,-610.88 115.62,-610.88 115.64,-631"/>
<text text-anchor="middle" x="88.64" y="-621.74" font-family="Times,serif" font-size="14.00">a</text>
</g>
<!-- /matrix_mult/multiply/a_info -->
<g id="node5" class="node">
<title>/matrix_mult/multiply/a_info</title>
<g id="a_node5"><a xlink:href="../../flowstdlib/data/info/info.html" xlink:title="a_info\n(Info)">
<ellipse fill="coral" stroke="black" cx="56.64" cy="-471.83" rx="36.12" ry="26.74"/>
<text text-anchor="middle" x="56.64" y="-475.63" font-family="Times,serif" font-size="14.00">a_info</text>
<text text-anchor="middle" x="56.64" y="-460.63" font-family="Times,serif" font-size="14.00">(Info)</text>
</a>
</g>
</g>
<!-- /matrix_mult/multiply/a&#45;&gt;/matrix_mult/multiply/a_info -->
<g id="edge4" class="edge">
<title>/matrix_mult/multiply/a:s&#45;&gt;/matrix_mult/multiply/a_info:w</title>
<path fill="none" stroke="black" d="M88.64,-609.44C88.64,-545.03 -33.15,-479.94 9.66,-472.53"/>
<polygon fill="black" stroke="black" points="9.91,-476.02 19.64,-471.83 9.42,-469.04 9.91,-476.02"/>
</g>
<!-- /matrix_mult/multiply/duplicate_rows -->
<g id="node6" class="node">
<title>/matrix_mult/multiply/duplicate_rows</title>
<g id="a_node6"><a xlink:href="../../flowstdlib/data/duplicate_rows/duplicate_rows.html" xlink:title="duplicate_rows\n(DuplicateRows)">
<ellipse fill="coral" stroke="black" cx="178.64" cy="-400.09" rx="77.15" ry="26.74"/>
<text text-anchor="middle" x="178.64" y="-403.89" font-family="Times,serif" font-size="14.00">duplicate_rows</text>
<text text-anchor="middle" x="178.64" y="-388.89" font-family="Times,serif" font-size="14.00">(DuplicateRows)</text>
</a>
</g>
</g>
<!-- /matrix_mult/multiply/a&#45;&gt;/matrix_mult/multiply/duplicate_rows -->
<g id="edge5" class="edge">
<title>/matrix_mult/multiply/a:s&#45;&gt;/matrix_mult/multiply/duplicate_rows:w</title>
<path fill="none" stroke="black" d="M88.64,-609.44C88.64,-600.28 92.35,-598.51 93.64,-589.44 94.91,-580.48 91.39,-447.08 97.06,-409.74"/>
<polygon fill="black" stroke="black" points="100.44,-410.68 100.64,-400.09 93.88,-408.25 100.44,-410.68"/>
</g>
<!-- /matrix_mult/multiply/b -->
<g id="node2" class="node">
<title>/matrix_mult/multiply/b</title>
<polygon fill="white" stroke="black" points="305.64,-631 278.64,-643.44 251.64,-631 251.67,-610.88 305.62,-610.88 305.64,-631"/>
<text text-anchor="middle" x="278.64" y="-621.74" font-family="Times,serif" font-size="14.00">b</text>
</g>
<!-- /matrix_mult/multiply/b_info -->
<g id="node4" class="node">
<title>/matrix_mult/multiply/b_info</title>
<g id="a_node4"><a xlink:href="../../flowstdlib/data/info/info.html" xlink:title="b_info\n(Info)">
<ellipse fill="coral" stroke="black" cx="270.64" cy="-543.57" rx="36.54" ry="26.74"/>
<text text-anchor="middle" x="270.64" y="-547.37" font-family="Times,serif" font-size="14.00">b_info</text>
<text text-anchor="middle" x="270.64" y="-532.37" font-family="Times,serif" font-size="14.00">(Info)</text>
</a>
</g>
</g>
<!-- /matrix_mult/multiply/b&#45;&gt;/matrix_mult/multiply/b_info -->
<g id="edge3" class="edge">
<title>/matrix_mult/multiply/b:s&#45;&gt;/matrix_mult/multiply/b_info:w</title>
<path fill="none" stroke="black" d="M278.64,-609.44C278.64,-582.97 245.08,-594.31 233.64,-570.44 230.82,-564.55 227.21,-557.06 226.47,-551.49"/>
<polygon fill="black" stroke="black" points="229.26,-553.61 232.64,-543.57 223.73,-549.31 229.26,-553.61"/>
</g>
<!-- /matrix_mult/multiply/transpose -->
<g id="node7" class="node">
<title>/matrix_mult/multiply/transpose</title>
<g id="a_node7"><a xlink:href="../../flowstdlib/data/transpose/transpose.html" xlink:title="transpose\n(Transpose)">
<ellipse fill="coral" stroke="black" cx="382.64" cy="-543.57" rx="57.05" ry="26.74"/>
<text text-anchor="middle" x="382.64" y="-547.37" font-family="Times,serif" font-size="14.00">transpose</text>
<text text-anchor="middle" x="382.64" y="-532.37" font-family="Times,serif" font-size="14.00">(Transpose)</text>
</a>
</g>
</g>
<!-- /matrix_mult/multiply/b&#45;&gt;/matrix_mult/multiply/transpose -->
<g id="edge6" class="edge">
<title>/matrix_mult/multiply/b:s&#45;&gt;/matrix_mult/multiply/transpose:w</title>
<path fill="none" stroke="black" d="M278.64,-609.44C278.64,-585.24 304.75,-591.52 316.64,-570.44 319.86,-564.73 318.15,-557.5 317.69,-551.98"/>
<polygon fill="black" stroke="black" points="320.73,-553.76 323.64,-543.57 315.01,-549.72 320.73,-553.76"/>
</g>
<!-- /matrix_mult/multiply/product -->
<g id="node3" class="node">
<title>/matrix_mult/multiply/product</title>
<polygon fill="black" stroke="black" points="505.95,-12.44 552.64,0 599.33,-12.44 599.29,-32.56 505.99,-32.56 505.95,-12.44"/>
<text text-anchor="middle" x="552.64" y="-14.3" font-family="Times,serif" font-size="14.00" fill="white">product</text>
</g>
<!-- /matrix_mult/multiply/b_info&#45;&gt;/matrix_mult/multiply/duplicate_rows -->
<g id="edge9" class="edge">
<title>/matrix_mult/multiply/b_info:s&#45;&gt;/matrix_mult/multiply/duplicate_rows:w</title>
<path fill="none" stroke="black" d="M270.64,-516.7C270.64,-474.18 124.22,-462.99 101.64,-426.96 98.07,-421.26 94.42,-413.47 94.03,-407.75"/>
<polygon fill="black" stroke="black" points="96.76,-409.95 100.64,-400.09 91.46,-405.38 96.76,-409.95"/>
<text text-anchor="middle" x="159.51" y="-469.52" font-family="Times,serif" font-size="14.00">columns</text>
<text text-anchor="middle" x="84.64" y="-403.89" font-family="Times,serif" font-size="14.00">factor</text>
</g>
<!-- /matrix_mult/multiply/duplicate -->
<g id="node8" class="node">
<title>/matrix_mult/multiply/duplicate</title>
<g id="a_node8"><a xlink:href="../../flowstdlib/data/duplicate/duplicate.html" xlink:title="duplicate\n(Duplicate)">
<ellipse fill="coral" stroke="black" cx="328.64" cy="-400.09" rx="55.31" ry="26.74"/>
<text text-anchor="middle" x="328.64" y="-403.89" font-family="Times,serif" font-size="14.00">duplicate</text>
<text text-anchor="middle" x="328.64" y="-388.89" font-family="Times,serif" font-size="14.00">(Duplicate)</text>
</a>
</g>
</g>
<!-- /matrix_mult/multiply/b_info&#45;&gt;/matrix_mult/multiply/duplicate -->
<g id="edge8" class="edge">
<title>/matrix_mult/multiply/b_info:s&#45;&gt;/matrix_mult/multiply/duplicate:w</title>
<path fill="none" stroke="black" d="M270.64,-516.7C270.64,-506.07 263.27,-434.41 267.77,-409"/>
<polygon fill="black" stroke="black" points="270.92,-410.54 272.64,-400.09 264.77,-407.19 270.92,-410.54"/>
<text text-anchor="middle" x="243.49" y="-462.13" font-family="Times,serif" font-size="14.00">columns</text>
<text text-anchor="middle" x="272.64" y="-388.89" font-family="Times,serif" font-size="14.00">factor</text>
</g>
<!-- /matrix_mult/multiply/compose_rows -->
<g id="node10" class="node">
<title>/matrix_mult/multiply/compose_rows</title>
<g id="a_node10"><a xlink:href="../../flowstdlib/data/accumulate/accumulate.html" xlink:title="compose_rows\n(Accumulate)">
<ellipse fill="coral" stroke="black" cx="424.64" cy="-204.61" rx="69.09" ry="26.74"/>
<text text-anchor="middle" x="424.64" y="-208.41" font-family="Times,serif" font-size="14.00">compose_rows</text>
<text text-anchor="middle" x="424.64" y="-193.41" font-family="Times,serif" font-size="14.00">(Accumulate)</text>
</a>
</g>
</g>
<!-- /matrix_mult/multiply/b_info&#45;&gt;/matrix_mult/multiply/compose_rows -->
<g id="edge15" class="edge">
<title>/matrix_mult/multiply/b_info:s&#45;&gt;/matrix_mult/multiply/compose_rows:n</title>
<path fill="none" stroke="black" d="M270.64,-516.7C270.64,-499.87 383.85,-441.31 392.64,-426.96 436.82,-354.81 425.64,-322.11 424.7,-241.55"/>
<polygon fill="black" stroke="black" points="428.2,-241.46 424.64,-231.48 421.2,-241.5 428.2,-241.46"/>
<text text-anchor="middle" x="430.29" y="-405.29" font-family="Times,serif" font-size="14.00">columns</text>
<text text-anchor="middle" x="394.14" y="-235.28" font-family="Times,serif" font-size="14.00">chunk_size</text>
</g>
<!-- /matrix_mult/multiply/compose_matrix -->
<g id="node12" class="node">
<title>/matrix_mult/multiply/compose_matrix</title>
<g id="a_node12"><a xlink:href="../../flowstdlib/data/accumulate/accumulate.html" xlink:title="compose_matrix\n(Accumulate)">
<ellipse fill="coral" stroke="black" cx="526.64" cy="-99.87" rx="76.24" ry="26.74"/>
<text text-anchor="middle" x="526.64" y="-103.67" font-family="Times,serif" font-size="14.00">compose_matrix</text>
<text text-anchor="middle" x="526.64" y="-88.67" font-family="Times,serif" font-size="14.00">(Accumulate)</text>
</a>
</g>
</g>
<!-- /matrix_mult/multiply/a_info&#45;&gt;/matrix_mult/multiply/compose_matrix -->
<g id="edge19" class="edge">
<title>/matrix_mult/multiply/a_info:s&#45;&gt;/matrix_mult/multiply/compose_matrix:n</title>
<path fill="none" stroke="black" d="M56.64,-444.96C56.64,-404.78 67.64,-395.4 67.64,-355.22 67.64,-355.22 67.64,-355.22 67.64,-203.61 67.64,-191.77 452.78,-147.97 517.47,-130.76"/>
<polygon fill="black" stroke="black" points="518.89,-133.96 526.64,-126.74 516.08,-127.55 518.89,-133.96"/>
<text text-anchor="middle" x="254.78" y="-173" font-family="Times,serif" font-size="14.00">rows</text>
<text text-anchor="middle" x="496.14" y="-130.54" font-family="Times,serif" font-size="14.00">chunk_size</text>
</g>
<!-- /matrix_mult/multiply/multiply -->
<g id="node9" class="node">
<title>/matrix_mult/multiply/multiply</title>
<g id="a_node9"><a xlink:href="../../flowstdlib/data/multiply_row/multiply_row.html" xlink:title="multiply\n(MultiplyRow)">
<ellipse fill="coral" stroke="black" cx="316.64" cy="-309.35" rx="70.01" ry="26.74"/>
<text text-anchor="middle" x="316.64" y="-313.15" font-family="Times,serif" font-size="14.00">multiply</text>
<text text-anchor="middle" x="316.64" y="-298.15" font-family="Times,serif" font-size="14.00">(MultiplyRow)</text>
</a>
</g>
</g>
<!-- /matrix_mult/multiply/duplicate_rows&#45;&gt;/matrix_mult/multiply/multiply -->
<g id="edge10" class="edge">
<title>/matrix_mult/multiply/duplicate_rows:e&#45;&gt;/matrix_mult/multiply/multiply:w</title>
<path fill="none" stroke="black" d="M256.64,-400.09C272.99,-400.09 242.75,-341.33 240.9,-318.38"/>
<polygon fill="black" stroke="black" points="244.09,-319.83 245.64,-309.35 237.89,-316.58 244.09,-319.83"/>
<text text-anchor="middle" x="242.14" y="-313.15" font-family="Times,serif" font-size="14.00">a</text>
</g>
<!-- /matrix_mult/multiply/transpose&#45;&gt;/matrix_mult/multiply/duplicate -->
<g id="edge7" class="edge">
<title>/matrix_mult/multiply/transpose:e&#45;&gt;/matrix_mult/multiply/duplicate:n</title>
<path fill="none" stroke="black" d="M441.64,-543.57C453.59,-543.57 446.01,-527.38 440.64,-516.7 413.65,-463.06 338.22,-487.41 329.47,-437.23"/>
<polygon fill="black" stroke="black" points="332.93,-436.65 328.64,-426.96 325.96,-437.21 332.93,-436.65"/>
<text text-anchor="middle" x="313.64" y="-430.76" font-family="Times,serif" font-size="14.00">value</text>
</g>
<!-- /matrix_mult/multiply/duplicate&#45;&gt;/matrix_mult/multiply/multiply -->
<g id="edge11" class="edge">
<title>/matrix_mult/multiply/duplicate:e&#45;&gt;/matrix_mult/multiply/multiply:nw</title>
<path fill="none" stroke="black" d="M384.64,-400.09C396.59,-400.09 390.47,-383.02 383.64,-373.22 361.12,-340.91 280.94,-360.92 285.76,-343.59"/>
<polygon fill="black" stroke="black" points="288.68,-345.52 291.64,-335.35 282.98,-341.45 288.68,-345.52"/>
<text text-anchor="middle" x="288.14" y="-339.15" font-family="Times,serif" font-size="14.00">b</text>
</g>
<!-- /matrix_mult/multiply/multiply&#45;&gt;/matrix_mult/multiply/compose_rows -->
<g id="edge14" class="edge">
<title>/matrix_mult/multiply/multiply:e&#45;&gt;/matrix_mult/multiply/compose_rows:w</title>
<path fill="none" stroke="black" d="M387.64,-309.35C431.61,-309.35 329.62,-224.81 343.95,-207.63"/>
<polygon fill="black" stroke="black" points="345.13,-210.93 353.64,-204.61 343.05,-204.24 345.13,-210.93"/>
<text text-anchor="middle" x="336.14" y="-208.41" font-family="Times,serif" font-size="14.00">values</text>
</g>
<!-- /matrix_mult/multiply/compose_rows&#45;&gt;/matrix_mult/multiply/compose_rows -->
<g id="edge12" class="edge">
<title>/matrix_mult/multiply/compose_rows:s&#45;&gt;/matrix_mult/multiply/compose_rows:n</title>
<path fill="none" stroke="black" d="M424.64,-177.61C453.74,-171.11 511.94,-171.11 511.94,-204.61 511.94,-234.58 465.37,-237.74 434.72,-233.42"/>
<polygon fill="black" stroke="black" points="435.1,-229.93 424.64,-231.61 433.86,-236.82 435.1,-229.93"/>
<text text-anchor="middle" x="442.16" y="-166.41" font-family="Times,serif" font-size="14.00">partial</text>
<text text-anchor="middle" x="442.14" y="-235.41" font-family="Times,serif" font-size="14.00">partial</text>
</g>
<!-- /matrix_mult/multiply/compose_rows&#45;&gt;/matrix_mult/multiply/compose_rows -->
<g id="edge13" class="edge">
<title>/matrix_mult/multiply/compose_rows:s&#45;&gt;/matrix_mult/multiply/compose_rows:n</title>
<path fill="none" stroke="black" d="M424.64,-177.61C459.74,-164.61 529.94,-164.61 529.94,-204.61 529.94,-241.17 471.29,-244.31 434.4,-234.66"/>
<polygon fill="black" stroke="black" points="435.23,-231.25 424.64,-231.61 433.14,-237.93 435.23,-231.25"/>
<text text-anchor="middle" x="394.15" y="-166.41" font-family="Times,serif" font-size="14.00">chunk_size</text>
<text text-anchor="middle" x="455.14" y="-235.41" font-family="Times,serif" font-size="14.00">chunk_size</text>
</g>
<!-- /matrix_mult/multiply/compose_rows&#45;&gt;/matrix_mult/multiply/compose_matrix -->
<g id="edge18" class="edge">
<title>/matrix_mult/multiply/compose_rows:se&#45;&gt;/matrix_mult/multiply/compose_matrix:w</title>
<path fill="none" stroke="black" d="M449.64,-178.61C470.91,-157.34 429.04,-114.48 439.05,-102.84"/>
<polygon fill="black" stroke="black" points="440.12,-106.17 448.64,-99.87 438.05,-99.49 440.12,-106.17"/>
<text text-anchor="middle" x="431.53" y="-140.83" font-family="Times,serif" font-size="14.00">chunk</text>
<text text-anchor="middle" x="431.14" y="-103.67" font-family="Times,serif" font-size="14.00">values</text>
</g>
<!-- initializer/matrix_mult/multiply/compose_rows_1 -->
<!-- initializer/matrix_mult/multiply/compose_rows_1&#45;&gt;/matrix_mult/multiply/compose_rows -->
<g id="edge1" class="edge">
<title>initializer/matrix_mult/multiply/compose_rows_1&#45;&gt;/matrix_mult/multiply/compose_rows:n</title>
<path fill="none" stroke="blue" stroke-dasharray="1,5" d="M548.04,-293.14C497.67,-281.71 440.52,-264.12 427.41,-241.24"/>
<polygon fill="blue" stroke="blue" points="430.74,-240.14 424.64,-231.48 424.01,-242.06 430.74,-240.14"/>
<text text-anchor="middle" x="459.64" y="-253.28" font-family="Times,serif" font-size="14.00">[]</text>
</g>
<!-- /matrix_mult/multiply/compose_matrix&#45;&gt;/matrix_mult/multiply/product -->
<g id="edge20" class="edge">
<title>/matrix_mult/multiply/compose_matrix:se&#45;&gt;/matrix_mult/multiply/product:n</title>
<path fill="none" stroke="black" d="M552.64,-73C562.31,-63.33 556.72,-55.43 553.93,-44.01"/>
<polygon fill="black" stroke="black" points="557.39,-43.47 552.64,-34 550.45,-44.37 557.39,-43.47"/>
<text text-anchor="middle" x="539.41" y="-56.27" font-family="Times,serif" font-size="14.00">chunk</text>
</g>
<!-- /matrix_mult/multiply/compose_matrix&#45;&gt;/matrix_mult/multiply/compose_matrix -->
<g id="edge16" class="edge">
<title>/matrix_mult/multiply/compose_matrix:s&#45;&gt;/matrix_mult/multiply/compose_matrix:n</title>
<path fill="none" stroke="black" d="M526.64,-72.87C558.1,-67.37 621.01,-67.37 621.01,-99.87 621.01,-129.2 569.78,-132.06 536.67,-128.3"/>
<polygon fill="black" stroke="black" points="537.03,-124.82 526.64,-126.87 536.05,-131.75 537.03,-124.82"/>
<text text-anchor="middle" x="509.19" y="-61.66" font-family="Times,serif" font-size="14.00">partial</text>
<text text-anchor="middle" x="544.14" y="-130.67" font-family="Times,serif" font-size="14.00">partial</text>
</g>
<!-- /matrix_mult/multiply/compose_matrix&#45;&gt;/matrix_mult/multiply/compose_matrix -->
<g id="edge17" class="edge">
<title>/matrix_mult/multiply/compose_matrix:s&#45;&gt;/matrix_mult/multiply/compose_matrix:n</title>
<path fill="none" stroke="black" d="M526.64,-72.87C564.1,-61.87 639.01,-61.87 639.01,-99.87 639.01,-134.75 575.88,-137.61 536.55,-129.34"/>
<polygon fill="black" stroke="black" points="537.19,-125.89 526.64,-126.87 535.5,-132.68 537.19,-125.89"/>
<text text-anchor="middle" x="557.17" y="-61.66" font-family="Times,serif" font-size="14.00">chunk_size</text>
<text text-anchor="middle" x="557.14" y="-130.67" font-family="Times,serif" font-size="14.00">chunk_size</text>
</g>
<!-- initializer/matrix_mult/multiply/compose_matrix_1 -->
<!-- initializer/matrix_mult/multiply/compose_matrix_1&#45;&gt;/matrix_mult/multiply/compose_matrix -->
<g id="edge2" class="edge">
<title>initializer/matrix_mult/multiply/compose_matrix_1&#45;&gt;/matrix_mult/multiply/compose_matrix:n</title>
<path fill="none" stroke="blue" stroke-dasharray="1,5" d="M653.54,-188.54C601.01,-177.34 542.33,-159.93 529.3,-136.42"/>
<polygon fill="blue" stroke="blue" points="532.66,-135.46 526.64,-126.74 525.91,-137.31 532.66,-135.46"/>
<text text-anchor="middle" x="563.64" y="-148.54" font-family="Times,serif" font-size="14.00">[]</text>
</g>
</g>
</svg>
