<?xml version="1.0" encoding="UTF-8" standalone="no"?>
<!DOCTYPE svg PUBLIC "-//W3C//DTD SVG 1.1//EN"
 "http://www.w3.org/Graphics/SVG/1.1/DTD/svg11.dtd">
<!-- Generated by graphviz version 2.42.3 (20191010.1750)
 -->
<!-- Title: multiply Pages: 1 -->
<svg width="1233pt" height="742pt"
 viewBox="28.80 28.80 1204.37 713.36" xmlns="http://www.w3.org/2000/svg" xmlns:xlink="http://www.w3.org/1999/xlink">
<g id="graph0" class="graph" transform="scale(1 1) rotate(0) translate(32.8 709.36)">
<title>multiply</title>
<polygon fill="white" stroke="transparent" points="-4,4 -4,-680.56 1171.57,-680.56 1171.57,4 -4,4"/>
<text text-anchor="middle" x="583.78" y="-661.36" font-family="Times,serif" font-size="14.00">multiply</text>
<!-- /matrix_mult/multiply/a -->
<g id="node1" class="node">
<title>/matrix_mult/multiply/a</title>
<polygon fill="white" stroke="black" points="231.73,-642.12 204.73,-654.56 177.73,-642.12 177.75,-622 231.7,-622 231.73,-642.12"/>
<text text-anchor="middle" x="204.73" y="-632.36" font-family="Times,serif" font-size="14.00">a</text>
</g>
<!-- /matrix_mult/multiply/a_info -->
<g id="node6" class="node">
<title>/matrix_mult/multiply/a_info</title>
<ellipse fill="coral" stroke="black" cx="241.73" cy="-489.1" rx="36.71" ry="25.41"/>
<text text-anchor="middle" x="241.73" y="-491.9" font-family="Times,serif" font-size="14.00">a_info</text>
<text text-anchor="middle" x="241.73" y="-477.9" font-family="Times,serif" font-size="14.00">(Info)</text>
</g>
<!-- /matrix_mult/multiply/a&#45;&gt;/matrix_mult/multiply/a_info -->
<g id="edge8" class="edge">
<title>/matrix_mult/multiply/a:s&#45;&gt;/matrix_mult/multiply/a_info:w</title>
<path fill="none" stroke="black" d="M204.73,-620.56C204.73,-585.39 70.97,-626.95 47.73,-600.56 -41.24,-499.54 -10.17,-489.41 193.58,-489.11"/>
<polygon fill="black" stroke="black" points="193.73,-492.61 203.73,-489.1 193.73,-485.61 193.73,-492.61"/>
</g>
<!-- /matrix_mult/multiply/duplicate_rows -->
<g id="node8" class="node">
<title>/matrix_mult/multiply/duplicate_rows</title>
<ellipse fill="coral" stroke="black" cx="555.73" cy="-388.19" rx="78.89" ry="25.41"/>
<text text-anchor="middle" x="555.73" y="-390.99" font-family="Times,serif" font-size="14.00">duplicate_rows</text>
<text text-anchor="middle" x="555.73" y="-376.99" font-family="Times,serif" font-size="14.00">(DuplicateRows)</text>
</g>
<!-- /matrix_mult/multiply/a&#45;&gt;/matrix_mult/multiply/duplicate_rows -->
<g id="edge9" class="edge">
<title>/matrix_mult/multiply/a:s&#45;&gt;/matrix_mult/multiply/duplicate_rows:w</title>
<path fill="none" stroke="black" d="M204.73,-620.56C204.73,-585.39 335.94,-624.48 361.73,-600.56 407.26,-558.32 358.54,-517.35 389.73,-463.65 413.47,-422.77 423.45,-392.68 465.59,-388.65"/>
<polygon fill="black" stroke="black" points="465.9,-392.14 475.73,-388.19 465.58,-385.15 465.9,-392.14"/>
</g>
<!-- /matrix_mult/multiply/b -->
<g id="node2" class="node">
<title>/matrix_mult/multiply/b</title>
<polygon fill="white" stroke="black" points="970.73,-642.12 943.73,-654.56 916.73,-642.12 916.75,-622 970.7,-622 970.73,-642.12"/>
<text text-anchor="middle" x="943.73" y="-632.36" font-family="Times,serif" font-size="14.00">b</text>
</g>
<!-- /matrix_mult/multiply/b_info -->
<g id="node4" class="node">
<title>/matrix_mult/multiply/b_info</title>
<ellipse fill="coral" stroke="black" cx="981.73" cy="-489.1" rx="37.32" ry="25.41"/>
<text text-anchor="middle" x="981.73" y="-491.9" font-family="Times,serif" font-size="14.00">b_info</text>
<text text-anchor="middle" x="981.73" y="-477.9" font-family="Times,serif" font-size="14.00">(Info)</text>
</g>
<!-- /matrix_mult/multiply/b&#45;&gt;/matrix_mult/multiply/b_info -->
<g id="edge7" class="edge">
<title>/matrix_mult/multiply/b:s&#45;&gt;/matrix_mult/multiply/b_info:w</title>
<path fill="none" stroke="black" d="M943.73,-620.56C943.73,-585.17 1078.33,-627.11 1101.73,-600.56 1112.31,-588.56 1111.18,-577.47 1101.73,-564.56 1073.91,-526.57 1045.62,-546.76 1000.73,-532.56 975.4,-524.55 959.85,-535.67 943.73,-514.56 939.97,-509.64 936.64,-502.49 936.24,-497.01"/>
<polygon fill="black" stroke="black" points="939.09,-499.05 942.73,-489.1 933.68,-494.62 939.09,-499.05"/>
</g>
<!-- /matrix_mult/multiply/transpose -->
<g id="node10" class="node">
<title>/matrix_mult/multiply/transpose</title>
<ellipse fill="coral" stroke="black" cx="829.73" cy="-489.1" rx="58.5" ry="25.41"/>
<text text-anchor="middle" x="829.73" y="-491.9" font-family="Times,serif" font-size="14.00">transpose</text>
<text text-anchor="middle" x="829.73" y="-477.9" font-family="Times,serif" font-size="14.00">(Transpose)</text>
</g>
<!-- /matrix_mult/multiply/b&#45;&gt;/matrix_mult/multiply/transpose -->
<g id="edge10" class="edge">
<title>/matrix_mult/multiply/b:s&#45;&gt;/matrix_mult/multiply/transpose:w</title>
<path fill="none" stroke="black" d="M943.73,-620.56C943.73,-585.17 811.19,-625.14 785.73,-600.56 782.08,-597.03 770.33,-525.66 769.41,-499.02"/>
<polygon fill="black" stroke="black" points="772.88,-499.48 770.73,-489.1 765.94,-498.55 772.88,-499.48"/>
</g>
<!-- /matrix_mult/multiply/product -->
<g id="node3" class="node">
<title>/matrix_mult/multiply/product</title>
<polygon fill="black" stroke="black" points="355.96,-12.44 401.73,0 447.5,-12.44 447.45,-32.56 356,-32.56 355.96,-12.44"/>
<text text-anchor="middle" x="401.73" y="-13.8" font-family="Times,serif" font-size="14.00" fill="white">product</text>
</g>
<!-- /matrix_mult/multiply/b_info&#45;&gt;/matrix_mult/multiply/duplicate_rows -->
<g id="edge13" class="edge">
<title>/matrix_mult/multiply/b_info:s&#45;&gt;/matrix_mult/multiply/duplicate_rows:w</title>
<path fill="none" stroke="black" d="M981.73,-463.65C981.73,-435.45 496.06,-434.17 476.73,-413.65 472.36,-409.01 469.01,-401.54 468.92,-395.88"/>
<polygon fill="black" stroke="black" points="471.72,-398 475.73,-388.19 466.48,-393.36 471.72,-398"/>
<text text-anchor="middle" x="704.77" y="-438.16" font-family="Times,serif" font-size="14.00">columns</text>
<text text-anchor="middle" x="459.41" y="-390.99" font-family="Times,serif" font-size="14.00">factor</text>
</g>
<!-- /matrix_mult/multiply/duplicate -->
<g id="node12" class="node">
<title>/matrix_mult/multiply/duplicate</title>
<ellipse fill="coral" stroke="black" cx="877.73" cy="-388.19" rx="56.28" ry="25.41"/>
<text text-anchor="middle" x="877.73" y="-390.99" font-family="Times,serif" font-size="14.00">duplicate</text>
<text text-anchor="middle" x="877.73" y="-376.99" font-family="Times,serif" font-size="14.00">(Duplicate)</text>
</g>
<!-- /matrix_mult/multiply/b_info&#45;&gt;/matrix_mult/multiply/duplicate -->
<g id="edge12" class="edge">
<title>/matrix_mult/multiply/b_info:s&#45;&gt;/matrix_mult/multiply/duplicate:w</title>
<path fill="none" stroke="black" d="M981.73,-463.65C981.73,-436.51 955.15,-441.15 929.73,-431.65 883.73,-414.46 853.22,-450.46 820.73,-413.65 816.51,-408.87 813.14,-401.41 813.01,-395.8"/>
<polygon fill="black" stroke="black" points="815.74,-398.01 819.73,-388.19 810.49,-393.37 815.74,-398.01"/>
<text text-anchor="middle" x="876.93" y="-429.49" font-family="Times,serif" font-size="14.00">columns</text>
<text text-anchor="middle" x="803.41" y="-390.99" font-family="Times,serif" font-size="14.00">factor</text>
</g>
<!-- /matrix_mult/multiply/compose_rows -->
<g id="node14" class="node">
<title>/matrix_mult/multiply/compose_rows</title>
<ellipse fill="coral" stroke="black" cx="669.73" cy="-199.37" rx="70.9" ry="25.41"/>
<text text-anchor="middle" x="669.73" y="-202.17" font-family="Times,serif" font-size="14.00">compose_rows</text>
<text text-anchor="middle" x="669.73" y="-188.17" font-family="Times,serif" font-size="14.00">(Accumulate)</text>
</g>
<!-- /matrix_mult/multiply/b_info&#45;&gt;/matrix_mult/multiply/compose_rows -->
<g id="edge19" class="edge">
<title>/matrix_mult/multiply/b_info:s&#45;&gt;/matrix_mult/multiply/compose_rows:n</title>
<path fill="none" stroke="black" d="M981.73,-463.65C981.73,-379.71 1032.79,-338.18 977.73,-274.82 956.98,-250.96 717.84,-257.87 675.97,-232.97"/>
<polygon fill="black" stroke="black" points="678.59,-230.63 669.73,-224.82 673.03,-234.89 678.59,-230.63"/>
<text text-anchor="middle" x="811.1" y="-257.09" font-family="Times,serif" font-size="14.00">columns</text>
<text text-anchor="middle" x="638.24" y="-227.62" font-family="Times,serif" font-size="14.00">chunk_size</text>
</g>
<!-- initializer/matrix_mult/multiply/b_info_0 -->
<!-- initializer/matrix_mult/multiply/b_info_0&#45;&gt;/matrix_mult/multiply/b_info -->
<g id="edge1" class="edge">
<title>initializer/matrix_mult/multiply/b_info_0&#45;&gt;/matrix_mult/multiply/b_info:w</title>
<path fill="none" stroke="blue" stroke-dasharray="1,5" d="M936.69,-564.17C928.17,-541.15 916.82,-502.26 932.65,-491.77"/>
<polygon fill="blue" stroke="blue" points="933.96,-495.05 942.73,-489.1 932.17,-488.28 933.96,-495.05"/>
<text text-anchor="middle" x="963.96" y="-535.36" font-family="Times,serif" font-size="14.00">[[5,6],[7,8]]</text>
</g>
<!-- /matrix_mult/multiply/compose_matrix -->
<g id="node16" class="node">
<title>/matrix_mult/multiply/compose_matrix</title>
<ellipse fill="coral" stroke="black" cx="377.73" cy="-98.46" rx="77.09" ry="25.41"/>
<text text-anchor="middle" x="377.73" y="-101.26" font-family="Times,serif" font-size="14.00">compose_matrix</text>
<text text-anchor="middle" x="377.73" y="-87.26" font-family="Times,serif" font-size="14.00">(Accumulate)</text>
</g>
<!-- /matrix_mult/multiply/a_info&#45;&gt;/matrix_mult/multiply/compose_matrix -->
<g id="edge23" class="edge">
<title>/matrix_mult/multiply/a_info:s&#45;&gt;/matrix_mult/multiply/compose_matrix:n</title>
<path fill="none" stroke="black" d="M241.73,-463.65C241.73,-409.65 337.73,-443.19 337.73,-389.19 337.73,-389.19 337.73,-389.19 337.73,-198.37 337.73,-164.47 370.3,-161.71 376.66,-133.89"/>
<polygon fill="black" stroke="black" points="380.14,-134.23 377.73,-123.91 373.18,-133.48 380.14,-134.23"/>
<text text-anchor="middle" x="324.12" y="-368.14" font-family="Times,serif" font-size="14.00">rows</text>
<text text-anchor="middle" x="346.24" y="-126.71" font-family="Times,serif" font-size="14.00">chunk_size</text>
</g>
<!-- initializer/matrix_mult/multiply/a_info_0 -->
<!-- initializer/matrix_mult/multiply/a_info_0&#45;&gt;/matrix_mult/multiply/a_info -->
<g id="edge2" class="edge">
<title>initializer/matrix_mult/multiply/a_info_0&#45;&gt;/matrix_mult/multiply/a_info:w</title>
<path fill="none" stroke="blue" stroke-dasharray="1,5" d="M197.69,-564.17C189.17,-541.15 177.82,-502.26 193.65,-491.77"/>
<polygon fill="blue" stroke="blue" points="194.96,-495.05 203.73,-489.1 193.17,-488.28 194.96,-495.05"/>
<text text-anchor="middle" x="224.96" y="-535.36" font-family="Times,serif" font-size="14.00">[[1,2],[3,4]]</text>
</g>
<!-- /matrix_mult/multiply/multiply -->
<g id="node13" class="node">
<title>/matrix_mult/multiply/multiply</title>
<ellipse fill="coral" stroke="black" cx="526.73" cy="-300.28" rx="71.02" ry="25.41"/>
<text text-anchor="middle" x="526.73" y="-303.08" font-family="Times,serif" font-size="14.00">multiply</text>
<text text-anchor="middle" x="526.73" y="-289.08" font-family="Times,serif" font-size="14.00">(MultiplyRow)</text>
</g>
<!-- /matrix_mult/multiply/duplicate_rows&#45;&gt;/matrix_mult/multiply/multiply -->
<g id="edge14" class="edge">
<title>/matrix_mult/multiply/duplicate_rows:e&#45;&gt;/matrix_mult/multiply/multiply:w</title>
<path fill="none" stroke="black" d="M635.73,-388.19C647.05,-388.19 642.05,-371.37 634.73,-362.74 581.88,-300.46 507.57,-388.01 454.73,-325.74 450.61,-320.88 447.22,-313.43 447.07,-307.84"/>
<polygon fill="black" stroke="black" points="449.75,-310.1 453.73,-300.28 444.49,-305.47 449.75,-310.1"/>
<text text-anchor="middle" x="450.62" y="-303.08" font-family="Times,serif" font-size="14.00">a</text>
</g>
<!-- initializer/matrix_mult/multiply/duplicate_rows_0 -->
<!-- initializer/matrix_mult/multiply/duplicate_rows_0&#45;&gt;/matrix_mult/multiply/duplicate_rows -->
<g id="edge3" class="edge">
<title>initializer/matrix_mult/multiply/duplicate_rows_0&#45;&gt;/matrix_mult/multiply/duplicate_rows:w</title>
<path fill="none" stroke="blue" stroke-dasharray="1,5" d="M551.58,-471.15C511.38,-445.32 443.08,-398.17 465.67,-389.56"/>
<polygon fill="blue" stroke="blue" points="466.29,-393.01 475.73,-388.19 465.35,-386.07 466.29,-393.01"/>
<text text-anchor="middle" x="543.96" y="-434.45" font-family="Times,serif" font-size="14.00">[[1,2],[3,4]]</text>
</g>
<!-- /matrix_mult/multiply/transpose&#45;&gt;/matrix_mult/multiply/duplicate -->
<g id="edge11" class="edge">
<title>/matrix_mult/multiply/transpose:e&#45;&gt;/matrix_mult/multiply/duplicate:n</title>
<path fill="none" stroke="black" d="M888.73,-489.1C900.05,-489.1 889.06,-474.89 887.73,-463.65 885.51,-445.01 880.11,-438.49 878.32,-423.93"/>
<polygon fill="black" stroke="black" points="881.79,-423.43 877.73,-413.65 874.8,-423.83 881.79,-423.43"/>
<text text-anchor="middle" x="892.89" y="-416.45" font-family="Times,serif" font-size="14.00">value</text>
</g>
<!-- initializer/matrix_mult/multiply/transpose_0 -->
<!-- initializer/matrix_mult/multiply/transpose_0&#45;&gt;/matrix_mult/multiply/transpose -->
<g id="edge4" class="edge">
<title>initializer/matrix_mult/multiply/transpose_0&#45;&gt;/matrix_mult/multiply/transpose:w</title>
<path fill="none" stroke="blue" stroke-dasharray="1,5" d="M620.08,-564.75C639.88,-554.33 666.53,-541.31 691.26,-532.56 724.17,-520.9 744.48,-540.61 767.73,-514.56 769.77,-512.27 768.83,-505.05 768.42,-498.88"/>
<polygon fill="blue" stroke="blue" points="771.83,-499.64 770.73,-489.1 765.02,-498.03 771.83,-499.64"/>
<text text-anchor="middle" x="723.96" y="-535.36" font-family="Times,serif" font-size="14.00">[[5,6],[7,8]]</text>
</g>
<!-- /matrix_mult/multiply/duplicate&#45;&gt;/matrix_mult/multiply/multiply -->
<g id="edge15" class="edge">
<title>/matrix_mult/multiply/duplicate:e&#45;&gt;/matrix_mult/multiply/multiply:nw</title>
<path fill="none" stroke="black" d="M935.73,-388.19C947.05,-388.19 942.54,-370.93 934.73,-362.74 905.11,-331.68 558.56,-353.26 507.17,-334.28"/>
<polygon fill="black" stroke="black" points="510.29,-332.7 502.73,-325.28 504.02,-335.8 510.29,-332.7"/>
<text text-anchor="middle" x="499.23" y="-328.08" font-family="Times,serif" font-size="14.00">b</text>
</g>
<!-- /matrix_mult/multiply/multiply&#45;&gt;/matrix_mult/multiply/compose_rows -->
<g id="edge18" class="edge">
<title>/matrix_mult/multiply/multiply:e&#45;&gt;/matrix_mult/multiply/compose_rows:w</title>
<path fill="none" stroke="black" d="M599.73,-300.28C604.24,-300.28 596.56,-234.94 596.32,-209.41"/>
<polygon fill="black" stroke="black" points="599.8,-209.76 597.73,-199.37 592.87,-208.78 599.8,-209.76"/>
<text text-anchor="middle" x="579.85" y="-202.17" font-family="Times,serif" font-size="14.00">values</text>
</g>
<!-- /matrix_mult/multiply/compose_rows&#45;&gt;/matrix_mult/multiply/compose_rows -->
<g id="edge16" class="edge">
<title>/matrix_mult/multiply/compose_rows:s&#45;&gt;/matrix_mult/multiply/compose_rows:n</title>
<path fill="none" stroke="black" d="M669.73,-173.37C699.29,-167.12 758.43,-167.12 758.43,-199.37 758.43,-228.22 711.11,-231.26 679.97,-227.11"/>
<polygon fill="black" stroke="black" points="680.17,-223.59 669.73,-225.37 679,-230.49 680.17,-223.59"/>
<text text-anchor="middle" x="687.65" y="-162.16" font-family="Times,serif" font-size="14.00">partial</text>
<text text-anchor="middle" x="687.61" y="-228.17" font-family="Times,serif" font-size="14.00">partial</text>
</g>
<!-- /matrix_mult/multiply/compose_rows&#45;&gt;/matrix_mult/multiply/compose_rows -->
<g id="edge17" class="edge">
<title>/matrix_mult/multiply/compose_rows:s&#45;&gt;/matrix_mult/multiply/compose_rows:n</title>
<path fill="none" stroke="black" d="M669.73,-173.37C705.29,-160.87 776.43,-160.87 776.43,-199.37 776.43,-234.56 717,-237.58 679.62,-228.3"/>
<polygon fill="black" stroke="black" points="680.31,-224.85 669.73,-225.37 678.32,-231.56 680.31,-224.85"/>
<text text-anchor="middle" x="638.26" y="-162.16" font-family="Times,serif" font-size="14.00">chunk_size</text>
<text text-anchor="middle" x="701.22" y="-228.17" font-family="Times,serif" font-size="14.00">chunk_size</text>
</g>
<!-- /matrix_mult/multiply/compose_rows&#45;&gt;/matrix_mult/multiply/compose_matrix -->
<g id="edge22" class="edge">
<title>/matrix_mult/multiply/compose_rows:se&#45;&gt;/matrix_mult/multiply/compose_matrix:w</title>
<path fill="none" stroke="black" d="M693.73,-174.37C818.56,-49.53 418.94,-254.12 299.73,-123.91 295.43,-119.21 292.07,-111.75 291.96,-106.11"/>
<polygon fill="black" stroke="black" points="294.73,-108.27 298.73,-98.46 289.48,-103.63 294.73,-108.27"/>
<text text-anchor="middle" x="482.12" y="-168.24" font-family="Times,serif" font-size="14.00">chunk</text>
<text text-anchor="middle" x="280.85" y="-101.26" font-family="Times,serif" font-size="14.00">values</text>
</g>
<!-- initializer/matrix_mult/multiply/compose_rows_1 -->
<!-- initializer/matrix_mult/multiply/compose_rows_1&#45;&gt;/matrix_mult/multiply/compose_rows -->
<g id="edge5" class="edge">
<title>initializer/matrix_mult/multiply/compose_rows_1&#45;&gt;/matrix_mult/multiply/compose_rows:n</title>
<path fill="none" stroke="blue" stroke-dasharray="1,5" d="M723.76,-283.34C699.25,-273.63 676.09,-258.42 670.83,-234.98"/>
<polygon fill="blue" stroke="blue" points="674.29,-234.39 669.73,-224.82 667.33,-235.14 674.29,-234.39"/>
<text text-anchor="middle" x="686.39" y="-245.62" font-family="Times,serif" font-size="14.00">[]</text>
</g>
<!-- /matrix_mult/multiply/compose_matrix&#45;&gt;/matrix_mult/multiply/product -->
<g id="edge24" class="edge">
<title>/matrix_mult/multiply/compose_matrix:se&#45;&gt;/matrix_mult/multiply/product:n</title>
<path fill="none" stroke="black" d="M401.73,-73.46C411.51,-63.67 405.86,-55.68 403.03,-44.13"/>
<polygon fill="black" stroke="black" points="406.48,-43.47 401.73,-34 399.54,-44.37 406.48,-43.47"/>
<text text-anchor="middle" x="388.43" y="-55.48" font-family="Times,serif" font-size="14.00">chunk</text>
</g>
<!-- /matrix_mult/multiply/compose_matrix&#45;&gt;/matrix_mult/multiply/compose_matrix -->
<g id="edge20" class="edge">
<title>/matrix_mult/multiply/compose_matrix:s&#45;&gt;/matrix_mult/multiply/compose_matrix:n</title>
<path fill="none" stroke="black" d="M377.73,-72.46C409.49,-67.21 473.02,-67.21 473.02,-98.46 473.02,-126.65 421.29,-129.41 387.85,-125.82"/>
<polygon fill="black" stroke="black" points="388.11,-122.32 377.73,-124.46 387.17,-129.26 388.11,-122.32"/>
<text text-anchor="middle" x="359.9" y="-61.25" font-family="Times,serif" font-size="14.00">partial</text>
<text text-anchor="middle" x="395.61" y="-127.26" font-family="Times,serif" font-size="14.00">partial</text>
</g>
<!-- /matrix_mult/multiply/compose_matrix&#45;&gt;/matrix_mult/multiply/compose_matrix -->
<g id="edge21" class="edge">
<title>/matrix_mult/multiply/compose_matrix:s&#45;&gt;/matrix_mult/multiply/compose_matrix:n</title>
<path fill="none" stroke="black" d="M377.73,-72.46C415.49,-61.96 491.02,-61.96 491.02,-98.46 491.02,-132.03 427.1,-134.72 387.47,-126.76"/>
<polygon fill="black" stroke="black" points="388.27,-123.35 377.73,-124.46 386.65,-130.17 388.27,-123.35"/>
<text text-anchor="middle" x="409.25" y="-61.25" font-family="Times,serif" font-size="14.00">chunk_size</text>
<text text-anchor="middle" x="409.22" y="-127.26" font-family="Times,serif" font-size="14.00">chunk_size</text>
</g>
<!-- initializer/matrix_mult/multiply/compose_matrix_1 -->
<!-- initializer/matrix_mult/multiply/compose_matrix_1&#45;&gt;/matrix_mult/multiply/compose_matrix -->
<g id="edge6" class="edge">
<title>initializer/matrix_mult/multiply/compose_matrix_1&#45;&gt;/matrix_mult/multiply/compose_matrix:n</title>
<path fill="none" stroke="blue" stroke-dasharray="1,5" d="M864.18,-184.58C709.81,-165.33 442.37,-131.97 387.67,-125.15"/>
<polygon fill="blue" stroke="blue" points="388.08,-121.68 377.73,-123.91 387.22,-128.62 388.08,-121.68"/>
<text text-anchor="middle" x="627.39" y="-144.71" font-family="Times,serif" font-size="14.00">[]</text>
</g>
</g>
</svg>
