<?xml version="1.0" encoding="UTF-8" standalone="no"?>
<!DOCTYPE svg PUBLIC "-//W3C//DTD SVG 1.1//EN"
 "http://www.w3.org/Graphics/SVG/1.1/DTD/svg11.dtd">
<!-- Generated by graphviz version 2.40.1 (0)
 -->
<!-- Title: multiply Pages: 1 -->
<svg width="1455pt" height="761pt"
 viewBox="28.80 28.80 1426.40 732.50" xmlns="http://www.w3.org/2000/svg" xmlns:xlink="http://www.w3.org/1999/xlink">
<g id="graph0" class="graph" transform="scale(1 1) rotate(0) translate(32.8 728.5006)">
<title>multiply</title>
<polygon fill="#ffffff" stroke="transparent" points="-4,4 -4,-699.7006 1393.5989,-699.7006 1393.5989,4 -4,4"/>
<text text-anchor="middle" x="694.7995" y="-680.5006" font-family="Times,serif" font-size="14.00" fill="#000000">multiply</text>
<!-- /matrix_mult/multiply/a -->
<g id="node1" class="node">
<title>/matrix_mult/multiply/a</title>
<polygon fill="#ffffff" stroke="#000000" points="243.5707,-660.2629 216.5707,-672.7006 189.5707,-660.2629 189.5959,-640.1383 243.5455,-640.1383 243.5707,-660.2629"/>
<text text-anchor="middle" x="216.5707" y="-651.0006" font-family="Times,serif" font-size="14.00" fill="#000000">a</text>
</g>
<!-- /matrix_mult/multiply/a_info -->
<g id="node6" class="node">
<title>/matrix_mult/multiply/a_info</title>
<g id="a_node6"><a xlink:href="../../flowstdlib/data/info/info.toml" xlink:title="a_info\n(Info)">
<ellipse fill="#ff7f50" stroke="#000000" cx="258.5707" cy="-504.8305" rx="41.9398" ry="26.7407"/>
<text text-anchor="middle" x="258.5707" y="-508.6305" font-family="Times,serif" font-size="14.00" fill="#000000">a_info</text>
<text text-anchor="middle" x="258.5707" y="-493.6305" font-family="Times,serif" font-size="14.00" fill="#000000">(Info)</text>
</a>
</g>
</g>
<!-- /matrix_mult/multiply/a&#45;&gt;/matrix_mult/multiply/a_info -->
<g id="edge8" class="edge">
<title>/matrix_mult/multiply/a:s&#45;&gt;/matrix_mult/multiply/a_info:w</title>
<path fill="none" stroke="#000000" d="M216.5707,-639.7006C216.5707,-595.6748 49.0055,-651.4399 19.5707,-618.7006 -34.945,-558.0647 26.3644,-506.7169 206.5068,-504.8813"/>
<polygon fill="#000000" stroke="#000000" points="206.5885,-508.381 216.5707,-504.8305 206.5531,-501.3811 206.5885,-508.381"/>
</g>
<!-- /matrix_mult/multiply/duplicate_rows -->
<g id="node8" class="node">
<title>/matrix_mult/multiply/duplicate_rows</title>
<g id="a_node8"><a xlink:href="../../flowstdlib/data/duplicate_rows/duplicate_rows.toml" xlink:title="duplicate_rows\n(DuplicateRows)">
<ellipse fill="#ff7f50" stroke="#000000" cx="649.5707" cy="-400.0904" rx="94.5053" ry="26.7407"/>
<text text-anchor="middle" x="649.5707" y="-403.8904" font-family="Times,serif" font-size="14.00" fill="#000000">duplicate_rows</text>
<text text-anchor="middle" x="649.5707" y="-388.8904" font-family="Times,serif" font-size="14.00" fill="#000000">(DuplicateRows)</text>
</a>
</g>
</g>
<!-- /matrix_mult/multiply/a&#45;&gt;/matrix_mult/multiply/duplicate_rows -->
<g id="edge9" class="edge">
<title>/matrix_mult/multiply/a:s&#45;&gt;/matrix_mult/multiply/duplicate_rows:w</title>
<path fill="none" stroke="#000000" d="M216.5707,-639.7006C216.5707,-595.6748 381.0681,-648.3966 413.5707,-618.7006 460.6549,-575.6821 406.5181,-531.2411 441.5707,-477.9605 473.1285,-429.9919 491.3605,-403.3271 544.2756,-400.3671"/>
<polygon fill="#000000" stroke="#000000" points="544.6683,-403.8579 554.5707,-400.0904 544.4802,-396.8604 544.6683,-403.8579"/>
</g>
<!-- /matrix_mult/multiply/b -->
<g id="node2" class="node">
<title>/matrix_mult/multiply/b</title>
<polygon fill="#ffffff" stroke="#000000" points="1164.5707,-660.2629 1137.5707,-672.7006 1110.5707,-660.2629 1110.5959,-640.1383 1164.5455,-640.1383 1164.5707,-660.2629"/>
<text text-anchor="middle" x="1137.5707" y="-651.0006" font-family="Times,serif" font-size="14.00" fill="#000000">b</text>
</g>
<!-- /matrix_mult/multiply/b_info -->
<g id="node4" class="node">
<title>/matrix_mult/multiply/b_info</title>
<g id="a_node4"><a xlink:href="../../flowstdlib/data/info/info.toml" xlink:title="b_info\n(Info)">
<ellipse fill="#ff7f50" stroke="#000000" cx="1179.5707" cy="-504.8305" rx="41.9398" ry="26.7407"/>
<text text-anchor="middle" x="1179.5707" y="-508.6305" font-family="Times,serif" font-size="14.00" fill="#000000">b_info</text>
<text text-anchor="middle" x="1179.5707" y="-493.6305" font-family="Times,serif" font-size="14.00" fill="#000000">(Info)</text>
</a>
</g>
</g>
<!-- /matrix_mult/multiply/b&#45;&gt;/matrix_mult/multiply/b_info -->
<g id="edge7" class="edge">
<title>/matrix_mult/multiply/b:s&#45;&gt;/matrix_mult/multiply/b_info:w</title>
<path fill="none" stroke="#000000" d="M1137.5707,-639.7006C1137.5707,-595.4538 1305.9793,-651.5963 1335.5707,-618.7006 1346.2711,-606.8052 1345.3467,-595.3667 1335.5707,-582.7006 1300.2007,-536.874 1265.6517,-564.0542 1209.5707,-549.7006 1177.6159,-541.5219 1157.8699,-557.6994 1137.5707,-531.7006 1133.207,-526.1116 1129.815,-517.6868 1130.2791,-511.764"/>
<polygon fill="#000000" stroke="#000000" points="1132.7357,-514.2578 1137.5707,-504.8305 1127.912,-509.1851 1132.7357,-514.2578"/>
</g>
<!-- /matrix_mult/multiply/transpose -->
<g id="node10" class="node">
<title>/matrix_mult/multiply/transpose</title>
<g id="a_node10"><a xlink:href="../../flowstdlib/data/transpose/transpose.toml" xlink:title="transpose\n(Transpose)">
<ellipse fill="#ff7f50" stroke="#000000" cx="997.5707" cy="-504.8305" rx="71.3357" ry="26.7407"/>
<text text-anchor="middle" x="997.5707" y="-508.6305" font-family="Times,serif" font-size="14.00" fill="#000000">transpose</text>
<text text-anchor="middle" x="997.5707" y="-493.6305" font-family="Times,serif" font-size="14.00" fill="#000000">(Transpose)</text>
</a>
</g>
</g>
<!-- /matrix_mult/multiply/b&#45;&gt;/matrix_mult/multiply/transpose -->
<g id="edge10" class="edge">
<title>/matrix_mult/multiply/b:s&#45;&gt;/matrix_mult/multiply/transpose:w</title>
<path fill="none" stroke="#000000" d="M1137.5707,-639.7006C1137.5707,-595.4538 971.6894,-649.1336 939.5707,-618.7006 935.8115,-615.1387 924.7111,-542.1928 924.0994,-514.9634"/>
<polygon fill="#000000" stroke="#000000" points="927.5973,-515.2297 925.5707,-504.8305 920.67,-514.2238 927.5973,-515.2297"/>
</g>
<!-- /matrix_mult/multiply/product -->
<g id="node3" class="node">
<title>/matrix_mult/multiply/product</title>
<polygon fill="#000000" stroke="#000000" points="413.8845,-12.4377 471.5707,0 529.2568,-12.4377 529.2029,-32.5623 413.9384,-32.5623 413.8845,-12.4377"/>
<text text-anchor="middle" x="471.5707" y="-14.3" font-family="Times,serif" font-size="14.00" fill="#ffffff">product</text>
</g>
<!-- /matrix_mult/multiply/b_info&#45;&gt;/matrix_mult/multiply/duplicate_rows -->
<g id="edge13" class="edge">
<title>/matrix_mult/multiply/b_info:s&#45;&gt;/matrix_mult/multiply/duplicate_rows:w</title>
<path fill="none" stroke="#000000" d="M1179.5707,-477.9605C1179.5707,-443.1228 578.1816,-452.5765 554.5707,-426.9605 549.765,-421.7467 546.4559,-413.2515 547.0602,-407.2097"/>
<polygon fill="#000000" stroke="#000000" points="549.7209,-409.5101 554.5707,-400.0904 544.9053,-404.4298 549.7209,-409.5101"/>
<text text-anchor="middle" x="836.4909" y="-452.4842" font-family="Times,serif" font-size="14.00" fill="#000000">columns</text>
<text text-anchor="middle" x="533.0707" y="-403.8904" font-family="Times,serif" font-size="14.00" fill="#000000">factor</text>
</g>
<!-- /matrix_mult/multiply/duplicate -->
<g id="node12" class="node">
<title>/matrix_mult/multiply/duplicate</title>
<g id="a_node12"><a xlink:href="../../flowstdlib/data/duplicate/duplicate.toml" xlink:title="duplicate\n(Duplicate)">
<ellipse fill="#ff7f50" stroke="#000000" cx="1067.5707" cy="-400.0904" rx="67.3507" ry="26.7407"/>
<text text-anchor="middle" x="1067.5707" y="-403.8904" font-family="Times,serif" font-size="14.00" fill="#000000">duplicate</text>
<text text-anchor="middle" x="1067.5707" y="-388.8904" font-family="Times,serif" font-size="14.00" fill="#000000">(Duplicate)</text>
</a>
</g>
</g>
<!-- /matrix_mult/multiply/b_info&#45;&gt;/matrix_mult/multiply/duplicate -->
<g id="edge12" class="edge">
<title>/matrix_mult/multiply/b_info:s&#45;&gt;/matrix_mult/multiply/duplicate:w</title>
<path fill="none" stroke="#000000" d="M1179.5707,-477.9605C1179.5707,-462.7435 1133.9838,-449.8407 1119.5707,-444.9605 1094.2382,-436.3829 1018.011,-447.2372 1000.5707,-426.9605 995.9469,-421.5847 992.6037,-413.1199 993.1503,-407.1295"/>
<polygon fill="#000000" stroke="#000000" points="995.7244,-409.5119 1000.5707,-400.0904 990.9068,-404.4334 995.7244,-409.5119"/>
<text text-anchor="middle" x="1062.8067" y="-445.1837" font-family="Times,serif" font-size="14.00" fill="#000000">columns</text>
<text text-anchor="middle" x="979.0707" y="-403.8904" font-family="Times,serif" font-size="14.00" fill="#000000">factor</text>
</g>
<!-- /matrix_mult/multiply/compose_rows -->
<g id="node14" class="node">
<title>/matrix_mult/multiply/compose_rows</title>
<g id="a_node14"><a xlink:href="../../flowstdlib/data/accumulate/accumulate.toml" xlink:title="compose_rows\n(Accumulate)">
<ellipse fill="#ff7f50" stroke="#000000" cx="773.5707" cy="-204.6102" rx="84.7059" ry="26.7407"/>
<text text-anchor="middle" x="773.5707" y="-208.4102" font-family="Times,serif" font-size="14.00" fill="#000000">compose_rows</text>
<text text-anchor="middle" x="773.5707" y="-193.4102" font-family="Times,serif" font-size="14.00" fill="#000000">(Accumulate)</text>
</a>
</g>
</g>
<!-- /matrix_mult/multiply/b_info&#45;&gt;/matrix_mult/multiply/compose_rows -->
<g id="edge19" class="edge">
<title>/matrix_mult/multiply/b_info:s&#45;&gt;/matrix_mult/multiply/compose_rows:n</title>
<path fill="none" stroke="#000000" d="M1179.5707,-477.9605C1179.5707,-390.9168 1227.0106,-346.0687 1167.5707,-282.4802 1139.6049,-252.5626 824.4165,-272.2544 779.0079,-240.0089"/>
<polygon fill="#000000" stroke="#000000" points="781.8977,-238.0309 773.5707,-231.4802 775.9952,-241.7939 781.8977,-238.0309"/>
<text text-anchor="middle" x="950.0881" y="-265.9259" font-family="Times,serif" font-size="14.00" fill="#000000">columns</text>
<text text-anchor="middle" x="734.5707" y="-235.2802" font-family="Times,serif" font-size="14.00" fill="#000000">chunk_size</text>
</g>
<!-- initializer/matrix_mult/multiply/b_info_0 -->
<!-- initializer/matrix_mult/multiply/b_info_0&#45;&gt;/matrix_mult/multiply/b_info -->
<g id="edge1" class="edge">
<title>initializer/matrix_mult/multiply/b_info_0&#45;&gt;/matrix_mult/multiply/b_info:w</title>
<path fill="none" stroke="#0000ff" stroke-dasharray="1,5" d="M1130.4652,-582.6682C1121.8157,-558.5853 1110.3554,-517.7361 1127.5441,-507.3104"/>
<polygon fill="#0000ff" stroke="#0000ff" points="1128.7035,-510.6292 1137.5707,-504.8305 1127.0228,-503.8339 1128.7035,-510.6292"/>
<text text-anchor="middle" x="1164.5707" y="-553.5006" font-family="Times,serif" font-size="14.00" fill="#000000">[[5,6],[7,8]]</text>
</g>
<!-- /matrix_mult/multiply/compose_matrix -->
<g id="node16" class="node">
<title>/matrix_mult/multiply/compose_matrix</title>
<g id="a_node16"><a xlink:href="../../flowstdlib/data/accumulate/accumulate.toml" xlink:title="compose_matrix\n(Accumulate)">
<ellipse fill="#ff7f50" stroke="#000000" cx="445.5707" cy="-99.8701" rx="94.0904" ry="26.7407"/>
<text text-anchor="middle" x="445.5707" y="-103.6701" font-family="Times,serif" font-size="14.00" fill="#000000">compose_matrix</text>
<text text-anchor="middle" x="445.5707" y="-88.6701" font-family="Times,serif" font-size="14.00" fill="#000000">(Accumulate)</text>
</a>
</g>
</g>
<!-- /matrix_mult/multiply/a_info&#45;&gt;/matrix_mult/multiply/compose_matrix -->
<g id="edge23" class="edge">
<title>/matrix_mult/multiply/a_info:s&#45;&gt;/matrix_mult/multiply/compose_matrix:n</title>
<path fill="none" stroke="#000000" d="M258.5707,-477.9605C258.5707,-410.2286 389.5707,-467.8223 389.5707,-400.0904 389.5707,-400.0904 389.5707,-400.0904 389.5707,-204.6102 389.5707,-165.6446 436.3592,-168.4687 444.401,-136.6857"/>
<polygon fill="#000000" stroke="#000000" points="447.8786,-137.0805 445.5707,-126.7401 440.9266,-136.2628 447.8786,-137.0805"/>
<text text-anchor="middle" x="372.0707" y="-379.4554" font-family="Times,serif" font-size="14.00" fill="#000000">rows</text>
<text text-anchor="middle" x="406.5707" y="-130.5401" font-family="Times,serif" font-size="14.00" fill="#000000">chunk_size</text>
</g>
<!-- initializer/matrix_mult/multiply/a_info_0 -->
<!-- initializer/matrix_mult/multiply/a_info_0&#45;&gt;/matrix_mult/multiply/a_info -->
<g id="edge2" class="edge">
<title>initializer/matrix_mult/multiply/a_info_0&#45;&gt;/matrix_mult/multiply/a_info:w</title>
<path fill="none" stroke="#0000ff" stroke-dasharray="1,5" d="M209.4652,-582.6682C200.8157,-558.5853 189.3554,-517.7361 206.5441,-507.3104"/>
<polygon fill="#0000ff" stroke="#0000ff" points="207.7035,-510.6292 216.5707,-504.8305 206.0228,-503.8339 207.7035,-510.6292"/>
<text text-anchor="middle" x="243.5707" y="-553.5006" font-family="Times,serif" font-size="14.00" fill="#000000">[[1,2],[3,4]]</text>
</g>
<!-- /matrix_mult/multiply/multiply -->
<g id="node13" class="node">
<title>/matrix_mult/multiply/multiply</title>
<g id="a_node13"><a xlink:href="../../flowstdlib/data/multiply_row/multiply_row.toml" xlink:title="multiply\n(MultiplyRow)">
<ellipse fill="#ff7f50" stroke="#000000" cx="604.5707" cy="-309.3503" rx="83.3772" ry="26.7407"/>
<text text-anchor="middle" x="604.5707" y="-313.1503" font-family="Times,serif" font-size="14.00" fill="#000000">multiply</text>
<text text-anchor="middle" x="604.5707" y="-298.1503" font-family="Times,serif" font-size="14.00" fill="#000000">(MultiplyRow)</text>
</a>
</g>
</g>
<!-- /matrix_mult/multiply/duplicate_rows&#45;&gt;/matrix_mult/multiply/multiply -->
<g id="edge14" class="edge">
<title>/matrix_mult/multiply/duplicate_rows:e&#45;&gt;/matrix_mult/multiply/multiply:w</title>
<path fill="none" stroke="#000000" d="M744.5707,-400.0904C756.5129,-400.0904 752.2964,-382.3269 744.5707,-373.2203 679.2928,-296.2754 585.8486,-413.1653 520.5707,-336.2203 515.9835,-330.8133 512.6335,-322.3544 513.1684,-316.3739"/>
<polygon fill="#000000" stroke="#000000" points="515.7256,-318.7724 520.5707,-309.3503 510.9074,-313.6944 515.7256,-318.7724"/>
<text text-anchor="middle" x="516.0707" y="-313.1503" font-family="Times,serif" font-size="14.00" fill="#000000">a</text>
</g>
<!-- initializer/matrix_mult/multiply/duplicate_rows_0 -->
<!-- initializer/matrix_mult/multiply/duplicate_rows_0&#45;&gt;/matrix_mult/multiply/duplicate_rows -->
<g id="edge3" class="edge">
<title>initializer/matrix_mult/multiply/duplicate_rows_0&#45;&gt;/matrix_mult/multiply/duplicate_rows:w</title>
<path fill="none" stroke="#0000ff" stroke-dasharray="1,5" d="M629.2241,-487.1265C601.7508,-474.8564 570.5533,-455.5079 554.5707,-426.9605 551.2891,-421.099 547.9207,-413.3299 547.7269,-407.6537"/>
<polygon fill="#0000ff" stroke="#0000ff" points="550.4564,-409.8538 554.5707,-400.0904 545.2658,-405.1571 550.4564,-409.8538"/>
<text text-anchor="middle" x="623.5707" y="-448.7605" font-family="Times,serif" font-size="14.00" fill="#000000">[[1,2],[3,4]]</text>
</g>
<!-- /matrix_mult/multiply/transpose&#45;&gt;/matrix_mult/multiply/duplicate -->
<g id="edge11" class="edge">
<title>/matrix_mult/multiply/transpose:e&#45;&gt;/matrix_mult/multiply/duplicate:n</title>
<path fill="none" stroke="#000000" d="M1069.5707,-504.8305C1081.5129,-504.8305 1069.8047,-489.9004 1069.5707,-477.9605 1069.2025,-459.1788 1068.0725,-452.0855 1067.695,-437.3192"/>
<polygon fill="#000000" stroke="#000000" points="1071.1905,-436.9177 1067.5707,-426.9605 1064.191,-437.0018 1071.1905,-436.9177"/>
<text text-anchor="middle" x="1048.0707" y="-430.7605" font-family="Times,serif" font-size="14.00" fill="#000000">value</text>
</g>
<!-- initializer/matrix_mult/multiply/transpose_0 -->
<!-- initializer/matrix_mult/multiply/transpose_0&#45;&gt;/matrix_mult/multiply/transpose -->
<g id="edge4" class="edge">
<title>initializer/matrix_mult/multiply/transpose_0&#45;&gt;/matrix_mult/multiply/transpose:w</title>
<path fill="none" stroke="#0000ff" stroke-dasharray="1,5" d="M736.5959,-582.9734C762.8058,-572.1791 797.7304,-558.7677 829.5707,-549.7006 870.0613,-538.1701 894.0154,-562.6367 922.5707,-531.7006 924.8311,-529.2517 923.6583,-521.2522 923.1909,-514.6133"/>
<polygon fill="#0000ff" stroke="#0000ff" points="926.6078,-515.3745 925.5707,-504.8305 919.8061,-513.7199 926.6078,-515.3745"/>
<text text-anchor="middle" x="870.5707" y="-553.5006" font-family="Times,serif" font-size="14.00" fill="#000000">[[5,6],[7,8]]</text>
</g>
<!-- /matrix_mult/multiply/duplicate&#45;&gt;/matrix_mult/multiply/multiply -->
<g id="edge15" class="edge">
<title>/matrix_mult/multiply/duplicate:e&#45;&gt;/matrix_mult/multiply/multiply:nw</title>
<path fill="none" stroke="#000000" d="M1134.5707,-400.0904C1146.5129,-400.0904 1142.7231,-381.947 1134.5707,-373.2203 1096.1802,-332.126 632.8002,-370.5543 580.8499,-345.1559"/>
<polygon fill="#000000" stroke="#000000" points="584.2439,-344.2982 578.5707,-335.3503 577.4257,-345.8831 584.2439,-344.2982"/>
<text text-anchor="middle" x="573.5707" y="-339.1503" font-family="Times,serif" font-size="14.00" fill="#000000">b</text>
</g>
<!-- /matrix_mult/multiply/multiply&#45;&gt;/matrix_mult/multiply/compose_rows -->
<g id="edge18" class="edge">
<title>/matrix_mult/multiply/multiply:e&#45;&gt;/matrix_mult/multiply/compose_rows:w</title>
<path fill="none" stroke="#000000" d="M688.5707,-309.3503C693.2758,-309.3503 686.5673,-240.8687 686.9032,-214.6531"/>
<polygon fill="#000000" stroke="#000000" points="690.3854,-215.0484 688.5707,-204.6102 683.4799,-213.9018 690.3854,-215.0484"/>
<text text-anchor="middle" x="665.5707" y="-208.4102" font-family="Times,serif" font-size="14.00" fill="#000000">values</text>
</g>
<!-- /matrix_mult/multiply/compose_rows&#45;&gt;/matrix_mult/multiply/compose_rows -->
<g id="edge16" class="edge">
<title>/matrix_mult/multiply/compose_rows:s&#45;&gt;/matrix_mult/multiply/compose_rows:n</title>
<path fill="none" stroke="#000000" d="M773.5707,-177.6102C807.8549,-171.1102 876.4235,-171.1102 876.4235,-204.6102 876.4235,-235.1004 819.6224,-237.8398 783.567,-233.1851"/>
<polygon fill="#000000" stroke="#000000" points="783.9936,-229.7093 773.5707,-231.6102 782.9041,-236.624 783.9936,-229.7093"/>
<text text-anchor="middle" x="797.5958" y="-166.4054" font-family="Times,serif" font-size="14.00" fill="#000000">partial</text>
<text text-anchor="middle" x="797.5707" y="-235.4102" font-family="Times,serif" font-size="14.00" fill="#000000">partial</text>
</g>
<!-- /matrix_mult/multiply/compose_rows&#45;&gt;/matrix_mult/multiply/compose_rows -->
<g id="edge17" class="edge">
<title>/matrix_mult/multiply/compose_rows:s&#45;&gt;/matrix_mult/multiply/compose_rows:n</title>
<path fill="none" stroke="#000000" d="M773.5707,-177.6102C813.8549,-164.6102 894.4235,-164.6102 894.4235,-204.6102 894.4235,-241.5633 825.6616,-244.3781 783.424,-234.3427"/>
<polygon fill="#000000" stroke="#000000" points="784.1423,-230.9098 773.5707,-231.6102 782.2717,-237.6553 784.1423,-230.9098"/>
<text text-anchor="middle" x="734.5854" y="-166.4054" font-family="Times,serif" font-size="14.00" fill="#000000">chunk_size</text>
<text text-anchor="middle" x="812.5707" y="-235.4102" font-family="Times,serif" font-size="14.00" fill="#000000">chunk_size</text>
</g>
<!-- /matrix_mult/multiply/compose_rows&#45;&gt;/matrix_mult/multiply/compose_matrix -->
<g id="edge22" class="edge">
<title>/matrix_mult/multiply/compose_rows:se&#45;&gt;/matrix_mult/multiply/compose_matrix:w</title>
<path fill="none" stroke="#000000" d="M799.5707,-178.6102C941.304,-36.8768 484.9046,-276.4023 351.5707,-126.7401 346.8539,-121.4457 343.5282,-112.9657 344.1043,-106.9494"/>
<polygon fill="#000000" stroke="#000000" points="346.7222,-109.2904 351.5707,-99.8701 341.9058,-104.2107 346.7222,-109.2904"/>
<text text-anchor="middle" x="558.4043" y="-176.591" font-family="Times,serif" font-size="14.00" fill="#000000">chunk</text>
<text text-anchor="middle" x="328.5707" y="-103.6701" font-family="Times,serif" font-size="14.00" fill="#000000">values</text>
</g>
<!-- initializer/matrix_mult/multiply/compose_rows_1 -->
<!-- initializer/matrix_mult/multiply/compose_rows_1&#45;&gt;/matrix_mult/multiply/compose_rows -->
<g id="edge5" class="edge">
<title>initializer/matrix_mult/multiply/compose_rows_1&#45;&gt;/matrix_mult/multiply/compose_rows:n</title>
<path fill="none" stroke="#0000ff" stroke-dasharray="1,5" d="M829.8902,-292.8877C802.7802,-282.9809 779.4657,-267.1128 774.5314,-241.6963"/>
<polygon fill="#0000ff" stroke="#0000ff" points="777.9917,-241.1086 773.5707,-231.4802 771.0224,-241.764 777.9917,-241.1086"/>
<text text-anchor="middle" x="789.0707" y="-253.2802" font-family="Times,serif" font-size="14.00" fill="#000000">[]</text>
</g>
<!-- /matrix_mult/multiply/compose_matrix&#45;&gt;/matrix_mult/multiply/product -->
<g id="edge24" class="edge">
<title>/matrix_mult/multiply/compose_matrix:se&#45;&gt;/matrix_mult/multiply/product:n</title>
<path fill="none" stroke="#000000" d="M471.5707,-73.8701C481.8059,-63.6348 475.7287,-55.2937 472.8376,-43.1358"/>
<polygon fill="#000000" stroke="#000000" points="476.284,-42.4887 471.5707,-33 469.3381,-43.3569 476.284,-42.4887"/>
<text text-anchor="middle" x="453.9504" y="-55.9233" font-family="Times,serif" font-size="14.00" fill="#000000">chunk</text>
</g>
<!-- /matrix_mult/multiply/compose_matrix&#45;&gt;/matrix_mult/multiply/compose_matrix -->
<g id="edge20" class="edge">
<title>/matrix_mult/multiply/compose_matrix:s&#45;&gt;/matrix_mult/multiply/compose_matrix:n</title>
<path fill="none" stroke="#000000" d="M445.5707,-72.8701C482.9191,-67.3701 557.6159,-67.3701 557.6159,-99.8701 557.6159,-129.6406 494.9389,-132.1408 455.7046,-128.1234"/>
<polygon fill="#000000" stroke="#000000" points="455.9247,-124.6241 445.5707,-126.8701 455.0654,-131.5711 455.9247,-124.6241"/>
<text text-anchor="middle" x="421.6254" y="-61.662" font-family="Times,serif" font-size="14.00" fill="#000000">partial</text>
<text text-anchor="middle" x="469.5707" y="-130.6701" font-family="Times,serif" font-size="14.00" fill="#000000">partial</text>
</g>
<!-- /matrix_mult/multiply/compose_matrix&#45;&gt;/matrix_mult/multiply/compose_matrix -->
<g id="edge21" class="edge">
<title>/matrix_mult/multiply/compose_matrix:s&#45;&gt;/matrix_mult/multiply/compose_matrix:n</title>
<path fill="none" stroke="#000000" d="M445.5707,-72.8701C488.9191,-61.8701 575.6159,-61.8701 575.6159,-99.8701 575.6159,-135.124 500.9967,-137.6716 455.5985,-129.0723"/>
<polygon fill="#000000" stroke="#000000" points="456.0887,-125.5966 445.5707,-126.8701 454.5871,-132.4337 456.0887,-125.5966"/>
<text text-anchor="middle" x="484.6024" y="-61.662" font-family="Times,serif" font-size="14.00" fill="#000000">chunk_size</text>
<text text-anchor="middle" x="484.5707" y="-130.6701" font-family="Times,serif" font-size="14.00" fill="#000000">chunk_size</text>
</g>
<!-- initializer/matrix_mult/multiply/compose_matrix_1 -->
<!-- initializer/matrix_mult/multiply/compose_matrix_1&#45;&gt;/matrix_mult/multiply/compose_matrix -->
<g id="edge6" class="edge">
<title>initializer/matrix_mult/multiply/compose_matrix_1&#45;&gt;/matrix_mult/multiply/compose_matrix:n</title>
<path fill="none" stroke="#0000ff" stroke-dasharray="1,5" d="M1006.888,-189.6967C823.5333,-169.7837 515.2985,-136.1068 455.7116,-128.3201"/>
<polygon fill="#0000ff" stroke="#0000ff" points="455.9903,-124.8214 445.5707,-126.7401 454.9126,-131.7379 455.9903,-124.8214"/>
<text text-anchor="middle" x="737.0707" y="-148.5401" font-family="Times,serif" font-size="14.00" fill="#000000">[]</text>
</g>
</g>
</svg>
