<?xml version="1.0" encoding="UTF-8" standalone="no"?>
<!DOCTYPE svg PUBLIC "-//W3C//DTD SVG 1.1//EN"
 "http://www.w3.org/Graphics/SVG/1.1/DTD/svg11.dtd">
<!-- Generated by graphviz version 2.43.0 (0)
 -->
<!-- Title: multiply Pages: 1 -->
<svg width="1142pt" height="714pt"
 viewBox="28.80 28.80 1113.15 685.50" xmlns="http://www.w3.org/2000/svg" xmlns:xlink="http://www.w3.org/1999/xlink">
<g id="page0,1_graph0" class="graph" transform="scale(1 1) rotate(0) translate(32.8 681.5)">
<title>multiply</title>
<polygon fill="white" stroke="transparent" points="-4,4 -4,-652.7 1080.35,-652.7 1080.35,4 -4,4"/>
<text text-anchor="middle" x="538.17" y="-633.5" font-family="Times,serif" font-size="14.00">multiply</text>
<!-- /matrix_mult/multiply/a -->
<g id="node1" class="node">
<title>/matrix_mult/multiply/a</title>
<polygon fill="white" stroke="black" points="127.32,-613.26 100.32,-625.7 73.32,-613.26 73.34,-593.14 127.29,-593.14 127.32,-613.26"/>
<text text-anchor="middle" x="100.32" y="-604" font-family="Times,serif" font-size="14.00">a</text>
</g>
<!-- /matrix_mult/multiply/a_info -->
<g id="node5" class="node">
<title>/matrix_mult/multiply/a_info</title>
<g id="a_node5"><a xlink:href="../../flowstdlib/data/info/info.html" xlink:title="a_info\n(info)">
<ellipse fill="coral" stroke="black" cx="62.32" cy="-454.09" rx="41.94" ry="26.74"/>
<text text-anchor="middle" x="62.32" y="-457.89" font-family="Times,serif" font-size="14.00">a_info</text>
<text text-anchor="middle" x="62.32" y="-442.89" font-family="Times,serif" font-size="14.00">(info)</text>
</a>
</g>
</g>
<!-- /matrix_mult/multiply/a&#45;&gt;/matrix_mult/multiply/a_info -->
<g id="edge4" class="edge">
<title>/matrix_mult/multiply/a:s&#45;&gt;/matrix_mult/multiply/a_info:w</title>
<path fill="none" stroke="black" d="M100.32,-591.7C100.32,-524.75 -34.92,-461.65 9.34,-454.72"/>
<polygon fill="black" stroke="black" points="9.56,-458.21 19.32,-454.09 9.12,-451.23 9.56,-458.21"/>
</g>
<!-- /matrix_mult/multiply/duplicate_rows -->
<g id="node6" class="node">
<title>/matrix_mult/multiply/duplicate_rows</title>
<g id="a_node6"><a xlink:href="../../flowstdlib/data/duplicate_rows/duplicate_rows.html" xlink:title="duplicate_rows">
<ellipse fill="coral" stroke="black" cx="192.32" cy="-391.22" rx="80.69" ry="18"/>
<text text-anchor="middle" x="192.32" y="-387.52" font-family="Times,serif" font-size="14.00">duplicate_rows</text>
</a>
</g>
</g>
<!-- /matrix_mult/multiply/a&#45;&gt;/matrix_mult/multiply/duplicate_rows -->
<g id="edge5" class="edge">
<title>/matrix_mult/multiply/a:s&#45;&gt;/matrix_mult/multiply/duplicate_rows:w</title>
<path fill="none" stroke="black" d="M100.32,-591.7C100.32,-582.54 104.07,-580.78 105.32,-571.7 105.9,-567.45 105.47,-438.39 108.48,-401.17"/>
<polygon fill="black" stroke="black" points="111.94,-401.69 110.32,-391.22 105.06,-400.42 111.94,-401.69"/>
</g>
<!-- /matrix_mult/multiply/b -->
<g id="node2" class="node">
<title>/matrix_mult/multiply/b</title>
<polygon fill="white" stroke="black" points="322.32,-613.26 295.32,-625.7 268.32,-613.26 268.34,-593.14 322.29,-593.14 322.32,-613.26"/>
<text text-anchor="middle" x="295.32" y="-604" font-family="Times,serif" font-size="14.00">b</text>
</g>
<!-- /matrix_mult/multiply/b_info -->
<g id="node4" class="node">
<title>/matrix_mult/multiply/b_info</title>
<g id="a_node4"><a xlink:href="../../flowstdlib/data/info/info.html" xlink:title="b_info\n(info)">
<ellipse fill="coral" stroke="black" cx="287.32" cy="-525.83" rx="41.94" ry="26.74"/>
<text text-anchor="middle" x="287.32" y="-529.63" font-family="Times,serif" font-size="14.00">b_info</text>
<text text-anchor="middle" x="287.32" y="-514.63" font-family="Times,serif" font-size="14.00">(info)</text>
</a>
</g>
</g>
<!-- /matrix_mult/multiply/b&#45;&gt;/matrix_mult/multiply/b_info -->
<g id="edge3" class="edge">
<title>/matrix_mult/multiply/b:s&#45;&gt;/matrix_mult/multiply/b_info:w</title>
<path fill="none" stroke="black" d="M295.32,-591.7C295.32,-563.52 258.15,-577.79 245.32,-552.7 242.34,-546.88 238.75,-539.39 238.06,-533.8"/>
<polygon fill="black" stroke="black" points="240.89,-535.86 244.32,-525.83 235.39,-531.53 240.89,-535.86"/>
</g>
<!-- /matrix_mult/multiply/transpose -->
<g id="node7" class="node">
<title>/matrix_mult/multiply/transpose</title>
<g id="a_node7"><a xlink:href="../../flowstdlib/data/transpose/transpose.html" xlink:title="transpose">
<ellipse fill="coral" stroke="black" cx="403.32" cy="-525.83" rx="56.59" ry="18"/>
<text text-anchor="middle" x="403.32" y="-522.13" font-family="Times,serif" font-size="14.00">transpose</text>
</a>
</g>
</g>
<!-- /matrix_mult/multiply/b&#45;&gt;/matrix_mult/multiply/transpose -->
<g id="edge6" class="edge">
<title>/matrix_mult/multiply/b:s&#45;&gt;/matrix_mult/multiply/transpose:w</title>
<path fill="none" stroke="black" d="M295.32,-591.7C295.32,-565.9 324.95,-574.77 338.32,-552.7 341.71,-547.09 339.99,-539.86 339.49,-534.31"/>
<polygon fill="black" stroke="black" points="342.54,-536.05 345.32,-525.83 336.77,-532.09 342.54,-536.05"/>
</g>
<!-- /matrix_mult/multiply/product -->
<g id="node3" class="node">
<title>/matrix_mult/multiply/product</title>
<polygon fill="black" stroke="black" points="535.63,-12.44 593.32,0 651,-12.44 650.95,-32.56 535.69,-32.56 535.63,-12.44"/>
<text text-anchor="middle" x="593.32" y="-14.3" font-family="Times,serif" font-size="14.00" fill="white">product</text>
</g>
<!-- /matrix_mult/multiply/b_info&#45;&gt;/matrix_mult/multiply/duplicate_rows -->
<g id="edge9" class="edge">
<title>/matrix_mult/multiply/b_info:s&#45;&gt;/matrix_mult/multiply/duplicate_rows:w</title>
<path fill="none" stroke="black" d="M287.32,-498.96C287.32,-455.06 135.28,-446.01 111.32,-409.22 109.75,-406.81 108.14,-403.8 107.1,-400.95"/>
<polygon fill="black" stroke="black" points="110.5,-401.81 110.32,-391.22 103.85,-399.61 110.5,-401.81"/>
<text text-anchor="middle" x="167.69" y="-452.05" font-family="Times,serif" font-size="14.00">columns</text>
<text text-anchor="middle" x="88.82" y="-395.02" font-family="Times,serif" font-size="14.00">factor</text>
</g>
<!-- /matrix_mult/multiply/duplicate -->
<g id="node8" class="node">
<title>/matrix_mult/multiply/duplicate</title>
<g id="a_node8"><a xlink:href="../../flowstdlib/data/duplicate/duplicate.html" xlink:title="duplicate">
<ellipse fill="coral" stroke="black" cx="345.32" cy="-391.22" rx="53.89" ry="18"/>
<text text-anchor="middle" x="345.32" y="-387.52" font-family="Times,serif" font-size="14.00">duplicate</text>
</a>
</g>
</g>
<!-- /matrix_mult/multiply/b_info&#45;&gt;/matrix_mult/multiply/duplicate -->
<g id="edge8" class="edge">
<title>/matrix_mult/multiply/b_info:s&#45;&gt;/matrix_mult/multiply/duplicate:w</title>
<path fill="none" stroke="black" d="M287.32,-498.96C287.32,-489.23 281.39,-424.19 285.59,-400.14"/>
<polygon fill="black" stroke="black" points="288.73,-401.7 290.32,-391.22 282.54,-398.42 288.73,-401.7"/>
<text text-anchor="middle" x="254.48" y="-449.03" font-family="Times,serif" font-size="14.00">columns</text>
<text text-anchor="middle" x="279.57" y="-380.02" font-family="Times,serif" font-size="14.00">factor</text>
</g>
<!-- /matrix_mult/multiply/compose_rows -->
<g id="node10" class="node">
<title>/matrix_mult/multiply/compose_rows</title>
<g id="a_node10"><a xlink:href="../../flowstdlib/data/accumulate/accumulate.html" xlink:title="compose_rows\n(accumulate)">
<ellipse fill="coral" stroke="black" cx="447.32" cy="-204.61" rx="84.71" ry="26.74"/>
<text text-anchor="middle" x="447.32" y="-208.41" font-family="Times,serif" font-size="14.00">compose_rows</text>
<text text-anchor="middle" x="447.32" y="-193.41" font-family="Times,serif" font-size="14.00">(accumulate)</text>
</a>
</g>
</g>
<!-- /matrix_mult/multiply/b_info&#45;&gt;/matrix_mult/multiply/compose_rows -->
<g id="edge15" class="edge">
<title>/matrix_mult/multiply/b_info:s&#45;&gt;/matrix_mult/multiply/compose_rows:n</title>
<path fill="none" stroke="black" d="M287.32,-498.96C287.32,-482.22 399.22,-423.27 408.32,-409.22 450.37,-344.24 447.65,-314.92 447.34,-241.63"/>
<polygon fill="black" stroke="black" points="450.84,-241.47 447.32,-231.48 443.84,-241.49 450.84,-241.47"/>
<text text-anchor="middle" x="447.17" y="-398.76" font-family="Times,serif" font-size="14.00">columns</text>
<text text-anchor="middle" x="408.32" y="-235.28" font-family="Times,serif" font-size="14.00">chunk_size</text>
</g>
<!-- /matrix_mult/multiply/compose_matrix -->
<g id="node12" class="node">
<title>/matrix_mult/multiply/compose_matrix</title>
<g id="a_node12"><a xlink:href="../../flowstdlib/data/accumulate/accumulate.html" xlink:title="compose_matrix\n(accumulate)">
<ellipse fill="coral" stroke="black" cx="567.32" cy="-99.87" rx="94.09" ry="26.74"/>
<text text-anchor="middle" x="567.32" y="-103.67" font-family="Times,serif" font-size="14.00">compose_matrix</text>
<text text-anchor="middle" x="567.32" y="-88.67" font-family="Times,serif" font-size="14.00">(accumulate)</text>
</a>
</g>
</g>
<!-- /matrix_mult/multiply/a_info&#45;&gt;/matrix_mult/multiply/compose_matrix -->
<g id="edge19" class="edge">
<title>/matrix_mult/multiply/a_info:s&#45;&gt;/matrix_mult/multiply/compose_matrix:n</title>
<path fill="none" stroke="black" d="M62.32,-427.22C62.32,-394.62 76.32,-387.82 76.32,-355.22 76.32,-355.22 76.32,-355.22 76.32,-203.61 76.32,-197.29 488.31,-143.84 557.51,-129.6"/>
<polygon fill="black" stroke="black" points="558.7,-132.9 567.32,-126.74 556.74,-126.18 558.7,-132.9"/>
<text text-anchor="middle" x="273.44" y="-173.38" font-family="Times,serif" font-size="14.00">rows</text>
<text text-anchor="middle" x="528.32" y="-130.54" font-family="Times,serif" font-size="14.00">chunk_size</text>
</g>
<!-- /matrix_mult/multiply/multiply -->
<g id="node9" class="node">
<title>/matrix_mult/multiply/multiply</title>
<g id="a_node9"><a xlink:href="../../flowstdlib/data/multiply_row/multiply_row.html" xlink:title="multiply\n(multiply_row)">
<ellipse fill="coral" stroke="black" cx="320.32" cy="-309.35" rx="84.71" ry="26.74"/>
<text text-anchor="middle" x="320.32" y="-313.15" font-family="Times,serif" font-size="14.00">multiply</text>
<text text-anchor="middle" x="320.32" y="-298.15" font-family="Times,serif" font-size="14.00">(multiply_row)</text>
</a>
</g>
</g>
<!-- /matrix_mult/multiply/duplicate_rows&#45;&gt;/matrix_mult/multiply/multiply -->
<g id="edge10" class="edge">
<title>/matrix_mult/multiply/duplicate_rows:e&#45;&gt;/matrix_mult/multiply/multiply:w</title>
<path fill="none" stroke="black" d="M274.32,-391.22C282.33,-391.22 276.64,-380.51 273.32,-373.22 263.55,-351.77 244.89,-357.76 235.32,-336.22 232.74,-330.42 229.25,-323.2 228.33,-317.7"/>
<polygon fill="black" stroke="black" points="231.33,-319.52 234.32,-309.35 225.65,-315.44 231.33,-319.52"/>
<text text-anchor="middle" x="229.82" y="-313.15" font-family="Times,serif" font-size="14.00">a</text>
</g>
<!-- /matrix_mult/multiply/transpose&#45;&gt;/matrix_mult/multiply/duplicate -->
<g id="edge7" class="edge">
<title>/matrix_mult/multiply/transpose:e&#45;&gt;/matrix_mult/multiply/duplicate:n</title>
<path fill="none" stroke="black" d="M461.32,-525.83C469.33,-525.83 463.87,-515.01 460.32,-507.83 432.13,-450.76 354.47,-473.64 346.06,-419.43"/>
<polygon fill="black" stroke="black" points="349.53,-418.94 345.32,-409.22 342.55,-419.45 349.53,-418.94"/>
<text text-anchor="middle" x="325.82" y="-413.02" font-family="Times,serif" font-size="14.00">value</text>
</g>
<!-- /matrix_mult/multiply/duplicate&#45;&gt;/matrix_mult/multiply/multiply -->
<g id="edge11" class="edge">
<title>/matrix_mult/multiply/duplicate:e&#45;&gt;/matrix_mult/multiply/multiply:nw</title>
<path fill="none" stroke="black" d="M400.32,-391.22C408.33,-391.22 404.13,-379.63 399.32,-373.22 372.4,-337.35 279.3,-364.84 288.12,-344.27"/>
<polygon fill="black" stroke="black" points="290.99,-346.28 294.32,-336.22 285.44,-342.01 290.99,-346.28"/>
<text text-anchor="middle" x="289.32" y="-340.02" font-family="Times,serif" font-size="14.00">b</text>
</g>
<!-- /matrix_mult/multiply/multiply&#45;&gt;/matrix_mult/multiply/compose_rows -->
<g id="edge14" class="edge">
<title>/matrix_mult/multiply/multiply:e&#45;&gt;/matrix_mult/multiply/compose_rows:w</title>
<path fill="none" stroke="black" d="M406.32,-309.35C451.84,-309.35 338.34,-224.81 351.56,-207.63"/>
<polygon fill="black" stroke="black" points="352.8,-210.91 361.32,-204.61 350.73,-204.23 352.8,-210.91"/>
<text text-anchor="middle" x="338.32" y="-208.41" font-family="Times,serif" font-size="14.00">values</text>
</g>
<!-- /matrix_mult/multiply/compose_rows&#45;&gt;/matrix_mult/multiply/compose_rows -->
<g id="edge12" class="edge">
<title>/matrix_mult/multiply/compose_rows:s&#45;&gt;/matrix_mult/multiply/compose_rows:n</title>
<path fill="none" stroke="black" d="M447.32,-177.61C481.6,-171.11 550.17,-171.11 550.17,-204.61 550.17,-235.1 493.37,-237.84 457.31,-233.19"/>
<polygon fill="black" stroke="black" points="457.74,-229.71 447.32,-231.61 456.65,-236.62 457.74,-229.71"/>
<text text-anchor="middle" x="471.34" y="-166.41" font-family="Times,serif" font-size="14.00">partial</text>
<text text-anchor="middle" x="471.32" y="-235.41" font-family="Times,serif" font-size="14.00">partial</text>
</g>
<!-- /matrix_mult/multiply/compose_rows&#45;&gt;/matrix_mult/multiply/compose_rows -->
<g id="edge13" class="edge">
<title>/matrix_mult/multiply/compose_rows:s&#45;&gt;/matrix_mult/multiply/compose_rows:n</title>
<path fill="none" stroke="black" d="M447.32,-177.61C487.6,-164.61 568.17,-164.61 568.17,-204.61 568.17,-241.56 499.41,-244.38 457.17,-234.34"/>
<polygon fill="black" stroke="black" points="457.89,-230.91 447.32,-231.61 456.02,-237.66 457.89,-230.91"/>
<text text-anchor="middle" x="408.33" y="-166.41" font-family="Times,serif" font-size="14.00">chunk_size</text>
<text text-anchor="middle" x="486.32" y="-235.41" font-family="Times,serif" font-size="14.00">chunk_size</text>
</g>
<!-- /matrix_mult/multiply/compose_rows&#45;&gt;/matrix_mult/multiply/compose_matrix -->
<g id="edge18" class="edge">
<title>/matrix_mult/multiply/compose_rows:se&#45;&gt;/matrix_mult/multiply/compose_matrix:w</title>
<path fill="none" stroke="black" d="M473.32,-177.74C494.16,-156.9 453.68,-115.08 462.58,-103.13"/>
<polygon fill="black" stroke="black" points="463.95,-106.36 472.32,-99.87 461.72,-99.73 463.95,-106.36"/>
<text text-anchor="middle" x="450.89" y="-140.82" font-family="Times,serif" font-size="14.00">chunk</text>
<text text-anchor="middle" x="449.32" y="-103.67" font-family="Times,serif" font-size="14.00">values</text>
</g>
<!-- initializer/matrix_mult/multiply/compose_rows_1 -->
<!-- initializer/matrix_mult/multiply/compose_rows_1&#45;&gt;/matrix_mult/multiply/compose_rows -->
<g id="edge1" class="edge">
<title>initializer/matrix_mult/multiply/compose_rows_1&#45;&gt;/matrix_mult/multiply/compose_rows:n</title>
<path fill="none" stroke="blue" stroke-dasharray="1,5" d="M582.74,-293.62C524.32,-283.2 463.03,-266.54 449.89,-241.5"/>
<polygon fill="blue" stroke="blue" points="453.19,-240.3 447.32,-231.48 446.41,-242.04 453.19,-240.3"/>
<text text-anchor="middle" x="484.82" y="-253.28" font-family="Times,serif" font-size="14.00">[]</text>
</g>
<!-- /matrix_mult/multiply/compose_matrix&#45;&gt;/matrix_mult/multiply/product -->
<g id="edge20" class="edge">
<title>/matrix_mult/multiply/compose_matrix:se&#45;&gt;/matrix_mult/multiply/product:n</title>
<path fill="none" stroke="black" d="M593.32,-73C602.99,-63.33 597.4,-55.43 594.61,-44.01"/>
<polygon fill="black" stroke="black" points="598.07,-43.47 593.32,-34 591.12,-44.37 598.07,-43.47"/>
<text text-anchor="middle" x="575.59" y="-56.27" font-family="Times,serif" font-size="14.00">chunk</text>
</g>
<!-- /matrix_mult/multiply/compose_matrix&#45;&gt;/matrix_mult/multiply/compose_matrix -->
<g id="edge16" class="edge">
<title>/matrix_mult/multiply/compose_matrix:s&#45;&gt;/matrix_mult/multiply/compose_matrix:n</title>
<path fill="none" stroke="black" d="M567.32,-72.87C604.67,-67.37 679.36,-67.37 679.36,-99.87 679.36,-129.64 616.69,-132.14 577.45,-128.12"/>
<polygon fill="black" stroke="black" points="577.67,-124.62 567.32,-126.87 576.81,-131.57 577.67,-124.62"/>
<text text-anchor="middle" x="543.37" y="-61.66" font-family="Times,serif" font-size="14.00">partial</text>
<text text-anchor="middle" x="591.32" y="-130.67" font-family="Times,serif" font-size="14.00">partial</text>
</g>
<!-- /matrix_mult/multiply/compose_matrix&#45;&gt;/matrix_mult/multiply/compose_matrix -->
<g id="edge17" class="edge">
<title>/matrix_mult/multiply/compose_matrix:s&#45;&gt;/matrix_mult/multiply/compose_matrix:n</title>
<path fill="none" stroke="black" d="M567.32,-72.87C610.67,-61.87 697.36,-61.87 697.36,-99.87 697.36,-135.12 622.74,-137.67 577.35,-129.07"/>
<polygon fill="black" stroke="black" points="577.84,-125.6 567.32,-126.87 576.33,-132.43 577.84,-125.6"/>
<text text-anchor="middle" x="606.35" y="-61.66" font-family="Times,serif" font-size="14.00">chunk_size</text>
<text text-anchor="middle" x="606.32" y="-130.67" font-family="Times,serif" font-size="14.00">chunk_size</text>
</g>
<!-- initializer/matrix_mult/multiply/compose_matrix_1 -->
<!-- initializer/matrix_mult/multiply/compose_matrix_1&#45;&gt;/matrix_mult/multiply/compose_matrix -->
<g id="edge2" class="edge">
<title>initializer/matrix_mult/multiply/compose_matrix_1&#45;&gt;/matrix_mult/multiply/compose_matrix:n</title>
<path fill="none" stroke="blue" stroke-dasharray="1,5" d="M705.5,-189.15C644.94,-178.95 582.65,-162.41 569.74,-136.65"/>
<polygon fill="blue" stroke="blue" points="573.09,-135.62 567.32,-126.74 566.29,-137.29 573.09,-135.62"/>
<text text-anchor="middle" x="600.82" y="-148.54" font-family="Times,serif" font-size="14.00">[]</text>
</g>
</g>
</svg>
