<?xml version="1.0" encoding="UTF-8" standalone="no"?>
<!DOCTYPE svg PUBLIC "-//W3C//DTD SVG 1.1//EN"
 "http://www.w3.org/Graphics/SVG/1.1/DTD/svg11.dtd">
<!-- Generated by graphviz version 2.44.0 (20200408.0750)
 -->
<!-- Title: multiply Pages: 1 -->
<svg width="1234pt" height="761pt"
 viewBox="28.80 28.80 1205.09 732.50" xmlns="http://www.w3.org/2000/svg" xmlns:xlink="http://www.w3.org/1999/xlink">
<g id="graph0" class="graph" transform="scale(1 1) rotate(0) translate(32.8 728.5)">
<title>multiply</title>
<polygon fill="white" stroke="transparent" points="-4,4 -4,-699.7 1172.29,-699.7 1172.29,4 -4,4"/>
<text text-anchor="middle" x="584.14" y="-680.5" font-family="Times,serif" font-size="14.00">multiply</text>
<!-- /matrix_mult/multiply/a -->
<g id="node1" class="node">
<title>/matrix_mult/multiply/a</title>
<polygon fill="white" stroke="black" points="233.96,-660.26 206.96,-672.7 179.96,-660.26 179.98,-640.14 233.93,-640.14 233.96,-660.26"/>
<text text-anchor="middle" x="206.96" y="-651" font-family="Times,serif" font-size="14.00">a</text>
</g>
<!-- /matrix_mult/multiply/a_info -->
<g id="node6" class="node">
<title>/matrix_mult/multiply/a_info</title>
<g id="a_node6"><a xlink:href="../../flowstdlib/data/info/info.toml" xlink:title="a_info\n(Info)">
<ellipse fill="coral" stroke="black" cx="242.96" cy="-504.83" rx="36.12" ry="26.74"/>
<text text-anchor="middle" x="242.96" y="-508.63" font-family="Times,serif" font-size="14.00">a_info</text>
<text text-anchor="middle" x="242.96" y="-493.63" font-family="Times,serif" font-size="14.00">(Info)</text>
</a>
</g>
</g>
<!-- /matrix_mult/multiply/a&#45;&gt;/matrix_mult/multiply/a_info -->
<g id="edge8" class="edge">
<title>/matrix_mult/multiply/a:s&#45;&gt;/matrix_mult/multiply/a_info:w</title>
<path fill="none" stroke="black" d="M206.96,-638.7C206.96,-603.31 72.36,-645.25 48.96,-618.7 -40.5,-517.21 -13.63,-505.19 195.84,-504.84"/>
<polygon fill="black" stroke="black" points="195.96,-508.34 205.96,-504.83 195.95,-501.34 195.96,-508.34"/>
</g>
<!-- /matrix_mult/multiply/duplicate_rows -->
<g id="node8" class="node">
<title>/matrix_mult/multiply/duplicate_rows</title>
<g id="a_node8"><a xlink:href="../../flowstdlib/data/duplicate_rows/duplicate_rows.toml" xlink:title="duplicate_rows\n(DuplicateRows)">
<ellipse fill="coral" stroke="black" cx="556.96" cy="-400.09" rx="77.15" ry="26.74"/>
<text text-anchor="middle" x="556.96" y="-403.89" font-family="Times,serif" font-size="14.00">duplicate_rows</text>
<text text-anchor="middle" x="556.96" y="-388.89" font-family="Times,serif" font-size="14.00">(DuplicateRows)</text>
</a>
</g>
</g>
<!-- /matrix_mult/multiply/a&#45;&gt;/matrix_mult/multiply/duplicate_rows -->
<g id="edge9" class="edge">
<title>/matrix_mult/multiply/a:s&#45;&gt;/matrix_mult/multiply/duplicate_rows:w</title>
<path fill="none" stroke="black" d="M206.96,-638.7C206.96,-603.31 339.06,-642.83 364.96,-618.7 411.61,-575.22 361.51,-533.44 392.96,-477.96 416.64,-436.17 426.08,-404.66 468.96,-400.55"/>
<polygon fill="black" stroke="black" points="469.13,-404.04 478.96,-400.09 468.81,-397.05 469.13,-404.04"/>
</g>
<!-- /matrix_mult/multiply/b -->
<g id="node2" class="node">
<title>/matrix_mult/multiply/b</title>
<polygon fill="white" stroke="black" points="974.96,-660.26 947.96,-672.7 920.96,-660.26 920.98,-640.14 974.93,-640.14 974.96,-660.26"/>
<text text-anchor="middle" x="947.96" y="-651" font-family="Times,serif" font-size="14.00">b</text>
</g>
<!-- /matrix_mult/multiply/b_info -->
<g id="node4" class="node">
<title>/matrix_mult/multiply/b_info</title>
<g id="a_node4"><a xlink:href="../../flowstdlib/data/info/info.toml" xlink:title="b_info\n(Info)">
<ellipse fill="coral" stroke="black" cx="984.96" cy="-504.83" rx="36.54" ry="26.74"/>
<text text-anchor="middle" x="984.96" y="-508.63" font-family="Times,serif" font-size="14.00">b_info</text>
<text text-anchor="middle" x="984.96" y="-493.63" font-family="Times,serif" font-size="14.00">(Info)</text>
</a>
</g>
</g>
<!-- /matrix_mult/multiply/b&#45;&gt;/matrix_mult/multiply/b_info -->
<g id="edge7" class="edge">
<title>/matrix_mult/multiply/b:s&#45;&gt;/matrix_mult/multiply/b_info:w</title>
<path fill="none" stroke="black" d="M947.96,-638.7C947.96,-603.09 1083.4,-645.41 1106.96,-618.7 1117.54,-606.7 1116.38,-595.63 1106.96,-582.7 1106.61,-582.23 948.31,-532.16 947.96,-531.7 943.78,-526.2 940.1,-518.07 940.06,-512.2"/>
<polygon fill="black" stroke="black" points="942.68,-514.52 946.96,-504.83 937.57,-509.74 942.68,-514.52"/>
</g>
<!-- /matrix_mult/multiply/transpose -->
<g id="node10" class="node">
<title>/matrix_mult/multiply/transpose</title>
<g id="a_node10"><a xlink:href="../../flowstdlib/data/transpose/transpose.toml" xlink:title="transpose\n(Transpose)">
<ellipse fill="coral" stroke="black" cx="832.96" cy="-504.83" rx="57.05" ry="26.74"/>
<text text-anchor="middle" x="832.96" y="-508.63" font-family="Times,serif" font-size="14.00">transpose</text>
<text text-anchor="middle" x="832.96" y="-493.63" font-family="Times,serif" font-size="14.00">(Transpose)</text>
</a>
</g>
</g>
<!-- /matrix_mult/multiply/b&#45;&gt;/matrix_mult/multiply/transpose -->
<g id="edge10" class="edge">
<title>/matrix_mult/multiply/b:s&#45;&gt;/matrix_mult/multiply/transpose:w</title>
<path fill="none" stroke="black" d="M947.96,-638.7C947.96,-603.09 814.57,-643.44 788.96,-618.7 785.23,-615.1 773.44,-542.18 772.58,-514.96"/>
<polygon fill="black" stroke="black" points="776.08,-515.21 773.96,-504.83 769.14,-514.27 776.08,-515.21"/>
</g>
<!-- /matrix_mult/multiply/product -->
<g id="node3" class="node">
<title>/matrix_mult/multiply/product</title>
<polygon fill="black" stroke="black" points="359.26,-12.44 405.96,0 452.65,-12.44 452.6,-32.56 359.31,-32.56 359.26,-12.44"/>
<text text-anchor="middle" x="405.96" y="-14.3" font-family="Times,serif" font-size="14.00" fill="white">product</text>
</g>
<!-- /matrix_mult/multiply/b_info&#45;&gt;/matrix_mult/multiply/duplicate_rows -->
<g id="edge13" class="edge">
<title>/matrix_mult/multiply/b_info:s&#45;&gt;/matrix_mult/multiply/duplicate_rows:w</title>
<path fill="none" stroke="black" d="M984.96,-477.96C984.96,-449.76 499.25,-447.52 479.96,-426.96 475.1,-421.79 471.44,-413.28 471.78,-407.23"/>
<polygon fill="black" stroke="black" points="474.33,-409.62 478.96,-400.09 469.4,-404.66 474.33,-409.62"/>
<text text-anchor="middle" x="708.21" y="-452.97" font-family="Times,serif" font-size="14.00">columns</text>
<text text-anchor="middle" x="462.96" y="-403.89" font-family="Times,serif" font-size="14.00">factor</text>
</g>
<!-- /matrix_mult/multiply/duplicate -->
<g id="node12" class="node">
<title>/matrix_mult/multiply/duplicate</title>
<g id="a_node12"><a xlink:href="../../flowstdlib/data/duplicate/duplicate.toml" xlink:title="duplicate\n(Duplicate)">
<ellipse fill="coral" stroke="black" cx="880.96" cy="-400.09" rx="55.31" ry="26.74"/>
<text text-anchor="middle" x="880.96" y="-403.89" font-family="Times,serif" font-size="14.00">duplicate</text>
<text text-anchor="middle" x="880.96" y="-388.89" font-family="Times,serif" font-size="14.00">(Duplicate)</text>
</a>
</g>
</g>
<!-- /matrix_mult/multiply/b_info&#45;&gt;/matrix_mult/multiply/duplicate -->
<g id="edge12" class="edge">
<title>/matrix_mult/multiply/b_info:s&#45;&gt;/matrix_mult/multiply/duplicate:w</title>
<path fill="none" stroke="black" d="M984.96,-477.96C984.96,-450.59 958.51,-454.76 932.96,-444.96 887.93,-427.7 857.78,-463.19 825.96,-426.96 821.27,-421.63 817.59,-413.16 817.86,-407.15"/>
<polygon fill="black" stroke="black" points="820.34,-409.63 824.96,-400.09 815.4,-404.67 820.34,-409.63"/>
<text text-anchor="middle" x="881.41" y="-443.7" font-family="Times,serif" font-size="14.00">columns</text>
<text text-anchor="middle" x="808.96" y="-403.89" font-family="Times,serif" font-size="14.00">factor</text>
</g>
<!-- /matrix_mult/multiply/compose_rows -->
<g id="node14" class="node">
<title>/matrix_mult/multiply/compose_rows</title>
<g id="a_node14"><a xlink:href="../../flowstdlib/data/accumulate/accumulate.toml" xlink:title="compose_rows\n(Accumulate)">
<ellipse fill="coral" stroke="black" cx="668.96" cy="-204.61" rx="69.09" ry="26.74"/>
<text text-anchor="middle" x="668.96" y="-208.41" font-family="Times,serif" font-size="14.00">compose_rows</text>
<text text-anchor="middle" x="668.96" y="-193.41" font-family="Times,serif" font-size="14.00">(Accumulate)</text>
</a>
</g>
</g>
<!-- /matrix_mult/multiply/b_info&#45;&gt;/matrix_mult/multiply/compose_rows -->
<g id="edge19" class="edge">
<title>/matrix_mult/multiply/b_info:s&#45;&gt;/matrix_mult/multiply/compose_rows:n</title>
<path fill="none" stroke="black" d="M984.96,-477.96C984.96,-391.06 1037.9,-348.12 980.96,-282.48 959.91,-258.23 716.66,-265.05 675.01,-239.57"/>
<polygon fill="black" stroke="black" points="677.75,-237.39 668.96,-231.48 672.14,-241.59 677.75,-237.39"/>
<text text-anchor="middle" x="812.26" y="-265.29" font-family="Times,serif" font-size="14.00">columns</text>
<text text-anchor="middle" x="638.46" y="-235.28" font-family="Times,serif" font-size="14.00">chunk_size</text>
</g>
<!-- initializer/matrix_mult/multiply/b_info_0 -->
<!-- initializer/matrix_mult/multiply/b_info_0&#45;&gt;/matrix_mult/multiply/b_info -->
<g id="edge1" class="edge">
<title>initializer/matrix_mult/multiply/b_info_0&#45;&gt;/matrix_mult/multiply/b_info:w</title>
<path fill="none" stroke="blue" stroke-dasharray="1,5" d="M940.9,-582.3C932.08,-558.55 920.07,-517.73 937.02,-507.31"/>
<polygon fill="blue" stroke="blue" points="938.1,-510.65 946.96,-504.83 936.41,-503.86 938.1,-510.65"/>
<text text-anchor="middle" x="966.96" y="-553.5" font-family="Times,serif" font-size="14.00">[[5,6],[7,8]]</text>
</g>
<!-- /matrix_mult/multiply/compose_matrix -->
<g id="node16" class="node">
<title>/matrix_mult/multiply/compose_matrix</title>
<g id="a_node16"><a xlink:href="../../flowstdlib/data/accumulate/accumulate.toml" xlink:title="compose_matrix\n(Accumulate)">
<ellipse fill="coral" stroke="black" cx="379.96" cy="-99.87" rx="76.24" ry="26.74"/>
<text text-anchor="middle" x="379.96" y="-103.67" font-family="Times,serif" font-size="14.00">compose_matrix</text>
<text text-anchor="middle" x="379.96" y="-88.67" font-family="Times,serif" font-size="14.00">(Accumulate)</text>
</a>
</g>
</g>
<!-- /matrix_mult/multiply/a_info&#45;&gt;/matrix_mult/multiply/compose_matrix -->
<g id="edge23" class="edge">
<title>/matrix_mult/multiply/a_info:s&#45;&gt;/matrix_mult/multiply/compose_matrix:n</title>
<path fill="none" stroke="black" d="M242.96,-477.96C242.96,-422.6 340.96,-456.45 340.96,-401.09 340.96,-401.09 340.96,-401.09 340.96,-203.61 340.96,-169.04 372.71,-165.46 378.91,-136.95"/>
<polygon fill="black" stroke="black" points="382.42,-137.04 379.96,-126.74 375.46,-136.33 382.42,-137.04"/>
<text text-anchor="middle" x="327.46" y="-380.21" font-family="Times,serif" font-size="14.00">rows</text>
<text text-anchor="middle" x="349.46" y="-130.54" font-family="Times,serif" font-size="14.00">chunk_size</text>
</g>
<!-- initializer/matrix_mult/multiply/a_info_0 -->
<!-- initializer/matrix_mult/multiply/a_info_0&#45;&gt;/matrix_mult/multiply/a_info -->
<g id="edge2" class="edge">
<title>initializer/matrix_mult/multiply/a_info_0&#45;&gt;/matrix_mult/multiply/a_info:w</title>
<path fill="none" stroke="blue" stroke-dasharray="1,5" d="M199.9,-582.3C191.08,-558.55 179.07,-517.73 196.02,-507.31"/>
<polygon fill="blue" stroke="blue" points="197.1,-510.65 205.96,-504.83 195.41,-503.86 197.1,-510.65"/>
<text text-anchor="middle" x="225.96" y="-553.5" font-family="Times,serif" font-size="14.00">[[1,2],[3,4]]</text>
</g>
<!-- /matrix_mult/multiply/multiply -->
<g id="node13" class="node">
<title>/matrix_mult/multiply/multiply</title>
<g id="a_node13"><a xlink:href="../../flowstdlib/data/multiply_row/multiply_row.toml" xlink:title="multiply\n(MultiplyRow)">
<ellipse fill="coral" stroke="black" cx="528.96" cy="-309.35" rx="70.01" ry="26.74"/>
<text text-anchor="middle" x="528.96" y="-313.15" font-family="Times,serif" font-size="14.00">multiply</text>
<text text-anchor="middle" x="528.96" y="-298.15" font-family="Times,serif" font-size="14.00">(MultiplyRow)</text>
</a>
</g>
</g>
<!-- /matrix_mult/multiply/duplicate_rows&#45;&gt;/matrix_mult/multiply/multiply -->
<g id="edge14" class="edge">
<title>/matrix_mult/multiply/duplicate_rows:e&#45;&gt;/matrix_mult/multiply/multiply:w</title>
<path fill="none" stroke="black" d="M634.96,-400.09C646.91,-400.09 641.65,-382.36 633.96,-373.22 582.75,-312.41 510.16,-397.03 458.96,-336.22 454.51,-330.94 450.87,-322.78 450.91,-316.84"/>
<polygon fill="black" stroke="black" points="453.65,-319.03 457.96,-309.35 448.55,-314.23 453.65,-319.03"/>
<text text-anchor="middle" x="454.46" y="-313.15" font-family="Times,serif" font-size="14.00">a</text>
</g>
<!-- initializer/matrix_mult/multiply/duplicate_rows_0 -->
<!-- initializer/matrix_mult/multiply/duplicate_rows_0&#45;&gt;/matrix_mult/multiply/duplicate_rows -->
<g id="edge3" class="edge">
<title>initializer/matrix_mult/multiply/duplicate_rows_0&#45;&gt;/matrix_mult/multiply/duplicate_rows:w</title>
<path fill="none" stroke="blue" stroke-dasharray="1,5" d="M555.68,-486.93C515.24,-460.18 444.81,-410.19 468.93,-401.42"/>
<polygon fill="blue" stroke="blue" points="469.5,-404.87 478.96,-400.09 468.58,-397.93 469.5,-404.87"/>
<text text-anchor="middle" x="546.96" y="-448.76" font-family="Times,serif" font-size="14.00">[[1,2],[3,4]]</text>
</g>
<!-- /matrix_mult/multiply/transpose&#45;&gt;/matrix_mult/multiply/duplicate -->
<g id="edge11" class="edge">
<title>/matrix_mult/multiply/transpose:e&#45;&gt;/matrix_mult/multiply/duplicate:n</title>
<path fill="none" stroke="black" d="M891.96,-504.83C903.91,-504.83 892.33,-489.83 890.96,-477.96 888.73,-458.78 883.24,-452.17 881.5,-437.02"/>
<polygon fill="black" stroke="black" points="884.99,-436.76 880.96,-426.96 878,-437.13 884.99,-436.76"/>
<text text-anchor="middle" x="895.96" y="-430.76" font-family="Times,serif" font-size="14.00">value</text>
</g>
<!-- initializer/matrix_mult/multiply/transpose_0 -->
<!-- initializer/matrix_mult/multiply/transpose_0&#45;&gt;/matrix_mult/multiply/transpose -->
<g id="edge4" class="edge">
<title>initializer/matrix_mult/multiply/transpose_0&#45;&gt;/matrix_mult/multiply/transpose:w</title>
<path fill="none" stroke="blue" stroke-dasharray="1,5" d="M622.28,-582.76C642.4,-572.08 669.66,-558.67 694.96,-549.7 728.08,-537.95 749.11,-558.41 771.96,-531.7 773.07,-530.4 772.59,-521.85 772.52,-514.73"/>
<polygon fill="blue" stroke="blue" points="775.99,-515.23 773.96,-504.83 769.06,-514.23 775.99,-515.23"/>
<text text-anchor="middle" x="727.96" y="-553.5" font-family="Times,serif" font-size="14.00">[[5,6],[7,8]]</text>
</g>
<!-- /matrix_mult/multiply/duplicate&#45;&gt;/matrix_mult/multiply/multiply -->
<g id="edge15" class="edge">
<title>/matrix_mult/multiply/duplicate:e&#45;&gt;/matrix_mult/multiply/multiply:nw</title>
<path fill="none" stroke="black" d="M936.96,-400.09C948.91,-400.09 944.19,-381.88 935.96,-373.22 906.38,-342.12 559.79,-363.4 508.4,-344.36"/>
<polygon fill="black" stroke="black" points="511.52,-342.77 503.96,-335.35 505.24,-345.87 511.52,-342.77"/>
<text text-anchor="middle" x="500.46" y="-339.15" font-family="Times,serif" font-size="14.00">b</text>
</g>
<!-- /matrix_mult/multiply/multiply&#45;&gt;/matrix_mult/multiply/compose_rows -->
<g id="edge18" class="edge">
<title>/matrix_mult/multiply/multiply:e&#45;&gt;/matrix_mult/multiply/compose_rows:w</title>
<path fill="none" stroke="black" d="M599.96,-309.35C604.66,-309.35 596.64,-240.87 596.48,-214.65"/>
<polygon fill="black" stroke="black" points="599.96,-215.01 597.96,-204.61 593.04,-213.99 599.96,-215.01"/>
<text text-anchor="middle" x="580.46" y="-208.41" font-family="Times,serif" font-size="14.00">values</text>
</g>
<!-- /matrix_mult/multiply/compose_rows&#45;&gt;/matrix_mult/multiply/compose_rows -->
<g id="edge16" class="edge">
<title>/matrix_mult/multiply/compose_rows:s&#45;&gt;/matrix_mult/multiply/compose_rows:n</title>
<path fill="none" stroke="black" d="M668.96,-177.61C698.05,-171.11 756.25,-171.11 756.25,-204.61 756.25,-234.58 709.68,-237.74 679.03,-233.42"/>
<polygon fill="black" stroke="black" points="679.42,-229.93 668.96,-231.61 678.18,-236.82 679.42,-229.93"/>
<text text-anchor="middle" x="686.48" y="-166.41" font-family="Times,serif" font-size="14.00">partial</text>
<text text-anchor="middle" x="686.46" y="-235.41" font-family="Times,serif" font-size="14.00">partial</text>
</g>
<!-- /matrix_mult/multiply/compose_rows&#45;&gt;/matrix_mult/multiply/compose_rows -->
<g id="edge17" class="edge">
<title>/matrix_mult/multiply/compose_rows:s&#45;&gt;/matrix_mult/multiply/compose_rows:n</title>
<path fill="none" stroke="black" d="M668.96,-177.61C704.05,-164.61 774.25,-164.61 774.25,-204.61 774.25,-241.17 715.6,-244.31 678.72,-234.66"/>
<polygon fill="black" stroke="black" points="679.54,-231.25 668.96,-231.61 677.46,-237.93 679.54,-231.25"/>
<text text-anchor="middle" x="638.47" y="-166.41" font-family="Times,serif" font-size="14.00">chunk_size</text>
<text text-anchor="middle" x="699.46" y="-235.41" font-family="Times,serif" font-size="14.00">chunk_size</text>
</g>
<!-- /matrix_mult/multiply/compose_rows&#45;&gt;/matrix_mult/multiply/compose_matrix -->
<g id="edge22" class="edge">
<title>/matrix_mult/multiply/compose_rows:se&#45;&gt;/matrix_mult/multiply/compose_matrix:w</title>
<path fill="none" stroke="black" d="M693.96,-178.61C817.91,-54.65 420.91,-256.42 302.96,-126.74 298.18,-121.49 294.51,-113 294.82,-106.97"/>
<polygon fill="black" stroke="black" points="297.34,-109.4 301.96,-99.87 292.4,-104.44 297.34,-109.4"/>
<text text-anchor="middle" x="484.43" y="-172.4" font-family="Times,serif" font-size="14.00">chunk</text>
<text text-anchor="middle" x="284.46" y="-103.67" font-family="Times,serif" font-size="14.00">values</text>
</g>
<!-- initializer/matrix_mult/multiply/compose_rows_1 -->
<!-- initializer/matrix_mult/multiply/compose_rows_1&#45;&gt;/matrix_mult/multiply/compose_rows -->
<g id="edge5" class="edge">
<title>initializer/matrix_mult/multiply/compose_rows_1&#45;&gt;/matrix_mult/multiply/compose_rows:n</title>
<path fill="none" stroke="blue" stroke-dasharray="1,5" d="M726.13,-292.47C700.2,-282.39 675.3,-266.39 669.99,-241.47"/>
<polygon fill="blue" stroke="blue" points="673.47,-241.07 668.96,-231.48 666.51,-241.79 673.47,-241.07"/>
<text text-anchor="middle" x="685.96" y="-253.28" font-family="Times,serif" font-size="14.00">[]</text>
</g>
<!-- /matrix_mult/multiply/compose_matrix&#45;&gt;/matrix_mult/multiply/product -->
<g id="edge24" class="edge">
<title>/matrix_mult/multiply/compose_matrix:se&#45;&gt;/matrix_mult/multiply/product:n</title>
<path fill="none" stroke="black" d="M405.96,-73C415.63,-63.33 410.04,-55.43 407.25,-44.01"/>
<polygon fill="black" stroke="black" points="410.71,-43.47 405.96,-34 403.76,-44.37 410.71,-43.47"/>
<text text-anchor="middle" x="392.72" y="-56.27" font-family="Times,serif" font-size="14.00">chunk</text>
</g>
<!-- /matrix_mult/multiply/compose_matrix&#45;&gt;/matrix_mult/multiply/compose_matrix -->
<g id="edge20" class="edge">
<title>/matrix_mult/multiply/compose_matrix:s&#45;&gt;/matrix_mult/multiply/compose_matrix:n</title>
<path fill="none" stroke="black" d="M379.96,-72.87C411.41,-67.37 474.32,-67.37 474.32,-99.87 474.32,-129.2 423.1,-132.06 389.98,-128.3"/>
<polygon fill="black" stroke="black" points="390.35,-124.82 379.96,-126.87 389.36,-131.75 390.35,-124.82"/>
<text text-anchor="middle" x="362.5" y="-61.66" font-family="Times,serif" font-size="14.00">partial</text>
<text text-anchor="middle" x="397.46" y="-130.67" font-family="Times,serif" font-size="14.00">partial</text>
</g>
<!-- /matrix_mult/multiply/compose_matrix&#45;&gt;/matrix_mult/multiply/compose_matrix -->
<g id="edge21" class="edge">
<title>/matrix_mult/multiply/compose_matrix:s&#45;&gt;/matrix_mult/multiply/compose_matrix:n</title>
<path fill="none" stroke="black" d="M379.96,-72.87C417.41,-61.87 492.32,-61.87 492.32,-99.87 492.32,-134.75 429.2,-137.61 389.87,-129.34"/>
<polygon fill="black" stroke="black" points="390.51,-125.89 379.96,-126.87 388.81,-132.68 390.51,-125.89"/>
<text text-anchor="middle" x="410.48" y="-61.66" font-family="Times,serif" font-size="14.00">chunk_size</text>
<text text-anchor="middle" x="410.46" y="-130.67" font-family="Times,serif" font-size="14.00">chunk_size</text>
</g>
<!-- initializer/matrix_mult/multiply/compose_matrix_1 -->
<!-- initializer/matrix_mult/multiply/compose_matrix_1&#45;&gt;/matrix_mult/multiply/compose_matrix -->
<g id="edge6" class="edge">
<title>initializer/matrix_mult/multiply/compose_matrix_1&#45;&gt;/matrix_mult/multiply/compose_matrix:n</title>
<path fill="none" stroke="blue" stroke-dasharray="1,5" d="M866.83,-189.58C837.38,-185.73 805.44,-181.56 775.96,-177.74 735.05,-172.43 427.93,-171.26 384.95,-135.47"/>
<polygon fill="blue" stroke="blue" points="387.96,-133.68 379.96,-126.74 381.88,-137.16 387.96,-133.68"/>
<text text-anchor="middle" x="480.96" y="-148.54" font-family="Times,serif" font-size="14.00">[]</text>
</g>
</g>
</svg>
