<?xml version="1.0" encoding="UTF-8" standalone="no"?>
<!DOCTYPE svg PUBLIC "-//W3C//DTD SVG 1.1//EN"
 "http://www.w3.org/Graphics/SVG/1.1/DTD/svg11.dtd">
<!-- Generated by graphviz version 2.43.0 (0)
 -->
<!-- Title: tokenizer Pages: 1 -->
<svg width="812pt" height="474pt"
 viewBox="0.00 0.00 811.79 474.00" xmlns="http://www.w3.org/2000/svg" xmlns:xlink="http://www.w3.org/1999/xlink">
<g id="graph0" class="graph" transform="scale(1 1) rotate(0) translate(4 470)">
<title>tokenizer</title>
<polygon fill="white" stroke="transparent" points="-4,4 -4,-470 807.79,-470 807.79,4 -4,4"/>
<text text-anchor="middle" x="401.89" y="-450.8" font-family="Times,serif" font-size="14.00">/tokenizer</text>
<!-- r1 -->
<g id="node1" class="node">
<title>r1</title>
<g id="a_node1"><a xlink:href="file:///home/runner/work/flow/flow/flowr/src/cli/stdio/readline.html" xlink:title="readline (#1)">
<ellipse fill="coral" stroke="black" cx="546.39" cy="-425" rx="72.29" ry="18"/>
<text text-anchor="middle" x="546.39" y="-421.3" font-family="Times,serif" font-size="14.00">readline (#1)</text>
</a>
</g>
</g>
<!-- r2 -->
<g id="node2" class="node">
<title>r2</title>
<g id="a_node2"><a xlink:href="file:///home/runner/work/flow/flow/target/flowstdlib/data/split/split.html" xlink:title="split (#2)">
<ellipse fill="coral" stroke="black" cx="500.39" cy="-338" rx="54.69" ry="18"/>
<text text-anchor="middle" x="500.39" y="-334.3" font-family="Times,serif" font-size="14.00">split (#2)</text>
</a>
</g>
</g>
<!-- r1&#45;&gt;r2 -->
<g id="edge1" class="edge">
<title>r1:e&#45;&gt;r2:n</title>
<path fill="none" stroke="black" d="M619.39,-425C627.41,-425 622.98,-413.57 618.39,-407 587.87,-363.26 511.49,-406.54 501.48,-365.99"/>
<polygon fill="black" stroke="black" points="504.96,-365.56 500.39,-356 498,-366.32 504.96,-365.56"/>
<text text-anchor="middle" x="478.89" y="-359.8" font-family="Times,serif" font-size="14.00">string</text>
<text text-anchor="middle" x="643.39" y="-428.8" font-family="Times,serif" font-size="14.00">/string</text>
</g>
<!-- r2&#45;&gt;r2 -->
<g id="edge3" class="edge">
<title>r2:sw&#45;&gt;r2:n</title>
<path fill="none" stroke="black" d="M483.39,-321C441.19,-310.5 373.8,-310.5 373.8,-338.5 373.8,-364.42 446.13,-366.35 490.35,-358.16"/>
<polygon fill="black" stroke="black" points="491.35,-361.52 500.39,-356 489.88,-354.68 491.35,-361.52"/>
<text text-anchor="middle" x="521.89" y="-359.8" font-family="Times,serif" font-size="14.00">string</text>
<text text-anchor="middle" x="457.39" y="-309.8" font-family="Times,serif" font-size="14.00">/partial</text>
</g>
<!-- r6 -->
<g id="node4" class="node">
<title>r6</title>
<g id="a_node4"><a xlink:href="file:///home/runner/work/flow/flow/target/flowstdlib/math/add/add.html" xlink:title="work&#45;counter (#6)">
<ellipse fill="coral" stroke="black" cx="467.39" cy="-251" rx="95.58" ry="18"/>
<text text-anchor="middle" x="467.39" y="-247.3" font-family="Times,serif" font-size="14.00">work&#45;counter (#6)</text>
</a>
</g>
</g>
<!-- r2&#45;&gt;r6 -->
<g id="edge4" class="edge">
<title>r2:sw&#45;&gt;r6:n</title>
<path fill="none" stroke="black" d="M483.39,-320C469.22,-305.83 467.57,-296.18 467.41,-279.24"/>
<polygon fill="black" stroke="black" points="470.9,-279 467.39,-269 463.9,-279 470.9,-279"/>
<text text-anchor="middle" x="460.39" y="-272.8" font-family="Times,serif" font-size="14.00">i1</text>
<text text-anchor="middle" x="503.89" y="-308.8" font-family="Times,serif" font-size="14.00">/delta</text>
</g>
<!-- r5 -->
<g id="node5" class="node">
<title>r5</title>
<g id="a_node5"><a xlink:href="file:///home/runner/work/flow/flow/target/flowstdlib/math/add/add.html" xlink:title="token&#45;counter (#5)">
<ellipse fill="coral" stroke="black" cx="183.39" cy="-251" rx="98.58" ry="18"/>
<text text-anchor="middle" x="183.39" y="-247.3" font-family="Times,serif" font-size="14.00">token&#45;counter (#5)</text>
</a>
</g>
</g>
<!-- r2&#45;&gt;r5 -->
<g id="edge5" class="edge">
<title>r2:e&#45;&gt;r5:n</title>
<path fill="none" stroke="black" d="M556.39,-338C564.41,-338 560.74,-325.97 555.39,-320 495.54,-253.25 445.24,-298.98 356.39,-287 339.86,-284.77 222.94,-287.38 191.28,-275.7"/>
<polygon fill="black" stroke="black" points="193.28,-272.8 183.39,-269 188.75,-278.14 193.28,-272.8"/>
<text text-anchor="middle" x="176.39" y="-272.8" font-family="Times,serif" font-size="14.00">i1</text>
<text text-anchor="middle" x="600.89" y="-341.8" font-family="Times,serif" font-size="14.00">/token&#45;count</text>
</g>
<!-- initializerr2_1 -->
<!-- initializerr2_1&#45;&gt;r2 -->
<g id="edge2" class="edge">
<title>initializerr2_1&#45;&gt;r2:w</title>
<path fill="none" stroke="blue" d="M346.38,-407.42C371.63,-386.72 414.28,-352.7 434.82,-341.61"/>
<polygon fill="blue" stroke="blue" points="436.27,-344.8 444.39,-338 433.8,-338.26 436.27,-344.8"/>
<text text-anchor="middle" x="394.89" y="-377.8" font-family="Times,serif" font-size="14.00">&quot; &quot;</text>
</g>
<!-- r6&#45;&gt;r6 -->
<g id="edge7" class="edge">
<title>r6:e&#45;&gt;r6:ne</title>
<path fill="none" stroke="black" d="M563.39,-251C586.93,-240.5 634.93,-240.5 634.93,-260 634.93,-278.36 551.9,-279.43 495.57,-270.74"/>
<polygon fill="black" stroke="black" points="495.84,-267.23 485.39,-269 494.66,-274.13 495.84,-267.23"/>
<text text-anchor="middle" x="478.39" y="-272.8" font-family="Times,serif" font-size="14.00">i2</text>
</g>
<!-- r0 -->
<g id="node7" class="node">
<title>r0</title>
<g id="a_node7"><a xlink:href="file:///home/runner/work/flow/flow/target/flowstdlib/math/compare/compare.html" xlink:title="compare (#0)">
<ellipse fill="coral" stroke="black" cx="545.39" cy="-164" rx="74.19" ry="18"/>
<text text-anchor="middle" x="545.39" y="-160.3" font-family="Times,serif" font-size="14.00">compare (#0)</text>
</a>
</g>
</g>
<!-- r6&#45;&gt;r0 -->
<g id="edge8" class="edge">
<title>r6:e&#45;&gt;r0:ne</title>
<path fill="none" stroke="black" d="M564.39,-251C591.71,-251 586.78,-213.47 570.05,-189.94"/>
<polygon fill="black" stroke="black" points="572.5,-187.41 563.39,-182 567.14,-191.91 572.5,-187.41"/>
<text text-anchor="middle" x="545.39" y="-185.8" font-family="Times,serif" font-size="14.00">right</text>
</g>
<!-- r5&#45;&gt;r5 -->
<g id="edge10" class="edge">
<title>r5:e&#45;&gt;r5:ne</title>
<path fill="none" stroke="black" d="M282.39,-251C306.18,-240.5 354.18,-240.5 354.18,-260 354.18,-278.4 268.88,-279.44 211.42,-270.68"/>
<polygon fill="black" stroke="black" points="211.83,-267.2 201.39,-269 210.68,-274.11 211.83,-267.2"/>
<text text-anchor="middle" x="194.39" y="-272.8" font-family="Times,serif" font-size="14.00">i2</text>
</g>
<!-- r4 -->
<g id="node9" class="node">
<title>r4</title>
<g id="a_node9"><a xlink:href="file:///home/runner/work/flow/flow/target/flowstdlib/control/tap/tap.html" xlink:title="tap (#4)">
<ellipse fill="coral" stroke="black" cx="353.39" cy="-91" rx="49.29" ry="18"/>
<text text-anchor="middle" x="353.39" y="-87.3" font-family="Times,serif" font-size="14.00">tap (#4)</text>
</a>
</g>
</g>
<!-- r5&#45;&gt;r4 -->
<g id="edge11" class="edge">
<title>r5:e&#45;&gt;r4:n</title>
<path fill="none" stroke="black" d="M283.39,-251C350.32,-251 353.26,-186.19 353.39,-119.31"/>
<polygon fill="black" stroke="black" points="356.89,-119 353.39,-109 349.89,-119 356.89,-119"/>
<text text-anchor="middle" x="337.39" y="-112.8" font-family="Times,serif" font-size="14.00">data</text>
</g>
<!-- initializerr6_1 -->
<!-- initializerr6_1&#45;&gt;r6 -->
<g id="edge6" class="edge">
<title>initializerr6_1&#45;&gt;r6:w</title>
<path fill="none" stroke="blue" stroke-dasharray="1,5" d="M308.27,-320.01C320.95,-299.06 343.39,-264.91 360.82,-254.27"/>
<polygon fill="blue" stroke="blue" points="362.06,-257.55 370.39,-251 359.8,-250.92 362.06,-257.55"/>
<text text-anchor="middle" x="333.39" y="-290.8" font-family="Times,serif" font-size="14.00">1</text>
</g>
<!-- r0&#45;&gt;r4 -->
<g id="edge14" class="edge">
<title>r0:e&#45;&gt;r4:ne</title>
<path fill="none" stroke="black" d="M620.39,-164C628.41,-164 624.79,-151.92 619.39,-146 546.36,-65.92 455.39,-180.52 377.85,-115.83"/>
<polygon fill="black" stroke="black" points="380.13,-113.17 370.39,-109 375.4,-118.33 380.13,-113.17"/>
<text text-anchor="middle" x="395.89" y="-112.8" font-family="Times,serif" font-size="14.00">control</text>
<text text-anchor="middle" x="642.39" y="-167.8" font-family="Times,serif" font-size="14.00">/equal</text>
</g>
<!-- initializerr5_1 -->
<!-- initializerr5_1&#45;&gt;r5 -->
<g id="edge9" class="edge">
<title>initializerr5_1&#45;&gt;r5:w</title>
<path fill="none" stroke="blue" stroke-dasharray="1,5" d="M70.28,-320.01C64.64,-298.67 58.22,-263.63 73.38,-253.7"/>
<polygon fill="blue" stroke="blue" points="74.65,-256.98 83.39,-251 72.83,-250.22 74.65,-256.98"/>
<text text-anchor="middle" x="70.39" y="-290.8" font-family="Times,serif" font-size="14.00">0</text>
</g>
<!-- r3 -->
<g id="node10" class="node">
<title>r3</title>
<g id="a_node10"><a xlink:href="file:///home/runner/work/flow/flow/flowr/src/cli/stdio/stdout.html" xlink:title="stdout (#3)">
<ellipse fill="coral" stroke="black" cx="403.39" cy="-18" rx="63.89" ry="18"/>
<text text-anchor="middle" x="403.39" y="-14.3" font-family="Times,serif" font-size="14.00">stdout (#3)</text>
</a>
</g>
</g>
<!-- r4&#45;&gt;r3 -->
<g id="edge12" class="edge">
<title>r4:e&#45;&gt;r3:n</title>
<path fill="none" stroke="black" d="M404.39,-91C425.59,-91 409.27,-68.02 404.56,-45.98"/>
<polygon fill="black" stroke="black" points="408.03,-45.52 403.39,-36 401.08,-46.34 408.03,-45.52"/>
</g>
<!-- initializerr0_0 -->
<!-- initializerr0_0&#45;&gt;r0 -->
<g id="edge13" class="edge">
<title>initializerr0_0&#45;&gt;r0:ne</title>
<path fill="none" stroke="blue" d="M702.15,-234.06C683.49,-223.26 657.56,-209.32 633.39,-200 606.93,-189.8 590.34,-201.28 571.19,-188.49"/>
<polygon fill="blue" stroke="blue" points="573.32,-185.71 563.39,-182 568.84,-191.09 573.32,-185.71"/>
<text text-anchor="middle" x="670.39" y="-203.8" font-family="Times,serif" font-size="14.00">0</text>
</g>
</g>
</svg>
