<?xml version="1.0" encoding="UTF-8" standalone="no"?>
<!DOCTYPE svg PUBLIC "-//W3C//DTD SVG 1.1//EN"
 "http://www.w3.org/Graphics/SVG/1.1/DTD/svg11.dtd">
<!-- Generated by graphviz version 2.43.0 (0)
 -->
<!-- Title: tokenizer Pages: 1 -->
<svg width="857pt" height="499pt"
 viewBox="0.00 0.00 856.93 499.00" xmlns="http://www.w3.org/2000/svg" xmlns:xlink="http://www.w3.org/1999/xlink">
<g id="graph0" class="graph" transform="scale(1 1) rotate(0) translate(4 495)">
<title>tokenizer</title>
<polygon fill="white" stroke="transparent" points="-4,4 -4,-495 852.93,-495 852.93,4 -4,4"/>
<text text-anchor="middle" x="424.47" y="-475.8" font-family="Times,serif" font-size="14.00">/tokenizer</text>
<!-- r1 -->
<g id="node1" class="node">
<title>r1</title>
<g id="a_node1"><a xlink:href="file:///home/runner/work/flow/flow/flowr/src/bin/flowrcli/cli/stdio/readline.html" xlink:title="readline (#1)">
<ellipse fill="coral" stroke="black" cx="376.39" cy="-378" rx="72.29" ry="18"/>
<text text-anchor="middle" x="376.39" y="-374.3" font-family="Times,serif" font-size="14.00">readline (#1)</text>
</a>
</g>
</g>
<!-- r2 -->
<g id="node3" class="node">
<title>r2</title>
<g id="a_node3"><a xlink:href="file:///home/runner/.flow/lib/flowstdlib/data/split/split.html" xlink:title="split (#2)">
<ellipse fill="coral" stroke="black" cx="330.39" cy="-306" rx="54.69" ry="18"/>
<text text-anchor="middle" x="330.39" y="-302.3" font-family="Times,serif" font-size="14.00">split (#2)</text>
</a>
</g>
</g>
<!-- r1&#45;&gt;r2 -->
<g id="edge2" class="edge">
<title>r1:e&#45;&gt;r2:n</title>
<path fill="none" stroke="black" d="M449.39,-378C457.41,-378 453.34,-366.3 448.39,-360 417.07,-320.06 342.61,-370.21 331.73,-334.37"/>
<polygon fill="black" stroke="black" points="335.14,-333.47 330.39,-324 328.2,-334.37 335.14,-333.47"/>
<text text-anchor="middle" x="308.89" y="-327.8" font-family="Times,serif" font-size="14.00">string</text>
<text text-anchor="middle" x="473.39" y="-381.8" font-family="Times,serif" font-size="14.00">/string</text>
</g>
<!-- initializerr1_0 -->
<!-- initializerr1_0&#45;&gt;r1 -->
<g id="edge1" class="edge">
<title>initializerr1_0&#45;&gt;r1:n</title>
<path fill="none" stroke="blue" d="M376.39,-431.81C376.39,-424.28 376.39,-415.1 376.39,-406.06"/>
<polygon fill="blue" stroke="blue" points="379.89,-406 376.39,-396 372.89,-406 379.89,-406"/>
<text text-anchor="middle" x="369.39" y="-420.61" font-family="Times,serif" font-size="14.00">&quot;&quot;</text>
</g>
<!-- r2&#45;&gt;r2 -->
<g id="edge4" class="edge">
<title>r2:sw&#45;&gt;r2:n</title>
<path fill="none" stroke="black" d="M313.39,-289C271.19,-271 203.8,-271 203.8,-306.5 203.8,-339.5 276.74,-341.82 320.91,-327.52"/>
<polygon fill="black" stroke="black" points="322.24,-330.76 330.39,-324 319.8,-324.2 322.24,-330.76"/>
<text text-anchor="middle" x="351.89" y="-327.8" font-family="Times,serif" font-size="14.00">string</text>
<text text-anchor="middle" x="287.39" y="-277.8" font-family="Times,serif" font-size="14.00">/partial</text>
</g>
<!-- r6 -->
<g id="node5" class="node">
<title>r6</title>
<g id="a_node5"><a xlink:href="file:///home/runner/.flow/lib/flowstdlib/math/add/add.html" xlink:title="work&#45;counter (#6)">
<ellipse fill="coral" stroke="black" cx="681.39" cy="-234" rx="95.58" ry="18"/>
<text text-anchor="middle" x="681.39" y="-230.3" font-family="Times,serif" font-size="14.00">work&#45;counter (#6)</text>
</a>
</g>
</g>
<!-- r2&#45;&gt;r6 -->
<g id="edge5" class="edge">
<title>r2:sw&#45;&gt;r6:n</title>
<path fill="none" stroke="black" d="M313.39,-288C257.9,-232.51 644.09,-325.13 678.9,-261.98"/>
<polygon fill="black" stroke="black" points="682.36,-262.55 681.39,-252 675.57,-260.85 682.36,-262.55"/>
<text text-anchor="middle" x="674.39" y="-255.8" font-family="Times,serif" font-size="14.00">i1</text>
<text text-anchor="middle" x="333.89" y="-276.8" font-family="Times,serif" font-size="14.00">/delta</text>
</g>
<!-- r5 -->
<g id="node6" class="node">
<title>r5</title>
<g id="a_node6"><a xlink:href="file:///home/runner/.flow/lib/flowstdlib/math/add/add.html" xlink:title="token&#45;counter (#5)">
<ellipse fill="coral" stroke="black" cx="174.39" cy="-234" rx="98.58" ry="18"/>
<text text-anchor="middle" x="174.39" y="-230.3" font-family="Times,serif" font-size="14.00">token&#45;counter (#5)</text>
</a>
</g>
</g>
<!-- r2&#45;&gt;r5 -->
<g id="edge6" class="edge">
<title>r2:e&#45;&gt;r5:n</title>
<path fill="none" stroke="black" d="M386.39,-306C394.41,-306 390.73,-293.98 385.39,-288 356.19,-255.28 201.51,-292.72 177.52,-261.5"/>
<polygon fill="black" stroke="black" points="180.84,-260.4 174.39,-252 174.2,-262.59 180.84,-260.4"/>
<text text-anchor="middle" x="167.39" y="-255.8" font-family="Times,serif" font-size="14.00">i1</text>
<text text-anchor="middle" x="430.89" y="-309.8" font-family="Times,serif" font-size="14.00">/token&#45;count</text>
</g>
<!-- initializerr2_1 -->
<!-- initializerr2_1&#45;&gt;r2 -->
<g id="edge3" class="edge">
<title>initializerr2_1&#45;&gt;r2:w</title>
<path fill="none" stroke="blue" d="M171.79,-360.17C191.05,-340.9 226.15,-311.36 264.15,-306.64"/>
<polygon fill="blue" stroke="blue" points="264.63,-310.12 274.39,-306 264.19,-303.14 264.63,-310.12"/>
<text text-anchor="middle" x="162.29" y="-348.97" font-family="Times,serif" font-size="14.00">&quot; &quot;</text>
</g>
<!-- r6&#45;&gt;r6 -->
<g id="edge8" class="edge">
<title>r6:e&#45;&gt;r6:ne</title>
<path fill="none" stroke="black" d="M777.39,-234C800.93,-216 848.93,-216 848.93,-243 848.93,-268.47 765.55,-269.91 709.22,-254.88"/>
<polygon fill="black" stroke="black" points="709.97,-251.46 699.39,-252 708,-258.17 709.97,-251.46"/>
<text text-anchor="middle" x="692.39" y="-255.8" font-family="Times,serif" font-size="14.00">i2</text>
</g>
<!-- r0 -->
<g id="node8" class="node">
<title>r0</title>
<g id="a_node8"><a xlink:href="file:///home/runner/.flow/lib/flowstdlib/math/compare/compare.html" xlink:title="compare (#0)">
<ellipse fill="coral" stroke="black" cx="456.39" cy="-162" rx="74.19" ry="18"/>
<text text-anchor="middle" x="456.39" y="-158.3" font-family="Times,serif" font-size="14.00">compare (#0)</text>
</a>
</g>
</g>
<!-- r6&#45;&gt;r0 -->
<g id="edge9" class="edge">
<title>r6:e&#45;&gt;r0:ne</title>
<path fill="none" stroke="black" d="M778.39,-234C786.41,-234 782.88,-221.84 777.39,-216 686.91,-119.66 576.08,-268 481.73,-186.82"/>
<polygon fill="black" stroke="black" points="484.1,-184.24 474.39,-180 479.34,-189.37 484.1,-184.24"/>
<text text-anchor="middle" x="456.39" y="-183.8" font-family="Times,serif" font-size="14.00">right</text>
</g>
<!-- r5&#45;&gt;r5 -->
<g id="edge11" class="edge">
<title>r5:e&#45;&gt;r5:ne</title>
<path fill="none" stroke="black" d="M273.39,-234C297.18,-216 345.18,-216 345.18,-243 345.18,-268.52 259.52,-269.92 202.06,-254.79"/>
<polygon fill="black" stroke="black" points="202.97,-251.41 192.39,-252 201.03,-258.14 202.97,-251.41"/>
<text text-anchor="middle" x="185.39" y="-255.8" font-family="Times,serif" font-size="14.00">i2</text>
</g>
<!-- r4 -->
<g id="node10" class="node">
<title>r4</title>
<g id="a_node10"><a xlink:href="file:///home/runner/.flow/lib/flowstdlib/control/tap/tap.html" xlink:title="tap (#4)">
<ellipse fill="coral" stroke="black" cx="393.39" cy="-90" rx="49.29" ry="18"/>
<text text-anchor="middle" x="393.39" y="-86.3" font-family="Times,serif" font-size="14.00">tap (#4)</text>
</a>
</g>
</g>
<!-- r5&#45;&gt;r4 -->
<g id="edge12" class="edge">
<title>r5:e&#45;&gt;r4:n</title>
<path fill="none" stroke="black" d="M274.39,-234C325.62,-234 309.79,-179.84 346.39,-144 362.26,-128.47 384.81,-132.25 391.47,-118.01"/>
<polygon fill="black" stroke="black" points="394.94,-118.48 393.39,-108 388.07,-117.16 394.94,-118.48"/>
<text text-anchor="middle" x="377.39" y="-111.8" font-family="Times,serif" font-size="14.00">data</text>
</g>
<!-- initializerr6_1 -->
<!-- initializerr6_1&#45;&gt;r6 -->
<g id="edge7" class="edge">
<title>initializerr6_1&#45;&gt;r6:w</title>
<path fill="none" stroke="blue" stroke-dasharray="1,5" d="M578.55,-287.81C572.57,-270.9 566.11,-246.36 574.99,-237.42"/>
<polygon fill="blue" stroke="blue" points="576.19,-240.71 584.39,-234 573.8,-234.13 576.19,-240.71"/>
<text text-anchor="middle" x="573.55" y="-276.61" font-family="Times,serif" font-size="14.00">1</text>
</g>
<!-- r0&#45;&gt;r4 -->
<g id="edge15" class="edge">
<title>r0:e&#45;&gt;r4:ne</title>
<path fill="none" stroke="black" d="M531.39,-162C539.41,-162 535.35,-150.29 530.39,-144 498.22,-103.17 455.85,-141.52 418.32,-114.75"/>
<polygon fill="black" stroke="black" points="420.28,-111.82 410.39,-108 415.74,-117.15 420.28,-111.82"/>
<text text-anchor="middle" x="435.89" y="-111.8" font-family="Times,serif" font-size="14.00">control</text>
<text text-anchor="middle" x="553.39" y="-165.8" font-family="Times,serif" font-size="14.00">/equal</text>
</g>
<!-- initializerr5_1 -->
<!-- initializerr5_1&#45;&gt;r5 -->
<g id="edge10" class="edge">
<title>initializerr5_1&#45;&gt;r5:w</title>
<path fill="none" stroke="blue" stroke-dasharray="1,5" d="M68.55,-287.81C62.57,-270.9 56.11,-246.36 64.99,-237.42"/>
<polygon fill="blue" stroke="blue" points="66.19,-240.71 74.39,-234 63.8,-234.13 66.19,-240.71"/>
<text text-anchor="middle" x="63.55" y="-276.61" font-family="Times,serif" font-size="14.00">0</text>
</g>
<!-- r3 -->
<g id="node11" class="node">
<title>r3</title>
<g id="a_node11"><a xlink:href="file:///home/runner/work/flow/flow/flowr/src/bin/flowrcli/cli/stdio/stdout.html" xlink:title="stdout (#3)">
<ellipse fill="coral" stroke="black" cx="443.39" cy="-18" rx="63.89" ry="18"/>
<text text-anchor="middle" x="443.39" y="-14.3" font-family="Times,serif" font-size="14.00">stdout (#3)</text>
</a>
</g>
</g>
<!-- r4&#45;&gt;r3 -->
<g id="edge13" class="edge">
<title>r4:e&#45;&gt;r3:n</title>
<path fill="none" stroke="black" d="M444.39,-90C465.12,-90 449.31,-67.65 444.61,-46.09"/>
<polygon fill="black" stroke="black" points="448.06,-45.51 443.39,-36 441.11,-46.35 448.06,-45.51"/>
</g>
<!-- initializerr0_0 -->
<!-- initializerr0_0&#45;&gt;r0 -->
<g id="edge14" class="edge">
<title>initializerr0_0&#45;&gt;r0:ne</title>
<path fill="none" stroke="blue" d="M460.93,-216.76C470.46,-208.49 479.28,-198.27 478.73,-189.08"/>
<polygon fill="blue" stroke="blue" points="481.86,-187.52 474.39,-180 475.54,-190.53 481.86,-187.52"/>
<text text-anchor="middle" x="455.93" y="-205.56" font-family="Times,serif" font-size="14.00">0</text>
</g>
</g>
</svg>
