<?xml version="1.0" encoding="UTF-8" standalone="no"?>
<!DOCTYPE svg PUBLIC "-//W3C//DTD SVG 1.1//EN"
 "http://www.w3.org/Graphics/SVG/1.1/DTD/svg11.dtd">
<!-- Generated by graphviz version 2.43.0 (0)
 -->
<!-- Title: tokenizer Pages: 1 -->
<svg width="1837pt" height="375pt"
 viewBox="28.80 28.80 1808.23 346.54" xmlns="http://www.w3.org/2000/svg" xmlns:xlink="http://www.w3.org/1999/xlink">
<g id="graph0" class="graph" transform="scale(1 1) rotate(0) translate(32.8 342.54)">
<title>tokenizer</title>
<polygon fill="white" stroke="transparent" points="-4,4 -4,-313.74 1775.43,-313.74 1775.43,4 -4,4"/>
<text text-anchor="middle" x="885.72" y="-294.54" font-family="Times,serif" font-size="14.00">tokenizer</text>
<!-- /tokenizer/readline -->
<g id="node1" class="node">
<title>/tokenizer/readline</title>
<g id="a_node1"><a xlink:href="../../../flowr/src/cli/stdio/readline.html" xlink:title="readline">
<ellipse fill="coral" stroke="black" cx="48.75" cy="-268.74" rx="48.99" ry="18"/>
<text text-anchor="middle" x="48.75" y="-265.04" font-family="Times,serif" font-size="14.00">readline</text>
</a>
</g>
</g>
<!-- /tokenizer/split -->
<g id="node2" class="node">
<title>/tokenizer/split</title>
<g id="a_node2"><a xlink:href="../../../target/flowstdlib/data/split/split.html" xlink:title="split">
<ellipse fill="coral" stroke="black" cx="281.75" cy="-172.87" rx="31.4" ry="18"/>
<text text-anchor="middle" x="281.75" y="-169.17" font-family="Times,serif" font-size="14.00">split</text>
</a>
</g>
</g>
<!-- initializer/tokenizer/split_1 -->
<!-- initializer/tokenizer/split_1&#45;&gt;/tokenizer/split -->
<g id="edge1" class="edge">
<title>initializer/tokenizer/split_1&#45;&gt;/tokenizer/split:w</title>
<path fill="none" stroke="blue" d="M243.69,-250.34C234.87,-226.59 222.86,-185.77 239.81,-175.35"/>
<polygon fill="blue" stroke="blue" points="240.89,-178.69 249.75,-172.87 239.2,-171.9 240.89,-178.69"/>
<text text-anchor="middle" x="247.25" y="-221.54" font-family="Times,serif" font-size="14.00">&quot; &quot;</text>
</g>
<!-- /tokenizer/work&#45;counter -->
<g id="node4" class="node">
<title>/tokenizer/work&#45;counter</title>
<g id="a_node4"><a xlink:href="../../../target/flowstdlib/math/add/add.html" xlink:title="work&#45;counter\n(add)">
<ellipse fill="coral" stroke="black" cx="658.75" cy="-172.87" rx="78.48" ry="26.74"/>
<text text-anchor="middle" x="658.75" y="-176.67" font-family="Times,serif" font-size="14.00">work&#45;counter</text>
<text text-anchor="middle" x="658.75" y="-161.67" font-family="Times,serif" font-size="14.00">(add)</text>
</a>
</g>
</g>
<!-- /tokenizer/work&#45;counter/ -->
<g id="node14" class="node">
<title>/tokenizer/work&#45;counter/</title>
<ellipse fill="none" stroke="black" cx="939.75" cy="-91" rx="124.28" ry="18"/>
<text text-anchor="middle" x="939.75" y="-87.3" font-family="Times,serif" font-size="14.00">/tokenizer/work&#45;counter/</text>
</g>
<!-- /tokenizer/work&#45;counter&#45;&gt;/tokenizer/work&#45;counter/ -->
<g id="edge8" class="edge">
<title>/tokenizer/work&#45;counter:e&#45;&gt;/tokenizer/work&#45;counter/:w</title>
<path fill="none" stroke="black" d="M738.75,-172.87C780.21,-172.87 782.74,-142.81 806.75,-109 808.8,-106.1 809.07,-102.59 809.24,-99.43"/>
<polygon fill="black" stroke="black" points="812.21,-101.29 814.75,-91 806.35,-97.46 812.21,-101.29"/>
<text text-anchor="middle" x="807.75" y="-94.8" font-family="Times,serif" font-size="14.00">i2</text>
</g>
<!-- /tokenizer/compare/ -->
<g id="node17" class="node">
<title>/tokenizer/compare/</title>
<ellipse fill="none" stroke="black" cx="694.75" cy="-91" rx="102.88" ry="18"/>
<text text-anchor="middle" x="694.75" y="-87.3" font-family="Times,serif" font-size="14.00">/tokenizer/compare/</text>
</g>
<!-- /tokenizer/work&#45;counter&#45;&gt;/tokenizer/compare/ -->
<g id="edge12" class="edge">
<title>/tokenizer/work&#45;counter:e&#45;&gt;/tokenizer/compare/:ne</title>
<path fill="none" stroke="black" d="M738.75,-172.87C777.65,-172.87 750.69,-146.58 720.13,-116.34"/>
<polygon fill="black" stroke="black" points="722.31,-113.57 712.75,-109 717.37,-118.53 722.31,-113.57"/>
<text text-anchor="middle" x="694.75" y="-112.8" font-family="Times,serif" font-size="14.00">right</text>
</g>
<!-- initializer/tokenizer/work&#45;counter_1 -->
<!-- initializer/tokenizer/work&#45;counter_1&#45;&gt;/tokenizer/work&#45;counter -->
<g id="edge2" class="edge">
<title>initializer/tokenizer/work&#45;counter_1&#45;&gt;/tokenizer/work&#45;counter:w</title>
<path fill="none" stroke="blue" stroke-dasharray="1,5" d="M572.69,-250.34C563.87,-226.59 551.86,-185.77 568.81,-175.35"/>
<polygon fill="blue" stroke="blue" points="569.89,-178.69 578.75,-172.87 568.2,-171.9 569.89,-178.69"/>
<text text-anchor="middle" x="571.75" y="-221.54" font-family="Times,serif" font-size="14.00">1</text>
</g>
<!-- /tokenizer/token&#45;counter -->
<g id="node6" class="node">
<title>/tokenizer/token&#45;counter</title>
<g id="a_node6"><a xlink:href="../../../target/flowstdlib/math/add/add.html" xlink:title="token&#45;counter\n(add)">
<ellipse fill="coral" stroke="black" cx="1274.75" cy="-172.87" rx="82.05" ry="26.74"/>
<text text-anchor="middle" x="1274.75" y="-176.67" font-family="Times,serif" font-size="14.00">token&#45;counter</text>
<text text-anchor="middle" x="1274.75" y="-161.67" font-family="Times,serif" font-size="14.00">(add)</text>
</a>
</g>
</g>
<!-- /tokenizer/token&#45;counter/ -->
<g id="node15" class="node">
<title>/tokenizer/token&#45;counter/</title>
<ellipse fill="none" stroke="black" cx="1209.75" cy="-91" rx="127.28" ry="18"/>
<text text-anchor="middle" x="1209.75" y="-87.3" font-family="Times,serif" font-size="14.00">/tokenizer/token&#45;counter/</text>
</g>
<!-- /tokenizer/token&#45;counter&#45;&gt;/tokenizer/token&#45;counter/ -->
<g id="edge10" class="edge">
<title>/tokenizer/token&#45;counter:e&#45;&gt;/tokenizer/token&#45;counter/:w</title>
<path fill="none" stroke="black" d="M1357.75,-172.87C1369.7,-172.87 1364.78,-154.85 1356.75,-146 1336.02,-123.17 1102.68,-131.64 1081.75,-109 1079.62,-106.7 1077.78,-103.45 1076.8,-100.35"/>
<polygon fill="black" stroke="black" points="1080.09,-101.57 1080.75,-91 1073.64,-98.85 1080.09,-101.57"/>
<text text-anchor="middle" x="1073.75" y="-94.8" font-family="Times,serif" font-size="14.00">i2</text>
</g>
<!-- /tokenizer/tap/ -->
<g id="node16" class="node">
<title>/tokenizer/tap/</title>
<ellipse fill="none" stroke="black" cx="1234.75" cy="-18" rx="77.99" ry="18"/>
<text text-anchor="middle" x="1234.75" y="-14.3" font-family="Times,serif" font-size="14.00">/tokenizer/tap/</text>
</g>
<!-- /tokenizer/token&#45;counter&#45;&gt;/tokenizer/tap/ -->
<g id="edge11" class="edge">
<title>/tokenizer/token&#45;counter:e&#45;&gt;/tokenizer/tap/:nw</title>
<path fill="none" stroke="black" d="M1357.75,-172.87C1386.52,-172.87 1415.31,-152.23 1345.75,-73 1309.31,-31.51 1193.63,-71.28 1210.12,-43.94"/>
<polygon fill="black" stroke="black" points="1213.03,-45.92 1216.75,-36 1207.65,-41.44 1213.03,-45.92"/>
<text text-anchor="middle" x="1200.75" y="-39.8" font-family="Times,serif" font-size="14.00">data</text>
</g>
<!-- initializer/tokenizer/token&#45;counter_1 -->
<!-- initializer/tokenizer/token&#45;counter_1&#45;&gt;/tokenizer/token&#45;counter -->
<g id="edge3" class="edge">
<title>initializer/tokenizer/token&#45;counter_1&#45;&gt;/tokenizer/token&#45;counter:w</title>
<path fill="none" stroke="blue" stroke-dasharray="1,5" d="M1185.69,-250.34C1176.87,-226.59 1164.86,-185.77 1181.81,-175.35"/>
<polygon fill="blue" stroke="blue" points="1182.89,-178.69 1191.75,-172.87 1181.2,-171.9 1182.89,-178.69"/>
<text text-anchor="middle" x="1184.75" y="-221.54" font-family="Times,serif" font-size="14.00">0</text>
</g>
<!-- /tokenizer/tap -->
<g id="node8" class="node">
<title>/tokenizer/tap</title>
<g id="a_node8"><a xlink:href="../../../target/flowstdlib/control/tap/tap.html" xlink:title="tap">
<ellipse fill="coral" stroke="black" cx="1416.75" cy="-268.74" rx="27" ry="18"/>
<text text-anchor="middle" x="1416.75" y="-265.04" font-family="Times,serif" font-size="14.00">tap</text>
</a>
</g>
</g>
<!-- /tokenizer/stdout -->
<g id="node11" class="node">
<title>/tokenizer/stdout</title>
<g id="a_node11"><a xlink:href="../../../flowr/src/cli/stdio/stdout.html" xlink:title="stdout">
<ellipse fill="coral" stroke="black" cx="1484.75" cy="-172.87" rx="40.09" ry="18"/>
<text text-anchor="middle" x="1484.75" y="-169.17" font-family="Times,serif" font-size="14.00">stdout</text>
</a>
</g>
</g>
<!-- /tokenizer/tap&#45;&gt;/tokenizer/stdout -->
<g id="edge14" class="edge">
<title>/tokenizer/tap:e&#45;&gt;/tokenizer/stdout:w</title>
<path fill="none" stroke="black" d="M1444.75,-268.74C1462.23,-268.74 1435.34,-204.23 1436.88,-181.04"/>
<polygon fill="black" stroke="black" points="1439.76,-183.04 1442.75,-172.87 1434.07,-178.95 1439.76,-183.04"/>
</g>
<!-- /tokenizer/compare -->
<g id="node9" class="node">
<title>/tokenizer/compare</title>
<g id="a_node9"><a xlink:href="../../../target/flowstdlib/math/compare/compare.html" xlink:title="compare">
<ellipse fill="coral" stroke="black" cx="1599.75" cy="-172.87" rx="50.89" ry="18"/>
<text text-anchor="middle" x="1599.75" y="-169.17" font-family="Times,serif" font-size="14.00">compare</text>
</a>
</g>
</g>
<!-- initializer/tokenizer/compare_0 -->
<!-- initializer/tokenizer/compare_0&#45;&gt;/tokenizer/compare -->
<g id="edge4" class="edge">
<title>initializer/tokenizer/compare_0&#45;&gt;/tokenizer/compare:ne</title>
<path fill="none" stroke="blue" d="M1622.93,-250.44C1627.14,-235.76 1630.67,-214.68 1622.79,-199.23"/>
<polygon fill="blue" stroke="blue" points="1625.44,-196.92 1616.75,-190.87 1619.77,-201.02 1625.44,-196.92"/>
<text text-anchor="middle" x="1631.75" y="-221.54" font-family="Times,serif" font-size="14.00">0</text>
</g>
<!-- /tokenizer/readline/ -->
<g id="node12" class="node">
<title>/tokenizer/readline/</title>
<ellipse fill="none" stroke="black" cx="888.75" cy="-268.74" rx="100.98" ry="18"/>
<text text-anchor="middle" x="888.75" y="-265.04" font-family="Times,serif" font-size="14.00">/tokenizer/readline/</text>
</g>
<!-- /tokenizer/split/ -->
<g id="node13" class="node">
<title>/tokenizer/split/</title>
<ellipse fill="none" stroke="black" cx="1073.75" cy="-172.87" rx="83.39" ry="18"/>
<text text-anchor="middle" x="1073.75" y="-169.17" font-family="Times,serif" font-size="14.00">/tokenizer/split/</text>
</g>
<!-- /tokenizer/readline/&#45;&gt;/tokenizer/split/ -->
<g id="edge5" class="edge">
<title>/tokenizer/readline/:e&#45;&gt;/tokenizer/split/:w</title>
<path fill="none" stroke="black" d="M990.75,-268.74C1028.7,-268.74 963.66,-192.69 979.08,-176.06"/>
<polygon fill="black" stroke="black" points="980.35,-179.33 988.75,-172.87 978.15,-172.68 980.35,-179.33"/>
<text text-anchor="middle" x="968.41" y="-224.96" font-family="Times,serif" font-size="14.00">string</text>
<text text-anchor="middle" x="967.25" y="-176.67" font-family="Times,serif" font-size="14.00">string</text>
</g>
<!-- /tokenizer/split/&#45;&gt;/tokenizer/split/ -->
<g id="edge6" class="edge">
<title>/tokenizer/split/:s&#45;&gt;/tokenizer/split/:w</title>
<path fill="none" stroke="black" d="M1073.75,-154.87C1040.01,-143.87 972.55,-143.87 972.55,-163.87 972.55,-176.68 977.48,-181.29 982.38,-180.05"/>
<polygon fill="black" stroke="black" points="985.03,-182.36 989.75,-172.87 980.14,-177.35 985.03,-182.36"/>
<text text-anchor="middle" x="1008.69" y="-136.68" font-family="Times,serif" font-size="14.00">partial</text>
<text text-anchor="middle" x="968.25" y="-161.67" font-family="Times,serif" font-size="14.00">string</text>
</g>
<!-- /tokenizer/split/&#45;&gt;/tokenizer/work&#45;counter/ -->
<g id="edge7" class="edge">
<title>/tokenizer/split/:s&#45;&gt;/tokenizer/work&#45;counter/:ne</title>
<path fill="none" stroke="black" d="M1073.75,-153.87C1073.75,-102.05 1006.15,-142.31 965.49,-115.34"/>
<polygon fill="black" stroke="black" points="967.7,-112.63 957.75,-109 963.27,-118.04 967.7,-112.63"/>
<text text-anchor="middle" x="997.43" y="-114.55" font-family="Times,serif" font-size="14.00">delta</text>
<text text-anchor="middle" x="950.75" y="-112.8" font-family="Times,serif" font-size="14.00">i1</text>
</g>
<!-- /tokenizer/split/&#45;&gt;/tokenizer/token&#45;counter/ -->
<g id="edge9" class="edge">
<title>/tokenizer/split/:s&#45;&gt;/tokenizer/token&#45;counter/:ne</title>
<path fill="none" stroke="black" d="M1073.75,-153.87C1073.75,-124.21 1197.8,-130.29 1224.96,-118.65"/>
<polygon fill="black" stroke="black" points="1228.34,-119.58 1227.75,-109 1221.61,-117.64 1228.34,-119.58"/>
<text text-anchor="middle" x="1108.05" y="-132.18" font-family="Times,serif" font-size="14.00">token&#45;count</text>
<text text-anchor="middle" x="1220.75" y="-112.8" font-family="Times,serif" font-size="14.00">i1</text>
</g>
<!-- /tokenizer/compare/&#45;&gt;/tokenizer/tap/ -->
<g id="edge13" class="edge">
<title>/tokenizer/compare/:e&#45;&gt;/tokenizer/tap/:nw</title>
<path fill="none" stroke="black" d="M798.75,-91C807.5,-91 799.63,-78.1 806.75,-73 878.37,-21.73 1132.22,-94.86 1208.71,-42.61"/>
<polygon fill="black" stroke="black" points="1211.25,-45.06 1216.75,-36 1206.8,-39.65 1211.25,-45.06"/>
<text text-anchor="middle" x="985.84" y="-61.97" font-family="Times,serif" font-size="14.00">equal</text>
<text text-anchor="middle" x="1242.25" y="-39.8" font-family="Times,serif" font-size="14.00">control</text>
</g>
</g>
</svg>
