<?xml version="1.0" encoding="UTF-8" standalone="no"?>
<!DOCTYPE svg PUBLIC "-//W3C//DTD SVG 1.1//EN"
 "http://www.w3.org/Graphics/SVG/1.1/DTD/svg11.dtd">
<!-- Generated by graphviz version 2.43.0 (0)
 -->
<!-- Title: tokenizer Pages: 1 -->
<svg width="1108pt" height="502pt"
 viewBox="28.80 28.80 1079.27 473.54" xmlns="http://www.w3.org/2000/svg" xmlns:xlink="http://www.w3.org/1999/xlink">
<g id="graph0" class="graph" transform="scale(1 1) rotate(0) translate(32.8 469.54)">
<title>tokenizer</title>
<polygon fill="white" stroke="transparent" points="-4,4 -4,-440.74 1046.47,-440.74 1046.47,4 -4,4"/>
<text text-anchor="middle" x="521.24" y="-421.54" font-family="Times,serif" font-size="14.00">tokenizer</text>
<!-- /tokenizer/readline -->
<g id="node1" class="node">
<title>/tokenizer/readline</title>
<g id="a_node1"><a xlink:href="../../flowr/src/bin/flowrcli/context/stdio/readline.html" xlink:title="readline">
<polygon fill="black" stroke="black" points="273.74,-23.56 213.74,-36 153.73,-23.56 153.79,-3.44 273.69,-3.44 273.74,-23.56"/>
<text text-anchor="middle" x="213.74" y="-14.3" font-family="Times,serif" font-size="14.00" fill="white">readline</text>
</a>
</g>
</g>
<!-- /tokenizer/split -->
<g id="node3" class="node">
<title>/tokenizer/split</title>
<g id="a_node3"><a xlink:href="../../../../../.flow/lib/flowstdlib/data/split/split.html" xlink:title="split">
<ellipse fill="coral" stroke="black" cx="525.74" cy="-323.74" rx="31.4" ry="18"/>
<text text-anchor="middle" x="525.74" y="-320.04" font-family="Times,serif" font-size="14.00">split</text>
</a>
</g>
</g>
<!-- /tokenizer/readline&#45;&gt;/tokenizer/split -->
<g id="edge6" class="edge">
<title>/tokenizer/readline:e&#45;&gt;/tokenizer/split:w</title>
<path fill="none" stroke="black" d="M274.74,-18C391.87,-18 273.05,-183.89 352.74,-269.74 394.4,-314.62 439.23,-265.89 485.74,-305.74 488.44,-308.05 488.82,-311.46 488.91,-314.69"/>
<polygon fill="black" stroke="black" points="485.94,-316.56 493.74,-323.74 492.12,-313.27 485.94,-316.56"/>
<text text-anchor="middle" x="331.24" y="-273.54" font-family="Times,serif" font-size="14.00">string</text>
<text text-anchor="middle" x="472.24" y="-327.54" font-family="Times,serif" font-size="14.00">string</text>
</g>
<!-- initializer/tokenizer/readline_0 -->
<!-- initializer/tokenizer/readline_0&#45;&gt;/tokenizer/readline -->
<g id="edge1" class="edge">
<title>initializer/tokenizer/readline_0&#45;&gt;/tokenizer/readline:n</title>
<path fill="none" stroke="blue" d="M188.93,-72.47C199.08,-65.78 208.37,-57.02 212.06,-46.13"/>
<polygon fill="blue" stroke="blue" points="215.55,-46.44 213.74,-36 208.65,-45.29 215.55,-46.44"/>
<text text-anchor="middle" x="181.93" y="-61.27" font-family="Times,serif" font-size="14.00">&quot;&quot;</text>
</g>
<!-- /tokenizer/split&#45;&gt;/tokenizer/split -->
<g id="edge7" class="edge">
<title>/tokenizer/split:s&#45;&gt;/tokenizer/split:w</title>
<path fill="none" stroke="black" d="M525.74,-305.74C509.34,-287.74 476.54,-287.74 476.54,-314.74 476.54,-335.83 483.86,-340.45 490.02,-332.87"/>
<polygon fill="black" stroke="black" points="493.26,-334.23 494.74,-323.74 487.04,-331.02 493.26,-334.23"/>
<text text-anchor="middle" x="496.73" y="-289.96" font-family="Times,serif" font-size="14.00">partial</text>
<text text-anchor="middle" x="483.99" y="-312.54" font-family="Times,serif" font-size="14.00">string</text>
</g>
<!-- /tokenizer/work&#45;counter -->
<g id="node5" class="node">
<title>/tokenizer/work&#45;counter</title>
<g id="a_node5"><a xlink:href="../../../../../.flow/lib/flowstdlib/math/add/add.html" xlink:title="work&#45;counter\n(add)">
<ellipse fill="coral" stroke="black" cx="439.74" cy="-242.87" rx="78.48" ry="26.74"/>
<text text-anchor="middle" x="439.74" y="-246.67" font-family="Times,serif" font-size="14.00">work&#45;counter</text>
<text text-anchor="middle" x="439.74" y="-231.67" font-family="Times,serif" font-size="14.00">(add)</text>
</a>
</g>
</g>
<!-- /tokenizer/split&#45;&gt;/tokenizer/work&#45;counter -->
<g id="edge8" class="edge">
<title>/tokenizer/split:s&#45;&gt;/tokenizer/work&#45;counter:ne</title>
<path fill="none" stroke="black" d="M525.74,-305.74C525.74,-277.65 495.39,-288 472.89,-275.09"/>
<polygon fill="black" stroke="black" points="474.81,-272.15 464.74,-268.87 470.57,-277.72 474.81,-272.15"/>
<text text-anchor="middle" x="514.72" y="-271.26" font-family="Times,serif" font-size="14.00">delta</text>
<text text-anchor="middle" x="457.74" y="-272.67" font-family="Times,serif" font-size="14.00">i1</text>
</g>
<!-- /tokenizer/token&#45;counter -->
<g id="node7" class="node">
<title>/tokenizer/token&#45;counter</title>
<g id="a_node7"><a xlink:href="../../../../../.flow/lib/flowstdlib/math/add/add.html" xlink:title="token&#45;counter\n(add)">
<ellipse fill="coral" stroke="black" cx="945.74" cy="-242.87" rx="82.05" ry="26.74"/>
<text text-anchor="middle" x="945.74" y="-246.67" font-family="Times,serif" font-size="14.00">token&#45;counter</text>
<text text-anchor="middle" x="945.74" y="-231.67" font-family="Times,serif" font-size="14.00">(add)</text>
</a>
</g>
</g>
<!-- /tokenizer/split&#45;&gt;/tokenizer/token&#45;counter -->
<g id="edge10" class="edge">
<title>/tokenizer/split:s&#45;&gt;/tokenizer/token&#45;counter:ne</title>
<path fill="none" stroke="black" d="M525.74,-305.74C525.74,-261.36 909.07,-295.53 966.43,-278.39"/>
<polygon fill="black" stroke="black" points="969.49,-280.09 971.74,-269.74 963.52,-276.43 969.49,-280.09"/>
<text text-anchor="middle" x="706.3" y="-285.91" font-family="Times,serif" font-size="14.00">token&#45;count</text>
<text text-anchor="middle" x="964.74" y="-273.54" font-family="Times,serif" font-size="14.00">i1</text>
</g>
<!-- initializer/tokenizer/split_1 -->
<!-- initializer/tokenizer/split_1&#45;&gt;/tokenizer/split -->
<g id="edge2" class="edge">
<title>initializer/tokenizer/split_1&#45;&gt;/tokenizer/split:w</title>
<path fill="none" stroke="blue" d="M491.19,-377.55C488.54,-363.11 485.67,-343.09 487.62,-331.99"/>
<polygon fill="blue" stroke="blue" points="490.59,-333.86 493.74,-323.74 484.97,-329.69 490.59,-333.86"/>
<text text-anchor="middle" x="481.69" y="-366.35" font-family="Times,serif" font-size="14.00">&quot; &quot;</text>
</g>
<!-- /tokenizer/work&#45;counter&#45;&gt;/tokenizer/work&#45;counter -->
<g id="edge9" class="edge">
<title>/tokenizer/work&#45;counter:e&#45;&gt;/tokenizer/work&#45;counter:w</title>
<path fill="none" stroke="black" d="M518.74,-242.87C536.23,-265.16 536.23,-309.74 439.74,-309.74 354.55,-309.74 344.57,-275 355.44,-251.52"/>
<polygon fill="black" stroke="black" points="358.49,-253.22 360.74,-242.87 352.53,-249.57 358.49,-253.22"/>
<text text-anchor="middle" x="353.74" y="-246.67" font-family="Times,serif" font-size="14.00">i2</text>
</g>
<!-- /tokenizer/compare -->
<g id="node10" class="node">
<title>/tokenizer/compare</title>
<g id="a_node10"><a xlink:href="../../../../../.flow/lib/flowstdlib/math/compare/compare.html" xlink:title="compare">
<ellipse fill="coral" stroke="black" cx="673.74" cy="-162" rx="50.89" ry="18"/>
<text text-anchor="middle" x="673.74" y="-158.3" font-family="Times,serif" font-size="14.00">compare</text>
</a>
</g>
</g>
<!-- /tokenizer/work&#45;counter&#45;&gt;/tokenizer/compare -->
<g id="edge13" class="edge">
<title>/tokenizer/work&#45;counter:e&#45;&gt;/tokenizer/compare:ne</title>
<path fill="none" stroke="black" d="M519.74,-242.87C532.08,-242.87 517.84,-224.56 526.74,-216 577.58,-167.09 726,-225.63 697.51,-187.61"/>
<polygon fill="black" stroke="black" points="700,-185.14 690.74,-180 694.77,-189.8 700,-185.14"/>
<text text-anchor="middle" x="672.74" y="-183.8" font-family="Times,serif" font-size="14.00">right</text>
</g>
<!-- initializer/tokenizer/work&#45;counter_1 -->
<!-- initializer/tokenizer/work&#45;counter_1&#45;&gt;/tokenizer/work&#45;counter -->
<g id="edge3" class="edge">
<title>initializer/tokenizer/work&#45;counter_1&#45;&gt;/tokenizer/work&#45;counter:w</title>
<path fill="none" stroke="blue" stroke-dasharray="1,5" d="M305.16,-305.41C311.52,-284.58 325.25,-251.52 349.79,-244.29"/>
<polygon fill="blue" stroke="blue" points="350.33,-247.75 359.74,-242.87 349.34,-240.82 350.33,-247.75"/>
<text text-anchor="middle" x="300.16" y="-294.21" font-family="Times,serif" font-size="14.00">1</text>
</g>
<!-- /tokenizer/token&#45;counter&#45;&gt;/tokenizer/token&#45;counter -->
<g id="edge11" class="edge">
<title>/tokenizer/token&#45;counter:e&#45;&gt;/tokenizer/token&#45;counter:w</title>
<path fill="none" stroke="black" d="M1027.74,-242.87C1045.76,-265.16 1045.76,-309.74 945.74,-309.74 857.43,-309.74 847.09,-275 858.27,-251.52"/>
<polygon fill="black" stroke="black" points="861.35,-253.19 863.74,-242.87 855.44,-249.46 861.35,-253.19"/>
<text text-anchor="middle" x="856.74" y="-246.67" font-family="Times,serif" font-size="14.00">i2</text>
</g>
<!-- /tokenizer/tap -->
<g id="node9" class="node">
<title>/tokenizer/tap</title>
<g id="a_node9"><a xlink:href="../../../../../.flow/lib/flowstdlib/control/tap/tap.html" xlink:title="tap">
<ellipse fill="coral" stroke="black" cx="821.74" cy="-90" rx="27" ry="18"/>
<text text-anchor="middle" x="821.74" y="-86.3" font-family="Times,serif" font-size="14.00">tap</text>
</a>
</g>
</g>
<!-- /tokenizer/token&#45;counter&#45;&gt;/tokenizer/tap -->
<g id="edge12" class="edge">
<title>/tokenizer/token&#45;counter:e&#45;&gt;/tokenizer/tap:nw</title>
<path fill="none" stroke="black" d="M1028.74,-242.87C1040.69,-242.87 1034.22,-226.04 1027.74,-216 970.34,-127.05 745.74,-179.57 799.71,-113.69"/>
<polygon fill="black" stroke="black" points="802.57,-115.74 806.74,-106 797.4,-111.02 802.57,-115.74"/>
<text text-anchor="middle" x="790.74" y="-109.8" font-family="Times,serif" font-size="14.00">data</text>
</g>
<!-- initializer/tokenizer/token&#45;counter_1 -->
<!-- initializer/tokenizer/token&#45;counter_1&#45;&gt;/tokenizer/token&#45;counter -->
<g id="edge4" class="edge">
<title>initializer/tokenizer/token&#45;counter_1&#45;&gt;/tokenizer/token&#45;counter:w</title>
<path fill="none" stroke="blue" stroke-dasharray="1,5" d="M860.15,-305.41C856.96,-288.34 853.22,-263.06 856.17,-250.51"/>
<polygon fill="blue" stroke="blue" points="858.88,-252.74 862.74,-242.87 853.57,-248.18 858.88,-252.74"/>
<text text-anchor="middle" x="855.15" y="-294.21" font-family="Times,serif" font-size="14.00">0</text>
</g>
<!-- /tokenizer/stdout -->
<g id="node12" class="node">
<title>/tokenizer/stdout</title>
<g id="a_node12"><a xlink:href="../../flowr/src/bin/flowrcli/context/stdio/stdout.html" xlink:title="stdout">
<polygon fill="black" stroke="black" points="948.36,-23.56 898.74,-36 849.12,-23.56 849.16,-3.44 948.31,-3.44 948.36,-23.56"/>
<text text-anchor="middle" x="898.74" y="-14.3" font-family="Times,serif" font-size="14.00" fill="white">stdout</text>
</a>
</g>
</g>
<!-- /tokenizer/tap&#45;&gt;/tokenizer/stdout -->
<g id="edge15" class="edge">
<title>/tokenizer/tap:e&#45;&gt;/tokenizer/stdout:w</title>
<path fill="none" stroke="black" d="M849.74,-90C876.5,-90 834.75,-39.69 839.03,-23.18"/>
<polygon fill="black" stroke="black" points="840.93,-26.12 847.74,-18 837.35,-20.1 840.93,-26.12"/>
</g>
<!-- /tokenizer/compare&#45;&gt;/tokenizer/tap -->
<g id="edge14" class="edge">
<title>/tokenizer/compare:e&#45;&gt;/tokenizer/tap:nw</title>
<path fill="none" stroke="black" d="M725.74,-162C765.91,-162 774.51,-140.89 799.58,-113.49"/>
<polygon fill="black" stroke="black" points="802.36,-115.65 806.74,-106 797.3,-110.81 802.36,-115.65"/>
<text text-anchor="middle" x="754.42" y="-146.11" font-family="Times,serif" font-size="14.00">equal</text>
<text text-anchor="middle" x="832.24" y="-109.8" font-family="Times,serif" font-size="14.00">control</text>
</g>
<!-- initializer/tokenizer/compare_0 -->
<!-- initializer/tokenizer/compare_0&#45;&gt;/tokenizer/compare -->
<g id="edge5" class="edge">
<title>initializer/tokenizer/compare_0&#45;&gt;/tokenizer/compare:ne</title>
<path fill="none" stroke="blue" d="M696.6,-224.69C699.39,-213.74 701.2,-199.58 696.42,-188.47"/>
<polygon fill="blue" stroke="blue" points="699.21,-186.35 690.74,-180 693.4,-190.25 699.21,-186.35"/>
<text text-anchor="middle" x="691.6" y="-213.49" font-family="Times,serif" font-size="14.00">0</text>
</g>
</g>
</svg>
