<?xml version="1.0" encoding="UTF-8" standalone="no"?>
<!DOCTYPE svg PUBLIC "-//W3C//DTD SVG 1.1//EN"
 "http://www.w3.org/Graphics/SVG/1.1/DTD/svg11.dtd">
<!-- Generated by graphviz version 2.43.0 (0)
 -->
<!-- Title: tokenizer Pages: 1 -->
<svg width="1043pt" height="574pt"
 viewBox="28.80 28.80 1013.72 545.54" xmlns="http://www.w3.org/2000/svg" xmlns:xlink="http://www.w3.org/1999/xlink">
<g id="graph0" class="graph" transform="scale(1 1) rotate(0) translate(32.8 541.54)">
<title>tokenizer</title>
<polygon fill="white" stroke="transparent" points="-4,4 -4,-512.74 980.92,-512.74 980.92,4 -4,4"/>
<text text-anchor="middle" x="488.46" y="-493.54" font-family="Times,serif" font-size="14.00">tokenizer</text>
<!-- /tokenizer/readline -->
<g id="node1" class="node">
<title>/tokenizer/readline</title>
<g id="a_node1"><a xlink:href="../../flowr/src/cli/stdio/readline.html" xlink:title="readline">
<polygon fill="white" stroke="black" points="558.73,-462.18 618.73,-449.74 678.74,-462.18 678.69,-482.3 558.78,-482.3 558.73,-462.18"/>
<text text-anchor="middle" x="618.73" y="-464.04" font-family="Times,serif" font-size="14.00">readline</text>
</a>
</g>
</g>
<!-- /tokenizer/split -->
<g id="node2" class="node">
<title>/tokenizer/split</title>
<g id="a_node2"><a xlink:href="../../target/flowstdlib/data/split/split.html" xlink:title="split">
<ellipse fill="coral" stroke="black" cx="791.73" cy="-323.74" rx="31.4" ry="18"/>
<text text-anchor="middle" x="791.73" y="-320.04" font-family="Times,serif" font-size="14.00">split</text>
</a>
</g>
</g>
<!-- /tokenizer/readline&#45;&gt;/tokenizer/split -->
<g id="edge5" class="edge">
<title>/tokenizer/readline:e&#45;&gt;/tokenizer/split:w</title>
<path fill="none" stroke="black" d="M679.73,-467.74C720.53,-467.74 675.04,-411.63 697.73,-377.74 713.78,-353.77 733.14,-363.79 751.73,-341.74 754.03,-339.02 754.33,-335.54 754.47,-332.37"/>
<polygon fill="black" stroke="black" points="757.52,-334.1 759.73,-323.74 751.54,-330.46 757.52,-334.1"/>
<text text-anchor="middle" x="676.28" y="-381.47" font-family="Times,serif" font-size="14.00">string</text>
<text text-anchor="middle" x="738.23" y="-327.54" font-family="Times,serif" font-size="14.00">string</text>
</g>
<!-- /tokenizer/split&#45;&gt;/tokenizer/split -->
<g id="edge6" class="edge">
<title>/tokenizer/split:s&#45;&gt;/tokenizer/split:w</title>
<path fill="none" stroke="black" d="M791.73,-305.74C775.34,-287.74 742.54,-287.74 742.54,-314.74 742.54,-335.83 749.86,-340.45 756.02,-332.87"/>
<polygon fill="black" stroke="black" points="759.26,-334.23 760.73,-323.74 753.04,-331.02 759.26,-334.23"/>
<text text-anchor="middle" x="762.73" y="-289.96" font-family="Times,serif" font-size="14.00">partial</text>
<text text-anchor="middle" x="739.23" y="-312.54" font-family="Times,serif" font-size="14.00">string</text>
</g>
<!-- /tokenizer/work&#45;counter -->
<g id="node4" class="node">
<title>/tokenizer/work&#45;counter</title>
<g id="a_node4"><a xlink:href="../../target/flowstdlib/math/add/add.html" xlink:title="work&#45;counter\n(add)">
<ellipse fill="coral" stroke="black" cx="766.73" cy="-242.87" rx="78.48" ry="26.74"/>
<text text-anchor="middle" x="766.73" y="-246.67" font-family="Times,serif" font-size="14.00">work&#45;counter</text>
<text text-anchor="middle" x="766.73" y="-231.67" font-family="Times,serif" font-size="14.00">(add)</text>
</a>
</g>
</g>
<!-- /tokenizer/split&#45;&gt;/tokenizer/work&#45;counter -->
<g id="edge7" class="edge">
<title>/tokenizer/split:s&#45;&gt;/tokenizer/work&#45;counter:ne</title>
<path fill="none" stroke="black" d="M791.73,-305.74C791.73,-293.71 797.98,-285.71 796.71,-277.72"/>
<polygon fill="black" stroke="black" points="799.69,-275.87 791.73,-268.87 793.59,-279.3 799.69,-275.87"/>
<text text-anchor="middle" x="813.84" y="-291.94" font-family="Times,serif" font-size="14.00">delta</text>
<text text-anchor="middle" x="784.73" y="-272.67" font-family="Times,serif" font-size="14.00">i1</text>
</g>
<!-- /tokenizer/token&#45;counter -->
<g id="node6" class="node">
<title>/tokenizer/token&#45;counter</title>
<g id="a_node6"><a xlink:href="../../target/flowstdlib/math/add/add.html" xlink:title="token&#45;counter\n(add)">
<ellipse fill="coral" stroke="black" cx="260.73" cy="-242.87" rx="82.05" ry="26.74"/>
<text text-anchor="middle" x="260.73" y="-246.67" font-family="Times,serif" font-size="14.00">token&#45;counter</text>
<text text-anchor="middle" x="260.73" y="-231.67" font-family="Times,serif" font-size="14.00">(add)</text>
</a>
</g>
</g>
<!-- /tokenizer/split&#45;&gt;/tokenizer/token&#45;counter -->
<g id="edge9" class="edge">
<title>/tokenizer/split:s&#45;&gt;/tokenizer/token&#45;counter:ne</title>
<path fill="none" stroke="black" d="M791.73,-305.74C791.73,-252.23 370.83,-303.93 295.5,-274.88"/>
<polygon fill="black" stroke="black" points="297.13,-271.78 286.73,-269.74 293.59,-277.82 297.13,-271.78"/>
<text text-anchor="middle" x="496.28" y="-285.75" font-family="Times,serif" font-size="14.00">token&#45;count</text>
<text text-anchor="middle" x="279.73" y="-273.54" font-family="Times,serif" font-size="14.00">i1</text>
</g>
<!-- initializer/tokenizer/split_1 -->
<!-- initializer/tokenizer/split_1&#45;&gt;/tokenizer/split -->
<g id="edge1" class="edge">
<title>initializer/tokenizer/split_1&#45;&gt;/tokenizer/split:w</title>
<path fill="none" stroke="blue" d="M801.76,-378.31C786.23,-369.79 769.97,-357.75 760.73,-341.74 759.29,-339.25 757.73,-336.22 756.68,-333.37"/>
<polygon fill="blue" stroke="blue" points="760.04,-334.33 759.73,-323.74 753.37,-332.21 760.04,-334.33"/>
<text text-anchor="middle" x="792.26" y="-367.11" font-family="Times,serif" font-size="14.00">&quot; &quot;</text>
</g>
<!-- /tokenizer/work&#45;counter&#45;&gt;/tokenizer/work&#45;counter -->
<g id="edge8" class="edge">
<title>/tokenizer/work&#45;counter:e&#45;&gt;/tokenizer/work&#45;counter:w</title>
<path fill="none" stroke="black" d="M845.73,-242.87C863.22,-265.16 863.22,-309.74 766.73,-309.74 681.55,-309.74 671.57,-275 682.43,-251.52"/>
<polygon fill="black" stroke="black" points="685.49,-253.22 687.73,-242.87 679.52,-249.57 685.49,-253.22"/>
<text text-anchor="middle" x="680.73" y="-246.67" font-family="Times,serif" font-size="14.00">i2</text>
</g>
<!-- /tokenizer/compare -->
<g id="node9" class="node">
<title>/tokenizer/compare</title>
<g id="a_node9"><a xlink:href="../../target/flowstdlib/math/compare/compare.html" xlink:title="compare">
<ellipse fill="coral" stroke="black" cx="498.73" cy="-162" rx="50.89" ry="18"/>
<text text-anchor="middle" x="498.73" y="-158.3" font-family="Times,serif" font-size="14.00">compare</text>
</a>
</g>
</g>
<!-- /tokenizer/work&#45;counter&#45;&gt;/tokenizer/compare -->
<g id="edge12" class="edge">
<title>/tokenizer/work&#45;counter:e&#45;&gt;/tokenizer/compare:ne</title>
<path fill="none" stroke="black" d="M846.73,-242.87C858.68,-242.87 853.88,-224.75 845.73,-216 747.56,-110.55 625.91,-276.22 523.1,-186.88"/>
<polygon fill="black" stroke="black" points="525.43,-184.27 515.73,-180 520.65,-189.38 525.43,-184.27"/>
<text text-anchor="middle" x="497.73" y="-183.8" font-family="Times,serif" font-size="14.00">right</text>
</g>
<!-- initializer/tokenizer/work&#45;counter_1 -->
<!-- initializer/tokenizer/work&#45;counter_1&#45;&gt;/tokenizer/work&#45;counter -->
<g id="edge2" class="edge">
<title>initializer/tokenizer/work&#45;counter_1&#45;&gt;/tokenizer/work&#45;counter:w</title>
<path fill="none" stroke="blue" stroke-dasharray="1,5" d="M624.87,-306.73C644.8,-298.6 665.61,-286.74 679.73,-269.74 683.93,-264.7 682.16,-257.43 681.43,-251.72"/>
<polygon fill="blue" stroke="blue" points="684.59,-253.25 686.73,-242.87 678.59,-249.65 684.59,-253.25"/>
<text text-anchor="middle" x="619.87" y="-295.53" font-family="Times,serif" font-size="14.00">1</text>
</g>
<!-- /tokenizer/token&#45;counter&#45;&gt;/tokenizer/token&#45;counter -->
<g id="edge10" class="edge">
<title>/tokenizer/token&#45;counter:e&#45;&gt;/tokenizer/token&#45;counter:w</title>
<path fill="none" stroke="black" d="M342.73,-242.87C360.76,-265.16 360.76,-309.74 260.73,-309.74 172.43,-309.74 162.08,-275 173.27,-251.52"/>
<polygon fill="black" stroke="black" points="176.35,-253.19 178.73,-242.87 170.43,-249.46 176.35,-253.19"/>
<text text-anchor="middle" x="171.73" y="-246.67" font-family="Times,serif" font-size="14.00">i2</text>
</g>
<!-- /tokenizer/tap -->
<g id="node8" class="node">
<title>/tokenizer/tap</title>
<g id="a_node8"><a xlink:href="../../target/flowstdlib/control/tap/tap.html" xlink:title="tap">
<ellipse fill="coral" stroke="black" cx="480.73" cy="-90" rx="27" ry="18"/>
<text text-anchor="middle" x="480.73" y="-86.3" font-family="Times,serif" font-size="14.00">tap</text>
</a>
</g>
</g>
<!-- /tokenizer/token&#45;counter&#45;&gt;/tokenizer/tap -->
<g id="edge11" class="edge">
<title>/tokenizer/token&#45;counter:e&#45;&gt;/tokenizer/tap:nw</title>
<path fill="none" stroke="black" d="M343.73,-242.87C356.19,-242.87 345.26,-226.65 351.73,-216 386.46,-158.9 413.12,-155.95 458.32,-113.21"/>
<polygon fill="black" stroke="black" points="461.01,-115.48 465.73,-106 456.13,-110.46 461.01,-115.48"/>
<text text-anchor="middle" x="449.73" y="-109.8" font-family="Times,serif" font-size="14.00">data</text>
</g>
<!-- initializer/tokenizer/token&#45;counter_1 -->
<!-- initializer/tokenizer/token&#45;counter_1&#45;&gt;/tokenizer/token&#45;counter -->
<g id="edge3" class="edge">
<title>initializer/tokenizer/token&#45;counter_1&#45;&gt;/tokenizer/token&#45;counter:w</title>
<path fill="none" stroke="blue" stroke-dasharray="1,5" d="M171.78,-305.41C164.75,-285.96 156.42,-255.83 167.87,-246.05"/>
<polygon fill="blue" stroke="blue" points="169.29,-249.27 177.73,-242.87 167.14,-242.61 169.29,-249.27"/>
<text text-anchor="middle" x="166.78" y="-294.21" font-family="Times,serif" font-size="14.00">0</text>
</g>
<!-- /tokenizer/stdout -->
<g id="node11" class="node">
<title>/tokenizer/stdout</title>
<g id="a_node11"><a xlink:href="../../flowr/src/cli/stdio/stdout.html" xlink:title="stdout">
<polygon fill="black" stroke="black" points="607.35,-23.56 557.73,-36 508.12,-23.56 508.16,-3.44 607.31,-3.44 607.35,-23.56"/>
<text text-anchor="middle" x="557.73" y="-14.3" font-family="Times,serif" font-size="14.00" fill="white">stdout</text>
</a>
</g>
</g>
<!-- /tokenizer/tap&#45;&gt;/tokenizer/stdout -->
<g id="edge14" class="edge">
<title>/tokenizer/tap:e&#45;&gt;/tokenizer/stdout:w</title>
<path fill="none" stroke="black" d="M508.73,-90C535.49,-90 493.75,-39.69 498.03,-23.18"/>
<polygon fill="black" stroke="black" points="499.93,-26.12 506.73,-18 496.35,-20.1 499.93,-26.12"/>
</g>
<!-- /tokenizer/compare&#45;&gt;/tokenizer/tap -->
<g id="edge13" class="edge">
<title>/tokenizer/compare:e&#45;&gt;/tokenizer/tap:nw</title>
<path fill="none" stroke="black" d="M550.73,-162C558.75,-162 554.26,-150.61 549.73,-144 529.47,-114.42 458.17,-129.7 460.07,-114.57"/>
<polygon fill="black" stroke="black" points="463.14,-116.27 465.73,-106 457.3,-112.41 463.14,-116.27"/>
<text text-anchor="middle" x="489.55" y="-129.11" font-family="Times,serif" font-size="14.00">equal</text>
<text text-anchor="middle" x="491.23" y="-109.8" font-family="Times,serif" font-size="14.00">control</text>
</g>
<!-- initializer/tokenizer/compare_0 -->
<!-- initializer/tokenizer/compare_0&#45;&gt;/tokenizer/compare -->
<g id="edge4" class="edge">
<title>initializer/tokenizer/compare_0&#45;&gt;/tokenizer/compare:ne</title>
<path fill="none" stroke="blue" d="M521.59,-224.69C524.39,-213.74 526.19,-199.58 521.42,-188.47"/>
<polygon fill="blue" stroke="blue" points="524.21,-186.35 515.73,-180 518.4,-190.25 524.21,-186.35"/>
<text text-anchor="middle" x="516.59" y="-213.49" font-family="Times,serif" font-size="14.00">0</text>
</g>
</g>
</svg>
