<?xml version="1.0" encoding="UTF-8" standalone="no"?>
<!DOCTYPE svg PUBLIC "-//W3C//DTD SVG 1.1//EN"
 "http://www.w3.org/Graphics/SVG/1.1/DTD/svg11.dtd">
<!-- Generated by graphviz version 2.44.0 (20200408.0750)
 -->
<!-- Title: mandlebrot Pages: 1 -->
<svg width="1097pt" height="320pt"
 viewBox="28.80 28.80 1068.07 291.28" xmlns="http://www.w3.org/2000/svg" xmlns:xlink="http://www.w3.org/1999/xlink">
<g id="graph0" class="graph" transform="scale(1 1) rotate(0) translate(32.8 287.28)">
<title>mandlebrot</title>
<polygon fill="white" stroke="transparent" points="-4,4 -4,-258.48 1035.27,-258.48 1035.27,4 -4,4"/>
<text text-anchor="middle" x="515.64" y="-239.28" font-family="Times,serif" font-size="14.00">mandlebrot</text>
<!-- /mandlebrot/args -->
<g id="node1" class="node">
<title>/mandlebrot/args</title>
<g id="a_node1"><a xlink:href="../../flowruntime/args/get.html" xlink:title="args\n(Get)">
<ellipse fill="coral" stroke="black" cx="663.04" cy="-204.61" rx="31.64" ry="26.74"/>
<text text-anchor="middle" x="663.04" y="-208.41" font-family="Times,serif" font-size="14.00">args</text>
<text text-anchor="middle" x="663.04" y="-193.41" font-family="Times,serif" font-size="14.00">(Get)</text>
</a>
</g>
</g>
<!-- /mandlebrot/split_bounds -->
<g id="node2" class="node">
<title>/mandlebrot/split_bounds</title>
<g id="a_node2"><a xlink:href="../../flowstdlib/data/split/split.html" xlink:title="split_bounds\n(Split)">
<ellipse fill="coral" stroke="black" cx="606.04" cy="-99.87" rx="60.62" ry="26.74"/>
<text text-anchor="middle" x="606.04" y="-103.67" font-family="Times,serif" font-size="14.00">split_bounds</text>
<text text-anchor="middle" x="606.04" y="-88.67" font-family="Times,serif" font-size="14.00">(Split)</text>
</a>
</g>
</g>
<!-- /mandlebrot/args&#45;&gt;/mandlebrot/split_bounds -->
<g id="edge6" class="edge">
<title>/mandlebrot/args:e&#45;&gt;/mandlebrot/split_bounds:w</title>
<path fill="none" stroke="black" d="M696.04,-204.61C707.99,-204.61 702.17,-187.32 695.04,-177.74 652.98,-121.27 587.09,-183.21 545.04,-126.74 540.91,-121.2 537.23,-113.08 537.16,-107.22"/>
<polygon fill="black" stroke="black" points="539.76,-109.57 544.04,-99.87 534.65,-104.78 539.76,-109.57"/>
<text text-anchor="middle" x="612.04" y="-156.04" font-family="Times,serif" font-size="14.00">[2]</text>
<text text-anchor="middle" x="528.54" y="-103.67" font-family="Times,serif" font-size="14.00">string</text>
</g>
<!-- /mandlebrot/split_upper_left -->
<g id="node4" class="node">
<title>/mandlebrot/split_upper_left</title>
<g id="a_node4"><a xlink:href="../../flowstdlib/data/split/split.html" xlink:title="split_upper_left\n(Split)">
<ellipse fill="coral" stroke="black" cx="455.04" cy="-99.87" rx="72.25" ry="26.74"/>
<text text-anchor="middle" x="455.04" y="-103.67" font-family="Times,serif" font-size="14.00">split_upper_left</text>
<text text-anchor="middle" x="455.04" y="-88.67" font-family="Times,serif" font-size="14.00">(Split)</text>
</a>
</g>
</g>
<!-- /mandlebrot/args&#45;&gt;/mandlebrot/split_upper_left -->
<g id="edge8" class="edge">
<title>/mandlebrot/args:e&#45;&gt;/mandlebrot/split_upper_left:w</title>
<path fill="none" stroke="black" d="M696.04,-204.61C707.99,-204.61 703.07,-186.59 695.04,-177.74 675,-155.65 590.82,-167.54 562.04,-159.74 545.31,-155.21 542.79,-149.2 526.04,-144.74 495.08,-136.51 404.67,-150.36 383.04,-126.74 378.24,-121.51 374.58,-113.02 374.89,-106.98"/>
<polygon fill="black" stroke="black" points="377.42,-109.4 382.04,-99.87 372.48,-104.44 377.42,-109.4"/>
<text text-anchor="middle" x="547.9" y="-138.81" font-family="Times,serif" font-size="14.00">[3]</text>
<text text-anchor="middle" x="366.54" y="-103.67" font-family="Times,serif" font-size="14.00">string</text>
</g>
<!-- /mandlebrot/split_lower_right -->
<g id="node6" class="node">
<title>/mandlebrot/split_lower_right</title>
<g id="a_node6"><a xlink:href="../../flowstdlib/data/split/split.html" xlink:title="split_lower_right\n(Split)">
<ellipse fill="coral" stroke="black" cx="801.04" cy="-99.87" rx="77.56" ry="26.74"/>
<text text-anchor="middle" x="801.04" y="-103.67" font-family="Times,serif" font-size="14.00">split_lower_right</text>
<text text-anchor="middle" x="801.04" y="-88.67" font-family="Times,serif" font-size="14.00">(Split)</text>
</a>
</g>
</g>
<!-- /mandlebrot/args&#45;&gt;/mandlebrot/split_lower_right -->
<g id="edge10" class="edge">
<title>/mandlebrot/args:e&#45;&gt;/mandlebrot/split_lower_right:w</title>
<path fill="none" stroke="black" d="M696.04,-204.61C698.62,-204.61 707.41,-162.24 708.04,-159.74 710.55,-149.7 709.45,-120.49 714.71,-106.94"/>
<polygon fill="black" stroke="black" points="717.27,-109.33 722.04,-99.87 712.41,-104.29 717.27,-109.33"/>
<text text-anchor="middle" x="701.1" y="-156.47" font-family="Times,serif" font-size="14.00">[4]</text>
<text text-anchor="middle" x="706.54" y="-103.67" font-family="Times,serif" font-size="14.00">string</text>
</g>
<!-- /mandlebrot/Stdout -->
<g id="node8" class="node">
<title>/mandlebrot/Stdout</title>
<g id="a_node8"><a xlink:href="../../flowruntime/stdio/stdout.html" xlink:title="Stdout">
<ellipse fill="coral" stroke="black" cx="706.04" cy="-18" rx="33.6" ry="18"/>
<text text-anchor="middle" x="706.04" y="-14.3" font-family="Times,serif" font-size="14.00">Stdout</text>
</a>
</g>
</g>
<!-- /mandlebrot/args&#45;&gt;/mandlebrot/Stdout -->
<g id="edge4" class="edge">
<title>/mandlebrot/args:e&#45;&gt;/mandlebrot/Stdout:w</title>
<path fill="none" stroke="black" d="M696.04,-204.61C707.99,-204.61 696.22,-189.63 695.04,-177.74 694.66,-173.97 674.64,-62.84 671.09,-28.21"/>
<polygon fill="black" stroke="black" points="674.59,-27.98 671.04,-18 667.59,-28.02 674.59,-27.98"/>
<text text-anchor="middle" x="676.26" y="-118.4" font-family="Times,serif" font-size="14.00">[1]</text>
</g>
<!-- /mandlebrot/split_bounds&#45;&gt;/mandlebrot/split_bounds -->
<g id="edge5" class="edge">
<title>/mandlebrot/split_bounds:s&#45;&gt;/mandlebrot/split_bounds:w</title>
<path fill="none" stroke="black" d="M606.04,-72.87C579.77,-61.87 527.23,-61.87 527.23,-86.37 527.23,-102.45 532.39,-107.98 537.59,-106.77"/>
<polygon fill="black" stroke="black" points="540.08,-109.23 545.04,-99.87 535.32,-104.1 540.08,-109.23"/>
<text text-anchor="middle" x="559.85" y="-55.1" font-family="Times,serif" font-size="14.00">partial</text>
<text text-anchor="middle" x="529.54" y="-88.67" font-family="Times,serif" font-size="14.00">string</text>
</g>
<!-- /mandlebrot/split_bounds&#45;&gt;/mandlebrot/Stdout -->
<g id="edge11" class="edge">
<title>/mandlebrot/split_bounds:s&#45;&gt;/mandlebrot/Stdout:w</title>
<path fill="none" stroke="black" d="M606.04,-73C606.04,-38.7 628.34,-21.4 660.69,-18.46"/>
<polygon fill="black" stroke="black" points="661.2,-21.94 671.04,-18 660.89,-14.94 661.2,-21.94"/>
<text text-anchor="middle" x="612.08" y="-32.78" font-family="Times,serif" font-size="14.00">token</text>
</g>
<!-- initializer/mandlebrot/split_bounds_1 -->
<!-- initializer/mandlebrot/split_bounds_1&#45;&gt;/mandlebrot/split_bounds -->
<g id="edge1" class="edge">
<title>initializer/mandlebrot/split_bounds_1&#45;&gt;/mandlebrot/split_bounds:w</title>
<path fill="none" stroke="blue" d="M488.41,-186.61C503.19,-172.01 523.48,-149.75 536.04,-126.74 539.3,-120.76 537.66,-113.28 537.54,-107.74"/>
<polygon fill="blue" stroke="blue" points="540.37,-109.81 544.04,-99.87 534.97,-105.35 540.37,-109.81"/>
<text text-anchor="middle" x="533.54" y="-148.54" font-family="Times,serif" font-size="14.00">&quot;x&quot;</text>
</g>
<!-- /mandlebrot/split_upper_left&#45;&gt;/mandlebrot/split_upper_left -->
<g id="edge7" class="edge">
<title>/mandlebrot/split_upper_left:s&#45;&gt;/mandlebrot/split_upper_left:w</title>
<path fill="none" stroke="black" d="M455.04,-72.87C424.99,-61.87 364.91,-61.87 364.91,-86.37 364.91,-102.45 370.08,-107.98 375.36,-106.77"/>
<polygon fill="black" stroke="black" points="377.94,-109.16 383.04,-99.87 373.26,-103.95 377.94,-109.16"/>
<text text-anchor="middle" x="402.85" y="-54.96" font-family="Times,serif" font-size="14.00">partial</text>
<text text-anchor="middle" x="367.54" y="-88.67" font-family="Times,serif" font-size="14.00">string</text>
</g>
<!-- /mandlebrot/split_upper_left&#45;&gt;/mandlebrot/Stdout -->
<g id="edge12" class="edge">
<title>/mandlebrot/split_upper_left:s&#45;&gt;/mandlebrot/Stdout:w</title>
<path fill="none" stroke="black" d="M455.04,-73C455.04,-26.47 601.96,-18.82 660.82,-18.07"/>
<polygon fill="black" stroke="black" points="661.06,-21.57 671.04,-18 661.01,-14.57 661.06,-21.57"/>
<text text-anchor="middle" x="544.66" y="-28.48" font-family="Times,serif" font-size="14.00">token</text>
</g>
<!-- initializer/mandlebrot/split_upper_left_1 -->
<!-- initializer/mandlebrot/split_upper_left_1&#45;&gt;/mandlebrot/split_upper_left -->
<g id="edge2" class="edge">
<title>initializer/mandlebrot/split_upper_left_1&#45;&gt;/mandlebrot/split_upper_left:w</title>
<path fill="none" stroke="blue" d="M174.91,-186.71C211.81,-158.52 292.23,-104.54 371.83,-100.15"/>
<polygon fill="blue" stroke="blue" points="372.14,-103.65 382.04,-99.87 371.94,-96.65 372.14,-103.65"/>
<text text-anchor="middle" x="245.04" y="-148.54" font-family="Times,serif" font-size="14.00">&quot;,&quot;</text>
</g>
<!-- /mandlebrot/split_lower_right&#45;&gt;/mandlebrot/split_lower_right -->
<g id="edge9" class="edge">
<title>/mandlebrot/split_lower_right:s&#45;&gt;/mandlebrot/split_lower_right:w</title>
<path fill="none" stroke="black" d="M801.04,-72.87C769.11,-61.87 705.25,-61.87 705.25,-86.37 705.25,-102.45 710.42,-107.98 715.61,-106.77"/>
<polygon fill="black" stroke="black" points="718.09,-109.24 723.04,-99.87 713.33,-104.11 718.09,-109.24"/>
<text text-anchor="middle" x="780.68" y="-54.9" font-family="Times,serif" font-size="14.00">partial</text>
<text text-anchor="middle" x="707.54" y="-88.67" font-family="Times,serif" font-size="14.00">string</text>
</g>
<!-- /mandlebrot/split_lower_right&#45;&gt;/mandlebrot/Stdout -->
<g id="edge13" class="edge">
<title>/mandlebrot/split_lower_right:s&#45;&gt;/mandlebrot/Stdout:w</title>
<path fill="none" stroke="black" d="M801.04,-73C801.04,-13.35 709.24,-82.62 672.04,-36 670.16,-33.65 668.43,-30.53 667.41,-27.55"/>
<polygon fill="black" stroke="black" points="670.76,-28.59 671.04,-18 664.22,-26.11 670.76,-28.59"/>
<text text-anchor="middle" x="721.11" y="-55.4" font-family="Times,serif" font-size="14.00">token</text>
</g>
<!-- initializer/mandlebrot/split_lower_right_1 -->
<!-- initializer/mandlebrot/split_lower_right_1&#45;&gt;/mandlebrot/split_lower_right -->
<g id="edge3" class="edge">
<title>initializer/mandlebrot/split_lower_right_1&#45;&gt;/mandlebrot/split_lower_right:w</title>
<path fill="none" stroke="blue" d="M810.24,-187.95C778.52,-176.5 742.54,-157.45 723.04,-126.74 719.43,-121.07 715.79,-113.27 715.41,-107.54"/>
<polygon fill="blue" stroke="blue" points="718.15,-109.73 722.04,-99.87 712.85,-105.15 718.15,-109.73"/>
<text text-anchor="middle" x="761.04" y="-148.54" font-family="Times,serif" font-size="14.00">&quot;,&quot;</text>
</g>
</g>
</svg>
