<?xml version="1.0" encoding="UTF-8" standalone="no"?>
<!DOCTYPE svg PUBLIC "-//W3C//DTD SVG 1.1//EN"
 "http://www.w3.org/Graphics/SVG/1.1/DTD/svg11.dtd">
<!-- Generated by graphviz version 2.44.0 (20200408.0750)
 -->
<!-- Title: mandlebrot Pages: 1 -->
<svg width="956pt" height="227pt"
 viewBox="0.00 0.00 956.24 227.00" xmlns="http://www.w3.org/2000/svg" xmlns:xlink="http://www.w3.org/1999/xlink">
<g id="graph0" class="graph" transform="scale(1 1) rotate(0) translate(4 223)">
<title>mandlebrot</title>
<polygon fill="white" stroke="transparent" points="-4,4 -4,-223 952.24,-223 952.24,4 -4,4"/>
<text text-anchor="middle" x="474.12" y="-203.8" font-family="Times,serif" font-size="14.00">/mandlebrot</text>
<!-- r0 -->
<g id="node1" class="node">
<title>r0</title>
<g id="a_node1"><a xlink:href="file:///Users/andrew/workspace/flow/flowruntime/args/get.html" xlink:title="args (#0)">
<ellipse fill="coral" stroke="black" cx="531.44" cy="-178" rx="42.49" ry="18"/>
<text text-anchor="middle" x="531.44" y="-174.3" font-family="Times,serif" font-size="14.00">args (#0)</text>
</a>
</g>
</g>
<!-- r4 -->
<g id="node2" class="node">
<title>r4</title>
<g id="a_node2"><a xlink:href="file:///Users/andrew/workspace/flow/flowruntime/stdio/stdout.html" xlink:title="Stdout (#4)">
<ellipse fill="coral" stroke="black" cx="568.44" cy="-18" rx="50.89" ry="18"/>
<text text-anchor="middle" x="568.44" y="-14.3" font-family="Times,serif" font-size="14.00">Stdout (#4)</text>
</a>
</g>
</g>
<!-- r0&#45;&gt;r4 -->
<g id="edge1" class="edge">
<title>r0:sw&#45;&gt;r4:n</title>
<path fill="none" stroke="black" d="M514.44,-160C495.18,-140.74 537.15,-133.79 548.44,-109 560.87,-81.74 567.03,-71.82 568.23,-46.21"/>
<polygon fill="black" stroke="black" points="571.73,-46.07 568.44,-36 564.73,-45.92 571.73,-46.07"/>
<text text-anchor="middle" x="508.94" y="-148.8" font-family="Times,serif" font-size="14.00">/1</text>
</g>
<!-- r1 -->
<g id="node3" class="node">
<title>r1</title>
<g id="a_node3"><a xlink:href="file:///Users/andrew/workspace/flow/flowstdlib/data/split/split.html" xlink:title="split_bounds (#1)">
<ellipse fill="coral" stroke="black" cx="803.44" cy="-91" rx="72.59" ry="18"/>
<text text-anchor="middle" x="803.44" y="-87.3" font-family="Times,serif" font-size="14.00">split_bounds (#1)</text>
</a>
</g>
</g>
<!-- r0&#45;&gt;r1 -->
<g id="edge2" class="edge">
<title>r0:e&#45;&gt;r1:n</title>
<path fill="none" stroke="black" d="M575.44,-178C604.99,-178 610.56,-166.24 639.44,-160 691.3,-148.8 708.31,-162.01 757.44,-142 777.11,-133.99 796.34,-133.92 801.87,-118.98"/>
<polygon fill="black" stroke="black" points="805.34,-119.42 803.44,-109 798.42,-118.33 805.34,-119.42"/>
<text text-anchor="middle" x="787.94" y="-112.8" font-family="Times,serif" font-size="14.00">string</text>
<text text-anchor="middle" x="580.94" y="-181.8" font-family="Times,serif" font-size="14.00">/2</text>
</g>
<!-- r2 -->
<g id="node4" class="node">
<title>r2</title>
<g id="a_node4"><a xlink:href="file:///Users/andrew/workspace/flow/flowstdlib/data/split/split.html" xlink:title="split_upper_left (#2)">
<ellipse fill="coral" stroke="black" cx="411.44" cy="-91" rx="83.39" ry="18"/>
<text text-anchor="middle" x="411.44" y="-87.3" font-family="Times,serif" font-size="14.00">split_upper_left (#2)</text>
</a>
</g>
</g>
<!-- r0&#45;&gt;r2 -->
<g id="edge3" class="edge">
<title>r0:sw&#45;&gt;r2:n</title>
<path fill="none" stroke="black" d="M514.44,-160C481,-126.56 421.2,-155.11 412.51,-119"/>
<polygon fill="black" stroke="black" points="415.98,-118.57 411.44,-109 409.02,-119.31 415.98,-118.57"/>
<text text-anchor="middle" x="395.94" y="-112.8" font-family="Times,serif" font-size="14.00">string</text>
<text text-anchor="middle" x="519.94" y="-148.8" font-family="Times,serif" font-size="14.00">/3</text>
</g>
<!-- r3 -->
<g id="node5" class="node">
<title>r3</title>
<g id="a_node5"><a xlink:href="file:///Users/andrew/workspace/flow/flowstdlib/data/split/split.html" xlink:title="split_lower_right (#3)">
<ellipse fill="coral" stroke="black" cx="149.44" cy="-91" rx="88.28" ry="18"/>
<text text-anchor="middle" x="149.44" y="-87.3" font-family="Times,serif" font-size="14.00">split_lower_right (#3)</text>
</a>
</g>
</g>
<!-- r0&#45;&gt;r3 -->
<g id="edge4" class="edge">
<title>r0:sw&#45;&gt;r3:n</title>
<path fill="none" stroke="black" d="M514.44,-160C497.02,-142.58 317.79,-145.76 293.44,-142 232.23,-132.54 158.36,-169.99 150.19,-119.14"/>
<polygon fill="black" stroke="black" points="153.67,-118.72 149.44,-109 146.69,-119.23 153.67,-118.72"/>
<text text-anchor="middle" x="133.94" y="-112.8" font-family="Times,serif" font-size="14.00">string</text>
<text text-anchor="middle" x="508.94" y="-163.8" font-family="Times,serif" font-size="14.00">/4</text>
</g>
<!-- r1&#45;&gt;r4 -->
<g id="edge7" class="edge">
<title>r1:s&#45;&gt;r4:n</title>
<path fill="none" stroke="black" d="M803.44,-73C803.44,-61.33 620.3,-51.73 577.37,-40.55"/>
<polygon fill="black" stroke="black" points="578.94,-37.42 568.44,-36 575.77,-43.66 578.94,-37.42"/>
<text text-anchor="middle" x="786.44" y="-61.8" font-family="Times,serif" font-size="14.00">/token</text>
</g>
<!-- r1&#45;&gt;r1 -->
<g id="edge6" class="edge">
<title>r1:e&#45;&gt;r1:n</title>
<path fill="none" stroke="black" d="M876.44,-91C900.24,-82 948.24,-82 948.24,-100 948.24,-116.84 863.75,-117.93 813.34,-110.63"/>
<polygon fill="black" stroke="black" points="813.88,-107.17 803.44,-109 812.74,-114.07 813.88,-107.17"/>
<text text-anchor="middle" x="818.94" y="-112.8" font-family="Times,serif" font-size="14.00">string</text>
<text text-anchor="middle" x="895.94" y="-94.8" font-family="Times,serif" font-size="14.00">/partial</text>
</g>
<!-- r2&#45;&gt;r4 -->
<g id="edge10" class="edge">
<title>r2:s&#45;&gt;r4:n</title>
<path fill="none" stroke="black" d="M411.44,-73C411.44,-5.23 551.74,-96.59 567.09,-46.22"/>
<polygon fill="black" stroke="black" points="570.6,-46.37 568.44,-36 563.66,-45.45 570.6,-46.37"/>
<text text-anchor="middle" x="394.44" y="-61.8" font-family="Times,serif" font-size="14.00">/token</text>
</g>
<!-- r2&#45;&gt;r2 -->
<g id="edge9" class="edge">
<title>r2:e&#45;&gt;r2:n</title>
<path fill="none" stroke="black" d="M495.44,-91C518.64,-82 566.64,-82 566.64,-100 566.64,-116.91 475.32,-117.93 421.38,-110.53"/>
<polygon fill="black" stroke="black" points="421.86,-107.07 411.44,-109 420.79,-113.99 421.86,-107.07"/>
<text text-anchor="middle" x="426.94" y="-112.8" font-family="Times,serif" font-size="14.00">string</text>
<text text-anchor="middle" x="514.94" y="-94.8" font-family="Times,serif" font-size="14.00">/partial</text>
</g>
<!-- r3&#45;&gt;r4 -->
<g id="edge13" class="edge">
<title>r3:s&#45;&gt;r4:n</title>
<path fill="none" stroke="black" d="M149.44,-73C149.44,-51.64 499.52,-57.94 559.69,-41.33"/>
<polygon fill="black" stroke="black" points="561.73,-44.19 568.44,-36 558.08,-38.22 561.73,-44.19"/>
<text text-anchor="middle" x="132.44" y="-61.8" font-family="Times,serif" font-size="14.00">/token</text>
</g>
<!-- r3&#45;&gt;r3 -->
<g id="edge12" class="edge">
<title>r3:e&#45;&gt;r3:n</title>
<path fill="none" stroke="black" d="M238.44,-91C261.84,-82 309.84,-82 309.84,-100 309.84,-116.95 215.07,-117.94 159.36,-110.49"/>
<polygon fill="black" stroke="black" points="159.85,-107.02 149.44,-109 158.81,-113.94 159.85,-107.02"/>
<text text-anchor="middle" x="164.94" y="-112.8" font-family="Times,serif" font-size="14.00">string</text>
<text text-anchor="middle" x="257.94" y="-94.8" font-family="Times,serif" font-size="14.00">/partial</text>
</g>
<!-- initializerr1_1 -->
<!-- initializerr1_1&#45;&gt;r1 -->
<g id="edge5" class="edge">
<title>initializerr1_1&#45;&gt;r1:w</title>
<path fill="none" stroke="blue" d="M727.58,-160.01C718.56,-138.86 706.59,-104.27 719.52,-93.98"/>
<polygon fill="blue" stroke="blue" points="720.87,-97.23 729.44,-91 718.86,-90.52 720.87,-97.23"/>
<text text-anchor="middle" x="729.94" y="-130.8" font-family="Times,serif" font-size="14.00">&quot;x&quot;</text>
</g>
<!-- initializerr2_1 -->
<!-- initializerr2_1&#45;&gt;r2 -->
<g id="edge8" class="edge">
<title>initializerr2_1&#45;&gt;r2:w</title>
<path fill="none" stroke="blue" d="M320.58,-160.01C312.74,-138.67 302.69,-103.63 316.75,-93.7"/>
<polygon fill="blue" stroke="blue" points="317.75,-97.05 326.44,-91 315.87,-90.31 317.75,-97.05"/>
<text text-anchor="middle" x="322.44" y="-130.8" font-family="Times,serif" font-size="14.00">&quot;,&quot;</text>
</g>
<!-- initializerr3_1 -->
<!-- initializerr3_1&#45;&gt;r3 -->
<g id="edge11" class="edge">
<title>initializerr3_1&#45;&gt;r3:w</title>
<path fill="none" stroke="blue" d="M53.58,-160.01C45.74,-138.67 35.69,-103.63 49.75,-93.7"/>
<polygon fill="blue" stroke="blue" points="50.75,-97.05 59.44,-91 48.87,-90.31 50.75,-97.05"/>
<text text-anchor="middle" x="56.44" y="-130.8" font-family="Times,serif" font-size="14.00">&quot;,&quot;</text>
</g>
</g>
</svg>
