<?xml version="1.0" encoding="UTF-8" standalone="no"?>
<!DOCTYPE svg PUBLIC "-//W3C//DTD SVG 1.1//EN"
 "http://www.w3.org/Graphics/SVG/1.1/DTD/svg11.dtd">
<!-- Generated by graphviz version 2.42.3 (20191010.1750)
 -->
<!-- Title: render Pages: 1 -->
<svg width="538pt" height="132pt"
     viewBox="28.80 28.80 509.44 103.07" xmlns="http://www.w3.org/2000/svg">
<g id="graph0" class="graph" transform="scale(1 1) rotate(0) translate(32.8 99.07)">
<title>render</title>
<polygon fill="white" stroke="transparent" points="-4,4 -4,-70.27 476.64,-70.27 476.64,4 -4,4"/>
<text text-anchor="middle" x="236.32" y="-51.07" font-family="Times,serif" font-size="14.00">render</text>
<!-- /mandlebrot/render/bounds -->
<g id="node1" class="node">
<title>/mandlebrot/render/bounds</title>
<polygon fill="black" stroke="black" points="-0.07,-18.16 44.07,-5.72 88.22,-18.16 88.18,-38.28 -0.03,-38.28 -0.07,-18.16"/>
<text text-anchor="middle" x="44.07" y="-19.52" font-family="Times,serif" font-size="14.00" fill="white">bounds</text>
</g>
<!-- /mandlebrot/render/bounds&#45;&gt;/mandlebrot/render/bounds -->
<g id="edge1" class="edge">
<title>/mandlebrot/render/bounds:s&#45;&gt;/mandlebrot/render/bounds:n</title>
<path fill="none" stroke="black" d="M44.07,-5.72C64.77,3.28 106.15,3.28 106.15,-22.22 106.15,-44.13 75.59,-47.21 53.86,-41.94"/>
<polygon fill="black" stroke="black" points="54.67,-38.52 44.07,-38.72 52.48,-45.17 54.67,-38.52"/>
</g>
<!-- /mandlebrot/render/upper_left -->
<g id="node2" class="node">
<title>/mandlebrot/render/upper_left</title>
<polygon fill="white" stroke="black" points="238.4,-29.28 181.07,-41.72 123.75,-29.28 123.8,-9.16 238.35,-9.16 238.4,-29.28"/>
<text text-anchor="middle" x="181.07" y="-19.52" font-family="Times,serif" font-size="14.00">upper_left</text>
</g>
<!-- /mandlebrot/render/lower_right -->
<g id="node3" class="node">
<title>/mandlebrot/render/lower_right</title>
<polygon fill="white" stroke="black" points="383.56,-29.28 320.07,-41.72 256.59,-29.28 256.65,-9.16 383.5,-9.16 383.56,-29.28"/>
<text text-anchor="middle" x="320.07" y="-19.52" font-family="Times,serif" font-size="14.00">lower_right</text>
</g>
<!-- /mandlebrot/render/bytes -->
<g id="node4" class="node">
<title>/mandlebrot/render/bytes</title>
<polygon fill="black" stroke="black" points="401.44,-18.16 437.07,-5.72 472.71,-18.16 472.67,-38.28 401.47,-38.28 401.44,-18.16"/>
<text text-anchor="middle" x="437.07" y="-19.52" font-family="Times,serif" font-size="14.00" fill="white">bytes</text>
</g>
</g>
</svg>
