<?xml version="1.0" encoding="UTF-8" standalone="no"?>
<!DOCTYPE svg PUBLIC "-//W3C//DTD SVG 1.1//EN"
 "http://www.w3.org/Graphics/SVG/1.1/DTD/svg11.dtd">
<!-- Generated by graphviz version 2.43.0 (0)
 -->
<!-- Title: my_first_flow Pages: 1 -->
<svg width="382pt" height="211pt"
 viewBox="0.00 0.00 381.79 211.00" xmlns="http://www.w3.org/2000/svg" xmlns:xlink="http://www.w3.org/1999/xlink">
<g id="graph0" class="graph" transform="scale(1 1) rotate(0) translate(4 207)">
<title>my_first_flow</title>
<polygon fill="white" stroke="transparent" points="-4,4 -4,-207 377.79,-207 377.79,4 -4,4"/>
<text text-anchor="middle" x="186.89" y="-187.8" font-family="Times,serif" font-size="14.00">/my&#45;first&#45;flow</text>
<!-- r0 -->
<g id="node1" class="node">
<title>r0</title>
<g id="a_node1"><a xlink:href="file:///home/runner/.flow/lib/flowstdlib/math/add/add.html" xlink:title="add (#0)">
<ellipse fill="coral" stroke="black" cx="204.39" cy="-90" rx="51.19" ry="18"/>
<text text-anchor="middle" x="204.39" y="-86.3" font-family="Times,serif" font-size="14.00">add (#0)</text>
</a>
</g>
</g>
<!-- r0&#45;&gt;r0 -->
<g id="edge3" class="edge">
<title>r0:e&#45;&gt;r0:ne</title>
<path fill="none" stroke="black" d="M256.39,-90C279.74,-72 327.74,-72 327.74,-98.5 327.74,-123.03 271.83,-124.85 230.91,-110.71"/>
<polygon fill="black" stroke="black" points="231.98,-107.37 221.39,-107 229.44,-113.89 231.98,-107.37"/>
<text text-anchor="middle" x="214.39" y="-110.8" font-family="Times,serif" font-size="14.00">i2</text>
</g>
<!-- r0&#45;&gt;r0 -->
<g id="edge5" class="edge">
<title>r0:se&#45;&gt;r0:n</title>
<path fill="none" stroke="black" d="M221.39,-73C262.51,-55 327.74,-55 327.74,-90.5 327.74,-123.43 256.96,-125.81 213.9,-111.61"/>
<polygon fill="black" stroke="black" points="214.98,-108.28 204.39,-108 212.5,-114.82 214.98,-108.28"/>
<text text-anchor="middle" x="197.39" y="-111.8" font-family="Times,serif" font-size="14.00">i1</text>
<text text-anchor="middle" x="214.39" y="-61.8" font-family="Times,serif" font-size="14.00">:1</text>
</g>
<!-- r1 -->
<g id="node4" class="node">
<title>r1</title>
<g id="a_node4"><a xlink:href="file:///home/runner/work/flow/flow/flowr/src/bin/flowrcli/context/stdio/stdout.html" xlink:title="stdout (#1)">
<ellipse fill="coral" stroke="black" cx="256.39" cy="-18" rx="63.89" ry="18"/>
<text text-anchor="middle" x="256.39" y="-14.3" font-family="Times,serif" font-size="14.00">stdout (#1)</text>
</a>
</g>
</g>
<!-- r0&#45;&gt;r1 -->
<g id="edge4" class="edge">
<title>r0:e&#45;&gt;r1:n</title>
<path fill="none" stroke="black" d="M257.39,-90C278.12,-90 262.31,-67.65 257.61,-46.09"/>
<polygon fill="black" stroke="black" points="261.06,-45.51 256.39,-36 254.11,-46.35 261.06,-45.51"/>
</g>
<!-- initializerr0_0 -->
<!-- initializerr0_0&#45;&gt;r0 -->
<g id="edge1" class="edge">
<title>initializerr0_0&#45;&gt;r0:ne</title>
<path fill="none" stroke="blue" stroke-dasharray="1,5" d="M270.18,-145.06C257.27,-137.09 241.95,-126.65 228.83,-114.99"/>
<polygon fill="blue" stroke="blue" points="231.08,-112.3 221.39,-108 226.28,-117.4 231.08,-112.3"/>
<text text-anchor="middle" x="265.18" y="-133.86" font-family="Times,serif" font-size="14.00">0</text>
</g>
<!-- initializerr0_1 -->
<!-- initializerr0_1&#45;&gt;r0 -->
<g id="edge2" class="edge">
<title>initializerr0_1&#45;&gt;r0:w</title>
<path fill="none" stroke="blue" stroke-dasharray="1,5" d="M84.12,-143.81C94.84,-125.1 114.91,-97.03 141.36,-91.12"/>
<polygon fill="blue" stroke="blue" points="141.84,-94.59 151.39,-90 141.07,-87.63 141.84,-94.59"/>
<text text-anchor="middle" x="79.12" y="-132.61" font-family="Times,serif" font-size="14.00">1</text>
</g>
</g>
</svg>
