<?xml version="1.0" encoding="UTF-8" standalone="no"?>
<!DOCTYPE svg PUBLIC "-//W3C//DTD SVG 1.1//EN"
 "http://www.w3.org/Graphics/SVG/1.1/DTD/svg11.dtd">
<!-- Generated by graphviz version 2.43.0 (0)
 -->
<!-- Title: my_first_flow Pages: 1 -->
<svg width="382pt" height="227pt"
 viewBox="0.00 0.00 381.79 227.00" xmlns="http://www.w3.org/2000/svg" xmlns:xlink="http://www.w3.org/1999/xlink">
<g id="graph0" class="graph" transform="scale(1 1) rotate(0) translate(4 223)">
<title>my_first_flow</title>
<polygon fill="white" stroke="transparent" points="-4,4 -4,-223 377.79,-223 377.79,4 -4,4"/>
<text text-anchor="middle" x="186.89" y="-203.8" font-family="Times,serif" font-size="14.00">/my&#45;first&#45;flow</text>
<!-- r0 -->
<g id="node1" class="node">
<title>r0</title>
<g id="a_node1"><a xlink:href="file:///home/runner/work/flow/flow/target/flowstdlib/math/add/add.html" xlink:title="add (#0)">
<ellipse fill="coral" stroke="black" cx="204.39" cy="-91" rx="51.19" ry="18"/>
<text text-anchor="middle" x="204.39" y="-87.3" font-family="Times,serif" font-size="14.00">add (#0)</text>
</a>
</g>
</g>
<!-- r0&#45;&gt;r0 -->
<g id="edge3" class="edge">
<title>r0:e&#45;&gt;r0:ne</title>
<path fill="none" stroke="black" d="M256.39,-91C279.74,-82 327.74,-82 327.74,-99.5 327.74,-115.63 272.3,-116.89 231.43,-109.94"/>
<polygon fill="black" stroke="black" points="231.88,-106.46 221.39,-108 230.55,-113.33 231.88,-106.46"/>
<text text-anchor="middle" x="214.39" y="-111.8" font-family="Times,serif" font-size="14.00">i2</text>
</g>
<!-- r0&#45;&gt;r0 -->
<g id="edge5" class="edge">
<title>r0:se&#45;&gt;r0:n</title>
<path fill="none" stroke="black" d="M221.39,-74C262.51,-65 327.74,-65 327.74,-91.5 327.74,-115.98 257.56,-117.85 214.45,-110.89"/>
<polygon fill="black" stroke="black" points="214.87,-107.41 204.39,-109 213.57,-114.29 214.87,-107.41"/>
<text text-anchor="middle" x="197.39" y="-112.8" font-family="Times,serif" font-size="14.00">i1</text>
<text text-anchor="middle" x="214.39" y="-62.8" font-family="Times,serif" font-size="14.00">:1</text>
</g>
<!-- r1 -->
<g id="node4" class="node">
<title>r1</title>
<g id="a_node4"><a xlink:href="file:///home/runner/work/flow/flow/flowr/src/cli/stdio/stdout.html" xlink:title="stdout (#1)">
<ellipse fill="coral" stroke="black" cx="256.39" cy="-18" rx="63.89" ry="18"/>
<text text-anchor="middle" x="256.39" y="-14.3" font-family="Times,serif" font-size="14.00">stdout (#1)</text>
</a>
</g>
</g>
<!-- r0&#45;&gt;r1 -->
<g id="edge4" class="edge">
<title>r0:e&#45;&gt;r1:n</title>
<path fill="none" stroke="black" d="M257.39,-91C278.59,-91 262.27,-68.02 257.56,-45.98"/>
<polygon fill="black" stroke="black" points="261.03,-45.52 256.39,-36 254.08,-46.34 261.03,-45.52"/>
</g>
<!-- initializerr0_0 -->
<!-- initializerr0_0&#45;&gt;r0 -->
<g id="edge1" class="edge">
<title>initializerr0_0&#45;&gt;r0:ne</title>
<path fill="none" stroke="blue" stroke-dasharray="1,5" d="M278.48,-160.6C264.68,-148.99 245.83,-132.65 228.97,-116.43"/>
<polygon fill="blue" stroke="blue" points="230.98,-113.5 221.39,-109 226.08,-118.5 230.98,-113.5"/>
<text text-anchor="middle" x="260.39" y="-130.8" font-family="Times,serif" font-size="14.00">0</text>
</g>
<!-- initializerr0_1 -->
<!-- initializerr0_1&#45;&gt;r0 -->
<g id="edge2" class="edge">
<title>initializerr0_1&#45;&gt;r0:w</title>
<path fill="none" stroke="blue" stroke-dasharray="1,5" d="M81.51,-160.01C90.76,-137.39 110.53,-99.4 141.09,-92.2"/>
<polygon fill="blue" stroke="blue" points="141.86,-95.63 151.39,-91 141.06,-88.68 141.86,-95.63"/>
<text text-anchor="middle" x="103.39" y="-130.8" font-family="Times,serif" font-size="14.00">1</text>
</g>
</g>
</svg>
