<?xml version="1.0" encoding="UTF-8" standalone="no"?>
<!DOCTYPE svg PUBLIC "-//W3C//DTD SVG 1.1//EN"
 "http://www.w3.org/Graphics/SVG/1.1/DTD/svg11.dtd">
<!-- Generated by graphviz version 2.43.0 (0)
 -->
<!-- Title: my_first_flow Pages: 1 -->
<svg width="683pt" height="285pt"
 viewBox="28.80 28.80 653.93 255.80" xmlns="http://www.w3.org/2000/svg" xmlns:xlink="http://www.w3.org/1999/xlink">
<g id="graph0" class="graph" transform="scale(1 1) rotate(0) translate(32.8 251.8)">
<title>my_first_flow</title>
<polygon fill="white" stroke="transparent" points="-4,4 -4,-223 621.13,-223 621.13,4 -4,4"/>
<text text-anchor="middle" x="308.56" y="-203.8" font-family="Times,serif" font-size="14.00">my&#45;first&#45;flow</text>
<!-- /my&#45;first&#45;flow/add -->
<g id="node1" class="node">
<title>/my&#45;first&#45;flow/add</title>
<g id="a_node1"><a xlink:href="../../../target/flowstdlib/math/add/add.html" xlink:title="add">
<ellipse fill="coral" stroke="black" cx="307.24" cy="-91" rx="27.9" ry="18"/>
<text text-anchor="middle" x="307.24" y="-87.3" font-family="Times,serif" font-size="14.00">add</text>
</a>
</g>
</g>
<!-- /my&#45;first&#45;flow/stdout -->
<g id="node4" class="node">
<title>/my&#45;first&#45;flow/stdout</title>
<g id="a_node4"><a xlink:href="../../../flowr/src/cli/stdio/stdout.html" xlink:title="stdout">
<ellipse fill="coral" stroke="black" cx="351.24" cy="-18" rx="40.09" ry="18"/>
<text text-anchor="middle" x="351.24" y="-14.3" font-family="Times,serif" font-size="14.00">stdout</text>
</a>
</g>
</g>
<!-- /my&#45;first&#45;flow/add&#45;&gt;/my&#45;first&#45;flow/stdout -->
<g id="edge4" class="edge">
<title>/my&#45;first&#45;flow/add:e&#45;&gt;/my&#45;first&#45;flow/stdout:w</title>
<path fill="none" stroke="black" d="M336.24,-91C364.21,-91 306.67,-43.27 301.91,-25"/>
<polygon fill="black" stroke="black" points="304.43,-27.44 309.24,-18 299.59,-22.38 304.43,-27.44"/>
</g>
<!-- /my&#45;first&#45;flow/add/ -->
<g id="node5" class="node">
<title>/my&#45;first&#45;flow/add/</title>
<ellipse fill="none" stroke="black" cx="504.24" cy="-18" rx="94.78" ry="18"/>
<text text-anchor="middle" x="504.24" y="-14.3" font-family="Times,serif" font-size="14.00">/my&#45;first&#45;flow/add/</text>
</g>
<!-- /my&#45;first&#45;flow/add&#45;&gt;/my&#45;first&#45;flow/add/ -->
<g id="edge3" class="edge">
<title>/my&#45;first&#45;flow/add:e&#45;&gt;/my&#45;first&#45;flow/add/:w</title>
<path fill="none" stroke="black" d="M336.24,-91C373.74,-91 377.85,-66.09 400.24,-36 402.36,-33.15 402.63,-29.64 402.8,-26.48"/>
<polygon fill="black" stroke="black" points="405.78,-28.31 408.24,-18 399.89,-24.53 405.78,-28.31"/>
<text text-anchor="middle" x="401.24" y="-21.8" font-family="Times,serif" font-size="14.00">i2</text>
</g>
<!-- initializer/my&#45;first&#45;flow/add_0 -->
<!-- initializer/my&#45;first&#45;flow/add_0&#45;&gt;/my&#45;first&#45;flow/add -->
<g id="edge1" class="edge">
<title>initializer/my&#45;first&#45;flow/add_0&#45;&gt;/my&#45;first&#45;flow/add:ne</title>
<path fill="none" stroke="blue" stroke-dasharray="1,5" d="M409.31,-160.95C384.3,-150.71 353.96,-135.46 330.57,-114.87"/>
<polygon fill="blue" stroke="blue" points="332.93,-112.28 323.24,-108 328.14,-117.39 332.93,-112.28"/>
<text text-anchor="middle" x="373.24" y="-130.8" font-family="Times,serif" font-size="14.00">0</text>
</g>
<!-- initializer/my&#45;first&#45;flow/add_1 -->
<!-- initializer/my&#45;first&#45;flow/add_1&#45;&gt;/my&#45;first&#45;flow/add -->
<g id="edge2" class="edge">
<title>initializer/my&#45;first&#45;flow/add_1&#45;&gt;/my&#45;first&#45;flow/add:w</title>
<path fill="none" stroke="blue" stroke-dasharray="1,5" d="M160.11,-160.01C180.73,-136.66 222.01,-96.92 268.04,-91.6"/>
<polygon fill="blue" stroke="blue" points="268.46,-95.08 278.24,-91 268.05,-88.09 268.46,-95.08"/>
<text text-anchor="middle" x="196.24" y="-130.8" font-family="Times,serif" font-size="14.00">1</text>
</g>
<!-- /my&#45;first&#45;flow/add/&#45;&gt;/my&#45;first&#45;flow/add/ -->
<g id="edge5" class="edge">
<title>/my&#45;first&#45;flow/add/:e&#45;&gt;/my&#45;first&#45;flow/add/:ne</title>
<path fill="none" stroke="black" d="M599.24,-18C605.13,-9 617.13,-9 617.13,-27 617.13,-43.45 569.29,-44.87 532.32,-38.12"/>
<polygon fill="black" stroke="black" points="532.74,-34.63 522.24,-36 531.31,-41.48 532.74,-34.63"/>
<text text-anchor="middle" x="552.81" y="-45.26" font-family="Times,serif" font-size="14.00">i2</text>
<text text-anchor="middle" x="515.24" y="-39.8" font-family="Times,serif" font-size="14.00">i1</text>
</g>
</g>
</svg>
