<?xml version="1.0" encoding="UTF-8" standalone="no"?>
<!DOCTYPE svg PUBLIC "-//W3C//DTD SVG 1.1//EN"
 "http://www.w3.org/Graphics/SVG/1.1/DTD/svg11.dtd">
<!-- Generated by graphviz version 2.43.0 (0)
 -->
<!-- Title: my_first_flow Pages: 1 -->
<svg width="668pt" height="269pt"
 viewBox="28.80 28.80 639.27 239.80" xmlns="http://www.w3.org/2000/svg" xmlns:xlink="http://www.w3.org/1999/xlink">
<g id="graph0" class="graph" transform="scale(1 1) rotate(0) translate(32.8 235.8)">
<title>my_first_flow</title>
<polygon fill="white" stroke="transparent" points="-4,4 -4,-207 606.47,-207 606.47,4 -4,4"/>
<text text-anchor="middle" x="301.24" y="-187.8" font-family="Times,serif" font-size="14.00">my&#45;first&#45;flow</text>
<!-- /my&#45;first&#45;flow/add -->
<g id="node1" class="node">
<title>/my&#45;first&#45;flow/add</title>
<g id="a_node1"><a xlink:href="../../../../../.flow/lib/flowstdlib/math/add/add.html" xlink:title="add">
<ellipse fill="coral" stroke="black" cx="307.24" cy="-90" rx="27.9" ry="18"/>
<text text-anchor="middle" x="307.24" y="-86.3" font-family="Times,serif" font-size="14.00">add</text>
</a>
</g>
</g>
<!-- /my&#45;first&#45;flow/add&#45;&gt;/my&#45;first&#45;flow/add -->
<g id="edge3" class="edge">
<title>/my&#45;first&#45;flow/add:e&#45;&gt;/my&#45;first&#45;flow/add:w</title>
<path fill="none" stroke="black" d="M335.24,-90C353.18,-108 353.18,-144 307.24,-144 267.39,-144 262.1,-116.93 273.1,-98"/>
<polygon fill="black" stroke="black" points="275.93,-100.06 279.24,-90 270.37,-95.8 275.93,-100.06"/>
<text text-anchor="middle" x="272.24" y="-93.8" font-family="Times,serif" font-size="14.00">i2</text>
</g>
<!-- /my&#45;first&#45;flow/add&#45;&gt;/my&#45;first&#45;flow/add -->
<g id="edge5" class="edge">
<title>/my&#45;first&#45;flow/add:e&#45;&gt;/my&#45;first&#45;flow/add:ne</title>
<path fill="none" stroke="black" d="M335.24,-90C341.18,-72 353.18,-72 353.18,-98 353.18,-119.94 342.77,-123.37 330.31,-113.09"/>
<polygon fill="black" stroke="black" points="332.78,-110.6 323.24,-106 327.82,-115.55 332.78,-110.6"/>
<text text-anchor="middle" x="342.24" y="-93.79" font-family="Times,serif" font-size="14.00">i2</text>
<text text-anchor="middle" x="330.24" y="-109.8" font-family="Times,serif" font-size="14.00">i1</text>
</g>
<!-- /my&#45;first&#45;flow/stdout -->
<g id="node4" class="node">
<title>/my&#45;first&#45;flow/stdout</title>
<g id="a_node4"><a xlink:href="../../flowr/src/bin/flowrcli/cli/stdio/stdout.html" xlink:title="stdout">
<polygon fill="black" stroke="black" points="434.86,-23.56 385.24,-36 335.62,-23.56 335.66,-3.44 434.81,-3.44 434.86,-23.56"/>
<text text-anchor="middle" x="385.24" y="-14.3" font-family="Times,serif" font-size="14.00" fill="white">stdout</text>
</a>
</g>
</g>
<!-- /my&#45;first&#45;flow/add&#45;&gt;/my&#45;first&#45;flow/stdout -->
<g id="edge4" class="edge">
<title>/my&#45;first&#45;flow/add:e&#45;&gt;/my&#45;first&#45;flow/stdout:w</title>
<path fill="none" stroke="black" d="M336.24,-90C363,-90 321.25,-39.69 325.53,-23.18"/>
<polygon fill="black" stroke="black" points="327.43,-26.12 334.24,-18 323.85,-20.1 327.43,-26.12"/>
</g>
<!-- initializer/my&#45;first&#45;flow/add_0 -->
<!-- initializer/my&#45;first&#45;flow/add_0&#45;&gt;/my&#45;first&#45;flow/add -->
<g id="edge1" class="edge">
<title>initializer/my&#45;first&#45;flow/add_0&#45;&gt;/my&#45;first&#45;flow/add:ne</title>
<path fill="none" stroke="blue" stroke-dasharray="1,5" d="M390.64,-145.88C370.1,-138.76 348.28,-128.53 330.89,-113.99"/>
<polygon fill="blue" stroke="blue" points="332.98,-111.16 323.24,-107 328.26,-116.33 332.98,-111.16"/>
<text text-anchor="middle" x="385.64" y="-134.68" font-family="Times,serif" font-size="14.00">0</text>
</g>
<!-- initializer/my&#45;first&#45;flow/add_1 -->
<!-- initializer/my&#45;first&#45;flow/add_1&#45;&gt;/my&#45;first&#45;flow/add -->
<g id="edge2" class="edge">
<title>initializer/my&#45;first&#45;flow/add_1&#45;&gt;/my&#45;first&#45;flow/add:w</title>
<path fill="none" stroke="blue" stroke-dasharray="1,5" d="M164.25,-143.81C186.47,-124.36 226.44,-94.8 268.17,-90.52"/>
<polygon fill="blue" stroke="blue" points="268.43,-94.02 278.24,-90 268.07,-87.02 268.43,-94.02"/>
<text text-anchor="middle" x="159.25" y="-132.61" font-family="Times,serif" font-size="14.00">1</text>
</g>
</g>
</svg>
