<?xml version="1.0" encoding="UTF-8" standalone="no"?>
<!DOCTYPE svg PUBLIC "-//W3C//DTD SVG 1.1//EN"
 "http://www.w3.org/Graphics/SVG/1.1/DTD/svg11.dtd">
<!-- Generated by graphviz version 2.42.3 (20191010.1750)
 -->
<!-- Title: candidates Pages: 1 -->
<svg width="812pt" height="433pt"
     viewBox="28.80 28.80 783.32 404.62" xmlns="http://www.w3.org/2000/svg">
<g id="graph0" class="graph" transform="scale(1 1) rotate(0) translate(32.8 400.62)">
<title>candidates</title>
<polygon fill="white" stroke="transparent" points="-4,4 -4,-371.82 750.52,-371.82 750.52,4 -4,4"/>
<text text-anchor="middle" x="373.26" y="-352.62" font-family="Times,serif" font-size="14.00">candidates</text>
<!-- /prime/candidates/start -->
<g id="node1" class="node">
<title>/prime/candidates/start</title>
<polygon fill="white" stroke="black" points="387.05,-333.39 355.92,-345.82 324.8,-333.39 324.83,-313.26 387.02,-313.26 387.05,-333.39"/>
<text text-anchor="middle" x="355.92" y="-323.62" font-family="Times,serif" font-size="14.00">start</text>
</g>
<!-- /prime/candidates/compare -->
<g id="node6" class="node">
<title>/prime/candidates/compare</title>
<ellipse fill="coral" stroke="black" cx="408.92" cy="-180.37" rx="81.89" ry="25.41"/>
<text text-anchor="middle" x="408.92" y="-183.17" font-family="Times,serif" font-size="14.00">compare</text>
<text text-anchor="middle" x="408.92" y="-169.17" font-family="Times,serif" font-size="14.00">(CompareSwitch)</text>
</g>
<!-- /prime/candidates/start&#45;&gt;/prime/candidates/compare -->
<g id="edge3" class="edge">
<title>/prime/candidates/start:s&#45;&gt;/prime/candidates/compare:ne</title>
<path fill="none" stroke="black" d="M355.92,-311.82C355.92,-257.44 459.09,-248.31 440.36,-214.06"/>
<polygon fill="black" stroke="black" points="442.84,-211.54 433.92,-205.82 437.33,-215.86 442.84,-211.54"/>
<text text-anchor="middle" x="420.7" y="-208.62" font-family="Times,serif" font-size="14.00">right</text>
</g>
<!-- /prime/candidates/end -->
<g id="node2" class="node">
<title>/prime/candidates/end</title>
<polygon fill="white" stroke="black" points="461.98,-333.39 433.92,-345.82 405.87,-333.39 405.9,-313.26 461.95,-313.26 461.98,-333.39"/>
<text text-anchor="middle" x="433.92" y="-323.62" font-family="Times,serif" font-size="14.00">end</text>
</g>
<!-- /prime/candidates/end&#45;&gt;/prime/candidates/compare -->
<g id="edge4" class="edge">
<title>/prime/candidates/end:s&#45;&gt;/prime/candidates/compare:ne</title>
<path fill="none" stroke="black" d="M433.92,-311.82C433.92,-268.39 462.23,-243.26 440.56,-213.5"/>
<polygon fill="black" stroke="black" points="443.11,-211.1 433.92,-205.82 437.81,-215.68 443.11,-211.1"/>
<text text-anchor="middle" x="443.25" y="-208.62" font-family="Times,serif" font-size="14.00">left</text>
</g>
<!-- /prime/candidates/step -->
<g id="node3" class="node">
<title>/prime/candidates/step</title>
<polygon fill="white" stroke="black" points="307.13,-333.39 276.92,-345.82 246.72,-333.39 246.75,-313.26 307.1,-313.26 307.13,-333.39"/>
<text text-anchor="middle" x="276.92" y="-323.62" font-family="Times,serif" font-size="14.00">step</text>
</g>
<!-- /prime/candidates/add -->
<g id="node8" class="node">
<title>/prime/candidates/add</title>
<ellipse fill="coral" stroke="black" cx="311.92" cy="-79.46" rx="34.91" ry="25.41"/>
<text text-anchor="middle" x="311.92" y="-82.26" font-family="Times,serif" font-size="14.00">add</text>
<text text-anchor="middle" x="311.92" y="-68.26" font-family="Times,serif" font-size="14.00">(Add)</text>
</g>
<!-- /prime/candidates/step&#45;&gt;/prime/candidates/add -->
<g id="edge5" class="edge">
<title>/prime/candidates/step:s&#45;&gt;/prime/candidates/add:w</title>
<path fill="none" stroke="black" d="M276.92,-311.82C276.92,-288.93 255.84,-123.93 269.06,-86.84"/>
<polygon fill="black" stroke="black" points="271.68,-89.16 275.92,-79.46 266.55,-84.4 271.68,-89.16"/>
<text text-anchor="middle" x="270.48" y="-82.26" font-family="Times,serif" font-size="14.00">i2</text>
</g>
<!-- /prime/candidates/sequence -->
<g id="node4" class="node">
<title>/prime/candidates/sequence</title>
<polygon fill="black" stroke="black" points="288.32,-12.44 340.92,0 393.52,-12.44 393.47,-32.56 288.37,-32.56 288.32,-12.44"/>
<text text-anchor="middle" x="340.92" y="-13.8" font-family="Times,serif" font-size="14.00" fill="white">sequence</text>
</g>
<!-- /prime/candidates/last -->
<g id="node5" class="node">
<title>/prime/candidates/last</title>
<polygon fill="black" stroke="black" points="411.08,-12.44 438.92,0 466.77,-12.44 466.74,-32.56 411.1,-32.56 411.08,-12.44"/>
<text text-anchor="middle" x="438.92" y="-13.8" font-family="Times,serif" font-size="14.00" fill="white">last</text>
</g>
<!-- /prime/candidates/compare&#45;&gt;/prime/candidates/sequence -->
<g id="edge7" class="edge">
<title>/prime/candidates/compare:s&#45;&gt;/prime/candidates/sequence:n</title>
<path fill="none" stroke="black" d="M408.92,-154.91C408.92,-129.58 369.45,-75.41 355.92,-54 352.49,-48.57 348.01,-46.45 344.85,-43.48"/>
<polygon fill="black" stroke="black" points="347.98,-41.9 340.92,-34 341.52,-44.58 347.98,-41.9"/>
<text text-anchor="middle" x="402.86" y="-80.1" font-family="Times,serif" font-size="14.00">right&#45;lte</text>
</g>
<!-- /prime/candidates/compare&#45;&gt;/prime/candidates/last -->
<g id="edge11" class="edge">
<title>/prime/candidates/compare:s&#45;&gt;/prime/candidates/last:n</title>
<path fill="none" stroke="black" d="M408.92,-154.91C408.92,-103.11 435.18,-90.87 438.57,-44.17"/>
<polygon fill="black" stroke="black" points="442.07,-44.12 438.92,-34 435.07,-43.87 442.07,-44.12"/>
<text text-anchor="middle" x="399.85" y="-97.19" font-family="Times,serif" font-size="14.00">right&#45;gte</text>
</g>
<!-- /prime/candidates/compare&#45;&gt;/prime/candidates/compare -->
<g id="edge8" class="edge">
<title>/prime/candidates/compare:s&#45;&gt;/prime/candidates/compare:ne</title>
<path fill="none" stroke="black" d="M408.92,-154.37C442.15,-141.87 508.62,-141.87 508.62,-179.87 508.62,-214.31 474.56,-217.53 443.45,-208.53"/>
<polygon fill="black" stroke="black" points="444.52,-205.2 433.92,-205.37 442.31,-211.84 444.52,-205.2"/>
<text text-anchor="middle" x="395.86" y="-141.76" font-family="Times,serif" font-size="14.00">left&#45;gt</text>
<text text-anchor="middle" x="424.6" y="-208.17" font-family="Times,serif" font-size="14.00">left</text>
</g>
<!-- /prime/candidates/compare&#45;&gt;/prime/candidates/add -->
<g id="edge9" class="edge">
<title>/prime/candidates/compare:sw&#45;&gt;/prime/candidates/add:ne</title>
<path fill="none" stroke="black" d="M383.92,-154.91C373.72,-144.71 367.16,-147.07 356.92,-136.91 346.16,-126.23 345.86,-118.6 339.37,-109.13"/>
<polygon fill="black" stroke="black" points="342.03,-106.87 332.92,-101.46 336.67,-111.37 342.03,-106.87"/>
<text text-anchor="middle" x="333.52" y="-135.37" font-family="Times,serif" font-size="14.00">right&#45;lt</text>
<text text-anchor="middle" x="327.48" y="-104.26" font-family="Times,serif" font-size="14.00">i1</text>
</g>
<!-- initializer/prime/candidates/compare_1 -->
<!-- initializer/prime/candidates/compare_1&#45;&gt;/prime/candidates/compare -->
<g id="edge1" class="edge">
<title>initializer/prime/candidates/compare_1&#45;&gt;/prime/candidates/compare:ne</title>
<path fill="none" stroke="blue" stroke-dasharray="1,5" d="M528.71,-257.78C499.46,-248.67 466.45,-234.48 441.42,-212.8"/>
<polygon fill="blue" stroke="blue" points="443.63,-210.07 433.92,-205.82 438.86,-215.2 443.63,-210.07"/>
<text text-anchor="middle" x="480.42" y="-226.62" font-family="Times,serif" font-size="14.00">1</text>
</g>
<!-- /prime/candidates/add&#45;&gt;/prime/candidates/compare -->
<g id="edge10" class="edge">
<title>/prime/candidates/add:sw&#45;&gt;/prime/candidates/compare:ne</title>
<path fill="none" stroke="black" d="M290.92,-57.46C286.53,-53.06 281.2,-53.9 276.97,-58.46 262.9,-73.57 263.9,-88.93 276.97,-104.91 302.51,-136.13 326.61,-113.9 365.92,-122.91 421.69,-135.7 455.55,-109.71 490.62,-154.91 504.36,-172.63 506.33,-189.37 490.62,-205.37 483.65,-212.46 457.93,-214.53 443.01,-210.71"/>
<polygon fill="black" stroke="black" points="444.45,-207.52 433.92,-206.37 441.44,-213.84 444.45,-207.52"/>
<text text-anchor="middle" x="354.34" y="-111.73" font-family="Times,serif" font-size="14.00">sum</text>
<text text-anchor="middle" x="447.14" y="-209.17" font-family="Times,serif" font-size="14.00">right</text>
</g>
<!-- /prime/candidates/add&#45;&gt;/prime/candidates/add -->
<g id="edge6" class="edge">
<title>/prime/candidates/add:e&#45;&gt;/prime/candidates/add:w</title>
<path fill="none" stroke="black" d="M346.92,-79.46C364.88,-96.27 364.88,-129.91 311.92,-129.91 266.41,-129.91 260.01,-105.07 270.51,-87.41"/>
<polygon fill="black" stroke="black" points="273.37,-89.44 276.92,-79.46 267.92,-85.04 273.37,-89.44"/>
<text text-anchor="middle" x="352.37" y="-82.26" font-family="Times,serif" font-size="14.00">i2</text>
<text text-anchor="middle" x="271.48" y="-68.26" font-family="Times,serif" font-size="14.00">i2</text>
</g>
<!-- initializer/prime/candidates/add_1 -->
<!-- initializer/prime/candidates/add_1&#45;&gt;/prime/candidates/add -->
<g id="edge2" class="edge">
<title>initializer/prime/candidates/add_1&#45;&gt;/prime/candidates/add:w</title>
<path fill="none" stroke="blue" stroke-dasharray="1,5" d="M143.65,-162.42C165.3,-135.58 212.21,-85.75 265.84,-80"/>
<polygon fill="blue" stroke="blue" points="266.13,-83.49 275.92,-79.46 265.75,-76.5 266.13,-83.49"/>
<text text-anchor="middle" x="184.42" y="-125.71" font-family="Times,serif" font-size="14.00">1</text>
</g>
</g>
</svg>
