<?xml version="1.0" encoding="UTF-8" standalone="no"?>
<!DOCTYPE svg PUBLIC "-//W3C//DTD SVG 1.1//EN"
 "http://www.w3.org/Graphics/SVG/1.1/DTD/svg11.dtd">
<!-- Generated by graphviz version 2.43.0 (0)
 -->
<!-- Title: composites Pages: 1 -->
<svg width="839pt" height="915pt"
 viewBox="28.80 28.80 810.10 886.28" xmlns="http://www.w3.org/2000/svg" xmlns:xlink="http://www.w3.org/1999/xlink">
<g id="graph0" class="graph" transform="scale(1 1) rotate(0) translate(32.8 882.28)">
<title>composites</title>
<polygon fill="white" stroke="transparent" points="-4,4 -4,-853.48 777.3,-853.48 777.3,4 -4,4"/>
<text text-anchor="middle" x="386.65" y="-834.28" font-family="Times,serif" font-size="14.00">composites</text>
<!-- /prime/composites/limit -->
<g id="node1" class="node">
<title>/prime/composites/limit</title>
<polygon fill="white" stroke="black" points="169.1,-814.04 128.76,-826.48 88.42,-814.04 88.46,-793.92 169.06,-793.92 169.1,-814.04"/>
<text text-anchor="middle" x="128.76" y="-804.78" font-family="Times,serif" font-size="14.00">limit</text>
</g>
<!-- /prime/composites/sqrt -->
<g id="node4" class="node">
<title>/prime/composites/sqrt</title>
<g id="a_node4"><a xlink:href="../../flowstdlib/math/sqrt/sqrt.html" xlink:title="sqrt">
<ellipse fill="coral" stroke="black" cx="180.76" cy="-735.48" rx="29.8" ry="18"/>
<text text-anchor="middle" x="180.76" y="-731.78" font-family="Times,serif" font-size="14.00">sqrt</text>
</a>
</g>
</g>
<!-- /prime/composites/limit&#45;&gt;/prime/composites/sqrt -->
<g id="edge3" class="edge">
<title>/prime/composites/limit:s&#45;&gt;/prime/composites/sqrt:w</title>
<path fill="none" stroke="black" d="M128.76,-792.48C128.76,-782.04 133.24,-753.65 141.52,-741.32"/>
<polygon fill="black" stroke="black" points="143.63,-744.12 149.76,-735.48 139.58,-738.41 143.63,-744.12"/>
</g>
<!-- /prime/composites/generate_composites -->
<g id="node6" class="node">
<title>/prime/composites/generate_composites</title>
<g id="a_node6"><a xlink:href="generate_composites.dot.svg" xlink:title="generate_composites">
<ellipse fill="aquamarine" stroke="black" cx="116.76" cy="-427.48" rx="84.67" ry="72"/>
<text text-anchor="middle" x="116.76" y="-423.78" font-family="Times,serif" font-size="14.00">generate_composites</text>
</a>
</g>
</g>
<!-- /prime/composites/limit&#45;&gt;/prime/composites/generate_composites -->
<g id="edge6" class="edge">
<title>/prime/composites/limit:s&#45;&gt;/prime/composites/generate_composites:n</title>
<path fill="none" stroke="black" d="M128.76,-792.48C128.76,-665.59 117.38,-631.59 116.78,-509.59"/>
<polygon fill="black" stroke="black" points="120.28,-509.47 116.76,-499.48 113.28,-509.49 120.28,-509.47"/>
<text text-anchor="middle" x="99.76" y="-503.28" font-family="Times,serif" font-size="14.00">limit</text>
</g>
<!-- /prime/composites/composites -->
<g id="node2" class="node">
<title>/prime/composites/composites</title>
<polygon fill="black" stroke="black" points="25.9,-12.44 103.76,0 181.61,-12.44 181.54,-32.56 25.98,-32.56 25.9,-12.44"/>
<text text-anchor="middle" x="103.76" y="-14.3" font-family="Times,serif" font-size="14.00" fill="white">composites</text>
</g>
<!-- /prime/composites/last -->
<g id="node3" class="node">
<title>/prime/composites/last</title>
<polygon fill="black" stroke="black" points="704.17,-12.44 738.76,0 773.35,-12.44 773.32,-32.56 704.2,-32.56 704.17,-12.44"/>
<text text-anchor="middle" x="738.76" y="-14.3" font-family="Times,serif" font-size="14.00" fill="white">last</text>
</g>
<!-- /prime/composites/divisors -->
<g id="node5" class="node">
<title>/prime/composites/divisors</title>
<g id="a_node5"><a xlink:href="lib://flowstdlib/math/sequence.dot.svg" xlink:title="divisors">
<ellipse fill="aquamarine" stroke="black" cx="216.76" cy="-608.48" rx="72" ry="72"/>
<text text-anchor="middle" x="216.76" y="-604.78" font-family="Times,serif" font-size="14.00">divisors</text>
</a>
</g>
</g>
<!-- /prime/composites/sqrt&#45;&gt;/prime/composites/divisors -->
<g id="edge4" class="edge">
<title>/prime/composites/sqrt:e&#45;&gt;/prime/composites/divisors:n</title>
<path fill="none" stroke="black" d="M211.76,-735.48C233.04,-735.48 221.17,-712.58 217.64,-690.49"/>
<polygon fill="black" stroke="black" points="221.13,-690.13 216.76,-680.48 214.15,-690.75 221.13,-690.13"/>
<text text-anchor="middle" x="203.26" y="-684.28" font-family="Times,serif" font-size="14.00">end</text>
</g>
<!-- /prime/composites/divisors&#45;&gt;/prime/composites/generate_composites -->
<g id="edge5" class="edge">
<title>/prime/composites/divisors:s&#45;&gt;/prime/composites/generate_composites:n</title>
<path fill="none" stroke="black" d="M216.76,-536.48C216.76,-516.21 143.57,-520.88 122.42,-507.82"/>
<polygon fill="black" stroke="black" points="125.27,-505.79 116.76,-499.48 119.48,-509.72 125.27,-505.79"/>
<text text-anchor="middle" x="133.07" y="-521.76" font-family="Times,serif" font-size="14.00">sequence</text>
<text text-anchor="middle" x="134.26" y="-503.28" font-family="Times,serif" font-size="14.00">start</text>
</g>
<!-- /prime/composites/compare -->
<g id="node11" class="node">
<title>/prime/composites/compare</title>
<g id="a_node11"><a xlink:href="../../flowstdlib/control/compare_switch/compare_switch.html" xlink:title="compare\n(compare_switch)">
<ellipse fill="coral" stroke="black" cx="637.76" cy="-99.87" rx="100.32" ry="26.74"/>
<text text-anchor="middle" x="637.76" y="-103.67" font-family="Times,serif" font-size="14.00">compare</text>
<text text-anchor="middle" x="637.76" y="-88.67" font-family="Times,serif" font-size="14.00">(compare_switch)</text>
</a>
</g>
</g>
<!-- /prime/composites/divisors&#45;&gt;/prime/composites/compare -->
<g id="edge11" class="edge">
<title>/prime/composites/divisors:s&#45;&gt;/prime/composites/compare:ne</title>
<path fill="none" stroke="black" d="M216.76,-536.48C216.76,-496.93 532.72,-510.3 570.76,-499.48 640.55,-479.64 717.76,-501.04 717.76,-428.48 717.76,-428.48 717.76,-428.48 717.76,-189.61 717.76,-165.62 704.25,-162.16 687.76,-144.74 681.45,-138.09 676.93,-136.53 671.65,-133.14"/>
<polygon fill="black" stroke="black" points="673.73,-130.32 663.76,-126.74 669.32,-135.76 673.73,-130.32"/>
<text text-anchor="middle" x="430.44" y="-509.27" font-family="Times,serif" font-size="14.00">last</text>
<text text-anchor="middle" x="651.26" y="-130.54" font-family="Times,serif" font-size="14.00">left</text>
</g>
<!-- /prime/composites/generate_composites&#45;&gt;/prime/composites/composites -->
<g id="edge7" class="edge">
<title>/prime/composites/generate_composites:s&#45;&gt;/prime/composites/composites:n</title>
<path fill="none" stroke="black" d="M116.76,-355.48C116.76,-324.71 103.76,-318.25 103.76,-287.48 103.76,-287.48 103.76,-287.48 103.76,-98.87 103.76,-73.76 103.76,-65.05 103.76,-44.16"/>
<polygon fill="black" stroke="black" points="107.26,-44 103.76,-34 100.26,-44 107.26,-44"/>
<text text-anchor="middle" x="63.26" y="-267.71" font-family="Times,serif" font-size="14.00">composites</text>
</g>
<!-- /prime/composites/join -->
<g id="node7" class="node">
<title>/prime/composites/join</title>
<g id="a_node7"><a xlink:href="../../flowstdlib/control/join/join.html" xlink:title="join">
<ellipse fill="coral" stroke="black" cx="159.76" cy="-286.48" rx="27.9" ry="18"/>
<text text-anchor="middle" x="159.76" y="-282.78" font-family="Times,serif" font-size="14.00">join</text>
</a>
</g>
</g>
<!-- /prime/composites/generate_composites&#45;&gt;/prime/composites/join -->
<g id="edge8" class="edge">
<title>/prime/composites/generate_composites:s&#45;&gt;/prime/composites/join:nw</title>
<path fill="none" stroke="black" d="M116.76,-355.48C116.76,-333.1 123.1,-324.38 136.57,-310.69"/>
<polygon fill="black" stroke="black" points="139.17,-313.03 143.76,-303.48 134.22,-308.09 139.17,-313.03"/>
<text text-anchor="middle" x="62" y="-329.37" font-family="Times,serif" font-size="14.00">subsequence&#45;end</text>
<text text-anchor="middle" x="118.26" y="-307.28" font-family="Times,serif" font-size="14.00">control</text>
</g>
<!-- /prime/composites/subsequence&#45;count -->
<g id="node9" class="node">
<title>/prime/composites/subsequence&#45;count</title>
<g id="a_node9"><a xlink:href="../../flowstdlib/math/add/add.html" xlink:title="subsequence&#45;count\n(add)">
<ellipse fill="coral" stroke="black" cx="421.76" cy="-190.61" rx="108.38" ry="26.74"/>
<text text-anchor="middle" x="421.76" y="-194.41" font-family="Times,serif" font-size="14.00">subsequence&#45;count</text>
<text text-anchor="middle" x="421.76" y="-179.41" font-family="Times,serif" font-size="14.00">(add)</text>
</a>
</g>
</g>
<!-- /prime/composites/join&#45;&gt;/prime/composites/subsequence&#45;count -->
<g id="edge9" class="edge">
<title>/prime/composites/join:e&#45;&gt;/prime/composites/subsequence&#45;count:w</title>
<path fill="none" stroke="black" d="M188.76,-286.48C197.51,-286.48 191.13,-275.18 196.76,-268.48 234.45,-223.64 249,-194.1 302.66,-190.9"/>
<polygon fill="black" stroke="black" points="302.86,-194.4 312.76,-190.61 302.66,-187.4 302.86,-194.4"/>
<text text-anchor="middle" x="305.76" y="-194.41" font-family="Times,serif" font-size="14.00">i2</text>
</g>
<!-- initializer/prime/composites/join_0 -->
<!-- initializer/prime/composites/join_0&#45;&gt;/prime/composites/join -->
<g id="edge1" class="edge">
<title>initializer/prime/composites/join_0&#45;&gt;/prime/composites/join:nw</title>
<path fill="none" stroke="blue" d="M348.24,-409.96C284.52,-384.72 169.3,-337 146.49,-313.38"/>
<polygon fill="blue" stroke="blue" points="149.8,-312.19 143.76,-303.48 143.05,-314.05 149.8,-312.19"/>
<text text-anchor="middle" x="185.76" y="-326.28" font-family="Times,serif" font-size="14.00">1</text>
</g>
<!-- /prime/composites/subsequence&#45;count&#45;&gt;/prime/composites/subsequence&#45;count -->
<g id="edge10" class="edge">
<title>/prime/composites/subsequence&#45;count:e&#45;&gt;/prime/composites/subsequence&#45;count:ne</title>
<path fill="none" stroke="black" d="M529.76,-190.61C535.94,-179.61 547.94,-179.61 547.94,-203.61 547.94,-225.78 498.34,-227.47 457.62,-218.93"/>
<polygon fill="black" stroke="black" points="458.29,-215.49 447.76,-216.61 456.69,-222.3 458.29,-215.49"/>
<text text-anchor="middle" x="440.76" y="-220.41" font-family="Times,serif" font-size="14.00">i1</text>
</g>
<!-- /prime/composites/subsequence&#45;count&#45;&gt;/prime/composites/compare -->
<g id="edge12" class="edge">
<title>/prime/composites/subsequence&#45;count:e&#45;&gt;/prime/composites/compare:ne</title>
<path fill="none" stroke="black" d="M530.76,-190.61C592.49,-190.61 696.96,-175.1 670.3,-134.6"/>
<polygon fill="black" stroke="black" points="672.85,-132.18 663.76,-126.74 667.47,-136.66 672.85,-132.18"/>
<text text-anchor="middle" x="681.76" y="-130.54" font-family="Times,serif" font-size="14.00">right</text>
</g>
<!-- initializer/prime/composites/subsequence&#45;count_0 -->
<!-- initializer/prime/composites/subsequence&#45;count_0&#45;&gt;/prime/composites/subsequence&#45;count -->
<g id="edge2" class="edge">
<title>initializer/prime/composites/subsequence&#45;count_0&#45;&gt;/prime/composites/subsequence&#45;count:ne</title>
<path fill="none" stroke="blue" stroke-dasharray="1,5" d="M453.72,-268.42C457.14,-255.81 459.66,-238.66 453.5,-225.69"/>
<polygon fill="blue" stroke="blue" points="456.36,-223.66 447.76,-217.48 450.63,-227.68 456.36,-223.66"/>
<text text-anchor="middle" x="461.76" y="-239.28" font-family="Times,serif" font-size="14.00">1</text>
</g>
<!-- /prime/composites/compare&#45;&gt;/prime/composites/last -->
<g id="edge13" class="edge">
<title>/prime/composites/compare:e&#45;&gt;/prime/composites/last:n</title>
<path fill="none" stroke="black" d="M739.76,-99.87C765.72,-99.87 744.85,-71.1 739.79,-44.17"/>
<polygon fill="black" stroke="black" points="743.25,-43.59 738.76,-34 736.29,-44.3 743.25,-43.59"/>
<text text-anchor="middle" x="725.79" y="-53.64" font-family="Times,serif" font-size="14.00">equal</text>
</g>
</g>
</svg>
