<?xml version="1.0" encoding="UTF-8" standalone="no"?>
<!DOCTYPE svg PUBLIC "-//W3C//DTD SVG 1.1//EN"
 "http://www.w3.org/Graphics/SVG/1.1/DTD/svg11.dtd">
<!-- Generated by graphviz version 2.44.0 (20200408.0750)
 -->
<!-- Title: composites Pages: 1 -->
<svg width="664pt" height="951pt"
 viewBox="28.80 28.80 635.68 921.76" xmlns="http://www.w3.org/2000/svg" xmlns:xlink="http://www.w3.org/1999/xlink">
<g id="graph0" class="graph" transform="scale(1 1) rotate(0) translate(32.8 917.76)">
<title>composites</title>
<polygon fill="white" stroke="transparent" points="-4,4 -4,-888.96 602.88,-888.96 602.88,4 -4,4"/>
<text text-anchor="middle" x="299.44" y="-869.76" font-family="Times,serif" font-size="14.00">composites</text>
<!-- /prime/composites/limit -->
<g id="node1" class="node">
<title>/prime/composites/limit</title>
<polygon fill="white" stroke="black" points="132.35,-849.52 97.76,-861.96 63.17,-849.52 63.2,-829.4 132.32,-829.4 132.35,-849.52"/>
<text text-anchor="middle" x="97.76" y="-840.26" font-family="Times,serif" font-size="14.00">limit</text>
</g>
<!-- /prime/composites/sqrt -->
<g id="node4" class="node">
<title>/prime/composites/sqrt</title>
<g id="a_node4"><a xlink:href="../../flowstdlib/math/sqrt/sqrt.toml" xlink:title="sqrt\n(Sqrt)">
<ellipse fill="coral" stroke="black" cx="149.76" cy="-762.09" rx="33.88" ry="26.74"/>
<text text-anchor="middle" x="149.76" y="-765.89" font-family="Times,serif" font-size="14.00">sqrt</text>
<text text-anchor="middle" x="149.76" y="-750.89" font-family="Times,serif" font-size="14.00">(Sqrt)</text>
</a>
</g>
</g>
<!-- /prime/composites/limit&#45;&gt;/prime/composites/sqrt -->
<g id="edge3" class="edge">
<title>/prime/composites/limit:s&#45;&gt;/prime/composites/sqrt:w</title>
<path fill="none" stroke="black" d="M97.76,-827.96C97.76,-816.15 98.91,-782.59 106.62,-768.47"/>
<polygon fill="black" stroke="black" points="109.05,-771.01 114.76,-762.09 104.73,-765.51 109.05,-771.01"/>
</g>
<!-- /prime/composites/generate_composites -->
<g id="node6" class="node">
<title>/prime/composites/generate_composites</title>
<g id="a_node6"><a xlink:href="generate_composites.dot.svg" xlink:title="generate_composites">
<ellipse fill="aquamarine" stroke="black" cx="85.76" cy="-445.22" rx="72" ry="72"/>
<text text-anchor="middle" x="85.76" y="-441.52" font-family="Times,serif" font-size="14.00">generate_composites</text>
</a>
</g>
</g>
<!-- /prime/composites/limit&#45;&gt;/prime/composites/generate_composites -->
<g id="edge6" class="edge">
<title>/prime/composites/limit:s&#45;&gt;/prime/composites/generate_composites:n</title>
<path fill="none" stroke="black" d="M97.76,-827.96C97.76,-693.26 86.36,-657.24 85.78,-527.55"/>
<polygon fill="black" stroke="black" points="89.28,-527.21 85.76,-517.22 82.28,-527.23 89.28,-527.21"/>
<text text-anchor="middle" x="72.26" y="-521.02" font-family="Times,serif" font-size="14.00">limit</text>
</g>
<!-- /prime/composites/composites -->
<g id="node2" class="node">
<title>/prime/composites/composites</title>
<polygon fill="black" stroke="black" points="9.93,-12.44 72.76,0 135.59,-12.44 135.53,-32.56 9.99,-32.56 9.93,-12.44"/>
<text text-anchor="middle" x="72.76" y="-14.3" font-family="Times,serif" font-size="14.00" fill="white">composites</text>
</g>
<!-- /prime/composites/last -->
<g id="node3" class="node">
<title>/prime/composites/last</title>
<polygon fill="black" stroke="black" points="542.52,-12.44 570.76,0 599,-12.44 598.97,-32.56 542.55,-32.56 542.52,-12.44"/>
<text text-anchor="middle" x="570.76" y="-14.3" font-family="Times,serif" font-size="14.00" fill="white">last</text>
</g>
<!-- /prime/composites/divisors -->
<g id="node5" class="node">
<title>/prime/composites/divisors</title>
<g id="a_node5"><a xlink:href="../../flowstdlib/math/sequence.dot.svg" xlink:title="divisors">
<ellipse fill="aquamarine" stroke="black" cx="185.76" cy="-626.22" rx="72" ry="72"/>
<text text-anchor="middle" x="185.76" y="-622.52" font-family="Times,serif" font-size="14.00">divisors</text>
</a>
</g>
</g>
<!-- /prime/composites/sqrt&#45;&gt;/prime/composites/divisors -->
<g id="edge4" class="edge">
<title>/prime/composites/sqrt:e&#45;&gt;/prime/composites/divisors:n</title>
<path fill="none" stroke="black" d="M184.76,-762.09C209.82,-762.09 191.41,-734.44 186.75,-708.42"/>
<polygon fill="black" stroke="black" points="190.21,-707.83 185.76,-698.22 183.25,-708.51 190.21,-707.83"/>
<text text-anchor="middle" x="175.76" y="-702.02" font-family="Times,serif" font-size="14.00">end</text>
</g>
<!-- /prime/composites/divisors&#45;&gt;/prime/composites/generate_composites -->
<g id="edge5" class="edge">
<title>/prime/composites/divisors:s&#45;&gt;/prime/composites/generate_composites:n</title>
<path fill="none" stroke="black" d="M185.76,-554.22C185.76,-533.95 112.58,-538.62 91.42,-525.56"/>
<polygon fill="black" stroke="black" points="94.27,-523.53 85.76,-517.22 88.48,-527.46 94.27,-523.53"/>
<text text-anchor="middle" x="110.57" y="-539.5" font-family="Times,serif" font-size="14.00">sequence</text>
<text text-anchor="middle" x="97.76" y="-521.02" font-family="Times,serif" font-size="14.00">start</text>
</g>
<!-- /prime/composites/compare -->
<g id="node11" class="node">
<title>/prime/composites/compare</title>
<g id="a_node11"><a xlink:href="../../flowstdlib/control/compare_switch/compare_switch.toml" xlink:title="compare\n(CompareSwitch)">
<ellipse fill="coral" stroke="black" cx="490.76" cy="-99.87" rx="79.81" ry="26.74"/>
<text text-anchor="middle" x="490.76" y="-103.67" font-family="Times,serif" font-size="14.00">compare</text>
<text text-anchor="middle" x="490.76" y="-88.67" font-family="Times,serif" font-size="14.00">(CompareSwitch)</text>
</a>
</g>
</g>
<!-- /prime/composites/divisors&#45;&gt;/prime/composites/compare -->
<g id="edge11" class="edge">
<title>/prime/composites/divisors:s&#45;&gt;/prime/composites/compare:ne</title>
<path fill="none" stroke="black" d="M185.76,-554.22C185.76,-493.88 397.28,-535.57 454.76,-517.22 519.72,-496.49 590.76,-514.41 590.76,-446.22 590.76,-446.22 590.76,-446.22 590.76,-189.61 590.76,-149.99 554.12,-155.85 524.5,-133.47"/>
<polygon fill="black" stroke="black" points="526.6,-130.66 516.76,-126.74 522.01,-135.94 526.6,-130.66"/>
<text text-anchor="middle" x="335.95" y="-524.91" font-family="Times,serif" font-size="14.00">last</text>
<text text-anchor="middle" x="507.26" y="-130.54" font-family="Times,serif" font-size="14.00">left</text>
</g>
<!-- /prime/composites/generate_composites&#45;&gt;/prime/composites/composites -->
<g id="edge7" class="edge">
<title>/prime/composites/generate_composites:s&#45;&gt;/prime/composites/composites:n</title>
<path fill="none" stroke="black" d="M85.76,-373.22C85.76,-338.57 72.76,-331 72.76,-296.35 72.76,-296.35 72.76,-296.35 72.76,-98.87 72.76,-73.76 72.76,-65.05 72.76,-44.16"/>
<polygon fill="black" stroke="black" points="76.26,-44 72.76,-34 69.26,-44 76.26,-44"/>
<text text-anchor="middle" x="41.76" y="-275.47" font-family="Times,serif" font-size="14.00">composites</text>
</g>
<!-- /prime/composites/join -->
<g id="node7" class="node">
<title>/prime/composites/join</title>
<g id="a_node7"><a xlink:href="../../flowstdlib/control/join/join.toml" xlink:title="join\n(Join)">
<ellipse fill="coral" stroke="black" cx="134.76" cy="-295.35" rx="33.88" ry="26.74"/>
<text text-anchor="middle" x="134.76" y="-299.15" font-family="Times,serif" font-size="14.00">join</text>
<text text-anchor="middle" x="134.76" y="-284.15" font-family="Times,serif" font-size="14.00">(Join)</text>
</a>
</g>
</g>
<!-- /prime/composites/generate_composites&#45;&gt;/prime/composites/join -->
<g id="edge8" class="edge">
<title>/prime/composites/generate_composites:s&#45;&gt;/prime/composites/join:nw</title>
<path fill="none" stroke="black" d="M85.76,-373.22C85.76,-349.13 92.05,-339.58 106.53,-324.66"/>
<polygon fill="black" stroke="black" points="109.21,-326.92 113.76,-317.35 104.24,-321.99 109.21,-326.92"/>
<text text-anchor="middle" x="46.5" y="-344.99" font-family="Times,serif" font-size="14.00">subsequence&#45;end</text>
<text text-anchor="middle" x="94.26" y="-321.15" font-family="Times,serif" font-size="14.00">control</text>
</g>
<!-- /prime/composites/subsequence&#45;count -->
<g id="node9" class="node">
<title>/prime/composites/subsequence&#45;count</title>
<g id="a_node9"><a xlink:href="../../flowstdlib/math/add/add.toml" xlink:title="subsequence&#45;count\n(Add)">
<ellipse fill="coral" stroke="black" cx="348.76" cy="-190.61" rx="84.29" ry="26.74"/>
<text text-anchor="middle" x="348.76" y="-194.41" font-family="Times,serif" font-size="14.00">subsequence&#45;count</text>
<text text-anchor="middle" x="348.76" y="-179.41" font-family="Times,serif" font-size="14.00">(Add)</text>
</a>
</g>
</g>
<!-- /prime/composites/join&#45;&gt;/prime/composites/subsequence&#45;count -->
<g id="edge9" class="edge">
<title>/prime/composites/join:e&#45;&gt;/prime/composites/subsequence&#45;count:w</title>
<path fill="none" stroke="black" d="M169.76,-295.35C182.22,-295.35 171.12,-279.02 177.76,-268.48 203.31,-227.92 211.12,-195.47 253.52,-191.11"/>
<polygon fill="black" stroke="black" points="253.94,-194.59 263.76,-190.61 253.6,-187.6 253.94,-194.59"/>
<text text-anchor="middle" x="258.26" y="-194.41" font-family="Times,serif" font-size="14.00">i2</text>
</g>
<!-- initializer/prime/composites/join_0 -->
<!-- initializer/prime/composites/join_0&#45;&gt;/prime/composites/join -->
<g id="edge1" class="edge">
<title>initializer/prime/composites/join_0&#45;&gt;/prime/composites/join:nw</title>
<path fill="none" stroke="blue" d="M278.78,-427.71C228.78,-401.49 135.77,-350.85 116.28,-327.31"/>
<polygon fill="blue" stroke="blue" points="119.61,-326.19 113.76,-317.35 112.82,-327.9 119.61,-326.19"/>
<text text-anchor="middle" x="151.26" y="-344.02" font-family="Times,serif" font-size="14.00">1</text>
</g>
<!-- /prime/composites/subsequence&#45;count&#45;&gt;/prime/composites/subsequence&#45;count -->
<g id="edge10" class="edge">
<title>/prime/composites/subsequence&#45;count:sw&#45;&gt;/prime/composites/subsequence&#45;count:ne</title>
<path fill="none" stroke="black" d="M322.76,-164.61C246.61,-180.9 246.61,-239.48 348.76,-239.48 446.12,-239.48 450.68,-226.16 384.96,-217.8"/>
<polygon fill="black" stroke="black" points="385.1,-214.3 374.76,-216.61 384.29,-221.25 385.1,-214.3"/>
<text text-anchor="middle" x="310.75" y="-153.41" font-family="Times,serif" font-size="14.00">sum</text>
<text text-anchor="middle" x="369.26" y="-220.41" font-family="Times,serif" font-size="14.00">i1</text>
</g>
<!-- /prime/composites/subsequence&#45;count&#45;&gt;/prime/composites/compare -->
<g id="edge12" class="edge">
<title>/prime/composites/subsequence&#45;count:sw&#45;&gt;/prime/composites/compare:ne</title>
<path fill="none" stroke="black" d="M322.76,-163.74C263.6,-104.58 549.84,-180.97 523.06,-134.52"/>
<polygon fill="black" stroke="black" points="525.78,-132.31 516.76,-126.74 520.34,-136.71 525.78,-132.31"/>
<text text-anchor="middle" x="398.75" y="-148.16" font-family="Times,serif" font-size="14.00">sum</text>
<text text-anchor="middle" x="529.76" y="-130.54" font-family="Times,serif" font-size="14.00">right</text>
</g>
<!-- initializer/prime/composites/subsequence&#45;count_0 -->
<!-- initializer/prime/composites/subsequence&#45;count_0&#45;&gt;/prime/composites/subsequence&#45;count -->
<g id="edge2" class="edge">
<title>initializer/prime/composites/subsequence&#45;count_0&#45;&gt;/prime/composites/subsequence&#45;count:ne</title>
<path fill="none" stroke="blue" stroke-dasharray="1,5" d="M380.94,-277.05C385.16,-262.37 388.69,-241.29 380.8,-225.84"/>
<polygon fill="blue" stroke="blue" points="383.46,-223.53 374.76,-217.48 377.78,-227.63 383.46,-223.53"/>
<text text-anchor="middle" x="388.26" y="-239.28" font-family="Times,serif" font-size="14.00">1</text>
</g>
<!-- /prime/composites/compare&#45;&gt;/prime/composites/last -->
<g id="edge13" class="edge">
<title>/prime/composites/compare:e&#45;&gt;/prime/composites/last:n</title>
<path fill="none" stroke="black" d="M571.76,-99.87C597.72,-99.87 576.86,-71.1 571.8,-44.17"/>
<polygon fill="black" stroke="black" points="575.26,-43.59 570.76,-34 568.29,-44.3 575.26,-43.59"/>
<text text-anchor="middle" x="562.79" y="-53.64" font-family="Times,serif" font-size="14.00">equal</text>
</g>
</g>
</svg>
