<?xml version="1.0" encoding="UTF-8" standalone="no"?>
<!DOCTYPE svg PUBLIC "-//W3C//DTD SVG 1.1//EN"
 "http://www.w3.org/Graphics/SVG/1.1/DTD/svg11.dtd">
<!-- Generated by graphviz version 2.42.4 (0)
 -->
<!-- Title: composites Pages: 1 -->
<svg width="823pt" height="951pt"
 viewBox="28.80 28.80 794.35 921.76" xmlns="http://www.w3.org/2000/svg" xmlns:xlink="http://www.w3.org/1999/xlink">
<g id="graph0" class="graph" transform="scale(1 1) rotate(0) translate(32.8 917.76)">
<title>composites</title>
<polygon fill="white" stroke="transparent" points="-4,4 -4,-888.96 761.55,-888.96 761.55,4 -4,4"/>
<text text-anchor="middle" x="378.77" y="-869.76" font-family="Times,serif" font-size="14.00">composites</text>
<!-- /prime/composites/limit -->
<g id="node1" class="node">
<title>/prime/composites/limit</title>
<polygon fill="white" stroke="black" points="167.34,-849.52 127,-861.96 86.67,-849.52 86.7,-829.4 167.3,-829.4 167.34,-849.52"/>
<text text-anchor="middle" x="127" y="-840.26" font-family="Times,serif" font-size="14.00">limit</text>
</g>
<!-- /prime/composites/sqrt -->
<g id="node4" class="node">
<title>/prime/composites/sqrt</title>
<g id="a_node4"><a xlink:href="../../flowstdlib/math/sqrt/sqrt.html" xlink:title="sqrt\n(Sqrt)">
<ellipse fill="coral" stroke="black" cx="185" cy="-762.09" rx="41.94" ry="26.74"/>
<text text-anchor="middle" x="185" y="-765.89" font-family="Times,serif" font-size="14.00">sqrt</text>
<text text-anchor="middle" x="185" y="-750.89" font-family="Times,serif" font-size="14.00">(Sqrt)</text>
</a>
</g>
</g>
<!-- /prime/composites/limit&#45;&gt;/prime/composites/sqrt -->
<g id="edge3" class="edge">
<title>/prime/composites/limit:s&#45;&gt;/prime/composites/sqrt:w</title>
<path fill="none" stroke="black" d="M127,-827.96C127,-822.27 131.31,-787.38 136.66,-770.81"/>
<polygon fill="black" stroke="black" points="139.76,-772.45 142,-762.09 133.79,-768.79 139.76,-772.45"/>
</g>
<!-- /prime/composites/generate_composites -->
<g id="node6" class="node">
<title>/prime/composites/generate_composites</title>
<g id="a_node6"><a xlink:href="generate_composites.dot.svg" xlink:title="generate_composites">
<ellipse fill="aquamarine" stroke="black" cx="115" cy="-445.22" rx="84.67" ry="72"/>
<text text-anchor="middle" x="115" y="-441.52" font-family="Times,serif" font-size="14.00">generate_composites</text>
</a>
</g>
</g>
<!-- /prime/composites/limit&#45;&gt;/prime/composites/generate_composites -->
<g id="edge6" class="edge">
<title>/prime/composites/limit:s&#45;&gt;/prime/composites/generate_composites:n</title>
<path fill="none" stroke="black" d="M127,-827.96C127,-693.26 115.6,-657.24 115.03,-527.55"/>
<polygon fill="black" stroke="black" points="118.53,-527.21 115,-517.22 111.53,-527.23 118.53,-527.21"/>
<text text-anchor="middle" x="98" y="-521.02" font-family="Times,serif" font-size="14.00">limit</text>
</g>
<!-- /prime/composites/composites -->
<g id="node2" class="node">
<title>/prime/composites/composites</title>
<polygon fill="black" stroke="black" points="24.15,-12.44 102,0 179.86,-12.44 179.78,-32.56 24.22,-32.56 24.15,-12.44"/>
<text text-anchor="middle" x="102" y="-14.3" font-family="Times,serif" font-size="14.00" fill="white">composites</text>
</g>
<!-- /prime/composites/last -->
<g id="node3" class="node">
<title>/prime/composites/last</title>
<polygon fill="black" stroke="black" points="688.41,-12.44 723,0 757.59,-12.44 757.56,-32.56 688.45,-32.56 688.41,-12.44"/>
<text text-anchor="middle" x="723" y="-14.3" font-family="Times,serif" font-size="14.00" fill="white">last</text>
</g>
<!-- /prime/composites/divisors -->
<g id="node5" class="node">
<title>/prime/composites/divisors</title>
<g id="a_node5"><a xlink:href="../../flowstdlib/math/sequence.dot.svg" xlink:title="divisors">
<ellipse fill="aquamarine" stroke="black" cx="227" cy="-626.22" rx="72" ry="72"/>
<text text-anchor="middle" x="227" y="-622.52" font-family="Times,serif" font-size="14.00">divisors</text>
</a>
</g>
</g>
<!-- /prime/composites/sqrt&#45;&gt;/prime/composites/divisors -->
<g id="edge4" class="edge">
<title>/prime/composites/sqrt:e&#45;&gt;/prime/composites/divisors:n</title>
<path fill="none" stroke="black" d="M228,-762.09C253.07,-762.09 233.1,-734.44 228.07,-708.42"/>
<polygon fill="black" stroke="black" points="231.53,-707.8 227,-698.22 224.57,-708.53 231.53,-707.8"/>
<text text-anchor="middle" x="213.5" y="-702.02" font-family="Times,serif" font-size="14.00">end</text>
</g>
<!-- /prime/composites/divisors&#45;&gt;/prime/composites/generate_composites -->
<g id="edge5" class="edge">
<title>/prime/composites/divisors:s&#45;&gt;/prime/composites/generate_composites:n</title>
<path fill="none" stroke="black" d="M227,-554.22C227,-531.49 142.78,-540.07 120.41,-525.66"/>
<polygon fill="black" stroke="black" points="123.34,-523.75 115,-517.22 117.45,-527.53 123.34,-523.75"/>
<text text-anchor="middle" x="137.85" y="-539.55" font-family="Times,serif" font-size="14.00">sequence</text>
<text text-anchor="middle" x="132.5" y="-521.02" font-family="Times,serif" font-size="14.00">start</text>
</g>
<!-- /prime/composites/compare -->
<g id="node11" class="node">
<title>/prime/composites/compare</title>
<g id="a_node11"><a xlink:href="../../flowstdlib/control/compare_switch/compare_switch.html" xlink:title="compare\n(CompareSwitch)">
<ellipse fill="coral" stroke="black" cx="624" cy="-99.87" rx="98.99" ry="26.74"/>
<text text-anchor="middle" x="624" y="-103.67" font-family="Times,serif" font-size="14.00">compare</text>
<text text-anchor="middle" x="624" y="-88.67" font-family="Times,serif" font-size="14.00">(CompareSwitch)</text>
</a>
</g>
</g>
<!-- /prime/composites/divisors&#45;&gt;/prime/composites/compare -->
<g id="edge11" class="edge">
<title>/prime/composites/divisors:s&#45;&gt;/prime/composites/compare:ne</title>
<path fill="none" stroke="black" d="M227,-554.22C227,-516 532.01,-526.82 569,-517.22 647.47,-496.87 737,-527.28 737,-446.22 737,-446.22 737,-446.22 737,-189.61 737,-145.44 691.35,-158.08 657.81,-133.44"/>
<polygon fill="black" stroke="black" points="659.87,-130.6 650,-126.74 655.31,-135.91 659.87,-130.6"/>
<text text-anchor="middle" x="431.15" y="-526.86" font-family="Times,serif" font-size="14.00">last</text>
<text text-anchor="middle" x="637.5" y="-130.54" font-family="Times,serif" font-size="14.00">left</text>
</g>
<!-- /prime/composites/generate_composites&#45;&gt;/prime/composites/composites -->
<g id="edge7" class="edge">
<title>/prime/composites/generate_composites:s&#45;&gt;/prime/composites/composites:n</title>
<path fill="none" stroke="black" d="M115,-373.22C115,-338.57 102,-331 102,-296.35 102,-296.35 102,-296.35 102,-98.87 102,-73.76 102,-65.05 102,-44.16"/>
<polygon fill="black" stroke="black" points="105.5,-44 102,-34 98.5,-44 105.5,-44"/>
<text text-anchor="middle" x="61.5" y="-275.47" font-family="Times,serif" font-size="14.00">composites</text>
</g>
<!-- /prime/composites/join -->
<g id="node7" class="node">
<title>/prime/composites/join</title>
<g id="a_node7"><a xlink:href="../../flowstdlib/control/join/join.html" xlink:title="join\n(Join)">
<ellipse fill="coral" stroke="black" cx="168" cy="-295.35" rx="38.37" ry="26.74"/>
<text text-anchor="middle" x="168" y="-299.15" font-family="Times,serif" font-size="14.00">join</text>
<text text-anchor="middle" x="168" y="-284.15" font-family="Times,serif" font-size="14.00">(Join)</text>
</a>
</g>
</g>
<!-- /prime/composites/generate_composites&#45;&gt;/prime/composites/join -->
<g id="edge8" class="edge">
<title>/prime/composites/generate_composites:s&#45;&gt;/prime/composites/join:nw</title>
<path fill="none" stroke="black" d="M115,-373.22C115,-348.93 123.42,-340.4 138.57,-325.65"/>
<polygon fill="black" stroke="black" points="141.32,-327.85 146,-318.35 136.42,-322.86 141.32,-327.85"/>
<text text-anchor="middle" x="62" y="-345.2" font-family="Times,serif" font-size="14.00">subsequence&#45;end</text>
<text text-anchor="middle" x="120.5" y="-322.15" font-family="Times,serif" font-size="14.00">control</text>
</g>
<!-- /prime/composites/subsequence&#45;count -->
<g id="node9" class="node">
<title>/prime/composites/subsequence&#45;count</title>
<g id="a_node9"><a xlink:href="../../flowstdlib/math/add/add.html" xlink:title="subsequence&#45;count\n(Add)">
<ellipse fill="coral" stroke="black" cx="441" cy="-190.61" rx="108.38" ry="26.74"/>
<text text-anchor="middle" x="441" y="-194.41" font-family="Times,serif" font-size="14.00">subsequence&#45;count</text>
<text text-anchor="middle" x="441" y="-179.41" font-family="Times,serif" font-size="14.00">(Add)</text>
</a>
</g>
</g>
<!-- /prime/composites/join&#45;&gt;/prime/composites/subsequence&#45;count -->
<g id="edge9" class="edge">
<title>/prime/composites/join:e&#45;&gt;/prime/composites/subsequence&#45;count:w</title>
<path fill="none" stroke="black" d="M208,-295.35C220.46,-295.35 208.62,-278.52 216,-268.48 250.73,-221.3 267.91,-193.84 321.87,-190.88"/>
<polygon fill="black" stroke="black" points="322.1,-194.37 332,-190.61 321.91,-187.38 322.1,-194.37"/>
<text text-anchor="middle" x="325" y="-194.41" font-family="Times,serif" font-size="14.00">i2</text>
</g>
<!-- initializer/prime/composites/join_0 -->
<!-- initializer/prime/composites/join_0&#45;&gt;/prime/composites/join -->
<g id="edge1" class="edge">
<title>initializer/prime/composites/join_0&#45;&gt;/prime/composites/join:nw</title>
<path fill="none" stroke="blue" d="M348.3,-427.7C285.88,-401.88 171.36,-352.45 148.71,-328.37"/>
<polygon fill="blue" stroke="blue" points="151.99,-327.09 146,-318.35 145.23,-328.92 151.99,-327.09"/>
<text text-anchor="middle" x="194" y="-344.02" font-family="Times,serif" font-size="14.00">1</text>
</g>
<!-- /prime/composites/subsequence&#45;count&#45;&gt;/prime/composites/subsequence&#45;count -->
<g id="edge10" class="edge">
<title>/prime/composites/subsequence&#45;count:sw&#45;&gt;/prime/composites/subsequence&#45;count:ne</title>
<path fill="none" stroke="black" d="M415,-164.61C314.82,-180.9 314.82,-239.48 441,-239.48 562.75,-239.48 567.03,-225.83 477.2,-217.5"/>
<polygon fill="black" stroke="black" points="477.27,-213.99 467,-216.61 476.66,-220.97 477.27,-213.99"/>
<text text-anchor="middle" x="399.49" y="-153.41" font-family="Times,serif" font-size="14.00">sum</text>
<text text-anchor="middle" x="460" y="-220.41" font-family="Times,serif" font-size="14.00">i1</text>
</g>
<!-- /prime/composites/subsequence&#45;count&#45;&gt;/prime/composites/compare -->
<g id="edge12" class="edge">
<title>/prime/composites/subsequence&#45;count:sw&#45;&gt;/prime/composites/compare:ne</title>
<path fill="none" stroke="black" d="M415,-163.74C343.16,-91.9 695.43,-193 656.72,-134.67"/>
<polygon fill="black" stroke="black" points="659.14,-132.11 650,-126.74 653.8,-136.63 659.14,-132.11"/>
<text text-anchor="middle" x="507.92" y="-147.93" font-family="Times,serif" font-size="14.00">sum</text>
<text text-anchor="middle" x="668" y="-130.54" font-family="Times,serif" font-size="14.00">right</text>
</g>
<!-- initializer/prime/composites/subsequence&#45;count_0 -->
<!-- initializer/prime/composites/subsequence&#45;count_0&#45;&gt;/prime/composites/subsequence&#45;count -->
<g id="edge2" class="edge">
<title>initializer/prime/composites/subsequence&#45;count_0&#45;&gt;/prime/composites/subsequence&#45;count:ne</title>
<path fill="none" stroke="blue" stroke-dasharray="1,5" d="M473.19,-277.05C477.4,-262.37 480.93,-241.29 473.05,-225.84"/>
<polygon fill="blue" stroke="blue" points="475.7,-223.53 467,-217.48 470.03,-227.63 475.7,-223.53"/>
<text text-anchor="middle" x="482" y="-239.28" font-family="Times,serif" font-size="14.00">1</text>
</g>
<!-- /prime/composites/compare&#45;&gt;/prime/composites/last -->
<g id="edge13" class="edge">
<title>/prime/composites/compare:e&#45;&gt;/prime/composites/last:n</title>
<path fill="none" stroke="black" d="M724,-99.87C749.97,-99.87 729.1,-71.1 724.04,-44.17"/>
<polygon fill="black" stroke="black" points="727.5,-43.59 723,-34 720.53,-44.3 727.5,-43.59"/>
<text text-anchor="middle" x="710.03" y="-53.64" font-family="Times,serif" font-size="14.00">equal</text>
</g>
</g>
</svg>
