<?xml version="1.0" encoding="UTF-8" standalone="no"?>
<!DOCTYPE svg PUBLIC "-//W3C//DTD SVG 1.1//EN"
 "http://www.w3.org/Graphics/SVG/1.1/DTD/svg11.dtd">
<!-- Generated by graphviz version 2.40.1 (0)
 -->
<!-- Title: composites Pages: 1 -->
<svg width="823pt" height="951pt"
 viewBox="28.80 28.80 794.46 921.76" xmlns="http://www.w3.org/2000/svg" xmlns:xlink="http://www.w3.org/1999/xlink">
<g id="graph0" class="graph" transform="scale(1 1) rotate(0) translate(32.8 917.7605)">
<title>composites</title>
<polygon fill="#ffffff" stroke="transparent" points="-4,4 -4,-888.9605 761.6565,-888.9605 761.6565,4 -4,4"/>
<text text-anchor="middle" x="378.8282" y="-869.7605" font-family="Times,serif" font-size="14.00" fill="#000000">composites</text>
<!-- /prime/composites/limit -->
<g id="node1" class="node">
<title>/prime/composites/limit</title>
<polygon fill="#ffffff" stroke="#000000" points="167.4494,-849.5228 127.1114,-861.9605 86.7734,-849.5228 86.8111,-829.3982 167.4118,-829.3982 167.4494,-849.5228"/>
<text text-anchor="middle" x="127.1114" y="-840.2605" font-family="Times,serif" font-size="14.00" fill="#000000">limit</text>
</g>
<!-- /prime/composites/sqrt -->
<g id="node4" class="node">
<title>/prime/composites/sqrt</title>
<g id="a_node4"><a xlink:href="../../flowstdlib/math/sqrt/sqrt.toml" xlink:title="sqrt\n(Sqrt)">
<ellipse fill="#ff7f50" stroke="#000000" cx="185.1114" cy="-762.0904" rx="41.9398" ry="26.7407"/>
<text text-anchor="middle" x="185.1114" y="-765.8904" font-family="Times,serif" font-size="14.00" fill="#000000">sqrt</text>
<text text-anchor="middle" x="185.1114" y="-750.8904" font-family="Times,serif" font-size="14.00" fill="#000000">(Sqrt)</text>
</a>
</g>
</g>
<!-- /prime/composites/limit&#45;&gt;/prime/composites/sqrt -->
<g id="edge3" class="edge">
<title>/prime/composites/limit:s&#45;&gt;/prime/composites/sqrt:w</title>
<path fill="none" stroke="#000000" d="M127.1114,-828.9605C127.1114,-817.0234 127.5512,-782.9237 135.0294,-768.5764"/>
<polygon fill="#000000" stroke="#000000" points="137.503,-771.0791 143.1114,-762.0904 133.1217,-765.6197 137.503,-771.0791"/>
</g>
<!-- /prime/composites/generate_composites -->
<g id="node6" class="node">
<title>/prime/composites/generate_composites</title>
<g id="a_node6"><a xlink:href="generate_composites.dot.svg" xlink:title="generate_composites">
<ellipse fill="#7fffd4" stroke="#000000" cx="115.1114" cy="-445.2203" rx="84.6719" ry="72"/>
<text text-anchor="middle" x="115.1114" y="-441.5203" font-family="Times,serif" font-size="14.00" fill="#000000">generate_composites</text>
</a>
</g>
</g>
<!-- /prime/composites/limit&#45;&gt;/prime/composites/generate_composites -->
<g id="edge6" class="edge">
<title>/prime/composites/limit:s&#45;&gt;/prime/composites/generate_composites:n</title>
<path fill="none" stroke="#000000" d="M127.1114,-828.9605C127.1114,-693.8272 115.7131,-657.6898 115.1343,-527.5837"/>
<polygon fill="#000000" stroke="#000000" points="118.6335,-527.2126 115.1114,-517.2203 111.6336,-527.2281 118.6335,-527.2126"/>
<text text-anchor="middle" x="98.1114" y="-521.0203" font-family="Times,serif" font-size="14.00" fill="#000000">limit</text>
</g>
<!-- /prime/composites/composites -->
<g id="node2" class="node">
<title>/prime/composites/composites</title>
<polygon fill="#000000" stroke="#000000" points="24.257,-12.4377 102.1114,0 179.9659,-12.4377 179.8932,-32.5623 24.3297,-32.5623 24.257,-12.4377"/>
<text text-anchor="middle" x="102.1114" y="-14.3" font-family="Times,serif" font-size="14.00" fill="#ffffff">composites</text>
</g>
<!-- /prime/composites/last -->
<g id="node3" class="node">
<title>/prime/composites/last</title>
<polygon fill="#000000" stroke="#000000" points="688.5213,-12.4377 723.1114,0 757.7016,-12.4377 757.6693,-32.5623 688.5536,-32.5623 688.5213,-12.4377"/>
<text text-anchor="middle" x="723.1114" y="-14.3" font-family="Times,serif" font-size="14.00" fill="#ffffff">last</text>
</g>
<!-- /prime/composites/divisors -->
<g id="node5" class="node">
<title>/prime/composites/divisors</title>
<g id="a_node5"><a xlink:href="../../flowstdlib/math/sequence.dot.svg" xlink:title="divisors">
<ellipse fill="#7fffd4" stroke="#000000" cx="227.1114" cy="-626.2203" rx="72" ry="72"/>
<text text-anchor="middle" x="227.1114" y="-622.5203" font-family="Times,serif" font-size="14.00" fill="#000000">divisors</text>
</a>
</g>
</g>
<!-- /prime/composites/sqrt&#45;&gt;/prime/composites/divisors -->
<g id="edge4" class="edge">
<title>/prime/composites/sqrt:e&#45;&gt;/prime/composites/divisors:n</title>
<path fill="none" stroke="#000000" d="M227.1114,-762.0904C252.1716,-762.0904 232.9849,-734.4362 228.1439,-708.4239"/>
<polygon fill="#000000" stroke="#000000" points="231.6005,-707.8172 227.1114,-698.2203 224.636,-708.5219 231.6005,-707.8172"/>
<text text-anchor="middle" x="213.6114" y="-702.0203" font-family="Times,serif" font-size="14.00" fill="#000000">end</text>
</g>
<!-- /prime/composites/divisors&#45;&gt;/prime/composites/generate_composites -->
<g id="edge5" class="edge">
<title>/prime/composites/divisors:s&#45;&gt;/prime/composites/generate_composites:n</title>
<path fill="none" stroke="#000000" d="M227.1114,-554.2203C227.1114,-531.4897 142.8859,-540.0697 120.5134,-525.656"/>
<polygon fill="#000000" stroke="#000000" points="123.4517,-523.7541 115.1114,-517.2203 117.5568,-527.5291 123.4517,-523.7541"/>
<text text-anchor="middle" x="137.9549" y="-539.5534" font-family="Times,serif" font-size="14.00" fill="#000000">sequence</text>
<text text-anchor="middle" x="132.6114" y="-521.0203" font-family="Times,serif" font-size="14.00" fill="#000000">start</text>
</g>
<!-- /prime/composites/compare -->
<g id="node11" class="node">
<title>/prime/composites/compare</title>
<g id="a_node11"><a xlink:href="../../flowstdlib/control/compare_switch/compare_switch.toml" xlink:title="compare\n(CompareSwitch)">
<ellipse fill="#ff7f50" stroke="#000000" cx="624.1114" cy="-99.8701" rx="98.9899" ry="26.7407"/>
<text text-anchor="middle" x="624.1114" y="-103.6701" font-family="Times,serif" font-size="14.00" fill="#000000">compare</text>
<text text-anchor="middle" x="624.1114" y="-88.6701" font-family="Times,serif" font-size="14.00" fill="#000000">(CompareSwitch)</text>
</a>
</g>
</g>
<!-- /prime/composites/divisors&#45;&gt;/prime/composites/compare -->
<g id="edge11" class="edge">
<title>/prime/composites/divisors:s&#45;&gt;/prime/composites/compare:ne</title>
<path fill="none" stroke="#000000" d="M227.1114,-554.2203C227.1114,-515.9986 532.1385,-526.9108 569.1114,-517.2203 647.6922,-496.6247 737.1114,-526.4553 737.1114,-445.2203 737.1114,-445.2203 737.1114,-445.2203 737.1114,-190.6102 737.1114,-145.9896 691.756,-157.7097 657.9817,-132.6533"/>
<polygon fill="#000000" stroke="#000000" points="659.9713,-129.7475 650.1114,-125.8701 655.4012,-135.0499 659.9713,-129.7475"/>
<text text-anchor="middle" x="431.2679" y="-526.9049" font-family="Times,serif" font-size="14.00" fill="#000000">last</text>
<text text-anchor="middle" x="637.6114" y="-129.6701" font-family="Times,serif" font-size="14.00" fill="#000000">left</text>
</g>
<!-- /prime/composites/generate_composites&#45;&gt;/prime/composites/composites -->
<g id="edge7" class="edge">
<title>/prime/composites/generate_composites:s&#45;&gt;/prime/composites/composites:n</title>
<path fill="none" stroke="#000000" d="M115.1114,-373.2203C115.1114,-338.1325 102.1114,-330.4382 102.1114,-295.3503 102.1114,-295.3503 102.1114,-295.3503 102.1114,-99.8701 102.1114,-73.865 102.1114,-64.9258 102.1114,-43.1872"/>
<polygon fill="#000000" stroke="#000000" points="105.6115,-43 102.1114,-33 98.6115,-43 105.6115,-43"/>
<text text-anchor="middle" x="61.6114" y="-274.7175" font-family="Times,serif" font-size="14.00" fill="#000000">composites</text>
</g>
<!-- /prime/composites/join -->
<g id="node7" class="node">
<title>/prime/composites/join</title>
<g id="a_node7"><a xlink:href="../../flowstdlib/control/join/join.toml" xlink:title="join\n(Join)">
<ellipse fill="#ff7f50" stroke="#000000" cx="168.1114" cy="-295.3503" rx="38.3684" ry="26.7407"/>
<text text-anchor="middle" x="168.1114" y="-299.1503" font-family="Times,serif" font-size="14.00" fill="#000000">join</text>
<text text-anchor="middle" x="168.1114" y="-284.1503" font-family="Times,serif" font-size="14.00" fill="#000000">(Join)</text>
</a>
</g>
</g>
<!-- /prime/composites/generate_composites&#45;&gt;/prime/composites/join -->
<g id="edge8" class="edge">
<title>/prime/composites/generate_composites:s&#45;&gt;/prime/composites/join:nw</title>
<path fill="none" stroke="#000000" d="M115.1114,-373.2203C115.1114,-348.5945 123.3234,-339.7645 138.5997,-324.7585"/>
<polygon fill="#000000" stroke="#000000" points="141.4491,-326.8641 146.1114,-317.3503 136.5338,-321.8801 141.4491,-326.8641"/>
<text text-anchor="middle" x="62" y="-344.6261" font-family="Times,serif" font-size="14.00" fill="#000000">subsequence&#45;end</text>
<text text-anchor="middle" x="120.6114" y="-321.1503" font-family="Times,serif" font-size="14.00" fill="#000000">control</text>
</g>
<!-- /prime/composites/subsequence&#45;count -->
<g id="node9" class="node">
<title>/prime/composites/subsequence&#45;count</title>
<g id="a_node9"><a xlink:href="../../flowstdlib/math/add/add.toml" xlink:title="subsequence&#45;count\n(Add)">
<ellipse fill="#ff7f50" stroke="#000000" cx="441.1114" cy="-190.6102" rx="108.375" ry="26.7407"/>
<text text-anchor="middle" x="441.1114" y="-194.4102" font-family="Times,serif" font-size="14.00" fill="#000000">subsequence&#45;count</text>
<text text-anchor="middle" x="441.1114" y="-179.4102" font-family="Times,serif" font-size="14.00" fill="#000000">(Add)</text>
</a>
</g>
</g>
<!-- /prime/composites/join&#45;&gt;/prime/composites/subsequence&#45;count -->
<g id="edge9" class="edge">
<title>/prime/composites/join:e&#45;&gt;/prime/composites/subsequence&#45;count:w</title>
<path fill="none" stroke="#000000" d="M207.1114,-295.3503C219.7058,-295.3503 208.4557,-278.4805 216.1114,-268.4802 251.9312,-221.6909 268.702,-193.8812 322.9269,-190.881"/>
<polygon fill="#000000" stroke="#000000" points="323.2081,-194.3749 333.1114,-190.6102 323.0219,-187.3773 323.2081,-194.3749"/>
<text text-anchor="middle" x="326.1114" y="-194.4102" font-family="Times,serif" font-size="14.00" fill="#000000">i2</text>
</g>
<!-- initializer/prime/composites/join_0 -->
<!-- initializer/prime/composites/join_0&#45;&gt;/prime/composites/join -->
<g id="edge1" class="edge">
<title>initializer/prime/composites/join_0&#45;&gt;/prime/composites/join:nw</title>
<path fill="none" stroke="#0000ff" d="M346.6663,-427.6667C283.7905,-401.1588 170.909,-351.4572 148.7093,-327.3595"/>
<polygon fill="#0000ff" stroke="#0000ff" points="152.0115,-326.1503 146.1114,-317.3503 145.236,-327.9089 152.0115,-326.1503"/>
<text text-anchor="middle" x="193.1114" y="-344.0203" font-family="Times,serif" font-size="14.00" fill="#000000">1</text>
</g>
<!-- /prime/composites/subsequence&#45;count&#45;&gt;/prime/composites/subsequence&#45;count -->
<g id="edge10" class="edge">
<title>/prime/composites/subsequence&#45;count:sw&#45;&gt;/prime/composites/subsequence&#45;count:ne</title>
<path fill="none" stroke="#000000" d="M415.1114,-164.6102C314.9241,-180.9002 314.9241,-239.4802 441.1114,-239.4802 562.8625,-239.4802 567.1428,-225.8267 477.3055,-217.4984"/>
<polygon fill="#000000" stroke="#000000" points="477.3775,-213.9915 467.1114,-216.6102 476.7698,-220.9651 477.3775,-213.9915"/>
<text text-anchor="middle" x="399.6023" y="-153.4117" font-family="Times,serif" font-size="14.00" fill="#000000">sum</text>
<text text-anchor="middle" x="460.1114" y="-220.4102" font-family="Times,serif" font-size="14.00" fill="#000000">i1</text>
</g>
<!-- /prime/composites/subsequence&#45;count&#45;&gt;/prime/composites/compare -->
<g id="edge12" class="edge">
<title>/prime/composites/subsequence&#45;count:sw&#45;&gt;/prime/composites/compare:ne</title>
<path fill="none" stroke="#000000" d="M415.1114,-164.6102C343.1851,-92.6838 695.6081,-192.335 656.8341,-133.8131"/>
<polygon fill="#000000" stroke="#000000" points="659.2434,-131.2421 650.1114,-125.8701 653.9002,-135.7643 659.2434,-131.2421"/>
<text text-anchor="middle" x="508.0271" y="-147.9834" font-family="Times,serif" font-size="14.00" fill="#000000">sum</text>
<text text-anchor="middle" x="668.1114" y="-129.6701" font-family="Times,serif" font-size="14.00" fill="#000000">right</text>
</g>
<!-- initializer/prime/composites/subsequence&#45;count_0 -->
<!-- initializer/prime/composites/subsequence&#45;count_0&#45;&gt;/prime/composites/subsequence&#45;count -->
<g id="edge2" class="edge">
<title>initializer/prime/composites/subsequence&#45;count_0&#45;&gt;/prime/composites/subsequence&#45;count:ne</title>
<path fill="none" stroke="#0000ff" stroke-dasharray="1,5" d="M473.5409,-277.2975C477.8617,-262.1156 481.3932,-240.4283 473.0432,-224.6735"/>
<polygon fill="#0000ff" stroke="#0000ff" points="475.8565,-222.5913 467.1114,-216.6102 470.2179,-226.7394 475.8565,-222.5913"/>
<text text-anchor="middle" x="482.1114" y="-239.2802" font-family="Times,serif" font-size="14.00" fill="#000000">1</text>
</g>
<!-- /prime/composites/compare&#45;&gt;/prime/composites/last -->
<g id="edge13" class="edge">
<title>/prime/composites/compare:e&#45;&gt;/prime/composites/last:n</title>
<path fill="none" stroke="#000000" d="M723.1114,-99.8701C749.5808,-99.8701 728.9016,-70.4022 724.0614,-42.9602"/>
<polygon fill="#000000" stroke="#000000" points="727.5452,-42.6225 723.1114,-33 720.5768,-43.2872 727.5452,-42.6225"/>
<text text-anchor="middle" x="709.884" y="-52.8491" font-family="Times,serif" font-size="14.00" fill="#000000">equal</text>
</g>
</g>
</svg>
