<?xml version="1.0" encoding="UTF-8" standalone="no"?>
<!DOCTYPE svg PUBLIC "-//W3C//DTD SVG 1.1//EN"
 "http://www.w3.org/Graphics/SVG/1.1/DTD/svg11.dtd">
<!-- Generated by graphviz version 2.42.3 (20191010.1750)
 -->
<!-- Title: composites Pages: 1 -->
<svg width="676pt" height="936pt"
 viewBox="28.80 28.80 647.54 907.45" xmlns="http://www.w3.org/2000/svg" xmlns:xlink="http://www.w3.org/1999/xlink">
<g id="graph0" class="graph" transform="scale(1 1) rotate(0) translate(32.8 903.45)">
<title>composites</title>
<polygon fill="white" stroke="transparent" points="-4,4 -4,-874.65 614.74,-874.65 614.74,4 -4,4"/>
<text text-anchor="middle" x="305.37" y="-855.45" font-family="Times,serif" font-size="14.00">composites</text>
<!-- /prime/composites/limit -->
<g id="node1" class="node">
<title>/prime/composites/limit</title>
<polygon fill="white" stroke="black" points="133.35,-836.21 100.07,-848.65 66.78,-836.21 66.81,-816.08 133.32,-816.08 133.35,-836.21"/>
<text text-anchor="middle" x="100.07" y="-826.45" font-family="Times,serif" font-size="14.00">limit</text>
</g>
<!-- /prime/composites/sqrt -->
<g id="node4" class="node">
<title>/prime/composites/sqrt</title>
<ellipse fill="coral" stroke="black" cx="151.07" cy="-750.19" rx="34.32" ry="25.41"/>
<text text-anchor="middle" x="151.07" y="-752.99" font-family="Times,serif" font-size="14.00">sqrt</text>
<text text-anchor="middle" x="151.07" y="-738.99" font-family="Times,serif" font-size="14.00">(Sqrt)</text>
</g>
<!-- /prime/composites/limit&#45;&gt;/prime/composites/sqrt -->
<g id="edge3" class="edge">
<title>/prime/composites/limit:s&#45;&gt;/prime/composites/sqrt:w</title>
<path fill="none" stroke="black" d="M100.07,-814.65C100.07,-803.27 100.24,-770.93 107.13,-756.87"/>
<polygon fill="black" stroke="black" points="109.66,-759.3 115.07,-750.19 105.16,-753.95 109.66,-759.3"/>
</g>
<!-- /prime/composites/generate_composites -->
<g id="node6" class="node">
<title>/prime/composites/generate_composites</title>
<g id="a_node6"><a xlink:href="generate_composites.toml.dot" xlink:title="generate_composites">
<ellipse fill="aquamarine" stroke="black" cx="88.07" cy="-434.74" rx="72" ry="72"/>
<text text-anchor="middle" x="88.07" y="-430.54" font-family="Times,serif" font-size="14.00">generate_composites</text>
</a>
</g>
</g>
<!-- /prime/composites/limit&#45;&gt;/prime/composites/generate_composites -->
<g id="edge6" class="edge">
<title>/prime/composites/limit:s&#45;&gt;/prime/composites/generate_composites:n</title>
<path fill="none" stroke="black" d="M100.07,-814.65C100.07,-681.17 88.67,-645.48 88.09,-516.97"/>
<polygon fill="black" stroke="black" points="91.59,-516.73 88.07,-506.74 84.59,-516.74 91.59,-516.73"/>
<text text-anchor="middle" x="74.84" y="-509.54" font-family="Times,serif" font-size="14.00">limit</text>
</g>
<!-- /prime/composites/composites -->
<g id="node2" class="node">
<title>/prime/composites/composites</title>
<polygon fill="black" stroke="black" points="13.21,-12.44 75.07,0 136.92,-12.44 136.86,-32.56 13.27,-32.56 13.21,-12.44"/>
<text text-anchor="middle" x="75.07" y="-13.8" font-family="Times,serif" font-size="14.00" fill="white">composites</text>
</g>
<!-- /prime/composites/last -->
<g id="node3" class="node">
<title>/prime/composites/last</title>
<polygon fill="black" stroke="black" points="555.22,-12.44 583.07,0 610.91,-12.44 610.89,-32.56 555.25,-32.56 555.22,-12.44"/>
<text text-anchor="middle" x="583.07" y="-13.8" font-family="Times,serif" font-size="14.00" fill="white">last</text>
</g>
<!-- /prime/composites/divisors -->
<g id="node5" class="node">
<title>/prime/composites/divisors</title>
<g id="a_node5"><a xlink:href="lib://flowstdlib/math/sequence.dot" xlink:title="divisors">
<ellipse fill="aquamarine" stroke="black" cx="188.07" cy="-615.74" rx="72" ry="72"/>
<text text-anchor="middle" x="188.07" y="-611.54" font-family="Times,serif" font-size="14.00">divisors</text>
</a>
</g>
</g>
<!-- /prime/composites/sqrt&#45;&gt;/prime/composites/divisors -->
<g id="edge4" class="edge">
<title>/prime/composites/sqrt:e&#45;&gt;/prime/composites/divisors:n</title>
<path fill="none" stroke="black" d="M187.07,-750.19C211.57,-750.19 193.59,-723.15 189.04,-697.71"/>
<polygon fill="black" stroke="black" points="192.52,-697.35 188.07,-687.74 185.55,-698.03 192.52,-697.35"/>
<text text-anchor="middle" x="177.96" y="-690.54" font-family="Times,serif" font-size="14.00">end</text>
</g>
<!-- /prime/composites/divisors&#45;&gt;/prime/composites/generate_composites -->
<g id="edge5" class="edge">
<title>/prime/composites/divisors:s&#45;&gt;/prime/composites/generate_composites:n</title>
<path fill="none" stroke="black" d="M188.07,-543.74C188.07,-523.47 114.88,-528.14 93.73,-515.08"/>
<polygon fill="black" stroke="black" points="96.58,-513.04 88.07,-506.74 90.79,-516.97 96.58,-513.04"/>
<text text-anchor="middle" x="112.23" y="-528.01" font-family="Times,serif" font-size="14.00">sequence</text>
<text text-anchor="middle" x="100.12" y="-509.54" font-family="Times,serif" font-size="14.00">start</text>
</g>
<!-- /prime/composites/compare -->
<g id="node11" class="node">
<title>/prime/composites/compare</title>
<ellipse fill="coral" stroke="black" cx="501.07" cy="-98.46" rx="81.89" ry="25.41"/>
<text text-anchor="middle" x="501.07" y="-101.26" font-family="Times,serif" font-size="14.00">compare</text>
<text text-anchor="middle" x="501.07" y="-87.26" font-family="Times,serif" font-size="14.00">(CompareSwitch)</text>
</g>
<!-- /prime/composites/divisors&#45;&gt;/prime/composites/compare -->
<g id="edge11" class="edge">
<title>/prime/composites/divisors:s&#45;&gt;/prime/composites/compare:ne</title>
<path fill="none" stroke="black" d="M188.07,-543.74C188.07,-483.83 397.96,-524.8 455.07,-506.74 520.83,-485.93 593.07,-504.71 593.07,-435.74 593.07,-435.74 593.07,-435.74 593.07,-185.37 593.07,-148.43 560.96,-151.54 533.62,-130.53"/>
<polygon fill="black" stroke="black" points="535.89,-127.87 526.07,-123.91 531.28,-133.13 535.89,-127.87"/>
<text text-anchor="middle" x="342.11" y="-513.59" font-family="Times,serif" font-size="14.00">last</text>
<text text-anchor="middle" x="516.74" y="-126.71" font-family="Times,serif" font-size="14.00">left</text>
</g>
<!-- /prime/composites/generate_composites&#45;&gt;/prime/composites/composites -->
<g id="edge7" class="edge">
<title>/prime/composites/generate_composites:s&#45;&gt;/prime/composites/composites:n</title>
<path fill="none" stroke="black" d="M88.07,-362.74C88.07,-329.14 75.07,-321.87 75.07,-288.28 75.07,-288.28 75.07,-288.28 75.07,-97.46 75.07,-73 75.07,-64.45 75.07,-44.22"/>
<polygon fill="black" stroke="black" points="78.57,-44 75.07,-34 71.57,-44 78.57,-44"/>
<text text-anchor="middle" x="43.57" y="-267.23" font-family="Times,serif" font-size="14.00">composites</text>
</g>
<!-- /prime/composites/join -->
<g id="node7" class="node">
<title>/prime/composites/join</title>
<ellipse fill="coral" stroke="black" cx="137.07" cy="-287.28" rx="34.32" ry="25.41"/>
<text text-anchor="middle" x="137.07" y="-290.08" font-family="Times,serif" font-size="14.00">join</text>
<text text-anchor="middle" x="137.07" y="-276.08" font-family="Times,serif" font-size="14.00">(Join)</text>
</g>
<!-- /prime/composites/generate_composites&#45;&gt;/prime/composites/join -->
<g id="edge8" class="edge">
<title>/prime/composites/generate_composites:s&#45;&gt;/prime/composites/join:nw</title>
<path fill="none" stroke="black" d="M88.07,-362.74C88.07,-339.69 94.74,-330.78 108.65,-316.69"/>
<polygon fill="black" stroke="black" points="111.47,-318.83 116.07,-309.28 106.52,-313.88 111.47,-318.83"/>
<text text-anchor="middle" x="47.81" y="-334.78" font-family="Times,serif" font-size="14.00">subsequence&#45;end</text>
<text text-anchor="middle" x="96.24" y="-312.08" font-family="Times,serif" font-size="14.00">control</text>
</g>
<!-- /prime/composites/subsequence&#45;count -->
<g id="node9" class="node">
<title>/prime/composites/subsequence&#45;count</title>
<ellipse fill="coral" stroke="black" cx="352.07" cy="-186.37" rx="86.77" ry="25.41"/>
<text text-anchor="middle" x="352.07" y="-189.17" font-family="Times,serif" font-size="14.00">subsequence&#45;count</text>
<text text-anchor="middle" x="352.07" y="-175.17" font-family="Times,serif" font-size="14.00">(Add)</text>
</g>
<!-- /prime/composites/join&#45;&gt;/prime/composites/subsequence&#45;count -->
<g id="edge9" class="edge">
<title>/prime/composites/join:e&#45;&gt;/prime/composites/subsequence&#45;count:w</title>
<path fill="none" stroke="black" d="M173.07,-287.28C184.8,-287.28 173.9,-271.8 180.07,-261.82 204.55,-222.22 212.71,-191.16 253.83,-186.87"/>
<polygon fill="black" stroke="black" points="254.25,-190.36 264.07,-186.37 253.91,-183.36 254.25,-190.36"/>
<text text-anchor="middle" x="258.62" y="-189.17" font-family="Times,serif" font-size="14.00">i2</text>
</g>
<!-- initializer/prime/composites/join_0 -->
<!-- initializer/prime/composites/join_0&#45;&gt;/prime/composites/join -->
<g id="edge1" class="edge">
<title>initializer/prime/composites/join_0&#45;&gt;/prime/composites/join:nw</title>
<path fill="none" stroke="blue" d="M279.34,-417.09C229.34,-391.24 137.71,-342.03 118.54,-319.04"/>
<polygon fill="blue" stroke="blue" points="121.92,-318.11 116.07,-309.28 115.13,-319.83 121.92,-318.11"/>
<text text-anchor="middle" x="153.57" y="-333.54" font-family="Times,serif" font-size="14.00">1</text>
</g>
<!-- /prime/composites/subsequence&#45;count&#45;&gt;/prime/composites/subsequence&#45;count -->
<g id="edge10" class="edge">
<title>/prime/composites/subsequence&#45;count:sw&#45;&gt;/prime/composites/subsequence&#45;count:ne</title>
<path fill="none" stroke="black" d="M327.07,-161.37C247.43,-176.85 247.43,-232.82 352.07,-232.82 452,-232.82 456.49,-220.05 387.31,-212.41"/>
<polygon fill="black" stroke="black" points="387.37,-208.9 377.07,-211.37 386.66,-215.86 387.37,-208.9"/>
<text text-anchor="middle" x="315.39" y="-150.17" font-family="Times,serif" font-size="14.00">sum</text>
<text text-anchor="middle" x="371.62" y="-214.17" font-family="Times,serif" font-size="14.00">i1</text>
</g>
<!-- /prime/composites/subsequence&#45;count&#45;&gt;/prime/composites/compare -->
<g id="edge12" class="edge">
<title>/prime/composites/subsequence&#45;count:sw&#45;&gt;/prime/composites/compare:ne</title>
<path fill="none" stroke="black" d="M327.07,-160.91C266.44,-100.28 559.95,-179.4 532.52,-131.87"/>
<polygon fill="black" stroke="black" points="535.08,-129.48 526.07,-123.91 529.64,-133.88 535.08,-129.48"/>
<text text-anchor="middle" x="405.65" y="-144.28" font-family="Times,serif" font-size="14.00">sum</text>
<text text-anchor="middle" x="539.29" y="-126.71" font-family="Times,serif" font-size="14.00">right</text>
</g>
<!-- initializer/prime/composites/subsequence&#45;count_0 -->
<!-- initializer/prime/composites/subsequence&#45;count_0&#45;&gt;/prime/composites/subsequence&#45;count -->
<g id="edge2" class="edge">
<title>initializer/prime/composites/subsequence&#45;count_0&#45;&gt;/prime/composites/subsequence&#45;count:ne</title>
<path fill="none" stroke="blue" stroke-dasharray="1,5" d="M383.15,-269.21C387.16,-255.12 390.45,-235.1 383.1,-220.28"/>
<polygon fill="blue" stroke="blue" points="385.72,-217.93 377.07,-211.82 380.03,-222 385.72,-217.93"/>
<text text-anchor="middle" x="390.57" y="-232.62" font-family="Times,serif" font-size="14.00">1</text>
</g>
<!-- /prime/composites/compare&#45;&gt;/prime/composites/last -->
<g id="edge13" class="edge">
<title>/prime/composites/compare:e&#45;&gt;/prime/composites/last:n</title>
<path fill="none" stroke="black" d="M584.07,-98.46C609.47,-98.46 589.04,-70.3 584.08,-43.95"/>
<polygon fill="black" stroke="black" points="587.56,-43.59 583.07,-34 580.6,-44.3 587.56,-43.59"/>
<text text-anchor="middle" x="574.79" y="-52.98" font-family="Times,serif" font-size="14.00">equal</text>
</g>
</g>
</svg>
