<?xml version="1.0" encoding="UTF-8" standalone="no"?>
<!DOCTYPE svg PUBLIC "-//W3C//DTD SVG 1.1//EN"
 "http://www.w3.org/Graphics/SVG/1.1/DTD/svg11.dtd">
<!-- Generated by graphviz version 2.40.1 (20161225.0304)
 -->
<!-- Title: composites Pages: 1 -->
<svg width="810pt" height="915pt"
 viewBox="28.80 28.80 781.21 886.28" xmlns="http://www.w3.org/2000/svg" xmlns:xlink="http://www.w3.org/1999/xlink">
<g id="graph0" class="graph" transform="scale(1 1) rotate(0) translate(32.8 882.2802)">
<title>composites</title>
<polygon fill="#ffffff" stroke="transparent" points="-4,4 -4,-853.4802 748.4121,-853.4802 748.4121,4 -4,4"/>
<text text-anchor="middle" x="372.2061" y="-834.2802" font-family="Times,serif" font-size="14.00" fill="#000000">composites</text>
<!-- /prime/composites/limit -->
<g id="node1" class="node">
<title>/prime/composites/limit</title>
<polygon fill="#ffffff" stroke="#000000" points="169.2051,-814.0425 128.8671,-826.4802 88.5291,-814.0425 88.5667,-793.9179 169.1674,-793.9179 169.2051,-814.0425"/>
<text text-anchor="middle" x="128.8671" y="-804.7802" font-family="Times,serif" font-size="14.00" fill="#000000">limit</text>
</g>
<!-- /prime/composites/sqrt -->
<g id="node4" class="node">
<title>/prime/composites/sqrt</title>
<g id="a_node4"><a xlink:href="../../flowstdlib/math/sqrt/sqrt.html" xlink:title="sqrt">
<ellipse fill="#ff7f50" stroke="#000000" cx="180.8671" cy="-735.4802" rx="29.795" ry="18"/>
<text text-anchor="middle" x="180.8671" y="-731.7802" font-family="Times,serif" font-size="14.00" fill="#000000">sqrt</text>
</a>
</g>
</g>
<!-- /prime/composites/limit&#45;&gt;/prime/composites/sqrt -->
<g id="edge3" class="edge">
<title>/prime/composites/limit:s&#45;&gt;/prime/composites/sqrt:w</title>
<path fill="none" stroke="#000000" d="M128.8671,-793.4802C128.8671,-782.8184 133.7814,-753.9532 142.3861,-741.4209"/>
<polygon fill="#000000" stroke="#000000" points="144.6846,-744.0842 150.8671,-735.4802 140.6685,-738.3508 144.6846,-744.0842"/>
</g>
<!-- /prime/composites/generate_composites -->
<g id="node6" class="node">
<title>/prime/composites/generate_composites</title>
<g id="a_node6"><a xlink:href="generate_composites.dot.svg" xlink:title="generate_composites">
<ellipse fill="#7fffd4" stroke="#000000" cx="116.8671" cy="-427.4802" rx="85.698" ry="72"/>
<text text-anchor="middle" x="116.8671" y="-423.7802" font-family="Times,serif" font-size="14.00" fill="#000000">generate_composites</text>
</a>
</g>
</g>
<!-- /prime/composites/limit&#45;&gt;/prime/composites/generate_composites -->
<g id="edge6" class="edge">
<title>/prime/composites/limit:s&#45;&gt;/prime/composites/generate_composites:n</title>
<path fill="none" stroke="#000000" d="M128.8671,-793.4802C128.8671,-666.1529 117.4915,-632.0352 116.8917,-509.6233"/>
<polygon fill="#000000" stroke="#000000" points="120.3914,-509.4717 116.8671,-499.4802 113.3914,-509.4887 120.3914,-509.4717"/>
<text text-anchor="middle" x="99.8671" y="-503.2802" font-family="Times,serif" font-size="14.00" fill="#000000">limit</text>
</g>
<!-- /prime/composites/composites -->
<g id="node2" class="node">
<title>/prime/composites/composites</title>
<polygon fill="#000000" stroke="#000000" points="24.9053,-12.4377 103.8671,0 182.8288,-12.4377 182.7551,-32.5623 24.979,-32.5623 24.9053,-12.4377"/>
<text text-anchor="middle" x="103.8671" y="-14.3" font-family="Times,serif" font-size="14.00" fill="#ffffff">composites</text>
</g>
<!-- /prime/composites/last -->
<g id="node3" class="node">
<title>/prime/composites/last</title>
<polygon fill="#000000" stroke="#000000" points="675.2769,-12.4377 709.8671,0 744.4572,-12.4377 744.4249,-32.5623 675.3092,-32.5623 675.2769,-12.4377"/>
<text text-anchor="middle" x="709.8671" y="-14.3" font-family="Times,serif" font-size="14.00" fill="#ffffff">last</text>
</g>
<!-- /prime/composites/divisors -->
<g id="node5" class="node">
<title>/prime/composites/divisors</title>
<g id="a_node5"><a xlink:href="lib://flowstdlib/math/sequence.dot.svg" xlink:title="divisors">
<ellipse fill="#7fffd4" stroke="#000000" cx="216.8671" cy="-608.4802" rx="72" ry="72"/>
<text text-anchor="middle" x="216.8671" y="-604.7802" font-family="Times,serif" font-size="14.00" fill="#000000">divisors</text>
</a>
</g>
</g>
<!-- /prime/composites/sqrt&#45;&gt;/prime/composites/divisors -->
<g id="edge4" class="edge">
<title>/prime/composites/sqrt:e&#45;&gt;/prime/composites/divisors:n</title>
<path fill="none" stroke="#000000" d="M210.8671,-735.4802C232.1907,-735.4802 221.0433,-712.6111 217.7061,-690.5008"/>
<polygon fill="#000000" stroke="#000000" points="221.1893,-690.1533 216.8671,-680.4802 214.2137,-690.7374 221.1893,-690.1533"/>
<text text-anchor="middle" x="203.3671" y="-684.2802" font-family="Times,serif" font-size="14.00" fill="#000000">end</text>
</g>
<!-- /prime/composites/divisors&#45;&gt;/prime/composites/generate_composites -->
<g id="edge5" class="edge">
<title>/prime/composites/divisors:s&#45;&gt;/prime/composites/generate_composites:n</title>
<path fill="none" stroke="#000000" d="M216.8671,-536.4802C216.8671,-516.2103 143.6844,-520.8837 122.53,-507.8239"/>
<polygon fill="#000000" stroke="#000000" points="125.3789,-505.7889 116.8671,-499.4802 119.5869,-509.72 125.3789,-505.7889"/>
<text text-anchor="middle" x="132.6794" y="-521.7553" font-family="Times,serif" font-size="14.00" fill="#000000">sequence</text>
<text text-anchor="middle" x="134.3671" y="-503.2802" font-family="Times,serif" font-size="14.00" fill="#000000">start</text>
</g>
<!-- /prime/composites/compare -->
<g id="node11" class="node">
<title>/prime/composites/compare</title>
<g id="a_node11"><a xlink:href="../../flowstdlib/control/compare_switch/compare_switch.html" xlink:title="compare\n(compare_switch)">
<ellipse fill="#ff7f50" stroke="#000000" cx="607.8671" cy="-99.8701" rx="101.6471" ry="26.7407"/>
<text text-anchor="middle" x="607.8671" y="-103.6701" font-family="Times,serif" font-size="14.00" fill="#000000">compare</text>
<text text-anchor="middle" x="607.8671" y="-88.6701" font-family="Times,serif" font-size="14.00" fill="#000000">(compare_switch)</text>
</a>
</g>
</g>
<!-- /prime/composites/divisors&#45;&gt;/prime/composites/compare -->
<g id="edge11" class="edge">
<title>/prime/composites/divisors:s&#45;&gt;/prime/composites/compare:ne</title>
<path fill="none" stroke="#000000" d="M216.8671,-536.4802C216.8671,-496.7116 534.6128,-510.35 572.8671,-499.4802 643.615,-479.3776 721.8671,-501.0287 721.8671,-427.4802 721.8671,-427.4802 721.8671,-427.4802 721.8671,-190.6102 721.8671,-145.6589 675.8711,-157.8771 641.8013,-132.6961"/>
<polygon fill="#000000" stroke="#000000" points="643.7304,-129.7387 633.8671,-125.8701 639.1651,-135.0451 643.7304,-129.7387"/>
<text text-anchor="middle" x="415.8715" y="-509.584" font-family="Times,serif" font-size="14.00" fill="#000000">last</text>
<text text-anchor="middle" x="621.3671" y="-129.6701" font-family="Times,serif" font-size="14.00" fill="#000000">left</text>
</g>
<!-- /prime/composites/generate_composites&#45;&gt;/prime/composites/composites -->
<g id="edge7" class="edge">
<title>/prime/composites/generate_composites:s&#45;&gt;/prime/composites/composites:n</title>
<path fill="none" stroke="#000000" d="M116.8671,-355.4802C116.8671,-324.274 103.8671,-317.6864 103.8671,-286.4802 103.8671,-286.4802 103.8671,-286.4802 103.8671,-99.8701 103.8671,-73.865 103.8671,-64.9258 103.8671,-43.1872"/>
<polygon fill="#000000" stroke="#000000" points="107.3672,-43 103.8671,-33 100.3672,-43 107.3672,-43"/>
<text text-anchor="middle" x="62.8671" y="-266.9561" font-family="Times,serif" font-size="14.00" fill="#000000">composites</text>
</g>
<!-- /prime/composites/join -->
<g id="node7" class="node">
<title>/prime/composites/join</title>
<g id="a_node7"><a xlink:href="../../flowstdlib/control/join/join.html" xlink:title="join">
<ellipse fill="#ff7f50" stroke="#000000" cx="159.8671" cy="-286.4802" rx="27.8951" ry="18"/>
<text text-anchor="middle" x="159.8671" y="-282.7802" font-family="Times,serif" font-size="14.00" fill="#000000">join</text>
</a>
</g>
</g>
<!-- /prime/composites/generate_composites&#45;&gt;/prime/composites/join -->
<g id="edge8" class="edge">
<title>/prime/composites/generate_composites:s&#45;&gt;/prime/composites/join:nw</title>
<path fill="none" stroke="#000000" d="M116.8671,-355.4802C116.8671,-332.7618 123.0019,-323.7541 136.5913,-309.8061"/>
<polygon fill="#000000" stroke="#000000" points="139.3036,-312.0419 143.8671,-302.4802 134.3369,-307.1092 139.3036,-312.0419"/>
<text text-anchor="middle" x="62" y="-328.8016" font-family="Times,serif" font-size="14.00" fill="#000000">subsequence&#45;end</text>
<text text-anchor="middle" x="117.8671" y="-306.2802" font-family="Times,serif" font-size="14.00" fill="#000000">control</text>
</g>
<!-- /prime/composites/subsequence&#45;count -->
<g id="node9" class="node">
<title>/prime/composites/subsequence&#45;count</title>
<g id="a_node9"><a xlink:href="../../flowstdlib/math/add/add.html" xlink:title="subsequence&#45;count\n(add)">
<ellipse fill="#ff7f50" stroke="#000000" cx="423.8671" cy="-190.6102" rx="109.7032" ry="26.7407"/>
<text text-anchor="middle" x="423.8671" y="-194.4102" font-family="Times,serif" font-size="14.00" fill="#000000">subsequence&#45;count</text>
<text text-anchor="middle" x="423.8671" y="-179.4102" font-family="Times,serif" font-size="14.00" fill="#000000">(add)</text>
</a>
</g>
</g>
<!-- /prime/composites/join&#45;&gt;/prime/composites/subsequence&#45;count -->
<g id="edge9" class="edge">
<title>/prime/composites/join:e&#45;&gt;/prime/composites/subsequence&#45;count:w</title>
<path fill="none" stroke="#000000" d="M187.8671,-286.4802C196.8113,-286.4802 190.9451,-275.1833 196.8671,-268.4802 235.8816,-224.3196 249.8195,-194.179 303.7133,-190.9063"/>
<polygon fill="#000000" stroke="#000000" points="303.9734,-194.4003 313.8671,-190.6102 303.7692,-187.4033 303.9734,-194.4003"/>
<text text-anchor="middle" x="306.8671" y="-194.4102" font-family="Times,serif" font-size="14.00" fill="#000000">i2</text>
</g>
<!-- initializer/prime/composites/join_0 -->
<!-- initializer/prime/composites/join_0&#45;&gt;/prime/composites/join -->
<g id="edge1" class="edge">
<title>initializer/prime/composites/join_0&#45;&gt;/prime/composites/join:nw</title>
<path fill="none" stroke="#0000ff" d="M347.6857,-410.0682C283.3417,-384.1957 169.0392,-336.1124 146.5237,-312.4075"/>
<polygon fill="#0000ff" stroke="#0000ff" points="149.8333,-311.2355 143.8671,-302.4802 143.0713,-313.0451 149.8333,-311.2355"/>
<text text-anchor="middle" x="185.8671" y="-326.2802" font-family="Times,serif" font-size="14.00" fill="#000000">1</text>
</g>
<!-- /prime/composites/subsequence&#45;count&#45;&gt;/prime/composites/subsequence&#45;count -->
<g id="edge10" class="edge">
<title>/prime/composites/subsequence&#45;count:sw&#45;&gt;/prime/composites/subsequence&#45;count:ne</title>
<path fill="none" stroke="#000000" d="M397.8671,-164.6102C296.2655,-180.9002 296.2655,-239.4802 423.8671,-239.4802 547.1072,-239.4802 551.3195,-225.799 459.9281,-217.4731"/>
<polygon fill="#000000" stroke="#000000" points="460.1296,-213.9777 449.8671,-216.6102 459.5313,-220.9521 460.1296,-213.9777"/>
<text text-anchor="middle" x="382.3578" y="-153.4117" font-family="Times,serif" font-size="14.00" fill="#000000">sum</text>
<text text-anchor="middle" x="442.8671" y="-220.4102" font-family="Times,serif" font-size="14.00" fill="#000000">i1</text>
</g>
<!-- /prime/composites/subsequence&#45;count&#45;&gt;/prime/composites/compare -->
<g id="edge12" class="edge">
<title>/prime/composites/subsequence&#45;count:sw&#45;&gt;/prime/composites/compare:ne</title>
<path fill="none" stroke="#000000" d="M397.8671,-164.6102C325.4959,-92.2391 680.9906,-193.0061 640.3752,-133.4851"/>
<polygon fill="#000000" stroke="#000000" points="643.0247,-131.1981 633.8671,-125.8701 637.7033,-135.746 643.0247,-131.1981"/>
<text text-anchor="middle" x="491.6854" y="-148.0257" font-family="Times,serif" font-size="14.00" fill="#000000">sum</text>
<text text-anchor="middle" x="651.8671" y="-129.6701" font-family="Times,serif" font-size="14.00" fill="#000000">right</text>
</g>
<!-- initializer/prime/composites/subsequence&#45;count_0 -->
<!-- initializer/prime/composites/subsequence&#45;count_0&#45;&gt;/prime/composites/subsequence&#45;count -->
<g id="edge2" class="edge">
<title>initializer/prime/composites/subsequence&#45;count_0&#45;&gt;/prime/composites/subsequence&#45;count:ne</title>
<path fill="none" stroke="#0000ff" stroke-dasharray="1,5" d="M456.158,-268.334C459.599,-255.4044 462.0155,-238.0597 455.7156,-224.9249"/>
<polygon fill="#0000ff" stroke="#0000ff" points="458.4831,-222.7758 449.8671,-216.6102 452.7576,-226.8031 458.4831,-222.7758"/>
<text text-anchor="middle" x="463.8671" y="-239.2802" font-family="Times,serif" font-size="14.00" fill="#000000">1</text>
</g>
<!-- /prime/composites/compare&#45;&gt;/prime/composites/last -->
<g id="edge13" class="edge">
<title>/prime/composites/compare:e&#45;&gt;/prime/composites/last:n</title>
<path fill="none" stroke="#000000" d="M709.8671,-99.8701C736.3365,-99.8701 715.6572,-70.4022 710.817,-42.9602"/>
<polygon fill="#000000" stroke="#000000" points="714.3008,-42.6225 709.8671,-33 707.3324,-43.2872 714.3008,-42.6225"/>
<text text-anchor="middle" x="696.6396" y="-52.8491" font-family="Times,serif" font-size="14.00" fill="#000000">equal</text>
</g>
</g>
</svg>
