<?xml version="1.0" encoding="UTF-8" standalone="no"?>
<!DOCTYPE svg PUBLIC "-//W3C//DTD SVG 1.1//EN"
 "http://www.w3.org/Graphics/SVG/1.1/DTD/svg11.dtd">
<!-- Generated by graphviz version 2.44.1 (20200629.0846)
 -->
<!-- Title: composites Pages: 1 -->
<svg width="653pt" height="915pt"
 viewBox="28.80 28.80 623.79 886.28" xmlns="http://www.w3.org/2000/svg" xmlns:xlink="http://www.w3.org/1999/xlink">
<g id="graph0" class="graph" transform="scale(1 1) rotate(0) translate(32.8 882.28)">
<title>composites</title>
<polygon fill="white" stroke="transparent" points="-4,4 -4,-853.48 590.99,-853.48 590.99,4 -4,4"/>
<text text-anchor="middle" x="293.49" y="-834.28" font-family="Times,serif" font-size="14.00">composites</text>
<!-- /prime/composites/limit -->
<g id="node1" class="node">
<title>/prime/composites/limit</title>
<polygon fill="white" stroke="black" points="132.46,-814.04 97.87,-826.48 63.28,-814.04 63.31,-793.92 132.42,-793.92 132.46,-814.04"/>
<text text-anchor="middle" x="97.87" y="-804.78" font-family="Times,serif" font-size="14.00">limit</text>
</g>
<!-- /prime/composites/sqrt -->
<g id="node4" class="node">
<title>/prime/composites/sqrt</title>
<g id="a_node4"><a xlink:href="../../flowstdlib/math/sqrt/sqrt.html" xlink:title="sqrt">
<ellipse fill="coral" stroke="black" cx="149.87" cy="-735.48" rx="27" ry="18"/>
<text text-anchor="middle" x="149.87" y="-731.78" font-family="Times,serif" font-size="14.00">sqrt</text>
</a>
</g>
</g>
<!-- /prime/composites/limit&#45;&gt;/prime/composites/sqrt -->
<g id="edge3" class="edge">
<title>/prime/composites/limit:s&#45;&gt;/prime/composites/sqrt:w</title>
<path fill="none" stroke="black" d="M97.87,-792.48C97.87,-781.74 104.13,-752.99 113.42,-740.93"/>
<polygon fill="black" stroke="black" points="115.36,-743.84 121.87,-735.48 111.57,-737.96 115.36,-743.84"/>
</g>
<!-- /prime/composites/generate_composites -->
<g id="node6" class="node">
<title>/prime/composites/generate_composites</title>
<g id="a_node6"><a xlink:href="generate_composites.dot.svg" xlink:title="generate_composites">
<ellipse fill="aquamarine" stroke="black" cx="85.87" cy="-427.48" rx="72" ry="72"/>
<text text-anchor="middle" x="85.87" y="-423.78" font-family="Times,serif" font-size="14.00">generate_composites</text>
</a>
</g>
</g>
<!-- /prime/composites/limit&#45;&gt;/prime/composites/generate_composites -->
<g id="edge6" class="edge">
<title>/prime/composites/limit:s&#45;&gt;/prime/composites/generate_composites:n</title>
<path fill="none" stroke="black" d="M97.87,-792.48C97.87,-665.59 86.49,-631.59 85.89,-509.59"/>
<polygon fill="black" stroke="black" points="89.39,-509.47 85.87,-499.48 82.39,-509.49 89.39,-509.47"/>
<text text-anchor="middle" x="72.37" y="-503.28" font-family="Times,serif" font-size="14.00">limit</text>
</g>
<!-- /prime/composites/composites -->
<g id="node2" class="node">
<title>/prime/composites/composites</title>
<polygon fill="black" stroke="black" points="10.04,-12.44 72.87,0 135.69,-12.44 135.64,-32.56 10.1,-32.56 10.04,-12.44"/>
<text text-anchor="middle" x="72.87" y="-14.3" font-family="Times,serif" font-size="14.00" fill="white">composites</text>
</g>
<!-- /prime/composites/last -->
<g id="node3" class="node">
<title>/prime/composites/last</title>
<polygon fill="black" stroke="black" points="530.63,-12.44 558.87,0 587.1,-12.44 587.08,-32.56 530.66,-32.56 530.63,-12.44"/>
<text text-anchor="middle" x="558.87" y="-14.3" font-family="Times,serif" font-size="14.00" fill="white">last</text>
</g>
<!-- /prime/composites/divisors -->
<g id="node5" class="node">
<title>/prime/composites/divisors</title>
<g id="a_node5"><a xlink:href="lib://flowstdlib/math/sequence.dot.svg" xlink:title="divisors">
<ellipse fill="aquamarine" stroke="black" cx="185.87" cy="-608.48" rx="72" ry="72"/>
<text text-anchor="middle" x="185.87" y="-604.78" font-family="Times,serif" font-size="14.00">divisors</text>
</a>
</g>
</g>
<!-- /prime/composites/sqrt&#45;&gt;/prime/composites/divisors -->
<g id="edge4" class="edge">
<title>/prime/composites/sqrt:e&#45;&gt;/prime/composites/divisors:n</title>
<path fill="none" stroke="black" d="M177.87,-735.48C199.29,-735.48 189.57,-712.7 186.61,-690.53"/>
<polygon fill="black" stroke="black" points="190.1,-690.19 185.87,-680.48 183.12,-690.71 190.1,-690.19"/>
<text text-anchor="middle" x="175.87" y="-684.28" font-family="Times,serif" font-size="14.00">end</text>
</g>
<!-- /prime/composites/divisors&#45;&gt;/prime/composites/generate_composites -->
<g id="edge5" class="edge">
<title>/prime/composites/divisors:s&#45;&gt;/prime/composites/generate_composites:n</title>
<path fill="none" stroke="black" d="M185.87,-536.48C185.87,-516.21 112.68,-520.88 91.53,-507.82"/>
<polygon fill="black" stroke="black" points="94.38,-505.79 85.87,-499.48 88.59,-509.72 94.38,-505.79"/>
<text text-anchor="middle" x="110.68" y="-521.76" font-family="Times,serif" font-size="14.00">sequence</text>
<text text-anchor="middle" x="97.87" y="-503.28" font-family="Times,serif" font-size="14.00">start</text>
</g>
<!-- /prime/composites/compare -->
<g id="node11" class="node">
<title>/prime/composites/compare</title>
<g id="a_node11"><a xlink:href="../../flowstdlib/control/compare_switch/compare_switch.html" xlink:title="compare\n(compare_switch)">
<ellipse fill="coral" stroke="black" cx="476.87" cy="-99.87" rx="81.13" ry="26.74"/>
<text text-anchor="middle" x="476.87" y="-103.67" font-family="Times,serif" font-size="14.00">compare</text>
<text text-anchor="middle" x="476.87" y="-88.67" font-family="Times,serif" font-size="14.00">(compare_switch)</text>
</a>
</g>
</g>
<!-- /prime/composites/divisors&#45;&gt;/prime/composites/compare -->
<g id="edge11" class="edge">
<title>/prime/composites/divisors:s&#45;&gt;/prime/composites/compare:ne</title>
<path fill="none" stroke="black" d="M185.87,-536.48C185.87,-476.14 397.82,-519.14 454.87,-499.48 514.18,-479.04 576.87,-491.22 576.87,-428.48 576.87,-428.48 576.87,-428.48 576.87,-189.61 576.87,-149.99 540.22,-155.85 510.61,-133.47"/>
<polygon fill="black" stroke="black" points="512.71,-130.66 502.87,-126.74 508.12,-135.94 512.71,-130.66"/>
<text text-anchor="middle" x="329.11" y="-507.52" font-family="Times,serif" font-size="14.00">last</text>
<text text-anchor="middle" x="493.37" y="-130.54" font-family="Times,serif" font-size="14.00">left</text>
</g>
<!-- /prime/composites/generate_composites&#45;&gt;/prime/composites/composites -->
<g id="edge7" class="edge">
<title>/prime/composites/generate_composites:s&#45;&gt;/prime/composites/composites:n</title>
<path fill="none" stroke="black" d="M85.87,-355.48C85.87,-324.71 72.87,-318.25 72.87,-287.48 72.87,-287.48 72.87,-287.48 72.87,-98.87 72.87,-73.76 72.87,-65.05 72.87,-44.16"/>
<polygon fill="black" stroke="black" points="76.37,-44 72.87,-34 69.37,-44 76.37,-44"/>
<text text-anchor="middle" x="41.87" y="-267.71" font-family="Times,serif" font-size="14.00">composites</text>
</g>
<!-- /prime/composites/join -->
<g id="node7" class="node">
<title>/prime/composites/join</title>
<g id="a_node7"><a xlink:href="../../flowstdlib/control/join/join.html" xlink:title="join">
<ellipse fill="coral" stroke="black" cx="127.87" cy="-286.48" rx="27" ry="18"/>
<text text-anchor="middle" x="127.87" y="-282.78" font-family="Times,serif" font-size="14.00">join</text>
</a>
</g>
</g>
<!-- /prime/composites/generate_composites&#45;&gt;/prime/composites/join -->
<g id="edge8" class="edge">
<title>/prime/composites/generate_composites:s&#45;&gt;/prime/composites/join:nw</title>
<path fill="none" stroke="black" d="M85.87,-355.48C85.87,-332.76 92,-323.75 105.59,-309.81"/>
<polygon fill="black" stroke="black" points="108.3,-312.04 112.87,-302.48 103.34,-307.11 108.3,-312.04"/>
<text text-anchor="middle" x="46.5" y="-328.8" font-family="Times,serif" font-size="14.00">subsequence&#45;end</text>
<text text-anchor="middle" x="93.37" y="-306.28" font-family="Times,serif" font-size="14.00">control</text>
</g>
<!-- /prime/composites/subsequence&#45;count -->
<g id="node9" class="node">
<title>/prime/composites/subsequence&#45;count</title>
<g id="a_node9"><a xlink:href="../../flowstdlib/math/add/add.html" xlink:title="subsequence&#45;count\n(add)">
<ellipse fill="coral" stroke="black" cx="334.87" cy="-190.61" rx="84.29" ry="26.74"/>
<text text-anchor="middle" x="334.87" y="-194.41" font-family="Times,serif" font-size="14.00">subsequence&#45;count</text>
<text text-anchor="middle" x="334.87" y="-179.41" font-family="Times,serif" font-size="14.00">(add)</text>
</a>
</g>
</g>
<!-- /prime/composites/join&#45;&gt;/prime/composites/subsequence&#45;count -->
<g id="edge9" class="edge">
<title>/prime/composites/join:e&#45;&gt;/prime/composites/subsequence&#45;count:w</title>
<path fill="none" stroke="black" d="M155.87,-286.48C164.62,-286.48 158.73,-275.57 163.87,-268.48 191.98,-229.65 197.58,-195.72 239.67,-191.14"/>
<polygon fill="black" stroke="black" points="240.06,-194.62 249.87,-190.61 239.7,-187.63 240.06,-194.62"/>
<text text-anchor="middle" x="244.37" y="-194.41" font-family="Times,serif" font-size="14.00">i2</text>
</g>
<!-- initializer/prime/composites/join_0 -->
<!-- initializer/prime/composites/join_0&#45;&gt;/prime/composites/join -->
<g id="edge1" class="edge">
<title>initializer/prime/composites/join_0&#45;&gt;/prime/composites/join:nw</title>
<path fill="none" stroke="blue" d="M277.82,-409.92C227.33,-384.2 134.78,-335.22 115.39,-312.25"/>
<polygon fill="blue" stroke="blue" points="118.75,-311.29 112.87,-302.48 111.97,-313.04 118.75,-311.29"/>
<text text-anchor="middle" x="150.37" y="-326.28" font-family="Times,serif" font-size="14.00">1</text>
</g>
<!-- /prime/composites/subsequence&#45;count&#45;&gt;/prime/composites/subsequence&#45;count -->
<g id="edge10" class="edge">
<title>/prime/composites/subsequence&#45;count:sw&#45;&gt;/prime/composites/subsequence&#45;count:ne</title>
<path fill="none" stroke="black" d="M308.87,-164.61C232.72,-180.9 232.72,-239.48 334.87,-239.48 432.22,-239.48 436.79,-226.16 371.07,-217.8"/>
<polygon fill="black" stroke="black" points="371.21,-214.3 360.87,-216.61 370.39,-221.25 371.21,-214.3"/>
<text text-anchor="middle" x="296.86" y="-153.41" font-family="Times,serif" font-size="14.00">sum</text>
<text text-anchor="middle" x="355.37" y="-220.41" font-family="Times,serif" font-size="14.00">i1</text>
</g>
<!-- /prime/composites/subsequence&#45;count&#45;&gt;/prime/composites/compare -->
<g id="edge12" class="edge">
<title>/prime/composites/subsequence&#45;count:sw&#45;&gt;/prime/composites/compare:ne</title>
<path fill="none" stroke="black" d="M308.87,-163.74C249.71,-104.58 535.94,-180.97 509.17,-134.52"/>
<polygon fill="black" stroke="black" points="511.88,-132.31 502.87,-126.74 506.44,-136.71 511.88,-132.31"/>
<text text-anchor="middle" x="384.85" y="-148.16" font-family="Times,serif" font-size="14.00">sum</text>
<text text-anchor="middle" x="515.87" y="-130.54" font-family="Times,serif" font-size="14.00">right</text>
</g>
<!-- initializer/prime/composites/subsequence&#45;count_0 -->
<!-- initializer/prime/composites/subsequence&#45;count_0&#45;&gt;/prime/composites/subsequence&#45;count -->
<g id="edge2" class="edge">
<title>initializer/prime/composites/subsequence&#45;count_0&#45;&gt;/prime/composites/subsequence&#45;count:ne</title>
<path fill="none" stroke="blue" stroke-dasharray="1,5" d="M366.83,-268.42C370.25,-255.81 372.77,-238.66 366.61,-225.69"/>
<polygon fill="blue" stroke="blue" points="369.47,-223.66 360.87,-217.48 363.74,-227.68 369.47,-223.66"/>
<text text-anchor="middle" x="373.37" y="-239.28" font-family="Times,serif" font-size="14.00">1</text>
</g>
<!-- /prime/composites/compare&#45;&gt;/prime/composites/last -->
<g id="edge13" class="edge">
<title>/prime/composites/compare:e&#45;&gt;/prime/composites/last:n</title>
<path fill="none" stroke="black" d="M559.87,-99.87C585.83,-99.87 564.96,-71.1 559.9,-44.17"/>
<polygon fill="black" stroke="black" points="563.36,-43.59 558.87,-34 556.4,-44.3 563.36,-43.59"/>
<text text-anchor="middle" x="550.89" y="-53.64" font-family="Times,serif" font-size="14.00">equal</text>
</g>
</g>
</svg>
