<?xml version="1.0" encoding="UTF-8" standalone="no"?>
<!DOCTYPE svg PUBLIC "-//W3C//DTD SVG 1.1//EN"
 "http://www.w3.org/Graphics/SVG/1.1/DTD/svg11.dtd">
<!-- Generated by graphviz version 2.42.3 (20191010.1750)
 -->
<!-- Title: composite_sequence Pages: 1 -->
<svg width="349pt" height="369pt"
 viewBox="28.80 28.80 320.57 340.62" xmlns="http://www.w3.org/2000/svg" xmlns:xlink="http://www.w3.org/1999/xlink">
<g id="graph0" class="graph" transform="scale(1 1) rotate(0) translate(32.8 336.62)">
<title>composite_sequence</title>
<polygon fill="white" stroke="transparent" points="-4,4 -4,-307.82 287.77,-307.82 287.77,4 -4,4"/>
<text text-anchor="middle" x="141.89" y="-288.62" font-family="Times,serif" font-size="14.00">composite&#45;sequence</text>
<!-- /prime/composites/generate_composites/composite&#45;sequence/start -->
<g id="node1" class="node">
<title>/prime/composites/generate_composites/composite&#45;sequence/start</title>
<polygon fill="white" stroke="black" points="193.8,-269.39 162.67,-281.82 131.55,-269.39 131.58,-249.26 193.77,-249.26 193.8,-269.39"/>
<text text-anchor="middle" x="162.67" y="-259.62" font-family="Times,serif" font-size="14.00">start</text>
</g>
<!-- /prime/composites/generate_composites/composite&#45;sequence/compare -->
<g id="node6" class="node">
<title>/prime/composites/generate_composites/composite&#45;sequence/compare</title>
<ellipse fill="coral" stroke="black" cx="125.67" cy="-184.37" rx="81.89" ry="25.41"/>
<text text-anchor="middle" x="125.67" y="-187.17" font-family="Times,serif" font-size="14.00">compare</text>
<text text-anchor="middle" x="125.67" y="-173.17" font-family="Times,serif" font-size="14.00">(CompareSwitch)</text>
</g>
<!-- /prime/composites/generate_composites/composite&#45;sequence/start&#45;&gt;/prime/composites/generate_composites/composite&#45;sequence/compare -->
<g id="edge1" class="edge">
<title>/prime/composites/generate_composites/composite&#45;sequence/start:s&#45;&gt;/prime/composites/generate_composites/composite&#45;sequence/compare:ne</title>
<path fill="none" stroke="black" d="M162.67,-247.82C162.67,-233.99 162.99,-226.22 157.16,-217.51"/>
<polygon fill="black" stroke="black" points="159.8,-215.21 150.67,-209.82 154.45,-219.72 159.8,-215.21"/>
<text text-anchor="middle" x="137.45" y="-212.62" font-family="Times,serif" font-size="14.00">right</text>
</g>
<!-- /prime/composites/generate_composites/composite&#45;sequence/end -->
<g id="node2" class="node">
<title>/prime/composites/generate_composites/composite&#45;sequence/end</title>
<polygon fill="white" stroke="black" points="112.73,-269.39 84.67,-281.82 56.62,-269.39 56.65,-249.26 112.7,-249.26 112.73,-269.39"/>
<text text-anchor="middle" x="84.67" y="-259.62" font-family="Times,serif" font-size="14.00">end</text>
</g>
<!-- /prime/composites/generate_composites/composite&#45;sequence/end&#45;&gt;/prime/composites/generate_composites/composite&#45;sequence/compare -->
<g id="edge2" class="edge">
<title>/prime/composites/generate_composites/composite&#45;sequence/end:s&#45;&gt;/prime/composites/generate_composites/composite&#45;sequence/compare:ne</title>
<path fill="none" stroke="black" d="M84.67,-247.82C84.67,-220.59 142.91,-228.08 153.18,-219.57"/>
<polygon fill="black" stroke="black" points="156.56,-218.63 150.67,-209.82 149.78,-220.38 156.56,-218.63"/>
<text text-anchor="middle" x="160" y="-212.62" font-family="Times,serif" font-size="14.00">left</text>
</g>
<!-- /prime/composites/generate_composites/composite&#45;sequence/step -->
<g id="node3" class="node">
<title>/prime/composites/generate_composites/composite&#45;sequence/step</title>
<polygon fill="white" stroke="black" points="283.87,-269.39 253.67,-281.82 223.47,-269.39 223.5,-249.26 283.85,-249.26 283.87,-269.39"/>
<text text-anchor="middle" x="253.67" y="-259.62" font-family="Times,serif" font-size="14.00">step</text>
</g>
<!-- /prime/composites/generate_composites/composite&#45;sequence/add -->
<g id="node7" class="node">
<title>/prime/composites/generate_composites/composite&#45;sequence/add</title>
<ellipse fill="coral" stroke="black" cx="188.67" cy="-97.46" rx="34.91" ry="25.41"/>
<text text-anchor="middle" x="188.67" y="-100.26" font-family="Times,serif" font-size="14.00">add</text>
<text text-anchor="middle" x="188.67" y="-86.26" font-family="Times,serif" font-size="14.00">(Add)</text>
</g>
<!-- /prime/composites/generate_composites/composite&#45;sequence/step&#45;&gt;/prime/composites/generate_composites/composite&#45;sequence/add -->
<g id="edge3" class="edge">
<title>/prime/composites/generate_composites/composite&#45;sequence/step:s&#45;&gt;/prime/composites/generate_composites/composite&#45;sequence/add:w</title>
<path fill="none" stroke="black" d="M253.67,-247.82C253.67,-207.41 260.13,-190.29 234.67,-158.91 209.85,-128.32 175.78,-155.52 153.67,-122.91 150.2,-117.79 146.84,-110.65 146.36,-105.24"/>
<polygon fill="black" stroke="black" points="149.09,-107.43 152.67,-97.46 143.66,-103.02 149.09,-107.43"/>
<text text-anchor="middle" x="147.23" y="-100.26" font-family="Times,serif" font-size="14.00">i2</text>
</g>
<!-- /prime/composites/generate_composites/composite&#45;sequence/sequence -->
<g id="node4" class="node">
<title>/prime/composites/generate_composites/composite&#45;sequence/sequence</title>
<polygon fill="black" stroke="black" points="73.07,-12.44 125.67,0 178.27,-12.44 178.22,-32.56 73.12,-32.56 73.07,-12.44"/>
<text text-anchor="middle" x="125.67" y="-13.8" font-family="Times,serif" font-size="14.00" fill="white">sequence</text>
</g>
<!-- /prime/composites/generate_composites/composite&#45;sequence/last -->
<g id="node5" class="node">
<title>/prime/composites/generate_composites/composite&#45;sequence/last</title>
<polygon fill="black" stroke="black" points="-0.17,-12.44 27.67,0 55.52,-12.44 55.49,-32.56 -0.15,-32.56 -0.17,-12.44"/>
<text text-anchor="middle" x="27.67" y="-13.8" font-family="Times,serif" font-size="14.00" fill="white">last</text>
</g>
<!-- /prime/composites/generate_composites/composite&#45;sequence/compare&#45;&gt;/prime/composites/generate_composites/composite&#45;sequence/sequence -->
<g id="edge5" class="edge">
<title>/prime/composites/generate_composites/composite&#45;sequence/compare:s&#45;&gt;/prime/composites/generate_composites/composite&#45;sequence/sequence:n</title>
<path fill="none" stroke="black" d="M125.67,-158.91C125.67,-106.97 125.67,-91.48 125.67,-44.24"/>
<polygon fill="black" stroke="black" points="129.17,-44 125.67,-34 122.17,-44 129.17,-44"/>
<text text-anchor="middle" x="103.12" y="-99.19" font-family="Times,serif" font-size="14.00">right&#45;lte</text>
</g>
<!-- /prime/composites/generate_composites/composite&#45;sequence/compare&#45;&gt;/prime/composites/generate_composites/composite&#45;sequence/last -->
<g id="edge9" class="edge">
<title>/prime/composites/generate_composites/composite&#45;sequence/compare:s&#45;&gt;/prime/composites/generate_composites/composite&#45;sequence/last:n</title>
<path fill="none" stroke="black" d="M125.67,-158.91C125.67,-91.93 37.37,-103.14 28.4,-44.1"/>
<polygon fill="black" stroke="black" points="31.89,-43.72 27.67,-34 24.9,-44.23 31.89,-43.72"/>
<text text-anchor="middle" x="52.49" y="-99.21" font-family="Times,serif" font-size="14.00">right&#45;gte</text>
</g>
<!-- /prime/composites/generate_composites/composite&#45;sequence/compare&#45;&gt;/prime/composites/generate_composites/composite&#45;sequence/compare -->
<g id="edge6" class="edge">
<title>/prime/composites/generate_composites/composite&#45;sequence/compare:s&#45;&gt;/prime/composites/generate_composites/composite&#45;sequence/compare:ne</title>
<path fill="none" stroke="black" d="M125.67,-158.37C158.9,-138.87 225.37,-138.87 225.37,-183.87 225.37,-224.82 191.02,-228.5 159.79,-214.13"/>
<polygon fill="black" stroke="black" points="161.16,-210.9 150.67,-209.37 157.91,-217.1 161.16,-210.9"/>
<text text-anchor="middle" x="108.67" y="-147.11" font-family="Times,serif" font-size="14.00">left&#45;gt</text>
<text text-anchor="middle" x="141.34" y="-212.17" font-family="Times,serif" font-size="14.00">left</text>
</g>
<!-- /prime/composites/generate_composites/composite&#45;sequence/compare&#45;&gt;/prime/composites/generate_composites/composite&#45;sequence/add -->
<g id="edge7" class="edge">
<title>/prime/composites/generate_composites/composite&#45;sequence/compare:sw&#45;&gt;/prime/composites/generate_composites/composite&#45;sequence/add:ne</title>
<path fill="none" stroke="black" d="M100.67,-158.91C67.8,-126.04 212.67,-150.03 214.51,-128.26"/>
<polygon fill="black" stroke="black" points="217.55,-126.54 209.67,-119.46 211.42,-129.91 217.55,-126.54"/>
<text text-anchor="middle" x="125.12" y="-128.22" font-family="Times,serif" font-size="14.00">right&#45;lt</text>
<text text-anchor="middle" x="215.12" y="-122.26" font-family="Times,serif" font-size="14.00">i1</text>
</g>
<!-- /prime/composites/generate_composites/composite&#45;sequence/add&#45;&gt;/prime/composites/generate_composites/composite&#45;sequence/compare -->
<g id="edge8" class="edge">
<title>/prime/composites/generate_composites/composite&#45;sequence/add:sw&#45;&gt;/prime/composites/generate_composites/composite&#45;sequence/compare:ne</title>
<path fill="none" stroke="black" d="M167.67,-75.46C163.28,-71.06 157.95,-71.9 153.72,-76.46 139.65,-91.57 144,-104.69 153.72,-122.91 167.23,-148.25 193.85,-133.57 207.37,-158.91 217.92,-178.7 223.08,-193.37 207.37,-209.37 192.19,-224.82 174.39,-227.61 158.37,-216.78"/>
<polygon fill="black" stroke="black" points="160.6,-214.08 150.67,-210.37 156.12,-219.46 160.6,-214.08"/>
<text text-anchor="middle" x="176.28" y="-137.7" font-family="Times,serif" font-size="14.00">sum</text>
<text text-anchor="middle" x="163.89" y="-213.17" font-family="Times,serif" font-size="14.00">right</text>
</g>
<!-- /prime/composites/generate_composites/composite&#45;sequence/add&#45;&gt;/prime/composites/generate_composites/composite&#45;sequence/add -->
<g id="edge4" class="edge">
<title>/prime/composites/generate_composites/composite&#45;sequence/add:e&#45;&gt;/prime/composites/generate_composites/composite&#45;sequence/add:w</title>
<path fill="none" stroke="black" d="M223.67,-97.46C241.63,-118.94 241.63,-161.91 188.67,-161.91 142.13,-161.91 136.49,-128.72 148,-106.09"/>
<polygon fill="black" stroke="black" points="151.11,-107.74 153.67,-97.46 145.26,-103.89 151.11,-107.74"/>
<text text-anchor="middle" x="229.12" y="-100.26" font-family="Times,serif" font-size="14.00">i2</text>
<text text-anchor="middle" x="148.23" y="-86.26" font-family="Times,serif" font-size="14.00">i2</text>
</g>
</g>
</svg>
