<?xml version="1.0" encoding="UTF-8" standalone="no"?>
<!DOCTYPE svg PUBLIC "-//W3C//DTD SVG 1.1//EN"
 "http://www.w3.org/Graphics/SVG/1.1/DTD/svg11.dtd">
<!-- Generated by graphviz version 2.40.1 (20161225.0304)
 -->
<!-- Title: prime Pages: 1 -->
<svg width="635pt" height="721pt"
 viewBox="28.80 28.80 606.17 692.02" xmlns="http://www.w3.org/2000/svg" xmlns:xlink="http://www.w3.org/1999/xlink">
<g id="page0,1_graph0" class="graph" transform="scale(1 1) rotate(0) translate(32.8 688.0203)">
<title>prime</title>
<polygon fill="#ffffff" stroke="transparent" points="-4,4 -4,-659.2203 573.3749,-659.2203 573.3749,4 -4,4"/>
<text text-anchor="middle" x="284.6875" y="-640.0203" font-family="Times,serif" font-size="14.00" fill="#000000">prime</text>
<!-- /prime/args -->
<g id="node1" class="node">
<title>/prime/args</title>
<g id="a_node1"><a xlink:href="../../flowr/src/lib/flowruntime/args/get.html" xlink:title="args\n(get)">
<ellipse fill="#ff7f50" stroke="#000000" cx="91.7561" cy="-605.3503" rx="35.2113" ry="26.7407"/>
<text text-anchor="middle" x="91.7561" y="-609.1503" font-family="Times,serif" font-size="14.00" fill="#000000">args</text>
<text text-anchor="middle" x="91.7561" y="-594.1503" font-family="Times,serif" font-size="14.00" fill="#000000">(get)</text>
</a>
</g>
</g>
<!-- /prime/candidates -->
<g id="node2" class="node">
<title>/prime/candidates</title>
<g id="a_node2"><a xlink:href="lib://flowstdlib/math/sequence.dot.svg" xlink:title="candidates">
<ellipse fill="#7fffd4" stroke="#000000" cx="127.7561" cy="-469.4802" rx="72" ry="72"/>
<text text-anchor="middle" x="127.7561" y="-465.7802" font-family="Times,serif" font-size="14.00" fill="#000000">candidates</text>
</a>
</g>
</g>
<!-- /prime/args&#45;&gt;/prime/candidates -->
<g id="edge2" class="edge">
<title>/prime/args:e&#45;&gt;/prime/candidates:n</title>
<path fill="none" stroke="#000000" d="M127.7561,-605.3503C152.8163,-605.3503 133.6296,-577.696 128.7886,-551.6838"/>
<polygon fill="#000000" stroke="#000000" points="132.2451,-551.0771 127.7561,-541.4802 125.2807,-551.7818 132.2451,-551.0771"/>
<text text-anchor="middle" x="109.7915" y="-560.1358" font-family="Times,serif" font-size="14.00" fill="#000000">json[1]</text>
<text text-anchor="middle" x="114.2561" y="-545.2802" font-family="Times,serif" font-size="14.00" fill="#000000">end</text>
</g>
<!-- /prime/all&#45;numbers -->
<g id="node3" class="node">
<title>/prime/all&#45;numbers</title>
<g id="a_node3"><a xlink:href="../../flowstdlib/data/accumulate/accumulate.html" xlink:title="all&#45;numbers\n(accumulate)">
<ellipse fill="#ff7f50" stroke="#000000" cx="258.7561" cy="-190.6102" rx="77.5641" ry="26.7407"/>
<text text-anchor="middle" x="258.7561" y="-194.4102" font-family="Times,serif" font-size="14.00" fill="#000000">all&#45;numbers</text>
<text text-anchor="middle" x="258.7561" y="-179.4102" font-family="Times,serif" font-size="14.00" fill="#000000">(accumulate)</text>
</a>
</g>
</g>
<!-- /prime/args&#45;&gt;/prime/all&#45;numbers -->
<g id="edge4" class="edge">
<title>/prime/args:e&#45;&gt;/prime/all&#45;numbers:n</title>
<path fill="none" stroke="#000000" d="M127.7561,-605.3503C139.6984,-605.3503 134.2122,-588.527 127.7561,-578.4802 106.3601,-545.1841 68.1522,-574.7763 46.7561,-541.4802 12.1575,-487.6385 34.1223,-460.2209 46.7561,-397.4802 62.1706,-320.931 52.5398,-282.6662 114.7561,-235.4802 137.3397,-218.3525 231.4621,-242.3391 253.9263,-226.5046"/>
<polygon fill="#000000" stroke="#000000" points="257.1232,-227.9485 258.7561,-217.4802 250.9515,-224.6454 257.1232,-227.9485"/>
<text text-anchor="middle" x="24.5" y="-389.4824" font-family="Times,serif" font-size="14.00" fill="#000000">json[1]</text>
<text text-anchor="middle" x="218.7561" y="-221.2802" font-family="Times,serif" font-size="14.00" fill="#000000">chunk_size</text>
</g>
<!-- /prime/composites -->
<g id="node5" class="node">
<title>/prime/composites</title>
<g id="a_node5"><a xlink:href="composites.dot.svg" xlink:title="composites">
<ellipse fill="#7fffd4" stroke="#000000" cx="486.7561" cy="-307.4802" rx="72" ry="72"/>
<text text-anchor="middle" x="486.7561" y="-303.7802" font-family="Times,serif" font-size="14.00" fill="#000000">composites</text>
</a>
</g>
</g>
<!-- /prime/args&#45;&gt;/prime/composites -->
<g id="edge7" class="edge">
<title>/prime/args:e&#45;&gt;/prime/composites:n</title>
<path fill="none" stroke="#000000" d="M127.7561,-605.3503C173.5318,-605.3503 505.0025,-576.2672 534.7561,-541.4802 576.3553,-492.8438 571.2102,-450.0835 534.7561,-397.4802 524.6173,-382.8499 501.0235,-393.9994 491.1864,-388.7131"/>
<polygon fill="#000000" stroke="#000000" points="494.2378,-386.9819 486.7561,-379.4802 487.9268,-390.0102 494.2378,-386.9819"/>
<text text-anchor="middle" x="294.3697" y="-592.5167" font-family="Times,serif" font-size="14.00" fill="#000000">json[1]</text>
<text text-anchor="middle" x="469.7561" y="-383.2802" font-family="Times,serif" font-size="14.00" fill="#000000">limit</text>
</g>
<!-- /prime/candidates&#45;&gt;/prime/all&#45;numbers -->
<g id="edge3" class="edge">
<title>/prime/candidates:s&#45;&gt;/prime/all&#45;numbers:w</title>
<path fill="none" stroke="#000000" d="M127.7561,-397.4802C127.7561,-306.0906 88.8973,-198.8961 170.7459,-191.0661"/>
<polygon fill="#000000" stroke="#000000" points="170.9258,-194.5616 180.7561,-190.6102 170.6072,-187.5689 170.9258,-194.5616"/>
<text text-anchor="middle" x="84.5579" y="-266.7311" font-family="Times,serif" font-size="14.00" fill="#000000">sequence</text>
<text text-anchor="middle" x="157.7561" y="-194.4102" font-family="Times,serif" font-size="14.00" fill="#000000">values</text>
</g>
<!-- /prime/all&#45;numbers&#45;&gt;/prime/all&#45;numbers -->
<g id="edge5" class="edge">
<title>/prime/all&#45;numbers:s&#45;&gt;/prime/all&#45;numbers:n</title>
<path fill="none" stroke="#000000" d="M258.7561,-163.6102C290.6834,-158.1102 354.5379,-158.1102 354.5379,-190.6102 354.5379,-219.9363 302.546,-222.8002 268.9341,-219.039"/>
<polygon fill="#000000" stroke="#000000" points="269.1456,-215.5345 258.7561,-217.6102 268.1724,-222.4665 269.1456,-215.5345"/>
<text text-anchor="middle" x="298.8029" y="-152.4021" font-family="Times,serif" font-size="14.00" fill="#000000">chunk_size</text>
<text text-anchor="middle" x="298.7561" y="-221.4102" font-family="Times,serif" font-size="14.00" fill="#000000">chunk_size</text>
</g>
<!-- /prime/all&#45;numbers&#45;&gt;/prime/all&#45;numbers -->
<g id="edge6" class="edge">
<title>/prime/all&#45;numbers:s&#45;&gt;/prime/all&#45;numbers:n</title>
<path fill="none" stroke="#000000" d="M258.7561,-163.6102C296.6834,-152.6102 372.5379,-152.6102 372.5379,-190.6102 372.5379,-225.5672 308.3455,-228.3665 268.5388,-220.0273"/>
<polygon fill="#000000" stroke="#000000" points="269.3037,-216.6111 258.7561,-217.6102 267.6246,-223.4067 269.3037,-216.6111"/>
<text text-anchor="middle" x="234.7839" y="-152.4021" font-family="Times,serif" font-size="14.00" fill="#000000">partial</text>
<text text-anchor="middle" x="234.7561" y="-221.4102" font-family="Times,serif" font-size="14.00" fill="#000000">partial</text>
</g>
<!-- /prime/remove -->
<g id="node6" class="node">
<title>/prime/remove</title>
<g id="a_node6"><a xlink:href="../../flowstdlib/data/remove/remove.html" xlink:title="remove">
<ellipse fill="#ff7f50" stroke="#000000" cx="419.7561" cy="-108.7401" rx="45.4919" ry="18"/>
<text text-anchor="middle" x="419.7561" y="-105.0401" font-family="Times,serif" font-size="14.00" fill="#000000">remove</text>
</a>
</g>
</g>
<!-- /prime/all&#45;numbers&#45;&gt;/prime/remove -->
<g id="edge8" class="edge">
<title>/prime/all&#45;numbers:se&#45;&gt;/prime/remove:nw</title>
<path fill="none" stroke="#000000" d="M283.7561,-165.6102C320.5783,-128.788 357.9897,-160.346 394.8901,-132.6056"/>
<polygon fill="#000000" stroke="#000000" points="397.5237,-134.9527 402.7561,-125.7401 392.9207,-129.6789 397.5237,-134.9527"/>
<text text-anchor="middle" x="320.7106" y="-134.4754" font-family="Times,serif" font-size="14.00" fill="#000000">chunk</text>
<text text-anchor="middle" x="383.2561" y="-129.5401" font-family="Times,serif" font-size="14.00" fill="#000000">array</text>
</g>
<!-- initializer/prime/all&#45;numbers_1 -->
<!-- initializer/prime/all&#45;numbers_1&#45;&gt;/prime/all&#45;numbers -->
<g id="edge1" class="edge">
<title>initializer/prime/all&#45;numbers_1&#45;&gt;/prime/all&#45;numbers:n</title>
<path fill="none" stroke="#0000ff" stroke-dasharray="1,5" d="M357.2147,-451.4561C327.7681,-413.1409 263.4868,-319.5492 259.0035,-227.53"/>
<polygon fill="#0000ff" stroke="#0000ff" points="262.5012,-227.3911 258.7561,-217.4802 255.5033,-227.5633 262.5012,-227.3911"/>
<text text-anchor="middle" x="314.2561" y="-303.7802" font-family="Times,serif" font-size="14.00" fill="#000000">[]</text>
</g>
<!-- /prime/composites&#45;&gt;/prime/remove -->
<g id="edge9" class="edge">
<title>/prime/composites:s&#45;&gt;/prime/remove:n</title>
<path fill="none" stroke="#000000" d="M486.7561,-235.4802C486.7561,-182.3728 428.1145,-183.1443 420.5552,-136.9822"/>
<polygon fill="#000000" stroke="#000000" points="424.0235,-136.4375 419.7561,-126.7401 417.0447,-136.9821 424.0235,-136.4375"/>
<text text-anchor="middle" x="412.1894" y="-184.8584" font-family="Times,serif" font-size="14.00" fill="#000000">composites</text>
<text text-anchor="middle" x="439.2561" y="-130.5401" font-family="Times,serif" font-size="14.00" fill="#000000">value</text>
</g>
<!-- /prime/remove&#45;&gt;/prime/remove -->
<g id="edge10" class="edge">
<title>/prime/remove:e&#45;&gt;/prime/remove:nw</title>
<path fill="none" stroke="#000000" d="M465.7561,-108.7401C483.2521,-120.7401 483.2521,-144.7401 434.2561,-144.7401 395.978,-144.7401 387.6047,-137.4159 394.1158,-130.8737"/>
<polygon fill="#000000" stroke="#000000" points="395.9468,-133.857 402.7561,-125.7401 392.3713,-127.839 395.9468,-133.857"/>
<text text-anchor="middle" x="422.2561" y="-129.5401" font-family="Times,serif" font-size="14.00" fill="#000000">array</text>
</g>
<!-- /prime/print -->
<g id="node7" class="node">
<title>/prime/print</title>
<g id="a_node7"><a xlink:href="../../flowr/src/lib/flowruntime/stdio/stdout.html" xlink:title="print\n(stdout)">
<ellipse fill="#ff7f50" stroke="#000000" cx="517.7561" cy="-26.8701" rx="51.7379" ry="26.7407"/>
<text text-anchor="middle" x="517.7561" y="-30.6701" font-family="Times,serif" font-size="14.00" fill="#000000">print</text>
<text text-anchor="middle" x="517.7561" y="-15.6701" font-family="Times,serif" font-size="14.00" fill="#000000">(stdout)</text>
</a>
</g>
</g>
<!-- /prime/remove&#45;&gt;/prime/print -->
<g id="edge11" class="edge">
<title>/prime/remove:e&#45;&gt;/prime/print:w</title>
<path fill="none" stroke="#000000" d="M465.7561,-108.7401C497.3102,-108.7401 446.7744,-47.1727 456.5233,-30.8188"/>
<polygon fill="#000000" stroke="#000000" points="457.9381,-34.0205 465.7561,-26.8701 455.1854,-27.5844 457.9381,-34.0205"/>
</g>
</g>
</svg>
