<?xml version="1.0" encoding="UTF-8" standalone="no"?>
<!DOCTYPE svg PUBLIC "-//W3C//DTD SVG 1.1//EN"
 "http://www.w3.org/Graphics/SVG/1.1/DTD/svg11.dtd">
<!-- Generated by graphviz version 2.43.0 (0)
 -->
<!-- Title: prime Pages: 1 -->
<svg width="641pt" height="721pt"
 viewBox="28.80 28.80 612.65 692.02" xmlns="http://www.w3.org/2000/svg" xmlns:xlink="http://www.w3.org/1999/xlink">
<g id="page0,1_graph0" class="graph" transform="scale(1 1) rotate(0) translate(32.8 688.02)">
<title>prime</title>
<polygon fill="white" stroke="transparent" points="-4,4 -4,-659.22 579.85,-659.22 579.85,4 -4,4"/>
<text text-anchor="middle" x="287.93" y="-640.02" font-family="Times,serif" font-size="14.00">prime</text>
<!-- /prime/args -->
<g id="node1" class="node">
<title>/prime/args</title>
<g id="a_node1"><a xlink:href="../../flowr/src/lib/flowruntime/args/get.html" xlink:title="args\n(get)">
<ellipse fill="coral" stroke="black" cx="90.85" cy="-605.35" rx="35.21" ry="26.74"/>
<text text-anchor="middle" x="90.85" y="-609.15" font-family="Times,serif" font-size="14.00">args</text>
<text text-anchor="middle" x="90.85" y="-594.15" font-family="Times,serif" font-size="14.00">(get)</text>
</a>
</g>
</g>
<!-- /prime/candidates -->
<g id="node2" class="node">
<title>/prime/candidates</title>
<g id="a_node2"><a xlink:href="lib://flowstdlib/math/sequence.dot.svg" xlink:title="candidates">
<ellipse fill="aquamarine" stroke="black" cx="126.85" cy="-469.48" rx="72" ry="72"/>
<text text-anchor="middle" x="126.85" y="-465.78" font-family="Times,serif" font-size="14.00">candidates</text>
</a>
</g>
</g>
<!-- /prime/args&#45;&gt;/prime/candidates -->
<g id="edge2" class="edge">
<title>/prime/args:e&#45;&gt;/prime/candidates:n</title>
<path fill="none" stroke="black" d="M127.85,-605.35C152.91,-605.35 132.94,-577.7 127.92,-551.68"/>
<polygon fill="black" stroke="black" points="131.37,-551.06 126.85,-541.48 124.41,-551.79 131.37,-551.06"/>
<text text-anchor="middle" x="109.16" y="-560.14" font-family="Times,serif" font-size="14.00">json[1]</text>
<text text-anchor="middle" x="113.35" y="-545.28" font-family="Times,serif" font-size="14.00">end</text>
</g>
<!-- /prime/all&#45;numbers -->
<g id="node3" class="node">
<title>/prime/all&#45;numbers</title>
<g id="a_node3"><a xlink:href="../../flowstdlib/data/accumulate/accumulate.html" xlink:title="all&#45;numbers\n(accumulate)">
<ellipse fill="coral" stroke="black" cx="273.85" cy="-190.61" rx="77.15" ry="26.74"/>
<text text-anchor="middle" x="273.85" y="-194.41" font-family="Times,serif" font-size="14.00">all&#45;numbers</text>
<text text-anchor="middle" x="273.85" y="-179.41" font-family="Times,serif" font-size="14.00">(accumulate)</text>
</a>
</g>
</g>
<!-- /prime/args&#45;&gt;/prime/all&#45;numbers -->
<g id="edge4" class="edge">
<title>/prime/args:e&#45;&gt;/prime/all&#45;numbers:n</title>
<path fill="none" stroke="black" d="M127.85,-605.35C139.8,-605.35 133.5,-588.41 126.85,-578.48 104.84,-545.59 67.25,-574.78 45.85,-541.48 11.25,-487.64 32.24,-460.02 45.85,-397.48 62.68,-320.13 55.86,-282.07 119.85,-235.48 144.55,-217.5 246.53,-244.34 269.32,-226.64"/>
<polygon fill="black" stroke="black" points="272.55,-228 273.85,-217.48 266.28,-224.89 272.55,-228"/>
<text text-anchor="middle" x="24.5" y="-385.95" font-family="Times,serif" font-size="14.00">json[1]</text>
<text text-anchor="middle" x="234.85" y="-221.28" font-family="Times,serif" font-size="14.00">chunk_size</text>
</g>
<!-- /prime/composites -->
<g id="node5" class="node">
<title>/prime/composites</title>
<g id="a_node5"><a xlink:href="composites.dot.svg" xlink:title="composites">
<ellipse fill="aquamarine" stroke="black" cx="503.85" cy="-307.48" rx="72" ry="72"/>
<text text-anchor="middle" x="503.85" y="-303.78" font-family="Times,serif" font-size="14.00">composites</text>
</a>
</g>
</g>
<!-- /prime/args&#45;&gt;/prime/composites -->
<g id="edge7" class="edge">
<title>/prime/args:e&#45;&gt;/prime/composites:n</title>
<path fill="none" stroke="black" d="M127.85,-605.35C173.3,-605.35 502.33,-576.03 531.85,-541.48 573.42,-492.82 562.52,-453.65 531.85,-397.48 527.2,-388.96 516.59,-390.24 509.85,-387.95"/>
<polygon fill="black" stroke="black" points="512.49,-385.61 503.85,-379.48 506.78,-389.66 512.49,-385.61"/>
<text text-anchor="middle" x="303.27" y="-591.19" font-family="Times,serif" font-size="14.00">json[1]</text>
<text text-anchor="middle" x="486.85" y="-383.28" font-family="Times,serif" font-size="14.00">limit</text>
</g>
<!-- /prime/candidates&#45;&gt;/prime/all&#45;numbers -->
<g id="edge3" class="edge">
<title>/prime/candidates:s&#45;&gt;/prime/all&#45;numbers:w</title>
<path fill="none" stroke="black" d="M126.85,-397.48C126.85,-304.06 100.91,-198.54 185.83,-191.04"/>
<polygon fill="black" stroke="black" points="186.01,-194.53 195.85,-190.61 185.71,-187.54 186.01,-194.53"/>
<text text-anchor="middle" x="91" y="-265.83" font-family="Times,serif" font-size="14.00">sequence</text>
<text text-anchor="middle" x="172.85" y="-194.41" font-family="Times,serif" font-size="14.00">values</text>
</g>
<!-- /prime/all&#45;numbers&#45;&gt;/prime/all&#45;numbers -->
<g id="edge5" class="edge">
<title>/prime/all&#45;numbers:s&#45;&gt;/prime/all&#45;numbers:n</title>
<path fill="none" stroke="black" d="M273.85,-163.61C305.54,-158.11 368.92,-158.11 368.92,-190.61 368.92,-219.94 317.32,-222.8 283.95,-219.04"/>
<polygon fill="black" stroke="black" points="284.24,-215.55 273.85,-217.61 283.26,-222.48 284.24,-215.55"/>
<text text-anchor="middle" x="312.9" y="-152.4" font-family="Times,serif" font-size="14.00">chunk_size</text>
<text text-anchor="middle" x="312.85" y="-221.41" font-family="Times,serif" font-size="14.00">chunk_size</text>
</g>
<!-- /prime/all&#45;numbers&#45;&gt;/prime/all&#45;numbers -->
<g id="edge6" class="edge">
<title>/prime/all&#45;numbers:s&#45;&gt;/prime/all&#45;numbers:n</title>
<path fill="none" stroke="black" d="M273.85,-163.61C311.54,-152.61 386.92,-152.61 386.92,-190.61 386.92,-225.57 323.13,-228.37 283.57,-220.03"/>
<polygon fill="black" stroke="black" points="284.4,-216.63 273.85,-217.61 282.71,-223.42 284.4,-216.63"/>
<text text-anchor="middle" x="249.88" y="-152.4" font-family="Times,serif" font-size="14.00">partial</text>
<text text-anchor="middle" x="249.85" y="-221.41" font-family="Times,serif" font-size="14.00">partial</text>
</g>
<!-- /prime/remove -->
<g id="node6" class="node">
<title>/prime/remove</title>
<g id="a_node6"><a xlink:href="../../flowstdlib/data/remove/remove.html" xlink:title="remove">
<ellipse fill="coral" stroke="black" cx="408.85" cy="-108.74" rx="45.49" ry="18"/>
<text text-anchor="middle" x="408.85" y="-105.04" font-family="Times,serif" font-size="14.00">remove</text>
</a>
</g>
</g>
<!-- /prime/all&#45;numbers&#45;&gt;/prime/remove -->
<g id="edge8" class="edge">
<title>/prime/all&#45;numbers:se&#45;&gt;/prime/remove:nw</title>
<path fill="none" stroke="black" d="M298.85,-164.61C327.82,-135.64 355.38,-154.54 384.12,-133.42"/>
<polygon fill="black" stroke="black" points="386.57,-135.93 391.85,-126.74 381.99,-130.63 386.57,-135.93"/>
<text text-anchor="middle" x="324.04" y="-134.46" font-family="Times,serif" font-size="14.00">chunk</text>
<text text-anchor="middle" x="372.35" y="-130.54" font-family="Times,serif" font-size="14.00">array</text>
</g>
<!-- initializer/prime/all&#45;numbers_1 -->
<!-- initializer/prime/all&#45;numbers_1&#45;&gt;/prime/all&#45;numbers -->
<g id="edge1" class="edge">
<title>initializer/prime/all&#45;numbers_1&#45;&gt;/prime/all&#45;numbers:n</title>
<path fill="none" stroke="blue" stroke-dasharray="1,5" d="M358.27,-451.39C333.66,-413.43 278.06,-318.24 274.08,-227.65"/>
<polygon fill="blue" stroke="blue" points="277.57,-227.4 273.85,-217.48 270.57,-227.56 277.57,-227.4"/>
<text text-anchor="middle" x="322.35" y="-303.78" font-family="Times,serif" font-size="14.00">[]</text>
</g>
<!-- /prime/composites&#45;&gt;/prime/remove -->
<g id="edge9" class="edge">
<title>/prime/composites:s&#45;&gt;/prime/remove:n</title>
<path fill="none" stroke="black" d="M503.85,-235.48C503.85,-174.94 419.31,-188.96 409.73,-136.87"/>
<polygon fill="black" stroke="black" points="413.2,-136.4 408.85,-126.74 406.23,-137.01 413.2,-136.4"/>
<text text-anchor="middle" x="416.21" y="-185.08" font-family="Times,serif" font-size="14.00">composites</text>
<text text-anchor="middle" x="428.35" y="-130.54" font-family="Times,serif" font-size="14.00">value</text>
</g>
<!-- /prime/remove&#45;&gt;/prime/remove -->
<g id="edge10" class="edge">
<title>/prime/remove:e&#45;&gt;/prime/remove:nw</title>
<path fill="none" stroke="black" d="M454.85,-108.74C472.35,-120.74 472.35,-144.74 423.35,-144.74 385.07,-144.74 376.7,-137.42 383.21,-130.87"/>
<polygon fill="black" stroke="black" points="385.04,-133.86 391.85,-125.74 381.47,-127.84 385.04,-133.86"/>
<text text-anchor="middle" x="372.35" y="-114.54" font-family="Times,serif" font-size="14.00">array</text>
</g>
<!-- /prime/print -->
<g id="node7" class="node">
<title>/prime/print</title>
<g id="a_node7"><a xlink:href="../../flowr/src/lib/flowruntime/stdio/stdout.html" xlink:title="print\n(stdout)">
<ellipse fill="coral" stroke="black" cx="506.85" cy="-26.87" rx="51.74" ry="26.74"/>
<text text-anchor="middle" x="506.85" y="-30.67" font-family="Times,serif" font-size="14.00">print</text>
<text text-anchor="middle" x="506.85" y="-15.67" font-family="Times,serif" font-size="14.00">(stdout)</text>
</a>
</g>
</g>
<!-- /prime/remove&#45;&gt;/prime/print -->
<g id="edge11" class="edge">
<title>/prime/remove:e&#45;&gt;/prime/print:w</title>
<path fill="none" stroke="black" d="M455.85,-108.74C487.13,-108.74 436.29,-48.28 444.47,-31.27"/>
<polygon fill="black" stroke="black" points="446.29,-34.29 453.85,-26.87 443.31,-27.95 446.29,-34.29"/>
</g>
</g>
</svg>
