<?xml version="1.0" encoding="UTF-8" standalone="no"?>
<!DOCTYPE svg PUBLIC "-//W3C//DTD SVG 1.1//EN"
 "http://www.w3.org/Graphics/SVG/1.1/DTD/svg11.dtd">
<!-- Generated by graphviz version 2.42.4 (0)
 -->
<!-- Title: prime Pages: 1 -->
<svg width="975pt" height="624pt"
 viewBox="28.80 28.80 946.31 594.76" xmlns="http://www.w3.org/2000/svg" xmlns:xlink="http://www.w3.org/1999/xlink">
<g id="graph0" class="graph" transform="scale(1 1) rotate(0) translate(32.8 590.76)">
<title>prime</title>
<polygon fill="white" stroke="transparent" points="-4,4 -4,-561.96 913.51,-561.96 913.51,4 -4,4"/>
<text text-anchor="middle" x="454.75" y="-542.76" font-family="Times,serif" font-size="14.00">prime</text>
<!-- /prime/args -->
<g id="node1" class="node">
<title>/prime/args</title>
<g id="a_node1"><a xlink:href="../../flowruntime/args/get.html" xlink:title="args\n(Get)">
<ellipse fill="coral" stroke="black" cx="37.48" cy="-508.09" rx="37.45" ry="26.74"/>
<text text-anchor="middle" x="37.48" y="-511.89" font-family="Times,serif" font-size="14.00">args</text>
<text text-anchor="middle" x="37.48" y="-496.89" font-family="Times,serif" font-size="14.00">(Get)</text>
</a>
</g>
</g>
<!-- /prime/to_number -->
<g id="node2" class="node">
<title>/prime/to_number</title>
<g id="a_node2"><a xlink:href="../../flowstdlib/fmt/to_number/to_number.html" xlink:title="to_number\n(ToNumber)">
<ellipse fill="coral" stroke="black" cx="147.48" cy="-417.35" rx="72.25" ry="26.74"/>
<text text-anchor="middle" x="147.48" y="-421.15" font-family="Times,serif" font-size="14.00">to_number</text>
<text text-anchor="middle" x="147.48" y="-406.15" font-family="Times,serif" font-size="14.00">(ToNumber)</text>
</a>
</g>
</g>
<!-- /prime/args&#45;&gt;/prime/to_number -->
<g id="edge3" class="edge">
<title>/prime/args:e&#45;&gt;/prime/to_number:w</title>
<path fill="none" stroke="black" d="M76.48,-508.09C112.09,-508.09 51.83,-437.37 64.97,-420.8"/>
<polygon fill="black" stroke="black" points="66.27,-424.05 74.48,-417.35 63.88,-417.47 66.27,-424.05"/>
<text text-anchor="middle" x="65.47" y="-466.52" font-family="Times,serif" font-size="14.00">[1]</text>
</g>
<!-- /prime/candidates -->
<g id="node3" class="node">
<title>/prime/candidates</title>
<g id="a_node3"><a xlink:href="../../flowstdlib/math/sequence.dot.svg" xlink:title="candidates">
<ellipse fill="aquamarine" stroke="black" cx="219.48" cy="-281.48" rx="72" ry="72"/>
<text text-anchor="middle" x="219.48" y="-277.78" font-family="Times,serif" font-size="14.00">candidates</text>
</a>
</g>
</g>
<!-- /prime/to_number&#45;&gt;/prime/candidates -->
<g id="edge4" class="edge">
<title>/prime/to_number:e&#45;&gt;/prime/candidates:n</title>
<path fill="none" stroke="black" d="M220.48,-417.35C245.54,-417.35 225.57,-389.7 220.55,-363.68"/>
<polygon fill="black" stroke="black" points="224,-363.06 219.48,-353.48 217.04,-363.79 224,-363.06"/>
<text text-anchor="middle" x="205.98" y="-357.28" font-family="Times,serif" font-size="14.00">end</text>
</g>
<!-- /prime/all&#45;numbers -->
<g id="node4" class="node">
<title>/prime/all&#45;numbers</title>
<g id="a_node4"><a xlink:href="../../flowstdlib/data/accumulate/accumulate.html" xlink:title="all&#45;numbers\n(Accumulate)">
<ellipse fill="coral" stroke="black" cx="327.48" cy="-131.61" rx="77.56" ry="26.74"/>
<text text-anchor="middle" x="327.48" y="-135.41" font-family="Times,serif" font-size="14.00">all&#45;numbers</text>
<text text-anchor="middle" x="327.48" y="-120.41" font-family="Times,serif" font-size="14.00">(Accumulate)</text>
</a>
</g>
</g>
<!-- /prime/to_number&#45;&gt;/prime/all&#45;numbers -->
<g id="edge6" class="edge">
<title>/prime/to_number:e&#45;&gt;/prime/all&#45;numbers:n</title>
<path fill="none" stroke="black" d="M220.48,-417.35C232.43,-417.35 226.12,-400.41 219.48,-390.48 197.47,-357.59 159.87,-386.78 138.48,-353.48 103.88,-299.64 103.25,-262.91 138.48,-209.48 158.97,-178.4 179.72,-186.85 215.48,-176.48 236.19,-170.48 303.43,-180.02 322.43,-167.12"/>
<polygon fill="black" stroke="black" points="325.46,-168.88 327.48,-158.48 319.41,-165.35 325.46,-168.88"/>
<text text-anchor="middle" x="288.48" y="-162.28" font-family="Times,serif" font-size="14.00">chunk_size</text>
</g>
<!-- /prime/composites -->
<g id="node6" class="node">
<title>/prime/composites</title>
<g id="a_node6"><a xlink:href="composites.dot.svg" xlink:title="composites">
<ellipse fill="aquamarine" stroke="black" cx="705.48" cy="-281.48" rx="72" ry="72"/>
<text text-anchor="middle" x="705.48" y="-277.78" font-family="Times,serif" font-size="14.00">composites</text>
</a>
</g>
</g>
<!-- /prime/to_number&#45;&gt;/prime/composites -->
<g id="edge9" class="edge">
<title>/prime/to_number:e&#45;&gt;/prime/composites:n</title>
<path fill="none" stroke="black" d="M220.48,-417.35C271.65,-417.35 656.3,-408.92 701.2,-362.58"/>
<polygon fill="black" stroke="black" points="704.39,-364.02 705.48,-353.48 698.06,-361.04 704.39,-364.02"/>
<text text-anchor="middle" x="688.48" y="-357.28" font-family="Times,serif" font-size="14.00">limit</text>
</g>
<!-- /prime/candidates&#45;&gt;/prime/all&#45;numbers -->
<g id="edge5" class="edge">
<title>/prime/candidates:s&#45;&gt;/prime/all&#45;numbers:w</title>
<path fill="none" stroke="black" d="M219.48,-209.48C219.48,-176.44 213.13,-140.2 238.23,-132.92"/>
<polygon fill="black" stroke="black" points="239,-136.35 248.48,-131.61 238.11,-129.41 239,-136.35"/>
<text text-anchor="middle" x="185.94" y="-165.32" font-family="Times,serif" font-size="14.00">sequence</text>
<text text-anchor="middle" x="225.48" y="-135.41" font-family="Times,serif" font-size="14.00">values</text>
</g>
<!-- /prime/all&#45;numbers&#45;&gt;/prime/all&#45;numbers -->
<g id="edge7" class="edge">
<title>/prime/all&#45;numbers:s&#45;&gt;/prime/all&#45;numbers:n</title>
<path fill="none" stroke="black" d="M327.48,-104.61C359.4,-98.11 423.26,-98.11 423.26,-131.61 423.26,-161.84 371.27,-164.79 337.65,-160.3"/>
<polygon fill="black" stroke="black" points="337.92,-156.8 327.48,-158.61 336.77,-163.7 337.92,-156.8"/>
<text text-anchor="middle" x="366.5" y="-93.41" font-family="Times,serif" font-size="14.00">chunk_size</text>
<text text-anchor="middle" x="366.48" y="-162.41" font-family="Times,serif" font-size="14.00">chunk_size</text>
</g>
<!-- /prime/all&#45;numbers&#45;&gt;/prime/all&#45;numbers -->
<g id="edge8" class="edge">
<title>/prime/all&#45;numbers:s&#45;&gt;/prime/all&#45;numbers:n</title>
<path fill="none" stroke="black" d="M327.48,-104.61C365.4,-91.61 441.26,-91.61 441.26,-131.61 441.26,-168.41 377.07,-171.35 337.26,-161.47"/>
<polygon fill="black" stroke="black" points="338.06,-158.06 327.48,-158.61 336.09,-164.77 338.06,-158.06"/>
<text text-anchor="middle" x="303.49" y="-93.41" font-family="Times,serif" font-size="14.00">partial</text>
<text text-anchor="middle" x="303.48" y="-162.41" font-family="Times,serif" font-size="14.00">partial</text>
</g>
<!-- /prime/subtract -->
<g id="node7" class="node">
<title>/prime/subtract</title>
<g id="a_node7"><a xlink:href="../../flowstdlib/data/remove/remove.html" xlink:title="subtract\n(Remove)">
<ellipse fill="coral" stroke="black" cx="481.48" cy="-26.87" rx="59.29" ry="26.74"/>
<text text-anchor="middle" x="481.48" y="-30.67" font-family="Times,serif" font-size="14.00">subtract</text>
<text text-anchor="middle" x="481.48" y="-15.67" font-family="Times,serif" font-size="14.00">(Remove)</text>
</a>
</g>
</g>
<!-- /prime/all&#45;numbers&#45;&gt;/prime/subtract -->
<g id="edge10" class="edge">
<title>/prime/all&#45;numbers:se&#45;&gt;/prime/subtract:nw</title>
<path fill="none" stroke="black" d="M352.48,-105.61C386.55,-71.54 415.48,-86.91 448.83,-59.79"/>
<polygon fill="black" stroke="black" points="451.41,-62.18 456.48,-52.87 446.71,-56.99 451.41,-62.18"/>
<text text-anchor="middle" x="383.09" y="-68.01" font-family="Times,serif" font-size="14.00">chunk</text>
<text text-anchor="middle" x="436.98" y="-56.67" font-family="Times,serif" font-size="14.00">array</text>
</g>
<!-- initializer/prime/all&#45;numbers_1 -->
<!-- initializer/prime/all&#45;numbers_1&#45;&gt;/prime/all&#45;numbers -->
<g id="edge1" class="edge">
<title>initializer/prime/all&#45;numbers_1&#45;&gt;/prime/all&#45;numbers:n</title>
<path fill="none" stroke="blue" stroke-dasharray="1,5" d="M421.61,-264.09C384.51,-246.39 334.64,-214.43 328.18,-168.49"/>
<polygon fill="blue" stroke="blue" points="331.66,-168.21 327.48,-158.48 324.68,-168.7 331.66,-168.21"/>
<text text-anchor="middle" x="340.98" y="-180.28" font-family="Times,serif" font-size="14.00">[]</text>
</g>
<!-- /prime/composites&#45;&gt;/prime/subtract -->
<g id="edge11" class="edge">
<title>/prime/composites:s&#45;&gt;/prime/subtract:n</title>
<path fill="none" stroke="black" d="M705.48,-209.48C705.48,-115.59 564.69,-226.97 500.48,-158.48 470.52,-126.53 479.75,-104.52 481.28,-63.89"/>
<polygon fill="black" stroke="black" points="484.78,-63.81 481.48,-53.74 477.78,-63.67 484.78,-63.81"/>
<text text-anchor="middle" x="459.97" y="-162.28" font-family="Times,serif" font-size="14.00">composites</text>
<text text-anchor="middle" x="500.98" y="-57.54" font-family="Times,serif" font-size="14.00">value</text>
</g>
<!-- /prime/print -->
<g id="node9" class="node">
<title>/prime/print</title>
<g id="a_node9"><a xlink:href="../../flowruntime/stdio/stdout.html" xlink:title="print\n(Stdout)">
<ellipse fill="coral" stroke="black" cx="856.48" cy="-131.61" rx="53.07" ry="26.74"/>
<text text-anchor="middle" x="856.48" y="-135.41" font-family="Times,serif" font-size="14.00">print</text>
<text text-anchor="middle" x="856.48" y="-120.41" font-family="Times,serif" font-size="14.00">(Stdout)</text>
</a>
</g>
</g>
<!-- /prime/composites&#45;&gt;/prime/print -->
<g id="edge13" class="edge">
<title>/prime/composites:s&#45;&gt;/prime/print:w</title>
<path fill="none" stroke="black" d="M705.48,-209.48C705.48,-163.89 766.17,-194.22 794.48,-158.48 798.71,-153.14 796.98,-145.6 796.58,-139.87"/>
<polygon fill="black" stroke="black" points="799.51,-141.78 802.48,-131.61 793.82,-137.71 799.51,-141.78"/>
<text text-anchor="middle" x="714.77" y="-181.88" font-family="Times,serif" font-size="14.00">composites</text>
</g>
<!-- /prime/subtract&#45;&gt;/prime/subtract -->
<g id="edge12" class="edge">
<title>/prime/subtract:e&#45;&gt;/prime/subtract:nw</title>
<path fill="none" stroke="black" d="M541.48,-26.87C558.87,-44.49 558.87,-79.74 498.98,-79.74 450.31,-79.74 441.19,-68.3 448.81,-58.35"/>
<polygon fill="black" stroke="black" points="451.1,-61 456.48,-51.87 446.58,-55.65 451.1,-61"/>
<text text-anchor="middle" x="475.98" y="-55.67" font-family="Times,serif" font-size="14.00">array</text>
</g>
<!-- initializer/prime/subtract_0 -->
<!-- initializer/prime/subtract_0&#45;&gt;/prime/subtract -->
<g id="edge2" class="edge">
<title>initializer/prime/subtract_0&#45;&gt;/prime/subtract:n</title>
<path fill="none" stroke="blue" stroke-dasharray="1,5" d="M602.55,-114.5C561.84,-99.34 505.53,-76.79 487.37,-61.89"/>
<polygon fill="blue" stroke="blue" points="490.17,-59.8 481.48,-53.74 484.5,-63.9 490.17,-59.8"/>
<text text-anchor="middle" x="535.48" y="-75.54" font-family="Times,serif" font-size="14.00">9</text>
</g>
</g>
</svg>
