<?xml version="1.0" encoding="UTF-8" standalone="no"?>
<!DOCTYPE svg PUBLIC "-//W3C//DTD SVG 1.1//EN"
 "http://www.w3.org/Graphics/SVG/1.1/DTD/svg11.dtd">
<!-- Generated by graphviz version 2.44.1 (20200629.0846)
 -->
<!-- Title: prime Pages: 1 -->
<svg width="574pt" height="721pt"
 viewBox="28.80 28.80 544.93 692.02" xmlns="http://www.w3.org/2000/svg" xmlns:xlink="http://www.w3.org/1999/xlink">
<g id="graph0" class="graph" transform="scale(1 1) rotate(0) translate(32.8 688.02)">
<title>prime</title>
<polygon fill="white" stroke="transparent" points="-4,4 -4,-659.22 512.13,-659.22 512.13,4 -4,4"/>
<text text-anchor="middle" x="254.06" y="-640.02" font-family="Times,serif" font-size="14.00">prime</text>
<!-- /prime/args -->
<g id="node1" class="node">
<title>/prime/args</title>
<g id="a_node1"><a xlink:href="../../flowr/src/lib/flowruntime/args/get.html" xlink:title="args\n(get)">
<ellipse fill="coral" stroke="black" cx="88.13" cy="-605.35" rx="29.9" ry="26.74"/>
<text text-anchor="middle" x="88.13" y="-609.15" font-family="Times,serif" font-size="14.00">args</text>
<text text-anchor="middle" x="88.13" y="-594.15" font-family="Times,serif" font-size="14.00">(get)</text>
</a>
</g>
</g>
<!-- /prime/candidates -->
<g id="node2" class="node">
<title>/prime/candidates</title>
<g id="a_node2"><a xlink:href="lib://flowstdlib/math/sequence.dot.svg" xlink:title="candidates">
<ellipse fill="aquamarine" stroke="black" cx="118.13" cy="-469.48" rx="72" ry="72"/>
<text text-anchor="middle" x="118.13" y="-465.78" font-family="Times,serif" font-size="14.00">candidates</text>
</a>
</g>
</g>
<!-- /prime/args&#45;&gt;/prime/candidates -->
<g id="edge2" class="edge">
<title>/prime/args:e&#45;&gt;/prime/candidates:n</title>
<path fill="none" stroke="black" d="M119.13,-605.35C144.19,-605.35 124.22,-577.7 119.2,-551.68"/>
<polygon fill="black" stroke="black" points="122.65,-551.06 118.13,-541.48 115.69,-551.79 122.65,-551.06"/>
<text text-anchor="middle" x="105.44" y="-560.14" font-family="Times,serif" font-size="14.00">json[1]</text>
<text text-anchor="middle" x="108.13" y="-545.28" font-family="Times,serif" font-size="14.00">end</text>
</g>
<!-- /prime/all&#45;numbers -->
<g id="node3" class="node">
<title>/prime/all&#45;numbers</title>
<g id="a_node3"><a xlink:href="../../flowstdlib/data/accumulate/accumulate.html" xlink:title="all&#45;numbers\n(accumulate)">
<ellipse fill="coral" stroke="black" cx="229.13" cy="-190.61" rx="62.45" ry="26.74"/>
<text text-anchor="middle" x="229.13" y="-194.41" font-family="Times,serif" font-size="14.00">all&#45;numbers</text>
<text text-anchor="middle" x="229.13" y="-179.41" font-family="Times,serif" font-size="14.00">(accumulate)</text>
</a>
</g>
</g>
<!-- /prime/args&#45;&gt;/prime/all&#45;numbers -->
<g id="edge4" class="edge">
<title>/prime/args:e&#45;&gt;/prime/all&#45;numbers:n</title>
<path fill="none" stroke="black" d="M119.13,-605.35C131.08,-605.35 124.78,-588.41 118.13,-578.48 96.12,-545.59 58.53,-574.78 37.13,-541.48 2.53,-487.64 24.83,-460.29 37.13,-397.48 52.07,-321.18 41.85,-283.33 103.13,-235.48 122.38,-220.45 202.29,-239.04 223.79,-226.2"/>
<polygon fill="black" stroke="black" points="226.89,-227.84 229.13,-217.48 220.92,-224.18 226.89,-227.84"/>
<text text-anchor="middle" x="19.5" y="-391.23" font-family="Times,serif" font-size="14.00">json[1]</text>
<text text-anchor="middle" x="198.63" y="-221.28" font-family="Times,serif" font-size="14.00">chunk_size</text>
</g>
<!-- /prime/composites -->
<g id="node5" class="node">
<title>/prime/composites</title>
<g id="a_node5"><a xlink:href="composites.dot.svg" xlink:title="composites">
<ellipse fill="aquamarine" stroke="black" cx="436.13" cy="-307.48" rx="72" ry="72"/>
<text text-anchor="middle" x="436.13" y="-303.78" font-family="Times,serif" font-size="14.00">composites</text>
</a>
</g>
</g>
<!-- /prime/args&#45;&gt;/prime/composites -->
<g id="edge7" class="edge">
<title>/prime/args:e&#45;&gt;/prime/composites:n</title>
<path fill="none" stroke="black" d="M119.13,-605.35C196.44,-605.35 411.73,-600.96 461.13,-541.48 502.02,-492.25 490.31,-454.44 461.13,-397.48 457.13,-389.67 448,-390.1 441.95,-387.82"/>
<polygon fill="black" stroke="black" points="444.72,-385.68 436.13,-379.48 438.98,-389.68 444.72,-385.68"/>
<text text-anchor="middle" x="281.11" y="-599.52" font-family="Times,serif" font-size="14.00">json[1]</text>
<text text-anchor="middle" x="422.63" y="-383.28" font-family="Times,serif" font-size="14.00">limit</text>
</g>
<!-- /prime/candidates&#45;&gt;/prime/all&#45;numbers -->
<g id="edge3" class="edge">
<title>/prime/candidates:s&#45;&gt;/prime/all&#45;numbers:w</title>
<path fill="none" stroke="black" d="M118.13,-397.48C118.13,-306.78 75.3,-199.37 155.7,-191.12"/>
<polygon fill="black" stroke="black" points="156.31,-194.59 166.13,-190.61 155.97,-187.6 156.31,-194.59"/>
<text text-anchor="middle" x="81.76" y="-267.17" font-family="Times,serif" font-size="14.00">sequence</text>
<text text-anchor="middle" x="148.63" y="-194.41" font-family="Times,serif" font-size="14.00">values</text>
</g>
<!-- /prime/all&#45;numbers&#45;&gt;/prime/all&#45;numbers -->
<g id="edge5" class="edge">
<title>/prime/all&#45;numbers:s&#45;&gt;/prime/all&#45;numbers:n</title>
<path fill="none" stroke="black" d="M229.13,-163.61C255.87,-158.11 309.35,-158.11 309.35,-190.61 309.35,-219.43 267.3,-222.69 239.13,-219.23"/>
<polygon fill="black" stroke="black" points="239.56,-215.75 229.13,-217.61 238.44,-222.66 239.56,-215.75"/>
<text text-anchor="middle" x="259.67" y="-152.4" font-family="Times,serif" font-size="14.00">chunk_size</text>
<text text-anchor="middle" x="259.63" y="-221.41" font-family="Times,serif" font-size="14.00">chunk_size</text>
</g>
<!-- /prime/all&#45;numbers&#45;&gt;/prime/all&#45;numbers -->
<g id="edge6" class="edge">
<title>/prime/all&#45;numbers:s&#45;&gt;/prime/all&#45;numbers:n</title>
<path fill="none" stroke="black" d="M229.13,-163.61C261.87,-152.61 327.35,-152.61 327.35,-190.61 327.35,-225.05 273.57,-228.28 239.12,-220.39"/>
<polygon fill="black" stroke="black" points="239.7,-216.92 229.13,-217.61 237.82,-223.66 239.7,-216.92"/>
<text text-anchor="middle" x="211.65" y="-152.4" font-family="Times,serif" font-size="14.00">partial</text>
<text text-anchor="middle" x="211.63" y="-221.41" font-family="Times,serif" font-size="14.00">partial</text>
</g>
<!-- /prime/remove -->
<g id="node6" class="node">
<title>/prime/remove</title>
<g id="a_node6"><a xlink:href="../../flowstdlib/data/remove/remove.html" xlink:title="remove">
<ellipse fill="coral" stroke="black" cx="377.13" cy="-108.74" rx="37.89" ry="18"/>
<text text-anchor="middle" x="377.13" y="-105.04" font-family="Times,serif" font-size="14.00">remove</text>
</a>
</g>
</g>
<!-- /prime/all&#45;numbers&#45;&gt;/prime/remove -->
<g id="edge8" class="edge">
<title>/prime/all&#45;numbers:se&#45;&gt;/prime/remove:nw</title>
<path fill="none" stroke="black" d="M254.13,-164.61C287.39,-131.35 320.37,-157.26 353.59,-132.32"/>
<polygon fill="black" stroke="black" points="355.89,-134.95 361.13,-125.74 351.29,-129.68 355.89,-134.95"/>
<text text-anchor="middle" x="290.75" y="-133.97" font-family="Times,serif" font-size="14.00">chunk</text>
<text text-anchor="middle" x="347.13" y="-129.54" font-family="Times,serif" font-size="14.00">array</text>
</g>
<!-- initializer/prime/all&#45;numbers_1 -->
<!-- initializer/prime/all&#45;numbers_1&#45;&gt;/prime/all&#45;numbers -->
<g id="edge1" class="edge">
<title>initializer/prime/all&#45;numbers_1&#45;&gt;/prime/all&#45;numbers:n</title>
<path fill="none" stroke="blue" stroke-dasharray="1,5" d="M317.95,-451.48C292.05,-413.7 233.56,-318.85 229.37,-227.71"/>
<polygon fill="blue" stroke="blue" points="232.86,-227.4 229.13,-217.48 225.86,-227.56 232.86,-227.4"/>
<text text-anchor="middle" x="279.13" y="-303.78" font-family="Times,serif" font-size="14.00">[]</text>
</g>
<!-- /prime/composites&#45;&gt;/prime/remove -->
<g id="edge9" class="edge">
<title>/prime/composites:s&#45;&gt;/prime/remove:n</title>
<path fill="none" stroke="black" d="M436.13,-235.48C436.13,-184.15 384.71,-181.81 377.88,-136.98"/>
<polygon fill="black" stroke="black" points="381.35,-136.46 377.13,-126.74 374.37,-136.97 381.35,-136.46"/>
<text text-anchor="middle" x="375.66" y="-184.94" font-family="Times,serif" font-size="14.00">composites</text>
<text text-anchor="middle" x="392.13" y="-130.54" font-family="Times,serif" font-size="14.00">value</text>
</g>
<!-- /prime/remove&#45;&gt;/prime/remove -->
<g id="edge10" class="edge">
<title>/prime/remove:e&#45;&gt;/prime/remove:nw</title>
<path fill="none" stroke="black" d="M415.13,-108.74C432.83,-120.74 432.83,-144.74 388.13,-144.74 353.21,-144.74 345.57,-137.42 352.34,-130.4"/>
<polygon fill="black" stroke="black" points="354.61,-133.09 361.13,-124.74 350.83,-127.21 354.61,-133.09"/>
<text text-anchor="middle" x="375.13" y="-128.54" font-family="Times,serif" font-size="14.00">array</text>
</g>
<!-- /prime/print -->
<g id="node7" class="node">
<title>/prime/print</title>
<g id="a_node7"><a xlink:href="../../flowr/src/lib/flowruntime/stdio/stdout.html" xlink:title="print\n(stdout)">
<ellipse fill="coral" stroke="black" cx="457.13" cy="-26.87" rx="41.94" ry="26.74"/>
<text text-anchor="middle" x="457.13" y="-30.67" font-family="Times,serif" font-size="14.00">print</text>
<text text-anchor="middle" x="457.13" y="-15.67" font-family="Times,serif" font-size="14.00">(stdout)</text>
</a>
</g>
</g>
<!-- /prime/remove&#45;&gt;/prime/print -->
<g id="edge11" class="edge">
<title>/prime/remove:e&#45;&gt;/prime/print:w</title>
<path fill="none" stroke="black" d="M416.13,-108.74C447.41,-108.74 396.57,-48.28 404.75,-31.27"/>
<polygon fill="black" stroke="black" points="406.56,-34.29 414.13,-26.87 403.59,-27.95 406.56,-34.29"/>
</g>
</g>
</svg>
