<?xml version="1.0" encoding="UTF-8" standalone="no"?>
<!DOCTYPE svg PUBLIC "-//W3C//DTD SVG 1.1//EN"
 "http://www.w3.org/Graphics/SVG/1.1/DTD/svg11.dtd">
<!-- Generated by graphviz version 2.40.1 (0)
 -->
<!-- Title: prime Pages: 1 -->
<svg width="975pt" height="624pt"
 viewBox="28.80 28.80 946.31 594.76" xmlns="http://www.w3.org/2000/svg" xmlns:xlink="http://www.w3.org/1999/xlink">
<g id="graph0" class="graph" transform="scale(1 1) rotate(0) translate(32.8 590.7605)">
<title>prime</title>
<polygon fill="#ffffff" stroke="transparent" points="-4,4 -4,-561.9605 913.5097,-561.9605 913.5097,4 -4,4"/>
<text text-anchor="middle" x="454.7548" y="-542.7605" font-family="Times,serif" font-size="14.00" fill="#000000">prime</text>
<!-- /prime/args -->
<g id="node1" class="node">
<title>/prime/args</title>
<g id="a_node1"><a xlink:href="../../flowruntime/args/get.toml" xlink:title="args\n(Get)">
<ellipse fill="#ff7f50" stroke="#000000" cx="37.4767" cy="-508.0904" rx="37.4533" ry="26.7407"/>
<text text-anchor="middle" x="37.4767" y="-511.8904" font-family="Times,serif" font-size="14.00" fill="#000000">args</text>
<text text-anchor="middle" x="37.4767" y="-496.8904" font-family="Times,serif" font-size="14.00" fill="#000000">(Get)</text>
</a>
</g>
</g>
<!-- /prime/to_number -->
<g id="node2" class="node">
<title>/prime/to_number</title>
<g id="a_node2"><a xlink:href="../../flowstdlib/fmt/to_number/to_number.toml" xlink:title="to_number\n(ToNumber)">
<ellipse fill="#ff7f50" stroke="#000000" cx="147.4767" cy="-417.3503" rx="72.25" ry="26.7407"/>
<text text-anchor="middle" x="147.4767" y="-421.1503" font-family="Times,serif" font-size="14.00" fill="#000000">to_number</text>
<text text-anchor="middle" x="147.4767" y="-406.1503" font-family="Times,serif" font-size="14.00" fill="#000000">(ToNumber)</text>
</a>
</g>
</g>
<!-- /prime/args&#45;&gt;/prime/to_number -->
<g id="edge3" class="edge">
<title>/prime/args:e&#45;&gt;/prime/to_number:w</title>
<path fill="none" stroke="#000000" d="M75.4767,-508.0904C111.0796,-508.0904 52.3904,-437.3714 65.8936,-420.7966"/>
<polygon fill="#000000" stroke="#000000" points="67.2511,-424.0279 75.4767,-417.3503 64.8822,-417.4409 67.2511,-424.0279"/>
<text text-anchor="middle" x="65.4748" y="-466.5162" font-family="Times,serif" font-size="14.00" fill="#000000">[1]</text>
</g>
<!-- /prime/candidates -->
<g id="node3" class="node">
<title>/prime/candidates</title>
<g id="a_node3"><a xlink:href="../../flowstdlib/math/sequence.dot.svg" xlink:title="candidates">
<ellipse fill="#7fffd4" stroke="#000000" cx="219.4767" cy="-281.4802" rx="72" ry="72"/>
<text text-anchor="middle" x="219.4767" y="-277.7802" font-family="Times,serif" font-size="14.00" fill="#000000">candidates</text>
</a>
</g>
</g>
<!-- /prime/to_number&#45;&gt;/prime/candidates -->
<g id="edge4" class="edge">
<title>/prime/to_number:e&#45;&gt;/prime/candidates:n</title>
<path fill="none" stroke="#000000" d="M219.4767,-417.3503C244.5368,-417.3503 225.3501,-389.696 220.5091,-363.6838"/>
<polygon fill="#000000" stroke="#000000" points="223.9657,-363.0771 219.4767,-353.4802 217.0012,-363.7818 223.9657,-363.0771"/>
<text text-anchor="middle" x="205.9767" y="-357.2802" font-family="Times,serif" font-size="14.00" fill="#000000">end</text>
</g>
<!-- /prime/all&#45;numbers -->
<g id="node4" class="node">
<title>/prime/all&#45;numbers</title>
<g id="a_node4"><a xlink:href="../../flowstdlib/data/accumulate/accumulate.toml" xlink:title="all&#45;numbers\n(Accumulate)">
<ellipse fill="#ff7f50" stroke="#000000" cx="327.4767" cy="-131.6102" rx="77.5641" ry="26.7407"/>
<text text-anchor="middle" x="327.4767" y="-135.4102" font-family="Times,serif" font-size="14.00" fill="#000000">all&#45;numbers</text>
<text text-anchor="middle" x="327.4767" y="-120.4102" font-family="Times,serif" font-size="14.00" fill="#000000">(Accumulate)</text>
</a>
</g>
</g>
<!-- /prime/to_number&#45;&gt;/prime/all&#45;numbers -->
<g id="edge6" class="edge">
<title>/prime/to_number:e&#45;&gt;/prime/all&#45;numbers:n</title>
<path fill="none" stroke="#000000" d="M219.4767,-417.3503C231.4189,-417.3503 225.9327,-400.527 219.4767,-390.4802 198.0806,-357.1841 159.8727,-386.7763 138.4767,-353.4802 103.878,-299.6385 103.2452,-262.9101 138.4767,-209.4802 158.9729,-178.3969 179.7159,-186.8456 215.4767,-176.4802 236.189,-170.4767 303.4284,-180.02 322.4322,-167.1223"/>
<polygon fill="#000000" stroke="#000000" points="325.4582,-168.881 327.4767,-158.4802 319.4127,-165.3522 325.4582,-168.881"/>
<text text-anchor="middle" x="288.4767" y="-162.2802" font-family="Times,serif" font-size="14.00" fill="#000000">chunk_size</text>
</g>
<!-- /prime/composites -->
<g id="node6" class="node">
<title>/prime/composites</title>
<g id="a_node6"><a xlink:href="composites.dot.svg" xlink:title="composites">
<ellipse fill="#7fffd4" stroke="#000000" cx="705.4767" cy="-281.4802" rx="72" ry="72"/>
<text text-anchor="middle" x="705.4767" y="-277.7802" font-family="Times,serif" font-size="14.00" fill="#000000">composites</text>
</a>
</g>
</g>
<!-- /prime/to_number&#45;&gt;/prime/composites -->
<g id="edge9" class="edge">
<title>/prime/to_number:e&#45;&gt;/prime/composites:n</title>
<path fill="none" stroke="#000000" d="M219.4767,-417.3503C270.7497,-417.3503 656.2006,-409.0145 701.1946,-362.5971"/>
<polygon fill="#000000" stroke="#000000" points="704.3933,-364.0195 705.4767,-353.4802 698.0574,-361.0436 704.3933,-364.0195"/>
<text text-anchor="middle" x="688.4767" y="-357.2802" font-family="Times,serif" font-size="14.00" fill="#000000">limit</text>
</g>
<!-- /prime/candidates&#45;&gt;/prime/all&#45;numbers -->
<g id="edge5" class="edge">
<title>/prime/candidates:s&#45;&gt;/prime/all&#45;numbers:w</title>
<path fill="none" stroke="#000000" d="M219.4767,-209.4802C219.4767,-176.1586 213.7549,-139.8558 239.4896,-132.8256"/>
<polygon fill="#000000" stroke="#000000" points="239.9727,-136.2927 249.4767,-131.6102 239.127,-129.3439 239.9727,-136.2927"/>
<text text-anchor="middle" x="186.3352" y="-165.0729" font-family="Times,serif" font-size="14.00" fill="#000000">sequence</text>
<text text-anchor="middle" x="226.4767" y="-135.4102" font-family="Times,serif" font-size="14.00" fill="#000000">values</text>
</g>
<!-- /prime/all&#45;numbers&#45;&gt;/prime/all&#45;numbers -->
<g id="edge7" class="edge">
<title>/prime/all&#45;numbers:s&#45;&gt;/prime/all&#45;numbers:n</title>
<path fill="none" stroke="#000000" d="M327.4767,-104.6102C359.4039,-98.1102 423.2584,-98.1102 423.2584,-131.6102 423.2584,-161.8387 371.2665,-164.7907 337.6546,-160.3034"/>
<polygon fill="#000000" stroke="#000000" points="337.9155,-156.7987 327.4767,-158.6102 336.7667,-163.7038 337.9155,-156.7987"/>
<text text-anchor="middle" x="366.5" y="-93.4054" font-family="Times,serif" font-size="14.00" fill="#000000">chunk_size</text>
<text text-anchor="middle" x="366.4767" y="-162.4102" font-family="Times,serif" font-size="14.00" fill="#000000">chunk_size</text>
</g>
<!-- /prime/all&#45;numbers&#45;&gt;/prime/all&#45;numbers -->
<g id="edge8" class="edge">
<title>/prime/all&#45;numbers:s&#45;&gt;/prime/all&#45;numbers:n</title>
<path fill="none" stroke="#000000" d="M327.4767,-104.6102C365.4039,-91.6102 441.2584,-91.6102 441.2584,-131.6102 441.2584,-168.407 377.0661,-171.3537 337.2593,-161.4693"/>
<polygon fill="#000000" stroke="#000000" points="338.057,-158.0561 327.4767,-158.6102 336.0933,-164.775 338.057,-158.0561"/>
<text text-anchor="middle" x="303.4906" y="-93.4054" font-family="Times,serif" font-size="14.00" fill="#000000">partial</text>
<text text-anchor="middle" x="303.4767" y="-162.4102" font-family="Times,serif" font-size="14.00" fill="#000000">partial</text>
</g>
<!-- /prime/subtract -->
<g id="node7" class="node">
<title>/prime/subtract</title>
<g id="a_node7"><a xlink:href="../../flowstdlib/data/remove/remove.toml" xlink:title="subtract\n(Remove)">
<ellipse fill="#ff7f50" stroke="#000000" cx="481.4767" cy="-26.8701" rx="59.2941" ry="26.7407"/>
<text text-anchor="middle" x="481.4767" y="-30.6701" font-family="Times,serif" font-size="14.00" fill="#000000">subtract</text>
<text text-anchor="middle" x="481.4767" y="-15.6701" font-family="Times,serif" font-size="14.00" fill="#000000">(Remove)</text>
</a>
</g>
</g>
<!-- /prime/all&#45;numbers&#45;&gt;/prime/subtract -->
<g id="edge10" class="edge">
<title>/prime/all&#45;numbers:se&#45;&gt;/prime/subtract:nw</title>
<path fill="none" stroke="#000000" d="M352.4767,-106.6102C386.8147,-72.2721 415.271,-86.3921 448.7819,-58.8685"/>
<polygon fill="#000000" stroke="#000000" points="451.4337,-61.1878 456.4767,-51.8701 446.7238,-56.0092 451.4337,-61.1878"/>
<text text-anchor="middle" x="383.0933" y="-68.0091" font-family="Times,serif" font-size="14.00" fill="#000000">chunk</text>
<text text-anchor="middle" x="436.9767" y="-55.6701" font-family="Times,serif" font-size="14.00" fill="#000000">array</text>
</g>
<!-- initializer/prime/all&#45;numbers_1 -->
<!-- initializer/prime/all&#45;numbers_1&#45;&gt;/prime/all&#45;numbers -->
<g id="edge1" class="edge">
<title>initializer/prime/all&#45;numbers_1&#45;&gt;/prime/all&#45;numbers:n</title>
<path fill="none" stroke="#0000ff" stroke-dasharray="1,5" d="M420.1322,-264.1456C383.2476,-246.1188 334.6686,-214.1379 328.1993,-168.6995"/>
<polygon fill="#0000ff" stroke="#0000ff" points="331.6734,-168.2084 327.4767,-158.4802 324.6909,-168.7022 331.6734,-168.2084"/>
<text text-anchor="middle" x="340.9767" y="-180.2802" font-family="Times,serif" font-size="14.00" fill="#000000">[]</text>
</g>
<!-- /prime/composites&#45;&gt;/prime/subtract -->
<g id="edge11" class="edge">
<title>/prime/composites:s&#45;&gt;/prime/subtract:n</title>
<path fill="none" stroke="#000000" d="M705.4767,-209.4802C705.4767,-115.5919 564.6946,-226.9716 500.4767,-158.4802 470.5186,-126.5285 479.7454,-104.5165 481.28,-63.8858"/>
<polygon fill="#000000" stroke="#000000" points="484.7821,-63.8061 481.4767,-53.7401 477.7835,-63.6704 484.7821,-63.8061"/>
<text text-anchor="middle" x="459.9739" y="-162.2773" font-family="Times,serif" font-size="14.00" fill="#000000">composites</text>
<text text-anchor="middle" x="500.9767" y="-57.5401" font-family="Times,serif" font-size="14.00" fill="#000000">value</text>
</g>
<!-- /prime/print -->
<g id="node9" class="node">
<title>/prime/print</title>
<g id="a_node9"><a xlink:href="../../flowruntime/stdio/stdout.toml" xlink:title="print\n(Stdout)">
<ellipse fill="#ff7f50" stroke="#000000" cx="856.4767" cy="-131.6102" rx="53.066" ry="26.7407"/>
<text text-anchor="middle" x="856.4767" y="-135.4102" font-family="Times,serif" font-size="14.00" fill="#000000">print</text>
<text text-anchor="middle" x="856.4767" y="-120.4102" font-family="Times,serif" font-size="14.00" fill="#000000">(Stdout)</text>
</a>
</g>
</g>
<!-- /prime/composites&#45;&gt;/prime/print -->
<g id="edge13" class="edge">
<title>/prime/composites:s&#45;&gt;/prime/print:w</title>
<path fill="none" stroke="#000000" d="M705.4767,-209.4802C705.4767,-163.8905 765.5691,-193.7332 794.4767,-158.4802 798.9687,-153.0022 797.2699,-145.1851 797.1652,-139.3937"/>
<polygon fill="#000000" stroke="#000000" points="799.8969,-141.5819 803.4767,-131.6102 794.4597,-137.1731 799.8969,-141.5819"/>
<text text-anchor="middle" x="715.4279" y="-181.5101" font-family="Times,serif" font-size="14.00" fill="#000000">composites</text>
</g>
<!-- /prime/subtract&#45;&gt;/prime/subtract -->
<g id="edge12" class="edge">
<title>/prime/subtract:e&#45;&gt;/prime/subtract:nw</title>
<path fill="none" stroke="#000000" d="M541.4767,-26.8701C558.8736,-44.4934 558.8736,-79.7401 498.9767,-79.7401 450.3104,-79.7401 441.1854,-68.2974 448.8059,-58.3547"/>
<polygon fill="#000000" stroke="#000000" points="451.0994,-60.9989 456.4767,-51.8701 446.5802,-55.6531 451.0994,-60.9989"/>
<text text-anchor="middle" x="475.9767" y="-55.6701" font-family="Times,serif" font-size="14.00" fill="#000000">array</text>
</g>
<!-- initializer/prime/subtract_0 -->
<!-- initializer/prime/subtract_0&#45;&gt;/prime/subtract -->
<g id="edge2" class="edge">
<title>initializer/prime/subtract_0&#45;&gt;/prime/subtract:n</title>
<path fill="none" stroke="#0000ff" stroke-dasharray="1,5" d="M600.7946,-114.5705C560.3266,-99.2188 505.5105,-76.8506 487.4897,-62.0419"/>
<polygon fill="#0000ff" stroke="#0000ff" points="490.1773,-59.7858 481.4767,-53.7401 484.5081,-63.892 490.1773,-59.7858"/>
<text text-anchor="middle" x="535.4767" y="-75.5401" font-family="Times,serif" font-size="14.00" fill="#000000">9</text>
</g>
</g>
</svg>
