<?xml version="1.0" encoding="UTF-8" standalone="no"?>
<!DOCTYPE svg PUBLIC "-//W3C//DTD SVG 1.1//EN"
 "http://www.w3.org/Graphics/SVG/1.1/DTD/svg11.dtd">
<!-- Generated by graphviz version 2.44.0 (20200408.0750)
 -->
<!-- Title: prime Pages: 1 -->
<svg width="653pt" height="829pt"
 viewBox="28.80 28.80 623.75 800.50" xmlns="http://www.w3.org/2000/svg" xmlns:xlink="http://www.w3.org/1999/xlink">
<g id="graph0" class="graph" transform="scale(1 1) rotate(0) translate(32.8 796.5)">
<title>prime</title>
<polygon fill="white" stroke="transparent" points="-4,4 -4,-767.7 590.95,-767.7 590.95,4 -4,4"/>
<text text-anchor="middle" x="293.48" y="-748.5" font-family="Times,serif" font-size="14.00">prime</text>
<!-- /prime/args -->
<g id="node1" class="node">
<title>/prime/args</title>
<g id="a_node1"><a xlink:href="../../flowruntime/args/get.html" xlink:title="args\n(Get)">
<ellipse fill="coral" stroke="black" cx="31.82" cy="-713.83" rx="31.64" ry="26.74"/>
<text text-anchor="middle" x="31.82" y="-717.63" font-family="Times,serif" font-size="14.00">args</text>
<text text-anchor="middle" x="31.82" y="-702.63" font-family="Times,serif" font-size="14.00">(Get)</text>
</a>
</g>
</g>
<!-- /prime/to_json -->
<g id="node2" class="node">
<title>/prime/to_json</title>
<g id="a_node2"><a xlink:href="../../flowstdlib/fmt/to_json/to_json.html" xlink:title="to_json\n(ToNumber)">
<ellipse fill="coral" stroke="black" cx="124.82" cy="-623.09" rx="60.62" ry="26.74"/>
<text text-anchor="middle" x="124.82" y="-626.89" font-family="Times,serif" font-size="14.00">to_json</text>
<text text-anchor="middle" x="124.82" y="-611.89" font-family="Times,serif" font-size="14.00">(ToNumber)</text>
</a>
</g>
</g>
<!-- /prime/args&#45;&gt;/prime/to_json -->
<g id="edge2" class="edge">
<title>/prime/args:e&#45;&gt;/prime/to_json:w</title>
<path fill="none" stroke="black" d="M64.82,-713.83C100.43,-713.83 40.17,-643.11 53.31,-626.54"/>
<polygon fill="black" stroke="black" points="54.61,-629.79 62.82,-623.09 52.23,-623.21 54.61,-629.79"/>
<text text-anchor="middle" x="55.82" y="-672.26" font-family="Times,serif" font-size="14.00">[1]</text>
</g>
<!-- /prime/candidates -->
<g id="node3" class="node">
<title>/prime/candidates</title>
<g id="a_node3"><a xlink:href="../../flowstdlib/math/sequence.dot.svg" xlink:title="candidates">
<ellipse fill="aquamarine" stroke="black" cx="185.82" cy="-487.22" rx="72" ry="72"/>
<text text-anchor="middle" x="185.82" y="-483.52" font-family="Times,serif" font-size="14.00">candidates</text>
</a>
</g>
</g>
<!-- /prime/to_json&#45;&gt;/prime/candidates -->
<g id="edge3" class="edge">
<title>/prime/to_json:e&#45;&gt;/prime/candidates:n</title>
<path fill="none" stroke="black" d="M186.82,-623.09C211.88,-623.09 191.91,-595.44 186.89,-569.42"/>
<polygon fill="black" stroke="black" points="190.34,-568.8 185.82,-559.22 183.38,-569.53 190.34,-568.8"/>
<text text-anchor="middle" x="175.82" y="-563.02" font-family="Times,serif" font-size="14.00">end</text>
</g>
<!-- /prime/all&#45;numbers -->
<g id="node4" class="node">
<title>/prime/all&#45;numbers</title>
<g id="a_node4"><a xlink:href="../../flowstdlib/data/accumulate/accumulate.html" xlink:title="all&#45;numbers\n(Accumulate)">
<ellipse fill="coral" stroke="black" cx="297.82" cy="-208.35" rx="65.11" ry="26.74"/>
<text text-anchor="middle" x="297.82" y="-212.15" font-family="Times,serif" font-size="14.00">all&#45;numbers</text>
<text text-anchor="middle" x="297.82" y="-197.15" font-family="Times,serif" font-size="14.00">(Accumulate)</text>
</a>
</g>
</g>
<!-- /prime/to_json&#45;&gt;/prime/all&#45;numbers -->
<g id="edge5" class="edge">
<title>/prime/to_json:e&#45;&gt;/prime/all&#45;numbers:n</title>
<path fill="none" stroke="black" d="M186.82,-623.09C198.77,-623.09 192.47,-606.15 185.82,-596.22 163.81,-563.33 126.22,-592.52 104.82,-559.22 70.22,-505.38 92.68,-478.06 104.82,-415.22 119.53,-339.05 108.75,-301.06 169.82,-253.22 189.43,-237.86 271.29,-257.21 292.68,-243.88"/>
<polygon fill="black" stroke="black" points="295.73,-245.61 297.82,-235.22 289.71,-242.04 295.73,-245.61"/>
<text text-anchor="middle" x="267.32" y="-239.02" font-family="Times,serif" font-size="14.00">chunk_size</text>
</g>
<!-- /prime/composites -->
<g id="node6" class="node">
<title>/prime/composites</title>
<g id="a_node6"><a xlink:href="composites.dot.svg" xlink:title="composites">
<ellipse fill="aquamarine" stroke="black" cx="505.82" cy="-325.22" rx="72" ry="72"/>
<text text-anchor="middle" x="505.82" y="-321.52" font-family="Times,serif" font-size="14.00">composites</text>
</a>
</g>
</g>
<!-- /prime/to_json&#45;&gt;/prime/composites -->
<g id="edge8" class="edge">
<title>/prime/to_json:e&#45;&gt;/prime/composites:n</title>
<path fill="none" stroke="black" d="M186.82,-623.09C264.13,-623.09 479.42,-618.7 528.82,-559.22 569.71,-509.99 556.85,-472.75 528.82,-415.22 525.27,-407.93 517.17,-407.79 511.6,-405.54"/>
<polygon fill="black" stroke="black" points="514.4,-403.44 505.82,-397.22 508.65,-407.43 514.4,-403.44"/>
<text text-anchor="middle" x="492.32" y="-401.02" font-family="Times,serif" font-size="14.00">limit</text>
</g>
<!-- /prime/candidates&#45;&gt;/prime/all&#45;numbers -->
<g id="edge4" class="edge">
<title>/prime/candidates:s&#45;&gt;/prime/all&#45;numbers:w</title>
<path fill="none" stroke="black" d="M185.82,-415.22C185.82,-324.71 141.32,-217.13 221.42,-208.86"/>
<polygon fill="black" stroke="black" points="222,-212.33 231.82,-208.35 221.66,-205.34 222,-212.33"/>
<text text-anchor="middle" x="148.58" y="-284.99" font-family="Times,serif" font-size="14.00">sequence</text>
<text text-anchor="middle" x="214.32" y="-212.15" font-family="Times,serif" font-size="14.00">values</text>
</g>
<!-- /prime/all&#45;numbers&#45;&gt;/prime/all&#45;numbers -->
<g id="edge6" class="edge">
<title>/prime/all&#45;numbers:s&#45;&gt;/prime/all&#45;numbers:n</title>
<path fill="none" stroke="black" d="M297.82,-181.35C325.5,-175.85 380.87,-175.85 380.87,-208.35 380.87,-237.3 336.95,-240.46 307.79,-236.92"/>
<polygon fill="black" stroke="black" points="308.24,-233.45 297.82,-235.35 307.15,-240.37 308.24,-233.45"/>
<text text-anchor="middle" x="328.36" y="-170.14" font-family="Times,serif" font-size="14.00">chunk_size</text>
<text text-anchor="middle" x="328.32" y="-239.15" font-family="Times,serif" font-size="14.00">chunk_size</text>
</g>
<!-- /prime/all&#45;numbers&#45;&gt;/prime/all&#45;numbers -->
<g id="edge7" class="edge">
<title>/prime/all&#45;numbers:s&#45;&gt;/prime/all&#45;numbers:n</title>
<path fill="none" stroke="black" d="M297.82,-181.35C331.5,-170.35 398.87,-170.35 398.87,-208.35 398.87,-242.94 343.07,-246.04 307.64,-238.03"/>
<polygon fill="black" stroke="black" points="308.39,-234.61 297.82,-235.35 306.55,-241.36 308.39,-234.61"/>
<text text-anchor="middle" x="280.34" y="-170.14" font-family="Times,serif" font-size="14.00">partial</text>
<text text-anchor="middle" x="280.32" y="-239.15" font-family="Times,serif" font-size="14.00">partial</text>
</g>
<!-- /prime/subtract -->
<g id="node7" class="node">
<title>/prime/subtract</title>
<g id="a_node7"><a xlink:href="../../flowstdlib/data/remove/remove.html" xlink:title="subtract\n(Remove)">
<ellipse fill="coral" stroke="black" cx="449.82" cy="-117.61" rx="50.41" ry="26.74"/>
<text text-anchor="middle" x="449.82" y="-121.41" font-family="Times,serif" font-size="14.00">subtract</text>
<text text-anchor="middle" x="449.82" y="-106.41" font-family="Times,serif" font-size="14.00">(Remove)</text>
</a>
</g>
</g>
<!-- /prime/all&#45;numbers&#45;&gt;/prime/subtract -->
<g id="edge9" class="edge">
<title>/prime/all&#45;numbers:se&#45;&gt;/prime/subtract:nw</title>
<path fill="none" stroke="black" d="M322.82,-182.35C354.94,-150.23 386.13,-173.26 418.11,-149.32"/>
<polygon fill="black" stroke="black" points="420.58,-151.82 425.82,-142.61 415.98,-146.54 420.58,-151.82"/>
<text text-anchor="middle" x="357.22" y="-151.29" font-family="Times,serif" font-size="14.00">chunk</text>
<text text-anchor="middle" x="411.82" y="-146.41" font-family="Times,serif" font-size="14.00">array</text>
</g>
<!-- initializer/prime/all&#45;numbers_1 -->
<!-- initializer/prime/all&#45;numbers_1&#45;&gt;/prime/all&#45;numbers -->
<g id="edge1" class="edge">
<title>initializer/prime/all&#45;numbers_1&#45;&gt;/prime/all&#45;numbers:n</title>
<path fill="none" stroke="blue" stroke-dasharray="1,5" d="M385.76,-469.21C360.12,-431.38 302.21,-336.47 298.06,-245.44"/>
<polygon fill="blue" stroke="blue" points="301.55,-245.14 297.82,-235.22 294.55,-245.3 301.55,-245.14"/>
<text text-anchor="middle" x="347.82" y="-321.52" font-family="Times,serif" font-size="14.00">[]</text>
</g>
<!-- /prime/composites&#45;&gt;/prime/subtract -->
<g id="edge10" class="edge">
<title>/prime/composites:s&#45;&gt;/prime/subtract:n</title>
<path fill="none" stroke="black" d="M505.82,-253.22C505.82,-202.47 457.01,-199.08 450.53,-154.62"/>
<polygon fill="black" stroke="black" points="454.01,-154.21 449.82,-144.48 447.02,-154.7 454.01,-154.21"/>
<text text-anchor="middle" x="446.85" y="-202.68" font-family="Times,serif" font-size="14.00">composites</text>
<text text-anchor="middle" x="464.82" y="-148.28" font-family="Times,serif" font-size="14.00">value</text>
</g>
<!-- /prime/subtract&#45;&gt;/prime/subtract -->
<g id="edge11" class="edge">
<title>/prime/subtract:e&#45;&gt;/prime/subtract:nw</title>
<path fill="none" stroke="black" d="M499.82,-117.61C518.02,-133.9 518.02,-166.48 462.82,-166.48 417.97,-166.48 409.56,-156.8 417.74,-147.69"/>
<polygon fill="black" stroke="black" points="419.94,-150.42 425.82,-141.61 415.73,-144.83 419.94,-150.42"/>
<text text-anchor="middle" x="439.82" y="-145.41" font-family="Times,serif" font-size="14.00">array</text>
</g>
<!-- /prime/print -->
<g id="node8" class="node">
<title>/prime/print</title>
<g id="a_node8"><a xlink:href="../../flowruntime/stdio/stdout.html" xlink:title="print\n(Stdout)">
<ellipse fill="coral" stroke="black" cx="543.82" cy="-26.87" rx="43.27" ry="26.74"/>
<text text-anchor="middle" x="543.82" y="-30.67" font-family="Times,serif" font-size="14.00">print</text>
<text text-anchor="middle" x="543.82" y="-15.67" font-family="Times,serif" font-size="14.00">(Stdout)</text>
</a>
</g>
</g>
<!-- /prime/subtract&#45;&gt;/prime/print -->
<g id="edge12" class="edge">
<title>/prime/subtract:e&#45;&gt;/prime/print:w</title>
<path fill="none" stroke="black" d="M500.82,-117.61C536.43,-117.61 476.17,-46.89 489.31,-30.32"/>
<polygon fill="black" stroke="black" points="490.61,-33.57 498.82,-26.87 488.23,-26.99 490.61,-33.57"/>
</g>
</g>
</svg>
