<?xml version="1.0" encoding="UTF-8" standalone="no"?>
<!DOCTYPE svg PUBLIC "-//W3C//DTD SVG 1.1//EN"
 "http://www.w3.org/Graphics/SVG/1.1/DTD/svg11.dtd">
<!-- Generated by graphviz version 2.44.0 (20200408.0750)
 -->
<!-- Title: prime Pages: 1 -->
<svg width="829pt" height="624pt"
 viewBox="28.80 28.80 799.75 594.76" xmlns="http://www.w3.org/2000/svg" xmlns:xlink="http://www.w3.org/1999/xlink">
<g id="graph0" class="graph" transform="scale(1 1) rotate(0) translate(32.8 590.76)">
<title>prime</title>
<polygon fill="white" stroke="transparent" points="-4,4 -4,-561.96 766.95,-561.96 766.95,4 -4,4"/>
<text text-anchor="middle" x="381.48" y="-542.76" font-family="Times,serif" font-size="14.00">prime</text>
<!-- /prime/args -->
<g id="node1" class="node">
<title>/prime/args</title>
<g id="a_node1"><a xlink:href="../../flowruntime/args/get.toml" xlink:title="args\n(Get)">
<ellipse fill="coral" stroke="black" cx="31.82" cy="-508.09" rx="31.64" ry="26.74"/>
<text text-anchor="middle" x="31.82" y="-511.89" font-family="Times,serif" font-size="14.00">args</text>
<text text-anchor="middle" x="31.82" y="-496.89" font-family="Times,serif" font-size="14.00">(Get)</text>
</a>
</g>
</g>
<!-- /prime/to_number -->
<g id="node2" class="node">
<title>/prime/to_number</title>
<g id="a_node2"><a xlink:href="../../flowstdlib/fmt/to_number/to_number.toml" xlink:title="to_number\n(ToNumber)">
<ellipse fill="coral" stroke="black" cx="124.82" cy="-417.35" rx="60.62" ry="26.74"/>
<text text-anchor="middle" x="124.82" y="-421.15" font-family="Times,serif" font-size="14.00">to_number</text>
<text text-anchor="middle" x="124.82" y="-406.15" font-family="Times,serif" font-size="14.00">(ToNumber)</text>
</a>
</g>
</g>
<!-- /prime/args&#45;&gt;/prime/to_number -->
<g id="edge3" class="edge">
<title>/prime/args:e&#45;&gt;/prime/to_number:w</title>
<path fill="none" stroke="black" d="M64.82,-508.09C100.43,-508.09 40.17,-437.37 53.31,-420.8"/>
<polygon fill="black" stroke="black" points="54.61,-424.05 62.82,-417.35 52.23,-417.47 54.61,-424.05"/>
<text text-anchor="middle" x="55.82" y="-466.52" font-family="Times,serif" font-size="14.00">[1]</text>
</g>
<!-- /prime/candidates -->
<g id="node3" class="node">
<title>/prime/candidates</title>
<g id="a_node3"><a xlink:href="../../flowstdlib/math/sequence.dot.svg" xlink:title="candidates">
<ellipse fill="aquamarine" stroke="black" cx="185.82" cy="-281.48" rx="72" ry="72"/>
<text text-anchor="middle" x="185.82" y="-277.78" font-family="Times,serif" font-size="14.00">candidates</text>
</a>
</g>
</g>
<!-- /prime/to_number&#45;&gt;/prime/candidates -->
<g id="edge4" class="edge">
<title>/prime/to_number:e&#45;&gt;/prime/candidates:n</title>
<path fill="none" stroke="black" d="M186.82,-417.35C211.88,-417.35 191.91,-389.7 186.89,-363.68"/>
<polygon fill="black" stroke="black" points="190.34,-363.06 185.82,-353.48 183.38,-363.79 190.34,-363.06"/>
<text text-anchor="middle" x="175.82" y="-357.28" font-family="Times,serif" font-size="14.00">end</text>
</g>
<!-- /prime/all&#45;numbers -->
<g id="node4" class="node">
<title>/prime/all&#45;numbers</title>
<g id="a_node4"><a xlink:href="../../flowstdlib/data/accumulate/accumulate.toml" xlink:title="all&#45;numbers\n(Accumulate)">
<ellipse fill="coral" stroke="black" cx="276.82" cy="-131.61" rx="65.11" ry="26.74"/>
<text text-anchor="middle" x="276.82" y="-135.41" font-family="Times,serif" font-size="14.00">all&#45;numbers</text>
<text text-anchor="middle" x="276.82" y="-120.41" font-family="Times,serif" font-size="14.00">(Accumulate)</text>
</a>
</g>
</g>
<!-- /prime/to_number&#45;&gt;/prime/all&#45;numbers -->
<g id="edge6" class="edge">
<title>/prime/to_number:e&#45;&gt;/prime/all&#45;numbers:n</title>
<path fill="none" stroke="black" d="M186.82,-417.35C198.77,-417.35 192.47,-400.41 185.82,-390.48 163.81,-357.59 126.22,-386.78 104.82,-353.48 70.22,-299.64 69.72,-262.99 104.82,-209.48 125.02,-178.69 145.61,-187.27 180.82,-176.48 198.09,-171.19 253.08,-177.27 271.07,-166.96"/>
<polygon fill="black" stroke="black" points="274.1,-168.72 276.82,-158.48 268.31,-164.79 274.1,-168.72"/>
<text text-anchor="middle" x="246.32" y="-162.28" font-family="Times,serif" font-size="14.00">chunk_size</text>
</g>
<!-- /prime/composites -->
<g id="node6" class="node">
<title>/prime/composites</title>
<g id="a_node6"><a xlink:href="composites.dot.svg" xlink:title="composites">
<ellipse fill="aquamarine" stroke="black" cx="609.82" cy="-281.48" rx="72" ry="72"/>
<text text-anchor="middle" x="609.82" y="-277.78" font-family="Times,serif" font-size="14.00">composites</text>
</a>
</g>
</g>
<!-- /prime/to_number&#45;&gt;/prime/composites -->
<g id="edge9" class="edge">
<title>/prime/to_number:e&#45;&gt;/prime/composites:n</title>
<path fill="none" stroke="black" d="M186.82,-417.35C231.2,-417.35 561.4,-403.11 605.06,-362.54"/>
<polygon fill="black" stroke="black" points="608.27,-363.96 609.82,-353.48 602.07,-360.7 608.27,-363.96"/>
<text text-anchor="middle" x="596.32" y="-357.28" font-family="Times,serif" font-size="14.00">limit</text>
</g>
<!-- /prime/candidates&#45;&gt;/prime/all&#45;numbers -->
<g id="edge5" class="edge">
<title>/prime/candidates:s&#45;&gt;/prime/all&#45;numbers:w</title>
<path fill="none" stroke="black" d="M185.82,-209.48C185.82,-176.97 176.74,-140.31 200.84,-132.94"/>
<polygon fill="black" stroke="black" points="201.37,-136.4 210.82,-131.61 200.44,-129.46 201.37,-136.4"/>
<text text-anchor="middle" x="159.29" y="-165.56" font-family="Times,serif" font-size="14.00">sequence</text>
<text text-anchor="middle" x="193.32" y="-135.41" font-family="Times,serif" font-size="14.00">values</text>
</g>
<!-- /prime/all&#45;numbers&#45;&gt;/prime/all&#45;numbers -->
<g id="edge7" class="edge">
<title>/prime/all&#45;numbers:s&#45;&gt;/prime/all&#45;numbers:n</title>
<path fill="none" stroke="black" d="M276.82,-104.61C304.5,-98.11 359.87,-98.11 359.87,-131.61 359.87,-161.45 315.95,-164.71 286.79,-160.47"/>
<polygon fill="black" stroke="black" points="287.29,-157.01 276.82,-158.61 286.01,-163.89 287.29,-157.01"/>
<text text-anchor="middle" x="307.34" y="-93.41" font-family="Times,serif" font-size="14.00">chunk_size</text>
<text text-anchor="middle" x="307.32" y="-162.41" font-family="Times,serif" font-size="14.00">chunk_size</text>
</g>
<!-- /prime/all&#45;numbers&#45;&gt;/prime/all&#45;numbers -->
<g id="edge8" class="edge">
<title>/prime/all&#45;numbers:s&#45;&gt;/prime/all&#45;numbers:n</title>
<path fill="none" stroke="black" d="M276.82,-104.61C310.5,-91.61 377.87,-91.61 377.87,-131.61 377.87,-168.02 322.07,-171.29 286.64,-161.78"/>
<polygon fill="black" stroke="black" points="287.41,-158.35 276.82,-158.61 285.26,-165.01 287.41,-158.35"/>
<text text-anchor="middle" x="259.33" y="-93.41" font-family="Times,serif" font-size="14.00">partial</text>
<text text-anchor="middle" x="259.32" y="-162.41" font-family="Times,serif" font-size="14.00">partial</text>
</g>
<!-- /prime/subtract -->
<g id="node7" class="node">
<title>/prime/subtract</title>
<g id="a_node7"><a xlink:href="../../flowstdlib/data/remove/remove.toml" xlink:title="subtract\n(Remove)">
<ellipse fill="coral" stroke="black" cx="416.82" cy="-26.87" rx="50.41" ry="26.74"/>
<text text-anchor="middle" x="416.82" y="-30.67" font-family="Times,serif" font-size="14.00">subtract</text>
<text text-anchor="middle" x="416.82" y="-15.67" font-family="Times,serif" font-size="14.00">(Remove)</text>
</a>
</g>
</g>
<!-- /prime/all&#45;numbers&#45;&gt;/prime/subtract -->
<g id="edge10" class="edge">
<title>/prime/all&#45;numbers:se&#45;&gt;/prime/subtract:nw</title>
<path fill="none" stroke="black" d="M301.82,-105.61C332.44,-74.99 355.71,-83.38 385.19,-58.86"/>
<polygon fill="black" stroke="black" points="387.81,-61.2 392.82,-51.87 383.08,-56.04 387.81,-61.2"/>
<text text-anchor="middle" x="330.06" y="-67.63" font-family="Times,serif" font-size="14.00">chunk</text>
<text text-anchor="middle" x="378.82" y="-55.67" font-family="Times,serif" font-size="14.00">array</text>
</g>
<!-- initializer/prime/all&#45;numbers_1 -->
<!-- initializer/prime/all&#45;numbers_1&#45;&gt;/prime/all&#45;numbers -->
<g id="edge1" class="edge">
<title>initializer/prime/all&#45;numbers_1&#45;&gt;/prime/all&#45;numbers:n</title>
<path fill="none" stroke="blue" stroke-dasharray="1,5" d="M363.47,-264.21C330.21,-245.98 283.9,-213.06 277.55,-168.73"/>
<polygon fill="blue" stroke="blue" points="281.02,-168.21 276.82,-158.48 274.04,-168.7 281.02,-168.21"/>
<text text-anchor="middle" x="288.82" y="-180.28" font-family="Times,serif" font-size="14.00">[]</text>
</g>
<!-- /prime/composites&#45;&gt;/prime/subtract -->
<g id="edge11" class="edge">
<title>/prime/composites:s&#45;&gt;/prime/subtract:n</title>
<path fill="none" stroke="black" d="M609.82,-209.48C609.82,-128.89 489.71,-218.39 435.82,-158.48 406.53,-125.92 415.19,-104.43 416.63,-63.88"/>
<polygon fill="black" stroke="black" points="420.14,-63.8 416.82,-53.74 413.14,-63.67 420.14,-63.8"/>
<text text-anchor="middle" x="404.82" y="-162.28" font-family="Times,serif" font-size="14.00">composites</text>
<text text-anchor="middle" x="431.82" y="-57.54" font-family="Times,serif" font-size="14.00">value</text>
</g>
<!-- /prime/print -->
<g id="node9" class="node">
<title>/prime/print</title>
<g id="a_node9"><a xlink:href="../../flowruntime/stdio/stdout.toml" xlink:title="print\n(Stdout)">
<ellipse fill="coral" stroke="black" cx="719.82" cy="-131.61" rx="43.27" ry="26.74"/>
<text text-anchor="middle" x="719.82" y="-135.41" font-family="Times,serif" font-size="14.00">print</text>
<text text-anchor="middle" x="719.82" y="-120.41" font-family="Times,serif" font-size="14.00">(Stdout)</text>
</a>
</g>
</g>
<!-- /prime/composites&#45;&gt;/prime/print -->
<g id="edge13" class="edge">
<title>/prime/composites:s&#45;&gt;/prime/print:w</title>
<path fill="none" stroke="black" d="M609.82,-209.48C609.82,-175.15 649.81,-187.7 667.82,-158.48 671.26,-152.9 669.54,-145.66 669.02,-140.11"/>
<polygon fill="black" stroke="black" points="672.07,-141.84 674.82,-131.61 666.29,-137.89 672.07,-141.84"/>
<text text-anchor="middle" x="614.18" y="-180.69" font-family="Times,serif" font-size="14.00">composites</text>
</g>
<!-- /prime/subtract&#45;&gt;/prime/subtract -->
<g id="edge12" class="edge">
<title>/prime/subtract:e&#45;&gt;/prime/subtract:nw</title>
<path fill="none" stroke="black" d="M466.82,-26.87C485.02,-44.49 485.02,-79.74 429.82,-79.74 384.53,-79.74 376.4,-68.08 384.98,-57.52"/>
<polygon fill="black" stroke="black" points="387.46,-60.01 392.82,-50.87 382.93,-54.67 387.46,-60.01"/>
<text text-anchor="middle" x="406.82" y="-54.67" font-family="Times,serif" font-size="14.00">array</text>
</g>
<!-- initializer/prime/subtract_0 -->
<!-- initializer/prime/subtract_0&#45;&gt;/prime/subtract -->
<g id="edge2" class="edge">
<title>initializer/prime/subtract_0&#45;&gt;/prime/subtract:n</title>
<path fill="none" stroke="blue" stroke-dasharray="1,5" d="M516.7,-114.46C484.2,-99.07 438.58,-76.19 422.61,-61.99"/>
<polygon fill="blue" stroke="blue" points="425.43,-59.91 416.82,-53.74 419.7,-63.94 425.43,-59.91"/>
<text text-anchor="middle" x="463.32" y="-75.54" font-family="Times,serif" font-size="14.00">9</text>
</g>
</g>
</svg>
