<?xml version="1.0" encoding="UTF-8" standalone="no"?>
<!DOCTYPE svg PUBLIC "-//W3C//DTD SVG 1.1//EN"
 "http://www.w3.org/Graphics/SVG/1.1/DTD/svg11.dtd">
<!-- Generated by graphviz version 2.42.3 (20191010.1750)
 -->
<!-- Title: divisors Pages: 1 -->
<svg width="944pt" height="433pt"
 viewBox="28.80 28.80 915.19 404.62" xmlns="http://www.w3.org/2000/svg" xmlns:xlink="http://www.w3.org/1999/xlink">
<g id="graph0" class="graph" transform="scale(1 1) rotate(0) translate(32.8 400.62)">
<title>divisors</title>
<polygon fill="white" stroke="transparent" points="-4,4 -4,-371.82 882.39,-371.82 882.39,4 -4,4"/>
<text text-anchor="middle" x="439.19" y="-352.62" font-family="Times,serif" font-size="14.00">divisors</text>
<!-- /prime/composites/divisors/start -->
<g id="node1" class="node">
<title>/prime/composites/divisors/start</title>
<polygon fill="white" stroke="black" points="452.98,-333.39 421.86,-345.82 390.73,-333.39 390.76,-313.26 452.95,-313.26 452.98,-333.39"/>
<text text-anchor="middle" x="421.86" y="-323.62" font-family="Times,serif" font-size="14.00">start</text>
</g>
<!-- /prime/composites/divisors/compare -->
<g id="node6" class="node">
<title>/prime/composites/divisors/compare</title>
<ellipse fill="coral" stroke="black" cx="474.86" cy="-180.37" rx="81.89" ry="25.41"/>
<text text-anchor="middle" x="474.86" y="-183.17" font-family="Times,serif" font-size="14.00">compare</text>
<text text-anchor="middle" x="474.86" y="-169.17" font-family="Times,serif" font-size="14.00">(CompareSwitch)</text>
</g>
<!-- /prime/composites/divisors/start&#45;&gt;/prime/composites/divisors/compare -->
<g id="edge3" class="edge">
<title>/prime/composites/divisors/start:s&#45;&gt;/prime/composites/divisors/compare:ne</title>
<path fill="none" stroke="black" d="M421.86,-311.82C421.86,-257.44 525.02,-248.31 506.29,-214.06"/>
<polygon fill="black" stroke="black" points="508.77,-211.54 499.86,-205.82 503.26,-215.86 508.77,-211.54"/>
<text text-anchor="middle" x="486.64" y="-208.62" font-family="Times,serif" font-size="14.00">right</text>
</g>
<!-- /prime/composites/divisors/end -->
<g id="node2" class="node">
<title>/prime/composites/divisors/end</title>
<polygon fill="white" stroke="black" points="527.91,-333.39 499.86,-345.82 471.8,-333.39 471.83,-313.26 527.88,-313.26 527.91,-333.39"/>
<text text-anchor="middle" x="499.86" y="-323.62" font-family="Times,serif" font-size="14.00">end</text>
</g>
<!-- /prime/composites/divisors/end&#45;&gt;/prime/composites/divisors/compare -->
<g id="edge4" class="edge">
<title>/prime/composites/divisors/end:s&#45;&gt;/prime/composites/divisors/compare:ne</title>
<path fill="none" stroke="black" d="M499.86,-311.82C499.86,-268.39 528.17,-243.26 506.49,-213.5"/>
<polygon fill="black" stroke="black" points="509.04,-211.1 499.86,-205.82 503.75,-215.68 509.04,-211.1"/>
<text text-anchor="middle" x="509.18" y="-208.62" font-family="Times,serif" font-size="14.00">left</text>
</g>
<!-- /prime/composites/divisors/step -->
<g id="node3" class="node">
<title>/prime/composites/divisors/step</title>
<polygon fill="white" stroke="black" points="373.06,-333.39 342.86,-345.82 312.65,-333.39 312.68,-313.26 373.03,-313.26 373.06,-333.39"/>
<text text-anchor="middle" x="342.86" y="-323.62" font-family="Times,serif" font-size="14.00">step</text>
</g>
<!-- /prime/composites/divisors/add -->
<g id="node8" class="node">
<title>/prime/composites/divisors/add</title>
<ellipse fill="coral" stroke="black" cx="377.86" cy="-79.46" rx="34.91" ry="25.41"/>
<text text-anchor="middle" x="377.86" y="-82.26" font-family="Times,serif" font-size="14.00">add</text>
<text text-anchor="middle" x="377.86" y="-68.26" font-family="Times,serif" font-size="14.00">(Add)</text>
</g>
<!-- /prime/composites/divisors/step&#45;&gt;/prime/composites/divisors/add -->
<g id="edge5" class="edge">
<title>/prime/composites/divisors/step:s&#45;&gt;/prime/composites/divisors/add:w</title>
<path fill="none" stroke="black" d="M342.86,-311.82C342.86,-288.93 321.77,-123.93 334.99,-86.84"/>
<polygon fill="black" stroke="black" points="337.62,-89.16 341.86,-79.46 332.49,-84.4 337.62,-89.16"/>
<text text-anchor="middle" x="336.41" y="-82.26" font-family="Times,serif" font-size="14.00">i2</text>
</g>
<!-- /prime/composites/divisors/sequence -->
<g id="node4" class="node">
<title>/prime/composites/divisors/sequence</title>
<polygon fill="black" stroke="black" points="354.26,-12.44 406.86,0 459.46,-12.44 459.41,-32.56 354.31,-32.56 354.26,-12.44"/>
<text text-anchor="middle" x="406.86" y="-13.8" font-family="Times,serif" font-size="14.00" fill="white">sequence</text>
</g>
<!-- /prime/composites/divisors/last -->
<g id="node5" class="node">
<title>/prime/composites/divisors/last</title>
<polygon fill="black" stroke="black" points="477.01,-12.44 504.86,0 532.7,-12.44 532.68,-32.56 477.04,-32.56 477.01,-12.44"/>
<text text-anchor="middle" x="504.86" y="-13.8" font-family="Times,serif" font-size="14.00" fill="white">last</text>
</g>
<!-- /prime/composites/divisors/compare&#45;&gt;/prime/composites/divisors/sequence -->
<g id="edge7" class="edge">
<title>/prime/composites/divisors/compare:s&#45;&gt;/prime/composites/divisors/sequence:n</title>
<path fill="none" stroke="black" d="M474.86,-154.91C474.86,-129.58 435.39,-75.41 421.86,-54 418.43,-48.57 413.95,-46.45 410.78,-43.48"/>
<polygon fill="black" stroke="black" points="413.92,-41.9 406.86,-34 407.45,-44.58 413.92,-41.9"/>
<text text-anchor="middle" x="468.8" y="-80.1" font-family="Times,serif" font-size="14.00">right&#45;lte</text>
</g>
<!-- /prime/composites/divisors/compare&#45;&gt;/prime/composites/divisors/last -->
<g id="edge11" class="edge">
<title>/prime/composites/divisors/compare:s&#45;&gt;/prime/composites/divisors/last:n</title>
<path fill="none" stroke="black" d="M474.86,-154.91C474.86,-103.11 501.11,-90.87 504.5,-44.17"/>
<polygon fill="black" stroke="black" points="508,-44.12 504.86,-34 501.01,-43.87 508,-44.12"/>
<text text-anchor="middle" x="465.78" y="-97.19" font-family="Times,serif" font-size="14.00">right&#45;gte</text>
</g>
<!-- /prime/composites/divisors/compare&#45;&gt;/prime/composites/divisors/compare -->
<g id="edge8" class="edge">
<title>/prime/composites/divisors/compare:s&#45;&gt;/prime/composites/divisors/compare:ne</title>
<path fill="none" stroke="black" d="M474.86,-154.37C508.09,-141.87 574.55,-141.87 574.55,-179.87 574.55,-214.31 540.5,-217.53 509.38,-208.53"/>
<polygon fill="black" stroke="black" points="510.45,-205.2 499.86,-205.37 508.24,-211.84 510.45,-205.2"/>
<text text-anchor="middle" x="461.79" y="-141.76" font-family="Times,serif" font-size="14.00">left&#45;gt</text>
<text text-anchor="middle" x="490.53" y="-208.17" font-family="Times,serif" font-size="14.00">left</text>
</g>
<!-- /prime/composites/divisors/compare&#45;&gt;/prime/composites/divisors/add -->
<g id="edge9" class="edge">
<title>/prime/composites/divisors/compare:sw&#45;&gt;/prime/composites/divisors/add:ne</title>
<path fill="none" stroke="black" d="M449.86,-154.91C439.66,-144.71 433.09,-147.07 422.86,-136.91 412.1,-126.23 411.79,-118.6 405.3,-109.13"/>
<polygon fill="black" stroke="black" points="407.97,-106.87 398.86,-101.46 402.6,-111.37 407.97,-106.87"/>
<text text-anchor="middle" x="399.45" y="-135.37" font-family="Times,serif" font-size="14.00">right&#45;lt</text>
<text text-anchor="middle" x="393.41" y="-104.26" font-family="Times,serif" font-size="14.00">i1</text>
</g>
<!-- initializer/prime/composites/divisors/compare_1 -->
<!-- initializer/prime/composites/divisors/compare_1&#45;&gt;/prime/composites/divisors/compare -->
<g id="edge1" class="edge">
<title>initializer/prime/composites/divisors/compare_1&#45;&gt;/prime/composites/divisors/compare:ne</title>
<path fill="none" stroke="blue" stroke-dasharray="1,5" d="M600.6,-258.52C568.2,-249.75 533.65,-235.62 507.38,-212.83"/>
<polygon fill="blue" stroke="blue" points="509.56,-210.07 499.86,-205.82 504.79,-215.2 509.56,-210.07"/>
<text text-anchor="middle" x="544.36" y="-226.62" font-family="Times,serif" font-size="14.00">2</text>
</g>
<!-- /prime/composites/divisors/add&#45;&gt;/prime/composites/divisors/compare -->
<g id="edge10" class="edge">
<title>/prime/composites/divisors/add:sw&#45;&gt;/prime/composites/divisors/compare:ne</title>
<path fill="none" stroke="black" d="M356.86,-57.46C352.46,-53.06 347.14,-53.9 342.9,-58.46 328.83,-73.57 329.83,-88.93 342.9,-104.91 368.44,-136.13 392.54,-113.9 431.86,-122.91 487.62,-135.7 521.48,-109.71 556.55,-154.91 570.3,-172.63 572.27,-189.37 556.55,-205.37 549.58,-212.46 523.86,-214.53 508.94,-210.71"/>
<polygon fill="black" stroke="black" points="510.39,-207.52 499.86,-206.37 507.37,-213.84 510.39,-207.52"/>
<text text-anchor="middle" x="420.27" y="-111.73" font-family="Times,serif" font-size="14.00">sum</text>
<text text-anchor="middle" x="513.08" y="-209.17" font-family="Times,serif" font-size="14.00">right</text>
</g>
<!-- /prime/composites/divisors/add&#45;&gt;/prime/composites/divisors/add -->
<g id="edge6" class="edge">
<title>/prime/composites/divisors/add:e&#45;&gt;/prime/composites/divisors/add:w</title>
<path fill="none" stroke="black" d="M412.86,-79.46C430.81,-96.27 430.81,-129.91 377.86,-129.91 332.35,-129.91 325.95,-105.07 336.44,-87.41"/>
<polygon fill="black" stroke="black" points="339.3,-89.44 342.86,-79.46 333.86,-85.04 339.3,-89.44"/>
<text text-anchor="middle" x="418.31" y="-82.26" font-family="Times,serif" font-size="14.00">i2</text>
<text text-anchor="middle" x="337.41" y="-68.26" font-family="Times,serif" font-size="14.00">i2</text>
</g>
<!-- initializer/prime/composites/divisors/add_1 -->
<!-- initializer/prime/composites/divisors/add_1&#45;&gt;/prime/composites/divisors/add -->
<g id="edge2" class="edge">
<title>initializer/prime/composites/divisors/add_1&#45;&gt;/prime/composites/divisors/add:w</title>
<path fill="none" stroke="blue" stroke-dasharray="1,5" d="M180.29,-162.42C208.28,-135.36 268.36,-84.92 331.67,-79.87"/>
<polygon fill="blue" stroke="blue" points="332.01,-83.36 341.86,-79.46 331.72,-76.36 332.01,-83.36"/>
<text text-anchor="middle" x="231.36" y="-125.71" font-family="Times,serif" font-size="14.00">1</text>
</g>
</g>
</svg>
