<?xml version="1.0" encoding="UTF-8" standalone="no"?>
<!DOCTYPE svg PUBLIC "-//W3C//DTD SVG 1.1//EN"
 "http://www.w3.org/Graphics/SVG/1.1/DTD/svg11.dtd">
<!-- Generated by graphviz version 2.42.3 (20191010.1750)
 -->
<!-- Title: prime Pages: 1 -->
<svg width="1928pt" height="862pt"
 viewBox="0.00 0.00 1928.49 862.00" xmlns="http://www.w3.org/2000/svg" xmlns:xlink="http://www.w3.org/1999/xlink">
<g id="graph0" class="graph" transform="scale(1 1) rotate(0) translate(4 858)">
<title>prime</title>
<polygon fill="white" stroke="transparent" points="-4,4 -4,-858 1924.49,-858 1924.49,4 -4,4"/>
<text text-anchor="middle" x="960.25" y="-838.8" font-family="Times,serif" font-size="14.00">/prime</text>
<g id="clust1" class="cluster">
<title>cluster_candidates</title>
<polygon fill="none" stroke="black" points="1532,-429 1532,-769 1874,-769 1874,-429 1532,-429"/>
<text text-anchor="middle" x="1703" y="-753.8" font-family="Times,serif" font-size="14.00">/prime/candidates</text>
</g>
<g id="clust2" class="cluster">
<title>cluster_composites</title>
<polygon fill="none" stroke="black" points="8,-8 8,-641 1195,-641 1195,-8 8,-8"/>
<text text-anchor="middle" x="601.5" y="-625.8" font-family="Times,serif" font-size="14.00">/prime/composites</text>
</g>
<g id="clust3" class="cluster">
<title>cluster_divisors</title>
<polygon fill="none" stroke="black" points="709,-301 709,-611 1187,-611 1187,-301 709,-301"/>
<text text-anchor="middle" x="948" y="-595.8" font-family="Times,serif" font-size="14.00">/prime/composites/divisors</text>
</g>
<g id="clust4" class="cluster">
<title>cluster_generate_composites</title>
<polygon fill="none" stroke="black" points="202,-92 202,-397 701,-397 701,-92 202,-92"/>
<text text-anchor="middle" x="451.5" y="-381.8" font-family="Times,serif" font-size="14.00">/prime/composites/generate_composites</text>
</g>
<g id="clust5" class="cluster">
<title>cluster_composite_sequence</title>
<polygon fill="none" stroke="black" points="210,-100 210,-282 693,-282 693,-100 210,-100"/>
<text text-anchor="middle" x="451.5" y="-266.8" font-family="Times,serif" font-size="14.00">/prime/composites/generate_composites/composite&#45;sequence</text>
</g>
<!-- r0 -->
<g id="node1" class="node">
<title>r0</title>
<g id="a_node1"><a xlink:href="args" xlink:title="args (#0)">
<ellipse fill="coral" stroke="black" cx="1046" cy="-814" rx="41.76" ry="18"/>
<text text-anchor="middle" x="1046" y="-809.8" font-family="Times,serif" font-size="14.00">args (#0)</text>
</a>
</g>
</g>
<!-- r1 -->
<g id="node2" class="node">
<title>r1</title>
<g id="a_node2"><a xlink:href="to_number" xlink:title="to_number (#1)">
<ellipse fill="coral" stroke="black" cx="1029" cy="-699" rx="65.23" ry="18"/>
<text text-anchor="middle" x="1029" y="-694.8" font-family="Times,serif" font-size="14.00">to_number (#1)</text>
</a>
</g>
</g>
<!-- r0&#45;&gt;r1 -->
<g id="edge1" class="edge">
<title>r0:sw&#45;&gt;r1:n</title>
<path fill="none" stroke="black" d="M1029,-796C1006.98,-773.98 1024.53,-756.55 1028.32,-728.09"/>
<polygon fill="black" stroke="black" points="1031.82,-728.21 1029,-718 1024.83,-727.74 1031.82,-728.21"/>
<text text-anchor="middle" x="1023.56" y="-784.8" font-family="Times,serif" font-size="14.00">/1</text>
</g>
<!-- r2 -->
<g id="node3" class="node">
<title>r2</title>
<g id="a_node3"><a xlink:href="compare" xlink:title="compare (#2)">
<ellipse fill="coral" stroke="black" cx="1791" cy="-541" rx="57.49" ry="18"/>
<text text-anchor="middle" x="1791" y="-536.8" font-family="Times,serif" font-size="14.00">compare (#2)</text>
</a>
</g>
</g>
<!-- r1&#45;&gt;r2 -->
<g id="edge2" class="edge">
<title>r1:e&#45;&gt;r2:n</title>
<path fill="none" stroke="black" d="M1096,-699C1230.18,-699 1573.61,-693.71 1697,-641 1744.45,-620.73 1785.39,-615.76 1790.47,-570.05"/>
<polygon fill="black" stroke="black" points="1793.97,-570.17 1791,-560 1786.98,-569.8 1793.97,-570.17"/>
<text text-anchor="middle" x="1781.67" y="-562.8" font-family="Times,serif" font-size="14.00">left</text>
</g>
<!-- r4 -->
<g id="node4" class="node">
<title>r4</title>
<g id="a_node4"><a xlink:href="all-numbers" xlink:title="all&#45;numbers (#4)">
<ellipse fill="coral" stroke="black" cx="1609" cy="-455" rx="69.08" ry="18"/>
<text text-anchor="middle" x="1609" y="-450.8" font-family="Times,serif" font-size="14.00">all&#45;numbers (#4)</text>
</a>
</g>
</g>
<!-- r1&#45;&gt;r4 -->
<g id="edge3" class="edge">
<title>r1:e&#45;&gt;r4:nw</title>
<path fill="none" stroke="black" d="M1096,-699C1220.18,-699 1203.45,-581.47 1313,-523 1338.52,-509.38 1534.39,-497.24 1582.22,-478.04"/>
<polygon fill="black" stroke="black" points="1584.07,-481.01 1591,-473 1580.58,-474.94 1584.07,-481.01"/>
<text text-anchor="middle" x="1559.51" y="-475.8" font-family="Times,serif" font-size="14.00">chunk_size</text>
</g>
<!-- r5 -->
<g id="node5" class="node">
<title>r5</title>
<g id="a_node5"><a xlink:href="sqrt" xlink:title="sqrt (#5)">
<ellipse fill="coral" stroke="black" cx="661" cy="-541" rx="40.13" ry="18"/>
<text text-anchor="middle" x="661" y="-536.8" font-family="Times,serif" font-size="14.00">sqrt (#5)</text>
</a>
</g>
</g>
<!-- r1&#45;&gt;r5 -->
<g id="edge4" class="edge">
<title>r1:e&#45;&gt;r5:n</title>
<path fill="none" stroke="black" d="M1096,-699C1104.01,-699 1100.53,-686.8 1095,-681 1034.85,-617.97 777.5,-689.3 705,-641 673.84,-620.24 662.88,-603.98 661.23,-570.06"/>
<polygon fill="black" stroke="black" points="664.73,-569.92 661,-560 657.73,-570.08 664.73,-569.92"/>
</g>
<!-- r11 -->
<g id="node6" class="node">
<title>r11</title>
<g id="a_node6"><a xlink:href="limit-buffer" xlink:title="limit&#45;buffer (#11)">
<ellipse fill="coral" stroke="black" cx="363" cy="-327" rx="72.5" ry="18"/>
<text text-anchor="middle" x="363" y="-322.8" font-family="Times,serif" font-size="14.00">limit&#45;buffer (#11)</text>
</a>
</g>
</g>
<!-- r1&#45;&gt;r11 -->
<g id="edge5" class="edge">
<title>r1:e&#45;&gt;r11:n</title>
<path fill="none" stroke="black" d="M1096,-699C1104.01,-699 1100.69,-686.64 1095,-681 1079.71,-665.85 729.47,-664.53 708,-663 606.01,-655.73 560.65,-702.55 479,-641 369.25,-558.26 363.24,-490.28 363.01,-356.19"/>
<polygon fill="black" stroke="black" points="366.51,-356 363,-346 359.51,-356 366.51,-356"/>
</g>
<!-- r2&#45;&gt;r2 -->
<g id="edge8" class="edge">
<title>r2:s&#45;&gt;r2:n</title>
<path fill="none" stroke="black" d="M1791,-523C1834.16,-512.5 1920.49,-512.5 1920.49,-541 1920.49,-567.44 1846.19,-569.35 1800.99,-561.11"/>
<polygon fill="black" stroke="black" points="1801.51,-557.64 1791,-559 1800.06,-564.49 1801.51,-557.64"/>
<text text-anchor="middle" x="1800.33" y="-561.8" font-family="Times,serif" font-size="14.00">left</text>
<text text-anchor="middle" x="1771.95" y="-511.8" font-family="Times,serif" font-size="14.00">/left&#45;gt</text>
</g>
<!-- r2&#45;&gt;r4 -->
<g id="edge7" class="edge">
<title>r2:e&#45;&gt;r4:n</title>
<path fill="none" stroke="black" d="M1850,-541C1858.01,-541 1854.14,-529.15 1849,-523 1844.09,-517.13 1722.5,-492.53 1715,-491 1695.25,-486.97 1633.36,-493.94 1614.51,-481.86"/>
<polygon fill="black" stroke="black" points="1617.25,-479.64 1609,-473 1611.31,-483.34 1617.25,-479.64"/>
<text text-anchor="middle" x="1626.88" y="-475.8" font-family="Times,serif" font-size="14.00">values</text>
<text text-anchor="middle" x="1874.49" y="-543.8" font-family="Times,serif" font-size="14.00">/right&#45;lte</text>
</g>
<!-- r3 -->
<g id="node8" class="node">
<title>r3</title>
<g id="a_node8"><a xlink:href="add" xlink:title="add (#3)">
<ellipse fill="coral" stroke="black" cx="1808" cy="-455" rx="39.64" ry="18"/>
<text text-anchor="middle" x="1808" y="-450.8" font-family="Times,serif" font-size="14.00">add (#3)</text>
</a>
</g>
</g>
<!-- r2&#45;&gt;r3 -->
<g id="edge9" class="edge">
<title>r2:e&#45;&gt;r3:n</title>
<path fill="none" stroke="black" d="M1850,-541C1858.01,-541 1853.32,-529.75 1849,-523 1839.78,-508.6 1825.34,-518.62 1815,-505 1808.53,-496.49 1807.79,-491.07 1807.85,-483.03"/>
<polygon fill="black" stroke="black" points="1811.35,-483.05 1808,-473 1804.35,-482.95 1811.35,-483.05"/>
<text text-anchor="middle" x="1802.56" y="-475.8" font-family="Times,serif" font-size="14.00">i1</text>
<text text-anchor="middle" x="1871.39" y="-529.8" font-family="Times,serif" font-size="14.00">/right&#45;lt</text>
</g>
<!-- r4&#45;&gt;r4 -->
<g id="edge14" class="edge">
<title>r4:s&#45;&gt;r4:nw</title>
<path fill="none" stroke="black" d="M1609,-437C1561.9,-426.5 1467.71,-426.5 1467.71,-455 1467.71,-481.55 1533.84,-483.37 1580.97,-475"/>
<polygon fill="black" stroke="black" points="1581.88,-478.39 1591,-473 1580.51,-471.52 1581.88,-478.39"/>
<text text-anchor="middle" x="1622.49" y="-475.8" font-family="Times,serif" font-size="14.00">chunk_size</text>
<text text-anchor="middle" x="1575.57" y="-425.8" font-family="Times,serif" font-size="14.00">/chunk_size</text>
</g>
<!-- r4&#45;&gt;r4 -->
<g id="edge15" class="edge">
<title>r4:e&#45;&gt;r4:ne</title>
<path fill="none" stroke="black" d="M1679,-455C1702.29,-444.5 1750.29,-444.5 1750.29,-464 1750.29,-482.17 1684.16,-483.41 1637.03,-475"/>
<polygon fill="black" stroke="black" points="1637.49,-471.53 1627,-473 1636.12,-478.39 1637.49,-471.53"/>
<text text-anchor="middle" x="1644.88" y="-461.8" font-family="Times,serif" font-size="14.00">partial</text>
<text text-anchor="middle" x="1698.82" y="-457.8" font-family="Times,serif" font-size="14.00">/partial</text>
</g>
<!-- r14 -->
<g id="node11" class="node">
<title>r14</title>
<g id="a_node11"><a xlink:href="subtract" xlink:title="subtract (#14)">
<ellipse fill="coral" stroke="black" cx="608" cy="-126" rx="59.43" ry="18"/>
<text text-anchor="middle" x="608" y="-121.8" font-family="Times,serif" font-size="14.00">subtract (#14)</text>
</a>
</g>
</g>
<!-- r4&#45;&gt;r14 -->
<g id="edge16" class="edge">
<title>r4:s&#45;&gt;r14:ne</title>
<path fill="none" stroke="black" d="M1609,-436C1609,40.62 748.93,-195.57 633.77,-149.38"/>
<polygon fill="black" stroke="black" points="635.35,-146.25 625,-144 631.69,-152.22 635.35,-146.25"/>
<text text-anchor="middle" x="610.62" y="-146.8" font-family="Times,serif" font-size="14.00">array</text>
<text text-anchor="middle" x="1628.05" y="-424.8" font-family="Times,serif" font-size="14.00">/chunk</text>
</g>
<!-- r6 -->
<g id="node12" class="node">
<title>r6</title>
<g id="a_node12"><a xlink:href="compare" xlink:title="compare (#6)">
<ellipse fill="coral" stroke="black" cx="967" cy="-455" rx="57.49" ry="18"/>
<text text-anchor="middle" x="967" y="-450.8" font-family="Times,serif" font-size="14.00">compare (#6)</text>
</a>
</g>
</g>
<!-- r5&#45;&gt;r6 -->
<g id="edge17" class="edge">
<title>r5:e&#45;&gt;r6:n</title>
<path fill="none" stroke="black" d="M703,-541C707.02,-541 702.27,-525.95 705,-523 783.06,-438.61 956.1,-582.35 966.51,-483.03"/>
<polygon fill="black" stroke="black" points="970.01,-483.16 967,-473 963.01,-482.82 970.01,-483.16"/>
<text text-anchor="middle" x="957.67" y="-475.8" font-family="Times,serif" font-size="14.00">left</text>
</g>
<!-- r11&#45;&gt;r11 -->
<g id="edge35" class="edge">
<title>r11:e&#45;&gt;r11:n</title>
<path fill="none" stroke="black" d="M436,-327C459.25,-318 507.25,-318 507.25,-336 507.25,-352.8 423.43,-353.92 373.17,-346.67"/>
<polygon fill="black" stroke="black" points="373.44,-343.17 363,-345 372.3,-350.07 373.44,-343.17"/>
</g>
<!-- r9 -->
<g id="node19" class="node">
<title>r9</title>
<g id="a_node19"><a xlink:href="compare" xlink:title="compare (#9)">
<ellipse fill="coral" stroke="black" cx="550" cy="-212" rx="57.49" ry="18"/>
<text text-anchor="middle" x="550" y="-207.8" font-family="Times,serif" font-size="14.00">compare (#9)</text>
</a>
</g>
</g>
<!-- r11&#45;&gt;r9 -->
<g id="edge36" class="edge">
<title>r11:e&#45;&gt;r9:n</title>
<path fill="none" stroke="black" d="M437,-327C451.35,-327 526.44,-266.66 545.57,-240.21"/>
<polygon fill="black" stroke="black" points="548.82,-241.53 550,-231 542.51,-238.49 548.82,-241.53"/>
<text text-anchor="middle" x="540.67" y="-233.8" font-family="Times,serif" font-size="14.00">left</text>
</g>
<!-- initializerr2_1 -->
<!-- initializerr2_1&#45;&gt;r2 -->
<g id="edge6" class="edge">
<title>initializerr2_1&#45;&gt;r2:ne</title>
<path fill="none" stroke="blue" stroke-dasharray="1,5" d="M1812.97,-681.05C1822.95,-653.94 1837.72,-600.5 1814.69,-567.05"/>
<polygon fill="blue" stroke="blue" points="1817.09,-564.45 1808,-559 1811.7,-568.93 1817.09,-564.45"/>
<text text-anchor="middle" x="1824.5" y="-651.8" font-family="Times,serif" font-size="14.00">1</text>
</g>
<!-- r3&#45;&gt;r2 -->
<g id="edge12" class="edge">
<title>r3:se&#45;&gt;r2:ne</title>
<path fill="none" stroke="black" d="M1824,-438C1862.49,-399.51 1886.51,-519.04 1848.49,-558 1843.98,-562.63 1828.32,-564.41 1817.51,-562.68"/>
<polygon fill="black" stroke="black" points="1818.59,-559.35 1808,-559 1816.06,-565.87 1818.59,-559.35"/>
<text text-anchor="middle" x="1821.22" y="-561.8" font-family="Times,serif" font-size="14.00">right</text>
<text text-anchor="middle" x="1837.61" y="-426.8" font-family="Times,serif" font-size="14.00">/sum</text>
</g>
<!-- r3&#45;&gt;r3 -->
<g id="edge11" class="edge">
<title>r3:se&#45;&gt;r3:ne</title>
<path fill="none" stroke="black" d="M1824,-439C1861.27,-428.5 1919.82,-428.5 1919.82,-455 1919.82,-479.22 1870.9,-481.3 1834.03,-473.46"/>
<polygon fill="black" stroke="black" points="1834.55,-469.99 1824,-471 1832.88,-476.78 1834.55,-469.99"/>
<text text-anchor="middle" x="1829.44" y="-473.8" font-family="Times,serif" font-size="14.00">i2</text>
<text text-anchor="middle" x="1816.61" y="-427.8" font-family="Times,serif" font-size="14.00">/i2</text>
</g>
<!-- initializerr3_1 -->
<!-- initializerr3_1&#45;&gt;r3 -->
<g id="edge10" class="edge">
<title>initializerr3_1&#45;&gt;r3:w</title>
<path fill="none" stroke="blue" stroke-dasharray="1,5" d="M1630.15,-525.12C1656.7,-511.55 1697,-490.95 1732,-473 1743.92,-466.89 1747.85,-459.58 1756.89,-456.5"/>
<polygon fill="blue" stroke="blue" points="1757.62,-459.93 1767,-455 1756.6,-453 1757.62,-459.93"/>
<text text-anchor="middle" x="1699.5" y="-493.8" font-family="Times,serif" font-size="14.00">1</text>
</g>
<!-- initializerr4_1 -->
<!-- initializerr4_1&#45;&gt;r4 -->
<g id="edge13" class="edge">
<title>initializerr4_1&#45;&gt;r4:n</title>
<path fill="none" stroke="blue" stroke-dasharray="1,5" d="M1454.88,-529.3C1504.94,-517.08 1580.87,-496.73 1602.84,-480.98"/>
<polygon fill="blue" stroke="blue" points="1605.66,-483.06 1609,-473 1600.12,-478.78 1605.66,-483.06"/>
<text text-anchor="middle" x="1583.66" y="-493.8" font-family="Times,serif" font-size="14.00">[]</text>
</g>
<!-- r14&#45;&gt;r14 -->
<g id="edge42" class="edge">
<title>r14:e&#45;&gt;r14:ne</title>
<path fill="none" stroke="black" d="M668,-126C691.47,-115.5 739.47,-115.5 739.47,-134.5 739.47,-152.13 678.66,-153.4 634.88,-145.11"/>
<polygon fill="black" stroke="black" points="635.51,-141.66 625,-143 634.05,-148.51 635.51,-141.66"/>
<text text-anchor="middle" x="639.38" y="-145.8" font-family="Times,serif" font-size="14.00">array</text>
</g>
<!-- r6&#45;&gt;r6 -->
<g id="edge21" class="edge">
<title>r6:s&#45;&gt;r6:n</title>
<path fill="none" stroke="black" d="M967,-437C1010.16,-426.5 1096.49,-426.5 1096.49,-455 1096.49,-481.44 1022.19,-483.35 976.99,-475.11"/>
<polygon fill="black" stroke="black" points="977.51,-471.64 967,-473 976.06,-478.49 977.51,-471.64"/>
<text text-anchor="middle" x="976.33" y="-475.8" font-family="Times,serif" font-size="14.00">left</text>
<text text-anchor="middle" x="947.95" y="-425.8" font-family="Times,serif" font-size="14.00">/left&#45;gt</text>
</g>
<!-- r8 -->
<g id="node14" class="node">
<title>r8</title>
<g id="a_node14"><a xlink:href="multiply" xlink:title="multiply (#8)">
<ellipse fill="coral" stroke="black" cx="1122" cy="-327" rx="57.05" ry="18"/>
<text text-anchor="middle" x="1122" y="-322.8" font-family="Times,serif" font-size="14.00">multiply (#8)</text>
</a>
</g>
</g>
<!-- r6&#45;&gt;r8 -->
<g id="edge19" class="edge">
<title>r6:e&#45;&gt;r8:n</title>
<path fill="none" stroke="black" d="M1026,-455C1087.15,-455 1118.59,-415.12 1121.74,-356.04"/>
<polygon fill="black" stroke="black" points="1125.24,-356.09 1122,-346 1118.24,-355.91 1125.24,-356.09"/>
<text text-anchor="middle" x="1116.56" y="-348.8" font-family="Times,serif" font-size="14.00">i1</text>
<text text-anchor="middle" x="1050.49" y="-457.8" font-family="Times,serif" font-size="14.00">/right&#45;lte</text>
</g>
<!-- r10 -->
<g id="node15" class="node">
<title>r10</title>
<g id="a_node15"><a xlink:href="add" xlink:title="add (#10)">
<ellipse fill="coral" stroke="black" cx="931" cy="-327" rx="44.48" ry="18"/>
<text text-anchor="middle" x="931" y="-322.8" font-family="Times,serif" font-size="14.00">add (#10)</text>
</a>
</g>
</g>
<!-- r6&#45;&gt;r10 -->
<g id="edge20" class="edge">
<title>r6:e&#45;&gt;r10:ne</title>
<path fill="none" stroke="black" d="M1026,-455C1039.9,-455 1029.14,-426.99 1015,-405 995.32,-374.4 979.38,-373.21 955.36,-351.94"/>
<polygon fill="black" stroke="black" points="957.68,-349.31 948,-345 952.88,-354.41 957.68,-349.31"/>
<text text-anchor="middle" x="942.56" y="-347.8" font-family="Times,serif" font-size="14.00">i2</text>
<text text-anchor="middle" x="1050.49" y="-443.8" font-family="Times,serif" font-size="14.00">/right&#45;lte</text>
</g>
<!-- r7 -->
<g id="node16" class="node">
<title>r7</title>
<g id="a_node16"><a xlink:href="add" xlink:title="add (#7)">
<ellipse fill="coral" stroke="black" cx="757" cy="-327" rx="39.64" ry="18"/>
<text text-anchor="middle" x="757" y="-322.8" font-family="Times,serif" font-size="14.00">add (#7)</text>
</a>
</g>
</g>
<!-- r6&#45;&gt;r7 -->
<g id="edge22" class="edge">
<title>r6:e&#45;&gt;r7:n</title>
<path fill="none" stroke="black" d="M1026,-455C1065.56,-455 1094,-442.42 967,-405 877.46,-378.62 765.65,-438.22 757.48,-356.14"/>
<polygon fill="black" stroke="black" points="760.97,-355.82 757,-346 753.97,-356.15 760.97,-355.82"/>
<text text-anchor="middle" x="751.56" y="-348.8" font-family="Times,serif" font-size="14.00">i1</text>
<text text-anchor="middle" x="1004.61" y="-457.8" font-family="Times,serif" font-size="14.00">/right&#45;lt</text>
</g>
<!-- initializerr6_1 -->
<!-- initializerr6_1&#45;&gt;r6 -->
<g id="edge18" class="edge">
<title>initializerr6_1&#45;&gt;r6:ne</title>
<path fill="none" stroke="blue" stroke-dasharray="1,5" d="M989.95,-522.9C993.26,-510.6 995.64,-494.04 989.81,-481.4"/>
<polygon fill="blue" stroke="blue" points="992.57,-479.23 984,-473 986.81,-483.22 992.57,-479.23"/>
<text text-anchor="middle" x="997.5" y="-493.8" font-family="Times,serif" font-size="14.00">2</text>
</g>
<!-- r8&#45;&gt;r9 -->
<g id="edge27" class="edge">
<title>r8:e&#45;&gt;r9:ne</title>
<path fill="none" stroke="black" d="M1180,-327C1188.01,-327 1184.46,-314.87 1179,-309 1087.91,-211.02 684.36,-321.31 574.67,-236.72"/>
<polygon fill="black" stroke="black" points="576.83,-233.96 567,-230 572.21,-239.22 576.83,-233.96"/>
<text text-anchor="middle" x="580.22" y="-232.8" font-family="Times,serif" font-size="14.00">right</text>
</g>
<!-- r10&#45;&gt;r10 -->
<g id="edge33" class="edge">
<title>r10:se&#45;&gt;r10:ne</title>
<path fill="none" stroke="black" d="M948,-310C986.75,-301 1047.24,-301 1047.24,-327 1047.24,-350.87 996.26,-352.83 957.93,-346.02"/>
<polygon fill="black" stroke="black" points="958.5,-342.57 948,-344 957.1,-349.43 958.5,-342.57"/>
<text text-anchor="middle" x="953.44" y="-346.8" font-family="Times,serif" font-size="14.00">i2</text>
<text text-anchor="middle" x="940.61" y="-298.8" font-family="Times,serif" font-size="14.00">/i2</text>
</g>
<!-- r10&#45;&gt;r9 -->
<g id="edge34" class="edge">
<title>r10:se&#45;&gt;r9:ne</title>
<path fill="none" stroke="black" d="M948,-309C955.06,-301.94 944.33,-295.51 936,-290 800.39,-200.31 689.35,-341.19 574.57,-237.21"/>
<polygon fill="black" stroke="black" points="576.65,-234.36 567,-230 571.83,-239.43 576.65,-234.36"/>
<text text-anchor="middle" x="553.78" y="-232.8" font-family="Times,serif" font-size="14.00">right</text>
<text text-anchor="middle" x="961.61" y="-297.8" font-family="Times,serif" font-size="14.00">/sum</text>
</g>
<!-- r7&#45;&gt;r6 -->
<g id="edge25" class="edge">
<title>r7:se&#45;&gt;r6:ne</title>
<path fill="none" stroke="black" d="M773,-310C809.72,-273.28 809.68,-365.54 851,-397 877.96,-417.53 891.05,-411.11 924,-419 946.06,-424.28 1009.93,-419.6 1024.49,-437 1034.48,-448.93 1035.36,-460.87 1024.49,-472 1019.98,-476.63 1004.32,-478.41 993.51,-476.68"/>
<polygon fill="black" stroke="black" points="994.59,-473.35 984,-473 992.06,-479.87 994.59,-473.35"/>
<text text-anchor="middle" x="997.22" y="-475.8" font-family="Times,serif" font-size="14.00">right</text>
<text text-anchor="middle" x="786.61" y="-298.8" font-family="Times,serif" font-size="14.00">/sum</text>
</g>
<!-- r7&#45;&gt;r7 -->
<g id="edge24" class="edge">
<title>r7:se&#45;&gt;r7:ne</title>
<path fill="none" stroke="black" d="M773,-311C810.27,-302 868.82,-302 868.82,-327 868.82,-349.85 819.9,-351.82 783.03,-345.11"/>
<polygon fill="black" stroke="black" points="783.51,-341.63 773,-343 782.06,-348.48 783.51,-341.63"/>
<text text-anchor="middle" x="767.56" y="-345.8" font-family="Times,serif" font-size="14.00">i2</text>
<text text-anchor="middle" x="765.61" y="-299.8" font-family="Times,serif" font-size="14.00">/i2</text>
</g>
<!-- initializerr7_1 -->
<!-- initializerr7_1&#45;&gt;r7 -->
<g id="edge23" class="edge">
<title>initializerr7_1&#45;&gt;r7:w</title>
<path fill="none" stroke="blue" stroke-dasharray="1,5" d="M764.66,-437.31C750.26,-416.78 727.13,-380.3 717,-345 716.57,-343.5 715.71,-340.42 715.06,-337.23"/>
<polygon fill="blue" stroke="blue" points="718.57,-337.28 716,-327 711.6,-336.64 718.57,-337.28"/>
<text text-anchor="middle" x="755.5" y="-407.8" font-family="Times,serif" font-size="14.00">1</text>
</g>
<!-- initializerr8_1 -->
<!-- initializerr8_1&#45;&gt;r8 -->
<g id="edge26" class="edge">
<title>initializerr8_1&#45;&gt;r8:w</title>
<path fill="none" stroke="blue" d="M603.55,-344.2C623.44,-361.37 656.8,-386.65 691,-397 726.95,-407.88 997.18,-416.94 1029,-397 1054.9,-380.76 1035.44,-338.99 1053.96,-329.12"/>
<polygon fill="blue" stroke="blue" points="1054.94,-332.49 1064,-327 1053.49,-325.64 1054.94,-332.49"/>
<text text-anchor="middle" x="946" y="-407.8" font-family="Times,serif" font-size="14.00">2</text>
</g>
<!-- r9&#45;&gt;r14 -->
<g id="edge28" class="edge">
<title>r9:e&#45;&gt;r14:n</title>
<path fill="none" stroke="black" d="M609,-212C635.92,-212 614.1,-182.04 609,-154.13"/>
<polygon fill="black" stroke="black" points="612.47,-153.61 608,-144 605.5,-154.3 612.47,-153.61"/>
<text text-anchor="middle" x="592.84" y="-146.8" font-family="Times,serif" font-size="14.00">value</text>
<text text-anchor="middle" x="633.49" y="-214.8" font-family="Times,serif" font-size="14.00">/right&#45;lte</text>
</g>
<!-- r9&#45;&gt;r10 -->
<g id="edge31" class="edge">
<title>r9:e&#45;&gt;r10:n</title>
<path fill="none" stroke="black" d="M609,-212C619.52,-212 968.82,-300.66 975.24,-309 985,-321.68 986.43,-333.56 975.24,-345 970.46,-349.89 950.94,-353.22 939.49,-351.49"/>
<polygon fill="black" stroke="black" points="941.3,-348.49 931,-346 937.5,-354.37 941.3,-348.49"/>
<text text-anchor="middle" x="925.56" y="-348.8" font-family="Times,serif" font-size="14.00">i1</text>
<text text-anchor="middle" x="630.39" y="-200.8" font-family="Times,serif" font-size="14.00">/right&#45;lt</text>
</g>
<!-- r9&#45;&gt;r9 -->
<g id="edge30" class="edge">
<title>r9:s&#45;&gt;r9:n</title>
<path fill="none" stroke="black" d="M550,-194C593.16,-183.5 679.49,-183.5 679.49,-212 679.49,-238.44 605.19,-240.35 559.99,-232.11"/>
<polygon fill="black" stroke="black" points="560.51,-228.64 550,-230 559.06,-235.49 560.51,-228.64"/>
<text text-anchor="middle" x="540.67" y="-218.8" font-family="Times,serif" font-size="14.00">left</text>
<text text-anchor="middle" x="530.95" y="-182.8" font-family="Times,serif" font-size="14.00">/left&#45;gt</text>
</g>
<!-- r15 -->
<g id="node20" class="node">
<title>r15</title>
<g id="a_node20"><a xlink:href="print" xlink:title="print (#15)">
<ellipse fill="coral" stroke="black" cx="428" cy="-126" rx="48.35" ry="18"/>
<text text-anchor="middle" x="428" y="-121.8" font-family="Times,serif" font-size="14.00">print (#15)</text>
</a>
</g>
</g>
<!-- r9&#45;&gt;r15 -->
<g id="edge29" class="edge">
<title>r9:e&#45;&gt;r15:n</title>
<path fill="none" stroke="black" d="M609,-212C617.01,-212 613.02,-200.24 608,-194 558.28,-132.22 439.34,-218.58 428.76,-154.13"/>
<polygon fill="black" stroke="black" points="432.23,-153.71 428,-144 425.25,-154.23 432.23,-153.71"/>
<text text-anchor="middle" x="633.49" y="-200.8" font-family="Times,serif" font-size="14.00">/right&#45;lte</text>
</g>
<!-- r12 -->
<g id="node21" class="node">
<title>r12</title>
<g id="a_node21"><a xlink:href="join" xlink:title="join (#12)">
<ellipse fill="coral" stroke="black" cx="263" cy="-126" rx="45.46" ry="18"/>
<text text-anchor="middle" x="263" y="-121.8" font-family="Times,serif" font-size="14.00">join (#12)</text>
</a>
</g>
</g>
<!-- r9&#45;&gt;r12 -->
<g id="edge32" class="edge">
<title>r9:sw&#45;&gt;r12:ne</title>
<path fill="none" stroke="black" d="M533,-194C495.18,-156.18 464.6,-193.35 414,-176 401.95,-171.87 401.02,-166.21 389,-162 346.1,-146.97 318.97,-174.1 287.63,-150.66"/>
<polygon fill="black" stroke="black" points="289.84,-147.94 280,-144 285.23,-153.21 289.84,-147.94"/>
<text text-anchor="middle" x="260.17" y="-146.8" font-family="Times,serif" font-size="14.00">control</text>
<text text-anchor="middle" x="559.05" y="-182.8" font-family="Times,serif" font-size="14.00">/right&#45;gte</text>
</g>
<!-- r13 -->
<g id="node23" class="node">
<title>r13</title>
<g id="a_node23"><a xlink:href="subsequence-count" xlink:title="subsequence&#45;count (#13)">
<ellipse fill="coral" stroke="black" cx="203" cy="-34" rx="98.52" ry="18"/>
<text text-anchor="middle" x="203" y="-29.8" font-family="Times,serif" font-size="14.00">subsequence&#45;count (#13)</text>
</a>
</g>
</g>
<!-- r12&#45;&gt;r13 -->
<g id="edge38" class="edge">
<title>r12:e&#45;&gt;r13:ne</title>
<path fill="none" stroke="black" d="M310,-126C318.01,-126 313.05,-114.91 309,-108 287.4,-71.12 258.7,-82.5 228.66,-58.83"/>
<polygon fill="black" stroke="black" points="230.79,-56.04 221,-52 226.14,-61.27 230.79,-56.04"/>
<text text-anchor="middle" x="215.56" y="-54.8" font-family="Times,serif" font-size="14.00">i2</text>
</g>
<!-- initializerr12_0 -->
<!-- initializerr12_0&#45;&gt;r12 -->
<g id="edge37" class="edge">
<title>initializerr12_0&#45;&gt;r12:nw</title>
<path fill="none" stroke="blue" d="M164.22,-196.84C186.76,-186.58 215.91,-171.01 238.58,-150.97"/>
<polygon fill="blue" stroke="blue" points="241.1,-153.4 246,-144 236.31,-148.29 241.1,-153.4"/>
<text text-anchor="middle" x="227.5" y="-164.8" font-family="Times,serif" font-size="14.00">1</text>
</g>
<!-- r13&#45;&gt;r13 -->
<g id="edge40" class="edge">
<title>r13:se&#45;&gt;r13:n</title>
<path fill="none" stroke="black" d="M221,-16C277.92,-5.5 373.76,-5.5 373.76,-34 373.76,-60.89 272.45,-62.41 213.19,-53.68"/>
<polygon fill="black" stroke="black" points="213.44,-50.17 203,-52 212.3,-57.08 213.44,-50.17"/>
<text text-anchor="middle" x="197.56" y="-54.8" font-family="Times,serif" font-size="14.00">i1</text>
<text text-anchor="middle" x="207.39" y="-4.8" font-family="Times,serif" font-size="14.00">/sum</text>
</g>
<!-- initializerr13_0 -->
<!-- initializerr13_0&#45;&gt;r13 -->
<g id="edge39" class="edge">
<title>initializerr13_0&#45;&gt;r13:ne</title>
<path fill="none" stroke="blue" stroke-dasharray="1,5" d="M121.71,-111.96C159.92,-98.91 212.59,-78.49 222.06,-62.35"/>
<polygon fill="blue" stroke="blue" points="225.5,-61.59 221,-52 218.53,-62.3 225.5,-61.59"/>
<text text-anchor="middle" x="217.5" y="-72.8" font-family="Times,serif" font-size="14.00">1</text>
</g>
<!-- initializerr14_0 -->
<!-- initializerr14_0&#45;&gt;r14 -->
<g id="edge41" class="edge">
<title>initializerr14_0&#45;&gt;r14:n</title>
<path fill="none" stroke="blue" stroke-dasharray="1,5" d="M1205.02,-207.87C1052.93,-199.92 673.88,-177.69 615.58,-150.9"/>
<polygon fill="blue" stroke="blue" points="617.75,-148.15 608,-144 613.04,-153.32 617.75,-148.15"/>
<text text-anchor="middle" x="754.5" y="-164.8" font-family="Times,serif" font-size="14.00">9</text>
</g>
</g>
</svg>
