<?xml version="1.0" encoding="UTF-8" standalone="no"?>
<!DOCTYPE svg PUBLIC "-//W3C//DTD SVG 1.1//EN"
 "http://www.w3.org/Graphics/SVG/1.1/DTD/svg11.dtd">
<!-- Generated by graphviz version 2.40.1 (20161225.0304)
 -->
<!-- Title: prime Pages: 1 -->
<svg width="1850pt" height="1388pt"
 viewBox="0.00 0.00 1850.35 1388.00" xmlns="http://www.w3.org/2000/svg" xmlns:xlink="http://www.w3.org/1999/xlink">
<g id="graph0" class="graph" transform="scale(1 1) rotate(0) translate(4 1384)">
<title>prime</title>
<polygon fill="#ffffff" stroke="transparent" points="-4,4 -4,-1384 1846.3454,-1384 1846.3454,4 -4,4"/>
<text text-anchor="middle" x="921.1727" y="-1364.8" font-family="Times,serif" font-size="14.00" fill="#000000">/prime</text>
<g id="clust1" class="cluster">
<title>cluster_candidates</title>
<polygon fill="none" stroke="#000000" points="1388,-937 1388,-1318 1796,-1318 1796,-937 1388,-937"/>
<text text-anchor="middle" x="1592" y="-1302.8" font-family="Times,serif" font-size="14.00" fill="#000000">/prime/candidates</text>
</g>
<g id="clust2" class="cluster">
<title>cluster_composites</title>
<polygon fill="none" stroke="#000000" points="8,-8 8,-1349 1074,-1349 1074,-8 8,-8"/>
<text text-anchor="middle" x="541" y="-1333.8" font-family="Times,serif" font-size="14.00" fill="#000000">/prime/composites</text>
</g>
<g id="clust3" class="cluster">
<title>cluster_divisors</title>
<polygon fill="none" stroke="#000000" points="16,-680 16,-1318 587,-1318 587,-680 16,-680"/>
<text text-anchor="middle" x="301.5" y="-1302.8" font-family="Times,serif" font-size="14.00" fill="#000000">/prime/composites/divisors</text>
</g>
<g id="clust4" class="cluster">
<title>cluster_generate_composites</title>
<polygon fill="none" stroke="#000000" points="595,-152 595,-880 1066,-880 1066,-152 595,-152"/>
<text text-anchor="middle" x="830.5" y="-864.8" font-family="Times,serif" font-size="14.00" fill="#000000">/prime/composites/generate_composites</text>
</g>
<g id="clust5" class="cluster">
<title>cluster_composite_sequence</title>
<polygon fill="none" stroke="#000000" points="603,-160 603,-623 1058,-623 1058,-160 603,-160"/>
<text text-anchor="middle" x="830.5" y="-607.8" font-family="Times,serif" font-size="14.00" fill="#000000">/prime/composites/generate_composites/composite&#45;sequence</text>
</g>
<!-- r3 -->
<g id="node1" class="node">
<title>r3</title>
<g id="a_node1"><a xlink:href="file:///home/travis/build/andrewdavidmackenzie/flow/flowr/src/lib/flowruntime/args/get.html" xlink:title="args (#3)">
<ellipse fill="#ff7f50" stroke="#000000" cx="1137" cy="-1196" rx="54.6905" ry="18"/>
<text text-anchor="middle" x="1137" y="-1192.3" font-family="Times,serif" font-size="14.00" fill="#000000">args (#3)</text>
</a>
</g>
</g>
<!-- r2 -->
<g id="node2" class="node">
<title>r2</title>
<g id="a_node2"><a xlink:href="file:///home/travis/build/andrewdavidmackenzie/flow/flowstdlib/control/compare_switch/compare_switch.html" xlink:title="compare (#2)">
<ellipse fill="#ff7f50" stroke="#000000" cx="1471" cy="-1123" rx="74.9875" ry="18"/>
<text text-anchor="middle" x="1471" y="-1119.3" font-family="Times,serif" font-size="14.00" fill="#000000">compare (#2)</text>
</a>
</g>
</g>
<!-- r3&#45;&gt;r2 -->
<g id="edge1" class="edge">
<title>r3:e&#45;&gt;r2:n</title>
<path fill="none" stroke="#000000" d="M1192,-1196C1220.7579,-1196 1428.2867,-1176.613 1465.3449,-1149.3068"/>
<polygon fill="#000000" stroke="#000000" points="1468.2657,-1151.2359 1471,-1141 1462.4793,-1147.2966 1468.2657,-1151.2359"/>
<text text-anchor="middle" x="1458.5" y="-1144.8" font-family="Times,serif" font-size="14.00" fill="#000000">left</text>
<text text-anchor="middle" x="1216" y="-1199.8" font-family="Times,serif" font-size="14.00" fill="#000000">/json/1</text>
</g>
<!-- r5 -->
<g id="node3" class="node">
<title>r5</title>
<g id="a_node3"><a xlink:href="file:///home/travis/build/andrewdavidmackenzie/flow/flowstdlib/data/accumulate/accumulate.html" xlink:title="all&#45;numbers (#5)">
<ellipse fill="#ff7f50" stroke="#000000" cx="1485" cy="-963" rx="89.0842" ry="18"/>
<text text-anchor="middle" x="1485" y="-959.3" font-family="Times,serif" font-size="14.00" fill="#000000">all&#45;numbers (#5)</text>
</a>
</g>
</g>
<!-- r3&#45;&gt;r5 -->
<g id="edge2" class="edge">
<title>r3:e&#45;&gt;r5:nw</title>
<path fill="none" stroke="#000000" d="M1192,-1196C1264.8889,-1196 1145.3951,-1088.0426 1192,-1032 1210.3179,-1009.9726 1409.8968,-1003.8908 1458.1853,-985.8588"/>
<polygon fill="#000000" stroke="#000000" points="1459.9319,-988.8926 1467,-981 1456.5527,-982.7623 1459.9319,-988.8926"/>
<text text-anchor="middle" x="1427" y="-984.8" font-family="Times,serif" font-size="14.00" fill="#000000">chunk_size</text>
<text text-anchor="middle" x="1216" y="-1184.8" font-family="Times,serif" font-size="14.00" fill="#000000">/json/1</text>
</g>
<!-- r6 -->
<g id="node4" class="node">
<title>r6</title>
<g id="a_node4"><a xlink:href="file:///home/travis/build/andrewdavidmackenzie/flow/flowstdlib/math/sqrt/sqrt.html" xlink:title="sqrt (#6)">
<ellipse fill="#ff7f50" stroke="#000000" cx="713" cy="-1123" rx="53.0913" ry="18"/>
<text text-anchor="middle" x="713" y="-1119.3" font-family="Times,serif" font-size="14.00" fill="#000000">sqrt (#6)</text>
</a>
</g>
</g>
<!-- r3&#45;&gt;r6 -->
<g id="edge3" class="edge">
<title>r3:e&#45;&gt;r6:n</title>
<path fill="none" stroke="#000000" d="M1192,-1196C1200,-1196 1197.4795,-1183.8289 1192,-1178 1169.8116,-1154.3967 933.2883,-1162.6292 901,-1160 862.9081,-1156.8982 738.4191,-1178.4877 716.3574,-1150.7329"/>
<polygon fill="#000000" stroke="#000000" points="719.5698,-1149.312 713,-1141 712.9524,-1151.5947 719.5698,-1149.312"/>
<text text-anchor="middle" x="1168" y="-1199.8" font-family="Times,serif" font-size="14.00" fill="#000000">/json/1</text>
</g>
<!-- r9 -->
<g id="node5" class="node">
<title>r9</title>
<g id="a_node5"><a xlink:href="file:///home/travis/build/andrewdavidmackenzie/flow/flowstdlib/data/buffer/buffer.html" xlink:title="limit&#45;buffer (#9)">
<ellipse fill="#ff7f50" stroke="#000000" cx="939" cy="-831" rx="87.1846" ry="18"/>
<text text-anchor="middle" x="939" y="-827.3" font-family="Times,serif" font-size="14.00" fill="#000000">limit&#45;buffer (#9)</text>
</a>
</g>
</g>
<!-- r3&#45;&gt;r9 -->
<g id="edge4" class="edge">
<title>r3:e&#45;&gt;r9:n</title>
<path fill="none" stroke="#000000" d="M1192,-1196C1200,-1196 1196.9736,-1184.266 1192,-1178 1125.0427,-1093.644 956,-1230.6996 956,-1123 956,-1123 956,-1123 956,-907.5 956,-884.2319 943.4451,-877.7481 939.914,-859.2006"/>
<polygon fill="#000000" stroke="#000000" points="943.3786,-858.6477 939,-849 936.4065,-859.2725 943.3786,-858.6477"/>
<text text-anchor="middle" x="1168" y="-1184.8" font-family="Times,serif" font-size="14.00" fill="#000000">/json/1</text>
</g>
<!-- r2&#45;&gt;r2 -->
<g id="edge7" class="edge">
<title>r2:s&#45;&gt;r2:n</title>
<path fill="none" stroke="#000000" d="M1471,-1105C1519.9145,-1096 1617.7434,-1096 1617.7434,-1123 1617.7434,-1148.2598 1532.1188,-1149.8878 1481.0284,-1142.6233"/>
<polygon fill="#000000" stroke="#000000" points="1481.4308,-1139.1429 1471,-1141 1480.3122,-1146.053 1481.4308,-1139.1429"/>
<text text-anchor="middle" x="1483.5" y="-1144.8" font-family="Times,serif" font-size="14.00" fill="#000000">left</text>
<text text-anchor="middle" x="1446.5" y="-1093.8" font-family="Times,serif" font-size="14.00" fill="#000000">/left&#45;gt</text>
</g>
<!-- r2&#45;&gt;r5 -->
<g id="edge6" class="edge">
<title>r2:e&#45;&gt;r5:n</title>
<path fill="none" stroke="#000000" d="M1546,-1123C1554,-1123 1547.8128,-1112.7919 1546,-1105 1539.748,-1078.1273 1495.4915,-1024.2382 1486.5664,-991.2984"/>
<polygon fill="#000000" stroke="#000000" points="1489.964,-990.36 1485,-981 1483.0435,-991.4126 1489.964,-990.36"/>
<text text-anchor="middle" x="1508" y="-984.8" font-family="Times,serif" font-size="14.00" fill="#000000">values</text>
<text text-anchor="middle" x="1578" y="-1126.8" font-family="Times,serif" font-size="14.00" fill="#000000">/right&#45;lte</text>
</g>
<!-- r1 -->
<g id="node7" class="node">
<title>r1</title>
<g id="a_node7"><a xlink:href="file:///home/travis/build/andrewdavidmackenzie/flow/flowstdlib/math/add/add.html" xlink:title="add (#1)">
<ellipse fill="#ff7f50" stroke="#000000" cx="1719" cy="-963" rx="51.1914" ry="18"/>
<text text-anchor="middle" x="1719" y="-959.3" font-family="Times,serif" font-size="14.00" fill="#000000">add (#1)</text>
</a>
</g>
</g>
<!-- r2&#45;&gt;r1 -->
<g id="edge8" class="edge">
<title>r2:e&#45;&gt;r1:n</title>
<path fill="none" stroke="#000000" d="M1546,-1123C1548.2974,-1123 1700.4983,-1069.7386 1702,-1068 1725.439,-1040.8627 1720.2942,-1023.691 1719.1806,-991.12"/>
<polygon fill="#000000" stroke="#000000" points="1722.678,-990.9359 1719,-981 1715.6791,-991.0609 1722.678,-990.9359"/>
<text text-anchor="middle" x="1712" y="-984.8" font-family="Times,serif" font-size="14.00" fill="#000000">i1</text>
<text text-anchor="middle" x="1573.5" y="-1111.8" font-family="Times,serif" font-size="14.00" fill="#000000">/right&#45;lt</text>
</g>
<!-- r5&#45;&gt;r5 -->
<g id="edge13" class="edge">
<title>r5:s&#45;&gt;r5:nw</title>
<path fill="none" stroke="#000000" d="M1485,-945C1431.3193,-936 1323.9579,-936 1323.9579,-963 1323.9579,-988.3652 1402.8258,-989.901 1456.8848,-982.5318"/>
<polygon fill="#000000" stroke="#000000" points="1457.6368,-985.9579 1467,-981 1456.5887,-979.0368 1457.6368,-985.9579"/>
<text text-anchor="middle" x="1507" y="-984.8" font-family="Times,serif" font-size="14.00" fill="#000000">chunk_size</text>
<text text-anchor="middle" x="1442.5" y="-933.8" font-family="Times,serif" font-size="14.00" fill="#000000">/chunk_size</text>
</g>
<!-- r5&#45;&gt;r5 -->
<g id="edge14" class="edge">
<title>r5:e&#45;&gt;r5:ne</title>
<path fill="none" stroke="#000000" d="M1574,-963C1598.0421,-954 1646.0421,-954 1646.0421,-972 1646.0421,-988.9102 1567.1742,-989.934 1513.1152,-982.5338"/>
<polygon fill="#000000" stroke="#000000" points="1513.4117,-979.0388 1503,-981 1512.3622,-985.9597 1513.4117,-979.0388"/>
<text text-anchor="middle" x="1479" y="-969.8" font-family="Times,serif" font-size="14.00" fill="#000000">partial</text>
<text text-anchor="middle" x="1600" y="-966.8" font-family="Times,serif" font-size="14.00" fill="#000000">/partial</text>
</g>
<!-- r4 -->
<g id="node10" class="node">
<title>r4</title>
<g id="a_node10"><a xlink:href="file:///home/travis/build/andrewdavidmackenzie/flow/flowstdlib/data/remove/remove.html" xlink:title="remove (#4)">
<ellipse fill="#ff7f50" stroke="#000000" cx="963" cy="-186" rx="68.7879" ry="18"/>
<text text-anchor="middle" x="963" y="-182.3" font-family="Times,serif" font-size="14.00" fill="#000000">remove (#4)</text>
</a>
</g>
</g>
<!-- r5&#45;&gt;r4 -->
<g id="edge15" class="edge">
<title>r5:s&#45;&gt;r4:ne</title>
<path fill="none" stroke="#000000" d="M1485,-945C1485,-869.3631 1319,-983.1369 1319,-907.5 1319,-907.5 1319,-907.5 1319,-248.5 1319,-100.3847 1098.394,-301.7039 988.4026,-210.7409"/>
<polygon fill="#000000" stroke="#000000" points="990.7504,-208.1451 981,-204 986.0373,-213.3207 990.7504,-208.1451"/>
<text text-anchor="middle" x="961.5" y="-207.8" font-family="Times,serif" font-size="14.00" fill="#000000">array</text>
<text text-anchor="middle" x="1509.5" y="-933.8" font-family="Times,serif" font-size="14.00" fill="#000000">/chunk</text>
</g>
<!-- r12 -->
<g id="node11" class="node">
<title>r12</title>
<g id="a_node11"><a xlink:href="file:///home/travis/build/andrewdavidmackenzie/flow/flowstdlib/control/compare_switch/compare_switch.html" xlink:title="compare (#12)">
<ellipse fill="#ff7f50" stroke="#000000" cx="340" cy="-963" rx="80.6858" ry="18"/>
<text text-anchor="middle" x="340" y="-959.3" font-family="Times,serif" font-size="14.00" fill="#000000">compare (#12)</text>
</a>
</g>
</g>
<!-- r6&#45;&gt;r12 -->
<g id="edge16" class="edge">
<title>r6:e&#45;&gt;r12:n</title>
<path fill="none" stroke="#000000" d="M767,-1123C775,-1123 771.8037,-1111.3972 767,-1105 760.2209,-1095.9722 409.072,-1010.1646 348.7683,-986.0504"/>
<polygon fill="#000000" stroke="#000000" points="350.4123,-982.9583 340,-981 346.9185,-989.024 350.4123,-982.9583"/>
<text text-anchor="middle" x="327.5" y="-984.8" font-family="Times,serif" font-size="14.00" fill="#000000">left</text>
</g>
<!-- r9&#45;&gt;r9 -->
<g id="edge33" class="edge">
<title>r9:e&#45;&gt;r9:n</title>
<path fill="none" stroke="#000000" d="M1026,-831C1050.0923,-822 1098.0923,-822 1098.0923,-840 1098.0923,-856.9102 1004.4853,-857.934 949.1804,-850.5338"/>
<polygon fill="#000000" stroke="#000000" points="949.4099,-847.0289 939,-849 948.3669,-853.9508 949.4099,-847.0289"/>
</g>
<!-- r7 -->
<g id="node18" class="node">
<title>r7</title>
<g id="a_node18"><a xlink:href="file:///home/travis/build/andrewdavidmackenzie/flow/flowstdlib/control/compare_switch/compare_switch.html" xlink:title="compare (#7)">
<ellipse fill="#ff7f50" stroke="#000000" cx="694" cy="-574" rx="74.9875" ry="18"/>
<text text-anchor="middle" x="694" y="-570.3" font-family="Times,serif" font-size="14.00" fill="#000000">compare (#7)</text>
</a>
</g>
</g>
<!-- r9&#45;&gt;r7 -->
<g id="edge34" class="edge">
<title>r9:e&#45;&gt;r7:n</title>
<path fill="none" stroke="#000000" d="M1026,-831C1034,-831 1030.4398,-819.6549 1026,-813 997.4163,-770.1553 919,-820.0043 919,-768.5 919,-768.5 919,-768.5 919,-650.5 919,-550.8078 709.5422,-685.2188 694.8147,-601.9869"/>
<polygon fill="#000000" stroke="#000000" points="698.3016,-601.6823 694,-592 691.3248,-602.2515 698.3016,-601.6823"/>
<text text-anchor="middle" x="681.5" y="-595.8" font-family="Times,serif" font-size="14.00" fill="#000000">left</text>
</g>
<!-- initializerr2_1 -->
<!-- initializerr2_1&#45;&gt;r2 -->
<g id="edge5" class="edge">
<title>initializerr2_1&#45;&gt;r2:ne</title>
<path fill="none" stroke="#0000ff" stroke-dasharray="1,5" d="M1496.0147,-1250.726C1504.5932,-1225.2071 1515.6539,-1178.6884 1495.5307,-1148.9205"/>
<polygon fill="#0000ff" stroke="#0000ff" points="1498.0621,-1146.4889 1489,-1141 1492.6613,-1150.9421 1498.0621,-1146.4889"/>
<text text-anchor="middle" x="1511" y="-1192.3" font-family="Times,serif" font-size="14.00" fill="#000000">1</text>
</g>
<!-- r1&#45;&gt;r2 -->
<g id="edge11" class="edge">
<title>r1:se&#45;&gt;r2:ne</title>
<path fill="none" stroke="#000000" d="M1736,-946C1736,-946 1770.3454,-981 1770.3454,-981 1748.949,-1005.2303 1652.8565,-981.0098 1626,-999 1565.7707,-1039.3456 1608.3579,-1104.4657 1545.7434,-1141 1537.2346,-1145.9647 1512.8295,-1148.6142 1498.3078,-1145.2841"/>
<polygon fill="#000000" stroke="#000000" points="1499.5474,-1142.0018 1489,-1141 1496.6206,-1148.3605 1499.5474,-1142.0018"/>
<text text-anchor="middle" x="1507" y="-1144.8" font-family="Times,serif" font-size="14.00" fill="#000000">right</text>
<text text-anchor="middle" x="1753.5" y="-934.8" font-family="Times,serif" font-size="14.00" fill="#000000">/sum</text>
</g>
<!-- r1&#45;&gt;r1 -->
<g id="edge10" class="edge">
<title>r1:se&#45;&gt;r1:ne</title>
<path fill="none" stroke="#000000" d="M1736,-946C1777.1151,-937 1842.3454,-937 1842.3454,-963 1842.3454,-986.9688 1786.9092,-988.8413 1746.0353,-981.9365"/>
<polygon fill="#000000" stroke="#000000" points="1746.482,-978.4582 1736,-980 1745.1557,-985.3314 1746.482,-978.4582"/>
<text text-anchor="middle" x="1729" y="-983.8" font-family="Times,serif" font-size="14.00" fill="#000000">i2</text>
<text text-anchor="middle" x="1726.5" y="-934.8" font-family="Times,serif" font-size="14.00" fill="#000000">/i2</text>
</g>
<!-- initializerr1_1 -->
<!-- initializerr1_1&#45;&gt;r1 -->
<g id="edge9" class="edge">
<title>initializerr1_1&#45;&gt;r1:w</title>
<path fill="none" stroke="#0000ff" stroke-dasharray="1,5" d="M1699.2694,-1104.957C1672.6288,-1065.8916 1616.6758,-976.0393 1656.9095,-964.2781"/>
<polygon fill="#0000ff" stroke="#0000ff" points="1657.5191,-967.7289 1667,-963 1656.6394,-960.7844 1657.5191,-967.7289"/>
<text text-anchor="middle" x="1679" y="-1046.3" font-family="Times,serif" font-size="14.00" fill="#000000">1</text>
</g>
<!-- initializerr5_1 -->
<!-- initializerr5_1&#45;&gt;r5 -->
<g id="edge12" class="edge">
<title>initializerr5_1&#45;&gt;r5:n</title>
<path fill="none" stroke="#0000ff" stroke-dasharray="1,5" d="M1353.459,-1036.1524C1398.0482,-1023.0678 1459.5009,-1003.3541 1478.8871,-988.9651"/>
<polygon fill="#0000ff" stroke="#0000ff" points="1481.6882,-991.064 1485,-981 1476.1351,-986.8021 1481.6882,-991.064"/>
<text text-anchor="middle" x="1463.5" y="-1002.8" font-family="Times,serif" font-size="14.00" fill="#000000">[]</text>
</g>
<!-- r4&#45;&gt;r4 -->
<g id="edge39" class="edge">
<title>r4:e&#45;&gt;r4:ne</title>
<path fill="none" stroke="#000000" d="M1032,-186C1055.8939,-177 1103.8939,-177 1103.8939,-195 1103.8939,-211.7695 1037.9908,-212.9159 991.004,-205.7167"/>
<polygon fill="#000000" stroke="#000000" points="991.4479,-202.2418 981,-204 990.264,-209.1409 991.4479,-202.2418"/>
<text text-anchor="middle" x="1000.5" y="-207.8" font-family="Times,serif" font-size="14.00" fill="#000000">array</text>
</g>
<!-- r0 -->
<g id="node23" class="node">
<title>r0</title>
<g id="a_node23"><a xlink:href="file:///home/travis/build/andrewdavidmackenzie/flow/flowr/src/lib/flowruntime/stdio/stdout.html" xlink:title="print (#0)">
<ellipse fill="#ff7f50" stroke="#000000" cx="1139" cy="-107" rx="57.3905" ry="18"/>
<text text-anchor="middle" x="1139" y="-103.3" font-family="Times,serif" font-size="14.00" fill="#000000">print (#0)</text>
</a>
</g>
</g>
<!-- r4&#45;&gt;r0 -->
<g id="edge40" class="edge">
<title>r4:e&#45;&gt;r0:n</title>
<path fill="none" stroke="#000000" d="M1032,-186C1083.2125,-186 1132.2531,-180.5216 1138.362,-134.9917"/>
<polygon fill="#000000" stroke="#000000" points="1141.8556,-135.2027 1139,-125 1134.8698,-134.7566 1141.8556,-135.2027"/>
</g>
<!-- r12&#45;&gt;r12 -->
<g id="edge20" class="edge">
<title>r12:s&#45;&gt;r12:n</title>
<path fill="none" stroke="#000000" d="M340,-945C390.8643,-936 492.5928,-936 492.5928,-963 492.5928,-988.3125 403.183,-989.8945 350.0959,-982.5776"/>
<polygon fill="#000000" stroke="#000000" points="350.4205,-979.086 340,-981 349.3397,-986.002 350.4205,-979.086"/>
<text text-anchor="middle" x="352.5" y="-984.8" font-family="Times,serif" font-size="14.00" fill="#000000">left</text>
<text text-anchor="middle" x="315.5" y="-933.8" font-family="Times,serif" font-size="14.00" fill="#000000">/left&#45;gt</text>
</g>
<!-- r10 -->
<g id="node13" class="node">
<title>r10</title>
<g id="a_node13"><a xlink:href="file:///home/travis/build/andrewdavidmackenzie/flow/flowstdlib/math/multiply/multiply.html" xlink:title="multiply (#10)">
<ellipse fill="#ff7f50" stroke="#000000" cx="500" cy="-706" rx="78.7863" ry="18"/>
<text text-anchor="middle" x="500" y="-702.3" font-family="Times,serif" font-size="14.00" fill="#000000">multiply (#10)</text>
</a>
</g>
</g>
<!-- r12&#45;&gt;r10 -->
<g id="edge18" class="edge">
<title>r12:e&#45;&gt;r10:n</title>
<path fill="none" stroke="#000000" d="M421,-963C462.8256,-963 497,-949.3256 497,-907.5 497,-907.5 497,-907.5 497,-768.5 497,-752.5489 498.9426,-746.29 499.7014,-734.1249"/>
<polygon fill="#000000" stroke="#000000" points="503.2036,-734.0989 500,-724 496.2066,-733.8924 503.2036,-734.0989"/>
<text text-anchor="middle" x="493" y="-727.8" font-family="Times,serif" font-size="14.00" fill="#000000">i1</text>
<text text-anchor="middle" x="453" y="-966.8" font-family="Times,serif" font-size="14.00" fill="#000000">/right&#45;lte</text>
</g>
<!-- r8 -->
<g id="node14" class="node">
<title>r8</title>
<g id="a_node14"><a xlink:href="file:///home/travis/build/andrewdavidmackenzie/flow/flowstdlib/math/add/add.html" xlink:title="add (#8)">
<ellipse fill="#ff7f50" stroke="#000000" cx="280" cy="-706" rx="51.1914" ry="18"/>
<text text-anchor="middle" x="280" y="-702.3" font-family="Times,serif" font-size="14.00" fill="#000000">add (#8)</text>
</a>
</g>
</g>
<!-- r12&#45;&gt;r8 -->
<g id="edge19" class="edge">
<title>r12:e&#45;&gt;r8:ne</title>
<path fill="none" stroke="#000000" d="M421,-963C429,-963 421.8392,-952.9559 421,-945 419.2124,-928.0523 413,-924.5417 413,-907.5 413,-907.5 413,-907.5 413,-768.5 413,-716.5815 345.4643,-756.4374 304.756,-729.3558"/>
<polygon fill="#000000" stroke="#000000" points="306.9531,-726.6312 297,-723 302.5163,-732.0455 306.9531,-726.6312"/>
<text text-anchor="middle" x="290" y="-726.8" font-family="Times,serif" font-size="14.00" fill="#000000">i2</text>
<text text-anchor="middle" x="453" y="-951.8" font-family="Times,serif" font-size="14.00" fill="#000000">/right&#45;lte</text>
</g>
<!-- r11 -->
<g id="node15" class="node">
<title>r11</title>
<g id="a_node15"><a xlink:href="file:///home/travis/build/andrewdavidmackenzie/flow/flowstdlib/math/add/add.html" xlink:title="add (#11)">
<ellipse fill="#ff7f50" stroke="#000000" cx="81" cy="-706" rx="57.3905" ry="18"/>
<text text-anchor="middle" x="81" y="-702.3" font-family="Times,serif" font-size="14.00" fill="#000000">add (#11)</text>
</a>
</g>
</g>
<!-- r12&#45;&gt;r11 -->
<g id="edge21" class="edge">
<title>r12:e&#45;&gt;r11:n</title>
<path fill="none" stroke="#000000" d="M421,-963C429,-963 424.8158,-952.0313 421,-945 411.1149,-926.7849 131.6897,-774.125 87.0014,-732.2542"/>
<polygon fill="#000000" stroke="#000000" points="89.7116,-730.0299 81,-724 84.0499,-734.1464 89.7116,-730.0299"/>
<text text-anchor="middle" x="74" y="-727.8" font-family="Times,serif" font-size="14.00" fill="#000000">i1</text>
<text text-anchor="middle" x="393.5" y="-966.8" font-family="Times,serif" font-size="14.00" fill="#000000">/right&#45;lt</text>
</g>
<!-- initializerr12_1 -->
<!-- initializerr12_1&#45;&gt;r12 -->
<g id="edge17" class="edge">
<title>initializerr12_1&#45;&gt;r12:ne</title>
<path fill="none" stroke="#0000ff" stroke-dasharray="1,5" d="M358,-1250.6997C358,-1235.9349 358,-1214.6302 358,-1196 358,-1196 358,-1196 358,-1050 358,-1037.6615 365.0206,-1007.5219 362.1137,-990.5699"/>
<polygon fill="#0000ff" stroke="#0000ff" points="365.1647,-988.805 358,-981 358.7337,-991.5694 365.1647,-988.805"/>
<text text-anchor="middle" x="363" y="-1119.3" font-family="Times,serif" font-size="14.00" fill="#000000">2</text>
</g>
<!-- r10&#45;&gt;r7 -->
<g id="edge26" class="edge">
<title>r10:e&#45;&gt;r7:ne</title>
<path fill="none" stroke="#000000" d="M579,-706C584.8458,-706 580.2739,-685.1712 583,-680 592.0912,-662.7547 599.4337,-661.7363 615,-650 651.8177,-622.2411 732.7089,-626.501 718.2577,-599.912"/>
<polygon fill="#000000" stroke="#000000" points="720.9486,-597.6721 712,-592 715.4583,-602.0146 720.9486,-597.6721"/>
<text text-anchor="middle" x="730" y="-595.8" font-family="Times,serif" font-size="14.00" fill="#000000">right</text>
</g>
<!-- r8&#45;&gt;r8 -->
<g id="edge31" class="edge">
<title>r8:se&#45;&gt;r8:ne</title>
<path fill="none" stroke="#000000" d="M297,-689C338.1151,-680 403.3454,-680 403.3454,-706 403.3454,-729.9688 347.9092,-731.8413 307.0353,-724.9365"/>
<polygon fill="#000000" stroke="#000000" points="307.482,-721.4582 297,-723 306.1557,-728.3314 307.482,-721.4582"/>
<text text-anchor="middle" x="304" y="-726.8" font-family="Times,serif" font-size="14.00" fill="#000000">i2</text>
<text text-anchor="middle" x="287.5" y="-677.8" font-family="Times,serif" font-size="14.00" fill="#000000">/i2</text>
</g>
<!-- r8&#45;&gt;r7 -->
<g id="edge32" class="edge">
<title>r8:se&#45;&gt;r7:ne</title>
<path fill="none" stroke="#000000" d="M297,-689C327.1489,-658.8511 666.5939,-631.5014 709.4767,-601.9101"/>
<polygon fill="#000000" stroke="#000000" points="712.9243,-602.5544 712,-592 706.1407,-600.8272 712.9243,-602.5544"/>
<text text-anchor="middle" x="694" y="-595.8" font-family="Times,serif" font-size="14.00" fill="#000000">right</text>
<text text-anchor="middle" x="314.5" y="-677.8" font-family="Times,serif" font-size="14.00" fill="#000000">/sum</text>
</g>
<!-- r11&#45;&gt;r12 -->
<g id="edge24" class="edge">
<title>r11:se&#45;&gt;r12:ne</title>
<path fill="none" stroke="#000000" d="M98,-689C110.632,-676.368 121.1655,-683.6021 138.1949,-689 145.5035,-691.3166 251,-760.8331 251,-768.5 251,-907.5 251,-907.5 251,-907.5 251,-946.0976 396.4254,-914.905 420.5928,-945 420.5928,-945 383.9021,-966.1025 366.7033,-975.9944"/>
<polygon fill="#000000" stroke="#000000" points="364.9235,-972.9803 358,-981 368.4135,-979.0483 364.9235,-972.9803"/>
<text text-anchor="middle" x="376" y="-984.8" font-family="Times,serif" font-size="14.00" fill="#000000">right</text>
<text text-anchor="middle" x="80.5" y="-677.8" font-family="Times,serif" font-size="14.00" fill="#000000">/sum</text>
</g>
<!-- r11&#45;&gt;r11 -->
<g id="edge23" class="edge">
<title>r11:se&#45;&gt;r11:ne</title>
<path fill="none" stroke="#000000" d="M98,-689C141.065,-680 210.1949,-680 210.1949,-706 210.1949,-730.0703 150.9457,-731.8568 107.9805,-724.8482"/>
<polygon fill="#000000" stroke="#000000" points="108.4702,-721.3795 98,-723 107.1955,-728.2625 108.4702,-721.3795"/>
<text text-anchor="middle" x="91" y="-726.8" font-family="Times,serif" font-size="14.00" fill="#000000">i2</text>
<text text-anchor="middle" x="107.5" y="-677.8" font-family="Times,serif" font-size="14.00" fill="#000000">/i2</text>
</g>
<!-- initializerr11_1 -->
<!-- initializerr11_1&#45;&gt;r11 -->
<g id="edge22" class="edge">
<title>initializerr11_1&#45;&gt;r11:w</title>
<path fill="none" stroke="#0000ff" stroke-dasharray="1,5" d="M103.5,-944.5375C102.25,-933.7583 101,-919.8833 101,-907.5 101,-907.5 101,-907.5 101,-768.5 101,-728.9738 43.7558,-758.2349 24,-724 22.5006,-721.4016 21.0007,-718.2208 20.1335,-715.2597"/>
<polygon fill="#0000ff" stroke="#0000ff" points="23.3765,-716.5765 24,-706 16.917,-713.8792 23.3765,-716.5765"/>
<text text-anchor="middle" x="106" y="-827.3" font-family="Times,serif" font-size="14.00" fill="#000000">1</text>
</g>
<!-- initializerr10_1 -->
<!-- initializerr10_1&#45;&gt;r10 -->
<g id="edge25" class="edge">
<title>initializerr10_1&#45;&gt;r10:w</title>
<path fill="none" stroke="#0000ff" d="M658.6156,-813.9088C626.2828,-793.7346 569.2202,-760.5861 516,-742 475.4294,-727.8316 448.4128,-757.0946 421,-724 419.0066,-721.5934 417.3498,-718.3204 416.5477,-715.225"/>
<polygon fill="#0000ff" stroke="#0000ff" points="419.8054,-716.5273 421,-706 413.5013,-713.4846 419.8054,-716.5273"/>
<text text-anchor="middle" x="596" y="-764.8" font-family="Times,serif" font-size="14.00" fill="#000000">2</text>
</g>
<!-- r7&#45;&gt;r4 -->
<g id="edge27" class="edge">
<title>r7:e&#45;&gt;r4:n</title>
<path fill="none" stroke="#000000" d="M769,-574C818.669,-574 866,-568.169 866,-518.5 866,-518.5 866,-518.5 866,-248.5 866,-205.1448 947.0445,-243.4975 960.974,-214.1858"/>
<polygon fill="#000000" stroke="#000000" points="964.4819,-214.4907 963,-204 957.6164,-213.1251 964.4819,-214.4907"/>
<text text-anchor="middle" x="943.5" y="-207.8" font-family="Times,serif" font-size="14.00" fill="#000000">value</text>
<text text-anchor="middle" x="801" y="-577.8" font-family="Times,serif" font-size="14.00" fill="#000000">/right&#45;lte</text>
</g>
<!-- r7&#45;&gt;r8 -->
<g id="edge29" class="edge">
<title>r7:e&#45;&gt;r8:n</title>
<path fill="none" stroke="#000000" d="M769,-574C777,-574 773.3864,-585.3098 769,-592 744.5531,-629.2867 719.7456,-619.3207 677,-632 579.3509,-660.9649 551.578,-653.9259 451,-670 421.7037,-674.6821 412.1064,-667.9401 385,-680 356.8234,-692.536 360.3841,-713.6159 331.3454,-724 323.7073,-726.7314 300.978,-731.3461 288.4758,-729.6858"/>
<polygon fill="#000000" stroke="#000000" points="290.2544,-726.6643 280,-724 286.3547,-732.4775 290.2544,-726.6643"/>
<text text-anchor="middle" x="273" y="-727.8" font-family="Times,serif" font-size="14.00" fill="#000000">i1</text>
<text text-anchor="middle" x="796.5" y="-562.8" font-family="Times,serif" font-size="14.00" fill="#000000">/right&#45;lt</text>
</g>
<!-- r7&#45;&gt;r7 -->
<g id="edge28" class="edge">
<title>r7:s&#45;&gt;r7:n</title>
<path fill="none" stroke="#000000" d="M694,-556C742.9145,-547 840.7434,-547 840.7434,-574 840.7434,-599.2598 755.1188,-600.8878 704.0284,-593.6233"/>
<polygon fill="#000000" stroke="#000000" points="704.4308,-590.1429 694,-592 703.3122,-597.053 704.4308,-590.1429"/>
<text text-anchor="middle" x="681.5" y="-580.8" font-family="Times,serif" font-size="14.00" fill="#000000">left</text>
<text text-anchor="middle" x="669.5" y="-544.8" font-family="Times,serif" font-size="14.00" fill="#000000">/left&#45;gt</text>
</g>
<!-- r13 -->
<g id="node19" class="node">
<title>r13</title>
<g id="a_node19"><a xlink:href="file:///home/travis/build/andrewdavidmackenzie/flow/flowstdlib/control/join/join.html" xlink:title="join (#13)">
<ellipse fill="#ff7f50" stroke="#000000" cx="668" cy="-186" rx="57.3905" ry="18"/>
<text text-anchor="middle" x="668" y="-182.3" font-family="Times,serif" font-size="14.00" fill="#000000">join (#13)</text>
</a>
</g>
</g>
<!-- r7&#45;&gt;r13 -->
<g id="edge30" class="edge">
<title>r7:sw&#45;&gt;r13:ne</title>
<path fill="none" stroke="#000000" d="M676,-556C664.1106,-544.1106 681,-535.3142 681,-518.5 681,-518.5 681,-518.5 681,-248.5 681,-232.4819 692.4278,-222.3505 690.1968,-211.7369"/>
<polygon fill="#000000" stroke="#000000" points="693.1203,-209.8053 685,-203 687.1041,-213.3838 693.1203,-209.8053"/>
<text text-anchor="middle" x="711" y="-206.8" font-family="Times,serif" font-size="14.00" fill="#000000">control</text>
<text text-anchor="middle" x="710" y="-544.8" font-family="Times,serif" font-size="14.00" fill="#000000">/right&#45;gte</text>
</g>
<!-- r14 -->
<g id="node21" class="node">
<title>r14</title>
<g id="a_node21"><a xlink:href="file:///home/travis/build/andrewdavidmackenzie/flow/flowstdlib/math/add/add.html" xlink:title="subsequence&#45;count (#14)">
<ellipse fill="#ff7f50" stroke="#000000" cx="572" cy="-34" rx="129.9769" ry="18"/>
<text text-anchor="middle" x="572" y="-30.3" font-family="Times,serif" font-size="14.00" fill="#000000">subsequence&#45;count (#14)</text>
</a>
</g>
</g>
<!-- r13&#45;&gt;r14 -->
<g id="edge36" class="edge">
<title>r13:e&#45;&gt;r14:ne</title>
<path fill="none" stroke="#000000" d="M725,-186C733,-186 728.3384,-175.2701 725,-168 693.4712,-99.3392 650.0484,-107.0437 597.4783,-59.1419"/>
<polygon fill="#000000" stroke="#000000" points="599.6492,-56.3754 590,-52 594.8146,-61.4377 599.6492,-56.3754"/>
<text text-anchor="middle" x="583" y="-55.8" font-family="Times,serif" font-size="14.00" fill="#000000">i2</text>
</g>
<!-- initializerr13_0 -->
<!-- initializerr13_0&#45;&gt;r13 -->
<g id="edge35" class="edge">
<title>initializerr13_0&#45;&gt;r13:nw</title>
<path fill="none" stroke="#0000ff" d="M532.7251,-294.0626C561.5403,-275.7357 607.3841,-244.5147 643.4598,-210.3349"/>
<polygon fill="#0000ff" stroke="#0000ff" points="646.2725,-212.4816 651,-203 641.3915,-207.464 646.2725,-212.4816"/>
<text text-anchor="middle" x="613" y="-244.8" font-family="Times,serif" font-size="14.00" fill="#000000">1</text>
</g>
<!-- r14&#45;&gt;r14 -->
<g id="edge38" class="edge">
<title>r14:se&#45;&gt;r14:n</title>
<path fill="none" stroke="#000000" d="M590,-16C657.3295,-7 773.9885,-7 773.9885,-34 773.9885,-59.6816 652.1587,-60.9356 582.3208,-53.2519"/>
<polygon fill="#000000" stroke="#000000" points="582.3487,-49.7297 572,-52 581.5058,-56.6788 582.3487,-49.7297"/>
<text text-anchor="middle" x="565" y="-55.8" font-family="Times,serif" font-size="14.00" fill="#000000">i1</text>
<text text-anchor="middle" x="572.5" y="-4.8" font-family="Times,serif" font-size="14.00" fill="#000000">/sum</text>
</g>
<!-- initializerr14_0 -->
<!-- initializerr14_0&#45;&gt;r14 -->
<g id="edge37" class="edge">
<title>initializerr14_0&#45;&gt;r14:ne</title>
<path fill="none" stroke="#0000ff" stroke-dasharray="1,5" d="M482.6496,-168.7515C521.9835,-141.4553 592.7834,-88.6133 593.608,-61.3743"/>
<polygon fill="#0000ff" stroke="#0000ff" points="596.8584,-60.0754 590,-52 590.3256,-62.5898 596.8584,-60.0754"/>
<text text-anchor="middle" x="583" y="-103.3" font-family="Times,serif" font-size="14.00" fill="#000000">1</text>
</g>
</g>
</svg>
