<?xml version="1.0" encoding="UTF-8" standalone="no"?>
<!DOCTYPE svg PUBLIC "-//W3C//DTD SVG 1.1//EN"
 "http://www.w3.org/Graphics/SVG/1.1/DTD/svg11.dtd">
<!-- Generated by graphviz version 2.44.0 (20200408.0750)
 -->
<!-- Title: prime Pages: 1 -->
<svg width="1940pt" height="877pt"
 viewBox="0.00 0.00 1940.49 877.00" xmlns="http://www.w3.org/2000/svg" xmlns:xlink="http://www.w3.org/1999/xlink">
<g id="graph0" class="graph" transform="scale(1 1) rotate(0) translate(4 873)">
<title>prime</title>
<polygon fill="white" stroke="transparent" points="-4,4 -4,-873 1936.49,-873 1936.49,4 -4,4"/>
<text text-anchor="middle" x="966.25" y="-853.8" font-family="Times,serif" font-size="14.00">/prime</text>
<g id="clust1" class="cluster">
<title>cluster_candidates</title>
<polygon fill="none" stroke="black" points="1542,-436 1542,-783 1886,-783 1886,-436 1542,-436"/>
<text text-anchor="middle" x="1714" y="-767.8" font-family="Times,serif" font-size="14.00">/prime/candidates</text>
</g>
<g id="clust2" class="cluster">
<title>cluster_composites</title>
<polygon fill="none" stroke="black" points="8,-8 8,-652 1204,-652 1204,-8 8,-8"/>
<text text-anchor="middle" x="606" y="-636.8" font-family="Times,serif" font-size="14.00">/prime/composites</text>
</g>
<g id="clust3" class="cluster">
<title>cluster_divisors</title>
<polygon fill="none" stroke="black" points="714,-305 714,-621 1196,-621 1196,-305 714,-305"/>
<text text-anchor="middle" x="955" y="-605.8" font-family="Times,serif" font-size="14.00">/prime/composites/divisors</text>
</g>
<g id="clust4" class="cluster">
<title>cluster_generate_composites</title>
<polygon fill="none" stroke="black" points="202,-93 202,-403 706,-403 706,-93 202,-93"/>
<text text-anchor="middle" x="454" y="-387.8" font-family="Times,serif" font-size="14.00">/prime/composites/generate_composites</text>
</g>
<g id="clust5" class="cluster">
<title>cluster_composite_sequence</title>
<polygon fill="none" stroke="black" points="210,-101 210,-286 698,-286 698,-101 210,-101"/>
<text text-anchor="middle" x="454" y="-270.8" font-family="Times,serif" font-size="14.00">/prime/composites/generate_composites/composite&#45;sequence</text>
</g>
<!-- r0 -->
<g id="node1" class="node">
<title>r0</title>
<g id="a_node1"><a xlink:href="file:///Users/andrew/workspace/flow/flowruntime/args/get.html" xlink:title="args (#0)">
<ellipse fill="coral" stroke="black" cx="1053" cy="-828" rx="42.49" ry="18"/>
<text text-anchor="middle" x="1053" y="-824.3" font-family="Times,serif" font-size="14.00">args (#0)</text>
</a>
</g>
</g>
<!-- r1 -->
<g id="node2" class="node">
<title>r1</title>
<g id="a_node2"><a xlink:href="file:///Users/andrew/workspace/flow/flowstdlib/fmt/to_number/to_number.html" xlink:title="to_number (#1)">
<ellipse fill="coral" stroke="black" cx="1036" cy="-711" rx="66.09" ry="18"/>
<text text-anchor="middle" x="1036" y="-707.3" font-family="Times,serif" font-size="14.00">to_number (#1)</text>
</a>
</g>
</g>
<!-- r0&#45;&gt;r1 -->
<g id="edge1" class="edge">
<title>r0:sw&#45;&gt;r1:n</title>
<path fill="none" stroke="black" d="M1036,-810C1013.41,-787.41 1031.41,-769.54 1035.3,-740.35"/>
<polygon fill="black" stroke="black" points="1038.82,-740.21 1036,-730 1031.83,-739.74 1038.82,-740.21"/>
<text text-anchor="middle" x="1030.5" y="-798.8" font-family="Times,serif" font-size="14.00">/1</text>
</g>
<!-- r2 -->
<g id="node3" class="node">
<title>r2</title>
<g id="a_node3"><a xlink:href="file:///Users/andrew/workspace/flow/flowstdlib/control/compare_switch/compare_switch.html" xlink:title="compare (#2)">
<ellipse fill="coral" stroke="black" cx="1802" cy="-549" rx="58.49" ry="18"/>
<text text-anchor="middle" x="1802" y="-545.3" font-family="Times,serif" font-size="14.00">compare (#2)</text>
</a>
</g>
</g>
<!-- r1&#45;&gt;r2 -->
<g id="edge2" class="edge">
<title>r1:e&#45;&gt;r2:n</title>
<path fill="none" stroke="black" d="M1104,-711C1238.64,-711 1583.56,-705.76 1707,-652 1755.34,-630.94 1796.38,-625.09 1801.47,-578.28"/>
<polygon fill="black" stroke="black" points="1804.98,-578.17 1802,-568 1797.99,-577.81 1804.98,-578.17"/>
<text text-anchor="middle" x="1792.5" y="-571.8" font-family="Times,serif" font-size="14.00">left</text>
</g>
<!-- r4 -->
<g id="node4" class="node">
<title>r4</title>
<g id="a_node4"><a xlink:href="file:///Users/andrew/workspace/flow/flowstdlib/data/accumulate/accumulate.html" xlink:title="all&#45;numbers (#4)">
<ellipse fill="coral" stroke="black" cx="1620" cy="-462" rx="70.39" ry="18"/>
<text text-anchor="middle" x="1620" y="-458.3" font-family="Times,serif" font-size="14.00">all&#45;numbers (#4)</text>
</a>
</g>
</g>
<!-- r1&#45;&gt;r4 -->
<g id="edge3" class="edge">
<title>r1:e&#45;&gt;r4:nw</title>
<path fill="none" stroke="black" d="M1104,-711C1229.65,-711 1211.59,-590.98 1322,-531 1334.56,-524.17 1544.23,-497.13 1592.52,-483.75"/>
<polygon fill="black" stroke="black" points="1593.99,-486.93 1602,-480 1591.41,-480.42 1593.99,-486.93"/>
<text text-anchor="middle" x="1571.5" y="-483.8" font-family="Times,serif" font-size="14.00">chunk_size</text>
</g>
<!-- r5 -->
<g id="node5" class="node">
<title>r5</title>
<g id="a_node5"><a xlink:href="file:///Users/andrew/workspace/flow/flowstdlib/math/sqrt/sqrt.html" xlink:title="sqrt (#5)">
<ellipse fill="coral" stroke="black" cx="665" cy="-549" rx="40.89" ry="18"/>
<text text-anchor="middle" x="665" y="-545.3" font-family="Times,serif" font-size="14.00">sqrt (#5)</text>
</a>
</g>
</g>
<!-- r1&#45;&gt;r5 -->
<g id="edge4" class="edge">
<title>r1:e&#45;&gt;r5:n</title>
<path fill="none" stroke="black" d="M1104,-711C1112.01,-711 1108.53,-698.8 1103,-693 1042.43,-629.43 782.89,-700.96 710,-652 677.86,-630.41 666.88,-613.49 665.23,-578.4"/>
<polygon fill="black" stroke="black" points="668.72,-577.92 665,-568 661.72,-578.07 668.72,-577.92"/>
</g>
<!-- r11 -->
<g id="node6" class="node">
<title>r11</title>
<g id="a_node6"><a xlink:href="file:///Users/andrew/workspace/flow/flowstdlib/data/buffer/buffer.html" xlink:title="limit&#45;buffer (#11)">
<ellipse fill="coral" stroke="black" cx="365" cy="-331" rx="73.39" ry="18"/>
<text text-anchor="middle" x="365" y="-327.3" font-family="Times,serif" font-size="14.00">limit&#45;buffer (#11)</text>
</a>
</g>
</g>
<!-- r1&#45;&gt;r11 -->
<g id="edge5" class="edge">
<title>r1:e&#45;&gt;r11:n</title>
<path fill="none" stroke="black" d="M1104,-711C1112.01,-711 1108.69,-698.64 1103,-693 1087.59,-677.74 734.63,-676.57 713,-675 609.66,-667.5 563.4,-714.83 481,-652 369.45,-566.95 365.15,-497.26 365,-360.4"/>
<polygon fill="black" stroke="black" points="368.5,-360 365,-350 361.5,-360 368.5,-360"/>
</g>
<!-- r2&#45;&gt;r2 -->
<g id="edge8" class="edge">
<title>r2:s&#45;&gt;r2:n</title>
<path fill="none" stroke="black" d="M1802,-531C1845.5,-520.5 1932.49,-520.5 1932.49,-549 1932.49,-575.44 1857.62,-577.35 1812.06,-569.11"/>
<polygon fill="black" stroke="black" points="1812.5,-565.62 1802,-567 1811.07,-572.47 1812.5,-565.62"/>
<text text-anchor="middle" x="1811.5" y="-570.8" font-family="Times,serif" font-size="14.00">left</text>
<text text-anchor="middle" x="1783.5" y="-519.8" font-family="Times,serif" font-size="14.00">/left&#45;gt</text>
</g>
<!-- r2&#45;&gt;r4 -->
<g id="edge7" class="edge">
<title>r2:e&#45;&gt;r4:n</title>
<path fill="none" stroke="black" d="M1862,-549C1870.01,-549 1866.12,-537.16 1861,-531 1856.07,-525.06 1733.56,-499.56 1726,-498 1706.26,-493.92 1644.37,-500.92 1625.51,-488.86"/>
<polygon fill="black" stroke="black" points="1628.25,-486.64 1620,-480 1622.31,-490.34 1628.25,-486.64"/>
<text text-anchor="middle" x="1637.5" y="-483.8" font-family="Times,serif" font-size="14.00">values</text>
<text text-anchor="middle" x="1886" y="-552.8" font-family="Times,serif" font-size="14.00">/right&#45;lte</text>
</g>
<!-- r3 -->
<g id="node8" class="node">
<title>r3</title>
<g id="a_node8"><a xlink:href="file:///Users/andrew/workspace/flow/flowstdlib/math/add/add.html" xlink:title="add (#3)">
<ellipse fill="coral" stroke="black" cx="1820" cy="-462" rx="40.09" ry="18"/>
<text text-anchor="middle" x="1820" y="-458.3" font-family="Times,serif" font-size="14.00">add (#3)</text>
</a>
</g>
</g>
<!-- r2&#45;&gt;r3 -->
<g id="edge9" class="edge">
<title>r2:e&#45;&gt;r3:n</title>
<path fill="none" stroke="black" d="M1862,-549C1870.01,-549 1865.32,-537.75 1861,-531 1851.78,-516.6 1837.3,-526.65 1827,-513 1820.3,-504.12 1819.69,-498.5 1819.82,-490.07"/>
<polygon fill="black" stroke="black" points="1823.32,-490.06 1820,-480 1816.32,-489.94 1823.32,-490.06"/>
<text text-anchor="middle" x="1814.5" y="-483.8" font-family="Times,serif" font-size="14.00">i1</text>
<text text-anchor="middle" x="1883" y="-537.8" font-family="Times,serif" font-size="14.00">/right&#45;lt</text>
</g>
<!-- r4&#45;&gt;r4 -->
<g id="edge14" class="edge">
<title>r4:s&#45;&gt;r4:nw</title>
<path fill="none" stroke="black" d="M1620,-444C1572.6,-433.5 1477.81,-433.5 1477.81,-462 1477.81,-488.55 1544.46,-490.37 1591.9,-482"/>
<polygon fill="black" stroke="black" points="1592.87,-485.38 1602,-480 1591.51,-478.51 1592.87,-485.38"/>
<text text-anchor="middle" x="1632.5" y="-483.8" font-family="Times,serif" font-size="14.00">chunk_size</text>
<text text-anchor="middle" x="1587.5" y="-432.8" font-family="Times,serif" font-size="14.00">/chunk_size</text>
</g>
<!-- r4&#45;&gt;r4 -->
<g id="edge15" class="edge">
<title>r4:e&#45;&gt;r4:ne</title>
<path fill="none" stroke="black" d="M1690,-462C1714.19,-451.5 1762.19,-451.5 1762.19,-471 1762.19,-489.17 1695.54,-490.41 1648.1,-482"/>
<polygon fill="black" stroke="black" points="1648.49,-478.51 1638,-480 1647.13,-485.38 1648.49,-478.51"/>
<text text-anchor="middle" x="1620.5" y="-468.8" font-family="Times,serif" font-size="14.00">partial</text>
<text text-anchor="middle" x="1709.5" y="-465.8" font-family="Times,serif" font-size="14.00">/partial</text>
</g>
<!-- r14 -->
<g id="node11" class="node">
<title>r14</title>
<g id="a_node11"><a xlink:href="file:///Users/andrew/workspace/flow/flowstdlib/data/remove/remove.html" xlink:title="subtract (#14)">
<ellipse fill="coral" stroke="black" cx="612" cy="-127" rx="59.59" ry="18"/>
<text text-anchor="middle" x="612" y="-123.3" font-family="Times,serif" font-size="14.00">subtract (#14)</text>
</a>
</g>
</g>
<!-- r4&#45;&gt;r14 -->
<g id="edge16" class="edge">
<title>r4:s&#45;&gt;r14:ne</title>
<path fill="none" stroke="black" d="M1620,-443C1620,45.22 749.16,-182.03 638.94,-149.62"/>
<polygon fill="black" stroke="black" points="640.49,-146.49 630,-145 637.27,-152.7 640.49,-146.49"/>
<text text-anchor="middle" x="616" y="-148.8" font-family="Times,serif" font-size="14.00">array</text>
<text text-anchor="middle" x="1638.5" y="-431.8" font-family="Times,serif" font-size="14.00">/chunk</text>
</g>
<!-- r6 -->
<g id="node12" class="node">
<title>r6</title>
<g id="a_node12"><a xlink:href="file:///Users/andrew/workspace/flow/flowstdlib/control/compare_switch/compare_switch.html" xlink:title="compare (#6)">
<ellipse fill="coral" stroke="black" cx="973" cy="-462" rx="58.49" ry="18"/>
<text text-anchor="middle" x="973" y="-458.3" font-family="Times,serif" font-size="14.00">compare (#6)</text>
</a>
</g>
</g>
<!-- r5&#45;&gt;r6 -->
<g id="edge17" class="edge">
<title>r5:e&#45;&gt;r6:n</title>
<path fill="none" stroke="black" d="M707,-549C711.06,-549 707.17,-533.91 710,-531 790.56,-448.29 962.19,-590 972.51,-490.08"/>
<polygon fill="black" stroke="black" points="976.01,-490.16 973,-480 969.02,-489.82 976.01,-490.16"/>
<text text-anchor="middle" x="963.5" y="-483.8" font-family="Times,serif" font-size="14.00">left</text>
</g>
<!-- r11&#45;&gt;r11 -->
<g id="edge35" class="edge">
<title>r11:e&#45;&gt;r11:n</title>
<path fill="none" stroke="black" d="M439,-331C462.44,-322 510.44,-322 510.44,-340 510.44,-356.84 425.58,-357.93 374.94,-350.63"/>
<polygon fill="black" stroke="black" points="375.43,-347.16 365,-349 374.3,-354.07 375.43,-347.16"/>
</g>
<!-- r9 -->
<g id="node19" class="node">
<title>r9</title>
<g id="a_node19"><a xlink:href="file:///Users/andrew/workspace/flow/flowstdlib/control/compare_switch/compare_switch.html" xlink:title="compare (#9)">
<ellipse fill="coral" stroke="black" cx="553" cy="-214" rx="58.49" ry="18"/>
<text text-anchor="middle" x="553" y="-210.3" font-family="Times,serif" font-size="14.00">compare (#9)</text>
</a>
</g>
</g>
<!-- r11&#45;&gt;r9 -->
<g id="edge36" class="edge">
<title>r11:e&#45;&gt;r9:n</title>
<path fill="none" stroke="black" d="M440,-331C454.48,-331 529.48,-269.25 548.57,-242.34"/>
<polygon fill="black" stroke="black" points="551.88,-243.54 553,-233 545.55,-240.54 551.88,-243.54"/>
<text text-anchor="middle" x="543.5" y="-236.8" font-family="Times,serif" font-size="14.00">left</text>
</g>
<!-- initializerr2_1 -->
<!-- initializerr2_1&#45;&gt;r2 -->
<g id="edge6" class="edge">
<title>initializerr2_1&#45;&gt;r2:ne</title>
<path fill="none" stroke="blue" stroke-dasharray="1,5" d="M1824.82,-693.04C1834.84,-665.2 1849.91,-609.47 1825.62,-574.88"/>
<polygon fill="blue" stroke="blue" points="1828.11,-572.41 1819,-567 1822.75,-576.91 1828.11,-572.41"/>
<text text-anchor="middle" x="1836.5" y="-663.8" font-family="Times,serif" font-size="14.00">1</text>
</g>
<!-- r3&#45;&gt;r2 -->
<g id="edge12" class="edge">
<title>r3:se&#45;&gt;r2:ne</title>
<path fill="none" stroke="black" d="M1837,-444C1876.05,-404.95 1899.07,-526.49 1860.49,-566 1855.81,-570.8 1839.47,-572.59 1828.39,-570.72"/>
<polygon fill="black" stroke="black" points="1829.59,-567.43 1819,-567 1827.01,-573.94 1829.59,-567.43"/>
<text text-anchor="middle" x="1832" y="-570.8" font-family="Times,serif" font-size="14.00">right</text>
<text text-anchor="middle" x="1823" y="-432.8" font-family="Times,serif" font-size="14.00">/sum</text>
</g>
<!-- r3&#45;&gt;r3 -->
<g id="edge11" class="edge">
<title>r3:se&#45;&gt;r3:ne</title>
<path fill="none" stroke="black" d="M1837,-445C1874.43,-434.5 1932.3,-434.5 1932.3,-462 1932.3,-487.14 1883.95,-489.3 1847.05,-481.46"/>
<polygon fill="black" stroke="black" points="1847.55,-477.98 1837,-479 1845.88,-484.78 1847.55,-477.98"/>
<text text-anchor="middle" x="1831.5" y="-482.8" font-family="Times,serif" font-size="14.00">i2</text>
<text text-anchor="middle" x="1844.5" y="-433.8" font-family="Times,serif" font-size="14.00">/i2</text>
</g>
<!-- initializerr3_1 -->
<!-- initializerr3_1&#45;&gt;r3 -->
<g id="edge10" class="edge">
<title>initializerr3_1&#45;&gt;r3:w</title>
<path fill="none" stroke="blue" stroke-dasharray="1,5" d="M1640.38,-533.13C1667.37,-519.43 1708.46,-498.49 1744,-480 1755.49,-474.02 1759.27,-466.77 1767.87,-463.6"/>
<polygon fill="blue" stroke="blue" points="1768.67,-467.02 1778,-462 1767.58,-460.11 1768.67,-467.02"/>
<text text-anchor="middle" x="1710.5" y="-501.8" font-family="Times,serif" font-size="14.00">1</text>
</g>
<!-- initializerr4_1 -->
<!-- initializerr4_1&#45;&gt;r4 -->
<g id="edge13" class="edge">
<title>initializerr4_1&#45;&gt;r4:n</title>
<path fill="none" stroke="blue" stroke-dasharray="1,5" d="M1463.84,-537.25C1514.36,-524.84 1591.44,-504.1 1613.75,-488.09"/>
<polygon fill="blue" stroke="blue" points="1616.66,-490.05 1620,-480 1611.12,-485.78 1616.66,-490.05"/>
<text text-anchor="middle" x="1595" y="-501.8" font-family="Times,serif" font-size="14.00">[]</text>
</g>
<!-- r14&#45;&gt;r14 -->
<g id="edge42" class="edge">
<title>r14:e&#45;&gt;r14:ne</title>
<path fill="none" stroke="black" d="M672,-127C695.79,-116.5 743.79,-116.5 743.79,-136 743.79,-154.09 683.66,-155.4 639.89,-147.11"/>
<polygon fill="black" stroke="black" points="640.51,-143.66 630,-145 639.05,-150.51 640.51,-143.66"/>
<text text-anchor="middle" x="644" y="-148.8" font-family="Times,serif" font-size="14.00">array</text>
</g>
<!-- r6&#45;&gt;r6 -->
<g id="edge21" class="edge">
<title>r6:s&#45;&gt;r6:n</title>
<path fill="none" stroke="black" d="M973,-444C1016.5,-433.5 1103.49,-433.5 1103.49,-462 1103.49,-488.44 1028.62,-490.35 983.06,-482.11"/>
<polygon fill="black" stroke="black" points="983.5,-478.62 973,-480 982.07,-485.47 983.5,-478.62"/>
<text text-anchor="middle" x="982.5" y="-483.8" font-family="Times,serif" font-size="14.00">left</text>
<text text-anchor="middle" x="954.5" y="-432.8" font-family="Times,serif" font-size="14.00">/left&#45;gt</text>
</g>
<!-- r8 -->
<g id="node14" class="node">
<title>r8</title>
<g id="a_node14"><a xlink:href="file:///Users/andrew/workspace/flow/flowstdlib/math/multiply/multiply.html" xlink:title="multiply (#8)">
<ellipse fill="coral" stroke="black" cx="1130" cy="-331" rx="57.69" ry="18"/>
<text text-anchor="middle" x="1130" y="-327.3" font-family="Times,serif" font-size="14.00">multiply (#8)</text>
</a>
</g>
</g>
<!-- r6&#45;&gt;r8 -->
<g id="edge19" class="edge">
<title>r6:e&#45;&gt;r8:n</title>
<path fill="none" stroke="black" d="M1033,-462C1095.38,-462 1126.62,-420.59 1129.74,-360.25"/>
<polygon fill="black" stroke="black" points="1133.24,-360.09 1130,-350 1126.25,-359.91 1133.24,-360.09"/>
<text text-anchor="middle" x="1124.5" y="-353.8" font-family="Times,serif" font-size="14.00">i1</text>
<text text-anchor="middle" x="1057" y="-465.8" font-family="Times,serif" font-size="14.00">/right&#45;lte</text>
</g>
<!-- r10 -->
<g id="node15" class="node">
<title>r10</title>
<g id="a_node15"><a xlink:href="file:///Users/andrew/workspace/flow/flowstdlib/math/add/add.html" xlink:title="add (#10)">
<ellipse fill="coral" stroke="black" cx="937" cy="-331" rx="44.69" ry="18"/>
<text text-anchor="middle" x="937" y="-327.3" font-family="Times,serif" font-size="14.00">add (#10)</text>
</a>
</g>
</g>
<!-- r6&#45;&gt;r10 -->
<g id="edge20" class="edge">
<title>r6:e&#45;&gt;r10:ne</title>
<path fill="none" stroke="black" d="M1033,-462C1046.76,-462 1036.83,-434.5 1022,-411 1002.14,-379.52 986.06,-377.94 961.52,-356.11"/>
<polygon fill="black" stroke="black" points="963.67,-353.32 954,-349 958.87,-358.41 963.67,-353.32"/>
<text text-anchor="middle" x="948.5" y="-352.8" font-family="Times,serif" font-size="14.00">i2</text>
<text text-anchor="middle" x="1057" y="-450.8" font-family="Times,serif" font-size="14.00">/right&#45;lte</text>
</g>
<!-- r7 -->
<g id="node16" class="node">
<title>r7</title>
<g id="a_node16"><a xlink:href="file:///Users/andrew/workspace/flow/flowstdlib/math/add/add.html" xlink:title="add (#7)">
<ellipse fill="coral" stroke="black" cx="762" cy="-331" rx="40.09" ry="18"/>
<text text-anchor="middle" x="762" y="-327.3" font-family="Times,serif" font-size="14.00">add (#7)</text>
</a>
</g>
</g>
<!-- r6&#45;&gt;r7 -->
<g id="edge22" class="edge">
<title>r6:e&#45;&gt;r7:n</title>
<path fill="none" stroke="black" d="M1033,-462C1072.61,-462 1102.92,-449.64 973,-411 882.91,-384.2 770.68,-442.96 762.48,-360.21"/>
<polygon fill="black" stroke="black" points="765.96,-359.83 762,-350 758.97,-360.15 765.96,-359.83"/>
<text text-anchor="middle" x="756.5" y="-353.8" font-family="Times,serif" font-size="14.00">i1</text>
<text text-anchor="middle" x="1012" y="-465.8" font-family="Times,serif" font-size="14.00">/right&#45;lt</text>
</g>
<!-- initializerr6_1 -->
<!-- initializerr6_1&#45;&gt;r6 -->
<g id="edge18" class="edge">
<title>initializerr6_1&#45;&gt;r6:ne</title>
<path fill="none" stroke="blue" stroke-dasharray="1,5" d="M995.96,-530.94C999.38,-518.33 1001.91,-501.18 995.75,-488.21"/>
<polygon fill="blue" stroke="blue" points="998.6,-486.18 990,-480 992.87,-490.2 998.6,-486.18"/>
<text text-anchor="middle" x="1003.5" y="-501.8" font-family="Times,serif" font-size="14.00">2</text>
</g>
<!-- r8&#45;&gt;r9 -->
<g id="edge27" class="edge">
<title>r8:e&#45;&gt;r9:ne</title>
<path fill="none" stroke="black" d="M1189,-331C1197.01,-331 1193.45,-318.87 1188,-313 1096.09,-213.94 688.54,-324.29 577.75,-238.79"/>
<polygon fill="black" stroke="black" points="579.83,-235.96 570,-232 575.21,-241.22 579.83,-235.96"/>
<text text-anchor="middle" x="583" y="-235.8" font-family="Times,serif" font-size="14.00">right</text>
</g>
<!-- r10&#45;&gt;r10 -->
<g id="edge33" class="edge">
<title>r10:se&#45;&gt;r10:ne</title>
<path fill="none" stroke="black" d="M954,-314C992.95,-305 1053.85,-305 1053.85,-331 1053.85,-354.87 1002.53,-356.83 963.98,-350.02"/>
<polygon fill="black" stroke="black" points="964.5,-346.56 954,-348 963.11,-353.42 964.5,-346.56"/>
<text text-anchor="middle" x="959.5" y="-351.8" font-family="Times,serif" font-size="14.00">i2</text>
<text text-anchor="middle" x="946.5" y="-302.8" font-family="Times,serif" font-size="14.00">/i2</text>
</g>
<!-- r10&#45;&gt;r9 -->
<g id="edge34" class="edge">
<title>r10:se&#45;&gt;r9:ne</title>
<path fill="none" stroke="black" d="M954,-313C960.75,-306.25 951.74,-299.59 944,-294 810.19,-197.4 694,-344.86 577.33,-238.99"/>
<polygon fill="black" stroke="black" points="579.65,-236.37 570,-232 574.82,-241.43 579.65,-236.37"/>
<text text-anchor="middle" x="557" y="-235.8" font-family="Times,serif" font-size="14.00">right</text>
<text text-anchor="middle" x="968" y="-301.8" font-family="Times,serif" font-size="14.00">/sum</text>
</g>
<!-- r7&#45;&gt;r6 -->
<g id="edge25" class="edge">
<title>r7:se&#45;&gt;r6:ne</title>
<path fill="none" stroke="black" d="M779,-313C816.22,-275.78 814.56,-370.53 856,-403 883.11,-424.24 896.53,-417.87 930,-426 952.26,-431.41 1016.78,-426.45 1031.49,-444 1041.49,-455.92 1042.36,-467.87 1031.49,-479 1026.81,-483.8 1010.47,-485.59 999.39,-483.72"/>
<polygon fill="black" stroke="black" points="1000.59,-480.43 990,-480 998.01,-486.94 1000.59,-480.43"/>
<text text-anchor="middle" x="1003" y="-483.8" font-family="Times,serif" font-size="14.00">right</text>
<text text-anchor="middle" x="765" y="-301.8" font-family="Times,serif" font-size="14.00">/sum</text>
</g>
<!-- r7&#45;&gt;r7 -->
<g id="edge24" class="edge">
<title>r7:se&#45;&gt;r7:ne</title>
<path fill="none" stroke="black" d="M779,-314C816.43,-305 874.3,-305 874.3,-331 874.3,-354.77 825.95,-356.81 789.05,-350.11"/>
<polygon fill="black" stroke="black" points="789.51,-346.63 779,-348 788.07,-353.48 789.51,-346.63"/>
<text text-anchor="middle" x="773.5" y="-351.8" font-family="Times,serif" font-size="14.00">i2</text>
<text text-anchor="middle" x="786.5" y="-302.8" font-family="Times,serif" font-size="14.00">/i2</text>
</g>
<!-- initializerr7_1 -->
<!-- initializerr7_1&#45;&gt;r7 -->
<g id="edge23" class="edge">
<title>initializerr7_1&#45;&gt;r7:w</title>
<path fill="none" stroke="blue" stroke-dasharray="1,5" d="M769.72,-444.2C755.1,-423.16 731.36,-385.42 721,-349 720.57,-347.49 719.71,-344.42 719.07,-341.23"/>
<polygon fill="blue" stroke="blue" points="722.58,-341.28 720,-331 715.61,-340.64 722.58,-341.28"/>
<text text-anchor="middle" x="761.5" y="-414.8" font-family="Times,serif" font-size="14.00">1</text>
</g>
<!-- initializerr8_1 -->
<!-- initializerr8_1&#45;&gt;r8 -->
<g id="edge26" class="edge">
<title>initializerr8_1&#45;&gt;r8:w</title>
<path fill="none" stroke="blue" d="M607.29,-348.36C627.27,-366.02 661.11,-392.28 696,-403 732.11,-414.1 1004.1,-423.24 1036,-403 1062.52,-386.17 1041.76,-342.94 1061.01,-333.04"/>
<polygon fill="blue" stroke="blue" points="1061.9,-336.43 1071,-331 1060.5,-329.57 1061.9,-336.43"/>
<text text-anchor="middle" x="952" y="-414.8" font-family="Times,serif" font-size="14.00">2</text>
</g>
<!-- r9&#45;&gt;r14 -->
<g id="edge28" class="edge">
<title>r9:e&#45;&gt;r14:n</title>
<path fill="none" stroke="black" d="M613,-214C640.32,-214 618.18,-183.6 613.01,-155.28"/>
<polygon fill="black" stroke="black" points="616.46,-154.61 612,-145 609.5,-155.3 616.46,-154.61"/>
<text text-anchor="middle" x="597" y="-148.8" font-family="Times,serif" font-size="14.00">value</text>
<text text-anchor="middle" x="637" y="-217.8" font-family="Times,serif" font-size="14.00">/right&#45;lte</text>
</g>
<!-- r9&#45;&gt;r10 -->
<g id="edge31" class="edge">
<title>r9:e&#45;&gt;r10:n</title>
<path fill="none" stroke="black" d="M613,-214C623.61,-214 975.39,-304.58 981.85,-313 991.58,-325.7 993.03,-337.56 981.85,-349 977,-353.96 957.21,-357.32 945.6,-355.56"/>
<polygon fill="black" stroke="black" points="947.3,-352.49 937,-350 943.5,-358.37 947.3,-352.49"/>
<text text-anchor="middle" x="931.5" y="-353.8" font-family="Times,serif" font-size="14.00">i1</text>
<text text-anchor="middle" x="634" y="-202.8" font-family="Times,serif" font-size="14.00">/right&#45;lt</text>
</g>
<!-- r9&#45;&gt;r9 -->
<g id="edge30" class="edge">
<title>r9:s&#45;&gt;r9:n</title>
<path fill="none" stroke="black" d="M553,-196C596.5,-185.5 683.49,-185.5 683.49,-214 683.49,-240.44 608.62,-242.35 563.06,-234.11"/>
<polygon fill="black" stroke="black" points="563.5,-230.62 553,-232 562.07,-237.47 563.5,-230.62"/>
<text text-anchor="middle" x="543.5" y="-220.8" font-family="Times,serif" font-size="14.00">left</text>
<text text-anchor="middle" x="534.5" y="-184.8" font-family="Times,serif" font-size="14.00">/left&#45;gt</text>
</g>
<!-- r15 -->
<g id="node20" class="node">
<title>r15</title>
<g id="a_node20"><a xlink:href="file:///Users/andrew/workspace/flow/flowruntime/stdio/stdout.html" xlink:title="print (#15)">
<ellipse fill="coral" stroke="black" cx="431" cy="-127" rx="48.99" ry="18"/>
<text text-anchor="middle" x="431" y="-123.3" font-family="Times,serif" font-size="14.00">print (#15)</text>
</a>
</g>
</g>
<!-- r9&#45;&gt;r15 -->
<g id="edge29" class="edge">
<title>r9:e&#45;&gt;r15:n</title>
<path fill="none" stroke="black" d="M613,-214C621.01,-214 617.01,-202.25 612,-196 562.07,-133.72 442.41,-220.12 431.76,-155.2"/>
<polygon fill="black" stroke="black" points="435.23,-154.71 431,-145 428.25,-155.23 435.23,-154.71"/>
<text text-anchor="middle" x="637" y="-202.8" font-family="Times,serif" font-size="14.00">/right&#45;lte</text>
</g>
<!-- r12 -->
<g id="node21" class="node">
<title>r12</title>
<g id="a_node21"><a xlink:href="file:///Users/andrew/workspace/flow/flowstdlib/control/join/join.html" xlink:title="join (#12)">
<ellipse fill="coral" stroke="black" cx="264" cy="-127" rx="46.29" ry="18"/>
<text text-anchor="middle" x="264" y="-123.3" font-family="Times,serif" font-size="14.00">join (#12)</text>
</a>
</g>
</g>
<!-- r9&#45;&gt;r12 -->
<g id="edge32" class="edge">
<title>r9:sw&#45;&gt;r12:ne</title>
<path fill="none" stroke="black" d="M536,-196C498.18,-158.18 467.49,-195.67 417,-178 404.41,-173.59 403.56,-167.48 391,-163 347.81,-147.59 320.33,-175.31 288.7,-151.71"/>
<polygon fill="black" stroke="black" points="290.84,-148.93 281,-145 286.24,-154.21 290.84,-148.93"/>
<text text-anchor="middle" x="261.5" y="-148.8" font-family="Times,serif" font-size="14.00">control</text>
<text text-anchor="middle" x="561.5" y="-184.8" font-family="Times,serif" font-size="14.00">/right&#45;gte</text>
</g>
<!-- r13 -->
<g id="node23" class="node">
<title>r13</title>
<g id="a_node23"><a xlink:href="file:///Users/andrew/workspace/flow/flowstdlib/math/add/add.html" xlink:title="subsequence&#45;count (#13)">
<ellipse fill="coral" stroke="black" cx="204" cy="-34" rx="98.58" ry="18"/>
<text text-anchor="middle" x="204" y="-30.3" font-family="Times,serif" font-size="14.00">subsequence&#45;count (#13)</text>
</a>
</g>
</g>
<!-- r12&#45;&gt;r13 -->
<g id="edge38" class="edge">
<title>r12:e&#45;&gt;r13:ne</title>
<path fill="none" stroke="black" d="M312,-127C320.01,-127 315.04,-115.92 311,-109 289.17,-71.6 260.18,-82.94 229.76,-58.92"/>
<polygon fill="black" stroke="black" points="231.79,-56.04 222,-52 227.13,-61.27 231.79,-56.04"/>
<text text-anchor="middle" x="216.5" y="-55.8" font-family="Times,serif" font-size="14.00">i2</text>
</g>
<!-- initializerr12_0 -->
<!-- initializerr12_0&#45;&gt;r12 -->
<g id="edge37" class="edge">
<title>initializerr12_0&#45;&gt;r12:nw</title>
<path fill="none" stroke="blue" d="M163.97,-198.8C186.74,-188.37 216.38,-172.49 239.45,-152.09"/>
<polygon fill="blue" stroke="blue" points="242.11,-154.4 247,-145 237.31,-149.29 242.11,-154.4"/>
<text text-anchor="middle" x="228.5" y="-166.8" font-family="Times,serif" font-size="14.00">1</text>
</g>
<!-- r13&#45;&gt;r13 -->
<g id="edge40" class="edge">
<title>r13:se&#45;&gt;r13:n</title>
<path fill="none" stroke="black" d="M222,-16C278.93,-5.5 374.79,-5.5 374.79,-34 374.79,-60.89 273.46,-62.41 214.19,-53.68"/>
<polygon fill="black" stroke="black" points="214.44,-50.17 204,-52 213.3,-57.08 214.44,-50.17"/>
<text text-anchor="middle" x="198.5" y="-55.8" font-family="Times,serif" font-size="14.00">i1</text>
<text text-anchor="middle" x="208" y="-4.8" font-family="Times,serif" font-size="14.00">/sum</text>
</g>
<!-- initializerr13_0 -->
<!-- initializerr13_0&#45;&gt;r13 -->
<g id="edge39" class="edge">
<title>initializerr13_0&#45;&gt;r13:ne</title>
<path fill="none" stroke="blue" stroke-dasharray="1,5" d="M121.6,-112.9C160.46,-99.53 214.47,-78.46 223.32,-62.01"/>
<polygon fill="blue" stroke="blue" points="226.78,-61.46 222,-52 219.84,-62.37 226.78,-61.46"/>
<text text-anchor="middle" x="218.5" y="-73.8" font-family="Times,serif" font-size="14.00">1</text>
</g>
<!-- initializerr14_0 -->
<!-- initializerr14_0&#45;&gt;r14 -->
<g id="edge41" class="edge">
<title>initializerr14_0&#45;&gt;r14:n</title>
<path fill="none" stroke="blue" stroke-dasharray="1,5" d="M1213.54,-209.8C1060.3,-201.67 678.38,-179 619.64,-151.96"/>
<polygon fill="blue" stroke="blue" points="621.75,-149.15 612,-145 617.03,-154.32 621.75,-149.15"/>
<text text-anchor="middle" x="776.5" y="-166.8" font-family="Times,serif" font-size="14.00">9</text>
</g>
</g>
</svg>
