<?xml version="1.0" encoding="UTF-8" standalone="no"?>
<!DOCTYPE svg PUBLIC "-//W3C//DTD SVG 1.1//EN"
 "http://www.w3.org/Graphics/SVG/1.1/DTD/svg11.dtd">
<!-- Generated by graphviz version 2.40.1 (20161225.0304)
 -->
<!-- Title: prime Pages: 1 -->
<svg width="1858pt" height="1388pt"
 viewBox="0.00 0.00 1858.35 1388.00" xmlns="http://www.w3.org/2000/svg" xmlns:xlink="http://www.w3.org/1999/xlink">
<g id="graph0" class="graph" transform="scale(1 1) rotate(0) translate(4 1384)">
<title>prime</title>
<polygon fill="#ffffff" stroke="transparent" points="-4,4 -4,-1384 1854.3454,-1384 1854.3454,4 -4,4"/>
<text text-anchor="middle" x="925.1727" y="-1364.8" font-family="Times,serif" font-size="14.00" fill="#000000">/prime</text>
<g id="clust1" class="cluster">
<title>cluster_candidates</title>
<polygon fill="none" stroke="#000000" points="1388,-937 1388,-1318 1804,-1318 1804,-937 1388,-937"/>
<text text-anchor="middle" x="1596" y="-1302.8" font-family="Times,serif" font-size="14.00" fill="#000000">/prime/candidates</text>
</g>
<g id="clust2" class="cluster">
<title>cluster_composites</title>
<polygon fill="none" stroke="#000000" points="8,-8 8,-1349 1062,-1349 1062,-8 8,-8"/>
<text text-anchor="middle" x="535" y="-1333.8" font-family="Times,serif" font-size="14.00" fill="#000000">/prime/composites</text>
</g>
<g id="clust3" class="cluster">
<title>cluster_divisors</title>
<polygon fill="none" stroke="#000000" points="16,-680 16,-1318 575,-1318 575,-680 16,-680"/>
<text text-anchor="middle" x="295.5" y="-1302.8" font-family="Times,serif" font-size="14.00" fill="#000000">/prime/composites/divisors</text>
</g>
<g id="clust4" class="cluster">
<title>cluster_generate_composites</title>
<polygon fill="none" stroke="#000000" points="583,-152 583,-880 1054,-880 1054,-152 583,-152"/>
<text text-anchor="middle" x="818.5" y="-864.8" font-family="Times,serif" font-size="14.00" fill="#000000">/prime/composites/generate_composites</text>
</g>
<g id="clust5" class="cluster">
<title>cluster_composite_sequence</title>
<polygon fill="none" stroke="#000000" points="591,-160 591,-623 1046,-623 1046,-160 591,-160"/>
<text text-anchor="middle" x="818.5" y="-607.8" font-family="Times,serif" font-size="14.00" fill="#000000">/prime/composites/generate_composites/composite&#45;sequence</text>
</g>
<!-- r13 -->
<g id="node1" class="node">
<title>r13</title>
<g id="a_node1"><a xlink:href="file:///home/travis/build/andrewdavidmackenzie/flow/flowr/src/lib/flowruntime/args/get.html" xlink:title="args (#13)">
<ellipse fill="#ff7f50" stroke="#000000" cx="1130" cy="-1196" rx="60.3893" ry="18"/>
<text text-anchor="middle" x="1130" y="-1192.3" font-family="Times,serif" font-size="14.00" fill="#000000">args (#13)</text>
</a>
</g>
</g>
<!-- r3 -->
<g id="node2" class="node">
<title>r3</title>
<g id="a_node2"><a xlink:href="file:///home/travis/build/andrewdavidmackenzie/flow/flowstdlib/control/compare_switch/compare_switch.html" xlink:title="compare (#3)">
<ellipse fill="#ff7f50" stroke="#000000" cx="1471" cy="-1123" rx="74.9875" ry="18"/>
<text text-anchor="middle" x="1471" y="-1119.3" font-family="Times,serif" font-size="14.00" fill="#000000">compare (#3)</text>
</a>
</g>
</g>
<!-- r13&#45;&gt;r3 -->
<g id="edge1" class="edge">
<title>r13:e&#45;&gt;r3:n</title>
<path fill="none" stroke="#000000" d="M1191,-1196C1219.8571,-1196 1428.1329,-1176.7033 1465.3245,-1149.3312"/>
<polygon fill="#000000" stroke="#000000" points="1468.2625,-1151.2351 1471,-1141 1462.4773,-1147.294 1468.2625,-1151.2351"/>
<text text-anchor="middle" x="1458.5" y="-1144.8" font-family="Times,serif" font-size="14.00" fill="#000000">left</text>
<text text-anchor="middle" x="1215" y="-1199.8" font-family="Times,serif" font-size="14.00" fill="#000000">/json/1</text>
</g>
<!-- r14 -->
<g id="node3" class="node">
<title>r14</title>
<g id="a_node3"><a xlink:href="file:///home/travis/build/andrewdavidmackenzie/flow/flowstdlib/data/accumulate/accumulate.html" xlink:title="all&#45;numbers (#14)">
<ellipse fill="#ff7f50" stroke="#000000" cx="1491" cy="-963" rx="94.7833" ry="18"/>
<text text-anchor="middle" x="1491" y="-959.3" font-family="Times,serif" font-size="14.00" fill="#000000">all&#45;numbers (#14)</text>
</a>
</g>
</g>
<!-- r13&#45;&gt;r14 -->
<g id="edge2" class="edge">
<title>r13:e&#45;&gt;r14:nw</title>
<path fill="none" stroke="#000000" d="M1191,-1196C1264.0527,-1196 1132.9812,-1087.9099 1180,-1032 1199.6902,-1008.5864 1414.0179,-1004.8406 1464.264,-985.8732"/>
<polygon fill="#000000" stroke="#000000" points="1465.972,-988.9283 1473,-981 1462.5618,-982.8151 1465.972,-988.9283"/>
<text text-anchor="middle" x="1433" y="-984.8" font-family="Times,serif" font-size="14.00" fill="#000000">chunk_size</text>
<text text-anchor="middle" x="1215" y="-1184.8" font-family="Times,serif" font-size="14.00" fill="#000000">/json/1</text>
</g>
<!-- r6 -->
<g id="node4" class="node">
<title>r6</title>
<g id="a_node4"><a xlink:href="file:///home/travis/build/andrewdavidmackenzie/flow/flowstdlib/math/sqrt/sqrt.html" xlink:title="sqrt (#6)">
<ellipse fill="#ff7f50" stroke="#000000" cx="701" cy="-1123" rx="53.0913" ry="18"/>
<text text-anchor="middle" x="701" y="-1119.3" font-family="Times,serif" font-size="14.00" fill="#000000">sqrt (#6)</text>
</a>
</g>
</g>
<!-- r13&#45;&gt;r6 -->
<g id="edge3" class="edge">
<title>r13:e&#45;&gt;r6:n</title>
<path fill="none" stroke="#000000" d="M1191,-1196C1199,-1196 1196.486,-1183.8227 1191,-1178 1167.9485,-1153.5336 922.5073,-1162.6906 889,-1160 850.9046,-1156.941 726.4185,-1178.4954 704.3574,-1150.7339"/>
<polygon fill="#000000" stroke="#000000" points="707.5694,-1149.3122 701,-1141 700.952,-1151.5947 707.5694,-1149.3122"/>
<text text-anchor="middle" x="1167" y="-1199.8" font-family="Times,serif" font-size="14.00" fill="#000000">/json/1</text>
</g>
<!-- r9 -->
<g id="node5" class="node">
<title>r9</title>
<g id="a_node5"><a xlink:href="file:///home/travis/build/andrewdavidmackenzie/flow/flowstdlib/data/buffer/buffer.html" xlink:title="limit&#45;buffer (#9)">
<ellipse fill="#ff7f50" stroke="#000000" cx="927" cy="-831" rx="87.1846" ry="18"/>
<text text-anchor="middle" x="927" y="-827.3" font-family="Times,serif" font-size="14.00" fill="#000000">limit&#45;buffer (#9)</text>
</a>
</g>
</g>
<!-- r13&#45;&gt;r9 -->
<g id="edge4" class="edge">
<title>r13:e&#45;&gt;r9:n</title>
<path fill="none" stroke="#000000" d="M1191,-1196C1199,-1196 1196.0045,-1184.2414 1191,-1178 1120.6455,-1090.2564 944,-1235.4664 944,-1123 944,-1123 944,-1123 944,-907.5 944,-884.2319 931.4451,-877.7481 927.914,-859.2006"/>
<polygon fill="#000000" stroke="#000000" points="931.3786,-858.6477 927,-849 924.4065,-859.2725 931.3786,-858.6477"/>
<text text-anchor="middle" x="1167" y="-1184.8" font-family="Times,serif" font-size="14.00" fill="#000000">/json/1</text>
</g>
<!-- r3&#45;&gt;r3 -->
<g id="edge7" class="edge">
<title>r3:s&#45;&gt;r3:n</title>
<path fill="none" stroke="#000000" d="M1471,-1105C1519.9145,-1096 1617.7434,-1096 1617.7434,-1123 1617.7434,-1148.2598 1532.1188,-1149.8878 1481.0284,-1142.6233"/>
<polygon fill="#000000" stroke="#000000" points="1481.4308,-1139.1429 1471,-1141 1480.3122,-1146.053 1481.4308,-1139.1429"/>
<text text-anchor="middle" x="1483.5" y="-1144.8" font-family="Times,serif" font-size="14.00" fill="#000000">left</text>
<text text-anchor="middle" x="1446.5" y="-1093.8" font-family="Times,serif" font-size="14.00" fill="#000000">/left&#45;gt</text>
</g>
<!-- r3&#45;&gt;r14 -->
<g id="edge6" class="edge">
<title>r3:e&#45;&gt;r14:n</title>
<path fill="none" stroke="#000000" d="M1546,-1123C1554,-1123 1547.6578,-1112.8263 1546,-1105 1534.2386,-1049.4755 1495.8782,-1042.0296 1491.4232,-991.0475"/>
<polygon fill="#000000" stroke="#000000" points="1494.9178,-990.8438 1491,-981 1487.924,-991.1385 1494.9178,-990.8438"/>
<text text-anchor="middle" x="1514" y="-984.8" font-family="Times,serif" font-size="14.00" fill="#000000">values</text>
<text text-anchor="middle" x="1578" y="-1126.8" font-family="Times,serif" font-size="14.00" fill="#000000">/right&#45;lte</text>
</g>
<!-- r2 -->
<g id="node7" class="node">
<title>r2</title>
<g id="a_node7"><a xlink:href="file:///home/travis/build/andrewdavidmackenzie/flow/flowstdlib/math/add/add.html" xlink:title="add (#2)">
<ellipse fill="#ff7f50" stroke="#000000" cx="1727" cy="-963" rx="51.1914" ry="18"/>
<text text-anchor="middle" x="1727" y="-959.3" font-family="Times,serif" font-size="14.00" fill="#000000">add (#2)</text>
</a>
</g>
</g>
<!-- r3&#45;&gt;r2 -->
<g id="edge8" class="edge">
<title>r3:e&#45;&gt;r2:n</title>
<path fill="none" stroke="#000000" d="M1546,-1123C1548.3367,-1123 1703.4197,-1069.7213 1705,-1068 1729.5499,-1041.26 1727.6358,-1024.1648 1727.0937,-991.2381"/>
<polygon fill="#000000" stroke="#000000" points="1730.5914,-990.9675 1727,-981 1723.5917,-991.0316 1730.5914,-990.9675"/>
<text text-anchor="middle" x="1720" y="-984.8" font-family="Times,serif" font-size="14.00" fill="#000000">i1</text>
<text text-anchor="middle" x="1573.5" y="-1111.8" font-family="Times,serif" font-size="14.00" fill="#000000">/right&#45;lt</text>
</g>
<!-- r14&#45;&gt;r14 -->
<g id="edge13" class="edge">
<title>r14:s&#45;&gt;r14:nw</title>
<path fill="none" stroke="#000000" d="M1491,-945C1435.3695,-936 1324.1084,-936 1324.1084,-963 1324.1084,-988.418 1406.7606,-989.9073 1462.8599,-982.4857"/>
<polygon fill="#000000" stroke="#000000" points="1463.6131,-985.9128 1473,-981 1462.5982,-978.9868 1463.6131,-985.9128"/>
<text text-anchor="middle" x="1513" y="-984.8" font-family="Times,serif" font-size="14.00" fill="#000000">chunk_size</text>
<text text-anchor="middle" x="1448.5" y="-933.8" font-family="Times,serif" font-size="14.00" fill="#000000">/chunk_size</text>
</g>
<!-- r14&#45;&gt;r14 -->
<g id="edge14" class="edge">
<title>r14:e&#45;&gt;r14:ne</title>
<path fill="none" stroke="#000000" d="M1586,-963C1609.8916,-954 1657.8916,-954 1657.8916,-972 1657.8916,-988.9453 1575.2394,-989.9382 1519.1401,-982.4875"/>
<polygon fill="#000000" stroke="#000000" points="1519.4021,-978.9886 1509,-981 1518.3861,-985.9145 1519.4021,-978.9886"/>
<text text-anchor="middle" x="1485" y="-969.8" font-family="Times,serif" font-size="14.00" fill="#000000">partial</text>
<text text-anchor="middle" x="1612" y="-966.8" font-family="Times,serif" font-size="14.00" fill="#000000">/partial</text>
</g>
<!-- r0 -->
<g id="node10" class="node">
<title>r0</title>
<g id="a_node10"><a xlink:href="file:///home/travis/build/andrewdavidmackenzie/flow/flowstdlib/data/remove/remove.html" xlink:title="remove (#0)">
<ellipse fill="#ff7f50" stroke="#000000" cx="951" cy="-186" rx="68.7879" ry="18"/>
<text text-anchor="middle" x="951" y="-182.3" font-family="Times,serif" font-size="14.00" fill="#000000">remove (#0)</text>
</a>
</g>
</g>
<!-- r14&#45;&gt;r0 -->
<g id="edge15" class="edge">
<title>r14:s&#45;&gt;r0:ne</title>
<path fill="none" stroke="#000000" d="M1491,-945C1491,-865.4565 1316,-987.0435 1316,-907.5 1316,-907.5 1316,-907.5 1316,-248.5 1316,-96.5071 1089.474,-304.21 976.5966,-210.9156"/>
<polygon fill="#000000" stroke="#000000" points="978.7509,-208.1437 969,-204 974.0386,-213.32 978.7509,-208.1437"/>
<text text-anchor="middle" x="949.5" y="-207.8" font-family="Times,serif" font-size="14.00" fill="#000000">array</text>
<text text-anchor="middle" x="1515.5" y="-933.8" font-family="Times,serif" font-size="14.00" fill="#000000">/chunk</text>
</g>
<!-- r4 -->
<g id="node11" class="node">
<title>r4</title>
<g id="a_node11"><a xlink:href="file:///home/travis/build/andrewdavidmackenzie/flow/flowstdlib/control/compare_switch/compare_switch.html" xlink:title="compare (#4)">
<ellipse fill="#ff7f50" stroke="#000000" cx="323" cy="-963" rx="74.9875" ry="18"/>
<text text-anchor="middle" x="323" y="-959.3" font-family="Times,serif" font-size="14.00" fill="#000000">compare (#4)</text>
</a>
</g>
</g>
<!-- r6&#45;&gt;r4 -->
<g id="edge16" class="edge">
<title>r6:e&#45;&gt;r4:n</title>
<path fill="none" stroke="#000000" d="M755,-1123C763,-1123 759.8137,-1111.3897 755,-1105 748.1335,-1095.8853 392.8794,-1010.2611 331.8708,-986.0772"/>
<polygon fill="#000000" stroke="#000000" points="333.4176,-982.9298 323,-981 329.9404,-989.0051 333.4176,-982.9298"/>
<text text-anchor="middle" x="310.5" y="-984.8" font-family="Times,serif" font-size="14.00" fill="#000000">left</text>
</g>
<!-- r9&#45;&gt;r9 -->
<g id="edge33" class="edge">
<title>r9:e&#45;&gt;r9:n</title>
<path fill="none" stroke="#000000" d="M1014,-831C1038.0923,-822 1086.0923,-822 1086.0923,-840 1086.0923,-856.9102 992.4853,-857.934 937.1804,-850.5338"/>
<polygon fill="#000000" stroke="#000000" points="937.4099,-847.0289 927,-849 936.3669,-853.9508 937.4099,-847.0289"/>
</g>
<!-- r8 -->
<g id="node18" class="node">
<title>r8</title>
<g id="a_node18"><a xlink:href="file:///home/travis/build/andrewdavidmackenzie/flow/flowstdlib/control/compare_switch/compare_switch.html" xlink:title="compare (#8)">
<ellipse fill="#ff7f50" stroke="#000000" cx="679" cy="-574" rx="74.9875" ry="18"/>
<text text-anchor="middle" x="679" y="-570.3" font-family="Times,serif" font-size="14.00" fill="#000000">compare (#8)</text>
</a>
</g>
</g>
<!-- r9&#45;&gt;r8 -->
<g id="edge34" class="edge">
<title>r9:e&#45;&gt;r8:n</title>
<path fill="none" stroke="#000000" d="M1014,-831C1022,-831 1018.5507,-819.5796 1014,-813 982.1171,-766.9016 896,-824.5498 896,-768.5 896,-768.5 896,-768.5 896,-650.5 896,-554.3192 694.8066,-681.7344 679.8743,-602.1486"/>
<polygon fill="#000000" stroke="#000000" points="683.3455,-601.6626 679,-592 676.3713,-602.2635 683.3455,-601.6626"/>
<text text-anchor="middle" x="666.5" y="-595.8" font-family="Times,serif" font-size="14.00" fill="#000000">left</text>
</g>
<!-- initializerr3_1 -->
<!-- initializerr3_1&#45;&gt;r3 -->
<g id="edge5" class="edge">
<title>initializerr3_1&#45;&gt;r3:ne</title>
<path fill="none" stroke="#0000ff" stroke-dasharray="1,5" d="M1496.0147,-1250.726C1504.5932,-1225.2071 1515.6539,-1178.6884 1495.5307,-1148.9205"/>
<polygon fill="#0000ff" stroke="#0000ff" points="1498.0621,-1146.4889 1489,-1141 1492.6613,-1150.9421 1498.0621,-1146.4889"/>
<text text-anchor="middle" x="1511" y="-1192.3" font-family="Times,serif" font-size="14.00" fill="#000000">1</text>
</g>
<!-- r2&#45;&gt;r3 -->
<g id="edge11" class="edge">
<title>r2:se&#45;&gt;r3:ne</title>
<path fill="none" stroke="#000000" d="M1744,-946C1744,-946 1778.3454,-981 1778.3454,-981 1756.7927,-1005.3865 1660.3738,-981.3961 1633,-999 1570.6973,-1039.0665 1610.3947,-1104.8454 1545.7434,-1141 1537.1452,-1145.8083 1512.7904,-1148.5457 1498.2949,-1145.2616"/>
<polygon fill="#000000" stroke="#000000" points="1499.5488,-1141.9862 1489,-1141 1496.6314,-1148.3493 1499.5488,-1141.9862"/>
<text text-anchor="middle" x="1507" y="-1144.8" font-family="Times,serif" font-size="14.00" fill="#000000">right</text>
<text text-anchor="middle" x="1761.5" y="-934.8" font-family="Times,serif" font-size="14.00" fill="#000000">/sum</text>
</g>
<!-- r2&#45;&gt;r2 -->
<g id="edge10" class="edge">
<title>r2:se&#45;&gt;r2:ne</title>
<path fill="none" stroke="#000000" d="M1744,-946C1785.1151,-937 1850.3454,-937 1850.3454,-963 1850.3454,-986.9688 1794.9092,-988.8413 1754.0353,-981.9365"/>
<polygon fill="#000000" stroke="#000000" points="1754.482,-978.4582 1744,-980 1753.1557,-985.3314 1754.482,-978.4582"/>
<text text-anchor="middle" x="1737" y="-983.8" font-family="Times,serif" font-size="14.00" fill="#000000">i2</text>
<text text-anchor="middle" x="1734.5" y="-934.8" font-family="Times,serif" font-size="14.00" fill="#000000">/i2</text>
</g>
<!-- initializerr2_1 -->
<!-- initializerr2_1&#45;&gt;r2 -->
<g id="edge9" class="edge">
<title>initializerr2_1&#45;&gt;r2:w</title>
<path fill="none" stroke="#0000ff" stroke-dasharray="1,5" d="M1700.263,-1104.957C1675.7626,-1065.8916 1624.6687,-976.0393 1664.9704,-964.2781"/>
<polygon fill="#0000ff" stroke="#0000ff" points="1665.5227,-967.7361 1675,-963 1664.6378,-960.7922 1665.5227,-967.7361"/>
<text text-anchor="middle" x="1682" y="-1046.3" font-family="Times,serif" font-size="14.00" fill="#000000">1</text>
</g>
<!-- initializerr14_1 -->
<!-- initializerr14_1&#45;&gt;r14 -->
<g id="edge12" class="edge">
<title>initializerr14_1&#45;&gt;r14:n</title>
<path fill="none" stroke="#0000ff" stroke-dasharray="1,5" d="M1351.249,-1036.3052C1399.0035,-1023.3787 1464.5752,-1003.8294 1484.8056,-989.0585"/>
<polygon fill="#0000ff" stroke="#0000ff" points="1487.6805,-991.0614 1491,-981 1482.1307,-986.7953 1487.6805,-991.0614"/>
<text text-anchor="middle" x="1467.5" y="-1002.8" font-family="Times,serif" font-size="14.00" fill="#000000">[]</text>
</g>
<!-- r0&#45;&gt;r0 -->
<g id="edge39" class="edge">
<title>r0:e&#45;&gt;r0:ne</title>
<path fill="none" stroke="#000000" d="M1020,-186C1043.8939,-177 1091.8939,-177 1091.8939,-195 1091.8939,-211.7695 1025.9908,-212.9159 979.004,-205.7167"/>
<polygon fill="#000000" stroke="#000000" points="979.4479,-202.2418 969,-204 978.264,-209.1409 979.4479,-202.2418"/>
<text text-anchor="middle" x="988.5" y="-207.8" font-family="Times,serif" font-size="14.00" fill="#000000">array</text>
</g>
<!-- r1 -->
<g id="node23" class="node">
<title>r1</title>
<g id="a_node23"><a xlink:href="file:///home/travis/build/andrewdavidmackenzie/flow/flowr/src/lib/flowruntime/stdio/stdout.html" xlink:title="print (#1)">
<ellipse fill="#ff7f50" stroke="#000000" cx="1127" cy="-107" rx="57.3905" ry="18"/>
<text text-anchor="middle" x="1127" y="-103.3" font-family="Times,serif" font-size="14.00" fill="#000000">print (#1)</text>
</a>
</g>
</g>
<!-- r0&#45;&gt;r1 -->
<g id="edge40" class="edge">
<title>r0:e&#45;&gt;r1:n</title>
<path fill="none" stroke="#000000" d="M1020,-186C1071.2125,-186 1120.2531,-180.5216 1126.362,-134.9917"/>
<polygon fill="#000000" stroke="#000000" points="1129.8556,-135.2027 1127,-125 1122.8698,-134.7566 1129.8556,-135.2027"/>
</g>
<!-- r4&#45;&gt;r4 -->
<g id="edge20" class="edge">
<title>r4:s&#45;&gt;r4:n</title>
<path fill="none" stroke="#000000" d="M323,-945C371.9145,-936 469.7434,-936 469.7434,-963 469.7434,-988.2598 384.1188,-989.8878 333.0284,-982.6233"/>
<polygon fill="#000000" stroke="#000000" points="333.4308,-979.1429 323,-981 332.3122,-986.053 333.4308,-979.1429"/>
<text text-anchor="middle" x="335.5" y="-984.8" font-family="Times,serif" font-size="14.00" fill="#000000">left</text>
<text text-anchor="middle" x="298.5" y="-933.8" font-family="Times,serif" font-size="14.00" fill="#000000">/left&#45;gt</text>
</g>
<!-- r10 -->
<g id="node13" class="node">
<title>r10</title>
<g id="a_node13"><a xlink:href="file:///home/travis/build/andrewdavidmackenzie/flow/flowstdlib/math/multiply/multiply.html" xlink:title="multiply (#10)">
<ellipse fill="#ff7f50" stroke="#000000" cx="488" cy="-706" rx="78.7863" ry="18"/>
<text text-anchor="middle" x="488" y="-702.3" font-family="Times,serif" font-size="14.00" fill="#000000">multiply (#10)</text>
</a>
</g>
</g>
<!-- r4&#45;&gt;r10 -->
<g id="edge18" class="edge">
<title>r4:e&#45;&gt;r10:n</title>
<path fill="none" stroke="#000000" d="M398,-963C441.6399,-963 479,-951.1399 479,-907.5 479,-907.5 479,-907.5 479,-768.5 479,-756.5144 481.5886,-753.7405 484,-742 484.7214,-738.4879 485.5772,-736.1722 486.3117,-733.992"/>
<polygon fill="#000000" stroke="#000000" points="489.7849,-734.4434 488,-724 482.8828,-733.2771 489.7849,-734.4434"/>
<text text-anchor="middle" x="481" y="-727.8" font-family="Times,serif" font-size="14.00" fill="#000000">i1</text>
<text text-anchor="middle" x="430" y="-966.8" font-family="Times,serif" font-size="14.00" fill="#000000">/right&#45;lte</text>
</g>
<!-- r7 -->
<g id="node14" class="node">
<title>r7</title>
<g id="a_node14"><a xlink:href="file:///home/travis/build/andrewdavidmackenzie/flow/flowstdlib/math/add/add.html" xlink:title="add (#7)">
<ellipse fill="#ff7f50" stroke="#000000" cx="268" cy="-706" rx="51.1914" ry="18"/>
<text text-anchor="middle" x="268" y="-702.3" font-family="Times,serif" font-size="14.00" fill="#000000">add (#7)</text>
</a>
</g>
</g>
<!-- r4&#45;&gt;r7 -->
<g id="edge19" class="edge">
<title>r4:e&#45;&gt;r7:ne</title>
<path fill="none" stroke="#000000" d="M398,-963C406,-963 398.1066,-952.9993 398,-945 397.7778,-928.3289 397,-924.1726 397,-907.5 397,-907.5 397,-907.5 397,-768.5 397,-718.3393 332.4947,-755.294 293.0129,-729.5085"/>
<polygon fill="#000000" stroke="#000000" points="294.9688,-726.5881 285,-723 290.5554,-732.0215 294.9688,-726.5881"/>
<text text-anchor="middle" x="278" y="-726.8" font-family="Times,serif" font-size="14.00" fill="#000000">i2</text>
<text text-anchor="middle" x="430" y="-951.8" font-family="Times,serif" font-size="14.00" fill="#000000">/right&#45;lte</text>
</g>
<!-- r5 -->
<g id="node15" class="node">
<title>r5</title>
<g id="a_node15"><a xlink:href="file:///home/travis/build/andrewdavidmackenzie/flow/flowstdlib/math/add/add.html" xlink:title="add (#5)">
<ellipse fill="#ff7f50" stroke="#000000" cx="75" cy="-706" rx="51.1914" ry="18"/>
<text text-anchor="middle" x="75" y="-702.3" font-family="Times,serif" font-size="14.00" fill="#000000">add (#5)</text>
</a>
</g>
</g>
<!-- r4&#45;&gt;r5 -->
<g id="edge21" class="edge">
<title>r4:e&#45;&gt;r5:n</title>
<path fill="none" stroke="#000000" d="M398,-963C406,-963 401.7323,-952.076 398,-945 388.6883,-927.3461 124.291,-774.1962 80.976,-732.3699"/>
<polygon fill="#000000" stroke="#000000" points="83.6593,-730.1048 75,-724 77.9623,-734.1723 83.6593,-730.1048"/>
<text text-anchor="middle" x="68" y="-727.8" font-family="Times,serif" font-size="14.00" fill="#000000">i1</text>
<text text-anchor="middle" x="370.5" y="-966.8" font-family="Times,serif" font-size="14.00" fill="#000000">/right&#45;lt</text>
</g>
<!-- initializerr4_1 -->
<!-- initializerr4_1&#45;&gt;r4 -->
<g id="edge17" class="edge">
<title>initializerr4_1&#45;&gt;r4:ne</title>
<path fill="none" stroke="#0000ff" stroke-dasharray="1,5" d="M341,-1250.6997C341,-1235.9349 341,-1214.6302 341,-1196 341,-1196 341,-1196 341,-1050 341,-1037.6615 348.0206,-1007.5219 345.1137,-990.5699"/>
<polygon fill="#0000ff" stroke="#0000ff" points="348.1647,-988.805 341,-981 341.7337,-991.5694 348.1647,-988.805"/>
<text text-anchor="middle" x="346" y="-1119.3" font-family="Times,serif" font-size="14.00" fill="#000000">2</text>
</g>
<!-- r10&#45;&gt;r8 -->
<g id="edge26" class="edge">
<title>r10:e&#45;&gt;r8:ne</title>
<path fill="none" stroke="#000000" d="M567,-706C572.8458,-706 568.4479,-685.2592 571,-680 578.9625,-663.5914 584.7854,-661.4275 599,-650 635.2099,-620.8898 717.6795,-626.5069 703.2824,-599.9407"/>
<polygon fill="#000000" stroke="#000000" points="705.9495,-597.6708 697,-592 700.4598,-602.014 705.9495,-597.6708"/>
<text text-anchor="middle" x="715" y="-595.8" font-family="Times,serif" font-size="14.00" fill="#000000">right</text>
</g>
<!-- r7&#45;&gt;r7 -->
<g id="edge31" class="edge">
<title>r7:se&#45;&gt;r7:ne</title>
<path fill="none" stroke="#000000" d="M285,-689C326.1151,-680 391.3454,-680 391.3454,-706 391.3454,-729.9688 335.9092,-731.8413 295.0353,-724.9365"/>
<polygon fill="#000000" stroke="#000000" points="295.482,-721.4582 285,-723 294.1557,-728.3314 295.482,-721.4582"/>
<text text-anchor="middle" x="292" y="-726.8" font-family="Times,serif" font-size="14.00" fill="#000000">i2</text>
<text text-anchor="middle" x="275.5" y="-677.8" font-family="Times,serif" font-size="14.00" fill="#000000">/i2</text>
</g>
<!-- r7&#45;&gt;r8 -->
<g id="edge32" class="edge">
<title>r7:se&#45;&gt;r8:ne</title>
<path fill="none" stroke="#000000" d="M285,-689C314.9423,-659.0577 651.9346,-631.3565 694.4984,-601.8607"/>
<polygon fill="#000000" stroke="#000000" points="697.9334,-602.5536 697,-592 691.1483,-600.8322 697.9334,-602.5536"/>
<text text-anchor="middle" x="679" y="-595.8" font-family="Times,serif" font-size="14.00" fill="#000000">right</text>
<text text-anchor="middle" x="302.5" y="-677.8" font-family="Times,serif" font-size="14.00" fill="#000000">/sum</text>
</g>
<!-- r5&#45;&gt;r4 -->
<g id="edge24" class="edge">
<title>r5:se&#45;&gt;r4:ne</title>
<path fill="none" stroke="#000000" d="M92,-689C102.7937,-678.2063 111.7239,-684.616 126.3454,-689 128.2677,-689.5764 247,-766.4932 247,-768.5 247,-907.5 247,-907.5 247,-907.5 247,-942.0195 376.4839,-917.8039 397.7434,-945 397.7434,-945 365.8252,-965.25 349.8662,-975.375"/>
<polygon fill="#000000" stroke="#000000" points="347.569,-972.6874 341,-981 351.319,-978.5982 347.569,-972.6874"/>
<text text-anchor="middle" x="359" y="-984.8" font-family="Times,serif" font-size="14.00" fill="#000000">right</text>
<text text-anchor="middle" x="74.5" y="-677.8" font-family="Times,serif" font-size="14.00" fill="#000000">/sum</text>
</g>
<!-- r5&#45;&gt;r5 -->
<g id="edge23" class="edge">
<title>r5:se&#45;&gt;r5:ne</title>
<path fill="none" stroke="#000000" d="M92,-689C133.1151,-680 198.3454,-680 198.3454,-706 198.3454,-729.9688 142.9092,-731.8413 102.0353,-724.9365"/>
<polygon fill="#000000" stroke="#000000" points="102.482,-721.4582 92,-723 101.1557,-728.3314 102.482,-721.4582"/>
<text text-anchor="middle" x="85" y="-726.8" font-family="Times,serif" font-size="14.00" fill="#000000">i2</text>
<text text-anchor="middle" x="101.5" y="-677.8" font-family="Times,serif" font-size="14.00" fill="#000000">/i2</text>
</g>
<!-- initializerr5_1 -->
<!-- initializerr5_1&#45;&gt;r5 -->
<g id="edge22" class="edge">
<title>initializerr5_1&#45;&gt;r5:w</title>
<path fill="none" stroke="#0000ff" stroke-dasharray="1,5" d="M99,-944.506C98.5,-933.7163 98,-919.8413 98,-907.5 98,-907.5 98,-907.5 98,-768.5 98,-729.7409 42.1794,-757.6812 23,-724 21.5155,-721.393 20.0194,-718.2101 19.151,-715.2497"/>
<polygon fill="#0000ff" stroke="#0000ff" points="22.3894,-716.5772 23,-706 15.9266,-713.8879 22.3894,-716.5772"/>
<text text-anchor="middle" x="103" y="-827.3" font-family="Times,serif" font-size="14.00" fill="#000000">1</text>
</g>
<!-- initializerr10_1 -->
<!-- initializerr10_1&#45;&gt;r10 -->
<g id="edge25" class="edge">
<title>initializerr10_1&#45;&gt;r10:w</title>
<path fill="none" stroke="#0000ff" d="M645.2509,-813.8894C611.5904,-793.8534 552.5626,-760.9955 498,-742 459.8872,-728.7314 434.5518,-755.2369 409,-724 407.0214,-721.5812 405.3679,-718.3055 404.5642,-715.2114"/>
<polygon fill="#0000ff" stroke="#0000ff" points="407.8147,-716.5283 409,-706 401.5078,-713.4912 407.8147,-716.5283"/>
<text text-anchor="middle" x="580" y="-764.8" font-family="Times,serif" font-size="14.00" fill="#000000">2</text>
</g>
<!-- r8&#45;&gt;r0 -->
<g id="edge27" class="edge">
<title>r8:e&#45;&gt;r0:n</title>
<path fill="none" stroke="#000000" d="M754,-574C804.4425,-574 853,-568.9425 853,-518.5 853,-518.5 853,-518.5 853,-248.5 853,-204.5884 935.5813,-244.1066 949.1298,-213.8827"/>
<polygon fill="#000000" stroke="#000000" points="952.5795,-214.4764 951,-204 945.7016,-213.1748 952.5795,-214.4764"/>
<text text-anchor="middle" x="931.5" y="-207.8" font-family="Times,serif" font-size="14.00" fill="#000000">value</text>
<text text-anchor="middle" x="786" y="-577.8" font-family="Times,serif" font-size="14.00" fill="#000000">/right&#45;lte</text>
</g>
<!-- r8&#45;&gt;r7 -->
<g id="edge29" class="edge">
<title>r8:e&#45;&gt;r7:n</title>
<path fill="none" stroke="#000000" d="M754,-574C762,-574 758.4125,-585.3269 754,-592 728.9574,-629.8721 703.5739,-619.2426 660,-632 562.6696,-660.496 535.0618,-653.4811 435,-670 407.4611,-674.5463 398.4472,-668.5326 373,-680 344.8835,-692.6703 348.3841,-713.6159 319.3454,-724 311.7073,-726.7314 288.978,-731.3461 276.4758,-729.6858"/>
<polygon fill="#000000" stroke="#000000" points="278.2544,-726.6643 268,-724 274.3547,-732.4775 278.2544,-726.6643"/>
<text text-anchor="middle" x="261" y="-727.8" font-family="Times,serif" font-size="14.00" fill="#000000">i1</text>
<text text-anchor="middle" x="781.5" y="-562.8" font-family="Times,serif" font-size="14.00" fill="#000000">/right&#45;lt</text>
</g>
<!-- r8&#45;&gt;r8 -->
<g id="edge28" class="edge">
<title>r8:s&#45;&gt;r8:n</title>
<path fill="none" stroke="#000000" d="M679,-556C727.9145,-547 825.7434,-547 825.7434,-574 825.7434,-599.2598 740.1188,-600.8878 689.0284,-593.6233"/>
<polygon fill="#000000" stroke="#000000" points="689.4308,-590.1429 679,-592 688.3122,-597.053 689.4308,-590.1429"/>
<text text-anchor="middle" x="666.5" y="-580.8" font-family="Times,serif" font-size="14.00" fill="#000000">left</text>
<text text-anchor="middle" x="654.5" y="-544.8" font-family="Times,serif" font-size="14.00" fill="#000000">/left&#45;gt</text>
</g>
<!-- r12 -->
<g id="node19" class="node">
<title>r12</title>
<g id="a_node19"><a xlink:href="file:///home/travis/build/andrewdavidmackenzie/flow/flowstdlib/control/join/join.html" xlink:title="join (#12)">
<ellipse fill="#ff7f50" stroke="#000000" cx="656" cy="-186" rx="57.3905" ry="18"/>
<text text-anchor="middle" x="656" y="-182.3" font-family="Times,serif" font-size="14.00" fill="#000000">join (#12)</text>
</a>
</g>
</g>
<!-- r8&#45;&gt;r12 -->
<g id="edge30" class="edge">
<title>r8:sw&#45;&gt;r12:ne</title>
<path fill="none" stroke="#000000" d="M661,-556C648.9497,-543.9497 669,-535.5417 669,-518.5 669,-518.5 669,-518.5 669,-248.5 669,-232.4819 680.4278,-222.3505 678.1968,-211.7369"/>
<polygon fill="#000000" stroke="#000000" points="681.1203,-209.8053 673,-203 675.1041,-213.3838 681.1203,-209.8053"/>
<text text-anchor="middle" x="699" y="-206.8" font-family="Times,serif" font-size="14.00" fill="#000000">control</text>
<text text-anchor="middle" x="695" y="-544.8" font-family="Times,serif" font-size="14.00" fill="#000000">/right&#45;gte</text>
</g>
<!-- r11 -->
<g id="node21" class="node">
<title>r11</title>
<g id="a_node21"><a xlink:href="file:///home/travis/build/andrewdavidmackenzie/flow/flowstdlib/math/add/add.html" xlink:title="subsequence&#45;count (#11)">
<ellipse fill="#ff7f50" stroke="#000000" cx="560" cy="-34" rx="129.9769" ry="18"/>
<text text-anchor="middle" x="560" y="-30.3" font-family="Times,serif" font-size="14.00" fill="#000000">subsequence&#45;count (#11)</text>
</a>
</g>
</g>
<!-- r12&#45;&gt;r11 -->
<g id="edge36" class="edge">
<title>r12:e&#45;&gt;r11:ne</title>
<path fill="none" stroke="#000000" d="M713,-186C721,-186 716.3384,-175.2701 713,-168 681.4712,-99.3392 638.0484,-107.0437 585.4783,-59.1419"/>
<polygon fill="#000000" stroke="#000000" points="587.6492,-56.3754 578,-52 582.8146,-61.4377 587.6492,-56.3754"/>
<text text-anchor="middle" x="571" y="-55.8" font-family="Times,serif" font-size="14.00" fill="#000000">i2</text>
</g>
<!-- initializerr12_0 -->
<!-- initializerr12_0&#45;&gt;r12 -->
<g id="edge35" class="edge">
<title>initializerr12_0&#45;&gt;r12:nw</title>
<path fill="none" stroke="#0000ff" d="M520.7251,-294.0626C549.5403,-275.7357 595.3841,-244.5147 631.4598,-210.3349"/>
<polygon fill="#0000ff" stroke="#0000ff" points="634.2725,-212.4816 639,-203 629.3915,-207.464 634.2725,-212.4816"/>
<text text-anchor="middle" x="601" y="-244.8" font-family="Times,serif" font-size="14.00" fill="#000000">1</text>
</g>
<!-- r11&#45;&gt;r11 -->
<g id="edge38" class="edge">
<title>r11:se&#45;&gt;r11:n</title>
<path fill="none" stroke="#000000" d="M578,-16C645.3295,-7 761.9885,-7 761.9885,-34 761.9885,-59.6816 640.1587,-60.9356 570.3208,-53.2519"/>
<polygon fill="#000000" stroke="#000000" points="570.3487,-49.7297 560,-52 569.5058,-56.6788 570.3487,-49.7297"/>
<text text-anchor="middle" x="553" y="-55.8" font-family="Times,serif" font-size="14.00" fill="#000000">i1</text>
<text text-anchor="middle" x="560.5" y="-4.8" font-family="Times,serif" font-size="14.00" fill="#000000">/sum</text>
</g>
<!-- initializerr11_0 -->
<!-- initializerr11_0&#45;&gt;r11 -->
<g id="edge37" class="edge">
<title>initializerr11_0&#45;&gt;r11:ne</title>
<path fill="none" stroke="#0000ff" stroke-dasharray="1,5" d="M470.6496,-168.7515C509.9835,-141.4553 580.7834,-88.6133 581.608,-61.3743"/>
<polygon fill="#0000ff" stroke="#0000ff" points="584.8584,-60.0754 578,-52 578.3256,-62.5898 584.8584,-60.0754"/>
<text text-anchor="middle" x="571" y="-103.3" font-family="Times,serif" font-size="14.00" fill="#000000">1</text>
</g>
</g>
</svg>
