<?xml version="1.0" encoding="UTF-8" standalone="no"?>
<!DOCTYPE svg PUBLIC "-//W3C//DTD SVG 1.1//EN"
 "http://www.w3.org/Graphics/SVG/1.1/DTD/svg11.dtd">
<!-- Generated by graphviz version 2.40.1 (20161225.0304)
 -->
<!-- Title: prime Pages: 1 -->
<svg width="1849pt" height="1388pt"
 viewBox="0.00 0.00 1849.35 1388.00" xmlns="http://www.w3.org/2000/svg" xmlns:xlink="http://www.w3.org/1999/xlink">
<g id="graph0" class="graph" transform="scale(1 1) rotate(0) translate(4 1384)">
<title>prime</title>
<polygon fill="#ffffff" stroke="transparent" points="-4,4 -4,-1384 1845.3454,-1384 1845.3454,4 -4,4"/>
<text text-anchor="middle" x="920.6727" y="-1364.8" font-family="Times,serif" font-size="14.00" fill="#000000">/prime</text>
<g id="clust1" class="cluster">
<title>cluster_candidates</title>
<polygon fill="none" stroke="#000000" points="1387,-937 1387,-1318 1795,-1318 1795,-937 1387,-937"/>
<text text-anchor="middle" x="1591" y="-1302.8" font-family="Times,serif" font-size="14.00" fill="#000000">/prime/candidates</text>
</g>
<g id="clust2" class="cluster">
<title>cluster_composites</title>
<polygon fill="none" stroke="#000000" points="8,-8 8,-1349 1073,-1349 1073,-8 8,-8"/>
<text text-anchor="middle" x="540.5" y="-1333.8" font-family="Times,serif" font-size="14.00" fill="#000000">/prime/composites</text>
</g>
<g id="clust3" class="cluster">
<title>cluster_divisors</title>
<polygon fill="none" stroke="#000000" points="16,-680 16,-1318 586,-1318 586,-680 16,-680"/>
<text text-anchor="middle" x="301" y="-1302.8" font-family="Times,serif" font-size="14.00" fill="#000000">/prime/composites/divisors</text>
</g>
<g id="clust4" class="cluster">
<title>cluster_generate_composites</title>
<polygon fill="none" stroke="#000000" points="594,-152 594,-880 1065,-880 1065,-152 594,-152"/>
<text text-anchor="middle" x="829.5" y="-864.8" font-family="Times,serif" font-size="14.00" fill="#000000">/prime/composites/generate_composites</text>
</g>
<g id="clust5" class="cluster">
<title>cluster_composite_sequence</title>
<polygon fill="none" stroke="#000000" points="602,-160 602,-623 1057,-623 1057,-160 602,-160"/>
<text text-anchor="middle" x="829.5" y="-607.8" font-family="Times,serif" font-size="14.00" fill="#000000">/prime/composites/generate_composites/composite&#45;sequence</text>
</g>
<!-- r5 -->
<g id="node1" class="node">
<title>r5</title>
<g id="a_node1"><a xlink:href="file:///home/travis/build/andrewdavidmackenzie/flow/flowr/src/lib/flowruntime/args/get.html" xlink:title="args (#5)">
<ellipse fill="#ff7f50" stroke="#000000" cx="1136" cy="-1196" rx="54.6905" ry="18"/>
<text text-anchor="middle" x="1136" y="-1192.3" font-family="Times,serif" font-size="14.00" fill="#000000">args (#5)</text>
</a>
</g>
</g>
<!-- r2 -->
<g id="node2" class="node">
<title>r2</title>
<g id="a_node2"><a xlink:href="file:///home/travis/build/andrewdavidmackenzie/flow/flowstdlib/control/compare_switch/compare_switch.html" xlink:title="compare (#2)">
<ellipse fill="#ff7f50" stroke="#000000" cx="1470" cy="-1123" rx="74.9875" ry="18"/>
<text text-anchor="middle" x="1470" y="-1119.3" font-family="Times,serif" font-size="14.00" fill="#000000">compare (#2)</text>
</a>
</g>
</g>
<!-- r5&#45;&gt;r2 -->
<g id="edge1" class="edge">
<title>r5:e&#45;&gt;r2:n</title>
<path fill="none" stroke="#000000" d="M1191,-1196C1219.7579,-1196 1427.2867,-1176.613 1464.3449,-1149.3068"/>
<polygon fill="#000000" stroke="#000000" points="1467.2657,-1151.2359 1470,-1141 1461.4793,-1147.2966 1467.2657,-1151.2359"/>
<text text-anchor="middle" x="1457.5" y="-1144.8" font-family="Times,serif" font-size="14.00" fill="#000000">left</text>
<text text-anchor="middle" x="1215" y="-1199.8" font-family="Times,serif" font-size="14.00" fill="#000000">/json/1</text>
</g>
<!-- r4 -->
<g id="node3" class="node">
<title>r4</title>
<g id="a_node3"><a xlink:href="file:///home/travis/build/andrewdavidmackenzie/flow/flowstdlib/data/accumulate/accumulate.html" xlink:title="all&#45;numbers (#4)">
<ellipse fill="#ff7f50" stroke="#000000" cx="1484" cy="-963" rx="89.0842" ry="18"/>
<text text-anchor="middle" x="1484" y="-959.3" font-family="Times,serif" font-size="14.00" fill="#000000">all&#45;numbers (#4)</text>
</a>
</g>
</g>
<!-- r5&#45;&gt;r4 -->
<g id="edge2" class="edge">
<title>r5:e&#45;&gt;r4:nw</title>
<path fill="none" stroke="#000000" d="M1191,-1196C1263.8889,-1196 1144.3951,-1088.0426 1191,-1032 1209.3179,-1009.9726 1408.8968,-1003.8908 1457.1853,-985.8588"/>
<polygon fill="#000000" stroke="#000000" points="1458.9319,-988.8926 1466,-981 1455.5527,-982.7623 1458.9319,-988.8926"/>
<text text-anchor="middle" x="1426" y="-984.8" font-family="Times,serif" font-size="14.00" fill="#000000">chunk_size</text>
<text text-anchor="middle" x="1215" y="-1184.8" font-family="Times,serif" font-size="14.00" fill="#000000">/json/1</text>
</g>
<!-- r6 -->
<g id="node4" class="node">
<title>r6</title>
<g id="a_node4"><a xlink:href="file:///home/travis/build/andrewdavidmackenzie/flow/flowstdlib/math/sqrt/sqrt.html" xlink:title="sqrt (#6)">
<ellipse fill="#ff7f50" stroke="#000000" cx="738" cy="-1123" rx="53.0913" ry="18"/>
<text text-anchor="middle" x="738" y="-1119.3" font-family="Times,serif" font-size="14.00" fill="#000000">sqrt (#6)</text>
</a>
</g>
</g>
<!-- r5&#45;&gt;r6 -->
<g id="edge3" class="edge">
<title>r5:e&#45;&gt;r6:n</title>
<path fill="none" stroke="#000000" d="M1191,-1196C1199,-1196 1196.4813,-1183.8271 1191,-1178 1168.5762,-1154.1613 929.5953,-1162.9429 897,-1160 829.8568,-1153.938 747.2459,-1206.1729 738.7197,-1151.2054"/>
<polygon fill="#000000" stroke="#000000" points="742.1949,-1150.729 738,-1141 735.2122,-1151.2215 742.1949,-1150.729"/>
<text text-anchor="middle" x="1167" y="-1199.8" font-family="Times,serif" font-size="14.00" fill="#000000">/json/1</text>
</g>
<!-- r8 -->
<g id="node5" class="node">
<title>r8</title>
<g id="a_node5"><a xlink:href="file:///home/travis/build/andrewdavidmackenzie/flow/flowstdlib/data/buffer/buffer.html" xlink:title="limit&#45;buffer (#8)">
<ellipse fill="#ff7f50" stroke="#000000" cx="932" cy="-831" rx="87.1846" ry="18"/>
<text text-anchor="middle" x="932" y="-827.3" font-family="Times,serif" font-size="14.00" fill="#000000">limit&#45;buffer (#8)</text>
</a>
</g>
</g>
<!-- r5&#45;&gt;r8 -->
<g id="edge4" class="edge">
<title>r5:e&#45;&gt;r8:n</title>
<path fill="none" stroke="#000000" d="M1191,-1196C1199,-1196 1195.9823,-1184.2591 1191,-1178 1123.1167,-1092.7207 952,-1231.9986 952,-1123 952,-1123 952,-1123 952,-907.5 952,-883.7792 937.0949,-877.8942 933.0193,-859.0503"/>
<polygon fill="#000000" stroke="#000000" points="936.4912,-858.5958 932,-849 929.527,-859.3022 936.4912,-858.5958"/>
<text text-anchor="middle" x="1167" y="-1184.8" font-family="Times,serif" font-size="14.00" fill="#000000">/json/1</text>
</g>
<!-- r2&#45;&gt;r2 -->
<g id="edge7" class="edge">
<title>r2:s&#45;&gt;r2:n</title>
<path fill="none" stroke="#000000" d="M1470,-1105C1518.9145,-1096 1616.7434,-1096 1616.7434,-1123 1616.7434,-1148.2598 1531.1188,-1149.8878 1480.0284,-1142.6233"/>
<polygon fill="#000000" stroke="#000000" points="1480.4308,-1139.1429 1470,-1141 1479.3122,-1146.053 1480.4308,-1139.1429"/>
<text text-anchor="middle" x="1482.5" y="-1144.8" font-family="Times,serif" font-size="14.00" fill="#000000">left</text>
<text text-anchor="middle" x="1445.5" y="-1093.8" font-family="Times,serif" font-size="14.00" fill="#000000">/left&#45;gt</text>
</g>
<!-- r2&#45;&gt;r4 -->
<g id="edge6" class="edge">
<title>r2:e&#45;&gt;r4:n</title>
<path fill="none" stroke="#000000" d="M1545,-1123C1553,-1123 1546.8128,-1112.7919 1545,-1105 1538.748,-1078.1273 1494.4915,-1024.2382 1485.5664,-991.2984"/>
<polygon fill="#000000" stroke="#000000" points="1488.964,-990.36 1484,-981 1482.0435,-991.4126 1488.964,-990.36"/>
<text text-anchor="middle" x="1507" y="-984.8" font-family="Times,serif" font-size="14.00" fill="#000000">values</text>
<text text-anchor="middle" x="1577" y="-1126.8" font-family="Times,serif" font-size="14.00" fill="#000000">/right&#45;lte</text>
</g>
<!-- r3 -->
<g id="node7" class="node">
<title>r3</title>
<g id="a_node7"><a xlink:href="file:///home/travis/build/andrewdavidmackenzie/flow/flowstdlib/math/add/add.html" xlink:title="add (#3)">
<ellipse fill="#ff7f50" stroke="#000000" cx="1718" cy="-963" rx="51.1914" ry="18"/>
<text text-anchor="middle" x="1718" y="-959.3" font-family="Times,serif" font-size="14.00" fill="#000000">add (#3)</text>
</a>
</g>
</g>
<!-- r2&#45;&gt;r3 -->
<g id="edge8" class="edge">
<title>r2:e&#45;&gt;r3:n</title>
<path fill="none" stroke="#000000" d="M1545,-1123C1547.2974,-1123 1699.4983,-1069.7386 1701,-1068 1724.439,-1040.8627 1719.2942,-1023.691 1718.1806,-991.12"/>
<polygon fill="#000000" stroke="#000000" points="1721.678,-990.9359 1718,-981 1714.6791,-991.0609 1721.678,-990.9359"/>
<text text-anchor="middle" x="1711" y="-984.8" font-family="Times,serif" font-size="14.00" fill="#000000">i1</text>
<text text-anchor="middle" x="1572.5" y="-1111.8" font-family="Times,serif" font-size="14.00" fill="#000000">/right&#45;lt</text>
</g>
<!-- r4&#45;&gt;r4 -->
<g id="edge13" class="edge">
<title>r4:s&#45;&gt;r4:nw</title>
<path fill="none" stroke="#000000" d="M1484,-945C1430.3193,-936 1322.9579,-936 1322.9579,-963 1322.9579,-988.3652 1401.8258,-989.901 1455.8848,-982.5318"/>
<polygon fill="#000000" stroke="#000000" points="1456.6368,-985.9579 1466,-981 1455.5887,-979.0368 1456.6368,-985.9579"/>
<text text-anchor="middle" x="1506" y="-984.8" font-family="Times,serif" font-size="14.00" fill="#000000">chunk_size</text>
<text text-anchor="middle" x="1441.5" y="-933.8" font-family="Times,serif" font-size="14.00" fill="#000000">/chunk_size</text>
</g>
<!-- r4&#45;&gt;r4 -->
<g id="edge14" class="edge">
<title>r4:e&#45;&gt;r4:ne</title>
<path fill="none" stroke="#000000" d="M1573,-963C1597.0421,-954 1645.0421,-954 1645.0421,-972 1645.0421,-988.9102 1566.1742,-989.934 1512.1152,-982.5338"/>
<polygon fill="#000000" stroke="#000000" points="1512.4117,-979.0388 1502,-981 1511.3622,-985.9597 1512.4117,-979.0388"/>
<text text-anchor="middle" x="1478" y="-969.8" font-family="Times,serif" font-size="14.00" fill="#000000">partial</text>
<text text-anchor="middle" x="1599" y="-966.8" font-family="Times,serif" font-size="14.00" fill="#000000">/partial</text>
</g>
<!-- r0 -->
<g id="node10" class="node">
<title>r0</title>
<g id="a_node10"><a xlink:href="file:///home/travis/build/andrewdavidmackenzie/flow/flowstdlib/data/remove/remove.html" xlink:title="remove (#0)">
<ellipse fill="#ff7f50" stroke="#000000" cx="962" cy="-186" rx="68.7879" ry="18"/>
<text text-anchor="middle" x="962" y="-182.3" font-family="Times,serif" font-size="14.00" fill="#000000">remove (#0)</text>
</a>
</g>
</g>
<!-- r4&#45;&gt;r0 -->
<g id="edge15" class="edge">
<title>r4:s&#45;&gt;r0:ne</title>
<path fill="none" stroke="#000000" d="M1484,-945C1484,-868.062 1315,-984.438 1315,-907.5 1315,-907.5 1315,-907.5 1315,-248.5 1315,-101.8235 1096.8042,-300.4711 987.665,-210.9521"/>
<polygon fill="#000000" stroke="#000000" points="989.7586,-208.1257 980,-204 985.0558,-213.3107 989.7586,-208.1257"/>
<text text-anchor="middle" x="960.5" y="-207.8" font-family="Times,serif" font-size="14.00" fill="#000000">array</text>
<text text-anchor="middle" x="1508.5" y="-933.8" font-family="Times,serif" font-size="14.00" fill="#000000">/chunk</text>
</g>
<!-- r12 -->
<g id="node11" class="node">
<title>r12</title>
<g id="a_node11"><a xlink:href="file:///home/travis/build/andrewdavidmackenzie/flow/flowstdlib/control/compare_switch/compare_switch.html" xlink:title="compare (#12)">
<ellipse fill="#ff7f50" stroke="#000000" cx="340" cy="-963" rx="80.6858" ry="18"/>
<text text-anchor="middle" x="340" y="-959.3" font-family="Times,serif" font-size="14.00" fill="#000000">compare (#12)</text>
</a>
</g>
</g>
<!-- r6&#45;&gt;r12 -->
<g id="edge16" class="edge">
<title>r6:e&#45;&gt;r12:n</title>
<path fill="none" stroke="#000000" d="M792,-1123C800,-1123 796.8512,-1111.3613 792,-1105 784.7681,-1095.5169 411.519,-1010.2851 348.8758,-986.0287"/>
<polygon fill="#000000" stroke="#000000" points="350.4259,-982.8843 340,-981 346.9753,-988.9747 350.4259,-982.8843"/>
<text text-anchor="middle" x="327.5" y="-984.8" font-family="Times,serif" font-size="14.00" fill="#000000">left</text>
</g>
<!-- r8&#45;&gt;r8 -->
<g id="edge33" class="edge">
<title>r8:e&#45;&gt;r8:n</title>
<path fill="none" stroke="#000000" d="M1019,-831C1043.0923,-822 1091.0923,-822 1091.0923,-840 1091.0923,-856.9102 997.4853,-857.934 942.1804,-850.5338"/>
<polygon fill="#000000" stroke="#000000" points="942.4099,-847.0289 932,-849 941.3669,-853.9508 942.4099,-847.0289"/>
</g>
<!-- r10 -->
<g id="node18" class="node">
<title>r10</title>
<g id="a_node18"><a xlink:href="file:///home/travis/build/andrewdavidmackenzie/flow/flowstdlib/control/compare_switch/compare_switch.html" xlink:title="compare (#10)">
<ellipse fill="#ff7f50" stroke="#000000" cx="693" cy="-574" rx="80.6858" ry="18"/>
<text text-anchor="middle" x="693" y="-570.3" font-family="Times,serif" font-size="14.00" fill="#000000">compare (#10)</text>
</a>
</g>
</g>
<!-- r8&#45;&gt;r10 -->
<g id="edge34" class="edge">
<title>r8:e&#45;&gt;r10:n</title>
<path fill="none" stroke="#000000" d="M1019,-831C1027,-831 1024.2006,-819.079 1019,-813 977.4724,-764.4587 735,-832.3812 735,-768.5 735,-768.5 735,-768.5 735,-650.5 735,-622.3689 702.556,-623.2217 694.6985,-602.1102"/>
<polygon fill="#000000" stroke="#000000" points="698.1085,-601.2819 693,-592 691.2052,-602.4417 698.1085,-601.2819"/>
<text text-anchor="middle" x="680.5" y="-595.8" font-family="Times,serif" font-size="14.00" fill="#000000">left</text>
</g>
<!-- initializerr2_1 -->
<!-- initializerr2_1&#45;&gt;r2 -->
<g id="edge5" class="edge">
<title>initializerr2_1&#45;&gt;r2:ne</title>
<path fill="none" stroke="#0000ff" stroke-dasharray="1,5" d="M1495.0147,-1250.726C1503.5932,-1225.2071 1514.6539,-1178.6884 1494.5307,-1148.9205"/>
<polygon fill="#0000ff" stroke="#0000ff" points="1497.0621,-1146.4889 1488,-1141 1491.6613,-1150.9421 1497.0621,-1146.4889"/>
<text text-anchor="middle" x="1510" y="-1192.3" font-family="Times,serif" font-size="14.00" fill="#000000">1</text>
</g>
<!-- r3&#45;&gt;r2 -->
<g id="edge11" class="edge">
<title>r3:se&#45;&gt;r2:ne</title>
<path fill="none" stroke="#000000" d="M1735,-946C1735,-946 1769.3454,-981 1769.3454,-981 1747.949,-1005.2303 1651.8565,-981.0098 1625,-999 1564.7707,-1039.3456 1607.3579,-1104.4657 1544.7434,-1141 1536.2346,-1145.9647 1511.8295,-1148.6142 1497.3078,-1145.2841"/>
<polygon fill="#000000" stroke="#000000" points="1498.5474,-1142.0018 1488,-1141 1495.6206,-1148.3605 1498.5474,-1142.0018"/>
<text text-anchor="middle" x="1506" y="-1144.8" font-family="Times,serif" font-size="14.00" fill="#000000">right</text>
<text text-anchor="middle" x="1752.5" y="-934.8" font-family="Times,serif" font-size="14.00" fill="#000000">/sum</text>
</g>
<!-- r3&#45;&gt;r3 -->
<g id="edge10" class="edge">
<title>r3:se&#45;&gt;r3:ne</title>
<path fill="none" stroke="#000000" d="M1735,-946C1776.1151,-937 1841.3454,-937 1841.3454,-963 1841.3454,-986.9688 1785.9092,-988.8413 1745.0353,-981.9365"/>
<polygon fill="#000000" stroke="#000000" points="1745.482,-978.4582 1735,-980 1744.1557,-985.3314 1745.482,-978.4582"/>
<text text-anchor="middle" x="1728" y="-983.8" font-family="Times,serif" font-size="14.00" fill="#000000">i2</text>
<text text-anchor="middle" x="1725.5" y="-934.8" font-family="Times,serif" font-size="14.00" fill="#000000">/i2</text>
</g>
<!-- initializerr3_1 -->
<!-- initializerr3_1&#45;&gt;r3 -->
<g id="edge9" class="edge">
<title>initializerr3_1&#45;&gt;r3:w</title>
<path fill="none" stroke="#0000ff" stroke-dasharray="1,5" d="M1698.2694,-1104.957C1671.6288,-1065.8916 1615.6758,-976.0393 1655.9095,-964.2781"/>
<polygon fill="#0000ff" stroke="#0000ff" points="1656.5191,-967.7289 1666,-963 1655.6394,-960.7844 1656.5191,-967.7289"/>
<text text-anchor="middle" x="1678" y="-1046.3" font-family="Times,serif" font-size="14.00" fill="#000000">1</text>
</g>
<!-- initializerr4_1 -->
<!-- initializerr4_1&#45;&gt;r4 -->
<g id="edge12" class="edge">
<title>initializerr4_1&#45;&gt;r4:n</title>
<path fill="none" stroke="#0000ff" stroke-dasharray="1,5" d="M1352.459,-1036.1524C1397.0482,-1023.0678 1458.5009,-1003.3541 1477.8871,-988.9651"/>
<polygon fill="#0000ff" stroke="#0000ff" points="1480.6882,-991.064 1484,-981 1475.1351,-986.8021 1480.6882,-991.064"/>
<text text-anchor="middle" x="1462.5" y="-1002.8" font-family="Times,serif" font-size="14.00" fill="#000000">[]</text>
</g>
<!-- r0&#45;&gt;r0 -->
<g id="edge39" class="edge">
<title>r0:e&#45;&gt;r0:ne</title>
<path fill="none" stroke="#000000" d="M1031,-186C1054.8939,-177 1102.8939,-177 1102.8939,-195 1102.8939,-211.7695 1036.9908,-212.9159 990.004,-205.7167"/>
<polygon fill="#000000" stroke="#000000" points="990.4479,-202.2418 980,-204 989.264,-209.1409 990.4479,-202.2418"/>
<text text-anchor="middle" x="999.5" y="-207.8" font-family="Times,serif" font-size="14.00" fill="#000000">array</text>
</g>
<!-- r1 -->
<g id="node23" class="node">
<title>r1</title>
<g id="a_node23"><a xlink:href="file:///home/travis/build/andrewdavidmackenzie/flow/flowr/src/lib/flowruntime/stdio/stdout.html" xlink:title="print (#1)">
<ellipse fill="#ff7f50" stroke="#000000" cx="1138" cy="-107" rx="57.3905" ry="18"/>
<text text-anchor="middle" x="1138" y="-103.3" font-family="Times,serif" font-size="14.00" fill="#000000">print (#1)</text>
</a>
</g>
</g>
<!-- r0&#45;&gt;r1 -->
<g id="edge40" class="edge">
<title>r0:e&#45;&gt;r1:n</title>
<path fill="none" stroke="#000000" d="M1031,-186C1082.2125,-186 1131.2531,-180.5216 1137.362,-134.9917"/>
<polygon fill="#000000" stroke="#000000" points="1140.8556,-135.2027 1138,-125 1133.8698,-134.7566 1140.8556,-135.2027"/>
</g>
<!-- r12&#45;&gt;r12 -->
<g id="edge20" class="edge">
<title>r12:s&#45;&gt;r12:n</title>
<path fill="none" stroke="#000000" d="M340,-945C390.8643,-936 492.5928,-936 492.5928,-963 492.5928,-988.3125 403.183,-989.8945 350.0959,-982.5776"/>
<polygon fill="#000000" stroke="#000000" points="350.4205,-979.086 340,-981 349.3397,-986.002 350.4205,-979.086"/>
<text text-anchor="middle" x="352.5" y="-984.8" font-family="Times,serif" font-size="14.00" fill="#000000">left</text>
<text text-anchor="middle" x="315.5" y="-933.8" font-family="Times,serif" font-size="14.00" fill="#000000">/left&#45;gt</text>
</g>
<!-- r9 -->
<g id="node13" class="node">
<title>r9</title>
<g id="a_node13"><a xlink:href="file:///home/travis/build/andrewdavidmackenzie/flow/flowstdlib/math/multiply/multiply.html" xlink:title="multiply (#9)">
<ellipse fill="#ff7f50" stroke="#000000" cx="505" cy="-706" rx="72.5877" ry="18"/>
<text text-anchor="middle" x="505" y="-702.3" font-family="Times,serif" font-size="14.00" fill="#000000">multiply (#9)</text>
</a>
</g>
</g>
<!-- r12&#45;&gt;r9 -->
<g id="edge18" class="edge">
<title>r12:e&#45;&gt;r9:n</title>
<path fill="none" stroke="#000000" d="M421,-963C465.0073,-963 503,-951.5073 503,-907.5 503,-907.5 503,-907.5 503,-768.5 503,-752.569 504.295,-746.2817 504.8009,-734.1178"/>
<polygon fill="#000000" stroke="#000000" points="508.3025,-734.067 505,-724 501.3039,-733.9292 508.3025,-734.067"/>
<text text-anchor="middle" x="498" y="-727.8" font-family="Times,serif" font-size="14.00" fill="#000000">i1</text>
<text text-anchor="middle" x="453" y="-966.8" font-family="Times,serif" font-size="14.00" fill="#000000">/right&#45;lte</text>
</g>
<!-- r11 -->
<g id="node14" class="node">
<title>r11</title>
<g id="a_node14"><a xlink:href="file:///home/travis/build/andrewdavidmackenzie/flow/flowstdlib/math/add/add.html" xlink:title="add (#11)">
<ellipse fill="#ff7f50" stroke="#000000" cx="285" cy="-706" rx="57.3905" ry="18"/>
<text text-anchor="middle" x="285" y="-702.3" font-family="Times,serif" font-size="14.00" fill="#000000">add (#11)</text>
</a>
</g>
</g>
<!-- r12&#45;&gt;r11 -->
<g id="edge19" class="edge">
<title>r12:e&#45;&gt;r11:ne</title>
<path fill="none" stroke="#000000" d="M421,-963C429,-963 421.634,-952.9748 421,-945 419.6625,-928.1744 415,-924.3787 415,-907.5 415,-907.5 415,-907.5 415,-768.5 415,-717.8489 349.6043,-755.6543 309.8267,-729.3904"/>
<polygon fill="#000000" stroke="#000000" points="311.9596,-726.6134 302,-723 307.5324,-732.0356 311.9596,-726.6134"/>
<text text-anchor="middle" x="295" y="-726.8" font-family="Times,serif" font-size="14.00" fill="#000000">i2</text>
<text text-anchor="middle" x="453" y="-951.8" font-family="Times,serif" font-size="14.00" fill="#000000">/right&#45;lte</text>
</g>
<!-- r13 -->
<g id="node15" class="node">
<title>r13</title>
<g id="a_node15"><a xlink:href="file:///home/travis/build/andrewdavidmackenzie/flow/flowstdlib/math/add/add.html" xlink:title="add (#13)">
<ellipse fill="#ff7f50" stroke="#000000" cx="81" cy="-706" rx="57.3905" ry="18"/>
<text text-anchor="middle" x="81" y="-702.3" font-family="Times,serif" font-size="14.00" fill="#000000">add (#13)</text>
</a>
</g>
</g>
<!-- r12&#45;&gt;r13 -->
<g id="edge21" class="edge">
<title>r12:e&#45;&gt;r13:n</title>
<path fill="none" stroke="#000000" d="M421,-963C429,-963 424.8158,-952.0313 421,-945 411.1149,-926.7849 131.6897,-774.125 87.0014,-732.2542"/>
<polygon fill="#000000" stroke="#000000" points="89.7116,-730.0299 81,-724 84.0499,-734.1464 89.7116,-730.0299"/>
<text text-anchor="middle" x="74" y="-727.8" font-family="Times,serif" font-size="14.00" fill="#000000">i1</text>
<text text-anchor="middle" x="393.5" y="-966.8" font-family="Times,serif" font-size="14.00" fill="#000000">/right&#45;lt</text>
</g>
<!-- initializerr12_1 -->
<!-- initializerr12_1&#45;&gt;r12 -->
<g id="edge17" class="edge">
<title>initializerr12_1&#45;&gt;r12:ne</title>
<path fill="none" stroke="#0000ff" stroke-dasharray="1,5" d="M358,-1250.6997C358,-1235.9349 358,-1214.6302 358,-1196 358,-1196 358,-1196 358,-1050 358,-1037.6615 365.0206,-1007.5219 362.1137,-990.5699"/>
<polygon fill="#0000ff" stroke="#0000ff" points="365.1647,-988.805 358,-981 358.7337,-991.5694 365.1647,-988.805"/>
<text text-anchor="middle" x="363" y="-1119.3" font-family="Times,serif" font-size="14.00" fill="#000000">2</text>
</g>
<!-- r9&#45;&gt;r10 -->
<g id="edge26" class="edge">
<title>r9:e&#45;&gt;r10:ne</title>
<path fill="none" stroke="#000000" d="M578,-706C583.8458,-706 581.075,-685.7721 582,-680 584.1389,-666.653 578.828,-660.7673 587,-650 621.1965,-604.9436 736.1689,-630.7179 717.5979,-599.9952"/>
<polygon fill="#000000" stroke="#000000" points="720.0644,-597.4852 711,-592 714.6654,-601.9406 720.0644,-597.4852"/>
<text text-anchor="middle" x="729" y="-595.8" font-family="Times,serif" font-size="14.00" fill="#000000">right</text>
</g>
<!-- r11&#45;&gt;r11 -->
<g id="edge31" class="edge">
<title>r11:se&#45;&gt;r11:ne</title>
<path fill="none" stroke="#000000" d="M302,-689C345.065,-680 414.1949,-680 414.1949,-706 414.1949,-730.0703 354.9457,-731.8568 311.9805,-724.8482"/>
<polygon fill="#000000" stroke="#000000" points="312.4702,-721.3795 302,-723 311.1955,-728.2625 312.4702,-721.3795"/>
<text text-anchor="middle" x="309" y="-726.8" font-family="Times,serif" font-size="14.00" fill="#000000">i2</text>
<text text-anchor="middle" x="292.5" y="-677.8" font-family="Times,serif" font-size="14.00" fill="#000000">/i2</text>
</g>
<!-- r11&#45;&gt;r10 -->
<g id="edge32" class="edge">
<title>r11:se&#45;&gt;r10:ne</title>
<path fill="none" stroke="#000000" d="M302,-689C331.7358,-659.2642 666.2754,-631.2117 708.52,-601.8112"/>
<polygon fill="#000000" stroke="#000000" points="711.9426,-602.5528 711,-592 705.156,-600.8373 711.9426,-602.5528"/>
<text text-anchor="middle" x="693" y="-595.8" font-family="Times,serif" font-size="14.00" fill="#000000">right</text>
<text text-anchor="middle" x="319.5" y="-677.8" font-family="Times,serif" font-size="14.00" fill="#000000">/sum</text>
</g>
<!-- r13&#45;&gt;r12 -->
<g id="edge24" class="edge">
<title>r13:se&#45;&gt;r12:ne</title>
<path fill="none" stroke="#000000" d="M98,-689C110.632,-676.368 121.0625,-683.9385 138.1949,-689 139.1692,-689.2878 261,-767.4841 261,-768.5 261,-907.5 261,-907.5 261,-907.5 261,-943.931 397.9696,-916.4447 420.5928,-945 420.5928,-945 383.9021,-966.1025 366.7033,-975.9944"/>
<polygon fill="#000000" stroke="#000000" points="364.9235,-972.9803 358,-981 368.4135,-979.0483 364.9235,-972.9803"/>
<text text-anchor="middle" x="376" y="-984.8" font-family="Times,serif" font-size="14.00" fill="#000000">right</text>
<text text-anchor="middle" x="80.5" y="-677.8" font-family="Times,serif" font-size="14.00" fill="#000000">/sum</text>
</g>
<!-- r13&#45;&gt;r13 -->
<g id="edge23" class="edge">
<title>r13:se&#45;&gt;r13:ne</title>
<path fill="none" stroke="#000000" d="M98,-689C141.065,-680 210.1949,-680 210.1949,-706 210.1949,-730.0703 150.9457,-731.8568 107.9805,-724.8482"/>
<polygon fill="#000000" stroke="#000000" points="108.4702,-721.3795 98,-723 107.1955,-728.2625 108.4702,-721.3795"/>
<text text-anchor="middle" x="91" y="-726.8" font-family="Times,serif" font-size="14.00" fill="#000000">i2</text>
<text text-anchor="middle" x="107.5" y="-677.8" font-family="Times,serif" font-size="14.00" fill="#000000">/i2</text>
</g>
<!-- initializerr13_1 -->
<!-- initializerr13_1&#45;&gt;r13 -->
<g id="edge22" class="edge">
<title>initializerr13_1&#45;&gt;r13:w</title>
<path fill="none" stroke="#0000ff" stroke-dasharray="1,5" d="M103.5,-944.5375C102.25,-933.7583 101,-919.8833 101,-907.5 101,-907.5 101,-907.5 101,-768.5 101,-728.9738 43.7558,-758.2349 24,-724 22.5006,-721.4016 21.0007,-718.2208 20.1335,-715.2597"/>
<polygon fill="#0000ff" stroke="#0000ff" points="23.3765,-716.5765 24,-706 16.917,-713.8792 23.3765,-716.5765"/>
<text text-anchor="middle" x="106" y="-827.3" font-family="Times,serif" font-size="14.00" fill="#000000">1</text>
</g>
<!-- initializerr9_1 -->
<!-- initializerr9_1&#45;&gt;r9 -->
<g id="edge25" class="edge">
<title>initializerr9_1&#45;&gt;r9:w</title>
<path fill="none" stroke="#0000ff" d="M653.8219,-813.9035C624.1502,-793.724 571.6483,-760.5703 522,-742 483.793,-727.7092 457.8618,-755.5463 432,-724 430.0188,-721.5833 428.3647,-718.3081 427.5613,-715.2138"/>
<polygon fill="#0000ff" stroke="#0000ff" points="430.813,-716.5281 432,-706 424.5067,-713.49 430.813,-716.5281"/>
<text text-anchor="middle" x="597" y="-764.8" font-family="Times,serif" font-size="14.00" fill="#000000">2</text>
</g>
<!-- r10&#45;&gt;r0 -->
<g id="edge27" class="edge">
<title>r10:e&#45;&gt;r0:n</title>
<path fill="none" stroke="#000000" d="M774,-574C822.5163,-574 868,-567.0163 868,-518.5 868,-518.5 868,-518.5 868,-248.5 868,-206.2495 946.538,-242.6776 960.0367,-213.95"/>
<polygon fill="#000000" stroke="#000000" points="963.4978,-214.4884 962,-204 956.6303,-213.1333 963.4978,-214.4884"/>
<text text-anchor="middle" x="942.5" y="-207.8" font-family="Times,serif" font-size="14.00" fill="#000000">value</text>
<text text-anchor="middle" x="806" y="-577.8" font-family="Times,serif" font-size="14.00" fill="#000000">/right&#45;lte</text>
</g>
<!-- r10&#45;&gt;r11 -->
<g id="edge29" class="edge">
<title>r10:e&#45;&gt;r11:n</title>
<path fill="none" stroke="#000000" d="M774,-574C782,-574 778.8294,-585.6222 774,-592 734.4183,-644.2719 695.7249,-616.5665 632,-632 605.9928,-638.2987 420.1753,-668.528 396,-680 368.0916,-693.2435 371.2894,-713.6184 342.1949,-724 333.4039,-727.1368 306.6791,-732.521 293.1018,-730.1262"/>
<polygon fill="#000000" stroke="#000000" points="295.0874,-727.2397 285,-724 290.8654,-732.8231 295.0874,-727.2397"/>
<text text-anchor="middle" x="278" y="-727.8" font-family="Times,serif" font-size="14.00" fill="#000000">i1</text>
<text text-anchor="middle" x="801.5" y="-562.8" font-family="Times,serif" font-size="14.00" fill="#000000">/right&#45;lt</text>
</g>
<!-- r10&#45;&gt;r10 -->
<g id="edge28" class="edge">
<title>r10:s&#45;&gt;r10:n</title>
<path fill="none" stroke="#000000" d="M693,-556C743.8643,-547 845.5928,-547 845.5928,-574 845.5928,-599.3125 756.183,-600.8945 703.0959,-593.5776"/>
<polygon fill="#000000" stroke="#000000" points="703.4205,-590.086 693,-592 702.3397,-597.002 703.4205,-590.086"/>
<text text-anchor="middle" x="680.5" y="-580.8" font-family="Times,serif" font-size="14.00" fill="#000000">left</text>
<text text-anchor="middle" x="668.5" y="-544.8" font-family="Times,serif" font-size="14.00" fill="#000000">/left&#45;gt</text>
</g>
<!-- r7 -->
<g id="node19" class="node">
<title>r7</title>
<g id="a_node19"><a xlink:href="file:///home/travis/build/andrewdavidmackenzie/flow/flowstdlib/control/join/join.html" xlink:title="join (#7)">
<ellipse fill="#ff7f50" stroke="#000000" cx="661" cy="-186" rx="51.1914" ry="18"/>
<text text-anchor="middle" x="661" y="-182.3" font-family="Times,serif" font-size="14.00" fill="#000000">join (#7)</text>
</a>
</g>
</g>
<!-- r10&#45;&gt;r7 -->
<g id="edge30" class="edge">
<title>r10:sw&#45;&gt;r7:ne</title>
<path fill="none" stroke="#000000" d="M675,-556C663.1981,-544.1981 677,-535.1904 677,-518.5 677,-518.5 677,-518.5 677,-248.5 677,-232.3815 686.7174,-222.1413 683.4276,-211.4087"/>
<polygon fill="#000000" stroke="#000000" points="686.3638,-209.5037 678,-203 680.4825,-213.2999 686.3638,-209.5037"/>
<text text-anchor="middle" x="704" y="-206.8" font-family="Times,serif" font-size="14.00" fill="#000000">control</text>
<text text-anchor="middle" x="709" y="-544.8" font-family="Times,serif" font-size="14.00" fill="#000000">/right&#45;gte</text>
</g>
<!-- r14 -->
<g id="node21" class="node">
<title>r14</title>
<g id="a_node21"><a xlink:href="file:///home/travis/build/andrewdavidmackenzie/flow/flowstdlib/math/add/add.html" xlink:title="subsequence&#45;count (#14)">
<ellipse fill="#ff7f50" stroke="#000000" cx="566" cy="-34" rx="129.9769" ry="18"/>
<text text-anchor="middle" x="566" y="-30.3" font-family="Times,serif" font-size="14.00" fill="#000000">subsequence&#45;count (#14)</text>
</a>
</g>
</g>
<!-- r7&#45;&gt;r14 -->
<g id="edge36" class="edge">
<title>r7:e&#45;&gt;r14:ne</title>
<path fill="none" stroke="#000000" d="M713,-186C721,-186 716.2563,-175.3073 713,-168 683.0257,-100.7356 642.3692,-105.8772 591.2784,-58.9763"/>
<polygon fill="#000000" stroke="#000000" points="593.6412,-56.3929 584,-52 588.7974,-61.4465 593.6412,-56.3929"/>
<text text-anchor="middle" x="577" y="-55.8" font-family="Times,serif" font-size="14.00" fill="#000000">i2</text>
</g>
<!-- initializerr7_0 -->
<!-- initializerr7_0&#45;&gt;r7 -->
<g id="edge35" class="edge">
<title>initializerr7_0&#45;&gt;r7:nw</title>
<path fill="none" stroke="#0000ff" d="M534.2827,-293.8908C560.3141,-275.0441 602.5242,-243.0126 636.8122,-210.0448"/>
<polygon fill="#0000ff" stroke="#0000ff" points="639.3081,-212.4993 644,-203 634.4083,-207.5001 639.3081,-212.4993"/>
<text text-anchor="middle" x="607" y="-244.8" font-family="Times,serif" font-size="14.00" fill="#000000">1</text>
</g>
<!-- r14&#45;&gt;r14 -->
<g id="edge38" class="edge">
<title>r14:se&#45;&gt;r14:n</title>
<path fill="none" stroke="#000000" d="M584,-16C651.3295,-7 767.9885,-7 767.9885,-34 767.9885,-59.6816 646.1587,-60.9356 576.3208,-53.2519"/>
<polygon fill="#000000" stroke="#000000" points="576.3487,-49.7297 566,-52 575.5058,-56.6788 576.3487,-49.7297"/>
<text text-anchor="middle" x="559" y="-55.8" font-family="Times,serif" font-size="14.00" fill="#000000">i1</text>
<text text-anchor="middle" x="566.5" y="-4.8" font-family="Times,serif" font-size="14.00" fill="#000000">/sum</text>
</g>
<!-- initializerr14_0 -->
<!-- initializerr14_0&#45;&gt;r14 -->
<g id="edge37" class="edge">
<title>initializerr14_0&#45;&gt;r14:ne</title>
<path fill="none" stroke="#0000ff" stroke-dasharray="1,5" d="M480.7672,-168.6724C518.5718,-141.384 586.4502,-88.7191 587.585,-61.6144"/>
<polygon fill="#0000ff" stroke="#0000ff" points="590.7733,-60.1469 584,-52 584.2145,-62.5927 590.7733,-60.1469"/>
<text text-anchor="middle" x="578" y="-103.3" font-family="Times,serif" font-size="14.00" fill="#000000">1</text>
</g>
</g>
</svg>
