<?xml version="1.0" encoding="UTF-8" standalone="no"?>
<!DOCTYPE svg PUBLIC "-//W3C//DTD SVG 1.1//EN"
 "http://www.w3.org/Graphics/SVG/1.1/DTD/svg11.dtd">
<!-- Generated by graphviz version 2.44.0 (20200408.0750)
 -->
<!-- Title: prime Pages: 1 -->
<svg width="1811pt" height="785pt"
 viewBox="0.00 0.00 1811.30 785.00" xmlns="http://www.w3.org/2000/svg" xmlns:xlink="http://www.w3.org/1999/xlink">
<g id="graph0" class="graph" transform="scale(1 1) rotate(0) translate(4 781)">
<title>prime</title>
<polygon fill="white" stroke="transparent" points="-4,4 -4,-781 1807.3,-781 1807.3,4 -4,4"/>
<text text-anchor="middle" x="901.65" y="-761.8" font-family="Times,serif" font-size="14.00">/prime</text>
<g id="clust1" class="cluster">
<title>cluster_candidates</title>
<polygon fill="none" stroke="black" points="1413,-369 1413,-691 1757,-691 1757,-369 1413,-369"/>
<text text-anchor="middle" x="1585" y="-675.8" font-family="Times,serif" font-size="14.00">/prime/candidates</text>
</g>
<g id="clust2" class="cluster">
<title>cluster_composites</title>
<polygon fill="none" stroke="black" points="8,-8 8,-583 1075,-583 1075,-8 8,-8"/>
<text text-anchor="middle" x="541.5" y="-567.8" font-family="Times,serif" font-size="14.00">/prime/composites</text>
</g>
<g id="clust4" class="cluster">
<title>cluster_generate_composites</title>
<polygon fill="none" stroke="black" points="202,-93 202,-444 716,-444 716,-93 202,-93"/>
<text text-anchor="middle" x="459" y="-428.8" font-family="Times,serif" font-size="14.00">/prime/composites/generate_composites</text>
</g>
<g id="clust5" class="cluster">
<title>cluster_composite_sequence</title>
<polygon fill="none" stroke="black" points="210,-101 210,-263 708,-263 708,-101 210,-101"/>
<text text-anchor="middle" x="459" y="-247.8" font-family="Times,serif" font-size="14.00">/prime/composites/generate_composites/composite&#45;sequence</text>
</g>
<g id="clust3" class="cluster">
<title>cluster_divisors</title>
<polygon fill="none" stroke="black" points="724,-282 724,-552 1067,-552 1067,-282 724,-282"/>
<text text-anchor="middle" x="895.5" y="-536.8" font-family="Times,serif" font-size="14.00">/prime/composites/divisors</text>
</g>
<!-- r0 -->
<g id="node1" class="node">
<title>r0</title>
<g id="a_node1"><a xlink:href="file:///Users/andrew/workspace/flow/flowruntime/args/get.html" xlink:title="args (#0)">
<ellipse fill="coral" stroke="black" cx="958" cy="-736" rx="42.49" ry="18"/>
<text text-anchor="middle" x="958" y="-732.3" font-family="Times,serif" font-size="14.00">args (#0)</text>
</a>
</g>
</g>
<!-- r1 -->
<g id="node2" class="node">
<title>r1</title>
<g id="a_node2"><a xlink:href="file:///Users/andrew/workspace/flow/flowstdlib/fmt/to_number/to_number.html" xlink:title="to_number (#1)">
<ellipse fill="coral" stroke="black" cx="941" cy="-642" rx="66.09" ry="18"/>
<text text-anchor="middle" x="941" y="-638.3" font-family="Times,serif" font-size="14.00">to_number (#1)</text>
</a>
</g>
</g>
<!-- r0&#45;&gt;r1 -->
<g id="edge1" class="edge">
<title>r0:sw&#45;&gt;r1:n</title>
<path fill="none" stroke="black" d="M941,-718C925.61,-702.61 936.67,-690.28 940.09,-671.04"/>
<polygon fill="black" stroke="black" points="943.58,-671.28 941,-661 936.61,-670.64 943.58,-671.28"/>
<text text-anchor="middle" x="935.5" y="-706.8" font-family="Times,serif" font-size="14.00">/1</text>
</g>
<!-- r2 -->
<g id="node3" class="node">
<title>r2</title>
<g id="a_node3"><a xlink:href="file:///Users/andrew/workspace/flow/flowstdlib/control/compare_switch/compare_switch.html" xlink:title="compare (#2)">
<ellipse fill="coral" stroke="black" cx="1480" cy="-503" rx="58.49" ry="18"/>
<text text-anchor="middle" x="1480" y="-499.3" font-family="Times,serif" font-size="14.00">compare (#2)</text>
</a>
</g>
</g>
<!-- r1&#45;&gt;r2 -->
<g id="edge2" class="edge">
<title>r1:e&#45;&gt;r2:n</title>
<path fill="none" stroke="black" d="M1009,-642C1113.53,-642 1456.87,-630.77 1478.89,-532.15"/>
<polygon fill="black" stroke="black" points="1482.39,-532.32 1480,-522 1475.43,-531.56 1482.39,-532.32"/>
<text text-anchor="middle" x="1470.5" y="-525.8" font-family="Times,serif" font-size="14.00">left</text>
</g>
<!-- r4 -->
<g id="node4" class="node">
<title>r4</title>
<g id="a_node4"><a xlink:href="file:///Users/andrew/workspace/flow/flowstdlib/data/accumulate/accumulate.html" xlink:title="all&#45;numbers (#4)">
<ellipse fill="coral" stroke="black" cx="1491" cy="-395" rx="70.39" ry="18"/>
<text text-anchor="middle" x="1491" y="-391.3" font-family="Times,serif" font-size="14.00">all&#45;numbers (#4)</text>
</a>
</g>
</g>
<!-- r1&#45;&gt;r4 -->
<g id="edge3" class="edge">
<title>r1:e&#45;&gt;r4:nw</title>
<path fill="none" stroke="black" d="M1009,-642C1116.5,-642 1097.61,-534.57 1193,-485 1247.07,-456.91 1409.88,-459.07 1465.1,-420.54"/>
<polygon fill="black" stroke="black" points="1467.53,-423.07 1473,-414 1463.07,-417.68 1467.53,-423.07"/>
<text text-anchor="middle" x="1442.5" y="-417.8" font-family="Times,serif" font-size="14.00">chunk_size</text>
</g>
<!-- r5 -->
<g id="node5" class="node">
<title>r5</title>
<g id="a_node5"><a xlink:href="file:///Users/andrew/workspace/flow/flowstdlib/math/sqrt/sqrt.html" xlink:title="sqrt (#5)">
<ellipse fill="coral" stroke="black" cx="675" cy="-503" rx="40.89" ry="18"/>
<text text-anchor="middle" x="675" y="-499.3" font-family="Times,serif" font-size="14.00">sqrt (#5)</text>
</a>
</g>
</g>
<!-- r1&#45;&gt;r5 -->
<g id="edge4" class="edge">
<title>r1:e&#45;&gt;r5:n</title>
<path fill="none" stroke="black" d="M1009,-642C1017.01,-642 1013.42,-629.9 1008,-624 920.59,-528.74 831.01,-649.29 720,-583 694.24,-567.62 678.67,-557.97 675.57,-532.25"/>
<polygon fill="black" stroke="black" points="679.05,-531.79 675,-522 672.06,-532.18 679.05,-531.79"/>
</g>
<!-- r11 -->
<g id="node6" class="node">
<title>r11</title>
<g id="a_node6"><a xlink:href="file:///Users/andrew/workspace/flow/flowstdlib/data/buffer/buffer.html" xlink:title="limit&#45;buffer (#11)">
<ellipse fill="coral" stroke="black" cx="394" cy="-308" rx="73.39" ry="18"/>
<text text-anchor="middle" x="394" y="-304.3" font-family="Times,serif" font-size="14.00">limit&#45;buffer (#11)</text>
</a>
</g>
</g>
<!-- r1&#45;&gt;r11 -->
<g id="edge5" class="edge">
<title>r1:e&#45;&gt;r11:n</title>
<path fill="none" stroke="black" d="M1009,-642C1017.01,-642 1013.64,-629.69 1008,-624 985.57,-601.4 753.76,-608.28 722,-606 658.4,-601.44 482.89,-626.21 436,-583 353.38,-506.87 391.58,-445.43 393.89,-336.04"/>
<polygon fill="black" stroke="black" points="397.39,-336.04 394,-326 390.39,-335.96 397.39,-336.04"/>
</g>
<!-- r2&#45;&gt;r2 -->
<g id="edge8" class="edge">
<title>r2:s&#45;&gt;r2:n</title>
<path fill="none" stroke="black" d="M1480,-485C1523.5,-474.5 1610.49,-474.5 1610.49,-503 1610.49,-529.44 1535.62,-531.35 1490.06,-523.11"/>
<polygon fill="black" stroke="black" points="1490.5,-519.62 1480,-521 1489.07,-526.47 1490.5,-519.62"/>
<text text-anchor="middle" x="1489.5" y="-524.8" font-family="Times,serif" font-size="14.00">left</text>
<text text-anchor="middle" x="1461.5" y="-473.8" font-family="Times,serif" font-size="14.00">/left&#45;gt</text>
</g>
<!-- r2&#45;&gt;r4 -->
<g id="edge7" class="edge">
<title>r2:e&#45;&gt;r4:n</title>
<path fill="none" stroke="black" d="M1540,-503C1548.01,-503 1541.56,-492.59 1539,-485 1528.03,-452.43 1497.77,-451.84 1491.97,-424.05"/>
<polygon fill="black" stroke="black" points="1495.44,-423.62 1491,-414 1488.48,-424.29 1495.44,-423.62"/>
<text text-anchor="middle" x="1508.5" y="-417.8" font-family="Times,serif" font-size="14.00">values</text>
<text text-anchor="middle" x="1564" y="-506.8" font-family="Times,serif" font-size="14.00">/right&#45;lte</text>
</g>
<!-- r3 -->
<g id="node8" class="node">
<title>r3</title>
<g id="a_node8"><a xlink:href="file:///Users/andrew/workspace/flow/flowstdlib/math/add/add.html" xlink:title="add (#3)">
<ellipse fill="coral" stroke="black" cx="1691" cy="-395" rx="40.09" ry="18"/>
<text text-anchor="middle" x="1691" y="-391.3" font-family="Times,serif" font-size="14.00">add (#3)</text>
</a>
</g>
</g>
<!-- r2&#45;&gt;r3 -->
<g id="edge9" class="edge">
<title>r2:e&#45;&gt;r3:n</title>
<path fill="none" stroke="black" d="M1540,-503C1544.18,-503 1652.69,-440.87 1683.13,-420.3"/>
<polygon fill="black" stroke="black" points="1685.38,-422.98 1691,-414 1681.01,-417.52 1685.38,-422.98"/>
<text text-anchor="middle" x="1685.5" y="-417.8" font-family="Times,serif" font-size="14.00">i1</text>
<text text-anchor="middle" x="1561" y="-491.8" font-family="Times,serif" font-size="14.00">/right&#45;lt</text>
</g>
<!-- r4&#45;&gt;r4 -->
<g id="edge14" class="edge">
<title>r4:s&#45;&gt;r4:nw</title>
<path fill="none" stroke="black" d="M1491,-377C1443.6,-366.5 1348.81,-366.5 1348.81,-395 1348.81,-421.55 1415.46,-423.37 1462.9,-415"/>
<polygon fill="black" stroke="black" points="1463.87,-418.38 1473,-413 1462.51,-411.51 1463.87,-418.38"/>
<text text-anchor="middle" x="1503.5" y="-416.8" font-family="Times,serif" font-size="14.00">chunk_size</text>
<text text-anchor="middle" x="1458.5" y="-365.8" font-family="Times,serif" font-size="14.00">/chunk_size</text>
</g>
<!-- r4&#45;&gt;r4 -->
<g id="edge15" class="edge">
<title>r4:e&#45;&gt;r4:ne</title>
<path fill="none" stroke="black" d="M1561,-395C1585.19,-384.5 1633.19,-384.5 1633.19,-404 1633.19,-422.17 1566.54,-423.41 1519.1,-415"/>
<polygon fill="black" stroke="black" points="1519.49,-411.51 1509,-413 1518.13,-418.38 1519.49,-411.51"/>
<text text-anchor="middle" x="1491.5" y="-401.8" font-family="Times,serif" font-size="14.00">partial</text>
<text text-anchor="middle" x="1580.5" y="-398.8" font-family="Times,serif" font-size="14.00">/partial</text>
</g>
<!-- r14 -->
<g id="node11" class="node">
<title>r14</title>
<g id="a_node11"><a xlink:href="file:///Users/andrew/workspace/flow/flowstdlib/data/remove/remove.html" xlink:title="subtract (#14)">
<ellipse fill="coral" stroke="black" cx="622" cy="-127" rx="59.59" ry="18"/>
<text text-anchor="middle" x="622" y="-123.3" font-family="Times,serif" font-size="14.00">subtract (#14)</text>
</a>
</g>
</g>
<!-- r4&#45;&gt;r14 -->
<g id="edge16" class="edge">
<title>r4:s&#45;&gt;r14:ne</title>
<path fill="none" stroke="black" d="M1491,-376C1491,12.46 927.16,-414.49 647.38,-152.14"/>
<polygon fill="black" stroke="black" points="649.62,-149.44 640,-145 644.75,-154.47 649.62,-149.44"/>
<text text-anchor="middle" x="626" y="-148.8" font-family="Times,serif" font-size="14.00">array</text>
<text text-anchor="middle" x="1509.5" y="-364.8" font-family="Times,serif" font-size="14.00">/chunk</text>
</g>
<!-- r6 -->
<g id="node12" class="node">
<title>r6</title>
<g id="a_node12"><a xlink:href="file:///Users/andrew/workspace/flow/flowstdlib/control/compare_switch/compare_switch.html" xlink:title="compare (#6)">
<ellipse fill="coral" stroke="black" cx="983" cy="-395" rx="58.49" ry="18"/>
<text text-anchor="middle" x="983" y="-391.3" font-family="Times,serif" font-size="14.00">compare (#6)</text>
</a>
</g>
</g>
<!-- r5&#45;&gt;r6 -->
<g id="edge17" class="edge">
<title>r5:e&#45;&gt;r6:n</title>
<path fill="none" stroke="black" d="M717,-503C721.06,-503 717.24,-487.97 720,-485 772.29,-428.67 813.98,-464.69 888,-444 926.81,-433.15 973.67,-453.88 981.78,-424.31"/>
<polygon fill="black" stroke="black" points="985.3,-424.34 983,-414 978.35,-423.52 985.3,-424.34"/>
<text text-anchor="middle" x="973.5" y="-417.8" font-family="Times,serif" font-size="14.00">left</text>
</g>
<!-- r11&#45;&gt;r11 -->
<g id="edge34" class="edge">
<title>r11:e&#45;&gt;r11:n</title>
<path fill="none" stroke="black" d="M468,-308C491.44,-299 539.44,-299 539.44,-317 539.44,-333.84 454.58,-334.93 403.94,-327.63"/>
<polygon fill="black" stroke="black" points="404.43,-324.16 394,-326 403.3,-331.07 404.43,-324.16"/>
</g>
<!-- r9 -->
<g id="node19" class="node">
<title>r9</title>
<g id="a_node19"><a xlink:href="file:///Users/andrew/workspace/flow/flowstdlib/control/compare_switch/compare_switch.html" xlink:title="compare (#9)">
<ellipse fill="coral" stroke="black" cx="440" cy="-214" rx="58.49" ry="18"/>
<text text-anchor="middle" x="440" y="-210.3" font-family="Times,serif" font-size="14.00">compare (#9)</text>
</a>
</g>
</g>
<!-- r11&#45;&gt;r9 -->
<g id="edge35" class="edge">
<title>r11:e&#45;&gt;r9:n</title>
<path fill="none" stroke="black" d="M469,-308C477.01,-308 470.03,-297.75 468,-290 461.8,-266.32 445.3,-262.07 441.02,-242.95"/>
<polygon fill="black" stroke="black" points="444.5,-242.59 440,-233 437.54,-243.31 444.5,-242.59"/>
<text text-anchor="middle" x="430.5" y="-236.8" font-family="Times,serif" font-size="14.00">left</text>
</g>
<!-- initializerr2_1 -->
<!-- initializerr2_1&#45;&gt;r2 -->
<g id="edge6" class="edge">
<title>initializerr2_1&#45;&gt;r2:ne</title>
<path fill="none" stroke="blue" stroke-dasharray="1,5" d="M1503.58,-623.87C1511.58,-600.05 1521.9,-556.71 1503.36,-528.78"/>
<polygon fill="blue" stroke="blue" points="1506.04,-526.53 1497,-521 1500.62,-530.96 1506.04,-526.53"/>
<text text-anchor="middle" x="1514.5" y="-594.8" font-family="Times,serif" font-size="14.00">1</text>
</g>
<!-- r3&#45;&gt;r2 -->
<g id="edge12" class="edge">
<title>r3:se&#45;&gt;r2:ne</title>
<path fill="none" stroke="black" d="M1708,-377C1715.33,-369.67 1724.13,-370.52 1731.3,-378 1742.06,-389.23 1736.54,-398.35 1731.3,-413 1720.84,-442.23 1713.66,-451.11 1687,-467 1650.84,-488.55 1633.15,-469.51 1594,-485 1566.88,-495.73 1566.41,-511.57 1538.49,-520 1524.7,-524.17 1515.09,-530.4 1505.33,-526.7"/>
<polygon fill="black" stroke="black" points="1507.23,-523.76 1497,-521 1503.28,-529.54 1507.23,-523.76"/>
<text text-anchor="middle" x="1510" y="-524.8" font-family="Times,serif" font-size="14.00">right</text>
<text text-anchor="middle" x="1694" y="-365.8" font-family="Times,serif" font-size="14.00">/sum</text>
</g>
<!-- r3&#45;&gt;r3 -->
<g id="edge11" class="edge">
<title>r3:se&#45;&gt;r3:ne</title>
<path fill="none" stroke="black" d="M1708,-378C1745.43,-367.5 1803.3,-367.5 1803.3,-395 1803.3,-420.14 1754.95,-422.3 1718.05,-414.46"/>
<polygon fill="black" stroke="black" points="1718.55,-410.98 1708,-412 1716.88,-417.78 1718.55,-410.98"/>
<text text-anchor="middle" x="1702.5" y="-415.8" font-family="Times,serif" font-size="14.00">i2</text>
<text text-anchor="middle" x="1715.5" y="-366.8" font-family="Times,serif" font-size="14.00">/i2</text>
</g>
<!-- initializerr3_1 -->
<!-- initializerr3_1&#45;&gt;r3 -->
<g id="edge10" class="edge">
<title>initializerr3_1&#45;&gt;r3:w</title>
<path fill="none" stroke="blue" stroke-dasharray="1,5" d="M1675.61,-485.28C1655.17,-458.71 1620.41,-408.69 1638.74,-397.33"/>
<polygon fill="blue" stroke="blue" points="1640.03,-400.63 1649,-395 1638.47,-393.8 1640.03,-400.63"/>
<text text-anchor="middle" x="1665.5" y="-455.8" font-family="Times,serif" font-size="14.00">1</text>
</g>
<!-- initializerr4_1 -->
<!-- initializerr4_1&#45;&gt;r4 -->
<g id="edge13" class="edge">
<title>initializerr4_1&#45;&gt;r4:n</title>
<path fill="none" stroke="blue" stroke-dasharray="1,5" d="M1335.6,-491.51C1389.43,-478.16 1472.64,-453.24 1488.38,-423.73"/>
<polygon fill="blue" stroke="blue" points="1491.78,-424.57 1491,-414 1485.02,-422.75 1491.78,-424.57"/>
<text text-anchor="middle" x="1457" y="-455.8" font-family="Times,serif" font-size="14.00">[]</text>
</g>
<!-- r14&#45;&gt;r14 -->
<g id="edge40" class="edge">
<title>r14:e&#45;&gt;r14:ne</title>
<path fill="none" stroke="black" d="M682,-127C705.79,-116.5 753.79,-116.5 753.79,-136 753.79,-154.09 693.66,-155.4 649.89,-147.11"/>
<polygon fill="black" stroke="black" points="650.51,-143.66 640,-145 649.05,-150.51 650.51,-143.66"/>
<text text-anchor="middle" x="654" y="-148.8" font-family="Times,serif" font-size="14.00">array</text>
</g>
<!-- r15 -->
<g id="node24" class="node">
<title>r15</title>
<g id="a_node24"><a xlink:href="file:///Users/andrew/workspace/flow/flowruntime/stdio/stdout.html" xlink:title="print (#15)">
<ellipse fill="coral" stroke="black" cx="1132" cy="-34" rx="48.99" ry="18"/>
<text text-anchor="middle" x="1132" y="-30.3" font-family="Times,serif" font-size="14.00">print (#15)</text>
</a>
</g>
</g>
<!-- r14&#45;&gt;r15 -->
<g id="edge41" class="edge">
<title>r14:e&#45;&gt;r15:n</title>
<path fill="none" stroke="black" d="M683,-127C774.15,-127 1006.7,-119.66 1091,-85 1108.92,-77.63 1125.28,-75.88 1130.37,-62.21"/>
<polygon fill="black" stroke="black" points="1133.88,-62.43 1132,-52 1126.97,-61.32 1133.88,-62.43"/>
</g>
<!-- r6&#45;&gt;r6 -->
<g id="edge21" class="edge">
<title>r6:s&#45;&gt;r6:n</title>
<path fill="none" stroke="black" d="M983,-377C1026.5,-366.5 1113.49,-366.5 1113.49,-395 1113.49,-421.44 1038.62,-423.35 993.06,-415.11"/>
<polygon fill="black" stroke="black" points="993.5,-411.62 983,-413 992.07,-418.47 993.5,-411.62"/>
<text text-anchor="middle" x="992.5" y="-416.8" font-family="Times,serif" font-size="14.00">left</text>
<text text-anchor="middle" x="964.5" y="-365.8" font-family="Times,serif" font-size="14.00">/left&#45;gt</text>
</g>
<!-- r8 -->
<g id="node14" class="node">
<title>r8</title>
<g id="a_node14"><a xlink:href="file:///Users/andrew/workspace/flow/flowstdlib/math/multiply/multiply.html" xlink:title="multiply (#8)">
<ellipse fill="coral" stroke="black" cx="644" cy="-308" rx="57.69" ry="18"/>
<text text-anchor="middle" x="644" y="-304.3" font-family="Times,serif" font-size="14.00">multiply (#8)</text>
</a>
</g>
</g>
<!-- r6&#45;&gt;r8 -->
<g id="edge19" class="edge">
<title>r6:e&#45;&gt;r8:n</title>
<path fill="none" stroke="black" d="M1043,-395C1051.01,-395 1047.63,-382.7 1042,-377 1021.74,-356.46 811.52,-363.35 783,-359 723.91,-349.99 652.89,-384.97 644.77,-336.13"/>
<polygon fill="black" stroke="black" points="648.25,-335.71 644,-326 641.27,-336.24 648.25,-335.71"/>
<text text-anchor="middle" x="638.5" y="-329.8" font-family="Times,serif" font-size="14.00">i1</text>
<text text-anchor="middle" x="1067" y="-398.8" font-family="Times,serif" font-size="14.00">/right&#45;lte</text>
</g>
<!-- r10 -->
<g id="node15" class="node">
<title>r10</title>
<g id="a_node15"><a xlink:href="file:///Users/andrew/workspace/flow/flowstdlib/math/add/add.html" xlink:title="add (#10)">
<ellipse fill="coral" stroke="black" cx="427" cy="-127" rx="44.69" ry="18"/>
<text text-anchor="middle" x="427" y="-123.3" font-family="Times,serif" font-size="14.00">add (#10)</text>
</a>
</g>
</g>
<!-- r6&#45;&gt;r10 -->
<g id="edge20" class="edge">
<title>r6:e&#45;&gt;r10:ne</title>
<path fill="none" stroke="black" d="M1043,-395C1051.01,-395 1047.6,-382.73 1042,-377 1006,-340.19 857.03,-382.08 811,-359 764.55,-335.7 774.72,-303.29 734,-271 653.93,-207.5 627.12,-197.7 531,-163 497.34,-150.85 476.17,-168.87 451.71,-151.57"/>
<polygon fill="black" stroke="black" points="453.88,-148.82 444,-145 449.34,-154.15 453.88,-148.82"/>
<text text-anchor="middle" x="438.5" y="-148.8" font-family="Times,serif" font-size="14.00">i2</text>
<text text-anchor="middle" x="1067" y="-383.8" font-family="Times,serif" font-size="14.00">/right&#45;lte</text>
</g>
<!-- r7 -->
<g id="node16" class="node">
<title>r7</title>
<g id="a_node16"><a xlink:href="file:///Users/andrew/workspace/flow/flowstdlib/math/add/add.html" xlink:title="add (#7)">
<ellipse fill="coral" stroke="black" cx="983" cy="-308" rx="40.09" ry="18"/>
<text text-anchor="middle" x="983" y="-304.3" font-family="Times,serif" font-size="14.00">add (#7)</text>
</a>
</g>
</g>
<!-- r6&#45;&gt;r7 -->
<g id="edge22" class="edge">
<title>r6:e&#45;&gt;r7:n</title>
<path fill="none" stroke="black" d="M1043,-395C1078.66,-395 1068.51,-386.8 1019,-344 1009.27,-335.59 994.93,-339.21 987.63,-335.27"/>
<polygon fill="black" stroke="black" points="990.6,-333.38 983,-326 984.34,-336.51 990.6,-333.38"/>
<text text-anchor="middle" x="977.5" y="-329.8" font-family="Times,serif" font-size="14.00">i1</text>
<text text-anchor="middle" x="1022" y="-398.8" font-family="Times,serif" font-size="14.00">/right&#45;lt</text>
</g>
<!-- initializerr6_1 -->
<!-- initializerr6_1&#45;&gt;r6 -->
<g id="edge18" class="edge">
<title>initializerr6_1&#45;&gt;r6:ne</title>
<path fill="none" stroke="blue" stroke-dasharray="1,5" d="M971.05,-485.79C989.94,-468.91 1014.17,-442.07 1005.73,-421.42"/>
<polygon fill="blue" stroke="blue" points="1008.52,-419.3 1000,-413 1002.73,-423.24 1008.52,-419.3"/>
<text text-anchor="middle" x="1003.5" y="-455.8" font-family="Times,serif" font-size="14.00">2</text>
</g>
<!-- r8&#45;&gt;r9 -->
<g id="edge27" class="edge">
<title>r8:e&#45;&gt;r9:ne</title>
<path fill="none" stroke="black" d="M703,-308C707.01,-308 704.57,-293.07 702,-290 632.42,-206.88 541.98,-304.63 464.46,-238.88"/>
<polygon fill="black" stroke="black" points="466.72,-236.21 457,-232 461.98,-241.35 466.72,-236.21"/>
<text text-anchor="middle" x="470" y="-235.8" font-family="Times,serif" font-size="14.00">right</text>
</g>
<!-- r10&#45;&gt;r10 -->
<g id="edge32" class="edge">
<title>r10:se&#45;&gt;r10:ne</title>
<path fill="none" stroke="black" d="M444,-110C482.95,-99.5 543.85,-99.5 543.85,-127 543.85,-152.24 492.53,-154.31 453.98,-146.36"/>
<polygon fill="black" stroke="black" points="454.54,-142.9 444,-144 452.93,-149.71 454.54,-142.9"/>
<text text-anchor="middle" x="449.5" y="-147.8" font-family="Times,serif" font-size="14.00">i2</text>
<text text-anchor="middle" x="436.5" y="-98.8" font-family="Times,serif" font-size="14.00">/i2</text>
</g>
<!-- r10&#45;&gt;r9 -->
<g id="edge33" class="edge">
<title>r10:se&#45;&gt;r9:ne</title>
<path fill="none" stroke="black" d="M444,-109C485.99,-67.01 539.98,-188.51 498.49,-231 493.81,-235.8 477.47,-237.59 466.39,-235.72"/>
<polygon fill="black" stroke="black" points="467.59,-232.43 457,-232 465.01,-238.94 467.59,-232.43"/>
<text text-anchor="middle" x="444" y="-235.8" font-family="Times,serif" font-size="14.00">right</text>
<text text-anchor="middle" x="458" y="-97.8" font-family="Times,serif" font-size="14.00">/sum</text>
</g>
<!-- r7&#45;&gt;r6 -->
<g id="edge25" class="edge">
<title>r7:se&#45;&gt;r6:ne</title>
<path fill="none" stroke="black" d="M1000,-290C1007.33,-282.67 1016.13,-283.52 1023.3,-291 1034.06,-302.23 1029.31,-311.65 1023.3,-326 1018.89,-336.52 1009.41,-333.48 1005,-344 1002.42,-350.15 1001.48,-353.34 1005,-359 1014.55,-374.36 1031.94,-361.64 1041.49,-377 1049.71,-390.21 1052.36,-400.87 1041.49,-412 1036.81,-416.8 1020.47,-418.59 1009.39,-416.72"/>
<polygon fill="black" stroke="black" points="1010.59,-413.43 1000,-413 1008.01,-419.94 1010.59,-413.43"/>
<text text-anchor="middle" x="1013" y="-416.8" font-family="Times,serif" font-size="14.00">right</text>
<text text-anchor="middle" x="986" y="-278.8" font-family="Times,serif" font-size="14.00">/sum</text>
</g>
<!-- r7&#45;&gt;r7 -->
<g id="edge24" class="edge">
<title>r7:se&#45;&gt;r7:ne</title>
<path fill="none" stroke="black" d="M1000,-291C1037.43,-282 1095.3,-282 1095.3,-308 1095.3,-331.77 1046.95,-333.81 1010.05,-327.11"/>
<polygon fill="black" stroke="black" points="1010.51,-323.63 1000,-325 1009.07,-330.48 1010.51,-323.63"/>
<text text-anchor="middle" x="994.5" y="-328.8" font-family="Times,serif" font-size="14.00">i2</text>
<text text-anchor="middle" x="1007.5" y="-279.8" font-family="Times,serif" font-size="14.00">/i2</text>
</g>
<!-- initializerr7_1 -->
<!-- initializerr7_1&#45;&gt;r7 -->
<g id="edge23" class="edge">
<title>initializerr7_1&#45;&gt;r7:w</title>
<path fill="none" stroke="blue" stroke-dasharray="1,5" d="M807.69,-377.42C831.52,-353.99 879.53,-313.48 930.73,-308.51"/>
<polygon fill="blue" stroke="blue" points="931.18,-311.99 941,-308 930.84,-305 931.18,-311.99"/>
<text text-anchor="middle" x="848.5" y="-347.8" font-family="Times,serif" font-size="14.00">1</text>
</g>
<!-- initializerr8_1 -->
<!-- initializerr8_1&#45;&gt;r8 -->
<g id="edge26" class="edge">
<title>initializerr8_1&#45;&gt;r8:w</title>
<path fill="none" stroke="blue" d="M579.14,-377.01C571.29,-355.67 561.25,-320.63 575.31,-310.7"/>
<polygon fill="blue" stroke="blue" points="576.31,-314.05 585,-308 574.43,-307.31 576.31,-314.05"/>
<text text-anchor="middle" x="577.5" y="-347.8" font-family="Times,serif" font-size="14.00">2</text>
</g>
<!-- r9&#45;&gt;r14 -->
<g id="edge28" class="edge">
<title>r9:e&#45;&gt;r14:n</title>
<path fill="none" stroke="black" d="M500,-214C558.77,-214 615.23,-208.03 621.44,-155.06"/>
<polygon fill="black" stroke="black" points="624.93,-155.18 622,-145 617.95,-154.79 624.93,-155.18"/>
<text text-anchor="middle" x="607" y="-148.8" font-family="Times,serif" font-size="14.00">value</text>
<text text-anchor="middle" x="524" y="-217.8" font-family="Times,serif" font-size="14.00">/right&#45;lte</text>
</g>
<!-- r9&#45;&gt;r10 -->
<g id="edge30" class="edge">
<title>r9:e&#45;&gt;r10:n</title>
<path fill="none" stroke="black" d="M500,-214C508.01,-214 503.9,-202.34 499,-196 483.02,-175.31 462.74,-195.14 443,-178 433.67,-169.9 429.29,-164.49 427.72,-155.25"/>
<polygon fill="black" stroke="black" points="431.19,-154.73 427,-145 424.21,-155.22 431.19,-154.73"/>
<text text-anchor="middle" x="421.5" y="-148.8" font-family="Times,serif" font-size="14.00">i1</text>
<text text-anchor="middle" x="521" y="-202.8" font-family="Times,serif" font-size="14.00">/right&#45;lt</text>
</g>
<!-- r9&#45;&gt;r9 -->
<g id="edge29" class="edge">
<title>r9:s&#45;&gt;r9:n</title>
<path fill="none" stroke="black" d="M440,-196C483.5,-185.5 570.49,-185.5 570.49,-214 570.49,-240.44 495.62,-242.35 450.06,-234.11"/>
<polygon fill="black" stroke="black" points="450.5,-230.62 440,-232 449.07,-237.47 450.5,-230.62"/>
<text text-anchor="middle" x="430.5" y="-220.8" font-family="Times,serif" font-size="14.00">left</text>
<text text-anchor="middle" x="421.5" y="-184.8" font-family="Times,serif" font-size="14.00">/left&#45;gt</text>
</g>
<!-- r12 -->
<g id="node20" class="node">
<title>r12</title>
<g id="a_node20"><a xlink:href="file:///Users/andrew/workspace/flow/flowstdlib/control/join/join.html" xlink:title="join (#12)">
<ellipse fill="coral" stroke="black" cx="264" cy="-127" rx="46.29" ry="18"/>
<text text-anchor="middle" x="264" y="-123.3" font-family="Times,serif" font-size="14.00">join (#12)</text>
</a>
</g>
</g>
<!-- r9&#45;&gt;r12 -->
<g id="edge31" class="edge">
<title>r9:sw&#45;&gt;r12:ne</title>
<path fill="none" stroke="black" d="M423,-196C398.39,-171.39 384.79,-174.66 352,-163 324.92,-153.37 308.26,-164.65 288.89,-151.59"/>
<polygon fill="black" stroke="black" points="290.92,-148.73 281,-145 286.43,-154.1 290.92,-148.73"/>
<text text-anchor="middle" x="261.5" y="-148.8" font-family="Times,serif" font-size="14.00">control</text>
<text text-anchor="middle" x="448.5" y="-184.8" font-family="Times,serif" font-size="14.00">/right&#45;gte</text>
</g>
<!-- r13 -->
<g id="node22" class="node">
<title>r13</title>
<g id="a_node22"><a xlink:href="file:///Users/andrew/workspace/flow/flowstdlib/math/add/add.html" xlink:title="subsequence&#45;count (#13)">
<ellipse fill="coral" stroke="black" cx="204" cy="-34" rx="98.58" ry="18"/>
<text text-anchor="middle" x="204" y="-30.3" font-family="Times,serif" font-size="14.00">subsequence&#45;count (#13)</text>
</a>
</g>
</g>
<!-- r12&#45;&gt;r13 -->
<g id="edge37" class="edge">
<title>r12:e&#45;&gt;r13:ne</title>
<path fill="none" stroke="black" d="M312,-127C320.01,-127 315.04,-115.92 311,-109 289.17,-71.6 260.18,-82.94 229.76,-58.92"/>
<polygon fill="black" stroke="black" points="231.79,-56.04 222,-52 227.13,-61.27 231.79,-56.04"/>
<text text-anchor="middle" x="216.5" y="-55.8" font-family="Times,serif" font-size="14.00">i2</text>
</g>
<!-- initializerr12_0 -->
<!-- initializerr12_0&#45;&gt;r12 -->
<g id="edge36" class="edge">
<title>initializerr12_0&#45;&gt;r12:nw</title>
<path fill="none" stroke="blue" d="M163.97,-198.8C186.74,-188.37 216.38,-172.49 239.45,-152.09"/>
<polygon fill="blue" stroke="blue" points="242.11,-154.4 247,-145 237.31,-149.29 242.11,-154.4"/>
<text text-anchor="middle" x="228.5" y="-166.8" font-family="Times,serif" font-size="14.00">1</text>
</g>
<!-- r13&#45;&gt;r13 -->
<g id="edge39" class="edge">
<title>r13:se&#45;&gt;r13:n</title>
<path fill="none" stroke="black" d="M222,-16C278.93,-5.5 374.79,-5.5 374.79,-34 374.79,-60.89 273.46,-62.41 214.19,-53.68"/>
<polygon fill="black" stroke="black" points="214.44,-50.17 204,-52 213.3,-57.08 214.44,-50.17"/>
<text text-anchor="middle" x="198.5" y="-55.8" font-family="Times,serif" font-size="14.00">i1</text>
<text text-anchor="middle" x="208" y="-4.8" font-family="Times,serif" font-size="14.00">/sum</text>
</g>
<!-- initializerr13_0 -->
<!-- initializerr13_0&#45;&gt;r13 -->
<g id="edge38" class="edge">
<title>initializerr13_0&#45;&gt;r13:ne</title>
<path fill="none" stroke="blue" stroke-dasharray="1,5" d="M121.6,-112.9C160.46,-99.53 214.47,-78.46 223.32,-62.01"/>
<polygon fill="blue" stroke="blue" points="226.78,-61.46 222,-52 219.84,-62.37 226.78,-61.46"/>
<text text-anchor="middle" x="218.5" y="-73.8" font-family="Times,serif" font-size="14.00">1</text>
</g>
</g>
</svg>
