<?xml version="1.0" encoding="UTF-8" standalone="no"?>
<!DOCTYPE svg PUBLIC "-//W3C//DTD SVG 1.1//EN"
 "http://www.w3.org/Graphics/SVG/1.1/DTD/svg11.dtd">
<!-- Generated by graphviz version 2.40.1 (20161225.0304)
 -->
<!-- Title: prime Pages: 1 -->
<svg width="1861pt" height="1388pt"
 viewBox="0.00 0.00 1861.19 1388.00" xmlns="http://www.w3.org/2000/svg" xmlns:xlink="http://www.w3.org/1999/xlink">
<g id="graph0" class="graph" transform="scale(1 1) rotate(0) translate(4 1384)">
<title>prime</title>
<polygon fill="#ffffff" stroke="transparent" points="-4,4 -4,-1384 1857.1949,-1384 1857.1949,4 -4,4"/>
<text text-anchor="middle" x="926.5975" y="-1364.8" font-family="Times,serif" font-size="14.00" fill="#000000">/prime</text>
<g id="clust1" class="cluster">
<title>cluster_candidates</title>
<polygon fill="none" stroke="#000000" points="1376,-937 1376,-1318 1807,-1318 1807,-937 1376,-937"/>
<text text-anchor="middle" x="1591.5" y="-1302.8" font-family="Times,serif" font-size="14.00" fill="#000000">/prime/candidates</text>
</g>
<g id="clust2" class="cluster">
<title>cluster_composites</title>
<polygon fill="none" stroke="#000000" points="8,-8 8,-1349 1050,-1349 1050,-8 8,-8"/>
<text text-anchor="middle" x="529" y="-1333.8" font-family="Times,serif" font-size="14.00" fill="#000000">/prime/composites</text>
</g>
<g id="clust3" class="cluster">
<title>cluster_divisors</title>
<polygon fill="none" stroke="#000000" points="16,-680 16,-1318 563,-1318 563,-680 16,-680"/>
<text text-anchor="middle" x="289.5" y="-1302.8" font-family="Times,serif" font-size="14.00" fill="#000000">/prime/composites/divisors</text>
</g>
<g id="clust4" class="cluster">
<title>cluster_generate_composites</title>
<polygon fill="none" stroke="#000000" points="571,-152 571,-880 1042,-880 1042,-152 571,-152"/>
<text text-anchor="middle" x="806.5" y="-864.8" font-family="Times,serif" font-size="14.00" fill="#000000">/prime/composites/generate_composites</text>
</g>
<g id="clust5" class="cluster">
<title>cluster_composite_sequence</title>
<polygon fill="none" stroke="#000000" points="579,-160 579,-623 1034,-623 1034,-160 579,-160"/>
<text text-anchor="middle" x="806.5" y="-607.8" font-family="Times,serif" font-size="14.00" fill="#000000">/prime/composites/generate_composites/composite&#45;sequence</text>
</g>
<!-- r13 -->
<g id="node1" class="node">
<title>r13</title>
<g id="a_node1"><a xlink:href="file:///home/travis/build/andrewdavidmackenzie/flow/flowr/src/lib/flowruntime/args/get.html" xlink:title="args (#13)">
<ellipse fill="#ff7f50" stroke="#000000" cx="1118" cy="-1196" rx="60.3893" ry="18"/>
<text text-anchor="middle" x="1118" y="-1192.3" font-family="Times,serif" font-size="14.00" fill="#000000">args (#13)</text>
</a>
</g>
</g>
<!-- r11 -->
<g id="node2" class="node">
<title>r11</title>
<g id="a_node2"><a xlink:href="file:///home/travis/build/andrewdavidmackenzie/flow/flowstdlib/control/compare_switch/compare_switch.html" xlink:title="compare (#11)">
<ellipse fill="#ff7f50" stroke="#000000" cx="1465" cy="-1123" rx="80.6858" ry="18"/>
<text text-anchor="middle" x="1465" y="-1119.3" font-family="Times,serif" font-size="14.00" fill="#000000">compare (#11)</text>
</a>
</g>
</g>
<!-- r13&#45;&gt;r11 -->
<g id="edge1" class="edge">
<title>r13:e&#45;&gt;r11:n</title>
<path fill="none" stroke="#000000" d="M1179,-1196C1208.4527,-1196 1421.2102,-1177.2454 1459.2023,-1149.4773"/>
<polygon fill="#000000" stroke="#000000" points="1462.2438,-1151.2301 1465,-1141 1456.4659,-1147.2785 1462.2438,-1151.2301"/>
<text text-anchor="middle" x="1452.5" y="-1144.8" font-family="Times,serif" font-size="14.00" fill="#000000">left</text>
<text text-anchor="middle" x="1203" y="-1199.8" font-family="Times,serif" font-size="14.00" fill="#000000">/json/1</text>
</g>
<!-- r14 -->
<g id="node3" class="node">
<title>r14</title>
<g id="a_node3"><a xlink:href="file:///home/travis/build/andrewdavidmackenzie/flow/flowstdlib/data/accumulate/accumulate.html" xlink:title="all&#45;numbers (#14)">
<ellipse fill="#ff7f50" stroke="#000000" cx="1479" cy="-963" rx="94.7833" ry="18"/>
<text text-anchor="middle" x="1479" y="-959.3" font-family="Times,serif" font-size="14.00" fill="#000000">all&#45;numbers (#14)</text>
</a>
</g>
</g>
<!-- r13&#45;&gt;r14 -->
<g id="edge2" class="edge">
<title>r13:e&#45;&gt;r14:nw</title>
<path fill="none" stroke="#000000" d="M1179,-1196C1252.0527,-1196 1120.9812,-1087.9099 1168,-1032 1187.6902,-1008.5864 1402.0179,-1004.8406 1452.264,-985.8732"/>
<polygon fill="#000000" stroke="#000000" points="1453.972,-988.9283 1461,-981 1450.5618,-982.8151 1453.972,-988.9283"/>
<text text-anchor="middle" x="1421" y="-984.8" font-family="Times,serif" font-size="14.00" fill="#000000">chunk_size</text>
<text text-anchor="middle" x="1203" y="-1184.8" font-family="Times,serif" font-size="14.00" fill="#000000">/json/1</text>
</g>
<!-- r0 -->
<g id="node4" class="node">
<title>r0</title>
<g id="a_node4"><a xlink:href="file:///home/travis/build/andrewdavidmackenzie/flow/flowstdlib/math/sqrt/sqrt.html" xlink:title="sqrt (#0)">
<ellipse fill="#ff7f50" stroke="#000000" cx="686" cy="-1123" rx="53.0913" ry="18"/>
<text text-anchor="middle" x="686" y="-1119.3" font-family="Times,serif" font-size="14.00" fill="#000000">sqrt (#0)</text>
</a>
</g>
</g>
<!-- r13&#45;&gt;r0 -->
<g id="edge3" class="edge">
<title>r13:e&#45;&gt;r0:n</title>
<path fill="none" stroke="#000000" d="M1179,-1196C1187,-1196 1184.4877,-1183.8211 1179,-1178 1155.7131,-1153.2983 907.8397,-1162.7073 874,-1160 835.9037,-1156.9521 711.4183,-1178.4974 689.3573,-1150.7342"/>
<polygon fill="#000000" stroke="#000000" points="692.5693,-1149.3123 686,-1141 685.9519,-1151.5947 692.5693,-1149.3123"/>
<text text-anchor="middle" x="1155" y="-1199.8" font-family="Times,serif" font-size="14.00" fill="#000000">/json/1</text>
</g>
<!-- r7 -->
<g id="node5" class="node">
<title>r7</title>
<g id="a_node5"><a xlink:href="file:///home/travis/build/andrewdavidmackenzie/flow/flowstdlib/data/buffer/buffer.html" xlink:title="limit&#45;buffer (#7)">
<ellipse fill="#ff7f50" stroke="#000000" cx="909" cy="-831" rx="87.1846" ry="18"/>
<text text-anchor="middle" x="909" y="-827.3" font-family="Times,serif" font-size="14.00" fill="#000000">limit&#45;buffer (#7)</text>
</a>
</g>
</g>
<!-- r13&#45;&gt;r7 -->
<g id="edge4" class="edge">
<title>r13:e&#45;&gt;r7:n</title>
<path fill="none" stroke="#000000" d="M1179,-1196C1187,-1196 1184.0124,-1184.235 1179,-1178 1107.7181,-1089.3315 929,-1236.7682 929,-1123 929,-1123 929,-1123 929,-907.5 929,-883.7792 914.0949,-877.8942 910.0193,-859.0503"/>
<polygon fill="#000000" stroke="#000000" points="913.4912,-858.5958 909,-849 906.527,-859.3022 913.4912,-858.5958"/>
<text text-anchor="middle" x="1155" y="-1184.8" font-family="Times,serif" font-size="14.00" fill="#000000">/json/1</text>
</g>
<!-- r11&#45;&gt;r11 -->
<g id="edge7" class="edge">
<title>r11:s&#45;&gt;r11:n</title>
<path fill="none" stroke="#000000" d="M1465,-1105C1515.8643,-1096 1617.5928,-1096 1617.5928,-1123 1617.5928,-1148.3125 1528.183,-1149.8945 1475.0959,-1142.5776"/>
<polygon fill="#000000" stroke="#000000" points="1475.4205,-1139.086 1465,-1141 1474.3397,-1146.002 1475.4205,-1139.086"/>
<text text-anchor="middle" x="1477.5" y="-1144.8" font-family="Times,serif" font-size="14.00" fill="#000000">left</text>
<text text-anchor="middle" x="1440.5" y="-1093.8" font-family="Times,serif" font-size="14.00" fill="#000000">/left&#45;gt</text>
</g>
<!-- r11&#45;&gt;r14 -->
<g id="edge6" class="edge">
<title>r11:e&#45;&gt;r14:n</title>
<path fill="none" stroke="#000000" d="M1546,-1123C1554,-1123 1547.9613,-1112.7558 1546,-1105 1531.5123,-1047.7101 1484.7337,-1043.9055 1479.4811,-991.0695"/>
<polygon fill="#000000" stroke="#000000" points="1482.9733,-990.8216 1479,-981 1475.9813,-991.1557 1482.9733,-990.8216"/>
<text text-anchor="middle" x="1502" y="-984.8" font-family="Times,serif" font-size="14.00" fill="#000000">values</text>
<text text-anchor="middle" x="1578" y="-1126.8" font-family="Times,serif" font-size="14.00" fill="#000000">/right&#45;lte</text>
</g>
<!-- r12 -->
<g id="node7" class="node">
<title>r12</title>
<g id="a_node7"><a xlink:href="file:///home/travis/build/andrewdavidmackenzie/flow/flowstdlib/math/add/add.html" xlink:title="add (#12)">
<ellipse fill="#ff7f50" stroke="#000000" cx="1724" cy="-963" rx="57.3905" ry="18"/>
<text text-anchor="middle" x="1724" y="-959.3" font-family="Times,serif" font-size="14.00" fill="#000000">add (#12)</text>
</a>
</g>
</g>
<!-- r11&#45;&gt;r12 -->
<g id="edge8" class="edge">
<title>r11:e&#45;&gt;r12:n</title>
<path fill="none" stroke="#000000" d="M1546,-1123C1547.1684,-1123 1704.224,-1068.8734 1705,-1068 1728.9251,-1041.0707 1725.0383,-1023.8775 1724.1468,-991.1653"/>
<polygon fill="#000000" stroke="#000000" points="1727.6442,-990.9484 1724,-981 1720.6449,-991.0495 1727.6442,-990.9484"/>
<text text-anchor="middle" x="1717" y="-984.8" font-family="Times,serif" font-size="14.00" fill="#000000">i1</text>
<text text-anchor="middle" x="1573.5" y="-1111.8" font-family="Times,serif" font-size="14.00" fill="#000000">/right&#45;lt</text>
</g>
<!-- r14&#45;&gt;r14 -->
<g id="edge13" class="edge">
<title>r14:s&#45;&gt;r14:nw</title>
<path fill="none" stroke="#000000" d="M1479,-945C1423.3695,-936 1312.1084,-936 1312.1084,-963 1312.1084,-988.418 1394.7606,-989.9073 1450.8599,-982.4857"/>
<polygon fill="#000000" stroke="#000000" points="1451.6131,-985.9128 1461,-981 1450.5982,-978.9868 1451.6131,-985.9128"/>
<text text-anchor="middle" x="1501" y="-984.8" font-family="Times,serif" font-size="14.00" fill="#000000">chunk_size</text>
<text text-anchor="middle" x="1436.5" y="-933.8" font-family="Times,serif" font-size="14.00" fill="#000000">/chunk_size</text>
</g>
<!-- r14&#45;&gt;r14 -->
<g id="edge14" class="edge">
<title>r14:e&#45;&gt;r14:ne</title>
<path fill="none" stroke="#000000" d="M1574,-963C1597.8916,-954 1645.8916,-954 1645.8916,-972 1645.8916,-988.9453 1563.2394,-989.9382 1507.1401,-982.4875"/>
<polygon fill="#000000" stroke="#000000" points="1507.4021,-978.9886 1497,-981 1506.3861,-985.9145 1507.4021,-978.9886"/>
<text text-anchor="middle" x="1473" y="-969.8" font-family="Times,serif" font-size="14.00" fill="#000000">partial</text>
<text text-anchor="middle" x="1600" y="-966.8" font-family="Times,serif" font-size="14.00" fill="#000000">/partial</text>
</g>
<!-- r9 -->
<g id="node10" class="node">
<title>r9</title>
<g id="a_node10"><a xlink:href="file:///home/travis/build/andrewdavidmackenzie/flow/flowstdlib/data/remove/remove.html" xlink:title="remove (#9)">
<ellipse fill="#ff7f50" stroke="#000000" cx="939" cy="-186" rx="68.7879" ry="18"/>
<text text-anchor="middle" x="939" y="-182.3" font-family="Times,serif" font-size="14.00" fill="#000000">remove (#9)</text>
</a>
</g>
</g>
<!-- r14&#45;&gt;r9 -->
<g id="edge15" class="edge">
<title>r14:s&#45;&gt;r9:ne</title>
<path fill="none" stroke="#000000" d="M1479,-945C1479,-864.1523 1301,-988.3477 1301,-907.5 1301,-907.5 1301,-907.5 1301,-248.5 1301,-97.7998 1076.4472,-303.3745 964.532,-210.8574"/>
<polygon fill="#000000" stroke="#000000" points="966.7507,-208.1441 957,-204 962.0382,-213.3203 966.7507,-208.1441"/>
<text text-anchor="middle" x="937.5" y="-207.8" font-family="Times,serif" font-size="14.00" fill="#000000">array</text>
<text text-anchor="middle" x="1503.5" y="-933.8" font-family="Times,serif" font-size="14.00" fill="#000000">/chunk</text>
</g>
<!-- r4 -->
<g id="node11" class="node">
<title>r4</title>
<g id="a_node11"><a xlink:href="file:///home/travis/build/andrewdavidmackenzie/flow/flowstdlib/control/compare_switch/compare_switch.html" xlink:title="compare (#4)">
<ellipse fill="#ff7f50" stroke="#000000" cx="323" cy="-963" rx="74.9875" ry="18"/>
<text text-anchor="middle" x="323" y="-959.3" font-family="Times,serif" font-size="14.00" fill="#000000">compare (#4)</text>
</a>
</g>
</g>
<!-- r0&#45;&gt;r4 -->
<g id="edge16" class="edge">
<title>r0:e&#45;&gt;r4:n</title>
<path fill="none" stroke="#000000" d="M740,-1123C748,-1123 744.7832,-1111.4126 740,-1105 733.4096,-1096.1647 391.9211,-1010.3396 331.9447,-986.1514"/>
<polygon fill="#000000" stroke="#000000" points="333.4124,-982.9577 323,-981 329.9189,-989.0237 333.4124,-982.9577"/>
<text text-anchor="middle" x="310.5" y="-984.8" font-family="Times,serif" font-size="14.00" fill="#000000">left</text>
</g>
<!-- r7&#45;&gt;r7 -->
<g id="edge33" class="edge">
<title>r7:e&#45;&gt;r7:n</title>
<path fill="none" stroke="#000000" d="M996,-831C1020.0923,-822 1068.0923,-822 1068.0923,-840 1068.0923,-856.9102 974.4853,-857.934 919.1804,-850.5338"/>
<polygon fill="#000000" stroke="#000000" points="919.4099,-847.0289 909,-849 918.3669,-853.9508 919.4099,-847.0289"/>
</g>
<!-- r6 -->
<g id="node18" class="node">
<title>r6</title>
<g id="a_node18"><a xlink:href="file:///home/travis/build/andrewdavidmackenzie/flow/flowstdlib/control/compare_switch/compare_switch.html" xlink:title="compare (#6)">
<ellipse fill="#ff7f50" stroke="#000000" cx="667" cy="-574" rx="74.9875" ry="18"/>
<text text-anchor="middle" x="667" y="-570.3" font-family="Times,serif" font-size="14.00" fill="#000000">compare (#6)</text>
</a>
</g>
</g>
<!-- r7&#45;&gt;r6 -->
<g id="edge34" class="edge">
<title>r7:e&#45;&gt;r6:n</title>
<path fill="none" stroke="#000000" d="M996,-831C1004,-831 1001.199,-819.0804 996,-813 954.6282,-764.6143 713,-832.1616 713,-768.5 713,-768.5 713,-768.5 713,-650.5 713,-621.3007 677.1495,-623.8415 668.7471,-602.0813"/>
<polygon fill="#000000" stroke="#000000" points="672.1562,-601.2555 667,-592 665.259,-602.4508 672.1562,-601.2555"/>
<text text-anchor="middle" x="654.5" y="-595.8" font-family="Times,serif" font-size="14.00" fill="#000000">left</text>
</g>
<!-- initializerr11_1 -->
<!-- initializerr11_1&#45;&gt;r11 -->
<g id="edge5" class="edge">
<title>initializerr11_1&#45;&gt;r11:ne</title>
<path fill="none" stroke="#0000ff" stroke-dasharray="1,5" d="M1490.0147,-1250.726C1498.5932,-1225.2071 1509.6539,-1178.6884 1489.5307,-1148.9205"/>
<polygon fill="#0000ff" stroke="#0000ff" points="1492.0621,-1146.4889 1483,-1141 1486.6613,-1150.9421 1492.0621,-1146.4889"/>
<text text-anchor="middle" x="1505" y="-1192.3" font-family="Times,serif" font-size="14.00" fill="#000000">1</text>
</g>
<!-- r12&#45;&gt;r11 -->
<g id="edge11" class="edge">
<title>r12:se&#45;&gt;r11:ne</title>
<path fill="none" stroke="#000000" d="M1741,-946C1741,-946 1781.1949,-981 1781.1949,-981 1758.2588,-1006.7694 1655.7953,-980.0011 1627,-999 1566.2792,-1039.0632 1608.5377,-1104.5306 1545.5928,-1141 1536.0022,-1146.5567 1508.1952,-1149.5031 1492.3173,-1145.4937"/>
<polygon fill="#000000" stroke="#000000" points="1493.5276,-1142.1917 1483,-1141 1490.4867,-1148.4967 1493.5276,-1142.1917"/>
<text text-anchor="middle" x="1501" y="-1144.8" font-family="Times,serif" font-size="14.00" fill="#000000">right</text>
<text text-anchor="middle" x="1723.5" y="-934.8" font-family="Times,serif" font-size="14.00" fill="#000000">/sum</text>
</g>
<!-- r12&#45;&gt;r12 -->
<g id="edge10" class="edge">
<title>r12:se&#45;&gt;r12:ne</title>
<path fill="none" stroke="#000000" d="M1741,-946C1784.065,-937 1853.1949,-937 1853.1949,-963 1853.1949,-987.0703 1793.9457,-988.8568 1750.9805,-981.8482"/>
<polygon fill="#000000" stroke="#000000" points="1751.4702,-978.3795 1741,-980 1750.1955,-985.2625 1751.4702,-978.3795"/>
<text text-anchor="middle" x="1734" y="-983.8" font-family="Times,serif" font-size="14.00" fill="#000000">i2</text>
<text text-anchor="middle" x="1750.5" y="-934.8" font-family="Times,serif" font-size="14.00" fill="#000000">/i2</text>
</g>
<!-- initializerr12_1 -->
<!-- initializerr12_1&#45;&gt;r12 -->
<g id="edge9" class="edge">
<title>initializerr12_1&#45;&gt;r12:w</title>
<path fill="none" stroke="#0000ff" stroke-dasharray="1,5" d="M1703.64,-1104.957C1675.6446,-1065.8916 1616.621,-976.0393 1656.8599,-964.2781"/>
<polygon fill="#0000ff" stroke="#0000ff" points="1657.5162,-967.7231 1667,-963 1656.6408,-960.7781 1657.5162,-967.7231"/>
<text text-anchor="middle" x="1682" y="-1046.3" font-family="Times,serif" font-size="14.00" fill="#000000">1</text>
</g>
<!-- initializerr14_1 -->
<!-- initializerr14_1&#45;&gt;r14 -->
<g id="edge12" class="edge">
<title>initializerr14_1&#45;&gt;r14:n</title>
<path fill="none" stroke="#0000ff" stroke-dasharray="1,5" d="M1339.249,-1036.3052C1387.0035,-1023.3787 1452.5752,-1003.8294 1472.8056,-989.0585"/>
<polygon fill="#0000ff" stroke="#0000ff" points="1475.6805,-991.0614 1479,-981 1470.1307,-986.7953 1475.6805,-991.0614"/>
<text text-anchor="middle" x="1455.5" y="-1002.8" font-family="Times,serif" font-size="14.00" fill="#000000">[]</text>
</g>
<!-- r9&#45;&gt;r9 -->
<g id="edge39" class="edge">
<title>r9:e&#45;&gt;r9:ne</title>
<path fill="none" stroke="#000000" d="M1008,-186C1031.8939,-177 1079.8939,-177 1079.8939,-195 1079.8939,-211.7695 1013.9908,-212.9159 967.004,-205.7167"/>
<polygon fill="#000000" stroke="#000000" points="967.4479,-202.2418 957,-204 966.264,-209.1409 967.4479,-202.2418"/>
<text text-anchor="middle" x="976.5" y="-207.8" font-family="Times,serif" font-size="14.00" fill="#000000">array</text>
</g>
<!-- r10 -->
<g id="node23" class="node">
<title>r10</title>
<g id="a_node23"><a xlink:href="file:///home/travis/build/andrewdavidmackenzie/flow/flowr/src/lib/flowruntime/stdio/stdout.html" xlink:title="print (#10)">
<ellipse fill="#ff7f50" stroke="#000000" cx="1121" cy="-107" rx="63.0888" ry="18"/>
<text text-anchor="middle" x="1121" y="-103.3" font-family="Times,serif" font-size="14.00" fill="#000000">print (#10)</text>
</a>
</g>
</g>
<!-- r9&#45;&gt;r10 -->
<g id="edge40" class="edge">
<title>r9:e&#45;&gt;r10:n</title>
<path fill="none" stroke="#000000" d="M1008,-186C1061.5056,-186 1114.0046,-182.5482 1120.358,-135.0903"/>
<polygon fill="#000000" stroke="#000000" points="1123.8579,-135.2021 1121,-125 1116.872,-134.7575 1123.8579,-135.2021"/>
</g>
<!-- r4&#45;&gt;r4 -->
<g id="edge20" class="edge">
<title>r4:s&#45;&gt;r4:n</title>
<path fill="none" stroke="#000000" d="M323,-945C371.9145,-936 469.7434,-936 469.7434,-963 469.7434,-988.2598 384.1188,-989.8878 333.0284,-982.6233"/>
<polygon fill="#000000" stroke="#000000" points="333.4308,-979.1429 323,-981 332.3122,-986.053 333.4308,-979.1429"/>
<text text-anchor="middle" x="335.5" y="-984.8" font-family="Times,serif" font-size="14.00" fill="#000000">left</text>
<text text-anchor="middle" x="298.5" y="-933.8" font-family="Times,serif" font-size="14.00" fill="#000000">/left&#45;gt</text>
</g>
<!-- r8 -->
<g id="node13" class="node">
<title>r8</title>
<g id="a_node13"><a xlink:href="file:///home/travis/build/andrewdavidmackenzie/flow/flowstdlib/math/multiply/multiply.html" xlink:title="multiply (#8)">
<ellipse fill="#ff7f50" stroke="#000000" cx="482" cy="-706" rx="72.5877" ry="18"/>
<text text-anchor="middle" x="482" y="-702.3" font-family="Times,serif" font-size="14.00" fill="#000000">multiply (#8)</text>
</a>
</g>
</g>
<!-- r4&#45;&gt;r8 -->
<g id="edge18" class="edge">
<title>r4:e&#45;&gt;r8:n</title>
<path fill="none" stroke="#000000" d="M398,-963C440.9096,-963 477,-950.4096 477,-907.5 477,-907.5 477,-907.5 477,-768.5 477,-752.4849 480.2376,-746.3165 481.5023,-734.1478"/>
<polygon fill="#000000" stroke="#000000" points="485.0058,-734.1595 482,-724 478.0142,-733.8165 485.0058,-734.1595"/>
<text text-anchor="middle" x="475" y="-727.8" font-family="Times,serif" font-size="14.00" fill="#000000">i1</text>
<text text-anchor="middle" x="430" y="-966.8" font-family="Times,serif" font-size="14.00" fill="#000000">/right&#45;lte</text>
</g>
<!-- r5 -->
<g id="node14" class="node">
<title>r5</title>
<g id="a_node14"><a xlink:href="file:///home/travis/build/andrewdavidmackenzie/flow/flowstdlib/math/add/add.html" xlink:title="add (#5)">
<ellipse fill="#ff7f50" stroke="#000000" cx="268" cy="-706" rx="51.1914" ry="18"/>
<text text-anchor="middle" x="268" y="-702.3" font-family="Times,serif" font-size="14.00" fill="#000000">add (#5)</text>
</a>
</g>
</g>
<!-- r4&#45;&gt;r5 -->
<g id="edge19" class="edge">
<title>r4:e&#45;&gt;r5:ne</title>
<path fill="none" stroke="#000000" d="M398,-963C406,-963 398.1066,-952.9993 398,-945 397.7778,-928.3289 397,-924.1726 397,-907.5 397,-907.5 397,-907.5 397,-768.5 397,-718.3393 332.4947,-755.294 293.0129,-729.5085"/>
<polygon fill="#000000" stroke="#000000" points="294.9688,-726.5881 285,-723 290.5554,-732.0215 294.9688,-726.5881"/>
<text text-anchor="middle" x="278" y="-726.8" font-family="Times,serif" font-size="14.00" fill="#000000">i2</text>
<text text-anchor="middle" x="430" y="-951.8" font-family="Times,serif" font-size="14.00" fill="#000000">/right&#45;lte</text>
</g>
<!-- r3 -->
<g id="node15" class="node">
<title>r3</title>
<g id="a_node15"><a xlink:href="file:///home/travis/build/andrewdavidmackenzie/flow/flowstdlib/math/add/add.html" xlink:title="add (#3)">
<ellipse fill="#ff7f50" stroke="#000000" cx="75" cy="-706" rx="51.1914" ry="18"/>
<text text-anchor="middle" x="75" y="-702.3" font-family="Times,serif" font-size="14.00" fill="#000000">add (#3)</text>
</a>
</g>
</g>
<!-- r4&#45;&gt;r3 -->
<g id="edge21" class="edge">
<title>r4:e&#45;&gt;r3:n</title>
<path fill="none" stroke="#000000" d="M398,-963C406,-963 401.7323,-952.076 398,-945 388.6883,-927.3461 124.291,-774.1962 80.976,-732.3699"/>
<polygon fill="#000000" stroke="#000000" points="83.6593,-730.1048 75,-724 77.9623,-734.1723 83.6593,-730.1048"/>
<text text-anchor="middle" x="68" y="-727.8" font-family="Times,serif" font-size="14.00" fill="#000000">i1</text>
<text text-anchor="middle" x="370.5" y="-966.8" font-family="Times,serif" font-size="14.00" fill="#000000">/right&#45;lt</text>
</g>
<!-- initializerr4_1 -->
<!-- initializerr4_1&#45;&gt;r4 -->
<g id="edge17" class="edge">
<title>initializerr4_1&#45;&gt;r4:ne</title>
<path fill="none" stroke="#0000ff" stroke-dasharray="1,5" d="M341,-1250.6997C341,-1235.9349 341,-1214.6302 341,-1196 341,-1196 341,-1196 341,-1050 341,-1037.6615 348.0206,-1007.5219 345.1137,-990.5699"/>
<polygon fill="#0000ff" stroke="#0000ff" points="348.1647,-988.805 341,-981 341.7337,-991.5694 348.1647,-988.805"/>
<text text-anchor="middle" x="346" y="-1119.3" font-family="Times,serif" font-size="14.00" fill="#000000">2</text>
</g>
<!-- r8&#45;&gt;r6 -->
<g id="edge26" class="edge">
<title>r8:e&#45;&gt;r6:ne</title>
<path fill="none" stroke="#000000" d="M555,-706C560.8458,-706 557.9821,-685.7564 559,-680 561.3677,-666.6103 556.6741,-660.7503 565,-650 598.7208,-606.4598 709.6634,-629.9499 691.4404,-599.8107"/>
<polygon fill="#000000" stroke="#000000" points="694.0622,-597.4888 685,-592 688.6614,-601.9421 694.0622,-597.4888"/>
<text text-anchor="middle" x="703" y="-595.8" font-family="Times,serif" font-size="14.00" fill="#000000">right</text>
</g>
<!-- r5&#45;&gt;r5 -->
<g id="edge31" class="edge">
<title>r5:se&#45;&gt;r5:ne</title>
<path fill="none" stroke="#000000" d="M285,-689C326.1151,-680 391.3454,-680 391.3454,-706 391.3454,-729.9688 335.9092,-731.8413 295.0353,-724.9365"/>
<polygon fill="#000000" stroke="#000000" points="295.482,-721.4582 285,-723 294.1557,-728.3314 295.482,-721.4582"/>
<text text-anchor="middle" x="292" y="-726.8" font-family="Times,serif" font-size="14.00" fill="#000000">i2</text>
<text text-anchor="middle" x="275.5" y="-677.8" font-family="Times,serif" font-size="14.00" fill="#000000">/i2</text>
</g>
<!-- r5&#45;&gt;r6 -->
<g id="edge32" class="edge">
<title>r5:se&#45;&gt;r6:ne</title>
<path fill="none" stroke="#000000" d="M285,-689C314.0535,-659.9465 639.8802,-630.9038 682.3124,-601.8525"/>
<polygon fill="#000000" stroke="#000000" points="685.7449,-602.5686 685,-592 678.9916,-600.7264 685.7449,-602.5686"/>
<text text-anchor="middle" x="667" y="-595.8" font-family="Times,serif" font-size="14.00" fill="#000000">right</text>
<text text-anchor="middle" x="302.5" y="-677.8" font-family="Times,serif" font-size="14.00" fill="#000000">/sum</text>
</g>
<!-- r3&#45;&gt;r4 -->
<g id="edge24" class="edge">
<title>r3:se&#45;&gt;r4:ne</title>
<path fill="none" stroke="#000000" d="M92,-689C102.7937,-678.2063 111.7156,-684.6436 126.3454,-689 128.2799,-689.576 248,-766.4816 248,-768.5 248,-907.5 248,-907.5 248,-907.5 248,-941.8039 376.6378,-917.9572 397.7434,-945 397.7434,-945 365.8252,-965.25 349.8662,-975.375"/>
<polygon fill="#000000" stroke="#000000" points="347.569,-972.6874 341,-981 351.319,-978.5982 347.569,-972.6874"/>
<text text-anchor="middle" x="359" y="-984.8" font-family="Times,serif" font-size="14.00" fill="#000000">right</text>
<text text-anchor="middle" x="74.5" y="-677.8" font-family="Times,serif" font-size="14.00" fill="#000000">/sum</text>
</g>
<!-- r3&#45;&gt;r3 -->
<g id="edge23" class="edge">
<title>r3:se&#45;&gt;r3:ne</title>
<path fill="none" stroke="#000000" d="M92,-689C133.1151,-680 198.3454,-680 198.3454,-706 198.3454,-729.9688 142.9092,-731.8413 102.0353,-724.9365"/>
<polygon fill="#000000" stroke="#000000" points="102.482,-721.4582 92,-723 101.1557,-728.3314 102.482,-721.4582"/>
<text text-anchor="middle" x="85" y="-726.8" font-family="Times,serif" font-size="14.00" fill="#000000">i2</text>
<text text-anchor="middle" x="101.5" y="-677.8" font-family="Times,serif" font-size="14.00" fill="#000000">/i2</text>
</g>
<!-- initializerr3_1 -->
<!-- initializerr3_1&#45;&gt;r3 -->
<g id="edge22" class="edge">
<title>initializerr3_1&#45;&gt;r3:w</title>
<path fill="none" stroke="#0000ff" stroke-dasharray="1,5" d="M99,-944.506C98.5,-933.7163 98,-919.8413 98,-907.5 98,-907.5 98,-907.5 98,-768.5 98,-729.7409 42.1794,-757.6812 23,-724 21.5155,-721.393 20.0194,-718.2101 19.151,-715.2497"/>
<polygon fill="#0000ff" stroke="#0000ff" points="22.3894,-716.5772 23,-706 15.9266,-713.8879 22.3894,-716.5772"/>
<text text-anchor="middle" x="103" y="-827.3" font-family="Times,serif" font-size="14.00" fill="#000000">1</text>
</g>
<!-- initializerr8_1 -->
<!-- initializerr8_1&#45;&gt;r8 -->
<g id="edge25" class="edge">
<title>initializerr8_1&#45;&gt;r8:w</title>
<path fill="none" stroke="#0000ff" d="M630.0149,-813.8041C599.6528,-793.685 546.2366,-760.7463 496,-742 459.0062,-728.1954 433.9322,-754.6186 409,-724 407.0268,-721.5768 405.3745,-718.3001 404.5702,-715.2065"/>
<polygon fill="#0000ff" stroke="#0000ff" points="407.8181,-716.5287 409,-706 401.5103,-713.4936 407.8181,-716.5287"/>
<text text-anchor="middle" x="572" y="-764.8" font-family="Times,serif" font-size="14.00" fill="#000000">2</text>
</g>
<!-- r6&#45;&gt;r9 -->
<g id="edge27" class="edge">
<title>r6:e&#45;&gt;r9:n</title>
<path fill="none" stroke="#000000" d="M742,-574C792.0553,-574 840,-568.5553 840,-518.5 840,-518.5 840,-518.5 840,-248.5 840,-204.2166 923.424,-244.3869 937.1107,-213.9591"/>
<polygon fill="#000000" stroke="#000000" points="940.5748,-214.4771 939,-204 933.6975,-213.1724 940.5748,-214.4771"/>
<text text-anchor="middle" x="919.5" y="-207.8" font-family="Times,serif" font-size="14.00" fill="#000000">value</text>
<text text-anchor="middle" x="774" y="-577.8" font-family="Times,serif" font-size="14.00" fill="#000000">/right&#45;lte</text>
</g>
<!-- r6&#45;&gt;r5 -->
<g id="edge29" class="edge">
<title>r6:e&#45;&gt;r5:n</title>
<path fill="none" stroke="#000000" d="M742,-574C750,-574 746.7597,-585.57 742,-592 705.781,-640.9291 670.0182,-617.0759 611,-632 584.8463,-638.6136 397.3736,-668.4379 373,-680 345.1366,-693.2175 348.3841,-713.6159 319.3454,-724 311.7073,-726.7314 288.978,-731.3461 276.4758,-729.6858"/>
<polygon fill="#000000" stroke="#000000" points="278.2544,-726.6643 268,-724 274.3547,-732.4775 278.2544,-726.6643"/>
<text text-anchor="middle" x="261" y="-727.8" font-family="Times,serif" font-size="14.00" fill="#000000">i1</text>
<text text-anchor="middle" x="769.5" y="-562.8" font-family="Times,serif" font-size="14.00" fill="#000000">/right&#45;lt</text>
</g>
<!-- r6&#45;&gt;r6 -->
<g id="edge28" class="edge">
<title>r6:s&#45;&gt;r6:n</title>
<path fill="none" stroke="#000000" d="M667,-556C715.9145,-547 813.7434,-547 813.7434,-574 813.7434,-599.2598 728.1188,-600.8878 677.0284,-593.6233"/>
<polygon fill="#000000" stroke="#000000" points="677.4308,-590.1429 667,-592 676.3122,-597.053 677.4308,-590.1429"/>
<text text-anchor="middle" x="654.5" y="-580.8" font-family="Times,serif" font-size="14.00" fill="#000000">left</text>
<text text-anchor="middle" x="642.5" y="-544.8" font-family="Times,serif" font-size="14.00" fill="#000000">/left&#45;gt</text>
</g>
<!-- r1 -->
<g id="node19" class="node">
<title>r1</title>
<g id="a_node19"><a xlink:href="file:///home/travis/build/andrewdavidmackenzie/flow/flowstdlib/control/join/join.html" xlink:title="join (#1)">
<ellipse fill="#ff7f50" stroke="#000000" cx="638" cy="-186" rx="51.1914" ry="18"/>
<text text-anchor="middle" x="638" y="-182.3" font-family="Times,serif" font-size="14.00" fill="#000000">join (#1)</text>
</a>
</g>
</g>
<!-- r6&#45;&gt;r1 -->
<g id="edge30" class="edge">
<title>r6:sw&#45;&gt;r1:ne</title>
<path fill="none" stroke="#000000" d="M649,-556C637.1772,-544.1772 652,-535.2199 652,-518.5 652,-518.5 652,-518.5 652,-248.5 652,-232.5088 662.7902,-222.3468 660.302,-211.731"/>
<polygon fill="#000000" stroke="#000000" points="663.1822,-209.7307 655,-203 657.199,-213.3641 663.1822,-209.7307"/>
<text text-anchor="middle" x="681" y="-206.8" font-family="Times,serif" font-size="14.00" fill="#000000">control</text>
<text text-anchor="middle" x="683" y="-544.8" font-family="Times,serif" font-size="14.00" fill="#000000">/right&#45;gte</text>
</g>
<!-- r2 -->
<g id="node21" class="node">
<title>r2</title>
<g id="a_node21"><a xlink:href="file:///home/travis/build/andrewdavidmackenzie/flow/flowstdlib/math/add/add.html" xlink:title="subsequence&#45;count (#2)">
<ellipse fill="#ff7f50" stroke="#000000" cx="546" cy="-34" rx="124.2781" ry="18"/>
<text text-anchor="middle" x="546" y="-30.3" font-family="Times,serif" font-size="14.00" fill="#000000">subsequence&#45;count (#2)</text>
</a>
</g>
</g>
<!-- r1&#45;&gt;r2 -->
<g id="edge36" class="edge">
<title>r1:e&#45;&gt;r2:ne</title>
<path fill="none" stroke="#000000" d="M690,-186C698,-186 693.2134,-175.3262 690,-168 660.8582,-101.56 621.6996,-105.2873 571.4885,-59.1788"/>
<polygon fill="#000000" stroke="#000000" points="573.6409,-56.3937 564,-52 568.7967,-61.4468 573.6409,-56.3937"/>
<text text-anchor="middle" x="557" y="-55.8" font-family="Times,serif" font-size="14.00" fill="#000000">i2</text>
</g>
<!-- initializerr1_0 -->
<!-- initializerr1_0&#45;&gt;r1 -->
<g id="edge35" class="edge">
<title>initializerr1_0&#45;&gt;r1:nw</title>
<path fill="none" stroke="#0000ff" d="M511.2827,-293.8908C537.3141,-275.0441 579.5242,-243.0126 613.8122,-210.0448"/>
<polygon fill="#0000ff" stroke="#0000ff" points="616.3081,-212.4993 621,-203 611.4083,-207.5001 616.3081,-212.4993"/>
<text text-anchor="middle" x="584" y="-244.8" font-family="Times,serif" font-size="14.00" fill="#000000">1</text>
</g>
<!-- r2&#45;&gt;r2 -->
<g id="edge38" class="edge">
<title>r2:se&#45;&gt;r2:n</title>
<path fill="none" stroke="#000000" d="M564,-16C629.3797,-7 742.139,-7 742.139,-34 742.139,-59.6816 623.8374,-60.9356 556.0219,-53.2519"/>
<polygon fill="#000000" stroke="#000000" points="556.3567,-49.7666 546,-52 555.489,-56.7126 556.3567,-49.7666"/>
<text text-anchor="middle" x="539" y="-55.8" font-family="Times,serif" font-size="14.00" fill="#000000">i1</text>
<text text-anchor="middle" x="546.5" y="-4.8" font-family="Times,serif" font-size="14.00" fill="#000000">/sum</text>
</g>
<!-- initializerr2_0 -->
<!-- initializerr2_0&#45;&gt;r2 -->
<g id="edge37" class="edge">
<title>initializerr2_0&#45;&gt;r2:ne</title>
<path fill="none" stroke="#0000ff" stroke-dasharray="1,5" d="M462.9087,-168.8694C499.8217,-141.595 566.5784,-88.6243 567.5805,-61.5711"/>
<polygon fill="#0000ff" stroke="#0000ff" points="570.782,-60.1397 564,-52 564.2257,-62.5924 570.782,-60.1397"/>
<text text-anchor="middle" x="558" y="-103.3" font-family="Times,serif" font-size="14.00" fill="#000000">1</text>
</g>
</g>
</svg>
