<?xml version="1.0" encoding="UTF-8" standalone="no"?>
<!DOCTYPE svg PUBLIC "-//W3C//DTD SVG 1.1//EN"
 "http://www.w3.org/Graphics/SVG/1.1/DTD/svg11.dtd">
<!-- Generated by graphviz version 2.40.1 (20161225.0304)
 -->
<!-- Title: prime Pages: 1 -->
<svg width="1870pt" height="1388pt"
 viewBox="0.00 0.00 1870.35 1388.00" xmlns="http://www.w3.org/2000/svg" xmlns:xlink="http://www.w3.org/1999/xlink">
<g id="graph0" class="graph" transform="scale(1 1) rotate(0) translate(4 1384)">
<title>prime</title>
<polygon fill="#ffffff" stroke="transparent" points="-4,4 -4,-1384 1866.3454,-1384 1866.3454,4 -4,4"/>
<text text-anchor="middle" x="931.1727" y="-1364.8" font-family="Times,serif" font-size="14.00" fill="#000000">/prime</text>
<g id="clust1" class="cluster">
<title>cluster_candidates</title>
<polygon fill="none" stroke="#000000" points="1400,-937 1400,-1318 1816,-1318 1816,-937 1400,-937"/>
<text text-anchor="middle" x="1608" y="-1302.8" font-family="Times,serif" font-size="14.00" fill="#000000">/prime/candidates</text>
</g>
<g id="clust2" class="cluster">
<title>cluster_composites</title>
<polygon fill="none" stroke="#000000" points="8,-8 8,-1349 1074,-1349 1074,-8 8,-8"/>
<text text-anchor="middle" x="541" y="-1333.8" font-family="Times,serif" font-size="14.00" fill="#000000">/prime/composites</text>
</g>
<g id="clust3" class="cluster">
<title>cluster_divisors</title>
<polygon fill="none" stroke="#000000" points="16,-680 16,-1318 587,-1318 587,-680 16,-680"/>
<text text-anchor="middle" x="301.5" y="-1302.8" font-family="Times,serif" font-size="14.00" fill="#000000">/prime/composites/divisors</text>
</g>
<g id="clust4" class="cluster">
<title>cluster_generate_composites</title>
<polygon fill="none" stroke="#000000" points="595,-152 595,-880 1066,-880 1066,-152 595,-152"/>
<text text-anchor="middle" x="830.5" y="-864.8" font-family="Times,serif" font-size="14.00" fill="#000000">/prime/composites/generate_composites</text>
</g>
<g id="clust5" class="cluster">
<title>cluster_composite_sequence</title>
<polygon fill="none" stroke="#000000" points="603,-160 603,-623 1058,-623 1058,-160 603,-160"/>
<text text-anchor="middle" x="830.5" y="-607.8" font-family="Times,serif" font-size="14.00" fill="#000000">/prime/composites/generate_composites/composite&#45;sequence</text>
</g>
<!-- r1 -->
<g id="node1" class="node">
<title>r1</title>
<g id="a_node1"><a xlink:href="file:///home/travis/build/andrewdavidmackenzie/flow/flowr/src/lib/flowruntime/args/get.html" xlink:title="args (#1)">
<ellipse fill="#ff7f50" stroke="#000000" cx="1137" cy="-1196" rx="54.6905" ry="18"/>
<text text-anchor="middle" x="1137" y="-1192.3" font-family="Times,serif" font-size="14.00" fill="#000000">args (#1)</text>
</a>
</g>
</g>
<!-- r4 -->
<g id="node2" class="node">
<title>r4</title>
<g id="a_node2"><a xlink:href="file:///home/travis/build/andrewdavidmackenzie/flow/flowstdlib/control/compare_switch/compare_switch.html" xlink:title="compare (#4)">
<ellipse fill="#ff7f50" stroke="#000000" cx="1483" cy="-1123" rx="74.9875" ry="18"/>
<text text-anchor="middle" x="1483" y="-1119.3" font-family="Times,serif" font-size="14.00" fill="#000000">compare (#4)</text>
</a>
</g>
</g>
<!-- r1&#45;&gt;r4 -->
<g id="edge1" class="edge">
<title>r1:e&#45;&gt;r4:n</title>
<path fill="none" stroke="#000000" d="M1192,-1196C1221.9494,-1196 1438.4414,-1177.6975 1477.1005,-1149.5991"/>
<polygon fill="#000000" stroke="#000000" points="1480.2289,-1151.226 1483,-1141 1474.4567,-1147.266 1480.2289,-1151.226"/>
<text text-anchor="middle" x="1470.5" y="-1144.8" font-family="Times,serif" font-size="14.00" fill="#000000">left</text>
<text text-anchor="middle" x="1216" y="-1199.8" font-family="Times,serif" font-size="14.00" fill="#000000">/json/1</text>
</g>
<!-- r14 -->
<g id="node3" class="node">
<title>r14</title>
<g id="a_node3"><a xlink:href="file:///home/travis/build/andrewdavidmackenzie/flow/flowstdlib/data/accumulate/accumulate.html" xlink:title="all&#45;numbers (#14)">
<ellipse fill="#ff7f50" stroke="#000000" cx="1503" cy="-963" rx="94.7833" ry="18"/>
<text text-anchor="middle" x="1503" y="-959.3" font-family="Times,serif" font-size="14.00" fill="#000000">all&#45;numbers (#14)</text>
</a>
</g>
</g>
<!-- r1&#45;&gt;r14 -->
<g id="edge2" class="edge">
<title>r1:e&#45;&gt;r14:nw</title>
<path fill="none" stroke="#000000" d="M1192,-1196C1264.8889,-1196 1145.0866,-1087.7846 1192,-1032 1211.6902,-1008.5864 1426.0179,-1004.8406 1476.264,-985.8732"/>
<polygon fill="#000000" stroke="#000000" points="1477.972,-988.9283 1485,-981 1474.5618,-982.8151 1477.972,-988.9283"/>
<text text-anchor="middle" x="1445" y="-984.8" font-family="Times,serif" font-size="14.00" fill="#000000">chunk_size</text>
<text text-anchor="middle" x="1216" y="-1184.8" font-family="Times,serif" font-size="14.00" fill="#000000">/json/1</text>
</g>
<!-- r7 -->
<g id="node4" class="node">
<title>r7</title>
<g id="a_node4"><a xlink:href="file:///home/travis/build/andrewdavidmackenzie/flow/flowstdlib/math/sqrt/sqrt.html" xlink:title="sqrt (#7)">
<ellipse fill="#ff7f50" stroke="#000000" cx="713" cy="-1123" rx="53.0913" ry="18"/>
<text text-anchor="middle" x="713" y="-1119.3" font-family="Times,serif" font-size="14.00" fill="#000000">sqrt (#7)</text>
</a>
</g>
</g>
<!-- r1&#45;&gt;r7 -->
<g id="edge3" class="edge">
<title>r1:e&#45;&gt;r7:n</title>
<path fill="none" stroke="#000000" d="M1192,-1196C1200,-1196 1197.4795,-1183.8289 1192,-1178 1169.8116,-1154.3967 933.2883,-1162.6292 901,-1160 862.9081,-1156.8982 738.4191,-1178.4877 716.3574,-1150.7329"/>
<polygon fill="#000000" stroke="#000000" points="719.5698,-1149.312 713,-1141 712.9524,-1151.5947 719.5698,-1149.312"/>
<text text-anchor="middle" x="1168" y="-1199.8" font-family="Times,serif" font-size="14.00" fill="#000000">/json/1</text>
</g>
<!-- r11 -->
<g id="node5" class="node">
<title>r11</title>
<g id="a_node5"><a xlink:href="file:///home/travis/build/andrewdavidmackenzie/flow/flowstdlib/data/buffer/buffer.html" xlink:title="limit&#45;buffer (#11)">
<ellipse fill="#ff7f50" stroke="#000000" cx="939" cy="-831" rx="92.8835" ry="18"/>
<text text-anchor="middle" x="939" y="-827.3" font-family="Times,serif" font-size="14.00" fill="#000000">limit&#45;buffer (#11)</text>
</a>
</g>
</g>
<!-- r1&#45;&gt;r11 -->
<g id="edge4" class="edge">
<title>r1:e&#45;&gt;r11:n</title>
<path fill="none" stroke="#000000" d="M1192,-1196C1200,-1196 1196.9736,-1184.266 1192,-1178 1125.0427,-1093.644 956,-1230.6996 956,-1123 956,-1123 956,-1123 956,-907.5 956,-884.2319 943.4451,-877.7481 939.914,-859.2006"/>
<polygon fill="#000000" stroke="#000000" points="943.3786,-858.6477 939,-849 936.4065,-859.2725 943.3786,-858.6477"/>
<text text-anchor="middle" x="1168" y="-1184.8" font-family="Times,serif" font-size="14.00" fill="#000000">/json/1</text>
</g>
<!-- r4&#45;&gt;r4 -->
<g id="edge7" class="edge">
<title>r4:s&#45;&gt;r4:n</title>
<path fill="none" stroke="#000000" d="M1483,-1105C1531.9145,-1096 1629.7434,-1096 1629.7434,-1123 1629.7434,-1148.2598 1544.1188,-1149.8878 1493.0284,-1142.6233"/>
<polygon fill="#000000" stroke="#000000" points="1493.4308,-1139.1429 1483,-1141 1492.3122,-1146.053 1493.4308,-1139.1429"/>
<text text-anchor="middle" x="1495.5" y="-1144.8" font-family="Times,serif" font-size="14.00" fill="#000000">left</text>
<text text-anchor="middle" x="1458.5" y="-1093.8" font-family="Times,serif" font-size="14.00" fill="#000000">/left&#45;gt</text>
</g>
<!-- r4&#45;&gt;r14 -->
<g id="edge6" class="edge">
<title>r4:e&#45;&gt;r14:n</title>
<path fill="none" stroke="#000000" d="M1558,-1123C1566,-1123 1559.6578,-1112.8263 1558,-1105 1546.2386,-1049.4755 1507.8782,-1042.0296 1503.4232,-991.0475"/>
<polygon fill="#000000" stroke="#000000" points="1506.9178,-990.8438 1503,-981 1499.924,-991.1385 1506.9178,-990.8438"/>
<text text-anchor="middle" x="1526" y="-984.8" font-family="Times,serif" font-size="14.00" fill="#000000">values</text>
<text text-anchor="middle" x="1590" y="-1126.8" font-family="Times,serif" font-size="14.00" fill="#000000">/right&#45;lte</text>
</g>
<!-- r3 -->
<g id="node7" class="node">
<title>r3</title>
<g id="a_node7"><a xlink:href="file:///home/travis/build/andrewdavidmackenzie/flow/flowstdlib/math/add/add.html" xlink:title="add (#3)">
<ellipse fill="#ff7f50" stroke="#000000" cx="1739" cy="-963" rx="51.1914" ry="18"/>
<text text-anchor="middle" x="1739" y="-959.3" font-family="Times,serif" font-size="14.00" fill="#000000">add (#3)</text>
</a>
</g>
</g>
<!-- r4&#45;&gt;r3 -->
<g id="edge8" class="edge">
<title>r4:e&#45;&gt;r3:n</title>
<path fill="none" stroke="#000000" d="M1558,-1123C1560.3367,-1123 1715.4197,-1069.7213 1717,-1068 1741.5499,-1041.26 1739.6358,-1024.1648 1739.0937,-991.2381"/>
<polygon fill="#000000" stroke="#000000" points="1742.5914,-990.9675 1739,-981 1735.5917,-991.0316 1742.5914,-990.9675"/>
<text text-anchor="middle" x="1732" y="-984.8" font-family="Times,serif" font-size="14.00" fill="#000000">i1</text>
<text text-anchor="middle" x="1585.5" y="-1111.8" font-family="Times,serif" font-size="14.00" fill="#000000">/right&#45;lt</text>
</g>
<!-- r14&#45;&gt;r14 -->
<g id="edge13" class="edge">
<title>r14:s&#45;&gt;r14:nw</title>
<path fill="none" stroke="#000000" d="M1503,-945C1447.3695,-936 1336.1084,-936 1336.1084,-963 1336.1084,-988.418 1418.7606,-989.9073 1474.8599,-982.4857"/>
<polygon fill="#000000" stroke="#000000" points="1475.6131,-985.9128 1485,-981 1474.5982,-978.9868 1475.6131,-985.9128"/>
<text text-anchor="middle" x="1525" y="-984.8" font-family="Times,serif" font-size="14.00" fill="#000000">chunk_size</text>
<text text-anchor="middle" x="1460.5" y="-933.8" font-family="Times,serif" font-size="14.00" fill="#000000">/chunk_size</text>
</g>
<!-- r14&#45;&gt;r14 -->
<g id="edge14" class="edge">
<title>r14:e&#45;&gt;r14:ne</title>
<path fill="none" stroke="#000000" d="M1598,-963C1621.8916,-954 1669.8916,-954 1669.8916,-972 1669.8916,-988.9453 1587.2394,-989.9382 1531.1401,-982.4875"/>
<polygon fill="#000000" stroke="#000000" points="1531.4021,-978.9886 1521,-981 1530.3861,-985.9145 1531.4021,-978.9886"/>
<text text-anchor="middle" x="1497" y="-969.8" font-family="Times,serif" font-size="14.00" fill="#000000">partial</text>
<text text-anchor="middle" x="1624" y="-966.8" font-family="Times,serif" font-size="14.00" fill="#000000">/partial</text>
</g>
<!-- r2 -->
<g id="node10" class="node">
<title>r2</title>
<g id="a_node10"><a xlink:href="file:///home/travis/build/andrewdavidmackenzie/flow/flowstdlib/data/remove/remove.html" xlink:title="remove (#2)">
<ellipse fill="#ff7f50" stroke="#000000" cx="963" cy="-186" rx="68.7879" ry="18"/>
<text text-anchor="middle" x="963" y="-182.3" font-family="Times,serif" font-size="14.00" fill="#000000">remove (#2)</text>
</a>
</g>
</g>
<!-- r14&#45;&gt;r2 -->
<g id="edge15" class="edge">
<title>r14:s&#45;&gt;r2:ne</title>
<path fill="none" stroke="#000000" d="M1503,-945C1503,-866.7598 1331,-985.7402 1331,-907.5 1331,-907.5 1331,-907.5 1331,-248.5 1331,-95.2142 1102.501,-305.0456 988.6613,-210.9739"/>
<polygon fill="#000000" stroke="#000000" points="990.7511,-208.1433 981,-204 986.039,-213.3198 990.7511,-208.1433"/>
<text text-anchor="middle" x="961.5" y="-207.8" font-family="Times,serif" font-size="14.00" fill="#000000">array</text>
<text text-anchor="middle" x="1527.5" y="-933.8" font-family="Times,serif" font-size="14.00" fill="#000000">/chunk</text>
</g>
<!-- r13 -->
<g id="node11" class="node">
<title>r13</title>
<g id="a_node11"><a xlink:href="file:///home/travis/build/andrewdavidmackenzie/flow/flowstdlib/control/compare_switch/compare_switch.html" xlink:title="compare (#13)">
<ellipse fill="#ff7f50" stroke="#000000" cx="340" cy="-963" rx="80.6858" ry="18"/>
<text text-anchor="middle" x="340" y="-959.3" font-family="Times,serif" font-size="14.00" fill="#000000">compare (#13)</text>
</a>
</g>
</g>
<!-- r7&#45;&gt;r13 -->
<g id="edge16" class="edge">
<title>r7:e&#45;&gt;r13:n</title>
<path fill="none" stroke="#000000" d="M767,-1123C775,-1123 771.8037,-1111.3972 767,-1105 760.2209,-1095.9722 409.072,-1010.1646 348.7683,-986.0504"/>
<polygon fill="#000000" stroke="#000000" points="350.4123,-982.9583 340,-981 346.9185,-989.024 350.4123,-982.9583"/>
<text text-anchor="middle" x="327.5" y="-984.8" font-family="Times,serif" font-size="14.00" fill="#000000">left</text>
</g>
<!-- r11&#45;&gt;r11 -->
<g id="edge33" class="edge">
<title>r11:e&#45;&gt;r11:n</title>
<path fill="none" stroke="#000000" d="M1032,-831C1055.9418,-822 1103.9418,-822 1103.9418,-840 1103.9418,-856.9453 1006.4891,-857.9382 949.1977,-850.4875"/>
<polygon fill="#000000" stroke="#000000" points="949.4005,-846.9802 939,-849 948.3901,-853.9068 949.4005,-846.9802"/>
</g>
<!-- r8 -->
<g id="node18" class="node">
<title>r8</title>
<g id="a_node18"><a xlink:href="file:///home/travis/build/andrewdavidmackenzie/flow/flowstdlib/control/compare_switch/compare_switch.html" xlink:title="compare (#8)">
<ellipse fill="#ff7f50" stroke="#000000" cx="691" cy="-574" rx="74.9875" ry="18"/>
<text text-anchor="middle" x="691" y="-570.3" font-family="Times,serif" font-size="14.00" fill="#000000">compare (#8)</text>
</a>
</g>
</g>
<!-- r11&#45;&gt;r8 -->
<g id="edge34" class="edge">
<title>r11:e&#45;&gt;r8:n</title>
<path fill="none" stroke="#000000" d="M1032,-831C1040,-831 1036.4825,-819.6263 1032,-813 1002.2196,-768.9765 921,-821.6501 921,-768.5 921,-768.5 921,-768.5 921,-650.5 921,-548.7312 706.8876,-687.0763 691.8328,-602.1906"/>
<polygon fill="#000000" stroke="#000000" points="695.303,-601.6817 691,-592 688.3263,-602.2519 695.303,-601.6817"/>
<text text-anchor="middle" x="678.5" y="-595.8" font-family="Times,serif" font-size="14.00" fill="#000000">left</text>
</g>
<!-- initializerr4_1 -->
<!-- initializerr4_1&#45;&gt;r4 -->
<g id="edge5" class="edge">
<title>initializerr4_1&#45;&gt;r4:ne</title>
<path fill="none" stroke="#0000ff" stroke-dasharray="1,5" d="M1508.0147,-1250.726C1516.5932,-1225.2071 1527.6539,-1178.6884 1507.5307,-1148.9205"/>
<polygon fill="#0000ff" stroke="#0000ff" points="1510.0621,-1146.4889 1501,-1141 1504.6613,-1150.9421 1510.0621,-1146.4889"/>
<text text-anchor="middle" x="1523" y="-1192.3" font-family="Times,serif" font-size="14.00" fill="#000000">1</text>
</g>
<!-- r3&#45;&gt;r4 -->
<g id="edge11" class="edge">
<title>r3:se&#45;&gt;r4:ne</title>
<path fill="none" stroke="#000000" d="M1756,-946C1756,-946 1790.3454,-981 1790.3454,-981 1768.7927,-1005.3865 1672.3738,-981.3961 1645,-999 1582.6973,-1039.0665 1622.3947,-1104.8454 1557.7434,-1141 1549.1452,-1145.8083 1524.7904,-1148.5457 1510.2949,-1145.2616"/>
<polygon fill="#000000" stroke="#000000" points="1511.5488,-1141.9862 1501,-1141 1508.6314,-1148.3493 1511.5488,-1141.9862"/>
<text text-anchor="middle" x="1519" y="-1144.8" font-family="Times,serif" font-size="14.00" fill="#000000">right</text>
<text text-anchor="middle" x="1773.5" y="-934.8" font-family="Times,serif" font-size="14.00" fill="#000000">/sum</text>
</g>
<!-- r3&#45;&gt;r3 -->
<g id="edge10" class="edge">
<title>r3:se&#45;&gt;r3:ne</title>
<path fill="none" stroke="#000000" d="M1756,-946C1797.1151,-937 1862.3454,-937 1862.3454,-963 1862.3454,-986.9688 1806.9092,-988.8413 1766.0353,-981.9365"/>
<polygon fill="#000000" stroke="#000000" points="1766.482,-978.4582 1756,-980 1765.1557,-985.3314 1766.482,-978.4582"/>
<text text-anchor="middle" x="1749" y="-983.8" font-family="Times,serif" font-size="14.00" fill="#000000">i2</text>
<text text-anchor="middle" x="1746.5" y="-934.8" font-family="Times,serif" font-size="14.00" fill="#000000">/i2</text>
</g>
<!-- initializerr3_1 -->
<!-- initializerr3_1&#45;&gt;r3 -->
<g id="edge9" class="edge">
<title>initializerr3_1&#45;&gt;r3:w</title>
<path fill="none" stroke="#0000ff" stroke-dasharray="1,5" d="M1712.263,-1104.957C1687.7626,-1065.8916 1636.6687,-976.0393 1676.9704,-964.2781"/>
<polygon fill="#0000ff" stroke="#0000ff" points="1677.5227,-967.7361 1687,-963 1676.6378,-960.7922 1677.5227,-967.7361"/>
<text text-anchor="middle" x="1694" y="-1046.3" font-family="Times,serif" font-size="14.00" fill="#000000">1</text>
</g>
<!-- initializerr14_1 -->
<!-- initializerr14_1&#45;&gt;r14 -->
<g id="edge12" class="edge">
<title>initializerr14_1&#45;&gt;r14:n</title>
<path fill="none" stroke="#0000ff" stroke-dasharray="1,5" d="M1363.249,-1036.3052C1411.0035,-1023.3787 1476.5752,-1003.8294 1496.8056,-989.0585"/>
<polygon fill="#0000ff" stroke="#0000ff" points="1499.6805,-991.0614 1503,-981 1494.1307,-986.7953 1499.6805,-991.0614"/>
<text text-anchor="middle" x="1479.5" y="-1002.8" font-family="Times,serif" font-size="14.00" fill="#000000">[]</text>
</g>
<!-- r2&#45;&gt;r2 -->
<g id="edge39" class="edge">
<title>r2:e&#45;&gt;r2:ne</title>
<path fill="none" stroke="#000000" d="M1032,-186C1055.8939,-177 1103.8939,-177 1103.8939,-195 1103.8939,-211.7695 1037.9908,-212.9159 991.004,-205.7167"/>
<polygon fill="#000000" stroke="#000000" points="991.4479,-202.2418 981,-204 990.264,-209.1409 991.4479,-202.2418"/>
<text text-anchor="middle" x="1000.5" y="-207.8" font-family="Times,serif" font-size="14.00" fill="#000000">array</text>
</g>
<!-- r0 -->
<g id="node23" class="node">
<title>r0</title>
<g id="a_node23"><a xlink:href="file:///home/travis/build/andrewdavidmackenzie/flow/flowr/src/lib/flowruntime/stdio/stdout.html" xlink:title="print (#0)">
<ellipse fill="#ff7f50" stroke="#000000" cx="1139" cy="-107" rx="57.3905" ry="18"/>
<text text-anchor="middle" x="1139" y="-103.3" font-family="Times,serif" font-size="14.00" fill="#000000">print (#0)</text>
</a>
</g>
</g>
<!-- r2&#45;&gt;r0 -->
<g id="edge40" class="edge">
<title>r2:e&#45;&gt;r0:n</title>
<path fill="none" stroke="#000000" d="M1032,-186C1083.2125,-186 1132.2531,-180.5216 1138.362,-134.9917"/>
<polygon fill="#000000" stroke="#000000" points="1141.8556,-135.2027 1139,-125 1134.8698,-134.7566 1141.8556,-135.2027"/>
</g>
<!-- r13&#45;&gt;r13 -->
<g id="edge20" class="edge">
<title>r13:s&#45;&gt;r13:n</title>
<path fill="none" stroke="#000000" d="M340,-945C390.8643,-936 492.5928,-936 492.5928,-963 492.5928,-988.3125 403.183,-989.8945 350.0959,-982.5776"/>
<polygon fill="#000000" stroke="#000000" points="350.4205,-979.086 340,-981 349.3397,-986.002 350.4205,-979.086"/>
<text text-anchor="middle" x="352.5" y="-984.8" font-family="Times,serif" font-size="14.00" fill="#000000">left</text>
<text text-anchor="middle" x="315.5" y="-933.8" font-family="Times,serif" font-size="14.00" fill="#000000">/left&#45;gt</text>
</g>
<!-- r10 -->
<g id="node13" class="node">
<title>r10</title>
<g id="a_node13"><a xlink:href="file:///home/travis/build/andrewdavidmackenzie/flow/flowstdlib/math/multiply/multiply.html" xlink:title="multiply (#10)">
<ellipse fill="#ff7f50" stroke="#000000" cx="500" cy="-706" rx="78.7863" ry="18"/>
<text text-anchor="middle" x="500" y="-702.3" font-family="Times,serif" font-size="14.00" fill="#000000">multiply (#10)</text>
</a>
</g>
</g>
<!-- r13&#45;&gt;r10 -->
<g id="edge18" class="edge">
<title>r13:e&#45;&gt;r10:n</title>
<path fill="none" stroke="#000000" d="M421,-963C462.8256,-963 497,-949.3256 497,-907.5 497,-907.5 497,-907.5 497,-768.5 497,-752.5489 498.9426,-746.29 499.7014,-734.1249"/>
<polygon fill="#000000" stroke="#000000" points="503.2036,-734.0989 500,-724 496.2066,-733.8924 503.2036,-734.0989"/>
<text text-anchor="middle" x="493" y="-727.8" font-family="Times,serif" font-size="14.00" fill="#000000">i1</text>
<text text-anchor="middle" x="453" y="-966.8" font-family="Times,serif" font-size="14.00" fill="#000000">/right&#45;lte</text>
</g>
<!-- r9 -->
<g id="node14" class="node">
<title>r9</title>
<g id="a_node14"><a xlink:href="file:///home/travis/build/andrewdavidmackenzie/flow/flowstdlib/math/add/add.html" xlink:title="add (#9)">
<ellipse fill="#ff7f50" stroke="#000000" cx="280" cy="-706" rx="51.1914" ry="18"/>
<text text-anchor="middle" x="280" y="-702.3" font-family="Times,serif" font-size="14.00" fill="#000000">add (#9)</text>
</a>
</g>
</g>
<!-- r13&#45;&gt;r9 -->
<g id="edge19" class="edge">
<title>r13:e&#45;&gt;r9:ne</title>
<path fill="none" stroke="#000000" d="M421,-963C429,-963 422.5129,-952.8557 421,-945 417.6054,-927.3733 406,-925.4505 406,-907.5 406,-907.5 406,-907.5 406,-768.5 406,-719.4903 343.3497,-754.687 304.8236,-729.3724"/>
<polygon fill="#000000" stroke="#000000" points="306.9639,-726.6016 297,-723 302.5432,-732.0291 306.9639,-726.6016"/>
<text text-anchor="middle" x="290" y="-726.8" font-family="Times,serif" font-size="14.00" fill="#000000">i2</text>
<text text-anchor="middle" x="453" y="-951.8" font-family="Times,serif" font-size="14.00" fill="#000000">/right&#45;lte</text>
</g>
<!-- r12 -->
<g id="node15" class="node">
<title>r12</title>
<g id="a_node15"><a xlink:href="file:///home/travis/build/andrewdavidmackenzie/flow/flowstdlib/math/add/add.html" xlink:title="add (#12)">
<ellipse fill="#ff7f50" stroke="#000000" cx="81" cy="-706" rx="57.3905" ry="18"/>
<text text-anchor="middle" x="81" y="-702.3" font-family="Times,serif" font-size="14.00" fill="#000000">add (#12)</text>
</a>
</g>
</g>
<!-- r13&#45;&gt;r12 -->
<g id="edge21" class="edge">
<title>r13:e&#45;&gt;r12:n</title>
<path fill="none" stroke="#000000" d="M421,-963C429,-963 424.8158,-952.0313 421,-945 418.5602,-940.5042 140.1089,-766.5321 89.0075,-730.4107"/>
<polygon fill="#000000" stroke="#000000" points="90.9939,-727.5175 81,-724 86.6191,-732.982 90.9939,-727.5175"/>
<text text-anchor="middle" x="74" y="-727.8" font-family="Times,serif" font-size="14.00" fill="#000000">i1</text>
<text text-anchor="middle" x="393.5" y="-966.8" font-family="Times,serif" font-size="14.00" fill="#000000">/right&#45;lt</text>
</g>
<!-- initializerr13_1 -->
<!-- initializerr13_1&#45;&gt;r13 -->
<g id="edge17" class="edge">
<title>initializerr13_1&#45;&gt;r13:ne</title>
<path fill="none" stroke="#0000ff" stroke-dasharray="1,5" d="M358,-1250.6997C358,-1235.9349 358,-1214.6302 358,-1196 358,-1196 358,-1196 358,-1050 358,-1037.6615 365.0206,-1007.5219 362.1137,-990.5699"/>
<polygon fill="#0000ff" stroke="#0000ff" points="365.1647,-988.805 358,-981 358.7337,-991.5694 365.1647,-988.805"/>
<text text-anchor="middle" x="363" y="-1119.3" font-family="Times,serif" font-size="14.00" fill="#000000">2</text>
</g>
<!-- r10&#45;&gt;r8 -->
<g id="edge26" class="edge">
<title>r10:e&#45;&gt;r8:ne</title>
<path fill="none" stroke="#000000" d="M579,-706C584.8458,-706 580.3576,-685.2145 583,-680 591.5233,-663.1801 598.1552,-661.627 613,-650 649.0252,-621.7836 729.5093,-626.199 715.2049,-599.8469"/>
<polygon fill="#000000" stroke="#000000" points="717.948,-597.6731 709,-592 712.4572,-602.0149 717.948,-597.6731"/>
<text text-anchor="middle" x="727" y="-595.8" font-family="Times,serif" font-size="14.00" fill="#000000">right</text>
</g>
<!-- r9&#45;&gt;r9 -->
<g id="edge31" class="edge">
<title>r9:se&#45;&gt;r9:ne</title>
<path fill="none" stroke="#000000" d="M297,-689C338.1151,-680 403.3454,-680 403.3454,-706 403.3454,-729.9688 347.9092,-731.8413 307.0353,-724.9365"/>
<polygon fill="#000000" stroke="#000000" points="307.482,-721.4582 297,-723 306.1557,-728.3314 307.482,-721.4582"/>
<text text-anchor="middle" x="304" y="-726.8" font-family="Times,serif" font-size="14.00" fill="#000000">i2</text>
<text text-anchor="middle" x="287.5" y="-677.8" font-family="Times,serif" font-size="14.00" fill="#000000">/i2</text>
</g>
<!-- r9&#45;&gt;r8 -->
<g id="edge32" class="edge">
<title>r9:se&#45;&gt;r8:ne</title>
<path fill="none" stroke="#000000" d="M297,-689C326.9423,-659.0577 663.9346,-631.3565 706.4984,-601.8607"/>
<polygon fill="#000000" stroke="#000000" points="709.9334,-602.5536 709,-592 703.1483,-600.8322 709.9334,-602.5536"/>
<text text-anchor="middle" x="691" y="-595.8" font-family="Times,serif" font-size="14.00" fill="#000000">right</text>
<text text-anchor="middle" x="314.5" y="-677.8" font-family="Times,serif" font-size="14.00" fill="#000000">/sum</text>
</g>
<!-- r12&#45;&gt;r13 -->
<g id="edge24" class="edge">
<title>r12:se&#45;&gt;r13:ne</title>
<path fill="none" stroke="#000000" d="M98,-689C110.632,-676.368 121.1221,-683.7412 138.1949,-689 141.9458,-690.1554 255,-764.5752 255,-768.5 255,-907.5 255,-907.5 255,-907.5 255,-945.2302 397.0434,-915.5213 420.5928,-945 420.5928,-945 383.9021,-966.1025 366.7033,-975.9944"/>
<polygon fill="#000000" stroke="#000000" points="364.9235,-972.9803 358,-981 368.4135,-979.0483 364.9235,-972.9803"/>
<text text-anchor="middle" x="376" y="-984.8" font-family="Times,serif" font-size="14.00" fill="#000000">right</text>
<text text-anchor="middle" x="80.5" y="-677.8" font-family="Times,serif" font-size="14.00" fill="#000000">/sum</text>
</g>
<!-- r12&#45;&gt;r12 -->
<g id="edge23" class="edge">
<title>r12:se&#45;&gt;r12:ne</title>
<path fill="none" stroke="#000000" d="M98,-689C141.065,-680 210.1949,-680 210.1949,-706 210.1949,-730.0703 150.9457,-731.8568 107.9805,-724.8482"/>
<polygon fill="#000000" stroke="#000000" points="108.4702,-721.3795 98,-723 107.1955,-728.2625 108.4702,-721.3795"/>
<text text-anchor="middle" x="91" y="-726.8" font-family="Times,serif" font-size="14.00" fill="#000000">i2</text>
<text text-anchor="middle" x="107.5" y="-677.8" font-family="Times,serif" font-size="14.00" fill="#000000">/i2</text>
</g>
<!-- initializerr12_1 -->
<!-- initializerr12_1&#45;&gt;r12 -->
<g id="edge22" class="edge">
<title>initializerr12_1&#45;&gt;r12:w</title>
<path fill="none" stroke="#0000ff" stroke-dasharray="1,5" d="M103.5,-944.5375C102.25,-933.7583 101,-919.8833 101,-907.5 101,-907.5 101,-907.5 101,-768.5 101,-728.9738 43.7558,-758.2349 24,-724 22.5006,-721.4016 21.0007,-718.2208 20.1335,-715.2597"/>
<polygon fill="#0000ff" stroke="#0000ff" points="23.3765,-716.5765 24,-706 16.917,-713.8792 23.3765,-716.5765"/>
<text text-anchor="middle" x="106" y="-827.3" font-family="Times,serif" font-size="14.00" fill="#000000">1</text>
</g>
<!-- initializerr10_1 -->
<!-- initializerr10_1&#45;&gt;r10 -->
<g id="edge25" class="edge">
<title>initializerr10_1&#45;&gt;r10:w</title>
<path fill="none" stroke="#0000ff" d="M658.6156,-813.9088C626.2828,-793.7346 569.2202,-760.5861 516,-742 475.4294,-727.8316 448.4128,-757.0946 421,-724 419.0066,-721.5934 417.3498,-718.3204 416.5477,-715.225"/>
<polygon fill="#0000ff" stroke="#0000ff" points="419.8054,-716.5273 421,-706 413.5013,-713.4846 419.8054,-716.5273"/>
<text text-anchor="middle" x="596" y="-764.8" font-family="Times,serif" font-size="14.00" fill="#000000">2</text>
</g>
<!-- r8&#45;&gt;r2 -->
<g id="edge27" class="edge">
<title>r8:e&#45;&gt;r2:n</title>
<path fill="none" stroke="#000000" d="M766,-574C816.0553,-574 864,-568.5553 864,-518.5 864,-518.5 864,-518.5 864,-248.5 864,-204.2166 947.424,-244.3869 961.1107,-213.9591"/>
<polygon fill="#000000" stroke="#000000" points="964.5748,-214.4771 963,-204 957.6975,-213.1724 964.5748,-214.4771"/>
<text text-anchor="middle" x="943.5" y="-207.8" font-family="Times,serif" font-size="14.00" fill="#000000">value</text>
<text text-anchor="middle" x="798" y="-577.8" font-family="Times,serif" font-size="14.00" fill="#000000">/right&#45;lte</text>
</g>
<!-- r8&#45;&gt;r9 -->
<g id="edge29" class="edge">
<title>r8:e&#45;&gt;r9:n</title>
<path fill="none" stroke="#000000" d="M766,-574C774,-574 770.3864,-585.3098 766,-592 741.5531,-629.2867 716.741,-619.3052 674,-632 576.7815,-660.8756 549.1021,-653.7271 449,-670 420.5835,-674.6195 411.2766,-668.2364 385,-680 356.8525,-692.6012 360.3841,-713.6159 331.3454,-724 323.7073,-726.7314 300.978,-731.3461 288.4758,-729.6858"/>
<polygon fill="#000000" stroke="#000000" points="290.2544,-726.6643 280,-724 286.3547,-732.4775 290.2544,-726.6643"/>
<text text-anchor="middle" x="273" y="-727.8" font-family="Times,serif" font-size="14.00" fill="#000000">i1</text>
<text text-anchor="middle" x="793.5" y="-562.8" font-family="Times,serif" font-size="14.00" fill="#000000">/right&#45;lt</text>
</g>
<!-- r8&#45;&gt;r8 -->
<g id="edge28" class="edge">
<title>r8:s&#45;&gt;r8:n</title>
<path fill="none" stroke="#000000" d="M691,-556C739.9145,-547 837.7434,-547 837.7434,-574 837.7434,-599.2598 752.1188,-600.8878 701.0284,-593.6233"/>
<polygon fill="#000000" stroke="#000000" points="701.4308,-590.1429 691,-592 700.3122,-597.053 701.4308,-590.1429"/>
<text text-anchor="middle" x="678.5" y="-580.8" font-family="Times,serif" font-size="14.00" fill="#000000">left</text>
<text text-anchor="middle" x="666.5" y="-544.8" font-family="Times,serif" font-size="14.00" fill="#000000">/left&#45;gt</text>
</g>
<!-- r5 -->
<g id="node19" class="node">
<title>r5</title>
<g id="a_node19"><a xlink:href="file:///home/travis/build/andrewdavidmackenzie/flow/flowstdlib/control/join/join.html" xlink:title="join (#5)">
<ellipse fill="#ff7f50" stroke="#000000" cx="662" cy="-186" rx="51.1914" ry="18"/>
<text text-anchor="middle" x="662" y="-182.3" font-family="Times,serif" font-size="14.00" fill="#000000">join (#5)</text>
</a>
</g>
</g>
<!-- r8&#45;&gt;r5 -->
<g id="edge30" class="edge">
<title>r8:sw&#45;&gt;r5:ne</title>
<path fill="none" stroke="#000000" d="M673,-556C661.1772,-544.1772 676,-535.2199 676,-518.5 676,-518.5 676,-518.5 676,-248.5 676,-232.5088 686.7902,-222.3468 684.302,-211.731"/>
<polygon fill="#000000" stroke="#000000" points="687.1822,-209.7307 679,-203 681.199,-213.3641 687.1822,-209.7307"/>
<text text-anchor="middle" x="705" y="-206.8" font-family="Times,serif" font-size="14.00" fill="#000000">control</text>
<text text-anchor="middle" x="707" y="-544.8" font-family="Times,serif" font-size="14.00" fill="#000000">/right&#45;gte</text>
</g>
<!-- r6 -->
<g id="node21" class="node">
<title>r6</title>
<g id="a_node21"><a xlink:href="file:///home/travis/build/andrewdavidmackenzie/flow/flowstdlib/math/add/add.html" xlink:title="subsequence&#45;count (#6)">
<ellipse fill="#ff7f50" stroke="#000000" cx="570" cy="-34" rx="124.2781" ry="18"/>
<text text-anchor="middle" x="570" y="-30.3" font-family="Times,serif" font-size="14.00" fill="#000000">subsequence&#45;count (#6)</text>
</a>
</g>
</g>
<!-- r5&#45;&gt;r6 -->
<g id="edge36" class="edge">
<title>r5:e&#45;&gt;r6:ne</title>
<path fill="none" stroke="#000000" d="M714,-186C722,-186 717.2134,-175.3262 714,-168 684.8582,-101.56 645.6996,-105.2873 595.4885,-59.1788"/>
<polygon fill="#000000" stroke="#000000" points="597.6409,-56.3937 588,-52 592.7967,-61.4468 597.6409,-56.3937"/>
<text text-anchor="middle" x="581" y="-55.8" font-family="Times,serif" font-size="14.00" fill="#000000">i2</text>
</g>
<!-- initializerr5_0 -->
<!-- initializerr5_0&#45;&gt;r5 -->
<g id="edge35" class="edge">
<title>initializerr5_0&#45;&gt;r5:nw</title>
<path fill="none" stroke="#0000ff" d="M535.2827,-293.8908C561.3141,-275.0441 603.5242,-243.0126 637.8122,-210.0448"/>
<polygon fill="#0000ff" stroke="#0000ff" points="640.3081,-212.4993 645,-203 635.4083,-207.5001 640.3081,-212.4993"/>
<text text-anchor="middle" x="608" y="-244.8" font-family="Times,serif" font-size="14.00" fill="#000000">1</text>
</g>
<!-- r6&#45;&gt;r6 -->
<g id="edge38" class="edge">
<title>r6:se&#45;&gt;r6:n</title>
<path fill="none" stroke="#000000" d="M588,-16C653.3797,-7 766.139,-7 766.139,-34 766.139,-59.6816 647.8374,-60.9356 580.0219,-53.2519"/>
<polygon fill="#000000" stroke="#000000" points="580.3567,-49.7666 570,-52 579.489,-56.7126 580.3567,-49.7666"/>
<text text-anchor="middle" x="563" y="-55.8" font-family="Times,serif" font-size="14.00" fill="#000000">i1</text>
<text text-anchor="middle" x="570.5" y="-4.8" font-family="Times,serif" font-size="14.00" fill="#000000">/sum</text>
</g>
<!-- initializerr6_0 -->
<!-- initializerr6_0&#45;&gt;r6 -->
<g id="edge37" class="edge">
<title>initializerr6_0&#45;&gt;r6:ne</title>
<path fill="none" stroke="#0000ff" stroke-dasharray="1,5" d="M486.9087,-168.8694C523.8217,-141.595 590.5784,-88.6243 591.5805,-61.5711"/>
<polygon fill="#0000ff" stroke="#0000ff" points="594.782,-60.1397 588,-52 588.2257,-62.5924 594.782,-60.1397"/>
<text text-anchor="middle" x="582" y="-103.3" font-family="Times,serif" font-size="14.00" fill="#000000">1</text>
</g>
</g>
</svg>
