<?xml version="1.0" encoding="UTF-8" standalone="no"?>
<!DOCTYPE svg PUBLIC "-//W3C//DTD SVG 1.1//EN"
 "http://www.w3.org/Graphics/SVG/1.1/DTD/svg11.dtd">
<!-- Generated by graphviz version 2.40.1 (20161225.0304)
 -->
<!-- Title: prime Pages: 1 -->
<svg width="1838pt" height="1388pt"
 viewBox="0.00 0.00 1838.35 1388.00" xmlns="http://www.w3.org/2000/svg" xmlns:xlink="http://www.w3.org/1999/xlink">
<g id="graph0" class="graph" transform="scale(1 1) rotate(0) translate(4 1384)">
<title>prime</title>
<polygon fill="#ffffff" stroke="transparent" points="-4,4 -4,-1384 1834.3454,-1384 1834.3454,4 -4,4"/>
<text text-anchor="middle" x="915.1727" y="-1364.8" font-family="Times,serif" font-size="14.00" fill="#000000">/prime</text>
<g id="clust1" class="cluster">
<title>cluster_candidates</title>
<polygon fill="none" stroke="#000000" points="1376,-937 1376,-1318 1784,-1318 1784,-937 1376,-937"/>
<text text-anchor="middle" x="1580" y="-1302.8" font-family="Times,serif" font-size="14.00" fill="#000000">/prime/candidates</text>
</g>
<g id="clust2" class="cluster">
<title>cluster_composites</title>
<polygon fill="none" stroke="#000000" points="8,-8 8,-1349 1062,-1349 1062,-8 8,-8"/>
<text text-anchor="middle" x="535" y="-1333.8" font-family="Times,serif" font-size="14.00" fill="#000000">/prime/composites</text>
</g>
<g id="clust3" class="cluster">
<title>cluster_divisors</title>
<polygon fill="none" stroke="#000000" points="16,-680 16,-1318 575,-1318 575,-680 16,-680"/>
<text text-anchor="middle" x="295.5" y="-1302.8" font-family="Times,serif" font-size="14.00" fill="#000000">/prime/composites/divisors</text>
</g>
<g id="clust4" class="cluster">
<title>cluster_generate_composites</title>
<polygon fill="none" stroke="#000000" points="583,-152 583,-880 1054,-880 1054,-152 583,-152"/>
<text text-anchor="middle" x="818.5" y="-864.8" font-family="Times,serif" font-size="14.00" fill="#000000">/prime/composites/generate_composites</text>
</g>
<g id="clust5" class="cluster">
<title>cluster_composite_sequence</title>
<polygon fill="none" stroke="#000000" points="591,-160 591,-623 1046,-623 1046,-160 591,-160"/>
<text text-anchor="middle" x="818.5" y="-607.8" font-family="Times,serif" font-size="14.00" fill="#000000">/prime/composites/generate_composites/composite&#45;sequence</text>
</g>
<!-- r2 -->
<g id="node1" class="node">
<title>r2</title>
<g id="a_node1"><a xlink:href="file:///home/travis/build/andrewdavidmackenzie/flow/flowr/src/lib/flowruntime/args/get.html" xlink:title="args (#2)">
<ellipse fill="#ff7f50" stroke="#000000" cx="1125" cy="-1196" rx="54.6905" ry="18"/>
<text text-anchor="middle" x="1125" y="-1192.3" font-family="Times,serif" font-size="14.00" fill="#000000">args (#2)</text>
</a>
</g>
</g>
<!-- r0 -->
<g id="node2" class="node">
<title>r0</title>
<g id="a_node2"><a xlink:href="file:///home/travis/build/andrewdavidmackenzie/flow/flowstdlib/control/compare_switch/compare_switch.html" xlink:title="compare (#0)">
<ellipse fill="#ff7f50" stroke="#000000" cx="1459" cy="-1123" rx="74.9875" ry="18"/>
<text text-anchor="middle" x="1459" y="-1119.3" font-family="Times,serif" font-size="14.00" fill="#000000">compare (#0)</text>
</a>
</g>
</g>
<!-- r2&#45;&gt;r0 -->
<g id="edge1" class="edge">
<title>r2:e&#45;&gt;r0:n</title>
<path fill="none" stroke="#000000" d="M1180,-1196C1208.7579,-1196 1416.2867,-1176.613 1453.3449,-1149.3068"/>
<polygon fill="#000000" stroke="#000000" points="1456.2657,-1151.2359 1459,-1141 1450.4793,-1147.2966 1456.2657,-1151.2359"/>
<text text-anchor="middle" x="1446.5" y="-1144.8" font-family="Times,serif" font-size="14.00" fill="#000000">left</text>
<text text-anchor="middle" x="1204" y="-1199.8" font-family="Times,serif" font-size="14.00" fill="#000000">/json/1</text>
</g>
<!-- r4 -->
<g id="node3" class="node">
<title>r4</title>
<g id="a_node3"><a xlink:href="file:///home/travis/build/andrewdavidmackenzie/flow/flowstdlib/data/accumulate/accumulate.html" xlink:title="all&#45;numbers (#4)">
<ellipse fill="#ff7f50" stroke="#000000" cx="1473" cy="-963" rx="89.0842" ry="18"/>
<text text-anchor="middle" x="1473" y="-959.3" font-family="Times,serif" font-size="14.00" fill="#000000">all&#45;numbers (#4)</text>
</a>
</g>
</g>
<!-- r2&#45;&gt;r4 -->
<g id="edge2" class="edge">
<title>r2:e&#45;&gt;r4:nw</title>
<path fill="none" stroke="#000000" d="M1180,-1196C1252.8889,-1196 1133.3951,-1088.0426 1180,-1032 1198.3179,-1009.9726 1397.8968,-1003.8908 1446.1853,-985.8588"/>
<polygon fill="#000000" stroke="#000000" points="1447.9319,-988.8926 1455,-981 1444.5527,-982.7623 1447.9319,-988.8926"/>
<text text-anchor="middle" x="1415" y="-984.8" font-family="Times,serif" font-size="14.00" fill="#000000">chunk_size</text>
<text text-anchor="middle" x="1204" y="-1184.8" font-family="Times,serif" font-size="14.00" fill="#000000">/json/1</text>
</g>
<!-- r13 -->
<g id="node4" class="node">
<title>r13</title>
<g id="a_node4"><a xlink:href="file:///home/travis/build/andrewdavidmackenzie/flow/flowstdlib/math/sqrt/sqrt.html" xlink:title="sqrt (#13)">
<ellipse fill="#ff7f50" stroke="#000000" cx="698" cy="-1123" rx="59.2899" ry="18"/>
<text text-anchor="middle" x="698" y="-1119.3" font-family="Times,serif" font-size="14.00" fill="#000000">sqrt (#13)</text>
</a>
</g>
</g>
<!-- r2&#45;&gt;r13 -->
<g id="edge3" class="edge">
<title>r2:e&#45;&gt;r13:n</title>
<path fill="none" stroke="#000000" d="M1180,-1196C1188,-1196 1185.4813,-1183.8271 1180,-1178 1157.5762,-1154.1613 918.6207,-1162.6459 886,-1160 847.9071,-1156.9102 723.4189,-1178.4899 701.3574,-1150.7332"/>
<polygon fill="#000000" stroke="#000000" points="704.5697,-1149.312 698,-1141 697.9523,-1151.5947 704.5697,-1149.312"/>
<text text-anchor="middle" x="1156" y="-1199.8" font-family="Times,serif" font-size="14.00" fill="#000000">/json/1</text>
</g>
<!-- r8 -->
<g id="node5" class="node">
<title>r8</title>
<g id="a_node5"><a xlink:href="file:///home/travis/build/andrewdavidmackenzie/flow/flowstdlib/data/buffer/buffer.html" xlink:title="limit&#45;buffer (#8)">
<ellipse fill="#ff7f50" stroke="#000000" cx="921" cy="-831" rx="87.1846" ry="18"/>
<text text-anchor="middle" x="921" y="-827.3" font-family="Times,serif" font-size="14.00" fill="#000000">limit&#45;buffer (#8)</text>
</a>
</g>
</g>
<!-- r2&#45;&gt;r8 -->
<g id="edge4" class="edge">
<title>r2:e&#45;&gt;r8:n</title>
<path fill="none" stroke="#000000" d="M1180,-1196C1188,-1196 1184.9823,-1184.2591 1180,-1178 1112.1167,-1092.7207 941,-1231.9986 941,-1123 941,-1123 941,-1123 941,-907.5 941,-883.7792 926.0949,-877.8942 922.0193,-859.0503"/>
<polygon fill="#000000" stroke="#000000" points="925.4912,-858.5958 921,-849 918.527,-859.3022 925.4912,-858.5958"/>
<text text-anchor="middle" x="1156" y="-1184.8" font-family="Times,serif" font-size="14.00" fill="#000000">/json/1</text>
</g>
<!-- r0&#45;&gt;r0 -->
<g id="edge7" class="edge">
<title>r0:s&#45;&gt;r0:n</title>
<path fill="none" stroke="#000000" d="M1459,-1105C1507.9145,-1096 1605.7434,-1096 1605.7434,-1123 1605.7434,-1148.2598 1520.1188,-1149.8878 1469.0284,-1142.6233"/>
<polygon fill="#000000" stroke="#000000" points="1469.4308,-1139.1429 1459,-1141 1468.3122,-1146.053 1469.4308,-1139.1429"/>
<text text-anchor="middle" x="1471.5" y="-1144.8" font-family="Times,serif" font-size="14.00" fill="#000000">left</text>
<text text-anchor="middle" x="1434.5" y="-1093.8" font-family="Times,serif" font-size="14.00" fill="#000000">/left&#45;gt</text>
</g>
<!-- r0&#45;&gt;r4 -->
<g id="edge6" class="edge">
<title>r0:e&#45;&gt;r4:n</title>
<path fill="none" stroke="#000000" d="M1534,-1123C1542,-1123 1535.8128,-1112.7919 1534,-1105 1527.748,-1078.1273 1483.4915,-1024.2382 1474.5664,-991.2984"/>
<polygon fill="#000000" stroke="#000000" points="1477.964,-990.36 1473,-981 1471.0435,-991.4126 1477.964,-990.36"/>
<text text-anchor="middle" x="1496" y="-984.8" font-family="Times,serif" font-size="14.00" fill="#000000">values</text>
<text text-anchor="middle" x="1566" y="-1126.8" font-family="Times,serif" font-size="14.00" fill="#000000">/right&#45;lte</text>
</g>
<!-- r1 -->
<g id="node7" class="node">
<title>r1</title>
<g id="a_node7"><a xlink:href="file:///home/travis/build/andrewdavidmackenzie/flow/flowstdlib/math/add/add.html" xlink:title="add (#1)">
<ellipse fill="#ff7f50" stroke="#000000" cx="1707" cy="-963" rx="51.1914" ry="18"/>
<text text-anchor="middle" x="1707" y="-959.3" font-family="Times,serif" font-size="14.00" fill="#000000">add (#1)</text>
</a>
</g>
</g>
<!-- r0&#45;&gt;r1 -->
<g id="edge8" class="edge">
<title>r0:e&#45;&gt;r1:n</title>
<path fill="none" stroke="#000000" d="M1534,-1123C1536.2974,-1123 1688.4983,-1069.7386 1690,-1068 1713.439,-1040.8627 1708.2942,-1023.691 1707.1806,-991.12"/>
<polygon fill="#000000" stroke="#000000" points="1710.678,-990.9359 1707,-981 1703.6791,-991.0609 1710.678,-990.9359"/>
<text text-anchor="middle" x="1700" y="-984.8" font-family="Times,serif" font-size="14.00" fill="#000000">i1</text>
<text text-anchor="middle" x="1561.5" y="-1111.8" font-family="Times,serif" font-size="14.00" fill="#000000">/right&#45;lt</text>
</g>
<!-- r4&#45;&gt;r4 -->
<g id="edge13" class="edge">
<title>r4:s&#45;&gt;r4:nw</title>
<path fill="none" stroke="#000000" d="M1473,-945C1419.3193,-936 1311.9579,-936 1311.9579,-963 1311.9579,-988.3652 1390.8258,-989.901 1444.8848,-982.5318"/>
<polygon fill="#000000" stroke="#000000" points="1445.6368,-985.9579 1455,-981 1444.5887,-979.0368 1445.6368,-985.9579"/>
<text text-anchor="middle" x="1495" y="-984.8" font-family="Times,serif" font-size="14.00" fill="#000000">chunk_size</text>
<text text-anchor="middle" x="1430.5" y="-933.8" font-family="Times,serif" font-size="14.00" fill="#000000">/chunk_size</text>
</g>
<!-- r4&#45;&gt;r4 -->
<g id="edge14" class="edge">
<title>r4:e&#45;&gt;r4:ne</title>
<path fill="none" stroke="#000000" d="M1562,-963C1586.0421,-954 1634.0421,-954 1634.0421,-972 1634.0421,-988.9102 1555.1742,-989.934 1501.1152,-982.5338"/>
<polygon fill="#000000" stroke="#000000" points="1501.4117,-979.0388 1491,-981 1500.3622,-985.9597 1501.4117,-979.0388"/>
<text text-anchor="middle" x="1467" y="-969.8" font-family="Times,serif" font-size="14.00" fill="#000000">partial</text>
<text text-anchor="middle" x="1588" y="-966.8" font-family="Times,serif" font-size="14.00" fill="#000000">/partial</text>
</g>
<!-- r14 -->
<g id="node10" class="node">
<title>r14</title>
<g id="a_node10"><a xlink:href="file:///home/travis/build/andrewdavidmackenzie/flow/flowstdlib/data/remove/remove.html" xlink:title="remove (#14)">
<ellipse fill="#ff7f50" stroke="#000000" cx="945" cy="-186" rx="74.9875" ry="18"/>
<text text-anchor="middle" x="945" y="-182.3" font-family="Times,serif" font-size="14.00" fill="#000000">remove (#14)</text>
</a>
</g>
</g>
<!-- r4&#45;&gt;r14 -->
<g id="edge15" class="edge">
<title>r4:s&#45;&gt;r14:ne</title>
<path fill="none" stroke="#000000" d="M1473,-945C1473,-868.062 1304,-984.438 1304,-907.5 1304,-907.5 1304,-907.5 1304,-248.5 1304,-99.0923 1081.4206,-302.5391 970.4673,-210.7991"/>
<polygon fill="#000000" stroke="#000000" points="972.7505,-208.1446 963,-204 968.0378,-213.3205 972.7505,-208.1446"/>
<text text-anchor="middle" x="943.5" y="-207.8" font-family="Times,serif" font-size="14.00" fill="#000000">array</text>
<text text-anchor="middle" x="1497.5" y="-933.8" font-family="Times,serif" font-size="14.00" fill="#000000">/chunk</text>
</g>
<!-- r6 -->
<g id="node11" class="node">
<title>r6</title>
<g id="a_node11"><a xlink:href="file:///home/travis/build/andrewdavidmackenzie/flow/flowstdlib/control/compare_switch/compare_switch.html" xlink:title="compare (#6)">
<ellipse fill="#ff7f50" stroke="#000000" cx="323" cy="-963" rx="74.9875" ry="18"/>
<text text-anchor="middle" x="323" y="-959.3" font-family="Times,serif" font-size="14.00" fill="#000000">compare (#6)</text>
</a>
</g>
</g>
<!-- r13&#45;&gt;r6 -->
<g id="edge16" class="edge">
<title>r13:e&#45;&gt;r6:n</title>
<path fill="none" stroke="#000000" d="M757,-1123C765,-1123 761.8176,-1111.3868 757,-1105 750.0985,-1095.8505 393.2024,-1010.2998 331.9118,-986.0879"/>
<polygon fill="#000000" stroke="#000000" points="333.4197,-982.9186 323,-981 329.949,-988.9976 333.4197,-982.9186"/>
<text text-anchor="middle" x="310.5" y="-984.8" font-family="Times,serif" font-size="14.00" fill="#000000">left</text>
</g>
<!-- r8&#45;&gt;r8 -->
<g id="edge33" class="edge">
<title>r8:e&#45;&gt;r8:n</title>
<path fill="none" stroke="#000000" d="M1008,-831C1032.0923,-822 1080.0923,-822 1080.0923,-840 1080.0923,-856.9102 986.4853,-857.934 931.1804,-850.5338"/>
<polygon fill="#000000" stroke="#000000" points="931.4099,-847.0289 921,-849 930.3669,-853.9508 931.4099,-847.0289"/>
</g>
<!-- r9 -->
<g id="node18" class="node">
<title>r9</title>
<g id="a_node18"><a xlink:href="file:///home/travis/build/andrewdavidmackenzie/flow/flowstdlib/control/compare_switch/compare_switch.html" xlink:title="compare (#9)">
<ellipse fill="#ff7f50" stroke="#000000" cx="682" cy="-574" rx="74.9875" ry="18"/>
<text text-anchor="middle" x="682" y="-570.3" font-family="Times,serif" font-size="14.00" fill="#000000">compare (#9)</text>
</a>
</g>
</g>
<!-- r8&#45;&gt;r9 -->
<g id="edge34" class="edge">
<title>r8:e&#45;&gt;r9:n</title>
<path fill="none" stroke="#000000" d="M1008,-831C1016,-831 1012.4059,-819.6775 1008,-813 980.3115,-771.0357 904,-818.7758 904,-768.5 904,-768.5 904,-768.5 904,-650.5 904,-552.2516 698.1708,-683.5718 682.8945,-602.3617"/>
<polygon fill="#000000" stroke="#000000" points="686.3472,-601.6619 682,-592 679.3731,-602.264 686.3472,-601.6619"/>
<text text-anchor="middle" x="669.5" y="-595.8" font-family="Times,serif" font-size="14.00" fill="#000000">left</text>
</g>
<!-- initializerr0_1 -->
<!-- initializerr0_1&#45;&gt;r0 -->
<g id="edge5" class="edge">
<title>initializerr0_1&#45;&gt;r0:ne</title>
<path fill="none" stroke="#0000ff" stroke-dasharray="1,5" d="M1484.0147,-1250.726C1492.5932,-1225.2071 1503.6539,-1178.6884 1483.5307,-1148.9205"/>
<polygon fill="#0000ff" stroke="#0000ff" points="1486.0621,-1146.4889 1477,-1141 1480.6613,-1150.9421 1486.0621,-1146.4889"/>
<text text-anchor="middle" x="1499" y="-1192.3" font-family="Times,serif" font-size="14.00" fill="#000000">1</text>
</g>
<!-- r1&#45;&gt;r0 -->
<g id="edge11" class="edge">
<title>r1:se&#45;&gt;r0:ne</title>
<path fill="none" stroke="#000000" d="M1724,-946C1724,-946 1758.3454,-981 1758.3454,-981 1736.949,-1005.2303 1640.8565,-981.0098 1614,-999 1553.7707,-1039.3456 1596.3579,-1104.4657 1533.7434,-1141 1525.2346,-1145.9647 1500.8295,-1148.6142 1486.3078,-1145.2841"/>
<polygon fill="#000000" stroke="#000000" points="1487.5474,-1142.0018 1477,-1141 1484.6206,-1148.3605 1487.5474,-1142.0018"/>
<text text-anchor="middle" x="1495" y="-1144.8" font-family="Times,serif" font-size="14.00" fill="#000000">right</text>
<text text-anchor="middle" x="1741.5" y="-934.8" font-family="Times,serif" font-size="14.00" fill="#000000">/sum</text>
</g>
<!-- r1&#45;&gt;r1 -->
<g id="edge10" class="edge">
<title>r1:se&#45;&gt;r1:ne</title>
<path fill="none" stroke="#000000" d="M1724,-946C1765.1151,-937 1830.3454,-937 1830.3454,-963 1830.3454,-986.9688 1774.9092,-988.8413 1734.0353,-981.9365"/>
<polygon fill="#000000" stroke="#000000" points="1734.482,-978.4582 1724,-980 1733.1557,-985.3314 1734.482,-978.4582"/>
<text text-anchor="middle" x="1717" y="-983.8" font-family="Times,serif" font-size="14.00" fill="#000000">i2</text>
<text text-anchor="middle" x="1714.5" y="-934.8" font-family="Times,serif" font-size="14.00" fill="#000000">/i2</text>
</g>
<!-- initializerr1_1 -->
<!-- initializerr1_1&#45;&gt;r1 -->
<g id="edge9" class="edge">
<title>initializerr1_1&#45;&gt;r1:w</title>
<path fill="none" stroke="#0000ff" stroke-dasharray="1,5" d="M1687.2694,-1104.957C1660.6288,-1065.8916 1604.6758,-976.0393 1644.9095,-964.2781"/>
<polygon fill="#0000ff" stroke="#0000ff" points="1645.5191,-967.7289 1655,-963 1644.6394,-960.7844 1645.5191,-967.7289"/>
<text text-anchor="middle" x="1667" y="-1046.3" font-family="Times,serif" font-size="14.00" fill="#000000">1</text>
</g>
<!-- initializerr4_1 -->
<!-- initializerr4_1&#45;&gt;r4 -->
<g id="edge12" class="edge">
<title>initializerr4_1&#45;&gt;r4:n</title>
<path fill="none" stroke="#0000ff" stroke-dasharray="1,5" d="M1341.459,-1036.1524C1386.0482,-1023.0678 1447.5009,-1003.3541 1466.8871,-988.9651"/>
<polygon fill="#0000ff" stroke="#0000ff" points="1469.6882,-991.064 1473,-981 1464.1351,-986.8021 1469.6882,-991.064"/>
<text text-anchor="middle" x="1451.5" y="-1002.8" font-family="Times,serif" font-size="14.00" fill="#000000">[]</text>
</g>
<!-- r14&#45;&gt;r14 -->
<g id="edge39" class="edge">
<title>r14:e&#45;&gt;r14:ne</title>
<path fill="none" stroke="#000000" d="M1020,-186C1043.7434,-177 1091.7434,-177 1091.7434,-195 1091.7434,-211.8047 1022.1647,-212.9206 973.1212,-205.6713"/>
<polygon fill="#000000" stroke="#000000" points="973.4366,-202.176 963,-204 972.2962,-209.0825 973.4366,-202.176"/>
<text text-anchor="middle" x="982.5" y="-207.8" font-family="Times,serif" font-size="14.00" fill="#000000">array</text>
</g>
<!-- r3 -->
<g id="node23" class="node">
<title>r3</title>
<g id="a_node23"><a xlink:href="file:///home/travis/build/andrewdavidmackenzie/flow/flowr/src/lib/flowruntime/stdio/stdout.html" xlink:title="print (#3)">
<ellipse fill="#ff7f50" stroke="#000000" cx="1127" cy="-107" rx="57.3905" ry="18"/>
<text text-anchor="middle" x="1127" y="-103.3" font-family="Times,serif" font-size="14.00" fill="#000000">print (#3)</text>
</a>
</g>
</g>
<!-- r14&#45;&gt;r3 -->
<g id="edge40" class="edge">
<title>r14:e&#45;&gt;r3:n</title>
<path fill="none" stroke="#000000" d="M1020,-186C1071.2125,-186 1120.2531,-180.5216 1126.362,-134.9917"/>
<polygon fill="#000000" stroke="#000000" points="1129.8556,-135.2027 1127,-125 1122.8698,-134.7566 1129.8556,-135.2027"/>
</g>
<!-- r6&#45;&gt;r6 -->
<g id="edge20" class="edge">
<title>r6:s&#45;&gt;r6:n</title>
<path fill="none" stroke="#000000" d="M323,-945C371.9145,-936 469.7434,-936 469.7434,-963 469.7434,-988.2598 384.1188,-989.8878 333.0284,-982.6233"/>
<polygon fill="#000000" stroke="#000000" points="333.4308,-979.1429 323,-981 332.3122,-986.053 333.4308,-979.1429"/>
<text text-anchor="middle" x="335.5" y="-984.8" font-family="Times,serif" font-size="14.00" fill="#000000">left</text>
<text text-anchor="middle" x="298.5" y="-933.8" font-family="Times,serif" font-size="14.00" fill="#000000">/left&#45;gt</text>
</g>
<!-- r7 -->
<g id="node13" class="node">
<title>r7</title>
<g id="a_node13"><a xlink:href="file:///home/travis/build/andrewdavidmackenzie/flow/flowstdlib/math/multiply/multiply.html" xlink:title="multiply (#7)">
<ellipse fill="#ff7f50" stroke="#000000" cx="494" cy="-706" rx="72.5877" ry="18"/>
<text text-anchor="middle" x="494" y="-702.3" font-family="Times,serif" font-size="14.00" fill="#000000">multiply (#7)</text>
</a>
</g>
</g>
<!-- r6&#45;&gt;r7 -->
<g id="edge18" class="edge">
<title>r6:e&#45;&gt;r7:n</title>
<path fill="none" stroke="#000000" d="M398,-963C442.0073,-963 480,-951.5073 480,-907.5 480,-907.5 480,-907.5 480,-768.5 480,-756.5144 481.1721,-753.3579 485,-742 486.339,-738.0269 488.4002,-735.7888 490.2124,-733.6109"/>
<polygon fill="#000000" stroke="#000000" points="493.5897,-734.5869 494,-724 487.0772,-732.0203 493.5897,-734.5869"/>
<text text-anchor="middle" x="487" y="-727.8" font-family="Times,serif" font-size="14.00" fill="#000000">i1</text>
<text text-anchor="middle" x="430" y="-966.8" font-family="Times,serif" font-size="14.00" fill="#000000">/right&#45;lte</text>
</g>
<!-- r10 -->
<g id="node14" class="node">
<title>r10</title>
<g id="a_node14"><a xlink:href="file:///home/travis/build/andrewdavidmackenzie/flow/flowstdlib/math/add/add.html" xlink:title="add (#10)">
<ellipse fill="#ff7f50" stroke="#000000" cx="274" cy="-706" rx="57.3905" ry="18"/>
<text text-anchor="middle" x="274" y="-702.3" font-family="Times,serif" font-size="14.00" fill="#000000">add (#10)</text>
</a>
</g>
</g>
<!-- r6&#45;&gt;r10 -->
<g id="edge19" class="edge">
<title>r6:e&#45;&gt;r10:ne</title>
<path fill="none" stroke="#000000" d="M398,-963C406,-963 398.3192,-952.9936 398,-945 397.3328,-928.2934 395,-924.2199 395,-907.5 395,-907.5 395,-907.5 395,-768.5 395,-721.5952 335.9455,-753.4122 298.9744,-729.4517"/>
<polygon fill="#000000" stroke="#000000" points="300.9757,-726.5688 291,-723 296.5728,-732.0108 300.9757,-726.5688"/>
<text text-anchor="middle" x="284" y="-726.8" font-family="Times,serif" font-size="14.00" fill="#000000">i2</text>
<text text-anchor="middle" x="430" y="-951.8" font-family="Times,serif" font-size="14.00" fill="#000000">/right&#45;lte</text>
</g>
<!-- r5 -->
<g id="node15" class="node">
<title>r5</title>
<g id="a_node15"><a xlink:href="file:///home/travis/build/andrewdavidmackenzie/flow/flowstdlib/math/add/add.html" xlink:title="add (#5)">
<ellipse fill="#ff7f50" stroke="#000000" cx="75" cy="-706" rx="51.1914" ry="18"/>
<text text-anchor="middle" x="75" y="-702.3" font-family="Times,serif" font-size="14.00" fill="#000000">add (#5)</text>
</a>
</g>
</g>
<!-- r6&#45;&gt;r5 -->
<g id="edge21" class="edge">
<title>r6:e&#45;&gt;r5:n</title>
<path fill="none" stroke="#000000" d="M398,-963C406,-963 401.7323,-952.076 398,-945 388.6883,-927.3461 124.291,-774.1962 80.976,-732.3699"/>
<polygon fill="#000000" stroke="#000000" points="83.6593,-730.1048 75,-724 77.9623,-734.1723 83.6593,-730.1048"/>
<text text-anchor="middle" x="68" y="-727.8" font-family="Times,serif" font-size="14.00" fill="#000000">i1</text>
<text text-anchor="middle" x="370.5" y="-966.8" font-family="Times,serif" font-size="14.00" fill="#000000">/right&#45;lt</text>
</g>
<!-- initializerr6_1 -->
<!-- initializerr6_1&#45;&gt;r6 -->
<g id="edge17" class="edge">
<title>initializerr6_1&#45;&gt;r6:ne</title>
<path fill="none" stroke="#0000ff" stroke-dasharray="1,5" d="M341,-1250.6997C341,-1235.9349 341,-1214.6302 341,-1196 341,-1196 341,-1196 341,-1050 341,-1037.6615 348.0206,-1007.5219 345.1137,-990.5699"/>
<polygon fill="#0000ff" stroke="#0000ff" points="348.1647,-988.805 341,-981 341.7337,-991.5694 348.1647,-988.805"/>
<text text-anchor="middle" x="346" y="-1119.3" font-family="Times,serif" font-size="14.00" fill="#000000">2</text>
</g>
<!-- r7&#45;&gt;r9 -->
<g id="edge26" class="edge">
<title>r7:e&#45;&gt;r9:ne</title>
<path fill="none" stroke="#000000" d="M567,-706C572.8458,-706 568.2739,-685.1712 571,-680 580.0912,-662.7547 587.4337,-661.7363 603,-650 639.8177,-622.2411 720.7089,-626.501 706.2577,-599.912"/>
<polygon fill="#000000" stroke="#000000" points="708.9486,-597.6721 700,-592 703.4583,-602.0146 708.9486,-597.6721"/>
<text text-anchor="middle" x="718" y="-595.8" font-family="Times,serif" font-size="14.00" fill="#000000">right</text>
</g>
<!-- r10&#45;&gt;r10 -->
<g id="edge31" class="edge">
<title>r10:se&#45;&gt;r10:ne</title>
<path fill="none" stroke="#000000" d="M291,-689C334.065,-680 403.1949,-680 403.1949,-706 403.1949,-730.0703 343.9457,-731.8568 300.9805,-724.8482"/>
<polygon fill="#000000" stroke="#000000" points="301.4702,-721.3795 291,-723 300.1955,-728.2625 301.4702,-721.3795"/>
<text text-anchor="middle" x="298" y="-726.8" font-family="Times,serif" font-size="14.00" fill="#000000">i2</text>
<text text-anchor="middle" x="281.5" y="-677.8" font-family="Times,serif" font-size="14.00" fill="#000000">/i2</text>
</g>
<!-- r10&#45;&gt;r9 -->
<g id="edge32" class="edge">
<title>r10:se&#45;&gt;r9:ne</title>
<path fill="none" stroke="#000000" d="M291,-689C320.7358,-659.2642 655.2754,-631.2117 697.52,-601.8112"/>
<polygon fill="#000000" stroke="#000000" points="700.9426,-602.5528 700,-592 694.156,-600.8373 700.9426,-602.5528"/>
<text text-anchor="middle" x="682" y="-595.8" font-family="Times,serif" font-size="14.00" fill="#000000">right</text>
<text text-anchor="middle" x="308.5" y="-677.8" font-family="Times,serif" font-size="14.00" fill="#000000">/sum</text>
</g>
<!-- r5&#45;&gt;r6 -->
<g id="edge24" class="edge">
<title>r5:se&#45;&gt;r6:ne</title>
<path fill="none" stroke="#000000" d="M92,-689C102.7937,-678.2063 111.7323,-684.588 126.3454,-689 130.1656,-690.1534 246,-764.5095 246,-768.5 246,-907.5 246,-907.5 246,-907.5 246,-942.2352 376.3299,-917.6505 397.7434,-945 397.7434,-945 365.8252,-965.25 349.8662,-975.375"/>
<polygon fill="#000000" stroke="#000000" points="347.569,-972.6874 341,-981 351.319,-978.5982 347.569,-972.6874"/>
<text text-anchor="middle" x="359" y="-984.8" font-family="Times,serif" font-size="14.00" fill="#000000">right</text>
<text text-anchor="middle" x="74.5" y="-677.8" font-family="Times,serif" font-size="14.00" fill="#000000">/sum</text>
</g>
<!-- r5&#45;&gt;r5 -->
<g id="edge23" class="edge">
<title>r5:se&#45;&gt;r5:ne</title>
<path fill="none" stroke="#000000" d="M92,-689C133.1151,-680 198.3454,-680 198.3454,-706 198.3454,-729.9688 142.9092,-731.8413 102.0353,-724.9365"/>
<polygon fill="#000000" stroke="#000000" points="102.482,-721.4582 92,-723 101.1557,-728.3314 102.482,-721.4582"/>
<text text-anchor="middle" x="85" y="-726.8" font-family="Times,serif" font-size="14.00" fill="#000000">i2</text>
<text text-anchor="middle" x="101.5" y="-677.8" font-family="Times,serif" font-size="14.00" fill="#000000">/i2</text>
</g>
<!-- initializerr5_1 -->
<!-- initializerr5_1&#45;&gt;r5 -->
<g id="edge22" class="edge">
<title>initializerr5_1&#45;&gt;r5:w</title>
<path fill="none" stroke="#0000ff" stroke-dasharray="1,5" d="M98.5,-944.5135C97.75,-933.7263 97,-919.8513 97,-907.5 97,-907.5 97,-907.5 97,-768.5 97,-730.1224 41.892,-757.4056 23,-724 21.5232,-721.3887 20.029,-718.2046 19.16,-715.2445"/>
<polygon fill="#0000ff" stroke="#0000ff" points="22.3962,-716.5776 23,-706 15.9317,-713.8924 22.3962,-716.5776"/>
<text text-anchor="middle" x="102" y="-827.3" font-family="Times,serif" font-size="14.00" fill="#000000">1</text>
</g>
<!-- initializerr7_1 -->
<!-- initializerr7_1&#45;&gt;r7 -->
<g id="edge25" class="edge">
<title>initializerr7_1&#45;&gt;r7:w</title>
<path fill="none" stroke="#0000ff" d="M640.3742,-814.0795C608.0732,-794.2285 551.4191,-761.5505 499,-742 465.6653,-729.5673 443.149,-751.8424 421,-724 419.0545,-721.5544 417.4083,-718.2729 416.6011,-715.1816"/>
<polygon fill="#0000ff" stroke="#0000ff" points="419.8357,-716.5307 421,-706 413.5228,-713.5062 419.8357,-716.5307"/>
<text text-anchor="middle" x="578" y="-764.8" font-family="Times,serif" font-size="14.00" fill="#000000">2</text>
</g>
<!-- r9&#45;&gt;r14 -->
<g id="edge27" class="edge">
<title>r9:e&#45;&gt;r14:n</title>
<path fill="none" stroke="#000000" d="M757,-574C805.5163,-574 851,-567.0163 851,-518.5 851,-518.5 851,-518.5 851,-248.5 851,-206.2495 929.538,-242.6776 943.0367,-213.95"/>
<polygon fill="#000000" stroke="#000000" points="946.4978,-214.4884 945,-204 939.6303,-213.1333 946.4978,-214.4884"/>
<text text-anchor="middle" x="925.5" y="-207.8" font-family="Times,serif" font-size="14.00" fill="#000000">value</text>
<text text-anchor="middle" x="789" y="-577.8" font-family="Times,serif" font-size="14.00" fill="#000000">/right&#45;lte</text>
</g>
<!-- r9&#45;&gt;r10 -->
<g id="edge29" class="edge">
<title>r9:e&#45;&gt;r10:n</title>
<path fill="none" stroke="#000000" d="M757,-574C765,-574 761.3864,-585.3098 757,-592 732.5531,-629.2867 707.7253,-619.2524 665,-632 663.1095,-632.564 386.7952,-679.1818 385,-680 356.8905,-692.8111 360.2894,-713.6184 331.1949,-724 322.4039,-727.1368 295.6791,-732.521 282.1018,-730.1262"/>
<polygon fill="#000000" stroke="#000000" points="284.0874,-727.2397 274,-724 279.8654,-732.8231 284.0874,-727.2397"/>
<text text-anchor="middle" x="267" y="-727.8" font-family="Times,serif" font-size="14.00" fill="#000000">i1</text>
<text text-anchor="middle" x="784.5" y="-562.8" font-family="Times,serif" font-size="14.00" fill="#000000">/right&#45;lt</text>
</g>
<!-- r9&#45;&gt;r9 -->
<g id="edge28" class="edge">
<title>r9:s&#45;&gt;r9:n</title>
<path fill="none" stroke="#000000" d="M682,-556C730.9145,-547 828.7434,-547 828.7434,-574 828.7434,-599.2598 743.1188,-600.8878 692.0284,-593.6233"/>
<polygon fill="#000000" stroke="#000000" points="692.4308,-590.1429 682,-592 691.3122,-597.053 692.4308,-590.1429"/>
<text text-anchor="middle" x="669.5" y="-580.8" font-family="Times,serif" font-size="14.00" fill="#000000">left</text>
<text text-anchor="middle" x="657.5" y="-544.8" font-family="Times,serif" font-size="14.00" fill="#000000">/left&#45;gt</text>
</g>
<!-- r11 -->
<g id="node19" class="node">
<title>r11</title>
<g id="a_node19"><a xlink:href="file:///home/travis/build/andrewdavidmackenzie/flow/flowstdlib/control/join/join.html" xlink:title="join (#11)">
<ellipse fill="#ff7f50" stroke="#000000" cx="656" cy="-186" rx="57.3905" ry="18"/>
<text text-anchor="middle" x="656" y="-182.3" font-family="Times,serif" font-size="14.00" fill="#000000">join (#11)</text>
</a>
</g>
</g>
<!-- r9&#45;&gt;r11 -->
<g id="edge30" class="edge">
<title>r9:sw&#45;&gt;r11:ne</title>
<path fill="none" stroke="#000000" d="M664,-556C652.1106,-544.1106 669,-535.3142 669,-518.5 669,-518.5 669,-518.5 669,-248.5 669,-232.4819 680.4278,-222.3505 678.1968,-211.7369"/>
<polygon fill="#000000" stroke="#000000" points="681.1203,-209.8053 673,-203 675.1041,-213.3838 681.1203,-209.8053"/>
<text text-anchor="middle" x="699" y="-206.8" font-family="Times,serif" font-size="14.00" fill="#000000">control</text>
<text text-anchor="middle" x="698" y="-544.8" font-family="Times,serif" font-size="14.00" fill="#000000">/right&#45;gte</text>
</g>
<!-- r12 -->
<g id="node21" class="node">
<title>r12</title>
<g id="a_node21"><a xlink:href="file:///home/travis/build/andrewdavidmackenzie/flow/flowstdlib/math/add/add.html" xlink:title="subsequence&#45;count (#12)">
<ellipse fill="#ff7f50" stroke="#000000" cx="560" cy="-34" rx="129.9769" ry="18"/>
<text text-anchor="middle" x="560" y="-30.3" font-family="Times,serif" font-size="14.00" fill="#000000">subsequence&#45;count (#12)</text>
</a>
</g>
</g>
<!-- r11&#45;&gt;r12 -->
<g id="edge36" class="edge">
<title>r11:e&#45;&gt;r12:ne</title>
<path fill="none" stroke="#000000" d="M713,-186C721,-186 716.3384,-175.2701 713,-168 681.4712,-99.3392 638.0484,-107.0437 585.4783,-59.1419"/>
<polygon fill="#000000" stroke="#000000" points="587.6492,-56.3754 578,-52 582.8146,-61.4377 587.6492,-56.3754"/>
<text text-anchor="middle" x="571" y="-55.8" font-family="Times,serif" font-size="14.00" fill="#000000">i2</text>
</g>
<!-- initializerr11_0 -->
<!-- initializerr11_0&#45;&gt;r11 -->
<g id="edge35" class="edge">
<title>initializerr11_0&#45;&gt;r11:nw</title>
<path fill="none" stroke="#0000ff" d="M520.7251,-294.0626C549.5403,-275.7357 595.3841,-244.5147 631.4598,-210.3349"/>
<polygon fill="#0000ff" stroke="#0000ff" points="634.2725,-212.4816 639,-203 629.3915,-207.464 634.2725,-212.4816"/>
<text text-anchor="middle" x="601" y="-244.8" font-family="Times,serif" font-size="14.00" fill="#000000">1</text>
</g>
<!-- r12&#45;&gt;r12 -->
<g id="edge38" class="edge">
<title>r12:se&#45;&gt;r12:n</title>
<path fill="none" stroke="#000000" d="M578,-16C645.3295,-7 761.9885,-7 761.9885,-34 761.9885,-59.6816 640.1587,-60.9356 570.3208,-53.2519"/>
<polygon fill="#000000" stroke="#000000" points="570.3487,-49.7297 560,-52 569.5058,-56.6788 570.3487,-49.7297"/>
<text text-anchor="middle" x="553" y="-55.8" font-family="Times,serif" font-size="14.00" fill="#000000">i1</text>
<text text-anchor="middle" x="560.5" y="-4.8" font-family="Times,serif" font-size="14.00" fill="#000000">/sum</text>
</g>
<!-- initializerr12_0 -->
<!-- initializerr12_0&#45;&gt;r12 -->
<g id="edge37" class="edge">
<title>initializerr12_0&#45;&gt;r12:ne</title>
<path fill="none" stroke="#0000ff" stroke-dasharray="1,5" d="M470.6496,-168.7515C509.9835,-141.4553 580.7834,-88.6133 581.608,-61.3743"/>
<polygon fill="#0000ff" stroke="#0000ff" points="584.8584,-60.0754 578,-52 578.3256,-62.5898 584.8584,-60.0754"/>
<text text-anchor="middle" x="571" y="-103.3" font-family="Times,serif" font-size="14.00" fill="#000000">1</text>
</g>
</g>
</svg>
