<?xml version="1.0" encoding="UTF-8" standalone="no"?>
<!DOCTYPE svg PUBLIC "-//W3C//DTD SVG 1.1//EN"
 "http://www.w3.org/Graphics/SVG/1.1/DTD/svg11.dtd">
<!-- Generated by graphviz version 2.40.1 (0)
 -->
<!-- Title: prime Pages: 1 -->
<svg width="1953pt" height="1402pt"
 viewBox="0.00 0.00 1953.35 1402.00" xmlns="http://www.w3.org/2000/svg" xmlns:xlink="http://www.w3.org/1999/xlink">
<g id="graph0" class="graph" transform="scale(1 1) rotate(0) translate(4 1398)">
<title>prime</title>
<polygon fill="#ffffff" stroke="transparent" points="-4,4 -4,-1398 1949.3454,-1398 1949.3454,4 -4,4"/>
<text text-anchor="middle" x="972.6727" y="-1378.8" font-family="Times,serif" font-size="14.00" fill="#000000">/prime</text>
<g id="clust1" class="cluster">
<title>cluster_candidates</title>
<polygon fill="none" stroke="#000000" points="1495,-951 1495,-1332 1899,-1332 1899,-951 1495,-951"/>
<text text-anchor="middle" x="1697" y="-1316.8" font-family="Times,serif" font-size="14.00" fill="#000000">/prime/candidates</text>
</g>
<g id="clust2" class="cluster">
<title>cluster_composites</title>
<polygon fill="none" stroke="#000000" points="8,-8 8,-1363 1183,-1363 1183,-8 8,-8"/>
<text text-anchor="middle" x="595.5" y="-1347.8" font-family="Times,serif" font-size="14.00" fill="#000000">/prime/composites</text>
</g>
<g id="clust3" class="cluster">
<title>cluster_divisors</title>
<polygon fill="none" stroke="#000000" points="16,-694 16,-1332 575,-1332 575,-694 16,-694"/>
<text text-anchor="middle" x="295.5" y="-1316.8" font-family="Times,serif" font-size="14.00" fill="#000000">/prime/composites/divisors</text>
</g>
<g id="clust4" class="cluster">
<title>cluster_generate_composites</title>
<polygon fill="none" stroke="#000000" points="583,-131 583,-894 1175,-894 1175,-131 583,-131"/>
<text text-anchor="middle" x="879" y="-878.8" font-family="Times,serif" font-size="14.00" fill="#000000">/prime/composites/generate_composites</text>
</g>
<g id="clust5" class="cluster">
<title>cluster_composite_sequence</title>
<polygon fill="none" stroke="#000000" points="591,-139 591,-637 1167,-637 1167,-139 591,-139"/>
<text text-anchor="middle" x="879" y="-621.8" font-family="Times,serif" font-size="14.00" fill="#000000">/prime/composites/generate_composites/composite&#45;sequence</text>
</g>
<!-- r0 -->
<g id="node1" class="node">
<title>r0</title>
<g id="a_node1"><a xlink:href="file:///home/andrew/workspace/flow/flowruntime/args/get.toml" xlink:title="args (#0)">
<ellipse fill="#ff7f50" stroke="#000000" cx="1292" cy="-1283" rx="54.6905" ry="18"/>
<text text-anchor="middle" x="1292" y="-1279.3" font-family="Times,serif" font-size="14.00" fill="#000000">args (#0)</text>
</a>
</g>
</g>
<!-- r1 -->
<g id="node2" class="node">
<title>r1</title>
<g id="a_node2"><a xlink:href="file:///home/andrew/workspace/flow/flowstdlib/fmt/to_number/to_number.toml" xlink:title="to_number (#1)">
<ellipse fill="#ff7f50" stroke="#000000" cx="1275" cy="-1210" rx="83.6854" ry="18"/>
<text text-anchor="middle" x="1275" y="-1206.3" font-family="Times,serif" font-size="14.00" fill="#000000">to_number (#1)</text>
</a>
</g>
</g>
<!-- r0&#45;&gt;r1 -->
<g id="edge1" class="edge">
<title>r0:sw&#45;&gt;r1:n</title>
<path fill="none" stroke="#000000" d="M1275,-1266C1265.6701,-1256.6701 1270.9182,-1249.033 1273.6607,-1238.0849"/>
<polygon fill="#000000" stroke="#000000" points="1277.1529,-1238.3738 1275,-1228 1270.2139,-1237.4522 1277.1529,-1238.3738"/>
<text text-anchor="middle" x="1268" y="-1254.8" font-family="Times,serif" font-size="14.00" fill="#000000">/1</text>
</g>
<!-- r2 -->
<g id="node3" class="node">
<title>r2</title>
<g id="a_node3"><a xlink:href="file:///home/andrew/workspace/flow/flowstdlib/control/compare_switch/compare_switch.toml" xlink:title="compare (#2)">
<ellipse fill="#ff7f50" stroke="#000000" cx="1577" cy="-1137" rx="74.187" ry="18"/>
<text text-anchor="middle" x="1577" y="-1133.3" font-family="Times,serif" font-size="14.00" fill="#000000">compare (#2)</text>
</a>
</g>
</g>
<!-- r1&#45;&gt;r2 -->
<g id="edge2" class="edge">
<title>r1:e&#45;&gt;r2:n</title>
<path fill="none" stroke="#000000" d="M1359,-1210C1381.3465,-1210 1538.1543,-1185.9794 1570.9824,-1163.0312"/>
<polygon fill="#000000" stroke="#000000" points="1573.8046,-1165.1015 1577,-1155 1568.2027,-1160.904 1573.8046,-1165.1015"/>
<text text-anchor="middle" x="1564.5" y="-1158.8" font-family="Times,serif" font-size="14.00" fill="#000000">left</text>
</g>
<!-- r4 -->
<g id="node4" class="node">
<title>r4</title>
<g id="a_node4"><a xlink:href="file:///home/andrew/workspace/flow/flowstdlib/data/accumulate/accumulate.toml" xlink:title="all&#45;numbers (#4)">
<ellipse fill="#ff7f50" stroke="#000000" cx="1592" cy="-977" rx="89.0842" ry="18"/>
<text text-anchor="middle" x="1592" y="-973.3" font-family="Times,serif" font-size="14.00" fill="#000000">all&#45;numbers (#4)</text>
</a>
</g>
</g>
<!-- r1&#45;&gt;r4 -->
<g id="edge3" class="edge">
<title>r1:e&#45;&gt;r4:nw</title>
<path fill="none" stroke="#000000" d="M1359,-1210C1436.3129,-1210 1251.6055,-1105.4766 1301,-1046 1319.1362,-1024.1619 1516.4673,-1017.8087 1564.9414,-999.9446"/>
<polygon fill="#000000" stroke="#000000" points="1566.8994,-1002.8634 1574,-995 1563.5456,-996.7191 1566.8994,-1002.8634"/>
<text text-anchor="middle" x="1535" y="-998.8" font-family="Times,serif" font-size="14.00" fill="#000000">chunk_size</text>
</g>
<!-- r5 -->
<g id="node5" class="node">
<title>r5</title>
<g id="a_node5"><a xlink:href="file:///home/andrew/workspace/flow/flowstdlib/math/sqrt/sqrt.toml" xlink:title="sqrt (#5)">
<ellipse fill="#ff7f50" stroke="#000000" cx="767" cy="-1137" rx="53.0913" ry="18"/>
<text text-anchor="middle" x="767" y="-1133.3" font-family="Times,serif" font-size="14.00" fill="#000000">sqrt (#5)</text>
</a>
</g>
</g>
<!-- r1&#45;&gt;r5 -->
<g id="edge4" class="edge">
<title>r1:e&#45;&gt;r5:n</title>
<path fill="none" stroke="#000000" d="M1359,-1210C1367,-1210 1364.5071,-1197.8028 1359,-1192 1345.8262,-1178.1189 1034.0976,-1175.231 1015,-1174 963.5047,-1170.6806 792.0047,-1205.1743 769.4544,-1164.7938"/>
<polygon fill="#000000" stroke="#000000" points="772.826,-1163.8492 767,-1155 766.036,-1165.5509 772.826,-1163.8492"/>
</g>
<!-- r11 -->
<g id="node6" class="node">
<title>r11</title>
<g id="a_node6"><a xlink:href="file:///home/andrew/workspace/flow/flowstdlib/data/buffer/buffer.toml" xlink:title="limit&#45;buffer (#11)">
<ellipse fill="#ff7f50" stroke="#000000" cx="982" cy="-845" rx="92.0841" ry="18"/>
<text text-anchor="middle" x="982" y="-841.3" font-family="Times,serif" font-size="14.00" fill="#000000">limit&#45;buffer (#11)</text>
</a>
</g>
</g>
<!-- r1&#45;&gt;r11 -->
<g id="edge5" class="edge">
<title>r1:e&#45;&gt;r11:n</title>
<path fill="none" stroke="#000000" d="M1359,-1210C1367,-1210 1364.1007,-1198.163 1359,-1192 1275.6351,-1091.2736 1070,-1267.7498 1070,-1137 1070,-1137 1070,-1137 1070,-921.5 1070,-878.3879 995.8453,-904.7065 983.6793,-872.9854"/>
<polygon fill="#000000" stroke="#000000" points="987.1101,-872.281 982,-863 980.2071,-873.442 987.1101,-872.281"/>
</g>
<!-- r2&#45;&gt;r2 -->
<g id="edge8" class="edge">
<title>r2:s&#45;&gt;r2:n</title>
<path fill="none" stroke="#000000" d="M1577,-1119C1625.6978,-1110 1723.0934,-1110 1723.0934,-1137 1723.0934,-1162.2598 1637.8481,-1163.8878 1586.984,-1156.6233"/>
<polygon fill="#000000" stroke="#000000" points="1587.4321,-1153.1502 1577,-1155 1586.3087,-1160.0595 1587.4321,-1153.1502"/>
<text text-anchor="middle" x="1589.5" y="-1158.8" font-family="Times,serif" font-size="14.00" fill="#000000">left</text>
<text text-anchor="middle" x="1552.5" y="-1107.8" font-family="Times,serif" font-size="14.00" fill="#000000">/left&#45;gt</text>
</g>
<!-- r2&#45;&gt;r4 -->
<g id="edge7" class="edge">
<title>r2:e&#45;&gt;r4:n</title>
<path fill="none" stroke="#000000" d="M1651,-1137C1659,-1137 1652.7619,-1126.8036 1651,-1119 1644.962,-1092.2567 1602.1493,-1038.1082 1593.5153,-1005.2548"/>
<polygon fill="#000000" stroke="#000000" points="1596.9242,-1004.3809 1592,-995 1589.9994,-1005.4042 1596.9242,-1004.3809"/>
<text text-anchor="middle" x="1615" y="-998.8" font-family="Times,serif" font-size="14.00" fill="#000000">values</text>
<text text-anchor="middle" x="1683" y="-1140.8" font-family="Times,serif" font-size="14.00" fill="#000000">/right&#45;lte</text>
</g>
<!-- r3 -->
<g id="node8" class="node">
<title>r3</title>
<g id="a_node8"><a xlink:href="file:///home/andrew/workspace/flow/flowstdlib/math/add/add.toml" xlink:title="add (#3)">
<ellipse fill="#ff7f50" stroke="#000000" cx="1822" cy="-977" rx="51.1914" ry="18"/>
<text text-anchor="middle" x="1822" y="-973.3" font-family="Times,serif" font-size="14.00" fill="#000000">add (#3)</text>
</a>
</g>
</g>
<!-- r2&#45;&gt;r3 -->
<g id="edge9" class="edge">
<title>r2:e&#45;&gt;r3:n</title>
<path fill="none" stroke="#000000" d="M1651,-1137C1653.2843,-1137 1804.5182,-1083.7385 1806,-1082 1829.2116,-1054.767 1823.425,-1037.6052 1822.1978,-1005.0992"/>
<polygon fill="#000000" stroke="#000000" points="1825.6953,-1004.9295 1822,-995 1818.6966,-1005.0667 1825.6953,-1004.9295"/>
<text text-anchor="middle" x="1815" y="-998.8" font-family="Times,serif" font-size="14.00" fill="#000000">i1</text>
<text text-anchor="middle" x="1678.5" y="-1125.8" font-family="Times,serif" font-size="14.00" fill="#000000">/right&#45;lt</text>
</g>
<!-- r4&#45;&gt;r4 -->
<g id="edge14" class="edge">
<title>r4:s&#45;&gt;r4:nw</title>
<path fill="none" stroke="#000000" d="M1592,-959C1538.3193,-950 1430.9579,-950 1430.9579,-977 1430.9579,-1002.3652 1509.8258,-1003.901 1563.8848,-996.5318"/>
<polygon fill="#000000" stroke="#000000" points="1564.6368,-999.9579 1574,-995 1563.5887,-993.0368 1564.6368,-999.9579"/>
<text text-anchor="middle" x="1613" y="-998.8" font-family="Times,serif" font-size="14.00" fill="#000000">chunk_size</text>
<text text-anchor="middle" x="1551" y="-947.8" font-family="Times,serif" font-size="14.00" fill="#000000">/chunk_size</text>
</g>
<!-- r4&#45;&gt;r4 -->
<g id="edge15" class="edge">
<title>r4:e&#45;&gt;r4:ne</title>
<path fill="none" stroke="#000000" d="M1681,-977C1705.0421,-968 1753.0421,-968 1753.0421,-986 1753.0421,-1002.9102 1674.1742,-1003.934 1620.1152,-996.5338"/>
<polygon fill="#000000" stroke="#000000" points="1620.4117,-993.0388 1610,-995 1619.3622,-999.9597 1620.4117,-993.0388"/>
<text text-anchor="middle" x="1586" y="-983.8" font-family="Times,serif" font-size="14.00" fill="#000000">partial</text>
<text text-anchor="middle" x="1707" y="-980.8" font-family="Times,serif" font-size="14.00" fill="#000000">/partial</text>
</g>
<!-- r14 -->
<g id="node11" class="node">
<title>r14</title>
<g id="a_node11"><a xlink:href="file:///home/andrew/workspace/flow/flowstdlib/data/remove/remove.toml" xlink:title="subtract (#14)">
<ellipse fill="#ff7f50" stroke="#000000" cx="1062" cy="-165" rx="79.0865" ry="18"/>
<text text-anchor="middle" x="1062" y="-161.3" font-family="Times,serif" font-size="14.00" fill="#000000">subtract (#14)</text>
</a>
</g>
</g>
<!-- r4&#45;&gt;r14 -->
<g id="edge16" class="edge">
<title>r4:s&#45;&gt;r14:ne</title>
<path fill="none" stroke="#000000" d="M1592,-959C1592,-925.6482 1527,-954.8518 1527,-921.5 1527,-921.5 1527,-921.5 1527,-252 1527,-204.3953 1157.788,-216.9512 1088.6426,-188.2028"/>
<polygon fill="#000000" stroke="#000000" points="1090.3725,-185.159 1080,-183 1086.7623,-191.1561 1090.3725,-185.159"/>
<text text-anchor="middle" x="1060.5" y="-186.8" font-family="Times,serif" font-size="14.00" fill="#000000">array</text>
<text text-anchor="middle" x="1616" y="-947.8" font-family="Times,serif" font-size="14.00" fill="#000000">/chunk</text>
</g>
<!-- r6 -->
<g id="node12" class="node">
<title>r6</title>
<g id="a_node12"><a xlink:href="file:///home/andrew/workspace/flow/flowstdlib/control/compare_switch/compare_switch.toml" xlink:title="compare (#6)">
<ellipse fill="#ff7f50" stroke="#000000" cx="320" cy="-977" rx="74.187" ry="18"/>
<text text-anchor="middle" x="320" y="-973.3" font-family="Times,serif" font-size="14.00" fill="#000000">compare (#6)</text>
</a>
</g>
</g>
<!-- r5&#45;&gt;r6 -->
<g id="edge17" class="edge">
<title>r5:e&#45;&gt;r6:n</title>
<path fill="none" stroke="#000000" d="M821,-1137C829,-1137 825.9307,-1125.2999 821,-1119 804.6393,-1098.0962 389.1789,-1034.1952 327.5991,-1002.0741"/>
<polygon fill="#000000" stroke="#000000" points="329.7042,-999.2519 320,-995 324.9347,-1004.3755 329.7042,-999.2519"/>
<text text-anchor="middle" x="307.5" y="-998.8" font-family="Times,serif" font-size="14.00" fill="#000000">left</text>
</g>
<!-- r11&#45;&gt;r11 -->
<g id="edge35" class="edge">
<title>r11:e&#45;&gt;r11:n</title>
<path fill="none" stroke="#000000" d="M1075,-845C1098.2918,-836 1146.2918,-836 1146.2918,-854 1146.2918,-870.9453 1049.2232,-871.9382 992.1575,-864.4875"/>
<polygon fill="#000000" stroke="#000000" points="992.4016,-860.986 982,-863 991.3873,-867.9122 992.4016,-860.986"/>
</g>
<!-- r9 -->
<g id="node19" class="node">
<title>r9</title>
<g id="a_node19"><a xlink:href="file:///home/andrew/workspace/flow/flowstdlib/control/compare_switch/compare_switch.toml" xlink:title="compare (#9)">
<ellipse fill="#ff7f50" stroke="#000000" cx="691" cy="-588" rx="74.187" ry="18"/>
<text text-anchor="middle" x="691" y="-584.3" font-family="Times,serif" font-size="14.00" fill="#000000">compare (#9)</text>
</a>
</g>
</g>
<!-- r11&#45;&gt;r9 -->
<g id="edge36" class="edge">
<title>r11:e&#45;&gt;r9:n</title>
<path fill="none" stroke="#000000" d="M1075,-845C1083,-845 1080.2793,-833.0107 1075,-827 1024.4238,-769.4167 733,-859.1407 733,-782.5 733,-782.5 733,-782.5 733,-664.5 733,-636.3689 700.556,-637.2217 692.6985,-616.1102"/>
<polygon fill="#000000" stroke="#000000" points="696.1085,-615.2819 691,-606 689.2052,-616.4417 696.1085,-615.2819"/>
<text text-anchor="middle" x="678.5" y="-609.8" font-family="Times,serif" font-size="14.00" fill="#000000">left</text>
</g>
<!-- initializerr2_1 -->
<!-- initializerr2_1&#45;&gt;r2 -->
<g id="edge6" class="edge">
<title>initializerr2_1&#45;&gt;r2:ne</title>
<path fill="none" stroke="#0000ff" stroke-dasharray="1,5" d="M1602.0147,-1264.726C1610.5932,-1239.2071 1621.6539,-1192.6884 1601.5307,-1162.9205"/>
<polygon fill="#0000ff" stroke="#0000ff" points="1604.0621,-1160.4889 1595,-1155 1598.6613,-1164.9421 1604.0621,-1160.4889"/>
<text text-anchor="middle" x="1617" y="-1206.3" font-family="Times,serif" font-size="14.00" fill="#000000">1</text>
</g>
<!-- r3&#45;&gt;r2 -->
<g id="edge12" class="edge">
<title>r3:se&#45;&gt;r2:ne</title>
<path fill="none" stroke="#000000" d="M1839,-960C1839,-960 1873.3454,-995 1873.3454,-995 1851.949,-1019.2303 1755.7423,-994.8405 1729,-1013 1669.4471,-1053.4397 1713.0386,-1118.3298 1651.0934,-1155 1642.7133,-1159.9609 1618.5702,-1162.5502 1604.2056,-1159.2426"/>
<polygon fill="#000000" stroke="#000000" points="1605.5469,-1156.007 1595,-1155 1602.6169,-1162.3643 1605.5469,-1156.007"/>
<text text-anchor="middle" x="1613" y="-1158.8" font-family="Times,serif" font-size="14.00" fill="#000000">right</text>
<text text-anchor="middle" x="1856.5" y="-948.8" font-family="Times,serif" font-size="14.00" fill="#000000">/sum</text>
</g>
<!-- r3&#45;&gt;r3 -->
<g id="edge11" class="edge">
<title>r3:se&#45;&gt;r3:ne</title>
<path fill="none" stroke="#000000" d="M1839,-960C1880.1151,-951 1945.3454,-951 1945.3454,-977 1945.3454,-1000.9688 1889.9092,-1002.8413 1849.0353,-995.9365"/>
<polygon fill="#000000" stroke="#000000" points="1849.482,-992.4582 1839,-994 1848.1557,-999.3314 1849.482,-992.4582"/>
<text text-anchor="middle" x="1832" y="-997.8" font-family="Times,serif" font-size="14.00" fill="#000000">i2</text>
<text text-anchor="middle" x="1829.5" y="-948.8" font-family="Times,serif" font-size="14.00" fill="#000000">/i2</text>
</g>
<!-- initializerr3_1 -->
<!-- initializerr3_1&#45;&gt;r3 -->
<g id="edge10" class="edge">
<title>initializerr3_1&#45;&gt;r3:w</title>
<path fill="none" stroke="#0000ff" stroke-dasharray="1,5" d="M1803.144,-1118.957C1776.2335,-1079.8916 1719.6684,-990.0393 1759.9002,-978.2781"/>
<polygon fill="#0000ff" stroke="#0000ff" points="1760.5185,-981.7278 1770,-977 1759.6397,-974.7832 1760.5185,-981.7278"/>
<text text-anchor="middle" x="1783" y="-1060.3" font-family="Times,serif" font-size="14.00" fill="#000000">1</text>
</g>
<!-- initializerr4_1 -->
<!-- initializerr4_1&#45;&gt;r4 -->
<g id="edge13" class="edge">
<title>initializerr4_1&#45;&gt;r4:n</title>
<path fill="none" stroke="#0000ff" stroke-dasharray="1,5" d="M1461.1858,-1050.1283C1505.3204,-1037.0863 1566.0683,-1017.4783 1585.6466,-1003.1405"/>
<polygon fill="#0000ff" stroke="#0000ff" points="1588.6064,-1005.0367 1592,-995 1583.0882,-1000.7298 1588.6064,-1005.0367"/>
<text text-anchor="middle" x="1570.5" y="-1016.8" font-family="Times,serif" font-size="14.00" fill="#000000">[]</text>
</g>
<!-- r14&#45;&gt;r14 -->
<g id="edge42" class="edge">
<title>r14:e&#45;&gt;r14:ne</title>
<path fill="none" stroke="#000000" d="M1142,-165C1165.293,-154.5 1213.293,-154.5 1213.293,-174 1213.293,-192.2432 1140.7682,-193.419 1090.1246,-184.897"/>
<polygon fill="#000000" stroke="#000000" points="1090.4736,-181.4016 1080,-183 1089.1844,-188.2818 1090.4736,-181.4016"/>
<text text-anchor="middle" x="1099.5" y="-186.8" font-family="Times,serif" font-size="14.00" fill="#000000">array</text>
</g>
<!-- r6&#45;&gt;r6 -->
<g id="edge21" class="edge">
<title>r6:s&#45;&gt;r6:n</title>
<path fill="none" stroke="#000000" d="M320,-959C368.6978,-950 466.0934,-950 466.0934,-977 466.0934,-1002.2598 380.8481,-1003.8878 329.984,-996.6233"/>
<polygon fill="#000000" stroke="#000000" points="330.4321,-993.1502 320,-995 329.3087,-1000.0595 330.4321,-993.1502"/>
<text text-anchor="middle" x="332.5" y="-998.8" font-family="Times,serif" font-size="14.00" fill="#000000">left</text>
<text text-anchor="middle" x="295.5" y="-947.8" font-family="Times,serif" font-size="14.00" fill="#000000">/left&#45;gt</text>
</g>
<!-- r8 -->
<g id="node14" class="node">
<title>r8</title>
<g id="a_node14"><a xlink:href="file:///home/andrew/workspace/flow/flowstdlib/math/multiply/multiply.toml" xlink:title="multiply (#8)">
<ellipse fill="#ff7f50" stroke="#000000" cx="494" cy="-720" rx="72.5877" ry="18"/>
<text text-anchor="middle" x="494" y="-716.3" font-family="Times,serif" font-size="14.00" fill="#000000">multiply (#8)</text>
</a>
</g>
</g>
<!-- r6&#45;&gt;r8 -->
<g id="edge19" class="edge">
<title>r6:e&#45;&gt;r8:n</title>
<path fill="none" stroke="#000000" d="M394,-977C442.8995,-977 489,-970.3995 489,-921.5 489,-921.5 489,-921.5 489,-782.5 489,-766.4849 492.2376,-760.3165 493.5023,-748.1478"/>
<polygon fill="#000000" stroke="#000000" points="497.0058,-748.1595 494,-738 490.0142,-747.8165 497.0058,-748.1595"/>
<text text-anchor="middle" x="487" y="-741.8" font-family="Times,serif" font-size="14.00" fill="#000000">i1</text>
<text text-anchor="middle" x="426" y="-980.8" font-family="Times,serif" font-size="14.00" fill="#000000">/right&#45;lte</text>
</g>
<!-- r10 -->
<g id="node15" class="node">
<title>r10</title>
<g id="a_node15"><a xlink:href="file:///home/andrew/workspace/flow/flowstdlib/math/add/add.toml" xlink:title="add (#10)">
<ellipse fill="#ff7f50" stroke="#000000" cx="274" cy="-720" rx="57.3905" ry="18"/>
<text text-anchor="middle" x="274" y="-716.3" font-family="Times,serif" font-size="14.00" fill="#000000">add (#10)</text>
</a>
</g>
</g>
<!-- r6&#45;&gt;r10 -->
<g id="edge20" class="edge">
<title>r6:e&#45;&gt;r10:ne</title>
<path fill="none" stroke="#000000" d="M394,-977C418.6667,-977 394,-946.1667 394,-921.5 394,-921.5 394,-921.5 394,-782.5 394,-735.9734 335.5612,-767.2167 298.9078,-743.4049"/>
<polygon fill="#000000" stroke="#000000" points="300.9738,-740.5742 291,-737 296.568,-746.0138 300.9738,-740.5742"/>
<text text-anchor="middle" x="284" y="-740.8" font-family="Times,serif" font-size="14.00" fill="#000000">i2</text>
<text text-anchor="middle" x="426" y="-965.8" font-family="Times,serif" font-size="14.00" fill="#000000">/right&#45;lte</text>
</g>
<!-- r7 -->
<g id="node16" class="node">
<title>r7</title>
<g id="a_node16"><a xlink:href="file:///home/andrew/workspace/flow/flowstdlib/math/add/add.toml" xlink:title="add (#7)">
<ellipse fill="#ff7f50" stroke="#000000" cx="75" cy="-720" rx="51.1914" ry="18"/>
<text text-anchor="middle" x="75" y="-716.3" font-family="Times,serif" font-size="14.00" fill="#000000">add (#7)</text>
</a>
</g>
</g>
<!-- r6&#45;&gt;r7 -->
<g id="edge22" class="edge">
<title>r6:e&#45;&gt;r7:n</title>
<path fill="none" stroke="#000000" d="M394,-977C402,-977 397.7117,-966.0868 394,-959 384.8177,-941.4679 123.6829,-788.062 80.9022,-746.3344"/>
<polygon fill="#000000" stroke="#000000" points="83.6357,-744.1381 75,-738 77.923,-748.1836 83.6357,-744.1381"/>
<text text-anchor="middle" x="68" y="-741.8" font-family="Times,serif" font-size="14.00" fill="#000000">i1</text>
<text text-anchor="middle" x="366.5" y="-980.8" font-family="Times,serif" font-size="14.00" fill="#000000">/right&#45;lt</text>
</g>
<!-- initializerr6_1 -->
<!-- initializerr6_1&#45;&gt;r6 -->
<g id="edge18" class="edge">
<title>initializerr6_1&#45;&gt;r6:ne</title>
<path fill="none" stroke="#0000ff" stroke-dasharray="1,5" d="M338,-1264.6997C338,-1249.9349 338,-1228.6302 338,-1210 338,-1210 338,-1210 338,-1064 338,-1051.6615 345.0206,-1021.5219 342.1137,-1004.5699"/>
<polygon fill="#0000ff" stroke="#0000ff" points="345.1647,-1002.805 338,-995 338.7337,-1005.5694 345.1647,-1002.805"/>
<text text-anchor="middle" x="343" y="-1133.3" font-family="Times,serif" font-size="14.00" fill="#000000">2</text>
</g>
<!-- r8&#45;&gt;r9 -->
<g id="edge27" class="edge">
<title>r8:e&#45;&gt;r9:ne</title>
<path fill="none" stroke="#000000" d="M567,-720C572.8458,-720 569.5421,-699.6611 571,-694 574.5416,-680.2473 572.3519,-674.4208 582,-664 621.3575,-621.4907 736.1635,-646.0451 715.5337,-613.7898"/>
<polygon fill="#000000" stroke="#000000" points="718.108,-611.4125 709,-606 712.7448,-615.911 718.108,-611.4125"/>
<text text-anchor="middle" x="727" y="-609.8" font-family="Times,serif" font-size="14.00" fill="#000000">right</text>
</g>
<!-- r10&#45;&gt;r10 -->
<g id="edge33" class="edge">
<title>r10:se&#45;&gt;r10:ne</title>
<path fill="none" stroke="#000000" d="M291,-703C334.065,-694 403.1949,-694 403.1949,-720 403.1949,-744.0703 343.9457,-745.8568 300.9805,-738.8482"/>
<polygon fill="#000000" stroke="#000000" points="301.4702,-735.3795 291,-737 300.1955,-742.2625 301.4702,-735.3795"/>
<text text-anchor="middle" x="298" y="-740.8" font-family="Times,serif" font-size="14.00" fill="#000000">i2</text>
<text text-anchor="middle" x="281.5" y="-691.8" font-family="Times,serif" font-size="14.00" fill="#000000">/i2</text>
</g>
<!-- r10&#45;&gt;r9 -->
<g id="edge34" class="edge">
<title>r10:se&#45;&gt;r9:ne</title>
<path fill="none" stroke="#000000" d="M291,-703C321.4215,-672.5785 664.7381,-645.5292 706.7321,-615.7663"/>
<polygon fill="#000000" stroke="#000000" points="710.1472,-616.5325 709,-606 703.3286,-614.9491 710.1472,-616.5325"/>
<text text-anchor="middle" x="691" y="-609.8" font-family="Times,serif" font-size="14.00" fill="#000000">right</text>
<text text-anchor="middle" x="308.5" y="-691.8" font-family="Times,serif" font-size="14.00" fill="#000000">/sum</text>
</g>
<!-- r7&#45;&gt;r6 -->
<g id="edge25" class="edge">
<title>r7:se&#45;&gt;r6:ne</title>
<path fill="none" stroke="#000000" d="M92,-703C102.7937,-692.2063 111.7409,-698.5597 126.3454,-703 130.1413,-704.1541 245,-778.5326 245,-782.5 245,-921.5 245,-921.5 245,-921.5 245,-955.6638 373.0879,-932.0569 394.0934,-959 394.0934,-959 362.5409,-979.25 346.7646,-989.375"/>
<polygon fill="#000000" stroke="#000000" points="344.5255,-986.6532 338,-995 348.3063,-992.5443 344.5255,-986.6532"/>
<text text-anchor="middle" x="356" y="-998.8" font-family="Times,serif" font-size="14.00" fill="#000000">right</text>
<text text-anchor="middle" x="74.5" y="-691.8" font-family="Times,serif" font-size="14.00" fill="#000000">/sum</text>
</g>
<!-- r7&#45;&gt;r7 -->
<g id="edge24" class="edge">
<title>r7:se&#45;&gt;r7:ne</title>
<path fill="none" stroke="#000000" d="M92,-703C133.1151,-694 198.3454,-694 198.3454,-720 198.3454,-743.9688 142.9092,-745.8413 102.0353,-738.9365"/>
<polygon fill="#000000" stroke="#000000" points="102.482,-735.4582 92,-737 101.1557,-742.3314 102.482,-735.4582"/>
<text text-anchor="middle" x="85" y="-740.8" font-family="Times,serif" font-size="14.00" fill="#000000">i2</text>
<text text-anchor="middle" x="101.5" y="-691.8" font-family="Times,serif" font-size="14.00" fill="#000000">/i2</text>
</g>
<!-- initializerr7_1 -->
<!-- initializerr7_1&#45;&gt;r7 -->
<g id="edge23" class="edge">
<title>initializerr7_1&#45;&gt;r7:w</title>
<path fill="none" stroke="#0000ff" stroke-dasharray="1,5" d="M98,-958.506C97.5,-947.7163 97,-933.8413 97,-921.5 97,-921.5 97,-921.5 97,-782.5 97,-744.1224 41.892,-771.4056 23,-738 21.5232,-735.3887 20.029,-732.2046 19.16,-729.2445"/>
<polygon fill="#0000ff" stroke="#0000ff" points="22.3962,-730.5776 23,-720 15.9317,-727.8924 22.3962,-730.5776"/>
<text text-anchor="middle" x="102" y="-841.3" font-family="Times,serif" font-size="14.00" fill="#000000">1</text>
</g>
<!-- initializerr8_1 -->
<!-- initializerr8_1&#45;&gt;r8 -->
<g id="edge26" class="edge">
<title>initializerr8_1&#45;&gt;r8:w</title>
<path fill="none" stroke="#0000ff" d="M641.4556,-827.9742C611.348,-807.8644 558.1184,-774.7792 508,-756 471.0248,-742.1455 445.9322,-768.6186 421,-738 419.0268,-735.5768 417.3745,-732.3001 416.5702,-729.2065"/>
<polygon fill="#0000ff" stroke="#0000ff" points="419.8181,-730.5287 421,-720 413.5103,-727.4936 419.8181,-730.5287"/>
<text text-anchor="middle" x="583" y="-778.8" font-family="Times,serif" font-size="14.00" fill="#000000">2</text>
</g>
<!-- r9&#45;&gt;r14 -->
<g id="edge28" class="edge">
<title>r9:e&#45;&gt;r14:n</title>
<path fill="none" stroke="#000000" d="M765,-588C808.1342,-588 951,-575.6342 951,-532.5 951,-532.5 951,-532.5 951,-252 951,-197.6559 1048.1525,-235.444 1060.6761,-192.9764"/>
<polygon fill="#000000" stroke="#000000" points="1064.154,-193.3736 1062,-183 1057.2148,-192.4526 1064.154,-193.3736"/>
<text text-anchor="middle" x="1042.5" y="-186.8" font-family="Times,serif" font-size="14.00" fill="#000000">value</text>
<text text-anchor="middle" x="797" y="-591.8" font-family="Times,serif" font-size="14.00" fill="#000000">/right&#45;lte</text>
</g>
<!-- r9&#45;&gt;r10 -->
<g id="edge31" class="edge">
<title>r9:e&#45;&gt;r10:n</title>
<path fill="none" stroke="#000000" d="M765,-588C773,-588 769.7665,-599.575 765,-606 728.4758,-655.2322 692.5044,-631.2673 633,-646 605.7557,-652.7454 410.4135,-682.0875 385,-694 357.0292,-707.1112 360.2894,-727.6184 331.1949,-738 322.4039,-741.1368 295.6791,-746.521 282.1018,-744.1262"/>
<polygon fill="#000000" stroke="#000000" points="284.0874,-741.2397 274,-738 279.8654,-746.8231 284.0874,-741.2397"/>
<text text-anchor="middle" x="267" y="-741.8" font-family="Times,serif" font-size="14.00" fill="#000000">i1</text>
<text text-anchor="middle" x="792.5" y="-576.8" font-family="Times,serif" font-size="14.00" fill="#000000">/right&#45;lt</text>
</g>
<!-- r9&#45;&gt;r9 -->
<g id="edge30" class="edge">
<title>r9:s&#45;&gt;r9:n</title>
<path fill="none" stroke="#000000" d="M691,-570C739.6978,-561 837.0934,-561 837.0934,-588 837.0934,-613.2598 751.8481,-614.8878 700.984,-607.6233"/>
<polygon fill="#000000" stroke="#000000" points="701.4321,-604.1502 691,-606 700.3087,-611.0595 701.4321,-604.1502"/>
<text text-anchor="middle" x="678.5" y="-594.8" font-family="Times,serif" font-size="14.00" fill="#000000">left</text>
<text text-anchor="middle" x="666.5" y="-558.8" font-family="Times,serif" font-size="14.00" fill="#000000">/left&#45;gt</text>
</g>
<!-- r15 -->
<g id="node20" class="node">
<title>r15</title>
<g id="a_node20"><a xlink:href="file:///home/andrew/workspace/flow/flowruntime/stdio/stdout.toml" xlink:title="print (#15)">
<ellipse fill="#ff7f50" stroke="#000000" cx="848" cy="-165" rx="63.0888" ry="18"/>
<text text-anchor="middle" x="848" y="-161.3" font-family="Times,serif" font-size="14.00" fill="#000000">print (#15)</text>
</a>
</g>
</g>
<!-- r9&#45;&gt;r15 -->
<g id="edge29" class="edge">
<title>r9:e&#45;&gt;r15:n</title>
<path fill="none" stroke="#000000" d="M765,-588C795.6675,-588 806,-563.1675 806,-532.5 806,-532.5 806,-532.5 806,-252 806,-219.8853 839.6078,-218.7405 846.697,-193.1586"/>
<polygon fill="#000000" stroke="#000000" points="850.1992,-193.3641 848,-183 843.2561,-192.4734 850.1992,-193.3641"/>
<text text-anchor="middle" x="733" y="-591.8" font-family="Times,serif" font-size="14.00" fill="#000000">/right&#45;lte</text>
</g>
<!-- r12 -->
<g id="node21" class="node">
<title>r12</title>
<g id="a_node21"><a xlink:href="file:///home/andrew/workspace/flow/flowstdlib/control/join/join.toml" xlink:title="join (#12)">
<ellipse fill="#ff7f50" stroke="#000000" cx="656" cy="-165" rx="57.3905" ry="18"/>
<text text-anchor="middle" x="656" y="-161.3" font-family="Times,serif" font-size="14.00" fill="#000000">join (#12)</text>
</a>
</g>
</g>
<!-- r9&#45;&gt;r12 -->
<g id="edge32" class="edge">
<title>r9:sw&#45;&gt;r12:ne</title>
<path fill="none" stroke="#000000" d="M673,-570C661.2149,-558.2149 673,-549.1667 673,-532.5 673,-532.5 673,-532.5 673,-252 673,-224.7778 689.8429,-208.4436 679.3161,-190.0479"/>
<polygon fill="#000000" stroke="#000000" points="681.9272,-187.7058 673,-182 676.4206,-192.0275 681.9272,-187.7058"/>
<text text-anchor="middle" x="698.5" y="-185.8" font-family="Times,serif" font-size="14.00" fill="#000000">control</text>
<text text-anchor="middle" x="707" y="-558.8" font-family="Times,serif" font-size="14.00" fill="#000000">/right&#45;gte</text>
</g>
<!-- r13 -->
<g id="node23" class="node">
<title>r13</title>
<g id="a_node23"><a xlink:href="file:///home/andrew/workspace/flow/flowstdlib/math/add/add.toml" xlink:title="subsequence&#45;count (#13)">
<ellipse fill="#ff7f50" stroke="#000000" cx="515" cy="-34" rx="128.8774" ry="18"/>
<text text-anchor="middle" x="515" y="-30.3" font-family="Times,serif" font-size="14.00" fill="#000000">subsequence&#45;count (#13)</text>
</a>
</g>
</g>
<!-- r12&#45;&gt;r13 -->
<g id="edge38" class="edge">
<title>r12:e&#45;&gt;r13:ne</title>
<path fill="none" stroke="#000000" d="M713,-165C721,-165 717.1308,-153.851 713,-147 702.4632,-129.5247 577.4019,-79.2558 541.3276,-57.8556"/>
<polygon fill="#000000" stroke="#000000" points="543.1934,-54.8889 533,-52 539.167,-60.615 543.1934,-54.8889"/>
<text text-anchor="middle" x="526" y="-55.8" font-family="Times,serif" font-size="14.00" fill="#000000">i2</text>
</g>
<!-- initializerr12_0 -->
<!-- initializerr12_0&#45;&gt;r12 -->
<g id="edge37" class="edge">
<title>initializerr12_0&#45;&gt;r12:nw</title>
<path fill="none" stroke="#0000ff" d="M512.3923,-307.0221C538.5452,-281.4241 588.1529,-232.7428 631.7753,-189.2165"/>
<polygon fill="#0000ff" stroke="#0000ff" points="634.3984,-191.5434 639,-182 629.4514,-186.5908 634.3984,-191.5434"/>
<text text-anchor="middle" x="592" y="-248.3" font-family="Times,serif" font-size="14.00" fill="#000000">1</text>
</g>
<!-- r13&#45;&gt;r13 -->
<g id="edge40" class="edge">
<title>r13:se&#45;&gt;r13:n</title>
<path fill="none" stroke="#000000" d="M533,-16C599.8962,-7 715.6886,-7 715.6886,-34 715.6886,-59.6816 594.6429,-60.9356 525.2544,-53.2519"/>
<polygon fill="#000000" stroke="#000000" points="525.3505,-49.7377 515,-52 524.5021,-56.6861 525.3505,-49.7377"/>
<text text-anchor="middle" x="508" y="-55.8" font-family="Times,serif" font-size="14.00" fill="#000000">i1</text>
<text text-anchor="middle" x="515.5" y="-4.8" font-family="Times,serif" font-size="14.00" fill="#000000">/sum</text>
</g>
<!-- initializerr13_0 -->
<!-- initializerr13_0&#45;&gt;r13 -->
<g id="edge39" class="edge">
<title>initializerr13_0&#45;&gt;r13:ne</title>
<path fill="none" stroke="#0000ff" stroke-dasharray="1,5" d="M474.8995,-148.0155C507.7485,-126.892 554.9064,-89.9804 539.1703,-60.1935"/>
<polygon fill="#0000ff" stroke="#0000ff" points="541.8116,-57.8827 533,-52 536.2199,-62.0937 541.8116,-57.8827"/>
<text text-anchor="middle" x="543" y="-92.8" font-family="Times,serif" font-size="14.00" fill="#000000">1</text>
</g>
<!-- initializerr14_0 -->
<!-- initializerr14_0&#45;&gt;r14 -->
<g id="edge41" class="edge">
<title>initializerr14_0&#45;&gt;r14:n</title>
<path fill="none" stroke="#0000ff" stroke-dasharray="1,5" d="M1215.4476,-239.0603C1162.9673,-226.3678 1089.806,-206.7096 1068.2244,-191.1514"/>
<polygon fill="#0000ff" stroke="#0000ff" points="1070.8507,-188.8237 1062,-183 1065.2872,-193.072 1070.8507,-188.8237"/>
<text text-anchor="middle" x="1130" y="-204.8" font-family="Times,serif" font-size="14.00" fill="#000000">9</text>
</g>
</g>
</svg>
