<?xml version="1.0" encoding="UTF-8" standalone="no"?>
<!DOCTYPE svg PUBLIC "-//W3C//DTD SVG 1.1//EN"
 "http://www.w3.org/Graphics/SVG/1.1/DTD/svg11.dtd">
<!-- Generated by graphviz version 2.44.1 (20200629.0846)
 -->
<!-- Title: prime Pages: 1 -->
<svg width="1826pt" height="822pt"
 viewBox="0.00 0.00 1826.49 822.00" xmlns="http://www.w3.org/2000/svg" xmlns:xlink="http://www.w3.org/1999/xlink">
<g id="graph0" class="graph" transform="scale(1 1) rotate(0) translate(4 818)">
<title>prime</title>
<polygon fill="white" stroke="transparent" points="-4,4 -4,-818 1822.49,-818 1822.49,4 -4,4"/>
<text text-anchor="middle" x="909.25" y="-798.8" font-family="Times,serif" font-size="14.00">/prime</text>
<g id="clust1" class="cluster">
<title>cluster_candidates</title>
<polygon fill="none" stroke="black" points="1428,-436 1428,-783 1772,-783 1772,-436 1428,-436"/>
<text text-anchor="middle" x="1600" y="-767.8" font-family="Times,serif" font-size="14.00">/prime/candidates</text>
</g>
<g id="clust2" class="cluster">
<title>cluster_composites</title>
<polygon fill="none" stroke="black" points="8,-8 8,-652 1090,-652 1090,-8 8,-8"/>
<text text-anchor="middle" x="549" y="-636.8" font-family="Times,serif" font-size="14.00">/prime/composites</text>
</g>
<g id="clust3" class="cluster">
<title>cluster_divisors</title>
<polygon fill="none" stroke="black" points="592,-305 592,-621 1082,-621 1082,-305 592,-305"/>
<text text-anchor="middle" x="837" y="-605.8" font-family="Times,serif" font-size="14.00">/prime/composites/divisors</text>
</g>
<g id="clust4" class="cluster">
<title>cluster_generate_composites</title>
<polygon fill="none" stroke="black" points="154,-93 154,-403 536,-403 536,-93 154,-93"/>
<text text-anchor="middle" x="345" y="-387.8" font-family="Times,serif" font-size="14.00">/prime/composites/generate_composites</text>
</g>
<g id="clust5" class="cluster">
<title>cluster_composite_sequence</title>
<polygon fill="none" stroke="black" points="178,-101 178,-286 528,-286 528,-101 178,-101"/>
<text text-anchor="middle" x="353" y="-270.8" font-family="Times,serif" font-size="14.00">/prime/composites/generate_composites/composite&#45;sequence</text>
</g>
<!-- r3 -->
<g id="node1" class="node">
<title>r3</title>
<g id="a_node1"><a xlink:href="file:///Users/andrew/workspace/flow/flowr/src/lib/flowruntime/args/get.html" xlink:title="args (#3)">
<ellipse fill="coral" stroke="black" cx="944" cy="-711" rx="42.49" ry="18"/>
<text text-anchor="middle" x="944" y="-707.3" font-family="Times,serif" font-size="14.00">args (#3)</text>
</a>
</g>
</g>
<!-- r2 -->
<g id="node2" class="node">
<title>r2</title>
<g id="a_node2"><a xlink:href="file:///Users/andrew/workspace/flow/flowstdlib/control/compare_switch/compare_switch.html" xlink:title="compare (#2)">
<ellipse fill="coral" stroke="black" cx="1688" cy="-549" rx="58.49" ry="18"/>
<text text-anchor="middle" x="1688" y="-545.3" font-family="Times,serif" font-size="14.00">compare (#2)</text>
</a>
</g>
</g>
<!-- r3&#45;&gt;r2 -->
<g id="edge1" class="edge">
<title>r3:e&#45;&gt;r2:n</title>
<path fill="none" stroke="black" d="M988,-711C1123.08,-711 1469.15,-705.92 1593,-652 1641.34,-630.95 1682.38,-625.1 1687.47,-578.28"/>
<polygon fill="black" stroke="black" points="1690.98,-578.17 1688,-568 1683.99,-577.81 1690.98,-578.17"/>
<text text-anchor="middle" x="1678.5" y="-571.8" font-family="Times,serif" font-size="14.00">left</text>
<text text-anchor="middle" x="1006.5" y="-714.8" font-family="Times,serif" font-size="14.00">/json/1</text>
</g>
<!-- r5 -->
<g id="node3" class="node">
<title>r5</title>
<g id="a_node3"><a xlink:href="file:///Users/andrew/workspace/flow/flowstdlib/data/accumulate/accumulate.html" xlink:title="all&#45;numbers (#5)">
<ellipse fill="coral" stroke="black" cx="1506" cy="-462" rx="70.39" ry="18"/>
<text text-anchor="middle" x="1506" y="-458.3" font-family="Times,serif" font-size="14.00">all&#45;numbers (#5)</text>
</a>
</g>
</g>
<!-- r3&#45;&gt;r5 -->
<g id="edge2" class="edge">
<title>r3:e&#45;&gt;r5:nw</title>
<path fill="none" stroke="black" d="M988,-711C1114.33,-711 1096.99,-591.31 1208,-531 1220.56,-524.17 1430.23,-497.13 1478.52,-483.75"/>
<polygon fill="black" stroke="black" points="1479.99,-486.93 1488,-480 1477.41,-480.42 1479.99,-486.93"/>
<text text-anchor="middle" x="1457.5" y="-483.8" font-family="Times,serif" font-size="14.00">chunk_size</text>
<text text-anchor="middle" x="1006.5" y="-699.8" font-family="Times,serif" font-size="14.00">/json/1</text>
</g>
<!-- r9 -->
<g id="node4" class="node">
<title>r9</title>
<g id="a_node4"><a xlink:href="file:///Users/andrew/workspace/flow/flowstdlib/math/sqrt/sqrt.html" xlink:title="sqrt (#9)">
<ellipse fill="coral" stroke="black" cx="543" cy="-549" rx="40.89" ry="18"/>
<text text-anchor="middle" x="543" y="-545.3" font-family="Times,serif" font-size="14.00">sqrt (#9)</text>
</a>
</g>
</g>
<!-- r3&#45;&gt;r9 -->
<g id="edge3" class="edge">
<title>r3:e&#45;&gt;r9:n</title>
<path fill="none" stroke="black" d="M988,-711C996.01,-711 992.53,-698.8 987,-693 925.47,-628.51 662.03,-701.64 588,-652 555.85,-630.44 544.88,-613.5 543.23,-578.4"/>
<polygon fill="black" stroke="black" points="546.72,-577.92 543,-568 539.72,-578.07 546.72,-577.92"/>
<text text-anchor="middle" x="969.5" y="-714.8" font-family="Times,serif" font-size="14.00">/json/1</text>
</g>
<!-- r12 -->
<g id="node5" class="node">
<title>r12</title>
<g id="a_node5"><a xlink:href="file:///Users/andrew/workspace/flow/flowstdlib/data/buffer/buffer.html" xlink:title="limit&#45;buffer (#12)">
<ellipse fill="coral" stroke="black" cx="235" cy="-331" rx="73.39" ry="18"/>
<text text-anchor="middle" x="235" y="-327.3" font-family="Times,serif" font-size="14.00">limit&#45;buffer (#12)</text>
</a>
</g>
</g>
<!-- r3&#45;&gt;r12 -->
<g id="edge4" class="edge">
<title>r3:e&#45;&gt;r12:n</title>
<path fill="none" stroke="black" d="M988,-711C996.01,-711 992.69,-698.64 987,-693 971.39,-677.54 613.91,-676.56 592,-675 486.44,-667.48 439.59,-715.59 355,-652 242.26,-567.24 235.27,-497.76 235.01,-360.04"/>
<polygon fill="black" stroke="black" points="238.51,-360 235,-350 231.51,-360 238.51,-360"/>
<text text-anchor="middle" x="969.5" y="-699.8" font-family="Times,serif" font-size="14.00">/json/1</text>
</g>
<!-- r2&#45;&gt;r2 -->
<g id="edge7" class="edge">
<title>r2:s&#45;&gt;r2:n</title>
<path fill="none" stroke="black" d="M1688,-531C1731.5,-520.5 1818.49,-520.5 1818.49,-549 1818.49,-575.44 1743.62,-577.35 1698.06,-569.11"/>
<polygon fill="black" stroke="black" points="1698.5,-565.62 1688,-567 1697.07,-572.47 1698.5,-565.62"/>
<text text-anchor="middle" x="1697.5" y="-570.8" font-family="Times,serif" font-size="14.00">left</text>
<text text-anchor="middle" x="1669.5" y="-519.8" font-family="Times,serif" font-size="14.00">/left&#45;gt</text>
</g>
<!-- r2&#45;&gt;r5 -->
<g id="edge6" class="edge">
<title>r2:e&#45;&gt;r5:n</title>
<path fill="none" stroke="black" d="M1748,-549C1756.01,-549 1752.12,-537.16 1747,-531 1742.07,-525.06 1619.56,-499.56 1612,-498 1592.26,-493.92 1530.37,-500.92 1511.51,-488.86"/>
<polygon fill="black" stroke="black" points="1514.25,-486.64 1506,-480 1508.31,-490.34 1514.25,-486.64"/>
<text text-anchor="middle" x="1523.5" y="-483.8" font-family="Times,serif" font-size="14.00">values</text>
<text text-anchor="middle" x="1772" y="-552.8" font-family="Times,serif" font-size="14.00">/right&#45;lte</text>
</g>
<!-- r1 -->
<g id="node7" class="node">
<title>r1</title>
<g id="a_node7"><a xlink:href="file:///Users/andrew/workspace/flow/flowstdlib/math/add/add.html" xlink:title="add (#1)">
<ellipse fill="coral" stroke="black" cx="1706" cy="-462" rx="40.09" ry="18"/>
<text text-anchor="middle" x="1706" y="-458.3" font-family="Times,serif" font-size="14.00">add (#1)</text>
</a>
</g>
</g>
<!-- r2&#45;&gt;r1 -->
<g id="edge8" class="edge">
<title>r2:e&#45;&gt;r1:n</title>
<path fill="none" stroke="black" d="M1748,-549C1756.01,-549 1751.32,-537.75 1747,-531 1737.78,-516.6 1723.3,-526.65 1713,-513 1706.3,-504.12 1705.69,-498.5 1705.82,-490.07"/>
<polygon fill="black" stroke="black" points="1709.32,-490.06 1706,-480 1702.32,-489.94 1709.32,-490.06"/>
<text text-anchor="middle" x="1700.5" y="-483.8" font-family="Times,serif" font-size="14.00">i1</text>
<text text-anchor="middle" x="1769" y="-537.8" font-family="Times,serif" font-size="14.00">/right&#45;lt</text>
</g>
<!-- r5&#45;&gt;r5 -->
<g id="edge13" class="edge">
<title>r5:s&#45;&gt;r5:nw</title>
<path fill="none" stroke="black" d="M1506,-444C1458.6,-433.5 1363.81,-433.5 1363.81,-462 1363.81,-488.55 1430.46,-490.37 1477.9,-482"/>
<polygon fill="black" stroke="black" points="1478.87,-485.38 1488,-480 1477.51,-478.51 1478.87,-485.38"/>
<text text-anchor="middle" x="1518.5" y="-483.8" font-family="Times,serif" font-size="14.00">chunk_size</text>
<text text-anchor="middle" x="1473.5" y="-432.8" font-family="Times,serif" font-size="14.00">/chunk_size</text>
</g>
<!-- r5&#45;&gt;r5 -->
<g id="edge14" class="edge">
<title>r5:e&#45;&gt;r5:ne</title>
<path fill="none" stroke="black" d="M1576,-462C1600.19,-451.5 1648.19,-451.5 1648.19,-471 1648.19,-489.17 1581.54,-490.41 1534.1,-482"/>
<polygon fill="black" stroke="black" points="1534.49,-478.51 1524,-480 1533.13,-485.38 1534.49,-478.51"/>
<text text-anchor="middle" x="1506.5" y="-468.8" font-family="Times,serif" font-size="14.00">partial</text>
<text text-anchor="middle" x="1595.5" y="-465.8" font-family="Times,serif" font-size="14.00">/partial</text>
</g>
<!-- r4 -->
<g id="node10" class="node">
<title>r4</title>
<g id="a_node10"><a xlink:href="file:///Users/andrew/workspace/flow/flowstdlib/data/remove/remove.html" xlink:title="remove (#4)">
<ellipse fill="coral" stroke="black" cx="447" cy="-127" rx="54.69" ry="18"/>
<text text-anchor="middle" x="447" y="-123.3" font-family="Times,serif" font-size="14.00">remove (#4)</text>
</a>
</g>
</g>
<!-- r5&#45;&gt;r4 -->
<g id="edge15" class="edge">
<title>r5:s&#45;&gt;r4:ne</title>
<path fill="none" stroke="black" d="M1506,-443C1506,-237.8 1265.92,-351.7 1069,-294 939.37,-256.02 580.04,-243.52 471.66,-152.02"/>
<polygon fill="black" stroke="black" points="473.74,-149.18 464,-145 469.01,-154.34 473.74,-149.18"/>
<text text-anchor="middle" x="450" y="-148.8" font-family="Times,serif" font-size="14.00">array</text>
<text text-anchor="middle" x="1524.5" y="-431.8" font-family="Times,serif" font-size="14.00">/chunk</text>
</g>
<!-- r7 -->
<g id="node11" class="node">
<title>r7</title>
<g id="a_node11"><a xlink:href="file:///Users/andrew/workspace/flow/flowstdlib/control/compare_switch/compare_switch.html" xlink:title="compare (#7)">
<ellipse fill="coral" stroke="black" cx="851" cy="-462" rx="58.49" ry="18"/>
<text text-anchor="middle" x="851" y="-458.3" font-family="Times,serif" font-size="14.00">compare (#7)</text>
</a>
</g>
</g>
<!-- r9&#45;&gt;r7 -->
<g id="edge16" class="edge">
<title>r9:e&#45;&gt;r7:n</title>
<path fill="none" stroke="black" d="M585,-549C589.06,-549 585.17,-533.91 588,-531 668.56,-448.29 840.19,-590 850.51,-490.08"/>
<polygon fill="black" stroke="black" points="854.01,-490.16 851,-480 847.02,-489.82 854.01,-490.16"/>
<text text-anchor="middle" x="841.5" y="-483.8" font-family="Times,serif" font-size="14.00">left</text>
</g>
<!-- r12&#45;&gt;r12 -->
<g id="edge33" class="edge">
<title>r12:e&#45;&gt;r12:n</title>
<path fill="none" stroke="black" d="M309,-331C332.44,-322 380.44,-322 380.44,-340 380.44,-356.84 295.58,-357.93 244.94,-350.63"/>
<polygon fill="black" stroke="black" points="245.43,-347.16 235,-349 244.3,-354.07 245.43,-347.16"/>
</g>
<!-- r11 -->
<g id="node18" class="node">
<title>r11</title>
<g id="a_node18"><a xlink:href="file:///Users/andrew/workspace/flow/flowstdlib/control/compare_switch/compare_switch.html" xlink:title="compare (#11)">
<ellipse fill="coral" stroke="black" cx="425" cy="-214" rx="63.09" ry="18"/>
<text text-anchor="middle" x="425" y="-210.3" font-family="Times,serif" font-size="14.00">compare (#11)</text>
</a>
</g>
</g>
<!-- r12&#45;&gt;r11 -->
<g id="edge34" class="edge">
<title>r12:e&#45;&gt;r11:n</title>
<path fill="none" stroke="black" d="M310,-331C324.62,-331 401.03,-269.38 420.49,-242.39"/>
<polygon fill="black" stroke="black" points="423.83,-243.53 425,-233 417.52,-240.5 423.83,-243.53"/>
<text text-anchor="middle" x="415.5" y="-236.8" font-family="Times,serif" font-size="14.00">left</text>
</g>
<!-- initializerr2_1 -->
<!-- initializerr2_1&#45;&gt;r2 -->
<g id="edge5" class="edge">
<title>initializerr2_1&#45;&gt;r2:ne</title>
<path fill="none" stroke="blue" stroke-dasharray="1,5" d="M1710.82,-693.04C1720.84,-665.2 1735.91,-609.47 1711.62,-574.88"/>
<polygon fill="blue" stroke="blue" points="1714.11,-572.41 1705,-567 1708.75,-576.91 1714.11,-572.41"/>
<text text-anchor="middle" x="1722.5" y="-663.8" font-family="Times,serif" font-size="14.00">1</text>
</g>
<!-- r1&#45;&gt;r2 -->
<g id="edge11" class="edge">
<title>r1:se&#45;&gt;r2:ne</title>
<path fill="none" stroke="black" d="M1723,-444C1762.05,-404.95 1785.07,-526.49 1746.49,-566 1741.81,-570.8 1725.47,-572.59 1714.39,-570.72"/>
<polygon fill="black" stroke="black" points="1715.59,-567.43 1705,-567 1713.01,-573.94 1715.59,-567.43"/>
<text text-anchor="middle" x="1718" y="-570.8" font-family="Times,serif" font-size="14.00">right</text>
<text text-anchor="middle" x="1709" y="-432.8" font-family="Times,serif" font-size="14.00">/sum</text>
</g>
<!-- r1&#45;&gt;r1 -->
<g id="edge10" class="edge">
<title>r1:se&#45;&gt;r1:ne</title>
<path fill="none" stroke="black" d="M1723,-445C1760.43,-434.5 1818.3,-434.5 1818.3,-462 1818.3,-487.14 1769.95,-489.3 1733.05,-481.46"/>
<polygon fill="black" stroke="black" points="1733.55,-477.98 1723,-479 1731.88,-484.78 1733.55,-477.98"/>
<text text-anchor="middle" x="1717.5" y="-482.8" font-family="Times,serif" font-size="14.00">i2</text>
<text text-anchor="middle" x="1730.5" y="-433.8" font-family="Times,serif" font-size="14.00">/i2</text>
</g>
<!-- initializerr1_1 -->
<!-- initializerr1_1&#45;&gt;r1 -->
<g id="edge9" class="edge">
<title>initializerr1_1&#45;&gt;r1:w</title>
<path fill="none" stroke="blue" stroke-dasharray="1,5" d="M1526.38,-533.13C1553.37,-519.43 1594.46,-498.49 1630,-480 1641.49,-474.02 1645.27,-466.77 1653.87,-463.6"/>
<polygon fill="blue" stroke="blue" points="1654.67,-467.02 1664,-462 1653.58,-460.11 1654.67,-467.02"/>
<text text-anchor="middle" x="1596.5" y="-501.8" font-family="Times,serif" font-size="14.00">1</text>
</g>
<!-- initializerr5_1 -->
<!-- initializerr5_1&#45;&gt;r5 -->
<g id="edge12" class="edge">
<title>initializerr5_1&#45;&gt;r5:n</title>
<path fill="none" stroke="blue" stroke-dasharray="1,5" d="M1349.84,-537.25C1400.36,-524.84 1477.44,-504.1 1499.75,-488.09"/>
<polygon fill="blue" stroke="blue" points="1502.66,-490.05 1506,-480 1497.12,-485.78 1502.66,-490.05"/>
<text text-anchor="middle" x="1481" y="-501.8" font-family="Times,serif" font-size="14.00">[]</text>
</g>
<!-- r4&#45;&gt;r4 -->
<g id="edge39" class="edge">
<title>r4:e&#45;&gt;r4:ne</title>
<path fill="none" stroke="black" d="M502,-127C525.6,-116.5 573.6,-116.5 573.6,-135.5 573.6,-153.09 515.83,-154.4 473.77,-146.16"/>
<polygon fill="black" stroke="black" points="474.52,-142.74 464,-144 473.01,-149.58 474.52,-142.74"/>
<text text-anchor="middle" x="478" y="-147.8" font-family="Times,serif" font-size="14.00">array</text>
</g>
<!-- r0 -->
<g id="node23" class="node">
<title>r0</title>
<g id="a_node23"><a xlink:href="file:///Users/andrew/workspace/flow/flowr/src/lib/flowruntime/stdio/stdout.html" xlink:title="print (#0)">
<ellipse fill="coral" stroke="black" cx="1142" cy="-34" rx="44.39" ry="18"/>
<text text-anchor="middle" x="1142" y="-30.3" font-family="Times,serif" font-size="14.00">print (#0)</text>
</a>
</g>
</g>
<!-- r4&#45;&gt;r0 -->
<g id="edge40" class="edge">
<title>r4:e&#45;&gt;r0:n</title>
<path fill="none" stroke="black" d="M503,-127C569.61,-127 1038.99,-109.33 1101,-85 1119.03,-77.92 1135.32,-75.98 1140.38,-62.23"/>
<polygon fill="black" stroke="black" points="1143.89,-62.42 1142,-52 1136.98,-61.33 1143.89,-62.42"/>
</g>
<!-- r7&#45;&gt;r7 -->
<g id="edge20" class="edge">
<title>r7:s&#45;&gt;r7:n</title>
<path fill="none" stroke="black" d="M851,-444C894.5,-433.5 981.49,-433.5 981.49,-462 981.49,-488.44 906.62,-490.35 861.06,-482.11"/>
<polygon fill="black" stroke="black" points="861.5,-478.62 851,-480 860.07,-485.47 861.5,-478.62"/>
<text text-anchor="middle" x="860.5" y="-483.8" font-family="Times,serif" font-size="14.00">left</text>
<text text-anchor="middle" x="832.5" y="-432.8" font-family="Times,serif" font-size="14.00">/left&#45;gt</text>
</g>
<!-- r13 -->
<g id="node13" class="node">
<title>r13</title>
<g id="a_node13"><a xlink:href="file:///Users/andrew/workspace/flow/flowstdlib/math/multiply/multiply.html" xlink:title="multiply (#13)">
<ellipse fill="coral" stroke="black" cx="1012" cy="-331" rx="62.29" ry="18"/>
<text text-anchor="middle" x="1012" y="-327.3" font-family="Times,serif" font-size="14.00">multiply (#13)</text>
</a>
</g>
</g>
<!-- r7&#45;&gt;r13 -->
<g id="edge18" class="edge">
<title>r7:e&#45;&gt;r13:n</title>
<path fill="none" stroke="black" d="M911,-462C974.62,-462 1008.46,-421.48 1011.74,-360.04"/>
<polygon fill="black" stroke="black" points="1015.24,-360.09 1012,-350 1008.24,-359.9 1015.24,-360.09"/>
<text text-anchor="middle" x="1006.5" y="-353.8" font-family="Times,serif" font-size="14.00">i1</text>
<text text-anchor="middle" x="935" y="-465.8" font-family="Times,serif" font-size="14.00">/right&#45;lte</text>
</g>
<!-- r10 -->
<g id="node14" class="node">
<title>r10</title>
<g id="a_node14"><a xlink:href="file:///Users/andrew/workspace/flow/flowstdlib/math/add/add.html" xlink:title="add (#10)">
<ellipse fill="coral" stroke="black" cx="815" cy="-331" rx="44.69" ry="18"/>
<text text-anchor="middle" x="815" y="-327.3" font-family="Times,serif" font-size="14.00">add (#10)</text>
</a>
</g>
</g>
<!-- r7&#45;&gt;r10 -->
<g id="edge19" class="edge">
<title>r7:e&#45;&gt;r10:ne</title>
<path fill="none" stroke="black" d="M911,-462C928.24,-462 932.47,-450.27 839.19,-356.22"/>
<polygon fill="black" stroke="black" points="841.54,-353.62 832,-349 836.58,-358.56 841.54,-353.62"/>
<text text-anchor="middle" x="826.5" y="-352.8" font-family="Times,serif" font-size="14.00">i2</text>
<text text-anchor="middle" x="935" y="-450.8" font-family="Times,serif" font-size="14.00">/right&#45;lte</text>
</g>
<!-- r6 -->
<g id="node15" class="node">
<title>r6</title>
<g id="a_node15"><a xlink:href="file:///Users/andrew/workspace/flow/flowstdlib/math/add/add.html" xlink:title="add (#6)">
<ellipse fill="coral" stroke="black" cx="640" cy="-331" rx="40.09" ry="18"/>
<text text-anchor="middle" x="640" y="-327.3" font-family="Times,serif" font-size="14.00">add (#6)</text>
</a>
</g>
</g>
<!-- r7&#45;&gt;r6 -->
<g id="edge21" class="edge">
<title>r7:e&#45;&gt;r6:n</title>
<path fill="none" stroke="black" d="M911,-462C919.01,-462 914.69,-450.49 910,-444 904.12,-435.87 835.76,-413.29 826,-411 744.78,-391.94 648.28,-433.35 640.5,-360.05"/>
<polygon fill="black" stroke="black" points="644,-359.81 640,-350 637,-360.16 644,-359.81"/>
<text text-anchor="middle" x="634.5" y="-353.8" font-family="Times,serif" font-size="14.00">i1</text>
<text text-anchor="middle" x="890" y="-465.8" font-family="Times,serif" font-size="14.00">/right&#45;lt</text>
</g>
<!-- initializerr7_1 -->
<!-- initializerr7_1&#45;&gt;r7 -->
<g id="edge17" class="edge">
<title>initializerr7_1&#45;&gt;r7:ne</title>
<path fill="none" stroke="blue" stroke-dasharray="1,5" d="M873.96,-530.94C877.38,-518.33 879.91,-501.18 873.75,-488.21"/>
<polygon fill="blue" stroke="blue" points="876.6,-486.18 868,-480 870.87,-490.2 876.6,-486.18"/>
<text text-anchor="middle" x="881.5" y="-501.8" font-family="Times,serif" font-size="14.00">2</text>
</g>
<!-- r13&#45;&gt;r11 -->
<g id="edge26" class="edge">
<title>r13:e&#45;&gt;r11:ne</title>
<path fill="none" stroke="black" d="M1076,-331C1084.01,-331 1080.46,-318.87 1075,-313 980.65,-211.62 562.53,-326.63 449.6,-238.69"/>
<polygon fill="black" stroke="black" points="451.82,-235.98 442,-232 447.19,-241.24 451.82,-235.98"/>
<text text-anchor="middle" x="455" y="-235.8" font-family="Times,serif" font-size="14.00">right</text>
</g>
<!-- r10&#45;&gt;r10 -->
<g id="edge31" class="edge">
<title>r10:se&#45;&gt;r10:ne</title>
<path fill="none" stroke="black" d="M832,-314C870.95,-305 931.85,-305 931.85,-331 931.85,-354.87 880.53,-356.83 841.98,-350.02"/>
<polygon fill="black" stroke="black" points="842.5,-346.56 832,-348 841.11,-353.42 842.5,-346.56"/>
<text text-anchor="middle" x="837.5" y="-351.8" font-family="Times,serif" font-size="14.00">i2</text>
<text text-anchor="middle" x="824.5" y="-302.8" font-family="Times,serif" font-size="14.00">/i2</text>
</g>
<!-- r10&#45;&gt;r11 -->
<g id="edge32" class="edge">
<title>r10:se&#45;&gt;r11:ne</title>
<path fill="none" stroke="black" d="M832,-313C892.27,-252.73 532.91,-291.46 450.28,-238.54"/>
<polygon fill="black" stroke="black" points="452.02,-235.45 442,-232 447.68,-240.94 452.02,-235.45"/>
<text text-anchor="middle" x="429" y="-235.8" font-family="Times,serif" font-size="14.00">right</text>
<text text-anchor="middle" x="846" y="-301.8" font-family="Times,serif" font-size="14.00">/sum</text>
</g>
<!-- r6&#45;&gt;r7 -->
<g id="edge24" class="edge">
<title>r6:se&#45;&gt;r7:ne</title>
<path fill="none" stroke="black" d="M657,-313C694.22,-275.78 694.89,-367.76 734,-403 751.87,-419.1 759.95,-419.12 783,-426 810.21,-434.12 890.89,-422.56 909.49,-444 919.69,-455.75 920.36,-467.87 909.49,-479 904.81,-483.8 888.47,-485.59 877.39,-483.72"/>
<polygon fill="black" stroke="black" points="878.59,-480.43 868,-480 876.01,-486.94 878.59,-480.43"/>
<text text-anchor="middle" x="881" y="-483.8" font-family="Times,serif" font-size="14.00">right</text>
<text text-anchor="middle" x="643" y="-301.8" font-family="Times,serif" font-size="14.00">/sum</text>
</g>
<!-- r6&#45;&gt;r6 -->
<g id="edge23" class="edge">
<title>r6:se&#45;&gt;r6:ne</title>
<path fill="none" stroke="black" d="M657,-314C694.43,-305 752.3,-305 752.3,-331 752.3,-354.77 703.95,-356.81 667.05,-350.11"/>
<polygon fill="black" stroke="black" points="667.51,-346.63 657,-348 666.07,-353.48 667.51,-346.63"/>
<text text-anchor="middle" x="651.5" y="-351.8" font-family="Times,serif" font-size="14.00">i2</text>
<text text-anchor="middle" x="664.5" y="-302.8" font-family="Times,serif" font-size="14.00">/i2</text>
</g>
<!-- initializerr6_1 -->
<!-- initializerr6_1&#45;&gt;r6 -->
<g id="edge22" class="edge">
<title>initializerr6_1&#45;&gt;r6:w</title>
<path fill="none" stroke="blue" stroke-dasharray="1,5" d="M644.75,-444.54C615.88,-412.42 558.69,-343.59 587.99,-332.52"/>
<polygon fill="blue" stroke="blue" points="588.64,-335.96 598,-331 587.59,-329.04 588.64,-335.96"/>
<text text-anchor="middle" x="631.5" y="-414.8" font-family="Times,serif" font-size="14.00">1</text>
</g>
<!-- initializerr13_1 -->
<!-- initializerr13_1&#45;&gt;r13 -->
<g id="edge25" class="edge">
<title>initializerr13_1&#45;&gt;r13:w</title>
<path fill="none" stroke="blue" d="M482.1,-348.36C502.93,-366.03 538.12,-392.3 574,-403 610.2,-413.8 882.19,-423.37 914,-403 940.31,-386.15 919.08,-342.94 938.1,-333.04"/>
<polygon fill="blue" stroke="blue" points="938.91,-336.45 948,-331 937.5,-329.59 938.91,-336.45"/>
<text text-anchor="middle" x="805" y="-414.8" font-family="Times,serif" font-size="14.00">2</text>
</g>
<!-- r11&#45;&gt;r4 -->
<g id="edge27" class="edge">
<title>r11:e&#45;&gt;r4:n</title>
<path fill="none" stroke="black" d="M489,-214C497.01,-214 490.87,-203.48 488,-196 478.97,-172.45 454.77,-173.26 448.5,-154.93"/>
<polygon fill="black" stroke="black" points="451.95,-154.37 447,-145 445.03,-155.41 451.95,-154.37"/>
<text text-anchor="middle" x="432" y="-148.8" font-family="Times,serif" font-size="14.00">value</text>
<text text-anchor="middle" x="513" y="-217.8" font-family="Times,serif" font-size="14.00">/right&#45;lte</text>
</g>
<!-- r11&#45;&gt;r10 -->
<g id="edge29" class="edge">
<title>r11:e&#45;&gt;r10:n</title>
<path fill="none" stroke="black" d="M489,-214C558.97,-214 557.33,-273.77 624,-295 649.04,-302.97 841.98,-293.72 859.85,-313 870.72,-324.74 871.03,-337.56 859.85,-349 855,-353.96 835.21,-357.32 823.6,-355.56"/>
<polygon fill="black" stroke="black" points="825.3,-352.49 815,-350 821.5,-358.37 825.3,-352.49"/>
<text text-anchor="middle" x="809.5" y="-353.8" font-family="Times,serif" font-size="14.00">i1</text>
<text text-anchor="middle" x="510" y="-202.8" font-family="Times,serif" font-size="14.00">/right&#45;lt</text>
</g>
<!-- r11&#45;&gt;r11 -->
<g id="edge28" class="edge">
<title>r11:s&#45;&gt;r11:n</title>
<path fill="none" stroke="black" d="M425,-196C470.01,-185.5 560.04,-185.5 560.04,-214 560.04,-240.55 481.9,-242.37 434.82,-234"/>
<polygon fill="black" stroke="black" points="435.5,-230.57 425,-232 434.1,-237.43 435.5,-230.57"/>
<text text-anchor="middle" x="415.5" y="-220.8" font-family="Times,serif" font-size="14.00">left</text>
<text text-anchor="middle" x="406.5" y="-184.8" font-family="Times,serif" font-size="14.00">/left&#45;gt</text>
</g>
<!-- r14 -->
<g id="node19" class="node">
<title>r14</title>
<g id="a_node19"><a xlink:href="file:///Users/andrew/workspace/flow/flowstdlib/control/join/join.html" xlink:title="join (#14)">
<ellipse fill="coral" stroke="black" cx="260" cy="-127" rx="46.29" ry="18"/>
<text text-anchor="middle" x="260" y="-123.3" font-family="Times,serif" font-size="14.00">join (#14)</text>
</a>
</g>
</g>
<!-- r11&#45;&gt;r14 -->
<g id="edge30" class="edge">
<title>r11:sw&#45;&gt;r14:ne</title>
<path fill="none" stroke="black" d="M408,-196C389.17,-177.17 382.51,-173.39 358,-163 327.5,-150.07 307.47,-166.89 284.81,-151.53"/>
<polygon fill="black" stroke="black" points="286.92,-148.73 277,-145 282.42,-154.1 286.92,-148.73"/>
<text text-anchor="middle" x="257.5" y="-148.8" font-family="Times,serif" font-size="14.00">control</text>
<text text-anchor="middle" x="433.5" y="-184.8" font-family="Times,serif" font-size="14.00">/right&#45;gte</text>
</g>
<!-- r8 -->
<g id="node21" class="node">
<title>r8</title>
<g id="a_node21"><a xlink:href="file:///Users/andrew/workspace/flow/flowstdlib/math/add/add.html" xlink:title="subsequence&#45;count (#8)">
<ellipse fill="coral" stroke="black" cx="200" cy="-34" rx="94.78" ry="18"/>
<text text-anchor="middle" x="200" y="-30.3" font-family="Times,serif" font-size="14.00">subsequence&#45;count (#8)</text>
</a>
</g>
</g>
<!-- r14&#45;&gt;r8 -->
<g id="edge36" class="edge">
<title>r14:e&#45;&gt;r8:ne</title>
<path fill="none" stroke="black" d="M308,-127C316.01,-127 311.04,-115.92 307,-109 285.17,-71.6 256.18,-82.94 225.76,-58.92"/>
<polygon fill="black" stroke="black" points="227.79,-56.04 218,-52 223.13,-61.27 227.79,-56.04"/>
<text text-anchor="middle" x="212.5" y="-55.8" font-family="Times,serif" font-size="14.00">i2</text>
</g>
<!-- initializerr14_0 -->
<!-- initializerr14_0&#45;&gt;r14 -->
<g id="edge35" class="edge">
<title>initializerr14_0&#45;&gt;r14:nw</title>
<path fill="none" stroke="blue" d="M131.29,-202.57C163.78,-193.7 205.46,-178.1 235.6,-151.89"/>
<polygon fill="blue" stroke="blue" points="238.07,-154.38 243,-145 233.3,-149.25 238.07,-154.38"/>
<text text-anchor="middle" x="225.5" y="-166.8" font-family="Times,serif" font-size="14.00">1</text>
</g>
<!-- r8&#45;&gt;r8 -->
<g id="edge38" class="edge">
<title>r8:se&#45;&gt;r8:n</title>
<path fill="none" stroke="black" d="M218,-16C273.63,-5.5 366.89,-5.5 366.89,-34 366.89,-60.89 267.88,-62.41 209.96,-53.68"/>
<polygon fill="black" stroke="black" points="210.44,-50.21 200,-52 209.28,-57.11 210.44,-50.21"/>
<text text-anchor="middle" x="194.5" y="-55.8" font-family="Times,serif" font-size="14.00">i1</text>
<text text-anchor="middle" x="204" y="-4.8" font-family="Times,serif" font-size="14.00">/sum</text>
</g>
<!-- initializerr8_0 -->
<!-- initializerr8_0&#45;&gt;r8 -->
<g id="edge37" class="edge">
<title>initializerr8_0&#45;&gt;r8:ne</title>
<path fill="none" stroke="blue" stroke-dasharray="1,5" d="M114.14,-111.79C147.55,-97.08 196.48,-74.43 213.02,-61"/>
<polygon fill="blue" stroke="blue" points="216.22,-62.44 218,-52 210.09,-59.05 216.22,-62.44"/>
<text text-anchor="middle" x="201.5" y="-73.8" font-family="Times,serif" font-size="14.00">1</text>
</g>
</g>
</svg>
