<?xml version="1.0" encoding="UTF-8" standalone="no"?>
<!DOCTYPE svg PUBLIC "-//W3C//DTD SVG 1.1//EN"
 "http://www.w3.org/Graphics/SVG/1.1/DTD/svg11.dtd">
<!-- Generated by graphviz version 2.44.0 (20200408.0750)
 -->
<!-- Title: prime Pages: 1 -->
<svg width="1810pt" height="877pt"
 viewBox="0.00 0.00 1810.49 877.00" xmlns="http://www.w3.org/2000/svg" xmlns:xlink="http://www.w3.org/1999/xlink">
<g id="graph0" class="graph" transform="scale(1 1) rotate(0) translate(4 873)">
<title>prime</title>
<polygon fill="white" stroke="transparent" points="-4,4 -4,-873 1806.49,-873 1806.49,4 -4,4"/>
<text text-anchor="middle" x="901.25" y="-853.8" font-family="Times,serif" font-size="14.00">/prime</text>
<g id="clust1" class="cluster">
<title>cluster_candidates</title>
<polygon fill="none" stroke="black" points="1412,-436 1412,-783 1756,-783 1756,-436 1412,-436"/>
<text text-anchor="middle" x="1584" y="-767.8" font-family="Times,serif" font-size="14.00">/prime/candidates</text>
</g>
<g id="clust2" class="cluster">
<title>cluster_composites</title>
<polygon fill="none" stroke="black" points="8,-8 8,-652 1074,-652 1074,-8 8,-8"/>
<text text-anchor="middle" x="541" y="-636.8" font-family="Times,serif" font-size="14.00">/prime/composites</text>
</g>
<g id="clust3" class="cluster">
<title>cluster_divisors</title>
<polygon fill="none" stroke="black" points="584,-305 584,-621 1066,-621 1066,-305 584,-305"/>
<text text-anchor="middle" x="825" y="-605.8" font-family="Times,serif" font-size="14.00">/prime/composites/divisors</text>
</g>
<g id="clust4" class="cluster">
<title>cluster_generate_composites</title>
<polygon fill="none" stroke="black" points="154,-93 154,-403 536,-403 536,-93 154,-93"/>
<text text-anchor="middle" x="345" y="-387.8" font-family="Times,serif" font-size="14.00">/prime/composites/generate_composites</text>
</g>
<g id="clust5" class="cluster">
<title>cluster_composite_sequence</title>
<polygon fill="none" stroke="black" points="178,-101 178,-286 528,-286 528,-101 178,-101"/>
<text text-anchor="middle" x="353" y="-270.8" font-family="Times,serif" font-size="14.00">/prime/composites/generate_composites/composite&#45;sequence</text>
</g>
<!-- r0 -->
<g id="node1" class="node">
<title>r0</title>
<g id="a_node1"><a xlink:href="file:///Users/andrew/workspace/flow/flowruntime/args/get.html" xlink:title="args (#0)">
<ellipse fill="coral" stroke="black" cx="923" cy="-828" rx="42.49" ry="18"/>
<text text-anchor="middle" x="923" y="-824.3" font-family="Times,serif" font-size="14.00">args (#0)</text>
</a>
</g>
</g>
<!-- r1 -->
<g id="node2" class="node">
<title>r1</title>
<g id="a_node2"><a xlink:href="file:///Users/andrew/workspace/flow/flowstdlib/fmt/to_number/to_number.html" xlink:title="to_number (#1)">
<ellipse fill="coral" stroke="black" cx="906" cy="-711" rx="66.09" ry="18"/>
<text text-anchor="middle" x="906" y="-707.3" font-family="Times,serif" font-size="14.00">to_number (#1)</text>
</a>
</g>
</g>
<!-- r0&#45;&gt;r1 -->
<g id="edge1" class="edge">
<title>r0:sw&#45;&gt;r1:n</title>
<path fill="none" stroke="black" d="M906,-810C883.41,-787.41 901.41,-769.54 905.3,-740.35"/>
<polygon fill="black" stroke="black" points="908.82,-740.21 906,-730 901.83,-739.74 908.82,-740.21"/>
<text text-anchor="middle" x="900.5" y="-798.8" font-family="Times,serif" font-size="14.00">/1</text>
</g>
<!-- r2 -->
<g id="node3" class="node">
<title>r2</title>
<g id="a_node3"><a xlink:href="file:///Users/andrew/workspace/flow/flowstdlib/control/compare_switch/compare_switch.html" xlink:title="compare (#2)">
<ellipse fill="coral" stroke="black" cx="1672" cy="-549" rx="58.49" ry="18"/>
<text text-anchor="middle" x="1672" y="-545.3" font-family="Times,serif" font-size="14.00">compare (#2)</text>
</a>
</g>
</g>
<!-- r1&#45;&gt;r2 -->
<g id="edge2" class="edge">
<title>r1:e&#45;&gt;r2:n</title>
<path fill="none" stroke="black" d="M974,-711C1108.64,-711 1453.56,-705.76 1577,-652 1625.34,-630.94 1666.38,-625.09 1671.47,-578.28"/>
<polygon fill="black" stroke="black" points="1674.98,-578.17 1672,-568 1667.99,-577.81 1674.98,-578.17"/>
<text text-anchor="middle" x="1662.5" y="-571.8" font-family="Times,serif" font-size="14.00">left</text>
</g>
<!-- r4 -->
<g id="node4" class="node">
<title>r4</title>
<g id="a_node4"><a xlink:href="file:///Users/andrew/workspace/flow/flowstdlib/data/accumulate/accumulate.html" xlink:title="all&#45;numbers (#4)">
<ellipse fill="coral" stroke="black" cx="1490" cy="-462" rx="70.39" ry="18"/>
<text text-anchor="middle" x="1490" y="-458.3" font-family="Times,serif" font-size="14.00">all&#45;numbers (#4)</text>
</a>
</g>
</g>
<!-- r1&#45;&gt;r4 -->
<g id="edge3" class="edge">
<title>r1:e&#45;&gt;r4:nw</title>
<path fill="none" stroke="black" d="M974,-711C1099.65,-711 1081.59,-590.98 1192,-531 1204.56,-524.17 1414.23,-497.13 1462.52,-483.75"/>
<polygon fill="black" stroke="black" points="1463.99,-486.93 1472,-480 1461.41,-480.42 1463.99,-486.93"/>
<text text-anchor="middle" x="1441.5" y="-483.8" font-family="Times,serif" font-size="14.00">chunk_size</text>
</g>
<!-- r5 -->
<g id="node5" class="node">
<title>r5</title>
<g id="a_node5"><a xlink:href="file:///Users/andrew/workspace/flow/flowstdlib/math/sqrt/sqrt.html" xlink:title="sqrt (#5)">
<ellipse fill="coral" stroke="black" cx="535" cy="-549" rx="40.89" ry="18"/>
<text text-anchor="middle" x="535" y="-545.3" font-family="Times,serif" font-size="14.00">sqrt (#5)</text>
</a>
</g>
</g>
<!-- r1&#45;&gt;r5 -->
<g id="edge4" class="edge">
<title>r1:e&#45;&gt;r5:n</title>
<path fill="none" stroke="black" d="M974,-711C982.01,-711 978.53,-698.8 973,-693 912.43,-629.43 652.89,-700.96 580,-652 547.86,-630.41 536.88,-613.49 535.23,-578.4"/>
<polygon fill="black" stroke="black" points="538.72,-577.92 535,-568 531.72,-578.07 538.72,-577.92"/>
</g>
<!-- r11 -->
<g id="node6" class="node">
<title>r11</title>
<g id="a_node6"><a xlink:href="file:///Users/andrew/workspace/flow/flowstdlib/data/buffer/buffer.html" xlink:title="limit&#45;buffer (#11)">
<ellipse fill="coral" stroke="black" cx="235" cy="-331" rx="73.39" ry="18"/>
<text text-anchor="middle" x="235" y="-327.3" font-family="Times,serif" font-size="14.00">limit&#45;buffer (#11)</text>
</a>
</g>
</g>
<!-- r1&#45;&gt;r11 -->
<g id="edge5" class="edge">
<title>r1:e&#45;&gt;r11:n</title>
<path fill="none" stroke="black" d="M974,-711C982.01,-711 978.69,-698.64 973,-693 957.59,-677.74 604.63,-676.57 583,-675 479.66,-667.5 433.4,-714.83 351,-652 239.45,-566.95 235.15,-497.26 235,-360.4"/>
<polygon fill="black" stroke="black" points="238.5,-360 235,-350 231.5,-360 238.5,-360"/>
</g>
<!-- r2&#45;&gt;r2 -->
<g id="edge8" class="edge">
<title>r2:s&#45;&gt;r2:n</title>
<path fill="none" stroke="black" d="M1672,-531C1715.5,-520.5 1802.49,-520.5 1802.49,-549 1802.49,-575.44 1727.62,-577.35 1682.06,-569.11"/>
<polygon fill="black" stroke="black" points="1682.5,-565.62 1672,-567 1681.07,-572.47 1682.5,-565.62"/>
<text text-anchor="middle" x="1681.5" y="-570.8" font-family="Times,serif" font-size="14.00">left</text>
<text text-anchor="middle" x="1653.5" y="-519.8" font-family="Times,serif" font-size="14.00">/left&#45;gt</text>
</g>
<!-- r2&#45;&gt;r4 -->
<g id="edge7" class="edge">
<title>r2:e&#45;&gt;r4:n</title>
<path fill="none" stroke="black" d="M1732,-549C1740.01,-549 1736.12,-537.16 1731,-531 1726.07,-525.06 1603.56,-499.56 1596,-498 1576.26,-493.92 1514.37,-500.92 1495.51,-488.86"/>
<polygon fill="black" stroke="black" points="1498.25,-486.64 1490,-480 1492.31,-490.34 1498.25,-486.64"/>
<text text-anchor="middle" x="1507.5" y="-483.8" font-family="Times,serif" font-size="14.00">values</text>
<text text-anchor="middle" x="1756" y="-552.8" font-family="Times,serif" font-size="14.00">/right&#45;lte</text>
</g>
<!-- r3 -->
<g id="node8" class="node">
<title>r3</title>
<g id="a_node8"><a xlink:href="file:///Users/andrew/workspace/flow/flowstdlib/math/add/add.html" xlink:title="add (#3)">
<ellipse fill="coral" stroke="black" cx="1690" cy="-462" rx="40.09" ry="18"/>
<text text-anchor="middle" x="1690" y="-458.3" font-family="Times,serif" font-size="14.00">add (#3)</text>
</a>
</g>
</g>
<!-- r2&#45;&gt;r3 -->
<g id="edge9" class="edge">
<title>r2:e&#45;&gt;r3:n</title>
<path fill="none" stroke="black" d="M1732,-549C1740.01,-549 1735.32,-537.75 1731,-531 1721.78,-516.6 1707.3,-526.65 1697,-513 1690.3,-504.12 1689.69,-498.5 1689.82,-490.07"/>
<polygon fill="black" stroke="black" points="1693.32,-490.06 1690,-480 1686.32,-489.94 1693.32,-490.06"/>
<text text-anchor="middle" x="1684.5" y="-483.8" font-family="Times,serif" font-size="14.00">i1</text>
<text text-anchor="middle" x="1753" y="-537.8" font-family="Times,serif" font-size="14.00">/right&#45;lt</text>
</g>
<!-- r4&#45;&gt;r4 -->
<g id="edge14" class="edge">
<title>r4:s&#45;&gt;r4:nw</title>
<path fill="none" stroke="black" d="M1490,-444C1442.6,-433.5 1347.81,-433.5 1347.81,-462 1347.81,-488.55 1414.46,-490.37 1461.9,-482"/>
<polygon fill="black" stroke="black" points="1462.87,-485.38 1472,-480 1461.51,-478.51 1462.87,-485.38"/>
<text text-anchor="middle" x="1502.5" y="-483.8" font-family="Times,serif" font-size="14.00">chunk_size</text>
<text text-anchor="middle" x="1457.5" y="-432.8" font-family="Times,serif" font-size="14.00">/chunk_size</text>
</g>
<!-- r4&#45;&gt;r4 -->
<g id="edge15" class="edge">
<title>r4:e&#45;&gt;r4:ne</title>
<path fill="none" stroke="black" d="M1560,-462C1584.19,-451.5 1632.19,-451.5 1632.19,-471 1632.19,-489.17 1565.54,-490.41 1518.1,-482"/>
<polygon fill="black" stroke="black" points="1518.49,-478.51 1508,-480 1517.13,-485.38 1518.49,-478.51"/>
<text text-anchor="middle" x="1490.5" y="-468.8" font-family="Times,serif" font-size="14.00">partial</text>
<text text-anchor="middle" x="1579.5" y="-465.8" font-family="Times,serif" font-size="14.00">/partial</text>
</g>
<!-- r14 -->
<g id="node11" class="node">
<title>r14</title>
<g id="a_node11"><a xlink:href="file:///Users/andrew/workspace/flow/flowstdlib/data/remove/remove.html" xlink:title="subtract (#14)">
<ellipse fill="coral" stroke="black" cx="442" cy="-127" rx="59.59" ry="18"/>
<text text-anchor="middle" x="442" y="-123.3" font-family="Times,serif" font-size="14.00">subtract (#14)</text>
</a>
</g>
</g>
<!-- r4&#45;&gt;r14 -->
<g id="edge16" class="edge">
<title>r4:s&#45;&gt;r14:ne</title>
<path fill="none" stroke="black" d="M1490,-443C1490,-237.8 1249.79,-352.16 1053,-294 925.88,-256.43 573.84,-241.8 467.51,-151.89"/>
<polygon fill="black" stroke="black" points="469.74,-149.18 460,-145 465,-154.34 469.74,-149.18"/>
<text text-anchor="middle" x="446" y="-148.8" font-family="Times,serif" font-size="14.00">array</text>
<text text-anchor="middle" x="1508.5" y="-431.8" font-family="Times,serif" font-size="14.00">/chunk</text>
</g>
<!-- r6 -->
<g id="node12" class="node">
<title>r6</title>
<g id="a_node12"><a xlink:href="file:///Users/andrew/workspace/flow/flowstdlib/control/compare_switch/compare_switch.html" xlink:title="compare (#6)">
<ellipse fill="coral" stroke="black" cx="843" cy="-462" rx="58.49" ry="18"/>
<text text-anchor="middle" x="843" y="-458.3" font-family="Times,serif" font-size="14.00">compare (#6)</text>
</a>
</g>
</g>
<!-- r5&#45;&gt;r6 -->
<g id="edge17" class="edge">
<title>r5:e&#45;&gt;r6:n</title>
<path fill="none" stroke="black" d="M577,-549C581.06,-549 577.17,-533.91 580,-531 660.56,-448.29 832.19,-590 842.51,-490.08"/>
<polygon fill="black" stroke="black" points="846.01,-490.16 843,-480 839.02,-489.82 846.01,-490.16"/>
<text text-anchor="middle" x="833.5" y="-483.8" font-family="Times,serif" font-size="14.00">left</text>
</g>
<!-- r11&#45;&gt;r11 -->
<g id="edge34" class="edge">
<title>r11:e&#45;&gt;r11:n</title>
<path fill="none" stroke="black" d="M309,-331C332.44,-322 380.44,-322 380.44,-340 380.44,-356.84 295.58,-357.93 244.94,-350.63"/>
<polygon fill="black" stroke="black" points="245.43,-347.16 235,-349 244.3,-354.07 245.43,-347.16"/>
</g>
<!-- r9 -->
<g id="node19" class="node">
<title>r9</title>
<g id="a_node19"><a xlink:href="file:///Users/andrew/workspace/flow/flowstdlib/control/compare_switch/compare_switch.html" xlink:title="compare (#9)">
<ellipse fill="coral" stroke="black" cx="428" cy="-214" rx="58.49" ry="18"/>
<text text-anchor="middle" x="428" y="-210.3" font-family="Times,serif" font-size="14.00">compare (#9)</text>
</a>
</g>
</g>
<!-- r11&#45;&gt;r9 -->
<g id="edge35" class="edge">
<title>r11:e&#45;&gt;r9:n</title>
<path fill="none" stroke="black" d="M310,-331C317.37,-331 396.31,-263.01 420.8,-240.26"/>
<polygon fill="black" stroke="black" points="423.44,-242.56 428,-233 418.47,-237.64 423.44,-242.56"/>
<text text-anchor="middle" x="418.5" y="-236.8" font-family="Times,serif" font-size="14.00">left</text>
</g>
<!-- initializerr2_1 -->
<!-- initializerr2_1&#45;&gt;r2 -->
<g id="edge6" class="edge">
<title>initializerr2_1&#45;&gt;r2:ne</title>
<path fill="none" stroke="blue" stroke-dasharray="1,5" d="M1694.82,-693.04C1704.84,-665.2 1719.91,-609.47 1695.62,-574.88"/>
<polygon fill="blue" stroke="blue" points="1698.11,-572.41 1689,-567 1692.75,-576.91 1698.11,-572.41"/>
<text text-anchor="middle" x="1706.5" y="-663.8" font-family="Times,serif" font-size="14.00">1</text>
</g>
<!-- r3&#45;&gt;r2 -->
<g id="edge12" class="edge">
<title>r3:se&#45;&gt;r2:ne</title>
<path fill="none" stroke="black" d="M1707,-444C1746.05,-404.95 1769.07,-526.49 1730.49,-566 1725.81,-570.8 1709.47,-572.59 1698.39,-570.72"/>
<polygon fill="black" stroke="black" points="1699.59,-567.43 1689,-567 1697.01,-573.94 1699.59,-567.43"/>
<text text-anchor="middle" x="1702" y="-570.8" font-family="Times,serif" font-size="14.00">right</text>
<text text-anchor="middle" x="1693" y="-432.8" font-family="Times,serif" font-size="14.00">/sum</text>
</g>
<!-- r3&#45;&gt;r3 -->
<g id="edge11" class="edge">
<title>r3:se&#45;&gt;r3:ne</title>
<path fill="none" stroke="black" d="M1707,-445C1744.43,-434.5 1802.3,-434.5 1802.3,-462 1802.3,-487.14 1753.95,-489.3 1717.05,-481.46"/>
<polygon fill="black" stroke="black" points="1717.55,-477.98 1707,-479 1715.88,-484.78 1717.55,-477.98"/>
<text text-anchor="middle" x="1701.5" y="-482.8" font-family="Times,serif" font-size="14.00">i2</text>
<text text-anchor="middle" x="1714.5" y="-433.8" font-family="Times,serif" font-size="14.00">/i2</text>
</g>
<!-- initializerr3_1 -->
<!-- initializerr3_1&#45;&gt;r3 -->
<g id="edge10" class="edge">
<title>initializerr3_1&#45;&gt;r3:w</title>
<path fill="none" stroke="blue" stroke-dasharray="1,5" d="M1510.38,-533.13C1537.37,-519.43 1578.46,-498.49 1614,-480 1625.49,-474.02 1629.27,-466.77 1637.87,-463.6"/>
<polygon fill="blue" stroke="blue" points="1638.67,-467.02 1648,-462 1637.58,-460.11 1638.67,-467.02"/>
<text text-anchor="middle" x="1580.5" y="-501.8" font-family="Times,serif" font-size="14.00">1</text>
</g>
<!-- initializerr4_1 -->
<!-- initializerr4_1&#45;&gt;r4 -->
<g id="edge13" class="edge">
<title>initializerr4_1&#45;&gt;r4:n</title>
<path fill="none" stroke="blue" stroke-dasharray="1,5" d="M1333.84,-537.25C1384.36,-524.84 1461.44,-504.1 1483.75,-488.09"/>
<polygon fill="blue" stroke="blue" points="1486.66,-490.05 1490,-480 1481.12,-485.78 1486.66,-490.05"/>
<text text-anchor="middle" x="1465" y="-501.8" font-family="Times,serif" font-size="14.00">[]</text>
</g>
<!-- r14&#45;&gt;r14 -->
<g id="edge40" class="edge">
<title>r14:e&#45;&gt;r14:ne</title>
<path fill="none" stroke="black" d="M502,-127C525.79,-116.5 573.79,-116.5 573.79,-136 573.79,-154.09 513.66,-155.4 469.89,-147.11"/>
<polygon fill="black" stroke="black" points="470.51,-143.66 460,-145 469.05,-150.51 470.51,-143.66"/>
<text text-anchor="middle" x="474" y="-148.8" font-family="Times,serif" font-size="14.00">array</text>
</g>
<!-- r15 -->
<g id="node24" class="node">
<title>r15</title>
<g id="a_node24"><a xlink:href="file:///Users/andrew/workspace/flow/flowruntime/stdio/stdout.html" xlink:title="print (#15)">
<ellipse fill="coral" stroke="black" cx="1131" cy="-34" rx="48.99" ry="18"/>
<text text-anchor="middle" x="1131" y="-30.3" font-family="Times,serif" font-size="14.00">print (#15)</text>
</a>
</g>
</g>
<!-- r14&#45;&gt;r15 -->
<g id="edge41" class="edge">
<title>r14:e&#45;&gt;r15:n</title>
<path fill="none" stroke="black" d="M503,-127C568.39,-127 1029.14,-108.92 1090,-85 1108.03,-77.91 1124.31,-75.97 1129.38,-62.23"/>
<polygon fill="black" stroke="black" points="1132.89,-62.42 1131,-52 1125.98,-61.33 1132.89,-62.42"/>
</g>
<!-- r6&#45;&gt;r6 -->
<g id="edge21" class="edge">
<title>r6:s&#45;&gt;r6:n</title>
<path fill="none" stroke="black" d="M843,-444C886.5,-433.5 973.49,-433.5 973.49,-462 973.49,-488.44 898.62,-490.35 853.06,-482.11"/>
<polygon fill="black" stroke="black" points="853.5,-478.62 843,-480 852.07,-485.47 853.5,-478.62"/>
<text text-anchor="middle" x="852.5" y="-483.8" font-family="Times,serif" font-size="14.00">left</text>
<text text-anchor="middle" x="824.5" y="-432.8" font-family="Times,serif" font-size="14.00">/left&#45;gt</text>
</g>
<!-- r8 -->
<g id="node14" class="node">
<title>r8</title>
<g id="a_node14"><a xlink:href="file:///Users/andrew/workspace/flow/flowstdlib/math/multiply/multiply.html" xlink:title="multiply (#8)">
<ellipse fill="coral" stroke="black" cx="1000" cy="-331" rx="57.69" ry="18"/>
<text text-anchor="middle" x="1000" y="-327.3" font-family="Times,serif" font-size="14.00">multiply (#8)</text>
</a>
</g>
</g>
<!-- r6&#45;&gt;r8 -->
<g id="edge19" class="edge">
<title>r6:e&#45;&gt;r8:n</title>
<path fill="none" stroke="black" d="M903,-462C965.38,-462 996.62,-420.59 999.74,-360.25"/>
<polygon fill="black" stroke="black" points="1003.24,-360.09 1000,-350 996.25,-359.91 1003.24,-360.09"/>
<text text-anchor="middle" x="994.5" y="-353.8" font-family="Times,serif" font-size="14.00">i1</text>
<text text-anchor="middle" x="927" y="-465.8" font-family="Times,serif" font-size="14.00">/right&#45;lte</text>
</g>
<!-- r10 -->
<g id="node15" class="node">
<title>r10</title>
<g id="a_node15"><a xlink:href="file:///Users/andrew/workspace/flow/flowstdlib/math/add/add.html" xlink:title="add (#10)">
<ellipse fill="coral" stroke="black" cx="807" cy="-331" rx="44.69" ry="18"/>
<text text-anchor="middle" x="807" y="-327.3" font-family="Times,serif" font-size="14.00">add (#10)</text>
</a>
</g>
</g>
<!-- r6&#45;&gt;r10 -->
<g id="edge20" class="edge">
<title>r6:e&#45;&gt;r10:ne</title>
<path fill="none" stroke="black" d="M903,-462C916.76,-462 906.83,-434.5 892,-411 872.14,-379.52 856.06,-377.94 831.52,-356.11"/>
<polygon fill="black" stroke="black" points="833.67,-353.32 824,-349 828.87,-358.41 833.67,-353.32"/>
<text text-anchor="middle" x="818.5" y="-352.8" font-family="Times,serif" font-size="14.00">i2</text>
<text text-anchor="middle" x="927" y="-450.8" font-family="Times,serif" font-size="14.00">/right&#45;lte</text>
</g>
<!-- r7 -->
<g id="node16" class="node">
<title>r7</title>
<g id="a_node16"><a xlink:href="file:///Users/andrew/workspace/flow/flowstdlib/math/add/add.html" xlink:title="add (#7)">
<ellipse fill="coral" stroke="black" cx="632" cy="-331" rx="40.09" ry="18"/>
<text text-anchor="middle" x="632" y="-327.3" font-family="Times,serif" font-size="14.00">add (#7)</text>
</a>
</g>
</g>
<!-- r6&#45;&gt;r7 -->
<g id="edge22" class="edge">
<title>r6:e&#45;&gt;r7:n</title>
<path fill="none" stroke="black" d="M903,-462C942.61,-462 972.92,-449.64 843,-411 752.91,-384.2 640.68,-442.96 632.48,-360.21"/>
<polygon fill="black" stroke="black" points="635.96,-359.83 632,-350 628.97,-360.15 635.96,-359.83"/>
<text text-anchor="middle" x="626.5" y="-353.8" font-family="Times,serif" font-size="14.00">i1</text>
<text text-anchor="middle" x="882" y="-465.8" font-family="Times,serif" font-size="14.00">/right&#45;lt</text>
</g>
<!-- initializerr6_1 -->
<!-- initializerr6_1&#45;&gt;r6 -->
<g id="edge18" class="edge">
<title>initializerr6_1&#45;&gt;r6:ne</title>
<path fill="none" stroke="blue" stroke-dasharray="1,5" d="M865.96,-530.94C869.38,-518.33 871.91,-501.18 865.75,-488.21"/>
<polygon fill="blue" stroke="blue" points="868.6,-486.18 860,-480 862.87,-490.2 868.6,-486.18"/>
<text text-anchor="middle" x="873.5" y="-501.8" font-family="Times,serif" font-size="14.00">2</text>
</g>
<!-- r8&#45;&gt;r9 -->
<g id="edge27" class="edge">
<title>r8:e&#45;&gt;r9:ne</title>
<path fill="none" stroke="black" d="M1059,-331C1067.01,-331 1063.45,-318.88 1058,-313 966.87,-214.68 562.59,-323.58 452.69,-238.74"/>
<polygon fill="black" stroke="black" points="454.83,-235.96 445,-232 450.21,-241.22 454.83,-235.96"/>
<text text-anchor="middle" x="458" y="-235.8" font-family="Times,serif" font-size="14.00">right</text>
</g>
<!-- r10&#45;&gt;r10 -->
<g id="edge32" class="edge">
<title>r10:se&#45;&gt;r10:ne</title>
<path fill="none" stroke="black" d="M824,-314C862.95,-305 923.85,-305 923.85,-331 923.85,-354.87 872.53,-356.83 833.98,-350.02"/>
<polygon fill="black" stroke="black" points="834.5,-346.56 824,-348 833.11,-353.42 834.5,-346.56"/>
<text text-anchor="middle" x="829.5" y="-351.8" font-family="Times,serif" font-size="14.00">i2</text>
<text text-anchor="middle" x="816.5" y="-302.8" font-family="Times,serif" font-size="14.00">/i2</text>
</g>
<!-- r10&#45;&gt;r9 -->
<g id="edge33" class="edge">
<title>r10:se&#45;&gt;r9:ne</title>
<path fill="none" stroke="black" d="M824,-313C882.64,-254.36 533.42,-290.01 453.06,-238.37"/>
<polygon fill="black" stroke="black" points="455.01,-235.46 445,-232 450.67,-240.95 455.01,-235.46"/>
<text text-anchor="middle" x="432" y="-235.8" font-family="Times,serif" font-size="14.00">right</text>
<text text-anchor="middle" x="838" y="-301.8" font-family="Times,serif" font-size="14.00">/sum</text>
</g>
<!-- r7&#45;&gt;r6 -->
<g id="edge25" class="edge">
<title>r7:se&#45;&gt;r6:ne</title>
<path fill="none" stroke="black" d="M649,-313C686.22,-275.78 684.56,-370.53 726,-403 753.11,-424.24 766.53,-417.87 800,-426 822.26,-431.41 886.78,-426.45 901.49,-444 911.49,-455.92 912.36,-467.87 901.49,-479 896.81,-483.8 880.47,-485.59 869.39,-483.72"/>
<polygon fill="black" stroke="black" points="870.59,-480.43 860,-480 868.01,-486.94 870.59,-480.43"/>
<text text-anchor="middle" x="873" y="-483.8" font-family="Times,serif" font-size="14.00">right</text>
<text text-anchor="middle" x="635" y="-301.8" font-family="Times,serif" font-size="14.00">/sum</text>
</g>
<!-- r7&#45;&gt;r7 -->
<g id="edge24" class="edge">
<title>r7:se&#45;&gt;r7:ne</title>
<path fill="none" stroke="black" d="M649,-314C686.43,-305 744.3,-305 744.3,-331 744.3,-354.77 695.95,-356.81 659.05,-350.11"/>
<polygon fill="black" stroke="black" points="659.51,-346.63 649,-348 658.07,-353.48 659.51,-346.63"/>
<text text-anchor="middle" x="643.5" y="-351.8" font-family="Times,serif" font-size="14.00">i2</text>
<text text-anchor="middle" x="656.5" y="-302.8" font-family="Times,serif" font-size="14.00">/i2</text>
</g>
<!-- initializerr7_1 -->
<!-- initializerr7_1&#45;&gt;r7 -->
<g id="edge23" class="edge">
<title>initializerr7_1&#45;&gt;r7:w</title>
<path fill="none" stroke="blue" stroke-dasharray="1,5" d="M636.75,-444.54C607.88,-412.42 550.69,-343.59 579.99,-332.52"/>
<polygon fill="blue" stroke="blue" points="580.64,-335.96 590,-331 579.59,-329.04 580.64,-335.96"/>
<text text-anchor="middle" x="623.5" y="-414.8" font-family="Times,serif" font-size="14.00">1</text>
</g>
<!-- initializerr8_1 -->
<!-- initializerr8_1&#45;&gt;r8 -->
<g id="edge26" class="edge">
<title>initializerr8_1&#45;&gt;r8:w</title>
<path fill="none" stroke="blue" d="M477.29,-348.36C497.27,-366.02 531.11,-392.28 566,-403 602.11,-414.1 874.1,-423.24 906,-403 932.52,-386.17 911.76,-342.94 931.01,-333.04"/>
<polygon fill="blue" stroke="blue" points="931.9,-336.43 941,-331 930.5,-329.57 931.9,-336.43"/>
<text text-anchor="middle" x="822" y="-414.8" font-family="Times,serif" font-size="14.00">2</text>
</g>
<!-- r9&#45;&gt;r14 -->
<g id="edge28" class="edge">
<title>r9:e&#45;&gt;r14:n</title>
<path fill="none" stroke="black" d="M488,-214C496.01,-214 490.04,-203.41 487,-196 477.01,-171.64 450.28,-173.96 443.55,-154.98"/>
<polygon fill="black" stroke="black" points="447,-154.34 442,-145 440.08,-155.42 447,-154.34"/>
<text text-anchor="middle" x="427" y="-148.8" font-family="Times,serif" font-size="14.00">value</text>
<text text-anchor="middle" x="512" y="-217.8" font-family="Times,serif" font-size="14.00">/right&#45;lte</text>
</g>
<!-- r9&#45;&gt;r10 -->
<g id="edge30" class="edge">
<title>r9:e&#45;&gt;r10:n</title>
<path fill="none" stroke="black" d="M488,-214C556.08,-214 553.32,-273.78 618,-295 642.76,-303.12 834.14,-293.88 851.85,-313 862.72,-324.74 863.03,-337.56 851.85,-349 847,-353.96 827.21,-357.32 815.6,-355.56"/>
<polygon fill="black" stroke="black" points="817.3,-352.49 807,-350 813.5,-358.37 817.3,-352.49"/>
<text text-anchor="middle" x="801.5" y="-353.8" font-family="Times,serif" font-size="14.00">i1</text>
<text text-anchor="middle" x="509" y="-202.8" font-family="Times,serif" font-size="14.00">/right&#45;lt</text>
</g>
<!-- r9&#45;&gt;r9 -->
<g id="edge29" class="edge">
<title>r9:s&#45;&gt;r9:n</title>
<path fill="none" stroke="black" d="M428,-196C471.5,-185.5 558.49,-185.5 558.49,-214 558.49,-240.44 483.62,-242.35 438.06,-234.11"/>
<polygon fill="black" stroke="black" points="438.5,-230.62 428,-232 437.07,-237.47 438.5,-230.62"/>
<text text-anchor="middle" x="418.5" y="-220.8" font-family="Times,serif" font-size="14.00">left</text>
<text text-anchor="middle" x="409.5" y="-184.8" font-family="Times,serif" font-size="14.00">/left&#45;gt</text>
</g>
<!-- r12 -->
<g id="node20" class="node">
<title>r12</title>
<g id="a_node20"><a xlink:href="file:///Users/andrew/workspace/flow/flowstdlib/control/join/join.html" xlink:title="join (#12)">
<ellipse fill="coral" stroke="black" cx="264" cy="-127" rx="46.29" ry="18"/>
<text text-anchor="middle" x="264" y="-123.3" font-family="Times,serif" font-size="14.00">join (#12)</text>
</a>
</g>
</g>
<!-- r9&#45;&gt;r12 -->
<g id="edge31" class="edge">
<title>r9:sw&#45;&gt;r12:ne</title>
<path fill="none" stroke="black" d="M411,-196C392.95,-177.95 387.38,-173.24 364,-163 332.8,-149.33 312.06,-167.41 288.69,-151.46"/>
<polygon fill="black" stroke="black" points="290.91,-148.75 281,-145 286.41,-154.11 290.91,-148.75"/>
<text text-anchor="middle" x="261.5" y="-148.8" font-family="Times,serif" font-size="14.00">control</text>
<text text-anchor="middle" x="436.5" y="-184.8" font-family="Times,serif" font-size="14.00">/right&#45;gte</text>
</g>
<!-- r13 -->
<g id="node22" class="node">
<title>r13</title>
<g id="a_node22"><a xlink:href="file:///Users/andrew/workspace/flow/flowstdlib/math/add/add.html" xlink:title="subsequence&#45;count (#13)">
<ellipse fill="coral" stroke="black" cx="204" cy="-34" rx="98.58" ry="18"/>
<text text-anchor="middle" x="204" y="-30.3" font-family="Times,serif" font-size="14.00">subsequence&#45;count (#13)</text>
</a>
</g>
</g>
<!-- r12&#45;&gt;r13 -->
<g id="edge37" class="edge">
<title>r12:e&#45;&gt;r13:ne</title>
<path fill="none" stroke="black" d="M312,-127C320.01,-127 315.04,-115.92 311,-109 289.17,-71.6 260.18,-82.94 229.76,-58.92"/>
<polygon fill="black" stroke="black" points="231.79,-56.04 222,-52 227.13,-61.27 231.79,-56.04"/>
<text text-anchor="middle" x="216.5" y="-55.8" font-family="Times,serif" font-size="14.00">i2</text>
</g>
<!-- initializerr12_0 -->
<!-- initializerr12_0&#45;&gt;r12 -->
<g id="edge36" class="edge">
<title>initializerr12_0&#45;&gt;r12:nw</title>
<path fill="none" stroke="blue" d="M132.6,-202.96C165.92,-194.26 208.64,-178.73 239.44,-152.03"/>
<polygon fill="blue" stroke="blue" points="242.06,-154.37 247,-145 237.29,-149.25 242.06,-154.37"/>
<text text-anchor="middle" x="228.5" y="-166.8" font-family="Times,serif" font-size="14.00">1</text>
</g>
<!-- r13&#45;&gt;r13 -->
<g id="edge39" class="edge">
<title>r13:se&#45;&gt;r13:n</title>
<path fill="none" stroke="black" d="M222,-16C278.93,-5.5 374.79,-5.5 374.79,-34 374.79,-60.89 273.46,-62.41 214.19,-53.68"/>
<polygon fill="black" stroke="black" points="214.44,-50.17 204,-52 213.3,-57.08 214.44,-50.17"/>
<text text-anchor="middle" x="198.5" y="-55.8" font-family="Times,serif" font-size="14.00">i1</text>
<text text-anchor="middle" x="208" y="-4.8" font-family="Times,serif" font-size="14.00">/sum</text>
</g>
<!-- initializerr13_0 -->
<!-- initializerr13_0&#45;&gt;r13 -->
<g id="edge38" class="edge">
<title>initializerr13_0&#45;&gt;r13:ne</title>
<path fill="none" stroke="blue" stroke-dasharray="1,5" d="M115.47,-111.68C150.03,-96.94 200.46,-74.28 217.14,-60.86"/>
<polygon fill="blue" stroke="blue" points="220.26,-62.45 222,-52 214.12,-59.08 220.26,-62.45"/>
<text text-anchor="middle" x="204.5" y="-73.8" font-family="Times,serif" font-size="14.00">1</text>
</g>
</g>
</svg>
