<?xml version="1.0" encoding="UTF-8" standalone="no"?>
<!DOCTYPE svg PUBLIC "-//W3C//DTD SVG 1.1//EN"
 "http://www.w3.org/Graphics/SVG/1.1/DTD/svg11.dtd">
<!-- Generated by graphviz version 2.44.1 (20200629.0846)
 -->
<!-- Title: prime Pages: 1 -->
<svg width="1810pt" height="822pt"
 viewBox="0.00 0.00 1810.04 822.00" xmlns="http://www.w3.org/2000/svg" xmlns:xlink="http://www.w3.org/1999/xlink">
<g id="graph0" class="graph" transform="scale(1 1) rotate(0) translate(4 818)">
<title>prime</title>
<polygon fill="white" stroke="transparent" points="-4,4 -4,-818 1806.04,-818 1806.04,4 -4,4"/>
<text text-anchor="middle" x="901.02" y="-798.8" font-family="Times,serif" font-size="14.00">/prime</text>
<g id="clust1" class="cluster">
<title>cluster_candidates</title>
<polygon fill="none" stroke="black" points="1394,-436 1394,-783 1756,-783 1756,-436 1394,-436"/>
<text text-anchor="middle" x="1575" y="-767.8" font-family="Times,serif" font-size="14.00">/prime/candidates</text>
</g>
<g id="clust2" class="cluster">
<title>cluster_composites</title>
<polygon fill="none" stroke="black" points="8,-8 8,-652 1056,-652 1056,-8 8,-8"/>
<text text-anchor="middle" x="532" y="-636.8" font-family="Times,serif" font-size="14.00">/prime/composites</text>
</g>
<g id="clust3" class="cluster">
<title>cluster_divisors</title>
<polygon fill="none" stroke="black" points="566,-305 566,-621 1048,-621 1048,-305 566,-305"/>
<text text-anchor="middle" x="807" y="-605.8" font-family="Times,serif" font-size="14.00">/prime/composites/divisors</text>
</g>
<g id="clust4" class="cluster">
<title>cluster_generate_composites</title>
<polygon fill="none" stroke="black" points="144,-93 144,-403 516,-403 516,-93 144,-93"/>
<text text-anchor="middle" x="330" y="-387.8" font-family="Times,serif" font-size="14.00">/prime/composites/generate_composites</text>
</g>
<g id="clust5" class="cluster">
<title>cluster_composite_sequence</title>
<polygon fill="none" stroke="black" points="158,-101 158,-286 508,-286 508,-101 158,-101"/>
<text text-anchor="middle" x="333" y="-270.8" font-family="Times,serif" font-size="14.00">/prime/composites/generate_composites/composite&#45;sequence</text>
</g>
<!-- r0 -->
<g id="node1" class="node">
<title>r0</title>
<g id="a_node1"><a xlink:href="file:///Users/andrew/workspace/flow/flowr/src/lib/flowruntime/args/get.html" xlink:title="args (#0)">
<ellipse fill="coral" stroke="black" cx="912" cy="-711" rx="42.49" ry="18"/>
<text text-anchor="middle" x="912" y="-707.3" font-family="Times,serif" font-size="14.00">args (#0)</text>
</a>
</g>
</g>
<!-- r14 -->
<g id="node2" class="node">
<title>r14</title>
<g id="a_node2"><a xlink:href="file:///Users/andrew/workspace/flow/flowstdlib/control/compare_switch/compare_switch.html" xlink:title="compare (#14)">
<ellipse fill="coral" stroke="black" cx="1667" cy="-549" rx="63.09" ry="18"/>
<text text-anchor="middle" x="1667" y="-545.3" font-family="Times,serif" font-size="14.00">compare (#14)</text>
</a>
</g>
</g>
<!-- r0&#45;&gt;r14 -->
<g id="edge1" class="edge">
<title>r0:e&#45;&gt;r14:n</title>
<path fill="none" stroke="black" d="M956,-711C1092.63,-711 1442.15,-705.19 1568,-652 1617.83,-630.94 1661.24,-626.26 1666.47,-578.21"/>
<polygon fill="black" stroke="black" points="1669.98,-578.17 1667,-568 1662.99,-577.81 1669.98,-578.17"/>
<text text-anchor="middle" x="1657.5" y="-571.8" font-family="Times,serif" font-size="14.00">left</text>
<text text-anchor="middle" x="974.5" y="-714.8" font-family="Times,serif" font-size="14.00">/json/1</text>
</g>
<!-- r1 -->
<g id="node3" class="node">
<title>r1</title>
<g id="a_node3"><a xlink:href="file:///Users/andrew/workspace/flow/flowstdlib/data/accumulate/accumulate.html" xlink:title="all&#45;numbers (#1)">
<ellipse fill="coral" stroke="black" cx="1472" cy="-462" rx="70.39" ry="18"/>
<text text-anchor="middle" x="1472" y="-458.3" font-family="Times,serif" font-size="14.00">all&#45;numbers (#1)</text>
</a>
</g>
</g>
<!-- r0&#45;&gt;r1 -->
<g id="edge2" class="edge">
<title>r0:e&#45;&gt;r1:nw</title>
<path fill="none" stroke="black" d="M956,-711C1081.65,-711 1063.59,-590.98 1174,-531 1186.56,-524.17 1396.23,-497.13 1444.52,-483.75"/>
<polygon fill="black" stroke="black" points="1445.99,-486.93 1454,-480 1443.41,-480.42 1445.99,-486.93"/>
<text text-anchor="middle" x="1423.5" y="-483.8" font-family="Times,serif" font-size="14.00">chunk_size</text>
<text text-anchor="middle" x="974.5" y="-699.8" font-family="Times,serif" font-size="14.00">/json/1</text>
</g>
<!-- r8 -->
<g id="node4" class="node">
<title>r8</title>
<g id="a_node4"><a xlink:href="file:///Users/andrew/workspace/flow/flowstdlib/math/sqrt/sqrt.html" xlink:title="sqrt (#8)">
<ellipse fill="coral" stroke="black" cx="517" cy="-549" rx="40.89" ry="18"/>
<text text-anchor="middle" x="517" y="-545.3" font-family="Times,serif" font-size="14.00">sqrt (#8)</text>
</a>
</g>
</g>
<!-- r0&#45;&gt;r8 -->
<g id="edge3" class="edge">
<title>r0:e&#45;&gt;r8:n</title>
<path fill="none" stroke="black" d="M956,-711C964.01,-711 960.53,-698.8 955,-693 894.43,-629.43 634.89,-700.96 562,-652 529.86,-630.41 518.88,-613.49 517.23,-578.4"/>
<polygon fill="black" stroke="black" points="520.72,-577.92 517,-568 513.72,-578.07 520.72,-577.92"/>
<text text-anchor="middle" x="937.5" y="-714.8" font-family="Times,serif" font-size="14.00">/json/1</text>
</g>
<!-- r2 -->
<g id="node5" class="node">
<title>r2</title>
<g id="a_node5"><a xlink:href="file:///Users/andrew/workspace/flow/flowstdlib/data/buffer/buffer.html" xlink:title="limit&#45;buffer (#2)">
<ellipse fill="coral" stroke="black" cx="222" cy="-331" rx="69.59" ry="18"/>
<text text-anchor="middle" x="222" y="-327.3" font-family="Times,serif" font-size="14.00">limit&#45;buffer (#2)</text>
</a>
</g>
</g>
<!-- r0&#45;&gt;r2 -->
<g id="edge4" class="edge">
<title>r0:e&#45;&gt;r2:n</title>
<path fill="none" stroke="black" d="M956,-711C964.01,-711 960.69,-698.64 955,-693 939.59,-677.74 586.63,-676.58 565,-675 462.98,-667.53 417.12,-714.31 336,-652 225,-566.74 222.08,-496.95 222,-360.38"/>
<polygon fill="black" stroke="black" points="225.5,-360 222,-350 218.5,-360 225.5,-360"/>
<text text-anchor="middle" x="937.5" y="-699.8" font-family="Times,serif" font-size="14.00">/json/1</text>
</g>
<!-- r14&#45;&gt;r14 -->
<g id="edge7" class="edge">
<title>r14:s&#45;&gt;r14:n</title>
<path fill="none" stroke="black" d="M1667,-531C1712.01,-520.5 1802.04,-520.5 1802.04,-549 1802.04,-575.55 1723.9,-577.37 1676.82,-569"/>
<polygon fill="black" stroke="black" points="1677.5,-565.57 1667,-567 1676.1,-572.43 1677.5,-565.57"/>
<text text-anchor="middle" x="1676.5" y="-570.8" font-family="Times,serif" font-size="14.00">left</text>
<text text-anchor="middle" x="1648.5" y="-519.8" font-family="Times,serif" font-size="14.00">/left&#45;gt</text>
</g>
<!-- r14&#45;&gt;r1 -->
<g id="edge6" class="edge">
<title>r14:e&#45;&gt;r1:n</title>
<path fill="none" stroke="black" d="M1731,-549C1739.01,-549 1735.2,-537.1 1730,-531 1724.39,-524.43 1586.48,-499.64 1578,-498 1558.21,-494.17 1496.35,-501 1477.51,-488.87"/>
<polygon fill="black" stroke="black" points="1480.25,-486.65 1472,-480 1474.3,-490.34 1480.25,-486.65"/>
<text text-anchor="middle" x="1489.5" y="-483.8" font-family="Times,serif" font-size="14.00">values</text>
<text text-anchor="middle" x="1755" y="-552.8" font-family="Times,serif" font-size="14.00">/right&#45;lte</text>
</g>
<!-- r13 -->
<g id="node7" class="node">
<title>r13</title>
<g id="a_node7"><a xlink:href="file:///Users/andrew/workspace/flow/flowstdlib/math/add/add.html" xlink:title="add (#13)">
<ellipse fill="coral" stroke="black" cx="1677" cy="-462" rx="44.69" ry="18"/>
<text text-anchor="middle" x="1677" y="-458.3" font-family="Times,serif" font-size="14.00">add (#13)</text>
</a>
</g>
</g>
<!-- r14&#45;&gt;r13 -->
<g id="edge8" class="edge">
<title>r14:e&#45;&gt;r13:n</title>
<path fill="none" stroke="black" d="M1731,-549C1739.01,-549 1734.7,-537.49 1730,-531 1717.13,-513.22 1698.2,-529.74 1684,-513 1676.8,-504.51 1676.43,-498.71 1676.72,-490.14"/>
<polygon fill="black" stroke="black" points="1680.22,-490.09 1677,-480 1673.23,-489.9 1680.22,-490.09"/>
<text text-anchor="middle" x="1671.5" y="-483.8" font-family="Times,serif" font-size="14.00">i1</text>
<text text-anchor="middle" x="1752" y="-537.8" font-family="Times,serif" font-size="14.00">/right&#45;lt</text>
</g>
<!-- r1&#45;&gt;r1 -->
<g id="edge13" class="edge">
<title>r1:s&#45;&gt;r1:nw</title>
<path fill="none" stroke="black" d="M1472,-444C1424.6,-433.5 1329.81,-433.5 1329.81,-462 1329.81,-488.55 1396.46,-490.37 1443.9,-482"/>
<polygon fill="black" stroke="black" points="1444.87,-485.38 1454,-480 1443.51,-478.51 1444.87,-485.38"/>
<text text-anchor="middle" x="1484.5" y="-483.8" font-family="Times,serif" font-size="14.00">chunk_size</text>
<text text-anchor="middle" x="1439.5" y="-432.8" font-family="Times,serif" font-size="14.00">/chunk_size</text>
</g>
<!-- r1&#45;&gt;r1 -->
<g id="edge14" class="edge">
<title>r1:e&#45;&gt;r1:ne</title>
<path fill="none" stroke="black" d="M1542,-462C1566.19,-451.5 1614.19,-451.5 1614.19,-471 1614.19,-489.17 1547.54,-490.41 1500.1,-482"/>
<polygon fill="black" stroke="black" points="1500.49,-478.51 1490,-480 1499.13,-485.38 1500.49,-478.51"/>
<text text-anchor="middle" x="1472.5" y="-468.8" font-family="Times,serif" font-size="14.00">partial</text>
<text text-anchor="middle" x="1561.5" y="-465.8" font-family="Times,serif" font-size="14.00">/partial</text>
</g>
<!-- r11 -->
<g id="node10" class="node">
<title>r11</title>
<g id="a_node10"><a xlink:href="file:///Users/andrew/workspace/flow/flowstdlib/data/remove/remove.html" xlink:title="remove (#11)">
<ellipse fill="coral" stroke="black" cx="423" cy="-127" rx="59.29" ry="18"/>
<text text-anchor="middle" x="423" y="-123.3" font-family="Times,serif" font-size="14.00">remove (#11)</text>
</a>
</g>
</g>
<!-- r1&#45;&gt;r11 -->
<g id="edge15" class="edge">
<title>r1:s&#45;&gt;r11:ne</title>
<path fill="none" stroke="black" d="M1472,-443C1472,-237.8 1231.81,-352.09 1035,-294 907.46,-256.36 554.2,-242.08 447.54,-151.91"/>
<polygon fill="black" stroke="black" points="449.74,-149.18 440,-145 445,-154.34 449.74,-149.18"/>
<text text-anchor="middle" x="426" y="-148.8" font-family="Times,serif" font-size="14.00">array</text>
<text text-anchor="middle" x="1490.5" y="-431.8" font-family="Times,serif" font-size="14.00">/chunk</text>
</g>
<!-- r9 -->
<g id="node11" class="node">
<title>r9</title>
<g id="a_node11"><a xlink:href="file:///Users/andrew/workspace/flow/flowstdlib/control/compare_switch/compare_switch.html" xlink:title="compare (#9)">
<ellipse fill="coral" stroke="black" cx="834" cy="-462" rx="58.49" ry="18"/>
<text text-anchor="middle" x="834" y="-458.3" font-family="Times,serif" font-size="14.00">compare (#9)</text>
</a>
</g>
</g>
<!-- r8&#45;&gt;r9 -->
<g id="edge16" class="edge">
<title>r8:e&#45;&gt;r9:n</title>
<path fill="none" stroke="black" d="M559,-549C563.06,-549 559.16,-533.9 562,-531 645.57,-445.73 823.19,-593.84 833.53,-490.1"/>
<polygon fill="black" stroke="black" points="837.03,-490.15 834,-480 830.04,-489.83 837.03,-490.15"/>
<text text-anchor="middle" x="824.5" y="-483.8" font-family="Times,serif" font-size="14.00">left</text>
</g>
<!-- r2&#45;&gt;r2 -->
<g id="edge33" class="edge">
<title>r2:e&#45;&gt;r2:n</title>
<path fill="none" stroke="black" d="M292,-331C315.54,-322 363.54,-322 363.54,-340 363.54,-356.8 281.3,-357.92 231.98,-350.67"/>
<polygon fill="black" stroke="black" points="232.44,-347.2 222,-349 231.28,-354.1 232.44,-347.2"/>
</g>
<!-- r4 -->
<g id="node18" class="node">
<title>r4</title>
<g id="a_node18"><a xlink:href="file:///Users/andrew/workspace/flow/flowstdlib/control/compare_switch/compare_switch.html" xlink:title="compare (#4)">
<ellipse fill="coral" stroke="black" cx="409" cy="-214" rx="58.49" ry="18"/>
<text text-anchor="middle" x="409" y="-210.3" font-family="Times,serif" font-size="14.00">compare (#4)</text>
</a>
</g>
</g>
<!-- r2&#45;&gt;r4 -->
<g id="edge34" class="edge">
<title>r2:e&#45;&gt;r4:n</title>
<path fill="none" stroke="black" d="M293,-331C299.9,-331 378.45,-264.6 402.22,-240.96"/>
<polygon fill="black" stroke="black" points="405.19,-242.88 409,-233 399.85,-238.35 405.19,-242.88"/>
<text text-anchor="middle" x="399.5" y="-236.8" font-family="Times,serif" font-size="14.00">left</text>
</g>
<!-- initializerr14_1 -->
<!-- initializerr14_1&#45;&gt;r14 -->
<g id="edge5" class="edge">
<title>initializerr14_1&#45;&gt;r14:ne</title>
<path fill="none" stroke="blue" stroke-dasharray="1,5" d="M1689.82,-693.04C1699.84,-665.2 1714.91,-609.47 1690.62,-574.88"/>
<polygon fill="blue" stroke="blue" points="1693.11,-572.41 1684,-567 1687.75,-576.91 1693.11,-572.41"/>
<text text-anchor="middle" x="1701.5" y="-663.8" font-family="Times,serif" font-size="14.00">1</text>
</g>
<!-- r13&#45;&gt;r14 -->
<g id="edge11" class="edge">
<title>r13:se&#45;&gt;r14:ne</title>
<path fill="none" stroke="black" d="M1694,-444C1733.98,-404.02 1769.59,-525.59 1730.04,-566 1724.68,-571.49 1705.53,-573.38 1693.24,-570.93"/>
<polygon fill="black" stroke="black" points="1694.57,-567.69 1684,-567 1691.84,-574.13 1694.57,-567.69"/>
<text text-anchor="middle" x="1697" y="-570.8" font-family="Times,serif" font-size="14.00">right</text>
<text text-anchor="middle" x="1680" y="-432.8" font-family="Times,serif" font-size="14.00">/sum</text>
</g>
<!-- r13&#45;&gt;r13 -->
<g id="edge10" class="edge">
<title>r13:se&#45;&gt;r13:ne</title>
<path fill="none" stroke="black" d="M1694,-445C1732.95,-434.5 1793.85,-434.5 1793.85,-462 1793.85,-487.24 1742.53,-489.31 1703.98,-481.36"/>
<polygon fill="black" stroke="black" points="1704.54,-477.9 1694,-479 1702.93,-484.71 1704.54,-477.9"/>
<text text-anchor="middle" x="1688.5" y="-482.8" font-family="Times,serif" font-size="14.00">i2</text>
<text text-anchor="middle" x="1701.5" y="-433.8" font-family="Times,serif" font-size="14.00">/i2</text>
</g>
<!-- initializerr13_1 -->
<!-- initializerr13_1&#45;&gt;r13 -->
<g id="edge9" class="edge">
<title>initializerr13_1&#45;&gt;r13:w</title>
<path fill="none" stroke="blue" stroke-dasharray="1,5" d="M1495.74,-532.82C1533.57,-512.86 1598.04,-478.87 1621.83,-466.6"/>
<polygon fill="blue" stroke="blue" points="1623.63,-469.61 1631,-462 1620.49,-463.35 1623.63,-469.61"/>
<text text-anchor="middle" x="1561.5" y="-501.8" font-family="Times,serif" font-size="14.00">1</text>
</g>
<!-- initializerr1_1 -->
<!-- initializerr1_1&#45;&gt;r1 -->
<g id="edge12" class="edge">
<title>initializerr1_1&#45;&gt;r1:n</title>
<path fill="none" stroke="blue" stroke-dasharray="1,5" d="M1315.84,-537.25C1366.36,-524.84 1443.44,-504.1 1465.75,-488.09"/>
<polygon fill="blue" stroke="blue" points="1468.66,-490.05 1472,-480 1463.12,-485.78 1468.66,-490.05"/>
<text text-anchor="middle" x="1447" y="-501.8" font-family="Times,serif" font-size="14.00">[]</text>
</g>
<!-- r11&#45;&gt;r11 -->
<g id="edge39" class="edge">
<title>r11:e&#45;&gt;r11:ne</title>
<path fill="none" stroke="black" d="M482,-127C506.14,-116.5 554.14,-116.5 554.14,-135.5 554.14,-153.13 493.53,-154.4 449.86,-146.11"/>
<polygon fill="black" stroke="black" points="450.51,-142.67 440,-144 449.05,-149.51 450.51,-142.67"/>
<text text-anchor="middle" x="454" y="-147.8" font-family="Times,serif" font-size="14.00">array</text>
</g>
<!-- r12 -->
<g id="node23" class="node">
<title>r12</title>
<g id="a_node23"><a xlink:href="file:///Users/andrew/workspace/flow/flowr/src/lib/flowruntime/stdio/stdout.html" xlink:title="print (#12)">
<ellipse fill="coral" stroke="black" cx="1113" cy="-34" rx="48.99" ry="18"/>
<text text-anchor="middle" x="1113" y="-30.3" font-family="Times,serif" font-size="14.00">print (#12)</text>
</a>
</g>
</g>
<!-- r11&#45;&gt;r12 -->
<g id="edge40" class="edge">
<title>r11:e&#45;&gt;r12:n</title>
<path fill="none" stroke="black" d="M483,-127C548.61,-127 1010.94,-109 1072,-85 1090.03,-77.91 1106.31,-75.98 1111.38,-62.23"/>
<polygon fill="black" stroke="black" points="1114.89,-62.42 1113,-52 1107.98,-61.33 1114.89,-62.42"/>
</g>
<!-- r9&#45;&gt;r9 -->
<g id="edge20" class="edge">
<title>r9:s&#45;&gt;r9:n</title>
<path fill="none" stroke="black" d="M834,-444C877.5,-433.5 964.49,-433.5 964.49,-462 964.49,-488.44 889.62,-490.35 844.06,-482.11"/>
<polygon fill="black" stroke="black" points="844.5,-478.62 834,-480 843.07,-485.47 844.5,-478.62"/>
<text text-anchor="middle" x="843.5" y="-483.8" font-family="Times,serif" font-size="14.00">left</text>
<text text-anchor="middle" x="815.5" y="-432.8" font-family="Times,serif" font-size="14.00">/left&#45;gt</text>
</g>
<!-- r3 -->
<g id="node13" class="node">
<title>r3</title>
<g id="a_node13"><a xlink:href="file:///Users/andrew/workspace/flow/flowstdlib/math/multiply/multiply.html" xlink:title="multiply (#3)">
<ellipse fill="coral" stroke="black" cx="982" cy="-331" rx="57.69" ry="18"/>
<text text-anchor="middle" x="982" y="-327.3" font-family="Times,serif" font-size="14.00">multiply (#3)</text>
</a>
</g>
</g>
<!-- r9&#45;&gt;r3 -->
<g id="edge18" class="edge">
<title>r9:e&#45;&gt;r3:n</title>
<path fill="none" stroke="black" d="M894,-462C953.84,-462 979.18,-418.49 981.78,-360.25"/>
<polygon fill="black" stroke="black" points="985.28,-360.07 982,-350 978.28,-359.92 985.28,-360.07"/>
<text text-anchor="middle" x="976.5" y="-353.8" font-family="Times,serif" font-size="14.00">i1</text>
<text text-anchor="middle" x="918" y="-465.8" font-family="Times,serif" font-size="14.00">/right&#45;lte</text>
</g>
<!-- r5 -->
<g id="node14" class="node">
<title>r5</title>
<g id="a_node14"><a xlink:href="file:///Users/andrew/workspace/flow/flowstdlib/math/add/add.html" xlink:title="add (#5)">
<ellipse fill="coral" stroke="black" cx="794" cy="-331" rx="40.09" ry="18"/>
<text text-anchor="middle" x="794" y="-327.3" font-family="Times,serif" font-size="14.00">add (#5)</text>
</a>
</g>
</g>
<!-- r9&#45;&gt;r5 -->
<g id="edge19" class="edge">
<title>r9:e&#45;&gt;r5:ne</title>
<path fill="none" stroke="black" d="M894,-462C909.17,-462 898.31,-435.49 882,-411 860.78,-379.12 843.78,-378.47 818.39,-355.97"/>
<polygon fill="black" stroke="black" points="820.68,-353.31 811,-349 815.88,-358.41 820.68,-353.31"/>
<text text-anchor="middle" x="805.5" y="-352.8" font-family="Times,serif" font-size="14.00">i2</text>
<text text-anchor="middle" x="918" y="-450.8" font-family="Times,serif" font-size="14.00">/right&#45;lte</text>
</g>
<!-- r10 -->
<g id="node15" class="node">
<title>r10</title>
<g id="a_node15"><a xlink:href="file:///Users/andrew/workspace/flow/flowstdlib/math/add/add.html" xlink:title="add (#10)">
<ellipse fill="coral" stroke="black" cx="619" cy="-331" rx="44.69" ry="18"/>
<text text-anchor="middle" x="619" y="-327.3" font-family="Times,serif" font-size="14.00">add (#10)</text>
</a>
</g>
</g>
<!-- r9&#45;&gt;r10 -->
<g id="edge21" class="edge">
<title>r9:e&#45;&gt;r10:n</title>
<path fill="none" stroke="black" d="M894,-462C917.95,-462 914.88,-435.22 825,-411 736.22,-387.08 627.42,-441.2 619.46,-360"/>
<polygon fill="black" stroke="black" points="622.96,-359.83 619,-350 615.97,-360.15 622.96,-359.83"/>
<text text-anchor="middle" x="613.5" y="-353.8" font-family="Times,serif" font-size="14.00">i1</text>
<text text-anchor="middle" x="873" y="-465.8" font-family="Times,serif" font-size="14.00">/right&#45;lt</text>
</g>
<!-- initializerr9_1 -->
<!-- initializerr9_1&#45;&gt;r9 -->
<g id="edge17" class="edge">
<title>initializerr9_1&#45;&gt;r9:ne</title>
<path fill="none" stroke="blue" stroke-dasharray="1,5" d="M856.96,-530.94C860.38,-518.33 862.91,-501.18 856.75,-488.21"/>
<polygon fill="blue" stroke="blue" points="859.6,-486.18 851,-480 853.87,-490.2 859.6,-486.18"/>
<text text-anchor="middle" x="864.5" y="-501.8" font-family="Times,serif" font-size="14.00">2</text>
</g>
<!-- r3&#45;&gt;r4 -->
<g id="edge26" class="edge">
<title>r3:e&#45;&gt;r4:ne</title>
<path fill="none" stroke="black" d="M1041,-331C1049.01,-331 1045.45,-318.88 1040,-313 948.72,-214.54 543.78,-323.72 433.7,-238.75"/>
<polygon fill="black" stroke="black" points="435.83,-235.96 426,-232 431.21,-241.22 435.83,-235.96"/>
<text text-anchor="middle" x="439" y="-235.8" font-family="Times,serif" font-size="14.00">right</text>
</g>
<!-- r5&#45;&gt;r5 -->
<g id="edge31" class="edge">
<title>r5:se&#45;&gt;r5:ne</title>
<path fill="none" stroke="black" d="M811,-314C848.43,-305 906.3,-305 906.3,-331 906.3,-354.77 857.95,-356.81 821.05,-350.11"/>
<polygon fill="black" stroke="black" points="821.51,-346.63 811,-348 820.07,-353.48 821.51,-346.63"/>
<text text-anchor="middle" x="816.5" y="-351.8" font-family="Times,serif" font-size="14.00">i2</text>
<text text-anchor="middle" x="803.5" y="-302.8" font-family="Times,serif" font-size="14.00">/i2</text>
</g>
<!-- r5&#45;&gt;r4 -->
<g id="edge32" class="edge">
<title>r5:se&#45;&gt;r4:ne</title>
<path fill="none" stroke="black" d="M811,-313C840.1,-283.9 500.6,-265.2 434.93,-237.32"/>
<polygon fill="black" stroke="black" points="436.38,-234.11 426,-232 432.8,-240.12 436.38,-234.11"/>
<text text-anchor="middle" x="413" y="-235.8" font-family="Times,serif" font-size="14.00">right</text>
<text text-anchor="middle" x="825" y="-301.8" font-family="Times,serif" font-size="14.00">/sum</text>
</g>
<!-- r10&#45;&gt;r9 -->
<g id="edge24" class="edge">
<title>r10:se&#45;&gt;r9:ne</title>
<path fill="none" stroke="black" d="M636,-313C674.26,-274.74 676.08,-368.78 718,-403 741.42,-422.11 752.74,-418.43 782,-426 806.08,-432.23 876.38,-425.05 892.49,-444 902.57,-455.85 903.36,-467.87 892.49,-479 887.81,-483.8 871.47,-485.59 860.39,-483.72"/>
<polygon fill="black" stroke="black" points="861.59,-480.43 851,-480 859.01,-486.94 861.59,-480.43"/>
<text text-anchor="middle" x="864" y="-483.8" font-family="Times,serif" font-size="14.00">right</text>
<text text-anchor="middle" x="622" y="-301.8" font-family="Times,serif" font-size="14.00">/sum</text>
</g>
<!-- r10&#45;&gt;r10 -->
<g id="edge23" class="edge">
<title>r10:se&#45;&gt;r10:ne</title>
<path fill="none" stroke="black" d="M636,-314C674.95,-305 735.85,-305 735.85,-331 735.85,-354.87 684.53,-356.83 645.98,-350.02"/>
<polygon fill="black" stroke="black" points="646.5,-346.56 636,-348 645.11,-353.42 646.5,-346.56"/>
<text text-anchor="middle" x="630.5" y="-351.8" font-family="Times,serif" font-size="14.00">i2</text>
<text text-anchor="middle" x="643.5" y="-302.8" font-family="Times,serif" font-size="14.00">/i2</text>
</g>
<!-- initializerr10_1 -->
<!-- initializerr10_1&#45;&gt;r10 -->
<g id="edge22" class="edge">
<title>initializerr10_1&#45;&gt;r10:w</title>
<path fill="none" stroke="blue" stroke-dasharray="1,5" d="M623.15,-444.54C593.13,-412.42 533.52,-343.59 562.91,-332.52"/>
<polygon fill="blue" stroke="blue" points="563.63,-335.95 573,-331 562.59,-329.03 563.63,-335.95"/>
<text text-anchor="middle" x="608.5" y="-414.8" font-family="Times,serif" font-size="14.00">1</text>
</g>
<!-- initializerr3_1 -->
<!-- initializerr3_1&#45;&gt;r3 -->
<g id="edge25" class="edge">
<title>initializerr3_1&#45;&gt;r3:w</title>
<path fill="none" stroke="blue" d="M460.09,-348.36C479.86,-366.02 513.36,-392.27 548,-403 584.09,-414.18 856.1,-423.24 888,-403 914.52,-386.17 893.76,-342.94 913.01,-333.04"/>
<polygon fill="blue" stroke="blue" points="913.9,-336.43 923,-331 912.5,-329.57 913.9,-336.43"/>
<text text-anchor="middle" x="804" y="-414.8" font-family="Times,serif" font-size="14.00">2</text>
</g>
<!-- r4&#45;&gt;r11 -->
<g id="edge27" class="edge">
<title>r4:e&#45;&gt;r11:n</title>
<path fill="none" stroke="black" d="M469,-214C477.01,-214 471.04,-203.41 468,-196 458.01,-171.64 431.28,-173.96 424.55,-154.98"/>
<polygon fill="black" stroke="black" points="428,-154.34 423,-145 421.08,-155.42 428,-154.34"/>
<text text-anchor="middle" x="408" y="-148.8" font-family="Times,serif" font-size="14.00">value</text>
<text text-anchor="middle" x="493" y="-217.8" font-family="Times,serif" font-size="14.00">/right&#45;lte</text>
</g>
<!-- r4&#45;&gt;r5 -->
<g id="edge29" class="edge">
<title>r4:e&#45;&gt;r5:n</title>
<path fill="none" stroke="black" d="M469,-214C538.21,-214 536.13,-273.74 602,-295 626.64,-302.95 816.71,-294 834.3,-313 845.16,-324.74 845.47,-337.55 834.3,-349 830.09,-353.31 813.35,-356.32 802.81,-355.12"/>
<polygon fill="black" stroke="black" points="804.4,-352 794,-350 800.89,-358.05 804.4,-352"/>
<text text-anchor="middle" x="788.5" y="-353.8" font-family="Times,serif" font-size="14.00">i1</text>
<text text-anchor="middle" x="490" y="-202.8" font-family="Times,serif" font-size="14.00">/right&#45;lt</text>
</g>
<!-- r4&#45;&gt;r4 -->
<g id="edge28" class="edge">
<title>r4:s&#45;&gt;r4:n</title>
<path fill="none" stroke="black" d="M409,-196C452.5,-185.5 539.49,-185.5 539.49,-214 539.49,-240.44 464.62,-242.35 419.06,-234.11"/>
<polygon fill="black" stroke="black" points="419.5,-230.62 409,-232 418.07,-237.47 419.5,-230.62"/>
<text text-anchor="middle" x="399.5" y="-220.8" font-family="Times,serif" font-size="14.00">left</text>
<text text-anchor="middle" x="390.5" y="-184.8" font-family="Times,serif" font-size="14.00">/left&#45;gt</text>
</g>
<!-- r7 -->
<g id="node19" class="node">
<title>r7</title>
<g id="a_node19"><a xlink:href="file:///Users/andrew/workspace/flow/flowstdlib/control/join/join.html" xlink:title="join (#7)">
<ellipse fill="coral" stroke="black" cx="250" cy="-127" rx="41.69" ry="18"/>
<text text-anchor="middle" x="250" y="-123.3" font-family="Times,serif" font-size="14.00">join (#7)</text>
</a>
</g>
</g>
<!-- r4&#45;&gt;r7 -->
<g id="edge30" class="edge">
<title>r4:sw&#45;&gt;r7:ne</title>
<path fill="none" stroke="black" d="M392,-196C374.46,-178.46 369.57,-173.27 347,-163 317.2,-149.44 297.17,-166.52 274.72,-151.44"/>
<polygon fill="black" stroke="black" points="276.92,-148.71 267,-145 272.44,-154.09 276.92,-148.71"/>
<text text-anchor="middle" x="247.5" y="-148.8" font-family="Times,serif" font-size="14.00">control</text>
<text text-anchor="middle" x="417.5" y="-184.8" font-family="Times,serif" font-size="14.00">/right&#45;gte</text>
</g>
<!-- r6 -->
<g id="node21" class="node">
<title>r6</title>
<g id="a_node21"><a xlink:href="file:///Users/andrew/workspace/flow/flowstdlib/math/add/add.html" xlink:title="subsequence&#45;count (#6)">
<ellipse fill="coral" stroke="black" cx="192" cy="-34" rx="94.78" ry="18"/>
<text text-anchor="middle" x="192" y="-30.3" font-family="Times,serif" font-size="14.00">subsequence&#45;count (#6)</text>
</a>
</g>
</g>
<!-- r7&#45;&gt;r6 -->
<g id="edge36" class="edge">
<title>r7:e&#45;&gt;r6:ne</title>
<path fill="none" stroke="black" d="M293,-127C301.01,-127 295.91,-115.99 292,-109 272.13,-73.43 246.09,-81.58 217.67,-58.88"/>
<polygon fill="black" stroke="black" points="219.78,-56.07 210,-52 215.11,-61.28 219.78,-56.07"/>
<text text-anchor="middle" x="204.5" y="-55.8" font-family="Times,serif" font-size="14.00">i2</text>
</g>
<!-- initializerr7_0 -->
<!-- initializerr7_0&#45;&gt;r7 -->
<g id="edge35" class="edge">
<title>initializerr7_0&#45;&gt;r7:nw</title>
<path fill="none" stroke="blue" d="M114.47,-200.03C150.33,-187.39 201.71,-167.72 225.21,-151.33"/>
<polygon fill="blue" stroke="blue" points="227.45,-154.02 233,-145 223.03,-148.59 227.45,-154.02"/>
<text text-anchor="middle" x="206.5" y="-166.8" font-family="Times,serif" font-size="14.00">1</text>
</g>
<!-- r6&#45;&gt;r6 -->
<g id="edge38" class="edge">
<title>r6:se&#45;&gt;r6:n</title>
<path fill="none" stroke="black" d="M210,-16C265.63,-5.5 358.89,-5.5 358.89,-34 358.89,-60.89 259.88,-62.41 201.96,-53.68"/>
<polygon fill="black" stroke="black" points="202.44,-50.21 192,-52 201.28,-57.11 202.44,-50.21"/>
<text text-anchor="middle" x="186.5" y="-55.8" font-family="Times,serif" font-size="14.00">i1</text>
<text text-anchor="middle" x="196" y="-4.8" font-family="Times,serif" font-size="14.00">/sum</text>
</g>
<!-- initializerr6_0 -->
<!-- initializerr6_0&#45;&gt;r6 -->
<g id="edge37" class="edge">
<title>initializerr6_0&#45;&gt;r6:ne</title>
<path fill="none" stroke="blue" stroke-dasharray="1,5" d="M104.64,-111.04C135.57,-94.8 182.95,-69.63 201.85,-58.08"/>
<polygon fill="blue" stroke="blue" points="204.08,-60.79 210,-52 199.89,-55.17 204.08,-60.79"/>
<text text-anchor="middle" x="182.5" y="-73.8" font-family="Times,serif" font-size="14.00">1</text>
</g>
</g>
</svg>
