<?xml version="1.0" encoding="UTF-8" standalone="no"?>
<!DOCTYPE svg PUBLIC "-//W3C//DTD SVG 1.1//EN"
 "http://www.w3.org/Graphics/SVG/1.1/DTD/svg11.dtd">
<!-- Generated by graphviz version 2.40.1 (20161225.0304)
 -->
<!-- Title: prime Pages: 1 -->
<svg width="1838pt" height="1388pt"
 viewBox="0.00 0.00 1838.35 1388.00" xmlns="http://www.w3.org/2000/svg" xmlns:xlink="http://www.w3.org/1999/xlink">
<g id="graph0" class="graph" transform="scale(1 1) rotate(0) translate(4 1384)">
<title>prime</title>
<polygon fill="#ffffff" stroke="transparent" points="-4,4 -4,-1384 1834.3454,-1384 1834.3454,4 -4,4"/>
<text text-anchor="middle" x="915.1727" y="-1364.8" font-family="Times,serif" font-size="14.00" fill="#000000">/prime</text>
<g id="clust1" class="cluster">
<title>cluster_candidates</title>
<polygon fill="none" stroke="#000000" points="1376,-937 1376,-1318 1784,-1318 1784,-937 1376,-937"/>
<text text-anchor="middle" x="1580" y="-1302.8" font-family="Times,serif" font-size="14.00" fill="#000000">/prime/candidates</text>
</g>
<g id="clust2" class="cluster">
<title>cluster_composites</title>
<polygon fill="none" stroke="#000000" points="8,-8 8,-1349 1062,-1349 1062,-8 8,-8"/>
<text text-anchor="middle" x="535" y="-1333.8" font-family="Times,serif" font-size="14.00" fill="#000000">/prime/composites</text>
</g>
<g id="clust3" class="cluster">
<title>cluster_divisors</title>
<polygon fill="none" stroke="#000000" points="16,-680 16,-1318 575,-1318 575,-680 16,-680"/>
<text text-anchor="middle" x="295.5" y="-1302.8" font-family="Times,serif" font-size="14.00" fill="#000000">/prime/composites/divisors</text>
</g>
<g id="clust4" class="cluster">
<title>cluster_generate_composites</title>
<polygon fill="none" stroke="#000000" points="583,-152 583,-880 1054,-880 1054,-152 583,-152"/>
<text text-anchor="middle" x="818.5" y="-864.8" font-family="Times,serif" font-size="14.00" fill="#000000">/prime/composites/generate_composites</text>
</g>
<g id="clust5" class="cluster">
<title>cluster_composite_sequence</title>
<polygon fill="none" stroke="#000000" points="591,-160 591,-623 1046,-623 1046,-160 591,-160"/>
<text text-anchor="middle" x="818.5" y="-607.8" font-family="Times,serif" font-size="14.00" fill="#000000">/prime/composites/generate_composites/composite&#45;sequence</text>
</g>
<!-- r13 -->
<g id="node1" class="node">
<title>r13</title>
<g id="a_node1"><a xlink:href="file:///home/travis/build/andrewdavidmackenzie/flow/flowr/src/lib/flowruntime/args/get.html" xlink:title="args (#13)">
<ellipse fill="#ff7f50" stroke="#000000" cx="1130" cy="-1196" rx="60.3893" ry="18"/>
<text text-anchor="middle" x="1130" y="-1192.3" font-family="Times,serif" font-size="14.00" fill="#000000">args (#13)</text>
</a>
</g>
</g>
<!-- r2 -->
<g id="node2" class="node">
<title>r2</title>
<g id="a_node2"><a xlink:href="file:///home/travis/build/andrewdavidmackenzie/flow/flowstdlib/control/compare_switch/compare_switch.html" xlink:title="compare (#2)">
<ellipse fill="#ff7f50" stroke="#000000" cx="1459" cy="-1123" rx="74.9875" ry="18"/>
<text text-anchor="middle" x="1459" y="-1119.3" font-family="Times,serif" font-size="14.00" fill="#000000">compare (#2)</text>
</a>
</g>
</g>
<!-- r13&#45;&gt;r2 -->
<g id="edge1" class="edge">
<title>r13:e&#45;&gt;r2:n</title>
<path fill="none" stroke="#000000" d="M1191,-1196C1218.5485,-1196 1416.2708,-1175.795 1453.1016,-1149.3812"/>
<polygon fill="#000000" stroke="#000000" points="1456.107,-1151.1922 1459,-1141 1450.3825,-1147.1635 1456.107,-1151.1922"/>
<text text-anchor="middle" x="1446.5" y="-1144.8" font-family="Times,serif" font-size="14.00" fill="#000000">left</text>
<text text-anchor="middle" x="1215" y="-1199.8" font-family="Times,serif" font-size="14.00" fill="#000000">/json/1</text>
</g>
<!-- r0 -->
<g id="node3" class="node">
<title>r0</title>
<g id="a_node3"><a xlink:href="file:///home/travis/build/andrewdavidmackenzie/flow/flowstdlib/data/accumulate/accumulate.html" xlink:title="all&#45;numbers (#0)">
<ellipse fill="#ff7f50" stroke="#000000" cx="1473" cy="-963" rx="89.0842" ry="18"/>
<text text-anchor="middle" x="1473" y="-959.3" font-family="Times,serif" font-size="14.00" fill="#000000">all&#45;numbers (#0)</text>
</a>
</g>
</g>
<!-- r13&#45;&gt;r0 -->
<g id="edge2" class="edge">
<title>r13:e&#45;&gt;r0:nw</title>
<path fill="none" stroke="#000000" d="M1191,-1196C1264.0527,-1196 1133.2904,-1088.1686 1180,-1032 1198.3179,-1009.9726 1397.8968,-1003.8908 1446.1853,-985.8588"/>
<polygon fill="#000000" stroke="#000000" points="1447.9319,-988.8926 1455,-981 1444.5527,-982.7623 1447.9319,-988.8926"/>
<text text-anchor="middle" x="1415" y="-984.8" font-family="Times,serif" font-size="14.00" fill="#000000">chunk_size</text>
<text text-anchor="middle" x="1215" y="-1184.8" font-family="Times,serif" font-size="14.00" fill="#000000">/json/1</text>
</g>
<!-- r12 -->
<g id="node4" class="node">
<title>r12</title>
<g id="a_node4"><a xlink:href="file:///home/travis/build/andrewdavidmackenzie/flow/flowstdlib/math/sqrt/sqrt.html" xlink:title="sqrt (#12)">
<ellipse fill="#ff7f50" stroke="#000000" cx="698" cy="-1123" rx="59.2899" ry="18"/>
<text text-anchor="middle" x="698" y="-1119.3" font-family="Times,serif" font-size="14.00" fill="#000000">sqrt (#12)</text>
</a>
</g>
</g>
<!-- r13&#45;&gt;r12 -->
<g id="edge3" class="edge">
<title>r13:e&#45;&gt;r12:n</title>
<path fill="none" stroke="#000000" d="M1191,-1196C1199,-1196 1196.4877,-1183.8211 1191,-1178 1167.7131,-1153.2983 919.8397,-1162.7073 886,-1160 847.9037,-1156.9521 723.4183,-1178.4974 701.3573,-1150.7342"/>
<polygon fill="#000000" stroke="#000000" points="704.5693,-1149.3123 698,-1141 697.9519,-1151.5947 704.5693,-1149.3123"/>
<text text-anchor="middle" x="1167" y="-1199.8" font-family="Times,serif" font-size="14.00" fill="#000000">/json/1</text>
</g>
<!-- r7 -->
<g id="node5" class="node">
<title>r7</title>
<g id="a_node5"><a xlink:href="file:///home/travis/build/andrewdavidmackenzie/flow/flowstdlib/data/buffer/buffer.html" xlink:title="limit&#45;buffer (#7)">
<ellipse fill="#ff7f50" stroke="#000000" cx="921" cy="-831" rx="87.1846" ry="18"/>
<text text-anchor="middle" x="921" y="-827.3" font-family="Times,serif" font-size="14.00" fill="#000000">limit&#45;buffer (#7)</text>
</a>
</g>
</g>
<!-- r13&#45;&gt;r7 -->
<g id="edge4" class="edge">
<title>r13:e&#45;&gt;r7:n</title>
<path fill="none" stroke="#000000" d="M1191,-1196C1199,-1196 1196.0124,-1184.235 1191,-1178 1119.7181,-1089.3315 941,-1236.7682 941,-1123 941,-1123 941,-1123 941,-907.5 941,-883.7792 926.0949,-877.8942 922.0193,-859.0503"/>
<polygon fill="#000000" stroke="#000000" points="925.4912,-858.5958 921,-849 918.527,-859.3022 925.4912,-858.5958"/>
<text text-anchor="middle" x="1167" y="-1184.8" font-family="Times,serif" font-size="14.00" fill="#000000">/json/1</text>
</g>
<!-- r2&#45;&gt;r2 -->
<g id="edge7" class="edge">
<title>r2:s&#45;&gt;r2:n</title>
<path fill="none" stroke="#000000" d="M1459,-1105C1507.9145,-1096 1605.7434,-1096 1605.7434,-1123 1605.7434,-1148.2598 1520.1188,-1149.8878 1469.0284,-1142.6233"/>
<polygon fill="#000000" stroke="#000000" points="1469.4308,-1139.1429 1459,-1141 1468.3122,-1146.053 1469.4308,-1139.1429"/>
<text text-anchor="middle" x="1471.5" y="-1144.8" font-family="Times,serif" font-size="14.00" fill="#000000">left</text>
<text text-anchor="middle" x="1434.5" y="-1093.8" font-family="Times,serif" font-size="14.00" fill="#000000">/left&#45;gt</text>
</g>
<!-- r2&#45;&gt;r0 -->
<g id="edge6" class="edge">
<title>r2:e&#45;&gt;r0:n</title>
<path fill="none" stroke="#000000" d="M1534,-1123C1542,-1123 1535.8128,-1112.7919 1534,-1105 1527.748,-1078.1273 1483.4915,-1024.2382 1474.5664,-991.2984"/>
<polygon fill="#000000" stroke="#000000" points="1477.964,-990.36 1473,-981 1471.0435,-991.4126 1477.964,-990.36"/>
<text text-anchor="middle" x="1496" y="-984.8" font-family="Times,serif" font-size="14.00" fill="#000000">values</text>
<text text-anchor="middle" x="1566" y="-1126.8" font-family="Times,serif" font-size="14.00" fill="#000000">/right&#45;lte</text>
</g>
<!-- r1 -->
<g id="node7" class="node">
<title>r1</title>
<g id="a_node7"><a xlink:href="file:///home/travis/build/andrewdavidmackenzie/flow/flowstdlib/math/add/add.html" xlink:title="add (#1)">
<ellipse fill="#ff7f50" stroke="#000000" cx="1707" cy="-963" rx="51.1914" ry="18"/>
<text text-anchor="middle" x="1707" y="-959.3" font-family="Times,serif" font-size="14.00" fill="#000000">add (#1)</text>
</a>
</g>
</g>
<!-- r2&#45;&gt;r1 -->
<g id="edge8" class="edge">
<title>r2:e&#45;&gt;r1:n</title>
<path fill="none" stroke="#000000" d="M1534,-1123C1536.2974,-1123 1688.4983,-1069.7386 1690,-1068 1713.439,-1040.8627 1708.2942,-1023.691 1707.1806,-991.12"/>
<polygon fill="#000000" stroke="#000000" points="1710.678,-990.9359 1707,-981 1703.6791,-991.0609 1710.678,-990.9359"/>
<text text-anchor="middle" x="1700" y="-984.8" font-family="Times,serif" font-size="14.00" fill="#000000">i1</text>
<text text-anchor="middle" x="1561.5" y="-1111.8" font-family="Times,serif" font-size="14.00" fill="#000000">/right&#45;lt</text>
</g>
<!-- r0&#45;&gt;r0 -->
<g id="edge13" class="edge">
<title>r0:s&#45;&gt;r0:nw</title>
<path fill="none" stroke="#000000" d="M1473,-945C1419.3193,-936 1311.9579,-936 1311.9579,-963 1311.9579,-988.3652 1390.8258,-989.901 1444.8848,-982.5318"/>
<polygon fill="#000000" stroke="#000000" points="1445.6368,-985.9579 1455,-981 1444.5887,-979.0368 1445.6368,-985.9579"/>
<text text-anchor="middle" x="1495" y="-984.8" font-family="Times,serif" font-size="14.00" fill="#000000">chunk_size</text>
<text text-anchor="middle" x="1430.5" y="-933.8" font-family="Times,serif" font-size="14.00" fill="#000000">/chunk_size</text>
</g>
<!-- r0&#45;&gt;r0 -->
<g id="edge14" class="edge">
<title>r0:e&#45;&gt;r0:ne</title>
<path fill="none" stroke="#000000" d="M1562,-963C1586.0421,-954 1634.0421,-954 1634.0421,-972 1634.0421,-988.9102 1555.1742,-989.934 1501.1152,-982.5338"/>
<polygon fill="#000000" stroke="#000000" points="1501.4117,-979.0388 1491,-981 1500.3622,-985.9597 1501.4117,-979.0388"/>
<text text-anchor="middle" x="1467" y="-969.8" font-family="Times,serif" font-size="14.00" fill="#000000">partial</text>
<text text-anchor="middle" x="1588" y="-966.8" font-family="Times,serif" font-size="14.00" fill="#000000">/partial</text>
</g>
<!-- r14 -->
<g id="node10" class="node">
<title>r14</title>
<g id="a_node10"><a xlink:href="file:///home/travis/build/andrewdavidmackenzie/flow/flowstdlib/data/remove/remove.html" xlink:title="remove (#14)">
<ellipse fill="#ff7f50" stroke="#000000" cx="945" cy="-186" rx="74.9875" ry="18"/>
<text text-anchor="middle" x="945" y="-182.3" font-family="Times,serif" font-size="14.00" fill="#000000">remove (#14)</text>
</a>
</g>
</g>
<!-- r0&#45;&gt;r14 -->
<g id="edge15" class="edge">
<title>r0:s&#45;&gt;r14:ne</title>
<path fill="none" stroke="#000000" d="M1473,-945C1473,-868.062 1304,-984.438 1304,-907.5 1304,-907.5 1304,-907.5 1304,-248.5 1304,-99.0923 1081.4206,-302.5391 970.4673,-210.7991"/>
<polygon fill="#000000" stroke="#000000" points="972.7505,-208.1446 963,-204 968.0378,-213.3205 972.7505,-208.1446"/>
<text text-anchor="middle" x="943.5" y="-207.8" font-family="Times,serif" font-size="14.00" fill="#000000">array</text>
<text text-anchor="middle" x="1497.5" y="-933.8" font-family="Times,serif" font-size="14.00" fill="#000000">/chunk</text>
</g>
<!-- r11 -->
<g id="node11" class="node">
<title>r11</title>
<g id="a_node11"><a xlink:href="file:///home/travis/build/andrewdavidmackenzie/flow/flowstdlib/control/compare_switch/compare_switch.html" xlink:title="compare (#11)">
<ellipse fill="#ff7f50" stroke="#000000" cx="340" cy="-963" rx="80.6858" ry="18"/>
<text text-anchor="middle" x="340" y="-959.3" font-family="Times,serif" font-size="14.00" fill="#000000">compare (#11)</text>
</a>
</g>
</g>
<!-- r12&#45;&gt;r11 -->
<g id="edge16" class="edge">
<title>r12:e&#45;&gt;r11:n</title>
<path fill="none" stroke="#000000" d="M757,-1123C765,-1123 761.7832,-1111.4126 757,-1105 750.4096,-1096.1647 408.9211,-1010.3396 348.9447,-986.1514"/>
<polygon fill="#000000" stroke="#000000" points="350.4124,-982.9577 340,-981 346.9189,-989.0237 350.4124,-982.9577"/>
<text text-anchor="middle" x="327.5" y="-984.8" font-family="Times,serif" font-size="14.00" fill="#000000">left</text>
</g>
<!-- r7&#45;&gt;r7 -->
<g id="edge33" class="edge">
<title>r7:e&#45;&gt;r7:n</title>
<path fill="none" stroke="#000000" d="M1008,-831C1032.0923,-822 1080.0923,-822 1080.0923,-840 1080.0923,-856.9102 986.4853,-857.934 931.1804,-850.5338"/>
<polygon fill="#000000" stroke="#000000" points="931.4099,-847.0289 921,-849 930.3669,-853.9508 931.4099,-847.0289"/>
</g>
<!-- r5 -->
<g id="node18" class="node">
<title>r5</title>
<g id="a_node18"><a xlink:href="file:///home/travis/build/andrewdavidmackenzie/flow/flowstdlib/control/compare_switch/compare_switch.html" xlink:title="compare (#5)">
<ellipse fill="#ff7f50" stroke="#000000" cx="679" cy="-574" rx="74.9875" ry="18"/>
<text text-anchor="middle" x="679" y="-570.3" font-family="Times,serif" font-size="14.00" fill="#000000">compare (#5)</text>
</a>
</g>
</g>
<!-- r7&#45;&gt;r5 -->
<g id="edge34" class="edge">
<title>r7:e&#45;&gt;r5:n</title>
<path fill="none" stroke="#000000" d="M1008,-831C1016,-831 1012.4174,-819.6698 1008,-813 980.0133,-770.7426 903,-819.1847 903,-768.5 903,-768.5 903,-768.5 903,-650.5 903,-551.3232 694.8951,-684.5773 679.8562,-602.1973"/>
<polygon fill="#000000" stroke="#000000" points="683.3245,-601.6721 679,-592 676.3491,-602.2578 683.3245,-601.6721"/>
<text text-anchor="middle" x="666.5" y="-595.8" font-family="Times,serif" font-size="14.00" fill="#000000">left</text>
</g>
<!-- initializerr2_1 -->
<!-- initializerr2_1&#45;&gt;r2 -->
<g id="edge5" class="edge">
<title>initializerr2_1&#45;&gt;r2:ne</title>
<path fill="none" stroke="#0000ff" stroke-dasharray="1,5" d="M1484.0147,-1250.726C1492.5932,-1225.2071 1503.6539,-1178.6884 1483.5307,-1148.9205"/>
<polygon fill="#0000ff" stroke="#0000ff" points="1486.0621,-1146.4889 1477,-1141 1480.6613,-1150.9421 1486.0621,-1146.4889"/>
<text text-anchor="middle" x="1499" y="-1192.3" font-family="Times,serif" font-size="14.00" fill="#000000">1</text>
</g>
<!-- r1&#45;&gt;r2 -->
<g id="edge11" class="edge">
<title>r1:se&#45;&gt;r2:ne</title>
<path fill="none" stroke="#000000" d="M1724,-946C1724,-946 1758.3454,-981 1758.3454,-981 1736.949,-1005.2303 1640.8565,-981.0098 1614,-999 1553.7707,-1039.3456 1596.3579,-1104.4657 1533.7434,-1141 1525.2346,-1145.9647 1500.8295,-1148.6142 1486.3078,-1145.2841"/>
<polygon fill="#000000" stroke="#000000" points="1487.5474,-1142.0018 1477,-1141 1484.6206,-1148.3605 1487.5474,-1142.0018"/>
<text text-anchor="middle" x="1495" y="-1144.8" font-family="Times,serif" font-size="14.00" fill="#000000">right</text>
<text text-anchor="middle" x="1741.5" y="-934.8" font-family="Times,serif" font-size="14.00" fill="#000000">/sum</text>
</g>
<!-- r1&#45;&gt;r1 -->
<g id="edge10" class="edge">
<title>r1:se&#45;&gt;r1:ne</title>
<path fill="none" stroke="#000000" d="M1724,-946C1765.1151,-937 1830.3454,-937 1830.3454,-963 1830.3454,-986.9688 1774.9092,-988.8413 1734.0353,-981.9365"/>
<polygon fill="#000000" stroke="#000000" points="1734.482,-978.4582 1724,-980 1733.1557,-985.3314 1734.482,-978.4582"/>
<text text-anchor="middle" x="1717" y="-983.8" font-family="Times,serif" font-size="14.00" fill="#000000">i2</text>
<text text-anchor="middle" x="1714.5" y="-934.8" font-family="Times,serif" font-size="14.00" fill="#000000">/i2</text>
</g>
<!-- initializerr1_1 -->
<!-- initializerr1_1&#45;&gt;r1 -->
<g id="edge9" class="edge">
<title>initializerr1_1&#45;&gt;r1:w</title>
<path fill="none" stroke="#0000ff" stroke-dasharray="1,5" d="M1687.2694,-1104.957C1660.6288,-1065.8916 1604.6758,-976.0393 1644.9095,-964.2781"/>
<polygon fill="#0000ff" stroke="#0000ff" points="1645.5191,-967.7289 1655,-963 1644.6394,-960.7844 1645.5191,-967.7289"/>
<text text-anchor="middle" x="1667" y="-1046.3" font-family="Times,serif" font-size="14.00" fill="#000000">1</text>
</g>
<!-- initializerr0_1 -->
<!-- initializerr0_1&#45;&gt;r0 -->
<g id="edge12" class="edge">
<title>initializerr0_1&#45;&gt;r0:n</title>
<path fill="none" stroke="#0000ff" stroke-dasharray="1,5" d="M1341.459,-1036.1524C1386.0482,-1023.0678 1447.5009,-1003.3541 1466.8871,-988.9651"/>
<polygon fill="#0000ff" stroke="#0000ff" points="1469.6882,-991.064 1473,-981 1464.1351,-986.8021 1469.6882,-991.064"/>
<text text-anchor="middle" x="1451.5" y="-1002.8" font-family="Times,serif" font-size="14.00" fill="#000000">[]</text>
</g>
<!-- r14&#45;&gt;r14 -->
<g id="edge39" class="edge">
<title>r14:e&#45;&gt;r14:ne</title>
<path fill="none" stroke="#000000" d="M1020,-186C1043.7434,-177 1091.7434,-177 1091.7434,-195 1091.7434,-211.8047 1022.1647,-212.9206 973.1212,-205.6713"/>
<polygon fill="#000000" stroke="#000000" points="973.4366,-202.176 963,-204 972.2962,-209.0825 973.4366,-202.176"/>
<text text-anchor="middle" x="982.5" y="-207.8" font-family="Times,serif" font-size="14.00" fill="#000000">array</text>
</g>
<!-- r3 -->
<g id="node23" class="node">
<title>r3</title>
<g id="a_node23"><a xlink:href="file:///home/travis/build/andrewdavidmackenzie/flow/flowr/src/lib/flowruntime/stdio/stdout.html" xlink:title="print (#3)">
<ellipse fill="#ff7f50" stroke="#000000" cx="1127" cy="-107" rx="57.3905" ry="18"/>
<text text-anchor="middle" x="1127" y="-103.3" font-family="Times,serif" font-size="14.00" fill="#000000">print (#3)</text>
</a>
</g>
</g>
<!-- r14&#45;&gt;r3 -->
<g id="edge40" class="edge">
<title>r14:e&#45;&gt;r3:n</title>
<path fill="none" stroke="#000000" d="M1020,-186C1071.2125,-186 1120.2531,-180.5216 1126.362,-134.9917"/>
<polygon fill="#000000" stroke="#000000" points="1129.8556,-135.2027 1127,-125 1122.8698,-134.7566 1129.8556,-135.2027"/>
</g>
<!-- r11&#45;&gt;r11 -->
<g id="edge20" class="edge">
<title>r11:s&#45;&gt;r11:n</title>
<path fill="none" stroke="#000000" d="M340,-945C390.8643,-936 492.5928,-936 492.5928,-963 492.5928,-988.3125 403.183,-989.8945 350.0959,-982.5776"/>
<polygon fill="#000000" stroke="#000000" points="350.4205,-979.086 340,-981 349.3397,-986.002 350.4205,-979.086"/>
<text text-anchor="middle" x="352.5" y="-984.8" font-family="Times,serif" font-size="14.00" fill="#000000">left</text>
<text text-anchor="middle" x="315.5" y="-933.8" font-family="Times,serif" font-size="14.00" fill="#000000">/left&#45;gt</text>
</g>
<!-- r8 -->
<g id="node13" class="node">
<title>r8</title>
<g id="a_node13"><a xlink:href="file:///home/travis/build/andrewdavidmackenzie/flow/flowstdlib/math/multiply/multiply.html" xlink:title="multiply (#8)">
<ellipse fill="#ff7f50" stroke="#000000" cx="494" cy="-706" rx="72.5877" ry="18"/>
<text text-anchor="middle" x="494" y="-702.3" font-family="Times,serif" font-size="14.00" fill="#000000">multiply (#8)</text>
</a>
</g>
</g>
<!-- r11&#45;&gt;r8 -->
<g id="edge18" class="edge">
<title>r11:e&#45;&gt;r8:n</title>
<path fill="none" stroke="#000000" d="M421,-963C461.0524,-963 492,-947.5524 492,-907.5 492,-907.5 492,-907.5 492,-768.5 492,-752.569 493.295,-746.2817 493.8009,-734.1178"/>
<polygon fill="#000000" stroke="#000000" points="497.3025,-734.067 494,-724 490.3039,-733.9292 497.3025,-734.067"/>
<text text-anchor="middle" x="487" y="-727.8" font-family="Times,serif" font-size="14.00" fill="#000000">i1</text>
<text text-anchor="middle" x="453" y="-966.8" font-family="Times,serif" font-size="14.00" fill="#000000">/right&#45;lte</text>
</g>
<!-- r6 -->
<g id="node14" class="node">
<title>r6</title>
<g id="a_node14"><a xlink:href="file:///home/travis/build/andrewdavidmackenzie/flow/flowstdlib/math/add/add.html" xlink:title="add (#6)">
<ellipse fill="#ff7f50" stroke="#000000" cx="280" cy="-706" rx="51.1914" ry="18"/>
<text text-anchor="middle" x="280" y="-702.3" font-family="Times,serif" font-size="14.00" fill="#000000">add (#6)</text>
</a>
</g>
</g>
<!-- r11&#45;&gt;r6 -->
<g id="edge19" class="edge">
<title>r11:e&#45;&gt;r6:ne</title>
<path fill="none" stroke="#000000" d="M421,-963C429,-963 422.6897,-952.8195 421,-945 417.135,-927.1135 404,-925.7993 404,-907.5 404,-907.5 404,-907.5 404,-768.5 404,-720.4569 343.1008,-754.0004 305.1746,-729.5927"/>
<polygon fill="#000000" stroke="#000000" points="306.9812,-726.5533 297,-723 302.5868,-732.0021 306.9812,-726.5533"/>
<text text-anchor="middle" x="290" y="-726.8" font-family="Times,serif" font-size="14.00" fill="#000000">i2</text>
<text text-anchor="middle" x="453" y="-951.8" font-family="Times,serif" font-size="14.00" fill="#000000">/right&#45;lte</text>
</g>
<!-- r10 -->
<g id="node15" class="node">
<title>r10</title>
<g id="a_node15"><a xlink:href="file:///home/travis/build/andrewdavidmackenzie/flow/flowstdlib/math/add/add.html" xlink:title="add (#10)">
<ellipse fill="#ff7f50" stroke="#000000" cx="81" cy="-706" rx="57.3905" ry="18"/>
<text text-anchor="middle" x="81" y="-702.3" font-family="Times,serif" font-size="14.00" fill="#000000">add (#10)</text>
</a>
</g>
</g>
<!-- r11&#45;&gt;r10 -->
<g id="edge21" class="edge">
<title>r11:e&#45;&gt;r10:n</title>
<path fill="none" stroke="#000000" d="M421,-963C429,-963 424.8158,-952.0313 421,-945 419.7827,-942.757 141.5335,-765.3873 89.3724,-730.0543"/>
<polygon fill="#000000" stroke="#000000" points="91.1543,-727.0236 81,-724 87.0525,-732.6959 91.1543,-727.0236"/>
<text text-anchor="middle" x="74" y="-727.8" font-family="Times,serif" font-size="14.00" fill="#000000">i1</text>
<text text-anchor="middle" x="393.5" y="-966.8" font-family="Times,serif" font-size="14.00" fill="#000000">/right&#45;lt</text>
</g>
<!-- initializerr11_1 -->
<!-- initializerr11_1&#45;&gt;r11 -->
<g id="edge17" class="edge">
<title>initializerr11_1&#45;&gt;r11:ne</title>
<path fill="none" stroke="#0000ff" stroke-dasharray="1,5" d="M358,-1250.6997C358,-1235.9349 358,-1214.6302 358,-1196 358,-1196 358,-1196 358,-1050 358,-1037.6615 365.0206,-1007.5219 362.1137,-990.5699"/>
<polygon fill="#0000ff" stroke="#0000ff" points="365.1647,-988.805 358,-981 358.7337,-991.5694 365.1647,-988.805"/>
<text text-anchor="middle" x="363" y="-1119.3" font-family="Times,serif" font-size="14.00" fill="#000000">2</text>
</g>
<!-- r8&#45;&gt;r5 -->
<g id="edge26" class="edge">
<title>r8:e&#45;&gt;r5:ne</title>
<path fill="none" stroke="#000000" d="M567,-706C572.8458,-706 568.3576,-685.2145 571,-680 579.5233,-663.1801 586.1552,-661.627 601,-650 637.0252,-621.7836 717.5093,-626.199 703.2049,-599.8469"/>
<polygon fill="#000000" stroke="#000000" points="705.948,-597.6731 697,-592 700.4572,-602.0149 705.948,-597.6731"/>
<text text-anchor="middle" x="715" y="-595.8" font-family="Times,serif" font-size="14.00" fill="#000000">right</text>
</g>
<!-- r6&#45;&gt;r6 -->
<g id="edge31" class="edge">
<title>r6:se&#45;&gt;r6:ne</title>
<path fill="none" stroke="#000000" d="M297,-689C338.1151,-680 403.3454,-680 403.3454,-706 403.3454,-729.9688 347.9092,-731.8413 307.0353,-724.9365"/>
<polygon fill="#000000" stroke="#000000" points="307.482,-721.4582 297,-723 306.1557,-728.3314 307.482,-721.4582"/>
<text text-anchor="middle" x="304" y="-726.8" font-family="Times,serif" font-size="14.00" fill="#000000">i2</text>
<text text-anchor="middle" x="287.5" y="-677.8" font-family="Times,serif" font-size="14.00" fill="#000000">/i2</text>
</g>
<!-- r6&#45;&gt;r5 -->
<g id="edge32" class="edge">
<title>r6:se&#45;&gt;r5:ne</title>
<path fill="none" stroke="#000000" d="M297,-689C326.0535,-659.9465 651.8802,-630.9038 694.3124,-601.8525"/>
<polygon fill="#000000" stroke="#000000" points="697.7449,-602.5686 697,-592 690.9916,-600.7264 697.7449,-602.5686"/>
<text text-anchor="middle" x="679" y="-595.8" font-family="Times,serif" font-size="14.00" fill="#000000">right</text>
<text text-anchor="middle" x="314.5" y="-677.8" font-family="Times,serif" font-size="14.00" fill="#000000">/sum</text>
</g>
<!-- r10&#45;&gt;r11 -->
<g id="edge24" class="edge">
<title>r10:se&#45;&gt;r11:ne</title>
<path fill="none" stroke="#000000" d="M98,-689C110.632,-676.368 121.1544,-683.6375 138.1949,-689 145.5516,-691.3151 252,-760.7876 252,-768.5 252,-907.5 252,-907.5 252,-907.5 252,-945.8807 396.58,-915.0591 420.5928,-945 420.5928,-945 383.9021,-966.1025 366.7033,-975.9944"/>
<polygon fill="#000000" stroke="#000000" points="364.9235,-972.9803 358,-981 368.4135,-979.0483 364.9235,-972.9803"/>
<text text-anchor="middle" x="376" y="-984.8" font-family="Times,serif" font-size="14.00" fill="#000000">right</text>
<text text-anchor="middle" x="80.5" y="-677.8" font-family="Times,serif" font-size="14.00" fill="#000000">/sum</text>
</g>
<!-- r10&#45;&gt;r10 -->
<g id="edge23" class="edge">
<title>r10:se&#45;&gt;r10:ne</title>
<path fill="none" stroke="#000000" d="M98,-689C141.065,-680 210.1949,-680 210.1949,-706 210.1949,-730.0703 150.9457,-731.8568 107.9805,-724.8482"/>
<polygon fill="#000000" stroke="#000000" points="108.4702,-721.3795 98,-723 107.1955,-728.2625 108.4702,-721.3795"/>
<text text-anchor="middle" x="91" y="-726.8" font-family="Times,serif" font-size="14.00" fill="#000000">i2</text>
<text text-anchor="middle" x="107.5" y="-677.8" font-family="Times,serif" font-size="14.00" fill="#000000">/i2</text>
</g>
<!-- initializerr10_1 -->
<!-- initializerr10_1&#45;&gt;r10 -->
<g id="edge22" class="edge">
<title>initializerr10_1&#45;&gt;r10:w</title>
<path fill="none" stroke="#0000ff" stroke-dasharray="1,5" d="M103.5,-944.5375C102.25,-933.7583 101,-919.8833 101,-907.5 101,-907.5 101,-907.5 101,-768.5 101,-728.9738 43.7558,-758.2349 24,-724 22.5006,-721.4016 21.0007,-718.2208 20.1335,-715.2597"/>
<polygon fill="#0000ff" stroke="#0000ff" points="23.3765,-716.5765 24,-706 16.917,-713.8792 23.3765,-716.5765"/>
<text text-anchor="middle" x="106" y="-827.3" font-family="Times,serif" font-size="14.00" fill="#000000">1</text>
</g>
<!-- initializerr8_1 -->
<!-- initializerr8_1&#45;&gt;r8 -->
<g id="edge25" class="edge">
<title>initializerr8_1&#45;&gt;r8:w</title>
<path fill="none" stroke="#0000ff" d="M642.8219,-813.9035C613.1502,-793.724 560.6483,-760.5703 511,-742 472.793,-727.7092 446.8618,-755.5463 421,-724 419.0188,-721.5833 417.3647,-718.3081 416.5613,-715.2138"/>
<polygon fill="#0000ff" stroke="#0000ff" points="419.813,-716.5281 421,-706 413.5067,-713.49 419.813,-716.5281"/>
<text text-anchor="middle" x="586" y="-764.8" font-family="Times,serif" font-size="14.00" fill="#000000">2</text>
</g>
<!-- r5&#45;&gt;r14 -->
<g id="edge27" class="edge">
<title>r5:e&#45;&gt;r14:n</title>
<path fill="none" stroke="#000000" d="M754,-574C802.8995,-574 849,-567.3995 849,-518.5 849,-518.5 849,-518.5 849,-248.5 849,-205.5137 929.209,-243.2237 942.9949,-214.1071"/>
<polygon fill="#000000" stroke="#000000" points="946.4871,-214.4899 945,-204 939.6209,-213.1277 946.4871,-214.4899"/>
<text text-anchor="middle" x="925.5" y="-207.8" font-family="Times,serif" font-size="14.00" fill="#000000">value</text>
<text text-anchor="middle" x="786" y="-577.8" font-family="Times,serif" font-size="14.00" fill="#000000">/right&#45;lte</text>
</g>
<!-- r5&#45;&gt;r6 -->
<g id="edge29" class="edge">
<title>r5:e&#45;&gt;r6:n</title>
<path fill="none" stroke="#000000" d="M754,-574C762,-574 758.3864,-585.3098 754,-592 729.5531,-629.2867 704.7123,-619.2091 662,-632 567.3646,-660.34 540.3424,-653.1632 443,-670 417.2246,-674.4582 408.79,-669.1241 385,-680 356.9525,-692.8223 360.3841,-713.6159 331.3454,-724 323.7073,-726.7314 300.978,-731.3461 288.4758,-729.6858"/>
<polygon fill="#000000" stroke="#000000" points="290.2544,-726.6643 280,-724 286.3547,-732.4775 290.2544,-726.6643"/>
<text text-anchor="middle" x="273" y="-727.8" font-family="Times,serif" font-size="14.00" fill="#000000">i1</text>
<text text-anchor="middle" x="781.5" y="-562.8" font-family="Times,serif" font-size="14.00" fill="#000000">/right&#45;lt</text>
</g>
<!-- r5&#45;&gt;r5 -->
<g id="edge28" class="edge">
<title>r5:s&#45;&gt;r5:n</title>
<path fill="none" stroke="#000000" d="M679,-556C727.9145,-547 825.7434,-547 825.7434,-574 825.7434,-599.2598 740.1188,-600.8878 689.0284,-593.6233"/>
<polygon fill="#000000" stroke="#000000" points="689.4308,-590.1429 679,-592 688.3122,-597.053 689.4308,-590.1429"/>
<text text-anchor="middle" x="666.5" y="-580.8" font-family="Times,serif" font-size="14.00" fill="#000000">left</text>
<text text-anchor="middle" x="654.5" y="-544.8" font-family="Times,serif" font-size="14.00" fill="#000000">/left&#45;gt</text>
</g>
<!-- r9 -->
<g id="node19" class="node">
<title>r9</title>
<g id="a_node19"><a xlink:href="file:///home/travis/build/andrewdavidmackenzie/flow/flowstdlib/control/join/join.html" xlink:title="join (#9)">
<ellipse fill="#ff7f50" stroke="#000000" cx="650" cy="-186" rx="51.1914" ry="18"/>
<text text-anchor="middle" x="650" y="-182.3" font-family="Times,serif" font-size="14.00" fill="#000000">join (#9)</text>
</a>
</g>
</g>
<!-- r5&#45;&gt;r9 -->
<g id="edge30" class="edge">
<title>r5:sw&#45;&gt;r9:ne</title>
<path fill="none" stroke="#000000" d="M661,-556C649.1772,-544.1772 664,-535.2199 664,-518.5 664,-518.5 664,-518.5 664,-248.5 664,-232.5088 674.7902,-222.3468 672.302,-211.731"/>
<polygon fill="#000000" stroke="#000000" points="675.1822,-209.7307 667,-203 669.199,-213.3641 675.1822,-209.7307"/>
<text text-anchor="middle" x="693" y="-206.8" font-family="Times,serif" font-size="14.00" fill="#000000">control</text>
<text text-anchor="middle" x="695" y="-544.8" font-family="Times,serif" font-size="14.00" fill="#000000">/right&#45;gte</text>
</g>
<!-- r4 -->
<g id="node21" class="node">
<title>r4</title>
<g id="a_node21"><a xlink:href="file:///home/travis/build/andrewdavidmackenzie/flow/flowstdlib/math/add/add.html" xlink:title="subsequence&#45;count (#4)">
<ellipse fill="#ff7f50" stroke="#000000" cx="558" cy="-34" rx="124.2781" ry="18"/>
<text text-anchor="middle" x="558" y="-30.3" font-family="Times,serif" font-size="14.00" fill="#000000">subsequence&#45;count (#4)</text>
</a>
</g>
</g>
<!-- r9&#45;&gt;r4 -->
<g id="edge36" class="edge">
<title>r9:e&#45;&gt;r4:ne</title>
<path fill="none" stroke="#000000" d="M702,-186C710,-186 705.2134,-175.3262 702,-168 672.8582,-101.56 633.6996,-105.2873 583.4885,-59.1788"/>
<polygon fill="#000000" stroke="#000000" points="585.6409,-56.3937 576,-52 580.7967,-61.4468 585.6409,-56.3937"/>
<text text-anchor="middle" x="569" y="-55.8" font-family="Times,serif" font-size="14.00" fill="#000000">i2</text>
</g>
<!-- initializerr9_0 -->
<!-- initializerr9_0&#45;&gt;r9 -->
<g id="edge35" class="edge">
<title>initializerr9_0&#45;&gt;r9:nw</title>
<path fill="none" stroke="#0000ff" d="M523.2827,-293.8908C549.3141,-275.0441 591.5242,-243.0126 625.8122,-210.0448"/>
<polygon fill="#0000ff" stroke="#0000ff" points="628.3081,-212.4993 633,-203 623.4083,-207.5001 628.3081,-212.4993"/>
<text text-anchor="middle" x="596" y="-244.8" font-family="Times,serif" font-size="14.00" fill="#000000">1</text>
</g>
<!-- r4&#45;&gt;r4 -->
<g id="edge38" class="edge">
<title>r4:se&#45;&gt;r4:n</title>
<path fill="none" stroke="#000000" d="M576,-16C641.3797,-7 754.139,-7 754.139,-34 754.139,-59.6816 635.8374,-60.9356 568.0219,-53.2519"/>
<polygon fill="#000000" stroke="#000000" points="568.3567,-49.7666 558,-52 567.489,-56.7126 568.3567,-49.7666"/>
<text text-anchor="middle" x="551" y="-55.8" font-family="Times,serif" font-size="14.00" fill="#000000">i1</text>
<text text-anchor="middle" x="558.5" y="-4.8" font-family="Times,serif" font-size="14.00" fill="#000000">/sum</text>
</g>
<!-- initializerr4_0 -->
<!-- initializerr4_0&#45;&gt;r4 -->
<g id="edge37" class="edge">
<title>initializerr4_0&#45;&gt;r4:ne</title>
<path fill="none" stroke="#0000ff" stroke-dasharray="1,5" d="M474.9087,-168.8694C511.8217,-141.595 578.5784,-88.6243 579.5805,-61.5711"/>
<polygon fill="#0000ff" stroke="#0000ff" points="582.782,-60.1397 576,-52 576.2257,-62.5924 582.782,-60.1397"/>
<text text-anchor="middle" x="570" y="-103.3" font-family="Times,serif" font-size="14.00" fill="#000000">1</text>
</g>
</g>
</svg>
