<?xml version="1.0" encoding="UTF-8" standalone="no"?>
<!DOCTYPE svg PUBLIC "-//W3C//DTD SVG 1.1//EN"
 "http://www.w3.org/Graphics/SVG/1.1/DTD/svg11.dtd">
<!-- Generated by graphviz version 2.40.1 (20161225.0304)
 -->
<!-- Title: prime Pages: 1 -->
<svg width="1846pt" height="1388pt"
 viewBox="0.00 0.00 1846.35 1388.00" xmlns="http://www.w3.org/2000/svg" xmlns:xlink="http://www.w3.org/1999/xlink">
<g id="graph0" class="graph" transform="scale(1 1) rotate(0) translate(4 1384)">
<title>prime</title>
<polygon fill="#ffffff" stroke="transparent" points="-4,4 -4,-1384 1842.3454,-1384 1842.3454,4 -4,4"/>
<text text-anchor="middle" x="919.1727" y="-1364.8" font-family="Times,serif" font-size="14.00" fill="#000000">/prime</text>
<g id="clust1" class="cluster">
<title>cluster_candidates</title>
<polygon fill="none" stroke="#000000" points="1376,-937 1376,-1318 1792,-1318 1792,-937 1376,-937"/>
<text text-anchor="middle" x="1584" y="-1302.8" font-family="Times,serif" font-size="14.00" fill="#000000">/prime/candidates</text>
</g>
<g id="clust2" class="cluster">
<title>cluster_composites</title>
<polygon fill="none" stroke="#000000" points="8,-8 8,-1349 1050,-1349 1050,-8 8,-8"/>
<text text-anchor="middle" x="529" y="-1333.8" font-family="Times,serif" font-size="14.00" fill="#000000">/prime/composites</text>
</g>
<g id="clust3" class="cluster">
<title>cluster_divisors</title>
<polygon fill="none" stroke="#000000" points="16,-680 16,-1318 563,-1318 563,-680 16,-680"/>
<text text-anchor="middle" x="289.5" y="-1302.8" font-family="Times,serif" font-size="14.00" fill="#000000">/prime/composites/divisors</text>
</g>
<g id="clust4" class="cluster">
<title>cluster_generate_composites</title>
<polygon fill="none" stroke="#000000" points="571,-152 571,-880 1042,-880 1042,-152 571,-152"/>
<text text-anchor="middle" x="806.5" y="-864.8" font-family="Times,serif" font-size="14.00" fill="#000000">/prime/composites/generate_composites</text>
</g>
<g id="clust5" class="cluster">
<title>cluster_composite_sequence</title>
<polygon fill="none" stroke="#000000" points="579,-160 579,-623 1034,-623 1034,-160 579,-160"/>
<text text-anchor="middle" x="806.5" y="-607.8" font-family="Times,serif" font-size="14.00" fill="#000000">/prime/composites/generate_composites/composite&#45;sequence</text>
</g>
<!-- r2 -->
<g id="node1" class="node">
<title>r2</title>
<g id="a_node1"><a xlink:href="file:///home/travis/build/andrewdavidmackenzie/flow/flowr/src/lib/flowruntime/args/get.html" xlink:title="args (#2)">
<ellipse fill="#ff7f50" stroke="#000000" cx="1113" cy="-1196" rx="54.6905" ry="18"/>
<text text-anchor="middle" x="1113" y="-1192.3" font-family="Times,serif" font-size="14.00" fill="#000000">args (#2)</text>
</a>
</g>
</g>
<!-- r0 -->
<g id="node2" class="node">
<title>r0</title>
<g id="a_node2"><a xlink:href="file:///home/travis/build/andrewdavidmackenzie/flow/flowstdlib/control/compare_switch/compare_switch.html" xlink:title="compare (#0)">
<ellipse fill="#ff7f50" stroke="#000000" cx="1459" cy="-1123" rx="74.9875" ry="18"/>
<text text-anchor="middle" x="1459" y="-1119.3" font-family="Times,serif" font-size="14.00" fill="#000000">compare (#0)</text>
</a>
</g>
</g>
<!-- r2&#45;&gt;r0 -->
<g id="edge1" class="edge">
<title>r2:e&#45;&gt;r0:n</title>
<path fill="none" stroke="#000000" d="M1168,-1196C1197.9494,-1196 1414.4414,-1177.6975 1453.1005,-1149.5991"/>
<polygon fill="#000000" stroke="#000000" points="1456.2289,-1151.226 1459,-1141 1450.4567,-1147.266 1456.2289,-1151.226"/>
<text text-anchor="middle" x="1446.5" y="-1144.8" font-family="Times,serif" font-size="14.00" fill="#000000">left</text>
<text text-anchor="middle" x="1192" y="-1199.8" font-family="Times,serif" font-size="14.00" fill="#000000">/json/1</text>
</g>
<!-- r14 -->
<g id="node3" class="node">
<title>r14</title>
<g id="a_node3"><a xlink:href="file:///home/travis/build/andrewdavidmackenzie/flow/flowstdlib/data/accumulate/accumulate.html" xlink:title="all&#45;numbers (#14)">
<ellipse fill="#ff7f50" stroke="#000000" cx="1479" cy="-963" rx="94.7833" ry="18"/>
<text text-anchor="middle" x="1479" y="-959.3" font-family="Times,serif" font-size="14.00" fill="#000000">all&#45;numbers (#14)</text>
</a>
</g>
</g>
<!-- r2&#45;&gt;r14 -->
<g id="edge2" class="edge">
<title>r2:e&#45;&gt;r14:nw</title>
<path fill="none" stroke="#000000" d="M1168,-1196C1240.8889,-1196 1121.0866,-1087.7846 1168,-1032 1187.6902,-1008.5864 1402.0179,-1004.8406 1452.264,-985.8732"/>
<polygon fill="#000000" stroke="#000000" points="1453.972,-988.9283 1461,-981 1450.5618,-982.8151 1453.972,-988.9283"/>
<text text-anchor="middle" x="1421" y="-984.8" font-family="Times,serif" font-size="14.00" fill="#000000">chunk_size</text>
<text text-anchor="middle" x="1192" y="-1184.8" font-family="Times,serif" font-size="14.00" fill="#000000">/json/1</text>
</g>
<!-- r10 -->
<g id="node4" class="node">
<title>r10</title>
<g id="a_node4"><a xlink:href="file:///home/travis/build/andrewdavidmackenzie/flow/flowstdlib/math/sqrt/sqrt.html" xlink:title="sqrt (#10)">
<ellipse fill="#ff7f50" stroke="#000000" cx="686" cy="-1123" rx="59.2899" ry="18"/>
<text text-anchor="middle" x="686" y="-1119.3" font-family="Times,serif" font-size="14.00" fill="#000000">sqrt (#10)</text>
</a>
</g>
</g>
<!-- r2&#45;&gt;r10 -->
<g id="edge3" class="edge">
<title>r2:e&#45;&gt;r10:n</title>
<path fill="none" stroke="#000000" d="M1168,-1196C1176,-1196 1173.4813,-1183.8271 1168,-1178 1145.5762,-1154.1613 906.6207,-1162.6459 874,-1160 835.9071,-1156.9102 711.4189,-1178.4899 689.3574,-1150.7332"/>
<polygon fill="#000000" stroke="#000000" points="692.5697,-1149.312 686,-1141 685.9523,-1151.5947 692.5697,-1149.312"/>
<text text-anchor="middle" x="1144" y="-1199.8" font-family="Times,serif" font-size="14.00" fill="#000000">/json/1</text>
</g>
<!-- r4 -->
<g id="node5" class="node">
<title>r4</title>
<g id="a_node5"><a xlink:href="file:///home/travis/build/andrewdavidmackenzie/flow/flowstdlib/data/buffer/buffer.html" xlink:title="limit&#45;buffer (#4)">
<ellipse fill="#ff7f50" stroke="#000000" cx="909" cy="-831" rx="87.1846" ry="18"/>
<text text-anchor="middle" x="909" y="-827.3" font-family="Times,serif" font-size="14.00" fill="#000000">limit&#45;buffer (#4)</text>
</a>
</g>
</g>
<!-- r2&#45;&gt;r4 -->
<g id="edge4" class="edge">
<title>r2:e&#45;&gt;r4:n</title>
<path fill="none" stroke="#000000" d="M1168,-1196C1176,-1196 1172.9823,-1184.2591 1168,-1178 1100.1167,-1092.7207 929,-1231.9986 929,-1123 929,-1123 929,-1123 929,-907.5 929,-883.7792 914.0949,-877.8942 910.0193,-859.0503"/>
<polygon fill="#000000" stroke="#000000" points="913.4912,-858.5958 909,-849 906.527,-859.3022 913.4912,-858.5958"/>
<text text-anchor="middle" x="1144" y="-1184.8" font-family="Times,serif" font-size="14.00" fill="#000000">/json/1</text>
</g>
<!-- r0&#45;&gt;r0 -->
<g id="edge7" class="edge">
<title>r0:s&#45;&gt;r0:n</title>
<path fill="none" stroke="#000000" d="M1459,-1105C1507.9145,-1096 1605.7434,-1096 1605.7434,-1123 1605.7434,-1148.2598 1520.1188,-1149.8878 1469.0284,-1142.6233"/>
<polygon fill="#000000" stroke="#000000" points="1469.4308,-1139.1429 1459,-1141 1468.3122,-1146.053 1469.4308,-1139.1429"/>
<text text-anchor="middle" x="1471.5" y="-1144.8" font-family="Times,serif" font-size="14.00" fill="#000000">left</text>
<text text-anchor="middle" x="1434.5" y="-1093.8" font-family="Times,serif" font-size="14.00" fill="#000000">/left&#45;gt</text>
</g>
<!-- r0&#45;&gt;r14 -->
<g id="edge6" class="edge">
<title>r0:e&#45;&gt;r14:n</title>
<path fill="none" stroke="#000000" d="M1534,-1123C1542,-1123 1535.6578,-1112.8263 1534,-1105 1522.2386,-1049.4755 1483.8782,-1042.0296 1479.4232,-991.0475"/>
<polygon fill="#000000" stroke="#000000" points="1482.9178,-990.8438 1479,-981 1475.924,-991.1385 1482.9178,-990.8438"/>
<text text-anchor="middle" x="1502" y="-984.8" font-family="Times,serif" font-size="14.00" fill="#000000">values</text>
<text text-anchor="middle" x="1566" y="-1126.8" font-family="Times,serif" font-size="14.00" fill="#000000">/right&#45;lte</text>
</g>
<!-- r1 -->
<g id="node7" class="node">
<title>r1</title>
<g id="a_node7"><a xlink:href="file:///home/travis/build/andrewdavidmackenzie/flow/flowstdlib/math/add/add.html" xlink:title="add (#1)">
<ellipse fill="#ff7f50" stroke="#000000" cx="1715" cy="-963" rx="51.1914" ry="18"/>
<text text-anchor="middle" x="1715" y="-959.3" font-family="Times,serif" font-size="14.00" fill="#000000">add (#1)</text>
</a>
</g>
</g>
<!-- r0&#45;&gt;r1 -->
<g id="edge8" class="edge">
<title>r0:e&#45;&gt;r1:n</title>
<path fill="none" stroke="#000000" d="M1534,-1123C1536.3367,-1123 1691.4197,-1069.7213 1693,-1068 1717.5499,-1041.26 1715.6358,-1024.1648 1715.0937,-991.2381"/>
<polygon fill="#000000" stroke="#000000" points="1718.5914,-990.9675 1715,-981 1711.5917,-991.0316 1718.5914,-990.9675"/>
<text text-anchor="middle" x="1708" y="-984.8" font-family="Times,serif" font-size="14.00" fill="#000000">i1</text>
<text text-anchor="middle" x="1561.5" y="-1111.8" font-family="Times,serif" font-size="14.00" fill="#000000">/right&#45;lt</text>
</g>
<!-- r14&#45;&gt;r14 -->
<g id="edge13" class="edge">
<title>r14:s&#45;&gt;r14:nw</title>
<path fill="none" stroke="#000000" d="M1479,-945C1423.3695,-936 1312.1084,-936 1312.1084,-963 1312.1084,-988.418 1394.7606,-989.9073 1450.8599,-982.4857"/>
<polygon fill="#000000" stroke="#000000" points="1451.6131,-985.9128 1461,-981 1450.5982,-978.9868 1451.6131,-985.9128"/>
<text text-anchor="middle" x="1501" y="-984.8" font-family="Times,serif" font-size="14.00" fill="#000000">chunk_size</text>
<text text-anchor="middle" x="1436.5" y="-933.8" font-family="Times,serif" font-size="14.00" fill="#000000">/chunk_size</text>
</g>
<!-- r14&#45;&gt;r14 -->
<g id="edge14" class="edge">
<title>r14:e&#45;&gt;r14:ne</title>
<path fill="none" stroke="#000000" d="M1574,-963C1597.8916,-954 1645.8916,-954 1645.8916,-972 1645.8916,-988.9453 1563.2394,-989.9382 1507.1401,-982.4875"/>
<polygon fill="#000000" stroke="#000000" points="1507.4021,-978.9886 1497,-981 1506.3861,-985.9145 1507.4021,-978.9886"/>
<text text-anchor="middle" x="1473" y="-969.8" font-family="Times,serif" font-size="14.00" fill="#000000">partial</text>
<text text-anchor="middle" x="1600" y="-966.8" font-family="Times,serif" font-size="14.00" fill="#000000">/partial</text>
</g>
<!-- r12 -->
<g id="node10" class="node">
<title>r12</title>
<g id="a_node10"><a xlink:href="file:///home/travis/build/andrewdavidmackenzie/flow/flowstdlib/data/remove/remove.html" xlink:title="remove (#12)">
<ellipse fill="#ff7f50" stroke="#000000" cx="933" cy="-186" rx="74.9875" ry="18"/>
<text text-anchor="middle" x="933" y="-182.3" font-family="Times,serif" font-size="14.00" fill="#000000">remove (#12)</text>
</a>
</g>
</g>
<!-- r14&#45;&gt;r12 -->
<g id="edge15" class="edge">
<title>r14:s&#45;&gt;r12:ne</title>
<path fill="none" stroke="#000000" d="M1479,-945C1479,-864.1523 1301,-988.3477 1301,-907.5 1301,-907.5 1301,-907.5 1301,-248.5 1301,-95.2142 1072.501,-305.0456 958.6613,-210.9739"/>
<polygon fill="#000000" stroke="#000000" points="960.7511,-208.1433 951,-204 956.039,-213.3198 960.7511,-208.1433"/>
<text text-anchor="middle" x="931.5" y="-207.8" font-family="Times,serif" font-size="14.00" fill="#000000">array</text>
<text text-anchor="middle" x="1503.5" y="-933.8" font-family="Times,serif" font-size="14.00" fill="#000000">/chunk</text>
</g>
<!-- r8 -->
<g id="node11" class="node">
<title>r8</title>
<g id="a_node11"><a xlink:href="file:///home/travis/build/andrewdavidmackenzie/flow/flowstdlib/control/compare_switch/compare_switch.html" xlink:title="compare (#8)">
<ellipse fill="#ff7f50" stroke="#000000" cx="323" cy="-963" rx="74.9875" ry="18"/>
<text text-anchor="middle" x="323" y="-959.3" font-family="Times,serif" font-size="14.00" fill="#000000">compare (#8)</text>
</a>
</g>
</g>
<!-- r10&#45;&gt;r8 -->
<g id="edge16" class="edge">
<title>r10:e&#45;&gt;r8:n</title>
<path fill="none" stroke="#000000" d="M745,-1123C753,-1123 749.7936,-1111.4048 745,-1105 738.3082,-1096.059 391.2645,-1010.0681 331.6658,-986.0236"/>
<polygon fill="#000000" stroke="#000000" points="333.4068,-982.9873 323,-981 329.8961,-989.0433 333.4068,-982.9873"/>
<text text-anchor="middle" x="310.5" y="-984.8" font-family="Times,serif" font-size="14.00" fill="#000000">left</text>
</g>
<!-- r4&#45;&gt;r4 -->
<g id="edge33" class="edge">
<title>r4:e&#45;&gt;r4:n</title>
<path fill="none" stroke="#000000" d="M996,-831C1020.0923,-822 1068.0923,-822 1068.0923,-840 1068.0923,-856.9102 974.4853,-857.934 919.1804,-850.5338"/>
<polygon fill="#000000" stroke="#000000" points="919.4099,-847.0289 909,-849 918.3669,-853.9508 919.4099,-847.0289"/>
</g>
<!-- r6 -->
<g id="node18" class="node">
<title>r6</title>
<g id="a_node18"><a xlink:href="file:///home/travis/build/andrewdavidmackenzie/flow/flowstdlib/control/compare_switch/compare_switch.html" xlink:title="compare (#6)">
<ellipse fill="#ff7f50" stroke="#000000" cx="667" cy="-574" rx="74.9875" ry="18"/>
<text text-anchor="middle" x="667" y="-570.3" font-family="Times,serif" font-size="14.00" fill="#000000">compare (#6)</text>
</a>
</g>
</g>
<!-- r4&#45;&gt;r6 -->
<g id="edge34" class="edge">
<title>r4:e&#45;&gt;r6:n</title>
<path fill="none" stroke="#000000" d="M996,-831C1004,-831 1000.4174,-819.6698 996,-813 968.0133,-770.7426 891,-819.1847 891,-768.5 891,-768.5 891,-768.5 891,-650.5 891,-551.3232 682.8951,-684.5773 667.8562,-602.1973"/>
<polygon fill="#000000" stroke="#000000" points="671.3245,-601.6721 667,-592 664.3491,-602.2578 671.3245,-601.6721"/>
<text text-anchor="middle" x="654.5" y="-595.8" font-family="Times,serif" font-size="14.00" fill="#000000">left</text>
</g>
<!-- initializerr0_1 -->
<!-- initializerr0_1&#45;&gt;r0 -->
<g id="edge5" class="edge">
<title>initializerr0_1&#45;&gt;r0:ne</title>
<path fill="none" stroke="#0000ff" stroke-dasharray="1,5" d="M1484.0147,-1250.726C1492.5932,-1225.2071 1503.6539,-1178.6884 1483.5307,-1148.9205"/>
<polygon fill="#0000ff" stroke="#0000ff" points="1486.0621,-1146.4889 1477,-1141 1480.6613,-1150.9421 1486.0621,-1146.4889"/>
<text text-anchor="middle" x="1499" y="-1192.3" font-family="Times,serif" font-size="14.00" fill="#000000">1</text>
</g>
<!-- r1&#45;&gt;r0 -->
<g id="edge11" class="edge">
<title>r1:se&#45;&gt;r0:ne</title>
<path fill="none" stroke="#000000" d="M1732,-946C1732,-946 1766.3454,-981 1766.3454,-981 1744.7927,-1005.3865 1648.3738,-981.3961 1621,-999 1558.6973,-1039.0665 1598.3947,-1104.8454 1533.7434,-1141 1525.1452,-1145.8083 1500.7904,-1148.5457 1486.2949,-1145.2616"/>
<polygon fill="#000000" stroke="#000000" points="1487.5488,-1141.9862 1477,-1141 1484.6314,-1148.3493 1487.5488,-1141.9862"/>
<text text-anchor="middle" x="1495" y="-1144.8" font-family="Times,serif" font-size="14.00" fill="#000000">right</text>
<text text-anchor="middle" x="1749.5" y="-934.8" font-family="Times,serif" font-size="14.00" fill="#000000">/sum</text>
</g>
<!-- r1&#45;&gt;r1 -->
<g id="edge10" class="edge">
<title>r1:se&#45;&gt;r1:ne</title>
<path fill="none" stroke="#000000" d="M1732,-946C1773.1151,-937 1838.3454,-937 1838.3454,-963 1838.3454,-986.9688 1782.9092,-988.8413 1742.0353,-981.9365"/>
<polygon fill="#000000" stroke="#000000" points="1742.482,-978.4582 1732,-980 1741.1557,-985.3314 1742.482,-978.4582"/>
<text text-anchor="middle" x="1725" y="-983.8" font-family="Times,serif" font-size="14.00" fill="#000000">i2</text>
<text text-anchor="middle" x="1722.5" y="-934.8" font-family="Times,serif" font-size="14.00" fill="#000000">/i2</text>
</g>
<!-- initializerr1_1 -->
<!-- initializerr1_1&#45;&gt;r1 -->
<g id="edge9" class="edge">
<title>initializerr1_1&#45;&gt;r1:w</title>
<path fill="none" stroke="#0000ff" stroke-dasharray="1,5" d="M1688.263,-1104.957C1663.7626,-1065.8916 1612.6687,-976.0393 1652.9704,-964.2781"/>
<polygon fill="#0000ff" stroke="#0000ff" points="1653.5227,-967.7361 1663,-963 1652.6378,-960.7922 1653.5227,-967.7361"/>
<text text-anchor="middle" x="1670" y="-1046.3" font-family="Times,serif" font-size="14.00" fill="#000000">1</text>
</g>
<!-- initializerr14_1 -->
<!-- initializerr14_1&#45;&gt;r14 -->
<g id="edge12" class="edge">
<title>initializerr14_1&#45;&gt;r14:n</title>
<path fill="none" stroke="#0000ff" stroke-dasharray="1,5" d="M1339.249,-1036.3052C1387.0035,-1023.3787 1452.5752,-1003.8294 1472.8056,-989.0585"/>
<polygon fill="#0000ff" stroke="#0000ff" points="1475.6805,-991.0614 1479,-981 1470.1307,-986.7953 1475.6805,-991.0614"/>
<text text-anchor="middle" x="1455.5" y="-1002.8" font-family="Times,serif" font-size="14.00" fill="#000000">[]</text>
</g>
<!-- r12&#45;&gt;r12 -->
<g id="edge39" class="edge">
<title>r12:e&#45;&gt;r12:ne</title>
<path fill="none" stroke="#000000" d="M1008,-186C1031.7434,-177 1079.7434,-177 1079.7434,-195 1079.7434,-211.8047 1010.1647,-212.9206 961.1212,-205.6713"/>
<polygon fill="#000000" stroke="#000000" points="961.4366,-202.176 951,-204 960.2962,-209.0825 961.4366,-202.176"/>
<text text-anchor="middle" x="970.5" y="-207.8" font-family="Times,serif" font-size="14.00" fill="#000000">array</text>
</g>
<!-- r13 -->
<g id="node23" class="node">
<title>r13</title>
<g id="a_node23"><a xlink:href="file:///home/travis/build/andrewdavidmackenzie/flow/flowr/src/lib/flowruntime/stdio/stdout.html" xlink:title="print (#13)">
<ellipse fill="#ff7f50" stroke="#000000" cx="1121" cy="-107" rx="63.0888" ry="18"/>
<text text-anchor="middle" x="1121" y="-103.3" font-family="Times,serif" font-size="14.00" fill="#000000">print (#13)</text>
</a>
</g>
</g>
<!-- r12&#45;&gt;r13 -->
<g id="edge40" class="edge">
<title>r12:e&#45;&gt;r13:n</title>
<path fill="none" stroke="#000000" d="M1008,-186C1061.5056,-186 1114.0046,-182.5482 1120.358,-135.0903"/>
<polygon fill="#000000" stroke="#000000" points="1123.8579,-135.2021 1121,-125 1116.872,-134.7575 1123.8579,-135.2021"/>
</g>
<!-- r8&#45;&gt;r8 -->
<g id="edge20" class="edge">
<title>r8:s&#45;&gt;r8:n</title>
<path fill="none" stroke="#000000" d="M323,-945C371.9145,-936 469.7434,-936 469.7434,-963 469.7434,-988.2598 384.1188,-989.8878 333.0284,-982.6233"/>
<polygon fill="#000000" stroke="#000000" points="333.4308,-979.1429 323,-981 332.3122,-986.053 333.4308,-979.1429"/>
<text text-anchor="middle" x="335.5" y="-984.8" font-family="Times,serif" font-size="14.00" fill="#000000">left</text>
<text text-anchor="middle" x="298.5" y="-933.8" font-family="Times,serif" font-size="14.00" fill="#000000">/left&#45;gt</text>
</g>
<!-- r7 -->
<g id="node13" class="node">
<title>r7</title>
<g id="a_node13"><a xlink:href="file:///home/travis/build/andrewdavidmackenzie/flow/flowstdlib/math/multiply/multiply.html" xlink:title="multiply (#7)">
<ellipse fill="#ff7f50" stroke="#000000" cx="482" cy="-706" rx="72.5877" ry="18"/>
<text text-anchor="middle" x="482" y="-702.3" font-family="Times,serif" font-size="14.00" fill="#000000">multiply (#7)</text>
</a>
</g>
</g>
<!-- r8&#45;&gt;r7 -->
<g id="edge18" class="edge">
<title>r8:e&#45;&gt;r7:n</title>
<path fill="none" stroke="#000000" d="M398,-963C440.1854,-963 475,-949.6854 475,-907.5 475,-907.5 475,-907.5 475,-768.5 475,-752.3894 479.5327,-746.3561 481.3032,-734.1819"/>
<polygon fill="#000000" stroke="#000000" points="484.809,-734.2157 482,-724 477.8253,-733.7377 484.809,-734.2157"/>
<text text-anchor="middle" x="475" y="-727.8" font-family="Times,serif" font-size="14.00" fill="#000000">i1</text>
<text text-anchor="middle" x="430" y="-966.8" font-family="Times,serif" font-size="14.00" fill="#000000">/right&#45;lte</text>
</g>
<!-- r5 -->
<g id="node14" class="node">
<title>r5</title>
<g id="a_node14"><a xlink:href="file:///home/travis/build/andrewdavidmackenzie/flow/flowstdlib/math/add/add.html" xlink:title="add (#5)">
<ellipse fill="#ff7f50" stroke="#000000" cx="268" cy="-706" rx="51.1914" ry="18"/>
<text text-anchor="middle" x="268" y="-702.3" font-family="Times,serif" font-size="14.00" fill="#000000">add (#5)</text>
</a>
</g>
</g>
<!-- r8&#45;&gt;r5 -->
<g id="edge19" class="edge">
<title>r8:e&#45;&gt;r5:ne</title>
<path fill="none" stroke="#000000" d="M398,-963C406,-963 398.3192,-952.9936 398,-945 397.3328,-928.2934 395,-924.2199 395,-907.5 395,-907.5 395,-907.5 395,-768.5 395,-719.1071 331.731,-754.8891 292.8867,-729.4177"/>
<polygon fill="#000000" stroke="#000000" points="294.9656,-726.597 285,-723 290.5473,-732.0265 294.9656,-726.597"/>
<text text-anchor="middle" x="278" y="-726.8" font-family="Times,serif" font-size="14.00" fill="#000000">i2</text>
<text text-anchor="middle" x="430" y="-951.8" font-family="Times,serif" font-size="14.00" fill="#000000">/right&#45;lte</text>
</g>
<!-- r9 -->
<g id="node15" class="node">
<title>r9</title>
<g id="a_node15"><a xlink:href="file:///home/travis/build/andrewdavidmackenzie/flow/flowstdlib/math/add/add.html" xlink:title="add (#9)">
<ellipse fill="#ff7f50" stroke="#000000" cx="75" cy="-706" rx="51.1914" ry="18"/>
<text text-anchor="middle" x="75" y="-702.3" font-family="Times,serif" font-size="14.00" fill="#000000">add (#9)</text>
</a>
</g>
</g>
<!-- r8&#45;&gt;r9 -->
<g id="edge21" class="edge">
<title>r8:e&#45;&gt;r9:n</title>
<path fill="none" stroke="#000000" d="M398,-963C406,-963 401.7323,-952.076 398,-945 388.6883,-927.3461 124.291,-774.1962 80.976,-732.3699"/>
<polygon fill="#000000" stroke="#000000" points="83.6593,-730.1048 75,-724 77.9623,-734.1723 83.6593,-730.1048"/>
<text text-anchor="middle" x="68" y="-727.8" font-family="Times,serif" font-size="14.00" fill="#000000">i1</text>
<text text-anchor="middle" x="370.5" y="-966.8" font-family="Times,serif" font-size="14.00" fill="#000000">/right&#45;lt</text>
</g>
<!-- initializerr8_1 -->
<!-- initializerr8_1&#45;&gt;r8 -->
<g id="edge17" class="edge">
<title>initializerr8_1&#45;&gt;r8:ne</title>
<path fill="none" stroke="#0000ff" stroke-dasharray="1,5" d="M341,-1250.6997C341,-1235.9349 341,-1214.6302 341,-1196 341,-1196 341,-1196 341,-1050 341,-1037.6615 348.0206,-1007.5219 345.1137,-990.5699"/>
<polygon fill="#0000ff" stroke="#0000ff" points="348.1647,-988.805 341,-981 341.7337,-991.5694 348.1647,-988.805"/>
<text text-anchor="middle" x="346" y="-1119.3" font-family="Times,serif" font-size="14.00" fill="#000000">2</text>
</g>
<!-- r7&#45;&gt;r6 -->
<g id="edge26" class="edge">
<title>r7:e&#45;&gt;r6:ne</title>
<path fill="none" stroke="#000000" d="M555,-706C560.8458,-706 556.3576,-685.2145 559,-680 567.5233,-663.1801 574.1552,-661.627 589,-650 625.0252,-621.7836 705.5093,-626.199 691.2049,-599.8469"/>
<polygon fill="#000000" stroke="#000000" points="693.948,-597.6731 685,-592 688.4572,-602.0149 693.948,-597.6731"/>
<text text-anchor="middle" x="703" y="-595.8" font-family="Times,serif" font-size="14.00" fill="#000000">right</text>
</g>
<!-- r5&#45;&gt;r5 -->
<g id="edge31" class="edge">
<title>r5:se&#45;&gt;r5:ne</title>
<path fill="none" stroke="#000000" d="M285,-689C326.1151,-680 391.3454,-680 391.3454,-706 391.3454,-729.9688 335.9092,-731.8413 295.0353,-724.9365"/>
<polygon fill="#000000" stroke="#000000" points="295.482,-721.4582 285,-723 294.1557,-728.3314 295.482,-721.4582"/>
<text text-anchor="middle" x="292" y="-726.8" font-family="Times,serif" font-size="14.00" fill="#000000">i2</text>
<text text-anchor="middle" x="275.5" y="-677.8" font-family="Times,serif" font-size="14.00" fill="#000000">/i2</text>
</g>
<!-- r5&#45;&gt;r6 -->
<g id="edge32" class="edge">
<title>r5:se&#45;&gt;r6:ne</title>
<path fill="none" stroke="#000000" d="M285,-689C314.0535,-659.9465 639.8802,-630.9038 682.3124,-601.8525"/>
<polygon fill="#000000" stroke="#000000" points="685.7449,-602.5686 685,-592 678.9916,-600.7264 685.7449,-602.5686"/>
<text text-anchor="middle" x="667" y="-595.8" font-family="Times,serif" font-size="14.00" fill="#000000">right</text>
<text text-anchor="middle" x="302.5" y="-677.8" font-family="Times,serif" font-size="14.00" fill="#000000">/sum</text>
</g>
<!-- r9&#45;&gt;r8 -->
<g id="edge24" class="edge">
<title>r9:se&#45;&gt;r8:ne</title>
<path fill="none" stroke="#000000" d="M92,-689C102.7937,-678.2063 111.7239,-684.616 126.3454,-689 128.2677,-689.5764 247,-766.4932 247,-768.5 247,-907.5 247,-907.5 247,-907.5 247,-942.0195 376.4839,-917.8039 397.7434,-945 397.7434,-945 365.8252,-965.25 349.8662,-975.375"/>
<polygon fill="#000000" stroke="#000000" points="347.569,-972.6874 341,-981 351.319,-978.5982 347.569,-972.6874"/>
<text text-anchor="middle" x="359" y="-984.8" font-family="Times,serif" font-size="14.00" fill="#000000">right</text>
<text text-anchor="middle" x="74.5" y="-677.8" font-family="Times,serif" font-size="14.00" fill="#000000">/sum</text>
</g>
<!-- r9&#45;&gt;r9 -->
<g id="edge23" class="edge">
<title>r9:se&#45;&gt;r9:ne</title>
<path fill="none" stroke="#000000" d="M92,-689C133.1151,-680 198.3454,-680 198.3454,-706 198.3454,-729.9688 142.9092,-731.8413 102.0353,-724.9365"/>
<polygon fill="#000000" stroke="#000000" points="102.482,-721.4582 92,-723 101.1557,-728.3314 102.482,-721.4582"/>
<text text-anchor="middle" x="85" y="-726.8" font-family="Times,serif" font-size="14.00" fill="#000000">i2</text>
<text text-anchor="middle" x="101.5" y="-677.8" font-family="Times,serif" font-size="14.00" fill="#000000">/i2</text>
</g>
<!-- initializerr9_1 -->
<!-- initializerr9_1&#45;&gt;r9 -->
<g id="edge22" class="edge">
<title>initializerr9_1&#45;&gt;r9:w</title>
<path fill="none" stroke="#0000ff" stroke-dasharray="1,5" d="M99,-944.506C98.5,-933.7163 98,-919.8413 98,-907.5 98,-907.5 98,-907.5 98,-768.5 98,-729.7409 42.1794,-757.6812 23,-724 21.5155,-721.393 20.0194,-718.2101 19.151,-715.2497"/>
<polygon fill="#0000ff" stroke="#0000ff" points="22.3894,-716.5772 23,-706 15.9266,-713.8879 22.3894,-716.5772"/>
<text text-anchor="middle" x="103" y="-827.3" font-family="Times,serif" font-size="14.00" fill="#000000">1</text>
</g>
<!-- initializerr7_1 -->
<!-- initializerr7_1&#45;&gt;r7 -->
<g id="edge25" class="edge">
<title>initializerr7_1&#45;&gt;r7:w</title>
<path fill="none" stroke="#0000ff" d="M629.6513,-813.8601C598.8593,-793.7955 544.7246,-760.9097 494,-742 457.8169,-728.5112 433.3129,-754.0007 409,-724 407.0325,-721.5722 405.3813,-718.2945 404.5765,-715.2014"/>
<polygon fill="#0000ff" stroke="#0000ff" points="407.8216,-716.5291 409,-706 401.5128,-713.4962 407.8216,-716.5291"/>
<text text-anchor="middle" x="570" y="-764.8" font-family="Times,serif" font-size="14.00" fill="#000000">2</text>
</g>
<!-- r6&#45;&gt;r12 -->
<g id="edge27" class="edge">
<title>r6:e&#45;&gt;r12:n</title>
<path fill="none" stroke="#000000" d="M742,-574C790.8995,-574 837,-567.3995 837,-518.5 837,-518.5 837,-518.5 837,-248.5 837,-205.5137 917.209,-243.2237 930.9949,-214.1071"/>
<polygon fill="#000000" stroke="#000000" points="934.4871,-214.4899 933,-204 927.6209,-213.1277 934.4871,-214.4899"/>
<text text-anchor="middle" x="913.5" y="-207.8" font-family="Times,serif" font-size="14.00" fill="#000000">value</text>
<text text-anchor="middle" x="774" y="-577.8" font-family="Times,serif" font-size="14.00" fill="#000000">/right&#45;lte</text>
</g>
<!-- r6&#45;&gt;r5 -->
<g id="edge29" class="edge">
<title>r6:e&#45;&gt;r5:n</title>
<path fill="none" stroke="#000000" d="M742,-574C750,-574 746.3864,-585.3098 742,-592 717.5531,-629.2867 692.7123,-619.2091 650,-632 555.3646,-660.34 528.3424,-653.1632 431,-670 405.2246,-674.4582 396.79,-669.1241 373,-680 344.9525,-692.8223 348.3841,-713.6159 319.3454,-724 311.7073,-726.7314 288.978,-731.3461 276.4758,-729.6858"/>
<polygon fill="#000000" stroke="#000000" points="278.2544,-726.6643 268,-724 274.3547,-732.4775 278.2544,-726.6643"/>
<text text-anchor="middle" x="261" y="-727.8" font-family="Times,serif" font-size="14.00" fill="#000000">i1</text>
<text text-anchor="middle" x="769.5" y="-562.8" font-family="Times,serif" font-size="14.00" fill="#000000">/right&#45;lt</text>
</g>
<!-- r6&#45;&gt;r6 -->
<g id="edge28" class="edge">
<title>r6:s&#45;&gt;r6:n</title>
<path fill="none" stroke="#000000" d="M667,-556C715.9145,-547 813.7434,-547 813.7434,-574 813.7434,-599.2598 728.1188,-600.8878 677.0284,-593.6233"/>
<polygon fill="#000000" stroke="#000000" points="677.4308,-590.1429 667,-592 676.3122,-597.053 677.4308,-590.1429"/>
<text text-anchor="middle" x="654.5" y="-580.8" font-family="Times,serif" font-size="14.00" fill="#000000">left</text>
<text text-anchor="middle" x="642.5" y="-544.8" font-family="Times,serif" font-size="14.00" fill="#000000">/left&#45;gt</text>
</g>
<!-- r3 -->
<g id="node19" class="node">
<title>r3</title>
<g id="a_node19"><a xlink:href="file:///home/travis/build/andrewdavidmackenzie/flow/flowstdlib/control/join/join.html" xlink:title="join (#3)">
<ellipse fill="#ff7f50" stroke="#000000" cx="638" cy="-186" rx="51.1914" ry="18"/>
<text text-anchor="middle" x="638" y="-182.3" font-family="Times,serif" font-size="14.00" fill="#000000">join (#3)</text>
</a>
</g>
</g>
<!-- r6&#45;&gt;r3 -->
<g id="edge30" class="edge">
<title>r6:sw&#45;&gt;r3:ne</title>
<path fill="none" stroke="#000000" d="M649,-556C637.1772,-544.1772 652,-535.2199 652,-518.5 652,-518.5 652,-518.5 652,-248.5 652,-232.5088 662.7902,-222.3468 660.302,-211.731"/>
<polygon fill="#000000" stroke="#000000" points="663.1822,-209.7307 655,-203 657.199,-213.3641 663.1822,-209.7307"/>
<text text-anchor="middle" x="681" y="-206.8" font-family="Times,serif" font-size="14.00" fill="#000000">control</text>
<text text-anchor="middle" x="683" y="-544.8" font-family="Times,serif" font-size="14.00" fill="#000000">/right&#45;gte</text>
</g>
<!-- r11 -->
<g id="node21" class="node">
<title>r11</title>
<g id="a_node21"><a xlink:href="file:///home/travis/build/andrewdavidmackenzie/flow/flowstdlib/math/add/add.html" xlink:title="subsequence&#45;count (#11)">
<ellipse fill="#ff7f50" stroke="#000000" cx="543" cy="-34" rx="129.9769" ry="18"/>
<text text-anchor="middle" x="543" y="-30.3" font-family="Times,serif" font-size="14.00" fill="#000000">subsequence&#45;count (#11)</text>
</a>
</g>
</g>
<!-- r3&#45;&gt;r11 -->
<g id="edge36" class="edge">
<title>r3:e&#45;&gt;r11:ne</title>
<path fill="none" stroke="#000000" d="M690,-186C698,-186 693.2563,-175.3073 690,-168 660.0257,-100.7356 619.3692,-105.8772 568.2784,-58.9763"/>
<polygon fill="#000000" stroke="#000000" points="570.6412,-56.3929 561,-52 565.7974,-61.4465 570.6412,-56.3929"/>
<text text-anchor="middle" x="554" y="-55.8" font-family="Times,serif" font-size="14.00" fill="#000000">i2</text>
</g>
<!-- initializerr3_0 -->
<!-- initializerr3_0&#45;&gt;r3 -->
<g id="edge35" class="edge">
<title>initializerr3_0&#45;&gt;r3:nw</title>
<path fill="none" stroke="#0000ff" d="M511.2827,-293.8908C537.3141,-275.0441 579.5242,-243.0126 613.8122,-210.0448"/>
<polygon fill="#0000ff" stroke="#0000ff" points="616.3081,-212.4993 621,-203 611.4083,-207.5001 616.3081,-212.4993"/>
<text text-anchor="middle" x="584" y="-244.8" font-family="Times,serif" font-size="14.00" fill="#000000">1</text>
</g>
<!-- r11&#45;&gt;r11 -->
<g id="edge38" class="edge">
<title>r11:se&#45;&gt;r11:n</title>
<path fill="none" stroke="#000000" d="M561,-16C628.3295,-7 744.9885,-7 744.9885,-34 744.9885,-59.6816 623.1587,-60.9356 553.3208,-53.2519"/>
<polygon fill="#000000" stroke="#000000" points="553.3487,-49.7297 543,-52 552.5058,-56.6788 553.3487,-49.7297"/>
<text text-anchor="middle" x="536" y="-55.8" font-family="Times,serif" font-size="14.00" fill="#000000">i1</text>
<text text-anchor="middle" x="543.5" y="-4.8" font-family="Times,serif" font-size="14.00" fill="#000000">/sum</text>
</g>
<!-- initializerr11_0 -->
<!-- initializerr11_0&#45;&gt;r11 -->
<g id="edge37" class="edge">
<title>initializerr11_0&#45;&gt;r11:ne</title>
<path fill="none" stroke="#0000ff" stroke-dasharray="1,5" d="M457.7672,-168.6724C495.5718,-141.384 563.4502,-88.7191 564.585,-61.6144"/>
<polygon fill="#0000ff" stroke="#0000ff" points="567.7733,-60.1469 561,-52 561.2145,-62.5927 567.7733,-60.1469"/>
<text text-anchor="middle" x="555" y="-103.3" font-family="Times,serif" font-size="14.00" fill="#000000">1</text>
</g>
</g>
</svg>
