<?xml version="1.0" encoding="UTF-8" standalone="no"?>
<!DOCTYPE svg PUBLIC "-//W3C//DTD SVG 1.1//EN"
 "http://www.w3.org/Graphics/SVG/1.1/DTD/svg11.dtd">
<!-- Generated by graphviz version 2.42.4 (0)
 -->
<!-- Title: prime Pages: 1 -->
<svg width="2228pt" height="877pt"
 viewBox="0.00 0.00 2228.35 877.00" xmlns="http://www.w3.org/2000/svg" xmlns:xlink="http://www.w3.org/1999/xlink">
<g id="graph0" class="graph" transform="scale(1 1) rotate(0) translate(4 873)">
<title>prime</title>
<polygon fill="white" stroke="transparent" points="-4,4 -4,-873 2224.35,-873 2224.35,4 -4,4"/>
<text text-anchor="middle" x="1110.17" y="-853.8" font-family="Times,serif" font-size="14.00">/prime</text>
<g id="clust1" class="cluster">
<title>cluster_candidates</title>
<polygon fill="none" stroke="black" points="1770,-436 1770,-783 2174,-783 2174,-436 1770,-436"/>
<text text-anchor="middle" x="1972" y="-767.8" font-family="Times,serif" font-size="14.00">/prime/candidates</text>
</g>
<g id="clust2" class="cluster">
<title>cluster_composites</title>
<polygon fill="none" stroke="black" points="8,-8 8,-652 1401,-652 1401,-8 8,-8"/>
<text text-anchor="middle" x="704.5" y="-636.8" font-family="Times,serif" font-size="14.00">/prime/composites</text>
</g>
<g id="clust3" class="cluster">
<title>cluster_divisors</title>
<polygon fill="none" stroke="black" points="834,-305 834,-621 1393,-621 1393,-305 834,-305"/>
<text text-anchor="middle" x="1113.5" y="-605.8" font-family="Times,serif" font-size="14.00">/prime/composites/divisors</text>
</g>
<g id="clust4" class="cluster">
<title>cluster_generate_composites</title>
<polygon fill="none" stroke="black" points="234,-93 234,-403 826,-403 826,-93 234,-93"/>
<text text-anchor="middle" x="530" y="-387.8" font-family="Times,serif" font-size="14.00">/prime/composites/generate_composites</text>
</g>
<g id="clust5" class="cluster">
<title>cluster_composite_sequence</title>
<polygon fill="none" stroke="black" points="242,-101 242,-286 818,-286 818,-101 242,-101"/>
<text text-anchor="middle" x="530" y="-270.8" font-family="Times,serif" font-size="14.00">/prime/composites/generate_composites/composite&#45;sequence</text>
</g>
<!-- r0 -->
<g id="node1" class="node">
<title>r0</title>
<g id="a_node1"><a xlink:href="file:///home/andrew/workspace/flow/flowruntime/args/get.html" xlink:title="args (#0)">
<ellipse fill="coral" stroke="black" cx="1210" cy="-828" rx="54.69" ry="18"/>
<text text-anchor="middle" x="1210" y="-824.3" font-family="Times,serif" font-size="14.00">args (#0)</text>
</a>
</g>
</g>
<!-- r1 -->
<g id="node2" class="node">
<title>r1</title>
<g id="a_node2"><a xlink:href="file:///home/andrew/workspace/flow/flowstdlib/fmt/to_number/to_number.html" xlink:title="to_number (#1)">
<ellipse fill="coral" stroke="black" cx="1193" cy="-711" rx="83.69" ry="18"/>
<text text-anchor="middle" x="1193" y="-707.3" font-family="Times,serif" font-size="14.00">to_number (#1)</text>
</a>
</g>
</g>
<!-- r0&#45;&gt;r1 -->
<g id="edge1" class="edge">
<title>r0:sw&#45;&gt;r1:n</title>
<path fill="none" stroke="black" d="M1193,-810C1170.41,-787.41 1188.41,-769.54 1192.3,-740.35"/>
<polygon fill="black" stroke="black" points="1195.82,-740.21 1193,-730 1188.83,-739.74 1195.82,-740.21"/>
<text text-anchor="middle" x="1186" y="-798.8" font-family="Times,serif" font-size="14.00">/1</text>
</g>
<!-- r2 -->
<g id="node3" class="node">
<title>r2</title>
<g id="a_node3"><a xlink:href="file:///home/andrew/workspace/flow/flowstdlib/control/compare_switch/compare_switch.html" xlink:title="compare (#2)">
<ellipse fill="coral" stroke="black" cx="2074" cy="-549" rx="74.19" ry="18"/>
<text text-anchor="middle" x="2074" y="-545.3" font-family="Times,serif" font-size="14.00">compare (#2)</text>
</a>
</g>
</g>
<!-- r1&#45;&gt;r2 -->
<g id="edge2" class="edge">
<title>r1:e&#45;&gt;r2:n</title>
<path fill="none" stroke="black" d="M1278,-711C1431.01,-711 1821.29,-707.18 1964,-652 2018.01,-631.11 2067.82,-629.62 2073.47,-578.2"/>
<polygon fill="black" stroke="black" points="2076.97,-578.17 2074,-568 2069.98,-577.8 2076.97,-578.17"/>
<text text-anchor="middle" x="2061.5" y="-571.8" font-family="Times,serif" font-size="14.00">left</text>
</g>
<!-- r4 -->
<g id="node4" class="node">
<title>r4</title>
<g id="a_node4"><a xlink:href="file:///home/andrew/workspace/flow/flowstdlib/data/accumulate/accumulate.html" xlink:title="all&#45;numbers (#4)">
<ellipse fill="coral" stroke="black" cx="1867" cy="-462" rx="89.08" ry="18"/>
<text text-anchor="middle" x="1867" y="-458.3" font-family="Times,serif" font-size="14.00">all&#45;numbers (#4)</text>
</a>
</g>
</g>
<!-- r1&#45;&gt;r4 -->
<g id="edge3" class="edge">
<title>r1:e&#45;&gt;r4:nw</title>
<path fill="none" stroke="black" d="M1278,-711C1340.24,-711 1354.53,-688.42 1405,-652 1464.92,-608.77 1453.61,-565.4 1519,-531 1534.01,-523.11 1786.34,-497.99 1839.61,-483.72"/>
<polygon fill="black" stroke="black" points="1840.99,-486.94 1849,-480 1838.41,-480.43 1840.99,-486.94"/>
<text text-anchor="middle" x="1810" y="-483.8" font-family="Times,serif" font-size="14.00">chunk_size</text>
</g>
<!-- r5 -->
<g id="node5" class="node">
<title>r5</title>
<g id="a_node5"><a xlink:href="file:///home/andrew/workspace/flow/flowstdlib/math/sqrt/sqrt.html" xlink:title="sqrt (#5)">
<ellipse fill="coral" stroke="black" cx="773" cy="-549" rx="53.09" ry="18"/>
<text text-anchor="middle" x="773" y="-545.3" font-family="Times,serif" font-size="14.00">sqrt (#5)</text>
</a>
</g>
</g>
<!-- r1&#45;&gt;r5 -->
<g id="edge4" class="edge">
<title>r1:e&#45;&gt;r5:n</title>
<path fill="none" stroke="black" d="M1278,-711C1286.01,-711 1282.56,-698.77 1277,-693 1207.75,-621.21 915.91,-702.69 830,-652 794.18,-630.86 775.96,-615.65 773.33,-578.06"/>
<polygon fill="black" stroke="black" points="776.83,-577.88 773,-568 769.83,-578.11 776.83,-577.88"/>
</g>
<!-- r11 -->
<g id="node6" class="node">
<title>r11</title>
<g id="a_node6"><a xlink:href="file:///home/andrew/workspace/flow/flowstdlib/data/buffer/buffer.html" xlink:title="limit&#45;buffer (#11)">
<ellipse fill="coral" stroke="black" cx="436" cy="-331" rx="92.08" ry="18"/>
<text text-anchor="middle" x="436" y="-327.3" font-family="Times,serif" font-size="14.00">limit&#45;buffer (#11)</text>
</a>
</g>
</g>
<!-- r1&#45;&gt;r11 -->
<g id="edge5" class="edge">
<title>r1:e&#45;&gt;r11:n</title>
<path fill="none" stroke="black" d="M1278,-711C1286.01,-711 1282.71,-698.62 1277,-693 1259.57,-675.83 861.42,-676.53 837,-675 715.92,-667.41 663.33,-723.06 565,-652 449.47,-568.52 436.56,-499.27 436.02,-360.14"/>
<polygon fill="black" stroke="black" points="439.52,-359.99 436,-350 432.52,-360.01 439.52,-359.99"/>
</g>
<!-- r2&#45;&gt;r2 -->
<g id="edge8" class="edge">
<title>r2:s&#45;&gt;r2:n</title>
<path fill="none" stroke="black" d="M2074,-531C2122.7,-520.5 2220.09,-520.5 2220.09,-549 2220.09,-575.66 2134.85,-577.38 2083.98,-568.89"/>
<polygon fill="black" stroke="black" points="2084.48,-565.43 2074,-567 2083.17,-572.3 2084.48,-565.43"/>
<text text-anchor="middle" x="2086.5" y="-570.8" font-family="Times,serif" font-size="14.00">left</text>
<text text-anchor="middle" x="2049.5" y="-519.8" font-family="Times,serif" font-size="14.00">/left&#45;gt</text>
</g>
<!-- r2&#45;&gt;r4 -->
<g id="edge7" class="edge">
<title>r2:e&#45;&gt;r4:n</title>
<path fill="none" stroke="black" d="M2149,-549C2157.01,-549 2153.27,-537.04 2148,-531 2135.27,-516.42 1996.05,-501.4 1977,-498 1956.23,-494.3 1891.07,-501.81 1872.18,-488.83"/>
<polygon fill="black" stroke="black" points="1875.08,-486.85 1867,-480 1869.04,-490.4 1875.08,-486.85"/>
<text text-anchor="middle" x="1890" y="-483.8" font-family="Times,serif" font-size="14.00">values</text>
<text text-anchor="middle" x="2181" y="-552.8" font-family="Times,serif" font-size="14.00">/right&#45;lte</text>
</g>
<!-- r3 -->
<g id="node8" class="node">
<title>r3</title>
<g id="a_node8"><a xlink:href="file:///home/andrew/workspace/flow/flowstdlib/math/add/add.html" xlink:title="add (#3)">
<ellipse fill="coral" stroke="black" cx="2097" cy="-462" rx="51.19" ry="18"/>
<text text-anchor="middle" x="2097" y="-458.3" font-family="Times,serif" font-size="14.00">add (#3)</text>
</a>
</g>
</g>
<!-- r2&#45;&gt;r3 -->
<g id="edge9" class="edge">
<title>r2:e&#45;&gt;r3:n</title>
<path fill="none" stroke="black" d="M2149,-549C2157.01,-549 2152.65,-537.53 2148,-531 2135.74,-513.79 2117.54,-529.22 2104,-513 2096.87,-504.46 2096.47,-498.68 2096.73,-490.13"/>
<polygon fill="black" stroke="black" points="2100.24,-490.09 2097,-480 2093.24,-489.9 2100.24,-490.09"/>
<text text-anchor="middle" x="2090" y="-483.8" font-family="Times,serif" font-size="14.00">i1</text>
<text text-anchor="middle" x="2176.5" y="-537.8" font-family="Times,serif" font-size="14.00">/right&#45;lt</text>
</g>
<!-- r4&#45;&gt;r4 -->
<g id="edge14" class="edge">
<title>r4:s&#45;&gt;r4:nw</title>
<path fill="none" stroke="black" d="M1867,-444C1813.32,-433.5 1705.96,-433.5 1705.96,-462 1705.96,-488.77 1784.83,-490.4 1838.88,-481.79"/>
<polygon fill="black" stroke="black" points="1839.76,-485.19 1849,-480 1838.54,-478.29 1839.76,-485.19"/>
<text text-anchor="middle" x="1888" y="-483.8" font-family="Times,serif" font-size="14.00">chunk_size</text>
<text text-anchor="middle" x="1826" y="-432.8" font-family="Times,serif" font-size="14.00">/chunk_size</text>
</g>
<!-- r4&#45;&gt;r4 -->
<g id="edge15" class="edge">
<title>r4:e&#45;&gt;r4:ne</title>
<path fill="none" stroke="black" d="M1956,-462C1980.04,-451.5 2028.04,-451.5 2028.04,-471 2028.04,-489.32 1949.17,-490.43 1895.12,-481.79"/>
<polygon fill="black" stroke="black" points="1895.46,-478.3 1885,-480 1894.24,-485.19 1895.46,-478.3"/>
<text text-anchor="middle" x="1861" y="-468.8" font-family="Times,serif" font-size="14.00">partial</text>
<text text-anchor="middle" x="1982" y="-465.8" font-family="Times,serif" font-size="14.00">/partial</text>
</g>
<!-- r14 -->
<g id="node11" class="node">
<title>r14</title>
<g id="a_node11"><a xlink:href="file:///home/andrew/workspace/flow/flowstdlib/data/remove/remove.html" xlink:title="subtract (#14)">
<ellipse fill="coral" stroke="black" cx="713" cy="-127" rx="79.09" ry="18"/>
<text text-anchor="middle" x="713" y="-123.3" font-family="Times,serif" font-size="14.00">subtract (#14)</text>
</a>
</g>
</g>
<!-- r4&#45;&gt;r14 -->
<g id="edge16" class="edge">
<title>r4:s&#45;&gt;r14:ne</title>
<path fill="none" stroke="black" d="M1867,-443C1867,-283.61 1753.24,-259.38 1607,-196 1585.84,-186.83 835.73,-164.78 740.61,-147.83"/>
<polygon fill="black" stroke="black" points="741.58,-144.47 731,-145 739.6,-151.18 741.58,-144.47"/>
<text text-anchor="middle" x="711.5" y="-148.8" font-family="Times,serif" font-size="14.00">array</text>
<text text-anchor="middle" x="1891" y="-431.8" font-family="Times,serif" font-size="14.00">/chunk</text>
</g>
<!-- r6 -->
<g id="node12" class="node">
<title>r6</title>
<g id="a_node12"><a xlink:href="file:///home/andrew/workspace/flow/flowstdlib/control/compare_switch/compare_switch.html" xlink:title="compare (#6)">
<ellipse fill="coral" stroke="black" cx="1138" cy="-462" rx="74.19" ry="18"/>
<text text-anchor="middle" x="1138" y="-458.3" font-family="Times,serif" font-size="14.00">compare (#6)</text>
</a>
</g>
</g>
<!-- r5&#45;&gt;r6 -->
<g id="edge17" class="edge">
<title>r5:e&#45;&gt;r6:n</title>
<path fill="none" stroke="black" d="M828,-549C832.02,-549 827.23,-533.92 830,-531 875.21,-483.31 1111.14,-542.46 1135.9,-489.86"/>
<polygon fill="black" stroke="black" points="1139.34,-490.51 1138,-480 1132.49,-489.05 1139.34,-490.51"/>
<text text-anchor="middle" x="1125.5" y="-483.8" font-family="Times,serif" font-size="14.00">left</text>
</g>
<!-- r11&#45;&gt;r11 -->
<g id="edge35" class="edge">
<title>r11:e&#45;&gt;r11:n</title>
<path fill="none" stroke="black" d="M529,-331C552.29,-322 600.29,-322 600.29,-340 600.29,-356.95 503.22,-357.94 446.16,-350.49"/>
<polygon fill="black" stroke="black" points="446.4,-346.99 436,-349 445.39,-353.91 446.4,-346.99"/>
</g>
<!-- r9 -->
<g id="node19" class="node">
<title>r9</title>
<g id="a_node19"><a xlink:href="file:///home/andrew/workspace/flow/flowstdlib/control/compare_switch/compare_switch.html" xlink:title="compare (#9)">
<ellipse fill="coral" stroke="black" cx="639" cy="-214" rx="74.19" ry="18"/>
<text text-anchor="middle" x="639" y="-210.3" font-family="Times,serif" font-size="14.00">compare (#9)</text>
</a>
</g>
</g>
<!-- r11&#45;&gt;r9 -->
<g id="edge36" class="edge">
<title>r11:e&#45;&gt;r9:n</title>
<path fill="none" stroke="black" d="M530,-331C544.19,-331 616.37,-269 634.74,-242.24"/>
<polygon fill="black" stroke="black" points="637.99,-243.55 639,-233 631.64,-240.62 637.99,-243.55"/>
<text text-anchor="middle" x="626.5" y="-236.8" font-family="Times,serif" font-size="14.00">left</text>
</g>
<!-- initializerr2_1 -->
<!-- initializerr2_1&#45;&gt;r2 -->
<g id="edge6" class="edge">
<title>initializerr2_1&#45;&gt;r2:ne</title>
<path fill="none" stroke="blue" stroke-dasharray="1,5" d="M2097.94,-692.68C2107.9,-664.87 2122.57,-609.93 2098.55,-575.79"/>
<polygon fill="blue" stroke="blue" points="2101.11,-573.4 2092,-568 2095.76,-577.91 2101.11,-573.4"/>
<text text-anchor="middle" x="2111" y="-663.8" font-family="Times,serif" font-size="14.00">1</text>
</g>
<!-- r3&#45;&gt;r2 -->
<g id="edge12" class="edge">
<title>r3:se&#45;&gt;r2:ne</title>
<path fill="none" stroke="black" d="M2114,-444C2124.8,-433.2 2137.71,-434.05 2148.35,-445 2186.12,-483.89 2186.15,-528.37 2148.09,-567 2141.26,-573.94 2116.25,-576.03 2101.43,-572.4"/>
<polygon fill="black" stroke="black" points="2102.54,-569.06 2092,-568 2099.58,-575.4 2102.54,-569.06"/>
<text text-anchor="middle" x="2110" y="-571.8" font-family="Times,serif" font-size="14.00">right</text>
<text text-anchor="middle" x="2096.5" y="-432.8" font-family="Times,serif" font-size="14.00">/sum</text>
</g>
<!-- r3&#45;&gt;r3 -->
<g id="edge11" class="edge">
<title>r3:se&#45;&gt;r3:ne</title>
<path fill="none" stroke="black" d="M2114,-445C2155.12,-434.5 2220.35,-434.5 2220.35,-462 2220.35,-487.41 2164.67,-489.34 2123.78,-481.21"/>
<polygon fill="black" stroke="black" points="2124.53,-477.79 2114,-479 2122.98,-484.62 2124.53,-477.79"/>
<text text-anchor="middle" x="2107" y="-482.8" font-family="Times,serif" font-size="14.00">i2</text>
<text text-anchor="middle" x="2123.5" y="-433.8" font-family="Times,serif" font-size="14.00">/i2</text>
</g>
<!-- initializerr3_1 -->
<!-- initializerr3_1&#45;&gt;r3 -->
<g id="edge10" class="edge">
<title>initializerr3_1&#45;&gt;r3:w</title>
<path fill="none" stroke="blue" stroke-dasharray="1,5" d="M1889.53,-533.13C1921.58,-519.86 1969.3,-499.55 2010,-480 2021.68,-474.39 2025.36,-466.95 2033.9,-463.67"/>
<polygon fill="blue" stroke="blue" points="2034.7,-467.08 2044,-462 2033.56,-460.18 2034.7,-467.08"/>
<text text-anchor="middle" x="1972" y="-501.8" font-family="Times,serif" font-size="14.00">1</text>
</g>
<!-- initializerr4_1 -->
<!-- initializerr4_1&#45;&gt;r4 -->
<g id="edge13" class="edge">
<title>initializerr4_1&#45;&gt;r4:n</title>
<path fill="none" stroke="blue" stroke-dasharray="1,5" d="M1687.37,-537.27C1747.65,-525.3 1836.98,-505.36 1860.92,-488.17"/>
<polygon fill="blue" stroke="blue" points="1863.84,-490.11 1867,-480 1858.22,-485.93 1863.84,-490.11"/>
<text text-anchor="middle" x="1842.5" y="-501.8" font-family="Times,serif" font-size="14.00">[]</text>
</g>
<!-- r14&#45;&gt;r14 -->
<g id="edge42" class="edge">
<title>r14:e&#45;&gt;r14:ne</title>
<path fill="none" stroke="black" d="M793,-127C816.29,-116.5 864.29,-116.5 864.29,-136 864.29,-154.24 791.77,-155.42 741.12,-146.9"/>
<polygon fill="black" stroke="black" points="741.47,-143.4 731,-145 740.18,-150.28 741.47,-143.4"/>
<text text-anchor="middle" x="750.5" y="-148.8" font-family="Times,serif" font-size="14.00">array</text>
</g>
<!-- r6&#45;&gt;r6 -->
<g id="edge21" class="edge">
<title>r6:s&#45;&gt;r6:n</title>
<path fill="none" stroke="black" d="M1138,-444C1186.7,-433.5 1284.09,-433.5 1284.09,-462 1284.09,-488.66 1198.85,-490.38 1147.98,-481.89"/>
<polygon fill="black" stroke="black" points="1148.48,-478.43 1138,-480 1147.17,-485.3 1148.48,-478.43"/>
<text text-anchor="middle" x="1150.5" y="-483.8" font-family="Times,serif" font-size="14.00">left</text>
<text text-anchor="middle" x="1113.5" y="-432.8" font-family="Times,serif" font-size="14.00">/left&#45;gt</text>
</g>
<!-- r8 -->
<g id="node14" class="node">
<title>r8</title>
<g id="a_node14"><a xlink:href="file:///home/andrew/workspace/flow/flowstdlib/math/multiply/multiply.html" xlink:title="multiply (#8)">
<ellipse fill="coral" stroke="black" cx="1312" cy="-331" rx="72.59" ry="18"/>
<text text-anchor="middle" x="1312" y="-327.3" font-family="Times,serif" font-size="14.00">multiply (#8)</text>
</a>
</g>
</g>
<!-- r6&#45;&gt;r8 -->
<g id="edge19" class="edge">
<title>r6:e&#45;&gt;r8:n</title>
<path fill="none" stroke="black" d="M1213,-462C1275.93,-462 1308.47,-421.12 1311.73,-360.33"/>
<polygon fill="black" stroke="black" points="1315.24,-360.09 1312,-350 1308.24,-359.9 1315.24,-360.09"/>
<text text-anchor="middle" x="1305" y="-353.8" font-family="Times,serif" font-size="14.00">i1</text>
<text text-anchor="middle" x="1245" y="-465.8" font-family="Times,serif" font-size="14.00">/right&#45;lte</text>
</g>
<!-- r10 -->
<g id="node15" class="node">
<title>r10</title>
<g id="a_node15"><a xlink:href="file:///home/andrew/workspace/flow/flowstdlib/math/add/add.html" xlink:title="add (#10)">
<ellipse fill="coral" stroke="black" cx="1092" cy="-331" rx="57.39" ry="18"/>
<text text-anchor="middle" x="1092" y="-327.3" font-family="Times,serif" font-size="14.00">add (#10)</text>
</a>
</g>
</g>
<!-- r6&#45;&gt;r10 -->
<g id="edge20" class="edge">
<title>r6:e&#45;&gt;r10:ne</title>
<path fill="none" stroke="black" d="M1213,-462C1221.01,-462 1215.42,-451.25 1212,-444 1186.94,-390.86 1156.69,-392.63 1116.37,-356.03"/>
<polygon fill="black" stroke="black" points="1118.65,-353.37 1109,-349 1113.82,-358.43 1118.65,-353.37"/>
<text text-anchor="middle" x="1102" y="-352.8" font-family="Times,serif" font-size="14.00">i2</text>
<text text-anchor="middle" x="1245" y="-450.8" font-family="Times,serif" font-size="14.00">/right&#45;lte</text>
</g>
<!-- r7 -->
<g id="node16" class="node">
<title>r7</title>
<g id="a_node16"><a xlink:href="file:///home/andrew/workspace/flow/flowstdlib/math/add/add.html" xlink:title="add (#7)">
<ellipse fill="coral" stroke="black" cx="893" cy="-331" rx="51.19" ry="18"/>
<text text-anchor="middle" x="893" y="-327.3" font-family="Times,serif" font-size="14.00">add (#7)</text>
</a>
</g>
</g>
<!-- r6&#45;&gt;r7 -->
<g id="edge22" class="edge">
<title>r6:e&#45;&gt;r7:n</title>
<path fill="none" stroke="black" d="M1213,-462C1235.55,-462 1236.99,-435.89 1107,-411 1013.38,-393.07 901.42,-444.91 893.45,-360.12"/>
<polygon fill="black" stroke="black" points="896.94,-359.83 893,-350 889.95,-360.15 896.94,-359.83"/>
<text text-anchor="middle" x="886" y="-353.8" font-family="Times,serif" font-size="14.00">i1</text>
<text text-anchor="middle" x="1185.5" y="-465.8" font-family="Times,serif" font-size="14.00">/right&#45;lt</text>
</g>
<!-- initializerr6_1 -->
<!-- initializerr6_1&#45;&gt;r6 -->
<g id="edge18" class="edge">
<title>initializerr6_1&#45;&gt;r6:ne</title>
<path fill="none" stroke="blue" stroke-dasharray="1,5" d="M1161.96,-530.94C1165.38,-518.33 1167.91,-501.18 1161.75,-488.21"/>
<polygon fill="blue" stroke="blue" points="1164.6,-486.18 1156,-480 1158.87,-490.2 1164.6,-486.18"/>
<text text-anchor="middle" x="1171" y="-501.8" font-family="Times,serif" font-size="14.00">2</text>
</g>
<!-- r8&#45;&gt;r9 -->
<g id="edge27" class="edge">
<title>r8:e&#45;&gt;r9:ne</title>
<path fill="none" stroke="black" d="M1386,-331C1394.01,-331 1390.51,-318.82 1385,-313 1275.36,-197.28 792.47,-341.91 664.56,-239.75"/>
<polygon fill="black" stroke="black" points="666.79,-237.05 657,-233 662.13,-242.27 666.79,-237.05"/>
<text text-anchor="middle" x="675" y="-236.8" font-family="Times,serif" font-size="14.00">right</text>
</g>
<!-- r10&#45;&gt;r10 -->
<g id="edge33" class="edge">
<title>r10:se&#45;&gt;r10:ne</title>
<path fill="none" stroke="black" d="M1109,-314C1152.06,-305 1221.19,-305 1221.19,-331 1221.19,-355.07 1161.95,-356.86 1118.98,-349.85"/>
<polygon fill="black" stroke="black" points="1119.47,-346.38 1109,-348 1118.2,-353.26 1119.47,-346.38"/>
<text text-anchor="middle" x="1116" y="-351.8" font-family="Times,serif" font-size="14.00">i2</text>
<text text-anchor="middle" x="1099.5" y="-302.8" font-family="Times,serif" font-size="14.00">/i2</text>
</g>
<!-- r10&#45;&gt;r9 -->
<g id="edge34" class="edge">
<title>r10:se&#45;&gt;r9:ne</title>
<path fill="none" stroke="black" d="M1109,-313C1116.61,-305.39 1103.33,-299.35 1094,-294 926.86,-198.17 800.19,-365.59 664.3,-240.02"/>
<polygon fill="black" stroke="black" points="666.63,-237.41 657,-233 661.78,-242.45 666.63,-237.41"/>
<text text-anchor="middle" x="639" y="-236.8" font-family="Times,serif" font-size="14.00">right</text>
<text text-anchor="middle" x="1126.5" y="-301.8" font-family="Times,serif" font-size="14.00">/sum</text>
</g>
<!-- r7&#45;&gt;r6 -->
<g id="edge25" class="edge">
<title>r7:se&#45;&gt;r6:ne</title>
<path fill="none" stroke="black" d="M910,-313C920.8,-302.2 931.13,-306.35 944.35,-314 984.52,-337.25 963.13,-373.54 999,-403 1021.71,-421.65 1032.43,-419.1 1061,-426 1093.87,-433.94 1189.64,-418.72 1212.09,-444 1222.72,-455.96 1223.31,-468.59 1212.09,-480 1205.27,-486.95 1180.25,-489.03 1165.43,-485.41"/>
<polygon fill="black" stroke="black" points="1166.54,-482.06 1156,-481 1163.58,-488.4 1166.54,-482.06"/>
<text text-anchor="middle" x="1174" y="-484.8" font-family="Times,serif" font-size="14.00">right</text>
<text text-anchor="middle" x="892.5" y="-301.8" font-family="Times,serif" font-size="14.00">/sum</text>
</g>
<!-- r7&#45;&gt;r7 -->
<g id="edge24" class="edge">
<title>r7:se&#45;&gt;r7:ne</title>
<path fill="none" stroke="black" d="M910,-314C951.12,-305 1016.35,-305 1016.35,-331 1016.35,-354.97 960.91,-356.84 920.04,-349.94"/>
<polygon fill="black" stroke="black" points="920.48,-346.46 910,-348 919.16,-353.33 920.48,-346.46"/>
<text text-anchor="middle" x="903" y="-351.8" font-family="Times,serif" font-size="14.00">i2</text>
<text text-anchor="middle" x="919.5" y="-302.8" font-family="Times,serif" font-size="14.00">/i2</text>
</g>
<!-- initializerr7_1 -->
<!-- initializerr7_1&#45;&gt;r7 -->
<g id="edge23" class="edge">
<title>initializerr7_1&#45;&gt;r7:w</title>
<path fill="none" stroke="blue" stroke-dasharray="1,5" d="M901.36,-444.39C883.11,-423.82 853.79,-386.85 841,-349 840.5,-347.52 839.63,-344.45 838.99,-341.25"/>
<polygon fill="blue" stroke="blue" points="842.5,-341.3 840,-331 835.53,-340.61 842.5,-341.3"/>
<text text-anchor="middle" x="890" y="-414.8" font-family="Times,serif" font-size="14.00">1</text>
</g>
<!-- initializerr8_1 -->
<!-- initializerr8_1&#45;&gt;r8 -->
<g id="edge26" class="edge">
<title>initializerr8_1&#45;&gt;r8:w</title>
<path fill="none" stroke="blue" d="M715.3,-348.39C738.46,-366.08 777.35,-392.37 816,-403 857.46,-414.41 1166.65,-425.97 1203,-403 1229.55,-386.22 1208.77,-342.95 1228.02,-333.04"/>
<polygon fill="blue" stroke="blue" points="1228.9,-336.43 1238,-331 1227.5,-329.58 1228.9,-336.43"/>
<text text-anchor="middle" x="1084" y="-414.8" font-family="Times,serif" font-size="14.00">2</text>
</g>
<!-- r9&#45;&gt;r14 -->
<g id="edge28" class="edge">
<title>r9:e&#45;&gt;r14:n</title>
<path fill="none" stroke="black" d="M714,-214C741.32,-214 719.18,-183.6 714.01,-155.28"/>
<polygon fill="black" stroke="black" points="717.46,-154.61 713,-145 710.5,-155.3 717.46,-154.61"/>
<text text-anchor="middle" x="693.5" y="-148.8" font-family="Times,serif" font-size="14.00">value</text>
<text text-anchor="middle" x="746" y="-217.8" font-family="Times,serif" font-size="14.00">/right&#45;lte</text>
</g>
<!-- r9&#45;&gt;r10 -->
<g id="edge31" class="edge">
<title>r9:e&#45;&gt;r10:n</title>
<path fill="none" stroke="black" d="M714,-214C720.2,-214 1145.33,-308.15 1149.19,-313 1159.18,-325.51 1160.41,-337.59 1149.19,-349 1142.51,-355.8 1113.68,-360.11 1099.68,-356.48"/>
<polygon fill="black" stroke="black" points="1101.9,-353.77 1092,-350 1097.39,-359.12 1101.9,-353.77"/>
<text text-anchor="middle" x="1085" y="-353.8" font-family="Times,serif" font-size="14.00">i1</text>
<text text-anchor="middle" x="741.5" y="-202.8" font-family="Times,serif" font-size="14.00">/right&#45;lt</text>
</g>
<!-- r9&#45;&gt;r9 -->
<g id="edge30" class="edge">
<title>r9:s&#45;&gt;r9:n</title>
<path fill="none" stroke="black" d="M639,-196C687.7,-185.5 785.09,-185.5 785.09,-214 785.09,-240.66 699.85,-242.38 648.98,-233.89"/>
<polygon fill="black" stroke="black" points="649.48,-230.43 639,-232 648.17,-237.3 649.48,-230.43"/>
<text text-anchor="middle" x="651.5" y="-235.8" font-family="Times,serif" font-size="14.00">left</text>
<text text-anchor="middle" x="614.5" y="-184.8" font-family="Times,serif" font-size="14.00">/left&#45;gt</text>
</g>
<!-- r15 -->
<g id="node20" class="node">
<title>r15</title>
<g id="a_node20"><a xlink:href="file:///home/andrew/workspace/flow/flowruntime/stdio/stdout.html" xlink:title="print (#15)">
<ellipse fill="coral" stroke="black" cx="499" cy="-127" rx="63.09" ry="18"/>
<text text-anchor="middle" x="499" y="-123.3" font-family="Times,serif" font-size="14.00">print (#15)</text>
</a>
</g>
</g>
<!-- r9&#45;&gt;r15 -->
<g id="edge29" class="edge">
<title>r9:e&#45;&gt;r15:n</title>
<path fill="none" stroke="black" d="M714,-214C722.01,-214 718.14,-202.15 713,-196 652.63,-123.76 510.11,-234.01 499.61,-155"/>
<polygon fill="black" stroke="black" points="503.11,-154.77 499,-145 496.12,-155.2 503.11,-154.77"/>
<text text-anchor="middle" x="746" y="-202.8" font-family="Times,serif" font-size="14.00">/right&#45;lte</text>
</g>
<!-- r12 -->
<g id="node21" class="node">
<title>r12</title>
<g id="a_node21"><a xlink:href="file:///home/andrew/workspace/flow/flowstdlib/control/join/join.html" xlink:title="join (#12)">
<ellipse fill="coral" stroke="black" cx="307" cy="-127" rx="57.39" ry="18"/>
<text text-anchor="middle" x="307" y="-123.3" font-family="Times,serif" font-size="14.00">join (#12)</text>
</a>
</g>
</g>
<!-- r9&#45;&gt;r12 -->
<g id="edge32" class="edge">
<title>r9:sw&#45;&gt;r12:ne</title>
<path fill="none" stroke="black" d="M621,-196C599.29,-174.29 511.76,-191.13 484,-178 475.19,-173.83 476.82,-167.14 468,-163 441.66,-150.64 364.17,-164.5 332.54,-150.57"/>
<polygon fill="black" stroke="black" points="334.29,-147.53 324,-145 330.46,-153.39 334.29,-147.53"/>
<text text-anchor="middle" x="298.5" y="-148.8" font-family="Times,serif" font-size="14.00">control</text>
<text text-anchor="middle" x="655" y="-184.8" font-family="Times,serif" font-size="14.00">/right&#45;gte</text>
</g>
<!-- r13 -->
<g id="node23" class="node">
<title>r13</title>
<g id="a_node23"><a xlink:href="file:///home/andrew/workspace/flow/flowstdlib/math/add/add.html" xlink:title="subsequence&#45;count (#13)">
<ellipse fill="coral" stroke="black" cx="245" cy="-34" rx="128.88" ry="18"/>
<text text-anchor="middle" x="245" y="-30.3" font-family="Times,serif" font-size="14.00">subsequence&#45;count (#13)</text>
</a>
</g>
</g>
<!-- r12&#45;&gt;r13 -->
<g id="edge38" class="edge">
<title>r12:e&#45;&gt;r13:ne</title>
<path fill="none" stroke="black" d="M365,-127C373.01,-127 368.23,-115.8 364,-109 338.7,-68.3 304.65,-85.51 270.7,-58.85"/>
<polygon fill="black" stroke="black" points="272.8,-56.03 263,-52 268.15,-61.26 272.8,-56.03"/>
<text text-anchor="middle" x="256" y="-55.8" font-family="Times,serif" font-size="14.00">i2</text>
</g>
<!-- initializerr12_0 -->
<!-- initializerr12_0&#45;&gt;r12 -->
<g id="edge37" class="edge">
<title>initializerr12_0&#45;&gt;r12:nw</title>
<path fill="none" stroke="blue" d="M193.77,-199.57C221.82,-189.95 256.54,-174.62 282.56,-151.94"/>
<polygon fill="blue" stroke="blue" points="285.07,-154.38 290,-145 280.3,-149.26 285.07,-154.38"/>
<text text-anchor="middle" x="272" y="-166.8" font-family="Times,serif" font-size="14.00">1</text>
</g>
<!-- r13&#45;&gt;r13 -->
<g id="edge40" class="edge">
<title>r13:se&#45;&gt;r13:n</title>
<path fill="none" stroke="black" d="M263,-16C329.9,-5.5 445.69,-5.5 445.69,-34 445.69,-61.11 324.64,-62.43 255.25,-53.46"/>
<polygon fill="black" stroke="black" points="255.39,-49.95 245,-52 254.41,-56.88 255.39,-49.95"/>
<text text-anchor="middle" x="238" y="-55.8" font-family="Times,serif" font-size="14.00">i1</text>
<text text-anchor="middle" x="245.5" y="-4.8" font-family="Times,serif" font-size="14.00">/sum</text>
</g>
<!-- initializerr13_0 -->
<!-- initializerr13_0&#45;&gt;r13 -->
<g id="edge39" class="edge">
<title>initializerr13_0&#45;&gt;r13:ne</title>
<path fill="none" stroke="blue" stroke-dasharray="1,5" d="M147.53,-112.84C193.9,-99.78 256.65,-79.25 264.94,-61.82"/>
<polygon fill="blue" stroke="blue" points="268.37,-61.13 263,-52 261.51,-62.49 268.37,-61.13"/>
<text text-anchor="middle" x="262" y="-73.8" font-family="Times,serif" font-size="14.00">1</text>
</g>
<!-- initializerr14_0 -->
<!-- initializerr14_0&#45;&gt;r14 -->
<g id="edge41" class="edge">
<title>initializerr14_0&#45;&gt;r14:n</title>
<path fill="none" stroke="blue" stroke-dasharray="1,5" d="M1410.5,-210.14C1226.39,-203.02 781.75,-182.87 720.13,-152.15"/>
<polygon fill="blue" stroke="blue" points="722.54,-149.61 713,-145 717.58,-154.55 722.54,-149.61"/>
<text text-anchor="middle" x="867" y="-166.8" font-family="Times,serif" font-size="14.00">9</text>
</g>
</g>
</svg>
