<?xml version="1.0" encoding="UTF-8" standalone="no"?>
<!DOCTYPE svg PUBLIC "-//W3C//DTD SVG 1.1//EN"
 "http://www.w3.org/Graphics/SVG/1.1/DTD/svg11.dtd">
<!-- Generated by graphviz version 2.40.1 (20161225.0304)
 -->
<!-- Title: prime Pages: 1 -->
<svg width="1849pt" height="1388pt"
 viewBox="0.00 0.00 1849.19 1388.00" xmlns="http://www.w3.org/2000/svg" xmlns:xlink="http://www.w3.org/1999/xlink">
<g id="graph0" class="graph" transform="scale(1 1) rotate(0) translate(4 1384)">
<title>prime</title>
<polygon fill="#ffffff" stroke="transparent" points="-4,4 -4,-1384 1845.1949,-1384 1845.1949,4 -4,4"/>
<text text-anchor="middle" x="920.5975" y="-1364.8" font-family="Times,serif" font-size="14.00" fill="#000000">/prime</text>
<g id="clust1" class="cluster">
<title>cluster_candidates</title>
<polygon fill="none" stroke="#000000" points="1364,-937 1364,-1318 1795,-1318 1795,-937 1364,-937"/>
<text text-anchor="middle" x="1579.5" y="-1302.8" font-family="Times,serif" font-size="14.00" fill="#000000">/prime/candidates</text>
</g>
<g id="clust2" class="cluster">
<title>cluster_composites</title>
<polygon fill="none" stroke="#000000" points="8,-8 8,-1349 1050,-1349 1050,-8 8,-8"/>
<text text-anchor="middle" x="529" y="-1333.8" font-family="Times,serif" font-size="14.00" fill="#000000">/prime/composites</text>
</g>
<g id="clust3" class="cluster">
<title>cluster_divisors</title>
<polygon fill="none" stroke="#000000" points="16,-680 16,-1318 563,-1318 563,-680 16,-680"/>
<text text-anchor="middle" x="289.5" y="-1302.8" font-family="Times,serif" font-size="14.00" fill="#000000">/prime/composites/divisors</text>
</g>
<g id="clust4" class="cluster">
<title>cluster_generate_composites</title>
<polygon fill="none" stroke="#000000" points="571,-152 571,-880 1042,-880 1042,-152 571,-152"/>
<text text-anchor="middle" x="806.5" y="-864.8" font-family="Times,serif" font-size="14.00" fill="#000000">/prime/composites/generate_composites</text>
</g>
<g id="clust5" class="cluster">
<title>cluster_composite_sequence</title>
<polygon fill="none" stroke="#000000" points="579,-160 579,-623 1034,-623 1034,-160 579,-160"/>
<text text-anchor="middle" x="806.5" y="-607.8" font-family="Times,serif" font-size="14.00" fill="#000000">/prime/composites/generate_composites/composite&#45;sequence</text>
</g>
<!-- r13 -->
<g id="node1" class="node">
<title>r13</title>
<g id="a_node1"><a xlink:href="file:///home/travis/build/andrewdavidmackenzie/flow/flowr/src/lib/flowruntime/args/get.html" xlink:title="args (#13)">
<ellipse fill="#ff7f50" stroke="#000000" cx="1118" cy="-1196" rx="60.3893" ry="18"/>
<text text-anchor="middle" x="1118" y="-1192.3" font-family="Times,serif" font-size="14.00" fill="#000000">args (#13)</text>
</a>
</g>
</g>
<!-- r12 -->
<g id="node2" class="node">
<title>r12</title>
<g id="a_node2"><a xlink:href="file:///home/travis/build/andrewdavidmackenzie/flow/flowstdlib/control/compare_switch/compare_switch.html" xlink:title="compare (#12)">
<ellipse fill="#ff7f50" stroke="#000000" cx="1453" cy="-1123" rx="80.6858" ry="18"/>
<text text-anchor="middle" x="1453" y="-1119.3" font-family="Times,serif" font-size="14.00" fill="#000000">compare (#12)</text>
</a>
</g>
</g>
<!-- r13&#45;&gt;r12 -->
<g id="edge1" class="edge">
<title>r13:e&#45;&gt;r12:n</title>
<path fill="none" stroke="#000000" d="M1179,-1196C1207.1406,-1196 1409.3096,-1176.3315 1446.9689,-1149.5321"/>
<polygon fill="#000000" stroke="#000000" points="1450.0858,-1151.1862 1453,-1141 1444.3697,-1147.1456 1450.0858,-1151.1862"/>
<text text-anchor="middle" x="1440.5" y="-1144.8" font-family="Times,serif" font-size="14.00" fill="#000000">left</text>
<text text-anchor="middle" x="1203" y="-1199.8" font-family="Times,serif" font-size="14.00" fill="#000000">/json/1</text>
</g>
<!-- r0 -->
<g id="node3" class="node">
<title>r0</title>
<g id="a_node3"><a xlink:href="file:///home/travis/build/andrewdavidmackenzie/flow/flowstdlib/data/accumulate/accumulate.html" xlink:title="all&#45;numbers (#0)">
<ellipse fill="#ff7f50" stroke="#000000" cx="1461" cy="-963" rx="89.0842" ry="18"/>
<text text-anchor="middle" x="1461" y="-959.3" font-family="Times,serif" font-size="14.00" fill="#000000">all&#45;numbers (#0)</text>
</a>
</g>
</g>
<!-- r13&#45;&gt;r0 -->
<g id="edge2" class="edge">
<title>r13:e&#45;&gt;r0:nw</title>
<path fill="none" stroke="#000000" d="M1179,-1196C1252.0527,-1196 1121.2904,-1088.1686 1168,-1032 1186.3179,-1009.9726 1385.8968,-1003.8908 1434.1853,-985.8588"/>
<polygon fill="#000000" stroke="#000000" points="1435.9319,-988.8926 1443,-981 1432.5527,-982.7623 1435.9319,-988.8926"/>
<text text-anchor="middle" x="1403" y="-984.8" font-family="Times,serif" font-size="14.00" fill="#000000">chunk_size</text>
<text text-anchor="middle" x="1203" y="-1184.8" font-family="Times,serif" font-size="14.00" fill="#000000">/json/1</text>
</g>
<!-- r6 -->
<g id="node4" class="node">
<title>r6</title>
<g id="a_node4"><a xlink:href="file:///home/travis/build/andrewdavidmackenzie/flow/flowstdlib/math/sqrt/sqrt.html" xlink:title="sqrt (#6)">
<ellipse fill="#ff7f50" stroke="#000000" cx="686" cy="-1123" rx="53.0913" ry="18"/>
<text text-anchor="middle" x="686" y="-1119.3" font-family="Times,serif" font-size="14.00" fill="#000000">sqrt (#6)</text>
</a>
</g>
</g>
<!-- r13&#45;&gt;r6 -->
<g id="edge3" class="edge">
<title>r13:e&#45;&gt;r6:n</title>
<path fill="none" stroke="#000000" d="M1179,-1196C1187,-1196 1184.4877,-1183.8211 1179,-1178 1155.7131,-1153.2983 907.8397,-1162.7073 874,-1160 835.9037,-1156.9521 711.4183,-1178.4974 689.3573,-1150.7342"/>
<polygon fill="#000000" stroke="#000000" points="692.5693,-1149.3123 686,-1141 685.9519,-1151.5947 692.5693,-1149.3123"/>
<text text-anchor="middle" x="1155" y="-1199.8" font-family="Times,serif" font-size="14.00" fill="#000000">/json/1</text>
</g>
<!-- r1 -->
<g id="node5" class="node">
<title>r1</title>
<g id="a_node5"><a xlink:href="file:///home/travis/build/andrewdavidmackenzie/flow/flowstdlib/data/buffer/buffer.html" xlink:title="limit&#45;buffer (#1)">
<ellipse fill="#ff7f50" stroke="#000000" cx="909" cy="-831" rx="87.1846" ry="18"/>
<text text-anchor="middle" x="909" y="-827.3" font-family="Times,serif" font-size="14.00" fill="#000000">limit&#45;buffer (#1)</text>
</a>
</g>
</g>
<!-- r13&#45;&gt;r1 -->
<g id="edge4" class="edge">
<title>r13:e&#45;&gt;r1:n</title>
<path fill="none" stroke="#000000" d="M1179,-1196C1187,-1196 1184.0124,-1184.235 1179,-1178 1107.7181,-1089.3315 929,-1236.7682 929,-1123 929,-1123 929,-1123 929,-907.5 929,-883.7792 914.0949,-877.8942 910.0193,-859.0503"/>
<polygon fill="#000000" stroke="#000000" points="913.4912,-858.5958 909,-849 906.527,-859.3022 913.4912,-858.5958"/>
<text text-anchor="middle" x="1155" y="-1184.8" font-family="Times,serif" font-size="14.00" fill="#000000">/json/1</text>
</g>
<!-- r12&#45;&gt;r12 -->
<g id="edge7" class="edge">
<title>r12:s&#45;&gt;r12:n</title>
<path fill="none" stroke="#000000" d="M1453,-1105C1503.8643,-1096 1605.5928,-1096 1605.5928,-1123 1605.5928,-1148.3125 1516.183,-1149.8945 1463.0959,-1142.5776"/>
<polygon fill="#000000" stroke="#000000" points="1463.4205,-1139.086 1453,-1141 1462.3397,-1146.002 1463.4205,-1139.086"/>
<text text-anchor="middle" x="1465.5" y="-1144.8" font-family="Times,serif" font-size="14.00" fill="#000000">left</text>
<text text-anchor="middle" x="1428.5" y="-1093.8" font-family="Times,serif" font-size="14.00" fill="#000000">/left&#45;gt</text>
</g>
<!-- r12&#45;&gt;r0 -->
<g id="edge6" class="edge">
<title>r12:e&#45;&gt;r0:n</title>
<path fill="none" stroke="#000000" d="M1534,-1123C1542,-1123 1536.1033,-1112.7186 1534,-1105 1526.4141,-1077.1617 1473.08,-1024.6347 1462.7355,-991.1479"/>
<polygon fill="#000000" stroke="#000000" points="1466.1358,-990.2668 1461,-981 1459.2359,-991.4469 1466.1358,-990.2668"/>
<text text-anchor="middle" x="1484" y="-984.8" font-family="Times,serif" font-size="14.00" fill="#000000">values</text>
<text text-anchor="middle" x="1566" y="-1126.8" font-family="Times,serif" font-size="14.00" fill="#000000">/right&#45;lte</text>
</g>
<!-- r11 -->
<g id="node7" class="node">
<title>r11</title>
<g id="a_node7"><a xlink:href="file:///home/travis/build/andrewdavidmackenzie/flow/flowstdlib/math/add/add.html" xlink:title="add (#11)">
<ellipse fill="#ff7f50" stroke="#000000" cx="1712" cy="-963" rx="57.3905" ry="18"/>
<text text-anchor="middle" x="1712" y="-959.3" font-family="Times,serif" font-size="14.00" fill="#000000">add (#11)</text>
</a>
</g>
</g>
<!-- r12&#45;&gt;r11 -->
<g id="edge8" class="edge">
<title>r12:e&#45;&gt;r11:n</title>
<path fill="none" stroke="#000000" d="M1534,-1123C1535.1684,-1123 1692.224,-1068.8734 1693,-1068 1716.9251,-1041.0707 1713.0383,-1023.8775 1712.1468,-991.1653"/>
<polygon fill="#000000" stroke="#000000" points="1715.6442,-990.9484 1712,-981 1708.6449,-991.0495 1715.6442,-990.9484"/>
<text text-anchor="middle" x="1705" y="-984.8" font-family="Times,serif" font-size="14.00" fill="#000000">i1</text>
<text text-anchor="middle" x="1561.5" y="-1111.8" font-family="Times,serif" font-size="14.00" fill="#000000">/right&#45;lt</text>
</g>
<!-- r0&#45;&gt;r0 -->
<g id="edge13" class="edge">
<title>r0:s&#45;&gt;r0:nw</title>
<path fill="none" stroke="#000000" d="M1461,-945C1407.3193,-936 1299.9579,-936 1299.9579,-963 1299.9579,-988.3652 1378.8258,-989.901 1432.8848,-982.5318"/>
<polygon fill="#000000" stroke="#000000" points="1433.6368,-985.9579 1443,-981 1432.5887,-979.0368 1433.6368,-985.9579"/>
<text text-anchor="middle" x="1483" y="-984.8" font-family="Times,serif" font-size="14.00" fill="#000000">chunk_size</text>
<text text-anchor="middle" x="1418.5" y="-933.8" font-family="Times,serif" font-size="14.00" fill="#000000">/chunk_size</text>
</g>
<!-- r0&#45;&gt;r0 -->
<g id="edge14" class="edge">
<title>r0:e&#45;&gt;r0:ne</title>
<path fill="none" stroke="#000000" d="M1550,-963C1574.0421,-954 1622.0421,-954 1622.0421,-972 1622.0421,-988.9102 1543.1742,-989.934 1489.1152,-982.5338"/>
<polygon fill="#000000" stroke="#000000" points="1489.4117,-979.0388 1479,-981 1488.3622,-985.9597 1489.4117,-979.0388"/>
<text text-anchor="middle" x="1455" y="-969.8" font-family="Times,serif" font-size="14.00" fill="#000000">partial</text>
<text text-anchor="middle" x="1576" y="-966.8" font-family="Times,serif" font-size="14.00" fill="#000000">/partial</text>
</g>
<!-- r14 -->
<g id="node10" class="node">
<title>r14</title>
<g id="a_node10"><a xlink:href="file:///home/travis/build/andrewdavidmackenzie/flow/flowstdlib/data/remove/remove.html" xlink:title="remove (#14)">
<ellipse fill="#ff7f50" stroke="#000000" cx="933" cy="-186" rx="74.9875" ry="18"/>
<text text-anchor="middle" x="933" y="-182.3" font-family="Times,serif" font-size="14.00" fill="#000000">remove (#14)</text>
</a>
</g>
</g>
<!-- r0&#45;&gt;r14 -->
<g id="edge15" class="edge">
<title>r0:s&#45;&gt;r14:ne</title>
<path fill="none" stroke="#000000" d="M1461,-945C1461,-868.062 1292,-984.438 1292,-907.5 1292,-907.5 1292,-907.5 1292,-248.5 1292,-99.0923 1069.4206,-302.5391 958.4673,-210.7991"/>
<polygon fill="#000000" stroke="#000000" points="960.7505,-208.1446 951,-204 956.0378,-213.3205 960.7505,-208.1446"/>
<text text-anchor="middle" x="931.5" y="-207.8" font-family="Times,serif" font-size="14.00" fill="#000000">array</text>
<text text-anchor="middle" x="1485.5" y="-933.8" font-family="Times,serif" font-size="14.00" fill="#000000">/chunk</text>
</g>
<!-- r7 -->
<g id="node11" class="node">
<title>r7</title>
<g id="a_node11"><a xlink:href="file:///home/travis/build/andrewdavidmackenzie/flow/flowstdlib/control/compare_switch/compare_switch.html" xlink:title="compare (#7)">
<ellipse fill="#ff7f50" stroke="#000000" cx="323" cy="-963" rx="74.9875" ry="18"/>
<text text-anchor="middle" x="323" y="-959.3" font-family="Times,serif" font-size="14.00" fill="#000000">compare (#7)</text>
</a>
</g>
</g>
<!-- r6&#45;&gt;r7 -->
<g id="edge16" class="edge">
<title>r6:e&#45;&gt;r7:n</title>
<path fill="none" stroke="#000000" d="M740,-1123C748,-1123 744.7832,-1111.4126 740,-1105 733.4096,-1096.1647 391.9211,-1010.3396 331.9447,-986.1514"/>
<polygon fill="#000000" stroke="#000000" points="333.4124,-982.9577 323,-981 329.9189,-989.0237 333.4124,-982.9577"/>
<text text-anchor="middle" x="310.5" y="-984.8" font-family="Times,serif" font-size="14.00" fill="#000000">left</text>
</g>
<!-- r1&#45;&gt;r1 -->
<g id="edge33" class="edge">
<title>r1:e&#45;&gt;r1:n</title>
<path fill="none" stroke="#000000" d="M996,-831C1020.0923,-822 1068.0923,-822 1068.0923,-840 1068.0923,-856.9102 974.4853,-857.934 919.1804,-850.5338"/>
<polygon fill="#000000" stroke="#000000" points="919.4099,-847.0289 909,-849 918.3669,-853.9508 919.4099,-847.0289"/>
</g>
<!-- r2 -->
<g id="node18" class="node">
<title>r2</title>
<g id="a_node18"><a xlink:href="file:///home/travis/build/andrewdavidmackenzie/flow/flowstdlib/control/compare_switch/compare_switch.html" xlink:title="compare (#2)">
<ellipse fill="#ff7f50" stroke="#000000" cx="665" cy="-574" rx="74.9875" ry="18"/>
<text text-anchor="middle" x="665" y="-570.3" font-family="Times,serif" font-size="14.00" fill="#000000">compare (#2)</text>
</a>
</g>
</g>
<!-- r1&#45;&gt;r2 -->
<g id="edge34" class="edge">
<title>r1:e&#45;&gt;r2:n</title>
<path fill="none" stroke="#000000" d="M996,-831C1004,-831 1000.5414,-819.586 996,-813 964.418,-767.1989 879,-824.1342 879,-768.5 879,-768.5 879,-768.5 879,-650.5 879,-555.5582 680.5881,-680.6334 665.8622,-602.0209"/>
<polygon fill="#000000" stroke="#000000" points="669.3445,-601.6631 665,-592 662.3702,-602.2633 669.3445,-601.6631"/>
<text text-anchor="middle" x="652.5" y="-595.8" font-family="Times,serif" font-size="14.00" fill="#000000">left</text>
</g>
<!-- initializerr12_1 -->
<!-- initializerr12_1&#45;&gt;r12 -->
<g id="edge5" class="edge">
<title>initializerr12_1&#45;&gt;r12:ne</title>
<path fill="none" stroke="#0000ff" stroke-dasharray="1,5" d="M1478.0147,-1250.726C1486.5932,-1225.2071 1497.6539,-1178.6884 1477.5307,-1148.9205"/>
<polygon fill="#0000ff" stroke="#0000ff" points="1480.0621,-1146.4889 1471,-1141 1474.6613,-1150.9421 1480.0621,-1146.4889"/>
<text text-anchor="middle" x="1493" y="-1192.3" font-family="Times,serif" font-size="14.00" fill="#000000">1</text>
</g>
<!-- r11&#45;&gt;r12 -->
<g id="edge11" class="edge">
<title>r11:se&#45;&gt;r12:ne</title>
<path fill="none" stroke="#000000" d="M1729,-946C1729,-946 1769.1949,-981 1769.1949,-981 1746.2588,-1006.7694 1643.7953,-980.0011 1615,-999 1554.2792,-1039.0632 1596.5377,-1104.5306 1533.5928,-1141 1524.0022,-1146.5567 1496.1952,-1149.5031 1480.3173,-1145.4937"/>
<polygon fill="#000000" stroke="#000000" points="1481.5276,-1142.1917 1471,-1141 1478.4867,-1148.4967 1481.5276,-1142.1917"/>
<text text-anchor="middle" x="1489" y="-1144.8" font-family="Times,serif" font-size="14.00" fill="#000000">right</text>
<text text-anchor="middle" x="1711.5" y="-934.8" font-family="Times,serif" font-size="14.00" fill="#000000">/sum</text>
</g>
<!-- r11&#45;&gt;r11 -->
<g id="edge10" class="edge">
<title>r11:se&#45;&gt;r11:ne</title>
<path fill="none" stroke="#000000" d="M1729,-946C1772.065,-937 1841.1949,-937 1841.1949,-963 1841.1949,-987.0703 1781.9457,-988.8568 1738.9805,-981.8482"/>
<polygon fill="#000000" stroke="#000000" points="1739.4702,-978.3795 1729,-980 1738.1955,-985.2625 1739.4702,-978.3795"/>
<text text-anchor="middle" x="1722" y="-983.8" font-family="Times,serif" font-size="14.00" fill="#000000">i2</text>
<text text-anchor="middle" x="1738.5" y="-934.8" font-family="Times,serif" font-size="14.00" fill="#000000">/i2</text>
</g>
<!-- initializerr11_1 -->
<!-- initializerr11_1&#45;&gt;r11 -->
<g id="edge9" class="edge">
<title>initializerr11_1&#45;&gt;r11:w</title>
<path fill="none" stroke="#0000ff" stroke-dasharray="1,5" d="M1691.64,-1104.957C1663.6446,-1065.8916 1604.621,-976.0393 1644.8599,-964.2781"/>
<polygon fill="#0000ff" stroke="#0000ff" points="1645.5162,-967.7231 1655,-963 1644.6408,-960.7781 1645.5162,-967.7231"/>
<text text-anchor="middle" x="1670" y="-1046.3" font-family="Times,serif" font-size="14.00" fill="#000000">1</text>
</g>
<!-- initializerr0_1 -->
<!-- initializerr0_1&#45;&gt;r0 -->
<g id="edge12" class="edge">
<title>initializerr0_1&#45;&gt;r0:n</title>
<path fill="none" stroke="#0000ff" stroke-dasharray="1,5" d="M1329.459,-1036.1524C1374.0482,-1023.0678 1435.5009,-1003.3541 1454.8871,-988.9651"/>
<polygon fill="#0000ff" stroke="#0000ff" points="1457.6882,-991.064 1461,-981 1452.1351,-986.8021 1457.6882,-991.064"/>
<text text-anchor="middle" x="1439.5" y="-1002.8" font-family="Times,serif" font-size="14.00" fill="#000000">[]</text>
</g>
<!-- r14&#45;&gt;r14 -->
<g id="edge39" class="edge">
<title>r14:e&#45;&gt;r14:ne</title>
<path fill="none" stroke="#000000" d="M1008,-186C1031.7434,-177 1079.7434,-177 1079.7434,-195 1079.7434,-211.8047 1010.1647,-212.9206 961.1212,-205.6713"/>
<polygon fill="#000000" stroke="#000000" points="961.4366,-202.176 951,-204 960.2962,-209.0825 961.4366,-202.176"/>
<text text-anchor="middle" x="970.5" y="-207.8" font-family="Times,serif" font-size="14.00" fill="#000000">array</text>
</g>
<!-- r10 -->
<g id="node23" class="node">
<title>r10</title>
<g id="a_node23"><a xlink:href="file:///home/travis/build/andrewdavidmackenzie/flow/flowr/src/lib/flowruntime/stdio/stdout.html" xlink:title="print (#10)">
<ellipse fill="#ff7f50" stroke="#000000" cx="1121" cy="-107" rx="63.0888" ry="18"/>
<text text-anchor="middle" x="1121" y="-103.3" font-family="Times,serif" font-size="14.00" fill="#000000">print (#10)</text>
</a>
</g>
</g>
<!-- r14&#45;&gt;r10 -->
<g id="edge40" class="edge">
<title>r14:e&#45;&gt;r10:n</title>
<path fill="none" stroke="#000000" d="M1008,-186C1061.5056,-186 1114.0046,-182.5482 1120.358,-135.0903"/>
<polygon fill="#000000" stroke="#000000" points="1123.8579,-135.2021 1121,-125 1116.872,-134.7575 1123.8579,-135.2021"/>
</g>
<!-- r7&#45;&gt;r7 -->
<g id="edge20" class="edge">
<title>r7:s&#45;&gt;r7:n</title>
<path fill="none" stroke="#000000" d="M323,-945C371.9145,-936 469.7434,-936 469.7434,-963 469.7434,-988.2598 384.1188,-989.8878 333.0284,-982.6233"/>
<polygon fill="#000000" stroke="#000000" points="333.4308,-979.1429 323,-981 332.3122,-986.053 333.4308,-979.1429"/>
<text text-anchor="middle" x="335.5" y="-984.8" font-family="Times,serif" font-size="14.00" fill="#000000">left</text>
<text text-anchor="middle" x="298.5" y="-933.8" font-family="Times,serif" font-size="14.00" fill="#000000">/left&#45;gt</text>
</g>
<!-- r4 -->
<g id="node13" class="node">
<title>r4</title>
<g id="a_node13"><a xlink:href="file:///home/travis/build/andrewdavidmackenzie/flow/flowstdlib/math/multiply/multiply.html" xlink:title="multiply (#4)">
<ellipse fill="#ff7f50" stroke="#000000" cx="482" cy="-706" rx="72.5877" ry="18"/>
<text text-anchor="middle" x="482" y="-702.3" font-family="Times,serif" font-size="14.00" fill="#000000">multiply (#4)</text>
</a>
</g>
</g>
<!-- r7&#45;&gt;r4 -->
<g id="edge18" class="edge">
<title>r7:e&#45;&gt;r4:n</title>
<path fill="none" stroke="#000000" d="M398,-963C441.6399,-963 479,-951.1399 479,-907.5 479,-907.5 479,-907.5 479,-768.5 479,-752.5489 480.9426,-746.29 481.7014,-734.1249"/>
<polygon fill="#000000" stroke="#000000" points="485.2036,-734.0989 482,-724 478.2066,-733.8924 485.2036,-734.0989"/>
<text text-anchor="middle" x="475" y="-727.8" font-family="Times,serif" font-size="14.00" fill="#000000">i1</text>
<text text-anchor="middle" x="430" y="-966.8" font-family="Times,serif" font-size="14.00" fill="#000000">/right&#45;lte</text>
</g>
<!-- r3 -->
<g id="node14" class="node">
<title>r3</title>
<g id="a_node14"><a xlink:href="file:///home/travis/build/andrewdavidmackenzie/flow/flowstdlib/math/add/add.html" xlink:title="add (#3)">
<ellipse fill="#ff7f50" stroke="#000000" cx="268" cy="-706" rx="51.1914" ry="18"/>
<text text-anchor="middle" x="268" y="-702.3" font-family="Times,serif" font-size="14.00" fill="#000000">add (#3)</text>
</a>
</g>
</g>
<!-- r7&#45;&gt;r3 -->
<g id="edge19" class="edge">
<title>r7:e&#45;&gt;r3:ne</title>
<path fill="none" stroke="#000000" d="M398,-963C406,-963 398.1066,-952.9993 398,-945 397.7778,-928.3289 397,-924.1726 397,-907.5 397,-907.5 397,-907.5 397,-768.5 397,-718.3393 332.4947,-755.294 293.0129,-729.5085"/>
<polygon fill="#000000" stroke="#000000" points="294.9688,-726.5881 285,-723 290.5554,-732.0215 294.9688,-726.5881"/>
<text text-anchor="middle" x="278" y="-726.8" font-family="Times,serif" font-size="14.00" fill="#000000">i2</text>
<text text-anchor="middle" x="430" y="-951.8" font-family="Times,serif" font-size="14.00" fill="#000000">/right&#45;lte</text>
</g>
<!-- r8 -->
<g id="node15" class="node">
<title>r8</title>
<g id="a_node15"><a xlink:href="file:///home/travis/build/andrewdavidmackenzie/flow/flowstdlib/math/add/add.html" xlink:title="add (#8)">
<ellipse fill="#ff7f50" stroke="#000000" cx="75" cy="-706" rx="51.1914" ry="18"/>
<text text-anchor="middle" x="75" y="-702.3" font-family="Times,serif" font-size="14.00" fill="#000000">add (#8)</text>
</a>
</g>
</g>
<!-- r7&#45;&gt;r8 -->
<g id="edge21" class="edge">
<title>r7:e&#45;&gt;r8:n</title>
<path fill="none" stroke="#000000" d="M398,-963C406,-963 401.7323,-952.076 398,-945 388.6883,-927.3461 124.291,-774.1962 80.976,-732.3699"/>
<polygon fill="#000000" stroke="#000000" points="83.6593,-730.1048 75,-724 77.9623,-734.1723 83.6593,-730.1048"/>
<text text-anchor="middle" x="68" y="-727.8" font-family="Times,serif" font-size="14.00" fill="#000000">i1</text>
<text text-anchor="middle" x="370.5" y="-966.8" font-family="Times,serif" font-size="14.00" fill="#000000">/right&#45;lt</text>
</g>
<!-- initializerr7_1 -->
<!-- initializerr7_1&#45;&gt;r7 -->
<g id="edge17" class="edge">
<title>initializerr7_1&#45;&gt;r7:ne</title>
<path fill="none" stroke="#0000ff" stroke-dasharray="1,5" d="M341,-1250.6997C341,-1235.9349 341,-1214.6302 341,-1196 341,-1196 341,-1196 341,-1050 341,-1037.6615 348.0206,-1007.5219 345.1137,-990.5699"/>
<polygon fill="#0000ff" stroke="#0000ff" points="348.1647,-988.805 341,-981 341.7337,-991.5694 348.1647,-988.805"/>
<text text-anchor="middle" x="346" y="-1119.3" font-family="Times,serif" font-size="14.00" fill="#000000">2</text>
</g>
<!-- r4&#45;&gt;r2 -->
<g id="edge26" class="edge">
<title>r4:e&#45;&gt;r2:ne</title>
<path fill="none" stroke="#000000" d="M555,-706C560.8458,-706 556.4479,-685.2592 559,-680 566.9625,-663.5914 572.8375,-661.4919 587,-650 622.3823,-621.2897 702.741,-626.0564 689.3716,-600.1681"/>
<polygon fill="#000000" stroke="#000000" points="691.9103,-597.7321 683,-592 686.391,-602.0375 691.9103,-597.7321"/>
<text text-anchor="middle" x="701" y="-595.8" font-family="Times,serif" font-size="14.00" fill="#000000">right</text>
</g>
<!-- r3&#45;&gt;r3 -->
<g id="edge31" class="edge">
<title>r3:se&#45;&gt;r3:ne</title>
<path fill="none" stroke="#000000" d="M285,-689C326.1151,-680 391.3454,-680 391.3454,-706 391.3454,-729.9688 335.9092,-731.8413 295.0353,-724.9365"/>
<polygon fill="#000000" stroke="#000000" points="295.482,-721.4582 285,-723 294.1557,-728.3314 295.482,-721.4582"/>
<text text-anchor="middle" x="292" y="-726.8" font-family="Times,serif" font-size="14.00" fill="#000000">i2</text>
<text text-anchor="middle" x="275.5" y="-677.8" font-family="Times,serif" font-size="14.00" fill="#000000">/i2</text>
</g>
<!-- r3&#45;&gt;r2 -->
<g id="edge32" class="edge">
<title>r3:se&#45;&gt;r2:ne</title>
<path fill="none" stroke="#000000" d="M285,-689C313.9163,-660.0837 638.1147,-630.8085 680.3283,-601.8192"/>
<polygon fill="#000000" stroke="#000000" points="683.7517,-602.5681 683,-592 676.9973,-600.7303 683.7517,-602.5681"/>
<text text-anchor="middle" x="665" y="-595.8" font-family="Times,serif" font-size="14.00" fill="#000000">right</text>
<text text-anchor="middle" x="302.5" y="-677.8" font-family="Times,serif" font-size="14.00" fill="#000000">/sum</text>
</g>
<!-- r8&#45;&gt;r7 -->
<g id="edge24" class="edge">
<title>r8:se&#45;&gt;r7:ne</title>
<path fill="none" stroke="#000000" d="M92,-689C102.7937,-678.2063 111.7156,-684.6436 126.3454,-689 128.2799,-689.576 248,-766.4816 248,-768.5 248,-907.5 248,-907.5 248,-907.5 248,-941.8039 376.6378,-917.9572 397.7434,-945 397.7434,-945 365.8252,-965.25 349.8662,-975.375"/>
<polygon fill="#000000" stroke="#000000" points="347.569,-972.6874 341,-981 351.319,-978.5982 347.569,-972.6874"/>
<text text-anchor="middle" x="359" y="-984.8" font-family="Times,serif" font-size="14.00" fill="#000000">right</text>
<text text-anchor="middle" x="74.5" y="-677.8" font-family="Times,serif" font-size="14.00" fill="#000000">/sum</text>
</g>
<!-- r8&#45;&gt;r8 -->
<g id="edge23" class="edge">
<title>r8:se&#45;&gt;r8:ne</title>
<path fill="none" stroke="#000000" d="M92,-689C133.1151,-680 198.3454,-680 198.3454,-706 198.3454,-729.9688 142.9092,-731.8413 102.0353,-724.9365"/>
<polygon fill="#000000" stroke="#000000" points="102.482,-721.4582 92,-723 101.1557,-728.3314 102.482,-721.4582"/>
<text text-anchor="middle" x="85" y="-726.8" font-family="Times,serif" font-size="14.00" fill="#000000">i2</text>
<text text-anchor="middle" x="101.5" y="-677.8" font-family="Times,serif" font-size="14.00" fill="#000000">/i2</text>
</g>
<!-- initializerr8_1 -->
<!-- initializerr8_1&#45;&gt;r8 -->
<g id="edge22" class="edge">
<title>initializerr8_1&#45;&gt;r8:w</title>
<path fill="none" stroke="#0000ff" stroke-dasharray="1,5" d="M99,-944.506C98.5,-933.7163 98,-919.8413 98,-907.5 98,-907.5 98,-907.5 98,-768.5 98,-729.7409 42.1794,-757.6812 23,-724 21.5155,-721.393 20.0194,-718.2101 19.151,-715.2497"/>
<polygon fill="#0000ff" stroke="#0000ff" points="22.3894,-716.5772 23,-706 15.9266,-713.8879 22.3894,-716.5772"/>
<text text-anchor="middle" x="103" y="-827.3" font-family="Times,serif" font-size="14.00" fill="#000000">1</text>
</g>
<!-- initializerr4_1 -->
<!-- initializerr4_1&#45;&gt;r4 -->
<g id="edge25" class="edge">
<title>initializerr4_1&#45;&gt;r4:w</title>
<path fill="none" stroke="#0000ff" d="M630.6423,-813.929C600.7563,-793.7746 547.8941,-760.6455 498,-742 460.197,-727.8729 434.5518,-755.2369 409,-724 407.0214,-721.5812 405.3679,-718.3055 404.5642,-715.2114"/>
<polygon fill="#0000ff" stroke="#0000ff" points="407.8147,-716.5283 409,-706 401.5078,-713.4912 407.8147,-716.5283"/>
<text text-anchor="middle" x="573" y="-764.8" font-family="Times,serif" font-size="14.00" fill="#000000">2</text>
</g>
<!-- r2&#45;&gt;r14 -->
<g id="edge27" class="edge">
<title>r2:e&#45;&gt;r14:n</title>
<path fill="none" stroke="#000000" d="M740,-574C789.669,-574 837,-568.169 837,-518.5 837,-518.5 837,-518.5 837,-248.5 837,-205.5137 917.209,-243.2237 930.9949,-214.1071"/>
<polygon fill="#000000" stroke="#000000" points="934.4871,-214.4899 933,-204 927.6209,-213.1277 934.4871,-214.4899"/>
<text text-anchor="middle" x="913.5" y="-207.8" font-family="Times,serif" font-size="14.00" fill="#000000">value</text>
<text text-anchor="middle" x="772" y="-577.8" font-family="Times,serif" font-size="14.00" fill="#000000">/right&#45;lte</text>
</g>
<!-- r2&#45;&gt;r3 -->
<g id="edge29" class="edge">
<title>r2:e&#45;&gt;r3:n</title>
<path fill="none" stroke="#000000" d="M740,-574C748,-574 744.3996,-585.3184 740,-592 715.2554,-629.5792 690.1181,-619.1421 647,-632 632.1904,-636.4162 387.0463,-673.5557 373,-680 344.9697,-692.86 348.3841,-713.6159 319.3454,-724 311.7073,-726.7314 288.978,-731.3461 276.4758,-729.6858"/>
<polygon fill="#000000" stroke="#000000" points="278.2544,-726.6643 268,-724 274.3547,-732.4775 278.2544,-726.6643"/>
<text text-anchor="middle" x="261" y="-727.8" font-family="Times,serif" font-size="14.00" fill="#000000">i1</text>
<text text-anchor="middle" x="767.5" y="-562.8" font-family="Times,serif" font-size="14.00" fill="#000000">/right&#45;lt</text>
</g>
<!-- r2&#45;&gt;r2 -->
<g id="edge28" class="edge">
<title>r2:s&#45;&gt;r2:n</title>
<path fill="none" stroke="#000000" d="M665,-556C713.9145,-547 811.7434,-547 811.7434,-574 811.7434,-599.2598 726.1188,-600.8878 675.0284,-593.6233"/>
<polygon fill="#000000" stroke="#000000" points="675.4308,-590.1429 665,-592 674.3122,-597.053 675.4308,-590.1429"/>
<text text-anchor="middle" x="652.5" y="-580.8" font-family="Times,serif" font-size="14.00" fill="#000000">left</text>
<text text-anchor="middle" x="640.5" y="-544.8" font-family="Times,serif" font-size="14.00" fill="#000000">/left&#45;gt</text>
</g>
<!-- r9 -->
<g id="node19" class="node">
<title>r9</title>
<g id="a_node19"><a xlink:href="file:///home/travis/build/andrewdavidmackenzie/flow/flowstdlib/control/join/join.html" xlink:title="join (#9)">
<ellipse fill="#ff7f50" stroke="#000000" cx="638" cy="-186" rx="51.1914" ry="18"/>
<text text-anchor="middle" x="638" y="-182.3" font-family="Times,serif" font-size="14.00" fill="#000000">join (#9)</text>
</a>
</g>
</g>
<!-- r2&#45;&gt;r9 -->
<g id="edge30" class="edge">
<title>r2:sw&#45;&gt;r9:ne</title>
<path fill="none" stroke="#000000" d="M647,-556C635.1106,-544.1106 652,-535.3142 652,-518.5 652,-518.5 652,-518.5 652,-248.5 652,-232.5088 662.7902,-222.3468 660.302,-211.731"/>
<polygon fill="#000000" stroke="#000000" points="663.1822,-209.7307 655,-203 657.199,-213.3641 663.1822,-209.7307"/>
<text text-anchor="middle" x="681" y="-206.8" font-family="Times,serif" font-size="14.00" fill="#000000">control</text>
<text text-anchor="middle" x="681" y="-544.8" font-family="Times,serif" font-size="14.00" fill="#000000">/right&#45;gte</text>
</g>
<!-- r5 -->
<g id="node21" class="node">
<title>r5</title>
<g id="a_node21"><a xlink:href="file:///home/travis/build/andrewdavidmackenzie/flow/flowstdlib/math/add/add.html" xlink:title="subsequence&#45;count (#5)">
<ellipse fill="#ff7f50" stroke="#000000" cx="546" cy="-34" rx="124.2781" ry="18"/>
<text text-anchor="middle" x="546" y="-30.3" font-family="Times,serif" font-size="14.00" fill="#000000">subsequence&#45;count (#5)</text>
</a>
</g>
</g>
<!-- r9&#45;&gt;r5 -->
<g id="edge36" class="edge">
<title>r9:e&#45;&gt;r5:ne</title>
<path fill="none" stroke="#000000" d="M690,-186C698,-186 693.2134,-175.3262 690,-168 660.8582,-101.56 621.6996,-105.2873 571.4885,-59.1788"/>
<polygon fill="#000000" stroke="#000000" points="573.6409,-56.3937 564,-52 568.7967,-61.4468 573.6409,-56.3937"/>
<text text-anchor="middle" x="557" y="-55.8" font-family="Times,serif" font-size="14.00" fill="#000000">i2</text>
</g>
<!-- initializerr9_0 -->
<!-- initializerr9_0&#45;&gt;r9 -->
<g id="edge35" class="edge">
<title>initializerr9_0&#45;&gt;r9:nw</title>
<path fill="none" stroke="#0000ff" d="M511.2827,-293.8908C537.3141,-275.0441 579.5242,-243.0126 613.8122,-210.0448"/>
<polygon fill="#0000ff" stroke="#0000ff" points="616.3081,-212.4993 621,-203 611.4083,-207.5001 616.3081,-212.4993"/>
<text text-anchor="middle" x="584" y="-244.8" font-family="Times,serif" font-size="14.00" fill="#000000">1</text>
</g>
<!-- r5&#45;&gt;r5 -->
<g id="edge38" class="edge">
<title>r5:se&#45;&gt;r5:n</title>
<path fill="none" stroke="#000000" d="M564,-16C629.3797,-7 742.139,-7 742.139,-34 742.139,-59.6816 623.8374,-60.9356 556.0219,-53.2519"/>
<polygon fill="#000000" stroke="#000000" points="556.3567,-49.7666 546,-52 555.489,-56.7126 556.3567,-49.7666"/>
<text text-anchor="middle" x="539" y="-55.8" font-family="Times,serif" font-size="14.00" fill="#000000">i1</text>
<text text-anchor="middle" x="546.5" y="-4.8" font-family="Times,serif" font-size="14.00" fill="#000000">/sum</text>
</g>
<!-- initializerr5_0 -->
<!-- initializerr5_0&#45;&gt;r5 -->
<g id="edge37" class="edge">
<title>initializerr5_0&#45;&gt;r5:ne</title>
<path fill="none" stroke="#0000ff" stroke-dasharray="1,5" d="M462.9087,-168.8694C499.8217,-141.595 566.5784,-88.6243 567.5805,-61.5711"/>
<polygon fill="#0000ff" stroke="#0000ff" points="570.782,-60.1397 564,-52 564.2257,-62.5924 570.782,-60.1397"/>
<text text-anchor="middle" x="558" y="-103.3" font-family="Times,serif" font-size="14.00" fill="#000000">1</text>
</g>
</g>
</svg>
