<?xml version="1.0" encoding="UTF-8" standalone="no"?>
<!DOCTYPE svg PUBLIC "-//W3C//DTD SVG 1.1//EN"
 "http://www.w3.org/Graphics/SVG/1.1/DTD/svg11.dtd">
<!-- Generated by graphviz version 2.40.1 (20161225.0304)
 -->
<!-- Title: prime Pages: 1 -->
<svg width="1850pt" height="1388pt"
 viewBox="0.00 0.00 1850.35 1388.00" xmlns="http://www.w3.org/2000/svg" xmlns:xlink="http://www.w3.org/1999/xlink">
<g id="graph0" class="graph" transform="scale(1 1) rotate(0) translate(4 1384)">
<title>prime</title>
<polygon fill="#ffffff" stroke="transparent" points="-4,4 -4,-1384 1846.3454,-1384 1846.3454,4 -4,4"/>
<text text-anchor="middle" x="921.1727" y="-1364.8" font-family="Times,serif" font-size="14.00" fill="#000000">/prime</text>
<g id="clust1" class="cluster">
<title>cluster_candidates</title>
<polygon fill="none" stroke="#000000" points="1388,-937 1388,-1318 1796,-1318 1796,-937 1388,-937"/>
<text text-anchor="middle" x="1592" y="-1302.8" font-family="Times,serif" font-size="14.00" fill="#000000">/prime/candidates</text>
</g>
<g id="clust2" class="cluster">
<title>cluster_composites</title>
<polygon fill="none" stroke="#000000" points="8,-8 8,-1349 1074,-1349 1074,-8 8,-8"/>
<text text-anchor="middle" x="541" y="-1333.8" font-family="Times,serif" font-size="14.00" fill="#000000">/prime/composites</text>
</g>
<g id="clust3" class="cluster">
<title>cluster_divisors</title>
<polygon fill="none" stroke="#000000" points="16,-680 16,-1318 587,-1318 587,-680 16,-680"/>
<text text-anchor="middle" x="301.5" y="-1302.8" font-family="Times,serif" font-size="14.00" fill="#000000">/prime/composites/divisors</text>
</g>
<g id="clust4" class="cluster">
<title>cluster_generate_composites</title>
<polygon fill="none" stroke="#000000" points="595,-152 595,-880 1066,-880 1066,-152 595,-152"/>
<text text-anchor="middle" x="830.5" y="-864.8" font-family="Times,serif" font-size="14.00" fill="#000000">/prime/composites/generate_composites</text>
</g>
<g id="clust5" class="cluster">
<title>cluster_composite_sequence</title>
<polygon fill="none" stroke="#000000" points="603,-160 603,-623 1058,-623 1058,-160 603,-160"/>
<text text-anchor="middle" x="830.5" y="-607.8" font-family="Times,serif" font-size="14.00" fill="#000000">/prime/composites/generate_composites/composite&#45;sequence</text>
</g>
<!-- r0 -->
<g id="node1" class="node">
<title>r0</title>
<g id="a_node1"><a xlink:href="file:///home/travis/build/andrewdavidmackenzie/flow/flowr/src/lib/flowruntime/args/get.html" xlink:title="args (#0)">
<ellipse fill="#ff7f50" stroke="#000000" cx="1137" cy="-1196" rx="54.6905" ry="18"/>
<text text-anchor="middle" x="1137" y="-1192.3" font-family="Times,serif" font-size="14.00" fill="#000000">args (#0)</text>
</a>
</g>
</g>
<!-- r4 -->
<g id="node2" class="node">
<title>r4</title>
<g id="a_node2"><a xlink:href="file:///home/travis/build/andrewdavidmackenzie/flow/flowstdlib/control/compare_switch/compare_switch.html" xlink:title="compare (#4)">
<ellipse fill="#ff7f50" stroke="#000000" cx="1471" cy="-1123" rx="74.9875" ry="18"/>
<text text-anchor="middle" x="1471" y="-1119.3" font-family="Times,serif" font-size="14.00" fill="#000000">compare (#4)</text>
</a>
</g>
</g>
<!-- r0&#45;&gt;r4 -->
<g id="edge1" class="edge">
<title>r0:e&#45;&gt;r4:n</title>
<path fill="none" stroke="#000000" d="M1192,-1196C1220.7579,-1196 1428.2867,-1176.613 1465.3449,-1149.3068"/>
<polygon fill="#000000" stroke="#000000" points="1468.2657,-1151.2359 1471,-1141 1462.4793,-1147.2966 1468.2657,-1151.2359"/>
<text text-anchor="middle" x="1458.5" y="-1144.8" font-family="Times,serif" font-size="14.00" fill="#000000">left</text>
<text text-anchor="middle" x="1216" y="-1199.8" font-family="Times,serif" font-size="14.00" fill="#000000">/json/1</text>
</g>
<!-- r2 -->
<g id="node3" class="node">
<title>r2</title>
<g id="a_node3"><a xlink:href="file:///home/travis/build/andrewdavidmackenzie/flow/flowstdlib/data/accumulate/accumulate.html" xlink:title="all&#45;numbers (#2)">
<ellipse fill="#ff7f50" stroke="#000000" cx="1485" cy="-963" rx="89.0842" ry="18"/>
<text text-anchor="middle" x="1485" y="-959.3" font-family="Times,serif" font-size="14.00" fill="#000000">all&#45;numbers (#2)</text>
</a>
</g>
</g>
<!-- r0&#45;&gt;r2 -->
<g id="edge2" class="edge">
<title>r0:e&#45;&gt;r2:nw</title>
<path fill="none" stroke="#000000" d="M1192,-1196C1264.8889,-1196 1145.3951,-1088.0426 1192,-1032 1210.3179,-1009.9726 1409.8968,-1003.8908 1458.1853,-985.8588"/>
<polygon fill="#000000" stroke="#000000" points="1459.9319,-988.8926 1467,-981 1456.5527,-982.7623 1459.9319,-988.8926"/>
<text text-anchor="middle" x="1427" y="-984.8" font-family="Times,serif" font-size="14.00" fill="#000000">chunk_size</text>
<text text-anchor="middle" x="1216" y="-1184.8" font-family="Times,serif" font-size="14.00" fill="#000000">/json/1</text>
</g>
<!-- r5 -->
<g id="node4" class="node">
<title>r5</title>
<g id="a_node4"><a xlink:href="file:///home/travis/build/andrewdavidmackenzie/flow/flowstdlib/math/sqrt/sqrt.html" xlink:title="sqrt (#5)">
<ellipse fill="#ff7f50" stroke="#000000" cx="713" cy="-1123" rx="53.0913" ry="18"/>
<text text-anchor="middle" x="713" y="-1119.3" font-family="Times,serif" font-size="14.00" fill="#000000">sqrt (#5)</text>
</a>
</g>
</g>
<!-- r0&#45;&gt;r5 -->
<g id="edge3" class="edge">
<title>r0:e&#45;&gt;r5:n</title>
<path fill="none" stroke="#000000" d="M1192,-1196C1200,-1196 1197.4795,-1183.8289 1192,-1178 1169.8116,-1154.3967 933.2883,-1162.6292 901,-1160 862.9081,-1156.8982 738.4191,-1178.4877 716.3574,-1150.7329"/>
<polygon fill="#000000" stroke="#000000" points="719.5698,-1149.312 713,-1141 712.9524,-1151.5947 719.5698,-1149.312"/>
<text text-anchor="middle" x="1168" y="-1199.8" font-family="Times,serif" font-size="14.00" fill="#000000">/json/1</text>
</g>
<!-- r12 -->
<g id="node5" class="node">
<title>r12</title>
<g id="a_node5"><a xlink:href="file:///home/travis/build/andrewdavidmackenzie/flow/flowstdlib/data/buffer/buffer.html" xlink:title="limit&#45;buffer (#12)">
<ellipse fill="#ff7f50" stroke="#000000" cx="939" cy="-831" rx="92.8835" ry="18"/>
<text text-anchor="middle" x="939" y="-827.3" font-family="Times,serif" font-size="14.00" fill="#000000">limit&#45;buffer (#12)</text>
</a>
</g>
</g>
<!-- r0&#45;&gt;r12 -->
<g id="edge4" class="edge">
<title>r0:e&#45;&gt;r12:n</title>
<path fill="none" stroke="#000000" d="M1192,-1196C1200,-1196 1196.9736,-1184.266 1192,-1178 1125.0427,-1093.644 956,-1230.6996 956,-1123 956,-1123 956,-1123 956,-907.5 956,-884.2319 943.4451,-877.7481 939.914,-859.2006"/>
<polygon fill="#000000" stroke="#000000" points="943.3786,-858.6477 939,-849 936.4065,-859.2725 943.3786,-858.6477"/>
<text text-anchor="middle" x="1168" y="-1184.8" font-family="Times,serif" font-size="14.00" fill="#000000">/json/1</text>
</g>
<!-- r4&#45;&gt;r4 -->
<g id="edge7" class="edge">
<title>r4:s&#45;&gt;r4:n</title>
<path fill="none" stroke="#000000" d="M1471,-1105C1519.9145,-1096 1617.7434,-1096 1617.7434,-1123 1617.7434,-1148.2598 1532.1188,-1149.8878 1481.0284,-1142.6233"/>
<polygon fill="#000000" stroke="#000000" points="1481.4308,-1139.1429 1471,-1141 1480.3122,-1146.053 1481.4308,-1139.1429"/>
<text text-anchor="middle" x="1483.5" y="-1144.8" font-family="Times,serif" font-size="14.00" fill="#000000">left</text>
<text text-anchor="middle" x="1446.5" y="-1093.8" font-family="Times,serif" font-size="14.00" fill="#000000">/left&#45;gt</text>
</g>
<!-- r4&#45;&gt;r2 -->
<g id="edge6" class="edge">
<title>r4:e&#45;&gt;r2:n</title>
<path fill="none" stroke="#000000" d="M1546,-1123C1554,-1123 1547.8128,-1112.7919 1546,-1105 1539.748,-1078.1273 1495.4915,-1024.2382 1486.5664,-991.2984"/>
<polygon fill="#000000" stroke="#000000" points="1489.964,-990.36 1485,-981 1483.0435,-991.4126 1489.964,-990.36"/>
<text text-anchor="middle" x="1508" y="-984.8" font-family="Times,serif" font-size="14.00" fill="#000000">values</text>
<text text-anchor="middle" x="1578" y="-1126.8" font-family="Times,serif" font-size="14.00" fill="#000000">/right&#45;lte</text>
</g>
<!-- r3 -->
<g id="node7" class="node">
<title>r3</title>
<g id="a_node7"><a xlink:href="file:///home/travis/build/andrewdavidmackenzie/flow/flowstdlib/math/add/add.html" xlink:title="add (#3)">
<ellipse fill="#ff7f50" stroke="#000000" cx="1719" cy="-963" rx="51.1914" ry="18"/>
<text text-anchor="middle" x="1719" y="-959.3" font-family="Times,serif" font-size="14.00" fill="#000000">add (#3)</text>
</a>
</g>
</g>
<!-- r4&#45;&gt;r3 -->
<g id="edge8" class="edge">
<title>r4:e&#45;&gt;r3:n</title>
<path fill="none" stroke="#000000" d="M1546,-1123C1548.2974,-1123 1700.4983,-1069.7386 1702,-1068 1725.439,-1040.8627 1720.2942,-1023.691 1719.1806,-991.12"/>
<polygon fill="#000000" stroke="#000000" points="1722.678,-990.9359 1719,-981 1715.6791,-991.0609 1722.678,-990.9359"/>
<text text-anchor="middle" x="1712" y="-984.8" font-family="Times,serif" font-size="14.00" fill="#000000">i1</text>
<text text-anchor="middle" x="1573.5" y="-1111.8" font-family="Times,serif" font-size="14.00" fill="#000000">/right&#45;lt</text>
</g>
<!-- r2&#45;&gt;r2 -->
<g id="edge13" class="edge">
<title>r2:s&#45;&gt;r2:nw</title>
<path fill="none" stroke="#000000" d="M1485,-945C1431.3193,-936 1323.9579,-936 1323.9579,-963 1323.9579,-988.3652 1402.8258,-989.901 1456.8848,-982.5318"/>
<polygon fill="#000000" stroke="#000000" points="1457.6368,-985.9579 1467,-981 1456.5887,-979.0368 1457.6368,-985.9579"/>
<text text-anchor="middle" x="1507" y="-984.8" font-family="Times,serif" font-size="14.00" fill="#000000">chunk_size</text>
<text text-anchor="middle" x="1442.5" y="-933.8" font-family="Times,serif" font-size="14.00" fill="#000000">/chunk_size</text>
</g>
<!-- r2&#45;&gt;r2 -->
<g id="edge14" class="edge">
<title>r2:e&#45;&gt;r2:ne</title>
<path fill="none" stroke="#000000" d="M1574,-963C1598.0421,-954 1646.0421,-954 1646.0421,-972 1646.0421,-988.9102 1567.1742,-989.934 1513.1152,-982.5338"/>
<polygon fill="#000000" stroke="#000000" points="1513.4117,-979.0388 1503,-981 1512.3622,-985.9597 1513.4117,-979.0388"/>
<text text-anchor="middle" x="1479" y="-969.8" font-family="Times,serif" font-size="14.00" fill="#000000">partial</text>
<text text-anchor="middle" x="1600" y="-966.8" font-family="Times,serif" font-size="14.00" fill="#000000">/partial</text>
</g>
<!-- r1 -->
<g id="node10" class="node">
<title>r1</title>
<g id="a_node10"><a xlink:href="file:///home/travis/build/andrewdavidmackenzie/flow/flowstdlib/data/remove/remove.html" xlink:title="remove (#1)">
<ellipse fill="#ff7f50" stroke="#000000" cx="963" cy="-186" rx="68.7879" ry="18"/>
<text text-anchor="middle" x="963" y="-182.3" font-family="Times,serif" font-size="14.00" fill="#000000">remove (#1)</text>
</a>
</g>
</g>
<!-- r2&#45;&gt;r1 -->
<g id="edge15" class="edge">
<title>r2:s&#45;&gt;r1:ne</title>
<path fill="none" stroke="#000000" d="M1485,-945C1485,-870.6631 1322,-981.8369 1322,-907.5 1322,-907.5 1322,-907.5 1322,-248.5 1322,-99.0923 1099.4206,-302.5391 988.4673,-210.7991"/>
<polygon fill="#000000" stroke="#000000" points="990.7505,-208.1446 981,-204 986.0378,-213.3205 990.7505,-208.1446"/>
<text text-anchor="middle" x="961.5" y="-207.8" font-family="Times,serif" font-size="14.00" fill="#000000">array</text>
<text text-anchor="middle" x="1509.5" y="-933.8" font-family="Times,serif" font-size="14.00" fill="#000000">/chunk</text>
</g>
<!-- r9 -->
<g id="node11" class="node">
<title>r9</title>
<g id="a_node11"><a xlink:href="file:///home/travis/build/andrewdavidmackenzie/flow/flowstdlib/control/compare_switch/compare_switch.html" xlink:title="compare (#9)">
<ellipse fill="#ff7f50" stroke="#000000" cx="323" cy="-963" rx="74.9875" ry="18"/>
<text text-anchor="middle" x="323" y="-959.3" font-family="Times,serif" font-size="14.00" fill="#000000">compare (#9)</text>
</a>
</g>
</g>
<!-- r5&#45;&gt;r9 -->
<g id="edge16" class="edge">
<title>r5:e&#45;&gt;r9:n</title>
<path fill="none" stroke="#000000" d="M767,-1123C775,-1123 771.8366,-1111.3724 767,-1105 759.9085,-1095.6566 393.2553,-1010.1288 331.719,-985.9864"/>
<polygon fill="#000000" stroke="#000000" points="333.4183,-982.9263 323,-981 329.9431,-989.0028 333.4183,-982.9263"/>
<text text-anchor="middle" x="310.5" y="-984.8" font-family="Times,serif" font-size="14.00" fill="#000000">left</text>
</g>
<!-- r12&#45;&gt;r12 -->
<g id="edge33" class="edge">
<title>r12:e&#45;&gt;r12:n</title>
<path fill="none" stroke="#000000" d="M1032,-831C1055.9418,-822 1103.9418,-822 1103.9418,-840 1103.9418,-856.9453 1006.4891,-857.9382 949.1977,-850.4875"/>
<polygon fill="#000000" stroke="#000000" points="949.4005,-846.9802 939,-849 948.3901,-853.9068 949.4005,-846.9802"/>
</g>
<!-- r11 -->
<g id="node18" class="node">
<title>r11</title>
<g id="a_node18"><a xlink:href="file:///home/travis/build/andrewdavidmackenzie/flow/flowstdlib/control/compare_switch/compare_switch.html" xlink:title="compare (#11)">
<ellipse fill="#ff7f50" stroke="#000000" cx="694" cy="-574" rx="80.6858" ry="18"/>
<text text-anchor="middle" x="694" y="-570.3" font-family="Times,serif" font-size="14.00" fill="#000000">compare (#11)</text>
</a>
</g>
</g>
<!-- r12&#45;&gt;r11 -->
<g id="edge34" class="edge">
<title>r12:e&#45;&gt;r11:n</title>
<path fill="none" stroke="#000000" d="M1032,-831C1040,-831 1036.5863,-819.5548 1032,-813 998.9115,-765.7098 910,-826.2166 910,-768.5 910,-768.5 910,-768.5 910,-650.5 910,-554.7323 709.7338,-681.3673 694.8703,-602.106"/>
<polygon fill="#000000" stroke="#000000" points="698.3452,-601.6628 694,-592 691.371,-602.2635 698.3452,-601.6628"/>
<text text-anchor="middle" x="681.5" y="-595.8" font-family="Times,serif" font-size="14.00" fill="#000000">left</text>
</g>
<!-- initializerr4_1 -->
<!-- initializerr4_1&#45;&gt;r4 -->
<g id="edge5" class="edge">
<title>initializerr4_1&#45;&gt;r4:ne</title>
<path fill="none" stroke="#0000ff" stroke-dasharray="1,5" d="M1496.0147,-1250.726C1504.5932,-1225.2071 1515.6539,-1178.6884 1495.5307,-1148.9205"/>
<polygon fill="#0000ff" stroke="#0000ff" points="1498.0621,-1146.4889 1489,-1141 1492.6613,-1150.9421 1498.0621,-1146.4889"/>
<text text-anchor="middle" x="1511" y="-1192.3" font-family="Times,serif" font-size="14.00" fill="#000000">1</text>
</g>
<!-- r3&#45;&gt;r4 -->
<g id="edge11" class="edge">
<title>r3:se&#45;&gt;r4:ne</title>
<path fill="none" stroke="#000000" d="M1736,-946C1736,-946 1770.3454,-981 1770.3454,-981 1748.949,-1005.2303 1652.8565,-981.0098 1626,-999 1565.7707,-1039.3456 1608.3579,-1104.4657 1545.7434,-1141 1537.2346,-1145.9647 1512.8295,-1148.6142 1498.3078,-1145.2841"/>
<polygon fill="#000000" stroke="#000000" points="1499.5474,-1142.0018 1489,-1141 1496.6206,-1148.3605 1499.5474,-1142.0018"/>
<text text-anchor="middle" x="1507" y="-1144.8" font-family="Times,serif" font-size="14.00" fill="#000000">right</text>
<text text-anchor="middle" x="1753.5" y="-934.8" font-family="Times,serif" font-size="14.00" fill="#000000">/sum</text>
</g>
<!-- r3&#45;&gt;r3 -->
<g id="edge10" class="edge">
<title>r3:se&#45;&gt;r3:ne</title>
<path fill="none" stroke="#000000" d="M1736,-946C1777.1151,-937 1842.3454,-937 1842.3454,-963 1842.3454,-986.9688 1786.9092,-988.8413 1746.0353,-981.9365"/>
<polygon fill="#000000" stroke="#000000" points="1746.482,-978.4582 1736,-980 1745.1557,-985.3314 1746.482,-978.4582"/>
<text text-anchor="middle" x="1729" y="-983.8" font-family="Times,serif" font-size="14.00" fill="#000000">i2</text>
<text text-anchor="middle" x="1726.5" y="-934.8" font-family="Times,serif" font-size="14.00" fill="#000000">/i2</text>
</g>
<!-- initializerr3_1 -->
<!-- initializerr3_1&#45;&gt;r3 -->
<g id="edge9" class="edge">
<title>initializerr3_1&#45;&gt;r3:w</title>
<path fill="none" stroke="#0000ff" stroke-dasharray="1,5" d="M1699.2694,-1104.957C1672.6288,-1065.8916 1616.6758,-976.0393 1656.9095,-964.2781"/>
<polygon fill="#0000ff" stroke="#0000ff" points="1657.5191,-967.7289 1667,-963 1656.6394,-960.7844 1657.5191,-967.7289"/>
<text text-anchor="middle" x="1679" y="-1046.3" font-family="Times,serif" font-size="14.00" fill="#000000">1</text>
</g>
<!-- initializerr2_1 -->
<!-- initializerr2_1&#45;&gt;r2 -->
<g id="edge12" class="edge">
<title>initializerr2_1&#45;&gt;r2:n</title>
<path fill="none" stroke="#0000ff" stroke-dasharray="1,5" d="M1353.459,-1036.1524C1398.0482,-1023.0678 1459.5009,-1003.3541 1478.8871,-988.9651"/>
<polygon fill="#0000ff" stroke="#0000ff" points="1481.6882,-991.064 1485,-981 1476.1351,-986.8021 1481.6882,-991.064"/>
<text text-anchor="middle" x="1463.5" y="-1002.8" font-family="Times,serif" font-size="14.00" fill="#000000">[]</text>
</g>
<!-- r1&#45;&gt;r1 -->
<g id="edge39" class="edge">
<title>r1:e&#45;&gt;r1:ne</title>
<path fill="none" stroke="#000000" d="M1032,-186C1055.8939,-177 1103.8939,-177 1103.8939,-195 1103.8939,-211.7695 1037.9908,-212.9159 991.004,-205.7167"/>
<polygon fill="#000000" stroke="#000000" points="991.4479,-202.2418 981,-204 990.264,-209.1409 991.4479,-202.2418"/>
<text text-anchor="middle" x="1000.5" y="-207.8" font-family="Times,serif" font-size="14.00" fill="#000000">array</text>
</g>
<!-- r14 -->
<g id="node23" class="node">
<title>r14</title>
<g id="a_node23"><a xlink:href="file:///home/travis/build/andrewdavidmackenzie/flow/flowr/src/lib/flowruntime/stdio/stdout.html" xlink:title="print (#14)">
<ellipse fill="#ff7f50" stroke="#000000" cx="1145" cy="-107" rx="63.0888" ry="18"/>
<text text-anchor="middle" x="1145" y="-103.3" font-family="Times,serif" font-size="14.00" fill="#000000">print (#14)</text>
</a>
</g>
</g>
<!-- r1&#45;&gt;r14 -->
<g id="edge40" class="edge">
<title>r1:e&#45;&gt;r14:n</title>
<path fill="none" stroke="#000000" d="M1032,-186C1085.5056,-186 1138.0046,-182.5482 1144.358,-135.0903"/>
<polygon fill="#000000" stroke="#000000" points="1147.8579,-135.2021 1145,-125 1140.872,-134.7575 1147.8579,-135.2021"/>
</g>
<!-- r9&#45;&gt;r9 -->
<g id="edge20" class="edge">
<title>r9:s&#45;&gt;r9:n</title>
<path fill="none" stroke="#000000" d="M323,-945C371.9145,-936 469.7434,-936 469.7434,-963 469.7434,-988.2598 384.1188,-989.8878 333.0284,-982.6233"/>
<polygon fill="#000000" stroke="#000000" points="333.4308,-979.1429 323,-981 332.3122,-986.053 333.4308,-979.1429"/>
<text text-anchor="middle" x="335.5" y="-984.8" font-family="Times,serif" font-size="14.00" fill="#000000">left</text>
<text text-anchor="middle" x="298.5" y="-933.8" font-family="Times,serif" font-size="14.00" fill="#000000">/left&#45;gt</text>
</g>
<!-- r13 -->
<g id="node13" class="node">
<title>r13</title>
<g id="a_node13"><a xlink:href="file:///home/travis/build/andrewdavidmackenzie/flow/flowstdlib/math/multiply/multiply.html" xlink:title="multiply (#13)">
<ellipse fill="#ff7f50" stroke="#000000" cx="500" cy="-706" rx="78.7863" ry="18"/>
<text text-anchor="middle" x="500" y="-702.3" font-family="Times,serif" font-size="14.00" fill="#000000">multiply (#13)</text>
</a>
</g>
</g>
<!-- r9&#45;&gt;r13 -->
<g id="edge18" class="edge">
<title>r9:e&#45;&gt;r13:n</title>
<path fill="none" stroke="#000000" d="M398,-963C444.2398,-963 486,-953.7398 486,-907.5 486,-907.5 486,-907.5 486,-768.5 486,-756.5144 487.1721,-753.3579 491,-742 492.339,-738.0269 494.4002,-735.7888 496.2124,-733.6109"/>
<polygon fill="#000000" stroke="#000000" points="499.5897,-734.5869 500,-724 493.0772,-732.0203 499.5897,-734.5869"/>
<text text-anchor="middle" x="493" y="-727.8" font-family="Times,serif" font-size="14.00" fill="#000000">i1</text>
<text text-anchor="middle" x="430" y="-966.8" font-family="Times,serif" font-size="14.00" fill="#000000">/right&#45;lte</text>
</g>
<!-- r10 -->
<g id="node14" class="node">
<title>r10</title>
<g id="a_node14"><a xlink:href="file:///home/travis/build/andrewdavidmackenzie/flow/flowstdlib/math/add/add.html" xlink:title="add (#10)">
<ellipse fill="#ff7f50" stroke="#000000" cx="274" cy="-706" rx="57.3905" ry="18"/>
<text text-anchor="middle" x="274" y="-702.3" font-family="Times,serif" font-size="14.00" fill="#000000">add (#10)</text>
</a>
</g>
</g>
<!-- r9&#45;&gt;r10 -->
<g id="edge19" class="edge">
<title>r9:e&#45;&gt;r10:ne</title>
<path fill="none" stroke="#000000" d="M398,-963C406,-963 398.1066,-952.9993 398,-945 397.7778,-928.3289 397,-924.1726 397,-907.5 397,-907.5 397,-907.5 397,-768.5 397,-720.8369 336.7154,-753.804 299.1078,-729.5456"/>
<polygon fill="#000000" stroke="#000000" points="300.9794,-726.5584 291,-723 296.5822,-732.005 300.9794,-726.5584"/>
<text text-anchor="middle" x="284" y="-726.8" font-family="Times,serif" font-size="14.00" fill="#000000">i2</text>
<text text-anchor="middle" x="430" y="-951.8" font-family="Times,serif" font-size="14.00" fill="#000000">/right&#45;lte</text>
</g>
<!-- r8 -->
<g id="node15" class="node">
<title>r8</title>
<g id="a_node15"><a xlink:href="file:///home/travis/build/andrewdavidmackenzie/flow/flowstdlib/math/add/add.html" xlink:title="add (#8)">
<ellipse fill="#ff7f50" stroke="#000000" cx="75" cy="-706" rx="51.1914" ry="18"/>
<text text-anchor="middle" x="75" y="-702.3" font-family="Times,serif" font-size="14.00" fill="#000000">add (#8)</text>
</a>
</g>
</g>
<!-- r9&#45;&gt;r8 -->
<g id="edge21" class="edge">
<title>r9:e&#45;&gt;r8:n</title>
<path fill="none" stroke="#000000" d="M398,-963C406,-963 401.7323,-952.076 398,-945 388.6883,-927.3461 124.291,-774.1962 80.976,-732.3699"/>
<polygon fill="#000000" stroke="#000000" points="83.6593,-730.1048 75,-724 77.9623,-734.1723 83.6593,-730.1048"/>
<text text-anchor="middle" x="68" y="-727.8" font-family="Times,serif" font-size="14.00" fill="#000000">i1</text>
<text text-anchor="middle" x="370.5" y="-966.8" font-family="Times,serif" font-size="14.00" fill="#000000">/right&#45;lt</text>
</g>
<!-- initializerr9_1 -->
<!-- initializerr9_1&#45;&gt;r9 -->
<g id="edge17" class="edge">
<title>initializerr9_1&#45;&gt;r9:ne</title>
<path fill="none" stroke="#0000ff" stroke-dasharray="1,5" d="M341,-1250.6997C341,-1235.9349 341,-1214.6302 341,-1196 341,-1196 341,-1196 341,-1050 341,-1037.6615 348.0206,-1007.5219 345.1137,-990.5699"/>
<polygon fill="#0000ff" stroke="#0000ff" points="348.1647,-988.805 341,-981 341.7337,-991.5694 348.1647,-988.805"/>
<text text-anchor="middle" x="346" y="-1119.3" font-family="Times,serif" font-size="14.00" fill="#000000">2</text>
</g>
<!-- r13&#45;&gt;r11 -->
<g id="edge26" class="edge">
<title>r13:e&#45;&gt;r11:ne</title>
<path fill="none" stroke="#000000" d="M579,-706C584.8458,-706 580.2739,-685.1712 583,-680 592.0912,-662.7547 599.4337,-661.7363 615,-650 651.8177,-622.2411 732.7089,-626.501 718.2577,-599.912"/>
<polygon fill="#000000" stroke="#000000" points="720.9486,-597.6721 712,-592 715.4583,-602.0146 720.9486,-597.6721"/>
<text text-anchor="middle" x="730" y="-595.8" font-family="Times,serif" font-size="14.00" fill="#000000">right</text>
</g>
<!-- r10&#45;&gt;r10 -->
<g id="edge31" class="edge">
<title>r10:se&#45;&gt;r10:ne</title>
<path fill="none" stroke="#000000" d="M291,-689C334.065,-680 403.1949,-680 403.1949,-706 403.1949,-730.0703 343.9457,-731.8568 300.9805,-724.8482"/>
<polygon fill="#000000" stroke="#000000" points="301.4702,-721.3795 291,-723 300.1955,-728.2625 301.4702,-721.3795"/>
<text text-anchor="middle" x="298" y="-726.8" font-family="Times,serif" font-size="14.00" fill="#000000">i2</text>
<text text-anchor="middle" x="281.5" y="-677.8" font-family="Times,serif" font-size="14.00" fill="#000000">/i2</text>
</g>
<!-- r10&#45;&gt;r11 -->
<g id="edge32" class="edge">
<title>r10:se&#45;&gt;r11:ne</title>
<path fill="none" stroke="#000000" d="M291,-689C321.6287,-658.3713 667.4082,-631.6757 709.7125,-601.8152"/>
<polygon fill="#000000" stroke="#000000" points="713.1388,-602.5334 712,-592 706.3215,-600.9446 713.1388,-602.5334"/>
<text text-anchor="middle" x="694" y="-595.8" font-family="Times,serif" font-size="14.00" fill="#000000">right</text>
<text text-anchor="middle" x="308.5" y="-677.8" font-family="Times,serif" font-size="14.00" fill="#000000">/sum</text>
</g>
<!-- r8&#45;&gt;r9 -->
<g id="edge24" class="edge">
<title>r8:se&#45;&gt;r9:ne</title>
<path fill="none" stroke="#000000" d="M92,-689C102.7937,-678.2063 111.7323,-684.588 126.3454,-689 130.1656,-690.1534 246,-764.5095 246,-768.5 246,-907.5 246,-907.5 246,-907.5 246,-942.2352 376.3299,-917.6505 397.7434,-945 397.7434,-945 365.8252,-965.25 349.8662,-975.375"/>
<polygon fill="#000000" stroke="#000000" points="347.569,-972.6874 341,-981 351.319,-978.5982 347.569,-972.6874"/>
<text text-anchor="middle" x="359" y="-984.8" font-family="Times,serif" font-size="14.00" fill="#000000">right</text>
<text text-anchor="middle" x="74.5" y="-677.8" font-family="Times,serif" font-size="14.00" fill="#000000">/sum</text>
</g>
<!-- r8&#45;&gt;r8 -->
<g id="edge23" class="edge">
<title>r8:se&#45;&gt;r8:ne</title>
<path fill="none" stroke="#000000" d="M92,-689C133.1151,-680 198.3454,-680 198.3454,-706 198.3454,-729.9688 142.9092,-731.8413 102.0353,-724.9365"/>
<polygon fill="#000000" stroke="#000000" points="102.482,-721.4582 92,-723 101.1557,-728.3314 102.482,-721.4582"/>
<text text-anchor="middle" x="85" y="-726.8" font-family="Times,serif" font-size="14.00" fill="#000000">i2</text>
<text text-anchor="middle" x="101.5" y="-677.8" font-family="Times,serif" font-size="14.00" fill="#000000">/i2</text>
</g>
<!-- initializerr8_1 -->
<!-- initializerr8_1&#45;&gt;r8 -->
<g id="edge22" class="edge">
<title>initializerr8_1&#45;&gt;r8:w</title>
<path fill="none" stroke="#0000ff" stroke-dasharray="1,5" d="M99,-944.506C98.5,-933.7163 98,-919.8413 98,-907.5 98,-907.5 98,-907.5 98,-768.5 98,-729.7409 42.1794,-757.6812 23,-724 21.5155,-721.393 20.0194,-718.2101 19.151,-715.2497"/>
<polygon fill="#0000ff" stroke="#0000ff" points="22.3894,-716.5772 23,-706 15.9266,-713.8879 22.3894,-716.5772"/>
<text text-anchor="middle" x="103" y="-827.3" font-family="Times,serif" font-size="14.00" fill="#000000">1</text>
</g>
<!-- initializerr13_1 -->
<!-- initializerr13_1&#45;&gt;r13 -->
<g id="edge25" class="edge">
<title>initializerr13_1&#45;&gt;r13:w</title>
<path fill="none" stroke="#0000ff" d="M656.3487,-814.04C621.6201,-794.1504 560.8023,-761.4349 505,-742 468.9434,-729.4421 445.0034,-753.692 421,-724 419.0354,-721.5698 417.3849,-718.2916 416.5798,-715.1987"/>
<polygon fill="#0000ff" stroke="#0000ff" points="419.8235,-716.5293 421,-706 413.5141,-713.4975 419.8235,-716.5293"/>
<text text-anchor="middle" x="589" y="-764.8" font-family="Times,serif" font-size="14.00" fill="#000000">2</text>
</g>
<!-- r11&#45;&gt;r1 -->
<g id="edge27" class="edge">
<title>r11:e&#45;&gt;r1:n</title>
<path fill="none" stroke="#000000" d="M775,-574C823.5163,-574 869,-567.0163 869,-518.5 869,-518.5 869,-518.5 869,-248.5 869,-206.2495 947.538,-242.6776 961.0367,-213.95"/>
<polygon fill="#000000" stroke="#000000" points="964.4978,-214.4884 963,-204 957.6303,-213.1333 964.4978,-214.4884"/>
<text text-anchor="middle" x="943.5" y="-207.8" font-family="Times,serif" font-size="14.00" fill="#000000">value</text>
<text text-anchor="middle" x="807" y="-577.8" font-family="Times,serif" font-size="14.00" fill="#000000">/right&#45;lte</text>
</g>
<!-- r11&#45;&gt;r10 -->
<g id="edge29" class="edge">
<title>r11:e&#45;&gt;r10:n</title>
<path fill="none" stroke="#000000" d="M775,-574C783,-574 779.4618,-585.3598 775,-592 748.7626,-631.0479 722.2734,-619.2152 677,-632 661.1788,-636.4678 399.9828,-673.2334 385,-680 356.8467,-692.7147 360.2894,-713.6184 331.1949,-724 322.4039,-727.1368 295.6791,-732.521 282.1018,-730.1262"/>
<polygon fill="#000000" stroke="#000000" points="284.0874,-727.2397 274,-724 279.8654,-732.8231 284.0874,-727.2397"/>
<text text-anchor="middle" x="267" y="-727.8" font-family="Times,serif" font-size="14.00" fill="#000000">i1</text>
<text text-anchor="middle" x="802.5" y="-562.8" font-family="Times,serif" font-size="14.00" fill="#000000">/right&#45;lt</text>
</g>
<!-- r11&#45;&gt;r11 -->
<g id="edge28" class="edge">
<title>r11:s&#45;&gt;r11:n</title>
<path fill="none" stroke="#000000" d="M694,-556C744.8643,-547 846.5928,-547 846.5928,-574 846.5928,-599.3125 757.183,-600.8945 704.0959,-593.5776"/>
<polygon fill="#000000" stroke="#000000" points="704.4205,-590.086 694,-592 703.3397,-597.002 704.4205,-590.086"/>
<text text-anchor="middle" x="681.5" y="-580.8" font-family="Times,serif" font-size="14.00" fill="#000000">left</text>
<text text-anchor="middle" x="669.5" y="-544.8" font-family="Times,serif" font-size="14.00" fill="#000000">/left&#45;gt</text>
</g>
<!-- r6 -->
<g id="node19" class="node">
<title>r6</title>
<g id="a_node19"><a xlink:href="file:///home/travis/build/andrewdavidmackenzie/flow/flowstdlib/control/join/join.html" xlink:title="join (#6)">
<ellipse fill="#ff7f50" stroke="#000000" cx="662" cy="-186" rx="51.1914" ry="18"/>
<text text-anchor="middle" x="662" y="-182.3" font-family="Times,serif" font-size="14.00" fill="#000000">join (#6)</text>
</a>
</g>
</g>
<!-- r11&#45;&gt;r6 -->
<g id="edge30" class="edge">
<title>r11:sw&#45;&gt;r6:ne</title>
<path fill="none" stroke="#000000" d="M676,-556C664.1981,-544.1981 678,-535.1904 678,-518.5 678,-518.5 678,-518.5 678,-248.5 678,-232.3815 687.7174,-222.1413 684.4276,-211.4087"/>
<polygon fill="#000000" stroke="#000000" points="687.3638,-209.5037 679,-203 681.4825,-213.2999 687.3638,-209.5037"/>
<text text-anchor="middle" x="705" y="-206.8" font-family="Times,serif" font-size="14.00" fill="#000000">control</text>
<text text-anchor="middle" x="710" y="-544.8" font-family="Times,serif" font-size="14.00" fill="#000000">/right&#45;gte</text>
</g>
<!-- r7 -->
<g id="node21" class="node">
<title>r7</title>
<g id="a_node21"><a xlink:href="file:///home/travis/build/andrewdavidmackenzie/flow/flowstdlib/math/add/add.html" xlink:title="subsequence&#45;count (#7)">
<ellipse fill="#ff7f50" stroke="#000000" cx="570" cy="-34" rx="124.2781" ry="18"/>
<text text-anchor="middle" x="570" y="-30.3" font-family="Times,serif" font-size="14.00" fill="#000000">subsequence&#45;count (#7)</text>
</a>
</g>
</g>
<!-- r6&#45;&gt;r7 -->
<g id="edge36" class="edge">
<title>r6:e&#45;&gt;r7:ne</title>
<path fill="none" stroke="#000000" d="M714,-186C722,-186 717.2134,-175.3262 714,-168 684.8582,-101.56 645.6996,-105.2873 595.4885,-59.1788"/>
<polygon fill="#000000" stroke="#000000" points="597.6409,-56.3937 588,-52 592.7967,-61.4468 597.6409,-56.3937"/>
<text text-anchor="middle" x="581" y="-55.8" font-family="Times,serif" font-size="14.00" fill="#000000">i2</text>
</g>
<!-- initializerr6_0 -->
<!-- initializerr6_0&#45;&gt;r6 -->
<g id="edge35" class="edge">
<title>initializerr6_0&#45;&gt;r6:nw</title>
<path fill="none" stroke="#0000ff" d="M535.2827,-293.8908C561.3141,-275.0441 603.5242,-243.0126 637.8122,-210.0448"/>
<polygon fill="#0000ff" stroke="#0000ff" points="640.3081,-212.4993 645,-203 635.4083,-207.5001 640.3081,-212.4993"/>
<text text-anchor="middle" x="608" y="-244.8" font-family="Times,serif" font-size="14.00" fill="#000000">1</text>
</g>
<!-- r7&#45;&gt;r7 -->
<g id="edge38" class="edge">
<title>r7:se&#45;&gt;r7:n</title>
<path fill="none" stroke="#000000" d="M588,-16C653.3797,-7 766.139,-7 766.139,-34 766.139,-59.6816 647.8374,-60.9356 580.0219,-53.2519"/>
<polygon fill="#000000" stroke="#000000" points="580.3567,-49.7666 570,-52 579.489,-56.7126 580.3567,-49.7666"/>
<text text-anchor="middle" x="563" y="-55.8" font-family="Times,serif" font-size="14.00" fill="#000000">i1</text>
<text text-anchor="middle" x="570.5" y="-4.8" font-family="Times,serif" font-size="14.00" fill="#000000">/sum</text>
</g>
<!-- initializerr7_0 -->
<!-- initializerr7_0&#45;&gt;r7 -->
<g id="edge37" class="edge">
<title>initializerr7_0&#45;&gt;r7:ne</title>
<path fill="none" stroke="#0000ff" stroke-dasharray="1,5" d="M486.9087,-168.8694C523.8217,-141.595 590.5784,-88.6243 591.5805,-61.5711"/>
<polygon fill="#0000ff" stroke="#0000ff" points="594.782,-60.1397 588,-52 588.2257,-62.5924 594.782,-60.1397"/>
<text text-anchor="middle" x="582" y="-103.3" font-family="Times,serif" font-size="14.00" fill="#000000">1</text>
</g>
</g>
</svg>
