<?xml version="1.0" encoding="UTF-8" standalone="no"?>
<!DOCTYPE svg PUBLIC "-//W3C//DTD SVG 1.1//EN"
 "http://www.w3.org/Graphics/SVG/1.1/DTD/svg11.dtd">
<!-- Generated by graphviz version 2.40.1 (20161225.0304)
 -->
<!-- Title: prime Pages: 1 -->
<svg width="1861pt" height="1388pt"
 viewBox="0.00 0.00 1861.19 1388.00" xmlns="http://www.w3.org/2000/svg" xmlns:xlink="http://www.w3.org/1999/xlink">
<g id="graph0" class="graph" transform="scale(1 1) rotate(0) translate(4 1384)">
<title>prime</title>
<polygon fill="#ffffff" stroke="transparent" points="-4,4 -4,-1384 1857.1949,-1384 1857.1949,4 -4,4"/>
<text text-anchor="middle" x="926.5975" y="-1364.8" font-family="Times,serif" font-size="14.00" fill="#000000">/prime</text>
<g id="clust1" class="cluster">
<title>cluster_candidates</title>
<polygon fill="none" stroke="#000000" points="1376,-937 1376,-1318 1807,-1318 1807,-937 1376,-937"/>
<text text-anchor="middle" x="1591.5" y="-1302.8" font-family="Times,serif" font-size="14.00" fill="#000000">/prime/candidates</text>
</g>
<g id="clust2" class="cluster">
<title>cluster_composites</title>
<polygon fill="none" stroke="#000000" points="8,-8 8,-1349 1062,-1349 1062,-8 8,-8"/>
<text text-anchor="middle" x="535" y="-1333.8" font-family="Times,serif" font-size="14.00" fill="#000000">/prime/composites</text>
</g>
<g id="clust3" class="cluster">
<title>cluster_divisors</title>
<polygon fill="none" stroke="#000000" points="16,-680 16,-1318 575,-1318 575,-680 16,-680"/>
<text text-anchor="middle" x="295.5" y="-1302.8" font-family="Times,serif" font-size="14.00" fill="#000000">/prime/composites/divisors</text>
</g>
<g id="clust4" class="cluster">
<title>cluster_generate_composites</title>
<polygon fill="none" stroke="#000000" points="583,-152 583,-880 1054,-880 1054,-152 583,-152"/>
<text text-anchor="middle" x="818.5" y="-864.8" font-family="Times,serif" font-size="14.00" fill="#000000">/prime/composites/generate_composites</text>
</g>
<g id="clust5" class="cluster">
<title>cluster_composite_sequence</title>
<polygon fill="none" stroke="#000000" points="591,-160 591,-623 1046,-623 1046,-160 591,-160"/>
<text text-anchor="middle" x="818.5" y="-607.8" font-family="Times,serif" font-size="14.00" fill="#000000">/prime/composites/generate_composites/composite&#45;sequence</text>
</g>
<!-- r0 -->
<g id="node1" class="node">
<title>r0</title>
<g id="a_node1"><a xlink:href="file:///home/travis/build/andrewdavidmackenzie/flow/flowr/src/lib/flowruntime/args/get.html" xlink:title="args (#0)">
<ellipse fill="#ff7f50" stroke="#000000" cx="1125" cy="-1196" rx="54.6905" ry="18"/>
<text text-anchor="middle" x="1125" y="-1192.3" font-family="Times,serif" font-size="14.00" fill="#000000">args (#0)</text>
</a>
</g>
</g>
<!-- r12 -->
<g id="node2" class="node">
<title>r12</title>
<g id="a_node2"><a xlink:href="file:///home/travis/build/andrewdavidmackenzie/flow/flowstdlib/control/compare_switch/compare_switch.html" xlink:title="compare (#12)">
<ellipse fill="#ff7f50" stroke="#000000" cx="1465" cy="-1123" rx="80.6858" ry="18"/>
<text text-anchor="middle" x="1465" y="-1119.3" font-family="Times,serif" font-size="14.00" fill="#000000">compare (#12)</text>
</a>
</g>
</g>
<!-- r0&#45;&gt;r12 -->
<g id="edge1" class="edge">
<title>r0:e&#45;&gt;r12:n</title>
<path fill="none" stroke="#000000" d="M1180,-1196C1209.3534,-1196 1421.364,-1177.155 1459.2227,-1149.4529"/>
<polygon fill="#000000" stroke="#000000" points="1462.2469,-1151.2309 1465,-1141 1456.4677,-1147.281 1462.2469,-1151.2309"/>
<text text-anchor="middle" x="1452.5" y="-1144.8" font-family="Times,serif" font-size="14.00" fill="#000000">left</text>
<text text-anchor="middle" x="1204" y="-1199.8" font-family="Times,serif" font-size="14.00" fill="#000000">/json/1</text>
</g>
<!-- r1 -->
<g id="node3" class="node">
<title>r1</title>
<g id="a_node3"><a xlink:href="file:///home/travis/build/andrewdavidmackenzie/flow/flowstdlib/data/accumulate/accumulate.html" xlink:title="all&#45;numbers (#1)">
<ellipse fill="#ff7f50" stroke="#000000" cx="1473" cy="-963" rx="89.0842" ry="18"/>
<text text-anchor="middle" x="1473" y="-959.3" font-family="Times,serif" font-size="14.00" fill="#000000">all&#45;numbers (#1)</text>
</a>
</g>
</g>
<!-- r0&#45;&gt;r1 -->
<g id="edge2" class="edge">
<title>r0:e&#45;&gt;r1:nw</title>
<path fill="none" stroke="#000000" d="M1180,-1196C1252.8889,-1196 1133.3951,-1088.0426 1180,-1032 1198.3179,-1009.9726 1397.8968,-1003.8908 1446.1853,-985.8588"/>
<polygon fill="#000000" stroke="#000000" points="1447.9319,-988.8926 1455,-981 1444.5527,-982.7623 1447.9319,-988.8926"/>
<text text-anchor="middle" x="1415" y="-984.8" font-family="Times,serif" font-size="14.00" fill="#000000">chunk_size</text>
<text text-anchor="middle" x="1204" y="-1184.8" font-family="Times,serif" font-size="14.00" fill="#000000">/json/1</text>
</g>
<!-- r2 -->
<g id="node4" class="node">
<title>r2</title>
<g id="a_node4"><a xlink:href="file:///home/travis/build/andrewdavidmackenzie/flow/flowstdlib/math/sqrt/sqrt.html" xlink:title="sqrt (#2)">
<ellipse fill="#ff7f50" stroke="#000000" cx="727" cy="-1123" rx="53.0913" ry="18"/>
<text text-anchor="middle" x="727" y="-1119.3" font-family="Times,serif" font-size="14.00" fill="#000000">sqrt (#2)</text>
</a>
</g>
</g>
<!-- r0&#45;&gt;r2 -->
<g id="edge3" class="edge">
<title>r0:e&#45;&gt;r2:n</title>
<path fill="none" stroke="#000000" d="M1180,-1196C1188,-1196 1185.4813,-1183.8271 1180,-1178 1157.5762,-1154.1613 918.5953,-1162.9429 886,-1160 818.8568,-1153.938 736.2459,-1206.1729 727.7197,-1151.2054"/>
<polygon fill="#000000" stroke="#000000" points="731.1949,-1150.729 727,-1141 724.2122,-1151.2215 731.1949,-1150.729"/>
<text text-anchor="middle" x="1156" y="-1199.8" font-family="Times,serif" font-size="14.00" fill="#000000">/json/1</text>
</g>
<!-- r5 -->
<g id="node5" class="node">
<title>r5</title>
<g id="a_node5"><a xlink:href="file:///home/travis/build/andrewdavidmackenzie/flow/flowstdlib/data/buffer/buffer.html" xlink:title="limit&#45;buffer (#5)">
<ellipse fill="#ff7f50" stroke="#000000" cx="921" cy="-831" rx="87.1846" ry="18"/>
<text text-anchor="middle" x="921" y="-827.3" font-family="Times,serif" font-size="14.00" fill="#000000">limit&#45;buffer (#5)</text>
</a>
</g>
</g>
<!-- r0&#45;&gt;r5 -->
<g id="edge4" class="edge">
<title>r0:e&#45;&gt;r5:n</title>
<path fill="none" stroke="#000000" d="M1180,-1196C1188,-1196 1184.9823,-1184.2591 1180,-1178 1112.1167,-1092.7207 941,-1231.9986 941,-1123 941,-1123 941,-1123 941,-907.5 941,-883.7792 926.0949,-877.8942 922.0193,-859.0503"/>
<polygon fill="#000000" stroke="#000000" points="925.4912,-858.5958 921,-849 918.527,-859.3022 925.4912,-858.5958"/>
<text text-anchor="middle" x="1156" y="-1184.8" font-family="Times,serif" font-size="14.00" fill="#000000">/json/1</text>
</g>
<!-- r12&#45;&gt;r12 -->
<g id="edge7" class="edge">
<title>r12:s&#45;&gt;r12:n</title>
<path fill="none" stroke="#000000" d="M1465,-1105C1515.8643,-1096 1617.5928,-1096 1617.5928,-1123 1617.5928,-1148.3125 1528.183,-1149.8945 1475.0959,-1142.5776"/>
<polygon fill="#000000" stroke="#000000" points="1475.4205,-1139.086 1465,-1141 1474.3397,-1146.002 1475.4205,-1139.086"/>
<text text-anchor="middle" x="1477.5" y="-1144.8" font-family="Times,serif" font-size="14.00" fill="#000000">left</text>
<text text-anchor="middle" x="1440.5" y="-1093.8" font-family="Times,serif" font-size="14.00" fill="#000000">/left&#45;gt</text>
</g>
<!-- r12&#45;&gt;r1 -->
<g id="edge6" class="edge">
<title>r12:e&#45;&gt;r1:n</title>
<path fill="none" stroke="#000000" d="M1546,-1123C1554,-1123 1548.1033,-1112.7186 1546,-1105 1538.4141,-1077.1617 1485.08,-1024.6347 1474.7355,-991.1479"/>
<polygon fill="#000000" stroke="#000000" points="1478.1358,-990.2668 1473,-981 1471.2359,-991.4469 1478.1358,-990.2668"/>
<text text-anchor="middle" x="1496" y="-984.8" font-family="Times,serif" font-size="14.00" fill="#000000">values</text>
<text text-anchor="middle" x="1578" y="-1126.8" font-family="Times,serif" font-size="14.00" fill="#000000">/right&#45;lte</text>
</g>
<!-- r13 -->
<g id="node7" class="node">
<title>r13</title>
<g id="a_node7"><a xlink:href="file:///home/travis/build/andrewdavidmackenzie/flow/flowstdlib/math/add/add.html" xlink:title="add (#13)">
<ellipse fill="#ff7f50" stroke="#000000" cx="1724" cy="-963" rx="57.3905" ry="18"/>
<text text-anchor="middle" x="1724" y="-959.3" font-family="Times,serif" font-size="14.00" fill="#000000">add (#13)</text>
</a>
</g>
</g>
<!-- r12&#45;&gt;r13 -->
<g id="edge8" class="edge">
<title>r12:e&#45;&gt;r13:n</title>
<path fill="none" stroke="#000000" d="M1546,-1123C1547.1684,-1123 1704.224,-1068.8734 1705,-1068 1728.9251,-1041.0707 1725.0383,-1023.8775 1724.1468,-991.1653"/>
<polygon fill="#000000" stroke="#000000" points="1727.6442,-990.9484 1724,-981 1720.6449,-991.0495 1727.6442,-990.9484"/>
<text text-anchor="middle" x="1717" y="-984.8" font-family="Times,serif" font-size="14.00" fill="#000000">i1</text>
<text text-anchor="middle" x="1573.5" y="-1111.8" font-family="Times,serif" font-size="14.00" fill="#000000">/right&#45;lt</text>
</g>
<!-- r1&#45;&gt;r1 -->
<g id="edge13" class="edge">
<title>r1:s&#45;&gt;r1:nw</title>
<path fill="none" stroke="#000000" d="M1473,-945C1419.3193,-936 1311.9579,-936 1311.9579,-963 1311.9579,-988.3652 1390.8258,-989.901 1444.8848,-982.5318"/>
<polygon fill="#000000" stroke="#000000" points="1445.6368,-985.9579 1455,-981 1444.5887,-979.0368 1445.6368,-985.9579"/>
<text text-anchor="middle" x="1495" y="-984.8" font-family="Times,serif" font-size="14.00" fill="#000000">chunk_size</text>
<text text-anchor="middle" x="1430.5" y="-933.8" font-family="Times,serif" font-size="14.00" fill="#000000">/chunk_size</text>
</g>
<!-- r1&#45;&gt;r1 -->
<g id="edge14" class="edge">
<title>r1:e&#45;&gt;r1:ne</title>
<path fill="none" stroke="#000000" d="M1562,-963C1586.0421,-954 1634.0421,-954 1634.0421,-972 1634.0421,-988.9102 1555.1742,-989.934 1501.1152,-982.5338"/>
<polygon fill="#000000" stroke="#000000" points="1501.4117,-979.0388 1491,-981 1500.3622,-985.9597 1501.4117,-979.0388"/>
<text text-anchor="middle" x="1467" y="-969.8" font-family="Times,serif" font-size="14.00" fill="#000000">partial</text>
<text text-anchor="middle" x="1588" y="-966.8" font-family="Times,serif" font-size="14.00" fill="#000000">/partial</text>
</g>
<!-- r14 -->
<g id="node10" class="node">
<title>r14</title>
<g id="a_node10"><a xlink:href="file:///home/travis/build/andrewdavidmackenzie/flow/flowstdlib/data/remove/remove.html" xlink:title="remove (#14)">
<ellipse fill="#ff7f50" stroke="#000000" cx="945" cy="-186" rx="74.9875" ry="18"/>
<text text-anchor="middle" x="945" y="-182.3" font-family="Times,serif" font-size="14.00" fill="#000000">remove (#14)</text>
</a>
</g>
</g>
<!-- r1&#45;&gt;r14 -->
<g id="edge15" class="edge">
<title>r1:s&#45;&gt;r14:ne</title>
<path fill="none" stroke="#000000" d="M1473,-945C1473,-868.062 1304,-984.438 1304,-907.5 1304,-907.5 1304,-907.5 1304,-248.5 1304,-99.0923 1081.4206,-302.5391 970.4673,-210.7991"/>
<polygon fill="#000000" stroke="#000000" points="972.7505,-208.1446 963,-204 968.0378,-213.3205 972.7505,-208.1446"/>
<text text-anchor="middle" x="943.5" y="-207.8" font-family="Times,serif" font-size="14.00" fill="#000000">array</text>
<text text-anchor="middle" x="1497.5" y="-933.8" font-family="Times,serif" font-size="14.00" fill="#000000">/chunk</text>
</g>
<!-- r9 -->
<g id="node11" class="node">
<title>r9</title>
<g id="a_node11"><a xlink:href="file:///home/travis/build/andrewdavidmackenzie/flow/flowstdlib/control/compare_switch/compare_switch.html" xlink:title="compare (#9)">
<ellipse fill="#ff7f50" stroke="#000000" cx="335" cy="-963" rx="74.9875" ry="18"/>
<text text-anchor="middle" x="335" y="-959.3" font-family="Times,serif" font-size="14.00" fill="#000000">compare (#9)</text>
</a>
</g>
</g>
<!-- r2&#45;&gt;r9 -->
<g id="edge16" class="edge">
<title>r2:e&#45;&gt;r9:n</title>
<path fill="none" stroke="#000000" d="M781,-1123C789,-1123 785.8403,-1111.3696 781,-1105 773.8734,-1095.6217 405.5712,-1010.1679 343.7582,-985.997"/>
<polygon fill="#000000" stroke="#000000" points="345.4202,-982.9157 335,-981 341.9513,-988.9957 345.4202,-982.9157"/>
<text text-anchor="middle" x="322.5" y="-984.8" font-family="Times,serif" font-size="14.00" fill="#000000">left</text>
</g>
<!-- r5&#45;&gt;r5 -->
<g id="edge33" class="edge">
<title>r5:e&#45;&gt;r5:n</title>
<path fill="none" stroke="#000000" d="M1008,-831C1032.0923,-822 1080.0923,-822 1080.0923,-840 1080.0923,-856.9102 986.4853,-857.934 931.1804,-850.5338"/>
<polygon fill="#000000" stroke="#000000" points="931.4099,-847.0289 921,-849 930.3669,-853.9508 931.4099,-847.0289"/>
</g>
<!-- r4 -->
<g id="node18" class="node">
<title>r4</title>
<g id="a_node18"><a xlink:href="file:///home/travis/build/andrewdavidmackenzie/flow/flowstdlib/control/compare_switch/compare_switch.html" xlink:title="compare (#4)">
<ellipse fill="#ff7f50" stroke="#000000" cx="677" cy="-574" rx="74.9875" ry="18"/>
<text text-anchor="middle" x="677" y="-570.3" font-family="Times,serif" font-size="14.00" fill="#000000">compare (#4)</text>
</a>
</g>
</g>
<!-- r5&#45;&gt;r4 -->
<g id="edge34" class="edge">
<title>r5:e&#45;&gt;r4:n</title>
<path fill="none" stroke="#000000" d="M1008,-831C1016,-831 1013.2006,-819.079 1008,-813 966.4724,-764.4587 724,-832.3812 724,-768.5 724,-768.5 724,-768.5 724,-650.5 724,-621.0566 687.3702,-623.9998 678.7851,-602.147"/>
<polygon fill="#000000" stroke="#000000" points="682.1797,-601.2423 677,-592 675.2856,-602.4552 682.1797,-601.2423"/>
<text text-anchor="middle" x="664.5" y="-595.8" font-family="Times,serif" font-size="14.00" fill="#000000">left</text>
</g>
<!-- initializerr12_1 -->
<!-- initializerr12_1&#45;&gt;r12 -->
<g id="edge5" class="edge">
<title>initializerr12_1&#45;&gt;r12:ne</title>
<path fill="none" stroke="#0000ff" stroke-dasharray="1,5" d="M1490.0147,-1250.726C1498.5932,-1225.2071 1509.6539,-1178.6884 1489.5307,-1148.9205"/>
<polygon fill="#0000ff" stroke="#0000ff" points="1492.0621,-1146.4889 1483,-1141 1486.6613,-1150.9421 1492.0621,-1146.4889"/>
<text text-anchor="middle" x="1505" y="-1192.3" font-family="Times,serif" font-size="14.00" fill="#000000">1</text>
</g>
<!-- r13&#45;&gt;r12 -->
<g id="edge11" class="edge">
<title>r13:se&#45;&gt;r12:ne</title>
<path fill="none" stroke="#000000" d="M1741,-946C1741,-946 1781.1949,-981 1781.1949,-981 1758.2588,-1006.7694 1655.7953,-980.0011 1627,-999 1566.2792,-1039.0632 1608.5377,-1104.5306 1545.5928,-1141 1536.0022,-1146.5567 1508.1952,-1149.5031 1492.3173,-1145.4937"/>
<polygon fill="#000000" stroke="#000000" points="1493.5276,-1142.1917 1483,-1141 1490.4867,-1148.4967 1493.5276,-1142.1917"/>
<text text-anchor="middle" x="1501" y="-1144.8" font-family="Times,serif" font-size="14.00" fill="#000000">right</text>
<text text-anchor="middle" x="1723.5" y="-934.8" font-family="Times,serif" font-size="14.00" fill="#000000">/sum</text>
</g>
<!-- r13&#45;&gt;r13 -->
<g id="edge10" class="edge">
<title>r13:se&#45;&gt;r13:ne</title>
<path fill="none" stroke="#000000" d="M1741,-946C1784.065,-937 1853.1949,-937 1853.1949,-963 1853.1949,-987.0703 1793.9457,-988.8568 1750.9805,-981.8482"/>
<polygon fill="#000000" stroke="#000000" points="1751.4702,-978.3795 1741,-980 1750.1955,-985.2625 1751.4702,-978.3795"/>
<text text-anchor="middle" x="1734" y="-983.8" font-family="Times,serif" font-size="14.00" fill="#000000">i2</text>
<text text-anchor="middle" x="1750.5" y="-934.8" font-family="Times,serif" font-size="14.00" fill="#000000">/i2</text>
</g>
<!-- initializerr13_1 -->
<!-- initializerr13_1&#45;&gt;r13 -->
<g id="edge9" class="edge">
<title>initializerr13_1&#45;&gt;r13:w</title>
<path fill="none" stroke="#0000ff" stroke-dasharray="1,5" d="M1703.64,-1104.957C1675.6446,-1065.8916 1616.621,-976.0393 1656.8599,-964.2781"/>
<polygon fill="#0000ff" stroke="#0000ff" points="1657.5162,-967.7231 1667,-963 1656.6408,-960.7781 1657.5162,-967.7231"/>
<text text-anchor="middle" x="1682" y="-1046.3" font-family="Times,serif" font-size="14.00" fill="#000000">1</text>
</g>
<!-- initializerr1_1 -->
<!-- initializerr1_1&#45;&gt;r1 -->
<g id="edge12" class="edge">
<title>initializerr1_1&#45;&gt;r1:n</title>
<path fill="none" stroke="#0000ff" stroke-dasharray="1,5" d="M1341.459,-1036.1524C1386.0482,-1023.0678 1447.5009,-1003.3541 1466.8871,-988.9651"/>
<polygon fill="#0000ff" stroke="#0000ff" points="1469.6882,-991.064 1473,-981 1464.1351,-986.8021 1469.6882,-991.064"/>
<text text-anchor="middle" x="1451.5" y="-1002.8" font-family="Times,serif" font-size="14.00" fill="#000000">[]</text>
</g>
<!-- r14&#45;&gt;r14 -->
<g id="edge39" class="edge">
<title>r14:e&#45;&gt;r14:ne</title>
<path fill="none" stroke="#000000" d="M1020,-186C1043.7434,-177 1091.7434,-177 1091.7434,-195 1091.7434,-211.8047 1022.1647,-212.9206 973.1212,-205.6713"/>
<polygon fill="#000000" stroke="#000000" points="973.4366,-202.176 963,-204 972.2962,-209.0825 973.4366,-202.176"/>
<text text-anchor="middle" x="982.5" y="-207.8" font-family="Times,serif" font-size="14.00" fill="#000000">array</text>
</g>
<!-- r11 -->
<g id="node23" class="node">
<title>r11</title>
<g id="a_node23"><a xlink:href="file:///home/travis/build/andrewdavidmackenzie/flow/flowr/src/lib/flowruntime/stdio/stdout.html" xlink:title="print (#11)">
<ellipse fill="#ff7f50" stroke="#000000" cx="1133" cy="-107" rx="63.0888" ry="18"/>
<text text-anchor="middle" x="1133" y="-103.3" font-family="Times,serif" font-size="14.00" fill="#000000">print (#11)</text>
</a>
</g>
</g>
<!-- r14&#45;&gt;r11 -->
<g id="edge40" class="edge">
<title>r14:e&#45;&gt;r11:n</title>
<path fill="none" stroke="#000000" d="M1020,-186C1073.5056,-186 1126.0046,-182.5482 1132.358,-135.0903"/>
<polygon fill="#000000" stroke="#000000" points="1135.8579,-135.2021 1133,-125 1128.872,-134.7575 1135.8579,-135.2021"/>
</g>
<!-- r9&#45;&gt;r9 -->
<g id="edge20" class="edge">
<title>r9:s&#45;&gt;r9:n</title>
<path fill="none" stroke="#000000" d="M335,-945C383.9145,-936 481.7434,-936 481.7434,-963 481.7434,-988.2598 396.1188,-989.8878 345.0284,-982.6233"/>
<polygon fill="#000000" stroke="#000000" points="345.4308,-979.1429 335,-981 344.3122,-986.053 345.4308,-979.1429"/>
<text text-anchor="middle" x="347.5" y="-984.8" font-family="Times,serif" font-size="14.00" fill="#000000">left</text>
<text text-anchor="middle" x="310.5" y="-933.8" font-family="Times,serif" font-size="14.00" fill="#000000">/left&#45;gt</text>
</g>
<!-- r6 -->
<g id="node13" class="node">
<title>r6</title>
<g id="a_node13"><a xlink:href="file:///home/travis/build/andrewdavidmackenzie/flow/flowstdlib/math/multiply/multiply.html" xlink:title="multiply (#6)">
<ellipse fill="#ff7f50" stroke="#000000" cx="494" cy="-706" rx="72.5877" ry="18"/>
<text text-anchor="middle" x="494" y="-702.3" font-family="Times,serif" font-size="14.00" fill="#000000">multiply (#6)</text>
</a>
</g>
</g>
<!-- r9&#45;&gt;r6 -->
<g id="edge18" class="edge">
<title>r9:e&#45;&gt;r6:n</title>
<path fill="none" stroke="#000000" d="M410,-963C454.0073,-963 492,-951.5073 492,-907.5 492,-907.5 492,-907.5 492,-768.5 492,-752.569 493.295,-746.2817 493.8009,-734.1178"/>
<polygon fill="#000000" stroke="#000000" points="497.3025,-734.067 494,-724 490.3039,-733.9292 497.3025,-734.067"/>
<text text-anchor="middle" x="487" y="-727.8" font-family="Times,serif" font-size="14.00" fill="#000000">i1</text>
<text text-anchor="middle" x="442" y="-966.8" font-family="Times,serif" font-size="14.00" fill="#000000">/right&#45;lte</text>
</g>
<!-- r3 -->
<g id="node14" class="node">
<title>r3</title>
<g id="a_node14"><a xlink:href="file:///home/travis/build/andrewdavidmackenzie/flow/flowstdlib/math/add/add.html" xlink:title="add (#3)">
<ellipse fill="#ff7f50" stroke="#000000" cx="280" cy="-706" rx="51.1914" ry="18"/>
<text text-anchor="middle" x="280" y="-702.3" font-family="Times,serif" font-size="14.00" fill="#000000">add (#3)</text>
</a>
</g>
</g>
<!-- r9&#45;&gt;r3 -->
<g id="edge19" class="edge">
<title>r9:e&#45;&gt;r3:ne</title>
<path fill="none" stroke="#000000" d="M410,-963C418,-963 410.3192,-952.9936 410,-945 409.3328,-928.2934 407,-924.2199 407,-907.5 407,-907.5 407,-907.5 407,-768.5 407,-719.1071 343.731,-754.8891 304.8867,-729.4177"/>
<polygon fill="#000000" stroke="#000000" points="306.9656,-726.597 297,-723 302.5473,-732.0265 306.9656,-726.597"/>
<text text-anchor="middle" x="290" y="-726.8" font-family="Times,serif" font-size="14.00" fill="#000000">i2</text>
<text text-anchor="middle" x="442" y="-951.8" font-family="Times,serif" font-size="14.00" fill="#000000">/right&#45;lte</text>
</g>
<!-- r10 -->
<g id="node15" class="node">
<title>r10</title>
<g id="a_node15"><a xlink:href="file:///home/travis/build/andrewdavidmackenzie/flow/flowstdlib/math/add/add.html" xlink:title="add (#10)">
<ellipse fill="#ff7f50" stroke="#000000" cx="81" cy="-706" rx="57.3905" ry="18"/>
<text text-anchor="middle" x="81" y="-702.3" font-family="Times,serif" font-size="14.00" fill="#000000">add (#10)</text>
</a>
</g>
</g>
<!-- r9&#45;&gt;r10 -->
<g id="edge21" class="edge">
<title>r9:e&#45;&gt;r10:n</title>
<path fill="none" stroke="#000000" d="M410,-963C418,-963 413.7625,-952.06 410,-945 400.4736,-927.1246 130.056,-773.7479 86.808,-732.157"/>
<polygon fill="#000000" stroke="#000000" points="89.6513,-730.116 81,-724 83.9491,-734.1761 89.6513,-730.116"/>
<text text-anchor="middle" x="74" y="-727.8" font-family="Times,serif" font-size="14.00" fill="#000000">i1</text>
<text text-anchor="middle" x="382.5" y="-966.8" font-family="Times,serif" font-size="14.00" fill="#000000">/right&#45;lt</text>
</g>
<!-- initializerr9_1 -->
<!-- initializerr9_1&#45;&gt;r9 -->
<g id="edge17" class="edge">
<title>initializerr9_1&#45;&gt;r9:ne</title>
<path fill="none" stroke="#0000ff" stroke-dasharray="1,5" d="M353,-1250.6997C353,-1235.9349 353,-1214.6302 353,-1196 353,-1196 353,-1196 353,-1050 353,-1037.6615 360.0206,-1007.5219 357.1137,-990.5699"/>
<polygon fill="#0000ff" stroke="#0000ff" points="360.1647,-988.805 353,-981 353.7337,-991.5694 360.1647,-988.805"/>
<text text-anchor="middle" x="358" y="-1119.3" font-family="Times,serif" font-size="14.00" fill="#000000">2</text>
</g>
<!-- r6&#45;&gt;r4 -->
<g id="edge26" class="edge">
<title>r6:e&#45;&gt;r4:ne</title>
<path fill="none" stroke="#000000" d="M567,-706C572.8458,-706 570.075,-685.7721 571,-680 573.1389,-666.653 567.9144,-660.8323 576,-650 608.7196,-606.1655 719.414,-629.6641 701.3881,-599.7548"/>
<polygon fill="#000000" stroke="#000000" points="704.0596,-597.4931 695,-592 698.6567,-601.9438 704.0596,-597.4931"/>
<text text-anchor="middle" x="713" y="-595.8" font-family="Times,serif" font-size="14.00" fill="#000000">right</text>
</g>
<!-- r3&#45;&gt;r3 -->
<g id="edge31" class="edge">
<title>r3:se&#45;&gt;r3:ne</title>
<path fill="none" stroke="#000000" d="M297,-689C338.1151,-680 403.3454,-680 403.3454,-706 403.3454,-729.9688 347.9092,-731.8413 307.0353,-724.9365"/>
<polygon fill="#000000" stroke="#000000" points="307.482,-721.4582 297,-723 306.1557,-728.3314 307.482,-721.4582"/>
<text text-anchor="middle" x="304" y="-726.8" font-family="Times,serif" font-size="14.00" fill="#000000">i2</text>
<text text-anchor="middle" x="287.5" y="-677.8" font-family="Times,serif" font-size="14.00" fill="#000000">/i2</text>
</g>
<!-- r3&#45;&gt;r4 -->
<g id="edge32" class="edge">
<title>r3:se&#45;&gt;r4:ne</title>
<path fill="none" stroke="#000000" d="M297,-689C325.9163,-660.0837 650.1147,-630.8085 692.3283,-601.8192"/>
<polygon fill="#000000" stroke="#000000" points="695.7517,-602.5681 695,-592 688.9973,-600.7303 695.7517,-602.5681"/>
<text text-anchor="middle" x="677" y="-595.8" font-family="Times,serif" font-size="14.00" fill="#000000">right</text>
<text text-anchor="middle" x="314.5" y="-677.8" font-family="Times,serif" font-size="14.00" fill="#000000">/sum</text>
</g>
<!-- r10&#45;&gt;r9 -->
<g id="edge24" class="edge">
<title>r10:se&#45;&gt;r9:ne</title>
<path fill="none" stroke="#000000" d="M98,-689C110.632,-676.368 121.1221,-683.7412 138.1949,-689 141.9458,-690.1554 255,-764.5752 255,-768.5 255,-907.5 255,-907.5 255,-907.5 255,-942.8827 387.8678,-917.19 409.7434,-945 409.7434,-945 377.8252,-965.25 361.8662,-975.375"/>
<polygon fill="#000000" stroke="#000000" points="359.569,-972.6874 353,-981 363.319,-978.5982 359.569,-972.6874"/>
<text text-anchor="middle" x="371" y="-984.8" font-family="Times,serif" font-size="14.00" fill="#000000">right</text>
<text text-anchor="middle" x="80.5" y="-677.8" font-family="Times,serif" font-size="14.00" fill="#000000">/sum</text>
</g>
<!-- r10&#45;&gt;r10 -->
<g id="edge23" class="edge">
<title>r10:se&#45;&gt;r10:ne</title>
<path fill="none" stroke="#000000" d="M98,-689C141.065,-680 210.1949,-680 210.1949,-706 210.1949,-730.0703 150.9457,-731.8568 107.9805,-724.8482"/>
<polygon fill="#000000" stroke="#000000" points="108.4702,-721.3795 98,-723 107.1955,-728.2625 108.4702,-721.3795"/>
<text text-anchor="middle" x="91" y="-726.8" font-family="Times,serif" font-size="14.00" fill="#000000">i2</text>
<text text-anchor="middle" x="107.5" y="-677.8" font-family="Times,serif" font-size="14.00" fill="#000000">/i2</text>
</g>
<!-- initializerr10_1 -->
<!-- initializerr10_1&#45;&gt;r10 -->
<g id="edge22" class="edge">
<title>initializerr10_1&#45;&gt;r10:w</title>
<path fill="none" stroke="#0000ff" stroke-dasharray="1,5" d="M103.5,-944.5375C102.25,-933.7583 101,-919.8833 101,-907.5 101,-907.5 101,-907.5 101,-768.5 101,-728.9738 43.7558,-758.2349 24,-724 22.5006,-721.4016 21.0007,-718.2208 20.1335,-715.2597"/>
<polygon fill="#0000ff" stroke="#0000ff" points="23.3765,-716.5765 24,-706 16.917,-713.8792 23.3765,-716.5765"/>
<text text-anchor="middle" x="106" y="-827.3" font-family="Times,serif" font-size="14.00" fill="#000000">1</text>
</g>
<!-- initializerr6_1 -->
<!-- initializerr6_1&#45;&gt;r6 -->
<g id="edge25" class="edge">
<title>initializerr6_1&#45;&gt;r6:w</title>
<path fill="none" stroke="#0000ff" d="M642.8219,-813.9035C613.1502,-793.724 560.6483,-760.5703 511,-742 472.793,-727.7092 446.8618,-755.5463 421,-724 419.0188,-721.5833 417.3647,-718.3081 416.5613,-715.2138"/>
<polygon fill="#0000ff" stroke="#0000ff" points="419.813,-716.5281 421,-706 413.5067,-713.49 419.813,-716.5281"/>
<text text-anchor="middle" x="586" y="-764.8" font-family="Times,serif" font-size="14.00" fill="#000000">2</text>
</g>
<!-- r4&#45;&gt;r14 -->
<g id="edge27" class="edge">
<title>r4:e&#45;&gt;r14:n</title>
<path fill="none" stroke="#000000" d="M752,-574C801.669,-574 849,-568.169 849,-518.5 849,-518.5 849,-518.5 849,-248.5 849,-205.5137 929.209,-243.2237 942.9949,-214.1071"/>
<polygon fill="#000000" stroke="#000000" points="946.4871,-214.4899 945,-204 939.6209,-213.1277 946.4871,-214.4899"/>
<text text-anchor="middle" x="925.5" y="-207.8" font-family="Times,serif" font-size="14.00" fill="#000000">value</text>
<text text-anchor="middle" x="784" y="-577.8" font-family="Times,serif" font-size="14.00" fill="#000000">/right&#45;lte</text>
</g>
<!-- r4&#45;&gt;r3 -->
<g id="edge29" class="edge">
<title>r4:e&#45;&gt;r3:n</title>
<path fill="none" stroke="#000000" d="M752,-574C760,-574 756.7597,-585.57 752,-592 715.781,-640.9291 680.0059,-617.0274 621,-632 595.0629,-638.5815 409.1674,-668.5115 385,-680 357.1474,-693.2404 360.3841,-713.6159 331.3454,-724 323.7073,-726.7314 300.978,-731.3461 288.4758,-729.6858"/>
<polygon fill="#000000" stroke="#000000" points="290.2544,-726.6643 280,-724 286.3547,-732.4775 290.2544,-726.6643"/>
<text text-anchor="middle" x="273" y="-727.8" font-family="Times,serif" font-size="14.00" fill="#000000">i1</text>
<text text-anchor="middle" x="779.5" y="-562.8" font-family="Times,serif" font-size="14.00" fill="#000000">/right&#45;lt</text>
</g>
<!-- r4&#45;&gt;r4 -->
<g id="edge28" class="edge">
<title>r4:s&#45;&gt;r4:n</title>
<path fill="none" stroke="#000000" d="M677,-556C725.9145,-547 823.7434,-547 823.7434,-574 823.7434,-599.2598 738.1188,-600.8878 687.0284,-593.6233"/>
<polygon fill="#000000" stroke="#000000" points="687.4308,-590.1429 677,-592 686.3122,-597.053 687.4308,-590.1429"/>
<text text-anchor="middle" x="664.5" y="-580.8" font-family="Times,serif" font-size="14.00" fill="#000000">left</text>
<text text-anchor="middle" x="652.5" y="-544.8" font-family="Times,serif" font-size="14.00" fill="#000000">/left&#45;gt</text>
</g>
<!-- r7 -->
<g id="node19" class="node">
<title>r7</title>
<g id="a_node19"><a xlink:href="file:///home/travis/build/andrewdavidmackenzie/flow/flowstdlib/control/join/join.html" xlink:title="join (#7)">
<ellipse fill="#ff7f50" stroke="#000000" cx="650" cy="-186" rx="51.1914" ry="18"/>
<text text-anchor="middle" x="650" y="-182.3" font-family="Times,serif" font-size="14.00" fill="#000000">join (#7)</text>
</a>
</g>
</g>
<!-- r4&#45;&gt;r7 -->
<g id="edge30" class="edge">
<title>r4:sw&#45;&gt;r7:ne</title>
<path fill="none" stroke="#000000" d="M659,-556C647.1106,-544.1106 664,-535.3142 664,-518.5 664,-518.5 664,-518.5 664,-248.5 664,-232.5088 674.7902,-222.3468 672.302,-211.731"/>
<polygon fill="#000000" stroke="#000000" points="675.1822,-209.7307 667,-203 669.199,-213.3641 675.1822,-209.7307"/>
<text text-anchor="middle" x="693" y="-206.8" font-family="Times,serif" font-size="14.00" fill="#000000">control</text>
<text text-anchor="middle" x="693" y="-544.8" font-family="Times,serif" font-size="14.00" fill="#000000">/right&#45;gte</text>
</g>
<!-- r8 -->
<g id="node21" class="node">
<title>r8</title>
<g id="a_node21"><a xlink:href="file:///home/travis/build/andrewdavidmackenzie/flow/flowstdlib/math/add/add.html" xlink:title="subsequence&#45;count (#8)">
<ellipse fill="#ff7f50" stroke="#000000" cx="558" cy="-34" rx="124.2781" ry="18"/>
<text text-anchor="middle" x="558" y="-30.3" font-family="Times,serif" font-size="14.00" fill="#000000">subsequence&#45;count (#8)</text>
</a>
</g>
</g>
<!-- r7&#45;&gt;r8 -->
<g id="edge36" class="edge">
<title>r7:e&#45;&gt;r8:ne</title>
<path fill="none" stroke="#000000" d="M702,-186C710,-186 705.2134,-175.3262 702,-168 672.8582,-101.56 633.6996,-105.2873 583.4885,-59.1788"/>
<polygon fill="#000000" stroke="#000000" points="585.6409,-56.3937 576,-52 580.7967,-61.4468 585.6409,-56.3937"/>
<text text-anchor="middle" x="569" y="-55.8" font-family="Times,serif" font-size="14.00" fill="#000000">i2</text>
</g>
<!-- initializerr7_0 -->
<!-- initializerr7_0&#45;&gt;r7 -->
<g id="edge35" class="edge">
<title>initializerr7_0&#45;&gt;r7:nw</title>
<path fill="none" stroke="#0000ff" d="M523.2827,-293.8908C549.3141,-275.0441 591.5242,-243.0126 625.8122,-210.0448"/>
<polygon fill="#0000ff" stroke="#0000ff" points="628.3081,-212.4993 633,-203 623.4083,-207.5001 628.3081,-212.4993"/>
<text text-anchor="middle" x="596" y="-244.8" font-family="Times,serif" font-size="14.00" fill="#000000">1</text>
</g>
<!-- r8&#45;&gt;r8 -->
<g id="edge38" class="edge">
<title>r8:se&#45;&gt;r8:n</title>
<path fill="none" stroke="#000000" d="M576,-16C641.3797,-7 754.139,-7 754.139,-34 754.139,-59.6816 635.8374,-60.9356 568.0219,-53.2519"/>
<polygon fill="#000000" stroke="#000000" points="568.3567,-49.7666 558,-52 567.489,-56.7126 568.3567,-49.7666"/>
<text text-anchor="middle" x="551" y="-55.8" font-family="Times,serif" font-size="14.00" fill="#000000">i1</text>
<text text-anchor="middle" x="558.5" y="-4.8" font-family="Times,serif" font-size="14.00" fill="#000000">/sum</text>
</g>
<!-- initializerr8_0 -->
<!-- initializerr8_0&#45;&gt;r8 -->
<g id="edge37" class="edge">
<title>initializerr8_0&#45;&gt;r8:ne</title>
<path fill="none" stroke="#0000ff" stroke-dasharray="1,5" d="M474.9087,-168.8694C511.8217,-141.595 578.5784,-88.6243 579.5805,-61.5711"/>
<polygon fill="#0000ff" stroke="#0000ff" points="582.782,-60.1397 576,-52 576.2257,-62.5924 582.782,-60.1397"/>
<text text-anchor="middle" x="570" y="-103.3" font-family="Times,serif" font-size="14.00" fill="#000000">1</text>
</g>
</g>
</svg>
