<?xml version="1.0" encoding="UTF-8" standalone="no"?>
<!DOCTYPE svg PUBLIC "-//W3C//DTD SVG 1.1//EN"
 "http://www.w3.org/Graphics/SVG/1.1/DTD/svg11.dtd">
<!-- Generated by graphviz version 2.44.0 (20200408.0750)
 -->
<!-- Title: generate_composites Pages: 1 -->
<svg width="747pt" height="576pt"
 viewBox="28.80 28.80 718.69 547.28" xmlns="http://www.w3.org/2000/svg" xmlns:xlink="http://www.w3.org/1999/xlink">
<g id="graph0" class="graph" transform="scale(1 1) rotate(0) translate(32.8 543.28)">
<title>generate_composites</title>
<polygon fill="white" stroke="transparent" points="-4,4 -4,-514.48 685.89,-514.48 685.89,4 -4,4"/>
<text text-anchor="middle" x="340.95" y="-495.28" font-family="Times,serif" font-size="14.00">generate_composites</text>
<!-- /prime/composites/generate_composites/limit -->
<g id="node1" class="node">
<title>/prime/composites/generate_composites/limit</title>
<polygon fill="white" stroke="black" points="69.14,-475.04 34.55,-487.48 -0.05,-475.04 -0.01,-454.92 69.1,-454.92 69.14,-475.04"/>
<text text-anchor="middle" x="34.55" y="-465.78" font-family="Times,serif" font-size="14.00">limit</text>
</g>
<!-- /prime/composites/generate_composites/limit&#45;buffer -->
<g id="node8" class="node">
<title>/prime/composites/generate_composites/limit&#45;buffer</title>
<g id="a_node8"><a xlink:href="../../flowstdlib/data/buffer/buffer.html" xlink:title="limit&#45;buffer\n(Buffer)">
<ellipse fill="coral" stroke="black" cx="91.55" cy="-352.61" rx="56.64" ry="26.74"/>
<text text-anchor="middle" x="91.55" y="-356.41" font-family="Times,serif" font-size="14.00">limit&#45;buffer</text>
<text text-anchor="middle" x="91.55" y="-341.41" font-family="Times,serif" font-size="14.00">(Buffer)</text>
</a>
</g>
</g>
<!-- /prime/composites/generate_composites/limit&#45;&gt;/prime/composites/generate_composites/limit&#45;buffer -->
<g id="edge3" class="edge">
<title>/prime/composites/generate_composites/limit:s&#45;&gt;/prime/composites/generate_composites/limit&#45;buffer:w</title>
<path fill="none" stroke="black" d="M34.55,-453.48C34.55,-412.67 -3.42,-362.59 23.56,-353.92"/>
<polygon fill="black" stroke="black" points="24.08,-357.38 33.55,-352.61 23.18,-350.44 24.08,-357.38"/>
</g>
<!-- /prime/composites/generate_composites/start -->
<g id="node2" class="node">
<title>/prime/composites/generate_composites/start</title>
<polygon fill="white" stroke="black" points="461.82,-475.04 429.55,-487.48 397.27,-475.04 397.3,-454.92 461.79,-454.92 461.82,-475.04"/>
<text text-anchor="middle" x="429.55" y="-465.78" font-family="Times,serif" font-size="14.00">start</text>
</g>
<!-- /prime/composites/generate_composites/multiply -->
<g id="node5" class="node">
<title>/prime/composites/generate_composites/multiply</title>
<g id="a_node5"><a xlink:href="../../flowstdlib/math/multiply/multiply.html" xlink:title="multiply\n(Multiply)">
<ellipse fill="coral" stroke="black" cx="482.55" cy="-280.87" rx="52.15" ry="26.74"/>
<text text-anchor="middle" x="482.55" y="-284.67" font-family="Times,serif" font-size="14.00">multiply</text>
<text text-anchor="middle" x="482.55" y="-269.67" font-family="Times,serif" font-size="14.00">(Multiply)</text>
</a>
</g>
</g>
<!-- /prime/composites/generate_composites/start&#45;&gt;/prime/composites/generate_composites/multiply -->
<g id="edge2" class="edge">
<title>/prime/composites/generate_composites/start:s&#45;&gt;/prime/composites/generate_composites/multiply:ne</title>
<path fill="none" stroke="black" d="M429.55,-453.48C429.55,-402.4 624.03,-471.14 658.55,-433.48 726.21,-359.65 634.12,-426.98 513.77,-312.91"/>
<polygon fill="black" stroke="black" points="516.15,-310.34 506.55,-305.87 511.27,-315.35 516.15,-310.34"/>
<text text-anchor="middle" x="501.05" y="-309.67" font-family="Times,serif" font-size="14.00">i1</text>
</g>
<!-- /prime/composites/generate_composites/composite&#45;sequence -->
<g id="node7" class="node">
<title>/prime/composites/generate_composites/composite&#45;sequence</title>
<g id="a_node7"><a xlink:href="../../flowstdlib/math/sequence.dot.svg" xlink:title="composite&#45;sequence">
<ellipse fill="aquamarine" stroke="black" cx="186.55" cy="-145" rx="72" ry="72"/>
<text text-anchor="middle" x="186.55" y="-141.3" font-family="Times,serif" font-size="14.00">composite&#45;sequence</text>
</a>
</g>
</g>
<!-- /prime/composites/generate_composites/start&#45;&gt;/prime/composites/generate_composites/composite&#45;sequence -->
<g id="edge7" class="edge">
<title>/prime/composites/generate_composites/start:s&#45;&gt;/prime/composites/generate_composites/composite&#45;sequence:n</title>
<path fill="none" stroke="black" d="M429.55,-453.48C429.55,-402.4 236.26,-470.01 200.55,-433.48 135.51,-366.96 182.94,-317.03 186.35,-227"/>
<polygon fill="black" stroke="black" points="189.85,-227.06 186.55,-217 182.86,-226.93 189.85,-227.06"/>
<text text-anchor="middle" x="175.55" y="-220.8" font-family="Times,serif" font-size="14.00">step</text>
</g>
<!-- /prime/composites/generate_composites/composites -->
<g id="node3" class="node">
<title>/prime/composites/generate_composites/composites</title>
<polygon fill="black" stroke="black" points="46.72,-12.44 109.55,0 172.37,-12.44 172.31,-32.56 46.78,-32.56 46.72,-12.44"/>
<text text-anchor="middle" x="109.55" y="-14.3" font-family="Times,serif" font-size="14.00" fill="white">composites</text>
</g>
<!-- /prime/composites/generate_composites/subsequence&#45;end -->
<g id="node4" class="node">
<title>/prime/composites/generate_composites/subsequence&#45;end</title>
<polygon fill="black" stroke="black" points="176.91,-12.44 264.55,0 352.18,-12.44 352.1,-32.56 176.99,-32.56 176.91,-12.44"/>
<text text-anchor="middle" x="264.55" y="-14.3" font-family="Times,serif" font-size="14.00" fill="white">subsequence&#45;end</text>
</g>
<!-- /prime/composites/generate_composites/multiply&#45;&gt;/prime/composites/generate_composites/composite&#45;sequence -->
<g id="edge6" class="edge">
<title>/prime/composites/generate_composites/multiply:e&#45;&gt;/prime/composites/generate_composites/composite&#45;sequence:n</title>
<path fill="none" stroke="black" d="M536.55,-280.87C548.5,-280.87 543.7,-262.73 535.55,-254 511.06,-227.78 236.28,-251.49 192.43,-225.1"/>
<polygon fill="black" stroke="black" points="195.26,-223.03 186.55,-217 189.59,-227.15 195.26,-223.03"/>
<text text-anchor="middle" x="198.55" y="-220.8" font-family="Times,serif" font-size="14.00">start</text>
</g>
<!-- initializer/prime/composites/generate_composites/multiply_1 -->
<!-- initializer/prime/composites/generate_composites/multiply_1&#45;&gt;/prime/composites/generate_composites/multiply -->
<g id="edge1" class="edge">
<title>initializer/prime/composites/generate_composites/multiply_1&#45;&gt;/prime/composites/generate_composites/multiply:w</title>
<path fill="none" stroke="blue" d="M422.45,-397.29C409.61,-364.16 386.68,-293.75 418.62,-282.42"/>
<polygon fill="blue" stroke="blue" points="419.21,-285.87 428.55,-280.87 418.12,-278.96 419.21,-285.87"/>
<text text-anchor="middle" x="419.05" y="-348.91" font-family="Times,serif" font-size="14.00">2</text>
</g>
<!-- /prime/composites/generate_composites/composite&#45;sequence&#45;&gt;/prime/composites/generate_composites/composites -->
<g id="edge8" class="edge">
<title>/prime/composites/generate_composites/composite&#45;sequence:s&#45;&gt;/prime/composites/generate_composites/composites:n</title>
<path fill="none" stroke="black" d="M186.55,-73C186.55,-38.68 124.93,-65.25 111.93,-43.78"/>
<polygon fill="black" stroke="black" points="115.32,-42.88 109.55,-34 108.52,-44.54 115.32,-42.88"/>
<text text-anchor="middle" x="123.08" y="-57.3" font-family="Times,serif" font-size="14.00">sequence</text>
</g>
<!-- /prime/composites/generate_composites/composite&#45;sequence&#45;&gt;/prime/composites/generate_composites/subsequence&#45;end -->
<g id="edge9" class="edge">
<title>/prime/composites/generate_composites/composite&#45;sequence:s&#45;&gt;/prime/composites/generate_composites/subsequence&#45;end:n</title>
<path fill="none" stroke="black" d="M186.55,-73C186.55,-38.33 248.96,-65.49 262.13,-43.87"/>
<polygon fill="black" stroke="black" points="265.56,-44.55 264.55,-34 258.76,-42.88 265.56,-44.55"/>
<text text-anchor="middle" x="216.01" y="-57.3" font-family="Times,serif" font-size="14.00">last</text>
</g>
<!-- /prime/composites/generate_composites/limit&#45;buffer&#45;&gt;/prime/composites/generate_composites/composite&#45;sequence -->
<g id="edge5" class="edge">
<title>/prime/composites/generate_composites/limit&#45;buffer:e&#45;&gt;/prime/composites/generate_composites/composite&#45;sequence:n</title>
<path fill="none" stroke="black" d="M149.55,-352.61C176.18,-352.61 161.51,-259.24 172.55,-235 174.78,-230.1 178.59,-228.19 181.67,-225.95"/>
<polygon fill="black" stroke="black" points="184.84,-227.46 186.55,-217 178.69,-224.11 184.84,-227.46"/>
<text text-anchor="middle" x="176.55" y="-220.8" font-family="Times,serif" font-size="14.00">end</text>
</g>
<!-- /prime/composites/generate_composites/limit&#45;buffer&#45;&gt;/prime/composites/generate_composites/limit&#45;buffer -->
<g id="edge4" class="edge">
<title>/prime/composites/generate_composites/limit&#45;buffer:e&#45;&gt;/prime/composites/generate_composites/limit&#45;buffer:w</title>
<path fill="none" stroke="black" d="M148.55,-352.61C166.11,-371.9 166.11,-410.48 91.55,-410.48 26.59,-410.48 18.22,-381.21 28.75,-360.91"/>
<polygon fill="black" stroke="black" points="31.69,-362.81 34.55,-352.61 25.95,-358.8 31.69,-362.81"/>
</g>
</g>
</svg>
