<?xml version="1.0" encoding="UTF-8" standalone="no"?>
<!DOCTYPE svg PUBLIC "-//W3C//DTD SVG 1.1//EN"
 "http://www.w3.org/Graphics/SVG/1.1/DTD/svg11.dtd">
<!-- Generated by graphviz version 2.44.1 (20200629.0846)
 -->
<!-- Title: generate_composites Pages: 1 -->
<svg width="731pt" height="558pt"
 viewBox="28.80 28.80 702.66 529.54" xmlns="http://www.w3.org/2000/svg" xmlns:xlink="http://www.w3.org/1999/xlink">
<g id="graph0" class="graph" transform="scale(1 1) rotate(0) translate(32.8 525.54)">
<title>generate_composites</title>
<polygon fill="white" stroke="transparent" points="-4,4 -4,-496.74 669.86,-496.74 669.86,4 -4,4"/>
<text text-anchor="middle" x="332.93" y="-477.54" font-family="Times,serif" font-size="14.00">generate_composites</text>
<!-- /prime/composites/generate_composites/limit -->
<g id="node1" class="node">
<title>/prime/composites/generate_composites/limit</title>
<polygon fill="white" stroke="black" points="69.14,-457.3 34.55,-469.74 -0.05,-457.3 -0.01,-437.18 69.1,-437.18 69.14,-457.3"/>
<text text-anchor="middle" x="34.55" y="-448.04" font-family="Times,serif" font-size="14.00">limit</text>
</g>
<!-- /prime/composites/generate_composites/limit&#45;buffer -->
<g id="node8" class="node">
<title>/prime/composites/generate_composites/limit&#45;buffer</title>
<g id="a_node8"><a xlink:href="../../flowstdlib/data/buffer/buffer.html" xlink:title="limit&#45;buffer\n(buffer)">
<ellipse fill="coral" stroke="black" cx="91.55" cy="-334.87" rx="56.64" ry="26.74"/>
<text text-anchor="middle" x="91.55" y="-338.67" font-family="Times,serif" font-size="14.00">limit&#45;buffer</text>
<text text-anchor="middle" x="91.55" y="-323.67" font-family="Times,serif" font-size="14.00">(buffer)</text>
</a>
</g>
</g>
<!-- /prime/composites/generate_composites/limit&#45;&gt;/prime/composites/generate_composites/limit&#45;buffer -->
<g id="edge3" class="edge">
<title>/prime/composites/generate_composites/limit:s&#45;&gt;/prime/composites/generate_composites/limit&#45;buffer:w</title>
<path fill="none" stroke="black" d="M34.55,-435.74C34.55,-394.93 -3.42,-344.85 23.56,-336.18"/>
<polygon fill="black" stroke="black" points="24.08,-339.64 33.55,-334.87 23.18,-332.7 24.08,-339.64"/>
</g>
<!-- /prime/composites/generate_composites/start -->
<g id="node2" class="node">
<title>/prime/composites/generate_composites/start</title>
<polygon fill="white" stroke="black" points="461.82,-457.3 429.55,-469.74 397.27,-457.3 397.3,-437.18 461.79,-437.18 461.82,-457.3"/>
<text text-anchor="middle" x="429.55" y="-448.04" font-family="Times,serif" font-size="14.00">start</text>
</g>
<!-- /prime/composites/generate_composites/multiply -->
<g id="node5" class="node">
<title>/prime/composites/generate_composites/multiply</title>
<g id="a_node5"><a xlink:href="../../flowstdlib/math/multiply/multiply.html" xlink:title="multiply">
<ellipse fill="coral" stroke="black" cx="470.55" cy="-272" rx="40.89" ry="18"/>
<text text-anchor="middle" x="470.55" y="-268.3" font-family="Times,serif" font-size="14.00">multiply</text>
</a>
</g>
</g>
<!-- /prime/composites/generate_composites/start&#45;&gt;/prime/composites/generate_composites/multiply -->
<g id="edge2" class="edge">
<title>/prime/composites/generate_composites/start:s&#45;&gt;/prime/composites/generate_composites/multiply:ne</title>
<path fill="none" stroke="black" d="M429.55,-435.74C429.55,-384.66 624.03,-453.4 658.55,-415.74 669.36,-403.94 666.82,-393.43 658.55,-379.74 615.96,-309.3 553.61,-347.25 495.04,-296.95"/>
<polygon fill="black" stroke="black" points="497.26,-294.24 487.55,-290 492.49,-299.37 497.26,-294.24"/>
<text text-anchor="middle" x="482.05" y="-293.8" font-family="Times,serif" font-size="14.00">i1</text>
</g>
<!-- /prime/composites/generate_composites/composite&#45;sequence -->
<g id="node7" class="node">
<title>/prime/composites/generate_composites/composite&#45;sequence</title>
<g id="a_node7"><a xlink:href="lib://flowstdlib/math/sequence.dot.svg" xlink:title="composite&#45;sequence">
<ellipse fill="aquamarine" stroke="black" cx="186.55" cy="-145" rx="72" ry="72"/>
<text text-anchor="middle" x="186.55" y="-141.3" font-family="Times,serif" font-size="14.00">composite&#45;sequence</text>
</a>
</g>
</g>
<!-- /prime/composites/generate_composites/start&#45;&gt;/prime/composites/generate_composites/composite&#45;sequence -->
<g id="edge7" class="edge">
<title>/prime/composites/generate_composites/start:s&#45;&gt;/prime/composites/generate_composites/composite&#45;sequence:n</title>
<path fill="none" stroke="black" d="M429.55,-435.74C429.55,-384.66 236.36,-452.16 200.55,-415.74 140.89,-355.07 182.96,-309.25 186.33,-227.19"/>
<polygon fill="black" stroke="black" points="189.84,-227.07 186.55,-217 182.84,-226.93 189.84,-227.07"/>
<text text-anchor="middle" x="175.55" y="-220.8" font-family="Times,serif" font-size="14.00">step</text>
</g>
<!-- /prime/composites/generate_composites/composites -->
<g id="node3" class="node">
<title>/prime/composites/generate_composites/composites</title>
<polygon fill="black" stroke="black" points="46.72,-12.44 109.55,0 172.37,-12.44 172.31,-32.56 46.78,-32.56 46.72,-12.44"/>
<text text-anchor="middle" x="109.55" y="-14.3" font-family="Times,serif" font-size="14.00" fill="white">composites</text>
</g>
<!-- /prime/composites/generate_composites/subsequence&#45;end -->
<g id="node4" class="node">
<title>/prime/composites/generate_composites/subsequence&#45;end</title>
<polygon fill="black" stroke="black" points="176.91,-12.44 264.55,0 352.18,-12.44 352.1,-32.56 176.99,-32.56 176.91,-12.44"/>
<text text-anchor="middle" x="264.55" y="-14.3" font-family="Times,serif" font-size="14.00" fill="white">subsequence&#45;end</text>
</g>
<!-- /prime/composites/generate_composites/multiply&#45;&gt;/prime/composites/generate_composites/composite&#45;sequence -->
<g id="edge6" class="edge">
<title>/prime/composites/generate_composites/multiply:e&#45;&gt;/prime/composites/generate_composites/composite&#45;sequence:n</title>
<path fill="none" stroke="black" d="M512.55,-272C520.56,-272 517.04,-259.83 511.55,-254 488.74,-229.84 236.09,-249.3 192.83,-225.07"/>
<polygon fill="black" stroke="black" points="195.45,-222.74 186.55,-217 189.93,-227.04 195.45,-222.74"/>
<text text-anchor="middle" x="198.55" y="-220.8" font-family="Times,serif" font-size="14.00">start</text>
</g>
<!-- initializer/prime/composites/generate_composites/multiply_1 -->
<!-- initializer/prime/composites/generate_composites/multiply_1&#45;&gt;/prime/composites/generate_composites/multiply -->
<g id="edge1" class="edge">
<title>initializer/prime/composites/generate_composites/multiply_1&#45;&gt;/prime/composites/generate_composites/multiply:w</title>
<path fill="none" stroke="blue" d="M422.51,-379.66C410.53,-348.56 390.1,-284.89 418.62,-273.7"/>
<polygon fill="blue" stroke="blue" points="419.28,-277.14 428.55,-272 418.1,-270.24 419.28,-277.14"/>
<text text-anchor="middle" x="418.05" y="-331.17" font-family="Times,serif" font-size="14.00">2</text>
</g>
<!-- /prime/composites/generate_composites/composite&#45;sequence&#45;&gt;/prime/composites/generate_composites/composites -->
<g id="edge8" class="edge">
<title>/prime/composites/generate_composites/composite&#45;sequence:s&#45;&gt;/prime/composites/generate_composites/composites:n</title>
<path fill="none" stroke="black" d="M186.55,-73C186.55,-38.68 124.93,-65.25 111.93,-43.78"/>
<polygon fill="black" stroke="black" points="115.32,-42.88 109.55,-34 108.52,-44.54 115.32,-42.88"/>
<text text-anchor="middle" x="123.08" y="-57.3" font-family="Times,serif" font-size="14.00">sequence</text>
</g>
<!-- /prime/composites/generate_composites/composite&#45;sequence&#45;&gt;/prime/composites/generate_composites/subsequence&#45;end -->
<g id="edge9" class="edge">
<title>/prime/composites/generate_composites/composite&#45;sequence:s&#45;&gt;/prime/composites/generate_composites/subsequence&#45;end:n</title>
<path fill="none" stroke="black" d="M186.55,-73C186.55,-38.33 248.96,-65.49 262.13,-43.87"/>
<polygon fill="black" stroke="black" points="265.56,-44.55 264.55,-34 258.76,-42.88 265.56,-44.55"/>
<text text-anchor="middle" x="216.01" y="-57.3" font-family="Times,serif" font-size="14.00">last</text>
</g>
<!-- /prime/composites/generate_composites/limit&#45;buffer&#45;&gt;/prime/composites/generate_composites/composite&#45;sequence -->
<g id="edge5" class="edge">
<title>/prime/composites/generate_composites/limit&#45;buffer:e&#45;&gt;/prime/composites/generate_composites/composite&#45;sequence:n</title>
<path fill="none" stroke="black" d="M149.55,-334.87C195.09,-334.87 152.99,-276.14 172.55,-235 174.86,-230.14 178.66,-228.22 181.72,-225.97"/>
<polygon fill="black" stroke="black" points="184.9,-227.47 186.55,-217 178.73,-224.15 184.9,-227.47"/>
<text text-anchor="middle" x="176.55" y="-220.8" font-family="Times,serif" font-size="14.00">end</text>
</g>
<!-- /prime/composites/generate_composites/limit&#45;buffer&#45;&gt;/prime/composites/generate_composites/limit&#45;buffer -->
<g id="edge4" class="edge">
<title>/prime/composites/generate_composites/limit&#45;buffer:e&#45;&gt;/prime/composites/generate_composites/limit&#45;buffer:w</title>
<path fill="none" stroke="black" d="M148.55,-334.87C166.11,-354.16 166.11,-392.74 91.55,-392.74 26.59,-392.74 18.22,-363.47 28.75,-343.17"/>
<polygon fill="black" stroke="black" points="31.69,-345.07 34.55,-334.87 25.95,-341.06 31.69,-345.07"/>
</g>
</g>
</svg>
