<?xml version="1.0" encoding="UTF-8" standalone="no"?>
<!DOCTYPE svg PUBLIC "-//W3C//DTD SVG 1.1//EN"
 "http://www.w3.org/Graphics/SVG/1.1/DTD/svg11.dtd">
<!-- Generated by graphviz version 2.42.4 (0)
 -->
<!-- Title: generate_composites Pages: 1 -->
<svg width="891pt" height="576pt"
 viewBox="28.80 28.80 862.48 547.28" xmlns="http://www.w3.org/2000/svg" xmlns:xlink="http://www.w3.org/1999/xlink">
<g id="graph0" class="graph" transform="scale(1 1) rotate(0) translate(32.8 543.28)">
<title>generate_composites</title>
<polygon fill="white" stroke="transparent" points="-4,4 -4,-514.48 829.68,-514.48 829.68,4 -4,4"/>
<text text-anchor="middle" x="412.84" y="-495.28" font-family="Times,serif" font-size="14.00">generate_composites</text>
<!-- /prime/composites/generate_composites/limit -->
<g id="node1" class="node">
<title>/prime/composites/generate_composites/limit</title>
<polygon fill="white" stroke="black" points="80.51,-475.04 40.17,-487.48 -0.17,-475.04 -0.13,-454.92 80.47,-454.92 80.51,-475.04"/>
<text text-anchor="middle" x="40.17" y="-465.78" font-family="Times,serif" font-size="14.00">limit</text>
</g>
<!-- /prime/composites/generate_composites/limit&#45;buffer -->
<g id="node8" class="node">
<title>/prime/composites/generate_composites/limit&#45;buffer</title>
<g id="a_node8"><a xlink:href="../../flowstdlib/data/buffer/buffer.html" xlink:title="limit&#45;buffer\n(Buffer)">
<ellipse fill="coral" stroke="black" cx="109.17" cy="-352.61" rx="68.68" ry="26.74"/>
<text text-anchor="middle" x="109.17" y="-356.41" font-family="Times,serif" font-size="14.00">limit&#45;buffer</text>
<text text-anchor="middle" x="109.17" y="-341.41" font-family="Times,serif" font-size="14.00">(Buffer)</text>
</a>
</g>
</g>
<!-- /prime/composites/generate_composites/limit&#45;&gt;/prime/composites/generate_composites/limit&#45;buffer -->
<g id="edge3" class="edge">
<title>/prime/composites/generate_composites/limit:s&#45;&gt;/prime/composites/generate_composites/limit&#45;buffer:w</title>
<path fill="none" stroke="black" d="M40.17,-453.48C40.17,-412.67 2.2,-362.59 29.18,-353.92"/>
<polygon fill="black" stroke="black" points="29.71,-357.38 39.17,-352.61 28.8,-350.44 29.71,-357.38"/>
</g>
<!-- /prime/composites/generate_composites/start -->
<g id="node2" class="node">
<title>/prime/composites/generate_composites/start</title>
<polygon fill="white" stroke="black" points="565.11,-475.04 524.17,-487.48 483.22,-475.04 483.26,-454.92 565.07,-454.92 565.11,-475.04"/>
<text text-anchor="middle" x="524.17" y="-465.78" font-family="Times,serif" font-size="14.00">start</text>
</g>
<!-- /prime/composites/generate_composites/multiply -->
<g id="node5" class="node">
<title>/prime/composites/generate_composites/multiply</title>
<g id="a_node5"><a xlink:href="../../flowstdlib/math/multiply/multiply.html" xlink:title="multiply\n(Multiply)">
<ellipse fill="coral" stroke="black" cx="586.17" cy="-280.87" rx="61.54" ry="26.74"/>
<text text-anchor="middle" x="586.17" y="-284.67" font-family="Times,serif" font-size="14.00">multiply</text>
<text text-anchor="middle" x="586.17" y="-269.67" font-family="Times,serif" font-size="14.00">(Multiply)</text>
</a>
</g>
</g>
<!-- /prime/composites/generate_composites/start&#45;&gt;/prime/composites/generate_composites/multiply -->
<g id="edge2" class="edge">
<title>/prime/composites/generate_composites/start:s&#45;&gt;/prime/composites/generate_composites/multiply:ne</title>
<path fill="none" stroke="black" d="M524.17,-453.48C524.17,-420.74 795.82,-457.41 818.17,-433.48 829.09,-421.79 826.92,-410.87 818.17,-397.48 765.14,-316.38 687.85,-373.53 618.69,-313.87"/>
<polygon fill="black" stroke="black" points="620.87,-311.12 611.17,-306.87 616.11,-316.24 620.87,-311.12"/>
<text text-anchor="middle" x="604.17" y="-310.67" font-family="Times,serif" font-size="14.00">i1</text>
</g>
<!-- /prime/composites/generate_composites/composite&#45;sequence -->
<g id="node7" class="node">
<title>/prime/composites/generate_composites/composite&#45;sequence</title>
<g id="a_node7"><a xlink:href="../../flowstdlib/math/sequence.dot.svg" xlink:title="composite&#45;sequence">
<ellipse fill="aquamarine" stroke="black" cx="216.17" cy="-145" rx="81.59" ry="72"/>
<text text-anchor="middle" x="216.17" y="-141.3" font-family="Times,serif" font-size="14.00">composite&#45;sequence</text>
</a>
</g>
</g>
<!-- /prime/composites/generate_composites/start&#45;&gt;/prime/composites/generate_composites/composite&#45;sequence -->
<g id="edge7" class="edge">
<title>/prime/composites/generate_composites/start:s&#45;&gt;/prime/composites/generate_composites/composite&#45;sequence:n</title>
<path fill="none" stroke="black" d="M524.17,-453.48C524.17,-420.74 253.28,-456.67 230.17,-433.48 164.5,-367.59 212.52,-317.08 215.98,-227.01"/>
<polygon fill="black" stroke="black" points="219.48,-227.07 216.17,-217 212.48,-226.93 219.48,-227.07"/>
<text text-anchor="middle" x="200.67" y="-220.8" font-family="Times,serif" font-size="14.00">step</text>
</g>
<!-- /prime/composites/generate_composites/composites -->
<g id="node3" class="node">
<title>/prime/composites/generate_composites/composites</title>
<polygon fill="black" stroke="black" points="41.31,-12.44 119.17,0 197.02,-12.44 196.95,-32.56 41.39,-32.56 41.31,-12.44"/>
<text text-anchor="middle" x="119.17" y="-14.3" font-family="Times,serif" font-size="14.00" fill="white">composites</text>
</g>
<!-- /prime/composites/generate_composites/subsequence&#45;end -->
<g id="node4" class="node">
<title>/prime/composites/generate_composites/subsequence&#45;end</title>
<polygon fill="black" stroke="black" points="201.72,-12.44 314.17,0 426.61,-12.44 426.51,-32.56 201.83,-32.56 201.72,-12.44"/>
<text text-anchor="middle" x="314.17" y="-14.3" font-family="Times,serif" font-size="14.00" fill="white">subsequence&#45;end</text>
</g>
<!-- /prime/composites/generate_composites/multiply&#45;&gt;/prime/composites/generate_composites/composite&#45;sequence -->
<g id="edge6" class="edge">
<title>/prime/composites/generate_composites/multiply:e&#45;&gt;/prime/composites/generate_composites/composite&#45;sequence:n</title>
<path fill="none" stroke="black" d="M649.17,-280.87C661.12,-280.87 656.41,-262.65 648.17,-254 617.21,-221.51 268.98,-259.26 221.51,-225.61"/>
<polygon fill="black" stroke="black" points="224.42,-223.65 216.17,-217 218.47,-227.34 224.42,-223.65"/>
<text text-anchor="middle" x="233.67" y="-220.8" font-family="Times,serif" font-size="14.00">start</text>
</g>
<!-- initializer/prime/composites/generate_composites/multiply_1 -->
<!-- initializer/prime/composites/generate_composites/multiply_1&#45;&gt;/prime/composites/generate_composites/multiply -->
<g id="edge1" class="edge">
<title>initializer/prime/composites/generate_composites/multiply_1&#45;&gt;/prime/composites/generate_composites/multiply:w</title>
<path fill="none" stroke="blue" d="M517.07,-397.29C504.23,-364.16 481.3,-293.75 513.24,-282.42"/>
<polygon fill="blue" stroke="blue" points="513.83,-285.87 523.17,-280.87 512.75,-278.96 513.83,-285.87"/>
<text text-anchor="middle" x="515.17" y="-348.91" font-family="Times,serif" font-size="14.00">2</text>
</g>
<!-- /prime/composites/generate_composites/composite&#45;sequence&#45;&gt;/prime/composites/generate_composites/composites -->
<g id="edge8" class="edge">
<title>/prime/composites/generate_composites/composite&#45;sequence:s&#45;&gt;/prime/composites/generate_composites/composites:n</title>
<path fill="none" stroke="black" d="M216.17,-73C216.17,-30.53 135.12,-71.94 121.19,-43.88"/>
<polygon fill="black" stroke="black" points="124.61,-43.09 119.17,-34 117.75,-44.5 124.61,-43.09"/>
<text text-anchor="middle" x="134.19" y="-57.3" font-family="Times,serif" font-size="14.00">sequence</text>
</g>
<!-- /prime/composites/generate_composites/composite&#45;sequence&#45;&gt;/prime/composites/generate_composites/subsequence&#45;end -->
<g id="edge9" class="edge">
<title>/prime/composites/generate_composites/composite&#45;sequence:s&#45;&gt;/prime/composites/generate_composites/subsequence&#45;end:n</title>
<path fill="none" stroke="black" d="M216.17,-73C216.17,-30.15 298.05,-72.22 312.12,-43.96"/>
<polygon fill="black" stroke="black" points="315.58,-44.5 314.17,-34 308.73,-43.09 315.58,-44.5"/>
<text text-anchor="middle" x="251.65" y="-57.3" font-family="Times,serif" font-size="14.00">last</text>
</g>
<!-- /prime/composites/generate_composites/limit&#45;buffer&#45;&gt;/prime/composites/generate_composites/composite&#45;sequence -->
<g id="edge5" class="edge">
<title>/prime/composites/generate_composites/limit&#45;buffer:e&#45;&gt;/prime/composites/generate_composites/composite&#45;sequence:n</title>
<path fill="none" stroke="black" d="M179.17,-352.61C205.8,-352.61 191.14,-259.24 202.17,-235 204.4,-230.1 208.21,-228.19 211.29,-225.95"/>
<polygon fill="black" stroke="black" points="214.46,-227.46 216.17,-217 208.31,-224.11 214.46,-227.46"/>
<text text-anchor="middle" x="202.67" y="-220.8" font-family="Times,serif" font-size="14.00">end</text>
</g>
<!-- /prime/composites/generate_composites/limit&#45;buffer&#45;&gt;/prime/composites/generate_composites/limit&#45;buffer -->
<g id="edge4" class="edge">
<title>/prime/composites/generate_composites/limit&#45;buffer:e&#45;&gt;/prime/composites/generate_composites/limit&#45;buffer:w</title>
<path fill="none" stroke="black" d="M178.17,-352.61C195.76,-371.9 195.76,-410.48 109.17,-410.48 33.74,-410.48 24.02,-381.21 34.39,-360.91"/>
<polygon fill="black" stroke="black" points="37.33,-362.82 40.17,-352.61 31.58,-358.82 37.33,-362.82"/>
</g>
</g>
</svg>
