<?xml version="1.0" encoding="UTF-8" standalone="no"?>
<!DOCTYPE svg PUBLIC "-//W3C//DTD SVG 1.1//EN"
 "http://www.w3.org/Graphics/SVG/1.1/DTD/svg11.dtd">
<!-- Generated by graphviz version 2.42.3 (20191010.1750)
 -->
<!-- Title: generate_composites Pages: 1 -->
<svg width="746pt" height="569pt"
 viewBox="28.80 28.80 717.11 540.62" xmlns="http://www.w3.org/2000/svg" xmlns:xlink="http://www.w3.org/1999/xlink">
<g id="graph0" class="graph" transform="scale(1 1) rotate(0) translate(32.8 536.62)">
<title>generate_composites</title>
<polygon fill="white" stroke="transparent" points="-4,4 -4,-507.82 684.31,-507.82 684.31,4 -4,4"/>
<text text-anchor="middle" x="340.16" y="-488.62" font-family="Times,serif" font-size="14.00">generate_composites</text>
<!-- /prime/composites/generate_composites/limit -->
<g id="node1" class="node">
<title>/prime/composites/generate_composites/limit</title>
<polygon fill="white" stroke="black" points="66.43,-469.39 33.14,-481.82 -0.14,-469.39 -0.11,-449.26 66.4,-449.26 66.43,-469.39"/>
<text text-anchor="middle" x="33.14" y="-459.62" font-family="Times,serif" font-size="14.00">limit</text>
</g>
<!-- /prime/composites/generate_composites/limit&#45;buffer -->
<g id="node8" class="node">
<title>/prime/composites/generate_composites/limit&#45;buffer</title>
<g id="a_node8"><a xlink:href="../../flowstdlib/data/buffer/buffer.toml" xlink:title="limit&#45;buffer\n(Buffer)">
<ellipse fill="coral" stroke="black" cx="91.14" cy="-348.37" rx="57.14" ry="25.41"/>
<text text-anchor="middle" x="91.14" y="-351.17" font-family="Times,serif" font-size="14.00">limit&#45;buffer</text>
<text text-anchor="middle" x="91.14" y="-337.17" font-family="Times,serif" font-size="14.00">(Buffer)</text>
</a>
</g>
</g>
<!-- /prime/composites/generate_composites/limit&#45;&gt;/prime/composites/generate_composites/limit&#45;buffer -->
<g id="edge3" class="edge">
<title>/prime/composites/generate_composites/limit:s&#45;&gt;/prime/composites/generate_composites/limit&#45;buffer:w</title>
<path fill="none" stroke="black" d="M33.14,-447.82C33.14,-407.76 -3.98,-358.63 21.96,-349.77"/>
<polygon fill="black" stroke="black" points="22.71,-353.2 32.14,-348.37 21.76,-346.26 22.71,-353.2"/>
</g>
<!-- /prime/composites/generate_composites/start -->
<g id="node2" class="node">
<title>/prime/composites/generate_composites/start</title>
<polygon fill="white" stroke="black" points="460.27,-469.39 429.14,-481.82 398.02,-469.39 398.05,-449.26 460.24,-449.26 460.27,-469.39"/>
<text text-anchor="middle" x="429.14" y="-459.62" font-family="Times,serif" font-size="14.00">start</text>
</g>
<!-- /prime/composites/generate_composites/multiply -->
<g id="node5" class="node">
<title>/prime/composites/generate_composites/multiply</title>
<g id="a_node5"><a xlink:href="../../flowstdlib/math/multiply/multiply.toml" xlink:title="multiply\n(Multiply)">
<ellipse fill="coral" stroke="black" cx="482.14" cy="-279.46" rx="52.62" ry="25.41"/>
<text text-anchor="middle" x="482.14" y="-282.26" font-family="Times,serif" font-size="14.00">multiply</text>
<text text-anchor="middle" x="482.14" y="-268.26" font-family="Times,serif" font-size="14.00">(Multiply)</text>
</a>
</g>
</g>
<!-- /prime/composites/generate_composites/start&#45;&gt;/prime/composites/generate_composites/multiply -->
<g id="edge2" class="edge">
<title>/prime/composites/generate_composites/start:s&#45;&gt;/prime/composites/generate_composites/multiply:ne</title>
<path fill="none" stroke="black" d="M429.14,-447.82C429.14,-396.96 622.79,-465.33 657.14,-427.82 724.91,-353.85 630.55,-421.93 512.58,-310.68"/>
<polygon fill="black" stroke="black" points="514.76,-307.91 505.14,-303.46 509.88,-312.93 514.76,-307.91"/>
<text text-anchor="middle" x="510.59" y="-306.26" font-family="Times,serif" font-size="14.00">i1</text>
</g>
<!-- /prime/composites/generate_composites/composite&#45;sequence -->
<g id="node7" class="node">
<title>/prime/composites/generate_composites/composite&#45;sequence</title>
<g id="a_node7"><a xlink:href="../../flowstdlib/math/sequence.dot.svg" xlink:title="composite&#45;sequence">
<ellipse fill="aquamarine" stroke="black" cx="187.14" cy="-145" rx="72" ry="72"/>
<text text-anchor="middle" x="187.14" y="-140.8" font-family="Times,serif" font-size="14.00">composite&#45;sequence</text>
</a>
</g>
</g>
<!-- /prime/composites/generate_composites/start&#45;&gt;/prime/composites/generate_composites/composite&#45;sequence -->
<g id="edge7" class="edge">
<title>/prime/composites/generate_composites/start:s&#45;&gt;/prime/composites/generate_composites/composite&#45;sequence:n</title>
<path fill="none" stroke="black" d="M429.14,-447.82C429.14,-396.96 236.72,-464.17 201.14,-427.82 137.82,-363.15 183.56,-314.53 186.95,-227.01"/>
<polygon fill="black" stroke="black" points="190.45,-227.07 187.14,-217 183.45,-226.93 190.45,-227.07"/>
<text text-anchor="middle" x="175.87" y="-219.8" font-family="Times,serif" font-size="14.00">step</text>
</g>
<!-- /prime/composites/generate_composites/composites -->
<g id="node3" class="node">
<title>/prime/composites/generate_composites/composites</title>
<polygon fill="black" stroke="black" points="48.29,-12.44 110.14,0 172,-12.44 171.94,-32.56 48.35,-32.56 48.29,-12.44"/>
<text text-anchor="middle" x="110.14" y="-13.8" font-family="Times,serif" font-size="14.00" fill="white">composites</text>
</g>
<!-- /prime/composites/generate_composites/subsequence&#45;end -->
<g id="node4" class="node">
<title>/prime/composites/generate_composites/subsequence&#45;end</title>
<polygon fill="black" stroke="black" points="176.83,-12.44 264.14,0 351.46,-12.44 351.38,-32.56 176.91,-32.56 176.83,-12.44"/>
<text text-anchor="middle" x="264.14" y="-13.8" font-family="Times,serif" font-size="14.00" fill="white">subsequence&#45;end</text>
</g>
<!-- /prime/composites/generate_composites/multiply&#45;&gt;/prime/composites/generate_composites/composite&#45;sequence -->
<g id="edge6" class="edge">
<title>/prime/composites/generate_composites/multiply:e&#45;&gt;/prime/composites/generate_composites/composite&#45;sequence:n</title>
<path fill="none" stroke="black" d="M536.14,-279.46C547.47,-279.46 542.88,-262.27 535.14,-254 510.76,-227.93 237.89,-251.31 193.29,-225.24"/>
<polygon fill="black" stroke="black" points="195.93,-222.92 187.14,-217 190.32,-227.11 195.93,-222.92"/>
<text text-anchor="middle" x="199.2" y="-219.8" font-family="Times,serif" font-size="14.00">start</text>
</g>
<!-- initializer/prime/composites/generate_composites/multiply_1 -->
<!-- initializer/prime/composites/generate_composites/multiply_1&#45;&gt;/prime/composites/generate_composites/multiply -->
<g id="edge1" class="edge">
<title>initializer/prime/composites/generate_composites/multiply_1&#45;&gt;/prime/composites/generate_composites/multiply:w</title>
<path fill="none" stroke="blue" d="M422.06,-391.64C409.63,-359.48 387.94,-292.38 418.19,-281.09"/>
<polygon fill="blue" stroke="blue" points="418.84,-284.53 428.14,-279.46 417.71,-277.62 418.84,-284.53"/>
<text text-anchor="middle" x="417.64" y="-344.17" font-family="Times,serif" font-size="14.00">2</text>
</g>
<!-- /prime/composites/generate_composites/composite&#45;sequence&#45;&gt;/prime/composites/generate_composites/composites -->
<g id="edge8" class="edge">
<title>/prime/composites/generate_composites/composite&#45;sequence:s&#45;&gt;/prime/composites/generate_composites/composites:n</title>
<path fill="none" stroke="black" d="M187.14,-73C187.14,-38.68 125.53,-65.25 112.53,-43.78"/>
<polygon fill="black" stroke="black" points="115.92,-42.88 110.14,-34 109.12,-44.54 115.92,-42.88"/>
<text text-anchor="middle" x="123.03" y="-56.3" font-family="Times,serif" font-size="14.00">sequence</text>
</g>
<!-- /prime/composites/generate_composites/composite&#45;sequence&#45;&gt;/prime/composites/generate_composites/subsequence&#45;end -->
<g id="edge9" class="edge">
<title>/prime/composites/generate_composites/composite&#45;sequence:s&#45;&gt;/prime/composites/generate_composites/subsequence&#45;end:n</title>
<path fill="none" stroke="black" d="M187.14,-73C187.14,-38.68 248.76,-65.25 261.75,-43.78"/>
<polygon fill="black" stroke="black" points="265.17,-44.54 264.14,-34 258.37,-42.88 265.17,-44.54"/>
<text text-anchor="middle" x="215.89" y="-56.3" font-family="Times,serif" font-size="14.00">last</text>
</g>
<!-- /prime/composites/generate_composites/limit&#45;buffer&#45;&gt;/prime/composites/generate_composites/composite&#45;sequence -->
<g id="edge5" class="edge">
<title>/prime/composites/generate_composites/limit&#45;buffer:e&#45;&gt;/prime/composites/generate_composites/composite&#45;sequence:n</title>
<path fill="none" stroke="black" d="M150.14,-348.37C175.85,-348.37 162.41,-258.36 173.14,-235 175.39,-230.11 179.2,-228.19 182.28,-225.95"/>
<polygon fill="black" stroke="black" points="185.45,-227.46 187.14,-217 179.3,-224.12 185.45,-227.46"/>
<text text-anchor="middle" x="177.04" y="-219.8" font-family="Times,serif" font-size="14.00">end</text>
</g>
<!-- /prime/composites/generate_composites/limit&#45;buffer&#45;&gt;/prime/composites/generate_composites/limit&#45;buffer -->
<g id="edge4" class="edge">
<title>/prime/composites/generate_composites/limit&#45;buffer:e&#45;&gt;/prime/composites/generate_composites/limit&#45;buffer:w</title>
<path fill="none" stroke="black" d="M149.14,-348.37C166.46,-366.85 166.46,-403.82 91.14,-403.82 25.83,-403.82 17.15,-376.02 27.29,-356.58"/>
<polygon fill="black" stroke="black" points="30.19,-358.54 33.14,-348.37 24.49,-354.48 30.19,-358.54"/>
</g>
</g>
</svg>
