<?xml version="1.0" encoding="UTF-8" standalone="no"?>
<!DOCTYPE svg PUBLIC "-//W3C//DTD SVG 1.1//EN"
 "http://www.w3.org/Graphics/SVG/1.1/DTD/svg11.dtd">
<!-- Generated by graphviz version 2.40.1 (20161225.0304)
 -->
<!-- Title: generate_composites Pages: 1 -->
<svg width="897pt" height="558pt"
 viewBox="28.80 28.80 868.55 529.54" xmlns="http://www.w3.org/2000/svg" xmlns:xlink="http://www.w3.org/1999/xlink">
<g id="page0,1_graph0" class="graph" transform="scale(1 1) rotate(0) translate(32.8 525.5401)">
<title>generate_composites</title>
<polygon fill="#ffffff" stroke="transparent" points="-4,4 -4,-496.7401 835.7499,-496.7401 835.7499,4 -4,4"/>
<text text-anchor="middle" x="415.8749" y="-477.5401" font-family="Times,serif" font-size="14.00" fill="#000000">generate_composites</text>
<!-- /prime/composites/generate_composites/limit -->
<g id="node1" class="node">
<title>/prime/composites/generate_composites/limit</title>
<polygon fill="#ffffff" stroke="#000000" points="80.5066,-457.3024 40.1686,-469.7401 -.1694,-457.3024 -.1317,-437.1778 80.469,-437.1778 80.5066,-457.3024"/>
<text text-anchor="middle" x="40.1686" y="-448.0401" font-family="Times,serif" font-size="14.00" fill="#000000">limit</text>
</g>
<!-- /prime/composites/generate_composites/limit&#45;buffer -->
<g id="node8" class="node">
<title>/prime/composites/generate_composites/limit&#45;buffer</title>
<g id="a_node8"><a xlink:href="../../flowstdlib/data/buffer/buffer.html" xlink:title="limit&#45;buffer\n(buffer)">
<ellipse fill="#ff7f50" stroke="#000000" cx="110.1686" cy="-334.8701" rx="69.0935" ry="26.7407"/>
<text text-anchor="middle" x="110.1686" y="-338.6701" font-family="Times,serif" font-size="14.00" fill="#000000">limit&#45;buffer</text>
<text text-anchor="middle" x="110.1686" y="-323.6701" font-family="Times,serif" font-size="14.00" fill="#000000">(buffer)</text>
</a>
</g>
</g>
<!-- /prime/composites/generate_composites/limit&#45;&gt;/prime/composites/generate_composites/limit&#45;buffer -->
<g id="edge3" class="edge">
<title>/prime/composites/generate_composites/limit:s&#45;&gt;/prime/composites/generate_composites/limit&#45;buffer:w</title>
<path fill="none" stroke="#000000" d="M40.1686,-436.7401C40.1686,-395.5323 2.6631,-344.948 30.0597,-336.1913"/>
<polygon fill="#000000" stroke="#000000" points="30.7066,-339.6366 40.1686,-334.8701 29.7994,-332.6956 30.7066,-339.6366"/>
</g>
<!-- /prime/composites/generate_composites/start -->
<g id="node2" class="node">
<title>/prime/composites/generate_composites/start</title>
<polygon fill="#ffffff" stroke="#000000" points="569.1127,-457.3024 528.1686,-469.7401 487.2246,-457.3024 487.2628,-437.1778 569.0745,-437.1778 569.1127,-457.3024"/>
<text text-anchor="middle" x="528.1686" y="-448.0401" font-family="Times,serif" font-size="14.00" fill="#000000">start</text>
</g>
<!-- /prime/composites/generate_composites/multiply -->
<g id="node5" class="node">
<title>/prime/composites/generate_composites/multiply</title>
<g id="a_node5"><a xlink:href="../../flowstdlib/math/multiply/multiply.html" xlink:title="multiply">
<ellipse fill="#ff7f50" stroke="#000000" cx="578.1686" cy="-272" rx="49.2915" ry="18"/>
<text text-anchor="middle" x="578.1686" y="-268.3" font-family="Times,serif" font-size="14.00" fill="#000000">multiply</text>
</a>
</g>
</g>
<!-- /prime/composites/generate_composites/start&#45;&gt;/prime/composites/generate_composites/multiply -->
<g id="edge2" class="edge">
<title>/prime/composites/generate_composites/start:s&#45;&gt;/prime/composites/generate_composites/multiply:ne</title>
<path fill="none" stroke="#000000" d="M528.1686,-436.7401C528.1686,-403.7686 801.6943,-439.8654 824.1686,-415.7401 835.0747,-404.0329 833.1602,-392.9746 824.1686,-379.7401 764.6888,-292.1924 678.5298,-361.4684 602.9199,-296.2113"/>
<polygon fill="#000000" stroke="#000000" points="604.8742,-293.2489 595.1686,-289 600.1061,-298.374 604.8742,-293.2489"/>
<text text-anchor="middle" x="588.1686" y="-292.8" font-family="Times,serif" font-size="14.00" fill="#000000">i1</text>
</g>
<!-- /prime/composites/generate_composites/composite&#45;sequence -->
<g id="node7" class="node">
<title>/prime/composites/generate_composites/composite&#45;sequence</title>
<g id="a_node7"><a xlink:href="lib://flowstdlib/math/sequence.dot.svg" xlink:title="composite&#45;sequence">
<ellipse fill="#7fffd4" stroke="#000000" cx="218.1686" cy="-145" rx="82.1068" ry="72"/>
<text text-anchor="middle" x="218.1686" y="-141.3" font-family="Times,serif" font-size="14.00" fill="#000000">composite&#45;sequence</text>
</a>
</g>
</g>
<!-- /prime/composites/generate_composites/start&#45;&gt;/prime/composites/generate_composites/composite&#45;sequence -->
<g id="edge7" class="edge">
<title>/prime/composites/generate_composites/start:s&#45;&gt;/prime/composites/generate_composites/composite&#45;sequence:n</title>
<path fill="none" stroke="#000000" d="M528.1686,-436.7401C528.1686,-403.7686 255.4772,-439.0603 232.1686,-415.7401 172.0167,-355.5581 214.5417,-309.2867 217.9557,-227.1924"/>
<polygon fill="#000000" stroke="#000000" points="221.4589,-227.071 218.1686,-217 214.4604,-226.9247 221.4589,-227.071"/>
<text text-anchor="middle" x="202.6686" y="-220.8" font-family="Times,serif" font-size="14.00" fill="#000000">step</text>
</g>
<!-- /prime/composites/generate_composites/composites -->
<g id="node3" class="node">
<title>/prime/composites/generate_composites/composites</title>
<polygon fill="#000000" stroke="#000000" points="41.2069,-12.4377 120.1686,0 199.1304,-12.4377 199.0567,-32.5623 41.2806,-32.5623 41.2069,-12.4377"/>
<text text-anchor="middle" x="120.1686" y="-14.3" font-family="Times,serif" font-size="14.00" fill="#ffffff">composites</text>
</g>
<!-- /prime/composites/generate_composites/subsequence&#45;end -->
<g id="node4" class="node">
<title>/prime/composites/generate_composites/subsequence&#45;end</title>
<polygon fill="#000000" stroke="#000000" points="203.7242,-12.4377 316.1686,0 428.6131,-12.4377 428.5081,-32.5623 203.8292,-32.5623 203.7242,-12.4377"/>
<text text-anchor="middle" x="316.1686" y="-14.3" font-family="Times,serif" font-size="14.00" fill="#ffffff">subsequence&#45;end</text>
</g>
<!-- /prime/composites/generate_composites/multiply&#45;&gt;/prime/composites/generate_composites/composite&#45;sequence -->
<g id="edge6" class="edge">
<title>/prime/composites/generate_composites/multiply:e&#45;&gt;/prime/composites/generate_composites/composite&#45;sequence:n</title>
<path fill="none" stroke="#000000" d="M628.1686,-272C636.1686,-272 633.5653,-259.9056 628.1686,-254 599.5426,-222.6743 271.148,-256.9955 223.8342,-225.596"/>
<polygon fill="#000000" stroke="#000000" points="226.5942,-223.4235 218.1686,-217 220.7495,-227.2757 226.5942,-223.4235"/>
<text text-anchor="middle" x="235.6686" y="-220.8" font-family="Times,serif" font-size="14.00" fill="#000000">start</text>
</g>
<!-- initializer/prime/composites/generate_composites/multiply_1 -->
<!-- initializer/prime/composites/generate_composites/multiply_1&#45;&gt;/prime/composites/generate_composites/multiply -->
<g id="edge1" class="edge">
<title>initializer/prime/composites/generate_composites/multiply_1&#45;&gt;/prime/composites/generate_composites/multiply:w</title>
<path fill="none" stroke="#0000ff" d="M520.9178,-379.7246C509.0534,-348.0801 489.5295,-284.8011 518.2118,-273.6861"/>
<polygon fill="#0000ff" stroke="#0000ff" points="518.8934,-277.1206 528.1686,-272 517.7246,-270.2188 518.8934,-277.1206"/>
<text text-anchor="middle" x="519.1686" y="-331.1701" font-family="Times,serif" font-size="14.00" fill="#000000">2</text>
</g>
<!-- /prime/composites/generate_composites/composite&#45;sequence&#45;&gt;/prime/composites/generate_composites/composites -->
<g id="edge8" class="edge">
<title>/prime/composites/generate_composites/composite&#45;sequence:s&#45;&gt;/prime/composites/generate_composites/composites:n</title>
<path fill="none" stroke="#000000" d="M218.1686,-73C218.1686,-29.9989 136.2886,-71.4945 122.2155,-43.0162"/>
<polygon fill="#000000" stroke="#000000" points="125.6,-42.0967 120.1686,-33 118.7418,-43.4983 125.6,-42.0967"/>
<text text-anchor="middle" x="135.1866" y="-56.7987" font-family="Times,serif" font-size="14.00" fill="#000000">sequence</text>
</g>
<!-- /prime/composites/generate_composites/composite&#45;sequence&#45;&gt;/prime/composites/generate_composites/subsequence&#45;end -->
<g id="edge9" class="edge">
<title>/prime/composites/generate_composites/composite&#45;sequence:s&#45;&gt;/prime/composites/generate_composites/subsequence&#45;end:n</title>
<path fill="none" stroke="#000000" d="M218.1686,-73C218.1686,-29.9989 300.0486,-71.4945 314.1218,-43.0162"/>
<polygon fill="#000000" stroke="#000000" points="317.5955,-43.4983 316.1686,-33 310.7373,-42.0967 317.5955,-43.4983"/>
<text text-anchor="middle" x="253.6507" y="-56.7987" font-family="Times,serif" font-size="14.00" fill="#000000">last</text>
</g>
<!-- /prime/composites/generate_composites/limit&#45;buffer&#45;&gt;/prime/composites/generate_composites/composite&#45;sequence -->
<g id="edge5" class="edge">
<title>/prime/composites/generate_composites/limit&#45;buffer:e&#45;&gt;/prime/composites/generate_composites/composite&#45;sequence:n</title>
<path fill="none" stroke="#000000" d="M180.1686,-334.8701C225.819,-334.8701 184.3764,-276.1366 204.1686,-235 206.503,-230.1482 210.3083,-228.2317 213.3628,-225.9815"/>
<polygon fill="#000000" stroke="#000000" points="216.5367,-227.4684 218.1686,-217 210.3647,-224.1659 216.5367,-227.4684"/>
<text text-anchor="middle" x="204.6686" y="-220.8" font-family="Times,serif" font-size="14.00" fill="#000000">end</text>
</g>
<!-- /prime/composites/generate_composites/limit&#45;buffer&#45;&gt;/prime/composites/generate_composites/limit&#45;buffer -->
<g id="edge4" class="edge">
<title>/prime/composites/generate_composites/limit&#45;buffer:e&#45;&gt;/prime/composites/generate_composites/limit&#45;buffer:w</title>
<path fill="none" stroke="#000000" d="M180.1686,-334.8701C197.4651,-354.1601 197.4651,-392.7401 110.1686,-392.7401 34.1252,-392.7401 24.3228,-363.4654 34.492,-343.1675"/>
<polygon fill="#000000" stroke="#000000" points="37.4108,-345.0997 40.1686,-334.8701 31.6335,-341.1471 37.4108,-345.0997"/>
</g>
</g>
</svg>
