<?xml version="1.0" encoding="UTF-8" standalone="no"?>
<!DOCTYPE svg PUBLIC "-//W3C//DTD SVG 1.1//EN"
 "http://www.w3.org/Graphics/SVG/1.1/DTD/svg11.dtd">
<!-- Generated by graphviz version 2.40.1 (0)
 -->
<!-- Title: generate_composites Pages: 1 -->
<svg width="891pt" height="576pt"
 viewBox="28.80 28.80 862.47 547.28" xmlns="http://www.w3.org/2000/svg" xmlns:xlink="http://www.w3.org/1999/xlink">
<g id="graph0" class="graph" transform="scale(1 1) rotate(0) translate(32.8 543.2802)">
<title>generate_composites</title>
<polygon fill="#ffffff" stroke="transparent" points="-4,4 -4,-514.4802 829.6667,-514.4802 829.6667,4 -4,4"/>
<text text-anchor="middle" x="412.8333" y="-495.2802" font-family="Times,serif" font-size="14.00" fill="#000000">generate_composites</text>
<!-- /prime/composites/generate_composites/limit -->
<g id="node1" class="node">
<title>/prime/composites/generate_composites/limit</title>
<polygon fill="#ffffff" stroke="#000000" points="80.5066,-475.0425 40.1686,-487.4802 -.1694,-475.0425 -.1317,-454.9179 80.469,-454.9179 80.5066,-475.0425"/>
<text text-anchor="middle" x="40.1686" y="-465.7802" font-family="Times,serif" font-size="14.00" fill="#000000">limit</text>
</g>
<!-- /prime/composites/generate_composites/limit&#45;buffer -->
<g id="node8" class="node">
<title>/prime/composites/generate_composites/limit&#45;buffer</title>
<g id="a_node8"><a xlink:href="../../flowstdlib/data/buffer/buffer.toml" xlink:title="limit&#45;buffer\n(Buffer)">
<ellipse fill="#ff7f50" stroke="#000000" cx="109.1686" cy="-352.6102" rx="68.6788" ry="26.7407"/>
<text text-anchor="middle" x="109.1686" y="-356.4102" font-family="Times,serif" font-size="14.00" fill="#000000">limit&#45;buffer</text>
<text text-anchor="middle" x="109.1686" y="-341.4102" font-family="Times,serif" font-size="14.00" fill="#000000">(Buffer)</text>
</a>
</g>
</g>
<!-- /prime/composites/generate_composites/limit&#45;&gt;/prime/composites/generate_composites/limit&#45;buffer -->
<g id="edge3" class="edge">
<title>/prime/composites/generate_composites/limit:s&#45;&gt;/prime/composites/generate_composites/limit&#45;buffer:w</title>
<path fill="none" stroke="#000000" d="M40.1686,-454.4802C40.1686,-413.2724 2.6631,-362.6881 30.0597,-353.9314"/>
<polygon fill="#000000" stroke="#000000" points="30.7066,-357.3767 40.1686,-352.6102 29.7994,-350.4357 30.7066,-357.3767"/>
</g>
<!-- /prime/composites/generate_composites/start -->
<g id="node2" class="node">
<title>/prime/composites/generate_composites/start</title>
<polygon fill="#ffffff" stroke="#000000" points="565.1127,-475.0425 524.1686,-487.4802 483.2246,-475.0425 483.2628,-454.9179 565.0745,-454.9179 565.1127,-475.0425"/>
<text text-anchor="middle" x="524.1686" y="-465.7802" font-family="Times,serif" font-size="14.00" fill="#000000">start</text>
</g>
<!-- /prime/composites/generate_composites/multiply -->
<g id="node5" class="node">
<title>/prime/composites/generate_composites/multiply</title>
<g id="a_node5"><a xlink:href="../../flowstdlib/math/multiply/multiply.toml" xlink:title="multiply\n(Multiply)">
<ellipse fill="#ff7f50" stroke="#000000" cx="586.1686" cy="-280.8701" rx="61.5366" ry="26.7407"/>
<text text-anchor="middle" x="586.1686" y="-284.6701" font-family="Times,serif" font-size="14.00" fill="#000000">multiply</text>
<text text-anchor="middle" x="586.1686" y="-269.6701" font-family="Times,serif" font-size="14.00" fill="#000000">(Multiply)</text>
</a>
</g>
</g>
<!-- /prime/composites/generate_composites/start&#45;&gt;/prime/composites/generate_composites/multiply -->
<g id="edge2" class="edge">
<title>/prime/composites/generate_composites/start:s&#45;&gt;/prime/composites/generate_composites/multiply:ne</title>
<path fill="none" stroke="#000000" d="M524.1686,-454.4802C524.1686,-421.7303 795.8512,-457.4487 818.1686,-433.4802 829.0719,-421.7704 826.8978,-410.8892 818.1686,-397.4802 765.2099,-316.1294 687.9696,-372.704 618.7066,-312.8849"/>
<polygon fill="#000000" stroke="#000000" points="620.8736,-310.1204 611.1686,-305.8701 616.1048,-315.2448 620.8736,-310.1204"/>
<text text-anchor="middle" x="604.1686" y="-309.6701" font-family="Times,serif" font-size="14.00" fill="#000000">i1</text>
</g>
<!-- /prime/composites/generate_composites/composite&#45;sequence -->
<g id="node7" class="node">
<title>/prime/composites/generate_composites/composite&#45;sequence</title>
<g id="a_node7"><a xlink:href="../../flowstdlib/math/sequence.dot.svg" xlink:title="composite&#45;sequence">
<ellipse fill="#7fffd4" stroke="#000000" cx="216.1686" cy="-145" rx="81.5938" ry="72"/>
<text text-anchor="middle" x="216.1686" y="-141.3" font-family="Times,serif" font-size="14.00" fill="#000000">composite&#45;sequence</text>
</a>
</g>
</g>
<!-- /prime/composites/generate_composites/start&#45;&gt;/prime/composites/generate_composites/composite&#45;sequence -->
<g id="edge7" class="edge">
<title>/prime/composites/generate_composites/start:s&#45;&gt;/prime/composites/generate_composites/composite&#45;sequence:n</title>
<path fill="none" stroke="#000000" d="M524.1686,-454.4802C524.1686,-421.7303 253.2483,-456.7157 230.1686,-433.4802 164.6117,-367.4809 212.5262,-317.0676 215.9763,-227.0054"/>
<polygon fill="#000000" stroke="#000000" points="219.4757,-227.0655 216.1686,-217 212.477,-226.9308 219.4757,-227.0655"/>
<text text-anchor="middle" x="200.6686" y="-220.8" font-family="Times,serif" font-size="14.00" fill="#000000">step</text>
</g>
<!-- /prime/composites/generate_composites/composites -->
<g id="node3" class="node">
<title>/prime/composites/generate_composites/composites</title>
<polygon fill="#000000" stroke="#000000" points="41.3142,-12.4377 119.1686,0 197.0231,-12.4377 196.9504,-32.5623 41.3869,-32.5623 41.3142,-12.4377"/>
<text text-anchor="middle" x="119.1686" y="-14.3" font-family="Times,serif" font-size="14.00" fill="#ffffff">composites</text>
</g>
<!-- /prime/composites/generate_composites/subsequence&#45;end -->
<g id="node4" class="node">
<title>/prime/composites/generate_composites/subsequence&#45;end</title>
<polygon fill="#000000" stroke="#000000" points="201.7242,-12.4377 314.1686,0 426.6131,-12.4377 426.5081,-32.5623 201.8292,-32.5623 201.7242,-12.4377"/>
<text text-anchor="middle" x="314.1686" y="-14.3" font-family="Times,serif" font-size="14.00" fill="#ffffff">subsequence&#45;end</text>
</g>
<!-- /prime/composites/generate_composites/multiply&#45;&gt;/prime/composites/generate_composites/composite&#45;sequence -->
<g id="edge6" class="edge">
<title>/prime/composites/generate_composites/multiply:e&#45;&gt;/prime/composites/generate_composites/composite&#45;sequence:n</title>
<path fill="none" stroke="#000000" d="M648.1686,-280.8701C660.1109,-280.8701 656.2447,-262.7974 648.1686,-254 617.8163,-220.9369 269.0627,-259.1797 221.5233,-225.6068"/>
<polygon fill="#000000" stroke="#000000" points="224.4231,-223.6419 216.1686,-217 218.4795,-227.3398 224.4231,-223.6419"/>
<text text-anchor="middle" x="233.6686" y="-220.8" font-family="Times,serif" font-size="14.00" fill="#000000">start</text>
</g>
<!-- initializer/prime/composites/generate_composites/multiply_1 -->
<!-- initializer/prime/composites/generate_composites/multiply_1&#45;&gt;/prime/composites/generate_composites/multiply -->
<g id="edge1" class="edge">
<title>initializer/prime/composites/generate_composites/multiply_1&#45;&gt;/prime/composites/generate_composites/multiply:w</title>
<path fill="none" stroke="#0000ff" d="M516.8325,-397.3261C504.0867,-363.5973 482.1282,-293.6589 514.2241,-282.4115"/>
<polygon fill="#0000ff" stroke="#0000ff" points="514.8228,-285.8606 524.1686,-280.8701 513.7505,-278.9432 514.8228,-285.8606"/>
<text text-anchor="middle" x="515.1686" y="-348.9102" font-family="Times,serif" font-size="14.00" fill="#000000">2</text>
</g>
<!-- /prime/composites/generate_composites/composite&#45;sequence&#45;&gt;/prime/composites/generate_composites/composites -->
<g id="edge8" class="edge">
<title>/prime/composites/generate_composites/composite&#45;sequence:s&#45;&gt;/prime/composites/generate_composites/composites:n</title>
<path fill="none" stroke="#000000" d="M216.1686,-73C216.1686,-30.3747 135.1242,-71.2155 121.1946,-42.936"/>
<polygon fill="#000000" stroke="#000000" points="124.5961,-42.0991 119.1686,-33 117.7372,-43.4977 124.5961,-42.0991"/>
<text text-anchor="middle" x="134.1864" y="-56.7988" font-family="Times,serif" font-size="14.00" fill="#000000">sequence</text>
</g>
<!-- /prime/composites/generate_composites/composite&#45;sequence&#45;&gt;/prime/composites/generate_composites/subsequence&#45;end -->
<g id="edge9" class="edge">
<title>/prime/composites/generate_composites/composite&#45;sequence:s&#45;&gt;/prime/composites/generate_composites/subsequence&#45;end:n</title>
<path fill="none" stroke="#000000" d="M216.1686,-73C216.1686,-29.9989 298.0486,-71.4945 312.1218,-43.0162"/>
<polygon fill="#000000" stroke="#000000" points="315.5955,-43.4983 314.1686,-33 308.7373,-42.0967 315.5955,-43.4983"/>
<text text-anchor="middle" x="251.6507" y="-56.7987" font-family="Times,serif" font-size="14.00" fill="#000000">last</text>
</g>
<!-- /prime/composites/generate_composites/limit&#45;buffer&#45;&gt;/prime/composites/generate_composites/composite&#45;sequence -->
<g id="edge5" class="edge">
<title>/prime/composites/generate_composites/limit&#45;buffer:e&#45;&gt;/prime/composites/generate_composites/composite&#45;sequence:n</title>
<path fill="none" stroke="#000000" d="M178.1686,-352.6102C204.8429,-352.6102 191.0205,-259.2329 202.1686,-235 204.4189,-230.1086 208.2294,-228.1946 211.3073,-225.9554"/>
<polygon fill="#000000" stroke="#000000" points="214.4738,-227.4584 216.1686,-217 208.3218,-224.1188 214.4738,-227.4584"/>
<text text-anchor="middle" x="202.6686" y="-220.8" font-family="Times,serif" font-size="14.00" fill="#000000">end</text>
</g>
<!-- /prime/composites/generate_composites/limit&#45;buffer&#45;&gt;/prime/composites/generate_composites/limit&#45;buffer -->
<g id="edge4" class="edge">
<title>/prime/composites/generate_composites/limit&#45;buffer:e&#45;&gt;/prime/composites/generate_composites/limit&#45;buffer:w</title>
<path fill="none" stroke="#000000" d="M178.1686,-352.6102C195.758,-371.9002 195.758,-410.4802 109.1686,-410.4802 33.7412,-410.4802 24.0181,-381.2055 34.3911,-360.9076"/>
<polygon fill="#000000" stroke="#000000" points="37.3267,-362.8168 40.1686,-352.6102 31.5821,-358.8168 37.3267,-362.8168"/>
</g>
</g>
</svg>
