<?xml version="1.0" encoding="UTF-8" standalone="no"?>
<!DOCTYPE svg PUBLIC "-//W3C//DTD SVG 1.1//EN"
 "http://www.w3.org/Graphics/SVG/1.1/DTD/svg11.dtd">
<!-- Generated by graphviz version 2.42.3 (20191010.1750)
 -->
<!-- Title: prime Pages: 1 -->
<svg width="829pt" height="609pt"
 viewBox="28.80 28.80 799.76 580.45" xmlns="http://www.w3.org/2000/svg" xmlns:xlink="http://www.w3.org/1999/xlink">
<g id="graph0" class="graph" transform="scale(1 1) rotate(0) translate(32.8 576.45)">
<title>prime</title>
<polygon fill="white" stroke="transparent" points="-4,4 -4,-547.65 766.96,-547.65 766.96,4 -4,4"/>
<text text-anchor="middle" x="381.48" y="-528.45" font-family="Times,serif" font-size="14.00">prime</text>
<!-- /prime/args -->
<g id="node1" class="node">
<title>/prime/args</title>
<ellipse fill="coral" stroke="black" cx="32.2" cy="-496.19" rx="32.4" ry="25.41"/>
<text text-anchor="middle" x="32.2" y="-498.99" font-family="Times,serif" font-size="14.00">args</text>
<text text-anchor="middle" x="32.2" y="-484.99" font-family="Times,serif" font-size="14.00">(Get)</text>
</g>
<!-- /prime/to_number -->
<g id="node2" class="node">
<title>/prime/to_number</title>
<ellipse fill="coral" stroke="black" cx="126.2" cy="-408.28" rx="60.8" ry="25.41"/>
<text text-anchor="middle" x="126.2" y="-411.08" font-family="Times,serif" font-size="14.00">to_number</text>
<text text-anchor="middle" x="126.2" y="-397.08" font-family="Times,serif" font-size="14.00">(ToNumber)</text>
</g>
<!-- /prime/args&#45;&gt;/prime/to_number -->
<g id="edge3" class="edge">
<title>/prime/args:e&#45;&gt;/prime/to_number:w</title>
<path fill="none" stroke="black" d="M66.2,-496.19C100.4,-496.19 43.3,-428.88 54.67,-412.06"/>
<polygon fill="black" stroke="black" points="56.19,-415.22 64.2,-408.28 53.61,-408.71 56.19,-415.22"/>
<text text-anchor="middle" x="57.1" y="-455.16" font-family="Times,serif" font-size="14.00">[1]</text>
</g>
<!-- /prime/candidates -->
<g id="node3" class="node">
<title>/prime/candidates</title>
<g id="a_node3"><a xlink:href="lib://flowstdlib/math/sequence.dot" xlink:title="candidates">
<ellipse fill="aquamarine" stroke="black" cx="187.2" cy="-273.82" rx="72" ry="72"/>
<text text-anchor="middle" x="187.2" y="-269.62" font-family="Times,serif" font-size="14.00">candidates</text>
</a>
</g>
</g>
<!-- /prime/to_number&#45;&gt;/prime/candidates -->
<g id="edge4" class="edge">
<title>/prime/to_number:e&#45;&gt;/prime/candidates:n</title>
<path fill="none" stroke="black" d="M188.2,-408.28C212.71,-408.28 193.17,-381.24 188.25,-355.8"/>
<polygon fill="black" stroke="black" points="191.73,-355.4 187.2,-345.82 184.76,-356.13 191.73,-355.4"/>
<text text-anchor="middle" x="177.09" y="-348.62" font-family="Times,serif" font-size="14.00">end</text>
</g>
<!-- /prime/all&#45;numbers -->
<g id="node4" class="node">
<title>/prime/all&#45;numbers</title>
<ellipse fill="coral" stroke="black" cx="277.2" cy="-126.37" rx="65.96" ry="25.41"/>
<text text-anchor="middle" x="277.2" y="-129.17" font-family="Times,serif" font-size="14.00">all&#45;numbers</text>
<text text-anchor="middle" x="277.2" y="-115.17" font-family="Times,serif" font-size="14.00">(Accumulate)</text>
</g>
<!-- /prime/to_number&#45;&gt;/prime/all&#45;numbers -->
<g id="edge6" class="edge">
<title>/prime/to_number:e&#45;&gt;/prime/all&#45;numbers:n</title>
<path fill="none" stroke="black" d="M188.2,-408.28C199.52,-408.28 193.51,-392.23 187.2,-382.82 165.15,-349.95 127.6,-379.12 106.2,-345.82 71.6,-291.98 70.8,-255.14 106.2,-201.82 126.47,-171.29 147.11,-180.4 182.2,-169.82 199.32,-164.66 253.72,-170.5 271.51,-160.23"/>
<polygon fill="black" stroke="black" points="274.49,-162.07 277.2,-151.82 268.7,-158.14 274.49,-162.07"/>
<text text-anchor="middle" x="245.71" y="-154.62" font-family="Times,serif" font-size="14.00">chunk_size</text>
</g>
<!-- /prime/composites -->
<g id="node6" class="node">
<title>/prime/composites</title>
<g id="a_node6"><a xlink:href="composites.toml.dot" xlink:title="composites">
<ellipse fill="aquamarine" stroke="black" cx="609.2" cy="-273.82" rx="72" ry="72"/>
<text text-anchor="middle" x="609.2" y="-269.62" font-family="Times,serif" font-size="14.00">composites</text>
</a>
</g>
</g>
<!-- /prime/to_number&#45;&gt;/prime/composites -->
<g id="edge9" class="edge">
<title>/prime/to_number:e&#45;&gt;/prime/composites:n</title>
<path fill="none" stroke="black" d="M188.2,-408.28C232.35,-408.28 561.01,-395.06 604.46,-354.82"/>
<polygon fill="black" stroke="black" points="607.64,-356.3 609.2,-345.82 601.44,-353.04 607.64,-356.3"/>
<text text-anchor="middle" x="595.98" y="-348.62" font-family="Times,serif" font-size="14.00">limit</text>
</g>
<!-- /prime/candidates&#45;&gt;/prime/all&#45;numbers -->
<g id="edge5" class="edge">
<title>/prime/candidates:s&#45;&gt;/prime/all&#45;numbers:w</title>
<path fill="none" stroke="black" d="M187.2,-201.82C187.2,-170.74 177.72,-135.45 200.01,-127.86"/>
<polygon fill="black" stroke="black" points="200.81,-131.28 210.2,-126.37 199.8,-124.35 200.81,-131.28"/>
<text text-anchor="middle" x="159.6" y="-158.81" font-family="Times,serif" font-size="14.00">sequence</text>
<text text-anchor="middle" x="192.32" y="-129.17" font-family="Times,serif" font-size="14.00">values</text>
</g>
<!-- /prime/all&#45;numbers&#45;&gt;/prime/all&#45;numbers -->
<g id="edge7" class="edge">
<title>/prime/all&#45;numbers:s&#45;&gt;/prime/all&#45;numbers:n</title>
<path fill="none" stroke="black" d="M277.2,-100.37C305.11,-94.12 360.93,-94.12 360.93,-126.37 360.93,-155.09 316.65,-158.23 287.25,-154.16"/>
<polygon fill="black" stroke="black" points="287.66,-150.68 277.2,-152.37 286.43,-157.57 287.66,-150.68"/>
<text text-anchor="middle" x="308.73" y="-89.16" font-family="Times,serif" font-size="14.00">chunk_size</text>
<text text-anchor="middle" x="308.69" y="-155.17" font-family="Times,serif" font-size="14.00">chunk_size</text>
</g>
<!-- /prime/all&#45;numbers&#45;&gt;/prime/all&#45;numbers -->
<g id="edge8" class="edge">
<title>/prime/all&#45;numbers:s&#45;&gt;/prime/all&#45;numbers:n</title>
<path fill="none" stroke="black" d="M277.2,-100.37C311.11,-87.87 378.93,-87.87 378.93,-126.37 378.93,-161.41 322.75,-164.56 287.09,-155.42"/>
<polygon fill="black" stroke="black" points="287.79,-151.97 277.2,-152.37 285.73,-158.66 287.79,-151.97"/>
<text text-anchor="middle" x="259.35" y="-89.16" font-family="Times,serif" font-size="14.00">partial</text>
<text text-anchor="middle" x="259.32" y="-155.17" font-family="Times,serif" font-size="14.00">partial</text>
</g>
<!-- /prime/subtract -->
<g id="node7" class="node">
<title>/prime/subtract</title>
<ellipse fill="coral" stroke="black" cx="417.2" cy="-25.46" rx="50.79" ry="25.41"/>
<text text-anchor="middle" x="417.2" y="-28.26" font-family="Times,serif" font-size="14.00">subtract</text>
<text text-anchor="middle" x="417.2" y="-14.26" font-family="Times,serif" font-size="14.00">(Remove)</text>
</g>
<!-- /prime/all&#45;numbers&#45;&gt;/prime/subtract -->
<g id="edge10" class="edge">
<title>/prime/all&#45;numbers:se&#45;&gt;/prime/subtract:nw</title>
<path fill="none" stroke="black" d="M301.2,-101.37C332.06,-70.51 356.61,-80.88 386.48,-56.46"/>
<polygon fill="black" stroke="black" points="389.15,-58.77 394.2,-49.46 384.44,-53.58 389.15,-58.77"/>
<text text-anchor="middle" x="330.32" y="-64.3" font-family="Times,serif" font-size="14.00">chunk</text>
<text text-anchor="middle" x="379.82" y="-52.26" font-family="Times,serif" font-size="14.00">array</text>
</g>
<!-- initializer/prime/all&#45;numbers_1 -->
<!-- initializer/prime/all&#45;numbers_1&#45;&gt;/prime/all&#45;numbers -->
<g id="edge1" class="edge">
<title>initializer/prime/all&#45;numbers_1&#45;&gt;/prime/all&#45;numbers:n</title>
<path fill="none" stroke="blue" stroke-dasharray="1,5" d="M363.2,-256.41C329.98,-238.31 284.2,-205.84 277.92,-161.97"/>
<polygon fill="blue" stroke="blue" points="281.4,-161.55 277.2,-151.82 274.42,-162.05 281.4,-161.55"/>
<text text-anchor="middle" x="288.86" y="-172.62" font-family="Times,serif" font-size="14.00">[]</text>
</g>
<!-- /prime/composites&#45;&gt;/prime/subtract -->
<g id="edge11" class="edge">
<title>/prime/composites:s&#45;&gt;/prime/subtract:n</title>
<path fill="none" stroke="black" d="M609.2,-201.82C609.2,-121.79 490.04,-211.05 436.2,-151.82 407.9,-120.69 415.63,-99.98 417.01,-61.18"/>
<polygon fill="black" stroke="black" points="420.52,-60.97 417.2,-50.91 413.52,-60.85 420.52,-60.97"/>
<text text-anchor="middle" x="404.7" y="-154.62" font-family="Times,serif" font-size="14.00">composites</text>
<text text-anchor="middle" x="432.36" y="-53.71" font-family="Times,serif" font-size="14.00">value</text>
</g>
<!-- /prime/print -->
<g id="node9" class="node">
<title>/prime/print</title>
<ellipse fill="coral" stroke="black" cx="719.2" cy="-126.37" rx="43.53" ry="25.41"/>
<text text-anchor="middle" x="719.2" y="-129.17" font-family="Times,serif" font-size="14.00">print</text>
<text text-anchor="middle" x="719.2" y="-115.17" font-family="Times,serif" font-size="14.00">(Stdout)</text>
</g>
<!-- /prime/composites&#45;&gt;/prime/print -->
<g id="edge13" class="edge">
<title>/prime/composites:s&#45;&gt;/prime/print:w</title>
<path fill="none" stroke="black" d="M609.2,-201.82C609.2,-168.12 647.8,-180.06 666.2,-151.82 669.64,-146.55 668.34,-139.69 668.14,-134.42"/>
<polygon fill="black" stroke="black" points="670.98,-136.46 674.2,-126.37 665.39,-132.25 670.98,-136.46"/>
<text text-anchor="middle" x="612.74" y="-172.21" font-family="Times,serif" font-size="14.00">composites</text>
</g>
<!-- /prime/subtract&#45;&gt;/prime/subtract -->
<g id="edge12" class="edge">
<title>/prime/subtract:e&#45;&gt;/prime/subtract:nw</title>
<path fill="none" stroke="black" d="M468.2,-25.46C486.1,-42.27 486.1,-75.91 431.2,-75.91 386.6,-75.91 378.23,-64.91 386.26,-55"/>
<polygon fill="black" stroke="black" points="388.71,-57.52 394.2,-48.46 384.26,-52.11 388.71,-57.52"/>
<text text-anchor="middle" x="408.58" y="-51.26" font-family="Times,serif" font-size="14.00">array</text>
</g>
<!-- initializer/prime/subtract_0 -->
<!-- initializer/prime/subtract_0&#45;&gt;/prime/subtract -->
<g id="edge2" class="edge">
<title>initializer/prime/subtract_0&#45;&gt;/prime/subtract:n</title>
<path fill="none" stroke="blue" stroke-dasharray="1,5" d="M515.29,-109.31C483.35,-94.58 439.3,-73.02 423.31,-59.3"/>
<polygon fill="blue" stroke="blue" points="425.91,-56.94 417.2,-50.91 420.26,-61.06 425.91,-56.94"/>
<text text-anchor="middle" x="463.7" y="-71.71" font-family="Times,serif" font-size="14.00">9</text>
</g>
</g>
</svg>
