<?xml version="1.0" encoding="UTF-8" standalone="no"?>
<!DOCTYPE svg PUBLIC "-//W3C//DTD SVG 1.1//EN"
 "http://www.w3.org/Graphics/SVG/1.1/DTD/svg11.dtd">
<!-- Generated by graphviz version 2.40.1 (20161225.0304)
 -->
<!-- Title: candidates Pages: 1 -->
<svg width="1000pt" height="424pt"
 viewBox="28.80 28.80 971.47 395.54" xmlns="http://www.w3.org/2000/svg" xmlns:xlink="http://www.w3.org/1999/xlink">
<g id="page0,1_graph0" class="graph" transform="scale(1 1) rotate(0) translate(32.8 391.5401)">
<title>candidates</title>
<polygon fill="#ffffff" stroke="transparent" points="-4,4 -4,-362.7401 938.6678,-362.7401 938.6678,4 -4,4"/>
<text text-anchor="middle" x="467.3339" y="-343.5401" font-family="Times,serif" font-size="14.00" fill="#000000">candidates</text>
<!-- /prime/candidates/start -->
<g id="node1" class="node">
<title>/prime/candidates/start</title>
<polygon fill="#ffffff" stroke="#000000" points="492.579,-323.3024 451.6349,-335.7401 410.6909,-323.3024 410.7291,-303.1778 492.5408,-303.1778 492.579,-323.3024"/>
<text text-anchor="middle" x="451.6349" y="-314.0401" font-family="Times,serif" font-size="14.00" fill="#000000">start</text>
</g>
<!-- /prime/candidates/compare -->
<g id="node6" class="node">
<title>/prime/candidates/compare</title>
<g id="a_node6"><a xlink:href="../../flowstdlib/control/compare_switch/compare_switch.html" xlink:title="compare\n(compare_switch)">
<ellipse fill="#ff7f50" stroke="#000000" cx="496.6349" cy="-167.8701" rx="101.6471" ry="26.7407"/>
<text text-anchor="middle" x="496.6349" y="-171.6701" font-family="Times,serif" font-size="14.00" fill="#000000">compare</text>
<text text-anchor="middle" x="496.6349" y="-156.6701" font-family="Times,serif" font-size="14.00" fill="#000000">(compare_switch)</text>
</a>
</g>
</g>
<!-- /prime/candidates/start&#45;&gt;/prime/candidates/compare -->
<g id="edge3" class="edge">
<title>/prime/candidates/start:s&#45;&gt;/prime/candidates/compare:ne</title>
<path fill="none" stroke="#000000" d="M451.6349,-302.7401C451.6349,-290.6113 508.9167,-229.2678 521.2156,-203.8805"/>
<polygon fill="#000000" stroke="#000000" points="524.6963,-204.2624 522.6349,-193.8701 517.7657,-203.2796 524.6963,-204.2624"/>
<text text-anchor="middle" x="504.6349" y="-197.6701" font-family="Times,serif" font-size="14.00" fill="#000000">right</text>
</g>
<!-- /prime/candidates/end -->
<g id="node2" class="node">
<title>/prime/candidates/end</title>
<polygon fill="#ffffff" stroke="#000000" points="580.2251,-323.3024 545.6349,-335.7401 511.0448,-323.3024 511.0771,-303.1778 580.1928,-303.1778 580.2251,-323.3024"/>
<text text-anchor="middle" x="545.6349" y="-314.0401" font-family="Times,serif" font-size="14.00" fill="#000000">end</text>
</g>
<!-- /prime/candidates/end&#45;&gt;/prime/candidates/compare -->
<g id="edge4" class="edge">
<title>/prime/candidates/end:s&#45;&gt;/prime/candidates/compare:ne</title>
<path fill="none" stroke="#000000" d="M545.6349,-302.7401C545.6349,-256.9559 555.8939,-232.6062 529.6696,-201.4969"/>
<polygon fill="#000000" stroke="#000000" points="531.9877,-198.8478 522.6349,-193.8701 526.8421,-203.5938 531.9877,-198.8478"/>
<text text-anchor="middle" x="535.1349" y="-197.6701" font-family="Times,serif" font-size="14.00" fill="#000000">left</text>
</g>
<!-- /prime/candidates/step -->
<g id="node3" class="node">
<title>/prime/candidates/step</title>
<polygon fill="#ffffff" stroke="#000000" points="392.1535,-323.3024 354.6349,-335.7401 317.1164,-323.3024 317.1514,-303.1778 392.1185,-303.1778 392.1535,-323.3024"/>
<text text-anchor="middle" x="354.6349" y="-314.0401" font-family="Times,serif" font-size="14.00" fill="#000000">step</text>
</g>
<!-- /prime/candidates/add -->
<g id="node8" class="node">
<title>/prime/candidates/add</title>
<g id="a_node8"><a xlink:href="../../flowstdlib/math/add/add.html" xlink:title="add">
<ellipse fill="#ff7f50" stroke="#000000" cx="382.6349" cy="-72" rx="27.8951" ry="18"/>
<text text-anchor="middle" x="382.6349" y="-68.3" font-family="Times,serif" font-size="14.00" fill="#000000">add</text>
</a>
</g>
</g>
<!-- /prime/candidates/step&#45;&gt;/prime/candidates/add -->
<g id="edge5" class="edge">
<title>/prime/candidates/step:s&#45;&gt;/prime/candidates/add:w</title>
<path fill="none" stroke="#000000" d="M354.6349,-302.7401C354.6349,-280.0066 334.4767,-116.1655 347.7843,-79.337"/>
<polygon fill="#000000" stroke="#000000" points="350.3685,-81.6978 354.6349,-72 345.252,-76.9205 350.3685,-81.6978"/>
<text text-anchor="middle" x="347.6349" y="-75.8" font-family="Times,serif" font-size="14.00" fill="#000000">i2</text>
</g>
<!-- /prime/candidates/sequence -->
<g id="node4" class="node">
<title>/prime/candidates/sequence</title>
<polygon fill="#000000" stroke="#000000" points="339.1683,-12.4377 406.6349,0 474.1016,-12.4377 474.0386,-32.5623 339.2313,-32.5623 339.1683,-12.4377"/>
<text text-anchor="middle" x="406.6349" y="-14.3" font-family="Times,serif" font-size="14.00" fill="#ffffff">sequence</text>
</g>
<!-- /prime/candidates/last -->
<g id="node5" class="node">
<title>/prime/candidates/last</title>
<polygon fill="#000000" stroke="#000000" points="492.0448,-12.4377 526.6349,0 561.2251,-12.4377 561.1928,-32.5623 492.0771,-32.5623 492.0448,-12.4377"/>
<text text-anchor="middle" x="526.6349" y="-14.3" font-family="Times,serif" font-size="14.00" fill="#ffffff">last</text>
</g>
<!-- /prime/candidates/compare&#45;&gt;/prime/candidates/sequence -->
<g id="edge7" class="edge">
<title>/prime/candidates/compare:s&#45;&gt;/prime/candidates/sequence:n</title>
<path fill="none" stroke="#000000" d="M496.6349,-141C496.6349,-127.4541 428.9537,-67.9312 410.9758,-42.1726"/>
<polygon fill="#000000" stroke="#000000" points="414.0762,-40.5417 406.6349,-33 407.749,-43.5361 414.0762,-40.5417"/>
<text text-anchor="middle" x="481.1823" y="-90.8486" font-family="Times,serif" font-size="14.00" fill="#000000">right&#45;lte</text>
</g>
<!-- /prime/candidates/compare&#45;&gt;/prime/candidates/last -->
<g id="edge11" class="edge">
<title>/prime/candidates/compare:s&#45;&gt;/prime/candidates/last:n</title>
<path fill="none" stroke="#000000" d="M496.6349,-141C496.6349,-94.7826 522.4557,-84.2429 526.1876,-43.1821"/>
<polygon fill="#000000" stroke="#000000" points="529.6925,-43.144 526.6349,-33 522.6993,-42.8367 529.6925,-43.144"/>
<text text-anchor="middle" x="479.6398" y="-75.7907" font-family="Times,serif" font-size="14.00" fill="#000000">right&#45;gte</text>
</g>
<!-- /prime/candidates/compare&#45;&gt;/prime/candidates/compare -->
<g id="edge8" class="edge">
<title>/prime/candidates/compare:s&#45;&gt;/prime/candidates/compare:ne</title>
<path fill="none" stroke="#000000" d="M496.6349,-140.8701C536.5761,-127.8701 616.4583,-127.8701 616.4583,-167.3701 616.4583,-203.6298 571.0536,-206.6043 532.7082,-196.7922"/>
<polygon fill="#000000" stroke="#000000" points="533.2142,-193.2947 522.6349,-193.8701 531.2639,-200.0176 533.2142,-193.2947"/>
<text text-anchor="middle" x="479.9953" y="-128.0684" font-family="Times,serif" font-size="14.00" fill="#000000">left&#45;gt</text>
<text text-anchor="middle" x="510.1349" y="-182.6701" font-family="Times,serif" font-size="14.00" fill="#000000">left</text>
</g>
<!-- /prime/candidates/compare&#45;&gt;/prime/candidates/add -->
<g id="edge9" class="edge">
<title>/prime/candidates/compare:sw&#45;&gt;/prime/candidates/add:ne</title>
<path fill="none" stroke="#000000" d="M470.6349,-141.8701C454.4262,-125.6613 440.5716,-137.2731 422.6349,-123 410.9893,-113.733 411.083,-105.6027 405.0884,-96.0328"/>
<polygon fill="#000000" stroke="#000000" points="407.6266,-93.6037 398.6349,-88 402.1695,-97.9879 407.6266,-93.6037"/>
<text text-anchor="middle" x="397.1009" y="-126.7729" font-family="Times,serif" font-size="14.00" fill="#000000">right&#45;lt</text>
<text text-anchor="middle" x="405.6349" y="-91.8" font-family="Times,serif" font-size="14.00" fill="#000000">i1</text>
</g>
<!-- initializer/prime/candidates/compare_1 -->
<!-- initializer/prime/candidates/compare_1&#45;&gt;/prime/candidates/compare -->
<g id="edge1" class="edge">
<title>initializer/prime/candidates/compare_1&#45;&gt;/prime/candidates/compare:ne</title>
<path fill="none" stroke="#0000ff" stroke-dasharray="1,5" d="M665.0773,-247.1947C616.1695,-235.3556 557.1235,-218.3709 530.5931,-200.3004"/>
<polygon fill="#0000ff" stroke="#0000ff" points="532.6129,-197.4326 522.6349,-193.8701 528.2134,-202.8774 532.6129,-197.4326"/>
<text text-anchor="middle" x="596.6349" y="-216.5401" font-family="Times,serif" font-size="14.00" fill="#000000">1</text>
</g>
<!-- /prime/candidates/add&#45;&gt;/prime/candidates/compare -->
<g id="edge10" class="edge">
<title>/prime/candidates/add:sw&#45;&gt;/prime/candidates/compare:ne</title>
<path fill="none" stroke="#000000" d="M366.6349,-56C366.6349,-56 354.6874,-90 354.6874,-90 363.4119,-100.7387 589.7338,-130.2613 598.4583,-141 598.4583,-141 550.7806,-174.2447 531.0391,-188.01"/>
<polygon fill="#000000" stroke="#000000" points="528.8359,-185.2794 522.6349,-193.8701 532.8396,-191.0214 528.8359,-185.2794"/>
<text text-anchor="middle" x="431.7203" y="-99.2503" font-family="Times,serif" font-size="14.00" fill="#000000">sum</text>
<text text-anchor="middle" x="540.6349" y="-197.6701" font-family="Times,serif" font-size="14.00" fill="#000000">right</text>
</g>
<!-- /prime/candidates/add&#45;&gt;/prime/candidates/add -->
<g id="edge6" class="edge">
<title>/prime/candidates/add:e&#45;&gt;/prime/candidates/add:w</title>
<path fill="none" stroke="#000000" d="M410.6349,-72C428.5825,-85 428.5825,-111 382.6349,-111 344.2257,-111 337.9242,-92.8314 347.3743,-79.276"/>
<polygon fill="#000000" stroke="#000000" points="350.0488,-81.5508 354.6349,-72 345.0938,-76.6063 350.0488,-81.5508"/>
<text text-anchor="middle" x="417.6415" y="-75.8048" font-family="Times,serif" font-size="14.00" fill="#000000">i2</text>
<text text-anchor="middle" x="347.6349" y="-60.8" font-family="Times,serif" font-size="14.00" fill="#000000">i2</text>
</g>
<!-- initializer/prime/candidates/add_1 -->
<!-- initializer/prime/candidates/add_1&#45;&gt;/prime/candidates/add -->
<g id="edge2" class="edge">
<title>initializer/prime/candidates/add_1&#45;&gt;/prime/candidates/add:w</title>
<path fill="none" stroke="#0000ff" stroke-dasharray="1,5" d="M188.989,-149.8376C219.2802,-123.4767 281.0166,-77.0274 344.4451,-72.3778"/>
<polygon fill="#0000ff" stroke="#0000ff" points="344.7715,-75.8682 354.6349,-72 344.5121,-68.8731 344.7715,-75.8682"/>
<text text-anchor="middle" x="250.6349" y="-111.8" font-family="Times,serif" font-size="14.00" fill="#000000">1</text>
</g>
</g>
</svg>
