<?xml version="1.0" encoding="UTF-8" standalone="no"?>
<!DOCTYPE svg PUBLIC "-//W3C//DTD SVG 1.1//EN"
 "http://www.w3.org/Graphics/SVG/1.1/DTD/svg11.dtd">
<!-- Generated by graphviz version 2.43.0 (0)
 -->
<!-- Title: candidates Pages: 1 -->
<svg width="986pt" height="424pt"
 viewBox="28.80 28.80 957.29 395.54" xmlns="http://www.w3.org/2000/svg" xmlns:xlink="http://www.w3.org/1999/xlink">
<g id="page0,1_graph0" class="graph" transform="scale(1 1) rotate(0) translate(32.8 391.54)">
<title>candidates</title>
<polygon fill="white" stroke="transparent" points="-4,4 -4,-362.74 924.49,-362.74 924.49,4 -4,4"/>
<text text-anchor="middle" x="460.25" y="-343.54" font-family="Times,serif" font-size="14.00">candidates</text>
<!-- /prime/candidates/start -->
<g id="node1" class="node">
<title>/prime/candidates/start</title>
<polygon fill="white" stroke="black" points="468.7,-323.3 427.76,-335.74 386.81,-323.3 386.85,-303.18 468.66,-303.18 468.7,-323.3"/>
<text text-anchor="middle" x="427.76" y="-314.04" font-family="Times,serif" font-size="14.00">start</text>
</g>
<!-- /prime/candidates/compare -->
<g id="node6" class="node">
<title>/prime/candidates/compare</title>
<g id="a_node6"><a xlink:href="../../flowstdlib/control/compare_switch/compare_switch.html" xlink:title="compare\n(compare_switch)">
<ellipse fill="coral" stroke="black" cx="495.76" cy="-167.87" rx="100.32" ry="26.74"/>
<text text-anchor="middle" x="495.76" y="-171.67" font-family="Times,serif" font-size="14.00">compare</text>
<text text-anchor="middle" x="495.76" y="-156.67" font-family="Times,serif" font-size="14.00">(compare_switch)</text>
</a>
</g>
</g>
<!-- /prime/candidates/start&#45;&gt;/prime/candidates/compare -->
<g id="edge3" class="edge">
<title>/prime/candidates/start:s&#45;&gt;/prime/candidates/compare:ne</title>
<path fill="none" stroke="black" d="M427.76,-301.74C427.76,-242.4 549.72,-239.62 528.08,-202.62"/>
<polygon fill="black" stroke="black" points="530.74,-200.35 521.76,-194.74 525.28,-204.73 530.74,-200.35"/>
<text text-anchor="middle" x="503.76" y="-198.54" font-family="Times,serif" font-size="14.00">right</text>
</g>
<!-- /prime/candidates/end -->
<g id="node2" class="node">
<title>/prime/candidates/end</title>
<polygon fill="white" stroke="black" points="556.35,-323.3 521.76,-335.74 487.17,-323.3 487.2,-303.18 556.32,-303.18 556.35,-323.3"/>
<text text-anchor="middle" x="521.76" y="-314.04" font-family="Times,serif" font-size="14.00">end</text>
</g>
<!-- /prime/candidates/end&#45;&gt;/prime/candidates/compare -->
<g id="edge4" class="edge">
<title>/prime/candidates/end:s&#45;&gt;/prime/candidates/compare:ne</title>
<path fill="none" stroke="black" d="M521.76,-301.74C521.76,-257.9 550.34,-232.53 528.46,-202.49"/>
<polygon fill="black" stroke="black" points="530.94,-200.02 521.76,-194.74 525.65,-204.6 530.94,-200.02"/>
<text text-anchor="middle" x="534.26" y="-198.54" font-family="Times,serif" font-size="14.00">left</text>
</g>
<!-- /prime/candidates/step -->
<g id="node3" class="node">
<title>/prime/candidates/step</title>
<polygon fill="white" stroke="black" points="75.28,-323.3 37.76,-335.74 0.24,-323.3 0.27,-303.18 75.24,-303.18 75.28,-323.3"/>
<text text-anchor="middle" x="37.76" y="-314.04" font-family="Times,serif" font-size="14.00">step</text>
</g>
<!-- /prime/candidates/add -->
<g id="node8" class="node">
<title>/prime/candidates/add</title>
<g id="a_node8"><a xlink:href="../../flowstdlib/math/add/add.html" xlink:title="add">
<ellipse fill="coral" stroke="black" cx="310.76" cy="-72" rx="27.9" ry="18"/>
<text text-anchor="middle" x="310.76" y="-68.3" font-family="Times,serif" font-size="14.00">add</text>
</a>
</g>
</g>
<!-- /prime/candidates/step&#45;&gt;/prime/candidates/add -->
<g id="edge5" class="edge">
<title>/prime/candidates/step:s&#45;&gt;/prime/candidates/add:w</title>
<path fill="none" stroke="black" d="M37.76,-301.74C37.76,-230.03 6.49,-196.62 51.76,-141 83.47,-102.04 212.02,-75.28 271.5,-72.28"/>
<polygon fill="black" stroke="black" points="271.86,-75.77 281.76,-72 271.67,-68.78 271.86,-75.77"/>
<text text-anchor="middle" x="274.76" y="-75.8" font-family="Times,serif" font-size="14.00">i2</text>
</g>
<!-- /prime/candidates/sequence -->
<g id="node4" class="node">
<title>/prime/candidates/sequence</title>
<polygon fill="black" stroke="black" points="351.9,-12.44 418.76,0 485.62,-12.44 485.56,-32.56 351.96,-32.56 351.9,-12.44"/>
<text text-anchor="middle" x="418.76" y="-14.3" font-family="Times,serif" font-size="14.00" fill="white">sequence</text>
</g>
<!-- /prime/candidates/last -->
<g id="node5" class="node">
<title>/prime/candidates/last</title>
<polygon fill="black" stroke="black" points="503.17,-12.44 537.76,0 572.35,-12.44 572.32,-32.56 503.2,-32.56 503.17,-12.44"/>
<text text-anchor="middle" x="537.76" y="-14.3" font-family="Times,serif" font-size="14.00" fill="white">last</text>
</g>
<!-- /prime/candidates/compare&#45;&gt;/prime/candidates/sequence -->
<g id="edge7" class="edge">
<title>/prime/candidates/compare:s&#45;&gt;/prime/candidates/sequence:n</title>
<path fill="none" stroke="black" d="M495.76,-141C495.76,-86.07 428.08,-91.59 419.62,-44.21"/>
<polygon fill="black" stroke="black" points="423.09,-43.67 418.76,-34 416.11,-44.26 423.09,-43.67"/>
<text text-anchor="middle" x="427.56" y="-91.18" font-family="Times,serif" font-size="14.00">right&#45;lte</text>
</g>
<!-- /prime/candidates/compare&#45;&gt;/prime/candidates/last -->
<g id="edge11" class="edge">
<title>/prime/candidates/compare:s&#45;&gt;/prime/candidates/last:n</title>
<path fill="none" stroke="black" d="M495.76,-141C495.76,-129.04 509.61,-133.26 515.76,-123 534.83,-91.19 537.41,-77.31 537.72,-44.35"/>
<polygon fill="black" stroke="black" points="541.22,-44.01 537.76,-34 534.22,-43.99 541.22,-44.01"/>
<text text-anchor="middle" x="499.11" y="-96.35" font-family="Times,serif" font-size="14.00">right&#45;gte</text>
</g>
<!-- /prime/candidates/compare&#45;&gt;/prime/candidates/compare -->
<g id="edge8" class="edge">
<title>/prime/candidates/compare:s&#45;&gt;/prime/candidates/compare:ne</title>
<path fill="none" stroke="black" d="M495.76,-140.87C535.23,-127.87 614.17,-127.87 614.17,-167.37 614.17,-203.63 569.56,-206.6 531.71,-196.79"/>
<polygon fill="black" stroke="black" points="532.34,-193.33 521.76,-193.87 530.37,-200.05 532.34,-193.33"/>
<text text-anchor="middle" x="479.06" y="-128.07" font-family="Times,serif" font-size="14.00">left&#45;gt</text>
<text text-anchor="middle" x="509.26" y="-197.67" font-family="Times,serif" font-size="14.00">left</text>
</g>
<!-- /prime/candidates/compare&#45;&gt;/prime/candidates/add -->
<g id="edge9" class="edge">
<title>/prime/candidates/compare:sw&#45;&gt;/prime/candidates/add:ne</title>
<path fill="none" stroke="black" d="M469.76,-141C448.56,-119.8 433.01,-133.01 404.76,-123 372.59,-111.6 356.74,-114.86 334.3,-95.96"/>
<polygon fill="black" stroke="black" points="336.48,-93.21 326.76,-89 331.73,-98.35 336.48,-93.21"/>
<text text-anchor="middle" x="371.31" y="-124.16" font-family="Times,serif" font-size="14.00">right&#45;lt</text>
<text text-anchor="middle" x="333.76" y="-92.8" font-family="Times,serif" font-size="14.00">i1</text>
</g>
<!-- initializer/prime/candidates/compare_1 -->
<!-- initializer/prime/candidates/compare_1&#45;&gt;/prime/candidates/compare -->
<g id="edge1" class="edge">
<title>initializer/prime/candidates/compare_1&#45;&gt;/prime/candidates/compare:ne</title>
<path fill="none" stroke="blue" stroke-dasharray="1,5" d="M625.38,-248.57C591.74,-239.67 556.15,-225.2 529.14,-201.63"/>
<polygon fill="blue" stroke="blue" points="531.46,-199 521.76,-194.74 526.68,-204.12 531.46,-199"/>
<text text-anchor="middle" x="569.76" y="-216.54" font-family="Times,serif" font-size="14.00">1</text>
</g>
<!-- /prime/candidates/add&#45;&gt;/prime/candidates/compare -->
<g id="edge10" class="edge">
<title>/prime/candidates/add:e&#45;&gt;/prime/candidates/compare:ne</title>
<path fill="none" stroke="black" d="M339.76,-72C424.62,-72 441.69,-101.43 523.76,-123 555.83,-131.43 575.74,-114.88 596.17,-141 610.64,-159.51 612.67,-177.14 596.17,-193.87 586.5,-203.66 549.5,-205.95 530.61,-199.7"/>
<polygon fill="black" stroke="black" points="532.21,-196.59 521.76,-194.87 528.86,-202.73 532.21,-196.59"/>
<text text-anchor="middle" x="539.76" y="-198.67" font-family="Times,serif" font-size="14.00">right</text>
</g>
<!-- /prime/candidates/add&#45;&gt;/prime/candidates/add -->
<g id="edge6" class="edge">
<title>/prime/candidates/add:e&#45;&gt;/prime/candidates/add:w</title>
<path fill="none" stroke="black" d="M338.76,-72C356.71,-85 356.71,-111 310.76,-111 272.35,-111 266.05,-92.83 275.5,-79.28"/>
<polygon fill="black" stroke="black" points="278.17,-81.55 282.76,-72 273.22,-76.61 278.17,-81.55"/>
<text text-anchor="middle" x="345.77" y="-75.8" font-family="Times,serif" font-size="14.00">i2</text>
<text text-anchor="middle" x="275.76" y="-60.8" font-family="Times,serif" font-size="14.00">i2</text>
</g>
<!-- initializer/prime/candidates/add_1 -->
<!-- initializer/prime/candidates/add_1&#45;&gt;/prime/candidates/add -->
<g id="edge2" class="edge">
<title>initializer/prime/candidates/add_1&#45;&gt;/prime/candidates/add:w</title>
<path fill="none" stroke="blue" stroke-dasharray="1,5" d="M224.63,-149.47C229.71,-124.76 242.62,-81.57 271.73,-73.37"/>
<polygon fill="blue" stroke="blue" points="272.32,-76.82 281.76,-72 271.38,-69.88 272.32,-76.82"/>
<text text-anchor="middle" x="242.76" y="-111.8" font-family="Times,serif" font-size="14.00">1</text>
</g>
</g>
</svg>
