<?xml version="1.0" encoding="UTF-8" standalone="no"?>
<!DOCTYPE svg PUBLIC "-//W3C//DTD SVG 1.1//EN"
 "http://www.w3.org/Graphics/SVG/1.1/DTD/svg11.dtd">
<!-- Generated by graphviz version 2.40.1 (20161225.0304)
 -->
<!-- Title: composite_sequence Pages: 1 -->
<svg width="406pt" height="358pt"
 viewBox="28.80 28.80 377.10 329.54" xmlns="http://www.w3.org/2000/svg" xmlns:xlink="http://www.w3.org/1999/xlink">
<g id="page0,1_graph0" class="graph" transform="scale(1 1) rotate(0) translate(32.8 325.5401)">
<title>composite_sequence</title>
<polygon fill="#ffffff" stroke="transparent" points="-4,4 -4,-296.7401 344.3036,-296.7401 344.3036,4 -4,4"/>
<text text-anchor="middle" x="170.1518" y="-277.5401" font-family="Times,serif" font-size="14.00" fill="#000000">composite&#45;sequence</text>
<!-- /prime/composites/generate_composites/composite&#45;sequence/start -->
<g id="node1" class="node">
<title>/prime/composites/generate_composites/composite&#45;sequence/start</title>
<polygon fill="#ffffff" stroke="#000000" points="234.4891,-257.3024 193.545,-269.7401 152.601,-257.3024 152.6392,-237.1778 234.4509,-237.1778 234.4891,-257.3024"/>
<text text-anchor="middle" x="193.545" y="-248.0401" font-family="Times,serif" font-size="14.00" fill="#000000">start</text>
</g>
<!-- /prime/composites/generate_composites/composite&#45;sequence/compare -->
<g id="node6" class="node">
<title>/prime/composites/generate_composites/composite&#45;sequence/compare</title>
<g id="a_node6"><a xlink:href="../../flowstdlib/control/compare_switch/compare_switch.html" xlink:title="compare\n(compare_switch)">
<ellipse fill="#ff7f50" stroke="#000000" cx="154.545" cy="-170.8701" rx="101.6471" ry="26.7407"/>
<text text-anchor="middle" x="154.545" y="-174.6701" font-family="Times,serif" font-size="14.00" fill="#000000">compare</text>
<text text-anchor="middle" x="154.545" y="-159.6701" font-family="Times,serif" font-size="14.00" fill="#000000">(compare_switch)</text>
</a>
</g>
</g>
<!-- /prime/composites/generate_composites/composite&#45;sequence/start&#45;&gt;/prime/composites/generate_composites/composite&#45;sequence/compare -->
<g id="edge1" class="edge">
<title>/prime/composites/generate_composites/composite&#45;sequence/start:s&#45;&gt;/prime/composites/generate_composites/composite&#45;sequence/compare:ne</title>
<path fill="none" stroke="#000000" d="M193.545,-236.7401C193.545,-222.0334 193.6566,-213.9175 187.2289,-204.6732"/>
<polygon fill="#000000" stroke="#000000" points="189.7086,-202.1879 180.545,-196.8701 184.3923,-206.7417 189.7086,-202.1879"/>
<text text-anchor="middle" x="162.545" y="-200.6701" font-family="Times,serif" font-size="14.00" fill="#000000">right</text>
</g>
<!-- /prime/composites/generate_composites/composite&#45;sequence/end -->
<g id="node2" class="node">
<title>/prime/composites/generate_composites/composite&#45;sequence/end</title>
<polygon fill="#ffffff" stroke="#000000" points="134.1352,-257.3024 99.545,-269.7401 64.9549,-257.3024 64.9872,-237.1778 134.1029,-237.1778 134.1352,-257.3024"/>
<text text-anchor="middle" x="99.545" y="-248.0401" font-family="Times,serif" font-size="14.00" fill="#000000">end</text>
</g>
<!-- /prime/composites/generate_composites/composite&#45;sequence/end&#45;&gt;/prime/composites/generate_composites/composite&#45;sequence/compare -->
<g id="edge2" class="edge">
<title>/prime/composites/generate_composites/composite&#45;sequence/end:s&#45;&gt;/prime/composites/generate_composites/composite&#45;sequence/compare:ne</title>
<path fill="none" stroke="#000000" d="M99.545,-236.7401C99.545,-202.5713 178.8575,-218.2587 184.8828,-206.1482"/>
<polygon fill="#000000" stroke="#000000" points="187.9509,-204.4466 180.545,-196.8701 181.6097,-207.4113 187.9509,-204.4466"/>
<text text-anchor="middle" x="193.045" y="-200.6701" font-family="Times,serif" font-size="14.00" fill="#000000">left</text>
</g>
<!-- /prime/composites/generate_composites/composite&#45;sequence/step -->
<g id="node3" class="node">
<title>/prime/composites/generate_composites/composite&#45;sequence/step</title>
<polygon fill="#ffffff" stroke="#000000" points="340.0636,-257.3024 302.545,-269.7401 265.0264,-257.3024 265.0615,-237.1778 340.0286,-237.1778 340.0636,-257.3024"/>
<text text-anchor="middle" x="302.545" y="-248.0401" font-family="Times,serif" font-size="14.00" fill="#000000">step</text>
</g>
<!-- /prime/composites/generate_composites/composite&#45;sequence/add -->
<g id="node7" class="node">
<title>/prime/composites/generate_composites/composite&#45;sequence/add</title>
<g id="a_node7"><a xlink:href="../../flowstdlib/math/add/add.html" xlink:title="add">
<ellipse fill="#ff7f50" stroke="#000000" cx="210.545" cy="-90" rx="27.8951" ry="18"/>
<text text-anchor="middle" x="210.545" y="-86.3" font-family="Times,serif" font-size="14.00" fill="#000000">add</text>
</a>
</g>
</g>
<!-- /prime/composites/generate_composites/composite&#45;sequence/step&#45;&gt;/prime/composites/generate_composites/composite&#45;sequence/add -->
<g id="edge3" class="edge">
<title>/prime/composites/generate_composites/composite&#45;sequence/step:s&#45;&gt;/prime/composites/generate_composites/composite&#45;sequence/add:w</title>
<path fill="none" stroke="#000000" d="M302.545,-236.7401C302.545,-194.6662 311.137,-175.7632 283.545,-144 252.2929,-108.0234 210.0089,-146.9454 182.545,-108 180.7441,-105.4461 179.1294,-102.1409 178.3072,-99.061"/>
<polygon fill="#000000" stroke="#000000" points="181.4788,-100.5411 182.545,-90 175.138,-97.5754 181.4788,-100.5411"/>
<text text-anchor="middle" x="175.545" y="-93.8" font-family="Times,serif" font-size="14.00" fill="#000000">i2</text>
</g>
<!-- /prime/composites/generate_composites/composite&#45;sequence/sequence -->
<g id="node4" class="node">
<title>/prime/composites/generate_composites/composite&#45;sequence/sequence</title>
<polygon fill="#000000" stroke="#000000" points="87.0784,-12.4377 154.545,0 222.0117,-12.4377 221.9487,-32.5623 87.1414,-32.5623 87.0784,-12.4377"/>
<text text-anchor="middle" x="154.545" y="-14.3" font-family="Times,serif" font-size="14.00" fill="#ffffff">sequence</text>
</g>
<!-- /prime/composites/generate_composites/composite&#45;sequence/last -->
<g id="node5" class="node">
<title>/prime/composites/generate_composites/composite&#45;sequence/last</title>
<polygon fill="#000000" stroke="#000000" points="-.0451,-12.4377 34.545,0 69.1352,-12.4377 69.1029,-32.5623 -.0128,-32.5623 -.0451,-12.4377"/>
<text text-anchor="middle" x="34.545" y="-14.3" font-family="Times,serif" font-size="14.00" fill="#ffffff">last</text>
</g>
<!-- /prime/composites/generate_composites/composite&#45;sequence/compare&#45;&gt;/prime/composites/generate_composites/composite&#45;sequence/sequence -->
<g id="edge5" class="edge">
<title>/prime/composites/generate_composites/composite&#45;sequence/compare:s&#45;&gt;/prime/composites/generate_composites/composite&#45;sequence/sequence:n</title>
<path fill="none" stroke="#000000" d="M154.545,-144C154.545,-98.2318 154.545,-84.3091 154.545,-43.1436"/>
<polygon fill="#000000" stroke="#000000" points="158.0451,-43 154.545,-33 151.0451,-43 158.0451,-43"/>
<text text-anchor="middle" x="125.045" y="-92.2901" font-family="Times,serif" font-size="14.00" fill="#000000">right&#45;lte</text>
</g>
<!-- /prime/composites/generate_composites/composite&#45;sequence/compare&#45;&gt;/prime/composites/generate_composites/composite&#45;sequence/last -->
<g id="edge9" class="edge">
<title>/prime/composites/generate_composites/composite&#45;sequence/compare:s&#45;&gt;/prime/composites/generate_composites/composite&#45;sequence/last:n</title>
<path fill="none" stroke="#000000" d="M154.545,-144C154.545,-75.038 46.4231,-102.4433 35.442,-43.2686"/>
<polygon fill="#000000" stroke="#000000" points="38.902,-42.6575 34.545,-33 31.9285,-43.2667 38.902,-42.6575"/>
<text text-anchor="middle" x="62.4434" y="-92.2675" font-family="Times,serif" font-size="14.00" fill="#000000">right&#45;gte</text>
</g>
<!-- /prime/composites/generate_composites/composite&#45;sequence/compare&#45;&gt;/prime/composites/generate_composites/composite&#45;sequence/compare -->
<g id="edge6" class="edge">
<title>/prime/composites/generate_composites/composite&#45;sequence/compare:s&#45;&gt;/prime/composites/generate_composites/composite&#45;sequence/compare:ne</title>
<path fill="none" stroke="#000000" d="M154.545,-143.8701C194.4862,-123.8701 274.3684,-123.8701 274.3684,-170.3701 274.3684,-213.2372 228.5764,-216.5862 190.1292,-201.1787"/>
<polygon fill="#000000" stroke="#000000" points="191.1009,-197.7782 180.545,-196.8701 188.2306,-204.1627 191.1009,-197.7782"/>
<text text-anchor="middle" x="132.7795" y="-132.5531" font-family="Times,serif" font-size="14.00" fill="#000000">left&#45;gt</text>
<text text-anchor="middle" x="168.045" y="-185.6701" font-family="Times,serif" font-size="14.00" fill="#000000">left</text>
</g>
<!-- /prime/composites/generate_composites/composite&#45;sequence/compare&#45;&gt;/prime/composites/generate_composites/composite&#45;sequence/add -->
<g id="edge7" class="edge">
<title>/prime/composites/generate_composites/composite&#45;sequence/compare:sw&#45;&gt;/prime/composites/generate_composites/composite&#45;sequence/add:ne</title>
<path fill="none" stroke="#000000" d="M128.545,-144.8701C99.2952,-115.6202 223.8888,-133.5431 230.696,-115.3493"/>
<polygon fill="#000000" stroke="#000000" points="233.8019,-113.7194 226.545,-106 227.4041,-116.56 233.8019,-113.7194"/>
<text text-anchor="middle" x="140.5784" y="-114.7647" font-family="Times,serif" font-size="14.00" fill="#000000">right&#45;lt</text>
<text text-anchor="middle" x="233.545" y="-109.8" font-family="Times,serif" font-size="14.00" fill="#000000">i1</text>
</g>
<!-- /prime/composites/generate_composites/composite&#45;sequence/add&#45;&gt;/prime/composites/generate_composites/composite&#45;sequence/compare -->
<g id="edge8" class="edge">
<title>/prime/composites/generate_composites/composite&#45;sequence/add:sw&#45;&gt;/prime/composites/generate_composites/composite&#45;sequence/compare:ne</title>
<path fill="none" stroke="#000000" d="M194.545,-74C194.545,-74 182.5975,-108 182.5975,-108 201.9271,-138.9412 237.0388,-113.0588 256.3684,-144 268.8182,-163.9286 272.9839,-180.2546 256.3684,-196.8701 235.0526,-218.1858 210.2669,-220.434 188.2192,-203.6145"/>
<polygon fill="#000000" stroke="#000000" points="190.367,-200.8425 180.545,-196.8701 185.746,-206.1005 190.367,-200.8425"/>
<text text-anchor="middle" x="210.9944" y="-124.2734" font-family="Times,serif" font-size="14.00" fill="#000000">sum</text>
<text text-anchor="middle" x="198.545" y="-200.6701" font-family="Times,serif" font-size="14.00" fill="#000000">right</text>
</g>
<!-- /prime/composites/generate_composites/composite&#45;sequence/add&#45;&gt;/prime/composites/generate_composites/composite&#45;sequence/add -->
<g id="edge4" class="edge">
<title>/prime/composites/generate_composites/composite&#45;sequence/add:e&#45;&gt;/prime/composites/generate_composites/composite&#45;sequence/add:w</title>
<path fill="none" stroke="#000000" d="M238.545,-90C256.4926,-108 256.4926,-144 210.545,-144 170.6999,-144 165.408,-116.9275 176.4094,-97.9979"/>
<polygon fill="#000000" stroke="#000000" points="179.2352,-100.0646 182.545,-90 173.6813,-95.8038 179.2352,-100.0646"/>
<text text-anchor="middle" x="245.5516" y="-93.8066" font-family="Times,serif" font-size="14.00" fill="#000000">i2</text>
<text text-anchor="middle" x="175.545" y="-78.8" font-family="Times,serif" font-size="14.00" fill="#000000">i2</text>
</g>
</g>
</svg>
