<?xml version="1.0" encoding="UTF-8" standalone="no"?>
<!DOCTYPE svg PUBLIC "-//W3C//DTD SVG 1.1//EN"
 "http://www.w3.org/Graphics/SVG/1.1/DTD/svg11.dtd">
<!-- Generated by graphviz version 2.40.1 (20161225.0304)
 -->
<!-- Title: divisors Pages: 1 -->
<svg width="1166pt" height="424pt"
 viewBox="28.80 28.80 1137.66 395.54" xmlns="http://www.w3.org/2000/svg" xmlns:xlink="http://www.w3.org/1999/xlink">
<g id="graph0" class="graph" transform="scale(1 1) rotate(0) translate(32.8 391.5401)">
<title>divisors</title>
<polygon fill="#ffffff" stroke="transparent" points="-4,4 -4,-362.7401 1104.8604,-362.7401 1104.8604,4 -4,4"/>
<text text-anchor="middle" x="550.4302" y="-343.5401" font-family="Times,serif" font-size="14.00" fill="#000000">divisors</text>
<!-- /prime/composites/divisors/start -->
<g id="node1" class="node">
<title>/prime/composites/divisors/start</title>
<polygon fill="#ffffff" stroke="#000000" points="575.1753,-323.3024 534.2313,-335.7401 493.2872,-323.3024 493.3254,-303.1778 575.1371,-303.1778 575.1753,-323.3024"/>
<text text-anchor="middle" x="534.2313" y="-314.0401" font-family="Times,serif" font-size="14.00" fill="#000000">start</text>
</g>
<!-- /prime/composites/divisors/compare -->
<g id="node6" class="node">
<title>/prime/composites/divisors/compare</title>
<g id="a_node6"><a xlink:href="../../flowstdlib/control/compare_switch/compare_switch.html" xlink:title="compare\n(compare_switch)">
<ellipse fill="#ff7f50" stroke="#000000" cx="579.2313" cy="-167.8701" rx="101.6471" ry="26.7407"/>
<text text-anchor="middle" x="579.2313" y="-171.6701" font-family="Times,serif" font-size="14.00" fill="#000000">compare</text>
<text text-anchor="middle" x="579.2313" y="-156.6701" font-family="Times,serif" font-size="14.00" fill="#000000">(compare_switch)</text>
</a>
</g>
</g>
<!-- /prime/composites/divisors/start&#45;&gt;/prime/composites/divisors/compare -->
<g id="edge3" class="edge">
<title>/prime/composites/divisors/start:s&#45;&gt;/prime/composites/divisors/compare:ne</title>
<path fill="none" stroke="#000000" d="M534.2313,-302.7401C534.2313,-290.6113 591.513,-229.2678 603.8119,-203.8805"/>
<polygon fill="#000000" stroke="#000000" points="607.2926,-204.2624 605.2313,-193.8701 600.362,-203.2796 607.2926,-204.2624"/>
<text text-anchor="middle" x="587.2313" y="-197.6701" font-family="Times,serif" font-size="14.00" fill="#000000">right</text>
</g>
<!-- /prime/composites/divisors/end -->
<g id="node2" class="node">
<title>/prime/composites/divisors/end</title>
<polygon fill="#ffffff" stroke="#000000" points="662.8214,-323.3024 628.2313,-335.7401 593.6411,-323.3024 593.6734,-303.1778 662.7891,-303.1778 662.8214,-323.3024"/>
<text text-anchor="middle" x="628.2313" y="-314.0401" font-family="Times,serif" font-size="14.00" fill="#000000">end</text>
</g>
<!-- /prime/composites/divisors/end&#45;&gt;/prime/composites/divisors/compare -->
<g id="edge4" class="edge">
<title>/prime/composites/divisors/end:s&#45;&gt;/prime/composites/divisors/compare:ne</title>
<path fill="none" stroke="#000000" d="M628.2313,-302.7401C628.2313,-256.9559 638.4902,-232.6062 612.2659,-201.4969"/>
<polygon fill="#000000" stroke="#000000" points="614.584,-198.8478 605.2313,-193.8701 609.4385,-203.5938 614.584,-198.8478"/>
<text text-anchor="middle" x="617.7313" y="-197.6701" font-family="Times,serif" font-size="14.00" fill="#000000">left</text>
</g>
<!-- /prime/composites/divisors/step -->
<g id="node3" class="node">
<title>/prime/composites/divisors/step</title>
<polygon fill="#ffffff" stroke="#000000" points="474.7498,-323.3024 437.2313,-335.7401 399.7127,-323.3024 399.7477,-303.1778 474.7148,-303.1778 474.7498,-323.3024"/>
<text text-anchor="middle" x="437.2313" y="-314.0401" font-family="Times,serif" font-size="14.00" fill="#000000">step</text>
</g>
<!-- /prime/composites/divisors/add -->
<g id="node8" class="node">
<title>/prime/composites/divisors/add</title>
<g id="a_node8"><a xlink:href="../../flowstdlib/math/add/add.html" xlink:title="add">
<ellipse fill="#ff7f50" stroke="#000000" cx="465.2313" cy="-72" rx="27.8951" ry="18"/>
<text text-anchor="middle" x="465.2313" y="-68.3" font-family="Times,serif" font-size="14.00" fill="#000000">add</text>
</a>
</g>
</g>
<!-- /prime/composites/divisors/step&#45;&gt;/prime/composites/divisors/add -->
<g id="edge5" class="edge">
<title>/prime/composites/divisors/step:s&#45;&gt;/prime/composites/divisors/add:w</title>
<path fill="none" stroke="#000000" d="M437.2313,-302.7401C437.2313,-280.0066 417.073,-116.1655 430.3806,-79.337"/>
<polygon fill="#000000" stroke="#000000" points="432.9648,-81.6978 437.2313,-72 427.8483,-76.9205 432.9648,-81.6978"/>
<text text-anchor="middle" x="430.2313" y="-75.8" font-family="Times,serif" font-size="14.00" fill="#000000">i2</text>
</g>
<!-- /prime/composites/divisors/sequence -->
<g id="node4" class="node">
<title>/prime/composites/divisors/sequence</title>
<polygon fill="#000000" stroke="#000000" points="421.7646,-12.4377 489.2313,0 556.6979,-12.4377 556.6349,-32.5623 421.8276,-32.5623 421.7646,-12.4377"/>
<text text-anchor="middle" x="489.2313" y="-14.3" font-family="Times,serif" font-size="14.00" fill="#ffffff">sequence</text>
</g>
<!-- /prime/composites/divisors/last -->
<g id="node5" class="node">
<title>/prime/composites/divisors/last</title>
<polygon fill="#000000" stroke="#000000" points="574.6411,-12.4377 609.2313,0 643.8214,-12.4377 643.7891,-32.5623 574.6734,-32.5623 574.6411,-12.4377"/>
<text text-anchor="middle" x="609.2313" y="-14.3" font-family="Times,serif" font-size="14.00" fill="#ffffff">last</text>
</g>
<!-- /prime/composites/divisors/compare&#45;&gt;/prime/composites/divisors/sequence -->
<g id="edge7" class="edge">
<title>/prime/composites/divisors/compare:s&#45;&gt;/prime/composites/divisors/sequence:n</title>
<path fill="none" stroke="#000000" d="M579.2313,-141C579.2313,-127.4541 511.55,-67.9312 493.5721,-42.1726"/>
<polygon fill="#000000" stroke="#000000" points="496.6725,-40.5417 489.2313,-33 490.3453,-43.5361 496.6725,-40.5417"/>
<text text-anchor="middle" x="563.7786" y="-90.8486" font-family="Times,serif" font-size="14.00" fill="#000000">right&#45;lte</text>
</g>
<!-- /prime/composites/divisors/compare&#45;&gt;/prime/composites/divisors/last -->
<g id="edge11" class="edge">
<title>/prime/composites/divisors/compare:s&#45;&gt;/prime/composites/divisors/last:n</title>
<path fill="none" stroke="#000000" d="M579.2313,-141C579.2313,-94.7826 605.052,-84.2429 608.7839,-43.1821"/>
<polygon fill="#000000" stroke="#000000" points="612.2889,-43.144 609.2313,-33 605.2956,-42.8367 612.2889,-43.144"/>
<text text-anchor="middle" x="562.2361" y="-75.7907" font-family="Times,serif" font-size="14.00" fill="#000000">right&#45;gte</text>
</g>
<!-- /prime/composites/divisors/compare&#45;&gt;/prime/composites/divisors/compare -->
<g id="edge8" class="edge">
<title>/prime/composites/divisors/compare:s&#45;&gt;/prime/composites/divisors/compare:ne</title>
<path fill="none" stroke="#000000" d="M579.2313,-140.8701C619.1724,-127.8701 699.0546,-127.8701 699.0546,-167.3701 699.0546,-203.6298 653.6499,-206.6043 615.3045,-196.7922"/>
<polygon fill="#000000" stroke="#000000" points="615.8105,-193.2947 605.2313,-193.8701 613.8602,-200.0176 615.8105,-193.2947"/>
<text text-anchor="middle" x="562.5916" y="-128.0684" font-family="Times,serif" font-size="14.00" fill="#000000">left&#45;gt</text>
<text text-anchor="middle" x="592.7313" y="-182.6701" font-family="Times,serif" font-size="14.00" fill="#000000">left</text>
</g>
<!-- /prime/composites/divisors/compare&#45;&gt;/prime/composites/divisors/add -->
<g id="edge9" class="edge">
<title>/prime/composites/divisors/compare:sw&#45;&gt;/prime/composites/divisors/add:ne</title>
<path fill="none" stroke="#000000" d="M553.2313,-141.8701C537.0225,-125.6613 523.168,-137.2731 505.2313,-123 493.5856,-113.733 493.6793,-105.6027 487.6847,-96.0328"/>
<polygon fill="#000000" stroke="#000000" points="490.2229,-93.6037 481.2313,-88 484.7658,-97.9879 490.2229,-93.6037"/>
<text text-anchor="middle" x="479.6972" y="-126.7729" font-family="Times,serif" font-size="14.00" fill="#000000">right&#45;lt</text>
<text text-anchor="middle" x="488.2313" y="-91.8" font-family="Times,serif" font-size="14.00" fill="#000000">i1</text>
</g>
<!-- initializer/prime/composites/divisors/compare_1 -->
<!-- initializer/prime/composites/divisors/compare_1&#45;&gt;/prime/composites/divisors/compare -->
<g id="edge1" class="edge">
<title>initializer/prime/composites/divisors/compare_1&#45;&gt;/prime/composites/divisors/compare:ne</title>
<path fill="none" stroke="#0000ff" stroke-dasharray="1,5" d="M765.5808,-247.4784C708.3655,-236.4641 642.4803,-220.3128 613.3427,-200.4483"/>
<polygon fill="#0000ff" stroke="#0000ff" points="615.2028,-197.4505 605.2313,-193.8701 610.7936,-202.8873 615.2028,-197.4505"/>
<text text-anchor="middle" x="686.2313" y="-216.5401" font-family="Times,serif" font-size="14.00" fill="#000000">2</text>
</g>
<!-- /prime/composites/divisors/add&#45;&gt;/prime/composites/divisors/compare -->
<g id="edge10" class="edge">
<title>/prime/composites/divisors/add:sw&#45;&gt;/prime/composites/divisors/compare:ne</title>
<path fill="none" stroke="#000000" d="M449.2313,-56C449.2313,-56 437.2837,-90 437.2837,-90 446.0082,-100.7387 672.3301,-130.2613 681.0546,-141 681.0546,-141 633.3769,-174.2447 613.6354,-188.01"/>
<polygon fill="#000000" stroke="#000000" points="611.4322,-185.2794 605.2313,-193.8701 615.436,-191.0214 611.4322,-185.2794"/>
<text text-anchor="middle" x="514.3166" y="-99.2503" font-family="Times,serif" font-size="14.00" fill="#000000">sum</text>
<text text-anchor="middle" x="623.2313" y="-182.6701" font-family="Times,serif" font-size="14.00" fill="#000000">right</text>
</g>
<!-- /prime/composites/divisors/add&#45;&gt;/prime/composites/divisors/add -->
<g id="edge6" class="edge">
<title>/prime/composites/divisors/add:e&#45;&gt;/prime/composites/divisors/add:w</title>
<path fill="none" stroke="#000000" d="M493.2313,-72C511.1788,-85 511.1788,-111 465.2313,-111 426.822,-111 420.5205,-92.8314 429.9706,-79.276"/>
<polygon fill="#000000" stroke="#000000" points="432.6451,-81.5508 437.2313,-72 427.6901,-76.6063 432.6451,-81.5508"/>
<text text-anchor="middle" x="500.2378" y="-75.8048" font-family="Times,serif" font-size="14.00" fill="#000000">i2</text>
<text text-anchor="middle" x="430.2313" y="-60.8" font-family="Times,serif" font-size="14.00" fill="#000000">i2</text>
</g>
<!-- initializer/prime/composites/divisors/add_1 -->
<!-- initializer/prime/composites/divisors/add_1&#45;&gt;/prime/composites/divisors/add -->
<g id="edge2" class="edge">
<title>initializer/prime/composites/divisors/add_1&#45;&gt;/prime/composites/divisors/add:w</title>
<path fill="none" stroke="#0000ff" stroke-dasharray="1,5" d="M235.5453,-149.8376C273.7554,-123.2597 351.3376,-76.2614 427.0485,-72.2716"/>
<polygon fill="#0000ff" stroke="#0000ff" points="427.3282,-75.7655 437.2313,-72 427.1415,-68.7679 427.3282,-75.7655"/>
<text text-anchor="middle" x="310.2313" y="-111.8" font-family="Times,serif" font-size="14.00" fill="#000000">1</text>
</g>
</g>
</svg>
