<?xml version="1.0" encoding="UTF-8" standalone="no"?>
<!DOCTYPE svg PUBLIC "-//W3C//DTD SVG 1.1//EN"
 "http://www.w3.org/Graphics/SVG/1.1/DTD/svg11.dtd">
<!-- Generated by graphviz version 2.44.1 (20200629.0846)
 -->
<!-- Title: candidates Pages: 1 -->
<svg width="812pt" height="424pt"
 viewBox="28.80 28.80 783.58 395.54" xmlns="http://www.w3.org/2000/svg" xmlns:xlink="http://www.w3.org/1999/xlink">
<g id="graph0" class="graph" transform="scale(1 1) rotate(0) translate(32.8 391.54)">
<title>candidates</title>
<polygon fill="white" stroke="transparent" points="-4,4 -4,-362.74 750.78,-362.74 750.78,4 -4,4"/>
<text text-anchor="middle" x="373.39" y="-343.54" font-family="Times,serif" font-size="14.00">candidates</text>
<!-- /prime/candidates/start -->
<g id="node1" class="node">
<title>/prime/candidates/start</title>
<polygon fill="white" stroke="black" points="390.56,-323.3 358.29,-335.74 326.02,-323.3 326.05,-303.18 390.53,-303.18 390.56,-323.3"/>
<text text-anchor="middle" x="358.29" y="-314.04" font-family="Times,serif" font-size="14.00">start</text>
</g>
<!-- /prime/candidates/compare -->
<g id="node6" class="node">
<title>/prime/candidates/compare</title>
<g id="a_node6"><a xlink:href="../../flowstdlib/control/compare_switch/compare_switch.html" xlink:title="compare\n(compare_switch)">
<ellipse fill="coral" stroke="black" cx="403.29" cy="-167.87" rx="81.13" ry="26.74"/>
<text text-anchor="middle" x="403.29" y="-171.67" font-family="Times,serif" font-size="14.00">compare</text>
<text text-anchor="middle" x="403.29" y="-156.67" font-family="Times,serif" font-size="14.00">(compare_switch)</text>
</a>
</g>
</g>
<!-- /prime/candidates/start&#45;&gt;/prime/candidates/compare -->
<g id="edge3" class="edge">
<title>/prime/candidates/start:s&#45;&gt;/prime/candidates/compare:ne</title>
<path fill="none" stroke="black" d="M358.29,-301.74C358.29,-248.68 454.54,-236.68 435.64,-202.82"/>
<polygon fill="black" stroke="black" points="438.22,-200.44 429.29,-194.74 432.72,-204.76 438.22,-200.44"/>
<text text-anchor="middle" x="416.29" y="-198.54" font-family="Times,serif" font-size="14.00">right</text>
</g>
<!-- /prime/candidates/end -->
<g id="node2" class="node">
<title>/prime/candidates/end</title>
<polygon fill="white" stroke="black" points="466.13,-323.3 437.29,-335.74 408.45,-323.3 408.47,-303.18 466.1,-303.18 466.13,-323.3"/>
<text text-anchor="middle" x="437.29" y="-314.04" font-family="Times,serif" font-size="14.00">end</text>
</g>
<!-- /prime/candidates/end&#45;&gt;/prime/candidates/compare -->
<g id="edge4" class="edge">
<title>/prime/candidates/end:s&#45;&gt;/prime/candidates/compare:ne</title>
<path fill="none" stroke="black" d="M437.29,-301.74C437.29,-257.78 459.15,-232.59 436.14,-202.51"/>
<polygon fill="black" stroke="black" points="438.53,-199.92 429.29,-194.74 433.28,-204.55 438.53,-199.92"/>
<text text-anchor="middle" x="438.79" y="-198.54" font-family="Times,serif" font-size="14.00">left</text>
</g>
<!-- /prime/candidates/step -->
<g id="node3" class="node">
<title>/prime/candidates/step</title>
<polygon fill="white" stroke="black" points="307.84,-323.3 277.29,-335.74 246.73,-323.3 246.76,-303.18 307.82,-303.18 307.84,-323.3"/>
<text text-anchor="middle" x="277.29" y="-314.04" font-family="Times,serif" font-size="14.00">step</text>
</g>
<!-- /prime/candidates/add -->
<g id="node8" class="node">
<title>/prime/candidates/add</title>
<g id="a_node8"><a xlink:href="../../flowstdlib/math/add/add.html" xlink:title="add">
<ellipse fill="coral" stroke="black" cx="304.29" cy="-72" rx="27" ry="18"/>
<text text-anchor="middle" x="304.29" y="-68.3" font-family="Times,serif" font-size="14.00">add</text>
</a>
</g>
</g>
<!-- /prime/candidates/step&#45;&gt;/prime/candidates/add -->
<g id="edge5" class="edge">
<title>/prime/candidates/step:s&#45;&gt;/prime/candidates/add:w</title>
<path fill="none" stroke="black" d="M277.29,-301.74C277.29,-279.2 256.61,-117.41 269.33,-79.8"/>
<polygon fill="black" stroke="black" points="272.24,-81.79 276.29,-72 267.02,-77.13 272.24,-81.79"/>
<text text-anchor="middle" x="270.79" y="-75.8" font-family="Times,serif" font-size="14.00">i2</text>
</g>
<!-- /prime/candidates/sequence -->
<g id="node4" class="node">
<title>/prime/candidates/sequence</title>
<polygon fill="black" stroke="black" points="278.24,-12.44 331.29,0 384.33,-12.44 384.28,-32.56 278.29,-32.56 278.24,-12.44"/>
<text text-anchor="middle" x="331.29" y="-14.3" font-family="Times,serif" font-size="14.00" fill="white">sequence</text>
</g>
<!-- /prime/candidates/last -->
<g id="node5" class="node">
<title>/prime/candidates/last</title>
<polygon fill="black" stroke="black" points="402.05,-12.44 430.29,0 458.52,-12.44 458.5,-32.56 402.08,-32.56 402.05,-12.44"/>
<text text-anchor="middle" x="430.29" y="-14.3" font-family="Times,serif" font-size="14.00" fill="white">last</text>
</g>
<!-- /prime/candidates/compare&#45;&gt;/prime/candidates/sequence -->
<g id="edge7" class="edge">
<title>/prime/candidates/compare:s&#45;&gt;/prime/candidates/sequence:n</title>
<path fill="none" stroke="black" d="M403.29,-141C403.29,-128.69 350.11,-69.1 335.16,-43.49"/>
<polygon fill="black" stroke="black" points="338.31,-41.94 331.29,-34 331.83,-44.58 338.31,-41.94"/>
<text text-anchor="middle" x="389.27" y="-91.27" font-family="Times,serif" font-size="14.00">right&#45;lte</text>
</g>
<!-- /prime/candidates/compare&#45;&gt;/prime/candidates/last -->
<g id="edge11" class="edge">
<title>/prime/candidates/compare:s&#45;&gt;/prime/candidates/last:n</title>
<path fill="none" stroke="black" d="M403.29,-141C403.29,-95.5 426.53,-84.54 429.89,-44.03"/>
<polygon fill="black" stroke="black" points="433.38,-44.13 430.29,-34 426.39,-43.85 433.38,-44.13"/>
<text text-anchor="middle" x="393.29" y="-76.29" font-family="Times,serif" font-size="14.00">right&#45;gte</text>
</g>
<!-- /prime/candidates/compare&#45;&gt;/prime/candidates/compare -->
<g id="edge8" class="edge">
<title>/prime/candidates/compare:s&#45;&gt;/prime/candidates/compare:ne</title>
<path fill="none" stroke="black" d="M403.29,-140.87C436.39,-127.87 502.61,-127.87 502.61,-167.37 502.61,-203.17 469.58,-206.52 438.75,-197.16"/>
<polygon fill="black" stroke="black" points="439.88,-193.85 429.29,-193.87 437.58,-200.46 439.88,-193.85"/>
<text text-anchor="middle" x="389.9" y="-128.35" font-family="Times,serif" font-size="14.00">left&#45;gt</text>
<text text-anchor="middle" x="419.79" y="-197.67" font-family="Times,serif" font-size="14.00">left</text>
</g>
<!-- /prime/candidates/compare&#45;&gt;/prime/candidates/add -->
<g id="edge9" class="edge">
<title>/prime/candidates/compare:sw&#45;&gt;/prime/candidates/add:ne</title>
<path fill="none" stroke="black" d="M377.29,-141C365.2,-128.91 356.05,-134.38 343.29,-123 332.18,-113.09 331.96,-105.33 325.81,-95.95"/>
<polygon fill="black" stroke="black" points="328.34,-93.51 319.29,-88 322.93,-97.95 328.34,-93.51"/>
<text text-anchor="middle" x="322.8" y="-125.42" font-family="Times,serif" font-size="14.00">right&#45;lt</text>
<text text-anchor="middle" x="313.79" y="-91.8" font-family="Times,serif" font-size="14.00">i1</text>
</g>
<!-- initializer/prime/candidates/compare_1 -->
<!-- initializer/prime/candidates/compare_1&#45;&gt;/prime/candidates/compare -->
<g id="edge1" class="edge">
<title>initializer/prime/candidates/compare_1&#45;&gt;/prime/candidates/compare:ne</title>
<path fill="none" stroke="blue" stroke-dasharray="1,5" d="M526.77,-247.78C496.59,-238.54 462.43,-224.02 436.66,-201.61"/>
<polygon fill="blue" stroke="blue" points="438.99,-199 429.29,-194.74 434.22,-204.12 438.99,-199"/>
<text text-anchor="middle" x="476.79" y="-216.54" font-family="Times,serif" font-size="14.00">1</text>
</g>
<!-- /prime/candidates/add&#45;&gt;/prime/candidates/compare -->
<g id="edge10" class="edge">
<title>/prime/candidates/add:sw&#45;&gt;/prime/candidates/compare:ne</title>
<path fill="none" stroke="black" d="M289.29,-56C285.5,-52.22 280.91,-53.06 277.29,-57 267.36,-67.79 268.21,-78.48 277.29,-90 298.51,-116.92 318.99,-99.85 352.29,-108 411.16,-122.41 447.29,-93.24 484.61,-141 499.07,-159.52 501.07,-177.11 484.61,-193.87 477.88,-200.72 453.2,-202.78 438.59,-199.21"/>
<polygon fill="black" stroke="black" points="439.83,-195.93 429.29,-194.87 436.87,-202.27 439.83,-195.93"/>
<text text-anchor="middle" x="350.08" y="-98.85" font-family="Times,serif" font-size="14.00">sum</text>
<text text-anchor="middle" x="442.29" y="-198.67" font-family="Times,serif" font-size="14.00">right</text>
</g>
<!-- /prime/candidates/add&#45;&gt;/prime/candidates/add -->
<g id="edge6" class="edge">
<title>/prime/candidates/add:e&#45;&gt;/prime/candidates/add:w</title>
<path fill="none" stroke="black" d="M331.29,-72C349.29,-85 349.29,-111 304.29,-111 266.67,-111 260.5,-92.83 270,-79.28"/>
<polygon fill="black" stroke="black" points="272.69,-81.54 277.29,-72 267.74,-76.59 272.69,-81.54"/>
<text text-anchor="middle" x="336.79" y="-75.8" font-family="Times,serif" font-size="14.00">i2</text>
<text text-anchor="middle" x="271.79" y="-60.8" font-family="Times,serif" font-size="14.00">i2</text>
</g>
<!-- initializer/prime/candidates/add_1 -->
<!-- initializer/prime/candidates/add_1&#45;&gt;/prime/candidates/add -->
<g id="edge2" class="edge">
<title>initializer/prime/candidates/add_1&#45;&gt;/prime/candidates/add:w</title>
<path fill="none" stroke="blue" stroke-dasharray="1,5" d="M144.95,-149.91C167.16,-124.27 213.91,-78.04 266.13,-72.54"/>
<polygon fill="blue" stroke="blue" points="266.49,-76.03 276.29,-72 266.12,-69.04 266.49,-76.03"/>
<text text-anchor="middle" x="192.79" y="-111.8" font-family="Times,serif" font-size="14.00">1</text>
</g>
</g>
</svg>
