<?xml version="1.0" encoding="UTF-8" standalone="no"?>
<!DOCTYPE svg PUBLIC "-//W3C//DTD SVG 1.1//EN"
 "http://www.w3.org/Graphics/SVG/1.1/DTD/svg11.dtd">
<!-- Generated by graphviz version 2.43.0 (0)
 -->
<!-- Title: divisors Pages: 1 -->
<svg width="1151pt" height="424pt"
 viewBox="28.80 28.80 1121.89 395.54" xmlns="http://www.w3.org/2000/svg" xmlns:xlink="http://www.w3.org/1999/xlink">
<g id="page0,1_graph0" class="graph" transform="scale(1 1) rotate(0) translate(32.8 391.54)">
<title>divisors</title>
<polygon fill="white" stroke="transparent" points="-4,4 -4,-362.74 1089.09,-362.74 1089.09,4 -4,4"/>
<text text-anchor="middle" x="542.54" y="-343.54" font-family="Times,serif" font-size="14.00">divisors</text>
<!-- /prime/composites/divisors/start -->
<g id="node1" class="node">
<title>/prime/composites/divisors/start</title>
<polygon fill="white" stroke="black" points="550.7,-323.3 509.76,-335.74 468.81,-323.3 468.85,-303.18 550.66,-303.18 550.7,-323.3"/>
<text text-anchor="middle" x="509.76" y="-314.04" font-family="Times,serif" font-size="14.00">start</text>
</g>
<!-- /prime/composites/divisors/compare -->
<g id="node6" class="node">
<title>/prime/composites/divisors/compare</title>
<g id="a_node6"><a xlink:href="../../flowstdlib/control/compare_switch/compare_switch.html" xlink:title="compare\n(compare_switch)">
<ellipse fill="coral" stroke="black" cx="577.76" cy="-167.87" rx="100.32" ry="26.74"/>
<text text-anchor="middle" x="577.76" y="-171.67" font-family="Times,serif" font-size="14.00">compare</text>
<text text-anchor="middle" x="577.76" y="-156.67" font-family="Times,serif" font-size="14.00">(compare_switch)</text>
</a>
</g>
</g>
<!-- /prime/composites/divisors/start&#45;&gt;/prime/composites/divisors/compare -->
<g id="edge3" class="edge">
<title>/prime/composites/divisors/start:s&#45;&gt;/prime/composites/divisors/compare:ne</title>
<path fill="none" stroke="black" d="M509.76,-301.74C509.76,-242.4 631.72,-239.62 610.08,-202.62"/>
<polygon fill="black" stroke="black" points="612.74,-200.35 603.76,-194.74 607.28,-204.73 612.74,-200.35"/>
<text text-anchor="middle" x="585.76" y="-198.54" font-family="Times,serif" font-size="14.00">right</text>
</g>
<!-- /prime/composites/divisors/end -->
<g id="node2" class="node">
<title>/prime/composites/divisors/end</title>
<polygon fill="white" stroke="black" points="638.35,-323.3 603.76,-335.74 569.17,-323.3 569.2,-303.18 638.32,-303.18 638.35,-323.3"/>
<text text-anchor="middle" x="603.76" y="-314.04" font-family="Times,serif" font-size="14.00">end</text>
</g>
<!-- /prime/composites/divisors/end&#45;&gt;/prime/composites/divisors/compare -->
<g id="edge4" class="edge">
<title>/prime/composites/divisors/end:s&#45;&gt;/prime/composites/divisors/compare:ne</title>
<path fill="none" stroke="black" d="M603.76,-301.74C603.76,-257.9 632.34,-232.53 610.46,-202.49"/>
<polygon fill="black" stroke="black" points="612.94,-200.02 603.76,-194.74 607.65,-204.6 612.94,-200.02"/>
<text text-anchor="middle" x="616.26" y="-198.54" font-family="Times,serif" font-size="14.00">left</text>
</g>
<!-- /prime/composites/divisors/step -->
<g id="node3" class="node">
<title>/prime/composites/divisors/step</title>
<polygon fill="white" stroke="black" points="75.28,-323.3 37.76,-335.74 0.24,-323.3 0.27,-303.18 75.24,-303.18 75.28,-323.3"/>
<text text-anchor="middle" x="37.76" y="-314.04" font-family="Times,serif" font-size="14.00">step</text>
</g>
<!-- /prime/composites/divisors/add -->
<g id="node8" class="node">
<title>/prime/composites/divisors/add</title>
<g id="a_node8"><a xlink:href="../../flowstdlib/math/add/add.html" xlink:title="add">
<ellipse fill="coral" stroke="black" cx="361.76" cy="-72" rx="27.9" ry="18"/>
<text text-anchor="middle" x="361.76" y="-68.3" font-family="Times,serif" font-size="14.00">add</text>
</a>
</g>
</g>
<!-- /prime/composites/divisors/step&#45;&gt;/prime/composites/divisors/add -->
<g id="edge5" class="edge">
<title>/prime/composites/divisors/step:s&#45;&gt;/prime/composites/divisors/add:w</title>
<path fill="none" stroke="black" d="M37.76,-301.74C37.76,-230.03 5.1,-195.46 51.76,-141 91.55,-94.56 251.7,-74.04 322.58,-72.15"/>
<polygon fill="black" stroke="black" points="322.81,-75.64 332.76,-72 322.71,-68.64 322.81,-75.64"/>
<text text-anchor="middle" x="325.76" y="-75.8" font-family="Times,serif" font-size="14.00">i2</text>
</g>
<!-- /prime/composites/divisors/sequence -->
<g id="node4" class="node">
<title>/prime/composites/divisors/sequence</title>
<polygon fill="black" stroke="black" points="433.9,-12.44 500.76,0 567.62,-12.44 567.56,-32.56 433.96,-32.56 433.9,-12.44"/>
<text text-anchor="middle" x="500.76" y="-14.3" font-family="Times,serif" font-size="14.00" fill="white">sequence</text>
</g>
<!-- /prime/composites/divisors/last -->
<g id="node5" class="node">
<title>/prime/composites/divisors/last</title>
<polygon fill="black" stroke="black" points="585.17,-12.44 619.76,0 654.35,-12.44 654.32,-32.56 585.2,-32.56 585.17,-12.44"/>
<text text-anchor="middle" x="619.76" y="-14.3" font-family="Times,serif" font-size="14.00" fill="white">last</text>
</g>
<!-- /prime/composites/divisors/compare&#45;&gt;/prime/composites/divisors/sequence -->
<g id="edge7" class="edge">
<title>/prime/composites/divisors/compare:s&#45;&gt;/prime/composites/divisors/sequence:n</title>
<path fill="none" stroke="black" d="M577.76,-141C577.76,-86.07 510.08,-91.59 501.62,-44.21"/>
<polygon fill="black" stroke="black" points="505.09,-43.67 500.76,-34 498.11,-44.26 505.09,-43.67"/>
<text text-anchor="middle" x="509.56" y="-91.18" font-family="Times,serif" font-size="14.00">right&#45;lte</text>
</g>
<!-- /prime/composites/divisors/compare&#45;&gt;/prime/composites/divisors/last -->
<g id="edge11" class="edge">
<title>/prime/composites/divisors/compare:s&#45;&gt;/prime/composites/divisors/last:n</title>
<path fill="none" stroke="black" d="M577.76,-141C577.76,-131.13 586.29,-131.8 590.76,-123 607.99,-89.1 617.95,-77.57 619.53,-44.07"/>
<polygon fill="black" stroke="black" points="623.04,-44.08 619.76,-34 616.04,-43.92 623.04,-44.08"/>
<text text-anchor="middle" x="575.29" y="-95.22" font-family="Times,serif" font-size="14.00">right&#45;gte</text>
</g>
<!-- /prime/composites/divisors/compare&#45;&gt;/prime/composites/divisors/compare -->
<g id="edge8" class="edge">
<title>/prime/composites/divisors/compare:s&#45;&gt;/prime/composites/divisors/compare:ne</title>
<path fill="none" stroke="black" d="M577.76,-140.87C617.23,-127.87 696.17,-127.87 696.17,-167.37 696.17,-203.63 651.56,-206.6 613.71,-196.79"/>
<polygon fill="black" stroke="black" points="614.34,-193.33 603.76,-193.87 612.37,-200.05 614.34,-193.33"/>
<text text-anchor="middle" x="561.06" y="-128.07" font-family="Times,serif" font-size="14.00">left&#45;gt</text>
<text text-anchor="middle" x="591.26" y="-197.67" font-family="Times,serif" font-size="14.00">left</text>
</g>
<!-- /prime/composites/divisors/compare&#45;&gt;/prime/composites/divisors/add -->
<g id="edge9" class="edge">
<title>/prime/composites/divisors/compare:sw&#45;&gt;/prime/composites/divisors/add:ne</title>
<path fill="none" stroke="black" d="M551.76,-141C530.56,-119.8 515.51,-131.46 486.76,-123 441.5,-109.68 417.2,-122.75 385.17,-95.83"/>
<polygon fill="black" stroke="black" points="387.49,-93.2 377.76,-89 382.74,-98.35 387.49,-93.2"/>
<text text-anchor="middle" x="438.72" y="-121.79" font-family="Times,serif" font-size="14.00">right&#45;lt</text>
<text text-anchor="middle" x="384.76" y="-92.8" font-family="Times,serif" font-size="14.00">i1</text>
</g>
<!-- initializer/prime/composites/divisors/compare_1 -->
<!-- initializer/prime/composites/divisors/compare_1&#45;&gt;/prime/composites/divisors/compare -->
<g id="edge1" class="edge">
<title>initializer/prime/composites/divisors/compare_1&#45;&gt;/prime/composites/divisors/compare:ne</title>
<path fill="none" stroke="blue" stroke-dasharray="1,5" d="M708.39,-249.47C673.46,-240.38 638.37,-225.59 611.2,-201.72"/>
<polygon fill="blue" stroke="blue" points="613.45,-199.02 603.76,-194.74 608.66,-204.13 613.45,-199.02"/>
<text text-anchor="middle" x="653.76" y="-216.54" font-family="Times,serif" font-size="14.00">2</text>
</g>
<!-- /prime/composites/divisors/add&#45;&gt;/prime/composites/divisors/compare -->
<g id="edge10" class="edge">
<title>/prime/composites/divisors/add:e&#45;&gt;/prime/composites/divisors/compare:ne</title>
<path fill="none" stroke="black" d="M390.76,-72C391.78,-72 677.53,-140.19 678.17,-141 692.72,-159.45 694.67,-177.14 678.17,-193.87 668.5,-203.66 631.5,-205.95 612.61,-199.7"/>
<polygon fill="black" stroke="black" points="614.21,-196.59 603.76,-194.87 610.86,-202.73 614.21,-196.59"/>
<text text-anchor="middle" x="621.76" y="-198.67" font-family="Times,serif" font-size="14.00">right</text>
</g>
<!-- /prime/composites/divisors/add&#45;&gt;/prime/composites/divisors/add -->
<g id="edge6" class="edge">
<title>/prime/composites/divisors/add:e&#45;&gt;/prime/composites/divisors/add:w</title>
<path fill="none" stroke="black" d="M389.76,-72C407.71,-85 407.71,-111 361.76,-111 323.35,-111 317.05,-92.83 326.5,-79.28"/>
<polygon fill="black" stroke="black" points="329.17,-81.55 333.76,-72 324.22,-76.61 329.17,-81.55"/>
<text text-anchor="middle" x="396.77" y="-75.8" font-family="Times,serif" font-size="14.00">i2</text>
<text text-anchor="middle" x="326.76" y="-60.8" font-family="Times,serif" font-size="14.00">i2</text>
</g>
<!-- initializer/prime/composites/divisors/add_1 -->
<!-- initializer/prime/composites/divisors/add_1&#45;&gt;/prime/composites/divisors/add -->
<g id="edge2" class="edge">
<title>initializer/prime/composites/divisors/add_1&#45;&gt;/prime/composites/divisors/add:w</title>
<path fill="none" stroke="blue" stroke-dasharray="1,5" d="M267.06,-149.47C274.24,-124.65 291.1,-81.19 322.53,-73.26"/>
<polygon fill="blue" stroke="blue" points="323.26,-76.7 332.76,-72 322.41,-69.75 323.26,-76.7"/>
<text text-anchor="middle" x="289.76" y="-111.8" font-family="Times,serif" font-size="14.00">1</text>
</g>
</g>
</svg>
