<?xml version="1.0" encoding="UTF-8" standalone="no"?>
<!DOCTYPE svg PUBLIC "-//W3C//DTD SVG 1.1//EN"
 "http://www.w3.org/Graphics/SVG/1.1/DTD/svg11.dtd">
<!-- Generated by graphviz version 2.42.4 (0)
 -->
<!-- Title: composite_sequence Pages: 1 -->
<svg width="402pt" height="376pt"
 viewBox="28.80 28.80 373.10 347.28" xmlns="http://www.w3.org/2000/svg" xmlns:xlink="http://www.w3.org/1999/xlink">
<g id="graph0" class="graph" transform="scale(1 1) rotate(0) translate(32.8 343.28)">
<title>composite_sequence</title>
<polygon fill="white" stroke="transparent" points="-4,4 -4,-314.48 340.3,-314.48 340.3,4 -4,4"/>
<text text-anchor="middle" x="168.15" y="-295.28" font-family="Times,serif" font-size="14.00">composite&#45;sequence</text>
<!-- /prime/composites/generate_composites/composite&#45;sequence/start -->
<g id="node1" class="node">
<title>/prime/composites/generate_composites/composite&#45;sequence/start</title>
<polygon fill="white" stroke="black" points="231.49,-275.04 190.55,-287.48 149.6,-275.04 149.64,-254.92 231.45,-254.92 231.49,-275.04"/>
<text text-anchor="middle" x="190.55" y="-265.78" font-family="Times,serif" font-size="14.00">start</text>
</g>
<!-- /prime/composites/generate_composites/composite&#45;sequence/compare -->
<g id="node6" class="node">
<title>/prime/composites/generate_composites/composite&#45;sequence/compare</title>
<g id="a_node6"><a xlink:href="../../flowstdlib/control/compare_switch/compare_switch.html" xlink:title="compare\n(CompareSwitch)">
<ellipse fill="coral" stroke="black" cx="153.55" cy="-188.61" rx="98.99" ry="26.74"/>
<text text-anchor="middle" x="153.55" y="-192.41" font-family="Times,serif" font-size="14.00">compare</text>
<text text-anchor="middle" x="153.55" y="-177.41" font-family="Times,serif" font-size="14.00">(CompareSwitch)</text>
</a>
</g>
</g>
<!-- /prime/composites/generate_composites/composite&#45;sequence/start&#45;&gt;/prime/composites/generate_composites/composite&#45;sequence/compare -->
<g id="edge1" class="edge">
<title>/prime/composites/generate_composites/composite&#45;sequence/start:s&#45;&gt;/prime/composites/generate_composites/composite&#45;sequence/compare:ne</title>
<path fill="none" stroke="black" d="M190.55,-253.48C190.55,-239.88 191.4,-232.02 186.04,-223.41"/>
<polygon fill="black" stroke="black" points="188.59,-221 179.55,-215.48 183.17,-225.43 188.59,-221"/>
<text text-anchor="middle" x="161.55" y="-219.28" font-family="Times,serif" font-size="14.00">right</text>
</g>
<!-- /prime/composites/generate_composites/composite&#45;sequence/end -->
<g id="node2" class="node">
<title>/prime/composites/generate_composites/composite&#45;sequence/end</title>
<polygon fill="white" stroke="black" points="131.14,-275.04 96.55,-287.48 61.95,-275.04 61.99,-254.92 131.1,-254.92 131.14,-275.04"/>
<text text-anchor="middle" x="96.55" y="-265.78" font-family="Times,serif" font-size="14.00">end</text>
</g>
<!-- /prime/composites/generate_composites/composite&#45;sequence/end&#45;&gt;/prime/composites/generate_composites/composite&#45;sequence/compare -->
<g id="edge2" class="edge">
<title>/prime/composites/generate_composites/composite&#45;sequence/end:s&#45;&gt;/prime/composites/generate_composites/composite&#45;sequence/compare:ne</title>
<path fill="none" stroke="black" d="M96.55,-253.48C96.55,-218.93 177.54,-236.47 183.87,-224.72"/>
<polygon fill="black" stroke="black" points="186.95,-223.06 179.55,-215.48 180.61,-226.02 186.95,-223.06"/>
<text text-anchor="middle" x="192.05" y="-219.28" font-family="Times,serif" font-size="14.00">left</text>
</g>
<!-- /prime/composites/generate_composites/composite&#45;sequence/step -->
<g id="node3" class="node">
<title>/prime/composites/generate_composites/composite&#45;sequence/step</title>
<polygon fill="white" stroke="black" points="336.06,-275.04 298.55,-287.48 261.03,-275.04 261.06,-254.92 336.03,-254.92 336.06,-275.04"/>
<text text-anchor="middle" x="298.55" y="-265.78" font-family="Times,serif" font-size="14.00">step</text>
</g>
<!-- /prime/composites/generate_composites/composite&#45;sequence/add -->
<g id="node7" class="node">
<title>/prime/composites/generate_composites/composite&#45;sequence/add</title>
<g id="a_node7"><a xlink:href="../../flowstdlib/math/add/add.html" xlink:title="add\n(Add)">
<ellipse fill="coral" stroke="black" cx="220.55" cy="-98.87" rx="38.78" ry="26.74"/>
<text text-anchor="middle" x="220.55" y="-102.67" font-family="Times,serif" font-size="14.00">add</text>
<text text-anchor="middle" x="220.55" y="-87.67" font-family="Times,serif" font-size="14.00">(Add)</text>
</a>
</g>
</g>
<!-- /prime/composites/generate_composites/composite&#45;sequence/step&#45;&gt;/prime/composites/generate_composites/composite&#45;sequence/add -->
<g id="edge3" class="edge">
<title>/prime/composites/generate_composites/composite&#45;sequence/step:s&#45;&gt;/prime/composites/generate_composites/composite&#45;sequence/add:w</title>
<path fill="none" stroke="black" d="M298.55,-253.48C298.55,-211.84 306.73,-193.28 279.55,-161.74 249.25,-126.6 208.81,-163.29 181.55,-125.74 177.49,-120.15 173.79,-112.04 173.71,-106.2"/>
<polygon fill="black" stroke="black" points="176.28,-108.57 180.55,-98.87 171.16,-103.79 176.28,-108.57"/>
<text text-anchor="middle" x="173.55" y="-102.67" font-family="Times,serif" font-size="14.00">i2</text>
</g>
<!-- /prime/composites/generate_composites/composite&#45;sequence/sequence -->
<g id="node4" class="node">
<title>/prime/composites/generate_composites/composite&#45;sequence/sequence</title>
<polygon fill="black" stroke="black" points="86.68,-12.44 153.55,0 220.41,-12.44 220.34,-32.56 86.75,-32.56 86.68,-12.44"/>
<text text-anchor="middle" x="153.55" y="-14.3" font-family="Times,serif" font-size="14.00" fill="white">sequence</text>
</g>
<!-- /prime/composites/generate_composites/composite&#45;sequence/last -->
<g id="node5" class="node">
<title>/prime/composites/generate_composites/composite&#45;sequence/last</title>
<polygon fill="black" stroke="black" points="-0.05,-12.44 34.55,0 69.14,-12.44 69.1,-32.56 -0.01,-32.56 -0.05,-12.44"/>
<text text-anchor="middle" x="34.55" y="-14.3" font-family="Times,serif" font-size="14.00" fill="white">last</text>
</g>
<!-- /prime/composites/generate_composites/composite&#45;sequence/compare&#45;&gt;/prime/composites/generate_composites/composite&#45;sequence/sequence -->
<g id="edge5" class="edge">
<title>/prime/composites/generate_composites/composite&#45;sequence/compare:s&#45;&gt;/prime/composites/generate_composites/composite&#45;sequence/sequence:n</title>
<path fill="none" stroke="black" d="M153.55,-161.74C153.55,-108.52 153.55,-92.71 153.55,-44.17"/>
<polygon fill="black" stroke="black" points="157.05,-44 153.55,-34 150.05,-44 157.05,-44"/>
<text text-anchor="middle" x="124.05" y="-101.49" font-family="Times,serif" font-size="14.00">right&#45;lte</text>
</g>
<!-- /prime/composites/generate_composites/composite&#45;sequence/compare&#45;&gt;/prime/composites/generate_composites/composite&#45;sequence/last -->
<g id="edge9" class="edge">
<title>/prime/composites/generate_composites/composite&#45;sequence/compare:s&#45;&gt;/prime/composites/generate_composites/composite&#45;sequence/last:n</title>
<path fill="none" stroke="black" d="M153.55,-161.74C153.55,-87.79 45.44,-109.25 35.3,-44.24"/>
<polygon fill="black" stroke="black" points="38.78,-43.71 34.55,-34 31.79,-44.23 38.78,-43.71"/>
<text text-anchor="middle" x="61.91" y="-101.61" font-family="Times,serif" font-size="14.00">right&#45;gte</text>
</g>
<!-- /prime/composites/generate_composites/composite&#45;sequence/compare&#45;&gt;/prime/composites/generate_composites/composite&#45;sequence/compare -->
<g id="edge6" class="edge">
<title>/prime/composites/generate_composites/composite&#45;sequence/compare:s&#45;&gt;/prime/composites/generate_composites/composite&#45;sequence/compare:ne</title>
<path fill="none" stroke="black" d="M153.55,-161.61C192.54,-141.61 270.54,-141.61 270.54,-188.11 270.54,-230.98 226.35,-234.33 188.89,-218.92"/>
<polygon fill="black" stroke="black" points="190.09,-215.62 179.55,-214.61 187.16,-221.98 190.09,-215.62"/>
<text text-anchor="middle" x="131.77" y="-150.29" font-family="Times,serif" font-size="14.00">left&#45;gt</text>
<text text-anchor="middle" x="167.05" y="-218.41" font-family="Times,serif" font-size="14.00">left</text>
</g>
<!-- /prime/composites/generate_composites/composite&#45;sequence/compare&#45;&gt;/prime/composites/generate_composites/composite&#45;sequence/add -->
<g id="edge7" class="edge">
<title>/prime/composites/generate_composites/composite&#45;sequence/compare:sw&#45;&gt;/prime/composites/generate_composites/composite&#45;sequence/add:ne</title>
<path fill="none" stroke="black" d="M127.55,-161.74C92.88,-127.07 246.91,-153.91 247.62,-130.78"/>
<polygon fill="black" stroke="black" points="250.54,-128.82 242.55,-121.87 244.46,-132.29 250.54,-128.82"/>
<text text-anchor="middle" x="148.8" y="-130.73" font-family="Times,serif" font-size="14.00">right&#45;lt</text>
<text text-anchor="middle" x="235.55" y="-125.67" font-family="Times,serif" font-size="14.00">i1</text>
</g>
<!-- /prime/composites/generate_composites/composite&#45;sequence/add&#45;&gt;/prime/composites/generate_composites/composite&#45;sequence/compare -->
<g id="edge8" class="edge">
<title>/prime/composites/generate_composites/composite&#45;sequence/add:sw&#45;&gt;/prime/composites/generate_composites/composite&#45;sequence/compare:ne</title>
<path fill="none" stroke="black" d="M198.55,-75.87C193.23,-70.55 186.81,-71.4 181.65,-76.87 166.76,-92.68 170.29,-107.23 181.65,-125.74 200.14,-155.86 234.06,-131.62 252.54,-161.74 264.83,-181.77 269.04,-197.88 252.54,-214.61 232.25,-235.18 208.4,-238.1 187.22,-222.29"/>
<polygon fill="black" stroke="black" points="189.39,-219.53 179.55,-215.61 184.79,-224.82 189.39,-219.53"/>
<text text-anchor="middle" x="209.25" y="-141.62" font-family="Times,serif" font-size="14.00">sum</text>
<text text-anchor="middle" x="197.55" y="-219.41" font-family="Times,serif" font-size="14.00">right</text>
</g>
<!-- /prime/composites/generate_composites/composite&#45;sequence/add&#45;&gt;/prime/composites/generate_composites/composite&#45;sequence/add -->
<g id="edge4" class="edge">
<title>/prime/composites/generate_composites/composite&#45;sequence/add:e&#45;&gt;/prime/composites/generate_composites/composite&#45;sequence/add:w</title>
<path fill="none" stroke="black" d="M259.55,-98.87C277.44,-121.16 277.44,-165.74 220.55,-165.74 170.32,-165.74 164.44,-131 176.06,-107.52"/>
<polygon fill="black" stroke="black" points="179.14,-109.19 181.55,-98.87 173.23,-105.44 179.14,-109.19"/>
<text text-anchor="middle" x="266.55" y="-102.67" font-family="Times,serif" font-size="14.00">i2</text>
<text text-anchor="middle" x="174.55" y="-87.67" font-family="Times,serif" font-size="14.00">i2</text>
</g>
</g>
</svg>
