<?xml version="1.0" encoding="UTF-8" standalone="no"?>
<!DOCTYPE svg PUBLIC "-//W3C//DTD SVG 1.1//EN"
 "http://www.w3.org/Graphics/SVG/1.1/DTD/svg11.dtd">
<!-- Generated by graphviz version 2.42.3 (20191010.1750)
 -->
<!-- Title: hello_world_include Pages: 1 -->
<svg width="517pt" height="333pt"
 viewBox="28.80 28.80 488.48 303.71" xmlns="http://www.w3.org/2000/svg" xmlns:xlink="http://www.w3.org/1999/xlink">
<g id="graph0" class="graph" transform="scale(1 1) rotate(0) translate(32.8 299.71)">
<title>hello_world_include</title>
<polygon fill="white" stroke="transparent" points="-4,4 -4,-270.91 455.68,-270.91 455.68,4 -4,4"/>
<text text-anchor="middle" x="225.84" y="-251.71" font-family="Times,serif" font-size="14.00">hello&#45;world&#45;include</text>
<!-- /hello&#45;world&#45;include/print -->
<g id="node1" class="node">
<title>/hello&#45;world&#45;include/print</title>
<g id="a_node1"><a xlink:href="../../flowruntime/stdio/stdout.toml" xlink:title="print\n(Stdout)">
<ellipse fill="coral" stroke="black" cx="305.68" cy="-25.46" rx="43.53" ry="25.41"/>
<text text-anchor="middle" x="305.68" y="-28.26" font-family="Times,serif" font-size="14.00">print</text>
<text text-anchor="middle" x="305.68" y="-14.26" font-family="Times,serif" font-size="14.00">(Stdout)</text>
</a>
</g>
</g>
<!-- initializer/hello&#45;world&#45;include/print_0 -->
<!-- initializer/hello&#45;world&#45;include/print_0&#45;&gt;/hello&#45;world&#45;include/print -->
<g id="edge1" class="edge">
<title>initializer/hello&#45;world&#45;include/print_0&#45;&gt;/hello&#45;world&#45;include/print:w</title>
<path fill="none" stroke="blue" stroke-dasharray="1,5" d="M149.33,-154.82C160.37,-118.23 191.77,-34.88 250.6,-26.19"/>
<polygon fill="blue" stroke="blue" points="250.97,-29.67 260.68,-25.46 250.46,-22.69 250.97,-29.67"/>
<text text-anchor="middle" x="230.23" y="-71.71" font-family="Times,serif" font-size="14.00">&quot;Hello World!&quot;</text>
</g>
<!-- /hello&#45;world&#45;include/hello -->
<g id="node3" class="node">
<title>/hello&#45;world&#45;include/hello</title>
<g id="a_node3"><a xlink:href="../hello-world/flow1.dot.svg" xlink:title="hello">
<ellipse fill="aquamarine" stroke="black" cx="379.68" cy="-172.91" rx="72" ry="72"/>
<text text-anchor="middle" x="379.68" y="-168.71" font-family="Times,serif" font-size="14.00">hello</text>
</a>
</g>
</g>
<!-- /hello&#45;world&#45;include/hello&#45;&gt;/hello&#45;world&#45;include/print -->
<g id="edge2" class="edge">
<title>/hello&#45;world&#45;include/hello:s&#45;&gt;/hello&#45;world&#45;include/print:w</title>
<path fill="none" stroke="black" d="M379.68,-100.91C379.68,-43.95 294.06,-97.77 261.68,-50.91 258.16,-45.82 254.81,-38.68 254.34,-33.26"/>
<polygon fill="black" stroke="black" points="257.1,-35.42 260.68,-25.46 251.66,-31.01 257.1,-35.42"/>
<text text-anchor="middle" x="311.1" y="-75.15" font-family="Times,serif" font-size="14.00">out</text>
</g>
</g>
</svg>
