<?xml version="1.0" encoding="UTF-8" standalone="no"?>
<!DOCTYPE svg PUBLIC "-//W3C//DTD SVG 1.1//EN"
 "http://www.w3.org/Graphics/SVG/1.1/DTD/svg11.dtd">
<!-- Generated by graphviz version 2.43.0 (0)
 -->
<!-- Title: sequence Pages: 1 -->
<svg width="504pt" height="466pt"
 viewBox="28.80 28.80 474.99 436.80" xmlns="http://www.w3.org/2000/svg" xmlns:xlink="http://www.w3.org/1999/xlink">
<g id="graph0" class="graph" transform="scale(1 1) rotate(0) translate(32.8 432.8)">
<title>sequence</title>
<polygon fill="white" stroke="transparent" points="-4,4 -4,-404 442.19,-404 442.19,4 -4,4"/>
<text text-anchor="middle" x="219.1" y="-384.8" font-family="Times,serif" font-size="14.00">sequence</text>
<!-- /sequence/get -->
<g id="node1" class="node">
<title>/sequence/get</title>
<g id="a_node1"><a xlink:href="../../flowr/src/lib/context/args/get.html" xlink:title="get">
<ellipse fill="coral" stroke="black" cx="57.25" cy="-359" rx="27" ry="18"/>
<text text-anchor="middle" x="57.25" y="-355.3" font-family="Times,serif" font-size="14.00">get</text>
</a>
</g>
</g>
<!-- /sequence/sequence -->
<g id="node2" class="node">
<title>/sequence/sequence</title>
<g id="a_node2"><a xlink:href="lib://flowstdlib/math/sequence.dot.svg" xlink:title="sequence">
<ellipse fill="aquamarine" stroke="black" cx="84.25" cy="-232" rx="72" ry="72"/>
<text text-anchor="middle" x="84.25" y="-228.3" font-family="Times,serif" font-size="14.00">sequence</text>
</a>
</g>
</g>
<!-- /sequence/get&#45;&gt;/sequence/sequence -->
<g id="edge2" class="edge">
<title>/sequence/get:e&#45;&gt;/sequence/sequence:n</title>
<path fill="none" stroke="black" d="M85.25,-359C106.46,-359 90.13,-336.02 85.43,-313.98"/>
<polygon fill="black" stroke="black" points="88.9,-313.52 84.25,-304 81.94,-314.34 88.9,-313.52"/>
<text text-anchor="middle" x="114.91" y="-334.24" font-family="Times,serif" font-size="14.00">json[1]</text>
<text text-anchor="middle" x="70.75" y="-307.8" font-family="Times,serif" font-size="14.00">end</text>
</g>
<!-- /sequence/join -->
<g id="node3" class="node">
<title>/sequence/join</title>
<g id="a_node3"><a xlink:href="../../flowstdlib/control/join/join.html" xlink:title="join">
<ellipse fill="coral" stroke="black" cx="140.25" cy="-91" rx="27.9" ry="18"/>
<text text-anchor="middle" x="140.25" y="-87.3" font-family="Times,serif" font-size="14.00">join</text>
</a>
</g>
</g>
<!-- /sequence/sequence&#45;&gt;/sequence/join -->
<g id="edge4" class="edge">
<title>/sequence/sequence:s&#45;&gt;/sequence/join:nw</title>
<path fill="none" stroke="black" d="M84.25,-160C84.25,-149.87 92.07,-150.03 98.25,-142 107.51,-130 109.98,-124.07 117.41,-115.36"/>
<polygon fill="black" stroke="black" points="120.01,-117.71 124.25,-108 114.88,-112.94 120.01,-117.71"/>
<text text-anchor="middle" x="90.92" y="-137.36" font-family="Times,serif" font-size="14.00">last</text>
<text text-anchor="middle" x="98.75" y="-111.8" font-family="Times,serif" font-size="14.00">control</text>
</g>
<!-- /sequence/stdout -->
<g id="node5" class="node">
<title>/sequence/stdout</title>
<g id="a_node5"><a xlink:href="../../flowr/src/lib/context/stdio/stdout.html" xlink:title="stdout">
<ellipse fill="coral" stroke="black" cx="137.25" cy="-18" rx="40.09" ry="18"/>
<text text-anchor="middle" x="137.25" y="-14.3" font-family="Times,serif" font-size="14.00">stdout</text>
</a>
</g>
</g>
<!-- /sequence/sequence&#45;&gt;/sequence/stdout -->
<g id="edge3" class="edge">
<title>/sequence/sequence:s&#45;&gt;/sequence/stdout:w</title>
<path fill="none" stroke="black" d="M84.25,-160C84.25,-100.41 37.9,-27.17 85.28,-18.79"/>
<polygon fill="black" stroke="black" points="85.56,-22.28 95.25,-18 85.01,-15.3 85.56,-22.28"/>
<text text-anchor="middle" x="33.5" y="-73.98" font-family="Times,serif" font-size="14.00">sequence</text>
</g>
<!-- /sequence/join&#45;&gt;/sequence/stdout -->
<g id="edge5" class="edge">
<title>/sequence/join:e&#45;&gt;/sequence/stdout:w</title>
<path fill="none" stroke="black" d="M169.25,-91C177.27,-91 172.62,-79.72 168.25,-73 148.66,-42.82 115.85,-66.18 96.25,-36 94.69,-33.58 93.08,-30.58 92.04,-27.72"/>
<polygon fill="black" stroke="black" points="95.44,-28.59 95.25,-18 88.79,-26.4 95.44,-28.59"/>
</g>
<!-- initializer/sequence/join_0 -->
<!-- initializer/sequence/join_0&#45;&gt;/sequence/join -->
<g id="edge1" class="edge">
<title>initializer/sequence/join_0&#45;&gt;/sequence/join:nw</title>
<path fill="none" stroke="blue" stroke-dasharray="1,5" d="M275.82,-214.45C229.55,-188.86 144.94,-140.33 126.71,-117.75"/>
<polygon fill="blue" stroke="blue" points="130.1,-116.84 124.25,-108 123.31,-118.55 130.1,-116.84"/>
<text text-anchor="middle" x="201.25" y="-130.8" font-family="Times,serif" font-size="14.00">&quot;Range done&quot;</text>
</g>
</g>
</svg>
