<?xml version="1.0" encoding="UTF-8" standalone="no"?>
<!DOCTYPE svg PUBLIC "-//W3C//DTD SVG 1.1//EN"
 "http://www.w3.org/Graphics/SVG/1.1/DTD/svg11.dtd">
<!-- Generated by graphviz version 2.42.3 (20191010.1750)
 -->
<!-- Title: hello_world Pages: 1 -->
<svg width="459pt" height="333pt"
 viewBox="28.80 28.80 430.51 303.71" xmlns="http://www.w3.org/2000/svg" xmlns:xlink="http://www.w3.org/1999/xlink">
<g id="graph0" class="graph" transform="scale(1 1) rotate(0) translate(32.8 299.71)">
<title>hello_world</title>
<polygon fill="white" stroke="transparent" points="-4,4 -4,-270.91 397.71,-270.91 397.71,4 -4,4"/>
<text text-anchor="middle" x="196.86" y="-251.71" font-family="Times,serif" font-size="14.00">hello&#45;world</text>
<!-- /hello&#45;world/print -->
<g id="node1" class="node">
<title>/hello&#45;world/print</title>
<ellipse fill="coral" stroke="black" cx="262.71" cy="-25.46" rx="43.53" ry="25.41"/>
<text text-anchor="middle" x="262.71" y="-28.26" font-family="Times,serif" font-size="14.00">print</text>
<text text-anchor="middle" x="262.71" y="-14.26" font-family="Times,serif" font-size="14.00">(Stdout)</text>
</g>
<!-- initializer/hello&#45;world/print_0 -->
<!-- initializer/hello&#45;world/print_0&#45;&gt;/hello&#45;world/print -->
<g id="edge1" class="edge">
<title>initializer/hello&#45;world/print_0&#45;&gt;/hello&#45;world/print:w</title>
<path fill="none" stroke="blue" stroke-dasharray="1,5" d="M119.12,-154.82C127.43,-118.38 152.24,-35.57 207.44,-26.3"/>
<polygon fill="blue" stroke="blue" points="208.03,-29.77 217.71,-25.46 207.46,-22.79 208.03,-29.77"/>
<text text-anchor="middle" x="193.26" y="-71.71" font-family="Times,serif" font-size="14.00">&quot;Hello World!&quot;</text>
</g>
<!-- /hello&#45;world/hello -->
<g id="node3" class="node">
<title>/hello&#45;world/hello</title>
<g id="a_node3"><a xlink:href="flow1.dot" xlink:title="hello">
<ellipse fill="aquamarine" stroke="black" cx="321.71" cy="-172.91" rx="72" ry="72"/>
<text text-anchor="middle" x="321.71" y="-168.71" font-family="Times,serif" font-size="14.00">hello</text>
</a>
</g>
</g>
<!-- /hello&#45;world/hello&#45;&gt;/hello&#45;world/print -->
<g id="edge2" class="edge">
<title>/hello&#45;world/hello:s&#45;&gt;/hello&#45;world/print:w</title>
<path fill="none" stroke="black" d="M321.71,-100.91C321.71,-50.03 246.56,-93.5 218.71,-50.91 215.42,-45.88 212.15,-39.01 211.5,-33.67"/>
<polygon fill="black" stroke="black" points="214.47,-35.54 217.71,-25.46 208.89,-31.32 214.47,-35.54"/>
<text text-anchor="middle" x="260.53" y="-75.18" font-family="Times,serif" font-size="14.00">out</text>
</g>
</g>
</svg>
