<?xml version="1.0" encoding="UTF-8" standalone="no"?>
<!DOCTYPE svg PUBLIC "-//W3C//DTD SVG 1.1//EN"
 "http://www.w3.org/Graphics/SVG/1.1/DTD/svg11.dtd">
<!-- Generated by graphviz version 2.43.0 (0)
 -->
<!-- Title: range Pages: 1 -->
<svg width="415pt" height="341pt"
 viewBox="28.80 28.80 386.34 311.80" xmlns="http://www.w3.org/2000/svg" xmlns:xlink="http://www.w3.org/1999/xlink">
<g id="graph0" class="graph" transform="scale(1 1) rotate(0) translate(32.8 307.8)">
<title>range</title>
<polygon fill="white" stroke="transparent" points="-4,4 -4,-279 353.54,-279 353.54,4 -4,4"/>
<text text-anchor="middle" x="174.77" y="-259.8" font-family="Times,serif" font-size="14.00">range</text>
<!-- /range/range -->
<g id="node1" class="node">
<title>/range/range</title>
<polygon fill="white" stroke="black" points="288.09,-239.56 241.39,-252 194.7,-239.56 194.75,-219.44 288.04,-219.44 288.09,-239.56"/>
<text text-anchor="middle" x="241.39" y="-230.3" font-family="Times,serif" font-size="14.00">range</text>
</g>
<!-- /range/number -->
<g id="node2" class="node">
<title>/range/number</title>
<polygon fill="black" stroke="black" points="4.71,-12.44 62.39,0 120.08,-12.44 120.03,-32.56 4.76,-32.56 4.71,-12.44"/>
<text text-anchor="middle" x="62.39" y="-14.3" font-family="Times,serif" font-size="14.00" fill="white">number</text>
</g>
<!-- /range/range_split -->
<g id="node3" class="node">
<title>/range/range_split</title>
<g id="a_node3"><a xlink:href="../../../target/flowstdlib/math/range_split/range_split.html" xlink:title="range_split">
<ellipse fill="coral" stroke="black" cx="62.39" cy="-90" rx="62.29" ry="18"/>
<text text-anchor="middle" x="62.39" y="-86.3" font-family="Times,serif" font-size="14.00">range_split</text>
</a>
</g>
</g>
<!-- /range/ -->
<g id="node4" class="node">
<title>/range/</title>
<ellipse fill="none" stroke="black" cx="241.39" cy="-162" rx="43.59" ry="18"/>
<text text-anchor="middle" x="241.39" y="-158.3" font-family="Times,serif" font-size="14.00">/range/</text>
</g>
<!-- /range/range_split/ -->
<g id="node5" class="node">
<title>/range/range_split/</title>
<ellipse fill="none" stroke="black" cx="241.39" cy="-90" rx="98.28" ry="18"/>
<text text-anchor="middle" x="241.39" y="-86.3" font-family="Times,serif" font-size="14.00">/range/range_split/</text>
</g>
<!-- /range/&#45;&gt;/range/range_split/ -->
<g id="edge1" class="edge">
<title>/range/:s&#45;&gt;/range/range_split/:nw</title>
<path fill="none" stroke="black" d="M241.39,-144C241.39,-131.42 226.24,-124.99 221.64,-117.88"/>
<polygon fill="black" stroke="black" points="225.09,-118.46 223.39,-108 218.2,-117.24 225.09,-118.46"/>
<text text-anchor="middle" x="210.17" y="-130.83" font-family="Times,serif" font-size="14.00">range</text>
<text text-anchor="middle" x="202.39" y="-111.8" font-family="Times,serif" font-size="14.00">range</text>
</g>
<!-- /range/range_split/&#45;&gt;/range/ -->
<g id="edge2" class="edge">
<title>/range/range_split/:se&#45;&gt;/range/:n</title>
<path fill="none" stroke="black" d="M259.39,-71C271.99,-58.41 327.02,-59.33 339.54,-72 350.78,-83.38 344.64,-92.83 339.54,-108 326.74,-146.06 320.7,-161.72 284.94,-180 272.01,-186.61 253.98,-194.76 245.77,-190.25"/>
<polygon fill="black" stroke="black" points="248.84,-188.54 241.39,-181 242.51,-191.54 248.84,-188.54"/>
<text text-anchor="middle" x="240.4" y="-59.8" font-family="Times,serif" font-size="14.00">same</text>
<text text-anchor="middle" x="213.39" y="-184.8" font-family="Times,serif" font-size="14.00">number</text>
</g>
<!-- /range/range_split/&#45;&gt;/range/range_split/ -->
<g id="edge3" class="edge">
<title>/range/range_split/:e&#45;&gt;/range/range_split/:nw</title>
<path fill="none" stroke="black" d="M339.39,-90C357.54,-108 357.54,-144 281.39,-144 218.34,-144 207.5,-127.54 215.94,-115.07"/>
<polygon fill="black" stroke="black" points="218.55,-117.42 223.39,-108 213.73,-112.34 218.55,-117.42"/>
<text text-anchor="middle" x="307.03" y="-132.8" font-family="Times,serif" font-size="14.00">bottom</text>
<text text-anchor="middle" x="244.39" y="-111.8" font-family="Times,serif" font-size="14.00">range</text>
</g>
<!-- /range/range_split/&#45;&gt;/range/range_split/ -->
<g id="edge4" class="edge">
<title>/range/range_split/:sw&#45;&gt;/range/range_split/:nw</title>
<path fill="none" stroke="black" d="M223.39,-72C184.68,-54 125.25,-54 125.25,-90 125.25,-123.19 175.76,-125.78 213.98,-111.88"/>
<polygon fill="black" stroke="black" points="215.48,-115.05 223.39,-108 212.82,-108.58 215.48,-115.05"/>
<text text-anchor="middle" x="211.37" y="-60.79" font-family="Times,serif" font-size="14.00">top</text>
<text text-anchor="middle" x="233.89" y="-96.8" font-family="Times,serif" font-size="14.00">range</text>
</g>
</g>
</svg>
