<?xml version="1.0" encoding="UTF-8" standalone="no"?>
<!DOCTYPE svg PUBLIC "-//W3C//DTD SVG 1.1//EN"
 "http://www.w3.org/Graphics/SVG/1.1/DTD/svg11.dtd">
<!-- Generated by graphviz version 2.43.0 (0)
 -->
<!-- Title: range Pages: 1 -->
<svg width="261pt" height="269pt"
 viewBox="28.80 28.80 232.20 239.80" xmlns="http://www.w3.org/2000/svg" xmlns:xlink="http://www.w3.org/1999/xlink">
<g id="graph0" class="graph" transform="scale(1 1) rotate(0) translate(32.8 235.8)">
<title>range</title>
<polygon fill="white" stroke="transparent" points="-4,4 -4,-207 199.4,-207 199.4,4 -4,4"/>
<text text-anchor="middle" x="97.7" y="-187.8" font-family="Times,serif" font-size="14.00">range</text>
<!-- /range/range -->
<g id="node1" class="node">
<title>/range/range</title>
<polygon fill="white" stroke="black" points="109.09,-167.56 62.39,-180 15.7,-167.56 15.75,-147.44 109.04,-147.44 109.09,-167.56"/>
<text text-anchor="middle" x="62.39" y="-158.3" font-family="Times,serif" font-size="14.00">range</text>
</g>
<!-- /range/range_split -->
<g id="node3" class="node">
<title>/range/range_split</title>
<g id="a_node3"><a xlink:href="../../../../../../.flow/lib/flowstdlib/math/range_split/range_split.html" xlink:title="range_split">
<ellipse fill="coral" stroke="black" cx="80.39" cy="-90" rx="62.29" ry="18"/>
<text text-anchor="middle" x="80.39" y="-86.3" font-family="Times,serif" font-size="14.00">range_split</text>
</a>
</g>
</g>
<!-- /range/range&#45;&gt;/range/range_split -->
<g id="edge1" class="edge">
<title>/range/range:s&#45;&gt;/range/range_split:nw</title>
<path fill="none" stroke="black" d="M62.39,-146C62.39,-133.47 55.82,-125.18 57.31,-116.86"/>
<polygon fill="black" stroke="black" points="60.45,-118.42 62.39,-108 54.38,-114.93 60.45,-118.42"/>
<text text-anchor="middle" x="41.39" y="-111.8" font-family="Times,serif" font-size="14.00">range</text>
</g>
<!-- /range/number -->
<g id="node2" class="node">
<title>/range/number</title>
<polygon fill="black" stroke="black" points="40.71,-12.44 98.39,0 156.08,-12.44 156.03,-32.56 40.76,-32.56 40.71,-12.44"/>
<text text-anchor="middle" x="98.39" y="-14.3" font-family="Times,serif" font-size="14.00" fill="white">number</text>
</g>
<!-- /range/range_split&#45;&gt;/range/number -->
<g id="edge2" class="edge">
<title>/range/range_split:se&#45;&gt;/range/number:n</title>
<path fill="none" stroke="black" d="M98.39,-72C107.72,-62.67 102.48,-55.03 99.73,-44.08"/>
<polygon fill="black" stroke="black" points="103.18,-43.45 98.39,-34 96.24,-44.37 103.18,-43.45"/>
<text text-anchor="middle" x="83.13" y="-56" font-family="Times,serif" font-size="14.00">same</text>
</g>
<!-- /range/range_split&#45;&gt;/range/range_split -->
<g id="edge3" class="edge">
<title>/range/range_split:e&#45;&gt;/range/range_split:nw</title>
<path fill="none" stroke="black" d="M143.39,-90C160.79,-108 160.79,-144 102.89,-144 54.95,-144 46.71,-127.54 55.17,-115.07"/>
<polygon fill="black" stroke="black" points="57.7,-117.5 62.39,-108 52.8,-112.49 57.7,-117.5"/>
<text text-anchor="middle" x="169.4" y="-93.81" font-family="Times,serif" font-size="14.00">bottom</text>
<text text-anchor="middle" x="83.39" y="-111.8" font-family="Times,serif" font-size="14.00">range</text>
</g>
<!-- /range/range_split&#45;&gt;/range/range_split -->
<g id="edge4" class="edge">
<title>/range/range_split:sw&#45;&gt;/range/range_split:nw</title>
<path fill="none" stroke="black" d="M62.39,-72C35.6,-54 0,-54 0,-90 0,-122.2 28.48,-125.6 53.67,-113.07"/>
<polygon fill="black" stroke="black" points="55.51,-116.05 62.39,-108 51.99,-110 55.51,-116.05"/>
<text text-anchor="middle" x="50.37" y="-60.79" font-family="Times,serif" font-size="14.00">top</text>
<text text-anchor="middle" x="72.89" y="-96.8" font-family="Times,serif" font-size="14.00">range</text>
</g>
</g>
</svg>
