<?xml version="1.0" encoding="UTF-8" standalone="no"?>
<!DOCTYPE svg PUBLIC "-//W3C//DTD SVG 1.1//EN"
 "http://www.w3.org/Graphics/SVG/1.1/DTD/svg11.dtd">
<!-- Generated by graphviz version 2.43.0 (0)
 -->
<!-- Title: sequence Pages: 1 -->
<svg width="894pt" height="538pt"
 viewBox="28.80 28.80 864.87 509.02" xmlns="http://www.w3.org/2000/svg" xmlns:xlink="http://www.w3.org/1999/xlink">
<g id="graph0" class="graph" transform="scale(1 1) rotate(0) translate(32.8 505.02)">
<title>sequence</title>
<polygon fill="white" stroke="transparent" points="-4,4 -4,-476.22 832.07,-476.22 832.07,4 -4,4"/>
<text text-anchor="middle" x="414.04" y="-457.02" font-family="Times,serif" font-size="14.00">sequence</text>
<!-- /sequence/start -->
<g id="node1" class="node">
<title>/sequence/start</title>
<polygon fill="white" stroke="black" points="590.09,-436.78 549.14,-449.22 508.2,-436.78 508.24,-416.66 590.05,-416.66 590.09,-436.78"/>
<text text-anchor="middle" x="549.14" y="-427.52" font-family="Times,serif" font-size="14.00">start</text>
</g>
<!-- /sequence/limit -->
<g id="node2" class="node">
<title>/sequence/limit</title>
<polygon fill="white" stroke="black" points="688.48,-436.78 648.14,-449.22 607.8,-436.78 607.84,-416.66 688.44,-416.66 688.48,-436.78"/>
<text text-anchor="middle" x="648.14" y="-427.52" font-family="Times,serif" font-size="14.00">limit</text>
</g>
<!-- /sequence/step -->
<g id="node3" class="node">
<title>/sequence/step</title>
<polygon fill="white" stroke="black" points="781.66,-436.78 744.14,-449.22 706.62,-436.78 706.66,-416.66 781.63,-416.66 781.66,-436.78"/>
<text text-anchor="middle" x="744.14" y="-427.52" font-family="Times,serif" font-size="14.00">step</text>
</g>
<!-- /sequence/sequence -->
<g id="node4" class="node">
<title>/sequence/sequence</title>
<polygon fill="black" stroke="black" points="273.28,-12.44 340.14,0 407,-12.44 406.94,-32.56 273.34,-32.56 273.28,-12.44"/>
<text text-anchor="middle" x="340.14" y="-14.3" font-family="Times,serif" font-size="14.00" fill="white">sequence</text>
</g>
<!-- /sequence/last -->
<g id="node5" class="node">
<title>/sequence/last</title>
<polygon fill="black" stroke="black" points="424.55,-12.44 459.14,0 493.73,-12.44 493.7,-32.56 424.58,-32.56 424.55,-12.44"/>
<text text-anchor="middle" x="459.14" y="-14.3" font-family="Times,serif" font-size="14.00" fill="white">last</text>
</g>
<!-- /sequence/compare_switch -->
<g id="node6" class="node">
<title>/sequence/compare_switch</title>
<g id="a_node6"><a xlink:href="../../../target/flowstdlib/control/compare_switch/compare_switch.html" xlink:title="compare_switch">
<ellipse fill="coral" stroke="black" cx="85.14" cy="-260.61" rx="85.29" ry="18"/>
<text text-anchor="middle" x="85.14" y="-256.91" font-family="Times,serif" font-size="14.00">compare_switch</text>
</a>
</g>
</g>
<!-- /sequence/add -->
<g id="node7" class="node">
<title>/sequence/add</title>
<g id="a_node7"><a xlink:href="../../../target/flowstdlib/math/add/add.html" xlink:title="add">
<ellipse fill="coral" stroke="black" cx="248.14" cy="-179.74" rx="27.9" ry="18"/>
<text text-anchor="middle" x="248.14" y="-176.04" font-family="Times,serif" font-size="14.00">add</text>
</a>
</g>
</g>
<!-- /sequence/next&#45;tap/ -->
<g id="node14" class="node">
<title>/sequence/next&#45;tap/</title>
<ellipse fill="none" stroke="black" cx="340.14" cy="-98.87" rx="101.28" ry="18"/>
<text text-anchor="middle" x="340.14" y="-95.17" font-family="Times,serif" font-size="14.00">/sequence/next&#45;tap/</text>
</g>
<!-- /sequence/add&#45;&gt;/sequence/next&#45;tap/ -->
<g id="edge7" class="edge">
<title>/sequence/add:e&#45;&gt;/sequence/next&#45;tap/:nw</title>
<path fill="none" stroke="black" d="M277.14,-179.74C285.9,-179.74 280.5,-169.16 285.14,-161.74 296.67,-143.33 302.32,-137.54 314.88,-125.09"/>
<polygon fill="black" stroke="black" points="317.52,-127.4 322.14,-117.87 312.58,-122.44 317.52,-127.4"/>
<text text-anchor="middle" x="306.14" y="-121.67" font-family="Times,serif" font-size="14.00">data</text>
</g>
<!-- /sequence/next&#45;tap -->
<g id="node8" class="node">
<title>/sequence/next&#45;tap</title>
<g id="a_node8"><a xlink:href="../../../target/flowstdlib/control/tap/tap.html" xlink:title="next&#45;tap\n(tap)">
<ellipse fill="coral" stroke="black" cx="681.14" cy="-350.35" rx="53.98" ry="26.74"/>
<text text-anchor="middle" x="681.14" y="-354.15" font-family="Times,serif" font-size="14.00">next&#45;tap</text>
<text text-anchor="middle" x="681.14" y="-339.15" font-family="Times,serif" font-size="14.00">(tap)</text>
</a>
</g>
</g>
<!-- /sequence/compare_switch/ -->
<g id="node12" class="node">
<title>/sequence/compare_switch/</title>
<ellipse fill="none" stroke="black" cx="549.14" cy="-260.61" rx="137.58" ry="18"/>
<text text-anchor="middle" x="549.14" y="-256.91" font-family="Times,serif" font-size="14.00">/sequence/compare_switch/</text>
</g>
<!-- /sequence/next&#45;tap&#45;&gt;/sequence/compare_switch/ -->
<g id="edge9" class="edge">
<title>/sequence/next&#45;tap:e&#45;&gt;/sequence/compare_switch/:ne</title>
<path fill="none" stroke="black" d="M736.14,-350.35C748.09,-350.35 742.62,-332.8 735.14,-323.48 689.11,-266.12 627.78,-327.82 574.88,-286.48"/>
<polygon fill="black" stroke="black" points="576.94,-283.63 567.14,-279.61 572.3,-288.87 576.94,-283.63"/>
<text text-anchor="middle" x="549.14" y="-283.41" font-family="Times,serif" font-size="14.00">right</text>
</g>
<!-- /sequence/step&#45;tap -->
<g id="node9" class="node">
<title>/sequence/step&#45;tap</title>
<g id="a_node9"><a xlink:href="../../../target/flowstdlib/control/tap/tap.html" xlink:title="step&#45;tap\n(tap)">
<ellipse fill="coral" stroke="black" cx="241.14" cy="-260.61" rx="53.07" ry="26.74"/>
<text text-anchor="middle" x="241.14" y="-264.41" font-family="Times,serif" font-size="14.00">step&#45;tap</text>
<text text-anchor="middle" x="241.14" y="-249.41" font-family="Times,serif" font-size="14.00">(tap)</text>
</a>
</g>
</g>
<!-- /sequence/add/ -->
<g id="node13" class="node">
<title>/sequence/add/</title>
<ellipse fill="none" stroke="black" cx="374.14" cy="-179.74" rx="79.89" ry="18"/>
<text text-anchor="middle" x="374.14" y="-176.04" font-family="Times,serif" font-size="14.00">/sequence/add/</text>
</g>
<!-- /sequence/step&#45;tap&#45;&gt;/sequence/add/ -->
<g id="edge11" class="edge">
<title>/sequence/step&#45;tap:e&#45;&gt;/sequence/add/:w</title>
<path fill="none" stroke="black" d="M295.14,-260.61C309.4,-260.61 288.48,-209.76 288.18,-188.7"/>
<polygon fill="black" stroke="black" points="291.36,-190.18 293.14,-179.74 285.23,-186.79 291.36,-190.18"/>
<text text-anchor="middle" x="286.14" y="-183.54" font-family="Times,serif" font-size="14.00">i2</text>
</g>
<!-- /sequence/not&#45;last -->
<g id="node10" class="node">
<title>/sequence/not&#45;last</title>
<g id="a_node10"><a xlink:href="../../../target/flowstdlib/math/compare/compare.html" xlink:title="not&#45;last\n(compare)">
<ellipse fill="coral" stroke="black" cx="765.14" cy="-98.87" rx="62.87" ry="26.74"/>
<text text-anchor="middle" x="765.14" y="-102.67" font-family="Times,serif" font-size="14.00">not&#45;last</text>
<text text-anchor="middle" x="765.14" y="-87.67" font-family="Times,serif" font-size="14.00">(compare)</text>
</a>
</g>
</g>
<!-- /sequence/ -->
<g id="node11" class="node">
<title>/sequence/</title>
<ellipse fill="none" stroke="black" cx="549.14" cy="-350.35" rx="59.59" ry="18"/>
<text text-anchor="middle" x="549.14" y="-346.65" font-family="Times,serif" font-size="14.00">/sequence/</text>
</g>
<!-- /sequence/&#45;&gt;/sequence/compare_switch/ -->
<g id="edge1" class="edge">
<title>/sequence/:s&#45;&gt;/sequence/compare_switch/:ne</title>
<path fill="none" stroke="black" d="M549.14,-331.35C542.04,-312.14 562.47,-301.75 567.37,-289.76"/>
<polygon fill="black" stroke="black" points="570.86,-289.53 567.14,-279.61 563.86,-289.69 570.86,-289.53"/>
<text text-anchor="middle" x="539.1" y="-308.08" font-family="Times,serif" font-size="14.00">start</text>
<text text-anchor="middle" x="585.14" y="-283.41" font-family="Times,serif" font-size="14.00">right</text>
</g>
<!-- /sequence/&#45;&gt;/sequence/compare_switch/ -->
<g id="edge2" class="edge">
<title>/sequence/:s&#45;&gt;/sequence/compare_switch/:ne</title>
<path fill="none" stroke="black" d="M549.14,-331.35C556.88,-310.43 583.97,-299.97 574.8,-286.51"/>
<polygon fill="black" stroke="black" points="576.91,-283.71 567.14,-279.61 572.23,-288.91 576.91,-283.71"/>
<text text-anchor="middle" x="585.33" y="-309.91" font-family="Times,serif" font-size="14.00">limit</text>
<text text-anchor="middle" x="554.64" y="-268.41" font-family="Times,serif" font-size="14.00">left</text>
</g>
<!-- /sequence/&#45;&gt;/sequence/add/ -->
<g id="edge5" class="edge">
<title>/sequence/:s&#45;&gt;/sequence/add/:w</title>
<path fill="none" stroke="black" d="M549.14,-331.35C549.14,-263.17 462.25,-319.67 402.14,-287.48 347.13,-258.02 322.21,-253.48 294.14,-197.74 292.9,-195.28 291.45,-192.38 290.4,-189.64"/>
<polygon fill="black" stroke="black" points="293.85,-190.31 293.14,-179.74 287.1,-188.45 293.85,-190.31"/>
<text text-anchor="middle" x="386.56" y="-291.24" font-family="Times,serif" font-size="14.00">step</text>
<text text-anchor="middle" x="286.14" y="-168.54" font-family="Times,serif" font-size="14.00">i2</text>
</g>
<!-- /sequence/compare_switch/&#45;&gt;/sequence/ -->
<g id="edge3" class="edge">
<title>/sequence/compare_switch/:s&#45;&gt;/sequence/:n</title>
<path fill="none" stroke="black" d="M549.14,-241.61C540.14,-226.3 667.14,-231.75 677.93,-242.61 689.2,-253.96 685.55,-264.54 677.93,-278.61 660.55,-310.71 629.68,-293.3 609.14,-323.48 597.69,-340.31 615.6,-355.35 599.94,-368.35 582.84,-382.54 552.54,-392.28 548.32,-379.57"/>
<polygon fill="black" stroke="black" points="551.83,-379.6 549.14,-369.35 544.85,-379.04 551.83,-379.6"/>
<text text-anchor="middle" x="636.14" y="-316.97" font-family="Times,serif" font-size="14.00">right&#45;lte</text>
<text text-anchor="middle" x="515.64" y="-373.15" font-family="Times,serif" font-size="14.00">sequence</text>
</g>
<!-- /sequence/compare_switch/&#45;&gt;/sequence/ -->
<g id="edge15" class="edge">
<title>/sequence/compare_switch/:s&#45;&gt;/sequence/:n</title>
<path fill="none" stroke="black" d="M549.14,-241.61C558.14,-226.3 685.14,-231.75 695.93,-242.61 707.2,-253.96 703.55,-264.54 695.93,-278.61 678.55,-310.71 647.68,-293.3 627.14,-323.48 615.69,-340.31 633.6,-355.35 617.94,-368.35 600.2,-383.07 568.26,-393 554.22,-378.04"/>
<polygon fill="black" stroke="black" points="557.21,-376.22 549.14,-369.35 551.16,-379.75 557.21,-376.22"/>
<text text-anchor="middle" x="517.14" y="-230.41" font-family="Times,serif" font-size="14.00">right&#45;gte</text>
<text text-anchor="middle" x="562.64" y="-373.15" font-family="Times,serif" font-size="14.00">last</text>
</g>
<!-- /sequence/compare_switch/&#45;&gt;/sequence/compare_switch/ -->
<g id="edge4" class="edge">
<title>/sequence/compare_switch/:s&#45;&gt;/sequence/compare_switch/:ne</title>
<path fill="none" stroke="black" d="M549.14,-242.61C601.07,-222.61 704.93,-222.61 704.93,-260.61 704.93,-296.38 628.84,-298.48 576.6,-281.92"/>
<polygon fill="black" stroke="black" points="577.74,-278.61 567.14,-278.61 575.43,-285.22 577.74,-278.61"/>
<text text-anchor="middle" x="572.99" y="-230.72" font-family="Times,serif" font-size="14.00">left&#45;gt</text>
<text text-anchor="middle" x="579.64" y="-282.41" font-family="Times,serif" font-size="14.00">left</text>
</g>
<!-- /sequence/compare_switch/&#45;&gt;/sequence/add/ -->
<g id="edge6" class="edge">
<title>/sequence/compare_switch/:se&#45;&gt;/sequence/add/:ne</title>
<path fill="none" stroke="black" d="M567.14,-241.61C621.41,-187.35 463.45,-248.7 400.08,-204.37"/>
<polygon fill="black" stroke="black" points="402.06,-201.47 392.14,-197.74 397.57,-206.84 402.06,-201.47"/>
<text text-anchor="middle" x="461.46" y="-225.51" font-family="Times,serif" font-size="14.00">right</text>
<text text-anchor="middle" x="385.14" y="-201.54" font-family="Times,serif" font-size="14.00">i1</text>
</g>
<!-- /sequence/not&#45;last/ -->
<g id="node15" class="node">
<title>/sequence/not&#45;last/</title>
<ellipse fill="none" stroke="black" cx="570.14" cy="-179.74" rx="98.28" ry="18"/>
<text text-anchor="middle" x="570.14" y="-176.04" font-family="Times,serif" font-size="14.00">/sequence/not&#45;last/</text>
</g>
<!-- /sequence/compare_switch/&#45;&gt;/sequence/not&#45;last/ -->
<g id="edge12" class="edge">
<title>/sequence/compare_switch/:se&#45;&gt;/sequence/not&#45;last/:ne</title>
<path fill="none" stroke="black" d="M567.14,-241.61C572,-229.79 585.67,-219.15 588.7,-207.87"/>
<polygon fill="black" stroke="black" points="592.19,-207.53 588.14,-197.74 585.2,-207.92 592.19,-207.53"/>
<text text-anchor="middle" x="593.14" y="-210.74" font-family="Times,serif" font-size="14.00">left</text>
<text text-anchor="middle" x="570.14" y="-201.54" font-family="Times,serif" font-size="14.00">right</text>
</g>
<!-- /sequence/compare_switch/&#45;&gt;/sequence/not&#45;last/ -->
<g id="edge13" class="edge">
<title>/sequence/compare_switch/:se&#45;&gt;/sequence/not&#45;last/:ne</title>
<path fill="none" stroke="black" d="M567.14,-241.61C587.82,-228.59 606.12,-217.02 596.1,-204.43"/>
<polygon fill="black" stroke="black" points="598.05,-201.49 588.14,-197.74 593.55,-206.85 598.05,-201.49"/>
<text text-anchor="middle" x="611.15" y="-226.64" font-family="Times,serif" font-size="14.00">right</text>
<text text-anchor="middle" x="600.64" y="-201.54" font-family="Times,serif" font-size="14.00">left</text>
</g>
<!-- /sequence/step&#45;tap/ -->
<g id="node16" class="node">
<title>/sequence/step&#45;tap/</title>
<ellipse fill="none" stroke="black" cx="583.14" cy="-98.87" rx="100.98" ry="18"/>
<text text-anchor="middle" x="583.14" y="-95.17" font-family="Times,serif" font-size="14.00">/sequence/step&#45;tap/</text>
</g>
<!-- /sequence/add/&#45;&gt;/sequence/step&#45;tap/ -->
<g id="edge10" class="edge">
<title>/sequence/add/:e&#45;&gt;/sequence/step&#45;tap/:nw</title>
<path fill="none" stroke="black" d="M455.14,-179.74C463.9,-179.74 456.91,-167.89 463.14,-161.74 495.64,-129.63 525.48,-149.28 557.42,-124.69"/>
<polygon fill="black" stroke="black" points="559.96,-127.11 565.14,-117.87 555.33,-121.86 559.96,-127.11"/>
<text text-anchor="middle" x="502.04" y="-144.4" font-family="Times,serif" font-size="14.00">i2</text>
<text text-anchor="middle" x="549.14" y="-121.67" font-family="Times,serif" font-size="14.00">data</text>
</g>
<!-- /sequence/not&#45;last/&#45;&gt;/sequence/next&#45;tap/ -->
<g id="edge8" class="edge">
<title>/sequence/not&#45;last/:se&#45;&gt;/sequence/next&#45;tap/:nw</title>
<path fill="none" stroke="black" d="M588.14,-161.74C670.05,-79.83 265.76,-194.49 315.39,-125.63"/>
<polygon fill="black" stroke="black" points="318.21,-127.71 322.14,-117.87 312.94,-123.11 318.21,-127.71"/>
<text text-anchor="middle" x="458.39" y="-142.59" font-family="Times,serif" font-size="14.00">lt</text>
<text text-anchor="middle" x="347.64" y="-121.67" font-family="Times,serif" font-size="14.00">control</text>
</g>
<!-- /sequence/not&#45;last/&#45;&gt;/sequence/step&#45;tap/ -->
<g id="edge14" class="edge">
<title>/sequence/not&#45;last/:se&#45;&gt;/sequence/step&#45;tap/:nw</title>
<path fill="none" stroke="black" d="M588.14,-161.74C600.3,-149.58 569.92,-139.14 563.47,-127.74"/>
<polygon fill="black" stroke="black" points="566.93,-128.31 565.14,-117.87 560.02,-127.15 566.93,-128.31"/>
<text text-anchor="middle" x="571.11" y="-143.58" font-family="Times,serif" font-size="14.00">lt</text>
<text text-anchor="middle" x="590.64" y="-121.67" font-family="Times,serif" font-size="14.00">control</text>
</g>
</g>
</svg>
