<?xml version="1.0" encoding="UTF-8" standalone="no"?>
<!DOCTYPE svg PUBLIC "-//W3C//DTD SVG 1.1//EN"
 "http://www.w3.org/Graphics/SVG/1.1/DTD/svg11.dtd">
<!-- Generated by graphviz version 2.44.1 (20200629.0846)
 -->
<!-- Title: my_first_flow Pages: 1 -->
<svg width="554pt" height="285pt"
 viewBox="28.80 28.80 525.08 255.80" xmlns="http://www.w3.org/2000/svg" xmlns:xlink="http://www.w3.org/1999/xlink">
<g id="graph0" class="graph" transform="scale(1 1) rotate(0) translate(32.8 251.8)">
<title>my_first_flow</title>
<polygon fill="white" stroke="transparent" points="-4,4 -4,-223 492.28,-223 492.28,4 -4,4"/>
<text text-anchor="middle" x="244.14" y="-203.8" font-family="Times,serif" font-size="14.00">my&#45;first&#45;flow</text>
<!-- /my&#45;first&#45;flow/add -->
<g id="node1" class="node">
<title>/my&#45;first&#45;flow/add</title>
<g id="a_node1"><a xlink:href="../../flowstdlib/math/add/add.html" xlink:title="add">
<ellipse fill="coral" stroke="black" cx="250.64" cy="-91" rx="27" ry="18"/>
<text text-anchor="middle" x="250.64" y="-87.3" font-family="Times,serif" font-size="14.00">add</text>
</a>
</g>
</g>
<!-- /my&#45;first&#45;flow/add&#45;&gt;/my&#45;first&#45;flow/add -->
<g id="edge3" class="edge">
<title>/my&#45;first&#45;flow/add:sw&#45;&gt;/my&#45;first&#45;flow/add:w</title>
<path fill="none" stroke="black" d="M235.64,-76C220.64,-67 205.64,-67 205.64,-83.5 205.64,-93.81 210.33,-97.68 215.31,-96.93"/>
<polygon fill="black" stroke="black" points="217.52,-99.65 223.64,-91 213.46,-93.95 217.52,-99.65"/>
<text text-anchor="middle" x="222.23" y="-63.98" font-family="Times,serif" font-size="14.00">sum</text>
<text text-anchor="middle" x="218.14" y="-94.8" font-family="Times,serif" font-size="14.00">i2</text>
</g>
<!-- /my&#45;first&#45;flow/add&#45;&gt;/my&#45;first&#45;flow/add -->
<g id="edge5" class="edge">
<title>/my&#45;first&#45;flow/add:e&#45;&gt;/my&#45;first&#45;flow/add:ne</title>
<path fill="none" stroke="black" d="M277.64,-91C283.64,-82 295.64,-82 295.64,-98.5 295.64,-111.52 286.3,-114.27 274.99,-110.42"/>
<polygon fill="black" stroke="black" points="276.18,-107.11 265.64,-106 273.18,-113.44 276.18,-107.11"/>
<text text-anchor="middle" x="283.15" y="-94.79" font-family="Times,serif" font-size="14.00">i2</text>
<text text-anchor="middle" x="260.14" y="-109.8" font-family="Times,serif" font-size="14.00">i1</text>
</g>
<!-- /my&#45;first&#45;flow/stdout -->
<g id="node4" class="node">
<title>/my&#45;first&#45;flow/stdout</title>
<g id="a_node4"><a xlink:href="../../flowr/src/lib/flowruntime/stdio/stdout.html" xlink:title="stdout">
<ellipse fill="coral" stroke="black" cx="268.64" cy="-18" rx="32.49" ry="18"/>
<text text-anchor="middle" x="268.64" y="-14.3" font-family="Times,serif" font-size="14.00">stdout</text>
</a>
</g>
</g>
<!-- /my&#45;first&#45;flow/add&#45;&gt;/my&#45;first&#45;flow/stdout -->
<g id="edge4" class="edge">
<title>/my&#45;first&#45;flow/add:sw&#45;&gt;/my&#45;first&#45;flow/stdout:w</title>
<path fill="none" stroke="black" d="M235.64,-75C220.66,-60.02 212.32,-30.25 224.79,-20.89"/>
<polygon fill="black" stroke="black" points="226.03,-24.17 234.64,-18 224.06,-17.46 226.03,-24.17"/>
<text text-anchor="middle" x="207.92" y="-49.61" font-family="Times,serif" font-size="14.00">sum</text>
</g>
<!-- initializer/my&#45;first&#45;flow/add_0 -->
<!-- initializer/my&#45;first&#45;flow/add_0&#45;&gt;/my&#45;first&#45;flow/add -->
<g id="edge1" class="edge">
<title>initializer/my&#45;first&#45;flow/add_0&#45;&gt;/my&#45;first&#45;flow/add:ne</title>
<path fill="none" stroke="blue" stroke-dasharray="1,5" d="M339.33,-160.54C319.55,-149.25 293.88,-132.93 273.07,-114.06"/>
<polygon fill="blue" stroke="blue" points="275.3,-111.35 265.64,-107 270.48,-116.43 275.3,-111.35"/>
<text text-anchor="middle" x="311.14" y="-130.8" font-family="Times,serif" font-size="14.00">0</text>
</g>
<!-- initializer/my&#45;first&#45;flow/add_1 -->
<!-- initializer/my&#45;first&#45;flow/add_1&#45;&gt;/my&#45;first&#45;flow/add -->
<g id="edge2" class="edge">
<title>initializer/my&#45;first&#45;flow/add_1&#45;&gt;/my&#45;first&#45;flow/add:w</title>
<path fill="none" stroke="blue" stroke-dasharray="1,5" d="M127.87,-160.01C143.04,-137 173.88,-98.08 212.2,-91.85"/>
<polygon fill="blue" stroke="blue" points="212.96,-95.3 222.64,-91 212.39,-88.33 212.96,-95.3"/>
<text text-anchor="middle" x="155.14" y="-130.8" font-family="Times,serif" font-size="14.00">1</text>
</g>
</g>
</svg>
