<?xml version="1.0" encoding="UTF-8" standalone="no"?>
<!DOCTYPE svg PUBLIC "-//W3C//DTD SVG 1.1//EN"
 "http://www.w3.org/Graphics/SVG/1.1/DTD/svg11.dtd">
<!-- Generated by graphviz version 2.42.3 (20191010.1750)
 -->
<!-- Title: my_first_flow Pages: 1 -->
<svg width="552pt" height="298pt"
 viewBox="28.80 28.80 523.19 268.71" xmlns="http://www.w3.org/2000/svg" xmlns:xlink="http://www.w3.org/1999/xlink">
<g id="graph0" class="graph" transform="scale(1 1) rotate(0) translate(32.8 264.71)">
<title>my_first_flow</title>
<polygon fill="white" stroke="transparent" points="-4,4 -4,-235.91 490.39,-235.91 490.39,4 -4,4"/>
<text text-anchor="middle" x="243.2" y="-216.71" font-family="Times,serif" font-size="14.00">my&#45;first&#45;flow</text>
<!-- /my&#45;first&#45;flow/add -->
<g id="node1" class="node">
<title>/my&#45;first&#45;flow/add</title>
<g id="a_node1"><a xlink:href="../../flowstdlib/math/add/add.toml" xlink:title="add\n(Add)">
<ellipse fill="coral" stroke="black" cx="250.2" cy="-98.46" rx="34.91" ry="25.41"/>
<text text-anchor="middle" x="250.2" y="-101.26" font-family="Times,serif" font-size="14.00">add</text>
<text text-anchor="middle" x="250.2" y="-87.26" font-family="Times,serif" font-size="14.00">(Add)</text>
</a>
</g>
</g>
<!-- /my&#45;first&#45;flow/add&#45;&gt;/my&#45;first&#45;flow/add -->
<g id="edge3" class="edge">
<title>/my&#45;first&#45;flow/add:sw&#45;&gt;/my&#45;first&#45;flow/add:w</title>
<path fill="none" stroke="black" d="M229.2,-77.46C211.54,-66.96 197.24,-66.96 197.24,-87.96 197.24,-101.74 202.41,-106.47 207.64,-105.14"/>
<polygon fill="black" stroke="black" points="210.02,-107.7 215.2,-98.46 205.39,-102.46 210.02,-107.7"/>
<text text-anchor="middle" x="216.7" y="-65.77" font-family="Times,serif" font-size="14.00">sum</text>
<text text-anchor="middle" x="209.75" y="-101.26" font-family="Times,serif" font-size="14.00">i2</text>
</g>
<!-- /my&#45;first&#45;flow/add&#45;&gt;/my&#45;first&#45;flow/add -->
<g id="edge5" class="edge">
<title>/my&#45;first&#45;flow/add:e&#45;&gt;/my&#45;first&#45;flow/add:ne</title>
<path fill="none" stroke="black" d="M285.2,-98.46C291.15,-87.96 303.15,-87.96 303.15,-108.96 303.15,-126.18 293.53,-129.28 280.32,-124.04"/>
<polygon fill="black" stroke="black" points="281.7,-120.81 271.2,-119.46 278.56,-127.07 281.7,-120.81"/>
<text text-anchor="middle" x="290.65" y="-101.24" font-family="Times,serif" font-size="14.00">i2</text>
<text text-anchor="middle" x="276.64" y="-122.26" font-family="Times,serif" font-size="14.00">i1</text>
</g>
<!-- /my&#45;first&#45;flow/Stdout -->
<g id="node4" class="node">
<title>/my&#45;first&#45;flow/Stdout</title>
<g id="a_node4"><a xlink:href="../../flowruntime/stdio/stdout.toml" xlink:title="Stdout">
<ellipse fill="coral" stroke="black" cx="263.2" cy="-18" rx="33.41" ry="18"/>
<text text-anchor="middle" x="263.2" y="-13.8" font-family="Times,serif" font-size="14.00">Stdout</text>
</a>
</g>
</g>
<!-- /my&#45;first&#45;flow/add&#45;&gt;/my&#45;first&#45;flow/Stdout -->
<g id="edge4" class="edge">
<title>/my&#45;first&#45;flow/add:sw&#45;&gt;/my&#45;first&#45;flow/Stdout:w</title>
<path fill="none" stroke="black" d="M229.2,-76.46C213.69,-60.95 205.14,-30 218.45,-20.7"/>
<polygon fill="black" stroke="black" points="219.49,-24.04 228.2,-18 217.62,-17.3 219.49,-24.04"/>
<text text-anchor="middle" x="201.34" y="-49.02" font-family="Times,serif" font-size="14.00">sum</text>
</g>
<!-- initializer/my&#45;first&#45;flow/add_0 -->
<!-- initializer/my&#45;first&#45;flow/add_0&#45;&gt;/my&#45;first&#45;flow/add -->
<g id="edge1" class="edge">
<title>initializer/my&#45;first&#45;flow/add_0&#45;&gt;/my&#45;first&#45;flow/add:ne</title>
<path fill="none" stroke="blue" stroke-dasharray="1,5" d="M341.15,-174.23C322.82,-162.63 298.65,-145.98 278.64,-127.58"/>
<polygon fill="blue" stroke="blue" points="280.84,-124.84 271.2,-120.46 276,-129.9 280.84,-124.84"/>
<text text-anchor="middle" x="314.7" y="-144.71" font-family="Times,serif" font-size="14.00">0</text>
</g>
<!-- initializer/my&#45;first&#45;flow/add_1 -->
<!-- initializer/my&#45;first&#45;flow/add_1&#45;&gt;/my&#45;first&#45;flow/add -->
<g id="edge2" class="edge">
<title>initializer/my&#45;first&#45;flow/add_1&#45;&gt;/my&#45;first&#45;flow/add:w</title>
<path fill="none" stroke="blue" stroke-dasharray="1,5" d="M125.28,-173.95C138.17,-149.45 165.86,-106.31 203.79,-99.4"/>
<polygon fill="blue" stroke="blue" points="204.55,-102.85 214.2,-98.46 203.92,-95.88 204.55,-102.85"/>
<text text-anchor="middle" x="146.7" y="-144.71" font-family="Times,serif" font-size="14.00">1</text>
</g>
</g>
</svg>
