<?xml version="1.0" encoding="UTF-8" standalone="no"?>
<!DOCTYPE svg PUBLIC "-//W3C//DTD SVG 1.1//EN"
 "http://www.w3.org/Graphics/SVG/1.1/DTD/svg11.dtd">
<!-- Generated by graphviz version 2.40.1 (20161225.0304)
 -->
<!-- Title: my_first_flow Pages: 1 -->
<svg width="674pt" height="285pt"
 viewBox="28.80 28.80 644.87 255.80" xmlns="http://www.w3.org/2000/svg" xmlns:xlink="http://www.w3.org/1999/xlink">
<g id="graph0" class="graph" transform="scale(1 1) rotate(0) translate(32.8 251.8)">
<title>my_first_flow</title>
<polygon fill="#ffffff" stroke="transparent" points="-4,4 -4,-223 612.0738,-223 612.0738,4 -4,4"/>
<text text-anchor="middle" x="304.0369" y="-203.8" font-family="Times,serif" font-size="14.00" fill="#000000">my&#45;first&#45;flow</text>
<!-- /my&#45;first&#45;flow/add -->
<g id="node1" class="node">
<title>/my&#45;first&#45;flow/add</title>
<g id="a_node1"><a xlink:href="../../flowstdlib/math/add/add.html" xlink:title="add">
<ellipse fill="#ff7f50" stroke="#000000" cx="310.5369" cy="-91" rx="27.8951" ry="18"/>
<text text-anchor="middle" x="310.5369" y="-87.3" font-family="Times,serif" font-size="14.00" fill="#000000">add</text>
</a>
</g>
</g>
<!-- /my&#45;first&#45;flow/add&#45;&gt;/my&#45;first&#45;flow/add -->
<g id="edge3" class="edge">
<title>/my&#45;first&#45;flow/add:sw&#45;&gt;/my&#45;first&#45;flow/add:w</title>
<path fill="none" stroke="#000000" d="M294.5369,-75C279.2211,-66 264.5894,-66 264.5894,-83 264.5894,-93.625 269.2769,-97.6094 274.2445,-96.9063"/>
<polygon fill="#000000" stroke="#000000" points="276.4222,-99.6523 282.5369,-91 272.3612,-93.9506 276.4222,-99.6523"/>
<text text-anchor="middle" x="277.9613" y="-63.1821" font-family="Times,serif" font-size="14.00" fill="#000000">sum</text>
<text text-anchor="middle" x="275.5369" y="-94.8" font-family="Times,serif" font-size="14.00" fill="#000000">i2</text>
</g>
<!-- /my&#45;first&#45;flow/add&#45;&gt;/my&#45;first&#45;flow/add -->
<g id="edge5" class="edge">
<title>/my&#45;first&#45;flow/add:e&#45;&gt;/my&#45;first&#45;flow/add:ne</title>
<path fill="none" stroke="#000000" d="M338.5369,-91C344.4844,-82 356.4844,-82 356.4844,-99 356.4844,-112.5469 347.1932,-115.2986 335.6684,-111.3033"/>
<polygon fill="#000000" stroke="#000000" points="337.0748,-108.097 326.5369,-107 334.0907,-114.429 337.0748,-108.097"/>
<text text-anchor="middle" x="345.5456" y="-94.7868" font-family="Times,serif" font-size="14.00" fill="#000000">i2</text>
<text text-anchor="middle" x="333.5369" y="-110.8" font-family="Times,serif" font-size="14.00" fill="#000000">i1</text>
</g>
<!-- /my&#45;first&#45;flow/stdout -->
<g id="node4" class="node">
<title>/my&#45;first&#45;flow/stdout</title>
<g id="a_node4"><a xlink:href="../../flowr/src/lib/flowruntime/stdio/stdout.html" xlink:title="stdout">
<ellipse fill="#ff7f50" stroke="#000000" cx="335.5369" cy="-18" rx="40.0939" ry="18"/>
<text text-anchor="middle" x="335.5369" y="-14.3" font-family="Times,serif" font-size="14.00" fill="#000000">stdout</text>
</a>
</g>
</g>
<!-- /my&#45;first&#45;flow/add&#45;&gt;/my&#45;first&#45;flow/stdout -->
<g id="edge4" class="edge">
<title>/my&#45;first&#45;flow/add:sw&#45;&gt;/my&#45;first&#45;flow/stdout:w</title>
<path fill="none" stroke="#000000" d="M294.5369,-75C279.5624,-60.0255 271.9207,-30.2554 284.6147,-20.8901"/>
<polygon fill="#000000" stroke="#000000" points="285.9147,-24.157 294.5369,-18 283.9571,-17.4363 285.9147,-24.157"/>
<text text-anchor="middle" x="263.6873" y="-34.5802" font-family="Times,serif" font-size="14.00" fill="#000000">sum</text>
</g>
<!-- initializer/my&#45;first&#45;flow/add_0 -->
<!-- initializer/my&#45;first&#45;flow/add_0&#45;&gt;/my&#45;first&#45;flow/add -->
<g id="edge1" class="edge">
<title>initializer/my&#45;first&#45;flow/add_0&#45;&gt;/my&#45;first&#45;flow/add:ne</title>
<path fill="none" stroke="#0000ff" stroke-dasharray="1,5" d="M412.6954,-160.9203C387.6282,-150.2835 357.3525,-134.645 333.8973,-113.911"/>
<polygon fill="#0000ff" stroke="#0000ff" points="336.2228,-111.2935 326.5369,-107 331.4313,-116.3966 336.2228,-111.2935"/>
<text text-anchor="middle" x="377.5369" y="-130.8" font-family="Times,serif" font-size="14.00" fill="#000000">0</text>
</g>
<!-- initializer/my&#45;first&#45;flow/add_1 -->
<!-- initializer/my&#45;first&#45;flow/add_1&#45;&gt;/my&#45;first&#45;flow/add -->
<g id="edge2" class="edge">
<title>initializer/my&#45;first&#45;flow/add_1&#45;&gt;/my&#45;first&#45;flow/add:w</title>
<path fill="none" stroke="#0000ff" stroke-dasharray="1,5" d="M162.5139,-159.9735C183.9552,-136.1829 225.9856,-96.6967 272.5399,-91.5573"/>
<polygon fill="#0000ff" stroke="#0000ff" points="272.7473,-95.0513 282.5369,-91 272.3576,-88.0622 272.7473,-95.0513"/>
<text text-anchor="middle" x="198.5369" y="-130.8" font-family="Times,serif" font-size="14.00" fill="#000000">1</text>
</g>
</g>
</svg>
