<?xml version="1.0" encoding="UTF-8" standalone="no"?>
<!DOCTYPE svg PUBLIC "-//W3C//DTD SVG 1.1//EN"
 "http://www.w3.org/Graphics/SVG/1.1/DTD/svg11.dtd">
<!-- Generated by graphviz version 2.42.4 (0)
 -->
<!-- Title: my_first_flow Pages: 1 -->
<svg width="668pt" height="302pt"
 viewBox="28.80 28.80 639.27 273.54" xmlns="http://www.w3.org/2000/svg" xmlns:xlink="http://www.w3.org/1999/xlink">
<g id="graph0" class="graph" transform="scale(1 1) rotate(0) translate(32.8 269.54)">
<title>my_first_flow</title>
<polygon fill="white" stroke="transparent" points="-4,4 -4,-240.74 606.47,-240.74 606.47,4 -4,4"/>
<text text-anchor="middle" x="301.24" y="-221.54" font-family="Times,serif" font-size="14.00">my&#45;first&#45;flow</text>
<!-- /my&#45;first&#45;flow/add -->
<g id="node1" class="node">
<title>/my&#45;first&#45;flow/add</title>
<g id="a_node1"><a xlink:href="../../flowstdlib/math/add/add.html" xlink:title="add\n(Add)">
<ellipse fill="coral" stroke="black" cx="310.24" cy="-99.87" rx="38.78" ry="26.74"/>
<text text-anchor="middle" x="310.24" y="-103.67" font-family="Times,serif" font-size="14.00">add</text>
<text text-anchor="middle" x="310.24" y="-88.67" font-family="Times,serif" font-size="14.00">(Add)</text>
</a>
</g>
</g>
<!-- /my&#45;first&#45;flow/add&#45;&gt;/my&#45;first&#45;flow/add -->
<g id="edge3" class="edge">
<title>/my&#45;first&#45;flow/add:sw&#45;&gt;/my&#45;first&#45;flow/add:w</title>
<path fill="none" stroke="black" d="M288.24,-77.87C269.27,-66.87 253.35,-66.87 253.35,-88.87 253.35,-103.31 258.51,-108.27 263.73,-106.87"/>
<polygon fill="black" stroke="black" points="266.31,-109.25 271.24,-99.87 261.54,-104.13 266.31,-109.25"/>
<text text-anchor="middle" x="270.53" y="-65.43" font-family="Times,serif" font-size="14.00">sum</text>
<text text-anchor="middle" x="264.24" y="-103.67" font-family="Times,serif" font-size="14.00">i2</text>
</g>
<!-- /my&#45;first&#45;flow/add&#45;&gt;/my&#45;first&#45;flow/add -->
<g id="edge5" class="edge">
<title>/my&#45;first&#45;flow/add:e&#45;&gt;/my&#45;first&#45;flow/add:ne</title>
<path fill="none" stroke="black" d="M349.24,-99.87C355.13,-88.87 367.13,-88.87 367.13,-110.87 367.13,-129.26 356,-132.28 341.27,-126.35"/>
<polygon fill="black" stroke="black" points="342.75,-123.18 332.24,-121.87 339.64,-129.45 342.75,-123.18"/>
<text text-anchor="middle" x="356.24" y="-103.66" font-family="Times,serif" font-size="14.00">i2</text>
<text text-anchor="middle" x="325.24" y="-125.67" font-family="Times,serif" font-size="14.00">i1</text>
</g>
<!-- /my&#45;first&#45;flow/Stdout -->
<g id="node4" class="node">
<title>/my&#45;first&#45;flow/Stdout</title>
<g id="a_node4"><a xlink:href="../../flowruntime/stdio/stdout.html" xlink:title="Stdout">
<ellipse fill="coral" stroke="black" cx="331.24" cy="-18" rx="42.49" ry="18"/>
<text text-anchor="middle" x="331.24" y="-14.3" font-family="Times,serif" font-size="14.00">Stdout</text>
</a>
</g>
</g>
<!-- /my&#45;first&#45;flow/add&#45;&gt;/my&#45;first&#45;flow/Stdout -->
<g id="edge4" class="edge">
<title>/my&#45;first&#45;flow/add:sw&#45;&gt;/my&#45;first&#45;flow/Stdout:w</title>
<path fill="none" stroke="black" d="M288.24,-76.87C272.62,-61.26 264.02,-30.08 277.43,-20.72"/>
<polygon fill="black" stroke="black" points="278.54,-24.04 287.24,-18 276.67,-17.3 278.54,-24.04"/>
<text text-anchor="middle" x="256.44" y="-50.22" font-family="Times,serif" font-size="14.00">sum</text>
</g>
<!-- initializer/my&#45;first&#45;flow/add_0 -->
<!-- initializer/my&#45;first&#45;flow/add_0&#45;&gt;/my&#45;first&#45;flow/add -->
<g id="edge1" class="edge">
<title>initializer/my&#45;first&#45;flow/add_0&#45;&gt;/my&#45;first&#45;flow/add:ne</title>
<path fill="none" stroke="blue" stroke-dasharray="1,5" d="M416.68,-178.35C392.97,-167.21 362.99,-150.7 339.59,-129.81"/>
<polygon fill="blue" stroke="blue" points="341.91,-127.19 332.24,-122.87 337.11,-132.28 341.91,-127.19"/>
<text text-anchor="middle" x="383.24" y="-148.54" font-family="Times,serif" font-size="14.00">0</text>
</g>
<!-- initializer/my&#45;first&#45;flow/add_1 -->
<!-- initializer/my&#45;first&#45;flow/add_1&#45;&gt;/my&#45;first&#45;flow/add -->
<g id="edge2" class="edge">
<title>initializer/my&#45;first&#45;flow/add_1&#45;&gt;/my&#45;first&#45;flow/add:w</title>
<path fill="none" stroke="blue" stroke-dasharray="1,5" d="M157.36,-177.78C175.46,-152.3 213.97,-106.49 260.25,-100.52"/>
<polygon fill="blue" stroke="blue" points="260.48,-104.01 270.24,-99.87 260.03,-97.02 260.48,-104.01"/>
<text text-anchor="middle" x="186.24" y="-148.54" font-family="Times,serif" font-size="14.00">1</text>
</g>
</g>
</svg>
