<?xml version="1.0" encoding="UTF-8" standalone="no"?>
<!DOCTYPE svg PUBLIC "-//W3C//DTD SVG 1.1//EN"
 "http://www.w3.org/Graphics/SVG/1.1/DTD/svg11.dtd">
<!-- Generated by graphviz version 2.40.1 (0)
 -->
<!-- Title: my_first_flow Pages: 1 -->
<svg width="668pt" height="302pt"
 viewBox="28.80 28.80 639.27 273.54" xmlns="http://www.w3.org/2000/svg" xmlns:xlink="http://www.w3.org/1999/xlink">
<g id="graph0" class="graph" transform="scale(1 1) rotate(0) translate(32.8 269.5401)">
<title>my_first_flow</title>
<polygon fill="#ffffff" stroke="transparent" points="-4,4 -4,-240.7401 606.474,-240.7401 606.474,4 -4,4"/>
<text text-anchor="middle" x="301.237" y="-221.5401" font-family="Times,serif" font-size="14.00" fill="#000000">my&#45;first&#45;flow</text>
<!-- /my&#45;first&#45;flow/add -->
<g id="node1" class="node">
<title>/my&#45;first&#45;flow/add</title>
<g id="a_node1"><a xlink:href="../../flowstdlib/math/add/add.toml" xlink:title="add\n(Add)">
<ellipse fill="#ff7f50" stroke="#000000" cx="310.237" cy="-99.8701" rx="38.7821" ry="26.7407"/>
<text text-anchor="middle" x="310.237" y="-103.6701" font-family="Times,serif" font-size="14.00" fill="#000000">add</text>
<text text-anchor="middle" x="310.237" y="-88.6701" font-family="Times,serif" font-size="14.00" fill="#000000">(Add)</text>
</a>
</g>
</g>
<!-- /my&#45;first&#45;flow/add&#45;&gt;/my&#45;first&#45;flow/add -->
<g id="edge3" class="edge">
<title>/my&#45;first&#45;flow/add:sw&#45;&gt;/my&#45;first&#45;flow/add:w</title>
<path fill="none" stroke="#000000" d="M288.237,-77.8701C269.2734,-66.8701 253.3462,-66.8701 253.3462,-88.8701 253.3462,-103.3076 258.5141,-108.2704 263.732,-106.8676"/>
<polygon fill="#000000" stroke="#000000" points="266.3098,-109.2495 271.237,-99.8701 261.5361,-104.1296 266.3098,-109.2495"/>
<text text-anchor="middle" x="270.5294" y="-65.432" font-family="Times,serif" font-size="14.00" fill="#000000">sum</text>
<text text-anchor="middle" x="264.237" y="-103.6701" font-family="Times,serif" font-size="14.00" fill="#000000">i2</text>
</g>
<!-- /my&#45;first&#45;flow/add&#45;&gt;/my&#45;first&#45;flow/add -->
<g id="edge5" class="edge">
<title>/my&#45;first&#45;flow/add:e&#45;&gt;/my&#45;first&#45;flow/add:ne</title>
<path fill="none" stroke="#000000" d="M349.237,-99.8701C355.1279,-88.8701 367.1279,-88.8701 367.1279,-110.8701 367.1279,-129.2607 355.9981,-132.2779 341.2686,-126.3473"/>
<polygon fill="#000000" stroke="#000000" points="342.7511,-123.1758 332.237,-121.8701 339.642,-129.4475 342.7511,-123.1758"/>
<text text-anchor="middle" x="356.2413" y="-103.662" font-family="Times,serif" font-size="14.00" fill="#000000">i2</text>
<text text-anchor="middle" x="325.237" y="-125.6701" font-family="Times,serif" font-size="14.00" fill="#000000">i1</text>
</g>
<!-- /my&#45;first&#45;flow/Stdout -->
<g id="node4" class="node">
<title>/my&#45;first&#45;flow/Stdout</title>
<g id="a_node4"><a xlink:href="../../flowruntime/stdio/stdout.toml" xlink:title="Stdout">
<ellipse fill="#ff7f50" stroke="#000000" cx="331.237" cy="-18" rx="42.4939" ry="18"/>
<text text-anchor="middle" x="331.237" y="-14.3" font-family="Times,serif" font-size="14.00" fill="#000000">Stdout</text>
</a>
</g>
</g>
<!-- /my&#45;first&#45;flow/add&#45;&gt;/my&#45;first&#45;flow/Stdout -->
<g id="edge4" class="edge">
<title>/my&#45;first&#45;flow/add:sw&#45;&gt;/my&#45;first&#45;flow/Stdout:w</title>
<path fill="none" stroke="#000000" d="M288.237,-77.8701C272.3616,-61.9946 264.3327,-30.2866 278.1946,-20.7655"/>
<polygon fill="#000000" stroke="#000000" points="279.5252,-24.0294 288.237,-18 277.6666,-17.2807 279.5252,-24.0294"/>
<text text-anchor="middle" x="256.5577" y="-50.7024" font-family="Times,serif" font-size="14.00" fill="#000000">sum</text>
</g>
<!-- initializer/my&#45;first&#45;flow/add_0 -->
<!-- initializer/my&#45;first&#45;flow/add_0&#45;&gt;/my&#45;first&#45;flow/add -->
<g id="edge1" class="edge">
<title>initializer/my&#45;first&#45;flow/add_0&#45;&gt;/my&#45;first&#45;flow/add:ne</title>
<path fill="none" stroke="#0000ff" stroke-dasharray="1,5" d="M416.2142,-178.2893C392.6241,-166.7055 362.9236,-149.782 339.5777,-128.8172"/>
<polygon fill="#0000ff" stroke="#0000ff" points="341.906,-126.2017 332.237,-121.8701 337.0944,-131.2859 341.906,-126.2017"/>
<text text-anchor="middle" x="383.237" y="-148.5401" font-family="Times,serif" font-size="14.00" fill="#000000">0</text>
</g>
<!-- initializer/my&#45;first&#45;flow/add_1 -->
<!-- initializer/my&#45;first&#45;flow/add_1&#45;&gt;/my&#45;first&#45;flow/add -->
<g id="edge2" class="edge">
<title>initializer/my&#45;first&#45;flow/add_1&#45;&gt;/my&#45;first&#45;flow/add:w</title>
<path fill="none" stroke="#0000ff" stroke-dasharray="1,5" d="M158.0731,-177.7077C176.5382,-151.8349 214.9038,-106.6109 260.9757,-100.5488"/>
<polygon fill="#0000ff" stroke="#0000ff" points="261.4899,-104.0226 271.237,-99.8701 261.0278,-97.0378 261.4899,-104.0226"/>
<text text-anchor="middle" x="189.237" y="-148.5401" font-family="Times,serif" font-size="14.00" fill="#000000">1</text>
</g>
</g>
</svg>
