<?xml version="1.0" encoding="UTF-8" standalone="no"?>
<!DOCTYPE svg PUBLIC "-//W3C//DTD SVG 1.1//EN"
 "http://www.w3.org/Graphics/SVG/1.1/DTD/svg11.dtd">
<!-- Generated by graphviz version 2.42.3 (20191010.1750)
 -->
<!-- Title: fib Pages: 1 -->
<svg width="542pt" height="366pt"
 viewBox="28.80 28.80 513.26 337.62" xmlns="http://www.w3.org/2000/svg" xmlns:xlink="http://www.w3.org/1999/xlink">
<g id="graph0" class="graph" transform="scale(1 1) rotate(0) translate(32.8 333.62)">
<title>fib</title>
<polygon fill="white" stroke="transparent" points="-4,4 -4,-304.82 480.46,-304.82 480.46,4 -4,4"/>
<text text-anchor="middle" x="238.23" y="-285.62" font-family="Times,serif" font-size="14.00">fib</text>
<!-- /fibonacci/fib/series -->
<g id="node1" class="node">
<title>/fibonacci/fib/series</title>
<polygon fill="black" stroke="black" points="212.47,-12.44 249.73,0 286.99,-12.44 286.96,-32.56 212.5,-32.56 212.47,-12.44"/>
<text text-anchor="middle" x="249.73" y="-13.8" font-family="Times,serif" font-size="14.00" fill="white">series</text>
</g>
<!-- /fibonacci/fib/buffer -->
<g id="node2" class="node">
<title>/fibonacci/fib/buffer</title>
<ellipse fill="coral" stroke="black" cx="166.73" cy="-79.46" rx="43.64" ry="25.41"/>
<text text-anchor="middle" x="166.73" y="-82.26" font-family="Times,serif" font-size="14.00">buffer</text>
<text text-anchor="middle" x="166.73" y="-68.26" font-family="Times,serif" font-size="14.00">(Buffer)</text>
</g>
<!-- /fibonacci/fib/add -->
<g id="node3" class="node">
<title>/fibonacci/fib/add</title>
<ellipse fill="coral" stroke="black" cx="245.73" cy="-167.37" rx="34.91" ry="25.41"/>
<text text-anchor="middle" x="245.73" y="-170.17" font-family="Times,serif" font-size="14.00">add</text>
<text text-anchor="middle" x="245.73" y="-156.17" font-family="Times,serif" font-size="14.00">(Add)</text>
</g>
<!-- /fibonacci/fib/buffer&#45;&gt;/fibonacci/fib/add -->
<g id="edge5" class="edge">
<title>/fibonacci/fib/buffer:e&#45;&gt;/fibonacci/fib/add:w</title>
<path fill="none" stroke="black" d="M211.73,-79.46C245.93,-79.46 188.83,-146.76 200.2,-163.59"/>
<polygon fill="black" stroke="black" points="199.14,-166.94 209.73,-167.37 201.72,-160.43 199.14,-166.94"/>
<text text-anchor="middle" x="204.29" y="-170.17" font-family="Times,serif" font-size="14.00">i2</text>
</g>
<!-- /fibonacci/fib/add&#45;&gt;/fibonacci/fib/series -->
<g id="edge4" class="edge">
<title>/fibonacci/fib/add:sw&#45;&gt;/fibonacci/fib/series:n</title>
<path fill="none" stroke="black" d="M224.73,-145.37C217.06,-137.7 240.81,-70.93 247.83,-43.85"/>
<polygon fill="black" stroke="black" points="251.28,-44.48 249.73,-34 244.4,-43.16 251.28,-44.48"/>
<text text-anchor="middle" x="222.85" y="-91.67" font-family="Times,serif" font-size="14.00">sum</text>
</g>
<!-- /fibonacci/fib/add&#45;&gt;/fibonacci/fib/buffer -->
<g id="edge3" class="edge">
<title>/fibonacci/fib/add:sw&#45;&gt;/fibonacci/fib/buffer:w</title>
<path fill="none" stroke="black" d="M224.73,-145.37C216.41,-137.05 220.39,-129.63 210.73,-122.91 177.95,-100.12 148.57,-135.34 122.73,-104.91 118.61,-100.06 115.22,-92.61 115.07,-87.02"/>
<polygon fill="black" stroke="black" points="117.75,-89.27 121.73,-79.46 112.49,-84.65 117.75,-89.27"/>
<text text-anchor="middle" x="161.86" y="-118.23" font-family="Times,serif" font-size="14.00">sum</text>
</g>
<!-- /fibonacci/fib/add&#45;&gt;/fibonacci/fib/add -->
<g id="edge6" class="edge">
<title>/fibonacci/fib/add:e&#45;&gt;/fibonacci/fib/add:ne</title>
<path fill="none" stroke="black" d="M280.73,-167.37C286.69,-156.87 298.69,-156.87 298.69,-177.87 298.69,-195.09 289.06,-198.19 275.86,-192.95"/>
<polygon fill="black" stroke="black" points="277.24,-189.73 266.73,-188.37 274.1,-195.98 277.24,-189.73"/>
<text text-anchor="middle" x="286.18" y="-170.15" font-family="Times,serif" font-size="14.00">i2</text>
<text text-anchor="middle" x="272.17" y="-191.17" font-family="Times,serif" font-size="14.00">i1</text>
</g>
<!-- initializer/fibonacci/fib/add_0 -->
<!-- initializer/fibonacci/fib/add_0&#45;&gt;/fibonacci/fib/add -->
<g id="edge1" class="edge">
<title>initializer/fibonacci/fib/add_0&#45;&gt;/fibonacci/fib/add:ne</title>
<path fill="none" stroke="blue" stroke-dasharray="1,5" d="M335.1,-243.17C317.35,-231.45 293.76,-214.65 274.07,-196.42"/>
<polygon fill="blue" stroke="blue" points="276.37,-193.77 266.73,-189.37 271.52,-198.82 276.37,-193.77"/>
<text text-anchor="middle" x="311.23" y="-213.62" font-family="Times,serif" font-size="14.00">0</text>
</g>
<!-- initializer/fibonacci/fib/add_1 -->
<!-- initializer/fibonacci/fib/add_1&#45;&gt;/fibonacci/fib/add -->
<g id="edge2" class="edge">
<title>initializer/fibonacci/fib/add_1&#45;&gt;/fibonacci/fib/add:w</title>
<path fill="none" stroke="blue" stroke-dasharray="1,5" d="M122.77,-242.43C135.38,-217.85 162.24,-175.14 199.5,-168.3"/>
<polygon fill="blue" stroke="blue" points="200.09,-171.76 209.73,-167.37 199.45,-164.79 200.09,-171.76"/>
<text text-anchor="middle" x="144.23" y="-213.62" font-family="Times,serif" font-size="14.00">1</text>
</g>
</g>
</svg>
