<?xml version="1.0" encoding="UTF-8" standalone="no"?>
<!DOCTYPE svg PUBLIC "-//W3C//DTD SVG 1.1//EN"
 "http://www.w3.org/Graphics/SVG/1.1/DTD/svg11.dtd">
<!-- Generated by graphviz version 2.42.3 (20191010.1750)
 -->
<!-- Title: fibonacci Pages: 1 -->
<svg width="521pt" height="279pt"
 viewBox="0.00 0.00 521.00 279.00" xmlns="http://www.w3.org/2000/svg" xmlns:xlink="http://www.w3.org/1999/xlink">
<g id="graph0" class="graph" transform="scale(1 1) rotate(0) translate(4 275)">
<title>fibonacci</title>
<polygon fill="white" stroke="transparent" points="-4,4 -4,-275 517,-275 517,4 -4,4"/>
<text text-anchor="middle" x="256.5" y="-255.8" font-family="Times,serif" font-size="14.00">/fibonacci</text>
<g id="clust1" class="cluster">
<title>cluster_fib</title>
<polygon fill="none" stroke="black" points="8,-8 8,-241 505,-241 505,-8 8,-8"/>
<text text-anchor="middle" x="256.5" y="-225.8" font-family="Times,serif" font-size="14.00">/fibonacci/fib</text>
</g>
<!-- r0 -->
<g id="node1" class="node">
<title>r0</title>
<g id="a_node1"><a xlink:href="file:///Users/andrew/workspace/flow/flowstdlib/data/buffer/buffer.toml" xlink:title="buffer (#0)">
<ellipse fill="coral" stroke="black" cx="449" cy="-193" rx="48.5" ry="18"/>
<text text-anchor="middle" x="449" y="-188.8" font-family="Times,serif" font-size="14.00">buffer (#0)</text>
</a>
</g>
</g>
<!-- r1 -->
<g id="node2" class="node">
<title>r1</title>
<g id="a_node2"><a xlink:href="file:///Users/andrew/workspace/flow/flowstdlib/math/add/add.toml" xlink:title="add (#1)">
<ellipse fill="coral" stroke="black" cx="331" cy="-107" rx="39.64" ry="18"/>
<text text-anchor="middle" x="331" y="-102.8" font-family="Times,serif" font-size="14.00">add (#1)</text>
</a>
</g>
</g>
<!-- r0&#45;&gt;r1 -->
<g id="edge1" class="edge">
<title>r0:e&#45;&gt;r1:ne</title>
<path fill="none" stroke="black" d="M499,-193C507.01,-193 502.71,-181.48 498,-175 474.73,-143.03 452.53,-155.44 415,-143 388.94,-134.36 373.41,-143.28 355.07,-130.78"/>
<polygon fill="black" stroke="black" points="356.91,-127.75 347,-124 352.4,-133.11 356.91,-127.75"/>
<text text-anchor="middle" x="352.44" y="-126.8" font-family="Times,serif" font-size="14.00">i2</text>
</g>
<!-- r1&#45;&gt;r0 -->
<g id="edge4" class="edge">
<title>r1:se&#45;&gt;r0:n</title>
<path fill="none" stroke="black" d="M347,-90C354.49,-82.51 362.03,-85.09 370.82,-91 397.59,-109 375.58,-137.14 401,-157 435.38,-183.86 469.62,-141.44 497.5,-175 507.72,-187.31 508.7,-199.57 497.5,-211 492.14,-216.47 469.89,-220.12 457.47,-217.89"/>
<polygon fill="black" stroke="black" points="459.21,-214.84 449,-212 455.21,-220.59 459.21,-214.84"/>
<text text-anchor="middle" x="360.61" y="-78.8" font-family="Times,serif" font-size="14.00">/sum</text>
</g>
<!-- r1&#45;&gt;r1 -->
<g id="edge6" class="edge">
<title>r1:se&#45;&gt;r1:n</title>
<path fill="none" stroke="black" d="M347,-91C384.27,-82 442.82,-82 442.82,-108 442.82,-131.87 380,-133.83 340.86,-127.02"/>
<polygon fill="black" stroke="black" points="341.5,-123.58 331,-125 340.09,-130.44 341.5,-123.58"/>
<text text-anchor="middle" x="325.56" y="-127.8" font-family="Times,serif" font-size="14.00">i1</text>
<text text-anchor="middle" x="339.61" y="-79.8" font-family="Times,serif" font-size="14.00">/i2</text>
</g>
<!-- r2 -->
<g id="node5" class="node">
<title>r2</title>
<g id="a_node5"><a xlink:href="file:///Users/andrew/workspace/flow/flowruntime/stdio/stdout.toml" xlink:title="print (#2)">
<ellipse fill="coral" stroke="black" cx="347" cy="-34" rx="43.51" ry="18"/>
<text text-anchor="middle" x="347" y="-29.8" font-family="Times,serif" font-size="14.00">print (#2)</text>
</a>
</g>
</g>
<!-- r1&#45;&gt;r2 -->
<g id="edge5" class="edge">
<title>r1:se&#45;&gt;r2:n</title>
<path fill="none" stroke="black" d="M347,-90C356.33,-80.67 351.08,-73.03 348.34,-62.08"/>
<polygon fill="black" stroke="black" points="351.79,-61.45 347,-52 344.85,-62.37 351.79,-61.45"/>
<text text-anchor="middle" x="360.61" y="-92.8" font-family="Times,serif" font-size="14.00">/sum</text>
</g>
<!-- initializerr1_0 -->
<!-- initializerr1_0&#45;&gt;r1 -->
<g id="edge2" class="edge">
<title>initializerr1_0&#45;&gt;r1:ne</title>
<path fill="none" stroke="blue" stroke-dasharray="1,5" d="M303.32,-178.37C328.68,-166.98 357.55,-149.85 352.42,-132.51"/>
<polygon fill="blue" stroke="blue" points="355.32,-130.56 347,-124 349.42,-134.32 355.32,-130.56"/>
<text text-anchor="middle" x="354.5" y="-145.8" font-family="Times,serif" font-size="14.00">0</text>
</g>
<!-- initializerr1_1 -->
<!-- initializerr1_1&#45;&gt;r1 -->
<g id="edge3" class="edge">
<title>initializerr1_1&#45;&gt;r1:w</title>
<path fill="none" stroke="blue" stroke-dasharray="1,5" d="M98.88,-176.21C135.09,-152.73 208.82,-110.97 279.98,-107.26"/>
<polygon fill="blue" stroke="blue" points="280.1,-110.76 290,-107 279.91,-103.77 280.1,-110.76"/>
<text text-anchor="middle" x="157.5" y="-145.8" font-family="Times,serif" font-size="14.00">1</text>
</g>
</g>
</svg>
