<?xml version="1.0" encoding="UTF-8" standalone="no"?>
<!DOCTYPE svg PUBLIC "-//W3C//DTD SVG 1.1//EN"
 "http://www.w3.org/Graphics/SVG/1.1/DTD/svg11.dtd">
<!-- Generated by graphviz version 2.42.3 (20191010.1750)
 -->
<!-- Title: my_first_flow Pages: 1 -->
<svg width="320pt" height="225pt"
 viewBox="0.00 0.00 320.40 225.00" xmlns="http://www.w3.org/2000/svg" xmlns:xlink="http://www.w3.org/1999/xlink">
<g id="graph0" class="graph" transform="scale(1 1) rotate(0) translate(4 221)">
<title>my_first_flow</title>
<polygon fill="white" stroke="transparent" points="-4,4 -4,-221 316.4,-221 316.4,4 -4,4"/>
<text text-anchor="middle" x="156.2" y="-201.8" font-family="Times,serif" font-size="14.00">/my&#45;first&#45;flow</text>
<!-- r0 -->
<g id="node1" class="node">
<title>r0</title>
<g id="a_node1"><a xlink:href="file:///Users/andrew/workspace/flow/flowstdlib/math/add/add.toml" xlink:title="add (#0)">
<ellipse fill="coral" stroke="black" cx="168.2" cy="-91" rx="39.64" ry="18"/>
<text text-anchor="middle" x="168.2" y="-86.8" font-family="Times,serif" font-size="14.00">add (#0)</text>
</a>
</g>
</g>
<!-- r0&#45;&gt;r0 -->
<g id="edge3" class="edge">
<title>r0:se&#45;&gt;r0:ne</title>
<path fill="none" stroke="black" d="M184.2,-75C221.47,-66 280.02,-66 280.02,-91 280.02,-113.85 231.1,-115.82 194.23,-109.11"/>
<polygon fill="black" stroke="black" points="194.71,-105.63 184.2,-107 193.27,-112.48 194.71,-105.63"/>
<text text-anchor="middle" x="189.65" y="-109.8" font-family="Times,serif" font-size="14.00">i2</text>
<text text-anchor="middle" x="197.81" y="-63.8" font-family="Times,serif" font-size="14.00">/sum</text>
</g>
<!-- r0&#45;&gt;r0 -->
<g id="edge5" class="edge">
<title>r0:se&#45;&gt;r0:n</title>
<path fill="none" stroke="black" d="M184.2,-75C221.47,-66 280.02,-66 280.02,-92 280.02,-115.87 217.2,-117.83 178.06,-111.02"/>
<polygon fill="black" stroke="black" points="178.7,-107.58 168.2,-109 177.29,-114.44 178.7,-107.58"/>
<text text-anchor="middle" x="162.76" y="-111.8" font-family="Times,serif" font-size="14.00">i1</text>
<text text-anchor="middle" x="176.81" y="-63.8" font-family="Times,serif" font-size="14.00">/i2</text>
</g>
<!-- r1 -->
<g id="node4" class="node">
<title>r1</title>
<g id="a_node4"><a xlink:href="file:///Users/andrew/workspace/flow/flowruntime/stdio/stdout.toml" xlink:title="Stdout (#1)">
<ellipse fill="coral" stroke="black" cx="184.2" cy="-18" rx="50.3" ry="18"/>
<text text-anchor="middle" x="184.2" y="-13.8" font-family="Times,serif" font-size="14.00">Stdout (#1)</text>
</a>
</g>
</g>
<!-- r0&#45;&gt;r1 -->
<g id="edge4" class="edge">
<title>r0:se&#45;&gt;r1:n</title>
<path fill="none" stroke="black" d="M184.2,-74C193.53,-64.67 188.28,-57.03 185.54,-46.08"/>
<polygon fill="black" stroke="black" points="188.99,-45.45 184.2,-36 182.05,-46.37 188.99,-45.45"/>
<text text-anchor="middle" x="197.81" y="-76.8" font-family="Times,serif" font-size="14.00">/sum</text>
</g>
<!-- initializerr0_0 -->
<!-- initializerr0_0&#45;&gt;r0 -->
<g id="edge1" class="edge">
<title>initializerr0_0&#45;&gt;r0:ne</title>
<path fill="none" stroke="blue" stroke-dasharray="1,5" d="M235.71,-159.51C223.77,-147.57 207.03,-130.83 191.32,-115.12"/>
<polygon fill="blue" stroke="blue" points="193.75,-112.6 184.2,-108 188.8,-117.55 193.75,-112.6"/>
<text text-anchor="middle" x="218.7" y="-129.8" font-family="Times,serif" font-size="14.00">0</text>
</g>
<!-- initializerr0_1 -->
<!-- initializerr0_1&#45;&gt;r0 -->
<g id="edge2" class="edge">
<title>initializerr0_1&#45;&gt;r0:w</title>
<path fill="none" stroke="blue" stroke-dasharray="1,5" d="M65.19,-158.8C72.72,-136.48 89.17,-99.54 117.23,-92.27"/>
<polygon fill="blue" stroke="blue" points="117.72,-95.73 127.2,-91 116.84,-88.79 117.72,-95.73"/>
<text text-anchor="middle" x="82.7" y="-129.8" font-family="Times,serif" font-size="14.00">1</text>
</g>
</g>
</svg>
