<?xml version="1.0" encoding="UTF-8" standalone="no"?>
<!DOCTYPE svg PUBLIC "-//W3C//DTD SVG 1.1//EN"
 "http://www.w3.org/Graphics/SVG/1.1/DTD/svg11.dtd">
<!-- Generated by graphviz version 2.40.1 (20161225.0304)
 -->
<!-- Title: my_first_flow Pages: 1 -->
<svg width="384pt" height="227pt"
 viewBox="0.00 0.00 384.09 227.00" xmlns="http://www.w3.org/2000/svg" xmlns:xlink="http://www.w3.org/1999/xlink">
<g id="graph0" class="graph" transform="scale(1 1) rotate(0) translate(4 223)">
<title>my_first_flow</title>
<polygon fill="#ffffff" stroke="transparent" points="-4,4 -4,-223 380.0865,-223 380.0865,4 -4,4"/>
<text text-anchor="middle" x="188.0433" y="-203.8" font-family="Times,serif" font-size="14.00" fill="#000000">/my&#45;first&#45;flow</text>
<!-- r0 -->
<g id="node1" class="node">
<title>r0</title>
<g id="a_node1"><a xlink:href="file:///home/travis/build/andrewdavidmackenzie/flow/flowstdlib/math/add/add.html" xlink:title="add (#0)">
<ellipse fill="#ff7f50" stroke="#000000" cx="205.0433" cy="-91" rx="51.1914" ry="18"/>
<text text-anchor="middle" x="205.0433" y="-87.3" font-family="Times,serif" font-size="14.00" fill="#000000">add (#0)</text>
</a>
</g>
</g>
<!-- r0&#45;&gt;r0 -->
<g id="edge3" class="edge">
<title>r0:se&#45;&gt;r0:ne</title>
<path fill="none" stroke="#000000" d="M222.0433,-74C263.1584,-65 328.3887,-65 328.3887,-91 328.3887,-114.9688 272.9525,-116.8413 232.0786,-109.9365"/>
<polygon fill="#000000" stroke="#000000" points="232.5253,-106.4582 222.0433,-108 231.1989,-113.3314 232.5253,-106.4582"/>
<text text-anchor="middle" x="215.0433" y="-111.8" font-family="Times,serif" font-size="14.00" fill="#000000">i2</text>
<text text-anchor="middle" x="239.5433" y="-62.8" font-family="Times,serif" font-size="14.00" fill="#000000">/sum</text>
</g>
<!-- r0&#45;&gt;r0 -->
<g id="edge5" class="edge">
<title>r0:se&#45;&gt;r0:n</title>
<path fill="none" stroke="#000000" d="M222.0433,-74C263.1584,-65 328.3887,-65 328.3887,-91.5 328.3887,-115.9814 258.2086,-117.8462 215.0999,-110.8922"/>
<polygon fill="#000000" stroke="#000000" points="215.518,-107.4096 205.0433,-109 214.2236,-114.2889 215.518,-107.4096"/>
<text text-anchor="middle" x="198.0433" y="-112.8" font-family="Times,serif" font-size="14.00" fill="#000000">i1</text>
<text text-anchor="middle" x="212.5433" y="-62.8" font-family="Times,serif" font-size="14.00" fill="#000000">/i2</text>
</g>
<!-- r1 -->
<g id="node4" class="node">
<title>r1</title>
<g id="a_node4"><a xlink:href="file:///home/travis/build/andrewdavidmackenzie/flow/flowr/src/lib/flowruntime/stdio/stdout.html" xlink:title="stdout (#1)">
<ellipse fill="#ff7f50" stroke="#000000" cx="222.0433" cy="-18" rx="63.8893" ry="18"/>
<text text-anchor="middle" x="222.0433" y="-14.3" font-family="Times,serif" font-size="14.00" fill="#000000">stdout (#1)</text>
</a>
</g>
</g>
<!-- r0&#45;&gt;r1 -->
<g id="edge4" class="edge">
<title>r0:se&#45;&gt;r1:n</title>
<path fill="none" stroke="#000000" d="M222.0433,-74C231.3731,-64.6701 226.1251,-57.033 223.3826,-46.0849"/>
<polygon fill="#000000" stroke="#000000" points="226.8294,-45.4522 222.0433,-36 219.8903,-46.3738 226.8294,-45.4522"/>
<text text-anchor="middle" x="239.5433" y="-77.8" font-family="Times,serif" font-size="14.00" fill="#000000">/sum</text>
</g>
<!-- initializerr0_0 -->
<!-- initializerr0_0&#45;&gt;r0 -->
<g id="edge1" class="edge">
<title>initializerr0_0&#45;&gt;r0:ne</title>
<path fill="none" stroke="#0000ff" stroke-dasharray="1,5" d="M279.2891,-160.4537C265.2504,-148.3624 246.2338,-131.5543 229.2012,-115.0433"/>
<polygon fill="#0000ff" stroke="#0000ff" points="231.626,-112.519 222.0433,-108 226.7164,-117.5086 231.626,-112.519"/>
<text text-anchor="middle" x="262.0433" y="-130.8" font-family="Times,serif" font-size="14.00" fill="#000000">0</text>
</g>
<!-- initializerr0_1 -->
<!-- initializerr0_1&#45;&gt;r0 -->
<g id="edge2" class="edge">
<title>initializerr0_1&#45;&gt;r0:w</title>
<path fill="none" stroke="#0000ff" stroke-dasharray="1,5" d="M82.5971,-159.9735C92.1284,-136.9793 112.0918,-99.3225 142.7229,-92.187"/>
<polygon fill="#0000ff" stroke="#0000ff" points="143.5087,-95.6198 153.0433,-91 142.7088,-88.6656 143.5087,-95.6198"/>
<text text-anchor="middle" x="104.0433" y="-130.8" font-family="Times,serif" font-size="14.00" fill="#000000">1</text>
</g>
</g>
</svg>
