<?xml version="1.0" encoding="UTF-8" standalone="no"?>
<!DOCTYPE svg PUBLIC "-//W3C//DTD SVG 1.1//EN"
 "http://www.w3.org/Graphics/SVG/1.1/DTD/svg11.dtd">
<!-- Generated by graphviz version 2.44.1 (20200629.0846)
 -->
<!-- Title: my_first_flow Pages: 1 -->
<svg width="322pt" height="227pt"
 viewBox="0.00 0.00 321.89 227.00" xmlns="http://www.w3.org/2000/svg" xmlns:xlink="http://www.w3.org/1999/xlink">
<g id="graph0" class="graph" transform="scale(1 1) rotate(0) translate(4 223)">
<title>my_first_flow</title>
<polygon fill="white" stroke="transparent" points="-4,4 -4,-223 317.89,-223 317.89,4 -4,4"/>
<text text-anchor="middle" x="156.94" y="-203.8" font-family="Times,serif" font-size="14.00">/my&#45;first&#45;flow</text>
<!-- r0 -->
<g id="node1" class="node">
<title>r0</title>
<g id="a_node1"><a xlink:href="file:///Users/andrew/workspace/flow/flowstdlib/math/add/add.html" xlink:title="add (#0)">
<ellipse fill="coral" stroke="black" cx="168.44" cy="-91" rx="40.09" ry="18"/>
<text text-anchor="middle" x="168.44" y="-87.3" font-family="Times,serif" font-size="14.00">add (#0)</text>
</a>
</g>
</g>
<!-- r0&#45;&gt;r0 -->
<g id="edge3" class="edge">
<title>r0:se&#45;&gt;r0:ne</title>
<path fill="none" stroke="black" d="M185.44,-74C222.88,-65 280.74,-65 280.74,-91 280.74,-114.77 232.39,-116.81 195.5,-110.11"/>
<polygon fill="black" stroke="black" points="195.95,-106.63 185.44,-108 194.51,-113.48 195.95,-106.63"/>
<text text-anchor="middle" x="179.94" y="-111.8" font-family="Times,serif" font-size="14.00">i2</text>
<text text-anchor="middle" x="199.44" y="-62.8" font-family="Times,serif" font-size="14.00">/sum</text>
</g>
<!-- r0&#45;&gt;r0 -->
<g id="edge5" class="edge">
<title>r0:se&#45;&gt;r0:n</title>
<path fill="none" stroke="black" d="M185.44,-74C222.88,-65 280.74,-65 280.74,-91.5 280.74,-115.83 217.66,-117.82 178.35,-111.02"/>
<polygon fill="black" stroke="black" points="178.94,-107.57 168.44,-109 177.54,-114.43 178.94,-107.57"/>
<text text-anchor="middle" x="162.94" y="-112.8" font-family="Times,serif" font-size="14.00">i1</text>
<text text-anchor="middle" x="177.94" y="-62.8" font-family="Times,serif" font-size="14.00">/i2</text>
</g>
<!-- r1 -->
<g id="node4" class="node">
<title>r1</title>
<g id="a_node4"><a xlink:href="file:///Users/andrew/workspace/flow/flowr/src/lib/flowruntime/stdio/stdout.html" xlink:title="stdout (#1)">
<ellipse fill="coral" stroke="black" cx="185.44" cy="-18" rx="49.29" ry="18"/>
<text text-anchor="middle" x="185.44" y="-14.3" font-family="Times,serif" font-size="14.00">stdout (#1)</text>
</a>
</g>
</g>
<!-- r0&#45;&gt;r1 -->
<g id="edge4" class="edge">
<title>r0:se&#45;&gt;r1:n</title>
<path fill="none" stroke="black" d="M185.44,-73C194.44,-64.01 189.52,-56.63 186.83,-46.14"/>
<polygon fill="black" stroke="black" points="190.27,-45.43 185.44,-36 183.33,-46.38 190.27,-45.43"/>
<text text-anchor="middle" x="171.44" y="-61.8" font-family="Times,serif" font-size="14.00">/sum</text>
</g>
<!-- initializerr0_0 -->
<!-- initializerr0_0&#45;&gt;r0 -->
<g id="edge1" class="edge">
<title>initializerr0_0&#45;&gt;r0:ne</title>
<path fill="none" stroke="blue" stroke-dasharray="1,5" d="M236.96,-160.51C225.01,-148.57 208.27,-131.83 192.57,-116.12"/>
<polygon fill="blue" stroke="blue" points="194.99,-113.6 185.44,-109 190.04,-118.55 194.99,-113.6"/>
<text text-anchor="middle" x="219.94" y="-130.8" font-family="Times,serif" font-size="14.00">0</text>
</g>
<!-- initializerr0_1 -->
<!-- initializerr0_1&#45;&gt;r0 -->
<g id="edge2" class="edge">
<title>initializerr0_1&#45;&gt;r0:w</title>
<path fill="none" stroke="blue" stroke-dasharray="1,5" d="M65.08,-160.01C72.26,-137.49 88.27,-99.73 116.43,-92.29"/>
<polygon fill="blue" stroke="blue" points="116.98,-95.75 126.44,-91 116.08,-88.81 116.98,-95.75"/>
<text text-anchor="middle" x="81.94" y="-130.8" font-family="Times,serif" font-size="14.00">1</text>
</g>
</g>
</svg>
