<?xml version="1.0" encoding="UTF-8" standalone="no"?>
<!DOCTYPE svg PUBLIC "-//W3C//DTD SVG 1.1//EN"
 "http://www.w3.org/Graphics/SVG/1.1/DTD/svg11.dtd">
<!-- Generated by graphviz version 2.40.1 (0)
 -->
<!-- Title: my_first_flow Pages: 1 -->
<svg width="382pt" height="227pt"
 viewBox="0.00 0.00 381.79 227.00" xmlns="http://www.w3.org/2000/svg" xmlns:xlink="http://www.w3.org/1999/xlink">
<g id="graph0" class="graph" transform="scale(1 1) rotate(0) translate(4 223)">
<title>my_first_flow</title>
<polygon fill="#ffffff" stroke="transparent" points="-4,4 -4,-223 377.7866,-223 377.7866,4 -4,4"/>
<text text-anchor="middle" x="186.8933" y="-203.8" font-family="Times,serif" font-size="14.00" fill="#000000">/my&#45;first&#45;flow</text>
<!-- r0 -->
<g id="node1" class="node">
<title>r0</title>
<g id="a_node1"><a xlink:href="file:///home/andrew/workspace/flow/flowstdlib/math/add/add.toml" xlink:title="add (#0)">
<ellipse fill="#ff7f50" stroke="#000000" cx="204.3933" cy="-91" rx="51.1914" ry="18"/>
<text text-anchor="middle" x="204.3933" y="-87.3" font-family="Times,serif" font-size="14.00" fill="#000000">add (#0)</text>
</a>
</g>
</g>
<!-- r0&#45;&gt;r0 -->
<g id="edge3" class="edge">
<title>r0:se&#45;&gt;r0:ne</title>
<path fill="none" stroke="#000000" d="M221.3933,-74C262.5085,-65 327.7388,-65 327.7388,-91 327.7388,-114.9688 272.3026,-116.8413 231.4286,-109.9365"/>
<polygon fill="#000000" stroke="#000000" points="231.8754,-106.4582 221.3933,-108 230.549,-113.3314 231.8754,-106.4582"/>
<text text-anchor="middle" x="214.3933" y="-111.8" font-family="Times,serif" font-size="14.00" fill="#000000">i2</text>
<text text-anchor="middle" x="238.8933" y="-62.8" font-family="Times,serif" font-size="14.00" fill="#000000">/sum</text>
</g>
<!-- r0&#45;&gt;r0 -->
<g id="edge5" class="edge">
<title>r0:se&#45;&gt;r0:n</title>
<path fill="none" stroke="#000000" d="M221.3933,-74C262.5085,-65 327.7388,-65 327.7388,-91.5 327.7388,-115.9814 257.5586,-117.8462 214.4499,-110.8922"/>
<polygon fill="#000000" stroke="#000000" points="214.8681,-107.4096 204.3933,-109 213.5736,-114.2889 214.8681,-107.4096"/>
<text text-anchor="middle" x="197.3933" y="-112.8" font-family="Times,serif" font-size="14.00" fill="#000000">i1</text>
<text text-anchor="middle" x="211.8933" y="-62.8" font-family="Times,serif" font-size="14.00" fill="#000000">/i2</text>
</g>
<!-- r1 -->
<g id="node4" class="node">
<title>r1</title>
<g id="a_node4"><a xlink:href="file:///home/andrew/workspace/flow/flowruntime/stdio/stdout.toml" xlink:title="Stdout (#1)">
<ellipse fill="#ff7f50" stroke="#000000" cx="221.3933" cy="-18" rx="65.7887" ry="18"/>
<text text-anchor="middle" x="221.3933" y="-14.3" font-family="Times,serif" font-size="14.00" fill="#000000">Stdout (#1)</text>
</a>
</g>
</g>
<!-- r0&#45;&gt;r1 -->
<g id="edge4" class="edge">
<title>r0:se&#45;&gt;r1:n</title>
<path fill="none" stroke="#000000" d="M221.3933,-74C230.7232,-64.6701 225.4751,-57.033 222.7327,-46.0849"/>
<polygon fill="#000000" stroke="#000000" points="226.1794,-45.4522 221.3933,-36 219.2404,-46.3738 226.1794,-45.4522"/>
<text text-anchor="middle" x="203.8933" y="-62.8" font-family="Times,serif" font-size="14.00" fill="#000000">/sum</text>
</g>
<!-- initializerr0_0 -->
<!-- initializerr0_0&#45;&gt;r0 -->
<g id="edge1" class="edge">
<title>initializerr0_0&#45;&gt;r0:ne</title>
<path fill="none" stroke="#0000ff" stroke-dasharray="1,5" d="M277.9656,-160.3791C264.2588,-148.3611 245.7116,-131.727 228.9468,-115.4406"/>
<polygon fill="#0000ff" stroke="#0000ff" points="230.9736,-112.5242 221.3933,-108 226.0613,-117.5111 230.9736,-112.5242"/>
<text text-anchor="middle" x="261.3933" y="-130.8" font-family="Times,serif" font-size="14.00" fill="#000000">0</text>
</g>
<!-- initializerr0_1 -->
<!-- initializerr0_1&#45;&gt;r0 -->
<g id="edge2" class="edge">
<title>initializerr0_1&#45;&gt;r0:w</title>
<path fill="none" stroke="#0000ff" stroke-dasharray="1,5" d="M81.9472,-159.9735C91.4785,-136.9793 111.4418,-99.3225 142.073,-92.187"/>
<polygon fill="#0000ff" stroke="#0000ff" points="142.8588,-95.6198 152.3933,-91 142.0589,-88.6656 142.8588,-95.6198"/>
<text text-anchor="middle" x="103.3933" y="-130.8" font-family="Times,serif" font-size="14.00" fill="#000000">1</text>
</g>
</g>
</svg>
