<?xml version="1.0" encoding="UTF-8" standalone="no"?>
<!DOCTYPE svg PUBLIC "-//W3C//DTD SVG 1.1//EN"
 "http://www.w3.org/Graphics/SVG/1.1/DTD/svg11.dtd">
<!-- Generated by graphviz version 2.43.0 (0)
 -->
<!-- Title: factorial Pages: 1 -->
<svg width="869pt" height="693pt"
 viewBox="28.80 28.80 840.47 664.50" xmlns="http://www.w3.org/2000/svg" xmlns:xlink="http://www.w3.org/1999/xlink">
<g id="graph0" class="graph" transform="scale(1 1) rotate(0) translate(32.8 660.5)">
<title>factorial</title>
<polygon fill="white" stroke="transparent" points="-4,4 -4,-631.7 807.67,-631.7 807.67,4 -4,4"/>
<text text-anchor="middle" x="401.84" y="-612.5" font-family="Times,serif" font-size="14.00">factorial</text>
<!-- /factorial/args -->
<g id="node1" class="node">
<title>/factorial/args</title>
<g id="a_node1"><a xlink:href="../../flowr/src/lib/context/args/get.html" xlink:title="args\n(get)">
<ellipse fill="coral" stroke="black" cx="443.49" cy="-577.83" rx="35.21" ry="26.74"/>
<text text-anchor="middle" x="443.49" y="-581.63" font-family="Times,serif" font-size="14.00">args</text>
<text text-anchor="middle" x="443.49" y="-566.63" font-family="Times,serif" font-size="14.00">(get)</text>
</a>
</g>
</g>
<!-- /factorial/multiply -->
<g id="node2" class="node">
<title>/factorial/multiply</title>
<g id="a_node2"><a xlink:href="../../flowstdlib/math/multiply/multiply.html" xlink:title="multiply">
<ellipse fill="coral" stroke="black" cx="512.49" cy="-199.48" rx="49.29" ry="18"/>
<text text-anchor="middle" x="512.49" y="-195.78" font-family="Times,serif" font-size="14.00">multiply</text>
</a>
</g>
</g>
<!-- /factorial/args&#45;&gt;/factorial/multiply -->
<g id="edge4" class="edge">
<title>/factorial/args:e&#45;&gt;/factorial/multiply:w</title>
<path fill="none" stroke="black" d="M480.49,-577.83C526.6,-577.83 479.49,-520.2 479.49,-474.09 479.49,-474.09 479.49,-474.09 479.49,-294.35 479.49,-259.36 467.25,-252.14 462.49,-217.48 462.13,-214.88 461.04,-212.04 460.01,-209.41"/>
<polygon fill="black" stroke="black" points="463.48,-209.89 461.49,-199.48 456.55,-208.86 463.48,-209.89"/>
<text text-anchor="middle" x="503.99" y="-455.42" font-family="Times,serif" font-size="14.00">json[1]</text>
<text text-anchor="middle" x="454.49" y="-203.28" font-family="Times,serif" font-size="14.00">i2</text>
</g>
<!-- /factorial/sub -->
<g id="node4" class="node">
<title>/factorial/sub</title>
<g id="a_node4"><a xlink:href="../../flowstdlib/math/subtract/subtract.html" xlink:title="sub\n(subtract)">
<ellipse fill="coral" stroke="black" cx="378.49" cy="-473.09" rx="61.54" ry="26.74"/>
<text text-anchor="middle" x="378.49" y="-476.89" font-family="Times,serif" font-size="14.00">sub</text>
<text text-anchor="middle" x="378.49" y="-461.89" font-family="Times,serif" font-size="14.00">(subtract)</text>
</a>
</g>
</g>
<!-- /factorial/args&#45;&gt;/factorial/sub -->
<g id="edge5" class="edge">
<title>/factorial/args:e&#45;&gt;/factorial/sub:ne</title>
<path fill="none" stroke="black" d="M480.49,-577.83C492.44,-577.83 485.26,-561.42 479.49,-550.96 461.49,-518.38 437.25,-526.09 411.24,-505.94"/>
<polygon fill="black" stroke="black" points="413.3,-503.09 403.49,-499.09 408.66,-508.33 413.3,-503.09"/>
<text text-anchor="middle" x="424.14" y="-527.7" font-family="Times,serif" font-size="14.00">json[1]</text>
<text text-anchor="middle" x="396.49" y="-502.89" font-family="Times,serif" font-size="14.00">i1</text>
</g>
<!-- /factorial/multiply&#45;&gt;/factorial/multiply -->
<g id="edge6" class="edge">
<title>/factorial/multiply:e&#45;&gt;/factorial/multiply:ne</title>
<path fill="none" stroke="black" d="M562.49,-199.48C567.88,-190.48 579.88,-190.48 579.88,-207.98 579.88,-223.02 559.26,-225.13 539.2,-219.72"/>
<polygon fill="black" stroke="black" points="540.08,-216.33 529.49,-216.48 537.86,-222.97 540.08,-216.33"/>
<text text-anchor="middle" x="522.49" y="-220.28" font-family="Times,serif" font-size="14.00">i1</text>
</g>
<!-- /factorial/result&#45;tap -->
<g id="node9" class="node">
<title>/factorial/result&#45;tap</title>
<g id="a_node9"><a xlink:href="../../flowstdlib/control/tap/tap.html" xlink:title="result&#45;tap\n(tap)">
<ellipse fill="coral" stroke="black" cx="376.49" cy="-117.61" rx="60.62" ry="26.74"/>
<text text-anchor="middle" x="376.49" y="-121.41" font-family="Times,serif" font-size="14.00">result&#45;tap</text>
<text text-anchor="middle" x="376.49" y="-106.41" font-family="Times,serif" font-size="14.00">(tap)</text>
</a>
</g>
</g>
<!-- /factorial/multiply&#45;&gt;/factorial/result&#45;tap -->
<g id="edge13" class="edge">
<title>/factorial/multiply:e&#45;&gt;/factorial/result&#45;tap:nw</title>
<path fill="none" stroke="black" d="M563.49,-199.48C571.5,-199.48 567.8,-187.48 562.49,-181.48 534.87,-150.26 368.24,-170.47 349.59,-153.45"/>
<polygon fill="black" stroke="black" points="353.03,-154.09 351.49,-143.61 346.15,-152.76 353.03,-154.09"/>
<text text-anchor="middle" x="335.49" y="-147.41" font-family="Times,serif" font-size="14.00">data</text>
</g>
<!-- initializer/factorial/multiply_0 -->
<!-- initializer/factorial/multiply_0&#45;&gt;/factorial/multiply -->
<g id="edge1" class="edge">
<title>initializer/factorial/multiply_0&#45;&gt;/factorial/multiply:ne</title>
<path fill="none" stroke="blue" stroke-dasharray="1,5" d="M618.66,-277.79C594.21,-265.6 562.12,-247.25 537.03,-224.63"/>
<polygon fill="blue" stroke="blue" points="539.15,-221.82 529.49,-217.48 534.33,-226.9 539.15,-221.82"/>
<text text-anchor="middle" x="575.49" y="-239.28" font-family="Times,serif" font-size="14.00">1</text>
</g>
<!-- /factorial/compare -->
<g id="node6" class="node">
<title>/factorial/compare</title>
<g id="a_node6"><a xlink:href="../../flowstdlib/math/compare/compare.html" xlink:title="compare">
<ellipse fill="coral" stroke="black" cx="324.49" cy="-377.22" rx="50.89" ry="18"/>
<text text-anchor="middle" x="324.49" y="-373.52" font-family="Times,serif" font-size="14.00">compare</text>
</a>
</g>
</g>
<!-- /factorial/sub&#45;&gt;/factorial/compare -->
<g id="edge8" class="edge">
<title>/factorial/sub:e&#45;&gt;/factorial/compare:ne</title>
<path fill="none" stroke="black" d="M441.49,-473.09C453.44,-473.09 447.57,-455.85 440.49,-446.22 426.24,-426.86 410.91,-439.12 389.49,-428.22 369.84,-418.22 362.12,-414.6 348.96,-402.44"/>
<polygon fill="black" stroke="black" points="351.11,-399.65 341.49,-395.22 346.25,-404.68 351.11,-399.65"/>
<text text-anchor="middle" x="328.99" y="-399.02" font-family="Times,serif" font-size="14.00">left</text>
</g>
<!-- /factorial/n&#45;tap -->
<g id="node8" class="node">
<title>/factorial/n&#45;tap</title>
<g id="a_node8"><a xlink:href="../../flowstdlib/control/tap/tap.html" xlink:title="n&#45;tap\n(tap)">
<ellipse fill="coral" stroke="black" cx="405.49" cy="-295.35" rx="37.45" ry="26.74"/>
<text text-anchor="middle" x="405.49" y="-299.15" font-family="Times,serif" font-size="14.00">n&#45;tap</text>
<text text-anchor="middle" x="405.49" y="-284.15" font-family="Times,serif" font-size="14.00">(tap)</text>
</a>
</g>
</g>
<!-- /factorial/sub&#45;&gt;/factorial/n&#45;tap -->
<g id="edge7" class="edge">
<title>/factorial/sub:e&#45;&gt;/factorial/n&#45;tap:nw</title>
<path fill="none" stroke="black" d="M441.49,-473.09C460.02,-473.09 481.94,-433.14 417.49,-340.22 411.49,-331.57 396.48,-329.91 387.64,-327.46"/>
<polygon fill="black" stroke="black" points="390.82,-326 383.49,-318.35 384.45,-328.9 390.82,-326"/>
<text text-anchor="middle" x="367.49" y="-322.15" font-family="Times,serif" font-size="14.00">data</text>
</g>
<!-- initializer/factorial/sub_1 -->
<!-- initializer/factorial/sub_1&#45;&gt;/factorial/sub -->
<g id="edge2" class="edge">
<title>initializer/factorial/sub_1&#45;&gt;/factorial/sub:w</title>
<path fill="none" stroke="blue" d="M275.53,-559.68C284.98,-544.46 298.44,-521.37 307.49,-499.96 310.14,-493.68 308.56,-486.24 308.62,-480.78"/>
<polygon fill="blue" stroke="blue" points="311.43,-482.88 315.49,-473.09 306.21,-478.21 311.43,-482.88"/>
<text text-anchor="middle" x="303.49" y="-521.76" font-family="Times,serif" font-size="14.00">1</text>
</g>
<!-- /factorial/compare&#45;&gt;/factorial/n&#45;tap -->
<g id="edge9" class="edge">
<title>/factorial/compare:sw&#45;&gt;/factorial/n&#45;tap:nw</title>
<path fill="none" stroke="black" d="M307.49,-359.22C282.7,-334.43 344.07,-343.47 375.51,-324.5"/>
<polygon fill="black" stroke="black" points="377.7,-327.23 383.49,-318.35 373.43,-321.68 377.7,-327.23"/>
<text text-anchor="middle" x="336.92" y="-338.94" font-family="Times,serif" font-size="14.00">gt</text>
<text text-anchor="middle" x="408.99" y="-322.15" font-family="Times,serif" font-size="14.00">control</text>
</g>
<!-- /factorial/compare&#45;&gt;/factorial/result&#45;tap -->
<g id="edge12" class="edge">
<title>/factorial/compare:s&#45;&gt;/factorial/result&#45;tap:nw</title>
<path fill="none" stroke="black" d="M324.49,-359.22C324.49,-266.23 286.21,-215.73 344.33,-151.14"/>
<polygon fill="black" stroke="black" points="347.14,-153.27 351.49,-143.61 342.06,-148.45 347.14,-153.27"/>
<text text-anchor="middle" x="303.11" y="-248.31" font-family="Times,serif" font-size="14.00">lte</text>
<text text-anchor="middle" x="376.99" y="-147.41" font-family="Times,serif" font-size="14.00">control</text>
</g>
<!-- initializer/factorial/compare_1 -->
<!-- initializer/factorial/compare_1&#45;&gt;/factorial/compare -->
<g id="edge3" class="edge">
<title>initializer/factorial/compare_1&#45;&gt;/factorial/compare:ne</title>
<path fill="none" stroke="blue" d="M216.45,-456.93C270.07,-443.52 337.4,-423.28 344.15,-404.9"/>
<polygon fill="blue" stroke="blue" points="347.52,-403.93 341.49,-395.22 340.77,-405.79 347.52,-403.93"/>
<text text-anchor="middle" x="342.49" y="-417.02" font-family="Times,serif" font-size="14.00">1</text>
</g>
<!-- /factorial/n&#45;tap&#45;&gt;/factorial/multiply -->
<g id="edge10" class="edge">
<title>/factorial/n&#45;tap:e&#45;&gt;/factorial/multiply:w</title>
<path fill="none" stroke="black" d="M444.49,-295.35C483.37,-295.35 431.18,-217.96 451.56,-202.25"/>
<polygon fill="black" stroke="black" points="452.79,-205.54 461.49,-199.48 450.91,-198.79 452.79,-205.54"/>
<text text-anchor="middle" x="454.49" y="-188.28" font-family="Times,serif" font-size="14.00">i2</text>
</g>
<!-- /factorial/n&#45;tap&#45;&gt;/factorial/sub -->
<g id="edge11" class="edge">
<title>/factorial/n&#45;tap:e&#45;&gt;/factorial/sub:ne</title>
<path fill="none" stroke="black" d="M444.49,-295.35C456.44,-295.35 449.23,-311.74 443.49,-322.22 436.73,-334.55 424.01,-327.77 417.49,-340.22 384.59,-403 489.43,-447.29 440.01,-498.09 431.25,-507.09 421.06,-509.63 411.58,-505.01"/>
<polygon fill="black" stroke="black" points="413.62,-502.17 403.49,-499.09 409.49,-507.82 413.62,-502.17"/>
<text text-anchor="middle" x="410.49" y="-502.89" font-family="Times,serif" font-size="14.00">i1</text>
</g>
<!-- /factorial/print -->
<g id="node10" class="node">
<title>/factorial/print</title>
<g id="a_node10"><a xlink:href="../../flowr/src/lib/context/stdio/stdout.html" xlink:title="print\n(stdout)">
<ellipse fill="coral" stroke="black" cx="489.49" cy="-26.87" rx="51.74" ry="26.74"/>
<text text-anchor="middle" x="489.49" y="-30.67" font-family="Times,serif" font-size="14.00">print</text>
<text text-anchor="middle" x="489.49" y="-15.67" font-family="Times,serif" font-size="14.00">(stdout)</text>
</a>
</g>
</g>
<!-- /factorial/result&#45;tap&#45;&gt;/factorial/print -->
<g id="edge14" class="edge">
<title>/factorial/result&#45;tap:e&#45;&gt;/factorial/print:w</title>
<path fill="none" stroke="black" d="M438.49,-117.61C474.1,-117.61 413.84,-46.89 426.98,-30.32"/>
<polygon fill="black" stroke="black" points="428.28,-33.57 436.49,-26.87 425.89,-26.99 428.28,-33.57"/>
</g>
</g>
</svg>
