<?xml version="1.0" encoding="UTF-8" standalone="no"?>
<!DOCTYPE svg PUBLIC "-//W3C//DTD SVG 1.1//EN"
 "http://www.w3.org/Graphics/SVG/1.1/DTD/svg11.dtd">
<!-- Generated by graphviz version 2.43.0 (0)
 -->
<!-- Title: factorial Pages: 1 -->
<svg width="721pt" height="547pt"
 viewBox="0.00 0.00 720.99 547.00" xmlns="http://www.w3.org/2000/svg" xmlns:xlink="http://www.w3.org/1999/xlink">
<g id="graph0" class="graph" transform="scale(1 1) rotate(0) translate(4 543)">
<title>factorial</title>
<polygon fill="white" stroke="transparent" points="-4,4 -4,-543 716.99,-543 716.99,4 -4,4"/>
<text text-anchor="middle" x="356.49" y="-523.8" font-family="Times,serif" font-size="14.00">/factorial</text>
<!-- r0 -->
<g id="node1" class="node">
<title>r0</title>
<g id="a_node1"><a xlink:href="file:///home/runner/work/flow/flow/flowr/src/cli/args/get.html" xlink:title="args (#0)">
<ellipse fill="coral" stroke="black" cx="54.6" cy="-498" rx="54.69" ry="18"/>
<text text-anchor="middle" x="54.6" y="-494.3" font-family="Times,serif" font-size="14.00">args (#0)</text>
</a>
</g>
</g>
<!-- r2 -->
<g id="node2" class="node">
<title>r2</title>
<g id="a_node2"><a xlink:href="file:///home/runner/work/flow/flow/target/flowstdlib/math/multiply/multiply.html" xlink:title="multiply (#2)">
<ellipse fill="coral" stroke="black" cx="326.6" cy="-164" rx="72.59" ry="18"/>
<text text-anchor="middle" x="326.6" y="-160.3" font-family="Times,serif" font-size="14.00">multiply (#2)</text>
</a>
</g>
</g>
<!-- r0&#45;&gt;r2 -->
<g id="edge1" class="edge">
<title>r0:s&#45;&gt;r2:ne</title>
<path fill="none" stroke="black" d="M54.6,-480C54.6,-449.51 45.6,-442.49 45.6,-412 45.6,-412 45.6,-412 45.6,-250 45.6,-220.12 294.07,-208.88 338.97,-190.32"/>
<polygon fill="black" stroke="black" points="341.89,-192.24 344.6,-182 336.09,-188.32 341.89,-192.24"/>
<text text-anchor="middle" x="337.6" y="-185.8" font-family="Times,serif" font-size="14.00">i2</text>
<text text-anchor="middle" x="30.6" y="-468.8" font-family="Times,serif" font-size="14.00">/json/1</text>
</g>
<!-- r6 -->
<g id="node3" class="node">
<title>r6</title>
<g id="a_node3"><a xlink:href="file:///home/runner/work/flow/flow/target/flowstdlib/math/subtract/subtract.html" xlink:title="sub (#6)">
<ellipse fill="coral" stroke="black" cx="324.6" cy="-411" rx="50.89" ry="18"/>
<text text-anchor="middle" x="324.6" y="-407.3" font-family="Times,serif" font-size="14.00">sub (#6)</text>
</a>
</g>
</g>
<!-- r0&#45;&gt;r6 -->
<g id="edge2" class="edge">
<title>r0:s&#45;&gt;r6:n</title>
<path fill="none" stroke="black" d="M54.6,-480C54.6,-473.23 266.89,-444.37 314.99,-432.59"/>
<polygon fill="black" stroke="black" points="316.45,-435.78 324.6,-429 314,-429.22 316.45,-435.78"/>
<text text-anchor="middle" x="317.6" y="-432.8" font-family="Times,serif" font-size="14.00">i1</text>
<text text-anchor="middle" x="78.6" y="-468.8" font-family="Times,serif" font-size="14.00">/json/1</text>
</g>
<!-- r2&#45;&gt;r2 -->
<g id="edge4" class="edge">
<title>r2:e&#45;&gt;r2:n</title>
<path fill="none" stroke="black" d="M399.6,-164C423.39,-155 471.39,-155 471.39,-173 471.39,-189.84 386.9,-190.93 336.49,-183.63"/>
<polygon fill="black" stroke="black" points="337.03,-180.17 326.6,-182 335.9,-187.07 337.03,-180.17"/>
<text text-anchor="middle" x="319.6" y="-185.8" font-family="Times,serif" font-size="14.00">i1</text>
</g>
<!-- r5 -->
<g id="node5" class="node">
<title>r5</title>
<g id="a_node5"><a xlink:href="file:///home/runner/work/flow/flow/target/flowstdlib/control/tap/tap.html" xlink:title="result&#45;tap (#5)">
<ellipse fill="coral" stroke="black" cx="522.6" cy="-91" rx="79.09" ry="18"/>
<text text-anchor="middle" x="522.6" y="-87.3" font-family="Times,serif" font-size="14.00">result&#45;tap (#5)</text>
</a>
</g>
</g>
<!-- r2&#45;&gt;r5 -->
<g id="edge5" class="edge">
<title>r2:e&#45;&gt;r5:n</title>
<path fill="none" stroke="black" d="M400.6,-164C427.08,-164 503.16,-143.96 519.49,-118.57"/>
<polygon fill="black" stroke="black" points="522.83,-119.59 522.6,-109 516.18,-117.43 522.83,-119.59"/>
<text text-anchor="middle" x="506.6" y="-112.8" font-family="Times,serif" font-size="14.00">data</text>
</g>
<!-- r3 -->
<g id="node7" class="node">
<title>r3</title>
<g id="a_node7"><a xlink:href="file:///home/runner/work/flow/flow/target/flowstdlib/control/tap/tap.html" xlink:title="n&#45;tap (#3)">
<ellipse fill="coral" stroke="black" cx="212.6" cy="-251" rx="57.69" ry="18"/>
<text text-anchor="middle" x="212.6" y="-247.3" font-family="Times,serif" font-size="14.00">n&#45;tap (#3)</text>
</a>
</g>
</g>
<!-- r6&#45;&gt;r3 -->
<g id="edge7" class="edge">
<title>r6:e&#45;&gt;r3:n</title>
<path fill="none" stroke="black" d="M376.6,-411C404.59,-411 481.45,-406.44 292.6,-287 265.4,-269.8 223.87,-297.34 214.51,-278.96"/>
<polygon fill="black" stroke="black" points="217.92,-278.16 212.6,-269 211.05,-279.48 217.92,-278.16"/>
<text text-anchor="middle" x="196.6" y="-272.8" font-family="Times,serif" font-size="14.00">data</text>
</g>
<!-- r1 -->
<g id="node8" class="node">
<title>r1</title>
<g id="a_node8"><a xlink:href="file:///home/runner/work/flow/flow/target/flowstdlib/math/compare/compare.html" xlink:title="compare (#1)">
<ellipse fill="coral" stroke="black" cx="619.6" cy="-324" rx="74.19" ry="18"/>
<text text-anchor="middle" x="619.6" y="-320.3" font-family="Times,serif" font-size="14.00">compare (#1)</text>
</a>
</g>
</g>
<!-- r6&#45;&gt;r1 -->
<g id="edge8" class="edge">
<title>r6:e&#45;&gt;r1:n</title>
<path fill="none" stroke="black" d="M376.6,-411C401.92,-411 579.4,-377.67 613.82,-350.54"/>
<polygon fill="black" stroke="black" points="616.89,-352.24 619.6,-342 611.09,-348.32 616.89,-352.24"/>
<text text-anchor="middle" x="607.1" y="-345.8" font-family="Times,serif" font-size="14.00">left</text>
</g>
<!-- initializerr2_0 -->
<!-- initializerr2_0&#45;&gt;r2 -->
<g id="edge3" class="edge">
<title>initializerr2_0&#45;&gt;r2:ne</title>
<path fill="none" stroke="blue" stroke-dasharray="1,5" d="M398.95,-233.31C385.98,-221.55 368.17,-205.14 351.92,-189.25"/>
<polygon fill="blue" stroke="blue" points="354.17,-186.54 344.6,-182 349.25,-191.52 354.17,-186.54"/>
<text text-anchor="middle" x="382.6" y="-203.8" font-family="Times,serif" font-size="14.00">1</text>
</g>
<!-- r4 -->
<g id="node10" class="node">
<title>r4</title>
<g id="a_node10"><a xlink:href="file:///home/runner/work/flow/flow/flowr/src/cli/stdio/stdout.html" xlink:title="print (#4)">
<ellipse fill="coral" stroke="black" cx="602.6" cy="-18" rx="57.39" ry="18"/>
<text text-anchor="middle" x="602.6" y="-14.3" font-family="Times,serif" font-size="14.00">print (#4)</text>
</a>
</g>
</g>
<!-- r5&#45;&gt;r4 -->
<g id="edge14" class="edge">
<title>r5:e&#45;&gt;r4:n</title>
<path fill="none" stroke="black" d="M603.6,-91C624.8,-91 608.47,-68.02 603.77,-45.98"/>
<polygon fill="black" stroke="black" points="607.24,-45.52 602.6,-36 600.28,-46.34 607.24,-45.52"/>
</g>
<!-- initializerr6_1 -->
<!-- initializerr6_1&#45;&gt;r6 -->
<g id="edge6" class="edge">
<title>initializerr6_1&#45;&gt;r6:w</title>
<path fill="none" stroke="blue" d="M266.73,-480.01C258.89,-458.67 248.84,-423.63 262.9,-413.7"/>
<polygon fill="blue" stroke="blue" points="263.9,-417.05 272.6,-411 262.02,-410.31 263.9,-417.05"/>
<text text-anchor="middle" x="265.6" y="-450.8" font-family="Times,serif" font-size="14.00">1</text>
</g>
<!-- r3&#45;&gt;r2 -->
<g id="edge12" class="edge">
<title>r3:e&#45;&gt;r2:ne</title>
<path fill="none" stroke="black" d="M271.6,-251C280.62,-251 327.94,-211.05 341.55,-191.58"/>
<polygon fill="black" stroke="black" points="344.9,-192.59 344.6,-182 338.23,-190.47 344.9,-192.59"/>
<text text-anchor="middle" x="351.6" y="-185.8" font-family="Times,serif" font-size="14.00">i2</text>
</g>
<!-- r3&#45;&gt;r6 -->
<g id="edge13" class="edge">
<title>r3:e&#45;&gt;r6:n</title>
<path fill="none" stroke="black" d="M271.6,-251C288.33,-251 272.9,-272.26 278.6,-288 287.93,-313.82 290.65,-321.22 308.6,-342 332.99,-370.24 358.76,-359.55 375.29,-393 382.38,-407.34 386.49,-417.58 375.29,-429 369.56,-434.85 345.39,-438.67 332.61,-436.01"/>
<polygon fill="black" stroke="black" points="334.7,-433.2 324.6,-430 330.5,-438.8 334.7,-433.2"/>
<text text-anchor="middle" x="331.6" y="-433.8" font-family="Times,serif" font-size="14.00">i1</text>
</g>
<!-- r1&#45;&gt;r5 -->
<g id="edge11" class="edge">
<title>r1:sw&#45;&gt;r5:ne</title>
<path fill="none" stroke="black" d="M601.6,-306C543.88,-248.29 601.97,-197.35 560.6,-127 556.62,-120.23 552.89,-118.24 548.41,-115.28"/>
<polygon fill="black" stroke="black" points="550.58,-112.54 540.6,-109 546.2,-117.99 550.58,-112.54"/>
<text text-anchor="middle" x="566.1" y="-112.8" font-family="Times,serif" font-size="14.00">control</text>
<text text-anchor="middle" x="589.6" y="-294.8" font-family="Times,serif" font-size="14.00">/lte</text>
</g>
<!-- r1&#45;&gt;r3 -->
<g id="edge10" class="edge">
<title>r1:se&#45;&gt;r3:ne</title>
<path fill="none" stroke="black" d="M637.6,-306C700.42,-243.18 527.08,-295.03 438.6,-287 417.69,-285.1 278.36,-285.39 238.77,-273.44"/>
<polygon fill="black" stroke="black" points="240.12,-270.2 229.6,-269 237.08,-276.5 240.12,-270.2"/>
<text text-anchor="middle" x="255.1" y="-272.8" font-family="Times,serif" font-size="14.00">control</text>
<text text-anchor="middle" x="627.6" y="-294.8" font-family="Times,serif" font-size="14.00">/gt</text>
</g>
<!-- initializerr1_1 -->
<!-- initializerr1_1&#45;&gt;r1 -->
<g id="edge9" class="edge">
<title>initializerr1_1&#45;&gt;r1:ne</title>
<path fill="none" stroke="blue" d="M643.56,-392.94C646.98,-380.33 649.5,-363.18 643.34,-350.21"/>
<polygon fill="blue" stroke="blue" points="646.2,-348.18 637.6,-342 640.46,-352.2 646.2,-348.18"/>
<text text-anchor="middle" x="651.6" y="-363.8" font-family="Times,serif" font-size="14.00">1</text>
</g>
</g>
</svg>
