<?xml version="1.0" encoding="UTF-8" standalone="no"?>
<!DOCTYPE svg PUBLIC "-//W3C//DTD SVG 1.1//EN"
 "http://www.w3.org/Graphics/SVG/1.1/DTD/svg11.dtd">
<!-- Generated by graphviz version 2.43.0 (0)
 -->
<!-- Title: factorial Pages: 1 -->
<svg width="706pt" height="499pt"
 viewBox="0.00 0.00 705.99 499.00" xmlns="http://www.w3.org/2000/svg" xmlns:xlink="http://www.w3.org/1999/xlink">
<g id="graph0" class="graph" transform="scale(1 1) rotate(0) translate(4 495)">
<title>factorial</title>
<polygon fill="white" stroke="transparent" points="-4,4 -4,-495 701.99,-495 701.99,4 -4,4"/>
<text text-anchor="middle" x="348.99" y="-475.8" font-family="Times,serif" font-size="14.00">/factorial</text>
<!-- r0 -->
<g id="node1" class="node">
<title>r0</title>
<g id="a_node1"><a xlink:href="file:///home/runner/work/flow/flow/flowr/src/cli/args/get.html" xlink:title="args (#0)">
<ellipse fill="coral" stroke="black" cx="54.6" cy="-450" rx="54.69" ry="18"/>
<text text-anchor="middle" x="54.6" y="-446.3" font-family="Times,serif" font-size="14.00">args (#0)</text>
</a>
</g>
</g>
<!-- r2 -->
<g id="node2" class="node">
<title>r2</title>
<g id="a_node2"><a xlink:href="file:///home/runner/.flow/lib/flowstdlib/math/multiply/multiply.html" xlink:title="multiply (#2)">
<ellipse fill="coral" stroke="black" cx="273.6" cy="-162" rx="72.59" ry="18"/>
<text text-anchor="middle" x="273.6" y="-158.3" font-family="Times,serif" font-size="14.00">multiply (#2)</text>
</a>
</g>
</g>
<!-- r0&#45;&gt;r2 -->
<g id="edge1" class="edge">
<title>r0:s&#45;&gt;r2:ne</title>
<path fill="none" stroke="black" d="M54.6,-432C54.6,-333.36 34.44,-284.32 105.6,-216 163.49,-160.42 334.08,-232.17 298.4,-187.47"/>
<polygon fill="black" stroke="black" points="300.92,-185.04 291.6,-180 295.74,-189.75 300.92,-185.04"/>
<text text-anchor="middle" x="284.6" y="-183.8" font-family="Times,serif" font-size="14.00">i2</text>
<text text-anchor="middle" x="30.6" y="-420.8" font-family="Times,serif" font-size="14.00">/json/1</text>
</g>
<!-- r6 -->
<g id="node3" class="node">
<title>r6</title>
<g id="a_node3"><a xlink:href="file:///home/runner/.flow/lib/flowstdlib/math/subtract/subtract.html" xlink:title="sub (#6)">
<ellipse fill="coral" stroke="black" cx="349.6" cy="-378" rx="50.89" ry="18"/>
<text text-anchor="middle" x="349.6" y="-374.3" font-family="Times,serif" font-size="14.00">sub (#6)</text>
</a>
</g>
</g>
<!-- r0&#45;&gt;r6 -->
<g id="edge2" class="edge">
<title>r0:s&#45;&gt;r6:n</title>
<path fill="none" stroke="black" d="M54.6,-432C54.6,-369.7 317.12,-451.68 346.86,-405.72"/>
<polygon fill="black" stroke="black" points="350.26,-406.57 349.6,-396 343.52,-404.68 350.26,-406.57"/>
<text text-anchor="middle" x="342.6" y="-399.8" font-family="Times,serif" font-size="14.00">i1</text>
<text text-anchor="middle" x="78.6" y="-420.8" font-family="Times,serif" font-size="14.00">/json/1</text>
</g>
<!-- r2&#45;&gt;r2 -->
<g id="edge4" class="edge">
<title>r2:e&#45;&gt;r2:n</title>
<path fill="none" stroke="black" d="M346.6,-162C370.39,-144 418.39,-144 418.39,-171 418.39,-196.31 333.55,-197.89 283.18,-183.16"/>
<polygon fill="black" stroke="black" points="284.19,-179.81 273.6,-180 281.99,-186.46 284.19,-179.81"/>
<text text-anchor="middle" x="266.6" y="-183.8" font-family="Times,serif" font-size="14.00">i1</text>
</g>
<!-- r5 -->
<g id="node5" class="node">
<title>r5</title>
<g id="a_node5"><a xlink:href="file:///home/runner/.flow/lib/flowstdlib/control/tap/tap.html" xlink:title="result&#45;tap (#5)">
<ellipse fill="coral" stroke="black" cx="495.6" cy="-90" rx="79.09" ry="18"/>
<text text-anchor="middle" x="495.6" y="-86.3" font-family="Times,serif" font-size="14.00">result&#45;tap (#5)</text>
</a>
</g>
</g>
<!-- r2&#45;&gt;r5 -->
<g id="edge5" class="edge">
<title>r2:e&#45;&gt;r5:n</title>
<path fill="none" stroke="black" d="M347.6,-162C379.19,-162 474.27,-146.54 492.54,-117.8"/>
<polygon fill="black" stroke="black" points="495.96,-118.59 495.6,-108 489.28,-116.5 495.96,-118.59"/>
<text text-anchor="middle" x="479.6" y="-111.8" font-family="Times,serif" font-size="14.00">data</text>
</g>
<!-- r3 -->
<g id="node7" class="node">
<title>r3</title>
<g id="a_node7"><a xlink:href="file:///home/runner/.flow/lib/flowstdlib/control/tap/tap.html" xlink:title="n&#45;tap (#3)">
<ellipse fill="coral" stroke="black" cx="421.6" cy="-234" rx="57.69" ry="18"/>
<text text-anchor="middle" x="421.6" y="-230.3" font-family="Times,serif" font-size="14.00">n&#45;tap (#3)</text>
</a>
</g>
</g>
<!-- r6&#45;&gt;r3 -->
<g id="edge7" class="edge">
<title>r6:e&#45;&gt;r3:n</title>
<path fill="none" stroke="black" d="M401.6,-378C454.97,-378 425.58,-316.58 421.95,-262.08"/>
<polygon fill="black" stroke="black" points="425.44,-261.87 421.6,-252 418.45,-262.12 425.44,-261.87"/>
<text text-anchor="middle" x="405.6" y="-255.8" font-family="Times,serif" font-size="14.00">data</text>
</g>
<!-- r1 -->
<g id="node8" class="node">
<title>r1</title>
<g id="a_node8"><a xlink:href="file:///home/runner/.flow/lib/flowstdlib/math/compare/compare.html" xlink:title="compare (#1)">
<ellipse fill="coral" stroke="black" cx="604.6" cy="-306" rx="74.19" ry="18"/>
<text text-anchor="middle" x="604.6" y="-302.3" font-family="Times,serif" font-size="14.00">compare (#1)</text>
</a>
</g>
</g>
<!-- r6&#45;&gt;r1 -->
<g id="edge8" class="edge">
<title>r6:e&#45;&gt;r1:n</title>
<path fill="none" stroke="black" d="M401.6,-378C422.29,-378 565.9,-353.89 598.17,-332.16"/>
<polygon fill="black" stroke="black" points="601.16,-334.02 604.6,-324 595.66,-329.69 601.16,-334.02"/>
<text text-anchor="middle" x="592.1" y="-327.8" font-family="Times,serif" font-size="14.00">left</text>
</g>
<!-- initializerr2_0 -->
<!-- initializerr2_0&#45;&gt;r2 -->
<g id="edge3" class="edge">
<title>initializerr2_0&#45;&gt;r2:ne</title>
<path fill="none" stroke="blue" stroke-dasharray="1,5" d="M260.16,-219.3C279.73,-211.45 298.16,-200.79 296.57,-188.87"/>
<polygon fill="blue" stroke="blue" points="299.54,-187.01 291.6,-180 293.43,-190.43 299.54,-187.01"/>
<text text-anchor="middle" x="255.16" y="-208.1" font-family="Times,serif" font-size="14.00">1</text>
</g>
<!-- r4 -->
<g id="node10" class="node">
<title>r4</title>
<g id="a_node10"><a xlink:href="file:///home/runner/work/flow/flow/flowr/src/cli/stdio/stdout.html" xlink:title="print (#4)">
<ellipse fill="coral" stroke="black" cx="575.6" cy="-18" rx="57.39" ry="18"/>
<text text-anchor="middle" x="575.6" y="-14.3" font-family="Times,serif" font-size="14.00">print (#4)</text>
</a>
</g>
</g>
<!-- r5&#45;&gt;r4 -->
<g id="edge14" class="edge">
<title>r5:e&#45;&gt;r4:n</title>
<path fill="none" stroke="black" d="M576.6,-90C597.32,-90 581.52,-67.65 576.81,-46.09"/>
<polygon fill="black" stroke="black" points="580.26,-45.51 575.6,-36 573.31,-46.35 580.26,-45.51"/>
</g>
<!-- initializerr6_1 -->
<!-- initializerr6_1&#45;&gt;r6 -->
<g id="edge6" class="edge">
<title>initializerr6_1&#45;&gt;r6:w</title>
<path fill="none" stroke="blue" d="M291.75,-431.81C285.77,-414.9 279.31,-390.36 288.19,-381.42"/>
<polygon fill="blue" stroke="blue" points="289.39,-384.71 297.6,-378 287,-378.13 289.39,-384.71"/>
<text text-anchor="middle" x="286.75" y="-420.61" font-family="Times,serif" font-size="14.00">1</text>
</g>
<!-- r3&#45;&gt;r2 -->
<g id="edge12" class="edge">
<title>r3:e&#45;&gt;r2:ne</title>
<path fill="none" stroke="black" d="M480.6,-234C488.61,-234 484.87,-222.03 479.6,-216 425.89,-154.59 357.62,-233.18 299.05,-186.67"/>
<polygon fill="black" stroke="black" points="301.38,-184.06 291.6,-180 296.71,-189.28 301.38,-184.06"/>
<text text-anchor="middle" x="298.6" y="-183.8" font-family="Times,serif" font-size="14.00">i2</text>
</g>
<!-- r3&#45;&gt;r6 -->
<g id="edge13" class="edge">
<title>r3:e&#45;&gt;r6:n</title>
<path fill="none" stroke="black" d="M480.6,-234C488.61,-234 483.99,-245.3 479.6,-252 459.95,-281.9 427.42,-258.22 407.6,-288 380.94,-328.05 435.11,-362.8 400.29,-396 387.04,-408.63 361.85,-416.28 352.88,-406.61"/>
<polygon fill="black" stroke="black" points="356.14,-405.33 349.6,-397 349.51,-407.59 356.14,-405.33"/>
<text text-anchor="middle" x="356.6" y="-400.8" font-family="Times,serif" font-size="14.00">i1</text>
</g>
<!-- r1&#45;&gt;r5 -->
<g id="edge11" class="edge">
<title>r1:sw&#45;&gt;r5:ne</title>
<path fill="none" stroke="black" d="M586.6,-288C528.06,-229.46 570.8,-173.8 520.57,-115.5"/>
<polygon fill="black" stroke="black" points="522.97,-112.94 513.6,-108 517.84,-117.71 522.97,-112.94"/>
<text text-anchor="middle" x="539.1" y="-111.8" font-family="Times,serif" font-size="14.00">control</text>
<text text-anchor="middle" x="574.6" y="-276.8" font-family="Times,serif" font-size="14.00">/lte</text>
</g>
<!-- r1&#45;&gt;r3 -->
<g id="edge10" class="edge">
<title>r1:se&#45;&gt;r3:ne</title>
<path fill="none" stroke="black" d="M622.6,-288C679.1,-231.49 512.2,-304.45 446.45,-258.56"/>
<polygon fill="black" stroke="black" points="448.51,-255.72 438.6,-252 444.03,-261.1 448.51,-255.72"/>
<text text-anchor="middle" x="464.1" y="-255.8" font-family="Times,serif" font-size="14.00">control</text>
<text text-anchor="middle" x="612.6" y="-276.8" font-family="Times,serif" font-size="14.00">/gt</text>
</g>
<!-- initializerr1_1 -->
<!-- initializerr1_1&#45;&gt;r1 -->
<g id="edge9" class="edge">
<title>initializerr1_1&#45;&gt;r1:ne</title>
<path fill="none" stroke="blue" d="M628.21,-359.83C630.13,-351.31 631.1,-341.07 628,-332.61"/>
<polygon fill="blue" stroke="blue" points="630.88,-330.61 622.6,-324 624.95,-334.33 630.88,-330.61"/>
<text text-anchor="middle" x="623.21" y="-348.63" font-family="Times,serif" font-size="14.00">1</text>
</g>
</g>
</svg>
