<?xml version="1.0" encoding="UTF-8" standalone="no"?>
<!DOCTYPE svg PUBLIC "-//W3C//DTD SVG 1.1//EN"
 "http://www.w3.org/Graphics/SVG/1.1/DTD/svg11.dtd">
<!-- Generated by graphviz version 2.43.0 (0)
 -->
<!-- Title: factorial Pages: 1 -->
<svg width="700pt" height="499pt"
 viewBox="0.00 0.00 699.79 499.00" xmlns="http://www.w3.org/2000/svg" xmlns:xlink="http://www.w3.org/1999/xlink">
<g id="graph0" class="graph" transform="scale(1 1) rotate(0) translate(4 495)">
<title>factorial</title>
<polygon fill="white" stroke="transparent" points="-4,4 -4,-495 695.79,-495 695.79,4 -4,4"/>
<text text-anchor="middle" x="345.89" y="-475.8" font-family="Times,serif" font-size="14.00">/factorial</text>
<!-- r1 -->
<g id="node1" class="node">
<title>r1</title>
<g id="a_node1"><a xlink:href="file:///home/runner/work/flow/flow/flowr/src/bin/flowrcli/cli/args/get.html" xlink:title="get (#1)">
<ellipse fill="coral" stroke="black" cx="49.4" cy="-450" rx="49.29" ry="18"/>
<text text-anchor="middle" x="49.4" y="-446.3" font-family="Times,serif" font-size="14.00">get (#1)</text>
</a>
</g>
</g>
<!-- r2 -->
<g id="node2" class="node">
<title>r2</title>
<g id="a_node2"><a xlink:href="file:///home/runner/.flow/lib/flowstdlib/math/multiply/multiply.html" xlink:title="multiply (#2)">
<ellipse fill="coral" stroke="black" cx="267.4" cy="-162" rx="72.59" ry="18"/>
<text text-anchor="middle" x="267.4" y="-158.3" font-family="Times,serif" font-size="14.00">multiply (#2)</text>
</a>
</g>
</g>
<!-- r1&#45;&gt;r2 -->
<g id="edge1" class="edge">
<title>r1:s&#45;&gt;r2:ne</title>
<path fill="none" stroke="black" d="M49.4,-432C49.4,-333.46 28.47,-284.4 99.4,-216 157.16,-160.29 327.87,-232.16 292.19,-187.47"/>
<polygon fill="black" stroke="black" points="294.72,-185.04 285.4,-180 289.54,-189.75 294.72,-185.04"/>
<text text-anchor="middle" x="278.4" y="-183.8" font-family="Times,serif" font-size="14.00">i2</text>
<text text-anchor="middle" x="25.4" y="-420.8" font-family="Times,serif" font-size="14.00">/json/1</text>
</g>
<!-- r6 -->
<g id="node3" class="node">
<title>r6</title>
<g id="a_node3"><a xlink:href="file:///home/runner/.flow/lib/flowstdlib/math/subtract/subtract.html" xlink:title="sub (#6)">
<ellipse fill="coral" stroke="black" cx="342.4" cy="-378" rx="50.89" ry="18"/>
<text text-anchor="middle" x="342.4" y="-374.3" font-family="Times,serif" font-size="14.00">sub (#6)</text>
</a>
</g>
</g>
<!-- r1&#45;&gt;r6 -->
<g id="edge2" class="edge">
<title>r1:s&#45;&gt;r6:n</title>
<path fill="none" stroke="black" d="M49.4,-432C49.4,-370.11 310.14,-451.33 339.68,-405.66"/>
<polygon fill="black" stroke="black" points="343.06,-406.57 342.4,-396 336.32,-404.68 343.06,-406.57"/>
<text text-anchor="middle" x="335.4" y="-399.8" font-family="Times,serif" font-size="14.00">i1</text>
<text text-anchor="middle" x="73.4" y="-420.8" font-family="Times,serif" font-size="14.00">/json/1</text>
</g>
<!-- r2&#45;&gt;r2 -->
<g id="edge4" class="edge">
<title>r2:e&#45;&gt;r2:n</title>
<path fill="none" stroke="black" d="M340.4,-162C364.19,-144 412.19,-144 412.19,-171 412.19,-196.31 327.35,-197.89 276.98,-183.16"/>
<polygon fill="black" stroke="black" points="277.99,-179.81 267.4,-180 275.79,-186.46 277.99,-179.81"/>
<text text-anchor="middle" x="260.4" y="-183.8" font-family="Times,serif" font-size="14.00">i1</text>
</g>
<!-- r4 -->
<g id="node5" class="node">
<title>r4</title>
<g id="a_node5"><a xlink:href="file:///home/runner/.flow/lib/flowstdlib/control/tap/tap.html" xlink:title="result&#45;tap (#4)">
<ellipse fill="coral" stroke="black" cx="489.4" cy="-90" rx="79.09" ry="18"/>
<text text-anchor="middle" x="489.4" y="-86.3" font-family="Times,serif" font-size="14.00">result&#45;tap (#4)</text>
</a>
</g>
</g>
<!-- r2&#45;&gt;r4 -->
<g id="edge5" class="edge">
<title>r2:e&#45;&gt;r4:n</title>
<path fill="none" stroke="black" d="M341.4,-162C372.99,-162 468.07,-146.54 486.34,-117.8"/>
<polygon fill="black" stroke="black" points="489.76,-118.59 489.4,-108 483.08,-116.5 489.76,-118.59"/>
<text text-anchor="middle" x="473.4" y="-111.8" font-family="Times,serif" font-size="14.00">data</text>
</g>
<!-- r3 -->
<g id="node7" class="node">
<title>r3</title>
<g id="a_node7"><a xlink:href="file:///home/runner/.flow/lib/flowstdlib/control/tap/tap.html" xlink:title="n&#45;tap (#3)">
<ellipse fill="coral" stroke="black" cx="415.4" cy="-234" rx="57.69" ry="18"/>
<text text-anchor="middle" x="415.4" y="-230.3" font-family="Times,serif" font-size="14.00">n&#45;tap (#3)</text>
</a>
</g>
</g>
<!-- r6&#45;&gt;r3 -->
<g id="edge7" class="edge">
<title>r6:e&#45;&gt;r3:n</title>
<path fill="none" stroke="black" d="M394.4,-378C447.84,-378 419.27,-316.65 415.74,-262.09"/>
<polygon fill="black" stroke="black" points="419.23,-261.88 415.4,-252 412.24,-262.11 419.23,-261.88"/>
<text text-anchor="middle" x="399.4" y="-255.8" font-family="Times,serif" font-size="14.00">data</text>
</g>
<!-- r0 -->
<g id="node8" class="node">
<title>r0</title>
<g id="a_node8"><a xlink:href="file:///home/runner/.flow/lib/flowstdlib/math/compare/compare.html" xlink:title="compare (#0)">
<ellipse fill="coral" stroke="black" cx="598.4" cy="-306" rx="74.19" ry="18"/>
<text text-anchor="middle" x="598.4" y="-302.3" font-family="Times,serif" font-size="14.00">compare (#0)</text>
</a>
</g>
</g>
<!-- r6&#45;&gt;r0 -->
<g id="edge8" class="edge">
<title>r6:e&#45;&gt;r0:n</title>
<path fill="none" stroke="black" d="M394.4,-378C415.19,-378 559.51,-353.98 591.94,-332.19"/>
<polygon fill="black" stroke="black" points="594.95,-334.02 598.4,-324 589.45,-329.68 594.95,-334.02"/>
<text text-anchor="middle" x="585.9" y="-327.8" font-family="Times,serif" font-size="14.00">left</text>
</g>
<!-- initializerr2_0 -->
<!-- initializerr2_0&#45;&gt;r2 -->
<g id="edge3" class="edge">
<title>initializerr2_0&#45;&gt;r2:ne</title>
<path fill="none" stroke="blue" stroke-dasharray="1,5" d="M253.96,-219.3C273.53,-211.45 291.96,-200.79 290.37,-188.87"/>
<polygon fill="blue" stroke="blue" points="293.34,-187.01 285.4,-180 287.23,-190.43 293.34,-187.01"/>
<text text-anchor="middle" x="248.96" y="-208.1" font-family="Times,serif" font-size="14.00">1</text>
</g>
<!-- r5 -->
<g id="node10" class="node">
<title>r5</title>
<g id="a_node10"><a xlink:href="file:///home/runner/work/flow/flow/flowr/src/bin/flowrcli/cli/stdio/stdout.html" xlink:title="stdout (#5)">
<ellipse fill="coral" stroke="black" cx="569.4" cy="-18" rx="63.89" ry="18"/>
<text text-anchor="middle" x="569.4" y="-14.3" font-family="Times,serif" font-size="14.00">stdout (#5)</text>
</a>
</g>
</g>
<!-- r4&#45;&gt;r5 -->
<g id="edge14" class="edge">
<title>r4:e&#45;&gt;r5:n</title>
<path fill="none" stroke="black" d="M570.4,-90C591.12,-90 575.32,-67.65 570.61,-46.09"/>
<polygon fill="black" stroke="black" points="574.06,-45.51 569.4,-36 567.11,-46.35 574.06,-45.51"/>
</g>
<!-- initializerr6_1 -->
<!-- initializerr6_1&#45;&gt;r6 -->
<g id="edge6" class="edge">
<title>initializerr6_1&#45;&gt;r6:w</title>
<path fill="none" stroke="blue" d="M284.55,-431.81C278.57,-414.9 272.11,-390.36 280.99,-381.42"/>
<polygon fill="blue" stroke="blue" points="282.19,-384.71 290.4,-378 279.8,-378.13 282.19,-384.71"/>
<text text-anchor="middle" x="279.55" y="-420.61" font-family="Times,serif" font-size="14.00">1</text>
</g>
<!-- r3&#45;&gt;r2 -->
<g id="edge12" class="edge">
<title>r3:e&#45;&gt;r2:ne</title>
<path fill="none" stroke="black" d="M474.4,-234C482.41,-234 478.67,-222.03 473.4,-216 419.69,-154.59 351.42,-233.18 292.85,-186.67"/>
<polygon fill="black" stroke="black" points="295.18,-184.06 285.4,-180 290.51,-189.28 295.18,-184.06"/>
<text text-anchor="middle" x="292.4" y="-183.8" font-family="Times,serif" font-size="14.00">i2</text>
</g>
<!-- r3&#45;&gt;r6 -->
<g id="edge13" class="edge">
<title>r3:e&#45;&gt;r6:n</title>
<path fill="none" stroke="black" d="M474.4,-234C482.41,-234 477.8,-245.3 473.4,-252 453.75,-281.9 421.36,-258.31 401.4,-288 374.53,-327.95 428.09,-362.94 393.09,-396 379.78,-408.57 354.63,-416.25 345.67,-406.6"/>
<polygon fill="black" stroke="black" points="348.94,-405.34 342.4,-397 342.31,-407.59 348.94,-405.34"/>
<text text-anchor="middle" x="349.4" y="-400.8" font-family="Times,serif" font-size="14.00">i1</text>
</g>
<!-- r0&#45;&gt;r4 -->
<g id="edge11" class="edge">
<title>r0:sw&#45;&gt;r4:ne</title>
<path fill="none" stroke="black" d="M580.4,-288C521.86,-229.46 564.6,-173.8 514.37,-115.5"/>
<polygon fill="black" stroke="black" points="516.77,-112.94 507.4,-108 511.64,-117.71 516.77,-112.94"/>
<text text-anchor="middle" x="532.9" y="-111.8" font-family="Times,serif" font-size="14.00">control</text>
<text text-anchor="middle" x="568.4" y="-276.8" font-family="Times,serif" font-size="14.00">/lte</text>
</g>
<!-- r0&#45;&gt;r3 -->
<g id="edge10" class="edge">
<title>r0:se&#45;&gt;r3:ne</title>
<path fill="none" stroke="black" d="M616.4,-288C672.9,-231.49 506,-304.45 440.25,-258.56"/>
<polygon fill="black" stroke="black" points="442.32,-255.72 432.4,-252 437.83,-261.1 442.32,-255.72"/>
<text text-anchor="middle" x="457.9" y="-255.8" font-family="Times,serif" font-size="14.00">control</text>
<text text-anchor="middle" x="606.4" y="-276.8" font-family="Times,serif" font-size="14.00">/gt</text>
</g>
<!-- initializerr0_1 -->
<!-- initializerr0_1&#45;&gt;r0 -->
<g id="edge9" class="edge">
<title>initializerr0_1&#45;&gt;r0:ne</title>
<path fill="none" stroke="blue" d="M622.01,-359.83C623.93,-351.31 624.9,-341.07 621.8,-332.61"/>
<polygon fill="blue" stroke="blue" points="624.68,-330.61 616.4,-324 618.75,-334.33 624.68,-330.61"/>
<text text-anchor="middle" x="617.01" y="-348.63" font-family="Times,serif" font-size="14.00">1</text>
</g>
</g>
</svg>
