<?xml version="1.0" encoding="UTF-8" standalone="no"?>
<!DOCTYPE svg PUBLIC "-//W3C//DTD SVG 1.1//EN"
 "http://www.w3.org/Graphics/SVG/1.1/DTD/svg11.dtd">
<!-- Generated by graphviz version 2.43.0 (0)
 -->
<!-- Title: factorial Pages: 1 -->
<svg width="768pt" height="743pt"
 viewBox="28.80 28.80 739.41 713.87" xmlns="http://www.w3.org/2000/svg" xmlns:xlink="http://www.w3.org/1999/xlink">
<g id="graph0" class="graph" transform="scale(1 1) rotate(0) translate(32.8 709.87)">
<title>factorial</title>
<polygon fill="white" stroke="transparent" points="-4,4 -4,-681.07 706.61,-681.07 706.61,4 -4,4"/>
<text text-anchor="middle" x="351.31" y="-661.87" font-family="Times,serif" font-size="14.00">factorial</text>
<!-- /factorial/args -->
<g id="node1" class="node">
<title>/factorial/args</title>
<g id="a_node1"><a xlink:href="../../flowr/src/cli/args/get.html" xlink:title="args\n(get)">
<polygon fill="white" stroke="black" points="68.9,-610.53 112.81,-587.43 156.71,-610.53 156.67,-647.9 68.95,-647.9 68.9,-610.53"/>
<text text-anchor="middle" x="112.81" y="-624.66" font-family="Times,serif" font-size="14.00">args</text>
<text text-anchor="middle" x="112.81" y="-609.66" font-family="Times,serif" font-size="14.00">(get)</text>
</a>
</g>
</g>
<!-- /factorial/multiply -->
<g id="node2" class="node">
<title>/factorial/multiply</title>
<g id="a_node2"><a xlink:href="../../target/flowstdlib/math/multiply/multiply.html" xlink:title="multiply">
<ellipse fill="coral" stroke="black" cx="342.81" cy="-210.17" rx="49.29" ry="18"/>
<text text-anchor="middle" x="342.81" y="-206.47" font-family="Times,serif" font-size="14.00">multiply</text>
</a>
</g>
</g>
<!-- /factorial/args&#45;&gt;/factorial/multiply -->
<g id="edge4" class="edge">
<title>/factorial/args:e&#45;&gt;/factorial/multiply:w</title>
<path fill="none" stroke="black" d="M157.81,-620.86C172.58,-620.86 165.98,-599.22 156.81,-587.65 118.24,-538.98 64.18,-597.04 21.81,-551.65 -8.43,-519.26 2.81,-498.09 2.81,-453.78 2.81,-453.78 2.81,-453.78 2.81,-370.91 2.81,-227.38 138.25,-210.88 281.48,-210.19"/>
<polygon fill="black" stroke="black" points="281.82,-213.69 291.81,-210.17 281.8,-206.69 281.82,-213.69"/>
<text text-anchor="middle" x="115.32" y="-576.73" font-family="Times,serif" font-size="14.00">json[1]</text>
<text text-anchor="middle" x="284.81" y="-213.97" font-family="Times,serif" font-size="14.00">i2</text>
</g>
<!-- /factorial/sub -->
<g id="node4" class="node">
<title>/factorial/sub</title>
<g id="a_node4"><a xlink:href="../../target/flowstdlib/math/subtract/subtract.html" xlink:title="sub\n(subtract)">
<ellipse fill="coral" stroke="black" cx="218.81" cy="-452.78" rx="61.54" ry="26.74"/>
<text text-anchor="middle" x="218.81" y="-456.58" font-family="Times,serif" font-size="14.00">sub</text>
<text text-anchor="middle" x="218.81" y="-441.58" font-family="Times,serif" font-size="14.00">(subtract)</text>
</a>
</g>
</g>
<!-- /factorial/args&#45;&gt;/factorial/sub -->
<g id="edge5" class="edge">
<title>/factorial/args:e&#45;&gt;/factorial/sub:ne</title>
<path fill="none" stroke="black" d="M157.81,-620.86C224.84,-620.86 256.94,-608.9 291.81,-551.65 300.13,-537.98 298.88,-530 291.81,-515.65 281.59,-494.91 267.53,-496.63 251.71,-485.46"/>
<polygon fill="black" stroke="black" points="253.71,-482.56 243.81,-478.78 249.19,-487.91 253.71,-482.56"/>
<text text-anchor="middle" x="196.24" y="-617.78" font-family="Times,serif" font-size="14.00">json[1]</text>
<text text-anchor="middle" x="236.81" y="-482.58" font-family="Times,serif" font-size="14.00">i1</text>
</g>
<!-- /factorial/multiply&#45;&gt;/factorial/multiply -->
<g id="edge6" class="edge">
<title>/factorial/multiply:e&#45;&gt;/factorial/multiply:ne</title>
<path fill="none" stroke="black" d="M392.81,-210.17C398.2,-190.17 410.2,-190.17 410.2,-218.67 410.2,-243.83 388.44,-246.78 367.88,-233.36"/>
<polygon fill="black" stroke="black" points="369.87,-230.48 359.81,-227.17 365.61,-236.03 369.87,-230.48"/>
<text text-anchor="middle" x="352.81" y="-230.97" font-family="Times,serif" font-size="14.00">i1</text>
</g>
<!-- /factorial/result&#45;tap -->
<g id="node9" class="node">
<title>/factorial/result&#45;tap</title>
<g id="a_node9"><a xlink:href="../../target/flowstdlib/control/tap/tap.html" xlink:title="result&#45;tap\n(tap)">
<ellipse fill="coral" stroke="black" cx="513.81" cy="-129.3" rx="60.62" ry="26.74"/>
<text text-anchor="middle" x="513.81" y="-133.1" font-family="Times,serif" font-size="14.00">result&#45;tap</text>
<text text-anchor="middle" x="513.81" y="-118.1" font-family="Times,serif" font-size="14.00">(tap)</text>
</a>
</g>
</g>
<!-- /factorial/multiply&#45;&gt;/factorial/result&#45;tap -->
<g id="edge13" class="edge">
<title>/factorial/multiply:e&#45;&gt;/factorial/result&#45;tap:nw</title>
<path fill="none" stroke="black" d="M393.81,-210.17C438.95,-210.17 452.38,-192.69 481.48,-162.74"/>
<polygon fill="black" stroke="black" points="484.29,-164.88 488.81,-155.3 479.3,-159.97 484.29,-164.88"/>
<text text-anchor="middle" x="472.81" y="-159.1" font-family="Times,serif" font-size="14.00">data</text>
</g>
<!-- initializer/factorial/multiply_0 -->
<!-- initializer/factorial/multiply_0&#45;&gt;/factorial/multiply -->
<g id="edge1" class="edge">
<title>initializer/factorial/multiply_0&#45;&gt;/factorial/multiply:ne</title>
<path fill="none" stroke="blue" stroke-dasharray="1,5" d="M396.89,-272.88C389.13,-262.17 378.36,-248.1 366.96,-235.66"/>
<polygon fill="blue" stroke="blue" points="369.25,-232.98 359.81,-228.17 364.18,-237.82 369.25,-232.98"/>
<text text-anchor="middle" x="391.89" y="-261.68" font-family="Times,serif" font-size="14.00">1</text>
</g>
<!-- /factorial/compare -->
<g id="node6" class="node">
<title>/factorial/compare</title>
<g id="a_node6"><a xlink:href="../../target/flowstdlib/math/compare/compare.html" xlink:title="compare">
<ellipse fill="coral" stroke="black" cx="394.81" cy="-371.91" rx="50.89" ry="18"/>
<text text-anchor="middle" x="394.81" y="-368.21" font-family="Times,serif" font-size="14.00">compare</text>
</a>
</g>
</g>
<!-- /factorial/sub&#45;&gt;/factorial/compare -->
<g id="edge8" class="edge">
<title>/factorial/sub:e&#45;&gt;/factorial/compare:ne</title>
<path fill="none" stroke="black" d="M281.81,-452.78C294.27,-452.78 280.99,-434.71 289.81,-425.91 326.71,-389.1 433.23,-423.53 418.33,-397.82"/>
<polygon fill="black" stroke="black" points="420.87,-395.4 411.81,-389.91 415.47,-399.85 420.87,-395.4"/>
<text text-anchor="middle" x="399.31" y="-393.71" font-family="Times,serif" font-size="14.00">left</text>
</g>
<!-- /factorial/n&#45;tap -->
<g id="node8" class="node">
<title>/factorial/n&#45;tap</title>
<g id="a_node8"><a xlink:href="../../target/flowstdlib/control/tap/tap.html" xlink:title="n&#45;tap\n(tap)">
<ellipse fill="coral" stroke="black" cx="204.81" cy="-291.04" rx="37.45" ry="26.74"/>
<text text-anchor="middle" x="204.81" y="-294.84" font-family="Times,serif" font-size="14.00">n&#45;tap</text>
<text text-anchor="middle" x="204.81" y="-279.84" font-family="Times,serif" font-size="14.00">(tap)</text>
</a>
</g>
</g>
<!-- /factorial/sub&#45;&gt;/factorial/n&#45;tap -->
<g id="edge7" class="edge">
<title>/factorial/sub:e&#45;&gt;/factorial/n&#45;tap:nw</title>
<path fill="none" stroke="black" d="M281.81,-452.78C290.95,-452.78 275.5,-376.14 256.81,-353.91 235.96,-329.11 175.76,-337.2 177.36,-322.56"/>
<polygon fill="black" stroke="black" points="180.37,-324.35 182.81,-314.04 174.47,-320.58 180.37,-324.35"/>
<text text-anchor="middle" x="166.81" y="-317.84" font-family="Times,serif" font-size="14.00">data</text>
</g>
<!-- initializer/factorial/sub_1 -->
<!-- initializer/factorial/sub_1&#45;&gt;/factorial/sub -->
<g id="edge2" class="edge">
<title>initializer/factorial/sub_1&#45;&gt;/factorial/sub:w</title>
<path fill="none" stroke="blue" d="M149.85,-515.32C142.82,-495.86 134.5,-465.74 145.94,-455.96"/>
<polygon fill="blue" stroke="blue" points="147.37,-459.18 155.81,-452.78 145.22,-452.52 147.37,-459.18"/>
<text text-anchor="middle" x="144.85" y="-504.12" font-family="Times,serif" font-size="14.00">1</text>
</g>
<!-- /factorial/compare&#45;&gt;/factorial/n&#45;tap -->
<g id="edge9" class="edge">
<title>/factorial/compare:sw&#45;&gt;/factorial/n&#45;tap:nw</title>
<path fill="none" stroke="black" d="M377.81,-353.91C318.07,-294.17 137.51,-369.23 175.9,-321.6"/>
<polygon fill="black" stroke="black" points="178.65,-323.78 182.81,-314.04 173.48,-319.06 178.65,-323.78"/>
<text text-anchor="middle" x="272.25" y="-333.66" font-family="Times,serif" font-size="14.00">gt</text>
<text text-anchor="middle" x="208.31" y="-317.84" font-family="Times,serif" font-size="14.00">control</text>
</g>
<!-- /factorial/compare&#45;&gt;/factorial/result&#45;tap -->
<g id="edge12" class="edge">
<title>/factorial/compare:s&#45;&gt;/factorial/result&#45;tap:nw</title>
<path fill="none" stroke="black" d="M394.81,-353.91C394.81,-276.24 516.87,-378.22 565.81,-317.91 580.86,-299.36 573.04,-286.93 565.81,-264.17 549.05,-211.44 459.94,-198.8 482.28,-163.25"/>
<polygon fill="black" stroke="black" points="485.17,-165.25 488.81,-155.3 479.76,-160.81 485.17,-165.25"/>
<text text-anchor="middle" x="423.91" y="-327.75" font-family="Times,serif" font-size="14.00">lte</text>
<text text-anchor="middle" x="514.31" y="-159.1" font-family="Times,serif" font-size="14.00">control</text>
</g>
<!-- initializer/factorial/compare_1 -->
<!-- initializer/factorial/compare_1&#45;&gt;/factorial/compare -->
<g id="edge3" class="edge">
<title>initializer/factorial/compare_1&#45;&gt;/factorial/compare:ne</title>
<path fill="none" stroke="blue" d="M440.81,-434.7C435.83,-423.82 428.32,-409.58 418.76,-397.69"/>
<polygon fill="blue" stroke="blue" points="421.08,-395.04 411.81,-389.91 415.86,-399.7 421.08,-395.04"/>
<text text-anchor="middle" x="435.81" y="-423.5" font-family="Times,serif" font-size="14.00">1</text>
</g>
<!-- /factorial/n&#45;tap&#45;&gt;/factorial/multiply -->
<g id="edge10" class="edge">
<title>/factorial/n&#45;tap:e&#45;&gt;/factorial/multiply:w</title>
<path fill="none" stroke="black" d="M243.81,-291.04C256.27,-291.04 246.24,-275.31 251.81,-264.17 263.44,-240.89 262.5,-217.19 281.8,-211.47"/>
<polygon fill="black" stroke="black" points="282.34,-214.93 291.81,-210.17 281.44,-207.98 282.34,-214.93"/>
<text text-anchor="middle" x="284.81" y="-198.97" font-family="Times,serif" font-size="14.00">i2</text>
</g>
<!-- /factorial/n&#45;tap&#45;&gt;/factorial/sub -->
<g id="edge11" class="edge">
<title>/factorial/n&#45;tap:e&#45;&gt;/factorial/sub:ne</title>
<path fill="none" stroke="black" d="M243.81,-291.04C254.89,-291.04 252.96,-379.52 256.81,-389.91 263.45,-407.83 274.87,-407.59 280.33,-425.91 286.9,-448 296.4,-461.25 280.33,-477.78 271.57,-486.78 261.38,-489.32 251.9,-484.7"/>
<polygon fill="black" stroke="black" points="253.95,-481.86 243.81,-478.78 249.81,-487.51 253.95,-481.86"/>
<text text-anchor="middle" x="250.81" y="-482.58" font-family="Times,serif" font-size="14.00">i1</text>
</g>
<!-- /factorial/print -->
<g id="node10" class="node">
<title>/factorial/print</title>
<g id="a_node10"><a xlink:href="../../flowr/src/cli/stdio/stdout.html" xlink:title="print\n(stdout)">
<polygon fill="black" stroke="black" points="702.42,-43.54 638.81,-66.64 575.2,-43.54 575.26,-6.17 702.36,-6.17 702.42,-43.54"/>
<text text-anchor="middle" x="638.81" y="-37.01" font-family="Times,serif" font-size="14.00" fill="white">print</text>
<text text-anchor="middle" x="638.81" y="-22.01" font-family="Times,serif" font-size="14.00" fill="white">(stdout)</text>
</a>
</g>
</g>
<!-- /factorial/result&#45;tap&#45;&gt;/factorial/print -->
<g id="edge14" class="edge">
<title>/factorial/result&#45;tap:e&#45;&gt;/factorial/print:w</title>
<path fill="none" stroke="black" d="M575.81,-129.3C613.85,-129.3 548.66,-53.08 564.12,-36.41"/>
<polygon fill="black" stroke="black" points="565.41,-39.67 573.81,-33.21 563.22,-33.02 565.41,-39.67"/>
</g>
</g>
</svg>
