<?xml version="1.0" encoding="UTF-8" standalone="no"?>
<!DOCTYPE svg PUBLIC "-//W3C//DTD SVG 1.1//EN"
 "http://www.w3.org/Graphics/SVG/1.1/DTD/svg11.dtd">
<!-- Generated by graphviz version 2.43.0 (0)
 -->
<!-- Title: factorial Pages: 1 -->
<svg width="740pt" height="682pt"
 viewBox="28.80 28.80 711.42 653.02" xmlns="http://www.w3.org/2000/svg" xmlns:xlink="http://www.w3.org/1999/xlink">
<g id="graph0" class="graph" transform="scale(1 1) rotate(0) translate(32.8 649.02)">
<title>factorial</title>
<polygon fill="white" stroke="transparent" points="-4,4 -4,-620.22 678.62,-620.22 678.62,4 -4,4"/>
<text text-anchor="middle" x="337.31" y="-601.02" font-family="Times,serif" font-size="14.00">factorial</text>
<!-- /factorial/get -->
<g id="node1" class="node">
<title>/factorial/get</title>
<g id="a_node1"><a xlink:href="../../flowr/src/bin/flowrcli/context/args/get.html" xlink:title="get">
<polygon fill="white" stroke="black" points="92.54,-569.66 124.81,-557.22 157.08,-569.66 157.05,-589.78 92.57,-589.78 92.54,-569.66"/>
<text text-anchor="middle" x="124.81" y="-571.52" font-family="Times,serif" font-size="14.00">get</text>
</a>
</g>
</g>
<!-- /factorial/multiply -->
<g id="node2" class="node">
<title>/factorial/multiply</title>
<g id="a_node2"><a xlink:href="../../../../../.flow/lib/flowstdlib/math/multiply/multiply.html" xlink:title="multiply">
<ellipse fill="coral" stroke="black" cx="342.81" cy="-179.74" rx="49.29" ry="18"/>
<text text-anchor="middle" x="342.81" y="-176.04" font-family="Times,serif" font-size="14.00">multiply</text>
</a>
</g>
</g>
<!-- /factorial/get&#45;&gt;/factorial/multiply -->
<g id="edge4" class="edge">
<title>/factorial/get:e&#45;&gt;/factorial/multiply:w</title>
<path fill="none" stroke="black" d="M157.81,-575.22C165.82,-575.22 161.86,-563.44 156.81,-557.22 117.63,-509.05 64.18,-566.61 21.81,-521.22 -8.43,-488.83 2.81,-467.66 2.81,-423.35 2.81,-423.35 2.81,-423.35 2.81,-340.48 2.81,-196.95 138.25,-180.46 281.48,-179.76"/>
<polygon fill="black" stroke="black" points="281.82,-183.26 291.81,-179.74 281.8,-176.26 281.82,-183.26"/>
<text text-anchor="middle" x="114.75" y="-546.26" font-family="Times,serif" font-size="14.00">json[1]</text>
<text text-anchor="middle" x="284.81" y="-183.54" font-family="Times,serif" font-size="14.00">i2</text>
</g>
<!-- /factorial/sub -->
<g id="node4" class="node">
<title>/factorial/sub</title>
<g id="a_node4"><a xlink:href="../../../../../.flow/lib/flowstdlib/math/subtract/subtract.html" xlink:title="sub\n(subtract)">
<ellipse fill="coral" stroke="black" cx="218.81" cy="-422.35" rx="61.54" ry="26.74"/>
<text text-anchor="middle" x="218.81" y="-426.15" font-family="Times,serif" font-size="14.00">sub</text>
<text text-anchor="middle" x="218.81" y="-411.15" font-family="Times,serif" font-size="14.00">(subtract)</text>
</a>
</g>
</g>
<!-- /factorial/get&#45;&gt;/factorial/sub -->
<g id="edge5" class="edge">
<title>/factorial/get:e&#45;&gt;/factorial/sub:ne</title>
<path fill="none" stroke="black" d="M157.81,-575.22C222.02,-575.22 255.88,-574.44 291.81,-521.22 300.76,-507.96 298.88,-499.57 291.81,-485.22 281.59,-464.48 267.53,-466.21 251.71,-455.03"/>
<polygon fill="black" stroke="black" points="253.71,-452.13 243.81,-448.35 249.19,-457.48 253.71,-452.13"/>
<text text-anchor="middle" x="182.17" y="-577.58" font-family="Times,serif" font-size="14.00">json[1]</text>
<text text-anchor="middle" x="236.81" y="-452.15" font-family="Times,serif" font-size="14.00">i1</text>
</g>
<!-- /factorial/multiply&#45;&gt;/factorial/multiply -->
<g id="edge6" class="edge">
<title>/factorial/multiply:e&#45;&gt;/factorial/multiply:ne</title>
<path fill="none" stroke="black" d="M392.81,-179.74C398.2,-159.74 410.2,-159.74 410.2,-188.24 410.2,-213.4 388.44,-216.35 367.88,-202.93"/>
<polygon fill="black" stroke="black" points="369.87,-200.05 359.81,-196.74 365.61,-205.61 369.87,-200.05"/>
<text text-anchor="middle" x="352.81" y="-200.54" font-family="Times,serif" font-size="14.00">i1</text>
</g>
<!-- /factorial/result&#45;tap -->
<g id="node9" class="node">
<title>/factorial/result&#45;tap</title>
<g id="a_node9"><a xlink:href="../../../../../.flow/lib/flowstdlib/control/tap/tap.html" xlink:title="result&#45;tap\n(tap)">
<ellipse fill="coral" stroke="black" cx="513.81" cy="-98.87" rx="60.62" ry="26.74"/>
<text text-anchor="middle" x="513.81" y="-102.67" font-family="Times,serif" font-size="14.00">result&#45;tap</text>
<text text-anchor="middle" x="513.81" y="-87.67" font-family="Times,serif" font-size="14.00">(tap)</text>
</a>
</g>
</g>
<!-- /factorial/multiply&#45;&gt;/factorial/result&#45;tap -->
<g id="edge13" class="edge">
<title>/factorial/multiply:e&#45;&gt;/factorial/result&#45;tap:nw</title>
<path fill="none" stroke="black" d="M393.81,-179.74C438.95,-179.74 452.38,-162.26 481.48,-132.31"/>
<polygon fill="black" stroke="black" points="484.29,-134.45 488.81,-124.87 479.3,-129.54 484.29,-134.45"/>
<text text-anchor="middle" x="472.81" y="-128.67" font-family="Times,serif" font-size="14.00">data</text>
</g>
<!-- initializer/factorial/multiply_0 -->
<!-- initializer/factorial/multiply_0&#45;&gt;/factorial/multiply -->
<g id="edge1" class="edge">
<title>initializer/factorial/multiply_0&#45;&gt;/factorial/multiply:ne</title>
<path fill="none" stroke="blue" stroke-dasharray="1,5" d="M396.89,-242.46C389.13,-231.75 378.36,-217.68 366.96,-205.23"/>
<polygon fill="blue" stroke="blue" points="369.25,-202.56 359.81,-197.74 364.18,-207.39 369.25,-202.56"/>
<text text-anchor="middle" x="391.89" y="-231.26" font-family="Times,serif" font-size="14.00">1</text>
</g>
<!-- /factorial/compare -->
<g id="node6" class="node">
<title>/factorial/compare</title>
<g id="a_node6"><a xlink:href="../../../../../.flow/lib/flowstdlib/math/compare/compare.html" xlink:title="compare">
<ellipse fill="coral" stroke="black" cx="394.81" cy="-341.48" rx="50.89" ry="18"/>
<text text-anchor="middle" x="394.81" y="-337.78" font-family="Times,serif" font-size="14.00">compare</text>
</a>
</g>
</g>
<!-- /factorial/sub&#45;&gt;/factorial/compare -->
<g id="edge8" class="edge">
<title>/factorial/sub:e&#45;&gt;/factorial/compare:ne</title>
<path fill="none" stroke="black" d="M281.81,-422.35C294.27,-422.35 280.99,-404.28 289.81,-395.48 326.71,-358.67 433.23,-393.11 418.33,-367.39"/>
<polygon fill="black" stroke="black" points="420.87,-364.97 411.81,-359.48 415.47,-369.42 420.87,-364.97"/>
<text text-anchor="middle" x="399.31" y="-363.28" font-family="Times,serif" font-size="14.00">left</text>
</g>
<!-- /factorial/n&#45;tap -->
<g id="node8" class="node">
<title>/factorial/n&#45;tap</title>
<g id="a_node8"><a xlink:href="../../../../../.flow/lib/flowstdlib/control/tap/tap.html" xlink:title="n&#45;tap\n(tap)">
<ellipse fill="coral" stroke="black" cx="204.81" cy="-260.61" rx="37.45" ry="26.74"/>
<text text-anchor="middle" x="204.81" y="-264.41" font-family="Times,serif" font-size="14.00">n&#45;tap</text>
<text text-anchor="middle" x="204.81" y="-249.41" font-family="Times,serif" font-size="14.00">(tap)</text>
</a>
</g>
</g>
<!-- /factorial/sub&#45;&gt;/factorial/n&#45;tap -->
<g id="edge7" class="edge">
<title>/factorial/sub:e&#45;&gt;/factorial/n&#45;tap:nw</title>
<path fill="none" stroke="black" d="M281.81,-422.35C290.95,-422.35 275.5,-345.71 256.81,-323.48 235.96,-298.68 175.76,-306.78 177.36,-292.14"/>
<polygon fill="black" stroke="black" points="180.37,-293.92 182.81,-283.61 174.47,-290.15 180.37,-293.92"/>
<text text-anchor="middle" x="166.81" y="-287.41" font-family="Times,serif" font-size="14.00">data</text>
</g>
<!-- initializer/factorial/sub_1 -->
<!-- initializer/factorial/sub_1&#45;&gt;/factorial/sub -->
<g id="edge2" class="edge">
<title>initializer/factorial/sub_1&#45;&gt;/factorial/sub:w</title>
<path fill="none" stroke="blue" d="M149.85,-484.89C142.82,-465.44 134.5,-435.31 145.94,-425.53"/>
<polygon fill="blue" stroke="blue" points="147.37,-428.75 155.81,-422.35 145.22,-422.09 147.37,-428.75"/>
<text text-anchor="middle" x="144.85" y="-473.69" font-family="Times,serif" font-size="14.00">1</text>
</g>
<!-- /factorial/compare&#45;&gt;/factorial/n&#45;tap -->
<g id="edge9" class="edge">
<title>/factorial/compare:sw&#45;&gt;/factorial/n&#45;tap:nw</title>
<path fill="none" stroke="black" d="M377.81,-323.48C318.07,-263.74 137.51,-338.8 175.9,-291.17"/>
<polygon fill="black" stroke="black" points="178.65,-293.35 182.81,-283.61 173.48,-288.63 178.65,-293.35"/>
<text text-anchor="middle" x="272.25" y="-303.24" font-family="Times,serif" font-size="14.00">gt</text>
<text text-anchor="middle" x="208.31" y="-287.41" font-family="Times,serif" font-size="14.00">control</text>
</g>
<!-- /factorial/compare&#45;&gt;/factorial/result&#45;tap -->
<g id="edge12" class="edge">
<title>/factorial/compare:s&#45;&gt;/factorial/result&#45;tap:nw</title>
<path fill="none" stroke="black" d="M394.81,-323.48C394.81,-245.81 516.87,-347.79 565.81,-287.48 580.86,-268.93 573.04,-256.5 565.81,-233.74 549.05,-181.01 459.94,-168.37 482.28,-132.83"/>
<polygon fill="black" stroke="black" points="485.17,-134.82 488.81,-124.87 479.76,-130.38 485.17,-134.82"/>
<text text-anchor="middle" x="423.91" y="-297.32" font-family="Times,serif" font-size="14.00">lte</text>
<text text-anchor="middle" x="514.31" y="-128.67" font-family="Times,serif" font-size="14.00">control</text>
</g>
<!-- initializer/factorial/compare_1 -->
<!-- initializer/factorial/compare_1&#45;&gt;/factorial/compare -->
<g id="edge3" class="edge">
<title>initializer/factorial/compare_1&#45;&gt;/factorial/compare:ne</title>
<path fill="none" stroke="blue" d="M440.81,-404.28C435.83,-393.39 428.32,-379.15 418.76,-367.26"/>
<polygon fill="blue" stroke="blue" points="421.08,-364.61 411.81,-359.48 415.86,-369.27 421.08,-364.61"/>
<text text-anchor="middle" x="435.81" y="-393.08" font-family="Times,serif" font-size="14.00">1</text>
</g>
<!-- /factorial/n&#45;tap&#45;&gt;/factorial/multiply -->
<g id="edge10" class="edge">
<title>/factorial/n&#45;tap:e&#45;&gt;/factorial/multiply:w</title>
<path fill="none" stroke="black" d="M243.81,-260.61C256.27,-260.61 246.24,-244.89 251.81,-233.74 263.44,-210.47 262.5,-186.76 281.8,-181.04"/>
<polygon fill="black" stroke="black" points="282.34,-184.5 291.81,-179.74 281.44,-177.56 282.34,-184.5"/>
<text text-anchor="middle" x="284.81" y="-168.54" font-family="Times,serif" font-size="14.00">i2</text>
</g>
<!-- /factorial/n&#45;tap&#45;&gt;/factorial/sub -->
<g id="edge11" class="edge">
<title>/factorial/n&#45;tap:e&#45;&gt;/factorial/sub:ne</title>
<path fill="none" stroke="black" d="M243.81,-260.61C254.89,-260.61 252.96,-349.09 256.81,-359.48 263.45,-377.4 274.87,-377.16 280.33,-395.48 286.9,-417.58 296.4,-430.83 280.33,-447.35 271.57,-456.35 261.38,-458.89 251.9,-454.27"/>
<polygon fill="black" stroke="black" points="253.95,-451.43 243.81,-448.35 249.81,-457.08 253.95,-451.43"/>
<text text-anchor="middle" x="250.81" y="-452.15" font-family="Times,serif" font-size="14.00">i1</text>
</g>
<!-- /factorial/stdout -->
<g id="node10" class="node">
<title>/factorial/stdout</title>
<g id="a_node10"><a xlink:href="../../flowr/src/bin/flowrcli/context/stdio/stdout.html" xlink:title="stdout">
<polygon fill="black" stroke="black" points="674.43,-23.56 624.81,-36 575.19,-23.56 575.24,-3.44 674.38,-3.44 674.43,-23.56"/>
<text text-anchor="middle" x="624.81" y="-14.3" font-family="Times,serif" font-size="14.00" fill="white">stdout</text>
</a>
</g>
</g>
<!-- /factorial/result&#45;tap&#45;&gt;/factorial/stdout -->
<g id="edge14" class="edge">
<title>/factorial/result&#45;tap:e&#45;&gt;/factorial/stdout:w</title>
<path fill="none" stroke="black" d="M575.81,-98.87C606.71,-98.87 556.47,-39.15 564.55,-22.35"/>
<polygon fill="black" stroke="black" points="566.24,-25.42 573.81,-18 563.27,-19.08 566.24,-25.42"/>
</g>
</g>
</svg>
