<?xml version="1.0" encoding="UTF-8" standalone="no"?>
<!DOCTYPE svg PUBLIC "-//W3C//DTD SVG 1.1//EN"
 "http://www.w3.org/Graphics/SVG/1.1/DTD/svg11.dtd">
<!-- Generated by graphviz version 2.43.0 (0)
 -->
<!-- Title: factorial Pages: 1 -->
<svg width="1353pt" height="425pt"
 viewBox="28.80 28.80 1324.06 396.02" xmlns="http://www.w3.org/2000/svg" xmlns:xlink="http://www.w3.org/1999/xlink">
<g id="graph0" class="graph" transform="scale(1 1) rotate(0) translate(32.8 392.02)">
<title>factorial</title>
<polygon fill="white" stroke="transparent" points="-4,4 -4,-363.22 1291.26,-363.22 1291.26,4 -4,4"/>
<text text-anchor="middle" x="643.63" y="-344.02" font-family="Times,serif" font-size="14.00">factorial</text>
<!-- /factorial/args -->
<g id="node1" class="node">
<title>/factorial/args</title>
<g id="a_node1"><a xlink:href="../../../flowr/src/cli/args/get.html" xlink:title="args\n(get)">
<ellipse fill="coral" stroke="black" cx="421.64" cy="-309.35" rx="35.21" ry="26.74"/>
<text text-anchor="middle" x="421.64" y="-313.15" font-family="Times,serif" font-size="14.00">args</text>
<text text-anchor="middle" x="421.64" y="-298.15" font-family="Times,serif" font-size="14.00">(get)</text>
</a>
</g>
</g>
<!-- /factorial/multiply -->
<g id="node2" class="node">
<title>/factorial/multiply</title>
<g id="a_node2"><a xlink:href="../../../target/flowstdlib/math/multiply/multiply.html" xlink:title="multiply">
<ellipse fill="coral" stroke="black" cx="395.64" cy="-99.87" rx="49.29" ry="18"/>
<text text-anchor="middle" x="395.64" y="-96.17" font-family="Times,serif" font-size="14.00">multiply</text>
</a>
</g>
</g>
<!-- /factorial/multiply/ -->
<g id="node12" class="node">
<title>/factorial/multiply/</title>
<ellipse fill="none" stroke="black" cx="342.64" cy="-18" rx="96.68" ry="18"/>
<text text-anchor="middle" x="342.64" y="-14.3" font-family="Times,serif" font-size="14.00">/factorial/multiply/</text>
</g>
<!-- /factorial/multiply&#45;&gt;/factorial/multiply/ -->
<g id="edge6" class="edge">
<title>/factorial/multiply:e&#45;&gt;/factorial/multiply/:ne</title>
<path fill="none" stroke="black" d="M446.64,-99.87C454.66,-99.87 449.94,-88.63 445.64,-81.87 424.61,-48.74 396.37,-63.21 368.49,-42.76"/>
<polygon fill="black" stroke="black" points="370.5,-39.88 360.64,-36 365.93,-45.18 370.5,-39.88"/>
<text text-anchor="middle" x="353.64" y="-39.8" font-family="Times,serif" font-size="14.00">i1</text>
</g>
<!-- /factorial/result&#45;tap/ -->
<g id="node16" class="node">
<title>/factorial/result&#45;tap/</title>
<ellipse fill="none" stroke="black" cx="560.64" cy="-18" rx="103.18" ry="18"/>
<text text-anchor="middle" x="560.64" y="-14.3" font-family="Times,serif" font-size="14.00">/factorial/result&#45;tap/</text>
</g>
<!-- /factorial/multiply&#45;&gt;/factorial/result&#45;tap/ -->
<g id="edge13" class="edge">
<title>/factorial/multiply:e&#45;&gt;/factorial/result&#45;tap/:nw</title>
<path fill="none" stroke="black" d="M446.64,-99.87C494.29,-99.87 505,-75.99 535.39,-43.51"/>
<polygon fill="black" stroke="black" points="538.21,-45.62 542.64,-36 533.18,-40.76 538.21,-45.62"/>
<text text-anchor="middle" x="526.64" y="-39.8" font-family="Times,serif" font-size="14.00">data</text>
</g>
<!-- initializer/factorial/multiply_0 -->
<!-- initializer/factorial/multiply_0&#45;&gt;/factorial/multiply -->
<g id="edge1" class="edge">
<title>initializer/factorial/multiply_0&#45;&gt;/factorial/multiply:ne</title>
<path fill="none" stroke="blue" stroke-dasharray="1,5" d="M418.91,-186.45C423.97,-169.69 428.76,-144.15 418.79,-126.07"/>
<polygon fill="blue" stroke="blue" points="421.44,-123.77 412.64,-117.87 415.84,-127.97 421.44,-123.77"/>
<text text-anchor="middle" x="429.64" y="-148.54" font-family="Times,serif" font-size="14.00">1</text>
</g>
<!-- /factorial/sub -->
<g id="node4" class="node">
<title>/factorial/sub</title>
<g id="a_node4"><a xlink:href="../../../target/flowstdlib/math/subtract/subtract.html" xlink:title="sub\n(subtract)">
<ellipse fill="coral" stroke="black" cx="662.64" cy="-204.61" rx="61.54" ry="26.74"/>
<text text-anchor="middle" x="662.64" y="-208.41" font-family="Times,serif" font-size="14.00">sub</text>
<text text-anchor="middle" x="662.64" y="-193.41" font-family="Times,serif" font-size="14.00">(subtract)</text>
</a>
</g>
</g>
<!-- /factorial/n&#45;tap/ -->
<g id="node14" class="node">
<title>/factorial/n&#45;tap/</title>
<ellipse fill="none" stroke="black" cx="763.64" cy="-18" rx="81.79" ry="18"/>
<text text-anchor="middle" x="763.64" y="-14.3" font-family="Times,serif" font-size="14.00">/factorial/n&#45;tap/</text>
</g>
<!-- /factorial/sub&#45;&gt;/factorial/n&#45;tap/ -->
<g id="edge7" class="edge">
<title>/factorial/sub:e&#45;&gt;/factorial/n&#45;tap/:nw</title>
<path fill="none" stroke="black" d="M725.64,-204.61C797.57,-204.61 702.08,-99.91 739.17,-43.89"/>
<polygon fill="black" stroke="black" points="742.01,-45.95 745.64,-36 736.6,-41.51 742.01,-45.95"/>
<text text-anchor="middle" x="729.64" y="-39.8" font-family="Times,serif" font-size="14.00">data</text>
</g>
<!-- /factorial/compare/ -->
<g id="node15" class="node">
<title>/factorial/compare/</title>
<ellipse fill="none" stroke="black" cx="619.64" cy="-99.87" rx="98.28" ry="18"/>
<text text-anchor="middle" x="619.64" y="-96.17" font-family="Times,serif" font-size="14.00">/factorial/compare/</text>
</g>
<!-- /factorial/sub&#45;&gt;/factorial/compare/ -->
<g id="edge8" class="edge">
<title>/factorial/sub:e&#45;&gt;/factorial/compare/:ne</title>
<path fill="none" stroke="black" d="M725.64,-204.61C737.59,-204.61 730.44,-188.19 724.64,-177.74 703.76,-140.11 675.5,-149.88 645.35,-125.78"/>
<polygon fill="black" stroke="black" points="647.42,-122.94 637.64,-118.87 642.75,-128.15 647.42,-122.94"/>
<text text-anchor="middle" x="625.14" y="-122.67" font-family="Times,serif" font-size="14.00">left</text>
</g>
<!-- initializer/factorial/sub_1 -->
<!-- initializer/factorial/sub_1&#45;&gt;/factorial/sub -->
<g id="edge2" class="edge">
<title>initializer/factorial/sub_1&#45;&gt;/factorial/sub:w</title>
<path fill="none" stroke="blue" d="M593.65,-291.22C583.85,-265.21 569.35,-217.62 589.64,-206.83"/>
<polygon fill="blue" stroke="blue" points="590.64,-210.19 599.64,-204.61 589.12,-203.36 590.64,-210.19"/>
<text text-anchor="middle" x="589.64" y="-253.28" font-family="Times,serif" font-size="14.00">1</text>
</g>
<!-- /factorial/compare -->
<g id="node6" class="node">
<title>/factorial/compare</title>
<g id="a_node6"><a xlink:href="../../../target/flowstdlib/math/compare/compare.html" xlink:title="compare">
<ellipse fill="coral" stroke="black" cx="877.64" cy="-204.61" rx="50.89" ry="18"/>
<text text-anchor="middle" x="877.64" y="-200.91" font-family="Times,serif" font-size="14.00">compare</text>
</a>
</g>
</g>
<!-- initializer/factorial/compare_1 -->
<!-- initializer/factorial/compare_1&#45;&gt;/factorial/compare -->
<g id="edge3" class="edge">
<title>initializer/factorial/compare_1&#45;&gt;/factorial/compare:ne</title>
<path fill="none" stroke="blue" d="M900.91,-291.19C905.97,-274.43 910.76,-248.89 900.79,-230.81"/>
<polygon fill="blue" stroke="blue" points="903.44,-228.51 894.64,-222.61 897.84,-232.71 903.44,-228.51"/>
<text text-anchor="middle" x="911.64" y="-253.28" font-family="Times,serif" font-size="14.00">1</text>
</g>
<!-- /factorial/n&#45;tap -->
<g id="node8" class="node">
<title>/factorial/n&#45;tap</title>
<g id="a_node8"><a xlink:href="../../../target/flowstdlib/control/tap/tap.html" xlink:title="n&#45;tap\n(tap)">
<ellipse fill="coral" stroke="black" cx="212.64" cy="-99.87" rx="37.45" ry="26.74"/>
<text text-anchor="middle" x="212.64" y="-103.67" font-family="Times,serif" font-size="14.00">n&#45;tap</text>
<text text-anchor="middle" x="212.64" y="-88.67" font-family="Times,serif" font-size="14.00">(tap)</text>
</a>
</g>
</g>
<!-- /factorial/n&#45;tap&#45;&gt;/factorial/multiply/ -->
<g id="edge10" class="edge">
<title>/factorial/n&#45;tap:e&#45;&gt;/factorial/multiply/:w</title>
<path fill="none" stroke="black" d="M251.64,-99.87C283.03,-99.87 228.33,-39.41 235.5,-22.4"/>
<polygon fill="black" stroke="black" points="237.15,-25.49 244.64,-18 234.11,-19.19 237.15,-25.49"/>
<text text-anchor="middle" x="237.64" y="-21.8" font-family="Times,serif" font-size="14.00">i2</text>
</g>
<!-- /factorial/sub/ -->
<g id="node13" class="node">
<title>/factorial/sub/</title>
<ellipse fill="none" stroke="black" cx="149.64" cy="-18" rx="74.99" ry="18"/>
<text text-anchor="middle" x="149.64" y="-14.3" font-family="Times,serif" font-size="14.00">/factorial/sub/</text>
</g>
<!-- /factorial/n&#45;tap&#45;&gt;/factorial/sub/ -->
<g id="edge11" class="edge">
<title>/factorial/n&#45;tap:e&#45;&gt;/factorial/sub/:ne</title>
<path fill="none" stroke="black" d="M251.64,-99.87C263.59,-99.87 257.33,-82.9 250.64,-73 230.06,-42.54 201.85,-60.53 175.41,-42.48"/>
<polygon fill="black" stroke="black" points="177.56,-39.72 167.64,-36 173.08,-45.09 177.56,-39.72"/>
<text text-anchor="middle" x="160.64" y="-39.8" font-family="Times,serif" font-size="14.00">i1</text>
</g>
<!-- /factorial/result&#45;tap -->
<g id="node9" class="node">
<title>/factorial/result&#45;tap</title>
<g id="a_node9"><a xlink:href="../../../target/flowstdlib/control/tap/tap.html" xlink:title="result&#45;tap\n(tap)">
<ellipse fill="coral" stroke="black" cx="1122.64" cy="-309.35" rx="60.62" ry="26.74"/>
<text text-anchor="middle" x="1122.64" y="-313.15" font-family="Times,serif" font-size="14.00">result&#45;tap</text>
<text text-anchor="middle" x="1122.64" y="-298.15" font-family="Times,serif" font-size="14.00">(tap)</text>
</a>
</g>
</g>
<!-- /factorial/print -->
<g id="node10" class="node">
<title>/factorial/print</title>
<g id="a_node10"><a xlink:href="../../../flowr/src/cli/stdio/stdout.html" xlink:title="print\n(stdout)">
<ellipse fill="coral" stroke="black" cx="1235.64" cy="-204.61" rx="51.74" ry="26.74"/>
<text text-anchor="middle" x="1235.64" y="-208.41" font-family="Times,serif" font-size="14.00">print</text>
<text text-anchor="middle" x="1235.64" y="-193.41" font-family="Times,serif" font-size="14.00">(stdout)</text>
</a>
</g>
</g>
<!-- /factorial/result&#45;tap&#45;&gt;/factorial/print -->
<g id="edge14" class="edge">
<title>/factorial/result&#45;tap:e&#45;&gt;/factorial/print:w</title>
<path fill="none" stroke="black" d="M1184.64,-309.35C1226.47,-309.35 1153.94,-224.81 1172.54,-207.63"/>
<polygon fill="black" stroke="black" points="1174.07,-210.83 1182.64,-204.61 1172.06,-204.12 1174.07,-210.83"/>
</g>
<!-- /factorial/args/ -->
<g id="node11" class="node">
<title>/factorial/args/</title>
<ellipse fill="none" stroke="black" cx="78.64" cy="-99.87" rx="78.79" ry="18"/>
<text text-anchor="middle" x="78.64" y="-96.17" font-family="Times,serif" font-size="14.00">/factorial/args/</text>
</g>
<!-- /factorial/args/&#45;&gt;/factorial/multiply/ -->
<g id="edge4" class="edge">
<title>/factorial/args/:e&#45;&gt;/factorial/multiply/:w</title>
<path fill="none" stroke="black" d="M158.64,-99.87C171.1,-99.87 158.83,-82.71 166.64,-73 187.97,-46.5 209.07,-59.52 233.64,-36 236.71,-33.06 237.33,-29.09 237.97,-25.63"/>
<polygon fill="black" stroke="black" points="240.69,-27.83 244.64,-18 235.42,-23.22 240.69,-27.83"/>
<text text-anchor="middle" x="223.3" y="-57.22" font-family="Times,serif" font-size="14.00">json[1]</text>
<text text-anchor="middle" x="237.64" y="-6.8" font-family="Times,serif" font-size="14.00">i2</text>
</g>
<!-- /factorial/args/&#45;&gt;/factorial/sub/ -->
<g id="edge5" class="edge">
<title>/factorial/args/:e&#45;&gt;/factorial/sub/:ne</title>
<path fill="none" stroke="black" d="M158.64,-99.87C161.37,-99.87 166.64,-64.28 167.87,-46.2"/>
<polygon fill="black" stroke="black" points="171.36,-45.92 167.64,-36 164.37,-46.08 171.36,-45.92"/>
<text text-anchor="middle" x="141.01" y="-57.14" font-family="Times,serif" font-size="14.00">json[1]</text>
<text text-anchor="middle" x="174.64" y="-39.8" font-family="Times,serif" font-size="14.00">i1</text>
</g>
<!-- /factorial/compare/&#45;&gt;/factorial/n&#45;tap/ -->
<g id="edge9" class="edge">
<title>/factorial/compare/:sw&#45;&gt;/factorial/n&#45;tap/:nw</title>
<path fill="none" stroke="black" d="M601.64,-80.87C556.65,-35.88 684.11,-78.58 737.71,-42.49"/>
<polygon fill="black" stroke="black" points="740.12,-45.04 745.64,-36 735.69,-39.63 740.12,-45.04"/>
<text text-anchor="middle" x="665.78" y="-62.1" font-family="Times,serif" font-size="14.00">gt</text>
<text text-anchor="middle" x="771.14" y="-39.8" font-family="Times,serif" font-size="14.00">control</text>
</g>
<!-- /factorial/compare/&#45;&gt;/factorial/result&#45;tap/ -->
<g id="edge12" class="edge">
<title>/factorial/compare/:s&#45;&gt;/factorial/result&#45;tap/:nw</title>
<path fill="none" stroke="black" d="M619.64,-80.87C619.64,-46.83 542.09,-58.84 538.06,-45.12"/>
<polygon fill="black" stroke="black" points="541.28,-46.51 542.64,-36 535.02,-43.36 541.28,-46.51"/>
<text text-anchor="middle" x="572.26" y="-59.39" font-family="Times,serif" font-size="14.00">lte</text>
<text text-anchor="middle" x="568.14" y="-39.8" font-family="Times,serif" font-size="14.00">control</text>
</g>
</g>
</svg>
