<?xml version="1.0" encoding="UTF-8" standalone="no"?>
<!DOCTYPE svg PUBLIC "-//W3C//DTD SVG 1.1//EN"
 "http://www.w3.org/Graphics/SVG/1.1/DTD/svg11.dtd">
<!-- Generated by graphviz version 2.42.3 (20191010.1750)
 -->
<!-- Title: mandlebrot Pages: 1 -->
<svg width="1004pt" height="493pt"
 viewBox="28.80 28.80 975.06 464.62" xmlns="http://www.w3.org/2000/svg" xmlns:xlink="http://www.w3.org/1999/xlink">
<g id="graph0" class="graph" transform="scale(1 1) rotate(0) translate(32.8 460.62)">
<title>mandlebrot</title>
<polygon fill="white" stroke="transparent" points="-4,4 -4,-431.82 942.26,-431.82 942.26,4 -4,4"/>
<text text-anchor="middle" x="469.13" y="-412.62" font-family="Times,serif" font-size="14.00">mandlebrot</text>
<!-- /mandlebrot/args -->
<g id="node1" class="node">
<title>/mandlebrot/args</title>
<ellipse fill="coral" stroke="black" cx="679.4" cy="-294.37" rx="32.4" ry="25.41"/>
<text text-anchor="middle" x="679.4" y="-297.17" font-family="Times,serif" font-size="14.00">args</text>
<text text-anchor="middle" x="679.4" y="-283.17" font-family="Times,serif" font-size="14.00">(Get)</text>
</g>
<!-- /mandlebrot/parse_bounds -->
<g id="node2" class="node">
<title>/mandlebrot/parse_bounds</title>
<ellipse fill="coral" stroke="black" cx="506.4" cy="-206.46" rx="65.5" ry="25.41"/>
<text text-anchor="middle" x="506.4" y="-209.26" font-family="Times,serif" font-size="14.00">parse_bounds</text>
<text text-anchor="middle" x="506.4" y="-195.26" font-family="Times,serif" font-size="14.00">(ParsePair)</text>
</g>
<!-- /mandlebrot/args&#45;&gt;/mandlebrot/parse_bounds -->
<g id="edge3" class="edge">
<title>/mandlebrot/args:e&#45;&gt;/mandlebrot/parse_bounds:nw</title>
<path fill="none" stroke="black" d="M713.4,-294.37C724.72,-294.37 719.91,-277.39 712.4,-268.91 681.98,-234.52 495.88,-260.46 479.63,-241.25"/>
<polygon fill="black" stroke="black" points="483.05,-242.03 482.4,-231.46 476.31,-240.13 483.05,-242.03"/>
<text text-anchor="middle" x="589.91" y="-252.23" font-family="Times,serif" font-size="14.00">[2]</text>
<text text-anchor="middle" x="468.01" y="-234.26" font-family="Times,serif" font-size="14.00">input</text>
</g>
<!-- /mandlebrot/parse_upper_left -->
<g id="node7" class="node">
<title>/mandlebrot/parse_upper_left</title>
<ellipse fill="coral" stroke="black" cx="852.4" cy="-206.46" rx="77.66" ry="25.41"/>
<text text-anchor="middle" x="852.4" y="-209.26" font-family="Times,serif" font-size="14.00">parse_upper_left</text>
<text text-anchor="middle" x="852.4" y="-195.26" font-family="Times,serif" font-size="14.00">(ParsePair)</text>
</g>
<!-- /mandlebrot/args&#45;&gt;/mandlebrot/parse_upper_left -->
<g id="edge6" class="edge">
<title>/mandlebrot/args:e&#45;&gt;/mandlebrot/parse_upper_left:nw</title>
<path fill="none" stroke="black" d="M713.4,-294.37C768.02,-294.37 785.1,-275.28 820.96,-238.95"/>
<polygon fill="black" stroke="black" points="823.84,-241.02 828.4,-231.46 818.87,-236.09 823.84,-241.02"/>
<text text-anchor="middle" x="772.15" y="-279.13" font-family="Times,serif" font-size="14.00">[3]</text>
<text text-anchor="middle" x="814.01" y="-234.26" font-family="Times,serif" font-size="14.00">input</text>
</g>
<!-- /mandlebrot/parse_lower_right -->
<g id="node8" class="node">
<title>/mandlebrot/parse_lower_right</title>
<ellipse fill="coral" stroke="black" cx="673.4" cy="-206.46" rx="83.17" ry="25.41"/>
<text text-anchor="middle" x="673.4" y="-209.26" font-family="Times,serif" font-size="14.00">parse_lower_right</text>
<text text-anchor="middle" x="673.4" y="-195.26" font-family="Times,serif" font-size="14.00">(ParsePair)</text>
</g>
<!-- /mandlebrot/args&#45;&gt;/mandlebrot/parse_lower_right -->
<g id="edge8" class="edge">
<title>/mandlebrot/args:e&#45;&gt;/mandlebrot/parse_lower_right:nw</title>
<path fill="none" stroke="black" d="M713.4,-294.37C724.72,-294.37 718.25,-278.61 712.4,-268.91 698.35,-245.62 647.75,-251.46 643.96,-240.97"/>
<polygon fill="black" stroke="black" points="647.14,-242.43 648.4,-231.91 640.86,-239.35 647.14,-242.43"/>
<text text-anchor="middle" x="675.31" y="-254.87" font-family="Times,serif" font-size="14.00">[4]</text>
<text text-anchor="middle" x="634.01" y="-234.71" font-family="Times,serif" font-size="14.00">input</text>
</g>
<!-- /mandlebrot/render -->
<g id="node9" class="node">
<title>/mandlebrot/render</title>
<g id="a_node9"><a xlink:href="render.dot.svg" xlink:title="render">
<ellipse fill="aquamarine" stroke="black" cx="757.4" cy="-72" rx="72" ry="72"/>
<text text-anchor="middle" x="757.4" y="-67.8" font-family="Times,serif" font-size="14.00">render</text>
</a>
</g>
</g>
<!-- /mandlebrot/parse_bounds&#45;&gt;/mandlebrot/render -->
<g id="edge9" class="edge">
<title>/mandlebrot/parse_bounds:e&#45;&gt;/mandlebrot/render:n</title>
<path fill="none" stroke="black" d="M573.4,-206.46C585.26,-206.46 572.62,-188.97 581.4,-181 637.83,-129.81 746.58,-215.2 756.65,-154.11"/>
<polygon fill="black" stroke="black" points="760.15,-154.23 757.4,-144 753.17,-153.71 760.15,-154.23"/>
<text text-anchor="middle" x="737.18" y="-146.8" font-family="Times,serif" font-size="14.00">bounds</text>
</g>
<!-- /mandlebrot/bounds_separator -->
<g id="node3" class="node">
<title>/mandlebrot/bounds_separator</title>
<ellipse fill="coral" stroke="black" cx="315.4" cy="-294.37" rx="81.28" ry="25.41"/>
<text text-anchor="middle" x="315.4" y="-297.17" font-family="Times,serif" font-size="14.00">bounds_separator</text>
<text text-anchor="middle" x="315.4" y="-283.17" font-family="Times,serif" font-size="14.00">(Buffer)</text>
</g>
<!-- /mandlebrot/bounds_separator&#45;&gt;/mandlebrot/parse_bounds -->
<g id="edge4" class="edge">
<title>/mandlebrot/bounds_separator:e&#45;&gt;/mandlebrot/parse_bounds:w</title>
<path fill="none" stroke="black" d="M397.4,-294.37C436.64,-294.37 403.69,-222.17 429.4,-208.63"/>
<polygon fill="black" stroke="black" points="430.37,-212 439.4,-206.46 428.89,-205.16 430.37,-212"/>
<text text-anchor="middle" x="413.75" y="-209.26" font-family="Times,serif" font-size="14.00">separator</text>
</g>
<!-- initializer/mandlebrot/bounds_separator_0 -->
<!-- initializer/mandlebrot/bounds_separator_0&#45;&gt;/mandlebrot/bounds_separator -->
<g id="edge1" class="edge">
<title>initializer/mandlebrot/bounds_separator_0&#45;&gt;/mandlebrot/bounds_separator:w</title>
<path fill="none" stroke="blue" d="M165.4,-369.43C173.46,-345.16 191.69,-303.23 223.19,-295.58"/>
<polygon fill="blue" stroke="blue" points="223.89,-299.03 233.4,-294.37 223.06,-292.07 223.89,-299.03"/>
<text text-anchor="middle" x="185.62" y="-340.62" font-family="Times,serif" font-size="14.00">&quot;x&quot;</text>
</g>
<!-- /mandlebrot/point_separator -->
<g id="node5" class="node">
<title>/mandlebrot/point_separator</title>
<ellipse fill="coral" stroke="black" cx="556.4" cy="-294.37" rx="72.78" ry="25.41"/>
<text text-anchor="middle" x="556.4" y="-297.17" font-family="Times,serif" font-size="14.00">point_separator</text>
<text text-anchor="middle" x="556.4" y="-283.17" font-family="Times,serif" font-size="14.00">(Buffer)</text>
</g>
<!-- /mandlebrot/point_separator&#45;&gt;/mandlebrot/parse_upper_left -->
<g id="edge5" class="edge">
<title>/mandlebrot/point_separator:e&#45;&gt;/mandlebrot/parse_upper_left:w</title>
<path fill="none" stroke="black" d="M630.4,-294.37C642.26,-294.37 629.93,-277.21 638.4,-268.91 680.41,-227.78 723.4,-273.04 765.4,-231.91 769.9,-227.5 768.53,-220.59 768.04,-215.09"/>
<polygon fill="black" stroke="black" points="771.1,-216.8 773.4,-206.46 765.15,-213.1 771.1,-216.8"/>
<text text-anchor="middle" x="747.75" y="-209.26" font-family="Times,serif" font-size="14.00">separator</text>
</g>
<!-- /mandlebrot/point_separator&#45;&gt;/mandlebrot/parse_lower_right -->
<g id="edge7" class="edge">
<title>/mandlebrot/point_separator:e&#45;&gt;/mandlebrot/parse_lower_right:w</title>
<path fill="none" stroke="black" d="M630.4,-294.37C641.72,-294.37 634.14,-279.19 629.4,-268.91 619.27,-246.92 599.54,-253.91 589.4,-231.91 586.96,-226.61 583.76,-220.01 582.79,-214.86"/>
<polygon fill="black" stroke="black" points="585.75,-216.71 588.4,-206.46 579.93,-212.82 585.75,-216.71"/>
<text text-anchor="middle" x="575.58" y="-195.26" font-family="Times,serif" font-size="14.00">separator</text>
</g>
<!-- initializer/mandlebrot/point_separator_0 -->
<!-- initializer/mandlebrot/point_separator_0&#45;&gt;/mandlebrot/point_separator -->
<g id="edge2" class="edge">
<title>initializer/mandlebrot/point_separator_0&#45;&gt;/mandlebrot/point_separator:w</title>
<path fill="none" stroke="blue" d="M482.82,-369.43C472.28,-346.42 457.51,-307.52 472.5,-297.04"/>
<polygon fill="blue" stroke="blue" points="473.66,-300.35 482.4,-294.37 471.84,-293.59 473.66,-300.35"/>
<text text-anchor="middle" x="481.87" y="-340.62" font-family="Times,serif" font-size="14.00">&quot;,&quot;</text>
</g>
<!-- /mandlebrot/parse_upper_left&#45;&gt;/mandlebrot/render -->
<g id="edge10" class="edge">
<title>/mandlebrot/parse_upper_left:e&#45;&gt;/mandlebrot/render:n</title>
<path fill="none" stroke="black" d="M931.4,-206.46C942.72,-206.46 937.69,-189.66 930.4,-181 907.56,-153.86 785.08,-177.58 761.38,-153.59"/>
<polygon fill="black" stroke="black" points="764.46,-151.9 757.4,-144 758,-154.58 764.46,-151.9"/>
<text text-anchor="middle" x="786.17" y="-146.8" font-family="Times,serif" font-size="14.00">upper_left</text>
</g>
<!-- /mandlebrot/parse_lower_right&#45;&gt;/mandlebrot/render -->
<g id="edge11" class="edge">
<title>/mandlebrot/parse_lower_right:e&#45;&gt;/mandlebrot/render:n</title>
<path fill="none" stroke="black" d="M758.4,-206.46C769.84,-206.46 761.75,-173.46 758.54,-154.08"/>
<polygon fill="black" stroke="black" points="762.01,-153.54 757.4,-144 755.05,-154.33 762.01,-153.54"/>
<text text-anchor="middle" x="724.74" y="-146.8" font-family="Times,serif" font-size="14.00">lower_right</text>
</g>
</g>
</svg>
