<?xml version="1.0" encoding="UTF-8" standalone="no"?>
<!DOCTYPE svg PUBLIC "-//W3C//DTD SVG 1.1//EN"
 "http://www.w3.org/Graphics/SVG/1.1/DTD/svg11.dtd">
<!-- Generated by graphviz version 2.40.1 (20161225.0304)
 -->
<!-- Title: mandlebrot Pages: 1 -->
<svg width="328pt" height="593pt"
 viewBox="28.80 28.80 298.80 563.80" xmlns="http://www.w3.org/2000/svg" xmlns:xlink="http://www.w3.org/1999/xlink">
<g id="graph0" class="graph" transform="scale(1 1) rotate(0) translate(32.8 559.8)">
<title>mandlebrot</title>
<polygon fill="#ffffff" stroke="transparent" points="-4,4 -4,-531 266,-531 266,4 -4,4"/>
<text text-anchor="middle" x="131" y="-511.8" font-family="Times,serif" font-size="14.00" fill="#000000">mandlebrot</text>
<!-- /mandlebrot/parse_args -->
<g id="node1" class="node">
<title>/mandlebrot/parse_args</title>
<g id="a_node1"><a xlink:href="parse_args.dot.svg" xlink:title="parse_args">
<ellipse fill="#7fffd4" stroke="#000000" cx="190" cy="-432" rx="72" ry="72"/>
<text text-anchor="middle" x="190" y="-428.3" font-family="Times,serif" font-size="14.00" fill="#000000">parse_args</text>
</a>
</g>
</g>
<!-- /mandlebrot/generate_pixels -->
<g id="node2" class="node">
<title>/mandlebrot/generate_pixels</title>
<g id="a_node2"><a xlink:href="generate_pixels.dot.svg" xlink:title="generate_pixels">
<ellipse fill="#7fffd4" stroke="#000000" cx="72" cy="-252" rx="72" ry="72"/>
<text text-anchor="middle" x="72" y="-248.3" font-family="Times,serif" font-size="14.00" fill="#000000">generate_pixels</text>
</a>
</g>
</g>
<!-- /mandlebrot/parse_args&#45;&gt;/mandlebrot/generate_pixels -->
<g id="edge1" class="edge">
<title>/mandlebrot/parse_args:s&#45;&gt;/mandlebrot/generate_pixels:n</title>
<path fill="none" stroke="#000000" d="M190,-360C190,-309.2386 88.8656,-368.6045 73.8535,-334.1901"/>
<polygon fill="#000000" stroke="#000000" points="77.2331,-333.2122 72,-324 70.3461,-334.4649 77.2331,-333.2122"/>
<text text-anchor="middle" x="117.1674" y="-345.7733" font-family="Times,serif" font-size="14.00" fill="#000000">size</text>
<text text-anchor="middle" x="58" y="-327.8" font-family="Times,serif" font-size="14.00" fill="#000000">size</text>
</g>
<!-- /mandlebrot/render -->
<g id="node3" class="node">
<title>/mandlebrot/render</title>
<g id="a_node3"><a xlink:href="render.dot.svg" xlink:title="render">
<ellipse fill="#7fffd4" stroke="#000000" cx="190" cy="-72" rx="72" ry="72"/>
<text text-anchor="middle" x="190" y="-68.3" font-family="Times,serif" font-size="14.00" fill="#000000">render</text>
</a>
</g>
</g>
<!-- /mandlebrot/parse_args&#45;&gt;/mandlebrot/render -->
<g id="edge2" class="edge">
<title>/mandlebrot/parse_args:s&#45;&gt;/mandlebrot/render:n</title>
<path fill="none" stroke="#000000" d="M190,-360C190,-267.4688 190,-241.8284 190,-154.131"/>
<polygon fill="#000000" stroke="#000000" points="193.5001,-154 190,-144 186.5001,-154 193.5001,-154"/>
<text text-anchor="middle" x="221" y="-255.6634" font-family="Times,serif" font-size="14.00" fill="#000000">filename</text>
<text text-anchor="middle" x="159" y="-147.8" font-family="Times,serif" font-size="14.00" fill="#000000">filename</text>
</g>
<!-- /mandlebrot/parse_args&#45;&gt;/mandlebrot/render -->
<g id="edge3" class="edge">
<title>/mandlebrot/parse_args:s&#45;&gt;/mandlebrot/render:n</title>
<path fill="none" stroke="#000000" d="M190,-360C181.3252,-267.4688 181.0118,-241.8284 189.0597,-154.131"/>
<polygon fill="#000000" stroke="#000000" points="192.5607,-154.2807 190,-144 185.5907,-153.6337 192.5607,-154.2807"/>
<text text-anchor="middle" x="169.25" y="-255.6634" font-family="Times,serif" font-size="14.00" fill="#000000">size</text>
<text text-anchor="middle" x="204" y="-147.8" font-family="Times,serif" font-size="14.00" fill="#000000">size</text>
</g>
<!-- /mandlebrot/parse_args&#45;&gt;/mandlebrot/render -->
<g id="edge4" class="edge">
<title>/mandlebrot/parse_args:s&#45;&gt;/mandlebrot/render:n</title>
<path fill="none" stroke="#000000" d="M190,-360C198.6748,-267.4688 198.9882,-241.8284 190.9403,-154.131"/>
<polygon fill="#000000" stroke="#000000" points="194.4093,-153.6337 190,-144 187.4393,-154.2807 194.4093,-153.6337"/>
<text text-anchor="middle" x="170.75" y="-240.6634" font-family="Times,serif" font-size="14.00" fill="#000000">bounds</text>
<text text-anchor="middle" x="216" y="-147.8" font-family="Times,serif" font-size="14.00" fill="#000000">bounds</text>
</g>
<!-- /mandlebrot/generate_pixels&#45;&gt;/mandlebrot/render -->
<g id="edge5" class="edge">
<title>/mandlebrot/generate_pixels:s&#45;&gt;/mandlebrot/render:n</title>
<path fill="none" stroke="#000000" d="M72,-180C72,-129.2386 173.1344,-188.6045 188.1465,-154.1901"/>
<polygon fill="#000000" stroke="#000000" points="191.6539,-154.4649 190,-144 184.7669,-153.2122 191.6539,-154.4649"/>
<text text-anchor="middle" x="109.3326" y="-165.7733" font-family="Times,serif" font-size="14.00" fill="#000000">pixels</text>
<text text-anchor="middle" x="198.75" y="-132.8" font-family="Times,serif" font-size="14.00" fill="#000000">pixel</text>
</g>
</g>
</svg>
