<?xml version="1.0" encoding="UTF-8" standalone="no"?>
<!DOCTYPE svg PUBLIC "-//W3C//DTD SVG 1.1//EN"
 "http://www.w3.org/Graphics/SVG/1.1/DTD/svg11.dtd">
<!-- Generated by graphviz version 2.40.1 (0)
 -->
<!-- Title: mandlebrot Pages: 1 -->
<svg width="1222pt" height="501pt"
 viewBox="28.80 28.80 1193.41 472.28" xmlns="http://www.w3.org/2000/svg" xmlns:xlink="http://www.w3.org/1999/xlink">
<g id="graph0" class="graph" transform="scale(1 1) rotate(0) translate(32.8 468.2802)">
<title>mandlebrot</title>
<polygon fill="#ffffff" stroke="transparent" points="-4,4 -4,-439.4802 1160.6065,-439.4802 1160.6065,4 -4,4"/>
<text text-anchor="middle" x="578.3032" y="-420.2802" font-family="Times,serif" font-size="14.00" fill="#000000">mandlebrot</text>
<!-- /mandlebrot/args -->
<g id="node1" class="node">
<title>/mandlebrot/args</title>
<g id="a_node1"><a xlink:href="../../flowruntime/args/get.toml" xlink:title="args\n(Get)">
<ellipse fill="#ff7f50" stroke="#000000" cx="819.9815" cy="-298.6102" rx="37.4533" ry="26.7407"/>
<text text-anchor="middle" x="819.9815" y="-302.4102" font-family="Times,serif" font-size="14.00" fill="#000000">args</text>
<text text-anchor="middle" x="819.9815" y="-287.4102" font-family="Times,serif" font-size="14.00" fill="#000000">(Get)</text>
</a>
</g>
</g>
<!-- /mandlebrot/parse_bounds -->
<g id="node2" class="node">
<title>/mandlebrot/parse_bounds</title>
<g id="a_node2"><a xlink:href="../../samples/mandlebrot/src/parse_pair/parse_pair.toml" xlink:title="parse_bounds\n(ParsePair)">
<ellipse fill="#ff7f50" stroke="#000000" cx="632.9815" cy="-207.8701" rx="81.135" ry="26.7407"/>
<text text-anchor="middle" x="632.9815" y="-211.6701" font-family="Times,serif" font-size="14.00" fill="#000000">parse_bounds</text>
<text text-anchor="middle" x="632.9815" y="-196.6701" font-family="Times,serif" font-size="14.00" fill="#000000">(ParsePair)</text>
</a>
</g>
</g>
<!-- /mandlebrot/args&#45;&gt;/mandlebrot/parse_bounds -->
<g id="edge3" class="edge">
<title>/mandlebrot/args:e&#45;&gt;/mandlebrot/parse_bounds:nw</title>
<path fill="none" stroke="#000000" d="M857.9815,-298.6102C869.9238,-298.6102 865.7707,-280.7926 857.9815,-271.7401 824.7827,-233.1566 614.65,-265.8467 603.2306,-243.2939"/>
<polygon fill="#000000" stroke="#000000" points="606.5352,-244.4555 606.9815,-233.8701 600.0315,-241.8668 606.5352,-244.4555"/>
<text text-anchor="middle" x="722.6721" y="-255.2361" font-family="Times,serif" font-size="14.00" fill="#000000">[2]</text>
<text text-anchor="middle" x="587.9815" y="-237.6701" font-family="Times,serif" font-size="14.00" fill="#000000">input</text>
</g>
<!-- /mandlebrot/parse_upper_left -->
<g id="node7" class="node">
<title>/mandlebrot/parse_upper_left</title>
<g id="a_node7"><a xlink:href="../../samples/mandlebrot/src/parse_pair/parse_pair.toml" xlink:title="parse_upper_left\n(ParsePair)">
<ellipse fill="#ff7f50" stroke="#000000" cx="1051.9815" cy="-207.8701" rx="96.3333" ry="26.7407"/>
<text text-anchor="middle" x="1051.9815" y="-211.6701" font-family="Times,serif" font-size="14.00" fill="#000000">parse_upper_left</text>
<text text-anchor="middle" x="1051.9815" y="-196.6701" font-family="Times,serif" font-size="14.00" fill="#000000">(ParsePair)</text>
</a>
</g>
</g>
<!-- /mandlebrot/args&#45;&gt;/mandlebrot/parse_upper_left -->
<g id="edge6" class="edge">
<title>/mandlebrot/args:e&#45;&gt;/mandlebrot/parse_upper_left:nw</title>
<path fill="none" stroke="#000000" d="M857.9815,-298.6102C934.5621,-298.6102 966.6115,-291.138 1018.8214,-240.8988"/>
<polygon fill="#000000" stroke="#000000" points="1021.2971,-243.3731 1025.9815,-233.8701 1016.3934,-238.3777 1021.2971,-243.3731"/>
<text text-anchor="middle" x="939.7922" y="-291.6118" font-family="Times,serif" font-size="14.00" fill="#000000">[3]</text>
<text text-anchor="middle" x="1006.9815" y="-237.6701" font-family="Times,serif" font-size="14.00" fill="#000000">input</text>
</g>
<!-- /mandlebrot/parse_lower_right -->
<g id="node8" class="node">
<title>/mandlebrot/parse_lower_right</title>
<g id="a_node8"><a xlink:href="../../samples/mandlebrot/src/parse_pair/parse_pair.toml" xlink:title="parse_lower_right\n(ParsePair)">
<ellipse fill="#ff7f50" stroke="#000000" cx="834.9815" cy="-207.8701" rx="102.561" ry="26.7407"/>
<text text-anchor="middle" x="834.9815" y="-211.6701" font-family="Times,serif" font-size="14.00" fill="#000000">parse_lower_right</text>
<text text-anchor="middle" x="834.9815" y="-196.6701" font-family="Times,serif" font-size="14.00" fill="#000000">(ParsePair)</text>
</a>
</g>
</g>
<!-- /mandlebrot/args&#45;&gt;/mandlebrot/parse_lower_right -->
<g id="edge8" class="edge">
<title>/mandlebrot/args:e&#45;&gt;/mandlebrot/parse_lower_right:nw</title>
<path fill="none" stroke="#000000" d="M857.9815,-298.6102C869.9238,-298.6102 863.2449,-282.4599 857.9815,-271.7401 848.5045,-252.4382 812.0493,-252.0603 805.834,-243.5383"/>
<polygon fill="#000000" stroke="#000000" points="809.2139,-244.4623 808.9815,-233.8701 802.5577,-242.2953 809.2139,-244.4623"/>
<text text-anchor="middle" x="827.4242" y="-259.7689" font-family="Times,serif" font-size="14.00" fill="#000000">[4]</text>
<text text-anchor="middle" x="789.9815" y="-237.6701" font-family="Times,serif" font-size="14.00" fill="#000000">input</text>
</g>
<!-- /mandlebrot/render -->
<g id="node9" class="node">
<title>/mandlebrot/render</title>
<g id="a_node9"><a xlink:href="render.dot.svg" xlink:title="render">
<ellipse fill="#7fffd4" stroke="#000000" cx="937.9815" cy="-72" rx="72" ry="72"/>
<text text-anchor="middle" x="937.9815" y="-68.3" font-family="Times,serif" font-size="14.00" fill="#000000">render</text>
</a>
</g>
</g>
<!-- /mandlebrot/parse_bounds&#45;&gt;/mandlebrot/render -->
<g id="edge9" class="edge">
<title>/mandlebrot/parse_bounds:e&#45;&gt;/mandlebrot/render:n</title>
<path fill="none" stroke="#000000" d="M714.9815,-207.8701C727.4419,-207.8701 713.6627,-189.2715 722.9815,-181 756.4065,-151.3319 910.9227,-186.1208 934.8618,-153.7554"/>
<polygon fill="#000000" stroke="#000000" points="938.2692,-154.5909 937.9815,-144 931.6018,-152.4587 938.2692,-154.5909"/>
<text text-anchor="middle" x="911.9815" y="-147.8" font-family="Times,serif" font-size="14.00" fill="#000000">bounds</text>
</g>
<!-- /mandlebrot/bounds_separator -->
<g id="node3" class="node">
<title>/mandlebrot/bounds_separator</title>
<g id="a_node3"><a xlink:href="../../flowstdlib/data/buffer/buffer.toml" xlink:title="bounds_separator\n(Buffer)">
<ellipse fill="#ff7f50" stroke="#000000" cx="360.9815" cy="-298.6102" rx="101.6471" ry="26.7407"/>
<text text-anchor="middle" x="360.9815" y="-302.4102" font-family="Times,serif" font-size="14.00" fill="#000000">bounds_separator</text>
<text text-anchor="middle" x="360.9815" y="-287.4102" font-family="Times,serif" font-size="14.00" fill="#000000">(Buffer)</text>
</a>
</g>
</g>
<!-- /mandlebrot/bounds_separator&#45;&gt;/mandlebrot/parse_bounds -->
<g id="edge4" class="edge">
<title>/mandlebrot/bounds_separator:e&#45;&gt;/mandlebrot/parse_bounds:w</title>
<path fill="none" stroke="#000000" d="M462.9815,-298.6102C515.4301,-298.6102 497.6823,-219.5213 540.8079,-209.0173"/>
<polygon fill="#000000" stroke="#000000" points="541.4368,-212.4687 550.9815,-207.8701 540.6523,-205.5128 541.4368,-212.4687"/>
<text text-anchor="middle" x="515.9815" y="-211.6701" font-family="Times,serif" font-size="14.00" fill="#000000">separator</text>
</g>
<!-- initializer/mandlebrot/bounds_separator_0 -->
<!-- initializer/mandlebrot/bounds_separator_0&#45;&gt;/mandlebrot/bounds_separator -->
<g id="edge1" class="edge">
<title>initializer/mandlebrot/bounds_separator_0&#45;&gt;/mandlebrot/bounds_separator:w</title>
<path fill="none" stroke="#0000ff" d="M209.526,-376.4478C212.6487,-351.4971 221.9276,-308.5499 249.0736,-300.0837"/>
<polygon fill="#0000ff" stroke="#0000ff" points="249.6052,-303.5432 258.9815,-298.6102 248.5754,-296.6193 249.6052,-303.5432"/>
<text text-anchor="middle" x="227.9815" y="-347.2802" font-family="Times,serif" font-size="14.00" fill="#000000">&quot;x&quot;</text>
</g>
<!-- /mandlebrot/point_separator -->
<g id="node5" class="node">
<title>/mandlebrot/point_separator</title>
<g id="a_node5"><a xlink:href="../../flowstdlib/data/buffer/buffer.toml" xlink:title="point_separator\n(Buffer)">
<ellipse fill="#ff7f50" stroke="#000000" cx="672.9815" cy="-298.6102" rx="91.4341" ry="26.7407"/>
<text text-anchor="middle" x="672.9815" y="-302.4102" font-family="Times,serif" font-size="14.00" fill="#000000">point_separator</text>
<text text-anchor="middle" x="672.9815" y="-287.4102" font-family="Times,serif" font-size="14.00" fill="#000000">(Buffer)</text>
</a>
</g>
</g>
<!-- /mandlebrot/point_separator&#45;&gt;/mandlebrot/parse_upper_left -->
<g id="edge5" class="edge">
<title>/mandlebrot/point_separator:e&#45;&gt;/mandlebrot/parse_upper_left:w</title>
<path fill="none" stroke="#000000" d="M764.9815,-298.6102C777.5759,-298.6102 764.5894,-280.1309 773.9815,-271.7401 832.6176,-219.3557 889.2399,-288.1088 946.9815,-234.7401 952.0572,-230.0489 950.1297,-222.2946 949.5331,-216.3188"/>
<polygon fill="#000000" stroke="#000000" points="952.5033,-218.171 954.9815,-207.8701 946.6205,-214.3772 952.5033,-218.171"/>
<text text-anchor="middle" x="919.9815" y="-211.6701" font-family="Times,serif" font-size="14.00" fill="#000000">separator</text>
</g>
<!-- /mandlebrot/point_separator&#45;&gt;/mandlebrot/parse_lower_right -->
<g id="edge7" class="edge">
<title>/mandlebrot/point_separator:e&#45;&gt;/mandlebrot/parse_lower_right:w</title>
<path fill="none" stroke="#000000" d="M764.9815,-298.6102C776.9238,-298.6102 769.2349,-282.8992 764.9815,-271.7401 757.1336,-251.1503 739.8295,-255.3299 731.9815,-234.7401 729.6555,-228.6375 726.3019,-221.1735 725.6936,-215.6623"/>
<polygon fill="#000000" stroke="#000000" points="728.4254,-217.8503 731.9815,-207.8701 722.9779,-213.4544 728.4254,-217.8503"/>
<text text-anchor="middle" x="696.9815" y="-211.6701" font-family="Times,serif" font-size="14.00" fill="#000000">separator</text>
</g>
<!-- initializer/mandlebrot/point_separator_0 -->
<!-- initializer/mandlebrot/point_separator_0&#45;&gt;/mandlebrot/point_separator -->
<g id="edge2" class="edge">
<title>initializer/mandlebrot/point_separator_0&#45;&gt;/mandlebrot/point_separator:w</title>
<path fill="none" stroke="#0000ff" d="M614.3406,-376.4478C591.7319,-352.365 557.0204,-311.5158 570.9438,-301.09"/>
<polygon fill="#0000ff" stroke="#0000ff" points="572.1129,-304.4065 580.9815,-298.6102 570.4339,-297.6108 572.1129,-304.4065"/>
<text text-anchor="middle" x="606.4815" y="-347.2802" font-family="Times,serif" font-size="14.00" fill="#000000">&quot;,&quot;</text>
</g>
<!-- /mandlebrot/parse_upper_left&#45;&gt;/mandlebrot/render -->
<g id="edge10" class="edge">
<title>/mandlebrot/parse_upper_left:e&#45;&gt;/mandlebrot/render:n</title>
<path fill="none" stroke="#000000" d="M1148.9815,-207.8701C1160.9238,-207.8701 1156.6622,-190.1447 1148.9815,-181 1120.7568,-147.3952 965.2523,-184.7614 941.127,-153.5089"/>
<polygon fill="#000000" stroke="#000000" points="944.4451,-152.3948 937.9815,-144 937.7993,-154.5933 944.4451,-152.3948"/>
<text text-anchor="middle" x="974.4815" y="-147.8" font-family="Times,serif" font-size="14.00" fill="#000000">upper_left</text>
</g>
<!-- /mandlebrot/parse_lower_right&#45;&gt;/mandlebrot/render -->
<g id="edge11" class="edge">
<title>/mandlebrot/parse_lower_right:e&#45;&gt;/mandlebrot/render:n</title>
<path fill="none" stroke="#000000" d="M937.9815,-207.8701C949.7354,-207.8701 942.0219,-173.8022 939.0232,-154.0307"/>
<polygon fill="#000000" stroke="#000000" points="942.4958,-153.585 937.9815,-144 935.5333,-154.3081 942.4958,-153.585"/>
<text text-anchor="middle" x="896.9815" y="-147.8" font-family="Times,serif" font-size="14.00" fill="#000000">lower_right</text>
</g>
</g>
</svg>
