<?xml version="1.0" encoding="UTF-8" standalone="no"?>
<!DOCTYPE svg PUBLIC "-//W3C//DTD SVG 1.1//EN"
 "http://www.w3.org/Graphics/SVG/1.1/DTD/svg11.dtd">
<!-- Generated by graphviz version 2.44.1 (20200629.0846)
 -->
<!-- Title: mandlebrot Pages: 1 -->
<svg width="328pt" height="593pt"
 viewBox="28.80 28.80 298.80 563.80" xmlns="http://www.w3.org/2000/svg" xmlns:xlink="http://www.w3.org/1999/xlink">
<g id="graph0" class="graph" transform="scale(1 1) rotate(0) translate(32.8 559.8)">
<title>mandlebrot</title>
<polygon fill="white" stroke="transparent" points="-4,4 -4,-531 266,-531 266,4 -4,4"/>
<text text-anchor="middle" x="131" y="-511.8" font-family="Times,serif" font-size="14.00">mandlebrot</text>
<!-- /mandlebrot/parse_args -->
<g id="node1" class="node">
<title>/mandlebrot/parse_args</title>
<g id="a_node1"><a xlink:href="parse_args.dot.svg" xlink:title="parse_args">
<ellipse fill="aquamarine" stroke="black" cx="190" cy="-432" rx="72" ry="72"/>
<text text-anchor="middle" x="190" y="-428.3" font-family="Times,serif" font-size="14.00">parse_args</text>
</a>
</g>
</g>
<!-- /mandlebrot/generate_pixels -->
<g id="node2" class="node">
<title>/mandlebrot/generate_pixels</title>
<g id="a_node2"><a xlink:href="generate_pixels.dot.svg" xlink:title="generate_pixels">
<ellipse fill="aquamarine" stroke="black" cx="72" cy="-252" rx="72" ry="72"/>
<text text-anchor="middle" x="72" y="-248.3" font-family="Times,serif" font-size="14.00">generate_pixels</text>
</a>
</g>
</g>
<!-- /mandlebrot/parse_args&#45;&gt;/mandlebrot/generate_pixels -->
<g id="edge1" class="edge">
<title>/mandlebrot/parse_args:s&#45;&gt;/mandlebrot/generate_pixels:n</title>
<path fill="none" stroke="black" d="M190,-360C190,-309.24 88.87,-368.6 73.85,-334.19"/>
<polygon fill="black" stroke="black" points="77.23,-333.21 72,-324 70.35,-334.46 77.23,-333.21"/>
<text text-anchor="middle" x="120.17" y="-345.77" font-family="Times,serif" font-size="14.00">size</text>
<text text-anchor="middle" x="61" y="-327.8" font-family="Times,serif" font-size="14.00">size</text>
</g>
<!-- /mandlebrot/render -->
<g id="node3" class="node">
<title>/mandlebrot/render</title>
<g id="a_node3"><a xlink:href="render.dot.svg" xlink:title="render">
<ellipse fill="aquamarine" stroke="black" cx="190" cy="-72" rx="72" ry="72"/>
<text text-anchor="middle" x="190" y="-68.3" font-family="Times,serif" font-size="14.00">render</text>
</a>
</g>
</g>
<!-- /mandlebrot/parse_args&#45;&gt;/mandlebrot/render -->
<g id="edge2" class="edge">
<title>/mandlebrot/parse_args:s&#45;&gt;/mandlebrot/render:n</title>
<path fill="none" stroke="black" d="M190,-360C190,-267.47 190,-241.83 190,-154.13"/>
<polygon fill="black" stroke="black" points="193.5,-154 190,-144 186.5,-154 193.5,-154"/>
<text text-anchor="middle" x="214" y="-255.66" font-family="Times,serif" font-size="14.00">filename</text>
<text text-anchor="middle" x="166" y="-147.8" font-family="Times,serif" font-size="14.00">filename</text>
</g>
<!-- /mandlebrot/parse_args&#45;&gt;/mandlebrot/render -->
<g id="edge3" class="edge">
<title>/mandlebrot/parse_args:s&#45;&gt;/mandlebrot/render:n</title>
<path fill="none" stroke="black" d="M190,-360C181.33,-267.47 181.01,-241.83 189.06,-154.13"/>
<polygon fill="black" stroke="black" points="192.56,-154.28 190,-144 185.59,-153.63 192.56,-154.28"/>
<text text-anchor="middle" x="172.25" y="-255.66" font-family="Times,serif" font-size="14.00">size</text>
<text text-anchor="middle" x="201" y="-147.8" font-family="Times,serif" font-size="14.00">size</text>
</g>
<!-- /mandlebrot/parse_args&#45;&gt;/mandlebrot/render -->
<g id="edge4" class="edge">
<title>/mandlebrot/parse_args:s&#45;&gt;/mandlebrot/render:n</title>
<path fill="none" stroke="black" d="M190,-360C198.67,-267.47 198.99,-241.83 190.94,-154.13"/>
<polygon fill="black" stroke="black" points="194.41,-153.63 190,-144 187.44,-154.28 194.41,-153.63"/>
<text text-anchor="middle" x="176.75" y="-240.66" font-family="Times,serif" font-size="14.00">bounds</text>
<text text-anchor="middle" x="210" y="-147.8" font-family="Times,serif" font-size="14.00">bounds</text>
</g>
<!-- /mandlebrot/generate_pixels&#45;&gt;/mandlebrot/render -->
<g id="edge5" class="edge">
<title>/mandlebrot/generate_pixels:s&#45;&gt;/mandlebrot/render:n</title>
<path fill="none" stroke="black" d="M72,-180C72,-129.24 173.13,-188.6 188.15,-154.19"/>
<polygon fill="black" stroke="black" points="191.65,-154.46 190,-144 184.77,-153.21 191.65,-154.46"/>
<text text-anchor="middle" x="114.33" y="-165.77" font-family="Times,serif" font-size="14.00">pixels</text>
<text text-anchor="middle" x="176" y="-147.8" font-family="Times,serif" font-size="14.00">pixel</text>
</g>
</g>
</svg>
