<?xml version="1.0" encoding="UTF-8" standalone="no"?>
<!DOCTYPE svg PUBLIC "-//W3C//DTD SVG 1.1//EN"
 "http://www.w3.org/Graphics/SVG/1.1/DTD/svg11.dtd">
<!-- Generated by graphviz version 2.40.1 (20161225.0304)
 -->
<!-- Title: mandlebrot Pages: 1 -->
<svg width="3023pt" height="1355pt"
 viewBox="0.00 0.00 3023.00 1355.00" xmlns="http://www.w3.org/2000/svg" xmlns:xlink="http://www.w3.org/1999/xlink">
<g id="graph0" class="graph" transform="scale(1 1) rotate(0) translate(4 1351)">
<title>mandlebrot</title>
<polygon fill="#ffffff" stroke="transparent" points="-4,4 -4,-1351 3019,-1351 3019,4 -4,4"/>
<text text-anchor="middle" x="1507.5" y="-1331.8" font-family="Times,serif" font-size="14.00" fill="#000000">/mandlebrot</text>
<g id="clust1" class="cluster">
<title>cluster_parse_args</title>
<polygon fill="none" stroke="#000000" points="101,-508 101,-1316 2349,-1316 2349,-508 101,-508"/>
<text text-anchor="middle" x="1225" y="-1300.8" font-family="Times,serif" font-size="14.00" fill="#000000">/mandlebrot/parse_args</text>
</g>
<g id="clust2" class="cluster">
<title>cluster_generate_pixels</title>
<polygon fill="none" stroke="#000000" points="2357,-213 2357,-1097 2941,-1097 2941,-213 2357,-213"/>
<text text-anchor="middle" x="2649" y="-1081.8" font-family="Times,serif" font-size="14.00" fill="#000000">/mandlebrot/generate_pixels</text>
</g>
<g id="clust3" class="cluster">
<title>cluster_y_sequence</title>
<polygon fill="none" stroke="#000000" points="2525,-435 2525,-1066 2933,-1066 2933,-435 2525,-435"/>
<text text-anchor="middle" x="2729" y="-1050.8" font-family="Times,serif" font-size="14.00" fill="#000000">/mandlebrot/generate_pixels/y&#45;sequence</text>
</g>
<g id="clust4" class="cluster">
<title>cluster_render</title>
<polygon fill="none" stroke="#000000" points="2379,-8 2379,-194 2597,-194 2597,-8 2379,-8"/>
<text text-anchor="middle" x="2488" y="-178.8" font-family="Times,serif" font-size="14.00" fill="#000000">/mandlebrot/render</text>
</g>
<!-- r16 -->
<g id="node1" class="node">
<title>r16</title>
<g id="a_node1"><a xlink:href="file:///home/travis/build/andrewdavidmackenzie/flow/flowr/src/lib/flowruntime/args/get.html" xlink:title="args (#16)">
<ellipse fill="#ff7f50" stroke="#000000" cx="612" cy="-1267" rx="60.3893" ry="18"/>
<text text-anchor="middle" x="612" y="-1263.3" font-family="Times,serif" font-size="14.00" fill="#000000">args (#16)</text>
</a>
</g>
</g>
<!-- r21 -->
<g id="node2" class="node">
<title>r21</title>
<g id="a_node2"><a xlink:href="file:///home/travis/build/andrewdavidmackenzie/flow/flowstdlib/data/buffer/buffer.html" xlink:title="filename_buffer (#21)">
<ellipse fill="#ff7f50" stroke="#000000" cx="222" cy="-1142" rx="113.18" ry="18"/>
<text text-anchor="middle" x="222" y="-1138.3" font-family="Times,serif" font-size="14.00" fill="#000000">filename_buffer (#21)</text>
</a>
</g>
</g>
<!-- r16&#45;&gt;r21 -->
<g id="edge1" class="edge">
<title>r16:s&#45;&gt;r21:n</title>
<path fill="none" stroke="#000000" d="M612,-1249C612,-1206.2957 468.6156,-1206.5812 427,-1197 385.4129,-1187.4253 246.282,-1203.4005 224.7967,-1169.6875"/>
<polygon fill="#000000" stroke="#000000" points="228.1364,-1168.6369 222,-1160 221.411,-1170.5785 228.1364,-1168.6369"/>
<text text-anchor="middle" x="581.5" y="-1237.8" font-family="Times,serif" font-size="14.00" fill="#000000">/string/1</text>
</g>
<!-- r6 -->
<g id="node3" class="node">
<title>r6</title>
<g id="a_node3"><a xlink:href="file:///home/travis/build/andrewdavidmackenzie/flow/flowstdlib/data/ordered_split/ordered_split.html" xlink:title="split_size (#6)">
<ellipse fill="#ff7f50" stroke="#000000" cx="1426" cy="-1142" rx="77.1866" ry="18"/>
<text text-anchor="middle" x="1426" y="-1138.3" font-family="Times,serif" font-size="14.00" fill="#000000">split_size (#6)</text>
</a>
</g>
</g>
<!-- r16&#45;&gt;r6 -->
<g id="edge2" class="edge">
<title>r16:se&#45;&gt;r6:n</title>
<path fill="none" stroke="#000000" d="M629,-1250C651.7894,-1227.2106 732.5127,-1203.875 764,-1197 780.7109,-1193.3513 1337.3603,-1180.4524 1416.6414,-1163.879"/>
<polygon fill="#000000" stroke="#000000" points="1418.1022,-1167.0623 1426,-1160 1415.4219,-1160.5958 1418.1022,-1167.0623"/>
<text text-anchor="middle" x="1404.5" y="-1163.8" font-family="Times,serif" font-size="14.00" fill="#000000">string</text>
<text text-anchor="middle" x="659.5" y="-1238.8" font-family="Times,serif" font-size="14.00" fill="#000000">/string/2</text>
</g>
<!-- r9 -->
<g id="node4" class="node">
<title>r9</title>
<g id="a_node4"><a xlink:href="file:///home/travis/build/andrewdavidmackenzie/flow/flowstdlib/data/ordered_split/ordered_split.html" xlink:title="split_upper_left (#9)">
<ellipse fill="#ff7f50" stroke="#000000" cx="900" cy="-1142" rx="107.4815" ry="18"/>
<text text-anchor="middle" x="900" y="-1138.3" font-family="Times,serif" font-size="14.00" fill="#000000">split_upper_left (#9)</text>
</a>
</g>
</g>
<!-- r16&#45;&gt;r9 -->
<g id="edge3" class="edge">
<title>r16:e&#45;&gt;r9:n</title>
<path fill="none" stroke="#000000" d="M673,-1267C690.4921,-1267 691.8257,-1255.6608 708,-1249 791.5722,-1214.5838 891.822,-1250.9794 899.5265,-1170.4171"/>
<polygon fill="#000000" stroke="#000000" points="903.0423,-1170.1486 900,-1160 896.0495,-1169.8307 903.0423,-1170.1486"/>
<text text-anchor="middle" x="878.5" y="-1163.8" font-family="Times,serif" font-size="14.00" fill="#000000">string</text>
<text text-anchor="middle" x="703.5" y="-1270.8" font-family="Times,serif" font-size="14.00" fill="#000000">/string/3</text>
</g>
<!-- r13 -->
<g id="node5" class="node">
<title>r13</title>
<g id="a_node5"><a xlink:href="file:///home/travis/build/andrewdavidmackenzie/flow/flowstdlib/data/ordered_split/ordered_split.html" xlink:title="split_lower_right (#13)">
<ellipse fill="#ff7f50" stroke="#000000" cx="544" cy="-1142" rx="118.8789" ry="18"/>
<text text-anchor="middle" x="544" y="-1138.3" font-family="Times,serif" font-size="14.00" fill="#000000">split_lower_right (#13)</text>
</a>
</g>
</g>
<!-- r16&#45;&gt;r13 -->
<g id="edge4" class="edge">
<title>r16:se&#45;&gt;r13:n</title>
<path fill="none" stroke="#000000" d="M629,-1250C665.3972,-1213.6028 559.2958,-1214.6917 545.4674,-1169.9312"/>
<polygon fill="#000000" stroke="#000000" points="548.9242,-1169.381 544,-1160 541.9994,-1170.4042 548.9242,-1169.381"/>
<text text-anchor="middle" x="522.5" y="-1163.8" font-family="Times,serif" font-size="14.00" fill="#000000">string</text>
<text text-anchor="middle" x="659.5" y="-1253.8" font-family="Times,serif" font-size="14.00" fill="#000000">/string/4</text>
</g>
<!-- r21&#45;&gt;r21 -->
<g id="edge54" class="edge">
<title>r21:e&#45;&gt;r21:n</title>
<path fill="none" stroke="#000000" d="M335,-1142C359.09,-1133 407.09,-1133 407.09,-1151 407.09,-1168.0508 296.3676,-1168.9499 232.2482,-1161.3474"/>
<polygon fill="#000000" stroke="#000000" points="232.371,-1157.8335 222,-1160 231.4584,-1164.7738 232.371,-1157.8335"/>
</g>
<!-- r20 -->
<g id="node38" class="node">
<title>r20</title>
<g id="a_node38"><a xlink:href="file:///home/travis/build/andrewdavidmackenzie/flow/flowr/src/lib/flowruntime/image/image_buffer.html" xlink:title="image_buffer (#20)">
<ellipse fill="#ff7f50" stroke="#000000" cx="2488" cy="-34" rx="101.2821" ry="18"/>
<text text-anchor="middle" x="2488" y="-30.3" font-family="Times,serif" font-size="14.00" fill="#000000">image_buffer (#20)</text>
</a>
</g>
</g>
<!-- r21&#45;&gt;r20 -->
<g id="edge55" class="edge">
<title>r21:e&#45;&gt;r20:w</title>
<path fill="none" stroke="#000000" d="M335,-1142C343,-1142 339.7184,-1130.4604 335,-1124 242.8139,-997.7813 0,-1173.2992 0,-1017 0,-1017 0,-1017 0,-89.5 0,-57.4042 2205.8713,-35.4297 2375.9832,-34.0672"/>
<polygon fill="#000000" stroke="#000000" points="2376.0237,-37.5671 2386,-34 2375.9767,-30.5672 2376.0237,-37.5671"/>
<text text-anchor="middle" x="2355" y="-37.8" font-family="Times,serif" font-size="14.00" fill="#000000">filename</text>
</g>
<!-- r14 -->
<g id="node7" class="node">
<title>r14</title>
<g id="a_node7"><a xlink:href="file:///home/travis/build/andrewdavidmackenzie/flow/flowstdlib/fmt/to_json/to_json.html" xlink:title="size_to_json (#14)">
<ellipse fill="#ff7f50" stroke="#000000" cx="1773" cy="-944" rx="96.3833" ry="18"/>
<text text-anchor="middle" x="1773" y="-940.3" font-family="Times,serif" font-size="14.00" fill="#000000">size_to_json (#14)</text>
</a>
</g>
</g>
<!-- r6&#45;&gt;r14 -->
<g id="edge6" class="edge">
<title>r6:e&#45;&gt;r14:n</title>
<path fill="none" stroke="#000000" d="M1504,-1142C1644.3404,-1142 1766.8781,-1107.5959 1772.7778,-972.3445"/>
<polygon fill="#000000" stroke="#000000" points="1776.2843,-972.0729 1773,-962 1769.2859,-971.9225 1776.2843,-972.0729"/>
</g>
<!-- r11 -->
<g id="node16" class="node">
<title>r11</title>
<g id="a_node16"><a xlink:href="file:///home/travis/build/andrewdavidmackenzie/flow/flowstdlib/fmt/to_json/to_json.html" xlink:title="upper_left_to_json (#11)">
<ellipse fill="#ff7f50" stroke="#000000" cx="1007" cy="-944" rx="126.1777" ry="18"/>
<text text-anchor="middle" x="1007" y="-940.3" font-family="Times,serif" font-size="14.00" fill="#000000">upper_left_to_json (#11)</text>
</a>
</g>
</g>
<!-- r9&#45;&gt;r11 -->
<g id="edge16" class="edge">
<title>r9:e&#45;&gt;r11:n</title>
<path fill="none" stroke="#000000" d="M1007,-1142C1083.5625,-1142 1013.5796,-1050.4091 1007.4241,-972.4138"/>
<polygon fill="#000000" stroke="#000000" points="1010.9041,-971.8493 1007,-962 1003.9099,-972.1342 1010.9041,-971.8493"/>
</g>
<!-- r7 -->
<g id="node19" class="node">
<title>r7</title>
<g id="a_node19"><a xlink:href="file:///home/travis/build/andrewdavidmackenzie/flow/flowstdlib/fmt/to_json/to_json.html" xlink:title="lower_right_to_json (#7)">
<ellipse fill="#ff7f50" stroke="#000000" cx="459" cy="-944" rx="126.1777" ry="18"/>
<text text-anchor="middle" x="459" y="-940.3" font-family="Times,serif" font-size="14.00" fill="#000000">lower_right_to_json (#7)</text>
</a>
</g>
</g>
<!-- r13&#45;&gt;r7 -->
<g id="edge19" class="edge">
<title>r13:e&#45;&gt;r7:n</title>
<path fill="none" stroke="#000000" d="M663,-1142C671,-1142 666.4785,-1131.2042 663,-1124 614.1829,-1022.896 468.2089,-1074.4123 459.4153,-972.0464"/>
<polygon fill="#000000" stroke="#000000" points="462.9102,-971.8469 459,-962 455.9162,-972.1361 462.9102,-971.8469"/>
</g>
<!-- initializerr6_1 -->
<!-- initializerr6_1&#45;&gt;r6 -->
<g id="edge5" class="edge">
<title>initializerr6_1&#45;&gt;r6:w</title>
<path fill="none" stroke="#0000ff" d="M1340.692,-1248.8239C1328.8853,-1217.2702 1309.6589,-1154.6628 1338.1234,-1143.6678"/>
<polygon fill="#0000ff" stroke="#0000ff" points="1338.7224,-1147.1163 1348,-1142 1337.5568,-1140.214 1338.7224,-1147.1163"/>
<text text-anchor="middle" x="1339" y="-1200.8" font-family="Times,serif" font-size="14.00" fill="#000000">&quot;x&quot;</text>
</g>
<!-- r15 -->
<g id="node8" class="node">
<title>r15</title>
<g id="a_node8"><a xlink:href="file:///home/travis/build/andrewdavidmackenzie/flow/flowstdlib/data/accumulate/accumulate.html" xlink:title="accumulate_size (#15)">
<ellipse fill="#ff7f50" stroke="#000000" cx="2023" cy="-805" rx="116.9792" ry="18"/>
<text text-anchor="middle" x="2023" y="-801.3" font-family="Times,serif" font-size="14.00" fill="#000000">accumulate_size (#15)</text>
</a>
</g>
</g>
<!-- r14&#45;&gt;r15 -->
<g id="edge7" class="edge">
<title>r14:e&#45;&gt;r15:n</title>
<path fill="none" stroke="#000000" d="M1870,-944C1874.6988,-944 1986.3063,-857.081 2015.8691,-830.4596"/>
<polygon fill="#000000" stroke="#000000" points="2018.62,-832.6471 2023,-823 2013.56,-827.8101 2018.62,-832.6471"/>
<text text-anchor="middle" x="2000" y="-826.8" font-family="Times,serif" font-size="14.00" fill="#000000">values</text>
</g>
<!-- r15&#45;&gt;r15 -->
<g id="edge10" class="edge">
<title>r15:e&#45;&gt;r15:ne</title>
<path fill="none" stroke="#000000" d="M2140,-805C2163.9896,-796 2211.9896,-796 2211.9896,-814 2211.9896,-831.0859 2114.6861,-831.9536 2050.9252,-824.3003"/>
<polygon fill="#000000" stroke="#000000" points="2051.3699,-820.8287 2041,-823 2050.4606,-827.7694 2051.3699,-820.8287"/>
<text text-anchor="middle" x="2065" y="-826.8" font-family="Times,serif" font-size="14.00" fill="#000000">partial</text>
<text text-anchor="middle" x="2166" y="-808.8" font-family="Times,serif" font-size="14.00" fill="#000000">/partial</text>
</g>
<!-- r0 -->
<g id="node11" class="node">
<title>r0</title>
<g id="a_node11"><a xlink:href="file:///home/travis/build/andrewdavidmackenzie/flow/flowstdlib/math/subtract/subtract.html" xlink:title="height (#0)">
<ellipse fill="#ff7f50" stroke="#000000" cx="2019" cy="-659" rx="63.8893" ry="18"/>
<text text-anchor="middle" x="2019" y="-655.3" font-family="Times,serif" font-size="14.00" fill="#000000">height (#0)</text>
</a>
</g>
</g>
<!-- r15&#45;&gt;r0 -->
<g id="edge11" class="edge">
<title>r15:sw&#45;&gt;r0:n</title>
<path fill="none" stroke="#000000" d="M2005,-787C1991.6482,-773.6482 1962.1535,-786.2498 1967,-768 1978.022,-726.4959 2012.9146,-723.7661 2018.2993,-687.0979"/>
<polygon fill="#000000" stroke="#000000" points="2021.7992,-687.2183 2019,-677 2014.816,-686.7337 2021.7992,-687.2183"/>
<text text-anchor="middle" x="2012" y="-680.8" font-family="Times,serif" font-size="14.00" fill="#000000">i1</text>
<text text-anchor="middle" x="1973.5" y="-775.8" font-family="Times,serif" font-size="14.00" fill="#000000">/chunk/1</text>
</g>
<!-- r3 -->
<g id="node12" class="node">
<title>r3</title>
<g id="a_node12"><a xlink:href="file:///home/travis/build/andrewdavidmackenzie/flow/flowstdlib/control/join/join.html" xlink:title="width&#45;gate (#3)">
<ellipse fill="#ff7f50" stroke="#000000" cx="2239" cy="-659" rx="83.6854" ry="18"/>
<text text-anchor="middle" x="2239" y="-655.3" font-family="Times,serif" font-size="14.00" fill="#000000">width&#45;gate (#3)</text>
</a>
</g>
</g>
<!-- r15&#45;&gt;r3 -->
<g id="edge12" class="edge">
<title>r15:s&#45;&gt;r3:n</title>
<path fill="none" stroke="#000000" d="M2023,-787C2023,-760.857 2055.0911,-779.5745 2079,-769 2150.7953,-737.2463 2231.7153,-757.1383 2238.5368,-687.0039"/>
<polygon fill="#000000" stroke="#000000" points="2242.0337,-687.1512 2239,-677 2235.0412,-686.8274 2242.0337,-687.1512"/>
<text text-anchor="middle" x="2223" y="-680.8" font-family="Times,serif" font-size="14.00" fill="#000000">data</text>
<text text-anchor="middle" x="2054.5" y="-775.8" font-family="Times,serif" font-size="14.00" fill="#000000">/chunk/0</text>
</g>
<!-- r17 -->
<g id="node13" class="node">
<title>r17</title>
<g id="a_node13"><a xlink:href="file:///home/travis/build/andrewdavidmackenzie/flow/flowstdlib/data/buffer/buffer.html" xlink:title="buffer_size (#17)">
<ellipse fill="#ff7f50" stroke="#000000" cx="1502" cy="-659" rx="90.9839" ry="18"/>
<text text-anchor="middle" x="1502" y="-655.3" font-family="Times,serif" font-size="14.00" fill="#000000">buffer_size (#17)</text>
</a>
</g>
</g>
<!-- r15&#45;&gt;r17 -->
<g id="edge13" class="edge">
<title>r15:s&#45;&gt;r17:n</title>
<path fill="none" stroke="#000000" d="M2023,-787C2023,-731.0705 1557.4262,-735.4558 1506.5041,-686.1233"/>
<polygon fill="#000000" stroke="#000000" points="1509.5653,-684.4174 1502,-677 1503.2885,-687.5162 1509.5653,-684.4174"/>
<text text-anchor="middle" x="1998.5" y="-775.8" font-family="Times,serif" font-size="14.00" fill="#000000">/chunk</text>
</g>
<!-- r22 -->
<g id="node14" class="node">
<title>r22</title>
<g id="a_node14"><a xlink:href="file:///home/travis/build/andrewdavidmackenzie/flow/flowstdlib/data/buffer/buffer.html" xlink:title="size_buffer (#22)">
<ellipse fill="#ff7f50" stroke="#000000" cx="1774" cy="-659" rx="90.9839" ry="18"/>
<text text-anchor="middle" x="1774" y="-655.3" font-family="Times,serif" font-size="14.00" fill="#000000">size_buffer (#22)</text>
</a>
</g>
</g>
<!-- r15&#45;&gt;r22 -->
<g id="edge14" class="edge">
<title>r15:s&#45;&gt;r22:n</title>
<path fill="none" stroke="#000000" d="M2023,-787C2023,-745.3359 2036.1116,-722.7123 2005,-695 1987.9162,-679.7828 1818.7668,-697.7279 1781.3163,-683.8442"/>
<polygon fill="#000000" stroke="#000000" points="1783.6939,-681.2755 1774,-677 1778.9118,-686.3875 1783.6939,-681.2755"/>
<text text-anchor="middle" x="1998.5" y="-790.8" font-family="Times,serif" font-size="14.00" fill="#000000">/chunk</text>
</g>
<!-- initializerr15_1 -->
<!-- initializerr15_1&#45;&gt;r15 -->
<g id="edge8" class="edge">
<title>initializerr15_1&#45;&gt;r15:n</title>
<path fill="none" stroke="#0000ff" stroke-dasharray="1,5" d="M2223.4129,-927.7589C2166.4978,-901.5543 2058.4916,-850.8106 2030.0225,-830.2694"/>
<polygon fill="#0000ff" stroke="#0000ff" points="2032.4652,-827.7604 2023,-823 2027.4306,-832.624 2032.4652,-827.7604"/>
<text text-anchor="middle" x="2142.5" y="-877.8" font-family="Times,serif" font-size="14.00" fill="#000000">[]</text>
</g>
<!-- initializerr15_2 -->
<!-- initializerr15_2&#45;&gt;r15 -->
<g id="edge9" class="edge">
<title>initializerr15_2&#45;&gt;r15:n</title>
<path fill="none" stroke="#0000ff" d="M2023,-925.96C2023,-904.5319 2023,-867.4021 2023,-833.4232"/>
<polygon fill="#0000ff" stroke="#0000ff" points="2026.5001,-833 2023,-823 2019.5001,-833 2026.5001,-833"/>
<text text-anchor="middle" x="2028" y="-877.8" font-family="Times,serif" font-size="14.00" fill="#000000">2</text>
</g>
<!-- r1 -->
<g id="node30" class="node">
<title>r1</title>
<g id="a_node30"><a xlink:href="file:///home/travis/build/andrewdavidmackenzie/flow/flowstdlib/control/compare_switch/compare_switch.html" xlink:title="compare (#1)">
<ellipse fill="#ff7f50" stroke="#000000" cx="2608" cy="-732" rx="74.9875" ry="18"/>
<text text-anchor="middle" x="2608" y="-728.3" font-family="Times,serif" font-size="14.00" fill="#000000">compare (#1)</text>
</a>
</g>
</g>
<!-- r0&#45;&gt;r1 -->
<g id="edge34" class="edge">
<title>r0:se&#45;&gt;r1:n</title>
<path fill="none" stroke="#000000" d="M2037,-641C2051.3603,-626.6397 2063.8632,-633.3956 2082.6943,-641 2104.0595,-649.6277 2098.8527,-667.8515 2120,-677 2148.7555,-689.4399 2661.6864,-690.8001 2682.7434,-714 2682.7434,-714 2637.1236,-735.9727 2617.165,-745.5857"/>
<polygon fill="#000000" stroke="#000000" points="2615.4906,-742.5073 2608,-750 2618.5282,-748.8139 2615.4906,-742.5073"/>
<text text-anchor="middle" x="2595.5" y="-753.8" font-family="Times,serif" font-size="14.00" fill="#000000">left</text>
<text text-anchor="middle" x="2022.5" y="-629.8" font-family="Times,serif" font-size="14.00" fill="#000000">/diff</text>
</g>
<!-- r3&#45;&gt;r3 -->
<g id="edge43" class="edge">
<title>r3:e&#45;&gt;r3:n</title>
<path fill="none" stroke="#000000" d="M2323,-659C2346.8426,-650 2394.8426,-650 2394.8426,-668 2394.8426,-684.9102 2303.1477,-685.934 2248.9725,-678.5338"/>
<polygon fill="#000000" stroke="#000000" points="2249.4159,-675.0609 2239,-677 2248.3517,-681.9796 2249.4159,-675.0609"/>
<text text-anchor="middle" x="2255" y="-680.8" font-family="Times,serif" font-size="14.00" fill="#000000">data</text>
</g>
<!-- r4 -->
<g id="node32" class="node">
<title>r4</title>
<g id="a_node32"><a xlink:href="file:///home/travis/build/andrewdavidmackenzie/flow/flowstdlib/data/duplicate/duplicate.html" xlink:title="y&#45;duplicator (#4)">
<ellipse fill="#ff7f50" stroke="#000000" cx="2623" cy="-461" rx="90.1842" ry="18"/>
<text text-anchor="middle" x="2623" y="-457.3" font-family="Times,serif" font-size="14.00" fill="#000000">y&#45;duplicator (#4)</text>
</a>
</g>
</g>
<!-- r3&#45;&gt;r4 -->
<g id="edge44" class="edge">
<title>r3:e&#45;&gt;r4:ne</title>
<path fill="none" stroke="#000000" d="M2323,-659C2465.6196,-659 2472.9382,-561.7738 2600,-497 2610.8043,-491.4922 2628.8912,-491.2384 2638.1887,-488.6963"/>
<polygon fill="#000000" stroke="#000000" points="2641.5768,-489.5791 2641,-479 2634.8537,-487.6298 2641.5768,-489.5791"/>
<text text-anchor="middle" x="2619.5" y="-482.8" font-family="Times,serif" font-size="14.00" fill="#000000">factor</text>
</g>
<!-- r17&#45;&gt;r17 -->
<g id="edge50" class="edge">
<title>r17:e&#45;&gt;r17:n</title>
<path fill="none" stroke="#000000" d="M1593,-659C1616.9919,-650 1664.9919,-650 1664.9919,-668 1664.9919,-684.9453 1568.6913,-685.9382 1512.0771,-678.4875"/>
<polygon fill="#000000" stroke="#000000" points="1512.4039,-674.9979 1502,-677 1511.3817,-681.9229 1512.4039,-674.9979"/>
</g>
<!-- r18 -->
<g id="node36" class="node">
<title>r18</title>
<g id="a_node36"><a xlink:href="file:///home/travis/build/andrewdavidmackenzie/flow/samples/mandlebrot/pixel_to_point/pixel_to_point.html" xlink:title="p2p (#18)">
<ellipse fill="#ff7f50" stroke="#000000" cx="2423" cy="-239" rx="57.6901" ry="18"/>
<text text-anchor="middle" x="2423" y="-235.3" font-family="Times,serif" font-size="14.00" fill="#000000">p2p (#18)</text>
</a>
</g>
</g>
<!-- r17&#45;&gt;r18 -->
<g id="edge51" class="edge">
<title>r17:e&#45;&gt;r18:nw</title>
<path fill="none" stroke="#000000" d="M1593,-659C1618.2982,-659 1622.777,-648.2968 1647,-641 1719.7255,-619.0925 1812,-672.4535 1812,-596.5 1812,-596.5 1812,-596.5 1812,-294.5 1812,-165.5816 2287.3744,-340.2281 2398.1032,-262.5913"/>
<polygon fill="#000000" stroke="#000000" points="2400.5656,-265.095 2406,-256 2396.0801,-259.721 2400.5656,-265.095"/>
<text text-anchor="middle" x="2392" y="-259.8" font-family="Times,serif" font-size="14.00" fill="#000000">size</text>
</g>
<!-- r22&#45;&gt;r22 -->
<g id="edge56" class="edge">
<title>r22:e&#45;&gt;r22:n</title>
<path fill="none" stroke="#000000" d="M1865,-659C1888.9919,-650 1936.9919,-650 1936.9919,-668 1936.9919,-684.9453 1840.6913,-685.9382 1784.0771,-678.4875"/>
<polygon fill="#000000" stroke="#000000" points="1784.4039,-674.9979 1774,-677 1783.3817,-681.9229 1784.4039,-674.9979"/>
</g>
<!-- r22&#45;&gt;r20 -->
<g id="edge57" class="edge">
<title>r22:e&#45;&gt;r20:nw</title>
<path fill="none" stroke="#000000" d="M1865,-659C1890.2982,-659 1894.4192,-646.9822 1919,-641 2144.5581,-586.1061 2740.0447,-575.8898 2951,-479 2984.9507,-463.4067 3015,-461.8604 3015,-424.5 3015,-424.5 3015,-424.5 3015,-89.5 3015,-34.4918 2532.1473,-83.6377 2473.5579,-61.3907"/>
<polygon fill="#000000" stroke="#000000" points="2476.816,-60.1113 2470,-52 2470.2701,-62.5914 2476.816,-60.1113"/>
<text text-anchor="middle" x="2456" y="-55.8" font-family="Times,serif" font-size="14.00" fill="#000000">size</text>
</g>
<!-- initializerr9_1 -->
<!-- initializerr9_1&#45;&gt;r9 -->
<g id="edge15" class="edge">
<title>initializerr9_1&#45;&gt;r9:w</title>
<path fill="none" stroke="#0000ff" d="M808.7572,-1249.0905C789.9765,-1217.7673 756.738,-1155.2651 782.894,-1143.8213"/>
<polygon fill="#0000ff" stroke="#0000ff" points="783.7793,-1147.2182 793,-1142 782.5377,-1140.3292 783.7793,-1147.2182"/>
<text text-anchor="middle" x="797.5" y="-1200.8" font-family="Times,serif" font-size="14.00" fill="#000000">&quot;,&quot;</text>
</g>
<!-- r12 -->
<g id="node17" class="node">
<title>r12</title>
<g id="a_node17"><a xlink:href="file:///home/travis/build/andrewdavidmackenzie/flow/flowstdlib/data/accumulate/accumulate.html" xlink:title="accumulate_upper_left (#12)">
<ellipse fill="#ff7f50" stroke="#000000" cx="1209" cy="-805" rx="146.774" ry="18"/>
<text text-anchor="middle" x="1209" y="-801.3" font-family="Times,serif" font-size="14.00" fill="#000000">accumulate_upper_left (#12)</text>
</a>
</g>
</g>
<!-- r11&#45;&gt;r12 -->
<g id="edge17" class="edge">
<title>r11:e&#45;&gt;r12:n</title>
<path fill="none" stroke="#000000" d="M1133,-944C1185.9784,-944 1161.9142,-883.8997 1193,-841 1196.5328,-836.1246 1201.1537,-834.4254 1204.5208,-831.9668"/>
<polygon fill="#000000" stroke="#000000" points="1207.6622,-833.51 1209,-823 1201.4001,-830.3818 1207.6622,-833.51"/>
<text text-anchor="middle" x="1186" y="-826.8" font-family="Times,serif" font-size="14.00" fill="#000000">values</text>
</g>
<!-- r12&#45;&gt;r12 -->
<g id="edge23" class="edge">
<title>r12:e&#45;&gt;r12:ne</title>
<path fill="none" stroke="#000000" d="M1356,-805C1379.887,-796 1427.887,-796 1427.887,-814 1427.887,-831.1914 1311.1974,-831.9637 1237.149,-824.1576"/>
<polygon fill="#000000" stroke="#000000" points="1237.3322,-820.6559 1227,-823 1236.5389,-827.6108 1237.3322,-820.6559"/>
<text text-anchor="middle" x="1251" y="-826.8" font-family="Times,serif" font-size="14.00" fill="#000000">partial</text>
<text text-anchor="middle" x="1382" y="-808.8" font-family="Times,serif" font-size="14.00" fill="#000000">/partial</text>
</g>
<!-- r10 -->
<g id="node23" class="node">
<title>r10</title>
<g id="a_node23"><a xlink:href="file:///home/travis/build/andrewdavidmackenzie/flow/flowstdlib/data/accumulate/accumulate.html" xlink:title="accumulate_bounds (#10)">
<ellipse fill="#ff7f50" stroke="#000000" cx="733" cy="-659" rx="132.6765" ry="18"/>
<text text-anchor="middle" x="733" y="-655.3" font-family="Times,serif" font-size="14.00" fill="#000000">accumulate_bounds (#10)</text>
</a>
</g>
</g>
<!-- r12&#45;&gt;r10 -->
<g id="edge24" class="edge">
<title>r12:s&#45;&gt;r10:n</title>
<path fill="none" stroke="#000000" d="M1209,-787C1209,-735.8979 787.147,-731.6323 737.7111,-686.0188"/>
<polygon fill="#000000" stroke="#000000" points="740.7323,-684.243 733,-677 734.5278,-687.4841 740.7323,-684.243"/>
<text text-anchor="middle" x="710" y="-680.8" font-family="Times,serif" font-size="14.00" fill="#000000">values</text>
<text text-anchor="middle" x="1184.5" y="-775.8" font-family="Times,serif" font-size="14.00" fill="#000000">/chunk</text>
</g>
<!-- initializerr13_1 -->
<!-- initializerr13_1&#45;&gt;r13 -->
<g id="edge18" class="edge">
<title>initializerr13_1&#45;&gt;r13:w</title>
<path fill="none" stroke="#0000ff" d="M394.4495,-1248.8239C389.1635,-1217.1348 382.9867,-1154.1249 414.943,-1143.5291"/>
<polygon fill="#0000ff" stroke="#0000ff" points="415.6397,-1146.9635 425,-1142 414.5875,-1140.043 415.6397,-1146.9635"/>
<text text-anchor="middle" x="399.5" y="-1200.8" font-family="Times,serif" font-size="14.00" fill="#000000">&quot;,&quot;</text>
</g>
<!-- r8 -->
<g id="node20" class="node">
<title>r8</title>
<g id="a_node20"><a xlink:href="file:///home/travis/build/andrewdavidmackenzie/flow/flowstdlib/data/accumulate/accumulate.html" xlink:title="accumulate_lower_right (#8)">
<ellipse fill="#ff7f50" stroke="#000000" cx="733" cy="-805" rx="146.774" ry="18"/>
<text text-anchor="middle" x="733" y="-801.3" font-family="Times,serif" font-size="14.00" fill="#000000">accumulate_lower_right (#8)</text>
</a>
</g>
</g>
<!-- r7&#45;&gt;r8 -->
<g id="edge20" class="edge">
<title>r7:e&#45;&gt;r8:n</title>
<path fill="none" stroke="#000000" d="M585,-944C589.6049,-944 697.5213,-856.9996 726.1053,-830.4272"/>
<polygon fill="#000000" stroke="#000000" points="728.7617,-832.7102 733,-823 723.6314,-827.9477 728.7617,-832.7102"/>
<text text-anchor="middle" x="710" y="-826.8" font-family="Times,serif" font-size="14.00" fill="#000000">values</text>
</g>
<!-- r8&#45;&gt;r8 -->
<g id="edge27" class="edge">
<title>r8:e&#45;&gt;r8:ne</title>
<path fill="none" stroke="#000000" d="M880,-805C903.887,-796 951.887,-796 951.887,-814 951.887,-831.1914 835.1974,-831.9637 761.149,-824.1576"/>
<polygon fill="#000000" stroke="#000000" points="761.3322,-820.6559 751,-823 760.5389,-827.6108 761.3322,-820.6559"/>
<text text-anchor="middle" x="775" y="-826.8" font-family="Times,serif" font-size="14.00" fill="#000000">partial</text>
<text text-anchor="middle" x="906" y="-808.8" font-family="Times,serif" font-size="14.00" fill="#000000">/partial</text>
</g>
<!-- r8&#45;&gt;r10 -->
<g id="edge28" class="edge">
<title>r8:s&#45;&gt;r10:n</title>
<path fill="none" stroke="#000000" d="M733,-787C733,-741.6441 733,-727.8469 733,-687.0522"/>
<polygon fill="#000000" stroke="#000000" points="736.5001,-687 733,-677 729.5001,-687 736.5001,-687"/>
<text text-anchor="middle" x="756" y="-680.8" font-family="Times,serif" font-size="14.00" fill="#000000">values</text>
<text text-anchor="middle" x="708.5" y="-775.8" font-family="Times,serif" font-size="14.00" fill="#000000">/chunk</text>
</g>
<!-- initializerr12_1 -->
<!-- initializerr12_1&#45;&gt;r12 -->
<g id="edge21" class="edge">
<title>initializerr12_1&#45;&gt;r12:n</title>
<path fill="none" stroke="#0000ff" stroke-dasharray="1,5" d="M1477.677,-928.9772C1401.2507,-903.3609 1251.6209,-851.8945 1216.5031,-830.1499"/>
<polygon fill="#0000ff" stroke="#0000ff" points="1218.654,-827.3648 1209,-823 1213.825,-832.4324 1218.654,-827.3648"/>
<text text-anchor="middle" x="1365.5" y="-877.8" font-family="Times,serif" font-size="14.00" fill="#000000">[]</text>
</g>
<!-- initializerr12_2 -->
<!-- initializerr12_2&#45;&gt;r12 -->
<g id="edge22" class="edge">
<title>initializerr12_2&#45;&gt;r12:n</title>
<path fill="none" stroke="#0000ff" d="M1266.0974,-926.2092C1244.8882,-906.2273 1214.5037,-871.5532 1209.6615,-833.3255"/>
<polygon fill="#0000ff" stroke="#0000ff" points="1213.1322,-832.7558 1209,-823 1206.1465,-833.2033 1213.1322,-832.7558"/>
<text text-anchor="middle" x="1237" y="-877.8" font-family="Times,serif" font-size="14.00" fill="#000000">2</text>
</g>
<!-- r10&#45;&gt;r10 -->
<g id="edge31" class="edge">
<title>r10:e&#45;&gt;r10:ne</title>
<path fill="none" stroke="#000000" d="M866,-659C889.5882,-650 937.5882,-650 937.5882,-668 937.5882,-685.1211 830.4755,-685.9571 761.3291,-678.2529"/>
<polygon fill="#000000" stroke="#000000" points="761.3487,-674.7297 751,-677 760.5057,-681.6788 761.3487,-674.7297"/>
<text text-anchor="middle" x="775" y="-680.8" font-family="Times,serif" font-size="14.00" fill="#000000">partial</text>
<text text-anchor="middle" x="892" y="-662.8" font-family="Times,serif" font-size="14.00" fill="#000000">/partial</text>
</g>
<!-- r23 -->
<g id="node28" class="node">
<title>r23</title>
<g id="a_node28"><a xlink:href="file:///home/travis/build/andrewdavidmackenzie/flow/flowstdlib/data/buffer/buffer.html" xlink:title="buffer_bounds (#23)">
<ellipse fill="#ff7f50" stroke="#000000" cx="1297" cy="-534" rx="106.6812" ry="18"/>
<text text-anchor="middle" x="1297" y="-530.3" font-family="Times,serif" font-size="14.00" fill="#000000">buffer_bounds (#23)</text>
</a>
</g>
</g>
<!-- r10&#45;&gt;r23 -->
<g id="edge32" class="edge">
<title>r10:s&#45;&gt;r23:n</title>
<path fill="none" stroke="#000000" d="M733,-641C733,-390.7011 1281.6835,-794.4497 1296.6866,-562.0349"/>
<polygon fill="#000000" stroke="#000000" points="1300.1861,-562.1044 1297,-552 1293.1895,-561.8858 1300.1861,-562.1044"/>
<text text-anchor="middle" x="708.5" y="-629.8" font-family="Times,serif" font-size="14.00" fill="#000000">/chunk</text>
</g>
<!-- initializerr8_1 -->
<!-- initializerr8_1&#45;&gt;r8 -->
<g id="edge25" class="edge">
<title>initializerr8_1&#45;&gt;r8:n</title>
<path fill="none" stroke="#0000ff" stroke-dasharray="1,5" d="M242.3521,-932.0892C369.1558,-905.6678 666.6159,-843.1785 723.5042,-826.6481"/>
<polygon fill="#0000ff" stroke="#0000ff" points="724.9204,-829.8535 733,-823 722.41,-823.3192 724.9204,-829.8535"/>
<text text-anchor="middle" x="518.5" y="-877.8" font-family="Times,serif" font-size="14.00" fill="#000000">[]</text>
</g>
<!-- initializerr8_2 -->
<!-- initializerr8_2&#45;&gt;r8 -->
<g id="edge26" class="edge">
<title>initializerr8_2&#45;&gt;r8:n</title>
<path fill="none" stroke="#0000ff" d="M733,-925.96C733,-904.5319 733,-867.4021 733,-833.4232"/>
<polygon fill="#0000ff" stroke="#0000ff" points="736.5001,-833 733,-823 729.5001,-833 736.5001,-833"/>
<text text-anchor="middle" x="738" y="-877.8" font-family="Times,serif" font-size="14.00" fill="#000000">2</text>
</g>
<!-- initializerr10_1 -->
<!-- initializerr10_1&#45;&gt;r10 -->
<g id="edge29" class="edge">
<title>initializerr10_1&#45;&gt;r10:n</title>
<path fill="none" stroke="#0000ff" stroke-dasharray="1,5" d="M473.8528,-789.4949C546.5441,-762.2996 691.6428,-706.756 725.7179,-684.2571"/>
<polygon fill="#0000ff" stroke="#0000ff" points="728.3874,-686.5381 733,-677 723.4461,-681.5798 728.3874,-686.5381"/>
<text text-anchor="middle" x="668.5" y="-728.3" font-family="Times,serif" font-size="14.00" fill="#000000">[]</text>
</g>
<!-- initializerr10_2 -->
<!-- initializerr10_2&#45;&gt;r10 -->
<g id="edge30" class="edge">
<title>initializerr10_2&#45;&gt;r10:n</title>
<path fill="none" stroke="#0000ff" d="M247.2334,-790.8676C315.7284,-772.1864 441.0462,-738.7499 549,-714 557.7737,-711.9885 688.5259,-693.6462 724.1144,-681.9601"/>
<polygon fill="#0000ff" stroke="#0000ff" points="725.9743,-684.9303 733,-677 722.5623,-678.8182 725.9743,-684.9303"/>
<text text-anchor="middle" x="554" y="-728.3" font-family="Times,serif" font-size="14.00" fill="#000000">2</text>
</g>
<!-- r23&#45;&gt;r23 -->
<g id="edge48" class="edge">
<title>r23:e&#45;&gt;r23:n</title>
<path fill="none" stroke="#000000" d="M1404,-534C1427.5905,-525 1475.5905,-525 1475.5905,-543 1475.5905,-560.0156 1369.1963,-560.9462 1307.2716,-553.3943"/>
<polygon fill="#000000" stroke="#000000" points="1307.3799,-549.877 1297,-552 1306.4383,-556.8134 1307.3799,-549.877"/>
</g>
<!-- r23&#45;&gt;r18 -->
<g id="edge49" class="edge">
<title>r23:e&#45;&gt;r18:n</title>
<path fill="none" stroke="#000000" d="M1404,-534C1464.44,-534 1666,-521.44 1666,-461 1666,-461 1666,-461 1666,-386.5 1666,-48.668 2407.5552,-587.0818 2422.7629,-267.2197"/>
<polygon fill="#000000" stroke="#000000" points="2426.267,-267.0785 2423,-257 2419.2689,-266.9161 2426.267,-267.0785"/>
<text text-anchor="middle" x="2449" y="-260.8" font-family="Times,serif" font-size="14.00" fill="#000000">bounds</text>
</g>
<!-- initializerr0_1 -->
<!-- initializerr0_1&#45;&gt;r0 -->
<g id="edge33" class="edge">
<title>initializerr0_1&#45;&gt;r0:w</title>
<path fill="none" stroke="#0000ff" stroke-dasharray="1,5" d="M2430.6618,-999.025C2419.0666,-979.7375 2398.984,-948.805 2377,-926 2246.8728,-791.013 2198.4239,-763.7814 2024,-695 1994.5166,-683.3737 1974.3765,-702.0798 1955,-677 1953.0894,-674.5271 1951.4508,-671.2395 1950.64,-668.1512"/>
<polygon fill="#0000ff" stroke="#0000ff" points="1953.8585,-669.5332 1955,-659 1947.539,-666.5223 1953.8585,-669.5332"/>
<text text-anchor="middle" x="2310" y="-844.8" font-family="Times,serif" font-size="14.00" fill="#000000">1</text>
</g>
<!-- r1&#45;&gt;r3 -->
<g id="edge36" class="edge">
<title>r1:e&#45;&gt;r3:ne</title>
<path fill="none" stroke="#000000" d="M2683,-732C2719.4998,-732 2784.2199,-719.3854 2579,-695 2545.9881,-691.0773 2318.8946,-700.749 2266.0125,-681.9349"/>
<polygon fill="#000000" stroke="#000000" points="2267.4522,-678.7329 2257,-677 2264.0902,-684.8728 2267.4522,-678.7329"/>
<text text-anchor="middle" x="2283" y="-680.8" font-family="Times,serif" font-size="14.00" fill="#000000">control</text>
<text text-anchor="middle" x="2715" y="-735.8" font-family="Times,serif" font-size="14.00" fill="#000000">/right&#45;lte</text>
</g>
<!-- r1&#45;&gt;r1 -->
<g id="edge38" class="edge">
<title>r1:s&#45;&gt;r1:n</title>
<path fill="none" stroke="#000000" d="M2608,-714C2656.9145,-705 2754.7434,-705 2754.7434,-732 2754.7434,-757.2598 2669.1188,-758.8878 2618.0284,-751.6233"/>
<polygon fill="#000000" stroke="#000000" points="2618.4308,-748.1429 2608,-750 2617.3122,-755.053 2618.4308,-748.1429"/>
<text text-anchor="middle" x="2620.5" y="-753.8" font-family="Times,serif" font-size="14.00" fill="#000000">left</text>
<text text-anchor="middle" x="2583.5" y="-702.8" font-family="Times,serif" font-size="14.00" fill="#000000">/left&#45;gt</text>
</g>
<!-- r1&#45;&gt;r4 -->
<g id="edge37" class="edge">
<title>r1:e&#45;&gt;r4:n</title>
<path fill="none" stroke="#000000" d="M2683,-732C2691,-732 2685.4037,-721.6303 2683,-714 2668.0888,-666.6659 2619,-672.1273 2619,-622.5 2619,-622.5 2619,-622.5 2619,-534 2619,-513.3205 2621.8477,-505.8307 2622.7375,-489.273"/>
<polygon fill="#000000" stroke="#000000" points="2626.2434,-489.0862 2623,-479 2619.2457,-488.9073 2626.2434,-489.0862"/>
<text text-anchor="middle" x="2642.5" y="-482.8" font-family="Times,serif" font-size="14.00" fill="#000000">value</text>
<text text-anchor="middle" x="2715" y="-720.8" font-family="Times,serif" font-size="14.00" fill="#000000">/right&#45;lte</text>
</g>
<!-- r2 -->
<g id="node33" class="node">
<title>r2</title>
<g id="a_node33"><a xlink:href="file:///home/travis/build/andrewdavidmackenzie/flow/flowstdlib/math/add/add.html" xlink:title="add (#2)">
<ellipse fill="#ff7f50" stroke="#000000" cx="2837" cy="-461" rx="51.1914" ry="18"/>
<text text-anchor="middle" x="2837" y="-457.3" font-family="Times,serif" font-size="14.00" fill="#000000">add (#2)</text>
</a>
</g>
</g>
<!-- r1&#45;&gt;r2 -->
<g id="edge39" class="edge">
<title>r1:e&#45;&gt;r2:n</title>
<path fill="none" stroke="#000000" d="M2683,-732C2683.3539,-732 2693,-659.8512 2693,-659 2693,-659 2693,-659 2693,-534 2693,-503.7974 2722.0641,-508.4796 2750,-497 2764.9798,-490.8444 2813.9268,-495.9606 2831.0334,-487.1"/>
<polygon fill="#000000" stroke="#000000" points="2833.8871,-489.1272 2837,-479 2828.2511,-484.9756 2833.8871,-489.1272"/>
<text text-anchor="middle" x="2830" y="-482.8" font-family="Times,serif" font-size="14.00" fill="#000000">i1</text>
<text text-anchor="middle" x="2655.5" y="-735.8" font-family="Times,serif" font-size="14.00" fill="#000000">/right&#45;lt</text>
</g>
<!-- initializerr1_1 -->
<!-- initializerr1_1&#45;&gt;r1 -->
<g id="edge35" class="edge">
<title>initializerr1_1&#45;&gt;r1:ne</title>
<path fill="none" stroke="#0000ff" stroke-dasharray="1,5" d="M2651.3668,-999.1625C2641.9077,-984.9994 2631,-964.2722 2631,-944 2631,-944 2631,-944 2631,-805 2631,-784.4817 2639.6343,-771.9622 2632.329,-758.268"/>
<polygon fill="#0000ff" stroke="#0000ff" points="2634.8576,-755.8132 2626,-750 2629.2992,-760.0681 2634.8576,-755.8132"/>
<text text-anchor="middle" x="2636" y="-877.8" font-family="Times,serif" font-size="14.00" fill="#000000">0</text>
</g>
<!-- r5 -->
<g id="node35" class="node">
<title>r5</title>
<g id="a_node35"><a xlink:href="file:///home/travis/build/andrewdavidmackenzie/flow/flowstdlib/data/enumerate/enumerate.html" xlink:title="enumerate (#5)">
<ellipse fill="#ff7f50" stroke="#000000" cx="2581" cy="-350" rx="84.485" ry="18"/>
<text text-anchor="middle" x="2581" y="-346.3" font-family="Times,serif" font-size="14.00" fill="#000000">enumerate (#5)</text>
</a>
</g>
</g>
<!-- r4&#45;&gt;r5 -->
<g id="edge45" class="edge">
<title>r4:e&#45;&gt;r5:n</title>
<path fill="none" stroke="#000000" d="M2714,-461C2722,-461 2718.0351,-449.9078 2714,-443 2681.6434,-387.6072 2591.6101,-430.5627 2581.8595,-378.1005"/>
<polygon fill="#000000" stroke="#000000" points="2585.3354,-377.6672 2581,-368 2578.3606,-378.2608 2585.3354,-377.6672"/>
</g>
<!-- r2&#45;&gt;r1 -->
<g id="edge42" class="edge">
<title>r2:se&#45;&gt;r1:ne</title>
<path fill="none" stroke="#000000" d="M2854,-444C2854,-444 2888.3454,-479 2888.3454,-479 2860.4623,-544.1208 2816.4344,-533.0389 2773,-589 2722.7025,-653.8036 2753.5247,-708.5351 2682.7434,-750 2674.2432,-754.9795 2649.8333,-757.6207 2635.309,-754.2862"/>
<polygon fill="#000000" stroke="#000000" points="2636.5472,-751.0032 2626,-750 2633.6196,-757.3616 2636.5472,-751.0032"/>
<text text-anchor="middle" x="2644" y="-753.8" font-family="Times,serif" font-size="14.00" fill="#000000">right</text>
<text text-anchor="middle" x="2871.5" y="-432.8" font-family="Times,serif" font-size="14.00" fill="#000000">/sum</text>
</g>
<!-- r2&#45;&gt;r2 -->
<g id="edge41" class="edge">
<title>r2:se&#45;&gt;r2:ne</title>
<path fill="none" stroke="#000000" d="M2854,-444C2895.1151,-435 2960.3454,-435 2960.3454,-461 2960.3454,-484.9688 2904.9092,-486.8413 2864.0353,-479.9365"/>
<polygon fill="#000000" stroke="#000000" points="2864.482,-476.4582 2854,-478 2863.1557,-483.3314 2864.482,-476.4582"/>
<text text-anchor="middle" x="2847" y="-481.8" font-family="Times,serif" font-size="14.00" fill="#000000">i2</text>
<text text-anchor="middle" x="2844.5" y="-432.8" font-family="Times,serif" font-size="14.00" fill="#000000">/i2</text>
</g>
<!-- initializerr2_1 -->
<!-- initializerr2_1&#45;&gt;r2 -->
<g id="edge40" class="edge">
<title>initializerr2_1&#45;&gt;r2:w</title>
<path fill="none" stroke="#0000ff" stroke-dasharray="1,5" d="M2840.7903,-713.7981C2815.9735,-657.7836 2745.2307,-490.2045 2775.1385,-464.3621"/>
<polygon fill="#0000ff" stroke="#0000ff" points="2776.6644,-467.5398 2785,-461 2774.4055,-460.9143 2776.6644,-467.5398"/>
<text text-anchor="middle" x="2801" y="-592.8" font-family="Times,serif" font-size="14.00" fill="#000000">1</text>
</g>
<!-- r5&#45;&gt;r18 -->
<g id="edge46" class="edge">
<title>r5:e&#45;&gt;r18:ne</title>
<path fill="none" stroke="#000000" d="M2666,-350C2674,-350 2670.6691,-338.4961 2666,-332 2606.2048,-248.8063 2520.8278,-325.4785 2447.5098,-262.9473"/>
<polygon fill="#000000" stroke="#000000" points="2449.7175,-260.2216 2440,-256 2444.9639,-265.3601 2449.7175,-260.2216"/>
<text text-anchor="middle" x="2422.5" y="-259.8" font-family="Times,serif" font-size="14.00" fill="#000000">pixel</text>
</g>
<!-- r19 -->
<g id="node37" class="node">
<title>r19</title>
<g id="a_node37"><a xlink:href="file:///home/travis/build/andrewdavidmackenzie/flow/samples/mandlebrot/render_pixel/render_pixel.html" xlink:title="p2v (#19)">
<ellipse fill="#ff7f50" stroke="#000000" cx="2481" cy="-145" rx="57.3905" ry="18"/>
<text text-anchor="middle" x="2481" y="-141.3" font-family="Times,serif" font-size="14.00" fill="#000000">p2v (#19)</text>
</a>
</g>
</g>
<!-- r18&#45;&gt;r19 -->
<g id="edge47" class="edge">
<title>r18:e&#45;&gt;r19:n</title>
<path fill="none" stroke="#000000" d="M2481,-239C2511.4792,-239 2486.953,-204.6216 2481.872,-173.0902"/>
<polygon fill="#000000" stroke="#000000" points="2485.3481,-172.6615 2481,-163 2478.3741,-173.2642 2485.3481,-172.6615"/>
<text text-anchor="middle" x="2441.5" y="-166.8" font-family="Times,serif" font-size="14.00" fill="#000000">pixel_point</text>
</g>
<!-- r19&#45;&gt;r20 -->
<g id="edge52" class="edge">
<title>r19:s&#45;&gt;r20:n</title>
<path fill="none" stroke="#000000" d="M2481,-127C2481,-97.1835 2486.5525,-87.542 2487.7671,-62.1388"/>
<polygon fill="#000000" stroke="#000000" points="2491.2693,-62.0778 2488,-52 2484.2712,-61.917 2491.2693,-62.0778"/>
<text text-anchor="middle" x="2505.5" y="-55.8" font-family="Times,serif" font-size="14.00" fill="#000000">pixel</text>
<text text-anchor="middle" x="2474" y="-115.8" font-family="Times,serif" font-size="14.00" fill="#000000">/0</text>
</g>
<!-- r19&#45;&gt;r20 -->
<g id="edge53" class="edge">
<title>r19:sw&#45;&gt;r20:ne</title>
<path fill="none" stroke="#000000" d="M2464,-128C2439.6957,-103.6957 2513.6444,-84.0453 2510.8329,-60.759"/>
<polygon fill="#000000" stroke="#000000" points="2513.8956,-59.0647 2506,-52 2507.7666,-62.4465 2513.8956,-59.0647"/>
<text text-anchor="middle" x="2525.5" y="-55.8" font-family="Times,serif" font-size="14.00" fill="#000000">value</text>
<text text-anchor="middle" x="2457" y="-116.8" font-family="Times,serif" font-size="14.00" fill="#000000">/1</text>
</g>
</g>
</svg>
