<?xml version="1.0" encoding="UTF-8" standalone="no"?>
<!DOCTYPE svg PUBLIC "-//W3C//DTD SVG 1.1//EN"
 "http://www.w3.org/Graphics/SVG/1.1/DTD/svg11.dtd">
<!-- Generated by graphviz version 2.44.1 (20200629.0846)
 -->
<!-- Title: mandlebrot Pages: 1 -->
<svg width="2487pt" height="908pt"
 viewBox="0.00 0.00 2487.00 908.00" xmlns="http://www.w3.org/2000/svg" xmlns:xlink="http://www.w3.org/1999/xlink">
<g id="graph0" class="graph" transform="scale(1 1) rotate(0) translate(4 904)">
<title>mandlebrot</title>
<polygon fill="white" stroke="transparent" points="-4,4 -4,-904 2483,-904 2483,4 -4,4"/>
<text text-anchor="middle" x="1239.5" y="-884.8" font-family="Times,serif" font-size="14.00">/mandlebrot</text>
<g id="clust1" class="cluster">
<title>cluster_parse_args</title>
<polygon fill="none" stroke="black" points="532,-321 532,-869 2378,-869 2378,-321 532,-321"/>
<text text-anchor="middle" x="1455" y="-853.8" font-family="Times,serif" font-size="14.00">/mandlebrot/parse_args</text>
</g>
<g id="clust2" class="cluster">
<title>cluster_generate_pixels</title>
<polygon fill="none" stroke="black" points="8,-175 8,-601 524,-601 524,-175 8,-175"/>
<text text-anchor="middle" x="266" y="-585.8" font-family="Times,serif" font-size="14.00">/mandlebrot/generate_pixels</text>
</g>
<g id="clust3" class="cluster">
<title>cluster_y_sequence</title>
<polygon fill="none" stroke="black" points="16,-321 16,-570 378,-570 378,-321 16,-321"/>
<text text-anchor="middle" x="197" y="-554.8" font-family="Times,serif" font-size="14.00">/mandlebrot/generate_pixels/y&#45;sequence</text>
</g>
<g id="clust4" class="cluster">
<title>cluster_render</title>
<polygon fill="none" stroke="black" points="1963,-8 1963,-156 2139,-156 2139,-8 1963,-8"/>
<text text-anchor="middle" x="2051" y="-140.8" font-family="Times,serif" font-size="14.00">/mandlebrot/render</text>
</g>
<!-- r10 -->
<g id="node1" class="node">
<title>r10</title>
<g id="a_node1"><a xlink:href="file:///Users/andrew/workspace/flow/flowr/src/lib/flowruntime/args/get.html" xlink:title="args (#10)">
<ellipse fill="coral" stroke="black" cx="1565" cy="-820" rx="46.59" ry="18"/>
<text text-anchor="middle" x="1565" y="-816.3" font-family="Times,serif" font-size="14.00">args (#10)</text>
</a>
</g>
</g>
<!-- r19 -->
<g id="node2" class="node">
<title>r19</title>
<g id="a_node2"><a xlink:href="file:///Users/andrew/workspace/flow/flowstdlib/data/buffer/buffer.html" xlink:title="filename_buffer (#19)">
<ellipse fill="coral" stroke="black" cx="1575" cy="-733" rx="89.08" ry="18"/>
<text text-anchor="middle" x="1575" y="-729.3" font-family="Times,serif" font-size="14.00">filename_buffer (#19)</text>
</a>
</g>
</g>
<!-- r10&#45;&gt;r19 -->
<g id="edge1" class="edge">
<title>r10:s&#45;&gt;r19:n</title>
<path fill="none" stroke="black" d="M1565,-802C1565,-782.69 1571.99,-776.17 1574.28,-761.05"/>
<polygon fill="black" stroke="black" points="1577.78,-761.22 1575,-751 1570.8,-760.72 1577.78,-761.22"/>
<text text-anchor="middle" x="1542" y="-790.8" font-family="Times,serif" font-size="14.00">/string/1</text>
</g>
<!-- r3 -->
<g id="node3" class="node">
<title>r3</title>
<g id="a_node3"><a xlink:href="file:///Users/andrew/workspace/flow/flowstdlib/data/ordered_split/ordered_split.html" xlink:title="split_size (#3)">
<ellipse fill="coral" stroke="black" cx="1825" cy="-733" rx="61.19" ry="18"/>
<text text-anchor="middle" x="1825" y="-729.3" font-family="Times,serif" font-size="14.00">split_size (#3)</text>
</a>
</g>
</g>
<!-- r10&#45;&gt;r3 -->
<g id="edge2" class="edge">
<title>r10:se&#45;&gt;r3:n</title>
<path fill="none" stroke="black" d="M1582,-802C1605.83,-778.17 1697,-775.8 1730,-769 1747.43,-765.41 1801.14,-770.16 1819.09,-759.69"/>
<polygon fill="black" stroke="black" points="1822.27,-761.24 1825,-751 1816.48,-757.3 1822.27,-761.24"/>
<text text-anchor="middle" x="1809.5" y="-754.8" font-family="Times,serif" font-size="14.00">string</text>
<text text-anchor="middle" x="1605" y="-790.8" font-family="Times,serif" font-size="14.00">/string/2</text>
</g>
<!-- r2 -->
<g id="node4" class="node">
<title>r2</title>
<g id="a_node4"><a xlink:href="file:///Users/andrew/workspace/flow/flowstdlib/data/ordered_split/ordered_split.html" xlink:title="split_upper_left (#2)">
<ellipse fill="coral" stroke="black" cx="1250" cy="-733" rx="83.39" ry="18"/>
<text text-anchor="middle" x="1250" y="-729.3" font-family="Times,serif" font-size="14.00">split_upper_left (#2)</text>
</a>
</g>
</g>
<!-- r10&#45;&gt;r2 -->
<g id="edge3" class="edge">
<title>r10:e&#45;&gt;r2:n</title>
<path fill="none" stroke="black" d="M1613,-820C1621.01,-820 1617.42,-807.9 1612,-802 1559.5,-744.87 1277.08,-824.45 1251.81,-760.94"/>
<polygon fill="black" stroke="black" points="1255.23,-760.21 1250,-751 1248.35,-761.46 1255.23,-760.21"/>
<text text-anchor="middle" x="1234.5" y="-754.8" font-family="Times,serif" font-size="14.00">string</text>
<text text-anchor="middle" x="1636" y="-823.8" font-family="Times,serif" font-size="14.00">/string/3</text>
</g>
<!-- r4 -->
<g id="node5" class="node">
<title>r4</title>
<g id="a_node5"><a xlink:href="file:///Users/andrew/workspace/flow/flowstdlib/data/ordered_split/ordered_split.html" xlink:title="split_lower_right (#4)">
<ellipse fill="coral" stroke="black" cx="995" cy="-733" rx="88.28" ry="18"/>
<text text-anchor="middle" x="995" y="-729.3" font-family="Times,serif" font-size="14.00">split_lower_right (#4)</text>
</a>
</g>
</g>
<!-- r10&#45;&gt;r4 -->
<g id="edge4" class="edge">
<title>r10:se&#45;&gt;r4:n</title>
<path fill="none" stroke="black" d="M1582,-802C1599.69,-784.31 1156.78,-787.45 1132,-784 1073.6,-775.88 1003.74,-809.31 995.75,-761"/>
<polygon fill="black" stroke="black" points="999.24,-760.71 995,-751 992.26,-761.24 999.24,-760.71"/>
<text text-anchor="middle" x="979.5" y="-754.8" font-family="Times,serif" font-size="14.00">string</text>
<text text-anchor="middle" x="1559" y="-790.8" font-family="Times,serif" font-size="14.00">/string/4</text>
</g>
<!-- r19&#45;&gt;r19 -->
<g id="edge54" class="edge">
<title>r19:e&#45;&gt;r19:n</title>
<path fill="none" stroke="black" d="M1664,-733C1688.04,-724 1736.04,-724 1736.04,-742 1736.04,-758.95 1640.89,-759.94 1584.96,-752.49"/>
<polygon fill="black" stroke="black" points="1585.41,-749.02 1575,-751 1584.37,-755.94 1585.41,-749.02"/>
</g>
<!-- r21 -->
<g id="node38" class="node">
<title>r21</title>
<g id="a_node38"><a xlink:href="file:///Users/andrew/workspace/flow/flowr/src/lib/flowruntime/image/image_buffer.html" xlink:title="image_buffer (#21)">
<ellipse fill="coral" stroke="black" cx="2051" cy="-34" rx="79.89" ry="18"/>
<text text-anchor="middle" x="2051" y="-30.3" font-family="Times,serif" font-size="14.00">image_buffer (#21)</text>
</a>
</g>
</g>
<!-- r19&#45;&gt;r21 -->
<g id="edge55" class="edge">
<title>r19:e&#45;&gt;r21:w</title>
<path fill="none" stroke="black" d="M1665,-733C1694.12,-733 1699.28,-719.82 1728,-715 2025.61,-665.01 2107.24,-720.61 2406,-678 2438.98,-673.3 2479,-694.31 2479,-661 2479,-661 2479,-661 2479,-237 2479,-61.95 2277.54,-151.44 2114,-89 2090.62,-80.07 2085.11,-76.69 2061,-70 2021.69,-59.09 1997.73,-82.82 1971,-52 1968.95,-49.64 1967.13,-46.37 1966.14,-43.27"/>
<polygon fill="black" stroke="black" points="1969.39,-44.58 1970,-34 1962.93,-41.89 1969.39,-44.58"/>
<text text-anchor="middle" x="1946" y="-37.8" font-family="Times,serif" font-size="14.00">filename</text>
</g>
<!-- r1 -->
<g id="node7" class="node">
<title>r1</title>
<g id="a_node7"><a xlink:href="file:///Users/andrew/workspace/flow/flowstdlib/fmt/to_json/to_json.html" xlink:title="size_to_json (#1)">
<ellipse fill="coral" stroke="black" cx="1913" cy="-660" rx="71.49" ry="18"/>
<text text-anchor="middle" x="1913" y="-656.3" font-family="Times,serif" font-size="14.00">size_to_json (#1)</text>
</a>
</g>
</g>
<!-- r3&#45;&gt;r1 -->
<g id="edge6" class="edge">
<title>r3:e&#45;&gt;r1:n</title>
<path fill="none" stroke="black" d="M1887,-733C1910.66,-733 1912.82,-711.59 1912.99,-688.13"/>
<polygon fill="black" stroke="black" points="1916.49,-688 1913,-678 1909.49,-688 1916.49,-688"/>
</g>
<!-- r5 -->
<g id="node16" class="node">
<title>r5</title>
<g id="a_node16"><a xlink:href="file:///Users/andrew/workspace/flow/flowstdlib/fmt/to_json/to_json.html" xlink:title="upper_left_to_json (#5)">
<ellipse fill="coral" stroke="black" cx="1289" cy="-660" rx="94.48" ry="18"/>
<text text-anchor="middle" x="1289" y="-656.3" font-family="Times,serif" font-size="14.00">upper_left_to_json (#5)</text>
</a>
</g>
</g>
<!-- r2&#45;&gt;r5 -->
<g id="edge16" class="edge">
<title>r2:e&#45;&gt;r5:n</title>
<path fill="none" stroke="black" d="M1335,-733C1343.01,-733 1337.62,-722.15 1334,-715 1324.22,-695.69 1299.34,-700.9 1291.45,-688.01"/>
<polygon fill="black" stroke="black" points="1294.77,-686.88 1289,-678 1287.97,-688.55 1294.77,-686.88"/>
</g>
<!-- r6 -->
<g id="node19" class="node">
<title>r6</title>
<g id="a_node19"><a xlink:href="file:///Users/andrew/workspace/flow/flowstdlib/fmt/to_json/to_json.html" xlink:title="lower_right_to_json (#6)">
<ellipse fill="coral" stroke="black" cx="1024" cy="-660" rx="98.58" ry="18"/>
<text text-anchor="middle" x="1024" y="-656.3" font-family="Times,serif" font-size="14.00">lower_right_to_json (#6)</text>
</a>
</g>
</g>
<!-- r4&#45;&gt;r6 -->
<g id="edge19" class="edge">
<title>r4:e&#45;&gt;r6:n</title>
<path fill="none" stroke="black" d="M1085,-733C1093.01,-733 1088.1,-721.89 1084,-715 1070.11,-691.65 1035.19,-704.53 1026.16,-687.94"/>
<polygon fill="black" stroke="black" points="1029.54,-687.03 1024,-678 1022.7,-688.52 1029.54,-687.03"/>
</g>
<!-- initializerr3_1 -->
<!-- initializerr3_1&#45;&gt;r3 -->
<g id="edge5" class="edge">
<title>initializerr3_1&#45;&gt;r3:w</title>
<path fill="none" stroke="blue" d="M1757.14,-802.01C1749.29,-780.67 1739.25,-745.63 1753.31,-735.7"/>
<polygon fill="blue" stroke="blue" points="1754.31,-739.05 1763,-733 1752.43,-732.31 1754.31,-739.05"/>
<text text-anchor="middle" x="1760.5" y="-772.8" font-family="Times,serif" font-size="14.00">&quot;x&quot;</text>
</g>
<!-- r0 -->
<g id="node8" class="node">
<title>r0</title>
<g id="a_node8"><a xlink:href="file:///Users/andrew/workspace/flow/flowstdlib/data/accumulate/accumulate.html" xlink:title="accumulate_size (#0)">
<ellipse fill="coral" stroke="black" cx="1985" cy="-521" rx="86.38" ry="18"/>
<text text-anchor="middle" x="1985" y="-517.3" font-family="Times,serif" font-size="14.00">accumulate_size (#0)</text>
</a>
</g>
</g>
<!-- r1&#45;&gt;r0 -->
<g id="edge7" class="edge">
<title>r1:e&#45;&gt;r0:n</title>
<path fill="none" stroke="black" d="M1986,-660C2009.96,-660 1990.06,-584.66 1985.77,-550.02"/>
<polygon fill="black" stroke="black" points="1989.26,-549.7 1985,-540 1982.28,-550.24 1989.26,-549.7"/>
<text text-anchor="middle" x="1967.5" y="-543.8" font-family="Times,serif" font-size="14.00">values</text>
</g>
<!-- r0&#45;&gt;r0 -->
<g id="edge10" class="edge">
<title>r0:e&#45;&gt;r0:ne</title>
<path fill="none" stroke="black" d="M2072,-521C2095.44,-510.5 2143.44,-510.5 2143.44,-530 2143.44,-548.32 2066.1,-549.43 2012.95,-540.79"/>
<polygon fill="black" stroke="black" points="2013.46,-537.33 2003,-539 2012.22,-544.22 2013.46,-537.33"/>
<text text-anchor="middle" x="2020.5" y="-542.8" font-family="Times,serif" font-size="14.00">partial</text>
<text text-anchor="middle" x="2091.5" y="-524.8" font-family="Times,serif" font-size="14.00">/partial</text>
</g>
<!-- r16 -->
<g id="node11" class="node">
<title>r16</title>
<g id="a_node11"><a xlink:href="file:///Users/andrew/workspace/flow/flowstdlib/math/subtract/subtract.html" xlink:title="height (#16)">
<ellipse fill="coral" stroke="black" cx="594" cy="-434" rx="53.89" ry="18"/>
<text text-anchor="middle" x="594" y="-430.3" font-family="Times,serif" font-size="14.00">height (#16)</text>
</a>
</g>
</g>
<!-- r0&#45;&gt;r16 -->
<g id="edge11" class="edge">
<title>r0:sw&#45;&gt;r16:n</title>
<path fill="none" stroke="black" d="M1967,-503C1948.41,-484.41 1521.26,-471.18 1495,-470 1483.28,-469.47 701.64,-465.11 603.98,-454.26"/>
<polygon fill="black" stroke="black" points="604.53,-450.79 594,-452 602.98,-457.62 604.53,-450.79"/>
<text text-anchor="middle" x="588.5" y="-455.8" font-family="Times,serif" font-size="14.00">i1</text>
<text text-anchor="middle" x="1943" y="-491.8" font-family="Times,serif" font-size="14.00">/chunk/1</text>
</g>
<!-- r12 -->
<g id="node12" class="node">
<title>r12</title>
<g id="a_node12"><a xlink:href="file:///Users/andrew/workspace/flow/flowstdlib/control/join/join.html" xlink:title="width&#45;gate (#12)">
<ellipse fill="coral" stroke="black" cx="1277" cy="-434" rx="69.59" ry="18"/>
<text text-anchor="middle" x="1277" y="-430.3" font-family="Times,serif" font-size="14.00">width&#45;gate (#12)</text>
</a>
</g>
</g>
<!-- r0&#45;&gt;r12 -->
<g id="edge12" class="edge">
<title>r0:s&#45;&gt;r12:n</title>
<path fill="none" stroke="black" d="M1985,-503C1985,-481.95 1912.45,-489.98 1892,-485 1869.04,-479.42 1864.33,-473.74 1841,-470 1826.73,-467.71 1359.45,-467.67 1286.53,-455.39"/>
<polygon fill="black" stroke="black" points="1287.59,-452.06 1277,-452 1285.25,-458.65 1287.59,-452.06"/>
<text text-anchor="middle" x="1265.5" y="-455.8" font-family="Times,serif" font-size="14.00">data</text>
<text text-anchor="middle" x="2009" y="-491.8" font-family="Times,serif" font-size="14.00">/chunk/0</text>
</g>
<!-- r20 -->
<g id="node13" class="node">
<title>r20</title>
<g id="a_node13"><a xlink:href="file:///Users/andrew/workspace/flow/flowstdlib/data/buffer/buffer.html" xlink:title="buffer_size (#20)">
<ellipse fill="coral" stroke="black" cx="1766" cy="-434" rx="71.49" ry="18"/>
<text text-anchor="middle" x="1766" y="-430.3" font-family="Times,serif" font-size="14.00">buffer_size (#20)</text>
</a>
</g>
</g>
<!-- r0&#45;&gt;r20 -->
<g id="edge13" class="edge">
<title>r0:s&#45;&gt;r20:n</title>
<path fill="none" stroke="black" d="M1985,-503C1985,-483.97 1924.38,-474.92 1906,-470 1879.37,-462.87 1791.4,-478.6 1770.49,-461.22"/>
<polygon fill="black" stroke="black" points="1773.53,-459.46 1766,-452 1767.23,-462.52 1773.53,-459.46"/>
<text text-anchor="middle" x="1966.5" y="-491.8" font-family="Times,serif" font-size="14.00">/chunk</text>
</g>
<!-- r18 -->
<g id="node14" class="node">
<title>r18</title>
<g id="a_node14"><a xlink:href="file:///Users/andrew/workspace/flow/flowstdlib/data/buffer/buffer.html" xlink:title="size_buffer (#18)">
<ellipse fill="coral" stroke="black" cx="2178" cy="-434" rx="71.49" ry="18"/>
<text text-anchor="middle" x="2178" y="-430.3" font-family="Times,serif" font-size="14.00">size_buffer (#18)</text>
</a>
</g>
</g>
<!-- r0&#45;&gt;r18 -->
<g id="edge14" class="edge">
<title>r0:s&#45;&gt;r18:n</title>
<path fill="none" stroke="black" d="M1985,-503C1985,-418.09 2161.77,-530.25 2176.96,-462.28"/>
<polygon fill="black" stroke="black" points="2180.48,-462.3 2178,-452 2173.51,-461.6 2180.48,-462.3"/>
<text text-anchor="middle" x="1966.5" y="-506.8" font-family="Times,serif" font-size="14.00">/chunk</text>
</g>
<!-- initializerr0_1 -->
<!-- initializerr0_1&#45;&gt;r0 -->
<g id="edge8" class="edge">
<title>initializerr0_1&#45;&gt;r0:n</title>
<path fill="none" stroke="blue" stroke-dasharray="1,5" d="M2265.83,-647.58C2185.3,-626.18 2020.09,-579.49 1989.82,-548.92"/>
<polygon fill="blue" stroke="blue" points="1992.83,-547.14 1985,-540 1986.67,-550.46 1992.83,-547.14"/>
<text text-anchor="middle" x="2181" y="-612.8" font-family="Times,serif" font-size="14.00">[]</text>
</g>
<!-- initializerr0_2 -->
<!-- initializerr0_2&#45;&gt;r0 -->
<g id="edge9" class="edge">
<title>initializerr0_2&#45;&gt;r0:n</title>
<path fill="none" stroke="blue" d="M2081.63,-645.18C2045.12,-628.49 1992.56,-596.74 1985.74,-550.16"/>
<polygon fill="blue" stroke="blue" points="1989.22,-549.72 1985,-540 1982.23,-550.23 1989.22,-549.72"/>
<text text-anchor="middle" x="2042.5" y="-612.8" font-family="Times,serif" font-size="14.00">2</text>
</g>
<!-- r14 -->
<g id="node30" class="node">
<title>r14</title>
<g id="a_node30"><a xlink:href="file:///Users/andrew/workspace/flow/flowstdlib/control/compare_switch/compare_switch.html" xlink:title="compare (#14)">
<ellipse fill="coral" stroke="black" cx="289" cy="-434" rx="63.09" ry="18"/>
<text text-anchor="middle" x="289" y="-430.3" font-family="Times,serif" font-size="14.00">compare (#14)</text>
</a>
</g>
</g>
<!-- r16&#45;&gt;r14 -->
<g id="edge34" class="edge">
<title>r16:se&#45;&gt;r14:n</title>
<path fill="none" stroke="black" d="M612,-417C634.61,-394.39 571.89,-412.98 540.05,-416 455.36,-424.04 436.68,-443.29 352.04,-452 328.74,-454.4 300.34,-473.07 291.65,-462.76"/>
<polygon fill="black" stroke="black" points="295,-461.73 289,-453 288.25,-463.57 295,-461.73"/>
<text text-anchor="middle" x="279.5" y="-456.8" font-family="Times,serif" font-size="14.00">left</text>
<text text-anchor="middle" x="600" y="-405.8" font-family="Times,serif" font-size="14.00">/diff</text>
</g>
<!-- r12&#45;&gt;r12 -->
<g id="edge43" class="edge">
<title>r12:e&#45;&gt;r12:n</title>
<path fill="none" stroke="black" d="M1347,-434C1370.54,-423.5 1418.54,-423.5 1418.54,-443 1418.54,-461.21 1336.3,-462.41 1286.98,-453.95"/>
<polygon fill="black" stroke="black" points="1287.49,-450.48 1277,-452 1286.14,-457.35 1287.49,-450.48"/>
<text text-anchor="middle" x="1288.5" y="-455.8" font-family="Times,serif" font-size="14.00">data</text>
</g>
<!-- r11 -->
<g id="node32" class="node">
<title>r11</title>
<g id="a_node32"><a xlink:href="file:///Users/andrew/workspace/flow/flowstdlib/data/duplicate/duplicate.html" xlink:title="y&#45;duplicator (#11)">
<ellipse fill="coral" stroke="black" cx="295" cy="-347" rx="75.29" ry="18"/>
<text text-anchor="middle" x="295" y="-343.3" font-family="Times,serif" font-size="14.00">y&#45;duplicator (#11)</text>
</a>
</g>
</g>
<!-- r12&#45;&gt;r11 -->
<g id="edge44" class="edge">
<title>r12:e&#45;&gt;r11:ne</title>
<path fill="none" stroke="black" d="M1348,-434C1356.01,-434 1352.68,-421.65 1347,-416 1345.8,-414.81 429.71,-371.7 323.09,-365.67"/>
<polygon fill="black" stroke="black" points="323.21,-362.17 313,-365 322.75,-369.16 323.21,-362.17"/>
<text text-anchor="middle" x="297" y="-368.8" font-family="Times,serif" font-size="14.00">factor</text>
</g>
<!-- r20&#45;&gt;r20 -->
<g id="edge50" class="edge">
<title>r20:e&#45;&gt;r20:n</title>
<path fill="none" stroke="black" d="M1838,-434C1861.49,-423.5 1909.49,-423.5 1909.49,-443 1909.49,-461.21 1826.11,-462.41 1776.12,-453.95"/>
<polygon fill="black" stroke="black" points="1776.48,-450.46 1766,-452 1775.16,-457.33 1776.48,-450.46"/>
</g>
<!-- r17 -->
<g id="node36" class="node">
<title>r17</title>
<g id="a_node36"><a xlink:href="file:///Users/andrew/workspace/flow/samples/mandlebrot/pixel_to_point/pixel_to_point.html" xlink:title="p2p (#17)">
<ellipse fill="coral" stroke="black" cx="471" cy="-201" rx="45.49" ry="18"/>
<text text-anchor="middle" x="471" y="-197.3" font-family="Times,serif" font-size="14.00">p2p (#17)</text>
</a>
</g>
</g>
<!-- r20&#45;&gt;r17 -->
<g id="edge51" class="edge">
<title>r20:e&#45;&gt;r17:nw</title>
<path fill="none" stroke="black" d="M1839,-434C1847.01,-434 1843.42,-421.9 1838,-416 1813.23,-389.01 579.1,-262.06 462.43,-224.72"/>
<polygon fill="black" stroke="black" points="464.24,-221.72 454,-219 460.31,-227.51 464.24,-221.72"/>
<text text-anchor="middle" x="443" y="-222.8" font-family="Times,serif" font-size="14.00">size</text>
</g>
<!-- r18&#45;&gt;r18 -->
<g id="edge56" class="edge">
<title>r18:e&#45;&gt;r18:n</title>
<path fill="none" stroke="black" d="M2250,-434C2273.49,-423.5 2321.49,-423.5 2321.49,-443 2321.49,-461.21 2238.11,-462.41 2188.12,-453.95"/>
<polygon fill="black" stroke="black" points="2188.48,-450.46 2178,-452 2187.16,-457.33 2188.48,-450.46"/>
</g>
<!-- r18&#45;&gt;r21 -->
<g id="edge57" class="edge">
<title>r18:e&#45;&gt;r21:nw</title>
<path fill="none" stroke="black" d="M2251,-434C2303.81,-434 2333,-400.81 2333,-348 2333,-348 2333,-348 2333,-106 2333,-62.51 2284.34,-79.97 2242,-70 2202.3,-60.65 2046.82,-79.12 2030.66,-61.8"/>
<polygon fill="black" stroke="black" points="2034.08,-62.54 2033,-52 2027.27,-60.91 2034.08,-62.54"/>
<text text-anchor="middle" x="2022" y="-55.8" font-family="Times,serif" font-size="14.00">size</text>
</g>
<!-- initializerr2_1 -->
<!-- initializerr2_1&#45;&gt;r2 -->
<g id="edge15" class="edge">
<title>initializerr2_1&#45;&gt;r2:w</title>
<path fill="none" stroke="blue" d="M1159.14,-802.01C1151.29,-780.67 1141.25,-745.63 1155.31,-735.7"/>
<polygon fill="blue" stroke="blue" points="1156.31,-739.05 1165,-733 1154.43,-732.31 1156.31,-739.05"/>
<text text-anchor="middle" x="1161" y="-772.8" font-family="Times,serif" font-size="14.00">&quot;,&quot;</text>
</g>
<!-- r8 -->
<g id="node17" class="node">
<title>r8</title>
<g id="a_node17"><a xlink:href="file:///Users/andrew/workspace/flow/flowstdlib/data/accumulate/accumulate.html" xlink:title="accumulate_upper_left (#8)">
<ellipse fill="coral" stroke="black" cx="1262" cy="-521" rx="108.58" ry="18"/>
<text text-anchor="middle" x="1262" y="-517.3" font-family="Times,serif" font-size="14.00">accumulate_upper_left (#8)</text>
</a>
</g>
</g>
<!-- r5&#45;&gt;r8 -->
<g id="edge17" class="edge">
<title>r5:e&#45;&gt;r8:n</title>
<path fill="none" stroke="black" d="M1385,-660C1393.01,-660 1387.59,-649.16 1384,-642 1353.92,-582.04 1271.02,-607.69 1262.68,-550"/>
<polygon fill="black" stroke="black" points="1266.17,-549.74 1262,-540 1259.19,-550.21 1266.17,-549.74"/>
<text text-anchor="middle" x="1244.5" y="-543.8" font-family="Times,serif" font-size="14.00">values</text>
</g>
<!-- r8&#45;&gt;r8 -->
<g id="edge23" class="edge">
<title>r8:e&#45;&gt;r8:ne</title>
<path fill="none" stroke="black" d="M1371,-521C1394.54,-510.5 1442.54,-510.5 1442.54,-530 1442.54,-548.43 1351.07,-549.44 1290.23,-540.63"/>
<polygon fill="black" stroke="black" points="1290.43,-537.11 1280,-539 1289.33,-544.03 1290.43,-537.11"/>
<text text-anchor="middle" x="1297.5" y="-542.8" font-family="Times,serif" font-size="14.00">partial</text>
<text text-anchor="middle" x="1390.5" y="-524.8" font-family="Times,serif" font-size="14.00">/partial</text>
</g>
<!-- r9 -->
<g id="node23" class="node">
<title>r9</title>
<g id="a_node23"><a xlink:href="file:///Users/andrew/workspace/flow/flowstdlib/data/accumulate/accumulate.html" xlink:title="accumulate_bounds (#9)">
<ellipse fill="coral" stroke="black" cx="1019" cy="-434" rx="98.28" ry="18"/>
<text text-anchor="middle" x="1019" y="-430.3" font-family="Times,serif" font-size="14.00">accumulate_bounds (#9)</text>
</a>
</g>
</g>
<!-- r8&#45;&gt;r9 -->
<g id="edge24" class="edge">
<title>r8:s&#45;&gt;r9:n</title>
<path fill="none" stroke="black" d="M1262,-503C1262,-478.21 1065.85,-479.07 1026.01,-459.49"/>
<polygon fill="black" stroke="black" points="1028.39,-456.91 1019,-452 1023.28,-461.69 1028.39,-456.91"/>
<text text-anchor="middle" x="1001.5" y="-455.8" font-family="Times,serif" font-size="14.00">values</text>
<text text-anchor="middle" x="1243.5" y="-491.8" font-family="Times,serif" font-size="14.00">/chunk</text>
</g>
<!-- initializerr4_1 -->
<!-- initializerr4_1&#45;&gt;r4 -->
<g id="edge18" class="edge">
<title>initializerr4_1&#45;&gt;r4:w</title>
<path fill="none" stroke="blue" d="M899.14,-802.01C891.29,-780.67 881.25,-745.63 895.31,-735.7"/>
<polygon fill="blue" stroke="blue" points="896.31,-739.05 905,-733 894.43,-732.31 896.31,-739.05"/>
<text text-anchor="middle" x="901" y="-772.8" font-family="Times,serif" font-size="14.00">&quot;,&quot;</text>
</g>
<!-- r7 -->
<g id="node20" class="node">
<title>r7</title>
<g id="a_node20"><a xlink:href="file:///Users/andrew/workspace/flow/flowstdlib/data/accumulate/accumulate.html" xlink:title="accumulate_lower_right (#7)">
<ellipse fill="coral" stroke="black" cx="846" cy="-521" rx="113.98" ry="18"/>
<text text-anchor="middle" x="846" y="-517.3" font-family="Times,serif" font-size="14.00">accumulate_lower_right (#7)</text>
</a>
</g>
</g>
<!-- r6&#45;&gt;r7 -->
<g id="edge20" class="edge">
<title>r6:e&#45;&gt;r7:n</title>
<path fill="none" stroke="black" d="M1124,-660C1132.01,-660 1127.76,-648.44 1123,-642 1047.13,-539.4 856.79,-664.01 846.44,-550.18"/>
<polygon fill="black" stroke="black" points="849.93,-549.84 846,-540 842.94,-550.14 849.93,-549.84"/>
<text text-anchor="middle" x="828.5" y="-543.8" font-family="Times,serif" font-size="14.00">values</text>
</g>
<!-- r7&#45;&gt;r7 -->
<g id="edge27" class="edge">
<title>r7:e&#45;&gt;r7:ne</title>
<path fill="none" stroke="black" d="M960,-521C983.74,-510.5 1031.74,-510.5 1031.74,-530 1031.74,-548.47 936.78,-549.45 874.14,-540.57"/>
<polygon fill="black" stroke="black" points="874.42,-537.07 864,-539 873.35,-543.99 874.42,-537.07"/>
<text text-anchor="middle" x="881.5" y="-542.8" font-family="Times,serif" font-size="14.00">partial</text>
<text text-anchor="middle" x="979.5" y="-524.8" font-family="Times,serif" font-size="14.00">/partial</text>
</g>
<!-- r7&#45;&gt;r9 -->
<g id="edge28" class="edge">
<title>r7:s&#45;&gt;r9:n</title>
<path fill="none" stroke="black" d="M846,-503C846,-426.6 1003.16,-522.33 1017.9,-462.06"/>
<polygon fill="black" stroke="black" points="1021.39,-462.32 1019,-452 1014.43,-461.56 1021.39,-462.32"/>
<text text-anchor="middle" x="1036.5" y="-455.8" font-family="Times,serif" font-size="14.00">values</text>
<text text-anchor="middle" x="827.5" y="-491.8" font-family="Times,serif" font-size="14.00">/chunk</text>
</g>
<!-- initializerr8_1 -->
<!-- initializerr8_1&#45;&gt;r8 -->
<g id="edge21" class="edge">
<title>initializerr8_1&#45;&gt;r8:n</title>
<path fill="none" stroke="blue" stroke-dasharray="1,5" d="M1659.12,-649.79C1589.89,-636.84 1468.29,-613.44 1425,-601 1354.14,-580.64 1270.28,-613.95 1262.57,-550.14"/>
<polygon fill="blue" stroke="blue" points="1266.06,-549.79 1262,-540 1259.07,-550.18 1266.06,-549.79"/>
<text text-anchor="middle" x="1526" y="-612.8" font-family="Times,serif" font-size="14.00">[]</text>
</g>
<!-- initializerr8_2 -->
<!-- initializerr8_2&#45;&gt;r8 -->
<g id="edge22" class="edge">
<title>initializerr8_2&#45;&gt;r8:n</title>
<path fill="none" stroke="blue" d="M1478.79,-645.7C1415.96,-622.74 1293.09,-575.59 1266.96,-548.85"/>
<polygon fill="blue" stroke="blue" points="1269.94,-547.01 1262,-540 1263.84,-550.43 1269.94,-547.01"/>
<text text-anchor="middle" x="1422.5" y="-612.8" font-family="Times,serif" font-size="14.00">2</text>
</g>
<!-- r9&#45;&gt;r9 -->
<g id="edge31" class="edge">
<title>r9:e&#45;&gt;r9:ne</title>
<path fill="none" stroke="black" d="M1117,-434C1141.14,-423.5 1189.14,-423.5 1189.14,-443 1189.14,-461.4 1104.22,-462.44 1046.99,-453.68"/>
<polygon fill="black" stroke="black" points="1047.44,-450.21 1037,-452 1046.28,-457.11 1047.44,-450.21"/>
<text text-anchor="middle" x="1054.5" y="-455.8" font-family="Times,serif" font-size="14.00">partial</text>
<text text-anchor="middle" x="1136.5" y="-437.8" font-family="Times,serif" font-size="14.00">/partial</text>
</g>
<!-- r22 -->
<g id="node28" class="node">
<title>r22</title>
<g id="a_node28"><a xlink:href="file:///Users/andrew/workspace/flow/flowstdlib/data/buffer/buffer.html" xlink:title="buffer_bounds (#22)">
<ellipse fill="coral" stroke="black" cx="831" cy="-347" rx="83.39" ry="18"/>
<text text-anchor="middle" x="831" y="-343.3" font-family="Times,serif" font-size="14.00">buffer_bounds (#22)</text>
</a>
</g>
</g>
<!-- r9&#45;&gt;r22 -->
<g id="edge32" class="edge">
<title>r9:s&#45;&gt;r22:n</title>
<path fill="none" stroke="black" d="M1019,-416C1019,-396.89 872.48,-388.64 838.14,-372.08"/>
<polygon fill="black" stroke="black" points="840.57,-369.56 831,-365 835.64,-374.53 840.57,-369.56"/>
<text text-anchor="middle" x="1000.5" y="-404.8" font-family="Times,serif" font-size="14.00">/chunk</text>
</g>
<!-- initializerr7_1 -->
<!-- initializerr7_1&#45;&gt;r7 -->
<g id="edge25" class="edge">
<title>initializerr7_1&#45;&gt;r7:n</title>
<path fill="none" stroke="blue" stroke-dasharray="1,5" d="M805.83,-642.31C820.17,-622.09 841.86,-586.23 845.48,-550.17"/>
<polygon fill="blue" stroke="blue" points="848.98,-550.17 846,-540 841.99,-549.81 848.98,-550.17"/>
<text text-anchor="middle" x="830" y="-612.8" font-family="Times,serif" font-size="14.00">[]</text>
</g>
<!-- initializerr7_2 -->
<!-- initializerr7_2&#45;&gt;r7 -->
<g id="edge26" class="edge">
<title>initializerr7_2&#45;&gt;r7:n</title>
<path fill="none" stroke="blue" d="M643.7,-647.47C709.14,-629 826.8,-590.69 843.9,-549.86"/>
<polygon fill="blue" stroke="blue" points="847.34,-550.51 846,-540 840.5,-549.05 847.34,-550.51"/>
<text text-anchor="middle" x="755.5" y="-612.8" font-family="Times,serif" font-size="14.00">2</text>
</g>
<!-- initializerr9_1 -->
<!-- initializerr9_1&#45;&gt;r9 -->
<g id="edge29" class="edge">
<title>initializerr9_1&#45;&gt;r9:n</title>
<path fill="none" stroke="blue" stroke-dasharray="1,5" d="M1664.26,-510.58C1649.12,-507.9 1632.41,-505.14 1617,-503 1474.5,-483.24 1438.36,-482.02 1295,-470 1281.39,-468.86 1074,-467.67 1027.99,-456.63"/>
<polygon fill="blue" stroke="blue" points="1029.49,-453.47 1019,-452 1026.29,-459.69 1029.49,-453.47"/>
<text text-anchor="middle" x="1472" y="-473.8" font-family="Times,serif" font-size="14.00">[]</text>
</g>
<!-- initializerr9_2 -->
<!-- initializerr9_2&#45;&gt;r9 -->
<g id="edge30" class="edge">
<title>initializerr9_2&#45;&gt;r9:n</title>
<path fill="none" stroke="blue" d="M1471.25,-510.7C1456.4,-508.06 1440.06,-505.28 1425,-503 1424.36,-502.9 1091.44,-461.68 1029.02,-453.42"/>
<polygon fill="blue" stroke="blue" points="1029.39,-449.94 1019,-452 1028.41,-456.87 1029.39,-449.94"/>
<text text-anchor="middle" x="1273.5" y="-473.8" font-family="Times,serif" font-size="14.00">2</text>
</g>
<!-- r22&#45;&gt;r22 -->
<g id="edge48" class="edge">
<title>r22:e&#45;&gt;r22:n</title>
<path fill="none" stroke="black" d="M915,-347C938.19,-338 986.19,-338 986.19,-356 986.19,-372.91 894.88,-373.93 840.93,-366.53"/>
<polygon fill="black" stroke="black" points="841.42,-363.07 831,-365 840.35,-369.99 841.42,-363.07"/>
</g>
<!-- r22&#45;&gt;r17 -->
<g id="edge49" class="edge">
<title>r22:e&#45;&gt;r17:n</title>
<path fill="none" stroke="black" d="M916,-347C1009.76,-347 1161.33,-304.24 1096,-237 1073.45,-213.79 550.45,-248.35 479.05,-225.1"/>
<polygon fill="black" stroke="black" points="481.08,-222.25 471,-219 476.86,-227.83 481.08,-222.25"/>
<text text-anchor="middle" x="491" y="-222.8" font-family="Times,serif" font-size="14.00">bounds</text>
</g>
<!-- initializerr16_1 -->
<!-- initializerr16_1&#45;&gt;r16 -->
<g id="edge33" class="edge">
<title>initializerr16_1&#45;&gt;r16:w</title>
<path fill="none" stroke="blue" stroke-dasharray="1,5" d="M458.85,-503.01C470.58,-480.2 494.97,-441.74 528.73,-435.02"/>
<polygon fill="blue" stroke="blue" points="529.39,-438.47 539,-434 528.7,-431.5 529.39,-438.47"/>
<text text-anchor="middle" x="482.5" y="-473.8" font-family="Times,serif" font-size="14.00">1</text>
</g>
<!-- r14&#45;&gt;r12 -->
<g id="edge36" class="edge">
<title>r14:e&#45;&gt;r12:ne</title>
<path fill="none" stroke="black" d="M353,-434C442.66,-434 460.86,-467.78 550,-477.5 808.47,-505.7 875.81,-498.02 1135,-477.5 1202.86,-472.13 1330.9,-499.63 1301.69,-459.64"/>
<polygon fill="black" stroke="black" points="1304.22,-457.22 1295,-452 1298.96,-461.83 1304.22,-457.22"/>
<text text-anchor="middle" x="1314.5" y="-455.8" font-family="Times,serif" font-size="14.00">control</text>
<text text-anchor="middle" x="377" y="-437.8" font-family="Times,serif" font-size="14.00">/right&#45;lte</text>
</g>
<!-- r14&#45;&gt;r14 -->
<g id="edge38" class="edge">
<title>r14:s&#45;&gt;r14:n</title>
<path fill="none" stroke="black" d="M289,-416C334.01,-405.5 424.04,-405.5 424.04,-434 424.04,-460.55 345.9,-462.37 298.82,-454"/>
<polygon fill="black" stroke="black" points="299.5,-450.57 289,-452 298.1,-457.43 299.5,-450.57"/>
<text text-anchor="middle" x="298.5" y="-455.8" font-family="Times,serif" font-size="14.00">left</text>
<text text-anchor="middle" x="270.5" y="-404.8" font-family="Times,serif" font-size="14.00">/left&#45;gt</text>
</g>
<!-- r14&#45;&gt;r11 -->
<g id="edge37" class="edge">
<title>r14:e&#45;&gt;r11:n</title>
<path fill="none" stroke="black" d="M353,-434C361.01,-434 355.47,-423.22 352,-416 339,-388.95 304.53,-396.41 296.63,-375.14"/>
<polygon fill="black" stroke="black" points="300.04,-374.32 295,-365 293.13,-375.43 300.04,-374.32"/>
<text text-anchor="middle" x="280" y="-368.8" font-family="Times,serif" font-size="14.00">value</text>
<text text-anchor="middle" x="377" y="-422.8" font-family="Times,serif" font-size="14.00">/right&#45;lte</text>
</g>
<!-- r15 -->
<g id="node33" class="node">
<title>r15</title>
<g id="a_node33"><a xlink:href="file:///Users/andrew/workspace/flow/flowstdlib/math/add/add.html" xlink:title="add (#15)">
<ellipse fill="coral" stroke="black" cx="85" cy="-347" rx="44.69" ry="18"/>
<text text-anchor="middle" x="85" y="-343.3" font-family="Times,serif" font-size="14.00">add (#15)</text>
</a>
</g>
</g>
<!-- r14&#45;&gt;r15 -->
<g id="edge39" class="edge">
<title>r14:e&#45;&gt;r15:n</title>
<path fill="none" stroke="black" d="M353,-434C361.01,-434 357.14,-422.15 352,-416 346.95,-409.95 221.75,-384.46 214,-383 189.22,-378.32 109.73,-390.1 89.64,-374.08"/>
<polygon fill="black" stroke="black" points="92.67,-372.31 85,-365 86.44,-375.5 92.67,-372.31"/>
<text text-anchor="middle" x="79.5" y="-368.8" font-family="Times,serif" font-size="14.00">i1</text>
<text text-anchor="middle" x="332" y="-437.8" font-family="Times,serif" font-size="14.00">/right&#45;lt</text>
</g>
<!-- initializerr14_1 -->
<!-- initializerr14_1&#45;&gt;r14 -->
<g id="edge35" class="edge">
<title>initializerr14_1&#45;&gt;r14:ne</title>
<path fill="none" stroke="blue" stroke-dasharray="1,5" d="M257.24,-503.05C262.76,-492.76 270.71,-479.77 280,-470 284.99,-464.75 294.39,-462.77 300.96,-460.72"/>
<polygon fill="blue" stroke="blue" points="304.03,-462.41 306,-452 297.97,-458.91 304.03,-462.41"/>
<text text-anchor="middle" x="283.5" y="-473.8" font-family="Times,serif" font-size="14.00">0</text>
</g>
<!-- r13 -->
<g id="node35" class="node">
<title>r13</title>
<g id="a_node35"><a xlink:href="file:///Users/andrew/workspace/flow/flowstdlib/data/enumerate/enumerate.html" xlink:title="enumerate (#13)">
<ellipse fill="coral" stroke="black" cx="389" cy="-274" rx="69.59" ry="18"/>
<text text-anchor="middle" x="389" y="-270.3" font-family="Times,serif" font-size="14.00">enumerate (#13)</text>
</a>
</g>
</g>
<!-- r11&#45;&gt;r13 -->
<g id="edge45" class="edge">
<title>r11:e&#45;&gt;r13:n</title>
<path fill="none" stroke="black" d="M372,-347C394.29,-347 390.65,-324.68 389.34,-302.01"/>
<polygon fill="black" stroke="black" points="392.83,-301.88 389,-292 385.84,-302.11 392.83,-301.88"/>
</g>
<!-- r15&#45;&gt;r14 -->
<g id="edge42" class="edge">
<title>r15:se&#45;&gt;r14:ne</title>
<path fill="none" stroke="black" d="M102,-329C110.76,-320.24 118.45,-325.14 129.85,-330 169.79,-347.02 160.78,-379.35 200,-398 230.73,-412.61 329.44,-390.57 352.04,-416 362.38,-427.63 362.92,-439.88 352.04,-451 346.68,-456.49 327.53,-458.38 315.24,-455.93"/>
<polygon fill="black" stroke="black" points="316.57,-452.69 306,-452 313.84,-459.13 316.57,-452.69"/>
<text text-anchor="middle" x="319" y="-455.8" font-family="Times,serif" font-size="14.00">right</text>
<text text-anchor="middle" x="88" y="-317.8" font-family="Times,serif" font-size="14.00">/sum</text>
</g>
<!-- r15&#45;&gt;r15 -->
<g id="edge41" class="edge">
<title>r15:se&#45;&gt;r15:ne</title>
<path fill="none" stroke="black" d="M102,-330C140.95,-321 201.85,-321 201.85,-347 201.85,-370.87 150.53,-372.83 111.98,-366.02"/>
<polygon fill="black" stroke="black" points="112.5,-362.56 102,-364 111.11,-369.42 112.5,-362.56"/>
<text text-anchor="middle" x="96.5" y="-367.8" font-family="Times,serif" font-size="14.00">i2</text>
<text text-anchor="middle" x="109.5" y="-318.8" font-family="Times,serif" font-size="14.00">/i2</text>
</g>
<!-- initializerr15_1 -->
<!-- initializerr15_1&#45;&gt;r15 -->
<g id="edge40" class="edge">
<title>initializerr15_1&#45;&gt;r15:w</title>
<path fill="none" stroke="blue" stroke-dasharray="1,5" d="M71.82,-416.42C50.65,-395.14 18.69,-359.76 29.29,-349.73"/>
<polygon fill="blue" stroke="blue" points="30.32,-353.08 39,-347 28.43,-346.34 30.32,-353.08"/>
<text text-anchor="middle" x="58.5" y="-386.8" font-family="Times,serif" font-size="14.00">1</text>
</g>
<!-- r13&#45;&gt;r17 -->
<g id="edge46" class="edge">
<title>r13:e&#45;&gt;r17:ne</title>
<path fill="none" stroke="black" d="M460,-274C483.79,-274 501.96,-247.23 493.72,-227.46"/>
<polygon fill="black" stroke="black" points="496.5,-225.33 488,-219 490.7,-229.25 496.5,-225.33"/>
<text text-anchor="middle" x="474" y="-222.8" font-family="Times,serif" font-size="14.00">pixel</text>
</g>
<!-- r23 -->
<g id="node37" class="node">
<title>r23</title>
<g id="a_node37"><a xlink:href="file:///Users/andrew/workspace/flow/samples/mandlebrot/render_pixel/render_pixel.html" xlink:title="p2v (#23)">
<ellipse fill="coral" stroke="black" cx="2033" cy="-107" rx="45.49" ry="18"/>
<text text-anchor="middle" x="2033" y="-103.3" font-family="Times,serif" font-size="14.00">p2v (#23)</text>
</a>
</g>
</g>
<!-- r17&#45;&gt;r23 -->
<g id="edge47" class="edge">
<title>r17:e&#45;&gt;r23:n</title>
<path fill="none" stroke="black" d="M518,-201C558.24,-201 1903.56,-171.02 2024.35,-131.62"/>
<polygon fill="black" stroke="black" points="2026.52,-134.38 2033,-126 2022.71,-128.51 2026.52,-134.38"/>
<text text-anchor="middle" x="2002" y="-129.8" font-family="Times,serif" font-size="14.00">pixel_point</text>
</g>
<!-- r23&#45;&gt;r21 -->
<g id="edge52" class="edge">
<title>r23:s&#45;&gt;r21:n</title>
<path fill="none" stroke="black" d="M2033,-89C2033,-74.71 2043.99,-71.33 2048.79,-61.81"/>
<polygon fill="black" stroke="black" points="2052.22,-62.52 2051,-52 2045.39,-60.99 2052.22,-62.52"/>
<text text-anchor="middle" x="2065" y="-55.8" font-family="Times,serif" font-size="14.00">pixel</text>
<text text-anchor="middle" x="2027.5" y="-77.8" font-family="Times,serif" font-size="14.00">/0</text>
</g>
<!-- r23&#45;&gt;r21 -->
<g id="edge53" class="edge">
<title>r23:sw&#45;&gt;r21:ne</title>
<path fill="none" stroke="black" d="M2016,-89C2007.56,-80.56 2025.39,-77.09 2035,-70 2042.74,-64.29 2056.35,-63.13 2064.63,-61.06"/>
<polygon fill="black" stroke="black" points="2067.81,-62.53 2069,-52 2061.51,-59.49 2067.81,-62.53"/>
<text text-anchor="middle" x="2084" y="-55.8" font-family="Times,serif" font-size="14.00">value</text>
<text text-anchor="middle" x="2010.5" y="-77.8" font-family="Times,serif" font-size="14.00">/1</text>
</g>
</g>
</svg>
