<?xml version="1.0" encoding="UTF-8" standalone="no"?>
<!DOCTYPE svg PUBLIC "-//W3C//DTD SVG 1.1//EN"
 "http://www.w3.org/Graphics/SVG/1.1/DTD/svg11.dtd">
<!-- Generated by graphviz version 2.40.1 (20161225.0304)
 -->
<!-- Title: mandlebrot Pages: 1 -->
<svg width="3094pt" height="1355pt"
 viewBox="0.00 0.00 3094.00 1355.00" xmlns="http://www.w3.org/2000/svg" xmlns:xlink="http://www.w3.org/1999/xlink">
<g id="graph0" class="graph" transform="scale(1 1) rotate(0) translate(4 1351)">
<title>mandlebrot</title>
<polygon fill="#ffffff" stroke="transparent" points="-4,4 -4,-1351 3090,-1351 3090,4 -4,4"/>
<text text-anchor="middle" x="1543" y="-1331.8" font-family="Times,serif" font-size="14.00" fill="#000000">/mandlebrot</text>
<g id="clust1" class="cluster">
<title>cluster_parse_args</title>
<polygon fill="none" stroke="#000000" points="101,-508 101,-1316 2385,-1316 2385,-508 101,-508"/>
<text text-anchor="middle" x="1243" y="-1300.8" font-family="Times,serif" font-size="14.00" fill="#000000">/mandlebrot/parse_args</text>
</g>
<g id="clust2" class="cluster">
<title>cluster_generate_pixels</title>
<polygon fill="none" stroke="#000000" points="2393,-213 2393,-1097 3012,-1097 3012,-213 2393,-213"/>
<text text-anchor="middle" x="2702.5" y="-1081.8" font-family="Times,serif" font-size="14.00" fill="#000000">/mandlebrot/generate_pixels</text>
</g>
<g id="clust3" class="cluster">
<title>cluster_y_sequence</title>
<polygon fill="none" stroke="#000000" points="2573,-435 2573,-1066 3004,-1066 3004,-435 2573,-435"/>
<text text-anchor="middle" x="2788.5" y="-1050.8" font-family="Times,serif" font-size="14.00" fill="#000000">/mandlebrot/generate_pixels/y&#45;sequence</text>
</g>
<g id="clust4" class="cluster">
<title>cluster_render</title>
<polygon fill="none" stroke="#000000" points="2419,-8 2419,-194 2627,-194 2627,-8 2419,-8"/>
<text text-anchor="middle" x="2523" y="-178.8" font-family="Times,serif" font-size="14.00" fill="#000000">/mandlebrot/render</text>
</g>
<!-- r12 -->
<g id="node1" class="node">
<title>r12</title>
<g id="a_node1"><a xlink:href="file:///home/travis/build/andrewdavidmackenzie/flow/flowr/src/lib/flowruntime/args/get.html" xlink:title="args (#12)">
<ellipse fill="#ff7f50" stroke="#000000" cx="621" cy="-1267" rx="60.3893" ry="18"/>
<text text-anchor="middle" x="621" y="-1263.3" font-family="Times,serif" font-size="14.00" fill="#000000">args (#12)</text>
</a>
</g>
</g>
<!-- r4 -->
<g id="node2" class="node">
<title>r4</title>
<g id="a_node2"><a xlink:href="file:///home/travis/build/andrewdavidmackenzie/flow/flowstdlib/data/buffer/buffer.html" xlink:title="filename_buffer (#4)">
<ellipse fill="#ff7f50" stroke="#000000" cx="216" cy="-1142" rx="107.4815" ry="18"/>
<text text-anchor="middle" x="216" y="-1138.3" font-family="Times,serif" font-size="14.00" fill="#000000">filename_buffer (#4)</text>
</a>
</g>
</g>
<!-- r12&#45;&gt;r4 -->
<g id="edge1" class="edge">
<title>r12:s&#45;&gt;r4:n</title>
<path fill="none" stroke="#000000" d="M621,-1249C621,-1227.0053 451.4717,-1201.7678 430,-1197 386.5672,-1187.3556 241.345,-1205.0634 218.9191,-1170.0785"/>
<polygon fill="#000000" stroke="#000000" points="222.1439,-1168.6315 216,-1160 215.4203,-1170.579 222.1439,-1168.6315"/>
<text text-anchor="middle" x="590.5" y="-1237.8" font-family="Times,serif" font-size="14.00" fill="#000000">/string/1</text>
</g>
<!-- r15 -->
<g id="node3" class="node">
<title>r15</title>
<g id="a_node3"><a xlink:href="file:///home/travis/build/andrewdavidmackenzie/flow/flowstdlib/data/ordered_split/ordered_split.html" xlink:title="split_size (#15)">
<ellipse fill="#ff7f50" stroke="#000000" cx="1461" cy="-1142" rx="83.3857" ry="18"/>
<text text-anchor="middle" x="1461" y="-1138.3" font-family="Times,serif" font-size="14.00" fill="#000000">split_size (#15)</text>
</a>
</g>
</g>
<!-- r12&#45;&gt;r15 -->
<g id="edge2" class="edge">
<title>r12:se&#45;&gt;r15:n</title>
<path fill="none" stroke="#000000" d="M638,-1250C687.9965,-1200.0035 718.6657,-1210.8587 788,-1197 805.0686,-1193.5883 1372.0869,-1180.7228 1451.7394,-1163.8859"/>
<polygon fill="#000000" stroke="#000000" points="1453.1332,-1167.0968 1461,-1160 1450.4246,-1160.642 1453.1332,-1167.0968"/>
<text text-anchor="middle" x="1439.5" y="-1163.8" font-family="Times,serif" font-size="14.00" fill="#000000">string</text>
<text text-anchor="middle" x="668.5" y="-1238.8" font-family="Times,serif" font-size="14.00" fill="#000000">/string/2</text>
</g>
<!-- r7 -->
<g id="node4" class="node">
<title>r7</title>
<g id="a_node4"><a xlink:href="file:///home/travis/build/andrewdavidmackenzie/flow/flowstdlib/data/ordered_split/ordered_split.html" xlink:title="split_upper_left (#7)">
<ellipse fill="#ff7f50" stroke="#000000" cx="936" cy="-1142" rx="107.4815" ry="18"/>
<text text-anchor="middle" x="936" y="-1138.3" font-family="Times,serif" font-size="14.00" fill="#000000">split_upper_left (#7)</text>
</a>
</g>
</g>
<!-- r12&#45;&gt;r7 -->
<g id="edge3" class="edge">
<title>r12:e&#45;&gt;r7:n</title>
<path fill="none" stroke="#000000" d="M682,-1267C699.4921,-1267 700.7373,-1255.4421 717,-1249 772.4527,-1227.0334 791.101,-1235.3159 846,-1212 885.0326,-1195.4226 928.2438,-1204.3899 935.0705,-1170.2377"/>
<polygon fill="#000000" stroke="#000000" points="938.5813,-1170.2755 936,-1160 931.61,-1169.6425 938.5813,-1170.2755"/>
<text text-anchor="middle" x="914.5" y="-1163.8" font-family="Times,serif" font-size="14.00" fill="#000000">string</text>
<text text-anchor="middle" x="712.5" y="-1270.8" font-family="Times,serif" font-size="14.00" fill="#000000">/string/3</text>
</g>
<!-- r8 -->
<g id="node5" class="node">
<title>r8</title>
<g id="a_node5"><a xlink:href="file:///home/travis/build/andrewdavidmackenzie/flow/flowstdlib/data/ordered_split/ordered_split.html" xlink:title="split_lower_right (#8)">
<ellipse fill="#ff7f50" stroke="#000000" cx="526" cy="-1142" rx="113.18" ry="18"/>
<text text-anchor="middle" x="526" y="-1138.3" font-family="Times,serif" font-size="14.00" fill="#000000">split_lower_right (#8)</text>
</a>
</g>
</g>
<!-- r12&#45;&gt;r8 -->
<g id="edge4" class="edge">
<title>r12:se&#45;&gt;r8:n</title>
<path fill="none" stroke="#000000" d="M638,-1250C658.3724,-1229.6276 550.7859,-1198.7382 529.5786,-1169.4408"/>
<polygon fill="#000000" stroke="#000000" points="532.8173,-1168.1102 526,-1160 526.2717,-1170.5914 532.8173,-1168.1102"/>
<text text-anchor="middle" x="504.5" y="-1163.8" font-family="Times,serif" font-size="14.00" fill="#000000">string</text>
<text text-anchor="middle" x="668.5" y="-1253.8" font-family="Times,serif" font-size="14.00" fill="#000000">/string/4</text>
</g>
<!-- r4&#45;&gt;r4 -->
<g id="edge54" class="edge">
<title>r4:e&#45;&gt;r4:n</title>
<path fill="none" stroke="#000000" d="M323,-1142C347.2405,-1133 395.2405,-1133 395.2405,-1151 395.2405,-1168.0508 288.0174,-1168.9499 225.9243,-1161.3474"/>
<polygon fill="#000000" stroke="#000000" points="226.38,-1157.8773 216,-1160 225.4382,-1164.8136 226.38,-1157.8773"/>
</g>
<!-- r3 -->
<g id="node38" class="node">
<title>r3</title>
<g id="a_node38"><a xlink:href="file:///home/travis/build/andrewdavidmackenzie/flow/flowr/src/lib/flowruntime/image/image_buffer.html" xlink:title="image_buffer (#3)">
<ellipse fill="#ff7f50" stroke="#000000" cx="2523" cy="-34" rx="95.5831" ry="18"/>
<text text-anchor="middle" x="2523" y="-30.3" font-family="Times,serif" font-size="14.00" fill="#000000">image_buffer (#3)</text>
</a>
</g>
</g>
<!-- r4&#45;&gt;r3 -->
<g id="edge55" class="edge">
<title>r4:e&#45;&gt;r3:w</title>
<path fill="none" stroke="#000000" d="M323,-1142C331,-1142 327.6837,-1130.4856 323,-1124 234.4618,-1001.4002 0,-1168.2274 0,-1017 0,-1017 0,-1017 0,-89.5 0,-56.853 2243.7763,-35.3947 2416.8111,-34.0655"/>
<polygon fill="#000000" stroke="#000000" points="2417.0227,-37.5643 2427,-34 2416.9777,-30.5645 2417.0227,-37.5643"/>
<text text-anchor="middle" x="2396" y="-37.8" font-family="Times,serif" font-size="14.00" fill="#000000">filename</text>
</g>
<!-- r14 -->
<g id="node7" class="node">
<title>r14</title>
<g id="a_node7"><a xlink:href="file:///home/travis/build/andrewdavidmackenzie/flow/flowstdlib/fmt/to_json/to_json.html" xlink:title="size_to_json (#14)">
<ellipse fill="#ff7f50" stroke="#000000" cx="1809" cy="-944" rx="96.3833" ry="18"/>
<text text-anchor="middle" x="1809" y="-940.3" font-family="Times,serif" font-size="14.00" fill="#000000">size_to_json (#14)</text>
</a>
</g>
</g>
<!-- r15&#45;&gt;r14 -->
<g id="edge6" class="edge">
<title>r15:e&#45;&gt;r14:n</title>
<path fill="none" stroke="#000000" d="M1545,-1142C1683.5439,-1142 1803.0316,-1105.8432 1808.7834,-972.2161"/>
<polygon fill="#000000" stroke="#000000" points="1812.2871,-972.072 1809,-962 1805.2887,-971.9235 1812.2871,-972.072"/>
</g>
<!-- r10 -->
<g id="node16" class="node">
<title>r10</title>
<g id="a_node16"><a xlink:href="file:///home/travis/build/andrewdavidmackenzie/flow/flowstdlib/fmt/to_json/to_json.html" xlink:title="upper_left_to_json (#10)">
<ellipse fill="#ff7f50" stroke="#000000" cx="1043" cy="-944" rx="126.1777" ry="18"/>
<text text-anchor="middle" x="1043" y="-940.3" font-family="Times,serif" font-size="14.00" fill="#000000">upper_left_to_json (#10)</text>
</a>
</g>
</g>
<!-- r7&#45;&gt;r10 -->
<g id="edge16" class="edge">
<title>r7:e&#45;&gt;r10:n</title>
<path fill="none" stroke="#000000" d="M1043,-1142C1119.5625,-1142 1049.5796,-1050.4091 1043.4241,-972.4138"/>
<polygon fill="#000000" stroke="#000000" points="1046.9041,-971.8493 1043,-962 1039.9099,-972.1342 1046.9041,-971.8493"/>
</g>
<!-- r13 -->
<g id="node19" class="node">
<title>r13</title>
<g id="a_node19"><a xlink:href="file:///home/travis/build/andrewdavidmackenzie/flow/flowstdlib/fmt/to_json/to_json.html" xlink:title="lower_right_to_json (#13)">
<ellipse fill="#ff7f50" stroke="#000000" cx="477" cy="-944" rx="131.8766" ry="18"/>
<text text-anchor="middle" x="477" y="-940.3" font-family="Times,serif" font-size="14.00" fill="#000000">lower_right_to_json (#13)</text>
</a>
</g>
</g>
<!-- r8&#45;&gt;r13 -->
<g id="edge19" class="edge">
<title>r8:e&#45;&gt;r13:n</title>
<path fill="none" stroke="#000000" d="M639,-1142C647,-1142 642.0615,-1131.391 639,-1124 601.4038,-1033.2347 485.5469,-1061.5982 477.4472,-972.2474"/>
<polygon fill="#000000" stroke="#000000" points="480.9327,-971.8379 477,-962 473.9394,-972.1431 480.9327,-971.8379"/>
</g>
<!-- initializerr15_1 -->
<!-- initializerr15_1&#45;&gt;r15 -->
<g id="edge5" class="edge">
<title>initializerr15_1&#45;&gt;r15:w</title>
<path fill="none" stroke="#0000ff" d="M1369.692,-1248.8239C1357.8853,-1217.2702 1338.6589,-1154.6628 1367.1234,-1143.6678"/>
<polygon fill="#0000ff" stroke="#0000ff" points="1367.7224,-1147.1163 1377,-1142 1366.5568,-1140.214 1367.7224,-1147.1163"/>
<text text-anchor="middle" x="1368" y="-1200.8" font-family="Times,serif" font-size="14.00" fill="#000000">&quot;x&quot;</text>
</g>
<!-- r16 -->
<g id="node8" class="node">
<title>r16</title>
<g id="a_node8"><a xlink:href="file:///home/travis/build/andrewdavidmackenzie/flow/flowstdlib/data/accumulate/accumulate.html" xlink:title="accumulate_size (#16)">
<ellipse fill="#ff7f50" stroke="#000000" cx="2059" cy="-805" rx="116.9792" ry="18"/>
<text text-anchor="middle" x="2059" y="-801.3" font-family="Times,serif" font-size="14.00" fill="#000000">accumulate_size (#16)</text>
</a>
</g>
</g>
<!-- r14&#45;&gt;r16 -->
<g id="edge7" class="edge">
<title>r14:e&#45;&gt;r16:n</title>
<path fill="none" stroke="#000000" d="M1906,-944C1910.6988,-944 2022.3063,-857.081 2051.8691,-830.4596"/>
<polygon fill="#000000" stroke="#000000" points="2054.62,-832.6471 2059,-823 2049.56,-827.8101 2054.62,-832.6471"/>
<text text-anchor="middle" x="2036" y="-826.8" font-family="Times,serif" font-size="14.00" fill="#000000">values</text>
</g>
<!-- r16&#45;&gt;r16 -->
<g id="edge10" class="edge">
<title>r16:e&#45;&gt;r16:ne</title>
<path fill="none" stroke="#000000" d="M2176,-805C2199.9896,-796 2247.9896,-796 2247.9896,-814 2247.9896,-831.0859 2150.6861,-831.9536 2086.9252,-824.3003"/>
<polygon fill="#000000" stroke="#000000" points="2087.3699,-820.8287 2077,-823 2086.4606,-827.7694 2087.3699,-820.8287"/>
<text text-anchor="middle" x="2101" y="-826.8" font-family="Times,serif" font-size="14.00" fill="#000000">partial</text>
<text text-anchor="middle" x="2202" y="-808.8" font-family="Times,serif" font-size="14.00" fill="#000000">/partial</text>
</g>
<!-- r21 -->
<g id="node11" class="node">
<title>r21</title>
<g id="a_node11"><a xlink:href="file:///home/travis/build/andrewdavidmackenzie/flow/flowstdlib/math/subtract/subtract.html" xlink:title="height (#21)">
<ellipse fill="#ff7f50" stroke="#000000" cx="2038" cy="-659" rx="69.5877" ry="18"/>
<text text-anchor="middle" x="2038" y="-655.3" font-family="Times,serif" font-size="14.00" fill="#000000">height (#21)</text>
</a>
</g>
</g>
<!-- r16&#45;&gt;r21 -->
<g id="edge11" class="edge">
<title>r16:sw&#45;&gt;r21:n</title>
<path fill="none" stroke="#000000" d="M2041,-787C2026.9279,-772.9279 2010.8821,-785.6622 2000,-769 1977.7936,-734.9987 2028.3781,-723.1755 2036.8265,-687.2434"/>
<polygon fill="#000000" stroke="#000000" points="2040.339,-687.3334 2038,-677 2033.3845,-686.5366 2040.339,-687.3334"/>
<text text-anchor="middle" x="2031" y="-680.8" font-family="Times,serif" font-size="14.00" fill="#000000">i1</text>
<text text-anchor="middle" x="2009.5" y="-775.8" font-family="Times,serif" font-size="14.00" fill="#000000">/chunk/1</text>
</g>
<!-- r22 -->
<g id="node12" class="node">
<title>r22</title>
<g id="a_node12"><a xlink:href="file:///home/travis/build/andrewdavidmackenzie/flow/flowstdlib/control/join/join.html" xlink:title="width&#45;gate (#22)">
<ellipse fill="#ff7f50" stroke="#000000" cx="2269" cy="-659" rx="89.8845" ry="18"/>
<text text-anchor="middle" x="2269" y="-655.3" font-family="Times,serif" font-size="14.00" fill="#000000">width&#45;gate (#22)</text>
</a>
</g>
</g>
<!-- r16&#45;&gt;r22 -->
<g id="edge12" class="edge">
<title>r16:s&#45;&gt;r22:n</title>
<path fill="none" stroke="#000000" d="M2059,-787C2059,-762.123 2089.3745,-779.3417 2112,-769 2182.2516,-736.8894 2261.523,-755.9675 2268.5033,-687.2879"/>
<polygon fill="#000000" stroke="#000000" points="2272.0136,-687.1572 2269,-677 2265.0217,-686.8195 2272.0136,-687.1572"/>
<text text-anchor="middle" x="2253" y="-680.8" font-family="Times,serif" font-size="14.00" fill="#000000">data</text>
<text text-anchor="middle" x="2090.5" y="-775.8" font-family="Times,serif" font-size="14.00" fill="#000000">/chunk/0</text>
</g>
<!-- r1 -->
<g id="node13" class="node">
<title>r1</title>
<g id="a_node13"><a xlink:href="file:///home/travis/build/andrewdavidmackenzie/flow/flowstdlib/data/buffer/buffer.html" xlink:title="buffer_size (#1)">
<ellipse fill="#ff7f50" stroke="#000000" cx="1533" cy="-659" rx="85.2851" ry="18"/>
<text text-anchor="middle" x="1533" y="-655.3" font-family="Times,serif" font-size="14.00" fill="#000000">buffer_size (#1)</text>
</a>
</g>
</g>
<!-- r16&#45;&gt;r1 -->
<g id="edge13" class="edge">
<title>r16:s&#45;&gt;r1:n</title>
<path fill="none" stroke="#000000" d="M2059,-787C2059,-730.5566 1588.9581,-735.8855 1537.5473,-686.1984"/>
<polygon fill="#000000" stroke="#000000" points="1540.5692,-684.4133 1533,-677 1534.2941,-687.5155 1540.5692,-684.4133"/>
<text text-anchor="middle" x="2034.5" y="-775.8" font-family="Times,serif" font-size="14.00" fill="#000000">/chunk</text>
</g>
<!-- r6 -->
<g id="node14" class="node">
<title>r6</title>
<g id="a_node14"><a xlink:href="file:///home/travis/build/andrewdavidmackenzie/flow/flowstdlib/data/buffer/buffer.html" xlink:title="size_buffer (#6)">
<ellipse fill="#ff7f50" stroke="#000000" cx="1793" cy="-659" rx="85.2851" ry="18"/>
<text text-anchor="middle" x="1793" y="-655.3" font-family="Times,serif" font-size="14.00" fill="#000000">size_buffer (#6)</text>
</a>
</g>
</g>
<!-- r16&#45;&gt;r6 -->
<g id="edge14" class="edge">
<title>r16:s&#45;&gt;r6:n</title>
<path fill="none" stroke="#000000" d="M2059,-787C2059,-745.0594 2069.81,-722.3338 2038,-695 2019.5619,-679.1564 1839.6295,-698.9076 1800.4899,-684.1346"/>
<polygon fill="#000000" stroke="#000000" points="1802.6548,-681.363 1793,-677 1797.8267,-686.4315 1802.6548,-681.363"/>
<text text-anchor="middle" x="2034.5" y="-790.8" font-family="Times,serif" font-size="14.00" fill="#000000">/chunk</text>
</g>
<!-- initializerr16_1 -->
<!-- initializerr16_1&#45;&gt;r16 -->
<g id="edge8" class="edge">
<title>initializerr16_1&#45;&gt;r16:n</title>
<path fill="none" stroke="#0000ff" stroke-dasharray="1,5" d="M2259.4129,-927.7589C2202.4978,-901.5543 2094.4916,-850.8106 2066.0225,-830.2694"/>
<polygon fill="#0000ff" stroke="#0000ff" points="2068.4652,-827.7604 2059,-823 2063.4306,-832.624 2068.4652,-827.7604"/>
<text text-anchor="middle" x="2178.5" y="-877.8" font-family="Times,serif" font-size="14.00" fill="#000000">[]</text>
</g>
<!-- initializerr16_2 -->
<!-- initializerr16_2&#45;&gt;r16 -->
<g id="edge9" class="edge">
<title>initializerr16_2&#45;&gt;r16:n</title>
<path fill="none" stroke="#0000ff" d="M2059,-925.96C2059,-904.5319 2059,-867.4021 2059,-833.4232"/>
<polygon fill="#0000ff" stroke="#0000ff" points="2062.5001,-833 2059,-823 2055.5001,-833 2062.5001,-833"/>
<text text-anchor="middle" x="2064" y="-877.8" font-family="Times,serif" font-size="14.00" fill="#000000">2</text>
</g>
<!-- r18 -->
<g id="node30" class="node">
<title>r18</title>
<g id="a_node30"><a xlink:href="file:///home/travis/build/andrewdavidmackenzie/flow/flowstdlib/control/compare_switch/compare_switch.html" xlink:title="compare (#18)">
<ellipse fill="#ff7f50" stroke="#000000" cx="2662" cy="-732" rx="80.6858" ry="18"/>
<text text-anchor="middle" x="2662" y="-728.3" font-family="Times,serif" font-size="14.00" fill="#000000">compare (#18)</text>
</a>
</g>
</g>
<!-- r21&#45;&gt;r18 -->
<g id="edge34" class="edge">
<title>r21:se&#45;&gt;r18:n</title>
<path fill="none" stroke="#000000" d="M2056,-641C2064.0993,-632.9007 2096.9478,-636.65 2107.5438,-641 2128.609,-649.6479 2123.1361,-667.8771 2144,-677 2174.5278,-690.3485 2720.1656,-689.3596 2742.5928,-714 2742.5928,-714 2692.4142,-736.4143 2671.245,-745.8703"/>
<polygon fill="#000000" stroke="#000000" points="2669.703,-742.7258 2662,-750 2672.558,-749.1171 2669.703,-742.7258"/>
<text text-anchor="middle" x="2649.5" y="-753.8" font-family="Times,serif" font-size="14.00" fill="#000000">left</text>
<text text-anchor="middle" x="2041.5" y="-629.8" font-family="Times,serif" font-size="14.00" fill="#000000">/diff</text>
</g>
<!-- r22&#45;&gt;r22 -->
<g id="edge43" class="edge">
<title>r22:e&#45;&gt;r22:n</title>
<path fill="none" stroke="#000000" d="M2359,-659C2382.692,-650 2430.692,-650 2430.692,-668 2430.692,-684.9453 2335.1595,-685.9382 2278.9967,-678.4875"/>
<polygon fill="#000000" stroke="#000000" points="2279.4063,-675.01 2269,-677 2278.3759,-681.9338 2279.4063,-675.01"/>
<text text-anchor="middle" x="2285" y="-680.8" font-family="Times,serif" font-size="14.00" fill="#000000">data</text>
</g>
<!-- r20 -->
<g id="node32" class="node">
<title>r20</title>
<g id="a_node32"><a xlink:href="file:///home/travis/build/andrewdavidmackenzie/flow/flowstdlib/data/duplicate/duplicate.html" xlink:title="y&#45;duplicator (#20)">
<ellipse fill="#ff7f50" stroke="#000000" cx="2677" cy="-461" rx="96.3833" ry="18"/>
<text text-anchor="middle" x="2677" y="-457.3" font-family="Times,serif" font-size="14.00" fill="#000000">y&#45;duplicator (#20)</text>
</a>
</g>
</g>
<!-- r22&#45;&gt;r20 -->
<g id="edge44" class="edge">
<title>r22:e&#45;&gt;r20:ne</title>
<path fill="none" stroke="#000000" d="M2359,-659C2510.1405,-659 2523.568,-566.0759 2658,-497 2667.6576,-492.0376 2683.4495,-491.181 2691.9797,-488.5973"/>
<polygon fill="#000000" stroke="#000000" points="2695.3366,-489.5895 2695,-479 2688.6595,-487.4881 2695.3366,-489.5895"/>
<text text-anchor="middle" x="2673.5" y="-482.8" font-family="Times,serif" font-size="14.00" fill="#000000">factor</text>
</g>
<!-- r1&#45;&gt;r1 -->
<g id="edge50" class="edge">
<title>r1:e&#45;&gt;r1:n</title>
<path fill="none" stroke="#000000" d="M1619,-659C1642.1424,-650 1690.1424,-650 1690.1424,-668 1690.1424,-684.9102 1597.6827,-685.934 1543.0557,-678.5338"/>
<polygon fill="#000000" stroke="#000000" points="1543.4134,-675.048 1533,-677 1542.3579,-681.9679 1543.4134,-675.048"/>
</g>
<!-- r0 -->
<g id="node36" class="node">
<title>r0</title>
<g id="a_node36"><a xlink:href="file:///home/travis/build/andrewdavidmackenzie/flow/samples/mandlebrot/pixel_to_point/pixel_to_point.html" xlink:title="p2p (#0)">
<ellipse fill="#ff7f50" stroke="#000000" cx="2453" cy="-239" rx="51.9908" ry="18"/>
<text text-anchor="middle" x="2453" y="-235.3" font-family="Times,serif" font-size="14.00" fill="#000000">p2p (#0)</text>
</a>
</g>
</g>
<!-- r1&#45;&gt;r0 -->
<g id="edge51" class="edge">
<title>r1:e&#45;&gt;r0:nw</title>
<path fill="none" stroke="#000000" d="M1619,-659C1643.877,-659 1648.1689,-648.1373 1672,-641 1747.2298,-618.469 1843,-675.0313 1843,-596.5 1843,-596.5 1843,-596.5 1843,-294.5 1843,-165.7977 2317.5735,-340.0901 2428.1164,-262.5804"/>
<polygon fill="#000000" stroke="#000000" points="2430.5657,-265.095 2436,-256 2426.0801,-259.7211 2430.5657,-265.095"/>
<text text-anchor="middle" x="2422" y="-259.8" font-family="Times,serif" font-size="14.00" fill="#000000">size</text>
</g>
<!-- r6&#45;&gt;r6 -->
<g id="edge56" class="edge">
<title>r6:e&#45;&gt;r6:n</title>
<path fill="none" stroke="#000000" d="M1879,-659C1902.1424,-650 1950.1424,-650 1950.1424,-668 1950.1424,-684.9102 1857.6827,-685.934 1803.0557,-678.5338"/>
<polygon fill="#000000" stroke="#000000" points="1803.4134,-675.048 1793,-677 1802.3579,-681.9679 1803.4134,-675.048"/>
</g>
<!-- r6&#45;&gt;r3 -->
<g id="edge57" class="edge">
<title>r6:e&#45;&gt;r3:nw</title>
<path fill="none" stroke="#000000" d="M1879,-659C1903.877,-659 1907.8212,-646.8522 1932,-641 2170.0104,-583.3922 2799.0511,-580.2986 3022,-479 3056.0141,-463.5454 3086,-461.8604 3086,-424.5 3086,-424.5 3086,-424.5 3086,-89.5 3086,-30.6221 2566.8162,-85.7485 2508.0134,-61.6411"/>
<polygon fill="#000000" stroke="#000000" points="2511.3239,-60.5005 2505,-52 2504.6427,-62.5888 2511.3239,-60.5005"/>
<text text-anchor="middle" x="2491" y="-55.8" font-family="Times,serif" font-size="14.00" fill="#000000">size</text>
</g>
<!-- initializerr7_1 -->
<!-- initializerr7_1&#45;&gt;r7 -->
<g id="edge15" class="edge">
<title>initializerr7_1&#45;&gt;r7:w</title>
<path fill="none" stroke="#0000ff" d="M821.692,-1248.8239C809.8853,-1217.2702 790.6589,-1154.6628 819.1234,-1143.6678"/>
<polygon fill="#0000ff" stroke="#0000ff" points="819.7224,-1147.1163 829,-1142 818.5568,-1140.214 819.7224,-1147.1163"/>
<text text-anchor="middle" x="818.5" y="-1200.8" font-family="Times,serif" font-size="14.00" fill="#000000">&quot;,&quot;</text>
</g>
<!-- r17 -->
<g id="node17" class="node">
<title>r17</title>
<g id="a_node17"><a xlink:href="file:///home/travis/build/andrewdavidmackenzie/flow/flowstdlib/data/accumulate/accumulate.html" xlink:title="accumulate_upper_left (#17)">
<ellipse fill="#ff7f50" stroke="#000000" cx="1246" cy="-805" rx="146.774" ry="18"/>
<text text-anchor="middle" x="1246" y="-801.3" font-family="Times,serif" font-size="14.00" fill="#000000">accumulate_upper_left (#17)</text>
</a>
</g>
</g>
<!-- r10&#45;&gt;r17 -->
<g id="edge17" class="edge">
<title>r10:e&#45;&gt;r17:n</title>
<path fill="none" stroke="#000000" d="M1169,-944C1222.2035,-944 1198.6268,-883.9691 1230,-841 1233.5504,-836.1374 1238.1691,-834.4366 1241.5309,-831.9741"/>
<polygon fill="#000000" stroke="#000000" points="1244.6751,-833.5117 1246,-823 1238.4091,-830.3912 1244.6751,-833.5117"/>
<text text-anchor="middle" x="1223" y="-826.8" font-family="Times,serif" font-size="14.00" fill="#000000">values</text>
</g>
<!-- r17&#45;&gt;r17 -->
<g id="edge23" class="edge">
<title>r17:e&#45;&gt;r17:ne</title>
<path fill="none" stroke="#000000" d="M1393,-805C1416.887,-796 1464.887,-796 1464.887,-814 1464.887,-831.1914 1348.1974,-831.9637 1274.149,-824.1576"/>
<polygon fill="#000000" stroke="#000000" points="1274.3322,-820.6559 1264,-823 1273.5389,-827.6108 1274.3322,-820.6559"/>
<text text-anchor="middle" x="1288" y="-826.8" font-family="Times,serif" font-size="14.00" fill="#000000">partial</text>
<text text-anchor="middle" x="1419" y="-808.8" font-family="Times,serif" font-size="14.00" fill="#000000">/partial</text>
</g>
<!-- r9 -->
<g id="node23" class="node">
<title>r9</title>
<g id="a_node23"><a xlink:href="file:///home/travis/build/andrewdavidmackenzie/flow/flowstdlib/data/accumulate/accumulate.html" xlink:title="accumulate_bounds (#9)">
<ellipse fill="#ff7f50" stroke="#000000" cx="763" cy="-659" rx="126.978" ry="18"/>
<text text-anchor="middle" x="763" y="-655.3" font-family="Times,serif" font-size="14.00" fill="#000000">accumulate_bounds (#9)</text>
</a>
</g>
</g>
<!-- r17&#45;&gt;r9 -->
<g id="edge24" class="edge">
<title>r17:s&#45;&gt;r9:n</title>
<path fill="none" stroke="#000000" d="M1246,-787C1246,-735.1842 817.9433,-732.2205 767.7804,-686.1296"/>
<polygon fill="#000000" stroke="#000000" points="770.7395,-684.2354 763,-677 764.5381,-687.4826 770.7395,-684.2354"/>
<text text-anchor="middle" x="740" y="-680.8" font-family="Times,serif" font-size="14.00" fill="#000000">values</text>
<text text-anchor="middle" x="1221.5" y="-775.8" font-family="Times,serif" font-size="14.00" fill="#000000">/chunk</text>
</g>
<!-- initializerr8_1 -->
<!-- initializerr8_1&#45;&gt;r8 -->
<g id="edge18" class="edge">
<title>initializerr8_1&#45;&gt;r8:w</title>
<path fill="none" stroke="#0000ff" d="M405.692,-1248.8239C393.8853,-1217.2702 374.6589,-1154.6628 403.1234,-1143.6678"/>
<polygon fill="#0000ff" stroke="#0000ff" points="403.7224,-1147.1163 413,-1142 402.5568,-1140.214 403.7224,-1147.1163"/>
<text text-anchor="middle" x="402.5" y="-1200.8" font-family="Times,serif" font-size="14.00" fill="#000000">&quot;,&quot;</text>
</g>
<!-- r11 -->
<g id="node20" class="node">
<title>r11</title>
<g id="a_node20"><a xlink:href="file:///home/travis/build/andrewdavidmackenzie/flow/flowstdlib/data/accumulate/accumulate.html" xlink:title="accumulate_lower_right (#11)">
<ellipse fill="#ff7f50" stroke="#000000" cx="763" cy="-805" rx="152.9733" ry="18"/>
<text text-anchor="middle" x="763" y="-801.3" font-family="Times,serif" font-size="14.00" fill="#000000">accumulate_lower_right (#11)</text>
</a>
</g>
</g>
<!-- r13&#45;&gt;r11 -->
<g id="edge20" class="edge">
<title>r13:e&#45;&gt;r11:n</title>
<path fill="none" stroke="#000000" d="M609,-944C613.7177,-944 726.0633,-857.0974 755.8219,-830.4662"/>
<polygon fill="#000000" stroke="#000000" points="758.5924,-832.6345 763,-823 753.5463,-827.7831 758.5924,-832.6345"/>
<text text-anchor="middle" x="740" y="-826.8" font-family="Times,serif" font-size="14.00" fill="#000000">values</text>
</g>
<!-- r11&#45;&gt;r11 -->
<g id="edge27" class="edge">
<title>r11:e&#45;&gt;r11:ne</title>
<path fill="none" stroke="#000000" d="M916,-805C939.7364,-796 987.7364,-796 987.7364,-814 987.7364,-831.2266 866.9974,-831.9668 790.9569,-824.1096"/>
<polygon fill="#000000" stroke="#000000" points="791.3261,-820.6292 781,-823 790.5508,-827.5861 791.3261,-820.6292"/>
<text text-anchor="middle" x="805" y="-826.8" font-family="Times,serif" font-size="14.00" fill="#000000">partial</text>
<text text-anchor="middle" x="942" y="-808.8" font-family="Times,serif" font-size="14.00" fill="#000000">/partial</text>
</g>
<!-- r11&#45;&gt;r9 -->
<g id="edge28" class="edge">
<title>r11:s&#45;&gt;r9:n</title>
<path fill="none" stroke="#000000" d="M763,-787C763,-741.6441 763,-727.8469 763,-687.0522"/>
<polygon fill="#000000" stroke="#000000" points="766.5001,-687 763,-677 759.5001,-687 766.5001,-687"/>
<text text-anchor="middle" x="786" y="-680.8" font-family="Times,serif" font-size="14.00" fill="#000000">values</text>
<text text-anchor="middle" x="738.5" y="-775.8" font-family="Times,serif" font-size="14.00" fill="#000000">/chunk</text>
</g>
<!-- initializerr17_1 -->
<!-- initializerr17_1&#45;&gt;r17 -->
<g id="edge21" class="edge">
<title>initializerr17_1&#45;&gt;r17:n</title>
<path fill="none" stroke="#0000ff" stroke-dasharray="1,5" d="M1513.8214,-928.9704C1437.6384,-903.3435 1288.4852,-851.8599 1253.4793,-830.138"/>
<polygon fill="#0000ff" stroke="#0000ff" points="1255.6506,-827.3722 1246,-823 1250.8177,-832.4361 1255.6506,-827.3722"/>
<text text-anchor="middle" x="1402.5" y="-877.8" font-family="Times,serif" font-size="14.00" fill="#000000">[]</text>
</g>
<!-- initializerr17_2 -->
<!-- initializerr17_2&#45;&gt;r17 -->
<g id="edge22" class="edge">
<title>initializerr17_2&#45;&gt;r17:n</title>
<path fill="none" stroke="#0000ff" d="M1302.7692,-926.5398C1281.8268,-906.5821 1251.4958,-871.6856 1246.6606,-833.3511"/>
<polygon fill="#0000ff" stroke="#0000ff" points="1250.1299,-832.7568 1246,-823 1243.1441,-833.2026 1250.1299,-832.7568"/>
<text text-anchor="middle" x="1274" y="-877.8" font-family="Times,serif" font-size="14.00" fill="#000000">2</text>
</g>
<!-- r9&#45;&gt;r9 -->
<g id="edge31" class="edge">
<title>r9:e&#45;&gt;r9:ne</title>
<path fill="none" stroke="#000000" d="M890,-659C913.7388,-650 961.7388,-650 961.7388,-668 961.7388,-685.1211 858.1542,-685.9571 791.0302,-678.2529"/>
<polygon fill="#000000" stroke="#000000" points="791.3567,-674.7666 781,-677 790.489,-681.7126 791.3567,-674.7666"/>
<text text-anchor="middle" x="805" y="-680.8" font-family="Times,serif" font-size="14.00" fill="#000000">partial</text>
<text text-anchor="middle" x="916" y="-662.8" font-family="Times,serif" font-size="14.00" fill="#000000">/partial</text>
</g>
<!-- r5 -->
<g id="node28" class="node">
<title>r5</title>
<g id="a_node28"><a xlink:href="file:///home/travis/build/andrewdavidmackenzie/flow/flowstdlib/data/buffer/buffer.html" xlink:title="buffer_bounds (#5)">
<ellipse fill="#ff7f50" stroke="#000000" cx="1332" cy="-534" rx="100.9827" ry="18"/>
<text text-anchor="middle" x="1332" y="-530.3" font-family="Times,serif" font-size="14.00" fill="#000000">buffer_bounds (#5)</text>
</a>
</g>
</g>
<!-- r9&#45;&gt;r5 -->
<g id="edge32" class="edge">
<title>r9:s&#45;&gt;r5:n</title>
<path fill="none" stroke="#000000" d="M763,-641C763,-388.5358 1316.5478,-796.5262 1331.6838,-562.1213"/>
<polygon fill="#000000" stroke="#000000" points="1335.186,-562.1044 1332,-552 1328.1894,-561.8858 1335.186,-562.1044"/>
<text text-anchor="middle" x="738.5" y="-629.8" font-family="Times,serif" font-size="14.00" fill="#000000">/chunk</text>
</g>
<!-- initializerr11_1 -->
<!-- initializerr11_1&#45;&gt;r11 -->
<g id="edge25" class="edge">
<title>initializerr11_1&#45;&gt;r11:n</title>
<path fill="none" stroke="#0000ff" stroke-dasharray="1,5" d="M253.8502,-932.3471C388.51,-907.1886 697.2581,-848.4141 753.9648,-828.018"/>
<polygon fill="#0000ff" stroke="#0000ff" points="755.9571,-830.9151 763,-823 752.5584,-824.7955 755.9571,-830.9151"/>
<text text-anchor="middle" x="557.5" y="-877.8" font-family="Times,serif" font-size="14.00" fill="#000000">[]</text>
</g>
<!-- initializerr11_2 -->
<!-- initializerr11_2&#45;&gt;r11 -->
<g id="edge26" class="edge">
<title>initializerr11_2&#45;&gt;r11:n</title>
<path fill="none" stroke="#0000ff" d="M763,-925.96C763,-904.5319 763,-867.4021 763,-833.4232"/>
<polygon fill="#0000ff" stroke="#0000ff" points="766.5001,-833 763,-823 759.5001,-833 766.5001,-833"/>
<text text-anchor="middle" x="768" y="-877.8" font-family="Times,serif" font-size="14.00" fill="#000000">2</text>
</g>
<!-- initializerr9_1 -->
<!-- initializerr9_1&#45;&gt;r9 -->
<g id="edge29" class="edge">
<title>initializerr9_1&#45;&gt;r9:n</title>
<path fill="none" stroke="#0000ff" stroke-dasharray="1,5" d="M503.2216,-789.7309C575.6754,-762.6318 721.4416,-706.8604 755.682,-684.2809"/>
<polygon fill="#0000ff" stroke="#0000ff" points="758.3795,-686.5342 763,-677 753.4423,-681.5719 758.3795,-686.5342"/>
<text text-anchor="middle" x="698.5" y="-728.3" font-family="Times,serif" font-size="14.00" fill="#000000">[]</text>
</g>
<!-- initializerr9_2 -->
<!-- initializerr9_2&#45;&gt;r9 -->
<g id="edge30" class="edge">
<title>initializerr9_2&#45;&gt;r9:n</title>
<path fill="none" stroke="#0000ff" d="M286.3246,-791.0848C352.1927,-772.3521 473.9896,-738.5446 579,-714 587.7651,-711.9513 718.5235,-693.636 754.114,-681.958"/>
<polygon fill="#0000ff" stroke="#0000ff" points="755.9727,-684.9289 763,-677 752.562,-678.816 755.9727,-684.9289"/>
<text text-anchor="middle" x="584" y="-728.3" font-family="Times,serif" font-size="14.00" fill="#000000">2</text>
</g>
<!-- r5&#45;&gt;r5 -->
<g id="edge48" class="edge">
<title>r5:e&#45;&gt;r5:n</title>
<path fill="none" stroke="#000000" d="M1433,-534C1456.7411,-525 1504.7411,-525 1504.7411,-543 1504.7411,-560.0156 1401.8316,-560.9462 1341.9351,-553.3943"/>
<polygon fill="#000000" stroke="#000000" points="1342.3894,-549.9239 1332,-552 1341.4165,-556.8559 1342.3894,-549.9239"/>
</g>
<!-- r5&#45;&gt;r0 -->
<g id="edge49" class="edge">
<title>r5:e&#45;&gt;r0:n</title>
<path fill="none" stroke="#000000" d="M1433,-534C1493.8682,-534 1697,-521.8682 1697,-461 1697,-461 1697,-461 1697,-386.5 1697,-49.1016 2437.5756,-586.6616 2452.7632,-267.2067"/>
<polygon fill="#000000" stroke="#000000" points="2456.267,-267.0785 2453,-257 2449.2689,-266.9161 2456.267,-267.0785"/>
<text text-anchor="middle" x="2479" y="-260.8" font-family="Times,serif" font-size="14.00" fill="#000000">bounds</text>
</g>
<!-- initializerr21_1 -->
<!-- initializerr21_1&#45;&gt;r21 -->
<g id="edge33" class="edge">
<title>initializerr21_1&#45;&gt;r21:w</title>
<path fill="none" stroke="#0000ff" stroke-dasharray="1,5" d="M2471.3592,-999.1175C2458.392,-979.9091 2436.1847,-949.0437 2413,-926 2279.2244,-793.0383 2234.5525,-758.6383 2057,-695 2019.01,-681.3836 1993.5518,-708.2369 1968,-677 1966.0214,-674.5812 1964.3679,-671.3055 1963.5642,-668.2114"/>
<polygon fill="#0000ff" stroke="#0000ff" points="1966.8147,-669.5283 1968,-659 1960.5078,-666.4912 1966.8147,-669.5283"/>
<text text-anchor="middle" x="2345" y="-844.8" font-family="Times,serif" font-size="14.00" fill="#000000">1</text>
</g>
<!-- r18&#45;&gt;r22 -->
<g id="edge36" class="edge">
<title>r18:e&#45;&gt;r22:ne</title>
<path fill="none" stroke="#000000" d="M2743,-732C2781.7278,-732 2860.4074,-720.6107 2636,-695 2599.983,-690.8895 2350.96,-702.6963 2295.7037,-681.9407"/>
<polygon fill="#000000" stroke="#000000" points="2297.4244,-678.8929 2287,-677 2293.9687,-684.9805 2297.4244,-678.8929"/>
<text text-anchor="middle" x="2313" y="-680.8" font-family="Times,serif" font-size="14.00" fill="#000000">control</text>
<text text-anchor="middle" x="2775" y="-735.8" font-family="Times,serif" font-size="14.00" fill="#000000">/right&#45;lte</text>
</g>
<!-- r18&#45;&gt;r18 -->
<g id="edge38" class="edge">
<title>r18:s&#45;&gt;r18:n</title>
<path fill="none" stroke="#000000" d="M2662,-714C2712.8643,-705 2814.5928,-705 2814.5928,-732 2814.5928,-757.3125 2725.183,-758.8945 2672.0959,-751.5776"/>
<polygon fill="#000000" stroke="#000000" points="2672.4205,-748.086 2662,-750 2671.3397,-755.002 2672.4205,-748.086"/>
<text text-anchor="middle" x="2674.5" y="-753.8" font-family="Times,serif" font-size="14.00" fill="#000000">left</text>
<text text-anchor="middle" x="2637.5" y="-702.8" font-family="Times,serif" font-size="14.00" fill="#000000">/left&#45;gt</text>
</g>
<!-- r18&#45;&gt;r20 -->
<g id="edge37" class="edge">
<title>r18:e&#45;&gt;r20:n</title>
<path fill="none" stroke="#000000" d="M2743,-732C2751,-732 2745.4591,-721.6127 2743,-714 2727.5871,-666.2856 2677,-672.642 2677,-622.5 2677,-622.5 2677,-622.5 2677,-534 2677,-513.375 2677,-505.8018 2677,-489.2554"/>
<polygon fill="#000000" stroke="#000000" points="2680.5001,-489 2677,-479 2673.5001,-489 2680.5001,-489"/>
<text text-anchor="middle" x="2696.5" y="-482.8" font-family="Times,serif" font-size="14.00" fill="#000000">value</text>
<text text-anchor="middle" x="2775" y="-720.8" font-family="Times,serif" font-size="14.00" fill="#000000">/right&#45;lte</text>
</g>
<!-- r19 -->
<g id="node33" class="node">
<title>r19</title>
<g id="a_node33"><a xlink:href="file:///home/travis/build/andrewdavidmackenzie/flow/flowstdlib/math/add/add.html" xlink:title="add (#19)">
<ellipse fill="#ff7f50" stroke="#000000" cx="2902" cy="-461" rx="57.3905" ry="18"/>
<text text-anchor="middle" x="2902" y="-457.3" font-family="Times,serif" font-size="14.00" fill="#000000">add (#19)</text>
</a>
</g>
</g>
<!-- r18&#45;&gt;r19 -->
<g id="edge39" class="edge">
<title>r18:e&#45;&gt;r19:n</title>
<path fill="none" stroke="#000000" d="M2743,-732C2775.6387,-732 2751,-691.6387 2751,-659 2751,-659 2751,-659 2751,-534 2751,-503.048 2781.2179,-508.3848 2810,-497 2826.0422,-490.6545 2878.6073,-496.7609 2896.2026,-487.2165"/>
<polygon fill="#000000" stroke="#000000" points="2899.0946,-489.1887 2902,-479 2893.375,-485.1531 2899.0946,-489.1887"/>
<text text-anchor="middle" x="2895" y="-482.8" font-family="Times,serif" font-size="14.00" fill="#000000">i1</text>
<text text-anchor="middle" x="2715.5" y="-735.8" font-family="Times,serif" font-size="14.00" fill="#000000">/right&#45;lt</text>
</g>
<!-- initializerr18_1 -->
<!-- initializerr18_1&#45;&gt;r18 -->
<g id="edge35" class="edge">
<title>initializerr18_1&#45;&gt;r18:ne</title>
<path fill="none" stroke="#0000ff" stroke-dasharray="1,5" d="M2711.2102,-999.0731C2705.5945,-984.5195 2699,-963.3168 2699,-944 2699,-944 2699,-944 2699,-805 2699,-788.4061 2700.4265,-783.2989 2694,-768 2691.7921,-762.744 2689.906,-759.9732 2687.4027,-757.2793"/>
<polygon fill="#0000ff" stroke="#0000ff" points="2689.5843,-754.5159 2680,-750 2684.6762,-759.507 2689.5843,-754.5159"/>
<text text-anchor="middle" x="2704" y="-877.8" font-family="Times,serif" font-size="14.00" fill="#000000">0</text>
</g>
<!-- r23 -->
<g id="node35" class="node">
<title>r23</title>
<g id="a_node35"><a xlink:href="file:///home/travis/build/andrewdavidmackenzie/flow/flowstdlib/data/enumerate/enumerate.html" xlink:title="enumerate (#23)">
<ellipse fill="#ff7f50" stroke="#000000" cx="2632" cy="-350" rx="90.1842" ry="18"/>
<text text-anchor="middle" x="2632" y="-346.3" font-family="Times,serif" font-size="14.00" fill="#000000">enumerate (#23)</text>
</a>
</g>
</g>
<!-- r20&#45;&gt;r23 -->
<g id="edge45" class="edge">
<title>r20:e&#45;&gt;r23:n</title>
<path fill="none" stroke="#000000" d="M2774,-461C2782,-461 2778.1298,-449.8516 2774,-443 2739.0986,-385.0957 2642.9007,-433.6385 2632.8518,-378.2526"/>
<polygon fill="#000000" stroke="#000000" points="2636.3161,-377.6758 2632,-368 2629.3401,-378.2555 2636.3161,-377.6758"/>
</g>
<!-- r19&#45;&gt;r18 -->
<g id="edge42" class="edge">
<title>r19:se&#45;&gt;r18:ne</title>
<path fill="none" stroke="#000000" d="M2919,-444C2919,-444 2959.1949,-479 2959.1949,-479 2928.9288,-546.2375 2881.5643,-531.8276 2835,-589 2782.8982,-652.9713 2813.9909,-708.6569 2742.5928,-750 2733.0008,-755.5543 2705.1946,-758.5021 2689.3172,-754.4935"/>
<polygon fill="#000000" stroke="#000000" points="2690.5276,-751.1915 2680,-750 2687.4868,-757.4966 2690.5276,-751.1915"/>
<text text-anchor="middle" x="2698" y="-753.8" font-family="Times,serif" font-size="14.00" fill="#000000">right</text>
<text text-anchor="middle" x="2901.5" y="-432.8" font-family="Times,serif" font-size="14.00" fill="#000000">/sum</text>
</g>
<!-- r19&#45;&gt;r19 -->
<g id="edge41" class="edge">
<title>r19:se&#45;&gt;r19:ne</title>
<path fill="none" stroke="#000000" d="M2919,-444C2962.065,-435 3031.1949,-435 3031.1949,-461 3031.1949,-485.0703 2971.9457,-486.8568 2928.9805,-479.8482"/>
<polygon fill="#000000" stroke="#000000" points="2929.4702,-476.3795 2919,-478 2928.1955,-483.2625 2929.4702,-476.3795"/>
<text text-anchor="middle" x="2912" y="-481.8" font-family="Times,serif" font-size="14.00" fill="#000000">i2</text>
<text text-anchor="middle" x="2928.5" y="-432.8" font-family="Times,serif" font-size="14.00" fill="#000000">/i2</text>
</g>
<!-- initializerr19_1 -->
<!-- initializerr19_1&#45;&gt;r19 -->
<g id="edge40" class="edge">
<title>initializerr19_1&#45;&gt;r19:w</title>
<path fill="none" stroke="#0000ff" stroke-dasharray="1,5" d="M2905.4377,-713.7981C2879.5379,-657.7836 2805.5699,-490.2045 2835.155,-464.3621"/>
<polygon fill="#0000ff" stroke="#0000ff" points="2836.6678,-467.544 2845,-461 2834.4055,-460.9197 2836.6678,-467.544"/>
<text text-anchor="middle" x="2863" y="-592.8" font-family="Times,serif" font-size="14.00" fill="#000000">1</text>
</g>
<!-- r23&#45;&gt;r0 -->
<g id="edge46" class="edge">
<title>r23:e&#45;&gt;r0:ne</title>
<path fill="none" stroke="#000000" d="M2723,-350C2731,-350 2727.7743,-338.4192 2723,-332 2654.9853,-240.5515 2558.8488,-333.2565 2477.339,-262.8318"/>
<polygon fill="#000000" stroke="#000000" points="2479.7043,-260.2518 2470,-256 2474.9347,-265.3755 2479.7043,-260.2518"/>
<text text-anchor="middle" x="2487.5" y="-244.8" font-family="Times,serif" font-size="14.00" fill="#000000">pixel</text>
</g>
<!-- r2 -->
<g id="node37" class="node">
<title>r2</title>
<g id="a_node37"><a xlink:href="file:///home/travis/build/andrewdavidmackenzie/flow/samples/mandlebrot/render_pixel/render_pixel.html" xlink:title="p2v (#2)">
<ellipse fill="#ff7f50" stroke="#000000" cx="2505" cy="-145" rx="51.1914" ry="18"/>
<text text-anchor="middle" x="2505" y="-141.3" font-family="Times,serif" font-size="14.00" fill="#000000">p2v (#2)</text>
</a>
</g>
</g>
<!-- r0&#45;&gt;r2 -->
<g id="edge47" class="edge">
<title>r0:e&#45;&gt;r2:n</title>
<path fill="none" stroke="#000000" d="M2505,-239C2535.4792,-239 2510.953,-204.6216 2505.872,-173.0902"/>
<polygon fill="#000000" stroke="#000000" points="2509.3481,-172.6615 2505,-163 2502.3741,-173.2642 2509.3481,-172.6615"/>
<text text-anchor="middle" x="2465.5" y="-166.8" font-family="Times,serif" font-size="14.00" fill="#000000">pixel_point</text>
</g>
<!-- r2&#45;&gt;r3 -->
<g id="edge52" class="edge">
<title>r2:s&#45;&gt;r3:n</title>
<path fill="none" stroke="#000000" d="M2505,-127C2505,-96.4695 2519.2778,-88.0217 2522.4011,-62.3218"/>
<polygon fill="#000000" stroke="#000000" points="2525.9148,-62.186 2523,-52 2518.9265,-61.7804 2525.9148,-62.186"/>
<text text-anchor="middle" x="2540.5" y="-55.8" font-family="Times,serif" font-size="14.00" fill="#000000">pixel</text>
<text text-anchor="middle" x="2498" y="-115.8" font-family="Times,serif" font-size="14.00" fill="#000000">/0</text>
</g>
<!-- r2&#45;&gt;r3 -->
<g id="edge53" class="edge">
<title>r2:sw&#45;&gt;r3:ne</title>
<path fill="none" stroke="#000000" d="M2488,-128C2461.9524,-101.9524 2548.2159,-84.9918 2545.8589,-60.861"/>
<polygon fill="#000000" stroke="#000000" points="2548.877,-59.0855 2541,-52 2542.7392,-62.4511 2548.877,-59.0855"/>
<text text-anchor="middle" x="2560.5" y="-55.8" font-family="Times,serif" font-size="14.00" fill="#000000">value</text>
<text text-anchor="middle" x="2481" y="-116.8" font-family="Times,serif" font-size="14.00" fill="#000000">/1</text>
</g>
</g>
</svg>
