<?xml version="1.0" encoding="UTF-8" standalone="no"?>
<!DOCTYPE svg PUBLIC "-//W3C//DTD SVG 1.1//EN"
 "http://www.w3.org/Graphics/SVG/1.1/DTD/svg11.dtd">
<!-- Generated by graphviz version 2.40.1 (20161225.0304)
 -->
<!-- Title: mandlebrot Pages: 1 -->
<svg width="3071pt" height="1355pt"
 viewBox="0.00 0.00 3071.00 1355.00" xmlns="http://www.w3.org/2000/svg" xmlns:xlink="http://www.w3.org/1999/xlink">
<g id="graph0" class="graph" transform="scale(1 1) rotate(0) translate(4 1351)">
<title>mandlebrot</title>
<polygon fill="#ffffff" stroke="transparent" points="-4,4 -4,-1351 3067,-1351 3067,4 -4,4"/>
<text text-anchor="middle" x="1531.5" y="-1331.8" font-family="Times,serif" font-size="14.00" fill="#000000">/mandlebrot</text>
<g id="clust1" class="cluster">
<title>cluster_parse_args</title>
<polygon fill="none" stroke="#000000" points="101,-508 101,-1316 2385,-1316 2385,-508 101,-508"/>
<text text-anchor="middle" x="1243" y="-1300.8" font-family="Times,serif" font-size="14.00" fill="#000000">/mandlebrot/parse_args</text>
</g>
<g id="clust2" class="cluster">
<title>cluster_generate_pixels</title>
<polygon fill="none" stroke="#000000" points="2393,-213 2393,-1097 3001,-1097 3001,-213 2393,-213"/>
<text text-anchor="middle" x="2697" y="-1081.8" font-family="Times,serif" font-size="14.00" fill="#000000">/mandlebrot/generate_pixels</text>
</g>
<g id="clust3" class="cluster">
<title>cluster_y_sequence</title>
<polygon fill="none" stroke="#000000" points="2573,-435 2573,-1066 2993,-1066 2993,-435 2573,-435"/>
<text text-anchor="middle" x="2783" y="-1050.8" font-family="Times,serif" font-size="14.00" fill="#000000">/mandlebrot/generate_pixels/y&#45;sequence</text>
</g>
<g id="clust4" class="cluster">
<title>cluster_render</title>
<polygon fill="none" stroke="#000000" points="2419,-8 2419,-194 2627,-194 2627,-8 2419,-8"/>
<text text-anchor="middle" x="2523" y="-178.8" font-family="Times,serif" font-size="14.00" fill="#000000">/mandlebrot/render</text>
</g>
<!-- r22 -->
<g id="node1" class="node">
<title>r22</title>
<g id="a_node1"><a xlink:href="file:///home/travis/build/andrewdavidmackenzie/flow/flowr/src/lib/flowruntime/args/get.html" xlink:title="args (#22)">
<ellipse fill="#ff7f50" stroke="#000000" cx="622" cy="-1267" rx="60.3893" ry="18"/>
<text text-anchor="middle" x="622" y="-1263.3" font-family="Times,serif" font-size="14.00" fill="#000000">args (#22)</text>
</a>
</g>
</g>
<!-- r0 -->
<g id="node2" class="node">
<title>r0</title>
<g id="a_node2"><a xlink:href="file:///home/travis/build/andrewdavidmackenzie/flow/flowstdlib/data/buffer/buffer.html" xlink:title="filename_buffer (#0)">
<ellipse fill="#ff7f50" stroke="#000000" cx="216" cy="-1142" rx="107.4815" ry="18"/>
<text text-anchor="middle" x="216" y="-1138.3" font-family="Times,serif" font-size="14.00" fill="#000000">filename_buffer (#0)</text>
</a>
</g>
</g>
<!-- r22&#45;&gt;r0 -->
<g id="edge1" class="edge">
<title>r22:s&#45;&gt;r0:n</title>
<path fill="none" stroke="#000000" d="M622,-1249C622,-1204.1524 470.7949,-1206.66 427,-1197 384.1449,-1187.5473 240.9848,-1204.5352 218.8776,-1169.9512"/>
<polygon fill="#000000" stroke="#000000" points="222.1402,-1168.6341 216,-1160 215.4157,-1170.5787 222.1402,-1168.6341"/>
<text text-anchor="middle" x="591.5" y="-1237.8" font-family="Times,serif" font-size="14.00" fill="#000000">/string/1</text>
</g>
<!-- r13 -->
<g id="node3" class="node">
<title>r13</title>
<g id="a_node3"><a xlink:href="file:///home/travis/build/andrewdavidmackenzie/flow/flowstdlib/data/ordered_split/ordered_split.html" xlink:title="split_size (#13)">
<ellipse fill="#ff7f50" stroke="#000000" cx="1461" cy="-1142" rx="83.3857" ry="18"/>
<text text-anchor="middle" x="1461" y="-1138.3" font-family="Times,serif" font-size="14.00" fill="#000000">split_size (#13)</text>
</a>
</g>
</g>
<!-- r22&#45;&gt;r13 -->
<g id="edge2" class="edge">
<title>r22:se&#45;&gt;r13:n</title>
<path fill="none" stroke="#000000" d="M639,-1250C687.8131,-1201.1869 717.3639,-1210.8127 785,-1197 802.13,-1193.5017 1371.6885,-1180.7825 1451.6979,-1163.8998"/>
<polygon fill="#000000" stroke="#000000" points="1453.1309,-1167.0942 1461,-1160 1450.4244,-1160.6386 1453.1309,-1167.0942"/>
<text text-anchor="middle" x="1439.5" y="-1163.8" font-family="Times,serif" font-size="14.00" fill="#000000">string</text>
<text text-anchor="middle" x="669.5" y="-1238.8" font-family="Times,serif" font-size="14.00" fill="#000000">/string/2</text>
</g>
<!-- r20 -->
<g id="node4" class="node">
<title>r20</title>
<g id="a_node4"><a xlink:href="file:///home/travis/build/andrewdavidmackenzie/flow/flowstdlib/data/ordered_split/ordered_split.html" xlink:title="split_upper_left (#20)">
<ellipse fill="#ff7f50" stroke="#000000" cx="930" cy="-1142" rx="113.18" ry="18"/>
<text text-anchor="middle" x="930" y="-1138.3" font-family="Times,serif" font-size="14.00" fill="#000000">split_upper_left (#20)</text>
</a>
</g>
</g>
<!-- r22&#45;&gt;r20 -->
<g id="edge3" class="edge">
<title>r22:e&#45;&gt;r20:n</title>
<path fill="none" stroke="#000000" d="M683,-1267C700.4921,-1267 701.7577,-1255.4933 718,-1249 772.1942,-1227.3343 790.5832,-1235.5174 844,-1212 881.3665,-1195.5489 922.2763,-1203.0449 929.0317,-1170.3429"/>
<polygon fill="#000000" stroke="#000000" points="932.5525,-1170.2827 930,-1160 925.583,-1169.6302 932.5525,-1170.2827"/>
<text text-anchor="middle" x="908.5" y="-1163.8" font-family="Times,serif" font-size="14.00" fill="#000000">string</text>
<text text-anchor="middle" x="713.5" y="-1270.8" font-family="Times,serif" font-size="14.00" fill="#000000">/string/3</text>
</g>
<!-- r21 -->
<g id="node5" class="node">
<title>r21</title>
<g id="a_node5"><a xlink:href="file:///home/travis/build/andrewdavidmackenzie/flow/flowstdlib/data/ordered_split/ordered_split.html" xlink:title="split_lower_right (#21)">
<ellipse fill="#ff7f50" stroke="#000000" cx="532" cy="-1142" rx="118.8789" ry="18"/>
<text text-anchor="middle" x="532" y="-1138.3" font-family="Times,serif" font-size="14.00" fill="#000000">split_lower_right (#21)</text>
</a>
</g>
</g>
<!-- r22&#45;&gt;r21 -->
<g id="edge4" class="edge">
<title>r22:se&#45;&gt;r21:n</title>
<path fill="none" stroke="#000000" d="M639,-1250C658.7389,-1230.2611 556.6401,-1198.4233 535.6977,-1169.6272"/>
<polygon fill="#000000" stroke="#000000" points="538.8529,-1168.0801 532,-1160 532.3183,-1170.5901 538.8529,-1168.0801"/>
<text text-anchor="middle" x="510.5" y="-1163.8" font-family="Times,serif" font-size="14.00" fill="#000000">string</text>
<text text-anchor="middle" x="669.5" y="-1253.8" font-family="Times,serif" font-size="14.00" fill="#000000">/string/4</text>
</g>
<!-- r0&#45;&gt;r0 -->
<g id="edge54" class="edge">
<title>r0:e&#45;&gt;r0:n</title>
<path fill="none" stroke="#000000" d="M323,-1142C347.2405,-1133 395.2405,-1133 395.2405,-1151 395.2405,-1168.0508 288.0174,-1168.9499 225.9243,-1161.3474"/>
<polygon fill="#000000" stroke="#000000" points="226.38,-1157.8773 216,-1160 225.4382,-1164.8136 226.38,-1157.8773"/>
</g>
<!-- r6 -->
<g id="node38" class="node">
<title>r6</title>
<g id="a_node38"><a xlink:href="file:///home/travis/build/andrewdavidmackenzie/flow/flowr/src/lib/flowruntime/image/image_buffer.html" xlink:title="image_buffer (#6)">
<ellipse fill="#ff7f50" stroke="#000000" cx="2523" cy="-34" rx="95.5831" ry="18"/>
<text text-anchor="middle" x="2523" y="-30.3" font-family="Times,serif" font-size="14.00" fill="#000000">image_buffer (#6)</text>
</a>
</g>
</g>
<!-- r0&#45;&gt;r6 -->
<g id="edge55" class="edge">
<title>r0:e&#45;&gt;r6:w</title>
<path fill="none" stroke="#000000" d="M323,-1142C331,-1142 327.6837,-1130.4856 323,-1124 234.4618,-1001.4002 0,-1168.2274 0,-1017 0,-1017 0,-1017 0,-89.5 0,-56.853 2243.7763,-35.3947 2416.8111,-34.0655"/>
<polygon fill="#000000" stroke="#000000" points="2417.0227,-37.5643 2427,-34 2416.9777,-30.5645 2417.0227,-37.5643"/>
<text text-anchor="middle" x="2396" y="-37.8" font-family="Times,serif" font-size="14.00" fill="#000000">filename</text>
</g>
<!-- r23 -->
<g id="node7" class="node">
<title>r23</title>
<g id="a_node7"><a xlink:href="file:///home/travis/build/andrewdavidmackenzie/flow/flowstdlib/fmt/to_json/to_json.html" xlink:title="size_to_json (#23)">
<ellipse fill="#ff7f50" stroke="#000000" cx="1809" cy="-944" rx="96.3833" ry="18"/>
<text text-anchor="middle" x="1809" y="-940.3" font-family="Times,serif" font-size="14.00" fill="#000000">size_to_json (#23)</text>
</a>
</g>
</g>
<!-- r13&#45;&gt;r23 -->
<g id="edge6" class="edge">
<title>r13:e&#45;&gt;r23:n</title>
<path fill="none" stroke="#000000" d="M1545,-1142C1683.5439,-1142 1803.0316,-1105.8432 1808.7834,-972.2161"/>
<polygon fill="#000000" stroke="#000000" points="1812.2871,-972.072 1809,-962 1805.2887,-971.9235 1812.2871,-972.072"/>
</g>
<!-- r14 -->
<g id="node16" class="node">
<title>r14</title>
<g id="a_node16"><a xlink:href="file:///home/travis/build/andrewdavidmackenzie/flow/flowstdlib/fmt/to_json/to_json.html" xlink:title="upper_left_to_json (#14)">
<ellipse fill="#ff7f50" stroke="#000000" cx="1043" cy="-944" rx="126.1777" ry="18"/>
<text text-anchor="middle" x="1043" y="-940.3" font-family="Times,serif" font-size="14.00" fill="#000000">upper_left_to_json (#14)</text>
</a>
</g>
</g>
<!-- r20&#45;&gt;r14 -->
<g id="edge16" class="edge">
<title>r20:e&#45;&gt;r14:n</title>
<path fill="none" stroke="#000000" d="M1043,-1142C1119.5625,-1142 1049.5796,-1050.4091 1043.4241,-972.4138"/>
<polygon fill="#000000" stroke="#000000" points="1046.9041,-971.8493 1043,-962 1039.9099,-972.1342 1046.9041,-971.8493"/>
</g>
<!-- r16 -->
<g id="node19" class="node">
<title>r16</title>
<g id="a_node19"><a xlink:href="file:///home/travis/build/andrewdavidmackenzie/flow/flowstdlib/fmt/to_json/to_json.html" xlink:title="lower_right_to_json (#16)">
<ellipse fill="#ff7f50" stroke="#000000" cx="477" cy="-944" rx="131.8766" ry="18"/>
<text text-anchor="middle" x="477" y="-940.3" font-family="Times,serif" font-size="14.00" fill="#000000">lower_right_to_json (#16)</text>
</a>
</g>
</g>
<!-- r21&#45;&gt;r16 -->
<g id="edge19" class="edge">
<title>r21:e&#45;&gt;r16:n</title>
<path fill="none" stroke="#000000" d="M651,-1142C659,-1142 654.1929,-1131.3352 651,-1124 610.2292,-1030.3351 485.6554,-1065.1211 477.4279,-972.0517"/>
<polygon fill="#000000" stroke="#000000" points="480.9222,-971.8421 477,-962 473.9286,-972.1398 480.9222,-971.8421"/>
</g>
<!-- initializerr13_1 -->
<!-- initializerr13_1&#45;&gt;r13 -->
<g id="edge5" class="edge">
<title>initializerr13_1&#45;&gt;r13:w</title>
<path fill="none" stroke="#0000ff" d="M1369.692,-1248.8239C1357.8853,-1217.2702 1338.6589,-1154.6628 1367.1234,-1143.6678"/>
<polygon fill="#0000ff" stroke="#0000ff" points="1367.7224,-1147.1163 1377,-1142 1366.5568,-1140.214 1367.7224,-1147.1163"/>
<text text-anchor="middle" x="1368" y="-1200.8" font-family="Times,serif" font-size="14.00" fill="#000000">&quot;x&quot;</text>
</g>
<!-- r15 -->
<g id="node8" class="node">
<title>r15</title>
<g id="a_node8"><a xlink:href="file:///home/travis/build/andrewdavidmackenzie/flow/flowstdlib/data/accumulate/accumulate.html" xlink:title="accumulate_size (#15)">
<ellipse fill="#ff7f50" stroke="#000000" cx="2059" cy="-805" rx="116.9792" ry="18"/>
<text text-anchor="middle" x="2059" y="-801.3" font-family="Times,serif" font-size="14.00" fill="#000000">accumulate_size (#15)</text>
</a>
</g>
</g>
<!-- r23&#45;&gt;r15 -->
<g id="edge7" class="edge">
<title>r23:e&#45;&gt;r15:n</title>
<path fill="none" stroke="#000000" d="M1906,-944C1910.6988,-944 2022.3063,-857.081 2051.8691,-830.4596"/>
<polygon fill="#000000" stroke="#000000" points="2054.62,-832.6471 2059,-823 2049.56,-827.8101 2054.62,-832.6471"/>
<text text-anchor="middle" x="2036" y="-826.8" font-family="Times,serif" font-size="14.00" fill="#000000">values</text>
</g>
<!-- r15&#45;&gt;r15 -->
<g id="edge10" class="edge">
<title>r15:e&#45;&gt;r15:ne</title>
<path fill="none" stroke="#000000" d="M2176,-805C2199.9896,-796 2247.9896,-796 2247.9896,-814 2247.9896,-831.0859 2150.6861,-831.9536 2086.9252,-824.3003"/>
<polygon fill="#000000" stroke="#000000" points="2087.3699,-820.8287 2077,-823 2086.4606,-827.7694 2087.3699,-820.8287"/>
<text text-anchor="middle" x="2101" y="-826.8" font-family="Times,serif" font-size="14.00" fill="#000000">partial</text>
<text text-anchor="middle" x="2202" y="-808.8" font-family="Times,serif" font-size="14.00" fill="#000000">/partial</text>
</g>
<!-- r12 -->
<g id="node11" class="node">
<title>r12</title>
<g id="a_node11"><a xlink:href="file:///home/travis/build/andrewdavidmackenzie/flow/flowstdlib/math/subtract/subtract.html" xlink:title="height (#12)">
<ellipse fill="#ff7f50" stroke="#000000" cx="2050" cy="-659" rx="69.5877" ry="18"/>
<text text-anchor="middle" x="2050" y="-655.3" font-family="Times,serif" font-size="14.00" fill="#000000">height (#12)</text>
</a>
</g>
</g>
<!-- r15&#45;&gt;r12 -->
<g id="edge11" class="edge">
<title>r15:sw&#45;&gt;r12:n</title>
<path fill="none" stroke="#000000" d="M2041,-787C2027.6482,-773.6482 1998.5415,-786.3484 2003,-768 2012.8667,-727.3954 2044.2241,-723.0141 2049.3023,-687.3567"/>
<polygon fill="#000000" stroke="#000000" points="2052.8198,-687.2127 2050,-677 2045.8356,-686.7421 2052.8198,-687.2127"/>
<text text-anchor="middle" x="2043" y="-680.8" font-family="Times,serif" font-size="14.00" fill="#000000">i1</text>
<text text-anchor="middle" x="2009.5" y="-775.8" font-family="Times,serif" font-size="14.00" fill="#000000">/chunk/1</text>
</g>
<!-- r7 -->
<g id="node12" class="node">
<title>r7</title>
<g id="a_node12"><a xlink:href="file:///home/travis/build/andrewdavidmackenzie/flow/flowstdlib/control/join/join.html" xlink:title="width&#45;gate (#7)">
<ellipse fill="#ff7f50" stroke="#000000" cx="2275" cy="-659" rx="83.6854" ry="18"/>
<text text-anchor="middle" x="2275" y="-655.3" font-family="Times,serif" font-size="14.00" fill="#000000">width&#45;gate (#7)</text>
</a>
</g>
</g>
<!-- r15&#45;&gt;r7 -->
<g id="edge12" class="edge">
<title>r15:s&#45;&gt;r7:n</title>
<path fill="none" stroke="#000000" d="M2059,-787C2059,-760.857 2091.0911,-779.5745 2115,-769 2186.7953,-737.2463 2267.7153,-757.1383 2274.5368,-687.0039"/>
<polygon fill="#000000" stroke="#000000" points="2278.0337,-687.1512 2275,-677 2271.0412,-686.8274 2278.0337,-687.1512"/>
<text text-anchor="middle" x="2259" y="-680.8" font-family="Times,serif" font-size="14.00" fill="#000000">data</text>
<text text-anchor="middle" x="2090.5" y="-775.8" font-family="Times,serif" font-size="14.00" fill="#000000">/chunk/0</text>
</g>
<!-- r3 -->
<g id="node13" class="node">
<title>r3</title>
<g id="a_node13"><a xlink:href="file:///home/travis/build/andrewdavidmackenzie/flow/flowstdlib/data/buffer/buffer.html" xlink:title="buffer_size (#3)">
<ellipse fill="#ff7f50" stroke="#000000" cx="1545" cy="-659" rx="85.2851" ry="18"/>
<text text-anchor="middle" x="1545" y="-655.3" font-family="Times,serif" font-size="14.00" fill="#000000">buffer_size (#3)</text>
</a>
</g>
</g>
<!-- r15&#45;&gt;r3 -->
<g id="edge13" class="edge">
<title>r15:s&#45;&gt;r3:n</title>
<path fill="none" stroke="#000000" d="M2059,-787C2059,-731.7897 1599.6815,-734.8546 1549.4436,-686.0182"/>
<polygon fill="#000000" stroke="#000000" points="1552.5595,-684.4232 1545,-677 1546.2804,-687.5172 1552.5595,-684.4232"/>
<text text-anchor="middle" x="2034.5" y="-775.8" font-family="Times,serif" font-size="14.00" fill="#000000">/chunk</text>
</g>
<!-- r1 -->
<g id="node14" class="node">
<title>r1</title>
<g id="a_node14"><a xlink:href="file:///home/travis/build/andrewdavidmackenzie/flow/flowstdlib/data/buffer/buffer.html" xlink:title="size_buffer (#1)">
<ellipse fill="#ff7f50" stroke="#000000" cx="1805" cy="-659" rx="85.2851" ry="18"/>
<text text-anchor="middle" x="1805" y="-655.3" font-family="Times,serif" font-size="14.00" fill="#000000">size_buffer (#1)</text>
</a>
</g>
</g>
<!-- r15&#45;&gt;r1 -->
<g id="edge14" class="edge">
<title>r15:s&#45;&gt;r1:n</title>
<path fill="none" stroke="#000000" d="M2059,-787C2059,-745.3359 2072.1343,-722.6868 2041,-695 2023.5359,-679.4697 1850.7334,-698.0956 1812.4743,-683.9786"/>
<polygon fill="#000000" stroke="#000000" points="1814.6979,-681.2663 1805,-677 1809.9207,-686.3828 1814.6979,-681.2663"/>
<text text-anchor="middle" x="2034.5" y="-790.8" font-family="Times,serif" font-size="14.00" fill="#000000">/chunk</text>
</g>
<!-- initializerr15_1 -->
<!-- initializerr15_1&#45;&gt;r15 -->
<g id="edge8" class="edge">
<title>initializerr15_1&#45;&gt;r15:n</title>
<path fill="none" stroke="#0000ff" stroke-dasharray="1,5" d="M2259.4129,-927.7589C2202.4978,-901.5543 2094.4916,-850.8106 2066.0225,-830.2694"/>
<polygon fill="#0000ff" stroke="#0000ff" points="2068.4652,-827.7604 2059,-823 2063.4306,-832.624 2068.4652,-827.7604"/>
<text text-anchor="middle" x="2178.5" y="-877.8" font-family="Times,serif" font-size="14.00" fill="#000000">[]</text>
</g>
<!-- initializerr15_2 -->
<!-- initializerr15_2&#45;&gt;r15 -->
<g id="edge9" class="edge">
<title>initializerr15_2&#45;&gt;r15:n</title>
<path fill="none" stroke="#0000ff" d="M2059,-925.96C2059,-904.5319 2059,-867.4021 2059,-833.4232"/>
<polygon fill="#0000ff" stroke="#0000ff" points="2062.5001,-833 2059,-823 2055.5001,-833 2062.5001,-833"/>
<text text-anchor="middle" x="2064" y="-877.8" font-family="Times,serif" font-size="14.00" fill="#000000">2</text>
</g>
<!-- r10 -->
<g id="node30" class="node">
<title>r10</title>
<g id="a_node30"><a xlink:href="file:///home/travis/build/andrewdavidmackenzie/flow/flowstdlib/control/compare_switch/compare_switch.html" xlink:title="compare (#10)">
<ellipse fill="#ff7f50" stroke="#000000" cx="2662" cy="-732" rx="80.6858" ry="18"/>
<text text-anchor="middle" x="2662" y="-728.3" font-family="Times,serif" font-size="14.00" fill="#000000">compare (#10)</text>
</a>
</g>
</g>
<!-- r12&#45;&gt;r10 -->
<g id="edge34" class="edge">
<title>r12:se&#45;&gt;r10:n</title>
<path fill="none" stroke="#000000" d="M2068,-641C2076.0993,-632.9007 2108.9478,-636.65 2119.5438,-641 2140.609,-649.6479 2135.1437,-667.8599 2156,-677 2185.9074,-690.1067 2720.6024,-689.8618 2742.5928,-714 2742.5928,-714 2692.4142,-736.4143 2671.245,-745.8703"/>
<polygon fill="#000000" stroke="#000000" points="2669.703,-742.7258 2662,-750 2672.558,-749.1171 2669.703,-742.7258"/>
<text text-anchor="middle" x="2649.5" y="-753.8" font-family="Times,serif" font-size="14.00" fill="#000000">left</text>
<text text-anchor="middle" x="2053.5" y="-629.8" font-family="Times,serif" font-size="14.00" fill="#000000">/diff</text>
</g>
<!-- r7&#45;&gt;r7 -->
<g id="edge43" class="edge">
<title>r7:e&#45;&gt;r7:n</title>
<path fill="none" stroke="#000000" d="M2359,-659C2382.8426,-650 2430.8426,-650 2430.8426,-668 2430.8426,-684.9102 2339.1477,-685.934 2284.9725,-678.5338"/>
<polygon fill="#000000" stroke="#000000" points="2285.4159,-675.0609 2275,-677 2284.3517,-681.9796 2285.4159,-675.0609"/>
<text text-anchor="middle" x="2291" y="-680.8" font-family="Times,serif" font-size="14.00" fill="#000000">data</text>
</g>
<!-- r8 -->
<g id="node32" class="node">
<title>r8</title>
<g id="a_node32"><a xlink:href="file:///home/travis/build/andrewdavidmackenzie/flow/flowstdlib/data/duplicate/duplicate.html" xlink:title="y&#45;duplicator (#8)">
<ellipse fill="#ff7f50" stroke="#000000" cx="2671" cy="-461" rx="90.1842" ry="18"/>
<text text-anchor="middle" x="2671" y="-457.3" font-family="Times,serif" font-size="14.00" fill="#000000">y&#45;duplicator (#8)</text>
</a>
</g>
</g>
<!-- r7&#45;&gt;r8 -->
<g id="edge44" class="edge">
<title>r7:e&#45;&gt;r8:ne</title>
<path fill="none" stroke="#000000" d="M2359,-659C2507.4125,-659 2518.9802,-564.8015 2651,-497 2660.8703,-491.9309 2677.0747,-491.1942 2685.8457,-488.6662"/>
<polygon fill="#000000" stroke="#000000" points="2689.225,-489.5924 2689,-479 2682.5704,-487.4208 2689.225,-489.5924"/>
<text text-anchor="middle" x="2667.5" y="-482.8" font-family="Times,serif" font-size="14.00" fill="#000000">factor</text>
</g>
<!-- r3&#45;&gt;r3 -->
<g id="edge50" class="edge">
<title>r3:e&#45;&gt;r3:n</title>
<path fill="none" stroke="#000000" d="M1631,-659C1654.1424,-650 1702.1424,-650 1702.1424,-668 1702.1424,-684.9102 1609.6827,-685.934 1555.0557,-678.5338"/>
<polygon fill="#000000" stroke="#000000" points="1555.4134,-675.048 1545,-677 1554.3579,-681.9679 1555.4134,-675.048"/>
</g>
<!-- r2 -->
<g id="node36" class="node">
<title>r2</title>
<g id="a_node36"><a xlink:href="file:///home/travis/build/andrewdavidmackenzie/flow/samples/mandlebrot/pixel_to_point/pixel_to_point.html" xlink:title="p2p (#2)">
<ellipse fill="#ff7f50" stroke="#000000" cx="2453" cy="-239" rx="51.9908" ry="18"/>
<text text-anchor="middle" x="2453" y="-235.3" font-family="Times,serif" font-size="14.00" fill="#000000">p2p (#2)</text>
</a>
</g>
</g>
<!-- r3&#45;&gt;r2 -->
<g id="edge51" class="edge">
<title>r3:e&#45;&gt;r2:nw</title>
<path fill="none" stroke="#000000" d="M1631,-659C1633.5548,-659 1804,-599.0548 1804,-596.5 1804,-596.5 1804,-596.5 1804,-294.5 1804,-157.093 2311.8379,-346.2268 2428.3032,-262.5076"/>
<polygon fill="#000000" stroke="#000000" points="2430.6234,-265.1292 2436,-256 2426.1038,-259.7838 2430.6234,-265.1292"/>
<text text-anchor="middle" x="2422" y="-259.8" font-family="Times,serif" font-size="14.00" fill="#000000">size</text>
</g>
<!-- r1&#45;&gt;r1 -->
<g id="edge56" class="edge">
<title>r1:e&#45;&gt;r1:n</title>
<path fill="none" stroke="#000000" d="M1891,-659C1914.1424,-650 1962.1424,-650 1962.1424,-668 1962.1424,-684.9102 1869.6827,-685.934 1815.0557,-678.5338"/>
<polygon fill="#000000" stroke="#000000" points="1815.4134,-675.048 1805,-677 1814.3579,-681.9679 1815.4134,-675.048"/>
</g>
<!-- r1&#45;&gt;r6 -->
<g id="edge57" class="edge">
<title>r1:e&#45;&gt;r6:nw</title>
<path fill="none" stroke="#000000" d="M1891,-659C1915.877,-659 1919.8304,-646.8901 1944,-641 2060.5046,-612.6081 2904.6241,-534.3497 3011,-479 3040.6992,-463.5469 3063,-457.9789 3063,-424.5 3063,-424.5 3063,-424.5 3063,-89.5 3063,-33.1858 2568.6337,-84.2298 2508.6439,-61.5916"/>
<polygon fill="#000000" stroke="#000000" points="2511.8233,-60.1052 2505,-52 2505.2796,-62.5912 2511.8233,-60.1052"/>
<text text-anchor="middle" x="2491" y="-55.8" font-family="Times,serif" font-size="14.00" fill="#000000">size</text>
</g>
<!-- initializerr20_1 -->
<!-- initializerr20_1&#45;&gt;r20 -->
<g id="edge15" class="edge">
<title>initializerr20_1&#45;&gt;r20:w</title>
<path fill="none" stroke="#0000ff" d="M825.9868,-1249.0905C809.3468,-1217.7673 780.3318,-1155.2651 806.8963,-1143.8213"/>
<polygon fill="#0000ff" stroke="#0000ff" points="807.7795,-1147.2186 817,-1142 806.5377,-1140.3296 807.7795,-1147.2186"/>
<text text-anchor="middle" x="816.5" y="-1200.8" font-family="Times,serif" font-size="14.00" fill="#000000">&quot;,&quot;</text>
</g>
<!-- r17 -->
<g id="node17" class="node">
<title>r17</title>
<g id="a_node17"><a xlink:href="file:///home/travis/build/andrewdavidmackenzie/flow/flowstdlib/data/accumulate/accumulate.html" xlink:title="accumulate_upper_left (#17)">
<ellipse fill="#ff7f50" stroke="#000000" cx="1245" cy="-805" rx="146.774" ry="18"/>
<text text-anchor="middle" x="1245" y="-801.3" font-family="Times,serif" font-size="14.00" fill="#000000">accumulate_upper_left (#17)</text>
</a>
</g>
</g>
<!-- r14&#45;&gt;r17 -->
<g id="edge17" class="edge">
<title>r14:e&#45;&gt;r17:n</title>
<path fill="none" stroke="#000000" d="M1169,-944C1221.9784,-944 1197.9142,-883.8997 1229,-841 1232.5328,-836.1246 1237.1537,-834.4254 1240.5208,-831.9668"/>
<polygon fill="#000000" stroke="#000000" points="1243.6622,-833.51 1245,-823 1237.4001,-830.3818 1243.6622,-833.51"/>
<text text-anchor="middle" x="1222" y="-826.8" font-family="Times,serif" font-size="14.00" fill="#000000">values</text>
</g>
<!-- r17&#45;&gt;r17 -->
<g id="edge23" class="edge">
<title>r17:e&#45;&gt;r17:ne</title>
<path fill="none" stroke="#000000" d="M1392,-805C1415.887,-796 1463.887,-796 1463.887,-814 1463.887,-831.1914 1347.1974,-831.9637 1273.149,-824.1576"/>
<polygon fill="#000000" stroke="#000000" points="1273.3322,-820.6559 1263,-823 1272.5389,-827.6108 1273.3322,-820.6559"/>
<text text-anchor="middle" x="1287" y="-826.8" font-family="Times,serif" font-size="14.00" fill="#000000">partial</text>
<text text-anchor="middle" x="1418" y="-808.8" font-family="Times,serif" font-size="14.00" fill="#000000">/partial</text>
</g>
<!-- r19 -->
<g id="node23" class="node">
<title>r19</title>
<g id="a_node23"><a xlink:href="file:///home/travis/build/andrewdavidmackenzie/flow/flowstdlib/data/accumulate/accumulate.html" xlink:title="accumulate_bounds (#19)">
<ellipse fill="#ff7f50" stroke="#000000" cx="763" cy="-659" rx="132.6765" ry="18"/>
<text text-anchor="middle" x="763" y="-655.3" font-family="Times,serif" font-size="14.00" fill="#000000">accumulate_bounds (#19)</text>
</a>
</g>
</g>
<!-- r17&#45;&gt;r19 -->
<g id="edge24" class="edge">
<title>r17:s&#45;&gt;r19:n</title>
<path fill="none" stroke="#000000" d="M1245,-787C1245,-735.2862 817.8296,-732.1365 767.7705,-686.1138"/>
<polygon fill="#000000" stroke="#000000" points="770.7385,-684.2365 763,-677 764.5367,-687.4828 770.7385,-684.2365"/>
<text text-anchor="middle" x="740" y="-680.8" font-family="Times,serif" font-size="14.00" fill="#000000">values</text>
<text text-anchor="middle" x="1220.5" y="-775.8" font-family="Times,serif" font-size="14.00" fill="#000000">/chunk</text>
</g>
<!-- initializerr21_1 -->
<!-- initializerr21_1&#45;&gt;r21 -->
<g id="edge18" class="edge">
<title>initializerr21_1&#45;&gt;r21:w</title>
<path fill="none" stroke="#0000ff" d="M401.4132,-1248.8239C390.8592,-1217.2702 374.1217,-1154.6628 403.0488,-1143.6678"/>
<polygon fill="#0000ff" stroke="#0000ff" points="403.7161,-1147.1049 413,-1142 402.559,-1140.2011 403.7161,-1147.1049"/>
<text text-anchor="middle" x="399.5" y="-1200.8" font-family="Times,serif" font-size="14.00" fill="#000000">&quot;,&quot;</text>
</g>
<!-- r18 -->
<g id="node20" class="node">
<title>r18</title>
<g id="a_node20"><a xlink:href="file:///home/travis/build/andrewdavidmackenzie/flow/flowstdlib/data/accumulate/accumulate.html" xlink:title="accumulate_lower_right (#18)">
<ellipse fill="#ff7f50" stroke="#000000" cx="763" cy="-805" rx="152.9733" ry="18"/>
<text text-anchor="middle" x="763" y="-801.3" font-family="Times,serif" font-size="14.00" fill="#000000">accumulate_lower_right (#18)</text>
</a>
</g>
</g>
<!-- r16&#45;&gt;r18 -->
<g id="edge20" class="edge">
<title>r16:e&#45;&gt;r18:n</title>
<path fill="none" stroke="#000000" d="M609,-944C613.7177,-944 726.0633,-857.0974 755.8219,-830.4662"/>
<polygon fill="#000000" stroke="#000000" points="758.5924,-832.6345 763,-823 753.5463,-827.7831 758.5924,-832.6345"/>
<text text-anchor="middle" x="740" y="-826.8" font-family="Times,serif" font-size="14.00" fill="#000000">values</text>
</g>
<!-- r18&#45;&gt;r18 -->
<g id="edge27" class="edge">
<title>r18:e&#45;&gt;r18:ne</title>
<path fill="none" stroke="#000000" d="M916,-805C939.7364,-796 987.7364,-796 987.7364,-814 987.7364,-831.2266 866.9974,-831.9668 790.9569,-824.1096"/>
<polygon fill="#000000" stroke="#000000" points="791.3261,-820.6292 781,-823 790.5508,-827.5861 791.3261,-820.6292"/>
<text text-anchor="middle" x="805" y="-826.8" font-family="Times,serif" font-size="14.00" fill="#000000">partial</text>
<text text-anchor="middle" x="942" y="-808.8" font-family="Times,serif" font-size="14.00" fill="#000000">/partial</text>
</g>
<!-- r18&#45;&gt;r19 -->
<g id="edge28" class="edge">
<title>r18:s&#45;&gt;r19:n</title>
<path fill="none" stroke="#000000" d="M763,-787C763,-741.6441 763,-727.8469 763,-687.0522"/>
<polygon fill="#000000" stroke="#000000" points="766.5001,-687 763,-677 759.5001,-687 766.5001,-687"/>
<text text-anchor="middle" x="786" y="-680.8" font-family="Times,serif" font-size="14.00" fill="#000000">values</text>
<text text-anchor="middle" x="738.5" y="-775.8" font-family="Times,serif" font-size="14.00" fill="#000000">/chunk</text>
</g>
<!-- initializerr17_1 -->
<!-- initializerr17_1&#45;&gt;r17 -->
<g id="edge21" class="edge">
<title>initializerr17_1&#45;&gt;r17:n</title>
<path fill="none" stroke="#0000ff" stroke-dasharray="1,5" d="M1513.677,-928.9772C1437.2507,-903.3609 1287.6209,-851.8945 1252.5031,-830.1499"/>
<polygon fill="#0000ff" stroke="#0000ff" points="1254.654,-827.3648 1245,-823 1249.825,-832.4324 1254.654,-827.3648"/>
<text text-anchor="middle" x="1401.5" y="-877.8" font-family="Times,serif" font-size="14.00" fill="#000000">[]</text>
</g>
<!-- initializerr17_2 -->
<!-- initializerr17_2&#45;&gt;r17 -->
<g id="edge22" class="edge">
<title>initializerr17_2&#45;&gt;r17:n</title>
<path fill="none" stroke="#0000ff" d="M1302.0974,-926.2092C1280.8882,-906.2273 1250.5037,-871.5532 1245.6615,-833.3255"/>
<polygon fill="#0000ff" stroke="#0000ff" points="1249.1322,-832.7558 1245,-823 1242.1465,-833.2033 1249.1322,-832.7558"/>
<text text-anchor="middle" x="1273" y="-877.8" font-family="Times,serif" font-size="14.00" fill="#000000">2</text>
</g>
<!-- r19&#45;&gt;r19 -->
<g id="edge31" class="edge">
<title>r19:e&#45;&gt;r19:ne</title>
<path fill="none" stroke="#000000" d="M896,-659C919.5882,-650 967.5882,-650 967.5882,-668 967.5882,-685.1211 860.4755,-685.9571 791.3291,-678.2529"/>
<polygon fill="#000000" stroke="#000000" points="791.3487,-674.7297 781,-677 790.5057,-681.6788 791.3487,-674.7297"/>
<text text-anchor="middle" x="805" y="-680.8" font-family="Times,serif" font-size="14.00" fill="#000000">partial</text>
<text text-anchor="middle" x="922" y="-662.8" font-family="Times,serif" font-size="14.00" fill="#000000">/partial</text>
</g>
<!-- r4 -->
<g id="node28" class="node">
<title>r4</title>
<g id="a_node28"><a xlink:href="file:///home/travis/build/andrewdavidmackenzie/flow/flowstdlib/data/buffer/buffer.html" xlink:title="buffer_bounds (#4)">
<ellipse fill="#ff7f50" stroke="#000000" cx="1315" cy="-534" rx="100.9827" ry="18"/>
<text text-anchor="middle" x="1315" y="-530.3" font-family="Times,serif" font-size="14.00" fill="#000000">buffer_bounds (#4)</text>
</a>
</g>
</g>
<!-- r19&#45;&gt;r4 -->
<g id="edge32" class="edge">
<title>r19:s&#45;&gt;r4:n</title>
<path fill="none" stroke="#000000" d="M763,-641C763,-396.0171 1299.4779,-789.0785 1314.6711,-562.1653"/>
<polygon fill="#000000" stroke="#000000" points="1318.1747,-562.108 1315,-552 1311.1783,-561.8815 1318.1747,-562.108"/>
<text text-anchor="middle" x="738.5" y="-629.8" font-family="Times,serif" font-size="14.00" fill="#000000">/chunk</text>
</g>
<!-- initializerr18_1 -->
<!-- initializerr18_1&#45;&gt;r18 -->
<g id="edge25" class="edge">
<title>initializerr18_1&#45;&gt;r18:n</title>
<path fill="none" stroke="#0000ff" stroke-dasharray="1,5" d="M253.8502,-932.3471C388.51,-907.1886 697.2581,-848.4141 753.9648,-828.018"/>
<polygon fill="#0000ff" stroke="#0000ff" points="755.9571,-830.9151 763,-823 752.5584,-824.7955 755.9571,-830.9151"/>
<text text-anchor="middle" x="557.5" y="-877.8" font-family="Times,serif" font-size="14.00" fill="#000000">[]</text>
</g>
<!-- initializerr18_2 -->
<!-- initializerr18_2&#45;&gt;r18 -->
<g id="edge26" class="edge">
<title>initializerr18_2&#45;&gt;r18:n</title>
<path fill="none" stroke="#0000ff" d="M763,-925.96C763,-904.5319 763,-867.4021 763,-833.4232"/>
<polygon fill="#0000ff" stroke="#0000ff" points="766.5001,-833 763,-823 759.5001,-833 766.5001,-833"/>
<text text-anchor="middle" x="768" y="-877.8" font-family="Times,serif" font-size="14.00" fill="#000000">2</text>
</g>
<!-- initializerr19_1 -->
<!-- initializerr19_1&#45;&gt;r19 -->
<g id="edge29" class="edge">
<title>initializerr19_1&#45;&gt;r19:n</title>
<path fill="none" stroke="#0000ff" stroke-dasharray="1,5" d="M498.687,-789.5336C572.8273,-762.4012 720.8184,-706.9617 755.5728,-684.3275"/>
<polygon fill="#0000ff" stroke="#0000ff" points="758.3393,-686.5147 763,-677 753.4232,-681.5316 758.3393,-686.5147"/>
<text text-anchor="middle" x="697.5" y="-728.3" font-family="Times,serif" font-size="14.00" fill="#000000">[]</text>
</g>
<!-- initializerr19_2 -->
<!-- initializerr19_2&#45;&gt;r19 -->
<g id="edge30" class="edge">
<title>initializerr19_2&#45;&gt;r19:n</title>
<path fill="none" stroke="#0000ff" d="M271.371,-790.9229C340.3805,-772.2298 466.9664,-738.7026 576,-714 584.9164,-711.9799 717.8007,-693.7657 753.9696,-682.0096"/>
<polygon fill="#0000ff" stroke="#0000ff" points="755.9533,-684.9117 763,-677 752.5575,-678.7904 755.9533,-684.9117"/>
<text text-anchor="middle" x="581" y="-728.3" font-family="Times,serif" font-size="14.00" fill="#000000">2</text>
</g>
<!-- r4&#45;&gt;r4 -->
<g id="edge48" class="edge">
<title>r4:e&#45;&gt;r4:n</title>
<path fill="none" stroke="#000000" d="M1416,-534C1439.7411,-525 1487.7411,-525 1487.7411,-543 1487.7411,-560.0156 1384.8316,-560.9462 1324.9351,-553.3943"/>
<polygon fill="#000000" stroke="#000000" points="1325.3894,-549.9239 1315,-552 1324.4165,-556.8559 1325.3894,-549.9239"/>
</g>
<!-- r4&#45;&gt;r2 -->
<g id="edge49" class="edge">
<title>r4:e&#45;&gt;r2:n</title>
<path fill="none" stroke="#000000" d="M1416,-534C1472.1713,-534 1658,-517.1713 1658,-461 1658,-461 1658,-461 1658,-386.5 1658,-32.0057 2437.5485,-603.6257 2452.774,-267.2195"/>
<polygon fill="#000000" stroke="#000000" points="2456.278,-267.075 2453,-257 2449.2797,-266.9202 2456.278,-267.075"/>
<text text-anchor="middle" x="2479" y="-260.8" font-family="Times,serif" font-size="14.00" fill="#000000">bounds</text>
</g>
<!-- initializerr12_1 -->
<!-- initializerr12_1&#45;&gt;r12 -->
<g id="edge33" class="edge">
<title>initializerr12_1&#45;&gt;r12:w</title>
<path fill="none" stroke="#0000ff" stroke-dasharray="1,5" d="M2471.3592,-999.1175C2458.392,-979.9091 2436.1847,-949.0437 2413,-926 2280.0167,-793.8258 2235.5636,-760.818 2060,-695 2025.8748,-682.2066 2002.7667,-705.4583 1980,-677 1978.0478,-674.5598 1976.4001,-671.2794 1975.5937,-668.1876"/>
<polygon fill="#0000ff" stroke="#0000ff" points="1978.8314,-669.5302 1980,-659 1972.5198,-666.5031 1978.8314,-669.5302"/>
<text text-anchor="middle" x="2344" y="-844.8" font-family="Times,serif" font-size="14.00" fill="#000000">1</text>
</g>
<!-- r10&#45;&gt;r7 -->
<g id="edge36" class="edge">
<title>r10:e&#45;&gt;r7:ne</title>
<path fill="none" stroke="#000000" d="M2743,-732C2783.5875,-732 2876.1873,-722.2878 2632,-695 2597.0762,-691.0973 2356.1387,-701.9932 2301.7938,-681.9337"/>
<polygon fill="#000000" stroke="#000000" points="2303.4337,-678.8406 2293,-677 2300.0087,-684.9454 2303.4337,-678.8406"/>
<text text-anchor="middle" x="2319" y="-680.8" font-family="Times,serif" font-size="14.00" fill="#000000">control</text>
<text text-anchor="middle" x="2775" y="-735.8" font-family="Times,serif" font-size="14.00" fill="#000000">/right&#45;lte</text>
</g>
<!-- r10&#45;&gt;r10 -->
<g id="edge38" class="edge">
<title>r10:s&#45;&gt;r10:n</title>
<path fill="none" stroke="#000000" d="M2662,-714C2712.8643,-705 2814.5928,-705 2814.5928,-732 2814.5928,-757.3125 2725.183,-758.8945 2672.0959,-751.5776"/>
<polygon fill="#000000" stroke="#000000" points="2672.4205,-748.086 2662,-750 2671.3397,-755.002 2672.4205,-748.086"/>
<text text-anchor="middle" x="2674.5" y="-753.8" font-family="Times,serif" font-size="14.00" fill="#000000">left</text>
<text text-anchor="middle" x="2637.5" y="-702.8" font-family="Times,serif" font-size="14.00" fill="#000000">/left&#45;gt</text>
</g>
<!-- r10&#45;&gt;r8 -->
<g id="edge37" class="edge">
<title>r10:e&#45;&gt;r8:n</title>
<path fill="none" stroke="#000000" d="M2743,-732C2751,-732 2745.643,-721.5508 2743,-714 2725.8127,-664.8979 2670,-674.5233 2670,-622.5 2670,-622.5 2670,-622.5 2670,-534 2670,-513.3716 2670.7119,-505.8036 2670.9344,-489.2565"/>
<polygon fill="#000000" stroke="#000000" points="2674.4359,-489.0222 2671,-479 2667.436,-488.9774 2674.4359,-489.0222"/>
<text text-anchor="middle" x="2690.5" y="-482.8" font-family="Times,serif" font-size="14.00" fill="#000000">value</text>
<text text-anchor="middle" x="2775" y="-720.8" font-family="Times,serif" font-size="14.00" fill="#000000">/right&#45;lte</text>
</g>
<!-- r9 -->
<g id="node33" class="node">
<title>r9</title>
<g id="a_node33"><a xlink:href="file:///home/travis/build/andrewdavidmackenzie/flow/flowstdlib/math/add/add.html" xlink:title="add (#9)">
<ellipse fill="#ff7f50" stroke="#000000" cx="2885" cy="-461" rx="51.1914" ry="18"/>
<text text-anchor="middle" x="2885" y="-457.3" font-family="Times,serif" font-size="14.00" fill="#000000">add (#9)</text>
</a>
</g>
</g>
<!-- r10&#45;&gt;r9 -->
<g id="edge39" class="edge">
<title>r10:e&#45;&gt;r9:n</title>
<path fill="none" stroke="#000000" d="M2743,-732C2775.4475,-732 2744,-691.4475 2744,-659 2744,-659 2744,-659 2744,-534 2744,-504.539 2771.8561,-508.4524 2799,-497 2813.6165,-490.8331 2861.2546,-495.6943 2878.6051,-487.2612"/>
<polygon fill="#000000" stroke="#000000" points="2881.6464,-489.0501 2885,-479 2876.111,-484.7652 2881.6464,-489.0501"/>
<text text-anchor="middle" x="2878" y="-482.8" font-family="Times,serif" font-size="14.00" fill="#000000">i1</text>
<text text-anchor="middle" x="2715.5" y="-735.8" font-family="Times,serif" font-size="14.00" fill="#000000">/right&#45;lt</text>
</g>
<!-- initializerr10_1 -->
<!-- initializerr10_1&#45;&gt;r10 -->
<g id="edge35" class="edge">
<title>initializerr10_1&#45;&gt;r10:ne</title>
<path fill="none" stroke="#0000ff" stroke-dasharray="1,5" d="M2711.2102,-999.0731C2705.5945,-984.5195 2699,-963.3168 2699,-944 2699,-944 2699,-944 2699,-805 2699,-788.4061 2700.4265,-783.2989 2694,-768 2691.7921,-762.744 2689.906,-759.9732 2687.4027,-757.2793"/>
<polygon fill="#0000ff" stroke="#0000ff" points="2689.5843,-754.5159 2680,-750 2684.6762,-759.507 2689.5843,-754.5159"/>
<text text-anchor="middle" x="2704" y="-877.8" font-family="Times,serif" font-size="14.00" fill="#000000">0</text>
</g>
<!-- r11 -->
<g id="node35" class="node">
<title>r11</title>
<g id="a_node35"><a xlink:href="file:///home/travis/build/andrewdavidmackenzie/flow/flowstdlib/data/enumerate/enumerate.html" xlink:title="enumerate (#11)">
<ellipse fill="#ff7f50" stroke="#000000" cx="2626" cy="-350" rx="90.1842" ry="18"/>
<text text-anchor="middle" x="2626" y="-346.3" font-family="Times,serif" font-size="14.00" fill="#000000">enumerate (#11)</text>
</a>
</g>
</g>
<!-- r8&#45;&gt;r11 -->
<g id="edge45" class="edge">
<title>r8:e&#45;&gt;r11:n</title>
<path fill="none" stroke="#000000" d="M2762,-461C2770,-461 2766.0678,-449.8886 2762,-443 2728.8213,-386.8134 2636.8393,-431.5165 2626.878,-378.2641"/>
<polygon fill="#000000" stroke="#000000" points="2630.3397,-377.6653 2626,-368 2623.3652,-378.262 2630.3397,-377.6653"/>
</g>
<!-- r9&#45;&gt;r10 -->
<g id="edge42" class="edge">
<title>r9:se&#45;&gt;r10:ne</title>
<path fill="none" stroke="#000000" d="M2902,-444C2902,-444 2936.3454,-479 2936.3454,-479 2909.7952,-542.956 2866.9356,-533.147 2826,-589 2778.361,-653.9992 2811.4468,-708.1252 2742.5928,-750 2733.1226,-755.7595 2705.2441,-758.5855 2689.3322,-754.5189"/>
<polygon fill="#000000" stroke="#000000" points="2690.5257,-751.2081 2680,-750 2687.475,-757.5083 2690.5257,-751.2081"/>
<text text-anchor="middle" x="2698" y="-753.8" font-family="Times,serif" font-size="14.00" fill="#000000">right</text>
<text text-anchor="middle" x="2919.5" y="-432.8" font-family="Times,serif" font-size="14.00" fill="#000000">/sum</text>
</g>
<!-- r9&#45;&gt;r9 -->
<g id="edge41" class="edge">
<title>r9:se&#45;&gt;r9:ne</title>
<path fill="none" stroke="#000000" d="M2902,-444C2943.1151,-435 3008.3454,-435 3008.3454,-461 3008.3454,-484.9688 2952.9092,-486.8413 2912.0353,-479.9365"/>
<polygon fill="#000000" stroke="#000000" points="2912.482,-476.4582 2902,-478 2911.1557,-483.3314 2912.482,-476.4582"/>
<text text-anchor="middle" x="2895" y="-481.8" font-family="Times,serif" font-size="14.00" fill="#000000">i2</text>
<text text-anchor="middle" x="2892.5" y="-432.8" font-family="Times,serif" font-size="14.00" fill="#000000">/i2</text>
</g>
<!-- initializerr9_1 -->
<!-- initializerr9_1&#45;&gt;r9 -->
<g id="edge40" class="edge">
<title>initializerr9_1&#45;&gt;r9:w</title>
<path fill="none" stroke="#0000ff" stroke-dasharray="1,5" d="M2899.9422,-713.7981C2872.5202,-657.7836 2794.0211,-490.2045 2823.1726,-464.3621"/>
<polygon fill="#0000ff" stroke="#0000ff" points="2824.6714,-467.5486 2833,-461 2822.4054,-460.9255 2824.6714,-467.5486"/>
<text text-anchor="middle" x="2855" y="-592.8" font-family="Times,serif" font-size="14.00" fill="#000000">1</text>
</g>
<!-- r11&#45;&gt;r2 -->
<g id="edge46" class="edge">
<title>r11:e&#45;&gt;r2:ne</title>
<path fill="none" stroke="#000000" d="M2717,-350C2725,-350 2721.7528,-338.4351 2717,-332 2650.8957,-242.4975 2557.2841,-331.3012 2477.6605,-263.1014"/>
<polygon fill="#000000" stroke="#000000" points="2479.7131,-260.2316 2470,-256 2474.9542,-265.3652 2479.7131,-260.2316"/>
<text text-anchor="middle" x="2487.5" y="-244.8" font-family="Times,serif" font-size="14.00" fill="#000000">pixel</text>
</g>
<!-- r5 -->
<g id="node37" class="node">
<title>r5</title>
<g id="a_node37"><a xlink:href="file:///home/travis/build/andrewdavidmackenzie/flow/samples/mandlebrot/render_pixel/render_pixel.html" xlink:title="p2v (#5)">
<ellipse fill="#ff7f50" stroke="#000000" cx="2505" cy="-145" rx="51.1914" ry="18"/>
<text text-anchor="middle" x="2505" y="-141.3" font-family="Times,serif" font-size="14.00" fill="#000000">p2v (#5)</text>
</a>
</g>
</g>
<!-- r2&#45;&gt;r5 -->
<g id="edge47" class="edge">
<title>r2:e&#45;&gt;r5:n</title>
<path fill="none" stroke="#000000" d="M2505,-239C2535.4792,-239 2510.953,-204.6216 2505.872,-173.0902"/>
<polygon fill="#000000" stroke="#000000" points="2509.3481,-172.6615 2505,-163 2502.3741,-173.2642 2509.3481,-172.6615"/>
<text text-anchor="middle" x="2465.5" y="-166.8" font-family="Times,serif" font-size="14.00" fill="#000000">pixel_point</text>
</g>
<!-- r5&#45;&gt;r6 -->
<g id="edge52" class="edge">
<title>r5:s&#45;&gt;r6:n</title>
<path fill="none" stroke="#000000" d="M2505,-127C2505,-96.4695 2519.2778,-88.0217 2522.4011,-62.3218"/>
<polygon fill="#000000" stroke="#000000" points="2525.9148,-62.186 2523,-52 2518.9265,-61.7804 2525.9148,-62.186"/>
<text text-anchor="middle" x="2540.5" y="-55.8" font-family="Times,serif" font-size="14.00" fill="#000000">pixel</text>
<text text-anchor="middle" x="2498" y="-115.8" font-family="Times,serif" font-size="14.00" fill="#000000">/0</text>
</g>
<!-- r5&#45;&gt;r6 -->
<g id="edge53" class="edge">
<title>r5:sw&#45;&gt;r6:ne</title>
<path fill="none" stroke="#000000" d="M2488,-128C2461.9524,-101.9524 2548.2159,-84.9918 2545.8589,-60.861"/>
<polygon fill="#000000" stroke="#000000" points="2548.877,-59.0855 2541,-52 2542.7392,-62.4511 2548.877,-59.0855"/>
<text text-anchor="middle" x="2560.5" y="-55.8" font-family="Times,serif" font-size="14.00" fill="#000000">value</text>
<text text-anchor="middle" x="2481" y="-116.8" font-family="Times,serif" font-size="14.00" fill="#000000">/1</text>
</g>
</g>
</svg>
