<?xml version="1.0" encoding="UTF-8" standalone="no"?>
<!DOCTYPE svg PUBLIC "-//W3C//DTD SVG 1.1//EN"
 "http://www.w3.org/Graphics/SVG/1.1/DTD/svg11.dtd">
<!-- Generated by graphviz version 2.40.1 (20161225.0304)
 -->
<!-- Title: mandlebrot Pages: 1 -->
<svg width="2999pt" height="1355pt"
 viewBox="0.00 0.00 2999.00 1355.00" xmlns="http://www.w3.org/2000/svg" xmlns:xlink="http://www.w3.org/1999/xlink">
<g id="graph0" class="graph" transform="scale(1 1) rotate(0) translate(4 1351)">
<title>mandlebrot</title>
<polygon fill="#ffffff" stroke="transparent" points="-4,4 -4,-1351 2995,-1351 2995,4 -4,4"/>
<text text-anchor="middle" x="1495.5" y="-1331.8" font-family="Times,serif" font-size="14.00" fill="#000000">/mandlebrot</text>
<g id="clust1" class="cluster">
<title>cluster_parse_args</title>
<polygon fill="none" stroke="#000000" points="101,-508 101,-1316 2325,-1316 2325,-508 101,-508"/>
<text text-anchor="middle" x="1213" y="-1300.8" font-family="Times,serif" font-size="14.00" fill="#000000">/mandlebrot/parse_args</text>
</g>
<g id="clust2" class="cluster">
<title>cluster_generate_pixels</title>
<polygon fill="none" stroke="#000000" points="2333,-213 2333,-1097 2917,-1097 2917,-213 2333,-213"/>
<text text-anchor="middle" x="2625" y="-1081.8" font-family="Times,serif" font-size="14.00" fill="#000000">/mandlebrot/generate_pixels</text>
</g>
<g id="clust3" class="cluster">
<title>cluster_y_sequence</title>
<polygon fill="none" stroke="#000000" points="2501,-435 2501,-1066 2909,-1066 2909,-435 2501,-435"/>
<text text-anchor="middle" x="2705" y="-1050.8" font-family="Times,serif" font-size="14.00" fill="#000000">/mandlebrot/generate_pixels/y&#45;sequence</text>
</g>
<g id="clust4" class="cluster">
<title>cluster_render</title>
<polygon fill="none" stroke="#000000" points="2355,-8 2355,-194 2573,-194 2573,-8 2355,-8"/>
<text text-anchor="middle" x="2464" y="-178.8" font-family="Times,serif" font-size="14.00" fill="#000000">/mandlebrot/render</text>
</g>
<!-- r13 -->
<g id="node1" class="node">
<title>r13</title>
<g id="a_node1"><a xlink:href="file:///home/travis/build/andrewdavidmackenzie/flow/flowr/src/lib/flowruntime/args/get.html" xlink:title="args (#13)">
<ellipse fill="#ff7f50" stroke="#000000" cx="609" cy="-1267" rx="60.3893" ry="18"/>
<text text-anchor="middle" x="609" y="-1263.3" font-family="Times,serif" font-size="14.00" fill="#000000">args (#13)</text>
</a>
</g>
</g>
<!-- r22 -->
<g id="node2" class="node">
<title>r22</title>
<g id="a_node2"><a xlink:href="file:///home/travis/build/andrewdavidmackenzie/flow/flowstdlib/data/buffer/buffer.html" xlink:title="filename_buffer (#22)">
<ellipse fill="#ff7f50" stroke="#000000" cx="222" cy="-1142" rx="113.18" ry="18"/>
<text text-anchor="middle" x="222" y="-1138.3" font-family="Times,serif" font-size="14.00" fill="#000000">filename_buffer (#22)</text>
</a>
</g>
</g>
<!-- r13&#45;&gt;r22 -->
<g id="edge1" class="edge">
<title>r13:s&#45;&gt;r22:n</title>
<path fill="none" stroke="#000000" d="M609,-1249C609,-1206.5096 466.3921,-1206.5982 425,-1197 383.9952,-1187.4917 247.2113,-1202.9013 225.0461,-1170.0232"/>
<polygon fill="#000000" stroke="#000000" points="228.2566,-1168.5502 222,-1160 221.5591,-1170.5857 228.2566,-1168.5502"/>
<text text-anchor="middle" x="578.5" y="-1237.8" font-family="Times,serif" font-size="14.00" fill="#000000">/string/1</text>
</g>
<!-- r12 -->
<g id="node3" class="node">
<title>r12</title>
<g id="a_node3"><a xlink:href="file:///home/travis/build/andrewdavidmackenzie/flow/flowstdlib/data/ordered_split/ordered_split.html" xlink:title="split_size (#12)">
<ellipse fill="#ff7f50" stroke="#000000" cx="1163" cy="-1142" rx="83.3857" ry="18"/>
<text text-anchor="middle" x="1163" y="-1138.3" font-family="Times,serif" font-size="14.00" fill="#000000">split_size (#12)</text>
</a>
</g>
</g>
<!-- r13&#45;&gt;r12 -->
<g id="edge2" class="edge">
<title>r13:se&#45;&gt;r12:n</title>
<path fill="none" stroke="#000000" d="M626,-1250C648.3513,-1227.6487 727.2701,-1204.4049 758,-1197 767.9529,-1194.6017 1092.4882,-1175.4406 1153.2511,-1163.4608"/>
<polygon fill="#000000" stroke="#000000" points="1154.7471,-1166.6438 1163,-1160 1152.4053,-1160.0471 1154.7471,-1166.6438"/>
<text text-anchor="middle" x="1141.5" y="-1163.8" font-family="Times,serif" font-size="14.00" fill="#000000">string</text>
<text text-anchor="middle" x="656.5" y="-1238.8" font-family="Times,serif" font-size="14.00" fill="#000000">/string/2</text>
</g>
<!-- r15 -->
<g id="node4" class="node">
<title>r15</title>
<g id="a_node4"><a xlink:href="file:///home/travis/build/andrewdavidmackenzie/flow/flowstdlib/data/ordered_split/ordered_split.html" xlink:title="split_upper_left (#15)">
<ellipse fill="#ff7f50" stroke="#000000" cx="894" cy="-1142" rx="113.18" ry="18"/>
<text text-anchor="middle" x="894" y="-1138.3" font-family="Times,serif" font-size="14.00" fill="#000000">split_upper_left (#15)</text>
</a>
</g>
</g>
<!-- r13&#45;&gt;r15 -->
<g id="edge3" class="edge">
<title>r13:e&#45;&gt;r15:n</title>
<path fill="none" stroke="#000000" d="M670,-1267C687.4921,-1267 688.8423,-1255.7012 705,-1249 787.4138,-1214.82 885.9613,-1249.8824 893.5346,-1170.2875"/>
<polygon fill="#000000" stroke="#000000" points="897.0444,-1170.148 894,-1160 890.0516,-1169.8316 897.0444,-1170.148"/>
<text text-anchor="middle" x="872.5" y="-1163.8" font-family="Times,serif" font-size="14.00" fill="#000000">string</text>
<text text-anchor="middle" x="700.5" y="-1270.8" font-family="Times,serif" font-size="14.00" fill="#000000">/string/3</text>
</g>
<!-- r16 -->
<g id="node5" class="node">
<title>r16</title>
<g id="a_node5"><a xlink:href="file:///home/travis/build/andrewdavidmackenzie/flow/flowstdlib/data/ordered_split/ordered_split.html" xlink:title="split_lower_right (#16)">
<ellipse fill="#ff7f50" stroke="#000000" cx="544" cy="-1142" rx="118.8789" ry="18"/>
<text text-anchor="middle" x="544" y="-1138.3" font-family="Times,serif" font-size="14.00" fill="#000000">split_lower_right (#16)</text>
</a>
</g>
</g>
<!-- r13&#45;&gt;r16 -->
<g id="edge4" class="edge">
<title>r13:se&#45;&gt;r16:n</title>
<path fill="none" stroke="#000000" d="M626,-1250C661.7226,-1214.2774 559.2734,-1213.9764 545.5094,-1170.0614"/>
<polygon fill="#000000" stroke="#000000" points="548.9449,-1169.3701 544,-1160 542.0224,-1170.4086 548.9449,-1169.3701"/>
<text text-anchor="middle" x="522.5" y="-1163.8" font-family="Times,serif" font-size="14.00" fill="#000000">string</text>
<text text-anchor="middle" x="656.5" y="-1253.8" font-family="Times,serif" font-size="14.00" fill="#000000">/string/4</text>
</g>
<!-- r22&#45;&gt;r22 -->
<g id="edge54" class="edge">
<title>r22:e&#45;&gt;r22:n</title>
<path fill="none" stroke="#000000" d="M335,-1142C359.09,-1133 407.09,-1133 407.09,-1151 407.09,-1168.0508 296.3676,-1168.9499 232.2482,-1161.3474"/>
<polygon fill="#000000" stroke="#000000" points="232.371,-1157.8335 222,-1160 231.4584,-1164.7738 232.371,-1157.8335"/>
</g>
<!-- r17 -->
<g id="node38" class="node">
<title>r17</title>
<g id="a_node38"><a xlink:href="file:///home/travis/build/andrewdavidmackenzie/flow/flowr/src/lib/flowruntime/image/image_buffer.html" xlink:title="image_buffer (#17)">
<ellipse fill="#ff7f50" stroke="#000000" cx="2464" cy="-34" rx="101.2821" ry="18"/>
<text text-anchor="middle" x="2464" y="-30.3" font-family="Times,serif" font-size="14.00" fill="#000000">image_buffer (#17)</text>
</a>
</g>
</g>
<!-- r22&#45;&gt;r17 -->
<g id="edge55" class="edge">
<title>r22:e&#45;&gt;r17:w</title>
<path fill="none" stroke="#000000" d="M335,-1142C343,-1142 339.7184,-1130.4604 335,-1124 242.8139,-997.7813 0,-1173.2992 0,-1017 0,-1017 0,-1017 0,-89.5 0,-57.7429 2181.4811,-35.4727 2351.8276,-34.0703"/>
<polygon fill="#000000" stroke="#000000" points="2352.0244,-37.5691 2362,-34 2351.976,-30.5692 2352.0244,-37.5691"/>
<text text-anchor="middle" x="2331" y="-37.8" font-family="Times,serif" font-size="14.00" fill="#000000">filename</text>
</g>
<!-- r10 -->
<g id="node7" class="node">
<title>r10</title>
<g id="a_node7"><a xlink:href="file:///home/travis/build/andrewdavidmackenzie/flow/flowstdlib/fmt/to_json/to_json.html" xlink:title="size_to_json (#10)">
<ellipse fill="#ff7f50" stroke="#000000" cx="1773" cy="-944" rx="96.3833" ry="18"/>
<text text-anchor="middle" x="1773" y="-940.3" font-family="Times,serif" font-size="14.00" fill="#000000">size_to_json (#10)</text>
</a>
</g>
</g>
<!-- r12&#45;&gt;r10 -->
<g id="edge6" class="edge">
<title>r12:e&#45;&gt;r10:n</title>
<path fill="none" stroke="#000000" d="M1247,-1142C1367.1654,-1142 1751.1992,-1088.5888 1772.1112,-971.9842"/>
<polygon fill="#000000" stroke="#000000" points="1775.5994,-972.271 1773,-962 1768.627,-971.6502 1775.5994,-972.271"/>
</g>
<!-- r14 -->
<g id="node16" class="node">
<title>r14</title>
<g id="a_node16"><a xlink:href="file:///home/travis/build/andrewdavidmackenzie/flow/flowstdlib/fmt/to_json/to_json.html" xlink:title="upper_left_to_json (#14)">
<ellipse fill="#ff7f50" stroke="#000000" cx="1007" cy="-944" rx="126.1777" ry="18"/>
<text text-anchor="middle" x="1007" y="-940.3" font-family="Times,serif" font-size="14.00" fill="#000000">upper_left_to_json (#14)</text>
</a>
</g>
</g>
<!-- r15&#45;&gt;r14 -->
<g id="edge16" class="edge">
<title>r15:e&#45;&gt;r14:n</title>
<path fill="none" stroke="#000000" d="M1007,-1142C1083.5625,-1142 1013.5796,-1050.4091 1007.4241,-972.4138"/>
<polygon fill="#000000" stroke="#000000" points="1010.9041,-971.8493 1007,-962 1003.9099,-972.1342 1010.9041,-971.8493"/>
</g>
<!-- r7 -->
<g id="node19" class="node">
<title>r7</title>
<g id="a_node19"><a xlink:href="file:///home/travis/build/andrewdavidmackenzie/flow/flowstdlib/fmt/to_json/to_json.html" xlink:title="lower_right_to_json (#7)">
<ellipse fill="#ff7f50" stroke="#000000" cx="459" cy="-944" rx="126.1777" ry="18"/>
<text text-anchor="middle" x="459" y="-940.3" font-family="Times,serif" font-size="14.00" fill="#000000">lower_right_to_json (#7)</text>
</a>
</g>
</g>
<!-- r16&#45;&gt;r7 -->
<g id="edge19" class="edge">
<title>r16:e&#45;&gt;r7:n</title>
<path fill="none" stroke="#000000" d="M663,-1142C671,-1142 666.4785,-1131.2042 663,-1124 614.1829,-1022.896 468.2089,-1074.4123 459.4153,-972.0464"/>
<polygon fill="#000000" stroke="#000000" points="462.9102,-971.8469 459,-962 455.9162,-972.1361 462.9102,-971.8469"/>
</g>
<!-- initializerr12_1 -->
<!-- initializerr12_1&#45;&gt;r12 -->
<g id="edge5" class="edge">
<title>initializerr12_1&#45;&gt;r12:w</title>
<path fill="none" stroke="#0000ff" d="M1071.692,-1248.8239C1059.8853,-1217.2702 1040.6589,-1154.6628 1069.1234,-1143.6678"/>
<polygon fill="#0000ff" stroke="#0000ff" points="1069.7224,-1147.1163 1079,-1142 1068.5568,-1140.214 1069.7224,-1147.1163"/>
<text text-anchor="middle" x="1070" y="-1200.8" font-family="Times,serif" font-size="14.00" fill="#000000">&quot;x&quot;</text>
</g>
<!-- r6 -->
<g id="node8" class="node">
<title>r6</title>
<g id="a_node8"><a xlink:href="file:///home/travis/build/andrewdavidmackenzie/flow/flowstdlib/data/accumulate/accumulate.html" xlink:title="accumulate_size (#6)">
<ellipse fill="#ff7f50" stroke="#000000" cx="2017" cy="-805" rx="111.2805" ry="18"/>
<text text-anchor="middle" x="2017" y="-801.3" font-family="Times,serif" font-size="14.00" fill="#000000">accumulate_size (#6)</text>
</a>
</g>
</g>
<!-- r10&#45;&gt;r6 -->
<g id="edge7" class="edge">
<title>r10:e&#45;&gt;r6:n</title>
<path fill="none" stroke="#000000" d="M1870,-944C1874.5863,-944 1981.7643,-856.9835 2010.1526,-830.4207"/>
<polygon fill="#000000" stroke="#000000" points="2012.7908,-832.7228 2017,-823 2007.6463,-827.9758 2012.7908,-832.7228"/>
<text text-anchor="middle" x="1994" y="-826.8" font-family="Times,serif" font-size="14.00" fill="#000000">values</text>
</g>
<!-- r6&#45;&gt;r6 -->
<g id="edge10" class="edge">
<title>r6:e&#45;&gt;r6:ne</title>
<path fill="none" stroke="#000000" d="M2128,-805C2152.1401,-796 2200.1401,-796 2200.1401,-814 2200.1401,-831.0508 2106.7358,-831.9499 2044.9953,-824.3474"/>
<polygon fill="#000000" stroke="#000000" points="2045.378,-820.8674 2035,-823 2044.4427,-827.8047 2045.378,-820.8674"/>
<text text-anchor="middle" x="2059" y="-826.8" font-family="Times,serif" font-size="14.00" fill="#000000">partial</text>
<text text-anchor="middle" x="2154" y="-808.8" font-family="Times,serif" font-size="14.00" fill="#000000">/partial</text>
</g>
<!-- r4 -->
<g id="node11" class="node">
<title>r4</title>
<g id="a_node11"><a xlink:href="file:///home/travis/build/andrewdavidmackenzie/flow/flowstdlib/math/subtract/subtract.html" xlink:title="height (#4)">
<ellipse fill="#ff7f50" stroke="#000000" cx="1995" cy="-659" rx="63.8893" ry="18"/>
<text text-anchor="middle" x="1995" y="-655.3" font-family="Times,serif" font-size="14.00" fill="#000000">height (#4)</text>
</a>
</g>
</g>
<!-- r6&#45;&gt;r4 -->
<g id="edge11" class="edge">
<title>r6:sw&#45;&gt;r4:n</title>
<path fill="none" stroke="#000000" d="M1999,-787C1985.7857,-773.7857 1970.9933,-784.7914 1961,-769 1939.6015,-735.1861 1986.14,-722.6605 1993.9192,-687.1129"/>
<polygon fill="#000000" stroke="#000000" points="1997.4174,-687.3153 1995,-677 1990.457,-686.5714 1997.4174,-687.3153"/>
<text text-anchor="middle" x="1988" y="-680.8" font-family="Times,serif" font-size="14.00" fill="#000000">i1</text>
<text text-anchor="middle" x="1967.5" y="-775.8" font-family="Times,serif" font-size="14.00" fill="#000000">/chunk/1</text>
</g>
<!-- r2 -->
<g id="node12" class="node">
<title>r2</title>
<g id="a_node12"><a xlink:href="file:///home/travis/build/andrewdavidmackenzie/flow/flowstdlib/control/join/join.html" xlink:title="width&#45;gate (#2)">
<ellipse fill="#ff7f50" stroke="#000000" cx="2215" cy="-659" rx="83.6854" ry="18"/>
<text text-anchor="middle" x="2215" y="-655.3" font-family="Times,serif" font-size="14.00" fill="#000000">width&#45;gate (#2)</text>
</a>
</g>
</g>
<!-- r6&#45;&gt;r2 -->
<g id="edge12" class="edge">
<title>r6:s&#45;&gt;r2:n</title>
<path fill="none" stroke="#000000" d="M2017,-787C2017,-760.857 2049.3799,-780.2049 2073,-769 2137.7572,-738.2804 2208.0705,-750.8574 2214.5201,-686.9917"/>
<polygon fill="#000000" stroke="#000000" points="2218.0161,-687.1564 2215,-677 2211.0242,-686.8205 2218.0161,-687.1564"/>
<text text-anchor="middle" x="2199" y="-680.8" font-family="Times,serif" font-size="14.00" fill="#000000">data</text>
<text text-anchor="middle" x="2048.5" y="-775.8" font-family="Times,serif" font-size="14.00" fill="#000000">/chunk/0</text>
</g>
<!-- r21 -->
<g id="node13" class="node">
<title>r21</title>
<g id="a_node13"><a xlink:href="file:///home/travis/build/andrewdavidmackenzie/flow/flowstdlib/data/buffer/buffer.html" xlink:title="buffer_size (#21)">
<ellipse fill="#ff7f50" stroke="#000000" cx="1478" cy="-659" rx="90.9839" ry="18"/>
<text text-anchor="middle" x="1478" y="-655.3" font-family="Times,serif" font-size="14.00" fill="#000000">buffer_size (#21)</text>
</a>
</g>
</g>
<!-- r6&#45;&gt;r21 -->
<g id="edge13" class="edge">
<title>r6:s&#45;&gt;r21:n</title>
<path fill="none" stroke="#000000" d="M2017,-787C2017,-729.1 1533.3487,-737.0357 1482.3386,-686.0793"/>
<polygon fill="#000000" stroke="#000000" points="1485.4696,-684.5137 1478,-677 1479.1537,-687.5318 1485.4696,-684.5137"/>
<text text-anchor="middle" x="1992.5" y="-775.8" font-family="Times,serif" font-size="14.00" fill="#000000">/chunk</text>
</g>
<!-- r18 -->
<g id="node14" class="node">
<title>r18</title>
<g id="a_node14"><a xlink:href="file:///home/travis/build/andrewdavidmackenzie/flow/flowstdlib/data/buffer/buffer.html" xlink:title="size_buffer (#18)">
<ellipse fill="#ff7f50" stroke="#000000" cx="1750" cy="-659" rx="90.9839" ry="18"/>
<text text-anchor="middle" x="1750" y="-655.3" font-family="Times,serif" font-size="14.00" fill="#000000">size_buffer (#18)</text>
</a>
</g>
</g>
<!-- r6&#45;&gt;r18 -->
<g id="edge14" class="edge">
<title>r6:s&#45;&gt;r18:n</title>
<path fill="none" stroke="#000000" d="M2017,-787C2017,-745.3359 2030.1891,-722.6251 1999,-695 1980.5063,-678.6196 1797.4445,-699.1418 1757.621,-684.2307"/>
<polygon fill="#000000" stroke="#000000" points="1759.6634,-681.3439 1750,-677 1754.8454,-686.422 1759.6634,-681.3439"/>
<text text-anchor="middle" x="1992.5" y="-790.8" font-family="Times,serif" font-size="14.00" fill="#000000">/chunk</text>
</g>
<!-- initializerr6_1 -->
<!-- initializerr6_1&#45;&gt;r6 -->
<g id="edge8" class="edge">
<title>initializerr6_1&#45;&gt;r6:n</title>
<path fill="none" stroke="#0000ff" stroke-dasharray="1,5" d="M2207.4649,-927.7968C2153.7639,-901.6318 2051.6983,-850.9383 2024.0543,-830.413"/>
<polygon fill="#0000ff" stroke="#0000ff" points="2026.4292,-827.8314 2017,-823 2021.3582,-832.6569 2026.4292,-827.8314"/>
<text text-anchor="middle" x="2134.5" y="-877.8" font-family="Times,serif" font-size="14.00" fill="#000000">[]</text>
</g>
<!-- initializerr6_2 -->
<!-- initializerr6_2&#45;&gt;r6 -->
<g id="edge9" class="edge">
<title>initializerr6_2&#45;&gt;r6:n</title>
<path fill="none" stroke="#0000ff" d="M2017,-925.96C2017,-904.5319 2017,-867.4021 2017,-833.4232"/>
<polygon fill="#0000ff" stroke="#0000ff" points="2020.5001,-833 2017,-823 2013.5001,-833 2020.5001,-833"/>
<text text-anchor="middle" x="2022" y="-877.8" font-family="Times,serif" font-size="14.00" fill="#000000">2</text>
</g>
<!-- r1 -->
<g id="node30" class="node">
<title>r1</title>
<g id="a_node30"><a xlink:href="file:///home/travis/build/andrewdavidmackenzie/flow/flowstdlib/control/compare_switch/compare_switch.html" xlink:title="compare (#1)">
<ellipse fill="#ff7f50" stroke="#000000" cx="2584" cy="-732" rx="74.9875" ry="18"/>
<text text-anchor="middle" x="2584" y="-728.3" font-family="Times,serif" font-size="14.00" fill="#000000">compare (#1)</text>
</a>
</g>
</g>
<!-- r4&#45;&gt;r1 -->
<g id="edge34" class="edge">
<title>r4:se&#45;&gt;r1:n</title>
<path fill="none" stroke="#000000" d="M2013,-641C2027.3603,-626.6397 2039.8632,-633.3956 2058.6943,-641 2080.0595,-649.6277 2074.8527,-667.8515 2096,-677 2124.7555,-689.4399 2637.6864,-690.8001 2658.7434,-714 2658.7434,-714 2613.1236,-735.9727 2593.165,-745.5857"/>
<polygon fill="#000000" stroke="#000000" points="2591.4906,-742.5073 2584,-750 2594.5282,-748.8139 2591.4906,-742.5073"/>
<text text-anchor="middle" x="2571.5" y="-753.8" font-family="Times,serif" font-size="14.00" fill="#000000">left</text>
<text text-anchor="middle" x="1998.5" y="-629.8" font-family="Times,serif" font-size="14.00" fill="#000000">/diff</text>
</g>
<!-- r2&#45;&gt;r2 -->
<g id="edge43" class="edge">
<title>r2:e&#45;&gt;r2:n</title>
<path fill="none" stroke="#000000" d="M2299,-659C2322.8426,-650 2370.8426,-650 2370.8426,-668 2370.8426,-684.9102 2279.1477,-685.934 2224.9725,-678.5338"/>
<polygon fill="#000000" stroke="#000000" points="2225.4159,-675.0609 2215,-677 2224.3517,-681.9796 2225.4159,-675.0609"/>
<text text-anchor="middle" x="2231" y="-680.8" font-family="Times,serif" font-size="14.00" fill="#000000">data</text>
</g>
<!-- r3 -->
<g id="node32" class="node">
<title>r3</title>
<g id="a_node32"><a xlink:href="file:///home/travis/build/andrewdavidmackenzie/flow/flowstdlib/data/duplicate/duplicate.html" xlink:title="y&#45;duplicator (#3)">
<ellipse fill="#ff7f50" stroke="#000000" cx="2599" cy="-461" rx="90.1842" ry="18"/>
<text text-anchor="middle" x="2599" y="-457.3" font-family="Times,serif" font-size="14.00" fill="#000000">y&#45;duplicator (#3)</text>
</a>
</g>
</g>
<!-- r2&#45;&gt;r3 -->
<g id="edge44" class="edge">
<title>r2:e&#45;&gt;r3:ne</title>
<path fill="none" stroke="#000000" d="M2299,-659C2439.7058,-659 2444.6143,-558.8448 2571,-497 2583.4788,-490.8937 2604.8014,-491.5241 2614.8439,-488.8764"/>
<polygon fill="#000000" stroke="#000000" points="2618.2865,-489.5164 2617,-479 2611.4476,-488.0234 2618.2865,-489.5164"/>
<text text-anchor="middle" x="2595.5" y="-482.8" font-family="Times,serif" font-size="14.00" fill="#000000">factor</text>
</g>
<!-- r21&#45;&gt;r21 -->
<g id="edge50" class="edge">
<title>r21:e&#45;&gt;r21:n</title>
<path fill="none" stroke="#000000" d="M1569,-659C1592.9919,-650 1640.9919,-650 1640.9919,-668 1640.9919,-684.9453 1544.6913,-685.9382 1488.0771,-678.4875"/>
<polygon fill="#000000" stroke="#000000" points="1488.4039,-674.9979 1478,-677 1487.3817,-681.9229 1488.4039,-674.9979"/>
</g>
<!-- r20 -->
<g id="node36" class="node">
<title>r20</title>
<g id="a_node36"><a xlink:href="file:///home/travis/build/andrewdavidmackenzie/flow/samples/mandlebrot/pixel_to_point/pixel_to_point.html" xlink:title="p2p (#20)">
<ellipse fill="#ff7f50" stroke="#000000" cx="2399" cy="-239" rx="57.6901" ry="18"/>
<text text-anchor="middle" x="2399" y="-235.3" font-family="Times,serif" font-size="14.00" fill="#000000">p2p (#20)</text>
</a>
</g>
</g>
<!-- r21&#45;&gt;r20 -->
<g id="edge51" class="edge">
<title>r21:e&#45;&gt;r20:nw</title>
<path fill="none" stroke="#000000" d="M1569,-659C1594.2982,-659 1598.777,-648.2968 1623,-641 1695.7255,-619.0925 1788,-672.4535 1788,-596.5 1788,-596.5 1788,-596.5 1788,-294.5 1788,-165.5816 2263.3744,-340.2281 2374.1032,-262.5913"/>
<polygon fill="#000000" stroke="#000000" points="2376.5656,-265.095 2382,-256 2372.0801,-259.721 2376.5656,-265.095"/>
<text text-anchor="middle" x="2368" y="-259.8" font-family="Times,serif" font-size="14.00" fill="#000000">size</text>
</g>
<!-- r18&#45;&gt;r18 -->
<g id="edge56" class="edge">
<title>r18:e&#45;&gt;r18:n</title>
<path fill="none" stroke="#000000" d="M1841,-659C1864.9919,-650 1912.9919,-650 1912.9919,-668 1912.9919,-684.9453 1816.6913,-685.9382 1760.0771,-678.4875"/>
<polygon fill="#000000" stroke="#000000" points="1760.4039,-674.9979 1750,-677 1759.3817,-681.9229 1760.4039,-674.9979"/>
</g>
<!-- r18&#45;&gt;r17 -->
<g id="edge57" class="edge">
<title>r18:e&#45;&gt;r17:nw</title>
<path fill="none" stroke="#000000" d="M1841,-659C1866.2982,-659 1870.4192,-646.9822 1895,-641 2120.5581,-586.1061 2716.0447,-575.8898 2927,-479 2960.9507,-463.4067 2991,-461.8604 2991,-424.5 2991,-424.5 2991,-424.5 2991,-89.5 2991,-34.4918 2508.1473,-83.6377 2449.5579,-61.3907"/>
<polygon fill="#000000" stroke="#000000" points="2452.816,-60.1113 2446,-52 2446.2701,-62.5914 2452.816,-60.1113"/>
<text text-anchor="middle" x="2432" y="-55.8" font-family="Times,serif" font-size="14.00" fill="#000000">size</text>
</g>
<!-- initializerr15_1 -->
<!-- initializerr15_1&#45;&gt;r15 -->
<g id="edge15" class="edge">
<title>initializerr15_1&#45;&gt;r15:w</title>
<path fill="none" stroke="#0000ff" d="M809.3783,-1249.0905C786.3657,-1217.6323 744.7539,-1154.7257 771.1212,-1143.6762"/>
<polygon fill="#0000ff" stroke="#0000ff" points="771.7264,-1147.1236 781,-1142 770.5554,-1140.2222 771.7264,-1147.1236"/>
<text text-anchor="middle" x="792.5" y="-1200.8" font-family="Times,serif" font-size="14.00" fill="#000000">&quot;,&quot;</text>
</g>
<!-- r11 -->
<g id="node17" class="node">
<title>r11</title>
<g id="a_node17"><a xlink:href="file:///home/travis/build/andrewdavidmackenzie/flow/flowstdlib/data/accumulate/accumulate.html" xlink:title="accumulate_upper_left (#11)">
<ellipse fill="#ff7f50" stroke="#000000" cx="1209" cy="-805" rx="146.774" ry="18"/>
<text text-anchor="middle" x="1209" y="-801.3" font-family="Times,serif" font-size="14.00" fill="#000000">accumulate_upper_left (#11)</text>
</a>
</g>
</g>
<!-- r14&#45;&gt;r11 -->
<g id="edge17" class="edge">
<title>r14:e&#45;&gt;r11:n</title>
<path fill="none" stroke="#000000" d="M1133,-944C1185.9784,-944 1161.9142,-883.8997 1193,-841 1196.5328,-836.1246 1201.1537,-834.4254 1204.5208,-831.9668"/>
<polygon fill="#000000" stroke="#000000" points="1207.6622,-833.51 1209,-823 1201.4001,-830.3818 1207.6622,-833.51"/>
<text text-anchor="middle" x="1186" y="-826.8" font-family="Times,serif" font-size="14.00" fill="#000000">values</text>
</g>
<!-- r11&#45;&gt;r11 -->
<g id="edge23" class="edge">
<title>r11:e&#45;&gt;r11:ne</title>
<path fill="none" stroke="#000000" d="M1356,-805C1379.887,-796 1427.887,-796 1427.887,-814 1427.887,-831.1914 1311.1974,-831.9637 1237.149,-824.1576"/>
<polygon fill="#000000" stroke="#000000" points="1237.3322,-820.6559 1227,-823 1236.5389,-827.6108 1237.3322,-820.6559"/>
<text text-anchor="middle" x="1251" y="-826.8" font-family="Times,serif" font-size="14.00" fill="#000000">partial</text>
<text text-anchor="middle" x="1382" y="-808.8" font-family="Times,serif" font-size="14.00" fill="#000000">/partial</text>
</g>
<!-- r9 -->
<g id="node23" class="node">
<title>r9</title>
<g id="a_node23"><a xlink:href="file:///home/travis/build/andrewdavidmackenzie/flow/flowstdlib/data/accumulate/accumulate.html" xlink:title="accumulate_bounds (#9)">
<ellipse fill="#ff7f50" stroke="#000000" cx="733" cy="-659" rx="126.978" ry="18"/>
<text text-anchor="middle" x="733" y="-655.3" font-family="Times,serif" font-size="14.00" fill="#000000">accumulate_bounds (#9)</text>
</a>
</g>
</g>
<!-- r11&#45;&gt;r9 -->
<g id="edge24" class="edge">
<title>r11:s&#45;&gt;r9:n</title>
<path fill="none" stroke="#000000" d="M1209,-787C1209,-735.8979 787.147,-731.6323 737.7111,-686.0188"/>
<polygon fill="#000000" stroke="#000000" points="740.7323,-684.243 733,-677 734.5278,-687.4841 740.7323,-684.243"/>
<text text-anchor="middle" x="710" y="-680.8" font-family="Times,serif" font-size="14.00" fill="#000000">values</text>
<text text-anchor="middle" x="1184.5" y="-775.8" font-family="Times,serif" font-size="14.00" fill="#000000">/chunk</text>
</g>
<!-- initializerr16_1 -->
<!-- initializerr16_1&#45;&gt;r16 -->
<g id="edge18" class="edge">
<title>initializerr16_1&#45;&gt;r16:w</title>
<path fill="none" stroke="#0000ff" d="M391.8467,-1248.8239C387.258,-1217.1348 382.4903,-1154.1249 414.8556,-1143.5291"/>
<polygon fill="#0000ff" stroke="#0000ff" points="415.6334,-1146.9515 425,-1142 414.59,-1140.0297 415.6334,-1146.9515"/>
<text text-anchor="middle" x="397.5" y="-1200.8" font-family="Times,serif" font-size="14.00" fill="#000000">&quot;,&quot;</text>
</g>
<!-- r8 -->
<g id="node20" class="node">
<title>r8</title>
<g id="a_node20"><a xlink:href="file:///home/travis/build/andrewdavidmackenzie/flow/flowstdlib/data/accumulate/accumulate.html" xlink:title="accumulate_lower_right (#8)">
<ellipse fill="#ff7f50" stroke="#000000" cx="733" cy="-805" rx="146.774" ry="18"/>
<text text-anchor="middle" x="733" y="-801.3" font-family="Times,serif" font-size="14.00" fill="#000000">accumulate_lower_right (#8)</text>
</a>
</g>
</g>
<!-- r7&#45;&gt;r8 -->
<g id="edge20" class="edge">
<title>r7:e&#45;&gt;r8:n</title>
<path fill="none" stroke="#000000" d="M585,-944C589.6049,-944 697.5213,-856.9996 726.1053,-830.4272"/>
<polygon fill="#000000" stroke="#000000" points="728.7617,-832.7102 733,-823 723.6314,-827.9477 728.7617,-832.7102"/>
<text text-anchor="middle" x="710" y="-826.8" font-family="Times,serif" font-size="14.00" fill="#000000">values</text>
</g>
<!-- r8&#45;&gt;r8 -->
<g id="edge27" class="edge">
<title>r8:e&#45;&gt;r8:ne</title>
<path fill="none" stroke="#000000" d="M880,-805C903.887,-796 951.887,-796 951.887,-814 951.887,-831.1914 835.1974,-831.9637 761.149,-824.1576"/>
<polygon fill="#000000" stroke="#000000" points="761.3322,-820.6559 751,-823 760.5389,-827.6108 761.3322,-820.6559"/>
<text text-anchor="middle" x="775" y="-826.8" font-family="Times,serif" font-size="14.00" fill="#000000">partial</text>
<text text-anchor="middle" x="906" y="-808.8" font-family="Times,serif" font-size="14.00" fill="#000000">/partial</text>
</g>
<!-- r8&#45;&gt;r9 -->
<g id="edge28" class="edge">
<title>r8:s&#45;&gt;r9:n</title>
<path fill="none" stroke="#000000" d="M733,-787C733,-741.6441 733,-727.8469 733,-687.0522"/>
<polygon fill="#000000" stroke="#000000" points="736.5001,-687 733,-677 729.5001,-687 736.5001,-687"/>
<text text-anchor="middle" x="756" y="-680.8" font-family="Times,serif" font-size="14.00" fill="#000000">values</text>
<text text-anchor="middle" x="708.5" y="-775.8" font-family="Times,serif" font-size="14.00" fill="#000000">/chunk</text>
</g>
<!-- initializerr11_1 -->
<!-- initializerr11_1&#45;&gt;r11 -->
<g id="edge21" class="edge">
<title>initializerr11_1&#45;&gt;r11:n</title>
<path fill="none" stroke="#0000ff" stroke-dasharray="1,5" d="M1477.677,-928.9772C1401.2507,-903.3609 1251.6209,-851.8945 1216.5031,-830.1499"/>
<polygon fill="#0000ff" stroke="#0000ff" points="1218.654,-827.3648 1209,-823 1213.825,-832.4324 1218.654,-827.3648"/>
<text text-anchor="middle" x="1365.5" y="-877.8" font-family="Times,serif" font-size="14.00" fill="#000000">[]</text>
</g>
<!-- initializerr11_2 -->
<!-- initializerr11_2&#45;&gt;r11 -->
<g id="edge22" class="edge">
<title>initializerr11_2&#45;&gt;r11:n</title>
<path fill="none" stroke="#0000ff" d="M1266.0974,-926.2092C1244.8882,-906.2273 1214.5037,-871.5532 1209.6615,-833.3255"/>
<polygon fill="#0000ff" stroke="#0000ff" points="1213.1322,-832.7558 1209,-823 1206.1465,-833.2033 1213.1322,-832.7558"/>
<text text-anchor="middle" x="1237" y="-877.8" font-family="Times,serif" font-size="14.00" fill="#000000">2</text>
</g>
<!-- r9&#45;&gt;r9 -->
<g id="edge31" class="edge">
<title>r9:e&#45;&gt;r9:ne</title>
<path fill="none" stroke="#000000" d="M860,-659C883.7388,-650 931.7388,-650 931.7388,-668 931.7388,-685.1211 828.1542,-685.9571 761.0302,-678.2529"/>
<polygon fill="#000000" stroke="#000000" points="761.3567,-674.7666 751,-677 760.489,-681.7126 761.3567,-674.7666"/>
<text text-anchor="middle" x="775" y="-680.8" font-family="Times,serif" font-size="14.00" fill="#000000">partial</text>
<text text-anchor="middle" x="886" y="-662.8" font-family="Times,serif" font-size="14.00" fill="#000000">/partial</text>
</g>
<!-- r23 -->
<g id="node28" class="node">
<title>r23</title>
<g id="a_node28"><a xlink:href="file:///home/travis/build/andrewdavidmackenzie/flow/flowstdlib/data/buffer/buffer.html" xlink:title="buffer_bounds (#23)">
<ellipse fill="#ff7f50" stroke="#000000" cx="1279" cy="-534" rx="106.6812" ry="18"/>
<text text-anchor="middle" x="1279" y="-530.3" font-family="Times,serif" font-size="14.00" fill="#000000">buffer_bounds (#23)</text>
</a>
</g>
</g>
<!-- r9&#45;&gt;r23 -->
<g id="edge32" class="edge">
<title>r9:s&#45;&gt;r23:n</title>
<path fill="none" stroke="#000000" d="M733,-641C733,-398.6122 1263.6466,-786.5937 1278.6747,-562.0582"/>
<polygon fill="#000000" stroke="#000000" points="1282.1748,-562.108 1279,-552 1275.1784,-561.8816 1282.1748,-562.108"/>
<text text-anchor="middle" x="708.5" y="-629.8" font-family="Times,serif" font-size="14.00" fill="#000000">/chunk</text>
</g>
<!-- initializerr8_1 -->
<!-- initializerr8_1&#45;&gt;r8 -->
<g id="edge25" class="edge">
<title>initializerr8_1&#45;&gt;r8:n</title>
<path fill="none" stroke="#0000ff" stroke-dasharray="1,5" d="M242.3521,-932.0892C369.1558,-905.6678 666.6159,-843.1785 723.5042,-826.6481"/>
<polygon fill="#0000ff" stroke="#0000ff" points="724.9204,-829.8535 733,-823 722.41,-823.3192 724.9204,-829.8535"/>
<text text-anchor="middle" x="518.5" y="-877.8" font-family="Times,serif" font-size="14.00" fill="#000000">[]</text>
</g>
<!-- initializerr8_2 -->
<!-- initializerr8_2&#45;&gt;r8 -->
<g id="edge26" class="edge">
<title>initializerr8_2&#45;&gt;r8:n</title>
<path fill="none" stroke="#0000ff" d="M733,-925.96C733,-904.5319 733,-867.4021 733,-833.4232"/>
<polygon fill="#0000ff" stroke="#0000ff" points="736.5001,-833 733,-823 729.5001,-833 736.5001,-833"/>
<text text-anchor="middle" x="738" y="-877.8" font-family="Times,serif" font-size="14.00" fill="#000000">2</text>
</g>
<!-- initializerr9_1 -->
<!-- initializerr9_1&#45;&gt;r9 -->
<g id="edge29" class="edge">
<title>initializerr9_1&#45;&gt;r9:n</title>
<path fill="none" stroke="#0000ff" stroke-dasharray="1,5" d="M478.3999,-789.6928C549.4095,-762.5312 692.2701,-706.655 725.8278,-684.2106"/>
<polygon fill="#0000ff" stroke="#0000ff" points="728.4293,-686.5582 733,-677 723.4663,-681.6217 728.4293,-686.5582"/>
<text text-anchor="middle" x="670.5" y="-728.3" font-family="Times,serif" font-size="14.00" fill="#000000">[]</text>
</g>
<!-- initializerr9_2 -->
<!-- initializerr9_2&#45;&gt;r9 -->
<g id="edge30" class="edge">
<title>initializerr9_2&#45;&gt;r9:n</title>
<path fill="none" stroke="#0000ff" d="M262.1793,-791.0285C327.5339,-772.3063 448.0658,-738.5898 552,-714 560.6223,-711.9601 689.2487,-693.5167 724.2588,-681.9086"/>
<polygon fill="#0000ff" stroke="#0000ff" points="725.9944,-684.9481 733,-677 722.567,-678.8446 725.9944,-684.9481"/>
<text text-anchor="middle" x="557" y="-728.3" font-family="Times,serif" font-size="14.00" fill="#000000">2</text>
</g>
<!-- r23&#45;&gt;r23 -->
<g id="edge48" class="edge">
<title>r23:e&#45;&gt;r23:n</title>
<path fill="none" stroke="#000000" d="M1386,-534C1409.5905,-525 1457.5905,-525 1457.5905,-543 1457.5905,-560.0156 1351.1963,-560.9462 1289.2716,-553.3943"/>
<polygon fill="#000000" stroke="#000000" points="1289.3799,-549.877 1279,-552 1288.4383,-556.8134 1289.3799,-549.877"/>
</g>
<!-- r23&#45;&gt;r20 -->
<g id="edge49" class="edge">
<title>r23:e&#45;&gt;r20:n</title>
<path fill="none" stroke="#000000" d="M1386,-534C1445.1566,-534 1642,-520.1566 1642,-461 1642,-461 1642,-461 1642,-386.5 1642,-48.668 2383.5552,-587.0818 2398.7629,-267.2197"/>
<polygon fill="#000000" stroke="#000000" points="2402.267,-267.0785 2399,-257 2395.2689,-266.9161 2402.267,-267.0785"/>
<text text-anchor="middle" x="2425" y="-260.8" font-family="Times,serif" font-size="14.00" fill="#000000">bounds</text>
</g>
<!-- initializerr4_1 -->
<!-- initializerr4_1&#45;&gt;r4 -->
<g id="edge33" class="edge">
<title>initializerr4_1&#45;&gt;r4:w</title>
<path fill="none" stroke="#0000ff" stroke-dasharray="1,5" d="M2406.5151,-999.1641C2394.7945,-979.9956 2374.6054,-949.164 2353,-926 2229.6435,-793.7445 2187.412,-758.3081 2018,-695 1981.0126,-681.1781 1955.9322,-707.6186 1931,-677 1929.0268,-674.5768 1927.3745,-671.3001 1926.5702,-668.2065"/>
<polygon fill="#0000ff" stroke="#0000ff" points="1929.8181,-669.5287 1931,-659 1923.5103,-666.4936 1929.8181,-669.5287"/>
<text text-anchor="middle" x="2290" y="-844.8" font-family="Times,serif" font-size="14.00" fill="#000000">1</text>
</g>
<!-- r1&#45;&gt;r2 -->
<g id="edge36" class="edge">
<title>r1:e&#45;&gt;r2:ne</title>
<path fill="none" stroke="#000000" d="M2659,-732C2695.4998,-732 2760.2199,-719.3854 2555,-695 2521.9881,-691.0773 2294.8946,-700.749 2242.0125,-681.9349"/>
<polygon fill="#000000" stroke="#000000" points="2243.4522,-678.7329 2233,-677 2240.0902,-684.8728 2243.4522,-678.7329"/>
<text text-anchor="middle" x="2259" y="-680.8" font-family="Times,serif" font-size="14.00" fill="#000000">control</text>
<text text-anchor="middle" x="2691" y="-735.8" font-family="Times,serif" font-size="14.00" fill="#000000">/right&#45;lte</text>
</g>
<!-- r1&#45;&gt;r1 -->
<g id="edge38" class="edge">
<title>r1:s&#45;&gt;r1:n</title>
<path fill="none" stroke="#000000" d="M2584,-714C2632.9145,-705 2730.7434,-705 2730.7434,-732 2730.7434,-757.2598 2645.1188,-758.8878 2594.0284,-751.6233"/>
<polygon fill="#000000" stroke="#000000" points="2594.4308,-748.1429 2584,-750 2593.3122,-755.053 2594.4308,-748.1429"/>
<text text-anchor="middle" x="2596.5" y="-753.8" font-family="Times,serif" font-size="14.00" fill="#000000">left</text>
<text text-anchor="middle" x="2559.5" y="-702.8" font-family="Times,serif" font-size="14.00" fill="#000000">/left&#45;gt</text>
</g>
<!-- r1&#45;&gt;r3 -->
<g id="edge37" class="edge">
<title>r1:e&#45;&gt;r3:n</title>
<path fill="none" stroke="#000000" d="M2659,-732C2667,-732 2661.5398,-721.5861 2659,-714 2642.8302,-665.7014 2590,-673.4335 2590,-622.5 2590,-622.5 2590,-622.5 2590,-534 2590,-513.1007 2596.4072,-505.9475 2598.4095,-489.3438"/>
<polygon fill="#000000" stroke="#000000" points="2601.9243,-489.1833 2599,-479 2594.9356,-488.7842 2601.9243,-489.1833"/>
<text text-anchor="middle" x="2618.5" y="-482.8" font-family="Times,serif" font-size="14.00" fill="#000000">value</text>
<text text-anchor="middle" x="2691" y="-720.8" font-family="Times,serif" font-size="14.00" fill="#000000">/right&#45;lte</text>
</g>
<!-- r0 -->
<g id="node33" class="node">
<title>r0</title>
<g id="a_node33"><a xlink:href="file:///home/travis/build/andrewdavidmackenzie/flow/flowstdlib/math/add/add.html" xlink:title="add (#0)">
<ellipse fill="#ff7f50" stroke="#000000" cx="2813" cy="-461" rx="51.1914" ry="18"/>
<text text-anchor="middle" x="2813" y="-457.3" font-family="Times,serif" font-size="14.00" fill="#000000">add (#0)</text>
</a>
</g>
</g>
<!-- r1&#45;&gt;r0 -->
<g id="edge39" class="edge">
<title>r1:e&#45;&gt;r0:n</title>
<path fill="none" stroke="#000000" d="M2659,-732C2691.5205,-732 2664,-691.5205 2664,-659 2664,-659 2664,-659 2664,-534 2664,-501.9106 2696.0942,-508.6349 2726,-497 2741.0932,-491.128 2789.9675,-496.0625 2807.0444,-487.1274"/>
<polygon fill="#000000" stroke="#000000" points="2809.9124,-489.135 2813,-479 2804.2661,-484.9974 2809.9124,-489.135"/>
<text text-anchor="middle" x="2806" y="-482.8" font-family="Times,serif" font-size="14.00" fill="#000000">i1</text>
<text text-anchor="middle" x="2631.5" y="-735.8" font-family="Times,serif" font-size="14.00" fill="#000000">/right&#45;lt</text>
</g>
<!-- initializerr1_1 -->
<!-- initializerr1_1&#45;&gt;r1 -->
<g id="edge35" class="edge">
<title>initializerr1_1&#45;&gt;r1:ne</title>
<path fill="none" stroke="#0000ff" stroke-dasharray="1,5" d="M2627.3668,-999.1625C2617.9077,-984.9994 2607,-964.2722 2607,-944 2607,-944 2607,-944 2607,-805 2607,-784.4817 2615.6343,-771.9622 2608.329,-758.268"/>
<polygon fill="#0000ff" stroke="#0000ff" points="2610.8576,-755.8132 2602,-750 2605.2992,-760.0681 2610.8576,-755.8132"/>
<text text-anchor="middle" x="2612" y="-877.8" font-family="Times,serif" font-size="14.00" fill="#000000">0</text>
</g>
<!-- r5 -->
<g id="node35" class="node">
<title>r5</title>
<g id="a_node35"><a xlink:href="file:///home/travis/build/andrewdavidmackenzie/flow/flowstdlib/data/enumerate/enumerate.html" xlink:title="enumerate (#5)">
<ellipse fill="#ff7f50" stroke="#000000" cx="2557" cy="-350" rx="84.485" ry="18"/>
<text text-anchor="middle" x="2557" y="-346.3" font-family="Times,serif" font-size="14.00" fill="#000000">enumerate (#5)</text>
</a>
</g>
</g>
<!-- r3&#45;&gt;r5 -->
<g id="edge45" class="edge">
<title>r3:e&#45;&gt;r5:n</title>
<path fill="none" stroke="#000000" d="M2690,-461C2698,-461 2694.0351,-449.9078 2690,-443 2657.6434,-387.6072 2567.6101,-430.5627 2557.8595,-378.1005"/>
<polygon fill="#000000" stroke="#000000" points="2561.3354,-377.6672 2557,-368 2554.3606,-378.2608 2561.3354,-377.6672"/>
</g>
<!-- r0&#45;&gt;r1 -->
<g id="edge42" class="edge">
<title>r0:se&#45;&gt;r1:ne</title>
<path fill="none" stroke="#000000" d="M2830,-444C2830,-444 2864.3454,-479 2864.3454,-479 2836.4623,-544.1208 2792.4344,-533.0389 2749,-589 2698.7025,-653.8036 2729.5247,-708.5351 2658.7434,-750 2650.2432,-754.9795 2625.8333,-757.6207 2611.309,-754.2862"/>
<polygon fill="#000000" stroke="#000000" points="2612.5472,-751.0032 2602,-750 2609.6196,-757.3616 2612.5472,-751.0032"/>
<text text-anchor="middle" x="2620" y="-753.8" font-family="Times,serif" font-size="14.00" fill="#000000">right</text>
<text text-anchor="middle" x="2847.5" y="-432.8" font-family="Times,serif" font-size="14.00" fill="#000000">/sum</text>
</g>
<!-- r0&#45;&gt;r0 -->
<g id="edge41" class="edge">
<title>r0:se&#45;&gt;r0:ne</title>
<path fill="none" stroke="#000000" d="M2830,-444C2871.1151,-435 2936.3454,-435 2936.3454,-461 2936.3454,-484.9688 2880.9092,-486.8413 2840.0353,-479.9365"/>
<polygon fill="#000000" stroke="#000000" points="2840.482,-476.4582 2830,-478 2839.1557,-483.3314 2840.482,-476.4582"/>
<text text-anchor="middle" x="2823" y="-481.8" font-family="Times,serif" font-size="14.00" fill="#000000">i2</text>
<text text-anchor="middle" x="2820.5" y="-432.8" font-family="Times,serif" font-size="14.00" fill="#000000">/i2</text>
</g>
<!-- initializerr0_1 -->
<!-- initializerr0_1&#45;&gt;r0 -->
<g id="edge40" class="edge">
<title>initializerr0_1&#45;&gt;r0:w</title>
<path fill="none" stroke="#0000ff" stroke-dasharray="1,5" d="M2816.7903,-713.7981C2791.9735,-657.7836 2721.2307,-490.2045 2751.1385,-464.3621"/>
<polygon fill="#0000ff" stroke="#0000ff" points="2752.6644,-467.5398 2761,-461 2750.4055,-460.9143 2752.6644,-467.5398"/>
<text text-anchor="middle" x="2777" y="-592.8" font-family="Times,serif" font-size="14.00" fill="#000000">1</text>
</g>
<!-- r5&#45;&gt;r20 -->
<g id="edge46" class="edge">
<title>r5:e&#45;&gt;r20:ne</title>
<path fill="none" stroke="#000000" d="M2642,-350C2650,-350 2646.6691,-338.4961 2642,-332 2582.2048,-248.8063 2496.8278,-325.4785 2423.5098,-262.9473"/>
<polygon fill="#000000" stroke="#000000" points="2425.7175,-260.2216 2416,-256 2420.9639,-265.3601 2425.7175,-260.2216"/>
<text text-anchor="middle" x="2398.5" y="-244.8" font-family="Times,serif" font-size="14.00" fill="#000000">pixel</text>
</g>
<!-- r19 -->
<g id="node37" class="node">
<title>r19</title>
<g id="a_node37"><a xlink:href="file:///home/travis/build/andrewdavidmackenzie/flow/samples/mandlebrot/render_pixel/render_pixel.html" xlink:title="p2v (#19)">
<ellipse fill="#ff7f50" stroke="#000000" cx="2457" cy="-145" rx="57.3905" ry="18"/>
<text text-anchor="middle" x="2457" y="-141.3" font-family="Times,serif" font-size="14.00" fill="#000000">p2v (#19)</text>
</a>
</g>
</g>
<!-- r20&#45;&gt;r19 -->
<g id="edge47" class="edge">
<title>r20:e&#45;&gt;r19:n</title>
<path fill="none" stroke="#000000" d="M2457,-239C2487.4792,-239 2462.953,-204.6216 2457.872,-173.0902"/>
<polygon fill="#000000" stroke="#000000" points="2461.3481,-172.6615 2457,-163 2454.3741,-173.2642 2461.3481,-172.6615"/>
<text text-anchor="middle" x="2417.5" y="-166.8" font-family="Times,serif" font-size="14.00" fill="#000000">pixel_point</text>
</g>
<!-- r19&#45;&gt;r17 -->
<g id="edge52" class="edge">
<title>r19:s&#45;&gt;r17:n</title>
<path fill="none" stroke="#000000" d="M2457,-127C2457,-97.1835 2462.5525,-87.542 2463.7671,-62.1388"/>
<polygon fill="#000000" stroke="#000000" points="2467.2693,-62.0778 2464,-52 2460.2712,-61.917 2467.2693,-62.0778"/>
<text text-anchor="middle" x="2481.5" y="-55.8" font-family="Times,serif" font-size="14.00" fill="#000000">pixel</text>
<text text-anchor="middle" x="2450" y="-115.8" font-family="Times,serif" font-size="14.00" fill="#000000">/0</text>
</g>
<!-- r19&#45;&gt;r17 -->
<g id="edge53" class="edge">
<title>r19:sw&#45;&gt;r17:ne</title>
<path fill="none" stroke="#000000" d="M2440,-128C2415.6957,-103.6957 2489.6444,-84.0453 2486.8329,-60.759"/>
<polygon fill="#000000" stroke="#000000" points="2489.8956,-59.0647 2482,-52 2483.7666,-62.4465 2489.8956,-59.0647"/>
<text text-anchor="middle" x="2501.5" y="-55.8" font-family="Times,serif" font-size="14.00" fill="#000000">value</text>
<text text-anchor="middle" x="2433" y="-116.8" font-family="Times,serif" font-size="14.00" fill="#000000">/1</text>
</g>
</g>
</svg>
