<?xml version="1.0" encoding="UTF-8" standalone="no"?>
<!DOCTYPE svg PUBLIC "-//W3C//DTD SVG 1.1//EN"
 "http://www.w3.org/Graphics/SVG/1.1/DTD/svg11.dtd">
<!-- Generated by graphviz version 2.40.1 (20161225.0304)
 -->
<!-- Title: mandlebrot Pages: 1 -->
<svg width="3059pt" height="1355pt"
 viewBox="0.00 0.00 3059.00 1355.00" xmlns="http://www.w3.org/2000/svg" xmlns:xlink="http://www.w3.org/1999/xlink">
<g id="graph0" class="graph" transform="scale(1 1) rotate(0) translate(4 1351)">
<title>mandlebrot</title>
<polygon fill="#ffffff" stroke="transparent" points="-4,4 -4,-1351 3055,-1351 3055,4 -4,4"/>
<text text-anchor="middle" x="1525.5" y="-1331.8" font-family="Times,serif" font-size="14.00" fill="#000000">/mandlebrot</text>
<g id="clust1" class="cluster">
<title>cluster_parse_args</title>
<polygon fill="none" stroke="#000000" points="101,-508 101,-1316 2385,-1316 2385,-508 101,-508"/>
<text text-anchor="middle" x="1243" y="-1300.8" font-family="Times,serif" font-size="14.00" fill="#000000">/mandlebrot/parse_args</text>
</g>
<g id="clust2" class="cluster">
<title>cluster_generate_pixels</title>
<polygon fill="none" stroke="#000000" points="2393,-213 2393,-1097 2977,-1097 2977,-213 2393,-213"/>
<text text-anchor="middle" x="2685" y="-1081.8" font-family="Times,serif" font-size="14.00" fill="#000000">/mandlebrot/generate_pixels</text>
</g>
<g id="clust3" class="cluster">
<title>cluster_y_sequence</title>
<polygon fill="none" stroke="#000000" points="2561,-435 2561,-1066 2969,-1066 2969,-435 2561,-435"/>
<text text-anchor="middle" x="2765" y="-1050.8" font-family="Times,serif" font-size="14.00" fill="#000000">/mandlebrot/generate_pixels/y&#45;sequence</text>
</g>
<g id="clust4" class="cluster">
<title>cluster_render</title>
<polygon fill="none" stroke="#000000" points="2414,-8 2414,-194 2632,-194 2632,-8 2414,-8"/>
<text text-anchor="middle" x="2523" y="-178.8" font-family="Times,serif" font-size="14.00" fill="#000000">/mandlebrot/render</text>
</g>
<!-- r17 -->
<g id="node1" class="node">
<title>r17</title>
<g id="a_node1"><a xlink:href="file:///home/travis/build/andrewdavidmackenzie/flow/flowr/src/lib/flowruntime/args/get.html" xlink:title="args (#17)">
<ellipse fill="#ff7f50" stroke="#000000" cx="621" cy="-1267" rx="60.3893" ry="18"/>
<text text-anchor="middle" x="621" y="-1263.3" font-family="Times,serif" font-size="14.00" fill="#000000">args (#17)</text>
</a>
</g>
</g>
<!-- r6 -->
<g id="node2" class="node">
<title>r6</title>
<g id="a_node2"><a xlink:href="file:///home/travis/build/andrewdavidmackenzie/flow/flowstdlib/data/buffer/buffer.html" xlink:title="filename_buffer (#6)">
<ellipse fill="#ff7f50" stroke="#000000" cx="216" cy="-1142" rx="107.4815" ry="18"/>
<text text-anchor="middle" x="216" y="-1138.3" font-family="Times,serif" font-size="14.00" fill="#000000">filename_buffer (#6)</text>
</a>
</g>
</g>
<!-- r17&#45;&gt;r6 -->
<g id="edge1" class="edge">
<title>r17:s&#45;&gt;r6:n</title>
<path fill="none" stroke="#000000" d="M621,-1249C621,-1204.3671 470.5791,-1206.6417 427,-1197 384.1509,-1187.5198 240.9857,-1204.5309 218.8777,-1169.9507"/>
<polygon fill="#000000" stroke="#000000" points="222.1404,-1168.634 216,-1160 215.416,-1170.5787 222.1404,-1168.634"/>
<text text-anchor="middle" x="590.5" y="-1237.8" font-family="Times,serif" font-size="14.00" fill="#000000">/string/1</text>
</g>
<!-- r21 -->
<g id="node3" class="node">
<title>r21</title>
<g id="a_node3"><a xlink:href="file:///home/travis/build/andrewdavidmackenzie/flow/flowstdlib/data/ordered_split/ordered_split.html" xlink:title="split_size (#21)">
<ellipse fill="#ff7f50" stroke="#000000" cx="1461" cy="-1142" rx="83.3857" ry="18"/>
<text text-anchor="middle" x="1461" y="-1138.3" font-family="Times,serif" font-size="14.00" fill="#000000">split_size (#21)</text>
</a>
</g>
</g>
<!-- r17&#45;&gt;r21 -->
<g id="edge2" class="edge">
<title>r17:se&#45;&gt;r21:n</title>
<path fill="none" stroke="#000000" d="M638,-1250C686.8131,-1201.1869 716.3633,-1210.8099 784,-1197 801.1554,-1193.4972 1371.5563,-1180.8059 1451.6842,-1163.9048"/>
<polygon fill="#000000" stroke="#000000" points="1453.1304,-1167.0937 1461,-1160 1450.4244,-1160.6379 1453.1304,-1167.0937"/>
<text text-anchor="middle" x="1439.5" y="-1163.8" font-family="Times,serif" font-size="14.00" fill="#000000">string</text>
<text text-anchor="middle" x="668.5" y="-1238.8" font-family="Times,serif" font-size="14.00" fill="#000000">/string/2</text>
</g>
<!-- r14 -->
<g id="node4" class="node">
<title>r14</title>
<g id="a_node4"><a xlink:href="file:///home/travis/build/andrewdavidmackenzie/flow/flowstdlib/data/ordered_split/ordered_split.html" xlink:title="split_upper_left (#14)">
<ellipse fill="#ff7f50" stroke="#000000" cx="930" cy="-1142" rx="113.18" ry="18"/>
<text text-anchor="middle" x="930" y="-1138.3" font-family="Times,serif" font-size="14.00" fill="#000000">split_upper_left (#14)</text>
</a>
</g>
</g>
<!-- r17&#45;&gt;r14 -->
<g id="edge3" class="edge">
<title>r17:e&#45;&gt;r14:n</title>
<path fill="none" stroke="#000000" d="M682,-1267C699.4921,-1267 700.7508,-1255.476 717,-1249 771.6135,-1227.2341 790.1676,-1235.632 844,-1212 881.384,-1195.5887 922.2793,-1203.0518 929.032,-1170.3438"/>
<polygon fill="#000000" stroke="#000000" points="932.553,-1170.2826 930,-1160 925.5834,-1169.6304 932.553,-1170.2826"/>
<text text-anchor="middle" x="908.5" y="-1163.8" font-family="Times,serif" font-size="14.00" fill="#000000">string</text>
<text text-anchor="middle" x="712.5" y="-1270.8" font-family="Times,serif" font-size="14.00" fill="#000000">/string/3</text>
</g>
<!-- r19 -->
<g id="node5" class="node">
<title>r19</title>
<g id="a_node5"><a xlink:href="file:///home/travis/build/andrewdavidmackenzie/flow/flowstdlib/data/ordered_split/ordered_split.html" xlink:title="split_lower_right (#19)">
<ellipse fill="#ff7f50" stroke="#000000" cx="532" cy="-1142" rx="118.8789" ry="18"/>
<text text-anchor="middle" x="532" y="-1138.3" font-family="Times,serif" font-size="14.00" fill="#000000">split_lower_right (#19)</text>
</a>
</g>
</g>
<!-- r17&#45;&gt;r19 -->
<g id="edge4" class="edge">
<title>r17:se&#45;&gt;r19:n</title>
<path fill="none" stroke="#000000" d="M638,-1250C657.6311,-1230.3689 556.4254,-1198.3082 535.6655,-1169.5888"/>
<polygon fill="#000000" stroke="#000000" points="538.8401,-1168.091 532,-1160 532.3015,-1170.5905 538.8401,-1168.091"/>
<text text-anchor="middle" x="510.5" y="-1163.8" font-family="Times,serif" font-size="14.00" fill="#000000">string</text>
<text text-anchor="middle" x="668.5" y="-1253.8" font-family="Times,serif" font-size="14.00" fill="#000000">/string/4</text>
</g>
<!-- r6&#45;&gt;r6 -->
<g id="edge54" class="edge">
<title>r6:e&#45;&gt;r6:n</title>
<path fill="none" stroke="#000000" d="M323,-1142C347.2405,-1133 395.2405,-1133 395.2405,-1151 395.2405,-1168.0508 288.0174,-1168.9499 225.9243,-1161.3474"/>
<polygon fill="#000000" stroke="#000000" points="226.38,-1157.8773 216,-1160 225.4382,-1164.8136 226.38,-1157.8773"/>
</g>
<!-- r12 -->
<g id="node38" class="node">
<title>r12</title>
<g id="a_node38"><a xlink:href="file:///home/travis/build/andrewdavidmackenzie/flow/flowr/src/lib/flowruntime/image/image_buffer.html" xlink:title="image_buffer (#12)">
<ellipse fill="#ff7f50" stroke="#000000" cx="2523" cy="-34" rx="101.2821" ry="18"/>
<text text-anchor="middle" x="2523" y="-30.3" font-family="Times,serif" font-size="14.00" fill="#000000">image_buffer (#12)</text>
</a>
</g>
</g>
<!-- r6&#45;&gt;r12 -->
<g id="edge55" class="edge">
<title>r6:e&#45;&gt;r12:w</title>
<path fill="none" stroke="#000000" d="M323,-1142C331,-1142 327.6837,-1130.4856 323,-1124 234.4618,-1001.4002 0,-1168.2274 0,-1017 0,-1017 0,-1017 0,-89.5 0,-56.9336 2238.2292,-35.3998 2410.8363,-34.0658"/>
<polygon fill="#000000" stroke="#000000" points="2411.0229,-37.5647 2421,-34 2410.9775,-30.5649 2411.0229,-37.5647"/>
<text text-anchor="middle" x="2390" y="-37.8" font-family="Times,serif" font-size="14.00" fill="#000000">filename</text>
</g>
<!-- r18 -->
<g id="node7" class="node">
<title>r18</title>
<g id="a_node7"><a xlink:href="file:///home/travis/build/andrewdavidmackenzie/flow/flowstdlib/fmt/to_json/to_json.html" xlink:title="size_to_json (#18)">
<ellipse fill="#ff7f50" stroke="#000000" cx="1809" cy="-944" rx="96.3833" ry="18"/>
<text text-anchor="middle" x="1809" y="-940.3" font-family="Times,serif" font-size="14.00" fill="#000000">size_to_json (#18)</text>
</a>
</g>
</g>
<!-- r21&#45;&gt;r18 -->
<g id="edge6" class="edge">
<title>r21:e&#45;&gt;r18:n</title>
<path fill="none" stroke="#000000" d="M1545,-1142C1683.5439,-1142 1803.0316,-1105.8432 1808.7834,-972.2161"/>
<polygon fill="#000000" stroke="#000000" points="1812.2871,-972.072 1809,-962 1805.2887,-971.9235 1812.2871,-972.072"/>
</g>
<!-- r16 -->
<g id="node16" class="node">
<title>r16</title>
<g id="a_node16"><a xlink:href="file:///home/travis/build/andrewdavidmackenzie/flow/flowstdlib/fmt/to_json/to_json.html" xlink:title="upper_left_to_json (#16)">
<ellipse fill="#ff7f50" stroke="#000000" cx="1043" cy="-944" rx="126.1777" ry="18"/>
<text text-anchor="middle" x="1043" y="-940.3" font-family="Times,serif" font-size="14.00" fill="#000000">upper_left_to_json (#16)</text>
</a>
</g>
</g>
<!-- r14&#45;&gt;r16 -->
<g id="edge16" class="edge">
<title>r14:e&#45;&gt;r16:n</title>
<path fill="none" stroke="#000000" d="M1043,-1142C1119.5625,-1142 1049.5796,-1050.4091 1043.4241,-972.4138"/>
<polygon fill="#000000" stroke="#000000" points="1046.9041,-971.8493 1043,-962 1039.9099,-972.1342 1046.9041,-971.8493"/>
</g>
<!-- r20 -->
<g id="node19" class="node">
<title>r20</title>
<g id="a_node19"><a xlink:href="file:///home/travis/build/andrewdavidmackenzie/flow/flowstdlib/fmt/to_json/to_json.html" xlink:title="lower_right_to_json (#20)">
<ellipse fill="#ff7f50" stroke="#000000" cx="477" cy="-944" rx="131.8766" ry="18"/>
<text text-anchor="middle" x="477" y="-940.3" font-family="Times,serif" font-size="14.00" fill="#000000">lower_right_to_json (#20)</text>
</a>
</g>
</g>
<!-- r19&#45;&gt;r20 -->
<g id="edge19" class="edge">
<title>r19:e&#45;&gt;r20:n</title>
<path fill="none" stroke="#000000" d="M651,-1142C659,-1142 654.1929,-1131.3352 651,-1124 610.2292,-1030.3351 485.6554,-1065.1211 477.4279,-972.0517"/>
<polygon fill="#000000" stroke="#000000" points="480.9222,-971.8421 477,-962 473.9286,-972.1398 480.9222,-971.8421"/>
</g>
<!-- initializerr21_1 -->
<!-- initializerr21_1&#45;&gt;r21 -->
<g id="edge5" class="edge">
<title>initializerr21_1&#45;&gt;r21:w</title>
<path fill="none" stroke="#0000ff" d="M1369.692,-1248.8239C1357.8853,-1217.2702 1338.6589,-1154.6628 1367.1234,-1143.6678"/>
<polygon fill="#0000ff" stroke="#0000ff" points="1367.7224,-1147.1163 1377,-1142 1366.5568,-1140.214 1367.7224,-1147.1163"/>
<text text-anchor="middle" x="1368" y="-1200.8" font-family="Times,serif" font-size="14.00" fill="#000000">&quot;x&quot;</text>
</g>
<!-- r13 -->
<g id="node8" class="node">
<title>r13</title>
<g id="a_node8"><a xlink:href="file:///home/travis/build/andrewdavidmackenzie/flow/flowstdlib/data/accumulate/accumulate.html" xlink:title="accumulate_size (#13)">
<ellipse fill="#ff7f50" stroke="#000000" cx="2059" cy="-805" rx="116.9792" ry="18"/>
<text text-anchor="middle" x="2059" y="-801.3" font-family="Times,serif" font-size="14.00" fill="#000000">accumulate_size (#13)</text>
</a>
</g>
</g>
<!-- r18&#45;&gt;r13 -->
<g id="edge7" class="edge">
<title>r18:e&#45;&gt;r13:n</title>
<path fill="none" stroke="#000000" d="M1906,-944C1910.6988,-944 2022.3063,-857.081 2051.8691,-830.4596"/>
<polygon fill="#000000" stroke="#000000" points="2054.62,-832.6471 2059,-823 2049.56,-827.8101 2054.62,-832.6471"/>
<text text-anchor="middle" x="2036" y="-826.8" font-family="Times,serif" font-size="14.00" fill="#000000">values</text>
</g>
<!-- r13&#45;&gt;r13 -->
<g id="edge10" class="edge">
<title>r13:e&#45;&gt;r13:ne</title>
<path fill="none" stroke="#000000" d="M2176,-805C2199.9896,-796 2247.9896,-796 2247.9896,-814 2247.9896,-831.0859 2150.6861,-831.9536 2086.9252,-824.3003"/>
<polygon fill="#000000" stroke="#000000" points="2087.3699,-820.8287 2077,-823 2086.4606,-827.7694 2087.3699,-820.8287"/>
<text text-anchor="middle" x="2101" y="-826.8" font-family="Times,serif" font-size="14.00" fill="#000000">partial</text>
<text text-anchor="middle" x="2202" y="-808.8" font-family="Times,serif" font-size="14.00" fill="#000000">/partial</text>
</g>
<!-- r0 -->
<g id="node11" class="node">
<title>r0</title>
<g id="a_node11"><a xlink:href="file:///home/travis/build/andrewdavidmackenzie/flow/flowstdlib/math/subtract/subtract.html" xlink:title="height (#0)">
<ellipse fill="#ff7f50" stroke="#000000" cx="2055" cy="-659" rx="63.8893" ry="18"/>
<text text-anchor="middle" x="2055" y="-655.3" font-family="Times,serif" font-size="14.00" fill="#000000">height (#0)</text>
</a>
</g>
</g>
<!-- r13&#45;&gt;r0 -->
<g id="edge11" class="edge">
<title>r13:sw&#45;&gt;r0:n</title>
<path fill="none" stroke="#000000" d="M2041,-787C2027.0831,-773.0831 1995.7925,-786.98 2001,-768 2012.4713,-726.19 2048.6845,-724.0985 2054.2728,-687.1814"/>
<polygon fill="#000000" stroke="#000000" points="2057.7786,-687.224 2055,-677 2050.7964,-686.7252 2057.7786,-687.224"/>
<text text-anchor="middle" x="2048" y="-680.8" font-family="Times,serif" font-size="14.00" fill="#000000">i1</text>
<text text-anchor="middle" x="2009.5" y="-775.8" font-family="Times,serif" font-size="14.00" fill="#000000">/chunk/1</text>
</g>
<!-- r5 -->
<g id="node12" class="node">
<title>r5</title>
<g id="a_node12"><a xlink:href="file:///home/travis/build/andrewdavidmackenzie/flow/flowstdlib/control/join/join.html" xlink:title="width&#45;gate (#5)">
<ellipse fill="#ff7f50" stroke="#000000" cx="2275" cy="-659" rx="83.6854" ry="18"/>
<text text-anchor="middle" x="2275" y="-655.3" font-family="Times,serif" font-size="14.00" fill="#000000">width&#45;gate (#5)</text>
</a>
</g>
</g>
<!-- r13&#45;&gt;r5 -->
<g id="edge12" class="edge">
<title>r13:s&#45;&gt;r5:n</title>
<path fill="none" stroke="#000000" d="M2059,-787C2059,-761.7018 2089.8914,-779.2952 2113,-769 2185.384,-736.7519 2267.5977,-757.8027 2274.5293,-687.0923"/>
<polygon fill="#000000" stroke="#000000" points="2278.0302,-687.1522 2275,-677 2271.0378,-686.8261 2278.0302,-687.1522"/>
<text text-anchor="middle" x="2259" y="-680.8" font-family="Times,serif" font-size="14.00" fill="#000000">data</text>
<text text-anchor="middle" x="2090.5" y="-775.8" font-family="Times,serif" font-size="14.00" fill="#000000">/chunk/0</text>
</g>
<!-- r9 -->
<g id="node13" class="node">
<title>r9</title>
<g id="a_node13"><a xlink:href="file:///home/travis/build/andrewdavidmackenzie/flow/flowstdlib/data/buffer/buffer.html" xlink:title="buffer_size (#9)">
<ellipse fill="#ff7f50" stroke="#000000" cx="1556" cy="-659" rx="85.2851" ry="18"/>
<text text-anchor="middle" x="1556" y="-655.3" font-family="Times,serif" font-size="14.00" fill="#000000">buffer_size (#9)</text>
</a>
</g>
</g>
<!-- r13&#45;&gt;r9 -->
<g id="edge13" class="edge">
<title>r13:s&#45;&gt;r9:n</title>
<path fill="none" stroke="#000000" d="M2059,-787C2059,-733.0307 1611.3668,-733.9068 1560.6583,-686.1504"/>
<polygon fill="#000000" stroke="#000000" points="1563.6559,-684.3238 1556,-677 1557.4177,-687.4996 1563.6559,-684.3238"/>
<text text-anchor="middle" x="2034.5" y="-775.8" font-family="Times,serif" font-size="14.00" fill="#000000">/chunk</text>
</g>
<!-- r7 -->
<g id="node14" class="node">
<title>r7</title>
<g id="a_node14"><a xlink:href="file:///home/travis/build/andrewdavidmackenzie/flow/flowstdlib/data/buffer/buffer.html" xlink:title="size_buffer (#7)">
<ellipse fill="#ff7f50" stroke="#000000" cx="1816" cy="-659" rx="85.2851" ry="18"/>
<text text-anchor="middle" x="1816" y="-655.3" font-family="Times,serif" font-size="14.00" fill="#000000">size_buffer (#7)</text>
</a>
</g>
</g>
<!-- r13&#45;&gt;r7 -->
<g id="edge14" class="edge">
<title>r13:s&#45;&gt;r7:n</title>
<path fill="none" stroke="#000000" d="M2059,-787C2059,-745.1561 2070.496,-722.5484 2039,-695 2022.4817,-680.5521 1861.3317,-696.9589 1823.789,-683.8994"/>
<polygon fill="#000000" stroke="#000000" points="1825.8064,-681.0107 1816,-677 1821.1649,-686.2507 1825.8064,-681.0107"/>
<text text-anchor="middle" x="2034.5" y="-790.8" font-family="Times,serif" font-size="14.00" fill="#000000">/chunk</text>
</g>
<!-- initializerr13_1 -->
<!-- initializerr13_1&#45;&gt;r13 -->
<g id="edge8" class="edge">
<title>initializerr13_1&#45;&gt;r13:n</title>
<path fill="none" stroke="#0000ff" stroke-dasharray="1,5" d="M2259.4129,-927.7589C2202.4978,-901.5543 2094.4916,-850.8106 2066.0225,-830.2694"/>
<polygon fill="#0000ff" stroke="#0000ff" points="2068.4652,-827.7604 2059,-823 2063.4306,-832.624 2068.4652,-827.7604"/>
<text text-anchor="middle" x="2178.5" y="-877.8" font-family="Times,serif" font-size="14.00" fill="#000000">[]</text>
</g>
<!-- initializerr13_2 -->
<!-- initializerr13_2&#45;&gt;r13 -->
<g id="edge9" class="edge">
<title>initializerr13_2&#45;&gt;r13:n</title>
<path fill="none" stroke="#0000ff" d="M2059,-925.96C2059,-904.5319 2059,-867.4021 2059,-833.4232"/>
<polygon fill="#0000ff" stroke="#0000ff" points="2062.5001,-833 2059,-823 2055.5001,-833 2062.5001,-833"/>
<text text-anchor="middle" x="2064" y="-877.8" font-family="Times,serif" font-size="14.00" fill="#000000">2</text>
</g>
<!-- r4 -->
<g id="node30" class="node">
<title>r4</title>
<g id="a_node30"><a xlink:href="file:///home/travis/build/andrewdavidmackenzie/flow/flowstdlib/control/compare_switch/compare_switch.html" xlink:title="compare (#4)">
<ellipse fill="#ff7f50" stroke="#000000" cx="2644" cy="-732" rx="74.9875" ry="18"/>
<text text-anchor="middle" x="2644" y="-728.3" font-family="Times,serif" font-size="14.00" fill="#000000">compare (#4)</text>
</a>
</g>
</g>
<!-- r0&#45;&gt;r4 -->
<g id="edge34" class="edge">
<title>r0:se&#45;&gt;r4:n</title>
<path fill="none" stroke="#000000" d="M2073,-641C2087.3603,-626.6397 2099.8632,-633.3956 2118.6943,-641 2140.0595,-649.6277 2134.869,-667.8137 2156,-677 2184.7333,-689.4913 2697.5602,-690.9152 2718.7434,-714 2718.7434,-714 2673.1236,-735.9727 2653.165,-745.5857"/>
<polygon fill="#000000" stroke="#000000" points="2651.4906,-742.5073 2644,-750 2654.5282,-748.8139 2651.4906,-742.5073"/>
<text text-anchor="middle" x="2631.5" y="-753.8" font-family="Times,serif" font-size="14.00" fill="#000000">left</text>
<text text-anchor="middle" x="2058.5" y="-629.8" font-family="Times,serif" font-size="14.00" fill="#000000">/diff</text>
</g>
<!-- r5&#45;&gt;r5 -->
<g id="edge43" class="edge">
<title>r5:e&#45;&gt;r5:n</title>
<path fill="none" stroke="#000000" d="M2359,-659C2382.8426,-650 2430.8426,-650 2430.8426,-668 2430.8426,-684.9102 2339.1477,-685.934 2284.9725,-678.5338"/>
<polygon fill="#000000" stroke="#000000" points="2285.4159,-675.0609 2275,-677 2284.3517,-681.9796 2285.4159,-675.0609"/>
<text text-anchor="middle" x="2291" y="-680.8" font-family="Times,serif" font-size="14.00" fill="#000000">data</text>
</g>
<!-- r1 -->
<g id="node32" class="node">
<title>r1</title>
<g id="a_node32"><a xlink:href="file:///home/travis/build/andrewdavidmackenzie/flow/flowstdlib/data/duplicate/duplicate.html" xlink:title="y&#45;duplicator (#1)">
<ellipse fill="#ff7f50" stroke="#000000" cx="2659" cy="-461" rx="90.1842" ry="18"/>
<text text-anchor="middle" x="2659" y="-457.3" font-family="Times,serif" font-size="14.00" fill="#000000">y&#45;duplicator (#1)</text>
</a>
</g>
</g>
<!-- r5&#45;&gt;r1 -->
<g id="edge44" class="edge">
<title>r5:e&#45;&gt;r1:ne</title>
<path fill="none" stroke="#000000" d="M2359,-659C2500.4702,-659 2506.3067,-559.9495 2633,-497 2644.8261,-491.124 2664.8931,-491.3978 2674.6328,-488.7819"/>
<polygon fill="#000000" stroke="#000000" points="2678.0496,-489.5427 2677,-479 2671.246,-487.8962 2678.0496,-489.5427"/>
<text text-anchor="middle" x="2655.5" y="-482.8" font-family="Times,serif" font-size="14.00" fill="#000000">factor</text>
</g>
<!-- r9&#45;&gt;r9 -->
<g id="edge50" class="edge">
<title>r9:e&#45;&gt;r9:n</title>
<path fill="none" stroke="#000000" d="M1642,-659C1665.1424,-650 1713.1424,-650 1713.1424,-668 1713.1424,-684.9102 1620.6827,-685.934 1566.0557,-678.5338"/>
<polygon fill="#000000" stroke="#000000" points="1566.4134,-675.048 1556,-677 1565.3579,-681.9679 1566.4134,-675.048"/>
</g>
<!-- r8 -->
<g id="node36" class="node">
<title>r8</title>
<g id="a_node36"><a xlink:href="file:///home/travis/build/andrewdavidmackenzie/flow/samples/mandlebrot/pixel_to_point/pixel_to_point.html" xlink:title="p2p (#8)">
<ellipse fill="#ff7f50" stroke="#000000" cx="2453" cy="-239" rx="51.9908" ry="18"/>
<text text-anchor="middle" x="2453" y="-235.3" font-family="Times,serif" font-size="14.00" fill="#000000">p2p (#8)</text>
</a>
</g>
</g>
<!-- r9&#45;&gt;r8 -->
<g id="edge51" class="edge">
<title>r9:e&#45;&gt;r8:nw</title>
<path fill="none" stroke="#000000" d="M1642,-659C1666.877,-659 1671.3916,-648.8428 1695,-641 1755.7557,-620.8167 1832,-660.5204 1832,-596.5 1832,-596.5 1832,-596.5 1832,-294.5 1832,-163.2889 2316.3527,-341.9652 2428.308,-262.4626"/>
<polygon fill="#000000" stroke="#000000" points="2430.5951,-265.1125 2436,-256 2426.0921,-259.753 2430.5951,-265.1125"/>
<text text-anchor="middle" x="2422" y="-259.8" font-family="Times,serif" font-size="14.00" fill="#000000">size</text>
</g>
<!-- r7&#45;&gt;r7 -->
<g id="edge56" class="edge">
<title>r7:e&#45;&gt;r7:n</title>
<path fill="none" stroke="#000000" d="M1902,-659C1925.1424,-650 1973.1424,-650 1973.1424,-668 1973.1424,-684.9102 1880.6827,-685.934 1826.0557,-678.5338"/>
<polygon fill="#000000" stroke="#000000" points="1826.4134,-675.048 1816,-677 1825.3579,-681.9679 1826.4134,-675.048"/>
</g>
<!-- r7&#45;&gt;r12 -->
<g id="edge57" class="edge">
<title>r7:e&#45;&gt;r12:nw</title>
<path fill="none" stroke="#000000" d="M1902,-659C1926.877,-659 1930.8453,-646.9508 1955,-641 2180.4021,-585.4692 2776.0447,-575.8898 2987,-479 3020.9507,-463.4067 3051,-461.8604 3051,-424.5 3051,-424.5 3051,-424.5 3051,-89.5 3051,-34.3913 2567.2617,-83.6833 2508.5645,-61.4061"/>
<polygon fill="#000000" stroke="#000000" points="2511.8166,-60.1108 2505,-52 2505.2708,-62.5914 2511.8166,-60.1108"/>
<text text-anchor="middle" x="2491" y="-55.8" font-family="Times,serif" font-size="14.00" fill="#000000">size</text>
</g>
<!-- initializerr14_1 -->
<!-- initializerr14_1&#45;&gt;r14 -->
<g id="edge15" class="edge">
<title>initializerr14_1&#45;&gt;r14:w</title>
<path fill="none" stroke="#0000ff" d="M825.1385,-1249.0905C808.7629,-1217.7673 780.2704,-1155.2651 806.8937,-1143.8213"/>
<polygon fill="#0000ff" stroke="#0000ff" points="807.7793,-1147.2182 817,-1142 806.5378,-1140.3291 807.7793,-1147.2182"/>
<text text-anchor="middle" x="816.5" y="-1200.8" font-family="Times,serif" font-size="14.00" fill="#000000">&quot;,&quot;</text>
</g>
<!-- r15 -->
<g id="node17" class="node">
<title>r15</title>
<g id="a_node17"><a xlink:href="file:///home/travis/build/andrewdavidmackenzie/flow/flowstdlib/data/accumulate/accumulate.html" xlink:title="accumulate_upper_left (#15)">
<ellipse fill="#ff7f50" stroke="#000000" cx="1244" cy="-805" rx="146.774" ry="18"/>
<text text-anchor="middle" x="1244" y="-801.3" font-family="Times,serif" font-size="14.00" fill="#000000">accumulate_upper_left (#15)</text>
</a>
</g>
</g>
<!-- r16&#45;&gt;r15 -->
<g id="edge17" class="edge">
<title>r16:e&#45;&gt;r15:n</title>
<path fill="none" stroke="#000000" d="M1169,-944C1221.7561,-944 1197.2003,-883.8321 1228,-841 1231.515,-836.1118 1236.1381,-834.4142 1239.5106,-831.9594"/>
<polygon fill="#000000" stroke="#000000" points="1242.6492,-833.5084 1244,-823 1236.3909,-830.3724 1242.6492,-833.5084"/>
<text text-anchor="middle" x="1221" y="-826.8" font-family="Times,serif" font-size="14.00" fill="#000000">values</text>
</g>
<!-- r15&#45;&gt;r15 -->
<g id="edge23" class="edge">
<title>r15:e&#45;&gt;r15:ne</title>
<path fill="none" stroke="#000000" d="M1391,-805C1414.887,-796 1462.887,-796 1462.887,-814 1462.887,-831.1914 1346.1974,-831.9637 1272.149,-824.1576"/>
<polygon fill="#000000" stroke="#000000" points="1272.3322,-820.6559 1262,-823 1271.5389,-827.6108 1272.3322,-820.6559"/>
<text text-anchor="middle" x="1286" y="-826.8" font-family="Times,serif" font-size="14.00" fill="#000000">partial</text>
<text text-anchor="middle" x="1417" y="-808.8" font-family="Times,serif" font-size="14.00" fill="#000000">/partial</text>
</g>
<!-- r23 -->
<g id="node23" class="node">
<title>r23</title>
<g id="a_node23"><a xlink:href="file:///home/travis/build/andrewdavidmackenzie/flow/flowstdlib/data/accumulate/accumulate.html" xlink:title="accumulate_bounds (#23)">
<ellipse fill="#ff7f50" stroke="#000000" cx="763" cy="-659" rx="132.6765" ry="18"/>
<text text-anchor="middle" x="763" y="-655.3" font-family="Times,serif" font-size="14.00" fill="#000000">accumulate_bounds (#23)</text>
</a>
</g>
</g>
<!-- r15&#45;&gt;r23 -->
<g id="edge24" class="edge">
<title>r15:s&#45;&gt;r23:n</title>
<path fill="none" stroke="#000000" d="M1244,-787C1244,-735.3882 817.7158,-732.0524 767.7606,-686.0979"/>
<polygon fill="#000000" stroke="#000000" points="770.7374,-684.2376 763,-677 764.5352,-687.483 770.7374,-684.2376"/>
<text text-anchor="middle" x="740" y="-680.8" font-family="Times,serif" font-size="14.00" fill="#000000">values</text>
<text text-anchor="middle" x="1219.5" y="-775.8" font-family="Times,serif" font-size="14.00" fill="#000000">/chunk</text>
</g>
<!-- initializerr19_1 -->
<!-- initializerr19_1&#45;&gt;r19 -->
<g id="edge18" class="edge">
<title>initializerr19_1&#45;&gt;r19:w</title>
<path fill="none" stroke="#0000ff" d="M400.556,-1248.8239C390.2503,-1217.2702 374.0069,-1154.6628 403.032,-1143.6678"/>
<polygon fill="#0000ff" stroke="#0000ff" points="403.7147,-1147.1023 413,-1142 402.5595,-1140.1983 403.7147,-1147.1023"/>
<text text-anchor="middle" x="399.5" y="-1200.8" font-family="Times,serif" font-size="14.00" fill="#000000">&quot;,&quot;</text>
</g>
<!-- r22 -->
<g id="node20" class="node">
<title>r22</title>
<g id="a_node20"><a xlink:href="file:///home/travis/build/andrewdavidmackenzie/flow/flowstdlib/data/accumulate/accumulate.html" xlink:title="accumulate_lower_right (#22)">
<ellipse fill="#ff7f50" stroke="#000000" cx="763" cy="-805" rx="152.9733" ry="18"/>
<text text-anchor="middle" x="763" y="-801.3" font-family="Times,serif" font-size="14.00" fill="#000000">accumulate_lower_right (#22)</text>
</a>
</g>
</g>
<!-- r20&#45;&gt;r22 -->
<g id="edge20" class="edge">
<title>r20:e&#45;&gt;r22:n</title>
<path fill="none" stroke="#000000" d="M609,-944C613.7177,-944 726.0633,-857.0974 755.8219,-830.4662"/>
<polygon fill="#000000" stroke="#000000" points="758.5924,-832.6345 763,-823 753.5463,-827.7831 758.5924,-832.6345"/>
<text text-anchor="middle" x="740" y="-826.8" font-family="Times,serif" font-size="14.00" fill="#000000">values</text>
</g>
<!-- r22&#45;&gt;r22 -->
<g id="edge27" class="edge">
<title>r22:e&#45;&gt;r22:ne</title>
<path fill="none" stroke="#000000" d="M916,-805C939.7364,-796 987.7364,-796 987.7364,-814 987.7364,-831.2266 866.9974,-831.9668 790.9569,-824.1096"/>
<polygon fill="#000000" stroke="#000000" points="791.3261,-820.6292 781,-823 790.5508,-827.5861 791.3261,-820.6292"/>
<text text-anchor="middle" x="805" y="-826.8" font-family="Times,serif" font-size="14.00" fill="#000000">partial</text>
<text text-anchor="middle" x="942" y="-808.8" font-family="Times,serif" font-size="14.00" fill="#000000">/partial</text>
</g>
<!-- r22&#45;&gt;r23 -->
<g id="edge28" class="edge">
<title>r22:s&#45;&gt;r23:n</title>
<path fill="none" stroke="#000000" d="M763,-787C763,-741.6441 763,-727.8469 763,-687.0522"/>
<polygon fill="#000000" stroke="#000000" points="766.5001,-687 763,-677 759.5001,-687 766.5001,-687"/>
<text text-anchor="middle" x="786" y="-680.8" font-family="Times,serif" font-size="14.00" fill="#000000">values</text>
<text text-anchor="middle" x="738.5" y="-775.8" font-family="Times,serif" font-size="14.00" fill="#000000">/chunk</text>
</g>
<!-- initializerr15_1 -->
<!-- initializerr15_1&#45;&gt;r15 -->
<g id="edge21" class="edge">
<title>initializerr15_1&#45;&gt;r15:n</title>
<path fill="none" stroke="#0000ff" stroke-dasharray="1,5" d="M1513.5327,-928.9839C1436.8629,-903.3784 1286.7566,-851.9291 1251.527,-830.1617"/>
<polygon fill="#0000ff" stroke="#0000ff" points="1253.6573,-827.3574 1244,-823 1248.8322,-832.4287 1253.6573,-827.3574"/>
<text text-anchor="middle" x="1401.5" y="-877.8" font-family="Times,serif" font-size="14.00" fill="#000000">[]</text>
</g>
<!-- initializerr15_2 -->
<!-- initializerr15_2&#45;&gt;r15 -->
<g id="edge22" class="edge">
<title>initializerr15_2&#45;&gt;r15:n</title>
<path fill="none" stroke="#0000ff" d="M1301.8294,-926.2645C1280.3483,-906.3315 1249.5742,-871.7045 1244.6699,-833.3606"/>
<polygon fill="#0000ff" stroke="#0000ff" points="1248.1381,-832.7533 1244,-823 1241.1527,-833.205 1248.1381,-832.7533"/>
<text text-anchor="middle" x="1273" y="-877.8" font-family="Times,serif" font-size="14.00" fill="#000000">2</text>
</g>
<!-- r23&#45;&gt;r23 -->
<g id="edge31" class="edge">
<title>r23:e&#45;&gt;r23:ne</title>
<path fill="none" stroke="#000000" d="M896,-659C919.5882,-650 967.5882,-650 967.5882,-668 967.5882,-685.1211 860.4755,-685.9571 791.3291,-678.2529"/>
<polygon fill="#000000" stroke="#000000" points="791.3487,-674.7297 781,-677 790.5057,-681.6788 791.3487,-674.7297"/>
<text text-anchor="middle" x="805" y="-680.8" font-family="Times,serif" font-size="14.00" fill="#000000">partial</text>
<text text-anchor="middle" x="922" y="-662.8" font-family="Times,serif" font-size="14.00" fill="#000000">/partial</text>
</g>
<!-- r10 -->
<g id="node28" class="node">
<title>r10</title>
<g id="a_node28"><a xlink:href="file:///home/travis/build/andrewdavidmackenzie/flow/flowstdlib/data/buffer/buffer.html" xlink:title="buffer_bounds (#10)">
<ellipse fill="#ff7f50" stroke="#000000" cx="1423" cy="-534" rx="106.6812" ry="18"/>
<text text-anchor="middle" x="1423" y="-530.3" font-family="Times,serif" font-size="14.00" fill="#000000">buffer_bounds (#10)</text>
</a>
</g>
</g>
<!-- r23&#45;&gt;r10 -->
<g id="edge32" class="edge">
<title>r23:s&#45;&gt;r10:n</title>
<path fill="none" stroke="#000000" d="M763,-641C763,-348.4803 1407.6219,-836.3095 1422.7302,-562.0792"/>
<polygon fill="#000000" stroke="#000000" points="1426.2311,-562.0901 1423,-552 1419.2336,-561.9027 1426.2311,-562.0901"/>
<text text-anchor="middle" x="738.5" y="-629.8" font-family="Times,serif" font-size="14.00" fill="#000000">/chunk</text>
</g>
<!-- initializerr22_1 -->
<!-- initializerr22_1&#45;&gt;r22 -->
<g id="edge25" class="edge">
<title>initializerr22_1&#45;&gt;r22:n</title>
<path fill="none" stroke="#0000ff" stroke-dasharray="1,5" d="M253.8502,-932.3471C388.51,-907.1886 697.2581,-848.4141 753.9648,-828.018"/>
<polygon fill="#0000ff" stroke="#0000ff" points="755.9571,-830.9151 763,-823 752.5584,-824.7955 755.9571,-830.9151"/>
<text text-anchor="middle" x="557.5" y="-877.8" font-family="Times,serif" font-size="14.00" fill="#000000">[]</text>
</g>
<!-- initializerr22_2 -->
<!-- initializerr22_2&#45;&gt;r22 -->
<g id="edge26" class="edge">
<title>initializerr22_2&#45;&gt;r22:n</title>
<path fill="none" stroke="#0000ff" d="M763,-925.96C763,-904.5319 763,-867.4021 763,-833.4232"/>
<polygon fill="#0000ff" stroke="#0000ff" points="766.5001,-833 763,-823 759.5001,-833 766.5001,-833"/>
<text text-anchor="middle" x="768" y="-877.8" font-family="Times,serif" font-size="14.00" fill="#000000">2</text>
</g>
<!-- initializerr23_1 -->
<!-- initializerr23_1&#45;&gt;r23 -->
<g id="edge29" class="edge">
<title>initializerr23_1&#45;&gt;r23:n</title>
<path fill="none" stroke="#0000ff" stroke-dasharray="1,5" d="M498.687,-789.5336C572.8273,-762.4012 720.8184,-706.9617 755.5728,-684.3275"/>
<polygon fill="#0000ff" stroke="#0000ff" points="758.3393,-686.5147 763,-677 753.4232,-681.5316 758.3393,-686.5147"/>
<text text-anchor="middle" x="697.5" y="-728.3" font-family="Times,serif" font-size="14.00" fill="#000000">[]</text>
</g>
<!-- initializerr23_2 -->
<!-- initializerr23_2&#45;&gt;r23 -->
<g id="edge30" class="edge">
<title>initializerr23_2&#45;&gt;r23:n</title>
<path fill="none" stroke="#0000ff" d="M271.371,-790.9229C340.3805,-772.2298 466.9664,-738.7026 576,-714 584.9164,-711.9799 717.8007,-693.7657 753.9696,-682.0096"/>
<polygon fill="#0000ff" stroke="#0000ff" points="755.9533,-684.9117 763,-677 752.5575,-678.7904 755.9533,-684.9117"/>
<text text-anchor="middle" x="581" y="-728.3" font-family="Times,serif" font-size="14.00" fill="#000000">2</text>
</g>
<!-- r10&#45;&gt;r10 -->
<g id="edge48" class="edge">
<title>r10:e&#45;&gt;r10:n</title>
<path fill="none" stroke="#000000" d="M1530,-534C1553.5905,-525 1601.5905,-525 1601.5905,-543 1601.5905,-560.0156 1495.1963,-560.9462 1433.2716,-553.3943"/>
<polygon fill="#000000" stroke="#000000" points="1433.3799,-549.877 1423,-552 1432.4383,-556.8134 1433.3799,-549.877"/>
</g>
<!-- r10&#45;&gt;r8 -->
<g id="edge49" class="edge">
<title>r10:e&#45;&gt;r8:n</title>
<path fill="none" stroke="#000000" d="M1530,-534C1568.2745,-534 1686,-499.2745 1686,-461 1686,-461 1686,-461 1686,-386.5 1686,-44.3313 2437.3512,-591.2851 2452.7597,-267.3504"/>
<polygon fill="#000000" stroke="#000000" points="2456.2669,-267.0786 2453,-257 2449.2688,-266.916 2456.2669,-267.0786"/>
<text text-anchor="middle" x="2479" y="-260.8" font-family="Times,serif" font-size="14.00" fill="#000000">bounds</text>
</g>
<!-- initializerr0_1 -->
<!-- initializerr0_1&#45;&gt;r0 -->
<g id="edge33" class="edge">
<title>initializerr0_1&#45;&gt;r0:w</title>
<path fill="none" stroke="#0000ff" stroke-dasharray="1,5" d="M2466.6618,-999.025C2455.0666,-979.7375 2434.984,-948.805 2413,-926 2282.3562,-790.4771 2233.0335,-764.2643 2058,-695 2029.3295,-683.6545 2009.7623,-701.4682 1991,-677 1989.0984,-674.5201 1987.4618,-671.2311 1986.65,-668.1434"/>
<polygon fill="#0000ff" stroke="#0000ff" points="1989.8644,-669.5338 1991,-659 1983.5433,-666.5265 1989.8644,-669.5338"/>
<text text-anchor="middle" x="2346" y="-844.8" font-family="Times,serif" font-size="14.00" fill="#000000">1</text>
</g>
<!-- r4&#45;&gt;r5 -->
<g id="edge36" class="edge">
<title>r4:e&#45;&gt;r5:ne</title>
<path fill="none" stroke="#000000" d="M2719,-732C2727,-732 2724.2684,-720.0203 2719,-714 2698.0339,-690.0417 2608.6835,-698.1199 2577,-695 2547.9917,-692.1435 2350.11,-698.2573 2301.8515,-681.7135"/>
<polygon fill="#000000" stroke="#000000" points="2303.4717,-678.6109 2293,-677 2300.1815,-684.7895 2303.4717,-678.6109"/>
<text text-anchor="middle" x="2319" y="-680.8" font-family="Times,serif" font-size="14.00" fill="#000000">control</text>
<text text-anchor="middle" x="2751" y="-735.8" font-family="Times,serif" font-size="14.00" fill="#000000">/right&#45;lte</text>
</g>
<!-- r4&#45;&gt;r4 -->
<g id="edge38" class="edge">
<title>r4:s&#45;&gt;r4:n</title>
<path fill="none" stroke="#000000" d="M2644,-714C2692.9145,-705 2790.7434,-705 2790.7434,-732 2790.7434,-757.2598 2705.1188,-758.8878 2654.0284,-751.6233"/>
<polygon fill="#000000" stroke="#000000" points="2654.4308,-748.1429 2644,-750 2653.3122,-755.053 2654.4308,-748.1429"/>
<text text-anchor="middle" x="2656.5" y="-753.8" font-family="Times,serif" font-size="14.00" fill="#000000">left</text>
<text text-anchor="middle" x="2619.5" y="-702.8" font-family="Times,serif" font-size="14.00" fill="#000000">/left&#45;gt</text>
</g>
<!-- r4&#45;&gt;r1 -->
<g id="edge37" class="edge">
<title>r4:e&#45;&gt;r1:n</title>
<path fill="none" stroke="#000000" d="M2719,-732C2727,-732 2721.4863,-721.6038 2719,-714 2715.0839,-702.0232 2652,-635.1008 2652,-622.5 2652,-622.5 2652,-622.5 2652,-534 2652,-513.2086 2656.9834,-505.8901 2658.5407,-489.309"/>
<polygon fill="#000000" stroke="#000000" points="2662.0514,-489.1459 2659,-479 2655.0583,-488.8343 2662.0514,-489.1459"/>
<text text-anchor="middle" x="2678.5" y="-482.8" font-family="Times,serif" font-size="14.00" fill="#000000">value</text>
<text text-anchor="middle" x="2751" y="-720.8" font-family="Times,serif" font-size="14.00" fill="#000000">/right&#45;lte</text>
</g>
<!-- r3 -->
<g id="node33" class="node">
<title>r3</title>
<g id="a_node33"><a xlink:href="file:///home/travis/build/andrewdavidmackenzie/flow/flowstdlib/math/add/add.html" xlink:title="add (#3)">
<ellipse fill="#ff7f50" stroke="#000000" cx="2873" cy="-461" rx="51.1914" ry="18"/>
<text text-anchor="middle" x="2873" y="-457.3" font-family="Times,serif" font-size="14.00" fill="#000000">add (#3)</text>
</a>
</g>
</g>
<!-- r4&#45;&gt;r3 -->
<g id="edge39" class="edge">
<title>r4:e&#45;&gt;r3:n</title>
<path fill="none" stroke="#000000" d="M2719,-732C2751.5933,-732 2726,-691.5933 2726,-659 2726,-659 2726,-659 2726,-534 2726,-502.6706 2756.8858,-508.5713 2786,-497 2801.0501,-491.0184 2849.952,-496.0231 2867.0402,-487.1168"/>
<polygon fill="#000000" stroke="#000000" points="2869.9027,-489.132 2873,-479 2864.2603,-484.9891 2869.9027,-489.132"/>
<text text-anchor="middle" x="2866" y="-482.8" font-family="Times,serif" font-size="14.00" fill="#000000">i1</text>
<text text-anchor="middle" x="2691.5" y="-735.8" font-family="Times,serif" font-size="14.00" fill="#000000">/right&#45;lt</text>
</g>
<!-- initializerr4_1 -->
<!-- initializerr4_1&#45;&gt;r4 -->
<g id="edge35" class="edge">
<title>initializerr4_1&#45;&gt;r4:ne</title>
<path fill="none" stroke="#0000ff" stroke-dasharray="1,5" d="M2687.3668,-999.1625C2677.9077,-984.9994 2667,-964.2722 2667,-944 2667,-944 2667,-944 2667,-805 2667,-784.4817 2675.6343,-771.9622 2668.329,-758.268"/>
<polygon fill="#0000ff" stroke="#0000ff" points="2670.8576,-755.8132 2662,-750 2665.2992,-760.0681 2670.8576,-755.8132"/>
<text text-anchor="middle" x="2672" y="-877.8" font-family="Times,serif" font-size="14.00" fill="#000000">0</text>
</g>
<!-- r2 -->
<g id="node35" class="node">
<title>r2</title>
<g id="a_node35"><a xlink:href="file:///home/travis/build/andrewdavidmackenzie/flow/flowstdlib/data/enumerate/enumerate.html" xlink:title="enumerate (#2)">
<ellipse fill="#ff7f50" stroke="#000000" cx="2617" cy="-350" rx="84.485" ry="18"/>
<text text-anchor="middle" x="2617" y="-346.3" font-family="Times,serif" font-size="14.00" fill="#000000">enumerate (#2)</text>
</a>
</g>
</g>
<!-- r1&#45;&gt;r2 -->
<g id="edge45" class="edge">
<title>r1:e&#45;&gt;r2:n</title>
<path fill="none" stroke="#000000" d="M2750,-461C2758,-461 2754.0351,-449.9078 2750,-443 2717.6434,-387.6072 2627.6101,-430.5627 2617.8595,-378.1005"/>
<polygon fill="#000000" stroke="#000000" points="2621.3354,-377.6672 2617,-368 2614.3606,-378.2608 2621.3354,-377.6672"/>
</g>
<!-- r3&#45;&gt;r4 -->
<g id="edge42" class="edge">
<title>r3:se&#45;&gt;r4:ne</title>
<path fill="none" stroke="#000000" d="M2890,-444C2890,-444 2924.3454,-479 2924.3454,-479 2896.4623,-544.1208 2852.4344,-533.0389 2809,-589 2758.7025,-653.8036 2789.5247,-708.5351 2718.7434,-750 2710.2432,-754.9795 2685.8333,-757.6207 2671.309,-754.2862"/>
<polygon fill="#000000" stroke="#000000" points="2672.5472,-751.0032 2662,-750 2669.6196,-757.3616 2672.5472,-751.0032"/>
<text text-anchor="middle" x="2680" y="-753.8" font-family="Times,serif" font-size="14.00" fill="#000000">right</text>
<text text-anchor="middle" x="2907.5" y="-432.8" font-family="Times,serif" font-size="14.00" fill="#000000">/sum</text>
</g>
<!-- r3&#45;&gt;r3 -->
<g id="edge41" class="edge">
<title>r3:se&#45;&gt;r3:ne</title>
<path fill="none" stroke="#000000" d="M2890,-444C2931.1151,-435 2996.3454,-435 2996.3454,-461 2996.3454,-484.9688 2940.9092,-486.8413 2900.0353,-479.9365"/>
<polygon fill="#000000" stroke="#000000" points="2900.482,-476.4582 2890,-478 2899.1557,-483.3314 2900.482,-476.4582"/>
<text text-anchor="middle" x="2883" y="-481.8" font-family="Times,serif" font-size="14.00" fill="#000000">i2</text>
<text text-anchor="middle" x="2880.5" y="-432.8" font-family="Times,serif" font-size="14.00" fill="#000000">/i2</text>
</g>
<!-- initializerr3_1 -->
<!-- initializerr3_1&#45;&gt;r3 -->
<g id="edge40" class="edge">
<title>initializerr3_1&#45;&gt;r3:w</title>
<path fill="none" stroke="#0000ff" stroke-dasharray="1,5" d="M2876.7903,-713.7981C2851.9735,-657.7836 2781.2307,-490.2045 2811.1385,-464.3621"/>
<polygon fill="#0000ff" stroke="#0000ff" points="2812.6644,-467.5398 2821,-461 2810.4055,-460.9143 2812.6644,-467.5398"/>
<text text-anchor="middle" x="2837" y="-592.8" font-family="Times,serif" font-size="14.00" fill="#000000">1</text>
</g>
<!-- r2&#45;&gt;r8 -->
<g id="edge46" class="edge">
<title>r2:e&#45;&gt;r8:ne</title>
<path fill="none" stroke="#000000" d="M2702,-350C2710,-350 2706.6945,-338.4778 2702,-332 2640.4436,-247.0598 2552.7755,-327.0352 2477.69,-263.1081"/>
<polygon fill="#000000" stroke="#000000" points="2479.7192,-260.2176 2470,-256 2474.9677,-265.358 2479.7192,-260.2176"/>
<text text-anchor="middle" x="2487.5" y="-244.8" font-family="Times,serif" font-size="14.00" fill="#000000">pixel</text>
</g>
<!-- r11 -->
<g id="node37" class="node">
<title>r11</title>
<g id="a_node37"><a xlink:href="file:///home/travis/build/andrewdavidmackenzie/flow/samples/mandlebrot/render_pixel/render_pixel.html" xlink:title="p2v (#11)">
<ellipse fill="#ff7f50" stroke="#000000" cx="2505" cy="-145" rx="57.3905" ry="18"/>
<text text-anchor="middle" x="2505" y="-141.3" font-family="Times,serif" font-size="14.00" fill="#000000">p2v (#11)</text>
</a>
</g>
</g>
<!-- r8&#45;&gt;r11 -->
<g id="edge47" class="edge">
<title>r8:e&#45;&gt;r11:n</title>
<path fill="none" stroke="#000000" d="M2505,-239C2535.4792,-239 2510.953,-204.6216 2505.872,-173.0902"/>
<polygon fill="#000000" stroke="#000000" points="2509.3481,-172.6615 2505,-163 2502.3741,-173.2642 2509.3481,-172.6615"/>
<text text-anchor="middle" x="2465.5" y="-166.8" font-family="Times,serif" font-size="14.00" fill="#000000">pixel_point</text>
</g>
<!-- r11&#45;&gt;r12 -->
<g id="edge52" class="edge">
<title>r11:s&#45;&gt;r12:n</title>
<path fill="none" stroke="#000000" d="M2505,-127C2505,-96.4695 2519.2778,-88.0217 2522.4011,-62.3218"/>
<polygon fill="#000000" stroke="#000000" points="2525.9148,-62.186 2523,-52 2518.9265,-61.7804 2525.9148,-62.186"/>
<text text-anchor="middle" x="2540.5" y="-55.8" font-family="Times,serif" font-size="14.00" fill="#000000">pixel</text>
<text text-anchor="middle" x="2498" y="-115.8" font-family="Times,serif" font-size="14.00" fill="#000000">/0</text>
</g>
<!-- r11&#45;&gt;r12 -->
<g id="edge53" class="edge">
<title>r11:sw&#45;&gt;r12:ne</title>
<path fill="none" stroke="#000000" d="M2488,-128C2461.9524,-101.9524 2548.2159,-84.9918 2545.8589,-60.861"/>
<polygon fill="#000000" stroke="#000000" points="2548.877,-59.0855 2541,-52 2542.7392,-62.4511 2548.877,-59.0855"/>
<text text-anchor="middle" x="2560.5" y="-55.8" font-family="Times,serif" font-size="14.00" fill="#000000">value</text>
<text text-anchor="middle" x="2481" y="-116.8" font-family="Times,serif" font-size="14.00" fill="#000000">/1</text>
</g>
</g>
</svg>
