<?xml version="1.0" encoding="UTF-8" standalone="no"?>
<!DOCTYPE svg PUBLIC "-//W3C//DTD SVG 1.1//EN"
 "http://www.w3.org/Graphics/SVG/1.1/DTD/svg11.dtd">
<!-- Generated by graphviz version 2.44.1 (20200629.0846)
 -->
<!-- Title: mandlebrot Pages: 1 -->
<svg width="2504pt" height="908pt"
 viewBox="0.00 0.00 2504.00 908.00" xmlns="http://www.w3.org/2000/svg" xmlns:xlink="http://www.w3.org/1999/xlink">
<g id="graph0" class="graph" transform="scale(1 1) rotate(0) translate(4 904)">
<title>mandlebrot</title>
<polygon fill="white" stroke="transparent" points="-4,4 -4,-904 2500,-904 2500,4 -4,4"/>
<text text-anchor="middle" x="1248" y="-884.8" font-family="Times,serif" font-size="14.00">/mandlebrot</text>
<g id="clust1" class="cluster">
<title>cluster_parse_args</title>
<polygon fill="none" stroke="black" points="532,-321 532,-869 2395,-869 2395,-321 532,-321"/>
<text text-anchor="middle" x="1463.5" y="-853.8" font-family="Times,serif" font-size="14.00">/mandlebrot/parse_args</text>
</g>
<g id="clust4" class="cluster">
<title>cluster_render</title>
<polygon fill="none" stroke="black" points="1939,-8 1939,-229 2115,-229 2115,-8 1939,-8"/>
<text text-anchor="middle" x="2027" y="-213.8" font-family="Times,serif" font-size="14.00">/mandlebrot/render</text>
</g>
<g id="clust2" class="cluster">
<title>cluster_generate_pixels</title>
<polygon fill="none" stroke="black" points="8,-248 8,-601 524,-601 524,-248 8,-248"/>
<text text-anchor="middle" x="266" y="-585.8" font-family="Times,serif" font-size="14.00">/mandlebrot/generate_pixels</text>
</g>
<g id="clust3" class="cluster">
<title>cluster_y_sequence</title>
<polygon fill="none" stroke="black" points="16,-321 16,-570 378,-570 378,-321 16,-321"/>
<text text-anchor="middle" x="197" y="-554.8" font-family="Times,serif" font-size="14.00">/mandlebrot/generate_pixels/y&#45;sequence</text>
</g>
<!-- r8 -->
<g id="node1" class="node">
<title>r8</title>
<g id="a_node1"><a xlink:href="file:///Users/andrew/workspace/flow/flowr/src/lib/flowruntime/args/get.html" xlink:title="args (#8)">
<ellipse fill="coral" stroke="black" cx="1297" cy="-820" rx="42.49" ry="18"/>
<text text-anchor="middle" x="1297" y="-816.3" font-family="Times,serif" font-size="14.00">args (#8)</text>
</a>
</g>
</g>
<!-- r15 -->
<g id="node2" class="node">
<title>r15</title>
<g id="a_node2"><a xlink:href="file:///Users/andrew/workspace/flow/flowstdlib/data/buffer/buffer.html" xlink:title="filename_buffer (#15)">
<ellipse fill="coral" stroke="black" cx="1295" cy="-733" rx="89.08" ry="18"/>
<text text-anchor="middle" x="1295" y="-729.3" font-family="Times,serif" font-size="14.00">filename_buffer (#15)</text>
</a>
</g>
</g>
<!-- r8&#45;&gt;r15 -->
<g id="edge1" class="edge">
<title>r8:s&#45;&gt;r15:n</title>
<path fill="none" stroke="black" d="M1297,-802C1297,-783.21 1295.63,-776.12 1295.16,-761.36"/>
<polygon fill="black" stroke="black" points="1298.65,-760.95 1295,-751 1291.65,-761.05 1298.65,-760.95"/>
<text text-anchor="middle" x="1274" y="-790.8" font-family="Times,serif" font-size="14.00">/string/1</text>
</g>
<!-- r1 -->
<g id="node3" class="node">
<title>r1</title>
<g id="a_node3"><a xlink:href="file:///Users/andrew/workspace/flow/flowstdlib/data/ordered_split/ordered_split.html" xlink:title="split_size (#1)">
<ellipse fill="coral" stroke="black" cx="878" cy="-733" rx="61.19" ry="18"/>
<text text-anchor="middle" x="878" y="-729.3" font-family="Times,serif" font-size="14.00">split_size (#1)</text>
</a>
</g>
</g>
<!-- r8&#45;&gt;r1 -->
<g id="edge2" class="edge">
<title>r8:se&#45;&gt;r1:n</title>
<path fill="none" stroke="black" d="M1314,-802C1380.42,-735.58 914.69,-840.23 880.03,-761"/>
<polygon fill="black" stroke="black" points="883.42,-760.1 878,-751 876.56,-761.5 883.42,-760.1"/>
<text text-anchor="middle" x="862.5" y="-754.8" font-family="Times,serif" font-size="14.00">string</text>
<text text-anchor="middle" x="1337" y="-790.8" font-family="Times,serif" font-size="14.00">/string/2</text>
</g>
<!-- r0 -->
<g id="node4" class="node">
<title>r0</title>
<g id="a_node4"><a xlink:href="file:///Users/andrew/workspace/flow/flowstdlib/data/ordered_split/ordered_split.html" xlink:title="split_upper_left (#0)">
<ellipse fill="coral" stroke="black" cx="1819" cy="-733" rx="83.39" ry="18"/>
<text text-anchor="middle" x="1819" y="-729.3" font-family="Times,serif" font-size="14.00">split_upper_left (#0)</text>
</a>
</g>
</g>
<!-- r8&#45;&gt;r0 -->
<g id="edge3" class="edge">
<title>r8:e&#45;&gt;r0:n</title>
<path fill="none" stroke="black" d="M1341,-820C1358.89,-820 1359.84,-807.04 1377,-802 1382.4,-800.41 1744.12,-764.59 1809.07,-753.5"/>
<polygon fill="black" stroke="black" points="1810.16,-756.84 1819,-751 1808.45,-750.05 1810.16,-756.84"/>
<text text-anchor="middle" x="1803.5" y="-754.8" font-family="Times,serif" font-size="14.00">string</text>
<text text-anchor="middle" x="1364" y="-823.8" font-family="Times,serif" font-size="14.00">/string/3</text>
</g>
<!-- r3 -->
<g id="node5" class="node">
<title>r3</title>
<g id="a_node5"><a xlink:href="file:///Users/andrew/workspace/flow/flowstdlib/data/ordered_split/ordered_split.html" xlink:title="split_lower_right (#3)">
<ellipse fill="coral" stroke="black" cx="1562" cy="-733" rx="88.28" ry="18"/>
<text text-anchor="middle" x="1562" y="-729.3" font-family="Times,serif" font-size="14.00">split_lower_right (#3)</text>
</a>
</g>
</g>
<!-- r8&#45;&gt;r3 -->
<g id="edge4" class="edge">
<title>r8:se&#45;&gt;r3:n</title>
<path fill="none" stroke="black" d="M1314,-802C1342.43,-773.57 1455.32,-794.94 1494,-784 1522.54,-775.93 1553.68,-782.57 1560.59,-761.12"/>
<polygon fill="black" stroke="black" points="1564.09,-761.39 1562,-751 1557.16,-760.42 1564.09,-761.39"/>
<text text-anchor="middle" x="1546.5" y="-754.8" font-family="Times,serif" font-size="14.00">string</text>
<text text-anchor="middle" x="1337" y="-805.8" font-family="Times,serif" font-size="14.00">/string/4</text>
</g>
<!-- r15&#45;&gt;r15 -->
<g id="edge54" class="edge">
<title>r15:e&#45;&gt;r15:n</title>
<path fill="none" stroke="black" d="M1384,-733C1408.04,-724 1456.04,-724 1456.04,-742 1456.04,-758.95 1360.89,-759.94 1304.96,-752.49"/>
<polygon fill="black" stroke="black" points="1305.41,-749.02 1295,-751 1304.37,-755.94 1305.41,-749.02"/>
</g>
<!-- r13 -->
<g id="node38" class="node">
<title>r13</title>
<g id="a_node38"><a xlink:href="file:///Users/andrew/workspace/flow/flowr/src/lib/flowruntime/image/image_buffer.html" xlink:title="image_buffer (#13)">
<ellipse fill="coral" stroke="black" cx="2027" cy="-34" rx="79.89" ry="18"/>
<text text-anchor="middle" x="2027" y="-30.3" font-family="Times,serif" font-size="14.00">image_buffer (#13)</text>
</a>
</g>
</g>
<!-- r15&#45;&gt;r13 -->
<g id="edge55" class="edge">
<title>r15:e&#45;&gt;r13:w</title>
<path fill="none" stroke="black" d="M1385,-733C1409.88,-733 1413.54,-719.51 1438,-715 1868.81,-635.5 1988.79,-736.17 2423,-678 2456.02,-673.58 2496,-694.31 2496,-661 2496,-661 2496,-661 2496,-237 2496,-25.75 2257.07,-116.5 2051,-70 2028.12,-64.84 1962.6,-69.52 1947,-52 1944.92,-49.66 1943.09,-46.4 1942.11,-43.3"/>
<polygon fill="black" stroke="black" points="1945.37,-44.58 1946,-34 1938.91,-41.87 1945.37,-44.58"/>
<text text-anchor="middle" x="1922" y="-37.8" font-family="Times,serif" font-size="14.00">filename</text>
</g>
<!-- r7 -->
<g id="node7" class="node">
<title>r7</title>
<g id="a_node7"><a xlink:href="file:///Users/andrew/workspace/flow/flowstdlib/fmt/to_json/to_json.html" xlink:title="size_to_json (#7)">
<ellipse fill="coral" stroke="black" cx="611" cy="-660" rx="71.49" ry="18"/>
<text text-anchor="middle" x="611" y="-656.3" font-family="Times,serif" font-size="14.00">size_to_json (#7)</text>
</a>
</g>
</g>
<!-- r1&#45;&gt;r7 -->
<g id="edge6" class="edge">
<title>r1:e&#45;&gt;r7:n</title>
<path fill="none" stroke="black" d="M940,-733C948.01,-733 944.5,-720.82 939,-715 891.19,-664.39 638.61,-742.61 613.08,-687.95"/>
<polygon fill="black" stroke="black" points="616.47,-687.07 611,-678 609.62,-688.5 616.47,-687.07"/>
</g>
<!-- r2 -->
<g id="node16" class="node">
<title>r2</title>
<g id="a_node16"><a xlink:href="file:///Users/andrew/workspace/flow/flowstdlib/fmt/to_json/to_json.html" xlink:title="upper_left_to_json (#2)">
<ellipse fill="coral" stroke="black" cx="1907" cy="-660" rx="94.48" ry="18"/>
<text text-anchor="middle" x="1907" y="-656.3" font-family="Times,serif" font-size="14.00">upper_left_to_json (#2)</text>
</a>
</g>
</g>
<!-- r0&#45;&gt;r2 -->
<g id="edge16" class="edge">
<title>r0:e&#45;&gt;r2:n</title>
<path fill="none" stroke="black" d="M1904,-733C1925.23,-733 1911.9,-710.05 1907.98,-687.99"/>
<polygon fill="black" stroke="black" points="1911.46,-687.61 1907,-678 1904.49,-688.29 1911.46,-687.61"/>
</g>
<!-- r4 -->
<g id="node19" class="node">
<title>r4</title>
<g id="a_node19"><a xlink:href="file:///Users/andrew/workspace/flow/flowstdlib/fmt/to_json/to_json.html" xlink:title="lower_right_to_json (#4)">
<ellipse fill="coral" stroke="black" cx="1642" cy="-660" rx="98.58" ry="18"/>
<text text-anchor="middle" x="1642" y="-656.3" font-family="Times,serif" font-size="14.00">lower_right_to_json (#4)</text>
</a>
</g>
</g>
<!-- r3&#45;&gt;r4 -->
<g id="edge19" class="edge">
<title>r3:e&#45;&gt;r4:n</title>
<path fill="none" stroke="black" d="M1652,-733C1660.01,-733 1652.17,-722.93 1651,-715 1649.1,-702.18 1644.83,-697.22 1642.94,-688.01"/>
<polygon fill="black" stroke="black" points="1646.42,-687.63 1642,-678 1639.45,-688.28 1646.42,-687.63"/>
</g>
<!-- initializerr1_1 -->
<!-- initializerr1_1&#45;&gt;r1 -->
<g id="edge5" class="edge">
<title>initializerr1_1&#45;&gt;r1:w</title>
<path fill="none" stroke="blue" d="M810.14,-802.01C802.29,-780.67 792.25,-745.63 806.31,-735.7"/>
<polygon fill="blue" stroke="blue" points="807.31,-739.05 816,-733 805.43,-732.31 807.31,-739.05"/>
<text text-anchor="middle" x="813.5" y="-772.8" font-family="Times,serif" font-size="14.00">&quot;x&quot;</text>
</g>
<!-- r10 -->
<g id="node8" class="node">
<title>r10</title>
<g id="a_node8"><a xlink:href="file:///Users/andrew/workspace/flow/flowstdlib/data/accumulate/accumulate.html" xlink:title="accumulate_size (#10)">
<ellipse fill="coral" stroke="black" cx="819" cy="-521" rx="90.98" ry="18"/>
<text text-anchor="middle" x="819" y="-517.3" font-family="Times,serif" font-size="14.00">accumulate_size (#10)</text>
</a>
</g>
</g>
<!-- r7&#45;&gt;r10 -->
<g id="edge7" class="edge">
<title>r7:e&#45;&gt;r10:n</title>
<path fill="none" stroke="black" d="M684,-660C701.8,-660 794.18,-581.43 814.88,-549.63"/>
<polygon fill="black" stroke="black" points="818.29,-550.57 819,-540 811.85,-547.82 818.29,-550.57"/>
<text text-anchor="middle" x="801.5" y="-543.8" font-family="Times,serif" font-size="14.00">values</text>
</g>
<!-- r10&#45;&gt;r10 -->
<g id="edge10" class="edge">
<title>r10:e&#45;&gt;r10:ne</title>
<path fill="none" stroke="black" d="M910,-521C933.99,-510.5 981.99,-510.5 981.99,-530 981.99,-548.36 901.64,-549.43 846.9,-540.74"/>
<polygon fill="black" stroke="black" points="847.45,-537.28 837,-539 846.25,-544.17 847.45,-537.28"/>
<text text-anchor="middle" x="854.5" y="-542.8" font-family="Times,serif" font-size="14.00">partial</text>
<text text-anchor="middle" x="929.5" y="-524.8" font-family="Times,serif" font-size="14.00">/partial</text>
</g>
<!-- r18 -->
<g id="node11" class="node">
<title>r18</title>
<g id="a_node11"><a xlink:href="file:///Users/andrew/workspace/flow/flowstdlib/math/subtract/subtract.html" xlink:title="height (#18)">
<ellipse fill="coral" stroke="black" cx="594" cy="-434" rx="53.89" ry="18"/>
<text text-anchor="middle" x="594" y="-430.3" font-family="Times,serif" font-size="14.00">height (#18)</text>
</a>
</g>
</g>
<!-- r10&#45;&gt;r18 -->
<g id="edge11" class="edge">
<title>r10:sw&#45;&gt;r18:n</title>
<path fill="none" stroke="black" d="M801,-503C736.62,-438.62 604.83,-538.37 594.63,-462.19"/>
<polygon fill="black" stroke="black" points="598.11,-461.77 594,-452 591.12,-462.2 598.11,-461.77"/>
<text text-anchor="middle" x="588.5" y="-455.8" font-family="Times,serif" font-size="14.00">i1</text>
<text text-anchor="middle" x="777" y="-491.8" font-family="Times,serif" font-size="14.00">/chunk/1</text>
</g>
<!-- r23 -->
<g id="node12" class="node">
<title>r23</title>
<g id="a_node12"><a xlink:href="file:///Users/andrew/workspace/flow/flowstdlib/control/join/join.html" xlink:title="width&#45;gate (#23)">
<ellipse fill="coral" stroke="black" cx="789" cy="-434" rx="69.59" ry="18"/>
<text text-anchor="middle" x="789" y="-430.3" font-family="Times,serif" font-size="14.00">width&#45;gate (#23)</text>
</a>
</g>
</g>
<!-- r10&#45;&gt;r23 -->
<g id="edge12" class="edge">
<title>r10:s&#45;&gt;r23:n</title>
<path fill="none" stroke="black" d="M819,-503C819,-480.61 797.25,-478.44 790.79,-462.05"/>
<polygon fill="black" stroke="black" points="794.2,-461.23 789,-452 787.3,-462.46 794.2,-461.23"/>
<text text-anchor="middle" x="777.5" y="-455.8" font-family="Times,serif" font-size="14.00">data</text>
<text text-anchor="middle" x="843" y="-491.8" font-family="Times,serif" font-size="14.00">/chunk/0</text>
</g>
<!-- r16 -->
<g id="node13" class="node">
<title>r16</title>
<g id="a_node13"><a xlink:href="file:///Users/andrew/workspace/flow/flowstdlib/data/buffer/buffer.html" xlink:title="buffer_size (#16)">
<ellipse fill="coral" stroke="black" cx="1197" cy="-434" rx="71.49" ry="18"/>
<text text-anchor="middle" x="1197" y="-430.3" font-family="Times,serif" font-size="14.00">buffer_size (#16)</text>
</a>
</g>
</g>
<!-- r10&#45;&gt;r16 -->
<g id="edge13" class="edge">
<title>r10:s&#45;&gt;r16:n</title>
<path fill="none" stroke="black" d="M819,-503C819,-421.88 1165.21,-526.95 1194.97,-461.83"/>
<polygon fill="black" stroke="black" points="1198.4,-462.5 1197,-452 1191.55,-461.08 1198.4,-462.5"/>
<text text-anchor="middle" x="800.5" y="-491.8" font-family="Times,serif" font-size="14.00">/chunk</text>
</g>
<!-- r14 -->
<g id="node14" class="node">
<title>r14</title>
<g id="a_node14"><a xlink:href="file:///Users/andrew/workspace/flow/flowstdlib/data/buffer/buffer.html" xlink:title="size_buffer (#14)">
<ellipse fill="coral" stroke="black" cx="1556" cy="-434" rx="71.49" ry="18"/>
<text text-anchor="middle" x="1556" y="-430.3" font-family="Times,serif" font-size="14.00">size_buffer (#14)</text>
</a>
</g>
</g>
<!-- r10&#45;&gt;r14 -->
<g id="edge14" class="edge">
<title>r10:s&#45;&gt;r14:n</title>
<path fill="none" stroke="black" d="M819,-503C819,-493.44 1458.68,-466.33 1546.14,-454.37"/>
<polygon fill="black" stroke="black" points="1547.1,-457.74 1556,-452 1545.46,-450.94 1547.1,-457.74"/>
<text text-anchor="middle" x="800.5" y="-506.8" font-family="Times,serif" font-size="14.00">/chunk</text>
</g>
<!-- initializerr10_1 -->
<!-- initializerr10_1&#45;&gt;r10 -->
<g id="edge8" class="edge">
<title>initializerr10_1&#45;&gt;r10:n</title>
<path fill="none" stroke="blue" stroke-dasharray="1,5" d="M965.27,-650.61C908.51,-638.72 827.71,-611.17 819.65,-550.09"/>
<polygon fill="blue" stroke="blue" points="823.14,-549.75 819,-540 816.15,-550.21 823.14,-549.75"/>
<text text-anchor="middle" x="883" y="-612.8" font-family="Times,serif" font-size="14.00">[]</text>
</g>
<!-- initializerr10_2 -->
<!-- initializerr10_2&#45;&gt;r10 -->
<g id="edge9" class="edge">
<title>initializerr10_2&#45;&gt;r10:n</title>
<path fill="none" stroke="blue" d="M819,-641.66C819,-620.66 819,-583.92 819,-550.31"/>
<polygon fill="blue" stroke="blue" points="822.5,-550 819,-540 815.5,-550 822.5,-550"/>
<text text-anchor="middle" x="822.5" y="-612.8" font-family="Times,serif" font-size="14.00">2</text>
</g>
<!-- r22 -->
<g id="node30" class="node">
<title>r22</title>
<g id="a_node30"><a xlink:href="file:///Users/andrew/workspace/flow/flowstdlib/control/compare_switch/compare_switch.html" xlink:title="compare (#22)">
<ellipse fill="coral" stroke="black" cx="289" cy="-434" rx="63.09" ry="18"/>
<text text-anchor="middle" x="289" y="-430.3" font-family="Times,serif" font-size="14.00">compare (#22)</text>
</a>
</g>
</g>
<!-- r18&#45;&gt;r22 -->
<g id="edge34" class="edge">
<title>r18:se&#45;&gt;r22:n</title>
<path fill="none" stroke="black" d="M612,-417C634.61,-394.39 571.89,-412.98 540.05,-416 455.36,-424.04 436.68,-443.29 352.04,-452 328.74,-454.4 300.34,-473.07 291.65,-462.76"/>
<polygon fill="black" stroke="black" points="295,-461.73 289,-453 288.25,-463.57 295,-461.73"/>
<text text-anchor="middle" x="279.5" y="-456.8" font-family="Times,serif" font-size="14.00">left</text>
<text text-anchor="middle" x="600" y="-405.8" font-family="Times,serif" font-size="14.00">/diff</text>
</g>
<!-- r23&#45;&gt;r23 -->
<g id="edge43" class="edge">
<title>r23:e&#45;&gt;r23:n</title>
<path fill="none" stroke="black" d="M859,-434C882.54,-423.5 930.54,-423.5 930.54,-443 930.54,-461.21 848.3,-462.41 798.98,-453.95"/>
<polygon fill="black" stroke="black" points="799.49,-450.48 789,-452 798.14,-457.35 799.49,-450.48"/>
<text text-anchor="middle" x="800.5" y="-455.8" font-family="Times,serif" font-size="14.00">data</text>
</g>
<!-- r19 -->
<g id="node32" class="node">
<title>r19</title>
<g id="a_node32"><a xlink:href="file:///Users/andrew/workspace/flow/flowstdlib/data/duplicate/duplicate.html" xlink:title="y&#45;duplicator (#19)">
<ellipse fill="coral" stroke="black" cx="295" cy="-347" rx="75.29" ry="18"/>
<text text-anchor="middle" x="295" y="-343.3" font-family="Times,serif" font-size="14.00">y&#45;duplicator (#19)</text>
</a>
</g>
</g>
<!-- r23&#45;&gt;r19 -->
<g id="edge44" class="edge">
<title>r23:e&#45;&gt;r19:ne</title>
<path fill="none" stroke="black" d="M860,-434C868.01,-434 864.56,-421.77 859,-416 776.78,-330.62 419.48,-444.6 320.71,-371.61"/>
<polygon fill="black" stroke="black" points="322.87,-368.85 313,-365 318.31,-374.17 322.87,-368.85"/>
<text text-anchor="middle" x="297" y="-368.8" font-family="Times,serif" font-size="14.00">factor</text>
</g>
<!-- r16&#45;&gt;r16 -->
<g id="edge50" class="edge">
<title>r16:e&#45;&gt;r16:n</title>
<path fill="none" stroke="black" d="M1269,-434C1292.49,-423.5 1340.49,-423.5 1340.49,-443 1340.49,-461.21 1257.11,-462.41 1207.12,-453.95"/>
<polygon fill="black" stroke="black" points="1207.48,-450.46 1197,-452 1206.16,-457.33 1207.48,-450.46"/>
</g>
<!-- r11 -->
<g id="node36" class="node">
<title>r11</title>
<g id="a_node36"><a xlink:href="file:///Users/andrew/workspace/flow/samples/mandlebrot/pixel_to_point/pixel_to_point.html" xlink:title="p2p (#11)">
<ellipse fill="coral" stroke="black" cx="1992" cy="-180" rx="45.49" ry="18"/>
<text text-anchor="middle" x="1992" y="-176.3" font-family="Times,serif" font-size="14.00">p2p (#11)</text>
</a>
</g>
</g>
<!-- r16&#45;&gt;r11 -->
<g id="edge51" class="edge">
<title>r16:e&#45;&gt;r11:nw</title>
<path fill="none" stroke="black" d="M1270,-434C1431.82,-434 1840.94,-319.66 1967.43,-205.19"/>
<polygon fill="black" stroke="black" points="1970.16,-207.42 1975,-198 1965.34,-202.35 1970.16,-207.42"/>
<text text-anchor="middle" x="1964" y="-201.8" font-family="Times,serif" font-size="14.00">size</text>
</g>
<!-- r14&#45;&gt;r14 -->
<g id="edge56" class="edge">
<title>r14:e&#45;&gt;r14:n</title>
<path fill="none" stroke="black" d="M1628,-434C1651.49,-423.5 1699.49,-423.5 1699.49,-443 1699.49,-461.21 1616.11,-462.41 1566.12,-453.95"/>
<polygon fill="black" stroke="black" points="1566.48,-450.46 1556,-452 1565.16,-457.33 1566.48,-450.46"/>
</g>
<!-- r14&#45;&gt;r13 -->
<g id="edge57" class="edge">
<title>r14:e&#45;&gt;r13:nw</title>
<path fill="none" stroke="black" d="M1629,-434C1693.94,-434 1709.53,-423.81 1774,-416 1837.98,-408.25 2350,-412.44 2350,-348 2350,-348 2350,-348 2350,-106 2350,-72.21 2064.37,-77.1 2014.84,-60.2"/>
<polygon fill="black" stroke="black" points="2017.65,-58.11 2009,-52 2011.95,-62.17 2017.65,-58.11"/>
<text text-anchor="middle" x="1998" y="-55.8" font-family="Times,serif" font-size="14.00">size</text>
</g>
<!-- initializerr0_1 -->
<!-- initializerr0_1&#45;&gt;r0 -->
<g id="edge15" class="edge">
<title>initializerr0_1&#45;&gt;r0:w</title>
<path fill="none" stroke="blue" d="M1728.14,-802.01C1720.29,-780.67 1710.25,-745.63 1724.31,-735.7"/>
<polygon fill="blue" stroke="blue" points="1725.31,-739.05 1734,-733 1723.43,-732.31 1725.31,-739.05"/>
<text text-anchor="middle" x="1730" y="-772.8" font-family="Times,serif" font-size="14.00">&quot;,&quot;</text>
</g>
<!-- r5 -->
<g id="node17" class="node">
<title>r5</title>
<g id="a_node17"><a xlink:href="file:///Users/andrew/workspace/flow/flowstdlib/data/accumulate/accumulate.html" xlink:title="accumulate_upper_left (#5)">
<ellipse fill="coral" stroke="black" cx="1875" cy="-521" rx="108.58" ry="18"/>
<text text-anchor="middle" x="1875" y="-517.3" font-family="Times,serif" font-size="14.00">accumulate_upper_left (#5)</text>
</a>
</g>
</g>
<!-- r2&#45;&gt;r5 -->
<g id="edge17" class="edge">
<title>r2:e&#45;&gt;r5:n</title>
<path fill="none" stroke="black" d="M2003,-660C2011.01,-660 2006.74,-648.46 2002,-642 1988.51,-623.64 1972.96,-636.63 1954,-624 1914.34,-597.59 1880.14,-591.98 1875.53,-550.14"/>
<polygon fill="black" stroke="black" points="1879.02,-549.8 1875,-540 1872.03,-550.17 1879.02,-549.8"/>
<text text-anchor="middle" x="1857.5" y="-543.8" font-family="Times,serif" font-size="14.00">values</text>
</g>
<!-- r5&#45;&gt;r5 -->
<g id="edge23" class="edge">
<title>r5:e&#45;&gt;r5:ne</title>
<path fill="none" stroke="black" d="M1984,-521C2007.54,-510.5 2055.54,-510.5 2055.54,-530 2055.54,-548.43 1964.07,-549.44 1903.23,-540.63"/>
<polygon fill="black" stroke="black" points="1903.43,-537.11 1893,-539 1902.33,-544.03 1903.43,-537.11"/>
<text text-anchor="middle" x="1910.5" y="-542.8" font-family="Times,serif" font-size="14.00">partial</text>
<text text-anchor="middle" x="2003.5" y="-524.8" font-family="Times,serif" font-size="14.00">/partial</text>
</g>
<!-- r9 -->
<g id="node23" class="node">
<title>r9</title>
<g id="a_node23"><a xlink:href="file:///Users/andrew/workspace/flow/flowstdlib/data/accumulate/accumulate.html" xlink:title="accumulate_bounds (#9)">
<ellipse fill="coral" stroke="black" cx="1908" cy="-434" rx="98.28" ry="18"/>
<text text-anchor="middle" x="1908" y="-430.3" font-family="Times,serif" font-size="14.00">accumulate_bounds (#9)</text>
</a>
</g>
</g>
<!-- r5&#45;&gt;r9 -->
<g id="edge24" class="edge">
<title>r5:s&#45;&gt;r9:n</title>
<path fill="none" stroke="black" d="M1875,-503C1875,-480.01 1898.93,-478.77 1906.03,-462.24"/>
<polygon fill="black" stroke="black" points="1909.55,-462.48 1908,-452 1902.68,-461.16 1909.55,-462.48"/>
<text text-anchor="middle" x="1890.5" y="-455.8" font-family="Times,serif" font-size="14.00">values</text>
<text text-anchor="middle" x="1856.5" y="-491.8" font-family="Times,serif" font-size="14.00">/chunk</text>
</g>
<!-- initializerr3_1 -->
<!-- initializerr3_1&#45;&gt;r3 -->
<g id="edge18" class="edge">
<title>initializerr3_1&#45;&gt;r3:w</title>
<path fill="none" stroke="blue" d="M1466.14,-802.01C1458.29,-780.67 1448.25,-745.63 1462.31,-735.7"/>
<polygon fill="blue" stroke="blue" points="1463.31,-739.05 1472,-733 1461.43,-732.31 1463.31,-739.05"/>
<text text-anchor="middle" x="1468" y="-772.8" font-family="Times,serif" font-size="14.00">&quot;,&quot;</text>
</g>
<!-- r6 -->
<g id="node20" class="node">
<title>r6</title>
<g id="a_node20"><a xlink:href="file:///Users/andrew/workspace/flow/flowstdlib/data/accumulate/accumulate.html" xlink:title="accumulate_lower_right (#6)">
<ellipse fill="coral" stroke="black" cx="1525" cy="-521" rx="113.98" ry="18"/>
<text text-anchor="middle" x="1525" y="-517.3" font-family="Times,serif" font-size="14.00">accumulate_lower_right (#6)</text>
</a>
</g>
</g>
<!-- r4&#45;&gt;r6 -->
<g id="edge20" class="edge">
<title>r4:e&#45;&gt;r6:n</title>
<path fill="none" stroke="black" d="M1742,-660C1750.01,-660 1745.47,-648.65 1741,-642 1683.73,-556.94 1535.6,-640.07 1525.54,-550.21"/>
<polygon fill="black" stroke="black" points="1529.02,-549.8 1525,-540 1522.03,-550.17 1529.02,-549.8"/>
<text text-anchor="middle" x="1507.5" y="-543.8" font-family="Times,serif" font-size="14.00">values</text>
</g>
<!-- r6&#45;&gt;r6 -->
<g id="edge27" class="edge">
<title>r6:e&#45;&gt;r6:ne</title>
<path fill="none" stroke="black" d="M1639,-521C1662.74,-510.5 1710.74,-510.5 1710.74,-530 1710.74,-548.47 1615.78,-549.45 1553.14,-540.57"/>
<polygon fill="black" stroke="black" points="1553.42,-537.07 1543,-539 1552.35,-543.99 1553.42,-537.07"/>
<text text-anchor="middle" x="1560.5" y="-542.8" font-family="Times,serif" font-size="14.00">partial</text>
<text text-anchor="middle" x="1658.5" y="-524.8" font-family="Times,serif" font-size="14.00">/partial</text>
</g>
<!-- r6&#45;&gt;r9 -->
<g id="edge28" class="edge">
<title>r6:s&#45;&gt;r9:n</title>
<path fill="none" stroke="black" d="M1525,-503C1525,-483.46 1842.27,-475.02 1899.28,-457.48"/>
<polygon fill="black" stroke="black" points="1901.4,-460.29 1908,-452 1897.67,-454.36 1901.4,-460.29"/>
<text text-anchor="middle" x="1925.5" y="-455.8" font-family="Times,serif" font-size="14.00">values</text>
<text text-anchor="middle" x="1506.5" y="-491.8" font-family="Times,serif" font-size="14.00">/chunk</text>
</g>
<!-- initializerr5_1 -->
<!-- initializerr5_1&#45;&gt;r5 -->
<g id="edge21" class="edge">
<title>initializerr5_1&#45;&gt;r5:n</title>
<path fill="none" stroke="blue" stroke-dasharray="1,5" d="M2276.83,-649.94C2206.48,-637.05 2082.16,-613.61 2038,-601 1967.11,-580.76 1883.28,-613.96 1875.57,-550.14"/>
<polygon fill="blue" stroke="blue" points="1879.06,-549.79 1875,-540 1872.07,-550.18 1879.06,-549.79"/>
<text text-anchor="middle" x="2140" y="-612.8" font-family="Times,serif" font-size="14.00">[]</text>
</g>
<!-- initializerr5_2 -->
<!-- initializerr5_2&#45;&gt;r5 -->
<g id="edge22" class="edge">
<title>initializerr5_2&#45;&gt;r5:n</title>
<path fill="none" stroke="blue" d="M2088.59,-648.04C2019.68,-630.17 1894.79,-592.45 1877.11,-550"/>
<polygon fill="blue" stroke="blue" points="1880.49,-549.06 1875,-540 1873.64,-550.51 1880.49,-549.06"/>
<text text-anchor="middle" x="2007.5" y="-612.8" font-family="Times,serif" font-size="14.00">2</text>
</g>
<!-- r9&#45;&gt;r9 -->
<g id="edge31" class="edge">
<title>r9:e&#45;&gt;r9:ne</title>
<path fill="none" stroke="black" d="M2006,-434C2030.14,-423.5 2078.14,-423.5 2078.14,-443 2078.14,-461.4 1993.22,-462.44 1935.99,-453.68"/>
<polygon fill="black" stroke="black" points="1936.44,-450.21 1926,-452 1935.28,-457.11 1936.44,-450.21"/>
<text text-anchor="middle" x="1943.5" y="-455.8" font-family="Times,serif" font-size="14.00">partial</text>
<text text-anchor="middle" x="2025.5" y="-437.8" font-family="Times,serif" font-size="14.00">/partial</text>
</g>
<!-- r17 -->
<g id="node28" class="node">
<title>r17</title>
<g id="a_node28"><a xlink:href="file:///Users/andrew/workspace/flow/flowstdlib/data/buffer/buffer.html" xlink:title="buffer_bounds (#17)">
<ellipse fill="coral" stroke="black" cx="1908" cy="-347" rx="83.39" ry="18"/>
<text text-anchor="middle" x="1908" y="-343.3" font-family="Times,serif" font-size="14.00">buffer_bounds (#17)</text>
</a>
</g>
</g>
<!-- r9&#45;&gt;r17 -->
<g id="edge32" class="edge">
<title>r9:s&#45;&gt;r17:n</title>
<path fill="none" stroke="black" d="M1908,-416C1908,-397.23 1908,-390.12 1908,-375.35"/>
<polygon fill="black" stroke="black" points="1911.5,-375 1908,-365 1904.5,-375 1911.5,-375"/>
<text text-anchor="middle" x="1889.5" y="-404.8" font-family="Times,serif" font-size="14.00">/chunk</text>
</g>
<!-- initializerr6_1 -->
<!-- initializerr6_1&#45;&gt;r6 -->
<g id="edge25" class="edge">
<title>initializerr6_1&#45;&gt;r6:n</title>
<path fill="none" stroke="blue" stroke-dasharray="1,5" d="M1440.95,-644.2C1472.35,-626.49 1518.01,-593.69 1524.28,-550.08"/>
<polygon fill="blue" stroke="blue" points="1527.78,-550.22 1525,-540 1520.79,-549.72 1527.78,-550.22"/>
<text text-anchor="middle" x="1493" y="-612.8" font-family="Times,serif" font-size="14.00">[]</text>
</g>
<!-- initializerr6_2 -->
<!-- initializerr6_2&#45;&gt;r6 -->
<g id="edge26" class="edge">
<title>initializerr6_2&#45;&gt;r6:n</title>
<path fill="none" stroke="blue" d="M1268.69,-650.18C1350.44,-634.59 1504.18,-599.12 1523.08,-550"/>
<polygon fill="blue" stroke="blue" points="1526.55,-550.48 1525,-540 1519.68,-549.16 1526.55,-550.48"/>
<text text-anchor="middle" x="1428.5" y="-612.8" font-family="Times,serif" font-size="14.00">2</text>
</g>
<!-- initializerr9_1 -->
<!-- initializerr9_1&#45;&gt;r9 -->
<g id="edge29" class="edge">
<title>initializerr9_1&#45;&gt;r9:n</title>
<path fill="none" stroke="blue" stroke-dasharray="1,5" d="M2276.68,-511.02C2261.67,-508.38 2245.18,-505.53 2230,-503 2226,-502.33 1971.5,-465.67 1917.86,-454.71"/>
<polygon fill="blue" stroke="blue" points="1918.57,-451.27 1908,-452 1916.72,-458.02 1918.57,-451.27"/>
<text text-anchor="middle" x="2110" y="-473.8" font-family="Times,serif" font-size="14.00">[]</text>
</g>
<!-- initializerr9_2 -->
<!-- initializerr9_2&#45;&gt;r9 -->
<g id="edge30" class="edge">
<title>initializerr9_2&#45;&gt;r9:n</title>
<path fill="none" stroke="blue" d="M2085.24,-510.28C2028.14,-498.31 1938.29,-477.43 1914.14,-460.14"/>
<polygon fill="blue" stroke="blue" points="1916.82,-457.88 1908,-452 1911.23,-462.09 1916.82,-457.88"/>
<text text-anchor="middle" x="1977.5" y="-473.8" font-family="Times,serif" font-size="14.00">2</text>
</g>
<!-- r17&#45;&gt;r17 -->
<g id="edge48" class="edge">
<title>r17:e&#45;&gt;r17:n</title>
<path fill="none" stroke="black" d="M1992,-347C2015.19,-338 2063.19,-338 2063.19,-356 2063.19,-372.91 1971.88,-373.93 1917.93,-366.53"/>
<polygon fill="black" stroke="black" points="1918.42,-363.07 1908,-365 1917.35,-369.99 1918.42,-363.07"/>
</g>
<!-- r17&#45;&gt;r11 -->
<g id="edge49" class="edge">
<title>r17:e&#45;&gt;r11:n</title>
<path fill="none" stroke="black" d="M1993,-347C2055.44,-347 1998.44,-272.92 1992.49,-209.14"/>
<polygon fill="black" stroke="black" points="1995.98,-208.82 1992,-199 1988.99,-209.16 1995.98,-208.82"/>
<text text-anchor="middle" x="2012" y="-202.8" font-family="Times,serif" font-size="14.00">bounds</text>
</g>
<!-- initializerr18_1 -->
<!-- initializerr18_1&#45;&gt;r18 -->
<g id="edge33" class="edge">
<title>initializerr18_1&#45;&gt;r18:w</title>
<path fill="none" stroke="blue" stroke-dasharray="1,5" d="M458.85,-503.01C470.58,-480.2 494.97,-441.74 528.73,-435.02"/>
<polygon fill="blue" stroke="blue" points="529.39,-438.47 539,-434 528.7,-431.5 529.39,-438.47"/>
<text text-anchor="middle" x="481.5" y="-473.8" font-family="Times,serif" font-size="14.00">1</text>
</g>
<!-- r22&#45;&gt;r23 -->
<g id="edge36" class="edge">
<title>r22:e&#45;&gt;r23:ne</title>
<path fill="none" stroke="black" d="M353,-434C442.66,-434 460.86,-467.78 550,-477.5 593.3,-482.22 604.58,-480.96 648,-477.5 715.44,-472.13 842.68,-499.35 813.65,-459.59"/>
<polygon fill="black" stroke="black" points="816.22,-457.22 807,-452 810.96,-461.83 816.22,-457.22"/>
<text text-anchor="middle" x="826.5" y="-455.8" font-family="Times,serif" font-size="14.00">control</text>
<text text-anchor="middle" x="377" y="-437.8" font-family="Times,serif" font-size="14.00">/right&#45;lte</text>
</g>
<!-- r22&#45;&gt;r22 -->
<g id="edge38" class="edge">
<title>r22:s&#45;&gt;r22:n</title>
<path fill="none" stroke="black" d="M289,-416C334.01,-405.5 424.04,-405.5 424.04,-434 424.04,-460.55 345.9,-462.37 298.82,-454"/>
<polygon fill="black" stroke="black" points="299.5,-450.57 289,-452 298.1,-457.43 299.5,-450.57"/>
<text text-anchor="middle" x="298.5" y="-455.8" font-family="Times,serif" font-size="14.00">left</text>
<text text-anchor="middle" x="270.5" y="-404.8" font-family="Times,serif" font-size="14.00">/left&#45;gt</text>
</g>
<!-- r22&#45;&gt;r19 -->
<g id="edge37" class="edge">
<title>r22:e&#45;&gt;r19:n</title>
<path fill="none" stroke="black" d="M353,-434C361.01,-434 355.47,-423.22 352,-416 339,-388.95 304.53,-396.41 296.63,-375.14"/>
<polygon fill="black" stroke="black" points="300.04,-374.32 295,-365 293.13,-375.43 300.04,-374.32"/>
<text text-anchor="middle" x="280" y="-368.8" font-family="Times,serif" font-size="14.00">value</text>
<text text-anchor="middle" x="377" y="-422.8" font-family="Times,serif" font-size="14.00">/right&#45;lte</text>
</g>
<!-- r21 -->
<g id="node33" class="node">
<title>r21</title>
<g id="a_node33"><a xlink:href="file:///Users/andrew/workspace/flow/flowstdlib/math/add/add.html" xlink:title="add (#21)">
<ellipse fill="coral" stroke="black" cx="85" cy="-347" rx="44.69" ry="18"/>
<text text-anchor="middle" x="85" y="-343.3" font-family="Times,serif" font-size="14.00">add (#21)</text>
</a>
</g>
</g>
<!-- r22&#45;&gt;r21 -->
<g id="edge39" class="edge">
<title>r22:e&#45;&gt;r21:n</title>
<path fill="none" stroke="black" d="M353,-434C361.01,-434 357.2,-422.09 352,-416 346.35,-409.39 207.55,-384.6 199,-383 177.43,-378.97 109.34,-387.43 90.1,-373.91"/>
<polygon fill="black" stroke="black" points="93.01,-371.94 85,-365 86.94,-375.42 93.01,-371.94"/>
<text text-anchor="middle" x="79.5" y="-368.8" font-family="Times,serif" font-size="14.00">i1</text>
<text text-anchor="middle" x="332" y="-437.8" font-family="Times,serif" font-size="14.00">/right&#45;lt</text>
</g>
<!-- initializerr22_1 -->
<!-- initializerr22_1&#45;&gt;r22 -->
<g id="edge35" class="edge">
<title>initializerr22_1&#45;&gt;r22:ne</title>
<path fill="none" stroke="blue" stroke-dasharray="1,5" d="M257.24,-503.05C262.76,-492.76 270.71,-479.77 280,-470 284.99,-464.75 294.39,-462.77 300.96,-460.72"/>
<polygon fill="blue" stroke="blue" points="304.03,-462.41 306,-452 297.97,-458.91 304.03,-462.41"/>
<text text-anchor="middle" x="283.5" y="-473.8" font-family="Times,serif" font-size="14.00">0</text>
</g>
<!-- r20 -->
<g id="node35" class="node">
<title>r20</title>
<g id="a_node35"><a xlink:href="file:///Users/andrew/workspace/flow/flowstdlib/data/enumerate/enumerate.html" xlink:title="enumerate (#20)">
<ellipse fill="coral" stroke="black" cx="427" cy="-274" rx="69.59" ry="18"/>
<text text-anchor="middle" x="427" y="-270.3" font-family="Times,serif" font-size="14.00">enumerate (#20)</text>
</a>
</g>
</g>
<!-- r19&#45;&gt;r20 -->
<g id="edge45" class="edge">
<title>r19:e&#45;&gt;r20:n</title>
<path fill="none" stroke="black" d="M372,-347C403.06,-347 422.7,-330.51 426.37,-302.09"/>
<polygon fill="black" stroke="black" points="429.87,-302.2 427,-292 422.89,-301.76 429.87,-302.2"/>
</g>
<!-- r21&#45;&gt;r22 -->
<g id="edge42" class="edge">
<title>r21:se&#45;&gt;r22:ne</title>
<path fill="none" stroke="black" d="M102,-329C135.92,-295.08 142.86,-375.07 185,-398 217.8,-415.85 327.1,-388.22 352.04,-416 362.44,-427.57 362.92,-439.88 352.04,-451 346.68,-456.49 327.53,-458.38 315.24,-455.93"/>
<polygon fill="black" stroke="black" points="316.57,-452.69 306,-452 313.84,-459.13 316.57,-452.69"/>
<text text-anchor="middle" x="319" y="-455.8" font-family="Times,serif" font-size="14.00">right</text>
<text text-anchor="middle" x="88" y="-317.8" font-family="Times,serif" font-size="14.00">/sum</text>
</g>
<!-- r21&#45;&gt;r21 -->
<g id="edge41" class="edge">
<title>r21:se&#45;&gt;r21:ne</title>
<path fill="none" stroke="black" d="M102,-330C140.95,-321 201.85,-321 201.85,-347 201.85,-370.87 150.53,-372.83 111.98,-366.02"/>
<polygon fill="black" stroke="black" points="112.5,-362.56 102,-364 111.11,-369.42 112.5,-362.56"/>
<text text-anchor="middle" x="96.5" y="-367.8" font-family="Times,serif" font-size="14.00">i2</text>
<text text-anchor="middle" x="109.5" y="-318.8" font-family="Times,serif" font-size="14.00">/i2</text>
</g>
<!-- initializerr21_1 -->
<!-- initializerr21_1&#45;&gt;r21 -->
<g id="edge40" class="edge">
<title>initializerr21_1&#45;&gt;r21:w</title>
<path fill="none" stroke="blue" stroke-dasharray="1,5" d="M71.82,-416.42C50.65,-395.14 18.69,-359.76 29.29,-349.73"/>
<polygon fill="blue" stroke="blue" points="30.32,-353.08 39,-347 28.43,-346.34 30.32,-353.08"/>
<text text-anchor="middle" x="58.5" y="-386.8" font-family="Times,serif" font-size="14.00">1</text>
</g>
<!-- r20&#45;&gt;r11 -->
<g id="edge46" class="edge">
<title>r20:e&#45;&gt;r11:ne</title>
<path fill="none" stroke="black" d="M498,-274C577.45,-274 1910.05,-259.2 2005.36,-207.37"/>
<polygon fill="black" stroke="black" points="2008.64,-208.59 2009,-198 2002.12,-206.06 2008.64,-208.59"/>
<text text-anchor="middle" x="1995" y="-186.8" font-family="Times,serif" font-size="14.00">pixel</text>
</g>
<!-- r12 -->
<g id="node37" class="node">
<title>r12</title>
<g id="a_node37"><a xlink:href="file:///Users/andrew/workspace/flow/samples/mandlebrot/render_pixel/render_pixel.html" xlink:title="p2v (#12)">
<ellipse fill="coral" stroke="black" cx="2038" cy="-107" rx="45.49" ry="18"/>
<text text-anchor="middle" x="2038" y="-103.3" font-family="Times,serif" font-size="14.00">p2v (#12)</text>
</a>
</g>
</g>
<!-- r11&#45;&gt;r12 -->
<g id="edge47" class="edge">
<title>r11:e&#45;&gt;r12:n</title>
<path fill="none" stroke="black" d="M2039,-180C2060.2,-180 2043.88,-157.02 2039.17,-134.98"/>
<polygon fill="black" stroke="black" points="2042.64,-134.52 2038,-125 2035.69,-135.34 2042.64,-134.52"/>
<text text-anchor="middle" x="2007" y="-128.8" font-family="Times,serif" font-size="14.00">pixel_point</text>
</g>
<!-- r12&#45;&gt;r13 -->
<g id="edge52" class="edge">
<title>r12:s&#45;&gt;r13:n</title>
<path fill="none" stroke="black" d="M2038,-89C2038,-75.87 2031.55,-71.21 2028.53,-62.05"/>
<polygon fill="black" stroke="black" points="2031.96,-61.36 2027,-52 2025.04,-62.41 2031.96,-61.36"/>
<text text-anchor="middle" x="2041" y="-55.8" font-family="Times,serif" font-size="14.00">pixel</text>
<text text-anchor="middle" x="2032.5" y="-77.8" font-family="Times,serif" font-size="14.00">/0</text>
</g>
<!-- r12&#45;&gt;r13 -->
<g id="edge53" class="edge">
<title>r12:sw&#45;&gt;r13:ne</title>
<path fill="none" stroke="black" d="M2021,-89C2014.52,-82.52 2024.11,-77.75 2029,-70 2031.59,-65.9 2036.67,-63.37 2040.75,-61.13"/>
<polygon fill="black" stroke="black" points="2043.95,-62.54 2045,-52 2037.61,-59.59 2043.95,-62.54"/>
<text text-anchor="middle" x="2060" y="-55.8" font-family="Times,serif" font-size="14.00">value</text>
<text text-anchor="middle" x="2015.5" y="-77.8" font-family="Times,serif" font-size="14.00">/1</text>
</g>
</g>
</svg>
