<?xml version="1.0" encoding="UTF-8" standalone="no"?>
<!DOCTYPE svg PUBLIC "-//W3C//DTD SVG 1.1//EN"
 "http://www.w3.org/Graphics/SVG/1.1/DTD/svg11.dtd">
<!-- Generated by graphviz version 2.40.1 (20161225.0304)
 -->
<!-- Title: mandlebrot Pages: 1 -->
<svg width="3071pt" height="1355pt"
 viewBox="0.00 0.00 3071.00 1355.00" xmlns="http://www.w3.org/2000/svg" xmlns:xlink="http://www.w3.org/1999/xlink">
<g id="graph0" class="graph" transform="scale(1 1) rotate(0) translate(4 1351)">
<title>mandlebrot</title>
<polygon fill="#ffffff" stroke="transparent" points="-4,4 -4,-1351 3067,-1351 3067,4 -4,4"/>
<text text-anchor="middle" x="1531.5" y="-1331.8" font-family="Times,serif" font-size="14.00" fill="#000000">/mandlebrot</text>
<g id="clust1" class="cluster">
<title>cluster_parse_args</title>
<polygon fill="none" stroke="#000000" points="101,-508 101,-1316 2385,-1316 2385,-508 101,-508"/>
<text text-anchor="middle" x="1243" y="-1300.8" font-family="Times,serif" font-size="14.00" fill="#000000">/mandlebrot/parse_args</text>
</g>
<g id="clust2" class="cluster">
<title>cluster_generate_pixels</title>
<polygon fill="none" stroke="#000000" points="2393,-213 2393,-1097 2989,-1097 2989,-213 2393,-213"/>
<text text-anchor="middle" x="2691" y="-1081.8" font-family="Times,serif" font-size="14.00" fill="#000000">/mandlebrot/generate_pixels</text>
</g>
<g id="clust3" class="cluster">
<title>cluster_y_sequence</title>
<polygon fill="none" stroke="#000000" points="2561,-435 2561,-1066 2981,-1066 2981,-435 2561,-435"/>
<text text-anchor="middle" x="2771" y="-1050.8" font-family="Times,serif" font-size="14.00" fill="#000000">/mandlebrot/generate_pixels/y&#45;sequence</text>
</g>
<g id="clust4" class="cluster">
<title>cluster_render</title>
<polygon fill="none" stroke="#000000" points="2419,-8 2419,-194 2627,-194 2627,-8 2419,-8"/>
<text text-anchor="middle" x="2523" y="-178.8" font-family="Times,serif" font-size="14.00" fill="#000000">/mandlebrot/render</text>
</g>
<!-- r13 -->
<g id="node1" class="node">
<title>r13</title>
<g id="a_node1"><a xlink:href="file:///home/travis/build/andrewdavidmackenzie/flow/flowr/src/lib/flowruntime/args/get.html" xlink:title="args (#13)">
<ellipse fill="#ff7f50" stroke="#000000" cx="621" cy="-1267" rx="60.3893" ry="18"/>
<text text-anchor="middle" x="621" y="-1263.3" font-family="Times,serif" font-size="14.00" fill="#000000">args (#13)</text>
</a>
</g>
</g>
<!-- r5 -->
<g id="node2" class="node">
<title>r5</title>
<g id="a_node2"><a xlink:href="file:///home/travis/build/andrewdavidmackenzie/flow/flowstdlib/data/buffer/buffer.html" xlink:title="filename_buffer (#5)">
<ellipse fill="#ff7f50" stroke="#000000" cx="216" cy="-1142" rx="107.4815" ry="18"/>
<text text-anchor="middle" x="216" y="-1138.3" font-family="Times,serif" font-size="14.00" fill="#000000">filename_buffer (#5)</text>
</a>
</g>
</g>
<!-- r13&#45;&gt;r5 -->
<g id="edge1" class="edge">
<title>r13:s&#45;&gt;r5:n</title>
<path fill="none" stroke="#000000" d="M621,-1249C621,-1204.3671 470.5791,-1206.6417 427,-1197 384.1509,-1187.5198 240.9857,-1204.5309 218.8777,-1169.9507"/>
<polygon fill="#000000" stroke="#000000" points="222.1404,-1168.634 216,-1160 215.416,-1170.5787 222.1404,-1168.634"/>
<text text-anchor="middle" x="590.5" y="-1237.8" font-family="Times,serif" font-size="14.00" fill="#000000">/string/1</text>
</g>
<!-- r17 -->
<g id="node3" class="node">
<title>r17</title>
<g id="a_node3"><a xlink:href="file:///home/travis/build/andrewdavidmackenzie/flow/flowstdlib/data/ordered_split/ordered_split.html" xlink:title="split_size (#17)">
<ellipse fill="#ff7f50" stroke="#000000" cx="1461" cy="-1142" rx="83.3857" ry="18"/>
<text text-anchor="middle" x="1461" y="-1138.3" font-family="Times,serif" font-size="14.00" fill="#000000">split_size (#17)</text>
</a>
</g>
</g>
<!-- r13&#45;&gt;r17 -->
<g id="edge2" class="edge">
<title>r13:se&#45;&gt;r17:n</title>
<path fill="none" stroke="#000000" d="M638,-1250C686.8131,-1201.1869 716.3633,-1210.8099 784,-1197 801.1554,-1193.4972 1371.5563,-1180.8059 1451.6842,-1163.9048"/>
<polygon fill="#000000" stroke="#000000" points="1453.1304,-1167.0937 1461,-1160 1450.4244,-1160.6379 1453.1304,-1167.0937"/>
<text text-anchor="middle" x="1439.5" y="-1163.8" font-family="Times,serif" font-size="14.00" fill="#000000">string</text>
<text text-anchor="middle" x="668.5" y="-1238.8" font-family="Times,serif" font-size="14.00" fill="#000000">/string/2</text>
</g>
<!-- r19 -->
<g id="node4" class="node">
<title>r19</title>
<g id="a_node4"><a xlink:href="file:///home/travis/build/andrewdavidmackenzie/flow/flowstdlib/data/ordered_split/ordered_split.html" xlink:title="split_upper_left (#19)">
<ellipse fill="#ff7f50" stroke="#000000" cx="930" cy="-1142" rx="113.18" ry="18"/>
<text text-anchor="middle" x="930" y="-1138.3" font-family="Times,serif" font-size="14.00" fill="#000000">split_upper_left (#19)</text>
</a>
</g>
</g>
<!-- r13&#45;&gt;r19 -->
<g id="edge3" class="edge">
<title>r13:e&#45;&gt;r19:n</title>
<path fill="none" stroke="#000000" d="M682,-1267C699.4921,-1267 700.7508,-1255.476 717,-1249 771.6135,-1227.2341 790.1676,-1235.632 844,-1212 881.384,-1195.5887 922.2793,-1203.0518 929.032,-1170.3438"/>
<polygon fill="#000000" stroke="#000000" points="932.553,-1170.2826 930,-1160 925.5834,-1169.6304 932.553,-1170.2826"/>
<text text-anchor="middle" x="908.5" y="-1163.8" font-family="Times,serif" font-size="14.00" fill="#000000">string</text>
<text text-anchor="middle" x="712.5" y="-1270.8" font-family="Times,serif" font-size="14.00" fill="#000000">/string/3</text>
</g>
<!-- r18 -->
<g id="node5" class="node">
<title>r18</title>
<g id="a_node5"><a xlink:href="file:///home/travis/build/andrewdavidmackenzie/flow/flowstdlib/data/ordered_split/ordered_split.html" xlink:title="split_lower_right (#18)">
<ellipse fill="#ff7f50" stroke="#000000" cx="532" cy="-1142" rx="118.8789" ry="18"/>
<text text-anchor="middle" x="532" y="-1138.3" font-family="Times,serif" font-size="14.00" fill="#000000">split_lower_right (#18)</text>
</a>
</g>
</g>
<!-- r13&#45;&gt;r18 -->
<g id="edge4" class="edge">
<title>r13:se&#45;&gt;r18:n</title>
<path fill="none" stroke="#000000" d="M638,-1250C657.6311,-1230.3689 556.4254,-1198.3082 535.6655,-1169.5888"/>
<polygon fill="#000000" stroke="#000000" points="538.8401,-1168.091 532,-1160 532.3015,-1170.5905 538.8401,-1168.091"/>
<text text-anchor="middle" x="510.5" y="-1163.8" font-family="Times,serif" font-size="14.00" fill="#000000">string</text>
<text text-anchor="middle" x="668.5" y="-1253.8" font-family="Times,serif" font-size="14.00" fill="#000000">/string/4</text>
</g>
<!-- r5&#45;&gt;r5 -->
<g id="edge54" class="edge">
<title>r5:e&#45;&gt;r5:n</title>
<path fill="none" stroke="#000000" d="M323,-1142C347.2405,-1133 395.2405,-1133 395.2405,-1151 395.2405,-1168.0508 288.0174,-1168.9499 225.9243,-1161.3474"/>
<polygon fill="#000000" stroke="#000000" points="226.38,-1157.8773 216,-1160 225.4382,-1164.8136 226.38,-1157.8773"/>
</g>
<!-- r4 -->
<g id="node38" class="node">
<title>r4</title>
<g id="a_node38"><a xlink:href="file:///home/travis/build/andrewdavidmackenzie/flow/flowr/src/lib/flowruntime/image/image_buffer.html" xlink:title="image_buffer (#4)">
<ellipse fill="#ff7f50" stroke="#000000" cx="2523" cy="-34" rx="95.5831" ry="18"/>
<text text-anchor="middle" x="2523" y="-30.3" font-family="Times,serif" font-size="14.00" fill="#000000">image_buffer (#4)</text>
</a>
</g>
</g>
<!-- r5&#45;&gt;r4 -->
<g id="edge55" class="edge">
<title>r5:e&#45;&gt;r4:w</title>
<path fill="none" stroke="#000000" d="M323,-1142C331,-1142 327.6837,-1130.4856 323,-1124 234.4618,-1001.4002 0,-1168.2274 0,-1017 0,-1017 0,-1017 0,-89.5 0,-56.853 2243.7763,-35.3947 2416.8111,-34.0655"/>
<polygon fill="#000000" stroke="#000000" points="2417.0227,-37.5643 2427,-34 2416.9777,-30.5645 2417.0227,-37.5643"/>
<text text-anchor="middle" x="2396" y="-37.8" font-family="Times,serif" font-size="14.00" fill="#000000">filename</text>
</g>
<!-- r22 -->
<g id="node7" class="node">
<title>r22</title>
<g id="a_node7"><a xlink:href="file:///home/travis/build/andrewdavidmackenzie/flow/flowstdlib/fmt/to_json/to_json.html" xlink:title="size_to_json (#22)">
<ellipse fill="#ff7f50" stroke="#000000" cx="1809" cy="-944" rx="96.3833" ry="18"/>
<text text-anchor="middle" x="1809" y="-940.3" font-family="Times,serif" font-size="14.00" fill="#000000">size_to_json (#22)</text>
</a>
</g>
</g>
<!-- r17&#45;&gt;r22 -->
<g id="edge6" class="edge">
<title>r17:e&#45;&gt;r22:n</title>
<path fill="none" stroke="#000000" d="M1545,-1142C1683.5439,-1142 1803.0316,-1105.8432 1808.7834,-972.2161"/>
<polygon fill="#000000" stroke="#000000" points="1812.2871,-972.072 1809,-962 1805.2887,-971.9235 1812.2871,-972.072"/>
</g>
<!-- r21 -->
<g id="node16" class="node">
<title>r21</title>
<g id="a_node16"><a xlink:href="file:///home/travis/build/andrewdavidmackenzie/flow/flowstdlib/fmt/to_json/to_json.html" xlink:title="upper_left_to_json (#21)">
<ellipse fill="#ff7f50" stroke="#000000" cx="1043" cy="-944" rx="126.1777" ry="18"/>
<text text-anchor="middle" x="1043" y="-940.3" font-family="Times,serif" font-size="14.00" fill="#000000">upper_left_to_json (#21)</text>
</a>
</g>
</g>
<!-- r19&#45;&gt;r21 -->
<g id="edge16" class="edge">
<title>r19:e&#45;&gt;r21:n</title>
<path fill="none" stroke="#000000" d="M1043,-1142C1119.5625,-1142 1049.5796,-1050.4091 1043.4241,-972.4138"/>
<polygon fill="#000000" stroke="#000000" points="1046.9041,-971.8493 1043,-962 1039.9099,-972.1342 1046.9041,-971.8493"/>
</g>
<!-- r16 -->
<g id="node19" class="node">
<title>r16</title>
<g id="a_node19"><a xlink:href="file:///home/travis/build/andrewdavidmackenzie/flow/flowstdlib/fmt/to_json/to_json.html" xlink:title="lower_right_to_json (#16)">
<ellipse fill="#ff7f50" stroke="#000000" cx="477" cy="-944" rx="131.8766" ry="18"/>
<text text-anchor="middle" x="477" y="-940.3" font-family="Times,serif" font-size="14.00" fill="#000000">lower_right_to_json (#16)</text>
</a>
</g>
</g>
<!-- r18&#45;&gt;r16 -->
<g id="edge19" class="edge">
<title>r18:e&#45;&gt;r16:n</title>
<path fill="none" stroke="#000000" d="M651,-1142C659,-1142 654.1929,-1131.3352 651,-1124 610.2292,-1030.3351 485.6554,-1065.1211 477.4279,-972.0517"/>
<polygon fill="#000000" stroke="#000000" points="480.9222,-971.8421 477,-962 473.9286,-972.1398 480.9222,-971.8421"/>
</g>
<!-- initializerr17_1 -->
<!-- initializerr17_1&#45;&gt;r17 -->
<g id="edge5" class="edge">
<title>initializerr17_1&#45;&gt;r17:w</title>
<path fill="none" stroke="#0000ff" d="M1369.692,-1248.8239C1357.8853,-1217.2702 1338.6589,-1154.6628 1367.1234,-1143.6678"/>
<polygon fill="#0000ff" stroke="#0000ff" points="1367.7224,-1147.1163 1377,-1142 1366.5568,-1140.214 1367.7224,-1147.1163"/>
<text text-anchor="middle" x="1368" y="-1200.8" font-family="Times,serif" font-size="14.00" fill="#000000">&quot;x&quot;</text>
</g>
<!-- r20 -->
<g id="node8" class="node">
<title>r20</title>
<g id="a_node8"><a xlink:href="file:///home/travis/build/andrewdavidmackenzie/flow/flowstdlib/data/accumulate/accumulate.html" xlink:title="accumulate_size (#20)">
<ellipse fill="#ff7f50" stroke="#000000" cx="2059" cy="-805" rx="116.9792" ry="18"/>
<text text-anchor="middle" x="2059" y="-801.3" font-family="Times,serif" font-size="14.00" fill="#000000">accumulate_size (#20)</text>
</a>
</g>
</g>
<!-- r22&#45;&gt;r20 -->
<g id="edge7" class="edge">
<title>r22:e&#45;&gt;r20:n</title>
<path fill="none" stroke="#000000" d="M1906,-944C1910.6988,-944 2022.3063,-857.081 2051.8691,-830.4596"/>
<polygon fill="#000000" stroke="#000000" points="2054.62,-832.6471 2059,-823 2049.56,-827.8101 2054.62,-832.6471"/>
<text text-anchor="middle" x="2036" y="-826.8" font-family="Times,serif" font-size="14.00" fill="#000000">values</text>
</g>
<!-- r20&#45;&gt;r20 -->
<g id="edge10" class="edge">
<title>r20:e&#45;&gt;r20:ne</title>
<path fill="none" stroke="#000000" d="M2176,-805C2199.9896,-796 2247.9896,-796 2247.9896,-814 2247.9896,-831.0859 2150.6861,-831.9536 2086.9252,-824.3003"/>
<polygon fill="#000000" stroke="#000000" points="2087.3699,-820.8287 2077,-823 2086.4606,-827.7694 2087.3699,-820.8287"/>
<text text-anchor="middle" x="2101" y="-826.8" font-family="Times,serif" font-size="14.00" fill="#000000">partial</text>
<text text-anchor="middle" x="2202" y="-808.8" font-family="Times,serif" font-size="14.00" fill="#000000">/partial</text>
</g>
<!-- r7 -->
<g id="node11" class="node">
<title>r7</title>
<g id="a_node11"><a xlink:href="file:///home/travis/build/andrewdavidmackenzie/flow/flowstdlib/math/subtract/subtract.html" xlink:title="height (#7)">
<ellipse fill="#ff7f50" stroke="#000000" cx="2044" cy="-659" rx="63.8893" ry="18"/>
<text text-anchor="middle" x="2044" y="-655.3" font-family="Times,serif" font-size="14.00" fill="#000000">height (#7)</text>
</a>
</g>
</g>
<!-- r20&#45;&gt;r7 -->
<g id="edge11" class="edge">
<title>r20:sw&#45;&gt;r7:n</title>
<path fill="none" stroke="#000000" d="M2041,-787C2027.7857,-773.7857 2012.9933,-784.7914 2003,-769 1981.0254,-734.2757 2033.9441,-723.5001 2042.774,-687.3379"/>
<polygon fill="#000000" stroke="#000000" points="2046.2979,-687.3426 2044,-677 2039.3466,-686.5182 2046.2979,-687.3426"/>
<text text-anchor="middle" x="2037" y="-680.8" font-family="Times,serif" font-size="14.00" fill="#000000">i1</text>
<text text-anchor="middle" x="2009.5" y="-775.8" font-family="Times,serif" font-size="14.00" fill="#000000">/chunk/1</text>
</g>
<!-- r11 -->
<g id="node12" class="node">
<title>r11</title>
<g id="a_node12"><a xlink:href="file:///home/travis/build/andrewdavidmackenzie/flow/flowstdlib/control/join/join.html" xlink:title="width&#45;gate (#11)">
<ellipse fill="#ff7f50" stroke="#000000" cx="2269" cy="-659" rx="89.8845" ry="18"/>
<text text-anchor="middle" x="2269" y="-655.3" font-family="Times,serif" font-size="14.00" fill="#000000">width&#45;gate (#11)</text>
</a>
</g>
</g>
<!-- r20&#45;&gt;r11 -->
<g id="edge12" class="edge">
<title>r20:s&#45;&gt;r11:n</title>
<path fill="none" stroke="#000000" d="M2059,-787C2059,-760.857 2091.18,-779.7734 2115,-769 2184.3801,-737.6204 2261.7082,-754.9865 2268.5156,-687.1512"/>
<polygon fill="#000000" stroke="#000000" points="2272.0193,-687.1555 2269,-677 2265.0273,-686.8218 2272.0193,-687.1555"/>
<text text-anchor="middle" x="2253" y="-680.8" font-family="Times,serif" font-size="14.00" fill="#000000">data</text>
<text text-anchor="middle" x="2090.5" y="-775.8" font-family="Times,serif" font-size="14.00" fill="#000000">/chunk/0</text>
</g>
<!-- r2 -->
<g id="node13" class="node">
<title>r2</title>
<g id="a_node13"><a xlink:href="file:///home/travis/build/andrewdavidmackenzie/flow/flowstdlib/data/buffer/buffer.html" xlink:title="buffer_size (#2)">
<ellipse fill="#ff7f50" stroke="#000000" cx="1545" cy="-659" rx="85.2851" ry="18"/>
<text text-anchor="middle" x="1545" y="-655.3" font-family="Times,serif" font-size="14.00" fill="#000000">buffer_size (#2)</text>
</a>
</g>
</g>
<!-- r20&#45;&gt;r2 -->
<g id="edge13" class="edge">
<title>r20:s&#45;&gt;r2:n</title>
<path fill="none" stroke="#000000" d="M2059,-787C2059,-731.7897 1599.6815,-734.8546 1549.4436,-686.0182"/>
<polygon fill="#000000" stroke="#000000" points="1552.5595,-684.4232 1545,-677 1546.2804,-687.5172 1552.5595,-684.4232"/>
<text text-anchor="middle" x="2034.5" y="-775.8" font-family="Times,serif" font-size="14.00" fill="#000000">/chunk</text>
</g>
<!-- r6 -->
<g id="node14" class="node">
<title>r6</title>
<g id="a_node14"><a xlink:href="file:///home/travis/build/andrewdavidmackenzie/flow/flowstdlib/data/buffer/buffer.html" xlink:title="size_buffer (#6)">
<ellipse fill="#ff7f50" stroke="#000000" cx="1805" cy="-659" rx="85.2851" ry="18"/>
<text text-anchor="middle" x="1805" y="-655.3" font-family="Times,serif" font-size="14.00" fill="#000000">size_buffer (#6)</text>
</a>
</g>
</g>
<!-- r20&#45;&gt;r6 -->
<g id="edge14" class="edge">
<title>r20:s&#45;&gt;r6:n</title>
<path fill="none" stroke="#000000" d="M2059,-787C2059,-745.3359 2072.1343,-722.6868 2041,-695 2023.5359,-679.4697 1850.7334,-698.0956 1812.4743,-683.9786"/>
<polygon fill="#000000" stroke="#000000" points="1814.6979,-681.2663 1805,-677 1809.9207,-686.3828 1814.6979,-681.2663"/>
<text text-anchor="middle" x="2034.5" y="-790.8" font-family="Times,serif" font-size="14.00" fill="#000000">/chunk</text>
</g>
<!-- initializerr20_1 -->
<!-- initializerr20_1&#45;&gt;r20 -->
<g id="edge8" class="edge">
<title>initializerr20_1&#45;&gt;r20:n</title>
<path fill="none" stroke="#0000ff" stroke-dasharray="1,5" d="M2259.4129,-927.7589C2202.4978,-901.5543 2094.4916,-850.8106 2066.0225,-830.2694"/>
<polygon fill="#0000ff" stroke="#0000ff" points="2068.4652,-827.7604 2059,-823 2063.4306,-832.624 2068.4652,-827.7604"/>
<text text-anchor="middle" x="2178.5" y="-877.8" font-family="Times,serif" font-size="14.00" fill="#000000">[]</text>
</g>
<!-- initializerr20_2 -->
<!-- initializerr20_2&#45;&gt;r20 -->
<g id="edge9" class="edge">
<title>initializerr20_2&#45;&gt;r20:n</title>
<path fill="none" stroke="#0000ff" d="M2059,-925.96C2059,-904.5319 2059,-867.4021 2059,-833.4232"/>
<polygon fill="#0000ff" stroke="#0000ff" points="2062.5001,-833 2059,-823 2055.5001,-833 2062.5001,-833"/>
<text text-anchor="middle" x="2064" y="-877.8" font-family="Times,serif" font-size="14.00" fill="#000000">2</text>
</g>
<!-- r10 -->
<g id="node30" class="node">
<title>r10</title>
<g id="a_node30"><a xlink:href="file:///home/travis/build/andrewdavidmackenzie/flow/flowstdlib/control/compare_switch/compare_switch.html" xlink:title="compare (#10)">
<ellipse fill="#ff7f50" stroke="#000000" cx="2650" cy="-732" rx="80.6858" ry="18"/>
<text text-anchor="middle" x="2650" y="-728.3" font-family="Times,serif" font-size="14.00" fill="#000000">compare (#10)</text>
</a>
</g>
</g>
<!-- r7&#45;&gt;r10 -->
<g id="edge34" class="edge">
<title>r7:se&#45;&gt;r10:n</title>
<path fill="none" stroke="#000000" d="M2062,-641C2076.3603,-626.6397 2088.9153,-633.2679 2107.6943,-641 2128.7066,-649.6516 2123.1955,-667.86 2144,-677 2173.8954,-690.1339 2708.6135,-689.8517 2730.5928,-714 2730.5928,-714 2680.4142,-736.4143 2659.245,-745.8703"/>
<polygon fill="#000000" stroke="#000000" points="2657.703,-742.7258 2650,-750 2660.558,-749.1171 2657.703,-742.7258"/>
<text text-anchor="middle" x="2637.5" y="-753.8" font-family="Times,serif" font-size="14.00" fill="#000000">left</text>
<text text-anchor="middle" x="2047.5" y="-629.8" font-family="Times,serif" font-size="14.00" fill="#000000">/diff</text>
</g>
<!-- r11&#45;&gt;r11 -->
<g id="edge43" class="edge">
<title>r11:e&#45;&gt;r11:n</title>
<path fill="none" stroke="#000000" d="M2359,-659C2382.692,-650 2430.692,-650 2430.692,-668 2430.692,-684.9453 2335.1595,-685.9382 2278.9967,-678.4875"/>
<polygon fill="#000000" stroke="#000000" points="2279.4063,-675.01 2269,-677 2278.3759,-681.9338 2279.4063,-675.01"/>
<text text-anchor="middle" x="2285" y="-680.8" font-family="Times,serif" font-size="14.00" fill="#000000">data</text>
</g>
<!-- r12 -->
<g id="node32" class="node">
<title>r12</title>
<g id="a_node32"><a xlink:href="file:///home/travis/build/andrewdavidmackenzie/flow/flowstdlib/data/duplicate/duplicate.html" xlink:title="y&#45;duplicator (#12)">
<ellipse fill="#ff7f50" stroke="#000000" cx="2665" cy="-461" rx="96.3833" ry="18"/>
<text text-anchor="middle" x="2665" y="-457.3" font-family="Times,serif" font-size="14.00" fill="#000000">y&#45;duplicator (#12)</text>
</a>
</g>
</g>
<!-- r11&#45;&gt;r12 -->
<g id="edge44" class="edge">
<title>r11:e&#45;&gt;r12:ne</title>
<path fill="none" stroke="#000000" d="M2359,-659C2503.9277,-659 2512.5775,-562.2217 2642,-497 2652.8297,-491.5424 2670.9111,-491.2777 2680.2004,-488.7193"/>
<polygon fill="#000000" stroke="#000000" points="2683.5953,-489.5781 2683,-479 2676.8687,-487.6405 2683.5953,-489.5781"/>
<text text-anchor="middle" x="2661.5" y="-482.8" font-family="Times,serif" font-size="14.00" fill="#000000">factor</text>
</g>
<!-- r2&#45;&gt;r2 -->
<g id="edge50" class="edge">
<title>r2:e&#45;&gt;r2:n</title>
<path fill="none" stroke="#000000" d="M1631,-659C1654.1424,-650 1702.1424,-650 1702.1424,-668 1702.1424,-684.9102 1609.6827,-685.934 1555.0557,-678.5338"/>
<polygon fill="#000000" stroke="#000000" points="1555.4134,-675.048 1545,-677 1554.3579,-681.9679 1555.4134,-675.048"/>
</g>
<!-- r0 -->
<g id="node36" class="node">
<title>r0</title>
<g id="a_node36"><a xlink:href="file:///home/travis/build/andrewdavidmackenzie/flow/samples/mandlebrot/pixel_to_point/pixel_to_point.html" xlink:title="p2p (#0)">
<ellipse fill="#ff7f50" stroke="#000000" cx="2453" cy="-239" rx="51.9908" ry="18"/>
<text text-anchor="middle" x="2453" y="-235.3" font-family="Times,serif" font-size="14.00" fill="#000000">p2p (#0)</text>
</a>
</g>
</g>
<!-- r2&#45;&gt;r0 -->
<g id="edge51" class="edge">
<title>r2:e&#45;&gt;r0:nw</title>
<path fill="none" stroke="#000000" d="M1631,-659C1633.5548,-659 1804,-599.0548 1804,-596.5 1804,-596.5 1804,-596.5 1804,-294.5 1804,-157.093 2311.8379,-346.2268 2428.3032,-262.5076"/>
<polygon fill="#000000" stroke="#000000" points="2430.6234,-265.1292 2436,-256 2426.1038,-259.7838 2430.6234,-265.1292"/>
<text text-anchor="middle" x="2422" y="-259.8" font-family="Times,serif" font-size="14.00" fill="#000000">size</text>
</g>
<!-- r6&#45;&gt;r6 -->
<g id="edge56" class="edge">
<title>r6:e&#45;&gt;r6:n</title>
<path fill="none" stroke="#000000" d="M1891,-659C1914.1424,-650 1962.1424,-650 1962.1424,-668 1962.1424,-684.9102 1869.6827,-685.934 1815.0557,-678.5338"/>
<polygon fill="#000000" stroke="#000000" points="1815.4134,-675.048 1805,-677 1814.3579,-681.9679 1815.4134,-675.048"/>
</g>
<!-- r6&#45;&gt;r4 -->
<g id="edge57" class="edge">
<title>r6:e&#45;&gt;r4:nw</title>
<path fill="none" stroke="#000000" d="M1891,-659C1915.877,-659 1919.8353,-646.9105 1944,-641 2174.4005,-584.6459 2783.2899,-577.6375 2999,-479 3032.9767,-463.4635 3063,-461.8604 3063,-424.5 3063,-424.5 3063,-424.5 3063,-89.5 3063,-33.1858 2568.6337,-84.2298 2508.6439,-61.5916"/>
<polygon fill="#000000" stroke="#000000" points="2511.8233,-60.1052 2505,-52 2505.2796,-62.5912 2511.8233,-60.1052"/>
<text text-anchor="middle" x="2491" y="-55.8" font-family="Times,serif" font-size="14.00" fill="#000000">size</text>
</g>
<!-- initializerr19_1 -->
<!-- initializerr19_1&#45;&gt;r19 -->
<g id="edge15" class="edge">
<title>initializerr19_1&#45;&gt;r19:w</title>
<path fill="none" stroke="#0000ff" d="M825.1385,-1249.0905C808.7629,-1217.7673 780.2704,-1155.2651 806.8937,-1143.8213"/>
<polygon fill="#0000ff" stroke="#0000ff" points="807.7793,-1147.2182 817,-1142 806.5378,-1140.3291 807.7793,-1147.2182"/>
<text text-anchor="middle" x="816.5" y="-1200.8" font-family="Times,serif" font-size="14.00" fill="#000000">&quot;,&quot;</text>
</g>
<!-- r15 -->
<g id="node17" class="node">
<title>r15</title>
<g id="a_node17"><a xlink:href="file:///home/travis/build/andrewdavidmackenzie/flow/flowstdlib/data/accumulate/accumulate.html" xlink:title="accumulate_upper_left (#15)">
<ellipse fill="#ff7f50" stroke="#000000" cx="1245" cy="-805" rx="146.774" ry="18"/>
<text text-anchor="middle" x="1245" y="-801.3" font-family="Times,serif" font-size="14.00" fill="#000000">accumulate_upper_left (#15)</text>
</a>
</g>
</g>
<!-- r21&#45;&gt;r15 -->
<g id="edge17" class="edge">
<title>r21:e&#45;&gt;r15:n</title>
<path fill="none" stroke="#000000" d="M1169,-944C1221.9784,-944 1197.9142,-883.8997 1229,-841 1232.5328,-836.1246 1237.1537,-834.4254 1240.5208,-831.9668"/>
<polygon fill="#000000" stroke="#000000" points="1243.6622,-833.51 1245,-823 1237.4001,-830.3818 1243.6622,-833.51"/>
<text text-anchor="middle" x="1222" y="-826.8" font-family="Times,serif" font-size="14.00" fill="#000000">values</text>
</g>
<!-- r15&#45;&gt;r15 -->
<g id="edge23" class="edge">
<title>r15:e&#45;&gt;r15:ne</title>
<path fill="none" stroke="#000000" d="M1392,-805C1415.887,-796 1463.887,-796 1463.887,-814 1463.887,-831.1914 1347.1974,-831.9637 1273.149,-824.1576"/>
<polygon fill="#000000" stroke="#000000" points="1273.3322,-820.6559 1263,-823 1272.5389,-827.6108 1273.3322,-820.6559"/>
<text text-anchor="middle" x="1287" y="-826.8" font-family="Times,serif" font-size="14.00" fill="#000000">partial</text>
<text text-anchor="middle" x="1418" y="-808.8" font-family="Times,serif" font-size="14.00" fill="#000000">/partial</text>
</g>
<!-- r23 -->
<g id="node23" class="node">
<title>r23</title>
<g id="a_node23"><a xlink:href="file:///home/travis/build/andrewdavidmackenzie/flow/flowstdlib/data/accumulate/accumulate.html" xlink:title="accumulate_bounds (#23)">
<ellipse fill="#ff7f50" stroke="#000000" cx="763" cy="-659" rx="132.6765" ry="18"/>
<text text-anchor="middle" x="763" y="-655.3" font-family="Times,serif" font-size="14.00" fill="#000000">accumulate_bounds (#23)</text>
</a>
</g>
</g>
<!-- r15&#45;&gt;r23 -->
<g id="edge24" class="edge">
<title>r15:s&#45;&gt;r23:n</title>
<path fill="none" stroke="#000000" d="M1245,-787C1245,-735.2862 817.8296,-732.1365 767.7705,-686.1138"/>
<polygon fill="#000000" stroke="#000000" points="770.7385,-684.2365 763,-677 764.5367,-687.4828 770.7385,-684.2365"/>
<text text-anchor="middle" x="740" y="-680.8" font-family="Times,serif" font-size="14.00" fill="#000000">values</text>
<text text-anchor="middle" x="1220.5" y="-775.8" font-family="Times,serif" font-size="14.00" fill="#000000">/chunk</text>
</g>
<!-- initializerr18_1 -->
<!-- initializerr18_1&#45;&gt;r18 -->
<g id="edge18" class="edge">
<title>initializerr18_1&#45;&gt;r18:w</title>
<path fill="none" stroke="#0000ff" d="M400.556,-1248.8239C390.2503,-1217.2702 374.0069,-1154.6628 403.032,-1143.6678"/>
<polygon fill="#0000ff" stroke="#0000ff" points="403.7147,-1147.1023 413,-1142 402.5595,-1140.1983 403.7147,-1147.1023"/>
<text text-anchor="middle" x="399.5" y="-1200.8" font-family="Times,serif" font-size="14.00" fill="#000000">&quot;,&quot;</text>
</g>
<!-- r14 -->
<g id="node20" class="node">
<title>r14</title>
<g id="a_node20"><a xlink:href="file:///home/travis/build/andrewdavidmackenzie/flow/flowstdlib/data/accumulate/accumulate.html" xlink:title="accumulate_lower_right (#14)">
<ellipse fill="#ff7f50" stroke="#000000" cx="763" cy="-805" rx="152.9733" ry="18"/>
<text text-anchor="middle" x="763" y="-801.3" font-family="Times,serif" font-size="14.00" fill="#000000">accumulate_lower_right (#14)</text>
</a>
</g>
</g>
<!-- r16&#45;&gt;r14 -->
<g id="edge20" class="edge">
<title>r16:e&#45;&gt;r14:n</title>
<path fill="none" stroke="#000000" d="M609,-944C613.7177,-944 726.0633,-857.0974 755.8219,-830.4662"/>
<polygon fill="#000000" stroke="#000000" points="758.5924,-832.6345 763,-823 753.5463,-827.7831 758.5924,-832.6345"/>
<text text-anchor="middle" x="740" y="-826.8" font-family="Times,serif" font-size="14.00" fill="#000000">values</text>
</g>
<!-- r14&#45;&gt;r14 -->
<g id="edge27" class="edge">
<title>r14:e&#45;&gt;r14:ne</title>
<path fill="none" stroke="#000000" d="M916,-805C939.7364,-796 987.7364,-796 987.7364,-814 987.7364,-831.2266 866.9974,-831.9668 790.9569,-824.1096"/>
<polygon fill="#000000" stroke="#000000" points="791.3261,-820.6292 781,-823 790.5508,-827.5861 791.3261,-820.6292"/>
<text text-anchor="middle" x="805" y="-826.8" font-family="Times,serif" font-size="14.00" fill="#000000">partial</text>
<text text-anchor="middle" x="942" y="-808.8" font-family="Times,serif" font-size="14.00" fill="#000000">/partial</text>
</g>
<!-- r14&#45;&gt;r23 -->
<g id="edge28" class="edge">
<title>r14:s&#45;&gt;r23:n</title>
<path fill="none" stroke="#000000" d="M763,-787C763,-741.6441 763,-727.8469 763,-687.0522"/>
<polygon fill="#000000" stroke="#000000" points="766.5001,-687 763,-677 759.5001,-687 766.5001,-687"/>
<text text-anchor="middle" x="786" y="-680.8" font-family="Times,serif" font-size="14.00" fill="#000000">values</text>
<text text-anchor="middle" x="738.5" y="-775.8" font-family="Times,serif" font-size="14.00" fill="#000000">/chunk</text>
</g>
<!-- initializerr15_1 -->
<!-- initializerr15_1&#45;&gt;r15 -->
<g id="edge21" class="edge">
<title>initializerr15_1&#45;&gt;r15:n</title>
<path fill="none" stroke="#0000ff" stroke-dasharray="1,5" d="M1513.677,-928.9772C1437.2507,-903.3609 1287.6209,-851.8945 1252.5031,-830.1499"/>
<polygon fill="#0000ff" stroke="#0000ff" points="1254.654,-827.3648 1245,-823 1249.825,-832.4324 1254.654,-827.3648"/>
<text text-anchor="middle" x="1401.5" y="-877.8" font-family="Times,serif" font-size="14.00" fill="#000000">[]</text>
</g>
<!-- initializerr15_2 -->
<!-- initializerr15_2&#45;&gt;r15 -->
<g id="edge22" class="edge">
<title>initializerr15_2&#45;&gt;r15:n</title>
<path fill="none" stroke="#0000ff" d="M1302.0974,-926.2092C1280.8882,-906.2273 1250.5037,-871.5532 1245.6615,-833.3255"/>
<polygon fill="#0000ff" stroke="#0000ff" points="1249.1322,-832.7558 1245,-823 1242.1465,-833.2033 1249.1322,-832.7558"/>
<text text-anchor="middle" x="1273" y="-877.8" font-family="Times,serif" font-size="14.00" fill="#000000">2</text>
</g>
<!-- r23&#45;&gt;r23 -->
<g id="edge31" class="edge">
<title>r23:e&#45;&gt;r23:ne</title>
<path fill="none" stroke="#000000" d="M896,-659C919.5882,-650 967.5882,-650 967.5882,-668 967.5882,-685.1211 860.4755,-685.9571 791.3291,-678.2529"/>
<polygon fill="#000000" stroke="#000000" points="791.3487,-674.7297 781,-677 790.5057,-681.6788 791.3487,-674.7297"/>
<text text-anchor="middle" x="805" y="-680.8" font-family="Times,serif" font-size="14.00" fill="#000000">partial</text>
<text text-anchor="middle" x="922" y="-662.8" font-family="Times,serif" font-size="14.00" fill="#000000">/partial</text>
</g>
<!-- r1 -->
<g id="node28" class="node">
<title>r1</title>
<g id="a_node28"><a xlink:href="file:///home/travis/build/andrewdavidmackenzie/flow/flowstdlib/data/buffer/buffer.html" xlink:title="buffer_bounds (#1)">
<ellipse fill="#ff7f50" stroke="#000000" cx="1315" cy="-534" rx="100.9827" ry="18"/>
<text text-anchor="middle" x="1315" y="-530.3" font-family="Times,serif" font-size="14.00" fill="#000000">buffer_bounds (#1)</text>
</a>
</g>
</g>
<!-- r23&#45;&gt;r1 -->
<g id="edge32" class="edge">
<title>r23:s&#45;&gt;r1:n</title>
<path fill="none" stroke="#000000" d="M763,-641C763,-396.0171 1299.4779,-789.0785 1314.6711,-562.1653"/>
<polygon fill="#000000" stroke="#000000" points="1318.1747,-562.108 1315,-552 1311.1783,-561.8815 1318.1747,-562.108"/>
<text text-anchor="middle" x="738.5" y="-629.8" font-family="Times,serif" font-size="14.00" fill="#000000">/chunk</text>
</g>
<!-- initializerr14_1 -->
<!-- initializerr14_1&#45;&gt;r14 -->
<g id="edge25" class="edge">
<title>initializerr14_1&#45;&gt;r14:n</title>
<path fill="none" stroke="#0000ff" stroke-dasharray="1,5" d="M253.8502,-932.3471C388.51,-907.1886 697.2581,-848.4141 753.9648,-828.018"/>
<polygon fill="#0000ff" stroke="#0000ff" points="755.9571,-830.9151 763,-823 752.5584,-824.7955 755.9571,-830.9151"/>
<text text-anchor="middle" x="557.5" y="-877.8" font-family="Times,serif" font-size="14.00" fill="#000000">[]</text>
</g>
<!-- initializerr14_2 -->
<!-- initializerr14_2&#45;&gt;r14 -->
<g id="edge26" class="edge">
<title>initializerr14_2&#45;&gt;r14:n</title>
<path fill="none" stroke="#0000ff" d="M763,-925.96C763,-904.5319 763,-867.4021 763,-833.4232"/>
<polygon fill="#0000ff" stroke="#0000ff" points="766.5001,-833 763,-823 759.5001,-833 766.5001,-833"/>
<text text-anchor="middle" x="768" y="-877.8" font-family="Times,serif" font-size="14.00" fill="#000000">2</text>
</g>
<!-- initializerr23_1 -->
<!-- initializerr23_1&#45;&gt;r23 -->
<g id="edge29" class="edge">
<title>initializerr23_1&#45;&gt;r23:n</title>
<path fill="none" stroke="#0000ff" stroke-dasharray="1,5" d="M498.687,-789.5336C572.8273,-762.4012 720.8184,-706.9617 755.5728,-684.3275"/>
<polygon fill="#0000ff" stroke="#0000ff" points="758.3393,-686.5147 763,-677 753.4232,-681.5316 758.3393,-686.5147"/>
<text text-anchor="middle" x="697.5" y="-728.3" font-family="Times,serif" font-size="14.00" fill="#000000">[]</text>
</g>
<!-- initializerr23_2 -->
<!-- initializerr23_2&#45;&gt;r23 -->
<g id="edge30" class="edge">
<title>initializerr23_2&#45;&gt;r23:n</title>
<path fill="none" stroke="#0000ff" d="M271.371,-790.9229C340.3805,-772.2298 466.9664,-738.7026 576,-714 584.9164,-711.9799 717.8007,-693.7657 753.9696,-682.0096"/>
<polygon fill="#0000ff" stroke="#0000ff" points="755.9533,-684.9117 763,-677 752.5575,-678.7904 755.9533,-684.9117"/>
<text text-anchor="middle" x="581" y="-728.3" font-family="Times,serif" font-size="14.00" fill="#000000">2</text>
</g>
<!-- r1&#45;&gt;r1 -->
<g id="edge48" class="edge">
<title>r1:e&#45;&gt;r1:n</title>
<path fill="none" stroke="#000000" d="M1416,-534C1439.7411,-525 1487.7411,-525 1487.7411,-543 1487.7411,-560.0156 1384.8316,-560.9462 1324.9351,-553.3943"/>
<polygon fill="#000000" stroke="#000000" points="1325.3894,-549.9239 1315,-552 1324.4165,-556.8559 1325.3894,-549.9239"/>
</g>
<!-- r1&#45;&gt;r0 -->
<g id="edge49" class="edge">
<title>r1:e&#45;&gt;r0:n</title>
<path fill="none" stroke="#000000" d="M1416,-534C1472.1713,-534 1658,-517.1713 1658,-461 1658,-461 1658,-461 1658,-386.5 1658,-32.0057 2437.5485,-603.6257 2452.774,-267.2195"/>
<polygon fill="#000000" stroke="#000000" points="2456.278,-267.075 2453,-257 2449.2797,-266.9202 2456.278,-267.075"/>
<text text-anchor="middle" x="2479" y="-260.8" font-family="Times,serif" font-size="14.00" fill="#000000">bounds</text>
</g>
<!-- initializerr7_1 -->
<!-- initializerr7_1&#45;&gt;r7 -->
<g id="edge33" class="edge">
<title>initializerr7_1&#45;&gt;r7:w</title>
<path fill="none" stroke="#0000ff" stroke-dasharray="1,5" d="M2466.6618,-999.025C2455.0666,-979.7375 2434.984,-948.805 2413,-926 2282.8728,-791.013 2235.5636,-760.818 2060,-695 2025.8748,-682.2066 2002.7667,-705.4583 1980,-677 1978.0478,-674.5598 1976.4001,-671.2794 1975.5937,-668.1876"/>
<polygon fill="#0000ff" stroke="#0000ff" points="1978.8314,-669.5302 1980,-659 1972.5198,-666.5031 1978.8314,-669.5302"/>
<text text-anchor="middle" x="2346" y="-844.8" font-family="Times,serif" font-size="14.00" fill="#000000">1</text>
</g>
<!-- r10&#45;&gt;r11 -->
<g id="edge36" class="edge">
<title>r10:e&#45;&gt;r11:ne</title>
<path fill="none" stroke="#000000" d="M2731,-732C2769.4281,-732 2846.5979,-720.6107 2624,-695 2589.2945,-691.007 2349.7683,-701.8447 2295.7422,-681.9045"/>
<polygon fill="#000000" stroke="#000000" points="2297.4338,-678.8404 2287,-677 2294.0088,-684.9453 2297.4338,-678.8404"/>
<text text-anchor="middle" x="2313" y="-680.8" font-family="Times,serif" font-size="14.00" fill="#000000">control</text>
<text text-anchor="middle" x="2763" y="-735.8" font-family="Times,serif" font-size="14.00" fill="#000000">/right&#45;lte</text>
</g>
<!-- r10&#45;&gt;r10 -->
<g id="edge38" class="edge">
<title>r10:s&#45;&gt;r10:n</title>
<path fill="none" stroke="#000000" d="M2650,-714C2700.8643,-705 2802.5928,-705 2802.5928,-732 2802.5928,-757.3125 2713.183,-758.8945 2660.0959,-751.5776"/>
<polygon fill="#000000" stroke="#000000" points="2660.4205,-748.086 2650,-750 2659.3397,-755.002 2660.4205,-748.086"/>
<text text-anchor="middle" x="2662.5" y="-753.8" font-family="Times,serif" font-size="14.00" fill="#000000">left</text>
<text text-anchor="middle" x="2625.5" y="-702.8" font-family="Times,serif" font-size="14.00" fill="#000000">/left&#45;gt</text>
</g>
<!-- r10&#45;&gt;r12 -->
<g id="edge37" class="edge">
<title>r10:e&#45;&gt;r12:n</title>
<path fill="none" stroke="#000000" d="M2731,-732C2739,-732 2733.566,-721.5773 2731,-714 2714.5767,-665.5031 2661,-673.7023 2661,-622.5 2661,-622.5 2661,-622.5 2661,-534 2661,-513.3205 2663.8477,-505.8307 2664.7375,-489.273"/>
<polygon fill="#000000" stroke="#000000" points="2668.2434,-489.0862 2665,-479 2661.2457,-488.9073 2668.2434,-489.0862"/>
<text text-anchor="middle" x="2684.5" y="-482.8" font-family="Times,serif" font-size="14.00" fill="#000000">value</text>
<text text-anchor="middle" x="2763" y="-720.8" font-family="Times,serif" font-size="14.00" fill="#000000">/right&#45;lte</text>
</g>
<!-- r9 -->
<g id="node33" class="node">
<title>r9</title>
<g id="a_node33"><a xlink:href="file:///home/travis/build/andrewdavidmackenzie/flow/flowstdlib/math/add/add.html" xlink:title="add (#9)">
<ellipse fill="#ff7f50" stroke="#000000" cx="2885" cy="-461" rx="51.1914" ry="18"/>
<text text-anchor="middle" x="2885" y="-457.3" font-family="Times,serif" font-size="14.00" fill="#000000">add (#9)</text>
</a>
</g>
</g>
<!-- r10&#45;&gt;r9 -->
<g id="edge39" class="edge">
<title>r10:e&#45;&gt;r9:n</title>
<path fill="none" stroke="#000000" d="M2731,-732C2763.4931,-732 2735,-691.4931 2735,-659 2735,-659 2735,-659 2735,-534 2735,-501.5282 2767.6966,-508.6673 2798,-497 2813.1137,-491.1809 2861.9749,-496.0815 2879.0464,-487.1326"/>
<polygon fill="#000000" stroke="#000000" points="2881.9171,-489.1364 2885,-479 2876.2688,-485.0015 2881.9171,-489.1364"/>
<text text-anchor="middle" x="2878" y="-482.8" font-family="Times,serif" font-size="14.00" fill="#000000">i1</text>
<text text-anchor="middle" x="2703.5" y="-735.8" font-family="Times,serif" font-size="14.00" fill="#000000">/right&#45;lt</text>
</g>
<!-- initializerr10_1 -->
<!-- initializerr10_1&#45;&gt;r10 -->
<g id="edge35" class="edge">
<title>initializerr10_1&#45;&gt;r10:ne</title>
<path fill="none" stroke="#0000ff" stroke-dasharray="1,5" d="M2699.2102,-999.0731C2693.5945,-984.5195 2687,-963.3168 2687,-944 2687,-944 2687,-944 2687,-805 2687,-788.4061 2688.4265,-783.2989 2682,-768 2679.7921,-762.744 2677.906,-759.9732 2675.4027,-757.2793"/>
<polygon fill="#0000ff" stroke="#0000ff" points="2677.5843,-754.5159 2668,-750 2672.6762,-759.507 2677.5843,-754.5159"/>
<text text-anchor="middle" x="2692" y="-877.8" font-family="Times,serif" font-size="14.00" fill="#000000">0</text>
</g>
<!-- r8 -->
<g id="node35" class="node">
<title>r8</title>
<g id="a_node35"><a xlink:href="file:///home/travis/build/andrewdavidmackenzie/flow/flowstdlib/data/enumerate/enumerate.html" xlink:title="enumerate (#8)">
<ellipse fill="#ff7f50" stroke="#000000" cx="2623" cy="-350" rx="84.485" ry="18"/>
<text text-anchor="middle" x="2623" y="-346.3" font-family="Times,serif" font-size="14.00" fill="#000000">enumerate (#8)</text>
</a>
</g>
</g>
<!-- r12&#45;&gt;r8 -->
<g id="edge45" class="edge">
<title>r12:e&#45;&gt;r8:n</title>
<path fill="none" stroke="#000000" d="M2762,-461C2770,-461 2766.0993,-449.8699 2762,-443 2727.9267,-385.8983 2633.6799,-432.6677 2623.8346,-378.0923"/>
<polygon fill="#000000" stroke="#000000" points="2627.3123,-377.6775 2623,-368 2620.3362,-378.2545 2627.3123,-377.6775"/>
</g>
<!-- r9&#45;&gt;r10 -->
<g id="edge42" class="edge">
<title>r9:se&#45;&gt;r10:ne</title>
<path fill="none" stroke="#000000" d="M2902,-444C2902,-444 2936.3454,-479 2936.3454,-479 2908.4623,-544.1208 2864.4543,-533.0544 2821,-589 2770.6594,-653.8115 2801.4172,-708.5437 2730.5928,-750 2721.027,-755.5993 2693.2053,-758.5204 2677.3204,-754.499"/>
<polygon fill="#000000" stroke="#000000" points="2678.5272,-751.1952 2668,-750 2675.4842,-757.4992 2678.5272,-751.1952"/>
<text text-anchor="middle" x="2686" y="-753.8" font-family="Times,serif" font-size="14.00" fill="#000000">right</text>
<text text-anchor="middle" x="2919.5" y="-432.8" font-family="Times,serif" font-size="14.00" fill="#000000">/sum</text>
</g>
<!-- r9&#45;&gt;r9 -->
<g id="edge41" class="edge">
<title>r9:se&#45;&gt;r9:ne</title>
<path fill="none" stroke="#000000" d="M2902,-444C2943.1151,-435 3008.3454,-435 3008.3454,-461 3008.3454,-484.9688 2952.9092,-486.8413 2912.0353,-479.9365"/>
<polygon fill="#000000" stroke="#000000" points="2912.482,-476.4582 2902,-478 2911.1557,-483.3314 2912.482,-476.4582"/>
<text text-anchor="middle" x="2895" y="-481.8" font-family="Times,serif" font-size="14.00" fill="#000000">i2</text>
<text text-anchor="middle" x="2892.5" y="-432.8" font-family="Times,serif" font-size="14.00" fill="#000000">/i2</text>
</g>
<!-- initializerr9_1 -->
<!-- initializerr9_1&#45;&gt;r9 -->
<g id="edge40" class="edge">
<title>initializerr9_1&#45;&gt;r9:w</title>
<path fill="none" stroke="#0000ff" stroke-dasharray="1,5" d="M2888.7903,-713.7981C2863.9735,-657.7836 2793.2307,-490.2045 2823.1385,-464.3621"/>
<polygon fill="#0000ff" stroke="#0000ff" points="2824.6644,-467.5398 2833,-461 2822.4055,-460.9143 2824.6644,-467.5398"/>
<text text-anchor="middle" x="2849" y="-592.8" font-family="Times,serif" font-size="14.00" fill="#000000">1</text>
</g>
<!-- r8&#45;&gt;r0 -->
<g id="edge46" class="edge">
<title>r8:e&#45;&gt;r0:ne</title>
<path fill="none" stroke="#000000" d="M2708,-350C2716,-350 2712.7187,-338.4602 2708,-332 2644.5517,-245.1345 2554.3635,-328.9332 2477.405,-262.8716"/>
<polygon fill="#000000" stroke="#000000" points="2479.7109,-260.2367 2470,-256 2474.9494,-265.3677 2479.7109,-260.2367"/>
<text text-anchor="middle" x="2487.5" y="-244.8" font-family="Times,serif" font-size="14.00" fill="#000000">pixel</text>
</g>
<!-- r3 -->
<g id="node37" class="node">
<title>r3</title>
<g id="a_node37"><a xlink:href="file:///home/travis/build/andrewdavidmackenzie/flow/samples/mandlebrot/render_pixel/render_pixel.html" xlink:title="p2v (#3)">
<ellipse fill="#ff7f50" stroke="#000000" cx="2505" cy="-145" rx="51.1914" ry="18"/>
<text text-anchor="middle" x="2505" y="-141.3" font-family="Times,serif" font-size="14.00" fill="#000000">p2v (#3)</text>
</a>
</g>
</g>
<!-- r0&#45;&gt;r3 -->
<g id="edge47" class="edge">
<title>r0:e&#45;&gt;r3:n</title>
<path fill="none" stroke="#000000" d="M2505,-239C2535.4792,-239 2510.953,-204.6216 2505.872,-173.0902"/>
<polygon fill="#000000" stroke="#000000" points="2509.3481,-172.6615 2505,-163 2502.3741,-173.2642 2509.3481,-172.6615"/>
<text text-anchor="middle" x="2465.5" y="-166.8" font-family="Times,serif" font-size="14.00" fill="#000000">pixel_point</text>
</g>
<!-- r3&#45;&gt;r4 -->
<g id="edge52" class="edge">
<title>r3:s&#45;&gt;r4:n</title>
<path fill="none" stroke="#000000" d="M2505,-127C2505,-96.4695 2519.2778,-88.0217 2522.4011,-62.3218"/>
<polygon fill="#000000" stroke="#000000" points="2525.9148,-62.186 2523,-52 2518.9265,-61.7804 2525.9148,-62.186"/>
<text text-anchor="middle" x="2540.5" y="-55.8" font-family="Times,serif" font-size="14.00" fill="#000000">pixel</text>
<text text-anchor="middle" x="2498" y="-115.8" font-family="Times,serif" font-size="14.00" fill="#000000">/0</text>
</g>
<!-- r3&#45;&gt;r4 -->
<g id="edge53" class="edge">
<title>r3:sw&#45;&gt;r4:ne</title>
<path fill="none" stroke="#000000" d="M2488,-128C2461.9524,-101.9524 2548.2159,-84.9918 2545.8589,-60.861"/>
<polygon fill="#000000" stroke="#000000" points="2548.877,-59.0855 2541,-52 2542.7392,-62.4511 2548.877,-59.0855"/>
<text text-anchor="middle" x="2560.5" y="-55.8" font-family="Times,serif" font-size="14.00" fill="#000000">value</text>
<text text-anchor="middle" x="2481" y="-116.8" font-family="Times,serif" font-size="14.00" fill="#000000">/1</text>
</g>
</g>
</svg>
