<?xml version="1.0" encoding="UTF-8" standalone="no"?>
<!DOCTYPE svg PUBLIC "-//W3C//DTD SVG 1.1//EN"
 "http://www.w3.org/Graphics/SVG/1.1/DTD/svg11.dtd">
<!-- Generated by graphviz version 2.40.1 (20161225.0304)
 -->
<!-- Title: mandlebrot Pages: 1 -->
<svg width="3010pt" height="1355pt"
 viewBox="0.00 0.00 3010.00 1355.00" xmlns="http://www.w3.org/2000/svg" xmlns:xlink="http://www.w3.org/1999/xlink">
<g id="graph0" class="graph" transform="scale(1 1) rotate(0) translate(4 1351)">
<title>mandlebrot</title>
<polygon fill="#ffffff" stroke="transparent" points="-4,4 -4,-1351 3006,-1351 3006,4 -4,4"/>
<text text-anchor="middle" x="1501" y="-1331.8" font-family="Times,serif" font-size="14.00" fill="#000000">/mandlebrot</text>
<g id="clust1" class="cluster">
<title>cluster_parse_args</title>
<polygon fill="none" stroke="#000000" points="101,-508 101,-1316 2301,-1316 2301,-508 101,-508"/>
<text text-anchor="middle" x="1201" y="-1300.8" font-family="Times,serif" font-size="14.00" fill="#000000">/mandlebrot/parse_args</text>
</g>
<g id="clust2" class="cluster">
<title>cluster_generate_pixels</title>
<polygon fill="none" stroke="#000000" points="2309,-213 2309,-1097 2928,-1097 2928,-213 2309,-213"/>
<text text-anchor="middle" x="2618.5" y="-1081.8" font-family="Times,serif" font-size="14.00" fill="#000000">/mandlebrot/generate_pixels</text>
</g>
<g id="clust3" class="cluster">
<title>cluster_y_sequence</title>
<polygon fill="none" stroke="#000000" points="2489,-435 2489,-1066 2920,-1066 2920,-435 2489,-435"/>
<text text-anchor="middle" x="2704.5" y="-1050.8" font-family="Times,serif" font-size="14.00" fill="#000000">/mandlebrot/generate_pixels/y&#45;sequence</text>
</g>
<g id="clust4" class="cluster">
<title>cluster_render</title>
<polygon fill="none" stroke="#000000" points="2331,-8 2331,-194 2549,-194 2549,-8 2331,-8"/>
<text text-anchor="middle" x="2440" y="-178.8" font-family="Times,serif" font-size="14.00" fill="#000000">/mandlebrot/render</text>
</g>
<!-- r2 -->
<g id="node1" class="node">
<title>r2</title>
<g id="a_node1"><a xlink:href="file:///home/travis/build/andrewdavidmackenzie/flow/flowr/src/lib/flowruntime/args/get.html" xlink:title="args (#2)">
<ellipse fill="#ff7f50" stroke="#000000" cx="603" cy="-1267" rx="54.6905" ry="18"/>
<text text-anchor="middle" x="603" y="-1263.3" font-family="Times,serif" font-size="14.00" fill="#000000">args (#2)</text>
</a>
</g>
</g>
<!-- r22 -->
<g id="node2" class="node">
<title>r22</title>
<g id="a_node2"><a xlink:href="file:///home/travis/build/andrewdavidmackenzie/flow/flowstdlib/data/buffer/buffer.html" xlink:title="filename_buffer (#22)">
<ellipse fill="#ff7f50" stroke="#000000" cx="222" cy="-1142" rx="113.18" ry="18"/>
<text text-anchor="middle" x="222" y="-1138.3" font-family="Times,serif" font-size="14.00" fill="#000000">filename_buffer (#22)</text>
</a>
</g>
</g>
<!-- r2&#45;&gt;r22 -->
<g id="edge1" class="edge">
<title>r2:s&#45;&gt;r22:n</title>
<path fill="none" stroke="#000000" d="M603,-1249C603,-1208.4306 467.4706,-1206.3782 428,-1197 386.2846,-1187.0884 246.4121,-1203.5337 224.8117,-1169.7248"/>
<polygon fill="#000000" stroke="#000000" points="228.1398,-1168.6344 222,-1160 221.4153,-1170.5787 228.1398,-1168.6344"/>
<text text-anchor="middle" x="572.5" y="-1237.8" font-family="Times,serif" font-size="14.00" fill="#000000">/string/1</text>
</g>
<!-- r8 -->
<g id="node3" class="node">
<title>r8</title>
<g id="a_node3"><a xlink:href="file:///home/travis/build/andrewdavidmackenzie/flow/flowstdlib/data/ordered_split/ordered_split.html" xlink:title="split_size (#8)">
<ellipse fill="#ff7f50" stroke="#000000" cx="1402" cy="-1142" rx="77.1866" ry="18"/>
<text text-anchor="middle" x="1402" y="-1138.3" font-family="Times,serif" font-size="14.00" fill="#000000">split_size (#8)</text>
</a>
</g>
</g>
<!-- r2&#45;&gt;r8 -->
<g id="edge2" class="edge">
<title>r2:se&#45;&gt;r8:n</title>
<path fill="none" stroke="#000000" d="M620,-1250C642.7894,-1227.2106 723.5171,-1203.8954 755,-1197 771.314,-1193.4269 1314.225,-1180.1318 1392.6074,-1163.8548"/>
<polygon fill="#000000" stroke="#000000" points="1394.0777,-1167.0347 1402,-1160 1391.4199,-1160.5589 1394.0777,-1167.0347"/>
<text text-anchor="middle" x="1380.5" y="-1163.8" font-family="Times,serif" font-size="14.00" fill="#000000">string</text>
<text text-anchor="middle" x="650.5" y="-1238.8" font-family="Times,serif" font-size="14.00" fill="#000000">/string/2</text>
</g>
<!-- r0 -->
<g id="node4" class="node">
<title>r0</title>
<g id="a_node4"><a xlink:href="file:///home/travis/build/andrewdavidmackenzie/flow/flowstdlib/data/ordered_split/ordered_split.html" xlink:title="split_upper_left (#0)">
<ellipse fill="#ff7f50" stroke="#000000" cx="894" cy="-1142" rx="107.4815" ry="18"/>
<text text-anchor="middle" x="894" y="-1138.3" font-family="Times,serif" font-size="14.00" fill="#000000">split_upper_left (#0)</text>
</a>
</g>
</g>
<!-- r2&#45;&gt;r0 -->
<g id="edge3" class="edge">
<title>r2:e&#45;&gt;r0:n</title>
<path fill="none" stroke="#000000" d="M658,-1267C675.8885,-1267 677.3966,-1255.6579 694,-1249 745.8013,-1228.2278 763.4511,-1235.6574 814,-1212 848.9576,-1195.6395 886.5522,-1201.1132 893.0253,-1170.256"/>
<polygon fill="#000000" stroke="#000000" points="896.5381,-1170.2863 894,-1160 889.5695,-1169.624 896.5381,-1170.2863"/>
<text text-anchor="middle" x="872.5" y="-1163.8" font-family="Times,serif" font-size="14.00" fill="#000000">string</text>
<text text-anchor="middle" x="688.5" y="-1270.8" font-family="Times,serif" font-size="14.00" fill="#000000">/string/3</text>
</g>
<!-- r1 -->
<g id="node5" class="node">
<title>r1</title>
<g id="a_node5"><a xlink:href="file:///home/travis/build/andrewdavidmackenzie/flow/flowstdlib/data/ordered_split/ordered_split.html" xlink:title="split_lower_right (#1)">
<ellipse fill="#ff7f50" stroke="#000000" cx="538" cy="-1142" rx="113.18" ry="18"/>
<text text-anchor="middle" x="538" y="-1138.3" font-family="Times,serif" font-size="14.00" fill="#000000">split_lower_right (#1)</text>
</a>
</g>
</g>
<!-- r2&#45;&gt;r1 -->
<g id="edge4" class="edge">
<title>r2:se&#45;&gt;r1:n</title>
<path fill="none" stroke="#000000" d="M620,-1250C655.7226,-1214.2774 553.2734,-1213.9764 539.5094,-1170.0614"/>
<polygon fill="#000000" stroke="#000000" points="542.9449,-1169.3701 538,-1160 536.0224,-1170.4086 542.9449,-1169.3701"/>
<text text-anchor="middle" x="516.5" y="-1163.8" font-family="Times,serif" font-size="14.00" fill="#000000">string</text>
<text text-anchor="middle" x="650.5" y="-1253.8" font-family="Times,serif" font-size="14.00" fill="#000000">/string/4</text>
</g>
<!-- r22&#45;&gt;r22 -->
<g id="edge54" class="edge">
<title>r22:e&#45;&gt;r22:n</title>
<path fill="none" stroke="#000000" d="M335,-1142C359.09,-1133 407.09,-1133 407.09,-1151 407.09,-1168.0508 296.3676,-1168.9499 232.2482,-1161.3474"/>
<polygon fill="#000000" stroke="#000000" points="232.371,-1157.8335 222,-1160 231.4584,-1164.7738 232.371,-1157.8335"/>
</g>
<!-- r19 -->
<g id="node38" class="node">
<title>r19</title>
<g id="a_node38"><a xlink:href="file:///home/travis/build/andrewdavidmackenzie/flow/flowr/src/lib/flowruntime/image/image_buffer.html" xlink:title="image_buffer (#19)">
<ellipse fill="#ff7f50" stroke="#000000" cx="2440" cy="-34" rx="101.2821" ry="18"/>
<text text-anchor="middle" x="2440" y="-30.3" font-family="Times,serif" font-size="14.00" fill="#000000">image_buffer (#19)</text>
</a>
</g>
</g>
<!-- r22&#45;&gt;r19 -->
<g id="edge55" class="edge">
<title>r22:e&#45;&gt;r19:w</title>
<path fill="none" stroke="#000000" d="M335,-1142C343,-1142 339.7184,-1130.4604 335,-1124 242.8139,-997.7813 0,-1173.2992 0,-1017 0,-1017 0,-1017 0,-89.5 0,-58.0654 2159.3151,-35.4935 2327.931,-34.0713"/>
<polygon fill="#000000" stroke="#000000" points="2328.0251,-37.5708 2338,-34 2327.9754,-30.571 2328.0251,-37.5708"/>
<text text-anchor="middle" x="2307" y="-37.8" font-family="Times,serif" font-size="14.00" fill="#000000">filename</text>
</g>
<!-- r6 -->
<g id="node7" class="node">
<title>r6</title>
<g id="a_node7"><a xlink:href="file:///home/travis/build/andrewdavidmackenzie/flow/flowstdlib/fmt/to_json/to_json.html" xlink:title="size_to_json (#6)">
<ellipse fill="#ff7f50" stroke="#000000" cx="1731" cy="-944" rx="90.1842" ry="18"/>
<text text-anchor="middle" x="1731" y="-940.3" font-family="Times,serif" font-size="14.00" fill="#000000">size_to_json (#6)</text>
</a>
</g>
</g>
<!-- r8&#45;&gt;r6 -->
<g id="edge6" class="edge">
<title>r8:e&#45;&gt;r6:n</title>
<path fill="none" stroke="#000000" d="M1480,-1142C1613.7903,-1142 1725.2098,-1101.4178 1730.7815,-972.2745"/>
<polygon fill="#000000" stroke="#000000" points="1734.2865,-972.0722 1731,-962 1727.2881,-971.9233 1734.2865,-972.0722"/>
</g>
<!-- r3 -->
<g id="node16" class="node">
<title>r3</title>
<g id="a_node16"><a xlink:href="file:///home/travis/build/andrewdavidmackenzie/flow/flowstdlib/fmt/to_json/to_json.html" xlink:title="upper_left_to_json (#3)">
<ellipse fill="#ff7f50" stroke="#000000" cx="1001" cy="-944" rx="120.4791" ry="18"/>
<text text-anchor="middle" x="1001" y="-940.3" font-family="Times,serif" font-size="14.00" fill="#000000">upper_left_to_json (#3)</text>
</a>
</g>
</g>
<!-- r0&#45;&gt;r3 -->
<g id="edge16" class="edge">
<title>r0:e&#45;&gt;r3:n</title>
<path fill="none" stroke="#000000" d="M1001,-1142C1077.5625,-1142 1007.5796,-1050.4091 1001.4241,-972.4138"/>
<polygon fill="#000000" stroke="#000000" points="1004.9041,-971.8493 1001,-962 997.9099,-972.1342 1004.9041,-971.8493"/>
</g>
<!-- r9 -->
<g id="node19" class="node">
<title>r9</title>
<g id="a_node19"><a xlink:href="file:///home/travis/build/andrewdavidmackenzie/flow/flowstdlib/fmt/to_json/to_json.html" xlink:title="lower_right_to_json (#9)">
<ellipse fill="#ff7f50" stroke="#000000" cx="459" cy="-944" rx="126.1777" ry="18"/>
<text text-anchor="middle" x="459" y="-940.3" font-family="Times,serif" font-size="14.00" fill="#000000">lower_right_to_json (#9)</text>
</a>
</g>
</g>
<!-- r1&#45;&gt;r9 -->
<g id="edge19" class="edge">
<title>r1:e&#45;&gt;r9:n</title>
<path fill="none" stroke="#000000" d="M651,-1142C659,-1142 654.3711,-1131.2551 651,-1124 605.4226,-1025.9105 467.9639,-1070.6173 459.4173,-972.0006"/>
<polygon fill="#000000" stroke="#000000" points="462.9139,-971.8454 459,-962 455.92,-972.1372 462.9139,-971.8454"/>
</g>
<!-- initializerr8_1 -->
<!-- initializerr8_1&#45;&gt;r8 -->
<g id="edge5" class="edge">
<title>initializerr8_1&#45;&gt;r8:w</title>
<path fill="none" stroke="#0000ff" d="M1316.692,-1248.8239C1304.8853,-1217.2702 1285.6589,-1154.6628 1314.1234,-1143.6678"/>
<polygon fill="#0000ff" stroke="#0000ff" points="1314.7224,-1147.1163 1324,-1142 1313.5568,-1140.214 1314.7224,-1147.1163"/>
<text text-anchor="middle" x="1315" y="-1200.8" font-family="Times,serif" font-size="14.00" fill="#000000">&quot;x&quot;</text>
</g>
<!-- r10 -->
<g id="node8" class="node">
<title>r10</title>
<g id="a_node8"><a xlink:href="file:///home/travis/build/andrewdavidmackenzie/flow/flowstdlib/data/accumulate/accumulate.html" xlink:title="accumulate_size (#10)">
<ellipse fill="#ff7f50" stroke="#000000" cx="1975" cy="-805" rx="116.9792" ry="18"/>
<text text-anchor="middle" x="1975" y="-801.3" font-family="Times,serif" font-size="14.00" fill="#000000">accumulate_size (#10)</text>
</a>
</g>
</g>
<!-- r6&#45;&gt;r10 -->
<g id="edge7" class="edge">
<title>r6:e&#45;&gt;r10:n</title>
<path fill="none" stroke="#000000" d="M1822,-944C1826.6988,-944 1938.3063,-857.081 1967.8691,-830.4596"/>
<polygon fill="#000000" stroke="#000000" points="1970.62,-832.6471 1975,-823 1965.56,-827.8101 1970.62,-832.6471"/>
<text text-anchor="middle" x="1952" y="-826.8" font-family="Times,serif" font-size="14.00" fill="#000000">values</text>
</g>
<!-- r10&#45;&gt;r10 -->
<g id="edge10" class="edge">
<title>r10:e&#45;&gt;r10:ne</title>
<path fill="none" stroke="#000000" d="M2092,-805C2115.9896,-796 2163.9896,-796 2163.9896,-814 2163.9896,-831.0859 2066.6861,-831.9536 2002.9252,-824.3003"/>
<polygon fill="#000000" stroke="#000000" points="2003.3699,-820.8287 1993,-823 2002.4606,-827.7694 2003.3699,-820.8287"/>
<text text-anchor="middle" x="2017" y="-826.8" font-family="Times,serif" font-size="14.00" fill="#000000">partial</text>
<text text-anchor="middle" x="2118" y="-808.8" font-family="Times,serif" font-size="14.00" fill="#000000">/partial</text>
</g>
<!-- r11 -->
<g id="node11" class="node">
<title>r11</title>
<g id="a_node11"><a xlink:href="file:///home/travis/build/andrewdavidmackenzie/flow/flowstdlib/math/subtract/subtract.html" xlink:title="height (#11)">
<ellipse fill="#ff7f50" stroke="#000000" cx="1954" cy="-659" rx="69.5877" ry="18"/>
<text text-anchor="middle" x="1954" y="-655.3" font-family="Times,serif" font-size="14.00" fill="#000000">height (#11)</text>
</a>
</g>
</g>
<!-- r10&#45;&gt;r11 -->
<g id="edge11" class="edge">
<title>r10:sw&#45;&gt;r11:n</title>
<path fill="none" stroke="#000000" d="M1957,-787C1942.9279,-772.9279 1926.8821,-785.6622 1916,-769 1893.7936,-734.9987 1944.3781,-723.1755 1952.8265,-687.2434"/>
<polygon fill="#000000" stroke="#000000" points="1956.339,-687.3334 1954,-677 1949.3845,-686.5366 1956.339,-687.3334"/>
<text text-anchor="middle" x="1947" y="-680.8" font-family="Times,serif" font-size="14.00" fill="#000000">i1</text>
<text text-anchor="middle" x="1925.5" y="-775.8" font-family="Times,serif" font-size="14.00" fill="#000000">/chunk/1</text>
</g>
<!-- r16 -->
<g id="node12" class="node">
<title>r16</title>
<g id="a_node12"><a xlink:href="file:///home/travis/build/andrewdavidmackenzie/flow/flowstdlib/control/join/join.html" xlink:title="width&#45;gate (#16)">
<ellipse fill="#ff7f50" stroke="#000000" cx="2185" cy="-659" rx="89.8845" ry="18"/>
<text text-anchor="middle" x="2185" y="-655.3" font-family="Times,serif" font-size="14.00" fill="#000000">width&#45;gate (#16)</text>
</a>
</g>
</g>
<!-- r10&#45;&gt;r16 -->
<g id="edge12" class="edge">
<title>r10:s&#45;&gt;r16:n</title>
<path fill="none" stroke="#000000" d="M1975,-787C1975,-762.123 2005.3745,-779.3417 2028,-769 2098.2516,-736.8894 2177.523,-755.9675 2184.5033,-687.2879"/>
<polygon fill="#000000" stroke="#000000" points="2188.0136,-687.1572 2185,-677 2181.0217,-686.8195 2188.0136,-687.1572"/>
<text text-anchor="middle" x="2169" y="-680.8" font-family="Times,serif" font-size="14.00" fill="#000000">data</text>
<text text-anchor="middle" x="2006.5" y="-775.8" font-family="Times,serif" font-size="14.00" fill="#000000">/chunk/0</text>
</g>
<!-- r21 -->
<g id="node13" class="node">
<title>r21</title>
<g id="a_node13"><a xlink:href="file:///home/travis/build/andrewdavidmackenzie/flow/flowstdlib/data/buffer/buffer.html" xlink:title="buffer_size (#21)">
<ellipse fill="#ff7f50" stroke="#000000" cx="1431" cy="-659" rx="90.9839" ry="18"/>
<text text-anchor="middle" x="1431" y="-655.3" font-family="Times,serif" font-size="14.00" fill="#000000">buffer_size (#21)</text>
</a>
</g>
</g>
<!-- r10&#45;&gt;r21 -->
<g id="edge13" class="edge">
<title>r10:s&#45;&gt;r21:n</title>
<path fill="none" stroke="#000000" d="M1975,-787C1975,-728.5842 1486.8622,-737.4699 1435.3789,-686.1523"/>
<polygon fill="#000000" stroke="#000000" points="1438.4732,-684.5101 1431,-677 1432.1587,-687.5313 1438.4732,-684.5101"/>
<text text-anchor="middle" x="1950.5" y="-775.8" font-family="Times,serif" font-size="14.00" fill="#000000">/chunk</text>
</g>
<!-- r23 -->
<g id="node14" class="node">
<title>r23</title>
<g id="a_node14"><a xlink:href="file:///home/travis/build/andrewdavidmackenzie/flow/flowstdlib/data/buffer/buffer.html" xlink:title="size_buffer (#23)">
<ellipse fill="#ff7f50" stroke="#000000" cx="1703" cy="-659" rx="90.9839" ry="18"/>
<text text-anchor="middle" x="1703" y="-655.3" font-family="Times,serif" font-size="14.00" fill="#000000">size_buffer (#23)</text>
</a>
</g>
</g>
<!-- r10&#45;&gt;r23 -->
<g id="edge14" class="edge">
<title>r10:s&#45;&gt;r23:n</title>
<path fill="none" stroke="#000000" d="M1975,-787C1975,-745.0594 1985.8339,-722.306 1954,-695 1935.0157,-678.7159 1749.1488,-699.5353 1710.1536,-684.0942"/>
<polygon fill="#000000" stroke="#000000" points="1712.5651,-681.5563 1703,-677 1707.636,-686.5267 1712.5651,-681.5563"/>
<text text-anchor="middle" x="1950.5" y="-790.8" font-family="Times,serif" font-size="14.00" fill="#000000">/chunk</text>
</g>
<!-- initializerr10_1 -->
<!-- initializerr10_1&#45;&gt;r10 -->
<g id="edge8" class="edge">
<title>initializerr10_1&#45;&gt;r10:n</title>
<path fill="none" stroke="#0000ff" stroke-dasharray="1,5" d="M2175.4129,-927.7589C2118.4978,-901.5543 2010.4916,-850.8106 1982.0225,-830.2694"/>
<polygon fill="#0000ff" stroke="#0000ff" points="1984.4652,-827.7604 1975,-823 1979.4306,-832.624 1984.4652,-827.7604"/>
<text text-anchor="middle" x="2094.5" y="-877.8" font-family="Times,serif" font-size="14.00" fill="#000000">[]</text>
</g>
<!-- initializerr10_2 -->
<!-- initializerr10_2&#45;&gt;r10 -->
<g id="edge9" class="edge">
<title>initializerr10_2&#45;&gt;r10:n</title>
<path fill="none" stroke="#0000ff" d="M1975,-925.96C1975,-904.5319 1975,-867.4021 1975,-833.4232"/>
<polygon fill="#0000ff" stroke="#0000ff" points="1978.5001,-833 1975,-823 1971.5001,-833 1978.5001,-833"/>
<text text-anchor="middle" x="1980" y="-877.8" font-family="Times,serif" font-size="14.00" fill="#000000">2</text>
</g>
<!-- r14 -->
<g id="node30" class="node">
<title>r14</title>
<g id="a_node30"><a xlink:href="file:///home/travis/build/andrewdavidmackenzie/flow/flowstdlib/control/compare_switch/compare_switch.html" xlink:title="compare (#14)">
<ellipse fill="#ff7f50" stroke="#000000" cx="2578" cy="-732" rx="80.6858" ry="18"/>
<text text-anchor="middle" x="2578" y="-728.3" font-family="Times,serif" font-size="14.00" fill="#000000">compare (#14)</text>
</a>
</g>
</g>
<!-- r11&#45;&gt;r14 -->
<g id="edge34" class="edge">
<title>r11:se&#45;&gt;r14:n</title>
<path fill="none" stroke="#000000" d="M1972,-641C1980.0993,-632.9007 2012.9478,-636.65 2023.5438,-641 2044.609,-649.6479 2039.1361,-667.8771 2060,-677 2090.5278,-690.3485 2636.1656,-689.3596 2658.5928,-714 2658.5928,-714 2608.4142,-736.4143 2587.245,-745.8703"/>
<polygon fill="#000000" stroke="#000000" points="2585.703,-742.7258 2578,-750 2588.558,-749.1171 2585.703,-742.7258"/>
<text text-anchor="middle" x="2565.5" y="-753.8" font-family="Times,serif" font-size="14.00" fill="#000000">left</text>
<text text-anchor="middle" x="1957.5" y="-629.8" font-family="Times,serif" font-size="14.00" fill="#000000">/diff</text>
</g>
<!-- r16&#45;&gt;r16 -->
<g id="edge43" class="edge">
<title>r16:e&#45;&gt;r16:n</title>
<path fill="none" stroke="#000000" d="M2275,-659C2298.692,-650 2346.692,-650 2346.692,-668 2346.692,-684.9453 2251.1595,-685.9382 2194.9967,-678.4875"/>
<polygon fill="#000000" stroke="#000000" points="2195.4063,-675.01 2185,-677 2194.3759,-681.9338 2195.4063,-675.01"/>
<text text-anchor="middle" x="2201" y="-680.8" font-family="Times,serif" font-size="14.00" fill="#000000">data</text>
</g>
<!-- r13 -->
<g id="node32" class="node">
<title>r13</title>
<g id="a_node32"><a xlink:href="file:///home/travis/build/andrewdavidmackenzie/flow/flowstdlib/data/duplicate/duplicate.html" xlink:title="y&#45;duplicator (#13)">
<ellipse fill="#ff7f50" stroke="#000000" cx="2593" cy="-461" rx="96.3833" ry="18"/>
<text text-anchor="middle" x="2593" y="-457.3" font-family="Times,serif" font-size="14.00" fill="#000000">y&#45;duplicator (#13)</text>
</a>
</g>
</g>
<!-- r16&#45;&gt;r13 -->
<g id="edge44" class="edge">
<title>r16:e&#45;&gt;r13:ne</title>
<path fill="none" stroke="#000000" d="M2275,-659C2426.1405,-659 2439.568,-566.0759 2574,-497 2583.6576,-492.0376 2599.4495,-491.181 2607.9797,-488.5973"/>
<polygon fill="#000000" stroke="#000000" points="2611.3366,-489.5895 2611,-479 2604.6595,-487.4881 2611.3366,-489.5895"/>
<text text-anchor="middle" x="2589.5" y="-482.8" font-family="Times,serif" font-size="14.00" fill="#000000">factor</text>
</g>
<!-- r21&#45;&gt;r21 -->
<g id="edge50" class="edge">
<title>r21:e&#45;&gt;r21:n</title>
<path fill="none" stroke="#000000" d="M1522,-659C1545.9919,-650 1593.9919,-650 1593.9919,-668 1593.9919,-684.9453 1497.6913,-685.9382 1441.0771,-678.4875"/>
<polygon fill="#000000" stroke="#000000" points="1441.4039,-674.9979 1431,-677 1440.3817,-681.9229 1441.4039,-674.9979"/>
</g>
<!-- r20 -->
<g id="node36" class="node">
<title>r20</title>
<g id="a_node36"><a xlink:href="file:///home/travis/build/andrewdavidmackenzie/flow/samples/mandlebrot/pixel_to_point/pixel_to_point.html" xlink:title="p2p (#20)">
<ellipse fill="#ff7f50" stroke="#000000" cx="2375" cy="-239" rx="57.6901" ry="18"/>
<text text-anchor="middle" x="2375" y="-235.3" font-family="Times,serif" font-size="14.00" fill="#000000">p2p (#20)</text>
</a>
</g>
</g>
<!-- r21&#45;&gt;r20 -->
<g id="edge51" class="edge">
<title>r21:e&#45;&gt;r20:nw</title>
<path fill="none" stroke="#000000" d="M1522,-659C1522.339,-659 1707,-596.839 1707,-596.5 1707,-596.5 1707,-596.5 1707,-294.5 1707,-152.9771 2230.1156,-348.876 2350.0726,-262.7006"/>
<polygon fill="#000000" stroke="#000000" points="2352.6221,-265.1285 2358,-256 2348.1033,-259.7823 2352.6221,-265.1285"/>
<text text-anchor="middle" x="2344" y="-259.8" font-family="Times,serif" font-size="14.00" fill="#000000">size</text>
</g>
<!-- r23&#45;&gt;r23 -->
<g id="edge56" class="edge">
<title>r23:e&#45;&gt;r23:n</title>
<path fill="none" stroke="#000000" d="M1794,-659C1817.9919,-650 1865.9919,-650 1865.9919,-668 1865.9919,-684.9453 1769.6913,-685.9382 1713.0771,-678.4875"/>
<polygon fill="#000000" stroke="#000000" points="1713.4039,-674.9979 1703,-677 1712.3817,-681.9229 1713.4039,-674.9979"/>
</g>
<!-- r23&#45;&gt;r19 -->
<g id="edge57" class="edge">
<title>r23:e&#45;&gt;r19:nw</title>
<path fill="none" stroke="#000000" d="M1794,-659C1819.2982,-659 1823.395,-646.8818 1848,-641 2086.1722,-584.0648 2715.0511,-580.2986 2938,-479 2972.0141,-463.5454 3002,-461.8604 3002,-424.5 3002,-424.5 3002,-424.5 3002,-89.5 3002,-30.723 2483.7095,-85.7016 2425.0082,-61.6261"/>
<polygon fill="#000000" stroke="#000000" points="2428.3235,-60.5008 2422,-52 2421.6421,-62.5888 2428.3235,-60.5008"/>
<text text-anchor="middle" x="2408" y="-55.8" font-family="Times,serif" font-size="14.00" fill="#000000">size</text>
</g>
<!-- initializerr0_1 -->
<!-- initializerr0_1&#45;&gt;r0 -->
<g id="edge15" class="edge">
<title>initializerr0_1&#45;&gt;r0:w</title>
<path fill="none" stroke="#0000ff" d="M795.9868,-1249.0905C779.3468,-1217.7673 750.3318,-1155.2651 776.8963,-1143.8213"/>
<polygon fill="#0000ff" stroke="#0000ff" points="777.7795,-1147.2186 787,-1142 776.5377,-1140.3296 777.7795,-1147.2186"/>
<text text-anchor="middle" x="786.5" y="-1200.8" font-family="Times,serif" font-size="14.00" fill="#000000">&quot;,&quot;</text>
</g>
<!-- r7 -->
<g id="node17" class="node">
<title>r7</title>
<g id="a_node17"><a xlink:href="file:///home/travis/build/andrewdavidmackenzie/flow/flowstdlib/data/accumulate/accumulate.html" xlink:title="accumulate_upper_left (#7)">
<ellipse fill="#ff7f50" stroke="#000000" cx="1195" cy="-805" rx="141.075" ry="18"/>
<text text-anchor="middle" x="1195" y="-801.3" font-family="Times,serif" font-size="14.00" fill="#000000">accumulate_upper_left (#7)</text>
</a>
</g>
</g>
<!-- r3&#45;&gt;r7 -->
<g id="edge17" class="edge">
<title>r3:e&#45;&gt;r7:n</title>
<path fill="none" stroke="#000000" d="M1121,-944C1173.5366,-944 1148.4852,-883.7662 1179,-841 1182.4971,-836.0989 1187.1224,-834.4029 1190.5003,-831.952"/>
<polygon fill="#000000" stroke="#000000" points="1193.6361,-833.5067 1195,-823 1187.3817,-830.3629 1193.6361,-833.5067"/>
<text text-anchor="middle" x="1172" y="-826.8" font-family="Times,serif" font-size="14.00" fill="#000000">values</text>
</g>
<!-- r7&#45;&gt;r7 -->
<g id="edge23" class="edge">
<title>r7:e&#45;&gt;r7:ne</title>
<path fill="none" stroke="#000000" d="M1336,-805C1360.0375,-796 1408.0375,-796 1408.0375,-814 1408.0375,-831.1563 1295.3673,-831.9604 1223.3173,-824.2054"/>
<polygon fill="#000000" stroke="#000000" points="1223.3386,-820.6841 1213,-823 1222.5263,-827.6368 1223.3386,-820.6841"/>
<text text-anchor="middle" x="1237" y="-826.8" font-family="Times,serif" font-size="14.00" fill="#000000">partial</text>
<text text-anchor="middle" x="1362" y="-808.8" font-family="Times,serif" font-size="14.00" fill="#000000">/partial</text>
</g>
<!-- r5 -->
<g id="node23" class="node">
<title>r5</title>
<g id="a_node23"><a xlink:href="file:///home/travis/build/andrewdavidmackenzie/flow/flowstdlib/data/accumulate/accumulate.html" xlink:title="accumulate_bounds (#5)">
<ellipse fill="#ff7f50" stroke="#000000" cx="733" cy="-659" rx="126.978" ry="18"/>
<text text-anchor="middle" x="733" y="-655.3" font-family="Times,serif" font-size="14.00" fill="#000000">accumulate_bounds (#5)</text>
</a>
</g>
</g>
<!-- r7&#45;&gt;r5 -->
<g id="edge24" class="edge">
<title>r7:s&#45;&gt;r5:n</title>
<path fill="none" stroke="#000000" d="M1195,-787C1195,-737.4267 787.2517,-730.4859 737.8759,-686.0751"/>
<polygon fill="#000000" stroke="#000000" points="740.8162,-684.1525 733,-677 734.6498,-687.4656 740.8162,-684.1525"/>
<text text-anchor="middle" x="710" y="-680.8" font-family="Times,serif" font-size="14.00" fill="#000000">values</text>
<text text-anchor="middle" x="1170.5" y="-775.8" font-family="Times,serif" font-size="14.00" fill="#000000">/chunk</text>
</g>
<!-- initializerr1_1 -->
<!-- initializerr1_1&#45;&gt;r1 -->
<g id="edge18" class="edge">
<title>initializerr1_1&#45;&gt;r1:w</title>
<path fill="none" stroke="#0000ff" d="M396.1825,-1248.8239C390.4281,-1217.1348 383.3061,-1154.1249 414.9985,-1143.5291"/>
<polygon fill="#0000ff" stroke="#0000ff" points="415.6438,-1146.9712 425,-1142 414.5859,-1140.0516 415.6438,-1146.9712"/>
<text text-anchor="middle" x="400.5" y="-1200.8" font-family="Times,serif" font-size="14.00" fill="#000000">&quot;,&quot;</text>
</g>
<!-- r4 -->
<g id="node20" class="node">
<title>r4</title>
<g id="a_node20"><a xlink:href="file:///home/travis/build/andrewdavidmackenzie/flow/flowstdlib/data/accumulate/accumulate.html" xlink:title="accumulate_lower_right (#4)">
<ellipse fill="#ff7f50" stroke="#000000" cx="733" cy="-805" rx="146.774" ry="18"/>
<text text-anchor="middle" x="733" y="-801.3" font-family="Times,serif" font-size="14.00" fill="#000000">accumulate_lower_right (#4)</text>
</a>
</g>
</g>
<!-- r9&#45;&gt;r4 -->
<g id="edge20" class="edge">
<title>r9:e&#45;&gt;r4:n</title>
<path fill="none" stroke="#000000" d="M585,-944C589.6049,-944 697.5213,-856.9996 726.1053,-830.4272"/>
<polygon fill="#000000" stroke="#000000" points="728.7617,-832.7102 733,-823 723.6314,-827.9477 728.7617,-832.7102"/>
<text text-anchor="middle" x="710" y="-826.8" font-family="Times,serif" font-size="14.00" fill="#000000">values</text>
</g>
<!-- r4&#45;&gt;r4 -->
<g id="edge27" class="edge">
<title>r4:e&#45;&gt;r4:ne</title>
<path fill="none" stroke="#000000" d="M880,-805C903.887,-796 951.887,-796 951.887,-814 951.887,-831.1914 835.1974,-831.9637 761.149,-824.1576"/>
<polygon fill="#000000" stroke="#000000" points="761.3322,-820.6559 751,-823 760.5389,-827.6108 761.3322,-820.6559"/>
<text text-anchor="middle" x="775" y="-826.8" font-family="Times,serif" font-size="14.00" fill="#000000">partial</text>
<text text-anchor="middle" x="906" y="-808.8" font-family="Times,serif" font-size="14.00" fill="#000000">/partial</text>
</g>
<!-- r4&#45;&gt;r5 -->
<g id="edge28" class="edge">
<title>r4:s&#45;&gt;r5:n</title>
<path fill="none" stroke="#000000" d="M733,-787C733,-741.6441 733,-727.8469 733,-687.0522"/>
<polygon fill="#000000" stroke="#000000" points="736.5001,-687 733,-677 729.5001,-687 736.5001,-687"/>
<text text-anchor="middle" x="756" y="-680.8" font-family="Times,serif" font-size="14.00" fill="#000000">values</text>
<text text-anchor="middle" x="708.5" y="-775.8" font-family="Times,serif" font-size="14.00" fill="#000000">/chunk</text>
</g>
<!-- initializerr7_1 -->
<!-- initializerr7_1&#45;&gt;r7 -->
<g id="edge21" class="edge">
<title>initializerr7_1&#45;&gt;r7:n</title>
<path fill="none" stroke="#0000ff" stroke-dasharray="1,5" d="M1450.3039,-928.982C1378.2042,-903.3536 1236.8119,-851.853 1202.5904,-830.2603"/>
<polygon fill="#0000ff" stroke="#0000ff" points="1204.6458,-827.3829 1195,-823 1199.8072,-832.4415 1204.6458,-827.3829"/>
<text text-anchor="middle" x="1344.5" y="-877.8" font-family="Times,serif" font-size="14.00" fill="#000000">[]</text>
</g>
<!-- initializerr7_2 -->
<!-- initializerr7_2&#45;&gt;r7 -->
<g id="edge22" class="edge">
<title>initializerr7_2&#45;&gt;r7:n</title>
<path fill="none" stroke="#0000ff" d="M1249.5574,-926.3812C1229.431,-906.28 1200.2817,-871.2422 1195.6348,-833.248"/>
<polygon fill="#0000ff" stroke="#0000ff" points="1199.1117,-832.7644 1195,-823 1192.1251,-833.1973 1199.1117,-832.7644"/>
<text text-anchor="middle" x="1222" y="-877.8" font-family="Times,serif" font-size="14.00" fill="#000000">2</text>
</g>
<!-- r5&#45;&gt;r5 -->
<g id="edge31" class="edge">
<title>r5:e&#45;&gt;r5:ne</title>
<path fill="none" stroke="#000000" d="M860,-659C883.7388,-650 931.7388,-650 931.7388,-668 931.7388,-685.1211 828.1542,-685.9571 761.0302,-678.2529"/>
<polygon fill="#000000" stroke="#000000" points="761.3567,-674.7666 751,-677 760.489,-681.7126 761.3567,-674.7666"/>
<text text-anchor="middle" x="775" y="-680.8" font-family="Times,serif" font-size="14.00" fill="#000000">partial</text>
<text text-anchor="middle" x="886" y="-662.8" font-family="Times,serif" font-size="14.00" fill="#000000">/partial</text>
</g>
<!-- r18 -->
<g id="node28" class="node">
<title>r18</title>
<g id="a_node28"><a xlink:href="file:///home/travis/build/andrewdavidmackenzie/flow/flowstdlib/data/buffer/buffer.html" xlink:title="buffer_bounds (#18)">
<ellipse fill="#ff7f50" stroke="#000000" cx="1227" cy="-534" rx="106.6812" ry="18"/>
<text text-anchor="middle" x="1227" y="-530.3" font-family="Times,serif" font-size="14.00" fill="#000000">buffer_bounds (#18)</text>
</a>
</g>
</g>
<!-- r5&#45;&gt;r18 -->
<g id="edge32" class="edge">
<title>r5:s&#45;&gt;r18:n</title>
<path fill="none" stroke="#000000" d="M733,-641C733,-421.3955 1211.6831,-764.0701 1226.642,-562.0368"/>
<polygon fill="#000000" stroke="#000000" points="1230.1412,-562.1185 1227,-552 1223.1456,-561.8688 1230.1412,-562.1185"/>
<text text-anchor="middle" x="708.5" y="-629.8" font-family="Times,serif" font-size="14.00" fill="#000000">/chunk</text>
</g>
<!-- initializerr4_1 -->
<!-- initializerr4_1&#45;&gt;r4 -->
<g id="edge25" class="edge">
<title>initializerr4_1&#45;&gt;r4:n</title>
<path fill="none" stroke="#0000ff" stroke-dasharray="1,5" d="M242.3521,-932.0892C369.1558,-905.6678 666.6159,-843.1785 723.5042,-826.6481"/>
<polygon fill="#0000ff" stroke="#0000ff" points="724.9204,-829.8535 733,-823 722.41,-823.3192 724.9204,-829.8535"/>
<text text-anchor="middle" x="518.5" y="-877.8" font-family="Times,serif" font-size="14.00" fill="#000000">[]</text>
</g>
<!-- initializerr4_2 -->
<!-- initializerr4_2&#45;&gt;r4 -->
<g id="edge26" class="edge">
<title>initializerr4_2&#45;&gt;r4:n</title>
<path fill="none" stroke="#0000ff" d="M733,-925.96C733,-904.5319 733,-867.4021 733,-833.4232"/>
<polygon fill="#0000ff" stroke="#0000ff" points="736.5001,-833 733,-823 729.5001,-833 736.5001,-833"/>
<text text-anchor="middle" x="738" y="-877.8" font-family="Times,serif" font-size="14.00" fill="#000000">2</text>
</g>
<!-- initializerr5_1 -->
<!-- initializerr5_1&#45;&gt;r5 -->
<g id="edge29" class="edge">
<title>initializerr5_1&#45;&gt;r5:n</title>
<path fill="none" stroke="#0000ff" stroke-dasharray="1,5" d="M478.3999,-789.6928C549.4095,-762.5312 692.2701,-706.655 725.8278,-684.2106"/>
<polygon fill="#0000ff" stroke="#0000ff" points="728.4293,-686.5582 733,-677 723.4663,-681.6217 728.4293,-686.5582"/>
<text text-anchor="middle" x="670.5" y="-728.3" font-family="Times,serif" font-size="14.00" fill="#000000">[]</text>
</g>
<!-- initializerr5_2 -->
<!-- initializerr5_2&#45;&gt;r5 -->
<g id="edge30" class="edge">
<title>initializerr5_2&#45;&gt;r5:n</title>
<path fill="none" stroke="#0000ff" d="M262.1793,-791.0285C327.5339,-772.3063 448.0658,-738.5898 552,-714 560.6223,-711.9601 689.2487,-693.5167 724.2588,-681.9086"/>
<polygon fill="#0000ff" stroke="#0000ff" points="725.9944,-684.9481 733,-677 722.567,-678.8446 725.9944,-684.9481"/>
<text text-anchor="middle" x="557" y="-728.3" font-family="Times,serif" font-size="14.00" fill="#000000">2</text>
</g>
<!-- r18&#45;&gt;r18 -->
<g id="edge48" class="edge">
<title>r18:e&#45;&gt;r18:n</title>
<path fill="none" stroke="#000000" d="M1334,-534C1357.5905,-525 1405.5905,-525 1405.5905,-543 1405.5905,-560.0156 1299.1963,-560.9462 1237.2716,-553.3943"/>
<polygon fill="#000000" stroke="#000000" points="1237.3799,-549.877 1227,-552 1236.4383,-556.8134 1237.3799,-549.877"/>
</g>
<!-- r18&#45;&gt;r20 -->
<g id="edge49" class="edge">
<title>r18:e&#45;&gt;r20:n</title>
<path fill="none" stroke="#000000" d="M1334,-534C1386.9887,-534 1561,-513.9887 1561,-461 1561,-461 1561,-461 1561,-386.5 1561,-23.6605 2359.5728,-611.9295 2374.78,-267.2019"/>
<polygon fill="#000000" stroke="#000000" points="2378.2835,-267.0732 2375,-257 2371.2851,-266.9222 2378.2835,-267.0732"/>
<text text-anchor="middle" x="2401" y="-260.8" font-family="Times,serif" font-size="14.00" fill="#000000">bounds</text>
</g>
<!-- initializerr11_1 -->
<!-- initializerr11_1&#45;&gt;r11 -->
<g id="edge33" class="edge">
<title>initializerr11_1&#45;&gt;r11:w</title>
<path fill="none" stroke="#0000ff" stroke-dasharray="1,5" d="M2387.3592,-999.1175C2374.392,-979.9091 2352.1847,-949.0437 2329,-926 2195.2244,-793.0383 2150.5525,-758.6383 1973,-695 1935.01,-681.3836 1909.5518,-708.2369 1884,-677 1882.0214,-674.5812 1880.3679,-671.3055 1879.5642,-668.2114"/>
<polygon fill="#0000ff" stroke="#0000ff" points="1882.8147,-669.5283 1884,-659 1876.5078,-666.4912 1882.8147,-669.5283"/>
<text text-anchor="middle" x="2261" y="-844.8" font-family="Times,serif" font-size="14.00" fill="#000000">1</text>
</g>
<!-- r14&#45;&gt;r16 -->
<g id="edge36" class="edge">
<title>r14:e&#45;&gt;r16:ne</title>
<path fill="none" stroke="#000000" d="M2659,-732C2697.7278,-732 2776.4074,-720.6107 2552,-695 2515.983,-690.8895 2266.96,-702.6963 2211.7037,-681.9407"/>
<polygon fill="#000000" stroke="#000000" points="2213.4244,-678.8929 2203,-677 2209.9687,-684.9805 2213.4244,-678.8929"/>
<text text-anchor="middle" x="2229" y="-680.8" font-family="Times,serif" font-size="14.00" fill="#000000">control</text>
<text text-anchor="middle" x="2691" y="-735.8" font-family="Times,serif" font-size="14.00" fill="#000000">/right&#45;lte</text>
</g>
<!-- r14&#45;&gt;r14 -->
<g id="edge38" class="edge">
<title>r14:s&#45;&gt;r14:n</title>
<path fill="none" stroke="#000000" d="M2578,-714C2628.8643,-705 2730.5928,-705 2730.5928,-732 2730.5928,-757.3125 2641.183,-758.8945 2588.0959,-751.5776"/>
<polygon fill="#000000" stroke="#000000" points="2588.4205,-748.086 2578,-750 2587.3397,-755.002 2588.4205,-748.086"/>
<text text-anchor="middle" x="2590.5" y="-753.8" font-family="Times,serif" font-size="14.00" fill="#000000">left</text>
<text text-anchor="middle" x="2553.5" y="-702.8" font-family="Times,serif" font-size="14.00" fill="#000000">/left&#45;gt</text>
</g>
<!-- r14&#45;&gt;r13 -->
<g id="edge37" class="edge">
<title>r14:e&#45;&gt;r13:n</title>
<path fill="none" stroke="#000000" d="M2659,-732C2667,-732 2661.4591,-721.6127 2659,-714 2643.5871,-666.2856 2593,-672.642 2593,-622.5 2593,-622.5 2593,-622.5 2593,-534 2593,-513.375 2593,-505.8018 2593,-489.2554"/>
<polygon fill="#000000" stroke="#000000" points="2596.5001,-489 2593,-479 2589.5001,-489 2596.5001,-489"/>
<text text-anchor="middle" x="2612.5" y="-482.8" font-family="Times,serif" font-size="14.00" fill="#000000">value</text>
<text text-anchor="middle" x="2691" y="-720.8" font-family="Times,serif" font-size="14.00" fill="#000000">/right&#45;lte</text>
</g>
<!-- r15 -->
<g id="node33" class="node">
<title>r15</title>
<g id="a_node33"><a xlink:href="file:///home/travis/build/andrewdavidmackenzie/flow/flowstdlib/math/add/add.html" xlink:title="add (#15)">
<ellipse fill="#ff7f50" stroke="#000000" cx="2818" cy="-461" rx="57.3905" ry="18"/>
<text text-anchor="middle" x="2818" y="-457.3" font-family="Times,serif" font-size="14.00" fill="#000000">add (#15)</text>
</a>
</g>
</g>
<!-- r14&#45;&gt;r15 -->
<g id="edge39" class="edge">
<title>r14:e&#45;&gt;r15:n</title>
<path fill="none" stroke="#000000" d="M2659,-732C2691.6387,-732 2667,-691.6387 2667,-659 2667,-659 2667,-659 2667,-534 2667,-503.048 2697.2179,-508.3848 2726,-497 2742.0422,-490.6545 2794.6073,-496.7609 2812.2026,-487.2165"/>
<polygon fill="#000000" stroke="#000000" points="2815.0946,-489.1887 2818,-479 2809.375,-485.1531 2815.0946,-489.1887"/>
<text text-anchor="middle" x="2811" y="-482.8" font-family="Times,serif" font-size="14.00" fill="#000000">i1</text>
<text text-anchor="middle" x="2631.5" y="-735.8" font-family="Times,serif" font-size="14.00" fill="#000000">/right&#45;lt</text>
</g>
<!-- initializerr14_1 -->
<!-- initializerr14_1&#45;&gt;r14 -->
<g id="edge35" class="edge">
<title>initializerr14_1&#45;&gt;r14:ne</title>
<path fill="none" stroke="#0000ff" stroke-dasharray="1,5" d="M2627.2102,-999.0731C2621.5945,-984.5195 2615,-963.3168 2615,-944 2615,-944 2615,-944 2615,-805 2615,-788.4061 2616.4265,-783.2989 2610,-768 2607.7921,-762.744 2605.906,-759.9732 2603.4027,-757.2793"/>
<polygon fill="#0000ff" stroke="#0000ff" points="2605.5843,-754.5159 2596,-750 2600.6762,-759.507 2605.5843,-754.5159"/>
<text text-anchor="middle" x="2620" y="-877.8" font-family="Times,serif" font-size="14.00" fill="#000000">0</text>
</g>
<!-- r12 -->
<g id="node35" class="node">
<title>r12</title>
<g id="a_node35"><a xlink:href="file:///home/travis/build/andrewdavidmackenzie/flow/flowstdlib/data/enumerate/enumerate.html" xlink:title="enumerate (#12)">
<ellipse fill="#ff7f50" stroke="#000000" cx="2548" cy="-350" rx="90.1842" ry="18"/>
<text text-anchor="middle" x="2548" y="-346.3" font-family="Times,serif" font-size="14.00" fill="#000000">enumerate (#12)</text>
</a>
</g>
</g>
<!-- r13&#45;&gt;r12 -->
<g id="edge45" class="edge">
<title>r13:e&#45;&gt;r12:n</title>
<path fill="none" stroke="#000000" d="M2690,-461C2698,-461 2694.1298,-449.8516 2690,-443 2655.0986,-385.0957 2558.9007,-433.6385 2548.8518,-378.2526"/>
<polygon fill="#000000" stroke="#000000" points="2552.3161,-377.6758 2548,-368 2545.3401,-378.2555 2552.3161,-377.6758"/>
</g>
<!-- r15&#45;&gt;r14 -->
<g id="edge42" class="edge">
<title>r15:se&#45;&gt;r14:ne</title>
<path fill="none" stroke="#000000" d="M2835,-444C2835,-444 2875.1949,-479 2875.1949,-479 2844.9288,-546.2375 2797.5643,-531.8276 2751,-589 2698.8982,-652.9713 2729.9909,-708.6569 2658.5928,-750 2649.0008,-755.5543 2621.1946,-758.5021 2605.3172,-754.4935"/>
<polygon fill="#000000" stroke="#000000" points="2606.5276,-751.1915 2596,-750 2603.4868,-757.4966 2606.5276,-751.1915"/>
<text text-anchor="middle" x="2614" y="-753.8" font-family="Times,serif" font-size="14.00" fill="#000000">right</text>
<text text-anchor="middle" x="2817.5" y="-432.8" font-family="Times,serif" font-size="14.00" fill="#000000">/sum</text>
</g>
<!-- r15&#45;&gt;r15 -->
<g id="edge41" class="edge">
<title>r15:se&#45;&gt;r15:ne</title>
<path fill="none" stroke="#000000" d="M2835,-444C2878.065,-435 2947.1949,-435 2947.1949,-461 2947.1949,-485.0703 2887.9457,-486.8568 2844.9805,-479.8482"/>
<polygon fill="#000000" stroke="#000000" points="2845.4702,-476.3795 2835,-478 2844.1955,-483.2625 2845.4702,-476.3795"/>
<text text-anchor="middle" x="2828" y="-481.8" font-family="Times,serif" font-size="14.00" fill="#000000">i2</text>
<text text-anchor="middle" x="2844.5" y="-432.8" font-family="Times,serif" font-size="14.00" fill="#000000">/i2</text>
</g>
<!-- initializerr15_1 -->
<!-- initializerr15_1&#45;&gt;r15 -->
<g id="edge40" class="edge">
<title>initializerr15_1&#45;&gt;r15:w</title>
<path fill="none" stroke="#0000ff" stroke-dasharray="1,5" d="M2821.4377,-713.7981C2795.5379,-657.7836 2721.5699,-490.2045 2751.155,-464.3621"/>
<polygon fill="#0000ff" stroke="#0000ff" points="2752.6678,-467.544 2761,-461 2750.4055,-460.9197 2752.6678,-467.544"/>
<text text-anchor="middle" x="2779" y="-592.8" font-family="Times,serif" font-size="14.00" fill="#000000">1</text>
</g>
<!-- r12&#45;&gt;r20 -->
<g id="edge46" class="edge">
<title>r12:e&#45;&gt;r20:ne</title>
<path fill="none" stroke="#000000" d="M2639,-350C2647,-350 2643.7528,-338.4351 2639,-332 2572.8957,-242.4975 2479.2841,-331.3012 2399.6605,-263.1014"/>
<polygon fill="#000000" stroke="#000000" points="2401.7131,-260.2316 2392,-256 2396.9542,-265.3652 2401.7131,-260.2316"/>
<text text-anchor="middle" x="2374.5" y="-244.8" font-family="Times,serif" font-size="14.00" fill="#000000">pixel</text>
</g>
<!-- r17 -->
<g id="node37" class="node">
<title>r17</title>
<g id="a_node37"><a xlink:href="file:///home/travis/build/andrewdavidmackenzie/flow/samples/mandlebrot/render_pixel/render_pixel.html" xlink:title="p2v (#17)">
<ellipse fill="#ff7f50" stroke="#000000" cx="2433" cy="-145" rx="57.3905" ry="18"/>
<text text-anchor="middle" x="2433" y="-141.3" font-family="Times,serif" font-size="14.00" fill="#000000">p2v (#17)</text>
</a>
</g>
</g>
<!-- r20&#45;&gt;r17 -->
<g id="edge47" class="edge">
<title>r20:e&#45;&gt;r17:n</title>
<path fill="none" stroke="#000000" d="M2433,-239C2463.4792,-239 2438.953,-204.6216 2433.872,-173.0902"/>
<polygon fill="#000000" stroke="#000000" points="2437.3481,-172.6615 2433,-163 2430.3741,-173.2642 2437.3481,-172.6615"/>
<text text-anchor="middle" x="2393.5" y="-166.8" font-family="Times,serif" font-size="14.00" fill="#000000">pixel_point</text>
</g>
<!-- r17&#45;&gt;r19 -->
<g id="edge52" class="edge">
<title>r17:s&#45;&gt;r19:n</title>
<path fill="none" stroke="#000000" d="M2433,-127C2433,-97.1835 2438.5525,-87.542 2439.7671,-62.1388"/>
<polygon fill="#000000" stroke="#000000" points="2443.2693,-62.0778 2440,-52 2436.2712,-61.917 2443.2693,-62.0778"/>
<text text-anchor="middle" x="2457.5" y="-55.8" font-family="Times,serif" font-size="14.00" fill="#000000">pixel</text>
<text text-anchor="middle" x="2426" y="-115.8" font-family="Times,serif" font-size="14.00" fill="#000000">/0</text>
</g>
<!-- r17&#45;&gt;r19 -->
<g id="edge53" class="edge">
<title>r17:sw&#45;&gt;r19:ne</title>
<path fill="none" stroke="#000000" d="M2416,-128C2391.6957,-103.6957 2465.6444,-84.0453 2462.8329,-60.759"/>
<polygon fill="#000000" stroke="#000000" points="2465.8956,-59.0647 2458,-52 2459.7666,-62.4465 2465.8956,-59.0647"/>
<text text-anchor="middle" x="2477.5" y="-55.8" font-family="Times,serif" font-size="14.00" fill="#000000">value</text>
<text text-anchor="middle" x="2409" y="-116.8" font-family="Times,serif" font-size="14.00" fill="#000000">/1</text>
</g>
</g>
</svg>
