<?xml version="1.0" encoding="UTF-8" standalone="no"?>
<!DOCTYPE svg PUBLIC "-//W3C//DTD SVG 1.1//EN"
 "http://www.w3.org/Graphics/SVG/1.1/DTD/svg11.dtd">
<!-- Generated by graphviz version 2.40.1 (20161225.0304)
 -->
<!-- Title: mandlebrot Pages: 1 -->
<svg width="3059pt" height="1355pt"
 viewBox="0.00 0.00 3059.00 1355.00" xmlns="http://www.w3.org/2000/svg" xmlns:xlink="http://www.w3.org/1999/xlink">
<g id="graph0" class="graph" transform="scale(1 1) rotate(0) translate(4 1351)">
<title>mandlebrot</title>
<polygon fill="#ffffff" stroke="transparent" points="-4,4 -4,-1351 3055,-1351 3055,4 -4,4"/>
<text text-anchor="middle" x="1525.5" y="-1331.8" font-family="Times,serif" font-size="14.00" fill="#000000">/mandlebrot</text>
<g id="clust1" class="cluster">
<title>cluster_parse_args</title>
<polygon fill="none" stroke="#000000" points="101,-508 101,-1316 2385,-1316 2385,-508 101,-508"/>
<text text-anchor="middle" x="1243" y="-1300.8" font-family="Times,serif" font-size="14.00" fill="#000000">/mandlebrot/parse_args</text>
</g>
<g id="clust2" class="cluster">
<title>cluster_generate_pixels</title>
<polygon fill="none" stroke="#000000" points="2393,-213 2393,-1097 2977,-1097 2977,-213 2393,-213"/>
<text text-anchor="middle" x="2685" y="-1081.8" font-family="Times,serif" font-size="14.00" fill="#000000">/mandlebrot/generate_pixels</text>
</g>
<g id="clust3" class="cluster">
<title>cluster_y_sequence</title>
<polygon fill="none" stroke="#000000" points="2561,-435 2561,-1066 2969,-1066 2969,-435 2561,-435"/>
<text text-anchor="middle" x="2765" y="-1050.8" font-family="Times,serif" font-size="14.00" fill="#000000">/mandlebrot/generate_pixels/y&#45;sequence</text>
</g>
<g id="clust4" class="cluster">
<title>cluster_render</title>
<polygon fill="none" stroke="#000000" points="2416,-8 2416,-194 2624,-194 2624,-8 2416,-8"/>
<text text-anchor="middle" x="2520" y="-178.8" font-family="Times,serif" font-size="14.00" fill="#000000">/mandlebrot/render</text>
</g>
<!-- r21 -->
<g id="node1" class="node">
<title>r21</title>
<g id="a_node1"><a xlink:href="file:///home/travis/build/andrewdavidmackenzie/flow/flowr/src/lib/flowruntime/args/get.html" xlink:title="args (#21)">
<ellipse fill="#ff7f50" stroke="#000000" cx="624" cy="-1267" rx="60.3893" ry="18"/>
<text text-anchor="middle" x="624" y="-1263.3" font-family="Times,serif" font-size="14.00" fill="#000000">args (#21)</text>
</a>
</g>
</g>
<!-- r6 -->
<g id="node2" class="node">
<title>r6</title>
<g id="a_node2"><a xlink:href="file:///home/travis/build/andrewdavidmackenzie/flow/flowstdlib/data/buffer/buffer.html" xlink:title="filename_buffer (#6)">
<ellipse fill="#ff7f50" stroke="#000000" cx="216" cy="-1142" rx="107.4815" ry="18"/>
<text text-anchor="middle" x="216" y="-1138.3" font-family="Times,serif" font-size="14.00" fill="#000000">filename_buffer (#6)</text>
</a>
</g>
</g>
<!-- r21&#45;&gt;r6 -->
<g id="edge1" class="edge">
<title>r21:s&#45;&gt;r6:n</title>
<path fill="none" stroke="#000000" d="M624,-1249C624,-1226.4688 450.0073,-1201.8303 428,-1197 384.938,-1187.5485 241.1026,-1204.7214 218.8912,-1169.9948"/>
<polygon fill="#000000" stroke="#000000" points="222.141,-1168.6336 216,-1160 215.4167,-1170.5788 222.141,-1168.6336"/>
<text text-anchor="middle" x="593.5" y="-1237.8" font-family="Times,serif" font-size="14.00" fill="#000000">/string/1</text>
</g>
<!-- r14 -->
<g id="node3" class="node">
<title>r14</title>
<g id="a_node3"><a xlink:href="file:///home/travis/build/andrewdavidmackenzie/flow/flowstdlib/data/ordered_split/ordered_split.html" xlink:title="split_size (#14)">
<ellipse fill="#ff7f50" stroke="#000000" cx="1461" cy="-1142" rx="83.3857" ry="18"/>
<text text-anchor="middle" x="1461" y="-1138.3" font-family="Times,serif" font-size="14.00" fill="#000000">split_size (#14)</text>
</a>
</g>
</g>
<!-- r21&#45;&gt;r14 -->
<g id="edge2" class="edge">
<title>r21:se&#45;&gt;r14:n</title>
<path fill="none" stroke="#000000" d="M641,-1250C665.2589,-1225.7411 752.3944,-1203.903 786,-1197 803.1008,-1193.4873 1371.82,-1180.7565 1451.7116,-1163.8945"/>
<polygon fill="#000000" stroke="#000000" points="1453.1312,-1167.0946 1461,-1160 1450.4244,-1160.6391 1453.1312,-1167.0946"/>
<text text-anchor="middle" x="1439.5" y="-1163.8" font-family="Times,serif" font-size="14.00" fill="#000000">string</text>
<text text-anchor="middle" x="671.5" y="-1238.8" font-family="Times,serif" font-size="14.00" fill="#000000">/string/2</text>
</g>
<!-- r13 -->
<g id="node4" class="node">
<title>r13</title>
<g id="a_node4"><a xlink:href="file:///home/travis/build/andrewdavidmackenzie/flow/flowstdlib/data/ordered_split/ordered_split.html" xlink:title="split_upper_left (#13)">
<ellipse fill="#ff7f50" stroke="#000000" cx="930" cy="-1142" rx="113.18" ry="18"/>
<text text-anchor="middle" x="930" y="-1138.3" font-family="Times,serif" font-size="14.00" fill="#000000">split_upper_left (#13)</text>
</a>
</g>
</g>
<!-- r21&#45;&gt;r13 -->
<g id="edge3" class="edge">
<title>r21:e&#45;&gt;r13:n</title>
<path fill="none" stroke="#000000" d="M685,-1267C702.4921,-1267 703.7647,-1255.5109 720,-1249 773.7751,-1227.4344 792.0596,-1235.5405 845,-1212 881.9886,-1195.5527 922.3758,-1202.7283 929.0442,-1170.2612"/>
<polygon fill="#000000" stroke="#000000" points="932.5573,-1170.2815 930,-1160 925.5875,-1169.6322 932.5573,-1170.2815"/>
<text text-anchor="middle" x="908.5" y="-1163.8" font-family="Times,serif" font-size="14.00" fill="#000000">string</text>
<text text-anchor="middle" x="715.5" y="-1270.8" font-family="Times,serif" font-size="14.00" fill="#000000">/string/3</text>
</g>
<!-- r17 -->
<g id="node5" class="node">
<title>r17</title>
<g id="a_node5"><a xlink:href="file:///home/travis/build/andrewdavidmackenzie/flow/flowstdlib/data/ordered_split/ordered_split.html" xlink:title="split_lower_right (#17)">
<ellipse fill="#ff7f50" stroke="#000000" cx="532" cy="-1142" rx="118.8789" ry="18"/>
<text text-anchor="middle" x="532" y="-1138.3" font-family="Times,serif" font-size="14.00" fill="#000000">split_lower_right (#17)</text>
</a>
</g>
</g>
<!-- r21&#45;&gt;r17 -->
<g id="edge4" class="edge">
<title>r21:se&#45;&gt;r17:n</title>
<path fill="none" stroke="#000000" d="M641,-1250C682.9072,-1208.0928 548.7453,-1221.0681 533.4128,-1169.9303"/>
<polygon fill="#000000" stroke="#000000" points="536.8737,-1169.4073 532,-1160 529.9435,-1170.3933 536.8737,-1169.4073"/>
<text text-anchor="middle" x="510.5" y="-1163.8" font-family="Times,serif" font-size="14.00" fill="#000000">string</text>
<text text-anchor="middle" x="671.5" y="-1253.8" font-family="Times,serif" font-size="14.00" fill="#000000">/string/4</text>
</g>
<!-- r6&#45;&gt;r6 -->
<g id="edge54" class="edge">
<title>r6:e&#45;&gt;r6:n</title>
<path fill="none" stroke="#000000" d="M323,-1142C347.2405,-1133 395.2405,-1133 395.2405,-1151 395.2405,-1168.0508 288.0174,-1168.9499 225.9243,-1161.3474"/>
<polygon fill="#000000" stroke="#000000" points="226.38,-1157.8773 216,-1160 225.4382,-1164.8136 226.38,-1157.8773"/>
</g>
<!-- r8 -->
<g id="node38" class="node">
<title>r8</title>
<g id="a_node38"><a xlink:href="file:///home/travis/build/andrewdavidmackenzie/flow/flowr/src/lib/flowruntime/image/image_buffer.html" xlink:title="image_buffer (#8)">
<ellipse fill="#ff7f50" stroke="#000000" cx="2520" cy="-34" rx="95.5831" ry="18"/>
<text text-anchor="middle" x="2520" y="-30.3" font-family="Times,serif" font-size="14.00" fill="#000000">image_buffer (#8)</text>
</a>
</g>
</g>
<!-- r6&#45;&gt;r8 -->
<g id="edge55" class="edge">
<title>r6:e&#45;&gt;r8:w</title>
<path fill="none" stroke="#000000" d="M323,-1142C331,-1142 327.6837,-1130.4856 323,-1124 234.4618,-1001.4002 0,-1168.2274 0,-1017 0,-1017 0,-1017 0,-89.5 0,-56.8933 2241.0027,-35.3973 2413.8237,-34.0656"/>
<polygon fill="#000000" stroke="#000000" points="2414.0228,-37.5645 2424,-34 2413.9776,-30.5647 2414.0228,-37.5645"/>
<text text-anchor="middle" x="2393" y="-37.8" font-family="Times,serif" font-size="14.00" fill="#000000">filename</text>
</g>
<!-- r18 -->
<g id="node7" class="node">
<title>r18</title>
<g id="a_node7"><a xlink:href="file:///home/travis/build/andrewdavidmackenzie/flow/flowstdlib/fmt/to_json/to_json.html" xlink:title="size_to_json (#18)">
<ellipse fill="#ff7f50" stroke="#000000" cx="1809" cy="-944" rx="96.3833" ry="18"/>
<text text-anchor="middle" x="1809" y="-940.3" font-family="Times,serif" font-size="14.00" fill="#000000">size_to_json (#18)</text>
</a>
</g>
</g>
<!-- r14&#45;&gt;r18 -->
<g id="edge6" class="edge">
<title>r14:e&#45;&gt;r18:n</title>
<path fill="none" stroke="#000000" d="M1545,-1142C1683.5439,-1142 1803.0316,-1105.8432 1808.7834,-972.2161"/>
<polygon fill="#000000" stroke="#000000" points="1812.2871,-972.072 1809,-962 1805.2887,-971.9235 1812.2871,-972.072"/>
</g>
<!-- r16 -->
<g id="node16" class="node">
<title>r16</title>
<g id="a_node16"><a xlink:href="file:///home/travis/build/andrewdavidmackenzie/flow/flowstdlib/fmt/to_json/to_json.html" xlink:title="upper_left_to_json (#16)">
<ellipse fill="#ff7f50" stroke="#000000" cx="1043" cy="-944" rx="126.1777" ry="18"/>
<text text-anchor="middle" x="1043" y="-940.3" font-family="Times,serif" font-size="14.00" fill="#000000">upper_left_to_json (#16)</text>
</a>
</g>
</g>
<!-- r13&#45;&gt;r16 -->
<g id="edge16" class="edge">
<title>r13:e&#45;&gt;r16:n</title>
<path fill="none" stroke="#000000" d="M1043,-1142C1119.5625,-1142 1049.5796,-1050.4091 1043.4241,-972.4138"/>
<polygon fill="#000000" stroke="#000000" points="1046.9041,-971.8493 1043,-962 1039.9099,-972.1342 1046.9041,-971.8493"/>
</g>
<!-- r23 -->
<g id="node19" class="node">
<title>r23</title>
<g id="a_node19"><a xlink:href="file:///home/travis/build/andrewdavidmackenzie/flow/flowstdlib/fmt/to_json/to_json.html" xlink:title="lower_right_to_json (#23)">
<ellipse fill="#ff7f50" stroke="#000000" cx="477" cy="-944" rx="131.8766" ry="18"/>
<text text-anchor="middle" x="477" y="-940.3" font-family="Times,serif" font-size="14.00" fill="#000000">lower_right_to_json (#23)</text>
</a>
</g>
</g>
<!-- r17&#45;&gt;r23 -->
<g id="edge19" class="edge">
<title>r17:e&#45;&gt;r23:n</title>
<path fill="none" stroke="#000000" d="M651,-1142C659,-1142 654.1929,-1131.3352 651,-1124 610.2292,-1030.3351 485.6554,-1065.1211 477.4279,-972.0517"/>
<polygon fill="#000000" stroke="#000000" points="480.9222,-971.8421 477,-962 473.9286,-972.1398 480.9222,-971.8421"/>
</g>
<!-- initializerr14_1 -->
<!-- initializerr14_1&#45;&gt;r14 -->
<g id="edge5" class="edge">
<title>initializerr14_1&#45;&gt;r14:w</title>
<path fill="none" stroke="#0000ff" d="M1369.692,-1248.8239C1357.8853,-1217.2702 1338.6589,-1154.6628 1367.1234,-1143.6678"/>
<polygon fill="#0000ff" stroke="#0000ff" points="1367.7224,-1147.1163 1377,-1142 1366.5568,-1140.214 1367.7224,-1147.1163"/>
<text text-anchor="middle" x="1368" y="-1200.8" font-family="Times,serif" font-size="14.00" fill="#000000">&quot;x&quot;</text>
</g>
<!-- r15 -->
<g id="node8" class="node">
<title>r15</title>
<g id="a_node8"><a xlink:href="file:///home/travis/build/andrewdavidmackenzie/flow/flowstdlib/data/accumulate/accumulate.html" xlink:title="accumulate_size (#15)">
<ellipse fill="#ff7f50" stroke="#000000" cx="2059" cy="-805" rx="116.9792" ry="18"/>
<text text-anchor="middle" x="2059" y="-801.3" font-family="Times,serif" font-size="14.00" fill="#000000">accumulate_size (#15)</text>
</a>
</g>
</g>
<!-- r18&#45;&gt;r15 -->
<g id="edge7" class="edge">
<title>r18:e&#45;&gt;r15:n</title>
<path fill="none" stroke="#000000" d="M1906,-944C1910.6988,-944 2022.3063,-857.081 2051.8691,-830.4596"/>
<polygon fill="#000000" stroke="#000000" points="2054.62,-832.6471 2059,-823 2049.56,-827.8101 2054.62,-832.6471"/>
<text text-anchor="middle" x="2036" y="-826.8" font-family="Times,serif" font-size="14.00" fill="#000000">values</text>
</g>
<!-- r15&#45;&gt;r15 -->
<g id="edge10" class="edge">
<title>r15:e&#45;&gt;r15:ne</title>
<path fill="none" stroke="#000000" d="M2176,-805C2199.9896,-796 2247.9896,-796 2247.9896,-814 2247.9896,-831.0859 2150.6861,-831.9536 2086.9252,-824.3003"/>
<polygon fill="#000000" stroke="#000000" points="2087.3699,-820.8287 2077,-823 2086.4606,-827.7694 2087.3699,-820.8287"/>
<text text-anchor="middle" x="2101" y="-826.8" font-family="Times,serif" font-size="14.00" fill="#000000">partial</text>
<text text-anchor="middle" x="2202" y="-808.8" font-family="Times,serif" font-size="14.00" fill="#000000">/partial</text>
</g>
<!-- r1 -->
<g id="node11" class="node">
<title>r1</title>
<g id="a_node11"><a xlink:href="file:///home/travis/build/andrewdavidmackenzie/flow/flowstdlib/math/subtract/subtract.html" xlink:title="height (#1)">
<ellipse fill="#ff7f50" stroke="#000000" cx="2055" cy="-659" rx="63.8893" ry="18"/>
<text text-anchor="middle" x="2055" y="-655.3" font-family="Times,serif" font-size="14.00" fill="#000000">height (#1)</text>
</a>
</g>
</g>
<!-- r15&#45;&gt;r1 -->
<g id="edge11" class="edge">
<title>r15:sw&#45;&gt;r1:n</title>
<path fill="none" stroke="#000000" d="M2041,-787C2027.6482,-773.6482 1998.1535,-786.2498 2003,-768 2014.022,-726.4959 2048.9146,-723.7661 2054.2993,-687.0979"/>
<polygon fill="#000000" stroke="#000000" points="2057.7992,-687.2183 2055,-677 2050.816,-686.7337 2057.7992,-687.2183"/>
<text text-anchor="middle" x="2048" y="-680.8" font-family="Times,serif" font-size="14.00" fill="#000000">i1</text>
<text text-anchor="middle" x="2009.5" y="-775.8" font-family="Times,serif" font-size="14.00" fill="#000000">/chunk/1</text>
</g>
<!-- r0 -->
<g id="node12" class="node">
<title>r0</title>
<g id="a_node12"><a xlink:href="file:///home/travis/build/andrewdavidmackenzie/flow/flowstdlib/control/join/join.html" xlink:title="width&#45;gate (#0)">
<ellipse fill="#ff7f50" stroke="#000000" cx="2275" cy="-659" rx="83.6854" ry="18"/>
<text text-anchor="middle" x="2275" y="-655.3" font-family="Times,serif" font-size="14.00" fill="#000000">width&#45;gate (#0)</text>
</a>
</g>
</g>
<!-- r15&#45;&gt;r0 -->
<g id="edge12" class="edge">
<title>r15:s&#45;&gt;r0:n</title>
<path fill="none" stroke="#000000" d="M2059,-787C2059,-760.857 2091.0911,-779.5745 2115,-769 2186.7953,-737.2463 2267.7153,-757.1383 2274.5368,-687.0039"/>
<polygon fill="#000000" stroke="#000000" points="2278.0337,-687.1512 2275,-677 2271.0412,-686.8274 2278.0337,-687.1512"/>
<text text-anchor="middle" x="2259" y="-680.8" font-family="Times,serif" font-size="14.00" fill="#000000">data</text>
<text text-anchor="middle" x="2090.5" y="-775.8" font-family="Times,serif" font-size="14.00" fill="#000000">/chunk/0</text>
</g>
<!-- r10 -->
<g id="node13" class="node">
<title>r10</title>
<g id="a_node13"><a xlink:href="file:///home/travis/build/andrewdavidmackenzie/flow/flowstdlib/data/buffer/buffer.html" xlink:title="buffer_size (#10)">
<ellipse fill="#ff7f50" stroke="#000000" cx="1550" cy="-659" rx="90.9839" ry="18"/>
<text text-anchor="middle" x="1550" y="-655.3" font-family="Times,serif" font-size="14.00" fill="#000000">buffer_size (#10)</text>
</a>
</g>
</g>
<!-- r15&#45;&gt;r10 -->
<g id="edge13" class="edge">
<title>r15:s&#45;&gt;r10:n</title>
<path fill="none" stroke="#000000" d="M2059,-787C2059,-732.4161 1606.0272,-734.4169 1554.7139,-686.243"/>
<polygon fill="#000000" stroke="#000000" points="1557.6612,-684.3182 1550,-677 1551.4253,-687.4985 1557.6612,-684.3182"/>
<text text-anchor="middle" x="2034.5" y="-775.8" font-family="Times,serif" font-size="14.00" fill="#000000">/chunk</text>
</g>
<!-- r7 -->
<g id="node14" class="node">
<title>r7</title>
<g id="a_node14"><a xlink:href="file:///home/travis/build/andrewdavidmackenzie/flow/flowstdlib/data/buffer/buffer.html" xlink:title="size_buffer (#7)">
<ellipse fill="#ff7f50" stroke="#000000" cx="1816" cy="-659" rx="85.2851" ry="18"/>
<text text-anchor="middle" x="1816" y="-655.3" font-family="Times,serif" font-size="14.00" fill="#000000">size_buffer (#7)</text>
</a>
</g>
</g>
<!-- r15&#45;&gt;r7 -->
<g id="edge14" class="edge">
<title>r15:s&#45;&gt;r7:n</title>
<path fill="none" stroke="#000000" d="M2059,-787C2059,-745.3359 2072.0829,-722.7444 2041,-695 2024.4091,-680.1911 1860.3303,-697.2115 1823.3692,-683.7721"/>
<polygon fill="#000000" stroke="#000000" points="1825.7314,-681.1894 1816,-677 1820.9948,-686.3436 1825.7314,-681.1894"/>
<text text-anchor="middle" x="2034.5" y="-790.8" font-family="Times,serif" font-size="14.00" fill="#000000">/chunk</text>
</g>
<!-- initializerr15_1 -->
<!-- initializerr15_1&#45;&gt;r15 -->
<g id="edge8" class="edge">
<title>initializerr15_1&#45;&gt;r15:n</title>
<path fill="none" stroke="#0000ff" stroke-dasharray="1,5" d="M2259.4129,-927.7589C2202.4978,-901.5543 2094.4916,-850.8106 2066.0225,-830.2694"/>
<polygon fill="#0000ff" stroke="#0000ff" points="2068.4652,-827.7604 2059,-823 2063.4306,-832.624 2068.4652,-827.7604"/>
<text text-anchor="middle" x="2178.5" y="-877.8" font-family="Times,serif" font-size="14.00" fill="#000000">[]</text>
</g>
<!-- initializerr15_2 -->
<!-- initializerr15_2&#45;&gt;r15 -->
<g id="edge9" class="edge">
<title>initializerr15_2&#45;&gt;r15:n</title>
<path fill="none" stroke="#0000ff" d="M2059,-925.96C2059,-904.5319 2059,-867.4021 2059,-833.4232"/>
<polygon fill="#0000ff" stroke="#0000ff" points="2062.5001,-833 2059,-823 2055.5001,-833 2062.5001,-833"/>
<text text-anchor="middle" x="2064" y="-877.8" font-family="Times,serif" font-size="14.00" fill="#000000">2</text>
</g>
<!-- r4 -->
<g id="node30" class="node">
<title>r4</title>
<g id="a_node30"><a xlink:href="file:///home/travis/build/andrewdavidmackenzie/flow/flowstdlib/control/compare_switch/compare_switch.html" xlink:title="compare (#4)">
<ellipse fill="#ff7f50" stroke="#000000" cx="2644" cy="-732" rx="74.9875" ry="18"/>
<text text-anchor="middle" x="2644" y="-728.3" font-family="Times,serif" font-size="14.00" fill="#000000">compare (#4)</text>
</a>
</g>
</g>
<!-- r1&#45;&gt;r4 -->
<g id="edge34" class="edge">
<title>r1:se&#45;&gt;r4:n</title>
<path fill="none" stroke="#000000" d="M2073,-641C2087.3603,-626.6397 2099.8632,-633.3956 2118.6943,-641 2140.0595,-649.6277 2134.8527,-667.8515 2156,-677 2184.7555,-689.4399 2697.6864,-690.8001 2718.7434,-714 2718.7434,-714 2673.1236,-735.9727 2653.165,-745.5857"/>
<polygon fill="#000000" stroke="#000000" points="2651.4906,-742.5073 2644,-750 2654.5282,-748.8139 2651.4906,-742.5073"/>
<text text-anchor="middle" x="2631.5" y="-753.8" font-family="Times,serif" font-size="14.00" fill="#000000">left</text>
<text text-anchor="middle" x="2058.5" y="-629.8" font-family="Times,serif" font-size="14.00" fill="#000000">/diff</text>
</g>
<!-- r0&#45;&gt;r0 -->
<g id="edge43" class="edge">
<title>r0:e&#45;&gt;r0:n</title>
<path fill="none" stroke="#000000" d="M2359,-659C2382.8426,-650 2430.8426,-650 2430.8426,-668 2430.8426,-684.9102 2339.1477,-685.934 2284.9725,-678.5338"/>
<polygon fill="#000000" stroke="#000000" points="2285.4159,-675.0609 2275,-677 2284.3517,-681.9796 2285.4159,-675.0609"/>
<text text-anchor="middle" x="2291" y="-680.8" font-family="Times,serif" font-size="14.00" fill="#000000">data</text>
</g>
<!-- r2 -->
<g id="node32" class="node">
<title>r2</title>
<g id="a_node32"><a xlink:href="file:///home/travis/build/andrewdavidmackenzie/flow/flowstdlib/data/duplicate/duplicate.html" xlink:title="y&#45;duplicator (#2)">
<ellipse fill="#ff7f50" stroke="#000000" cx="2659" cy="-461" rx="90.1842" ry="18"/>
<text text-anchor="middle" x="2659" y="-457.3" font-family="Times,serif" font-size="14.00" fill="#000000">y&#45;duplicator (#2)</text>
</a>
</g>
</g>
<!-- r0&#45;&gt;r2 -->
<g id="edge44" class="edge">
<title>r0:e&#45;&gt;r2:ne</title>
<path fill="none" stroke="#000000" d="M2359,-659C2501.6196,-659 2508.9382,-561.7738 2636,-497 2646.8043,-491.4922 2664.8912,-491.2384 2674.1887,-488.6963"/>
<polygon fill="#000000" stroke="#000000" points="2677.5768,-489.5791 2677,-479 2670.8537,-487.6298 2677.5768,-489.5791"/>
<text text-anchor="middle" x="2655.5" y="-482.8" font-family="Times,serif" font-size="14.00" fill="#000000">factor</text>
</g>
<!-- r10&#45;&gt;r10 -->
<g id="edge50" class="edge">
<title>r10:e&#45;&gt;r10:n</title>
<path fill="none" stroke="#000000" d="M1641,-659C1664.9919,-650 1712.9919,-650 1712.9919,-668 1712.9919,-684.9453 1616.6913,-685.9382 1560.0771,-678.4875"/>
<polygon fill="#000000" stroke="#000000" points="1560.4039,-674.9979 1550,-677 1559.3817,-681.9229 1560.4039,-674.9979"/>
</g>
<!-- r12 -->
<g id="node36" class="node">
<title>r12</title>
<g id="a_node36"><a xlink:href="file:///home/travis/build/andrewdavidmackenzie/flow/samples/mandlebrot/pixel_to_point/pixel_to_point.html" xlink:title="p2p (#12)">
<ellipse fill="#ff7f50" stroke="#000000" cx="2459" cy="-239" rx="57.6901" ry="18"/>
<text text-anchor="middle" x="2459" y="-235.3" font-family="Times,serif" font-size="14.00" fill="#000000">p2p (#12)</text>
</a>
</g>
</g>
<!-- r10&#45;&gt;r12 -->
<g id="edge51" class="edge">
<title>r10:e&#45;&gt;r12:nw</title>
<path fill="none" stroke="#000000" d="M1641,-659C1666.2982,-659 1670.8117,-648.4114 1695,-641 1765.1625,-619.502 1854,-669.8821 1854,-596.5 1854,-596.5 1854,-596.5 1854,-294.5 1854,-166.8784 2324.5689,-339.4003 2434.1826,-262.5258"/>
<polygon fill="#000000" stroke="#000000" points="2436.5662,-265.0953 2442,-256 2432.0803,-259.7215 2436.5662,-265.0953"/>
<text text-anchor="middle" x="2428" y="-259.8" font-family="Times,serif" font-size="14.00" fill="#000000">size</text>
</g>
<!-- r7&#45;&gt;r7 -->
<g id="edge56" class="edge">
<title>r7:e&#45;&gt;r7:n</title>
<path fill="none" stroke="#000000" d="M1902,-659C1925.1424,-650 1973.1424,-650 1973.1424,-668 1973.1424,-684.9102 1880.6827,-685.934 1826.0557,-678.5338"/>
<polygon fill="#000000" stroke="#000000" points="1826.4134,-675.048 1816,-677 1825.3579,-681.9679 1826.4134,-675.048"/>
</g>
<!-- r7&#45;&gt;r8 -->
<g id="edge57" class="edge">
<title>r7:e&#45;&gt;r8:nw</title>
<path fill="none" stroke="#000000" d="M1902,-659C1926.877,-659 1930.8453,-646.9508 1955,-641 2180.4021,-585.4692 2776.0447,-575.8898 2987,-479 3020.9507,-463.4067 3051,-461.8604 3051,-424.5 3051,-424.5 3051,-424.5 3051,-89.5 3051,-34.0899 2564.6047,-83.8199 2505.5843,-61.4525"/>
<polygon fill="#000000" stroke="#000000" points="2508.8183,-60.1094 2502,-52 2502.2731,-62.5913 2508.8183,-60.1094"/>
<text text-anchor="middle" x="2488" y="-55.8" font-family="Times,serif" font-size="14.00" fill="#000000">size</text>
</g>
<!-- initializerr13_1 -->
<!-- initializerr13_1&#45;&gt;r13 -->
<g id="edge15" class="edge">
<title>initializerr13_1&#45;&gt;r13:w</title>
<path fill="none" stroke="#0000ff" d="M827.6821,-1249.0905C810.5112,-1217.7673 780.4473,-1155.2651 806.8995,-1143.8213"/>
<polygon fill="#0000ff" stroke="#0000ff" points="807.7798,-1147.2191 817,-1142 806.5376,-1140.3302 807.7798,-1147.2191"/>
<text text-anchor="middle" x="817.5" y="-1200.8" font-family="Times,serif" font-size="14.00" fill="#000000">&quot;,&quot;</text>
</g>
<!-- r19 -->
<g id="node17" class="node">
<title>r19</title>
<g id="a_node17"><a xlink:href="file:///home/travis/build/andrewdavidmackenzie/flow/flowstdlib/data/accumulate/accumulate.html" xlink:title="accumulate_upper_left (#19)">
<ellipse fill="#ff7f50" stroke="#000000" cx="1245" cy="-805" rx="146.774" ry="18"/>
<text text-anchor="middle" x="1245" y="-801.3" font-family="Times,serif" font-size="14.00" fill="#000000">accumulate_upper_left (#19)</text>
</a>
</g>
</g>
<!-- r16&#45;&gt;r19 -->
<g id="edge17" class="edge">
<title>r16:e&#45;&gt;r19:n</title>
<path fill="none" stroke="#000000" d="M1169,-944C1221.9784,-944 1197.9142,-883.8997 1229,-841 1232.5328,-836.1246 1237.1537,-834.4254 1240.5208,-831.9668"/>
<polygon fill="#000000" stroke="#000000" points="1243.6622,-833.51 1245,-823 1237.4001,-830.3818 1243.6622,-833.51"/>
<text text-anchor="middle" x="1222" y="-826.8" font-family="Times,serif" font-size="14.00" fill="#000000">values</text>
</g>
<!-- r19&#45;&gt;r19 -->
<g id="edge23" class="edge">
<title>r19:e&#45;&gt;r19:ne</title>
<path fill="none" stroke="#000000" d="M1392,-805C1415.887,-796 1463.887,-796 1463.887,-814 1463.887,-831.1914 1347.1974,-831.9637 1273.149,-824.1576"/>
<polygon fill="#000000" stroke="#000000" points="1273.3322,-820.6559 1263,-823 1272.5389,-827.6108 1273.3322,-820.6559"/>
<text text-anchor="middle" x="1287" y="-826.8" font-family="Times,serif" font-size="14.00" fill="#000000">partial</text>
<text text-anchor="middle" x="1418" y="-808.8" font-family="Times,serif" font-size="14.00" fill="#000000">/partial</text>
</g>
<!-- r20 -->
<g id="node23" class="node">
<title>r20</title>
<g id="a_node23"><a xlink:href="file:///home/travis/build/andrewdavidmackenzie/flow/flowstdlib/data/accumulate/accumulate.html" xlink:title="accumulate_bounds (#20)">
<ellipse fill="#ff7f50" stroke="#000000" cx="763" cy="-659" rx="132.6765" ry="18"/>
<text text-anchor="middle" x="763" y="-655.3" font-family="Times,serif" font-size="14.00" fill="#000000">accumulate_bounds (#20)</text>
</a>
</g>
</g>
<!-- r19&#45;&gt;r20 -->
<g id="edge24" class="edge">
<title>r19:s&#45;&gt;r20:n</title>
<path fill="none" stroke="#000000" d="M1245,-787C1245,-735.2862 817.8296,-732.1365 767.7705,-686.1138"/>
<polygon fill="#000000" stroke="#000000" points="770.7385,-684.2365 763,-677 764.5367,-687.4828 770.7385,-684.2365"/>
<text text-anchor="middle" x="740" y="-680.8" font-family="Times,serif" font-size="14.00" fill="#000000">values</text>
<text text-anchor="middle" x="1220.5" y="-775.8" font-family="Times,serif" font-size="14.00" fill="#000000">/chunk</text>
</g>
<!-- initializerr17_1 -->
<!-- initializerr17_1&#45;&gt;r17 -->
<g id="edge18" class="edge">
<title>initializerr17_1&#45;&gt;r17:w</title>
<path fill="none" stroke="#0000ff" d="M403.1261,-1248.8239C392.0733,-1217.2702 374.3439,-1154.6628 403.0806,-1143.6678"/>
<polygon fill="#0000ff" stroke="#0000ff" points="403.7188,-1147.1097 413,-1142 402.5581,-1140.2066 403.7188,-1147.1097"/>
<text text-anchor="middle" x="400.5" y="-1200.8" font-family="Times,serif" font-size="14.00" fill="#000000">&quot;,&quot;</text>
</g>
<!-- r22 -->
<g id="node20" class="node">
<title>r22</title>
<g id="a_node20"><a xlink:href="file:///home/travis/build/andrewdavidmackenzie/flow/flowstdlib/data/accumulate/accumulate.html" xlink:title="accumulate_lower_right (#22)">
<ellipse fill="#ff7f50" stroke="#000000" cx="763" cy="-805" rx="152.9733" ry="18"/>
<text text-anchor="middle" x="763" y="-801.3" font-family="Times,serif" font-size="14.00" fill="#000000">accumulate_lower_right (#22)</text>
</a>
</g>
</g>
<!-- r23&#45;&gt;r22 -->
<g id="edge20" class="edge">
<title>r23:e&#45;&gt;r22:n</title>
<path fill="none" stroke="#000000" d="M609,-944C613.7177,-944 726.0633,-857.0974 755.8219,-830.4662"/>
<polygon fill="#000000" stroke="#000000" points="758.5924,-832.6345 763,-823 753.5463,-827.7831 758.5924,-832.6345"/>
<text text-anchor="middle" x="740" y="-826.8" font-family="Times,serif" font-size="14.00" fill="#000000">values</text>
</g>
<!-- r22&#45;&gt;r22 -->
<g id="edge27" class="edge">
<title>r22:e&#45;&gt;r22:ne</title>
<path fill="none" stroke="#000000" d="M916,-805C939.7364,-796 987.7364,-796 987.7364,-814 987.7364,-831.2266 866.9974,-831.9668 790.9569,-824.1096"/>
<polygon fill="#000000" stroke="#000000" points="791.3261,-820.6292 781,-823 790.5508,-827.5861 791.3261,-820.6292"/>
<text text-anchor="middle" x="805" y="-826.8" font-family="Times,serif" font-size="14.00" fill="#000000">partial</text>
<text text-anchor="middle" x="942" y="-808.8" font-family="Times,serif" font-size="14.00" fill="#000000">/partial</text>
</g>
<!-- r22&#45;&gt;r20 -->
<g id="edge28" class="edge">
<title>r22:s&#45;&gt;r20:n</title>
<path fill="none" stroke="#000000" d="M763,-787C763,-741.6441 763,-727.8469 763,-687.0522"/>
<polygon fill="#000000" stroke="#000000" points="766.5001,-687 763,-677 759.5001,-687 766.5001,-687"/>
<text text-anchor="middle" x="786" y="-680.8" font-family="Times,serif" font-size="14.00" fill="#000000">values</text>
<text text-anchor="middle" x="738.5" y="-775.8" font-family="Times,serif" font-size="14.00" fill="#000000">/chunk</text>
</g>
<!-- initializerr19_1 -->
<!-- initializerr19_1&#45;&gt;r19 -->
<g id="edge21" class="edge">
<title>initializerr19_1&#45;&gt;r19:n</title>
<path fill="none" stroke="#0000ff" stroke-dasharray="1,5" d="M1513.677,-928.9772C1437.2507,-903.3609 1287.6209,-851.8945 1252.5031,-830.1499"/>
<polygon fill="#0000ff" stroke="#0000ff" points="1254.654,-827.3648 1245,-823 1249.825,-832.4324 1254.654,-827.3648"/>
<text text-anchor="middle" x="1401.5" y="-877.8" font-family="Times,serif" font-size="14.00" fill="#000000">[]</text>
</g>
<!-- initializerr19_2 -->
<!-- initializerr19_2&#45;&gt;r19 -->
<g id="edge22" class="edge">
<title>initializerr19_2&#45;&gt;r19:n</title>
<path fill="none" stroke="#0000ff" d="M1302.0974,-926.2092C1280.8882,-906.2273 1250.5037,-871.5532 1245.6615,-833.3255"/>
<polygon fill="#0000ff" stroke="#0000ff" points="1249.1322,-832.7558 1245,-823 1242.1465,-833.2033 1249.1322,-832.7558"/>
<text text-anchor="middle" x="1273" y="-877.8" font-family="Times,serif" font-size="14.00" fill="#000000">2</text>
</g>
<!-- r20&#45;&gt;r20 -->
<g id="edge31" class="edge">
<title>r20:e&#45;&gt;r20:ne</title>
<path fill="none" stroke="#000000" d="M896,-659C919.5882,-650 967.5882,-650 967.5882,-668 967.5882,-685.1211 860.4755,-685.9571 791.3291,-678.2529"/>
<polygon fill="#000000" stroke="#000000" points="791.3487,-674.7297 781,-677 790.5057,-681.6788 791.3487,-674.7297"/>
<text text-anchor="middle" x="805" y="-680.8" font-family="Times,serif" font-size="14.00" fill="#000000">partial</text>
<text text-anchor="middle" x="922" y="-662.8" font-family="Times,serif" font-size="14.00" fill="#000000">/partial</text>
</g>
<!-- r9 -->
<g id="node28" class="node">
<title>r9</title>
<g id="a_node28"><a xlink:href="file:///home/travis/build/andrewdavidmackenzie/flow/flowstdlib/data/buffer/buffer.html" xlink:title="buffer_bounds (#9)">
<ellipse fill="#ff7f50" stroke="#000000" cx="1342" cy="-534" rx="100.9827" ry="18"/>
<text text-anchor="middle" x="1342" y="-530.3" font-family="Times,serif" font-size="14.00" fill="#000000">buffer_bounds (#9)</text>
</a>
</g>
</g>
<!-- r20&#45;&gt;r9 -->
<g id="edge32" class="edge">
<title>r20:s&#45;&gt;r9:n</title>
<path fill="none" stroke="#000000" d="M763,-641C763,-384.2039 1326.2762,-800.6804 1341.6783,-562.2941"/>
<polygon fill="#000000" stroke="#000000" points="1345.1858,-562.1045 1342,-552 1338.1892,-561.8858 1345.1858,-562.1045"/>
<text text-anchor="middle" x="738.5" y="-629.8" font-family="Times,serif" font-size="14.00" fill="#000000">/chunk</text>
</g>
<!-- initializerr22_1 -->
<!-- initializerr22_1&#45;&gt;r22 -->
<g id="edge25" class="edge">
<title>initializerr22_1&#45;&gt;r22:n</title>
<path fill="none" stroke="#0000ff" stroke-dasharray="1,5" d="M253.8502,-932.3471C388.51,-907.1886 697.2581,-848.4141 753.9648,-828.018"/>
<polygon fill="#0000ff" stroke="#0000ff" points="755.9571,-830.9151 763,-823 752.5584,-824.7955 755.9571,-830.9151"/>
<text text-anchor="middle" x="557.5" y="-877.8" font-family="Times,serif" font-size="14.00" fill="#000000">[]</text>
</g>
<!-- initializerr22_2 -->
<!-- initializerr22_2&#45;&gt;r22 -->
<g id="edge26" class="edge">
<title>initializerr22_2&#45;&gt;r22:n</title>
<path fill="none" stroke="#0000ff" d="M763,-925.96C763,-904.5319 763,-867.4021 763,-833.4232"/>
<polygon fill="#0000ff" stroke="#0000ff" points="766.5001,-833 763,-823 759.5001,-833 766.5001,-833"/>
<text text-anchor="middle" x="768" y="-877.8" font-family="Times,serif" font-size="14.00" fill="#000000">2</text>
</g>
<!-- initializerr20_1 -->
<!-- initializerr20_1&#45;&gt;r20 -->
<g id="edge29" class="edge">
<title>initializerr20_1&#45;&gt;r20:n</title>
<path fill="none" stroke="#0000ff" stroke-dasharray="1,5" d="M498.687,-789.5336C572.8273,-762.4012 720.8184,-706.9617 755.5728,-684.3275"/>
<polygon fill="#0000ff" stroke="#0000ff" points="758.3393,-686.5147 763,-677 753.4232,-681.5316 758.3393,-686.5147"/>
<text text-anchor="middle" x="697.5" y="-728.3" font-family="Times,serif" font-size="14.00" fill="#000000">[]</text>
</g>
<!-- initializerr20_2 -->
<!-- initializerr20_2&#45;&gt;r20 -->
<g id="edge30" class="edge">
<title>initializerr20_2&#45;&gt;r20:n</title>
<path fill="none" stroke="#0000ff" d="M271.371,-790.9229C340.3805,-772.2298 466.9664,-738.7026 576,-714 584.9164,-711.9799 717.8007,-693.7657 753.9696,-682.0096"/>
<polygon fill="#0000ff" stroke="#0000ff" points="755.9533,-684.9117 763,-677 752.5575,-678.7904 755.9533,-684.9117"/>
<text text-anchor="middle" x="581" y="-728.3" font-family="Times,serif" font-size="14.00" fill="#000000">2</text>
</g>
<!-- r9&#45;&gt;r9 -->
<g id="edge48" class="edge">
<title>r9:e&#45;&gt;r9:n</title>
<path fill="none" stroke="#000000" d="M1443,-534C1466.7411,-525 1514.7411,-525 1514.7411,-543 1514.7411,-560.0156 1411.8316,-560.9462 1351.9351,-553.3943"/>
<polygon fill="#000000" stroke="#000000" points="1352.3894,-549.9239 1342,-552 1351.4165,-556.8559 1352.3894,-549.9239"/>
</g>
<!-- r9&#45;&gt;r12 -->
<g id="edge49" class="edge">
<title>r9:e&#45;&gt;r12:n</title>
<path fill="none" stroke="#000000" d="M1443,-534C1504.0824,-534 1708,-522.0824 1708,-461 1708,-461 1708,-461 1708,-386.5 1708,-51.2693 2443.6776,-584.5606 2458.7647,-267.1414"/>
<polygon fill="#000000" stroke="#000000" points="2462.267,-267.0785 2459,-257 2455.2689,-266.9161 2462.267,-267.0785"/>
<text text-anchor="middle" x="2485" y="-260.8" font-family="Times,serif" font-size="14.00" fill="#000000">bounds</text>
</g>
<!-- initializerr1_1 -->
<!-- initializerr1_1&#45;&gt;r1 -->
<g id="edge33" class="edge">
<title>initializerr1_1&#45;&gt;r1:w</title>
<path fill="none" stroke="#0000ff" stroke-dasharray="1,5" d="M2466.6618,-999.025C2455.0666,-979.7375 2434.984,-948.805 2413,-926 2282.8728,-791.013 2234.4239,-763.7814 2060,-695 2030.5166,-683.3737 2010.3765,-702.0798 1991,-677 1989.0894,-674.5271 1987.4508,-671.2395 1986.64,-668.1512"/>
<polygon fill="#0000ff" stroke="#0000ff" points="1989.8585,-669.5332 1991,-659 1983.539,-666.5223 1989.8585,-669.5332"/>
<text text-anchor="middle" x="2346" y="-844.8" font-family="Times,serif" font-size="14.00" fill="#000000">1</text>
</g>
<!-- r4&#45;&gt;r0 -->
<g id="edge36" class="edge">
<title>r4:e&#45;&gt;r0:ne</title>
<path fill="none" stroke="#000000" d="M2719,-732C2755.4998,-732 2820.2199,-719.3854 2615,-695 2581.9881,-691.0773 2354.8946,-700.749 2302.0125,-681.9349"/>
<polygon fill="#000000" stroke="#000000" points="2303.4522,-678.7329 2293,-677 2300.0902,-684.8728 2303.4522,-678.7329"/>
<text text-anchor="middle" x="2319" y="-680.8" font-family="Times,serif" font-size="14.00" fill="#000000">control</text>
<text text-anchor="middle" x="2751" y="-735.8" font-family="Times,serif" font-size="14.00" fill="#000000">/right&#45;lte</text>
</g>
<!-- r4&#45;&gt;r4 -->
<g id="edge38" class="edge">
<title>r4:s&#45;&gt;r4:n</title>
<path fill="none" stroke="#000000" d="M2644,-714C2692.9145,-705 2790.7434,-705 2790.7434,-732 2790.7434,-757.2598 2705.1188,-758.8878 2654.0284,-751.6233"/>
<polygon fill="#000000" stroke="#000000" points="2654.4308,-748.1429 2644,-750 2653.3122,-755.053 2654.4308,-748.1429"/>
<text text-anchor="middle" x="2656.5" y="-753.8" font-family="Times,serif" font-size="14.00" fill="#000000">left</text>
<text text-anchor="middle" x="2619.5" y="-702.8" font-family="Times,serif" font-size="14.00" fill="#000000">/left&#45;gt</text>
</g>
<!-- r4&#45;&gt;r2 -->
<g id="edge37" class="edge">
<title>r4:e&#45;&gt;r2:n</title>
<path fill="none" stroke="#000000" d="M2719,-732C2727,-732 2721.4037,-721.6303 2719,-714 2704.0888,-666.6659 2655,-672.1273 2655,-622.5 2655,-622.5 2655,-622.5 2655,-534 2655,-513.3205 2657.8477,-505.8307 2658.7375,-489.273"/>
<polygon fill="#000000" stroke="#000000" points="2662.2434,-489.0862 2659,-479 2655.2457,-488.9073 2662.2434,-489.0862"/>
<text text-anchor="middle" x="2678.5" y="-482.8" font-family="Times,serif" font-size="14.00" fill="#000000">value</text>
<text text-anchor="middle" x="2751" y="-720.8" font-family="Times,serif" font-size="14.00" fill="#000000">/right&#45;lte</text>
</g>
<!-- r3 -->
<g id="node33" class="node">
<title>r3</title>
<g id="a_node33"><a xlink:href="file:///home/travis/build/andrewdavidmackenzie/flow/flowstdlib/math/add/add.html" xlink:title="add (#3)">
<ellipse fill="#ff7f50" stroke="#000000" cx="2873" cy="-461" rx="51.1914" ry="18"/>
<text text-anchor="middle" x="2873" y="-457.3" font-family="Times,serif" font-size="14.00" fill="#000000">add (#3)</text>
</a>
</g>
</g>
<!-- r4&#45;&gt;r3 -->
<g id="edge39" class="edge">
<title>r4:e&#45;&gt;r3:n</title>
<path fill="none" stroke="#000000" d="M2719,-732C2719.3539,-732 2729,-659.8512 2729,-659 2729,-659 2729,-659 2729,-534 2729,-503.7974 2758.0641,-508.4796 2786,-497 2800.9798,-490.8444 2849.9268,-495.9606 2867.0334,-487.1"/>
<polygon fill="#000000" stroke="#000000" points="2869.8871,-489.1272 2873,-479 2864.2511,-484.9756 2869.8871,-489.1272"/>
<text text-anchor="middle" x="2866" y="-482.8" font-family="Times,serif" font-size="14.00" fill="#000000">i1</text>
<text text-anchor="middle" x="2691.5" y="-735.8" font-family="Times,serif" font-size="14.00" fill="#000000">/right&#45;lt</text>
</g>
<!-- initializerr4_1 -->
<!-- initializerr4_1&#45;&gt;r4 -->
<g id="edge35" class="edge">
<title>initializerr4_1&#45;&gt;r4:ne</title>
<path fill="none" stroke="#0000ff" stroke-dasharray="1,5" d="M2693.2102,-999.0731C2687.5945,-984.5195 2681,-963.3168 2681,-944 2681,-944 2681,-944 2681,-805 2681,-788.4061 2682.4265,-783.2989 2676,-768 2673.7921,-762.744 2671.906,-759.9732 2669.4027,-757.2793"/>
<polygon fill="#0000ff" stroke="#0000ff" points="2671.5843,-754.5159 2662,-750 2666.6762,-759.507 2671.5843,-754.5159"/>
<text text-anchor="middle" x="2686" y="-877.8" font-family="Times,serif" font-size="14.00" fill="#000000">0</text>
</g>
<!-- r5 -->
<g id="node35" class="node">
<title>r5</title>
<g id="a_node35"><a xlink:href="file:///home/travis/build/andrewdavidmackenzie/flow/flowstdlib/data/enumerate/enumerate.html" xlink:title="enumerate (#5)">
<ellipse fill="#ff7f50" stroke="#000000" cx="2617" cy="-350" rx="84.485" ry="18"/>
<text text-anchor="middle" x="2617" y="-346.3" font-family="Times,serif" font-size="14.00" fill="#000000">enumerate (#5)</text>
</a>
</g>
</g>
<!-- r2&#45;&gt;r5 -->
<g id="edge45" class="edge">
<title>r2:e&#45;&gt;r5:n</title>
<path fill="none" stroke="#000000" d="M2750,-461C2758,-461 2754.0351,-449.9078 2750,-443 2717.6434,-387.6072 2627.6101,-430.5627 2617.8595,-378.1005"/>
<polygon fill="#000000" stroke="#000000" points="2621.3354,-377.6672 2617,-368 2614.3606,-378.2608 2621.3354,-377.6672"/>
</g>
<!-- r3&#45;&gt;r4 -->
<g id="edge42" class="edge">
<title>r3:se&#45;&gt;r4:ne</title>
<path fill="none" stroke="#000000" d="M2890,-444C2890,-444 2924.3454,-479 2924.3454,-479 2896.4623,-544.1208 2852.4344,-533.0389 2809,-589 2758.7025,-653.8036 2789.5247,-708.5351 2718.7434,-750 2710.2432,-754.9795 2685.8333,-757.6207 2671.309,-754.2862"/>
<polygon fill="#000000" stroke="#000000" points="2672.5472,-751.0032 2662,-750 2669.6196,-757.3616 2672.5472,-751.0032"/>
<text text-anchor="middle" x="2680" y="-753.8" font-family="Times,serif" font-size="14.00" fill="#000000">right</text>
<text text-anchor="middle" x="2907.5" y="-432.8" font-family="Times,serif" font-size="14.00" fill="#000000">/sum</text>
</g>
<!-- r3&#45;&gt;r3 -->
<g id="edge41" class="edge">
<title>r3:se&#45;&gt;r3:ne</title>
<path fill="none" stroke="#000000" d="M2890,-444C2931.1151,-435 2996.3454,-435 2996.3454,-461 2996.3454,-484.9688 2940.9092,-486.8413 2900.0353,-479.9365"/>
<polygon fill="#000000" stroke="#000000" points="2900.482,-476.4582 2890,-478 2899.1557,-483.3314 2900.482,-476.4582"/>
<text text-anchor="middle" x="2883" y="-481.8" font-family="Times,serif" font-size="14.00" fill="#000000">i2</text>
<text text-anchor="middle" x="2880.5" y="-432.8" font-family="Times,serif" font-size="14.00" fill="#000000">/i2</text>
</g>
<!-- initializerr3_1 -->
<!-- initializerr3_1&#45;&gt;r3 -->
<g id="edge40" class="edge">
<title>initializerr3_1&#45;&gt;r3:w</title>
<path fill="none" stroke="#0000ff" stroke-dasharray="1,5" d="M2876.7903,-713.7981C2851.9735,-657.7836 2781.2307,-490.2045 2811.1385,-464.3621"/>
<polygon fill="#0000ff" stroke="#0000ff" points="2812.6644,-467.5398 2821,-461 2810.4055,-460.9143 2812.6644,-467.5398"/>
<text text-anchor="middle" x="2837" y="-592.8" font-family="Times,serif" font-size="14.00" fill="#000000">1</text>
</g>
<!-- r5&#45;&gt;r12 -->
<g id="edge46" class="edge">
<title>r5:e&#45;&gt;r12:ne</title>
<path fill="none" stroke="#000000" d="M2702,-350C2710,-350 2706.6691,-338.4961 2702,-332 2642.2048,-248.8063 2556.8278,-325.4785 2483.5098,-262.9473"/>
<polygon fill="#000000" stroke="#000000" points="2485.7175,-260.2216 2476,-256 2480.9639,-265.3601 2485.7175,-260.2216"/>
<text text-anchor="middle" x="2458.5" y="-259.8" font-family="Times,serif" font-size="14.00" fill="#000000">pixel</text>
</g>
<!-- r11 -->
<g id="node37" class="node">
<title>r11</title>
<g id="a_node37"><a xlink:href="file:///home/travis/build/andrewdavidmackenzie/flow/samples/mandlebrot/render_pixel/render_pixel.html" xlink:title="p2v (#11)">
<ellipse fill="#ff7f50" stroke="#000000" cx="2517" cy="-145" rx="57.3905" ry="18"/>
<text text-anchor="middle" x="2517" y="-141.3" font-family="Times,serif" font-size="14.00" fill="#000000">p2v (#11)</text>
</a>
</g>
</g>
<!-- r12&#45;&gt;r11 -->
<g id="edge47" class="edge">
<title>r12:e&#45;&gt;r11:n</title>
<path fill="none" stroke="#000000" d="M2517,-239C2547.4792,-239 2522.953,-204.6216 2517.872,-173.0902"/>
<polygon fill="#000000" stroke="#000000" points="2521.3481,-172.6615 2517,-163 2514.3741,-173.2642 2521.3481,-172.6615"/>
<text text-anchor="middle" x="2477.5" y="-166.8" font-family="Times,serif" font-size="14.00" fill="#000000">pixel_point</text>
</g>
<!-- r11&#45;&gt;r8 -->
<g id="edge52" class="edge">
<title>r11:s&#45;&gt;r8:n</title>
<path fill="none" stroke="#000000" d="M2517,-127C2517,-97.2888 2519.3796,-87.4713 2519.9002,-62.1118"/>
<polygon fill="#000000" stroke="#000000" points="2523.401,-62.0341 2520,-52 2516.4014,-61.9649 2523.401,-62.0341"/>
<text text-anchor="middle" x="2537.5" y="-55.8" font-family="Times,serif" font-size="14.00" fill="#000000">pixel</text>
<text text-anchor="middle" x="2510" y="-115.8" font-family="Times,serif" font-size="14.00" fill="#000000">/0</text>
</g>
<!-- r11&#45;&gt;r8 -->
<g id="edge53" class="edge">
<title>r11:sw&#45;&gt;r8:ne</title>
<path fill="none" stroke="#000000" d="M2500,-128C2476.3213,-104.3213 2545.5099,-83.8751 2542.8714,-60.9288"/>
<polygon fill="#000000" stroke="#000000" points="2545.862,-59.1021 2538,-52 2539.717,-62.4548 2545.862,-59.1021"/>
<text text-anchor="middle" x="2557.5" y="-55.8" font-family="Times,serif" font-size="14.00" fill="#000000">value</text>
<text text-anchor="middle" x="2493" y="-116.8" font-family="Times,serif" font-size="14.00" fill="#000000">/1</text>
</g>
</g>
</svg>
