<?xml version="1.0" encoding="UTF-8" standalone="no"?>
<!DOCTYPE svg PUBLIC "-//W3C//DTD SVG 1.1//EN"
 "http://www.w3.org/Graphics/SVG/1.1/DTD/svg11.dtd">
<!-- Generated by graphviz version 2.40.1 (20161225.0304)
 -->
<!-- Title: mandlebrot Pages: 1 -->
<svg width="3082pt" height="1355pt"
 viewBox="0.00 0.00 3082.00 1355.00" xmlns="http://www.w3.org/2000/svg" xmlns:xlink="http://www.w3.org/1999/xlink">
<g id="graph0" class="graph" transform="scale(1 1) rotate(0) translate(4 1351)">
<title>mandlebrot</title>
<polygon fill="#ffffff" stroke="transparent" points="-4,4 -4,-1351 3078,-1351 3078,4 -4,4"/>
<text text-anchor="middle" x="1537" y="-1331.8" font-family="Times,serif" font-size="14.00" fill="#000000">/mandlebrot</text>
<g id="clust1" class="cluster">
<title>cluster_parse_args</title>
<polygon fill="none" stroke="#000000" points="101,-508 101,-1316 2373,-1316 2373,-508 101,-508"/>
<text text-anchor="middle" x="1237" y="-1300.8" font-family="Times,serif" font-size="14.00" fill="#000000">/mandlebrot/parse_args</text>
</g>
<g id="clust2" class="cluster">
<title>cluster_generate_pixels</title>
<polygon fill="none" stroke="#000000" points="2381,-213 2381,-1097 3000,-1097 3000,-213 2381,-213"/>
<text text-anchor="middle" x="2690.5" y="-1081.8" font-family="Times,serif" font-size="14.00" fill="#000000">/mandlebrot/generate_pixels</text>
</g>
<g id="clust3" class="cluster">
<title>cluster_y_sequence</title>
<polygon fill="none" stroke="#000000" points="2561,-435 2561,-1066 2992,-1066 2992,-435 2561,-435"/>
<text text-anchor="middle" x="2776.5" y="-1050.8" font-family="Times,serif" font-size="14.00" fill="#000000">/mandlebrot/generate_pixels/y&#45;sequence</text>
</g>
<g id="clust4" class="cluster">
<title>cluster_render</title>
<polygon fill="none" stroke="#000000" points="2407,-8 2407,-194 2615,-194 2615,-8 2407,-8"/>
<text text-anchor="middle" x="2511" y="-178.8" font-family="Times,serif" font-size="14.00" fill="#000000">/mandlebrot/render</text>
</g>
<!-- r9 -->
<g id="node1" class="node">
<title>r9</title>
<g id="a_node1"><a xlink:href="file:///home/travis/build/andrewdavidmackenzie/flow/flowr/src/lib/flowruntime/args/get.html" xlink:title="args (#9)">
<ellipse fill="#ff7f50" stroke="#000000" cx="615" cy="-1267" rx="54.6905" ry="18"/>
<text text-anchor="middle" x="615" y="-1263.3" font-family="Times,serif" font-size="14.00" fill="#000000">args (#9)</text>
</a>
</g>
</g>
<!-- r1 -->
<g id="node2" class="node">
<title>r1</title>
<g id="a_node2"><a xlink:href="file:///home/travis/build/andrewdavidmackenzie/flow/flowstdlib/data/buffer/buffer.html" xlink:title="filename_buffer (#1)">
<ellipse fill="#ff7f50" stroke="#000000" cx="216" cy="-1142" rx="107.4815" ry="18"/>
<text text-anchor="middle" x="216" y="-1138.3" font-family="Times,serif" font-size="14.00" fill="#000000">filename_buffer (#1)</text>
</a>
</g>
</g>
<!-- r9&#45;&gt;r1 -->
<g id="edge1" class="edge">
<title>r9:s&#45;&gt;r1:n</title>
<path fill="none" stroke="#000000" d="M615,-1249C615,-1227.6479 450.8253,-1201.714 430,-1197 386.6071,-1187.1776 241.3512,-1205.0356 218.9198,-1170.0752"/>
<polygon fill="#000000" stroke="#000000" points="222.1452,-1168.6306 216,-1160 215.4219,-1170.579 222.1452,-1168.6306"/>
<text text-anchor="middle" x="584.5" y="-1237.8" font-family="Times,serif" font-size="14.00" fill="#000000">/string/1</text>
</g>
<!-- r12 -->
<g id="node3" class="node">
<title>r12</title>
<g id="a_node3"><a xlink:href="file:///home/travis/build/andrewdavidmackenzie/flow/flowstdlib/data/ordered_split/ordered_split.html" xlink:title="split_size (#12)">
<ellipse fill="#ff7f50" stroke="#000000" cx="1458" cy="-1142" rx="83.3857" ry="18"/>
<text text-anchor="middle" x="1458" y="-1138.3" font-family="Times,serif" font-size="14.00" fill="#000000">split_size (#12)</text>
</a>
</g>
</g>
<!-- r9&#45;&gt;r12 -->
<g id="edge2" class="edge">
<title>r9:se&#45;&gt;r12:n</title>
<path fill="none" stroke="#000000" d="M632,-1250C656.5543,-1225.4457 744.9688,-1203.9069 779,-1197 796.2101,-1193.5071 1368.2927,-1180.8552 1448.6567,-1163.915"/>
<polygon fill="#000000" stroke="#000000" points="1450.1296,-1167.0928 1458,-1160 1447.4243,-1160.6366 1450.1296,-1167.0928"/>
<text text-anchor="middle" x="1436.5" y="-1163.8" font-family="Times,serif" font-size="14.00" fill="#000000">string</text>
<text text-anchor="middle" x="662.5" y="-1238.8" font-family="Times,serif" font-size="14.00" fill="#000000">/string/2</text>
</g>
<!-- r10 -->
<g id="node4" class="node">
<title>r10</title>
<g id="a_node4"><a xlink:href="file:///home/travis/build/andrewdavidmackenzie/flow/flowstdlib/data/ordered_split/ordered_split.html" xlink:title="split_upper_left (#10)">
<ellipse fill="#ff7f50" stroke="#000000" cx="930" cy="-1142" rx="113.18" ry="18"/>
<text text-anchor="middle" x="930" y="-1138.3" font-family="Times,serif" font-size="14.00" fill="#000000">split_upper_left (#10)</text>
</a>
</g>
</g>
<!-- r9&#45;&gt;r10 -->
<g id="edge3" class="edge">
<title>r9:e&#45;&gt;r10:n</title>
<path fill="none" stroke="#000000" d="M670,-1267C687.4921,-1267 688.718,-1255.3931 705,-1249 761.7127,-1226.732 780.6836,-1235.252 837,-1212 877.3519,-1195.3394 922.3414,-1205.4499 929.1247,-1170.03"/>
<polygon fill="#000000" stroke="#000000" points="932.6173,-1170.2665 930,-1160 925.6438,-1169.6578 932.6173,-1170.2665"/>
<text text-anchor="middle" x="908.5" y="-1163.8" font-family="Times,serif" font-size="14.00" fill="#000000">string</text>
<text text-anchor="middle" x="700.5" y="-1270.8" font-family="Times,serif" font-size="14.00" fill="#000000">/string/3</text>
</g>
<!-- r7 -->
<g id="node5" class="node">
<title>r7</title>
<g id="a_node5"><a xlink:href="file:///home/travis/build/andrewdavidmackenzie/flow/flowstdlib/data/ordered_split/ordered_split.html" xlink:title="split_lower_right (#7)">
<ellipse fill="#ff7f50" stroke="#000000" cx="526" cy="-1142" rx="113.18" ry="18"/>
<text text-anchor="middle" x="526" y="-1138.3" font-family="Times,serif" font-size="14.00" fill="#000000">split_lower_right (#7)</text>
</a>
</g>
</g>
<!-- r9&#45;&gt;r7 -->
<g id="edge4" class="edge">
<title>r9:se&#45;&gt;r7:n</title>
<path fill="none" stroke="#000000" d="M632,-1250C673.1399,-1208.8601 542.879,-1220.1883 527.4728,-1170.0948"/>
<polygon fill="#000000" stroke="#000000" points="530.9071,-1169.3899 526,-1160 523.9805,-1170.4006 530.9071,-1169.3899"/>
<text text-anchor="middle" x="504.5" y="-1163.8" font-family="Times,serif" font-size="14.00" fill="#000000">string</text>
<text text-anchor="middle" x="662.5" y="-1253.8" font-family="Times,serif" font-size="14.00" fill="#000000">/string/4</text>
</g>
<!-- r1&#45;&gt;r1 -->
<g id="edge54" class="edge">
<title>r1:e&#45;&gt;r1:n</title>
<path fill="none" stroke="#000000" d="M323,-1142C347.2405,-1133 395.2405,-1133 395.2405,-1151 395.2405,-1168.0508 288.0174,-1168.9499 225.9243,-1161.3474"/>
<polygon fill="#000000" stroke="#000000" points="226.38,-1157.8773 216,-1160 225.4382,-1164.8136 226.38,-1157.8773"/>
</g>
<!-- r3 -->
<g id="node38" class="node">
<title>r3</title>
<g id="a_node38"><a xlink:href="file:///home/travis/build/andrewdavidmackenzie/flow/flowr/src/lib/flowruntime/image/image_buffer.html" xlink:title="image_buffer (#3)">
<ellipse fill="#ff7f50" stroke="#000000" cx="2511" cy="-34" rx="95.5831" ry="18"/>
<text text-anchor="middle" x="2511" y="-30.3" font-family="Times,serif" font-size="14.00" fill="#000000">image_buffer (#3)</text>
</a>
</g>
</g>
<!-- r1&#45;&gt;r3 -->
<g id="edge55" class="edge">
<title>r1:e&#45;&gt;r3:w</title>
<path fill="none" stroke="#000000" d="M323,-1142C331,-1142 327.6837,-1130.4856 323,-1124 234.4618,-1001.4002 0,-1168.2274 0,-1017 0,-1017 0,-1017 0,-89.5 0,-57.0143 2232.6821,-35.405 2404.8614,-34.066"/>
<polygon fill="#000000" stroke="#000000" points="2405.023,-37.5651 2415,-34 2404.9774,-30.5653 2405.023,-37.5651"/>
<text text-anchor="middle" x="2384" y="-37.8" font-family="Times,serif" font-size="14.00" fill="#000000">filename</text>
</g>
<!-- r8 -->
<g id="node7" class="node">
<title>r8</title>
<g id="a_node7"><a xlink:href="file:///home/travis/build/andrewdavidmackenzie/flow/flowstdlib/fmt/to_json/to_json.html" xlink:title="size_to_json (#8)">
<ellipse fill="#ff7f50" stroke="#000000" cx="1803" cy="-944" rx="90.1842" ry="18"/>
<text text-anchor="middle" x="1803" y="-940.3" font-family="Times,serif" font-size="14.00" fill="#000000">size_to_json (#8)</text>
</a>
</g>
</g>
<!-- r12&#45;&gt;r8 -->
<g id="edge6" class="edge">
<title>r12:e&#45;&gt;r8:n</title>
<path fill="none" stroke="#000000" d="M1542,-1142C1679.4711,-1142 1797.1239,-1104.7966 1802.7867,-972.1395"/>
<polygon fill="#000000" stroke="#000000" points="1806.2888,-972.0714 1803,-962 1799.2904,-971.9241 1806.2888,-972.0714"/>
</g>
<!-- r16 -->
<g id="node16" class="node">
<title>r16</title>
<g id="a_node16"><a xlink:href="file:///home/travis/build/andrewdavidmackenzie/flow/flowstdlib/fmt/to_json/to_json.html" xlink:title="upper_left_to_json (#16)">
<ellipse fill="#ff7f50" stroke="#000000" cx="1043" cy="-944" rx="126.1777" ry="18"/>
<text text-anchor="middle" x="1043" y="-940.3" font-family="Times,serif" font-size="14.00" fill="#000000">upper_left_to_json (#16)</text>
</a>
</g>
</g>
<!-- r10&#45;&gt;r16 -->
<g id="edge16" class="edge">
<title>r10:e&#45;&gt;r16:n</title>
<path fill="none" stroke="#000000" d="M1043,-1142C1119.5625,-1142 1049.5796,-1050.4091 1043.4241,-972.4138"/>
<polygon fill="#000000" stroke="#000000" points="1046.9041,-971.8493 1043,-962 1039.9099,-972.1342 1046.9041,-971.8493"/>
</g>
<!-- r13 -->
<g id="node19" class="node">
<title>r13</title>
<g id="a_node19"><a xlink:href="file:///home/travis/build/andrewdavidmackenzie/flow/flowstdlib/fmt/to_json/to_json.html" xlink:title="lower_right_to_json (#13)">
<ellipse fill="#ff7f50" stroke="#000000" cx="477" cy="-944" rx="131.8766" ry="18"/>
<text text-anchor="middle" x="477" y="-940.3" font-family="Times,serif" font-size="14.00" fill="#000000">lower_right_to_json (#13)</text>
</a>
</g>
</g>
<!-- r7&#45;&gt;r13 -->
<g id="edge19" class="edge">
<title>r7:e&#45;&gt;r13:n</title>
<path fill="none" stroke="#000000" d="M639,-1142C647,-1142 642.0615,-1131.391 639,-1124 601.4038,-1033.2347 485.5469,-1061.5982 477.4472,-972.2474"/>
<polygon fill="#000000" stroke="#000000" points="480.9327,-971.8379 477,-962 473.9394,-972.1431 480.9327,-971.8379"/>
</g>
<!-- initializerr12_1 -->
<!-- initializerr12_1&#45;&gt;r12 -->
<g id="edge5" class="edge">
<title>initializerr12_1&#45;&gt;r12:w</title>
<path fill="none" stroke="#0000ff" d="M1366.692,-1248.8239C1354.8853,-1217.2702 1335.6589,-1154.6628 1364.1234,-1143.6678"/>
<polygon fill="#0000ff" stroke="#0000ff" points="1364.7224,-1147.1163 1374,-1142 1363.5568,-1140.214 1364.7224,-1147.1163"/>
<text text-anchor="middle" x="1365" y="-1200.8" font-family="Times,serif" font-size="14.00" fill="#000000">&quot;x&quot;</text>
</g>
<!-- r17 -->
<g id="node8" class="node">
<title>r17</title>
<g id="a_node8"><a xlink:href="file:///home/travis/build/andrewdavidmackenzie/flow/flowstdlib/data/accumulate/accumulate.html" xlink:title="accumulate_size (#17)">
<ellipse fill="#ff7f50" stroke="#000000" cx="2047" cy="-805" rx="116.9792" ry="18"/>
<text text-anchor="middle" x="2047" y="-801.3" font-family="Times,serif" font-size="14.00" fill="#000000">accumulate_size (#17)</text>
</a>
</g>
</g>
<!-- r8&#45;&gt;r17 -->
<g id="edge7" class="edge">
<title>r8:e&#45;&gt;r17:n</title>
<path fill="none" stroke="#000000" d="M1894,-944C1898.6988,-944 2010.3063,-857.081 2039.8691,-830.4596"/>
<polygon fill="#000000" stroke="#000000" points="2042.62,-832.6471 2047,-823 2037.56,-827.8101 2042.62,-832.6471"/>
<text text-anchor="middle" x="2024" y="-826.8" font-family="Times,serif" font-size="14.00" fill="#000000">values</text>
</g>
<!-- r17&#45;&gt;r17 -->
<g id="edge10" class="edge">
<title>r17:e&#45;&gt;r17:ne</title>
<path fill="none" stroke="#000000" d="M2164,-805C2187.9896,-796 2235.9896,-796 2235.9896,-814 2235.9896,-831.0859 2138.6861,-831.9536 2074.9252,-824.3003"/>
<polygon fill="#000000" stroke="#000000" points="2075.3699,-820.8287 2065,-823 2074.4606,-827.7694 2075.3699,-820.8287"/>
<text text-anchor="middle" x="2089" y="-826.8" font-family="Times,serif" font-size="14.00" fill="#000000">partial</text>
<text text-anchor="middle" x="2190" y="-808.8" font-family="Times,serif" font-size="14.00" fill="#000000">/partial</text>
</g>
<!-- r23 -->
<g id="node11" class="node">
<title>r23</title>
<g id="a_node11"><a xlink:href="file:///home/travis/build/andrewdavidmackenzie/flow/flowstdlib/math/subtract/subtract.html" xlink:title="height (#23)">
<ellipse fill="#ff7f50" stroke="#000000" cx="2026" cy="-659" rx="69.5877" ry="18"/>
<text text-anchor="middle" x="2026" y="-655.3" font-family="Times,serif" font-size="14.00" fill="#000000">height (#23)</text>
</a>
</g>
</g>
<!-- r17&#45;&gt;r23 -->
<g id="edge11" class="edge">
<title>r17:sw&#45;&gt;r23:n</title>
<path fill="none" stroke="#000000" d="M2029,-787C2015.7857,-773.7857 2000.9933,-784.7914 1991,-769 1969.5249,-735.0651 2016.9701,-722.7721 2024.8986,-687.1428"/>
<polygon fill="#000000" stroke="#000000" points="2028.3999,-687.3194 2026,-677 2021.4408,-686.5637 2028.3999,-687.3194"/>
<text text-anchor="middle" x="2019" y="-680.8" font-family="Times,serif" font-size="14.00" fill="#000000">i1</text>
<text text-anchor="middle" x="1997.5" y="-775.8" font-family="Times,serif" font-size="14.00" fill="#000000">/chunk/1</text>
</g>
<!-- r18 -->
<g id="node12" class="node">
<title>r18</title>
<g id="a_node12"><a xlink:href="file:///home/travis/build/andrewdavidmackenzie/flow/flowstdlib/control/join/join.html" xlink:title="width&#45;gate (#18)">
<ellipse fill="#ff7f50" stroke="#000000" cx="2257" cy="-659" rx="89.8845" ry="18"/>
<text text-anchor="middle" x="2257" y="-655.3" font-family="Times,serif" font-size="14.00" fill="#000000">width&#45;gate (#18)</text>
</a>
</g>
</g>
<!-- r17&#45;&gt;r18 -->
<g id="edge12" class="edge">
<title>r17:s&#45;&gt;r18:n</title>
<path fill="none" stroke="#000000" d="M2047,-787C2047,-760.857 2079.18,-779.7734 2103,-769 2172.3801,-737.6204 2249.7082,-754.9865 2256.5156,-687.1512"/>
<polygon fill="#000000" stroke="#000000" points="2260.0193,-687.1555 2257,-677 2253.0273,-686.8218 2260.0193,-687.1555"/>
<text text-anchor="middle" x="2241" y="-680.8" font-family="Times,serif" font-size="14.00" fill="#000000">data</text>
<text text-anchor="middle" x="2078.5" y="-775.8" font-family="Times,serif" font-size="14.00" fill="#000000">/chunk/0</text>
</g>
<!-- r6 -->
<g id="node13" class="node">
<title>r6</title>
<g id="a_node13"><a xlink:href="file:///home/travis/build/andrewdavidmackenzie/flow/flowstdlib/data/buffer/buffer.html" xlink:title="buffer_size (#6)">
<ellipse fill="#ff7f50" stroke="#000000" cx="1521" cy="-659" rx="85.2851" ry="18"/>
<text text-anchor="middle" x="1521" y="-655.3" font-family="Times,serif" font-size="14.00" fill="#000000">buffer_size (#6)</text>
</a>
</g>
</g>
<!-- r17&#45;&gt;r6 -->
<g id="edge13" class="edge">
<title>r17:s&#45;&gt;r6:n</title>
<path fill="none" stroke="#000000" d="M2047,-787C2047,-730.5566 1576.9581,-735.8855 1525.5473,-686.1984"/>
<polygon fill="#000000" stroke="#000000" points="1528.5692,-684.4133 1521,-677 1522.2941,-687.5155 1528.5692,-684.4133"/>
<text text-anchor="middle" x="2022.5" y="-775.8" font-family="Times,serif" font-size="14.00" fill="#000000">/chunk</text>
</g>
<!-- r4 -->
<g id="node14" class="node">
<title>r4</title>
<g id="a_node14"><a xlink:href="file:///home/travis/build/andrewdavidmackenzie/flow/flowstdlib/data/buffer/buffer.html" xlink:title="size_buffer (#4)">
<ellipse fill="#ff7f50" stroke="#000000" cx="1781" cy="-659" rx="85.2851" ry="18"/>
<text text-anchor="middle" x="1781" y="-655.3" font-family="Times,serif" font-size="14.00" fill="#000000">size_buffer (#4)</text>
</a>
</g>
</g>
<!-- r17&#45;&gt;r4 -->
<g id="edge14" class="edge">
<title>r17:s&#45;&gt;r4:n</title>
<path fill="none" stroke="#000000" d="M2047,-787C2047,-745.3359 2060.1851,-722.6296 2029,-695 2010.5826,-678.6824 1828.2544,-699.0676 1788.5904,-684.2041"/>
<polygon fill="#000000" stroke="#000000" points="1790.6627,-681.3455 1781,-677 1785.8438,-686.4228 1790.6627,-681.3455"/>
<text text-anchor="middle" x="2022.5" y="-790.8" font-family="Times,serif" font-size="14.00" fill="#000000">/chunk</text>
</g>
<!-- initializerr17_1 -->
<!-- initializerr17_1&#45;&gt;r17 -->
<g id="edge8" class="edge">
<title>initializerr17_1&#45;&gt;r17:n</title>
<path fill="none" stroke="#0000ff" stroke-dasharray="1,5" d="M2247.4129,-927.7589C2190.4978,-901.5543 2082.4916,-850.8106 2054.0225,-830.2694"/>
<polygon fill="#0000ff" stroke="#0000ff" points="2056.4652,-827.7604 2047,-823 2051.4306,-832.624 2056.4652,-827.7604"/>
<text text-anchor="middle" x="2166.5" y="-877.8" font-family="Times,serif" font-size="14.00" fill="#000000">[]</text>
</g>
<!-- initializerr17_2 -->
<!-- initializerr17_2&#45;&gt;r17 -->
<g id="edge9" class="edge">
<title>initializerr17_2&#45;&gt;r17:n</title>
<path fill="none" stroke="#0000ff" d="M2047,-925.96C2047,-904.5319 2047,-867.4021 2047,-833.4232"/>
<polygon fill="#0000ff" stroke="#0000ff" points="2050.5001,-833 2047,-823 2043.5001,-833 2050.5001,-833"/>
<text text-anchor="middle" x="2052" y="-877.8" font-family="Times,serif" font-size="14.00" fill="#000000">2</text>
</g>
<!-- r21 -->
<g id="node30" class="node">
<title>r21</title>
<g id="a_node30"><a xlink:href="file:///home/travis/build/andrewdavidmackenzie/flow/flowstdlib/control/compare_switch/compare_switch.html" xlink:title="compare (#21)">
<ellipse fill="#ff7f50" stroke="#000000" cx="2650" cy="-732" rx="80.6858" ry="18"/>
<text text-anchor="middle" x="2650" y="-728.3" font-family="Times,serif" font-size="14.00" fill="#000000">compare (#21)</text>
</a>
</g>
</g>
<!-- r23&#45;&gt;r21 -->
<g id="edge34" class="edge">
<title>r23:se&#45;&gt;r21:n</title>
<path fill="none" stroke="#000000" d="M2044,-641C2052.0993,-632.9007 2084.9478,-636.65 2095.5438,-641 2116.609,-649.6479 2111.1518,-667.8413 2132,-677 2162.5049,-690.4009 2708.0255,-689.4879 2730.5928,-714 2730.5928,-714 2680.4142,-736.4143 2659.245,-745.8703"/>
<polygon fill="#000000" stroke="#000000" points="2657.703,-742.7258 2650,-750 2660.558,-749.1171 2657.703,-742.7258"/>
<text text-anchor="middle" x="2637.5" y="-753.8" font-family="Times,serif" font-size="14.00" fill="#000000">left</text>
<text text-anchor="middle" x="2029.5" y="-629.8" font-family="Times,serif" font-size="14.00" fill="#000000">/diff</text>
</g>
<!-- r18&#45;&gt;r18 -->
<g id="edge43" class="edge">
<title>r18:e&#45;&gt;r18:n</title>
<path fill="none" stroke="#000000" d="M2347,-659C2370.692,-650 2418.692,-650 2418.692,-668 2418.692,-684.9453 2323.1595,-685.9382 2266.9967,-678.4875"/>
<polygon fill="#000000" stroke="#000000" points="2267.4063,-675.01 2257,-677 2266.3759,-681.9338 2267.4063,-675.01"/>
<text text-anchor="middle" x="2273" y="-680.8" font-family="Times,serif" font-size="14.00" fill="#000000">data</text>
</g>
<!-- r22 -->
<g id="node32" class="node">
<title>r22</title>
<g id="a_node32"><a xlink:href="file:///home/travis/build/andrewdavidmackenzie/flow/flowstdlib/data/duplicate/duplicate.html" xlink:title="y&#45;duplicator (#22)">
<ellipse fill="#ff7f50" stroke="#000000" cx="2665" cy="-461" rx="96.3833" ry="18"/>
<text text-anchor="middle" x="2665" y="-457.3" font-family="Times,serif" font-size="14.00" fill="#000000">y&#45;duplicator (#22)</text>
</a>
</g>
</g>
<!-- r18&#45;&gt;r22 -->
<g id="edge44" class="edge">
<title>r18:e&#45;&gt;r22:ne</title>
<path fill="none" stroke="#000000" d="M2347,-659C2496.5798,-659 2507.8322,-563.1295 2642,-497 2652.8776,-491.6386 2670.9485,-491.3528 2680.2223,-488.7634"/>
<polygon fill="#000000" stroke="#000000" points="2683.6299,-489.5761 2683,-479 2676.8971,-487.6605 2683.6299,-489.5761"/>
<text text-anchor="middle" x="2661.5" y="-482.8" font-family="Times,serif" font-size="14.00" fill="#000000">factor</text>
</g>
<!-- r6&#45;&gt;r6 -->
<g id="edge50" class="edge">
<title>r6:e&#45;&gt;r6:n</title>
<path fill="none" stroke="#000000" d="M1607,-659C1630.1424,-650 1678.1424,-650 1678.1424,-668 1678.1424,-684.9102 1585.6827,-685.934 1531.0557,-678.5338"/>
<polygon fill="#000000" stroke="#000000" points="1531.4134,-675.048 1521,-677 1530.3579,-681.9679 1531.4134,-675.048"/>
</g>
<!-- r0 -->
<g id="node36" class="node">
<title>r0</title>
<g id="a_node36"><a xlink:href="file:///home/travis/build/andrewdavidmackenzie/flow/samples/mandlebrot/pixel_to_point/pixel_to_point.html" xlink:title="p2p (#0)">
<ellipse fill="#ff7f50" stroke="#000000" cx="2441" cy="-239" rx="51.9908" ry="18"/>
<text text-anchor="middle" x="2441" y="-235.3" font-family="Times,serif" font-size="14.00" fill="#000000">p2p (#0)</text>
</a>
</g>
</g>
<!-- r6&#45;&gt;r0 -->
<g id="edge51" class="edge">
<title>r6:e&#45;&gt;r0:nw</title>
<path fill="none" stroke="#000000" d="M1607,-659C1607.6583,-659 1786,-597.1583 1786,-596.5 1786,-596.5 1786,-596.5 1786,-294.5 1786,-155.7933 2298.6625,-347.0634 2416.2304,-262.5685"/>
<polygon fill="#000000" stroke="#000000" points="2418.623,-265.129 2424,-256 2414.1037,-259.7833 2418.623,-265.129"/>
<text text-anchor="middle" x="2410" y="-259.8" font-family="Times,serif" font-size="14.00" fill="#000000">size</text>
</g>
<!-- r4&#45;&gt;r4 -->
<g id="edge56" class="edge">
<title>r4:e&#45;&gt;r4:n</title>
<path fill="none" stroke="#000000" d="M1867,-659C1890.1424,-650 1938.1424,-650 1938.1424,-668 1938.1424,-684.9102 1845.6827,-685.934 1791.0557,-678.5338"/>
<polygon fill="#000000" stroke="#000000" points="1791.4134,-675.048 1781,-677 1790.3579,-681.9679 1791.4134,-675.048"/>
</g>
<!-- r4&#45;&gt;r3 -->
<g id="edge57" class="edge">
<title>r4:e&#45;&gt;r3:nw</title>
<path fill="none" stroke="#000000" d="M1867,-659C1891.877,-659 1895.8212,-646.8522 1920,-641 2158.0104,-583.3922 2787.0511,-580.2986 3010,-479 3044.0141,-463.5454 3074,-461.8604 3074,-424.5 3074,-424.5 3074,-424.5 3074,-89.5 3074,-30.6221 2554.8162,-85.7485 2496.0134,-61.6411"/>
<polygon fill="#000000" stroke="#000000" points="2499.3239,-60.5005 2493,-52 2492.6427,-62.5888 2499.3239,-60.5005"/>
<text text-anchor="middle" x="2479" y="-55.8" font-family="Times,serif" font-size="14.00" fill="#000000">size</text>
</g>
<!-- initializerr10_1 -->
<!-- initializerr10_1&#45;&gt;r10 -->
<g id="edge15" class="edge">
<title>initializerr10_1&#45;&gt;r10:w</title>
<path fill="none" stroke="#0000ff" d="M814.8111,-1248.8239C801.5335,-1217.4056 779.4134,-1155.1997 806.8348,-1143.8122"/>
<polygon fill="#0000ff" stroke="#0000ff" points="807.7695,-1147.2008 817,-1142 806.5409,-1140.3095 807.7695,-1147.2008"/>
<text text-anchor="middle" x="809.5" y="-1200.8" font-family="Times,serif" font-size="14.00" fill="#000000">&quot;,&quot;</text>
</g>
<!-- r14 -->
<g id="node17" class="node">
<title>r14</title>
<g id="a_node17"><a xlink:href="file:///home/travis/build/andrewdavidmackenzie/flow/flowstdlib/data/accumulate/accumulate.html" xlink:title="accumulate_upper_left (#14)">
<ellipse fill="#ff7f50" stroke="#000000" cx="1246" cy="-805" rx="146.774" ry="18"/>
<text text-anchor="middle" x="1246" y="-801.3" font-family="Times,serif" font-size="14.00" fill="#000000">accumulate_upper_left (#14)</text>
</a>
</g>
</g>
<!-- r16&#45;&gt;r14 -->
<g id="edge17" class="edge">
<title>r16:e&#45;&gt;r14:n</title>
<path fill="none" stroke="#000000" d="M1169,-944C1222.2035,-944 1198.6268,-883.9691 1230,-841 1233.5504,-836.1374 1238.1691,-834.4366 1241.5309,-831.9741"/>
<polygon fill="#000000" stroke="#000000" points="1244.6751,-833.5117 1246,-823 1238.4091,-830.3912 1244.6751,-833.5117"/>
<text text-anchor="middle" x="1223" y="-826.8" font-family="Times,serif" font-size="14.00" fill="#000000">values</text>
</g>
<!-- r14&#45;&gt;r14 -->
<g id="edge23" class="edge">
<title>r14:e&#45;&gt;r14:ne</title>
<path fill="none" stroke="#000000" d="M1393,-805C1416.887,-796 1464.887,-796 1464.887,-814 1464.887,-831.1914 1348.1974,-831.9637 1274.149,-824.1576"/>
<polygon fill="#000000" stroke="#000000" points="1274.3322,-820.6559 1264,-823 1273.5389,-827.6108 1274.3322,-820.6559"/>
<text text-anchor="middle" x="1288" y="-826.8" font-family="Times,serif" font-size="14.00" fill="#000000">partial</text>
<text text-anchor="middle" x="1419" y="-808.8" font-family="Times,serif" font-size="14.00" fill="#000000">/partial</text>
</g>
<!-- r15 -->
<g id="node23" class="node">
<title>r15</title>
<g id="a_node23"><a xlink:href="file:///home/travis/build/andrewdavidmackenzie/flow/flowstdlib/data/accumulate/accumulate.html" xlink:title="accumulate_bounds (#15)">
<ellipse fill="#ff7f50" stroke="#000000" cx="763" cy="-659" rx="132.6765" ry="18"/>
<text text-anchor="middle" x="763" y="-655.3" font-family="Times,serif" font-size="14.00" fill="#000000">accumulate_bounds (#15)</text>
</a>
</g>
</g>
<!-- r14&#45;&gt;r15 -->
<g id="edge24" class="edge">
<title>r14:s&#45;&gt;r15:n</title>
<path fill="none" stroke="#000000" d="M1246,-787C1246,-735.1842 817.9433,-732.2205 767.7804,-686.1296"/>
<polygon fill="#000000" stroke="#000000" points="770.7395,-684.2354 763,-677 764.5381,-687.4826 770.7395,-684.2354"/>
<text text-anchor="middle" x="740" y="-680.8" font-family="Times,serif" font-size="14.00" fill="#000000">values</text>
<text text-anchor="middle" x="1221.5" y="-775.8" font-family="Times,serif" font-size="14.00" fill="#000000">/chunk</text>
</g>
<!-- initializerr7_1 -->
<!-- initializerr7_1&#45;&gt;r7 -->
<g id="edge18" class="edge">
<title>initializerr7_1&#45;&gt;r7:w</title>
<path fill="none" stroke="#0000ff" d="M404.8372,-1248.8239C393.2825,-1217.2702 374.5563,-1154.6628 403.1098,-1143.6678"/>
<polygon fill="#0000ff" stroke="#0000ff" points="403.7212,-1147.1142 413,-1142 402.5572,-1140.2116 403.7212,-1147.1142"/>
<text text-anchor="middle" x="402.5" y="-1200.8" font-family="Times,serif" font-size="14.00" fill="#000000">&quot;,&quot;</text>
</g>
<!-- r11 -->
<g id="node20" class="node">
<title>r11</title>
<g id="a_node20"><a xlink:href="file:///home/travis/build/andrewdavidmackenzie/flow/flowstdlib/data/accumulate/accumulate.html" xlink:title="accumulate_lower_right (#11)">
<ellipse fill="#ff7f50" stroke="#000000" cx="763" cy="-805" rx="152.9733" ry="18"/>
<text text-anchor="middle" x="763" y="-801.3" font-family="Times,serif" font-size="14.00" fill="#000000">accumulate_lower_right (#11)</text>
</a>
</g>
</g>
<!-- r13&#45;&gt;r11 -->
<g id="edge20" class="edge">
<title>r13:e&#45;&gt;r11:n</title>
<path fill="none" stroke="#000000" d="M609,-944C613.7177,-944 726.0633,-857.0974 755.8219,-830.4662"/>
<polygon fill="#000000" stroke="#000000" points="758.5924,-832.6345 763,-823 753.5463,-827.7831 758.5924,-832.6345"/>
<text text-anchor="middle" x="740" y="-826.8" font-family="Times,serif" font-size="14.00" fill="#000000">values</text>
</g>
<!-- r11&#45;&gt;r11 -->
<g id="edge27" class="edge">
<title>r11:e&#45;&gt;r11:ne</title>
<path fill="none" stroke="#000000" d="M916,-805C939.7364,-796 987.7364,-796 987.7364,-814 987.7364,-831.2266 866.9974,-831.9668 790.9569,-824.1096"/>
<polygon fill="#000000" stroke="#000000" points="791.3261,-820.6292 781,-823 790.5508,-827.5861 791.3261,-820.6292"/>
<text text-anchor="middle" x="805" y="-826.8" font-family="Times,serif" font-size="14.00" fill="#000000">partial</text>
<text text-anchor="middle" x="942" y="-808.8" font-family="Times,serif" font-size="14.00" fill="#000000">/partial</text>
</g>
<!-- r11&#45;&gt;r15 -->
<g id="edge28" class="edge">
<title>r11:s&#45;&gt;r15:n</title>
<path fill="none" stroke="#000000" d="M763,-787C763,-741.6441 763,-727.8469 763,-687.0522"/>
<polygon fill="#000000" stroke="#000000" points="766.5001,-687 763,-677 759.5001,-687 766.5001,-687"/>
<text text-anchor="middle" x="786" y="-680.8" font-family="Times,serif" font-size="14.00" fill="#000000">values</text>
<text text-anchor="middle" x="738.5" y="-775.8" font-family="Times,serif" font-size="14.00" fill="#000000">/chunk</text>
</g>
<!-- initializerr14_1 -->
<!-- initializerr14_1&#45;&gt;r14 -->
<g id="edge21" class="edge">
<title>initializerr14_1&#45;&gt;r14:n</title>
<path fill="none" stroke="#0000ff" stroke-dasharray="1,5" d="M1513.8214,-928.9704C1437.6384,-903.3435 1288.4852,-851.8599 1253.4793,-830.138"/>
<polygon fill="#0000ff" stroke="#0000ff" points="1255.6506,-827.3722 1246,-823 1250.8177,-832.4361 1255.6506,-827.3722"/>
<text text-anchor="middle" x="1402.5" y="-877.8" font-family="Times,serif" font-size="14.00" fill="#000000">[]</text>
</g>
<!-- initializerr14_2 -->
<!-- initializerr14_2&#45;&gt;r14 -->
<g id="edge22" class="edge">
<title>initializerr14_2&#45;&gt;r14:n</title>
<path fill="none" stroke="#0000ff" d="M1302.7692,-926.5398C1281.8268,-906.5821 1251.4958,-871.6856 1246.6606,-833.3511"/>
<polygon fill="#0000ff" stroke="#0000ff" points="1250.1299,-832.7568 1246,-823 1243.1441,-833.2026 1250.1299,-832.7568"/>
<text text-anchor="middle" x="1274" y="-877.8" font-family="Times,serif" font-size="14.00" fill="#000000">2</text>
</g>
<!-- r15&#45;&gt;r15 -->
<g id="edge31" class="edge">
<title>r15:e&#45;&gt;r15:ne</title>
<path fill="none" stroke="#000000" d="M896,-659C919.5882,-650 967.5882,-650 967.5882,-668 967.5882,-685.1211 860.4755,-685.9571 791.3291,-678.2529"/>
<polygon fill="#000000" stroke="#000000" points="791.3487,-674.7297 781,-677 790.5057,-681.6788 791.3487,-674.7297"/>
<text text-anchor="middle" x="805" y="-680.8" font-family="Times,serif" font-size="14.00" fill="#000000">partial</text>
<text text-anchor="middle" x="922" y="-662.8" font-family="Times,serif" font-size="14.00" fill="#000000">/partial</text>
</g>
<!-- r2 -->
<g id="node28" class="node">
<title>r2</title>
<g id="a_node28"><a xlink:href="file:///home/travis/build/andrewdavidmackenzie/flow/flowstdlib/data/buffer/buffer.html" xlink:title="buffer_bounds (#2)">
<ellipse fill="#ff7f50" stroke="#000000" cx="1300" cy="-534" rx="100.9827" ry="18"/>
<text text-anchor="middle" x="1300" y="-530.3" font-family="Times,serif" font-size="14.00" fill="#000000">buffer_bounds (#2)</text>
</a>
</g>
</g>
<!-- r15&#45;&gt;r2 -->
<g id="edge32" class="edge">
<title>r15:s&#45;&gt;r2:n</title>
<path fill="none" stroke="#000000" d="M763,-641C763,-402.6214 1284.3828,-782.4913 1299.6577,-562.2254"/>
<polygon fill="#000000" stroke="#000000" points="1303.1634,-562.1115 1300,-552 1296.1673,-561.8773 1303.1634,-562.1115"/>
<text text-anchor="middle" x="738.5" y="-629.8" font-family="Times,serif" font-size="14.00" fill="#000000">/chunk</text>
</g>
<!-- initializerr11_1 -->
<!-- initializerr11_1&#45;&gt;r11 -->
<g id="edge25" class="edge">
<title>initializerr11_1&#45;&gt;r11:n</title>
<path fill="none" stroke="#0000ff" stroke-dasharray="1,5" d="M253.8502,-932.3471C388.51,-907.1886 697.2581,-848.4141 753.9648,-828.018"/>
<polygon fill="#0000ff" stroke="#0000ff" points="755.9571,-830.9151 763,-823 752.5584,-824.7955 755.9571,-830.9151"/>
<text text-anchor="middle" x="557.5" y="-877.8" font-family="Times,serif" font-size="14.00" fill="#000000">[]</text>
</g>
<!-- initializerr11_2 -->
<!-- initializerr11_2&#45;&gt;r11 -->
<g id="edge26" class="edge">
<title>initializerr11_2&#45;&gt;r11:n</title>
<path fill="none" stroke="#0000ff" d="M763,-925.96C763,-904.5319 763,-867.4021 763,-833.4232"/>
<polygon fill="#0000ff" stroke="#0000ff" points="766.5001,-833 763,-823 759.5001,-833 766.5001,-833"/>
<text text-anchor="middle" x="768" y="-877.8" font-family="Times,serif" font-size="14.00" fill="#000000">2</text>
</g>
<!-- initializerr15_1 -->
<!-- initializerr15_1&#45;&gt;r15 -->
<g id="edge29" class="edge">
<title>initializerr15_1&#45;&gt;r15:n</title>
<path fill="none" stroke="#0000ff" stroke-dasharray="1,5" d="M498.687,-789.5336C572.8273,-762.4012 720.8184,-706.9617 755.5728,-684.3275"/>
<polygon fill="#0000ff" stroke="#0000ff" points="758.3393,-686.5147 763,-677 753.4232,-681.5316 758.3393,-686.5147"/>
<text text-anchor="middle" x="697.5" y="-728.3" font-family="Times,serif" font-size="14.00" fill="#000000">[]</text>
</g>
<!-- initializerr15_2 -->
<!-- initializerr15_2&#45;&gt;r15 -->
<g id="edge30" class="edge">
<title>initializerr15_2&#45;&gt;r15:n</title>
<path fill="none" stroke="#0000ff" d="M271.371,-790.9229C340.3805,-772.2298 466.9664,-738.7026 576,-714 584.9164,-711.9799 717.8007,-693.7657 753.9696,-682.0096"/>
<polygon fill="#0000ff" stroke="#0000ff" points="755.9533,-684.9117 763,-677 752.5575,-678.7904 755.9533,-684.9117"/>
<text text-anchor="middle" x="581" y="-728.3" font-family="Times,serif" font-size="14.00" fill="#000000">2</text>
</g>
<!-- r2&#45;&gt;r2 -->
<g id="edge48" class="edge">
<title>r2:e&#45;&gt;r2:n</title>
<path fill="none" stroke="#000000" d="M1401,-534C1424.7411,-525 1472.7411,-525 1472.7411,-543 1472.7411,-560.0156 1369.8316,-560.9462 1309.9351,-553.3943"/>
<polygon fill="#000000" stroke="#000000" points="1310.3894,-549.9239 1300,-552 1309.4165,-556.8559 1310.3894,-549.9239"/>
</g>
<!-- r2&#45;&gt;r0 -->
<g id="edge49" class="edge">
<title>r2:e&#45;&gt;r0:n</title>
<path fill="none" stroke="#000000" d="M1401,-534C1456.5333,-534 1640,-516.5333 1640,-461 1640,-461 1640,-461 1640,-386.5 1640,-29.3111 2425.8192,-606.4403 2440.7835,-267.0436"/>
<polygon fill="#000000" stroke="#000000" points="2444.2836,-267.0731 2441,-257 2437.2852,-266.9222 2444.2836,-267.0731"/>
<text text-anchor="middle" x="2467" y="-260.8" font-family="Times,serif" font-size="14.00" fill="#000000">bounds</text>
</g>
<!-- initializerr23_1 -->
<!-- initializerr23_1&#45;&gt;r23 -->
<g id="edge33" class="edge">
<title>initializerr23_1&#45;&gt;r23:w</title>
<path fill="none" stroke="#0000ff" stroke-dasharray="1,5" d="M2459.3592,-999.1175C2446.392,-979.9091 2424.1847,-949.0437 2401,-926 2268.0167,-793.8258 2224.471,-758.3446 2048,-695 2008.7856,-680.9239 1982.482,-709.1653 1956,-677 1954.0137,-674.5875 1952.3585,-671.3131 1951.5557,-668.2184"/>
<polygon fill="#0000ff" stroke="#0000ff" points="1954.8099,-669.5278 1956,-659 1948.5044,-666.4878 1954.8099,-669.5278"/>
<text text-anchor="middle" x="2333" y="-844.8" font-family="Times,serif" font-size="14.00" fill="#000000">1</text>
</g>
<!-- r21&#45;&gt;r18 -->
<g id="edge36" class="edge">
<title>r21:e&#45;&gt;r18:ne</title>
<path fill="none" stroke="#000000" d="M2731,-732C2739,-732 2736.287,-720.004 2731,-714 2708.9406,-688.949 2615.2359,-698.0898 2582,-695 2550.5022,-692.0718 2334.912,-699.8463 2283.9125,-681.8452"/>
<polygon fill="#000000" stroke="#000000" points="2285.4574,-678.7013 2275,-677 2282.114,-684.8512 2285.4574,-678.7013"/>
<text text-anchor="middle" x="2301" y="-680.8" font-family="Times,serif" font-size="14.00" fill="#000000">control</text>
<text text-anchor="middle" x="2763" y="-735.8" font-family="Times,serif" font-size="14.00" fill="#000000">/right&#45;lte</text>
</g>
<!-- r21&#45;&gt;r21 -->
<g id="edge38" class="edge">
<title>r21:s&#45;&gt;r21:n</title>
<path fill="none" stroke="#000000" d="M2650,-714C2700.8643,-705 2802.5928,-705 2802.5928,-732 2802.5928,-757.3125 2713.183,-758.8945 2660.0959,-751.5776"/>
<polygon fill="#000000" stroke="#000000" points="2660.4205,-748.086 2650,-750 2659.3397,-755.002 2660.4205,-748.086"/>
<text text-anchor="middle" x="2662.5" y="-753.8" font-family="Times,serif" font-size="14.00" fill="#000000">left</text>
<text text-anchor="middle" x="2625.5" y="-702.8" font-family="Times,serif" font-size="14.00" fill="#000000">/left&#45;gt</text>
</g>
<!-- r21&#45;&gt;r22 -->
<g id="edge37" class="edge">
<title>r21:e&#45;&gt;r22:n</title>
<path fill="none" stroke="#000000" d="M2731,-732C2759.1896,-732 2727.5732,-710.6508 2716,-696 2690.7094,-663.984 2661,-663.3 2661,-622.5 2661,-622.5 2661,-622.5 2661,-534 2661,-513.3205 2663.8477,-505.8307 2664.7375,-489.273"/>
<polygon fill="#000000" stroke="#000000" points="2668.2434,-489.0862 2665,-479 2661.2457,-488.9073 2668.2434,-489.0862"/>
<text text-anchor="middle" x="2684.5" y="-482.8" font-family="Times,serif" font-size="14.00" fill="#000000">value</text>
<text text-anchor="middle" x="2763" y="-720.8" font-family="Times,serif" font-size="14.00" fill="#000000">/right&#45;lte</text>
</g>
<!-- r20 -->
<g id="node33" class="node">
<title>r20</title>
<g id="a_node33"><a xlink:href="file:///home/travis/build/andrewdavidmackenzie/flow/flowstdlib/math/add/add.html" xlink:title="add (#20)">
<ellipse fill="#ff7f50" stroke="#000000" cx="2890" cy="-461" rx="57.3905" ry="18"/>
<text text-anchor="middle" x="2890" y="-457.3" font-family="Times,serif" font-size="14.00" fill="#000000">add (#20)</text>
</a>
</g>
</g>
<!-- r21&#45;&gt;r20 -->
<g id="edge39" class="edge">
<title>r21:e&#45;&gt;r20:n</title>
<path fill="none" stroke="#000000" d="M2731,-732C2763.4931,-732 2735,-691.4931 2735,-659 2735,-659 2735,-659 2735,-534 2735,-501.5282 2767.634,-508.5034 2798,-497 2814.1328,-490.8885 2866.6384,-496.8414 2884.2106,-487.2373"/>
<polygon fill="#000000" stroke="#000000" points="2887.1133,-489.194 2890,-479 2881.3863,-485.1689 2887.1133,-489.194"/>
<text text-anchor="middle" x="2883" y="-482.8" font-family="Times,serif" font-size="14.00" fill="#000000">i1</text>
<text text-anchor="middle" x="2703.5" y="-735.8" font-family="Times,serif" font-size="14.00" fill="#000000">/right&#45;lt</text>
</g>
<!-- initializerr21_1 -->
<!-- initializerr21_1&#45;&gt;r21 -->
<g id="edge35" class="edge">
<title>initializerr21_1&#45;&gt;r21:ne</title>
<path fill="none" stroke="#0000ff" stroke-dasharray="1,5" d="M2699.2102,-999.0731C2693.5945,-984.5195 2687,-963.3168 2687,-944 2687,-944 2687,-944 2687,-805 2687,-788.4061 2688.4265,-783.2989 2682,-768 2679.7921,-762.744 2677.906,-759.9732 2675.4027,-757.2793"/>
<polygon fill="#0000ff" stroke="#0000ff" points="2677.5843,-754.5159 2668,-750 2672.6762,-759.507 2677.5843,-754.5159"/>
<text text-anchor="middle" x="2692" y="-877.8" font-family="Times,serif" font-size="14.00" fill="#000000">0</text>
</g>
<!-- r19 -->
<g id="node35" class="node">
<title>r19</title>
<g id="a_node35"><a xlink:href="file:///home/travis/build/andrewdavidmackenzie/flow/flowstdlib/data/enumerate/enumerate.html" xlink:title="enumerate (#19)">
<ellipse fill="#ff7f50" stroke="#000000" cx="2620" cy="-350" rx="90.1842" ry="18"/>
<text text-anchor="middle" x="2620" y="-346.3" font-family="Times,serif" font-size="14.00" fill="#000000">enumerate (#19)</text>
</a>
</g>
</g>
<!-- r22&#45;&gt;r19 -->
<g id="edge45" class="edge">
<title>r22:e&#45;&gt;r19:n</title>
<path fill="none" stroke="#000000" d="M2762,-461C2770,-461 2766.1298,-449.8516 2762,-443 2727.0986,-385.0957 2630.9007,-433.6385 2620.8518,-378.2526"/>
<polygon fill="#000000" stroke="#000000" points="2624.3161,-377.6758 2620,-368 2617.3401,-378.2555 2624.3161,-377.6758"/>
</g>
<!-- r20&#45;&gt;r21 -->
<g id="edge42" class="edge">
<title>r20:se&#45;&gt;r21:ne</title>
<path fill="none" stroke="#000000" d="M2907,-444C2907,-444 2947.1949,-479 2947.1949,-479 2916.9288,-546.2375 2869.5643,-531.8276 2823,-589 2770.8982,-652.9713 2801.9909,-708.6569 2730.5928,-750 2721.0008,-755.5543 2693.1946,-758.5021 2677.3172,-754.4935"/>
<polygon fill="#000000" stroke="#000000" points="2678.5276,-751.1915 2668,-750 2675.4868,-757.4966 2678.5276,-751.1915"/>
<text text-anchor="middle" x="2686" y="-753.8" font-family="Times,serif" font-size="14.00" fill="#000000">right</text>
<text text-anchor="middle" x="2889.5" y="-432.8" font-family="Times,serif" font-size="14.00" fill="#000000">/sum</text>
</g>
<!-- r20&#45;&gt;r20 -->
<g id="edge41" class="edge">
<title>r20:se&#45;&gt;r20:ne</title>
<path fill="none" stroke="#000000" d="M2907,-444C2950.065,-435 3019.1949,-435 3019.1949,-461 3019.1949,-485.0703 2959.9457,-486.8568 2916.9805,-479.8482"/>
<polygon fill="#000000" stroke="#000000" points="2917.4702,-476.3795 2907,-478 2916.1955,-483.2625 2917.4702,-476.3795"/>
<text text-anchor="middle" x="2900" y="-481.8" font-family="Times,serif" font-size="14.00" fill="#000000">i2</text>
<text text-anchor="middle" x="2916.5" y="-432.8" font-family="Times,serif" font-size="14.00" fill="#000000">/i2</text>
</g>
<!-- initializerr20_1 -->
<!-- initializerr20_1&#45;&gt;r20 -->
<g id="edge40" class="edge">
<title>initializerr20_1&#45;&gt;r20:w</title>
<path fill="none" stroke="#0000ff" stroke-dasharray="1,5" d="M2893.4377,-713.7981C2867.5379,-657.7836 2793.5699,-490.2045 2823.155,-464.3621"/>
<polygon fill="#0000ff" stroke="#0000ff" points="2824.6678,-467.544 2833,-461 2822.4055,-460.9197 2824.6678,-467.544"/>
<text text-anchor="middle" x="2851" y="-592.8" font-family="Times,serif" font-size="14.00" fill="#000000">1</text>
</g>
<!-- r19&#45;&gt;r0 -->
<g id="edge46" class="edge">
<title>r19:e&#45;&gt;r0:ne</title>
<path fill="none" stroke="#000000" d="M2711,-350C2719,-350 2715.7743,-338.4192 2711,-332 2642.9853,-240.5515 2546.8488,-333.2565 2465.339,-262.8318"/>
<polygon fill="#000000" stroke="#000000" points="2467.7043,-260.2518 2458,-256 2462.9347,-265.3755 2467.7043,-260.2518"/>
<text text-anchor="middle" x="2475.5" y="-244.8" font-family="Times,serif" font-size="14.00" fill="#000000">pixel</text>
</g>
<!-- r5 -->
<g id="node37" class="node">
<title>r5</title>
<g id="a_node37"><a xlink:href="file:///home/travis/build/andrewdavidmackenzie/flow/samples/mandlebrot/render_pixel/render_pixel.html" xlink:title="p2v (#5)">
<ellipse fill="#ff7f50" stroke="#000000" cx="2493" cy="-145" rx="51.1914" ry="18"/>
<text text-anchor="middle" x="2493" y="-141.3" font-family="Times,serif" font-size="14.00" fill="#000000">p2v (#5)</text>
</a>
</g>
</g>
<!-- r0&#45;&gt;r5 -->
<g id="edge47" class="edge">
<title>r0:e&#45;&gt;r5:n</title>
<path fill="none" stroke="#000000" d="M2493,-239C2523.4792,-239 2498.953,-204.6216 2493.872,-173.0902"/>
<polygon fill="#000000" stroke="#000000" points="2497.3481,-172.6615 2493,-163 2490.3741,-173.2642 2497.3481,-172.6615"/>
<text text-anchor="middle" x="2453.5" y="-166.8" font-family="Times,serif" font-size="14.00" fill="#000000">pixel_point</text>
</g>
<!-- r5&#45;&gt;r3 -->
<g id="edge52" class="edge">
<title>r5:s&#45;&gt;r3:n</title>
<path fill="none" stroke="#000000" d="M2493,-127C2493,-96.4695 2507.2778,-88.0217 2510.4011,-62.3218"/>
<polygon fill="#000000" stroke="#000000" points="2513.9148,-62.186 2511,-52 2506.9265,-61.7804 2513.9148,-62.186"/>
<text text-anchor="middle" x="2528.5" y="-55.8" font-family="Times,serif" font-size="14.00" fill="#000000">pixel</text>
<text text-anchor="middle" x="2486" y="-115.8" font-family="Times,serif" font-size="14.00" fill="#000000">/0</text>
</g>
<!-- r5&#45;&gt;r3 -->
<g id="edge53" class="edge">
<title>r5:sw&#45;&gt;r3:ne</title>
<path fill="none" stroke="#000000" d="M2476,-128C2449.9524,-101.9524 2536.2159,-84.9918 2533.8589,-60.861"/>
<polygon fill="#000000" stroke="#000000" points="2536.877,-59.0855 2529,-52 2530.7392,-62.4511 2536.877,-59.0855"/>
<text text-anchor="middle" x="2548.5" y="-55.8" font-family="Times,serif" font-size="14.00" fill="#000000">value</text>
<text text-anchor="middle" x="2469" y="-116.8" font-family="Times,serif" font-size="14.00" fill="#000000">/1</text>
</g>
</g>
</svg>
