<?xml version="1.0" encoding="UTF-8" standalone="no"?>
<!DOCTYPE svg PUBLIC "-//W3C//DTD SVG 1.1//EN"
 "http://www.w3.org/Graphics/SVG/1.1/DTD/svg11.dtd">
<!-- Generated by graphviz version 2.40.1 (20161225.0304)
 -->
<!-- Title: mandlebrot Pages: 1 -->
<svg width="3058pt" height="1355pt"
 viewBox="0.00 0.00 3058.00 1355.00" xmlns="http://www.w3.org/2000/svg" xmlns:xlink="http://www.w3.org/1999/xlink">
<g id="graph0" class="graph" transform="scale(1 1) rotate(0) translate(4 1351)">
<title>mandlebrot</title>
<polygon fill="#ffffff" stroke="transparent" points="-4,4 -4,-1351 3054,-1351 3054,4 -4,4"/>
<text text-anchor="middle" x="1525" y="-1331.8" font-family="Times,serif" font-size="14.00" fill="#000000">/mandlebrot</text>
<g id="clust1" class="cluster">
<title>cluster_parse_args</title>
<polygon fill="none" stroke="#000000" points="101,-508 101,-1316 2349,-1316 2349,-508 101,-508"/>
<text text-anchor="middle" x="1225" y="-1300.8" font-family="Times,serif" font-size="14.00" fill="#000000">/mandlebrot/parse_args</text>
</g>
<g id="clust2" class="cluster">
<title>cluster_generate_pixels</title>
<polygon fill="none" stroke="#000000" points="2357,-213 2357,-1097 2976,-1097 2976,-213 2357,-213"/>
<text text-anchor="middle" x="2666.5" y="-1081.8" font-family="Times,serif" font-size="14.00" fill="#000000">/mandlebrot/generate_pixels</text>
</g>
<g id="clust3" class="cluster">
<title>cluster_y_sequence</title>
<polygon fill="none" stroke="#000000" points="2537,-435 2537,-1066 2968,-1066 2968,-435 2537,-435"/>
<text text-anchor="middle" x="2752.5" y="-1050.8" font-family="Times,serif" font-size="14.00" fill="#000000">/mandlebrot/generate_pixels/y&#45;sequence</text>
</g>
<g id="clust4" class="cluster">
<title>cluster_render</title>
<polygon fill="none" stroke="#000000" points="2383,-8 2383,-194 2591,-194 2591,-8 2383,-8"/>
<text text-anchor="middle" x="2487" y="-178.8" font-family="Times,serif" font-size="14.00" fill="#000000">/mandlebrot/render</text>
</g>
<!-- r16 -->
<g id="node1" class="node">
<title>r16</title>
<g id="a_node1"><a xlink:href="file:///home/travis/build/andrewdavidmackenzie/flow/flowr/src/lib/flowruntime/args/get.html" xlink:title="args (#16)">
<ellipse fill="#ff7f50" stroke="#000000" cx="618" cy="-1267" rx="60.3893" ry="18"/>
<text text-anchor="middle" x="618" y="-1263.3" font-family="Times,serif" font-size="14.00" fill="#000000">args (#16)</text>
</a>
</g>
</g>
<!-- r0 -->
<g id="node2" class="node">
<title>r0</title>
<g id="a_node2"><a xlink:href="file:///home/travis/build/andrewdavidmackenzie/flow/flowstdlib/data/buffer/buffer.html" xlink:title="filename_buffer (#0)">
<ellipse fill="#ff7f50" stroke="#000000" cx="216" cy="-1142" rx="107.4815" ry="18"/>
<text text-anchor="middle" x="216" y="-1138.3" font-family="Times,serif" font-size="14.00" fill="#000000">filename_buffer (#0)</text>
</a>
</g>
</g>
<!-- r16&#45;&gt;r0 -->
<g id="edge1" class="edge">
<title>r16:s&#45;&gt;r0:n</title>
<path fill="none" stroke="#000000" d="M618,-1249C618,-1227.1125 449.3601,-1201.7758 428,-1197 384.9752,-1187.3804 241.1084,-1204.6951 218.8918,-1169.9917"/>
<polygon fill="#000000" stroke="#000000" points="222.1422,-1168.6327 216,-1160 215.4182,-1170.5788 222.1422,-1168.6327"/>
<text text-anchor="middle" x="587.5" y="-1237.8" font-family="Times,serif" font-size="14.00" fill="#000000">/string/1</text>
</g>
<!-- r14 -->
<g id="node3" class="node">
<title>r14</title>
<g id="a_node3"><a xlink:href="file:///home/travis/build/andrewdavidmackenzie/flow/flowstdlib/data/ordered_split/ordered_split.html" xlink:title="split_size (#14)">
<ellipse fill="#ff7f50" stroke="#000000" cx="1458" cy="-1142" rx="83.3857" ry="18"/>
<text text-anchor="middle" x="1458" y="-1138.3" font-family="Times,serif" font-size="14.00" fill="#000000">split_size (#14)</text>
</a>
</g>
</g>
<!-- r16&#45;&gt;r14 -->
<g id="edge2" class="edge">
<title>r16:se&#45;&gt;r14:n</title>
<path fill="none" stroke="#000000" d="M635,-1250C659.7022,-1225.2978 748.7575,-1203.9171 783,-1197 800.1122,-1193.5433 1368.8216,-1180.7644 1448.7118,-1163.8954"/>
<polygon fill="#000000" stroke="#000000" points="1450.1318,-1167.0952 1458,-1160 1447.4245,-1160.6399 1450.1318,-1167.0952"/>
<text text-anchor="middle" x="1436.5" y="-1163.8" font-family="Times,serif" font-size="14.00" fill="#000000">string</text>
<text text-anchor="middle" x="665.5" y="-1238.8" font-family="Times,serif" font-size="14.00" fill="#000000">/string/2</text>
</g>
<!-- r17 -->
<g id="node4" class="node">
<title>r17</title>
<g id="a_node4"><a xlink:href="file:///home/travis/build/andrewdavidmackenzie/flow/flowstdlib/data/ordered_split/ordered_split.html" xlink:title="split_upper_left (#17)">
<ellipse fill="#ff7f50" stroke="#000000" cx="930" cy="-1142" rx="113.18" ry="18"/>
<text text-anchor="middle" x="930" y="-1138.3" font-family="Times,serif" font-size="14.00" fill="#000000">split_upper_left (#17)</text>
</a>
</g>
</g>
<!-- r16&#45;&gt;r17 -->
<g id="edge3" class="edge">
<title>r16:e&#45;&gt;r17:n</title>
<path fill="none" stroke="#000000" d="M679,-1267C696.4921,-1267 697.744,-1255.459 714,-1249 769.033,-1227.1338 787.6323,-1235.4717 842,-1212 880.2868,-1195.4707 922.4361,-1203.7511 929.0936,-1170.0795"/>
<polygon fill="#000000" stroke="#000000" points="932.5902,-1170.2733 930,-1160 925.6183,-1169.6463 932.5902,-1170.2733"/>
<text text-anchor="middle" x="908.5" y="-1163.8" font-family="Times,serif" font-size="14.00" fill="#000000">string</text>
<text text-anchor="middle" x="709.5" y="-1270.8" font-family="Times,serif" font-size="14.00" fill="#000000">/string/3</text>
</g>
<!-- r7 -->
<g id="node5" class="node">
<title>r7</title>
<g id="a_node5"><a xlink:href="file:///home/travis/build/andrewdavidmackenzie/flow/flowstdlib/data/ordered_split/ordered_split.html" xlink:title="split_lower_right (#7)">
<ellipse fill="#ff7f50" stroke="#000000" cx="526" cy="-1142" rx="113.18" ry="18"/>
<text text-anchor="middle" x="526" y="-1138.3" font-family="Times,serif" font-size="14.00" fill="#000000">split_lower_right (#7)</text>
</a>
</g>
</g>
<!-- r16&#45;&gt;r7 -->
<g id="edge4" class="edge">
<title>r16:se&#45;&gt;r7:n</title>
<path fill="none" stroke="#000000" d="M635,-1250C676.9072,-1208.0928 542.7453,-1221.0681 527.4128,-1169.9303"/>
<polygon fill="#000000" stroke="#000000" points="530.8737,-1169.4073 526,-1160 523.9435,-1170.3933 530.8737,-1169.4073"/>
<text text-anchor="middle" x="504.5" y="-1163.8" font-family="Times,serif" font-size="14.00" fill="#000000">string</text>
<text text-anchor="middle" x="665.5" y="-1253.8" font-family="Times,serif" font-size="14.00" fill="#000000">/string/4</text>
</g>
<!-- r0&#45;&gt;r0 -->
<g id="edge54" class="edge">
<title>r0:e&#45;&gt;r0:n</title>
<path fill="none" stroke="#000000" d="M323,-1142C347.2405,-1133 395.2405,-1133 395.2405,-1151 395.2405,-1168.0508 288.0174,-1168.9499 225.9243,-1161.3474"/>
<polygon fill="#000000" stroke="#000000" points="226.38,-1157.8773 216,-1160 225.4382,-1164.8136 226.38,-1157.8773"/>
</g>
<!-- r5 -->
<g id="node38" class="node">
<title>r5</title>
<g id="a_node38"><a xlink:href="file:///home/travis/build/andrewdavidmackenzie/flow/flowr/src/lib/flowruntime/image/image_buffer.html" xlink:title="image_buffer (#5)">
<ellipse fill="#ff7f50" stroke="#000000" cx="2487" cy="-34" rx="95.5831" ry="18"/>
<text text-anchor="middle" x="2487" y="-30.3" font-family="Times,serif" font-size="14.00" fill="#000000">image_buffer (#5)</text>
</a>
</g>
</g>
<!-- r0&#45;&gt;r5 -->
<g id="edge55" class="edge">
<title>r0:e&#45;&gt;r5:w</title>
<path fill="none" stroke="#000000" d="M323,-1142C331,-1142 327.6837,-1130.4856 323,-1124 234.4618,-1001.4002 0,-1168.2274 0,-1017 0,-1017 0,-1017 0,-89.5 0,-57.337 2210.4938,-35.4254 2380.9622,-34.067"/>
<polygon fill="#000000" stroke="#000000" points="2381.0236,-37.5667 2391,-34 2380.9768,-30.5669 2381.0236,-37.5667"/>
<text text-anchor="middle" x="2360" y="-37.8" font-family="Times,serif" font-size="14.00" fill="#000000">filename</text>
</g>
<!-- r8 -->
<g id="node7" class="node">
<title>r8</title>
<g id="a_node7"><a xlink:href="file:///home/travis/build/andrewdavidmackenzie/flow/flowstdlib/fmt/to_json/to_json.html" xlink:title="size_to_json (#8)">
<ellipse fill="#ff7f50" stroke="#000000" cx="1803" cy="-944" rx="90.1842" ry="18"/>
<text text-anchor="middle" x="1803" y="-940.3" font-family="Times,serif" font-size="14.00" fill="#000000">size_to_json (#8)</text>
</a>
</g>
</g>
<!-- r14&#45;&gt;r8 -->
<g id="edge6" class="edge">
<title>r14:e&#45;&gt;r8:n</title>
<path fill="none" stroke="#000000" d="M1542,-1142C1679.4711,-1142 1797.1239,-1104.7966 1802.7867,-972.1395"/>
<polygon fill="#000000" stroke="#000000" points="1806.2888,-972.0714 1803,-962 1799.2904,-971.9241 1806.2888,-972.0714"/>
</g>
<!-- r12 -->
<g id="node16" class="node">
<title>r12</title>
<g id="a_node16"><a xlink:href="file:///home/travis/build/andrewdavidmackenzie/flow/flowstdlib/fmt/to_json/to_json.html" xlink:title="upper_left_to_json (#12)">
<ellipse fill="#ff7f50" stroke="#000000" cx="1043" cy="-944" rx="126.1777" ry="18"/>
<text text-anchor="middle" x="1043" y="-940.3" font-family="Times,serif" font-size="14.00" fill="#000000">upper_left_to_json (#12)</text>
</a>
</g>
</g>
<!-- r17&#45;&gt;r12 -->
<g id="edge16" class="edge">
<title>r17:e&#45;&gt;r12:n</title>
<path fill="none" stroke="#000000" d="M1043,-1142C1119.5625,-1142 1049.5796,-1050.4091 1043.4241,-972.4138"/>
<polygon fill="#000000" stroke="#000000" points="1046.9041,-971.8493 1043,-962 1039.9099,-972.1342 1046.9041,-971.8493"/>
</g>
<!-- r10 -->
<g id="node19" class="node">
<title>r10</title>
<g id="a_node19"><a xlink:href="file:///home/travis/build/andrewdavidmackenzie/flow/flowstdlib/fmt/to_json/to_json.html" xlink:title="lower_right_to_json (#10)">
<ellipse fill="#ff7f50" stroke="#000000" cx="477" cy="-944" rx="131.8766" ry="18"/>
<text text-anchor="middle" x="477" y="-940.3" font-family="Times,serif" font-size="14.00" fill="#000000">lower_right_to_json (#10)</text>
</a>
</g>
</g>
<!-- r7&#45;&gt;r10 -->
<g id="edge19" class="edge">
<title>r7:e&#45;&gt;r10:n</title>
<path fill="none" stroke="#000000" d="M639,-1142C647,-1142 642.0615,-1131.391 639,-1124 601.4038,-1033.2347 485.5469,-1061.5982 477.4472,-972.2474"/>
<polygon fill="#000000" stroke="#000000" points="480.9327,-971.8379 477,-962 473.9394,-972.1431 480.9327,-971.8379"/>
</g>
<!-- initializerr14_1 -->
<!-- initializerr14_1&#45;&gt;r14 -->
<g id="edge5" class="edge">
<title>initializerr14_1&#45;&gt;r14:w</title>
<path fill="none" stroke="#0000ff" d="M1366.692,-1248.8239C1354.8853,-1217.2702 1335.6589,-1154.6628 1364.1234,-1143.6678"/>
<polygon fill="#0000ff" stroke="#0000ff" points="1364.7224,-1147.1163 1374,-1142 1363.5568,-1140.214 1364.7224,-1147.1163"/>
<text text-anchor="middle" x="1365" y="-1200.8" font-family="Times,serif" font-size="14.00" fill="#000000">&quot;x&quot;</text>
</g>
<!-- r9 -->
<g id="node8" class="node">
<title>r9</title>
<g id="a_node8"><a xlink:href="file:///home/travis/build/andrewdavidmackenzie/flow/flowstdlib/data/accumulate/accumulate.html" xlink:title="accumulate_size (#9)">
<ellipse fill="#ff7f50" stroke="#000000" cx="2041" cy="-805" rx="111.2805" ry="18"/>
<text text-anchor="middle" x="2041" y="-801.3" font-family="Times,serif" font-size="14.00" fill="#000000">accumulate_size (#9)</text>
</a>
</g>
</g>
<!-- r8&#45;&gt;r9 -->
<g id="edge7" class="edge">
<title>r8:e&#45;&gt;r9:n</title>
<path fill="none" stroke="#000000" d="M1894,-944C1898.5863,-944 2005.7643,-856.9835 2034.1526,-830.4207"/>
<polygon fill="#000000" stroke="#000000" points="2036.7908,-832.7228 2041,-823 2031.6463,-827.9758 2036.7908,-832.7228"/>
<text text-anchor="middle" x="2018" y="-826.8" font-family="Times,serif" font-size="14.00" fill="#000000">values</text>
</g>
<!-- r9&#45;&gt;r9 -->
<g id="edge10" class="edge">
<title>r9:e&#45;&gt;r9:ne</title>
<path fill="none" stroke="#000000" d="M2152,-805C2176.1401,-796 2224.1401,-796 2224.1401,-814 2224.1401,-831.0508 2130.7358,-831.9499 2068.9953,-824.3474"/>
<polygon fill="#000000" stroke="#000000" points="2069.378,-820.8674 2059,-823 2068.4427,-827.8047 2069.378,-820.8674"/>
<text text-anchor="middle" x="2083" y="-826.8" font-family="Times,serif" font-size="14.00" fill="#000000">partial</text>
<text text-anchor="middle" x="2178" y="-808.8" font-family="Times,serif" font-size="14.00" fill="#000000">/partial</text>
</g>
<!-- r21 -->
<g id="node11" class="node">
<title>r21</title>
<g id="a_node11"><a xlink:href="file:///home/travis/build/andrewdavidmackenzie/flow/flowstdlib/math/subtract/subtract.html" xlink:title="height (#21)">
<ellipse fill="#ff7f50" stroke="#000000" cx="2002" cy="-659" rx="69.5877" ry="18"/>
<text text-anchor="middle" x="2002" y="-655.3" font-family="Times,serif" font-size="14.00" fill="#000000">height (#21)</text>
</a>
</g>
</g>
<!-- r9&#45;&gt;r21 -->
<g id="edge11" class="edge">
<title>r9:sw&#45;&gt;r21:n</title>
<path fill="none" stroke="#000000" d="M2023,-787C2009.7857,-773.7857 1994.9933,-784.7914 1985,-769 1964.6754,-736.8831 1995.7104,-721.3544 2001.1946,-687.1668"/>
<polygon fill="#000000" stroke="#000000" points="2004.6993,-687.2452 2002,-677 1997.7211,-686.6923 2004.6993,-687.2452"/>
<text text-anchor="middle" x="1995" y="-680.8" font-family="Times,serif" font-size="14.00" fill="#000000">i1</text>
<text text-anchor="middle" x="1991.5" y="-775.8" font-family="Times,serif" font-size="14.00" fill="#000000">/chunk/1</text>
</g>
<!-- r22 -->
<g id="node12" class="node">
<title>r22</title>
<g id="a_node12"><a xlink:href="file:///home/travis/build/andrewdavidmackenzie/flow/flowstdlib/control/join/join.html" xlink:title="width&#45;gate (#22)">
<ellipse fill="#ff7f50" stroke="#000000" cx="2233" cy="-659" rx="89.8845" ry="18"/>
<text text-anchor="middle" x="2233" y="-655.3" font-family="Times,serif" font-size="14.00" fill="#000000">width&#45;gate (#22)</text>
</a>
</g>
</g>
<!-- r9&#45;&gt;r22 -->
<g id="edge12" class="edge">
<title>r9:s&#45;&gt;r22:n</title>
<path fill="none" stroke="#000000" d="M2041,-787C2041,-760.857 2073.4924,-780.439 2097,-769 2159.4149,-738.6282 2226.1382,-748.8221 2232.5053,-687.0907"/>
<polygon fill="#000000" stroke="#000000" points="2236.0061,-687.1594 2233,-677 2229.0145,-686.8166 2236.0061,-687.1594"/>
<text text-anchor="middle" x="2217" y="-680.8" font-family="Times,serif" font-size="14.00" fill="#000000">data</text>
<text text-anchor="middle" x="2072.5" y="-775.8" font-family="Times,serif" font-size="14.00" fill="#000000">/chunk/0</text>
</g>
<!-- r1 -->
<g id="node13" class="node">
<title>r1</title>
<g id="a_node13"><a xlink:href="file:///home/travis/build/andrewdavidmackenzie/flow/flowstdlib/data/buffer/buffer.html" xlink:title="buffer_size (#1)">
<ellipse fill="#ff7f50" stroke="#000000" cx="1497" cy="-659" rx="85.2851" ry="18"/>
<text text-anchor="middle" x="1497" y="-655.3" font-family="Times,serif" font-size="14.00" fill="#000000">buffer_size (#1)</text>
</a>
</g>
</g>
<!-- r9&#45;&gt;r1 -->
<g id="edge13" class="edge">
<title>r9:s&#45;&gt;r1:n</title>
<path fill="none" stroke="#000000" d="M2041,-787C2041,-728.5842 1552.8622,-737.4699 1501.3789,-686.1523"/>
<polygon fill="#000000" stroke="#000000" points="1504.4732,-684.5101 1497,-677 1498.1587,-687.5313 1504.4732,-684.5101"/>
<text text-anchor="middle" x="2016.5" y="-775.8" font-family="Times,serif" font-size="14.00" fill="#000000">/chunk</text>
</g>
<!-- r3 -->
<g id="node14" class="node">
<title>r3</title>
<g id="a_node14"><a xlink:href="file:///home/travis/build/andrewdavidmackenzie/flow/flowstdlib/data/buffer/buffer.html" xlink:title="size_buffer (#3)">
<ellipse fill="#ff7f50" stroke="#000000" cx="1757" cy="-659" rx="85.2851" ry="18"/>
<text text-anchor="middle" x="1757" y="-655.3" font-family="Times,serif" font-size="14.00" fill="#000000">size_buffer (#3)</text>
</a>
</g>
</g>
<!-- r9&#45;&gt;r3 -->
<g id="edge14" class="edge">
<title>r9:s&#45;&gt;r3:n</title>
<path fill="none" stroke="#000000" d="M2041,-787C2041,-745.3359 2054.2525,-722.5533 2023,-695 2003.0363,-677.3993 1804.2323,-700.8069 1764.0562,-684.2602"/>
<polygon fill="#000000" stroke="#000000" points="1766.4795,-681.7317 1757,-677 1761.4598,-686.6105 1766.4795,-681.7317"/>
<text text-anchor="middle" x="2016.5" y="-790.8" font-family="Times,serif" font-size="14.00" fill="#000000">/chunk</text>
</g>
<!-- initializerr9_1 -->
<!-- initializerr9_1&#45;&gt;r9 -->
<g id="edge8" class="edge">
<title>initializerr9_1&#45;&gt;r9:n</title>
<path fill="none" stroke="#0000ff" stroke-dasharray="1,5" d="M2231.4649,-927.7968C2177.7639,-901.6318 2075.6983,-850.9383 2048.0543,-830.413"/>
<polygon fill="#0000ff" stroke="#0000ff" points="2050.4292,-827.8314 2041,-823 2045.3582,-832.6569 2050.4292,-827.8314"/>
<text text-anchor="middle" x="2158.5" y="-877.8" font-family="Times,serif" font-size="14.00" fill="#000000">[]</text>
</g>
<!-- initializerr9_2 -->
<!-- initializerr9_2&#45;&gt;r9 -->
<g id="edge9" class="edge">
<title>initializerr9_2&#45;&gt;r9:n</title>
<path fill="none" stroke="#0000ff" d="M2041,-925.96C2041,-904.5319 2041,-867.4021 2041,-833.4232"/>
<polygon fill="#0000ff" stroke="#0000ff" points="2044.5001,-833 2041,-823 2037.5001,-833 2044.5001,-833"/>
<text text-anchor="middle" x="2046" y="-877.8" font-family="Times,serif" font-size="14.00" fill="#000000">2</text>
</g>
<!-- r18 -->
<g id="node30" class="node">
<title>r18</title>
<g id="a_node30"><a xlink:href="file:///home/travis/build/andrewdavidmackenzie/flow/flowstdlib/control/compare_switch/compare_switch.html" xlink:title="compare (#18)">
<ellipse fill="#ff7f50" stroke="#000000" cx="2626" cy="-732" rx="80.6858" ry="18"/>
<text text-anchor="middle" x="2626" y="-728.3" font-family="Times,serif" font-size="14.00" fill="#000000">compare (#18)</text>
</a>
</g>
</g>
<!-- r21&#45;&gt;r18 -->
<g id="edge34" class="edge">
<title>r21:se&#45;&gt;r18:n</title>
<path fill="none" stroke="#000000" d="M2020,-641C2028.0993,-632.9007 2060.9478,-636.65 2071.5438,-641 2092.609,-649.6479 2087.1518,-667.8413 2108,-677 2138.5049,-690.4009 2684.0255,-689.4879 2706.5928,-714 2706.5928,-714 2656.4142,-736.4143 2635.245,-745.8703"/>
<polygon fill="#000000" stroke="#000000" points="2633.703,-742.7258 2626,-750 2636.558,-749.1171 2633.703,-742.7258"/>
<text text-anchor="middle" x="2613.5" y="-753.8" font-family="Times,serif" font-size="14.00" fill="#000000">left</text>
<text text-anchor="middle" x="2005.5" y="-629.8" font-family="Times,serif" font-size="14.00" fill="#000000">/diff</text>
</g>
<!-- r22&#45;&gt;r22 -->
<g id="edge43" class="edge">
<title>r22:e&#45;&gt;r22:n</title>
<path fill="none" stroke="#000000" d="M2323,-659C2346.692,-650 2394.692,-650 2394.692,-668 2394.692,-684.9453 2299.1595,-685.9382 2242.9967,-678.4875"/>
<polygon fill="#000000" stroke="#000000" points="2243.4063,-675.01 2233,-677 2242.3759,-681.9338 2243.4063,-675.01"/>
<text text-anchor="middle" x="2249" y="-680.8" font-family="Times,serif" font-size="14.00" fill="#000000">data</text>
</g>
<!-- r23 -->
<g id="node32" class="node">
<title>r23</title>
<g id="a_node32"><a xlink:href="file:///home/travis/build/andrewdavidmackenzie/flow/flowstdlib/data/duplicate/duplicate.html" xlink:title="y&#45;duplicator (#23)">
<ellipse fill="#ff7f50" stroke="#000000" cx="2641" cy="-461" rx="96.3833" ry="18"/>
<text text-anchor="middle" x="2641" y="-457.3" font-family="Times,serif" font-size="14.00" fill="#000000">y&#45;duplicator (#23)</text>
</a>
</g>
</g>
<!-- r22&#45;&gt;r23 -->
<g id="edge44" class="edge">
<title>r22:e&#45;&gt;r23:ne</title>
<path fill="none" stroke="#000000" d="M2323,-659C2472.5798,-659 2483.8322,-563.1295 2618,-497 2628.8776,-491.6386 2646.9485,-491.3528 2656.2223,-488.7634"/>
<polygon fill="#000000" stroke="#000000" points="2659.6299,-489.5761 2659,-479 2652.8971,-487.6605 2659.6299,-489.5761"/>
<text text-anchor="middle" x="2637.5" y="-482.8" font-family="Times,serif" font-size="14.00" fill="#000000">factor</text>
</g>
<!-- r1&#45;&gt;r1 -->
<g id="edge50" class="edge">
<title>r1:e&#45;&gt;r1:n</title>
<path fill="none" stroke="#000000" d="M1583,-659C1606.1424,-650 1654.1424,-650 1654.1424,-668 1654.1424,-684.9102 1561.6827,-685.934 1507.0557,-678.5338"/>
<polygon fill="#000000" stroke="#000000" points="1507.4134,-675.048 1497,-677 1506.3579,-681.9679 1507.4134,-675.048"/>
</g>
<!-- r2 -->
<g id="node36" class="node">
<title>r2</title>
<g id="a_node36"><a xlink:href="file:///home/travis/build/andrewdavidmackenzie/flow/samples/mandlebrot/pixel_to_point/pixel_to_point.html" xlink:title="p2p (#2)">
<ellipse fill="#ff7f50" stroke="#000000" cx="2417" cy="-239" rx="51.9908" ry="18"/>
<text text-anchor="middle" x="2417" y="-235.3" font-family="Times,serif" font-size="14.00" fill="#000000">p2p (#2)</text>
</a>
</g>
</g>
<!-- r1&#45;&gt;r2 -->
<g id="edge51" class="edge">
<title>r1:e&#45;&gt;r2:nw</title>
<path fill="none" stroke="#000000" d="M1583,-659C1583.6583,-659 1762,-597.1583 1762,-596.5 1762,-596.5 1762,-596.5 1762,-294.5 1762,-155.7933 2274.6625,-347.0634 2392.2304,-262.5685"/>
<polygon fill="#000000" stroke="#000000" points="2394.623,-265.129 2400,-256 2390.1037,-259.7833 2394.623,-265.129"/>
<text text-anchor="middle" x="2386" y="-259.8" font-family="Times,serif" font-size="14.00" fill="#000000">size</text>
</g>
<!-- r3&#45;&gt;r3 -->
<g id="edge56" class="edge">
<title>r3:e&#45;&gt;r3:n</title>
<path fill="none" stroke="#000000" d="M1843,-659C1866.1424,-650 1914.1424,-650 1914.1424,-668 1914.1424,-684.9102 1821.6827,-685.934 1767.0557,-678.5338"/>
<polygon fill="#000000" stroke="#000000" points="1767.4134,-675.048 1757,-677 1766.3579,-681.9679 1767.4134,-675.048"/>
</g>
<!-- r3&#45;&gt;r5 -->
<g id="edge57" class="edge">
<title>r3:e&#45;&gt;r5:nw</title>
<path fill="none" stroke="#000000" d="M1843,-659C1867.877,-659 1871.8212,-646.8522 1896,-641 2134.0104,-583.3922 2763.0511,-580.2986 2986,-479 3020.0141,-463.5454 3050,-461.8604 3050,-424.5 3050,-424.5 3050,-424.5 3050,-89.5 3050,-30.6221 2530.8162,-85.7485 2472.0134,-61.6411"/>
<polygon fill="#000000" stroke="#000000" points="2475.3239,-60.5005 2469,-52 2468.6427,-62.5888 2475.3239,-60.5005"/>
<text text-anchor="middle" x="2455" y="-55.8" font-family="Times,serif" font-size="14.00" fill="#000000">size</text>
</g>
<!-- initializerr17_1 -->
<!-- initializerr17_1&#45;&gt;r17 -->
<g id="edge15" class="edge">
<title>initializerr17_1&#45;&gt;r17:w</title>
<path fill="none" stroke="#0000ff" d="M822.591,-1249.0905C807.004,-1217.7673 780.0722,-1155.2651 806.8822,-1143.8213"/>
<polygon fill="#0000ff" stroke="#0000ff" points="807.7783,-1147.2163 817,-1142 806.5381,-1140.3271 807.7783,-1147.2163"/>
<text text-anchor="middle" x="814.5" y="-1200.8" font-family="Times,serif" font-size="14.00" fill="#000000">&quot;,&quot;</text>
</g>
<!-- r11 -->
<g id="node17" class="node">
<title>r11</title>
<g id="a_node17"><a xlink:href="file:///home/travis/build/andrewdavidmackenzie/flow/flowstdlib/data/accumulate/accumulate.html" xlink:title="accumulate_upper_left (#11)">
<ellipse fill="#ff7f50" stroke="#000000" cx="1246" cy="-805" rx="146.774" ry="18"/>
<text text-anchor="middle" x="1246" y="-801.3" font-family="Times,serif" font-size="14.00" fill="#000000">accumulate_upper_left (#11)</text>
</a>
</g>
</g>
<!-- r12&#45;&gt;r11 -->
<g id="edge17" class="edge">
<title>r12:e&#45;&gt;r11:n</title>
<path fill="none" stroke="#000000" d="M1169,-944C1222.2035,-944 1198.6268,-883.9691 1230,-841 1233.5504,-836.1374 1238.1691,-834.4366 1241.5309,-831.9741"/>
<polygon fill="#000000" stroke="#000000" points="1244.6751,-833.5117 1246,-823 1238.4091,-830.3912 1244.6751,-833.5117"/>
<text text-anchor="middle" x="1223" y="-826.8" font-family="Times,serif" font-size="14.00" fill="#000000">values</text>
</g>
<!-- r11&#45;&gt;r11 -->
<g id="edge23" class="edge">
<title>r11:e&#45;&gt;r11:ne</title>
<path fill="none" stroke="#000000" d="M1393,-805C1416.887,-796 1464.887,-796 1464.887,-814 1464.887,-831.1914 1348.1974,-831.9637 1274.149,-824.1576"/>
<polygon fill="#000000" stroke="#000000" points="1274.3322,-820.6559 1264,-823 1273.5389,-827.6108 1274.3322,-820.6559"/>
<text text-anchor="middle" x="1288" y="-826.8" font-family="Times,serif" font-size="14.00" fill="#000000">partial</text>
<text text-anchor="middle" x="1419" y="-808.8" font-family="Times,serif" font-size="14.00" fill="#000000">/partial</text>
</g>
<!-- r15 -->
<g id="node23" class="node">
<title>r15</title>
<g id="a_node23"><a xlink:href="file:///home/travis/build/andrewdavidmackenzie/flow/flowstdlib/data/accumulate/accumulate.html" xlink:title="accumulate_bounds (#15)">
<ellipse fill="#ff7f50" stroke="#000000" cx="763" cy="-659" rx="132.6765" ry="18"/>
<text text-anchor="middle" x="763" y="-655.3" font-family="Times,serif" font-size="14.00" fill="#000000">accumulate_bounds (#15)</text>
</a>
</g>
</g>
<!-- r11&#45;&gt;r15 -->
<g id="edge24" class="edge">
<title>r11:s&#45;&gt;r15:n</title>
<path fill="none" stroke="#000000" d="M1246,-787C1246,-735.1842 817.9433,-732.2205 767.7804,-686.1296"/>
<polygon fill="#000000" stroke="#000000" points="770.7395,-684.2354 763,-677 764.5381,-687.4826 770.7395,-684.2354"/>
<text text-anchor="middle" x="740" y="-680.8" font-family="Times,serif" font-size="14.00" fill="#000000">values</text>
<text text-anchor="middle" x="1221.5" y="-775.8" font-family="Times,serif" font-size="14.00" fill="#000000">/chunk</text>
</g>
<!-- initializerr7_1 -->
<!-- initializerr7_1&#45;&gt;r7 -->
<g id="edge18" class="edge">
<title>initializerr7_1&#45;&gt;r7:w</title>
<path fill="none" stroke="#0000ff" d="M403.1261,-1248.8239C392.0733,-1217.2702 374.3439,-1154.6628 403.0806,-1143.6678"/>
<polygon fill="#0000ff" stroke="#0000ff" points="403.7188,-1147.1097 413,-1142 402.5581,-1140.2066 403.7188,-1147.1097"/>
<text text-anchor="middle" x="400.5" y="-1200.8" font-family="Times,serif" font-size="14.00" fill="#000000">&quot;,&quot;</text>
</g>
<!-- r13 -->
<g id="node20" class="node">
<title>r13</title>
<g id="a_node20"><a xlink:href="file:///home/travis/build/andrewdavidmackenzie/flow/flowstdlib/data/accumulate/accumulate.html" xlink:title="accumulate_lower_right (#13)">
<ellipse fill="#ff7f50" stroke="#000000" cx="763" cy="-805" rx="152.9733" ry="18"/>
<text text-anchor="middle" x="763" y="-801.3" font-family="Times,serif" font-size="14.00" fill="#000000">accumulate_lower_right (#13)</text>
</a>
</g>
</g>
<!-- r10&#45;&gt;r13 -->
<g id="edge20" class="edge">
<title>r10:e&#45;&gt;r13:n</title>
<path fill="none" stroke="#000000" d="M609,-944C613.7177,-944 726.0633,-857.0974 755.8219,-830.4662"/>
<polygon fill="#000000" stroke="#000000" points="758.5924,-832.6345 763,-823 753.5463,-827.7831 758.5924,-832.6345"/>
<text text-anchor="middle" x="740" y="-826.8" font-family="Times,serif" font-size="14.00" fill="#000000">values</text>
</g>
<!-- r13&#45;&gt;r13 -->
<g id="edge27" class="edge">
<title>r13:e&#45;&gt;r13:ne</title>
<path fill="none" stroke="#000000" d="M916,-805C939.7364,-796 987.7364,-796 987.7364,-814 987.7364,-831.2266 866.9974,-831.9668 790.9569,-824.1096"/>
<polygon fill="#000000" stroke="#000000" points="791.3261,-820.6292 781,-823 790.5508,-827.5861 791.3261,-820.6292"/>
<text text-anchor="middle" x="805" y="-826.8" font-family="Times,serif" font-size="14.00" fill="#000000">partial</text>
<text text-anchor="middle" x="942" y="-808.8" font-family="Times,serif" font-size="14.00" fill="#000000">/partial</text>
</g>
<!-- r13&#45;&gt;r15 -->
<g id="edge28" class="edge">
<title>r13:s&#45;&gt;r15:n</title>
<path fill="none" stroke="#000000" d="M763,-787C763,-741.6441 763,-727.8469 763,-687.0522"/>
<polygon fill="#000000" stroke="#000000" points="766.5001,-687 763,-677 759.5001,-687 766.5001,-687"/>
<text text-anchor="middle" x="786" y="-680.8" font-family="Times,serif" font-size="14.00" fill="#000000">values</text>
<text text-anchor="middle" x="738.5" y="-775.8" font-family="Times,serif" font-size="14.00" fill="#000000">/chunk</text>
</g>
<!-- initializerr11_1 -->
<!-- initializerr11_1&#45;&gt;r11 -->
<g id="edge21" class="edge">
<title>initializerr11_1&#45;&gt;r11:n</title>
<path fill="none" stroke="#0000ff" stroke-dasharray="1,5" d="M1513.8214,-928.9704C1437.6384,-903.3435 1288.4852,-851.8599 1253.4793,-830.138"/>
<polygon fill="#0000ff" stroke="#0000ff" points="1255.6506,-827.3722 1246,-823 1250.8177,-832.4361 1255.6506,-827.3722"/>
<text text-anchor="middle" x="1402.5" y="-877.8" font-family="Times,serif" font-size="14.00" fill="#000000">[]</text>
</g>
<!-- initializerr11_2 -->
<!-- initializerr11_2&#45;&gt;r11 -->
<g id="edge22" class="edge">
<title>initializerr11_2&#45;&gt;r11:n</title>
<path fill="none" stroke="#0000ff" d="M1302.7692,-926.5398C1281.8268,-906.5821 1251.4958,-871.6856 1246.6606,-833.3511"/>
<polygon fill="#0000ff" stroke="#0000ff" points="1250.1299,-832.7568 1246,-823 1243.1441,-833.2026 1250.1299,-832.7568"/>
<text text-anchor="middle" x="1274" y="-877.8" font-family="Times,serif" font-size="14.00" fill="#000000">2</text>
</g>
<!-- r15&#45;&gt;r15 -->
<g id="edge31" class="edge">
<title>r15:e&#45;&gt;r15:ne</title>
<path fill="none" stroke="#000000" d="M896,-659C919.5882,-650 967.5882,-650 967.5882,-668 967.5882,-685.1211 860.4755,-685.9571 791.3291,-678.2529"/>
<polygon fill="#000000" stroke="#000000" points="791.3487,-674.7297 781,-677 790.5057,-681.6788 791.3487,-674.7297"/>
<text text-anchor="middle" x="805" y="-680.8" font-family="Times,serif" font-size="14.00" fill="#000000">partial</text>
<text text-anchor="middle" x="922" y="-662.8" font-family="Times,serif" font-size="14.00" fill="#000000">/partial</text>
</g>
<!-- r6 -->
<g id="node28" class="node">
<title>r6</title>
<g id="a_node28"><a xlink:href="file:///home/travis/build/andrewdavidmackenzie/flow/flowstdlib/data/buffer/buffer.html" xlink:title="buffer_bounds (#6)">
<ellipse fill="#ff7f50" stroke="#000000" cx="1282" cy="-534" rx="100.9827" ry="18"/>
<text text-anchor="middle" x="1282" y="-530.3" font-family="Times,serif" font-size="14.00" fill="#000000">buffer_bounds (#6)</text>
</a>
</g>
</g>
<!-- r15&#45;&gt;r6 -->
<g id="edge32" class="edge">
<title>r15:s&#45;&gt;r6:n</title>
<path fill="none" stroke="#000000" d="M763,-641C763,-410.5088 1266.407,-774.6985 1281.6469,-562.2103"/>
<polygon fill="#000000" stroke="#000000" points="1285.1522,-562.115 1282,-552 1278.1563,-561.873 1285.1522,-562.115"/>
<text text-anchor="middle" x="738.5" y="-629.8" font-family="Times,serif" font-size="14.00" fill="#000000">/chunk</text>
</g>
<!-- initializerr13_1 -->
<!-- initializerr13_1&#45;&gt;r13 -->
<g id="edge25" class="edge">
<title>initializerr13_1&#45;&gt;r13:n</title>
<path fill="none" stroke="#0000ff" stroke-dasharray="1,5" d="M253.8502,-932.3471C388.51,-907.1886 697.2581,-848.4141 753.9648,-828.018"/>
<polygon fill="#0000ff" stroke="#0000ff" points="755.9571,-830.9151 763,-823 752.5584,-824.7955 755.9571,-830.9151"/>
<text text-anchor="middle" x="557.5" y="-877.8" font-family="Times,serif" font-size="14.00" fill="#000000">[]</text>
</g>
<!-- initializerr13_2 -->
<!-- initializerr13_2&#45;&gt;r13 -->
<g id="edge26" class="edge">
<title>initializerr13_2&#45;&gt;r13:n</title>
<path fill="none" stroke="#0000ff" d="M763,-925.96C763,-904.5319 763,-867.4021 763,-833.4232"/>
<polygon fill="#0000ff" stroke="#0000ff" points="766.5001,-833 763,-823 759.5001,-833 766.5001,-833"/>
<text text-anchor="middle" x="768" y="-877.8" font-family="Times,serif" font-size="14.00" fill="#000000">2</text>
</g>
<!-- initializerr15_1 -->
<!-- initializerr15_1&#45;&gt;r15 -->
<g id="edge29" class="edge">
<title>initializerr15_1&#45;&gt;r15:n</title>
<path fill="none" stroke="#0000ff" stroke-dasharray="1,5" d="M498.687,-789.5336C572.8273,-762.4012 720.8184,-706.9617 755.5728,-684.3275"/>
<polygon fill="#0000ff" stroke="#0000ff" points="758.3393,-686.5147 763,-677 753.4232,-681.5316 758.3393,-686.5147"/>
<text text-anchor="middle" x="697.5" y="-728.3" font-family="Times,serif" font-size="14.00" fill="#000000">[]</text>
</g>
<!-- initializerr15_2 -->
<!-- initializerr15_2&#45;&gt;r15 -->
<g id="edge30" class="edge">
<title>initializerr15_2&#45;&gt;r15:n</title>
<path fill="none" stroke="#0000ff" d="M271.371,-790.9229C340.3805,-772.2298 466.9664,-738.7026 576,-714 584.9164,-711.9799 717.8007,-693.7657 753.9696,-682.0096"/>
<polygon fill="#0000ff" stroke="#0000ff" points="755.9533,-684.9117 763,-677 752.5575,-678.7904 755.9533,-684.9117"/>
<text text-anchor="middle" x="581" y="-728.3" font-family="Times,serif" font-size="14.00" fill="#000000">2</text>
</g>
<!-- r6&#45;&gt;r6 -->
<g id="edge48" class="edge">
<title>r6:e&#45;&gt;r6:n</title>
<path fill="none" stroke="#000000" d="M1383,-534C1406.7411,-525 1454.7411,-525 1454.7411,-543 1454.7411,-560.0156 1351.8316,-560.9462 1291.9351,-553.3943"/>
<polygon fill="#000000" stroke="#000000" points="1292.3894,-549.9239 1282,-552 1291.4165,-556.8559 1292.3894,-549.9239"/>
</g>
<!-- r6&#45;&gt;r2 -->
<g id="edge49" class="edge">
<title>r6:e&#45;&gt;r2:n</title>
<path fill="none" stroke="#000000" d="M1383,-534C1437.2595,-534 1616,-515.2595 1616,-461 1616,-461 1616,-461 1616,-386.5 1616,-29.3111 2401.8192,-606.4403 2416.7835,-267.0436"/>
<polygon fill="#000000" stroke="#000000" points="2420.2836,-267.0731 2417,-257 2413.2852,-266.9222 2420.2836,-267.0731"/>
<text text-anchor="middle" x="2443" y="-260.8" font-family="Times,serif" font-size="14.00" fill="#000000">bounds</text>
</g>
<!-- initializerr21_1 -->
<!-- initializerr21_1&#45;&gt;r21 -->
<g id="edge33" class="edge">
<title>initializerr21_1&#45;&gt;r21:w</title>
<path fill="none" stroke="#0000ff" stroke-dasharray="1,5" d="M2434.9704,-998.9138C2421.8448,-979.8065 2399.663,-949.2796 2377,-926 2250.8443,-796.4119 2212.6986,-754.7522 2042,-695 1995.2428,-678.6329 1964.0766,-714.7521 1932,-677 1929.9766,-674.6185 1928.3132,-671.351 1927.5143,-668.253"/>
<polygon fill="#0000ff" stroke="#0000ff" points="1930.7871,-669.5252 1932,-659 1924.4882,-666.4716 1930.7871,-669.5252"/>
<text text-anchor="middle" x="2312" y="-844.8" font-family="Times,serif" font-size="14.00" fill="#000000">1</text>
</g>
<!-- r18&#45;&gt;r22 -->
<g id="edge36" class="edge">
<title>r18:e&#45;&gt;r22:ne</title>
<path fill="none" stroke="#000000" d="M2707,-732C2715,-732 2712.287,-720.004 2707,-714 2684.9406,-688.949 2591.2359,-698.0898 2558,-695 2526.5022,-692.0718 2310.912,-699.8463 2259.9125,-681.8452"/>
<polygon fill="#000000" stroke="#000000" points="2261.4574,-678.7013 2251,-677 2258.114,-684.8512 2261.4574,-678.7013"/>
<text text-anchor="middle" x="2277" y="-680.8" font-family="Times,serif" font-size="14.00" fill="#000000">control</text>
<text text-anchor="middle" x="2739" y="-735.8" font-family="Times,serif" font-size="14.00" fill="#000000">/right&#45;lte</text>
</g>
<!-- r18&#45;&gt;r18 -->
<g id="edge38" class="edge">
<title>r18:s&#45;&gt;r18:n</title>
<path fill="none" stroke="#000000" d="M2626,-714C2676.8643,-705 2778.5928,-705 2778.5928,-732 2778.5928,-757.3125 2689.183,-758.8945 2636.0959,-751.5776"/>
<polygon fill="#000000" stroke="#000000" points="2636.4205,-748.086 2626,-750 2635.3397,-755.002 2636.4205,-748.086"/>
<text text-anchor="middle" x="2638.5" y="-753.8" font-family="Times,serif" font-size="14.00" fill="#000000">left</text>
<text text-anchor="middle" x="2601.5" y="-702.8" font-family="Times,serif" font-size="14.00" fill="#000000">/left&#45;gt</text>
</g>
<!-- r18&#45;&gt;r23 -->
<g id="edge37" class="edge">
<title>r18:e&#45;&gt;r23:n</title>
<path fill="none" stroke="#000000" d="M2707,-732C2735.1896,-732 2703.5732,-710.6508 2692,-696 2666.7094,-663.984 2637,-663.3 2637,-622.5 2637,-622.5 2637,-622.5 2637,-534 2637,-513.3205 2639.8477,-505.8307 2640.7375,-489.273"/>
<polygon fill="#000000" stroke="#000000" points="2644.2434,-489.0862 2641,-479 2637.2457,-488.9073 2644.2434,-489.0862"/>
<text text-anchor="middle" x="2660.5" y="-482.8" font-family="Times,serif" font-size="14.00" fill="#000000">value</text>
<text text-anchor="middle" x="2739" y="-720.8" font-family="Times,serif" font-size="14.00" fill="#000000">/right&#45;lte</text>
</g>
<!-- r19 -->
<g id="node33" class="node">
<title>r19</title>
<g id="a_node33"><a xlink:href="file:///home/travis/build/andrewdavidmackenzie/flow/flowstdlib/math/add/add.html" xlink:title="add (#19)">
<ellipse fill="#ff7f50" stroke="#000000" cx="2866" cy="-461" rx="57.3905" ry="18"/>
<text text-anchor="middle" x="2866" y="-457.3" font-family="Times,serif" font-size="14.00" fill="#000000">add (#19)</text>
</a>
</g>
</g>
<!-- r18&#45;&gt;r19 -->
<g id="edge39" class="edge">
<title>r18:e&#45;&gt;r19:n</title>
<path fill="none" stroke="#000000" d="M2707,-732C2739.4931,-732 2711,-691.4931 2711,-659 2711,-659 2711,-659 2711,-534 2711,-501.5282 2743.634,-508.5034 2774,-497 2790.1328,-490.8885 2842.6384,-496.8414 2860.2106,-487.2373"/>
<polygon fill="#000000" stroke="#000000" points="2863.1133,-489.194 2866,-479 2857.3863,-485.1689 2863.1133,-489.194"/>
<text text-anchor="middle" x="2859" y="-482.8" font-family="Times,serif" font-size="14.00" fill="#000000">i1</text>
<text text-anchor="middle" x="2679.5" y="-735.8" font-family="Times,serif" font-size="14.00" fill="#000000">/right&#45;lt</text>
</g>
<!-- initializerr18_1 -->
<!-- initializerr18_1&#45;&gt;r18 -->
<g id="edge35" class="edge">
<title>initializerr18_1&#45;&gt;r18:ne</title>
<path fill="none" stroke="#0000ff" stroke-dasharray="1,5" d="M2675.2102,-999.0731C2669.5945,-984.5195 2663,-963.3168 2663,-944 2663,-944 2663,-944 2663,-805 2663,-788.4061 2664.4265,-783.2989 2658,-768 2655.7921,-762.744 2653.906,-759.9732 2651.4027,-757.2793"/>
<polygon fill="#0000ff" stroke="#0000ff" points="2653.5843,-754.5159 2644,-750 2648.6762,-759.507 2653.5843,-754.5159"/>
<text text-anchor="middle" x="2668" y="-877.8" font-family="Times,serif" font-size="14.00" fill="#000000">0</text>
</g>
<!-- r20 -->
<g id="node35" class="node">
<title>r20</title>
<g id="a_node35"><a xlink:href="file:///home/travis/build/andrewdavidmackenzie/flow/flowstdlib/data/enumerate/enumerate.html" xlink:title="enumerate (#20)">
<ellipse fill="#ff7f50" stroke="#000000" cx="2596" cy="-350" rx="90.1842" ry="18"/>
<text text-anchor="middle" x="2596" y="-346.3" font-family="Times,serif" font-size="14.00" fill="#000000">enumerate (#20)</text>
</a>
</g>
</g>
<!-- r23&#45;&gt;r20 -->
<g id="edge45" class="edge">
<title>r23:e&#45;&gt;r20:n</title>
<path fill="none" stroke="#000000" d="M2738,-461C2746,-461 2742.1298,-449.8516 2738,-443 2703.0986,-385.0957 2606.9007,-433.6385 2596.8518,-378.2526"/>
<polygon fill="#000000" stroke="#000000" points="2600.3161,-377.6758 2596,-368 2593.3401,-378.2555 2600.3161,-377.6758"/>
</g>
<!-- r19&#45;&gt;r18 -->
<g id="edge42" class="edge">
<title>r19:se&#45;&gt;r18:ne</title>
<path fill="none" stroke="#000000" d="M2883,-444C2883,-444 2923.1949,-479 2923.1949,-479 2892.9288,-546.2375 2845.5643,-531.8276 2799,-589 2746.8982,-652.9713 2777.9909,-708.6569 2706.5928,-750 2697.0008,-755.5543 2669.1946,-758.5021 2653.3172,-754.4935"/>
<polygon fill="#000000" stroke="#000000" points="2654.5276,-751.1915 2644,-750 2651.4868,-757.4966 2654.5276,-751.1915"/>
<text text-anchor="middle" x="2662" y="-753.8" font-family="Times,serif" font-size="14.00" fill="#000000">right</text>
<text text-anchor="middle" x="2865.5" y="-432.8" font-family="Times,serif" font-size="14.00" fill="#000000">/sum</text>
</g>
<!-- r19&#45;&gt;r19 -->
<g id="edge41" class="edge">
<title>r19:se&#45;&gt;r19:ne</title>
<path fill="none" stroke="#000000" d="M2883,-444C2926.065,-435 2995.1949,-435 2995.1949,-461 2995.1949,-485.0703 2935.9457,-486.8568 2892.9805,-479.8482"/>
<polygon fill="#000000" stroke="#000000" points="2893.4702,-476.3795 2883,-478 2892.1955,-483.2625 2893.4702,-476.3795"/>
<text text-anchor="middle" x="2876" y="-481.8" font-family="Times,serif" font-size="14.00" fill="#000000">i2</text>
<text text-anchor="middle" x="2892.5" y="-432.8" font-family="Times,serif" font-size="14.00" fill="#000000">/i2</text>
</g>
<!-- initializerr19_1 -->
<!-- initializerr19_1&#45;&gt;r19 -->
<g id="edge40" class="edge">
<title>initializerr19_1&#45;&gt;r19:w</title>
<path fill="none" stroke="#0000ff" stroke-dasharray="1,5" d="M2869.4377,-713.7981C2843.5379,-657.7836 2769.5699,-490.2045 2799.155,-464.3621"/>
<polygon fill="#0000ff" stroke="#0000ff" points="2800.6678,-467.544 2809,-461 2798.4055,-460.9197 2800.6678,-467.544"/>
<text text-anchor="middle" x="2827" y="-592.8" font-family="Times,serif" font-size="14.00" fill="#000000">1</text>
</g>
<!-- r20&#45;&gt;r2 -->
<g id="edge46" class="edge">
<title>r20:e&#45;&gt;r2:ne</title>
<path fill="none" stroke="#000000" d="M2687,-350C2695,-350 2691.7743,-338.4192 2687,-332 2618.9853,-240.5515 2522.8488,-333.2565 2441.339,-262.8318"/>
<polygon fill="#000000" stroke="#000000" points="2443.7043,-260.2518 2434,-256 2438.9347,-265.3755 2443.7043,-260.2518"/>
<text text-anchor="middle" x="2451.5" y="-244.8" font-family="Times,serif" font-size="14.00" fill="#000000">pixel</text>
</g>
<!-- r4 -->
<g id="node37" class="node">
<title>r4</title>
<g id="a_node37"><a xlink:href="file:///home/travis/build/andrewdavidmackenzie/flow/samples/mandlebrot/render_pixel/render_pixel.html" xlink:title="p2v (#4)">
<ellipse fill="#ff7f50" stroke="#000000" cx="2469" cy="-145" rx="51.1914" ry="18"/>
<text text-anchor="middle" x="2469" y="-141.3" font-family="Times,serif" font-size="14.00" fill="#000000">p2v (#4)</text>
</a>
</g>
</g>
<!-- r2&#45;&gt;r4 -->
<g id="edge47" class="edge">
<title>r2:e&#45;&gt;r4:n</title>
<path fill="none" stroke="#000000" d="M2469,-239C2499.4792,-239 2474.953,-204.6216 2469.872,-173.0902"/>
<polygon fill="#000000" stroke="#000000" points="2473.3481,-172.6615 2469,-163 2466.3741,-173.2642 2473.3481,-172.6615"/>
<text text-anchor="middle" x="2429.5" y="-166.8" font-family="Times,serif" font-size="14.00" fill="#000000">pixel_point</text>
</g>
<!-- r4&#45;&gt;r5 -->
<g id="edge52" class="edge">
<title>r4:s&#45;&gt;r5:n</title>
<path fill="none" stroke="#000000" d="M2469,-127C2469,-96.4695 2483.2778,-88.0217 2486.4011,-62.3218"/>
<polygon fill="#000000" stroke="#000000" points="2489.9148,-62.186 2487,-52 2482.9265,-61.7804 2489.9148,-62.186"/>
<text text-anchor="middle" x="2504.5" y="-55.8" font-family="Times,serif" font-size="14.00" fill="#000000">pixel</text>
<text text-anchor="middle" x="2462" y="-115.8" font-family="Times,serif" font-size="14.00" fill="#000000">/0</text>
</g>
<!-- r4&#45;&gt;r5 -->
<g id="edge53" class="edge">
<title>r4:sw&#45;&gt;r5:ne</title>
<path fill="none" stroke="#000000" d="M2452,-128C2425.9524,-101.9524 2512.2159,-84.9918 2509.8589,-60.861"/>
<polygon fill="#000000" stroke="#000000" points="2512.877,-59.0855 2505,-52 2506.7392,-62.4511 2512.877,-59.0855"/>
<text text-anchor="middle" x="2524.5" y="-55.8" font-family="Times,serif" font-size="14.00" fill="#000000">value</text>
<text text-anchor="middle" x="2445" y="-116.8" font-family="Times,serif" font-size="14.00" fill="#000000">/1</text>
</g>
</g>
</svg>
