<?xml version="1.0" encoding="UTF-8" standalone="no"?>
<!DOCTYPE svg PUBLIC "-//W3C//DTD SVG 1.1//EN"
 "http://www.w3.org/Graphics/SVG/1.1/DTD/svg11.dtd">
<!-- Generated by graphviz version 2.40.1 (20161225.0304)
 -->
<!-- Title: mandlebrot Pages: 1 -->
<svg width="2998pt" height="1355pt"
 viewBox="0.00 0.00 2998.00 1355.00" xmlns="http://www.w3.org/2000/svg" xmlns:xlink="http://www.w3.org/1999/xlink">
<g id="graph0" class="graph" transform="scale(1 1) rotate(0) translate(4 1351)">
<title>mandlebrot</title>
<polygon fill="#ffffff" stroke="transparent" points="-4,4 -4,-1351 2994,-1351 2994,4 -4,4"/>
<text text-anchor="middle" x="1495" y="-1331.8" font-family="Times,serif" font-size="14.00" fill="#000000">/mandlebrot</text>
<g id="clust1" class="cluster">
<title>cluster_parse_args</title>
<polygon fill="none" stroke="#000000" points="101,-508 101,-1316 2289,-1316 2289,-508 101,-508"/>
<text text-anchor="middle" x="1195" y="-1300.8" font-family="Times,serif" font-size="14.00" fill="#000000">/mandlebrot/parse_args</text>
</g>
<g id="clust2" class="cluster">
<title>cluster_generate_pixels</title>
<polygon fill="none" stroke="#000000" points="2297,-213 2297,-1097 2916,-1097 2916,-213 2297,-213"/>
<text text-anchor="middle" x="2606.5" y="-1081.8" font-family="Times,serif" font-size="14.00" fill="#000000">/mandlebrot/generate_pixels</text>
</g>
<g id="clust3" class="cluster">
<title>cluster_y_sequence</title>
<polygon fill="none" stroke="#000000" points="2477,-435 2477,-1066 2908,-1066 2908,-435 2477,-435"/>
<text text-anchor="middle" x="2692.5" y="-1050.8" font-family="Times,serif" font-size="14.00" fill="#000000">/mandlebrot/generate_pixels/y&#45;sequence</text>
</g>
<g id="clust4" class="cluster">
<title>cluster_render</title>
<polygon fill="none" stroke="#000000" points="2319,-8 2319,-194 2537,-194 2537,-8 2319,-8"/>
<text text-anchor="middle" x="2428" y="-178.8" font-family="Times,serif" font-size="14.00" fill="#000000">/mandlebrot/render</text>
</g>
<!-- r6 -->
<g id="node1" class="node">
<title>r6</title>
<g id="a_node1"><a xlink:href="file:///home/travis/build/andrewdavidmackenzie/flow/flowr/src/lib/flowruntime/args/get.html" xlink:title="args (#6)">
<ellipse fill="#ff7f50" stroke="#000000" cx="613" cy="-1267" rx="54.6905" ry="18"/>
<text text-anchor="middle" x="613" y="-1263.3" font-family="Times,serif" font-size="14.00" fill="#000000">args (#6)</text>
</a>
</g>
</g>
<!-- r22 -->
<g id="node2" class="node">
<title>r22</title>
<g id="a_node2"><a xlink:href="file:///home/travis/build/andrewdavidmackenzie/flow/flowstdlib/data/buffer/buffer.html" xlink:title="filename_buffer (#22)">
<ellipse fill="#ff7f50" stroke="#000000" cx="222" cy="-1142" rx="113.18" ry="18"/>
<text text-anchor="middle" x="222" y="-1138.3" font-family="Times,serif" font-size="14.00" fill="#000000">filename_buffer (#22)</text>
</a>
</g>
</g>
<!-- r6&#45;&gt;r22 -->
<g id="edge1" class="edge">
<title>r6:s&#45;&gt;r22:n</title>
<path fill="none" stroke="#000000" d="M613,-1249C613,-1207.5778 474.3526,-1206.3528 434,-1197 391.0515,-1187.0456 247.1203,-1204.6428 224.8932,-1169.9856"/>
<polygon fill="#000000" stroke="#000000" points="228.1448,-1168.6309 222,-1160 221.4213,-1170.579 228.1448,-1168.6309"/>
<text text-anchor="middle" x="582.5" y="-1237.8" font-family="Times,serif" font-size="14.00" fill="#000000">/string/1</text>
</g>
<!-- r9 -->
<g id="node3" class="node">
<title>r9</title>
<g id="a_node3"><a xlink:href="file:///home/travis/build/andrewdavidmackenzie/flow/flowstdlib/data/ordered_split/ordered_split.html" xlink:title="split_size (#9)">
<ellipse fill="#ff7f50" stroke="#000000" cx="1414" cy="-1142" rx="77.1866" ry="18"/>
<text text-anchor="middle" x="1414" y="-1138.3" font-family="Times,serif" font-size="14.00" fill="#000000">split_size (#9)</text>
</a>
</g>
</g>
<!-- r6&#45;&gt;r9 -->
<g id="edge2" class="edge">
<title>r6:se&#45;&gt;r9:n</title>
<path fill="none" stroke="#000000" d="M630,-1250C652.9358,-1227.0642 734.306,-1203.8986 766,-1197 782.3437,-1193.4426 1326.09,-1180.1579 1404.593,-1163.8602"/>
<polygon fill="#000000" stroke="#000000" points="1406.0774,-1167.0344 1414,-1160 1403.4199,-1160.5584 1406.0774,-1167.0344"/>
<text text-anchor="middle" x="1392.5" y="-1163.8" font-family="Times,serif" font-size="14.00" fill="#000000">string</text>
<text text-anchor="middle" x="660.5" y="-1238.8" font-family="Times,serif" font-size="14.00" fill="#000000">/string/2</text>
</g>
<!-- r2 -->
<g id="node4" class="node">
<title>r2</title>
<g id="a_node4"><a xlink:href="file:///home/travis/build/andrewdavidmackenzie/flow/flowstdlib/data/ordered_split/ordered_split.html" xlink:title="split_upper_left (#2)">
<ellipse fill="#ff7f50" stroke="#000000" cx="906" cy="-1142" rx="107.4815" ry="18"/>
<text text-anchor="middle" x="906" y="-1138.3" font-family="Times,serif" font-size="14.00" fill="#000000">split_upper_left (#2)</text>
</a>
</g>
</g>
<!-- r6&#45;&gt;r2 -->
<g id="edge3" class="edge">
<title>r6:e&#45;&gt;r2:n</title>
<path fill="none" stroke="#000000" d="M668,-1267C685.8885,-1267 687.3889,-1255.6386 704,-1249 756.22,-1228.1304 773.9715,-1235.6338 825,-1212 860.331,-1195.6365 898.4477,-1201.4219 905.0116,-1170.3393"/>
<polygon fill="#000000" stroke="#000000" points="908.5324,-1170.2877 906,-1160 901.5641,-1169.6215 908.5324,-1170.2877"/>
<text text-anchor="middle" x="884.5" y="-1163.8" font-family="Times,serif" font-size="14.00" fill="#000000">string</text>
<text text-anchor="middle" x="698.5" y="-1270.8" font-family="Times,serif" font-size="14.00" fill="#000000">/string/3</text>
</g>
<!-- r1 -->
<g id="node5" class="node">
<title>r1</title>
<g id="a_node5"><a xlink:href="file:///home/travis/build/andrewdavidmackenzie/flow/flowstdlib/data/ordered_split/ordered_split.html" xlink:title="split_lower_right (#1)">
<ellipse fill="#ff7f50" stroke="#000000" cx="538" cy="-1142" rx="113.18" ry="18"/>
<text text-anchor="middle" x="538" y="-1138.3" font-family="Times,serif" font-size="14.00" fill="#000000">split_lower_right (#1)</text>
</a>
</g>
</g>
<!-- r6&#45;&gt;r1 -->
<g id="edge4" class="edge">
<title>r6:se&#45;&gt;r1:n</title>
<path fill="none" stroke="#000000" d="M630,-1250C667.919,-1212.081 553.8805,-1216.4325 539.4776,-1169.9927"/>
<polygon fill="#000000" stroke="#000000" points="542.9252,-1169.3805 538,-1160 536.0005,-1170.4044 542.9252,-1169.3805"/>
<text text-anchor="middle" x="516.5" y="-1163.8" font-family="Times,serif" font-size="14.00" fill="#000000">string</text>
<text text-anchor="middle" x="660.5" y="-1253.8" font-family="Times,serif" font-size="14.00" fill="#000000">/string/4</text>
</g>
<!-- r22&#45;&gt;r22 -->
<g id="edge54" class="edge">
<title>r22:e&#45;&gt;r22:n</title>
<path fill="none" stroke="#000000" d="M335,-1142C359.09,-1133 407.09,-1133 407.09,-1151 407.09,-1168.0508 296.3676,-1168.9499 232.2482,-1161.3474"/>
<polygon fill="#000000" stroke="#000000" points="232.371,-1157.8335 222,-1160 231.4584,-1164.7738 232.371,-1157.8335"/>
</g>
<!-- r23 -->
<g id="node38" class="node">
<title>r23</title>
<g id="a_node38"><a xlink:href="file:///home/travis/build/andrewdavidmackenzie/flow/flowr/src/lib/flowruntime/image/image_buffer.html" xlink:title="image_buffer (#23)">
<ellipse fill="#ff7f50" stroke="#000000" cx="2428" cy="-34" rx="101.2821" ry="18"/>
<text text-anchor="middle" x="2428" y="-30.3" font-family="Times,serif" font-size="14.00" fill="#000000">image_buffer (#23)</text>
</a>
</g>
</g>
<!-- r22&#45;&gt;r23 -->
<g id="edge55" class="edge">
<title>r22:e&#45;&gt;r23:w</title>
<path fill="none" stroke="#000000" d="M335,-1142C343,-1142 339.7184,-1130.4604 335,-1124 242.8139,-997.7813 0,-1173.2992 0,-1017 0,-1017 0,-1017 0,-89.5 0,-58.2266 2148.2322,-35.5038 2315.9826,-34.0718"/>
<polygon fill="#000000" stroke="#000000" points="2316.0254,-37.5716 2326,-34 2315.9751,-30.5718 2316.0254,-37.5716"/>
<text text-anchor="middle" x="2295" y="-37.8" font-family="Times,serif" font-size="14.00" fill="#000000">filename</text>
</g>
<!-- r5 -->
<g id="node7" class="node">
<title>r5</title>
<g id="a_node7"><a xlink:href="file:///home/travis/build/andrewdavidmackenzie/flow/flowstdlib/fmt/to_json/to_json.html" xlink:title="size_to_json (#5)">
<ellipse fill="#ff7f50" stroke="#000000" cx="1743" cy="-944" rx="90.1842" ry="18"/>
<text text-anchor="middle" x="1743" y="-940.3" font-family="Times,serif" font-size="14.00" fill="#000000">size_to_json (#5)</text>
</a>
</g>
</g>
<!-- r9&#45;&gt;r5 -->
<g id="edge6" class="edge">
<title>r9:e&#45;&gt;r5:n</title>
<path fill="none" stroke="#000000" d="M1492,-1142C1625.7903,-1142 1737.2098,-1101.4178 1742.7815,-972.2745"/>
<polygon fill="#000000" stroke="#000000" points="1746.2865,-972.0722 1743,-962 1739.2881,-971.9233 1746.2865,-972.0722"/>
</g>
<!-- r3 -->
<g id="node16" class="node">
<title>r3</title>
<g id="a_node16"><a xlink:href="file:///home/travis/build/andrewdavidmackenzie/flow/flowstdlib/fmt/to_json/to_json.html" xlink:title="upper_left_to_json (#3)">
<ellipse fill="#ff7f50" stroke="#000000" cx="1013" cy="-944" rx="120.4791" ry="18"/>
<text text-anchor="middle" x="1013" y="-940.3" font-family="Times,serif" font-size="14.00" fill="#000000">upper_left_to_json (#3)</text>
</a>
</g>
</g>
<!-- r2&#45;&gt;r3 -->
<g id="edge16" class="edge">
<title>r2:e&#45;&gt;r3:n</title>
<path fill="none" stroke="#000000" d="M1013,-1142C1089.5625,-1142 1019.5796,-1050.4091 1013.4241,-972.4138"/>
<polygon fill="#000000" stroke="#000000" points="1016.9041,-971.8493 1013,-962 1009.9099,-972.1342 1016.9041,-971.8493"/>
</g>
<!-- r10 -->
<g id="node19" class="node">
<title>r10</title>
<g id="a_node19"><a xlink:href="file:///home/travis/build/andrewdavidmackenzie/flow/flowstdlib/fmt/to_json/to_json.html" xlink:title="lower_right_to_json (#10)">
<ellipse fill="#ff7f50" stroke="#000000" cx="465" cy="-944" rx="131.8766" ry="18"/>
<text text-anchor="middle" x="465" y="-940.3" font-family="Times,serif" font-size="14.00" fill="#000000">lower_right_to_json (#10)</text>
</a>
</g>
</g>
<!-- r1&#45;&gt;r10 -->
<g id="edge19" class="edge">
<title>r1:e&#45;&gt;r10:n</title>
<path fill="none" stroke="#000000" d="M651,-1142C659,-1142 654.3141,-1131.2813 651,-1124 607.0502,-1027.4387 473.9624,-1068.7232 465.4301,-972.1195"/>
<polygon fill="#000000" stroke="#000000" points="468.9216,-971.8423 465,-962 461.9279,-972.1396 468.9216,-971.8423"/>
</g>
<!-- initializerr9_1 -->
<!-- initializerr9_1&#45;&gt;r9 -->
<g id="edge5" class="edge">
<title>initializerr9_1&#45;&gt;r9:w</title>
<path fill="none" stroke="#0000ff" d="M1328.692,-1248.8239C1316.8853,-1217.2702 1297.6589,-1154.6628 1326.1234,-1143.6678"/>
<polygon fill="#0000ff" stroke="#0000ff" points="1326.7224,-1147.1163 1336,-1142 1325.5568,-1140.214 1326.7224,-1147.1163"/>
<text text-anchor="middle" x="1327" y="-1200.8" font-family="Times,serif" font-size="14.00" fill="#000000">&quot;x&quot;</text>
</g>
<!-- r7 -->
<g id="node8" class="node">
<title>r7</title>
<g id="a_node8"><a xlink:href="file:///home/travis/build/andrewdavidmackenzie/flow/flowstdlib/data/accumulate/accumulate.html" xlink:title="accumulate_size (#7)">
<ellipse fill="#ff7f50" stroke="#000000" cx="1981" cy="-805" rx="111.2805" ry="18"/>
<text text-anchor="middle" x="1981" y="-801.3" font-family="Times,serif" font-size="14.00" fill="#000000">accumulate_size (#7)</text>
</a>
</g>
</g>
<!-- r5&#45;&gt;r7 -->
<g id="edge7" class="edge">
<title>r5:e&#45;&gt;r7:n</title>
<path fill="none" stroke="#000000" d="M1834,-944C1838.5863,-944 1945.7643,-856.9835 1974.1526,-830.4207"/>
<polygon fill="#000000" stroke="#000000" points="1976.7908,-832.7228 1981,-823 1971.6463,-827.9758 1976.7908,-832.7228"/>
<text text-anchor="middle" x="1958" y="-826.8" font-family="Times,serif" font-size="14.00" fill="#000000">values</text>
</g>
<!-- r7&#45;&gt;r7 -->
<g id="edge10" class="edge">
<title>r7:e&#45;&gt;r7:ne</title>
<path fill="none" stroke="#000000" d="M2092,-805C2116.1401,-796 2164.1401,-796 2164.1401,-814 2164.1401,-831.0508 2070.7358,-831.9499 2008.9953,-824.3474"/>
<polygon fill="#000000" stroke="#000000" points="2009.378,-820.8674 1999,-823 2008.4427,-827.8047 2009.378,-820.8674"/>
<text text-anchor="middle" x="2023" y="-826.8" font-family="Times,serif" font-size="14.00" fill="#000000">partial</text>
<text text-anchor="middle" x="2118" y="-808.8" font-family="Times,serif" font-size="14.00" fill="#000000">/partial</text>
</g>
<!-- r16 -->
<g id="node11" class="node">
<title>r16</title>
<g id="a_node11"><a xlink:href="file:///home/travis/build/andrewdavidmackenzie/flow/flowstdlib/math/subtract/subtract.html" xlink:title="height (#16)">
<ellipse fill="#ff7f50" stroke="#000000" cx="1942" cy="-659" rx="69.5877" ry="18"/>
<text text-anchor="middle" x="1942" y="-655.3" font-family="Times,serif" font-size="14.00" fill="#000000">height (#16)</text>
</a>
</g>
</g>
<!-- r7&#45;&gt;r16 -->
<g id="edge11" class="edge">
<title>r7:sw&#45;&gt;r16:n</title>
<path fill="none" stroke="#000000" d="M1963,-787C1947.4762,-771.4762 1929.3763,-787.1329 1917,-769 1895.1662,-737.0105 1934.1351,-722.0368 1940.9941,-687.3399"/>
<polygon fill="#000000" stroke="#000000" points="1944.5152,-687.2919 1942,-677 1937.5481,-686.6141 1944.5152,-687.2919"/>
<text text-anchor="middle" x="1935" y="-680.8" font-family="Times,serif" font-size="14.00" fill="#000000">i1</text>
<text text-anchor="middle" x="1931.5" y="-775.8" font-family="Times,serif" font-size="14.00" fill="#000000">/chunk/1</text>
</g>
<!-- r15 -->
<g id="node12" class="node">
<title>r15</title>
<g id="a_node12"><a xlink:href="file:///home/travis/build/andrewdavidmackenzie/flow/flowstdlib/control/join/join.html" xlink:title="width&#45;gate (#15)">
<ellipse fill="#ff7f50" stroke="#000000" cx="2173" cy="-659" rx="89.8845" ry="18"/>
<text text-anchor="middle" x="2173" y="-655.3" font-family="Times,serif" font-size="14.00" fill="#000000">width&#45;gate (#15)</text>
</a>
</g>
</g>
<!-- r7&#45;&gt;r15 -->
<g id="edge12" class="edge">
<title>r7:s&#45;&gt;r15:n</title>
<path fill="none" stroke="#000000" d="M1981,-787C1981,-764.216 2008.6214,-779.1893 2029,-769 2093.7446,-736.6277 2165.8862,-751.3815 2172.5072,-687.0763"/>
<polygon fill="#000000" stroke="#000000" points="2176.0073,-687.1591 2173,-677 2169.0156,-686.8171 2176.0073,-687.1591"/>
<text text-anchor="middle" x="2157" y="-680.8" font-family="Times,serif" font-size="14.00" fill="#000000">data</text>
<text text-anchor="middle" x="2012.5" y="-775.8" font-family="Times,serif" font-size="14.00" fill="#000000">/chunk/0</text>
</g>
<!-- r19 -->
<g id="node13" class="node">
<title>r19</title>
<g id="a_node13"><a xlink:href="file:///home/travis/build/andrewdavidmackenzie/flow/flowstdlib/data/buffer/buffer.html" xlink:title="buffer_size (#19)">
<ellipse fill="#ff7f50" stroke="#000000" cx="1419" cy="-659" rx="90.9839" ry="18"/>
<text text-anchor="middle" x="1419" y="-655.3" font-family="Times,serif" font-size="14.00" fill="#000000">buffer_size (#19)</text>
</a>
</g>
</g>
<!-- r7&#45;&gt;r19 -->
<g id="edge13" class="edge">
<title>r7:s&#45;&gt;r19:n</title>
<path fill="none" stroke="#000000" d="M1981,-787C1981,-726.6018 1474.6289,-739.0851 1423.2006,-686.0889"/>
<polygon fill="#000000" stroke="#000000" points="1426.3724,-684.6091 1419,-677 1420.0182,-687.5458 1426.3724,-684.6091"/>
<text text-anchor="middle" x="1956.5" y="-775.8" font-family="Times,serif" font-size="14.00" fill="#000000">/chunk</text>
</g>
<!-- r17 -->
<g id="node14" class="node">
<title>r17</title>
<g id="a_node14"><a xlink:href="file:///home/travis/build/andrewdavidmackenzie/flow/flowstdlib/data/buffer/buffer.html" xlink:title="size_buffer (#17)">
<ellipse fill="#ff7f50" stroke="#000000" cx="1691" cy="-659" rx="90.9839" ry="18"/>
<text text-anchor="middle" x="1691" y="-655.3" font-family="Times,serif" font-size="14.00" fill="#000000">size_buffer (#17)</text>
</a>
</g>
</g>
<!-- r7&#45;&gt;r17 -->
<g id="edge14" class="edge">
<title>r7:s&#45;&gt;r17:n</title>
<path fill="none" stroke="#000000" d="M1981,-787C1981,-744.5096 1987.9933,-721.7746 1955,-695 1934.4888,-678.3548 1737.7355,-700.8221 1697.9816,-684.2352"/>
<polygon fill="#000000" stroke="#000000" points="1700.4625,-681.7658 1691,-677 1695.4252,-686.6264 1700.4625,-681.7658"/>
<text text-anchor="middle" x="1956.5" y="-790.8" font-family="Times,serif" font-size="14.00" fill="#000000">/chunk</text>
</g>
<!-- initializerr7_1 -->
<!-- initializerr7_1&#45;&gt;r7 -->
<g id="edge8" class="edge">
<title>initializerr7_1&#45;&gt;r7:n</title>
<path fill="none" stroke="#0000ff" stroke-dasharray="1,5" d="M2171.4649,-927.7968C2117.7639,-901.6318 2015.6983,-850.9383 1988.0543,-830.413"/>
<polygon fill="#0000ff" stroke="#0000ff" points="1990.4292,-827.8314 1981,-823 1985.3582,-832.6569 1990.4292,-827.8314"/>
<text text-anchor="middle" x="2098.5" y="-877.8" font-family="Times,serif" font-size="14.00" fill="#000000">[]</text>
</g>
<!-- initializerr7_2 -->
<!-- initializerr7_2&#45;&gt;r7 -->
<g id="edge9" class="edge">
<title>initializerr7_2&#45;&gt;r7:n</title>
<path fill="none" stroke="#0000ff" d="M1981,-925.96C1981,-904.5319 1981,-867.4021 1981,-833.4232"/>
<polygon fill="#0000ff" stroke="#0000ff" points="1984.5001,-833 1981,-823 1977.5001,-833 1984.5001,-833"/>
<text text-anchor="middle" x="1986" y="-877.8" font-family="Times,serif" font-size="14.00" fill="#000000">2</text>
</g>
<!-- r12 -->
<g id="node30" class="node">
<title>r12</title>
<g id="a_node30"><a xlink:href="file:///home/travis/build/andrewdavidmackenzie/flow/flowstdlib/control/compare_switch/compare_switch.html" xlink:title="compare (#12)">
<ellipse fill="#ff7f50" stroke="#000000" cx="2566" cy="-732" rx="80.6858" ry="18"/>
<text text-anchor="middle" x="2566" y="-728.3" font-family="Times,serif" font-size="14.00" fill="#000000">compare (#12)</text>
</a>
</g>
</g>
<!-- r16&#45;&gt;r12 -->
<g id="edge34" class="edge">
<title>r16:se&#45;&gt;r12:n</title>
<path fill="none" stroke="#000000" d="M1960,-641C1968.0993,-632.9007 2000.9478,-636.65 2011.5438,-641 2032.609,-649.6479 2027.1361,-667.8771 2048,-677 2078.5278,-690.3485 2624.1656,-689.3596 2646.5928,-714 2646.5928,-714 2596.4142,-736.4143 2575.245,-745.8703"/>
<polygon fill="#000000" stroke="#000000" points="2573.703,-742.7258 2566,-750 2576.558,-749.1171 2573.703,-742.7258"/>
<text text-anchor="middle" x="2553.5" y="-753.8" font-family="Times,serif" font-size="14.00" fill="#000000">left</text>
<text text-anchor="middle" x="1945.5" y="-629.8" font-family="Times,serif" font-size="14.00" fill="#000000">/diff</text>
</g>
<!-- r15&#45;&gt;r15 -->
<g id="edge43" class="edge">
<title>r15:e&#45;&gt;r15:n</title>
<path fill="none" stroke="#000000" d="M2263,-659C2286.692,-650 2334.692,-650 2334.692,-668 2334.692,-684.9453 2239.1595,-685.9382 2182.9967,-678.4875"/>
<polygon fill="#000000" stroke="#000000" points="2183.4063,-675.01 2173,-677 2182.3759,-681.9338 2183.4063,-675.01"/>
<text text-anchor="middle" x="2189" y="-680.8" font-family="Times,serif" font-size="14.00" fill="#000000">data</text>
</g>
<!-- r13 -->
<g id="node32" class="node">
<title>r13</title>
<g id="a_node32"><a xlink:href="file:///home/travis/build/andrewdavidmackenzie/flow/flowstdlib/data/duplicate/duplicate.html" xlink:title="y&#45;duplicator (#13)">
<ellipse fill="#ff7f50" stroke="#000000" cx="2581" cy="-461" rx="96.3833" ry="18"/>
<text text-anchor="middle" x="2581" y="-457.3" font-family="Times,serif" font-size="14.00" fill="#000000">y&#45;duplicator (#13)</text>
</a>
</g>
</g>
<!-- r15&#45;&gt;r13 -->
<g id="edge44" class="edge">
<title>r15:e&#45;&gt;r13:ne</title>
<path fill="none" stroke="#000000" d="M2263,-659C2414.1405,-659 2427.568,-566.0759 2562,-497 2571.6576,-492.0376 2587.4495,-491.181 2595.9797,-488.5973"/>
<polygon fill="#000000" stroke="#000000" points="2599.3366,-489.5895 2599,-479 2592.6595,-487.4881 2599.3366,-489.5895"/>
<text text-anchor="middle" x="2577.5" y="-482.8" font-family="Times,serif" font-size="14.00" fill="#000000">factor</text>
</g>
<!-- r19&#45;&gt;r19 -->
<g id="edge50" class="edge">
<title>r19:e&#45;&gt;r19:n</title>
<path fill="none" stroke="#000000" d="M1510,-659C1533.9919,-650 1581.9919,-650 1581.9919,-668 1581.9919,-684.9453 1485.6913,-685.9382 1429.0771,-678.4875"/>
<polygon fill="#000000" stroke="#000000" points="1429.4039,-674.9979 1419,-677 1428.3817,-681.9229 1429.4039,-674.9979"/>
</g>
<!-- r20 -->
<g id="node36" class="node">
<title>r20</title>
<g id="a_node36"><a xlink:href="file:///home/travis/build/andrewdavidmackenzie/flow/samples/mandlebrot/pixel_to_point/pixel_to_point.html" xlink:title="p2p (#20)">
<ellipse fill="#ff7f50" stroke="#000000" cx="2363" cy="-239" rx="57.6901" ry="18"/>
<text text-anchor="middle" x="2363" y="-235.3" font-family="Times,serif" font-size="14.00" fill="#000000">p2p (#20)</text>
</a>
</g>
</g>
<!-- r19&#45;&gt;r20 -->
<g id="edge51" class="edge">
<title>r19:e&#45;&gt;r20:nw</title>
<path fill="none" stroke="#000000" d="M1510,-659C1510.339,-659 1695,-596.839 1695,-596.5 1695,-596.5 1695,-596.5 1695,-294.5 1695,-152.9771 2218.1156,-348.876 2338.0726,-262.7006"/>
<polygon fill="#000000" stroke="#000000" points="2340.6221,-265.1285 2346,-256 2336.1033,-259.7823 2340.6221,-265.1285"/>
<text text-anchor="middle" x="2332" y="-259.8" font-family="Times,serif" font-size="14.00" fill="#000000">size</text>
</g>
<!-- r17&#45;&gt;r17 -->
<g id="edge56" class="edge">
<title>r17:e&#45;&gt;r17:n</title>
<path fill="none" stroke="#000000" d="M1782,-659C1805.9919,-650 1853.9919,-650 1853.9919,-668 1853.9919,-684.9453 1757.6913,-685.9382 1701.0771,-678.4875"/>
<polygon fill="#000000" stroke="#000000" points="1701.4039,-674.9979 1691,-677 1700.3817,-681.9229 1701.4039,-674.9979"/>
</g>
<!-- r17&#45;&gt;r23 -->
<g id="edge57" class="edge">
<title>r17:e&#45;&gt;r23:nw</title>
<path fill="none" stroke="#000000" d="M1782,-659C1807.2982,-659 1811.395,-646.8818 1836,-641 2074.1722,-584.0648 2703.0511,-580.2986 2926,-479 2960.0141,-463.5454 2990,-461.8604 2990,-424.5 2990,-424.5 2990,-424.5 2990,-89.5 2990,-30.723 2471.7095,-85.7016 2413.0082,-61.6261"/>
<polygon fill="#000000" stroke="#000000" points="2416.3235,-60.5008 2410,-52 2409.6421,-62.5888 2416.3235,-60.5008"/>
<text text-anchor="middle" x="2396" y="-55.8" font-family="Times,serif" font-size="14.00" fill="#000000">size</text>
</g>
<!-- initializerr2_1 -->
<!-- initializerr2_1&#45;&gt;r2 -->
<g id="edge15" class="edge">
<title>initializerr2_1&#45;&gt;r2:w</title>
<path fill="none" stroke="#0000ff" d="M806.2898,-1249.0905C790.1777,-1217.7673 762.2067,-1155.2651 788.8905,-1143.8213"/>
<polygon fill="#0000ff" stroke="#0000ff" points="789.779,-1147.2177 799,-1142 788.5378,-1140.3286 789.779,-1147.2177"/>
<text text-anchor="middle" x="797.5" y="-1200.8" font-family="Times,serif" font-size="14.00" fill="#000000">&quot;,&quot;</text>
</g>
<!-- r8 -->
<g id="node17" class="node">
<title>r8</title>
<g id="a_node17"><a xlink:href="file:///home/travis/build/andrewdavidmackenzie/flow/flowstdlib/data/accumulate/accumulate.html" xlink:title="accumulate_upper_left (#8)">
<ellipse fill="#ff7f50" stroke="#000000" cx="1207" cy="-805" rx="141.075" ry="18"/>
<text text-anchor="middle" x="1207" y="-801.3" font-family="Times,serif" font-size="14.00" fill="#000000">accumulate_upper_left (#8)</text>
</a>
</g>
</g>
<!-- r3&#45;&gt;r8 -->
<g id="edge17" class="edge">
<title>r3:e&#45;&gt;r8:n</title>
<path fill="none" stroke="#000000" d="M1133,-944C1185.5366,-944 1160.4852,-883.7662 1191,-841 1194.4971,-836.0989 1199.1224,-834.4029 1202.5003,-831.952"/>
<polygon fill="#000000" stroke="#000000" points="1205.6361,-833.5067 1207,-823 1199.3817,-830.3629 1205.6361,-833.5067"/>
<text text-anchor="middle" x="1184" y="-826.8" font-family="Times,serif" font-size="14.00" fill="#000000">values</text>
</g>
<!-- r8&#45;&gt;r8 -->
<g id="edge23" class="edge">
<title>r8:e&#45;&gt;r8:ne</title>
<path fill="none" stroke="#000000" d="M1348,-805C1372.0375,-796 1420.0375,-796 1420.0375,-814 1420.0375,-831.1563 1307.3673,-831.9604 1235.3173,-824.2054"/>
<polygon fill="#000000" stroke="#000000" points="1235.3386,-820.6841 1225,-823 1234.5263,-827.6368 1235.3386,-820.6841"/>
<text text-anchor="middle" x="1249" y="-826.8" font-family="Times,serif" font-size="14.00" fill="#000000">partial</text>
<text text-anchor="middle" x="1374" y="-808.8" font-family="Times,serif" font-size="14.00" fill="#000000">/partial</text>
</g>
<!-- r0 -->
<g id="node23" class="node">
<title>r0</title>
<g id="a_node23"><a xlink:href="file:///home/travis/build/andrewdavidmackenzie/flow/flowstdlib/data/accumulate/accumulate.html" xlink:title="accumulate_bounds (#0)">
<ellipse fill="#ff7f50" stroke="#000000" cx="745" cy="-659" rx="126.978" ry="18"/>
<text text-anchor="middle" x="745" y="-655.3" font-family="Times,serif" font-size="14.00" fill="#000000">accumulate_bounds (#0)</text>
</a>
</g>
</g>
<!-- r8&#45;&gt;r0 -->
<g id="edge24" class="edge">
<title>r8:s&#45;&gt;r0:n</title>
<path fill="none" stroke="#000000" d="M1207,-787C1207,-737.4267 799.2517,-730.4859 749.8759,-686.0751"/>
<polygon fill="#000000" stroke="#000000" points="752.8162,-684.1525 745,-677 746.6498,-687.4656 752.8162,-684.1525"/>
<text text-anchor="middle" x="722" y="-680.8" font-family="Times,serif" font-size="14.00" fill="#000000">values</text>
<text text-anchor="middle" x="1182.5" y="-775.8" font-family="Times,serif" font-size="14.00" fill="#000000">/chunk</text>
</g>
<!-- initializerr1_1 -->
<!-- initializerr1_1&#45;&gt;r1 -->
<g id="edge18" class="edge">
<title>initializerr1_1&#45;&gt;r1:w</title>
<path fill="none" stroke="#0000ff" d="M404.8207,-1248.8239C396.7157,-1217.2702 384.8643,-1154.6628 414.8525,-1143.6678"/>
<polygon fill="#0000ff" stroke="#0000ff" points="415.7,-1147.0755 425,-1142 414.5647,-1140.1682 415.7,-1147.0755"/>
<text text-anchor="middle" x="406.5" y="-1200.8" font-family="Times,serif" font-size="14.00" fill="#000000">&quot;,&quot;</text>
</g>
<!-- r4 -->
<g id="node20" class="node">
<title>r4</title>
<g id="a_node20"><a xlink:href="file:///home/travis/build/andrewdavidmackenzie/flow/flowstdlib/data/accumulate/accumulate.html" xlink:title="accumulate_lower_right (#4)">
<ellipse fill="#ff7f50" stroke="#000000" cx="745" cy="-805" rx="146.774" ry="18"/>
<text text-anchor="middle" x="745" y="-801.3" font-family="Times,serif" font-size="14.00" fill="#000000">accumulate_lower_right (#4)</text>
</a>
</g>
</g>
<!-- r10&#45;&gt;r4 -->
<g id="edge20" class="edge">
<title>r10:e&#45;&gt;r4:n</title>
<path fill="none" stroke="#000000" d="M597,-944C601.6049,-944 709.5213,-856.9996 738.1053,-830.4272"/>
<polygon fill="#000000" stroke="#000000" points="740.7617,-832.7102 745,-823 735.6314,-827.9477 740.7617,-832.7102"/>
<text text-anchor="middle" x="722" y="-826.8" font-family="Times,serif" font-size="14.00" fill="#000000">values</text>
</g>
<!-- r4&#45;&gt;r4 -->
<g id="edge27" class="edge">
<title>r4:e&#45;&gt;r4:ne</title>
<path fill="none" stroke="#000000" d="M892,-805C915.887,-796 963.887,-796 963.887,-814 963.887,-831.1914 847.1974,-831.9637 773.149,-824.1576"/>
<polygon fill="#000000" stroke="#000000" points="773.3322,-820.6559 763,-823 772.5389,-827.6108 773.3322,-820.6559"/>
<text text-anchor="middle" x="787" y="-826.8" font-family="Times,serif" font-size="14.00" fill="#000000">partial</text>
<text text-anchor="middle" x="918" y="-808.8" font-family="Times,serif" font-size="14.00" fill="#000000">/partial</text>
</g>
<!-- r4&#45;&gt;r0 -->
<g id="edge28" class="edge">
<title>r4:s&#45;&gt;r0:n</title>
<path fill="none" stroke="#000000" d="M745,-787C745,-741.6441 745,-727.8469 745,-687.0522"/>
<polygon fill="#000000" stroke="#000000" points="748.5001,-687 745,-677 741.5001,-687 748.5001,-687"/>
<text text-anchor="middle" x="768" y="-680.8" font-family="Times,serif" font-size="14.00" fill="#000000">values</text>
<text text-anchor="middle" x="720.5" y="-775.8" font-family="Times,serif" font-size="14.00" fill="#000000">/chunk</text>
</g>
<!-- initializerr8_1 -->
<!-- initializerr8_1&#45;&gt;r8 -->
<g id="edge21" class="edge">
<title>initializerr8_1&#45;&gt;r8:n</title>
<path fill="none" stroke="#0000ff" stroke-dasharray="1,5" d="M1462.3039,-928.982C1390.2042,-903.3536 1248.8119,-851.853 1214.5904,-830.2603"/>
<polygon fill="#0000ff" stroke="#0000ff" points="1216.6458,-827.3829 1207,-823 1211.8072,-832.4415 1216.6458,-827.3829"/>
<text text-anchor="middle" x="1356.5" y="-877.8" font-family="Times,serif" font-size="14.00" fill="#000000">[]</text>
</g>
<!-- initializerr8_2 -->
<!-- initializerr8_2&#45;&gt;r8 -->
<g id="edge22" class="edge">
<title>initializerr8_2&#45;&gt;r8:n</title>
<path fill="none" stroke="#0000ff" d="M1261.5574,-926.3812C1241.431,-906.28 1212.2817,-871.2422 1207.6348,-833.248"/>
<polygon fill="#0000ff" stroke="#0000ff" points="1211.1117,-832.7644 1207,-823 1204.1251,-833.1973 1211.1117,-832.7644"/>
<text text-anchor="middle" x="1234" y="-877.8" font-family="Times,serif" font-size="14.00" fill="#000000">2</text>
</g>
<!-- r0&#45;&gt;r0 -->
<g id="edge31" class="edge">
<title>r0:e&#45;&gt;r0:ne</title>
<path fill="none" stroke="#000000" d="M872,-659C895.7388,-650 943.7388,-650 943.7388,-668 943.7388,-685.1211 840.1542,-685.9571 773.0302,-678.2529"/>
<polygon fill="#000000" stroke="#000000" points="773.3567,-674.7666 763,-677 772.489,-681.7126 773.3567,-674.7666"/>
<text text-anchor="middle" x="787" y="-680.8" font-family="Times,serif" font-size="14.00" fill="#000000">partial</text>
<text text-anchor="middle" x="898" y="-662.8" font-family="Times,serif" font-size="14.00" fill="#000000">/partial</text>
</g>
<!-- r18 -->
<g id="node28" class="node">
<title>r18</title>
<g id="a_node28"><a xlink:href="file:///home/travis/build/andrewdavidmackenzie/flow/flowstdlib/data/buffer/buffer.html" xlink:title="buffer_bounds (#18)">
<ellipse fill="#ff7f50" stroke="#000000" cx="1221" cy="-534" rx="106.6812" ry="18"/>
<text text-anchor="middle" x="1221" y="-530.3" font-family="Times,serif" font-size="14.00" fill="#000000">buffer_bounds (#18)</text>
</a>
</g>
</g>
<!-- r0&#45;&gt;r18 -->
<g id="edge32" class="edge">
<title>r0:s&#45;&gt;r18:n</title>
<path fill="none" stroke="#000000" d="M745,-641C745,-429.3513 1205.3265,-756.0382 1220.6108,-562.2639"/>
<polygon fill="#000000" stroke="#000000" points="1224.1185,-562.1255 1221,-552 1217.1235,-561.8602 1224.1185,-562.1255"/>
<text text-anchor="middle" x="720.5" y="-629.8" font-family="Times,serif" font-size="14.00" fill="#000000">/chunk</text>
</g>
<!-- initializerr4_1 -->
<!-- initializerr4_1&#45;&gt;r4 -->
<g id="edge25" class="edge">
<title>initializerr4_1&#45;&gt;r4:n</title>
<path fill="none" stroke="#0000ff" stroke-dasharray="1,5" d="M244.3996,-932.722C375.0109,-907.7423 680.0269,-848.3531 736.0694,-827.9865"/>
<polygon fill="#0000ff" stroke="#0000ff" points="737.9752,-830.9311 745,-823 734.5625,-824.8193 737.9752,-830.9311"/>
<text text-anchor="middle" x="543.5" y="-877.8" font-family="Times,serif" font-size="14.00" fill="#000000">[]</text>
</g>
<!-- initializerr4_2 -->
<!-- initializerr4_2&#45;&gt;r4 -->
<g id="edge26" class="edge">
<title>initializerr4_2&#45;&gt;r4:n</title>
<path fill="none" stroke="#0000ff" d="M745,-925.96C745,-904.5319 745,-867.4021 745,-833.4232"/>
<polygon fill="#0000ff" stroke="#0000ff" points="748.5001,-833 745,-823 741.5001,-833 748.5001,-833"/>
<text text-anchor="middle" x="750" y="-877.8" font-family="Times,serif" font-size="14.00" fill="#000000">2</text>
</g>
<!-- initializerr0_1 -->
<!-- initializerr0_1&#45;&gt;r0 -->
<g id="edge29" class="edge">
<title>initializerr0_1&#45;&gt;r0:n</title>
<path fill="none" stroke="#0000ff" stroke-dasharray="1,5" d="M490.3999,-789.6928C561.4095,-762.5312 704.2701,-706.655 737.8278,-684.2106"/>
<polygon fill="#0000ff" stroke="#0000ff" points="740.4293,-686.5582 745,-677 735.4663,-681.6217 740.4293,-686.5582"/>
<text text-anchor="middle" x="682.5" y="-728.3" font-family="Times,serif" font-size="14.00" fill="#000000">[]</text>
</g>
<!-- initializerr0_2 -->
<!-- initializerr0_2&#45;&gt;r0 -->
<g id="edge30" class="edge">
<title>initializerr0_2&#45;&gt;r0:n</title>
<path fill="none" stroke="#0000ff" d="M274.1793,-791.0285C339.5339,-772.3063 460.0658,-738.5898 564,-714 572.6223,-711.9601 701.2487,-693.5167 736.2588,-681.9086"/>
<polygon fill="#0000ff" stroke="#0000ff" points="737.9944,-684.9481 745,-677 734.567,-678.8446 737.9944,-684.9481"/>
<text text-anchor="middle" x="569" y="-728.3" font-family="Times,serif" font-size="14.00" fill="#000000">2</text>
</g>
<!-- r18&#45;&gt;r18 -->
<g id="edge48" class="edge">
<title>r18:e&#45;&gt;r18:n</title>
<path fill="none" stroke="#000000" d="M1328,-534C1351.5905,-525 1399.5905,-525 1399.5905,-543 1399.5905,-560.0156 1293.1963,-560.9462 1231.2716,-553.3943"/>
<polygon fill="#000000" stroke="#000000" points="1231.3799,-549.877 1221,-552 1230.4383,-556.8134 1231.3799,-549.877"/>
</g>
<!-- r18&#45;&gt;r20 -->
<g id="edge49" class="edge">
<title>r18:e&#45;&gt;r20:n</title>
<path fill="none" stroke="#000000" d="M1328,-534C1379.721,-534 1549,-512.721 1549,-461 1549,-461 1549,-461 1549,-386.5 1549,-23.6605 2347.5728,-611.9295 2362.78,-267.2019"/>
<polygon fill="#000000" stroke="#000000" points="2366.2835,-267.0732 2363,-257 2359.2851,-266.9222 2366.2835,-267.0732"/>
<text text-anchor="middle" x="2389" y="-260.8" font-family="Times,serif" font-size="14.00" fill="#000000">bounds</text>
</g>
<!-- initializerr16_1 -->
<!-- initializerr16_1&#45;&gt;r16 -->
<g id="edge33" class="edge">
<title>initializerr16_1&#45;&gt;r16:w</title>
<path fill="none" stroke="#0000ff" stroke-dasharray="1,5" d="M2374.9704,-998.9138C2361.8448,-979.8065 2339.663,-949.2796 2317,-926 2188.7947,-794.3066 2147.7011,-755.0638 1974,-695 1930.4938,-679.9561 1901.5875,-712.266 1872,-677 1869.9915,-674.606 1868.3314,-671.3357 1867.5309,-668.239"/>
<polygon fill="#0000ff" stroke="#0000ff" points="1870.7962,-669.5262 1872,-659 1864.4947,-666.478 1870.7962,-669.5262"/>
<text text-anchor="middle" x="2252" y="-844.8" font-family="Times,serif" font-size="14.00" fill="#000000">1</text>
</g>
<!-- r12&#45;&gt;r15 -->
<g id="edge36" class="edge">
<title>r12:e&#45;&gt;r15:ne</title>
<path fill="none" stroke="#000000" d="M2647,-732C2685.7278,-732 2764.4074,-720.6107 2540,-695 2503.983,-690.8895 2254.96,-702.6963 2199.7037,-681.9407"/>
<polygon fill="#000000" stroke="#000000" points="2201.4244,-678.8929 2191,-677 2197.9687,-684.9805 2201.4244,-678.8929"/>
<text text-anchor="middle" x="2217" y="-680.8" font-family="Times,serif" font-size="14.00" fill="#000000">control</text>
<text text-anchor="middle" x="2679" y="-735.8" font-family="Times,serif" font-size="14.00" fill="#000000">/right&#45;lte</text>
</g>
<!-- r12&#45;&gt;r12 -->
<g id="edge38" class="edge">
<title>r12:s&#45;&gt;r12:n</title>
<path fill="none" stroke="#000000" d="M2566,-714C2616.8643,-705 2718.5928,-705 2718.5928,-732 2718.5928,-757.3125 2629.183,-758.8945 2576.0959,-751.5776"/>
<polygon fill="#000000" stroke="#000000" points="2576.4205,-748.086 2566,-750 2575.3397,-755.002 2576.4205,-748.086"/>
<text text-anchor="middle" x="2578.5" y="-753.8" font-family="Times,serif" font-size="14.00" fill="#000000">left</text>
<text text-anchor="middle" x="2541.5" y="-702.8" font-family="Times,serif" font-size="14.00" fill="#000000">/left&#45;gt</text>
</g>
<!-- r12&#45;&gt;r13 -->
<g id="edge37" class="edge">
<title>r12:e&#45;&gt;r13:n</title>
<path fill="none" stroke="#000000" d="M2647,-732C2655,-732 2649.4591,-721.6127 2647,-714 2631.5871,-666.2856 2581,-672.642 2581,-622.5 2581,-622.5 2581,-622.5 2581,-534 2581,-513.375 2581,-505.8018 2581,-489.2554"/>
<polygon fill="#000000" stroke="#000000" points="2584.5001,-489 2581,-479 2577.5001,-489 2584.5001,-489"/>
<text text-anchor="middle" x="2600.5" y="-482.8" font-family="Times,serif" font-size="14.00" fill="#000000">value</text>
<text text-anchor="middle" x="2679" y="-720.8" font-family="Times,serif" font-size="14.00" fill="#000000">/right&#45;lte</text>
</g>
<!-- r11 -->
<g id="node33" class="node">
<title>r11</title>
<g id="a_node33"><a xlink:href="file:///home/travis/build/andrewdavidmackenzie/flow/flowstdlib/math/add/add.html" xlink:title="add (#11)">
<ellipse fill="#ff7f50" stroke="#000000" cx="2806" cy="-461" rx="57.3905" ry="18"/>
<text text-anchor="middle" x="2806" y="-457.3" font-family="Times,serif" font-size="14.00" fill="#000000">add (#11)</text>
</a>
</g>
</g>
<!-- r12&#45;&gt;r11 -->
<g id="edge39" class="edge">
<title>r12:e&#45;&gt;r11:n</title>
<path fill="none" stroke="#000000" d="M2647,-732C2679.6387,-732 2655,-691.6387 2655,-659 2655,-659 2655,-659 2655,-534 2655,-503.048 2685.2179,-508.3848 2714,-497 2730.0422,-490.6545 2782.6073,-496.7609 2800.2026,-487.2165"/>
<polygon fill="#000000" stroke="#000000" points="2803.0946,-489.1887 2806,-479 2797.375,-485.1531 2803.0946,-489.1887"/>
<text text-anchor="middle" x="2799" y="-482.8" font-family="Times,serif" font-size="14.00" fill="#000000">i1</text>
<text text-anchor="middle" x="2619.5" y="-735.8" font-family="Times,serif" font-size="14.00" fill="#000000">/right&#45;lt</text>
</g>
<!-- initializerr12_1 -->
<!-- initializerr12_1&#45;&gt;r12 -->
<g id="edge35" class="edge">
<title>initializerr12_1&#45;&gt;r12:ne</title>
<path fill="none" stroke="#0000ff" stroke-dasharray="1,5" d="M2615.2102,-999.0731C2609.5945,-984.5195 2603,-963.3168 2603,-944 2603,-944 2603,-944 2603,-805 2603,-788.4061 2604.4265,-783.2989 2598,-768 2595.7921,-762.744 2593.906,-759.9732 2591.4027,-757.2793"/>
<polygon fill="#0000ff" stroke="#0000ff" points="2593.5843,-754.5159 2584,-750 2588.6762,-759.507 2593.5843,-754.5159"/>
<text text-anchor="middle" x="2608" y="-877.8" font-family="Times,serif" font-size="14.00" fill="#000000">0</text>
</g>
<!-- r14 -->
<g id="node35" class="node">
<title>r14</title>
<g id="a_node35"><a xlink:href="file:///home/travis/build/andrewdavidmackenzie/flow/flowstdlib/data/enumerate/enumerate.html" xlink:title="enumerate (#14)">
<ellipse fill="#ff7f50" stroke="#000000" cx="2536" cy="-350" rx="90.1842" ry="18"/>
<text text-anchor="middle" x="2536" y="-346.3" font-family="Times,serif" font-size="14.00" fill="#000000">enumerate (#14)</text>
</a>
</g>
</g>
<!-- r13&#45;&gt;r14 -->
<g id="edge45" class="edge">
<title>r13:e&#45;&gt;r14:n</title>
<path fill="none" stroke="#000000" d="M2678,-461C2686,-461 2682.1298,-449.8516 2678,-443 2643.0986,-385.0957 2546.9007,-433.6385 2536.8518,-378.2526"/>
<polygon fill="#000000" stroke="#000000" points="2540.3161,-377.6758 2536,-368 2533.3401,-378.2555 2540.3161,-377.6758"/>
</g>
<!-- r11&#45;&gt;r12 -->
<g id="edge42" class="edge">
<title>r11:se&#45;&gt;r12:ne</title>
<path fill="none" stroke="#000000" d="M2823,-444C2823,-444 2863.1949,-479 2863.1949,-479 2832.9288,-546.2375 2785.5643,-531.8276 2739,-589 2686.8982,-652.9713 2717.9909,-708.6569 2646.5928,-750 2637.0008,-755.5543 2609.1946,-758.5021 2593.3172,-754.4935"/>
<polygon fill="#000000" stroke="#000000" points="2594.5276,-751.1915 2584,-750 2591.4868,-757.4966 2594.5276,-751.1915"/>
<text text-anchor="middle" x="2602" y="-753.8" font-family="Times,serif" font-size="14.00" fill="#000000">right</text>
<text text-anchor="middle" x="2805.5" y="-432.8" font-family="Times,serif" font-size="14.00" fill="#000000">/sum</text>
</g>
<!-- r11&#45;&gt;r11 -->
<g id="edge41" class="edge">
<title>r11:se&#45;&gt;r11:ne</title>
<path fill="none" stroke="#000000" d="M2823,-444C2866.065,-435 2935.1949,-435 2935.1949,-461 2935.1949,-485.0703 2875.9457,-486.8568 2832.9805,-479.8482"/>
<polygon fill="#000000" stroke="#000000" points="2833.4702,-476.3795 2823,-478 2832.1955,-483.2625 2833.4702,-476.3795"/>
<text text-anchor="middle" x="2816" y="-481.8" font-family="Times,serif" font-size="14.00" fill="#000000">i2</text>
<text text-anchor="middle" x="2832.5" y="-432.8" font-family="Times,serif" font-size="14.00" fill="#000000">/i2</text>
</g>
<!-- initializerr11_1 -->
<!-- initializerr11_1&#45;&gt;r11 -->
<g id="edge40" class="edge">
<title>initializerr11_1&#45;&gt;r11:w</title>
<path fill="none" stroke="#0000ff" stroke-dasharray="1,5" d="M2809.4377,-713.7981C2783.5379,-657.7836 2709.5699,-490.2045 2739.155,-464.3621"/>
<polygon fill="#0000ff" stroke="#0000ff" points="2740.6678,-467.544 2749,-461 2738.4055,-460.9197 2740.6678,-467.544"/>
<text text-anchor="middle" x="2767" y="-592.8" font-family="Times,serif" font-size="14.00" fill="#000000">1</text>
</g>
<!-- r14&#45;&gt;r20 -->
<g id="edge46" class="edge">
<title>r14:e&#45;&gt;r20:ne</title>
<path fill="none" stroke="#000000" d="M2627,-350C2635,-350 2631.7528,-338.4351 2627,-332 2560.8957,-242.4975 2467.2841,-331.3012 2387.6605,-263.1014"/>
<polygon fill="#000000" stroke="#000000" points="2389.7131,-260.2316 2380,-256 2384.9542,-265.3652 2389.7131,-260.2316"/>
<text text-anchor="middle" x="2362.5" y="-244.8" font-family="Times,serif" font-size="14.00" fill="#000000">pixel</text>
</g>
<!-- r21 -->
<g id="node37" class="node">
<title>r21</title>
<g id="a_node37"><a xlink:href="file:///home/travis/build/andrewdavidmackenzie/flow/samples/mandlebrot/render_pixel/render_pixel.html" xlink:title="p2v (#21)">
<ellipse fill="#ff7f50" stroke="#000000" cx="2421" cy="-145" rx="57.3905" ry="18"/>
<text text-anchor="middle" x="2421" y="-141.3" font-family="Times,serif" font-size="14.00" fill="#000000">p2v (#21)</text>
</a>
</g>
</g>
<!-- r20&#45;&gt;r21 -->
<g id="edge47" class="edge">
<title>r20:e&#45;&gt;r21:n</title>
<path fill="none" stroke="#000000" d="M2421,-239C2451.4792,-239 2426.953,-204.6216 2421.872,-173.0902"/>
<polygon fill="#000000" stroke="#000000" points="2425.3481,-172.6615 2421,-163 2418.3741,-173.2642 2425.3481,-172.6615"/>
<text text-anchor="middle" x="2381.5" y="-166.8" font-family="Times,serif" font-size="14.00" fill="#000000">pixel_point</text>
</g>
<!-- r21&#45;&gt;r23 -->
<g id="edge52" class="edge">
<title>r21:s&#45;&gt;r23:n</title>
<path fill="none" stroke="#000000" d="M2421,-127C2421,-97.1835 2426.5525,-87.542 2427.7671,-62.1388"/>
<polygon fill="#000000" stroke="#000000" points="2431.2693,-62.0778 2428,-52 2424.2712,-61.917 2431.2693,-62.0778"/>
<text text-anchor="middle" x="2445.5" y="-55.8" font-family="Times,serif" font-size="14.00" fill="#000000">pixel</text>
<text text-anchor="middle" x="2414" y="-115.8" font-family="Times,serif" font-size="14.00" fill="#000000">/0</text>
</g>
<!-- r21&#45;&gt;r23 -->
<g id="edge53" class="edge">
<title>r21:sw&#45;&gt;r23:ne</title>
<path fill="none" stroke="#000000" d="M2404,-128C2379.6957,-103.6957 2453.6444,-84.0453 2450.8329,-60.759"/>
<polygon fill="#000000" stroke="#000000" points="2453.8956,-59.0647 2446,-52 2447.7666,-62.4465 2453.8956,-59.0647"/>
<text text-anchor="middle" x="2465.5" y="-55.8" font-family="Times,serif" font-size="14.00" fill="#000000">value</text>
<text text-anchor="middle" x="2397" y="-116.8" font-family="Times,serif" font-size="14.00" fill="#000000">/1</text>
</g>
</g>
</svg>
