<?xml version="1.0" encoding="UTF-8" standalone="no"?>
<!DOCTYPE svg PUBLIC "-//W3C//DTD SVG 1.1//EN"
 "http://www.w3.org/Graphics/SVG/1.1/DTD/svg11.dtd">
<!-- Generated by graphviz version 2.40.1 (20161225.0304)
 -->
<!-- Title: mandlebrot Pages: 1 -->
<svg width="2998pt" height="1355pt"
 viewBox="0.00 0.00 2998.00 1355.00" xmlns="http://www.w3.org/2000/svg" xmlns:xlink="http://www.w3.org/1999/xlink">
<g id="graph0" class="graph" transform="scale(1 1) rotate(0) translate(4 1351)">
<title>mandlebrot</title>
<polygon fill="#ffffff" stroke="transparent" points="-4,4 -4,-1351 2994,-1351 2994,4 -4,4"/>
<text text-anchor="middle" x="1495" y="-1331.8" font-family="Times,serif" font-size="14.00" fill="#000000">/mandlebrot</text>
<g id="clust1" class="cluster">
<title>cluster_parse_args</title>
<polygon fill="none" stroke="#000000" points="101,-508 101,-1316 2289,-1316 2289,-508 101,-508"/>
<text text-anchor="middle" x="1195" y="-1300.8" font-family="Times,serif" font-size="14.00" fill="#000000">/mandlebrot/parse_args</text>
</g>
<g id="clust2" class="cluster">
<title>cluster_generate_pixels</title>
<polygon fill="none" stroke="#000000" points="2297,-213 2297,-1097 2916,-1097 2916,-213 2297,-213"/>
<text text-anchor="middle" x="2606.5" y="-1081.8" font-family="Times,serif" font-size="14.00" fill="#000000">/mandlebrot/generate_pixels</text>
</g>
<g id="clust3" class="cluster">
<title>cluster_y_sequence</title>
<polygon fill="none" stroke="#000000" points="2477,-435 2477,-1066 2908,-1066 2908,-435 2477,-435"/>
<text text-anchor="middle" x="2692.5" y="-1050.8" font-family="Times,serif" font-size="14.00" fill="#000000">/mandlebrot/generate_pixels/y&#45;sequence</text>
</g>
<g id="clust4" class="cluster">
<title>cluster_render</title>
<polygon fill="none" stroke="#000000" points="2319,-8 2319,-194 2537,-194 2537,-8 2319,-8"/>
<text text-anchor="middle" x="2428" y="-178.8" font-family="Times,serif" font-size="14.00" fill="#000000">/mandlebrot/render</text>
</g>
<!-- r1 -->
<g id="node1" class="node">
<title>r1</title>
<g id="a_node1"><a xlink:href="file:///home/travis/build/andrewdavidmackenzie/flow/flowr/src/lib/flowruntime/args/get.html" xlink:title="args (#1)">
<ellipse fill="#ff7f50" stroke="#000000" cx="603" cy="-1267" rx="54.6905" ry="18"/>
<text text-anchor="middle" x="603" y="-1263.3" font-family="Times,serif" font-size="14.00" fill="#000000">args (#1)</text>
</a>
</g>
</g>
<!-- r21 -->
<g id="node2" class="node">
<title>r21</title>
<g id="a_node2"><a xlink:href="file:///home/travis/build/andrewdavidmackenzie/flow/flowstdlib/data/buffer/buffer.html" xlink:title="filename_buffer (#21)">
<ellipse fill="#ff7f50" stroke="#000000" cx="222" cy="-1142" rx="113.18" ry="18"/>
<text text-anchor="middle" x="222" y="-1138.3" font-family="Times,serif" font-size="14.00" fill="#000000">filename_buffer (#21)</text>
</a>
</g>
</g>
<!-- r1&#45;&gt;r21 -->
<g id="edge1" class="edge">
<title>r1:s&#45;&gt;r21:n</title>
<path fill="none" stroke="#000000" d="M603,-1249C603,-1208.4306 467.4706,-1206.3782 428,-1197 386.2846,-1187.0884 246.4121,-1203.5337 224.8117,-1169.7248"/>
<polygon fill="#000000" stroke="#000000" points="228.1398,-1168.6344 222,-1160 221.4153,-1170.5787 228.1398,-1168.6344"/>
<text text-anchor="middle" x="572.5" y="-1237.8" font-family="Times,serif" font-size="14.00" fill="#000000">/string/1</text>
</g>
<!-- r2 -->
<g id="node3" class="node">
<title>r2</title>
<g id="a_node3"><a xlink:href="file:///home/travis/build/andrewdavidmackenzie/flow/flowstdlib/data/ordered_split/ordered_split.html" xlink:title="split_size (#2)">
<ellipse fill="#ff7f50" stroke="#000000" cx="1405" cy="-1142" rx="77.1866" ry="18"/>
<text text-anchor="middle" x="1405" y="-1138.3" font-family="Times,serif" font-size="14.00" fill="#000000">split_size (#2)</text>
</a>
</g>
</g>
<!-- r1&#45;&gt;r2 -->
<g id="edge2" class="edge">
<title>r1:se&#45;&gt;r2:n</title>
<path fill="none" stroke="#000000" d="M620,-1250C642.7894,-1227.2106 723.5162,-1203.8912 755,-1197 771.3899,-1193.4126 1316.818,-1180.2013 1395.5639,-1163.8701"/>
<polygon fill="#000000" stroke="#000000" points="1397.076,-1167.0329 1405,-1160 1394.4198,-1160.5564 1397.076,-1167.0329"/>
<text text-anchor="middle" x="1383.5" y="-1163.8" font-family="Times,serif" font-size="14.00" fill="#000000">string</text>
<text text-anchor="middle" x="650.5" y="-1238.8" font-family="Times,serif" font-size="14.00" fill="#000000">/string/2</text>
</g>
<!-- r9 -->
<g id="node4" class="node">
<title>r9</title>
<g id="a_node4"><a xlink:href="file:///home/travis/build/andrewdavidmackenzie/flow/flowstdlib/data/ordered_split/ordered_split.html" xlink:title="split_upper_left (#9)">
<ellipse fill="#ff7f50" stroke="#000000" cx="894" cy="-1142" rx="107.4815" ry="18"/>
<text text-anchor="middle" x="894" y="-1138.3" font-family="Times,serif" font-size="14.00" fill="#000000">split_upper_left (#9)</text>
</a>
</g>
</g>
<!-- r1&#45;&gt;r9 -->
<g id="edge3" class="edge">
<title>r1:e&#45;&gt;r9:n</title>
<path fill="none" stroke="#000000" d="M658,-1267C675.8885,-1267 677.3966,-1255.6579 694,-1249 745.8013,-1228.2278 763.4511,-1235.6574 814,-1212 848.9576,-1195.6395 886.5522,-1201.1132 893.0253,-1170.256"/>
<polygon fill="#000000" stroke="#000000" points="896.5381,-1170.2863 894,-1160 889.5695,-1169.624 896.5381,-1170.2863"/>
<text text-anchor="middle" x="872.5" y="-1163.8" font-family="Times,serif" font-size="14.00" fill="#000000">string</text>
<text text-anchor="middle" x="688.5" y="-1270.8" font-family="Times,serif" font-size="14.00" fill="#000000">/string/3</text>
</g>
<!-- r4 -->
<g id="node5" class="node">
<title>r4</title>
<g id="a_node5"><a xlink:href="file:///home/travis/build/andrewdavidmackenzie/flow/flowstdlib/data/ordered_split/ordered_split.html" xlink:title="split_lower_right (#4)">
<ellipse fill="#ff7f50" stroke="#000000" cx="538" cy="-1142" rx="113.18" ry="18"/>
<text text-anchor="middle" x="538" y="-1138.3" font-family="Times,serif" font-size="14.00" fill="#000000">split_lower_right (#4)</text>
</a>
</g>
</g>
<!-- r1&#45;&gt;r4 -->
<g id="edge4" class="edge">
<title>r1:se&#45;&gt;r4:n</title>
<path fill="none" stroke="#000000" d="M620,-1250C655.7226,-1214.2774 553.2734,-1213.9764 539.5094,-1170.0614"/>
<polygon fill="#000000" stroke="#000000" points="542.9449,-1169.3701 538,-1160 536.0224,-1170.4086 542.9449,-1169.3701"/>
<text text-anchor="middle" x="516.5" y="-1163.8" font-family="Times,serif" font-size="14.00" fill="#000000">string</text>
<text text-anchor="middle" x="650.5" y="-1253.8" font-family="Times,serif" font-size="14.00" fill="#000000">/string/4</text>
</g>
<!-- r21&#45;&gt;r21 -->
<g id="edge54" class="edge">
<title>r21:e&#45;&gt;r21:n</title>
<path fill="none" stroke="#000000" d="M335,-1142C359.09,-1133 407.09,-1133 407.09,-1151 407.09,-1168.0508 296.3676,-1168.9499 232.2482,-1161.3474"/>
<polygon fill="#000000" stroke="#000000" points="232.371,-1157.8335 222,-1160 231.4584,-1164.7738 232.371,-1157.8335"/>
</g>
<!-- r20 -->
<g id="node38" class="node">
<title>r20</title>
<g id="a_node38"><a xlink:href="file:///home/travis/build/andrewdavidmackenzie/flow/flowr/src/lib/flowruntime/image/image_buffer.html" xlink:title="image_buffer (#20)">
<ellipse fill="#ff7f50" stroke="#000000" cx="2428" cy="-34" rx="101.2821" ry="18"/>
<text text-anchor="middle" x="2428" y="-30.3" font-family="Times,serif" font-size="14.00" fill="#000000">image_buffer (#20)</text>
</a>
</g>
</g>
<!-- r21&#45;&gt;r20 -->
<g id="edge55" class="edge">
<title>r21:e&#45;&gt;r20:w</title>
<path fill="none" stroke="#000000" d="M335,-1142C343,-1142 339.7184,-1130.4604 335,-1124 242.8139,-997.7813 0,-1173.2992 0,-1017 0,-1017 0,-1017 0,-89.5 0,-58.2266 2148.2322,-35.5038 2315.9826,-34.0718"/>
<polygon fill="#000000" stroke="#000000" points="2316.0254,-37.5716 2326,-34 2315.9751,-30.5718 2316.0254,-37.5716"/>
<text text-anchor="middle" x="2295" y="-37.8" font-family="Times,serif" font-size="14.00" fill="#000000">filename</text>
</g>
<!-- r10 -->
<g id="node7" class="node">
<title>r10</title>
<g id="a_node7"><a xlink:href="file:///home/travis/build/andrewdavidmackenzie/flow/flowstdlib/fmt/to_json/to_json.html" xlink:title="size_to_json (#10)">
<ellipse fill="#ff7f50" stroke="#000000" cx="1737" cy="-944" rx="96.3833" ry="18"/>
<text text-anchor="middle" x="1737" y="-940.3" font-family="Times,serif" font-size="14.00" fill="#000000">size_to_json (#10)</text>
</a>
</g>
</g>
<!-- r2&#45;&gt;r10 -->
<g id="edge6" class="edge">
<title>r2:e&#45;&gt;r10:n</title>
<path fill="none" stroke="#000000" d="M1483,-1142C1617.8484,-1142 1731.1131,-1102.4491 1736.7779,-972.3531"/>
<polygon fill="#000000" stroke="#000000" points="1740.2846,-972.0728 1737,-962 1733.2862,-971.9226 1740.2846,-972.0728"/>
</g>
<!-- r6 -->
<g id="node16" class="node">
<title>r6</title>
<g id="a_node16"><a xlink:href="file:///home/travis/build/andrewdavidmackenzie/flow/flowstdlib/fmt/to_json/to_json.html" xlink:title="upper_left_to_json (#6)">
<ellipse fill="#ff7f50" stroke="#000000" cx="1001" cy="-944" rx="120.4791" ry="18"/>
<text text-anchor="middle" x="1001" y="-940.3" font-family="Times,serif" font-size="14.00" fill="#000000">upper_left_to_json (#6)</text>
</a>
</g>
</g>
<!-- r9&#45;&gt;r6 -->
<g id="edge16" class="edge">
<title>r9:e&#45;&gt;r6:n</title>
<path fill="none" stroke="#000000" d="M1001,-1142C1077.5625,-1142 1007.5796,-1050.4091 1001.4241,-972.4138"/>
<polygon fill="#000000" stroke="#000000" points="1004.9041,-971.8493 1001,-962 997.9099,-972.1342 1004.9041,-971.8493"/>
</g>
<!-- r7 -->
<g id="node19" class="node">
<title>r7</title>
<g id="a_node19"><a xlink:href="file:///home/travis/build/andrewdavidmackenzie/flow/flowstdlib/fmt/to_json/to_json.html" xlink:title="lower_right_to_json (#7)">
<ellipse fill="#ff7f50" stroke="#000000" cx="459" cy="-944" rx="126.1777" ry="18"/>
<text text-anchor="middle" x="459" y="-940.3" font-family="Times,serif" font-size="14.00" fill="#000000">lower_right_to_json (#7)</text>
</a>
</g>
</g>
<!-- r4&#45;&gt;r7 -->
<g id="edge19" class="edge">
<title>r4:e&#45;&gt;r7:n</title>
<path fill="none" stroke="#000000" d="M651,-1142C659,-1142 654.3711,-1131.2551 651,-1124 605.4226,-1025.9105 467.9639,-1070.6173 459.4173,-972.0006"/>
<polygon fill="#000000" stroke="#000000" points="462.9139,-971.8454 459,-962 455.92,-972.1372 462.9139,-971.8454"/>
</g>
<!-- initializerr2_1 -->
<!-- initializerr2_1&#45;&gt;r2 -->
<g id="edge5" class="edge">
<title>initializerr2_1&#45;&gt;r2:w</title>
<path fill="none" stroke="#0000ff" d="M1319.692,-1248.8239C1307.8853,-1217.2702 1288.6589,-1154.6628 1317.1234,-1143.6678"/>
<polygon fill="#0000ff" stroke="#0000ff" points="1317.7224,-1147.1163 1327,-1142 1316.5568,-1140.214 1317.7224,-1147.1163"/>
<text text-anchor="middle" x="1318" y="-1200.8" font-family="Times,serif" font-size="14.00" fill="#000000">&quot;x&quot;</text>
</g>
<!-- r5 -->
<g id="node8" class="node">
<title>r5</title>
<g id="a_node8"><a xlink:href="file:///home/travis/build/andrewdavidmackenzie/flow/flowstdlib/data/accumulate/accumulate.html" xlink:title="accumulate_size (#5)">
<ellipse fill="#ff7f50" stroke="#000000" cx="1981" cy="-805" rx="111.2805" ry="18"/>
<text text-anchor="middle" x="1981" y="-801.3" font-family="Times,serif" font-size="14.00" fill="#000000">accumulate_size (#5)</text>
</a>
</g>
</g>
<!-- r10&#45;&gt;r5 -->
<g id="edge7" class="edge">
<title>r10:e&#45;&gt;r5:n</title>
<path fill="none" stroke="#000000" d="M1834,-944C1838.5863,-944 1945.7643,-856.9835 1974.1526,-830.4207"/>
<polygon fill="#000000" stroke="#000000" points="1976.7908,-832.7228 1981,-823 1971.6463,-827.9758 1976.7908,-832.7228"/>
<text text-anchor="middle" x="1958" y="-826.8" font-family="Times,serif" font-size="14.00" fill="#000000">values</text>
</g>
<!-- r5&#45;&gt;r5 -->
<g id="edge10" class="edge">
<title>r5:e&#45;&gt;r5:ne</title>
<path fill="none" stroke="#000000" d="M2092,-805C2116.1401,-796 2164.1401,-796 2164.1401,-814 2164.1401,-831.0508 2070.7358,-831.9499 2008.9953,-824.3474"/>
<polygon fill="#000000" stroke="#000000" points="2009.378,-820.8674 1999,-823 2008.4427,-827.8047 2009.378,-820.8674"/>
<text text-anchor="middle" x="2023" y="-826.8" font-family="Times,serif" font-size="14.00" fill="#000000">partial</text>
<text text-anchor="middle" x="2118" y="-808.8" font-family="Times,serif" font-size="14.00" fill="#000000">/partial</text>
</g>
<!-- r13 -->
<g id="node11" class="node">
<title>r13</title>
<g id="a_node11"><a xlink:href="file:///home/travis/build/andrewdavidmackenzie/flow/flowstdlib/math/subtract/subtract.html" xlink:title="height (#13)">
<ellipse fill="#ff7f50" stroke="#000000" cx="1942" cy="-659" rx="69.5877" ry="18"/>
<text text-anchor="middle" x="1942" y="-655.3" font-family="Times,serif" font-size="14.00" fill="#000000">height (#13)</text>
</a>
</g>
</g>
<!-- r5&#45;&gt;r13 -->
<g id="edge11" class="edge">
<title>r5:sw&#45;&gt;r13:n</title>
<path fill="none" stroke="#000000" d="M1963,-787C1947.4762,-771.4762 1929.3763,-787.1329 1917,-769 1895.1662,-737.0105 1934.1351,-722.0368 1940.9941,-687.3399"/>
<polygon fill="#000000" stroke="#000000" points="1944.5152,-687.2919 1942,-677 1937.5481,-686.6141 1944.5152,-687.2919"/>
<text text-anchor="middle" x="1935" y="-680.8" font-family="Times,serif" font-size="14.00" fill="#000000">i1</text>
<text text-anchor="middle" x="1931.5" y="-775.8" font-family="Times,serif" font-size="14.00" fill="#000000">/chunk/1</text>
</g>
<!-- r16 -->
<g id="node12" class="node">
<title>r16</title>
<g id="a_node12"><a xlink:href="file:///home/travis/build/andrewdavidmackenzie/flow/flowstdlib/control/join/join.html" xlink:title="width&#45;gate (#16)">
<ellipse fill="#ff7f50" stroke="#000000" cx="2173" cy="-659" rx="89.8845" ry="18"/>
<text text-anchor="middle" x="2173" y="-655.3" font-family="Times,serif" font-size="14.00" fill="#000000">width&#45;gate (#16)</text>
</a>
</g>
</g>
<!-- r5&#45;&gt;r16 -->
<g id="edge12" class="edge">
<title>r5:s&#45;&gt;r16:n</title>
<path fill="none" stroke="#000000" d="M1981,-787C1981,-764.216 2008.6214,-779.1893 2029,-769 2093.7446,-736.6277 2165.8862,-751.3815 2172.5072,-687.0763"/>
<polygon fill="#000000" stroke="#000000" points="2176.0073,-687.1591 2173,-677 2169.0156,-686.8171 2176.0073,-687.1591"/>
<text text-anchor="middle" x="2157" y="-680.8" font-family="Times,serif" font-size="14.00" fill="#000000">data</text>
<text text-anchor="middle" x="2012.5" y="-775.8" font-family="Times,serif" font-size="14.00" fill="#000000">/chunk/0</text>
</g>
<!-- r22 -->
<g id="node13" class="node">
<title>r22</title>
<g id="a_node13"><a xlink:href="file:///home/travis/build/andrewdavidmackenzie/flow/flowstdlib/data/buffer/buffer.html" xlink:title="buffer_size (#22)">
<ellipse fill="#ff7f50" stroke="#000000" cx="1419" cy="-659" rx="90.9839" ry="18"/>
<text text-anchor="middle" x="1419" y="-655.3" font-family="Times,serif" font-size="14.00" fill="#000000">buffer_size (#22)</text>
</a>
</g>
</g>
<!-- r5&#45;&gt;r22 -->
<g id="edge13" class="edge">
<title>r5:s&#45;&gt;r22:n</title>
<path fill="none" stroke="#000000" d="M1981,-787C1981,-726.6018 1474.6289,-739.0851 1423.2006,-686.0889"/>
<polygon fill="#000000" stroke="#000000" points="1426.3724,-684.6091 1419,-677 1420.0182,-687.5458 1426.3724,-684.6091"/>
<text text-anchor="middle" x="1956.5" y="-775.8" font-family="Times,serif" font-size="14.00" fill="#000000">/chunk</text>
</g>
<!-- r23 -->
<g id="node14" class="node">
<title>r23</title>
<g id="a_node14"><a xlink:href="file:///home/travis/build/andrewdavidmackenzie/flow/flowstdlib/data/buffer/buffer.html" xlink:title="size_buffer (#23)">
<ellipse fill="#ff7f50" stroke="#000000" cx="1691" cy="-659" rx="90.9839" ry="18"/>
<text text-anchor="middle" x="1691" y="-655.3" font-family="Times,serif" font-size="14.00" fill="#000000">size_buffer (#23)</text>
</a>
</g>
</g>
<!-- r5&#45;&gt;r23 -->
<g id="edge14" class="edge">
<title>r5:s&#45;&gt;r23:n</title>
<path fill="none" stroke="#000000" d="M1981,-787C1981,-744.5096 1987.9933,-721.7746 1955,-695 1934.4888,-678.3548 1737.7355,-700.8221 1697.9816,-684.2352"/>
<polygon fill="#000000" stroke="#000000" points="1700.4625,-681.7658 1691,-677 1695.4252,-686.6264 1700.4625,-681.7658"/>
<text text-anchor="middle" x="1956.5" y="-790.8" font-family="Times,serif" font-size="14.00" fill="#000000">/chunk</text>
</g>
<!-- initializerr5_1 -->
<!-- initializerr5_1&#45;&gt;r5 -->
<g id="edge8" class="edge">
<title>initializerr5_1&#45;&gt;r5:n</title>
<path fill="none" stroke="#0000ff" stroke-dasharray="1,5" d="M2171.4649,-927.7968C2117.7639,-901.6318 2015.6983,-850.9383 1988.0543,-830.413"/>
<polygon fill="#0000ff" stroke="#0000ff" points="1990.4292,-827.8314 1981,-823 1985.3582,-832.6569 1990.4292,-827.8314"/>
<text text-anchor="middle" x="2098.5" y="-877.8" font-family="Times,serif" font-size="14.00" fill="#000000">[]</text>
</g>
<!-- initializerr5_2 -->
<!-- initializerr5_2&#45;&gt;r5 -->
<g id="edge9" class="edge">
<title>initializerr5_2&#45;&gt;r5:n</title>
<path fill="none" stroke="#0000ff" d="M1981,-925.96C1981,-904.5319 1981,-867.4021 1981,-833.4232"/>
<polygon fill="#0000ff" stroke="#0000ff" points="1984.5001,-833 1981,-823 1977.5001,-833 1984.5001,-833"/>
<text text-anchor="middle" x="1986" y="-877.8" font-family="Times,serif" font-size="14.00" fill="#000000">2</text>
</g>
<!-- r14 -->
<g id="node30" class="node">
<title>r14</title>
<g id="a_node30"><a xlink:href="file:///home/travis/build/andrewdavidmackenzie/flow/flowstdlib/control/compare_switch/compare_switch.html" xlink:title="compare (#14)">
<ellipse fill="#ff7f50" stroke="#000000" cx="2566" cy="-732" rx="80.6858" ry="18"/>
<text text-anchor="middle" x="2566" y="-728.3" font-family="Times,serif" font-size="14.00" fill="#000000">compare (#14)</text>
</a>
</g>
</g>
<!-- r13&#45;&gt;r14 -->
<g id="edge34" class="edge">
<title>r13:se&#45;&gt;r14:n</title>
<path fill="none" stroke="#000000" d="M1960,-641C1968.0993,-632.9007 2000.9478,-636.65 2011.5438,-641 2032.609,-649.6479 2027.1361,-667.8771 2048,-677 2078.5278,-690.3485 2624.1656,-689.3596 2646.5928,-714 2646.5928,-714 2596.4142,-736.4143 2575.245,-745.8703"/>
<polygon fill="#000000" stroke="#000000" points="2573.703,-742.7258 2566,-750 2576.558,-749.1171 2573.703,-742.7258"/>
<text text-anchor="middle" x="2553.5" y="-753.8" font-family="Times,serif" font-size="14.00" fill="#000000">left</text>
<text text-anchor="middle" x="1945.5" y="-629.8" font-family="Times,serif" font-size="14.00" fill="#000000">/diff</text>
</g>
<!-- r16&#45;&gt;r16 -->
<g id="edge43" class="edge">
<title>r16:e&#45;&gt;r16:n</title>
<path fill="none" stroke="#000000" d="M2263,-659C2286.692,-650 2334.692,-650 2334.692,-668 2334.692,-684.9453 2239.1595,-685.9382 2182.9967,-678.4875"/>
<polygon fill="#000000" stroke="#000000" points="2183.4063,-675.01 2173,-677 2182.3759,-681.9338 2183.4063,-675.01"/>
<text text-anchor="middle" x="2189" y="-680.8" font-family="Times,serif" font-size="14.00" fill="#000000">data</text>
</g>
<!-- r11 -->
<g id="node32" class="node">
<title>r11</title>
<g id="a_node32"><a xlink:href="file:///home/travis/build/andrewdavidmackenzie/flow/flowstdlib/data/duplicate/duplicate.html" xlink:title="y&#45;duplicator (#11)">
<ellipse fill="#ff7f50" stroke="#000000" cx="2581" cy="-461" rx="96.3833" ry="18"/>
<text text-anchor="middle" x="2581" y="-457.3" font-family="Times,serif" font-size="14.00" fill="#000000">y&#45;duplicator (#11)</text>
</a>
</g>
</g>
<!-- r16&#45;&gt;r11 -->
<g id="edge44" class="edge">
<title>r16:e&#45;&gt;r11:ne</title>
<path fill="none" stroke="#000000" d="M2263,-659C2414.1405,-659 2427.568,-566.0759 2562,-497 2571.6576,-492.0376 2587.4495,-491.181 2595.9797,-488.5973"/>
<polygon fill="#000000" stroke="#000000" points="2599.3366,-489.5895 2599,-479 2592.6595,-487.4881 2599.3366,-489.5895"/>
<text text-anchor="middle" x="2577.5" y="-482.8" font-family="Times,serif" font-size="14.00" fill="#000000">factor</text>
</g>
<!-- r22&#45;&gt;r22 -->
<g id="edge50" class="edge">
<title>r22:e&#45;&gt;r22:n</title>
<path fill="none" stroke="#000000" d="M1510,-659C1533.9919,-650 1581.9919,-650 1581.9919,-668 1581.9919,-684.9453 1485.6913,-685.9382 1429.0771,-678.4875"/>
<polygon fill="#000000" stroke="#000000" points="1429.4039,-674.9979 1419,-677 1428.3817,-681.9229 1429.4039,-674.9979"/>
</g>
<!-- r17 -->
<g id="node36" class="node">
<title>r17</title>
<g id="a_node36"><a xlink:href="file:///home/travis/build/andrewdavidmackenzie/flow/samples/mandlebrot/pixel_to_point/pixel_to_point.html" xlink:title="p2p (#17)">
<ellipse fill="#ff7f50" stroke="#000000" cx="2363" cy="-239" rx="57.6901" ry="18"/>
<text text-anchor="middle" x="2363" y="-235.3" font-family="Times,serif" font-size="14.00" fill="#000000">p2p (#17)</text>
</a>
</g>
</g>
<!-- r22&#45;&gt;r17 -->
<g id="edge51" class="edge">
<title>r22:e&#45;&gt;r17:nw</title>
<path fill="none" stroke="#000000" d="M1510,-659C1510.339,-659 1695,-596.839 1695,-596.5 1695,-596.5 1695,-596.5 1695,-294.5 1695,-152.9771 2218.1156,-348.876 2338.0726,-262.7006"/>
<polygon fill="#000000" stroke="#000000" points="2340.6221,-265.1285 2346,-256 2336.1033,-259.7823 2340.6221,-265.1285"/>
<text text-anchor="middle" x="2332" y="-259.8" font-family="Times,serif" font-size="14.00" fill="#000000">size</text>
</g>
<!-- r23&#45;&gt;r23 -->
<g id="edge56" class="edge">
<title>r23:e&#45;&gt;r23:n</title>
<path fill="none" stroke="#000000" d="M1782,-659C1805.9919,-650 1853.9919,-650 1853.9919,-668 1853.9919,-684.9453 1757.6913,-685.9382 1701.0771,-678.4875"/>
<polygon fill="#000000" stroke="#000000" points="1701.4039,-674.9979 1691,-677 1700.3817,-681.9229 1701.4039,-674.9979"/>
</g>
<!-- r23&#45;&gt;r20 -->
<g id="edge57" class="edge">
<title>r23:e&#45;&gt;r20:nw</title>
<path fill="none" stroke="#000000" d="M1782,-659C1807.2982,-659 1811.395,-646.8818 1836,-641 2074.1722,-584.0648 2703.0511,-580.2986 2926,-479 2960.0141,-463.5454 2990,-461.8604 2990,-424.5 2990,-424.5 2990,-424.5 2990,-89.5 2990,-30.723 2471.7095,-85.7016 2413.0082,-61.6261"/>
<polygon fill="#000000" stroke="#000000" points="2416.3235,-60.5008 2410,-52 2409.6421,-62.5888 2416.3235,-60.5008"/>
<text text-anchor="middle" x="2396" y="-55.8" font-family="Times,serif" font-size="14.00" fill="#000000">size</text>
</g>
<!-- initializerr9_1 -->
<!-- initializerr9_1&#45;&gt;r9 -->
<g id="edge15" class="edge">
<title>initializerr9_1&#45;&gt;r9:w</title>
<path fill="none" stroke="#0000ff" d="M795.9868,-1249.0905C779.3468,-1217.7673 750.3318,-1155.2651 776.8963,-1143.8213"/>
<polygon fill="#0000ff" stroke="#0000ff" points="777.7795,-1147.2186 787,-1142 776.5377,-1140.3296 777.7795,-1147.2186"/>
<text text-anchor="middle" x="786.5" y="-1200.8" font-family="Times,serif" font-size="14.00" fill="#000000">&quot;,&quot;</text>
</g>
<!-- r0 -->
<g id="node17" class="node">
<title>r0</title>
<g id="a_node17"><a xlink:href="file:///home/travis/build/andrewdavidmackenzie/flow/flowstdlib/data/accumulate/accumulate.html" xlink:title="accumulate_upper_left (#0)">
<ellipse fill="#ff7f50" stroke="#000000" cx="1195" cy="-805" rx="141.075" ry="18"/>
<text text-anchor="middle" x="1195" y="-801.3" font-family="Times,serif" font-size="14.00" fill="#000000">accumulate_upper_left (#0)</text>
</a>
</g>
</g>
<!-- r6&#45;&gt;r0 -->
<g id="edge17" class="edge">
<title>r6:e&#45;&gt;r0:n</title>
<path fill="none" stroke="#000000" d="M1121,-944C1173.5366,-944 1148.4852,-883.7662 1179,-841 1182.4971,-836.0989 1187.1224,-834.4029 1190.5003,-831.952"/>
<polygon fill="#000000" stroke="#000000" points="1193.6361,-833.5067 1195,-823 1187.3817,-830.3629 1193.6361,-833.5067"/>
<text text-anchor="middle" x="1172" y="-826.8" font-family="Times,serif" font-size="14.00" fill="#000000">values</text>
</g>
<!-- r0&#45;&gt;r0 -->
<g id="edge23" class="edge">
<title>r0:e&#45;&gt;r0:ne</title>
<path fill="none" stroke="#000000" d="M1336,-805C1360.0375,-796 1408.0375,-796 1408.0375,-814 1408.0375,-831.1563 1295.3673,-831.9604 1223.3173,-824.2054"/>
<polygon fill="#000000" stroke="#000000" points="1223.3386,-820.6841 1213,-823 1222.5263,-827.6368 1223.3386,-820.6841"/>
<text text-anchor="middle" x="1237" y="-826.8" font-family="Times,serif" font-size="14.00" fill="#000000">partial</text>
<text text-anchor="middle" x="1362" y="-808.8" font-family="Times,serif" font-size="14.00" fill="#000000">/partial</text>
</g>
<!-- r8 -->
<g id="node23" class="node">
<title>r8</title>
<g id="a_node23"><a xlink:href="file:///home/travis/build/andrewdavidmackenzie/flow/flowstdlib/data/accumulate/accumulate.html" xlink:title="accumulate_bounds (#8)">
<ellipse fill="#ff7f50" stroke="#000000" cx="733" cy="-659" rx="126.978" ry="18"/>
<text text-anchor="middle" x="733" y="-655.3" font-family="Times,serif" font-size="14.00" fill="#000000">accumulate_bounds (#8)</text>
</a>
</g>
</g>
<!-- r0&#45;&gt;r8 -->
<g id="edge24" class="edge">
<title>r0:s&#45;&gt;r8:n</title>
<path fill="none" stroke="#000000" d="M1195,-787C1195,-737.4267 787.2517,-730.4859 737.8759,-686.0751"/>
<polygon fill="#000000" stroke="#000000" points="740.8162,-684.1525 733,-677 734.6498,-687.4656 740.8162,-684.1525"/>
<text text-anchor="middle" x="710" y="-680.8" font-family="Times,serif" font-size="14.00" fill="#000000">values</text>
<text text-anchor="middle" x="1170.5" y="-775.8" font-family="Times,serif" font-size="14.00" fill="#000000">/chunk</text>
</g>
<!-- initializerr4_1 -->
<!-- initializerr4_1&#45;&gt;r4 -->
<g id="edge18" class="edge">
<title>initializerr4_1&#45;&gt;r4:w</title>
<path fill="none" stroke="#0000ff" d="M396.1825,-1248.8239C390.4281,-1217.1348 383.3061,-1154.1249 414.9985,-1143.5291"/>
<polygon fill="#0000ff" stroke="#0000ff" points="415.6438,-1146.9712 425,-1142 414.5859,-1140.0516 415.6438,-1146.9712"/>
<text text-anchor="middle" x="400.5" y="-1200.8" font-family="Times,serif" font-size="14.00" fill="#000000">&quot;,&quot;</text>
</g>
<!-- r3 -->
<g id="node20" class="node">
<title>r3</title>
<g id="a_node20"><a xlink:href="file:///home/travis/build/andrewdavidmackenzie/flow/flowstdlib/data/accumulate/accumulate.html" xlink:title="accumulate_lower_right (#3)">
<ellipse fill="#ff7f50" stroke="#000000" cx="733" cy="-805" rx="146.774" ry="18"/>
<text text-anchor="middle" x="733" y="-801.3" font-family="Times,serif" font-size="14.00" fill="#000000">accumulate_lower_right (#3)</text>
</a>
</g>
</g>
<!-- r7&#45;&gt;r3 -->
<g id="edge20" class="edge">
<title>r7:e&#45;&gt;r3:n</title>
<path fill="none" stroke="#000000" d="M585,-944C589.6049,-944 697.5213,-856.9996 726.1053,-830.4272"/>
<polygon fill="#000000" stroke="#000000" points="728.7617,-832.7102 733,-823 723.6314,-827.9477 728.7617,-832.7102"/>
<text text-anchor="middle" x="710" y="-826.8" font-family="Times,serif" font-size="14.00" fill="#000000">values</text>
</g>
<!-- r3&#45;&gt;r3 -->
<g id="edge27" class="edge">
<title>r3:e&#45;&gt;r3:ne</title>
<path fill="none" stroke="#000000" d="M880,-805C903.887,-796 951.887,-796 951.887,-814 951.887,-831.1914 835.1974,-831.9637 761.149,-824.1576"/>
<polygon fill="#000000" stroke="#000000" points="761.3322,-820.6559 751,-823 760.5389,-827.6108 761.3322,-820.6559"/>
<text text-anchor="middle" x="775" y="-826.8" font-family="Times,serif" font-size="14.00" fill="#000000">partial</text>
<text text-anchor="middle" x="906" y="-808.8" font-family="Times,serif" font-size="14.00" fill="#000000">/partial</text>
</g>
<!-- r3&#45;&gt;r8 -->
<g id="edge28" class="edge">
<title>r3:s&#45;&gt;r8:n</title>
<path fill="none" stroke="#000000" d="M733,-787C733,-741.6441 733,-727.8469 733,-687.0522"/>
<polygon fill="#000000" stroke="#000000" points="736.5001,-687 733,-677 729.5001,-687 736.5001,-687"/>
<text text-anchor="middle" x="756" y="-680.8" font-family="Times,serif" font-size="14.00" fill="#000000">values</text>
<text text-anchor="middle" x="708.5" y="-775.8" font-family="Times,serif" font-size="14.00" fill="#000000">/chunk</text>
</g>
<!-- initializerr0_1 -->
<!-- initializerr0_1&#45;&gt;r0 -->
<g id="edge21" class="edge">
<title>initializerr0_1&#45;&gt;r0:n</title>
<path fill="none" stroke="#0000ff" stroke-dasharray="1,5" d="M1450.3039,-928.982C1378.2042,-903.3536 1236.8119,-851.853 1202.5904,-830.2603"/>
<polygon fill="#0000ff" stroke="#0000ff" points="1204.6458,-827.3829 1195,-823 1199.8072,-832.4415 1204.6458,-827.3829"/>
<text text-anchor="middle" x="1344.5" y="-877.8" font-family="Times,serif" font-size="14.00" fill="#000000">[]</text>
</g>
<!-- initializerr0_2 -->
<!-- initializerr0_2&#45;&gt;r0 -->
<g id="edge22" class="edge">
<title>initializerr0_2&#45;&gt;r0:n</title>
<path fill="none" stroke="#0000ff" d="M1249.5574,-926.3812C1229.431,-906.28 1200.2817,-871.2422 1195.6348,-833.248"/>
<polygon fill="#0000ff" stroke="#0000ff" points="1199.1117,-832.7644 1195,-823 1192.1251,-833.1973 1199.1117,-832.7644"/>
<text text-anchor="middle" x="1222" y="-877.8" font-family="Times,serif" font-size="14.00" fill="#000000">2</text>
</g>
<!-- r8&#45;&gt;r8 -->
<g id="edge31" class="edge">
<title>r8:e&#45;&gt;r8:ne</title>
<path fill="none" stroke="#000000" d="M860,-659C883.7388,-650 931.7388,-650 931.7388,-668 931.7388,-685.1211 828.1542,-685.9571 761.0302,-678.2529"/>
<polygon fill="#000000" stroke="#000000" points="761.3567,-674.7666 751,-677 760.489,-681.7126 761.3567,-674.7666"/>
<text text-anchor="middle" x="775" y="-680.8" font-family="Times,serif" font-size="14.00" fill="#000000">partial</text>
<text text-anchor="middle" x="886" y="-662.8" font-family="Times,serif" font-size="14.00" fill="#000000">/partial</text>
</g>
<!-- r19 -->
<g id="node28" class="node">
<title>r19</title>
<g id="a_node28"><a xlink:href="file:///home/travis/build/andrewdavidmackenzie/flow/flowstdlib/data/buffer/buffer.html" xlink:title="buffer_bounds (#19)">
<ellipse fill="#ff7f50" stroke="#000000" cx="1218" cy="-534" rx="106.6812" ry="18"/>
<text text-anchor="middle" x="1218" y="-530.3" font-family="Times,serif" font-size="14.00" fill="#000000">buffer_bounds (#19)</text>
</a>
</g>
</g>
<!-- r8&#45;&gt;r19 -->
<g id="edge32" class="edge">
<title>r8:s&#45;&gt;r19:n</title>
<path fill="none" stroke="#000000" d="M733,-641C733,-425.3765 1202.496,-760.0454 1217.6263,-562.1559"/>
<polygon fill="#000000" stroke="#000000" points="1221.1298,-562.122 1218,-552 1214.1345,-561.8645 1221.1298,-562.122"/>
<text text-anchor="middle" x="708.5" y="-629.8" font-family="Times,serif" font-size="14.00" fill="#000000">/chunk</text>
</g>
<!-- initializerr3_1 -->
<!-- initializerr3_1&#45;&gt;r3 -->
<g id="edge25" class="edge">
<title>initializerr3_1&#45;&gt;r3:n</title>
<path fill="none" stroke="#0000ff" stroke-dasharray="1,5" d="M242.3521,-932.0892C369.1558,-905.6678 666.6159,-843.1785 723.5042,-826.6481"/>
<polygon fill="#0000ff" stroke="#0000ff" points="724.9204,-829.8535 733,-823 722.41,-823.3192 724.9204,-829.8535"/>
<text text-anchor="middle" x="518.5" y="-877.8" font-family="Times,serif" font-size="14.00" fill="#000000">[]</text>
</g>
<!-- initializerr3_2 -->
<!-- initializerr3_2&#45;&gt;r3 -->
<g id="edge26" class="edge">
<title>initializerr3_2&#45;&gt;r3:n</title>
<path fill="none" stroke="#0000ff" d="M733,-925.96C733,-904.5319 733,-867.4021 733,-833.4232"/>
<polygon fill="#0000ff" stroke="#0000ff" points="736.5001,-833 733,-823 729.5001,-833 736.5001,-833"/>
<text text-anchor="middle" x="738" y="-877.8" font-family="Times,serif" font-size="14.00" fill="#000000">2</text>
</g>
<!-- initializerr8_1 -->
<!-- initializerr8_1&#45;&gt;r8 -->
<g id="edge29" class="edge">
<title>initializerr8_1&#45;&gt;r8:n</title>
<path fill="none" stroke="#0000ff" stroke-dasharray="1,5" d="M478.3999,-789.6928C549.4095,-762.5312 692.2701,-706.655 725.8278,-684.2106"/>
<polygon fill="#0000ff" stroke="#0000ff" points="728.4293,-686.5582 733,-677 723.4663,-681.6217 728.4293,-686.5582"/>
<text text-anchor="middle" x="670.5" y="-728.3" font-family="Times,serif" font-size="14.00" fill="#000000">[]</text>
</g>
<!-- initializerr8_2 -->
<!-- initializerr8_2&#45;&gt;r8 -->
<g id="edge30" class="edge">
<title>initializerr8_2&#45;&gt;r8:n</title>
<path fill="none" stroke="#0000ff" d="M262.1793,-791.0285C327.5339,-772.3063 448.0658,-738.5898 552,-714 560.6223,-711.9601 689.2487,-693.5167 724.2588,-681.9086"/>
<polygon fill="#0000ff" stroke="#0000ff" points="725.9944,-684.9481 733,-677 722.567,-678.8446 725.9944,-684.9481"/>
<text text-anchor="middle" x="557" y="-728.3" font-family="Times,serif" font-size="14.00" fill="#000000">2</text>
</g>
<!-- r19&#45;&gt;r19 -->
<g id="edge48" class="edge">
<title>r19:e&#45;&gt;r19:n</title>
<path fill="none" stroke="#000000" d="M1325,-534C1348.5905,-525 1396.5905,-525 1396.5905,-543 1396.5905,-560.0156 1290.1963,-560.9462 1228.2716,-553.3943"/>
<polygon fill="#000000" stroke="#000000" points="1228.3799,-549.877 1218,-552 1227.4383,-556.8134 1228.3799,-549.877"/>
</g>
<!-- r19&#45;&gt;r17 -->
<g id="edge49" class="edge">
<title>r19:e&#45;&gt;r17:n</title>
<path fill="none" stroke="#000000" d="M1325,-534C1377.3544,-534 1549,-513.3544 1549,-461 1549,-461 1549,-461 1549,-386.5 1549,-23.6605 2347.5728,-611.9295 2362.78,-267.2019"/>
<polygon fill="#000000" stroke="#000000" points="2366.2835,-267.0732 2363,-257 2359.2851,-266.9222 2366.2835,-267.0732"/>
<text text-anchor="middle" x="2389" y="-260.8" font-family="Times,serif" font-size="14.00" fill="#000000">bounds</text>
</g>
<!-- initializerr13_1 -->
<!-- initializerr13_1&#45;&gt;r13 -->
<g id="edge33" class="edge">
<title>initializerr13_1&#45;&gt;r13:w</title>
<path fill="none" stroke="#0000ff" stroke-dasharray="1,5" d="M2374.9704,-998.9138C2361.8448,-979.8065 2339.663,-949.2796 2317,-926 2188.7947,-794.3066 2147.7011,-755.0638 1974,-695 1930.4938,-679.9561 1901.5875,-712.266 1872,-677 1869.9915,-674.606 1868.3314,-671.3357 1867.5309,-668.239"/>
<polygon fill="#0000ff" stroke="#0000ff" points="1870.7962,-669.5262 1872,-659 1864.4947,-666.478 1870.7962,-669.5262"/>
<text text-anchor="middle" x="2252" y="-844.8" font-family="Times,serif" font-size="14.00" fill="#000000">1</text>
</g>
<!-- r14&#45;&gt;r16 -->
<g id="edge36" class="edge">
<title>r14:e&#45;&gt;r16:ne</title>
<path fill="none" stroke="#000000" d="M2647,-732C2685.7278,-732 2764.4074,-720.6107 2540,-695 2503.983,-690.8895 2254.96,-702.6963 2199.7037,-681.9407"/>
<polygon fill="#000000" stroke="#000000" points="2201.4244,-678.8929 2191,-677 2197.9687,-684.9805 2201.4244,-678.8929"/>
<text text-anchor="middle" x="2217" y="-680.8" font-family="Times,serif" font-size="14.00" fill="#000000">control</text>
<text text-anchor="middle" x="2679" y="-735.8" font-family="Times,serif" font-size="14.00" fill="#000000">/right&#45;lte</text>
</g>
<!-- r14&#45;&gt;r14 -->
<g id="edge38" class="edge">
<title>r14:s&#45;&gt;r14:n</title>
<path fill="none" stroke="#000000" d="M2566,-714C2616.8643,-705 2718.5928,-705 2718.5928,-732 2718.5928,-757.3125 2629.183,-758.8945 2576.0959,-751.5776"/>
<polygon fill="#000000" stroke="#000000" points="2576.4205,-748.086 2566,-750 2575.3397,-755.002 2576.4205,-748.086"/>
<text text-anchor="middle" x="2578.5" y="-753.8" font-family="Times,serif" font-size="14.00" fill="#000000">left</text>
<text text-anchor="middle" x="2541.5" y="-702.8" font-family="Times,serif" font-size="14.00" fill="#000000">/left&#45;gt</text>
</g>
<!-- r14&#45;&gt;r11 -->
<g id="edge37" class="edge">
<title>r14:e&#45;&gt;r11:n</title>
<path fill="none" stroke="#000000" d="M2647,-732C2655,-732 2649.4591,-721.6127 2647,-714 2631.5871,-666.2856 2581,-672.642 2581,-622.5 2581,-622.5 2581,-622.5 2581,-534 2581,-513.375 2581,-505.8018 2581,-489.2554"/>
<polygon fill="#000000" stroke="#000000" points="2584.5001,-489 2581,-479 2577.5001,-489 2584.5001,-489"/>
<text text-anchor="middle" x="2600.5" y="-482.8" font-family="Times,serif" font-size="14.00" fill="#000000">value</text>
<text text-anchor="middle" x="2679" y="-720.8" font-family="Times,serif" font-size="14.00" fill="#000000">/right&#45;lte</text>
</g>
<!-- r15 -->
<g id="node33" class="node">
<title>r15</title>
<g id="a_node33"><a xlink:href="file:///home/travis/build/andrewdavidmackenzie/flow/flowstdlib/math/add/add.html" xlink:title="add (#15)">
<ellipse fill="#ff7f50" stroke="#000000" cx="2806" cy="-461" rx="57.3905" ry="18"/>
<text text-anchor="middle" x="2806" y="-457.3" font-family="Times,serif" font-size="14.00" fill="#000000">add (#15)</text>
</a>
</g>
</g>
<!-- r14&#45;&gt;r15 -->
<g id="edge39" class="edge">
<title>r14:e&#45;&gt;r15:n</title>
<path fill="none" stroke="#000000" d="M2647,-732C2679.6387,-732 2655,-691.6387 2655,-659 2655,-659 2655,-659 2655,-534 2655,-503.048 2685.2179,-508.3848 2714,-497 2730.0422,-490.6545 2782.6073,-496.7609 2800.2026,-487.2165"/>
<polygon fill="#000000" stroke="#000000" points="2803.0946,-489.1887 2806,-479 2797.375,-485.1531 2803.0946,-489.1887"/>
<text text-anchor="middle" x="2799" y="-482.8" font-family="Times,serif" font-size="14.00" fill="#000000">i1</text>
<text text-anchor="middle" x="2619.5" y="-735.8" font-family="Times,serif" font-size="14.00" fill="#000000">/right&#45;lt</text>
</g>
<!-- initializerr14_1 -->
<!-- initializerr14_1&#45;&gt;r14 -->
<g id="edge35" class="edge">
<title>initializerr14_1&#45;&gt;r14:ne</title>
<path fill="none" stroke="#0000ff" stroke-dasharray="1,5" d="M2615.2102,-999.0731C2609.5945,-984.5195 2603,-963.3168 2603,-944 2603,-944 2603,-944 2603,-805 2603,-788.4061 2604.4265,-783.2989 2598,-768 2595.7921,-762.744 2593.906,-759.9732 2591.4027,-757.2793"/>
<polygon fill="#0000ff" stroke="#0000ff" points="2593.5843,-754.5159 2584,-750 2588.6762,-759.507 2593.5843,-754.5159"/>
<text text-anchor="middle" x="2608" y="-877.8" font-family="Times,serif" font-size="14.00" fill="#000000">0</text>
</g>
<!-- r12 -->
<g id="node35" class="node">
<title>r12</title>
<g id="a_node35"><a xlink:href="file:///home/travis/build/andrewdavidmackenzie/flow/flowstdlib/data/enumerate/enumerate.html" xlink:title="enumerate (#12)">
<ellipse fill="#ff7f50" stroke="#000000" cx="2536" cy="-350" rx="90.1842" ry="18"/>
<text text-anchor="middle" x="2536" y="-346.3" font-family="Times,serif" font-size="14.00" fill="#000000">enumerate (#12)</text>
</a>
</g>
</g>
<!-- r11&#45;&gt;r12 -->
<g id="edge45" class="edge">
<title>r11:e&#45;&gt;r12:n</title>
<path fill="none" stroke="#000000" d="M2678,-461C2686,-461 2682.1298,-449.8516 2678,-443 2643.0986,-385.0957 2546.9007,-433.6385 2536.8518,-378.2526"/>
<polygon fill="#000000" stroke="#000000" points="2540.3161,-377.6758 2536,-368 2533.3401,-378.2555 2540.3161,-377.6758"/>
</g>
<!-- r15&#45;&gt;r14 -->
<g id="edge42" class="edge">
<title>r15:se&#45;&gt;r14:ne</title>
<path fill="none" stroke="#000000" d="M2823,-444C2823,-444 2863.1949,-479 2863.1949,-479 2832.9288,-546.2375 2785.5643,-531.8276 2739,-589 2686.8982,-652.9713 2717.9909,-708.6569 2646.5928,-750 2637.0008,-755.5543 2609.1946,-758.5021 2593.3172,-754.4935"/>
<polygon fill="#000000" stroke="#000000" points="2594.5276,-751.1915 2584,-750 2591.4868,-757.4966 2594.5276,-751.1915"/>
<text text-anchor="middle" x="2602" y="-753.8" font-family="Times,serif" font-size="14.00" fill="#000000">right</text>
<text text-anchor="middle" x="2805.5" y="-432.8" font-family="Times,serif" font-size="14.00" fill="#000000">/sum</text>
</g>
<!-- r15&#45;&gt;r15 -->
<g id="edge41" class="edge">
<title>r15:se&#45;&gt;r15:ne</title>
<path fill="none" stroke="#000000" d="M2823,-444C2866.065,-435 2935.1949,-435 2935.1949,-461 2935.1949,-485.0703 2875.9457,-486.8568 2832.9805,-479.8482"/>
<polygon fill="#000000" stroke="#000000" points="2833.4702,-476.3795 2823,-478 2832.1955,-483.2625 2833.4702,-476.3795"/>
<text text-anchor="middle" x="2816" y="-481.8" font-family="Times,serif" font-size="14.00" fill="#000000">i2</text>
<text text-anchor="middle" x="2832.5" y="-432.8" font-family="Times,serif" font-size="14.00" fill="#000000">/i2</text>
</g>
<!-- initializerr15_1 -->
<!-- initializerr15_1&#45;&gt;r15 -->
<g id="edge40" class="edge">
<title>initializerr15_1&#45;&gt;r15:w</title>
<path fill="none" stroke="#0000ff" stroke-dasharray="1,5" d="M2809.4377,-713.7981C2783.5379,-657.7836 2709.5699,-490.2045 2739.155,-464.3621"/>
<polygon fill="#0000ff" stroke="#0000ff" points="2740.6678,-467.544 2749,-461 2738.4055,-460.9197 2740.6678,-467.544"/>
<text text-anchor="middle" x="2767" y="-592.8" font-family="Times,serif" font-size="14.00" fill="#000000">1</text>
</g>
<!-- r12&#45;&gt;r17 -->
<g id="edge46" class="edge">
<title>r12:e&#45;&gt;r17:ne</title>
<path fill="none" stroke="#000000" d="M2627,-350C2635,-350 2631.7528,-338.4351 2627,-332 2560.8957,-242.4975 2467.2841,-331.3012 2387.6605,-263.1014"/>
<polygon fill="#000000" stroke="#000000" points="2389.7131,-260.2316 2380,-256 2384.9542,-265.3652 2389.7131,-260.2316"/>
<text text-anchor="middle" x="2362.5" y="-244.8" font-family="Times,serif" font-size="14.00" fill="#000000">pixel</text>
</g>
<!-- r18 -->
<g id="node37" class="node">
<title>r18</title>
<g id="a_node37"><a xlink:href="file:///home/travis/build/andrewdavidmackenzie/flow/samples/mandlebrot/render_pixel/render_pixel.html" xlink:title="p2v (#18)">
<ellipse fill="#ff7f50" stroke="#000000" cx="2421" cy="-145" rx="57.3905" ry="18"/>
<text text-anchor="middle" x="2421" y="-141.3" font-family="Times,serif" font-size="14.00" fill="#000000">p2v (#18)</text>
</a>
</g>
</g>
<!-- r17&#45;&gt;r18 -->
<g id="edge47" class="edge">
<title>r17:e&#45;&gt;r18:n</title>
<path fill="none" stroke="#000000" d="M2421,-239C2451.4792,-239 2426.953,-204.6216 2421.872,-173.0902"/>
<polygon fill="#000000" stroke="#000000" points="2425.3481,-172.6615 2421,-163 2418.3741,-173.2642 2425.3481,-172.6615"/>
<text text-anchor="middle" x="2381.5" y="-166.8" font-family="Times,serif" font-size="14.00" fill="#000000">pixel_point</text>
</g>
<!-- r18&#45;&gt;r20 -->
<g id="edge52" class="edge">
<title>r18:s&#45;&gt;r20:n</title>
<path fill="none" stroke="#000000" d="M2421,-127C2421,-97.1835 2426.5525,-87.542 2427.7671,-62.1388"/>
<polygon fill="#000000" stroke="#000000" points="2431.2693,-62.0778 2428,-52 2424.2712,-61.917 2431.2693,-62.0778"/>
<text text-anchor="middle" x="2445.5" y="-55.8" font-family="Times,serif" font-size="14.00" fill="#000000">pixel</text>
<text text-anchor="middle" x="2414" y="-115.8" font-family="Times,serif" font-size="14.00" fill="#000000">/0</text>
</g>
<!-- r18&#45;&gt;r20 -->
<g id="edge53" class="edge">
<title>r18:sw&#45;&gt;r20:ne</title>
<path fill="none" stroke="#000000" d="M2404,-128C2379.6957,-103.6957 2453.6444,-84.0453 2450.8329,-60.759"/>
<polygon fill="#000000" stroke="#000000" points="2453.8956,-59.0647 2446,-52 2447.7666,-62.4465 2453.8956,-59.0647"/>
<text text-anchor="middle" x="2465.5" y="-55.8" font-family="Times,serif" font-size="14.00" fill="#000000">value</text>
<text text-anchor="middle" x="2397" y="-116.8" font-family="Times,serif" font-size="14.00" fill="#000000">/1</text>
</g>
</g>
</svg>
