<?xml version="1.0" encoding="UTF-8" standalone="no"?>
<!DOCTYPE svg PUBLIC "-//W3C//DTD SVG 1.1//EN"
 "http://www.w3.org/Graphics/SVG/1.1/DTD/svg11.dtd">
<!-- Generated by graphviz version 2.40.1 (20161225.0304)
 -->
<!-- Title: mandlebrot Pages: 1 -->
<svg width="3022pt" height="1355pt"
 viewBox="0.00 0.00 3022.00 1355.00" xmlns="http://www.w3.org/2000/svg" xmlns:xlink="http://www.w3.org/1999/xlink">
<g id="graph0" class="graph" transform="scale(1 1) rotate(0) translate(4 1351)">
<title>mandlebrot</title>
<polygon fill="#ffffff" stroke="transparent" points="-4,4 -4,-1351 3018,-1351 3018,4 -4,4"/>
<text text-anchor="middle" x="1507" y="-1331.8" font-family="Times,serif" font-size="14.00" fill="#000000">/mandlebrot</text>
<g id="clust1" class="cluster">
<title>cluster_parse_args</title>
<polygon fill="none" stroke="#000000" points="101,-508 101,-1316 2313,-1316 2313,-508 101,-508"/>
<text text-anchor="middle" x="1207" y="-1300.8" font-family="Times,serif" font-size="14.00" fill="#000000">/mandlebrot/parse_args</text>
</g>
<g id="clust2" class="cluster">
<title>cluster_generate_pixels</title>
<polygon fill="none" stroke="#000000" points="2321,-213 2321,-1097 2940,-1097 2940,-213 2321,-213"/>
<text text-anchor="middle" x="2630.5" y="-1081.8" font-family="Times,serif" font-size="14.00" fill="#000000">/mandlebrot/generate_pixels</text>
</g>
<g id="clust3" class="cluster">
<title>cluster_y_sequence</title>
<polygon fill="none" stroke="#000000" points="2501,-435 2501,-1066 2932,-1066 2932,-435 2501,-435"/>
<text text-anchor="middle" x="2716.5" y="-1050.8" font-family="Times,serif" font-size="14.00" fill="#000000">/mandlebrot/generate_pixels/y&#45;sequence</text>
</g>
<g id="clust4" class="cluster">
<title>cluster_render</title>
<polygon fill="none" stroke="#000000" points="2347,-8 2347,-194 2555,-194 2555,-8 2347,-8"/>
<text text-anchor="middle" x="2451" y="-178.8" font-family="Times,serif" font-size="14.00" fill="#000000">/mandlebrot/render</text>
</g>
<!-- r11 -->
<g id="node1" class="node">
<title>r11</title>
<g id="a_node1"><a xlink:href="file:///home/travis/build/andrewdavidmackenzie/flow/flowr/src/lib/flowruntime/args/get.html" xlink:title="args (#11)">
<ellipse fill="#ff7f50" stroke="#000000" cx="598" cy="-1267" rx="60.3893" ry="18"/>
<text text-anchor="middle" x="598" y="-1263.3" font-family="Times,serif" font-size="14.00" fill="#000000">args (#11)</text>
</a>
</g>
</g>
<!-- r0 -->
<g id="node2" class="node">
<title>r0</title>
<g id="a_node2"><a xlink:href="file:///home/travis/build/andrewdavidmackenzie/flow/flowstdlib/data/buffer/buffer.html" xlink:title="filename_buffer (#0)">
<ellipse fill="#ff7f50" stroke="#000000" cx="216" cy="-1142" rx="107.4815" ry="18"/>
<text text-anchor="middle" x="216" y="-1138.3" font-family="Times,serif" font-size="14.00" fill="#000000">filename_buffer (#0)</text>
</a>
</g>
</g>
<!-- r11&#45;&gt;r0 -->
<g id="edge1" class="edge">
<title>r11:s&#45;&gt;r0:n</title>
<path fill="none" stroke="#000000" d="M598,-1249C598,-1206.5096 455.3707,-1206.6902 414,-1197 373.993,-1187.6292 240.5884,-1202.0031 218.9709,-1169.7994"/>
<polygon fill="#000000" stroke="#000000" points="222.2508,-1168.5544 216,-1160 215.5519,-1170.5854 222.2508,-1168.5544"/>
<text text-anchor="middle" x="567.5" y="-1237.8" font-family="Times,serif" font-size="14.00" fill="#000000">/string/1</text>
</g>
<!-- r14 -->
<g id="node3" class="node">
<title>r14</title>
<g id="a_node3"><a xlink:href="file:///home/travis/build/andrewdavidmackenzie/flow/flowstdlib/data/ordered_split/ordered_split.html" xlink:title="split_size (#14)">
<ellipse fill="#ff7f50" stroke="#000000" cx="1425" cy="-1142" rx="83.3857" ry="18"/>
<text text-anchor="middle" x="1425" y="-1138.3" font-family="Times,serif" font-size="14.00" fill="#000000">split_size (#14)</text>
</a>
</g>
</g>
<!-- r11&#45;&gt;r14 -->
<g id="edge2" class="edge">
<title>r11:se&#45;&gt;r14:n</title>
<path fill="none" stroke="#000000" d="M615,-1250C639.4065,-1225.5935 727.1854,-1203.923 761,-1197 777.8075,-1193.5589 1336.099,-1180.5298 1415.6138,-1163.8924"/>
<polygon fill="#000000" stroke="#000000" points="1417.1035,-1167.0637 1425,-1160 1414.422,-1160.5977 1417.1035,-1167.0637"/>
<text text-anchor="middle" x="1403.5" y="-1163.8" font-family="Times,serif" font-size="14.00" fill="#000000">string</text>
<text text-anchor="middle" x="645.5" y="-1238.8" font-family="Times,serif" font-size="14.00" fill="#000000">/string/2</text>
</g>
<!-- r13 -->
<g id="node4" class="node">
<title>r13</title>
<g id="a_node4"><a xlink:href="file:///home/travis/build/andrewdavidmackenzie/flow/flowstdlib/data/ordered_split/ordered_split.html" xlink:title="split_upper_left (#13)">
<ellipse fill="#ff7f50" stroke="#000000" cx="906" cy="-1142" rx="113.18" ry="18"/>
<text text-anchor="middle" x="906" y="-1138.3" font-family="Times,serif" font-size="14.00" fill="#000000">split_upper_left (#13)</text>
</a>
</g>
</g>
<!-- r11&#45;&gt;r13 -->
<g id="edge3" class="edge">
<title>r11:e&#45;&gt;r13:n</title>
<path fill="none" stroke="#000000" d="M659,-1267C676.4921,-1267 677.7577,-1255.4933 694,-1249 748.1942,-1227.3343 766.5832,-1235.5174 820,-1212 857.3665,-1195.5489 898.2763,-1203.0449 905.0317,-1170.3429"/>
<polygon fill="#000000" stroke="#000000" points="908.5525,-1170.2827 906,-1160 901.583,-1169.6302 908.5525,-1170.2827"/>
<text text-anchor="middle" x="884.5" y="-1163.8" font-family="Times,serif" font-size="14.00" fill="#000000">string</text>
<text text-anchor="middle" x="689.5" y="-1270.8" font-family="Times,serif" font-size="14.00" fill="#000000">/string/3</text>
</g>
<!-- r12 -->
<g id="node5" class="node">
<title>r12</title>
<g id="a_node5"><a xlink:href="file:///home/travis/build/andrewdavidmackenzie/flow/flowstdlib/data/ordered_split/ordered_split.html" xlink:title="split_lower_right (#12)">
<ellipse fill="#ff7f50" stroke="#000000" cx="532" cy="-1142" rx="118.8789" ry="18"/>
<text text-anchor="middle" x="532" y="-1138.3" font-family="Times,serif" font-size="14.00" fill="#000000">split_lower_right (#12)</text>
</a>
</g>
</g>
<!-- r11&#45;&gt;r12 -->
<g id="edge4" class="edge">
<title>r11:se&#45;&gt;r12:n</title>
<path fill="none" stroke="#000000" d="M615,-1250C650.9209,-1214.0791 547.4282,-1214.2119 533.5246,-1170.1109"/>
<polygon fill="#000000" stroke="#000000" points="536.952,-1169.3663 532,-1160 530.0303,-1170.4101 536.952,-1169.3663"/>
<text text-anchor="middle" x="510.5" y="-1163.8" font-family="Times,serif" font-size="14.00" fill="#000000">string</text>
<text text-anchor="middle" x="645.5" y="-1253.8" font-family="Times,serif" font-size="14.00" fill="#000000">/string/4</text>
</g>
<!-- r0&#45;&gt;r0 -->
<g id="edge54" class="edge">
<title>r0:e&#45;&gt;r0:n</title>
<path fill="none" stroke="#000000" d="M323,-1142C347.2405,-1133 395.2405,-1133 395.2405,-1151 395.2405,-1168.0508 288.0174,-1168.9499 225.9243,-1161.3474"/>
<polygon fill="#000000" stroke="#000000" points="226.38,-1157.8773 216,-1160 225.4382,-1164.8136 226.38,-1157.8773"/>
</g>
<!-- r6 -->
<g id="node38" class="node">
<title>r6</title>
<g id="a_node38"><a xlink:href="file:///home/travis/build/andrewdavidmackenzie/flow/flowr/src/lib/flowruntime/image/image_buffer.html" xlink:title="image_buffer (#6)">
<ellipse fill="#ff7f50" stroke="#000000" cx="2451" cy="-34" rx="95.5831" ry="18"/>
<text text-anchor="middle" x="2451" y="-30.3" font-family="Times,serif" font-size="14.00" fill="#000000">image_buffer (#6)</text>
</a>
</g>
</g>
<!-- r0&#45;&gt;r6 -->
<g id="edge55" class="edge">
<title>r0:e&#45;&gt;r6:w</title>
<path fill="none" stroke="#000000" d="M323,-1142C331,-1142 327.6837,-1130.4856 323,-1124 234.4618,-1001.4002 0,-1168.2274 0,-1017 0,-1017 0,-1017 0,-89.5 0,-57.837 2175.016,-35.4787 2344.8578,-34.0706"/>
<polygon fill="#000000" stroke="#000000" points="2345.0246,-37.5696 2355,-34 2344.9759,-30.5697 2345.0246,-37.5696"/>
<text text-anchor="middle" x="2324" y="-37.8" font-family="Times,serif" font-size="14.00" fill="#000000">filename</text>
</g>
<!-- r15 -->
<g id="node7" class="node">
<title>r15</title>
<g id="a_node7"><a xlink:href="file:///home/travis/build/andrewdavidmackenzie/flow/flowstdlib/fmt/to_json/to_json.html" xlink:title="size_to_json (#15)">
<ellipse fill="#ff7f50" stroke="#000000" cx="1761" cy="-944" rx="96.3833" ry="18"/>
<text text-anchor="middle" x="1761" y="-940.3" font-family="Times,serif" font-size="14.00" fill="#000000">size_to_json (#15)</text>
</a>
</g>
</g>
<!-- r14&#45;&gt;r15 -->
<g id="edge6" class="edge">
<title>r14:e&#45;&gt;r15:n</title>
<path fill="none" stroke="#000000" d="M1509,-1142C1643.1425,-1142 1755.1775,-1101.7611 1760.7803,-972.3007"/>
<polygon fill="#000000" stroke="#000000" points="1764.2859,-972.0724 1761,-962 1757.2875,-971.9231 1764.2859,-972.0724"/>
</g>
<!-- r17 -->
<g id="node16" class="node">
<title>r17</title>
<g id="a_node16"><a xlink:href="file:///home/travis/build/andrewdavidmackenzie/flow/flowstdlib/fmt/to_json/to_json.html" xlink:title="upper_left_to_json (#17)">
<ellipse fill="#ff7f50" stroke="#000000" cx="1019" cy="-944" rx="126.1777" ry="18"/>
<text text-anchor="middle" x="1019" y="-940.3" font-family="Times,serif" font-size="14.00" fill="#000000">upper_left_to_json (#17)</text>
</a>
</g>
</g>
<!-- r13&#45;&gt;r17 -->
<g id="edge16" class="edge">
<title>r13:e&#45;&gt;r17:n</title>
<path fill="none" stroke="#000000" d="M1019,-1142C1095.5625,-1142 1025.5796,-1050.4091 1019.4241,-972.4138"/>
<polygon fill="#000000" stroke="#000000" points="1022.9041,-971.8493 1019,-962 1015.9099,-972.1342 1022.9041,-971.8493"/>
</g>
<!-- r16 -->
<g id="node19" class="node">
<title>r16</title>
<g id="a_node19"><a xlink:href="file:///home/travis/build/andrewdavidmackenzie/flow/flowstdlib/fmt/to_json/to_json.html" xlink:title="lower_right_to_json (#16)">
<ellipse fill="#ff7f50" stroke="#000000" cx="465" cy="-944" rx="131.8766" ry="18"/>
<text text-anchor="middle" x="465" y="-940.3" font-family="Times,serif" font-size="14.00" fill="#000000">lower_right_to_json (#16)</text>
</a>
</g>
</g>
<!-- r12&#45;&gt;r16 -->
<g id="edge19" class="edge">
<title>r12:e&#45;&gt;r16:n</title>
<path fill="none" stroke="#000000" d="M651,-1142C659,-1142 654.3141,-1131.2813 651,-1124 607.0502,-1027.4387 473.9624,-1068.7232 465.4301,-972.1195"/>
<polygon fill="#000000" stroke="#000000" points="468.9216,-971.8423 465,-962 461.9279,-972.1396 468.9216,-971.8423"/>
</g>
<!-- initializerr14_1 -->
<!-- initializerr14_1&#45;&gt;r14 -->
<g id="edge5" class="edge">
<title>initializerr14_1&#45;&gt;r14:w</title>
<path fill="none" stroke="#0000ff" d="M1333.692,-1248.8239C1321.8853,-1217.2702 1302.6589,-1154.6628 1331.1234,-1143.6678"/>
<polygon fill="#0000ff" stroke="#0000ff" points="1331.7224,-1147.1163 1341,-1142 1330.5568,-1140.214 1331.7224,-1147.1163"/>
<text text-anchor="middle" x="1332" y="-1200.8" font-family="Times,serif" font-size="14.00" fill="#000000">&quot;x&quot;</text>
</g>
<!-- r7 -->
<g id="node8" class="node">
<title>r7</title>
<g id="a_node8"><a xlink:href="file:///home/travis/build/andrewdavidmackenzie/flow/flowstdlib/data/accumulate/accumulate.html" xlink:title="accumulate_size (#7)">
<ellipse fill="#ff7f50" stroke="#000000" cx="2005" cy="-805" rx="111.2805" ry="18"/>
<text text-anchor="middle" x="2005" y="-801.3" font-family="Times,serif" font-size="14.00" fill="#000000">accumulate_size (#7)</text>
</a>
</g>
</g>
<!-- r15&#45;&gt;r7 -->
<g id="edge7" class="edge">
<title>r15:e&#45;&gt;r7:n</title>
<path fill="none" stroke="#000000" d="M1858,-944C1862.5863,-944 1969.7643,-856.9835 1998.1526,-830.4207"/>
<polygon fill="#000000" stroke="#000000" points="2000.7908,-832.7228 2005,-823 1995.6463,-827.9758 2000.7908,-832.7228"/>
<text text-anchor="middle" x="1982" y="-826.8" font-family="Times,serif" font-size="14.00" fill="#000000">values</text>
</g>
<!-- r7&#45;&gt;r7 -->
<g id="edge10" class="edge">
<title>r7:e&#45;&gt;r7:ne</title>
<path fill="none" stroke="#000000" d="M2116,-805C2140.1401,-796 2188.1401,-796 2188.1401,-814 2188.1401,-831.0508 2094.7358,-831.9499 2032.9953,-824.3474"/>
<polygon fill="#000000" stroke="#000000" points="2033.378,-820.8674 2023,-823 2032.4427,-827.8047 2033.378,-820.8674"/>
<text text-anchor="middle" x="2047" y="-826.8" font-family="Times,serif" font-size="14.00" fill="#000000">partial</text>
<text text-anchor="middle" x="2142" y="-808.8" font-family="Times,serif" font-size="14.00" fill="#000000">/partial</text>
</g>
<!-- r22 -->
<g id="node11" class="node">
<title>r22</title>
<g id="a_node11"><a xlink:href="file:///home/travis/build/andrewdavidmackenzie/flow/flowstdlib/math/subtract/subtract.html" xlink:title="height (#22)">
<ellipse fill="#ff7f50" stroke="#000000" cx="1966" cy="-659" rx="69.5877" ry="18"/>
<text text-anchor="middle" x="1966" y="-655.3" font-family="Times,serif" font-size="14.00" fill="#000000">height (#22)</text>
</a>
</g>
</g>
<!-- r7&#45;&gt;r22 -->
<g id="edge11" class="edge">
<title>r7:sw&#45;&gt;r22:n</title>
<path fill="none" stroke="#000000" d="M1987,-787C1973.7857,-773.7857 1958.9933,-784.7914 1949,-769 1928.6754,-736.8831 1959.7104,-721.3544 1965.1946,-687.1668"/>
<polygon fill="#000000" stroke="#000000" points="1968.6993,-687.2452 1966,-677 1961.7211,-686.6923 1968.6993,-687.2452"/>
<text text-anchor="middle" x="1959" y="-680.8" font-family="Times,serif" font-size="14.00" fill="#000000">i1</text>
<text text-anchor="middle" x="1955.5" y="-775.8" font-family="Times,serif" font-size="14.00" fill="#000000">/chunk/1</text>
</g>
<!-- r20 -->
<g id="node12" class="node">
<title>r20</title>
<g id="a_node12"><a xlink:href="file:///home/travis/build/andrewdavidmackenzie/flow/flowstdlib/control/join/join.html" xlink:title="width&#45;gate (#20)">
<ellipse fill="#ff7f50" stroke="#000000" cx="2197" cy="-659" rx="89.8845" ry="18"/>
<text text-anchor="middle" x="2197" y="-655.3" font-family="Times,serif" font-size="14.00" fill="#000000">width&#45;gate (#20)</text>
</a>
</g>
</g>
<!-- r7&#45;&gt;r20 -->
<g id="edge12" class="edge">
<title>r7:s&#45;&gt;r20:n</title>
<path fill="none" stroke="#000000" d="M2005,-787C2005,-760.857 2037.4924,-780.439 2061,-769 2123.4149,-738.6282 2190.1382,-748.8221 2196.5053,-687.0907"/>
<polygon fill="#000000" stroke="#000000" points="2200.0061,-687.1594 2197,-677 2193.0145,-686.8166 2200.0061,-687.1594"/>
<text text-anchor="middle" x="2181" y="-680.8" font-family="Times,serif" font-size="14.00" fill="#000000">data</text>
<text text-anchor="middle" x="2036.5" y="-775.8" font-family="Times,serif" font-size="14.00" fill="#000000">/chunk/0</text>
</g>
<!-- r4 -->
<g id="node13" class="node">
<title>r4</title>
<g id="a_node13"><a xlink:href="file:///home/travis/build/andrewdavidmackenzie/flow/flowstdlib/data/buffer/buffer.html" xlink:title="buffer_size (#4)">
<ellipse fill="#ff7f50" stroke="#000000" cx="1461" cy="-659" rx="85.2851" ry="18"/>
<text text-anchor="middle" x="1461" y="-655.3" font-family="Times,serif" font-size="14.00" fill="#000000">buffer_size (#4)</text>
</a>
</g>
</g>
<!-- r7&#45;&gt;r4 -->
<g id="edge13" class="edge">
<title>r7:s&#45;&gt;r4:n</title>
<path fill="none" stroke="#000000" d="M2005,-787C2005,-728.5842 1516.8622,-737.4699 1465.3789,-686.1523"/>
<polygon fill="#000000" stroke="#000000" points="1468.4732,-684.5101 1461,-677 1462.1587,-687.5313 1468.4732,-684.5101"/>
<text text-anchor="middle" x="1980.5" y="-775.8" font-family="Times,serif" font-size="14.00" fill="#000000">/chunk</text>
</g>
<!-- r1 -->
<g id="node14" class="node">
<title>r1</title>
<g id="a_node14"><a xlink:href="file:///home/travis/build/andrewdavidmackenzie/flow/flowstdlib/data/buffer/buffer.html" xlink:title="size_buffer (#1)">
<ellipse fill="#ff7f50" stroke="#000000" cx="1721" cy="-659" rx="85.2851" ry="18"/>
<text text-anchor="middle" x="1721" y="-655.3" font-family="Times,serif" font-size="14.00" fill="#000000">size_buffer (#1)</text>
</a>
</g>
</g>
<!-- r7&#45;&gt;r1 -->
<g id="edge14" class="edge">
<title>r7:s&#45;&gt;r1:n</title>
<path fill="none" stroke="#000000" d="M2005,-787C2005,-745.3359 2018.2525,-722.5533 1987,-695 1967.0363,-677.3993 1768.2323,-700.8069 1728.0562,-684.2602"/>
<polygon fill="#000000" stroke="#000000" points="1730.4795,-681.7317 1721,-677 1725.4598,-686.6105 1730.4795,-681.7317"/>
<text text-anchor="middle" x="1980.5" y="-790.8" font-family="Times,serif" font-size="14.00" fill="#000000">/chunk</text>
</g>
<!-- initializerr7_1 -->
<!-- initializerr7_1&#45;&gt;r7 -->
<g id="edge8" class="edge">
<title>initializerr7_1&#45;&gt;r7:n</title>
<path fill="none" stroke="#0000ff" stroke-dasharray="1,5" d="M2195.4649,-927.7968C2141.7639,-901.6318 2039.6983,-850.9383 2012.0543,-830.413"/>
<polygon fill="#0000ff" stroke="#0000ff" points="2014.4292,-827.8314 2005,-823 2009.3582,-832.6569 2014.4292,-827.8314"/>
<text text-anchor="middle" x="2122.5" y="-877.8" font-family="Times,serif" font-size="14.00" fill="#000000">[]</text>
</g>
<!-- initializerr7_2 -->
<!-- initializerr7_2&#45;&gt;r7 -->
<g id="edge9" class="edge">
<title>initializerr7_2&#45;&gt;r7:n</title>
<path fill="none" stroke="#0000ff" d="M2005,-925.96C2005,-904.5319 2005,-867.4021 2005,-833.4232"/>
<polygon fill="#0000ff" stroke="#0000ff" points="2008.5001,-833 2005,-823 2001.5001,-833 2008.5001,-833"/>
<text text-anchor="middle" x="2010" y="-877.8" font-family="Times,serif" font-size="14.00" fill="#000000">2</text>
</g>
<!-- r18 -->
<g id="node30" class="node">
<title>r18</title>
<g id="a_node30"><a xlink:href="file:///home/travis/build/andrewdavidmackenzie/flow/flowstdlib/control/compare_switch/compare_switch.html" xlink:title="compare (#18)">
<ellipse fill="#ff7f50" stroke="#000000" cx="2590" cy="-732" rx="80.6858" ry="18"/>
<text text-anchor="middle" x="2590" y="-728.3" font-family="Times,serif" font-size="14.00" fill="#000000">compare (#18)</text>
</a>
</g>
</g>
<!-- r22&#45;&gt;r18 -->
<g id="edge34" class="edge">
<title>r22:se&#45;&gt;r18:n</title>
<path fill="none" stroke="#000000" d="M1984,-641C1992.0993,-632.9007 2024.9478,-636.65 2035.5438,-641 2056.609,-649.6479 2051.1361,-667.8771 2072,-677 2102.5278,-690.3485 2648.1656,-689.3596 2670.5928,-714 2670.5928,-714 2620.4142,-736.4143 2599.245,-745.8703"/>
<polygon fill="#000000" stroke="#000000" points="2597.703,-742.7258 2590,-750 2600.558,-749.1171 2597.703,-742.7258"/>
<text text-anchor="middle" x="2577.5" y="-753.8" font-family="Times,serif" font-size="14.00" fill="#000000">left</text>
<text text-anchor="middle" x="1969.5" y="-629.8" font-family="Times,serif" font-size="14.00" fill="#000000">/diff</text>
</g>
<!-- r20&#45;&gt;r20 -->
<g id="edge43" class="edge">
<title>r20:e&#45;&gt;r20:n</title>
<path fill="none" stroke="#000000" d="M2287,-659C2310.692,-650 2358.692,-650 2358.692,-668 2358.692,-684.9453 2263.1595,-685.9382 2206.9967,-678.4875"/>
<polygon fill="#000000" stroke="#000000" points="2207.4063,-675.01 2197,-677 2206.3759,-681.9338 2207.4063,-675.01"/>
<text text-anchor="middle" x="2213" y="-680.8" font-family="Times,serif" font-size="14.00" fill="#000000">data</text>
</g>
<!-- r23 -->
<g id="node32" class="node">
<title>r23</title>
<g id="a_node32"><a xlink:href="file:///home/travis/build/andrewdavidmackenzie/flow/flowstdlib/data/duplicate/duplicate.html" xlink:title="y&#45;duplicator (#23)">
<ellipse fill="#ff7f50" stroke="#000000" cx="2605" cy="-461" rx="96.3833" ry="18"/>
<text text-anchor="middle" x="2605" y="-457.3" font-family="Times,serif" font-size="14.00" fill="#000000">y&#45;duplicator (#23)</text>
</a>
</g>
</g>
<!-- r20&#45;&gt;r23 -->
<g id="edge44" class="edge">
<title>r20:e&#45;&gt;r23:ne</title>
<path fill="none" stroke="#000000" d="M2287,-659C2438.1405,-659 2451.568,-566.0759 2586,-497 2595.6576,-492.0376 2611.4495,-491.181 2619.9797,-488.5973"/>
<polygon fill="#000000" stroke="#000000" points="2623.3366,-489.5895 2623,-479 2616.6595,-487.4881 2623.3366,-489.5895"/>
<text text-anchor="middle" x="2601.5" y="-482.8" font-family="Times,serif" font-size="14.00" fill="#000000">factor</text>
</g>
<!-- r4&#45;&gt;r4 -->
<g id="edge50" class="edge">
<title>r4:e&#45;&gt;r4:n</title>
<path fill="none" stroke="#000000" d="M1547,-659C1570.1424,-650 1618.1424,-650 1618.1424,-668 1618.1424,-684.9102 1525.6827,-685.934 1471.0557,-678.5338"/>
<polygon fill="#000000" stroke="#000000" points="1471.4134,-675.048 1461,-677 1470.3579,-681.9679 1471.4134,-675.048"/>
</g>
<!-- r2 -->
<g id="node36" class="node">
<title>r2</title>
<g id="a_node36"><a xlink:href="file:///home/travis/build/andrewdavidmackenzie/flow/samples/mandlebrot/pixel_to_point/pixel_to_point.html" xlink:title="p2p (#2)">
<ellipse fill="#ff7f50" stroke="#000000" cx="2381" cy="-239" rx="51.9908" ry="18"/>
<text text-anchor="middle" x="2381" y="-235.3" font-family="Times,serif" font-size="14.00" fill="#000000">p2p (#2)</text>
</a>
</g>
</g>
<!-- r4&#45;&gt;r2 -->
<g id="edge51" class="edge">
<title>r4:e&#45;&gt;r2:nw</title>
<path fill="none" stroke="#000000" d="M1547,-659C1547.6583,-659 1726,-597.1583 1726,-596.5 1726,-596.5 1726,-596.5 1726,-294.5 1726,-155.7933 2238.6625,-347.0634 2356.2304,-262.5685"/>
<polygon fill="#000000" stroke="#000000" points="2358.623,-265.129 2364,-256 2354.1037,-259.7833 2358.623,-265.129"/>
<text text-anchor="middle" x="2350" y="-259.8" font-family="Times,serif" font-size="14.00" fill="#000000">size</text>
</g>
<!-- r1&#45;&gt;r1 -->
<g id="edge56" class="edge">
<title>r1:e&#45;&gt;r1:n</title>
<path fill="none" stroke="#000000" d="M1807,-659C1830.1424,-650 1878.1424,-650 1878.1424,-668 1878.1424,-684.9102 1785.6827,-685.934 1731.0557,-678.5338"/>
<polygon fill="#000000" stroke="#000000" points="1731.4134,-675.048 1721,-677 1730.3579,-681.9679 1731.4134,-675.048"/>
</g>
<!-- r1&#45;&gt;r6 -->
<g id="edge57" class="edge">
<title>r1:e&#45;&gt;r6:nw</title>
<path fill="none" stroke="#000000" d="M1807,-659C1831.877,-659 1835.8212,-646.8522 1860,-641 2098.0104,-583.3922 2727.0511,-580.2986 2950,-479 2984.0141,-463.5454 3014,-461.8604 3014,-424.5 3014,-424.5 3014,-424.5 3014,-89.5 3014,-30.6221 2494.8162,-85.7485 2436.0134,-61.6411"/>
<polygon fill="#000000" stroke="#000000" points="2439.3239,-60.5005 2433,-52 2432.6427,-62.5888 2439.3239,-60.5005"/>
<text text-anchor="middle" x="2419" y="-55.8" font-family="Times,serif" font-size="14.00" fill="#000000">size</text>
</g>
<!-- initializerr13_1 -->
<!-- initializerr13_1&#45;&gt;r13 -->
<g id="edge15" class="edge">
<title>initializerr13_1&#45;&gt;r13:w</title>
<path fill="none" stroke="#0000ff" d="M801.9868,-1249.0905C785.3468,-1217.7673 756.3318,-1155.2651 782.8963,-1143.8213"/>
<polygon fill="#0000ff" stroke="#0000ff" points="783.7795,-1147.2186 793,-1142 782.5377,-1140.3296 783.7795,-1147.2186"/>
<text text-anchor="middle" x="792.5" y="-1200.8" font-family="Times,serif" font-size="14.00" fill="#000000">&quot;,&quot;</text>
</g>
<!-- r9 -->
<g id="node17" class="node">
<title>r9</title>
<g id="a_node17"><a xlink:href="file:///home/travis/build/andrewdavidmackenzie/flow/flowstdlib/data/accumulate/accumulate.html" xlink:title="accumulate_upper_left (#9)">
<ellipse fill="#ff7f50" stroke="#000000" cx="1219" cy="-805" rx="141.075" ry="18"/>
<text text-anchor="middle" x="1219" y="-801.3" font-family="Times,serif" font-size="14.00" fill="#000000">accumulate_upper_left (#9)</text>
</a>
</g>
</g>
<!-- r17&#45;&gt;r9 -->
<g id="edge17" class="edge">
<title>r17:e&#45;&gt;r9:n</title>
<path fill="none" stroke="#000000" d="M1145,-944C1197.5366,-944 1172.4852,-883.7662 1203,-841 1206.4971,-836.0989 1211.1224,-834.4029 1214.5003,-831.952"/>
<polygon fill="#000000" stroke="#000000" points="1217.6361,-833.5067 1219,-823 1211.3817,-830.3629 1217.6361,-833.5067"/>
<text text-anchor="middle" x="1196" y="-826.8" font-family="Times,serif" font-size="14.00" fill="#000000">values</text>
</g>
<!-- r9&#45;&gt;r9 -->
<g id="edge23" class="edge">
<title>r9:e&#45;&gt;r9:ne</title>
<path fill="none" stroke="#000000" d="M1360,-805C1384.0375,-796 1432.0375,-796 1432.0375,-814 1432.0375,-831.1563 1319.3673,-831.9604 1247.3173,-824.2054"/>
<polygon fill="#000000" stroke="#000000" points="1247.3386,-820.6841 1237,-823 1246.5263,-827.6368 1247.3386,-820.6841"/>
<text text-anchor="middle" x="1261" y="-826.8" font-family="Times,serif" font-size="14.00" fill="#000000">partial</text>
<text text-anchor="middle" x="1386" y="-808.8" font-family="Times,serif" font-size="14.00" fill="#000000">/partial</text>
</g>
<!-- r10 -->
<g id="node23" class="node">
<title>r10</title>
<g id="a_node23"><a xlink:href="file:///home/travis/build/andrewdavidmackenzie/flow/flowstdlib/data/accumulate/accumulate.html" xlink:title="accumulate_bounds (#10)">
<ellipse fill="#ff7f50" stroke="#000000" cx="745" cy="-659" rx="132.6765" ry="18"/>
<text text-anchor="middle" x="745" y="-655.3" font-family="Times,serif" font-size="14.00" fill="#000000">accumulate_bounds (#10)</text>
</a>
</g>
</g>
<!-- r9&#45;&gt;r10 -->
<g id="edge24" class="edge">
<title>r9:s&#45;&gt;r10:n</title>
<path fill="none" stroke="#000000" d="M1219,-787C1219,-736.1017 798.9195,-731.4643 749.6913,-685.9872"/>
<polygon fill="#000000" stroke="#000000" points="752.7303,-684.2453 745,-677 746.5248,-687.4845 752.7303,-684.2453"/>
<text text-anchor="middle" x="722" y="-680.8" font-family="Times,serif" font-size="14.00" fill="#000000">values</text>
<text text-anchor="middle" x="1194.5" y="-775.8" font-family="Times,serif" font-size="14.00" fill="#000000">/chunk</text>
</g>
<!-- initializerr12_1 -->
<!-- initializerr12_1&#45;&gt;r12 -->
<g id="edge18" class="edge">
<title>initializerr12_1&#45;&gt;r12:w</title>
<path fill="none" stroke="#0000ff" d="M380.7148,-1248.8239C375.8943,-1217.1348 370.658,-1154.1249 402.8853,-1143.5291"/>
<polygon fill="#0000ff" stroke="#0000ff" points="403.6355,-1146.9555 413,-1142 402.5892,-1140.0342 403.6355,-1146.9555"/>
<text text-anchor="middle" x="386.5" y="-1200.8" font-family="Times,serif" font-size="14.00" fill="#000000">&quot;,&quot;</text>
</g>
<!-- r8 -->
<g id="node20" class="node">
<title>r8</title>
<g id="a_node20"><a xlink:href="file:///home/travis/build/andrewdavidmackenzie/flow/flowstdlib/data/accumulate/accumulate.html" xlink:title="accumulate_lower_right (#8)">
<ellipse fill="#ff7f50" stroke="#000000" cx="745" cy="-805" rx="146.774" ry="18"/>
<text text-anchor="middle" x="745" y="-801.3" font-family="Times,serif" font-size="14.00" fill="#000000">accumulate_lower_right (#8)</text>
</a>
</g>
</g>
<!-- r16&#45;&gt;r8 -->
<g id="edge20" class="edge">
<title>r16:e&#45;&gt;r8:n</title>
<path fill="none" stroke="#000000" d="M597,-944C601.6049,-944 709.5213,-856.9996 738.1053,-830.4272"/>
<polygon fill="#000000" stroke="#000000" points="740.7617,-832.7102 745,-823 735.6314,-827.9477 740.7617,-832.7102"/>
<text text-anchor="middle" x="722" y="-826.8" font-family="Times,serif" font-size="14.00" fill="#000000">values</text>
</g>
<!-- r8&#45;&gt;r8 -->
<g id="edge27" class="edge">
<title>r8:e&#45;&gt;r8:ne</title>
<path fill="none" stroke="#000000" d="M892,-805C915.887,-796 963.887,-796 963.887,-814 963.887,-831.1914 847.1974,-831.9637 773.149,-824.1576"/>
<polygon fill="#000000" stroke="#000000" points="773.3322,-820.6559 763,-823 772.5389,-827.6108 773.3322,-820.6559"/>
<text text-anchor="middle" x="787" y="-826.8" font-family="Times,serif" font-size="14.00" fill="#000000">partial</text>
<text text-anchor="middle" x="918" y="-808.8" font-family="Times,serif" font-size="14.00" fill="#000000">/partial</text>
</g>
<!-- r8&#45;&gt;r10 -->
<g id="edge28" class="edge">
<title>r8:s&#45;&gt;r10:n</title>
<path fill="none" stroke="#000000" d="M745,-787C745,-741.6441 745,-727.8469 745,-687.0522"/>
<polygon fill="#000000" stroke="#000000" points="748.5001,-687 745,-677 741.5001,-687 748.5001,-687"/>
<text text-anchor="middle" x="768" y="-680.8" font-family="Times,serif" font-size="14.00" fill="#000000">values</text>
<text text-anchor="middle" x="720.5" y="-775.8" font-family="Times,serif" font-size="14.00" fill="#000000">/chunk</text>
</g>
<!-- initializerr9_1 -->
<!-- initializerr9_1&#45;&gt;r9 -->
<g id="edge21" class="edge">
<title>initializerr9_1&#45;&gt;r9:n</title>
<path fill="none" stroke="#0000ff" stroke-dasharray="1,5" d="M1474.3039,-928.982C1402.2042,-903.3536 1260.8119,-851.853 1226.5904,-830.2603"/>
<polygon fill="#0000ff" stroke="#0000ff" points="1228.6458,-827.3829 1219,-823 1223.8072,-832.4415 1228.6458,-827.3829"/>
<text text-anchor="middle" x="1368.5" y="-877.8" font-family="Times,serif" font-size="14.00" fill="#000000">[]</text>
</g>
<!-- initializerr9_2 -->
<!-- initializerr9_2&#45;&gt;r9 -->
<g id="edge22" class="edge">
<title>initializerr9_2&#45;&gt;r9:n</title>
<path fill="none" stroke="#0000ff" d="M1273.5574,-926.3812C1253.431,-906.28 1224.2817,-871.2422 1219.6348,-833.248"/>
<polygon fill="#0000ff" stroke="#0000ff" points="1223.1117,-832.7644 1219,-823 1216.1251,-833.1973 1223.1117,-832.7644"/>
<text text-anchor="middle" x="1246" y="-877.8" font-family="Times,serif" font-size="14.00" fill="#000000">2</text>
</g>
<!-- r10&#45;&gt;r10 -->
<g id="edge31" class="edge">
<title>r10:e&#45;&gt;r10:ne</title>
<path fill="none" stroke="#000000" d="M878,-659C901.5882,-650 949.5882,-650 949.5882,-668 949.5882,-685.1211 842.4755,-685.9571 773.3291,-678.2529"/>
<polygon fill="#000000" stroke="#000000" points="773.3487,-674.7297 763,-677 772.5057,-681.6788 773.3487,-674.7297"/>
<text text-anchor="middle" x="787" y="-680.8" font-family="Times,serif" font-size="14.00" fill="#000000">partial</text>
<text text-anchor="middle" x="904" y="-662.8" font-family="Times,serif" font-size="14.00" fill="#000000">/partial</text>
</g>
<!-- r3 -->
<g id="node28" class="node">
<title>r3</title>
<g id="a_node28"><a xlink:href="file:///home/travis/build/andrewdavidmackenzie/flow/flowstdlib/data/buffer/buffer.html" xlink:title="buffer_bounds (#3)">
<ellipse fill="#ff7f50" stroke="#000000" cx="1250" cy="-534" rx="100.9827" ry="18"/>
<text text-anchor="middle" x="1250" y="-530.3" font-family="Times,serif" font-size="14.00" fill="#000000">buffer_bounds (#3)</text>
</a>
</g>
</g>
<!-- r10&#45;&gt;r3 -->
<g id="edge32" class="edge">
<title>r10:s&#45;&gt;r3:n</title>
<path fill="none" stroke="#000000" d="M745,-641C745,-416.6576 1234.342,-768.5859 1249.634,-562.2519"/>
<polygon fill="#000000" stroke="#000000" points="1253.1409,-562.1185 1250,-552 1246.1453,-561.8687 1253.1409,-562.1185"/>
<text text-anchor="middle" x="720.5" y="-629.8" font-family="Times,serif" font-size="14.00" fill="#000000">/chunk</text>
</g>
<!-- initializerr8_1 -->
<!-- initializerr8_1&#45;&gt;r8 -->
<g id="edge25" class="edge">
<title>initializerr8_1&#45;&gt;r8:n</title>
<path fill="none" stroke="#0000ff" stroke-dasharray="1,5" d="M244.3996,-932.722C375.0109,-907.7423 680.0269,-848.3531 736.0694,-827.9865"/>
<polygon fill="#0000ff" stroke="#0000ff" points="737.9752,-830.9311 745,-823 734.5625,-824.8193 737.9752,-830.9311"/>
<text text-anchor="middle" x="543.5" y="-877.8" font-family="Times,serif" font-size="14.00" fill="#000000">[]</text>
</g>
<!-- initializerr8_2 -->
<!-- initializerr8_2&#45;&gt;r8 -->
<g id="edge26" class="edge">
<title>initializerr8_2&#45;&gt;r8:n</title>
<path fill="none" stroke="#0000ff" d="M745,-925.96C745,-904.5319 745,-867.4021 745,-833.4232"/>
<polygon fill="#0000ff" stroke="#0000ff" points="748.5001,-833 745,-823 741.5001,-833 748.5001,-833"/>
<text text-anchor="middle" x="750" y="-877.8" font-family="Times,serif" font-size="14.00" fill="#000000">2</text>
</g>
<!-- initializerr10_1 -->
<!-- initializerr10_1&#45;&gt;r10 -->
<g id="edge29" class="edge">
<title>initializerr10_1&#45;&gt;r10:n</title>
<path fill="none" stroke="#0000ff" stroke-dasharray="1,5" d="M485.8528,-789.4949C558.5441,-762.2996 703.6428,-706.756 737.7179,-684.2571"/>
<polygon fill="#0000ff" stroke="#0000ff" points="740.3874,-686.5381 745,-677 735.4461,-681.5798 740.3874,-686.5381"/>
<text text-anchor="middle" x="680.5" y="-728.3" font-family="Times,serif" font-size="14.00" fill="#000000">[]</text>
</g>
<!-- initializerr10_2 -->
<!-- initializerr10_2&#45;&gt;r10 -->
<g id="edge30" class="edge">
<title>initializerr10_2&#45;&gt;r10:n</title>
<path fill="none" stroke="#0000ff" d="M259.2334,-790.8676C327.7284,-772.1864 453.0462,-738.7499 561,-714 569.7737,-711.9885 700.5259,-693.6462 736.1144,-681.9601"/>
<polygon fill="#0000ff" stroke="#0000ff" points="737.9743,-684.9303 745,-677 734.5623,-678.8182 737.9743,-684.9303"/>
<text text-anchor="middle" x="566" y="-728.3" font-family="Times,serif" font-size="14.00" fill="#000000">2</text>
</g>
<!-- r3&#45;&gt;r3 -->
<g id="edge48" class="edge">
<title>r3:e&#45;&gt;r3:n</title>
<path fill="none" stroke="#000000" d="M1351,-534C1374.7411,-525 1422.7411,-525 1422.7411,-543 1422.7411,-560.0156 1319.8316,-560.9462 1259.9351,-553.3943"/>
<polygon fill="#000000" stroke="#000000" points="1260.3894,-549.9239 1250,-552 1259.4165,-556.8559 1260.3894,-549.9239"/>
</g>
<!-- r3&#45;&gt;r2 -->
<g id="edge49" class="edge">
<title>r3:e&#45;&gt;r2:n</title>
<path fill="none" stroke="#000000" d="M1351,-534C1404.412,-534 1580,-514.412 1580,-461 1580,-461 1580,-461 1580,-386.5 1580,-29.3111 2365.8192,-606.4403 2380.7835,-267.0436"/>
<polygon fill="#000000" stroke="#000000" points="2384.2836,-267.0731 2381,-257 2377.2852,-266.9222 2384.2836,-267.0731"/>
<text text-anchor="middle" x="2407" y="-260.8" font-family="Times,serif" font-size="14.00" fill="#000000">bounds</text>
</g>
<!-- initializerr22_1 -->
<!-- initializerr22_1&#45;&gt;r22 -->
<g id="edge33" class="edge">
<title>initializerr22_1&#45;&gt;r22:w</title>
<path fill="none" stroke="#0000ff" stroke-dasharray="1,5" d="M2398.9704,-998.9138C2385.8448,-979.8065 2363.663,-949.2796 2341,-926 2214.8443,-796.4119 2176.6986,-754.7522 2006,-695 1959.2428,-678.6329 1928.0766,-714.7521 1896,-677 1893.9766,-674.6185 1892.3132,-671.351 1891.5143,-668.253"/>
<polygon fill="#0000ff" stroke="#0000ff" points="1894.7871,-669.5252 1896,-659 1888.4882,-666.4716 1894.7871,-669.5252"/>
<text text-anchor="middle" x="2276" y="-844.8" font-family="Times,serif" font-size="14.00" fill="#000000">1</text>
</g>
<!-- r18&#45;&gt;r20 -->
<g id="edge36" class="edge">
<title>r18:e&#45;&gt;r20:ne</title>
<path fill="none" stroke="#000000" d="M2671,-732C2709.7278,-732 2788.4074,-720.6107 2564,-695 2527.983,-690.8895 2278.96,-702.6963 2223.7037,-681.9407"/>
<polygon fill="#000000" stroke="#000000" points="2225.4244,-678.8929 2215,-677 2221.9687,-684.9805 2225.4244,-678.8929"/>
<text text-anchor="middle" x="2241" y="-680.8" font-family="Times,serif" font-size="14.00" fill="#000000">control</text>
<text text-anchor="middle" x="2703" y="-735.8" font-family="Times,serif" font-size="14.00" fill="#000000">/right&#45;lte</text>
</g>
<!-- r18&#45;&gt;r18 -->
<g id="edge38" class="edge">
<title>r18:s&#45;&gt;r18:n</title>
<path fill="none" stroke="#000000" d="M2590,-714C2640.8643,-705 2742.5928,-705 2742.5928,-732 2742.5928,-757.3125 2653.183,-758.8945 2600.0959,-751.5776"/>
<polygon fill="#000000" stroke="#000000" points="2600.4205,-748.086 2590,-750 2599.3397,-755.002 2600.4205,-748.086"/>
<text text-anchor="middle" x="2602.5" y="-753.8" font-family="Times,serif" font-size="14.00" fill="#000000">left</text>
<text text-anchor="middle" x="2565.5" y="-702.8" font-family="Times,serif" font-size="14.00" fill="#000000">/left&#45;gt</text>
</g>
<!-- r18&#45;&gt;r23 -->
<g id="edge37" class="edge">
<title>r18:e&#45;&gt;r23:n</title>
<path fill="none" stroke="#000000" d="M2671,-732C2679,-732 2673.4591,-721.6127 2671,-714 2655.5871,-666.2856 2605,-672.642 2605,-622.5 2605,-622.5 2605,-622.5 2605,-534 2605,-513.375 2605,-505.8018 2605,-489.2554"/>
<polygon fill="#000000" stroke="#000000" points="2608.5001,-489 2605,-479 2601.5001,-489 2608.5001,-489"/>
<text text-anchor="middle" x="2624.5" y="-482.8" font-family="Times,serif" font-size="14.00" fill="#000000">value</text>
<text text-anchor="middle" x="2703" y="-720.8" font-family="Times,serif" font-size="14.00" fill="#000000">/right&#45;lte</text>
</g>
<!-- r19 -->
<g id="node33" class="node">
<title>r19</title>
<g id="a_node33"><a xlink:href="file:///home/travis/build/andrewdavidmackenzie/flow/flowstdlib/math/add/add.html" xlink:title="add (#19)">
<ellipse fill="#ff7f50" stroke="#000000" cx="2830" cy="-461" rx="57.3905" ry="18"/>
<text text-anchor="middle" x="2830" y="-457.3" font-family="Times,serif" font-size="14.00" fill="#000000">add (#19)</text>
</a>
</g>
</g>
<!-- r18&#45;&gt;r19 -->
<g id="edge39" class="edge">
<title>r18:e&#45;&gt;r19:n</title>
<path fill="none" stroke="#000000" d="M2671,-732C2703.6387,-732 2679,-691.6387 2679,-659 2679,-659 2679,-659 2679,-534 2679,-503.048 2709.2179,-508.3848 2738,-497 2754.0422,-490.6545 2806.6073,-496.7609 2824.2026,-487.2165"/>
<polygon fill="#000000" stroke="#000000" points="2827.0946,-489.1887 2830,-479 2821.375,-485.1531 2827.0946,-489.1887"/>
<text text-anchor="middle" x="2823" y="-482.8" font-family="Times,serif" font-size="14.00" fill="#000000">i1</text>
<text text-anchor="middle" x="2643.5" y="-735.8" font-family="Times,serif" font-size="14.00" fill="#000000">/right&#45;lt</text>
</g>
<!-- initializerr18_1 -->
<!-- initializerr18_1&#45;&gt;r18 -->
<g id="edge35" class="edge">
<title>initializerr18_1&#45;&gt;r18:ne</title>
<path fill="none" stroke="#0000ff" stroke-dasharray="1,5" d="M2639.2102,-999.0731C2633.5945,-984.5195 2627,-963.3168 2627,-944 2627,-944 2627,-944 2627,-805 2627,-788.4061 2628.4265,-783.2989 2622,-768 2619.7921,-762.744 2617.906,-759.9732 2615.4027,-757.2793"/>
<polygon fill="#0000ff" stroke="#0000ff" points="2617.5843,-754.5159 2608,-750 2612.6762,-759.507 2617.5843,-754.5159"/>
<text text-anchor="middle" x="2632" y="-877.8" font-family="Times,serif" font-size="14.00" fill="#000000">0</text>
</g>
<!-- r21 -->
<g id="node35" class="node">
<title>r21</title>
<g id="a_node35"><a xlink:href="file:///home/travis/build/andrewdavidmackenzie/flow/flowstdlib/data/enumerate/enumerate.html" xlink:title="enumerate (#21)">
<ellipse fill="#ff7f50" stroke="#000000" cx="2560" cy="-350" rx="90.1842" ry="18"/>
<text text-anchor="middle" x="2560" y="-346.3" font-family="Times,serif" font-size="14.00" fill="#000000">enumerate (#21)</text>
</a>
</g>
</g>
<!-- r23&#45;&gt;r21 -->
<g id="edge45" class="edge">
<title>r23:e&#45;&gt;r21:n</title>
<path fill="none" stroke="#000000" d="M2702,-461C2710,-461 2706.1298,-449.8516 2702,-443 2667.0986,-385.0957 2570.9007,-433.6385 2560.8518,-378.2526"/>
<polygon fill="#000000" stroke="#000000" points="2564.3161,-377.6758 2560,-368 2557.3401,-378.2555 2564.3161,-377.6758"/>
</g>
<!-- r19&#45;&gt;r18 -->
<g id="edge42" class="edge">
<title>r19:se&#45;&gt;r18:ne</title>
<path fill="none" stroke="#000000" d="M2847,-444C2847,-444 2887.1949,-479 2887.1949,-479 2856.9288,-546.2375 2809.5643,-531.8276 2763,-589 2710.8982,-652.9713 2741.9909,-708.6569 2670.5928,-750 2661.0008,-755.5543 2633.1946,-758.5021 2617.3172,-754.4935"/>
<polygon fill="#000000" stroke="#000000" points="2618.5276,-751.1915 2608,-750 2615.4868,-757.4966 2618.5276,-751.1915"/>
<text text-anchor="middle" x="2626" y="-753.8" font-family="Times,serif" font-size="14.00" fill="#000000">right</text>
<text text-anchor="middle" x="2829.5" y="-432.8" font-family="Times,serif" font-size="14.00" fill="#000000">/sum</text>
</g>
<!-- r19&#45;&gt;r19 -->
<g id="edge41" class="edge">
<title>r19:se&#45;&gt;r19:ne</title>
<path fill="none" stroke="#000000" d="M2847,-444C2890.065,-435 2959.1949,-435 2959.1949,-461 2959.1949,-485.0703 2899.9457,-486.8568 2856.9805,-479.8482"/>
<polygon fill="#000000" stroke="#000000" points="2857.4702,-476.3795 2847,-478 2856.1955,-483.2625 2857.4702,-476.3795"/>
<text text-anchor="middle" x="2840" y="-481.8" font-family="Times,serif" font-size="14.00" fill="#000000">i2</text>
<text text-anchor="middle" x="2856.5" y="-432.8" font-family="Times,serif" font-size="14.00" fill="#000000">/i2</text>
</g>
<!-- initializerr19_1 -->
<!-- initializerr19_1&#45;&gt;r19 -->
<g id="edge40" class="edge">
<title>initializerr19_1&#45;&gt;r19:w</title>
<path fill="none" stroke="#0000ff" stroke-dasharray="1,5" d="M2833.4377,-713.7981C2807.5379,-657.7836 2733.5699,-490.2045 2763.155,-464.3621"/>
<polygon fill="#0000ff" stroke="#0000ff" points="2764.6678,-467.544 2773,-461 2762.4055,-460.9197 2764.6678,-467.544"/>
<text text-anchor="middle" x="2791" y="-592.8" font-family="Times,serif" font-size="14.00" fill="#000000">1</text>
</g>
<!-- r21&#45;&gt;r2 -->
<g id="edge46" class="edge">
<title>r21:e&#45;&gt;r2:ne</title>
<path fill="none" stroke="#000000" d="M2651,-350C2659,-350 2655.7743,-338.4192 2651,-332 2582.9853,-240.5515 2486.8488,-333.2565 2405.339,-262.8318"/>
<polygon fill="#000000" stroke="#000000" points="2407.7043,-260.2518 2398,-256 2402.9347,-265.3755 2407.7043,-260.2518"/>
<text text-anchor="middle" x="2415.5" y="-244.8" font-family="Times,serif" font-size="14.00" fill="#000000">pixel</text>
</g>
<!-- r5 -->
<g id="node37" class="node">
<title>r5</title>
<g id="a_node37"><a xlink:href="file:///home/travis/build/andrewdavidmackenzie/flow/samples/mandlebrot/render_pixel/render_pixel.html" xlink:title="p2v (#5)">
<ellipse fill="#ff7f50" stroke="#000000" cx="2433" cy="-145" rx="51.1914" ry="18"/>
<text text-anchor="middle" x="2433" y="-141.3" font-family="Times,serif" font-size="14.00" fill="#000000">p2v (#5)</text>
</a>
</g>
</g>
<!-- r2&#45;&gt;r5 -->
<g id="edge47" class="edge">
<title>r2:e&#45;&gt;r5:n</title>
<path fill="none" stroke="#000000" d="M2433,-239C2463.4792,-239 2438.953,-204.6216 2433.872,-173.0902"/>
<polygon fill="#000000" stroke="#000000" points="2437.3481,-172.6615 2433,-163 2430.3741,-173.2642 2437.3481,-172.6615"/>
<text text-anchor="middle" x="2393.5" y="-166.8" font-family="Times,serif" font-size="14.00" fill="#000000">pixel_point</text>
</g>
<!-- r5&#45;&gt;r6 -->
<g id="edge52" class="edge">
<title>r5:s&#45;&gt;r6:n</title>
<path fill="none" stroke="#000000" d="M2433,-127C2433,-96.4695 2447.2778,-88.0217 2450.4011,-62.3218"/>
<polygon fill="#000000" stroke="#000000" points="2453.9148,-62.186 2451,-52 2446.9265,-61.7804 2453.9148,-62.186"/>
<text text-anchor="middle" x="2468.5" y="-55.8" font-family="Times,serif" font-size="14.00" fill="#000000">pixel</text>
<text text-anchor="middle" x="2426" y="-115.8" font-family="Times,serif" font-size="14.00" fill="#000000">/0</text>
</g>
<!-- r5&#45;&gt;r6 -->
<g id="edge53" class="edge">
<title>r5:sw&#45;&gt;r6:ne</title>
<path fill="none" stroke="#000000" d="M2416,-128C2389.9524,-101.9524 2476.2159,-84.9918 2473.8589,-60.861"/>
<polygon fill="#000000" stroke="#000000" points="2476.877,-59.0855 2469,-52 2470.7392,-62.4511 2476.877,-59.0855"/>
<text text-anchor="middle" x="2488.5" y="-55.8" font-family="Times,serif" font-size="14.00" fill="#000000">value</text>
<text text-anchor="middle" x="2409" y="-116.8" font-family="Times,serif" font-size="14.00" fill="#000000">/1</text>
</g>
</g>
</svg>
