<?xml version="1.0" encoding="UTF-8" standalone="no"?>
<!DOCTYPE svg PUBLIC "-//W3C//DTD SVG 1.1//EN"
 "http://www.w3.org/Graphics/SVG/1.1/DTD/svg11.dtd">
<!-- Generated by graphviz version 2.40.1 (20161225.0304)
 -->
<!-- Title: generate_pixels Pages: 1 -->
<svg width="577pt" height="792pt"
 viewBox="28.80 28.80 547.97 763.02" xmlns="http://www.w3.org/2000/svg" xmlns:xlink="http://www.w3.org/1999/xlink">
<g id="page0,1_graph0" class="graph" transform="scale(1 1) rotate(0) translate(32.8 759.0203)">
<title>generate_pixels</title>
<polygon fill="#ffffff" stroke="transparent" points="-4,4 -4,-730.2203 515.1741,-730.2203 515.1741,4 -4,4"/>
<text text-anchor="middle" x="255.5871" y="-711.0203" font-family="Times,serif" font-size="14.00" fill="#000000">generate_pixels</text>
<!-- /mandlebrot/generate_pixels/size -->
<g id="node1" class="node">
<title>/mandlebrot/generate_pixels/size</title>
<polygon fill="#ffffff" stroke="#000000" points="282.9726,-690.7827 247.7751,-703.2203 212.5777,-690.7827 212.6105,-670.658 282.9398,-670.658 282.9726,-690.7827"/>
<text text-anchor="middle" x="247.7751" y="-681.5203" font-family="Times,serif" font-size="14.00" fill="#000000">size</text>
</g>
<!-- /mandlebrot/generate_pixels/height -->
<g id="node3" class="node">
<title>/mandlebrot/generate_pixels/height</title>
<g id="a_node3"><a xlink:href="../../flowstdlib/math/subtract/subtract.html" xlink:title="height\n(subtract)">
<ellipse fill="#ff7f50" stroke="#000000" cx="309.7751" cy="-535.3503" rx="62.4516" ry="26.7407"/>
<text text-anchor="middle" x="309.7751" y="-539.1503" font-family="Times,serif" font-size="14.00" fill="#000000">height</text>
<text text-anchor="middle" x="309.7751" y="-524.1503" font-family="Times,serif" font-size="14.00" fill="#000000">(subtract)</text>
</a>
</g>
</g>
<!-- /mandlebrot/generate_pixels/size&#45;&gt;/mandlebrot/generate_pixels/height -->
<g id="edge2" class="edge">
<title>/mandlebrot/generate_pixels/size:s&#45;&gt;/mandlebrot/generate_pixels/height:ne</title>
<path fill="none" stroke="#000000" d="M247.7751,-670.2203C247.7751,-618.454 444.8597,-687.439 479.7751,-649.2203 548.326,-574.1842 434.5536,-649.6358 342.225,-567.3857"/>
<polygon fill="#000000" stroke="#000000" points="344.4487,-564.6716 334.7751,-560.3503 339.6425,-569.7609 344.4487,-564.6716"/>
<text text-anchor="middle" x="269.1012" y="-654.2757" font-family="Times,serif" font-size="14.00" fill="#000000">[1]</text>
<text text-anchor="middle" x="327.7751" y="-564.1503" font-family="Times,serif" font-size="14.00" fill="#000000">i1</text>
</g>
<!-- /mandlebrot/generate_pixels/width&#45;gate -->
<g id="node6" class="node">
<title>/mandlebrot/generate_pixels/width&#45;gate</title>
<g id="a_node6"><a xlink:href="../../flowstdlib/control/join/join.html" xlink:title="width&#45;gate\n(join)">
<ellipse fill="#ff7f50" stroke="#000000" cx="129.7751" cy="-263.6102" rx="65.5227" ry="26.7407"/>
<text text-anchor="middle" x="129.7751" y="-267.4102" font-family="Times,serif" font-size="14.00" fill="#000000">width&#45;gate</text>
<text text-anchor="middle" x="129.7751" y="-252.4102" font-family="Times,serif" font-size="14.00" fill="#000000">(join)</text>
</a>
</g>
</g>
<!-- /mandlebrot/generate_pixels/size&#45;&gt;/mandlebrot/generate_pixels/width&#45;gate -->
<g id="edge5" class="edge">
<title>/mandlebrot/generate_pixels/size:s&#45;&gt;/mandlebrot/generate_pixels/width&#45;gate:nw</title>
<path fill="none" stroke="#000000" d="M247.7751,-670.2203C247.7751,-618.454 54.7404,-683.3005 15.7751,-649.2203 -5.3254,-630.7652 1.7751,-615.753 1.7751,-587.7203 1.7751,-587.7203 1.7751,-587.7203 1.7751,-399.4802 1.7751,-335.6373 51.7285,-335.9518 97.4772,-295.4731"/>
<polygon fill="#000000" stroke="#000000" points="99.8879,-298.0105 104.7751,-288.6102 95.0925,-292.9111 99.8879,-298.0105"/>
<text text-anchor="middle" x="175.2045" y="-653.5818" font-family="Times,serif" font-size="14.00" fill="#000000">[0]</text>
<text text-anchor="middle" x="88.7751" y="-292.4102" font-family="Times,serif" font-size="14.00" fill="#000000">data</text>
</g>
<!-- /mandlebrot/generate_pixels/pixels -->
<g id="node2" class="node">
<title>/mandlebrot/generate_pixels/pixels</title>
<polygon fill="#000000" stroke="#000000" points="416.4769,-12.4377 463.7751,0 511.0734,-12.4377 511.0292,-32.5623 416.5211,-32.5623 416.4769,-12.4377"/>
<text text-anchor="middle" x="463.7751" y="-14.3" font-family="Times,serif" font-size="14.00" fill="#ffffff">pixels</text>
</g>
<!-- /mandlebrot/generate_pixels/y&#45;sequence -->
<g id="node5" class="node">
<title>/mandlebrot/generate_pixels/y&#45;sequence</title>
<g id="a_node5"><a xlink:href="lib://flowstdlib/math/sequence.dot.svg" xlink:title="y&#45;sequence">
<ellipse fill="#7fffd4" stroke="#000000" cx="268.7751" cy="-399.4802" rx="72" ry="72"/>
<text text-anchor="middle" x="268.7751" y="-395.7802" font-family="Times,serif" font-size="14.00" fill="#000000">y&#45;sequence</text>
</a>
</g>
</g>
<!-- /mandlebrot/generate_pixels/height&#45;&gt;/mandlebrot/generate_pixels/y&#45;sequence -->
<g id="edge3" class="edge">
<title>/mandlebrot/generate_pixels/height:e&#45;&gt;/mandlebrot/generate_pixels/y&#45;sequence:n</title>
<path fill="none" stroke="#000000" d="M371.7751,-535.3503C383.7174,-535.3503 378.6455,-518.2483 371.7751,-508.4802 346.0873,-471.9576 280.7661,-512.2984 270.2222,-481.5361"/>
<polygon fill="#000000" stroke="#000000" points="273.6638,-480.8797 268.7751,-471.4802 266.7352,-481.8768 273.6638,-480.8797"/>
<text text-anchor="middle" x="307.2436" y="-496.3119" font-family="Times,serif" font-size="14.00" fill="#000000">diff</text>
<text text-anchor="middle" x="255.2751" y="-475.2802" font-family="Times,serif" font-size="14.00" fill="#000000">end</text>
</g>
<!-- initializer/mandlebrot/generate_pixels/height_1 -->
<!-- initializer/mandlebrot/generate_pixels/height_1&#45;&gt;/mandlebrot/generate_pixels/height -->
<g id="edge1" class="edge">
<title>initializer/mandlebrot/generate_pixels/height_1&#45;&gt;/mandlebrot/generate_pixels/height:w</title>
<path fill="none" stroke="#0000ff" stroke-dasharray="1,5" d="M240.6697,-613.1879C232.0201,-589.1051 220.5598,-548.2559 237.7486,-537.8302"/>
<polygon fill="#0000ff" stroke="#0000ff" points="238.908,-541.1489 247.7751,-535.3503 237.2273,-534.3537 238.908,-541.1489"/>
<text text-anchor="middle" x="238.7751" y="-584.0203" font-family="Times,serif" font-size="14.00" fill="#000000">1</text>
</g>
<!-- /mandlebrot/generate_pixels/y&#45;sequence&#45;&gt;/mandlebrot/generate_pixels/width&#45;gate -->
<g id="edge4" class="edge">
<title>/mandlebrot/generate_pixels/y&#45;sequence:s&#45;&gt;/mandlebrot/generate_pixels/width&#45;gate:nw</title>
<path fill="none" stroke="#000000" d="M268.7751,-327.4802C268.7751,-296.3173 136.9076,-308.4369 107.863,-298.1328"/>
<polygon fill="#000000" stroke="#000000" points="111.1891,-297.0429 104.7751,-288.6102 104.5304,-299.2022 111.1891,-297.0429"/>
<text text-anchor="middle" x="152.6763" y="-308.141" font-family="Times,serif" font-size="14.00" fill="#000000">sequence</text>
<text text-anchor="middle" x="130.7751" y="-292.4102" font-family="Times,serif" font-size="14.00" fill="#000000">control</text>
</g>
<!-- /mandlebrot/generate_pixels/y&#45;duplicator -->
<g id="node7" class="node">
<title>/mandlebrot/generate_pixels/y&#45;duplicator</title>
<g id="a_node7"><a xlink:href="../../flowstdlib/data/duplicate/duplicate.html" xlink:title="y&#45;duplicator\n(duplicate)">
<ellipse fill="#ff7f50" stroke="#000000" cx="268.7751" cy="-172.8701" rx="72.6644" ry="26.7407"/>
<text text-anchor="middle" x="268.7751" y="-176.6701" font-family="Times,serif" font-size="14.00" fill="#000000">y&#45;duplicator</text>
<text text-anchor="middle" x="268.7751" y="-161.6701" font-family="Times,serif" font-size="14.00" fill="#000000">(duplicate)</text>
</a>
</g>
</g>
<!-- /mandlebrot/generate_pixels/y&#45;sequence&#45;&gt;/mandlebrot/generate_pixels/y&#45;duplicator -->
<g id="edge7" class="edge">
<title>/mandlebrot/generate_pixels/y&#45;sequence:s&#45;&gt;/mandlebrot/generate_pixels/y&#45;duplicator:n</title>
<path fill="none" stroke="#000000" d="M268.7751,-327.4802C268.7751,-274.2552 268.7751,-258.454 268.7751,-209.9069"/>
<polygon fill="#000000" stroke="#000000" points="272.2752,-209.7401 268.7751,-199.7401 265.2752,-209.7401 272.2752,-209.7401"/>
<text text-anchor="middle" x="234.7751" y="-267.2283" font-family="Times,serif" font-size="14.00" fill="#000000">sequence</text>
<text text-anchor="middle" x="249.2751" y="-203.5401" font-family="Times,serif" font-size="14.00" fill="#000000">value</text>
</g>
<!-- /mandlebrot/generate_pixels/width&#45;gate&#45;&gt;/mandlebrot/generate_pixels/width&#45;gate -->
<g id="edge6" class="edge">
<title>/mandlebrot/generate_pixels/width&#45;gate:e&#45;&gt;/mandlebrot/generate_pixels/width&#45;gate:nw</title>
<path fill="none" stroke="#000000" d="M195.7751,-263.6102C213.5361,-279.9002 213.5361,-312.4802 150.2751,-312.4802 99.8641,-312.4802 89.6243,-303.1668 96.5318,-294.726"/>
<polygon fill="#000000" stroke="#000000" points="98.8295,-297.3795 104.7751,-288.6102 94.6586,-291.7577 98.8295,-297.3795"/>
<text text-anchor="middle" x="88.7751" y="-277.4102" font-family="Times,serif" font-size="14.00" fill="#000000">data</text>
</g>
<!-- /mandlebrot/generate_pixels/width&#45;gate&#45;&gt;/mandlebrot/generate_pixels/y&#45;duplicator -->
<g id="edge8" class="edge">
<title>/mandlebrot/generate_pixels/width&#45;gate:e&#45;&gt;/mandlebrot/generate_pixels/y&#45;duplicator:w</title>
<path fill="none" stroke="#000000" d="M195.7751,-263.6102C231.378,-263.6102 172.6889,-192.8911 186.1921,-176.3164"/>
<polygon fill="#000000" stroke="#000000" points="187.5496,-179.5477 195.7751,-172.8701 185.1807,-172.9607 187.5496,-179.5477"/>
<text text-anchor="middle" x="174.2751" y="-176.6701" font-family="Times,serif" font-size="14.00" fill="#000000">factor</text>
</g>
<!-- /mandlebrot/generate_pixels/enumerate -->
<g id="node8" class="node">
<title>/mandlebrot/generate_pixels/enumerate</title>
<g id="a_node8"><a xlink:href="../../flowstdlib/data/enumerate/enumerate.html" xlink:title="enumerate">
<ellipse fill="#ff7f50" stroke="#000000" cx="402.7751" cy="-91" rx="61.1893" ry="18"/>
<text text-anchor="middle" x="402.7751" y="-87.3" font-family="Times,serif" font-size="14.00" fill="#000000">enumerate</text>
</a>
</g>
</g>
<!-- /mandlebrot/generate_pixels/y&#45;duplicator&#45;&gt;/mandlebrot/generate_pixels/enumerate -->
<g id="edge9" class="edge">
<title>/mandlebrot/generate_pixels/y&#45;duplicator:e&#45;&gt;/mandlebrot/generate_pixels/enumerate:w</title>
<path fill="none" stroke="#000000" d="M341.7751,-172.8701C373.3292,-172.8701 322.7934,-111.3026 332.5423,-94.9488"/>
<polygon fill="#000000" stroke="#000000" points="333.9571,-98.1504 341.7751,-91 331.2044,-91.7144 333.9571,-98.1504"/>
</g>
<!-- /mandlebrot/generate_pixels/enumerate&#45;&gt;/mandlebrot/generate_pixels/pixels -->
<g id="edge10" class="edge">
<title>/mandlebrot/generate_pixels/enumerate:e&#45;&gt;/mandlebrot/generate_pixels/pixels:n</title>
<path fill="none" stroke="#000000" d="M463.7751,-91C486.23,-91 469.5643,-66.5496 464.8945,-43.2072"/>
<polygon fill="#000000" stroke="#000000" points="468.3445,-42.5588 463.7751,-33 461.3862,-43.322 468.3445,-42.5588"/>
</g>
</g>
</svg>
