<?xml version="1.0" encoding="UTF-8" standalone="no"?>
<!DOCTYPE svg PUBLIC "-//W3C//DTD SVG 1.1//EN"
 "http://www.w3.org/Graphics/SVG/1.1/DTD/svg11.dtd">
<!-- Generated by graphviz version 2.44.1 (20200629.0846)
 -->
<!-- Title: generate_pixels Pages: 1 -->
<svg width="469pt" height="792pt"
 viewBox="28.80 28.80 440.56 763.02" xmlns="http://www.w3.org/2000/svg" xmlns:xlink="http://www.w3.org/1999/xlink">
<g id="graph0" class="graph" transform="scale(1 1) rotate(0) translate(32.8 759.02)">
<title>generate_pixels</title>
<polygon fill="white" stroke="transparent" points="-4,4 -4,-730.22 407.76,-730.22 407.76,4 -4,4"/>
<text text-anchor="middle" x="201.88" y="-711.02" font-family="Times,serif" font-size="14.00">generate_pixels</text>
<!-- /mandlebrot/generate_pixels/size -->
<g id="node1" class="node">
<title>/mandlebrot/generate_pixels/size</title>
<polygon fill="white" stroke="black" points="239.56,-690.78 209,-703.22 178.44,-690.78 178.47,-670.66 239.53,-670.66 239.56,-690.78"/>
<text text-anchor="middle" x="209" y="-681.52" font-family="Times,serif" font-size="14.00">size</text>
</g>
<!-- /mandlebrot/generate_pixels/height -->
<g id="node3" class="node">
<title>/mandlebrot/generate_pixels/height</title>
<g id="a_node3"><a xlink:href="../../flowstdlib/math/subtract/subtract.html" xlink:title="height\n(subtract)">
<ellipse fill="coral" stroke="black" cx="258" cy="-535.35" rx="48.17" ry="26.74"/>
<text text-anchor="middle" x="258" y="-539.15" font-family="Times,serif" font-size="14.00">height</text>
<text text-anchor="middle" x="258" y="-524.15" font-family="Times,serif" font-size="14.00">(subtract)</text>
</a>
</g>
</g>
<!-- /mandlebrot/generate_pixels/size&#45;&gt;/mandlebrot/generate_pixels/height -->
<g id="edge2" class="edge">
<title>/mandlebrot/generate_pixels/size:s&#45;&gt;/mandlebrot/generate_pixels/height:ne</title>
<path fill="none" stroke="black" d="M209,-669.22C209,-629.2 361.32,-679.05 388,-649.22 443.05,-587.68 334.71,-596.42 290.02,-566.81"/>
<polygon fill="black" stroke="black" points="291.98,-563.9 282,-560.35 287.59,-569.35 291.98,-563.9"/>
<text text-anchor="middle" x="236.94" y="-656.66" font-family="Times,serif" font-size="14.00">[1]</text>
<text text-anchor="middle" x="276.5" y="-564.15" font-family="Times,serif" font-size="14.00">i1</text>
</g>
<!-- /mandlebrot/generate_pixels/width&#45;gate -->
<g id="node6" class="node">
<title>/mandlebrot/generate_pixels/width&#45;gate</title>
<g id="a_node6"><a xlink:href="../../flowstdlib/control/join/join.html" xlink:title="width&#45;gate\n(join)">
<ellipse fill="coral" stroke="black" cx="79" cy="-263.61" rx="52.15" ry="26.74"/>
<text text-anchor="middle" x="79" y="-267.41" font-family="Times,serif" font-size="14.00">width&#45;gate</text>
<text text-anchor="middle" x="79" y="-252.41" font-family="Times,serif" font-size="14.00">(join)</text>
</a>
</g>
</g>
<!-- /mandlebrot/generate_pixels/size&#45;&gt;/mandlebrot/generate_pixels/width&#45;gate -->
<g id="edge5" class="edge">
<title>/mandlebrot/generate_pixels/size:s&#45;&gt;/mandlebrot/generate_pixels/width&#45;gate:nw</title>
<path fill="none" stroke="black" d="M209,-669.22C209,-629.2 59.9,-675.83 30,-649.22 9.38,-630.87 16,-616.32 16,-588.72 16,-588.72 16,-588.72 16,-398.48 16,-350.31 18.04,-328.41 47.77,-296.13"/>
<polygon fill="black" stroke="black" points="50.59,-298.24 55,-288.61 45.55,-293.39 50.59,-298.24"/>
<text text-anchor="middle" x="8" y="-402.28" font-family="Times,serif" font-size="14.00">[0]</text>
<text text-anchor="middle" x="43.5" y="-292.41" font-family="Times,serif" font-size="14.00">data</text>
</g>
<!-- /mandlebrot/generate_pixels/pixels -->
<g id="node2" class="node">
<title>/mandlebrot/generate_pixels/pixels</title>
<polygon fill="black" stroke="black" points="308.77,-12.44 348,0 387.23,-12.44 387.19,-32.56 308.81,-32.56 308.77,-12.44"/>
<text text-anchor="middle" x="348" y="-14.3" font-family="Times,serif" font-size="14.00" fill="white">pixels</text>
</g>
<!-- /mandlebrot/generate_pixels/y&#45;sequence -->
<g id="node5" class="node">
<title>/mandlebrot/generate_pixels/y&#45;sequence</title>
<g id="a_node5"><a xlink:href="lib://flowstdlib/math/sequence.dot.svg" xlink:title="y&#45;sequence">
<ellipse fill="aquamarine" stroke="black" cx="191" cy="-399.48" rx="72" ry="72"/>
<text text-anchor="middle" x="191" y="-395.78" font-family="Times,serif" font-size="14.00">y&#45;sequence</text>
</a>
</g>
</g>
<!-- /mandlebrot/generate_pixels/height&#45;&gt;/mandlebrot/generate_pixels/y&#45;sequence -->
<g id="edge3" class="edge">
<title>/mandlebrot/generate_pixels/height:e&#45;&gt;/mandlebrot/generate_pixels/y&#45;sequence:n</title>
<path fill="none" stroke="black" d="M308,-535.35C319.95,-535.35 314.23,-518 307,-508.48 276.7,-468.59 203.08,-517.23 192.32,-481.73"/>
<polygon fill="black" stroke="black" points="195.75,-480.95 191,-471.48 188.81,-481.85 195.75,-480.95"/>
<text text-anchor="middle" x="238.45" y="-496.58" font-family="Times,serif" font-size="14.00">diff</text>
<text text-anchor="middle" x="181" y="-475.28" font-family="Times,serif" font-size="14.00">end</text>
</g>
<!-- initializer/mandlebrot/generate_pixels/height_1 -->
<!-- initializer/mandlebrot/generate_pixels/height_1&#45;&gt;/mandlebrot/generate_pixels/height -->
<g id="edge1" class="edge">
<title>initializer/mandlebrot/generate_pixels/height_1&#45;&gt;/mandlebrot/generate_pixels/height:w</title>
<path fill="none" stroke="blue" stroke-dasharray="1,5" d="M201.94,-612.82C193.12,-589.07 181.12,-548.25 198.06,-537.83"/>
<polygon fill="blue" stroke="blue" points="199.14,-541.17 208,-535.35 197.45,-534.38 199.14,-541.17"/>
<text text-anchor="middle" x="198.5" y="-584.02" font-family="Times,serif" font-size="14.00">1</text>
</g>
<!-- /mandlebrot/generate_pixels/y&#45;sequence&#45;&gt;/mandlebrot/generate_pixels/width&#45;gate -->
<g id="edge4" class="edge">
<title>/mandlebrot/generate_pixels/y&#45;sequence:s&#45;&gt;/mandlebrot/generate_pixels/width&#45;gate:nw</title>
<path fill="none" stroke="black" d="M191,-327.48C191,-301.94 86.55,-306.92 59.3,-297.76"/>
<polygon fill="black" stroke="black" points="62.42,-296.17 55,-288.61 56.08,-299.15 62.42,-296.17"/>
<text text-anchor="middle" x="98.48" y="-309.14" font-family="Times,serif" font-size="14.00">sequence</text>
<text text-anchor="middle" x="74.5" y="-292.41" font-family="Times,serif" font-size="14.00">control</text>
</g>
<!-- /mandlebrot/generate_pixels/y&#45;duplicator -->
<g id="node7" class="node">
<title>/mandlebrot/generate_pixels/y&#45;duplicator</title>
<g id="a_node7"><a xlink:href="../../flowstdlib/data/duplicate/duplicate.html" xlink:title="y&#45;duplicator\n(duplicate)">
<ellipse fill="coral" stroke="black" cx="191" cy="-172.87" rx="58.88" ry="26.74"/>
<text text-anchor="middle" x="191" y="-176.67" font-family="Times,serif" font-size="14.00">y&#45;duplicator</text>
<text text-anchor="middle" x="191" y="-161.67" font-family="Times,serif" font-size="14.00">(duplicate)</text>
</a>
</g>
</g>
<!-- /mandlebrot/generate_pixels/y&#45;sequence&#45;&gt;/mandlebrot/generate_pixels/y&#45;duplicator -->
<g id="edge7" class="edge">
<title>/mandlebrot/generate_pixels/y&#45;sequence:s&#45;&gt;/mandlebrot/generate_pixels/y&#45;duplicator:n</title>
<path fill="none" stroke="black" d="M191,-327.48C191,-274.26 191,-258.45 191,-209.91"/>
<polygon fill="black" stroke="black" points="194.5,-209.74 191,-199.74 187.5,-209.74 194.5,-209.74"/>
<text text-anchor="middle" x="166" y="-267.23" font-family="Times,serif" font-size="14.00">sequence</text>
<text text-anchor="middle" x="176" y="-203.54" font-family="Times,serif" font-size="14.00">value</text>
</g>
<!-- /mandlebrot/generate_pixels/width&#45;gate&#45;&gt;/mandlebrot/generate_pixels/width&#45;gate -->
<g id="edge6" class="edge">
<title>/mandlebrot/generate_pixels/width&#45;gate:e&#45;&gt;/mandlebrot/generate_pixels/width&#45;gate:nw</title>
<path fill="none" stroke="black" d="M132,-263.61C149.33,-279.9 149.33,-312.48 93.5,-312.48 48.58,-312.48 39.8,-302.98 47.12,-293.96"/>
<polygon fill="black" stroke="black" points="49.41,-296.61 55,-287.61 45.02,-291.16 49.41,-296.61"/>
<text text-anchor="middle" x="43.5" y="-276.41" font-family="Times,serif" font-size="14.00">data</text>
</g>
<!-- /mandlebrot/generate_pixels/width&#45;gate&#45;&gt;/mandlebrot/generate_pixels/y&#45;duplicator -->
<g id="edge8" class="edge">
<title>/mandlebrot/generate_pixels/width&#45;gate:e&#45;&gt;/mandlebrot/generate_pixels/y&#45;duplicator:w</title>
<path fill="none" stroke="black" d="M133,-263.61C168.61,-263.61 108.35,-192.89 121.49,-176.32"/>
<polygon fill="black" stroke="black" points="122.79,-179.57 131,-172.87 120.41,-172.99 122.79,-179.57"/>
<text text-anchor="middle" x="115" y="-176.67" font-family="Times,serif" font-size="14.00">factor</text>
</g>
<!-- /mandlebrot/generate_pixels/enumerate -->
<g id="node8" class="node">
<title>/mandlebrot/generate_pixels/enumerate</title>
<g id="a_node8"><a xlink:href="../../flowstdlib/data/enumerate/enumerate.html" xlink:title="enumerate">
<ellipse fill="coral" stroke="black" cx="299" cy="-91" rx="48.19" ry="18"/>
<text text-anchor="middle" x="299" y="-87.3" font-family="Times,serif" font-size="14.00">enumerate</text>
</a>
</g>
</g>
<!-- /mandlebrot/generate_pixels/y&#45;duplicator&#45;&gt;/mandlebrot/generate_pixels/enumerate -->
<g id="edge9" class="edge">
<title>/mandlebrot/generate_pixels/y&#45;duplicator:e&#45;&gt;/mandlebrot/generate_pixels/enumerate:w</title>
<path fill="none" stroke="black" d="M251,-172.87C282.28,-172.87 231.44,-112.41 239.62,-95.4"/>
<polygon fill="black" stroke="black" points="241.43,-98.42 249,-91 238.46,-92.08 241.43,-98.42"/>
</g>
<!-- /mandlebrot/generate_pixels/enumerate&#45;&gt;/mandlebrot/generate_pixels/pixels -->
<g id="edge10" class="edge">
<title>/mandlebrot/generate_pixels/enumerate:e&#45;&gt;/mandlebrot/generate_pixels/pixels:n</title>
<path fill="none" stroke="black" d="M349,-91C371.07,-91 353.93,-66.97 349.15,-44.03"/>
<polygon fill="black" stroke="black" points="352.61,-43.54 348,-34 345.66,-44.33 352.61,-43.54"/>
</g>
</g>
</svg>
