<?xml version="1.0" encoding="UTF-8" standalone="no"?>
<!DOCTYPE svg PUBLIC "-//W3C//DTD SVG 1.1//EN"
 "http://www.w3.org/Graphics/SVG/1.1/DTD/svg11.dtd">
<!-- Generated by graphviz version 2.44.1 (20200629.0846)
 -->
<!-- Title: parse_args Pages: 1 -->
<svg width="3586pt" height="620pt"
 viewBox="28.80 28.80 3556.85 591.50" xmlns="http://www.w3.org/2000/svg" xmlns:xlink="http://www.w3.org/1999/xlink">
<g id="graph0" class="graph" transform="scale(1 1) rotate(0) translate(32.8 587.5)">
<title>parse_args</title>
<polygon fill="white" stroke="transparent" points="-4,4 -4,-558.7 3524.05,-558.7 3524.05,4 -4,4"/>
<text text-anchor="middle" x="1760.02" y="-539.5" font-family="Times,serif" font-size="14.00">parse_args</text>
<!-- /mandlebrot/parse_args/filename -->
<g id="node1" class="node">
<title>/mandlebrot/parse_args/filename</title>
<polygon fill="black" stroke="black" points="0.08,-12.44 51.42,0 102.75,-12.44 102.7,-32.56 0.13,-32.56 0.08,-12.44"/>
<text text-anchor="middle" x="51.42" y="-14.3" font-family="Times,serif" font-size="14.00" fill="white">filename</text>
</g>
<!-- /mandlebrot/parse_args/size -->
<g id="node2" class="node">
<title>/mandlebrot/parse_args/size</title>
<polygon fill="black" stroke="black" points="407.86,-12.44 438.42,0 468.97,-12.44 468.94,-32.56 407.89,-32.56 407.86,-12.44"/>
<text text-anchor="middle" x="438.42" y="-14.3" font-family="Times,serif" font-size="14.00" fill="white">size</text>
</g>
<!-- /mandlebrot/parse_args/bounds -->
<g id="node3" class="node">
<title>/mandlebrot/parse_args/bounds</title>
<polygon fill="black" stroke="black" points="2798.44,-12.44 2843.42,0 2888.39,-12.44 2888.35,-32.56 2798.48,-32.56 2798.44,-12.44"/>
<text text-anchor="middle" x="2843.42" y="-14.3" font-family="Times,serif" font-size="14.00" fill="white">bounds</text>
</g>
<!-- /mandlebrot/parse_args/args -->
<g id="node4" class="node">
<title>/mandlebrot/parse_args/args</title>
<g id="a_node4"><a xlink:href="../../flowr/src/lib/flowruntime/args/get.html" xlink:title="args\n(get)">
<ellipse fill="coral" stroke="black" cx="110.42" cy="-504.83" rx="29.9" ry="26.74"/>
<text text-anchor="middle" x="110.42" y="-508.63" font-family="Times,serif" font-size="14.00">args</text>
<text text-anchor="middle" x="110.42" y="-493.63" font-family="Times,serif" font-size="14.00">(get)</text>
</a>
</g>
</g>
<!-- /mandlebrot/parse_args/args&#45;&gt;/mandlebrot/parse_args/filename -->
<g id="edge12" class="edge">
<title>/mandlebrot/parse_args/args:e&#45;&gt;/mandlebrot/parse_args/filename:n</title>
<path fill="none" stroke="black" d="M141.42,-504.83C153.37,-504.83 145.59,-488.73 140.42,-477.96 117.79,-430.85 51.42,-453.36 51.42,-401.09 51.42,-401.09 51.42,-401.09 51.42,-98.87 51.42,-73.76 51.42,-65.05 51.42,-44.16"/>
<polygon fill="black" stroke="black" points="54.92,-44 51.42,-34 47.92,-44 54.92,-44"/>
<text text-anchor="middle" x="27.92" y="-367.11" font-family="Times,serif" font-size="14.00">string[1]</text>
</g>
<!-- /mandlebrot/parse_args/split_size -->
<g id="node5" class="node">
<title>/mandlebrot/parse_args/split_size</title>
<g id="a_node5"><a xlink:href="../../flowstdlib/data/ordered_split/ordered_split.html" xlink:title="split_size\n(ordered_split)">
<ellipse fill="coral" stroke="black" cx="209.42" cy="-400.09" rx="68.68" ry="26.74"/>
<text text-anchor="middle" x="209.42" y="-403.89" font-family="Times,serif" font-size="14.00">split_size</text>
<text text-anchor="middle" x="209.42" y="-388.89" font-family="Times,serif" font-size="14.00">(ordered_split)</text>
</a>
</g>
</g>
<!-- /mandlebrot/parse_args/args&#45;&gt;/mandlebrot/parse_args/split_size -->
<g id="edge13" class="edge">
<title>/mandlebrot/parse_args/args:e&#45;&gt;/mandlebrot/parse_args/split_size:w</title>
<path fill="none" stroke="black" d="M141.42,-504.83C160.79,-504.83 130.42,-432.32 133.08,-407.96"/>
<polygon fill="black" stroke="black" points="135.88,-410.08 139.42,-400.09 130.42,-405.69 135.88,-410.08"/>
<text text-anchor="middle" x="116.9" y="-456.18" font-family="Times,serif" font-size="14.00">string[2]</text>
<text text-anchor="middle" x="123.92" y="-403.89" font-family="Times,serif" font-size="14.00">string</text>
</g>
<!-- /mandlebrot/parse_args/split_upper_left -->
<g id="node11" class="node">
<title>/mandlebrot/parse_args/split_upper_left</title>
<g id="a_node11"><a xlink:href="../../flowstdlib/data/ordered_split/ordered_split.html" xlink:title="split_upper_left\n(ordered_split)">
<ellipse fill="coral" stroke="black" cx="906.42" cy="-400.09" rx="72.25" ry="26.74"/>
<text text-anchor="middle" x="906.42" y="-403.89" font-family="Times,serif" font-size="14.00">split_upper_left</text>
<text text-anchor="middle" x="906.42" y="-388.89" font-family="Times,serif" font-size="14.00">(ordered_split)</text>
</a>
</g>
</g>
<!-- /mandlebrot/parse_args/args&#45;&gt;/mandlebrot/parse_args/split_upper_left -->
<g id="edge18" class="edge">
<title>/mandlebrot/parse_args/args:e&#45;&gt;/mandlebrot/parse_args/split_upper_left:w</title>
<path fill="none" stroke="black" d="M141.42,-504.83C153.76,-504.83 139.09,-486.05 148.42,-477.96 175.88,-454.14 733.89,-405.38 823.25,-400.49"/>
<polygon fill="black" stroke="black" points="823.56,-403.98 833.42,-400.09 823.29,-396.98 823.56,-403.98"/>
<text text-anchor="middle" x="461.74" y="-433.63" font-family="Times,serif" font-size="14.00">string[3]</text>
<text text-anchor="middle" x="817.92" y="-403.89" font-family="Times,serif" font-size="14.00">string</text>
</g>
<!-- /mandlebrot/parse_args/split_lower_right -->
<g id="node14" class="node">
<title>/mandlebrot/parse_args/split_lower_right</title>
<g id="a_node14"><a xlink:href="../../flowstdlib/data/ordered_split/ordered_split.html" xlink:title="split_lower_right\n(ordered_split)">
<ellipse fill="coral" stroke="black" cx="1723.42" cy="-400.09" rx="77.56" ry="26.74"/>
<text text-anchor="middle" x="1723.42" y="-403.89" font-family="Times,serif" font-size="14.00">split_lower_right</text>
<text text-anchor="middle" x="1723.42" y="-388.89" font-family="Times,serif" font-size="14.00">(ordered_split)</text>
</a>
</g>
</g>
<!-- /mandlebrot/parse_args/args&#45;&gt;/mandlebrot/parse_args/split_lower_right -->
<g id="edge20" class="edge">
<title>/mandlebrot/parse_args/args:e&#45;&gt;/mandlebrot/parse_args/split_lower_right:w</title>
<path fill="none" stroke="black" d="M141.42,-504.83C153.76,-504.83 138.75,-485.63 148.42,-477.96 178.45,-454.12 800.12,-461.88 838.42,-459.96 1193.76,-442.14 1283.51,-400.89 1634.23,-400.1"/>
<polygon fill="black" stroke="black" points="1634.42,-403.6 1644.42,-400.09 1634.41,-396.6 1634.42,-403.6"/>
<text text-anchor="middle" x="869.48" y="-460.73" font-family="Times,serif" font-size="14.00">string[4]</text>
<text text-anchor="middle" x="1628.92" y="-403.89" font-family="Times,serif" font-size="14.00">string</text>
</g>
<!-- /mandlebrot/parse_args/size_to_json -->
<g id="node7" class="node">
<title>/mandlebrot/parse_args/size_to_json</title>
<g id="a_node7"><a xlink:href="../../flowstdlib/fmt/to_json/to_json.html" xlink:title="size_to_json\n(to_json)">
<ellipse fill="coral" stroke="black" cx="138.42" cy="-309.35" rx="59.29" ry="26.74"/>
<text text-anchor="middle" x="138.42" y="-313.15" font-family="Times,serif" font-size="14.00">size_to_json</text>
<text text-anchor="middle" x="138.42" y="-298.15" font-family="Times,serif" font-size="14.00">(to_json)</text>
</a>
</g>
</g>
<!-- /mandlebrot/parse_args/split_size&#45;&gt;/mandlebrot/parse_args/size_to_json -->
<g id="edge14" class="edge">
<title>/mandlebrot/parse_args/split_size:e&#45;&gt;/mandlebrot/parse_args/size_to_json:w</title>
<path fill="none" stroke="black" d="M279.42,-400.09C291.37,-400.09 286.23,-382.26 278.42,-373.22 219.32,-304.82 137.51,-404.62 78.42,-336.22 73.9,-330.99 70.28,-322.83 70.33,-316.87"/>
<polygon fill="black" stroke="black" points="73.11,-319.03 77.42,-309.35 68.01,-314.23 73.11,-319.03"/>
</g>
<!-- initializer/mandlebrot/parse_args/split_size_1 -->
<!-- initializer/mandlebrot/parse_args/split_size_1&#45;&gt;/mandlebrot/parse_args/split_size -->
<g id="edge1" class="edge">
<title>initializer/mandlebrot/parse_args/split_size_1&#45;&gt;/mandlebrot/parse_args/split_size:w</title>
<path fill="none" stroke="blue" d="M239.87,-489.36C202.89,-478.57 163.37,-459.75 140.42,-426.96 136.56,-421.45 132.94,-413.64 132.65,-407.86"/>
<polygon fill="blue" stroke="blue" points="135.48,-409.93 139.42,-400.09 130.21,-405.33 135.48,-409.93"/>
<text text-anchor="middle" x="180.92" y="-448.76" font-family="Times,serif" font-size="14.00">&quot;x&quot;</text>
</g>
<!-- /mandlebrot/parse_args/accumulate_size -->
<g id="node8" class="node">
<title>/mandlebrot/parse_args/accumulate_size</title>
<g id="a_node8"><a xlink:href="../../flowstdlib/data/accumulate/accumulate.html" xlink:title="accumulate_size\n(accumulate)">
<ellipse fill="coral" stroke="black" cx="412.42" cy="-204.61" rx="75.82" ry="26.74"/>
<text text-anchor="middle" x="412.42" y="-208.41" font-family="Times,serif" font-size="14.00">accumulate_size</text>
<text text-anchor="middle" x="412.42" y="-193.41" font-family="Times,serif" font-size="14.00">(accumulate)</text>
</a>
</g>
</g>
<!-- /mandlebrot/parse_args/size_to_json&#45;&gt;/mandlebrot/parse_args/accumulate_size -->
<g id="edge15" class="edge">
<title>/mandlebrot/parse_args/size_to_json:e&#45;&gt;/mandlebrot/parse_args/accumulate_size:w</title>
<path fill="none" stroke="black" d="M199.42,-309.35C211.76,-309.35 199.03,-292.37 206.42,-282.48 244.37,-231.65 266.08,-207.25 325.19,-204.81"/>
<polygon fill="black" stroke="black" points="325.49,-208.31 335.42,-204.61 325.35,-201.31 325.49,-208.31"/>
<text text-anchor="middle" x="317.92" y="-208.41" font-family="Times,serif" font-size="14.00">values</text>
</g>
<!-- /mandlebrot/parse_args/accumulate_size&#45;&gt;/mandlebrot/parse_args/size -->
<g id="edge17" class="edge">
<title>/mandlebrot/parse_args/accumulate_size:se&#45;&gt;/mandlebrot/parse_args/size:n</title>
<path fill="none" stroke="black" d="M438.42,-177.74C481.12,-135.04 443.09,-101.71 438.8,-44.23"/>
<polygon fill="black" stroke="black" points="442.29,-43.86 438.42,-34 435.29,-44.12 442.29,-43.86"/>
<text text-anchor="middle" x="435.14" y="-105.3" font-family="Times,serif" font-size="14.00">chunk</text>
</g>
<!-- /mandlebrot/parse_args/accumulate_size&#45;&gt;/mandlebrot/parse_args/accumulate_size -->
<g id="edge16" class="edge">
<title>/mandlebrot/parse_args/accumulate_size:s&#45;&gt;/mandlebrot/parse_args/accumulate_size:n</title>
<path fill="none" stroke="black" d="M412.42,-177.61C443.64,-164.61 506.08,-164.61 506.08,-204.61 506.08,-240.86 454.79,-244.26 421.94,-234.9"/>
<polygon fill="black" stroke="black" points="423.01,-231.57 412.42,-231.61 420.72,-238.18 423.01,-231.57"/>
<text text-anchor="middle" x="394.93" y="-166.41" font-family="Times,serif" font-size="14.00">partial</text>
<text text-anchor="middle" x="394.92" y="-235.41" font-family="Times,serif" font-size="14.00">partial</text>
</g>
<!-- initializer/mandlebrot/parse_args/accumulate_size_1 -->
<!-- initializer/mandlebrot/parse_args/accumulate_size_1&#45;&gt;/mandlebrot/parse_args/accumulate_size -->
<g id="edge2" class="edge">
<title>initializer/mandlebrot/parse_args/accumulate_size_1&#45;&gt;/mandlebrot/parse_args/accumulate_size:n</title>
<path fill="none" stroke="blue" stroke-dasharray="1,5" d="M412.42,-291.25C412.42,-278.23 412.42,-259.57 412.42,-241.8"/>
<polygon fill="blue" stroke="blue" points="415.92,-241.48 412.42,-231.48 408.92,-241.48 415.92,-241.48"/>
<text text-anchor="middle" x="417.42" y="-253.28" font-family="Times,serif" font-size="14.00">[]</text>
</g>
<!-- initializer/mandlebrot/parse_args/accumulate_size_2 -->
<!-- initializer/mandlebrot/parse_args/accumulate_size_2&#45;&gt;/mandlebrot/parse_args/accumulate_size -->
<g id="edge3" class="edge">
<title>initializer/mandlebrot/parse_args/accumulate_size_2&#45;&gt;/mandlebrot/parse_args/accumulate_size:n</title>
<path fill="none" stroke="blue" d="M720.72,-294.04C613.93,-278.68 457.98,-254.29 420.66,-237.94"/>
<polygon fill="blue" stroke="blue" points="422.44,-234.9 412.42,-231.48 418.12,-240.41 422.44,-234.9"/>
<text text-anchor="middle" x="526.92" y="-253.28" font-family="Times,serif" font-size="14.00">2</text>
</g>
<!-- /mandlebrot/parse_args/upper_left_to_json -->
<g id="node13" class="node">
<title>/mandlebrot/parse_args/upper_left_to_json</title>
<g id="a_node13"><a xlink:href="../../flowstdlib/fmt/to_json/to_json.html" xlink:title="upper_left_to_json\n(to_json)">
<ellipse fill="coral" stroke="black" cx="1123.42" cy="-309.35" rx="84.29" ry="26.74"/>
<text text-anchor="middle" x="1123.42" y="-313.15" font-family="Times,serif" font-size="14.00">upper_left_to_json</text>
<text text-anchor="middle" x="1123.42" y="-298.15" font-family="Times,serif" font-size="14.00">(to_json)</text>
</a>
</g>
</g>
<!-- /mandlebrot/parse_args/split_upper_left&#45;&gt;/mandlebrot/parse_args/upper_left_to_json -->
<g id="edge19" class="edge">
<title>/mandlebrot/parse_args/split_upper_left:e&#45;&gt;/mandlebrot/parse_args/upper_left_to_json:w</title>
<path fill="none" stroke="black" d="M979.42,-400.09C1015.74,-400.09 1013.59,-368.41 1030.42,-336.22 1033.57,-330.18 1031.94,-322.71 1031.86,-317.18"/>
<polygon fill="black" stroke="black" points="1034.68,-319.26 1038.42,-309.35 1029.31,-314.77 1034.68,-319.26"/>
</g>
<!-- initializer/mandlebrot/parse_args/split_upper_left_1 -->
<!-- initializer/mandlebrot/parse_args/split_upper_left_1&#45;&gt;/mandlebrot/parse_args/split_upper_left -->
<g id="edge4" class="edge">
<title>initializer/mandlebrot/parse_args/split_upper_left_1&#45;&gt;/mandlebrot/parse_args/split_upper_left:w</title>
<path fill="none" stroke="blue" d="M827.43,-486.7C817.62,-460.69 803.13,-413.1 823.41,-402.31"/>
<polygon fill="blue" stroke="blue" points="824.41,-405.67 833.42,-400.09 822.9,-398.84 824.41,-405.67"/>
<text text-anchor="middle" x="826.42" y="-448.76" font-family="Times,serif" font-size="14.00">&quot;,&quot;</text>
</g>
<!-- /mandlebrot/parse_args/accumulate_upper_left -->
<g id="node17" class="node">
<title>/mandlebrot/parse_args/accumulate_upper_left</title>
<g id="a_node17"><a xlink:href="../../flowstdlib/data/accumulate/accumulate.html" xlink:title="accumulate_upper_left\n(accumulate)">
<ellipse fill="coral" stroke="black" cx="1674.42" cy="-204.61" rx="99.9" ry="26.74"/>
<text text-anchor="middle" x="1674.42" y="-208.41" font-family="Times,serif" font-size="14.00">accumulate_upper_left</text>
<text text-anchor="middle" x="1674.42" y="-193.41" font-family="Times,serif" font-size="14.00">(accumulate)</text>
</a>
</g>
</g>
<!-- /mandlebrot/parse_args/upper_left_to_json&#45;&gt;/mandlebrot/parse_args/accumulate_upper_left -->
<g id="edge22" class="edge">
<title>/mandlebrot/parse_args/upper_left_to_json:e&#45;&gt;/mandlebrot/parse_args/accumulate_upper_left:w</title>
<path fill="none" stroke="black" d="M1208.42,-309.35C1220.88,-309.35 1207.28,-290.96 1216.42,-282.48 1273.61,-229.4 1475.56,-206.43 1563.3,-204.71"/>
<polygon fill="black" stroke="black" points="1563.45,-208.21 1573.42,-204.61 1563.38,-201.21 1563.45,-208.21"/>
<text text-anchor="middle" x="1555.92" y="-208.41" font-family="Times,serif" font-size="14.00">values</text>
</g>
<!-- /mandlebrot/parse_args/lower_right_to_json -->
<g id="node16" class="node">
<title>/mandlebrot/parse_args/lower_right_to_json</title>
<g id="a_node16"><a xlink:href="../../flowstdlib/fmt/to_json/to_json.html" xlink:title="lower_right_to_json\n(to_json)">
<ellipse fill="coral" stroke="black" cx="2229.42" cy="-309.35" rx="89.19" ry="26.74"/>
<text text-anchor="middle" x="2229.42" y="-313.15" font-family="Times,serif" font-size="14.00">lower_right_to_json</text>
<text text-anchor="middle" x="2229.42" y="-298.15" font-family="Times,serif" font-size="14.00">(to_json)</text>
</a>
</g>
</g>
<!-- /mandlebrot/parse_args/split_lower_right&#45;&gt;/mandlebrot/parse_args/lower_right_to_json -->
<g id="edge21" class="edge">
<title>/mandlebrot/parse_args/split_lower_right:e&#45;&gt;/mandlebrot/parse_args/lower_right_to_json:w</title>
<path fill="none" stroke="black" d="M1802.42,-400.09C1876.89,-400.09 2076.25,-386.25 2131.42,-336.22 2136.54,-331.58 2134.6,-323.82 2133.99,-317.83"/>
<polygon fill="black" stroke="black" points="2136.98,-319.66 2139.42,-309.35 2131.08,-315.89 2136.98,-319.66"/>
</g>
<!-- initializer/mandlebrot/parse_args/split_lower_right_1 -->
<!-- initializer/mandlebrot/parse_args/split_lower_right_1&#45;&gt;/mandlebrot/parse_args/split_lower_right -->
<g id="edge5" class="edge">
<title>initializer/mandlebrot/parse_args/split_lower_right_1&#45;&gt;/mandlebrot/parse_args/split_lower_right:w</title>
<path fill="none" stroke="blue" d="M1638.43,-486.7C1628.62,-460.69 1614.13,-413.1 1634.41,-402.31"/>
<polygon fill="blue" stroke="blue" points="1635.41,-405.67 1644.42,-400.09 1633.9,-398.84 1635.41,-405.67"/>
<text text-anchor="middle" x="1636.42" y="-448.76" font-family="Times,serif" font-size="14.00">&quot;,&quot;</text>
</g>
<!-- /mandlebrot/parse_args/accumulate_lower_right -->
<g id="node20" class="node">
<title>/mandlebrot/parse_args/accumulate_lower_right</title>
<g id="a_node20"><a xlink:href="../../flowstdlib/data/accumulate/accumulate.html" xlink:title="accumulate_lower_right\n(accumulate)">
<ellipse fill="coral" stroke="black" cx="2526.42" cy="-204.61" rx="105.22" ry="26.74"/>
<text text-anchor="middle" x="2526.42" y="-208.41" font-family="Times,serif" font-size="14.00">accumulate_lower_right</text>
<text text-anchor="middle" x="2526.42" y="-193.41" font-family="Times,serif" font-size="14.00">(accumulate)</text>
</a>
</g>
</g>
<!-- /mandlebrot/parse_args/lower_right_to_json&#45;&gt;/mandlebrot/parse_args/accumulate_lower_right -->
<g id="edge24" class="edge">
<title>/mandlebrot/parse_args/lower_right_to_json:e&#45;&gt;/mandlebrot/parse_args/accumulate_lower_right:w</title>
<path fill="none" stroke="black" d="M2319.42,-309.35C2331.88,-309.35 2320.6,-292.91 2327.42,-282.48 2354.78,-240.62 2364.55,-209.05 2409.31,-205.04"/>
<polygon fill="black" stroke="black" points="2409.57,-208.53 2419.42,-204.61 2409.28,-201.54 2409.57,-208.53"/>
<text text-anchor="middle" x="2401.92" y="-208.41" font-family="Times,serif" font-size="14.00">values</text>
</g>
<!-- /mandlebrot/parse_args/accumulate_upper_left&#45;&gt;/mandlebrot/parse_args/accumulate_upper_left -->
<g id="edge23" class="edge">
<title>/mandlebrot/parse_args/accumulate_upper_left:s&#45;&gt;/mandlebrot/parse_args/accumulate_upper_left:n</title>
<path fill="none" stroke="black" d="M1674.42,-177.61C1713.65,-164.61 1792.12,-164.61 1792.12,-204.61 1792.12,-241.49 1725.43,-244.37 1684.27,-234.41"/>
<polygon fill="black" stroke="black" points="1684.99,-230.97 1674.42,-231.61 1683.08,-237.71 1684.99,-230.97"/>
<text text-anchor="middle" x="1656.93" y="-166.41" font-family="Times,serif" font-size="14.00">partial</text>
<text text-anchor="middle" x="1656.92" y="-235.41" font-family="Times,serif" font-size="14.00">partial</text>
</g>
<!-- /mandlebrot/parse_args/accumulate_bounds -->
<g id="node23" class="node">
<title>/mandlebrot/parse_args/accumulate_bounds</title>
<g id="a_node23"><a xlink:href="../../flowstdlib/data/accumulate/accumulate.html" xlink:title="accumulate_bounds\n(accumulate)">
<ellipse fill="coral" stroke="black" cx="2817.42" cy="-99.87" rx="88.28" ry="26.74"/>
<text text-anchor="middle" x="2817.42" y="-103.67" font-family="Times,serif" font-size="14.00">accumulate_bounds</text>
<text text-anchor="middle" x="2817.42" y="-88.67" font-family="Times,serif" font-size="14.00">(accumulate)</text>
</a>
</g>
</g>
<!-- /mandlebrot/parse_args/accumulate_upper_left&#45;&gt;/mandlebrot/parse_args/accumulate_bounds -->
<g id="edge27" class="edge">
<title>/mandlebrot/parse_args/accumulate_upper_left:se&#45;&gt;/mandlebrot/parse_args/accumulate_bounds:w</title>
<path fill="none" stroke="black" d="M1700.42,-177.74C1739.34,-138.82 2600.7,-102.72 2717.18,-100.03"/>
<polygon fill="black" stroke="black" points="2717.47,-103.53 2727.42,-99.87 2717.36,-96.53 2717.47,-103.53"/>
<text text-anchor="middle" x="2196.11" y="-127.11" font-family="Times,serif" font-size="14.00">chunk</text>
<text text-anchor="middle" x="2709.92" y="-103.67" font-family="Times,serif" font-size="14.00">values</text>
</g>
<!-- initializer/mandlebrot/parse_args/accumulate_upper_left_1 -->
<!-- initializer/mandlebrot/parse_args/accumulate_upper_left_1&#45;&gt;/mandlebrot/parse_args/accumulate_upper_left -->
<g id="edge6" class="edge">
<title>initializer/mandlebrot/parse_args/accumulate_upper_left_1&#45;&gt;/mandlebrot/parse_args/accumulate_upper_left:n</title>
<path fill="none" stroke="blue" stroke-dasharray="1,5" d="M1544.53,-293.25C1599.16,-282.37 1658.56,-265.36 1671.73,-241.39"/>
<polygon fill="blue" stroke="blue" points="1675.18,-242.05 1674.42,-231.48 1668.43,-240.22 1675.18,-242.05"/>
<text text-anchor="middle" x="1669.42" y="-253.28" font-family="Times,serif" font-size="14.00">[]</text>
</g>
<!-- initializer/mandlebrot/parse_args/accumulate_upper_left_2 -->
<!-- initializer/mandlebrot/parse_args/accumulate_upper_left_2&#45;&gt;/mandlebrot/parse_args/accumulate_upper_left -->
<g id="edge7" class="edge">
<title>initializer/mandlebrot/parse_args/accumulate_upper_left_2&#45;&gt;/mandlebrot/parse_args/accumulate_upper_left:n</title>
<path fill="none" stroke="blue" d="M1804.07,-293.25C1749.59,-282.34 1690.25,-265.3 1677.1,-241.37"/>
<polygon fill="blue" stroke="blue" points="1680.41,-240.22 1674.42,-231.48 1673.65,-242.05 1680.41,-240.22"/>
<text text-anchor="middle" x="1705.92" y="-253.28" font-family="Times,serif" font-size="14.00">2</text>
</g>
<!-- /mandlebrot/parse_args/accumulate_lower_right&#45;&gt;/mandlebrot/parse_args/accumulate_lower_right -->
<g id="edge25" class="edge">
<title>/mandlebrot/parse_args/accumulate_lower_right:s&#45;&gt;/mandlebrot/parse_args/accumulate_lower_right:n</title>
<path fill="none" stroke="black" d="M2526.42,-177.61C2567.54,-164.61 2649.77,-164.61 2649.77,-204.61 2649.77,-241.64 2579.29,-244.39 2536.2,-234.28"/>
<polygon fill="black" stroke="black" points="2536.98,-230.86 2526.42,-231.61 2535.14,-237.62 2536.98,-230.86"/>
<text text-anchor="middle" x="2508.93" y="-166.41" font-family="Times,serif" font-size="14.00">partial</text>
<text text-anchor="middle" x="2508.92" y="-235.41" font-family="Times,serif" font-size="14.00">partial</text>
</g>
<!-- /mandlebrot/parse_args/accumulate_lower_right&#45;&gt;/mandlebrot/parse_args/accumulate_bounds -->
<g id="edge28" class="edge">
<title>/mandlebrot/parse_args/accumulate_lower_right:se&#45;&gt;/mandlebrot/parse_args/accumulate_bounds:w</title>
<path fill="none" stroke="black" d="M2552.42,-177.74C2610.14,-120.01 2639.8,-101.39 2717.21,-99.96"/>
<polygon fill="black" stroke="black" points="2717.45,-103.46 2727.42,-99.87 2717.39,-96.46 2717.45,-103.46"/>
<text text-anchor="middle" x="2612.15" y="-120.7" font-family="Times,serif" font-size="14.00">chunk</text>
<text text-anchor="middle" x="2709.92" y="-88.67" font-family="Times,serif" font-size="14.00">values</text>
</g>
<!-- initializer/mandlebrot/parse_args/accumulate_lower_right_1 -->
<!-- initializer/mandlebrot/parse_args/accumulate_lower_right_1&#45;&gt;/mandlebrot/parse_args/accumulate_lower_right -->
<g id="edge8" class="edge">
<title>initializer/mandlebrot/parse_args/accumulate_lower_right_1&#45;&gt;/mandlebrot/parse_args/accumulate_lower_right:n</title>
<path fill="none" stroke="blue" stroke-dasharray="1,5" d="M2547.95,-291.28C2539.72,-278.58 2529.97,-260.28 2527.19,-241.57"/>
<polygon fill="blue" stroke="blue" points="2530.67,-241.18 2526.42,-231.48 2523.69,-241.72 2530.67,-241.18"/>
<text text-anchor="middle" x="2537.42" y="-253.28" font-family="Times,serif" font-size="14.00">[]</text>
</g>
<!-- initializer/mandlebrot/parse_args/accumulate_lower_right_2 -->
<!-- initializer/mandlebrot/parse_args/accumulate_lower_right_2&#45;&gt;/mandlebrot/parse_args/accumulate_lower_right -->
<g id="edge9" class="edge">
<title>initializer/mandlebrot/parse_args/accumulate_lower_right_2&#45;&gt;/mandlebrot/parse_args/accumulate_lower_right:n</title>
<path fill="none" stroke="blue" d="M2913.58,-293.77C2783.39,-276.6 2581.33,-248.78 2535.76,-235.8"/>
<polygon fill="blue" stroke="blue" points="2536.96,-232.5 2526.42,-231.48 2534.02,-238.86 2536.96,-232.5"/>
<text text-anchor="middle" x="2690.92" y="-253.28" font-family="Times,serif" font-size="14.00">2</text>
</g>
<!-- /mandlebrot/parse_args/accumulate_bounds&#45;&gt;/mandlebrot/parse_args/bounds -->
<g id="edge29" class="edge">
<title>/mandlebrot/parse_args/accumulate_bounds:se&#45;&gt;/mandlebrot/parse_args/bounds:n</title>
<path fill="none" stroke="black" d="M2843.42,-73C2853.09,-63.33 2847.5,-55.43 2844.71,-44.01"/>
<polygon fill="black" stroke="black" points="2848.17,-43.47 2843.42,-34 2841.22,-44.37 2848.17,-43.47"/>
<text text-anchor="middle" x="2830.18" y="-56.27" font-family="Times,serif" font-size="14.00">chunk</text>
</g>
<!-- /mandlebrot/parse_args/accumulate_bounds&#45;&gt;/mandlebrot/parse_args/accumulate_bounds -->
<g id="edge26" class="edge">
<title>/mandlebrot/parse_args/accumulate_bounds:s&#45;&gt;/mandlebrot/parse_args/accumulate_bounds:n</title>
<path fill="none" stroke="black" d="M2817.42,-72.87C2852.88,-61.87 2923.8,-61.87 2923.8,-99.87 2923.8,-134.6 2864.55,-137.59 2827.28,-129.45"/>
<polygon fill="black" stroke="black" points="2827.98,-126.01 2817.42,-126.87 2826.21,-132.78 2827.98,-126.01"/>
<text text-anchor="middle" x="2799.94" y="-61.66" font-family="Times,serif" font-size="14.00">partial</text>
<text text-anchor="middle" x="2799.92" y="-130.67" font-family="Times,serif" font-size="14.00">partial</text>
</g>
<!-- initializer/mandlebrot/parse_args/accumulate_bounds_1 -->
<!-- initializer/mandlebrot/parse_args/accumulate_bounds_1&#45;&gt;/mandlebrot/parse_args/accumulate_bounds -->
<g id="edge10" class="edge">
<title>initializer/mandlebrot/parse_args/accumulate_bounds_1&#45;&gt;/mandlebrot/parse_args/accumulate_bounds:n</title>
<path fill="none" stroke="blue" stroke-dasharray="1,5" d="M2852.76,-186.55C2838.65,-174.52 2822.69,-157.01 2818.48,-136.84"/>
<polygon fill="blue" stroke="blue" points="2821.94,-136.32 2817.42,-126.74 2814.98,-137.05 2821.94,-136.32"/>
<text text-anchor="middle" x="2831.42" y="-148.54" font-family="Times,serif" font-size="14.00">[]</text>
</g>
<!-- initializer/mandlebrot/parse_args/accumulate_bounds_2 -->
<!-- initializer/mandlebrot/parse_args/accumulate_bounds_2&#45;&gt;/mandlebrot/parse_args/accumulate_bounds -->
<g id="edge11" class="edge">
<title>initializer/mandlebrot/parse_args/accumulate_bounds_2&#45;&gt;/mandlebrot/parse_args/accumulate_bounds:n</title>
<path fill="none" stroke="blue" d="M3201.78,-189.24C3073.3,-172.07 2872.11,-144.03 2826.72,-131.05"/>
<polygon fill="blue" stroke="blue" points="2827.96,-127.77 2817.42,-126.74 2825.02,-134.12 2827.96,-127.77"/>
<text text-anchor="middle" x="2979.92" y="-148.54" font-family="Times,serif" font-size="14.00">2</text>
</g>
</g>
</svg>
