<?xml version="1.0" encoding="UTF-8" standalone="no"?>
<!DOCTYPE svg PUBLIC "-//W3C//DTD SVG 1.1//EN"
 "http://www.w3.org/Graphics/SVG/1.1/DTD/svg11.dtd">
<!-- Generated by graphviz version 2.40.1 (20161225.0304)
 -->
<!-- Title: parse_args Pages: 1 -->
<svg width="4560pt" height="620pt"
 viewBox="28.80 28.80 4531.13 591.50" xmlns="http://www.w3.org/2000/svg" xmlns:xlink="http://www.w3.org/1999/xlink">
<g id="page0,1_graph0" class="graph" transform="scale(1 1) rotate(0) translate(32.8 587.5006)">
<title>parse_args</title>
<polygon fill="#ffffff" stroke="transparent" points="-4,4 -4,-558.7006 4498.3258,-558.7006 4498.3258,4 -4,4"/>
<text text-anchor="middle" x="2247.1629" y="-539.5006" font-family="Times,serif" font-size="14.00" fill="#000000">parse_args</text>
<!-- /mandlebrot/parse_args/filename -->
<g id="node1" class="node">
<title>/mandlebrot/parse_args/filename</title>
<polygon fill="#000000" stroke="#000000" points=".1734,-12.4377 63,0 125.8266,-12.4377 125.768,-32.5623 .232,-32.5623 .1734,-12.4377"/>
<text text-anchor="middle" x="63" y="-14.3" font-family="Times,serif" font-size="14.00" fill="#ffffff">filename</text>
</g>
<!-- /mandlebrot/parse_args/size -->
<g id="node2" class="node">
<title>/mandlebrot/parse_args/size</title>
<polygon fill="#000000" stroke="#000000" points="502.8025,-12.4377 538,0 573.1975,-12.4377 573.1646,-32.5623 502.8354,-32.5623 502.8025,-12.4377"/>
<text text-anchor="middle" x="538" y="-14.3" font-family="Times,serif" font-size="14.00" fill="#ffffff">size</text>
</g>
<!-- /mandlebrot/parse_args/bounds -->
<g id="node3" class="node">
<title>/mandlebrot/parse_args/bounds</title>
<polygon fill="#000000" stroke="#000000" points="3554.241,-12.4377 3609,0 3663.759,-12.4377 3663.7079,-32.5623 3554.2921,-32.5623 3554.241,-12.4377"/>
<text text-anchor="middle" x="3609" y="-14.3" font-family="Times,serif" font-size="14.00" fill="#ffffff">bounds</text>
</g>
<!-- /mandlebrot/parse_args/args -->
<g id="node4" class="node">
<title>/mandlebrot/parse_args/args</title>
<g id="a_node4"><a xlink:href="../../flowr/src/lib/flowruntime/args/get.html" xlink:title="args\n(get)">
<ellipse fill="#ff7f50" stroke="#000000" cx="131" cy="-504.8305" rx="35.2113" ry="26.7407"/>
<text text-anchor="middle" x="131" y="-508.6305" font-family="Times,serif" font-size="14.00" fill="#000000">args</text>
<text text-anchor="middle" x="131" y="-493.6305" font-family="Times,serif" font-size="14.00" fill="#000000">(get)</text>
</a>
</g>
</g>
<!-- /mandlebrot/parse_args/args&#45;&gt;/mandlebrot/parse_args/filename -->
<g id="edge12" class="edge">
<title>/mandlebrot/parse_args/args:e&#45;&gt;/mandlebrot/parse_args/filename:n</title>
<path fill="none" stroke="#000000" d="M167,-504.8305C178.9422,-504.8305 172.345,-488.6398 167,-477.9605 141.1558,-426.3238 63,-457.8335 63,-400.0904 63,-400.0904 63,-400.0904 63,-99.8701 63,-73.865 63,-64.9258 63,-43.1872"/>
<polygon fill="#000000" stroke="#000000" points="66.5001,-43 63,-33 59.5001,-43 66.5001,-43"/>
<text text-anchor="middle" x="31.5" y="-366.3646" font-family="Times,serif" font-size="14.00" fill="#000000">string[1]</text>
</g>
<!-- /mandlebrot/parse_args/split_size -->
<g id="node5" class="node">
<title>/mandlebrot/parse_args/split_size</title>
<g id="a_node5"><a xlink:href="../../flowstdlib/data/ordered_split/ordered_split.html" xlink:title="split_size\n(ordered_split)">
<ellipse fill="#ff7f50" stroke="#000000" cx="254" cy="-400.0904" rx="86.0347" ry="26.7407"/>
<text text-anchor="middle" x="254" y="-403.8904" font-family="Times,serif" font-size="14.00" fill="#000000">split_size</text>
<text text-anchor="middle" x="254" y="-388.8904" font-family="Times,serif" font-size="14.00" fill="#000000">(ordered_split)</text>
</a>
</g>
</g>
<!-- /mandlebrot/parse_args/args&#45;&gt;/mandlebrot/parse_args/split_size -->
<g id="edge13" class="edge">
<title>/mandlebrot/parse_args/args:e&#45;&gt;/mandlebrot/parse_args/split_size:w</title>
<path fill="none" stroke="#000000" d="M167,-504.8305C186.366,-504.8305 157.3926,-432.3215 160.5196,-407.9629"/>
<polygon fill="#000000" stroke="#000000" points="163.3468,-410.0355 167,-400.0904 157.9423,-405.5867 163.3468,-410.0355"/>
<text text-anchor="middle" x="135.4819" y="-456.179" font-family="Times,serif" font-size="14.00" fill="#000000">string[2]</text>
<text text-anchor="middle" x="145.5" y="-403.8904" font-family="Times,serif" font-size="14.00" fill="#000000">string</text>
</g>
<!-- /mandlebrot/parse_args/split_upper_left -->
<g id="node11" class="node">
<title>/mandlebrot/parse_args/split_upper_left</title>
<g id="a_node11"><a xlink:href="../../flowstdlib/data/ordered_split/ordered_split.html" xlink:title="split_upper_left\n(ordered_split)">
<ellipse fill="#ff7f50" stroke="#000000" cx="1147" cy="-400.0904" rx="91.4341" ry="26.7407"/>
<text text-anchor="middle" x="1147" y="-403.8904" font-family="Times,serif" font-size="14.00" fill="#000000">split_upper_left</text>
<text text-anchor="middle" x="1147" y="-388.8904" font-family="Times,serif" font-size="14.00" fill="#000000">(ordered_split)</text>
</a>
</g>
</g>
<!-- /mandlebrot/parse_args/args&#45;&gt;/mandlebrot/parse_args/split_upper_left -->
<g id="edge18" class="edge">
<title>/mandlebrot/parse_args/args:e&#45;&gt;/mandlebrot/parse_args/split_upper_left:w</title>
<path fill="none" stroke="#000000" d="M167,-504.8305C179.4603,-504.8305 165.3493,-485.8422 175,-477.9605 211.4171,-448.2186 940.6594,-403.9951 1044.9932,-400.3335"/>
<polygon fill="#000000" stroke="#000000" points="1045.088,-403.8323 1055,-400.0904 1044.9179,-396.8344 1045.088,-403.8323"/>
<text text-anchor="middle" x="553.0187" y="-433.1676" font-family="Times,serif" font-size="14.00" fill="#000000">string[3]</text>
<text text-anchor="middle" x="1033.5" y="-403.8904" font-family="Times,serif" font-size="14.00" fill="#000000">string</text>
</g>
<!-- /mandlebrot/parse_args/split_lower_right -->
<g id="node14" class="node">
<title>/mandlebrot/parse_args/split_lower_right</title>
<g id="a_node14"><a xlink:href="../../flowstdlib/data/ordered_split/ordered_split.html" xlink:title="split_lower_right\n(ordered_split)">
<ellipse fill="#ff7f50" stroke="#000000" cx="2194" cy="-400.0904" rx="97.6615" ry="26.7407"/>
<text text-anchor="middle" x="2194" y="-403.8904" font-family="Times,serif" font-size="14.00" fill="#000000">split_lower_right</text>
<text text-anchor="middle" x="2194" y="-388.8904" font-family="Times,serif" font-size="14.00" fill="#000000">(ordered_split)</text>
</a>
</g>
</g>
<!-- /mandlebrot/parse_args/args&#45;&gt;/mandlebrot/parse_args/split_lower_right -->
<g id="edge20" class="edge">
<title>/mandlebrot/parse_args/args:e&#45;&gt;/mandlebrot/parse_args/split_lower_right:w</title>
<path fill="none" stroke="#000000" d="M167,-504.8305C179.4603,-504.8305 165.0869,-485.5097 175,-477.9605 194.6281,-463.0129 1038.3471,-460.9244 1063,-459.9605 1519.1647,-442.1244 1634.436,-400.7029 2085.9506,-400.0971"/>
<polygon fill="#000000" stroke="#000000" points="2086.0024,-403.5972 2096,-400.0904 2085.9976,-396.5972 2086.0024,-403.5972"/>
<text text-anchor="middle" x="1100.3035" y="-460.7809" font-family="Times,serif" font-size="14.00" fill="#000000">string[4]</text>
<text text-anchor="middle" x="2074.5" y="-403.8904" font-family="Times,serif" font-size="14.00" fill="#000000">string</text>
</g>
<!-- /mandlebrot/parse_args/size_to_json -->
<g id="node7" class="node">
<title>/mandlebrot/parse_args/size_to_json</title>
<g id="a_node7"><a xlink:href="../../flowstdlib/fmt/to_json/to_json.html" xlink:title="size_to_json\n(to_json)">
<ellipse fill="#ff7f50" stroke="#000000" cx="164" cy="-309.3503" rx="72.6644" ry="26.7407"/>
<text text-anchor="middle" x="164" y="-313.1503" font-family="Times,serif" font-size="14.00" fill="#000000">size_to_json</text>
<text text-anchor="middle" x="164" y="-298.1503" font-family="Times,serif" font-size="14.00" fill="#000000">(to_json)</text>
</a>
</g>
</g>
<!-- /mandlebrot/parse_args/split_size&#45;&gt;/mandlebrot/parse_args/size_to_json -->
<g id="edge14" class="edge">
<title>/mandlebrot/parse_args/split_size:e&#45;&gt;/mandlebrot/parse_args/size_to_json:w</title>
<path fill="none" stroke="#000000" d="M341,-400.0904C352.9422,-400.0904 348.8018,-382.2618 341,-373.2203 267.6207,-288.1816 164.3793,-421.259 91,-336.2203 86.3677,-330.852 83.0261,-322.3858 83.5754,-316.393"/>
<polygon fill="#000000" stroke="#000000" points="86.1535,-318.7717 91,-309.3503 81.3361,-313.693 86.1535,-318.7717"/>
</g>
<!-- initializer/mandlebrot/parse_args/split_size_1 -->
<!-- initializer/mandlebrot/parse_args/split_size_1&#45;&gt;/mandlebrot/parse_args/split_size -->
<g id="edge1" class="edge">
<title>initializer/mandlebrot/parse_args/split_size_1&#45;&gt;/mandlebrot/parse_args/split_size:w</title>
<path fill="none" stroke="#0000ff" d="M321.6132,-488.1673C260.4456,-474.2943 185.7048,-452.6941 167,-426.9605 162.9407,-421.3758 159.5835,-413.2676 159.7809,-407.4204"/>
<polygon fill="#0000ff" stroke="#0000ff" points="162.4767,-409.6711 167,-400.0904 157.4893,-404.7592 162.4767,-409.6711"/>
<text text-anchor="middle" x="233" y="-448.7605" font-family="Times,serif" font-size="14.00" fill="#000000">&quot;x&quot;</text>
</g>
<!-- /mandlebrot/parse_args/accumulate_size -->
<g id="node8" class="node">
<title>/mandlebrot/parse_args/accumulate_size</title>
<g id="a_node8"><a xlink:href="../../flowstdlib/data/accumulate/accumulate.html" xlink:title="accumulate_size\n(accumulate)">
<ellipse fill="#ff7f50" stroke="#000000" cx="512" cy="-204.6102" rx="95.4188" ry="26.7407"/>
<text text-anchor="middle" x="512" y="-208.4102" font-family="Times,serif" font-size="14.00" fill="#000000">accumulate_size</text>
<text text-anchor="middle" x="512" y="-193.4102" font-family="Times,serif" font-size="14.00" fill="#000000">(accumulate)</text>
</a>
</g>
</g>
<!-- /mandlebrot/parse_args/size_to_json&#45;&gt;/mandlebrot/parse_args/accumulate_size -->
<g id="edge15" class="edge">
<title>/mandlebrot/parse_args/size_to_json:e&#45;&gt;/mandlebrot/parse_args/accumulate_size:w</title>
<path fill="none" stroke="#000000" d="M237,-309.3503C249.5943,-309.3503 237.5803,-291.8464 246,-282.4802 299.1709,-223.332 330.1574,-206.0753 405.568,-204.7015"/>
<polygon fill="#000000" stroke="#000000" points="406.0311,-208.1977 416,-204.6102 405.9697,-201.198 406.0311,-208.1977"/>
<text text-anchor="middle" x="393" y="-208.4102" font-family="Times,serif" font-size="14.00" fill="#000000">values</text>
</g>
<!-- /mandlebrot/parse_args/accumulate_size&#45;&gt;/mandlebrot/parse_args/size -->
<g id="edge17" class="edge">
<title>/mandlebrot/parse_args/accumulate_size:se&#45;&gt;/mandlebrot/parse_args/size:n</title>
<path fill="none" stroke="#000000" d="M538,-178.6102C581.3477,-135.2625 542.5718,-101.4507 538.3616,-42.9973"/>
<polygon fill="#000000" stroke="#000000" points="541.8593,-42.8669 538,-33 534.8639,-43.12 541.8593,-42.8669"/>
<text text-anchor="middle" x="529.5055" y="-105.5334" font-family="Times,serif" font-size="14.00" fill="#000000">chunk</text>
</g>
<!-- /mandlebrot/parse_args/accumulate_size&#45;&gt;/mandlebrot/parse_args/accumulate_size -->
<g id="edge16" class="edge">
<title>/mandlebrot/parse_args/accumulate_size:s&#45;&gt;/mandlebrot/parse_args/accumulate_size:n</title>
<path fill="none" stroke="#000000" d="M512,-177.6102C549.8198,-164.6102 625.4594,-164.6102 625.4594,-204.6102 625.4594,-241.407 561.4489,-244.3537 521.7549,-234.4693"/>
<polygon fill="#000000" stroke="#000000" points="522.5808,-231.0641 512,-231.6102 520.6119,-237.7816 522.5808,-231.0641"/>
<text text-anchor="middle" x="488.0139" y="-166.4054" font-family="Times,serif" font-size="14.00" fill="#000000">partial</text>
<text text-anchor="middle" x="488" y="-235.4102" font-family="Times,serif" font-size="14.00" fill="#000000">partial</text>
</g>
<!-- initializer/mandlebrot/parse_args/accumulate_size_1 -->
<!-- initializer/mandlebrot/parse_args/accumulate_size_1&#45;&gt;/mandlebrot/parse_args/accumulate_size -->
<g id="edge2" class="edge">
<title>initializer/mandlebrot/parse_args/accumulate_size_1&#45;&gt;/mandlebrot/parse_args/accumulate_size:n</title>
<path fill="none" stroke="#0000ff" stroke-dasharray="1,5" d="M512,-291.0991C512,-277.9072 512,-259.3744 512,-241.7237"/>
<polygon fill="#0000ff" stroke="#0000ff" points="515.5001,-241.4802 512,-231.4802 508.5001,-241.4803 515.5001,-241.4802"/>
<text text-anchor="middle" x="517.5" y="-253.2802" font-family="Times,serif" font-size="14.00" fill="#000000">[]</text>
</g>
<!-- initializer/mandlebrot/parse_args/accumulate_size_2 -->
<!-- initializer/mandlebrot/parse_args/accumulate_size_2&#45;&gt;/mandlebrot/parse_args/accumulate_size -->
<g id="edge3" class="edge">
<title>initializer/mandlebrot/parse_args/accumulate_size_2&#45;&gt;/mandlebrot/parse_args/accumulate_size:n</title>
<path fill="none" stroke="#0000ff" d="M894.3808,-294.6371C754.4738,-279.8735 560.4668,-256.7156 519.7014,-238.1064"/>
<polygon fill="#0000ff" stroke="#0000ff" points="521.8632,-235.3492 512,-231.4802 517.2977,-240.6555 521.8632,-235.3492"/>
<text text-anchor="middle" x="646" y="-253.2802" font-family="Times,serif" font-size="14.00" fill="#000000">2</text>
</g>
<!-- /mandlebrot/parse_args/upper_left_to_json -->
<g id="node13" class="node">
<title>/mandlebrot/parse_args/upper_left_to_json</title>
<g id="a_node13"><a xlink:href="../../flowstdlib/fmt/to_json/to_json.html" xlink:title="upper_left_to_json\n(to_json)">
<ellipse fill="#ff7f50" stroke="#000000" cx="1423" cy="-309.3503" rx="105.218" ry="26.7407"/>
<text text-anchor="middle" x="1423" y="-313.1503" font-family="Times,serif" font-size="14.00" fill="#000000">upper_left_to_json</text>
<text text-anchor="middle" x="1423" y="-298.1503" font-family="Times,serif" font-size="14.00" fill="#000000">(to_json)</text>
</a>
</g>
</g>
<!-- /mandlebrot/parse_args/split_upper_left&#45;&gt;/mandlebrot/parse_args/upper_left_to_json -->
<g id="edge19" class="edge">
<title>/mandlebrot/parse_args/split_upper_left:e&#45;&gt;/mandlebrot/parse_args/upper_left_to_json:w</title>
<path fill="none" stroke="#000000" d="M1239,-400.0904C1281.1154,-400.0904 1286.6195,-371.8969 1309,-336.2203 1312.6212,-330.4479 1310.9477,-322.953 1310.7256,-317.3459"/>
<polygon fill="#000000" stroke="#000000" points="1313.58,-319.378 1317,-309.3503 1308.0731,-315.0566 1313.58,-319.378"/>
</g>
<!-- initializer/mandlebrot/parse_args/split_upper_left_1 -->
<!-- initializer/mandlebrot/parse_args/split_upper_left_1&#45;&gt;/mandlebrot/parse_args/split_upper_left -->
<g id="edge4" class="edge">
<title>initializer/mandlebrot/parse_args/split_upper_left_1&#45;&gt;/mandlebrot/parse_args/split_upper_left:w</title>
<path fill="none" stroke="#0000ff" d="M1047.7638,-486.5862C1038.119,-460.0941 1024.4997,-412.9659 1044.9611,-402.2841"/>
<polygon fill="#0000ff" stroke="#0000ff" points="1045.9777,-405.6446 1055,-400.0904 1044.4833,-398.806 1045.9777,-405.6446"/>
<text text-anchor="middle" x="1049.5" y="-448.7605" font-family="Times,serif" font-size="14.00" fill="#000000">&quot;,&quot;</text>
</g>
<!-- /mandlebrot/parse_args/accumulate_upper_left -->
<g id="node17" class="node">
<title>/mandlebrot/parse_args/accumulate_upper_left</title>
<g id="a_node17"><a xlink:href="../../flowstdlib/data/accumulate/accumulate.html" xlink:title="accumulate_upper_left\n(accumulate)">
<ellipse fill="#ff7f50" stroke="#000000" cx="1923" cy="-204.6102" rx="127.9727" ry="26.7407"/>
<text text-anchor="middle" x="1923" y="-208.4102" font-family="Times,serif" font-size="14.00" fill="#000000">accumulate_upper_left</text>
<text text-anchor="middle" x="1923" y="-193.4102" font-family="Times,serif" font-size="14.00" fill="#000000">(accumulate)</text>
</a>
</g>
</g>
<!-- /mandlebrot/parse_args/upper_left_to_json&#45;&gt;/mandlebrot/parse_args/accumulate_upper_left -->
<g id="edge22" class="edge">
<title>/mandlebrot/parse_args/upper_left_to_json:e&#45;&gt;/mandlebrot/parse_args/accumulate_upper_left:w</title>
<path fill="none" stroke="#000000" d="M1529,-309.3503C1541.4603,-309.3503 1528.2058,-291.3075 1537,-282.4802 1577.0386,-242.291 1718.9913,-208.3678 1784.7557,-204.9017"/>
<polygon fill="#000000" stroke="#000000" points="1785.1036,-208.3933 1795,-204.6102 1784.9045,-201.3961 1785.1036,-208.3933"/>
<text text-anchor="middle" x="1772" y="-208.4102" font-family="Times,serif" font-size="14.00" fill="#000000">values</text>
</g>
<!-- /mandlebrot/parse_args/lower_right_to_json -->
<g id="node16" class="node">
<title>/mandlebrot/parse_args/lower_right_to_json</title>
<g id="a_node16"><a xlink:href="../../flowstdlib/fmt/to_json/to_json.html" xlink:title="lower_right_to_json\n(to_json)">
<ellipse fill="#ff7f50" stroke="#000000" cx="2838" cy="-309.3503" rx="111.9462" ry="26.7407"/>
<text text-anchor="middle" x="2838" y="-313.1503" font-family="Times,serif" font-size="14.00" fill="#000000">lower_right_to_json</text>
<text text-anchor="middle" x="2838" y="-298.1503" font-family="Times,serif" font-size="14.00" fill="#000000">(to_json)</text>
</a>
</g>
</g>
<!-- /mandlebrot/parse_args/split_lower_right&#45;&gt;/mandlebrot/parse_args/lower_right_to_json -->
<g id="edge21" class="edge">
<title>/mandlebrot/parse_args/split_lower_right:e&#45;&gt;/mandlebrot/parse_args/lower_right_to_json:w</title>
<path fill="none" stroke="#000000" d="M2292,-400.0904C2387.505,-400.0904 2643.8542,-397.628 2717,-336.2203 2722.4258,-331.6653 2720.6103,-323.7328 2720.2247,-317.6638"/>
<polygon fill="#000000" stroke="#000000" points="2723.1691,-319.5599 2726,-309.3503 2717.4202,-315.5662 2723.1691,-319.5599"/>
</g>
<!-- initializer/mandlebrot/parse_args/split_lower_right_1 -->
<!-- initializer/mandlebrot/parse_args/split_lower_right_1&#45;&gt;/mandlebrot/parse_args/split_lower_right -->
<g id="edge5" class="edge">
<title>initializer/mandlebrot/parse_args/split_lower_right_1&#45;&gt;/mandlebrot/parse_args/split_lower_right:w</title>
<path fill="none" stroke="#0000ff" d="M2088.7638,-486.5862C2079.119,-460.0941 2065.4997,-412.9659 2085.9611,-402.2841"/>
<polygon fill="#0000ff" stroke="#0000ff" points="2086.9777,-405.6446 2096,-400.0904 2085.4833,-398.806 2086.9777,-405.6446"/>
<text text-anchor="middle" x="2089.5" y="-448.7605" font-family="Times,serif" font-size="14.00" fill="#000000">&quot;,&quot;</text>
</g>
<!-- /mandlebrot/parse_args/accumulate_lower_right -->
<g id="node20" class="node">
<title>/mandlebrot/parse_args/accumulate_lower_right</title>
<g id="a_node20"><a xlink:href="../../flowstdlib/data/accumulate/accumulate.html" xlink:title="accumulate_lower_right\n(accumulate)">
<ellipse fill="#ff7f50" stroke="#000000" cx="3216" cy="-204.6102" rx="134.2007" ry="26.7407"/>
<text text-anchor="middle" x="3216" y="-208.4102" font-family="Times,serif" font-size="14.00" fill="#000000">accumulate_lower_right</text>
<text text-anchor="middle" x="3216" y="-193.4102" font-family="Times,serif" font-size="14.00" fill="#000000">(accumulate)</text>
</a>
</g>
</g>
<!-- /mandlebrot/parse_args/lower_right_to_json&#45;&gt;/mandlebrot/parse_args/accumulate_lower_right -->
<g id="edge24" class="edge">
<title>/mandlebrot/parse_args/lower_right_to_json:e&#45;&gt;/mandlebrot/parse_args/accumulate_lower_right:w</title>
<path fill="none" stroke="#000000" d="M2950,-309.3503C2962.5943,-309.3503 2951.2489,-292.4068 2959,-282.4802 2996.4242,-234.5526 3014.6317,-207.6522 3070.8503,-204.8533"/>
<polygon fill="#000000" stroke="#000000" points="3071.0867,-208.3488 3081,-204.6102 3070.919,-201.3508 3071.0867,-208.3488"/>
<text text-anchor="middle" x="3058" y="-208.4102" font-family="Times,serif" font-size="14.00" fill="#000000">values</text>
</g>
<!-- /mandlebrot/parse_args/accumulate_upper_left&#45;&gt;/mandlebrot/parse_args/accumulate_upper_left -->
<g id="edge23" class="edge">
<title>/mandlebrot/parse_args/accumulate_upper_left:s&#45;&gt;/mandlebrot/parse_args/accumulate_upper_left:n</title>
<path fill="none" stroke="#000000" d="M1923,-177.6102C1971.6621,-164.6102 2068.9863,-164.6102 2068.9863,-204.6102 2068.9863,-242.032 1983.8035,-244.444 1932.9766,-233.9546"/>
<polygon fill="#000000" stroke="#000000" points="1933.5355,-230.4907 1923,-231.6102 1931.9341,-237.305 1933.5355,-230.4907"/>
<text text-anchor="middle" x="1899.0178" y="-166.4054" font-family="Times,serif" font-size="14.00" fill="#000000">partial</text>
<text text-anchor="middle" x="1899" y="-235.4102" font-family="Times,serif" font-size="14.00" fill="#000000">partial</text>
</g>
<!-- /mandlebrot/parse_args/accumulate_bounds -->
<g id="node23" class="node">
<title>/mandlebrot/parse_args/accumulate_bounds</title>
<g id="a_node23"><a xlink:href="../../flowstdlib/data/accumulate/accumulate.html" xlink:title="accumulate_bounds\n(accumulate)">
<ellipse fill="#ff7f50" stroke="#000000" cx="3583" cy="-99.8701" rx="112.36" ry="26.7407"/>
<text text-anchor="middle" x="3583" y="-103.6701" font-family="Times,serif" font-size="14.00" fill="#000000">accumulate_bounds</text>
<text text-anchor="middle" x="3583" y="-88.6701" font-family="Times,serif" font-size="14.00" fill="#000000">(accumulate)</text>
</a>
</g>
</g>
<!-- /mandlebrot/parse_args/accumulate_upper_left&#45;&gt;/mandlebrot/parse_args/accumulate_bounds -->
<g id="edge27" class="edge">
<title>/mandlebrot/parse_args/accumulate_upper_left:se&#45;&gt;/mandlebrot/parse_args/accumulate_bounds:w</title>
<path fill="none" stroke="#000000" d="M1949,-178.6102C2007.1361,-120.4741 3308.4739,-100.9739 3459.7619,-99.9161"/>
<polygon fill="#000000" stroke="#000000" points="3460.0159,-103.415 3470,-99.8701 3459.9843,-96.4151 3460.0159,-103.415"/>
<text text-anchor="middle" x="2686.6306" y="-120.3044" font-family="Times,serif" font-size="14.00" fill="#000000">chunk</text>
<text text-anchor="middle" x="3447" y="-103.6701" font-family="Times,serif" font-size="14.00" fill="#000000">values</text>
</g>
<!-- initializer/mandlebrot/parse_args/accumulate_upper_left_1 -->
<!-- initializer/mandlebrot/parse_args/accumulate_upper_left_1&#45;&gt;/mandlebrot/parse_args/accumulate_upper_left -->
<g id="edge6" class="edge">
<title>initializer/mandlebrot/parse_args/accumulate_upper_left_1&#45;&gt;/mandlebrot/parse_args/accumulate_upper_left:n</title>
<path fill="none" stroke="#0000ff" stroke-dasharray="1,5" d="M1875.6343,-291.4131C1895.9783,-280.2713 1916.8205,-263.8114 1921.8559,-241.6794"/>
<polygon fill="#0000ff" stroke="#0000ff" points="1925.3633,-241.8081 1923,-231.4802 1918.4069,-241.0277 1925.3633,-241.8081"/>
<text text-anchor="middle" x="1923.5" y="-253.2802" font-family="Times,serif" font-size="14.00" fill="#000000">[]</text>
</g>
<!-- initializer/mandlebrot/parse_args/accumulate_upper_left_2 -->
<!-- initializer/mandlebrot/parse_args/accumulate_upper_left_2&#45;&gt;/mandlebrot/parse_args/accumulate_upper_left -->
<g id="edge7" class="edge">
<title>initializer/mandlebrot/parse_args/accumulate_upper_left_2&#45;&gt;/mandlebrot/parse_args/accumulate_upper_left:n</title>
<path fill="none" stroke="#0000ff" d="M2278.338,-293.7594C2147.9107,-278.7259 1970.1164,-255.7197 1930.8723,-238.0731"/>
<polygon fill="#0000ff" stroke="#0000ff" points="1932.9138,-235.2175 1923,-231.4802 1928.4194,-240.5841 1932.9138,-235.2175"/>
<text text-anchor="middle" x="2048" y="-253.2802" font-family="Times,serif" font-size="14.00" fill="#000000">2</text>
</g>
<!-- /mandlebrot/parse_args/accumulate_lower_right&#45;&gt;/mandlebrot/parse_args/accumulate_lower_right -->
<g id="edge25" class="edge">
<title>/mandlebrot/parse_args/accumulate_lower_right:s&#45;&gt;/mandlebrot/parse_args/accumulate_lower_right:n</title>
<path fill="none" stroke="#000000" d="M3216,-177.6102C3266.7834,-164.6102 3368.3503,-164.6102 3368.3503,-204.6102 3368.3503,-242.1102 3279.0825,-244.4539 3226.0798,-233.8887"/>
<polygon fill="#000000" stroke="#000000" points="3226.5256,-230.4013 3216,-231.6102 3224.9822,-237.229 3226.5256,-230.4013"/>
<text text-anchor="middle" x="3192.0186" y="-166.4054" font-family="Times,serif" font-size="14.00" fill="#000000">partial</text>
<text text-anchor="middle" x="3192" y="-235.4102" font-family="Times,serif" font-size="14.00" fill="#000000">partial</text>
</g>
<!-- /mandlebrot/parse_args/accumulate_lower_right&#45;&gt;/mandlebrot/parse_args/accumulate_bounds -->
<g id="edge28" class="edge">
<title>/mandlebrot/parse_args/accumulate_lower_right:se&#45;&gt;/mandlebrot/parse_args/accumulate_bounds:w</title>
<path fill="none" stroke="#000000" d="M3243,-177.7401C3315.9894,-104.7507 3360.4131,-100.1038 3459.8774,-99.8801"/>
<polygon fill="#000000" stroke="#000000" points="3460.0035,-103.38 3470,-99.8701 3459.9965,-96.38 3460.0035,-103.38"/>
<text text-anchor="middle" x="3325.9531" y="-113.2796" font-family="Times,serif" font-size="14.00" fill="#000000">chunk</text>
<text text-anchor="middle" x="3447" y="-88.6701" font-family="Times,serif" font-size="14.00" fill="#000000">values</text>
</g>
<!-- initializer/mandlebrot/parse_args/accumulate_lower_right_1 -->
<!-- initializer/mandlebrot/parse_args/accumulate_lower_right_1&#45;&gt;/mandlebrot/parse_args/accumulate_lower_right -->
<g id="edge8" class="edge">
<title>initializer/mandlebrot/parse_args/accumulate_lower_right_1&#45;&gt;/mandlebrot/parse_args/accumulate_lower_right:n</title>
<path fill="none" stroke="#0000ff" stroke-dasharray="1,5" d="M3242.61,-291.1312C3232.1369,-278.4936 3220.2043,-260.563 3216.8926,-241.5186"/>
<polygon fill="#0000ff" stroke="#0000ff" points="3220.372,-241.1309 3216,-231.4802 3213.3995,-241.751 3220.372,-241.1309"/>
<text text-anchor="middle" x="3229.5" y="-253.2802" font-family="Times,serif" font-size="14.00" fill="#000000">[]</text>
</g>
<!-- initializer/mandlebrot/parse_args/accumulate_lower_right_2 -->
<!-- initializer/mandlebrot/parse_args/accumulate_lower_right_2&#45;&gt;/mandlebrot/parse_args/accumulate_lower_right -->
<g id="edge9" class="edge">
<title>initializer/mandlebrot/parse_args/accumulate_lower_right_2&#45;&gt;/mandlebrot/parse_args/accumulate_lower_right:n</title>
<path fill="none" stroke="#0000ff" d="M3704.3838,-294.1587C3532.9465,-277.1521 3276.3846,-250.116 3225.1053,-235.8688"/>
<polygon fill="#0000ff" stroke="#0000ff" points="3226.5279,-232.6693 3216,-231.4802 3223.4886,-238.975 3226.5279,-232.6693"/>
<text text-anchor="middle" x="3411" y="-253.2802" font-family="Times,serif" font-size="14.00" fill="#000000">2</text>
</g>
<!-- /mandlebrot/parse_args/accumulate_bounds&#45;&gt;/mandlebrot/parse_args/bounds -->
<g id="edge29" class="edge">
<title>/mandlebrot/parse_args/accumulate_bounds:se&#45;&gt;/mandlebrot/parse_args/bounds:n</title>
<path fill="none" stroke="#000000" d="M3609,-73.8701C3619.2352,-63.6348 3613.1581,-55.2937 3610.2669,-43.1358"/>
<polygon fill="#000000" stroke="#000000" points="3613.7133,-42.4887 3609,-33 3606.7674,-43.3569 3613.7133,-42.4887"/>
<text text-anchor="middle" x="3590.3798" y="-55.9233" font-family="Times,serif" font-size="14.00" fill="#000000">chunk</text>
</g>
<!-- /mandlebrot/parse_args/accumulate_bounds&#45;&gt;/mandlebrot/parse_args/accumulate_bounds -->
<g id="edge26" class="edge">
<title>/mandlebrot/parse_args/accumulate_bounds:s&#45;&gt;/mandlebrot/parse_args/accumulate_bounds:n</title>
<path fill="none" stroke="#000000" d="M3583,-72.8701C3626.4767,-61.8701 3713.43,-61.8701 3713.43,-99.8701 3713.43,-135.1982 3638.2746,-137.6822 3592.7703,-129.0178"/>
<polygon fill="#000000" stroke="#000000" points="3593.5183,-125.5988 3583,-126.8701 3592.0153,-132.4355 3593.5183,-125.5988"/>
<text text-anchor="middle" x="3559.0319" y="-61.662" font-family="Times,serif" font-size="14.00" fill="#000000">partial</text>
<text text-anchor="middle" x="3559" y="-130.6701" font-family="Times,serif" font-size="14.00" fill="#000000">partial</text>
</g>
<!-- initializer/mandlebrot/parse_args/accumulate_bounds_1 -->
<!-- initializer/mandlebrot/parse_args/accumulate_bounds_1&#45;&gt;/mandlebrot/parse_args/accumulate_bounds -->
<g id="edge10" class="edge">
<title>initializer/mandlebrot/parse_args/accumulate_bounds_1&#45;&gt;/mandlebrot/parse_args/accumulate_bounds:n</title>
<path fill="none" stroke="#0000ff" stroke-dasharray="1,5" d="M3625.0012,-186.5514C3607.4533,-174.8883 3588.7545,-157.9368 3584.0972,-136.7623"/>
<polygon fill="#0000ff" stroke="#0000ff" points="3587.5676,-136.2998 3583,-126.7401 3580.6092,-137.0617 3587.5676,-136.2998"/>
<text text-anchor="middle" x="3599.5" y="-148.5401" font-family="Times,serif" font-size="14.00" fill="#000000">[]</text>
</g>
<!-- initializer/mandlebrot/parse_args/accumulate_bounds_2 -->
<!-- initializer/mandlebrot/parse_args/accumulate_bounds_2&#45;&gt;/mandlebrot/parse_args/accumulate_bounds -->
<g id="edge11" class="edge">
<title>initializer/mandlebrot/parse_args/accumulate_bounds_2&#45;&gt;/mandlebrot/parse_args/accumulate_bounds:n</title>
<path fill="none" stroke="#0000ff" d="M4068.9436,-189.6644C3899.4699,-172.6469 3643.312,-145.3658 3592.0953,-131.1183"/>
<polygon fill="#0000ff" stroke="#0000ff" points="3593.5285,-127.9238 3583,-126.7401 3590.4923,-134.2311 3593.5285,-127.9238"/>
<text text-anchor="middle" x="3776" y="-148.5401" font-family="Times,serif" font-size="14.00" fill="#000000">2</text>
</g>
</g>
</svg>
