<?xml version="1.0" encoding="UTF-8" standalone="no"?>
<!DOCTYPE svg PUBLIC "-//W3C//DTD SVG 1.1//EN"
 "http://www.w3.org/Graphics/SVG/1.1/DTD/svg11.dtd">
<!-- Generated by graphviz version 2.43.0 (0)
 -->
<!-- Title: render Pages: 1 -->
<svg width="749pt" height="466pt"
 viewBox="28.80 28.80 720.63 437.02" xmlns="http://www.w3.org/2000/svg" xmlns:xlink="http://www.w3.org/1999/xlink">
<g id="page0,1_graph0" class="graph" transform="scale(1 1) rotate(0) translate(32.8 433.02)">
<title>render</title>
<polygon fill="white" stroke="transparent" points="-4,4 -4,-404.22 687.83,-404.22 687.83,4 -4,4"/>
<text text-anchor="middle" x="341.92" y="-385.02" font-family="Times,serif" font-size="14.00">render</text>
<!-- /mandlebrot/render/filename -->
<g id="node1" class="node">
<title>/mandlebrot/render/filename</title>
<polygon fill="white" stroke="black" points="123.58,-364.78 61.86,-377.22 0.14,-364.78 0.2,-344.66 123.52,-344.66 123.58,-364.78"/>
<text text-anchor="middle" x="61.86" y="-355.52" font-family="Times,serif" font-size="14.00">filename</text>
</g>
<!-- /mandlebrot/render/filename_buffer -->
<g id="node10" class="node">
<title>/mandlebrot/render/filename_buffer</title>
<g id="a_node10"><a xlink:href="../../flowstdlib/data/buffer/buffer.html" xlink:title="filename_buffer\n(buffer)">
<ellipse fill="coral" stroke="black" cx="151.86" cy="-188.61" rx="89.61" ry="26.74"/>
<text text-anchor="middle" x="151.86" y="-192.41" font-family="Times,serif" font-size="14.00">filename_buffer</text>
<text text-anchor="middle" x="151.86" y="-177.41" font-family="Times,serif" font-size="14.00">(buffer)</text>
</a>
</g>
</g>
<!-- /mandlebrot/render/filename&#45;&gt;/mandlebrot/render/filename_buffer -->
<g id="edge9" class="edge">
<title>/mandlebrot/render/filename:s&#45;&gt;/mandlebrot/render/filename_buffer:w</title>
<path fill="none" stroke="black" d="M61.86,-343.22C61.86,-278.26 -0.44,-197.95 50.79,-189.36"/>
<polygon fill="black" stroke="black" points="51.15,-192.85 60.86,-188.61 50.63,-185.87 51.15,-192.85"/>
</g>
<!-- /mandlebrot/render/size -->
<g id="node2" class="node">
<title>/mandlebrot/render/size</title>
<polygon fill="white" stroke="black" points="319.06,-364.78 283.86,-377.22 248.66,-364.78 248.7,-344.66 319.02,-344.66 319.06,-364.78"/>
<text text-anchor="middle" x="283.86" y="-355.52" font-family="Times,serif" font-size="14.00">size</text>
</g>
<!-- /mandlebrot/render/buffer_size -->
<g id="node7" class="node">
<title>/mandlebrot/render/buffer_size</title>
<g id="a_node7"><a xlink:href="../../flowstdlib/data/buffer/buffer.html" xlink:title="buffer_size\n(buffer)">
<ellipse fill="coral" stroke="black" cx="363.86" cy="-278.35" rx="66.44" ry="26.74"/>
<text text-anchor="middle" x="363.86" y="-282.15" font-family="Times,serif" font-size="14.00">buffer_size</text>
<text text-anchor="middle" x="363.86" y="-267.15" font-family="Times,serif" font-size="14.00">(buffer)</text>
</a>
</g>
</g>
<!-- /mandlebrot/render/size&#45;&gt;/mandlebrot/render/buffer_size -->
<g id="edge4" class="edge">
<title>/mandlebrot/render/size:s&#45;&gt;/mandlebrot/render/buffer_size:w</title>
<path fill="none" stroke="black" d="M283.86,-343.22C283.86,-331.88 282.27,-299.28 288.33,-285.08"/>
<polygon fill="black" stroke="black" points="290.74,-287.63 295.86,-278.35 286.07,-282.41 290.74,-287.63"/>
</g>
<!-- /mandlebrot/render/size_buffer -->
<g id="node11" class="node">
<title>/mandlebrot/render/size_buffer</title>
<g id="a_node11"><a xlink:href="../../flowstdlib/data/buffer/buffer.html" xlink:title="size_buffer\n(buffer)">
<ellipse fill="coral" stroke="black" cx="336.86" cy="-98.87" rx="66.44" ry="26.74"/>
<text text-anchor="middle" x="336.86" y="-102.67" font-family="Times,serif" font-size="14.00">size_buffer</text>
<text text-anchor="middle" x="336.86" y="-87.67" font-family="Times,serif" font-size="14.00">(buffer)</text>
</a>
</g>
</g>
<!-- /mandlebrot/render/size&#45;&gt;/mandlebrot/render/size_buffer -->
<g id="edge12" class="edge">
<title>/mandlebrot/render/size:s&#45;&gt;/mandlebrot/render/size_buffer:w</title>
<path fill="none" stroke="black" d="M283.86,-343.22C283.86,-319.05 250.53,-144.87 262.2,-106.38"/>
<polygon fill="black" stroke="black" points="264.85,-108.68 268.86,-98.87 259.61,-104.03 264.85,-108.68"/>
</g>
<!-- /mandlebrot/render/bounds -->
<g id="node3" class="node">
<title>/mandlebrot/render/bounds</title>
<polygon fill="white" stroke="black" points="502.62,-364.78 447.86,-377.22 393.1,-364.78 393.15,-344.66 502.57,-344.66 502.62,-364.78"/>
<text text-anchor="middle" x="447.86" y="-355.52" font-family="Times,serif" font-size="14.00">bounds</text>
</g>
<!-- /mandlebrot/render/buffer_bounds -->
<g id="node6" class="node">
<title>/mandlebrot/render/buffer_bounds</title>
<g id="a_node6"><a xlink:href="../../flowstdlib/data/buffer/buffer.html" xlink:title="buffer_bounds\n(buffer)">
<ellipse fill="coral" stroke="black" cx="531.86" cy="-278.35" rx="83.38" ry="26.74"/>
<text text-anchor="middle" x="531.86" y="-282.15" font-family="Times,serif" font-size="14.00">buffer_bounds</text>
<text text-anchor="middle" x="531.86" y="-267.15" font-family="Times,serif" font-size="14.00">(buffer)</text>
</a>
</g>
</g>
<!-- /mandlebrot/render/bounds&#45;&gt;/mandlebrot/render/buffer_bounds -->
<g id="edge1" class="edge">
<title>/mandlebrot/render/bounds:s&#45;&gt;/mandlebrot/render/buffer_bounds:w</title>
<path fill="none" stroke="black" d="M447.86,-343.22C447.86,-332.41 439.19,-301.32 440.93,-286.46"/>
<polygon fill="black" stroke="black" points="443.78,-288.49 446.86,-278.35 438.13,-284.36 443.78,-288.49"/>
</g>
<!-- /mandlebrot/render/pixel -->
<g id="node4" class="node">
<title>/mandlebrot/render/pixel</title>
<polygon fill="white" stroke="black" points="683.8,-364.78 642.86,-377.22 601.92,-364.78 601.95,-344.66 683.77,-344.66 683.8,-364.78"/>
<text text-anchor="middle" x="642.86" y="-355.52" font-family="Times,serif" font-size="14.00">pixel</text>
</g>
<!-- /mandlebrot/render/p2p -->
<g id="node5" class="node">
<title>/mandlebrot/render/p2p</title>
<g id="a_node5"><a xlink:href="../../samples/mandlebrot/pixel_to_point/pixel_to_point.html" xlink:title="p2p\n(pixel_to_point)">
<ellipse fill="coral" stroke="black" cx="567.86" cy="-188.61" rx="89.19" ry="26.74"/>
<text text-anchor="middle" x="567.86" y="-192.41" font-family="Times,serif" font-size="14.00">p2p</text>
<text text-anchor="middle" x="567.86" y="-177.41" font-family="Times,serif" font-size="14.00">(pixel_to_point)</text>
</a>
</g>
</g>
<!-- /mandlebrot/render/pixel&#45;&gt;/mandlebrot/render/p2p -->
<g id="edge7" class="edge">
<title>/mandlebrot/render/pixel:s&#45;&gt;/mandlebrot/render/p2p:ne</title>
<path fill="none" stroke="black" d="M642.86,-343.22C642.86,-285.98 637.54,-261.41 601.04,-222.85"/>
<polygon fill="black" stroke="black" points="603.34,-220.2 593.86,-215.48 598.33,-225.09 603.34,-220.2"/>
<text text-anchor="middle" x="576.36" y="-219.28" font-family="Times,serif" font-size="14.00">pixel</text>
</g>
<!-- /mandlebrot/render/p2v -->
<g id="node8" class="node">
<title>/mandlebrot/render/p2v</title>
<g id="a_node8"><a xlink:href="../../samples/mandlebrot/render_pixel/render_pixel.html" xlink:title="p2v\n(render_pixel)">
<ellipse fill="coral" stroke="black" cx="540.86" cy="-98.87" rx="82.05" ry="26.74"/>
<text text-anchor="middle" x="540.86" y="-102.67" font-family="Times,serif" font-size="14.00">p2v</text>
<text text-anchor="middle" x="540.86" y="-87.67" font-family="Times,serif" font-size="14.00">(render_pixel)</text>
</a>
</g>
</g>
<!-- /mandlebrot/render/p2p&#45;&gt;/mandlebrot/render/p2v -->
<g id="edge8" class="edge">
<title>/mandlebrot/render/p2p:e&#45;&gt;/mandlebrot/render/p2v:ne</title>
<path fill="none" stroke="black" d="M657.86,-188.61C669.81,-188.61 663.74,-171.51 656.86,-161.74 634.18,-129.55 603.22,-151.58 574.8,-132.34"/>
<polygon fill="black" stroke="black" points="576.79,-129.44 566.86,-125.74 572.31,-134.82 576.79,-129.44"/>
<text text-anchor="middle" x="527.36" y="-129.54" font-family="Times,serif" font-size="14.00">pixel_point</text>
</g>
<!-- /mandlebrot/render/buffer_bounds&#45;&gt;/mandlebrot/render/p2p -->
<g id="edge3" class="edge">
<title>/mandlebrot/render/buffer_bounds:e&#45;&gt;/mandlebrot/render/p2p:n</title>
<path fill="none" stroke="black" d="M616.86,-278.35C628.81,-278.35 621.4,-262.07 615.86,-251.48 605.42,-231.55 578.43,-238.61 570.24,-225.28"/>
<polygon fill="black" stroke="black" points="573.63,-224.37 567.86,-215.48 566.82,-226.02 573.63,-224.37"/>
<text text-anchor="middle" x="541.86" y="-219.28" font-family="Times,serif" font-size="14.00">bounds</text>
</g>
<!-- /mandlebrot/render/buffer_bounds&#45;&gt;/mandlebrot/render/buffer_bounds -->
<g id="edge2" class="edge">
<title>/mandlebrot/render/buffer_bounds:e&#45;&gt;/mandlebrot/render/buffer_bounds:w</title>
<path fill="none" stroke="black" d="M615.86,-278.35C633.3,-300.64 633.3,-345.22 531.86,-345.22 442.31,-345.22 431.81,-310.48 442.58,-287"/>
<polygon fill="black" stroke="black" points="445.64,-288.71 447.86,-278.35 439.66,-285.06 445.64,-288.71"/>
</g>
<!-- /mandlebrot/render/buffer_size&#45;&gt;/mandlebrot/render/p2p -->
<g id="edge6" class="edge">
<title>/mandlebrot/render/buffer_size:e&#45;&gt;/mandlebrot/render/p2p:w</title>
<path fill="none" stroke="black" d="M431.86,-278.35C444.32,-278.35 434.82,-262.88 439.86,-251.48 451.47,-225.24 446.8,-196.56 467.67,-190"/>
<polygon fill="black" stroke="black" points="468.42,-193.43 477.86,-188.61 467.48,-186.49 468.42,-193.43"/>
<text text-anchor="middle" x="463.86" y="-192.41" font-family="Times,serif" font-size="14.00">size</text>
</g>
<!-- /mandlebrot/render/buffer_size&#45;&gt;/mandlebrot/render/buffer_size -->
<g id="edge5" class="edge">
<title>/mandlebrot/render/buffer_size:e&#45;&gt;/mandlebrot/render/buffer_size:w</title>
<path fill="none" stroke="black" d="M430.86,-278.35C448.33,-300.64 448.33,-345.22 363.86,-345.22 289.29,-345.22 280.55,-310.48 291.55,-287"/>
<polygon fill="black" stroke="black" points="294.61,-288.7 296.86,-278.35 288.64,-285.04 294.61,-288.7"/>
</g>
<!-- /mandlebrot/render/image_buffer -->
<g id="node9" class="node">
<title>/mandlebrot/render/image_buffer</title>
<g id="a_node9"><a xlink:href="../../flowr/src/lib/flowruntime/image/image_buffer.html" xlink:title="image_buffer">
<ellipse fill="coral" stroke="black" cx="540.86" cy="-18" rx="71.49" ry="18"/>
<text text-anchor="middle" x="540.86" y="-14.3" font-family="Times,serif" font-size="14.00">image_buffer</text>
</a>
</g>
</g>
<!-- /mandlebrot/render/p2v&#45;&gt;/mandlebrot/render/image_buffer -->
<g id="edge15" class="edge">
<title>/mandlebrot/render/p2v:e&#45;&gt;/mandlebrot/render/image_buffer:ne</title>
<path fill="none" stroke="black" d="M623.86,-98.87C635.81,-98.87 629.12,-82.18 622.86,-72 607.53,-47.05 586.64,-56.4 565.82,-42.56"/>
<polygon fill="black" stroke="black" points="567.8,-39.66 557.86,-36 563.35,-45.06 567.8,-39.66"/>
<text text-anchor="middle" x="586.51" y="-41.95" font-family="Times,serif" font-size="14.00">[0]</text>
<text text-anchor="middle" x="540.36" y="-39.8" font-family="Times,serif" font-size="14.00">pixel</text>
</g>
<!-- /mandlebrot/render/p2v&#45;&gt;/mandlebrot/render/image_buffer -->
<g id="edge16" class="edge">
<title>/mandlebrot/render/p2v:e&#45;&gt;/mandlebrot/render/image_buffer:n</title>
<path fill="none" stroke="black" d="M623.86,-98.87C635.81,-98.87 629.58,-81.88 622.86,-72 602.75,-42.43 552.59,-69.06 542.6,-45.91"/>
<polygon fill="black" stroke="black" points="546.04,-45.24 540.86,-36 539.14,-46.46 546.04,-45.24"/>
<text text-anchor="middle" x="572.77" y="-60.35" font-family="Times,serif" font-size="14.00">[1]</text>
<text text-anchor="middle" x="521.36" y="-39.8" font-family="Times,serif" font-size="14.00">value</text>
</g>
<!-- /mandlebrot/render/filename_buffer&#45;&gt;/mandlebrot/render/image_buffer -->
<g id="edge11" class="edge">
<title>/mandlebrot/render/filename_buffer:e&#45;&gt;/mandlebrot/render/image_buffer:nw</title>
<path fill="none" stroke="black" d="M242.86,-188.61C323,-188.61 348.34,-174.6 411.86,-125.74 435.05,-107.9 427.56,-90.94 449.86,-72 474.91,-50.73 493.8,-59.5 516.14,-42.74"/>
<polygon fill="black" stroke="black" points="518.63,-45.21 523.86,-36 514.02,-39.94 518.63,-45.21"/>
<text text-anchor="middle" x="493.36" y="-39.8" font-family="Times,serif" font-size="14.00">filename</text>
</g>
<!-- /mandlebrot/render/filename_buffer&#45;&gt;/mandlebrot/render/filename_buffer -->
<g id="edge10" class="edge">
<title>/mandlebrot/render/filename_buffer:e&#45;&gt;/mandlebrot/render/filename_buffer:w</title>
<path fill="none" stroke="black" d="M241.86,-188.61C259.66,-212.23 259.66,-259.48 151.86,-259.48 56.27,-259.48 45.44,-222.33 56.63,-197.44"/>
<polygon fill="black" stroke="black" points="59.77,-199 61.86,-188.61 53.75,-195.43 59.77,-199"/>
</g>
<!-- /mandlebrot/render/size_buffer&#45;&gt;/mandlebrot/render/image_buffer -->
<g id="edge14" class="edge">
<title>/mandlebrot/render/size_buffer:e&#45;&gt;/mandlebrot/render/image_buffer:w</title>
<path fill="none" stroke="black" d="M404.86,-98.87C417.94,-98.87 409.6,-82.88 416.86,-72 433.11,-47.65 434.68,-24.02 457.85,-18.98"/>
<polygon fill="black" stroke="black" points="458.25,-22.46 467.86,-18 457.57,-15.5 458.25,-22.46"/>
<text text-anchor="middle" x="453.86" y="-21.8" font-family="Times,serif" font-size="14.00">size</text>
</g>
<!-- /mandlebrot/render/size_buffer&#45;&gt;/mandlebrot/render/size_buffer -->
<g id="edge13" class="edge">
<title>/mandlebrot/render/size_buffer:e&#45;&gt;/mandlebrot/render/size_buffer:w</title>
<path fill="none" stroke="black" d="M403.86,-98.87C421.33,-121.16 421.33,-165.74 336.86,-165.74 262.29,-165.74 253.55,-131 264.55,-107.52"/>
<polygon fill="black" stroke="black" points="267.61,-109.22 269.86,-98.87 261.64,-105.56 267.61,-109.22"/>
</g>
</g>
</svg>
