<?xml version="1.0" encoding="UTF-8" standalone="no"?>
<!DOCTYPE svg PUBLIC "-//W3C//DTD SVG 1.1//EN"
 "http://www.w3.org/Graphics/SVG/1.1/DTD/svg11.dtd">
<!-- Generated by graphviz version 2.40.1 (0)
 -->
<!-- Title: render Pages: 1 -->
<svg width="637pt" height="133pt"
 viewBox="28.80 28.80 608.42 104.14" xmlns="http://www.w3.org/2000/svg" xmlns:xlink="http://www.w3.org/1999/xlink">
<g id="graph0" class="graph" transform="scale(1 1) rotate(0) translate(32.8 100.1398)">
<title>render</title>
<polygon fill="#ffffff" stroke="transparent" points="-4,4 -4,-71.3398 575.6182,-71.3398 575.6182,4 -4,4"/>
<text text-anchor="middle" x="285.8091" y="-52.1398" font-family="Times,serif" font-size="14.00" fill="#000000">render</text>
<!-- /mandlebrot/render/bounds -->
<g id="node1" class="node">
<title>/mandlebrot/render/bounds</title>
<polygon fill="#000000" stroke="#000000" points="-.1297,-18.1564 54.6294,-5.7187 109.3884,-18.1564 109.3373,-38.2811 -.0786,-38.2811 -.1297,-18.1564"/>
<text text-anchor="middle" x="54.6294" y="-20.0188" font-family="Times,serif" font-size="14.00" fill="#ffffff">bounds</text>
</g>
<!-- /mandlebrot/render/bounds&#45;&gt;/mandlebrot/render/bounds -->
<g id="edge1" class="edge">
<title>/mandlebrot/render/bounds:s&#45;&gt;/mandlebrot/render/bounds:n</title>
<path fill="none" stroke="#000000" d="M54.6294,-5.7188C78.8391,3.2813 127.2587,3.2813 127.2587,-22.2187 127.2587,-44.6309 89.8557,-47.3448 64.3604,-41.5631"/>
<polygon fill="#000000" stroke="#000000" points="65.2097,-38.1649 54.6294,-38.7188 63.2458,-44.8838 65.2097,-38.1649"/>
</g>
<!-- /mandlebrot/render/upper_left -->
<g id="node2" class="node">
<title>/mandlebrot/render/upper_left</title>
<polygon fill="#ffffff" stroke="#000000" points="288.1297,-29.2811 216.6294,-41.7188 145.129,-29.2811 145.1957,-9.1564 288.063,-9.1564 288.1297,-29.2811"/>
<text text-anchor="middle" x="216.6294" y="-20.0188" font-family="Times,serif" font-size="14.00" fill="#000000">upper_left</text>
</g>
<!-- /mandlebrot/render/lower_right -->
<g id="node3" class="node">
<title>/mandlebrot/render/lower_right</title>
<polygon fill="#ffffff" stroke="#000000" points="463.5911,-29.2811 384.6294,-41.7188 305.6676,-29.2811 305.7413,-9.1564 463.5174,-9.1564 463.5911,-29.2811"/>
<text text-anchor="middle" x="384.6294" y="-20.0188" font-family="Times,serif" font-size="14.00" fill="#000000">lower_right</text>
</g>
<!-- /mandlebrot/render/bytes -->
<g id="node4" class="node">
<title>/mandlebrot/render/bytes</title>
<polygon fill="#000000" stroke="#000000" points="481.6516,-18.1564 526.6294,-5.7187 571.6071,-18.1564 571.5651,-38.2811 481.6936,-38.2811 481.6516,-18.1564"/>
<text text-anchor="middle" x="526.6294" y="-20.0188" font-family="Times,serif" font-size="14.00" fill="#ffffff">bytes</text>
</g>
</g>
</svg>
