<?xml version="1.0" encoding="UTF-8" standalone="no"?>
<!DOCTYPE svg PUBLIC "-//W3C//DTD SVG 1.1//EN"
 "http://www.w3.org/Graphics/SVG/1.1/DTD/svg11.dtd">
<!-- Generated by graphviz version 2.40.1 (20161225.0304)
 -->
<!-- Title: render Pages: 1 -->
<svg width="756pt" height="466pt"
 viewBox="28.80 28.80 727.44 437.02" xmlns="http://www.w3.org/2000/svg" xmlns:xlink="http://www.w3.org/1999/xlink">
<g id="page0,1_graph0" class="graph" transform="scale(1 1) rotate(0) translate(32.8 433.0203)">
<title>render</title>
<polygon fill="#ffffff" stroke="transparent" points="-4,4 -4,-404.2203 694.6351,-404.2203 694.6351,4 -4,4"/>
<text text-anchor="middle" x="345.3176" y="-385.0203" font-family="Times,serif" font-size="14.00" fill="#000000">render</text>
<!-- /mandlebrot/render/filename -->
<g id="node1" class="node">
<title>/mandlebrot/render/filename</title>
<polygon fill="#ffffff" stroke="#000000" points="125.4897,-364.7827 62.6631,-377.2203 -.1635,-364.7827 -.1049,-344.658 125.431,-344.658 125.4897,-364.7827"/>
<text text-anchor="middle" x="62.6631" y="-355.5203" font-family="Times,serif" font-size="14.00" fill="#000000">filename</text>
</g>
<!-- /mandlebrot/render/filename_buffer -->
<g id="node10" class="node">
<title>/mandlebrot/render/filename_buffer</title>
<g id="a_node10"><a xlink:href="../../flowstdlib/data/buffer/buffer.html" xlink:title="filename_buffer\n(buffer)">
<ellipse fill="#ff7f50" stroke="#000000" cx="154.6631" cy="-188.6102" rx="91.4341" ry="26.7407"/>
<text text-anchor="middle" x="154.6631" y="-192.4102" font-family="Times,serif" font-size="14.00" fill="#000000">filename_buffer</text>
<text text-anchor="middle" x="154.6631" y="-177.4102" font-family="Times,serif" font-size="14.00" fill="#000000">(buffer)</text>
</a>
</g>
</g>
<!-- /mandlebrot/render/filename&#45;&gt;/mandlebrot/render/filename_buffer -->
<g id="edge9" class="edge">
<title>/mandlebrot/render/filename:s&#45;&gt;/mandlebrot/render/filename_buffer:w</title>
<path fill="none" stroke="#000000" d="M62.6631,-344.2203C62.6631,-278.8425 .8606,-198.0139 52.5236,-189.3689"/>
<polygon fill="#000000" stroke="#000000" points="52.9521,-192.8467 62.6631,-188.6102 52.4298,-185.8662 52.9521,-192.8467"/>
</g>
<!-- /mandlebrot/render/size -->
<g id="node2" class="node">
<title>/mandlebrot/render/size</title>
<polygon fill="#ffffff" stroke="#000000" points="322.8605,-364.7827 287.6631,-377.2203 252.4656,-364.7827 252.4985,-344.658 322.8277,-344.658 322.8605,-364.7827"/>
<text text-anchor="middle" x="287.6631" y="-355.5203" font-family="Times,serif" font-size="14.00" fill="#000000">size</text>
</g>
<!-- /mandlebrot/render/buffer_size -->
<g id="node7" class="node">
<title>/mandlebrot/render/buffer_size</title>
<g id="a_node7"><a xlink:href="../../flowstdlib/data/buffer/buffer.html" xlink:title="buffer_size\n(buffer)">
<ellipse fill="#ff7f50" stroke="#000000" cx="368.6631" cy="-278.3503" rx="67.3507" ry="26.7407"/>
<text text-anchor="middle" x="368.6631" y="-282.1503" font-family="Times,serif" font-size="14.00" fill="#000000">buffer_size</text>
<text text-anchor="middle" x="368.6631" y="-267.1503" font-family="Times,serif" font-size="14.00" fill="#000000">(buffer)</text>
</a>
</g>
</g>
<!-- /mandlebrot/render/size&#45;&gt;/mandlebrot/render/buffer_size -->
<g id="edge4" class="edge">
<title>/mandlebrot/render/size:s&#45;&gt;/mandlebrot/render/buffer_size:w</title>
<path fill="none" stroke="#000000" d="M287.6631,-344.2203C287.6631,-332.5291 287.0742,-298.9015 293.9524,-284.7489"/>
<polygon fill="#000000" stroke="#000000" points="296.2027,-287.4297 301.6631,-278.3503 291.7325,-282.0429 296.2027,-287.4297"/>
</g>
<!-- /mandlebrot/render/size_buffer -->
<g id="node11" class="node">
<title>/mandlebrot/render/size_buffer</title>
<g id="a_node11"><a xlink:href="../../flowstdlib/data/buffer/buffer.html" xlink:title="size_buffer\n(buffer)">
<ellipse fill="#ff7f50" stroke="#000000" cx="340.6631" cy="-98.8701" rx="67.3507" ry="26.7407"/>
<text text-anchor="middle" x="340.6631" y="-102.6701" font-family="Times,serif" font-size="14.00" fill="#000000">size_buffer</text>
<text text-anchor="middle" x="340.6631" y="-87.6701" font-family="Times,serif" font-size="14.00" fill="#000000">(buffer)</text>
</a>
</g>
</g>
<!-- /mandlebrot/render/size&#45;&gt;/mandlebrot/render/size_buffer -->
<g id="edge12" class="edge">
<title>/mandlebrot/render/size:s&#45;&gt;/mandlebrot/render/size_buffer:w</title>
<path fill="none" stroke="#000000" d="M287.6631,-344.2203C287.6631,-319.9547 255.0426,-145.0551 266.9429,-106.4133"/>
<polygon fill="#000000" stroke="#000000" points="269.6244,-108.665 273.6631,-98.8701 264.3977,-104.0086 269.6244,-108.665"/>
</g>
<!-- /mandlebrot/render/bounds -->
<g id="node3" class="node">
<title>/mandlebrot/render/bounds</title>
<polygon fill="#ffffff" stroke="#000000" points="508.4221,-364.7827 453.6631,-377.2203 398.9041,-364.7827 398.9552,-344.658 508.371,-344.658 508.4221,-364.7827"/>
<text text-anchor="middle" x="453.6631" y="-355.5203" font-family="Times,serif" font-size="14.00" fill="#000000">bounds</text>
</g>
<!-- /mandlebrot/render/buffer_bounds -->
<g id="node6" class="node">
<title>/mandlebrot/render/buffer_bounds</title>
<g id="a_node6"><a xlink:href="../../flowstdlib/data/buffer/buffer.html" xlink:title="buffer_bounds\n(buffer)">
<ellipse fill="#ff7f50" stroke="#000000" cx="537.6631" cy="-278.3503" rx="84.2917" ry="26.7407"/>
<text text-anchor="middle" x="537.6631" y="-282.1503" font-family="Times,serif" font-size="14.00" fill="#000000">buffer_bounds</text>
<text text-anchor="middle" x="537.6631" y="-267.1503" font-family="Times,serif" font-size="14.00" fill="#000000">(buffer)</text>
</a>
</g>
</g>
<!-- /mandlebrot/render/bounds&#45;&gt;/mandlebrot/render/buffer_bounds -->
<g id="edge1" class="edge">
<title>/mandlebrot/render/bounds:s&#45;&gt;/mandlebrot/render/buffer_bounds:w</title>
<path fill="none" stroke="#000000" d="M453.6631,-344.2203C453.6631,-333.242 445.4293,-301.6793 447.4878,-286.584"/>
<polygon fill="#000000" stroke="#000000" points="450.4631,-288.4503 453.6631,-278.3503 444.863,-284.2503 450.4631,-288.4503"/>
</g>
<!-- /mandlebrot/render/pixel -->
<g id="node4" class="node">
<title>/mandlebrot/render/pixel</title>
<polygon fill="#ffffff" stroke="#000000" points="690.6071,-364.7827 649.6631,-377.2203 608.719,-364.7827 608.7572,-344.658 690.5689,-344.658 690.6071,-364.7827"/>
<text text-anchor="middle" x="649.6631" y="-355.5203" font-family="Times,serif" font-size="14.00" fill="#000000">pixel</text>
</g>
<!-- /mandlebrot/render/p2p -->
<g id="node5" class="node">
<title>/mandlebrot/render/p2p</title>
<g id="a_node5"><a xlink:href="../../samples/mandlebrot/pixel_to_point/pixel_to_point.html" xlink:title="p2p\n(pixel_to_point)">
<ellipse fill="#ff7f50" stroke="#000000" cx="573.6631" cy="-188.6102" rx="90.5193" ry="26.7407"/>
<text text-anchor="middle" x="573.6631" y="-192.4102" font-family="Times,serif" font-size="14.00" fill="#000000">p2p</text>
<text text-anchor="middle" x="573.6631" y="-177.4102" font-family="Times,serif" font-size="14.00" fill="#000000">(pixel_to_point)</text>
</a>
</g>
</g>
<!-- /mandlebrot/render/pixel&#45;&gt;/mandlebrot/render/p2p -->
<g id="edge7" class="edge">
<title>/mandlebrot/render/pixel:s&#45;&gt;/mandlebrot/render/p2p:ne</title>
<path fill="none" stroke="#000000" d="M649.6631,-344.2203C649.6631,-302.1464 648.9865,-289.3546 630.6631,-251.4802 623.0147,-235.671 617.2411,-231.1754 607.0567,-221.7138"/>
<polygon fill="#000000" stroke="#000000" points="609.2991,-219.0146 599.6631,-214.6102 604.4493,-224.0623 609.2991,-219.0146"/>
<text text-anchor="middle" x="582.1631" y="-218.4102" font-family="Times,serif" font-size="14.00" fill="#000000">pixel</text>
</g>
<!-- /mandlebrot/render/p2v -->
<g id="node8" class="node">
<title>/mandlebrot/render/p2v</title>
<g id="a_node8"><a xlink:href="../../samples/mandlebrot/render_pixel/render_pixel.html" xlink:title="p2v\n(render_pixel)">
<ellipse fill="#ff7f50" stroke="#000000" cx="546.6631" cy="-98.8701" rx="82.9636" ry="26.7407"/>
<text text-anchor="middle" x="546.6631" y="-102.6701" font-family="Times,serif" font-size="14.00" fill="#000000">p2v</text>
<text text-anchor="middle" x="546.6631" y="-87.6701" font-family="Times,serif" font-size="14.00" fill="#000000">(render_pixel)</text>
</a>
</g>
</g>
<!-- /mandlebrot/render/p2p&#45;&gt;/mandlebrot/render/p2v -->
<g id="edge8" class="edge">
<title>/mandlebrot/render/p2p:e&#45;&gt;/mandlebrot/render/p2v:ne</title>
<path fill="none" stroke="#000000" d="M664.6631,-188.6102C676.6053,-188.6102 671.355,-171.6313 664.6631,-161.7401 642.0041,-128.2483 609.6678,-151.4238 580.4207,-131.3569"/>
<polygon fill="#000000" stroke="#000000" points="582.5797,-128.5999 572.6631,-124.8701 578.0893,-133.9699 582.5797,-128.5999"/>
<text text-anchor="middle" x="612.1631" y="-128.6701" font-family="Times,serif" font-size="14.00" fill="#000000">pixel_point</text>
</g>
<!-- /mandlebrot/render/buffer_bounds&#45;&gt;/mandlebrot/render/p2p -->
<g id="edge3" class="edge">
<title>/mandlebrot/render/buffer_bounds:e&#45;&gt;/mandlebrot/render/p2p:n</title>
<path fill="none" stroke="#000000" d="M621.6631,-278.3503C633.6053,-278.3503 627.0038,-262.1617 621.6631,-251.4802 611.6008,-231.3556 584.3467,-238.5468 576.0755,-225.2672"/>
<polygon fill="#000000" stroke="#000000" points="579.4547,-224.3519 573.6631,-215.4802 572.6582,-226.0273 579.4547,-224.3519"/>
<text text-anchor="middle" x="547.6631" y="-219.2802" font-family="Times,serif" font-size="14.00" fill="#000000">bounds</text>
</g>
<!-- /mandlebrot/render/buffer_bounds&#45;&gt;/mandlebrot/render/buffer_bounds -->
<g id="edge2" class="edge">
<title>/mandlebrot/render/buffer_bounds:e&#45;&gt;/mandlebrot/render/buffer_bounds:w</title>
<path fill="none" stroke="#000000" d="M621.6631,-278.3503C639.8088,-300.6403 639.8088,-345.2203 537.6631,-345.2203 447.4876,-345.2203 436.9201,-310.4765 448.1665,-286.9973"/>
<polygon fill="#000000" stroke="#000000" points="451.2523,-288.6672 453.6631,-278.3503 445.3447,-284.912 451.2523,-288.6672"/>
</g>
<!-- /mandlebrot/render/buffer_size&#45;&gt;/mandlebrot/render/p2p -->
<g id="edge6" class="edge">
<title>/mandlebrot/render/buffer_size:e&#45;&gt;/mandlebrot/render/p2p:w</title>
<path fill="none" stroke="#000000" d="M435.6631,-278.3503C448.2574,-278.3503 439.3736,-262.91 444.6631,-251.4802 456.7151,-225.4377 451.7149,-196.6074 472.4942,-190.007"/>
<polygon fill="#000000" stroke="#000000" points="473.2324,-193.4385 482.6631,-188.6102 472.2798,-186.5036 473.2324,-193.4385"/>
<text text-anchor="middle" x="468.6631" y="-192.4102" font-family="Times,serif" font-size="14.00" fill="#000000">size</text>
</g>
<!-- /mandlebrot/render/buffer_size&#45;&gt;/mandlebrot/render/buffer_size -->
<g id="edge5" class="edge">
<title>/mandlebrot/render/buffer_size:e&#45;&gt;/mandlebrot/render/buffer_size:w</title>
<path fill="none" stroke="#000000" d="M435.6631,-278.3503C453.8382,-300.6403 453.8382,-345.2203 368.6631,-345.2203 293.4694,-345.2203 284.6576,-310.4765 296.13,-286.9973"/>
<polygon fill="#000000" stroke="#000000" points="299.2213,-288.6599 301.6631,-278.3503 293.3251,-284.887 299.2213,-288.6599"/>
</g>
<!-- /mandlebrot/render/image_buffer -->
<g id="node9" class="node">
<title>/mandlebrot/render/image_buffer</title>
<g id="a_node9"><a xlink:href="../../flowr/src/lib/flowruntime/image/image_buffer.html" xlink:title="image_buffer">
<ellipse fill="#ff7f50" stroke="#000000" cx="545.6631" cy="-18" rx="72.2875" ry="18"/>
<text text-anchor="middle" x="545.6631" y="-14.3" font-family="Times,serif" font-size="14.00" fill="#000000">image_buffer</text>
</a>
</g>
</g>
<!-- /mandlebrot/render/p2v&#45;&gt;/mandlebrot/render/image_buffer -->
<g id="edge15" class="edge">
<title>/mandlebrot/render/p2v:e&#45;&gt;/mandlebrot/render/image_buffer:ne</title>
<path fill="none" stroke="#000000" d="M629.6631,-98.8701C641.6053,-98.8701 635.7592,-82.2691 629.6631,-72 614.4723,-46.4106 592.7291,-56.5877 571.4632,-42.4288"/>
<polygon fill="#000000" stroke="#000000" points="573.606,-39.6593 563.6631,-36 569.1539,-45.061 573.606,-39.6593"/>
<text text-anchor="middle" x="592.8999" y="-41.7422" font-family="Times,serif" font-size="14.00" fill="#000000">[0]</text>
<text text-anchor="middle" x="546.1631" y="-39.8" font-family="Times,serif" font-size="14.00" fill="#000000">pixel</text>
</g>
<!-- /mandlebrot/render/p2v&#45;&gt;/mandlebrot/render/image_buffer -->
<g id="edge16" class="edge">
<title>/mandlebrot/render/p2v:e&#45;&gt;/mandlebrot/render/image_buffer:n</title>
<path fill="none" stroke="#000000" d="M629.6631,-98.8701C641.6053,-98.8701 636.2372,-81.9699 629.6631,-72 609.5744,-41.5348 557.7786,-69.5389 547.4648,-46.0853"/>
<polygon fill="#000000" stroke="#000000" points="550.8673,-45.2286 545.6631,-36 543.9764,-46.4597 550.8673,-45.2286"/>
<text text-anchor="middle" x="577.2609" y="-60.1838" font-family="Times,serif" font-size="14.00" fill="#000000">[1]</text>
<text text-anchor="middle" x="526.1631" y="-39.8" font-family="Times,serif" font-size="14.00" fill="#000000">value</text>
</g>
<!-- /mandlebrot/render/filename_buffer&#45;&gt;/mandlebrot/render/image_buffer -->
<g id="edge11" class="edge">
<title>/mandlebrot/render/filename_buffer:e&#45;&gt;/mandlebrot/render/image_buffer:nw</title>
<path fill="none" stroke="#000000" d="M246.6631,-188.6102C327.22,-188.6102 352.7664,-174.7974 416.6631,-125.7401 439.8657,-107.9261 432.417,-90.9952 454.6631,-72 479.3797,-50.8953 497.9608,-59.3019 520.0308,-42.6766"/>
<polygon fill="#000000" stroke="#000000" points="522.441,-45.2185 527.6631,-36 517.832,-39.9499 522.441,-45.2185"/>
<text text-anchor="middle" x="496.6631" y="-39.8" font-family="Times,serif" font-size="14.00" fill="#000000">filename</text>
</g>
<!-- /mandlebrot/render/filename_buffer&#45;&gt;/mandlebrot/render/filename_buffer -->
<g id="edge10" class="edge">
<title>/mandlebrot/render/filename_buffer:e&#45;&gt;/mandlebrot/render/filename_buffer:w</title>
<path fill="none" stroke="#000000" d="M246.6631,-188.6102C263.8799,-212.2335 263.8799,-259.4802 154.6631,-259.4802 57.8185,-259.4802 46.8479,-222.3316 57.6086,-197.4448"/>
<polygon fill="#000000" stroke="#000000" points="60.7351,-199.0281 62.6631,-188.6102 54.6592,-195.552 60.7351,-199.0281"/>
</g>
<!-- /mandlebrot/render/size_buffer&#45;&gt;/mandlebrot/render/image_buffer -->
<g id="edge14" class="edge">
<title>/mandlebrot/render/size_buffer:e&#45;&gt;/mandlebrot/render/image_buffer:w</title>
<path fill="none" stroke="#000000" d="M407.6631,-98.8701C421.1291,-98.8701 413.8013,-82.9328 421.6631,-72 438.9116,-48.0137 440.2597,-24.107 463.5734,-18.9985"/>
<polygon fill="#000000" stroke="#000000" points="464.0564,-22.4679 473.6631,-18 463.367,-15.5019 464.0564,-22.4679"/>
<text text-anchor="middle" x="459.6631" y="-21.8" font-family="Times,serif" font-size="14.00" fill="#000000">size</text>
</g>
<!-- /mandlebrot/render/size_buffer&#45;&gt;/mandlebrot/render/size_buffer -->
<g id="edge13" class="edge">
<title>/mandlebrot/render/size_buffer:e&#45;&gt;/mandlebrot/render/size_buffer:w</title>
<path fill="none" stroke="#000000" d="M407.6631,-98.8701C425.8382,-121.1601 425.8382,-165.7401 340.6631,-165.7401 265.4694,-165.7401 256.6576,-130.9963 268.13,-107.5171"/>
<polygon fill="#000000" stroke="#000000" points="271.2213,-109.1797 273.6631,-98.8701 265.3251,-105.4068 271.2213,-109.1797"/>
</g>
</g>
</svg>
