<?xml version="1.0" encoding="UTF-8" standalone="no"?>
<!DOCTYPE svg PUBLIC "-//W3C//DTD SVG 1.1//EN"
 "http://www.w3.org/Graphics/SVG/1.1/DTD/svg11.dtd">
<!-- Generated by graphviz version 2.44.1 (20200629.0846)
 -->
<!-- Title: render Pages: 1 -->
<svg width="645pt" height="466pt"
 viewBox="28.80 28.80 616.56 437.02" xmlns="http://www.w3.org/2000/svg" xmlns:xlink="http://www.w3.org/1999/xlink">
<g id="graph0" class="graph" transform="scale(1 1) rotate(0) translate(32.8 433.02)">
<title>render</title>
<polygon fill="white" stroke="transparent" points="-4,4 -4,-404.22 583.76,-404.22 583.76,4 -4,4"/>
<text text-anchor="middle" x="289.88" y="-385.02" font-family="Times,serif" font-size="14.00">render</text>
<!-- /mandlebrot/render/filename -->
<g id="node1" class="node">
<title>/mandlebrot/render/filename</title>
<polygon fill="white" stroke="black" points="102.75,-364.78 51.42,-377.22 0.08,-364.78 0.13,-344.66 102.7,-344.66 102.75,-364.78"/>
<text text-anchor="middle" x="51.42" y="-355.52" font-family="Times,serif" font-size="14.00">filename</text>
</g>
<!-- /mandlebrot/render/filename_buffer -->
<g id="node10" class="node">
<title>/mandlebrot/render/filename_buffer</title>
<g id="a_node10"><a xlink:href="../../flowstdlib/data/buffer/buffer.html" xlink:title="filename_buffer\n(buffer)">
<ellipse fill="coral" stroke="black" cx="125.42" cy="-188.61" rx="73.58" ry="26.74"/>
<text text-anchor="middle" x="125.42" y="-192.41" font-family="Times,serif" font-size="14.00">filename_buffer</text>
<text text-anchor="middle" x="125.42" y="-177.41" font-family="Times,serif" font-size="14.00">(buffer)</text>
</a>
</g>
</g>
<!-- /mandlebrot/render/filename&#45;&gt;/mandlebrot/render/filename_buffer -->
<g id="edge9" class="edge">
<title>/mandlebrot/render/filename:s&#45;&gt;/mandlebrot/render/filename_buffer:w</title>
<path fill="none" stroke="black" d="M51.42,-343.22C51.42,-278.26 -10.88,-197.95 40.35,-189.36"/>
<polygon fill="black" stroke="black" points="40.71,-192.85 50.42,-188.61 40.18,-185.87 40.71,-192.85"/>
</g>
<!-- /mandlebrot/render/size -->
<g id="node2" class="node">
<title>/mandlebrot/render/size</title>
<polygon fill="white" stroke="black" points="271.97,-364.78 241.42,-377.22 210.86,-364.78 210.89,-344.66 271.94,-344.66 271.97,-364.78"/>
<text text-anchor="middle" x="241.42" y="-355.52" font-family="Times,serif" font-size="14.00">size</text>
</g>
<!-- /mandlebrot/render/buffer_size -->
<g id="node7" class="node">
<title>/mandlebrot/render/buffer_size</title>
<g id="a_node7"><a xlink:href="../../flowstdlib/data/buffer/buffer.html" xlink:title="buffer_size\n(buffer)">
<ellipse fill="coral" stroke="black" cx="309.42" cy="-278.35" rx="54.39" ry="26.74"/>
<text text-anchor="middle" x="309.42" y="-282.15" font-family="Times,serif" font-size="14.00">buffer_size</text>
<text text-anchor="middle" x="309.42" y="-267.15" font-family="Times,serif" font-size="14.00">(buffer)</text>
</a>
</g>
</g>
<!-- /mandlebrot/render/size&#45;&gt;/mandlebrot/render/buffer_size -->
<g id="edge4" class="edge">
<title>/mandlebrot/render/size:s&#45;&gt;/mandlebrot/render/buffer_size:w</title>
<path fill="none" stroke="black" d="M241.42,-343.22C241.42,-331.88 239.82,-299.28 245.89,-285.08"/>
<polygon fill="black" stroke="black" points="248.3,-287.63 253.42,-278.35 243.63,-282.41 248.3,-287.63"/>
</g>
<!-- /mandlebrot/render/size_buffer -->
<g id="node11" class="node">
<title>/mandlebrot/render/size_buffer</title>
<g id="a_node11"><a xlink:href="../../flowstdlib/data/buffer/buffer.html" xlink:title="size_buffer\n(buffer)">
<ellipse fill="coral" stroke="black" cx="282.42" cy="-98.87" rx="54.39" ry="26.74"/>
<text text-anchor="middle" x="282.42" y="-102.67" font-family="Times,serif" font-size="14.00">size_buffer</text>
<text text-anchor="middle" x="282.42" y="-87.67" font-family="Times,serif" font-size="14.00">(buffer)</text>
</a>
</g>
</g>
<!-- /mandlebrot/render/size&#45;&gt;/mandlebrot/render/size_buffer -->
<g id="edge12" class="edge">
<title>/mandlebrot/render/size:s&#45;&gt;/mandlebrot/render/size_buffer:w</title>
<path fill="none" stroke="black" d="M241.42,-343.22C241.42,-319.05 208.09,-144.87 219.76,-106.38"/>
<polygon fill="black" stroke="black" points="222.4,-108.68 226.42,-98.87 217.16,-104.03 222.4,-108.68"/>
</g>
<!-- /mandlebrot/render/bounds -->
<g id="node3" class="node">
<title>/mandlebrot/render/bounds</title>
<polygon fill="white" stroke="black" points="427.39,-364.78 382.42,-377.22 337.44,-364.78 337.48,-344.66 427.35,-344.66 427.39,-364.78"/>
<text text-anchor="middle" x="382.42" y="-355.52" font-family="Times,serif" font-size="14.00">bounds</text>
</g>
<!-- /mandlebrot/render/buffer_bounds -->
<g id="node6" class="node">
<title>/mandlebrot/render/buffer_bounds</title>
<g id="a_node6"><a xlink:href="../../flowstdlib/data/buffer/buffer.html" xlink:title="buffer_bounds\n(buffer)">
<ellipse fill="coral" stroke="black" cx="449.42" cy="-278.35" rx="67.35" ry="26.74"/>
<text text-anchor="middle" x="449.42" y="-282.15" font-family="Times,serif" font-size="14.00">buffer_bounds</text>
<text text-anchor="middle" x="449.42" y="-267.15" font-family="Times,serif" font-size="14.00">(buffer)</text>
</a>
</g>
</g>
<!-- /mandlebrot/render/bounds&#45;&gt;/mandlebrot/render/buffer_bounds -->
<g id="edge1" class="edge">
<title>/mandlebrot/render/bounds:s&#45;&gt;/mandlebrot/render/buffer_bounds:w</title>
<path fill="none" stroke="black" d="M382.42,-343.22C382.42,-332.41 373.74,-301.32 375.49,-286.46"/>
<polygon fill="black" stroke="black" points="378.34,-288.49 381.42,-278.35 372.69,-284.36 378.34,-288.49"/>
</g>
<!-- /mandlebrot/render/pixel -->
<g id="node4" class="node">
<title>/mandlebrot/render/pixel</title>
<polygon fill="white" stroke="black" points="579.61,-364.78 544.42,-377.22 509.22,-364.78 509.25,-344.66 579.58,-344.66 579.61,-364.78"/>
<text text-anchor="middle" x="544.42" y="-355.52" font-family="Times,serif" font-size="14.00">pixel</text>
</g>
<!-- /mandlebrot/render/p2p -->
<g id="node5" class="node">
<title>/mandlebrot/render/p2p</title>
<g id="a_node5"><a xlink:href="../../samples/mandlebrot/pixel_to_point/pixel_to_point.html" xlink:title="p2p\n(pixel_to_point)">
<ellipse fill="coral" stroke="black" cx="477.42" cy="-188.61" rx="73.58" ry="26.74"/>
<text text-anchor="middle" x="477.42" y="-192.41" font-family="Times,serif" font-size="14.00">p2p</text>
<text text-anchor="middle" x="477.42" y="-177.41" font-family="Times,serif" font-size="14.00">(pixel_to_point)</text>
</a>
</g>
</g>
<!-- /mandlebrot/render/pixel&#45;&gt;/mandlebrot/render/p2p -->
<g id="edge7" class="edge">
<title>/mandlebrot/render/pixel:s&#45;&gt;/mandlebrot/render/p2p:ne</title>
<path fill="none" stroke="black" d="M544.42,-343.22C544.42,-286.61 544.88,-260.29 509.46,-221.92"/>
<polygon fill="black" stroke="black" points="511.87,-219.39 502.42,-214.61 506.83,-224.24 511.87,-219.39"/>
<text text-anchor="middle" x="488.42" y="-218.41" font-family="Times,serif" font-size="14.00">pixel</text>
</g>
<!-- /mandlebrot/render/p2v -->
<g id="node8" class="node">
<title>/mandlebrot/render/p2v</title>
<g id="a_node8"><a xlink:href="../../samples/mandlebrot/render_pixel/render_pixel.html" xlink:title="p2v\n(render_pixel)">
<ellipse fill="coral" stroke="black" cx="458.42" cy="-98.87" rx="66.44" ry="26.74"/>
<text text-anchor="middle" x="458.42" y="-102.67" font-family="Times,serif" font-size="14.00">p2v</text>
<text text-anchor="middle" x="458.42" y="-87.67" font-family="Times,serif" font-size="14.00">(render_pixel)</text>
</a>
</g>
</g>
<!-- /mandlebrot/render/p2p&#45;&gt;/mandlebrot/render/p2v -->
<g id="edge8" class="edge">
<title>/mandlebrot/render/p2p:e&#45;&gt;/mandlebrot/render/p2v:ne</title>
<path fill="none" stroke="black" d="M552.42,-188.61C564.37,-188.61 557.72,-171.89 551.42,-161.74 535.2,-135.61 513.03,-146.18 491.14,-131.3"/>
<polygon fill="black" stroke="black" points="493.34,-128.58 483.42,-124.87 488.86,-133.96 493.34,-128.58"/>
<text text-anchor="middle" x="514.42" y="-128.67" font-family="Times,serif" font-size="14.00">pixel_point</text>
</g>
<!-- /mandlebrot/render/buffer_bounds&#45;&gt;/mandlebrot/render/p2p -->
<g id="edge3" class="edge">
<title>/mandlebrot/render/buffer_bounds:e&#45;&gt;/mandlebrot/render/p2p:n</title>
<path fill="none" stroke="black" d="M517.42,-278.35C529.37,-278.35 521.41,-262.34 516.42,-251.48 508.33,-233.9 487.27,-236.81 479.96,-225.4"/>
<polygon fill="black" stroke="black" points="483.29,-224.3 477.42,-215.48 476.51,-226.04 483.29,-224.3"/>
<text text-anchor="middle" x="457.42" y="-219.28" font-family="Times,serif" font-size="14.00">bounds</text>
</g>
<!-- /mandlebrot/render/buffer_bounds&#45;&gt;/mandlebrot/render/buffer_bounds -->
<g id="edge2" class="edge">
<title>/mandlebrot/render/buffer_bounds:e&#45;&gt;/mandlebrot/render/buffer_bounds:w</title>
<path fill="none" stroke="black" d="M516.42,-278.35C534.59,-300.64 534.59,-345.22 449.42,-345.22 374.22,-345.22 365.41,-310.48 376.88,-287"/>
<polygon fill="black" stroke="black" points="379.97,-288.66 382.42,-278.35 374.08,-284.89 379.97,-288.66"/>
</g>
<!-- /mandlebrot/render/buffer_size&#45;&gt;/mandlebrot/render/p2p -->
<g id="edge6" class="edge">
<title>/mandlebrot/render/buffer_size:e&#45;&gt;/mandlebrot/render/p2p:w</title>
<path fill="none" stroke="black" d="M365.42,-278.35C377.88,-278.35 369.02,-263.14 373.42,-251.48 382.84,-226.51 374.59,-197.57 392.3,-190.32"/>
<polygon fill="black" stroke="black" points="393.14,-193.73 402.42,-188.61 391.97,-186.83 393.14,-193.73"/>
<text text-anchor="middle" x="391.42" y="-192.41" font-family="Times,serif" font-size="14.00">size</text>
</g>
<!-- /mandlebrot/render/buffer_size&#45;&gt;/mandlebrot/render/buffer_size -->
<g id="edge5" class="edge">
<title>/mandlebrot/render/buffer_size:e&#45;&gt;/mandlebrot/render/buffer_size:w</title>
<path fill="none" stroke="black" d="M364.42,-278.35C381.86,-300.64 381.86,-345.22 309.42,-345.22 245.46,-345.22 237.96,-310.48 249.09,-287"/>
<polygon fill="black" stroke="black" points="252.15,-288.7 254.42,-278.35 246.19,-285.03 252.15,-288.7"/>
</g>
<!-- /mandlebrot/render/image_buffer -->
<g id="node9" class="node">
<title>/mandlebrot/render/image_buffer</title>
<g id="a_node9"><a xlink:href="../../flowr/src/lib/flowruntime/image/image_buffer.html" xlink:title="image_buffer">
<ellipse fill="coral" stroke="black" cx="452.42" cy="-18" rx="58.49" ry="18"/>
<text text-anchor="middle" x="452.42" y="-14.3" font-family="Times,serif" font-size="14.00">image_buffer</text>
</a>
</g>
</g>
<!-- /mandlebrot/render/p2v&#45;&gt;/mandlebrot/render/image_buffer -->
<g id="edge15" class="edge">
<title>/mandlebrot/render/p2v:e&#45;&gt;/mandlebrot/render/image_buffer:ne</title>
<path fill="none" stroke="black" d="M526.42,-98.87C538.37,-98.87 531.34,-82.38 525.42,-72 512.59,-49.51 495.35,-54.83 477.23,-42.5"/>
<polygon fill="black" stroke="black" points="479.34,-39.71 469.42,-36 474.86,-45.09 479.34,-39.71"/>
<text text-anchor="middle" x="495.69" y="-42.38" font-family="Times,serif" font-size="14.00">[0]</text>
<text text-anchor="middle" x="455.42" y="-39.8" font-family="Times,serif" font-size="14.00">pixel</text>
</g>
<!-- /mandlebrot/render/p2v&#45;&gt;/mandlebrot/render/image_buffer -->
<g id="edge16" class="edge">
<title>/mandlebrot/render/p2v:e&#45;&gt;/mandlebrot/render/image_buffer:n</title>
<path fill="none" stroke="black" d="M526.42,-98.87C538.37,-98.87 531.91,-82.03 525.42,-72 507.97,-45.08 464.07,-66.04 454.34,-45.91"/>
<polygon fill="black" stroke="black" points="457.76,-45.15 452.42,-36 450.89,-46.48 457.76,-45.15"/>
<text text-anchor="middle" x="482.37" y="-60.38" font-family="Times,serif" font-size="14.00">[1]</text>
<text text-anchor="middle" x="437.42" y="-39.8" font-family="Times,serif" font-size="14.00">value</text>
</g>
<!-- /mandlebrot/render/filename_buffer&#45;&gt;/mandlebrot/render/image_buffer -->
<g id="edge11" class="edge">
<title>/mandlebrot/render/filename_buffer:e&#45;&gt;/mandlebrot/render/image_buffer:nw</title>
<path fill="none" stroke="black" d="M200.42,-188.61C270.66,-188.61 290.9,-170.03 345.42,-125.74 368.12,-107.3 362.63,-92.58 383.42,-72 400.74,-54.85 412.17,-55.32 427.87,-42.78"/>
<polygon fill="black" stroke="black" points="430.32,-45.29 435.42,-36 425.64,-40.08 430.32,-45.29"/>
<text text-anchor="middle" x="411.42" y="-39.8" font-family="Times,serif" font-size="14.00">filename</text>
</g>
<!-- /mandlebrot/render/filename_buffer&#45;&gt;/mandlebrot/render/filename_buffer -->
<g id="edge10" class="edge">
<title>/mandlebrot/render/filename_buffer:e&#45;&gt;/mandlebrot/render/filename_buffer:w</title>
<path fill="none" stroke="black" d="M199.42,-188.61C216.95,-212.23 216.95,-259.48 125.42,-259.48 44.25,-259.48 35.05,-222.33 46.24,-197.44"/>
<polygon fill="black" stroke="black" points="49.38,-199.01 51.42,-188.61 43.34,-195.47 49.38,-199.01"/>
</g>
<!-- /mandlebrot/render/size_buffer&#45;&gt;/mandlebrot/render/image_buffer -->
<g id="edge14" class="edge">
<title>/mandlebrot/render/size_buffer:e&#45;&gt;/mandlebrot/render/image_buffer:w</title>
<path fill="none" stroke="black" d="M338.42,-98.87C351.49,-98.87 343.69,-83.21 350.42,-72 364.04,-49.29 362.73,-25.17 382.26,-19.33"/>
<polygon fill="black" stroke="black" points="382.95,-22.77 392.42,-18 382.05,-15.83 382.95,-22.77"/>
<text text-anchor="middle" x="381.42" y="-21.8" font-family="Times,serif" font-size="14.00">size</text>
</g>
<!-- /mandlebrot/render/size_buffer&#45;&gt;/mandlebrot/render/size_buffer -->
<g id="edge13" class="edge">
<title>/mandlebrot/render/size_buffer:e&#45;&gt;/mandlebrot/render/size_buffer:w</title>
<path fill="none" stroke="black" d="M337.42,-98.87C354.86,-121.16 354.86,-165.74 282.42,-165.74 218.46,-165.74 210.96,-131 222.09,-107.52"/>
<polygon fill="black" stroke="black" points="225.15,-109.22 227.42,-98.87 219.19,-105.55 225.15,-109.22"/>
</g>
</g>
</svg>
