<?xml version="1.0" encoding="UTF-8" standalone="no"?>
<!DOCTYPE svg PUBLIC "-//W3C//DTD SVG 1.1//EN"
 "http://www.w3.org/Graphics/SVG/1.1/DTD/svg11.dtd">
<!-- Generated by graphviz version 2.44.1 (20200629.0846)
 -->
<!-- Title: y_sequence Pages: 1 -->
<svg width="1131pt" height="424pt"
 viewBox="28.80 28.80 1102.16 395.54" xmlns="http://www.w3.org/2000/svg" xmlns:xlink="http://www.w3.org/1999/xlink">
<g id="graph0" class="graph" transform="scale(1 1) rotate(0) translate(32.8 391.54)">
<title>y_sequence</title>
<polygon fill="white" stroke="transparent" points="-4,4 -4,-362.74 1069.36,-362.74 1069.36,4 -4,4"/>
<text text-anchor="middle" x="532.68" y="-343.54" font-family="Times,serif" font-size="14.00">y&#45;sequence</text>
<!-- /mandlebrot/generate_pixels/y&#45;sequence/start -->
<g id="node1" class="node">
<title>/mandlebrot/generate_pixels/y&#45;sequence/start</title>
<polygon fill="white" stroke="black" points="549.85,-323.3 517.58,-335.74 485.31,-323.3 485.34,-303.18 549.82,-303.18 549.85,-323.3"/>
<text text-anchor="middle" x="517.58" y="-314.04" font-family="Times,serif" font-size="14.00">start</text>
</g>
<!-- /mandlebrot/generate_pixels/y&#45;sequence/compare -->
<g id="node6" class="node">
<title>/mandlebrot/generate_pixels/y&#45;sequence/compare</title>
<g id="a_node6"><a xlink:href="../../flowstdlib/control/compare_switch/compare_switch.html" xlink:title="compare\n(compare_switch)">
<ellipse fill="coral" stroke="black" cx="562.58" cy="-167.87" rx="81.13" ry="26.74"/>
<text text-anchor="middle" x="562.58" y="-171.67" font-family="Times,serif" font-size="14.00">compare</text>
<text text-anchor="middle" x="562.58" y="-156.67" font-family="Times,serif" font-size="14.00">(compare_switch)</text>
</a>
</g>
</g>
<!-- /mandlebrot/generate_pixels/y&#45;sequence/start&#45;&gt;/mandlebrot/generate_pixels/y&#45;sequence/compare -->
<g id="edge3" class="edge">
<title>/mandlebrot/generate_pixels/y&#45;sequence/start:s&#45;&gt;/mandlebrot/generate_pixels/y&#45;sequence/compare:ne</title>
<path fill="none" stroke="black" d="M517.58,-301.74C517.58,-248.68 613.83,-236.68 594.94,-202.82"/>
<polygon fill="black" stroke="black" points="597.51,-200.44 588.58,-194.74 592.01,-204.76 597.51,-200.44"/>
<text text-anchor="middle" x="575.58" y="-198.54" font-family="Times,serif" font-size="14.00">right</text>
</g>
<!-- /mandlebrot/generate_pixels/y&#45;sequence/end -->
<g id="node2" class="node">
<title>/mandlebrot/generate_pixels/y&#45;sequence/end</title>
<polygon fill="white" stroke="black" points="625.42,-323.3 596.58,-335.74 567.74,-323.3 567.77,-303.18 625.4,-303.18 625.42,-323.3"/>
<text text-anchor="middle" x="596.58" y="-314.04" font-family="Times,serif" font-size="14.00">end</text>
</g>
<!-- /mandlebrot/generate_pixels/y&#45;sequence/end&#45;&gt;/mandlebrot/generate_pixels/y&#45;sequence/compare -->
<g id="edge4" class="edge">
<title>/mandlebrot/generate_pixels/y&#45;sequence/end:s&#45;&gt;/mandlebrot/generate_pixels/y&#45;sequence/compare:ne</title>
<path fill="none" stroke="black" d="M596.58,-301.74C596.58,-257.78 618.44,-232.59 595.44,-202.51"/>
<polygon fill="black" stroke="black" points="597.82,-199.92 588.58,-194.74 592.57,-204.55 597.82,-199.92"/>
<text text-anchor="middle" x="598.08" y="-198.54" font-family="Times,serif" font-size="14.00">left</text>
</g>
<!-- /mandlebrot/generate_pixels/y&#45;sequence/step -->
<g id="node3" class="node">
<title>/mandlebrot/generate_pixels/y&#45;sequence/step</title>
<polygon fill="white" stroke="black" points="467.14,-323.3 436.58,-335.74 406.02,-323.3 406.05,-303.18 467.11,-303.18 467.14,-323.3"/>
<text text-anchor="middle" x="436.58" y="-314.04" font-family="Times,serif" font-size="14.00">step</text>
</g>
<!-- /mandlebrot/generate_pixels/y&#45;sequence/add -->
<g id="node8" class="node">
<title>/mandlebrot/generate_pixels/y&#45;sequence/add</title>
<g id="a_node8"><a xlink:href="../../flowstdlib/math/add/add.html" xlink:title="add">
<ellipse fill="coral" stroke="black" cx="463.58" cy="-72" rx="27" ry="18"/>
<text text-anchor="middle" x="463.58" y="-68.3" font-family="Times,serif" font-size="14.00">add</text>
</a>
</g>
</g>
<!-- /mandlebrot/generate_pixels/y&#45;sequence/step&#45;&gt;/mandlebrot/generate_pixels/y&#45;sequence/add -->
<g id="edge5" class="edge">
<title>/mandlebrot/generate_pixels/y&#45;sequence/step:s&#45;&gt;/mandlebrot/generate_pixels/y&#45;sequence/add:w</title>
<path fill="none" stroke="black" d="M436.58,-301.74C436.58,-279.2 415.91,-117.41 428.63,-79.8"/>
<polygon fill="black" stroke="black" points="431.54,-81.79 435.58,-72 426.31,-77.13 431.54,-81.79"/>
<text text-anchor="middle" x="430.08" y="-75.8" font-family="Times,serif" font-size="14.00">i2</text>
</g>
<!-- /mandlebrot/generate_pixels/y&#45;sequence/sequence -->
<g id="node4" class="node">
<title>/mandlebrot/generate_pixels/y&#45;sequence/sequence</title>
<polygon fill="black" stroke="black" points="437.54,-12.44 490.58,0 543.63,-12.44 543.58,-32.56 437.59,-32.56 437.54,-12.44"/>
<text text-anchor="middle" x="490.58" y="-14.3" font-family="Times,serif" font-size="14.00" fill="white">sequence</text>
</g>
<!-- /mandlebrot/generate_pixels/y&#45;sequence/last -->
<g id="node5" class="node">
<title>/mandlebrot/generate_pixels/y&#45;sequence/last</title>
<polygon fill="black" stroke="black" points="561.34,-12.44 589.58,0 617.82,-12.44 617.79,-32.56 561.37,-32.56 561.34,-12.44"/>
<text text-anchor="middle" x="589.58" y="-14.3" font-family="Times,serif" font-size="14.00" fill="white">last</text>
</g>
<!-- /mandlebrot/generate_pixels/y&#45;sequence/compare&#45;&gt;/mandlebrot/generate_pixels/y&#45;sequence/sequence -->
<g id="edge7" class="edge">
<title>/mandlebrot/generate_pixels/y&#45;sequence/compare:s&#45;&gt;/mandlebrot/generate_pixels/y&#45;sequence/sequence:n</title>
<path fill="none" stroke="black" d="M562.58,-141C562.58,-128.69 509.41,-69.1 494.45,-43.49"/>
<polygon fill="black" stroke="black" points="497.6,-41.94 490.58,-34 491.12,-44.58 497.6,-41.94"/>
<text text-anchor="middle" x="548.56" y="-91.27" font-family="Times,serif" font-size="14.00">right&#45;lte</text>
</g>
<!-- /mandlebrot/generate_pixels/y&#45;sequence/compare&#45;&gt;/mandlebrot/generate_pixels/y&#45;sequence/last -->
<g id="edge11" class="edge">
<title>/mandlebrot/generate_pixels/y&#45;sequence/compare:s&#45;&gt;/mandlebrot/generate_pixels/y&#45;sequence/last:n</title>
<path fill="none" stroke="black" d="M562.58,-141C562.58,-95.5 585.82,-84.54 589.18,-44.03"/>
<polygon fill="black" stroke="black" points="592.68,-44.13 589.58,-34 585.68,-43.85 592.68,-44.13"/>
<text text-anchor="middle" x="552.59" y="-76.29" font-family="Times,serif" font-size="14.00">right&#45;gte</text>
</g>
<!-- /mandlebrot/generate_pixels/y&#45;sequence/compare&#45;&gt;/mandlebrot/generate_pixels/y&#45;sequence/compare -->
<g id="edge8" class="edge">
<title>/mandlebrot/generate_pixels/y&#45;sequence/compare:s&#45;&gt;/mandlebrot/generate_pixels/y&#45;sequence/compare:ne</title>
<path fill="none" stroke="black" d="M562.58,-140.87C595.69,-127.87 661.9,-127.87 661.9,-167.37 661.9,-203.17 628.87,-206.52 598.04,-197.16"/>
<polygon fill="black" stroke="black" points="599.18,-193.85 588.58,-193.87 596.88,-200.46 599.18,-193.85"/>
<text text-anchor="middle" x="549.19" y="-128.35" font-family="Times,serif" font-size="14.00">left&#45;gt</text>
<text text-anchor="middle" x="579.08" y="-197.67" font-family="Times,serif" font-size="14.00">left</text>
</g>
<!-- /mandlebrot/generate_pixels/y&#45;sequence/compare&#45;&gt;/mandlebrot/generate_pixels/y&#45;sequence/add -->
<g id="edge9" class="edge">
<title>/mandlebrot/generate_pixels/y&#45;sequence/compare:sw&#45;&gt;/mandlebrot/generate_pixels/y&#45;sequence/add:ne</title>
<path fill="none" stroke="black" d="M536.58,-141C524.49,-128.91 515.34,-134.38 502.58,-123 491.47,-113.09 491.26,-105.33 485.11,-95.95"/>
<polygon fill="black" stroke="black" points="487.63,-93.51 478.58,-88 482.22,-97.95 487.63,-93.51"/>
<text text-anchor="middle" x="482.09" y="-125.42" font-family="Times,serif" font-size="14.00">right&#45;lt</text>
<text text-anchor="middle" x="473.08" y="-91.8" font-family="Times,serif" font-size="14.00">i1</text>
</g>
<!-- initializer/mandlebrot/generate_pixels/y&#45;sequence/compare_1 -->
<!-- initializer/mandlebrot/generate_pixels/y&#45;sequence/compare_1&#45;&gt;/mandlebrot/generate_pixels/y&#45;sequence/compare -->
<g id="edge1" class="edge">
<title>initializer/mandlebrot/generate_pixels/y&#45;sequence/compare_1&#45;&gt;/mandlebrot/generate_pixels/y&#45;sequence/compare:ne</title>
<path fill="none" stroke="blue" stroke-dasharray="1,5" d="M693.86,-249.63C658.73,-240.56 623.4,-225.75 596.07,-201.75"/>
<polygon fill="blue" stroke="blue" points="598.27,-199.02 588.58,-194.74 593.49,-204.13 598.27,-199.02"/>
<text text-anchor="middle" x="637.08" y="-216.54" font-family="Times,serif" font-size="14.00">0</text>
</g>
<!-- /mandlebrot/generate_pixels/y&#45;sequence/add&#45;&gt;/mandlebrot/generate_pixels/y&#45;sequence/compare -->
<g id="edge10" class="edge">
<title>/mandlebrot/generate_pixels/y&#45;sequence/add:sw&#45;&gt;/mandlebrot/generate_pixels/y&#45;sequence/compare:ne</title>
<path fill="none" stroke="black" d="M448.58,-56C444.8,-52.22 440.21,-53.06 436.58,-57 426.65,-67.79 427.5,-78.48 436.58,-90 457.8,-116.92 478.28,-99.85 511.58,-108 570.45,-122.41 606.59,-93.24 643.9,-141 658.36,-159.52 660.36,-177.11 643.9,-193.87 637.17,-200.72 612.5,-202.78 597.88,-199.21"/>
<polygon fill="black" stroke="black" points="599.12,-195.93 588.58,-194.87 596.16,-202.27 599.12,-195.93"/>
<text text-anchor="middle" x="509.37" y="-98.85" font-family="Times,serif" font-size="14.00">sum</text>
<text text-anchor="middle" x="601.58" y="-198.67" font-family="Times,serif" font-size="14.00">right</text>
</g>
<!-- /mandlebrot/generate_pixels/y&#45;sequence/add&#45;&gt;/mandlebrot/generate_pixels/y&#45;sequence/add -->
<g id="edge6" class="edge">
<title>/mandlebrot/generate_pixels/y&#45;sequence/add:e&#45;&gt;/mandlebrot/generate_pixels/y&#45;sequence/add:w</title>
<path fill="none" stroke="black" d="M490.58,-72C508.58,-85 508.58,-111 463.58,-111 425.96,-111 419.79,-92.83 429.29,-79.28"/>
<polygon fill="black" stroke="black" points="431.98,-81.54 436.58,-72 427.03,-76.59 431.98,-81.54"/>
<text text-anchor="middle" x="496.09" y="-75.8" font-family="Times,serif" font-size="14.00">i2</text>
<text text-anchor="middle" x="431.08" y="-60.8" font-family="Times,serif" font-size="14.00">i2</text>
</g>
<!-- initializer/mandlebrot/generate_pixels/y&#45;sequence/add_1 -->
<!-- initializer/mandlebrot/generate_pixels/y&#45;sequence/add_1&#45;&gt;/mandlebrot/generate_pixels/y&#45;sequence/add -->
<g id="edge2" class="edge">
<title>initializer/mandlebrot/generate_pixels/y&#45;sequence/add_1&#45;&gt;/mandlebrot/generate_pixels/y&#45;sequence/add:w</title>
<path fill="none" stroke="blue" stroke-dasharray="1,5" d="M233.53,-149.91C271.1,-123.79 349.21,-76.31 425.34,-72.27"/>
<polygon fill="blue" stroke="blue" points="425.68,-75.77 435.58,-72 425.49,-68.77 425.68,-75.77"/>
<text text-anchor="middle" x="308.08" y="-111.8" font-family="Times,serif" font-size="14.00">1</text>
</g>
</g>
</svg>
