<?xml version="1.0" encoding="UTF-8" standalone="no"?>
<!DOCTYPE svg PUBLIC "-//W3C//DTD SVG 1.1//EN"
 "http://www.w3.org/Graphics/SVG/1.1/DTD/svg11.dtd">
<!-- Generated by graphviz version 2.40.1 (20161225.0304)
 -->
<!-- Title: y_sequence Pages: 1 -->
<svg width="1419pt" height="424pt"
 viewBox="28.80 28.80 1389.75 395.54" xmlns="http://www.w3.org/2000/svg" xmlns:xlink="http://www.w3.org/1999/xlink">
<g id="graph0" class="graph" transform="scale(1 1) rotate(0) translate(32.8 391.5401)">
<title>y_sequence</title>
<polygon fill="#ffffff" stroke="transparent" points="-4,4 -4,-362.7401 1356.9493,-362.7401 1356.9493,4 -4,4"/>
<text text-anchor="middle" x="676.4746" y="-343.5401" font-family="Times,serif" font-size="14.00" fill="#000000">y&#45;sequence</text>
<!-- /mandlebrot/generate_pixels/y&#45;sequence/start -->
<g id="node1" class="node">
<title>/mandlebrot/generate_pixels/y&#45;sequence/start</title>
<polygon fill="#ffffff" stroke="#000000" points="701.2197,-323.3024 660.2757,-335.7401 619.3316,-323.3024 619.3698,-303.1778 701.1815,-303.1778 701.2197,-323.3024"/>
<text text-anchor="middle" x="660.2757" y="-314.0401" font-family="Times,serif" font-size="14.00" fill="#000000">start</text>
</g>
<!-- /mandlebrot/generate_pixels/y&#45;sequence/compare -->
<g id="node6" class="node">
<title>/mandlebrot/generate_pixels/y&#45;sequence/compare</title>
<g id="a_node6"><a xlink:href="../../flowstdlib/control/compare_switch/compare_switch.html" xlink:title="compare\n(compare_switch)">
<ellipse fill="#ff7f50" stroke="#000000" cx="705.2757" cy="-167.8701" rx="101.6471" ry="26.7407"/>
<text text-anchor="middle" x="705.2757" y="-171.6701" font-family="Times,serif" font-size="14.00" fill="#000000">compare</text>
<text text-anchor="middle" x="705.2757" y="-156.6701" font-family="Times,serif" font-size="14.00" fill="#000000">(compare_switch)</text>
</a>
</g>
</g>
<!-- /mandlebrot/generate_pixels/y&#45;sequence/start&#45;&gt;/mandlebrot/generate_pixels/y&#45;sequence/compare -->
<g id="edge3" class="edge">
<title>/mandlebrot/generate_pixels/y&#45;sequence/start:s&#45;&gt;/mandlebrot/generate_pixels/y&#45;sequence/compare:ne</title>
<path fill="none" stroke="#000000" d="M660.2757,-302.7401C660.2757,-290.6113 717.5574,-229.2678 729.8563,-203.8805"/>
<polygon fill="#000000" stroke="#000000" points="733.3371,-204.2624 731.2757,-193.8701 726.4064,-203.2796 733.3371,-204.2624"/>
<text text-anchor="middle" x="713.2757" y="-197.6701" font-family="Times,serif" font-size="14.00" fill="#000000">right</text>
</g>
<!-- /mandlebrot/generate_pixels/y&#45;sequence/end -->
<g id="node2" class="node">
<title>/mandlebrot/generate_pixels/y&#45;sequence/end</title>
<polygon fill="#ffffff" stroke="#000000" points="788.8658,-323.3024 754.2757,-335.7401 719.6855,-323.3024 719.7178,-303.1778 788.8335,-303.1778 788.8658,-323.3024"/>
<text text-anchor="middle" x="754.2757" y="-314.0401" font-family="Times,serif" font-size="14.00" fill="#000000">end</text>
</g>
<!-- /mandlebrot/generate_pixels/y&#45;sequence/end&#45;&gt;/mandlebrot/generate_pixels/y&#45;sequence/compare -->
<g id="edge4" class="edge">
<title>/mandlebrot/generate_pixels/y&#45;sequence/end:s&#45;&gt;/mandlebrot/generate_pixels/y&#45;sequence/compare:ne</title>
<path fill="none" stroke="#000000" d="M754.2757,-302.7401C754.2757,-256.9559 764.5346,-232.6062 738.3103,-201.4969"/>
<polygon fill="#000000" stroke="#000000" points="740.6284,-198.8478 731.2757,-193.8701 735.4829,-203.5938 740.6284,-198.8478"/>
<text text-anchor="middle" x="743.7757" y="-197.6701" font-family="Times,serif" font-size="14.00" fill="#000000">left</text>
</g>
<!-- /mandlebrot/generate_pixels/y&#45;sequence/step -->
<g id="node3" class="node">
<title>/mandlebrot/generate_pixels/y&#45;sequence/step</title>
<polygon fill="#ffffff" stroke="#000000" points="600.7943,-323.3024 563.2757,-335.7401 525.7571,-323.3024 525.7921,-303.1778 600.7592,-303.1778 600.7943,-323.3024"/>
<text text-anchor="middle" x="563.2757" y="-314.0401" font-family="Times,serif" font-size="14.00" fill="#000000">step</text>
</g>
<!-- /mandlebrot/generate_pixels/y&#45;sequence/add -->
<g id="node8" class="node">
<title>/mandlebrot/generate_pixels/y&#45;sequence/add</title>
<g id="a_node8"><a xlink:href="../../flowstdlib/math/add/add.html" xlink:title="add">
<ellipse fill="#ff7f50" stroke="#000000" cx="591.2757" cy="-72" rx="27.8951" ry="18"/>
<text text-anchor="middle" x="591.2757" y="-68.3" font-family="Times,serif" font-size="14.00" fill="#000000">add</text>
</a>
</g>
</g>
<!-- /mandlebrot/generate_pixels/y&#45;sequence/step&#45;&gt;/mandlebrot/generate_pixels/y&#45;sequence/add -->
<g id="edge5" class="edge">
<title>/mandlebrot/generate_pixels/y&#45;sequence/step:s&#45;&gt;/mandlebrot/generate_pixels/y&#45;sequence/add:w</title>
<path fill="none" stroke="#000000" d="M563.2757,-302.7401C563.2757,-280.0066 543.1174,-116.1655 556.425,-79.337"/>
<polygon fill="#000000" stroke="#000000" points="559.0092,-81.6978 563.2757,-72 553.8927,-76.9205 559.0092,-81.6978"/>
<text text-anchor="middle" x="556.2757" y="-75.8" font-family="Times,serif" font-size="14.00" fill="#000000">i2</text>
</g>
<!-- /mandlebrot/generate_pixels/y&#45;sequence/sequence -->
<g id="node4" class="node">
<title>/mandlebrot/generate_pixels/y&#45;sequence/sequence</title>
<polygon fill="#000000" stroke="#000000" points="547.809,-12.4377 615.2757,0 682.7423,-12.4377 682.6793,-32.5623 547.872,-32.5623 547.809,-12.4377"/>
<text text-anchor="middle" x="615.2757" y="-14.3" font-family="Times,serif" font-size="14.00" fill="#ffffff">sequence</text>
</g>
<!-- /mandlebrot/generate_pixels/y&#45;sequence/last -->
<g id="node5" class="node">
<title>/mandlebrot/generate_pixels/y&#45;sequence/last</title>
<polygon fill="#000000" stroke="#000000" points="700.6855,-12.4377 735.2757,0 769.8658,-12.4377 769.8335,-32.5623 700.7178,-32.5623 700.6855,-12.4377"/>
<text text-anchor="middle" x="735.2757" y="-14.3" font-family="Times,serif" font-size="14.00" fill="#ffffff">last</text>
</g>
<!-- /mandlebrot/generate_pixels/y&#45;sequence/compare&#45;&gt;/mandlebrot/generate_pixels/y&#45;sequence/sequence -->
<g id="edge7" class="edge">
<title>/mandlebrot/generate_pixels/y&#45;sequence/compare:s&#45;&gt;/mandlebrot/generate_pixels/y&#45;sequence/sequence:n</title>
<path fill="none" stroke="#000000" d="M705.2757,-141C705.2757,-127.4541 637.5944,-67.9312 619.6166,-42.1726"/>
<polygon fill="#000000" stroke="#000000" points="622.717,-40.5417 615.2757,-33 616.3897,-43.5361 622.717,-40.5417"/>
<text text-anchor="middle" x="689.823" y="-90.8486" font-family="Times,serif" font-size="14.00" fill="#000000">right&#45;lte</text>
</g>
<!-- /mandlebrot/generate_pixels/y&#45;sequence/compare&#45;&gt;/mandlebrot/generate_pixels/y&#45;sequence/last -->
<g id="edge11" class="edge">
<title>/mandlebrot/generate_pixels/y&#45;sequence/compare:s&#45;&gt;/mandlebrot/generate_pixels/y&#45;sequence/last:n</title>
<path fill="none" stroke="#000000" d="M705.2757,-141C705.2757,-94.7826 731.0964,-84.2429 734.8283,-43.1821"/>
<polygon fill="#000000" stroke="#000000" points="738.3333,-43.144 735.2757,-33 731.34,-42.8367 738.3333,-43.144"/>
<text text-anchor="middle" x="688.2805" y="-75.7907" font-family="Times,serif" font-size="14.00" fill="#000000">right&#45;gte</text>
</g>
<!-- /mandlebrot/generate_pixels/y&#45;sequence/compare&#45;&gt;/mandlebrot/generate_pixels/y&#45;sequence/compare -->
<g id="edge8" class="edge">
<title>/mandlebrot/generate_pixels/y&#45;sequence/compare:s&#45;&gt;/mandlebrot/generate_pixels/y&#45;sequence/compare:ne</title>
<path fill="none" stroke="#000000" d="M705.2757,-140.8701C745.2168,-127.8701 825.099,-127.8701 825.099,-167.3701 825.099,-203.6298 779.6943,-206.6043 741.3489,-196.7922"/>
<polygon fill="#000000" stroke="#000000" points="741.8549,-193.2947 731.2757,-193.8701 739.9046,-200.0176 741.8549,-193.2947"/>
<text text-anchor="middle" x="688.636" y="-128.0684" font-family="Times,serif" font-size="14.00" fill="#000000">left&#45;gt</text>
<text text-anchor="middle" x="718.7757" y="-182.6701" font-family="Times,serif" font-size="14.00" fill="#000000">left</text>
</g>
<!-- /mandlebrot/generate_pixels/y&#45;sequence/compare&#45;&gt;/mandlebrot/generate_pixels/y&#45;sequence/add -->
<g id="edge9" class="edge">
<title>/mandlebrot/generate_pixels/y&#45;sequence/compare:sw&#45;&gt;/mandlebrot/generate_pixels/y&#45;sequence/add:ne</title>
<path fill="none" stroke="#000000" d="M679.2757,-141.8701C663.0669,-125.6613 649.2124,-137.2731 631.2757,-123 619.63,-113.733 619.7237,-105.6027 613.7291,-96.0328"/>
<polygon fill="#000000" stroke="#000000" points="616.2673,-93.6037 607.2757,-88 610.8102,-97.9879 616.2673,-93.6037"/>
<text text-anchor="middle" x="605.7416" y="-126.7729" font-family="Times,serif" font-size="14.00" fill="#000000">right&#45;lt</text>
<text text-anchor="middle" x="614.2757" y="-91.8" font-family="Times,serif" font-size="14.00" fill="#000000">i1</text>
</g>
<!-- initializer/mandlebrot/generate_pixels/y&#45;sequence/compare_1 -->
<!-- initializer/mandlebrot/generate_pixels/y&#45;sequence/compare_1&#45;&gt;/mandlebrot/generate_pixels/y&#45;sequence/compare -->
<g id="edge1" class="edge">
<title>initializer/mandlebrot/generate_pixels/y&#45;sequence/compare_1&#45;&gt;/mandlebrot/generate_pixels/y&#45;sequence/compare:ne</title>
<path fill="none" stroke="#0000ff" stroke-dasharray="1,5" d="M910.1851,-247.9479C842.7645,-237.9116 770.6191,-222.5429 739.0623,-200.3208"/>
<polygon fill="#0000ff" stroke="#0000ff" points="741.2093,-197.5544 731.2757,-193.8701 736.7435,-202.9449 741.2093,-197.5544"/>
<text text-anchor="middle" x="805.2757" y="-216.5401" font-family="Times,serif" font-size="14.00" fill="#000000">0</text>
</g>
<!-- /mandlebrot/generate_pixels/y&#45;sequence/add&#45;&gt;/mandlebrot/generate_pixels/y&#45;sequence/compare -->
<g id="edge10" class="edge">
<title>/mandlebrot/generate_pixels/y&#45;sequence/add:sw&#45;&gt;/mandlebrot/generate_pixels/y&#45;sequence/compare:ne</title>
<path fill="none" stroke="#000000" d="M575.2757,-56C575.2757,-56 563.3281,-90 563.3281,-90 572.0526,-100.7387 798.3745,-130.2613 807.099,-141 807.099,-141 759.4213,-174.2447 739.6798,-188.01"/>
<polygon fill="#000000" stroke="#000000" points="737.4766,-185.2794 731.2757,-193.8701 741.4804,-191.0214 737.4766,-185.2794"/>
<text text-anchor="middle" x="640.3611" y="-99.2503" font-family="Times,serif" font-size="14.00" fill="#000000">sum</text>
<text text-anchor="middle" x="749.2757" y="-182.6701" font-family="Times,serif" font-size="14.00" fill="#000000">right</text>
</g>
<!-- /mandlebrot/generate_pixels/y&#45;sequence/add&#45;&gt;/mandlebrot/generate_pixels/y&#45;sequence/add -->
<g id="edge6" class="edge">
<title>/mandlebrot/generate_pixels/y&#45;sequence/add:e&#45;&gt;/mandlebrot/generate_pixels/y&#45;sequence/add:w</title>
<path fill="none" stroke="#000000" d="M619.2757,-72C637.2232,-85 637.2232,-111 591.2757,-111 552.8664,-111 546.5649,-92.8314 556.015,-79.276"/>
<polygon fill="#000000" stroke="#000000" points="558.6895,-81.5508 563.2757,-72 553.7345,-76.6063 558.6895,-81.5508"/>
<text text-anchor="middle" x="626.2822" y="-75.8048" font-family="Times,serif" font-size="14.00" fill="#000000">i2</text>
<text text-anchor="middle" x="556.2757" y="-60.8" font-family="Times,serif" font-size="14.00" fill="#000000">i2</text>
</g>
<!-- initializer/mandlebrot/generate_pixels/y&#45;sequence/add_1 -->
<!-- initializer/mandlebrot/generate_pixels/y&#45;sequence/add_1&#45;&gt;/mandlebrot/generate_pixels/y&#45;sequence/add -->
<g id="edge2" class="edge">
<title>initializer/mandlebrot/generate_pixels/y&#45;sequence/add_1&#45;&gt;/mandlebrot/generate_pixels/y&#45;sequence/add:w</title>
<path fill="none" stroke="#0000ff" stroke-dasharray="1,5" d="M306.0673,-149.8376C356.3262,-123.0156 458.205,-75.3965 553.2169,-72.1726"/>
<polygon fill="#0000ff" stroke="#0000ff" points="553.3372,-75.6711 563.2757,-72 553.2171,-68.6722 553.3372,-75.6711"/>
<text text-anchor="middle" x="401.2757" y="-111.8" font-family="Times,serif" font-size="14.00" fill="#000000">1</text>
</g>
</g>
</svg>
