<?xml version="1.0" encoding="UTF-8" standalone="no"?>
<!DOCTYPE svg PUBLIC "-//W3C//DTD SVG 1.1//EN"
 "http://www.w3.org/Graphics/SVG/1.1/DTD/svg11.dtd">
<!-- Generated by graphviz version 2.43.0 (0)
 -->
<!-- Title: y_sequence Pages: 1 -->
<svg width="1401pt" height="424pt"
 viewBox="28.80 28.80 1372.28 395.54" xmlns="http://www.w3.org/2000/svg" xmlns:xlink="http://www.w3.org/1999/xlink">
<g id="page0,1_graph0" class="graph" transform="scale(1 1) rotate(0) translate(32.8 391.54)">
<title>y_sequence</title>
<polygon fill="white" stroke="transparent" points="-4,4 -4,-362.74 1339.48,-362.74 1339.48,4 -4,4"/>
<text text-anchor="middle" x="667.74" y="-343.54" font-family="Times,serif" font-size="14.00">y&#45;sequence</text>
<!-- /mandlebrot/generate_pixels/y&#45;sequence/start -->
<g id="node1" class="node">
<title>/mandlebrot/generate_pixels/y&#45;sequence/start</title>
<polygon fill="white" stroke="black" points="675.7,-323.3 634.76,-335.74 593.81,-323.3 593.85,-303.18 675.66,-303.18 675.7,-323.3"/>
<text text-anchor="middle" x="634.76" y="-314.04" font-family="Times,serif" font-size="14.00">start</text>
</g>
<!-- /mandlebrot/generate_pixels/y&#45;sequence/compare -->
<g id="node6" class="node">
<title>/mandlebrot/generate_pixels/y&#45;sequence/compare</title>
<g id="a_node6"><a xlink:href="../../flowstdlib/control/compare_switch/compare_switch.html" xlink:title="compare\n(compare_switch)">
<ellipse fill="coral" stroke="black" cx="702.76" cy="-167.87" rx="100.32" ry="26.74"/>
<text text-anchor="middle" x="702.76" y="-171.67" font-family="Times,serif" font-size="14.00">compare</text>
<text text-anchor="middle" x="702.76" y="-156.67" font-family="Times,serif" font-size="14.00">(compare_switch)</text>
</a>
</g>
</g>
<!-- /mandlebrot/generate_pixels/y&#45;sequence/start&#45;&gt;/mandlebrot/generate_pixels/y&#45;sequence/compare -->
<g id="edge3" class="edge">
<title>/mandlebrot/generate_pixels/y&#45;sequence/start:s&#45;&gt;/mandlebrot/generate_pixels/y&#45;sequence/compare:ne</title>
<path fill="none" stroke="black" d="M634.76,-301.74C634.76,-242.4 756.72,-239.62 735.08,-202.62"/>
<polygon fill="black" stroke="black" points="737.74,-200.35 728.76,-194.74 732.28,-204.73 737.74,-200.35"/>
<text text-anchor="middle" x="710.76" y="-198.54" font-family="Times,serif" font-size="14.00">right</text>
</g>
<!-- /mandlebrot/generate_pixels/y&#45;sequence/end -->
<g id="node2" class="node">
<title>/mandlebrot/generate_pixels/y&#45;sequence/end</title>
<polygon fill="white" stroke="black" points="763.35,-323.3 728.76,-335.74 694.17,-323.3 694.2,-303.18 763.32,-303.18 763.35,-323.3"/>
<text text-anchor="middle" x="728.76" y="-314.04" font-family="Times,serif" font-size="14.00">end</text>
</g>
<!-- /mandlebrot/generate_pixels/y&#45;sequence/end&#45;&gt;/mandlebrot/generate_pixels/y&#45;sequence/compare -->
<g id="edge4" class="edge">
<title>/mandlebrot/generate_pixels/y&#45;sequence/end:s&#45;&gt;/mandlebrot/generate_pixels/y&#45;sequence/compare:ne</title>
<path fill="none" stroke="black" d="M728.76,-301.74C728.76,-257.9 757.34,-232.53 735.46,-202.49"/>
<polygon fill="black" stroke="black" points="737.94,-200.02 728.76,-194.74 732.65,-204.6 737.94,-200.02"/>
<text text-anchor="middle" x="741.26" y="-198.54" font-family="Times,serif" font-size="14.00">left</text>
</g>
<!-- /mandlebrot/generate_pixels/y&#45;sequence/step -->
<g id="node3" class="node">
<title>/mandlebrot/generate_pixels/y&#45;sequence/step</title>
<polygon fill="white" stroke="black" points="75.28,-323.3 37.76,-335.74 0.24,-323.3 0.27,-303.18 75.24,-303.18 75.28,-323.3"/>
<text text-anchor="middle" x="37.76" y="-314.04" font-family="Times,serif" font-size="14.00">step</text>
</g>
<!-- /mandlebrot/generate_pixels/y&#45;sequence/add -->
<g id="node8" class="node">
<title>/mandlebrot/generate_pixels/y&#45;sequence/add</title>
<g id="a_node8"><a xlink:href="../../flowstdlib/math/add/add.html" xlink:title="add">
<ellipse fill="coral" stroke="black" cx="439.76" cy="-72" rx="27.9" ry="18"/>
<text text-anchor="middle" x="439.76" y="-68.3" font-family="Times,serif" font-size="14.00">add</text>
</a>
</g>
</g>
<!-- /mandlebrot/generate_pixels/y&#45;sequence/step&#45;&gt;/mandlebrot/generate_pixels/y&#45;sequence/add -->
<g id="edge5" class="edge">
<title>/mandlebrot/generate_pixels/y&#45;sequence/step:s&#45;&gt;/mandlebrot/generate_pixels/y&#45;sequence/add:w</title>
<path fill="none" stroke="black" d="M37.76,-301.74C37.76,-230.03 3.73,-194.25 51.76,-141 104.04,-83.03 312.33,-72.76 400.61,-72.04"/>
<polygon fill="black" stroke="black" points="400.77,-75.54 410.76,-72 400.74,-68.54 400.77,-75.54"/>
<text text-anchor="middle" x="403.76" y="-75.8" font-family="Times,serif" font-size="14.00">i2</text>
</g>
<!-- /mandlebrot/generate_pixels/y&#45;sequence/sequence -->
<g id="node4" class="node">
<title>/mandlebrot/generate_pixels/y&#45;sequence/sequence</title>
<polygon fill="black" stroke="black" points="558.9,-12.44 625.76,0 692.62,-12.44 692.56,-32.56 558.96,-32.56 558.9,-12.44"/>
<text text-anchor="middle" x="625.76" y="-14.3" font-family="Times,serif" font-size="14.00" fill="white">sequence</text>
</g>
<!-- /mandlebrot/generate_pixels/y&#45;sequence/last -->
<g id="node5" class="node">
<title>/mandlebrot/generate_pixels/y&#45;sequence/last</title>
<polygon fill="black" stroke="black" points="710.17,-12.44 744.76,0 779.35,-12.44 779.32,-32.56 710.2,-32.56 710.17,-12.44"/>
<text text-anchor="middle" x="744.76" y="-14.3" font-family="Times,serif" font-size="14.00" fill="white">last</text>
</g>
<!-- /mandlebrot/generate_pixels/y&#45;sequence/compare&#45;&gt;/mandlebrot/generate_pixels/y&#45;sequence/sequence -->
<g id="edge7" class="edge">
<title>/mandlebrot/generate_pixels/y&#45;sequence/compare:s&#45;&gt;/mandlebrot/generate_pixels/y&#45;sequence/sequence:n</title>
<path fill="none" stroke="black" d="M702.76,-141C702.76,-86.07 635.08,-91.59 626.62,-44.21"/>
<polygon fill="black" stroke="black" points="630.09,-43.67 625.76,-34 623.11,-44.26 630.09,-43.67"/>
<text text-anchor="middle" x="634.56" y="-91.18" font-family="Times,serif" font-size="14.00">right&#45;lte</text>
</g>
<!-- /mandlebrot/generate_pixels/y&#45;sequence/compare&#45;&gt;/mandlebrot/generate_pixels/y&#45;sequence/last -->
<g id="edge11" class="edge">
<title>/mandlebrot/generate_pixels/y&#45;sequence/compare:s&#45;&gt;/mandlebrot/generate_pixels/y&#45;sequence/last:n</title>
<path fill="none" stroke="black" d="M702.76,-141C702.76,-132.25 707.42,-131.09 710.76,-123 725.53,-87.22 741.7,-77.87 744.38,-44.19"/>
<polygon fill="black" stroke="black" points="747.88,-44.12 744.76,-34 740.89,-43.86 747.88,-44.12"/>
<text text-anchor="middle" x="695.98" y="-93.68" font-family="Times,serif" font-size="14.00">right&#45;gte</text>
</g>
<!-- /mandlebrot/generate_pixels/y&#45;sequence/compare&#45;&gt;/mandlebrot/generate_pixels/y&#45;sequence/compare -->
<g id="edge8" class="edge">
<title>/mandlebrot/generate_pixels/y&#45;sequence/compare:s&#45;&gt;/mandlebrot/generate_pixels/y&#45;sequence/compare:ne</title>
<path fill="none" stroke="black" d="M702.76,-140.87C742.23,-127.87 821.17,-127.87 821.17,-167.37 821.17,-203.63 776.56,-206.6 738.71,-196.79"/>
<polygon fill="black" stroke="black" points="739.34,-193.33 728.76,-193.87 737.37,-200.05 739.34,-193.33"/>
<text text-anchor="middle" x="686.06" y="-128.07" font-family="Times,serif" font-size="14.00">left&#45;gt</text>
<text text-anchor="middle" x="716.26" y="-182.67" font-family="Times,serif" font-size="14.00">left</text>
</g>
<!-- /mandlebrot/generate_pixels/y&#45;sequence/compare&#45;&gt;/mandlebrot/generate_pixels/y&#45;sequence/add -->
<g id="edge9" class="edge">
<title>/mandlebrot/generate_pixels/y&#45;sequence/compare:sw&#45;&gt;/mandlebrot/generate_pixels/y&#45;sequence/add:ne</title>
<path fill="none" stroke="black" d="M676.76,-141C668.82,-133.06 506.8,-105.09 465.15,-92.77"/>
<polygon fill="black" stroke="black" points="466.34,-89.47 455.76,-89 463.74,-95.97 466.34,-89.47"/>
<text text-anchor="middle" x="541" y="-118.85" font-family="Times,serif" font-size="14.00">right&#45;lt</text>
<text text-anchor="middle" x="462.76" y="-92.8" font-family="Times,serif" font-size="14.00">i1</text>
</g>
<!-- initializer/mandlebrot/generate_pixels/y&#45;sequence/compare_1 -->
<!-- initializer/mandlebrot/generate_pixels/y&#45;sequence/compare_1&#45;&gt;/mandlebrot/generate_pixels/y&#45;sequence/compare -->
<g id="edge1" class="edge">
<title>initializer/mandlebrot/generate_pixels/y&#45;sequence/compare_1&#45;&gt;/mandlebrot/generate_pixels/y&#45;sequence/compare:ne</title>
<path fill="none" stroke="blue" stroke-dasharray="1,5" d="M904.27,-247.69C838.89,-237.92 767.97,-222.91 736.79,-201.33"/>
<polygon fill="blue" stroke="blue" points="738.71,-198.38 728.76,-194.74 734.27,-203.79 738.71,-198.38"/>
<text text-anchor="middle" x="807.76" y="-216.54" font-family="Times,serif" font-size="14.00">0</text>
</g>
<!-- /mandlebrot/generate_pixels/y&#45;sequence/add&#45;&gt;/mandlebrot/generate_pixels/y&#45;sequence/compare -->
<g id="edge10" class="edge">
<title>/mandlebrot/generate_pixels/y&#45;sequence/add:e&#45;&gt;/mandlebrot/generate_pixels/y&#45;sequence/compare:ne</title>
<path fill="none" stroke="black" d="M468.76,-72C478.24,-72 797.18,-133.65 803.17,-141 818.01,-159.22 819.67,-177.14 803.17,-193.87 793.5,-203.66 756.5,-205.95 737.61,-199.7"/>
<polygon fill="black" stroke="black" points="739.21,-196.59 728.76,-194.87 735.86,-202.73 739.21,-196.59"/>
<text text-anchor="middle" x="746.76" y="-198.67" font-family="Times,serif" font-size="14.00">right</text>
</g>
<!-- /mandlebrot/generate_pixels/y&#45;sequence/add&#45;&gt;/mandlebrot/generate_pixels/y&#45;sequence/add -->
<g id="edge6" class="edge">
<title>/mandlebrot/generate_pixels/y&#45;sequence/add:e&#45;&gt;/mandlebrot/generate_pixels/y&#45;sequence/add:w</title>
<path fill="none" stroke="black" d="M467.76,-72C485.71,-85 485.71,-111 439.76,-111 401.35,-111 395.05,-92.83 404.5,-79.28"/>
<polygon fill="black" stroke="black" points="407.17,-81.55 411.76,-72 402.22,-76.61 407.17,-81.55"/>
<text text-anchor="middle" x="474.77" y="-75.8" font-family="Times,serif" font-size="14.00">i2</text>
<text text-anchor="middle" x="404.76" y="-60.8" font-family="Times,serif" font-size="14.00">i2</text>
</g>
<!-- initializer/mandlebrot/generate_pixels/y&#45;sequence/add_1 -->
<!-- initializer/mandlebrot/generate_pixels/y&#45;sequence/add_1&#45;&gt;/mandlebrot/generate_pixels/y&#45;sequence/add -->
<g id="edge2" class="edge">
<title>initializer/mandlebrot/generate_pixels/y&#45;sequence/add_1&#45;&gt;/mandlebrot/generate_pixels/y&#45;sequence/add:w</title>
<path fill="none" stroke="blue" stroke-dasharray="1,5" d="M331.26,-149.47C341.76,-124.43 364.94,-80.44 400.42,-73.06"/>
<polygon fill="blue" stroke="blue" points="401.17,-76.51 410.76,-72 400.45,-69.54 401.17,-76.51"/>
<text text-anchor="middle" x="359.76" y="-111.8" font-family="Times,serif" font-size="14.00">1</text>
</g>
</g>
</svg>
