<?xml version="1.0" encoding="UTF-8" standalone="no"?>
<!DOCTYPE svg PUBLIC "-//W3C//DTD SVG 1.1//EN"
 "http://www.w3.org/Graphics/SVG/1.1/DTD/svg11.dtd">
<!-- Generated by graphviz version 2.43.0 (0)
 -->
<!-- Title: reverse_echo Pages: 1 -->
<svg width="339pt" height="269pt"
 viewBox="28.80 28.80 309.84 239.80" xmlns="http://www.w3.org/2000/svg" xmlns:xlink="http://www.w3.org/1999/xlink">
<g id="graph0" class="graph" transform="scale(1 1) rotate(0) translate(32.8 235.8)">
<title>reverse_echo</title>
<polygon fill="white" stroke="transparent" points="-4,4 -4,-207 277.04,-207 277.04,4 -4,4"/>
<text text-anchor="middle" x="136.52" y="-187.8" font-family="Times,serif" font-size="14.00">reverse&#45;echo</text>
<!-- /reverse&#45;echo/readline -->
<g id="node1" class="node">
<title>/reverse&#45;echo/readline</title>
<g id="a_node1"><a xlink:href="../../flowr/src/lib/context/stdio/readline.html" xlink:title="readline">
<ellipse fill="coral" stroke="black" cx="48.75" cy="-162" rx="48.99" ry="18"/>
<text text-anchor="middle" x="48.75" y="-158.3" font-family="Times,serif" font-size="14.00">readline</text>
</a>
</g>
</g>
<!-- /reverse&#45;echo/reverse -->
<g id="node2" class="node">
<title>/reverse&#45;echo/reverse</title>
<g id="a_node2"><a xlink:href="../../flowsamples/reverse-echo/reverse/reverse.html" xlink:title="reverse">
<ellipse fill="coral" stroke="black" cx="144.75" cy="-90" rx="46.29" ry="18"/>
<text text-anchor="middle" x="144.75" y="-86.3" font-family="Times,serif" font-size="14.00">reverse</text>
</a>
</g>
</g>
<!-- /reverse&#45;echo/readline&#45;&gt;/reverse&#45;echo/reverse -->
<g id="edge1" class="edge">
<title>/reverse&#45;echo/readline:e&#45;&gt;/reverse&#45;echo/reverse:w</title>
<path fill="none" stroke="black" d="M98.75,-162C125.51,-162 83.76,-111.69 88.04,-95.18"/>
<polygon fill="black" stroke="black" points="89.94,-98.12 96.75,-90 86.36,-92.1 89.94,-98.12"/>
<text text-anchor="middle" x="76.27" y="-129.84" font-family="Times,serif" font-size="14.00">string</text>
</g>
<!-- /reverse&#45;echo/stdout -->
<g id="node3" class="node">
<title>/reverse&#45;echo/stdout</title>
<g id="a_node3"><a xlink:href="../../flowr/src/lib/context/stdio/stdout.html" xlink:title="stdout">
<ellipse fill="coral" stroke="black" cx="232.75" cy="-18" rx="40.09" ry="18"/>
<text text-anchor="middle" x="232.75" y="-14.3" font-family="Times,serif" font-size="14.00">stdout</text>
</a>
</g>
</g>
<!-- /reverse&#45;echo/reverse&#45;&gt;/reverse&#45;echo/stdout -->
<g id="edge2" class="edge">
<title>/reverse&#45;echo/reverse:e&#45;&gt;/reverse&#45;echo/stdout:w</title>
<path fill="none" stroke="black" d="M192.75,-90C219.51,-90 177.76,-39.69 182.04,-23.18"/>
<polygon fill="black" stroke="black" points="183.94,-26.12 190.75,-18 180.36,-20.1 183.94,-26.12"/>
</g>
</g>
</svg>
