<?xml version="1.0" encoding="UTF-8" standalone="no"?>
<!DOCTYPE svg PUBLIC "-//W3C//DTD SVG 1.1//EN"
 "http://www.w3.org/Graphics/SVG/1.1/DTD/svg11.dtd">
<!-- Generated by graphviz version 2.43.0 (0)
 -->
<!-- Title: reverse_echo Pages: 1 -->
<svg width="286pt" height="211pt"
 viewBox="0.00 0.00 285.84 211.00" xmlns="http://www.w3.org/2000/svg" xmlns:xlink="http://www.w3.org/1999/xlink">
<g id="graph0" class="graph" transform="scale(1 1) rotate(0) translate(4 207)">
<title>reverse_echo</title>
<polygon fill="white" stroke="transparent" points="-4,4 -4,-207 281.84,-207 281.84,4 -4,4"/>
<text text-anchor="middle" x="138.92" y="-187.8" font-family="Times,serif" font-size="14.00">/reverse&#45;echo</text>
<!-- r0 -->
<g id="node1" class="node">
<title>r0</title>
<g id="a_node1"><a xlink:href="file:///home/runner/work/flow/flow/flowr/src/cli/stdio/readline.html" xlink:title="readline (#0)">
<ellipse fill="coral" stroke="black" cx="72.14" cy="-162" rx="72.29" ry="18"/>
<text text-anchor="middle" x="72.14" y="-158.3" font-family="Times,serif" font-size="14.00">readline (#0)</text>
</a>
</g>
</g>
<!-- r1 -->
<g id="node2" class="node">
<title>r1</title>
<g id="a_node2"><a xlink:href="file:///home/runner/work/flow/flow/flowsamples/reverse-echo/reverse/reverse.html" xlink:title="reverse (#1)">
<ellipse fill="coral" stroke="black" cx="144.14" cy="-90" rx="69.59" ry="18"/>
<text text-anchor="middle" x="144.14" y="-86.3" font-family="Times,serif" font-size="14.00">reverse (#1)</text>
</a>
</g>
</g>
<!-- r0&#45;&gt;r1 -->
<g id="edge1" class="edge">
<title>r0:e&#45;&gt;r1:n</title>
<path fill="none" stroke="black" d="M145.14,-162C165.87,-162 150.06,-139.65 145.36,-118.09"/>
<polygon fill="black" stroke="black" points="148.81,-117.51 144.14,-108 141.86,-118.35 148.81,-117.51"/>
<text text-anchor="middle" x="169.14" y="-165.8" font-family="Times,serif" font-size="14.00">/string</text>
</g>
<!-- r2 -->
<g id="node3" class="node">
<title>r2</title>
<g id="a_node3"><a xlink:href="file:///home/runner/work/flow/flow/flowr/src/cli/stdio/stdout.html" xlink:title="stdout (#2)">
<ellipse fill="coral" stroke="black" cx="214.14" cy="-18" rx="63.89" ry="18"/>
<text text-anchor="middle" x="214.14" y="-14.3" font-family="Times,serif" font-size="14.00">stdout (#2)</text>
</a>
</g>
</g>
<!-- r1&#45;&gt;r2 -->
<g id="edge2" class="edge">
<title>r1:e&#45;&gt;r2:n</title>
<path fill="none" stroke="black" d="M215.14,-90C235.87,-90 220.06,-67.65 215.36,-46.09"/>
<polygon fill="black" stroke="black" points="218.81,-45.51 214.14,-36 211.86,-46.35 218.81,-45.51"/>
</g>
</g>
</svg>
