<?xml version="1.0" encoding="UTF-8" standalone="no"?>
<!DOCTYPE svg PUBLIC "-//W3C//DTD SVG 1.1//EN"
 "http://www.w3.org/Graphics/SVG/1.1/DTD/svg11.dtd">
<!-- Generated by graphviz version 2.43.0 (0)
 -->
<!-- Title: reverse_echo Pages: 1 -->
<svg width="289pt" height="283pt"
 viewBox="0.00 0.00 289.09 283.00" xmlns="http://www.w3.org/2000/svg" xmlns:xlink="http://www.w3.org/1999/xlink">
<g id="graph0" class="graph" transform="scale(1 1) rotate(0) translate(4 279)">
<title>reverse_echo</title>
<polygon fill="white" stroke="transparent" points="-4,4 -4,-279 285.09,-279 285.09,4 -4,4"/>
<text text-anchor="middle" x="140.54" y="-259.8" font-family="Times,serif" font-size="14.00">/reverse&#45;echo</text>
<!-- r0 -->
<g id="node1" class="node">
<title>r0</title>
<g id="a_node1"><a xlink:href="file:///home/runner/work/flow/flow/flowr/src/bin/flowrcli/context/stdio/readline.html" xlink:title="readline (#0)">
<ellipse fill="coral" stroke="black" cx="75.39" cy="-162" rx="72.29" ry="18"/>
<text text-anchor="middle" x="75.39" y="-158.3" font-family="Times,serif" font-size="14.00">readline (#0)</text>
</a>
</g>
</g>
<!-- r1 -->
<g id="node3" class="node">
<title>r1</title>
<g id="a_node3"><a xlink:href="file:///home/runner/work/flow/flow/flowsamples/reverse-echo/reverse/reverse.html" xlink:title="reverse (#1)">
<ellipse fill="coral" stroke="black" cx="147.39" cy="-90" rx="69.59" ry="18"/>
<text text-anchor="middle" x="147.39" y="-86.3" font-family="Times,serif" font-size="14.00">reverse (#1)</text>
</a>
</g>
</g>
<!-- r0&#45;&gt;r1 -->
<g id="edge2" class="edge">
<title>r0:e&#45;&gt;r1:n</title>
<path fill="none" stroke="black" d="M148.39,-162C169.12,-162 153.31,-139.65 148.61,-118.09"/>
<polygon fill="black" stroke="black" points="152.06,-117.51 147.39,-108 145.11,-118.35 152.06,-117.51"/>
<text text-anchor="middle" x="172.39" y="-165.8" font-family="Times,serif" font-size="14.00">/string</text>
</g>
<!-- initializerr0_0 -->
<!-- initializerr0_0&#45;&gt;r0 -->
<g id="edge1" class="edge">
<title>initializerr0_0&#45;&gt;r0:n</title>
<path fill="none" stroke="blue" d="M75.39,-215.81C75.39,-208.28 75.39,-199.1 75.39,-190.06"/>
<polygon fill="blue" stroke="blue" points="78.89,-190 75.39,-180 71.89,-190 78.89,-190"/>
<text text-anchor="middle" x="51.89" y="-204.61" font-family="Times,serif" font-size="14.00">&quot;echo&quot;</text>
</g>
<!-- r2 -->
<g id="node4" class="node">
<title>r2</title>
<g id="a_node4"><a xlink:href="file:///home/runner/work/flow/flow/flowr/src/bin/flowrcli/context/stdio/stdout.html" xlink:title="stdout (#2)">
<ellipse fill="coral" stroke="black" cx="217.39" cy="-18" rx="63.89" ry="18"/>
<text text-anchor="middle" x="217.39" y="-14.3" font-family="Times,serif" font-size="14.00">stdout (#2)</text>
</a>
</g>
</g>
<!-- r1&#45;&gt;r2 -->
<g id="edge3" class="edge">
<title>r1:e&#45;&gt;r2:n</title>
<path fill="none" stroke="black" d="M218.39,-90C239.12,-90 223.31,-67.65 218.61,-46.09"/>
<polygon fill="black" stroke="black" points="222.06,-45.51 217.39,-36 215.11,-46.35 222.06,-45.51"/>
</g>
</g>
</svg>
