<?xml version="1.0" encoding="UTF-8" standalone="no"?>
<!DOCTYPE svg PUBLIC "-//W3C//DTD SVG 1.1//EN"
 "http://www.w3.org/Graphics/SVG/1.1/DTD/svg11.dtd">
<!-- Generated by graphviz version 2.43.0 (0)
 -->
<!-- Title: reverse_echo Pages: 1 -->
<svg width="380pt" height="269pt"
 viewBox="28.80 28.80 350.86 239.80" xmlns="http://www.w3.org/2000/svg" xmlns:xlink="http://www.w3.org/1999/xlink">
<g id="graph0" class="graph" transform="scale(1 1) rotate(0) translate(32.8 235.8)">
<title>reverse_echo</title>
<polygon fill="white" stroke="transparent" points="-4,4 -4,-207 318.06,-207 318.06,4 -4,4"/>
<text text-anchor="middle" x="157.03" y="-187.8" font-family="Times,serif" font-size="14.00">reverse&#45;echo</text>
<!-- /reverse&#45;echo/readline -->
<g id="node1" class="node">
<title>/reverse&#45;echo/readline</title>
<g id="a_node1"><a xlink:href="../../flowr/src/cli/stdio/readline.html" xlink:title="readline">
<polygon fill="white" stroke="black" points="0.25,-156.44 60.25,-144 120.26,-156.44 120.2,-176.56 0.3,-176.56 0.25,-156.44"/>
<text text-anchor="middle" x="60.25" y="-158.3" font-family="Times,serif" font-size="14.00">readline</text>
</a>
</g>
</g>
<!-- /reverse&#45;echo/reverse -->
<g id="node2" class="node">
<title>/reverse&#45;echo/reverse</title>
<g id="a_node2"><a xlink:href="reverse/reverse.html" xlink:title="reverse">
<ellipse fill="coral" stroke="black" cx="167.25" cy="-90" rx="46.29" ry="18"/>
<text text-anchor="middle" x="167.25" y="-86.3" font-family="Times,serif" font-size="14.00">reverse</text>
</a>
</g>
</g>
<!-- /reverse&#45;echo/readline&#45;&gt;/reverse&#45;echo/reverse -->
<g id="edge1" class="edge">
<title>/reverse&#45;echo/readline:e&#45;&gt;/reverse&#45;echo/reverse:w</title>
<path fill="none" stroke="black" d="M121.25,-162C148.01,-162 106.27,-111.69 110.55,-95.18"/>
<polygon fill="black" stroke="black" points="112.45,-98.12 119.25,-90 108.87,-92.1 112.45,-98.12"/>
<text text-anchor="middle" x="98.77" y="-129.84" font-family="Times,serif" font-size="14.00">string</text>
</g>
<!-- /reverse&#45;echo/stdout -->
<g id="node3" class="node">
<title>/reverse&#45;echo/stdout</title>
<g id="a_node3"><a xlink:href="../../flowr/src/cli/stdio/stdout.html" xlink:title="stdout">
<polygon fill="black" stroke="black" points="313.87,-23.56 264.25,-36 214.63,-23.56 214.68,-3.44 313.83,-3.44 313.87,-23.56"/>
<text text-anchor="middle" x="264.25" y="-14.3" font-family="Times,serif" font-size="14.00" fill="white">stdout</text>
</a>
</g>
</g>
<!-- /reverse&#45;echo/reverse&#45;&gt;/reverse&#45;echo/stdout -->
<g id="edge2" class="edge">
<title>/reverse&#45;echo/reverse:e&#45;&gt;/reverse&#45;echo/stdout:w</title>
<path fill="none" stroke="black" d="M215.25,-90C242.01,-90 200.27,-39.69 204.55,-23.18"/>
<polygon fill="black" stroke="black" points="206.45,-26.12 213.25,-18 202.87,-20.1 206.45,-26.12"/>
</g>
</g>
</svg>
