<?xml version="1.0" encoding="UTF-8" standalone="no"?>
<!DOCTYPE svg PUBLIC "-//W3C//DTD SVG 1.1//EN"
 "http://www.w3.org/Graphics/SVG/1.1/DTD/svg11.dtd">
<!-- Generated by graphviz version 2.43.0 (0)
 -->
<!-- Title: reverse_echo Pages: 1 -->
<svg width="614pt" height="197pt"
 viewBox="28.80 28.80 585.59 167.80" xmlns="http://www.w3.org/2000/svg" xmlns:xlink="http://www.w3.org/1999/xlink">
<g id="graph0" class="graph" transform="scale(1 1) rotate(0) translate(32.8 163.8)">
<title>reverse_echo</title>
<polygon fill="white" stroke="transparent" points="-4,4 -4,-135 552.79,-135 552.79,4 -4,4"/>
<text text-anchor="middle" x="274.4" y="-115.8" font-family="Times,serif" font-size="14.00">reverse&#45;echo</text>
<!-- /reverse&#45;echo/readline -->
<g id="node1" class="node">
<title>/reverse&#45;echo/readline</title>
<g id="a_node1"><a xlink:href="../../flowr/src/bin/flowrcli/context/stdio/readline.html" xlink:title="readline">
<polygon fill="black" stroke="black" points="291.99,-23.56 231.99,-36 171.98,-23.56 172.03,-3.44 291.94,-3.44 291.99,-23.56"/>
<text text-anchor="middle" x="231.99" y="-14.3" font-family="Times,serif" font-size="14.00" fill="white">readline</text>
</a>
</g>
</g>
<!-- /reverse&#45;echo/reverse -->
<g id="node3" class="node">
<title>/reverse&#45;echo/reverse</title>
<g id="a_node3"><a xlink:href="reverse/reverse.html" xlink:title="reverse">
<ellipse fill="coral" stroke="black" cx="401.99" cy="-90" rx="46.29" ry="18"/>
<text text-anchor="middle" x="401.99" y="-86.3" font-family="Times,serif" font-size="14.00">reverse</text>
</a>
</g>
</g>
<!-- /reverse&#45;echo/readline&#45;&gt;/reverse&#45;echo/reverse -->
<g id="edge2" class="edge">
<title>/reverse&#45;echo/readline:e&#45;&gt;/reverse&#45;echo/reverse:w</title>
<path fill="none" stroke="black" d="M292.99,-18C326.93,-18 328.44,-43.58 346.99,-72 348.82,-74.81 348.98,-78.17 349,-81.22"/>
<polygon fill="black" stroke="black" points="346,-83.03 353.99,-90 352.09,-79.58 346,-83.03"/>
<text text-anchor="middle" x="312.48" y="-52.41" font-family="Times,serif" font-size="14.00">string</text>
</g>
<!-- initializer/reverse&#45;echo/readline_0 -->
<!-- initializer/reverse&#45;echo/readline_0&#45;&gt;/reverse&#45;echo/readline -->
<g id="edge1" class="edge">
<title>initializer/reverse&#45;echo/readline_0&#45;&gt;/reverse&#45;echo/readline:n</title>
<path fill="none" stroke="blue" d="M207.09,-72.29C217.35,-65.66 226.63,-56.98 230.31,-46.12"/>
<polygon fill="blue" stroke="blue" points="233.8,-46.44 231.99,-36 226.9,-45.29 233.8,-46.44"/>
<text text-anchor="middle" x="183.59" y="-61.09" font-family="Times,serif" font-size="14.00">&quot;echo&quot;</text>
</g>
<!-- /reverse&#45;echo/stdout -->
<g id="node4" class="node">
<title>/reverse&#45;echo/stdout</title>
<g id="a_node4"><a xlink:href="../../flowr/src/bin/flowrcli/context/stdio/stdout.html" xlink:title="stdout">
<polygon fill="black" stroke="black" points="548.6,-23.56 498.99,-36 449.37,-23.56 449.41,-3.44 548.56,-3.44 548.6,-23.56"/>
<text text-anchor="middle" x="498.99" y="-14.3" font-family="Times,serif" font-size="14.00" fill="white">stdout</text>
</a>
</g>
</g>
<!-- /reverse&#45;echo/reverse&#45;&gt;/reverse&#45;echo/stdout -->
<g id="edge3" class="edge">
<title>/reverse&#45;echo/reverse:e&#45;&gt;/reverse&#45;echo/stdout:w</title>
<path fill="none" stroke="black" d="M449.99,-90C476.75,-90 435,-39.69 439.28,-23.18"/>
<polygon fill="black" stroke="black" points="441.18,-26.12 447.99,-18 437.6,-20.1 441.18,-26.12"/>
</g>
</g>
</svg>
