<?xml version="1.0" encoding="UTF-8" standalone="no"?>
<!DOCTYPE svg PUBLIC "-//W3C//DTD SVG 1.1//EN"
 "http://www.w3.org/Graphics/SVG/1.1/DTD/svg11.dtd">
<!-- Generated by graphviz version 2.43.0 (0)
 -->
<!-- Title: index_f Pages: 1 -->
<svg width="734pt" height="341pt"
 viewBox="28.80 28.80 704.78 311.80" xmlns="http://www.w3.org/2000/svg" xmlns:xlink="http://www.w3.org/1999/xlink">
<g id="graph0" class="graph" transform="scale(1 1) rotate(0) translate(32.8 307.8)">
<title>index_f</title>
<polygon fill="white" stroke="transparent" points="-4,4 -4,-279 671.98,-279 671.98,4 -4,4"/>
<text text-anchor="middle" x="333.99" y="-259.8" font-family="Times,serif" font-size="14.00">index_f</text>
<!-- /index_f/value -->
<g id="node1" class="node">
<title>/index_f/value</title>
<polygon fill="white" stroke="black" points="305.36,-239.56 260.99,-252 216.62,-239.56 216.66,-219.44 305.32,-219.44 305.36,-239.56"/>
<text text-anchor="middle" x="260.99" y="-230.3" font-family="Times,serif" font-size="14.00">value</text>
</g>
<!-- /index_f/index -->
<g id="node4" class="node">
<title>/index_f/index</title>
<g id="a_node4"><a xlink:href="../../../../../../.flow/lib/flowstdlib/control/index/index.html" xlink:title="index">
<ellipse fill="coral" stroke="black" cx="333.99" cy="-90" rx="36.29" ry="18"/>
<text text-anchor="middle" x="333.99" y="-86.3" font-family="Times,serif" font-size="14.00">index</text>
</a>
</g>
</g>
<!-- /index_f/value&#45;&gt;/index_f/index -->
<g id="edge3" class="edge">
<title>/index_f/value:s&#45;&gt;/index_f/index:n</title>
<path fill="none" stroke="black" d="M260.99,-218C260.99,-162.99 325.15,-166.01 333.17,-118.26"/>
<polygon fill="black" stroke="black" points="336.68,-118.25 333.99,-108 329.7,-117.69 336.68,-118.25"/>
<text text-anchor="middle" x="314.49" y="-111.8" font-family="Times,serif" font-size="14.00">value</text>
</g>
<!-- /index_f/select_index -->
<g id="node2" class="node">
<title>/index_f/select_index</title>
<polygon fill="white" stroke="black" points="490.59,-239.56 406.99,-252 323.39,-239.56 323.46,-219.44 490.51,-219.44 490.59,-239.56"/>
<text text-anchor="middle" x="406.99" y="-230.3" font-family="Times,serif" font-size="14.00">select_index</text>
</g>
<!-- /index_f/select_index&#45;&gt;/index_f/index -->
<g id="edge4" class="edge">
<title>/index_f/select_index:s&#45;&gt;/index_f/index:n</title>
<path fill="none" stroke="black" d="M406.99,-218C406.99,-162.99 342.83,-166.01 334.81,-118.26"/>
<polygon fill="black" stroke="black" points="338.27,-117.69 333.99,-108 331.3,-118.25 338.27,-117.69"/>
<text text-anchor="middle" x="377.99" y="-111.8" font-family="Times,serif" font-size="14.00">select_index</text>
</g>
<!-- /index_f/selected_value -->
<g id="node3" class="node">
<title>/index_f/selected_value</title>
<polygon fill="black" stroke="black" points="273.57,-12.44 370.99,0 468.41,-12.44 468.31,-32.56 273.66,-32.56 273.57,-12.44"/>
<text text-anchor="middle" x="370.99" y="-14.3" font-family="Times,serif" font-size="14.00" fill="white">selected_value</text>
</g>
<!-- /index_f/index&#45;&gt;/index_f/selected_value -->
<g id="edge7" class="edge">
<title>/index_f/index:e&#45;&gt;/index_f/selected_value:n</title>
<path fill="none" stroke="black" d="M371.99,-90C393.58,-90 376.97,-66.61 372.18,-44.16"/>
<polygon fill="black" stroke="black" points="375.63,-43.52 370.99,-34 368.68,-44.34 375.63,-43.52"/>
<text text-anchor="middle" x="324.75" y="-49.72" font-family="Times,serif" font-size="14.00">selected_value</text>
</g>
<!-- /index_f/index&#45;&gt;/index_f/index -->
<g id="edge5" class="edge">
<title>/index_f/index:s&#45;&gt;/index_f/index:nw</title>
<path fill="none" stroke="black" d="M333.99,-72C315.86,-54 279.59,-54 279.59,-89 279.59,-119.08 294.56,-123.31 310.27,-112.48"/>
<polygon fill="black" stroke="black" points="312.58,-115.11 317.99,-106 308.08,-109.75 312.58,-115.11"/>
<text text-anchor="middle" x="314.46" y="-60.77" font-family="Times,serif" font-size="14.00">value</text>
<text text-anchor="middle" x="264.49" y="-94.8" font-family="Times,serif" font-size="14.00">previous_value</text>
</g>
<!-- /index_f/index&#45;&gt;/index_f/index -->
<g id="edge6" class="edge">
<title>/index_f/index:sw&#45;&gt;/index_f/index:ne</title>
<path fill="none" stroke="black" d="M317.99,-74C279.59,-92 279.59,-144 333.99,-144 383.5,-144 387.95,-124.12 359.4,-109.99"/>
<polygon fill="black" stroke="black" points="360.56,-106.68 349.99,-106 357.83,-113.13 360.56,-106.68"/>
<text text-anchor="middle" x="297.96" y="-77.81" font-family="Times,serif" font-size="14.00">index</text>
<text text-anchor="middle" x="403.99" y="-94.8" font-family="Times,serif" font-size="14.00">previous_index</text>
</g>
<!-- initializer/index_f/index_1 -->
<!-- initializer/index_f/index_1&#45;&gt;/index_f/index -->
<g id="edge1" class="edge">
<title>initializer/index_f/index_1&#45;&gt;/index_f/index:nw</title>
<path fill="none" stroke="blue" stroke-dasharray="1,5" d="M232.47,-150.86C260.14,-143.94 288.48,-132.56 310.48,-113.91"/>
<polygon fill="blue" stroke="blue" points="313,-116.35 317.99,-107 308.26,-111.2 313,-116.35"/>
<text text-anchor="middle" x="222.97" y="-139.66" font-family="Times,serif" font-size="14.00">42</text>
</g>
<!-- initializer/index_f/index_2 -->
<!-- initializer/index_f/index_2&#45;&gt;/index_f/index -->
<g id="edge2" class="edge">
<title>initializer/index_f/index_2&#45;&gt;/index_f/index:ne</title>
<path fill="none" stroke="blue" stroke-dasharray="1,5" d="M435.51,-150.86C407.83,-143.94 379.49,-132.56 357.49,-113.91"/>
<polygon fill="blue" stroke="blue" points="359.72,-111.2 349.99,-107 354.98,-116.35 359.72,-111.2"/>
<text text-anchor="middle" x="428.51" y="-139.66" font-family="Times,serif" font-size="14.00">&#45;1</text>
</g>
</g>
</svg>
