<?xml version="1.0" encoding="UTF-8" standalone="no"?>
<!DOCTYPE svg PUBLIC "-//W3C//DTD SVG 1.1//EN"
 "http://www.w3.org/Graphics/SVG/1.1/DTD/svg11.dtd">
<!-- Generated by graphviz version 2.43.0 (0)
 -->
<!-- Title: index_f Pages: 1 -->
<svg width="801pt" height="320pt"
 viewBox="28.80 28.80 771.83 290.80" xmlns="http://www.w3.org/2000/svg" xmlns:xlink="http://www.w3.org/1999/xlink">
<g id="graph0" class="graph" transform="scale(1 1) rotate(0) translate(32.8 286.8)">
<title>index_f</title>
<polygon fill="white" stroke="transparent" points="-4,4 -4,-258 739.03,-258 739.03,4 -4,4"/>
<text text-anchor="middle" x="367.51" y="-238.8" font-family="Times,serif" font-size="14.00">index_f</text>
<!-- /index_f/value -->
<g id="node1" class="node">
<title>/index_f/value</title>
<polygon fill="white" stroke="black" points="174.36,-218.56 129.99,-231 85.62,-218.56 85.66,-198.44 174.32,-198.44 174.36,-218.56"/>
<text text-anchor="middle" x="129.99" y="-209.3" font-family="Times,serif" font-size="14.00">value</text>
</g>
<!-- /index_f/select_index -->
<g id="node2" class="node">
<title>/index_f/select_index</title>
<polygon fill="white" stroke="black" points="359.59,-218.56 275.99,-231 192.39,-218.56 192.46,-198.44 359.51,-198.44 359.59,-218.56"/>
<text text-anchor="middle" x="275.99" y="-209.3" font-family="Times,serif" font-size="14.00">select_index</text>
</g>
<!-- /index_f/selected_value -->
<g id="node3" class="node">
<title>/index_f/selected_value</title>
<polygon fill="black" stroke="black" points="165.57,-12.44 262.99,0 360.41,-12.44 360.31,-32.56 165.66,-32.56 165.57,-12.44"/>
<text text-anchor="middle" x="262.99" y="-14.3" font-family="Times,serif" font-size="14.00" fill="white">selected_value</text>
</g>
<!-- /index_f/index -->
<g id="node4" class="node">
<title>/index_f/index</title>
<g id="a_node4"><a xlink:href="../../../target/flowstdlib/control/index/index.html" xlink:title="index">
<ellipse fill="coral" stroke="black" cx="262.99" cy="-72" rx="36.29" ry="18"/>
<text text-anchor="middle" x="262.99" y="-68.3" font-family="Times,serif" font-size="14.00">index</text>
</a>
</g>
</g>
<!-- initializer/index_f/index_1 -->
<!-- initializer/index_f/index_1&#45;&gt;/index_f/index -->
<g id="edge1" class="edge">
<title>initializer/index_f/index_1&#45;&gt;/index_f/index:nw</title>
<path fill="none" stroke="blue" stroke-dasharray="1,5" d="M168.06,-141.68C190.11,-130.99 217.72,-115.42 239.53,-96.02"/>
<polygon fill="blue" stroke="blue" points="242.11,-98.4 246.99,-89 237.31,-93.31 242.11,-98.4"/>
<text text-anchor="middle" x="234.49" y="-111.8" font-family="Times,serif" font-size="14.00">42</text>
</g>
<!-- initializer/index_f/index_2 -->
<!-- initializer/index_f/index_2&#45;&gt;/index_f/index -->
<g id="edge2" class="edge">
<title>initializer/index_f/index_2&#45;&gt;/index_f/index:ne</title>
<path fill="none" stroke="blue" stroke-dasharray="1,5" d="M357.54,-141.72C335.66,-131 308.17,-115.37 286.42,-96"/>
<polygon fill="blue" stroke="blue" points="288.67,-93.31 278.99,-89 283.87,-98.41 288.67,-93.31"/>
<text text-anchor="middle" x="328.99" y="-111.8" font-family="Times,serif" font-size="14.00">&#45;1</text>
</g>
<!-- /index_f/ -->
<g id="node7" class="node">
<title>/index_f/</title>
<ellipse fill="none" stroke="black" cx="579.99" cy="-159" rx="50.09" ry="18"/>
<text text-anchor="middle" x="579.99" y="-155.3" font-family="Times,serif" font-size="14.00">/index_f/</text>
</g>
<!-- /index_f/index/ -->
<g id="node8" class="node">
<title>/index_f/index/</title>
<ellipse fill="none" stroke="black" cx="579.99" cy="-72" rx="77.99" ry="18"/>
<text text-anchor="middle" x="579.99" y="-68.3" font-family="Times,serif" font-size="14.00">/index_f/index/</text>
</g>
<!-- /index_f/&#45;&gt;/index_f/index/ -->
<g id="edge3" class="edge">
<title>/index_f/:s&#45;&gt;/index_f/index/:n</title>
<path fill="none" stroke="black" d="M579.99,-141C579.99,-122.23 579.99,-115.12 579.99,-100.35"/>
<polygon fill="black" stroke="black" points="583.49,-100 579.99,-90 576.49,-100 583.49,-100"/>
<text text-anchor="middle" x="560.49" y="-119.1" font-family="Times,serif" font-size="14.00">value</text>
<text text-anchor="middle" x="560.49" y="-93.8" font-family="Times,serif" font-size="14.00">value</text>
</g>
<!-- /index_f/&#45;&gt;/index_f/index/ -->
<g id="edge4" class="edge">
<title>/index_f/:s&#45;&gt;/index_f/index/:n</title>
<path fill="none" stroke="black" d="M579.99,-141C579.99,-122.23 579.99,-115.12 579.99,-100.35"/>
<polygon fill="black" stroke="black" points="583.49,-100 579.99,-90 576.49,-100 583.49,-100"/>
<text text-anchor="middle" x="623.99" y="-119.1" font-family="Times,serif" font-size="14.00">select_index</text>
<text text-anchor="middle" x="623.99" y="-93.8" font-family="Times,serif" font-size="14.00">select_index</text>
</g>
<!-- /index_f/index/&#45;&gt;/index_f/ -->
<g id="edge7" class="edge">
<title>/index_f/index/:e&#45;&gt;/index_f/:n</title>
<path fill="none" stroke="black" d="M658.99,-72C707.4,-72 668.86,-148.09 630.03,-177 623.69,-181.72 601.07,-185.86 588.53,-183.86"/>
<polygon fill="black" stroke="black" points="590.21,-180.77 579.99,-178 586.25,-186.54 590.21,-180.77"/>
<text text-anchor="middle" x="682.53" y="-180.8" font-family="Times,serif" font-size="14.00">selected_value</text>
<text text-anchor="middle" x="527.49" y="-181.8" font-family="Times,serif" font-size="14.00">selected_value</text>
</g>
<!-- /index_f/index/&#45;&gt;/index_f/index/ -->
<g id="edge5" class="edge">
<title>/index_f/index/:s&#45;&gt;/index_f/index/:nw</title>
<path fill="none" stroke="black" d="M579.99,-54C547.99,-43.5 484,-43.5 484,-72 484,-97.72 521.45,-100.23 552.27,-92.76"/>
<polygon fill="black" stroke="black" points="553.32,-96.1 561.99,-90 551.41,-89.36 553.32,-96.1"/>
<text text-anchor="middle" x="556.6" y="-41.62" font-family="Times,serif" font-size="14.00">value</text>
<text text-anchor="middle" x="508.49" y="-93.8" font-family="Times,serif" font-size="14.00">previous_value</text>
</g>
<!-- /index_f/index/&#45;&gt;/index_f/index/ -->
<g id="edge6" class="edge">
<title>/index_f/index/:sw&#45;&gt;/index_f/index/:ne</title>
<path fill="none" stroke="black" d="M561.99,-54C484,-67 484,-111 579.99,-111 671.67,-111 675.79,-98.23 608.03,-90.98"/>
<polygon fill="black" stroke="black" points="608.28,-87.49 597.99,-90 607.6,-94.46 608.28,-87.49"/>
<text text-anchor="middle" x="581.97" y="-42.8" font-family="Times,serif" font-size="14.00">index</text>
<text text-anchor="middle" x="651.99" y="-78.8" font-family="Times,serif" font-size="14.00">previous_index</text>
</g>
</g>
</svg>
