<?xml version="1.0" encoding="UTF-8" standalone="no"?>
<!DOCTYPE svg PUBLIC "-//W3C//DTD SVG 1.1//EN"
 "http://www.w3.org/Graphics/SVG/1.1/DTD/svg11.dtd">
<!-- Generated by graphviz version 2.43.0 (0)
 -->
<!-- Title: pipeline Pages: 1 -->
<svg width="763pt" height="742pt"
 viewBox="28.80 28.80 734.43 713.50" xmlns="http://www.w3.org/2000/svg" xmlns:xlink="http://www.w3.org/1999/xlink">
<g id="graph0" class="graph" transform="scale(1 1) rotate(0) translate(32.8 709.5)">
<title>pipeline</title>
<polygon fill="white" stroke="transparent" points="-4,4 -4,-680.7 701.63,-680.7 701.63,4 -4,4"/>
<text text-anchor="middle" x="348.81" y="-661.5" font-family="Times,serif" font-size="14.00">pipeline</text>
<!-- /pipeline/sequence -->
<g id="node1" class="node">
<title>/pipeline/sequence</title>
<g id="a_node1"><a xlink:href="lib://flowstdlib/math/sequence.dot.svg" xlink:title="sequence">
<ellipse fill="aquamarine" stroke="black" cx="352.29" cy="-581.7" rx="72" ry="72"/>
<text text-anchor="middle" x="352.29" y="-578" font-family="Times,serif" font-size="14.00">sequence</text>
</a>
</g>
</g>
<!-- /pipeline/add1 -->
<g id="node2" class="node">
<title>/pipeline/add1</title>
<g id="a_node2"><a xlink:href="../../flowstdlib/math/add/add.html" xlink:title="add1\n(add)">
<ellipse fill="coral" stroke="black" cx="250.29" cy="-431.83" rx="37.45" ry="26.74"/>
<text text-anchor="middle" x="250.29" y="-435.63" font-family="Times,serif" font-size="14.00">add1</text>
<text text-anchor="middle" x="250.29" y="-420.63" font-family="Times,serif" font-size="14.00">(add)</text>
</a>
</g>
</g>
<!-- /pipeline/sequence&#45;&gt;/pipeline/add1 -->
<g id="edge5" class="edge">
<title>/pipeline/sequence:s&#45;&gt;/pipeline/add1:ne</title>
<path fill="none" stroke="black" d="M352.29,-509.7C352.29,-470.12 310.57,-482.66 280.14,-461.4"/>
<polygon fill="black" stroke="black" points="282.2,-458.57 272.29,-454.83 277.71,-463.93 282.2,-458.57"/>
<text text-anchor="middle" x="280.61" y="-478.82" font-family="Times,serif" font-size="14.00">sequence</text>
<text text-anchor="middle" x="265.29" y="-458.63" font-family="Times,serif" font-size="14.00">i1</text>
</g>
<!-- /pipeline/divide2 -->
<g id="node4" class="node">
<title>/pipeline/divide2</title>
<g id="a_node4"><a xlink:href="../../flowstdlib/math/divide/divide.html" xlink:title="divide2\n(divide)">
<ellipse fill="coral" stroke="black" cx="437.29" cy="-327.09" rx="50.41" ry="26.74"/>
<text text-anchor="middle" x="437.29" y="-330.89" font-family="Times,serif" font-size="14.00">divide2</text>
<text text-anchor="middle" x="437.29" y="-315.89" font-family="Times,serif" font-size="14.00">(divide)</text>
</a>
</g>
</g>
<!-- /pipeline/add1&#45;&gt;/pipeline/divide2 -->
<g id="edge6" class="edge">
<title>/pipeline/add1:e&#45;&gt;/pipeline/divide2:w</title>
<path fill="none" stroke="black" d="M289.29,-431.83C301.75,-431.83 289.76,-414.89 297.29,-404.96 323,-371.07 352.57,-387.85 378.29,-353.96 382.41,-348.53 380.69,-341 380.32,-335.3"/>
<polygon fill="black" stroke="black" points="383.24,-337.24 386.29,-327.09 377.58,-333.12 383.24,-337.24"/>
<text text-anchor="middle" x="355.29" y="-330.89" font-family="Times,serif" font-size="14.00">dividend</text>
</g>
<!-- initializer/pipeline/add1_1 -->
<!-- initializer/pipeline/add1_1&#45;&gt;/pipeline/add1 -->
<g id="edge1" class="edge">
<title>initializer/pipeline/add1_1&#45;&gt;/pipeline/add1:w</title>
<path fill="none" stroke="blue" d="M132.55,-563.62C136.25,-526.81 150.24,-442.51 201.31,-432.76"/>
<polygon fill="blue" stroke="blue" points="201.65,-436.24 211.29,-431.83 201.01,-429.27 201.65,-436.24"/>
<text text-anchor="middle" x="158.29" y="-480.5" font-family="Times,serif" font-size="14.00">1</text>
</g>
<!-- /pipeline/add2 -->
<g id="node6" class="node">
<title>/pipeline/add2</title>
<g id="a_node6"><a xlink:href="../../flowstdlib/math/add/add.html" xlink:title="add2\n(add)">
<ellipse fill="coral" stroke="black" cx="357.29" cy="-222.35" rx="37.45" ry="26.74"/>
<text text-anchor="middle" x="357.29" y="-226.15" font-family="Times,serif" font-size="14.00">add2</text>
<text text-anchor="middle" x="357.29" y="-211.15" font-family="Times,serif" font-size="14.00">(add)</text>
</a>
</g>
</g>
<!-- /pipeline/divide2&#45;&gt;/pipeline/add2 -->
<g id="edge7" class="edge">
<title>/pipeline/divide2:se&#45;&gt;/pipeline/add2:ne</title>
<path fill="none" stroke="black" d="M461.29,-302.09C490.3,-273.08 422.17,-276.01 387.04,-251.74"/>
<polygon fill="black" stroke="black" points="389.23,-249.01 379.29,-245.35 384.77,-254.41 389.23,-249.01"/>
<text text-anchor="middle" x="400.63" y="-271.04" font-family="Times,serif" font-size="14.00">result</text>
<text text-anchor="middle" x="372.29" y="-249.15" font-family="Times,serif" font-size="14.00">i1</text>
</g>
<!-- initializer/pipeline/divide2_1 -->
<!-- initializer/pipeline/divide2_1&#45;&gt;/pipeline/divide2 -->
<g id="edge2" class="edge">
<title>initializer/pipeline/divide2_1&#45;&gt;/pipeline/divide2:nw</title>
<path fill="none" stroke="blue" d="M430.67,-413.71C417.21,-398.94 401.89,-377.43 407.72,-360.77"/>
<polygon fill="blue" stroke="blue" points="410.84,-362.4 413.29,-352.09 404.95,-358.62 410.84,-362.4"/>
<text text-anchor="middle" x="415.29" y="-375.76" font-family="Times,serif" font-size="14.00">2</text>
</g>
<!-- /pipeline/divide4 -->
<g id="node8" class="node">
<title>/pipeline/divide4</title>
<g id="a_node8"><a xlink:href="../../flowstdlib/math/divide/divide.html" xlink:title="divide4\n(divide)">
<ellipse fill="coral" stroke="black" cx="512.29" cy="-117.61" rx="50.41" ry="26.74"/>
<text text-anchor="middle" x="512.29" y="-121.41" font-family="Times,serif" font-size="14.00">divide4</text>
<text text-anchor="middle" x="512.29" y="-106.41" font-family="Times,serif" font-size="14.00">(divide)</text>
</a>
</g>
</g>
<!-- /pipeline/add2&#45;&gt;/pipeline/divide4 -->
<g id="edge8" class="edge">
<title>/pipeline/add2:e&#45;&gt;/pipeline/divide4:w</title>
<path fill="none" stroke="black" d="M396.29,-222.35C408.75,-222.35 398.75,-206.64 404.29,-195.48 421.71,-160.36 419.07,-124.38 451.25,-118.46"/>
<polygon fill="black" stroke="black" points="451.62,-121.94 461.29,-117.61 451.03,-114.96 451.62,-121.94"/>
<text text-anchor="middle" x="430.29" y="-121.41" font-family="Times,serif" font-size="14.00">dividend</text>
</g>
<!-- initializer/pipeline/add2_1 -->
<!-- initializer/pipeline/add2_1&#45;&gt;/pipeline/add2 -->
<g id="edge3" class="edge">
<title>initializer/pipeline/add2_1&#45;&gt;/pipeline/add2:w</title>
<path fill="none" stroke="blue" d="M242.88,-308.96C251.2,-281.91 271.37,-231.54 308.06,-223.46"/>
<polygon fill="blue" stroke="blue" points="308.72,-226.91 318.29,-222.35 307.97,-219.95 308.72,-226.91"/>
<text text-anchor="middle" x="264.29" y="-271.02" font-family="Times,serif" font-size="14.00">2</text>
</g>
<!-- /pipeline/print -->
<g id="node10" class="node">
<title>/pipeline/print</title>
<g id="a_node10"><a xlink:href="../../flowr/src/lib/context/stdio/stdout.html" xlink:title="print\n(stdout)">
<ellipse fill="coral" stroke="black" cx="588.29" cy="-26.87" rx="51.74" ry="26.74"/>
<text text-anchor="middle" x="588.29" y="-30.67" font-family="Times,serif" font-size="14.00">print</text>
<text text-anchor="middle" x="588.29" y="-15.67" font-family="Times,serif" font-size="14.00">(stdout)</text>
</a>
</g>
</g>
<!-- /pipeline/divide4&#45;&gt;/pipeline/print -->
<g id="edge9" class="edge">
<title>/pipeline/divide4:se&#45;&gt;/pipeline/print:w</title>
<path fill="none" stroke="black" d="M536.29,-92.61C552.92,-75.98 523.21,-43.55 526.2,-31.51"/>
<polygon fill="black" stroke="black" points="527.98,-34.54 535.29,-26.87 524.79,-28.3 527.98,-34.54"/>
<text text-anchor="middle" x="514.63" y="-63.59" font-family="Times,serif" font-size="14.00">result</text>
</g>
<!-- initializer/pipeline/divide4_1 -->
<!-- initializer/pipeline/divide4_1&#45;&gt;/pipeline/divide4 -->
<g id="edge4" class="edge">
<title>initializer/pipeline/divide4_1&#45;&gt;/pipeline/divide4:nw</title>
<path fill="none" stroke="blue" d="M525.03,-204.69C502.42,-190.52 476.43,-169.59 482.72,-151.15"/>
<polygon fill="blue" stroke="blue" points="485.76,-152.9 488.29,-142.61 479.9,-149.08 485.76,-152.9"/>
<text text-anchor="middle" x="494.29" y="-166.28" font-family="Times,serif" font-size="14.00">2</text>
</g>
</g>
</svg>
