<?xml version="1.0" encoding="UTF-8" standalone="no"?>
<!DOCTYPE svg PUBLIC "-//W3C//DTD SVG 1.1//EN"
 "http://www.w3.org/Graphics/SVG/1.1/DTD/svg11.dtd">
<!-- Generated by graphviz version 2.43.0 (0)
 -->
<!-- Title: pipeline Pages: 1 -->
<svg width="973pt" height="466pt"
 viewBox="0.00 0.00 973.24 466.00" xmlns="http://www.w3.org/2000/svg" xmlns:xlink="http://www.w3.org/1999/xlink">
<g id="graph0" class="graph" transform="scale(1 1) rotate(0) translate(4 462)">
<title>pipeline</title>
<polygon fill="white" stroke="transparent" points="-4,4 -4,-462 969.24,-462 969.24,4 -4,4"/>
<text text-anchor="middle" x="482.62" y="-442.8" font-family="Times,serif" font-size="14.00">/pipeline</text>
<g id="clust1" class="cluster">
<title>cluster_sequence</title>
<polygon fill="none" stroke="black" points="8,-208 8,-427 598,-427 598,-208 8,-208"/>
<text text-anchor="middle" x="303" y="-411.8" font-family="Times,serif" font-size="14.00">/pipeline/sequence</text>
</g>
<!-- r5 -->
<g id="node1" class="node">
<title>r5</title>
<g id="a_node1"><a xlink:href="file:///home/runner/.flow/lib/flowstdlib/control/compare_switch/compare_switch.html" xlink:title="compare_switch (#5)">
<ellipse fill="coral" stroke="black" cx="296" cy="-378" rx="108.58" ry="18"/>
<text text-anchor="middle" x="296" y="-374.3" font-family="Times,serif" font-size="14.00">compare_switch (#5)</text>
</a>
</g>
</g>
<!-- r5&#45;&gt;r5 -->
<g id="edge2" class="edge">
<title>r5:e&#45;&gt;r5:n</title>
<path fill="none" stroke="black" d="M405,-378C428.54,-360 476.54,-360 476.54,-387 476.54,-412.58 368.54,-413.92 306,-398.7"/>
<polygon fill="black" stroke="black" points="306.57,-395.22 296,-396 304.74,-401.98 306.57,-395.22"/>
<text text-anchor="middle" x="283.5" y="-399.8" font-family="Times,serif" font-size="14.00">left</text>
<text text-anchor="middle" x="429.5" y="-381.8" font-family="Times,serif" font-size="14.00">/left&#45;gt</text>
</g>
<!-- r0 -->
<g id="node2" class="node">
<title>r0</title>
<g id="a_node2"><a xlink:href="file:///home/runner/.flow/lib/flowstdlib/math/add/add.html" xlink:title="add1 (#0)">
<ellipse fill="coral" stroke="black" cx="533" cy="-306" rx="57.39" ry="18"/>
<text text-anchor="middle" x="533" y="-302.3" font-family="Times,serif" font-size="14.00">add1 (#0)</text>
</a>
</g>
</g>
<!-- r5&#45;&gt;r0 -->
<g id="edge1" class="edge">
<title>r5:s&#45;&gt;r0:n</title>
<path fill="none" stroke="black" d="M296,-360C296,-257.2 516.63,-418.44 532.14,-334.21"/>
<polygon fill="black" stroke="black" points="535.65,-334.26 533,-324 528.67,-333.67 535.65,-334.26"/>
<text text-anchor="middle" x="526" y="-327.8" font-family="Times,serif" font-size="14.00">i1</text>
<text text-anchor="middle" x="264" y="-348.8" font-family="Times,serif" font-size="14.00">/right&#45;lte</text>
</g>
<!-- r4 -->
<g id="node3" class="node">
<title>r4</title>
<g id="a_node3"><a xlink:href="file:///home/runner/.flow/lib/flowstdlib/math/add/add.html" xlink:title="add (#4)">
<ellipse fill="coral" stroke="black" cx="67" cy="-306" rx="51.19" ry="18"/>
<text text-anchor="middle" x="67" y="-302.3" font-family="Times,serif" font-size="14.00">add (#4)</text>
</a>
</g>
</g>
<!-- r5&#45;&gt;r4 -->
<g id="edge3" class="edge">
<title>r5:se&#45;&gt;r4:n</title>
<path fill="none" stroke="black" d="M314,-360C389.84,-284.16 88.17,-425.01 68.05,-334.19"/>
<polygon fill="black" stroke="black" points="71.51,-333.59 67,-324 64.54,-334.31 71.51,-333.59"/>
<text text-anchor="middle" x="60" y="-327.8" font-family="Times,serif" font-size="14.00">i1</text>
<text text-anchor="middle" x="307" y="-348.8" font-family="Times,serif" font-size="14.00">:1</text>
</g>
<!-- r7 -->
<g id="node4" class="node">
<title>r7</title>
<g id="a_node4"><a xlink:href="file:///home/runner/.flow/lib/flowstdlib/math/compare/compare.html" xlink:title="not&#45;last (#7)">
<ellipse fill="coral" stroke="black" cx="260" cy="-306" rx="69.59" ry="18"/>
<text text-anchor="middle" x="260" y="-302.3" font-family="Times,serif" font-size="14.00">not&#45;last (#7)</text>
</a>
</g>
</g>
<!-- r5&#45;&gt;r7 -->
<g id="edge4" class="edge">
<title>r5:sw&#45;&gt;r7:ne</title>
<path fill="none" stroke="black" d="M278,-360C269.78,-351.78 279.48,-342.47 281.06,-333.66"/>
<polygon fill="black" stroke="black" points="284.35,-332.48 278,-324 277.68,-334.59 284.35,-332.48"/>
<text text-anchor="middle" x="260" y="-327.8" font-family="Times,serif" font-size="14.00">right</text>
<text text-anchor="middle" x="271" y="-363.8" font-family="Times,serif" font-size="14.00">:0</text>
</g>
<!-- r5&#45;&gt;r7 -->
<g id="edge5" class="edge">
<title>r5:se&#45;&gt;r7:n</title>
<path fill="none" stroke="black" d="M314,-360C331.69,-342.31 278.09,-349.92 263.54,-333.44"/>
<polygon fill="black" stroke="black" points="266.79,-332.13 260,-324 260.23,-334.59 266.79,-332.13"/>
<text text-anchor="middle" x="247.5" y="-327.8" font-family="Times,serif" font-size="14.00">left</text>
<text text-anchor="middle" x="321" y="-348.8" font-family="Times,serif" font-size="14.00">:1</text>
</g>
<!-- r2 -->
<g id="node8" class="node">
<title>r2</title>
<g id="a_node8"><a xlink:href="file:///home/runner/.flow/lib/flowstdlib/math/divide/divide.html" xlink:title="divide2 (#2)">
<ellipse fill="coral" stroke="black" cx="897" cy="-234" rx="68.49" ry="18"/>
<text text-anchor="middle" x="897" y="-230.3" font-family="Times,serif" font-size="14.00">divide2 (#2)</text>
</a>
</g>
</g>
<!-- r0&#45;&gt;r2 -->
<g id="edge13" class="edge">
<title>r0:e&#45;&gt;r2:n</title>
<path fill="none" stroke="black" d="M591,-306C606.51,-306 841.15,-276.35 888.65,-257.8"/>
<polygon fill="black" stroke="black" points="890.79,-260.58 897,-252 886.79,-254.83 890.79,-260.58"/>
<text text-anchor="middle" x="866" y="-255.8" font-family="Times,serif" font-size="14.00">dividend</text>
</g>
<!-- r6 -->
<g id="node5" class="node">
<title>r6</title>
<g id="a_node5"><a xlink:href="file:///home/runner/.flow/lib/flowstdlib/control/tap/tap.html" xlink:title="next&#45;tap (#6)">
<ellipse fill="coral" stroke="black" cx="305" cy="-234" rx="72.59" ry="18"/>
<text text-anchor="middle" x="305" y="-230.3" font-family="Times,serif" font-size="14.00">next&#45;tap (#6)</text>
</a>
</g>
</g>
<!-- r4&#45;&gt;r6 -->
<g id="edge6" class="edge">
<title>r4:e&#45;&gt;r6:n</title>
<path fill="none" stroke="black" d="M120,-306C137.1,-306 138,-294.03 154,-288 215.03,-265 295.61,-314.97 304.24,-262.22"/>
<polygon fill="black" stroke="black" points="307.75,-262.23 305,-252 300.77,-261.71 307.75,-262.23"/>
<text text-anchor="middle" x="289" y="-255.8" font-family="Times,serif" font-size="14.00">data</text>
</g>
<!-- r8 -->
<g id="node6" class="node">
<title>r8</title>
<g id="a_node6"><a xlink:href="file:///home/runner/.flow/lib/flowstdlib/control/tap/tap.html" xlink:title="step&#45;tap (#8)">
<ellipse fill="coral" stroke="black" cx="88" cy="-234" rx="72.29" ry="18"/>
<text text-anchor="middle" x="88" y="-230.3" font-family="Times,serif" font-size="14.00">step&#45;tap (#8)</text>
</a>
</g>
</g>
<!-- r4&#45;&gt;r8 -->
<g id="edge7" class="edge">
<title>r4:se&#45;&gt;r8:n</title>
<path fill="none" stroke="black" d="M84,-288C92.72,-279.28 90.43,-272.25 88.88,-262.2"/>
<polygon fill="black" stroke="black" points="92.35,-261.66 88,-252 85.37,-262.26 92.35,-261.66"/>
<text text-anchor="middle" x="72" y="-255.8" font-family="Times,serif" font-size="14.00">data</text>
<text text-anchor="middle" x="77" y="-276.8" font-family="Times,serif" font-size="14.00">:1</text>
</g>
<!-- r7&#45;&gt;r6 -->
<g id="edge10" class="edge">
<title>r7:se&#45;&gt;r6:ne</title>
<path fill="none" stroke="black" d="M278,-288C292.29,-273.71 323.32,-270.83 326.88,-261.36"/>
<polygon fill="black" stroke="black" points="330.06,-259.9 323,-252 323.6,-262.58 330.06,-259.9"/>
<text text-anchor="middle" x="348.5" y="-255.8" font-family="Times,serif" font-size="14.00">control</text>
<text text-anchor="middle" x="270" y="-276.8" font-family="Times,serif" font-size="14.00">/lt</text>
</g>
<!-- r7&#45;&gt;r8 -->
<g id="edge11" class="edge">
<title>r7:se&#45;&gt;r8:ne</title>
<path fill="none" stroke="black" d="M278,-288C330.85,-235.15 175.59,-301.07 113.74,-258.42"/>
<polygon fill="black" stroke="black" points="115.93,-255.69 106,-252 111.46,-261.08 115.93,-255.69"/>
<text text-anchor="middle" x="131.5" y="-255.8" font-family="Times,serif" font-size="14.00">control</text>
<text text-anchor="middle" x="286" y="-276.8" font-family="Times,serif" font-size="14.00">/lt</text>
</g>
<!-- r6&#45;&gt;r5 -->
<g id="edge8" class="edge">
<title>r6:e&#45;&gt;r5:ne</title>
<path fill="none" stroke="black" d="M379,-234C455.22,-234 431.1,-369.15 404.54,-396 392.44,-408.24 345.19,-410.68 322.88,-402.23"/>
<polygon fill="black" stroke="black" points="324.39,-399.05 314,-397 320.85,-405.09 324.39,-399.05"/>
<text text-anchor="middle" x="332" y="-400.8" font-family="Times,serif" font-size="14.00">right</text>
</g>
<!-- r8&#45;&gt;r4 -->
<g id="edge9" class="edge">
<title>r8:e&#45;&gt;r4:ne</title>
<path fill="none" stroke="black" d="M161,-234C182.93,-234 137.22,-311.82 118.35,-323 108.59,-328.78 100.35,-332.48 92.33,-329.59"/>
<polygon fill="black" stroke="black" points="94.25,-326.67 84,-324 90.35,-332.48 94.25,-326.67"/>
<text text-anchor="middle" x="77" y="-327.8" font-family="Times,serif" font-size="14.00">i2</text>
</g>
<!-- initializerr0_1 -->
<!-- initializerr0_1&#45;&gt;r0 -->
<g id="edge12" class="edge">
<title>initializerr0_1&#45;&gt;r0:w</title>
<path fill="none" stroke="blue" d="M628.55,-365.06C569.47,-351.37 480.94,-330.03 476,-324 474.1,-321.68 472.35,-318.56 471.34,-315.58"/>
<polygon fill="blue" stroke="blue" points="474.7,-316.59 475,-306 468.16,-314.09 474.7,-316.59"/>
<text text-anchor="middle" x="623.55" y="-353.86" font-family="Times,serif" font-size="14.00">1</text>
</g>
<!-- r1 -->
<g id="node10" class="node">
<title>r1</title>
<g id="a_node10"><a xlink:href="file:///home/runner/.flow/lib/flowstdlib/math/add/add.html" xlink:title="add2 (#1)">
<ellipse fill="coral" stroke="black" cx="826" cy="-162" rx="57.39" ry="18"/>
<text text-anchor="middle" x="826" y="-158.3" font-family="Times,serif" font-size="14.00">add2 (#1)</text>
</a>
</g>
</g>
<!-- r2&#45;&gt;r1 -->
<g id="edge15" class="edge">
<title>r2:se&#45;&gt;r1:n</title>
<path fill="none" stroke="black" d="M914,-216C941.08,-188.92 846.8,-216.06 828.89,-189.94"/>
<polygon fill="black" stroke="black" points="832.15,-188.63 826,-180 825.43,-190.58 832.15,-188.63"/>
<text text-anchor="middle" x="819" y="-183.8" font-family="Times,serif" font-size="14.00">i1</text>
<text text-anchor="middle" x="890.5" y="-204.8" font-family="Times,serif" font-size="14.00">/result</text>
</g>
<!-- initializerr2_1 -->
<!-- initializerr2_1&#45;&gt;r2 -->
<g id="edge14" class="edge">
<title>initializerr2_1&#45;&gt;r2:nw</title>
<path fill="none" stroke="blue" d="M874.39,-287.83C872.47,-279.31 871.49,-269.07 874.6,-260.61"/>
<polygon fill="blue" stroke="blue" points="877.65,-262.33 880,-252 871.72,-258.61 877.65,-262.33"/>
<text text-anchor="middle" x="869.39" y="-276.63" font-family="Times,serif" font-size="14.00">2</text>
</g>
<!-- r3 -->
<g id="node12" class="node">
<title>r3</title>
<g id="a_node12"><a xlink:href="file:///home/runner/.flow/lib/flowstdlib/math/divide/divide.html" xlink:title="divide4 (#3)">
<ellipse fill="coral" stroke="black" cx="760" cy="-90" rx="68.49" ry="18"/>
<text text-anchor="middle" x="760" y="-86.3" font-family="Times,serif" font-size="14.00">divide4 (#3)</text>
</a>
</g>
</g>
<!-- r1&#45;&gt;r3 -->
<g id="edge17" class="edge">
<title>r1:e&#45;&gt;r3:n</title>
<path fill="none" stroke="black" d="M884,-162C892.01,-162 887.98,-150.28 883,-144 850.08,-102.52 772.06,-156.28 761.25,-118.28"/>
<polygon fill="black" stroke="black" points="764.68,-117.5 760,-108 757.73,-118.35 764.68,-117.5"/>
<text text-anchor="middle" x="729" y="-111.8" font-family="Times,serif" font-size="14.00">dividend</text>
</g>
<!-- initializerr1_1 -->
<!-- initializerr1_1&#45;&gt;r1 -->
<g id="edge16" class="edge">
<title>initializerr1_1&#45;&gt;r1:w</title>
<path fill="none" stroke="blue" d="M696.49,-216.17C713.18,-198.7 739.79,-172.8 758.09,-164.59"/>
<polygon fill="blue" stroke="blue" points="759.21,-167.92 768,-162 757.44,-161.14 759.21,-167.92"/>
<text text-anchor="middle" x="691.49" y="-204.97" font-family="Times,serif" font-size="14.00">2</text>
</g>
<!-- r9 -->
<g id="node14" class="node">
<title>r9</title>
<g id="a_node14"><a xlink:href="file:///home/runner/work/flow/flow/flowr/src/bin/flowrcli/cli/stdio/stdout.html" xlink:title="stdout (#9)">
<ellipse fill="coral" stroke="black" cx="777" cy="-18" rx="63.89" ry="18"/>
<text text-anchor="middle" x="777" y="-14.3" font-family="Times,serif" font-size="14.00">stdout (#9)</text>
</a>
</g>
</g>
<!-- r3&#45;&gt;r9 -->
<g id="edge19" class="edge">
<title>r3:se&#45;&gt;r9:n</title>
<path fill="none" stroke="black" d="M777,-72C785.66,-63.34 781.06,-56.22 778.43,-46.17"/>
<polygon fill="black" stroke="black" points="781.86,-45.42 777,-36 774.92,-46.39 781.86,-45.42"/>
<text text-anchor="middle" x="753.5" y="-60.8" font-family="Times,serif" font-size="14.00">/result</text>
</g>
<!-- initializerr3_1 -->
<!-- initializerr3_1&#45;&gt;r3 -->
<g id="edge18" class="edge">
<title>initializerr3_1&#45;&gt;r3:nw</title>
<path fill="none" stroke="blue" d="M671.42,-148.51C692.58,-141.38 716.57,-130.65 735.31,-115.01"/>
<polygon fill="blue" stroke="blue" points="737.97,-117.32 743,-108 733.25,-112.15 737.97,-117.32"/>
<text text-anchor="middle" x="666.42" y="-137.31" font-family="Times,serif" font-size="14.00">2</text>
</g>
</g>
</svg>
