<?xml version="1.0" encoding="UTF-8" standalone="no"?>
<!DOCTYPE svg PUBLIC "-//W3C//DTD SVG 1.1//EN"
 "http://www.w3.org/Graphics/SVG/1.1/DTD/svg11.dtd">
<!-- Generated by graphviz version 2.43.0 (0)
 -->
<!-- Title: pipeline Pages: 1 -->
<svg width="1015pt" height="527pt"
 viewBox="0.00 0.00 1015.14 527.00" xmlns="http://www.w3.org/2000/svg" xmlns:xlink="http://www.w3.org/1999/xlink">
<g id="graph0" class="graph" transform="scale(1 1) rotate(0) translate(4 523)">
<title>pipeline</title>
<polygon fill="white" stroke="transparent" points="-4,4 -4,-523 1011.14,-523 1011.14,4 -4,4"/>
<text text-anchor="middle" x="503.57" y="-503.8" font-family="Times,serif" font-size="14.00">/pipeline</text>
<g id="clust1" class="cluster">
<title>cluster_sequence</title>
<polygon fill="none" stroke="black" points="215.39,-239 215.39,-488 806.39,-488 806.39,-239 215.39,-239"/>
<text text-anchor="middle" x="510.89" y="-472.8" font-family="Times,serif" font-size="14.00">/pipeline/sequence</text>
</g>
<!-- r6 -->
<g id="node1" class="node">
<title>r6</title>
<g id="a_node1"><a xlink:href="file:///home/runner/work/flow/flow/target/flowstdlib/control/compare_switch/compare_switch.html" xlink:title="compare_switch (#6)">
<ellipse fill="coral" stroke="black" cx="625.39" cy="-439" rx="108.58" ry="18"/>
<text text-anchor="middle" x="625.39" y="-435.3" font-family="Times,serif" font-size="14.00">compare_switch (#6)</text>
</a>
</g>
</g>
<!-- r6&#45;&gt;r6 -->
<g id="edge2" class="edge">
<title>r6:e&#45;&gt;r6:n</title>
<path fill="none" stroke="black" d="M734.39,-439C757.93,-428.5 805.93,-428.5 805.93,-448 805.93,-466.47 697.93,-467.45 635.39,-458.57"/>
<polygon fill="black" stroke="black" points="635.82,-455.1 625.39,-457 634.73,-462.01 635.82,-455.1"/>
<text text-anchor="middle" x="612.89" y="-460.8" font-family="Times,serif" font-size="14.00">left</text>
<text text-anchor="middle" x="758.89" y="-442.8" font-family="Times,serif" font-size="14.00">/left&#45;gt</text>
</g>
<!-- r0 -->
<g id="node2" class="node">
<title>r0</title>
<g id="a_node2"><a xlink:href="file:///home/runner/work/flow/flow/target/flowstdlib/math/add/add.html" xlink:title="add1 (#0)">
<ellipse fill="coral" stroke="black" cx="280.39" cy="-352" rx="57.39" ry="18"/>
<text text-anchor="middle" x="280.39" y="-348.3" font-family="Times,serif" font-size="14.00">add1 (#0)</text>
</a>
</g>
</g>
<!-- r6&#45;&gt;r0 -->
<g id="edge1" class="edge">
<title>r6:s&#45;&gt;r0:n</title>
<path fill="none" stroke="black" d="M625.39,-421C625.39,-347.28 313.26,-437.78 282.78,-380.1"/>
<polygon fill="black" stroke="black" points="286.1,-378.93 280.39,-370 279.29,-380.54 286.1,-378.93"/>
<text text-anchor="middle" x="273.39" y="-373.8" font-family="Times,serif" font-size="14.00">i1</text>
<text text-anchor="middle" x="593.39" y="-409.8" font-family="Times,serif" font-size="14.00">/right&#45;lte</text>
</g>
<!-- r5 -->
<g id="node3" class="node">
<title>r5</title>
<g id="a_node3"><a xlink:href="file:///home/runner/work/flow/flow/target/flowstdlib/math/add/add.html" xlink:title="add (#5)">
<ellipse fill="coral" stroke="black" cx="461.39" cy="-352" rx="51.19" ry="18"/>
<text text-anchor="middle" x="461.39" y="-348.3" font-family="Times,serif" font-size="14.00">add (#5)</text>
</a>
</g>
</g>
<!-- r6&#45;&gt;r5 -->
<g id="edge3" class="edge">
<title>r6:se&#45;&gt;r5:n</title>
<path fill="none" stroke="black" d="M643.39,-421C644.85,-419.54 628.09,-389.17 626.39,-388 599.2,-369.32 488.63,-399.17 465.6,-379.27"/>
<polygon fill="black" stroke="black" points="468.72,-377.66 461.39,-370 462.34,-380.55 468.72,-377.66"/>
<text text-anchor="middle" x="454.39" y="-373.8" font-family="Times,serif" font-size="14.00">i1</text>
<text text-anchor="middle" x="636.39" y="-409.8" font-family="Times,serif" font-size="14.00">:1</text>
</g>
<!-- r8 -->
<g id="node4" class="node">
<title>r8</title>
<g id="a_node4"><a xlink:href="file:///home/runner/work/flow/flow/target/flowstdlib/math/compare/compare.html" xlink:title="not&#45;last (#8)">
<ellipse fill="coral" stroke="black" cx="654.39" cy="-352" rx="69.59" ry="18"/>
<text text-anchor="middle" x="654.39" y="-348.3" font-family="Times,serif" font-size="14.00">not&#45;last (#8)</text>
</a>
</g>
</g>
<!-- r6&#45;&gt;r8 -->
<g id="edge4" class="edge">
<title>r6:sw&#45;&gt;r8:ne</title>
<path fill="none" stroke="black" d="M607.39,-421C594.93,-408.54 615.79,-399.22 629.39,-388 638.88,-380.17 657.43,-380.46 667.86,-378.92"/>
<polygon fill="black" stroke="black" points="670.98,-380.5 672.39,-370 664.74,-377.33 670.98,-380.5"/>
<text text-anchor="middle" x="654.39" y="-373.8" font-family="Times,serif" font-size="14.00">right</text>
<text text-anchor="middle" x="600.39" y="-424.8" font-family="Times,serif" font-size="14.00">:0</text>
</g>
<!-- r6&#45;&gt;r8 -->
<g id="edge5" class="edge">
<title>r6:se&#45;&gt;r8:n</title>
<path fill="none" stroke="black" d="M643.39,-421C657.23,-407.17 655.55,-396.88 654.68,-380.07"/>
<polygon fill="black" stroke="black" points="658.18,-379.89 654.39,-370 651.18,-380.1 658.18,-379.89"/>
<text text-anchor="middle" x="641.89" y="-373.8" font-family="Times,serif" font-size="14.00">left</text>
<text text-anchor="middle" x="650.39" y="-409.8" font-family="Times,serif" font-size="14.00">:1</text>
</g>
<!-- r2 -->
<g id="node8" class="node">
<title>r2</title>
<g id="a_node8"><a xlink:href="file:///home/runner/work/flow/flow/target/flowstdlib/math/divide/divide.html" xlink:title="divide2 (#2)">
<ellipse fill="coral" stroke="black" cx="139.39" cy="-265" rx="68.49" ry="18"/>
<text text-anchor="middle" x="139.39" y="-261.3" font-family="Times,serif" font-size="14.00">divide2 (#2)</text>
</a>
</g>
</g>
<!-- r0&#45;&gt;r2 -->
<g id="edge13" class="edge">
<title>r0:e&#45;&gt;r2:n</title>
<path fill="none" stroke="black" d="M338.39,-352C346.41,-352 342.48,-340.19 337.39,-334 282.12,-266.63 150.77,-365.14 140.09,-293.19"/>
<polygon fill="black" stroke="black" points="143.56,-292.74 139.39,-283 136.58,-293.21 143.56,-292.74"/>
<text text-anchor="middle" x="108.39" y="-286.8" font-family="Times,serif" font-size="14.00">dividend</text>
</g>
<!-- r7 -->
<g id="node5" class="node">
<title>r7</title>
<g id="a_node5"><a xlink:href="file:///home/runner/work/flow/flow/target/flowstdlib/control/tap/tap.html" xlink:title="next&#45;tap (#7)">
<ellipse fill="coral" stroke="black" cx="662.39" cy="-265" rx="72.59" ry="18"/>
<text text-anchor="middle" x="662.39" y="-261.3" font-family="Times,serif" font-size="14.00">next&#45;tap (#7)</text>
</a>
</g>
</g>
<!-- r5&#45;&gt;r7 -->
<g id="edge6" class="edge">
<title>r5:e&#45;&gt;r7:n</title>
<path fill="none" stroke="black" d="M514.39,-352C531.49,-352 533.03,-341.5 548.39,-334 594.97,-311.28 653.94,-334.91 661.57,-292.98"/>
<polygon fill="black" stroke="black" points="665.06,-293.25 662.39,-283 658.08,-292.68 665.06,-293.25"/>
<text text-anchor="middle" x="646.39" y="-286.8" font-family="Times,serif" font-size="14.00">data</text>
</g>
<!-- r9 -->
<g id="node6" class="node">
<title>r9</title>
<g id="a_node6"><a xlink:href="file:///home/runner/work/flow/flow/target/flowstdlib/control/tap/tap.html" xlink:title="step&#45;tap (#9)">
<ellipse fill="coral" stroke="black" cx="445.39" cy="-265" rx="72.29" ry="18"/>
<text text-anchor="middle" x="445.39" y="-261.3" font-family="Times,serif" font-size="14.00">step&#45;tap (#9)</text>
</a>
</g>
</g>
<!-- r5&#45;&gt;r9 -->
<g id="edge7" class="edge">
<title>r5:se&#45;&gt;r9:n</title>
<path fill="none" stroke="black" d="M478.39,-334C494.87,-317.52 458.31,-311.61 448,-292.93"/>
<polygon fill="black" stroke="black" points="451.32,-291.78 445.39,-283 444.55,-293.56 451.32,-291.78"/>
<text text-anchor="middle" x="429.39" y="-286.8" font-family="Times,serif" font-size="14.00">data</text>
<text text-anchor="middle" x="471.39" y="-322.8" font-family="Times,serif" font-size="14.00">:1</text>
</g>
<!-- r8&#45;&gt;r7 -->
<g id="edge10" class="edge">
<title>r8:se&#45;&gt;r7:ne</title>
<path fill="none" stroke="black" d="M672.39,-334C685.96,-320.44 693.77,-305.25 686.49,-291.15"/>
<polygon fill="black" stroke="black" points="689.19,-288.91 680.39,-283 683.58,-293.1 689.19,-288.91"/>
<text text-anchor="middle" x="705.89" y="-286.8" font-family="Times,serif" font-size="14.00">control</text>
<text text-anchor="middle" x="664.39" y="-322.8" font-family="Times,serif" font-size="14.00">/lt</text>
</g>
<!-- r8&#45;&gt;r9 -->
<g id="edge11" class="edge">
<title>r8:se&#45;&gt;r9:ne</title>
<path fill="none" stroke="black" d="M672.39,-334C688.56,-317.84 516.81,-291.97 473.27,-284.82"/>
<polygon fill="black" stroke="black" points="473.86,-281.37 463.39,-283 472.59,-288.26 473.86,-281.37"/>
<text text-anchor="middle" x="488.89" y="-286.8" font-family="Times,serif" font-size="14.00">control</text>
<text text-anchor="middle" x="680.39" y="-322.8" font-family="Times,serif" font-size="14.00">/lt</text>
</g>
<!-- r7&#45;&gt;r6 -->
<g id="edge8" class="edge">
<title>r7:e&#45;&gt;r6:ne</title>
<path fill="none" stroke="black" d="M736.39,-265C821.73,-265 802.22,-405.81 733.93,-457 727.33,-461.95 675.42,-464.24 653.05,-460.97"/>
<polygon fill="black" stroke="black" points="653.98,-457.6 643.39,-458 651.92,-464.29 653.98,-457.6"/>
<text text-anchor="middle" x="661.39" y="-461.8" font-family="Times,serif" font-size="14.00">right</text>
</g>
<!-- r9&#45;&gt;r5 -->
<g id="edge9" class="edge">
<title>r9:e&#45;&gt;r5:ne</title>
<path fill="none" stroke="black" d="M518.39,-265C564.68,-265 545.88,-336.68 512.74,-369 504.54,-377 495.39,-379.63 486.78,-375.9"/>
<polygon fill="black" stroke="black" points="488.59,-372.89 478.39,-370 484.56,-378.62 488.59,-372.89"/>
<text text-anchor="middle" x="471.39" y="-373.8" font-family="Times,serif" font-size="14.00">i2</text>
</g>
<!-- initializerr0_1 -->
<!-- initializerr0_1&#45;&gt;r0 -->
<g id="edge12" class="edge">
<title>initializerr0_1&#45;&gt;r0:w</title>
<path fill="none" stroke="blue" d="M847.29,-425.88C838.35,-424.06 829.13,-422.35 820.39,-421 666.41,-397.24 626.66,-400.97 471.39,-388 443.86,-385.7 242.76,-389.7 223.39,-370 221.2,-367.77 219.34,-364.53 218.38,-361.42"/>
<polygon fill="blue" stroke="blue" points="221.69,-362.57 222.39,-352 215.25,-359.82 221.69,-362.57"/>
<text text-anchor="middle" x="680.39" y="-391.8" font-family="Times,serif" font-size="14.00">1</text>
</g>
<!-- r1 -->
<g id="node10" class="node">
<title>r1</title>
<g id="a_node10"><a xlink:href="file:///home/runner/work/flow/flow/target/flowstdlib/math/add/add.html" xlink:title="add2 (#1)">
<ellipse fill="coral" stroke="black" cx="944.39" cy="-178" rx="57.39" ry="18"/>
<text text-anchor="middle" x="944.39" y="-174.3" font-family="Times,serif" font-size="14.00">add2 (#1)</text>
</a>
</g>
</g>
<!-- r2&#45;&gt;r1 -->
<g id="edge15" class="edge">
<title>r2:se&#45;&gt;r1:n</title>
<path fill="none" stroke="black" d="M156.39,-247C185.67,-217.73 862.29,-242.59 901.39,-229 920.41,-222.39 937.68,-220.6 942.84,-206.12"/>
<polygon fill="black" stroke="black" points="946.33,-206.42 944.39,-196 939.41,-205.35 946.33,-206.42"/>
<text text-anchor="middle" x="937.39" y="-199.8" font-family="Times,serif" font-size="14.00">i1</text>
<text text-anchor="middle" x="132.89" y="-235.8" font-family="Times,serif" font-size="14.00">/result</text>
</g>
<!-- initializerr2_1 -->
<!-- initializerr2_1&#45;&gt;r2 -->
<g id="edge14" class="edge">
<title>initializerr2_1&#45;&gt;r2:nw</title>
<path fill="none" stroke="blue" d="M84.72,-334.09C91.95,-321.78 102.82,-304.85 115.3,-290.6"/>
<polygon fill="blue" stroke="blue" points="118.13,-292.7 122.39,-283 113.01,-287.92 118.13,-292.7"/>
<text text-anchor="middle" x="111.39" y="-304.8" font-family="Times,serif" font-size="14.00">2</text>
</g>
<!-- r3 -->
<g id="node12" class="node">
<title>r3</title>
<g id="a_node12"><a xlink:href="file:///home/runner/work/flow/flow/target/flowstdlib/math/divide/divide.html" xlink:title="divide4 (#3)">
<ellipse fill="coral" stroke="black" cx="773.39" cy="-91" rx="68.49" ry="18"/>
<text text-anchor="middle" x="773.39" y="-87.3" font-family="Times,serif" font-size="14.00">divide4 (#3)</text>
</a>
</g>
</g>
<!-- r1&#45;&gt;r3 -->
<g id="edge17" class="edge">
<title>r1:e&#45;&gt;r3:n</title>
<path fill="none" stroke="black" d="M1002.39,-178C1010.41,-178 1006.57,-166.11 1001.39,-160 936.61,-83.57 784.59,-203.81 773.98,-119.1"/>
<polygon fill="black" stroke="black" points="777.47,-118.78 773.39,-109 770.48,-119.19 777.47,-118.78"/>
<text text-anchor="middle" x="742.39" y="-112.8" font-family="Times,serif" font-size="14.00">dividend</text>
</g>
<!-- initializerr1_1 -->
<!-- initializerr1_1&#45;&gt;r1 -->
<g id="edge16" class="edge">
<title>initializerr1_1&#45;&gt;r1:w</title>
<path fill="none" stroke="blue" d="M882.13,-247.01C873.79,-225.67 862.92,-190.63 876.76,-180.7"/>
<polygon fill="blue" stroke="blue" points="877.71,-184.07 886.39,-178 875.82,-177.33 877.71,-184.07"/>
<text text-anchor="middle" x="880.39" y="-217.8" font-family="Times,serif" font-size="14.00">2</text>
</g>
<!-- r4 -->
<g id="node14" class="node">
<title>r4</title>
<g id="a_node14"><a xlink:href="file:///home/runner/work/flow/flow/flowr/src/cli/stdio/stdout.html" xlink:title="print (#4)">
<ellipse fill="coral" stroke="black" cx="790.39" cy="-18" rx="57.39" ry="18"/>
<text text-anchor="middle" x="790.39" y="-14.3" font-family="Times,serif" font-size="14.00">print (#4)</text>
</a>
</g>
</g>
<!-- r3&#45;&gt;r4 -->
<g id="edge19" class="edge">
<title>r3:se&#45;&gt;r4:n</title>
<path fill="none" stroke="black" d="M790.39,-73C799.39,-64.01 794.47,-56.63 791.78,-46.14"/>
<polygon fill="black" stroke="black" points="795.21,-45.43 790.39,-36 788.28,-46.38 795.21,-45.43"/>
<text text-anchor="middle" x="766.89" y="-61.8" font-family="Times,serif" font-size="14.00">/result</text>
</g>
<!-- initializerr3_1 -->
<!-- initializerr3_1&#45;&gt;r3 -->
<g id="edge18" class="edge">
<title>initializerr3_1&#45;&gt;r3:nw</title>
<path fill="none" stroke="blue" d="M739.02,-159.83C739.53,-147.21 741.92,-130.07 750.12,-116.95"/>
<polygon fill="blue" stroke="blue" points="752.95,-119.02 756.39,-109 747.45,-114.68 752.95,-119.02"/>
<text text-anchor="middle" x="749.39" y="-130.8" font-family="Times,serif" font-size="14.00">2</text>
</g>
</g>
</svg>
