<?xml version="1.0" encoding="UTF-8" standalone="no"?>
<!DOCTYPE svg PUBLIC "-//W3C//DTD SVG 1.1//EN"
 "http://www.w3.org/Graphics/SVG/1.1/DTD/svg11.dtd">
<!-- Generated by graphviz version 2.43.0 (0)
 -->
<!-- Title: pipeline Pages: 1 -->
<svg width="928pt" height="694pt"
 viewBox="28.80 28.80 899.14 665.19" xmlns="http://www.w3.org/2000/svg" xmlns:xlink="http://www.w3.org/1999/xlink">
<g id="graph0" class="graph" transform="scale(1 1) rotate(0) translate(32.8 661.19)">
<title>pipeline</title>
<polygon fill="white" stroke="transparent" points="-4,4 -4,-632.39 866.34,-632.39 866.34,4 -4,4"/>
<text text-anchor="middle" x="431.17" y="-613.19" font-family="Times,serif" font-size="14.00">pipeline</text>
<!-- /pipeline/sequence -->
<g id="node1" class="node">
<title>/pipeline/sequence</title>
<g id="a_node1"><a xlink:href="../../../../../.flow/lib/flowstdlib/math/sequence.toml.dot.svg" xlink:title="sequence">
<ellipse fill="aquamarine" stroke="black" cx="72" cy="-533.39" rx="72" ry="72"/>
<text text-anchor="middle" x="72" y="-529.69" font-family="Times,serif" font-size="14.00">sequence</text>
</a>
</g>
</g>
<!-- /pipeline/add1 -->
<g id="node2" class="node">
<title>/pipeline/add1</title>
<g id="a_node2"><a xlink:href="../../../../../.flow/lib/flowstdlib/math/add/add.html" xlink:title="add1\n(add)">
<ellipse fill="coral" stroke="black" cx="447" cy="-398.52" rx="37.45" ry="26.74"/>
<text text-anchor="middle" x="447" y="-402.32" font-family="Times,serif" font-size="14.00">add1</text>
<text text-anchor="middle" x="447" y="-387.32" font-family="Times,serif" font-size="14.00">(add)</text>
</a>
</g>
</g>
<!-- /pipeline/divide2 -->
<g id="node4" class="node">
<title>/pipeline/divide2</title>
<g id="a_node4"><a xlink:href="../../../../../.flow/lib/flowstdlib/math/divide/divide.html" xlink:title="divide2\n(divide)">
<ellipse fill="coral" stroke="black" cx="602" cy="-308.78" rx="50.41" ry="26.74"/>
<text text-anchor="middle" x="602" y="-312.58" font-family="Times,serif" font-size="14.00">divide2</text>
<text text-anchor="middle" x="602" y="-297.58" font-family="Times,serif" font-size="14.00">(divide)</text>
</a>
</g>
</g>
<!-- /pipeline/add1&#45;&gt;/pipeline/divide2 -->
<g id="edge6" class="edge">
<title>/pipeline/add1:e&#45;&gt;/pipeline/divide2:w</title>
<path fill="none" stroke="black" d="M486,-398.52C498.46,-398.52 486.83,-381.84 494,-371.65 509.55,-349.55 527.45,-357.75 543,-335.65 546.92,-330.07 545.22,-322.56 544.91,-316.9"/>
<polygon fill="black" stroke="black" points="547.8,-318.88 551,-308.78 542.2,-314.68 547.8,-318.88"/>
<text text-anchor="middle" x="520" y="-312.58" font-family="Times,serif" font-size="14.00">dividend</text>
</g>
<!-- initializer/pipeline/add1_1 -->
<!-- initializer/pipeline/add1_1&#45;&gt;/pipeline/add1 -->
<g id="edge1" class="edge">
<title>initializer/pipeline/add1_1&#45;&gt;/pipeline/add1:w</title>
<path fill="none" stroke="blue" d="M298.59,-515.16C310.8,-481.05 343.22,-407.49 397.91,-399.27"/>
<polygon fill="blue" stroke="blue" points="398.29,-402.75 408,-398.52 397.77,-395.77 398.29,-402.75"/>
<text text-anchor="middle" x="293.59" y="-503.96" font-family="Times,serif" font-size="14.00">1</text>
</g>
<!-- /pipeline/add2 -->
<g id="node6" class="node">
<title>/pipeline/add2</title>
<g id="a_node6"><a xlink:href="../../../../../.flow/lib/flowstdlib/math/add/add.html" xlink:title="add2\n(add)">
<ellipse fill="coral" stroke="black" cx="522" cy="-219.04" rx="37.45" ry="26.74"/>
<text text-anchor="middle" x="522" y="-222.84" font-family="Times,serif" font-size="14.00">add2</text>
<text text-anchor="middle" x="522" y="-207.84" font-family="Times,serif" font-size="14.00">(add)</text>
</a>
</g>
</g>
<!-- /pipeline/divide2&#45;&gt;/pipeline/add2 -->
<g id="edge7" class="edge">
<title>/pipeline/divide2:se&#45;&gt;/pipeline/add2:ne</title>
<path fill="none" stroke="black" d="M626,-283.78C652.54,-257.23 585.62,-268.62 552.1,-248.29"/>
<polygon fill="black" stroke="black" points="554.05,-245.38 544,-242.04 549.77,-250.92 554.05,-245.38"/>
<text text-anchor="middle" x="564.48" y="-263.36" font-family="Times,serif" font-size="14.00">result</text>
<text text-anchor="middle" x="537" y="-245.84" font-family="Times,serif" font-size="14.00">i1</text>
</g>
<!-- initializer/pipeline/divide2_1 -->
<!-- initializer/pipeline/divide2_1&#45;&gt;/pipeline/divide2 -->
<g id="edge2" class="edge">
<title>initializer/pipeline/divide2_1&#45;&gt;/pipeline/divide2:nw</title>
<path fill="none" stroke="blue" d="M608.36,-380.98C589.11,-370.54 570.01,-356.46 572.79,-342.72"/>
<polygon fill="blue" stroke="blue" points="575.99,-344.18 578,-333.78 569.94,-340.66 575.99,-344.18"/>
<text text-anchor="middle" x="603.36" y="-369.78" font-family="Times,serif" font-size="14.00">2</text>
</g>
<!-- /pipeline/divide4 -->
<g id="node8" class="node">
<title>/pipeline/divide4</title>
<g id="a_node8"><a xlink:href="../../../../../.flow/lib/flowstdlib/math/divide/divide.html" xlink:title="divide4\n(divide)">
<ellipse fill="coral" stroke="black" cx="677" cy="-129.3" rx="50.41" ry="26.74"/>
<text text-anchor="middle" x="677" y="-133.1" font-family="Times,serif" font-size="14.00">divide4</text>
<text text-anchor="middle" x="677" y="-118.1" font-family="Times,serif" font-size="14.00">(divide)</text>
</a>
</g>
</g>
<!-- /pipeline/add2&#45;&gt;/pipeline/divide4 -->
<g id="edge8" class="edge">
<title>/pipeline/add2:e&#45;&gt;/pipeline/divide4:w</title>
<path fill="none" stroke="black" d="M561,-219.04C573.46,-219.04 562.89,-203.02 569,-192.17 585.7,-162.51 587.96,-135.18 615.96,-130.13"/>
<polygon fill="black" stroke="black" points="616.32,-133.61 626,-129.3 615.74,-126.64 616.32,-133.61"/>
<text text-anchor="middle" x="595" y="-133.1" font-family="Times,serif" font-size="14.00">dividend</text>
</g>
<!-- initializer/pipeline/add2_1 -->
<!-- initializer/pipeline/add2_1&#45;&gt;/pipeline/add2 -->
<g id="edge3" class="edge">
<title>initializer/pipeline/add2_1&#45;&gt;/pipeline/add2:w</title>
<path fill="none" stroke="blue" d="M409.37,-290.67C419.23,-267.2 440.52,-227.11 473.04,-220.1"/>
<polygon fill="blue" stroke="blue" points="473.43,-223.58 483,-219.04 472.69,-216.62 473.43,-223.58"/>
<text text-anchor="middle" x="404.37" y="-279.47" font-family="Times,serif" font-size="14.00">2</text>
</g>
<!-- /pipeline/print -->
<g id="node10" class="node">
<title>/pipeline/print</title>
<g id="a_node10"><a xlink:href="../../flowr/src/cli/stdio/stdout.html" xlink:title="print\n(stdout)">
<polygon fill="black" stroke="black" points="828.61,-43.54 765,-66.64 701.39,-43.54 701.45,-6.17 828.55,-6.17 828.61,-43.54"/>
<text text-anchor="middle" x="765" y="-37.01" font-family="Times,serif" font-size="14.00" fill="white">print</text>
<text text-anchor="middle" x="765" y="-22.01" font-family="Times,serif" font-size="14.00" fill="white">(stdout)</text>
</a>
</g>
</g>
<!-- /pipeline/divide4&#45;&gt;/pipeline/print -->
<g id="edge9" class="edge">
<title>/pipeline/divide4:se&#45;&gt;/pipeline/print:w</title>
<path fill="none" stroke="black" d="M701,-104.3C719.5,-85.79 685.01,-49.19 690.55,-37.15"/>
<polygon fill="black" stroke="black" points="692.11,-40.29 700,-33.21 689.42,-33.83 692.11,-40.29"/>
<text text-anchor="middle" x="679" y="-71.8" font-family="Times,serif" font-size="14.00">result</text>
</g>
<!-- initializer/pipeline/divide4_1 -->
<!-- initializer/pipeline/divide4_1&#45;&gt;/pipeline/divide4 -->
<g id="edge4" class="edge">
<title>initializer/pipeline/divide4_1&#45;&gt;/pipeline/divide4:nw</title>
<path fill="none" stroke="blue" d="M683.36,-201.5C664.11,-191.06 645.01,-176.98 647.79,-163.24"/>
<polygon fill="blue" stroke="blue" points="650.99,-164.7 653,-154.3 644.94,-161.18 650.99,-164.7"/>
<text text-anchor="middle" x="678.36" y="-190.3" font-family="Times,serif" font-size="14.00">2</text>
</g>
<!-- /pipeline/sequence/sequence -->
<g id="node11" class="node">
<title>/pipeline/sequence/sequence</title>
<ellipse fill="none" stroke="black" cx="586" cy="-533.39" rx="143.77" ry="18"/>
<text text-anchor="middle" x="586" y="-529.69" font-family="Times,serif" font-size="14.00">/pipeline/sequence/sequence</text>
</g>
<!-- /pipeline/sequence/sequence&#45;&gt;/pipeline/add1 -->
<g id="edge5" class="edge">
<title>/pipeline/sequence/sequence:s&#45;&gt;/pipeline/add1:ne</title>
<path fill="none" stroke="black" d="M586,-514.39C586,-451.5 523.14,-466.54 476.61,-428.4"/>
<polygon fill="black" stroke="black" points="478.76,-425.63 469,-421.52 474.06,-430.82 478.76,-425.63"/>
<text text-anchor="middle" x="462" y="-425.32" font-family="Times,serif" font-size="14.00">i1</text>
</g>
</g>
</svg>
