<?xml version="1.0" encoding="UTF-8" standalone="no"?>
<!DOCTYPE svg PUBLIC "-//W3C//DTD SVG 1.1//EN"
 "http://www.w3.org/Graphics/SVG/1.1/DTD/svg11.dtd">
<!-- Generated by graphviz version 2.43.0 (0)
 -->
<!-- Title: pipeline Pages: 1 -->
<svg width="928pt" height="664pt"
 viewBox="28.80 28.80 899.14 634.76" xmlns="http://www.w3.org/2000/svg" xmlns:xlink="http://www.w3.org/1999/xlink">
<g id="graph0" class="graph" transform="scale(1 1) rotate(0) translate(32.8 630.76)">
<title>pipeline</title>
<polygon fill="white" stroke="transparent" points="-4,4 -4,-601.96 866.34,-601.96 866.34,4 -4,4"/>
<text text-anchor="middle" x="431.17" y="-582.76" font-family="Times,serif" font-size="14.00">pipeline</text>
<!-- /pipeline/sequence -->
<g id="node1" class="node">
<title>/pipeline/sequence</title>
<g id="a_node1"><a xlink:href="../../../../../.flow/lib/flowstdlib/math/sequence.toml.dot.svg" xlink:title="sequence">
<ellipse fill="aquamarine" stroke="black" cx="72" cy="-502.96" rx="72" ry="72"/>
<text text-anchor="middle" x="72" y="-499.26" font-family="Times,serif" font-size="14.00">sequence</text>
</a>
</g>
</g>
<!-- /pipeline/add1 -->
<g id="node2" class="node">
<title>/pipeline/add1</title>
<g id="a_node2"><a xlink:href="../../../../../.flow/lib/flowstdlib/math/add/add.html" xlink:title="add1\n(add)">
<ellipse fill="coral" stroke="black" cx="447" cy="-368.09" rx="37.45" ry="26.74"/>
<text text-anchor="middle" x="447" y="-371.89" font-family="Times,serif" font-size="14.00">add1</text>
<text text-anchor="middle" x="447" y="-356.89" font-family="Times,serif" font-size="14.00">(add)</text>
</a>
</g>
</g>
<!-- /pipeline/divide2 -->
<g id="node4" class="node">
<title>/pipeline/divide2</title>
<g id="a_node4"><a xlink:href="../../../../../.flow/lib/flowstdlib/math/divide/divide.html" xlink:title="divide2\n(divide)">
<ellipse fill="coral" stroke="black" cx="602" cy="-278.35" rx="50.41" ry="26.74"/>
<text text-anchor="middle" x="602" y="-282.15" font-family="Times,serif" font-size="14.00">divide2</text>
<text text-anchor="middle" x="602" y="-267.15" font-family="Times,serif" font-size="14.00">(divide)</text>
</a>
</g>
</g>
<!-- /pipeline/add1&#45;&gt;/pipeline/divide2 -->
<g id="edge6" class="edge">
<title>/pipeline/add1:e&#45;&gt;/pipeline/divide2:w</title>
<path fill="none" stroke="black" d="M486,-368.09C498.46,-368.09 486.83,-351.41 494,-341.22 509.55,-319.12 527.45,-327.32 543,-305.22 546.92,-299.65 545.22,-292.13 544.91,-286.47"/>
<polygon fill="black" stroke="black" points="547.8,-288.45 551,-278.35 542.2,-284.25 547.8,-288.45"/>
<text text-anchor="middle" x="520" y="-282.15" font-family="Times,serif" font-size="14.00">dividend</text>
</g>
<!-- initializer/pipeline/add1_1 -->
<!-- initializer/pipeline/add1_1&#45;&gt;/pipeline/add1 -->
<g id="edge1" class="edge">
<title>initializer/pipeline/add1_1&#45;&gt;/pipeline/add1:w</title>
<path fill="none" stroke="blue" d="M298.59,-484.73C310.8,-450.63 343.22,-377.07 397.91,-368.84"/>
<polygon fill="blue" stroke="blue" points="398.29,-372.32 408,-368.09 397.77,-365.34 398.29,-372.32"/>
<text text-anchor="middle" x="293.59" y="-473.53" font-family="Times,serif" font-size="14.00">1</text>
</g>
<!-- /pipeline/add2 -->
<g id="node6" class="node">
<title>/pipeline/add2</title>
<g id="a_node6"><a xlink:href="../../../../../.flow/lib/flowstdlib/math/add/add.html" xlink:title="add2\n(add)">
<ellipse fill="coral" stroke="black" cx="522" cy="-188.61" rx="37.45" ry="26.74"/>
<text text-anchor="middle" x="522" y="-192.41" font-family="Times,serif" font-size="14.00">add2</text>
<text text-anchor="middle" x="522" y="-177.41" font-family="Times,serif" font-size="14.00">(add)</text>
</a>
</g>
</g>
<!-- /pipeline/divide2&#45;&gt;/pipeline/add2 -->
<g id="edge7" class="edge">
<title>/pipeline/divide2:se&#45;&gt;/pipeline/add2:ne</title>
<path fill="none" stroke="black" d="M626,-253.35C652.54,-226.81 585.62,-238.19 552.1,-217.87"/>
<polygon fill="black" stroke="black" points="554.05,-214.96 544,-211.61 549.77,-220.49 554.05,-214.96"/>
<text text-anchor="middle" x="564.48" y="-232.93" font-family="Times,serif" font-size="14.00">result</text>
<text text-anchor="middle" x="537" y="-215.41" font-family="Times,serif" font-size="14.00">i1</text>
</g>
<!-- initializer/pipeline/divide2_1 -->
<!-- initializer/pipeline/divide2_1&#45;&gt;/pipeline/divide2 -->
<g id="edge2" class="edge">
<title>initializer/pipeline/divide2_1&#45;&gt;/pipeline/divide2:nw</title>
<path fill="none" stroke="blue" d="M608.36,-350.55C589.11,-340.11 570.01,-326.04 572.79,-312.29"/>
<polygon fill="blue" stroke="blue" points="575.99,-313.75 578,-303.35 569.94,-310.23 575.99,-313.75"/>
<text text-anchor="middle" x="603.36" y="-339.35" font-family="Times,serif" font-size="14.00">2</text>
</g>
<!-- /pipeline/divide4 -->
<g id="node8" class="node">
<title>/pipeline/divide4</title>
<g id="a_node8"><a xlink:href="../../../../../.flow/lib/flowstdlib/math/divide/divide.html" xlink:title="divide4\n(divide)">
<ellipse fill="coral" stroke="black" cx="677" cy="-98.87" rx="50.41" ry="26.74"/>
<text text-anchor="middle" x="677" y="-102.67" font-family="Times,serif" font-size="14.00">divide4</text>
<text text-anchor="middle" x="677" y="-87.67" font-family="Times,serif" font-size="14.00">(divide)</text>
</a>
</g>
</g>
<!-- /pipeline/add2&#45;&gt;/pipeline/divide4 -->
<g id="edge8" class="edge">
<title>/pipeline/add2:e&#45;&gt;/pipeline/divide4:w</title>
<path fill="none" stroke="black" d="M561,-188.61C573.46,-188.61 562.89,-172.6 569,-161.74 585.7,-132.09 587.96,-104.76 615.96,-99.7"/>
<polygon fill="black" stroke="black" points="616.32,-103.18 626,-98.87 615.74,-96.21 616.32,-103.18"/>
<text text-anchor="middle" x="595" y="-102.67" font-family="Times,serif" font-size="14.00">dividend</text>
</g>
<!-- initializer/pipeline/add2_1 -->
<!-- initializer/pipeline/add2_1&#45;&gt;/pipeline/add2 -->
<g id="edge3" class="edge">
<title>initializer/pipeline/add2_1&#45;&gt;/pipeline/add2:w</title>
<path fill="none" stroke="blue" d="M409.37,-260.24C419.23,-236.77 440.52,-196.69 473.04,-189.67"/>
<polygon fill="blue" stroke="blue" points="473.43,-193.15 483,-188.61 472.69,-186.19 473.43,-193.15"/>
<text text-anchor="middle" x="404.37" y="-249.04" font-family="Times,serif" font-size="14.00">2</text>
</g>
<!-- /pipeline/stdout -->
<g id="node10" class="node">
<title>/pipeline/stdout</title>
<g id="a_node10"><a xlink:href="../../flowr/src/cli/stdio/stdout.html" xlink:title="stdout">
<polygon fill="black" stroke="black" points="800.62,-23.56 751,-36 701.38,-23.56 701.43,-3.44 800.57,-3.44 800.62,-23.56"/>
<text text-anchor="middle" x="751" y="-14.3" font-family="Times,serif" font-size="14.00" fill="white">stdout</text>
</a>
</g>
</g>
<!-- /pipeline/divide4&#45;&gt;/pipeline/stdout -->
<g id="edge9" class="edge">
<title>/pipeline/divide4:se&#45;&gt;/pipeline/stdout:w</title>
<path fill="none" stroke="black" d="M701,-73.87C714.17,-60.7 693.05,-35.86 692.15,-24.26"/>
<polygon fill="black" stroke="black" points="694.36,-26.97 700,-18 690,-21.5 694.36,-26.97"/>
<text text-anchor="middle" x="679.26" y="-49.67" font-family="Times,serif" font-size="14.00">result</text>
</g>
<!-- initializer/pipeline/divide4_1 -->
<!-- initializer/pipeline/divide4_1&#45;&gt;/pipeline/divide4 -->
<g id="edge4" class="edge">
<title>initializer/pipeline/divide4_1&#45;&gt;/pipeline/divide4:nw</title>
<path fill="none" stroke="blue" d="M683.36,-171.07C664.11,-160.63 645.01,-146.56 647.79,-132.81"/>
<polygon fill="blue" stroke="blue" points="650.99,-134.27 653,-123.87 644.94,-130.75 650.99,-134.27"/>
<text text-anchor="middle" x="678.36" y="-159.87" font-family="Times,serif" font-size="14.00">2</text>
</g>
<!-- /pipeline/sequence/sequence -->
<g id="node11" class="node">
<title>/pipeline/sequence/sequence</title>
<ellipse fill="none" stroke="black" cx="586" cy="-502.96" rx="143.77" ry="18"/>
<text text-anchor="middle" x="586" y="-499.26" font-family="Times,serif" font-size="14.00">/pipeline/sequence/sequence</text>
</g>
<!-- /pipeline/sequence/sequence&#45;&gt;/pipeline/add1 -->
<g id="edge5" class="edge">
<title>/pipeline/sequence/sequence:s&#45;&gt;/pipeline/add1:ne</title>
<path fill="none" stroke="black" d="M586,-483.96C586,-421.07 523.14,-436.12 476.61,-397.98"/>
<polygon fill="black" stroke="black" points="478.76,-395.21 469,-391.09 474.06,-400.4 478.76,-395.21"/>
<text text-anchor="middle" x="462" y="-394.89" font-family="Times,serif" font-size="14.00">i1</text>
</g>
</g>
</svg>
