<?xml version="1.0" encoding="UTF-8" standalone="no"?>
<!DOCTYPE svg PUBLIC "-//W3C//DTD SVG 1.1//EN"
 "http://www.w3.org/Graphics/SVG/1.1/DTD/svg11.dtd">
<!-- Generated by graphviz version 2.43.0 (0)
 -->
<!-- Title: pipeline Pages: 1 -->
<svg width="1595pt" height="501pt"
 viewBox="28.80 28.80 1565.89 472.28" xmlns="http://www.w3.org/2000/svg" xmlns:xlink="http://www.w3.org/1999/xlink">
<g id="graph0" class="graph" transform="scale(1 1) rotate(0) translate(32.8 468.28)">
<title>pipeline</title>
<polygon fill="white" stroke="transparent" points="-4,4 -4,-439.48 1533.09,-439.48 1533.09,4 -4,4"/>
<text text-anchor="middle" x="764.55" y="-420.28" font-family="Times,serif" font-size="14.00">pipeline</text>
<!-- /pipeline/sequence -->
<g id="node1" class="node">
<title>/pipeline/sequence</title>
<g id="a_node1"><a xlink:href="lib://flowstdlib/math/sequence.dot.svg" xlink:title="sequence">
<ellipse fill="aquamarine" stroke="black" cx="72" cy="-340.48" rx="72" ry="72"/>
<text text-anchor="middle" x="72" y="-336.78" font-family="Times,serif" font-size="14.00">sequence</text>
</a>
</g>
</g>
<!-- /pipeline/add1 -->
<g id="node2" class="node">
<title>/pipeline/add1</title>
<g id="a_node2"><a xlink:href="../../../target/flowstdlib/math/add/add.html" xlink:title="add1\n(add)">
<ellipse fill="coral" stroke="black" cx="331" cy="-190.61" rx="37.45" ry="26.74"/>
<text text-anchor="middle" x="331" y="-194.41" font-family="Times,serif" font-size="14.00">add1</text>
<text text-anchor="middle" x="331" y="-179.41" font-family="Times,serif" font-size="14.00">(add)</text>
</a>
</g>
</g>
<!-- /pipeline/divide2/ -->
<g id="node13" class="node">
<title>/pipeline/divide2/</title>
<ellipse fill="none" stroke="black" cx="460" cy="-108.74" rx="90.98" ry="18"/>
<text text-anchor="middle" x="460" y="-105.04" font-family="Times,serif" font-size="14.00">/pipeline/divide2/</text>
</g>
<!-- /pipeline/add1&#45;&gt;/pipeline/divide2/ -->
<g id="edge6" class="edge">
<title>/pipeline/add1:e&#45;&gt;/pipeline/divide2/:w</title>
<path fill="none" stroke="black" d="M370,-190.61C401.28,-190.61 350.44,-130.15 358.62,-113.14"/>
<polygon fill="black" stroke="black" points="360.43,-116.16 368,-108.74 357.46,-109.82 360.43,-116.16"/>
<text text-anchor="middle" x="337" y="-112.54" font-family="Times,serif" font-size="14.00">dividend</text>
</g>
<!-- initializer/pipeline/add1_1 -->
<!-- initializer/pipeline/add1_1&#45;&gt;/pipeline/add1 -->
<g id="edge1" class="edge">
<title>initializer/pipeline/add1_1&#45;&gt;/pipeline/add1:w</title>
<path fill="none" stroke="blue" d="M285.92,-322.4C271.73,-286.2 244.28,-204.07 281.71,-192.08"/>
<polygon fill="blue" stroke="blue" points="282.6,-195.49 292,-190.61 281.61,-188.56 282.6,-195.49"/>
<text text-anchor="middle" x="270" y="-239.28" font-family="Times,serif" font-size="14.00">1</text>
</g>
<!-- /pipeline/divide2 -->
<g id="node4" class="node">
<title>/pipeline/divide2</title>
<g id="a_node4"><a xlink:href="../../../target/flowstdlib/math/divide/divide.html" xlink:title="divide2\n(divide)">
<ellipse fill="coral" stroke="black" cx="609" cy="-190.61" rx="50.41" ry="26.74"/>
<text text-anchor="middle" x="609" y="-194.41" font-family="Times,serif" font-size="14.00">divide2</text>
<text text-anchor="middle" x="609" y="-179.41" font-family="Times,serif" font-size="14.00">(divide)</text>
</a>
</g>
</g>
<!-- initializer/pipeline/divide2_1 -->
<!-- initializer/pipeline/divide2_1&#45;&gt;/pipeline/divide2 -->
<g id="edge2" class="edge">
<title>initializer/pipeline/divide2_1&#45;&gt;/pipeline/divide2:nw</title>
<path fill="none" stroke="blue" d="M578.36,-322.24C570.08,-297.76 559.19,-252.69 578.4,-223.69"/>
<polygon fill="blue" stroke="blue" points="581.39,-225.57 585,-215.61 575.96,-221.14 581.39,-225.57"/>
<text text-anchor="middle" x="577" y="-239.28" font-family="Times,serif" font-size="14.00">2</text>
</g>
<!-- /pipeline/add2 -->
<g id="node6" class="node">
<title>/pipeline/add2</title>
<g id="a_node6"><a xlink:href="../../../target/flowstdlib/math/add/add.html" xlink:title="add2\n(add)">
<ellipse fill="coral" stroke="black" cx="915" cy="-190.61" rx="37.45" ry="26.74"/>
<text text-anchor="middle" x="915" y="-194.41" font-family="Times,serif" font-size="14.00">add2</text>
<text text-anchor="middle" x="915" y="-179.41" font-family="Times,serif" font-size="14.00">(add)</text>
</a>
</g>
</g>
<!-- /pipeline/divide4/ -->
<g id="node15" class="node">
<title>/pipeline/divide4/</title>
<ellipse fill="none" stroke="black" cx="1044" cy="-108.74" rx="90.98" ry="18"/>
<text text-anchor="middle" x="1044" y="-105.04" font-family="Times,serif" font-size="14.00">/pipeline/divide4/</text>
</g>
<!-- /pipeline/add2&#45;&gt;/pipeline/divide4/ -->
<g id="edge8" class="edge">
<title>/pipeline/add2:e&#45;&gt;/pipeline/divide4/:w</title>
<path fill="none" stroke="black" d="M954,-190.61C985.28,-190.61 934.44,-130.15 942.62,-113.14"/>
<polygon fill="black" stroke="black" points="944.43,-116.16 952,-108.74 941.46,-109.82 944.43,-116.16"/>
<text text-anchor="middle" x="921" y="-112.54" font-family="Times,serif" font-size="14.00">dividend</text>
</g>
<!-- initializer/pipeline/add2_1 -->
<!-- initializer/pipeline/add2_1&#45;&gt;/pipeline/add2 -->
<g id="edge3" class="edge">
<title>initializer/pipeline/add2_1&#45;&gt;/pipeline/add2:w</title>
<path fill="none" stroke="blue" d="M869.92,-322.4C855.73,-286.2 828.28,-204.07 865.71,-192.08"/>
<polygon fill="blue" stroke="blue" points="866.6,-195.49 876,-190.61 865.61,-188.56 866.6,-195.49"/>
<text text-anchor="middle" x="854" y="-239.28" font-family="Times,serif" font-size="14.00">2</text>
</g>
<!-- /pipeline/divide4 -->
<g id="node8" class="node">
<title>/pipeline/divide4</title>
<g id="a_node8"><a xlink:href="../../../target/flowstdlib/math/divide/divide.html" xlink:title="divide4\n(divide)">
<ellipse fill="coral" stroke="black" cx="1193" cy="-190.61" rx="50.41" ry="26.74"/>
<text text-anchor="middle" x="1193" y="-194.41" font-family="Times,serif" font-size="14.00">divide4</text>
<text text-anchor="middle" x="1193" y="-179.41" font-family="Times,serif" font-size="14.00">(divide)</text>
</a>
</g>
</g>
<!-- initializer/pipeline/divide4_1 -->
<!-- initializer/pipeline/divide4_1&#45;&gt;/pipeline/divide4 -->
<g id="edge4" class="edge">
<title>initializer/pipeline/divide4_1&#45;&gt;/pipeline/divide4:nw</title>
<path fill="none" stroke="blue" d="M1162.36,-322.24C1154.08,-297.76 1143.19,-252.69 1162.4,-223.69"/>
<polygon fill="blue" stroke="blue" points="1165.39,-225.57 1169,-215.61 1159.96,-221.14 1165.39,-225.57"/>
<text text-anchor="middle" x="1161" y="-239.28" font-family="Times,serif" font-size="14.00">2</text>
</g>
<!-- /pipeline/print -->
<g id="node10" class="node">
<title>/pipeline/print</title>
<g id="a_node10"><a xlink:href="../../../flowr/src/cli/stdio/stdout.html" xlink:title="print\n(stdout)">
<ellipse fill="coral" stroke="black" cx="1114" cy="-26.87" rx="51.74" ry="26.74"/>
<text text-anchor="middle" x="1114" y="-30.67" font-family="Times,serif" font-size="14.00">print</text>
<text text-anchor="middle" x="1114" y="-15.67" font-family="Times,serif" font-size="14.00">(stdout)</text>
</a>
</g>
</g>
<!-- /pipeline/sequence/ -->
<g id="node11" class="node">
<title>/pipeline/sequence/</title>
<ellipse fill="none" stroke="black" cx="1429" cy="-340.48" rx="100.18" ry="18"/>
<text text-anchor="middle" x="1429" y="-336.78" font-family="Times,serif" font-size="14.00">/pipeline/sequence/</text>
</g>
<!-- /pipeline/add1/ -->
<g id="node12" class="node">
<title>/pipeline/add1/</title>
<ellipse fill="none" stroke="black" cx="1411" cy="-190.61" rx="79.09" ry="18"/>
<text text-anchor="middle" x="1411" y="-186.91" font-family="Times,serif" font-size="14.00">/pipeline/add1/</text>
</g>
<!-- /pipeline/sequence/&#45;&gt;/pipeline/add1/ -->
<g id="edge5" class="edge">
<title>/pipeline/sequence/:s&#45;&gt;/pipeline/add1/:ne</title>
<path fill="none" stroke="black" d="M1429,-321.48C1429,-275.45 1459.13,-248.9 1435.71,-217.32"/>
<polygon fill="black" stroke="black" points="1438.21,-214.85 1429,-209.61 1432.93,-219.45 1438.21,-214.85"/>
<text text-anchor="middle" x="1407.65" y="-267.73" font-family="Times,serif" font-size="14.00">sequence</text>
<text text-anchor="middle" x="1422" y="-213.41" font-family="Times,serif" font-size="14.00">i1</text>
</g>
<!-- /pipeline/add2/ -->
<g id="node14" class="node">
<title>/pipeline/add2/</title>
<ellipse fill="none" stroke="black" cx="460" cy="-26.87" rx="79.09" ry="18"/>
<text text-anchor="middle" x="460" y="-23.17" font-family="Times,serif" font-size="14.00">/pipeline/add2/</text>
</g>
<!-- /pipeline/divide2/&#45;&gt;/pipeline/add2/ -->
<g id="edge7" class="edge">
<title>/pipeline/divide2/:se&#45;&gt;/pipeline/add2/:ne</title>
<path fill="none" stroke="black" d="M478,-90.74C489.57,-79.17 491.65,-65.88 484.24,-53.69"/>
<polygon fill="black" stroke="black" points="486.97,-51.51 478,-45.87 481.5,-55.87 486.97,-51.51"/>
<text text-anchor="middle" x="467.08" y="-72.11" font-family="Times,serif" font-size="14.00">result</text>
<text text-anchor="middle" x="471" y="-49.67" font-family="Times,serif" font-size="14.00">i1</text>
</g>
<!-- /pipeline/divide4/&#45;&gt;/pipeline/print -->
<g id="edge9" class="edge">
<title>/pipeline/divide4/:se&#45;&gt;/pipeline/print:w</title>
<path fill="none" stroke="black" d="M1062,-90.74C1078,-74.74 1049.84,-43.68 1052.1,-31.73"/>
<polygon fill="black" stroke="black" points="1053.9,-34.73 1061,-26.87 1050.55,-28.59 1053.9,-34.73"/>
<text text-anchor="middle" x="1040.25" y="-62.46" font-family="Times,serif" font-size="14.00">result</text>
</g>
</g>
</svg>
