<?xml version="1.0" encoding="UTF-8" standalone="no"?>
<!DOCTYPE svg PUBLIC "-//W3C//DTD SVG 1.1//EN"
 "http://www.w3.org/Graphics/SVG/1.1/DTD/svg11.dtd">
<!-- Generated by graphviz version 2.43.0 (0)
 -->
<!-- Title: sequence Pages: 1 -->
<svg width="1044pt" height="538pt"
 viewBox="28.80 28.80 1014.87 509.02" xmlns="http://www.w3.org/2000/svg" xmlns:xlink="http://www.w3.org/1999/xlink">
<g id="graph0" class="graph" transform="scale(1 1) rotate(0) translate(32.8 505.02)">
<title>sequence</title>
<polygon fill="white" stroke="transparent" points="-4,4 -4,-476.22 982.07,-476.22 982.07,4 -4,4"/>
<text text-anchor="middle" x="489.04" y="-457.02" font-family="Times,serif" font-size="14.00">sequence</text>
<!-- /pipeline/sequence/start -->
<g id="node1" class="node">
<title>/pipeline/sequence/start</title>
<polygon fill="white" stroke="black" points="690.09,-436.78 649.14,-449.22 608.2,-436.78 608.24,-416.66 690.05,-416.66 690.09,-436.78"/>
<text text-anchor="middle" x="649.14" y="-427.52" font-family="Times,serif" font-size="14.00">start</text>
</g>
<!-- /pipeline/sequence/limit -->
<g id="node2" class="node">
<title>/pipeline/sequence/limit</title>
<polygon fill="white" stroke="black" points="788.48,-436.78 748.14,-449.22 707.8,-436.78 707.84,-416.66 788.44,-416.66 788.48,-436.78"/>
<text text-anchor="middle" x="748.14" y="-427.52" font-family="Times,serif" font-size="14.00">limit</text>
</g>
<!-- /pipeline/sequence/step -->
<g id="node3" class="node">
<title>/pipeline/sequence/step</title>
<polygon fill="white" stroke="black" points="881.66,-436.78 844.14,-449.22 806.62,-436.78 806.66,-416.66 881.63,-416.66 881.66,-436.78"/>
<text text-anchor="middle" x="844.14" y="-427.52" font-family="Times,serif" font-size="14.00">step</text>
</g>
<!-- /pipeline/sequence/sequence -->
<g id="node4" class="node">
<title>/pipeline/sequence/sequence</title>
<polygon fill="black" stroke="black" points="292.28,-12.44 359.14,0 426,-12.44 425.94,-32.56 292.34,-32.56 292.28,-12.44"/>
<text text-anchor="middle" x="359.14" y="-14.3" font-family="Times,serif" font-size="14.00" fill="white">sequence</text>
</g>
<!-- /pipeline/sequence/last -->
<g id="node5" class="node">
<title>/pipeline/sequence/last</title>
<polygon fill="black" stroke="black" points="443.55,-12.44 478.14,0 512.73,-12.44 512.7,-32.56 443.58,-32.56 443.55,-12.44"/>
<text text-anchor="middle" x="478.14" y="-14.3" font-family="Times,serif" font-size="14.00" fill="white">last</text>
</g>
<!-- /pipeline/sequence/compare_switch -->
<g id="node6" class="node">
<title>/pipeline/sequence/compare_switch</title>
<g id="a_node6"><a xlink:href="../../../target/flowstdlib/control/compare_switch/compare_switch.html" xlink:title="compare_switch">
<ellipse fill="coral" stroke="black" cx="85.14" cy="-260.61" rx="85.29" ry="18"/>
<text text-anchor="middle" x="85.14" y="-256.91" font-family="Times,serif" font-size="14.00">compare_switch</text>
</a>
</g>
</g>
<!-- /pipeline/sequence/add -->
<g id="node7" class="node">
<title>/pipeline/sequence/add</title>
<g id="a_node7"><a xlink:href="../../../target/flowstdlib/math/add/add.html" xlink:title="add">
<ellipse fill="coral" stroke="black" cx="248.14" cy="-179.74" rx="27.9" ry="18"/>
<text text-anchor="middle" x="248.14" y="-176.04" font-family="Times,serif" font-size="14.00">add</text>
</a>
</g>
</g>
<!-- /pipeline/sequence/next&#45;tap/ -->
<g id="node14" class="node">
<title>/pipeline/sequence/next&#45;tap/</title>
<ellipse fill="none" stroke="black" cx="359.14" cy="-98.87" rx="141.88" ry="18"/>
<text text-anchor="middle" x="359.14" y="-95.17" font-family="Times,serif" font-size="14.00">/pipeline/sequence/next&#45;tap/</text>
</g>
<!-- /pipeline/sequence/add&#45;&gt;/pipeline/sequence/next&#45;tap/ -->
<g id="edge7" class="edge">
<title>/pipeline/sequence/add:e&#45;&gt;/pipeline/sequence/next&#45;tap/:nw</title>
<path fill="none" stroke="black" d="M277.14,-179.74C285.9,-179.74 279.76,-168.64 285.14,-161.74 302.31,-139.73 315.39,-139.81 333.6,-124.75"/>
<polygon fill="black" stroke="black" points="336.11,-127.2 341.14,-117.87 331.4,-122.03 336.11,-127.2"/>
<text text-anchor="middle" x="325.14" y="-121.67" font-family="Times,serif" font-size="14.00">data</text>
</g>
<!-- /pipeline/sequence/next&#45;tap -->
<g id="node8" class="node">
<title>/pipeline/sequence/next&#45;tap</title>
<g id="a_node8"><a xlink:href="../../../target/flowstdlib/control/tap/tap.html" xlink:title="next&#45;tap\n(tap)">
<ellipse fill="coral" stroke="black" cx="821.14" cy="-350.35" rx="53.98" ry="26.74"/>
<text text-anchor="middle" x="821.14" y="-354.15" font-family="Times,serif" font-size="14.00">next&#45;tap</text>
<text text-anchor="middle" x="821.14" y="-339.15" font-family="Times,serif" font-size="14.00">(tap)</text>
</a>
</g>
</g>
<!-- /pipeline/sequence/compare_switch/ -->
<g id="node12" class="node">
<title>/pipeline/sequence/compare_switch/</title>
<ellipse fill="none" stroke="black" cx="649.14" cy="-260.61" rx="177.37" ry="18"/>
<text text-anchor="middle" x="649.14" y="-256.91" font-family="Times,serif" font-size="14.00">/pipeline/sequence/compare_switch/</text>
</g>
<!-- /pipeline/sequence/next&#45;tap&#45;&gt;/pipeline/sequence/compare_switch/ -->
<g id="edge9" class="edge">
<title>/pipeline/sequence/next&#45;tap:e&#45;&gt;/pipeline/sequence/compare_switch/:ne</title>
<path fill="none" stroke="black" d="M876.14,-350.35C888.09,-350.35 882.84,-332.62 875.14,-323.48 816.53,-253.9 739.88,-339.58 674.63,-286.4"/>
<polygon fill="black" stroke="black" points="676.9,-283.73 667.14,-279.61 672.2,-288.92 676.9,-283.73"/>
<text text-anchor="middle" x="649.14" y="-283.41" font-family="Times,serif" font-size="14.00">right</text>
</g>
<!-- /pipeline/sequence/step&#45;tap -->
<g id="node9" class="node">
<title>/pipeline/sequence/step&#45;tap</title>
<g id="a_node9"><a xlink:href="../../../target/flowstdlib/control/tap/tap.html" xlink:title="step&#45;tap\n(tap)">
<ellipse fill="coral" stroke="black" cx="241.14" cy="-260.61" rx="53.07" ry="26.74"/>
<text text-anchor="middle" x="241.14" y="-264.41" font-family="Times,serif" font-size="14.00">step&#45;tap</text>
<text text-anchor="middle" x="241.14" y="-249.41" font-family="Times,serif" font-size="14.00">(tap)</text>
</a>
</g>
</g>
<!-- /pipeline/sequence/add/ -->
<g id="node13" class="node">
<title>/pipeline/sequence/add/</title>
<ellipse fill="none" stroke="black" cx="414.14" cy="-179.74" rx="120.48" ry="18"/>
<text text-anchor="middle" x="414.14" y="-176.04" font-family="Times,serif" font-size="14.00">/pipeline/sequence/add/</text>
</g>
<!-- /pipeline/sequence/step&#45;tap&#45;&gt;/pipeline/sequence/add/ -->
<g id="edge11" class="edge">
<title>/pipeline/sequence/step&#45;tap:e&#45;&gt;/pipeline/sequence/add/:w</title>
<path fill="none" stroke="black" d="M295.14,-260.61C309.4,-260.61 288.48,-209.76 288.18,-188.7"/>
<polygon fill="black" stroke="black" points="291.36,-190.18 293.14,-179.74 285.23,-186.79 291.36,-190.18"/>
<text text-anchor="middle" x="286.14" y="-183.54" font-family="Times,serif" font-size="14.00">i2</text>
</g>
<!-- /pipeline/sequence/not&#45;last -->
<g id="node10" class="node">
<title>/pipeline/sequence/not&#45;last</title>
<g id="a_node10"><a xlink:href="../../../target/flowstdlib/math/compare/compare.html" xlink:title="not&#45;last\n(compare)">
<ellipse fill="coral" stroke="black" cx="915.14" cy="-98.87" rx="62.87" ry="26.74"/>
<text text-anchor="middle" x="915.14" y="-102.67" font-family="Times,serif" font-size="14.00">not&#45;last</text>
<text text-anchor="middle" x="915.14" y="-87.67" font-family="Times,serif" font-size="14.00">(compare)</text>
</a>
</g>
</g>
<!-- /pipeline/sequence/ -->
<g id="node11" class="node">
<title>/pipeline/sequence/</title>
<ellipse fill="none" stroke="black" cx="649.14" cy="-350.35" rx="100.18" ry="18"/>
<text text-anchor="middle" x="649.14" y="-346.65" font-family="Times,serif" font-size="14.00">/pipeline/sequence/</text>
</g>
<!-- /pipeline/sequence/&#45;&gt;/pipeline/sequence/compare_switch/ -->
<g id="edge1" class="edge">
<title>/pipeline/sequence/:s&#45;&gt;/pipeline/sequence/compare_switch/:ne</title>
<path fill="none" stroke="black" d="M649.14,-331.35C642.04,-312.14 662.47,-301.75 667.37,-289.76"/>
<polygon fill="black" stroke="black" points="670.86,-289.53 667.14,-279.61 663.86,-289.69 670.86,-289.53"/>
<text text-anchor="middle" x="639.1" y="-308.08" font-family="Times,serif" font-size="14.00">start</text>
<text text-anchor="middle" x="685.14" y="-283.41" font-family="Times,serif" font-size="14.00">right</text>
</g>
<!-- /pipeline/sequence/&#45;&gt;/pipeline/sequence/compare_switch/ -->
<g id="edge2" class="edge">
<title>/pipeline/sequence/:s&#45;&gt;/pipeline/sequence/compare_switch/:ne</title>
<path fill="none" stroke="black" d="M649.14,-331.35C656.88,-310.43 683.97,-299.97 674.8,-286.51"/>
<polygon fill="black" stroke="black" points="676.91,-283.71 667.14,-279.61 672.23,-288.91 676.91,-283.71"/>
<text text-anchor="middle" x="685.33" y="-309.91" font-family="Times,serif" font-size="14.00">limit</text>
<text text-anchor="middle" x="654.64" y="-268.41" font-family="Times,serif" font-size="14.00">left</text>
</g>
<!-- /pipeline/sequence/&#45;&gt;/pipeline/sequence/add/ -->
<g id="edge5" class="edge">
<title>/pipeline/sequence/:s&#45;&gt;/pipeline/sequence/add/:w</title>
<path fill="none" stroke="black" d="M649.14,-331.35C649.14,-246.42 542.64,-317.39 463.14,-287.48 383.55,-257.53 339.97,-269.38 294.14,-197.74 292.59,-195.31 290.99,-192.31 289.95,-189.45"/>
<polygon fill="black" stroke="black" points="293.34,-190.33 293.14,-179.74 286.69,-188.15 293.34,-190.33"/>
<text text-anchor="middle" x="444.4" y="-290.07" font-family="Times,serif" font-size="14.00">step</text>
<text text-anchor="middle" x="286.14" y="-168.54" font-family="Times,serif" font-size="14.00">i2</text>
</g>
<!-- /pipeline/sequence/compare_switch/&#45;&gt;/pipeline/sequence/ -->
<g id="edge3" class="edge">
<title>/pipeline/sequence/compare_switch/:s&#45;&gt;/pipeline/sequence/:n</title>
<path fill="none" stroke="black" d="M649.14,-241.61C640.14,-221.89 803.68,-228.63 817.58,-242.61 828.86,-253.96 825.18,-264.53 817.58,-278.61 800.29,-310.61 769.47,-293.32 749.14,-323.48 737.78,-340.34 755.88,-355.37 740.23,-368.35 726.32,-379.89 668.94,-388.02 652.74,-378.73"/>
<polygon fill="black" stroke="black" points="655.99,-377.44 649.14,-369.35 649.45,-379.94 655.99,-377.44"/>
<text text-anchor="middle" x="619.64" y="-230.41" font-family="Times,serif" font-size="14.00">right&#45;lte</text>
<text text-anchor="middle" x="615.64" y="-373.15" font-family="Times,serif" font-size="14.00">sequence</text>
</g>
<!-- /pipeline/sequence/compare_switch/&#45;&gt;/pipeline/sequence/ -->
<g id="edge15" class="edge">
<title>/pipeline/sequence/compare_switch/:s&#45;&gt;/pipeline/sequence/:n</title>
<path fill="none" stroke="black" d="M649.14,-241.61C658.14,-221.89 821.68,-228.63 835.58,-242.61 846.86,-253.96 843.18,-264.53 835.58,-278.61 818.29,-310.61 787.47,-293.32 767.14,-323.48 755.78,-340.34 773.88,-355.37 758.23,-368.35 743.39,-380.66 679.02,-389.1 656.32,-376.62"/>
<polygon fill="black" stroke="black" points="658.66,-374.01 649.14,-369.35 653.68,-378.93 658.66,-374.01"/>
<text text-anchor="middle" x="681.14" y="-230.41" font-family="Times,serif" font-size="14.00">right&#45;gte</text>
<text text-anchor="middle" x="662.64" y="-373.15" font-family="Times,serif" font-size="14.00">last</text>
</g>
<!-- /pipeline/sequence/compare_switch/&#45;&gt;/pipeline/sequence/compare_switch/ -->
<g id="edge4" class="edge">
<title>/pipeline/sequence/compare_switch/:s&#45;&gt;/pipeline/sequence/compare_switch/:ne</title>
<path fill="none" stroke="black" d="M649.14,-242.61C714.29,-222.61 844.58,-222.61 844.58,-260.61 844.58,-296.75 742.99,-298.52 677,-281.39"/>
<polygon fill="black" stroke="black" points="677.72,-277.96 667.14,-278.61 675.82,-284.7 677.72,-277.96"/>
<text text-anchor="middle" x="630.64" y="-245.37" font-family="Times,serif" font-size="14.00">left&#45;gt</text>
<text text-anchor="middle" x="679.64" y="-282.41" font-family="Times,serif" font-size="14.00">left</text>
</g>
<!-- /pipeline/sequence/compare_switch/&#45;&gt;/pipeline/sequence/add/ -->
<g id="edge6" class="edge">
<title>/pipeline/sequence/compare_switch/:se&#45;&gt;/pipeline/sequence/add/:ne</title>
<path fill="none" stroke="black" d="M667.14,-241.61C739.85,-168.9 522.1,-266.2 439.89,-204.45"/>
<polygon fill="black" stroke="black" points="441.99,-201.64 432.14,-197.74 437.41,-206.93 441.99,-201.64"/>
<text text-anchor="middle" x="532.28" y="-229.25" font-family="Times,serif" font-size="14.00">right</text>
<text text-anchor="middle" x="425.14" y="-201.54" font-family="Times,serif" font-size="14.00">i1</text>
</g>
<!-- /pipeline/sequence/not&#45;last/ -->
<g id="node15" class="node">
<title>/pipeline/sequence/not&#45;last/</title>
<ellipse fill="none" stroke="black" cx="690.14" cy="-179.74" rx="137.58" ry="18"/>
<text text-anchor="middle" x="690.14" y="-176.04" font-family="Times,serif" font-size="14.00">/pipeline/sequence/not&#45;last/</text>
</g>
<!-- /pipeline/sequence/compare_switch/&#45;&gt;/pipeline/sequence/not&#45;last/ -->
<g id="edge12" class="edge">
<title>/pipeline/sequence/compare_switch/:se&#45;&gt;/pipeline/sequence/not&#45;last/:ne</title>
<path fill="none" stroke="black" d="M667.14,-241.61C675.01,-226.57 702.64,-219.63 708.55,-207.88"/>
<polygon fill="black" stroke="black" points="712.04,-207.59 708.14,-197.74 705.05,-207.87 712.04,-207.59"/>
<text text-anchor="middle" x="676.89" y="-211.83" font-family="Times,serif" font-size="14.00">left</text>
<text text-anchor="middle" x="690.14" y="-201.54" font-family="Times,serif" font-size="14.00">right</text>
</g>
<!-- /pipeline/sequence/compare_switch/&#45;&gt;/pipeline/sequence/not&#45;last/ -->
<g id="edge13" class="edge">
<title>/pipeline/sequence/compare_switch/:se&#45;&gt;/pipeline/sequence/not&#45;last/:ne</title>
<path fill="none" stroke="black" d="M667.14,-241.61C691.31,-225.25 725.35,-218.46 715.79,-204.64"/>
<polygon fill="black" stroke="black" points="717.91,-201.84 708.14,-197.74 713.22,-207.04 717.91,-201.84"/>
<text text-anchor="middle" x="709.65" y="-217.09" font-family="Times,serif" font-size="14.00">right</text>
<text text-anchor="middle" x="720.64" y="-201.54" font-family="Times,serif" font-size="14.00">left</text>
</g>
<!-- /pipeline/sequence/step&#45;tap/ -->
<g id="node16" class="node">
<title>/pipeline/sequence/step&#45;tap/</title>
<ellipse fill="none" stroke="black" cx="693.14" cy="-98.87" rx="141.07" ry="18"/>
<text text-anchor="middle" x="693.14" y="-95.17" font-family="Times,serif" font-size="14.00">/pipeline/sequence/step&#45;tap/</text>
</g>
<!-- /pipeline/sequence/add/&#45;&gt;/pipeline/sequence/step&#45;tap/ -->
<g id="edge10" class="edge">
<title>/pipeline/sequence/add/:e&#45;&gt;/pipeline/sequence/step&#45;tap/:nw</title>
<path fill="none" stroke="black" d="M535.14,-179.74C543.9,-179.74 536.66,-167.62 543.14,-161.74 586.25,-122.64 626.44,-157.02 667.47,-124.71"/>
<polygon fill="black" stroke="black" points="670.01,-127.14 675.14,-117.87 665.35,-121.91 670.01,-127.14"/>
<text text-anchor="middle" x="598.12" y="-144.49" font-family="Times,serif" font-size="14.00">i2</text>
<text text-anchor="middle" x="659.14" y="-121.67" font-family="Times,serif" font-size="14.00">data</text>
</g>
<!-- /pipeline/sequence/not&#45;last/&#45;&gt;/pipeline/sequence/next&#45;tap/ -->
<g id="edge8" class="edge">
<title>/pipeline/sequence/not&#45;last/:se&#45;&gt;/pipeline/sequence/next&#45;tap/:nw</title>
<path fill="none" stroke="black" d="M708.14,-161.74C762.82,-107.06 337.83,-167.93 336.29,-126.79"/>
<polygon fill="black" stroke="black" points="339.44,-128.33 341.14,-117.87 333.29,-124.98 339.44,-128.33"/>
<text text-anchor="middle" x="537.8" y="-142.99" font-family="Times,serif" font-size="14.00">lt</text>
<text text-anchor="middle" x="366.64" y="-121.67" font-family="Times,serif" font-size="14.00">control</text>
</g>
<!-- /pipeline/sequence/not&#45;last/&#45;&gt;/pipeline/sequence/step&#45;tap/ -->
<g id="edge14" class="edge">
<title>/pipeline/sequence/not&#45;last/:se&#45;&gt;/pipeline/sequence/step&#45;tap/:nw</title>
<path fill="none" stroke="black" d="M708.14,-161.74C721.76,-148.13 682.6,-139.42 673.95,-127.88"/>
<polygon fill="black" stroke="black" points="677.43,-128.21 675.14,-117.87 670.48,-127.38 677.43,-128.21"/>
<text text-anchor="middle" x="686.19" y="-143.63" font-family="Times,serif" font-size="14.00">lt</text>
<text text-anchor="middle" x="700.64" y="-121.67" font-family="Times,serif" font-size="14.00">control</text>
</g>
</g>
</svg>
