<?xml version="1.0" encoding="UTF-8" standalone="no"?>
<!DOCTYPE svg PUBLIC "-//W3C//DTD SVG 1.1//EN"
 "http://www.w3.org/Graphics/SVG/1.1/DTD/svg11.dtd">
<!-- Generated by graphviz version 2.43.0 (0)
 -->
<!-- Title: sequence Pages: 1 -->
<svg width="826pt" height="302pt"
 viewBox="0.00 0.00 826.39 302.00" xmlns="http://www.w3.org/2000/svg" xmlns:xlink="http://www.w3.org/1999/xlink">
<g id="graph0" class="graph" transform="scale(1 1) rotate(0) translate(4 298)">
<title>sequence</title>
<polygon fill="white" stroke="transparent" points="-4,4 -4,-298 822.39,-298 822.39,4 -4,4"/>
<text text-anchor="middle" x="409.2" y="-278.8" font-family="Times,serif" font-size="14.00">/sequence</text>
<g id="clust1" class="cluster">
<title>cluster_sequence</title>
<polygon fill="none" stroke="black" points="8,-8 8,-227 660,-227 660,-8 8,-8"/>
<text text-anchor="middle" x="334" y="-211.8" font-family="Times,serif" font-size="14.00">/sequence/sequence</text>
</g>
<!-- r0 -->
<g id="node1" class="node">
<title>r0</title>
<g id="a_node1"><a xlink:href="file:///home/runner/work/flow/flow/flowr/src/cli/args/get.html" xlink:title="get (#0)">
<ellipse fill="coral" stroke="black" cx="349" cy="-253" rx="49.29" ry="18"/>
<text text-anchor="middle" x="349" y="-249.3" font-family="Times,serif" font-size="14.00">get (#0)</text>
</a>
</g>
</g>
<!-- r3 -->
<g id="node2" class="node">
<title>r3</title>
<g id="a_node2"><a xlink:href="file:///home/runner/.flow/lib/flowstdlib/control/compare_switch/compare_switch.html" xlink:title="compare_switch (#3)">
<ellipse fill="coral" stroke="black" cx="349" cy="-178" rx="108.58" ry="18"/>
<text text-anchor="middle" x="349" y="-174.3" font-family="Times,serif" font-size="14.00">compare_switch (#3)</text>
</a>
</g>
</g>
<!-- r0&#45;&gt;r3 -->
<g id="edge1" class="edge">
<title>r0:s&#45;&gt;r3:n</title>
<path fill="none" stroke="black" d="M349,-235C349,-222.07 349,-216.56 349,-207.11"/>
<polygon fill="black" stroke="black" points="352.5,-207 349,-197 345.5,-207 352.5,-207"/>
<text text-anchor="middle" x="336.5" y="-200.8" font-family="Times,serif" font-size="14.00">left</text>
<text text-anchor="middle" x="325" y="-223.8" font-family="Times,serif" font-size="14.00">/json/1</text>
</g>
<!-- r3&#45;&gt;r3 -->
<g id="edge3" class="edge">
<title>r3:e&#45;&gt;r3:n</title>
<path fill="none" stroke="black" d="M458,-178C481.54,-160 529.54,-160 529.54,-187 529.54,-212.58 421.54,-213.92 359,-198.7"/>
<polygon fill="black" stroke="black" points="359.57,-195.22 349,-196 357.74,-201.98 359.57,-195.22"/>
<text text-anchor="middle" x="361.5" y="-199.8" font-family="Times,serif" font-size="14.00">left</text>
<text text-anchor="middle" x="482.5" y="-181.8" font-family="Times,serif" font-size="14.00">/left&#45;gt</text>
</g>
<!-- r7 -->
<g id="node3" class="node">
<title>r7</title>
<g id="a_node3"><a xlink:href="file:///home/runner/work/flow/flow/flowr/src/cli/stdio/stdout.html" xlink:title="stdout (#7)">
<ellipse fill="coral" stroke="black" cx="550" cy="-34" rx="63.89" ry="18"/>
<text text-anchor="middle" x="550" y="-30.3" font-family="Times,serif" font-size="14.00">stdout (#7)</text>
</a>
</g>
</g>
<!-- r3&#45;&gt;r7 -->
<g id="edge2" class="edge">
<title>r3:s&#45;&gt;r7:n</title>
<path fill="none" stroke="black" d="M349,-160C349,-112.76 523.46,-103.81 547.31,-61.81"/>
<polygon fill="black" stroke="black" points="550.73,-62.57 550,-52 543.98,-60.72 550.73,-62.57"/>
<text text-anchor="middle" x="317" y="-148.8" font-family="Times,serif" font-size="14.00">/right&#45;lte</text>
</g>
<!-- r2 -->
<g id="node4" class="node">
<title>r2</title>
<g id="a_node4"><a xlink:href="file:///home/runner/.flow/lib/flowstdlib/math/add/add.html" xlink:title="add (#2)">
<ellipse fill="coral" stroke="black" cx="67" cy="-106" rx="51.19" ry="18"/>
<text text-anchor="middle" x="67" y="-102.3" font-family="Times,serif" font-size="14.00">add (#2)</text>
</a>
</g>
</g>
<!-- r3&#45;&gt;r2 -->
<g id="edge4" class="edge">
<title>r3:se&#45;&gt;r2:n</title>
<path fill="none" stroke="black" d="M367,-160C459.36,-67.64 88.23,-247.94 67.87,-134.29"/>
<polygon fill="black" stroke="black" points="71.33,-133.67 67,-124 64.35,-134.26 71.33,-133.67"/>
<text text-anchor="middle" x="60" y="-127.8" font-family="Times,serif" font-size="14.00">i1</text>
<text text-anchor="middle" x="360" y="-148.8" font-family="Times,serif" font-size="14.00">:1</text>
</g>
<!-- r5 -->
<g id="node5" class="node">
<title>r5</title>
<g id="a_node5"><a xlink:href="file:///home/runner/.flow/lib/flowstdlib/math/compare/compare.html" xlink:title="not&#45;last (#5)">
<ellipse fill="coral" stroke="black" cx="260" cy="-106" rx="69.59" ry="18"/>
<text text-anchor="middle" x="260" y="-102.3" font-family="Times,serif" font-size="14.00">not&#45;last (#5)</text>
</a>
</g>
</g>
<!-- r3&#45;&gt;r5 -->
<g id="edge5" class="edge">
<title>r3:sw&#45;&gt;r5:ne</title>
<path fill="none" stroke="black" d="M331,-160C313.54,-142.54 301.65,-143.43 285.67,-130.85"/>
<polygon fill="black" stroke="black" points="287.79,-128.05 278,-124 283.13,-133.27 287.79,-128.05"/>
<text text-anchor="middle" x="260" y="-127.8" font-family="Times,serif" font-size="14.00">right</text>
<text text-anchor="middle" x="324" y="-163.8" font-family="Times,serif" font-size="14.00">:0</text>
</g>
<!-- r3&#45;&gt;r5 -->
<g id="edge6" class="edge">
<title>r3:se&#45;&gt;r5:n</title>
<path fill="none" stroke="black" d="M367,-160C399.71,-127.29 281.18,-166.94 262.46,-134.02"/>
<polygon fill="black" stroke="black" points="265.78,-132.88 260,-124 258.98,-134.55 265.78,-132.88"/>
<text text-anchor="middle" x="247.5" y="-127.8" font-family="Times,serif" font-size="14.00">left</text>
<text text-anchor="middle" x="374" y="-148.8" font-family="Times,serif" font-size="14.00">:1</text>
</g>
<!-- r1 -->
<g id="node6" class="node">
<title>r1</title>
<g id="a_node6"><a xlink:href="file:///home/runner/.flow/lib/flowstdlib/control/join/join.html" xlink:title="join (#1)">
<ellipse fill="coral" stroke="black" cx="601" cy="-106" rx="51.19" ry="18"/>
<text text-anchor="middle" x="601" y="-102.3" font-family="Times,serif" font-size="14.00">join (#1)</text>
</a>
</g>
</g>
<!-- r3&#45;&gt;r1 -->
<g id="edge7" class="edge">
<title>r3:e&#45;&gt;r1:ne</title>
<path fill="none" stroke="black" d="M459,-178C529.84,-178 657,-176.89 624.6,-131.65"/>
<polygon fill="black" stroke="black" points="627.18,-129.28 618,-124 621.89,-133.86 627.18,-129.28"/>
<text text-anchor="middle" x="592.5" y="-127.8" font-family="Times,serif" font-size="14.00">control</text>
<text text-anchor="middle" x="493" y="-166.8" font-family="Times,serif" font-size="14.00">/right&#45;gte</text>
</g>
<!-- r4 -->
<g id="node7" class="node">
<title>r4</title>
<g id="a_node7"><a xlink:href="file:///home/runner/.flow/lib/flowstdlib/control/tap/tap.html" xlink:title="next&#45;tap (#4)">
<ellipse fill="coral" stroke="black" cx="305" cy="-34" rx="72.59" ry="18"/>
<text text-anchor="middle" x="305" y="-30.3" font-family="Times,serif" font-size="14.00">next&#45;tap (#4)</text>
</a>
</g>
</g>
<!-- r2&#45;&gt;r4 -->
<g id="edge8" class="edge">
<title>r2:e&#45;&gt;r4:n</title>
<path fill="none" stroke="black" d="M120,-106C137.1,-106 138,-94.03 154,-88 215.03,-65 295.61,-114.97 304.24,-62.22"/>
<polygon fill="black" stroke="black" points="307.75,-62.23 305,-52 300.77,-61.71 307.75,-62.23"/>
<text text-anchor="middle" x="289" y="-55.8" font-family="Times,serif" font-size="14.00">data</text>
</g>
<!-- r6 -->
<g id="node8" class="node">
<title>r6</title>
<g id="a_node8"><a xlink:href="file:///home/runner/.flow/lib/flowstdlib/control/tap/tap.html" xlink:title="step&#45;tap (#6)">
<ellipse fill="coral" stroke="black" cx="88" cy="-34" rx="72.29" ry="18"/>
<text text-anchor="middle" x="88" y="-30.3" font-family="Times,serif" font-size="14.00">step&#45;tap (#6)</text>
</a>
</g>
</g>
<!-- r2&#45;&gt;r6 -->
<g id="edge9" class="edge">
<title>r2:se&#45;&gt;r6:n</title>
<path fill="none" stroke="black" d="M84,-88C92.72,-79.28 90.43,-72.25 88.88,-62.2"/>
<polygon fill="black" stroke="black" points="92.35,-61.66 88,-52 85.37,-62.26 92.35,-61.66"/>
<text text-anchor="middle" x="72" y="-55.8" font-family="Times,serif" font-size="14.00">data</text>
<text text-anchor="middle" x="77" y="-76.8" font-family="Times,serif" font-size="14.00">:1</text>
</g>
<!-- r5&#45;&gt;r4 -->
<g id="edge12" class="edge">
<title>r5:se&#45;&gt;r4:ne</title>
<path fill="none" stroke="black" d="M278,-88C292.29,-73.71 323.32,-70.83 326.88,-61.36"/>
<polygon fill="black" stroke="black" points="330.06,-59.9 323,-52 323.6,-62.58 330.06,-59.9"/>
<text text-anchor="middle" x="348.5" y="-55.8" font-family="Times,serif" font-size="14.00">control</text>
<text text-anchor="middle" x="270" y="-76.8" font-family="Times,serif" font-size="14.00">/lt</text>
</g>
<!-- r5&#45;&gt;r6 -->
<g id="edge13" class="edge">
<title>r5:se&#45;&gt;r6:ne</title>
<path fill="none" stroke="black" d="M278,-88C330.85,-35.15 175.59,-101.07 113.74,-58.42"/>
<polygon fill="black" stroke="black" points="115.93,-55.69 106,-52 111.46,-61.08 115.93,-55.69"/>
<text text-anchor="middle" x="131.5" y="-55.8" font-family="Times,serif" font-size="14.00">control</text>
<text text-anchor="middle" x="286" y="-76.8" font-family="Times,serif" font-size="14.00">/lt</text>
</g>
<!-- r1&#45;&gt;r7 -->
<g id="edge15" class="edge">
<title>r1:e&#45;&gt;r7:n</title>
<path fill="none" stroke="black" d="M654,-106C662.01,-106 657.82,-94.4 653,-88 626.24,-52.43 561.81,-92.69 551.43,-62.03"/>
<polygon fill="black" stroke="black" points="554.87,-61.41 550,-52 547.94,-62.39 554.87,-61.41"/>
</g>
<!-- r4&#45;&gt;r3 -->
<g id="edge10" class="edge">
<title>r4:e&#45;&gt;r3:ne</title>
<path fill="none" stroke="black" d="M379,-34C465.09,-34 492.14,-161.02 457.54,-196 445.44,-208.24 398.19,-210.68 375.88,-202.23"/>
<polygon fill="black" stroke="black" points="377.39,-199.05 367,-197 373.85,-205.09 377.39,-199.05"/>
<text text-anchor="middle" x="385" y="-200.8" font-family="Times,serif" font-size="14.00">right</text>
</g>
<!-- r6&#45;&gt;r2 -->
<g id="edge11" class="edge">
<title>r6:e&#45;&gt;r2:ne</title>
<path fill="none" stroke="black" d="M161,-34C182.93,-34 137.22,-111.82 118.35,-123 108.59,-128.78 100.35,-132.48 92.33,-129.59"/>
<polygon fill="black" stroke="black" points="94.25,-126.67 84,-124 90.35,-132.48 94.25,-126.67"/>
<text text-anchor="middle" x="77" y="-127.8" font-family="Times,serif" font-size="14.00">i2</text>
</g>
<!-- initializerr1_0 -->
<!-- initializerr1_0&#45;&gt;r1 -->
<g id="edge14" class="edge">
<title>initializerr1_0&#45;&gt;r1:nw</title>
<path fill="none" stroke="blue" stroke-dasharray="1,5" d="M692.43,-164.54C655,-154.86 607.6,-141.51 590.14,-131.93"/>
<polygon fill="blue" stroke="blue" points="592.89,-129.76 584,-124 587.36,-134.05 592.89,-129.76"/>
<text text-anchor="middle" x="631.43" y="-153.34" font-family="Times,serif" font-size="14.00">&quot;Sequence done&quot;</text>
</g>
</g>
</svg>
