<?xml version="1.0" encoding="UTF-8" standalone="no"?>
<!DOCTYPE svg PUBLIC "-//W3C//DTD SVG 1.1//EN"
 "http://www.w3.org/Graphics/SVG/1.1/DTD/svg11.dtd">
<!-- Generated by graphviz version 2.43.0 (0)
 -->
<!-- Title: sequence Pages: 1 -->
<svg width="826pt" height="337pt"
 viewBox="0.00 0.00 826.39 337.00" xmlns="http://www.w3.org/2000/svg" xmlns:xlink="http://www.w3.org/1999/xlink">
<g id="graph0" class="graph" transform="scale(1 1) rotate(0) translate(4 333)">
<title>sequence</title>
<polygon fill="white" stroke="transparent" points="-4,4 -4,-333 822.39,-333 822.39,4 -4,4"/>
<text text-anchor="middle" x="409.2" y="-313.8" font-family="Times,serif" font-size="14.00">/sequence</text>
<g id="clust1" class="cluster">
<title>cluster_sequence</title>
<polygon fill="none" stroke="black" points="8,-8 8,-243 660,-243 660,-8 8,-8"/>
<text text-anchor="middle" x="334" y="-227.8" font-family="Times,serif" font-size="14.00">/sequence/sequence</text>
</g>
<!-- r0 -->
<g id="node1" class="node">
<title>r0</title>
<g id="a_node1"><a xlink:href="file:///home/runner/work/flow/flow/flowr/src/cli/args/get.html" xlink:title="get (#0)">
<ellipse fill="coral" stroke="black" cx="399" cy="-288" rx="49.29" ry="18"/>
<text text-anchor="middle" x="399" y="-284.3" font-family="Times,serif" font-size="14.00">get (#0)</text>
</a>
</g>
</g>
<!-- r3 -->
<g id="node2" class="node">
<title>r3</title>
<g id="a_node2"><a xlink:href="file:///home/runner/work/flow/flow/target/flowstdlib/control/compare_switch/compare_switch.html" xlink:title="compare_switch (#3)">
<ellipse fill="coral" stroke="black" cx="399" cy="-194" rx="108.58" ry="18"/>
<text text-anchor="middle" x="399" y="-190.3" font-family="Times,serif" font-size="14.00">compare_switch (#3)</text>
</a>
</g>
</g>
<!-- r0&#45;&gt;r3 -->
<g id="edge1" class="edge">
<title>r0:s&#45;&gt;r3:n</title>
<path fill="none" stroke="black" d="M399,-270C399,-248.43 399,-240.63 399,-223.15"/>
<polygon fill="black" stroke="black" points="402.5,-223 399,-213 395.5,-223 402.5,-223"/>
<text text-anchor="middle" x="411.5" y="-216.8" font-family="Times,serif" font-size="14.00">left</text>
<text text-anchor="middle" x="375" y="-258.8" font-family="Times,serif" font-size="14.00">/json/1</text>
</g>
<!-- r3&#45;&gt;r3 -->
<g id="edge3" class="edge">
<title>r3:e&#45;&gt;r3:n</title>
<path fill="none" stroke="black" d="M508,-194C531.54,-183.5 579.54,-183.5 579.54,-203 579.54,-221.47 471.54,-222.45 409,-213.57"/>
<polygon fill="black" stroke="black" points="409.42,-210.1 399,-212 408.33,-217.01 409.42,-210.1"/>
<text text-anchor="middle" x="386.5" y="-215.8" font-family="Times,serif" font-size="14.00">left</text>
<text text-anchor="middle" x="532.5" y="-197.8" font-family="Times,serif" font-size="14.00">/left&#45;gt</text>
</g>
<!-- r7 -->
<g id="node3" class="node">
<title>r7</title>
<g id="a_node3"><a xlink:href="file:///home/runner/work/flow/flow/flowr/src/cli/stdio/stdout.html" xlink:title="stdout (#7)">
<ellipse fill="coral" stroke="black" cx="550" cy="-34" rx="63.89" ry="18"/>
<text text-anchor="middle" x="550" y="-30.3" font-family="Times,serif" font-size="14.00">stdout (#7)</text>
</a>
</g>
</g>
<!-- r3&#45;&gt;r7 -->
<g id="edge2" class="edge">
<title>r3:s&#45;&gt;r7:n</title>
<path fill="none" stroke="black" d="M399,-176C399,-156.66 518.78,-90.63 544.98,-61.08"/>
<polygon fill="black" stroke="black" points="548.22,-62.44 550,-52 542.1,-59.06 548.22,-62.44"/>
<text text-anchor="middle" x="367" y="-164.8" font-family="Times,serif" font-size="14.00">/right&#45;lte</text>
</g>
<!-- r2 -->
<g id="node4" class="node">
<title>r2</title>
<g id="a_node4"><a xlink:href="file:///home/runner/work/flow/flow/target/flowstdlib/math/add/add.html" xlink:title="add (#2)">
<ellipse fill="coral" stroke="black" cx="67" cy="-107" rx="51.19" ry="18"/>
<text text-anchor="middle" x="67" y="-103.3" font-family="Times,serif" font-size="14.00">add (#2)</text>
</a>
</g>
</g>
<!-- r3&#45;&gt;r2 -->
<g id="edge4" class="edge">
<title>r3:se&#45;&gt;r2:n</title>
<path fill="none" stroke="black" d="M417,-176C442.67,-150.33 122.2,-162.1 73.23,-133.06"/>
<polygon fill="black" stroke="black" points="75.88,-130.77 67,-125 70.35,-135.05 75.88,-130.77"/>
<text text-anchor="middle" x="60" y="-128.8" font-family="Times,serif" font-size="14.00">i1</text>
<text text-anchor="middle" x="410" y="-164.8" font-family="Times,serif" font-size="14.00">:1</text>
</g>
<!-- r5 -->
<g id="node5" class="node">
<title>r5</title>
<g id="a_node5"><a xlink:href="file:///home/runner/work/flow/flow/target/flowstdlib/math/compare/compare.html" xlink:title="not&#45;last (#5)">
<ellipse fill="coral" stroke="black" cx="260" cy="-107" rx="69.59" ry="18"/>
<text text-anchor="middle" x="260" y="-103.3" font-family="Times,serif" font-size="14.00">not&#45;last (#5)</text>
</a>
</g>
</g>
<!-- r3&#45;&gt;r5 -->
<g id="edge5" class="edge">
<title>r3:sw&#45;&gt;r5:ne</title>
<path fill="none" stroke="black" d="M381,-176C347.42,-142.42 318.47,-158.42 285.54,-131.81"/>
<polygon fill="black" stroke="black" points="287.77,-129.1 278,-125 283.08,-134.3 287.77,-129.1"/>
<text text-anchor="middle" x="260" y="-128.8" font-family="Times,serif" font-size="14.00">right</text>
<text text-anchor="middle" x="374" y="-179.8" font-family="Times,serif" font-size="14.00">:0</text>
</g>
<!-- r3&#45;&gt;r5 -->
<g id="edge6" class="edge">
<title>r3:se&#45;&gt;r5:n</title>
<path fill="none" stroke="black" d="M417,-176C427.75,-165.25 419.5,-152.94 408,-143 385.87,-123.87 287.47,-150.31 264.71,-133.97"/>
<polygon fill="black" stroke="black" points="267.75,-132.23 260,-125 261.55,-135.48 267.75,-132.23"/>
<text text-anchor="middle" x="247.5" y="-128.8" font-family="Times,serif" font-size="14.00">left</text>
<text text-anchor="middle" x="424" y="-164.8" font-family="Times,serif" font-size="14.00">:1</text>
</g>
<!-- r1 -->
<g id="node6" class="node">
<title>r1</title>
<g id="a_node6"><a xlink:href="file:///home/runner/work/flow/flow/target/flowstdlib/control/join/join.html" xlink:title="join (#1)">
<ellipse fill="coral" stroke="black" cx="601" cy="-107" rx="51.19" ry="18"/>
<text text-anchor="middle" x="601" y="-103.3" font-family="Times,serif" font-size="14.00">join (#1)</text>
</a>
</g>
</g>
<!-- r3&#45;&gt;r1 -->
<g id="edge7" class="edge">
<title>r3:e&#45;&gt;r1:ne</title>
<path fill="none" stroke="black" d="M509,-194C545.72,-194 542.26,-161.46 574,-143 585.13,-136.53 604.58,-136.81 614.7,-134.63"/>
<polygon fill="black" stroke="black" points="618.07,-135.59 618,-125 611.45,-133.33 618.07,-135.59"/>
<text text-anchor="middle" x="592.5" y="-128.8" font-family="Times,serif" font-size="14.00">control</text>
<text text-anchor="middle" x="543" y="-182.8" font-family="Times,serif" font-size="14.00">/right&#45;gte</text>
</g>
<!-- r4 -->
<g id="node7" class="node">
<title>r4</title>
<g id="a_node7"><a xlink:href="file:///home/runner/work/flow/flow/target/flowstdlib/control/tap/tap.html" xlink:title="next&#45;tap (#4)">
<ellipse fill="coral" stroke="black" cx="305" cy="-34" rx="72.59" ry="18"/>
<text text-anchor="middle" x="305" y="-30.3" font-family="Times,serif" font-size="14.00">next&#45;tap (#4)</text>
</a>
</g>
</g>
<!-- r2&#45;&gt;r4 -->
<g id="edge8" class="edge">
<title>r2:e&#45;&gt;r4:n</title>
<path fill="none" stroke="black" d="M120,-107C137.1,-107 138.02,-95.08 154,-89 182.88,-78.01 280.92,-84.72 301.28,-61.53"/>
<polygon fill="black" stroke="black" points="304.62,-62.59 305,-52 298.1,-60.04 304.62,-62.59"/>
<text text-anchor="middle" x="289" y="-55.8" font-family="Times,serif" font-size="14.00">data</text>
</g>
<!-- r6 -->
<g id="node8" class="node">
<title>r6</title>
<g id="a_node8"><a xlink:href="file:///home/runner/work/flow/flow/target/flowstdlib/control/tap/tap.html" xlink:title="step&#45;tap (#6)">
<ellipse fill="coral" stroke="black" cx="88" cy="-34" rx="72.29" ry="18"/>
<text text-anchor="middle" x="88" y="-30.3" font-family="Times,serif" font-size="14.00">step&#45;tap (#6)</text>
</a>
</g>
</g>
<!-- r2&#45;&gt;r6 -->
<g id="edge9" class="edge">
<title>r2:se&#45;&gt;r6:n</title>
<path fill="none" stroke="black" d="M84,-89C93.05,-79.95 90.49,-72.66 88.87,-62.17"/>
<polygon fill="black" stroke="black" points="92.34,-61.67 88,-52 85.37,-62.26 92.34,-61.67"/>
<text text-anchor="middle" x="72" y="-55.8" font-family="Times,serif" font-size="14.00">data</text>
<text text-anchor="middle" x="77" y="-77.8" font-family="Times,serif" font-size="14.00">:1</text>
</g>
<!-- r5&#45;&gt;r4 -->
<g id="edge12" class="edge">
<title>r5:se&#45;&gt;r4:ne</title>
<path fill="none" stroke="black" d="M278,-89C292.59,-74.41 324.13,-71.2 327.07,-61.24"/>
<polygon fill="black" stroke="black" points="330.24,-59.74 323,-52 323.83,-62.56 330.24,-59.74"/>
<text text-anchor="middle" x="348.5" y="-55.8" font-family="Times,serif" font-size="14.00">control</text>
<text text-anchor="middle" x="270" y="-77.8" font-family="Times,serif" font-size="14.00">/lt</text>
</g>
<!-- r5&#45;&gt;r6 -->
<g id="edge13" class="edge">
<title>r5:se&#45;&gt;r6:ne</title>
<path fill="none" stroke="black" d="M278,-89C303.59,-63.41 158.08,-77.18 114.4,-57.43"/>
<polygon fill="black" stroke="black" points="116.3,-54.49 106,-52 112.5,-60.37 116.3,-54.49"/>
<text text-anchor="middle" x="131.5" y="-55.8" font-family="Times,serif" font-size="14.00">control</text>
<text text-anchor="middle" x="286" y="-77.8" font-family="Times,serif" font-size="14.00">/lt</text>
</g>
<!-- r1&#45;&gt;r7 -->
<g id="edge15" class="edge">
<title>r1:e&#45;&gt;r7:n</title>
<path fill="none" stroke="black" d="M654,-107C662.01,-107 657.79,-95.42 653,-89 626.31,-53.2 561.83,-92.94 551.43,-62.07"/>
<polygon fill="black" stroke="black" points="554.87,-61.41 550,-52 547.94,-62.39 554.87,-61.41"/>
</g>
<!-- r4&#45;&gt;r3 -->
<g id="edge10" class="edge">
<title>r4:e&#45;&gt;r3:ne</title>
<path fill="none" stroke="black" d="M379,-34C464.13,-34 476.93,-96.57 507.54,-176 513.29,-190.93 518.79,-200.62 507.54,-212 501.74,-217.87 449.32,-219.57 426.74,-216.06"/>
<polygon fill="black" stroke="black" points="427.59,-212.66 417,-213 425.49,-219.34 427.59,-212.66"/>
<text text-anchor="middle" x="435" y="-216.8" font-family="Times,serif" font-size="14.00">right</text>
</g>
<!-- r6&#45;&gt;r2 -->
<g id="edge11" class="edge">
<title>r6:e&#45;&gt;r2:ne</title>
<path fill="none" stroke="black" d="M161,-34C169.01,-34 163.78,-44.94 160,-52 153.71,-63.76 143.76,-59.16 136,-70 121.3,-90.53 138.57,-108.88 118.35,-124 109.27,-130.79 100.69,-134 92.46,-130.79"/>
<polygon fill="black" stroke="black" points="94.23,-127.76 84,-125 90.28,-133.53 94.23,-127.76"/>
<text text-anchor="middle" x="77" y="-128.8" font-family="Times,serif" font-size="14.00">i2</text>
</g>
<!-- initializerr1_0 -->
<!-- initializerr1_0&#45;&gt;r1 -->
<g id="edge14" class="edge">
<title>initializerr1_0&#45;&gt;r1:nw</title>
<path fill="none" stroke="blue" stroke-dasharray="1,5" d="M692.28,-180.49C648.85,-168.82 591.88,-150.88 582.6,-135.03"/>
<polygon fill="blue" stroke="blue" points="586.08,-135.39 584,-125 579.15,-134.42 586.08,-135.39"/>
<text text-anchor="middle" x="679" y="-146.8" font-family="Times,serif" font-size="14.00">&quot;Sequence done&quot;</text>
</g>
</g>
</svg>
