<?xml version="1.0" encoding="UTF-8" standalone="no"?>
<!DOCTYPE svg PUBLIC "-//W3C//DTD SVG 1.1//EN"
 "http://www.w3.org/Graphics/SVG/1.1/DTD/svg11.dtd">
<!-- Generated by graphviz version 2.43.0 (0)
 -->
<!-- Title: sequence Pages: 1 -->
<svg width="868pt" height="449pt"
 viewBox="28.80 28.80 839.33 419.80" xmlns="http://www.w3.org/2000/svg" xmlns:xlink="http://www.w3.org/1999/xlink">
<g id="graph0" class="graph" transform="scale(1 1) rotate(0) translate(32.8 415.8)">
<title>sequence</title>
<polygon fill="white" stroke="transparent" points="-4,4 -4,-387 806.53,-387 806.53,4 -4,4"/>
<text text-anchor="middle" x="401.26" y="-367.8" font-family="Times,serif" font-size="14.00">sequence</text>
<!-- /sequence/get -->
<g id="node1" class="node">
<title>/sequence/get</title>
<g id="a_node1"><a xlink:href="../../flowr/src/cli/args/get.html" xlink:title="get">
<polygon fill="white" stroke="black" points="63.77,-336.44 96.04,-324 128.31,-336.44 128.28,-356.56 63.8,-356.56 63.77,-336.44"/>
<text text-anchor="middle" x="96.04" y="-338.3" font-family="Times,serif" font-size="14.00">get</text>
</a>
</g>
</g>
<!-- /sequence/sequence/limit -->
<g id="node6" class="node">
<title>/sequence/sequence/limit</title>
<ellipse fill="none" stroke="black" cx="128.04" cy="-270" rx="128.08" ry="18"/>
<text text-anchor="middle" x="128.04" y="-266.3" font-family="Times,serif" font-size="14.00">/sequence/sequence/limit</text>
</g>
<!-- /sequence/get&#45;&gt;/sequence/sequence/limit -->
<g id="edge2" class="edge">
<title>/sequence/get:e&#45;&gt;/sequence/sequence/limit:n</title>
<path fill="none" stroke="black" d="M129.04,-342C149.76,-342 133.96,-319.65 129.25,-298.09"/>
<polygon fill="black" stroke="black" points="132.71,-297.51 128.04,-288 125.76,-298.35 132.71,-297.51"/>
<text text-anchor="middle" x="109.66" y="-302.96" font-family="Times,serif" font-size="14.00">json[1]</text>
</g>
<!-- /sequence/sequence -->
<g id="node2" class="node">
<title>/sequence/sequence</title>
<g id="a_node2"><a xlink:href="../../../../../.flow/lib/flowstdlib/math/sequence.toml.dot.svg" xlink:title="sequence">
<ellipse fill="aquamarine" stroke="black" cx="125.04" cy="-144" rx="72" ry="72"/>
<text text-anchor="middle" x="125.04" y="-140.3" font-family="Times,serif" font-size="14.00">sequence</text>
</a>
</g>
</g>
<!-- /sequence/join -->
<g id="node3" class="node">
<title>/sequence/join</title>
<g id="a_node3"><a xlink:href="../../../../../.flow/lib/flowstdlib/control/join/join.html" xlink:title="join">
<ellipse fill="coral" stroke="black" cx="559.04" cy="-144" rx="27.9" ry="18"/>
<text text-anchor="middle" x="559.04" y="-140.3" font-family="Times,serif" font-size="14.00">join</text>
</a>
</g>
</g>
<!-- /sequence/stdout -->
<g id="node5" class="node">
<title>/sequence/stdout</title>
<g id="a_node5"><a xlink:href="../../flowr/src/cli/stdio/stdout.html" xlink:title="stdout">
<polygon fill="black" stroke="black" points="574.66,-23.56 525.04,-36 475.42,-23.56 475.47,-3.44 574.61,-3.44 574.66,-23.56"/>
<text text-anchor="middle" x="525.04" y="-14.3" font-family="Times,serif" font-size="14.00" fill="white">stdout</text>
</a>
</g>
</g>
<!-- /sequence/join&#45;&gt;/sequence/stdout -->
<g id="edge5" class="edge">
<title>/sequence/join:e&#45;&gt;/sequence/stdout:w</title>
<path fill="none" stroke="black" d="M588.04,-144C596.05,-144 590.64,-133.16 587.04,-126 570.15,-92.46 551.4,-95.42 522.04,-72 501.47,-55.59 487.34,-59.26 475.04,-36 473.69,-33.45 472.15,-30.41 471.1,-27.56"/>
<polygon fill="black" stroke="black" points="474.44,-28.59 474.04,-18 467.75,-26.53 474.44,-28.59"/>
</g>
<!-- initializer/sequence/join_0 -->
<!-- initializer/sequence/join_0&#45;&gt;/sequence/join -->
<g id="edge1" class="edge">
<title>initializer/sequence/join_0&#45;&gt;/sequence/join:nw</title>
<path fill="none" stroke="blue" stroke-dasharray="1,5" d="M461.71,-253.6C482.91,-245.37 505.83,-233.28 522.04,-216 537.28,-199.75 528.38,-184.71 536.82,-169.18"/>
<polygon fill="blue" stroke="blue" points="539.77,-171.08 543.04,-161 534.2,-166.84 539.77,-171.08"/>
<text text-anchor="middle" x="492.21" y="-242.4" font-family="Times,serif" font-size="14.00">&quot;Sequence done&quot;</text>
</g>
<!-- /sequence/sequence/sequence -->
<g id="node7" class="node">
<title>/sequence/sequence/sequence</title>
<ellipse fill="none" stroke="black" cx="364.04" cy="-144" rx="149.47" ry="18"/>
<text text-anchor="middle" x="364.04" y="-140.3" font-family="Times,serif" font-size="14.00">/sequence/sequence/sequence</text>
</g>
<!-- /sequence/sequence/sequence&#45;&gt;/sequence/stdout -->
<g id="edge3" class="edge">
<title>/sequence/sequence/sequence:s&#45;&gt;/sequence/stdout:w</title>
<path fill="none" stroke="black" d="M364.04,-125C364.04,-60.26 401.7,-22.02 463.85,-18.3"/>
<polygon fill="black" stroke="black" points="464.15,-21.79 474.04,-18 463.94,-14.79 464.15,-21.79"/>
</g>
<!-- /sequence/sequence/last -->
<g id="node8" class="node">
<title>/sequence/sequence/last</title>
<ellipse fill="none" stroke="black" cx="679.04" cy="-270" rx="123.48" ry="18"/>
<text text-anchor="middle" x="679.04" y="-266.3" font-family="Times,serif" font-size="14.00">/sequence/sequence/last</text>
</g>
<!-- /sequence/sequence/last&#45;&gt;/sequence/join -->
<g id="edge4" class="edge">
<title>/sequence/sequence/last:s&#45;&gt;/sequence/join:nw</title>
<path fill="none" stroke="black" d="M679.04,-252C679.04,-183.53 512.93,-208.9 536.37,-169.21"/>
<polygon fill="black" stroke="black" points="539.45,-170.97 543.04,-161 534.02,-166.56 539.45,-170.97"/>
<text text-anchor="middle" x="517.54" y="-164.8" font-family="Times,serif" font-size="14.00">control</text>
</g>
</g>
</svg>
