<?xml version="1.0" encoding="UTF-8" standalone="no"?>
<!DOCTYPE svg PUBLIC "-//W3C//DTD SVG 1.1//EN"
 "http://www.w3.org/Graphics/SVG/1.1/DTD/svg11.dtd">
<!-- Generated by graphviz version 2.43.0 (0)
 -->
<!-- Title: sequence Pages: 1 -->
<svg width="738pt" height="393pt"
 viewBox="28.80 28.80 708.74 363.80" xmlns="http://www.w3.org/2000/svg" xmlns:xlink="http://www.w3.org/1999/xlink">
<g id="graph0" class="graph" transform="scale(1 1) rotate(0) translate(32.8 359.8)">
<title>sequence</title>
<polygon fill="white" stroke="transparent" points="-4,4 -4,-331 675.94,-331 675.94,4 -4,4"/>
<text text-anchor="middle" x="335.97" y="-311.8" font-family="Times,serif" font-size="14.00">sequence</text>
<!-- /sequence/get -->
<g id="node1" class="node">
<title>/sequence/get</title>
<g id="a_node1"><a xlink:href="../../../flowr/src/cli/args/get.html" xlink:title="get">
<ellipse fill="coral" stroke="black" cx="27" cy="-232" rx="27" ry="18"/>
<text text-anchor="middle" x="27" y="-228.3" font-family="Times,serif" font-size="14.00">get</text>
</a>
</g>
</g>
<!-- /sequence/sequence -->
<g id="node2" class="node">
<title>/sequence/sequence</title>
<g id="a_node2"><a xlink:href="lib://flowstdlib/math/sequence.dot.svg" xlink:title="sequence">
<ellipse fill="aquamarine" stroke="black" cx="144" cy="-232" rx="72" ry="72"/>
<text text-anchor="middle" x="144" y="-228.3" font-family="Times,serif" font-size="14.00">sequence</text>
</a>
</g>
</g>
<!-- /sequence/join -->
<g id="node3" class="node">
<title>/sequence/join</title>
<g id="a_node3"><a xlink:href="../../../target/flowstdlib/control/join/join.html" xlink:title="join">
<ellipse fill="coral" stroke="black" cx="553" cy="-91" rx="27.9" ry="18"/>
<text text-anchor="middle" x="553" y="-87.3" font-family="Times,serif" font-size="14.00">join</text>
</a>
</g>
</g>
<!-- /sequence/stdout -->
<g id="node5" class="node">
<title>/sequence/stdout</title>
<g id="a_node5"><a xlink:href="../../../flowr/src/cli/stdio/stdout.html" xlink:title="stdout">
<ellipse fill="coral" stroke="black" cx="583" cy="-18" rx="40.09" ry="18"/>
<text text-anchor="middle" x="583" y="-14.3" font-family="Times,serif" font-size="14.00">stdout</text>
</a>
</g>
</g>
<!-- /sequence/join&#45;&gt;/sequence/stdout -->
<g id="edge5" class="edge">
<title>/sequence/join:e&#45;&gt;/sequence/stdout:w</title>
<path fill="none" stroke="black" d="M582,-91C590.01,-91 584.37,-80.27 581,-73 570.96,-51.32 552.04,-57.68 542,-36 540.84,-33.5 539.42,-30.59 538.37,-27.85"/>
<polygon fill="black" stroke="black" points="541.8,-28.56 541,-18 535.04,-26.76 541.8,-28.56"/>
</g>
<!-- initializer/sequence/join_0 -->
<!-- initializer/sequence/join_0&#45;&gt;/sequence/join -->
<g id="edge1" class="edge">
<title>initializer/sequence/join_0&#45;&gt;/sequence/join:nw</title>
<path fill="none" stroke="blue" stroke-dasharray="1,5" d="M532.83,-213.88C523.81,-189.57 511.64,-144.83 530.48,-116.03"/>
<polygon fill="blue" stroke="blue" points="533.41,-117.97 537,-108 527.98,-113.56 533.41,-117.97"/>
<text text-anchor="middle" x="586" y="-130.8" font-family="Times,serif" font-size="14.00">&quot;Sequence done&quot;</text>
</g>
<!-- /sequence/get/ -->
<g id="node6" class="node">
<title>/sequence/get/</title>
<ellipse fill="none" stroke="black" cx="312" cy="-232" rx="77.99" ry="18"/>
<text text-anchor="middle" x="312" y="-228.3" font-family="Times,serif" font-size="14.00">/sequence/get/</text>
</g>
<!-- /sequence/sequence/ -->
<g id="node7" class="node">
<title>/sequence/sequence/</title>
<ellipse fill="none" stroke="black" cx="394" cy="-91" rx="106.68" ry="18"/>
<text text-anchor="middle" x="394" y="-87.3" font-family="Times,serif" font-size="14.00">/sequence/sequence/</text>
</g>
<!-- /sequence/get/&#45;&gt;/sequence/sequence/ -->
<g id="edge2" class="edge">
<title>/sequence/get/:e&#45;&gt;/sequence/sequence/:n</title>
<path fill="none" stroke="black" d="M391,-232C402.86,-232 396.41,-149.78 394.48,-119.03"/>
<polygon fill="black" stroke="black" points="397.98,-118.82 394,-109 390.98,-119.16 397.98,-118.82"/>
<text text-anchor="middle" x="372.92" y="-173.87" font-family="Times,serif" font-size="14.00">json[1]</text>
<text text-anchor="middle" x="377" y="-112.8" font-family="Times,serif" font-size="14.00">limit</text>
</g>
<!-- /sequence/sequence/&#45;&gt;/sequence/stdout -->
<g id="edge3" class="edge">
<title>/sequence/sequence/:s&#45;&gt;/sequence/stdout:w</title>
<path fill="none" stroke="black" d="M394,-73C394,-47.84 477.62,-45.28 501,-36 515.44,-30.27 519.89,-22.24 530.96,-19.22"/>
<polygon fill="black" stroke="black" points="531.49,-22.68 541,-18 530.65,-15.73 531.49,-22.68"/>
<text text-anchor="middle" x="433.97" y="-47.15" font-family="Times,serif" font-size="14.00">sequence</text>
</g>
<!-- /sequence/join/ -->
<g id="node8" class="node">
<title>/sequence/join/</title>
<ellipse fill="none" stroke="black" cx="412" cy="-18" rx="79.89" ry="18"/>
<text text-anchor="middle" x="412" y="-14.3" font-family="Times,serif" font-size="14.00">/sequence/join/</text>
</g>
<!-- /sequence/sequence/&#45;&gt;/sequence/join/ -->
<g id="edge4" class="edge">
<title>/sequence/sequence/:s&#45;&gt;/sequence/join/:nw</title>
<path fill="none" stroke="black" d="M394,-73C394,-60.92 387.73,-52.9 389,-44.89"/>
<polygon fill="black" stroke="black" points="392.15,-46.43 394,-36 386.05,-43 392.15,-46.43"/>
<text text-anchor="middle" x="376.88" y="-59.14" font-family="Times,serif" font-size="14.00">last</text>
<text text-anchor="middle" x="368.5" y="-39.8" font-family="Times,serif" font-size="14.00">control</text>
</g>
</g>
</svg>
