<?xml version="1.0" encoding="UTF-8" standalone="no"?>
<!DOCTYPE svg PUBLIC "-//W3C//DTD SVG 1.1//EN"
 "http://www.w3.org/Graphics/SVG/1.1/DTD/svg11.dtd">
<!-- Generated by graphviz version 2.43.0 (0)
 -->
<!-- Title: sequence Pages: 1 -->
<svg width="1066pt" height="538pt"
 viewBox="28.80 28.80 1036.87 509.02" xmlns="http://www.w3.org/2000/svg" xmlns:xlink="http://www.w3.org/1999/xlink">
<g id="graph0" class="graph" transform="scale(1 1) rotate(0) translate(32.8 505.02)">
<title>sequence</title>
<polygon fill="white" stroke="transparent" points="-4,4 -4,-476.22 1004.07,-476.22 1004.07,4 -4,4"/>
<text text-anchor="middle" x="500.04" y="-457.02" font-family="Times,serif" font-size="14.00">sequence</text>
<!-- /sequence/sequence/start -->
<g id="node1" class="node">
<title>/sequence/sequence/start</title>
<polygon fill="white" stroke="black" points="705.09,-436.78 664.14,-449.22 623.2,-436.78 623.24,-416.66 705.05,-416.66 705.09,-436.78"/>
<text text-anchor="middle" x="664.14" y="-427.52" font-family="Times,serif" font-size="14.00">start</text>
</g>
<!-- /sequence/sequence/limit -->
<g id="node2" class="node">
<title>/sequence/sequence/limit</title>
<polygon fill="white" stroke="black" points="803.48,-436.78 763.14,-449.22 722.8,-436.78 722.84,-416.66 803.44,-416.66 803.48,-436.78"/>
<text text-anchor="middle" x="763.14" y="-427.52" font-family="Times,serif" font-size="14.00">limit</text>
</g>
<!-- /sequence/sequence/step -->
<g id="node3" class="node">
<title>/sequence/sequence/step</title>
<polygon fill="white" stroke="black" points="896.66,-436.78 859.14,-449.22 821.62,-436.78 821.66,-416.66 896.63,-416.66 896.66,-436.78"/>
<text text-anchor="middle" x="859.14" y="-427.52" font-family="Times,serif" font-size="14.00">step</text>
</g>
<!-- /sequence/sequence/sequence -->
<g id="node4" class="node">
<title>/sequence/sequence/sequence</title>
<polygon fill="black" stroke="black" points="295.28,-12.44 362.14,0 429,-12.44 428.94,-32.56 295.34,-32.56 295.28,-12.44"/>
<text text-anchor="middle" x="362.14" y="-14.3" font-family="Times,serif" font-size="14.00" fill="white">sequence</text>
</g>
<!-- /sequence/sequence/last -->
<g id="node5" class="node">
<title>/sequence/sequence/last</title>
<polygon fill="black" stroke="black" points="446.55,-12.44 481.14,0 515.73,-12.44 515.7,-32.56 446.58,-32.56 446.55,-12.44"/>
<text text-anchor="middle" x="481.14" y="-14.3" font-family="Times,serif" font-size="14.00" fill="white">last</text>
</g>
<!-- /sequence/sequence/compare_switch -->
<g id="node6" class="node">
<title>/sequence/sequence/compare_switch</title>
<g id="a_node6"><a xlink:href="../../../target/flowstdlib/control/compare_switch/compare_switch.html" xlink:title="compare_switch">
<ellipse fill="coral" stroke="black" cx="85.14" cy="-260.61" rx="85.29" ry="18"/>
<text text-anchor="middle" x="85.14" y="-256.91" font-family="Times,serif" font-size="14.00">compare_switch</text>
</a>
</g>
</g>
<!-- /sequence/sequence/add -->
<g id="node7" class="node">
<title>/sequence/sequence/add</title>
<g id="a_node7"><a xlink:href="../../../target/flowstdlib/math/add/add.html" xlink:title="add">
<ellipse fill="coral" stroke="black" cx="248.14" cy="-179.74" rx="27.9" ry="18"/>
<text text-anchor="middle" x="248.14" y="-176.04" font-family="Times,serif" font-size="14.00">add</text>
</a>
</g>
</g>
<!-- /sequence/sequence/next&#45;tap/ -->
<g id="node14" class="node">
<title>/sequence/sequence/next&#45;tap/</title>
<ellipse fill="none" stroke="black" cx="362.14" cy="-98.87" rx="147.57" ry="18"/>
<text text-anchor="middle" x="362.14" y="-95.17" font-family="Times,serif" font-size="14.00">/sequence/sequence/next&#45;tap/</text>
</g>
<!-- /sequence/sequence/add&#45;&gt;/sequence/sequence/next&#45;tap/ -->
<g id="edge7" class="edge">
<title>/sequence/sequence/add:e&#45;&gt;/sequence/sequence/next&#45;tap/:nw</title>
<path fill="none" stroke="black" d="M277.14,-179.74C285.9,-179.74 279.67,-168.58 285.14,-161.74 303.24,-139.12 317.47,-140.29 336.57,-124.73"/>
<polygon fill="black" stroke="black" points="339.08,-127.18 344.14,-117.87 334.38,-121.99 339.08,-127.18"/>
<text text-anchor="middle" x="328.14" y="-121.67" font-family="Times,serif" font-size="14.00">data</text>
</g>
<!-- /sequence/sequence/next&#45;tap -->
<g id="node8" class="node">
<title>/sequence/sequence/next&#45;tap</title>
<g id="a_node8"><a xlink:href="../../../target/flowstdlib/control/tap/tap.html" xlink:title="next&#45;tap\n(tap)">
<ellipse fill="coral" stroke="black" cx="842.14" cy="-350.35" rx="53.98" ry="26.74"/>
<text text-anchor="middle" x="842.14" y="-354.15" font-family="Times,serif" font-size="14.00">next&#45;tap</text>
<text text-anchor="middle" x="842.14" y="-339.15" font-family="Times,serif" font-size="14.00">(tap)</text>
</a>
</g>
</g>
<!-- /sequence/sequence/compare_switch/ -->
<g id="node12" class="node">
<title>/sequence/sequence/compare_switch/</title>
<ellipse fill="none" stroke="black" cx="664.14" cy="-260.61" rx="183.87" ry="18"/>
<text text-anchor="middle" x="664.14" y="-256.91" font-family="Times,serif" font-size="14.00">/sequence/sequence/compare_switch/</text>
</g>
<!-- /sequence/sequence/next&#45;tap&#45;&gt;/sequence/sequence/compare_switch/ -->
<g id="edge9" class="edge">
<title>/sequence/sequence/next&#45;tap:e&#45;&gt;/sequence/sequence/compare_switch/:ne</title>
<path fill="none" stroke="black" d="M897.14,-350.35C909.09,-350.35 903.87,-332.6 896.14,-323.48 835.71,-252.15 756.9,-341.16 689.84,-286.58"/>
<polygon fill="black" stroke="black" points="691.91,-283.73 682.14,-279.61 687.21,-288.92 691.91,-283.73"/>
<text text-anchor="middle" x="664.14" y="-283.41" font-family="Times,serif" font-size="14.00">right</text>
</g>
<!-- /sequence/sequence/step&#45;tap -->
<g id="node9" class="node">
<title>/sequence/sequence/step&#45;tap</title>
<g id="a_node9"><a xlink:href="../../../target/flowstdlib/control/tap/tap.html" xlink:title="step&#45;tap\n(tap)">
<ellipse fill="coral" stroke="black" cx="241.14" cy="-260.61" rx="53.07" ry="26.74"/>
<text text-anchor="middle" x="241.14" y="-264.41" font-family="Times,serif" font-size="14.00">step&#45;tap</text>
<text text-anchor="middle" x="241.14" y="-249.41" font-family="Times,serif" font-size="14.00">(tap)</text>
</a>
</g>
</g>
<!-- /sequence/sequence/add/ -->
<g id="node13" class="node">
<title>/sequence/sequence/add/</title>
<ellipse fill="none" stroke="black" cx="420.14" cy="-179.74" rx="126.18" ry="18"/>
<text text-anchor="middle" x="420.14" y="-176.04" font-family="Times,serif" font-size="14.00">/sequence/sequence/add/</text>
</g>
<!-- /sequence/sequence/step&#45;tap&#45;&gt;/sequence/sequence/add/ -->
<g id="edge11" class="edge">
<title>/sequence/sequence/step&#45;tap:e&#45;&gt;/sequence/sequence/add/:w</title>
<path fill="none" stroke="black" d="M295.14,-260.61C309.4,-260.61 288.48,-209.76 288.18,-188.7"/>
<polygon fill="black" stroke="black" points="291.36,-190.18 293.14,-179.74 285.23,-186.79 291.36,-190.18"/>
<text text-anchor="middle" x="286.14" y="-183.54" font-family="Times,serif" font-size="14.00">i2</text>
</g>
<!-- /sequence/sequence/not&#45;last -->
<g id="node10" class="node">
<title>/sequence/sequence/not&#45;last</title>
<g id="a_node10"><a xlink:href="../../../target/flowstdlib/math/compare/compare.html" xlink:title="not&#45;last\n(compare)">
<ellipse fill="coral" stroke="black" cx="937.14" cy="-98.87" rx="62.87" ry="26.74"/>
<text text-anchor="middle" x="937.14" y="-102.67" font-family="Times,serif" font-size="14.00">not&#45;last</text>
<text text-anchor="middle" x="937.14" y="-87.67" font-family="Times,serif" font-size="14.00">(compare)</text>
</a>
</g>
</g>
<!-- /sequence/sequence/ -->
<g id="node11" class="node">
<title>/sequence/sequence/</title>
<ellipse fill="none" stroke="black" cx="664.14" cy="-350.35" rx="106.68" ry="18"/>
<text text-anchor="middle" x="664.14" y="-346.65" font-family="Times,serif" font-size="14.00">/sequence/sequence/</text>
</g>
<!-- /sequence/sequence/&#45;&gt;/sequence/sequence/compare_switch/ -->
<g id="edge1" class="edge">
<title>/sequence/sequence/:s&#45;&gt;/sequence/sequence/compare_switch/:ne</title>
<path fill="none" stroke="black" d="M664.14,-331.35C657.04,-312.14 677.47,-301.75 682.37,-289.76"/>
<polygon fill="black" stroke="black" points="685.86,-289.53 682.14,-279.61 678.86,-289.69 685.86,-289.53"/>
<text text-anchor="middle" x="654.1" y="-308.08" font-family="Times,serif" font-size="14.00">start</text>
<text text-anchor="middle" x="700.14" y="-283.41" font-family="Times,serif" font-size="14.00">right</text>
</g>
<!-- /sequence/sequence/&#45;&gt;/sequence/sequence/compare_switch/ -->
<g id="edge2" class="edge">
<title>/sequence/sequence/:s&#45;&gt;/sequence/sequence/compare_switch/:ne</title>
<path fill="none" stroke="black" d="M664.14,-331.35C671.88,-310.43 698.97,-299.97 689.8,-286.51"/>
<polygon fill="black" stroke="black" points="691.91,-283.71 682.14,-279.61 687.23,-288.91 691.91,-283.71"/>
<text text-anchor="middle" x="700.33" y="-309.91" font-family="Times,serif" font-size="14.00">limit</text>
<text text-anchor="middle" x="669.64" y="-268.41" font-family="Times,serif" font-size="14.00">left</text>
</g>
<!-- /sequence/sequence/&#45;&gt;/sequence/sequence/add/ -->
<g id="edge5" class="edge">
<title>/sequence/sequence/:s&#45;&gt;/sequence/sequence/add/:w</title>
<path fill="none" stroke="black" d="M664.14,-331.35C664.14,-287.37 512.51,-302.41 471.14,-287.48 388.18,-257.54 342.37,-271.59 294.14,-197.74 292.57,-195.33 290.96,-192.33 289.92,-189.47"/>
<polygon fill="black" stroke="black" points="293.32,-190.33 293.14,-179.74 286.68,-188.13 293.32,-190.33"/>
<text text-anchor="middle" x="452.26" y="-290.08" font-family="Times,serif" font-size="14.00">step</text>
<text text-anchor="middle" x="286.14" y="-168.54" font-family="Times,serif" font-size="14.00">i2</text>
</g>
<!-- /sequence/sequence/compare_switch/&#45;&gt;/sequence/sequence/ -->
<g id="edge3" class="edge">
<title>/sequence/sequence/compare_switch/:s&#45;&gt;/sequence/sequence/:n</title>
<path fill="none" stroke="black" d="M664.14,-241.61C655.14,-221.17 824.66,-228.12 839.08,-242.61 850.36,-253.95 846.7,-264.55 839.08,-278.61 821.65,-310.75 790.47,-293.09 770.14,-323.48 758.86,-340.34 777.28,-355.32 761.73,-368.35 746.84,-380.83 684.65,-389.45 667.76,-379.07"/>
<polygon fill="black" stroke="black" points="670.91,-377.5 664.14,-369.35 664.35,-379.94 670.91,-377.5"/>
<text text-anchor="middle" x="634.64" y="-230.41" font-family="Times,serif" font-size="14.00">right&#45;lte</text>
<text text-anchor="middle" x="630.64" y="-373.15" font-family="Times,serif" font-size="14.00">sequence</text>
</g>
<!-- /sequence/sequence/compare_switch/&#45;&gt;/sequence/sequence/ -->
<g id="edge15" class="edge">
<title>/sequence/sequence/compare_switch/:s&#45;&gt;/sequence/sequence/:n</title>
<path fill="none" stroke="black" d="M664.14,-241.61C673.14,-221.17 842.66,-228.12 857.08,-242.61 868.36,-253.95 864.7,-264.55 857.08,-278.61 839.65,-310.75 808.47,-293.09 788.14,-323.48 776.86,-340.34 795.28,-355.32 779.73,-368.35 763.85,-381.66 694.15,-390.58 670.95,-376.73"/>
<polygon fill="black" stroke="black" points="673.49,-374.33 664.14,-369.35 668.35,-379.07 673.49,-374.33"/>
<text text-anchor="middle" x="696.14" y="-230.41" font-family="Times,serif" font-size="14.00">right&#45;gte</text>
<text text-anchor="middle" x="677.64" y="-373.15" font-family="Times,serif" font-size="14.00">last</text>
</g>
<!-- /sequence/sequence/compare_switch/&#45;&gt;/sequence/sequence/compare_switch/ -->
<g id="edge4" class="edge">
<title>/sequence/sequence/compare_switch/:s&#45;&gt;/sequence/sequence/compare_switch/:ne</title>
<path fill="none" stroke="black" d="M664.14,-242.61C731.45,-222.61 866.08,-222.61 866.08,-260.61 866.08,-296.83 760.13,-298.53 691.92,-281.29"/>
<polygon fill="black" stroke="black" points="692.71,-277.88 682.14,-278.61 690.86,-284.63 692.71,-277.88"/>
<text text-anchor="middle" x="646.16" y="-245.26" font-family="Times,serif" font-size="14.00">left&#45;gt</text>
<text text-anchor="middle" x="694.64" y="-282.41" font-family="Times,serif" font-size="14.00">left</text>
</g>
<!-- /sequence/sequence/compare_switch/&#45;&gt;/sequence/sequence/add/ -->
<g id="edge6" class="edge">
<title>/sequence/sequence/compare_switch/:se&#45;&gt;/sequence/sequence/add/:ne</title>
<path fill="none" stroke="black" d="M682.14,-241.61C757.62,-166.13 530.99,-268.84 445.92,-204.5"/>
<polygon fill="black" stroke="black" points="447.99,-201.66 438.14,-197.74 443.39,-206.94 447.99,-201.66"/>
<text text-anchor="middle" x="542.47" y="-229.83" font-family="Times,serif" font-size="14.00">right</text>
<text text-anchor="middle" x="431.14" y="-201.54" font-family="Times,serif" font-size="14.00">i1</text>
</g>
<!-- /sequence/sequence/not&#45;last/ -->
<g id="node15" class="node">
<title>/sequence/sequence/not&#45;last/</title>
<ellipse fill="none" stroke="black" cx="708.14" cy="-179.74" rx="144.07" ry="18"/>
<text text-anchor="middle" x="708.14" y="-176.04" font-family="Times,serif" font-size="14.00">/sequence/sequence/not&#45;last/</text>
</g>
<!-- /sequence/sequence/compare_switch/&#45;&gt;/sequence/sequence/not&#45;last/ -->
<g id="edge12" class="edge">
<title>/sequence/sequence/compare_switch/:se&#45;&gt;/sequence/sequence/not&#45;last/:ne</title>
<path fill="none" stroke="black" d="M682.14,-241.61C690.53,-226.05 720.18,-219.83 726.55,-208.06"/>
<polygon fill="black" stroke="black" points="730.03,-207.6 726.14,-197.74 723.04,-207.87 730.03,-207.6"/>
<text text-anchor="middle" x="693.47" y="-211.75" font-family="Times,serif" font-size="14.00">left</text>
<text text-anchor="middle" x="708.14" y="-201.54" font-family="Times,serif" font-size="14.00">right</text>
</g>
<!-- /sequence/sequence/compare_switch/&#45;&gt;/sequence/sequence/not&#45;last/ -->
<g id="edge13" class="edge">
<title>/sequence/sequence/compare_switch/:se&#45;&gt;/sequence/sequence/not&#45;last/:ne</title>
<path fill="none" stroke="black" d="M682.14,-241.61C707.1,-224.52 743.91,-218.7 733.61,-204.43"/>
<polygon fill="black" stroke="black" points="735.93,-201.8 726.14,-197.74 731.26,-207.02 735.93,-201.8"/>
<text text-anchor="middle" x="725.84" y="-216.81" font-family="Times,serif" font-size="14.00">right</text>
<text text-anchor="middle" x="738.64" y="-201.54" font-family="Times,serif" font-size="14.00">left</text>
</g>
<!-- /sequence/sequence/step&#45;tap/ -->
<g id="node16" class="node">
<title>/sequence/sequence/step&#45;tap/</title>
<ellipse fill="none" stroke="black" cx="709.14" cy="-98.87" rx="147.57" ry="18"/>
<text text-anchor="middle" x="709.14" y="-95.17" font-family="Times,serif" font-size="14.00">/sequence/sequence/step&#45;tap/</text>
</g>
<!-- /sequence/sequence/add/&#45;&gt;/sequence/sequence/step&#45;tap/ -->
<g id="edge10" class="edge">
<title>/sequence/sequence/add/:e&#45;&gt;/sequence/sequence/step&#45;tap/:nw</title>
<path fill="none" stroke="black" d="M547.14,-179.74C555.9,-179.74 548.63,-167.59 555.14,-161.74 599.7,-121.68 641.25,-158.13 683.52,-124.68"/>
<polygon fill="black" stroke="black" points="686.02,-127.14 691.14,-117.87 681.35,-121.92 686.02,-127.14"/>
<text text-anchor="middle" x="612.19" y="-144.54" font-family="Times,serif" font-size="14.00">i2</text>
<text text-anchor="middle" x="675.14" y="-121.67" font-family="Times,serif" font-size="14.00">data</text>
</g>
<!-- /sequence/sequence/not&#45;last/&#45;&gt;/sequence/sequence/next&#45;tap/ -->
<g id="edge8" class="edge">
<title>/sequence/sequence/not&#45;last/:se&#45;&gt;/sequence/sequence/next&#45;tap/:nw</title>
<path fill="none" stroke="black" d="M726.14,-161.74C783.26,-104.62 337.04,-170.28 339.1,-126.59"/>
<polygon fill="black" stroke="black" points="342.17,-128.28 344.14,-117.87 336.11,-124.78 342.17,-128.28"/>
<text text-anchor="middle" x="547.78" y="-142.93" font-family="Times,serif" font-size="14.00">lt</text>
<text text-anchor="middle" x="369.64" y="-121.67" font-family="Times,serif" font-size="14.00">control</text>
</g>
<!-- /sequence/sequence/not&#45;last/&#45;&gt;/sequence/sequence/step&#45;tap/ -->
<g id="edge14" class="edge">
<title>/sequence/sequence/not&#45;last/:se&#45;&gt;/sequence/sequence/step&#45;tap/:nw</title>
<path fill="none" stroke="black" d="M726.14,-161.74C740.06,-147.82 699.24,-139.54 690.07,-127.99"/>
<polygon fill="black" stroke="black" points="693.57,-128.18 691.14,-117.87 686.6,-127.44 693.57,-128.18"/>
<text text-anchor="middle" x="703.2" y="-143.63" font-family="Times,serif" font-size="14.00">lt</text>
<text text-anchor="middle" x="716.64" y="-121.67" font-family="Times,serif" font-size="14.00">control</text>
</g>
</g>
</svg>
