<?xml version="1.0" encoding="UTF-8" standalone="no"?>
<!DOCTYPE svg PUBLIC "-//W3C//DTD SVG 1.1//EN"
 "http://www.w3.org/Graphics/SVG/1.1/DTD/svg11.dtd">
<!-- Generated by graphviz version 2.43.0 (0)
 -->
<!-- Title: sequence Pages: 1 -->
<svg width="1022pt" height="424pt"
 viewBox="28.80 28.80 993.39 395.54" xmlns="http://www.w3.org/2000/svg" xmlns:xlink="http://www.w3.org/1999/xlink">
<g id="page0,1_graph0" class="graph" transform="scale(1 1) rotate(0) translate(32.8 391.54)">
<title>sequence</title>
<polygon fill="white" stroke="transparent" points="-4,4 -4,-362.74 960.59,-362.74 960.59,4 -4,4"/>
<text text-anchor="middle" x="478.3" y="-343.54" font-family="Times,serif" font-size="14.00">sequence</text>
<!-- /sequence/sequence/start -->
<g id="node1" class="node">
<title>/sequence/sequence/start</title>
<polygon fill="white" stroke="black" points="486.7,-323.3 445.76,-335.74 404.81,-323.3 404.85,-303.18 486.66,-303.18 486.7,-323.3"/>
<text text-anchor="middle" x="445.76" y="-314.04" font-family="Times,serif" font-size="14.00">start</text>
</g>
<!-- /sequence/sequence/compare -->
<g id="node6" class="node">
<title>/sequence/sequence/compare</title>
<g id="a_node6"><a xlink:href="../../flowstdlib/control/compare_switch/compare_switch.html" xlink:title="compare\n(compare_switch)">
<ellipse fill="coral" stroke="black" cx="513.76" cy="-167.87" rx="100.32" ry="26.74"/>
<text text-anchor="middle" x="513.76" y="-171.67" font-family="Times,serif" font-size="14.00">compare</text>
<text text-anchor="middle" x="513.76" y="-156.67" font-family="Times,serif" font-size="14.00">(compare_switch)</text>
</a>
</g>
</g>
<!-- /sequence/sequence/start&#45;&gt;/sequence/sequence/compare -->
<g id="edge3" class="edge">
<title>/sequence/sequence/start:s&#45;&gt;/sequence/sequence/compare:ne</title>
<path fill="none" stroke="black" d="M445.76,-301.74C445.76,-242.4 567.72,-239.62 546.08,-202.62"/>
<polygon fill="black" stroke="black" points="548.74,-200.35 539.76,-194.74 543.28,-204.73 548.74,-200.35"/>
<text text-anchor="middle" x="521.76" y="-198.54" font-family="Times,serif" font-size="14.00">right</text>
</g>
<!-- /sequence/sequence/end -->
<g id="node2" class="node">
<title>/sequence/sequence/end</title>
<polygon fill="white" stroke="black" points="574.35,-323.3 539.76,-335.74 505.17,-323.3 505.2,-303.18 574.32,-303.18 574.35,-323.3"/>
<text text-anchor="middle" x="539.76" y="-314.04" font-family="Times,serif" font-size="14.00">end</text>
</g>
<!-- /sequence/sequence/end&#45;&gt;/sequence/sequence/compare -->
<g id="edge4" class="edge">
<title>/sequence/sequence/end:s&#45;&gt;/sequence/sequence/compare:ne</title>
<path fill="none" stroke="black" d="M539.76,-301.74C539.76,-257.9 568.34,-232.53 546.46,-202.49"/>
<polygon fill="black" stroke="black" points="548.94,-200.02 539.76,-194.74 543.65,-204.6 548.94,-200.02"/>
<text text-anchor="middle" x="552.26" y="-198.54" font-family="Times,serif" font-size="14.00">left</text>
</g>
<!-- /sequence/sequence/step -->
<g id="node3" class="node">
<title>/sequence/sequence/step</title>
<polygon fill="white" stroke="black" points="75.28,-323.3 37.76,-335.74 0.24,-323.3 0.27,-303.18 75.24,-303.18 75.28,-323.3"/>
<text text-anchor="middle" x="37.76" y="-314.04" font-family="Times,serif" font-size="14.00">step</text>
</g>
<!-- /sequence/sequence/add -->
<g id="node8" class="node">
<title>/sequence/sequence/add</title>
<g id="a_node8"><a xlink:href="../../flowstdlib/math/add/add.html" xlink:title="add">
<ellipse fill="coral" stroke="black" cx="321.76" cy="-72" rx="27.9" ry="18"/>
<text text-anchor="middle" x="321.76" y="-68.3" font-family="Times,serif" font-size="14.00">add</text>
</a>
</g>
</g>
<!-- /sequence/sequence/step&#45;&gt;/sequence/sequence/add -->
<g id="edge5" class="edge">
<title>/sequence/sequence/step:s&#45;&gt;/sequence/sequence/add:w</title>
<path fill="none" stroke="black" d="M37.76,-301.74C37.76,-230.03 6.14,-196.33 51.76,-141 85.19,-100.45 220.44,-75 282.42,-72.25"/>
<polygon fill="black" stroke="black" points="282.85,-75.74 292.76,-72 282.68,-68.74 282.85,-75.74"/>
<text text-anchor="middle" x="285.76" y="-75.8" font-family="Times,serif" font-size="14.00">i2</text>
</g>
<!-- /sequence/sequence/sequence -->
<g id="node4" class="node">
<title>/sequence/sequence/sequence</title>
<polygon fill="black" stroke="black" points="369.9,-12.44 436.76,0 503.62,-12.44 503.56,-32.56 369.96,-32.56 369.9,-12.44"/>
<text text-anchor="middle" x="436.76" y="-14.3" font-family="Times,serif" font-size="14.00" fill="white">sequence</text>
</g>
<!-- /sequence/sequence/last -->
<g id="node5" class="node">
<title>/sequence/sequence/last</title>
<polygon fill="black" stroke="black" points="521.17,-12.44 555.76,0 590.35,-12.44 590.32,-32.56 521.2,-32.56 521.17,-12.44"/>
<text text-anchor="middle" x="555.76" y="-14.3" font-family="Times,serif" font-size="14.00" fill="white">last</text>
</g>
<!-- /sequence/sequence/compare&#45;&gt;/sequence/sequence/sequence -->
<g id="edge7" class="edge">
<title>/sequence/sequence/compare:s&#45;&gt;/sequence/sequence/sequence:n</title>
<path fill="none" stroke="black" d="M513.76,-141C513.76,-86.07 446.08,-91.59 437.62,-44.21"/>
<polygon fill="black" stroke="black" points="441.09,-43.67 436.76,-34 434.11,-44.26 441.09,-43.67"/>
<text text-anchor="middle" x="445.56" y="-91.18" font-family="Times,serif" font-size="14.00">right&#45;lte</text>
</g>
<!-- /sequence/sequence/compare&#45;&gt;/sequence/sequence/last -->
<g id="edge11" class="edge">
<title>/sequence/sequence/compare:s&#45;&gt;/sequence/sequence/last:n</title>
<path fill="none" stroke="black" d="M513.76,-141C513.76,-129.37 526.85,-133.02 532.76,-123 551.64,-90.97 555.2,-77.36 555.69,-44.37"/>
<polygon fill="black" stroke="black" points="559.19,-44.02 555.76,-34 552.19,-43.98 559.19,-44.02"/>
<text text-anchor="middle" x="516.29" y="-96.27" font-family="Times,serif" font-size="14.00">right&#45;gte</text>
</g>
<!-- /sequence/sequence/compare&#45;&gt;/sequence/sequence/compare -->
<g id="edge8" class="edge">
<title>/sequence/sequence/compare:s&#45;&gt;/sequence/sequence/compare:ne</title>
<path fill="none" stroke="black" d="M513.76,-140.87C553.23,-127.87 632.17,-127.87 632.17,-167.37 632.17,-203.63 587.56,-206.6 549.71,-196.79"/>
<polygon fill="black" stroke="black" points="550.34,-193.33 539.76,-193.87 548.37,-200.05 550.34,-193.33"/>
<text text-anchor="middle" x="497.06" y="-128.07" font-family="Times,serif" font-size="14.00">left&#45;gt</text>
<text text-anchor="middle" x="527.26" y="-197.67" font-family="Times,serif" font-size="14.00">left</text>
</g>
<!-- /sequence/sequence/compare&#45;&gt;/sequence/sequence/add -->
<g id="edge9" class="edge">
<title>/sequence/sequence/compare:sw&#45;&gt;/sequence/sequence/add:ne</title>
<path fill="none" stroke="black" d="M487.76,-141C466.56,-119.8 451.16,-132.58 422.76,-123 387.67,-111.16 369.87,-116.54 345.27,-95.91"/>
<polygon fill="black" stroke="black" points="347.49,-93.2 337.76,-89 342.75,-98.35 347.49,-93.2"/>
<text text-anchor="middle" x="385.96" y="-123.38" font-family="Times,serif" font-size="14.00">right&#45;lt</text>
<text text-anchor="middle" x="344.76" y="-92.8" font-family="Times,serif" font-size="14.00">i1</text>
</g>
<!-- initializer/sequence/sequence/compare_1 -->
<!-- initializer/sequence/sequence/compare_1&#45;&gt;/sequence/sequence/compare -->
<g id="edge1" class="edge">
<title>initializer/sequence/sequence/compare_1&#45;&gt;/sequence/sequence/compare:ne</title>
<path fill="none" stroke="blue" stroke-dasharray="1,5" d="M643.86,-248.73C609.8,-239.83 574.25,-225.32 547.17,-201.66"/>
<polygon fill="blue" stroke="blue" points="549.46,-199.01 539.76,-194.74 544.68,-204.12 549.46,-199.01"/>
<text text-anchor="middle" x="589.76" y="-216.54" font-family="Times,serif" font-size="14.00">1</text>
</g>
<!-- /sequence/sequence/add&#45;&gt;/sequence/sequence/compare -->
<g id="edge10" class="edge">
<title>/sequence/sequence/add:e&#45;&gt;/sequence/sequence/compare:ne</title>
<path fill="none" stroke="black" d="M350.76,-72C438.62,-72 456.68,-101.07 541.76,-123 573.87,-131.28 593.74,-114.88 614.17,-141 628.64,-159.51 630.67,-177.14 614.17,-193.87 604.5,-203.66 567.5,-205.95 548.61,-199.7"/>
<polygon fill="black" stroke="black" points="550.21,-196.59 539.76,-194.87 546.86,-202.73 550.21,-196.59"/>
<text text-anchor="middle" x="557.76" y="-198.67" font-family="Times,serif" font-size="14.00">right</text>
</g>
<!-- /sequence/sequence/add&#45;&gt;/sequence/sequence/add -->
<g id="edge6" class="edge">
<title>/sequence/sequence/add:e&#45;&gt;/sequence/sequence/add:w</title>
<path fill="none" stroke="black" d="M349.76,-72C367.71,-85 367.71,-111 321.76,-111 283.35,-111 277.05,-92.83 286.5,-79.28"/>
<polygon fill="black" stroke="black" points="289.17,-81.55 293.76,-72 284.22,-76.61 289.17,-81.55"/>
<text text-anchor="middle" x="356.77" y="-75.8" font-family="Times,serif" font-size="14.00">i2</text>
<text text-anchor="middle" x="286.76" y="-60.8" font-family="Times,serif" font-size="14.00">i2</text>
</g>
<!-- initializer/sequence/sequence/add_1 -->
<!-- initializer/sequence/sequence/add_1&#45;&gt;/sequence/sequence/add -->
<g id="edge2" class="edge">
<title>initializer/sequence/sequence/add_1&#45;&gt;/sequence/sequence/add:w</title>
<path fill="none" stroke="blue" stroke-dasharray="1,5" d="M233.92,-149.47C239.42,-124.76 253.1,-81.57 282.61,-73.37"/>
<polygon fill="blue" stroke="blue" points="283.31,-76.8 292.76,-72 282.38,-69.86 283.31,-76.8"/>
<text text-anchor="middle" x="253.76" y="-111.8" font-family="Times,serif" font-size="14.00">1</text>
</g>
</g>
</svg>
