<?xml version="1.0" encoding="UTF-8" standalone="no"?>
<!DOCTYPE svg PUBLIC "-//W3C//DTD SVG 1.1//EN"
 "http://www.w3.org/Graphics/SVG/1.1/DTD/svg11.dtd">
<!-- Generated by graphviz version 2.40.1 (0)
 -->
<!-- Title: tokenizer Pages: 1 -->
<svg width="459pt" height="285pt"
 viewBox="28.80 28.80 430.63 255.80" xmlns="http://www.w3.org/2000/svg" xmlns:xlink="http://www.w3.org/1999/xlink">
<g id="graph0" class="graph" transform="scale(1 1) rotate(0) translate(32.8 251.8)">
<title>tokenizer</title>
<polygon fill="#ffffff" stroke="transparent" points="-4,4 -4,-223 397.8333,-223 397.8333,4 -4,4"/>
<text text-anchor="middle" x="196.9167" y="-203.8" font-family="Times,serif" font-size="14.00" fill="#000000">tokenizer</text>
<!-- /tokenizer/Readline -->
<g id="node1" class="node">
<title>/tokenizer/Readline</title>
<g id="a_node1"><a xlink:href="../../flowruntime/stdio/readline.toml" xlink:title="Readline">
<ellipse fill="#ff7f50" stroke="#000000" cx="51.3454" cy="-178" rx="51.1914" ry="18"/>
<text text-anchor="middle" x="51.3454" y="-174.3" font-family="Times,serif" font-size="14.00" fill="#000000">Readline</text>
</a>
</g>
</g>
<!-- /tokenizer/Split -->
<g id="node2" class="node">
<title>/tokenizer/Split</title>
<g id="a_node2"><a xlink:href="../../flowstdlib/data/split/split.toml" xlink:title="Split">
<ellipse fill="#ff7f50" stroke="#000000" cx="213.3454" cy="-91" rx="32.4942" ry="18"/>
<text text-anchor="middle" x="213.3454" y="-87.3" font-family="Times,serif" font-size="14.00" fill="#000000">Split</text>
</a>
</g>
</g>
<!-- /tokenizer/Readline&#45;&gt;/tokenizer/Split -->
<g id="edge2" class="edge">
<title>/tokenizer/Readline:e&#45;&gt;/tokenizer/Split:w</title>
<path fill="none" stroke="#000000" d="M103.3454,-178C112.2897,-178 107.1422,-167.275 112.3454,-160 135.2406,-127.989 137.1214,-96.8479 170.1579,-91.7319"/>
<polygon fill="#000000" stroke="#000000" points="170.622,-95.2077 180.3454,-91 170.1203,-88.2257 170.622,-95.2077"/>
<text text-anchor="middle" x="158.8454" y="-94.8" font-family="Times,serif" font-size="14.00" fill="#000000">string</text>
</g>
<!-- /tokenizer/Split&#45;&gt;/tokenizer/Split -->
<g id="edge3" class="edge">
<title>/tokenizer/Split:s&#45;&gt;/tokenizer/Split:w</title>
<path fill="none" stroke="#000000" d="M213.3454,-73C196.5131,-64 162.8483,-64 162.8483,-82 162.8483,-92.9688 167.3044,-97.2534 172.0296,-96.8906"/>
<polygon fill="#000000" stroke="#000000" points="174.2084,-99.6364 180.3454,-91 170.1621,-93.9243 174.2084,-99.6364"/>
<text text-anchor="middle" x="175.3864" y="-57.0709" font-family="Times,serif" font-size="14.00" fill="#000000">partial</text>
<text text-anchor="middle" x="158.8454" y="-79.8" font-family="Times,serif" font-size="14.00" fill="#000000">string</text>
</g>
<!-- /tokenizer/Stdout -->
<g id="node4" class="node">
<title>/tokenizer/Stdout</title>
<g id="a_node4"><a xlink:href="../../flowruntime/stdio/stdout.toml" xlink:title="Stdout">
<ellipse fill="#ff7f50" stroke="#000000" cx="256.3454" cy="-18" rx="42.4939" ry="18"/>
<text text-anchor="middle" x="256.3454" y="-14.3" font-family="Times,serif" font-size="14.00" fill="#000000">Stdout</text>
</a>
</g>
</g>
<!-- /tokenizer/Split&#45;&gt;/tokenizer/Stdout -->
<g id="edge4" class="edge">
<title>/tokenizer/Split:s&#45;&gt;/tokenizer/Stdout:w</title>
<path fill="none" stroke="#000000" d="M213.3454,-73C213.3454,-53.5208 197.823,-30.1611 203.8864,-21.4748"/>
<polygon fill="#000000" stroke="#000000" points="205.1657,-24.7337 213.3454,-18 202.7519,-18.163 205.1657,-24.7337"/>
<text text-anchor="middle" x="186.333" y="-31.9626" font-family="Times,serif" font-size="14.00" fill="#000000">token</text>
</g>
<!-- initializer/tokenizer/Split_1 -->
<!-- initializer/tokenizer/Split_1&#45;&gt;/tokenizer/Split -->
<g id="edge1" class="edge">
<title>initializer/tokenizer/Split_1&#45;&gt;/tokenizer/Split:w</title>
<path fill="none" stroke="#0000ff" d="M232.2763,-160.1843C202.3291,-138.1118 157.7383,-102.2937 170.2962,-93.1689"/>
<polygon fill="#0000ff" stroke="#0000ff" points="171.3089,-96.531 180.3454,-91 169.8321,-89.6885 171.3089,-96.531"/>
<text text-anchor="middle" x="215.8454" y="-130.8" font-family="Times,serif" font-size="14.00" fill="#000000">&quot; &quot;</text>
</g>
</g>
</svg>
