<?xml version="1.0" encoding="UTF-8" standalone="no"?>
<!DOCTYPE svg PUBLIC "-//W3C//DTD SVG 1.1//EN"
 "http://www.w3.org/Graphics/SVG/1.1/DTD/svg11.dtd">
<!-- Generated by graphviz version 2.40.1 (20161225.0304)
 -->
<!-- Title: tokenizer Pages: 1 -->
<svg width="938pt" height="549pt"
 viewBox="28.80 28.80 909.57 520.54" xmlns="http://www.w3.org/2000/svg" xmlns:xlink="http://www.w3.org/1999/xlink">
<g id="graph0" class="graph" transform="scale(1 1) rotate(0) translate(32.8 516.5401)">
<title>tokenizer</title>
<polygon fill="#ffffff" stroke="transparent" points="-4,4 -4,-487.7401 876.7682,-487.7401 876.7682,4 -4,4"/>
<text text-anchor="middle" x="436.3841" y="-468.5401" font-family="Times,serif" font-size="14.00" fill="#000000">tokenizer</text>
<!-- /tokenizer/readline -->
<g id="node1" class="node">
<title>/tokenizer/readline</title>
<g id="a_node1"><a xlink:href="../../flowr/src/lib/flowruntime/stdio/readline.html" xlink:title="readline">
<ellipse fill="#ff7f50" stroke="#000000" cx="282.684" cy="-442.7401" rx="48.9926" ry="18"/>
<text text-anchor="middle" x="282.684" y="-439.0401" font-family="Times,serif" font-size="14.00" fill="#000000">readline</text>
</a>
</g>
</g>
<!-- /tokenizer/split -->
<g id="node2" class="node">
<title>/tokenizer/split</title>
<g id="a_node2"><a xlink:href="../../flowstdlib/data/split/split.html" xlink:title="split">
<ellipse fill="#ff7f50" stroke="#000000" cx="439.684" cy="-355.7401" rx="31.3957" ry="18"/>
<text text-anchor="middle" x="439.684" y="-352.0401" font-family="Times,serif" font-size="14.00" fill="#000000">split</text>
</a>
</g>
</g>
<!-- /tokenizer/readline&#45;&gt;/tokenizer/split -->
<g id="edge5" class="edge">
<title>/tokenizer/readline:e&#45;&gt;/tokenizer/split:w</title>
<path fill="none" stroke="#000000" d="M331.684,-442.7401C340.6282,-442.7401 335.4807,-432.0151 340.684,-424.7401 351.4467,-409.6922 378.0317,-369.5496 398.9591,-358.5571"/>
<polygon fill="#000000" stroke="#000000" points="400.0527,-361.8843 408.684,-355.7401 398.105,-355.1607 400.0527,-361.8843"/>
<text text-anchor="middle" x="341.5621" y="-397.6736" font-family="Times,serif" font-size="14.00" fill="#000000">string</text>
<text text-anchor="middle" x="387.184" y="-359.5401" font-family="Times,serif" font-size="14.00" fill="#000000">string</text>
</g>
<!-- /tokenizer/split&#45;&gt;/tokenizer/split -->
<g id="edge6" class="edge">
<title>/tokenizer/split:s&#45;&gt;/tokenizer/split:w</title>
<path fill="none" stroke="#000000" d="M439.684,-337.7401C423.2849,-327.2401 390.4867,-327.2401 390.4867,-346.7401 390.4867,-359.537 395.6547,-363.9359 400.9592,-362.4805"/>
<polygon fill="#000000" stroke="#000000" points="403.4502,-364.952 408.684,-355.7401 398.848,-359.6776 403.4502,-364.952"/>
<text text-anchor="middle" x="404.0732" y="-321.5168" font-family="Times,serif" font-size="14.00" fill="#000000">partial</text>
<text text-anchor="middle" x="387.184" y="-344.5401" font-family="Times,serif" font-size="14.00" fill="#000000">string</text>
</g>
<!-- /tokenizer/work&#45;counter -->
<g id="node4" class="node">
<title>/tokenizer/work&#45;counter</title>
<g id="a_node4"><a xlink:href="../../flowstdlib/math/add/add.html" xlink:title="work&#45;counter\n(add)">
<ellipse fill="#ff7f50" stroke="#000000" cx="774.684" cy="-259.8701" rx="79.8062" ry="26.7407"/>
<text text-anchor="middle" x="774.684" y="-263.6701" font-family="Times,serif" font-size="14.00" fill="#000000">work&#45;counter</text>
<text text-anchor="middle" x="774.684" y="-248.6701" font-family="Times,serif" font-size="14.00" fill="#000000">(add)</text>
</a>
</g>
</g>
<!-- /tokenizer/split&#45;&gt;/tokenizer/work&#45;counter -->
<g id="edge7" class="edge">
<title>/tokenizer/split:s&#45;&gt;/tokenizer/work&#45;counter:ne</title>
<path fill="none" stroke="#000000" d="M439.684,-337.7401C439.684,-319.7738 734.7924,-304.1507 791.6641,-290.8528"/>
<polygon fill="#000000" stroke="#000000" points="793.6232,-293.7692 800.684,-285.8701 790.2383,-287.6419 793.6232,-293.7692"/>
<text text-anchor="middle" x="601.599" y="-313.8929" font-family="Times,serif" font-size="14.00" fill="#000000">delta</text>
<text text-anchor="middle" x="793.684" y="-289.6701" font-family="Times,serif" font-size="14.00" fill="#000000">i1</text>
</g>
<!-- /tokenizer/token&#45;counter -->
<g id="node6" class="node">
<title>/tokenizer/token&#45;counter</title>
<g id="a_node6"><a xlink:href="../../flowstdlib/math/add/add.html" xlink:title="token&#45;counter\n(add)">
<ellipse fill="#ff7f50" stroke="#000000" cx="263.684" cy="-259.8701" rx="82.9636" ry="26.7407"/>
<text text-anchor="middle" x="263.684" y="-263.6701" font-family="Times,serif" font-size="14.00" fill="#000000">token&#45;counter</text>
<text text-anchor="middle" x="263.684" y="-248.6701" font-family="Times,serif" font-size="14.00" fill="#000000">(add)</text>
</a>
</g>
</g>
<!-- /tokenizer/split&#45;&gt;/tokenizer/token&#45;counter -->
<g id="edge9" class="edge">
<title>/tokenizer/split:s&#45;&gt;/tokenizer/token&#45;counter:ne</title>
<path fill="none" stroke="#000000" d="M439.684,-337.7401C439.684,-270.6444 349.102,-329.3868 297.3324,-292.3595"/>
<polygon fill="#000000" stroke="#000000" points="299.5735,-289.671 289.684,-285.8701 295.0447,-295.0086 299.5735,-289.671"/>
<text text-anchor="middle" x="321.3886" y="-309.1407" font-family="Times,serif" font-size="14.00" fill="#000000">token&#45;count</text>
<text text-anchor="middle" x="282.684" y="-289.6701" font-family="Times,serif" font-size="14.00" fill="#000000">i1</text>
</g>
<!-- initializer/tokenizer/split_1 -->
<!-- initializer/tokenizer/split_1&#45;&gt;/tokenizer/split -->
<g id="edge1" class="edge">
<title>initializer/tokenizer/split_1&#45;&gt;/tokenizer/split:w</title>
<path fill="none" stroke="#0000ff" d="M460.6148,-424.9244C430.6676,-402.8519 386.0768,-367.0338 398.6348,-357.909"/>
<polygon fill="#0000ff" stroke="#0000ff" points="399.6475,-361.2711 408.684,-355.7401 398.1706,-354.4287 399.6475,-361.2711"/>
<text text-anchor="middle" x="444.184" y="-395.5401" font-family="Times,serif" font-size="14.00" fill="#000000">&quot; &quot;</text>
</g>
<!-- /tokenizer/work&#45;counter&#45;&gt;/tokenizer/work&#45;counter -->
<g id="edge8" class="edge">
<title>/tokenizer/work&#45;counter:sw&#45;&gt;/tokenizer/work&#45;counter:w</title>
<path fill="none" stroke="#000000" d="M748.684,-233.8701C716.0496,-220.8701 676.7809,-220.8701 676.7809,-246.8701 676.7809,-265.1513 682.7135,-270.5786 688.288,-267.6708"/>
<polygon fill="#000000" stroke="#000000" points="691.0501,-269.8222 694.684,-259.8701 685.637,-265.3839 691.0501,-269.8222"/>
<text text-anchor="middle" x="708.0846" y="-215.5441" font-family="Times,serif" font-size="14.00" fill="#000000">sum</text>
<text text-anchor="middle" x="687.684" y="-263.6701" font-family="Times,serif" font-size="14.00" fill="#000000">i2</text>
</g>
<!-- /tokenizer/compare -->
<g id="node9" class="node">
<title>/tokenizer/compare</title>
<g id="a_node9"><a xlink:href="../../flowstdlib/math/compare/compare.html" xlink:title="compare">
<ellipse fill="#ff7f50" stroke="#000000" cx="503.684" cy="-164" rx="51.1914" ry="18"/>
<text text-anchor="middle" x="503.684" y="-160.3" font-family="Times,serif" font-size="14.00" fill="#000000">compare</text>
</a>
</g>
</g>
<!-- /tokenizer/work&#45;counter&#45;&gt;/tokenizer/compare -->
<g id="edge12" class="edge">
<title>/tokenizer/work&#45;counter:sw&#45;&gt;/tokenizer/compare:ne</title>
<path fill="none" stroke="#000000" d="M748.684,-233.8701C677.5715,-162.7576 599.6022,-248.4816 528.0344,-187.7841"/>
<polygon fill="#000000" stroke="#000000" points="530.4063,-185.2103 520.684,-181 525.6587,-190.3543 530.4063,-185.2103"/>
<text text-anchor="middle" x="619.0929" y="-211.2472" font-family="Times,serif" font-size="14.00" fill="#000000">sum</text>
<text text-anchor="middle" x="538.684" y="-184.8" font-family="Times,serif" font-size="14.00" fill="#000000">right</text>
</g>
<!-- initializer/tokenizer/work&#45;counter_1 -->
<!-- initializer/tokenizer/work&#45;counter_1&#45;&gt;/tokenizer/work&#45;counter -->
<g id="edge2" class="edge">
<title>initializer/tokenizer/work&#45;counter_1&#45;&gt;/tokenizer/work&#45;counter:w</title>
<path fill="none" stroke="#0000ff" stroke-dasharray="1,5" d="M692.9076,-337.7077C691.0764,-317.3132 688.7412,-284.8948 690.6787,-269.1114"/>
<polygon fill="#0000ff" stroke="#0000ff" points="693.9186,-270.4372 694.684,-259.8701 687.4959,-267.6535 693.9186,-270.4372"/>
<text text-anchor="middle" x="695.684" y="-308.5401" font-family="Times,serif" font-size="14.00" fill="#000000">1</text>
</g>
<!-- /tokenizer/token&#45;counter&#45;&gt;/tokenizer/token&#45;counter -->
<g id="edge10" class="edge">
<title>/tokenizer/token&#45;counter:sw&#45;&gt;/tokenizer/token&#45;counter:w</title>
<path fill="none" stroke="#000000" d="M237.684,-233.8701C204.1068,-220.8701 162.9525,-220.8701 162.9525,-246.8701 162.9525,-265.1513 168.8851,-270.5786 174.3999,-267.6708"/>
<polygon fill="#000000" stroke="#000000" points="177.1362,-269.8533 180.684,-259.8701 171.6849,-265.4619 177.1362,-269.8533"/>
<text text-anchor="middle" x="196.1408" y="-215.5275" font-family="Times,serif" font-size="14.00" fill="#000000">sum</text>
<text text-anchor="middle" x="173.684" y="-263.6701" font-family="Times,serif" font-size="14.00" fill="#000000">i2</text>
</g>
<!-- /tokenizer/tap -->
<g id="node8" class="node">
<title>/tokenizer/tap</title>
<g id="a_node8"><a xlink:href="../../flowstdlib/control/tap/tap.html" xlink:title="tap">
<ellipse fill="#ff7f50" stroke="#000000" cx="358.684" cy="-91" rx="27" ry="18"/>
<text text-anchor="middle" x="358.684" y="-87.3" font-family="Times,serif" font-size="14.00" fill="#000000">tap</text>
</a>
</g>
</g>
<!-- /tokenizer/token&#45;counter&#45;&gt;/tokenizer/tap -->
<g id="edge11" class="edge">
<title>/tokenizer/token&#45;counter:sw&#45;&gt;/tokenizer/tap:nw</title>
<path fill="none" stroke="#000000" d="M237.684,-233.8701C187.8309,-184.017 282.2819,-160.3649 336.343,-112.8658"/>
<polygon fill="#000000" stroke="#000000" points="338.7712,-115.387 343.684,-106 333.9897,-110.2745 338.7712,-115.387"/>
<text text-anchor="middle" x="263.7847" y="-155.8469" font-family="Times,serif" font-size="14.00" fill="#000000">sum</text>
<text text-anchor="middle" x="327.684" y="-109.8" font-family="Times,serif" font-size="14.00" fill="#000000">data</text>
</g>
<!-- initializer/tokenizer/token&#45;counter_1 -->
<!-- initializer/tokenizer/token&#45;counter_1&#45;&gt;/tokenizer/token&#45;counter -->
<g id="edge3" class="edge">
<title>initializer/tokenizer/token&#45;counter_1&#45;&gt;/tokenizer/token&#45;counter:w</title>
<path fill="none" stroke="#0000ff" stroke-dasharray="1,5" d="M173.5785,-337.7077C164.929,-313.6248 153.4687,-272.7757 170.6574,-262.3499"/>
<polygon fill="#0000ff" stroke="#0000ff" points="171.8168,-265.6687 180.684,-259.8701 170.1361,-258.8735 171.8168,-265.6687"/>
<text text-anchor="middle" x="172.684" y="-308.5401" font-family="Times,serif" font-size="14.00" fill="#000000">0</text>
</g>
<!-- /tokenizer/stdout -->
<g id="node11" class="node">
<title>/tokenizer/stdout</title>
<g id="a_node11"><a xlink:href="../../flowr/src/lib/flowruntime/stdio/stdout.html" xlink:title="stdout">
<ellipse fill="#ff7f50" stroke="#000000" cx="426.684" cy="-18" rx="40.0939" ry="18"/>
<text text-anchor="middle" x="426.684" y="-14.3" font-family="Times,serif" font-size="14.00" fill="#000000">stdout</text>
</a>
</g>
</g>
<!-- /tokenizer/tap&#45;&gt;/tokenizer/stdout -->
<g id="edge14" class="edge">
<title>/tokenizer/tap:e&#45;&gt;/tokenizer/stdout:w</title>
<path fill="none" stroke="#000000" d="M385.684,-91C413.059,-91 371.141,-39.0303 376.8619,-22.7897"/>
<polygon fill="#000000" stroke="#000000" points="378.5657,-25.8474 385.684,-18 375.2257,-19.6956 378.5657,-25.8474"/>
</g>
<!-- /tokenizer/compare&#45;&gt;/tokenizer/tap -->
<g id="edge13" class="edge">
<title>/tokenizer/compare:e&#45;&gt;/tokenizer/tap:nw</title>
<path fill="none" stroke="#000000" d="M555.684,-164C563.684,-164 560.7895,-152.159 555.684,-146 528.9119,-113.7042 360.7235,-133.256 341.8053,-115.938"/>
<polygon fill="#000000" stroke="#000000" points="345.2655,-116.4761 343.684,-106 338.3873,-115.1758 345.2655,-116.4761"/>
<text text-anchor="middle" x="429.7185" y="-129.2645" font-family="Times,serif" font-size="14.00" fill="#000000">equal</text>
<text text-anchor="middle" x="369.684" y="-109.8" font-family="Times,serif" font-size="14.00" fill="#000000">control</text>
</g>
<!-- initializer/tokenizer/compare_0 -->
<!-- initializer/tokenizer/compare_0&#45;&gt;/tokenizer/compare -->
<g id="edge4" class="edge">
<title>initializer/tokenizer/compare_0&#45;&gt;/tokenizer/compare:ne</title>
<path fill="none" stroke="#0000ff" d="M527.124,-241.7875C531.452,-226.5805 534.9893,-204.8574 526.6255,-189.0766"/>
<polygon fill="#0000ff" stroke="#0000ff" points="529.4291,-186.9812 520.684,-181 523.7904,-191.1292 529.4291,-186.9812"/>
<text text-anchor="middle" x="536.684" y="-203.8" font-family="Times,serif" font-size="14.00" fill="#000000">0</text>
</g>
</g>
</svg>
