<?xml version="1.0" encoding="UTF-8" standalone="no"?>
<!DOCTYPE svg PUBLIC "-//W3C//DTD SVG 1.1//EN"
 "http://www.w3.org/Graphics/SVG/1.1/DTD/svg11.dtd">
<!-- Generated by graphviz version 2.42.3 (20191010.1750)
 -->
<!-- Title: tokenizer Pages: 1 -->
<svg width="652pt" height="382pt"
 viewBox="28.80 28.80 622.95 352.80" xmlns="http://www.w3.org/2000/svg" xmlns:xlink="http://www.w3.org/1999/xlink">
<g id="graph0" class="graph" transform="scale(1 1) rotate(0) translate(32.8 348.8)">
<title>tokenizer</title>
<polygon fill="white" stroke="transparent" points="-4,4 -4,-320 590.15,-320 590.15,4 -4,4"/>
<text text-anchor="middle" x="293.07" y="-300.8" font-family="Times,serif" font-size="14.00">tokenizer</text>
<!-- /tokenizer/Readline -->
<g id="node1" class="node">
<title>/tokenizer/Readline</title>
<g id="a_node1"><a xlink:href="../../flowruntime/stdio/readline.toml" xlink:title="Readline">
<ellipse fill="coral" stroke="black" cx="154.88" cy="-276" rx="41.58" ry="18"/>
<text text-anchor="middle" x="154.88" y="-271.8" font-family="Times,serif" font-size="14.00">Readline</text>
</a>
</g>
</g>
<!-- /tokenizer/Split -->
<g id="node2" class="node">
<title>/tokenizer/Split</title>
<g id="a_node2"><a xlink:href="../../flowstdlib/data/split/split.toml" xlink:title="Split">
<ellipse fill="coral" stroke="black" cx="286.88" cy="-190" rx="27" ry="18"/>
<text text-anchor="middle" x="286.88" y="-185.8" font-family="Times,serif" font-size="14.00">Split</text>
</a>
</g>
</g>
<!-- /tokenizer/Readline&#45;&gt;/tokenizer/Split -->
<g id="edge5" class="edge">
<title>/tokenizer/Readline:e&#45;&gt;/tokenizer/Split:w</title>
<path fill="none" stroke="black" d="M197.88,-276C206.63,-276 201.38,-265.51 205.88,-258 223.66,-228.35 221.31,-196.84 248.83,-190.97"/>
<polygon fill="black" stroke="black" points="249.26,-194.45 258.88,-190 248.59,-187.48 249.26,-194.45"/>
<text text-anchor="middle" x="242.93" y="-192.8" font-family="Times,serif" font-size="14.00">string</text>
</g>
<!-- /tokenizer/Split&#45;&gt;/tokenizer/Split -->
<g id="edge6" class="edge">
<title>/tokenizer/Split:s&#45;&gt;/tokenizer/Split:w</title>
<path fill="none" stroke="black" d="M286.88,-172C271.88,-161.5 241.88,-161.5 241.88,-181 241.88,-193.8 247.05,-198.2 252.29,-196.74"/>
<polygon fill="black" stroke="black" points="254.73,-199.26 259.88,-190 250.08,-194.03 254.73,-199.26"/>
<text text-anchor="middle" x="260.16" y="-156.36" font-family="Times,serif" font-size="14.00">partial</text>
<text text-anchor="middle" x="243.93" y="-178.8" font-family="Times,serif" font-size="14.00">string</text>
</g>
<!-- /tokenizer/Add -->
<g id="node4" class="node">
<title>/tokenizer/Add</title>
<g id="a_node4"><a xlink:href="../../flowstdlib/math/add/add.toml" xlink:title="Add">
<ellipse fill="coral" stroke="black" cx="132.88" cy="-104" rx="27" ry="18"/>
<text text-anchor="middle" x="132.88" y="-99.8" font-family="Times,serif" font-size="14.00">Add</text>
</a>
</g>
</g>
<!-- /tokenizer/Split&#45;&gt;/tokenizer/Add -->
<g id="edge7" class="edge">
<title>/tokenizer/Split:s&#45;&gt;/tokenizer/Add:ne</title>
<path fill="none" stroke="black" d="M286.88,-172C286.88,-109.52 204,-160.6 155.62,-126.52"/>
<polygon fill="black" stroke="black" points="157.78,-123.76 147.88,-120 153.27,-129.12 157.78,-123.76"/>
<text text-anchor="middle" x="203.45" y="-142.25" font-family="Times,serif" font-size="14.00">delta</text>
<text text-anchor="middle" x="142.43" y="-122.8" font-family="Times,serif" font-size="14.00">i1</text>
</g>
<!-- /tokenizer/Count -->
<g id="node6" class="node">
<title>/tokenizer/Count</title>
<g id="a_node6"><a xlink:href="../../flowstdlib/data/count/count.toml" xlink:title="Count">
<ellipse fill="coral" stroke="black" cx="473.88" cy="-104" rx="31.96" ry="18"/>
<text text-anchor="middle" x="473.88" y="-99.8" font-family="Times,serif" font-size="14.00">Count</text>
</a>
</g>
</g>
<!-- /tokenizer/Split&#45;&gt;/tokenizer/Count -->
<g id="edge9" class="edge">
<title>/tokenizer/Split:s&#45;&gt;/tokenizer/Count:nw</title>
<path fill="none" stroke="black" d="M286.88,-172C286.88,-96.25 391.71,-169.83 449.98,-127.73"/>
<polygon fill="black" stroke="black" points="452.54,-130.15 457.88,-121 448,-124.83 452.54,-130.15"/>
<text text-anchor="middle" x="357" y="-143.04" font-family="Times,serif" font-size="14.00">token</text>
<text text-anchor="middle" x="446.22" y="-123.8" font-family="Times,serif" font-size="14.00">data</text>
</g>
<!-- initializer/tokenizer/Split_1 -->
<!-- initializer/tokenizer/Split_1&#45;&gt;/tokenizer/Split -->
<g id="edge1" class="edge">
<title>initializer/tokenizer/Split_1&#45;&gt;/tokenizer/Split:w</title>
<path fill="none" stroke="blue" d="M301.23,-258.21C276.25,-237.11 238.73,-202.48 248.89,-192.67"/>
<polygon fill="blue" stroke="blue" points="250.12,-195.96 258.88,-190 248.31,-189.2 250.12,-195.96"/>
<text text-anchor="middle" x="286.34" y="-228.8" font-family="Times,serif" font-size="14.00">&quot; &quot;</text>
</g>
<!-- /tokenizer/Add&#45;&gt;/tokenizer/Add -->
<g id="edge8" class="edge">
<title>/tokenizer/Add:sw&#45;&gt;/tokenizer/Add:w</title>
<path fill="none" stroke="black" d="M117.88,-89C102.88,-78.5 87.88,-78.5 87.88,-96.5 87.88,-108.31 93.05,-112.37 98.29,-110.8"/>
<polygon fill="black" stroke="black" points="100.77,-113.28 105.88,-104 96.1,-108.07 100.77,-113.28"/>
<text text-anchor="middle" x="105.51" y="-77.32" font-family="Times,serif" font-size="14.00">sum</text>
<text text-anchor="middle" x="100.43" y="-106.8" font-family="Times,serif" font-size="14.00">i2</text>
</g>
<!-- /tokenizer/Compare -->
<g id="node8" class="node">
<title>/tokenizer/Compare</title>
<g id="a_node8"><a xlink:href="../../flowstdlib/math/compare/compare.toml" xlink:title="Compare">
<ellipse fill="coral" stroke="black" cx="192.88" cy="-18" rx="42.55" ry="18"/>
<text text-anchor="middle" x="192.88" y="-13.8" font-family="Times,serif" font-size="14.00">Compare</text>
</a>
</g>
</g>
<!-- /tokenizer/Add&#45;&gt;/tokenizer/Compare -->
<g id="edge12" class="edge">
<title>/tokenizer/Add:sw&#45;&gt;/tokenizer/Compare:ne</title>
<path fill="none" stroke="black" d="M117.88,-88C88.17,-58.29 211.8,-66.7 214.44,-45.03"/>
<polygon fill="black" stroke="black" points="217.51,-43.35 209.88,-36 211.26,-46.5 217.51,-43.35"/>
<text text-anchor="middle" x="142.34" y="-66.3" font-family="Times,serif" font-size="14.00">sum</text>
<text text-anchor="middle" x="196.66" y="-38.8" font-family="Times,serif" font-size="14.00">right</text>
</g>
<!-- initializer/tokenizer/Add_1 -->
<!-- initializer/tokenizer/Add_1&#45;&gt;/tokenizer/Add -->
<g id="edge2" class="edge">
<title>initializer/tokenizer/Add_1&#45;&gt;/tokenizer/Add:w</title>
<path fill="none" stroke="blue" stroke-dasharray="1,5" d="M98.94,-171.8C91.28,-150.84 81.65,-116.98 94.96,-106.91"/>
<polygon fill="blue" stroke="blue" points="96.27,-110.18 104.88,-104 94.3,-103.46 96.27,-110.18"/>
<text text-anchor="middle" x="96.38" y="-142.8" font-family="Times,serif" font-size="14.00">1</text>
</g>
<!-- /tokenizer/Count&#45;&gt;/tokenizer/Count -->
<g id="edge10" class="edge">
<title>/tokenizer/Count:s&#45;&gt;/tokenizer/Count:n</title>
<path fill="none" stroke="black" d="M473.88,-86C490.45,-75.5 523.61,-75.5 523.61,-104 523.61,-127.82 500.44,-131.73 483.16,-126.24"/>
<polygon fill="black" stroke="black" points="484.43,-122.97 473.88,-122 481.52,-129.34 484.43,-122.97"/>
<text text-anchor="middle" x="458.34" y="-74.79" font-family="Times,serif" font-size="14.00">count</text>
<text text-anchor="middle" x="489.43" y="-124.8" font-family="Times,serif" font-size="14.00">count</text>
</g>
<!-- /tokenizer/Stdout -->
<g id="node10" class="node">
<title>/tokenizer/Stdout</title>
<g id="a_node10"><a xlink:href="../../flowruntime/stdio/stdout.toml" xlink:title="Stdout">
<ellipse fill="coral" stroke="black" cx="507.88" cy="-18" rx="33.41" ry="18"/>
<text text-anchor="middle" x="507.88" y="-13.8" font-family="Times,serif" font-size="14.00">Stdout</text>
</a>
</g>
</g>
<!-- /tokenizer/Count&#45;&gt;/tokenizer/Stdout -->
<g id="edge11" class="edge">
<title>/tokenizer/Count:s&#45;&gt;/tokenizer/Stdout:w</title>
<path fill="none" stroke="black" d="M473.88,-86C473.88,-60.5 451.65,-29.62 462.86,-20.59"/>
<polygon fill="black" stroke="black" points="464.07,-23.89 472.88,-18 462.32,-17.12 464.07,-23.89"/>
<text text-anchor="middle" x="448.61" y="-49.9" font-family="Times,serif" font-size="14.00">count</text>
</g>
<!-- initializer/tokenizer/Count_1 -->
<!-- initializer/tokenizer/Count_1&#45;&gt;/tokenizer/Count -->
<g id="edge3" class="edge">
<title>initializer/tokenizer/Count_1&#45;&gt;/tokenizer/Count:n</title>
<path fill="none" stroke="blue" stroke-dasharray="1,5" d="M473.88,-171.93C473.88,-161.03 473.88,-146.34 473.88,-132.17"/>
<polygon fill="blue" stroke="blue" points="477.38,-132 473.88,-122 470.38,-132 477.38,-132"/>
<text text-anchor="middle" x="477.38" y="-142.8" font-family="Times,serif" font-size="14.00">0</text>
</g>
<!-- initializer/tokenizer/Compare_0 -->
<!-- initializer/tokenizer/Compare_0&#45;&gt;/tokenizer/Compare -->
<g id="edge4" class="edge">
<title>initializer/tokenizer/Compare_0&#45;&gt;/tokenizer/Compare:ne</title>
<path fill="none" stroke="blue" d="M274.13,-86.43C257.44,-75.46 235.74,-60.05 217.47,-43.27"/>
<polygon fill="blue" stroke="blue" points="219.52,-40.39 209.88,-36 214.68,-45.44 219.52,-40.39"/>
<text text-anchor="middle" x="251.38" y="-56.8" font-family="Times,serif" font-size="14.00">0</text>
</g>
</g>
</svg>
