<?xml version="1.0" encoding="UTF-8" standalone="no"?>
<!DOCTYPE svg PUBLIC "-//W3C//DTD SVG 1.1//EN"
 "http://www.w3.org/Graphics/SVG/1.1/DTD/svg11.dtd">
<!-- Generated by graphviz version 2.42.4 (0)
 -->
<!-- Title: tokenizer Pages: 1 -->
<svg width="933pt" height="549pt"
 viewBox="28.80 28.80 904.67 520.54" xmlns="http://www.w3.org/2000/svg" xmlns:xlink="http://www.w3.org/1999/xlink">
<g id="graph0" class="graph" transform="scale(1 1) rotate(0) translate(32.8 516.54)">
<title>tokenizer</title>
<polygon fill="white" stroke="transparent" points="-4,4 -4,-487.74 871.87,-487.74 871.87,4 -4,4"/>
<text text-anchor="middle" x="433.93" y="-468.54" font-family="Times,serif" font-size="14.00">tokenizer</text>
<!-- /tokenizer/Readline -->
<g id="node1" class="node">
<title>/tokenizer/Readline</title>
<g id="a_node1"><a xlink:href="../../flowruntime/stdio/readline.html" xlink:title="Readline">
<ellipse fill="coral" stroke="black" cx="274.73" cy="-442.74" rx="51.19" ry="18"/>
<text text-anchor="middle" x="274.73" y="-439.04" font-family="Times,serif" font-size="14.00">Readline</text>
</a>
</g>
</g>
<!-- /tokenizer/Split -->
<g id="node2" class="node">
<title>/tokenizer/Split</title>
<g id="a_node2"><a xlink:href="../../flowstdlib/data/split/split.html" xlink:title="Split">
<ellipse fill="coral" stroke="black" cx="436.73" cy="-355.74" rx="32.49" ry="18"/>
<text text-anchor="middle" x="436.73" y="-352.04" font-family="Times,serif" font-size="14.00">Split</text>
</a>
</g>
</g>
<!-- /tokenizer/Readline&#45;&gt;/tokenizer/Split -->
<g id="edge5" class="edge">
<title>/tokenizer/Readline:e&#45;&gt;/tokenizer/Split:w</title>
<path fill="none" stroke="black" d="M327.73,-442.74C336.49,-442.74 330.83,-431.99 335.73,-424.74 346.02,-409.52 372.32,-369.5 393.08,-358.55"/>
<polygon fill="black" stroke="black" points="394.11,-361.89 402.73,-355.74 392.15,-355.17 394.11,-361.89"/>
<text text-anchor="middle" x="381.23" y="-359.54" font-family="Times,serif" font-size="14.00">string</text>
</g>
<!-- /tokenizer/Split&#45;&gt;/tokenizer/Split -->
<g id="edge6" class="edge">
<title>/tokenizer/Split:s&#45;&gt;/tokenizer/Split:w</title>
<path fill="none" stroke="black" d="M436.73,-337.74C419.9,-327.24 386.24,-327.24 386.24,-346.74 386.24,-359.23 391.16,-363.72 396.15,-362.57"/>
<polygon fill="black" stroke="black" points="398.65,-365.03 403.73,-355.74 393.96,-359.83 398.65,-365.03"/>
<text text-anchor="middle" x="399.8" y="-321.25" font-family="Times,serif" font-size="14.00">partial</text>
<text text-anchor="middle" x="382.23" y="-344.54" font-family="Times,serif" font-size="14.00">string</text>
</g>
<!-- /tokenizer/work&#45;counter -->
<g id="node4" class="node">
<title>/tokenizer/work&#45;counter</title>
<g id="a_node4"><a xlink:href="../../flowstdlib/math/add/add.html" xlink:title="work&#45;counter\n(Add)">
<ellipse fill="coral" stroke="black" cx="770.73" cy="-259.87" rx="78.48" ry="26.74"/>
<text text-anchor="middle" x="770.73" y="-263.67" font-family="Times,serif" font-size="14.00">work&#45;counter</text>
<text text-anchor="middle" x="770.73" y="-248.67" font-family="Times,serif" font-size="14.00">(Add)</text>
</a>
</g>
</g>
<!-- /tokenizer/Split&#45;&gt;/tokenizer/work&#45;counter -->
<g id="edge7" class="edge">
<title>/tokenizer/Split:s&#45;&gt;/tokenizer/work&#45;counter:ne</title>
<path fill="none" stroke="black" d="M436.73,-337.74C436.73,-319.87 730.21,-304.11 786.76,-290.84"/>
<polygon fill="black" stroke="black" points="788.68,-293.78 795.73,-285.87 785.29,-287.65 788.68,-293.78"/>
<text text-anchor="middle" x="597.65" y="-313.91" font-family="Times,serif" font-size="14.00">delta</text>
<text text-anchor="middle" x="788.73" y="-289.67" font-family="Times,serif" font-size="14.00">i1</text>
</g>
<!-- /tokenizer/token&#45;counter -->
<g id="node6" class="node">
<title>/tokenizer/token&#45;counter</title>
<g id="a_node6"><a xlink:href="../../flowstdlib/math/add/add.html" xlink:title="token&#45;counter\n(Add)">
<ellipse fill="coral" stroke="black" cx="260.73" cy="-259.87" rx="82.05" ry="26.74"/>
<text text-anchor="middle" x="260.73" y="-263.67" font-family="Times,serif" font-size="14.00">token&#45;counter</text>
<text text-anchor="middle" x="260.73" y="-248.67" font-family="Times,serif" font-size="14.00">(Add)</text>
</a>
</g>
</g>
<!-- /tokenizer/Split&#45;&gt;/tokenizer/token&#45;counter -->
<g id="edge9" class="edge">
<title>/tokenizer/Split:s&#45;&gt;/tokenizer/token&#45;counter:ne</title>
<path fill="none" stroke="black" d="M436.73,-337.74C436.73,-270.76 346.07,-330.11 294.37,-293.21"/>
<polygon fill="black" stroke="black" points="296.63,-290.54 286.73,-286.74 292.1,-295.88 296.63,-290.54"/>
<text text-anchor="middle" x="318.9" y="-309.7" font-family="Times,serif" font-size="14.00">token&#45;count</text>
<text text-anchor="middle" x="279.73" y="-290.54" font-family="Times,serif" font-size="14.00">i1</text>
</g>
<!-- initializer/tokenizer/Split_1 -->
<!-- initializer/tokenizer/Split_1&#45;&gt;/tokenizer/Split -->
<g id="edge1" class="edge">
<title>initializer/tokenizer/Split_1&#45;&gt;/tokenizer/Split:w</title>
<path fill="none" stroke="blue" d="M456.61,-424.95C426.48,-403.25 380.27,-367.14 392.66,-357.93"/>
<polygon fill="blue" stroke="blue" points="393.71,-361.28 402.73,-355.74 392.22,-354.44 393.71,-361.28"/>
<text text-anchor="middle" x="442.23" y="-395.54" font-family="Times,serif" font-size="14.00">&quot; &quot;</text>
</g>
<!-- /tokenizer/work&#45;counter&#45;&gt;/tokenizer/work&#45;counter -->
<g id="edge8" class="edge">
<title>/tokenizer/work&#45;counter:sw&#45;&gt;/tokenizer/work&#45;counter:w</title>
<path fill="none" stroke="black" d="M745.73,-234.87C713.57,-221.87 674.25,-221.87 674.25,-247.37 674.25,-264.9 679.92,-270.38 685.25,-267.87"/>
<polygon fill="black" stroke="black" points="688.15,-269.84 691.73,-259.87 682.72,-265.43 688.15,-269.84"/>
<text text-anchor="middle" x="705.4" y="-216.54" font-family="Times,serif" font-size="14.00">sum</text>
<text text-anchor="middle" x="684.73" y="-263.67" font-family="Times,serif" font-size="14.00">i2</text>
</g>
<!-- /tokenizer/Compare -->
<g id="node9" class="node">
<title>/tokenizer/Compare</title>
<g id="a_node9"><a xlink:href="../../flowstdlib/math/compare/compare.html" xlink:title="Compare">
<ellipse fill="coral" stroke="black" cx="500.73" cy="-164" rx="52.79" ry="18"/>
<text text-anchor="middle" x="500.73" y="-160.3" font-family="Times,serif" font-size="14.00">Compare</text>
</a>
</g>
</g>
<!-- /tokenizer/work&#45;counter&#45;&gt;/tokenizer/Compare -->
<g id="edge12" class="edge">
<title>/tokenizer/work&#45;counter:sw&#45;&gt;/tokenizer/Compare:ne</title>
<path fill="none" stroke="black" d="M745.73,-233.87C711.29,-199.42 573.33,-216.27 525.95,-188.23"/>
<polygon fill="black" stroke="black" points="527.82,-185.26 517.73,-182 523.58,-190.83 527.82,-185.26"/>
<text text-anchor="middle" x="616.27" y="-211.74" font-family="Times,serif" font-size="14.00">sum</text>
<text text-anchor="middle" x="499.73" y="-185.8" font-family="Times,serif" font-size="14.00">right</text>
</g>
<!-- initializer/tokenizer/work&#45;counter_1 -->
<!-- initializer/tokenizer/work&#45;counter_1&#45;&gt;/tokenizer/work&#45;counter -->
<g id="edge2" class="edge">
<title>initializer/tokenizer/work&#45;counter_1&#45;&gt;/tokenizer/work&#45;counter:w</title>
<path fill="none" stroke="blue" stroke-dasharray="1,5" d="M689.83,-337.34C687.81,-317.23 685.11,-284.87 686.86,-269.11"/>
<polygon fill="blue" stroke="blue" points="690.09,-270.45 690.73,-259.87 683.64,-267.74 690.09,-270.45"/>
<text text-anchor="middle" x="692.73" y="-308.54" font-family="Times,serif" font-size="14.00">1</text>
</g>
<!-- /tokenizer/token&#45;counter&#45;&gt;/tokenizer/token&#45;counter -->
<g id="edge10" class="edge">
<title>/tokenizer/token&#45;counter:sw&#45;&gt;/tokenizer/token&#45;counter:w</title>
<path fill="none" stroke="black" d="M234.73,-233.87C201.39,-220.87 160.71,-220.87 160.71,-246.87 160.71,-265.15 166.64,-270.58 172.26,-267.67"/>
<polygon fill="black" stroke="black" points="175.04,-269.8 178.73,-259.87 169.65,-265.33 175.04,-269.8"/>
<text text-anchor="middle" x="193.4" y="-215.53" font-family="Times,serif" font-size="14.00">sum</text>
<text text-anchor="middle" x="171.73" y="-263.67" font-family="Times,serif" font-size="14.00">i2</text>
</g>
<!-- /tokenizer/Tap -->
<g id="node8" class="node">
<title>/tokenizer/Tap</title>
<g id="a_node8"><a xlink:href="../../flowstdlib/control/tap/tap.html" xlink:title="Tap">
<ellipse fill="coral" stroke="black" cx="354.73" cy="-91" rx="27.1" ry="18"/>
<text text-anchor="middle" x="354.73" y="-87.3" font-family="Times,serif" font-size="14.00">Tap</text>
</a>
</g>
</g>
<!-- /tokenizer/token&#45;counter&#45;&gt;/tokenizer/Tap -->
<g id="edge11" class="edge">
<title>/tokenizer/token&#45;counter:sw&#45;&gt;/tokenizer/Tap:nw</title>
<path fill="none" stroke="black" d="M234.73,-233C185.61,-183.87 278.69,-160.76 332.15,-114.07"/>
<polygon fill="black" stroke="black" points="334.81,-116.38 339.73,-107 330.03,-111.26 334.81,-116.38"/>
<text text-anchor="middle" x="260.83" y="-156.03" font-family="Times,serif" font-size="14.00">sum</text>
<text text-anchor="middle" x="323.73" y="-110.8" font-family="Times,serif" font-size="14.00">data</text>
</g>
<!-- initializer/tokenizer/token&#45;counter_1 -->
<!-- initializer/tokenizer/token&#45;counter_1&#45;&gt;/tokenizer/token&#45;counter -->
<g id="edge3" class="edge">
<title>initializer/tokenizer/token&#45;counter_1&#45;&gt;/tokenizer/token&#45;counter:w</title>
<path fill="none" stroke="blue" stroke-dasharray="1,5" d="M171.68,-337.34C162.86,-313.59 150.85,-272.77 167.8,-262.35"/>
<polygon fill="blue" stroke="blue" points="168.88,-265.69 177.73,-259.87 167.18,-258.9 168.88,-265.69"/>
<text text-anchor="middle" x="170.73" y="-308.54" font-family="Times,serif" font-size="14.00">0</text>
</g>
<!-- /tokenizer/Stdout -->
<g id="node11" class="node">
<title>/tokenizer/Stdout</title>
<g id="a_node11"><a xlink:href="../../flowruntime/stdio/stdout.html" xlink:title="Stdout">
<ellipse fill="coral" stroke="black" cx="425.73" cy="-18" rx="42.49" ry="18"/>
<text text-anchor="middle" x="425.73" y="-14.3" font-family="Times,serif" font-size="14.00">Stdout</text>
</a>
</g>
</g>
<!-- /tokenizer/Tap&#45;&gt;/tokenizer/Stdout -->
<g id="edge14" class="edge">
<title>/tokenizer/Tap:e&#45;&gt;/tokenizer/Stdout:w</title>
<path fill="none" stroke="black" d="M383.73,-91C410.87,-91 368.56,-39.99 372.91,-23.25"/>
<polygon fill="black" stroke="black" points="374.93,-26.12 381.73,-18 371.35,-20.1 374.93,-26.12"/>
</g>
<!-- /tokenizer/Compare&#45;&gt;/tokenizer/Tap -->
<g id="edge13" class="edge">
<title>/tokenizer/Compare:e&#45;&gt;/tokenizer/Tap:nw</title>
<path fill="none" stroke="black" d="M554.73,-164C562.75,-164 559.04,-152.01 553.73,-146 525.75,-114.29 356.72,-134.38 337.8,-117"/>
<polygon fill="black" stroke="black" points="341.28,-117.48 339.73,-107 334.4,-116.16 341.28,-117.48"/>
<text text-anchor="middle" x="427.45" y="-130.05" font-family="Times,serif" font-size="14.00">equal</text>
<text text-anchor="middle" x="365.23" y="-110.8" font-family="Times,serif" font-size="14.00">control</text>
</g>
<!-- initializer/tokenizer/Compare_0 -->
<!-- initializer/tokenizer/Compare_0&#45;&gt;/tokenizer/Compare -->
<g id="edge4" class="edge">
<title>initializer/tokenizer/Compare_0&#45;&gt;/tokenizer/Compare:ne</title>
<path fill="none" stroke="blue" d="M523.92,-241.57C528.13,-226.89 531.66,-205.81 523.78,-190.36"/>
<polygon fill="blue" stroke="blue" points="526.43,-188.05 517.73,-182 520.76,-192.15 526.43,-188.05"/>
<text text-anchor="middle" x="532.73" y="-203.8" font-family="Times,serif" font-size="14.00">0</text>
</g>
</g>
</svg>
