<?xml version="1.0" encoding="UTF-8" standalone="no"?>
<!DOCTYPE svg PUBLIC "-//W3C//DTD SVG 1.1//EN"
 "http://www.w3.org/Graphics/SVG/1.1/DTD/svg11.dtd">
<!-- Generated by graphviz version 2.44.1 (20200629.0846)
 -->
<!-- Title: tokenizer Pages: 1 -->
<svg width="752pt" height="549pt"
 viewBox="28.80 28.80 723.33 520.54" xmlns="http://www.w3.org/2000/svg" xmlns:xlink="http://www.w3.org/1999/xlink">
<g id="graph0" class="graph" transform="scale(1 1) rotate(0) translate(32.8 516.54)">
<title>tokenizer</title>
<polygon fill="white" stroke="transparent" points="-4,4 -4,-487.74 690.53,-487.74 690.53,4 -4,4"/>
<text text-anchor="middle" x="343.26" y="-468.54" font-family="Times,serif" font-size="14.00">tokenizer</text>
<!-- /tokenizer/readline -->
<g id="node1" class="node">
<title>/tokenizer/readline</title>
<g id="a_node1"><a xlink:href="../../flowr/src/lib/flowruntime/stdio/readline.html" xlink:title="readline">
<ellipse fill="coral" stroke="black" cx="217.74" cy="-442.74" rx="38.99" ry="18"/>
<text text-anchor="middle" x="217.74" y="-439.04" font-family="Times,serif" font-size="14.00">readline</text>
</a>
</g>
</g>
<!-- /tokenizer/split -->
<g id="node2" class="node">
<title>/tokenizer/split</title>
<g id="a_node2"><a xlink:href="../../flowstdlib/data/split/split.html" xlink:title="split">
<ellipse fill="coral" stroke="black" cx="345.74" cy="-355.74" rx="27" ry="18"/>
<text text-anchor="middle" x="345.74" y="-352.04" font-family="Times,serif" font-size="14.00">split</text>
</a>
</g>
</g>
<!-- /tokenizer/readline&#45;&gt;/tokenizer/split -->
<g id="edge5" class="edge">
<title>/tokenizer/readline:e&#45;&gt;/tokenizer/split:w</title>
<path fill="none" stroke="black" d="M257.74,-442.74C266.49,-442.74 261.3,-432.28 265.74,-424.74 273.88,-410.91 291.33,-371.98 308.05,-359.59"/>
<polygon fill="black" stroke="black" points="309.73,-362.68 317.74,-355.74 307.15,-356.18 309.73,-362.68"/>
<text text-anchor="middle" x="265.77" y="-399.69" font-family="Times,serif" font-size="14.00">string</text>
<text text-anchor="middle" x="302.24" y="-359.54" font-family="Times,serif" font-size="14.00">string</text>
</g>
<!-- /tokenizer/split&#45;&gt;/tokenizer/split -->
<g id="edge6" class="edge">
<title>/tokenizer/split:s&#45;&gt;/tokenizer/split:w</title>
<path fill="none" stroke="black" d="M345.74,-337.74C330.74,-327.24 300.74,-327.24 300.74,-346.74 300.74,-359.54 305.91,-363.94 311.15,-362.48"/>
<polygon fill="black" stroke="black" points="313.59,-365 318.74,-355.74 308.94,-359.77 313.59,-365"/>
<text text-anchor="middle" x="319.4" y="-322.1" font-family="Times,serif" font-size="14.00">partial</text>
<text text-anchor="middle" x="303.24" y="-344.54" font-family="Times,serif" font-size="14.00">string</text>
</g>
<!-- /tokenizer/work&#45;counter -->
<g id="node4" class="node">
<title>/tokenizer/work&#45;counter</title>
<g id="a_node4"><a xlink:href="../../flowstdlib/math/add/add.html" xlink:title="work&#45;counter\n(add)">
<ellipse fill="coral" stroke="black" cx="611.74" cy="-259.87" rx="62.87" ry="26.74"/>
<text text-anchor="middle" x="611.74" y="-263.67" font-family="Times,serif" font-size="14.00">work&#45;counter</text>
<text text-anchor="middle" x="611.74" y="-248.67" font-family="Times,serif" font-size="14.00">(add)</text>
</a>
</g>
</g>
<!-- /tokenizer/split&#45;&gt;/tokenizer/work&#45;counter -->
<g id="edge7" class="edge">
<title>/tokenizer/split:s&#45;&gt;/tokenizer/work&#45;counter:ne</title>
<path fill="none" stroke="black" d="M345.74,-337.74C345.74,-323.34 578.46,-303.24 627.9,-290.68"/>
<polygon fill="black" stroke="black" points="629.62,-293.72 636.74,-285.87 626.28,-287.57 629.62,-293.72"/>
<text text-anchor="middle" x="477.58" y="-314.38" font-family="Times,serif" font-size="14.00">delta</text>
<text text-anchor="middle" x="631.24" y="-289.67" font-family="Times,serif" font-size="14.00">i1</text>
</g>
<!-- /tokenizer/token&#45;counter -->
<g id="node6" class="node">
<title>/tokenizer/token&#45;counter</title>
<g id="a_node6"><a xlink:href="../../flowstdlib/math/add/add.html" xlink:title="token&#45;counter\n(add)">
<ellipse fill="coral" stroke="black" cx="204.74" cy="-259.87" rx="65.11" ry="26.74"/>
<text text-anchor="middle" x="204.74" y="-263.67" font-family="Times,serif" font-size="14.00">token&#45;counter</text>
<text text-anchor="middle" x="204.74" y="-248.67" font-family="Times,serif" font-size="14.00">(add)</text>
</a>
</g>
</g>
<!-- /tokenizer/split&#45;&gt;/tokenizer/token&#45;counter -->
<g id="edge9" class="edge">
<title>/tokenizer/split:s&#45;&gt;/tokenizer/token&#45;counter:ne</title>
<path fill="none" stroke="black" d="M345.74,-337.74C345.74,-284.79 278.88,-320.63 237.62,-292.41"/>
<polygon fill="black" stroke="black" points="239.67,-289.56 229.74,-285.87 235.2,-294.95 239.67,-289.56"/>
<text text-anchor="middle" x="255.79" y="-308.93" font-family="Times,serif" font-size="14.00">token&#45;count</text>
<text text-anchor="middle" x="224.24" y="-289.67" font-family="Times,serif" font-size="14.00">i1</text>
</g>
<!-- initializer/tokenizer/split_1 -->
<!-- initializer/tokenizer/split_1&#45;&gt;/tokenizer/split -->
<g id="edge1" class="edge">
<title>initializer/tokenizer/split_1&#45;&gt;/tokenizer/split:w</title>
<path fill="none" stroke="blue" d="M360.03,-424.75C334.75,-403.21 296.67,-367.73 307.96,-358.17"/>
<polygon fill="blue" stroke="blue" points="308.88,-361.55 317.74,-355.74 307.19,-354.76 308.88,-361.55"/>
<text text-anchor="middle" x="347.74" y="-395.54" font-family="Times,serif" font-size="14.00">&quot; &quot;</text>
</g>
<!-- /tokenizer/work&#45;counter&#45;&gt;/tokenizer/work&#45;counter -->
<g id="edge8" class="edge">
<title>/tokenizer/work&#45;counter:sw&#45;&gt;/tokenizer/work&#45;counter:w</title>
<path fill="none" stroke="black" d="M586.74,-234.87C559.76,-221.87 530.81,-221.87 530.81,-247.37 530.81,-265.3 536.74,-270.62 542.32,-267.68"/>
<polygon fill="black" stroke="black" points="545.1,-269.82 548.74,-259.87 539.69,-265.38 545.1,-269.82"/>
<text text-anchor="middle" x="561.44" y="-218.38" font-family="Times,serif" font-size="14.00">sum</text>
<text text-anchor="middle" x="543.24" y="-263.67" font-family="Times,serif" font-size="14.00">i2</text>
</g>
<!-- /tokenizer/compare -->
<g id="node9" class="node">
<title>/tokenizer/compare</title>
<g id="a_node9"><a xlink:href="../../flowstdlib/math/compare/compare.html" xlink:title="compare">
<ellipse fill="coral" stroke="black" cx="392.74" cy="-164" rx="41.69" ry="18"/>
<text text-anchor="middle" x="392.74" y="-160.3" font-family="Times,serif" font-size="14.00">compare</text>
</a>
</g>
</g>
<!-- /tokenizer/work&#45;counter&#45;&gt;/tokenizer/compare -->
<g id="edge12" class="edge">
<title>/tokenizer/work&#45;counter:sw&#45;&gt;/tokenizer/compare:ne</title>
<path fill="none" stroke="black" d="M586.74,-233.87C531.26,-178.4 472.95,-234.69 417.23,-188.82"/>
<polygon fill="black" stroke="black" points="419.49,-186.14 409.74,-182 414.78,-191.32 419.49,-186.14"/>
<text text-anchor="middle" x="486.07" y="-211.74" font-family="Times,serif" font-size="14.00">sum</text>
<text text-anchor="middle" x="396.74" y="-185.8" font-family="Times,serif" font-size="14.00">right</text>
</g>
<!-- initializer/tokenizer/work&#45;counter_1 -->
<!-- initializer/tokenizer/work&#45;counter_1&#45;&gt;/tokenizer/work&#45;counter -->
<g id="edge2" class="edge">
<title>initializer/tokenizer/work&#45;counter_1&#45;&gt;/tokenizer/work&#45;counter:w</title>
<path fill="none" stroke="blue" stroke-dasharray="1,5" d="M546.84,-337.34C544.81,-317.23 542.12,-284.87 543.86,-269.11"/>
<polygon fill="blue" stroke="blue" points="547.09,-270.45 547.74,-259.87 540.64,-267.74 547.09,-270.45"/>
<text text-anchor="middle" x="548.24" y="-308.54" font-family="Times,serif" font-size="14.00">1</text>
</g>
<!-- /tokenizer/token&#45;counter&#45;&gt;/tokenizer/token&#45;counter -->
<g id="edge10" class="edge">
<title>/tokenizer/token&#45;counter:sw&#45;&gt;/tokenizer/token&#45;counter:w</title>
<path fill="none" stroke="black" d="M179.74,-234.87C152.05,-221.87 121.68,-221.87 121.68,-247.37 121.68,-265.3 127.62,-270.62 133.24,-267.68"/>
<polygon fill="black" stroke="black" points="136.04,-269.8 139.74,-259.87 130.65,-265.32 136.04,-269.8"/>
<text text-anchor="middle" x="152.75" y="-217.99" font-family="Times,serif" font-size="14.00">sum</text>
<text text-anchor="middle" x="134.24" y="-263.67" font-family="Times,serif" font-size="14.00">i2</text>
</g>
<!-- /tokenizer/tap -->
<g id="node8" class="node">
<title>/tokenizer/tap</title>
<g id="a_node8"><a xlink:href="../../flowstdlib/control/tap/tap.html" xlink:title="tap">
<ellipse fill="coral" stroke="black" cx="278.74" cy="-91" rx="27" ry="18"/>
<text text-anchor="middle" x="278.74" y="-87.3" font-family="Times,serif" font-size="14.00">tap</text>
</a>
</g>
</g>
<!-- /tokenizer/token&#45;counter&#45;&gt;/tokenizer/tap -->
<g id="edge11" class="edge">
<title>/tokenizer/token&#45;counter:sw&#45;&gt;/tokenizer/tap:nw</title>
<path fill="none" stroke="black" d="M179.74,-233.87C134.35,-188.48 207.73,-158.03 256.19,-114.16"/>
<polygon fill="black" stroke="black" points="258.9,-116.42 263.74,-107 254.08,-111.35 258.9,-116.42"/>
<text text-anchor="middle" x="195.55" y="-156.25" font-family="Times,serif" font-size="14.00">sum</text>
<text text-anchor="middle" x="252.24" y="-110.8" font-family="Times,serif" font-size="14.00">data</text>
</g>
<!-- initializer/tokenizer/token&#45;counter_1 -->
<!-- initializer/tokenizer/token&#45;counter_1&#45;&gt;/tokenizer/token&#45;counter -->
<g id="edge3" class="edge">
<title>initializer/tokenizer/token&#45;counter_1&#45;&gt;/tokenizer/token&#45;counter:w</title>
<path fill="none" stroke="blue" stroke-dasharray="1,5" d="M132.68,-337.34C123.86,-313.59 111.85,-272.77 128.8,-262.35"/>
<polygon fill="blue" stroke="blue" points="129.88,-265.69 138.74,-259.87 128.19,-258.9 129.88,-265.69"/>
<text text-anchor="middle" x="130.24" y="-308.54" font-family="Times,serif" font-size="14.00">0</text>
</g>
<!-- /tokenizer/stdout -->
<g id="node11" class="node">
<title>/tokenizer/stdout</title>
<g id="a_node11"><a xlink:href="../../flowr/src/lib/flowruntime/stdio/stdout.html" xlink:title="stdout">
<ellipse fill="coral" stroke="black" cx="338.74" cy="-18" rx="32.49" ry="18"/>
<text text-anchor="middle" x="338.74" y="-14.3" font-family="Times,serif" font-size="14.00">stdout</text>
</a>
</g>
</g>
<!-- /tokenizer/tap&#45;&gt;/tokenizer/stdout -->
<g id="edge14" class="edge">
<title>/tokenizer/tap:e&#45;&gt;/tokenizer/stdout:w</title>
<path fill="none" stroke="black" d="M306.74,-91C333.87,-91 291.56,-39.99 295.91,-23.25"/>
<polygon fill="black" stroke="black" points="297.93,-26.12 304.74,-18 294.35,-20.1 297.93,-26.12"/>
</g>
<!-- /tokenizer/compare&#45;&gt;/tokenizer/tap -->
<g id="edge13" class="edge">
<title>/tokenizer/compare:e&#45;&gt;/tokenizer/tap:nw</title>
<path fill="none" stroke="black" d="M435.74,-164C443.75,-164 439.91,-152.12 434.74,-146 413.62,-120.99 287.92,-129.92 264.53,-117.1"/>
<polygon fill="black" stroke="black" points="268.01,-116.7 263.74,-107 261.03,-117.24 268.01,-116.7"/>
<text text-anchor="middle" x="335.7" y="-130.79" font-family="Times,serif" font-size="14.00">equal</text>
<text text-anchor="middle" x="283.24" y="-110.8" font-family="Times,serif" font-size="14.00">control</text>
</g>
<!-- initializer/tokenizer/compare_0 -->
<!-- initializer/tokenizer/compare_0&#45;&gt;/tokenizer/compare -->
<g id="edge4" class="edge">
<title>initializer/tokenizer/compare_0&#45;&gt;/tokenizer/compare:ne</title>
<path fill="none" stroke="blue" d="M415.92,-241.57C420.14,-226.89 423.67,-205.81 415.78,-190.36"/>
<polygon fill="blue" stroke="blue" points="418.43,-188.05 409.74,-182 412.76,-192.15 418.43,-188.05"/>
<text text-anchor="middle" x="423.24" y="-203.8" font-family="Times,serif" font-size="14.00">0</text>
</g>
</g>
</svg>
