<?xml version="1.0" encoding="UTF-8" standalone="no"?>
<!DOCTYPE svg PUBLIC "-//W3C//DTD SVG 1.1//EN"
 "http://www.w3.org/Graphics/SVG/1.1/DTD/svg11.dtd">
<!-- Generated by graphviz version 2.42.3 (20191010.1750)
 -->
<!-- Title: tokenizer Pages: 1 -->
<svg width="601pt" height="570pt"
 viewBox="28.80 28.80 571.78 541.62" xmlns="http://www.w3.org/2000/svg" xmlns:xlink="http://www.w3.org/1999/xlink">
<g id="graph0" class="graph" transform="scale(1 1) rotate(0) translate(32.8 537.62)">
<title>tokenizer</title>
<polygon fill="white" stroke="transparent" points="-4,4 -4,-508.82 538.98,-508.82 538.98,4 -4,4"/>
<text text-anchor="middle" x="267.49" y="-489.62" font-family="Times,serif" font-size="14.00">tokenizer</text>
<!-- /tokenizer/Readline -->
<g id="node1" class="node">
<title>/tokenizer/Readline</title>
<g id="a_node1"><a xlink:href="../../flowruntime/stdio/readline.toml" xlink:title="Readline">
<ellipse fill="coral" stroke="black" cx="248.88" cy="-464.82" rx="41.58" ry="18"/>
<text text-anchor="middle" x="248.88" y="-460.62" font-family="Times,serif" font-size="14.00">Readline</text>
</a>
</g>
</g>
<!-- /tokenizer/Split -->
<g id="node2" class="node">
<title>/tokenizer/Split</title>
<g id="a_node2"><a xlink:href="../../flowstdlib/data/split/split.toml" xlink:title="Split">
<ellipse fill="coral" stroke="black" cx="380.88" cy="-378.82" rx="27" ry="18"/>
<text text-anchor="middle" x="380.88" y="-374.62" font-family="Times,serif" font-size="14.00">Split</text>
</a>
</g>
</g>
<!-- /tokenizer/Readline&#45;&gt;/tokenizer/Split -->
<g id="edge5" class="edge">
<title>/tokenizer/Readline:e&#45;&gt;/tokenizer/Split:w</title>
<path fill="none" stroke="black" d="M291.88,-464.82C300.63,-464.82 295.38,-454.33 299.88,-446.82 317.66,-417.17 315.31,-385.66 342.83,-379.79"/>
<polygon fill="black" stroke="black" points="343.26,-383.27 352.88,-378.82 342.59,-376.3 343.26,-383.27"/>
<text text-anchor="middle" x="336.93" y="-381.62" font-family="Times,serif" font-size="14.00">string</text>
</g>
<!-- /tokenizer/Split&#45;&gt;/tokenizer/Split -->
<g id="edge6" class="edge">
<title>/tokenizer/Split:s&#45;&gt;/tokenizer/Split:w</title>
<path fill="none" stroke="black" d="M380.88,-360.82C365.88,-350.32 335.88,-350.32 335.88,-369.82 335.88,-382.62 341.05,-387.02 346.29,-385.56"/>
<polygon fill="black" stroke="black" points="348.73,-388.08 353.88,-378.82 344.08,-382.85 348.73,-388.08"/>
<text text-anchor="middle" x="354.16" y="-345.19" font-family="Times,serif" font-size="14.00">partial</text>
<text text-anchor="middle" x="337.93" y="-367.62" font-family="Times,serif" font-size="14.00">string</text>
</g>
<!-- /tokenizer/Add -->
<g id="node4" class="node">
<title>/tokenizer/Add</title>
<g id="a_node4"><a xlink:href="../../flowstdlib/math/add/add.toml" xlink:title="Add">
<ellipse fill="coral" stroke="black" cx="132.88" cy="-292.82" rx="27" ry="18"/>
<text text-anchor="middle" x="132.88" y="-288.62" font-family="Times,serif" font-size="14.00">Add</text>
</a>
</g>
</g>
<!-- /tokenizer/Split&#45;&gt;/tokenizer/Add -->
<g id="edge7" class="edge">
<title>/tokenizer/Split:s&#45;&gt;/tokenizer/Add:ne</title>
<path fill="none" stroke="black" d="M380.88,-360.82C380.88,-258.24 233.22,-375.53 155.62,-315.64"/>
<polygon fill="black" stroke="black" points="157.7,-312.81 147.88,-308.82 153.07,-318.06 157.7,-312.81"/>
<text text-anchor="middle" x="249.72" y="-331.6" font-family="Times,serif" font-size="14.00">delta</text>
<text text-anchor="middle" x="142.43" y="-311.62" font-family="Times,serif" font-size="14.00">i1</text>
</g>
<!-- /tokenizer/Stdout -->
<g id="node6" class="node">
<title>/tokenizer/Stdout</title>
<g id="a_node6"><a xlink:href="../../flowruntime/stdio/stdout.toml" xlink:title="Stdout">
<ellipse fill="coral" stroke="black" cx="499.88" cy="-18" rx="33.41" ry="18"/>
<text text-anchor="middle" x="499.88" y="-13.8" font-family="Times,serif" font-size="14.00">Stdout</text>
</a>
</g>
</g>
<!-- /tokenizer/Split&#45;&gt;/tokenizer/Stdout -->
<g id="edge9" class="edge">
<title>/tokenizer/Split:s&#45;&gt;/tokenizer/Stdout:w</title>
<path fill="none" stroke="black" d="M380.88,-360.82C380.88,-298.57 503.88,-356.07 503.88,-293.82 503.88,-293.82 503.88,-293.82 503.88,-97.46 503.88,-63.34 444.97,-28.64 454.97,-20.03"/>
<polygon fill="black" stroke="black" points="455.78,-23.43 464.88,-18 454.38,-16.58 455.78,-23.43"/>
<text text-anchor="middle" x="519.43" y="-296.62" font-family="Times,serif" font-size="14.00">token</text>
</g>
<!-- initializer/tokenizer/Split_1 -->
<!-- initializer/tokenizer/Split_1&#45;&gt;/tokenizer/Split -->
<g id="edge1" class="edge">
<title>initializer/tokenizer/Split_1&#45;&gt;/tokenizer/Split:w</title>
<path fill="none" stroke="blue" d="M395.23,-447.03C370.25,-425.94 332.73,-391.31 342.89,-381.49"/>
<polygon fill="blue" stroke="blue" points="344.12,-384.79 352.88,-378.82 342.31,-378.02 344.12,-384.79"/>
<text text-anchor="middle" x="380.34" y="-417.62" font-family="Times,serif" font-size="14.00">&quot; &quot;</text>
</g>
<!-- /tokenizer/Add&#45;&gt;/tokenizer/Add -->
<g id="edge8" class="edge">
<title>/tokenizer/Add:sw&#45;&gt;/tokenizer/Add:w</title>
<path fill="none" stroke="black" d="M117.88,-277.82C102.88,-267.32 87.88,-267.32 87.88,-285.32 87.88,-297.14 93.05,-301.2 98.29,-299.62"/>
<polygon fill="black" stroke="black" points="100.77,-302.11 105.88,-292.82 96.1,-296.89 100.77,-302.11"/>
<text text-anchor="middle" x="105.51" y="-266.14" font-family="Times,serif" font-size="14.00">sum</text>
<text text-anchor="middle" x="100.43" y="-295.62" font-family="Times,serif" font-size="14.00">i2</text>
</g>
<!-- /tokenizer/compare_switch -->
<g id="node7" class="node">
<title>/tokenizer/compare_switch</title>
<g id="a_node7"><a xlink:href="../../flowstdlib/control/compare_switch/compare_switch.toml" xlink:title="compare_switch\n(CompareSwitch)">
<ellipse fill="coral" stroke="black" cx="167.88" cy="-199.37" rx="81.89" ry="25.41"/>
<text text-anchor="middle" x="167.88" y="-202.17" font-family="Times,serif" font-size="14.00">compare_switch</text>
<text text-anchor="middle" x="167.88" y="-188.17" font-family="Times,serif" font-size="14.00">(CompareSwitch)</text>
</a>
</g>
</g>
<!-- /tokenizer/Add&#45;&gt;/tokenizer/compare_switch -->
<g id="edge10" class="edge">
<title>/tokenizer/Add:sw&#45;&gt;/tokenizer/compare_switch:ne</title>
<path fill="none" stroke="black" d="M117.88,-276.82C92.78,-251.73 190.98,-252.7 196.71,-234.12"/>
<polygon fill="black" stroke="black" points="199.93,-232.73 192.88,-224.82 193.46,-235.4 199.93,-232.73"/>
<text text-anchor="middle" x="143.56" y="-253.66" font-family="Times,serif" font-size="14.00">sum</text>
<text text-anchor="middle" x="179.66" y="-227.62" font-family="Times,serif" font-size="14.00">right</text>
</g>
<!-- initializer/tokenizer/Add_1 -->
<!-- initializer/tokenizer/Add_1&#45;&gt;/tokenizer/Add -->
<g id="edge2" class="edge">
<title>initializer/tokenizer/Add_1&#45;&gt;/tokenizer/Add:w</title>
<path fill="none" stroke="blue" stroke-dasharray="1,5" d="M98.94,-360.62C91.28,-339.67 81.65,-305.81 94.96,-295.74"/>
<polygon fill="blue" stroke="blue" points="96.27,-299 104.88,-292.82 94.3,-292.28 96.27,-299"/>
<text text-anchor="middle" x="96.38" y="-331.62" font-family="Times,serif" font-size="14.00">1</text>
</g>
<!-- /tokenizer/join -->
<g id="node9" class="node">
<title>/tokenizer/join</title>
<g id="a_node9"><a xlink:href="../../flowstdlib/control/join/join.toml" xlink:title="join\n(Join)">
<ellipse fill="coral" stroke="black" cx="392.88" cy="-98.46" rx="34.32" ry="25.41"/>
<text text-anchor="middle" x="392.88" y="-101.26" font-family="Times,serif" font-size="14.00">join</text>
<text text-anchor="middle" x="392.88" y="-87.26" font-family="Times,serif" font-size="14.00">(Join)</text>
</a>
</g>
</g>
<!-- /tokenizer/compare_switch&#45;&gt;/tokenizer/join -->
<g id="edge11" class="edge">
<title>/tokenizer/compare_switch:e&#45;&gt;/tokenizer/join:nw</title>
<path fill="none" stroke="black" d="M250.88,-199.37C262.74,-199.37 251.09,-182.85 258.88,-173.91 292.95,-134.8 327.65,-156.37 364.08,-127.44"/>
<polygon fill="black" stroke="black" points="366.76,-129.73 371.88,-120.46 362.09,-124.52 366.76,-129.73"/>
<text text-anchor="middle" x="293.8" y="-149.95" font-family="Times,serif" font-size="14.00">equal</text>
<text text-anchor="middle" x="352.05" y="-123.26" font-family="Times,serif" font-size="14.00">control</text>
</g>
<!-- initializer/tokenizer/compare_switch_0 -->
<!-- initializer/tokenizer/compare_switch_0&#45;&gt;/tokenizer/compare_switch -->
<g id="edge3" class="edge">
<title>initializer/tokenizer/compare_switch_0&#45;&gt;/tokenizer/compare_switch:ne</title>
<path fill="none" stroke="blue" d="M277.21,-275.85C252.46,-266.09 223.04,-251.61 200.31,-231.76"/>
<polygon fill="blue" stroke="blue" points="202.58,-229.09 192.88,-224.82 197.8,-234.2 202.58,-229.09"/>
<text text-anchor="middle" x="239.38" y="-245.62" font-family="Times,serif" font-size="14.00">0</text>
</g>
<!-- /tokenizer/join&#45;&gt;/tokenizer/Stdout -->
<g id="edge12" class="edge">
<title>/tokenizer/join:e&#45;&gt;/tokenizer/Stdout:w</title>
<path fill="none" stroke="black" d="M428.88,-98.46C463.92,-98.46 433.73,-34.08 455.01,-20.5"/>
<polygon fill="black" stroke="black" points="456.04,-23.85 464.88,-18 454.32,-17.06 456.04,-23.85"/>
</g>
<!-- initializer/tokenizer/join_0 -->
<!-- initializer/tokenizer/join_0&#45;&gt;/tokenizer/join -->
<g id="edge4" class="edge">
<title>initializer/tokenizer/join_0&#45;&gt;/tokenizer/join:nw</title>
<path fill="none" stroke="blue" stroke-dasharray="1,5" d="M365.71,-181.16C361.36,-166.15 357.64,-144.35 365.95,-128.54"/>
<polygon fill="blue" stroke="blue" points="368.79,-130.59 371.88,-120.46 363.14,-126.45 368.79,-130.59"/>
<text text-anchor="middle" x="381.2" y="-144.71" font-family="Times,serif" font-size="14.00">&quot;done&quot;</text>
</g>
</g>
</svg>
