<?xml version="1.0" encoding="UTF-8" standalone="no"?>
<!DOCTYPE svg PUBLIC "-//W3C//DTD SVG 1.1//EN"
 "http://www.w3.org/Graphics/SVG/1.1/DTD/svg11.dtd">
<!-- Generated by graphviz version 2.42.3 (20191010.1750)
 -->
<!-- Title: tokenizer Pages: 1 -->
<svg width="759pt" height="543pt"
 viewBox="28.80 28.80 729.84 513.71" xmlns="http://www.w3.org/2000/svg" xmlns:xlink="http://www.w3.org/1999/xlink">
<g id="graph0" class="graph" transform="scale(1 1) rotate(0) translate(32.8 509.71)">
<title>tokenizer</title>
<polygon fill="white" stroke="transparent" points="-4,4 -4,-480.91 697.04,-480.91 697.04,4 -4,4"/>
<text text-anchor="middle" x="346.52" y="-461.71" font-family="Times,serif" font-size="14.00">tokenizer</text>
<!-- /tokenizer/Readline -->
<g id="node1" class="node">
<title>/tokenizer/Readline</title>
<g id="a_node1"><a xlink:href="../../flowruntime/stdio/readline.toml" xlink:title="Readline">
<ellipse fill="coral" stroke="black" cx="216.76" cy="-436.91" rx="41.58" ry="18"/>
<text text-anchor="middle" x="216.76" y="-432.71" font-family="Times,serif" font-size="14.00">Readline</text>
</a>
</g>
</g>
<!-- /tokenizer/Split -->
<g id="node2" class="node">
<title>/tokenizer/Split</title>
<g id="a_node2"><a xlink:href="../../flowstdlib/data/split/split.toml" xlink:title="Split">
<ellipse fill="coral" stroke="black" cx="348.76" cy="-350.91" rx="27" ry="18"/>
<text text-anchor="middle" x="348.76" y="-346.71" font-family="Times,serif" font-size="14.00">Split</text>
</a>
</g>
</g>
<!-- /tokenizer/Readline&#45;&gt;/tokenizer/Split -->
<g id="edge5" class="edge">
<title>/tokenizer/Readline:e&#45;&gt;/tokenizer/Split:w</title>
<path fill="none" stroke="black" d="M259.76,-436.91C268.51,-436.91 263.26,-426.42 267.76,-418.91 285.54,-389.26 283.19,-357.75 310.71,-351.88"/>
<polygon fill="black" stroke="black" points="311.14,-355.36 320.76,-350.91 310.47,-348.39 311.14,-355.36"/>
<text text-anchor="middle" x="304.81" y="-353.71" font-family="Times,serif" font-size="14.00">string</text>
</g>
<!-- /tokenizer/Split&#45;&gt;/tokenizer/Split -->
<g id="edge6" class="edge">
<title>/tokenizer/Split:s&#45;&gt;/tokenizer/Split:w</title>
<path fill="none" stroke="black" d="M348.76,-332.91C333.76,-322.41 303.76,-322.41 303.76,-341.91 303.76,-354.71 308.93,-359.11 314.17,-357.65"/>
<polygon fill="black" stroke="black" points="316.61,-360.17 321.76,-350.91 311.96,-354.94 316.61,-360.17"/>
<text text-anchor="middle" x="322.04" y="-317.27" font-family="Times,serif" font-size="14.00">partial</text>
<text text-anchor="middle" x="305.81" y="-339.71" font-family="Times,serif" font-size="14.00">string</text>
</g>
<!-- /tokenizer/work&#45;counter -->
<g id="node4" class="node">
<title>/tokenizer/work&#45;counter</title>
<g id="a_node4"><a xlink:href="../../flowstdlib/math/add/add.toml" xlink:title="work&#45;counter\n(Add)">
<ellipse fill="coral" stroke="black" cx="619.76" cy="-257.46" rx="64.78" ry="25.41"/>
<text text-anchor="middle" x="619.76" y="-260.26" font-family="Times,serif" font-size="14.00">work&#45;counter</text>
<text text-anchor="middle" x="619.76" y="-246.26" font-family="Times,serif" font-size="14.00">(Add)</text>
</a>
</g>
</g>
<!-- /tokenizer/Split&#45;&gt;/tokenizer/work&#45;counter -->
<g id="edge7" class="edge">
<title>/tokenizer/Split:s&#45;&gt;/tokenizer/work&#45;counter:ne</title>
<path fill="none" stroke="black" d="M348.76,-332.91C348.76,-318.33 584.67,-299.56 634.8,-287.23"/>
<polygon fill="black" stroke="black" points="636.58,-290.25 643.76,-282.46 633.29,-284.07 636.58,-290.25"/>
<text text-anchor="middle" x="482.49" y="-309.21" font-family="Times,serif" font-size="14.00">delta</text>
<text text-anchor="middle" x="638.31" y="-285.26" font-family="Times,serif" font-size="14.00">i1</text>
</g>
<!-- /tokenizer/token&#45;counter -->
<g id="node6" class="node">
<title>/tokenizer/token&#45;counter</title>
<g id="a_node6"><a xlink:href="../../flowstdlib/math/add/add.toml" xlink:title="token&#45;counter\n(Add)">
<ellipse fill="coral" stroke="black" cx="206.76" cy="-257.46" rx="66.08" ry="25.41"/>
<text text-anchor="middle" x="206.76" y="-260.26" font-family="Times,serif" font-size="14.00">token&#45;counter</text>
<text text-anchor="middle" x="206.76" y="-246.26" font-family="Times,serif" font-size="14.00">(Add)</text>
</a>
</g>
</g>
<!-- /tokenizer/Split&#45;&gt;/tokenizer/token&#45;counter -->
<g id="edge9" class="edge">
<title>/tokenizer/Split:s&#45;&gt;/tokenizer/token&#45;counter:ne</title>
<path fill="none" stroke="black" d="M348.76,-332.91C348.76,-279.33 280.21,-317.49 238.47,-288.86"/>
<polygon fill="black" stroke="black" points="240.69,-286.16 230.76,-282.46 236.21,-291.54 240.69,-286.16"/>
<text text-anchor="middle" x="256.57" y="-304.02" font-family="Times,serif" font-size="14.00">token&#45;count</text>
<text text-anchor="middle" x="225.31" y="-285.26" font-family="Times,serif" font-size="14.00">i1</text>
</g>
<!-- initializer/tokenizer/Split_1 -->
<!-- initializer/tokenizer/Split_1&#45;&gt;/tokenizer/Split -->
<g id="edge1" class="edge">
<title>initializer/tokenizer/Split_1&#45;&gt;/tokenizer/Split:w</title>
<path fill="none" stroke="blue" d="M363.11,-419.12C338.13,-398.02 300.61,-363.4 310.77,-353.58"/>
<polygon fill="blue" stroke="blue" points="312,-356.87 320.76,-350.91 310.19,-350.11 312,-356.87"/>
<text text-anchor="middle" x="348.22" y="-389.71" font-family="Times,serif" font-size="14.00">&quot; &quot;</text>
</g>
<!-- /tokenizer/work&#45;counter&#45;&gt;/tokenizer/work&#45;counter -->
<g id="edge8" class="edge">
<title>/tokenizer/work&#45;counter:sw&#45;&gt;/tokenizer/work&#45;counter:w</title>
<path fill="none" stroke="black" d="M595.76,-233.46C568.21,-220.96 537.12,-220.96 537.12,-245.46 537.12,-262.3 542.79,-267.56 548.17,-265.15"/>
<polygon fill="black" stroke="black" points="550.91,-267.33 554.76,-257.46 545.59,-262.77 550.91,-267.33"/>
<text text-anchor="middle" x="568.12" y="-216.54" font-family="Times,serif" font-size="14.00">sum</text>
<text text-anchor="middle" x="549.31" y="-260.26" font-family="Times,serif" font-size="14.00">i2</text>
</g>
<!-- /tokenizer/Compare -->
<g id="node9" class="node">
<title>/tokenizer/Compare</title>
<g id="a_node9"><a xlink:href="../../flowstdlib/math/compare/compare.toml" xlink:title="Compare">
<ellipse fill="coral" stroke="black" cx="396.76" cy="-164" rx="42.55" ry="18"/>
<text text-anchor="middle" x="396.76" y="-159.8" font-family="Times,serif" font-size="14.00">Compare</text>
</a>
</g>
</g>
<!-- /tokenizer/work&#45;counter&#45;&gt;/tokenizer/Compare -->
<g id="edge12" class="edge">
<title>/tokenizer/work&#45;counter:sw&#45;&gt;/tokenizer/Compare:ne</title>
<path fill="none" stroke="black" d="M595.76,-232.46C538.95,-175.65 478.54,-235.72 421.43,-188.96"/>
<polygon fill="black" stroke="black" points="423.51,-186.13 413.76,-182 418.81,-191.31 423.51,-186.13"/>
<text text-anchor="middle" x="492.91" y="-210.04" font-family="Times,serif" font-size="14.00">sum</text>
<text text-anchor="middle" x="400.54" y="-184.8" font-family="Times,serif" font-size="14.00">right</text>
</g>
<!-- initializer/tokenizer/work&#45;counter_1 -->
<!-- initializer/tokenizer/work&#45;counter_1&#45;&gt;/tokenizer/work&#45;counter -->
<g id="edge2" class="edge">
<title>initializer/tokenizer/work&#45;counter_1&#45;&gt;/tokenizer/work&#45;counter:w</title>
<path fill="none" stroke="blue" stroke-dasharray="1,5" d="M552.86,-332.52C550.9,-313.06 548.34,-282.25 549.94,-266.86"/>
<polygon fill="blue" stroke="blue" points="553.24,-268.04 553.76,-257.46 546.75,-265.4 553.24,-268.04"/>
<text text-anchor="middle" x="554.26" y="-303.71" font-family="Times,serif" font-size="14.00">1</text>
</g>
<!-- /tokenizer/token&#45;counter&#45;&gt;/tokenizer/token&#45;counter -->
<g id="edge10" class="edge">
<title>/tokenizer/token&#45;counter:sw&#45;&gt;/tokenizer/token&#45;counter:w</title>
<path fill="none" stroke="black" d="M182.76,-233.46C154.66,-220.96 122.47,-220.96 122.47,-245.46 122.47,-261.92 127.89,-267.32 133.05,-265.3"/>
<polygon fill="black" stroke="black" points="135.91,-267.33 139.76,-257.46 130.6,-262.78 135.91,-267.33"/>
<text text-anchor="middle" x="154.43" y="-216.45" font-family="Times,serif" font-size="14.00">sum</text>
<text text-anchor="middle" x="134.31" y="-260.26" font-family="Times,serif" font-size="14.00">i2</text>
</g>
<!-- /tokenizer/Tap -->
<g id="node8" class="node">
<title>/tokenizer/Tap</title>
<g id="a_node8"><a xlink:href="../../flowstdlib/control/tap/tap.toml" xlink:title="Tap">
<ellipse fill="coral" stroke="black" cx="281.76" cy="-91" rx="27" ry="18"/>
<text text-anchor="middle" x="281.76" y="-86.8" font-family="Times,serif" font-size="14.00">Tap</text>
</a>
</g>
</g>
<!-- /tokenizer/token&#45;counter&#45;&gt;/tokenizer/Tap -->
<g id="edge11" class="edge">
<title>/tokenizer/token&#45;counter:sw&#45;&gt;/tokenizer/Tap:nw</title>
<path fill="none" stroke="black" d="M182.76,-232.46C137.72,-187.42 211.12,-157.6 259.27,-114.1"/>
<polygon fill="black" stroke="black" points="261.91,-116.42 266.76,-107 257.09,-111.34 261.91,-116.42"/>
<text text-anchor="middle" x="199.15" y="-154.77" font-family="Times,serif" font-size="14.00">sum</text>
<text text-anchor="middle" x="255.1" y="-109.8" font-family="Times,serif" font-size="14.00">data</text>
</g>
<!-- initializer/tokenizer/token&#45;counter_1 -->
<!-- initializer/tokenizer/token&#45;counter_1&#45;&gt;/tokenizer/token&#45;counter -->
<g id="edge3" class="edge">
<title>initializer/tokenizer/token&#45;counter_1&#45;&gt;/tokenizer/token&#45;counter:w</title>
<path fill="none" stroke="blue" stroke-dasharray="1,5" d="M132.72,-332.52C124.2,-309.51 112.85,-270.61 128.68,-260.13"/>
<polygon fill="blue" stroke="blue" points="129.99,-263.4 138.76,-257.46 128.19,-256.63 129.99,-263.4"/>
<text text-anchor="middle" x="131.26" y="-303.71" font-family="Times,serif" font-size="14.00">0</text>
</g>
<!-- /tokenizer/Stdout -->
<g id="node11" class="node">
<title>/tokenizer/Stdout</title>
<g id="a_node11"><a xlink:href="../../flowruntime/stdio/stdout.toml" xlink:title="Stdout">
<ellipse fill="coral" stroke="black" cx="342.76" cy="-18" rx="33.41" ry="18"/>
<text text-anchor="middle" x="342.76" y="-13.8" font-family="Times,serif" font-size="14.00">Stdout</text>
</a>
</g>
</g>
<!-- /tokenizer/Tap&#45;&gt;/tokenizer/Stdout -->
<g id="edge14" class="edge">
<title>/tokenizer/Tap:e&#45;&gt;/tokenizer/Stdout:w</title>
<path fill="none" stroke="black" d="M309.76,-91C336.89,-91 294.58,-39.99 298.93,-23.25"/>
<polygon fill="black" stroke="black" points="300.95,-26.12 307.76,-18 297.37,-20.1 300.95,-26.12"/>
</g>
<!-- /tokenizer/Compare&#45;&gt;/tokenizer/Tap -->
<g id="edge13" class="edge">
<title>/tokenizer/Compare:e&#45;&gt;/tokenizer/Tap:nw</title>
<path fill="none" stroke="black" d="M440.76,-164C448.77,-164 444.93,-152.12 439.76,-146 418.28,-120.62 290.05,-130.14 267.24,-117"/>
<polygon fill="black" stroke="black" points="270.73,-116.82 266.76,-107 263.74,-117.16 270.73,-116.82"/>
<text text-anchor="middle" x="339.28" y="-129.74" font-family="Times,serif" font-size="14.00">equal</text>
<text text-anchor="middle" x="286.59" y="-109.8" font-family="Times,serif" font-size="14.00">control</text>
</g>
<!-- initializer/tokenizer/Compare_0 -->
<!-- initializer/tokenizer/Compare_0&#45;&gt;/tokenizer/Compare -->
<g id="edge4" class="edge">
<title>initializer/tokenizer/Compare_0&#45;&gt;/tokenizer/Compare:ne</title>
<path fill="none" stroke="blue" d="M419.84,-239.39C423.85,-225.3 427.14,-205.28 419.79,-190.46"/>
<polygon fill="blue" stroke="blue" points="422.42,-188.11 413.76,-182 416.72,-192.17 422.42,-188.11"/>
<text text-anchor="middle" x="427.26" y="-202.8" font-family="Times,serif" font-size="14.00">0</text>
</g>
</g>
</svg>
