<?xml version="1.0" encoding="UTF-8" standalone="no"?>
<!DOCTYPE svg PUBLIC "-//W3C//DTD SVG 1.1//EN"
 "http://www.w3.org/Graphics/SVG/1.1/DTD/svg11.dtd">
<!-- Generated by graphviz version 2.44.0 (20200408.0750)
 -->
<!-- Title: tokenizer Pages: 1 -->
<svg width="756pt" height="549pt"
 viewBox="28.80 28.80 727.33 520.54" xmlns="http://www.w3.org/2000/svg" xmlns:xlink="http://www.w3.org/1999/xlink">
<g id="graph0" class="graph" transform="scale(1 1) rotate(0) translate(32.8 516.54)">
<title>tokenizer</title>
<polygon fill="white" stroke="transparent" points="-4,4 -4,-487.74 694.53,-487.74 694.53,4 -4,4"/>
<text text-anchor="middle" x="345.26" y="-468.54" font-family="Times,serif" font-size="14.00">tokenizer</text>
<!-- /tokenizer/Readline -->
<g id="node1" class="node">
<title>/tokenizer/Readline</title>
<g id="a_node1"><a xlink:href="../../flowruntime/stdio/readline.toml" xlink:title="Readline">
<ellipse fill="coral" stroke="black" cx="214.74" cy="-442.74" rx="42.49" ry="18"/>
<text text-anchor="middle" x="214.74" y="-439.04" font-family="Times,serif" font-size="14.00">Readline</text>
</a>
</g>
</g>
<!-- /tokenizer/Split -->
<g id="node2" class="node">
<title>/tokenizer/Split</title>
<g id="a_node2"><a xlink:href="../../flowstdlib/data/split/split.toml" xlink:title="Split">
<ellipse fill="coral" stroke="black" cx="347.74" cy="-355.74" rx="27.1" ry="18"/>
<text text-anchor="middle" x="347.74" y="-352.04" font-family="Times,serif" font-size="14.00">Split</text>
</a>
</g>
</g>
<!-- /tokenizer/Readline&#45;&gt;/tokenizer/Split -->
<g id="edge5" class="edge">
<title>/tokenizer/Readline:e&#45;&gt;/tokenizer/Split:w</title>
<path fill="none" stroke="black" d="M258.74,-442.74C267.32,-442.74 261.53,-432.22 265.74,-424.74 273.67,-410.66 291.87,-371.9 308.92,-359.57"/>
<polygon fill="black" stroke="black" points="310.69,-362.63 318.74,-355.74 308.15,-356.11 310.69,-362.63"/>
<text text-anchor="middle" x="303.24" y="-359.54" font-family="Times,serif" font-size="14.00">string</text>
</g>
<!-- /tokenizer/Split&#45;&gt;/tokenizer/Split -->
<g id="edge6" class="edge">
<title>/tokenizer/Split:s&#45;&gt;/tokenizer/Split:w</title>
<path fill="none" stroke="black" d="M347.74,-337.74C332.64,-327.24 302.44,-327.24 302.44,-346.74 302.44,-359.23 307.36,-363.72 312.3,-362.57"/>
<polygon fill="black" stroke="black" points="314.74,-365.08 319.74,-355.74 310.01,-359.93 314.74,-365.08"/>
<text text-anchor="middle" x="320.9" y="-321.95" font-family="Times,serif" font-size="14.00">partial</text>
<text text-anchor="middle" x="304.24" y="-344.54" font-family="Times,serif" font-size="14.00">string</text>
</g>
<!-- /tokenizer/work&#45;counter -->
<g id="node4" class="node">
<title>/tokenizer/work&#45;counter</title>
<g id="a_node4"><a xlink:href="../../flowstdlib/math/add/add.toml" xlink:title="work&#45;counter\n(Add)">
<ellipse fill="coral" stroke="black" cx="615.74" cy="-259.87" rx="62.87" ry="26.74"/>
<text text-anchor="middle" x="615.74" y="-263.67" font-family="Times,serif" font-size="14.00">work&#45;counter</text>
<text text-anchor="middle" x="615.74" y="-248.67" font-family="Times,serif" font-size="14.00">(Add)</text>
</a>
</g>
</g>
<!-- /tokenizer/Split&#45;&gt;/tokenizer/work&#45;counter -->
<g id="edge7" class="edge">
<title>/tokenizer/Split:s&#45;&gt;/tokenizer/work&#45;counter:ne</title>
<path fill="none" stroke="black" d="M347.74,-337.74C347.74,-323.24 582.06,-303.27 631.84,-290.69"/>
<polygon fill="black" stroke="black" points="633.61,-293.71 640.74,-285.87 630.28,-287.56 633.61,-293.71"/>
<text text-anchor="middle" x="480.57" y="-314.36" font-family="Times,serif" font-size="14.00">delta</text>
<text text-anchor="middle" x="635.24" y="-289.67" font-family="Times,serif" font-size="14.00">i1</text>
</g>
<!-- /tokenizer/token&#45;counter -->
<g id="node6" class="node">
<title>/tokenizer/token&#45;counter</title>
<g id="a_node6"><a xlink:href="../../flowstdlib/math/add/add.toml" xlink:title="token&#45;counter\n(Add)">
<ellipse fill="coral" stroke="black" cx="204.74" cy="-259.87" rx="65.11" ry="26.74"/>
<text text-anchor="middle" x="204.74" y="-263.67" font-family="Times,serif" font-size="14.00">token&#45;counter</text>
<text text-anchor="middle" x="204.74" y="-248.67" font-family="Times,serif" font-size="14.00">(Add)</text>
</a>
</g>
</g>
<!-- /tokenizer/Split&#45;&gt;/tokenizer/token&#45;counter -->
<g id="edge9" class="edge">
<title>/tokenizer/Split:s&#45;&gt;/tokenizer/token&#45;counter:ne</title>
<path fill="none" stroke="black" d="M347.74,-337.74C347.74,-283.92 279.35,-321.2 237.48,-292.32"/>
<polygon fill="black" stroke="black" points="239.66,-289.58 229.74,-285.87 235.18,-294.96 239.66,-289.58"/>
<text text-anchor="middle" x="256.56" y="-308.94" font-family="Times,serif" font-size="14.00">token&#45;count</text>
<text text-anchor="middle" x="224.24" y="-289.67" font-family="Times,serif" font-size="14.00">i1</text>
</g>
<!-- initializer/tokenizer/Split_1 -->
<!-- initializer/tokenizer/Split_1&#45;&gt;/tokenizer/Split -->
<g id="edge1" class="edge">
<title>initializer/tokenizer/Split_1&#45;&gt;/tokenizer/Split:w</title>
<path fill="none" stroke="blue" d="M361.03,-424.75C335.75,-403.21 297.67,-367.73 308.96,-358.17"/>
<polygon fill="blue" stroke="blue" points="309.88,-361.55 318.74,-355.74 308.19,-354.76 309.88,-361.55"/>
<text text-anchor="middle" x="348.74" y="-395.54" font-family="Times,serif" font-size="14.00">&quot; &quot;</text>
</g>
<!-- /tokenizer/work&#45;counter&#45;&gt;/tokenizer/work&#45;counter -->
<g id="edge8" class="edge">
<title>/tokenizer/work&#45;counter:sw&#45;&gt;/tokenizer/work&#45;counter:w</title>
<path fill="none" stroke="black" d="M590.74,-234.87C563.76,-221.87 534.81,-221.87 534.81,-247.37 534.81,-265.3 540.74,-270.62 546.32,-267.68"/>
<polygon fill="black" stroke="black" points="549.1,-269.82 552.74,-259.87 543.69,-265.38 549.1,-269.82"/>
<text text-anchor="middle" x="565.44" y="-218.38" font-family="Times,serif" font-size="14.00">sum</text>
<text text-anchor="middle" x="547.24" y="-263.67" font-family="Times,serif" font-size="14.00">i2</text>
</g>
<!-- /tokenizer/Compare -->
<g id="node9" class="node">
<title>/tokenizer/Compare</title>
<g id="a_node9"><a xlink:href="../../flowstdlib/math/compare/compare.toml" xlink:title="Compare">
<ellipse fill="coral" stroke="black" cx="394.74" cy="-164" rx="43.59" ry="18"/>
<text text-anchor="middle" x="394.74" y="-160.3" font-family="Times,serif" font-size="14.00">Compare</text>
</a>
</g>
</g>
<!-- /tokenizer/work&#45;counter&#45;&gt;/tokenizer/Compare -->
<g id="edge12" class="edge">
<title>/tokenizer/work&#45;counter:sw&#45;&gt;/tokenizer/Compare:ne</title>
<path fill="none" stroke="black" d="M590.74,-233.87C534.69,-177.82 475.62,-235.19 419.31,-188.88"/>
<polygon fill="black" stroke="black" points="421.49,-186.14 411.74,-182 416.78,-191.32 421.49,-186.14"/>
<text text-anchor="middle" x="489.07" y="-211.74" font-family="Times,serif" font-size="14.00">sum</text>
<text text-anchor="middle" x="398.74" y="-185.8" font-family="Times,serif" font-size="14.00">right</text>
</g>
<!-- initializer/tokenizer/work&#45;counter_1 -->
<!-- initializer/tokenizer/work&#45;counter_1&#45;&gt;/tokenizer/work&#45;counter -->
<g id="edge2" class="edge">
<title>initializer/tokenizer/work&#45;counter_1&#45;&gt;/tokenizer/work&#45;counter:w</title>
<path fill="none" stroke="blue" stroke-dasharray="1,5" d="M550.84,-337.34C548.81,-317.23 546.12,-284.87 547.86,-269.11"/>
<polygon fill="blue" stroke="blue" points="551.09,-270.45 551.74,-259.87 544.64,-267.74 551.09,-270.45"/>
<text text-anchor="middle" x="552.24" y="-308.54" font-family="Times,serif" font-size="14.00">1</text>
</g>
<!-- /tokenizer/token&#45;counter&#45;&gt;/tokenizer/token&#45;counter -->
<g id="edge10" class="edge">
<title>/tokenizer/token&#45;counter:sw&#45;&gt;/tokenizer/token&#45;counter:w</title>
<path fill="none" stroke="black" d="M179.74,-234.87C152.05,-221.87 121.68,-221.87 121.68,-247.37 121.68,-265.3 127.62,-270.62 133.24,-267.68"/>
<polygon fill="black" stroke="black" points="136.04,-269.8 139.74,-259.87 130.65,-265.32 136.04,-269.8"/>
<text text-anchor="middle" x="152.75" y="-217.99" font-family="Times,serif" font-size="14.00">sum</text>
<text text-anchor="middle" x="134.24" y="-263.67" font-family="Times,serif" font-size="14.00">i2</text>
</g>
<!-- /tokenizer/Tap -->
<g id="node8" class="node">
<title>/tokenizer/Tap</title>
<g id="a_node8"><a xlink:href="../../flowstdlib/control/tap/tap.toml" xlink:title="Tap">
<ellipse fill="coral" stroke="black" cx="278.74" cy="-91" rx="27" ry="18"/>
<text text-anchor="middle" x="278.74" y="-87.3" font-family="Times,serif" font-size="14.00">Tap</text>
</a>
</g>
</g>
<!-- /tokenizer/token&#45;counter&#45;&gt;/tokenizer/Tap -->
<g id="edge11" class="edge">
<title>/tokenizer/token&#45;counter:sw&#45;&gt;/tokenizer/Tap:nw</title>
<path fill="none" stroke="black" d="M179.74,-233.87C134.35,-188.48 207.73,-158.03 256.19,-114.16"/>
<polygon fill="black" stroke="black" points="258.9,-116.42 263.74,-107 254.08,-111.35 258.9,-116.42"/>
<text text-anchor="middle" x="195.55" y="-156.25" font-family="Times,serif" font-size="14.00">sum</text>
<text text-anchor="middle" x="252.24" y="-110.8" font-family="Times,serif" font-size="14.00">data</text>
</g>
<!-- initializer/tokenizer/token&#45;counter_1 -->
<!-- initializer/tokenizer/token&#45;counter_1&#45;&gt;/tokenizer/token&#45;counter -->
<g id="edge3" class="edge">
<title>initializer/tokenizer/token&#45;counter_1&#45;&gt;/tokenizer/token&#45;counter:w</title>
<path fill="none" stroke="blue" stroke-dasharray="1,5" d="M132.68,-337.34C123.86,-313.59 111.85,-272.77 128.8,-262.35"/>
<polygon fill="blue" stroke="blue" points="129.88,-265.69 138.74,-259.87 128.19,-258.9 129.88,-265.69"/>
<text text-anchor="middle" x="130.24" y="-308.54" font-family="Times,serif" font-size="14.00">0</text>
</g>
<!-- /tokenizer/Stdout -->
<g id="node11" class="node">
<title>/tokenizer/Stdout</title>
<g id="a_node11"><a xlink:href="../../flowruntime/stdio/stdout.toml" xlink:title="Stdout">
<ellipse fill="coral" stroke="black" cx="339.74" cy="-18" rx="33.6" ry="18"/>
<text text-anchor="middle" x="339.74" y="-14.3" font-family="Times,serif" font-size="14.00">Stdout</text>
</a>
</g>
</g>
<!-- /tokenizer/Tap&#45;&gt;/tokenizer/Stdout -->
<g id="edge14" class="edge">
<title>/tokenizer/Tap:e&#45;&gt;/tokenizer/Stdout:w</title>
<path fill="none" stroke="black" d="M306.74,-91C333.87,-91 291.56,-39.99 295.91,-23.25"/>
<polygon fill="black" stroke="black" points="297.93,-26.12 304.74,-18 294.35,-20.1 297.93,-26.12"/>
</g>
<!-- /tokenizer/Compare&#45;&gt;/tokenizer/Tap -->
<g id="edge13" class="edge">
<title>/tokenizer/Compare:e&#45;&gt;/tokenizer/Tap:nw</title>
<path fill="none" stroke="black" d="M439.74,-164C447.75,-164 443.92,-152.11 438.74,-146 416.99,-120.36 287.3,-130.28 264.23,-117.08"/>
<polygon fill="black" stroke="black" points="267.72,-116.82 263.74,-107 260.72,-117.16 267.72,-116.82"/>
<text text-anchor="middle" x="337.42" y="-130.71" font-family="Times,serif" font-size="14.00">equal</text>
<text text-anchor="middle" x="283.24" y="-110.8" font-family="Times,serif" font-size="14.00">control</text>
</g>
<!-- initializer/tokenizer/Compare_0 -->
<!-- initializer/tokenizer/Compare_0&#45;&gt;/tokenizer/Compare -->
<g id="edge4" class="edge">
<title>initializer/tokenizer/Compare_0&#45;&gt;/tokenizer/Compare:ne</title>
<path fill="none" stroke="blue" d="M417.92,-241.57C422.14,-226.89 425.67,-205.81 417.78,-190.36"/>
<polygon fill="blue" stroke="blue" points="420.43,-188.05 411.74,-182 414.76,-192.15 420.43,-188.05"/>
<text text-anchor="middle" x="425.24" y="-203.8" font-family="Times,serif" font-size="14.00">0</text>
</g>
</g>
</svg>
