<?xml version="1.0" encoding="UTF-8" standalone="no"?>
<!DOCTYPE svg PUBLIC "-//W3C//DTD SVG 1.1//EN"
 "http://www.w3.org/Graphics/SVG/1.1/DTD/svg11.dtd">
<!-- Generated by graphviz version 2.42.3 (20191010.1750)
 -->
<!-- Title: tokenizer Pages: 1 -->
<svg width="677pt" height="455pt"
 viewBox="28.80 28.80 647.74 425.80" xmlns="http://www.w3.org/2000/svg" xmlns:xlink="http://www.w3.org/1999/xlink">
<g id="graph0" class="graph" transform="scale(1 1) rotate(0) translate(32.8 421.8)">
<title>tokenizer</title>
<polygon fill="white" stroke="transparent" points="-4,4 -4,-393 614.94,-393 614.94,4 -4,4"/>
<text text-anchor="middle" x="305.47" y="-373.8" font-family="Times,serif" font-size="14.00">tokenizer</text>
<!-- /tokenizer/Readline -->
<g id="node1" class="node">
<title>/tokenizer/Readline</title>
<g id="a_node1"><a xlink:href="../../flowruntime/stdio/readline.toml" xlink:title="Readline">
<ellipse fill="coral" stroke="black" cx="124.88" cy="-349" rx="41.58" ry="18"/>
<text text-anchor="middle" x="124.88" y="-344.8" font-family="Times,serif" font-size="14.00">Readline</text>
</a>
</g>
</g>
<!-- /tokenizer/Split -->
<g id="node2" class="node">
<title>/tokenizer/Split</title>
<g id="a_node2"><a xlink:href="../../flowstdlib/data/split/split.toml" xlink:title="Split">
<ellipse fill="coral" stroke="black" cx="256.88" cy="-263" rx="27" ry="18"/>
<text text-anchor="middle" x="256.88" y="-258.8" font-family="Times,serif" font-size="14.00">Split</text>
</a>
</g>
</g>
<!-- /tokenizer/Readline&#45;&gt;/tokenizer/Split -->
<g id="edge5" class="edge">
<title>/tokenizer/Readline:e&#45;&gt;/tokenizer/Split:w</title>
<path fill="none" stroke="black" d="M167.88,-349C176.63,-349 171.11,-338.34 175.88,-331 192.15,-305.92 204.61,-306.08 220.88,-281 222.81,-278.02 223.05,-274.49 223.24,-271.35"/>
<polygon fill="black" stroke="black" points="226.18,-273.25 228.88,-263 220.38,-269.33 226.18,-273.25"/>
<text text-anchor="middle" x="212.93" y="-265.8" font-family="Times,serif" font-size="14.00">string</text>
</g>
<!-- /tokenizer/Split&#45;&gt;/tokenizer/Split -->
<g id="edge6" class="edge">
<title>/tokenizer/Split:s&#45;&gt;/tokenizer/Split:w</title>
<path fill="none" stroke="black" d="M256.88,-245C241.88,-234.5 211.88,-234.5 211.88,-254 211.88,-266.8 217.05,-271.2 222.29,-269.74"/>
<polygon fill="black" stroke="black" points="224.73,-272.26 229.88,-263 220.08,-267.03 224.73,-272.26"/>
<text text-anchor="middle" x="230.16" y="-229.36" font-family="Times,serif" font-size="14.00">partial</text>
<text text-anchor="middle" x="213.93" y="-251.8" font-family="Times,serif" font-size="14.00">string</text>
</g>
<!-- /tokenizer/Add -->
<g id="node4" class="node">
<title>/tokenizer/Add</title>
<g id="a_node4"><a xlink:href="../../flowstdlib/math/add/add.toml" xlink:title="Add">
<ellipse fill="coral" stroke="black" cx="219.88" cy="-177" rx="27" ry="18"/>
<text text-anchor="middle" x="219.88" y="-172.8" font-family="Times,serif" font-size="14.00">Add</text>
</a>
</g>
</g>
<!-- /tokenizer/Split&#45;&gt;/tokenizer/Add -->
<g id="edge7" class="edge">
<title>/tokenizer/Split:s&#45;&gt;/tokenizer/Add:ne</title>
<path fill="none" stroke="black" d="M256.88,-245C256.88,-223.63 253.79,-213.82 241.92,-200.41"/>
<polygon fill="black" stroke="black" points="244.3,-197.84 234.88,-193 239.23,-202.66 244.3,-197.84"/>
<text text-anchor="middle" x="266.02" y="-204.79" font-family="Times,serif" font-size="14.00">delta</text>
<text text-anchor="middle" x="229.43" y="-195.8" font-family="Times,serif" font-size="14.00">i1</text>
</g>
<!-- /tokenizer/Count -->
<g id="node6" class="node">
<title>/tokenizer/Count</title>
<g id="a_node6"><a xlink:href="../../flowstdlib/data/count/count.toml" xlink:title="Count">
<ellipse fill="coral" stroke="black" cx="296.88" cy="-177" rx="31.96" ry="18"/>
<text text-anchor="middle" x="296.88" y="-172.8" font-family="Times,serif" font-size="14.00">Count</text>
</a>
</g>
</g>
<!-- /tokenizer/Split&#45;&gt;/tokenizer/Count -->
<g id="edge9" class="edge">
<title>/tokenizer/Split:s&#45;&gt;/tokenizer/Count:nw</title>
<path fill="none" stroke="black" d="M256.88,-245C256.88,-235.12 266.31,-214.59 274.64,-202.02"/>
<polygon fill="black" stroke="black" points="277.5,-204.04 280.88,-194 271.97,-199.74 277.5,-204.04"/>
<text text-anchor="middle" x="281.27" y="-220.59" font-family="Times,serif" font-size="14.00">token</text>
<text text-anchor="middle" x="292.54" y="-196.8" font-family="Times,serif" font-size="14.00">data</text>
</g>
<!-- initializer/tokenizer/Split_1 -->
<!-- initializer/tokenizer/Split_1&#45;&gt;/tokenizer/Split -->
<g id="edge1" class="edge">
<title>initializer/tokenizer/Split_1&#45;&gt;/tokenizer/Split:w</title>
<path fill="none" stroke="blue" d="M269.95,-331.25C255.77,-319.03 238.42,-301.13 229.88,-281 228.8,-278.46 227.4,-275.54 226.35,-272.81"/>
<polygon fill="blue" stroke="blue" points="229.77,-273.56 228.88,-263 222.99,-271.81 229.77,-273.56"/>
<text text-anchor="middle" x="258.34" y="-301.8" font-family="Times,serif" font-size="14.00">&quot; &quot;</text>
</g>
<!-- /tokenizer/Add&#45;&gt;/tokenizer/Add -->
<g id="edge8" class="edge">
<title>/tokenizer/Add:sw&#45;&gt;/tokenizer/Add:w</title>
<path fill="none" stroke="black" d="M204.88,-162C189.88,-151.5 174.88,-151.5 174.88,-169.5 174.88,-181.31 180.05,-185.37 185.29,-183.8"/>
<polygon fill="black" stroke="black" points="187.77,-186.28 192.88,-177 183.1,-181.07 187.77,-186.28"/>
<text text-anchor="middle" x="192.51" y="-150.32" font-family="Times,serif" font-size="14.00">sum</text>
<text text-anchor="middle" x="187.43" y="-179.8" font-family="Times,serif" font-size="14.00">i2</text>
</g>
<!-- /tokenizer/Compare -->
<g id="node8" class="node">
<title>/tokenizer/Compare</title>
<g id="a_node8"><a xlink:href="../../flowstdlib/math/compare/compare.toml" xlink:title="Compare">
<ellipse fill="coral" stroke="black" cx="399.88" cy="-91" rx="42.55" ry="18"/>
<text text-anchor="middle" x="399.88" y="-86.8" font-family="Times,serif" font-size="14.00">Compare</text>
</a>
</g>
</g>
<!-- /tokenizer/Add&#45;&gt;/tokenizer/Compare -->
<g id="edge11" class="edge">
<title>/tokenizer/Add:sw&#45;&gt;/tokenizer/Compare:ne</title>
<path fill="none" stroke="black" d="M204.88,-161C139.23,-95.35 456.24,-170.56 423.47,-117.02"/>
<polygon fill="black" stroke="black" points="425.93,-114.5 416.88,-109 420.53,-118.95 425.93,-114.5"/>
<text text-anchor="middle" x="290.15" y="-137.27" font-family="Times,serif" font-size="14.00">sum</text>
<text text-anchor="middle" x="403.66" y="-111.8" font-family="Times,serif" font-size="14.00">right</text>
</g>
<!-- initializer/tokenizer/Add_1 -->
<!-- initializer/tokenizer/Add_1&#45;&gt;/tokenizer/Add -->
<g id="edge2" class="edge">
<title>initializer/tokenizer/Add_1&#45;&gt;/tokenizer/Add:w</title>
<path fill="none" stroke="blue" stroke-dasharray="1,5" d="M113.7,-244.8C125.19,-222.19 148.88,-184.57 181.85,-178"/>
<polygon fill="blue" stroke="blue" points="182.27,-181.47 191.88,-177 181.58,-174.51 182.27,-181.47"/>
<text text-anchor="middle" x="136.38" y="-215.8" font-family="Times,serif" font-size="14.00">1</text>
</g>
<!-- /tokenizer/Count&#45;&gt;/tokenizer/Count -->
<g id="edge10" class="edge">
<title>/tokenizer/Count:s&#45;&gt;/tokenizer/Count:n</title>
<path fill="none" stroke="black" d="M296.88,-159C313.45,-148.5 346.61,-148.5 346.61,-177 346.61,-200.82 323.44,-204.73 306.16,-199.24"/>
<polygon fill="black" stroke="black" points="307.43,-195.97 296.88,-195 304.52,-202.34 307.43,-195.97"/>
<text text-anchor="middle" x="312.44" y="-147.79" font-family="Times,serif" font-size="14.00">count</text>
<text text-anchor="middle" x="312.43" y="-197.8" font-family="Times,serif" font-size="14.00">count</text>
</g>
<!-- initializer/tokenizer/Count_1 -->
<!-- initializer/tokenizer/Count_1&#45;&gt;/tokenizer/Count -->
<g id="edge3" class="edge">
<title>initializer/tokenizer/Count_1&#45;&gt;/tokenizer/Count:n</title>
<path fill="none" stroke="blue" stroke-dasharray="1,5" d="M347.86,-248.41C324.74,-239.98 303.21,-226.49 298.05,-205.05"/>
<polygon fill="blue" stroke="blue" points="301.51,-204.53 296.88,-195 294.56,-205.34 301.51,-204.53"/>
<text text-anchor="middle" x="312.38" y="-215.8" font-family="Times,serif" font-size="14.00">0</text>
</g>
<!-- /tokenizer/Stdout -->
<g id="node10" class="node">
<title>/tokenizer/Stdout</title>
<g id="a_node10"><a xlink:href="../../flowruntime/stdio/stdout.toml" xlink:title="Stdout">
<ellipse fill="coral" stroke="black" cx="476.88" cy="-18" rx="33.41" ry="18"/>
<text text-anchor="middle" x="476.88" y="-13.8" font-family="Times,serif" font-size="14.00">Stdout</text>
</a>
</g>
</g>
<!-- /tokenizer/Compare&#45;&gt;/tokenizer/Stdout -->
<g id="edge12" class="edge">
<title>/tokenizer/Compare:e&#45;&gt;/tokenizer/Stdout:w</title>
<path fill="none" stroke="black" d="M443.88,-91C471.01,-91 428.7,-39.99 433.05,-23.25"/>
<polygon fill="black" stroke="black" points="435.07,-26.12 441.88,-18 431.49,-20.1 435.07,-26.12"/>
<text text-anchor="middle" x="427.74" y="-57.34" font-family="Times,serif" font-size="14.00">equal</text>
</g>
<!-- initializer/tokenizer/Compare_0 -->
<!-- initializer/tokenizer/Compare_0&#45;&gt;/tokenizer/Compare -->
<g id="edge4" class="edge">
<title>initializer/tokenizer/Compare_0&#45;&gt;/tokenizer/Compare:ne</title>
<path fill="none" stroke="blue" d="M469.21,-158.94C456.76,-147.44 439.89,-131.66 424.37,-116.42"/>
<polygon fill="blue" stroke="blue" points="426.45,-113.55 416.88,-109 421.52,-118.52 426.45,-113.55"/>
<text text-anchor="middle" x="452.38" y="-129.8" font-family="Times,serif" font-size="14.00">0</text>
</g>
</g>
</svg>
