<?xml version="1.0" encoding="UTF-8" standalone="no"?>
<!DOCTYPE svg PUBLIC "-//W3C//DTD SVG 1.1//EN"
 "http://www.w3.org/Graphics/SVG/1.1/DTD/svg11.dtd">
<!-- Generated by graphviz version 2.43.0 (0)
 -->
<!-- Title: tokenizer Pages: 1 -->
<svg width="929pt" height="549pt"
 viewBox="28.80 28.80 900.67 520.54" xmlns="http://www.w3.org/2000/svg" xmlns:xlink="http://www.w3.org/1999/xlink">
<g id="graph0" class="graph" transform="scale(1 1) rotate(0) translate(32.8 516.54)">
<title>tokenizer</title>
<polygon fill="white" stroke="transparent" points="-4,4 -4,-487.74 867.87,-487.74 867.87,4 -4,4"/>
<text text-anchor="middle" x="431.93" y="-468.54" font-family="Times,serif" font-size="14.00">tokenizer</text>
<!-- /tokenizer/readline -->
<g id="node1" class="node">
<title>/tokenizer/readline</title>
<g id="a_node1"><a xlink:href="../../flowr/src/lib/flowruntime/stdio/readline.html" xlink:title="readline">
<ellipse fill="coral" stroke="black" cx="277.73" cy="-442.74" rx="48.99" ry="18"/>
<text text-anchor="middle" x="277.73" y="-439.04" font-family="Times,serif" font-size="14.00">readline</text>
</a>
</g>
</g>
<!-- /tokenizer/split -->
<g id="node2" class="node">
<title>/tokenizer/split</title>
<g id="a_node2"><a xlink:href="../../flowstdlib/data/split/split.html" xlink:title="split">
<ellipse fill="coral" stroke="black" cx="434.73" cy="-355.74" rx="31.4" ry="18"/>
<text text-anchor="middle" x="434.73" y="-352.04" font-family="Times,serif" font-size="14.00">split</text>
</a>
</g>
</g>
<!-- /tokenizer/readline&#45;&gt;/tokenizer/split -->
<g id="edge5" class="edge">
<title>/tokenizer/readline:e&#45;&gt;/tokenizer/split:w</title>
<path fill="none" stroke="black" d="M327.73,-442.74C336.49,-442.74 330.83,-431.99 335.73,-424.74 346.02,-409.52 372.32,-369.5 393.08,-358.55"/>
<polygon fill="black" stroke="black" points="394.11,-361.89 402.73,-355.74 392.15,-355.17 394.11,-361.89"/>
<text text-anchor="middle" x="336.32" y="-397.28" font-family="Times,serif" font-size="14.00">string</text>
<text text-anchor="middle" x="381.23" y="-359.54" font-family="Times,serif" font-size="14.00">string</text>
</g>
<!-- /tokenizer/split&#45;&gt;/tokenizer/split -->
<g id="edge6" class="edge">
<title>/tokenizer/split:s&#45;&gt;/tokenizer/split:w</title>
<path fill="none" stroke="black" d="M434.73,-337.74C418.34,-327.24 385.54,-327.24 385.54,-346.74 385.54,-359.54 390.7,-363.94 396.01,-362.48"/>
<polygon fill="black" stroke="black" points="398.5,-364.95 403.73,-355.74 393.9,-359.68 398.5,-364.95"/>
<text text-anchor="middle" x="399.12" y="-321.52" font-family="Times,serif" font-size="14.00">partial</text>
<text text-anchor="middle" x="382.23" y="-344.54" font-family="Times,serif" font-size="14.00">string</text>
</g>
<!-- /tokenizer/work&#45;counter -->
<g id="node4" class="node">
<title>/tokenizer/work&#45;counter</title>
<g id="a_node4"><a xlink:href="../../flowstdlib/math/add/add.html" xlink:title="work&#45;counter\n(add)">
<ellipse fill="coral" stroke="black" cx="766.73" cy="-259.87" rx="78.48" ry="26.74"/>
<text text-anchor="middle" x="766.73" y="-263.67" font-family="Times,serif" font-size="14.00">work&#45;counter</text>
<text text-anchor="middle" x="766.73" y="-248.67" font-family="Times,serif" font-size="14.00">(add)</text>
</a>
</g>
</g>
<!-- /tokenizer/split&#45;&gt;/tokenizer/work&#45;counter -->
<g id="edge7" class="edge">
<title>/tokenizer/split:s&#45;&gt;/tokenizer/work&#45;counter:ne</title>
<path fill="none" stroke="black" d="M434.73,-337.74C434.73,-319.97 726.58,-304.07 782.82,-290.82"/>
<polygon fill="black" stroke="black" points="784.69,-293.78 791.73,-285.87 781.29,-287.66 784.69,-293.78"/>
<text text-anchor="middle" x="594.65" y="-313.92" font-family="Times,serif" font-size="14.00">delta</text>
<text text-anchor="middle" x="784.73" y="-289.67" font-family="Times,serif" font-size="14.00">i1</text>
</g>
<!-- /tokenizer/token&#45;counter -->
<g id="node6" class="node">
<title>/tokenizer/token&#45;counter</title>
<g id="a_node6"><a xlink:href="../../flowstdlib/math/add/add.html" xlink:title="token&#45;counter\n(add)">
<ellipse fill="coral" stroke="black" cx="260.73" cy="-259.87" rx="82.05" ry="26.74"/>
<text text-anchor="middle" x="260.73" y="-263.67" font-family="Times,serif" font-size="14.00">token&#45;counter</text>
<text text-anchor="middle" x="260.73" y="-248.67" font-family="Times,serif" font-size="14.00">(add)</text>
</a>
</g>
</g>
<!-- /tokenizer/split&#45;&gt;/tokenizer/token&#45;counter -->
<g id="edge9" class="edge">
<title>/tokenizer/split:s&#45;&gt;/tokenizer/token&#45;counter:ne</title>
<path fill="none" stroke="black" d="M434.73,-337.74C434.73,-271.7 345.71,-329.41 294.59,-293.36"/>
<polygon fill="black" stroke="black" points="296.64,-290.51 286.73,-286.74 292.13,-295.86 296.64,-290.51"/>
<text text-anchor="middle" x="318.17" y="-309.67" font-family="Times,serif" font-size="14.00">token&#45;count</text>
<text text-anchor="middle" x="279.73" y="-290.54" font-family="Times,serif" font-size="14.00">i1</text>
</g>
<!-- initializer/tokenizer/split_1 -->
<!-- initializer/tokenizer/split_1&#45;&gt;/tokenizer/split -->
<g id="edge1" class="edge">
<title>initializer/tokenizer/split_1&#45;&gt;/tokenizer/split:w</title>
<path fill="none" stroke="blue" d="M455.86,-424.95C426.03,-403.25 380.33,-367.14 392.7,-357.93"/>
<polygon fill="blue" stroke="blue" points="393.71,-361.29 402.73,-355.74 392.22,-354.45 393.71,-361.29"/>
<text text-anchor="middle" x="441.23" y="-395.54" font-family="Times,serif" font-size="14.00">&quot; &quot;</text>
</g>
<!-- /tokenizer/work&#45;counter&#45;&gt;/tokenizer/work&#45;counter -->
<g id="edge8" class="edge">
<title>/tokenizer/work&#45;counter:e&#45;&gt;/tokenizer/work&#45;counter:w</title>
<path fill="none" stroke="black" d="M845.73,-259.87C863.22,-277.49 863.22,-312.74 766.73,-312.74 683.44,-312.74 672.05,-286.47 681.74,-267.95"/>
<polygon fill="black" stroke="black" points="684.59,-269.99 687.73,-259.87 678.97,-265.82 684.59,-269.99"/>
<text text-anchor="middle" x="680.73" y="-263.67" font-family="Times,serif" font-size="14.00">i2</text>
</g>
<!-- /tokenizer/compare -->
<g id="node9" class="node">
<title>/tokenizer/compare</title>
<g id="a_node9"><a xlink:href="../../flowstdlib/math/compare/compare.html" xlink:title="compare">
<ellipse fill="coral" stroke="black" cx="498.73" cy="-164" rx="50.89" ry="18"/>
<text text-anchor="middle" x="498.73" y="-160.3" font-family="Times,serif" font-size="14.00">compare</text>
</a>
</g>
</g>
<!-- /tokenizer/work&#45;counter&#45;&gt;/tokenizer/compare -->
<g id="edge12" class="edge">
<title>/tokenizer/work&#45;counter:e&#45;&gt;/tokenizer/compare:ne</title>
<path fill="none" stroke="black" d="M846.73,-259.87C858.68,-259.87 853.68,-241.93 845.73,-233 798.61,-180.06 588.35,-229.58 523.84,-188.43"/>
<polygon fill="black" stroke="black" points="525.74,-185.47 515.73,-182 521.39,-190.96 525.74,-185.47"/>
<text text-anchor="middle" x="497.73" y="-185.8" font-family="Times,serif" font-size="14.00">right</text>
</g>
<!-- initializer/tokenizer/work&#45;counter_1 -->
<!-- initializer/tokenizer/work&#45;counter_1&#45;&gt;/tokenizer/work&#45;counter -->
<g id="edge2" class="edge">
<title>initializer/tokenizer/work&#45;counter_1&#45;&gt;/tokenizer/work&#45;counter:w</title>
<path fill="none" stroke="blue" stroke-dasharray="1,5" d="M685.83,-337.34C683.81,-317.23 681.11,-284.87 682.86,-269.11"/>
<polygon fill="blue" stroke="blue" points="686.09,-270.45 686.73,-259.87 679.64,-267.74 686.09,-270.45"/>
<text text-anchor="middle" x="688.73" y="-308.54" font-family="Times,serif" font-size="14.00">1</text>
</g>
<!-- /tokenizer/token&#45;counter&#45;&gt;/tokenizer/token&#45;counter -->
<g id="edge10" class="edge">
<title>/tokenizer/token&#45;counter:e&#45;&gt;/tokenizer/token&#45;counter:w</title>
<path fill="none" stroke="black" d="M342.73,-259.87C360.76,-277.49 360.76,-312.74 260.73,-312.74 174.38,-312.74 162.58,-286.47 172.56,-267.95"/>
<polygon fill="black" stroke="black" points="175.45,-269.94 178.73,-259.87 169.88,-265.69 175.45,-269.94"/>
<text text-anchor="middle" x="171.73" y="-263.67" font-family="Times,serif" font-size="14.00">i2</text>
</g>
<!-- /tokenizer/tap -->
<g id="node8" class="node">
<title>/tokenizer/tap</title>
<g id="a_node8"><a xlink:href="../../flowstdlib/control/tap/tap.html" xlink:title="tap">
<ellipse fill="coral" stroke="black" cx="408.73" cy="-91" rx="27" ry="18"/>
<text text-anchor="middle" x="408.73" y="-87.3" font-family="Times,serif" font-size="14.00">tap</text>
</a>
</g>
</g>
<!-- /tokenizer/token&#45;counter&#45;&gt;/tokenizer/tap -->
<g id="edge11" class="edge">
<title>/tokenizer/token&#45;counter:e&#45;&gt;/tokenizer/tap:nw</title>
<path fill="none" stroke="black" d="M343.73,-259.87C356.19,-259.87 347.99,-244.88 351.73,-233 368.38,-180.22 354.04,-152.35 386.58,-114.68"/>
<polygon fill="black" stroke="black" points="389.48,-116.7 393.73,-107 384.36,-111.93 389.48,-116.7"/>
<text text-anchor="middle" x="377.73" y="-110.8" font-family="Times,serif" font-size="14.00">data</text>
</g>
<!-- initializer/tokenizer/token&#45;counter_1 -->
<!-- initializer/tokenizer/token&#45;counter_1&#45;&gt;/tokenizer/token&#45;counter -->
<g id="edge3" class="edge">
<title>initializer/tokenizer/token&#45;counter_1&#45;&gt;/tokenizer/token&#45;counter:w</title>
<path fill="none" stroke="blue" stroke-dasharray="1,5" d="M171.68,-337.34C162.86,-313.59 150.85,-272.77 167.8,-262.35"/>
<polygon fill="blue" stroke="blue" points="168.88,-265.69 177.73,-259.87 167.18,-258.9 168.88,-265.69"/>
<text text-anchor="middle" x="170.73" y="-308.54" font-family="Times,serif" font-size="14.00">0</text>
</g>
<!-- /tokenizer/stdout -->
<g id="node11" class="node">
<title>/tokenizer/stdout</title>
<g id="a_node11"><a xlink:href="../../flowr/src/lib/flowruntime/stdio/stdout.html" xlink:title="stdout">
<ellipse fill="coral" stroke="black" cx="476.73" cy="-18" rx="40.09" ry="18"/>
<text text-anchor="middle" x="476.73" y="-14.3" font-family="Times,serif" font-size="14.00">stdout</text>
</a>
</g>
</g>
<!-- /tokenizer/tap&#45;&gt;/tokenizer/stdout -->
<g id="edge14" class="edge">
<title>/tokenizer/tap:e&#45;&gt;/tokenizer/stdout:w</title>
<path fill="none" stroke="black" d="M436.73,-91C463.87,-91 421.56,-39.99 425.91,-23.25"/>
<polygon fill="black" stroke="black" points="427.93,-26.12 434.73,-18 424.35,-20.1 427.93,-26.12"/>
</g>
<!-- /tokenizer/compare&#45;&gt;/tokenizer/tap -->
<g id="edge13" class="edge">
<title>/tokenizer/compare:e&#45;&gt;/tokenizer/tap:nw</title>
<path fill="none" stroke="black" d="M550.73,-164C558.75,-164 554.84,-152.18 549.73,-146 530.88,-123.19 418.94,-128.74 395.37,-116.97"/>
<polygon fill="black" stroke="black" points="398.81,-116.3 393.73,-107 391.9,-117.43 398.81,-116.3"/>
<text text-anchor="middle" x="454.42" y="-131.15" font-family="Times,serif" font-size="14.00">equal</text>
<text text-anchor="middle" x="419.23" y="-110.8" font-family="Times,serif" font-size="14.00">control</text>
</g>
<!-- initializer/tokenizer/compare_0 -->
<!-- initializer/tokenizer/compare_0&#45;&gt;/tokenizer/compare -->
<g id="edge4" class="edge">
<title>initializer/tokenizer/compare_0&#45;&gt;/tokenizer/compare:ne</title>
<path fill="none" stroke="blue" d="M521.92,-241.57C526.13,-226.89 529.66,-205.81 521.78,-190.36"/>
<polygon fill="blue" stroke="blue" points="524.43,-188.05 515.73,-182 518.76,-192.15 524.43,-188.05"/>
<text text-anchor="middle" x="530.73" y="-203.8" font-family="Times,serif" font-size="14.00">0</text>
</g>
</g>
</svg>
