<?xml version="1.0" encoding="UTF-8" standalone="no"?>
<!DOCTYPE svg PUBLIC "-//W3C//DTD SVG 1.1//EN"
 "http://www.w3.org/Graphics/SVG/1.1/DTD/svg11.dtd">
<!-- Generated by graphviz version 2.40.1 (0)
 -->
<!-- Title: tokenizer Pages: 1 -->
<svg width="387pt" height="227pt"
 viewBox="0.00 0.00 387.29 227.00" xmlns="http://www.w3.org/2000/svg" xmlns:xlink="http://www.w3.org/1999/xlink">
<g id="graph0" class="graph" transform="scale(1 1) rotate(0) translate(4 223)">
<title>tokenizer</title>
<polygon fill="#ffffff" stroke="transparent" points="-4,4 -4,-223 383.2884,-223 383.2884,4 -4,4"/>
<text text-anchor="middle" x="189.6442" y="-203.8" font-family="Times,serif" font-size="14.00" fill="#000000">/tokenizer</text>
<!-- r0 -->
<g id="node1" class="node">
<title>r0</title>
<g id="a_node1"><a xlink:href="file:///home/andrew/workspace/flow/flowruntime/stdio/readline.toml" xlink:title="Readline (#0)">
<ellipse fill="#ff7f50" stroke="#000000" cx="297.3933" cy="-178" rx="74.9875" ry="18"/>
<text text-anchor="middle" x="297.3933" y="-174.3" font-family="Times,serif" font-size="14.00" fill="#000000">Readline (#0)</text>
</a>
</g>
</g>
<!-- r1 -->
<g id="node2" class="node">
<title>r1</title>
<g id="a_node2"><a xlink:href="file:///home/andrew/workspace/flow/flowstdlib/data/split/split.toml" xlink:title="Split (#1)">
<ellipse fill="#ff7f50" stroke="#000000" cx="251.3933" cy="-91" rx="55.7903" ry="18"/>
<text text-anchor="middle" x="251.3933" y="-87.3" font-family="Times,serif" font-size="14.00" fill="#000000">Split (#1)</text>
</a>
</g>
</g>
<!-- r0&#45;&gt;r1 -->
<g id="edge1" class="edge">
<title>r0:e&#45;&gt;r1:n</title>
<path fill="none" stroke="#000000" d="M372.3933,-178C380.3933,-178 376.8173,-166.6655 372.3933,-160 342.264,-114.6047 262.9285,-160.3854 252.5246,-119.1777"/>
<polygon fill="#000000" stroke="#000000" points="255.9767,-118.5521 251.3933,-109 249.0196,-119.3255 255.9767,-118.5521"/>
<text text-anchor="middle" x="229.8933" y="-112.8" font-family="Times,serif" font-size="14.00" fill="#000000">string</text>
</g>
<!-- r1&#45;&gt;r1 -->
<g id="edge3" class="edge">
<title>r1:e&#45;&gt;r1:n</title>
<path fill="none" stroke="#000000" d="M307.3933,-91C331.2884,-82 379.2884,-82 379.2884,-100 379.2884,-116.6992 305.9029,-117.906 261.2554,-110.8068"/>
<polygon fill="#000000" stroke="#000000" points="261.8603,-107.3594 251.3933,-109 260.5989,-114.2448 261.8603,-107.3594"/>
<text text-anchor="middle" x="272.8933" y="-112.8" font-family="Times,serif" font-size="14.00" fill="#000000">string</text>
<text text-anchor="middle" x="333.3933" y="-94.8" font-family="Times,serif" font-size="14.00" fill="#000000">/partial</text>
</g>
<!-- r2 -->
<g id="node4" class="node">
<title>r2</title>
<g id="a_node4"><a xlink:href="file:///home/andrew/workspace/flow/flowruntime/stdio/stdout.toml" xlink:title="Stdout (#2)">
<ellipse fill="#ff7f50" stroke="#000000" cx="251.3933" cy="-18" rx="65.7887" ry="18"/>
<text text-anchor="middle" x="251.3933" y="-14.3" font-family="Times,serif" font-size="14.00" fill="#000000">Stdout (#2)</text>
</a>
</g>
</g>
<!-- r1&#45;&gt;r2 -->
<g id="edge4" class="edge">
<title>r1:s&#45;&gt;r2:n</title>
<path fill="none" stroke="#000000" d="M251.3933,-73C251.3933,-60.5382 251.3933,-55.1592 251.3933,-46.1281"/>
<polygon fill="#000000" stroke="#000000" points="254.8934,-46 251.3933,-36 247.8934,-46 254.8934,-46"/>
<text text-anchor="middle" x="228.8933" y="-61.8" font-family="Times,serif" font-size="14.00" fill="#000000">/token</text>
</g>
<!-- initializerr1_1 -->
<!-- initializerr1_1&#45;&gt;r1 -->
<g id="edge2" class="edge">
<title>initializerr1_1&#45;&gt;r1:w</title>
<path fill="none" stroke="#0000ff" d="M88.2645,-159.9735C106.681,-136.3322 143.0436,-97.1917 185.3935,-91.6582"/>
<polygon fill="#0000ff" stroke="#0000ff" points="185.6448,-95.1493 195.3933,-91 185.185,-88.1644 185.6448,-95.1493"/>
<text text-anchor="middle" x="125.8933" y="-130.8" font-family="Times,serif" font-size="14.00" fill="#000000">&quot; &quot;</text>
</g>
</g>
</svg>
