<?xml version="1.0" encoding="UTF-8" standalone="no"?>
<!DOCTYPE svg PUBLIC "-//W3C//DTD SVG 1.1//EN"
 "http://www.w3.org/Graphics/SVG/1.1/DTD/svg11.dtd">
<!-- Generated by graphviz version 2.42.3 (20191010.1750)
 -->
<!-- Title: tokenizer Pages: 1 -->
<svg width="557pt" height="397pt"
 viewBox="0.00 0.00 556.96 397.00" xmlns="http://www.w3.org/2000/svg" xmlns:xlink="http://www.w3.org/1999/xlink">
<g id="graph0" class="graph" transform="scale(1 1) rotate(0) translate(4 393)">
<title>tokenizer</title>
<polygon fill="white" stroke="transparent" points="-4,4 -4,-393 552.96,-393 552.96,4 -4,4"/>
<text text-anchor="middle" x="274.48" y="-373.8" font-family="Times,serif" font-size="14.00">/tokenizer</text>
<!-- r0 -->
<g id="node1" class="node">
<title>r0</title>
<g id="a_node1"><a xlink:href="file:///Users/andrew/workspace/flow/flowruntime/stdio/readline.toml" xlink:title="Readline (#0)">
<ellipse fill="coral" stroke="black" cx="477.2" cy="-349" rx="58.46" ry="18"/>
<text text-anchor="middle" x="477.2" y="-344.8" font-family="Times,serif" font-size="14.00">Readline (#0)</text>
</a>
</g>
</g>
<!-- r1 -->
<g id="node2" class="node">
<title>r1</title>
<g id="a_node2"><a xlink:href="file:///Users/andrew/workspace/flow/flowstdlib/data/split/split.toml" xlink:title="Split (#1)">
<ellipse fill="coral" stroke="black" cx="433.2" cy="-263" rx="43.53" ry="18"/>
<text text-anchor="middle" x="433.2" y="-258.8" font-family="Times,serif" font-size="14.00">Split (#1)</text>
</a>
</g>
</g>
<!-- r0&#45;&gt;r1 -->
<g id="edge1" class="edge">
<title>r0:e&#45;&gt;r1:n</title>
<path fill="none" stroke="black" d="M537.2,-349C545.21,-349 540.64,-337.67 536.2,-331 510.21,-291.95 444.61,-325.65 434.51,-291.29"/>
<polygon fill="black" stroke="black" points="437.94,-290.48 433.2,-281 430.99,-291.36 437.94,-290.48"/>
<text text-anchor="middle" x="417.26" y="-283.8" font-family="Times,serif" font-size="14.00">string</text>
</g>
<!-- r1&#45;&gt;r1 -->
<g id="edge3" class="edge">
<title>r1:e&#45;&gt;r1:n</title>
<path fill="none" stroke="black" d="M477.2,-263C500.96,-252.5 548.96,-252.5 548.96,-272 548.96,-289.94 483.65,-291.37 443.15,-283.32"/>
<polygon fill="black" stroke="black" points="443.73,-279.86 433.2,-281 442.15,-286.68 443.73,-279.86"/>
<text text-anchor="middle" x="449.15" y="-283.8" font-family="Times,serif" font-size="14.00">string</text>
<text text-anchor="middle" x="497.03" y="-265.8" font-family="Times,serif" font-size="14.00">/partial</text>
</g>
<!-- r2 -->
<g id="node4" class="node">
<title>r2</title>
<g id="a_node4"><a xlink:href="file:///Users/andrew/workspace/flow/flowstdlib/math/add/add.toml" xlink:title="Add (#2)">
<ellipse fill="coral" stroke="black" cx="433.2" cy="-177" rx="42.06" ry="18"/>
<text text-anchor="middle" x="433.2" y="-172.8" font-family="Times,serif" font-size="14.00">Add (#2)</text>
</a>
</g>
</g>
<!-- r1&#45;&gt;r2 -->
<g id="edge4" class="edge">
<title>r1:s&#45;&gt;r2:n</title>
<path fill="none" stroke="black" d="M433.2,-245C433.2,-226.6 433.2,-219.62 433.2,-205.15"/>
<polygon fill="black" stroke="black" points="436.7,-205 433.2,-195 429.7,-205 436.7,-205"/>
<text text-anchor="middle" x="427.76" y="-197.8" font-family="Times,serif" font-size="14.00">i1</text>
<text text-anchor="middle" x="417.65" y="-233.8" font-family="Times,serif" font-size="14.00">/delta</text>
</g>
<!-- r3 -->
<g id="node5" class="node">
<title>r3</title>
<g id="a_node5"><a xlink:href="file:///Users/andrew/workspace/flow/flowstdlib/data/count/count.toml" xlink:title="Count (#3)">
<ellipse fill="coral" stroke="black" cx="60.2" cy="-177" rx="48.84" ry="18"/>
<text text-anchor="middle" x="60.2" y="-172.8" font-family="Times,serif" font-size="14.00">Count (#3)</text>
</a>
</g>
</g>
<!-- r1&#45;&gt;r3 -->
<g id="edge5" class="edge">
<title>r1:s&#45;&gt;r3:n</title>
<path fill="none" stroke="black" d="M433.2,-245C433.2,-228.61 305.41,-215.43 289.2,-213 266.82,-209.65 104.07,-218.16 67.49,-202.33"/>
<polygon fill="black" stroke="black" points="69.73,-199.62 60.2,-195 64.77,-204.56 69.73,-199.62"/>
<text text-anchor="middle" x="48.54" y="-197.8" font-family="Times,serif" font-size="14.00">data</text>
<text text-anchor="middle" x="450.7" y="-233.8" font-family="Times,serif" font-size="14.00">/token</text>
</g>
<!-- initializerr1_1 -->
<!-- initializerr1_1&#45;&gt;r1 -->
<g id="edge2" class="edge">
<title>initializerr1_1&#45;&gt;r1:w</title>
<path fill="none" stroke="blue" d="M301.21,-331.21C320.93,-309.82 355.71,-274.53 378.43,-265.28"/>
<polygon fill="blue" stroke="blue" points="379.26,-268.68 388.2,-263 377.67,-261.86 379.26,-268.68"/>
<text text-anchor="middle" x="338.67" y="-301.8" font-family="Times,serif" font-size="14.00">&quot; &quot;</text>
</g>
<!-- r2&#45;&gt;r2 -->
<g id="edge7" class="edge">
<title>r2:se&#45;&gt;r2:ne</title>
<path fill="none" stroke="black" d="M450.2,-160C488.29,-149.5 547.48,-149.5 547.48,-177 547.48,-202.24 497.61,-204.31 459.96,-196.36"/>
<polygon fill="black" stroke="black" points="460.74,-192.95 450.2,-194 459.1,-199.76 460.74,-192.95"/>
<text text-anchor="middle" x="455.65" y="-196.8" font-family="Times,serif" font-size="14.00">i2</text>
<text text-anchor="middle" x="463.81" y="-148.8" font-family="Times,serif" font-size="14.00">/sum</text>
</g>
<!-- r4 -->
<g id="node7" class="node">
<title>r4</title>
<g id="a_node7"><a xlink:href="file:///Users/andrew/workspace/flow/flowstdlib/math/compare/compare.toml" xlink:title="Compare (#4)">
<ellipse fill="coral" stroke="black" cx="302.2" cy="-91" rx="59.43" ry="18"/>
<text text-anchor="middle" x="302.2" y="-86.8" font-family="Times,serif" font-size="14.00">Compare (#4)</text>
</a>
</g>
</g>
<!-- r2&#45;&gt;r4 -->
<g id="edge8" class="edge">
<title>r2:se&#45;&gt;r4:ne</title>
<path fill="none" stroke="black" d="M450.2,-159C491.86,-117.34 377.07,-149.14 327.17,-115.52"/>
<polygon fill="black" stroke="black" points="329.16,-112.62 319.2,-109 324.72,-118.04 329.16,-112.62"/>
<text text-anchor="middle" x="305.98" y="-111.8" font-family="Times,serif" font-size="14.00">right</text>
<text text-anchor="middle" x="436.59" y="-147.8" font-family="Times,serif" font-size="14.00">/sum</text>
</g>
<!-- r3&#45;&gt;r3 -->
<g id="edge10" class="edge">
<title>r3:se&#45;&gt;r3:ne</title>
<path fill="none" stroke="black" d="M77.2,-160C117.43,-149.5 180.87,-149.5 180.87,-177 180.87,-202.35 126.95,-204.33 87.01,-196.26"/>
<polygon fill="black" stroke="black" points="87.73,-192.83 77.2,-194 86.16,-199.66 87.73,-192.83"/>
<text text-anchor="middle" x="92.75" y="-196.8" font-family="Times,serif" font-size="14.00">count</text>
<text text-anchor="middle" x="94.7" y="-148.8" font-family="Times,serif" font-size="14.00">/count</text>
</g>
<!-- initializerr2_1 -->
<!-- initializerr2_1&#45;&gt;r2 -->
<g id="edge6" class="edge">
<title>initializerr2_1&#45;&gt;r2:w</title>
<path fill="none" stroke="blue" stroke-dasharray="1,5" d="M280.28,-246.21C309.64,-226.24 359.02,-193.03 379.9,-181.28"/>
<polygon fill="blue" stroke="blue" points="381.58,-184.36 389.2,-177 378.65,-178 381.58,-184.36"/>
<text text-anchor="middle" x="330.7" y="-215.8" font-family="Times,serif" font-size="14.00">1</text>
</g>
<!-- r5 -->
<g id="node10" class="node">
<title>r5</title>
<g id="a_node10"><a xlink:href="file:///Users/andrew/workspace/flow/flowruntime/stdio/stdout.toml" xlink:title="Stdout (#5)">
<ellipse fill="coral" stroke="black" cx="319.2" cy="-18" rx="50.3" ry="18"/>
<text text-anchor="middle" x="319.2" y="-13.8" font-family="Times,serif" font-size="14.00">Stdout (#5)</text>
</a>
</g>
</g>
<!-- r4&#45;&gt;r5 -->
<g id="edge12" class="edge">
<title>r4:se&#45;&gt;r5:n</title>
<path fill="none" stroke="black" d="M319.2,-73C328.19,-64.01 323.28,-56.63 320.59,-46.14"/>
<polygon fill="black" stroke="black" points="324.02,-45.43 319.2,-36 317.09,-46.38 324.02,-45.43"/>
<text text-anchor="middle" x="302.1" y="-61.8" font-family="Times,serif" font-size="14.00">/equal</text>
</g>
<!-- initializerr3_1 -->
<!-- initializerr3_1&#45;&gt;r3 -->
<g id="edge9" class="edge">
<title>initializerr3_1&#45;&gt;r3:n</title>
<path fill="none" stroke="blue" stroke-dasharray="1,5" d="M60.2,-244.93C60.2,-234.03 60.2,-219.34 60.2,-205.17"/>
<polygon fill="blue" stroke="blue" points="63.7,-205 60.2,-195 56.7,-205 63.7,-205"/>
<text text-anchor="middle" x="63.7" y="-215.8" font-family="Times,serif" font-size="14.00">0</text>
</g>
<!-- initializerr4_0 -->
<!-- initializerr4_0&#45;&gt;r4 -->
<g id="edge11" class="edge">
<title>initializerr4_0&#45;&gt;r4:ne</title>
<path fill="none" stroke="blue" d="M280.01,-160.07C295.24,-147.76 314.15,-130.9 319.51,-119.2"/>
<polygon fill="blue" stroke="blue" points="323.01,-118.89 319.2,-109 316.01,-119.1 323.01,-118.89"/>
<text text-anchor="middle" x="316.7" y="-129.8" font-family="Times,serif" font-size="14.00">0</text>
</g>
</g>
</svg>
