<?xml version="1.0" encoding="UTF-8" standalone="no"?>
<!DOCTYPE svg PUBLIC "-//W3C//DTD SVG 1.1//EN"
 "http://www.w3.org/Graphics/SVG/1.1/DTD/svg11.dtd">
<!-- Generated by graphviz version 2.42.3 (20191010.1750)
 -->
<!-- Title: tokenizer Pages: 1 -->
<svg width="644pt" height="483pt"
 viewBox="0.00 0.00 644.48 483.00" xmlns="http://www.w3.org/2000/svg" xmlns:xlink="http://www.w3.org/1999/xlink">
<g id="graph0" class="graph" transform="scale(1 1) rotate(0) translate(4 479)">
<title>tokenizer</title>
<polygon fill="white" stroke="transparent" points="-4,4 -4,-479 640.48,-479 640.48,4 -4,4"/>
<text text-anchor="middle" x="318.24" y="-459.8" font-family="Times,serif" font-size="14.00">/tokenizer</text>
<!-- r0 -->
<g id="node1" class="node">
<title>r0</title>
<g id="a_node1"><a xlink:href="file:///Users/andrew/workspace/flow/flowruntime/stdio/readline.toml" xlink:title="Readline (#0)">
<ellipse fill="coral" stroke="black" cx="251.2" cy="-435" rx="58.46" ry="18"/>
<text text-anchor="middle" x="251.2" y="-430.8" font-family="Times,serif" font-size="14.00">Readline (#0)</text>
</a>
</g>
</g>
<!-- r1 -->
<g id="node2" class="node">
<title>r1</title>
<g id="a_node2"><a xlink:href="file:///Users/andrew/workspace/flow/flowstdlib/data/split/split.toml" xlink:title="Split (#1)">
<ellipse fill="coral" stroke="black" cx="207.2" cy="-349" rx="43.53" ry="18"/>
<text text-anchor="middle" x="207.2" y="-344.8" font-family="Times,serif" font-size="14.00">Split (#1)</text>
</a>
</g>
</g>
<!-- r0&#45;&gt;r1 -->
<g id="edge1" class="edge">
<title>r0:e&#45;&gt;r1:n</title>
<path fill="none" stroke="black" d="M311.2,-435C319.21,-435 314.64,-423.67 310.2,-417 284.21,-377.95 218.61,-411.65 208.51,-377.29"/>
<polygon fill="black" stroke="black" points="211.94,-376.48 207.2,-367 204.99,-377.36 211.94,-376.48"/>
<text text-anchor="middle" x="191.26" y="-369.8" font-family="Times,serif" font-size="14.00">string</text>
</g>
<!-- r1&#45;&gt;r1 -->
<g id="edge3" class="edge">
<title>r1:e&#45;&gt;r1:n</title>
<path fill="none" stroke="black" d="M251.2,-349C274.96,-338.5 322.96,-338.5 322.96,-358 322.96,-375.94 257.65,-377.37 217.15,-369.32"/>
<polygon fill="black" stroke="black" points="217.73,-365.86 207.2,-367 216.15,-372.68 217.73,-365.86"/>
<text text-anchor="middle" x="223.15" y="-369.8" font-family="Times,serif" font-size="14.00">string</text>
<text text-anchor="middle" x="271.03" y="-351.8" font-family="Times,serif" font-size="14.00">/partial</text>
</g>
<!-- r2 -->
<g id="node4" class="node">
<title>r2</title>
<g id="a_node4"><a xlink:href="file:///Users/andrew/workspace/flow/flowstdlib/math/add/add.toml" xlink:title="Add (#2)">
<ellipse fill="coral" stroke="black" cx="522.2" cy="-263" rx="42.06" ry="18"/>
<text text-anchor="middle" x="522.2" y="-258.8" font-family="Times,serif" font-size="14.00">Add (#2)</text>
</a>
</g>
</g>
<!-- r1&#45;&gt;r2 -->
<g id="edge4" class="edge">
<title>r1:s&#45;&gt;r2:n</title>
<path fill="none" stroke="black" d="M207.2,-331C207.2,-300.49 452.69,-323.87 481.2,-313 499.09,-306.18 515.47,-304.56 520.57,-291.08"/>
<polygon fill="black" stroke="black" points="524.06,-291.43 522.2,-281 517.15,-290.31 524.06,-291.43"/>
<text text-anchor="middle" x="516.76" y="-283.8" font-family="Times,serif" font-size="14.00">i1</text>
<text text-anchor="middle" x="191.65" y="-319.8" font-family="Times,serif" font-size="14.00">/delta</text>
</g>
<!-- r3 -->
<g id="node5" class="node">
<title>r3</title>
<g id="a_node5"><a xlink:href="file:///Users/andrew/workspace/flow/flowruntime/stdio/stdout.toml" xlink:title="Stdout (#3)">
<ellipse fill="coral" stroke="black" cx="174.2" cy="-18" rx="50.3" ry="18"/>
<text text-anchor="middle" x="174.2" y="-13.8" font-family="Times,serif" font-size="14.00">Stdout (#3)</text>
</a>
</g>
</g>
<!-- r1&#45;&gt;r3 -->
<g id="edge5" class="edge">
<title>r1:s&#45;&gt;r3:n</title>
<path fill="none" stroke="black" d="M207.2,-331C207.2,-287.29 135.2,-307.71 135.2,-264 135.2,-264 135.2,-264 135.2,-90 135.2,-64.21 164.79,-64.84 172.42,-45.86"/>
<polygon fill="black" stroke="black" points="175.87,-46.46 174.2,-36 168.98,-45.22 175.87,-46.46"/>
<text text-anchor="middle" x="224.7" y="-319.8" font-family="Times,serif" font-size="14.00">/token</text>
</g>
<!-- initializerr1_1 -->
<!-- initializerr1_1&#45;&gt;r1 -->
<g id="edge2" class="edge">
<title>initializerr1_1&#45;&gt;r1:w</title>
<path fill="none" stroke="blue" d="M70.06,-417.21C84.71,-394.47 114.56,-356 151.99,-349.84"/>
<polygon fill="blue" stroke="blue" points="152.52,-353.31 162.2,-349 151.95,-346.33 152.52,-353.31"/>
<text text-anchor="middle" x="101.67" y="-387.8" font-family="Times,serif" font-size="14.00">&quot; &quot;</text>
</g>
<!-- r2&#45;&gt;r2 -->
<g id="edge7" class="edge">
<title>r2:se&#45;&gt;r2:ne</title>
<path fill="none" stroke="black" d="M539.2,-246C577.29,-235.5 636.48,-235.5 636.48,-263 636.48,-288.24 586.61,-290.31 548.96,-282.36"/>
<polygon fill="black" stroke="black" points="549.74,-278.95 539.2,-280 548.1,-285.76 549.74,-278.95"/>
<text text-anchor="middle" x="544.65" y="-282.8" font-family="Times,serif" font-size="14.00">i2</text>
<text text-anchor="middle" x="552.81" y="-234.8" font-family="Times,serif" font-size="14.00">/sum</text>
</g>
<!-- r4 -->
<g id="node7" class="node">
<title>r4</title>
<g id="a_node7"><a xlink:href="file:///Users/andrew/workspace/flow/flowstdlib/control/compare_switch/compare_switch.toml" xlink:title="compare_switch (#4)">
<ellipse fill="coral" stroke="black" cx="521.2" cy="-177" rx="85.01" ry="18"/>
<text text-anchor="middle" x="521.2" y="-172.8" font-family="Times,serif" font-size="14.00">compare_switch (#4)</text>
</a>
</g>
</g>
<!-- r2&#45;&gt;r4 -->
<g id="edge8" class="edge">
<title>r2:se&#45;&gt;r4:ne</title>
<path fill="none" stroke="black" d="M539.2,-245C552.34,-231.86 554.49,-216.73 545.67,-202.94"/>
<polygon fill="black" stroke="black" points="548.23,-200.54 539.2,-195 542.8,-204.96 548.23,-200.54"/>
<text text-anchor="middle" x="525.98" y="-197.8" font-family="Times,serif" font-size="14.00">right</text>
<text text-anchor="middle" x="525.59" y="-233.8" font-family="Times,serif" font-size="14.00">/sum</text>
</g>
<!-- initializerr2_1 -->
<!-- initializerr2_1&#45;&gt;r2 -->
<g id="edge6" class="edge">
<title>initializerr2_1&#45;&gt;r2:w</title>
<path fill="none" stroke="blue" stroke-dasharray="1,5" d="M467.47,-330.8C461.21,-309.65 453.88,-275.35 468.46,-265.64"/>
<polygon fill="blue" stroke="blue" points="469.46,-268.99 478.2,-263 467.63,-262.24 469.46,-268.99"/>
<text text-anchor="middle" x="465.7" y="-301.8" font-family="Times,serif" font-size="14.00">1</text>
</g>
<!-- r5 -->
<g id="node9" class="node">
<title>r5</title>
<g id="a_node9"><a xlink:href="file:///Users/andrew/workspace/flow/flowstdlib/control/join/join.toml" xlink:title="join (#5)">
<ellipse fill="coral" stroke="black" cx="321.2" cy="-91" rx="40.62" ry="18"/>
<text text-anchor="middle" x="321.2" y="-86.8" font-family="Times,serif" font-size="14.00">join (#5)</text>
</a>
</g>
</g>
<!-- r4&#45;&gt;r5 -->
<g id="edge10" class="edge">
<title>r4:se&#45;&gt;r5:ne</title>
<path fill="none" stroke="black" d="M539.2,-159C601.88,-96.32 417.85,-168.34 345.99,-115.66"/>
<polygon fill="black" stroke="black" points="348.08,-112.84 338.2,-109 343.53,-118.16 348.08,-112.84"/>
<text text-anchor="middle" x="318.37" y="-111.8" font-family="Times,serif" font-size="14.00">control</text>
<text text-anchor="middle" x="522.1" y="-147.8" font-family="Times,serif" font-size="14.00">/equal</text>
</g>
<!-- initializerr4_0 -->
<!-- initializerr4_0&#45;&gt;r4 -->
<g id="edge9" class="edge">
<title>initializerr4_0&#45;&gt;r4:ne</title>
<path fill="none" stroke="blue" d="M392.16,-250.61C439.82,-237.86 511.97,-217.2 533.68,-203.69"/>
<polygon fill="blue" stroke="blue" points="536.79,-205.32 539.2,-195 530.88,-201.56 536.79,-205.32"/>
<text text-anchor="middle" x="516.7" y="-215.8" font-family="Times,serif" font-size="14.00">0</text>
</g>
<!-- r5&#45;&gt;r3 -->
<g id="edge12" class="edge">
<title>r5:e&#45;&gt;r3:n</title>
<path fill="none" stroke="black" d="M363.2,-91C371.21,-91 367.46,-79.04 362.2,-73 336.76,-43.76 201.89,-72.37 177.86,-45.64"/>
<polygon fill="black" stroke="black" points="181.03,-44.1 174.2,-36 174.48,-46.59 181.03,-44.1"/>
</g>
<!-- initializerr5_0 -->
<!-- initializerr5_0&#45;&gt;r5 -->
<g id="edge11" class="edge">
<title>initializerr5_0&#45;&gt;r5:nw</title>
<path fill="none" stroke="blue" stroke-dasharray="1,5" d="M298.25,-158.9C294.94,-146.6 292.56,-130.04 298.39,-117.4"/>
<polygon fill="blue" stroke="blue" points="301.39,-119.22 304.2,-109 295.63,-115.23 301.39,-119.22"/>
<text text-anchor="middle" x="314.52" y="-129.8" font-family="Times,serif" font-size="14.00">&quot;done&quot;</text>
</g>
</g>
</svg>
