<?xml version="1.0" encoding="UTF-8" standalone="no"?>
<!DOCTYPE svg PUBLIC "-//W3C//DTD SVG 1.1//EN"
 "http://www.w3.org/Graphics/SVG/1.1/DTD/svg11.dtd">
<!-- Generated by graphviz version 2.42.3 (20191010.1750)
 -->
<!-- Title: tokenizer Pages: 1 -->
<svg width="499pt" height="311pt"
 viewBox="0.00 0.00 498.87 311.00" xmlns="http://www.w3.org/2000/svg" xmlns:xlink="http://www.w3.org/1999/xlink">
<g id="graph0" class="graph" transform="scale(1 1) rotate(0) translate(4 307)">
<title>tokenizer</title>
<polygon fill="white" stroke="transparent" points="-4,4 -4,-307 494.87,-307 494.87,4 -4,4"/>
<text text-anchor="middle" x="245.44" y="-287.8" font-family="Times,serif" font-size="14.00">/tokenizer</text>
<!-- r0 -->
<g id="node1" class="node">
<title>r0</title>
<g id="a_node1"><a xlink:href="file:///Users/andrew/workspace/flow/flowruntime/stdio/readline.toml" xlink:title="Readline (#0)">
<ellipse fill="coral" stroke="black" cx="280.2" cy="-263" rx="58.46" ry="18"/>
<text text-anchor="middle" x="280.2" y="-258.8" font-family="Times,serif" font-size="14.00">Readline (#0)</text>
</a>
</g>
</g>
<!-- r1 -->
<g id="node2" class="node">
<title>r1</title>
<g id="a_node2"><a xlink:href="file:///Users/andrew/workspace/flow/flowstdlib/data/split/split.toml" xlink:title="Split (#1)">
<ellipse fill="coral" stroke="black" cx="236.2" cy="-177" rx="43.53" ry="18"/>
<text text-anchor="middle" x="236.2" y="-172.8" font-family="Times,serif" font-size="14.00">Split (#1)</text>
</a>
</g>
</g>
<!-- r0&#45;&gt;r1 -->
<g id="edge1" class="edge">
<title>r0:e&#45;&gt;r1:n</title>
<path fill="none" stroke="black" d="M340.2,-263C348.21,-263 343.64,-251.67 339.2,-245 313.21,-205.95 247.61,-239.65 237.51,-205.29"/>
<polygon fill="black" stroke="black" points="240.94,-204.48 236.2,-195 233.99,-205.36 240.94,-204.48"/>
<text text-anchor="middle" x="220.26" y="-197.8" font-family="Times,serif" font-size="14.00">string</text>
</g>
<!-- r1&#45;&gt;r1 -->
<g id="edge3" class="edge">
<title>r1:e&#45;&gt;r1:n</title>
<path fill="none" stroke="black" d="M280.2,-177C303.96,-166.5 351.96,-166.5 351.96,-186 351.96,-203.94 286.65,-205.37 246.15,-197.32"/>
<polygon fill="black" stroke="black" points="246.73,-193.86 236.2,-195 245.15,-200.68 246.73,-193.86"/>
<text text-anchor="middle" x="252.15" y="-197.8" font-family="Times,serif" font-size="14.00">string</text>
<text text-anchor="middle" x="300.03" y="-179.8" font-family="Times,serif" font-size="14.00">/partial</text>
</g>
<!-- r2 -->
<g id="node4" class="node">
<title>r2</title>
<g id="a_node4"><a xlink:href="file:///Users/andrew/workspace/flow/flowstdlib/math/add/add.toml" xlink:title="Add (#2)">
<ellipse fill="coral" stroke="black" cx="130.2" cy="-91" rx="42.06" ry="18"/>
<text text-anchor="middle" x="130.2" y="-86.8" font-family="Times,serif" font-size="14.00">Add (#2)</text>
</a>
</g>
</g>
<!-- r1&#45;&gt;r2 -->
<g id="edge4" class="edge">
<title>r1:s&#45;&gt;r2:n</title>
<path fill="none" stroke="black" d="M236.2,-159C236.2,-136.31 155.77,-134.97 135.03,-117.79"/>
<polygon fill="black" stroke="black" points="138.08,-116.08 130.2,-109 131.95,-119.45 138.08,-116.08"/>
<text text-anchor="middle" x="124.76" y="-111.8" font-family="Times,serif" font-size="14.00">i1</text>
<text text-anchor="middle" x="220.65" y="-147.8" font-family="Times,serif" font-size="14.00">/delta</text>
</g>
<!-- r3 -->
<g id="node5" class="node">
<title>r3</title>
<g id="a_node5"><a xlink:href="file:///Users/andrew/workspace/flow/flowstdlib/data/count/count.toml" xlink:title="Count (#3)">
<ellipse fill="coral" stroke="black" cx="370.2" cy="-91" rx="48.84" ry="18"/>
<text text-anchor="middle" x="370.2" y="-86.8" font-family="Times,serif" font-size="14.00">Count (#3)</text>
</a>
</g>
</g>
<!-- r1&#45;&gt;r3 -->
<g id="edge5" class="edge">
<title>r1:s&#45;&gt;r3:n</title>
<path fill="none" stroke="black" d="M236.2,-159C236.2,-130.82 341.56,-138.29 365.43,-118.19"/>
<polygon fill="black" stroke="black" points="368.7,-119.49 370.2,-109 362.49,-116.26 368.7,-119.49"/>
<text text-anchor="middle" x="358.54" y="-111.8" font-family="Times,serif" font-size="14.00">data</text>
<text text-anchor="middle" x="253.7" y="-147.8" font-family="Times,serif" font-size="14.00">/token</text>
</g>
<!-- initializerr1_1 -->
<!-- initializerr1_1&#45;&gt;r1 -->
<g id="edge2" class="edge">
<title>initializerr1_1&#45;&gt;r1:w</title>
<path fill="none" stroke="blue" d="M104.21,-245.21C123.93,-223.82 158.71,-188.53 181.43,-179.28"/>
<polygon fill="blue" stroke="blue" points="182.26,-182.68 191.2,-177 180.67,-175.86 182.26,-182.68"/>
<text text-anchor="middle" x="142.67" y="-215.8" font-family="Times,serif" font-size="14.00">&quot; &quot;</text>
</g>
<!-- r2&#45;&gt;r2 -->
<g id="edge7" class="edge">
<title>r2:se&#45;&gt;r2:ne</title>
<path fill="none" stroke="black" d="M147.2,-74C185.29,-65 244.48,-65 244.48,-91 244.48,-114.77 195.03,-116.81 157.44,-110.11"/>
<polygon fill="black" stroke="black" points="157.7,-106.59 147.2,-108 156.29,-113.45 157.7,-106.59"/>
<text text-anchor="middle" x="141.76" y="-110.8" font-family="Times,serif" font-size="14.00">i2</text>
<text text-anchor="middle" x="160.81" y="-62.8" font-family="Times,serif" font-size="14.00">/sum</text>
</g>
<!-- r3&#45;&gt;r3 -->
<g id="edge9" class="edge">
<title>r3:se&#45;&gt;r3:ne</title>
<path fill="none" stroke="black" d="M387.2,-74C427.43,-65 490.87,-65 490.87,-91 490.87,-114.97 436.95,-116.84 397.01,-109.94"/>
<polygon fill="black" stroke="black" points="397.69,-106.5 387.2,-108 396.33,-113.37 397.69,-106.5"/>
<text text-anchor="middle" x="402.75" y="-110.8" font-family="Times,serif" font-size="14.00">count</text>
<text text-anchor="middle" x="404.7" y="-62.8" font-family="Times,serif" font-size="14.00">/count</text>
</g>
<!-- r4 -->
<g id="node8" class="node">
<title>r4</title>
<g id="a_node8"><a xlink:href="file:///Users/andrew/workspace/flow/flowruntime/stdio/stdout.toml" xlink:title="Stdout (#4)">
<ellipse fill="coral" stroke="black" cx="387.2" cy="-18" rx="50.3" ry="18"/>
<text text-anchor="middle" x="387.2" y="-13.8" font-family="Times,serif" font-size="14.00">Stdout (#4)</text>
</a>
</g>
</g>
<!-- r3&#45;&gt;r4 -->
<g id="edge10" class="edge">
<title>r3:se&#45;&gt;r4:n</title>
<path fill="none" stroke="black" d="M387.2,-73C396.19,-64.01 391.28,-56.63 388.59,-46.14"/>
<polygon fill="black" stroke="black" points="392.02,-45.43 387.2,-36 385.09,-46.38 392.02,-45.43"/>
<text text-anchor="middle" x="369.7" y="-61.8" font-family="Times,serif" font-size="14.00">/count</text>
</g>
<!-- initializerr2_1 -->
<!-- initializerr2_1&#45;&gt;r2 -->
<g id="edge6" class="edge">
<title>initializerr2_1&#45;&gt;r2:w</title>
<path fill="none" stroke="blue" stroke-dasharray="1,5" d="M58.42,-158.8C57.04,-137.26 57.82,-102.09 76.37,-93.13"/>
<polygon fill="blue" stroke="blue" points="77.17,-96.54 86.2,-91 75.69,-89.7 77.17,-96.54"/>
<text text-anchor="middle" x="62.7" y="-129.8" font-family="Times,serif" font-size="14.00">1</text>
</g>
<!-- initializerr3_1 -->
<!-- initializerr3_1&#45;&gt;r3 -->
<g id="edge8" class="edge">
<title>initializerr3_1&#45;&gt;r3:n</title>
<path fill="none" stroke="blue" stroke-dasharray="1,5" d="M404.41,-160.66C390.69,-150.69 375.77,-136.33 371.44,-118.95"/>
<polygon fill="blue" stroke="blue" points="374.91,-118.49 370.2,-109 367.96,-119.36 374.91,-118.49"/>
<text text-anchor="middle" x="384.7" y="-129.8" font-family="Times,serif" font-size="14.00">0</text>
</g>
</g>
</svg>
