<?xml version="1.0" encoding="UTF-8" standalone="no"?>
<!DOCTYPE svg PUBLIC "-//W3C//DTD SVG 1.1//EN"
 "http://www.w3.org/Graphics/SVG/1.1/DTD/svg11.dtd">
<!-- Generated by graphviz version 2.42.4 (0)
 -->
<!-- Title: tokenizer Pages: 1 -->
<svg width="824pt" height="474pt"
 viewBox="0.00 0.00 823.79 474.00" xmlns="http://www.w3.org/2000/svg" xmlns:xlink="http://www.w3.org/1999/xlink">
<g id="graph0" class="graph" transform="scale(1 1) rotate(0) translate(4 470)">
<title>tokenizer</title>
<polygon fill="white" stroke="transparent" points="-4,4 -4,-470 819.79,-470 819.79,4 -4,4"/>
<text text-anchor="middle" x="407.89" y="-450.8" font-family="Times,serif" font-size="14.00">/tokenizer</text>
<!-- r0 -->
<g id="node1" class="node">
<title>r0</title>
<g id="a_node1"><a xlink:href="file:///home/andrew/workspace/flow/flowruntime/stdio/readline.html" xlink:title="Readline (#0)">
<ellipse fill="coral" stroke="black" cx="546.39" cy="-425" rx="74.99" ry="18"/>
<text text-anchor="middle" x="546.39" y="-421.3" font-family="Times,serif" font-size="14.00">Readline (#0)</text>
</a>
</g>
</g>
<!-- r1 -->
<g id="node2" class="node">
<title>r1</title>
<g id="a_node2"><a xlink:href="file:///home/andrew/workspace/flow/flowstdlib/data/split/split.html" xlink:title="Split (#1)">
<ellipse fill="coral" stroke="black" cx="501.39" cy="-338" rx="55.79" ry="18"/>
<text text-anchor="middle" x="501.39" y="-334.3" font-family="Times,serif" font-size="14.00">Split (#1)</text>
</a>
</g>
</g>
<!-- r0&#45;&gt;r1 -->
<g id="edge1" class="edge">
<title>r0:e&#45;&gt;r1:n</title>
<path fill="none" stroke="black" d="M622.39,-425C630.41,-425 626,-413.56 621.39,-407 590.3,-362.72 512.67,-407.18 502.5,-366.12"/>
<polygon fill="black" stroke="black" points="505.96,-365.56 501.39,-356 499,-366.32 505.96,-365.56"/>
<text text-anchor="middle" x="479.89" y="-359.8" font-family="Times,serif" font-size="14.00">string</text>
</g>
<!-- r1&#45;&gt;r1 -->
<g id="edge3" class="edge">
<title>r1:e&#45;&gt;r1:n</title>
<path fill="none" stroke="black" d="M557.39,-338C581.29,-327.5 629.29,-327.5 629.29,-347 629.29,-365.09 555.9,-366.4 511.26,-358.11"/>
<polygon fill="black" stroke="black" points="511.9,-354.67 501.39,-356 510.44,-361.51 511.9,-354.67"/>
<text text-anchor="middle" x="522.89" y="-359.8" font-family="Times,serif" font-size="14.00">string</text>
<text text-anchor="middle" x="583.39" y="-341.8" font-family="Times,serif" font-size="14.00">/partial</text>
</g>
<!-- r2 -->
<g id="node4" class="node">
<title>r2</title>
<g id="a_node4"><a xlink:href="file:///home/andrew/workspace/flow/flowstdlib/math/add/add.html" xlink:title="work&#45;counter (#2)">
<ellipse fill="coral" stroke="black" cx="479.39" cy="-251" rx="95.58" ry="18"/>
<text text-anchor="middle" x="479.39" y="-247.3" font-family="Times,serif" font-size="14.00">work&#45;counter (#2)</text>
</a>
</g>
</g>
<!-- r1&#45;&gt;r2 -->
<g id="edge4" class="edge">
<title>r1:s&#45;&gt;r2:n</title>
<path fill="none" stroke="black" d="M501.39,-320C501.39,-299.17 485.73,-294.76 480.84,-279.06"/>
<polygon fill="black" stroke="black" points="484.28,-278.4 479.39,-269 477.35,-279.4 484.28,-278.4"/>
<text text-anchor="middle" x="472.39" y="-272.8" font-family="Times,serif" font-size="14.00">i1</text>
<text text-anchor="middle" x="480.89" y="-308.8" font-family="Times,serif" font-size="14.00">/delta</text>
</g>
<!-- r3 -->
<g id="node5" class="node">
<title>r3</title>
<g id="a_node5"><a xlink:href="file:///home/andrew/workspace/flow/flowstdlib/math/add/add.html" xlink:title="token&#45;counter (#3)">
<ellipse fill="coral" stroke="black" cx="195.39" cy="-251" rx="98.58" ry="18"/>
<text text-anchor="middle" x="195.39" y="-247.3" font-family="Times,serif" font-size="14.00">token&#45;counter (#3)</text>
</a>
</g>
</g>
<!-- r1&#45;&gt;r3 -->
<g id="edge5" class="edge">
<title>r1:sw&#45;&gt;r3:n</title>
<path fill="none" stroke="black" d="M484.39,-320C439.5,-275.1 407.9,-298.13 345.39,-287 331.32,-284.49 232.44,-285.38 203.4,-275.33"/>
<polygon fill="black" stroke="black" points="205.41,-272.46 195.39,-269 201.07,-277.95 205.41,-272.46"/>
<text text-anchor="middle" x="188.39" y="-272.8" font-family="Times,serif" font-size="14.00">i1</text>
<text text-anchor="middle" x="528.89" y="-308.8" font-family="Times,serif" font-size="14.00">/token&#45;count</text>
</g>
<!-- initializerr1_1 -->
<!-- initializerr1_1&#45;&gt;r1 -->
<g id="edge2" class="edge">
<title>initializerr1_1&#45;&gt;r1:w</title>
<path fill="none" stroke="blue" d="M344.73,-407.42C370.56,-386.63 414.24,-352.38 434.98,-341.46"/>
<polygon fill="blue" stroke="blue" points="436.21,-344.73 444.39,-338 433.8,-338.16 436.21,-344.73"/>
<text text-anchor="middle" x="393.89" y="-377.8" font-family="Times,serif" font-size="14.00">&quot; &quot;</text>
</g>
<!-- r2&#45;&gt;r2 -->
<g id="edge7" class="edge">
<title>r2:se&#45;&gt;r2:ne</title>
<path fill="none" stroke="black" d="M497.39,-233C553.24,-222.5 646.93,-222.5 646.93,-251 646.93,-277.83 563.9,-279.4 507.57,-270.73"/>
<polygon fill="black" stroke="black" points="507.84,-267.23 497.39,-269 506.66,-274.13 507.84,-267.23"/>
<text text-anchor="middle" x="490.39" y="-272.8" font-family="Times,serif" font-size="14.00">i2</text>
<text text-anchor="middle" x="479.89" y="-221.8" font-family="Times,serif" font-size="14.00">/sum</text>
</g>
<!-- r5 -->
<g id="node7" class="node">
<title>r5</title>
<g id="a_node7"><a xlink:href="file:///home/andrew/workspace/flow/flowstdlib/math/compare/compare.html" xlink:title="Compare (#5)">
<ellipse fill="coral" stroke="black" cx="479.39" cy="-164" rx="76.09" ry="18"/>
<text text-anchor="middle" x="479.39" y="-160.3" font-family="Times,serif" font-size="14.00">Compare (#5)</text>
</a>
</g>
</g>
<!-- r2&#45;&gt;r5 -->
<g id="edge8" class="edge">
<title>r2:se&#45;&gt;r5:ne</title>
<path fill="none" stroke="black" d="M497.39,-233C510.79,-219.6 512.99,-204.17 503.99,-190.1"/>
<polygon fill="black" stroke="black" points="506.42,-187.54 497.39,-182 500.99,-191.96 506.42,-187.54"/>
<text text-anchor="middle" x="479.39" y="-185.8" font-family="Times,serif" font-size="14.00">right</text>
<text text-anchor="middle" x="514.89" y="-221.8" font-family="Times,serif" font-size="14.00">/sum</text>
</g>
<!-- r3&#45;&gt;r3 -->
<g id="edge10" class="edge">
<title>r3:se&#45;&gt;r3:ne</title>
<path fill="none" stroke="black" d="M213.39,-233C270.32,-222.5 366.18,-222.5 366.18,-251 366.18,-277.89 280.88,-279.41 223.42,-270.68"/>
<polygon fill="black" stroke="black" points="223.83,-267.2 213.39,-269 222.68,-274.1 223.83,-267.2"/>
<text text-anchor="middle" x="206.39" y="-272.8" font-family="Times,serif" font-size="14.00">i2</text>
<text text-anchor="middle" x="195.89" y="-221.8" font-family="Times,serif" font-size="14.00">/sum</text>
</g>
<!-- r4 -->
<g id="node9" class="node">
<title>r4</title>
<g id="a_node9"><a xlink:href="file:///home/andrew/workspace/flow/flowstdlib/control/tap/tap.html" xlink:title="Tap (#4)">
<ellipse fill="coral" stroke="black" cx="285.39" cy="-91" rx="50.89" ry="18"/>
<text text-anchor="middle" x="285.39" y="-87.3" font-family="Times,serif" font-size="14.00">Tap (#4)</text>
</a>
</g>
</g>
<!-- r3&#45;&gt;r4 -->
<g id="edge11" class="edge">
<title>r3:se&#45;&gt;r4:n</title>
<path fill="none" stroke="black" d="M213.39,-233C255.99,-190.4 282.39,-174.48 285.15,-119.03"/>
<polygon fill="black" stroke="black" points="288.65,-119.08 285.39,-109 281.65,-118.91 288.65,-119.08"/>
<text text-anchor="middle" x="269.39" y="-112.8" font-family="Times,serif" font-size="14.00">data</text>
<text text-anchor="middle" x="230.89" y="-221.8" font-family="Times,serif" font-size="14.00">/sum</text>
</g>
<!-- initializerr2_1 -->
<!-- initializerr2_1&#45;&gt;r2 -->
<g id="edge6" class="edge">
<title>initializerr2_1&#45;&gt;r2:w</title>
<path fill="none" stroke="blue" stroke-dasharray="1,5" d="M310.33,-320.01C325.8,-298.76 353.1,-263.95 372.69,-253.84"/>
<polygon fill="blue" stroke="blue" points="373.78,-257.17 382.39,-251 371.81,-250.45 373.78,-257.17"/>
<text text-anchor="middle" x="339.39" y="-290.8" font-family="Times,serif" font-size="14.00">1</text>
</g>
<!-- r5&#45;&gt;r4 -->
<g id="edge14" class="edge">
<title>r5:se&#45;&gt;r4:ne</title>
<path fill="none" stroke="black" d="M497.39,-146C557.33,-86.06 379.61,-164.75 310.29,-115.64"/>
<polygon fill="black" stroke="black" points="312.3,-112.76 302.39,-109 307.79,-118.12 312.3,-112.76"/>
<text text-anchor="middle" x="327.89" y="-112.8" font-family="Times,serif" font-size="14.00">control</text>
<text text-anchor="middle" x="475.39" y="-134.8" font-family="Times,serif" font-size="14.00">/equal</text>
</g>
<!-- initializerr3_1 -->
<!-- initializerr3_1&#45;&gt;r3 -->
<g id="edge9" class="edge">
<title>initializerr3_1&#45;&gt;r3:w</title>
<path fill="none" stroke="blue" stroke-dasharray="1,5" d="M72.5,-320.01C69.64,-298.47 67.89,-262.99 85.25,-253.43"/>
<polygon fill="blue" stroke="blue" points="86.49,-256.74 95.39,-251 84.85,-249.93 86.49,-256.74"/>
<text text-anchor="middle" x="75.39" y="-290.8" font-family="Times,serif" font-size="14.00">0</text>
</g>
<!-- r6 -->
<g id="node10" class="node">
<title>r6</title>
<g id="a_node10"><a xlink:href="file:///home/andrew/workspace/flow/flowruntime/stdio/stdout.html" xlink:title="Stdout (#6)">
<ellipse fill="coral" stroke="black" cx="336.39" cy="-18" rx="65.79" ry="18"/>
<text text-anchor="middle" x="336.39" y="-14.3" font-family="Times,serif" font-size="14.00">Stdout (#6)</text>
</a>
</g>
</g>
<!-- r4&#45;&gt;r6 -->
<g id="edge12" class="edge">
<title>r4:e&#45;&gt;r6:n</title>
<path fill="none" stroke="black" d="M337.39,-91C358.59,-91 342.27,-68.02 337.56,-45.98"/>
<polygon fill="black" stroke="black" points="341.03,-45.52 336.39,-36 334.08,-46.34 341.03,-45.52"/>
</g>
<!-- initializerr5_0 -->
<!-- initializerr5_0&#45;&gt;r5 -->
<g id="edge13" class="edge">
<title>initializerr5_0&#45;&gt;r5:ne</title>
<path fill="none" stroke="blue" d="M693.84,-236.73C658.17,-226.58 607.7,-212.3 563.39,-200 537.76,-192.88 522.91,-200.9 505.2,-188.61"/>
<polygon fill="blue" stroke="blue" points="507.29,-185.79 497.39,-182 502.76,-191.13 507.29,-185.79"/>
<text text-anchor="middle" x="621.39" y="-203.8" font-family="Times,serif" font-size="14.00">0</text>
</g>
</g>
</svg>
