<?xml version="1.0" encoding="UTF-8" standalone="no"?>
<!DOCTYPE svg PUBLIC "-//W3C//DTD SVG 1.1//EN"
 "http://www.w3.org/Graphics/SVG/1.1/DTD/svg11.dtd">
<!-- Generated by graphviz version 2.44.1 (20200629.0846)
 -->
<!-- Title: tokenizer Pages: 1 -->
<svg width="693pt" height="474pt"
 viewBox="0.00 0.00 692.89 474.00" xmlns="http://www.w3.org/2000/svg" xmlns:xlink="http://www.w3.org/1999/xlink">
<g id="graph0" class="graph" transform="scale(1 1) rotate(0) translate(4 470)">
<title>tokenizer</title>
<polygon fill="white" stroke="transparent" points="-4,4 -4,-470 688.89,-470 688.89,4 -4,4"/>
<text text-anchor="middle" x="342.44" y="-450.8" font-family="Times,serif" font-size="14.00">/tokenizer</text>
<!-- r4 -->
<g id="node1" class="node">
<title>r4</title>
<g id="a_node1"><a xlink:href="file:///Users/andrew/workspace/flow/flowr/src/lib/flowruntime/stdio/readline.html" xlink:title="readline (#4)">
<ellipse fill="coral" stroke="black" cx="492.44" cy="-425" rx="55.79" ry="18"/>
<text text-anchor="middle" x="492.44" y="-421.3" font-family="Times,serif" font-size="14.00">readline (#4)</text>
</a>
</g>
</g>
<!-- r3 -->
<g id="node2" class="node">
<title>r3</title>
<g id="a_node2"><a xlink:href="file:///Users/andrew/workspace/flow/flowstdlib/data/split/split.html" xlink:title="split (#3)">
<ellipse fill="coral" stroke="black" cx="428.44" cy="-338" rx="42.79" ry="18"/>
<text text-anchor="middle" x="428.44" y="-334.3" font-family="Times,serif" font-size="14.00">split (#3)</text>
</a>
</g>
</g>
<!-- r4&#45;&gt;r3 -->
<g id="edge1" class="edge">
<title>r4:se&#45;&gt;r3:n</title>
<path fill="none" stroke="black" d="M509.44,-407C536.82,-379.62 447.27,-395.07 430.95,-366"/>
<polygon fill="black" stroke="black" points="434.27,-364.85 428.44,-356 427.48,-366.55 434.27,-364.85"/>
<text text-anchor="middle" x="412.94" y="-359.8" font-family="Times,serif" font-size="14.00">string</text>
<text text-anchor="middle" x="491.94" y="-395.8" font-family="Times,serif" font-size="14.00">/string</text>
</g>
<!-- r3&#45;&gt;r3 -->
<g id="edge3" class="edge">
<title>r3:e&#45;&gt;r3:n</title>
<path fill="none" stroke="black" d="M471.44,-338C495.34,-327.5 543.34,-327.5 543.34,-347 543.34,-364.94 478.52,-366.37 438.32,-358.32"/>
<polygon fill="black" stroke="black" points="438.98,-354.87 428.44,-356 437.38,-361.69 438.98,-354.87"/>
<text text-anchor="middle" x="443.94" y="-359.8" font-family="Times,serif" font-size="14.00">string</text>
<text text-anchor="middle" x="490.94" y="-341.8" font-family="Times,serif" font-size="14.00">/partial</text>
</g>
<!-- r6 -->
<g id="node4" class="node">
<title>r6</title>
<g id="a_node4"><a xlink:href="file:///Users/andrew/workspace/flow/flowstdlib/math/add/add.html" xlink:title="work&#45;counter (#6)">
<ellipse fill="coral" stroke="black" cx="398.44" cy="-251" rx="75.29" ry="18"/>
<text text-anchor="middle" x="398.44" y="-247.3" font-family="Times,serif" font-size="14.00">work&#45;counter (#6)</text>
</a>
</g>
</g>
<!-- r3&#45;&gt;r6 -->
<g id="edge4" class="edge">
<title>r3:s&#45;&gt;r6:n</title>
<path fill="none" stroke="black" d="M428.44,-320C428.44,-297.61 406.69,-295.44 400.23,-279.05"/>
<polygon fill="black" stroke="black" points="403.64,-278.23 398.44,-269 396.75,-279.46 403.64,-278.23"/>
<text text-anchor="middle" x="392.94" y="-272.8" font-family="Times,serif" font-size="14.00">i1</text>
<text text-anchor="middle" x="412.94" y="-308.8" font-family="Times,serif" font-size="14.00">/delta</text>
</g>
<!-- r2 -->
<g id="node5" class="node">
<title>r2</title>
<g id="a_node5"><a xlink:href="file:///Users/andrew/workspace/flow/flowstdlib/math/add/add.html" xlink:title="token&#45;counter (#2)">
<ellipse fill="coral" stroke="black" cx="156.44" cy="-251" rx="76.89" ry="18"/>
<text text-anchor="middle" x="156.44" y="-247.3" font-family="Times,serif" font-size="14.00">token&#45;counter (#2)</text>
</a>
</g>
</g>
<!-- r3&#45;&gt;r2 -->
<g id="edge5" class="edge">
<title>r3:sw&#45;&gt;r2:n</title>
<path fill="none" stroke="black" d="M411.44,-320C390.83,-299.38 313.04,-292.71 284.44,-287 259.91,-282.1 180.99,-293.88 161.05,-278.01"/>
<polygon fill="black" stroke="black" points="164.12,-276.31 156.44,-269 157.89,-279.5 164.12,-276.31"/>
<text text-anchor="middle" x="150.94" y="-272.8" font-family="Times,serif" font-size="14.00">i1</text>
<text text-anchor="middle" x="376.94" y="-308.8" font-family="Times,serif" font-size="14.00">/token&#45;count</text>
</g>
<!-- initializerr3_1 -->
<!-- initializerr3_1&#45;&gt;r3 -->
<g id="edge2" class="edge">
<title>initializerr3_1&#45;&gt;r3:w</title>
<path fill="none" stroke="blue" d="M315.7,-407.01C330.23,-385.86 355.9,-351.27 374.77,-340.98"/>
<polygon fill="blue" stroke="blue" points="375.92,-344.29 384.44,-338 373.86,-337.6 375.92,-344.29"/>
<text text-anchor="middle" x="346.44" y="-377.8" font-family="Times,serif" font-size="14.00">&quot; &quot;</text>
</g>
<!-- r6&#45;&gt;r6 -->
<g id="edge7" class="edge">
<title>r6:se&#45;&gt;r6:ne</title>
<path fill="none" stroke="black" d="M416.44,-233C465.58,-222.5 545.84,-222.5 545.84,-251 545.84,-277.66 475.59,-279.38 426.3,-270.89"/>
<polygon fill="black" stroke="black" points="426.93,-267.45 416.44,-269 425.6,-274.32 426.93,-267.45"/>
<text text-anchor="middle" x="410.94" y="-272.8" font-family="Times,serif" font-size="14.00">i2</text>
<text text-anchor="middle" x="402.44" y="-221.8" font-family="Times,serif" font-size="14.00">/sum</text>
</g>
<!-- r5 -->
<g id="node7" class="node">
<title>r5</title>
<g id="a_node7"><a xlink:href="file:///Users/andrew/workspace/flow/flowstdlib/math/compare/compare.html" xlink:title="compare (#5)">
<ellipse fill="coral" stroke="black" cx="399.44" cy="-164" rx="58.49" ry="18"/>
<text text-anchor="middle" x="399.44" y="-160.3" font-family="Times,serif" font-size="14.00">compare (#5)</text>
</a>
</g>
</g>
<!-- r6&#45;&gt;r5 -->
<g id="edge8" class="edge">
<title>r6:se&#45;&gt;r5:ne</title>
<path fill="none" stroke="black" d="M416.44,-233C429.84,-219.6 432.04,-204.17 423.04,-190.1"/>
<polygon fill="black" stroke="black" points="425.47,-187.54 416.44,-182 420.04,-191.96 425.47,-187.54"/>
<text text-anchor="middle" x="403.44" y="-185.8" font-family="Times,serif" font-size="14.00">right</text>
<text text-anchor="middle" x="430.44" y="-221.8" font-family="Times,serif" font-size="14.00">/sum</text>
</g>
<!-- r2&#45;&gt;r2 -->
<g id="edge10" class="edge">
<title>r2:se&#45;&gt;r2:ne</title>
<path fill="none" stroke="black" d="M174.44,-233C224.01,-222.5 305.14,-222.5 305.14,-251 305.14,-277.66 234.13,-279.38 184.39,-270.89"/>
<polygon fill="black" stroke="black" points="184.92,-267.43 174.44,-269 183.61,-274.31 184.92,-267.43"/>
<text text-anchor="middle" x="168.94" y="-272.8" font-family="Times,serif" font-size="14.00">i2</text>
<text text-anchor="middle" x="160.44" y="-221.8" font-family="Times,serif" font-size="14.00">/sum</text>
</g>
<!-- r0 -->
<g id="node9" class="node">
<title>r0</title>
<g id="a_node9"><a xlink:href="file:///Users/andrew/workspace/flow/flowstdlib/control/tap/tap.html" xlink:title="tap (#0)">
<ellipse fill="coral" stroke="black" cx="234.44" cy="-91" rx="38.19" ry="18"/>
<text text-anchor="middle" x="234.44" y="-87.3" font-family="Times,serif" font-size="14.00">tap (#0)</text>
</a>
</g>
</g>
<!-- r2&#45;&gt;r0 -->
<g id="edge11" class="edge">
<title>r2:se&#45;&gt;r0:n</title>
<path fill="none" stroke="black" d="M174.44,-233C215.28,-192.16 232.47,-172.51 234.28,-119.01"/>
<polygon fill="black" stroke="black" points="237.78,-119.06 234.44,-109 230.78,-118.94 237.78,-119.06"/>
<text text-anchor="middle" x="222.94" y="-112.8" font-family="Times,serif" font-size="14.00">data</text>
<text text-anchor="middle" x="188.44" y="-221.8" font-family="Times,serif" font-size="14.00">/sum</text>
</g>
<!-- initializerr6_1 -->
<!-- initializerr6_1&#45;&gt;r6 -->
<g id="edge6" class="edge">
<title>initializerr6_1&#45;&gt;r6:w</title>
<path fill="none" stroke="blue" stroke-dasharray="1,5" d="M262.63,-320.01C274.33,-299.25 295.04,-265.55 311.71,-254.58"/>
<polygon fill="blue" stroke="blue" points="313.26,-257.73 321.44,-251 310.85,-251.16 313.26,-257.73"/>
<text text-anchor="middle" x="284.94" y="-290.8" font-family="Times,serif" font-size="14.00">1</text>
</g>
<!-- r5&#45;&gt;r0 -->
<g id="edge14" class="edge">
<title>r5:se&#45;&gt;r0:ne</title>
<path fill="none" stroke="black" d="M416.44,-146C467.56,-94.89 318.43,-155.56 258.31,-114.49"/>
<polygon fill="black" stroke="black" points="260.38,-111.67 250.44,-108 255.93,-117.07 260.38,-111.67"/>
<text text-anchor="middle" x="269.94" y="-111.8" font-family="Times,serif" font-size="14.00">control</text>
<text text-anchor="middle" x="399.44" y="-134.8" font-family="Times,serif" font-size="14.00">/equal</text>
</g>
<!-- initializerr2_1 -->
<!-- initializerr2_1&#45;&gt;r2 -->
<g id="edge9" class="edge">
<title>initializerr2_1&#45;&gt;r2:w</title>
<path fill="none" stroke="blue" stroke-dasharray="1,5" d="M57.19,-320.01C53.87,-298.47 51.34,-262.99 68.41,-253.43"/>
<polygon fill="blue" stroke="blue" points="69.55,-256.76 78.44,-251 67.9,-249.95 69.55,-256.76"/>
<text text-anchor="middle" x="58.94" y="-290.8" font-family="Times,serif" font-size="14.00">0</text>
</g>
<!-- r1 -->
<g id="node10" class="node">
<title>r1</title>
<g id="a_node10"><a xlink:href="file:///Users/andrew/workspace/flow/flowr/src/lib/flowruntime/stdio/stdout.html" xlink:title="stdout (#1)">
<ellipse fill="coral" stroke="black" cx="273.44" cy="-18" rx="49.29" ry="18"/>
<text text-anchor="middle" x="273.44" y="-14.3" font-family="Times,serif" font-size="14.00">stdout (#1)</text>
</a>
</g>
</g>
<!-- r0&#45;&gt;r1 -->
<g id="edge12" class="edge">
<title>r0:e&#45;&gt;r1:n</title>
<path fill="none" stroke="black" d="M274.44,-91C295.65,-91 279.32,-68.02 274.61,-45.98"/>
<polygon fill="black" stroke="black" points="278.09,-45.52 273.44,-36 271.13,-46.34 278.09,-45.52"/>
</g>
<!-- initializerr5_0 -->
<!-- initializerr5_0&#45;&gt;r5 -->
<g id="edge13" class="edge">
<title>initializerr5_0&#45;&gt;r5:ne</title>
<path fill="none" stroke="blue" d="M588.21,-236.43C559.65,-225.93 518.75,-211.33 482.44,-200 457.05,-192.08 442.02,-200.7 424.26,-188.57"/>
<polygon fill="blue" stroke="blue" points="426.35,-185.76 416.44,-182 421.85,-191.11 426.35,-185.76"/>
<text text-anchor="middle" x="528.94" y="-203.8" font-family="Times,serif" font-size="14.00">0</text>
</g>
</g>
</svg>
