<?xml version="1.0" encoding="UTF-8" standalone="no"?>
<!DOCTYPE svg PUBLIC "-//W3C//DTD SVG 1.1//EN"
 "http://www.w3.org/Graphics/SVG/1.1/DTD/svg11.dtd">
<!-- Generated by graphviz version 2.44.0 (20200408.0750)
 -->
<!-- Title: tokenizer Pages: 1 -->
<svg width="693pt" height="474pt"
 viewBox="0.00 0.00 692.89 474.00" xmlns="http://www.w3.org/2000/svg" xmlns:xlink="http://www.w3.org/1999/xlink">
<g id="graph0" class="graph" transform="scale(1 1) rotate(0) translate(4 470)">
<title>tokenizer</title>
<polygon fill="white" stroke="transparent" points="-4,4 -4,-470 688.89,-470 688.89,4 -4,4"/>
<text text-anchor="middle" x="342.44" y="-450.8" font-family="Times,serif" font-size="14.00">/tokenizer</text>
<!-- r0 -->
<g id="node1" class="node">
<title>r0</title>
<g id="a_node1"><a xlink:href="file:///Users/andrew/workspace/flow/flowruntime/stdio/readline.html" xlink:title="Readline (#0)">
<ellipse fill="coral" stroke="black" cx="474.44" cy="-425" rx="59.29" ry="18"/>
<text text-anchor="middle" x="474.44" y="-421.3" font-family="Times,serif" font-size="14.00">Readline (#0)</text>
</a>
</g>
</g>
<!-- r1 -->
<g id="node2" class="node">
<title>r1</title>
<g id="a_node2"><a xlink:href="file:///Users/andrew/workspace/flow/flowstdlib/data/split/split.html" xlink:title="Split (#1)">
<ellipse fill="coral" stroke="black" cx="430.44" cy="-338" rx="44.39" ry="18"/>
<text text-anchor="middle" x="430.44" y="-334.3" font-family="Times,serif" font-size="14.00">Split (#1)</text>
</a>
</g>
</g>
<!-- r0&#45;&gt;r1 -->
<g id="edge1" class="edge">
<title>r0:e&#45;&gt;r1:n</title>
<path fill="none" stroke="black" d="M534.44,-425C542.46,-425 537.86,-413.69 533.44,-407 507.51,-367.69 441.86,-400.93 431.76,-366.34"/>
<polygon fill="black" stroke="black" points="435.18,-365.48 430.44,-356 428.23,-366.36 435.18,-365.48"/>
<text text-anchor="middle" x="414.94" y="-359.8" font-family="Times,serif" font-size="14.00">string</text>
</g>
<!-- r1&#45;&gt;r1 -->
<g id="edge3" class="edge">
<title>r1:e&#45;&gt;r1:n</title>
<path fill="none" stroke="black" d="M475.44,-338C498.64,-327.5 546.64,-327.5 546.64,-347 546.64,-364.94 481.09,-366.37 440.43,-358.32"/>
<polygon fill="black" stroke="black" points="440.98,-354.85 430.44,-356 439.4,-361.67 440.98,-354.85"/>
<text text-anchor="middle" x="445.94" y="-359.8" font-family="Times,serif" font-size="14.00">string</text>
<text text-anchor="middle" x="494.94" y="-341.8" font-family="Times,serif" font-size="14.00">/partial</text>
</g>
<!-- r2 -->
<g id="node4" class="node">
<title>r2</title>
<g id="a_node4"><a xlink:href="file:///Users/andrew/workspace/flow/flowstdlib/math/add/add.html" xlink:title="work&#45;counter (#2)">
<ellipse fill="coral" stroke="black" cx="398.44" cy="-251" rx="75.29" ry="18"/>
<text text-anchor="middle" x="398.44" y="-247.3" font-family="Times,serif" font-size="14.00">work&#45;counter (#2)</text>
</a>
</g>
</g>
<!-- r1&#45;&gt;r2 -->
<g id="edge4" class="edge">
<title>r1:s&#45;&gt;r2:n</title>
<path fill="none" stroke="black" d="M430.44,-320C430.44,-297.21 407.24,-295.66 400.35,-279.17"/>
<polygon fill="black" stroke="black" points="403.73,-278.18 398.44,-269 396.85,-279.47 403.73,-278.18"/>
<text text-anchor="middle" x="392.94" y="-272.8" font-family="Times,serif" font-size="14.00">i1</text>
<text text-anchor="middle" x="414.94" y="-308.8" font-family="Times,serif" font-size="14.00">/delta</text>
</g>
<!-- r3 -->
<g id="node5" class="node">
<title>r3</title>
<g id="a_node5"><a xlink:href="file:///Users/andrew/workspace/flow/flowstdlib/math/add/add.html" xlink:title="token&#45;counter (#3)">
<ellipse fill="coral" stroke="black" cx="156.44" cy="-251" rx="76.89" ry="18"/>
<text text-anchor="middle" x="156.44" y="-247.3" font-family="Times,serif" font-size="14.00">token&#45;counter (#3)</text>
</a>
</g>
</g>
<!-- r1&#45;&gt;r3 -->
<g id="edge5" class="edge">
<title>r1:sw&#45;&gt;r3:n</title>
<path fill="none" stroke="black" d="M413.44,-320C392.67,-299.23 314.26,-292.71 285.44,-287 260.71,-282.1 181.18,-294.04 161.09,-278.07"/>
<polygon fill="black" stroke="black" points="164.12,-276.31 156.44,-269 157.89,-279.5 164.12,-276.31"/>
<text text-anchor="middle" x="150.94" y="-272.8" font-family="Times,serif" font-size="14.00">i1</text>
<text text-anchor="middle" x="378.94" y="-308.8" font-family="Times,serif" font-size="14.00">/token&#45;count</text>
</g>
<!-- initializerr1_1 -->
<!-- initializerr1_1&#45;&gt;r1 -->
<g id="edge2" class="edge">
<title>initializerr1_1&#45;&gt;r1:w</title>
<path fill="none" stroke="blue" d="M297.05,-407.42C316.66,-385.84 351.66,-349.78 374.58,-340.33"/>
<polygon fill="blue" stroke="blue" points="375.52,-343.7 384.44,-338 373.91,-336.89 375.52,-343.7"/>
<text text-anchor="middle" x="335.44" y="-377.8" font-family="Times,serif" font-size="14.00">&quot; &quot;</text>
</g>
<!-- r2&#45;&gt;r2 -->
<g id="edge7" class="edge">
<title>r2:se&#45;&gt;r2:ne</title>
<path fill="none" stroke="black" d="M416.44,-233C465.58,-222.5 545.84,-222.5 545.84,-251 545.84,-277.66 475.59,-279.38 426.3,-270.89"/>
<polygon fill="black" stroke="black" points="426.93,-267.45 416.44,-269 425.6,-274.32 426.93,-267.45"/>
<text text-anchor="middle" x="410.94" y="-272.8" font-family="Times,serif" font-size="14.00">i2</text>
<text text-anchor="middle" x="402.44" y="-221.8" font-family="Times,serif" font-size="14.00">/sum</text>
</g>
<!-- r5 -->
<g id="node7" class="node">
<title>r5</title>
<g id="a_node7"><a xlink:href="file:///Users/andrew/workspace/flow/flowstdlib/math/compare/compare.html" xlink:title="Compare (#5)">
<ellipse fill="coral" stroke="black" cx="399.44" cy="-164" rx="60.39" ry="18"/>
<text text-anchor="middle" x="399.44" y="-160.3" font-family="Times,serif" font-size="14.00">Compare (#5)</text>
</a>
</g>
</g>
<!-- r2&#45;&gt;r5 -->
<g id="edge8" class="edge">
<title>r2:se&#45;&gt;r5:ne</title>
<path fill="none" stroke="black" d="M416.44,-233C429.84,-219.6 432.04,-204.17 423.04,-190.1"/>
<polygon fill="black" stroke="black" points="425.47,-187.54 416.44,-182 420.04,-191.96 425.47,-187.54"/>
<text text-anchor="middle" x="403.44" y="-185.8" font-family="Times,serif" font-size="14.00">right</text>
<text text-anchor="middle" x="430.44" y="-221.8" font-family="Times,serif" font-size="14.00">/sum</text>
</g>
<!-- r3&#45;&gt;r3 -->
<g id="edge10" class="edge">
<title>r3:se&#45;&gt;r3:ne</title>
<path fill="none" stroke="black" d="M174.44,-233C224.01,-222.5 305.14,-222.5 305.14,-251 305.14,-277.66 234.13,-279.38 184.39,-270.89"/>
<polygon fill="black" stroke="black" points="184.92,-267.43 174.44,-269 183.61,-274.31 184.92,-267.43"/>
<text text-anchor="middle" x="168.94" y="-272.8" font-family="Times,serif" font-size="14.00">i2</text>
<text text-anchor="middle" x="160.44" y="-221.8" font-family="Times,serif" font-size="14.00">/sum</text>
</g>
<!-- r4 -->
<g id="node9" class="node">
<title>r4</title>
<g id="a_node9"><a xlink:href="file:///Users/andrew/workspace/flow/flowstdlib/control/tap/tap.html" xlink:title="Tap (#4)">
<ellipse fill="coral" stroke="black" cx="233.44" cy="-91" rx="41.69" ry="18"/>
<text text-anchor="middle" x="233.44" y="-87.3" font-family="Times,serif" font-size="14.00">Tap (#4)</text>
</a>
</g>
</g>
<!-- r3&#45;&gt;r4 -->
<g id="edge11" class="edge">
<title>r3:se&#45;&gt;r4:n</title>
<path fill="none" stroke="black" d="M174.44,-233C215.07,-192.37 231.49,-172.43 233.28,-119.32"/>
<polygon fill="black" stroke="black" points="236.78,-119.05 233.44,-109 229.78,-118.94 236.78,-119.05"/>
<text text-anchor="middle" x="221.94" y="-112.8" font-family="Times,serif" font-size="14.00">data</text>
<text text-anchor="middle" x="188.44" y="-221.8" font-family="Times,serif" font-size="14.00">/sum</text>
</g>
<!-- initializerr2_1 -->
<!-- initializerr2_1&#45;&gt;r2 -->
<g id="edge6" class="edge">
<title>initializerr2_1&#45;&gt;r2:w</title>
<path fill="none" stroke="blue" stroke-dasharray="1,5" d="M262.63,-320.01C274.33,-299.25 295.04,-265.55 311.71,-254.58"/>
<polygon fill="blue" stroke="blue" points="313.26,-257.73 321.44,-251 310.85,-251.16 313.26,-257.73"/>
<text text-anchor="middle" x="284.94" y="-290.8" font-family="Times,serif" font-size="14.00">1</text>
</g>
<!-- r5&#45;&gt;r4 -->
<g id="edge14" class="edge">
<title>r5:se&#45;&gt;r4:ne</title>
<path fill="none" stroke="black" d="M416.44,-146C467.49,-94.95 318.36,-156.42 258.3,-115.48"/>
<polygon fill="black" stroke="black" points="260.39,-112.66 250.44,-109 255.93,-118.06 260.39,-112.66"/>
<text text-anchor="middle" x="269.94" y="-112.8" font-family="Times,serif" font-size="14.00">control</text>
<text text-anchor="middle" x="399.44" y="-134.8" font-family="Times,serif" font-size="14.00">/equal</text>
</g>
<!-- initializerr3_1 -->
<!-- initializerr3_1&#45;&gt;r3 -->
<g id="edge9" class="edge">
<title>initializerr3_1&#45;&gt;r3:w</title>
<path fill="none" stroke="blue" stroke-dasharray="1,5" d="M57.19,-320.01C53.87,-298.47 51.34,-262.99 68.41,-253.43"/>
<polygon fill="blue" stroke="blue" points="69.55,-256.76 78.44,-251 67.9,-249.95 69.55,-256.76"/>
<text text-anchor="middle" x="57.94" y="-290.8" font-family="Times,serif" font-size="14.00">0</text>
</g>
<!-- r6 -->
<g id="node10" class="node">
<title>r6</title>
<g id="a_node10"><a xlink:href="file:///Users/andrew/workspace/flow/flowruntime/stdio/stdout.html" xlink:title="Stdout (#6)">
<ellipse fill="coral" stroke="black" cx="275.44" cy="-18" rx="50.89" ry="18"/>
<text text-anchor="middle" x="275.44" y="-14.3" font-family="Times,serif" font-size="14.00">Stdout (#6)</text>
</a>
</g>
</g>
<!-- r4&#45;&gt;r6 -->
<g id="edge12" class="edge">
<title>r4:e&#45;&gt;r6:n</title>
<path fill="none" stroke="black" d="M276.44,-91C297.65,-91 281.32,-68.02 276.61,-45.98"/>
<polygon fill="black" stroke="black" points="280.09,-45.52 275.44,-36 273.13,-46.34 280.09,-45.52"/>
</g>
<!-- initializerr5_0 -->
<!-- initializerr5_0&#45;&gt;r5 -->
<g id="edge13" class="edge">
<title>initializerr5_0&#45;&gt;r5:ne</title>
<path fill="none" stroke="blue" d="M588.21,-236.43C559.65,-225.93 518.75,-211.33 482.44,-200 457.05,-192.08 442.02,-200.7 424.26,-188.57"/>
<polygon fill="blue" stroke="blue" points="426.35,-185.76 416.44,-182 421.85,-191.11 426.35,-185.76"/>
<text text-anchor="middle" x="528.94" y="-203.8" font-family="Times,serif" font-size="14.00">0</text>
</g>
</g>
</svg>
