<?xml version="1.0" encoding="UTF-8" standalone="no"?>
<!DOCTYPE svg PUBLIC "-//W3C//DTD SVG 1.1//EN"
 "http://www.w3.org/Graphics/SVG/1.1/DTD/svg11.dtd">
<!-- Generated by graphviz version 2.42.3 (20191010.1750)
 -->
<!-- Title: tokenizer Pages: 1 -->
<svg width="690pt" height="470pt"
 viewBox="0.00 0.00 690.40 470.00" xmlns="http://www.w3.org/2000/svg" xmlns:xlink="http://www.w3.org/1999/xlink">
<g id="graph0" class="graph" transform="scale(1 1) rotate(0) translate(4 466)">
<title>tokenizer</title>
<polygon fill="white" stroke="transparent" points="-4,4 -4,-466 686.4,-466 686.4,4 -4,4"/>
<text text-anchor="middle" x="341.2" y="-446.8" font-family="Times,serif" font-size="14.00">/tokenizer</text>
<!-- r0 -->
<g id="node1" class="node">
<title>r0</title>
<g id="a_node1"><a xlink:href="file:///Users/andrew/workspace/flow/flowruntime/stdio/readline.toml" xlink:title="Readline (#0)">
<ellipse fill="coral" stroke="black" cx="472.2" cy="-422" rx="58.46" ry="18"/>
<text text-anchor="middle" x="472.2" y="-417.8" font-family="Times,serif" font-size="14.00">Readline (#0)</text>
</a>
</g>
</g>
<!-- r1 -->
<g id="node2" class="node">
<title>r1</title>
<g id="a_node2"><a xlink:href="file:///Users/andrew/workspace/flow/flowstdlib/data/split/split.toml" xlink:title="Split (#1)">
<ellipse fill="coral" stroke="black" cx="428.2" cy="-336" rx="43.53" ry="18"/>
<text text-anchor="middle" x="428.2" y="-331.8" font-family="Times,serif" font-size="14.00">Split (#1)</text>
</a>
</g>
</g>
<!-- r0&#45;&gt;r1 -->
<g id="edge1" class="edge">
<title>r0:e&#45;&gt;r1:n</title>
<path fill="none" stroke="black" d="M532.2,-422C540.21,-422 535.64,-410.67 531.2,-404 505.21,-364.95 439.61,-398.65 429.51,-364.29"/>
<polygon fill="black" stroke="black" points="432.94,-363.48 428.2,-354 425.99,-364.36 432.94,-363.48"/>
<text text-anchor="middle" x="412.26" y="-356.8" font-family="Times,serif" font-size="14.00">string</text>
</g>
<!-- r1&#45;&gt;r1 -->
<g id="edge3" class="edge">
<title>r1:e&#45;&gt;r1:n</title>
<path fill="none" stroke="black" d="M472.2,-336C495.96,-325.5 543.96,-325.5 543.96,-345 543.96,-362.94 478.65,-364.37 438.15,-356.32"/>
<polygon fill="black" stroke="black" points="438.73,-352.86 428.2,-354 437.15,-359.68 438.73,-352.86"/>
<text text-anchor="middle" x="444.15" y="-356.8" font-family="Times,serif" font-size="14.00">string</text>
<text text-anchor="middle" x="492.03" y="-338.8" font-family="Times,serif" font-size="14.00">/partial</text>
</g>
<!-- r2 -->
<g id="node4" class="node">
<title>r2</title>
<g id="a_node4"><a xlink:href="file:///Users/andrew/workspace/flow/flowstdlib/math/add/add.toml" xlink:title="work&#45;counter (#2)">
<ellipse fill="coral" stroke="black" cx="397.2" cy="-250" rx="74.88" ry="18"/>
<text text-anchor="middle" x="397.2" y="-245.8" font-family="Times,serif" font-size="14.00">work&#45;counter (#2)</text>
</a>
</g>
</g>
<!-- r1&#45;&gt;r2 -->
<g id="edge4" class="edge">
<title>r1:s&#45;&gt;r2:n</title>
<path fill="none" stroke="black" d="M428.2,-318C428.2,-295.73 405.72,-294.09 399.05,-277.95"/>
<polygon fill="black" stroke="black" points="402.47,-277.19 397.2,-268 395.58,-278.47 402.47,-277.19"/>
<text text-anchor="middle" x="391.76" y="-270.8" font-family="Times,serif" font-size="14.00">i1</text>
<text text-anchor="middle" x="412.65" y="-306.8" font-family="Times,serif" font-size="14.00">/delta</text>
</g>
<!-- r3 -->
<g id="node5" class="node">
<title>r3</title>
<g id="a_node5"><a xlink:href="file:///Users/andrew/workspace/flow/flowstdlib/math/add/add.toml" xlink:title="token&#45;counter (#3)">
<ellipse fill="coral" stroke="black" cx="156.2" cy="-250" rx="76.32" ry="18"/>
<text text-anchor="middle" x="156.2" y="-245.8" font-family="Times,serif" font-size="14.00">token&#45;counter (#3)</text>
</a>
</g>
</g>
<!-- r1&#45;&gt;r3 -->
<g id="edge5" class="edge">
<title>r1:sw&#45;&gt;r3:n</title>
<path fill="none" stroke="black" d="M411.2,-318C390.62,-297.42 312.76,-291.59 284.2,-286 259.65,-281.19 180.74,-292.9 160.81,-277.01"/>
<polygon fill="black" stroke="black" points="163.87,-275.31 156.2,-268 157.64,-278.5 163.87,-275.31"/>
<text text-anchor="middle" x="150.76" y="-270.8" font-family="Times,serif" font-size="14.00">i1</text>
<text text-anchor="middle" x="375.82" y="-306.8" font-family="Times,serif" font-size="14.00">/token&#45;count</text>
</g>
<!-- initializerr1_1 -->
<!-- initializerr1_1&#45;&gt;r1 -->
<g id="edge2" class="edge">
<title>initializerr1_1&#45;&gt;r1:w</title>
<path fill="none" stroke="blue" d="M296.21,-404.21C315.93,-382.82 350.71,-347.53 373.43,-338.28"/>
<polygon fill="blue" stroke="blue" points="374.26,-341.68 383.2,-336 372.67,-334.86 374.26,-341.68"/>
<text text-anchor="middle" x="333.67" y="-374.8" font-family="Times,serif" font-size="14.00">&quot; &quot;</text>
</g>
<!-- r2&#45;&gt;r2 -->
<g id="edge7" class="edge">
<title>r2:se&#45;&gt;r2:ne</title>
<path fill="none" stroke="black" d="M415.2,-232C464.1,-221.5 543.89,-221.5 543.89,-250 543.89,-276.61 474.34,-278.37 425.32,-269.95"/>
<polygon fill="black" stroke="black" points="425.68,-266.45 415.2,-268 424.36,-273.33 425.68,-266.45"/>
<text text-anchor="middle" x="409.76" y="-270.8" font-family="Times,serif" font-size="14.00">i2</text>
<text text-anchor="middle" x="401.59" y="-220.8" font-family="Times,serif" font-size="14.00">/sum</text>
</g>
<!-- r5 -->
<g id="node7" class="node">
<title>r5</title>
<g id="a_node7"><a xlink:href="file:///Users/andrew/workspace/flow/flowstdlib/math/compare/compare.toml" xlink:title="Compare (#5)">
<ellipse fill="coral" stroke="black" cx="398.2" cy="-164" rx="59.43" ry="18"/>
<text text-anchor="middle" x="398.2" y="-159.8" font-family="Times,serif" font-size="14.00">Compare (#5)</text>
</a>
</g>
</g>
<!-- r2&#45;&gt;r5 -->
<g id="edge8" class="edge">
<title>r2:se&#45;&gt;r5:ne</title>
<path fill="none" stroke="black" d="M415.2,-232C428.34,-218.86 430.49,-203.73 421.67,-189.94"/>
<polygon fill="black" stroke="black" points="424.23,-187.54 415.2,-182 418.8,-191.96 424.23,-187.54"/>
<text text-anchor="middle" x="401.98" y="-184.8" font-family="Times,serif" font-size="14.00">right</text>
<text text-anchor="middle" x="428.81" y="-220.8" font-family="Times,serif" font-size="14.00">/sum</text>
</g>
<!-- r3&#45;&gt;r3 -->
<g id="edge10" class="edge">
<title>r3:se&#45;&gt;r3:ne</title>
<path fill="none" stroke="black" d="M174.2,-232C223.59,-221.5 304.36,-221.5 304.36,-250 304.36,-276.66 233.66,-278.38 184.11,-269.89"/>
<polygon fill="black" stroke="black" points="184.68,-266.44 174.2,-268 183.37,-273.32 184.68,-266.44"/>
<text text-anchor="middle" x="168.76" y="-270.8" font-family="Times,serif" font-size="14.00">i2</text>
<text text-anchor="middle" x="160.59" y="-220.8" font-family="Times,serif" font-size="14.00">/sum</text>
</g>
<!-- r4 -->
<g id="node9" class="node">
<title>r4</title>
<g id="a_node9"><a xlink:href="file:///Users/andrew/workspace/flow/flowstdlib/control/tap/tap.toml" xlink:title="Tap (#4)">
<ellipse fill="coral" stroke="black" cx="233.2" cy="-91" rx="40.37" ry="18"/>
<text text-anchor="middle" x="233.2" y="-86.8" font-family="Times,serif" font-size="14.00">Tap (#4)</text>
</a>
</g>
</g>
<!-- r3&#45;&gt;r4 -->
<g id="edge11" class="edge">
<title>r3:se&#45;&gt;r4:n</title>
<path fill="none" stroke="black" d="M174.2,-232C214.56,-191.64 231.22,-172 233.03,-119.25"/>
<polygon fill="black" stroke="black" points="236.54,-119.06 233.2,-109 229.54,-118.94 236.54,-119.06"/>
<text text-anchor="middle" x="221.54" y="-111.8" font-family="Times,serif" font-size="14.00">data</text>
<text text-anchor="middle" x="187.81" y="-220.8" font-family="Times,serif" font-size="14.00">/sum</text>
</g>
<!-- initializerr2_1 -->
<!-- initializerr2_1&#45;&gt;r2 -->
<g id="edge6" class="edge">
<title>initializerr2_1&#45;&gt;r2:w</title>
<path fill="none" stroke="blue" stroke-dasharray="1,5" d="M261.59,-318.21C273.54,-297.69 294.65,-264.38 311.43,-253.53"/>
<polygon fill="blue" stroke="blue" points="312.99,-256.69 321.2,-250 310.61,-250.11 312.99,-256.69"/>
<text text-anchor="middle" x="283.7" y="-288.8" font-family="Times,serif" font-size="14.00">1</text>
</g>
<!-- r5&#45;&gt;r4 -->
<g id="edge14" class="edge">
<title>r5:se&#45;&gt;r4:ne</title>
<path fill="none" stroke="black" d="M415.2,-146C465.96,-95.24 317.73,-156.16 258.01,-115.44"/>
<polygon fill="black" stroke="black" points="260.14,-112.66 250.2,-109 255.69,-118.06 260.14,-112.66"/>
<text text-anchor="middle" x="270.03" y="-111.8" font-family="Times,serif" font-size="14.00">control</text>
<text text-anchor="middle" x="398.1" y="-134.8" font-family="Times,serif" font-size="14.00">/equal</text>
</g>
<!-- initializerr3_1 -->
<!-- initializerr3_1&#45;&gt;r3 -->
<g id="edge9" class="edge">
<title>initializerr3_1&#45;&gt;r3:w</title>
<path fill="none" stroke="blue" stroke-dasharray="1,5" d="M57.15,-317.8C54.17,-296.45 52.27,-261.72 69.26,-252.38"/>
<polygon fill="blue" stroke="blue" points="70.29,-255.73 79.2,-250 68.66,-248.92 70.29,-255.73"/>
<text text-anchor="middle" x="58.7" y="-288.8" font-family="Times,serif" font-size="14.00">0</text>
</g>
<!-- r6 -->
<g id="node10" class="node">
<title>r6</title>
<g id="a_node10"><a xlink:href="file:///Users/andrew/workspace/flow/flowruntime/stdio/stdout.toml" xlink:title="Stdout (#6)">
<ellipse fill="coral" stroke="black" cx="274.2" cy="-18" rx="50.3" ry="18"/>
<text text-anchor="middle" x="274.2" y="-13.8" font-family="Times,serif" font-size="14.00">Stdout (#6)</text>
</a>
</g>
</g>
<!-- r4&#45;&gt;r6 -->
<g id="edge12" class="edge">
<title>r4:e&#45;&gt;r6:n</title>
<path fill="none" stroke="black" d="M275.2,-91C296.4,-91 280.08,-68.02 275.37,-45.98"/>
<polygon fill="black" stroke="black" points="278.84,-45.52 274.2,-36 271.89,-46.34 278.84,-45.52"/>
</g>
<!-- initializerr5_0 -->
<!-- initializerr5_0&#45;&gt;r5 -->
<g id="edge13" class="edge">
<title>initializerr5_0&#45;&gt;r5:ne</title>
<path fill="none" stroke="blue" d="M585.91,-235.62C557.56,-225.36 517.1,-211.12 481.2,-200 455.79,-192.13 440.78,-200.71 423.02,-188.58"/>
<polygon fill="blue" stroke="blue" points="425.11,-185.76 415.2,-182 420.6,-191.12 425.11,-185.76"/>
<text text-anchor="middle" x="526.7" y="-202.8" font-family="Times,serif" font-size="14.00">0</text>
</g>
</g>
</svg>
