<?xml version="1.0" encoding="UTF-8" standalone="no"?>
<!DOCTYPE svg PUBLIC "-//W3C//DTD SVG 1.1//EN"
 "http://www.w3.org/Graphics/SVG/1.1/DTD/svg11.dtd">
<!-- Generated by graphviz version 2.42.3 (20191010.1750)
 -->
<!-- Title: tokenizer Pages: 1 -->
<svg width="331pt" height="225pt"
 viewBox="0.00 0.00 330.96 225.00" xmlns="http://www.w3.org/2000/svg" xmlns:xlink="http://www.w3.org/1999/xlink">
<g id="graph0" class="graph" transform="scale(1 1) rotate(0) translate(4 221)">
<title>tokenizer</title>
<polygon fill="white" stroke="transparent" points="-4,4 -4,-221 326.96,-221 326.96,4 -4,4"/>
<text text-anchor="middle" x="161.48" y="-201.8" font-family="Times,serif" font-size="14.00">/tokenizer</text>
<!-- r0 -->
<g id="node1" class="node">
<title>r0</title>
<g id="a_node1"><a xlink:href="file:///Users/andrew/workspace/flow/flowruntime/stdio/readline.toml" xlink:title="Readline (#0)">
<ellipse fill="coral" stroke="black" cx="251.2" cy="-177" rx="58.46" ry="18"/>
<text text-anchor="middle" x="251.2" y="-172.8" font-family="Times,serif" font-size="14.00">Readline (#0)</text>
</a>
</g>
</g>
<!-- r1 -->
<g id="node2" class="node">
<title>r1</title>
<g id="a_node2"><a xlink:href="file:///Users/andrew/workspace/flow/flowstdlib/data/split/split.toml" xlink:title="Split (#1)">
<ellipse fill="coral" stroke="black" cx="207.2" cy="-91" rx="43.53" ry="18"/>
<text text-anchor="middle" x="207.2" y="-86.8" font-family="Times,serif" font-size="14.00">Split (#1)</text>
</a>
</g>
</g>
<!-- r0&#45;&gt;r1 -->
<g id="edge1" class="edge">
<title>r0:e&#45;&gt;r1:n</title>
<path fill="none" stroke="black" d="M311.2,-177C319.21,-177 314.64,-165.67 310.2,-159 284.21,-119.95 218.61,-153.65 208.51,-119.29"/>
<polygon fill="black" stroke="black" points="211.94,-118.48 207.2,-109 204.99,-119.36 211.94,-118.48"/>
<text text-anchor="middle" x="191.26" y="-111.8" font-family="Times,serif" font-size="14.00">string</text>
</g>
<!-- r1&#45;&gt;r1 -->
<g id="edge3" class="edge">
<title>r1:e&#45;&gt;r1:n</title>
<path fill="none" stroke="black" d="M251.2,-91C274.96,-82 322.96,-82 322.96,-100 322.96,-116.56 257.65,-117.88 217.15,-110.98"/>
<polygon fill="black" stroke="black" points="217.69,-107.52 207.2,-109 216.32,-114.39 217.69,-107.52"/>
<text text-anchor="middle" x="223.15" y="-111.8" font-family="Times,serif" font-size="14.00">string</text>
<text text-anchor="middle" x="271.03" y="-93.8" font-family="Times,serif" font-size="14.00">/partial</text>
</g>
<!-- r2 -->
<g id="node4" class="node">
<title>r2</title>
<g id="a_node4"><a xlink:href="file:///Users/andrew/workspace/flow/flowruntime/stdio/stdout.toml" xlink:title="Stdout (#2)">
<ellipse fill="coral" stroke="black" cx="207.2" cy="-18" rx="50.3" ry="18"/>
<text text-anchor="middle" x="207.2" y="-13.8" font-family="Times,serif" font-size="14.00">Stdout (#2)</text>
</a>
</g>
</g>
<!-- r1&#45;&gt;r2 -->
<g id="edge4" class="edge">
<title>r1:s&#45;&gt;r2:n</title>
<path fill="none" stroke="black" d="M207.2,-73C207.2,-60.54 207.2,-55.16 207.2,-46.13"/>
<polygon fill="black" stroke="black" points="210.7,-46 207.2,-36 203.7,-46 210.7,-46"/>
<text text-anchor="middle" x="189.7" y="-61.8" font-family="Times,serif" font-size="14.00">/token</text>
</g>
<!-- initializerr1_1 -->
<!-- initializerr1_1&#45;&gt;r1 -->
<g id="edge2" class="edge">
<title>initializerr1_1&#45;&gt;r1:w</title>
<path fill="none" stroke="blue" d="M70.06,-159.21C84.71,-136.47 114.56,-98 151.99,-91.84"/>
<polygon fill="blue" stroke="blue" points="152.52,-95.31 162.2,-91 151.95,-88.33 152.52,-95.31"/>
<text text-anchor="middle" x="101.67" y="-129.8" font-family="Times,serif" font-size="14.00">&quot; &quot;</text>
</g>
</g>
</svg>
