<?xml version="1.0" encoding="UTF-8" standalone="no"?>
<!DOCTYPE svg PUBLIC "-//W3C//DTD SVG 1.1//EN"
 "http://www.w3.org/Graphics/SVG/1.1/DTD/svg11.dtd">
<!-- Generated by graphviz version 2.42.3 (20191010.1750)
 -->
<!-- Title: tokenizer Pages: 1 -->
<svg width="381pt" height="283pt"
     viewBox="28.80 28.80 352.70 253.80" xmlns="http://www.w3.org/2000/svg">
<g id="graph0" class="graph" transform="scale(1 1) rotate(0) translate(32.8 249.8)">
<title>tokenizer</title>
<polygon fill="white" stroke="transparent" points="-4,4 -4,-221 319.9,-221 319.9,4 -4,4"/>
<text text-anchor="middle" x="157.95" y="-201.8" font-family="Times,serif" font-size="14.00">tokenizer</text>
<!-- /tokenizer/Readline -->
<g id="node1" class="node">
<title>/tokenizer/Readline</title>
<ellipse fill="coral" stroke="black" cx="41.54" cy="-177" rx="41.58" ry="18"/>
<text text-anchor="middle" x="41.54" y="-172.8" font-family="Times,serif" font-size="14.00">Readline</text>
</g>
<!-- /tokenizer/Split -->
<g id="node2" class="node">
<title>/tokenizer/Split</title>
<ellipse fill="coral" stroke="black" cx="172.54" cy="-91" rx="27" ry="18"/>
<text text-anchor="middle" x="172.54" y="-86.8" font-family="Times,serif" font-size="14.00">Split</text>
</g>
<!-- /tokenizer/Readline&#45;&gt;/tokenizer/Split -->
<g id="edge2" class="edge">
<title>/tokenizer/Readline:e&#45;&gt;/tokenizer/Split:w</title>
<path fill="none" stroke="black" d="M84.54,-177C93.29,-177 88.07,-166.53 92.54,-159 110.06,-129.48 107.32,-97.87 134.57,-91.97"/>
<polygon fill="black" stroke="black" points="134.93,-95.46 144.54,-91 134.25,-88.49 134.93,-95.46"/>
<text text-anchor="middle" x="128.59" y="-93.8" font-family="Times,serif" font-size="14.00">string</text>
</g>
<!-- /tokenizer/Split&#45;&gt;/tokenizer/Split -->
<g id="edge3" class="edge">
<title>/tokenizer/Split:s&#45;&gt;/tokenizer/Split:w</title>
<path fill="none" stroke="black" d="M172.54,-73C157.54,-64 127.54,-64 127.54,-82 127.54,-93.25 132.23,-97.47 137.21,-96.85"/>
<polygon fill="black" stroke="black" points="139.37,-99.61 145.54,-91 135.34,-93.88 139.37,-99.61"/>
<text text-anchor="middle" x="144.49" y="-57.62" font-family="Times,serif" font-size="14.00">partial</text>
<text text-anchor="middle" x="129.59" y="-79.8" font-family="Times,serif" font-size="14.00">string</text>
</g>
<!-- /tokenizer/Stdout -->
<g id="node4" class="node">
<title>/tokenizer/Stdout</title>
<ellipse fill="coral" stroke="black" cx="206.54" cy="-18" rx="33.41" ry="18"/>
<text text-anchor="middle" x="206.54" y="-13.8" font-family="Times,serif" font-size="14.00">Stdout</text>
</g>
<!-- /tokenizer/Split&#45;&gt;/tokenizer/Stdout -->
<g id="edge4" class="edge">
<title>/tokenizer/Split:s&#45;&gt;/tokenizer/Stdout:w</title>
<path fill="none" stroke="black" d="M172.54,-73C172.54,-53.71 156.69,-30.62 162.02,-21.73"/>
<polygon fill="black" stroke="black" points="163.51,-24.91 171.54,-18 160.95,-18.39 163.51,-24.91"/>
<text text-anchor="middle" x="149.71" y="-32.21" font-family="Times,serif" font-size="14.00">token</text>
</g>
<!-- initializer/tokenizer/Split_1 -->
<!-- initializer/tokenizer/Split_1&#45;&gt;/tokenizer/Split -->
<g id="edge1" class="edge">
<title>initializer/tokenizer/Split_1&#45;&gt;/tokenizer/Split:w</title>
<path fill="none" stroke="blue" d="M187.65,-159.21C162.14,-137.92 123.67,-102.85 134.81,-93.4"/>
<polygon fill="blue" stroke="blue" points="135.67,-96.8 144.54,-91 133.99,-90 135.67,-96.8"/>
<text text-anchor="middle" x="172" y="-129.8" font-family="Times,serif" font-size="14.00">&quot; &quot;</text>
</g>
</g>
</svg>
