<?xml version="1.0" encoding="UTF-8" standalone="no"?>
<!DOCTYPE svg PUBLIC "-//W3C//DTD SVG 1.1//EN"
 "http://www.w3.org/Graphics/SVG/1.1/DTD/svg11.dtd">
<!-- Generated by graphviz version 2.43.0 (0)
 -->
<!-- Title: candidates Pages: 1 -->
<svg width="1253pt" height="449pt"
 viewBox="28.80 28.80 1224.42 419.80" xmlns="http://www.w3.org/2000/svg" xmlns:xlink="http://www.w3.org/1999/xlink">
<g id="graph0" class="graph" transform="scale(1 1) rotate(0) translate(32.8 415.8)">
<title>candidates</title>
<polygon fill="white" stroke="transparent" points="-4,4 -4,-387 1191.62,-387 1191.62,4 -4,4"/>
<text text-anchor="middle" x="593.81" y="-367.8" font-family="Times,serif" font-size="14.00">candidates</text>
<!-- /prime/candidates/limit -->
<g id="node1" class="node">
<title>/prime/candidates/limit</title>
<polygon fill="white" stroke="black" points="751.87,-347.56 711.53,-360 671.2,-347.56 671.23,-327.44 751.83,-327.44 751.87,-347.56"/>
<text text-anchor="middle" x="711.53" y="-338.3" font-family="Times,serif" font-size="14.00">limit</text>
</g>
<!-- /prime/candidates/accumulate -->
<g id="node4" class="node">
<title>/prime/candidates/accumulate</title>
<g id="a_node4"><a xlink:href="../../target/flowstdlib/data/accumulate/accumulate.html" xlink:title="accumulate">
<ellipse fill="coral" stroke="black" cx="401.53" cy="-144" rx="63.89" ry="18"/>
<text text-anchor="middle" x="401.53" y="-140.3" font-family="Times,serif" font-size="14.00">accumulate</text>
</a>
</g>
</g>
<!-- /prime/candidates/limit&#45;&gt;/prime/candidates/accumulate -->
<g id="edge4" class="edge">
<title>/prime/candidates/limit:s&#45;&gt;/prime/candidates/accumulate:n</title>
<path fill="none" stroke="black" d="M711.53,-326C711.53,-260.78 467.13,-333.63 420.53,-288 382.89,-251.14 399.13,-222.92 401.31,-173.23"/>
<polygon fill="black" stroke="black" points="404.81,-173.08 401.53,-163 397.81,-172.92 404.81,-173.08"/>
<text text-anchor="middle" x="362.53" y="-166.8" font-family="Times,serif" font-size="14.00">chunk_size</text>
</g>
<!-- /prime/candidates/sequence/limit -->
<g id="node6" class="node">
<title>/prime/candidates/sequence/limit</title>
<ellipse fill="none" stroke="black" cx="1022.53" cy="-270" rx="165.17" ry="18"/>
<text text-anchor="middle" x="1022.53" y="-266.3" font-family="Times,serif" font-size="14.00">/prime/candidates/sequence/limit</text>
</g>
<!-- /prime/candidates/limit&#45;&gt;/prime/candidates/sequence/limit -->
<g id="edge2" class="edge">
<title>/prime/candidates/limit:s&#45;&gt;/prime/candidates/sequence/limit:n</title>
<path fill="none" stroke="black" d="M711.53,-326C711.53,-260.18 989.45,-347.06 1019.84,-297.95"/>
<polygon fill="black" stroke="black" points="1023.3,-298.57 1022.53,-288 1016.55,-296.74 1023.3,-298.57"/>
</g>
<!-- /prime/candidates/candidates -->
<g id="node2" class="node">
<title>/prime/candidates/candidates</title>
<polygon fill="black" stroke="black" points="344,-12.44 419.53,0 495.07,-12.44 495,-32.56 344.07,-32.56 344,-12.44"/>
<text text-anchor="middle" x="419.53" y="-14.3" font-family="Times,serif" font-size="14.00" fill="white">candidates</text>
</g>
<!-- /prime/candidates/sequence -->
<g id="node3" class="node">
<title>/prime/candidates/sequence</title>
<g id="a_node3"><a xlink:href="../../target/flowstdlib/math/sequence.toml.dot.svg" xlink:title="sequence">
<ellipse fill="aquamarine" stroke="black" cx="591.53" cy="-144" rx="72" ry="72"/>
<text text-anchor="middle" x="591.53" y="-140.3" font-family="Times,serif" font-size="14.00">sequence</text>
</a>
</g>
</g>
<!-- /prime/candidates/accumulate&#45;&gt;/prime/candidates/candidates -->
<g id="edge7" class="edge">
<title>/prime/candidates/accumulate:se&#45;&gt;/prime/candidates/candidates:n</title>
<path fill="none" stroke="black" d="M419.53,-125C445.67,-98.86 424.03,-78.27 420.11,-44.03"/>
<polygon fill="black" stroke="black" points="423.6,-43.78 419.53,-34 416.62,-44.19 423.6,-43.78"/>
<text text-anchor="middle" x="406.85" y="-80.98" font-family="Times,serif" font-size="14.00">chunk</text>
</g>
<!-- /prime/candidates/accumulate&#45;&gt;/prime/candidates/accumulate -->
<g id="edge5" class="edge">
<title>/prime/candidates/accumulate:s&#45;&gt;/prime/candidates/accumulate:n</title>
<path fill="none" stroke="black" d="M401.53,-126C428.76,-110.25 483.23,-110.25 483.23,-144 483.23,-174.32 439.27,-177.4 410.59,-166.29"/>
<polygon fill="black" stroke="black" points="412.07,-163.12 401.53,-162 409.07,-169.45 412.07,-163.12"/>
<text text-anchor="middle" x="440.55" y="-114.79" font-family="Times,serif" font-size="14.00">chunk_size</text>
<text text-anchor="middle" x="440.53" y="-165.8" font-family="Times,serif" font-size="14.00">chunk_size</text>
</g>
<!-- /prime/candidates/accumulate&#45;&gt;/prime/candidates/accumulate -->
<g id="edge6" class="edge">
<title>/prime/candidates/accumulate:s&#45;&gt;/prime/candidates/accumulate:n</title>
<path fill="none" stroke="black" d="M401.53,-126C434.76,-94.5 501.23,-94.5 501.23,-144 501.23,-189.83 444.26,-193.23 409.44,-168.49"/>
<polygon fill="black" stroke="black" points="411.49,-165.64 401.53,-162 407.05,-171.05 411.49,-165.64"/>
<text text-anchor="middle" x="377.55" y="-114.79" font-family="Times,serif" font-size="14.00">partial</text>
<text text-anchor="middle" x="377.53" y="-165.8" font-family="Times,serif" font-size="14.00">partial</text>
</g>
<!-- initializer/prime/candidates/accumulate_1 -->
<!-- initializer/prime/candidates/accumulate_1&#45;&gt;/prime/candidates/accumulate -->
<g id="edge1" class="edge">
<title>initializer/prime/candidates/accumulate_1&#45;&gt;/prime/candidates/accumulate:n</title>
<path fill="none" stroke="blue" stroke-dasharray="1,5" d="M506.11,-255.94C455.68,-243.5 408.26,-219.47 402.19,-173.21"/>
<polygon fill="blue" stroke="blue" points="405.67,-172.76 401.53,-163 398.68,-173.2 405.67,-172.76"/>
<text text-anchor="middle" x="500.61" y="-244.74" font-family="Times,serif" font-size="14.00">[]</text>
</g>
<!-- /prime/candidates/sequence/sequence -->
<g id="node7" class="node">
<title>/prime/candidates/sequence/sequence</title>
<ellipse fill="none" stroke="black" cx="186.53" cy="-270" rx="186.57" ry="18"/>
<text text-anchor="middle" x="186.53" y="-266.3" font-family="Times,serif" font-size="14.00">/prime/candidates/sequence/sequence</text>
</g>
<!-- /prime/candidates/sequence/sequence&#45;&gt;/prime/candidates/accumulate -->
<g id="edge3" class="edge">
<title>/prime/candidates/sequence/sequence:s&#45;&gt;/prime/candidates/accumulate:w</title>
<path fill="none" stroke="black" d="M186.53,-252C186.53,-173.22 248.93,-146.22 326.5,-144.13"/>
<polygon fill="black" stroke="black" points="326.58,-147.63 336.53,-144 326.49,-140.63 326.58,-147.63"/>
<text text-anchor="middle" x="313.53" y="-147.8" font-family="Times,serif" font-size="14.00">values</text>
</g>
</g>
</svg>
