<?xml version="1.0" encoding="UTF-8" standalone="no"?>
<!DOCTYPE svg PUBLIC "-//W3C//DTD SVG 1.1//EN"
 "http://www.w3.org/Graphics/SVG/1.1/DTD/svg11.dtd">
<!-- Generated by graphviz version 2.43.0 (0)
 -->
<!-- Title: candidates Pages: 1 -->
<svg width="852pt" height="522pt"
 viewBox="28.80 28.80 823.44 492.80" xmlns="http://www.w3.org/2000/svg" xmlns:xlink="http://www.w3.org/1999/xlink">
<g id="graph0" class="graph" transform="scale(1 1) rotate(0) translate(32.8 488.8)">
<title>candidates</title>
<polygon fill="white" stroke="transparent" points="-4,4 -4,-460 790.64,-460 790.64,4 -4,4"/>
<text text-anchor="middle" x="393.32" y="-440.8" font-family="Times,serif" font-size="14.00">candidates</text>
<!-- /prime/candidates/limit -->
<g id="node1" class="node">
<title>/prime/candidates/limit</title>
<polygon fill="white" stroke="black" points="245.07,-420.56 204.73,-433 164.39,-420.56 164.43,-400.44 245.03,-400.44 245.07,-420.56"/>
<text text-anchor="middle" x="204.73" y="-411.3" font-family="Times,serif" font-size="14.00">limit</text>
</g>
<!-- /prime/candidates/candidates -->
<g id="node2" class="node">
<title>/prime/candidates/candidates</title>
<polygon fill="black" stroke="black" points="500.2,-12.44 575.73,0 651.27,-12.44 651.2,-32.56 500.27,-32.56 500.2,-12.44"/>
<text text-anchor="middle" x="575.73" y="-14.3" font-family="Times,serif" font-size="14.00" fill="white">candidates</text>
</g>
<!-- /prime/candidates/sequence -->
<g id="node3" class="node">
<title>/prime/candidates/sequence</title>
<g id="a_node3"><a xlink:href="lib://flowstdlib/math/sequence.dot.svg" xlink:title="sequence">
<ellipse fill="aquamarine" stroke="black" cx="96.73" cy="-253" rx="72" ry="72"/>
<text text-anchor="middle" x="96.73" y="-249.3" font-family="Times,serif" font-size="14.00">sequence</text>
</a>
</g>
</g>
<!-- /prime/candidates/accumulate -->
<g id="node4" class="node">
<title>/prime/candidates/accumulate</title>
<g id="a_node4"><a xlink:href="../../../target/flowstdlib/data/accumulate/accumulate.html" xlink:title="accumulate">
<ellipse fill="coral" stroke="black" cx="204.73" cy="-145" rx="63.89" ry="18"/>
<text text-anchor="middle" x="204.73" y="-141.3" font-family="Times,serif" font-size="14.00">accumulate</text>
</a>
</g>
</g>
<!-- initializer/prime/candidates/accumulate_1 -->
<!-- initializer/prime/candidates/accumulate_1&#45;&gt;/prime/candidates/accumulate -->
<g id="edge1" class="edge">
<title>initializer/prime/candidates/accumulate_1&#45;&gt;/prime/candidates/accumulate:n</title>
<path fill="none" stroke="blue" stroke-dasharray="1,5" d="M204.73,-342.87C204.73,-310.42 204.73,-237.45 204.73,-173.22"/>
<polygon fill="blue" stroke="blue" points="208.23,-173 204.73,-163 201.23,-173 208.23,-173"/>
<text text-anchor="middle" x="211.23" y="-249.3" font-family="Times,serif" font-size="14.00">[]</text>
</g>
<!-- /prime/candidates/ -->
<g id="node6" class="node">
<title>/prime/candidates/</title>
<ellipse fill="none" stroke="black" cx="575.73" cy="-361" rx="96.68" ry="18"/>
<text text-anchor="middle" x="575.73" y="-357.3" font-family="Times,serif" font-size="14.00">/prime/candidates/</text>
</g>
<!-- /prime/candidates/sequence/ -->
<g id="node7" class="node">
<title>/prime/candidates/sequence/</title>
<ellipse fill="none" stroke="black" cx="416.73" cy="-145" rx="143.77" ry="18"/>
<text text-anchor="middle" x="416.73" y="-141.3" font-family="Times,serif" font-size="14.00">/prime/candidates/sequence/</text>
</g>
<!-- /prime/candidates/&#45;&gt;/prime/candidates/sequence/ -->
<g id="edge2" class="edge">
<title>/prime/candidates/:s&#45;&gt;/prime/candidates/sequence/:n</title>
<path fill="none" stroke="black" d="M575.73,-343C575.73,-337.11 451.81,-206.53 422.77,-171.42"/>
<polygon fill="black" stroke="black" points="425.4,-169.09 416.73,-163 419.71,-173.17 425.4,-169.09"/>
<text text-anchor="middle" x="479.22" y="-256.79" font-family="Times,serif" font-size="14.00">limit</text>
<text text-anchor="middle" x="399.73" y="-166.8" font-family="Times,serif" font-size="14.00">limit</text>
</g>
<!-- /prime/candidates/accumulate/ -->
<g id="node8" class="node">
<title>/prime/candidates/accumulate/</title>
<ellipse fill="none" stroke="black" cx="575.73" cy="-72" rx="153.27" ry="18"/>
<text text-anchor="middle" x="575.73" y="-68.3" font-family="Times,serif" font-size="14.00">/prime/candidates/accumulate/</text>
</g>
<!-- /prime/candidates/&#45;&gt;/prime/candidates/accumulate/ -->
<g id="edge4" class="edge">
<title>/prime/candidates/:s&#45;&gt;/prime/candidates/accumulate/:n</title>
<path fill="none" stroke="black" d="M575.73,-343C575.73,-234.07 575.73,-204.28 575.73,-100.3"/>
<polygon fill="black" stroke="black" points="579.23,-100 575.73,-90 572.23,-100 579.23,-100"/>
<text text-anchor="middle" x="558.73" y="-220" font-family="Times,serif" font-size="14.00">limit</text>
<text text-anchor="middle" x="536.73" y="-93.8" font-family="Times,serif" font-size="14.00">chunk_size</text>
</g>
<!-- /prime/candidates/sequence/&#45;&gt;/prime/candidates/accumulate/ -->
<g id="edge3" class="edge">
<title>/prime/candidates/sequence/:s&#45;&gt;/prime/candidates/accumulate/:w</title>
<path fill="none" stroke="black" d="M416.73,-127C416.73,-107.28 403.45,-83.68 411.03,-75.22"/>
<polygon fill="black" stroke="black" points="412.34,-78.47 420.73,-72 410.14,-71.83 412.34,-78.47"/>
<text text-anchor="middle" x="377.53" y="-100.66" font-family="Times,serif" font-size="14.00">sequence</text>
<text text-anchor="middle" x="397.73" y="-75.8" font-family="Times,serif" font-size="14.00">values</text>
</g>
<!-- /prime/candidates/accumulate/&#45;&gt;/prime/candidates/ -->
<g id="edge7" class="edge">
<title>/prime/candidates/accumulate/:se&#45;&gt;/prime/candidates/:n</title>
<path fill="none" stroke="black" d="M593.73,-53C604.37,-42.36 718.52,-43.32 729.12,-54 832.41,-158.05 785.28,-285.23 672.57,-379 665.92,-384.54 607.27,-388.78 584.61,-384.62"/>
<polygon fill="black" stroke="black" points="586.22,-381.51 575.73,-380 582.99,-387.72 586.22,-381.51"/>
<text text-anchor="middle" x="572.23" y="-41.8" font-family="Times,serif" font-size="14.00">chunk</text>
<text text-anchor="middle" x="536.73" y="-383.8" font-family="Times,serif" font-size="14.00">candidates</text>
</g>
<!-- /prime/candidates/accumulate/&#45;&gt;/prime/candidates/accumulate/ -->
<g id="edge5" class="edge">
<title>/prime/candidates/accumulate/:s&#45;&gt;/prime/candidates/accumulate/:n</title>
<path fill="none" stroke="black" d="M575.73,-54C632.86,-49.5 747.12,-49.5 747.12,-72 747.12,-93.23 645.44,-94.43 585.96,-90.72"/>
<polygon fill="black" stroke="black" points="585.95,-87.21 575.73,-90 585.46,-94.19 585.95,-87.21"/>
<text text-anchor="middle" x="614.82" y="-42.79" font-family="Times,serif" font-size="14.00">chunk_size</text>
<text text-anchor="middle" x="614.73" y="-93.8" font-family="Times,serif" font-size="14.00">chunk_size</text>
</g>
<!-- /prime/candidates/accumulate/&#45;&gt;/prime/candidates/accumulate/ -->
<g id="edge6" class="edge">
<title>/prime/candidates/accumulate/:s&#45;&gt;/prime/candidates/accumulate/:n</title>
<path fill="none" stroke="black" d="M575.73,-54C638.86,-45 765.12,-45 765.12,-72 765.12,-97.63 651.36,-98.93 585.81,-91.3"/>
<polygon fill="black" stroke="black" points="586.1,-87.81 575.73,-90 585.2,-94.75 586.1,-87.81"/>
<text text-anchor="middle" x="551.82" y="-42.79" font-family="Times,serif" font-size="14.00">partial</text>
<text text-anchor="middle" x="551.73" y="-93.8" font-family="Times,serif" font-size="14.00">partial</text>
</g>
</g>
</svg>
