<?xml version="1.0" encoding="UTF-8" standalone="no"?>
<!DOCTYPE svg PUBLIC "-//W3C//DTD SVG 1.1//EN"
 "http://www.w3.org/Graphics/SVG/1.1/DTD/svg11.dtd">
<!-- Generated by graphviz version 2.43.0 (0)
 -->
<!-- Title: composites Pages: 1 -->
<svg width="1676pt" height="629pt"
 viewBox="28.80 28.80 1647.23 599.80" xmlns="http://www.w3.org/2000/svg" xmlns:xlink="http://www.w3.org/1999/xlink">
<g id="graph0" class="graph" transform="scale(1 1) rotate(0) translate(32.8 595.8)">
<title>composites</title>
<polygon fill="white" stroke="transparent" points="-4,4 -4,-567 1614.43,-567 1614.43,4 -4,4"/>
<text text-anchor="middle" x="805.22" y="-547.8" font-family="Times,serif" font-size="14.00">composites</text>
<!-- /prime/composites/limit -->
<g id="node1" class="node">
<title>/prime/composites/limit</title>
<polygon fill="white" stroke="black" points="287.22,-527.56 246.89,-540 206.55,-527.56 206.59,-507.44 287.19,-507.44 287.22,-527.56"/>
<text text-anchor="middle" x="246.89" y="-518.3" font-family="Times,serif" font-size="14.00">limit</text>
</g>
<!-- /prime/composites/sqrt -->
<g id="node3" class="node">
<title>/prime/composites/sqrt</title>
<g id="a_node3"><a xlink:href="../../../../../.flow/lib/flowstdlib/math/sqrt/sqrt.html" xlink:title="sqrt">
<ellipse fill="coral" stroke="black" cx="129.89" cy="-450" rx="29.8" ry="18"/>
<text text-anchor="middle" x="129.89" y="-446.3" font-family="Times,serif" font-size="14.00">sqrt</text>
</a>
</g>
</g>
<!-- /prime/composites/limit&#45;&gt;/prime/composites/sqrt -->
<g id="edge2" class="edge">
<title>/prime/composites/limit:s&#45;&gt;/prime/composites/sqrt:w</title>
<path fill="none" stroke="black" d="M246.89,-506C246.89,-438.52 142.67,-520.19 99.89,-468 97.98,-465.68 96.24,-462.56 95.22,-459.58"/>
<polygon fill="black" stroke="black" points="98.59,-460.59 98.89,-450 92.05,-458.09 98.59,-460.59"/>
</g>
<!-- /prime/composites/composite&#45;sequence/limit -->
<g id="node12" class="node">
<title>/prime/composites/composite&#45;sequence/limit</title>
<ellipse fill="none" stroke="black" cx="394.89" cy="-450" rx="217.16" ry="18"/>
<text text-anchor="middle" x="394.89" y="-446.3" font-family="Times,serif" font-size="14.00">/prime/composites/composite&#45;sequence/limit</text>
</g>
<!-- /prime/composites/limit&#45;&gt;/prime/composites/composite&#45;sequence/limit -->
<g id="edge7" class="edge">
<title>/prime/composites/limit:s&#45;&gt;/prime/composites/composite&#45;sequence/limit:n</title>
<path fill="none" stroke="black" d="M246.89,-506C246.89,-441.94 378.59,-525.36 393.52,-478"/>
<polygon fill="black" stroke="black" points="397,-478.38 394.89,-468 390.06,-477.43 397,-478.38"/>
</g>
<!-- /prime/composites/composites -->
<g id="node2" class="node">
<title>/prime/composites/composites</title>
<polygon fill="black" stroke="black" points="236.03,-12.44 313.89,0 391.74,-12.44 391.67,-32.56 236.1,-32.56 236.03,-12.44"/>
<text text-anchor="middle" x="313.89" y="-14.3" font-family="Times,serif" font-size="14.00" fill="white">composites</text>
</g>
<!-- /prime/composites/divisors/limit -->
<g id="node8" class="node">
<title>/prime/composites/divisors/limit</title>
<ellipse fill="none" stroke="black" cx="159.89" cy="-324" rx="159.77" ry="18"/>
<text text-anchor="middle" x="159.89" y="-320.3" font-family="Times,serif" font-size="14.00">/prime/composites/divisors/limit</text>
</g>
<!-- /prime/composites/sqrt&#45;&gt;/prime/composites/divisors/limit -->
<g id="edge3" class="edge">
<title>/prime/composites/sqrt:e&#45;&gt;/prime/composites/divisors/limit:n</title>
<path fill="none" stroke="black" d="M160.89,-450C171.01,-450 163.17,-381.03 160.61,-353.21"/>
<polygon fill="black" stroke="black" points="164.09,-352.73 159.89,-343 157.11,-353.22 164.09,-352.73"/>
</g>
<!-- /prime/composites/divisors -->
<g id="node4" class="node">
<title>/prime/composites/divisors</title>
<g id="a_node4"><a xlink:href="../../../../../.flow/lib/flowstdlib/math/sequence.toml.dot.svg" xlink:title="divisors">
<ellipse fill="aquamarine" stroke="black" cx="642.89" cy="-144" rx="72" ry="72"/>
<text text-anchor="middle" x="642.89" y="-140.3" font-family="Times,serif" font-size="14.00">divisors</text>
</a>
</g>
</g>
<!-- /prime/composites/multiply -->
<g id="node5" class="node">
<title>/prime/composites/multiply</title>
<g id="a_node5"><a xlink:href="../../../../../.flow/lib/flowstdlib/math/multiply/multiply.html" xlink:title="multiply">
<ellipse fill="coral" stroke="black" cx="900.89" cy="-324" rx="49.29" ry="18"/>
<text text-anchor="middle" x="900.89" y="-320.3" font-family="Times,serif" font-size="14.00">multiply</text>
</a>
</g>
</g>
<!-- /prime/composites/composite&#45;sequence/start -->
<g id="node10" class="node">
<title>/prime/composites/composite&#45;sequence/start</title>
<ellipse fill="none" stroke="black" cx="950.89" cy="-144" rx="217.96" ry="18"/>
<text text-anchor="middle" x="950.89" y="-140.3" font-family="Times,serif" font-size="14.00">/prime/composites/composite&#45;sequence/start</text>
</g>
<!-- /prime/composites/multiply&#45;&gt;/prime/composites/composite&#45;sequence/start -->
<g id="edge5" class="edge">
<title>/prime/composites/multiply:e&#45;&gt;/prime/composites/composite&#45;sequence/start:n</title>
<path fill="none" stroke="black" d="M951.89,-324C1020.09,-324 957.37,-242.75 951.34,-173.17"/>
<polygon fill="black" stroke="black" points="954.83,-172.83 950.89,-163 947.84,-173.15 954.83,-172.83"/>
</g>
<!-- initializer/prime/composites/multiply_1 -->
<!-- initializer/prime/composites/multiply_1&#45;&gt;/prime/composites/multiply -->
<g id="edge1" class="edge">
<title>initializer/prime/composites/multiply_1&#45;&gt;/prime/composites/multiply:w</title>
<path fill="none" stroke="blue" d="M818.64,-431.88C813.55,-400.59 807.36,-336.37 839.71,-325.56"/>
<polygon fill="blue" stroke="blue" points="840.53,-328.97 849.89,-324 839.47,-322.06 840.53,-328.97"/>
<text text-anchor="middle" x="813.64" y="-420.68" font-family="Times,serif" font-size="14.00">2</text>
</g>
<!-- /prime/composites/composite&#45;sequence -->
<g id="node7" class="node">
<title>/prime/composites/composite&#45;sequence</title>
<g id="a_node7"><a xlink:href="../../../../../.flow/lib/flowstdlib/math/sequence.toml.dot.svg" xlink:title="composite&#45;sequence">
<ellipse fill="aquamarine" stroke="black" cx="1528.89" cy="-324" rx="81.59" ry="72"/>
<text text-anchor="middle" x="1528.89" y="-320.3" font-family="Times,serif" font-size="14.00">composite&#45;sequence</text>
</a>
</g>
</g>
<!-- /prime/composites/divisors/sequence -->
<g id="node9" class="node">
<title>/prime/composites/divisors/sequence</title>
<ellipse fill="none" stroke="black" cx="1213.89" cy="-450" rx="181.97" ry="18"/>
<text text-anchor="middle" x="1213.89" y="-446.3" font-family="Times,serif" font-size="14.00">/prime/composites/divisors/sequence</text>
</g>
<!-- /prime/composites/divisors/sequence&#45;&gt;/prime/composites/multiply -->
<g id="edge4" class="edge">
<title>/prime/composites/divisors/sequence:s&#45;&gt;/prime/composites/multiply:ne</title>
<path fill="none" stroke="black" d="M1213.89,-432C1213.89,-381.36 1035.44,-415.93 988.89,-396 955.71,-381.8 947.33,-371.94 924.96,-349.14"/>
<polygon fill="black" stroke="black" points="927.41,-346.64 917.89,-342 922.43,-351.57 927.41,-346.64"/>
<text text-anchor="middle" x="910.89" y="-345.8" font-family="Times,serif" font-size="14.00">i1</text>
</g>
<!-- /prime/composites/composite&#45;sequence/step -->
<g id="node11" class="node">
<title>/prime/composites/composite&#45;sequence/step</title>
<ellipse fill="none" stroke="black" cx="1213.89" cy="-324" rx="215.56" ry="18"/>
<text text-anchor="middle" x="1213.89" y="-320.3" font-family="Times,serif" font-size="14.00">/prime/composites/composite&#45;sequence/step</text>
</g>
<!-- /prime/composites/divisors/sequence&#45;&gt;/prime/composites/composite&#45;sequence/step -->
<g id="edge6" class="edge">
<title>/prime/composites/divisors/sequence:s&#45;&gt;/prime/composites/composite&#45;sequence/step:n</title>
<path fill="none" stroke="black" d="M1213.89,-432C1213.89,-396.15 1213.89,-384.67 1213.89,-353.39"/>
<polygon fill="black" stroke="black" points="1217.39,-353 1213.89,-343 1210.39,-353 1217.39,-353"/>
</g>
<!-- /prime/composites/composite&#45;sequence/sequence -->
<g id="node13" class="node">
<title>/prime/composites/composite&#45;sequence/sequence</title>
<ellipse fill="none" stroke="black" cx="313.89" cy="-144" rx="239.36" ry="18"/>
<text text-anchor="middle" x="313.89" y="-140.3" font-family="Times,serif" font-size="14.00">/prime/composites/composite&#45;sequence/sequence</text>
</g>
<!-- /prime/composites/composite&#45;sequence/sequence&#45;&gt;/prime/composites/composites -->
<g id="edge8" class="edge">
<title>/prime/composites/composite&#45;sequence/sequence:s&#45;&gt;/prime/composites/composites:n</title>
<path fill="none" stroke="black" d="M313.89,-125C313.89,-88.19 313.89,-76.51 313.89,-44.21"/>
<polygon fill="black" stroke="black" points="317.39,-44 313.89,-34 310.39,-44 317.39,-44"/>
</g>
</g>
</svg>
