<?xml version="1.0" encoding="UTF-8" standalone="no"?>
<!DOCTYPE svg PUBLIC "-//W3C//DTD SVG 1.1//EN"
 "http://www.w3.org/Graphics/SVG/1.1/DTD/svg11.dtd">
<!-- Generated by graphviz version 2.43.0 (0)
 -->
<!-- Title: composites Pages: 1 -->
<svg width="885pt" height="738pt"
 viewBox="28.80 28.80 855.85 708.80" xmlns="http://www.w3.org/2000/svg" xmlns:xlink="http://www.w3.org/1999/xlink">
<g id="graph0" class="graph" transform="scale(1 1) rotate(0) translate(32.8 704.8)">
<title>composites</title>
<polygon fill="white" stroke="transparent" points="-4,4 -4,-676 823.05,-676 823.05,4 -4,4"/>
<text text-anchor="middle" x="409.53" y="-656.8" font-family="Times,serif" font-size="14.00">composites</text>
<!-- /prime/composites/limit -->
<g id="node1" class="node">
<title>/prime/composites/limit</title>
<polygon fill="white" stroke="black" points="205.26,-636.56 164.92,-649 124.58,-636.56 124.62,-616.44 205.22,-616.44 205.26,-636.56"/>
<text text-anchor="middle" x="164.92" y="-627.3" font-family="Times,serif" font-size="14.00">limit</text>
</g>
<!-- /prime/composites/composites -->
<g id="node2" class="node">
<title>/prime/composites/composites</title>
<polygon fill="black" stroke="black" points="524.07,-12.44 601.92,0 679.77,-12.44 679.7,-32.56 524.14,-32.56 524.07,-12.44"/>
<text text-anchor="middle" x="601.92" y="-14.3" font-family="Times,serif" font-size="14.00" fill="white">composites</text>
</g>
<!-- /prime/composites/sqrt -->
<g id="node3" class="node">
<title>/prime/composites/sqrt</title>
<g id="a_node3"><a xlink:href="../../../target/flowstdlib/math/sqrt/sqrt.html" xlink:title="sqrt">
<ellipse fill="coral" stroke="black" cx="164.92" cy="-577" rx="29.8" ry="18"/>
<text text-anchor="middle" x="164.92" y="-573.3" font-family="Times,serif" font-size="14.00">sqrt</text>
</a>
</g>
</g>
<!-- /prime/composites/divisors/ -->
<g id="node9" class="node">
<title>/prime/composites/divisors/</title>
<ellipse fill="none" stroke="black" cx="278.92" cy="-361" rx="138.38" ry="18"/>
<text text-anchor="middle" x="278.92" y="-357.3" font-family="Times,serif" font-size="14.00">/prime/composites/divisors/</text>
</g>
<!-- /prime/composites/sqrt&#45;&gt;/prime/composites/divisors/ -->
<g id="edge3" class="edge">
<title>/prime/composites/sqrt:e&#45;&gt;/prime/composites/divisors/:n</title>
<path fill="none" stroke="black" d="M195.92,-577C287.98,-577 279.66,-481.5 278.96,-389.09"/>
<polygon fill="black" stroke="black" points="282.46,-388.99 278.92,-379 275.46,-389.01 282.46,-388.99"/>
<text text-anchor="middle" x="261.92" y="-382.8" font-family="Times,serif" font-size="14.00">limit</text>
</g>
<!-- /prime/composites/divisors -->
<g id="node4" class="node">
<title>/prime/composites/divisors</title>
<g id="a_node4"><a xlink:href="lib://flowstdlib/math/sequence.dot.svg" xlink:title="divisors">
<ellipse fill="aquamarine" stroke="black" cx="601.92" cy="-469" rx="72" ry="72"/>
<text text-anchor="middle" x="601.92" y="-465.3" font-family="Times,serif" font-size="14.00">divisors</text>
</a>
</g>
</g>
<!-- /prime/composites/multiply -->
<g id="node5" class="node">
<title>/prime/composites/multiply</title>
<g id="a_node5"><a xlink:href="../../../target/flowstdlib/math/multiply/multiply.html" xlink:title="multiply">
<ellipse fill="coral" stroke="black" cx="551.92" cy="-361" rx="49.29" ry="18"/>
<text text-anchor="middle" x="551.92" y="-357.3" font-family="Times,serif" font-size="14.00">multiply</text>
</a>
</g>
</g>
<!-- /prime/composites/composite&#45;sequence/ -->
<g id="node11" class="node">
<title>/prime/composites/composite&#45;sequence/</title>
<ellipse fill="none" stroke="black" cx="601.92" cy="-145" rx="195.77" ry="18"/>
<text text-anchor="middle" x="601.92" y="-141.3" font-family="Times,serif" font-size="14.00">/prime/composites/composite&#45;sequence/</text>
</g>
<!-- /prime/composites/multiply&#45;&gt;/prime/composites/composite&#45;sequence/ -->
<g id="edge5" class="edge">
<title>/prime/composites/multiply:e&#45;&gt;/prime/composites/composite&#45;sequence/:n</title>
<path fill="none" stroke="black" d="M602.92,-361C622.82,-361 605.91,-217.08 602.49,-173.26"/>
<polygon fill="black" stroke="black" points="605.97,-172.79 601.92,-163 598.98,-173.18 605.97,-172.79"/>
<text text-anchor="middle" x="584.42" y="-166.8" font-family="Times,serif" font-size="14.00">start</text>
</g>
<!-- initializer/prime/composites/multiply_1 -->
<!-- initializer/prime/composites/multiply_1&#45;&gt;/prime/composites/multiply -->
<g id="edge1" class="edge">
<title>initializer/prime/composites/multiply_1&#45;&gt;/prime/composites/multiply:w</title>
<path fill="none" stroke="blue" d="M494.68,-558.77C475.12,-510.14 426.8,-374.55 490.67,-361.94"/>
<polygon fill="blue" stroke="blue" points="491.28,-365.4 500.92,-361 490.64,-358.43 491.28,-365.4"/>
<text text-anchor="middle" x="492.92" y="-465.3" font-family="Times,serif" font-size="14.00">2</text>
</g>
<!-- /prime/composites/composite&#45;sequence -->
<g id="node7" class="node">
<title>/prime/composites/composite&#45;sequence</title>
<g id="a_node7"><a xlink:href="lib://flowstdlib/math/sequence.dot.svg" xlink:title="composite&#45;sequence">
<ellipse fill="aquamarine" stroke="black" cx="711.92" cy="-253" rx="81.59" ry="72"/>
<text text-anchor="middle" x="711.92" y="-249.3" font-family="Times,serif" font-size="14.00">composite&#45;sequence</text>
</a>
</g>
</g>
<!-- /prime/composites/ -->
<g id="node8" class="node">
<title>/prime/composites/</title>
<ellipse fill="none" stroke="black" cx="601.92" cy="-72" rx="98.58" ry="18"/>
<text text-anchor="middle" x="601.92" y="-68.3" font-family="Times,serif" font-size="14.00">/prime/composites/</text>
</g>
<!-- /prime/composites/&#45;&gt;/prime/composites/sqrt -->
<g id="edge2" class="edge">
<title>/prime/composites/:s&#45;&gt;/prime/composites/sqrt:w</title>
<path fill="none" stroke="black" d="M601.92,-53C601.92,-42.02 692.99,-46.2 700.71,-54 711.97,-65.37 711.66,-78.33 700.71,-90 612.22,-184.31 208.41,-32.69 119.92,-127 -14.66,-270.42 -64.47,-566.65 123.88,-576.74"/>
<polygon fill="black" stroke="black" points="123.83,-580.24 133.92,-577 124.02,-573.24 123.83,-580.24"/>
<text text-anchor="middle" x="375.3" y="-110.21" font-family="Times,serif" font-size="14.00">limit</text>
</g>
<!-- /prime/composites/&#45;&gt;/prime/composites/composite&#45;sequence/ -->
<g id="edge7" class="edge">
<title>/prime/composites/:s&#45;&gt;/prime/composites/composite&#45;sequence/:n</title>
<path fill="none" stroke="black" d="M601.92,-53C601.92,-42.02 690.32,-50.46 700.71,-54 770.34,-77.7 860.34,-99.89 797.55,-163 790.92,-169.67 649.31,-173.68 611.26,-167.6"/>
<polygon fill="black" stroke="black" points="612.51,-164.33 601.92,-164 609.99,-170.86 612.51,-164.33"/>
<text text-anchor="middle" x="584.92" y="-41.8" font-family="Times,serif" font-size="14.00">limit</text>
<text text-anchor="middle" x="618.92" y="-167.8" font-family="Times,serif" font-size="14.00">limit</text>
</g>
<!-- /prime/composites/multiply/ -->
<g id="node10" class="node">
<title>/prime/composites/multiply/</title>
<ellipse fill="none" stroke="black" cx="260.92" cy="-145" rx="140.28" ry="18"/>
<text text-anchor="middle" x="260.92" y="-141.3" font-family="Times,serif" font-size="14.00">/prime/composites/multiply/</text>
</g>
<!-- /prime/composites/divisors/&#45;&gt;/prime/composites/multiply/ -->
<g id="edge4" class="edge">
<title>/prime/composites/divisors/:s&#45;&gt;/prime/composites/multiply/:ne</title>
<path fill="none" stroke="black" d="M278.92,-343C278.92,-266.59 330.52,-223.54 285.87,-170.55"/>
<polygon fill="black" stroke="black" points="288.27,-167.98 278.92,-163 283.12,-172.73 288.27,-167.98"/>
<text text-anchor="middle" x="265.65" y="-251.78" font-family="Times,serif" font-size="14.00">sequence</text>
<text text-anchor="middle" x="271.92" y="-166.8" font-family="Times,serif" font-size="14.00">i1</text>
</g>
<!-- /prime/composites/divisors/&#45;&gt;/prime/composites/composite&#45;sequence/ -->
<g id="edge6" class="edge">
<title>/prime/composites/divisors/:s&#45;&gt;/prime/composites/composite&#45;sequence/:n</title>
<path fill="none" stroke="black" d="M278.92,-343C278.92,-338.36 543.05,-199.12 593.61,-168.71"/>
<polygon fill="black" stroke="black" points="595.66,-171.55 601.92,-163 591.7,-165.78 595.66,-171.55"/>
<text text-anchor="middle" x="406.84" y="-256.84" font-family="Times,serif" font-size="14.00">sequence</text>
<text text-anchor="middle" x="617.42" y="-166.8" font-family="Times,serif" font-size="14.00">step</text>
</g>
<!-- /prime/composites/composite&#45;sequence/&#45;&gt;/prime/composites/ -->
<g id="edge8" class="edge">
<title>/prime/composites/composite&#45;sequence/:s&#45;&gt;/prime/composites/:n</title>
<path fill="none" stroke="black" d="M601.92,-127C601.92,-114.54 601.92,-109.16 601.92,-100.13"/>
<polygon fill="black" stroke="black" points="605.42,-100 601.92,-90 598.42,-100 605.42,-100"/>
<text text-anchor="middle" x="568.42" y="-112.38" font-family="Times,serif" font-size="14.00">sequence</text>
<text text-anchor="middle" x="561.42" y="-93.8" font-family="Times,serif" font-size="14.00">composites</text>
</g>
</g>
</svg>
