<?xml version="1.0" encoding="UTF-8" standalone="no"?>
<!DOCTYPE svg PUBLIC "-//W3C//DTD SVG 1.1//EN"
 "http://www.w3.org/Graphics/SVG/1.1/DTD/svg11.dtd">
<!-- Generated by graphviz version 2.43.0 (0)
 -->
<!-- Title: prime Pages: 1 -->
<svg width="2447pt" height="416pt"
 viewBox="0.00 0.00 2447.00 416.00" xmlns="http://www.w3.org/2000/svg" xmlns:xlink="http://www.w3.org/1999/xlink">
<g id="graph0" class="graph" transform="scale(1 1) rotate(0) translate(4 412)">
<title>prime</title>
<polygon fill="white" stroke="transparent" points="-4,4 -4,-412 2443,-412 2443,4 -4,4"/>
<text text-anchor="middle" x="1219.5" y="-392.8" font-family="Times,serif" font-size="14.00">/prime</text>
<g id="clust1" class="cluster">
<title>cluster_candidates</title>
<polygon fill="none" stroke="black" points="8,-80 8,-341 1008,-341 1008,-80 8,-80"/>
<text text-anchor="middle" x="508" y="-325.8" font-family="Times,serif" font-size="14.00">/prime/candidates</text>
</g>
<g id="clust2" class="cluster">
<title>cluster_sequence</title>
<polygon fill="none" stroke="black" points="174,-88 174,-310 824,-310 824,-88 174,-88"/>
<text text-anchor="middle" x="499" y="-294.8" font-family="Times,serif" font-size="14.00">/prime/candidates/sequence</text>
</g>
<g id="clust3" class="cluster">
<title>cluster_composites</title>
<polygon fill="none" stroke="black" points="1016,-8 1016,-310 2431,-310 2431,-8 1016,-8"/>
<text text-anchor="middle" x="1723.5" y="-294.8" font-family="Times,serif" font-size="14.00">/prime/composites</text>
</g>
<g id="clust4" class="cluster">
<title>cluster_divisors</title>
<polygon fill="none" stroke="black" points="1194,-16 1194,-235 2025,-235 2025,-16 1194,-16"/>
<text text-anchor="middle" x="1609.5" y="-219.8" font-family="Times,serif" font-size="14.00">/prime/composites/divisors</text>
</g>
<g id="clust5" class="cluster">
<title>cluster_composite_sequence</title>
<polygon fill="none" stroke="black" points="2033,-16 2033,-235 2423,-235 2423,-16 2033,-16"/>
<text text-anchor="middle" x="2228" y="-219.8" font-family="Times,serif" font-size="14.00">/prime/composites/composite&#45;sequence</text>
</g>
<!-- r0 -->
<g id="node1" class="node">
<title>r0</title>
<g id="a_node1"><a xlink:href="file:///home/runner/work/flow/flow/flowr/src/cli/args/get.html" xlink:title="args (#0)">
<ellipse fill="coral" stroke="black" cx="1160" cy="-367" rx="54.69" ry="18"/>
<text text-anchor="middle" x="1160" y="-363.3" font-family="Times,serif" font-size="14.00">args (#0)</text>
</a>
</g>
</g>
<!-- r3 -->
<g id="node2" class="node">
<title>r3</title>
<g id="a_node2"><a xlink:href="file:///home/runner/work/flow/flow/target/flowstdlib/control/compare_switch/compare_switch.html" xlink:title="compare_switch (#3)">
<ellipse fill="coral" stroke="black" cx="544" cy="-261" rx="108.58" ry="18"/>
<text text-anchor="middle" x="544" y="-257.3" font-family="Times,serif" font-size="14.00">compare_switch (#3)</text>
</a>
</g>
</g>
<!-- r0&#45;&gt;r3 -->
<g id="edge1" class="edge">
<title>r0:s&#45;&gt;r3:n</title>
<path fill="none" stroke="black" d="M1160,-349C1160,-339.91 842.02,-342.05 833,-341 706.18,-326.19 552.65,-406.67 544.35,-290.29"/>
<polygon fill="black" stroke="black" points="547.84,-289.87 544,-280 540.84,-290.11 547.84,-289.87"/>
<text text-anchor="middle" x="531.5" y="-283.8" font-family="Times,serif" font-size="14.00">left</text>
<text text-anchor="middle" x="1136" y="-337.8" font-family="Times,serif" font-size="14.00">/json/1</text>
</g>
<!-- r1 -->
<g id="node3" class="node">
<title>r1</title>
<g id="a_node3"><a xlink:href="file:///home/runner/work/flow/flow/target/flowstdlib/data/accumulate/accumulate.html" xlink:title="accumulate (#1)">
<ellipse fill="coral" stroke="black" cx="655" cy="-186" rx="87.18" ry="18"/>
<text text-anchor="middle" x="655" y="-182.3" font-family="Times,serif" font-size="14.00">accumulate (#1)</text>
</a>
</g>
</g>
<!-- r0&#45;&gt;r1 -->
<g id="edge2" class="edge">
<title>r0:s&#45;&gt;r1:nw</title>
<path fill="none" stroke="black" d="M1160,-349C1160,-339.99 1006.82,-342.83 998,-341 979.19,-337.09 691.8,-243.07 643.42,-212.73"/>
<polygon fill="black" stroke="black" points="646.08,-210.46 637,-205 640.7,-214.93 646.08,-210.46"/>
<text text-anchor="middle" x="598" y="-208.8" font-family="Times,serif" font-size="14.00">chunk_size</text>
<text text-anchor="middle" x="1184" y="-337.8" font-family="Times,serif" font-size="14.00">/json/1</text>
</g>
<!-- r18 -->
<g id="node4" class="node">
<title>r18</title>
<g id="a_node4"><a xlink:href="file:///home/runner/work/flow/flow/target/flowstdlib/math/sqrt/sqrt.html" xlink:title="sqrt (#18)">
<ellipse fill="coral" stroke="black" cx="1350" cy="-261" rx="59.29" ry="18"/>
<text text-anchor="middle" x="1350" y="-257.3" font-family="Times,serif" font-size="14.00">sqrt (#18)</text>
</a>
</g>
</g>
<!-- r0&#45;&gt;r18 -->
<g id="edge3" class="edge">
<title>r0:s&#45;&gt;r18:n</title>
<path fill="none" stroke="black" d="M1160,-349C1160,-262.84 1334.73,-361.1 1349.07,-290.07"/>
<polygon fill="black" stroke="black" points="1352.56,-290.28 1350,-280 1345.59,-289.63 1352.56,-290.28"/>
<text text-anchor="middle" x="1136" y="-352.8" font-family="Times,serif" font-size="14.00">/json/1</text>
</g>
<!-- r8 -->
<g id="node5" class="node">
<title>r8</title>
<g id="a_node5"><a xlink:href="file:///home/runner/work/flow/flow/target/flowstdlib/control/compare_switch/compare_switch.html" xlink:title="compare_switch (#8)">
<ellipse fill="coral" stroke="black" cx="2150" cy="-186" rx="108.58" ry="18"/>
<text text-anchor="middle" x="2150" y="-182.3" font-family="Times,serif" font-size="14.00">compare_switch (#8)</text>
</a>
</g>
</g>
<!-- r0&#45;&gt;r8 -->
<g id="edge4" class="edge">
<title>r0:s&#45;&gt;r8:n</title>
<path fill="none" stroke="black" d="M1160,-349C1160,-340.21 1784.36,-342.65 1793,-341 1956.37,-309.87 2142.21,-372.14 2149.76,-215.15"/>
<polygon fill="black" stroke="black" points="2153.26,-215.08 2150,-205 2146.27,-214.92 2153.26,-215.08"/>
<text text-anchor="middle" x="2137.5" y="-208.8" font-family="Times,serif" font-size="14.00">left</text>
<text text-anchor="middle" x="1136" y="-337.8" font-family="Times,serif" font-size="14.00">/json/1</text>
</g>
<!-- r3&#45;&gt;r3 -->
<g id="edge6" class="edge">
<title>r3:e&#45;&gt;r3:n</title>
<path fill="none" stroke="black" d="M653,-261C676.54,-242.5 724.54,-242.5 724.54,-270 724.54,-296.05 616.54,-297.42 554,-281.77"/>
<polygon fill="black" stroke="black" points="554.57,-278.3 544,-279 552.7,-285.04 554.57,-278.3"/>
<text text-anchor="middle" x="556.5" y="-282.8" font-family="Times,serif" font-size="14.00">left</text>
<text text-anchor="middle" x="677.5" y="-264.8" font-family="Times,serif" font-size="14.00">/left&#45;gt</text>
</g>
<!-- r3&#45;&gt;r1 -->
<g id="edge5" class="edge">
<title>r3:s&#45;&gt;r1:n</title>
<path fill="none" stroke="black" d="M544,-243C544,-194.93 638.33,-247.51 653.07,-215.17"/>
<polygon fill="black" stroke="black" points="656.58,-215.48 655,-205 649.7,-214.17 656.58,-215.48"/>
<text text-anchor="middle" x="678" y="-208.8" font-family="Times,serif" font-size="14.00">values</text>
<text text-anchor="middle" x="512" y="-231.8" font-family="Times,serif" font-size="14.00">/right&#45;lte</text>
</g>
<!-- r2 -->
<g id="node6" class="node">
<title>r2</title>
<g id="a_node6"><a xlink:href="file:///home/runner/work/flow/flow/target/flowstdlib/math/add/add.html" xlink:title="add (#2)">
<ellipse fill="coral" stroke="black" cx="233" cy="-186" rx="51.19" ry="18"/>
<text text-anchor="middle" x="233" y="-182.3" font-family="Times,serif" font-size="14.00">add (#2)</text>
</a>
</g>
</g>
<!-- r3&#45;&gt;r2 -->
<g id="edge7" class="edge">
<title>r3:se&#45;&gt;r2:n</title>
<path fill="none" stroke="black" d="M562,-243C571.51,-233.49 333.23,-237.44 320,-235 283.55,-228.27 241.71,-242.69 234.19,-215.01"/>
<polygon fill="black" stroke="black" points="237.66,-214.52 233,-205 230.7,-215.34 237.66,-214.52"/>
<text text-anchor="middle" x="226" y="-208.8" font-family="Times,serif" font-size="14.00">i1</text>
<text text-anchor="middle" x="555" y="-231.8" font-family="Times,serif" font-size="14.00">:1</text>
</g>
<!-- r5 -->
<g id="node7" class="node">
<title>r5</title>
<g id="a_node7"><a xlink:href="file:///home/runner/work/flow/flow/target/flowstdlib/math/compare/compare.html" xlink:title="not&#45;last (#5)">
<ellipse fill="coral" stroke="black" cx="426" cy="-186" rx="69.59" ry="18"/>
<text text-anchor="middle" x="426" y="-182.3" font-family="Times,serif" font-size="14.00">not&#45;last (#5)</text>
</a>
</g>
</g>
<!-- r3&#45;&gt;r5 -->
<g id="edge8" class="edge">
<title>r3:sw&#45;&gt;r5:ne</title>
<path fill="none" stroke="black" d="M526,-243C500.15,-217.15 476.96,-230.4 451.58,-211.58"/>
<polygon fill="black" stroke="black" points="453.85,-208.91 444,-205 449.26,-214.2 453.85,-208.91"/>
<text text-anchor="middle" x="426" y="-208.8" font-family="Times,serif" font-size="14.00">right</text>
<text text-anchor="middle" x="519" y="-246.8" font-family="Times,serif" font-size="14.00">:0</text>
</g>
<!-- r3&#45;&gt;r5 -->
<g id="edge9" class="edge">
<title>r3:se&#45;&gt;r5:n</title>
<path fill="none" stroke="black" d="M562,-243C571.76,-233.24 545.31,-238.66 532,-235 488.48,-223.04 435.12,-249.25 427.04,-215.05"/>
<polygon fill="black" stroke="black" points="430.51,-214.59 426,-205 423.55,-215.31 430.51,-214.59"/>
<text text-anchor="middle" x="413.5" y="-208.8" font-family="Times,serif" font-size="14.00">left</text>
<text text-anchor="middle" x="569" y="-231.8" font-family="Times,serif" font-size="14.00">:1</text>
</g>
<!-- r1&#45;&gt;r1 -->
<g id="edge17" class="edge">
<title>r1:s&#45;&gt;r1:nw</title>
<path fill="none" stroke="black" d="M655,-168C601.97,-150 495.91,-150 495.91,-186 495.91,-219.89 573.95,-221.88 627.34,-206.98"/>
<polygon fill="black" stroke="black" points="628.47,-210.29 637,-204 626.41,-203.6 628.47,-210.29"/>
<text text-anchor="middle" x="676" y="-207.8" font-family="Times,serif" font-size="14.00">chunk_size</text>
<text text-anchor="middle" x="614" y="-156.8" font-family="Times,serif" font-size="14.00">/chunk_size</text>
</g>
<!-- r1&#45;&gt;r1 -->
<g id="edge18" class="edge">
<title>r1:sw&#45;&gt;r1:ne</title>
<path fill="none" stroke="black" d="M637,-168C495.91,-186 495.91,-240 655,-240 810.21,-240 814,-217.16 683.08,-204.9"/>
<polygon fill="black" stroke="black" points="683.27,-201.4 673,-204 682.65,-208.38 683.27,-201.4"/>
<text text-anchor="middle" x="649" y="-192.8" font-family="Times,serif" font-size="14.00">partial</text>
<text text-anchor="middle" x="663" y="-156.8" font-family="Times,serif" font-size="14.00">/partial</text>
</g>
<!-- r19 -->
<g id="node11" class="node">
<title>r19</title>
<g id="a_node11"><a xlink:href="file:///home/runner/work/flow/flow/target/flowstdlib/data/remove/remove.html" xlink:title="remove (#19)">
<ellipse fill="coral" stroke="black" cx="907" cy="-114" rx="74.99" ry="18"/>
<text text-anchor="middle" x="907" y="-110.3" font-family="Times,serif" font-size="14.00">remove (#19)</text>
</a>
</g>
</g>
<!-- r1&#45;&gt;r19 -->
<g id="edge19" class="edge">
<title>r1:e&#45;&gt;r19:ne</title>
<path fill="none" stroke="black" d="M743,-186C780.57,-186 919.25,-166.83 928.06,-141.56"/>
<polygon fill="black" stroke="black" points="931.38,-140.46 925,-132 924.71,-142.59 931.38,-140.46"/>
<text text-anchor="middle" x="905.5" y="-135.8" font-family="Times,serif" font-size="14.00">array</text>
<text text-anchor="middle" x="767" y="-189.8" font-family="Times,serif" font-size="14.00">/chunk</text>
</g>
<!-- r13 -->
<g id="node12" class="node">
<title>r13</title>
<g id="a_node12"><a xlink:href="file:///home/runner/work/flow/flow/target/flowstdlib/control/compare_switch/compare_switch.html" xlink:title="compare_switch (#13)">
<ellipse fill="coral" stroke="black" cx="1676" cy="-186" rx="114.28" ry="18"/>
<text text-anchor="middle" x="1676" y="-182.3" font-family="Times,serif" font-size="14.00">compare_switch (#13)</text>
</a>
</g>
</g>
<!-- r18&#45;&gt;r13 -->
<g id="edge20" class="edge">
<title>r18:e&#45;&gt;r13:n</title>
<path fill="none" stroke="black" d="M1410,-261C1437.37,-261 1633.6,-239.81 1670.15,-213.36"/>
<polygon fill="black" stroke="black" points="1673.13,-215.2 1676,-205 1667.4,-211.18 1673.13,-215.2"/>
<text text-anchor="middle" x="1663.5" y="-208.8" font-family="Times,serif" font-size="14.00">left</text>
</g>
<!-- r8&#45;&gt;r8 -->
<g id="edge36" class="edge">
<title>r8:e&#45;&gt;r8:n</title>
<path fill="none" stroke="black" d="M2259,-186C2282.54,-168 2330.54,-168 2330.54,-195 2330.54,-220.58 2222.54,-221.92 2160,-206.7"/>
<polygon fill="black" stroke="black" points="2160.57,-203.22 2150,-204 2158.74,-209.98 2160.57,-203.22"/>
<text text-anchor="middle" x="2162.5" y="-207.8" font-family="Times,serif" font-size="14.00">left</text>
<text text-anchor="middle" x="2283.5" y="-189.8" font-family="Times,serif" font-size="14.00">/left&#45;gt</text>
</g>
<!-- r8&#45;&gt;r19 -->
<g id="edge35" class="edge">
<title>r8:s&#45;&gt;r19:n</title>
<path fill="none" stroke="black" d="M2150,-168C2150,-101.82 1009.2,-192.81 913.39,-139.82"/>
<polygon fill="black" stroke="black" points="916.04,-137.53 907,-132 910.62,-141.96 916.04,-137.53"/>
<text text-anchor="middle" x="926.5" y="-135.8" font-family="Times,serif" font-size="14.00">value</text>
<text text-anchor="middle" x="2118" y="-156.8" font-family="Times,serif" font-size="14.00">/right&#45;lte</text>
</g>
<!-- r7 -->
<g id="node14" class="node">
<title>r7</title>
<g id="a_node14"><a xlink:href="file:///home/runner/work/flow/flow/target/flowstdlib/math/add/add.html" xlink:title="add (#7)">
<ellipse fill="coral" stroke="black" cx="1966" cy="-114" rx="51.19" ry="18"/>
<text text-anchor="middle" x="1966" y="-110.3" font-family="Times,serif" font-size="14.00">add (#7)</text>
</a>
</g>
</g>
<!-- r8&#45;&gt;r7 -->
<g id="edge37" class="edge">
<title>r8:se&#45;&gt;r7:n</title>
<path fill="none" stroke="black" d="M2168,-168C2229.84,-106.16 1987.3,-213.69 1967.3,-142.18"/>
<polygon fill="black" stroke="black" points="1970.74,-141.47 1966,-132 1963.8,-142.36 1970.74,-141.47"/>
<text text-anchor="middle" x="1959" y="-135.8" font-family="Times,serif" font-size="14.00">i1</text>
<text text-anchor="middle" x="2161" y="-156.8" font-family="Times,serif" font-size="14.00">:1</text>
</g>
<!-- r10 -->
<g id="node20" class="node">
<title>r10</title>
<g id="a_node20"><a xlink:href="file:///home/runner/work/flow/flow/target/flowstdlib/math/compare/compare.html" xlink:title="not&#45;last (#10)">
<ellipse fill="coral" stroke="black" cx="2166" cy="-114" rx="75.29" ry="18"/>
<text text-anchor="middle" x="2166" y="-110.3" font-family="Times,serif" font-size="14.00">not&#45;last (#10)</text>
</a>
</g>
</g>
<!-- r8&#45;&gt;r10 -->
<g id="edge38" class="edge">
<title>r8:sw&#45;&gt;r10:ne</title>
<path fill="none" stroke="black" d="M2132,-168C2116.47,-152.47 2169.08,-151.37 2183.36,-142.15"/>
<polygon fill="black" stroke="black" points="2186.86,-142.2 2184,-132 2179.87,-141.76 2186.86,-142.2"/>
<text text-anchor="middle" x="2166" y="-135.8" font-family="Times,serif" font-size="14.00">right</text>
<text text-anchor="middle" x="2125" y="-171.8" font-family="Times,serif" font-size="14.00">:0</text>
</g>
<!-- r8&#45;&gt;r10 -->
<g id="edge39" class="edge">
<title>r8:se&#45;&gt;r10:n</title>
<path fill="none" stroke="black" d="M2168,-168C2176.76,-159.24 2170.77,-152.08 2167.61,-141.87"/>
<polygon fill="black" stroke="black" points="2171.06,-141.31 2166,-132 2164.16,-142.43 2171.06,-141.31"/>
<text text-anchor="middle" x="2153.5" y="-135.8" font-family="Times,serif" font-size="14.00">left</text>
<text text-anchor="middle" x="2175" y="-156.8" font-family="Times,serif" font-size="14.00">:1</text>
</g>
<!-- r4 -->
<g id="node8" class="node">
<title>r4</title>
<g id="a_node8"><a xlink:href="file:///home/runner/work/flow/flow/target/flowstdlib/control/tap/tap.html" xlink:title="next&#45;tap (#4)">
<ellipse fill="coral" stroke="black" cx="471" cy="-114" rx="72.59" ry="18"/>
<text text-anchor="middle" x="471" y="-110.3" font-family="Times,serif" font-size="14.00">next&#45;tap (#4)</text>
</a>
</g>
</g>
<!-- r2&#45;&gt;r4 -->
<g id="edge10" class="edge">
<title>r2:e&#45;&gt;r4:n</title>
<path fill="none" stroke="black" d="M286,-186C303.1,-186 304,-174.03 320,-168 381.03,-145 461.61,-194.97 470.24,-142.22"/>
<polygon fill="black" stroke="black" points="473.75,-142.23 471,-132 466.77,-141.71 473.75,-142.23"/>
<text text-anchor="middle" x="455" y="-135.8" font-family="Times,serif" font-size="14.00">data</text>
</g>
<!-- r6 -->
<g id="node9" class="node">
<title>r6</title>
<g id="a_node9"><a xlink:href="file:///home/runner/work/flow/flow/target/flowstdlib/control/tap/tap.html" xlink:title="step&#45;tap (#6)">
<ellipse fill="coral" stroke="black" cx="254" cy="-114" rx="72.29" ry="18"/>
<text text-anchor="middle" x="254" y="-110.3" font-family="Times,serif" font-size="14.00">step&#45;tap (#6)</text>
</a>
</g>
</g>
<!-- r2&#45;&gt;r6 -->
<g id="edge11" class="edge">
<title>r2:se&#45;&gt;r6:n</title>
<path fill="none" stroke="black" d="M250,-168C258.72,-159.28 256.43,-152.25 254.88,-142.2"/>
<polygon fill="black" stroke="black" points="258.35,-141.66 254,-132 251.37,-142.26 258.35,-141.66"/>
<text text-anchor="middle" x="238" y="-135.8" font-family="Times,serif" font-size="14.00">data</text>
<text text-anchor="middle" x="243" y="-156.8" font-family="Times,serif" font-size="14.00">:1</text>
</g>
<!-- r5&#45;&gt;r4 -->
<g id="edge14" class="edge">
<title>r5:se&#45;&gt;r4:ne</title>
<path fill="none" stroke="black" d="M444,-168C458.29,-153.71 489.32,-150.83 492.88,-141.36"/>
<polygon fill="black" stroke="black" points="496.06,-139.9 489,-132 489.6,-142.58 496.06,-139.9"/>
<text text-anchor="middle" x="514.5" y="-135.8" font-family="Times,serif" font-size="14.00">control</text>
<text text-anchor="middle" x="436" y="-156.8" font-family="Times,serif" font-size="14.00">/lt</text>
</g>
<!-- r5&#45;&gt;r6 -->
<g id="edge15" class="edge">
<title>r5:se&#45;&gt;r6:ne</title>
<path fill="none" stroke="black" d="M444,-168C496.85,-115.15 341.59,-181.07 279.74,-138.42"/>
<polygon fill="black" stroke="black" points="281.93,-135.69 272,-132 277.46,-141.08 281.93,-135.69"/>
<text text-anchor="middle" x="297.5" y="-135.8" font-family="Times,serif" font-size="14.00">control</text>
<text text-anchor="middle" x="452" y="-156.8" font-family="Times,serif" font-size="14.00">/lt</text>
</g>
<!-- r4&#45;&gt;r3 -->
<g id="edge12" class="edge">
<title>r4:e&#45;&gt;r3:ne</title>
<path fill="none" stroke="black" d="M545,-114C549.06,-114 545.12,-129.15 548,-132 621.52,-204.8 710.73,-89.38 778,-168 797.36,-190.63 795.22,-210.71 778,-235 751.52,-272.34 616.44,-309.4 570.4,-285.95"/>
<polygon fill="black" stroke="black" points="572.18,-282.92 562,-280 568.14,-288.63 572.18,-282.92"/>
<text text-anchor="middle" x="580" y="-283.8" font-family="Times,serif" font-size="14.00">right</text>
</g>
<!-- r6&#45;&gt;r2 -->
<g id="edge13" class="edge">
<title>r6:e&#45;&gt;r2:ne</title>
<path fill="none" stroke="black" d="M327,-114C348.93,-114 303.22,-191.82 284.35,-203 274.59,-208.78 266.35,-212.48 258.33,-209.59"/>
<polygon fill="black" stroke="black" points="260.25,-206.67 250,-204 256.35,-212.48 260.25,-206.67"/>
<text text-anchor="middle" x="243" y="-207.8" font-family="Times,serif" font-size="14.00">i2</text>
</g>
<!-- initializerr1_1 -->
<!-- initializerr1_1&#45;&gt;r1 -->
<g id="edge16" class="edge">
<title>initializerr1_1&#45;&gt;r1:n</title>
<path fill="none" stroke="blue" stroke-dasharray="1,5" d="M141.76,-247.59C151.1,-245.73 160.8,-244.08 170,-243 329.83,-224.21 372.44,-255.97 532,-235 584.08,-228.16 646.12,-256.99 654.13,-215.06"/>
<polygon fill="blue" stroke="blue" points="657.63,-215.26 655,-205 650.65,-214.66 657.63,-215.26"/>
<text text-anchor="middle" x="136.26" y="-236.39" font-family="Times,serif" font-size="14.00">[]</text>
</g>
<!-- r19&#45;&gt;r19 -->
<g id="edge46" class="edge">
<title>r19:e&#45;&gt;r19:ne</title>
<path fill="none" stroke="black" d="M982,-114C1005.74,-96 1053.74,-96 1053.74,-123 1053.74,-148.31 983.58,-149.89 934.51,-135.16"/>
<polygon fill="black" stroke="black" points="935.59,-131.83 925,-132 933.38,-138.48 935.59,-131.83"/>
<text text-anchor="middle" x="944.5" y="-135.8" font-family="Times,serif" font-size="14.00">array</text>
</g>
<!-- r20 -->
<g id="node23" class="node">
<title>r20</title>
<g id="a_node23"><a xlink:href="file:///home/runner/work/flow/flow/flowr/src/cli/stdio/stdout.html" xlink:title="stdout (#20)">
<ellipse fill="coral" stroke="black" cx="938" cy="-42" rx="69.59" ry="18"/>
<text text-anchor="middle" x="938" y="-38.3" font-family="Times,serif" font-size="14.00">stdout (#20)</text>
</a>
</g>
</g>
<!-- r19&#45;&gt;r20 -->
<g id="edge47" class="edge">
<title>r19:e&#45;&gt;r20:n</title>
<path fill="none" stroke="black" d="M983,-114C991.01,-114 985.63,-103.14 982,-96 972.43,-77.17 948.11,-82.32 940.39,-69.76"/>
<polygon fill="black" stroke="black" points="943.78,-68.88 938,-60 936.98,-70.55 943.78,-68.88"/>
</g>
<!-- r13&#45;&gt;r13 -->
<g id="edge23" class="edge">
<title>r13:e&#45;&gt;r13:n</title>
<path fill="none" stroke="black" d="M1791,-186C1814.39,-168 1862.39,-168 1862.39,-195 1862.39,-220.63 1750.43,-221.93 1685.92,-206.6"/>
<polygon fill="black" stroke="black" points="1686.56,-203.15 1676,-204 1684.79,-209.92 1686.56,-203.15"/>
<text text-anchor="middle" x="1688.5" y="-207.8" font-family="Times,serif" font-size="14.00">left</text>
<text text-anchor="middle" x="1815.5" y="-189.8" font-family="Times,serif" font-size="14.00">/left&#45;gt</text>
</g>
<!-- r17 -->
<g id="node13" class="node">
<title>r17</title>
<g id="a_node13"><a xlink:href="file:///home/runner/work/flow/flow/target/flowstdlib/math/multiply/multiply.html" xlink:title="multiply (#17)">
<ellipse fill="coral" stroke="black" cx="1281" cy="-114" rx="78.79" ry="18"/>
<text text-anchor="middle" x="1281" y="-110.3" font-family="Times,serif" font-size="14.00">multiply (#17)</text>
</a>
</g>
</g>
<!-- r13&#45;&gt;r17 -->
<g id="edge21" class="edge">
<title>r13:s&#45;&gt;r17:n</title>
<path fill="none" stroke="black" d="M1676,-168C1676,-83.65 1314.22,-208.51 1283.13,-142.13"/>
<polygon fill="black" stroke="black" points="1286.48,-141.07 1281,-132 1279.63,-142.51 1286.48,-141.07"/>
<text text-anchor="middle" x="1274" y="-135.8" font-family="Times,serif" font-size="14.00">i1</text>
<text text-anchor="middle" x="1644" y="-156.8" font-family="Times,serif" font-size="14.00">/right&#45;lte</text>
</g>
<!-- r13&#45;&gt;r7 -->
<g id="edge22" class="edge">
<title>r13:s&#45;&gt;r7:ne</title>
<path fill="none" stroke="black" d="M1676,-168C1676,-104.68 1978.18,-168.79 1987.35,-141.14"/>
<polygon fill="black" stroke="black" points="1990.46,-139.53 1983,-132 1984.13,-142.53 1990.46,-139.53"/>
<text text-anchor="middle" x="1976" y="-135.8" font-family="Times,serif" font-size="14.00">i2</text>
<text text-anchor="middle" x="1708" y="-156.8" font-family="Times,serif" font-size="14.00">/right&#45;lte</text>
</g>
<!-- r12 -->
<g id="node15" class="node">
<title>r12</title>
<g id="a_node15"><a xlink:href="file:///home/runner/work/flow/flow/target/flowstdlib/math/add/add.html" xlink:title="add (#12)">
<ellipse fill="coral" stroke="black" cx="1489" cy="-114" rx="57.39" ry="18"/>
<text text-anchor="middle" x="1489" y="-110.3" font-family="Times,serif" font-size="14.00">add (#12)</text>
</a>
</g>
</g>
<!-- r13&#45;&gt;r12 -->
<g id="edge24" class="edge">
<title>r13:se&#45;&gt;r12:n</title>
<path fill="none" stroke="black" d="M1694,-168C1724.15,-137.85 1524.49,-172 1493.11,-141.29"/>
<polygon fill="black" stroke="black" points="1496.25,-139.73 1489,-132 1489.85,-142.56 1496.25,-139.73"/>
<text text-anchor="middle" x="1482" y="-135.8" font-family="Times,serif" font-size="14.00">i1</text>
<text text-anchor="middle" x="1687" y="-171.8" font-family="Times,serif" font-size="14.00">:1</text>
</g>
<!-- r15 -->
<g id="node16" class="node">
<title>r15</title>
<g id="a_node16"><a xlink:href="file:///home/runner/work/flow/flow/target/flowstdlib/math/compare/compare.html" xlink:title="not&#45;last (#15)">
<ellipse fill="coral" stroke="black" cx="1694" cy="-114" rx="75.29" ry="18"/>
<text text-anchor="middle" x="1694" y="-110.3" font-family="Times,serif" font-size="14.00">not&#45;last (#15)</text>
</a>
</g>
</g>
<!-- r13&#45;&gt;r15 -->
<g id="edge25" class="edge">
<title>r13:sw&#45;&gt;r15:ne</title>
<path fill="none" stroke="black" d="M1658,-168C1641.91,-151.91 1697.53,-151.5 1711.69,-142.02"/>
<polygon fill="black" stroke="black" points="1715.19,-142.1 1712,-132 1708.2,-141.89 1715.19,-142.1"/>
<text text-anchor="middle" x="1694" y="-135.8" font-family="Times,serif" font-size="14.00">right</text>
<text text-anchor="middle" x="1651" y="-171.8" font-family="Times,serif" font-size="14.00">:0</text>
</g>
<!-- r13&#45;&gt;r15 -->
<g id="edge26" class="edge">
<title>r13:se&#45;&gt;r15:n</title>
<path fill="none" stroke="black" d="M1694,-168C1702.66,-159.34 1698.06,-152.22 1695.43,-142.17"/>
<polygon fill="black" stroke="black" points="1698.86,-141.42 1694,-132 1691.92,-142.39 1698.86,-141.42"/>
<text text-anchor="middle" x="1681.5" y="-135.8" font-family="Times,serif" font-size="14.00">left</text>
<text text-anchor="middle" x="1687" y="-156.8" font-family="Times,serif" font-size="14.00">:1</text>
</g>
<!-- r17&#45;&gt;r8 -->
<g id="edge34" class="edge">
<title>r17:e&#45;&gt;r8:ne</title>
<path fill="none" stroke="black" d="M1361,-114C1378.49,-114 1379.09,-127.53 1396,-132 1488.74,-156.51 2192.14,-98.77 2258.54,-168 2269.62,-179.55 2269.79,-192.62 2258.54,-204 2246.44,-216.24 2199.19,-218.68 2176.88,-210.23"/>
<polygon fill="black" stroke="black" points="2178.39,-207.05 2168,-205 2174.85,-213.09 2178.39,-207.05"/>
<text text-anchor="middle" x="2186" y="-208.8" font-family="Times,serif" font-size="14.00">right</text>
</g>
<!-- r9 -->
<g id="node21" class="node">
<title>r9</title>
<g id="a_node21"><a xlink:href="file:///home/runner/work/flow/flow/target/flowstdlib/control/tap/tap.html" xlink:title="next&#45;tap (#9)">
<ellipse fill="coral" stroke="black" cx="2342" cy="-42" rx="72.59" ry="18"/>
<text text-anchor="middle" x="2342" y="-38.3" font-family="Times,serif" font-size="14.00">next&#45;tap (#9)</text>
</a>
</g>
</g>
<!-- r7&#45;&gt;r9 -->
<g id="edge40" class="edge">
<title>r7:e&#45;&gt;r9:n</title>
<path fill="none" stroke="black" d="M2019,-114C2022.78,-114 2018.33,-82.68 2021,-80 2044.01,-56.91 2292.1,-89.03 2335.53,-67.74"/>
<polygon fill="black" stroke="black" points="2338.27,-69.92 2342,-60 2332.9,-65.43 2338.27,-69.92"/>
<text text-anchor="middle" x="2326" y="-63.8" font-family="Times,serif" font-size="14.00">data</text>
</g>
<!-- r11 -->
<g id="node22" class="node">
<title>r11</title>
<g id="a_node22"><a xlink:href="file:///home/runner/work/flow/flow/target/flowstdlib/control/tap/tap.html" xlink:title="step&#45;tap (#11)">
<ellipse fill="coral" stroke="black" cx="2119" cy="-42" rx="77.99" ry="18"/>
<text text-anchor="middle" x="2119" y="-38.3" font-family="Times,serif" font-size="14.00">step&#45;tap (#11)</text>
</a>
</g>
</g>
<!-- r7&#45;&gt;r11 -->
<g id="edge41" class="edge">
<title>r7:se&#45;&gt;r11:n</title>
<path fill="none" stroke="black" d="M1983,-96C1995.96,-83.04 2003.49,-85.41 2021,-80 2038.83,-74.48 2095.84,-79.8 2113.64,-68.48"/>
<polygon fill="black" stroke="black" points="2116.61,-70.32 2119,-60 2110.7,-66.58 2116.61,-70.32"/>
<text text-anchor="middle" x="2103" y="-63.8" font-family="Times,serif" font-size="14.00">data</text>
<text text-anchor="middle" x="1976" y="-84.8" font-family="Times,serif" font-size="14.00">:1</text>
</g>
<!-- r14 -->
<g id="node17" class="node">
<title>r14</title>
<g id="a_node17"><a xlink:href="file:///home/runner/work/flow/flow/target/flowstdlib/control/tap/tap.html" xlink:title="next&#45;tap (#14)">
<ellipse fill="coral" stroke="black" cx="1714" cy="-42" rx="78.79" ry="18"/>
<text text-anchor="middle" x="1714" y="-38.3" font-family="Times,serif" font-size="14.00">next&#45;tap (#14)</text>
</a>
</g>
</g>
<!-- r12&#45;&gt;r14 -->
<g id="edge27" class="edge">
<title>r12:e&#45;&gt;r14:n</title>
<path fill="none" stroke="black" d="M1547,-114C1569.01,-114 1563.22,-89.66 1583,-80 1606.05,-68.75 1688.35,-84.27 1709.18,-68.99"/>
<polygon fill="black" stroke="black" points="1712.36,-70.47 1714,-60 1706.19,-67.16 1712.36,-70.47"/>
<text text-anchor="middle" x="1698" y="-63.8" font-family="Times,serif" font-size="14.00">data</text>
</g>
<!-- r16 -->
<g id="node18" class="node">
<title>r16</title>
<g id="a_node18"><a xlink:href="file:///home/runner/work/flow/flow/target/flowstdlib/control/tap/tap.html" xlink:title="step&#45;tap (#16)">
<ellipse fill="coral" stroke="black" cx="1485" cy="-42" rx="77.99" ry="18"/>
<text text-anchor="middle" x="1485" y="-38.3" font-family="Times,serif" font-size="14.00">step&#45;tap (#16)</text>
</a>
</g>
</g>
<!-- r12&#45;&gt;r16 -->
<g id="edge28" class="edge">
<title>r12:se&#45;&gt;r16:n</title>
<path fill="none" stroke="black" d="M1506,-96C1516.44,-85.56 1496.9,-80.66 1488.54,-69.73"/>
<polygon fill="black" stroke="black" points="1491.71,-68.2 1485,-60 1485.13,-70.59 1491.71,-68.2"/>
<text text-anchor="middle" x="1469" y="-63.8" font-family="Times,serif" font-size="14.00">data</text>
<text text-anchor="middle" x="1499" y="-84.8" font-family="Times,serif" font-size="14.00">:1</text>
</g>
<!-- r15&#45;&gt;r14 -->
<g id="edge31" class="edge">
<title>r15:se&#45;&gt;r14:ne</title>
<path fill="none" stroke="black" d="M1712,-95C1721.4,-85.6 1734.84,-77.85 1735.97,-69.3"/>
<polygon fill="black" stroke="black" points="1739.14,-67.82 1732,-60 1732.71,-70.57 1739.14,-67.82"/>
<text text-anchor="middle" x="1757.5" y="-63.8" font-family="Times,serif" font-size="14.00">control</text>
<text text-anchor="middle" x="1704" y="-83.8" font-family="Times,serif" font-size="14.00">/lt</text>
</g>
<!-- r15&#45;&gt;r16 -->
<g id="edge32" class="edge">
<title>r15:se&#45;&gt;r16:ne</title>
<path fill="none" stroke="black" d="M1712,-95C1743.15,-63.85 1562.23,-89.5 1511.52,-65.66"/>
<polygon fill="black" stroke="black" points="1513.26,-62.62 1503,-60 1509.39,-68.45 1513.26,-62.62"/>
<text text-anchor="middle" x="1528.5" y="-63.8" font-family="Times,serif" font-size="14.00">control</text>
<text text-anchor="middle" x="1720" y="-83.8" font-family="Times,serif" font-size="14.00">/lt</text>
</g>
<!-- r14&#45;&gt;r13 -->
<g id="edge29" class="edge">
<title>r14:e&#45;&gt;r13:ne</title>
<path fill="none" stroke="black" d="M1794,-42C1866.02,-42 1845.91,-158.13 1790.39,-204 1776.13,-215.78 1725.94,-219.25 1702.74,-210.24"/>
<polygon fill="black" stroke="black" points="1704.38,-207.14 1694,-205 1700.78,-213.14 1704.38,-207.14"/>
<text text-anchor="middle" x="1712" y="-208.8" font-family="Times,serif" font-size="14.00">right</text>
</g>
<!-- r16&#45;&gt;r12 -->
<g id="edge30" class="edge">
<title>r16:e&#45;&gt;r12:ne</title>
<path fill="none" stroke="black" d="M1564,-42C1604.34,-42 1577.52,-105.58 1546.19,-131 1535.25,-139.88 1524.42,-143.24 1514.13,-138.05"/>
<polygon fill="black" stroke="black" points="1516.11,-135.16 1506,-132 1511.93,-140.78 1516.11,-135.16"/>
<text text-anchor="middle" x="1499" y="-135.8" font-family="Times,serif" font-size="14.00">i2</text>
</g>
<!-- initializerr17_1 -->
<!-- initializerr17_1&#45;&gt;r17 -->
<g id="edge33" class="edge">
<title>initializerr17_1&#45;&gt;r17:w</title>
<path fill="none" stroke="blue" d="M1116.86,-168.17C1131.65,-149.15 1158.94,-120.11 1190.93,-114.84"/>
<polygon fill="blue" stroke="blue" points="1191.32,-118.32 1201,-114 1190.74,-111.34 1191.32,-118.32"/>
<text text-anchor="middle" x="1111.86" y="-156.97" font-family="Times,serif" font-size="14.00">2</text>
</g>
<!-- r10&#45;&gt;r9 -->
<g id="edge44" class="edge">
<title>r10:se&#45;&gt;r9:ne</title>
<path fill="none" stroke="black" d="M2184,-95C2207.68,-71.32 2335.61,-82.62 2359.28,-70.14"/>
<polygon fill="black" stroke="black" points="2362.78,-70.22 2360,-60 2355.8,-69.73 2362.78,-70.22"/>
<text text-anchor="middle" x="2385.5" y="-63.8" font-family="Times,serif" font-size="14.00">control</text>
<text text-anchor="middle" x="2176" y="-83.8" font-family="Times,serif" font-size="14.00">/lt</text>
</g>
<!-- r10&#45;&gt;r11 -->
<g id="edge45" class="edge">
<title>r10:se&#45;&gt;r11:ne</title>
<path fill="none" stroke="black" d="M2184,-95C2200.11,-78.89 2166.14,-78.27 2145.06,-66.04"/>
<polygon fill="black" stroke="black" points="2147.1,-63.19 2137,-60 2142.91,-68.8 2147.1,-63.19"/>
<text text-anchor="middle" x="2162.5" y="-63.8" font-family="Times,serif" font-size="14.00">control</text>
<text text-anchor="middle" x="2192" y="-83.8" font-family="Times,serif" font-size="14.00">/lt</text>
</g>
<!-- r9&#45;&gt;r8 -->
<g id="edge42" class="edge">
<title>r9:e&#45;&gt;r8:ne</title>
<path fill="none" stroke="black" d="M2416,-42C2466.2,-42 2305.21,-185.5 2258.54,-204 2224.49,-217.5 2200.99,-230.83 2175.59,-211.66"/>
<polygon fill="black" stroke="black" points="2177.83,-208.96 2168,-205 2173.21,-214.23 2177.83,-208.96"/>
<text text-anchor="middle" x="2186" y="-193.8" font-family="Times,serif" font-size="14.00">right</text>
</g>
<!-- r11&#45;&gt;r7 -->
<g id="edge43" class="edge">
<title>r11:e&#45;&gt;r7:ne</title>
<path fill="none" stroke="black" d="M2198,-42C2206.01,-42 2202.5,-54.17 2197,-60 2142.96,-117.25 2075.5,-23.19 2021,-80 2013.13,-88.2 2025.55,-123.14 2017.35,-131 2009.08,-138.93 1999.97,-141.6 1991.37,-137.89"/>
<polygon fill="black" stroke="black" points="1993.19,-134.89 1983,-132 1989.17,-140.61 1993.19,-134.89"/>
<text text-anchor="middle" x="1990" y="-135.8" font-family="Times,serif" font-size="14.00">i2</text>
</g>
</g>
</svg>
