<?xml version="1.0" encoding="UTF-8" standalone="no"?>
<!DOCTYPE svg PUBLIC "-//W3C//DTD SVG 1.1//EN"
 "http://www.w3.org/Graphics/SVG/1.1/DTD/svg11.dtd">
<!-- Generated by graphviz version 2.43.0 (0)
 -->
<!-- Title: prime Pages: 1 -->
<svg width="2524pt" height="490pt"
 viewBox="0.00 0.00 2523.74 490.00" xmlns="http://www.w3.org/2000/svg" xmlns:xlink="http://www.w3.org/1999/xlink">
<g id="graph0" class="graph" transform="scale(1 1) rotate(0) translate(4 486)">
<title>prime</title>
<polygon fill="white" stroke="transparent" points="-4,4 -4,-486 2519.74,-486 2519.74,4 -4,4"/>
<text text-anchor="middle" x="1257.87" y="-466.8" font-family="Times,serif" font-size="14.00">/prime</text>
<g id="clust1" class="cluster">
<title>cluster_candidates</title>
<polygon fill="none" stroke="black" points="84.74,-87 84.74,-396 1084.74,-396 1084.74,-87 84.74,-87"/>
<text text-anchor="middle" x="584.74" y="-380.8" font-family="Times,serif" font-size="14.00">/prime/candidates</text>
</g>
<g id="clust2" class="cluster">
<title>cluster_sequence</title>
<polygon fill="none" stroke="black" points="250.74,-95 250.74,-365 900.74,-365 900.74,-95 250.74,-95"/>
<text text-anchor="middle" x="575.74" y="-349.8" font-family="Times,serif" font-size="14.00">/prime/candidates/sequence</text>
</g>
<g id="clust3" class="cluster">
<title>cluster_composites</title>
<polygon fill="none" stroke="black" points="1092.74,-8 1092.74,-365 2507.74,-365 2507.74,-8 1092.74,-8"/>
<text text-anchor="middle" x="1800.24" y="-349.8" font-family="Times,serif" font-size="14.00">/prime/composites</text>
</g>
<g id="clust4" class="cluster">
<title>cluster_divisors</title>
<polygon fill="none" stroke="black" points="1270.74,-16 1270.74,-257 2101.74,-257 2101.74,-16 1270.74,-16"/>
<text text-anchor="middle" x="1686.24" y="-241.8" font-family="Times,serif" font-size="14.00">/prime/composites/divisors</text>
</g>
<g id="clust5" class="cluster">
<title>cluster_composite_sequence</title>
<polygon fill="none" stroke="black" points="2109.74,-16 2109.74,-257 2499.74,-257 2499.74,-16 2109.74,-16"/>
<text text-anchor="middle" x="2304.74" y="-241.8" font-family="Times,serif" font-size="14.00">/prime/composites/composite&#45;sequence</text>
</g>
<!-- r0 -->
<g id="node1" class="node">
<title>r0</title>
<g id="a_node1"><a xlink:href="file:///home/runner/work/flow/flow/flowr/src/cli/args/get.html" xlink:title="args (#0)">
<ellipse fill="coral" stroke="black" cx="1142.74" cy="-441" rx="54.69" ry="18"/>
<text text-anchor="middle" x="1142.74" y="-437.3" font-family="Times,serif" font-size="14.00">args (#0)</text>
</a>
</g>
</g>
<!-- r3 -->
<g id="node2" class="node">
<title>r3</title>
<g id="a_node2"><a xlink:href="file:///home/runner/work/flow/flow/target/flowstdlib/control/compare_switch/compare_switch.html" xlink:title="compare_switch (#3)">
<ellipse fill="coral" stroke="black" cx="760.74" cy="-316" rx="108.58" ry="18"/>
<text text-anchor="middle" x="760.74" y="-312.3" font-family="Times,serif" font-size="14.00">compare_switch (#3)</text>
</a>
</g>
</g>
<!-- r0&#45;&gt;r3 -->
<g id="edge1" class="edge">
<title>r0:s&#45;&gt;r3:n</title>
<path fill="none" stroke="black" d="M1142.74,-423C1142.74,-403.09 823.57,-364.25 768.72,-341.09"/>
<polygon fill="black" stroke="black" points="770.81,-338.28 760.74,-335 766.57,-343.85 770.81,-338.28"/>
<text text-anchor="middle" x="748.24" y="-338.8" font-family="Times,serif" font-size="14.00">left</text>
<text text-anchor="middle" x="1118.74" y="-411.8" font-family="Times,serif" font-size="14.00">/json/1</text>
</g>
<!-- r1 -->
<g id="node3" class="node">
<title>r1</title>
<g id="a_node3"><a xlink:href="file:///home/runner/work/flow/flow/target/flowstdlib/data/accumulate/accumulate.html" xlink:title="accumulate (#1)">
<ellipse fill="coral" stroke="black" cx="345.74" cy="-208" rx="87.18" ry="18"/>
<text text-anchor="middle" x="345.74" y="-204.3" font-family="Times,serif" font-size="14.00">accumulate (#1)</text>
</a>
</g>
</g>
<!-- r0&#45;&gt;r1 -->
<g id="edge2" class="edge">
<title>r0:s&#45;&gt;r1:nw</title>
<path fill="none" stroke="black" d="M1142.74,-423C1142.74,-393.1 87.61,-417.4 66.74,-396 -153.41,-170.26 239.16,-273.69 319.55,-232.74"/>
<polygon fill="black" stroke="black" points="321.56,-235.61 327.74,-227 317.54,-229.87 321.56,-235.61"/>
<text text-anchor="middle" x="288.74" y="-230.8" font-family="Times,serif" font-size="14.00">chunk_size</text>
<text text-anchor="middle" x="1166.74" y="-411.8" font-family="Times,serif" font-size="14.00">/json/1</text>
</g>
<!-- r18 -->
<g id="node4" class="node">
<title>r18</title>
<g id="a_node4"><a xlink:href="file:///home/runner/work/flow/flow/target/flowstdlib/math/sqrt/sqrt.html" xlink:title="sqrt (#18)">
<ellipse fill="coral" stroke="black" cx="1426.74" cy="-316" rx="59.29" ry="18"/>
<text text-anchor="middle" x="1426.74" y="-312.3" font-family="Times,serif" font-size="14.00">sqrt (#18)</text>
</a>
</g>
</g>
<!-- r0&#45;&gt;r18 -->
<g id="edge3" class="edge">
<title>r0:s&#45;&gt;r18:n</title>
<path fill="none" stroke="black" d="M1142.74,-423C1142.74,-294.47 1411.42,-457.73 1426.11,-345.16"/>
<polygon fill="black" stroke="black" points="1429.62,-345.2 1426.74,-335 1422.63,-344.77 1429.62,-345.2"/>
<text text-anchor="middle" x="1118.74" y="-426.8" font-family="Times,serif" font-size="14.00">/json/1</text>
</g>
<!-- r8 -->
<g id="node5" class="node">
<title>r8</title>
<g id="a_node5"><a xlink:href="file:///home/runner/work/flow/flow/target/flowstdlib/control/compare_switch/compare_switch.html" xlink:title="compare_switch (#8)">
<ellipse fill="coral" stroke="black" cx="2226.74" cy="-208" rx="108.58" ry="18"/>
<text text-anchor="middle" x="2226.74" y="-204.3" font-family="Times,serif" font-size="14.00">compare_switch (#8)</text>
</a>
</g>
</g>
<!-- r0&#45;&gt;r8 -->
<g id="edge4" class="edge">
<title>r0:s&#45;&gt;r8:n</title>
<path fill="none" stroke="black" d="M1142.74,-423C1142.74,-382.58 1830.48,-405.59 1869.74,-396 2036.94,-355.15 2219.46,-400.7 2226.53,-237.03"/>
<polygon fill="black" stroke="black" points="2230.03,-237.07 2226.74,-227 2223.03,-236.92 2230.03,-237.07"/>
<text text-anchor="middle" x="2214.24" y="-230.8" font-family="Times,serif" font-size="14.00">left</text>
<text text-anchor="middle" x="1118.74" y="-411.8" font-family="Times,serif" font-size="14.00">/json/1</text>
</g>
<!-- r3&#45;&gt;r3 -->
<g id="edge6" class="edge">
<title>r3:e&#45;&gt;r3:n</title>
<path fill="none" stroke="black" d="M869.74,-316C893.28,-305.5 941.28,-305.5 941.28,-325 941.28,-343.47 833.28,-344.45 770.74,-335.57"/>
<polygon fill="black" stroke="black" points="771.16,-332.1 760.74,-334 770.07,-339.01 771.16,-332.1"/>
<text text-anchor="middle" x="773.24" y="-337.8" font-family="Times,serif" font-size="14.00">left</text>
<text text-anchor="middle" x="894.24" y="-319.8" font-family="Times,serif" font-size="14.00">/left&#45;gt</text>
</g>
<!-- r3&#45;&gt;r1 -->
<g id="edge5" class="edge">
<title>r3:s&#45;&gt;r1:n</title>
<path fill="none" stroke="black" d="M760.74,-298C760.74,-293.9 472.76,-257.77 468.74,-257 417.15,-247.11 354.68,-278.58 346.61,-237.02"/>
<polygon fill="black" stroke="black" points="350.09,-236.66 345.74,-227 343.12,-237.27 350.09,-236.66"/>
<text text-anchor="middle" x="368.74" y="-230.8" font-family="Times,serif" font-size="14.00">values</text>
<text text-anchor="middle" x="728.74" y="-286.8" font-family="Times,serif" font-size="14.00">/right&#45;lte</text>
</g>
<!-- r2 -->
<g id="node6" class="node">
<title>r2</title>
<g id="a_node6"><a xlink:href="file:///home/runner/work/flow/flow/target/flowstdlib/math/add/add.html" xlink:title="add (#2)">
<ellipse fill="coral" stroke="black" cx="555.74" cy="-208" rx="51.19" ry="18"/>
<text text-anchor="middle" x="555.74" y="-204.3" font-family="Times,serif" font-size="14.00">add (#2)</text>
</a>
</g>
</g>
<!-- r3&#45;&gt;r2 -->
<g id="edge7" class="edge">
<title>r3:se&#45;&gt;r2:n</title>
<path fill="none" stroke="black" d="M778.74,-298C780.13,-296.6 644.62,-257.61 642.74,-257 607.62,-245.66 565.04,-263.66 557.06,-237.23"/>
<polygon fill="black" stroke="black" points="560.49,-236.47 555.74,-227 553.55,-237.37 560.49,-236.47"/>
<text text-anchor="middle" x="548.74" y="-230.8" font-family="Times,serif" font-size="14.00">i1</text>
<text text-anchor="middle" x="771.74" y="-286.8" font-family="Times,serif" font-size="14.00">:1</text>
</g>
<!-- r5 -->
<g id="node7" class="node">
<title>r5</title>
<g id="a_node7"><a xlink:href="file:///home/runner/work/flow/flow/target/flowstdlib/math/compare/compare.html" xlink:title="not&#45;last (#5)">
<ellipse fill="coral" stroke="black" cx="748.74" cy="-208" rx="69.59" ry="18"/>
<text text-anchor="middle" x="748.74" y="-204.3" font-family="Times,serif" font-size="14.00">not&#45;last (#5)</text>
</a>
</g>
</g>
<!-- r3&#45;&gt;r5 -->
<g id="edge8" class="edge">
<title>r3:sw&#45;&gt;r5:ne</title>
<path fill="none" stroke="black" d="M742.74,-298C722.13,-277.39 773.99,-256.52 771.5,-235.85"/>
<polygon fill="black" stroke="black" points="774.56,-234.14 766.74,-227 768.4,-237.46 774.56,-234.14"/>
<text text-anchor="middle" x="748.74" y="-230.8" font-family="Times,serif" font-size="14.00">right</text>
<text text-anchor="middle" x="735.74" y="-301.8" font-family="Times,serif" font-size="14.00">:0</text>
</g>
<!-- r3&#45;&gt;r5 -->
<g id="edge9" class="edge">
<title>r3:se&#45;&gt;r5:n</title>
<path fill="none" stroke="black" d="M778.74,-298C800.41,-276.33 759.3,-264.03 750.39,-237.15"/>
<polygon fill="black" stroke="black" points="753.8,-236.31 748.74,-227 746.89,-237.43 753.8,-236.31"/>
<text text-anchor="middle" x="736.24" y="-230.8" font-family="Times,serif" font-size="14.00">left</text>
<text text-anchor="middle" x="785.74" y="-286.8" font-family="Times,serif" font-size="14.00">:1</text>
</g>
<!-- r1&#45;&gt;r1 -->
<g id="edge17" class="edge">
<title>r1:s&#45;&gt;r1:nw</title>
<path fill="none" stroke="black" d="M345.74,-190C292.71,-179.5 186.65,-179.5 186.65,-208 186.65,-234.77 264.37,-236.4 317.75,-227.79"/>
<polygon fill="black" stroke="black" points="318.51,-231.21 327.74,-226 317.28,-224.32 318.51,-231.21"/>
<text text-anchor="middle" x="366.74" y="-229.8" font-family="Times,serif" font-size="14.00">chunk_size</text>
<text text-anchor="middle" x="304.74" y="-178.8" font-family="Times,serif" font-size="14.00">/chunk_size</text>
</g>
<!-- r1&#45;&gt;r1 -->
<g id="edge18" class="edge">
<title>r1:sw&#45;&gt;r1:ne</title>
<path fill="none" stroke="black" d="M327.74,-190C186.65,-203 186.65,-247 345.74,-247 500.95,-247 504.74,-233.68 373.82,-226.52"/>
<polygon fill="black" stroke="black" points="373.91,-223.02 363.74,-226 373.54,-230.02 373.91,-223.02"/>
<text text-anchor="middle" x="339.74" y="-214.8" font-family="Times,serif" font-size="14.00">partial</text>
<text text-anchor="middle" x="353.74" y="-178.8" font-family="Times,serif" font-size="14.00">/partial</text>
</g>
<!-- r19 -->
<g id="node11" class="node">
<title>r19</title>
<g id="a_node11"><a xlink:href="file:///home/runner/work/flow/flow/target/flowstdlib/data/remove/remove.html" xlink:title="remove (#19)">
<ellipse fill="coral" stroke="black" cx="983.74" cy="-121" rx="74.99" ry="18"/>
<text text-anchor="middle" x="983.74" y="-117.3" font-family="Times,serif" font-size="14.00">remove (#19)</text>
</a>
</g>
</g>
<!-- r1&#45;&gt;r19 -->
<g id="edge19" class="edge">
<title>r1:e&#45;&gt;r19:ne</title>
<path fill="none" stroke="black" d="M433.74,-208C451.23,-208 451.95,-194.92 468.74,-190 520.81,-174.73 956.32,-179.89 1000.55,-148.99"/>
<polygon fill="black" stroke="black" points="1004.03,-149.34 1001.74,-139 997.08,-148.51 1004.03,-149.34"/>
<text text-anchor="middle" x="982.24" y="-142.8" font-family="Times,serif" font-size="14.00">array</text>
<text text-anchor="middle" x="457.74" y="-211.8" font-family="Times,serif" font-size="14.00">/chunk</text>
</g>
<!-- r13 -->
<g id="node12" class="node">
<title>r13</title>
<g id="a_node12"><a xlink:href="file:///home/runner/work/flow/flow/target/flowstdlib/control/compare_switch/compare_switch.html" xlink:title="compare_switch (#13)">
<ellipse fill="coral" stroke="black" cx="1752.74" cy="-208" rx="114.28" ry="18"/>
<text text-anchor="middle" x="1752.74" y="-204.3" font-family="Times,serif" font-size="14.00">compare_switch (#13)</text>
</a>
</g>
</g>
<!-- r18&#45;&gt;r13 -->
<g id="edge20" class="edge">
<title>r18:e&#45;&gt;r13:n</title>
<path fill="none" stroke="black" d="M1486.74,-316C1545.66,-316 1730.89,-292.17 1750.97,-236.91"/>
<polygon fill="black" stroke="black" points="1754.42,-237.46 1752.74,-227 1747.53,-236.23 1754.42,-237.46"/>
<text text-anchor="middle" x="1740.24" y="-230.8" font-family="Times,serif" font-size="14.00">left</text>
</g>
<!-- r8&#45;&gt;r8 -->
<g id="edge36" class="edge">
<title>r8:e&#45;&gt;r8:n</title>
<path fill="none" stroke="black" d="M2335.74,-208C2359.28,-197.5 2407.28,-197.5 2407.28,-217 2407.28,-235.47 2299.28,-236.45 2236.74,-227.57"/>
<polygon fill="black" stroke="black" points="2237.16,-224.1 2226.74,-226 2236.07,-231.01 2237.16,-224.1"/>
<text text-anchor="middle" x="2239.24" y="-229.8" font-family="Times,serif" font-size="14.00">left</text>
<text text-anchor="middle" x="2360.24" y="-211.8" font-family="Times,serif" font-size="14.00">/left&#45;gt</text>
</g>
<!-- r8&#45;&gt;r19 -->
<g id="edge35" class="edge">
<title>r8:s&#45;&gt;r19:n</title>
<path fill="none" stroke="black" d="M2226.74,-190C2226.74,-174.22 1106.32,-174.48 1090.74,-172 1045.43,-164.8 992.72,-185.12 984.77,-149.35"/>
<polygon fill="black" stroke="black" points="988.21,-148.61 983.74,-139 981.24,-149.3 988.21,-148.61"/>
<text text-anchor="middle" x="1003.24" y="-142.8" font-family="Times,serif" font-size="14.00">value</text>
<text text-anchor="middle" x="2194.74" y="-178.8" font-family="Times,serif" font-size="14.00">/right&#45;lte</text>
</g>
<!-- r7 -->
<g id="node14" class="node">
<title>r7</title>
<g id="a_node14"><a xlink:href="file:///home/runner/work/flow/flow/target/flowstdlib/math/add/add.html" xlink:title="add (#7)">
<ellipse fill="coral" stroke="black" cx="2042.74" cy="-121" rx="51.19" ry="18"/>
<text text-anchor="middle" x="2042.74" y="-117.3" font-family="Times,serif" font-size="14.00">add (#7)</text>
</a>
</g>
</g>
<!-- r8&#45;&gt;r7 -->
<g id="edge37" class="edge">
<title>r8:se&#45;&gt;r7:n</title>
<path fill="none" stroke="black" d="M2244.74,-190C2251.92,-182.82 2091.16,-157.91 2051.49,-144.09"/>
<polygon fill="black" stroke="black" points="2053.14,-141 2042.74,-139 2049.62,-147.05 2053.14,-141"/>
<text text-anchor="middle" x="2035.74" y="-142.8" font-family="Times,serif" font-size="14.00">i1</text>
<text text-anchor="middle" x="2237.74" y="-178.8" font-family="Times,serif" font-size="14.00">:1</text>
</g>
<!-- r10 -->
<g id="node20" class="node">
<title>r10</title>
<g id="a_node20"><a xlink:href="file:///home/runner/work/flow/flow/target/flowstdlib/math/compare/compare.html" xlink:title="not&#45;last (#10)">
<ellipse fill="coral" stroke="black" cx="2242.74" cy="-121" rx="75.29" ry="18"/>
<text text-anchor="middle" x="2242.74" y="-117.3" font-family="Times,serif" font-size="14.00">not&#45;last (#10)</text>
</a>
</g>
</g>
<!-- r8&#45;&gt;r10 -->
<g id="edge38" class="edge">
<title>r8:sw&#45;&gt;r10:ne</title>
<path fill="none" stroke="black" d="M2208.74,-190C2194.38,-175.64 2237.19,-187.13 2250.74,-172 2258.08,-163.79 2265.64,-155.93 2265.28,-148.14"/>
<polygon fill="black" stroke="black" points="2268.32,-146.4 2260.74,-139 2262.05,-149.51 2268.32,-146.4"/>
<text text-anchor="middle" x="2242.74" y="-142.8" font-family="Times,serif" font-size="14.00">right</text>
<text text-anchor="middle" x="2201.74" y="-193.8" font-family="Times,serif" font-size="14.00">:0</text>
</g>
<!-- r8&#45;&gt;r10 -->
<g id="edge39" class="edge">
<title>r8:se&#45;&gt;r10:n</title>
<path fill="none" stroke="black" d="M2244.74,-190C2250.94,-183.8 2246.35,-163.47 2243.96,-149.32"/>
<polygon fill="black" stroke="black" points="2247.39,-148.52 2242.74,-139 2240.43,-149.34 2247.39,-148.52"/>
<text text-anchor="middle" x="2230.24" y="-142.8" font-family="Times,serif" font-size="14.00">left</text>
<text text-anchor="middle" x="2251.74" y="-178.8" font-family="Times,serif" font-size="14.00">:1</text>
</g>
<!-- r4 -->
<g id="node8" class="node">
<title>r4</title>
<g id="a_node8"><a xlink:href="file:///home/runner/work/flow/flow/target/flowstdlib/control/tap/tap.html" xlink:title="next&#45;tap (#4)">
<ellipse fill="coral" stroke="black" cx="758.74" cy="-121" rx="72.59" ry="18"/>
<text text-anchor="middle" x="758.74" y="-117.3" font-family="Times,serif" font-size="14.00">next&#45;tap (#4)</text>
</a>
</g>
</g>
<!-- r2&#45;&gt;r4 -->
<g id="edge10" class="edge">
<title>r2:e&#45;&gt;r4:n</title>
<path fill="none" stroke="black" d="M608.74,-208C625.84,-208 627.35,-197.45 642.74,-190 690.07,-167.1 750.13,-191.59 757.9,-149.12"/>
<polygon fill="black" stroke="black" points="761.4,-149.26 758.74,-139 754.42,-148.68 761.4,-149.26"/>
<text text-anchor="middle" x="742.74" y="-142.8" font-family="Times,serif" font-size="14.00">data</text>
</g>
<!-- r6 -->
<g id="node9" class="node">
<title>r6</title>
<g id="a_node9"><a xlink:href="file:///home/runner/work/flow/flow/target/flowstdlib/control/tap/tap.html" xlink:title="step&#45;tap (#6)">
<ellipse fill="coral" stroke="black" cx="541.74" cy="-121" rx="72.29" ry="18"/>
<text text-anchor="middle" x="541.74" y="-117.3" font-family="Times,serif" font-size="14.00">step&#45;tap (#6)</text>
</a>
</g>
</g>
<!-- r2&#45;&gt;r6 -->
<g id="edge11" class="edge">
<title>r2:se&#45;&gt;r6:n</title>
<path fill="none" stroke="black" d="M572.74,-190C580.1,-182.64 563.39,-180.75 557.74,-172 551.11,-161.73 545.42,-157.47 543,-149.11"/>
<polygon fill="black" stroke="black" points="546.45,-148.49 541.74,-139 539.5,-149.36 546.45,-148.49"/>
<text text-anchor="middle" x="525.74" y="-142.8" font-family="Times,serif" font-size="14.00">data</text>
<text text-anchor="middle" x="565.74" y="-178.8" font-family="Times,serif" font-size="14.00">:1</text>
</g>
<!-- r5&#45;&gt;r4 -->
<g id="edge14" class="edge">
<title>r5:se&#45;&gt;r4:ne</title>
<path fill="none" stroke="black" d="M766.74,-190C780.39,-176.35 789.62,-161.29 782.74,-147.18"/>
<polygon fill="black" stroke="black" points="785.47,-144.99 776.74,-139 779.83,-149.13 785.47,-144.99"/>
<text text-anchor="middle" x="802.24" y="-142.8" font-family="Times,serif" font-size="14.00">control</text>
<text text-anchor="middle" x="758.74" y="-178.8" font-family="Times,serif" font-size="14.00">/lt</text>
</g>
<!-- r5&#45;&gt;r6 -->
<g id="edge15" class="edge">
<title>r5:se&#45;&gt;r6:ne</title>
<path fill="none" stroke="black" d="M766.74,-190C798.14,-158.59 618.17,-170.69 567.95,-144.73"/>
<polygon fill="black" stroke="black" points="569.94,-141.85 559.74,-139 565.94,-147.59 569.94,-141.85"/>
<text text-anchor="middle" x="585.24" y="-142.8" font-family="Times,serif" font-size="14.00">control</text>
<text text-anchor="middle" x="774.74" y="-178.8" font-family="Times,serif" font-size="14.00">/lt</text>
</g>
<!-- r4&#45;&gt;r3 -->
<g id="edge12" class="edge">
<title>r4:e&#45;&gt;r3:ne</title>
<path fill="none" stroke="black" d="M832.74,-121C836.79,-121 834.69,-135.08 835.74,-139 841.98,-162.37 848.87,-166.54 854.74,-190 876.77,-278.02 883.67,-319.45 869.28,-334 863.48,-339.87 811.05,-341.57 788.48,-338.06"/>
<polygon fill="black" stroke="black" points="789.33,-334.66 778.74,-335 787.23,-341.34 789.33,-334.66"/>
<text text-anchor="middle" x="796.74" y="-338.8" font-family="Times,serif" font-size="14.00">right</text>
</g>
<!-- r6&#45;&gt;r2 -->
<g id="edge13" class="edge">
<title>r6:e&#45;&gt;r2:ne</title>
<path fill="none" stroke="black" d="M614.74,-121C661.09,-121 640.64,-193.03 607.08,-225 598.79,-232.9 589.69,-235.59 581.11,-231.88"/>
<polygon fill="black" stroke="black" points="582.93,-228.89 572.74,-226 578.91,-234.61 582.93,-228.89"/>
<text text-anchor="middle" x="565.74" y="-229.8" font-family="Times,serif" font-size="14.00">i2</text>
</g>
<!-- initializerr1_1 -->
<!-- initializerr1_1&#45;&gt;r1 -->
<g id="edge16" class="edge">
<title>initializerr1_1&#45;&gt;r1:n</title>
<path fill="none" stroke="blue" stroke-dasharray="1,5" d="M214.51,-301.8C261.27,-287.34 328.29,-262.75 342.87,-236.94"/>
<polygon fill="blue" stroke="blue" points="346.33,-237.58 345.74,-227 339.6,-235.64 346.33,-237.58"/>
<text text-anchor="middle" x="312.24" y="-268.8" font-family="Times,serif" font-size="14.00">[]</text>
</g>
<!-- r19&#45;&gt;r19 -->
<g id="edge46" class="edge">
<title>r19:e&#45;&gt;r19:ne</title>
<path fill="none" stroke="black" d="M1058.74,-121C1082.48,-110.5 1130.48,-110.5 1130.48,-130 1130.48,-148.21 1060.9,-149.41 1011.86,-140.95"/>
<polygon fill="black" stroke="black" points="1012.22,-137.46 1001.74,-139 1010.9,-144.33 1012.22,-137.46"/>
<text text-anchor="middle" x="1021.24" y="-142.8" font-family="Times,serif" font-size="14.00">array</text>
</g>
<!-- r20 -->
<g id="node23" class="node">
<title>r20</title>
<g id="a_node23"><a xlink:href="file:///home/runner/work/flow/flow/flowr/src/cli/stdio/stdout.html" xlink:title="stdout (#20)">
<ellipse fill="coral" stroke="black" cx="1014.74" cy="-42" rx="69.59" ry="18"/>
<text text-anchor="middle" x="1014.74" y="-38.3" font-family="Times,serif" font-size="14.00">stdout (#20)</text>
</a>
</g>
</g>
<!-- r19&#45;&gt;r20 -->
<g id="edge47" class="edge">
<title>r19:e&#45;&gt;r20:n</title>
<path fill="none" stroke="black" d="M1059.74,-121C1067.75,-121 1062.05,-110.3 1058.74,-103 1049.11,-81.8 1023.97,-85.35 1016.72,-69.99"/>
<polygon fill="black" stroke="black" points="1020.12,-69.13 1014.74,-60 1013.25,-70.49 1020.12,-69.13"/>
</g>
<!-- r13&#45;&gt;r13 -->
<g id="edge23" class="edge">
<title>r13:e&#45;&gt;r13:n</title>
<path fill="none" stroke="black" d="M1867.74,-208C1891.13,-197.5 1939.13,-197.5 1939.13,-217 1939.13,-235.51 1827.17,-236.45 1762.66,-227.52"/>
<polygon fill="black" stroke="black" points="1763.15,-224.05 1752.74,-226 1762.09,-230.97 1763.15,-224.05"/>
<text text-anchor="middle" x="1765.24" y="-229.8" font-family="Times,serif" font-size="14.00">left</text>
<text text-anchor="middle" x="1892.24" y="-211.8" font-family="Times,serif" font-size="14.00">/left&#45;gt</text>
</g>
<!-- r17 -->
<g id="node13" class="node">
<title>r17</title>
<g id="a_node13"><a xlink:href="file:///home/runner/work/flow/flow/target/flowstdlib/math/multiply/multiply.html" xlink:title="multiply (#17)">
<ellipse fill="coral" stroke="black" cx="1357.74" cy="-121" rx="78.79" ry="18"/>
<text text-anchor="middle" x="1357.74" y="-117.3" font-family="Times,serif" font-size="14.00">multiply (#17)</text>
</a>
</g>
</g>
<!-- r13&#45;&gt;r17 -->
<g id="edge21" class="edge">
<title>r13:s&#45;&gt;r17:n</title>
<path fill="none" stroke="black" d="M1752.74,-190C1752.74,-166.05 1563.5,-160.01 1539.74,-157 1522.26,-154.78 1398.23,-158.16 1365.59,-145.84"/>
<polygon fill="black" stroke="black" points="1367.58,-142.93 1357.74,-139 1362.98,-148.21 1367.58,-142.93"/>
<text text-anchor="middle" x="1350.74" y="-142.8" font-family="Times,serif" font-size="14.00">i1</text>
<text text-anchor="middle" x="1720.74" y="-178.8" font-family="Times,serif" font-size="14.00">/right&#45;lte</text>
</g>
<!-- r13&#45;&gt;r7 -->
<g id="edge22" class="edge">
<title>r13:s&#45;&gt;r7:ne</title>
<path fill="none" stroke="black" d="M1752.74,-190C1752.74,-125.98 2057.77,-178.7 2064.25,-148.08"/>
<polygon fill="black" stroke="black" points="2067.32,-146.4 2059.74,-139 2061.05,-149.51 2067.32,-146.4"/>
<text text-anchor="middle" x="2052.74" y="-142.8" font-family="Times,serif" font-size="14.00">i2</text>
<text text-anchor="middle" x="1784.74" y="-178.8" font-family="Times,serif" font-size="14.00">/right&#45;lte</text>
</g>
<!-- r12 -->
<g id="node15" class="node">
<title>r12</title>
<g id="a_node15"><a xlink:href="file:///home/runner/work/flow/flow/target/flowstdlib/math/add/add.html" xlink:title="add (#12)">
<ellipse fill="coral" stroke="black" cx="1565.74" cy="-121" rx="57.39" ry="18"/>
<text text-anchor="middle" x="1565.74" y="-117.3" font-family="Times,serif" font-size="14.00">add (#12)</text>
</a>
</g>
</g>
<!-- r13&#45;&gt;r12 -->
<g id="edge24" class="edge">
<title>r13:se&#45;&gt;r12:n</title>
<path fill="none" stroke="black" d="M1770.74,-190C1801.34,-159.4 1601.3,-181.77 1569.86,-148.68"/>
<polygon fill="black" stroke="black" points="1572.88,-146.83 1565.74,-139 1566.44,-149.57 1572.88,-146.83"/>
<text text-anchor="middle" x="1558.74" y="-142.8" font-family="Times,serif" font-size="14.00">i1</text>
<text text-anchor="middle" x="1763.74" y="-193.8" font-family="Times,serif" font-size="14.00">:1</text>
</g>
<!-- r15 -->
<g id="node16" class="node">
<title>r15</title>
<g id="a_node16"><a xlink:href="file:///home/runner/work/flow/flow/target/flowstdlib/math/compare/compare.html" xlink:title="not&#45;last (#15)">
<ellipse fill="coral" stroke="black" cx="1770.74" cy="-121" rx="75.29" ry="18"/>
<text text-anchor="middle" x="1770.74" y="-117.3" font-family="Times,serif" font-size="14.00">not&#45;last (#15)</text>
</a>
</g>
</g>
<!-- r13&#45;&gt;r15 -->
<g id="edge25" class="edge">
<title>r13:sw&#45;&gt;r15:ne</title>
<path fill="none" stroke="black" d="M1734.74,-190C1724.14,-179.4 1732,-168.4 1741.74,-157 1750.37,-146.9 1770.89,-148.03 1782.84,-147.29"/>
<polygon fill="black" stroke="black" points="1785.79,-149.18 1788.74,-139 1780.09,-145.12 1785.79,-149.18"/>
<text text-anchor="middle" x="1770.74" y="-142.8" font-family="Times,serif" font-size="14.00">right</text>
<text text-anchor="middle" x="1727.74" y="-193.8" font-family="Times,serif" font-size="14.00">:0</text>
</g>
<!-- r13&#45;&gt;r15 -->
<g id="edge26" class="edge">
<title>r13:se&#45;&gt;r15:n</title>
<path fill="none" stroke="black" d="M1770.74,-190C1784.14,-176.6 1775.14,-165.8 1771.82,-149.38"/>
<polygon fill="black" stroke="black" points="1775.26,-148.58 1770.74,-139 1768.29,-149.31 1775.26,-148.58"/>
<text text-anchor="middle" x="1758.24" y="-142.8" font-family="Times,serif" font-size="14.00">left</text>
<text text-anchor="middle" x="1763.74" y="-178.8" font-family="Times,serif" font-size="14.00">:1</text>
</g>
<!-- r17&#45;&gt;r8 -->
<g id="edge34" class="edge">
<title>r17:e&#45;&gt;r8:ne</title>
<path fill="none" stroke="black" d="M1437.74,-121C1455.23,-121 1455.87,-134.38 1472.74,-139 1484.31,-142.17 2327.05,-181.27 2335.28,-190 2346.25,-201.64 2346.53,-214.62 2335.28,-226 2329.48,-231.87 2277.05,-233.57 2254.48,-230.06"/>
<polygon fill="black" stroke="black" points="2255.33,-226.66 2244.74,-227 2253.23,-233.34 2255.33,-226.66"/>
<text text-anchor="middle" x="2262.74" y="-230.8" font-family="Times,serif" font-size="14.00">right</text>
</g>
<!-- r9 -->
<g id="node21" class="node">
<title>r9</title>
<g id="a_node21"><a xlink:href="file:///home/runner/work/flow/flow/target/flowstdlib/control/tap/tap.html" xlink:title="next&#45;tap (#9)">
<ellipse fill="coral" stroke="black" cx="2418.74" cy="-42" rx="72.59" ry="18"/>
<text text-anchor="middle" x="2418.74" y="-38.3" font-family="Times,serif" font-size="14.00">next&#45;tap (#9)</text>
</a>
</g>
</g>
<!-- r7&#45;&gt;r9 -->
<g id="edge40" class="edge">
<title>r7:e&#45;&gt;r9:n</title>
<path fill="none" stroke="black" d="M2095.74,-121C2099.52,-121 2095.1,-89.71 2097.74,-87 2108.96,-75.49 2359.13,-77.31 2409.83,-64.82"/>
<polygon fill="black" stroke="black" points="2411.61,-67.84 2418.74,-60 2408.28,-61.68 2411.61,-67.84"/>
<text text-anchor="middle" x="2402.74" y="-63.8" font-family="Times,serif" font-size="14.00">data</text>
</g>
<!-- r11 -->
<g id="node22" class="node">
<title>r11</title>
<g id="a_node22"><a xlink:href="file:///home/runner/work/flow/flow/target/flowstdlib/control/tap/tap.html" xlink:title="step&#45;tap (#11)">
<ellipse fill="coral" stroke="black" cx="2195.74" cy="-42" rx="77.99" ry="18"/>
<text text-anchor="middle" x="2195.74" y="-38.3" font-family="Times,serif" font-size="14.00">step&#45;tap (#11)</text>
</a>
</g>
</g>
<!-- r7&#45;&gt;r11 -->
<g id="edge41" class="edge">
<title>r7:se&#45;&gt;r11:n</title>
<path fill="none" stroke="black" d="M2059.74,-103C2072.7,-90.04 2080.59,-93.46 2097.74,-87 2109.58,-82.54 2112.6,-81.56 2124.74,-78 2151.83,-70.06 2185.33,-86.84 2193.75,-70.2"/>
<polygon fill="black" stroke="black" points="2197.26,-70.49 2195.74,-60 2190.39,-69.14 2197.26,-70.49"/>
<text text-anchor="middle" x="2179.74" y="-63.8" font-family="Times,serif" font-size="14.00">data</text>
<text text-anchor="middle" x="2052.74" y="-91.8" font-family="Times,serif" font-size="14.00">:1</text>
</g>
<!-- r14 -->
<g id="node17" class="node">
<title>r14</title>
<g id="a_node17"><a xlink:href="file:///home/runner/work/flow/flow/target/flowstdlib/control/tap/tap.html" xlink:title="next&#45;tap (#14)">
<ellipse fill="coral" stroke="black" cx="1787.74" cy="-42" rx="78.79" ry="18"/>
<text text-anchor="middle" x="1787.74" y="-38.3" font-family="Times,serif" font-size="14.00">next&#45;tap (#14)</text>
</a>
</g>
</g>
<!-- r12&#45;&gt;r14 -->
<g id="edge27" class="edge">
<title>r12:e&#45;&gt;r14:n</title>
<path fill="none" stroke="black" d="M1623.74,-121C1645.75,-121 1640.24,-97.21 1659.74,-87 1707.83,-61.82 1777.69,-110.8 1786.76,-70.1"/>
<polygon fill="black" stroke="black" points="1790.25,-70.29 1787.74,-60 1783.29,-69.61 1790.25,-70.29"/>
<text text-anchor="middle" x="1771.74" y="-63.8" font-family="Times,serif" font-size="14.00">data</text>
</g>
<!-- r16 -->
<g id="node18" class="node">
<title>r16</title>
<g id="a_node18"><a xlink:href="file:///home/runner/work/flow/flow/target/flowstdlib/control/tap/tap.html" xlink:title="step&#45;tap (#16)">
<ellipse fill="coral" stroke="black" cx="1558.74" cy="-42" rx="77.99" ry="18"/>
<text text-anchor="middle" x="1558.74" y="-38.3" font-family="Times,serif" font-size="14.00">step&#45;tap (#16)</text>
</a>
</g>
</g>
<!-- r12&#45;&gt;r16 -->
<g id="edge28" class="edge">
<title>r12:se&#45;&gt;r16:n</title>
<path fill="none" stroke="black" d="M1582.74,-103C1595.55,-90.18 1570.69,-84.11 1561.76,-69.98"/>
<polygon fill="black" stroke="black" points="1564.99,-68.56 1558.74,-60 1558.28,-70.59 1564.99,-68.56"/>
<text text-anchor="middle" x="1542.74" y="-63.8" font-family="Times,serif" font-size="14.00">data</text>
<text text-anchor="middle" x="1575.74" y="-91.8" font-family="Times,serif" font-size="14.00">:1</text>
</g>
<!-- r15&#45;&gt;r14 -->
<g id="edge31" class="edge">
<title>r15:se&#45;&gt;r14:ne</title>
<path fill="none" stroke="black" d="M1788.74,-102C1799.97,-90.76 1812.93,-79.98 1810.9,-68.93"/>
<polygon fill="black" stroke="black" points="1813.77,-66.91 1805.74,-60 1807.71,-70.41 1813.77,-66.91"/>
<text text-anchor="middle" x="1831.24" y="-63.8" font-family="Times,serif" font-size="14.00">control</text>
<text text-anchor="middle" x="1780.74" y="-90.8" font-family="Times,serif" font-size="14.00">/lt</text>
</g>
<!-- r15&#45;&gt;r16 -->
<g id="edge32" class="edge">
<title>r15:se&#45;&gt;r16:ne</title>
<path fill="none" stroke="black" d="M1788.74,-102C1820.58,-70.16 1636.24,-90.95 1585.09,-65.7"/>
<polygon fill="black" stroke="black" points="1586.97,-62.74 1576.74,-60 1583.03,-68.53 1586.97,-62.74"/>
<text text-anchor="middle" x="1602.24" y="-63.8" font-family="Times,serif" font-size="14.00">control</text>
<text text-anchor="middle" x="1796.74" y="-90.8" font-family="Times,serif" font-size="14.00">/lt</text>
</g>
<!-- r14&#45;&gt;r13 -->
<g id="edge29" class="edge">
<title>r14:e&#45;&gt;r13:ne</title>
<path fill="none" stroke="black" d="M1867.74,-42C1949.52,-42 1929.28,-172.86 1867.13,-226 1860.39,-231.76 1803.9,-233.86 1780.38,-230.11"/>
<polygon fill="black" stroke="black" points="1781.33,-226.74 1770.74,-227 1779.18,-233.4 1781.33,-226.74"/>
<text text-anchor="middle" x="1788.74" y="-230.8" font-family="Times,serif" font-size="14.00">right</text>
</g>
<!-- r16&#45;&gt;r12 -->
<g id="edge30" class="edge">
<title>r16:e&#45;&gt;r12:ne</title>
<path fill="none" stroke="black" d="M1637.74,-42C1680.91,-42 1655.67,-109.85 1622.93,-138 1612.24,-147.19 1601.26,-150.37 1590.9,-145.09"/>
<polygon fill="black" stroke="black" points="1592.85,-142.18 1582.74,-139 1588.66,-147.79 1592.85,-142.18"/>
<text text-anchor="middle" x="1575.74" y="-142.8" font-family="Times,serif" font-size="14.00">i2</text>
</g>
<!-- initializerr17_1 -->
<!-- initializerr17_1&#45;&gt;r17 -->
<g id="edge33" class="edge">
<title>initializerr17_1&#45;&gt;r17:w</title>
<path fill="none" stroke="blue" d="M1190.72,-190.01C1204.07,-167.1 1231.51,-128.41 1267.4,-121.93"/>
<polygon fill="blue" stroke="blue" points="1268.09,-125.39 1277.74,-121 1267.46,-118.41 1268.09,-125.39"/>
<text text-anchor="middle" x="1216.74" y="-160.8" font-family="Times,serif" font-size="14.00">2</text>
</g>
<!-- r10&#45;&gt;r9 -->
<g id="edge44" class="edge">
<title>r10:se&#45;&gt;r9:ne</title>
<path fill="none" stroke="black" d="M2260.74,-102C2284.95,-77.79 2416.17,-84.97 2437.04,-70.08"/>
<polygon fill="black" stroke="black" points="2440.53,-69.89 2436.74,-60 2433.54,-70.1 2440.53,-69.89"/>
<text text-anchor="middle" x="2462.24" y="-63.8" font-family="Times,serif" font-size="14.00">control</text>
<text text-anchor="middle" x="2252.74" y="-90.8" font-family="Times,serif" font-size="14.00">/lt</text>
</g>
<!-- r10&#45;&gt;r11 -->
<g id="edge45" class="edge">
<title>r10:se&#45;&gt;r11:ne</title>
<path fill="none" stroke="black" d="M2260.74,-102C2278.23,-84.51 2243.65,-80.61 2221.67,-66.3"/>
<polygon fill="black" stroke="black" points="2223.75,-63.48 2213.74,-60 2219.39,-68.96 2223.75,-63.48"/>
<text text-anchor="middle" x="2239.24" y="-63.8" font-family="Times,serif" font-size="14.00">control</text>
<text text-anchor="middle" x="2268.74" y="-90.8" font-family="Times,serif" font-size="14.00">/lt</text>
</g>
<!-- r9&#45;&gt;r8 -->
<g id="edge42" class="edge">
<title>r9:e&#45;&gt;r8:ne</title>
<path fill="none" stroke="black" d="M2492.74,-42C2546.56,-42 2384.57,-204.4 2335.28,-226 2327.76,-229.3 2276.91,-232.62 2254.62,-229.86"/>
<polygon fill="black" stroke="black" points="2255.32,-226.41 2244.74,-227 2253.37,-233.14 2255.32,-226.41"/>
<text text-anchor="middle" x="2262.74" y="-215.8" font-family="Times,serif" font-size="14.00">right</text>
</g>
<!-- r11&#45;&gt;r7 -->
<g id="edge43" class="edge">
<title>r11:e&#45;&gt;r7:ne</title>
<path fill="none" stroke="black" d="M2274.74,-42C2282.75,-42 2279.15,-54.09 2273.74,-60 2267.06,-67.29 2104.36,-79.65 2097.74,-87 2090.13,-95.44 2102.29,-130.14 2094.08,-138 2085.82,-145.93 2076.7,-148.6 2068.11,-144.89"/>
<polygon fill="black" stroke="black" points="2069.93,-141.89 2059.74,-139 2065.91,-147.61 2069.93,-141.89"/>
<text text-anchor="middle" x="2066.74" y="-142.8" font-family="Times,serif" font-size="14.00">i2</text>
</g>
</g>
</svg>
