<?xml version="1.0" encoding="UTF-8" standalone="no"?>
<!DOCTYPE svg PUBLIC "-//W3C//DTD SVG 1.1//EN"
 "http://www.w3.org/Graphics/SVG/1.1/DTD/svg11.dtd">
<!-- Generated by graphviz version 2.43.0 (0)
 -->
<!-- Title: generate_composites Pages: 1 -->
<svg width="891pt" height="558pt"
 viewBox="28.80 28.80 862.56 529.54" xmlns="http://www.w3.org/2000/svg" xmlns:xlink="http://www.w3.org/1999/xlink">
<g id="page0,1_graph0" class="graph" transform="scale(1 1) rotate(0) translate(32.8 525.54)">
<title>generate_composites</title>
<polygon fill="white" stroke="transparent" points="-4,4 -4,-496.74 829.76,-496.74 829.76,4 -4,4"/>
<text text-anchor="middle" x="412.88" y="-477.54" font-family="Times,serif" font-size="14.00">generate_composites</text>
<!-- /prime/composites/generate_composites/limit -->
<g id="node1" class="node">
<title>/prime/composites/generate_composites/limit</title>
<polygon fill="white" stroke="black" points="80.51,-457.3 40.17,-469.74 -0.17,-457.3 -0.13,-437.18 80.47,-437.18 80.51,-457.3"/>
<text text-anchor="middle" x="40.17" y="-448.04" font-family="Times,serif" font-size="14.00">limit</text>
</g>
<!-- /prime/composites/generate_composites/limit&#45;buffer -->
<g id="node8" class="node">
<title>/prime/composites/generate_composites/limit&#45;buffer</title>
<g id="a_node8"><a xlink:href="../../flowstdlib/data/buffer/buffer.html" xlink:title="limit&#45;buffer\n(buffer)">
<ellipse fill="coral" stroke="black" cx="109.17" cy="-334.87" rx="68.68" ry="26.74"/>
<text text-anchor="middle" x="109.17" y="-338.67" font-family="Times,serif" font-size="14.00">limit&#45;buffer</text>
<text text-anchor="middle" x="109.17" y="-323.67" font-family="Times,serif" font-size="14.00">(buffer)</text>
</a>
</g>
</g>
<!-- /prime/composites/generate_composites/limit&#45;&gt;/prime/composites/generate_composites/limit&#45;buffer -->
<g id="edge3" class="edge">
<title>/prime/composites/generate_composites/limit:s&#45;&gt;/prime/composites/generate_composites/limit&#45;buffer:w</title>
<path fill="none" stroke="black" d="M40.17,-435.74C40.17,-394.93 2.2,-344.85 29.18,-336.18"/>
<polygon fill="black" stroke="black" points="29.71,-339.64 39.17,-334.87 28.8,-332.7 29.71,-339.64"/>
</g>
<!-- /prime/composites/generate_composites/start -->
<g id="node2" class="node">
<title>/prime/composites/generate_composites/start</title>
<polygon fill="white" stroke="black" points="565.11,-457.3 524.17,-469.74 483.22,-457.3 483.26,-437.18 565.07,-437.18 565.11,-457.3"/>
<text text-anchor="middle" x="524.17" y="-448.04" font-family="Times,serif" font-size="14.00">start</text>
</g>
<!-- /prime/composites/generate_composites/multiply -->
<g id="node5" class="node">
<title>/prime/composites/generate_composites/multiply</title>
<g id="a_node5"><a xlink:href="../../flowstdlib/math/multiply/multiply.html" xlink:title="multiply">
<ellipse fill="coral" stroke="black" cx="574.17" cy="-272" rx="49.29" ry="18"/>
<text text-anchor="middle" x="574.17" y="-268.3" font-family="Times,serif" font-size="14.00">multiply</text>
</a>
</g>
</g>
<!-- /prime/composites/generate_composites/start&#45;&gt;/prime/composites/generate_composites/multiply -->
<g id="edge2" class="edge">
<title>/prime/composites/generate_composites/start:s&#45;&gt;/prime/composites/generate_composites/multiply:ne</title>
<path fill="none" stroke="black" d="M524.17,-435.74C524.17,-403 795.82,-439.67 818.17,-415.74 829.09,-404.05 827.17,-392.97 818.17,-379.74 759.19,-293.01 673.78,-361.8 598.85,-297.15"/>
<polygon fill="black" stroke="black" points="600.87,-294.25 591.17,-290 596.11,-299.37 600.87,-294.25"/>
<text text-anchor="middle" x="584.17" y="-293.8" font-family="Times,serif" font-size="14.00">i1</text>
</g>
<!-- /prime/composites/generate_composites/composite&#45;sequence -->
<g id="node7" class="node">
<title>/prime/composites/generate_composites/composite&#45;sequence</title>
<g id="a_node7"><a xlink:href="lib://flowstdlib/math/sequence.dot.svg" xlink:title="composite&#45;sequence">
<ellipse fill="aquamarine" stroke="black" cx="216.17" cy="-145" rx="81.59" ry="72"/>
<text text-anchor="middle" x="216.17" y="-141.3" font-family="Times,serif" font-size="14.00">composite&#45;sequence</text>
</a>
</g>
</g>
<!-- /prime/composites/generate_composites/start&#45;&gt;/prime/composites/generate_composites/composite&#45;sequence -->
<g id="edge7" class="edge">
<title>/prime/composites/generate_composites/start:s&#45;&gt;/prime/composites/generate_composites/composite&#45;sequence:n</title>
<path fill="none" stroke="black" d="M524.17,-435.74C524.17,-403 253.35,-438.86 230.17,-415.74 169.93,-355.65 212.53,-309.29 215.96,-227.19"/>
<polygon fill="black" stroke="black" points="219.46,-227.07 216.17,-217 212.46,-226.92 219.46,-227.07"/>
<text text-anchor="middle" x="200.67" y="-220.8" font-family="Times,serif" font-size="14.00">step</text>
</g>
<!-- /prime/composites/generate_composites/composites -->
<g id="node3" class="node">
<title>/prime/composites/generate_composites/composites</title>
<polygon fill="black" stroke="black" points="41.31,-12.44 119.17,0 197.02,-12.44 196.95,-32.56 41.39,-32.56 41.31,-12.44"/>
<text text-anchor="middle" x="119.17" y="-14.3" font-family="Times,serif" font-size="14.00" fill="white">composites</text>
</g>
<!-- /prime/composites/generate_composites/subsequence&#45;end -->
<g id="node4" class="node">
<title>/prime/composites/generate_composites/subsequence&#45;end</title>
<polygon fill="black" stroke="black" points="201.72,-12.44 314.17,0 426.61,-12.44 426.51,-32.56 201.83,-32.56 201.72,-12.44"/>
<text text-anchor="middle" x="314.17" y="-14.3" font-family="Times,serif" font-size="14.00" fill="white">subsequence&#45;end</text>
</g>
<!-- /prime/composites/generate_composites/multiply&#45;&gt;/prime/composites/generate_composites/composite&#45;sequence -->
<g id="edge6" class="edge">
<title>/prime/composites/generate_composites/multiply:e&#45;&gt;/prime/composites/generate_composites/composite&#45;sequence:n</title>
<path fill="none" stroke="black" d="M625.17,-272C633.18,-272 629.73,-259.76 624.17,-254 594.83,-223.62 268.77,-256.94 221.79,-225.57"/>
<polygon fill="black" stroke="black" points="224.58,-223.44 216.17,-217 218.73,-227.28 224.58,-223.44"/>
<text text-anchor="middle" x="233.67" y="-220.8" font-family="Times,serif" font-size="14.00">start</text>
</g>
<!-- initializer/prime/composites/generate_composites/multiply_1 -->
<!-- initializer/prime/composites/generate_composites/multiply_1&#45;&gt;/prime/composites/generate_composites/multiply -->
<g id="edge1" class="edge">
<title>initializer/prime/composites/generate_composites/multiply_1&#45;&gt;/prime/composites/generate_composites/multiply:w</title>
<path fill="none" stroke="blue" d="M517.14,-379.66C505.16,-348.56 484.73,-284.89 513.24,-273.7"/>
<polygon fill="blue" stroke="blue" points="513.9,-277.14 523.17,-272 512.72,-270.24 513.9,-277.14"/>
<text text-anchor="middle" x="514.17" y="-331.17" font-family="Times,serif" font-size="14.00">2</text>
</g>
<!-- /prime/composites/generate_composites/composite&#45;sequence&#45;&gt;/prime/composites/generate_composites/composites -->
<g id="edge8" class="edge">
<title>/prime/composites/generate_composites/composite&#45;sequence:s&#45;&gt;/prime/composites/generate_composites/composites:n</title>
<path fill="none" stroke="black" d="M216.17,-73C216.17,-30.53 135.12,-71.94 121.19,-43.88"/>
<polygon fill="black" stroke="black" points="124.61,-43.09 119.17,-34 117.75,-44.5 124.61,-43.09"/>
<text text-anchor="middle" x="134.19" y="-57.3" font-family="Times,serif" font-size="14.00">sequence</text>
</g>
<!-- /prime/composites/generate_composites/composite&#45;sequence&#45;&gt;/prime/composites/generate_composites/subsequence&#45;end -->
<g id="edge9" class="edge">
<title>/prime/composites/generate_composites/composite&#45;sequence:s&#45;&gt;/prime/composites/generate_composites/subsequence&#45;end:n</title>
<path fill="none" stroke="black" d="M216.17,-73C216.17,-30.15 298.05,-72.22 312.12,-43.96"/>
<polygon fill="black" stroke="black" points="315.58,-44.5 314.17,-34 308.73,-43.09 315.58,-44.5"/>
<text text-anchor="middle" x="251.65" y="-57.3" font-family="Times,serif" font-size="14.00">last</text>
</g>
<!-- /prime/composites/generate_composites/limit&#45;buffer&#45;&gt;/prime/composites/generate_composites/composite&#45;sequence -->
<g id="edge5" class="edge">
<title>/prime/composites/generate_composites/limit&#45;buffer:e&#45;&gt;/prime/composites/generate_composites/composite&#45;sequence:n</title>
<path fill="none" stroke="black" d="M179.17,-334.87C224.72,-334.87 182.62,-276.14 202.17,-235 204.48,-230.14 208.29,-228.22 211.35,-225.97"/>
<polygon fill="black" stroke="black" points="214.52,-227.47 216.17,-217 208.35,-224.15 214.52,-227.47"/>
<text text-anchor="middle" x="202.67" y="-220.8" font-family="Times,serif" font-size="14.00">end</text>
</g>
<!-- /prime/composites/generate_composites/limit&#45;buffer&#45;&gt;/prime/composites/generate_composites/limit&#45;buffer -->
<g id="edge4" class="edge">
<title>/prime/composites/generate_composites/limit&#45;buffer:e&#45;&gt;/prime/composites/generate_composites/limit&#45;buffer:w</title>
<path fill="none" stroke="black" d="M178.17,-334.87C195.76,-354.16 195.76,-392.74 109.17,-392.74 33.74,-392.74 24.02,-363.47 34.39,-343.17"/>
<polygon fill="black" stroke="black" points="37.33,-345.08 40.17,-334.87 31.58,-341.08 37.33,-345.08"/>
</g>
</g>
</svg>
