<?xml version="1.0" encoding="UTF-8" standalone="no"?>
<!DOCTYPE svg PUBLIC "-//W3C//DTD SVG 1.1//EN"
 "http://www.w3.org/Graphics/SVG/1.1/DTD/svg11.dtd">
<!-- Generated by graphviz version 2.43.0 (0)
 -->
<!-- Title: prime Pages: 1 -->
<svg width="1195pt" height="479pt"
 viewBox="28.80 28.80 1166.53 450.23" xmlns="http://www.w3.org/2000/svg" xmlns:xlink="http://www.w3.org/1999/xlink">
<g id="graph0" class="graph" transform="scale(1 1) rotate(0) translate(32.8 446.23)">
<title>prime</title>
<polygon fill="white" stroke="transparent" points="-4,4 -4,-417.43 1133.73,-417.43 1133.73,4 -4,4"/>
<text text-anchor="middle" x="564.86" y="-398.23" font-family="Times,serif" font-size="14.00">prime</text>
<!-- /prime/args -->
<g id="node1" class="node">
<title>/prime/args</title>
<g id="a_node1"><a xlink:href="../../flowr/src/cli/args/get.html" xlink:title="args\n(get)">
<polygon fill="white" stroke="black" points="158.39,-346.88 202.29,-323.79 246.19,-346.88 246.15,-384.26 158.43,-384.26 158.39,-346.88"/>
<text text-anchor="middle" x="202.29" y="-361.01" font-family="Times,serif" font-size="14.00">args</text>
<text text-anchor="middle" x="202.29" y="-346.01" font-family="Times,serif" font-size="14.00">(get)</text>
</a>
</g>
</g>
<!-- /prime/candidates/limit -->
<g id="node6" class="node">
<title>/prime/candidates/limit</title>
<ellipse fill="none" stroke="black" cx="118.29" cy="-270" rx="118.08" ry="18"/>
<text text-anchor="middle" x="118.29" y="-266.3" font-family="Times,serif" font-size="14.00">/prime/candidates/limit</text>
</g>
<!-- /prime/args&#45;&gt;/prime/candidates/limit -->
<g id="edge1" class="edge">
<title>/prime/args:e&#45;&gt;/prime/candidates/limit:n</title>
<path fill="none" stroke="black" d="M247.29,-357.21C262.06,-357.21 255.38,-335.64 246.29,-324 212.32,-280.53 130.21,-338.36 119.46,-298.14"/>
<polygon fill="black" stroke="black" points="122.91,-297.53 118.29,-288 115.96,-298.34 122.91,-297.53"/>
<text text-anchor="middle" x="156.46" y="-312.64" font-family="Times,serif" font-size="14.00">json[1]</text>
</g>
<!-- /prime/composites/limit -->
<g id="node8" class="node">
<title>/prime/composites/limit</title>
<ellipse fill="none" stroke="black" cx="375.29" cy="-270" rx="120.48" ry="18"/>
<text text-anchor="middle" x="375.29" y="-266.3" font-family="Times,serif" font-size="14.00">/prime/composites/limit</text>
</g>
<!-- /prime/args&#45;&gt;/prime/composites/limit -->
<g id="edge3" class="edge">
<title>/prime/args:e&#45;&gt;/prime/composites/limit:n</title>
<path fill="none" stroke="black" d="M247.29,-357.21C308.43,-357.21 368.36,-353.16 374.73,-298.08"/>
<polygon fill="black" stroke="black" points="378.23,-298.18 375.29,-288 371.24,-297.79 378.23,-298.18"/>
<text text-anchor="middle" x="307.06" y="-352.09" font-family="Times,serif" font-size="14.00">json[1]</text>
</g>
<!-- /prime/candidates -->
<g id="node2" class="node">
<title>/prime/candidates</title>
<g id="a_node2"><a xlink:href="candidates.toml.dot.svg" xlink:title="candidates">
<ellipse fill="aquamarine" stroke="black" cx="531.29" cy="-144" rx="72" ry="72"/>
<text text-anchor="middle" x="531.29" y="-140.3" font-family="Times,serif" font-size="14.00">candidates</text>
</a>
</g>
</g>
<!-- /prime/composites -->
<g id="node3" class="node">
<title>/prime/composites</title>
<g id="a_node3"><a xlink:href="composites.toml.dot.svg" xlink:title="composites">
<ellipse fill="aquamarine" stroke="black" cx="693.29" cy="-144" rx="72" ry="72"/>
<text text-anchor="middle" x="693.29" y="-140.3" font-family="Times,serif" font-size="14.00">composites</text>
</a>
</g>
</g>
<!-- /prime/remove -->
<g id="node4" class="node">
<title>/prime/remove</title>
<g id="a_node4"><a xlink:href="../../../../../.flow/lib/flowstdlib/data/remove/remove.html" xlink:title="remove">
<ellipse fill="coral" stroke="black" cx="828.29" cy="-144" rx="45.49" ry="18"/>
<text text-anchor="middle" x="828.29" y="-140.3" font-family="Times,serif" font-size="14.00">remove</text>
</a>
</g>
</g>
<!-- /prime/remove&#45;&gt;/prime/remove -->
<g id="edge5" class="edge">
<title>/prime/remove:e&#45;&gt;/prime/remove:nw</title>
<path fill="none" stroke="black" d="M874.29,-144C891.79,-171 891.79,-225 842.79,-225 799.54,-225 794.47,-192.27 805.91,-169.46"/>
<polygon fill="black" stroke="black" points="808.88,-171.32 811.29,-161 802.97,-167.56 808.88,-171.32"/>
<text text-anchor="middle" x="791.79" y="-164.8" font-family="Times,serif" font-size="14.00">array</text>
</g>
<!-- /prime/stdout -->
<g id="node5" class="node">
<title>/prime/stdout</title>
<g id="a_node5"><a xlink:href="../../flowr/src/cli/stdio/stdout.html" xlink:title="stdout">
<polygon fill="black" stroke="black" points="973.91,-23.56 924.29,-36 874.67,-23.56 874.72,-3.44 973.86,-3.44 973.91,-23.56"/>
<text text-anchor="middle" x="924.29" y="-14.3" font-family="Times,serif" font-size="14.00" fill="white">stdout</text>
</a>
</g>
</g>
<!-- /prime/remove&#45;&gt;/prime/stdout -->
<g id="edge6" class="edge">
<title>/prime/remove:e&#45;&gt;/prime/stdout:w</title>
<path fill="none" stroke="black" d="M875.29,-144C926.92,-144 834.06,-36.92 863.11,-20.19"/>
<polygon fill="black" stroke="black" points="864.25,-23.52 873.29,-18 862.78,-16.68 864.25,-23.52"/>
</g>
<!-- /prime/candidates/candidates -->
<g id="node7" class="node">
<title>/prime/candidates/candidates</title>
<ellipse fill="none" stroke="black" cx="661.29" cy="-270" rx="147.57" ry="18"/>
<text text-anchor="middle" x="661.29" y="-266.3" font-family="Times,serif" font-size="14.00">/prime/candidates/candidates</text>
</g>
<!-- /prime/candidates/candidates&#45;&gt;/prime/remove -->
<g id="edge2" class="edge">
<title>/prime/candidates/candidates:s&#45;&gt;/prime/remove:nw</title>
<path fill="none" stroke="black" d="M661.29,-252C661.29,-199.29 731.99,-247.45 774.29,-216 794.54,-200.95 792.02,-186.86 804.41,-169.97"/>
<polygon fill="black" stroke="black" points="807.41,-171.86 811.29,-162 802.11,-167.29 807.41,-171.86"/>
<text text-anchor="middle" x="830.79" y="-165.8" font-family="Times,serif" font-size="14.00">array</text>
</g>
<!-- /prime/composites/composites -->
<g id="node9" class="node">
<title>/prime/composites/composites</title>
<ellipse fill="none" stroke="black" cx="978.29" cy="-270" rx="151.37" ry="18"/>
<text text-anchor="middle" x="978.29" y="-266.3" font-family="Times,serif" font-size="14.00">/prime/composites/composites</text>
</g>
<!-- /prime/composites/composites&#45;&gt;/prime/remove -->
<g id="edge4" class="edge">
<title>/prime/composites/composites:s&#45;&gt;/prime/remove:n</title>
<path fill="none" stroke="black" d="M978.29,-252C978.29,-178.12 842.02,-234.64 829.25,-172.98"/>
<polygon fill="black" stroke="black" points="832.73,-172.62 828.29,-163 825.76,-173.29 832.73,-172.62"/>
<text text-anchor="middle" x="847.79" y="-166.8" font-family="Times,serif" font-size="14.00">value</text>
</g>
</g>
</svg>
