<?xml version="1.0" encoding="UTF-8" standalone="no"?>
<!DOCTYPE svg PUBLIC "-//W3C//DTD SVG 1.1//EN"
 "http://www.w3.org/Graphics/SVG/1.1/DTD/svg11.dtd">
<!-- Generated by graphviz version 2.43.0 (0)
 -->
<!-- Title: prime Pages: 1 -->
<svg width="820pt" height="377pt"
 viewBox="28.80 28.80 790.95 347.80" xmlns="http://www.w3.org/2000/svg" xmlns:xlink="http://www.w3.org/1999/xlink">
<g id="graph0" class="graph" transform="scale(1 1) rotate(0) translate(32.8 343.8)">
<title>prime</title>
<polygon fill="white" stroke="transparent" points="-4,4 -4,-315 758.15,-315 758.15,4 -4,4"/>
<text text-anchor="middle" x="377.07" y="-295.8" font-family="Times,serif" font-size="14.00">prime</text>
<!-- /prime/args -->
<g id="node1" class="node">
<title>/prime/args</title>
<g id="a_node1"><a xlink:href="../../../flowr/src/cli/args/get.html" xlink:title="args\n(get)">
<ellipse fill="coral" stroke="black" cx="35.36" cy="-216" rx="35.21" ry="26.74"/>
<text text-anchor="middle" x="35.36" y="-219.8" font-family="Times,serif" font-size="14.00">args</text>
<text text-anchor="middle" x="35.36" y="-204.8" font-family="Times,serif" font-size="14.00">(get)</text>
</a>
</g>
</g>
<!-- /prime/candidates -->
<g id="node2" class="node">
<title>/prime/candidates</title>
<g id="a_node2"><a xlink:href="candidates.dot.svg" xlink:title="candidates">
<ellipse fill="aquamarine" stroke="black" cx="160.36" cy="-216" rx="72" ry="72"/>
<text text-anchor="middle" x="160.36" y="-212.3" font-family="Times,serif" font-size="14.00">candidates</text>
</a>
</g>
</g>
<!-- /prime/composites -->
<g id="node3" class="node">
<title>/prime/composites</title>
<g id="a_node3"><a xlink:href="composites.dot.svg" xlink:title="composites">
<ellipse fill="aquamarine" stroke="black" cx="322.36" cy="-216" rx="72" ry="72"/>
<text text-anchor="middle" x="322.36" y="-212.3" font-family="Times,serif" font-size="14.00">composites</text>
</a>
</g>
</g>
<!-- /prime/remove -->
<g id="node4" class="node">
<title>/prime/remove</title>
<g id="a_node4"><a xlink:href="../../../target/flowstdlib/data/remove/remove.html" xlink:title="remove">
<ellipse fill="coral" stroke="black" cx="269.36" cy="-90" rx="45.49" ry="18"/>
<text text-anchor="middle" x="269.36" y="-86.3" font-family="Times,serif" font-size="14.00">remove</text>
</a>
</g>
</g>
<!-- /prime/stdout -->
<g id="node5" class="node">
<title>/prime/stdout</title>
<g id="a_node5"><a xlink:href="../../../flowr/src/cli/stdio/stdout.html" xlink:title="stdout">
<ellipse fill="coral" stroke="black" cx="332.36" cy="-18" rx="40.09" ry="18"/>
<text text-anchor="middle" x="332.36" y="-14.3" font-family="Times,serif" font-size="14.00">stdout</text>
</a>
</g>
</g>
<!-- /prime/remove&#45;&gt;/prime/stdout -->
<g id="edge6" class="edge">
<title>/prime/remove:e&#45;&gt;/prime/stdout:w</title>
<path fill="none" stroke="black" d="M316.36,-90C343.87,-90 287.64,-42.92 283.1,-24.9"/>
<polygon fill="black" stroke="black" points="285.52,-27.43 290.36,-18 280.7,-22.36 285.52,-27.43"/>
</g>
<!-- /prime/remove/ -->
<g id="node8" class="node">
<title>/prime/remove/</title>
<ellipse fill="none" stroke="black" cx="472.36" cy="-18" rx="81.49" ry="18"/>
<text text-anchor="middle" x="472.36" y="-14.3" font-family="Times,serif" font-size="14.00">/prime/remove/</text>
</g>
<!-- /prime/remove&#45;&gt;/prime/remove/ -->
<g id="edge5" class="edge">
<title>/prime/remove:e&#45;&gt;/prime/remove/:nw</title>
<path fill="none" stroke="black" d="M316.36,-90C327.99,-90 325.3,-77.84 335.36,-72 379.97,-46.1 410.95,-71.24 446.66,-42.9"/>
<polygon fill="black" stroke="black" points="449.24,-45.28 454.36,-36 444.57,-40.07 449.24,-45.28"/>
<text text-anchor="middle" x="434.86" y="-39.8" font-family="Times,serif" font-size="14.00">array</text>
</g>
<!-- /prime/args/ -->
<g id="node6" class="node">
<title>/prime/args/</title>
<ellipse fill="none" stroke="black" cx="480.36" cy="-216" rx="67.69" ry="18"/>
<text text-anchor="middle" x="480.36" y="-212.3" font-family="Times,serif" font-size="14.00">/prime/args/</text>
</g>
<!-- /prime/candidates/ -->
<g id="node7" class="node">
<title>/prime/candidates/</title>
<ellipse fill="none" stroke="black" cx="441.36" cy="-90" rx="96.68" ry="18"/>
<text text-anchor="middle" x="441.36" y="-86.3" font-family="Times,serif" font-size="14.00">/prime/candidates/</text>
</g>
<!-- /prime/args/&#45;&gt;/prime/candidates/ -->
<g id="edge1" class="edge">
<title>/prime/args/:e&#45;&gt;/prime/candidates/:n</title>
<path fill="none" stroke="black" d="M549.36,-216C557.37,-216 551.94,-205.17 548.36,-198 522.2,-145.67 450.46,-167.18 442.14,-118.03"/>
<polygon fill="black" stroke="black" points="445.63,-117.69 441.36,-108 438.65,-118.24 445.63,-117.69"/>
<text text-anchor="middle" x="471.95" y="-163.24" font-family="Times,serif" font-size="14.00">json[1]</text>
<text text-anchor="middle" x="424.36" y="-111.8" font-family="Times,serif" font-size="14.00">limit</text>
</g>
<!-- /prime/composites/ -->
<g id="node9" class="node">
<title>/prime/composites/</title>
<ellipse fill="none" stroke="black" cx="655.36" cy="-90" rx="98.58" ry="18"/>
<text text-anchor="middle" x="655.36" y="-86.3" font-family="Times,serif" font-size="14.00">/prime/composites/</text>
</g>
<!-- /prime/args/&#45;&gt;/prime/composites/ -->
<g id="edge3" class="edge">
<title>/prime/args/:e&#45;&gt;/prime/composites/:n</title>
<path fill="none" stroke="black" d="M549.36,-216C613.2,-216 651.35,-179.29 655.06,-118.04"/>
<polygon fill="black" stroke="black" points="658.56,-118.1 655.36,-108 651.56,-117.89 658.56,-118.1"/>
<text text-anchor="middle" x="603.94" y="-190.12" font-family="Times,serif" font-size="14.00">json[1]</text>
<text text-anchor="middle" x="638.36" y="-111.8" font-family="Times,serif" font-size="14.00">limit</text>
</g>
<!-- /prime/candidates/&#45;&gt;/prime/remove/ -->
<g id="edge2" class="edge">
<title>/prime/candidates/:s&#45;&gt;/prime/remove/:nw</title>
<path fill="none" stroke="black" d="M441.36,-72C441.36,-58.98 441.92,-51.84 447.59,-43.82"/>
<polygon fill="black" stroke="black" points="450.46,-45.85 454.36,-36 445.16,-41.27 450.46,-45.85"/>
<text text-anchor="middle" x="404.25" y="-56.24" font-family="Times,serif" font-size="14.00">candidates</text>
<text text-anchor="middle" x="473.86" y="-39.8" font-family="Times,serif" font-size="14.00">array</text>
</g>
<!-- /prime/composites/&#45;&gt;/prime/remove/ -->
<g id="edge4" class="edge">
<title>/prime/composites/:s&#45;&gt;/prime/remove/:n</title>
<path fill="none" stroke="black" d="M655.36,-72C655.36,7.01 489.11,-107.19 473.52,-46.3"/>
<polygon fill="black" stroke="black" points="476.96,-45.54 472.36,-36 470.01,-46.33 476.96,-45.54"/>
<text text-anchor="middle" x="523.15" y="-57.85" font-family="Times,serif" font-size="14.00">composites</text>
<text text-anchor="middle" x="491.86" y="-39.8" font-family="Times,serif" font-size="14.00">value</text>
</g>
</g>
</svg>
