<?xml version="1.0" encoding="UTF-8" standalone="no"?>
<!DOCTYPE svg PUBLIC "-//W3C//DTD SVG 1.1//EN"
 "http://www.w3.org/Graphics/SVG/1.1/DTD/svg11.dtd">
<!-- Generated by graphviz version 2.43.0 (0)
 -->
<!-- Title: divisors Pages: 1 -->
<svg width="1188pt" height="538pt"
 viewBox="28.80 28.80 1158.87 509.02" xmlns="http://www.w3.org/2000/svg" xmlns:xlink="http://www.w3.org/1999/xlink">
<g id="graph0" class="graph" transform="scale(1 1) rotate(0) translate(32.8 505.02)">
<title>divisors</title>
<polygon fill="white" stroke="transparent" points="-4,4 -4,-476.22 1126.07,-476.22 1126.07,4 -4,4"/>
<text text-anchor="middle" x="561.04" y="-457.02" font-family="Times,serif" font-size="14.00">divisors</text>
<!-- /prime/composites/divisors/start -->
<g id="node1" class="node">
<title>/prime/composites/divisors/start</title>
<polygon fill="white" stroke="black" points="787.09,-436.78 746.14,-449.22 705.2,-436.78 705.24,-416.66 787.05,-416.66 787.09,-436.78"/>
<text text-anchor="middle" x="746.14" y="-427.52" font-family="Times,serif" font-size="14.00">start</text>
</g>
<!-- /prime/composites/divisors/limit -->
<g id="node2" class="node">
<title>/prime/composites/divisors/limit</title>
<polygon fill="white" stroke="black" points="885.48,-436.78 845.14,-449.22 804.8,-436.78 804.84,-416.66 885.44,-416.66 885.48,-436.78"/>
<text text-anchor="middle" x="845.14" y="-427.52" font-family="Times,serif" font-size="14.00">limit</text>
</g>
<!-- /prime/composites/divisors/step -->
<g id="node3" class="node">
<title>/prime/composites/divisors/step</title>
<polygon fill="white" stroke="black" points="978.66,-436.78 941.14,-449.22 903.62,-436.78 903.66,-416.66 978.63,-416.66 978.66,-436.78"/>
<text text-anchor="middle" x="941.14" y="-427.52" font-family="Times,serif" font-size="14.00">step</text>
</g>
<!-- /prime/composites/divisors/sequence -->
<g id="node4" class="node">
<title>/prime/composites/divisors/sequence</title>
<polygon fill="black" stroke="black" points="312.28,-12.44 379.14,0 446,-12.44 445.94,-32.56 312.34,-32.56 312.28,-12.44"/>
<text text-anchor="middle" x="379.14" y="-14.3" font-family="Times,serif" font-size="14.00" fill="white">sequence</text>
</g>
<!-- /prime/composites/divisors/last -->
<g id="node5" class="node">
<title>/prime/composites/divisors/last</title>
<polygon fill="black" stroke="black" points="463.55,-12.44 498.14,0 532.73,-12.44 532.7,-32.56 463.58,-32.56 463.55,-12.44"/>
<text text-anchor="middle" x="498.14" y="-14.3" font-family="Times,serif" font-size="14.00" fill="white">last</text>
</g>
<!-- /prime/composites/divisors/compare_switch -->
<g id="node6" class="node">
<title>/prime/composites/divisors/compare_switch</title>
<g id="a_node6"><a xlink:href="../../../target/flowstdlib/control/compare_switch/compare_switch.html" xlink:title="compare_switch">
<ellipse fill="coral" stroke="black" cx="85.14" cy="-260.61" rx="85.29" ry="18"/>
<text text-anchor="middle" x="85.14" y="-256.91" font-family="Times,serif" font-size="14.00">compare_switch</text>
</a>
</g>
</g>
<!-- /prime/composites/divisors/add -->
<g id="node7" class="node">
<title>/prime/composites/divisors/add</title>
<g id="a_node7"><a xlink:href="../../../target/flowstdlib/math/add/add.html" xlink:title="add">
<ellipse fill="coral" stroke="black" cx="248.14" cy="-179.74" rx="27.9" ry="18"/>
<text text-anchor="middle" x="248.14" y="-176.04" font-family="Times,serif" font-size="14.00">add</text>
</a>
</g>
</g>
<!-- /prime/composites/divisors/next&#45;tap/ -->
<g id="node14" class="node">
<title>/prime/composites/divisors/next&#45;tap/</title>
<ellipse fill="none" stroke="black" cx="379.14" cy="-98.87" rx="180.07" ry="18"/>
<text text-anchor="middle" x="379.14" y="-95.17" font-family="Times,serif" font-size="14.00">/prime/composites/divisors/next&#45;tap/</text>
</g>
<!-- /prime/composites/divisors/add&#45;&gt;/prime/composites/divisors/next&#45;tap/ -->
<g id="edge7" class="edge">
<title>/prime/composites/divisors/add:e&#45;&gt;/prime/composites/divisors/next&#45;tap/:nw</title>
<path fill="none" stroke="black" d="M277.14,-179.74C285.9,-179.74 279.29,-168.25 285.14,-161.74 308.79,-135.47 329.34,-143.43 353.52,-124.63"/>
<polygon fill="black" stroke="black" points="355.98,-127.12 361.14,-117.87 351.34,-121.89 355.98,-127.12"/>
<text text-anchor="middle" x="345.14" y="-121.67" font-family="Times,serif" font-size="14.00">data</text>
</g>
<!-- /prime/composites/divisors/next&#45;tap -->
<g id="node8" class="node">
<title>/prime/composites/divisors/next&#45;tap</title>
<g id="a_node8"><a xlink:href="../../../target/flowstdlib/control/tap/tap.html" xlink:title="next&#45;tap\n(tap)">
<ellipse fill="coral" stroke="black" cx="956.14" cy="-350.35" rx="53.98" ry="26.74"/>
<text text-anchor="middle" x="956.14" y="-354.15" font-family="Times,serif" font-size="14.00">next&#45;tap</text>
<text text-anchor="middle" x="956.14" y="-339.15" font-family="Times,serif" font-size="14.00">(tap)</text>
</a>
</g>
</g>
<!-- /prime/composites/divisors/compare_switch/ -->
<g id="node12" class="node">
<title>/prime/composites/divisors/compare_switch/</title>
<ellipse fill="none" stroke="black" cx="746.14" cy="-260.61" rx="215.56" ry="18"/>
<text text-anchor="middle" x="746.14" y="-256.91" font-family="Times,serif" font-size="14.00">/prime/composites/divisors/compare_switch/</text>
</g>
<!-- /prime/composites/divisors/next&#45;tap&#45;&gt;/prime/composites/divisors/compare_switch/ -->
<g id="edge9" class="edge">
<title>/prime/composites/divisors/next&#45;tap:e&#45;&gt;/prime/composites/divisors/compare_switch/:ne</title>
<path fill="none" stroke="black" d="M1011.14,-350.35C1023.09,-350.35 1017.98,-332.5 1010.14,-323.48 939.54,-242.3 848.56,-350.93 771.55,-286.41"/>
<polygon fill="black" stroke="black" points="773.88,-283.79 764.14,-279.61 769.14,-288.95 773.88,-283.79"/>
<text text-anchor="middle" x="746.14" y="-283.41" font-family="Times,serif" font-size="14.00">right</text>
</g>
<!-- /prime/composites/divisors/step&#45;tap -->
<g id="node9" class="node">
<title>/prime/composites/divisors/step&#45;tap</title>
<g id="a_node9"><a xlink:href="../../../target/flowstdlib/control/tap/tap.html" xlink:title="step&#45;tap\n(tap)">
<ellipse fill="coral" stroke="black" cx="241.14" cy="-260.61" rx="53.07" ry="26.74"/>
<text text-anchor="middle" x="241.14" y="-264.41" font-family="Times,serif" font-size="14.00">step&#45;tap</text>
<text text-anchor="middle" x="241.14" y="-249.41" font-family="Times,serif" font-size="14.00">(tap)</text>
</a>
</g>
</g>
<!-- /prime/composites/divisors/add/ -->
<g id="node13" class="node">
<title>/prime/composites/divisors/add/</title>
<ellipse fill="none" stroke="black" cx="453.14" cy="-179.74" rx="158.67" ry="18"/>
<text text-anchor="middle" x="453.14" y="-176.04" font-family="Times,serif" font-size="14.00">/prime/composites/divisors/add/</text>
</g>
<!-- /prime/composites/divisors/step&#45;tap&#45;&gt;/prime/composites/divisors/add/ -->
<g id="edge11" class="edge">
<title>/prime/composites/divisors/step&#45;tap:e&#45;&gt;/prime/composites/divisors/add/:w</title>
<path fill="none" stroke="black" d="M295.14,-260.61C309.4,-260.61 288.48,-209.76 288.18,-188.7"/>
<polygon fill="black" stroke="black" points="291.36,-190.18 293.14,-179.74 285.23,-186.79 291.36,-190.18"/>
<text text-anchor="middle" x="286.14" y="-183.54" font-family="Times,serif" font-size="14.00">i2</text>
</g>
<!-- /prime/composites/divisors/not&#45;last -->
<g id="node10" class="node">
<title>/prime/composites/divisors/not&#45;last</title>
<g id="a_node10"><a xlink:href="../../../target/flowstdlib/math/compare/compare.html" xlink:title="not&#45;last\n(compare)">
<ellipse fill="coral" stroke="black" cx="1059.14" cy="-98.87" rx="62.87" ry="26.74"/>
<text text-anchor="middle" x="1059.14" y="-102.67" font-family="Times,serif" font-size="14.00">not&#45;last</text>
<text text-anchor="middle" x="1059.14" y="-87.67" font-family="Times,serif" font-size="14.00">(compare)</text>
</a>
</g>
</g>
<!-- /prime/composites/divisors/ -->
<g id="node11" class="node">
<title>/prime/composites/divisors/</title>
<ellipse fill="none" stroke="black" cx="746.14" cy="-350.35" rx="138.38" ry="18"/>
<text text-anchor="middle" x="746.14" y="-346.65" font-family="Times,serif" font-size="14.00">/prime/composites/divisors/</text>
</g>
<!-- /prime/composites/divisors/&#45;&gt;/prime/composites/divisors/compare_switch/ -->
<g id="edge1" class="edge">
<title>/prime/composites/divisors/:s&#45;&gt;/prime/composites/divisors/compare_switch/:ne</title>
<path fill="none" stroke="black" d="M746.14,-331.35C739.04,-312.14 759.47,-301.75 764.37,-289.76"/>
<polygon fill="black" stroke="black" points="767.86,-289.53 764.14,-279.61 760.86,-289.69 767.86,-289.53"/>
<text text-anchor="middle" x="736.1" y="-308.08" font-family="Times,serif" font-size="14.00">start</text>
<text text-anchor="middle" x="782.14" y="-283.41" font-family="Times,serif" font-size="14.00">right</text>
</g>
<!-- /prime/composites/divisors/&#45;&gt;/prime/composites/divisors/compare_switch/ -->
<g id="edge2" class="edge">
<title>/prime/composites/divisors/:s&#45;&gt;/prime/composites/divisors/compare_switch/:ne</title>
<path fill="none" stroke="black" d="M746.14,-331.35C753.88,-310.43 780.97,-299.97 771.8,-286.51"/>
<polygon fill="black" stroke="black" points="773.91,-283.71 764.14,-279.61 769.23,-288.91 773.91,-283.71"/>
<text text-anchor="middle" x="782.33" y="-309.91" font-family="Times,serif" font-size="14.00">limit</text>
<text text-anchor="middle" x="751.64" y="-268.41" font-family="Times,serif" font-size="14.00">left</text>
</g>
<!-- /prime/composites/divisors/&#45;&gt;/prime/composites/divisors/add/ -->
<g id="edge5" class="edge">
<title>/prime/composites/divisors/:s&#45;&gt;/prime/composites/divisors/add/:w</title>
<path fill="none" stroke="black" d="M746.14,-331.35C746.14,-280.41 570.04,-301.78 521.14,-287.48 417.02,-257.03 357.61,-285.72 294.14,-197.74 292.38,-195.3 290.68,-192.16 289.65,-189.19"/>
<polygon fill="black" stroke="black" points="292.96,-190.33 293.14,-179.74 286.4,-187.91 292.96,-190.33"/>
<text text-anchor="middle" x="496.6" y="-288.75" font-family="Times,serif" font-size="14.00">step</text>
<text text-anchor="middle" x="286.14" y="-168.54" font-family="Times,serif" font-size="14.00">i2</text>
</g>
<!-- /prime/composites/divisors/compare_switch/&#45;&gt;/prime/composites/divisors/ -->
<g id="edge3" class="edge">
<title>/prime/composites/divisors/compare_switch/:s&#45;&gt;/prime/composites/divisors/:n</title>
<path fill="none" stroke="black" d="M746.14,-241.61C737.14,-217.63 936.01,-225.62 952.92,-242.61 964.21,-253.95 960.54,-264.54 952.92,-278.61 935.54,-310.7 904.47,-293.17 884.14,-323.48 872.84,-340.34 891.18,-355.35 875.58,-368.35 866.02,-376.31 781.41,-382.11 754.12,-375.9"/>
<polygon fill="black" stroke="black" points="756.09,-372.99 746.14,-369.35 751.65,-378.4 756.09,-372.99"/>
<text text-anchor="middle" x="716.64" y="-230.41" font-family="Times,serif" font-size="14.00">right&#45;lte</text>
<text text-anchor="middle" x="712.64" y="-373.15" font-family="Times,serif" font-size="14.00">sequence</text>
</g>
<!-- /prime/composites/divisors/compare_switch/&#45;&gt;/prime/composites/divisors/ -->
<g id="edge15" class="edge">
<title>/prime/composites/divisors/compare_switch/:s&#45;&gt;/prime/composites/divisors/:n</title>
<path fill="none" stroke="black" d="M746.14,-241.61C755.14,-217.63 954.01,-225.62 970.92,-242.61 982.21,-253.95 978.54,-264.54 970.92,-278.61 953.54,-310.7 922.47,-293.17 902.14,-323.48 890.84,-340.34 909.18,-355.35 893.58,-368.35 883.29,-376.93 785.88,-382.99 754.99,-374.25"/>
<polygon fill="black" stroke="black" points="756.59,-371.13 746.14,-369.35 753.2,-377.26 756.59,-371.13"/>
<text text-anchor="middle" x="778.14" y="-230.41" font-family="Times,serif" font-size="14.00">right&#45;gte</text>
<text text-anchor="middle" x="759.64" y="-373.15" font-family="Times,serif" font-size="14.00">last</text>
</g>
<!-- /prime/composites/divisors/compare_switch/&#45;&gt;/prime/composites/divisors/compare_switch/ -->
<g id="edge4" class="edge">
<title>/prime/composites/divisors/compare_switch/:s&#45;&gt;/prime/composites/divisors/compare_switch/:ne</title>
<path fill="none" stroke="black" d="M746.14,-242.61C824.07,-222.61 979.92,-222.61 979.92,-260.61 979.92,-297.05 853.15,-298.55 774.02,-280.97"/>
<polygon fill="black" stroke="black" points="774.68,-277.53 764.14,-278.61 773.06,-284.34 774.68,-277.53"/>
<text text-anchor="middle" x="728.8" y="-245.26" font-family="Times,serif" font-size="14.00">left&#45;gt</text>
<text text-anchor="middle" x="776.64" y="-282.41" font-family="Times,serif" font-size="14.00">left</text>
</g>
<!-- /prime/composites/divisors/compare_switch/&#45;&gt;/prime/composites/divisors/add/ -->
<g id="edge6" class="edge">
<title>/prime/composites/divisors/compare_switch/:se&#45;&gt;/prime/composites/divisors/add/:ne</title>
<path fill="none" stroke="black" d="M764.14,-241.61C854.79,-150.96 579.43,-283.5 478.91,-204.62"/>
<polygon fill="black" stroke="black" points="480.95,-201.75 471.14,-197.74 476.31,-206.99 480.95,-201.75"/>
<text text-anchor="middle" x="600.45" y="-217.86" font-family="Times,serif" font-size="14.00">right</text>
<text text-anchor="middle" x="464.14" y="-201.54" font-family="Times,serif" font-size="14.00">i1</text>
</g>
<!-- /prime/composites/divisors/not&#45;last/ -->
<g id="node15" class="node">
<title>/prime/composites/divisors/not&#45;last/</title>
<ellipse fill="none" stroke="black" cx="806.14" cy="-179.74" rx="176.57" ry="18"/>
<text text-anchor="middle" x="806.14" y="-176.04" font-family="Times,serif" font-size="14.00">/prime/composites/divisors/not&#45;last/</text>
</g>
<!-- /prime/composites/divisors/compare_switch/&#45;&gt;/prime/composites/divisors/not&#45;last/ -->
<g id="edge12" class="edge">
<title>/prime/composites/divisors/compare_switch/:se&#45;&gt;/prime/composites/divisors/not&#45;last/:ne</title>
<path fill="none" stroke="black" d="M764.14,-241.61C776.03,-222.27 819.22,-220.89 825.57,-207.73"/>
<polygon fill="black" stroke="black" points="829.02,-207.15 824.14,-197.74 822.09,-208.13 829.02,-207.15"/>
<text text-anchor="middle" x="784.51" y="-211.13" font-family="Times,serif" font-size="14.00">left</text>
<text text-anchor="middle" x="806.14" y="-201.54" font-family="Times,serif" font-size="14.00">right</text>
</g>
<!-- /prime/composites/divisors/compare_switch/&#45;&gt;/prime/composites/divisors/not&#45;last/ -->
<g id="edge13" class="edge">
<title>/prime/composites/divisors/compare_switch/:se&#45;&gt;/prime/composites/divisors/not&#45;last/:ne</title>
<path fill="none" stroke="black" d="M764.14,-241.61C792.96,-220.81 843.71,-220.79 831.6,-204.53"/>
<polygon fill="black" stroke="black" points="833.89,-201.88 824.14,-197.74 829.18,-207.06 833.89,-201.88"/>
<text text-anchor="middle" x="814.2" y="-215.47" font-family="Times,serif" font-size="14.00">right</text>
<text text-anchor="middle" x="836.64" y="-201.54" font-family="Times,serif" font-size="14.00">left</text>
</g>
<!-- /prime/composites/divisors/step&#45;tap/ -->
<g id="node16" class="node">
<title>/prime/composites/divisors/step&#45;tap/</title>
<ellipse fill="none" stroke="black" cx="799.14" cy="-98.87" rx="179.27" ry="18"/>
<text text-anchor="middle" x="799.14" y="-95.17" font-family="Times,serif" font-size="14.00">/prime/composites/divisors/step&#45;tap/</text>
</g>
<!-- /prime/composites/divisors/add/&#45;&gt;/prime/composites/divisors/step&#45;tap/ -->
<g id="edge10" class="edge">
<title>/prime/composites/divisors/add/:e&#45;&gt;/prime/composites/divisors/step&#45;tap/:nw</title>
<path fill="none" stroke="black" d="M613.14,-179.74C621.73,-179.74 613.76,-167.48 620.14,-161.74 672.57,-114.54 723.48,-164.89 773.45,-124.79"/>
<polygon fill="black" stroke="black" points="776.05,-127.16 781.14,-117.87 771.37,-121.96 776.05,-127.16"/>
<text text-anchor="middle" x="690.42" y="-144.38" font-family="Times,serif" font-size="14.00">i2</text>
<text text-anchor="middle" x="765.14" y="-121.67" font-family="Times,serif" font-size="14.00">data</text>
</g>
<!-- /prime/composites/divisors/not&#45;last/&#45;&gt;/prime/composites/divisors/next&#45;tap/ -->
<g id="edge8" class="edge">
<title>/prime/composites/divisors/not&#45;last/:se&#45;&gt;/prime/composites/divisors/next&#45;tap/:nw</title>
<path fill="none" stroke="black" d="M824.14,-161.74C894.08,-91.8 339.15,-182.48 355.39,-126.35"/>
<polygon fill="black" stroke="black" points="358.43,-128.11 361.14,-117.87 352.63,-124.18 358.43,-128.11"/>
<text text-anchor="middle" x="604.42" y="-142.67" font-family="Times,serif" font-size="14.00">lt</text>
<text text-anchor="middle" x="386.64" y="-121.67" font-family="Times,serif" font-size="14.00">control</text>
</g>
<!-- /prime/composites/divisors/not&#45;last/&#45;&gt;/prime/composites/divisors/step&#45;tap/ -->
<g id="edge14" class="edge">
<title>/prime/composites/divisors/not&#45;last/:se&#45;&gt;/prime/composites/divisors/step&#45;tap/:nw</title>
<path fill="none" stroke="black" d="M824.14,-161.74C839.53,-146.36 790.83,-139.89 780.18,-128.13"/>
<polygon fill="black" stroke="black" points="783.69,-128.15 781.14,-117.87 776.72,-127.5 783.69,-128.15"/>
<text text-anchor="middle" x="797.03" y="-143.56" font-family="Times,serif" font-size="14.00">lt</text>
<text text-anchor="middle" x="806.64" y="-121.67" font-family="Times,serif" font-size="14.00">control</text>
</g>
</g>
</svg>
