<?xml version="1.0" encoding="UTF-8" standalone="no"?>
<!DOCTYPE svg PUBLIC "-//W3C//DTD SVG 1.1//EN"
 "http://www.w3.org/Graphics/SVG/1.1/DTD/svg11.dtd">
<!-- Generated by graphviz version 2.43.0 (0)
 -->
<!-- Title: primitives Pages: 1 -->
<svg width="583pt" height="355pt"
 viewBox="0.00 0.00 582.79 355.00" xmlns="http://www.w3.org/2000/svg" xmlns:xlink="http://www.w3.org/1999/xlink">
<g id="graph0" class="graph" transform="scale(1 1) rotate(0) translate(4 351)">
<title>primitives</title>
<polygon fill="white" stroke="transparent" points="-4,4 -4,-351 578.79,-351 578.79,4 -4,4"/>
<text text-anchor="middle" x="287.39" y="-331.8" font-family="Times,serif" font-size="14.00">/primitives</text>
<!-- r0 -->
<g id="node1" class="node">
<title>r0</title>
<g id="a_node1"><a xlink:href="file:///home/runner/.flow/lib/flowstdlib/math/add/add.html" xlink:title="add (#0)">
<ellipse fill="coral" stroke="black" cx="349.39" cy="-234" rx="51.19" ry="18"/>
<text text-anchor="middle" x="349.39" y="-230.3" font-family="Times,serif" font-size="14.00">add (#0)</text>
</a>
</g>
</g>
<!-- r2 -->
<g id="node4" class="node">
<title>r2</title>
<g id="a_node4"><a xlink:href="file:///home/runner/.flow/lib/flowstdlib/math/divide/divide.html" xlink:title="divide (#2)">
<ellipse fill="coral" stroke="black" cx="285.39" cy="-162" rx="62.29" ry="18"/>
<text text-anchor="middle" x="285.39" y="-158.3" font-family="Times,serif" font-size="14.00">divide (#2)</text>
</a>
</g>
</g>
<!-- r0&#45;&gt;r2 -->
<g id="edge3" class="edge">
<title>r0:e&#45;&gt;r2:n</title>
<path fill="none" stroke="black" d="M402.39,-234C410.41,-234 406.32,-222.32 401.39,-216 370.65,-176.6 297.41,-225.56 286.71,-190.22"/>
<polygon fill="black" stroke="black" points="290.14,-189.47 285.39,-180 283.2,-190.36 290.14,-189.47"/>
<text text-anchor="middle" x="254.39" y="-183.8" font-family="Times,serif" font-size="14.00">dividend</text>
</g>
<!-- initializerr0_0 -->
<!-- initializerr0_0&#45;&gt;r0 -->
<g id="edge1" class="edge">
<title>initializerr0_0&#45;&gt;r0:ne</title>
<path fill="none" stroke="blue" stroke-dasharray="1,5" d="M415.18,-289.06C402.27,-281.09 386.95,-270.65 373.83,-258.99"/>
<polygon fill="blue" stroke="blue" points="376.08,-256.3 366.39,-252 371.28,-261.4 376.08,-256.3"/>
<text text-anchor="middle" x="410.18" y="-277.86" font-family="Times,serif" font-size="14.00">2</text>
</g>
<!-- initializerr0_1 -->
<!-- initializerr0_1&#45;&gt;r0 -->
<g id="edge2" class="edge">
<title>initializerr0_1&#45;&gt;r0:w</title>
<path fill="none" stroke="blue" stroke-dasharray="1,5" d="M233.66,-288.17C247.79,-270.95 270.32,-245.53 286.68,-236.95"/>
<polygon fill="blue" stroke="blue" points="287.84,-240.26 296.39,-234 285.81,-233.56 287.84,-240.26"/>
<text text-anchor="middle" x="228.66" y="-276.97" font-family="Times,serif" font-size="14.00">1</text>
</g>
<!-- r3 -->
<g id="node6" class="node">
<title>r3</title>
<g id="a_node6"><a xlink:href="file:///home/runner/work/flow/flow/flowr/src/cli/stdio/stdout.html" xlink:title="stdout (#3)">
<ellipse fill="coral" stroke="black" cx="298.39" cy="-18" rx="63.89" ry="18"/>
<text text-anchor="middle" x="298.39" y="-14.3" font-family="Times,serif" font-size="14.00">stdout (#3)</text>
</a>
</g>
</g>
<!-- r2&#45;&gt;r3 -->
<g id="edge5" class="edge">
<title>r2:se&#45;&gt;r3:n</title>
<path fill="none" stroke="black" d="M303.39,-144C334.92,-112.48 303.65,-87.85 298.96,-46.08"/>
<polygon fill="black" stroke="black" points="302.45,-45.79 298.39,-36 295.46,-46.18 302.45,-45.79"/>
<text text-anchor="middle" x="279.89" y="-132.8" font-family="Times,serif" font-size="14.00">/result</text>
</g>
<!-- r4 -->
<g id="node7" class="node">
<title>r4</title>
<g id="a_node7"><a xlink:href="file:///home/runner/.flow/lib/flowstdlib/control/tap/tap.html" xlink:title="tap (#4)">
<ellipse fill="coral" stroke="black" cx="140.39" cy="-90" rx="49.29" ry="18"/>
<text text-anchor="middle" x="140.39" y="-86.3" font-family="Times,serif" font-size="14.00">tap (#4)</text>
</a>
</g>
</g>
<!-- r2&#45;&gt;r4 -->
<g id="edge6" class="edge">
<title>r2:se&#45;&gt;r4:n</title>
<path fill="none" stroke="black" d="M303.39,-144C353.19,-94.2 161.59,-173.35 142,-118.07"/>
<polygon fill="black" stroke="black" points="145.42,-117.32 140.39,-108 138.51,-118.43 145.42,-117.32"/>
<text text-anchor="middle" x="124.39" y="-111.8" font-family="Times,serif" font-size="14.00">data</text>
<text text-anchor="middle" x="326.89" y="-132.8" font-family="Times,serif" font-size="14.00">/result</text>
</g>
<!-- r1 -->
<g id="node8" class="node">
<title>r1</title>
<g id="a_node8"><a xlink:href="file:///home/runner/.flow/lib/flowstdlib/math/compare/compare.html" xlink:title="compare (#1)">
<ellipse fill="coral" stroke="black" cx="481.39" cy="-90" rx="74.19" ry="18"/>
<text text-anchor="middle" x="481.39" y="-86.3" font-family="Times,serif" font-size="14.00">compare (#1)</text>
</a>
</g>
</g>
<!-- r2&#45;&gt;r1 -->
<g id="edge7" class="edge">
<title>r2:se&#45;&gt;r1:n</title>
<path fill="none" stroke="black" d="M303.39,-144C357.79,-89.6 470.2,-179.52 480.62,-118.18"/>
<polygon fill="black" stroke="black" points="484.12,-118.24 481.39,-108 477.14,-117.7 484.12,-118.24"/>
<text text-anchor="middle" x="468.89" y="-111.8" font-family="Times,serif" font-size="14.00">left</text>
<text text-anchor="middle" x="326.89" y="-147.8" font-family="Times,serif" font-size="14.00">/result</text>
</g>
<!-- initializerr2_1 -->
<!-- initializerr2_1&#45;&gt;r2 -->
<g id="edge4" class="edge">
<title>initializerr2_1&#45;&gt;r2:nw</title>
<path fill="none" stroke="blue" stroke-dasharray="1,5" d="M198.35,-220.04C218.68,-212.79 241.81,-202.06 259.95,-186.81"/>
<polygon fill="blue" stroke="blue" points="262.38,-189.33 267.39,-180 257.65,-184.17 262.38,-189.33"/>
<text text-anchor="middle" x="193.35" y="-208.84" font-family="Times,serif" font-size="14.00">2</text>
</g>
<!-- r4&#45;&gt;r3 -->
<g id="edge9" class="edge">
<title>r4:e&#45;&gt;r3:n</title>
<path fill="none" stroke="black" d="M191.39,-90C202.63,-90 271.08,-61.04 292.2,-43.99"/>
<polygon fill="black" stroke="black" points="295.03,-46.05 298.39,-36 289.5,-41.75 295.03,-46.05"/>
</g>
<!-- r1&#45;&gt;r3 -->
<g id="edge11" class="edge">
<title>r1:se&#45;&gt;r3:n</title>
<path fill="none" stroke="black" d="M499.39,-72C560.93,-10.46 319.59,-117.31 299.69,-46.14"/>
<polygon fill="black" stroke="black" points="303.13,-45.47 298.39,-36 296.19,-46.36 303.13,-45.47"/>
<text text-anchor="middle" x="489.39" y="-60.8" font-family="Times,serif" font-size="14.00">/gt</text>
</g>
<!-- initializerr4_1 -->
<!-- initializerr4_1&#45;&gt;r4 -->
<g id="edge8" class="edge">
<title>initializerr4_1&#45;&gt;r4:nw</title>
<path fill="none" stroke="blue" stroke-dasharray="1,5" d="M90.11,-143.9C97.52,-135.47 106.9,-125.03 116.26,-115.28"/>
<polygon fill="blue" stroke="blue" points="118.9,-117.59 123.39,-108 113.9,-112.7 118.9,-117.59"/>
<text text-anchor="middle" x="73.11" y="-132.7" font-family="Times,serif" font-size="14.00">false</text>
</g>
<!-- initializerr1_1 -->
<!-- initializerr1_1&#45;&gt;r1 -->
<g id="edge10" class="edge">
<title>initializerr1_1&#45;&gt;r1:ne</title>
<path fill="none" stroke="blue" stroke-dasharray="1,5" d="M505,-143.83C506.93,-135.31 507.9,-125.07 504.8,-116.61"/>
<polygon fill="blue" stroke="blue" points="507.68,-114.61 499.39,-108 501.75,-118.33 507.68,-114.61"/>
<text text-anchor="middle" x="500" y="-132.63" font-family="Times,serif" font-size="14.00">1</text>
</g>
</g>
</svg>
