<?xml version="1.0" encoding="UTF-8" standalone="no"?>
<!DOCTYPE svg PUBLIC "-//W3C//DTD SVG 1.1//EN"
 "http://www.w3.org/Graphics/SVG/1.1/DTD/svg11.dtd">
<!-- Generated by graphviz version 2.43.0 (0)
 -->
<!-- Title: primitives Pages: 1 -->
<svg width="1346pt" height="462pt"
 viewBox="28.80 28.80 1317.27 433.54" xmlns="http://www.w3.org/2000/svg" xmlns:xlink="http://www.w3.org/1999/xlink">
<g id="graph0" class="graph" transform="scale(1 1) rotate(0) translate(32.8 429.54)">
<title>primitives</title>
<polygon fill="white" stroke="transparent" points="-4,4 -4,-400.74 1284.47,-400.74 1284.47,4 -4,4"/>
<text text-anchor="middle" x="640.24" y="-381.54" font-family="Times,serif" font-size="14.00">primitives</text>
<!-- /primitives/add -->
<g id="node1" class="node">
<title>/primitives/add</title>
<g id="a_node1"><a xlink:href="../../../target/flowstdlib/math/add/add.html" xlink:title="add">
<ellipse fill="coral" stroke="black" cx="358.89" cy="-268.74" rx="27.9" ry="18"/>
<text text-anchor="middle" x="358.89" y="-265.04" font-family="Times,serif" font-size="14.00">add</text>
</a>
</g>
</g>
<!-- /primitives/divide/ -->
<g id="node11" class="node">
<title>/primitives/divide/</title>
<ellipse fill="none" stroke="black" cx="481.89" cy="-195.74" rx="94.78" ry="18"/>
<text text-anchor="middle" x="481.89" y="-192.04" font-family="Times,serif" font-size="14.00">/primitives/divide/</text>
</g>
<!-- /primitives/add&#45;&gt;/primitives/divide/ -->
<g id="edge6" class="edge">
<title>/primitives/add:e&#45;&gt;/primitives/divide/:w</title>
<path fill="none" stroke="black" d="M387.89,-268.74C415.02,-268.74 372.71,-217.73 377.06,-200.99"/>
<polygon fill="black" stroke="black" points="379.08,-203.86 385.89,-195.74 375.5,-197.84 379.08,-203.86"/>
<text text-anchor="middle" x="354.89" y="-199.54" font-family="Times,serif" font-size="14.00">dividend</text>
</g>
<!-- initializer/primitives/add_0 -->
<!-- initializer/primitives/add_0&#45;&gt;/primitives/add -->
<g id="edge1" class="edge">
<title>initializer/primitives/add_0&#45;&gt;/primitives/add:ne</title>
<path fill="none" stroke="blue" stroke-dasharray="1,5" d="M456.52,-338.47C433.32,-327.95 404.64,-312.5 382.23,-292.64"/>
<polygon fill="blue" stroke="blue" points="384.57,-290.04 374.89,-285.74 379.78,-295.14 384.57,-290.04"/>
<text text-anchor="middle" x="422.89" y="-308.54" font-family="Times,serif" font-size="14.00">2</text>
</g>
<!-- initializer/primitives/add_1 -->
<!-- initializer/primitives/add_1&#45;&gt;/primitives/add -->
<g id="edge2" class="edge">
<title>initializer/primitives/add_1&#45;&gt;/primitives/add:w</title>
<path fill="none" stroke="blue" stroke-dasharray="1,5" d="M220.42,-337.75C239.05,-314.5 276.51,-274.99 319.7,-269.4"/>
<polygon fill="blue" stroke="blue" points="320.14,-272.88 329.89,-268.74 319.68,-265.9 320.14,-272.88"/>
<text text-anchor="middle" x="254.89" y="-308.54" font-family="Times,serif" font-size="14.00">1</text>
</g>
<!-- /primitives/divide -->
<g id="node4" class="node">
<title>/primitives/divide</title>
<g id="a_node4"><a xlink:href="../../../target/flowstdlib/math/divide/divide.html" xlink:title="divide">
<ellipse fill="coral" stroke="black" cx="814.89" cy="-268.74" rx="38.99" ry="18"/>
<text text-anchor="middle" x="814.89" y="-265.04" font-family="Times,serif" font-size="14.00">divide</text>
</a>
</g>
</g>
<!-- initializer/primitives/divide_1 -->
<!-- initializer/primitives/divide_1&#45;&gt;/primitives/divide -->
<g id="edge3" class="edge">
<title>initializer/primitives/divide_1&#45;&gt;/primitives/divide:nw</title>
<path fill="none" stroke="blue" stroke-dasharray="1,5" d="M792.92,-337.73C789.41,-324.93 786.77,-307.39 793.03,-294.13"/>
<polygon fill="blue" stroke="blue" points="796.03,-295.94 798.89,-285.74 790.29,-291.93 796.03,-295.94"/>
<text text-anchor="middle" x="794.89" y="-308.54" font-family="Times,serif" font-size="14.00">2</text>
</g>
<!-- /primitives/tap -->
<g id="node6" class="node">
<title>/primitives/tap</title>
<g id="a_node6"><a xlink:href="../../../target/flowstdlib/control/tap/tap.html" xlink:title="tap">
<ellipse fill="coral" stroke="black" cx="148.89" cy="-108.74" rx="27" ry="18"/>
<text text-anchor="middle" x="148.89" y="-105.04" font-family="Times,serif" font-size="14.00">tap</text>
</a>
</g>
</g>
<!-- /primitives/print -->
<g id="node10" class="node">
<title>/primitives/print</title>
<g id="a_node10"><a xlink:href="../../../flowr/src/cli/stdio/stdout.html" xlink:title="print\n(stdout)">
<ellipse fill="coral" stroke="black" cx="515.89" cy="-26.87" rx="51.74" ry="26.74"/>
<text text-anchor="middle" x="515.89" y="-30.67" font-family="Times,serif" font-size="14.00">print</text>
<text text-anchor="middle" x="515.89" y="-15.67" font-family="Times,serif" font-size="14.00">(stdout)</text>
</a>
</g>
</g>
<!-- /primitives/tap&#45;&gt;/primitives/print -->
<g id="edge11" class="edge">
<title>/primitives/tap:e&#45;&gt;/primitives/print:w</title>
<path fill="none" stroke="black" d="M176.89,-108.74C185.64,-108.74 178.13,-96.31 184.89,-90.74 231.32,-52.48 382.97,-29.31 452.47,-27.05"/>
<polygon fill="black" stroke="black" points="452.95,-30.54 462.89,-26.87 452.83,-23.54 452.95,-30.54"/>
</g>
<!-- initializer/primitives/tap_1 -->
<!-- initializer/primitives/tap_1&#45;&gt;/primitives/tap -->
<g id="edge4" class="edge">
<title>initializer/primitives/tap_1&#45;&gt;/primitives/tap:nw</title>
<path fill="none" stroke="blue" stroke-dasharray="1,5" d="M127.84,-177.48C124.27,-164.5 121.59,-146.7 127.94,-133.25"/>
<polygon fill="blue" stroke="blue" points="131.03,-134.94 133.89,-124.74 125.29,-130.93 131.03,-134.94"/>
<text text-anchor="middle" x="141.89" y="-148.54" font-family="Times,serif" font-size="14.00">false</text>
</g>
<!-- /primitives/compare -->
<g id="node8" class="node">
<title>/primitives/compare</title>
<g id="a_node8"><a xlink:href="../../../target/flowstdlib/math/compare/compare.html" xlink:title="compare">
<ellipse fill="coral" stroke="black" cx="1104.89" cy="-268.74" rx="50.89" ry="18"/>
<text text-anchor="middle" x="1104.89" y="-265.04" font-family="Times,serif" font-size="14.00">compare</text>
</a>
</g>
</g>
<!-- initializer/primitives/compare_1 -->
<!-- initializer/primitives/compare_1&#45;&gt;/primitives/compare -->
<g id="edge5" class="edge">
<title>initializer/primitives/compare_1&#45;&gt;/primitives/compare:ne</title>
<path fill="none" stroke="blue" stroke-dasharray="1,5" d="M1127.85,-337.68C1131.27,-325.07 1133.79,-307.92 1127.64,-294.95"/>
<polygon fill="blue" stroke="blue" points="1130.49,-292.92 1121.89,-286.74 1124.76,-296.94 1130.49,-292.92"/>
<text text-anchor="middle" x="1135.89" y="-308.54" font-family="Times,serif" font-size="14.00">1</text>
</g>
<!-- /primitives/divide/&#45;&gt;/primitives/print -->
<g id="edge7" class="edge">
<title>/primitives/divide/:se&#45;&gt;/primitives/print:w</title>
<path fill="none" stroke="black" d="M499.89,-177.74C534.61,-143.02 572.41,-168.72 597.89,-126.74 606.19,-113.06 607.58,-103.47 597.89,-90.74 560.46,-41.58 502.22,-102.19 463.89,-53.74 459.6,-48.32 455.94,-40.19 455.93,-34.29"/>
<polygon fill="black" stroke="black" points="458.6,-36.56 462.89,-26.87 453.49,-31.77 458.6,-36.56"/>
<text text-anchor="middle" x="468.4" y="-75.55" font-family="Times,serif" font-size="14.00">result</text>
</g>
<!-- /primitives/tap/ -->
<g id="node12" class="node">
<title>/primitives/tap/</title>
<ellipse fill="none" stroke="black" cx="275.89" cy="-108.74" rx="81.79" ry="18"/>
<text text-anchor="middle" x="275.89" y="-105.04" font-family="Times,serif" font-size="14.00">/primitives/tap/</text>
</g>
<!-- /primitives/divide/&#45;&gt;/primitives/tap/ -->
<g id="edge8" class="edge">
<title>/primitives/divide/:se&#45;&gt;/primitives/tap/:nw</title>
<path fill="none" stroke="black" d="M499.89,-177.74C534.8,-142.83 280.27,-160.85 256.39,-136.69"/>
<polygon fill="black" stroke="black" points="259.86,-137.15 257.89,-126.74 252.94,-136.11 259.86,-137.15"/>
<text text-anchor="middle" x="357.34" y="-156.04" font-family="Times,serif" font-size="14.00">result</text>
<text text-anchor="middle" x="241.89" y="-130.54" font-family="Times,serif" font-size="14.00">data</text>
</g>
<!-- /primitives/compare/ -->
<g id="node13" class="node">
<title>/primitives/compare/</title>
<ellipse fill="none" stroke="black" cx="481.89" cy="-108.74" rx="106.68" ry="18"/>
<text text-anchor="middle" x="481.89" y="-105.04" font-family="Times,serif" font-size="14.00">/primitives/compare/</text>
</g>
<!-- /primitives/divide/&#45;&gt;/primitives/compare/ -->
<g id="edge9" class="edge">
<title>/primitives/divide/:se&#45;&gt;/primitives/compare/:ne</title>
<path fill="none" stroke="black" d="M499.89,-177.74C513.29,-164.34 515.48,-148.91 506.48,-134.84"/>
<polygon fill="black" stroke="black" points="508.92,-132.28 499.89,-126.74 503.49,-136.7 508.92,-132.28"/>
<text text-anchor="middle" x="490.41" y="-156.23" font-family="Times,serif" font-size="14.00">result</text>
<text text-anchor="middle" x="487.39" y="-130.54" font-family="Times,serif" font-size="14.00">left</text>
</g>
<!-- /primitives/compare/&#45;&gt;/primitives/print -->
<g id="edge10" class="edge">
<title>/primitives/compare/:sw&#45;&gt;/primitives/print:w</title>
<path fill="none" stroke="black" d="M463.89,-90.74C446.64,-73.49 437.33,-38.72 453.07,-29.28"/>
<polygon fill="black" stroke="black" points="454.01,-32.65 462.89,-26.87 452.34,-25.86 454.01,-32.65"/>
<text text-anchor="middle" x="438.1" y="-60.84" font-family="Times,serif" font-size="14.00">gt</text>
</g>
</g>
</svg>
