<?xml version="1.0" encoding="UTF-8" standalone="no"?>
<!DOCTYPE svg PUBLIC "-//W3C//DTD SVG 1.1//EN"
 "http://www.w3.org/Graphics/SVG/1.1/DTD/svg11.dtd">
<!-- Generated by graphviz version 2.43.0 (0)
 -->
<!-- Title: primitives Pages: 1 -->
<svg width="815pt" height="413pt"
 viewBox="28.80 28.80 786.53 383.80" xmlns="http://www.w3.org/2000/svg" xmlns:xlink="http://www.w3.org/1999/xlink">
<g id="graph0" class="graph" transform="scale(1 1) rotate(0) translate(32.8 379.8)">
<title>primitives</title>
<polygon fill="white" stroke="transparent" points="-4,4 -4,-351 753.73,-351 753.73,4 -4,4"/>
<text text-anchor="middle" x="374.86" y="-331.8" font-family="Times,serif" font-size="14.00">primitives</text>
<!-- /primitives/add -->
<g id="node1" class="node">
<title>/primitives/add</title>
<g id="a_node1"><a xlink:href="../../../../../.flow/lib/flowstdlib/math/add/add.html" xlink:title="add">
<ellipse fill="coral" stroke="black" cx="286.84" cy="-234" rx="27.9" ry="18"/>
<text text-anchor="middle" x="286.84" y="-230.3" font-family="Times,serif" font-size="14.00">add</text>
</a>
</g>
</g>
<!-- /primitives/divide -->
<g id="node4" class="node">
<title>/primitives/divide</title>
<g id="a_node4"><a xlink:href="../../../../../.flow/lib/flowstdlib/math/divide/divide.html" xlink:title="divide">
<ellipse fill="coral" stroke="black" cx="424.84" cy="-162" rx="38.99" ry="18"/>
<text text-anchor="middle" x="424.84" y="-158.3" font-family="Times,serif" font-size="14.00">divide</text>
</a>
</g>
</g>
<!-- /primitives/add&#45;&gt;/primitives/divide -->
<g id="edge6" class="edge">
<title>/primitives/add:e&#45;&gt;/primitives/divide:w</title>
<path fill="none" stroke="black" d="M315.84,-234C324.59,-234 318.22,-222.72 323.84,-216 342.1,-194.15 358.58,-201.85 376.84,-180 379.12,-177.27 379.42,-173.79 379.56,-170.62"/>
<polygon fill="black" stroke="black" points="382.6,-172.36 384.84,-162 376.63,-168.7 382.6,-172.36"/>
<text text-anchor="middle" x="369.34" y="-150.8" font-family="Times,serif" font-size="14.00">dividend</text>
</g>
<!-- initializer/primitives/add_0 -->
<!-- initializer/primitives/add_0&#45;&gt;/primitives/add -->
<g id="edge1" class="edge">
<title>initializer/primitives/add_0&#45;&gt;/primitives/add:ne</title>
<path fill="none" stroke="blue" stroke-dasharray="1,5" d="M368.21,-289.7C348.56,-282.43 327.29,-272.12 310.31,-257.84"/>
<polygon fill="blue" stroke="blue" points="312.58,-255.17 302.84,-251 307.85,-260.33 312.58,-255.17"/>
<text text-anchor="middle" x="363.21" y="-278.5" font-family="Times,serif" font-size="14.00">2</text>
</g>
<!-- initializer/primitives/add_1 -->
<!-- initializer/primitives/add_1&#45;&gt;/primitives/add -->
<g id="edge2" class="edge">
<title>initializer/primitives/add_1&#45;&gt;/primitives/add:w</title>
<path fill="none" stroke="blue" stroke-dasharray="1,5" d="M152.25,-287.81C172.36,-268.52 208.59,-239.3 247.39,-234.64"/>
<polygon fill="blue" stroke="blue" points="248.07,-238.1 257.84,-234 247.64,-231.12 248.07,-238.1"/>
<text text-anchor="middle" x="147.25" y="-276.61" font-family="Times,serif" font-size="14.00">1</text>
</g>
<!-- /primitives/tap -->
<g id="node6" class="node">
<title>/primitives/tap</title>
<g id="a_node6"><a xlink:href="../../../../../.flow/lib/flowstdlib/control/tap/tap.html" xlink:title="tap">
<ellipse fill="coral" stroke="black" cx="495.84" cy="-90" rx="27" ry="18"/>
<text text-anchor="middle" x="495.84" y="-86.3" font-family="Times,serif" font-size="14.00">tap</text>
</a>
</g>
</g>
<!-- /primitives/divide&#45;&gt;/primitives/tap -->
<g id="edge8" class="edge">
<title>/primitives/divide:se&#45;&gt;/primitives/tap:nw</title>
<path fill="none" stroke="black" d="M440.84,-145C455.65,-130.19 461.44,-125.11 473.44,-113.33"/>
<polygon fill="black" stroke="black" points="476.2,-115.53 480.84,-106 471.27,-110.55 476.2,-115.53"/>
<text text-anchor="middle" x="439.37" y="-129.27" font-family="Times,serif" font-size="14.00">result</text>
<text text-anchor="middle" x="464.84" y="-109.8" font-family="Times,serif" font-size="14.00">data</text>
</g>
<!-- /primitives/compare -->
<g id="node8" class="node">
<title>/primitives/compare</title>
<g id="a_node8"><a xlink:href="../../../../../.flow/lib/flowstdlib/math/compare/compare.html" xlink:title="compare">
<ellipse fill="coral" stroke="black" cx="361.84" cy="-90" rx="50.89" ry="18"/>
<text text-anchor="middle" x="361.84" y="-86.3" font-family="Times,serif" font-size="14.00">compare</text>
</a>
</g>
</g>
<!-- /primitives/divide&#45;&gt;/primitives/compare -->
<g id="edge9" class="edge">
<title>/primitives/divide:se&#45;&gt;/primitives/compare:ne</title>
<path fill="none" stroke="black" d="M440.84,-145C461.22,-124.61 413.25,-129.31 386.84,-114.02"/>
<polygon fill="black" stroke="black" points="388.93,-111.21 378.84,-108 384.73,-116.81 388.93,-111.21"/>
<text text-anchor="middle" x="389.26" y="-126.62" font-family="Times,serif" font-size="14.00">result</text>
<text text-anchor="middle" x="366.34" y="-111.8" font-family="Times,serif" font-size="14.00">left</text>
</g>
<!-- /primitives/stdout -->
<g id="node10" class="node">
<title>/primitives/stdout</title>
<g id="a_node10"><a xlink:href="../../flowr/src/cli/stdio/stdout.html" xlink:title="stdout">
<polygon fill="black" stroke="black" points="540.46,-23.56 490.84,-36 441.22,-23.56 441.27,-3.44 540.41,-3.44 540.46,-23.56"/>
<text text-anchor="middle" x="490.84" y="-14.3" font-family="Times,serif" font-size="14.00" fill="white">stdout</text>
</a>
</g>
</g>
<!-- /primitives/divide&#45;&gt;/primitives/stdout -->
<g id="edge7" class="edge">
<title>/primitives/divide:se&#45;&gt;/primitives/stdout:w</title>
<path fill="none" stroke="black" d="M440.84,-145C477.79,-108.05 397.09,-30.67 429.69,-19.38"/>
<polygon fill="black" stroke="black" points="430.4,-22.82 439.84,-18 429.46,-15.88 430.4,-22.82"/>
<text text-anchor="middle" x="415.39" y="-61.35" font-family="Times,serif" font-size="14.00">result</text>
</g>
<!-- initializer/primitives/divide_1 -->
<!-- initializer/primitives/divide_1&#45;&gt;/primitives/divide -->
<g id="edge3" class="edge">
<title>initializer/primitives/divide_1&#45;&gt;/primitives/divide:nw</title>
<path fill="none" stroke="blue" stroke-dasharray="1,5" d="M434.32,-216.75C417.38,-208.84 402.51,-198.7 403.93,-187.84"/>
<polygon fill="blue" stroke="blue" points="407.05,-189.44 408.84,-179 400.93,-186.05 407.05,-189.44"/>
<text text-anchor="middle" x="429.32" y="-205.55" font-family="Times,serif" font-size="14.00">2</text>
</g>
<!-- /primitives/tap&#45;&gt;/primitives/stdout -->
<g id="edge11" class="edge">
<title>/primitives/tap:e&#45;&gt;/primitives/stdout:w</title>
<path fill="none" stroke="black" d="M523.84,-90C531.85,-90 527.4,-78.58 522.84,-72 500.16,-39.29 463.52,-68.71 440.84,-36 439.13,-33.53 437.43,-30.38 436.4,-27.41"/>
<polygon fill="black" stroke="black" points="439.7,-28.59 439.84,-18 433.12,-26.19 439.7,-28.59"/>
</g>
<!-- initializer/primitives/tap_1 -->
<!-- initializer/primitives/tap_1&#45;&gt;/primitives/tap -->
<g id="edge4" class="edge">
<title>initializer/primitives/tap_1&#45;&gt;/primitives/tap:nw</title>
<path fill="none" stroke="blue" stroke-dasharray="1,5" d="M522.93,-148.9C491.96,-141.77 467.04,-130.76 474.85,-114.07"/>
<polygon fill="blue" stroke="blue" points="477.69,-116.12 480.84,-106 472.07,-111.95 477.69,-116.12"/>
<text text-anchor="middle" x="505.93" y="-137.7" font-family="Times,serif" font-size="14.00">false</text>
</g>
<!-- /primitives/compare&#45;&gt;/primitives/stdout -->
<g id="edge10" class="edge">
<title>/primitives/compare:sw&#45;&gt;/primitives/stdout:w</title>
<path fill="none" stroke="black" d="M344.84,-72C312.78,-39.94 381.05,-20.68 429.78,-18.26"/>
<polygon fill="black" stroke="black" points="429.93,-21.76 439.84,-18 429.75,-14.76 429.93,-21.76"/>
<text text-anchor="middle" x="379.28" y="-27.87" font-family="Times,serif" font-size="14.00">gt</text>
</g>
<!-- initializer/primitives/compare_1 -->
<!-- initializer/primitives/compare_1&#45;&gt;/primitives/compare -->
<g id="edge5" class="edge">
<title>initializer/primitives/compare_1&#45;&gt;/primitives/compare:ne</title>
<path fill="none" stroke="blue" stroke-dasharray="1,5" d="M339.14,-151.65C372.03,-145.22 395.54,-134.41 385.34,-116.24"/>
<polygon fill="blue" stroke="blue" points="387.78,-113.68 378.84,-108 382.29,-118.02 387.78,-113.68"/>
<text text-anchor="middle" x="334.14" y="-140.45" font-family="Times,serif" font-size="14.00">1</text>
</g>
</g>
</svg>
