<?xml version="1.0" encoding="UTF-8" standalone="no"?>
<!DOCTYPE svg PUBLIC "-//W3C//DTD SVG 1.1//EN"
 "http://www.w3.org/Graphics/SVG/1.1/DTD/svg11.dtd">
<!-- Generated by graphviz version 2.43.0 (0)
 -->
<!-- Title: primitives Pages: 1 -->
<svg width="815pt" height="443pt"
 viewBox="28.80 28.80 786.53 414.23" xmlns="http://www.w3.org/2000/svg" xmlns:xlink="http://www.w3.org/1999/xlink">
<g id="graph0" class="graph" transform="scale(1 1) rotate(0) translate(32.8 410.23)">
<title>primitives</title>
<polygon fill="white" stroke="transparent" points="-4,4 -4,-381.43 753.73,-381.43 753.73,4 -4,4"/>
<text text-anchor="middle" x="374.86" y="-362.23" font-family="Times,serif" font-size="14.00">primitives</text>
<!-- /primitives/add -->
<g id="node1" class="node">
<title>/primitives/add</title>
<g id="a_node1"><a xlink:href="../../target/flowstdlib/math/add/add.html" xlink:title="add">
<ellipse fill="coral" stroke="black" cx="286.84" cy="-264.43" rx="27.9" ry="18"/>
<text text-anchor="middle" x="286.84" y="-260.73" font-family="Times,serif" font-size="14.00">add</text>
</a>
</g>
</g>
<!-- /primitives/divide -->
<g id="node4" class="node">
<title>/primitives/divide</title>
<g id="a_node4"><a xlink:href="../../target/flowstdlib/math/divide/divide.html" xlink:title="divide">
<ellipse fill="coral" stroke="black" cx="424.84" cy="-192.43" rx="38.99" ry="18"/>
<text text-anchor="middle" x="424.84" y="-188.73" font-family="Times,serif" font-size="14.00">divide</text>
</a>
</g>
</g>
<!-- /primitives/add&#45;&gt;/primitives/divide -->
<g id="edge6" class="edge">
<title>/primitives/add:e&#45;&gt;/primitives/divide:w</title>
<path fill="none" stroke="black" d="M315.84,-264.43C324.59,-264.43 318.22,-253.14 323.84,-246.43 342.1,-224.58 358.58,-232.28 376.84,-210.43 379.12,-207.7 379.42,-204.22 379.56,-201.04"/>
<polygon fill="black" stroke="black" points="382.6,-202.78 384.84,-192.43 376.63,-199.13 382.6,-202.78"/>
<text text-anchor="middle" x="369.34" y="-181.23" font-family="Times,serif" font-size="14.00">dividend</text>
</g>
<!-- initializer/primitives/add_0 -->
<!-- initializer/primitives/add_0&#45;&gt;/primitives/add -->
<g id="edge1" class="edge">
<title>initializer/primitives/add_0&#45;&gt;/primitives/add:ne</title>
<path fill="none" stroke="blue" stroke-dasharray="1,5" d="M368.21,-320.12C348.56,-312.86 327.29,-302.55 310.31,-288.27"/>
<polygon fill="blue" stroke="blue" points="312.58,-285.6 302.84,-281.43 307.85,-290.76 312.58,-285.6"/>
<text text-anchor="middle" x="363.21" y="-308.92" font-family="Times,serif" font-size="14.00">2</text>
</g>
<!-- initializer/primitives/add_1 -->
<!-- initializer/primitives/add_1&#45;&gt;/primitives/add -->
<g id="edge2" class="edge">
<title>initializer/primitives/add_1&#45;&gt;/primitives/add:w</title>
<path fill="none" stroke="blue" stroke-dasharray="1,5" d="M152.25,-318.24C172.36,-298.95 208.59,-269.73 247.39,-265.06"/>
<polygon fill="blue" stroke="blue" points="248.07,-268.53 257.84,-264.43 247.64,-261.54 248.07,-268.53"/>
<text text-anchor="middle" x="147.25" y="-307.04" font-family="Times,serif" font-size="14.00">1</text>
</g>
<!-- /primitives/tap -->
<g id="node6" class="node">
<title>/primitives/tap</title>
<g id="a_node6"><a xlink:href="../../target/flowstdlib/control/tap/tap.html" xlink:title="tap">
<ellipse fill="coral" stroke="black" cx="495.84" cy="-120.43" rx="27" ry="18"/>
<text text-anchor="middle" x="495.84" y="-116.73" font-family="Times,serif" font-size="14.00">tap</text>
</a>
</g>
</g>
<!-- /primitives/divide&#45;&gt;/primitives/tap -->
<g id="edge8" class="edge">
<title>/primitives/divide:se&#45;&gt;/primitives/tap:nw</title>
<path fill="none" stroke="black" d="M440.84,-175.43C455.65,-160.61 461.44,-155.53 473.44,-143.76"/>
<polygon fill="black" stroke="black" points="476.2,-145.95 480.84,-136.43 471.27,-140.98 476.2,-145.95"/>
<text text-anchor="middle" x="439.37" y="-159.7" font-family="Times,serif" font-size="14.00">result</text>
<text text-anchor="middle" x="464.84" y="-140.23" font-family="Times,serif" font-size="14.00">data</text>
</g>
<!-- /primitives/compare -->
<g id="node8" class="node">
<title>/primitives/compare</title>
<g id="a_node8"><a xlink:href="../../target/flowstdlib/math/compare/compare.html" xlink:title="compare">
<ellipse fill="coral" stroke="black" cx="361.84" cy="-120.43" rx="50.89" ry="18"/>
<text text-anchor="middle" x="361.84" y="-116.73" font-family="Times,serif" font-size="14.00">compare</text>
</a>
</g>
</g>
<!-- /primitives/divide&#45;&gt;/primitives/compare -->
<g id="edge9" class="edge">
<title>/primitives/divide:se&#45;&gt;/primitives/compare:ne</title>
<path fill="none" stroke="black" d="M440.84,-175.43C461.22,-155.04 413.25,-159.74 386.84,-144.44"/>
<polygon fill="black" stroke="black" points="388.93,-141.64 378.84,-138.43 384.73,-147.23 388.93,-141.64"/>
<text text-anchor="middle" x="389.26" y="-157.04" font-family="Times,serif" font-size="14.00">result</text>
<text text-anchor="middle" x="366.34" y="-142.23" font-family="Times,serif" font-size="14.00">left</text>
</g>
<!-- /primitives/print -->
<g id="node10" class="node">
<title>/primitives/print</title>
<g id="a_node10"><a xlink:href="../../flowr/src/cli/stdio/stdout.html" xlink:title="print\n(stdout)">
<polygon fill="black" stroke="black" points="568.45,-43.54 504.84,-66.64 441.23,-43.54 441.29,-6.17 568.39,-6.17 568.45,-43.54"/>
<text text-anchor="middle" x="504.84" y="-37.01" font-family="Times,serif" font-size="14.00" fill="white">print</text>
<text text-anchor="middle" x="504.84" y="-22.01" font-family="Times,serif" font-size="14.00" fill="white">(stdout)</text>
</a>
</g>
</g>
<!-- /primitives/divide&#45;&gt;/primitives/print -->
<g id="edge7" class="edge">
<title>/primitives/divide:se&#45;&gt;/primitives/print:w</title>
<path fill="none" stroke="black" d="M440.84,-175.43C482.56,-133.7 390.42,-45.93 429.43,-34.46"/>
<polygon fill="black" stroke="black" points="430.32,-37.88 439.84,-33.21 429.49,-30.93 430.32,-37.88"/>
<text text-anchor="middle" x="414.65" y="-82.39" font-family="Times,serif" font-size="14.00">result</text>
</g>
<!-- initializer/primitives/divide_1 -->
<!-- initializer/primitives/divide_1&#45;&gt;/primitives/divide -->
<g id="edge3" class="edge">
<title>initializer/primitives/divide_1&#45;&gt;/primitives/divide:nw</title>
<path fill="none" stroke="blue" stroke-dasharray="1,5" d="M434.32,-247.17C417.38,-239.27 402.51,-229.13 403.93,-218.27"/>
<polygon fill="blue" stroke="blue" points="407.05,-219.87 408.84,-209.43 400.93,-216.47 407.05,-219.87"/>
<text text-anchor="middle" x="429.32" y="-235.97" font-family="Times,serif" font-size="14.00">2</text>
</g>
<!-- /primitives/tap&#45;&gt;/primitives/print -->
<g id="edge11" class="edge">
<title>/primitives/tap:e&#45;&gt;/primitives/print:w</title>
<path fill="none" stroke="black" d="M523.84,-120.43C531.85,-120.43 527.4,-109.01 522.84,-102.43 500.16,-69.72 463.1,-99.42 440.84,-66.43 435.35,-58.3 430.2,-46.32 431.68,-39.19"/>
<polygon fill="black" stroke="black" points="433.84,-41.95 439.84,-33.21 429.7,-36.3 433.84,-41.95"/>
</g>
<!-- initializer/primitives/tap_1 -->
<!-- initializer/primitives/tap_1&#45;&gt;/primitives/tap -->
<g id="edge4" class="edge">
<title>initializer/primitives/tap_1&#45;&gt;/primitives/tap:nw</title>
<path fill="none" stroke="blue" stroke-dasharray="1,5" d="M522.93,-179.33C491.96,-172.2 467.04,-161.19 474.85,-144.5"/>
<polygon fill="blue" stroke="blue" points="477.69,-146.54 480.84,-136.43 472.07,-142.37 477.69,-146.54"/>
<text text-anchor="middle" x="505.93" y="-168.13" font-family="Times,serif" font-size="14.00">false</text>
</g>
<!-- /primitives/compare&#45;&gt;/primitives/print -->
<g id="edge10" class="edge">
<title>/primitives/compare:sw&#45;&gt;/primitives/print:w</title>
<path fill="none" stroke="black" d="M344.84,-102.43C310.21,-67.8 378.09,-37.27 429.76,-33.58"/>
<polygon fill="black" stroke="black" points="429.97,-37.08 439.84,-33.21 429.72,-30.08 429.97,-37.08"/>
<text text-anchor="middle" x="375.76" y="-46.76" font-family="Times,serif" font-size="14.00">gt</text>
</g>
<!-- initializer/primitives/compare_1 -->
<!-- initializer/primitives/compare_1&#45;&gt;/primitives/compare -->
<g id="edge5" class="edge">
<title>initializer/primitives/compare_1&#45;&gt;/primitives/compare:ne</title>
<path fill="none" stroke="blue" stroke-dasharray="1,5" d="M339.14,-182.08C372.03,-175.65 395.54,-164.83 385.34,-146.67"/>
<polygon fill="blue" stroke="blue" points="387.78,-144.11 378.84,-138.43 382.29,-148.44 387.78,-144.11"/>
<text text-anchor="middle" x="334.14" y="-185.88" font-family="Times,serif" font-size="14.00">1</text>
</g>
</g>
</svg>
