<?xml version="1.0" encoding="UTF-8" standalone="no"?>
<!DOCTYPE svg PUBLIC "-//W3C//DTD SVG 1.1//EN"
 "http://www.w3.org/Graphics/SVG/1.1/DTD/svg11.dtd">
<!-- Generated by graphviz version 2.44.0 (20200408.0750)
 -->
<!-- Title: sequence Pages: 1 -->
<svg width="350pt" height="358pt"
 viewBox="28.80 28.80 321.45 329.54" xmlns="http://www.w3.org/2000/svg" xmlns:xlink="http://www.w3.org/1999/xlink">
<g id="graph0" class="graph" transform="scale(1 1) rotate(0) translate(32.8 325.54)">
<title>sequence</title>
<polygon fill="white" stroke="transparent" points="-4,4 -4,-296.74 288.65,-296.74 288.65,4 -4,4"/>
<text text-anchor="middle" x="142.32" y="-277.54" font-family="Times,serif" font-size="14.00">sequence</text>
<!-- /sequence/start -->
<g id="node1" class="node">
<title>/sequence/start</title>
<polygon fill="white" stroke="black" points="195.39,-257.3 163.12,-269.74 130.85,-257.3 130.88,-237.18 195.36,-237.18 195.39,-257.3"/>
<text text-anchor="middle" x="163.12" y="-248.04" font-family="Times,serif" font-size="14.00">start</text>
</g>
<!-- /sequence/compare -->
<g id="node6" class="node">
<title>/sequence/compare</title>
<g id="a_node6"><a xlink:href="../../flowstdlib/control/compare_switch/compare_switch.html" xlink:title="compare\n(compare_switch)">
<ellipse fill="coral" stroke="black" cx="127.12" cy="-170.87" rx="81.13" ry="26.74"/>
<text text-anchor="middle" x="127.12" y="-174.67" font-family="Times,serif" font-size="14.00">compare</text>
<text text-anchor="middle" x="127.12" y="-159.67" font-family="Times,serif" font-size="14.00">(compare_switch)</text>
</a>
</g>
</g>
<!-- /sequence/start&#45;&gt;/sequence/compare -->
<g id="edge1" class="edge">
<title>/sequence/start:s&#45;&gt;/sequence/compare:ne</title>
<path fill="none" stroke="black" d="M163.12,-235.74C163.12,-222.23 164.52,-214.27 159.45,-205.65"/>
<polygon fill="black" stroke="black" points="162.1,-203.36 153.12,-197.74 156.63,-207.73 162.1,-203.36"/>
<text text-anchor="middle" x="140.12" y="-201.54" font-family="Times,serif" font-size="14.00">right</text>
</g>
<!-- /sequence/end -->
<g id="node2" class="node">
<title>/sequence/end</title>
<polygon fill="white" stroke="black" points="112.96,-257.3 84.12,-269.74 55.27,-257.3 55.3,-237.18 112.93,-237.18 112.96,-257.3"/>
<text text-anchor="middle" x="84.12" y="-248.04" font-family="Times,serif" font-size="14.00">end</text>
</g>
<!-- /sequence/end&#45;&gt;/sequence/compare -->
<g id="edge2" class="edge">
<title>/sequence/end:s&#45;&gt;/sequence/compare:ne</title>
<path fill="none" stroke="black" d="M84.12,-235.74C84.12,-207.29 146.01,-216.33 155.94,-207.44"/>
<polygon fill="black" stroke="black" points="159.27,-206.36 153.12,-197.74 152.55,-208.32 159.27,-206.36"/>
<text text-anchor="middle" x="162.62" y="-201.54" font-family="Times,serif" font-size="14.00">left</text>
</g>
<!-- /sequence/step -->
<g id="node3" class="node">
<title>/sequence/step</title>
<polygon fill="white" stroke="black" points="284.67,-257.3 254.12,-269.74 223.56,-257.3 223.59,-237.18 284.65,-237.18 284.67,-257.3"/>
<text text-anchor="middle" x="254.12" y="-248.04" font-family="Times,serif" font-size="14.00">step</text>
</g>
<!-- /sequence/add -->
<g id="node7" class="node">
<title>/sequence/add</title>
<g id="a_node7"><a xlink:href="../../flowstdlib/math/add/add.html" xlink:title="add">
<ellipse fill="coral" stroke="black" cx="182.12" cy="-90" rx="27" ry="18"/>
<text text-anchor="middle" x="182.12" y="-86.3" font-family="Times,serif" font-size="14.00">add</text>
</a>
</g>
</g>
<!-- /sequence/step&#45;&gt;/sequence/add -->
<g id="edge3" class="edge">
<title>/sequence/step:s&#45;&gt;/sequence/add:w</title>
<path fill="none" stroke="black" d="M254.12,-235.74C254.12,-194.1 261.17,-176.48 235.12,-144 210.72,-113.59 177.19,-140.14 155.12,-108 153.42,-105.52 151.72,-102.37 150.7,-99.4"/>
<polygon fill="black" stroke="black" points="153.99,-100.59 154.12,-90 147.41,-98.2 153.99,-100.59"/>
<text text-anchor="middle" x="148.62" y="-93.8" font-family="Times,serif" font-size="14.00">i2</text>
</g>
<!-- /sequence/sequence -->
<g id="node4" class="node">
<title>/sequence/sequence</title>
<polygon fill="black" stroke="black" points="74.07,-12.44 127.12,0 180.16,-12.44 180.11,-32.56 74.12,-32.56 74.07,-12.44"/>
<text text-anchor="middle" x="127.12" y="-14.3" font-family="Times,serif" font-size="14.00" fill="white">sequence</text>
</g>
<!-- /sequence/last -->
<g id="node5" class="node">
<title>/sequence/last</title>
<polygon fill="black" stroke="black" points="-0.12,-12.44 28.12,0 56.35,-12.44 56.33,-32.56 -0.09,-32.56 -0.12,-12.44"/>
<text text-anchor="middle" x="28.12" y="-14.3" font-family="Times,serif" font-size="14.00" fill="white">last</text>
</g>
<!-- /sequence/compare&#45;&gt;/sequence/sequence -->
<g id="edge5" class="edge">
<title>/sequence/compare:s&#45;&gt;/sequence/sequence:n</title>
<path fill="none" stroke="black" d="M127.12,-144C127.12,-98.64 127.12,-84.85 127.12,-44.05"/>
<polygon fill="black" stroke="black" points="130.62,-44 127.12,-34 123.62,-44 130.62,-44"/>
<text text-anchor="middle" x="105.12" y="-92.79" font-family="Times,serif" font-size="14.00">right&#45;lte</text>
</g>
<!-- /sequence/compare&#45;&gt;/sequence/last -->
<g id="edge9" class="edge">
<title>/sequence/compare:s&#45;&gt;/sequence/last:n</title>
<path fill="none" stroke="black" d="M127.12,-144C127.12,-81.82 38.65,-97.68 28.97,-44.04"/>
<polygon fill="black" stroke="black" points="32.46,-43.67 28.12,-34 25.48,-44.26 32.46,-43.67"/>
<text text-anchor="middle" x="54.34" y="-92.9" font-family="Times,serif" font-size="14.00">right&#45;gte</text>
</g>
<!-- /sequence/compare&#45;&gt;/sequence/compare -->
<g id="edge6" class="edge">
<title>/sequence/compare:s&#45;&gt;/sequence/compare:ne</title>
<path fill="none" stroke="black" d="M127.12,-143.87C160.22,-123.87 226.44,-123.87 226.44,-170.37 226.44,-212.69 193.12,-216.49 162.18,-201.76"/>
<polygon fill="black" stroke="black" points="163.58,-198.54 153.12,-196.87 160.26,-204.7 163.58,-198.54"/>
<text text-anchor="middle" x="110.17" y="-132.64" font-family="Times,serif" font-size="14.00">left&#45;gt</text>
<text text-anchor="middle" x="143.62" y="-200.67" font-family="Times,serif" font-size="14.00">left</text>
</g>
<!-- /sequence/compare&#45;&gt;/sequence/add -->
<g id="edge7" class="edge">
<title>/sequence/compare:sw&#45;&gt;/sequence/add:ne</title>
<path fill="none" stroke="black" d="M101.12,-144C72.47,-115.35 194.51,-132.96 201.18,-115.15"/>
<polygon fill="black" stroke="black" points="204.37,-113.72 197.12,-106 197.98,-116.56 204.37,-113.72"/>
<text text-anchor="middle" x="118.89" y="-114.31" font-family="Times,serif" font-size="14.00">right&#45;lt</text>
<text text-anchor="middle" x="191.62" y="-109.8" font-family="Times,serif" font-size="14.00">i1</text>
</g>
<!-- /sequence/add&#45;&gt;/sequence/compare -->
<g id="edge8" class="edge">
<title>/sequence/add:sw&#45;&gt;/sequence/compare:ne</title>
<path fill="none" stroke="black" d="M167.12,-74C163.33,-70.22 158.74,-71.06 155.12,-75 145.19,-85.79 148.24,-95.05 155.12,-108 168.54,-133.25 195.02,-118.75 208.44,-144 219.46,-164.75 224.9,-180.11 208.44,-196.87 193.76,-211.81 176.57,-214.64 161.06,-204.41"/>
<polygon fill="black" stroke="black" points="163.06,-201.53 153.12,-197.87 158.61,-206.93 163.06,-201.53"/>
<text text-anchor="middle" x="156.09" y="-125" font-family="Times,serif" font-size="14.00">sum</text>
<text text-anchor="middle" x="166.12" y="-201.67" font-family="Times,serif" font-size="14.00">right</text>
</g>
<!-- /sequence/add&#45;&gt;/sequence/add -->
<g id="edge4" class="edge">
<title>/sequence/add:e&#45;&gt;/sequence/add:w</title>
<path fill="none" stroke="black" d="M209.12,-90C227.12,-108 227.12,-144 182.12,-144 143.09,-144 137.91,-116.93 148.96,-98"/>
<polygon fill="black" stroke="black" points="151.79,-100.06 155.12,-90 146.24,-95.79 151.79,-100.06"/>
<text text-anchor="middle" x="214.62" y="-93.81" font-family="Times,serif" font-size="14.00">i2</text>
<text text-anchor="middle" x="149.62" y="-78.8" font-family="Times,serif" font-size="14.00">i2</text>
</g>
</g>
</svg>
