<?xml version="1.0" encoding="UTF-8" standalone="no"?>
<!DOCTYPE svg PUBLIC "-//W3C//DTD SVG 1.1//EN"
 "http://www.w3.org/Graphics/SVG/1.1/DTD/svg11.dtd">
<!-- Generated by graphviz version 2.40.1 (0)
 -->
<!-- Title: sequence Pages: 1 -->
<svg width="402pt" height="376pt"
 viewBox="28.80 28.80 373.10 347.28" xmlns="http://www.w3.org/2000/svg" xmlns:xlink="http://www.w3.org/1999/xlink">
<g id="graph0" class="graph" transform="scale(1 1) rotate(0) translate(32.8 343.2802)">
<title>sequence</title>
<polygon fill="#ffffff" stroke="transparent" points="-4,4 -4,-314.4802 340.3036,-314.4802 340.3036,4 -4,4"/>
<text text-anchor="middle" x="168.1518" y="-295.2802" font-family="Times,serif" font-size="14.00" fill="#000000">sequence</text>
<!-- /sequence/start -->
<g id="node1" class="node">
<title>/sequence/start</title>
<polygon fill="#ffffff" stroke="#000000" points="231.4891,-275.0425 190.545,-287.4802 149.601,-275.0425 149.6392,-254.9179 231.4509,-254.9179 231.4891,-275.0425"/>
<text text-anchor="middle" x="190.545" y="-265.7802" font-family="Times,serif" font-size="14.00" fill="#000000">start</text>
</g>
<!-- /sequence/compare -->
<g id="node6" class="node">
<title>/sequence/compare</title>
<g id="a_node6"><a xlink:href="../../flowstdlib/control/compare_switch/compare_switch.toml" xlink:title="compare\n(CompareSwitch)">
<ellipse fill="#ff7f50" stroke="#000000" cx="153.545" cy="-188.6102" rx="98.9899" ry="26.7407"/>
<text text-anchor="middle" x="153.545" y="-192.4102" font-family="Times,serif" font-size="14.00" fill="#000000">compare</text>
<text text-anchor="middle" x="153.545" y="-177.4102" font-family="Times,serif" font-size="14.00" fill="#000000">(CompareSwitch)</text>
</a>
</g>
</g>
<!-- /sequence/start&#45;&gt;/sequence/compare -->
<g id="edge1" class="edge">
<title>/sequence/start:s&#45;&gt;/sequence/compare:ne</title>
<path fill="none" stroke="#000000" d="M190.545,-254.4802C190.545,-239.9756 191.7891,-231.6301 185.9281,-222.3689"/>
<polygon fill="#000000" stroke="#000000" points="188.6012,-220.109 179.545,-214.6102 183.1955,-224.5563 188.6012,-220.109"/>
<text text-anchor="middle" x="161.545" y="-218.4102" font-family="Times,serif" font-size="14.00" fill="#000000">right</text>
</g>
<!-- /sequence/end -->
<g id="node2" class="node">
<title>/sequence/end</title>
<polygon fill="#ffffff" stroke="#000000" points="131.1352,-275.0425 96.545,-287.4802 61.9549,-275.0425 61.9872,-254.9179 131.1029,-254.9179 131.1352,-275.0425"/>
<text text-anchor="middle" x="96.545" y="-265.7802" font-family="Times,serif" font-size="14.00" fill="#000000">end</text>
</g>
<!-- /sequence/end&#45;&gt;/sequence/compare -->
<g id="edge2" class="edge">
<title>/sequence/end:s&#45;&gt;/sequence/compare:ne</title>
<path fill="none" stroke="#000000" d="M96.545,-254.4802C96.545,-219.311 179.2139,-236.5151 184.0986,-223.6833"/>
<polygon fill="#000000" stroke="#000000" points="187.1588,-221.9778 179.545,-214.6102 180.9025,-225.1177 187.1588,-221.9778"/>
<text text-anchor="middle" x="192.045" y="-218.4102" font-family="Times,serif" font-size="14.00" fill="#000000">left</text>
</g>
<!-- /sequence/step -->
<g id="node3" class="node">
<title>/sequence/step</title>
<polygon fill="#ffffff" stroke="#000000" points="336.0636,-275.0425 298.545,-287.4802 261.0264,-275.0425 261.0615,-254.9179 336.0286,-254.9179 336.0636,-275.0425"/>
<text text-anchor="middle" x="298.545" y="-265.7802" font-family="Times,serif" font-size="14.00" fill="#000000">step</text>
</g>
<!-- /sequence/add -->
<g id="node7" class="node">
<title>/sequence/add</title>
<g id="a_node7"><a xlink:href="../../flowstdlib/math/add/add.toml" xlink:title="add\n(Add)">
<ellipse fill="#ff7f50" stroke="#000000" cx="220.545" cy="-98.8701" rx="38.7821" ry="26.7407"/>
<text text-anchor="middle" x="220.545" y="-102.6701" font-family="Times,serif" font-size="14.00" fill="#000000">add</text>
<text text-anchor="middle" x="220.545" y="-87.6701" font-family="Times,serif" font-size="14.00" fill="#000000">(Add)</text>
</a>
</g>
</g>
<!-- /sequence/step&#45;&gt;/sequence/add -->
<g id="edge3" class="edge">
<title>/sequence/step:s&#45;&gt;/sequence/add:w</title>
<path fill="none" stroke="#000000" d="M298.545,-254.4802C298.545,-212.4063 306.9835,-193.636 279.545,-161.7401 249.2845,-126.5636 208.1031,-163.7895 181.545,-125.7401 177.5934,-120.0787 174.2194,-111.9826 174.3835,-106.159"/>
<polygon fill="#000000" stroke="#000000" points="177.0332,-108.4562 181.545,-98.8701 172.04,-103.5503 177.0332,-108.4562"/>
<text text-anchor="middle" x="174.545" y="-102.6701" font-family="Times,serif" font-size="14.00" fill="#000000">i2</text>
</g>
<!-- /sequence/sequence -->
<g id="node4" class="node">
<title>/sequence/sequence</title>
<polygon fill="#000000" stroke="#000000" points="86.6846,-12.4377 153.545,0 220.4054,-12.4377 220.343,-32.5623 86.7471,-32.5623 86.6846,-12.4377"/>
<text text-anchor="middle" x="153.545" y="-14.3" font-family="Times,serif" font-size="14.00" fill="#ffffff">sequence</text>
</g>
<!-- /sequence/last -->
<g id="node5" class="node">
<title>/sequence/last</title>
<polygon fill="#000000" stroke="#000000" points="-.0451,-12.4377 34.545,0 69.1352,-12.4377 69.1029,-32.5623 -.0128,-32.5623 -.0451,-12.4377"/>
<text text-anchor="middle" x="34.545" y="-14.3" font-family="Times,serif" font-size="14.00" fill="#ffffff">last</text>
</g>
<!-- /sequence/compare&#45;&gt;/sequence/sequence -->
<g id="edge5" class="edge">
<title>/sequence/compare:s&#45;&gt;/sequence/sequence:n</title>
<path fill="none" stroke="#000000" d="M153.545,-161.7401C153.545,-108.0984 153.545,-92.1735 153.545,-43.2464"/>
<polygon fill="#000000" stroke="#000000" points="157.0451,-43 153.545,-33 150.0451,-43 157.0451,-43"/>
<text text-anchor="middle" x="124.045" y="-100.9867" font-family="Times,serif" font-size="14.00" fill="#000000">right&#45;lte</text>
</g>
<!-- /sequence/compare&#45;&gt;/sequence/last -->
<g id="edge9" class="edge">
<title>/sequence/compare:s&#45;&gt;/sequence/last:n</title>
<path fill="none" stroke="#000000" d="M153.545,-161.7401C153.545,-87.4751 45.4398,-108.608 35.3049,-43.2865"/>
<polygon fill="#000000" stroke="#000000" points="38.7723,-42.7149 34.545,-33 31.7914,-43.2307 38.7723,-42.7149"/>
<text text-anchor="middle" x="61.9089" y="-101.1119" font-family="Times,serif" font-size="14.00" fill="#000000">right&#45;gte</text>
</g>
<!-- /sequence/compare&#45;&gt;/sequence/compare -->
<g id="edge6" class="edge">
<title>/sequence/compare:s&#45;&gt;/sequence/compare:ne</title>
<path fill="none" stroke="#000000" d="M153.545,-161.6102C192.5434,-141.6102 270.54,-141.6102 270.54,-188.1102 270.54,-230.9774 226.3505,-234.3264 188.8923,-218.9188"/>
<polygon fill="#000000" stroke="#000000" points="190.0918,-215.6179 179.545,-214.6102 187.1615,-221.975 190.0918,-215.6179"/>
<text text-anchor="middle" x="131.774" y="-150.2932" font-family="Times,serif" font-size="14.00" fill="#000000">left&#45;gt</text>
<text text-anchor="middle" x="167.045" y="-203.4102" font-family="Times,serif" font-size="14.00" fill="#000000">left</text>
</g>
<!-- /sequence/compare&#45;&gt;/sequence/add -->
<g id="edge7" class="edge">
<title>/sequence/compare:sw&#45;&gt;/sequence/add:ne</title>
<path fill="none" stroke="#000000" d="M127.545,-162.6102C92.5514,-127.6165 248.371,-153.5951 247.6641,-129.5574"/>
<polygon fill="#000000" stroke="#000000" points="250.6373,-127.7087 242.545,-120.8701 244.6064,-131.2624 250.6373,-127.7087"/>
<text text-anchor="middle" x="149.2344" y="-130.7756" font-family="Times,serif" font-size="14.00" fill="#000000">right&#45;lt</text>
<text text-anchor="middle" x="235.545" y="-124.6701" font-family="Times,serif" font-size="14.00" fill="#000000">i1</text>
</g>
<!-- /sequence/add&#45;&gt;/sequence/compare -->
<g id="edge8" class="edge">
<title>/sequence/add:sw&#45;&gt;/sequence/compare:ne</title>
<path fill="none" stroke="#000000" d="M198.545,-76.8701C198.545,-76.8701 181.6542,-125.7401 181.6542,-125.7401 200.1365,-155.8558 234.0576,-131.6244 252.54,-161.7401 264.8308,-181.7672 269.1554,-197.9947 252.54,-214.6102 232.109,-235.0412 208.3665,-237.2758 187.2112,-221.3141"/>
<polygon fill="#000000" stroke="#000000" points="189.3767,-218.5584 179.545,-214.6102 184.7687,-223.8278 189.3767,-218.5584"/>
<text text-anchor="middle" x="209.2474" y="-141.6221" font-family="Times,serif" font-size="14.00" fill="#000000">sum</text>
<text text-anchor="middle" x="197.545" y="-218.4102" font-family="Times,serif" font-size="14.00" fill="#000000">right</text>
</g>
<!-- /sequence/add&#45;&gt;/sequence/add -->
<g id="edge4" class="edge">
<title>/sequence/add:e&#45;&gt;/sequence/add:w</title>
<path fill="none" stroke="#000000" d="M259.545,-98.8701C277.4359,-121.1601 277.4359,-165.7401 220.545,-165.7401 170.3211,-165.7401 164.4354,-130.9963 176.0551,-107.5171"/>
<polygon fill="#000000" stroke="#000000" points="179.1399,-109.1883 181.545,-98.8701 173.2303,-105.4363 179.1399,-109.1883"/>
<text text-anchor="middle" x="266.5483" y="-102.6741" font-family="Times,serif" font-size="14.00" fill="#000000">i2</text>
<text text-anchor="middle" x="174.545" y="-87.6701" font-family="Times,serif" font-size="14.00" fill="#000000">i2</text>
</g>
</g>
</svg>
