<?xml version="1.0" encoding="UTF-8" standalone="no"?>
<!DOCTYPE svg PUBLIC "-//W3C//DTD SVG 1.1//EN"
 "http://www.w3.org/Graphics/SVG/1.1/DTD/svg11.dtd">
<!-- Generated by graphviz version 2.44.0 (20200408.0750)
 -->
<!-- Title: sequence Pages: 1 -->
<svg width="349pt" height="376pt"
 viewBox="28.80 28.80 320.45 347.28" xmlns="http://www.w3.org/2000/svg" xmlns:xlink="http://www.w3.org/1999/xlink">
<g id="graph0" class="graph" transform="scale(1 1) rotate(0) translate(32.8 343.28)">
<title>sequence</title>
<polygon fill="white" stroke="transparent" points="-4,4 -4,-314.48 287.65,-314.48 287.65,4 -4,4"/>
<text text-anchor="middle" x="141.82" y="-295.28" font-family="Times,serif" font-size="14.00">sequence</text>
<!-- /sequence/start -->
<g id="node1" class="node">
<title>/sequence/start</title>
<polygon fill="white" stroke="black" points="195.39,-275.04 163.12,-287.48 130.85,-275.04 130.88,-254.92 195.36,-254.92 195.39,-275.04"/>
<text text-anchor="middle" x="163.12" y="-265.78" font-family="Times,serif" font-size="14.00">start</text>
</g>
<!-- /sequence/compare -->
<g id="node6" class="node">
<title>/sequence/compare</title>
<g id="a_node6"><a xlink:href="../../flowstdlib/control/compare_switch/compare_switch.toml" xlink:title="compare\n(CompareSwitch)">
<ellipse fill="coral" stroke="black" cx="127.12" cy="-188.61" rx="79.81" ry="26.74"/>
<text text-anchor="middle" x="127.12" y="-192.41" font-family="Times,serif" font-size="14.00">compare</text>
<text text-anchor="middle" x="127.12" y="-177.41" font-family="Times,serif" font-size="14.00">(CompareSwitch)</text>
</a>
</g>
</g>
<!-- /sequence/start&#45;&gt;/sequence/compare -->
<g id="edge1" class="edge">
<title>/sequence/start:s&#45;&gt;/sequence/compare:ne</title>
<path fill="none" stroke="black" d="M163.12,-253.48C163.12,-239.97 164.52,-232.02 159.45,-223.39"/>
<polygon fill="black" stroke="black" points="162.1,-221.1 153.12,-215.48 156.63,-225.48 162.1,-221.1"/>
<text text-anchor="middle" x="140.12" y="-219.28" font-family="Times,serif" font-size="14.00">right</text>
</g>
<!-- /sequence/end -->
<g id="node2" class="node">
<title>/sequence/end</title>
<polygon fill="white" stroke="black" points="112.96,-275.04 84.12,-287.48 55.27,-275.04 55.3,-254.92 112.93,-254.92 112.96,-275.04"/>
<text text-anchor="middle" x="84.12" y="-265.78" font-family="Times,serif" font-size="14.00">end</text>
</g>
<!-- /sequence/end&#45;&gt;/sequence/compare -->
<g id="edge2" class="edge">
<title>/sequence/end:s&#45;&gt;/sequence/compare:ne</title>
<path fill="none" stroke="black" d="M84.12,-253.48C84.12,-225.03 146.01,-234.07 155.94,-225.18"/>
<polygon fill="black" stroke="black" points="159.27,-224.1 153.12,-215.48 152.55,-226.06 159.27,-224.1"/>
<text text-anchor="middle" x="162.62" y="-219.28" font-family="Times,serif" font-size="14.00">left</text>
</g>
<!-- /sequence/step -->
<g id="node3" class="node">
<title>/sequence/step</title>
<polygon fill="white" stroke="black" points="283.67,-275.04 253.12,-287.48 222.56,-275.04 222.59,-254.92 283.65,-254.92 283.67,-275.04"/>
<text text-anchor="middle" x="253.12" y="-265.78" font-family="Times,serif" font-size="14.00">step</text>
</g>
<!-- /sequence/add -->
<g id="node7" class="node">
<title>/sequence/add</title>
<g id="a_node7"><a xlink:href="../../flowstdlib/math/add/add.toml" xlink:title="add\n(Add)">
<ellipse fill="coral" stroke="black" cx="190.12" cy="-98.87" rx="34.8" ry="26.74"/>
<text text-anchor="middle" x="190.12" y="-102.67" font-family="Times,serif" font-size="14.00">add</text>
<text text-anchor="middle" x="190.12" y="-87.67" font-family="Times,serif" font-size="14.00">(Add)</text>
</a>
</g>
</g>
<!-- /sequence/step&#45;&gt;/sequence/add -->
<g id="edge3" class="edge">
<title>/sequence/step:s&#45;&gt;/sequence/add:w</title>
<path fill="none" stroke="black" d="M253.12,-253.48C253.12,-211.84 260.1,-194.28 234.12,-161.74 210.05,-131.59 176.59,-157.8 155.12,-125.74 151.38,-120.16 147.75,-112.35 147.41,-106.59"/>
<polygon fill="black" stroke="black" points="150.21,-108.72 154.12,-98.87 144.92,-104.13 150.21,-108.72"/>
<text text-anchor="middle" x="148.62" y="-102.67" font-family="Times,serif" font-size="14.00">i2</text>
</g>
<!-- /sequence/sequence -->
<g id="node4" class="node">
<title>/sequence/sequence</title>
<polygon fill="black" stroke="black" points="74.07,-12.44 127.12,0 180.16,-12.44 180.11,-32.56 74.12,-32.56 74.07,-12.44"/>
<text text-anchor="middle" x="127.12" y="-14.3" font-family="Times,serif" font-size="14.00" fill="white">sequence</text>
</g>
<!-- /sequence/last -->
<g id="node5" class="node">
<title>/sequence/last</title>
<polygon fill="black" stroke="black" points="-0.12,-12.44 28.12,0 56.35,-12.44 56.33,-32.56 -0.09,-32.56 -0.12,-12.44"/>
<text text-anchor="middle" x="28.12" y="-14.3" font-family="Times,serif" font-size="14.00" fill="white">last</text>
</g>
<!-- /sequence/compare&#45;&gt;/sequence/sequence -->
<g id="edge5" class="edge">
<title>/sequence/compare:s&#45;&gt;/sequence/sequence:n</title>
<path fill="none" stroke="black" d="M127.12,-161.74C127.12,-108.52 127.12,-92.71 127.12,-44.17"/>
<polygon fill="black" stroke="black" points="130.62,-44 127.12,-34 123.62,-44 130.62,-44"/>
<text text-anchor="middle" x="105.12" y="-101.49" font-family="Times,serif" font-size="14.00">right&#45;lte</text>
</g>
<!-- /sequence/compare&#45;&gt;/sequence/last -->
<g id="edge9" class="edge">
<title>/sequence/compare:s&#45;&gt;/sequence/last:n</title>
<path fill="none" stroke="black" d="M127.12,-161.74C127.12,-93.56 37.92,-104.44 28.86,-44.29"/>
<polygon fill="black" stroke="black" points="32.33,-43.72 28.12,-34 25.34,-44.23 32.33,-43.72"/>
<text text-anchor="middle" x="54.03" y="-101.62" font-family="Times,serif" font-size="14.00">right&#45;gte</text>
</g>
<!-- /sequence/compare&#45;&gt;/sequence/compare -->
<g id="edge6" class="edge">
<title>/sequence/compare:s&#45;&gt;/sequence/compare:ne</title>
<path fill="none" stroke="black" d="M127.12,-161.61C159.75,-141.61 225.02,-141.61 225.02,-188.11 225.02,-230.43 192.49,-234.23 162.04,-219.5"/>
<polygon fill="black" stroke="black" points="163.57,-216.34 153.12,-214.61 160.21,-222.48 163.57,-216.34"/>
<text text-anchor="middle" x="110.17" y="-150.38" font-family="Times,serif" font-size="14.00">left&#45;gt</text>
<text text-anchor="middle" x="143.62" y="-218.41" font-family="Times,serif" font-size="14.00">left</text>
</g>
<!-- /sequence/compare&#45;&gt;/sequence/add -->
<g id="edge7" class="edge">
<title>/sequence/compare:sw&#45;&gt;/sequence/add:ne</title>
<path fill="none" stroke="black" d="M101.12,-161.74C67.84,-128.46 214.21,-151.99 216.02,-129.81"/>
<polygon fill="black" stroke="black" points="219,-127.95 211.12,-120.87 212.86,-131.32 219,-127.95"/>
<text text-anchor="middle" x="126.4" y="-130.41" font-family="Times,serif" font-size="14.00">right&#45;lt</text>
<text text-anchor="middle" x="205.62" y="-124.67" font-family="Times,serif" font-size="14.00">i1</text>
</g>
<!-- /sequence/add&#45;&gt;/sequence/compare -->
<g id="edge8" class="edge">
<title>/sequence/add:sw&#45;&gt;/sequence/compare:ne</title>
<path fill="none" stroke="black" d="M169.12,-76.87C164.82,-72.57 159.61,-73.41 155.47,-77.87 140.99,-93.45 145.63,-106.87 155.47,-125.74 168.39,-150.52 194.1,-136.96 207.02,-161.74 217.88,-182.58 223.48,-197.84 207.02,-214.61 192.73,-229.17 175.98,-231.94 160.85,-221.98"/>
<polygon fill="black" stroke="black" points="163.06,-219.27 153.12,-215.61 158.61,-224.67 163.06,-219.27"/>
<text text-anchor="middle" x="179.26" y="-142.2" font-family="Times,serif" font-size="14.00">sum</text>
<text text-anchor="middle" x="166.12" y="-219.41" font-family="Times,serif" font-size="14.00">right</text>
</g>
<!-- /sequence/add&#45;&gt;/sequence/add -->
<g id="edge4" class="edge">
<title>/sequence/add:e&#45;&gt;/sequence/add:w</title>
<path fill="none" stroke="black" d="M225.12,-98.87C242.77,-121.16 242.77,-165.74 190.12,-165.74 143.64,-165.74 138.19,-131 149.7,-107.52"/>
<polygon fill="black" stroke="black" points="152.77,-109.2 155.12,-98.87 146.84,-105.48 152.77,-109.2"/>
<text text-anchor="middle" x="230.62" y="-102.68" font-family="Times,serif" font-size="14.00">i2</text>
<text text-anchor="middle" x="149.62" y="-87.67" font-family="Times,serif" font-size="14.00">i2</text>
</g>
</g>
</svg>
