<?xml version="1.0" encoding="UTF-8" standalone="no"?>
<!DOCTYPE svg PUBLIC "-//W3C//DTD SVG 1.1//EN"
 "http://www.w3.org/Graphics/SVG/1.1/DTD/svg11.dtd">
<!-- Generated by graphviz version 2.40.1 (0)
 -->
<!-- Title: range Pages: 1 -->
<svg width="605pt" height="610pt"
 viewBox="28.80 28.80 576.32 580.76" xmlns="http://www.w3.org/2000/svg" xmlns:xlink="http://www.w3.org/1999/xlink">
<g id="graph0" class="graph" transform="scale(1 1) rotate(0) translate(32.8 576.7605)">
<title>range</title>
<polygon fill="#ffffff" stroke="transparent" points="-4,4 -4,-547.9605 543.5165,-547.9605 543.5165,4 -4,4"/>
<text text-anchor="middle" x="269.7582" y="-528.7605" font-family="Times,serif" font-size="14.00" fill="#000000">range</text>
<!-- /range/args -->
<g id="node1" class="node">
<title>/range/args</title>
<g id="a_node1"><a xlink:href="../../flowruntime/args/get.toml" xlink:title="args\n(Get)">
<ellipse fill="#ff7f50" stroke="#000000" cx="37.4767" cy="-494.0904" rx="37.4533" ry="26.7407"/>
<text text-anchor="middle" x="37.4767" y="-497.8904" font-family="Times,serif" font-size="14.00" fill="#000000">args</text>
<text text-anchor="middle" x="37.4767" y="-482.8904" font-family="Times,serif" font-size="14.00" fill="#000000">(Get)</text>
</a>
</g>
</g>
<!-- /range/to_number -->
<g id="node2" class="node">
<title>/range/to_number</title>
<g id="a_node2"><a xlink:href="../../flowstdlib/fmt/to_number/to_number.toml" xlink:title="to_number\n(ToNumber)">
<ellipse fill="#ff7f50" stroke="#000000" cx="147.4767" cy="-403.3503" rx="72.25" ry="26.7407"/>
<text text-anchor="middle" x="147.4767" y="-407.1503" font-family="Times,serif" font-size="14.00" fill="#000000">to_number</text>
<text text-anchor="middle" x="147.4767" y="-392.1503" font-family="Times,serif" font-size="14.00" fill="#000000">(ToNumber)</text>
</a>
</g>
</g>
<!-- /range/args&#45;&gt;/range/to_number -->
<g id="edge2" class="edge">
<title>/range/args:e&#45;&gt;/range/to_number:w</title>
<path fill="none" stroke="#000000" d="M75.4767,-494.0904C111.0796,-494.0904 52.3904,-423.3714 65.8936,-406.7966"/>
<polygon fill="#000000" stroke="#000000" points="67.2511,-410.0279 75.4767,-403.3503 64.8822,-403.4409 67.2511,-410.0279"/>
<text text-anchor="middle" x="65.4748" y="-452.5162" font-family="Times,serif" font-size="14.00" fill="#000000">[1]</text>
</g>
<!-- /range/sequence -->
<g id="node3" class="node">
<title>/range/sequence</title>
<g id="a_node3"><a xlink:href="../../flowstdlib/math/sequence.dot.svg" xlink:title="sequence">
<ellipse fill="#7fffd4" stroke="#000000" cx="219.4767" cy="-267.4802" rx="72" ry="72"/>
<text text-anchor="middle" x="219.4767" y="-263.7802" font-family="Times,serif" font-size="14.00" fill="#000000">sequence</text>
</a>
</g>
</g>
<!-- /range/to_number&#45;&gt;/range/sequence -->
<g id="edge3" class="edge">
<title>/range/to_number:e&#45;&gt;/range/sequence:n</title>
<path fill="none" stroke="#000000" d="M219.4767,-403.3503C244.5368,-403.3503 225.3501,-375.696 220.5091,-349.6838"/>
<polygon fill="#000000" stroke="#000000" points="223.9657,-349.0771 219.4767,-339.4802 217.0012,-349.7818 223.9657,-349.0771"/>
<text text-anchor="middle" x="205.9767" y="-343.2802" font-family="Times,serif" font-size="14.00" fill="#000000">end</text>
</g>
<!-- /range/join -->
<g id="node4" class="node">
<title>/range/join</title>
<g id="a_node4"><a xlink:href="../../flowstdlib/control/join/join.toml" xlink:title="join\n(Join)">
<ellipse fill="#ff7f50" stroke="#000000" cx="285.4767" cy="-117.6102" rx="38.3684" ry="26.7407"/>
<text text-anchor="middle" x="285.4767" y="-121.4102" font-family="Times,serif" font-size="14.00" fill="#000000">join</text>
<text text-anchor="middle" x="285.4767" y="-106.4102" font-family="Times,serif" font-size="14.00" fill="#000000">(Join)</text>
</a>
</g>
</g>
<!-- /range/sequence&#45;&gt;/range/join -->
<g id="edge5" class="edge">
<title>/range/sequence:s&#45;&gt;/range/join:nw</title>
<path fill="none" stroke="#000000" d="M219.4767,-195.4802C219.4767,-195.1021 245.064,-162.7577 257.2147,-147.4603"/>
<polygon fill="#000000" stroke="#000000" points="259.9768,-149.6103 263.4767,-139.6102 254.5046,-145.2451 259.9768,-149.6103"/>
<text text-anchor="middle" x="227.8096" y="-171.3366" font-family="Times,serif" font-size="14.00" fill="#000000">last</text>
<text text-anchor="middle" x="237.9767" y="-143.4102" font-family="Times,serif" font-size="14.00" fill="#000000">control</text>
</g>
<!-- /range/print -->
<g id="node6" class="node">
<title>/range/print</title>
<g id="a_node6"><a xlink:href="../../flowruntime/stdio/stdout.toml" xlink:title="print\n(Stdout)">
<ellipse fill="#ff7f50" stroke="#000000" cx="304.4767" cy="-26.8701" rx="53.066" ry="26.7407"/>
<text text-anchor="middle" x="304.4767" y="-30.6701" font-family="Times,serif" font-size="14.00" fill="#000000">print</text>
<text text-anchor="middle" x="304.4767" y="-15.6701" font-family="Times,serif" font-size="14.00" fill="#000000">(Stdout)</text>
</a>
</g>
</g>
<!-- /range/sequence&#45;&gt;/range/print -->
<g id="edge4" class="edge">
<title>/range/sequence:s&#45;&gt;/range/print:w</title>
<path fill="none" stroke="#000000" d="M219.4767,-195.4802C219.4767,-122.9291 179.4194,-35.8488 241.1465,-27.5179"/>
<polygon fill="#000000" stroke="#000000" points="241.7154,-30.9892 251.4767,-26.8701 241.2772,-24.0029 241.7154,-30.9892"/>
<text text-anchor="middle" x="173.6635" y="-91.2107" font-family="Times,serif" font-size="14.00" fill="#000000">sequence</text>
</g>
<!-- /range/join&#45;&gt;/range/print -->
<g id="edge6" class="edge">
<title>/range/join:e&#45;&gt;/range/print:w</title>
<path fill="none" stroke="#000000" d="M324.4767,-117.6102C336.4189,-117.6102 330.7273,-100.9159 324.4767,-90.7401 305.4384,-59.7465 270.5149,-84.7337 251.4767,-53.7401 247.863,-47.8572 244.4362,-39.7957 244.4955,-34.0408"/>
<polygon fill="#000000" stroke="#000000" points="247.0088,-36.4768 251.4767,-26.8701 241.9931,-31.5937 247.0088,-36.4768"/>
</g>
<!-- initializer/range/join_0 -->
<!-- initializer/range/join_0&#45;&gt;/range/join -->
<g id="edge1" class="edge">
<title>initializer/range/join_0&#45;&gt;/range/join:nw</title>
<path fill="none" stroke="#0000ff" stroke-dasharray="1,5" d="M391.4106,-250.2289C343.995,-224.5802 262.1006,-176.4966 259.8815,-149.2554"/>
<polygon fill="#0000ff" stroke="#0000ff" points="263.2635,-150.2029 263.4767,-139.6102 256.7044,-147.758 263.2635,-150.2029"/>
<text text-anchor="middle" x="325.4767" y="-166.2802" font-family="Times,serif" font-size="14.00" fill="#000000">&quot;Range done&quot;</text>
</g>
</g>
</svg>
