<?xml version="1.0" encoding="UTF-8" standalone="no"?>
<!DOCTYPE svg PUBLIC "-//W3C//DTD SVG 1.1//EN"
 "http://www.w3.org/Graphics/SVG/1.1/DTD/svg11.dtd">
<!-- Generated by graphviz version 2.44.1 (20200629.0846)
 -->
<!-- Title: range Pages: 1 -->
<svg width="410pt" height="466pt"
 viewBox="28.80 28.80 380.79 436.80" xmlns="http://www.w3.org/2000/svg" xmlns:xlink="http://www.w3.org/1999/xlink">
<g id="graph0" class="graph" transform="scale(1 1) rotate(0) translate(32.8 432.8)">
<title>range</title>
<polygon fill="white" stroke="transparent" points="-4,4 -4,-404 347.99,-404 347.99,4 -4,4"/>
<text text-anchor="middle" x="172" y="-384.8" font-family="Times,serif" font-size="14.00">range</text>
<!-- /range/get -->
<g id="node1" class="node">
<title>/range/get</title>
<g id="a_node1"><a xlink:href="../../flowr/src/lib/flowruntime/args/get.html" xlink:title="get">
<ellipse fill="coral" stroke="black" cx="45" cy="-359" rx="27" ry="18"/>
<text text-anchor="middle" x="45" y="-355.3" font-family="Times,serif" font-size="14.00">get</text>
</a>
</g>
</g>
<!-- /range/sequence -->
<g id="node2" class="node">
<title>/range/sequence</title>
<g id="a_node2"><a xlink:href="lib://flowstdlib/math/sequence.dot.svg" xlink:title="sequence">
<ellipse fill="aquamarine" stroke="black" cx="72" cy="-232" rx="72" ry="72"/>
<text text-anchor="middle" x="72" y="-228.3" font-family="Times,serif" font-size="14.00">sequence</text>
</a>
</g>
</g>
<!-- /range/get&#45;&gt;/range/sequence -->
<g id="edge2" class="edge">
<title>/range/get:e&#45;&gt;/range/sequence:n</title>
<path fill="none" stroke="black" d="M73,-359C94.2,-359 77.88,-336.02 73.17,-313.98"/>
<polygon fill="black" stroke="black" points="76.64,-313.52 72,-304 69.69,-314.34 76.64,-313.52"/>
<text text-anchor="middle" x="97.66" y="-334.24" font-family="Times,serif" font-size="14.00">json[1]</text>
<text text-anchor="middle" x="62" y="-307.8" font-family="Times,serif" font-size="14.00">end</text>
</g>
<!-- /range/join -->
<g id="node3" class="node">
<title>/range/join</title>
<g id="a_node3"><a xlink:href="../../flowstdlib/control/join/join.html" xlink:title="join">
<ellipse fill="coral" stroke="black" cx="127" cy="-91" rx="27" ry="18"/>
<text text-anchor="middle" x="127" y="-87.3" font-family="Times,serif" font-size="14.00">join</text>
</a>
</g>
</g>
<!-- /range/sequence&#45;&gt;/range/join -->
<g id="edge4" class="edge">
<title>/range/sequence:s&#45;&gt;/range/join:nw</title>
<path fill="none" stroke="black" d="M72,-160C72,-149.87 79.87,-150.07 86,-142 95.34,-129.71 97.61,-123.48 105.07,-114.53"/>
<polygon fill="black" stroke="black" points="107.8,-116.73 112,-107 102.65,-111.99 107.8,-116.73"/>
<text text-anchor="middle" x="82.68" y="-137.12" font-family="Times,serif" font-size="14.00">last</text>
<text text-anchor="middle" x="92.5" y="-110.8" font-family="Times,serif" font-size="14.00">control</text>
</g>
<!-- /range/stdout -->
<g id="node5" class="node">
<title>/range/stdout</title>
<g id="a_node5"><a xlink:href="../../flowr/src/lib/flowruntime/stdio/stdout.html" xlink:title="stdout">
<ellipse fill="coral" stroke="black" cx="117" cy="-18" rx="32.49" ry="18"/>
<text text-anchor="middle" x="117" y="-14.3" font-family="Times,serif" font-size="14.00">stdout</text>
</a>
</g>
</g>
<!-- /range/sequence&#45;&gt;/range/stdout -->
<g id="edge3" class="edge">
<title>/range/sequence:s&#45;&gt;/range/stdout:w</title>
<path fill="none" stroke="black" d="M72,-160C72,-100.41 25.65,-27.17 73.03,-18.79"/>
<polygon fill="black" stroke="black" points="73.31,-22.28 83,-18 72.75,-15.3 73.31,-22.28"/>
<text text-anchor="middle" x="29.75" y="-73.98" font-family="Times,serif" font-size="14.00">sequence</text>
</g>
<!-- /range/join&#45;&gt;/range/stdout -->
<g id="edge5" class="edge">
<title>/range/join:e&#45;&gt;/range/stdout:w</title>
<path fill="none" stroke="black" d="M155,-91C163.01,-91 158.32,-79.75 154,-73 135.01,-43.37 102.99,-65.63 84,-36 82.45,-33.58 80.85,-30.57 79.8,-27.71"/>
<polygon fill="black" stroke="black" points="83.2,-28.59 83,-18 76.55,-26.4 83.2,-28.59"/>
</g>
<!-- initializer/range/join_0 -->
<!-- initializer/range/join_0&#45;&gt;/range/join -->
<g id="edge1" class="edge">
<title>initializer/range/join_0&#45;&gt;/range/join:nw</title>
<path fill="none" stroke="blue" stroke-dasharray="1,5" d="M229.9,-214.43C194.47,-188.64 129.22,-139.54 114.17,-117.09"/>
<polygon fill="blue" stroke="blue" points="117.52,-116.04 112,-107 110.68,-117.51 117.52,-116.04"/>
<text text-anchor="middle" x="174.5" y="-130.8" font-family="Times,serif" font-size="14.00">&quot;Range done&quot;</text>
</g>
</g>
</svg>
