<?xml version="1.0" encoding="UTF-8" standalone="no"?>
<!DOCTYPE svg PUBLIC "-//W3C//DTD SVG 1.1//EN"
 "http://www.w3.org/Graphics/SVG/1.1/DTD/svg11.dtd">
<!-- Generated by graphviz version 2.40.1 (20161225.0304)
 -->
<!-- Title: range Pages: 1 -->
<svg width="472pt" height="466pt"
 viewBox="28.80 28.80 443.30 436.80" xmlns="http://www.w3.org/2000/svg" xmlns:xlink="http://www.w3.org/1999/xlink">
<g id="graph0" class="graph" transform="scale(1 1) rotate(0) translate(32.8 432.8)">
<title>range</title>
<polygon fill="#ffffff" stroke="transparent" points="-4,4 -4,-404 410.5011,-404 410.5011,4 -4,4"/>
<text text-anchor="middle" x="203.2505" y="-384.8" font-family="Times,serif" font-size="14.00" fill="#000000">range</text>
<!-- /range/get -->
<g id="node1" class="node">
<title>/range/get</title>
<g id="a_node1"><a xlink:href="../../flowr/src/lib/flowruntime/args/get.html" xlink:title="get">
<ellipse fill="#ff7f50" stroke="#000000" cx="57.8113" cy="-359" rx="27" ry="18"/>
<text text-anchor="middle" x="57.8113" y="-355.3" font-family="Times,serif" font-size="14.00" fill="#000000">get</text>
</a>
</g>
</g>
<!-- /range/sequence -->
<g id="node2" class="node">
<title>/range/sequence</title>
<g id="a_node2"><a xlink:href="lib://flowstdlib/math/sequence.dot.svg" xlink:title="sequence">
<ellipse fill="#7fffd4" stroke="#000000" cx="84.8113" cy="-232" rx="72" ry="72"/>
<text text-anchor="middle" x="84.8113" y="-228.3" font-family="Times,serif" font-size="14.00" fill="#000000">sequence</text>
</a>
</g>
</g>
<!-- /range/get&#45;&gt;/range/sequence -->
<g id="edge2" class="edge">
<title>/range/get:e&#45;&gt;/range/sequence:n</title>
<path fill="none" stroke="#000000" d="M84.8113,-359C106.0092,-359 90.442,-336.0218 85.9331,-313.9771"/>
<polygon fill="#000000" stroke="#000000" points="89.4068,-313.5463 84.8113,-304 82.4506,-314.3285 89.4068,-313.5463"/>
<text text-anchor="middle" x="115.1823" y="-334.2351" font-family="Times,serif" font-size="14.00" fill="#000000">json[1]</text>
<text text-anchor="middle" x="71.3113" y="-307.8" font-family="Times,serif" font-size="14.00" fill="#000000">end</text>
</g>
<!-- /range/join -->
<g id="node3" class="node">
<title>/range/join</title>
<g id="a_node3"><a xlink:href="../../flowstdlib/control/join/join.html" xlink:title="join">
<ellipse fill="#ff7f50" stroke="#000000" cx="140.8113" cy="-91" rx="27.8951" ry="18"/>
<text text-anchor="middle" x="140.8113" y="-87.3" font-family="Times,serif" font-size="14.00" fill="#000000">join</text>
</a>
</g>
</g>
<!-- /range/sequence&#45;&gt;/range/join -->
<g id="edge4" class="edge">
<title>/range/sequence:s&#45;&gt;/range/join:nw</title>
<path fill="none" stroke="#000000" d="M84.8113,-160C84.8113,-149.8651 92.678,-150.0684 98.8113,-142 108.1562,-129.7068 110.4169,-123.4816 117.8833,-114.5262"/>
<polygon fill="#000000" stroke="#000000" points="120.6138,-116.7279 124.8113,-107 115.4636,-111.987 120.6138,-116.7279"/>
<text text-anchor="middle" x="91.4889" y="-137.1234" font-family="Times,serif" font-size="14.00" fill="#000000">last</text>
<text text-anchor="middle" x="98.8113" y="-110.8" font-family="Times,serif" font-size="14.00" fill="#000000">control</text>
</g>
<!-- /range/stdout -->
<g id="node5" class="node">
<title>/range/stdout</title>
<g id="a_node5"><a xlink:href="../../flowr/src/lib/flowruntime/stdio/stdout.html" xlink:title="stdout">
<ellipse fill="#ff7f50" stroke="#000000" cx="137.8113" cy="-18" rx="40.0939" ry="18"/>
<text text-anchor="middle" x="137.8113" y="-14.3" font-family="Times,serif" font-size="14.00" fill="#000000">stdout</text>
</a>
</g>
</g>
<!-- /range/sequence&#45;&gt;/range/stdout -->
<g id="edge3" class="edge">
<title>/range/sequence:s&#45;&gt;/range/stdout:w</title>
<path fill="none" stroke="#000000" d="M84.8113,-160C84.8113,-100.375 39.315,-27.1658 86.8257,-18.7913"/>
<polygon fill="#000000" stroke="#000000" points="87.1191,-22.2791 96.8113,-18 86.5661,-15.301 87.1191,-22.2791"/>
<text text-anchor="middle" x="34" y="-73.9669" font-family="Times,serif" font-size="14.00" fill="#000000">sequence</text>
</g>
<!-- /range/join&#45;&gt;/range/stdout -->
<g id="edge5" class="edge">
<title>/range/join:e&#45;&gt;/range/stdout:w</title>
<path fill="none" stroke="#000000" d="M168.8113,-91C176.8113,-91 172.9795,-79.8283 168.8113,-73 150.0659,-42.2912 115.5567,-66.7088 96.8113,-36 95.2483,-33.4394 93.7325,-30.268 92.8702,-27.304"/>
<polygon fill="#000000" stroke="#000000" points="96.1336,-28.5731 96.8113,-18 89.688,-25.8428 96.1336,-28.5731"/>
</g>
<!-- initializer/range/join_0 -->
<!-- initializer/range/join_0&#45;&gt;/range/join -->
<g id="edge1" class="edge">
<title>initializer/range/join_0&#45;&gt;/range/join:nw</title>
<path fill="none" stroke="#0000ff" stroke-dasharray="1,5" d="M262.1823,-214.5192C219.8539,-188.2555 143.7654,-139.3022 127.0723,-116.8122"/>
<polygon fill="#0000ff" stroke="#0000ff" points="130.4674,-115.9587 124.8113,-107 123.6462,-117.5306 130.4674,-115.9587"/>
<text text-anchor="middle" x="202.8113" y="-130.8" font-family="Times,serif" font-size="14.00" fill="#000000">&quot;Range done&quot;</text>
</g>
</g>
</svg>
