<?xml version="1.0" encoding="UTF-8" standalone="no"?>
<!DOCTYPE svg PUBLIC "-//W3C//DTD SVG 1.1//EN"
 "http://www.w3.org/Graphics/SVG/1.1/DTD/svg11.dtd">
<!-- Generated by graphviz version 2.42.4 (0)
 -->
<!-- Title: range Pages: 1 -->
<svg width="605pt" height="610pt"
 viewBox="28.80 28.80 576.32 580.76" xmlns="http://www.w3.org/2000/svg" xmlns:xlink="http://www.w3.org/1999/xlink">
<g id="graph0" class="graph" transform="scale(1 1) rotate(0) translate(32.8 576.76)">
<title>range</title>
<polygon fill="white" stroke="transparent" points="-4,4 -4,-547.96 543.52,-547.96 543.52,4 -4,4"/>
<text text-anchor="middle" x="269.76" y="-528.76" font-family="Times,serif" font-size="14.00">range</text>
<!-- /range/args -->
<g id="node1" class="node">
<title>/range/args</title>
<g id="a_node1"><a xlink:href="../../flowruntime/args/get.html" xlink:title="args\n(Get)">
<ellipse fill="coral" stroke="black" cx="37.48" cy="-494.09" rx="37.45" ry="26.74"/>
<text text-anchor="middle" x="37.48" y="-497.89" font-family="Times,serif" font-size="14.00">args</text>
<text text-anchor="middle" x="37.48" y="-482.89" font-family="Times,serif" font-size="14.00">(Get)</text>
</a>
</g>
</g>
<!-- /range/to_number -->
<g id="node2" class="node">
<title>/range/to_number</title>
<g id="a_node2"><a xlink:href="../../flowstdlib/fmt/to_number/to_number.html" xlink:title="to_number\n(ToNumber)">
<ellipse fill="coral" stroke="black" cx="147.48" cy="-403.35" rx="72.25" ry="26.74"/>
<text text-anchor="middle" x="147.48" y="-407.15" font-family="Times,serif" font-size="14.00">to_number</text>
<text text-anchor="middle" x="147.48" y="-392.15" font-family="Times,serif" font-size="14.00">(ToNumber)</text>
</a>
</g>
</g>
<!-- /range/args&#45;&gt;/range/to_number -->
<g id="edge2" class="edge">
<title>/range/args:e&#45;&gt;/range/to_number:w</title>
<path fill="none" stroke="black" d="M76.48,-494.09C112.09,-494.09 51.83,-423.37 64.97,-406.8"/>
<polygon fill="black" stroke="black" points="66.27,-410.05 74.48,-403.35 63.88,-403.47 66.27,-410.05"/>
<text text-anchor="middle" x="65.47" y="-452.52" font-family="Times,serif" font-size="14.00">[1]</text>
</g>
<!-- /range/sequence -->
<g id="node3" class="node">
<title>/range/sequence</title>
<g id="a_node3"><a xlink:href="../../flowstdlib/math/sequence.dot.svg" xlink:title="sequence">
<ellipse fill="aquamarine" stroke="black" cx="219.48" cy="-267.48" rx="72" ry="72"/>
<text text-anchor="middle" x="219.48" y="-263.78" font-family="Times,serif" font-size="14.00">sequence</text>
</a>
</g>
</g>
<!-- /range/to_number&#45;&gt;/range/sequence -->
<g id="edge3" class="edge">
<title>/range/to_number:e&#45;&gt;/range/sequence:n</title>
<path fill="none" stroke="black" d="M220.48,-403.35C245.54,-403.35 225.57,-375.7 220.55,-349.68"/>
<polygon fill="black" stroke="black" points="224,-349.06 219.48,-339.48 217.04,-349.79 224,-349.06"/>
<text text-anchor="middle" x="205.98" y="-343.28" font-family="Times,serif" font-size="14.00">end</text>
</g>
<!-- /range/join -->
<g id="node4" class="node">
<title>/range/join</title>
<g id="a_node4"><a xlink:href="../../flowstdlib/control/join/join.html" xlink:title="join\n(Join)">
<ellipse fill="coral" stroke="black" cx="285.48" cy="-117.61" rx="38.37" ry="26.74"/>
<text text-anchor="middle" x="285.48" y="-121.41" font-family="Times,serif" font-size="14.00">join</text>
<text text-anchor="middle" x="285.48" y="-106.41" font-family="Times,serif" font-size="14.00">(Join)</text>
</a>
</g>
</g>
<!-- /range/sequence&#45;&gt;/range/join -->
<g id="edge5" class="edge">
<title>/range/sequence:s&#45;&gt;/range/join:nw</title>
<path fill="none" stroke="black" d="M219.48,-195.48C219.48,-194.73 244.86,-163.37 257.07,-148.4"/>
<polygon fill="black" stroke="black" points="259.83,-150.56 263.48,-140.61 254.42,-146.11 259.83,-150.56"/>
<text text-anchor="middle" x="227.68" y="-171.78" font-family="Times,serif" font-size="14.00">last</text>
<text text-anchor="middle" x="237.98" y="-144.41" font-family="Times,serif" font-size="14.00">control</text>
</g>
<!-- /range/print -->
<g id="node6" class="node">
<title>/range/print</title>
<g id="a_node6"><a xlink:href="../../flowruntime/stdio/stdout.html" xlink:title="print\n(Stdout)">
<ellipse fill="coral" stroke="black" cx="304.48" cy="-26.87" rx="53.07" ry="26.74"/>
<text text-anchor="middle" x="304.48" y="-30.67" font-family="Times,serif" font-size="14.00">print</text>
<text text-anchor="middle" x="304.48" y="-15.67" font-family="Times,serif" font-size="14.00">(Stdout)</text>
</a>
</g>
</g>
<!-- /range/sequence&#45;&gt;/range/print -->
<g id="edge4" class="edge">
<title>/range/sequence:s&#45;&gt;/range/print:w</title>
<path fill="none" stroke="black" d="M219.48,-195.48C219.48,-123.01 178.59,-35.86 240.16,-27.52"/>
<polygon fill="black" stroke="black" points="240.72,-30.99 250.48,-26.87 240.28,-24 240.72,-30.99"/>
<text text-anchor="middle" x="173.23" y="-91.24" font-family="Times,serif" font-size="14.00">sequence</text>
</g>
<!-- /range/join&#45;&gt;/range/print -->
<g id="edge6" class="edge">
<title>/range/join:e&#45;&gt;/range/print:w</title>
<path fill="none" stroke="black" d="M325.48,-117.61C337.43,-117.61 330.92,-100.8 324.48,-90.74 304.87,-60.11 271.09,-84.37 251.48,-53.74 247.85,-48.08 244.21,-40.28 243.84,-34.55"/>
<polygon fill="black" stroke="black" points="246.58,-36.72 250.48,-26.87 241.29,-32.15 246.58,-36.72"/>
</g>
<!-- initializer/range/join_0 -->
<!-- initializer/range/join_0&#45;&gt;/range/join -->
<g id="edge1" class="edge">
<title>initializer/range/join_0&#45;&gt;/range/join:nw</title>
<path fill="none" stroke="blue" stroke-dasharray="1,5" d="M392.29,-250C345.09,-224.95 262.36,-177.35 259.93,-150.23"/>
<polygon fill="blue" stroke="blue" points="263.3,-151.2 263.48,-140.61 256.73,-148.78 263.3,-151.2"/>
<text text-anchor="middle" x="325.48" y="-166.28" font-family="Times,serif" font-size="14.00">&quot;Range done&quot;</text>
</g>
</g>
</svg>
