<?xml version="1.0" encoding="UTF-8" standalone="no"?>
<!DOCTYPE svg PUBLIC "-//W3C//DTD SVG 1.1//EN"
 "http://www.w3.org/Graphics/SVG/1.1/DTD/svg11.dtd">
<!-- Generated by graphviz version 2.44.0 (20200408.0750)
 -->
<!-- Title: range Pages: 1 -->
<svg width="523pt" height="610pt"
 viewBox="28.80 28.80 494.61 580.76" xmlns="http://www.w3.org/2000/svg" xmlns:xlink="http://www.w3.org/1999/xlink">
<g id="graph0" class="graph" transform="scale(1 1) rotate(0) translate(32.8 576.76)">
<title>range</title>
<polygon fill="white" stroke="transparent" points="-4,4 -4,-547.96 461.81,-547.96 461.81,4 -4,4"/>
<text text-anchor="middle" x="228.91" y="-528.76" font-family="Times,serif" font-size="14.00">range</text>
<!-- /range/args -->
<g id="node1" class="node">
<title>/range/args</title>
<g id="a_node1"><a xlink:href="../../flowruntime/args/get.html" xlink:title="args\n(Get)">
<ellipse fill="coral" stroke="black" cx="31.82" cy="-494.09" rx="31.64" ry="26.74"/>
<text text-anchor="middle" x="31.82" y="-497.89" font-family="Times,serif" font-size="14.00">args</text>
<text text-anchor="middle" x="31.82" y="-482.89" font-family="Times,serif" font-size="14.00">(Get)</text>
</a>
</g>
</g>
<!-- /range/to_json -->
<g id="node2" class="node">
<title>/range/to_json</title>
<g id="a_node2"><a xlink:href="../../flowstdlib/fmt/to_json/to_json.html" xlink:title="to_json\n(ToNumber)">
<ellipse fill="coral" stroke="black" cx="124.82" cy="-403.35" rx="60.62" ry="26.74"/>
<text text-anchor="middle" x="124.82" y="-407.15" font-family="Times,serif" font-size="14.00">to_json</text>
<text text-anchor="middle" x="124.82" y="-392.15" font-family="Times,serif" font-size="14.00">(ToNumber)</text>
</a>
</g>
</g>
<!-- /range/args&#45;&gt;/range/to_json -->
<g id="edge2" class="edge">
<title>/range/args:e&#45;&gt;/range/to_json:w</title>
<path fill="none" stroke="black" d="M64.82,-494.09C100.43,-494.09 40.17,-423.37 53.31,-406.8"/>
<polygon fill="black" stroke="black" points="54.61,-410.05 62.82,-403.35 52.23,-403.47 54.61,-410.05"/>
<text text-anchor="middle" x="55.82" y="-452.52" font-family="Times,serif" font-size="14.00">[1]</text>
</g>
<!-- /range/sequence -->
<g id="node3" class="node">
<title>/range/sequence</title>
<g id="a_node3"><a xlink:href="../../flowstdlib/math/sequence.dot.svg" xlink:title="sequence">
<ellipse fill="aquamarine" stroke="black" cx="185.82" cy="-267.48" rx="72" ry="72"/>
<text text-anchor="middle" x="185.82" y="-263.78" font-family="Times,serif" font-size="14.00">sequence</text>
</a>
</g>
</g>
<!-- /range/to_json&#45;&gt;/range/sequence -->
<g id="edge3" class="edge">
<title>/range/to_json:e&#45;&gt;/range/sequence:n</title>
<path fill="none" stroke="black" d="M186.82,-403.35C211.88,-403.35 191.91,-375.7 186.89,-349.68"/>
<polygon fill="black" stroke="black" points="190.34,-349.06 185.82,-339.48 183.38,-349.79 190.34,-349.06"/>
<text text-anchor="middle" x="175.82" y="-343.28" font-family="Times,serif" font-size="14.00">end</text>
</g>
<!-- /range/join -->
<g id="node4" class="node">
<title>/range/join</title>
<g id="a_node4"><a xlink:href="../../flowstdlib/control/join/join.html" xlink:title="join\n(Join)">
<ellipse fill="coral" stroke="black" cx="247.82" cy="-117.61" rx="33.88" ry="26.74"/>
<text text-anchor="middle" x="247.82" y="-121.41" font-family="Times,serif" font-size="14.00">join</text>
<text text-anchor="middle" x="247.82" y="-106.41" font-family="Times,serif" font-size="14.00">(Join)</text>
</a>
</g>
</g>
<!-- /range/sequence&#45;&gt;/range/join -->
<g id="edge5" class="edge">
<title>/range/sequence:s&#45;&gt;/range/join:nw</title>
<path fill="none" stroke="black" d="M185.82,-195.48C185.82,-185.35 193.77,-185.61 199.82,-177.48 209.85,-164.01 211.76,-157.08 219.96,-147.11"/>
<polygon fill="black" stroke="black" points="222.65,-149.35 226.82,-139.61 217.49,-144.63 222.65,-149.35"/>
<text text-anchor="middle" x="196.86" y="-171.75" font-family="Times,serif" font-size="14.00">last</text>
<text text-anchor="middle" x="207.32" y="-143.41" font-family="Times,serif" font-size="14.00">control</text>
</g>
<!-- /range/print -->
<g id="node6" class="node">
<title>/range/print</title>
<g id="a_node6"><a xlink:href="../../flowruntime/stdio/stdout.html" xlink:title="print\n(Stdout)">
<ellipse fill="coral" stroke="black" cx="241.82" cy="-26.87" rx="43.27" ry="26.74"/>
<text text-anchor="middle" x="241.82" y="-30.67" font-family="Times,serif" font-size="14.00">print</text>
<text text-anchor="middle" x="241.82" y="-15.67" font-family="Times,serif" font-size="14.00">(Stdout)</text>
</a>
</g>
</g>
<!-- /range/sequence&#45;&gt;/range/print -->
<g id="edge4" class="edge">
<title>/range/sequence:s&#45;&gt;/range/print:w</title>
<path fill="none" stroke="black" d="M185.82,-195.48C185.82,-124.05 127.83,-35.96 186.79,-27.53"/>
<polygon fill="black" stroke="black" points="187.07,-31.02 196.82,-26.87 186.61,-24.03 187.07,-31.02"/>
<text text-anchor="middle" x="139.19" y="-91.67" font-family="Times,serif" font-size="14.00">sequence</text>
</g>
<!-- /range/join&#45;&gt;/range/print -->
<g id="edge6" class="edge">
<title>/range/join:e&#45;&gt;/range/print:w</title>
<path fill="none" stroke="black" d="M282.82,-117.61C294.77,-117.61 288.53,-100.63 281.82,-90.74 258.9,-56.99 220.74,-87.49 197.82,-53.74 194.04,-48.18 190.42,-40.37 190.1,-34.61"/>
<polygon fill="black" stroke="black" points="192.9,-36.71 196.82,-26.87 187.62,-32.12 192.9,-36.71"/>
</g>
<!-- initializer/range/join_0 -->
<!-- initializer/range/join_0&#45;&gt;/range/join -->
<g id="edge1" class="edge">
<title>initializer/range/join_0&#45;&gt;/range/join:nw</title>
<path fill="none" stroke="blue" stroke-dasharray="1,5" d="M344.51,-249.98C309.32,-223.59 243.41,-172.52 228.75,-149.61"/>
<polygon fill="blue" stroke="blue" points="232.15,-148.76 226.82,-139.61 225.28,-150.09 232.15,-148.76"/>
<text text-anchor="middle" x="293.32" y="-166.28" font-family="Times,serif" font-size="14.00">&quot;Range done&quot;</text>
</g>
</g>
</svg>
