<?xml version="1.0" encoding="UTF-8" standalone="no"?>
<!DOCTYPE svg PUBLIC "-//W3C//DTD SVG 1.1//EN"
 "http://www.w3.org/Graphics/SVG/1.1/DTD/svg11.dtd">
<!-- Generated by graphviz version 2.44.0 (20200408.0750)
 -->
<!-- Title: range Pages: 1 -->
<svg width="677pt" height="424pt"
 viewBox="0.00 0.00 676.74 424.00" xmlns="http://www.w3.org/2000/svg" xmlns:xlink="http://www.w3.org/1999/xlink">
<g id="graph0" class="graph" transform="scale(1 1) rotate(0) translate(4 420)">
<title>range</title>
<polygon fill="white" stroke="transparent" points="-4,4 -4,-420 672.74,-420 672.74,4 -4,4"/>
<text text-anchor="middle" x="334.37" y="-400.8" font-family="Times,serif" font-size="14.00">/range</text>
<g id="clust1" class="cluster">
<title>cluster_sequence</title>
<polygon fill="none" stroke="black" points="140.29,-8 140.29,-330 484.29,-330 484.29,-8 140.29,-8"/>
<text text-anchor="middle" x="312.29" y="-314.8" font-family="Times,serif" font-size="14.00">/range/sequence</text>
</g>
<!-- r0 -->
<g id="node1" class="node">
<title>r0</title>
<g id="a_node1"><a xlink:href="file:///Users/andrew/workspace/flow/flowruntime/args/get.toml" xlink:title="args (#0)">
<ellipse fill="coral" stroke="black" cx="83.29" cy="-375" rx="42.49" ry="18"/>
<text text-anchor="middle" x="83.29" y="-371.3" font-family="Times,serif" font-size="14.00">args (#0)</text>
</a>
</g>
</g>
<!-- r1 -->
<g id="node2" class="node">
<title>r1</title>
<g id="a_node2"><a xlink:href="file:///Users/andrew/workspace/flow/flowstdlib/fmt/to_number/to_number.toml" xlink:title="to_number (#1)">
<ellipse fill="coral" stroke="black" cx="66.29" cy="-281" rx="66.09" ry="18"/>
<text text-anchor="middle" x="66.29" y="-277.3" font-family="Times,serif" font-size="14.00">to_number (#1)</text>
</a>
</g>
</g>
<!-- r0&#45;&gt;r1 -->
<g id="edge1" class="edge">
<title>r0:sw&#45;&gt;r1:n</title>
<path fill="none" stroke="black" d="M66.29,-357C50.9,-341.61 61.96,-329.28 65.38,-310.04"/>
<polygon fill="black" stroke="black" points="68.87,-310.28 66.29,-300 61.9,-309.64 68.87,-310.28"/>
<text text-anchor="middle" x="60.79" y="-345.8" font-family="Times,serif" font-size="14.00">/1</text>
</g>
<!-- r2 -->
<g id="node3" class="node">
<title>r2</title>
<g id="a_node3"><a xlink:href="file:///Users/andrew/workspace/flow/flowstdlib/control/compare_switch/compare_switch.toml" xlink:title="compare (#2)">
<ellipse fill="coral" stroke="black" cx="399.29" cy="-194" rx="58.49" ry="18"/>
<text text-anchor="middle" x="399.29" y="-190.3" font-family="Times,serif" font-size="14.00">compare (#2)</text>
</a>
</g>
</g>
<!-- r1&#45;&gt;r2 -->
<g id="edge2" class="edge">
<title>r1:e&#45;&gt;r2:n</title>
<path fill="none" stroke="black" d="M134.29,-281C138.32,-281 133.57,-265.96 136.29,-263 214.57,-178.12 388.35,-321.87 398.8,-222.07"/>
<polygon fill="black" stroke="black" points="402.3,-222.16 399.29,-212 395.31,-221.82 402.3,-222.16"/>
<text text-anchor="middle" x="389.79" y="-215.8" font-family="Times,serif" font-size="14.00">left</text>
</g>
<!-- r2&#45;&gt;r2 -->
<g id="edge5" class="edge">
<title>r2:s&#45;&gt;r2:n</title>
<path fill="none" stroke="black" d="M399.29,-176C442.79,-165.5 529.79,-165.5 529.79,-194 529.79,-220.44 454.91,-222.35 409.36,-214.11"/>
<polygon fill="black" stroke="black" points="409.8,-210.62 399.29,-212 408.37,-217.47 409.8,-210.62"/>
<text text-anchor="middle" x="408.79" y="-215.8" font-family="Times,serif" font-size="14.00">left</text>
<text text-anchor="middle" x="380.79" y="-164.8" font-family="Times,serif" font-size="14.00">/left&#45;gt</text>
</g>
<!-- r5 -->
<g id="node5" class="node">
<title>r5</title>
<g id="a_node5"><a xlink:href="file:///Users/andrew/workspace/flow/flowruntime/stdio/stdout.toml" xlink:title="print (#5)">
<ellipse fill="coral" stroke="black" cx="349.29" cy="-34" rx="44.39" ry="18"/>
<text text-anchor="middle" x="349.29" y="-30.3" font-family="Times,serif" font-size="14.00">print (#5)</text>
</a>
</g>
</g>
<!-- r2&#45;&gt;r5 -->
<g id="edge4" class="edge">
<title>r2:e&#45;&gt;r5:n</title>
<path fill="none" stroke="black" d="M459.29,-194C467.31,-194 463.5,-182.09 458.29,-176 433.48,-146.99 404.89,-180.84 374.29,-158 340.48,-132.76 343.74,-112.53 336.29,-71 335.25,-65.18 339.76,-63.16 343.75,-60.51"/>
<polygon fill="black" stroke="black" points="346.77,-62.29 349.29,-52 340.9,-58.47 346.77,-62.29"/>
<text text-anchor="middle" x="483.29" y="-197.8" font-family="Times,serif" font-size="14.00">/right&#45;lte</text>
</g>
<!-- r3 -->
<g id="node6" class="node">
<title>r3</title>
<g id="a_node6"><a xlink:href="file:///Users/andrew/workspace/flow/flowstdlib/math/add/add.toml" xlink:title="add (#3)">
<ellipse fill="coral" stroke="black" cx="188.29" cy="-107" rx="40.09" ry="18"/>
<text text-anchor="middle" x="188.29" y="-103.3" font-family="Times,serif" font-size="14.00">add (#3)</text>
</a>
</g>
</g>
<!-- r2&#45;&gt;r3 -->
<g id="edge6" class="edge">
<title>r2:e&#45;&gt;r3:n</title>
<path fill="none" stroke="black" d="M459.29,-194C467.31,-194 463.79,-181.83 458.29,-176 434.04,-150.3 334.17,-168.06 300.29,-158 286,-153.76 284.35,-147.97 270.29,-143 256,-137.95 210.8,-141.54 194.35,-133.06"/>
<polygon fill="black" stroke="black" points="197.1,-130.89 188.29,-125 191.51,-135.1 197.1,-130.89"/>
<text text-anchor="middle" x="182.79" y="-128.8" font-family="Times,serif" font-size="14.00">i1</text>
<text text-anchor="middle" x="480.29" y="-182.8" font-family="Times,serif" font-size="14.00">/right&#45;lt</text>
</g>
<!-- r4 -->
<g id="node7" class="node">
<title>r4</title>
<g id="a_node7"><a xlink:href="file:///Users/andrew/workspace/flow/flowstdlib/control/join/join.toml" xlink:title="join (#4)">
<ellipse fill="coral" stroke="black" cx="434.29" cy="-107" rx="41.69" ry="18"/>
<text text-anchor="middle" x="434.29" y="-103.3" font-family="Times,serif" font-size="14.00">join (#4)</text>
</a>
</g>
</g>
<!-- r2&#45;&gt;r4 -->
<g id="edge7" class="edge">
<title>r2:sw&#45;&gt;r4:ne</title>
<path fill="none" stroke="black" d="M382.29,-176C359.12,-152.83 446.65,-151.73 454.61,-134.77"/>
<polygon fill="black" stroke="black" points="457.82,-133.34 451.29,-125 451.2,-135.59 457.82,-133.34"/>
<text text-anchor="middle" x="431.79" y="-128.8" font-family="Times,serif" font-size="14.00">control</text>
<text text-anchor="middle" x="407.79" y="-164.8" font-family="Times,serif" font-size="14.00">/right&#45;gte</text>
</g>
<!-- initializerr2_1 -->
<!-- initializerr2_1&#45;&gt;r2 -->
<g id="edge3" class="edge">
<title>initializerr2_1&#45;&gt;r2:ne</title>
<path fill="none" stroke="blue" stroke-dasharray="1,5" d="M422.26,-262.94C425.68,-250.33 428.2,-233.18 422.04,-220.21"/>
<polygon fill="blue" stroke="blue" points="424.9,-218.18 416.29,-212 419.16,-222.2 424.9,-218.18"/>
<text text-anchor="middle" x="428.79" y="-233.8" font-family="Times,serif" font-size="14.00">1</text>
</g>
<!-- r3&#45;&gt;r2 -->
<g id="edge10" class="edge">
<title>r3:se&#45;&gt;r2:ne</title>
<path fill="none" stroke="black" d="M205.29,-89C212.62,-81.67 220.12,-84.03 228.59,-90 255.28,-108.79 230.05,-138.6 256.29,-158 292.45,-184.72 427.45,-142.83 457.79,-176 468.29,-187.48 468.66,-199.87 457.79,-211 453.11,-215.8 436.77,-217.59 425.68,-215.72"/>
<polygon fill="black" stroke="black" points="426.88,-212.43 416.29,-212 424.3,-218.94 426.88,-212.43"/>
<text text-anchor="middle" x="429.29" y="-215.8" font-family="Times,serif" font-size="14.00">right</text>
<text text-anchor="middle" x="191.29" y="-77.8" font-family="Times,serif" font-size="14.00">/sum</text>
</g>
<!-- r3&#45;&gt;r3 -->
<g id="edge9" class="edge">
<title>r3:se&#45;&gt;r3:ne</title>
<path fill="none" stroke="black" d="M205.29,-90C242.73,-81 300.59,-81 300.59,-107 300.59,-130.77 252.24,-132.81 215.35,-126.11"/>
<polygon fill="black" stroke="black" points="215.8,-122.63 205.29,-124 214.36,-129.48 215.8,-122.63"/>
<text text-anchor="middle" x="199.79" y="-127.8" font-family="Times,serif" font-size="14.00">i2</text>
<text text-anchor="middle" x="212.79" y="-78.8" font-family="Times,serif" font-size="14.00">/i2</text>
</g>
<!-- r4&#45;&gt;r5 -->
<g id="edge12" class="edge">
<title>r4:e&#45;&gt;r5:n</title>
<path fill="none" stroke="black" d="M477.29,-107C485.31,-107 481.28,-95.27 476.29,-89 442.15,-46.03 361.07,-102.29 350.45,-62.11"/>
<polygon fill="black" stroke="black" points="353.91,-61.54 349.29,-52 346.95,-62.33 353.91,-61.54"/>
</g>
<!-- initializerr3_1 -->
<!-- initializerr3_1&#45;&gt;r3 -->
<g id="edge8" class="edge">
<title>initializerr3_1&#45;&gt;r3:w</title>
<path fill="none" stroke="blue" stroke-dasharray="1,5" d="M188.77,-176.82C163.86,-155.42 125.25,-119.24 136.49,-109.48"/>
<polygon fill="blue" stroke="blue" points="137.46,-112.85 146.29,-107 135.74,-106.06 137.46,-112.85"/>
<text text-anchor="middle" x="170.79" y="-146.8" font-family="Times,serif" font-size="14.00">1</text>
</g>
<!-- initializerr4_0 -->
<!-- initializerr4_0&#45;&gt;r4 -->
<g id="edge11" class="edge">
<title>initializerr4_0&#45;&gt;r4:nw</title>
<path fill="none" stroke="blue" stroke-dasharray="1,5" d="M564.58,-181.47C516.71,-168.43 443.89,-147.24 422.52,-133.56"/>
<polygon fill="blue" stroke="blue" points="425.49,-131.72 417.29,-125 419.51,-135.36 425.49,-131.72"/>
<text text-anchor="middle" x="521.79" y="-146.8" font-family="Times,serif" font-size="14.00">&quot;Range done&quot;</text>
</g>
</g>
</svg>
