<?xml version="1.0" encoding="UTF-8" standalone="no"?>
<!DOCTYPE svg PUBLIC "-//W3C//DTD SVG 1.1//EN"
 "http://www.w3.org/Graphics/SVG/1.1/DTD/svg11.dtd">
<!-- Generated by graphviz version 2.40.1 (0)
 -->
<!-- Title: range Pages: 1 -->
<svg width="802pt" height="539pt"
 viewBox="0.00 0.00 802.24 539.00" xmlns="http://www.w3.org/2000/svg" xmlns:xlink="http://www.w3.org/1999/xlink">
<g id="graph0" class="graph" transform="scale(1 1) rotate(0) translate(4 535)">
<title>range</title>
<polygon fill="#ffffff" stroke="transparent" points="-4,4 -4,-535 798.2359,-535 798.2359,4 -4,4"/>
<text text-anchor="middle" x="397.1179" y="-515.8" font-family="Times,serif" font-size="14.00" fill="#000000">/range</text>
<g id="clust1" class="cluster">
<title>cluster_sequence</title>
<polygon fill="none" stroke="#000000" points="175.8426,-8 175.8426,-500 579.8426,-500 579.8426,-8 175.8426,-8"/>
<text text-anchor="middle" x="377.8426" y="-484.8" font-family="Times,serif" font-size="14.00" fill="#000000">/range/sequence</text>
</g>
<!-- r0 -->
<g id="node1" class="node">
<title>r0</title>
<g id="a_node1"><a xlink:href="file:///home/andrew/workspace/flow/flowruntime/args/get.toml" xlink:title="args (#0)">
<ellipse fill="#ff7f50" stroke="#000000" cx="100.8426" cy="-451" rx="54.6905" ry="18"/>
<text text-anchor="middle" x="100.8426" y="-447.3" font-family="Times,serif" font-size="14.00" fill="#000000">args (#0)</text>
</a>
</g>
</g>
<!-- r1 -->
<g id="node2" class="node">
<title>r1</title>
<g id="a_node2"><a xlink:href="file:///home/andrew/workspace/flow/flowstdlib/fmt/to_number/to_number.toml" xlink:title="to_number (#1)">
<ellipse fill="#ff7f50" stroke="#000000" cx="83.8426" cy="-378" rx="83.6854" ry="18"/>
<text text-anchor="middle" x="83.8426" y="-374.3" font-family="Times,serif" font-size="14.00" fill="#000000">to_number (#1)</text>
</a>
</g>
</g>
<!-- r0&#45;&gt;r1 -->
<g id="edge1" class="edge">
<title>r0:sw&#45;&gt;r1:n</title>
<path fill="none" stroke="#000000" d="M83.8426,-434C74.5127,-424.6701 79.7607,-417.033 82.5032,-406.0849"/>
<polygon fill="#000000" stroke="#000000" points="85.9955,-406.3738 83.8426,-396 79.0564,-405.4522 85.9955,-406.3738"/>
<text text-anchor="middle" x="76.8426" y="-422.8" font-family="Times,serif" font-size="14.00" fill="#000000">/1</text>
</g>
<!-- r2 -->
<g id="node3" class="node">
<title>r2</title>
<g id="a_node3"><a xlink:href="file:///home/andrew/workspace/flow/flowstdlib/control/compare_switch/compare_switch.toml" xlink:title="compare (#2)">
<ellipse fill="#ff7f50" stroke="#000000" cx="479.8426" cy="-305" rx="74.187" ry="18"/>
<text text-anchor="middle" x="479.8426" y="-301.3" font-family="Times,serif" font-size="14.00" fill="#000000">compare (#2)</text>
</a>
</g>
</g>
<!-- r1&#45;&gt;r2 -->
<g id="edge2" class="edge">
<title>r1:e&#45;&gt;r2:n</title>
<path fill="none" stroke="#000000" d="M167.8426,-378C176.0377,-378 165.7678,-365.5007 171.8426,-360 220.1483,-316.2594 452.3596,-383.7549 477.6133,-333.0341"/>
<polygon fill="#000000" stroke="#000000" points="481.0904,-333.5211 479.8426,-323 474.257,-332.0029 481.0904,-333.5211"/>
<text text-anchor="middle" x="467.3426" y="-326.8" font-family="Times,serif" font-size="14.00" fill="#000000">left</text>
</g>
<!-- r2&#45;&gt;r2 -->
<g id="edge5" class="edge">
<title>r2:s&#45;&gt;r2:n</title>
<path fill="none" stroke="#000000" d="M479.8426,-287C528.5404,-278 625.936,-278 625.936,-305 625.936,-330.2598 540.6907,-331.8878 489.8265,-324.6233"/>
<polygon fill="#000000" stroke="#000000" points="490.2747,-321.1502 479.8426,-323 489.1513,-328.0595 490.2747,-321.1502"/>
<text text-anchor="middle" x="492.3426" y="-326.8" font-family="Times,serif" font-size="14.00" fill="#000000">left</text>
<text text-anchor="middle" x="455.3426" y="-275.8" font-family="Times,serif" font-size="14.00" fill="#000000">/left&#45;gt</text>
</g>
<!-- r5 -->
<g id="node5" class="node">
<title>r5</title>
<g id="a_node5"><a xlink:href="file:///home/andrew/workspace/flow/flowruntime/stdio/stdout.toml" xlink:title="print (#5)">
<ellipse fill="#ff7f50" stroke="#000000" cx="505.8426" cy="-34" rx="57.3905" ry="18"/>
<text text-anchor="middle" x="505.8426" y="-30.3" font-family="Times,serif" font-size="14.00" fill="#000000">print (#5)</text>
</a>
</g>
</g>
<!-- r2&#45;&gt;r5 -->
<g id="edge4" class="edge">
<title>r2:e&#45;&gt;r5:n</title>
<path fill="none" stroke="#000000" d="M553.8426,-305C587.1551,-305 570.8426,-265.3126 570.8426,-232 570.8426,-232 570.8426,-232 570.8426,-89.5 570.8426,-60.3171 521.0769,-79.0284 508.6355,-61.819"/>
<polygon fill="#000000" stroke="#000000" points="511.945,-60.6609 505.8426,-52 505.2121,-62.5761 511.945,-60.6609"/>
<text text-anchor="middle" x="585.8426" y="-308.8" font-family="Times,serif" font-size="14.00" fill="#000000">/right&#45;lte</text>
</g>
<!-- r3 -->
<g id="node6" class="node">
<title>r3</title>
<g id="a_node6"><a xlink:href="file:///home/andrew/workspace/flow/flowstdlib/math/add/add.toml" xlink:title="add (#3)">
<ellipse fill="#ff7f50" stroke="#000000" cx="253.8426" cy="-145" rx="51.1914" ry="18"/>
<text text-anchor="middle" x="253.8426" y="-141.3" font-family="Times,serif" font-size="14.00" fill="#000000">add (#3)</text>
</a>
</g>
</g>
<!-- r2&#45;&gt;r3 -->
<g id="edge6" class="edge">
<title>r2:e&#45;&gt;r3:n</title>
<path fill="none" stroke="#000000" d="M553.8426,-305C561.8426,-305 558.2896,-293.6501 553.8426,-287 475.6011,-169.9986 264.4918,-300.5833 254.2304,-173.0662"/>
<polygon fill="#000000" stroke="#000000" points="257.725,-172.8578 253.8426,-163 250.7302,-173.1274 257.725,-172.8578"/>
<text text-anchor="middle" x="246.8426" y="-166.8" font-family="Times,serif" font-size="14.00" fill="#000000">i1</text>
<text text-anchor="middle" x="581.3426" y="-293.8" font-family="Times,serif" font-size="14.00" fill="#000000">/right&#45;lt</text>
</g>
<!-- r4 -->
<g id="node7" class="node">
<title>r4</title>
<g id="a_node7"><a xlink:href="file:///home/andrew/workspace/flow/flowstdlib/control/join/join.toml" xlink:title="join (#4)">
<ellipse fill="#ff7f50" stroke="#000000" cx="446.8426" cy="-145" rx="51.1914" ry="18"/>
<text text-anchor="middle" x="446.8426" y="-141.3" font-family="Times,serif" font-size="14.00" fill="#000000">join (#4)</text>
</a>
</g>
</g>
<!-- r2&#45;&gt;r4 -->
<g id="edge7" class="edge">
<title>r2:sw&#45;&gt;r4:ne</title>
<path fill="none" stroke="#000000" d="M461.8426,-287C442.7573,-267.9147 419.8514,-290.7304 403.8426,-269 373.9042,-228.3618 483.8654,-204.3037 469.7625,-170.3663"/>
<polygon fill="#000000" stroke="#000000" points="472.4758,-168.1414 463.8426,-162 466.7617,-172.1848 472.4758,-168.1414"/>
<text text-anchor="middle" x="489.3426" y="-165.8" font-family="Times,serif" font-size="14.00" fill="#000000">control</text>
<text text-anchor="middle" x="495.8426" y="-275.8" font-family="Times,serif" font-size="14.00" fill="#000000">/right&#45;gte</text>
</g>
<!-- initializerr2_1 -->
<!-- initializerr2_1&#45;&gt;r2 -->
<g id="edge3" class="edge">
<title>initializerr2_1&#45;&gt;r2:ne</title>
<path fill="none" stroke="#0000ff" stroke-dasharray="1,5" d="M504.0551,-432.7263C512.9002,-407.2076 524.4111,-360.6892 504.3626,-330.9207"/>
<polygon fill="#0000ff" stroke="#0000ff" points="506.9002,-328.4963 497.8426,-323 501.4957,-332.9451 506.9002,-328.4963"/>
<text text-anchor="middle" x="519.8426" y="-374.3" font-family="Times,serif" font-size="14.00" fill="#000000">1</text>
</g>
<!-- r3&#45;&gt;r2 -->
<g id="edge10" class="edge">
<title>r3:se&#45;&gt;r2:ne</title>
<path fill="none" stroke="#000000" d="M270.8426,-128C281.6363,-117.2063 290.5364,-123.7174 305.188,-128 307.1558,-128.5752 552.9512,-285.2018 553.936,-287 553.936,-287 522.3834,-307.25 506.6072,-317.375"/>
<polygon fill="#000000" stroke="#000000" points="504.368,-314.6532 497.8426,-323 508.1489,-320.5443 504.368,-314.6532"/>
<text text-anchor="middle" x="515.8426" y="-326.8" font-family="Times,serif" font-size="14.00" fill="#000000">right</text>
<text text-anchor="middle" x="288.3426" y="-116.8" font-family="Times,serif" font-size="14.00" fill="#000000">/sum</text>
</g>
<!-- r3&#45;&gt;r3 -->
<g id="edge9" class="edge">
<title>r3:se&#45;&gt;r3:ne</title>
<path fill="none" stroke="#000000" d="M270.8426,-128C311.9577,-119 377.188,-119 377.188,-145 377.188,-168.9688 321.7518,-170.8413 280.8779,-163.9365"/>
<polygon fill="#000000" stroke="#000000" points="281.3246,-160.4582 270.8426,-162 279.9983,-167.3314 281.3246,-160.4582"/>
<text text-anchor="middle" x="263.8426" y="-165.8" font-family="Times,serif" font-size="14.00" fill="#000000">i2</text>
<text text-anchor="middle" x="261.3426" y="-116.8" font-family="Times,serif" font-size="14.00" fill="#000000">/i2</text>
</g>
<!-- r4&#45;&gt;r5 -->
<g id="edge12" class="edge">
<title>r4:e&#45;&gt;r5:n</title>
<path fill="none" stroke="#000000" d="M498.8426,-145C536.9736,-145 510.8733,-101.3757 506.4486,-62.1204"/>
<polygon fill="#000000" stroke="#000000" points="509.9342,-61.7729 505.8426,-52 502.9467,-62.1914 509.9342,-61.7729"/>
</g>
<!-- initializerr3_1 -->
<!-- initializerr3_1&#45;&gt;r3 -->
<g id="edge8" class="edge">
<title>initializerr3_1&#45;&gt;r3:w</title>
<path fill="none" stroke="#0000ff" stroke-dasharray="1,5" d="M244.8276,-287.2659C214.9562,-248.2929 150.9618,-157.7241 191.8524,-146.2111"/>
<polygon fill="#0000ff" stroke="#0000ff" points="192.3365,-149.6781 201.8426,-145 191.494,-142.729 192.3365,-149.6781"/>
<text text-anchor="middle" x="221.8426" y="-228.3" font-family="Times,serif" font-size="14.00" fill="#000000">1</text>
</g>
<!-- initializerr4_0 -->
<!-- initializerr4_0&#45;&gt;r4 -->
<g id="edge11" class="edge">
<title>initializerr4_0&#45;&gt;r4:nw</title>
<path fill="none" stroke="#0000ff" stroke-dasharray="1,5" d="M655.8249,-221.936C580.6449,-209.3707 461.6514,-187.5207 434.3192,-171.0005"/>
<polygon fill="#0000ff" stroke="#0000ff" points="437.4297,-169.395 429.8426,-162 431.1622,-172.5123 437.4297,-169.395"/>
<text text-anchor="middle" x="561.8426" y="-184.8" font-family="Times,serif" font-size="14.00" fill="#000000">&quot;Range done&quot;</text>
</g>
</g>
</svg>
