<?xml version="1.0" encoding="UTF-8" standalone="no"?>
<!DOCTYPE svg PUBLIC "-//W3C//DTD SVG 1.1//EN"
 "http://www.w3.org/Graphics/SVG/1.1/DTD/svg11.dtd">
<!-- Generated by graphviz version 2.44.1 (20200629.0846)
 -->
<!-- Title: range Pages: 1 -->
<svg width="621pt" height="369pt"
 viewBox="0.00 0.00 620.79 369.00" xmlns="http://www.w3.org/2000/svg" xmlns:xlink="http://www.w3.org/1999/xlink">
<g id="graph0" class="graph" transform="scale(1 1) rotate(0) translate(4 365)">
<title>range</title>
<polygon fill="white" stroke="transparent" points="-4,4 -4,-365 616.79,-365 616.79,4 -4,4"/>
<text text-anchor="middle" x="306.4" y="-345.8" font-family="Times,serif" font-size="14.00">/range</text>
<g id="clust1" class="cluster">
<title>cluster_sequence</title>
<polygon fill="none" stroke="black" points="84.35,-8 84.35,-330 428.35,-330 428.35,-8 84.35,-8"/>
<text text-anchor="middle" x="256.35" y="-314.8" font-family="Times,serif" font-size="14.00">/range/sequence</text>
</g>
<!-- r1 -->
<g id="node1" class="node">
<title>r1</title>
<g id="a_node1"><a xlink:href="file:///Users/andrew/workspace/flow/flowr/src/lib/flowruntime/args/get.html" xlink:title="get (#1)">
<ellipse fill="coral" stroke="black" cx="38.35" cy="-281" rx="38.19" ry="18"/>
<text text-anchor="middle" x="38.35" y="-277.3" font-family="Times,serif" font-size="14.00">get (#1)</text>
</a>
</g>
</g>
<!-- r3 -->
<g id="node2" class="node">
<title>r3</title>
<g id="a_node2"><a xlink:href="file:///Users/andrew/workspace/flow/flowstdlib/control/compare_switch/compare_switch.html" xlink:title="compare (#3)">
<ellipse fill="coral" stroke="black" cx="343.35" cy="-194" rx="58.49" ry="18"/>
<text text-anchor="middle" x="343.35" y="-190.3" font-family="Times,serif" font-size="14.00">compare (#3)</text>
</a>
</g>
</g>
<!-- r1&#45;&gt;r3 -->
<g id="edge1" class="edge">
<title>r1:e&#45;&gt;r3:n</title>
<path fill="none" stroke="black" d="M78.35,-281C82.37,-281 77.62,-265.96 80.35,-263 158.62,-178.12 332.4,-321.87 342.85,-222.07"/>
<polygon fill="black" stroke="black" points="346.35,-222.16 343.35,-212 339.36,-221.82 346.35,-222.16"/>
<text text-anchor="middle" x="333.85" y="-215.8" font-family="Times,serif" font-size="14.00">left</text>
<text text-anchor="middle" x="96.85" y="-284.8" font-family="Times,serif" font-size="14.00">/json/1</text>
</g>
<!-- r3&#45;&gt;r3 -->
<g id="edge4" class="edge">
<title>r3:s&#45;&gt;r3:n</title>
<path fill="none" stroke="black" d="M343.35,-176C386.84,-165.5 473.84,-165.5 473.84,-194 473.84,-220.44 398.96,-222.35 353.41,-214.11"/>
<polygon fill="black" stroke="black" points="353.85,-210.62 343.35,-212 352.42,-217.47 353.85,-210.62"/>
<text text-anchor="middle" x="352.85" y="-215.8" font-family="Times,serif" font-size="14.00">left</text>
<text text-anchor="middle" x="324.85" y="-164.8" font-family="Times,serif" font-size="14.00">/left&#45;gt</text>
</g>
<!-- r2 -->
<g id="node4" class="node">
<title>r2</title>
<g id="a_node4"><a xlink:href="file:///Users/andrew/workspace/flow/flowr/src/lib/flowruntime/stdio/stdout.html" xlink:title="stdout (#2)">
<ellipse fill="coral" stroke="black" cx="292.35" cy="-34" rx="49.29" ry="18"/>
<text text-anchor="middle" x="292.35" y="-30.3" font-family="Times,serif" font-size="14.00">stdout (#2)</text>
</a>
</g>
</g>
<!-- r3&#45;&gt;r2 -->
<g id="edge3" class="edge">
<title>r3:e&#45;&gt;r2:n</title>
<path fill="none" stroke="black" d="M403.35,-194C411.36,-194 407.55,-182.09 402.35,-176 377.53,-146.99 348.94,-180.84 318.35,-158 304.99,-148.03 278.46,-71.6 278.35,-71 277.15,-64.89 282.31,-63.03 286.7,-60.34"/>
<polygon fill="black" stroke="black" points="289.64,-62.24 292.35,-52 283.84,-58.32 289.64,-62.24"/>
<text text-anchor="middle" x="427.35" y="-197.8" font-family="Times,serif" font-size="14.00">/right&#45;lte</text>
</g>
<!-- r4 -->
<g id="node5" class="node">
<title>r4</title>
<g id="a_node5"><a xlink:href="file:///Users/andrew/workspace/flow/flowstdlib/math/add/add.html" xlink:title="add (#4)">
<ellipse fill="coral" stroke="black" cx="132.35" cy="-107" rx="40.09" ry="18"/>
<text text-anchor="middle" x="132.35" y="-103.3" font-family="Times,serif" font-size="14.00">add (#4)</text>
</a>
</g>
</g>
<!-- r3&#45;&gt;r4 -->
<g id="edge5" class="edge">
<title>r3:e&#45;&gt;r4:n</title>
<path fill="none" stroke="black" d="M403.35,-194C411.36,-194 407.85,-181.83 402.35,-176 378.09,-150.3 278.22,-168.06 244.35,-158 230.06,-153.76 228.4,-147.97 214.35,-143 200.06,-137.95 154.85,-141.54 138.41,-133.06"/>
<polygon fill="black" stroke="black" points="141.16,-130.89 132.35,-125 135.56,-135.1 141.16,-130.89"/>
<text text-anchor="middle" x="126.85" y="-128.8" font-family="Times,serif" font-size="14.00">i1</text>
<text text-anchor="middle" x="424.35" y="-182.8" font-family="Times,serif" font-size="14.00">/right&#45;lt</text>
</g>
<!-- r0 -->
<g id="node6" class="node">
<title>r0</title>
<g id="a_node6"><a xlink:href="file:///Users/andrew/workspace/flow/flowstdlib/control/join/join.html" xlink:title="join (#0)">
<ellipse fill="coral" stroke="black" cx="378.35" cy="-107" rx="41.69" ry="18"/>
<text text-anchor="middle" x="378.35" y="-103.3" font-family="Times,serif" font-size="14.00">join (#0)</text>
</a>
</g>
</g>
<!-- r3&#45;&gt;r0 -->
<g id="edge6" class="edge">
<title>r3:sw&#45;&gt;r0:ne</title>
<path fill="none" stroke="black" d="M326.35,-176C303.17,-152.83 390.7,-151.73 398.66,-134.77"/>
<polygon fill="black" stroke="black" points="401.88,-133.34 395.35,-125 395.25,-135.59 401.88,-133.34"/>
<text text-anchor="middle" x="375.85" y="-128.8" font-family="Times,serif" font-size="14.00">control</text>
<text text-anchor="middle" x="351.85" y="-164.8" font-family="Times,serif" font-size="14.00">/right&#45;gte</text>
</g>
<!-- initializerr3_1 -->
<!-- initializerr3_1&#45;&gt;r3 -->
<g id="edge2" class="edge">
<title>initializerr3_1&#45;&gt;r3:ne</title>
<path fill="none" stroke="blue" stroke-dasharray="1,5" d="M366.31,-262.94C369.73,-250.33 372.25,-233.18 366.09,-220.21"/>
<polygon fill="blue" stroke="blue" points="368.95,-218.18 360.35,-212 363.22,-222.2 368.95,-218.18"/>
<text text-anchor="middle" x="372.85" y="-233.8" font-family="Times,serif" font-size="14.00">1</text>
</g>
<!-- r4&#45;&gt;r3 -->
<g id="edge9" class="edge">
<title>r4:se&#45;&gt;r3:ne</title>
<path fill="none" stroke="black" d="M149.35,-89C156.67,-81.67 164.17,-84.03 172.64,-90 199.33,-108.79 174.1,-138.6 200.35,-158 236.5,-184.72 371.5,-142.83 401.84,-176 412.34,-187.48 412.71,-199.87 401.84,-211 397.16,-215.8 380.82,-217.59 369.73,-215.72"/>
<polygon fill="black" stroke="black" points="370.93,-212.43 360.35,-212 368.36,-218.94 370.93,-212.43"/>
<text text-anchor="middle" x="373.35" y="-215.8" font-family="Times,serif" font-size="14.00">right</text>
<text text-anchor="middle" x="135.35" y="-77.8" font-family="Times,serif" font-size="14.00">/sum</text>
</g>
<!-- r4&#45;&gt;r4 -->
<g id="edge8" class="edge">
<title>r4:se&#45;&gt;r4:ne</title>
<path fill="none" stroke="black" d="M149.35,-90C186.78,-81 244.64,-81 244.64,-107 244.64,-130.77 196.3,-132.81 159.4,-126.11"/>
<polygon fill="black" stroke="black" points="159.85,-122.63 149.35,-124 158.41,-129.48 159.85,-122.63"/>
<text text-anchor="middle" x="143.85" y="-127.8" font-family="Times,serif" font-size="14.00">i2</text>
<text text-anchor="middle" x="156.85" y="-78.8" font-family="Times,serif" font-size="14.00">/i2</text>
</g>
<!-- r0&#45;&gt;r2 -->
<g id="edge11" class="edge">
<title>r0:e&#45;&gt;r2:n</title>
<path fill="none" stroke="black" d="M421.35,-107C429.36,-107 425.34,-95.27 420.35,-89 385.91,-45.75 304.21,-102.62 293.51,-62.18"/>
<polygon fill="black" stroke="black" points="296.96,-61.54 292.35,-52 290,-62.33 296.96,-61.54"/>
</g>
<!-- initializerr4_1 -->
<!-- initializerr4_1&#45;&gt;r4 -->
<g id="edge7" class="edge">
<title>initializerr4_1&#45;&gt;r4:w</title>
<path fill="none" stroke="blue" stroke-dasharray="1,5" d="M132.83,-176.82C107.91,-155.42 69.3,-119.24 80.54,-109.48"/>
<polygon fill="blue" stroke="blue" points="81.51,-112.85 90.35,-107 79.79,-106.06 81.51,-112.85"/>
<text text-anchor="middle" x="114.85" y="-146.8" font-family="Times,serif" font-size="14.00">1</text>
</g>
<!-- initializerr0_0 -->
<!-- initializerr0_0&#45;&gt;r0 -->
<g id="edge10" class="edge">
<title>initializerr0_0&#45;&gt;r0:nw</title>
<path fill="none" stroke="blue" stroke-dasharray="1,5" d="M508.63,-181.47C460.76,-168.43 387.94,-147.24 366.57,-133.56"/>
<polygon fill="blue" stroke="blue" points="369.54,-131.72 361.35,-125 363.56,-135.36 369.54,-131.72"/>
<text text-anchor="middle" x="465.85" y="-146.8" font-family="Times,serif" font-size="14.00">&quot;Range done&quot;</text>
</g>
</g>
</svg>
