<?xml version="1.0" encoding="UTF-8" standalone="no"?>
<!DOCTYPE svg PUBLIC "-//W3C//DTD SVG 1.1//EN"
 "http://www.w3.org/Graphics/SVG/1.1/DTD/svg11.dtd">
<!-- Generated by graphviz version 2.42.4 (0)
 -->
<!-- Title: range Pages: 1 -->
<svg width="802pt" height="424pt"
 viewBox="0.00 0.00 802.24 424.00" xmlns="http://www.w3.org/2000/svg" xmlns:xlink="http://www.w3.org/1999/xlink">
<g id="graph0" class="graph" transform="scale(1 1) rotate(0) translate(4 420)">
<title>range</title>
<polygon fill="white" stroke="transparent" points="-4,4 -4,-420 798.24,-420 798.24,4 -4,4"/>
<text text-anchor="middle" x="397.12" y="-400.8" font-family="Times,serif" font-size="14.00">/range</text>
<g id="clust1" class="cluster">
<title>cluster_sequence</title>
<polygon fill="none" stroke="black" points="175.84,-8 175.84,-330 579.84,-330 579.84,-8 175.84,-8"/>
<text text-anchor="middle" x="377.84" y="-314.8" font-family="Times,serif" font-size="14.00">/range/sequence</text>
</g>
<!-- r0 -->
<g id="node1" class="node">
<title>r0</title>
<g id="a_node1"><a xlink:href="file:///home/andrew/workspace/flow/flowruntime/args/get.html" xlink:title="args (#0)">
<ellipse fill="coral" stroke="black" cx="100.84" cy="-375" rx="54.69" ry="18"/>
<text text-anchor="middle" x="100.84" y="-371.3" font-family="Times,serif" font-size="14.00">args (#0)</text>
</a>
</g>
</g>
<!-- r1 -->
<g id="node2" class="node">
<title>r1</title>
<g id="a_node2"><a xlink:href="file:///home/andrew/workspace/flow/flowstdlib/fmt/to_number/to_number.html" xlink:title="to_number (#1)">
<ellipse fill="coral" stroke="black" cx="83.84" cy="-281" rx="83.69" ry="18"/>
<text text-anchor="middle" x="83.84" y="-277.3" font-family="Times,serif" font-size="14.00">to_number (#1)</text>
</a>
</g>
</g>
<!-- r0&#45;&gt;r1 -->
<g id="edge1" class="edge">
<title>r0:sw&#45;&gt;r1:n</title>
<path fill="none" stroke="black" d="M83.84,-357C68.45,-341.61 79.51,-329.28 82.93,-310.04"/>
<polygon fill="black" stroke="black" points="86.42,-310.28 83.84,-300 79.45,-309.64 86.42,-310.28"/>
<text text-anchor="middle" x="76.84" y="-345.8" font-family="Times,serif" font-size="14.00">/1</text>
</g>
<!-- r2 -->
<g id="node3" class="node">
<title>r2</title>
<g id="a_node3"><a xlink:href="file:///home/andrew/workspace/flow/flowstdlib/control/compare_switch/compare_switch.html" xlink:title="compare (#2)">
<ellipse fill="coral" stroke="black" cx="479.84" cy="-194" rx="74.19" ry="18"/>
<text text-anchor="middle" x="479.84" y="-190.3" font-family="Times,serif" font-size="14.00">compare (#2)</text>
</a>
</g>
</g>
<!-- r1&#45;&gt;r2 -->
<g id="edge2" class="edge">
<title>r1:e&#45;&gt;r2:n</title>
<path fill="none" stroke="black" d="M168.84,-281C172.9,-281 168.97,-265.87 171.84,-263 218.34,-216.55 453.12,-274.59 477.75,-221.87"/>
<polygon fill="black" stroke="black" points="481.19,-222.51 479.84,-212 474.35,-221.06 481.19,-222.51"/>
<text text-anchor="middle" x="467.34" y="-215.8" font-family="Times,serif" font-size="14.00">left</text>
</g>
<!-- r2&#45;&gt;r2 -->
<g id="edge5" class="edge">
<title>r2:s&#45;&gt;r2:n</title>
<path fill="none" stroke="black" d="M479.84,-176C528.54,-165.5 625.94,-165.5 625.94,-194 625.94,-220.66 540.69,-222.38 489.83,-213.89"/>
<polygon fill="black" stroke="black" points="490.32,-210.43 479.84,-212 489.01,-217.3 490.32,-210.43"/>
<text text-anchor="middle" x="492.34" y="-215.8" font-family="Times,serif" font-size="14.00">left</text>
<text text-anchor="middle" x="455.34" y="-164.8" font-family="Times,serif" font-size="14.00">/left&#45;gt</text>
</g>
<!-- r5 -->
<g id="node5" class="node">
<title>r5</title>
<g id="a_node5"><a xlink:href="file:///home/andrew/workspace/flow/flowruntime/stdio/stdout.html" xlink:title="print (#5)">
<ellipse fill="coral" stroke="black" cx="427.84" cy="-34" rx="57.39" ry="18"/>
<text text-anchor="middle" x="427.84" y="-30.3" font-family="Times,serif" font-size="14.00">print (#5)</text>
</a>
</g>
</g>
<!-- r2&#45;&gt;r5 -->
<g id="edge4" class="edge">
<title>r2:e&#45;&gt;r5:n</title>
<path fill="none" stroke="black" d="M554.84,-194C562.85,-194 559.16,-182 553.84,-176 523.61,-141.87 490.15,-184.21 452.84,-158 418.17,-133.64 421.32,-112.71 413.84,-71 412.74,-64.87 417.89,-63.02 422.24,-60.33"/>
<polygon fill="black" stroke="black" points="425.17,-62.25 427.84,-52 419.36,-58.35 425.17,-62.25"/>
<text text-anchor="middle" x="586.84" y="-197.8" font-family="Times,serif" font-size="14.00">/right&#45;lte</text>
</g>
<!-- r3 -->
<g id="node6" class="node">
<title>r3</title>
<g id="a_node6"><a xlink:href="file:///home/andrew/workspace/flow/flowstdlib/math/add/add.html" xlink:title="add (#3)">
<ellipse fill="coral" stroke="black" cx="254.84" cy="-107" rx="51.19" ry="18"/>
<text text-anchor="middle" x="254.84" y="-103.3" font-family="Times,serif" font-size="14.00">add (#3)</text>
</a>
</g>
</g>
<!-- r2&#45;&gt;r3 -->
<g id="edge6" class="edge">
<title>r2:e&#45;&gt;r3:n</title>
<path fill="none" stroke="black" d="M554.84,-194C562.85,-194 559.38,-181.8 553.84,-176 526.7,-147.56 416.51,-165.12 377.84,-158 377.48,-157.93 293.37,-135.65 264.46,-127.74"/>
<polygon fill="black" stroke="black" points="265.42,-124.37 254.84,-125 263.5,-131.11 265.42,-124.37"/>
<text text-anchor="middle" x="247.84" y="-128.8" font-family="Times,serif" font-size="14.00">i1</text>
<text text-anchor="middle" x="582.34" y="-182.8" font-family="Times,serif" font-size="14.00">/right&#45;lt</text>
</g>
<!-- r4 -->
<g id="node7" class="node">
<title>r4</title>
<g id="a_node7"><a xlink:href="file:///home/andrew/workspace/flow/flowstdlib/control/join/join.html" xlink:title="join (#4)">
<ellipse fill="coral" stroke="black" cx="520.84" cy="-107" rx="51.19" ry="18"/>
<text text-anchor="middle" x="520.84" y="-103.3" font-family="Times,serif" font-size="14.00">join (#4)</text>
</a>
</g>
</g>
<!-- r2&#45;&gt;r4 -->
<g id="edge7" class="edge">
<title>r2:sw&#45;&gt;r4:ne</title>
<path fill="none" stroke="black" d="M461.84,-176C436.67,-150.83 535.76,-152.68 541.66,-134.27"/>
<polygon fill="black" stroke="black" points="544.88,-132.92 537.84,-125 538.41,-135.58 544.88,-132.92"/>
<text text-anchor="middle" x="512.34" y="-128.8" font-family="Times,serif" font-size="14.00">control</text>
<text text-anchor="middle" x="495.84" y="-164.8" font-family="Times,serif" font-size="14.00">/right&#45;gte</text>
</g>
<!-- initializerr2_1 -->
<!-- initializerr2_1&#45;&gt;r2 -->
<g id="edge3" class="edge">
<title>initializerr2_1&#45;&gt;r2:ne</title>
<path fill="none" stroke="blue" stroke-dasharray="1,5" d="M503.14,-262.94C506.77,-250.46 509.56,-233.51 503.73,-220.58"/>
<polygon fill="blue" stroke="blue" points="506.38,-218.27 497.84,-212 500.61,-222.23 506.38,-218.27"/>
<text text-anchor="middle" x="511.84" y="-233.8" font-family="Times,serif" font-size="14.00">1</text>
</g>
<!-- r3&#45;&gt;r2 -->
<g id="edge10" class="edge">
<title>r3:se&#45;&gt;r2:ne</title>
<path fill="none" stroke="black" d="M271.84,-89C282.64,-78.2 295.5,-79.1 306.19,-90 327.35,-111.58 286.16,-135.97 306.84,-158 344.53,-198.14 516.45,-135.68 553.94,-176 564.83,-187.72 565.15,-200.59 553.94,-212 547.11,-218.95 522.09,-221.03 507.27,-217.41"/>
<polygon fill="black" stroke="black" points="508.38,-214.06 497.84,-213 505.42,-220.4 508.38,-214.06"/>
<text text-anchor="middle" x="515.84" y="-216.8" font-family="Times,serif" font-size="14.00">right</text>
<text text-anchor="middle" x="254.34" y="-77.8" font-family="Times,serif" font-size="14.00">/sum</text>
</g>
<!-- r3&#45;&gt;r3 -->
<g id="edge9" class="edge">
<title>r3:se&#45;&gt;r3:ne</title>
<path fill="none" stroke="black" d="M271.84,-90C312.96,-81 378.19,-81 378.19,-107 378.19,-130.97 322.75,-132.84 281.88,-125.94"/>
<polygon fill="black" stroke="black" points="282.32,-122.46 271.84,-124 281,-129.33 282.32,-122.46"/>
<text text-anchor="middle" x="264.84" y="-127.8" font-family="Times,serif" font-size="14.00">i2</text>
<text text-anchor="middle" x="281.34" y="-78.8" font-family="Times,serif" font-size="14.00">/i2</text>
</g>
<!-- r4&#45;&gt;r5 -->
<g id="edge12" class="edge">
<title>r4:e&#45;&gt;r5:n</title>
<path fill="none" stroke="black" d="M573.84,-107C581.85,-107 577.93,-95.19 572.84,-89 533.07,-40.64 439.68,-109.49 428.87,-62.23"/>
<polygon fill="black" stroke="black" points="432.32,-61.6 427.84,-52 425.36,-62.3 432.32,-61.6"/>
</g>
<!-- initializerr3_1 -->
<!-- initializerr3_1&#45;&gt;r3 -->
<g id="edge8" class="edge">
<title>initializerr3_1&#45;&gt;r3:w</title>
<path fill="none" stroke="blue" stroke-dasharray="1,5" d="M240.03,-176.42C216.8,-155.14 181.54,-119.76 191.94,-109.73"/>
<polygon fill="blue" stroke="blue" points="193.13,-113.03 201.84,-107 191.27,-106.28 193.13,-113.03"/>
<text text-anchor="middle" x="224.84" y="-146.8" font-family="Times,serif" font-size="14.00">1</text>
</g>
<!-- initializerr4_0 -->
<!-- initializerr4_0&#45;&gt;r4 -->
<g id="edge11" class="edge">
<title>initializerr4_0&#45;&gt;r4:nw</title>
<path fill="none" stroke="blue" stroke-dasharray="1,5" d="M666.27,-181C611.94,-168.12 531.95,-147.63 509.15,-133.74"/>
<polygon fill="blue" stroke="blue" points="512.03,-131.73 503.84,-125 506.04,-135.36 512.03,-131.73"/>
<text text-anchor="middle" x="620.84" y="-146.8" font-family="Times,serif" font-size="14.00">&quot;Range done&quot;</text>
</g>
</g>
</svg>
