<?xml version="1.0" encoding="UTF-8" standalone="no"?>
<!DOCTYPE svg PUBLIC "-//W3C//DTD SVG 1.1//EN"
 "http://www.w3.org/Graphics/SVG/1.1/DTD/svg11.dtd">
<!-- Generated by graphviz version 2.44.0 (20200408.0750)
 -->
<!-- Title: range Pages: 1 -->
<svg width="652pt" height="424pt"
 viewBox="0.00 0.00 652.39 424.00" xmlns="http://www.w3.org/2000/svg" xmlns:xlink="http://www.w3.org/1999/xlink">
<g id="graph0" class="graph" transform="scale(1 1) rotate(0) translate(4 420)">
<title>range</title>
<polygon fill="white" stroke="transparent" points="-4,4 -4,-420 648.39,-420 648.39,4 -4,4"/>
<text text-anchor="middle" x="322.19" y="-400.8" font-family="Times,serif" font-size="14.00">/range</text>
<g id="clust1" class="cluster">
<title>cluster_sequence</title>
<polygon fill="none" stroke="black" points="115.95,-8 115.95,-330 459.95,-330 459.95,-8 115.95,-8"/>
<text text-anchor="middle" x="287.95" y="-314.8" font-family="Times,serif" font-size="14.00">/range/sequence</text>
</g>
<!-- r0 -->
<g id="node1" class="node">
<title>r0</title>
<g id="a_node1"><a xlink:href="file:///Users/andrew/workspace/flow/flowruntime/args/get.html" xlink:title="args (#0)">
<ellipse fill="coral" stroke="black" cx="70.95" cy="-375" rx="42.49" ry="18"/>
<text text-anchor="middle" x="70.95" y="-371.3" font-family="Times,serif" font-size="14.00">args (#0)</text>
</a>
</g>
</g>
<!-- r1 -->
<g id="node2" class="node">
<title>r1</title>
<g id="a_node2"><a xlink:href="file:///Users/andrew/workspace/flow/flowstdlib/fmt/to_json/to_json.html" xlink:title="to_json (#1)">
<ellipse fill="coral" stroke="black" cx="53.95" cy="-281" rx="53.89" ry="18"/>
<text text-anchor="middle" x="53.95" y="-277.3" font-family="Times,serif" font-size="14.00">to_json (#1)</text>
</a>
</g>
</g>
<!-- r0&#45;&gt;r1 -->
<g id="edge1" class="edge">
<title>r0:sw&#45;&gt;r1:n</title>
<path fill="none" stroke="black" d="M53.95,-357C38.55,-341.61 49.62,-329.28 53.03,-310.04"/>
<polygon fill="black" stroke="black" points="56.53,-310.28 53.95,-300 49.55,-309.64 56.53,-310.28"/>
<text text-anchor="middle" x="48.45" y="-345.8" font-family="Times,serif" font-size="14.00">/1</text>
</g>
<!-- r2 -->
<g id="node3" class="node">
<title>r2</title>
<g id="a_node3"><a xlink:href="file:///Users/andrew/workspace/flow/flowstdlib/control/compare_switch/compare_switch.html" xlink:title="compare (#2)">
<ellipse fill="coral" stroke="black" cx="374.95" cy="-194" rx="58.49" ry="18"/>
<text text-anchor="middle" x="374.95" y="-190.3" font-family="Times,serif" font-size="14.00">compare (#2)</text>
</a>
</g>
</g>
<!-- r1&#45;&gt;r2 -->
<g id="edge2" class="edge">
<title>r1:e&#45;&gt;r2:n</title>
<path fill="none" stroke="black" d="M108.95,-281C113,-281 109.12,-265.91 111.95,-263 192.5,-180.29 364.14,-322 374.46,-222.08"/>
<polygon fill="black" stroke="black" points="377.96,-222.16 374.95,-212 370.97,-221.82 377.96,-222.16"/>
<text text-anchor="middle" x="365.45" y="-215.8" font-family="Times,serif" font-size="14.00">left</text>
</g>
<!-- r2&#45;&gt;r2 -->
<g id="edge5" class="edge">
<title>r2:s&#45;&gt;r2:n</title>
<path fill="none" stroke="black" d="M374.95,-176C418.44,-165.5 505.44,-165.5 505.44,-194 505.44,-220.44 430.56,-222.35 385.01,-214.11"/>
<polygon fill="black" stroke="black" points="385.45,-210.62 374.95,-212 384.02,-217.47 385.45,-210.62"/>
<text text-anchor="middle" x="384.45" y="-215.8" font-family="Times,serif" font-size="14.00">left</text>
<text text-anchor="middle" x="356.45" y="-164.8" font-family="Times,serif" font-size="14.00">/left&#45;gt</text>
</g>
<!-- r5 -->
<g id="node5" class="node">
<title>r5</title>
<g id="a_node5"><a xlink:href="file:///Users/andrew/workspace/flow/flowruntime/stdio/stdout.html" xlink:title="print (#5)">
<ellipse fill="coral" stroke="black" cx="324.95" cy="-34" rx="44.39" ry="18"/>
<text text-anchor="middle" x="324.95" y="-30.3" font-family="Times,serif" font-size="14.00">print (#5)</text>
</a>
</g>
</g>
<!-- r2&#45;&gt;r5 -->
<g id="edge4" class="edge">
<title>r2:e&#45;&gt;r5:n</title>
<path fill="none" stroke="black" d="M434.95,-194C442.96,-194 439.15,-182.09 433.95,-176 409.13,-146.99 380.54,-180.84 349.95,-158 316.13,-132.76 319.39,-112.53 311.95,-71 310.9,-65.18 315.41,-63.16 319.4,-60.51"/>
<polygon fill="black" stroke="black" points="322.42,-62.29 324.95,-52 316.55,-58.47 322.42,-62.29"/>
<text text-anchor="middle" x="458.95" y="-197.8" font-family="Times,serif" font-size="14.00">/right&#45;lte</text>
</g>
<!-- r3 -->
<g id="node6" class="node">
<title>r3</title>
<g id="a_node6"><a xlink:href="file:///Users/andrew/workspace/flow/flowstdlib/math/add/add.html" xlink:title="add (#3)">
<ellipse fill="coral" stroke="black" cx="163.95" cy="-107" rx="40.09" ry="18"/>
<text text-anchor="middle" x="163.95" y="-103.3" font-family="Times,serif" font-size="14.00">add (#3)</text>
</a>
</g>
</g>
<!-- r2&#45;&gt;r3 -->
<g id="edge6" class="edge">
<title>r2:e&#45;&gt;r3:n</title>
<path fill="none" stroke="black" d="M434.95,-194C442.96,-194 439.44,-181.83 433.95,-176 409.69,-150.3 309.82,-168.06 275.95,-158 261.65,-153.76 260,-147.97 245.95,-143 231.65,-137.95 186.45,-141.54 170.01,-133.06"/>
<polygon fill="black" stroke="black" points="172.75,-130.89 163.95,-125 167.16,-135.1 172.75,-130.89"/>
<text text-anchor="middle" x="158.45" y="-128.8" font-family="Times,serif" font-size="14.00">i1</text>
<text text-anchor="middle" x="455.95" y="-182.8" font-family="Times,serif" font-size="14.00">/right&#45;lt</text>
</g>
<!-- r4 -->
<g id="node7" class="node">
<title>r4</title>
<g id="a_node7"><a xlink:href="file:///Users/andrew/workspace/flow/flowstdlib/control/join/join.html" xlink:title="join (#4)">
<ellipse fill="coral" stroke="black" cx="409.95" cy="-107" rx="41.69" ry="18"/>
<text text-anchor="middle" x="409.95" y="-103.3" font-family="Times,serif" font-size="14.00">join (#4)</text>
</a>
</g>
</g>
<!-- r2&#45;&gt;r4 -->
<g id="edge7" class="edge">
<title>r2:sw&#45;&gt;r4:ne</title>
<path fill="none" stroke="black" d="M357.95,-176C334.77,-152.83 422.3,-151.73 430.26,-134.77"/>
<polygon fill="black" stroke="black" points="433.47,-133.34 426.95,-125 426.85,-135.59 433.47,-133.34"/>
<text text-anchor="middle" x="407.45" y="-128.8" font-family="Times,serif" font-size="14.00">control</text>
<text text-anchor="middle" x="383.45" y="-164.8" font-family="Times,serif" font-size="14.00">/right&#45;gte</text>
</g>
<!-- initializerr2_1 -->
<!-- initializerr2_1&#45;&gt;r2 -->
<g id="edge3" class="edge">
<title>initializerr2_1&#45;&gt;r2:ne</title>
<path fill="none" stroke="blue" stroke-dasharray="1,5" d="M397.91,-262.94C401.33,-250.33 403.85,-233.18 397.69,-220.21"/>
<polygon fill="blue" stroke="blue" points="400.55,-218.18 391.95,-212 394.81,-222.2 400.55,-218.18"/>
<text text-anchor="middle" x="404.45" y="-233.8" font-family="Times,serif" font-size="14.00">1</text>
</g>
<!-- r3&#45;&gt;r2 -->
<g id="edge10" class="edge">
<title>r3:se&#45;&gt;r2:ne</title>
<path fill="none" stroke="black" d="M180.95,-89C188.27,-81.67 195.77,-84.03 204.24,-90 230.93,-108.79 205.7,-138.6 231.95,-158 268.1,-184.72 403.1,-142.83 433.44,-176 443.94,-187.48 444.31,-199.87 433.44,-211 428.76,-215.8 412.42,-217.59 401.33,-215.72"/>
<polygon fill="black" stroke="black" points="402.53,-212.43 391.95,-212 399.95,-218.94 402.53,-212.43"/>
<text text-anchor="middle" x="404.95" y="-215.8" font-family="Times,serif" font-size="14.00">right</text>
<text text-anchor="middle" x="166.95" y="-77.8" font-family="Times,serif" font-size="14.00">/sum</text>
</g>
<!-- r3&#45;&gt;r3 -->
<g id="edge9" class="edge">
<title>r3:se&#45;&gt;r3:ne</title>
<path fill="none" stroke="black" d="M180.95,-90C218.38,-81 276.24,-81 276.24,-107 276.24,-130.77 227.9,-132.81 191,-126.11"/>
<polygon fill="black" stroke="black" points="191.45,-122.63 180.95,-124 190.01,-129.48 191.45,-122.63"/>
<text text-anchor="middle" x="175.45" y="-127.8" font-family="Times,serif" font-size="14.00">i2</text>
<text text-anchor="middle" x="188.45" y="-78.8" font-family="Times,serif" font-size="14.00">/i2</text>
</g>
<!-- r4&#45;&gt;r5 -->
<g id="edge12" class="edge">
<title>r4:e&#45;&gt;r5:n</title>
<path fill="none" stroke="black" d="M452.95,-107C460.96,-107 456.93,-95.27 451.95,-89 417.8,-46.03 336.72,-102.29 326.1,-62.11"/>
<polygon fill="black" stroke="black" points="329.56,-61.54 324.95,-52 322.6,-62.33 329.56,-61.54"/>
</g>
<!-- initializerr3_1 -->
<!-- initializerr3_1&#45;&gt;r3 -->
<g id="edge8" class="edge">
<title>initializerr3_1&#45;&gt;r3:w</title>
<path fill="none" stroke="blue" stroke-dasharray="1,5" d="M164.43,-176.82C139.51,-155.42 100.9,-119.24 112.14,-109.48"/>
<polygon fill="blue" stroke="blue" points="113.11,-112.85 121.95,-107 111.39,-106.06 113.11,-112.85"/>
<text text-anchor="middle" x="146.45" y="-146.8" font-family="Times,serif" font-size="14.00">1</text>
</g>
<!-- initializerr4_0 -->
<!-- initializerr4_0&#45;&gt;r4 -->
<g id="edge11" class="edge">
<title>initializerr4_0&#45;&gt;r4:nw</title>
<path fill="none" stroke="blue" stroke-dasharray="1,5" d="M540.23,-181.47C492.36,-168.43 419.54,-147.24 398.17,-133.56"/>
<polygon fill="blue" stroke="blue" points="401.14,-131.72 392.95,-125 395.16,-135.36 401.14,-131.72"/>
<text text-anchor="middle" x="497.45" y="-146.8" font-family="Times,serif" font-size="14.00">&quot;Range done&quot;</text>
</g>
</g>
</svg>
