<?xml version="1.0" encoding="UTF-8" standalone="no"?>
<!DOCTYPE svg PUBLIC "-//W3C//DTD SVG 1.1//EN"
 "http://www.w3.org/Graphics/SVG/1.1/DTD/svg11.dtd">
<!-- Generated by graphviz version 2.42.3 (20191010.1750)
 -->
<!-- Title: range Pages: 1 -->
<svg width="673pt" height="420pt"
 viewBox="0.00 0.00 672.57 420.00" xmlns="http://www.w3.org/2000/svg" xmlns:xlink="http://www.w3.org/1999/xlink">
<g id="graph0" class="graph" transform="scale(1 1) rotate(0) translate(4 416)">
<title>range</title>
<polygon fill="white" stroke="transparent" points="-4,4 -4,-416 668.57,-416 668.57,4 -4,4"/>
<text text-anchor="middle" x="332.28" y="-396.8" font-family="Times,serif" font-size="14.00">/range</text>
<g id="clust1" class="cluster">
<title>cluster_sequence</title>
<polygon fill="none" stroke="black" points="138.37,-8 138.37,-327 480.37,-327 480.37,-8 138.37,-8"/>
<text text-anchor="middle" x="309.37" y="-311.8" font-family="Times,serif" font-size="14.00">/range/sequence</text>
</g>
<!-- r0 -->
<g id="node1" class="node">
<title>r0</title>
<g id="a_node1"><a xlink:href="args" xlink:title="args (#0)">
<ellipse fill="coral" stroke="black" cx="82.37" cy="-372" rx="41.76" ry="18"/>
<text text-anchor="middle" x="82.37" y="-367.8" font-family="Times,serif" font-size="14.00">args (#0)</text>
</a>
</g>
</g>
<!-- r1 -->
<g id="node2" class="node">
<title>r1</title>
<g id="a_node2"><a xlink:href="to_number" xlink:title="to_number (#1)">
<ellipse fill="coral" stroke="black" cx="65.37" cy="-279" rx="65.23" ry="18"/>
<text text-anchor="middle" x="65.37" y="-274.8" font-family="Times,serif" font-size="14.00">to_number (#1)</text>
</a>
</g>
</g>
<!-- r0&#45;&gt;r1 -->
<g id="edge1" class="edge">
<title>r0:sw&#45;&gt;r1:n</title>
<path fill="none" stroke="black" d="M65.37,-354C50.31,-338.94 61.01,-326.88 64.42,-308.13"/>
<polygon fill="black" stroke="black" points="67.92,-308.28 65.37,-298 60.95,-307.63 67.92,-308.28"/>
<text text-anchor="middle" x="59.92" y="-342.8" font-family="Times,serif" font-size="14.00">/1</text>
</g>
<!-- r2 -->
<g id="node3" class="node">
<title>r2</title>
<g id="a_node3"><a xlink:href="compare" xlink:title="compare (#2)">
<ellipse fill="coral" stroke="black" cx="396.37" cy="-193" rx="57.49" ry="18"/>
<text text-anchor="middle" x="396.37" y="-188.8" font-family="Times,serif" font-size="14.00">compare (#2)</text>
</a>
</g>
</g>
<!-- r1&#45;&gt;r2 -->
<g id="edge2" class="edge">
<title>r1:e&#45;&gt;r2:n</title>
<path fill="none" stroke="black" d="M132.37,-279C136.39,-279 131.63,-263.95 134.37,-261 212.42,-176.61 385.47,-320.35 395.87,-221.03"/>
<polygon fill="black" stroke="black" points="399.37,-221.16 396.37,-211 392.38,-220.82 399.37,-221.16"/>
<text text-anchor="middle" x="387.04" y="-213.8" font-family="Times,serif" font-size="14.00">left</text>
</g>
<!-- r2&#45;&gt;r2 -->
<g id="edge5" class="edge">
<title>r2:s&#45;&gt;r2:n</title>
<path fill="none" stroke="black" d="M396.37,-175C439.53,-164.5 525.86,-164.5 525.86,-193 525.86,-219.44 451.56,-221.35 406.35,-213.11"/>
<polygon fill="black" stroke="black" points="406.87,-209.64 396.37,-211 405.43,-216.49 406.87,-209.64"/>
<text text-anchor="middle" x="405.69" y="-213.8" font-family="Times,serif" font-size="14.00">left</text>
<text text-anchor="middle" x="377.32" y="-163.8" font-family="Times,serif" font-size="14.00">/left&#45;gt</text>
</g>
<!-- r5 -->
<g id="node5" class="node">
<title>r5</title>
<g id="a_node5"><a xlink:href="print" xlink:title="print (#5)">
<ellipse fill="coral" stroke="black" cx="347.37" cy="-34" rx="43.51" ry="18"/>
<text text-anchor="middle" x="347.37" y="-29.8" font-family="Times,serif" font-size="14.00">print (#5)</text>
</a>
</g>
</g>
<!-- r2&#45;&gt;r5 -->
<g id="edge4" class="edge">
<title>r2:e&#45;&gt;r5:n</title>
<path fill="none" stroke="black" d="M455.37,-193C463.38,-193 459.57,-181.1 454.37,-175 429.87,-146.29 401.46,-179.78 371.37,-157 338.19,-131.88 341.71,-111.96 334.37,-71 333.32,-65.18 337.83,-63.16 341.82,-60.51"/>
<polygon fill="black" stroke="black" points="344.84,-62.29 347.37,-52 338.97,-58.47 344.84,-62.29"/>
<text text-anchor="middle" x="479.86" y="-195.8" font-family="Times,serif" font-size="14.00">/right&#45;lte</text>
</g>
<!-- r3 -->
<g id="node6" class="node">
<title>r3</title>
<g id="a_node6"><a xlink:href="add" xlink:title="add (#3)">
<ellipse fill="coral" stroke="black" cx="186.37" cy="-107" rx="39.64" ry="18"/>
<text text-anchor="middle" x="186.37" y="-102.8" font-family="Times,serif" font-size="14.00">add (#3)</text>
</a>
</g>
</g>
<!-- r2&#45;&gt;r3 -->
<g id="edge6" class="edge">
<title>r2:e&#45;&gt;r3:n</title>
<path fill="none" stroke="black" d="M455.37,-193C463.38,-193 459.86,-180.83 454.37,-175 430.43,-149.6 331.94,-166.5 298.37,-157 284.21,-152.99 282.3,-147.72 268.37,-143 254.01,-138.14 208.85,-141.61 192.42,-133.08"/>
<polygon fill="black" stroke="black" points="195.16,-130.9 186.37,-125 189.56,-135.1 195.16,-130.9"/>
<text text-anchor="middle" x="180.92" y="-127.8" font-family="Times,serif" font-size="14.00">i1</text>
<text text-anchor="middle" x="476.75" y="-181.8" font-family="Times,serif" font-size="14.00">/right&#45;lt</text>
</g>
<!-- r4 -->
<g id="node7" class="node">
<title>r4</title>
<g id="a_node7"><a xlink:href="join" xlink:title="join (#4)">
<ellipse fill="coral" stroke="black" cx="431.37" cy="-107" rx="40.62" ry="18"/>
<text text-anchor="middle" x="431.37" y="-102.8" font-family="Times,serif" font-size="14.00">join (#4)</text>
</a>
</g>
</g>
<!-- r2&#45;&gt;r4 -->
<g id="edge7" class="edge">
<title>r2:sw&#45;&gt;r4:ne</title>
<path fill="none" stroke="black" d="M379.37,-175C356.35,-151.99 443.63,-151.38 451.63,-134.67"/>
<polygon fill="black" stroke="black" points="454.88,-133.35 448.37,-125 448.25,-135.59 454.88,-133.35"/>
<text text-anchor="middle" x="428.54" y="-127.8" font-family="Times,serif" font-size="14.00">control</text>
<text text-anchor="middle" x="405.41" y="-163.8" font-family="Times,serif" font-size="14.00">/right&#45;gte</text>
</g>
<!-- initializerr2_1 -->
<!-- initializerr2_1&#45;&gt;r2 -->
<g id="edge3" class="edge">
<title>initializerr2_1&#45;&gt;r2:ne</title>
<path fill="none" stroke="blue" stroke-dasharray="1,5" d="M418.66,-260.9C422.2,-248.61 424.87,-232.04 419.14,-219.4"/>
<polygon fill="blue" stroke="blue" points="421.91,-217.26 413.37,-211 416.14,-221.22 421.91,-217.26"/>
<text text-anchor="middle" x="425.87" y="-231.8" font-family="Times,serif" font-size="14.00">1</text>
</g>
<!-- r3&#45;&gt;r2 -->
<g id="edge10" class="edge">
<title>r3:se&#45;&gt;r2:ne</title>
<path fill="none" stroke="black" d="M202.37,-90C209.86,-82.51 217.47,-84.98 226.19,-91 252.43,-109.13 228.57,-138.24 254.37,-157 290.37,-183.17 423.83,-142.14 453.86,-175 464.35,-186.48 464.72,-198.87 453.86,-210 449.34,-214.63 433.69,-216.41 422.88,-214.68"/>
<polygon fill="black" stroke="black" points="423.95,-211.35 413.37,-211 421.43,-217.87 423.95,-211.35"/>
<text text-anchor="middle" x="426.59" y="-213.8" font-family="Times,serif" font-size="14.00">right</text>
<text text-anchor="middle" x="215.98" y="-78.8" font-family="Times,serif" font-size="14.00">/sum</text>
</g>
<!-- r3&#45;&gt;r3 -->
<g id="edge9" class="edge">
<title>r3:se&#45;&gt;r3:ne</title>
<path fill="none" stroke="black" d="M202.37,-91C239.64,-82 298.19,-82 298.19,-107 298.19,-129.85 249.27,-131.82 212.4,-125.11"/>
<polygon fill="black" stroke="black" points="212.87,-121.63 202.37,-123 211.43,-128.48 212.87,-121.63"/>
<text text-anchor="middle" x="207.81" y="-125.8" font-family="Times,serif" font-size="14.00">i2</text>
<text text-anchor="middle" x="194.98" y="-79.8" font-family="Times,serif" font-size="14.00">/i2</text>
</g>
<!-- r4&#45;&gt;r5 -->
<g id="edge12" class="edge">
<title>r4:e&#45;&gt;r5:n</title>
<path fill="none" stroke="black" d="M473.37,-107C481.38,-107 477.34,-95.28 472.37,-89 438.81,-46.58 358.96,-101.62 348.5,-61.97"/>
<polygon fill="black" stroke="black" points="351.98,-61.54 347.37,-52 345.02,-62.33 351.98,-61.54"/>
</g>
<!-- initializerr3_1 -->
<!-- initializerr3_1&#45;&gt;r3 -->
<g id="edge8" class="edge">
<title>initializerr3_1&#45;&gt;r3:w</title>
<path fill="none" stroke="blue" stroke-dasharray="1,5" d="M186.67,-175.61C162.32,-154.58 125.25,-119.61 135.42,-109.7"/>
<polygon fill="blue" stroke="blue" points="136.63,-113 145.37,-107 134.8,-106.24 136.63,-113"/>
<text text-anchor="middle" x="166.87" y="-145.8" font-family="Times,serif" font-size="14.00">1</text>
</g>
<!-- initializerr4_0 -->
<!-- initializerr4_0&#45;&gt;r4 -->
<g id="edge11" class="edge">
<title>initializerr4_0&#45;&gt;r4:nw</title>
<path fill="none" stroke="blue" stroke-dasharray="1,5" d="M560.63,-180.6C513.23,-167.83 441.45,-147.15 419.86,-133.66"/>
<polygon fill="blue" stroke="blue" points="422.67,-131.57 414.37,-125 416.76,-135.32 422.67,-131.57"/>
<text text-anchor="middle" x="513.32" y="-145.8" font-family="Times,serif" font-size="14.00">&quot;Range done&quot;</text>
</g>
</g>
</svg>
