<?xml version="1.0" encoding="UTF-8" standalone="no"?>
<!DOCTYPE svg PUBLIC "-//W3C//DTD SVG 1.1//EN"
 "http://www.w3.org/Graphics/SVG/1.1/DTD/svg11.dtd">
<!-- Generated by graphviz version 2.42.3 (20191010.1750)
 -->
<!-- Title: range Pages: 1 -->
<svg width="525pt" height="596pt"
 viewBox="28.80 28.80 496.14 567.45" xmlns="http://www.w3.org/2000/svg" xmlns:xlink="http://www.w3.org/1999/xlink">
<g id="graph0" class="graph" transform="scale(1 1) rotate(0) translate(32.8 563.45)">
<title>range</title>
<polygon fill="white" stroke="transparent" points="-4,4 -4,-534.65 463.34,-534.65 463.34,4 -4,4"/>
<text text-anchor="middle" x="229.67" y="-515.45" font-family="Times,serif" font-size="14.00">range</text>
<!-- /range/args -->
<g id="node1" class="node">
<title>/range/args</title>
<ellipse fill="coral" stroke="black" cx="32.2" cy="-483.19" rx="32.4" ry="25.41"/>
<text text-anchor="middle" x="32.2" y="-485.99" font-family="Times,serif" font-size="14.00">args</text>
<text text-anchor="middle" x="32.2" y="-471.99" font-family="Times,serif" font-size="14.00">(Get)</text>
</g>
<!-- /range/to_number -->
<g id="node2" class="node">
<title>/range/to_number</title>
<ellipse fill="coral" stroke="black" cx="126.2" cy="-395.28" rx="60.8" ry="25.41"/>
<text text-anchor="middle" x="126.2" y="-398.08" font-family="Times,serif" font-size="14.00">to_number</text>
<text text-anchor="middle" x="126.2" y="-384.08" font-family="Times,serif" font-size="14.00">(ToNumber)</text>
</g>
<!-- /range/args&#45;&gt;/range/to_number -->
<g id="edge2" class="edge">
<title>/range/args:e&#45;&gt;/range/to_number:w</title>
<path fill="none" stroke="black" d="M66.2,-483.19C100.4,-483.19 43.3,-415.88 54.67,-399.06"/>
<polygon fill="black" stroke="black" points="56.19,-402.22 64.2,-395.28 53.61,-395.71 56.19,-402.22"/>
<text text-anchor="middle" x="57.1" y="-442.16" font-family="Times,serif" font-size="14.00">[1]</text>
</g>
<!-- /range/sequence -->
<g id="node3" class="node">
<title>/range/sequence</title>
<g id="a_node3"><a xlink:href="lib://flowstdlib/math/sequence.dot" xlink:title="sequence">
<ellipse fill="aquamarine" stroke="black" cx="187.2" cy="-260.82" rx="72" ry="72"/>
<text text-anchor="middle" x="187.2" y="-256.62" font-family="Times,serif" font-size="14.00">sequence</text>
</a>
</g>
</g>
<!-- /range/to_number&#45;&gt;/range/sequence -->
<g id="edge3" class="edge">
<title>/range/to_number:e&#45;&gt;/range/sequence:n</title>
<path fill="none" stroke="black" d="M188.2,-395.28C212.71,-395.28 193.17,-368.24 188.25,-342.8"/>
<polygon fill="black" stroke="black" points="191.73,-342.4 187.2,-332.82 184.76,-343.13 191.73,-342.4"/>
<text text-anchor="middle" x="177.09" y="-335.62" font-family="Times,serif" font-size="14.00">end</text>
</g>
<!-- /range/join -->
<g id="node4" class="node">
<title>/range/join</title>
<ellipse fill="coral" stroke="black" cx="249.2" cy="-113.37" rx="34.32" ry="25.41"/>
<text text-anchor="middle" x="249.2" y="-116.17" font-family="Times,serif" font-size="14.00">join</text>
<text text-anchor="middle" x="249.2" y="-102.17" font-family="Times,serif" font-size="14.00">(Join)</text>
</g>
<!-- /range/sequence&#45;&gt;/range/join -->
<g id="edge5" class="edge">
<title>/range/sequence:s&#45;&gt;/range/join:nw</title>
<path fill="none" stroke="black" d="M187.2,-188.82C187.2,-178.69 195.02,-178.86 201.2,-170.82 210.92,-158.19 213.41,-152 221.31,-142.77"/>
<polygon fill="black" stroke="black" points="223.95,-145.07 228.2,-135.37 218.82,-140.3 223.95,-145.07"/>
<text text-anchor="middle" x="197.93" y="-164.74" font-family="Times,serif" font-size="14.00">last</text>
<text text-anchor="middle" x="208.37" y="-138.17" font-family="Times,serif" font-size="14.00">control</text>
</g>
<!-- /range/print -->
<g id="node6" class="node">
<title>/range/print</title>
<ellipse fill="coral" stroke="black" cx="261.2" cy="-25.46" rx="43.53" ry="25.41"/>
<text text-anchor="middle" x="261.2" y="-28.26" font-family="Times,serif" font-size="14.00">print</text>
<text text-anchor="middle" x="261.2" y="-14.26" font-family="Times,serif" font-size="14.00">(Stdout)</text>
</g>
<!-- /range/sequence&#45;&gt;/range/print -->
<g id="edge4" class="edge">
<title>/range/sequence:s&#45;&gt;/range/print:w</title>
<path fill="none" stroke="black" d="M187.2,-188.82C187.2,-118.83 146.89,-34.52 205.86,-26.14"/>
<polygon fill="black" stroke="black" points="206.45,-29.6 216.2,-25.46 205.99,-22.62 206.45,-29.6"/>
<text text-anchor="middle" x="148.76" y="-87.17" font-family="Times,serif" font-size="14.00">sequence</text>
</g>
<!-- /range/join&#45;&gt;/range/print -->
<g id="edge6" class="edge">
<title>/range/join:e&#45;&gt;/range/print:w</title>
<path fill="none" stroke="black" d="M285.2,-113.37C296.52,-113.37 290.14,-97.55 284.2,-87.91 266.34,-58.96 235.06,-79.86 217.2,-50.91 214.04,-45.79 210.76,-38.93 210.08,-33.62"/>
<polygon fill="black" stroke="black" points="213,-35.56 216.2,-25.46 207.4,-31.36 213,-35.56"/>
</g>
<!-- initializer/range/join_0 -->
<!-- initializer/range/join_0&#45;&gt;/range/join -->
<g id="edge1" class="edge">
<title>initializer/range/join_0&#45;&gt;/range/join:nw</title>
<path fill="none" stroke="blue" stroke-dasharray="1,5" d="M345.25,-243.18C310.06,-217.28 245.25,-167.97 230.33,-145.47"/>
<polygon fill="blue" stroke="blue" points="233.69,-144.43 228.2,-135.37 226.84,-145.87 233.69,-144.43"/>
<text text-anchor="middle" x="290.15" y="-159.62" font-family="Times,serif" font-size="14.00">&quot;Range done&quot;</text>
</g>
</g>
</svg>
