<?xml version="1.0" encoding="UTF-8" standalone="no"?>
<!DOCTYPE svg PUBLIC "-//W3C//DTD SVG 1.1//EN"
 "http://www.w3.org/Graphics/SVG/1.1/DTD/svg11.dtd">
<!-- Generated by graphviz version 2.40.1 (20161225.0304)
 -->
<!-- Title: sequence Pages: 1 -->
<svg width="971pt" height="424pt"
 viewBox="28.80 28.80 942.17 395.54" xmlns="http://www.w3.org/2000/svg" xmlns:xlink="http://www.w3.org/1999/xlink">
<g id="page0,1_graph0" class="graph" transform="scale(1 1) rotate(0) translate(32.8 391.5401)">
<title>sequence</title>
<polygon fill="#ffffff" stroke="transparent" points="-4,4 -4,-362.7401 909.3691,-362.7401 909.3691,4 -4,4"/>
<text text-anchor="middle" x="452.6845" y="-343.5401" font-family="Times,serif" font-size="14.00" fill="#000000">sequence</text>
<!-- /range/sequence/start -->
<g id="node1" class="node">
<title>/range/sequence/start</title>
<polygon fill="#ffffff" stroke="#000000" points="477.4296,-323.3024 436.4856,-335.7401 395.5415,-323.3024 395.5797,-303.1778 477.3914,-303.1778 477.4296,-323.3024"/>
<text text-anchor="middle" x="436.4856" y="-314.0401" font-family="Times,serif" font-size="14.00" fill="#000000">start</text>
</g>
<!-- /range/sequence/compare -->
<g id="node6" class="node">
<title>/range/sequence/compare</title>
<g id="a_node6"><a xlink:href="../../flowstdlib/control/compare_switch/compare_switch.html" xlink:title="compare\n(compare_switch)">
<ellipse fill="#ff7f50" stroke="#000000" cx="481.4856" cy="-167.8701" rx="101.6471" ry="26.7407"/>
<text text-anchor="middle" x="481.4856" y="-171.6701" font-family="Times,serif" font-size="14.00" fill="#000000">compare</text>
<text text-anchor="middle" x="481.4856" y="-156.6701" font-family="Times,serif" font-size="14.00" fill="#000000">(compare_switch)</text>
</a>
</g>
</g>
<!-- /range/sequence/start&#45;&gt;/range/sequence/compare -->
<g id="edge3" class="edge">
<title>/range/sequence/start:s&#45;&gt;/range/sequence/compare:ne</title>
<path fill="none" stroke="#000000" d="M436.4856,-302.7401C436.4856,-290.6113 493.7674,-229.2678 506.0662,-203.8805"/>
<polygon fill="#000000" stroke="#000000" points="509.547,-204.2624 507.4856,-193.8701 502.6163,-203.2796 509.547,-204.2624"/>
<text text-anchor="middle" x="489.4856" y="-197.6701" font-family="Times,serif" font-size="14.00" fill="#000000">right</text>
</g>
<!-- /range/sequence/end -->
<g id="node2" class="node">
<title>/range/sequence/end</title>
<polygon fill="#ffffff" stroke="#000000" points="565.0757,-323.3024 530.4856,-335.7401 495.8955,-323.3024 495.9277,-303.1778 565.0434,-303.1778 565.0757,-323.3024"/>
<text text-anchor="middle" x="530.4856" y="-314.0401" font-family="Times,serif" font-size="14.00" fill="#000000">end</text>
</g>
<!-- /range/sequence/end&#45;&gt;/range/sequence/compare -->
<g id="edge4" class="edge">
<title>/range/sequence/end:s&#45;&gt;/range/sequence/compare:ne</title>
<path fill="none" stroke="#000000" d="M530.4856,-302.7401C530.4856,-256.9559 540.7445,-232.6062 514.5202,-201.4969"/>
<polygon fill="#000000" stroke="#000000" points="516.8383,-198.8478 507.4856,-193.8701 511.6928,-203.5938 516.8383,-198.8478"/>
<text text-anchor="middle" x="519.9856" y="-197.6701" font-family="Times,serif" font-size="14.00" fill="#000000">left</text>
</g>
<!-- /range/sequence/step -->
<g id="node3" class="node">
<title>/range/sequence/step</title>
<polygon fill="#ffffff" stroke="#000000" points="377.0042,-323.3024 339.4856,-335.7401 301.967,-323.3024 302.002,-303.1778 376.9692,-303.1778 377.0042,-323.3024"/>
<text text-anchor="middle" x="339.4856" y="-314.0401" font-family="Times,serif" font-size="14.00" fill="#000000">step</text>
</g>
<!-- /range/sequence/add -->
<g id="node8" class="node">
<title>/range/sequence/add</title>
<g id="a_node8"><a xlink:href="../../flowstdlib/math/add/add.html" xlink:title="add">
<ellipse fill="#ff7f50" stroke="#000000" cx="367.4856" cy="-72" rx="27.8951" ry="18"/>
<text text-anchor="middle" x="367.4856" y="-68.3" font-family="Times,serif" font-size="14.00" fill="#000000">add</text>
</a>
</g>
</g>
<!-- /range/sequence/step&#45;&gt;/range/sequence/add -->
<g id="edge5" class="edge">
<title>/range/sequence/step:s&#45;&gt;/range/sequence/add:w</title>
<path fill="none" stroke="#000000" d="M339.4856,-302.7401C339.4856,-280.0066 319.3274,-116.1655 332.6349,-79.337"/>
<polygon fill="#000000" stroke="#000000" points="335.2191,-81.6978 339.4856,-72 330.1027,-76.9205 335.2191,-81.6978"/>
<text text-anchor="middle" x="332.4856" y="-75.8" font-family="Times,serif" font-size="14.00" fill="#000000">i2</text>
</g>
<!-- /range/sequence/sequence -->
<g id="node4" class="node">
<title>/range/sequence/sequence</title>
<polygon fill="#000000" stroke="#000000" points="324.0189,-12.4377 391.4856,0 458.9522,-12.4377 458.8893,-32.5623 324.0819,-32.5623 324.0189,-12.4377"/>
<text text-anchor="middle" x="391.4856" y="-14.3" font-family="Times,serif" font-size="14.00" fill="#ffffff">sequence</text>
</g>
<!-- /range/sequence/last -->
<g id="node5" class="node">
<title>/range/sequence/last</title>
<polygon fill="#000000" stroke="#000000" points="476.8955,-12.4377 511.4856,0 546.0757,-12.4377 546.0434,-32.5623 476.9277,-32.5623 476.8955,-12.4377"/>
<text text-anchor="middle" x="511.4856" y="-14.3" font-family="Times,serif" font-size="14.00" fill="#ffffff">last</text>
</g>
<!-- /range/sequence/compare&#45;&gt;/range/sequence/sequence -->
<g id="edge7" class="edge">
<title>/range/sequence/compare:s&#45;&gt;/range/sequence/sequence:n</title>
<path fill="none" stroke="#000000" d="M481.4856,-141C481.4856,-127.4541 413.8043,-67.9312 395.8265,-42.1726"/>
<polygon fill="#000000" stroke="#000000" points="398.9269,-40.5417 391.4856,-33 392.5996,-43.5361 398.9269,-40.5417"/>
<text text-anchor="middle" x="466.033" y="-90.8486" font-family="Times,serif" font-size="14.00" fill="#000000">right&#45;lte</text>
</g>
<!-- /range/sequence/compare&#45;&gt;/range/sequence/last -->
<g id="edge11" class="edge">
<title>/range/sequence/compare:s&#45;&gt;/range/sequence/last:n</title>
<path fill="none" stroke="#000000" d="M481.4856,-141C481.4856,-94.7826 507.3063,-84.2429 511.0382,-43.1821"/>
<polygon fill="#000000" stroke="#000000" points="514.5432,-43.144 511.4856,-33 507.5499,-42.8367 514.5432,-43.144"/>
<text text-anchor="middle" x="464.4904" y="-75.7907" font-family="Times,serif" font-size="14.00" fill="#000000">right&#45;gte</text>
</g>
<!-- /range/sequence/compare&#45;&gt;/range/sequence/compare -->
<g id="edge8" class="edge">
<title>/range/sequence/compare:s&#45;&gt;/range/sequence/compare:ne</title>
<path fill="none" stroke="#000000" d="M481.4856,-140.8701C521.4267,-127.8701 601.309,-127.8701 601.309,-167.3701 601.309,-203.6298 555.9042,-206.6043 517.5588,-196.7922"/>
<polygon fill="#000000" stroke="#000000" points="518.0648,-193.2947 507.4856,-193.8701 516.1145,-200.0176 518.0648,-193.2947"/>
<text text-anchor="middle" x="464.846" y="-128.0684" font-family="Times,serif" font-size="14.00" fill="#000000">left&#45;gt</text>
<text text-anchor="middle" x="494.9856" y="-182.6701" font-family="Times,serif" font-size="14.00" fill="#000000">left</text>
</g>
<!-- /range/sequence/compare&#45;&gt;/range/sequence/add -->
<g id="edge9" class="edge">
<title>/range/sequence/compare:sw&#45;&gt;/range/sequence/add:ne</title>
<path fill="none" stroke="#000000" d="M455.4856,-141.8701C439.2768,-125.6613 425.4223,-137.2731 407.4856,-123 395.8399,-113.733 395.9336,-105.6027 389.939,-96.0328"/>
<polygon fill="#000000" stroke="#000000" points="392.4772,-93.6037 383.4856,-88 387.0201,-97.9879 392.4772,-93.6037"/>
<text text-anchor="middle" x="381.9515" y="-126.7729" font-family="Times,serif" font-size="14.00" fill="#000000">right&#45;lt</text>
<text text-anchor="middle" x="390.4856" y="-91.8" font-family="Times,serif" font-size="14.00" fill="#000000">i1</text>
</g>
<!-- initializer/range/sequence/compare_1 -->
<!-- initializer/range/sequence/compare_1&#45;&gt;/range/sequence/compare -->
<g id="edge1" class="edge">
<title>initializer/range/sequence/compare_1&#45;&gt;/range/sequence/compare:ne</title>
<path fill="none" stroke="#0000ff" stroke-dasharray="1,5" d="M646.5044,-247.1366C599.0047,-235.1335 541.2234,-217.9609 515.2694,-200.178"/>
<polygon fill="#0000ff" stroke="#0000ff" points="517.4584,-197.4469 507.4856,-193.8701 513.0511,-202.8854 517.4584,-197.4469"/>
<text text-anchor="middle" x="579.4856" y="-216.5401" font-family="Times,serif" font-size="14.00" fill="#000000">1</text>
</g>
<!-- /range/sequence/add&#45;&gt;/range/sequence/compare -->
<g id="edge10" class="edge">
<title>/range/sequence/add:sw&#45;&gt;/range/sequence/compare:ne</title>
<path fill="none" stroke="#000000" d="M351.4856,-56C351.4856,-56 339.5381,-90 339.5381,-90 348.2626,-100.7387 574.5845,-130.2613 583.309,-141 583.309,-141 535.6313,-174.2447 515.8897,-188.01"/>
<polygon fill="#000000" stroke="#000000" points="513.6865,-185.2794 507.4856,-193.8701 517.6903,-191.0214 513.6865,-185.2794"/>
<text text-anchor="middle" x="416.571" y="-99.2503" font-family="Times,serif" font-size="14.00" fill="#000000">sum</text>
<text text-anchor="middle" x="525.4856" y="-197.6701" font-family="Times,serif" font-size="14.00" fill="#000000">right</text>
</g>
<!-- /range/sequence/add&#45;&gt;/range/sequence/add -->
<g id="edge6" class="edge">
<title>/range/sequence/add:e&#45;&gt;/range/sequence/add:w</title>
<path fill="none" stroke="#000000" d="M395.4856,-72C413.4331,-85 413.4331,-111 367.4856,-111 329.0763,-111 322.7748,-92.8314 332.2249,-79.276"/>
<polygon fill="#000000" stroke="#000000" points="334.8994,-81.5508 339.4856,-72 329.9444,-76.6063 334.8994,-81.5508"/>
<text text-anchor="middle" x="402.4922" y="-75.8048" font-family="Times,serif" font-size="14.00" fill="#000000">i2</text>
<text text-anchor="middle" x="332.4856" y="-60.8" font-family="Times,serif" font-size="14.00" fill="#000000">i2</text>
</g>
<!-- initializer/range/sequence/add_1 -->
<!-- initializer/range/sequence/add_1&#45;&gt;/range/sequence/add -->
<g id="edge2" class="edge">
<title>initializer/range/sequence/add_1&#45;&gt;/range/sequence/add:w</title>
<path fill="none" stroke="#0000ff" stroke-dasharray="1,5" d="M180.8588,-149.8376C209.5892,-123.5309 268.2134,-77.2184 329.2705,-72.4071"/>
<polygon fill="#0000ff" stroke="#0000ff" points="329.6329,-75.8955 339.4856,-72 329.3541,-68.9011 329.6329,-75.8955"/>
<text text-anchor="middle" x="239.4856" y="-111.8" font-family="Times,serif" font-size="14.00" fill="#000000">1</text>
</g>
</g>
</svg>
