<?xml version="1.0" encoding="UTF-8" standalone="no"?>
<!DOCTYPE svg PUBLIC "-//W3C//DTD SVG 1.1//EN"
 "http://www.w3.org/Graphics/SVG/1.1/DTD/svg11.dtd">
<!-- Generated by graphviz version 2.43.0 (0)
 -->
<!-- Title: sequence Pages: 1 -->
<svg width="957pt" height="424pt"
 viewBox="28.80 28.80 928.14 395.54" xmlns="http://www.w3.org/2000/svg" xmlns:xlink="http://www.w3.org/1999/xlink">
<g id="page0,1_graph0" class="graph" transform="scale(1 1) rotate(0) translate(32.8 391.54)">
<title>sequence</title>
<polygon fill="white" stroke="transparent" points="-4,4 -4,-362.74 895.34,-362.74 895.34,4 -4,4"/>
<text text-anchor="middle" x="445.67" y="-343.54" font-family="Times,serif" font-size="14.00">sequence</text>
<!-- /range/sequence/start -->
<g id="node1" class="node">
<title>/range/sequence/start</title>
<polygon fill="white" stroke="black" points="453.7,-323.3 412.76,-335.74 371.81,-323.3 371.85,-303.18 453.66,-303.18 453.7,-323.3"/>
<text text-anchor="middle" x="412.76" y="-314.04" font-family="Times,serif" font-size="14.00">start</text>
</g>
<!-- /range/sequence/compare -->
<g id="node6" class="node">
<title>/range/sequence/compare</title>
<g id="a_node6"><a xlink:href="../../flowstdlib/control/compare_switch/compare_switch.html" xlink:title="compare\n(compare_switch)">
<ellipse fill="coral" stroke="black" cx="480.76" cy="-167.87" rx="100.32" ry="26.74"/>
<text text-anchor="middle" x="480.76" y="-171.67" font-family="Times,serif" font-size="14.00">compare</text>
<text text-anchor="middle" x="480.76" y="-156.67" font-family="Times,serif" font-size="14.00">(compare_switch)</text>
</a>
</g>
</g>
<!-- /range/sequence/start&#45;&gt;/range/sequence/compare -->
<g id="edge3" class="edge">
<title>/range/sequence/start:s&#45;&gt;/range/sequence/compare:ne</title>
<path fill="none" stroke="black" d="M412.76,-301.74C412.76,-242.4 534.72,-239.62 513.08,-202.62"/>
<polygon fill="black" stroke="black" points="515.74,-200.35 506.76,-194.74 510.28,-204.73 515.74,-200.35"/>
<text text-anchor="middle" x="488.76" y="-198.54" font-family="Times,serif" font-size="14.00">right</text>
</g>
<!-- /range/sequence/end -->
<g id="node2" class="node">
<title>/range/sequence/end</title>
<polygon fill="white" stroke="black" points="541.35,-323.3 506.76,-335.74 472.17,-323.3 472.2,-303.18 541.32,-303.18 541.35,-323.3"/>
<text text-anchor="middle" x="506.76" y="-314.04" font-family="Times,serif" font-size="14.00">end</text>
</g>
<!-- /range/sequence/end&#45;&gt;/range/sequence/compare -->
<g id="edge4" class="edge">
<title>/range/sequence/end:s&#45;&gt;/range/sequence/compare:ne</title>
<path fill="none" stroke="black" d="M506.76,-301.74C506.76,-257.9 535.34,-232.53 513.46,-202.49"/>
<polygon fill="black" stroke="black" points="515.94,-200.02 506.76,-194.74 510.65,-204.6 515.94,-200.02"/>
<text text-anchor="middle" x="519.26" y="-198.54" font-family="Times,serif" font-size="14.00">left</text>
</g>
<!-- /range/sequence/step -->
<g id="node3" class="node">
<title>/range/sequence/step</title>
<polygon fill="white" stroke="black" points="75.28,-323.3 37.76,-335.74 0.24,-323.3 0.27,-303.18 75.24,-303.18 75.28,-323.3"/>
<text text-anchor="middle" x="37.76" y="-314.04" font-family="Times,serif" font-size="14.00">step</text>
</g>
<!-- /range/sequence/add -->
<g id="node8" class="node">
<title>/range/sequence/add</title>
<g id="a_node8"><a xlink:href="../../flowstdlib/math/add/add.html" xlink:title="add">
<ellipse fill="coral" stroke="black" cx="300.76" cy="-72" rx="27.9" ry="18"/>
<text text-anchor="middle" x="300.76" y="-68.3" font-family="Times,serif" font-size="14.00">add</text>
</a>
</g>
</g>
<!-- /range/sequence/step&#45;&gt;/range/sequence/add -->
<g id="edge5" class="edge">
<title>/range/sequence/step:s&#45;&gt;/range/sequence/add:w</title>
<path fill="none" stroke="black" d="M37.76,-301.74C37.76,-230.03 6.84,-196.9 51.76,-141 81.91,-103.48 204.35,-75.56 261.55,-72.32"/>
<polygon fill="black" stroke="black" points="261.87,-75.81 271.76,-72 261.66,-68.81 261.87,-75.81"/>
<text text-anchor="middle" x="264.76" y="-75.8" font-family="Times,serif" font-size="14.00">i2</text>
</g>
<!-- /range/sequence/sequence -->
<g id="node4" class="node">
<title>/range/sequence/sequence</title>
<polygon fill="black" stroke="black" points="336.9,-12.44 403.76,0 470.62,-12.44 470.56,-32.56 336.96,-32.56 336.9,-12.44"/>
<text text-anchor="middle" x="403.76" y="-14.3" font-family="Times,serif" font-size="14.00" fill="white">sequence</text>
</g>
<!-- /range/sequence/last -->
<g id="node5" class="node">
<title>/range/sequence/last</title>
<polygon fill="black" stroke="black" points="488.17,-12.44 522.76,0 557.35,-12.44 557.32,-32.56 488.2,-32.56 488.17,-12.44"/>
<text text-anchor="middle" x="522.76" y="-14.3" font-family="Times,serif" font-size="14.00" fill="white">last</text>
</g>
<!-- /range/sequence/compare&#45;&gt;/range/sequence/sequence -->
<g id="edge7" class="edge">
<title>/range/sequence/compare:s&#45;&gt;/range/sequence/sequence:n</title>
<path fill="none" stroke="black" d="M480.76,-141C480.76,-86.07 413.08,-91.59 404.62,-44.21"/>
<polygon fill="black" stroke="black" points="408.09,-43.67 403.76,-34 401.11,-44.26 408.09,-43.67"/>
<text text-anchor="middle" x="412.56" y="-91.18" font-family="Times,serif" font-size="14.00">right&#45;lte</text>
</g>
<!-- /range/sequence/compare&#45;&gt;/range/sequence/last -->
<g id="edge11" class="edge">
<title>/range/sequence/compare:s&#45;&gt;/range/sequence/last:n</title>
<path fill="none" stroke="black" d="M480.76,-141C480.76,-129.04 494.61,-133.26 500.76,-123 519.83,-91.19 522.41,-77.31 522.72,-44.35"/>
<polygon fill="black" stroke="black" points="526.22,-44.01 522.76,-34 519.22,-43.99 526.22,-44.01"/>
<text text-anchor="middle" x="484.11" y="-96.35" font-family="Times,serif" font-size="14.00">right&#45;gte</text>
</g>
<!-- /range/sequence/compare&#45;&gt;/range/sequence/compare -->
<g id="edge8" class="edge">
<title>/range/sequence/compare:s&#45;&gt;/range/sequence/compare:ne</title>
<path fill="none" stroke="black" d="M480.76,-140.87C520.23,-127.87 599.17,-127.87 599.17,-167.37 599.17,-203.63 554.56,-206.6 516.71,-196.79"/>
<polygon fill="black" stroke="black" points="517.34,-193.33 506.76,-193.87 515.37,-200.05 517.34,-193.33"/>
<text text-anchor="middle" x="464.06" y="-128.07" font-family="Times,serif" font-size="14.00">left&#45;gt</text>
<text text-anchor="middle" x="494.26" y="-197.67" font-family="Times,serif" font-size="14.00">left</text>
</g>
<!-- /range/sequence/compare&#45;&gt;/range/sequence/add -->
<g id="edge9" class="edge">
<title>/range/sequence/compare:sw&#45;&gt;/range/sequence/add:ne</title>
<path fill="none" stroke="black" d="M454.76,-141C433.56,-119.8 417.89,-133.36 389.76,-123 359.59,-111.88 345.13,-113.73 324.16,-95.86"/>
<polygon fill="black" stroke="black" points="326.47,-93.23 316.76,-89 321.71,-98.37 326.47,-93.23"/>
<text text-anchor="middle" x="358.12" y="-124.64" font-family="Times,serif" font-size="14.00">right&#45;lt</text>
<text text-anchor="middle" x="323.76" y="-92.8" font-family="Times,serif" font-size="14.00">i1</text>
</g>
<!-- initializer/range/sequence/compare_1 -->
<!-- initializer/range/sequence/compare_1&#45;&gt;/range/sequence/compare -->
<g id="edge1" class="edge">
<title>initializer/range/sequence/compare_1&#45;&gt;/range/sequence/compare:ne</title>
<path fill="none" stroke="blue" stroke-dasharray="1,5" d="M609.54,-248.37C576.38,-239.45 540.93,-225 514.09,-201.58"/>
<polygon fill="blue" stroke="blue" points="516.46,-199 506.76,-194.74 511.68,-204.12 516.46,-199"/>
<text text-anchor="middle" x="558.76" y="-216.54" font-family="Times,serif" font-size="14.00">1</text>
</g>
<!-- /range/sequence/add&#45;&gt;/range/sequence/compare -->
<g id="edge10" class="edge">
<title>/range/sequence/add:e&#45;&gt;/range/sequence/compare:ne</title>
<path fill="none" stroke="black" d="M329.76,-72C412.48,-72 428.83,-101.69 508.76,-123 540.8,-131.54 560.74,-114.88 581.17,-141 595.64,-159.51 597.67,-177.14 581.17,-193.87 571.5,-203.66 534.5,-205.95 515.61,-199.7"/>
<polygon fill="black" stroke="black" points="517.21,-196.59 506.76,-194.87 513.86,-202.73 517.21,-196.59"/>
<text text-anchor="middle" x="524.76" y="-198.67" font-family="Times,serif" font-size="14.00">right</text>
</g>
<!-- /range/sequence/add&#45;&gt;/range/sequence/add -->
<g id="edge6" class="edge">
<title>/range/sequence/add:e&#45;&gt;/range/sequence/add:w</title>
<path fill="none" stroke="black" d="M328.76,-72C346.71,-85 346.71,-111 300.76,-111 262.35,-111 256.05,-92.83 265.5,-79.28"/>
<polygon fill="black" stroke="black" points="268.17,-81.55 272.76,-72 263.22,-76.61 268.17,-81.55"/>
<text text-anchor="middle" x="335.77" y="-75.8" font-family="Times,serif" font-size="14.00">i2</text>
<text text-anchor="middle" x="265.76" y="-60.8" font-family="Times,serif" font-size="14.00">i2</text>
</g>
<!-- initializer/range/sequence/add_1 -->
<!-- initializer/range/sequence/add_1&#45;&gt;/range/sequence/add -->
<g id="edge2" class="edge">
<title>initializer/range/sequence/add_1&#45;&gt;/range/sequence/add:w</title>
<path fill="none" stroke="blue" stroke-dasharray="1,5" d="M216.34,-149.47C221,-124.76 233.14,-81.57 261.84,-73.37"/>
<polygon fill="blue" stroke="blue" points="262.33,-76.83 271.76,-72 261.37,-69.9 262.33,-76.83"/>
<text text-anchor="middle" x="233.76" y="-111.8" font-family="Times,serif" font-size="14.00">1</text>
</g>
</g>
</svg>
