<?xml version="1.0" encoding="UTF-8" standalone="no"?>
<!DOCTYPE svg PUBLIC "-//W3C//DTD SVG 1.1//EN"
 "http://www.w3.org/Graphics/SVG/1.1/DTD/svg11.dtd">
<!-- Generated by graphviz version 2.40.1 (0)
 -->
<!-- Title: sequence Pages: 1 -->
<svg width="971pt" height="442pt"
 viewBox="28.80 28.80 942.57 413.28" xmlns="http://www.w3.org/2000/svg" xmlns:xlink="http://www.w3.org/1999/xlink">
<g id="graph0" class="graph" transform="scale(1 1) rotate(0) translate(32.8 409.2802)">
<title>sequence</title>
<polygon fill="#ffffff" stroke="transparent" points="-4,4 -4,-380.4802 909.7693,-380.4802 909.7693,4 -4,4"/>
<text text-anchor="middle" x="452.8847" y="-361.2802" font-family="Times,serif" font-size="14.00" fill="#000000">sequence</text>
<!-- /range/sequence/start -->
<g id="node1" class="node">
<title>/range/sequence/start</title>
<polygon fill="#ffffff" stroke="#000000" points="475.1298,-341.0425 434.1857,-353.4802 393.2416,-341.0425 393.2799,-320.9179 475.0915,-320.9179 475.1298,-341.0425"/>
<text text-anchor="middle" x="434.1857" y="-331.7802" font-family="Times,serif" font-size="14.00" fill="#000000">start</text>
</g>
<!-- /range/sequence/compare -->
<g id="node6" class="node">
<title>/range/sequence/compare</title>
<g id="a_node6"><a xlink:href="../../flowstdlib/control/compare_switch/compare_switch.toml" xlink:title="compare\n(CompareSwitch)">
<ellipse fill="#ff7f50" stroke="#000000" cx="488.1857" cy="-185.6102" rx="98.9899" ry="26.7407"/>
<text text-anchor="middle" x="488.1857" y="-189.4102" font-family="Times,serif" font-size="14.00" fill="#000000">compare</text>
<text text-anchor="middle" x="488.1857" y="-174.4102" font-family="Times,serif" font-size="14.00" fill="#000000">(CompareSwitch)</text>
</a>
</g>
</g>
<!-- /range/sequence/start&#45;&gt;/range/sequence/compare -->
<g id="edge3" class="edge">
<title>/range/sequence/start:s&#45;&gt;/range/sequence/compare:ne</title>
<path fill="none" stroke="#000000" d="M434.1857,-320.4802C434.1857,-264.4221 540.9203,-255.151 520.5467,-219.6175"/>
<polygon fill="#000000" stroke="#000000" points="523.1464,-217.2632 514.1857,-211.6102 517.6653,-221.6173 523.1464,-217.2632"/>
<text text-anchor="middle" x="496.1857" y="-215.4102" font-family="Times,serif" font-size="14.00" fill="#000000">right</text>
</g>
<!-- /range/sequence/end -->
<g id="node2" class="node">
<title>/range/sequence/end</title>
<polygon fill="#ffffff" stroke="#000000" points="562.7758,-341.0425 528.1857,-353.4802 493.5956,-341.0425 493.6279,-320.9179 562.7435,-320.9179 562.7758,-341.0425"/>
<text text-anchor="middle" x="528.1857" y="-331.7802" font-family="Times,serif" font-size="14.00" fill="#000000">end</text>
</g>
<!-- /range/sequence/end&#45;&gt;/range/sequence/compare -->
<g id="edge4" class="edge">
<title>/range/sequence/end:s&#45;&gt;/range/sequence/compare:ne</title>
<path fill="none" stroke="#000000" d="M528.1857,-320.4802C528.1857,-275.3159 545.7525,-250.0326 520.9886,-219.1569"/>
<polygon fill="#000000" stroke="#000000" points="523.481,-216.6944 514.1857,-211.6102 518.2816,-221.3813 523.481,-216.6944"/>
<text text-anchor="middle" x="526.6857" y="-215.4102" font-family="Times,serif" font-size="14.00" fill="#000000">left</text>
</g>
<!-- /range/sequence/step -->
<g id="node3" class="node">
<title>/range/sequence/step</title>
<polygon fill="#ffffff" stroke="#000000" points="374.7043,-341.0425 337.1857,-353.4802 299.6671,-341.0425 299.7021,-320.9179 374.6693,-320.9179 374.7043,-341.0425"/>
<text text-anchor="middle" x="337.1857" y="-331.7802" font-family="Times,serif" font-size="14.00" fill="#000000">step</text>
</g>
<!-- /range/sequence/add -->
<g id="node8" class="node">
<title>/range/sequence/add</title>
<g id="a_node8"><a xlink:href="../../flowstdlib/math/add/add.toml" xlink:title="add\n(Add)">
<ellipse fill="#ff7f50" stroke="#000000" cx="376.1857" cy="-80.8701" rx="38.7821" ry="26.7407"/>
<text text-anchor="middle" x="376.1857" y="-84.6701" font-family="Times,serif" font-size="14.00" fill="#000000">add</text>
<text text-anchor="middle" x="376.1857" y="-69.6701" font-family="Times,serif" font-size="14.00" fill="#000000">(Add)</text>
</a>
</g>
</g>
<!-- /range/sequence/step&#45;&gt;/range/sequence/add -->
<g id="edge5" class="edge">
<title>/range/sequence/step:s&#45;&gt;/range/sequence/add:w</title>
<path fill="none" stroke="#000000" d="M337.1857,-320.4802C337.1857,-296.8208 316.1602,-125.9831 330.1635,-88.2383"/>
<polygon fill="#000000" stroke="#000000" points="332.8203,-90.5238 337.1857,-80.8701 327.753,-85.6944 332.8203,-90.5238"/>
<text text-anchor="middle" x="330.1857" y="-84.6701" font-family="Times,serif" font-size="14.00" fill="#000000">i2</text>
</g>
<!-- /range/sequence/sequence -->
<g id="node4" class="node">
<title>/range/sequence/sequence</title>
<polygon fill="#000000" stroke="#000000" points="336.3253,-12.4377 403.1857,0 470.0461,-12.4377 469.9837,-32.5623 336.3877,-32.5623 336.3253,-12.4377"/>
<text text-anchor="middle" x="403.1857" y="-14.3" font-family="Times,serif" font-size="14.00" fill="#ffffff">sequence</text>
</g>
<!-- /range/sequence/last -->
<g id="node5" class="node">
<title>/range/sequence/last</title>
<polygon fill="#000000" stroke="#000000" points="487.5956,-12.4377 522.1857,0 556.7758,-12.4377 556.7435,-32.5623 487.6279,-32.5623 487.5956,-12.4377"/>
<text text-anchor="middle" x="522.1857" y="-14.3" font-family="Times,serif" font-size="14.00" fill="#ffffff">last</text>
</g>
<!-- /range/sequence/compare&#45;&gt;/range/sequence/sequence -->
<g id="edge7" class="edge">
<title>/range/sequence/compare:s&#45;&gt;/range/sequence/sequence:n</title>
<path fill="none" stroke="#000000" d="M488.1857,-158.7401C488.1857,-131.229 438.8101,-75.9202 422.1857,-54 417.4321,-47.7321 411.1986,-46.0126 407.192,-42.5315"/>
<polygon fill="#000000" stroke="#000000" points="410.2872,-40.8625 403.1857,-33 403.8341,-43.575 410.2872,-40.8625"/>
<text text-anchor="middle" x="481.2646" y="-80.1248" font-family="Times,serif" font-size="14.00" fill="#000000">right&#45;lte</text>
</g>
<!-- /range/sequence/compare&#45;&gt;/range/sequence/last -->
<g id="edge11" class="edge">
<title>/range/sequence/compare:s&#45;&gt;/range/sequence/last:n</title>
<path fill="none" stroke="#000000" d="M488.1857,-158.7401C488.1857,-104.3538 518.1932,-92.2729 521.8269,-43.0096"/>
<polygon fill="#000000" stroke="#000000" points="525.3251,-43.119 522.1857,-33 518.3296,-42.8682 525.3251,-43.119"/>
<text text-anchor="middle" x="473.3262" y="-99.3898" font-family="Times,serif" font-size="14.00" fill="#000000">right&#45;gte</text>
</g>
<!-- /range/sequence/compare&#45;&gt;/range/sequence/compare -->
<g id="edge8" class="edge">
<title>/range/sequence/compare:s&#45;&gt;/range/sequence/compare:ne</title>
<path fill="none" stroke="#000000" d="M488.1857,-158.6102C527.184,-145.6102 605.1806,-145.6102 605.1806,-185.1102 605.1806,-221.3699 561.3648,-224.3444 524.0095,-214.5323"/>
<polygon fill="#000000" stroke="#000000" points="524.7686,-211.1066 514.1857,-211.6102 522.7727,-217.8161 524.7686,-211.1066"/>
<text text-anchor="middle" x="471.4196" y="-145.8085" font-family="Times,serif" font-size="14.00" fill="#000000">left&#45;gt</text>
<text text-anchor="middle" x="501.6857" y="-200.4102" font-family="Times,serif" font-size="14.00" fill="#000000">left</text>
</g>
<!-- /range/sequence/compare&#45;&gt;/range/sequence/add -->
<g id="edge9" class="edge">
<title>/range/sequence/compare:sw&#45;&gt;/range/sequence/add:ne</title>
<path fill="none" stroke="#000000" d="M462.1857,-159.6102C448.2863,-145.7108 436.92,-153.7511 422.1857,-140.7401 410.1664,-130.1267 411.0738,-121.1962 404.5451,-110.7709"/>
<polygon fill="#000000" stroke="#000000" points="407.1824,-108.4656 398.1857,-102.8701 401.7294,-112.8547 407.1824,-108.4656"/>
<text text-anchor="middle" x="396.1317" y="-144.0438" font-family="Times,serif" font-size="14.00" fill="#000000">right&#45;lt</text>
<text text-anchor="middle" x="391.1857" y="-106.6701" font-family="Times,serif" font-size="14.00" fill="#000000">i1</text>
</g>
<!-- initializer/range/sequence/compare_1 -->
<!-- initializer/range/sequence/compare_1&#45;&gt;/range/sequence/compare -->
<g id="edge1" class="edge">
<title>initializer/range/sequence/compare_1&#45;&gt;/range/sequence/compare:ne</title>
<path fill="none" stroke="#0000ff" stroke-dasharray="1,5" d="M618.9503,-266.4798C585.039,-257.2894 549.0068,-242.473 521.6597,-218.5898"/>
<polygon fill="#0000ff" stroke="#0000ff" points="523.8832,-215.8774 514.1857,-211.6102 519.1056,-220.9934 523.8832,-215.8774"/>
<text text-anchor="middle" x="567.1857" y="-234.2802" font-family="Times,serif" font-size="14.00" fill="#000000">1</text>
</g>
<!-- /range/sequence/add&#45;&gt;/range/sequence/compare -->
<g id="edge10" class="edge">
<title>/range/sequence/add:sw&#45;&gt;/range/sequence/compare:ne</title>
<path fill="none" stroke="#000000" d="M354.1857,-58.8701C354.1857,-58.8701 337.2948,-107.7401 337.2948,-107.7401 350.8291,-124.1156 410.3601,-121.5415 431.1857,-125.7401 500.6534,-139.7455 542.5569,-103.6889 587.1806,-158.7401 587.1806,-158.7401 541.7326,-191.6581 522.5591,-205.5453"/>
<polygon fill="#000000" stroke="#000000" points="520.2314,-202.9096 514.1857,-211.6102 524.3376,-208.5788 520.2314,-202.9096"/>
<text text-anchor="middle" x="420.1252" y="-115.3749" font-family="Times,serif" font-size="14.00" fill="#000000">sum</text>
<text text-anchor="middle" x="532.1857" y="-215.4102" font-family="Times,serif" font-size="14.00" fill="#000000">right</text>
</g>
<!-- /range/sequence/add&#45;&gt;/range/sequence/add -->
<g id="edge6" class="edge">
<title>/range/sequence/add:e&#45;&gt;/range/sequence/add:w</title>
<path fill="none" stroke="#000000" d="M415.1857,-80.8701C433.0766,-98.4934 433.0766,-133.7401 376.1857,-133.7401 327.0729,-133.7401 320.3582,-107.4723 330.9506,-88.9515"/>
<polygon fill="#000000" stroke="#000000" points="333.8482,-90.9255 337.1857,-80.8701 328.306,-86.6495 333.8482,-90.9255"/>
<text text-anchor="middle" x="422.189" y="-84.6733" font-family="Times,serif" font-size="14.00" fill="#000000">i2</text>
<text text-anchor="middle" x="330.1857" y="-69.6701" font-family="Times,serif" font-size="14.00" fill="#000000">i2</text>
</g>
<!-- initializer/range/sequence/add_1 -->
<!-- initializer/range/sequence/add_1&#45;&gt;/range/sequence/add -->
<g id="edge2" class="edge">
<title>initializer/range/sequence/add_1&#45;&gt;/range/sequence/add:w</title>
<path fill="none" stroke="#0000ff" stroke-dasharray="1,5" d="M177.693,-167.3658C205.2793,-138.881 263.9698,-86.5387 327.0313,-81.2962"/>
<polygon fill="#0000ff" stroke="#0000ff" points="327.3413,-84.7864 337.1857,-80.8701 327.0477,-77.7925 327.3413,-84.7864"/>
<text text-anchor="middle" x="228.1857" y="-129.5401" font-family="Times,serif" font-size="14.00" fill="#000000">1</text>
</g>
</g>
</svg>
