<?xml version="1.0" encoding="UTF-8" standalone="no"?>
<!DOCTYPE svg PUBLIC "-//W3C//DTD SVG 1.1//EN"
 "http://www.w3.org/Graphics/SVG/1.1/DTD/svg11.dtd">
<!-- Generated by graphviz version 2.44.1 (20200629.0846)
 -->
<!-- Title: sequence Pages: 1 -->
<svg width="787pt" height="424pt"
 viewBox="28.80 28.80 758.58 395.54" xmlns="http://www.w3.org/2000/svg" xmlns:xlink="http://www.w3.org/1999/xlink">
<g id="graph0" class="graph" transform="scale(1 1) rotate(0) translate(32.8 391.54)">
<title>sequence</title>
<polygon fill="white" stroke="transparent" points="-4,4 -4,-362.74 725.78,-362.74 725.78,4 -4,4"/>
<text text-anchor="middle" x="360.89" y="-343.54" font-family="Times,serif" font-size="14.00">sequence</text>
<!-- /range/sequence/start -->
<g id="node1" class="node">
<title>/range/sequence/start</title>
<polygon fill="white" stroke="black" points="378.06,-323.3 345.79,-335.74 313.52,-323.3 313.55,-303.18 378.03,-303.18 378.06,-323.3"/>
<text text-anchor="middle" x="345.79" y="-314.04" font-family="Times,serif" font-size="14.00">start</text>
</g>
<!-- /range/sequence/compare -->
<g id="node6" class="node">
<title>/range/sequence/compare</title>
<g id="a_node6"><a xlink:href="../../flowstdlib/control/compare_switch/compare_switch.html" xlink:title="compare\n(compare_switch)">
<ellipse fill="coral" stroke="black" cx="390.79" cy="-167.87" rx="81.13" ry="26.74"/>
<text text-anchor="middle" x="390.79" y="-171.67" font-family="Times,serif" font-size="14.00">compare</text>
<text text-anchor="middle" x="390.79" y="-156.67" font-family="Times,serif" font-size="14.00">(compare_switch)</text>
</a>
</g>
</g>
<!-- /range/sequence/start&#45;&gt;/range/sequence/compare -->
<g id="edge3" class="edge">
<title>/range/sequence/start:s&#45;&gt;/range/sequence/compare:ne</title>
<path fill="none" stroke="black" d="M345.79,-301.74C345.79,-248.68 442.04,-236.68 423.14,-202.82"/>
<polygon fill="black" stroke="black" points="425.72,-200.44 416.79,-194.74 420.22,-204.76 425.72,-200.44"/>
<text text-anchor="middle" x="403.79" y="-198.54" font-family="Times,serif" font-size="14.00">right</text>
</g>
<!-- /range/sequence/end -->
<g id="node2" class="node">
<title>/range/sequence/end</title>
<polygon fill="white" stroke="black" points="453.63,-323.3 424.79,-335.74 395.95,-323.3 395.97,-303.18 453.61,-303.18 453.63,-323.3"/>
<text text-anchor="middle" x="424.79" y="-314.04" font-family="Times,serif" font-size="14.00">end</text>
</g>
<!-- /range/sequence/end&#45;&gt;/range/sequence/compare -->
<g id="edge4" class="edge">
<title>/range/sequence/end:s&#45;&gt;/range/sequence/compare:ne</title>
<path fill="none" stroke="black" d="M424.79,-301.74C424.79,-257.78 446.65,-232.59 423.64,-202.51"/>
<polygon fill="black" stroke="black" points="426.03,-199.92 416.79,-194.74 420.78,-204.55 426.03,-199.92"/>
<text text-anchor="middle" x="426.29" y="-198.54" font-family="Times,serif" font-size="14.00">left</text>
</g>
<!-- /range/sequence/step -->
<g id="node3" class="node">
<title>/range/sequence/step</title>
<polygon fill="white" stroke="black" points="295.35,-323.3 264.79,-335.74 234.23,-323.3 234.26,-303.18 295.32,-303.18 295.35,-323.3"/>
<text text-anchor="middle" x="264.79" y="-314.04" font-family="Times,serif" font-size="14.00">step</text>
</g>
<!-- /range/sequence/add -->
<g id="node8" class="node">
<title>/range/sequence/add</title>
<g id="a_node8"><a xlink:href="../../flowstdlib/math/add/add.html" xlink:title="add">
<ellipse fill="coral" stroke="black" cx="291.79" cy="-72" rx="27" ry="18"/>
<text text-anchor="middle" x="291.79" y="-68.3" font-family="Times,serif" font-size="14.00">add</text>
</a>
</g>
</g>
<!-- /range/sequence/step&#45;&gt;/range/sequence/add -->
<g id="edge5" class="edge">
<title>/range/sequence/step:s&#45;&gt;/range/sequence/add:w</title>
<path fill="none" stroke="black" d="M264.79,-301.74C264.79,-279.2 244.11,-117.41 256.83,-79.8"/>
<polygon fill="black" stroke="black" points="259.74,-81.79 263.79,-72 254.52,-77.13 259.74,-81.79"/>
<text text-anchor="middle" x="258.29" y="-75.8" font-family="Times,serif" font-size="14.00">i2</text>
</g>
<!-- /range/sequence/sequence -->
<g id="node4" class="node">
<title>/range/sequence/sequence</title>
<polygon fill="black" stroke="black" points="265.74,-12.44 318.79,0 371.83,-12.44 371.78,-32.56 265.79,-32.56 265.74,-12.44"/>
<text text-anchor="middle" x="318.79" y="-14.3" font-family="Times,serif" font-size="14.00" fill="white">sequence</text>
</g>
<!-- /range/sequence/last -->
<g id="node5" class="node">
<title>/range/sequence/last</title>
<polygon fill="black" stroke="black" points="389.55,-12.44 417.79,0 446.03,-12.44 446,-32.56 389.58,-32.56 389.55,-12.44"/>
<text text-anchor="middle" x="417.79" y="-14.3" font-family="Times,serif" font-size="14.00" fill="white">last</text>
</g>
<!-- /range/sequence/compare&#45;&gt;/range/sequence/sequence -->
<g id="edge7" class="edge">
<title>/range/sequence/compare:s&#45;&gt;/range/sequence/sequence:n</title>
<path fill="none" stroke="black" d="M390.79,-141C390.79,-128.69 337.62,-69.1 322.66,-43.49"/>
<polygon fill="black" stroke="black" points="325.81,-41.94 318.79,-34 319.33,-44.58 325.81,-41.94"/>
<text text-anchor="middle" x="376.77" y="-91.27" font-family="Times,serif" font-size="14.00">right&#45;lte</text>
</g>
<!-- /range/sequence/compare&#45;&gt;/range/sequence/last -->
<g id="edge11" class="edge">
<title>/range/sequence/compare:s&#45;&gt;/range/sequence/last:n</title>
<path fill="none" stroke="black" d="M390.79,-141C390.79,-95.5 414.03,-84.54 417.39,-44.03"/>
<polygon fill="black" stroke="black" points="420.89,-44.13 417.79,-34 413.89,-43.85 420.89,-44.13"/>
<text text-anchor="middle" x="380.79" y="-76.29" font-family="Times,serif" font-size="14.00">right&#45;gte</text>
</g>
<!-- /range/sequence/compare&#45;&gt;/range/sequence/compare -->
<g id="edge8" class="edge">
<title>/range/sequence/compare:s&#45;&gt;/range/sequence/compare:ne</title>
<path fill="none" stroke="black" d="M390.79,-140.87C423.89,-127.87 490.11,-127.87 490.11,-167.37 490.11,-203.17 457.08,-206.52 426.25,-197.16"/>
<polygon fill="black" stroke="black" points="427.38,-193.85 416.79,-193.87 425.08,-200.46 427.38,-193.85"/>
<text text-anchor="middle" x="377.4" y="-128.35" font-family="Times,serif" font-size="14.00">left&#45;gt</text>
<text text-anchor="middle" x="407.29" y="-197.67" font-family="Times,serif" font-size="14.00">left</text>
</g>
<!-- /range/sequence/compare&#45;&gt;/range/sequence/add -->
<g id="edge9" class="edge">
<title>/range/sequence/compare:sw&#45;&gt;/range/sequence/add:ne</title>
<path fill="none" stroke="black" d="M364.79,-141C352.7,-128.91 343.55,-134.38 330.79,-123 319.68,-113.09 319.46,-105.33 313.31,-95.95"/>
<polygon fill="black" stroke="black" points="315.84,-93.51 306.79,-88 310.43,-97.95 315.84,-93.51"/>
<text text-anchor="middle" x="310.3" y="-125.42" font-family="Times,serif" font-size="14.00">right&#45;lt</text>
<text text-anchor="middle" x="301.29" y="-91.8" font-family="Times,serif" font-size="14.00">i1</text>
</g>
<!-- initializer/range/sequence/compare_1 -->
<!-- initializer/range/sequence/compare_1&#45;&gt;/range/sequence/compare -->
<g id="edge1" class="edge">
<title>initializer/range/sequence/compare_1&#45;&gt;/range/sequence/compare:ne</title>
<path fill="none" stroke="blue" stroke-dasharray="1,5" d="M512.92,-247.73C483.54,-238.42 449.89,-223.9 424.42,-201.83"/>
<polygon fill="blue" stroke="blue" points="426.5,-198.99 416.79,-194.74 421.73,-204.11 426.5,-198.99"/>
<text text-anchor="middle" x="467.29" y="-216.54" font-family="Times,serif" font-size="14.00">1</text>
</g>
<!-- /range/sequence/add&#45;&gt;/range/sequence/compare -->
<g id="edge10" class="edge">
<title>/range/sequence/add:sw&#45;&gt;/range/sequence/compare:ne</title>
<path fill="none" stroke="black" d="M276.79,-56C273,-52.22 268.41,-53.06 264.79,-57 254.86,-67.79 255.71,-78.48 264.79,-90 286.01,-116.92 306.49,-99.85 339.79,-108 398.66,-122.41 434.79,-93.24 472.11,-141 486.57,-159.52 488.57,-177.11 472.11,-193.87 465.38,-200.72 440.7,-202.78 426.09,-199.21"/>
<polygon fill="black" stroke="black" points="427.33,-195.93 416.79,-194.87 424.37,-202.27 427.33,-195.93"/>
<text text-anchor="middle" x="337.58" y="-98.85" font-family="Times,serif" font-size="14.00">sum</text>
<text text-anchor="middle" x="429.79" y="-198.67" font-family="Times,serif" font-size="14.00">right</text>
</g>
<!-- /range/sequence/add&#45;&gt;/range/sequence/add -->
<g id="edge6" class="edge">
<title>/range/sequence/add:e&#45;&gt;/range/sequence/add:w</title>
<path fill="none" stroke="black" d="M318.79,-72C336.79,-85 336.79,-111 291.79,-111 254.17,-111 248,-92.83 257.5,-79.28"/>
<polygon fill="black" stroke="black" points="260.19,-81.54 264.79,-72 255.24,-76.59 260.19,-81.54"/>
<text text-anchor="middle" x="324.3" y="-75.8" font-family="Times,serif" font-size="14.00">i2</text>
<text text-anchor="middle" x="259.29" y="-60.8" font-family="Times,serif" font-size="14.00">i2</text>
</g>
<!-- initializer/range/sequence/add_1 -->
<!-- initializer/range/sequence/add_1&#45;&gt;/range/sequence/add -->
<g id="edge2" class="edge">
<title>initializer/range/sequence/add_1&#45;&gt;/range/sequence/add:w</title>
<path fill="none" stroke="blue" stroke-dasharray="1,5" d="M137.73,-149.91C158.77,-124.33 203.13,-78.24 253.62,-72.58"/>
<polygon fill="blue" stroke="blue" points="254,-76.06 263.79,-72 253.61,-69.07 254,-76.06"/>
<text text-anchor="middle" x="183.29" y="-111.8" font-family="Times,serif" font-size="14.00">1</text>
</g>
</g>
</svg>
