<?xml version="1.0" encoding="UTF-8" standalone="no"?>
<!DOCTYPE svg PUBLIC "-//W3C//DTD SVG 1.1//EN"
 "http://www.w3.org/Graphics/SVG/1.1/DTD/svg11.dtd">
<!-- Generated by graphviz version 2.44.0 (20200408.0750)
 -->
<!-- Title: sequence Pages: 1 -->
<svg width="790pt" height="442pt"
 viewBox="28.80 28.80 761.58 413.28" xmlns="http://www.w3.org/2000/svg" xmlns:xlink="http://www.w3.org/1999/xlink">
<g id="graph0" class="graph" transform="scale(1 1) rotate(0) translate(32.8 409.28)">
<title>sequence</title>
<polygon fill="white" stroke="transparent" points="-4,4 -4,-380.48 728.78,-380.48 728.78,4 -4,4"/>
<text text-anchor="middle" x="362.39" y="-361.28" font-family="Times,serif" font-size="14.00">sequence</text>
<!-- /range/sequence/start -->
<g id="node1" class="node">
<title>/range/sequence/start</title>
<polygon fill="white" stroke="black" points="378.06,-341.04 345.79,-353.48 313.52,-341.04 313.55,-320.92 378.03,-320.92 378.06,-341.04"/>
<text text-anchor="middle" x="345.79" y="-331.78" font-family="Times,serif" font-size="14.00">start</text>
</g>
<!-- /range/sequence/compare -->
<g id="node6" class="node">
<title>/range/sequence/compare</title>
<g id="a_node6"><a xlink:href="../../flowstdlib/control/compare_switch/compare_switch.toml" xlink:title="compare\n(CompareSwitch)">
<ellipse fill="coral" stroke="black" cx="397.79" cy="-185.61" rx="79.81" ry="26.74"/>
<text text-anchor="middle" x="397.79" y="-189.41" font-family="Times,serif" font-size="14.00">compare</text>
<text text-anchor="middle" x="397.79" y="-174.41" font-family="Times,serif" font-size="14.00">(CompareSwitch)</text>
</a>
</g>
</g>
<!-- /range/sequence/start&#45;&gt;/range/sequence/compare -->
<g id="edge3" class="edge">
<title>/range/sequence/start:s&#45;&gt;/range/sequence/compare:ne</title>
<path fill="none" stroke="black" d="M345.79,-319.48C345.79,-264.54 450.04,-255.19 430.03,-220.33"/>
<polygon fill="black" stroke="black" points="432.75,-218.13 423.79,-212.48 427.27,-222.49 432.75,-218.13"/>
<text text-anchor="middle" x="410.79" y="-216.28" font-family="Times,serif" font-size="14.00">right</text>
</g>
<!-- /range/sequence/end -->
<g id="node2" class="node">
<title>/range/sequence/end</title>
<polygon fill="white" stroke="black" points="453.63,-341.04 424.79,-353.48 395.95,-341.04 395.97,-320.92 453.61,-320.92 453.63,-341.04"/>
<text text-anchor="middle" x="424.79" y="-331.78" font-family="Times,serif" font-size="14.00">end</text>
</g>
<!-- /range/sequence/end&#45;&gt;/range/sequence/compare -->
<g id="edge4" class="edge">
<title>/range/sequence/end:s&#45;&gt;/range/sequence/compare:ne</title>
<path fill="none" stroke="black" d="M424.79,-319.48C424.79,-275.64 452.52,-250.27 430.5,-220.23"/>
<polygon fill="black" stroke="black" points="432.98,-217.75 423.79,-212.48 427.69,-222.33 432.98,-217.75"/>
<text text-anchor="middle" x="433.29" y="-216.28" font-family="Times,serif" font-size="14.00">left</text>
</g>
<!-- /range/sequence/step -->
<g id="node3" class="node">
<title>/range/sequence/step</title>
<polygon fill="white" stroke="black" points="295.35,-341.04 264.79,-353.48 234.23,-341.04 234.26,-320.92 295.32,-320.92 295.35,-341.04"/>
<text text-anchor="middle" x="264.79" y="-331.78" font-family="Times,serif" font-size="14.00">step</text>
</g>
<!-- /range/sequence/add -->
<g id="node8" class="node">
<title>/range/sequence/add</title>
<g id="a_node8"><a xlink:href="../../flowstdlib/math/add/add.toml" xlink:title="add\n(Add)">
<ellipse fill="coral" stroke="black" cx="299.79" cy="-80.87" rx="34.8" ry="26.74"/>
<text text-anchor="middle" x="299.79" y="-84.67" font-family="Times,serif" font-size="14.00">add</text>
<text text-anchor="middle" x="299.79" y="-69.67" font-family="Times,serif" font-size="14.00">(Add)</text>
</a>
</g>
</g>
<!-- /range/sequence/step&#45;&gt;/range/sequence/add -->
<g id="edge5" class="edge">
<title>/range/sequence/step:s&#45;&gt;/range/sequence/add:w</title>
<path fill="none" stroke="black" d="M264.79,-319.48C264.79,-295.92 243.06,-125.79 256.83,-88.21"/>
<polygon fill="black" stroke="black" points="259.45,-90.53 263.79,-80.87 254.37,-85.72 259.45,-90.53"/>
<text text-anchor="middle" x="258.29" y="-84.67" font-family="Times,serif" font-size="14.00">i2</text>
</g>
<!-- /range/sequence/sequence -->
<g id="node4" class="node">
<title>/range/sequence/sequence</title>
<polygon fill="black" stroke="black" points="275.74,-12.44 328.79,0 381.83,-12.44 381.78,-32.56 275.79,-32.56 275.74,-12.44"/>
<text text-anchor="middle" x="328.79" y="-14.3" font-family="Times,serif" font-size="14.00" fill="white">sequence</text>
</g>
<!-- /range/sequence/last -->
<g id="node5" class="node">
<title>/range/sequence/last</title>
<polygon fill="black" stroke="black" points="399.55,-12.44 427.79,0 456.03,-12.44 456,-32.56 399.58,-32.56 399.55,-12.44"/>
<text text-anchor="middle" x="427.79" y="-14.3" font-family="Times,serif" font-size="14.00" fill="white">last</text>
</g>
<!-- /range/sequence/compare&#45;&gt;/range/sequence/sequence -->
<g id="edge7" class="edge">
<title>/range/sequence/compare:s&#45;&gt;/range/sequence/sequence:n</title>
<path fill="none" stroke="black" d="M397.79,-158.74C397.79,-132.55 357.69,-76.19 343.79,-54 340.38,-48.56 335.9,-46.44 332.72,-43.47"/>
<polygon fill="black" stroke="black" points="335.86,-41.89 328.79,-34 329.39,-44.58 335.86,-41.89"/>
<text text-anchor="middle" x="390.97" y="-81.99" font-family="Times,serif" font-size="14.00">right&#45;lte</text>
</g>
<!-- /range/sequence/compare&#45;&gt;/range/sequence/last -->
<g id="edge11" class="edge">
<title>/range/sequence/compare:s&#45;&gt;/range/sequence/last:n</title>
<path fill="none" stroke="black" d="M397.79,-158.74C397.79,-105.28 424.16,-92.54 427.45,-44.17"/>
<polygon fill="black" stroke="black" points="430.96,-44.11 427.79,-34 423.96,-43.88 430.96,-44.11"/>
<text text-anchor="middle" x="389.37" y="-100" font-family="Times,serif" font-size="14.00">right&#45;gte</text>
</g>
<!-- /range/sequence/compare&#45;&gt;/range/sequence/compare -->
<g id="edge8" class="edge">
<title>/range/sequence/compare:s&#45;&gt;/range/sequence/compare:ne</title>
<path fill="none" stroke="black" d="M397.79,-158.61C430.42,-145.61 495.69,-145.61 495.69,-185.11 495.69,-220.75 463.72,-224.23 433.5,-215.02"/>
<polygon fill="black" stroke="black" points="434.38,-211.62 423.79,-211.61 432.06,-218.23 434.38,-211.62"/>
<text text-anchor="middle" x="383.94" y="-146.23" font-family="Times,serif" font-size="14.00">left&#45;gt</text>
<text text-anchor="middle" x="414.29" y="-215.41" font-family="Times,serif" font-size="14.00">left</text>
</g>
<!-- /range/sequence/compare&#45;&gt;/range/sequence/add -->
<g id="edge9" class="edge">
<title>/range/sequence/compare:sw&#45;&gt;/range/sequence/add:ne</title>
<path fill="none" stroke="black" d="M371.79,-158.74C361.59,-148.54 354.87,-151.06 344.79,-140.74 333.58,-129.27 333.99,-120.86 327.24,-110.67"/>
<polygon fill="black" stroke="black" points="329.86,-108.35 320.79,-102.87 324.46,-112.81 329.86,-108.35"/>
<text text-anchor="middle" x="320.94" y="-138.87" font-family="Times,serif" font-size="14.00">right&#45;lt</text>
<text text-anchor="middle" x="315.29" y="-106.67" font-family="Times,serif" font-size="14.00">i1</text>
</g>
<!-- initializer/range/sequence/compare_1 -->
<!-- initializer/range/sequence/compare_1&#45;&gt;/range/sequence/compare -->
<g id="edge1" class="edge">
<title>initializer/range/sequence/compare_1&#45;&gt;/range/sequence/compare:ne</title>
<path fill="none" stroke="blue" stroke-dasharray="1,5" d="M518.41,-265.27C489.62,-255.87 456.46,-241.31 431.32,-219.49"/>
<polygon fill="blue" stroke="blue" points="433.49,-216.73 423.79,-212.48 428.73,-221.85 433.49,-216.73"/>
<text text-anchor="middle" x="473.29" y="-234.28" font-family="Times,serif" font-size="14.00">1</text>
</g>
<!-- /range/sequence/add&#45;&gt;/range/sequence/compare -->
<g id="edge10" class="edge">
<title>/range/sequence/add:sw&#45;&gt;/range/sequence/compare:ne</title>
<path fill="none" stroke="black" d="M278.79,-58.87C274.49,-54.57 269.28,-55.41 265.14,-59.87 250.66,-75.45 251.68,-91.27 265.14,-107.74 290.58,-138.87 314.65,-116.56 353.79,-125.74 409.27,-138.75 442.97,-113.55 477.69,-158.74 492.01,-177.37 494.15,-194.84 477.69,-211.61 471.2,-218.22 447.57,-220.27 433.28,-216.94"/>
<polygon fill="black" stroke="black" points="434.34,-213.58 423.79,-212.61 431.43,-219.95 434.34,-213.58"/>
<text text-anchor="middle" x="342.11" y="-114.62" font-family="Times,serif" font-size="14.00">sum</text>
<text text-anchor="middle" x="436.79" y="-216.41" font-family="Times,serif" font-size="14.00">right</text>
</g>
<!-- /range/sequence/add&#45;&gt;/range/sequence/add -->
<g id="edge6" class="edge">
<title>/range/sequence/add:e&#45;&gt;/range/sequence/add:w</title>
<path fill="none" stroke="black" d="M334.79,-80.87C352.44,-98.49 352.44,-133.74 299.79,-133.74 254.34,-133.74 248.12,-107.47 258.63,-88.95"/>
<polygon fill="black" stroke="black" points="261.51,-90.95 264.79,-80.87 255.94,-86.7 261.51,-90.95"/>
<text text-anchor="middle" x="340.3" y="-84.68" font-family="Times,serif" font-size="14.00">i2</text>
<text text-anchor="middle" x="259.29" y="-69.67" font-family="Times,serif" font-size="14.00">i2</text>
</g>
<!-- initializer/range/sequence/add_1 -->
<!-- initializer/range/sequence/add_1&#45;&gt;/range/sequence/add -->
<g id="edge2" class="edge">
<title>initializer/range/sequence/add_1&#45;&gt;/range/sequence/add:w</title>
<path fill="none" stroke="blue" stroke-dasharray="1,5" d="M136.33,-167.48C156.43,-139.8 200.76,-87.69 253.49,-81.48"/>
<polygon fill="blue" stroke="blue" points="254.01,-84.96 263.79,-80.87 253.6,-77.97 254.01,-84.96"/>
<text text-anchor="middle" x="175.29" y="-129.54" font-family="Times,serif" font-size="14.00">1</text>
</g>
</g>
</svg>
