<?xml version="1.0" encoding="UTF-8" standalone="no"?>
<!DOCTYPE svg PUBLIC "-//W3C//DTD SVG 1.1//EN"
 "http://www.w3.org/Graphics/SVG/1.1/DTD/svg11.dtd">
<!-- Generated by graphviz version 2.42.3 (20191010.1750)
 -->
<!-- Title: sequence Pages: 1 -->
<svg width="788pt" height="433pt"
 viewBox="28.80 28.80 759.51 404.62" xmlns="http://www.w3.org/2000/svg" xmlns:xlink="http://www.w3.org/1999/xlink">
<g id="graph0" class="graph" transform="scale(1 1) rotate(0) translate(32.8 400.62)">
<title>sequence</title>
<polygon fill="white" stroke="transparent" points="-4,4 -4,-371.82 726.71,-371.82 726.71,4 -4,4"/>
<text text-anchor="middle" x="361.36" y="-352.62" font-family="Times,serif" font-size="14.00">sequence</text>
<!-- /range/sequence/start -->
<g id="node1" class="node">
<title>/range/sequence/start</title>
<polygon fill="white" stroke="black" points="375.15,-333.39 344.02,-345.82 312.89,-333.39 312.92,-313.26 375.12,-313.26 375.15,-333.39"/>
<text text-anchor="middle" x="344.02" y="-323.62" font-family="Times,serif" font-size="14.00">start</text>
</g>
<!-- /range/sequence/compare -->
<g id="node6" class="node">
<title>/range/sequence/compare</title>
<ellipse fill="coral" stroke="black" cx="397.02" cy="-180.37" rx="81.89" ry="25.41"/>
<text text-anchor="middle" x="397.02" y="-183.17" font-family="Times,serif" font-size="14.00">compare</text>
<text text-anchor="middle" x="397.02" y="-169.17" font-family="Times,serif" font-size="14.00">(CompareSwitch)</text>
</g>
<!-- /range/sequence/start&#45;&gt;/range/sequence/compare -->
<g id="edge3" class="edge">
<title>/range/sequence/start:s&#45;&gt;/range/sequence/compare:ne</title>
<path fill="none" stroke="black" d="M344.02,-311.82C344.02,-257.44 447.18,-248.31 428.46,-214.06"/>
<polygon fill="black" stroke="black" points="430.94,-211.54 422.02,-205.82 425.42,-215.86 430.94,-211.54"/>
<text text-anchor="middle" x="408.8" y="-208.62" font-family="Times,serif" font-size="14.00">right</text>
</g>
<!-- /range/sequence/end -->
<g id="node2" class="node">
<title>/range/sequence/end</title>
<polygon fill="white" stroke="black" points="450.07,-333.39 422.02,-345.82 393.97,-333.39 393.99,-313.26 450.05,-313.26 450.07,-333.39"/>
<text text-anchor="middle" x="422.02" y="-323.62" font-family="Times,serif" font-size="14.00">end</text>
</g>
<!-- /range/sequence/end&#45;&gt;/range/sequence/compare -->
<g id="edge4" class="edge">
<title>/range/sequence/end:s&#45;&gt;/range/sequence/compare:ne</title>
<path fill="none" stroke="black" d="M422.02,-311.82C422.02,-268.39 450.33,-243.26 428.66,-213.5"/>
<polygon fill="black" stroke="black" points="431.21,-211.1 422.02,-205.82 425.91,-215.68 431.21,-211.1"/>
<text text-anchor="middle" x="431.35" y="-208.62" font-family="Times,serif" font-size="14.00">left</text>
</g>
<!-- /range/sequence/step -->
<g id="node3" class="node">
<title>/range/sequence/step</title>
<polygon fill="white" stroke="black" points="295.22,-333.39 265.02,-345.82 234.82,-333.39 234.85,-313.26 295.19,-313.26 295.22,-333.39"/>
<text text-anchor="middle" x="265.02" y="-323.62" font-family="Times,serif" font-size="14.00">step</text>
</g>
<!-- /range/sequence/add -->
<g id="node8" class="node">
<title>/range/sequence/add</title>
<ellipse fill="coral" stroke="black" cx="300.02" cy="-79.46" rx="34.91" ry="25.41"/>
<text text-anchor="middle" x="300.02" y="-82.26" font-family="Times,serif" font-size="14.00">add</text>
<text text-anchor="middle" x="300.02" y="-68.26" font-family="Times,serif" font-size="14.00">(Add)</text>
</g>
<!-- /range/sequence/step&#45;&gt;/range/sequence/add -->
<g id="edge5" class="edge">
<title>/range/sequence/step:s&#45;&gt;/range/sequence/add:w</title>
<path fill="none" stroke="black" d="M265.02,-311.82C265.02,-288.93 243.93,-123.93 257.16,-86.84"/>
<polygon fill="black" stroke="black" points="259.78,-89.16 264.02,-79.46 254.65,-84.4 259.78,-89.16"/>
<text text-anchor="middle" x="258.58" y="-82.26" font-family="Times,serif" font-size="14.00">i2</text>
</g>
<!-- /range/sequence/sequence -->
<g id="node4" class="node">
<title>/range/sequence/sequence</title>
<polygon fill="black" stroke="black" points="276.42,-12.44 329.02,0 381.62,-12.44 381.57,-32.56 276.47,-32.56 276.42,-12.44"/>
<text text-anchor="middle" x="329.02" y="-13.8" font-family="Times,serif" font-size="14.00" fill="white">sequence</text>
</g>
<!-- /range/sequence/last -->
<g id="node5" class="node">
<title>/range/sequence/last</title>
<polygon fill="black" stroke="black" points="399.17,-12.44 427.02,0 454.87,-12.44 454.84,-32.56 399.2,-32.56 399.17,-12.44"/>
<text text-anchor="middle" x="427.02" y="-13.8" font-family="Times,serif" font-size="14.00" fill="white">last</text>
</g>
<!-- /range/sequence/compare&#45;&gt;/range/sequence/sequence -->
<g id="edge7" class="edge">
<title>/range/sequence/compare:s&#45;&gt;/range/sequence/sequence:n</title>
<path fill="none" stroke="black" d="M397.02,-154.91C397.02,-129.58 357.55,-75.41 344.02,-54 340.59,-48.57 336.11,-46.45 332.94,-43.48"/>
<polygon fill="black" stroke="black" points="336.08,-41.9 329.02,-34 329.61,-44.58 336.08,-41.9"/>
<text text-anchor="middle" x="390.96" y="-80.1" font-family="Times,serif" font-size="14.00">right&#45;lte</text>
</g>
<!-- /range/sequence/compare&#45;&gt;/range/sequence/last -->
<g id="edge11" class="edge">
<title>/range/sequence/compare:s&#45;&gt;/range/sequence/last:n</title>
<path fill="none" stroke="black" d="M397.02,-154.91C397.02,-103.11 423.28,-90.87 426.66,-44.17"/>
<polygon fill="black" stroke="black" points="430.17,-44.12 427.02,-34 423.17,-43.87 430.17,-44.12"/>
<text text-anchor="middle" x="387.95" y="-97.19" font-family="Times,serif" font-size="14.00">right&#45;gte</text>
</g>
<!-- /range/sequence/compare&#45;&gt;/range/sequence/compare -->
<g id="edge8" class="edge">
<title>/range/sequence/compare:s&#45;&gt;/range/sequence/compare:ne</title>
<path fill="none" stroke="black" d="M397.02,-154.37C430.25,-141.87 496.71,-141.87 496.71,-179.87 496.71,-214.31 462.66,-217.53 431.54,-208.53"/>
<polygon fill="black" stroke="black" points="432.61,-205.2 422.02,-205.37 430.41,-211.84 432.61,-205.2"/>
<text text-anchor="middle" x="383.96" y="-141.76" font-family="Times,serif" font-size="14.00">left&#45;gt</text>
<text text-anchor="middle" x="412.69" y="-208.17" font-family="Times,serif" font-size="14.00">left</text>
</g>
<!-- /range/sequence/compare&#45;&gt;/range/sequence/add -->
<g id="edge9" class="edge">
<title>/range/sequence/compare:sw&#45;&gt;/range/sequence/add:ne</title>
<path fill="none" stroke="black" d="M372.02,-154.91C361.82,-144.71 355.25,-147.07 345.02,-136.91 334.26,-126.23 333.95,-118.6 327.46,-109.13"/>
<polygon fill="black" stroke="black" points="330.13,-106.87 321.02,-101.46 324.77,-111.37 330.13,-106.87"/>
<text text-anchor="middle" x="321.61" y="-135.37" font-family="Times,serif" font-size="14.00">right&#45;lt</text>
<text text-anchor="middle" x="315.58" y="-104.26" font-family="Times,serif" font-size="14.00">i1</text>
</g>
<!-- initializer/range/sequence/compare_1 -->
<!-- initializer/range/sequence/compare_1&#45;&gt;/range/sequence/compare -->
<g id="edge1" class="edge">
<title>initializer/range/sequence/compare_1&#45;&gt;/range/sequence/compare:ne</title>
<path fill="none" stroke="blue" stroke-dasharray="1,5" d="M515.42,-257.72C486.86,-248.5 454.21,-234.22 429.44,-212.73"/>
<polygon fill="blue" stroke="blue" points="431.73,-210.07 422.02,-205.82 426.96,-215.2 431.73,-210.07"/>
<text text-anchor="middle" x="467.52" y="-226.62" font-family="Times,serif" font-size="14.00">1</text>
</g>
<!-- /range/sequence/add&#45;&gt;/range/sequence/compare -->
<g id="edge10" class="edge">
<title>/range/sequence/add:sw&#45;&gt;/range/sequence/compare:ne</title>
<path fill="none" stroke="black" d="M279.02,-57.46C274.62,-53.06 269.3,-53.9 265.06,-58.46 251,-73.57 251.99,-88.93 265.06,-104.91 290.6,-136.13 314.7,-113.9 354.02,-122.91 409.79,-135.7 443.64,-109.71 478.71,-154.91 492.46,-172.63 494.43,-189.37 478.71,-205.37 471.74,-212.46 446.02,-214.53 431.1,-210.71"/>
<polygon fill="black" stroke="black" points="432.55,-207.52 422.02,-206.37 429.53,-213.84 432.55,-207.52"/>
<text text-anchor="middle" x="342.43" y="-111.73" font-family="Times,serif" font-size="14.00">sum</text>
<text text-anchor="middle" x="435.24" y="-209.17" font-family="Times,serif" font-size="14.00">right</text>
</g>
<!-- /range/sequence/add&#45;&gt;/range/sequence/add -->
<g id="edge6" class="edge">
<title>/range/sequence/add:e&#45;&gt;/range/sequence/add:w</title>
<path fill="none" stroke="black" d="M335.02,-79.46C352.98,-96.27 352.98,-129.91 300.02,-129.91 254.51,-129.91 248.11,-105.07 258.61,-87.41"/>
<polygon fill="black" stroke="black" points="261.47,-89.44 265.02,-79.46 256.02,-85.04 261.47,-89.44"/>
<text text-anchor="middle" x="340.47" y="-82.26" font-family="Times,serif" font-size="14.00">i2</text>
<text text-anchor="middle" x="259.58" y="-68.26" font-family="Times,serif" font-size="14.00">i2</text>
</g>
<!-- initializer/range/sequence/add_1 -->
<!-- initializer/range/sequence/add_1&#45;&gt;/range/sequence/add -->
<g id="edge2" class="edge">
<title>initializer/range/sequence/add_1&#45;&gt;/range/sequence/add:w</title>
<path fill="none" stroke="blue" stroke-dasharray="1,5" d="M137.06,-162.42C157.54,-135.64 202.02,-85.96 253.9,-80.04"/>
<polygon fill="blue" stroke="blue" points="254.24,-83.52 264.02,-79.46 253.84,-76.53 254.24,-83.52"/>
<text text-anchor="middle" x="176.52" y="-125.71" font-family="Times,serif" font-size="14.00">1</text>
</g>
</g>
</svg>
