<?xml version="1.0" encoding="UTF-8" standalone="no"?>
<!DOCTYPE svg PUBLIC "-//W3C//DTD SVG 1.1//EN"
 "http://www.w3.org/Graphics/SVG/1.1/DTD/svg11.dtd">
<!-- Generated by graphviz version 2.42.4 (0)
 -->
<!-- Title: sequence Pages: 1 -->
<svg width="971pt" height="442pt"
 viewBox="28.80 28.80 942.57 413.28" xmlns="http://www.w3.org/2000/svg" xmlns:xlink="http://www.w3.org/1999/xlink">
<g id="graph0" class="graph" transform="scale(1 1) rotate(0) translate(32.8 409.28)">
<title>sequence</title>
<polygon fill="white" stroke="transparent" points="-4,4 -4,-380.48 909.77,-380.48 909.77,4 -4,4"/>
<text text-anchor="middle" x="452.88" y="-361.28" font-family="Times,serif" font-size="14.00">sequence</text>
<!-- /range/sequence/start -->
<g id="node1" class="node">
<title>/range/sequence/start</title>
<polygon fill="white" stroke="black" points="475.13,-341.04 434.19,-353.48 393.24,-341.04 393.28,-320.92 475.09,-320.92 475.13,-341.04"/>
<text text-anchor="middle" x="434.19" y="-331.78" font-family="Times,serif" font-size="14.00">start</text>
</g>
<!-- /range/sequence/compare -->
<g id="node6" class="node">
<title>/range/sequence/compare</title>
<g id="a_node6"><a xlink:href="../../flowstdlib/control/compare_switch/compare_switch.html" xlink:title="compare\n(CompareSwitch)">
<ellipse fill="coral" stroke="black" cx="488.19" cy="-185.61" rx="98.99" ry="26.74"/>
<text text-anchor="middle" x="488.19" y="-189.41" font-family="Times,serif" font-size="14.00">compare</text>
<text text-anchor="middle" x="488.19" y="-174.41" font-family="Times,serif" font-size="14.00">(CompareSwitch)</text>
</a>
</g>
</g>
<!-- /range/sequence/start&#45;&gt;/range/sequence/compare -->
<g id="edge3" class="edge">
<title>/range/sequence/start:s&#45;&gt;/range/sequence/compare:ne</title>
<path fill="none" stroke="black" d="M434.19,-319.48C434.19,-264.05 540.51,-255.45 520.46,-220.39"/>
<polygon fill="black" stroke="black" points="523.14,-218.14 514.19,-212.48 517.66,-222.49 523.14,-218.14"/>
<text text-anchor="middle" x="496.19" y="-216.28" font-family="Times,serif" font-size="14.00">right</text>
</g>
<!-- /range/sequence/end -->
<g id="node2" class="node">
<title>/range/sequence/end</title>
<polygon fill="white" stroke="black" points="562.78,-341.04 528.19,-353.48 493.6,-341.04 493.63,-320.92 562.74,-320.92 562.78,-341.04"/>
<text text-anchor="middle" x="528.19" y="-331.78" font-family="Times,serif" font-size="14.00">end</text>
</g>
<!-- /range/sequence/end&#45;&gt;/range/sequence/compare -->
<g id="edge4" class="edge">
<title>/range/sequence/end:s&#45;&gt;/range/sequence/compare:ne</title>
<path fill="none" stroke="black" d="M528.19,-319.48C528.19,-275.27 545.11,-250.46 521.18,-220.28"/>
<polygon fill="black" stroke="black" points="523.47,-217.59 514.19,-212.48 518.26,-222.26 523.47,-217.59"/>
<text text-anchor="middle" x="526.69" y="-216.28" font-family="Times,serif" font-size="14.00">left</text>
</g>
<!-- /range/sequence/step -->
<g id="node3" class="node">
<title>/range/sequence/step</title>
<polygon fill="white" stroke="black" points="374.7,-341.04 337.19,-353.48 299.67,-341.04 299.7,-320.92 374.67,-320.92 374.7,-341.04"/>
<text text-anchor="middle" x="337.19" y="-331.78" font-family="Times,serif" font-size="14.00">step</text>
</g>
<!-- /range/sequence/add -->
<g id="node8" class="node">
<title>/range/sequence/add</title>
<g id="a_node8"><a xlink:href="../../flowstdlib/math/add/add.html" xlink:title="add\n(Add)">
<ellipse fill="coral" stroke="black" cx="376.19" cy="-80.87" rx="38.78" ry="26.74"/>
<text text-anchor="middle" x="376.19" y="-84.67" font-family="Times,serif" font-size="14.00">add</text>
<text text-anchor="middle" x="376.19" y="-69.67" font-family="Times,serif" font-size="14.00">(Add)</text>
</a>
</g>
</g>
<!-- /range/sequence/step&#45;&gt;/range/sequence/add -->
<g id="edge5" class="edge">
<title>/range/sequence/step:s&#45;&gt;/range/sequence/add:w</title>
<path fill="none" stroke="black" d="M337.19,-319.48C337.19,-295.92 315.46,-125.79 329.23,-88.21"/>
<polygon fill="black" stroke="black" points="331.84,-90.53 336.19,-80.87 326.76,-85.72 331.84,-90.53"/>
<text text-anchor="middle" x="329.19" y="-84.67" font-family="Times,serif" font-size="14.00">i2</text>
</g>
<!-- /range/sequence/sequence -->
<g id="node4" class="node">
<title>/range/sequence/sequence</title>
<polygon fill="black" stroke="black" points="336.33,-12.44 403.19,0 470.05,-12.44 469.98,-32.56 336.39,-32.56 336.33,-12.44"/>
<text text-anchor="middle" x="403.19" y="-14.3" font-family="Times,serif" font-size="14.00" fill="white">sequence</text>
</g>
<!-- /range/sequence/last -->
<g id="node5" class="node">
<title>/range/sequence/last</title>
<polygon fill="black" stroke="black" points="487.6,-12.44 522.19,0 556.78,-12.44 556.74,-32.56 487.63,-32.56 487.6,-12.44"/>
<text text-anchor="middle" x="522.19" y="-14.3" font-family="Times,serif" font-size="14.00" fill="white">last</text>
</g>
<!-- /range/sequence/compare&#45;&gt;/range/sequence/sequence -->
<g id="edge7" class="edge">
<title>/range/sequence/compare:s&#45;&gt;/range/sequence/sequence:n</title>
<path fill="none" stroke="black" d="M488.19,-158.74C488.19,-131.23 439.08,-75.72 422.19,-54 417.48,-47.95 411.24,-46.44 407.21,-43.16"/>
<polygon fill="black" stroke="black" points="410.41,-41.75 403.19,-34 404,-44.56 410.41,-41.75"/>
<text text-anchor="middle" x="481.73" y="-80.49" font-family="Times,serif" font-size="14.00">right&#45;lte</text>
</g>
<!-- /range/sequence/compare&#45;&gt;/range/sequence/last -->
<g id="edge11" class="edge">
<title>/range/sequence/compare:s&#45;&gt;/range/sequence/last:n</title>
<path fill="none" stroke="black" d="M488.19,-158.74C488.19,-104.87 518.07,-92.88 521.8,-44.24"/>
<polygon fill="black" stroke="black" points="525.31,-44.12 522.19,-34 518.32,-43.86 525.31,-44.12"/>
<text text-anchor="middle" x="473.27" y="-100" font-family="Times,serif" font-size="14.00">right&#45;gte</text>
</g>
<!-- /range/sequence/compare&#45;&gt;/range/sequence/compare -->
<g id="edge8" class="edge">
<title>/range/sequence/compare:s&#45;&gt;/range/sequence/compare:ne</title>
<path fill="none" stroke="black" d="M488.19,-158.61C527.18,-145.61 605.18,-145.61 605.18,-185.11 605.18,-221.37 561.36,-224.34 524.01,-214.53"/>
<polygon fill="black" stroke="black" points="524.77,-211.11 514.19,-211.61 522.77,-217.82 524.77,-211.11"/>
<text text-anchor="middle" x="471.42" y="-145.81" font-family="Times,serif" font-size="14.00">left&#45;gt</text>
<text text-anchor="middle" x="501.69" y="-215.41" font-family="Times,serif" font-size="14.00">left</text>
</g>
<!-- /range/sequence/compare&#45;&gt;/range/sequence/add -->
<g id="edge9" class="edge">
<title>/range/sequence/compare:sw&#45;&gt;/range/sequence/add:ne</title>
<path fill="none" stroke="black" d="M462.19,-158.74C448.4,-144.96 436.99,-153.42 422.19,-140.74 410.35,-130.6 410.92,-121.99 404.64,-111.91"/>
<polygon fill="black" stroke="black" points="407.17,-109.48 398.19,-103.87 401.72,-113.86 407.17,-109.48"/>
<text text-anchor="middle" x="396.41" y="-144.3" font-family="Times,serif" font-size="14.00">right&#45;lt</text>
<text text-anchor="middle" x="391.19" y="-107.67" font-family="Times,serif" font-size="14.00">i1</text>
</g>
<!-- initializer/range/sequence/compare_1 -->
<!-- initializer/range/sequence/compare_1&#45;&gt;/range/sequence/compare -->
<g id="edge1" class="edge">
<title>initializer/range/sequence/compare_1&#45;&gt;/range/sequence/compare:ne</title>
<path fill="none" stroke="blue" stroke-dasharray="1,5" d="M618.34,-266.45C584.56,-257.57 548.75,-243.07 521.6,-219.4"/>
<polygon fill="blue" stroke="blue" points="523.88,-216.74 514.19,-212.48 519.11,-221.86 523.88,-216.74"/>
<text text-anchor="middle" x="562.19" y="-234.28" font-family="Times,serif" font-size="14.00">1</text>
</g>
<!-- /range/sequence/add&#45;&gt;/range/sequence/compare -->
<g id="edge10" class="edge">
<title>/range/sequence/add:sw&#45;&gt;/range/sequence/compare:ne</title>
<path fill="none" stroke="black" d="M354.19,-57.87C348.87,-52.55 342.45,-53.4 337.29,-58.87 322.4,-74.68 323.46,-91 337.29,-107.74 350.83,-124.12 410.36,-121.54 431.19,-125.74 500.65,-139.75 542.56,-103.69 587.18,-158.74 601.98,-176.99 603.68,-194.88 587.18,-211.61 577.75,-221.17 541.75,-223.45 523.13,-217.44"/>
<polygon fill="black" stroke="black" points="524.65,-214.28 514.19,-212.61 521.33,-220.44 524.65,-214.28"/>
<text text-anchor="middle" x="420.13" y="-115.37" font-family="Times,serif" font-size="14.00">sum</text>
<text text-anchor="middle" x="532.19" y="-216.41" font-family="Times,serif" font-size="14.00">right</text>
</g>
<!-- /range/sequence/add&#45;&gt;/range/sequence/add -->
<g id="edge6" class="edge">
<title>/range/sequence/add:e&#45;&gt;/range/sequence/add:w</title>
<path fill="none" stroke="black" d="M415.19,-80.87C433.08,-98.49 433.08,-133.74 376.19,-133.74 327.07,-133.74 320.36,-107.47 330.95,-88.95"/>
<polygon fill="black" stroke="black" points="333.85,-90.93 337.19,-80.87 328.31,-86.65 333.85,-90.93"/>
<text text-anchor="middle" x="422.19" y="-84.67" font-family="Times,serif" font-size="14.00">i2</text>
<text text-anchor="middle" x="330.19" y="-69.67" font-family="Times,serif" font-size="14.00">i2</text>
</g>
<!-- initializer/range/sequence/add_1 -->
<!-- initializer/range/sequence/add_1&#45;&gt;/range/sequence/add -->
<g id="edge2" class="edge">
<title>initializer/range/sequence/add_1&#45;&gt;/range/sequence/add:w</title>
<path fill="none" stroke="blue" stroke-dasharray="1,5" d="M176.7,-167.48C203.74,-139.51 262.68,-86.6 325.99,-81.3"/>
<polygon fill="blue" stroke="blue" points="326.34,-84.79 336.19,-80.87 326.05,-77.8 326.34,-84.79"/>
<text text-anchor="middle" x="228.19" y="-129.54" font-family="Times,serif" font-size="14.00">1</text>
</g>
</g>
</svg>
