<?xml version="1.0" encoding="UTF-8" standalone="no"?>
<!DOCTYPE svg PUBLIC "-//W3C//DTD SVG 1.1//EN"
 "http://www.w3.org/Graphics/SVG/1.1/DTD/svg11.dtd">
<!-- Generated by graphviz version 2.44.0 (20200408.0750)
 -->
<!-- Title: factorial Pages: 1 -->
<svg width="728pt" height="820pt"
 viewBox="28.80 28.80 698.73 790.72" xmlns="http://www.w3.org/2000/svg" xmlns:xlink="http://www.w3.org/1999/xlink">
<g id="graph0" class="graph" transform="scale(1 1) rotate(0) translate(32.8 786.72)">
<title>factorial</title>
<polygon fill="white" stroke="transparent" points="-4,4 -4,-757.92 665.93,-757.92 665.93,4 -4,4"/>
<text text-anchor="middle" x="330.96" y="-738.72" font-family="Times,serif" font-size="14.00">factorial</text>
<!-- /factorial/args -->
<g id="node1" class="node">
<title>/factorial/args</title>
<g id="a_node1"><a xlink:href="../../flowruntime/args/get.html" xlink:title="args\n(Get)">
<ellipse fill="coral" stroke="black" cx="244.29" cy="-704.05" rx="31.64" ry="26.74"/>
<text text-anchor="middle" x="244.29" y="-707.85" font-family="Times,serif" font-size="14.00">args</text>
<text text-anchor="middle" x="244.29" y="-692.85" font-family="Times,serif" font-size="14.00">(Get)</text>
</a>
</g>
</g>
<!-- /factorial/to_number -->
<g id="node2" class="node">
<title>/factorial/to_number</title>
<g id="a_node2"><a xlink:href="../../flowstdlib/fmt/to_number/to_number.html" xlink:title="to_number\n(ToNumber)">
<ellipse fill="coral" stroke="black" cx="337.29" cy="-613.31" rx="60.62" ry="26.74"/>
<text text-anchor="middle" x="337.29" y="-617.11" font-family="Times,serif" font-size="14.00">to_number</text>
<text text-anchor="middle" x="337.29" y="-602.11" font-family="Times,serif" font-size="14.00">(ToNumber)</text>
</a>
</g>
</g>
<!-- /factorial/args&#45;&gt;/factorial/to_number -->
<g id="edge4" class="edge">
<title>/factorial/args:e&#45;&gt;/factorial/to_number:w</title>
<path fill="none" stroke="black" d="M277.29,-704.05C293.68,-704.05 268.8,-644.15 269.71,-621.68"/>
<polygon fill="black" stroke="black" points="272.66,-623.57 275.29,-613.31 266.83,-619.69 272.66,-623.57"/>
<text text-anchor="middle" x="268.24" y="-662.28" font-family="Times,serif" font-size="14.00">[1]</text>
</g>
<!-- /factorial/multiply -->
<g id="node3" class="node">
<title>/factorial/multiply</title>
<g id="a_node3"><a xlink:href="../../flowstdlib/math/multiply/multiply.html" xlink:title="multiply\n(Multiply)">
<ellipse fill="coral" stroke="black" cx="438.29" cy="-208.35" rx="52.15" ry="26.74"/>
<text text-anchor="middle" x="438.29" y="-212.15" font-family="Times,serif" font-size="14.00">multiply</text>
<text text-anchor="middle" x="438.29" y="-197.15" font-family="Times,serif" font-size="14.00">(Multiply)</text>
</a>
</g>
</g>
<!-- /factorial/to_number&#45;&gt;/factorial/multiply -->
<g id="edge5" class="edge">
<title>/factorial/to_number:e&#45;&gt;/factorial/multiply:w</title>
<path fill="none" stroke="black" d="M399.29,-613.31C445.4,-613.31 398.29,-555.68 398.29,-509.57 398.29,-509.57 398.29,-509.57 398.29,-312.09 398.29,-302.78 381.85,-241.86 381.28,-217.95"/>
<polygon fill="black" stroke="black" points="384.64,-218.94 384.29,-208.35 377.96,-216.84 384.64,-218.94"/>
<text text-anchor="middle" x="378.79" y="-212.15" font-family="Times,serif" font-size="14.00">i2</text>
</g>
<!-- /factorial/sub -->
<g id="node5" class="node">
<title>/factorial/sub</title>
<g id="a_node5"><a xlink:href="../../flowstdlib/math/subtract/subtract.html" xlink:title="sub\n(Subtract)">
<ellipse fill="coral" stroke="black" cx="304.29" cy="-508.57" rx="50.41" ry="26.74"/>
<text text-anchor="middle" x="304.29" y="-512.37" font-family="Times,serif" font-size="14.00">sub</text>
<text text-anchor="middle" x="304.29" y="-497.37" font-family="Times,serif" font-size="14.00">(Subtract)</text>
</a>
</g>
</g>
<!-- /factorial/to_number&#45;&gt;/factorial/sub -->
<g id="edge6" class="edge">
<title>/factorial/to_number:e&#45;&gt;/factorial/sub:ne</title>
<path fill="none" stroke="black" d="M399.29,-613.31C411.24,-613.31 403.81,-597.04 398.29,-586.44 390.58,-571.65 354.92,-553.56 336.14,-540.01"/>
<polygon fill="black" stroke="black" points="338.24,-537.21 328.29,-533.57 333.8,-542.62 338.24,-537.21"/>
<text text-anchor="middle" x="322.79" y="-537.37" font-family="Times,serif" font-size="14.00">i1</text>
</g>
<!-- /factorial/multiply&#45;&gt;/factorial/multiply -->
<g id="edge7" class="edge">
<title>/factorial/multiply:e&#45;&gt;/factorial/multiply:ne</title>
<path fill="none" stroke="black" d="M491.29,-208.35C496.62,-197.35 508.62,-197.35 508.62,-220.35 508.62,-240.21 491.56,-242.92 471.82,-236.21"/>
<polygon fill="black" stroke="black" points="472.87,-232.87 462.29,-232.35 470.24,-239.35 472.87,-232.87"/>
<text text-anchor="middle" x="456.79" y="-236.15" font-family="Times,serif" font-size="14.00">i1</text>
</g>
<!-- /factorial/result&#45;tap -->
<g id="node10" class="node">
<title>/factorial/result&#45;tap</title>
<g id="a_node10"><a xlink:href="../../flowstdlib/control/tap/tap.html" xlink:title="result&#45;tap\n(Tap)">
<ellipse fill="coral" stroke="black" cx="299.29" cy="-117.61" rx="48.17" ry="26.74"/>
<text text-anchor="middle" x="299.29" y="-121.41" font-family="Times,serif" font-size="14.00">result&#45;tap</text>
<text text-anchor="middle" x="299.29" y="-106.41" font-family="Times,serif" font-size="14.00">(Tap)</text>
</a>
</g>
</g>
<!-- /factorial/multiply&#45;&gt;/factorial/result&#45;tap -->
<g id="edge14" class="edge">
<title>/factorial/multiply:e&#45;&gt;/factorial/result&#45;tap:nw</title>
<path fill="none" stroke="black" d="M492.29,-208.35C504.24,-208.35 499.12,-190.5 491.29,-181.48 463.31,-149.26 292.52,-170.07 273.36,-152.67"/>
<polygon fill="black" stroke="black" points="276.84,-153.09 275.29,-142.61 269.97,-151.77 276.84,-153.09"/>
<text text-anchor="middle" x="263.79" y="-146.41" font-family="Times,serif" font-size="14.00">data</text>
</g>
<!-- initializer/factorial/multiply_0 -->
<!-- initializer/factorial/multiply_0&#45;&gt;/factorial/multiply -->
<g id="edge1" class="edge">
<title>initializer/factorial/multiply_0&#45;&gt;/factorial/multiply:ne</title>
<path fill="none" stroke="blue" stroke-dasharray="1,5" d="M526.17,-295.09C511.25,-281.01 489.39,-260.2 469.51,-240.53"/>
<polygon fill="blue" stroke="blue" points="471.85,-237.92 462.29,-233.35 466.91,-242.88 471.85,-237.92"/>
<text text-anchor="middle" x="499.79" y="-257.02" font-family="Times,serif" font-size="14.00">1</text>
</g>
<!-- /factorial/compare -->
<g id="node7" class="node">
<title>/factorial/compare</title>
<g id="a_node7"><a xlink:href="../../flowstdlib/math/compare/compare.html" xlink:title="compare\n(Compare)">
<ellipse fill="coral" stroke="black" cx="240.29" cy="-403.83" rx="53.98" ry="26.74"/>
<text text-anchor="middle" x="240.29" y="-407.63" font-family="Times,serif" font-size="14.00">compare</text>
<text text-anchor="middle" x="240.29" y="-392.63" font-family="Times,serif" font-size="14.00">(Compare)</text>
</a>
</g>
</g>
<!-- /factorial/sub&#45;&gt;/factorial/compare -->
<g id="edge9" class="edge">
<title>/factorial/sub:e&#45;&gt;/factorial/compare:ne</title>
<path fill="none" stroke="black" d="M355.29,-508.57C367.24,-508.57 361.21,-491.44 354.29,-481.7 341.58,-463.8 327.32,-474.64 308.29,-463.7 289.87,-453.11 283.71,-448.07 271.39,-435.91"/>
<polygon fill="black" stroke="black" points="273.84,-433.41 264.29,-428.83 268.9,-438.37 273.84,-433.41"/>
<text text-anchor="middle" x="254.79" y="-432.63" font-family="Times,serif" font-size="14.00">left</text>
</g>
<!-- /factorial/n&#45;tap -->
<g id="node9" class="node">
<title>/factorial/n&#45;tap</title>
<g id="a_node9"><a xlink:href="../../flowstdlib/control/tap/tap.html" xlink:title="n&#45;tap\n(Tap)">
<ellipse fill="coral" stroke="black" cx="333.29" cy="-313.09" rx="33.47" ry="26.74"/>
<text text-anchor="middle" x="333.29" y="-316.89" font-family="Times,serif" font-size="14.00">n&#45;tap</text>
<text text-anchor="middle" x="333.29" y="-301.89" font-family="Times,serif" font-size="14.00">(Tap)</text>
</a>
</g>
</g>
<!-- /factorial/sub&#45;&gt;/factorial/n&#45;tap -->
<g id="edge8" class="edge">
<title>/factorial/sub:e&#45;&gt;/factorial/n&#45;tap:nw</title>
<path fill="none" stroke="black" d="M355.29,-508.57C370.14,-508.57 400.38,-481.99 336.29,-357.96 332.54,-350.7 322.36,-347.66 315.81,-344.62"/>
<polygon fill="black" stroke="black" points="319.04,-343.26 312.29,-335.09 312.48,-345.68 319.04,-343.26"/>
<text text-anchor="middle" x="300.79" y="-338.89" font-family="Times,serif" font-size="14.00">data</text>
</g>
<!-- initializer/factorial/sub_1 -->
<!-- initializer/factorial/sub_1&#45;&gt;/factorial/sub -->
<g id="edge2" class="edge">
<title>initializer/factorial/sub_1&#45;&gt;/factorial/sub:w</title>
<path fill="none" stroke="blue" d="M184.6,-595.6C203.86,-581.66 229.63,-560.13 245.29,-535.44 248.94,-529.69 247.26,-522.19 247.03,-516.58"/>
<polygon fill="blue" stroke="blue" points="249.89,-518.61 253.29,-508.57 244.37,-514.3 249.89,-518.61"/>
<text text-anchor="middle" x="233.79" y="-557.24" font-family="Times,serif" font-size="14.00">1</text>
</g>
<!-- /factorial/compare&#45;&gt;/factorial/n&#45;tap -->
<g id="edge10" class="edge">
<title>/factorial/compare:sw&#45;&gt;/factorial/n&#45;tap:nw</title>
<path fill="none" stroke="black" d="M216.29,-378.83C185.47,-348.01 266.27,-365.35 304.43,-341.3"/>
<polygon fill="black" stroke="black" points="306.61,-344.03 312.29,-335.09 302.27,-338.54 306.61,-344.03"/>
<text text-anchor="middle" x="258.29" y="-357.83" font-family="Times,serif" font-size="14.00">gt</text>
<text text-anchor="middle" x="331.79" y="-338.89" font-family="Times,serif" font-size="14.00">control</text>
</g>
<!-- /factorial/compare&#45;&gt;/factorial/result&#45;tap -->
<g id="edge13" class="edge">
<title>/factorial/compare:s&#45;&gt;/factorial/result&#45;tap:nw</title>
<path fill="none" stroke="black" d="M240.29,-376.96C240.29,-275.15 203.4,-220.76 268.24,-149.96"/>
<polygon fill="black" stroke="black" points="270.9,-152.25 275.29,-142.61 265.84,-147.41 270.9,-152.25"/>
<text text-anchor="middle" x="222.95" y="-255.6" font-family="Times,serif" font-size="14.00">lte</text>
<text text-anchor="middle" x="294.79" y="-146.41" font-family="Times,serif" font-size="14.00">control</text>
</g>
<!-- initializer/factorial/compare_1 -->
<!-- initializer/factorial/compare_1&#45;&gt;/factorial/compare -->
<g id="edge3" class="edge">
<title>initializer/factorial/compare_1&#45;&gt;/factorial/compare:ne</title>
<path fill="none" stroke="blue" d="M188.11,-494.03C234.68,-482.38 284.93,-463.27 270.51,-436.86"/>
<polygon fill="blue" stroke="blue" points="273.18,-434.59 264.29,-428.83 267.65,-438.88 273.18,-434.59"/>
<text text-anchor="middle" x="276.79" y="-452.5" font-family="Times,serif" font-size="14.00">1</text>
</g>
<!-- /factorial/n&#45;tap&#45;&gt;/factorial/multiply -->
<g id="edge11" class="edge">
<title>/factorial/n&#45;tap:e&#45;&gt;/factorial/multiply:w</title>
<path fill="none" stroke="black" d="M368.29,-313.09C411.15,-313.09 350.24,-226.33 374.45,-210.73"/>
<polygon fill="black" stroke="black" points="375.39,-214.11 384.29,-208.35 373.75,-207.3 375.39,-214.11"/>
<text text-anchor="middle" x="378.79" y="-197.15" font-family="Times,serif" font-size="14.00">i2</text>
</g>
<!-- /factorial/n&#45;tap&#45;&gt;/factorial/sub -->
<g id="edge12" class="edge">
<title>/factorial/n&#45;tap:e&#45;&gt;/factorial/sub:ne</title>
<path fill="none" stroke="black" d="M368.29,-313.09C380.24,-313.09 373.44,-329.72 367.29,-339.96 359.09,-353.62 344.24,-344.15 336.29,-357.96 297.36,-425.58 408.6,-476.36 354.49,-532.57 349.19,-538.08 343.11,-540.34 337.23,-538.91"/>
<polygon fill="black" stroke="black" points="338.67,-535.69 328.29,-533.57 335.08,-541.7 338.67,-535.69"/>
<text text-anchor="middle" x="333.79" y="-537.37" font-family="Times,serif" font-size="14.00">i1</text>
</g>
<!-- /factorial/print -->
<g id="node11" class="node">
<title>/factorial/print</title>
<g id="a_node11"><a xlink:href="../../flowruntime/stdio/stdout.html" xlink:title="print\n(Stdout)">
<ellipse fill="coral" stroke="black" cx="392.29" cy="-26.87" rx="43.27" ry="26.74"/>
<text text-anchor="middle" x="392.29" y="-30.67" font-family="Times,serif" font-size="14.00">print</text>
<text text-anchor="middle" x="392.29" y="-15.67" font-family="Times,serif" font-size="14.00">(Stdout)</text>
</a>
</g>
</g>
<!-- /factorial/result&#45;tap&#45;&gt;/factorial/print -->
<g id="edge15" class="edge">
<title>/factorial/result&#45;tap:e&#45;&gt;/factorial/print:w</title>
<path fill="none" stroke="black" d="M349.29,-117.61C384.9,-117.61 324.64,-46.89 337.78,-30.32"/>
<polygon fill="black" stroke="black" points="339.08,-33.57 347.29,-26.87 336.7,-26.99 339.08,-33.57"/>
</g>
</g>
</svg>
