<?xml version="1.0" encoding="UTF-8" standalone="no"?>
<!DOCTYPE svg PUBLIC "-//W3C//DTD SVG 1.1//EN"
 "http://www.w3.org/Graphics/SVG/1.1/DTD/svg11.dtd">
<!-- Generated by graphviz version 2.44.1 (20200629.0846)
 -->
<!-- Title: factorial Pages: 1 -->
<svg width="726pt" height="693pt"
 viewBox="28.80 28.80 696.73 664.50" xmlns="http://www.w3.org/2000/svg" xmlns:xlink="http://www.w3.org/1999/xlink">
<g id="graph0" class="graph" transform="scale(1 1) rotate(0) translate(32.8 660.5)">
<title>factorial</title>
<polygon fill="white" stroke="transparent" points="-4,4 -4,-631.7 663.93,-631.7 663.93,4 -4,4"/>
<text text-anchor="middle" x="329.96" y="-612.5" font-family="Times,serif" font-size="14.00">factorial</text>
<!-- /factorial/args -->
<g id="node1" class="node">
<title>/factorial/args</title>
<g id="a_node1"><a xlink:href="../../flowr/src/lib/flowruntime/args/get.html" xlink:title="args\n(get)">
<ellipse fill="coral" stroke="black" cx="366.29" cy="-577.83" rx="29.9" ry="26.74"/>
<text text-anchor="middle" x="366.29" y="-581.63" font-family="Times,serif" font-size="14.00">args</text>
<text text-anchor="middle" x="366.29" y="-566.63" font-family="Times,serif" font-size="14.00">(get)</text>
</a>
</g>
</g>
<!-- /factorial/multiply -->
<g id="node2" class="node">
<title>/factorial/multiply</title>
<g id="a_node2"><a xlink:href="../../flowstdlib/math/multiply/multiply.html" xlink:title="multiply">
<ellipse fill="coral" stroke="black" cx="424.29" cy="-199.48" rx="40.89" ry="18"/>
<text text-anchor="middle" x="424.29" y="-195.78" font-family="Times,serif" font-size="14.00">multiply</text>
</a>
</g>
</g>
<!-- /factorial/args&#45;&gt;/factorial/multiply -->
<g id="edge4" class="edge">
<title>/factorial/args:e&#45;&gt;/factorial/multiply:w</title>
<path fill="none" stroke="black" d="M397.29,-577.83C443.4,-577.83 396.29,-520.2 396.29,-474.09 396.29,-474.09 396.29,-474.09 396.29,-294.35 396.29,-285.94 380.94,-231.74 379.7,-209.24"/>
<polygon fill="black" stroke="black" points="383.11,-210.04 382.29,-199.48 376.34,-208.25 383.11,-210.04"/>
<text text-anchor="middle" x="376.79" y="-455.42" font-family="Times,serif" font-size="14.00">json[1]</text>
<text text-anchor="middle" x="376.79" y="-203.28" font-family="Times,serif" font-size="14.00">i2</text>
</g>
<!-- /factorial/sub -->
<g id="node4" class="node">
<title>/factorial/sub</title>
<g id="a_node4"><a xlink:href="../../flowstdlib/math/subtract/subtract.html" xlink:title="sub\n(subtract)">
<ellipse fill="coral" stroke="black" cx="302.29" cy="-473.09" rx="48.17" ry="26.74"/>
<text text-anchor="middle" x="302.29" y="-476.89" font-family="Times,serif" font-size="14.00">sub</text>
<text text-anchor="middle" x="302.29" y="-461.89" font-family="Times,serif" font-size="14.00">(subtract)</text>
</a>
</g>
</g>
<!-- /factorial/args&#45;&gt;/factorial/sub -->
<g id="edge5" class="edge">
<title>/factorial/args:e&#45;&gt;/factorial/sub:ne</title>
<path fill="none" stroke="black" d="M397.29,-577.83C409.24,-577.83 401.81,-561.56 396.29,-550.96 388.58,-536.17 352.92,-518.08 334.14,-504.53"/>
<polygon fill="black" stroke="black" points="336.24,-501.72 326.29,-498.09 331.8,-507.14 336.24,-501.72"/>
<text text-anchor="middle" x="350.01" y="-531.18" font-family="Times,serif" font-size="14.00">json[1]</text>
<text text-anchor="middle" x="320.79" y="-501.89" font-family="Times,serif" font-size="14.00">i1</text>
</g>
<!-- /factorial/multiply&#45;&gt;/factorial/multiply -->
<g id="edge6" class="edge">
<title>/factorial/multiply:e&#45;&gt;/factorial/multiply:ne</title>
<path fill="none" stroke="black" d="M465.29,-199.48C471.24,-190.48 483.24,-190.48 483.24,-207.98 483.24,-222.61 467.65,-225.01 451.06,-220.15"/>
<polygon fill="black" stroke="black" points="451.88,-216.71 441.29,-216.48 449.42,-223.27 451.88,-216.71"/>
<text text-anchor="middle" x="435.79" y="-220.28" font-family="Times,serif" font-size="14.00">i1</text>
</g>
<!-- /factorial/result&#45;tap -->
<g id="node9" class="node">
<title>/factorial/result&#45;tap</title>
<g id="a_node9"><a xlink:href="../../flowstdlib/control/tap/tap.html" xlink:title="result&#45;tap\n(tap)">
<ellipse fill="coral" stroke="black" cx="307.29" cy="-117.61" rx="48.17" ry="26.74"/>
<text text-anchor="middle" x="307.29" y="-121.41" font-family="Times,serif" font-size="14.00">result&#45;tap</text>
<text text-anchor="middle" x="307.29" y="-106.41" font-family="Times,serif" font-size="14.00">(tap)</text>
</a>
</g>
</g>
<!-- /factorial/multiply&#45;&gt;/factorial/result&#45;tap -->
<g id="edge13" class="edge">
<title>/factorial/multiply:e&#45;&gt;/factorial/result&#45;tap:nw</title>
<path fill="none" stroke="black" d="M466.29,-199.48C474.3,-199.48 470.5,-187.57 465.29,-181.48 442.49,-154.85 306.56,-166.45 283.48,-152.79"/>
<polygon fill="black" stroke="black" points="286.98,-152.54 283.29,-142.61 279.98,-152.68 286.98,-152.54"/>
<text text-anchor="middle" x="271.79" y="-146.41" font-family="Times,serif" font-size="14.00">data</text>
</g>
<!-- initializer/factorial/multiply_0 -->
<!-- initializer/factorial/multiply_0&#45;&gt;/factorial/multiply -->
<g id="edge1" class="edge">
<title>initializer/factorial/multiply_0&#45;&gt;/factorial/multiply:ne</title>
<path fill="none" stroke="blue" stroke-dasharray="1,5" d="M516.7,-277.75C497.49,-264.7 470.79,-245.32 448.62,-224.56"/>
<polygon fill="blue" stroke="blue" points="450.91,-221.91 441.29,-217.48 446.05,-226.95 450.91,-221.91"/>
<text text-anchor="middle" x="481.79" y="-239.28" font-family="Times,serif" font-size="14.00">1</text>
</g>
<!-- /factorial/compare -->
<g id="node6" class="node">
<title>/factorial/compare</title>
<g id="a_node6"><a xlink:href="../../flowstdlib/math/compare/compare.html" xlink:title="compare">
<ellipse fill="coral" stroke="black" cx="250.29" cy="-377.22" rx="41.69" ry="18"/>
<text text-anchor="middle" x="250.29" y="-373.52" font-family="Times,serif" font-size="14.00">compare</text>
</a>
</g>
</g>
<!-- /factorial/sub&#45;&gt;/factorial/compare -->
<g id="edge8" class="edge">
<title>/factorial/sub:e&#45;&gt;/factorial/compare:ne</title>
<path fill="none" stroke="black" d="M352.29,-473.09C364.24,-473.09 358.17,-455.99 351.29,-446.22 338.88,-428.61 324.75,-439.32 306.29,-428.22 290.18,-418.53 285.02,-413.27 274.6,-402.63"/>
<polygon fill="black" stroke="black" points="276.8,-399.88 267.29,-395.22 271.82,-404.8 276.8,-399.88"/>
<text text-anchor="middle" x="296.27" y="-432.01" font-family="Times,serif" font-size="14.00">diff</text>
<text text-anchor="middle" x="257.79" y="-399.02" font-family="Times,serif" font-size="14.00">left</text>
</g>
<!-- /factorial/n&#45;tap -->
<g id="node8" class="node">
<title>/factorial/n&#45;tap</title>
<g id="a_node8"><a xlink:href="../../flowstdlib/control/tap/tap.html" xlink:title="n&#45;tap\n(tap)">
<ellipse fill="coral" stroke="black" cx="335.29" cy="-295.35" rx="31.23" ry="26.74"/>
<text text-anchor="middle" x="335.29" y="-299.15" font-family="Times,serif" font-size="14.00">n&#45;tap</text>
<text text-anchor="middle" x="335.29" y="-284.15" font-family="Times,serif" font-size="14.00">(tap)</text>
</a>
</g>
</g>
<!-- /factorial/sub&#45;&gt;/factorial/n&#45;tap -->
<g id="edge7" class="edge">
<title>/factorial/sub:e&#45;&gt;/factorial/n&#45;tap:nw</title>
<path fill="none" stroke="black" d="M352.29,-473.09C364.41,-473.09 376.59,-430.36 334.29,-340.22 331.24,-333.73 323.09,-330.37 317.55,-327.22"/>
<polygon fill="black" stroke="black" points="320.75,-325.75 314.29,-317.35 314.11,-327.94 320.75,-325.75"/>
<text text-anchor="middle" x="324.29" y="-344.02" font-family="Times,serif" font-size="14.00">diff</text>
<text text-anchor="middle" x="302.79" y="-321.15" font-family="Times,serif" font-size="14.00">data</text>
</g>
<!-- initializer/factorial/sub_1 -->
<!-- initializer/factorial/sub_1&#45;&gt;/factorial/sub -->
<g id="edge2" class="edge">
<title>initializer/factorial/sub_1&#45;&gt;/factorial/sub:w</title>
<path fill="none" stroke="blue" d="M225.42,-559.84C230.93,-544.34 239.08,-520.75 245.29,-499.96 247.22,-493.49 245.44,-486.06 245.45,-480.66"/>
<polygon fill="blue" stroke="blue" points="248.18,-482.86 252.29,-473.09 242.99,-478.17 248.18,-482.86"/>
<text text-anchor="middle" x="243.79" y="-521.76" font-family="Times,serif" font-size="14.00">1</text>
</g>
<!-- /factorial/compare&#45;&gt;/factorial/n&#45;tap -->
<g id="edge9" class="edge">
<title>/factorial/compare:sw&#45;&gt;/factorial/n&#45;tap:nw</title>
<path fill="none" stroke="black" d="M233.29,-359.22C206.98,-332.92 273.08,-343.77 306.27,-323.56"/>
<polygon fill="black" stroke="black" points="308.53,-326.24 314.29,-317.35 304.24,-320.71 308.53,-326.24"/>
<text text-anchor="middle" x="267.26" y="-338.65" font-family="Times,serif" font-size="14.00">gt</text>
<text text-anchor="middle" x="294.79" y="-306.15" font-family="Times,serif" font-size="14.00">control</text>
</g>
<!-- /factorial/compare&#45;&gt;/factorial/result&#45;tap -->
<g id="edge12" class="edge">
<title>/factorial/compare:s&#45;&gt;/factorial/result&#45;tap:nw</title>
<path fill="none" stroke="black" d="M250.29,-359.22C250.29,-265.45 217.04,-215.27 276.05,-150.2"/>
<polygon fill="black" stroke="black" points="278.92,-152.26 283.29,-142.61 273.86,-147.43 278.92,-152.26"/>
<text text-anchor="middle" x="234.04" y="-247.73" font-family="Times,serif" font-size="14.00">lte</text>
<text text-anchor="middle" x="302.79" y="-146.41" font-family="Times,serif" font-size="14.00">control</text>
</g>
<!-- initializer/factorial/compare_1 -->
<!-- initializer/factorial/compare_1&#45;&gt;/factorial/compare -->
<g id="edge3" class="edge">
<title>initializer/factorial/compare_1&#45;&gt;/factorial/compare:ne</title>
<path fill="none" stroke="blue" d="M166.92,-456.6C207.72,-442.62 260.62,-421.77 268.88,-405.3"/>
<polygon fill="blue" stroke="blue" points="272.31,-404.55 267.29,-395.22 265.39,-405.64 272.31,-404.55"/>
<text text-anchor="middle" x="265.79" y="-417.02" font-family="Times,serif" font-size="14.00">1</text>
</g>
<!-- /factorial/n&#45;tap&#45;&gt;/factorial/multiply -->
<g id="edge10" class="edge">
<title>/factorial/n&#45;tap:e&#45;&gt;/factorial/multiply:w</title>
<path fill="none" stroke="black" d="M367.29,-295.35C406.04,-295.35 352.46,-217.96 372.45,-202.25"/>
<polygon fill="black" stroke="black" points="373.61,-205.56 382.29,-199.48 371.72,-198.82 373.61,-205.56"/>
<text text-anchor="middle" x="376.79" y="-188.28" font-family="Times,serif" font-size="14.00">i2</text>
</g>
<!-- /factorial/n&#45;tap&#45;&gt;/factorial/sub -->
<g id="edge11" class="edge">
<title>/factorial/n&#45;tap:e&#45;&gt;/factorial/sub:ne</title>
<path fill="none" stroke="black" d="M367.29,-295.35C379.24,-295.35 372.51,-312.02 366.29,-322.22 357.79,-336.15 342.53,-326.13 334.29,-340.22 298.91,-400.72 398.89,-446.51 350.37,-497.09 345.74,-501.92 340.45,-504.06 335.28,-503.14"/>
<polygon fill="black" stroke="black" points="336.72,-499.94 326.29,-498.09 333.29,-506.04 336.72,-499.94"/>
<text text-anchor="middle" x="331.79" y="-501.89" font-family="Times,serif" font-size="14.00">i1</text>
</g>
<!-- /factorial/print -->
<g id="node10" class="node">
<title>/factorial/print</title>
<g id="a_node10"><a xlink:href="../../flowr/src/lib/flowruntime/stdio/stdout.html" xlink:title="print\n(stdout)">
<ellipse fill="coral" stroke="black" cx="398.29" cy="-26.87" rx="41.94" ry="26.74"/>
<text text-anchor="middle" x="398.29" y="-30.67" font-family="Times,serif" font-size="14.00">print</text>
<text text-anchor="middle" x="398.29" y="-15.67" font-family="Times,serif" font-size="14.00">(stdout)</text>
</a>
</g>
</g>
<!-- /factorial/result&#45;tap&#45;&gt;/factorial/print -->
<g id="edge14" class="edge">
<title>/factorial/result&#45;tap:e&#45;&gt;/factorial/print:w</title>
<path fill="none" stroke="black" d="M357.29,-117.61C392.9,-117.61 332.64,-46.89 345.78,-30.32"/>
<polygon fill="black" stroke="black" points="347.08,-33.57 355.29,-26.87 344.7,-26.99 347.08,-33.57"/>
</g>
</g>
</svg>
