<?xml version="1.0" encoding="UTF-8" standalone="no"?>
<!DOCTYPE svg PUBLIC "-//W3C//DTD SVG 1.1//EN"
 "http://www.w3.org/Graphics/SVG/1.1/DTD/svg11.dtd">
<!-- Generated by graphviz version 2.40.1 (0)
 -->
<!-- Title: factorial Pages: 1 -->
<svg width="870pt" height="820pt"
 viewBox="28.80 28.80 841.47 790.72" xmlns="http://www.w3.org/2000/svg" xmlns:xlink="http://www.w3.org/1999/xlink">
<g id="graph0" class="graph" transform="scale(1 1) rotate(0) translate(32.8 786.7209)">
<title>factorial</title>
<polygon fill="#ffffff" stroke="transparent" points="-4,4 -4,-757.9209 808.6736,-757.9209 808.6736,4 -4,4"/>
<text text-anchor="middle" x="402.3368" y="-738.7209" font-family="Times,serif" font-size="14.00" fill="#000000">factorial</text>
<!-- /factorial/args -->
<g id="node1" class="node">
<title>/factorial/args</title>
<g id="a_node1"><a xlink:href="../../flowruntime/args/get.toml" xlink:title="args\n(Get)">
<ellipse fill="#ff7f50" stroke="#000000" cx="298.4867" cy="-704.0509" rx="37.4533" ry="26.7407"/>
<text text-anchor="middle" x="298.4867" y="-707.8509" font-family="Times,serif" font-size="14.00" fill="#000000">args</text>
<text text-anchor="middle" x="298.4867" y="-692.8509" font-family="Times,serif" font-size="14.00" fill="#000000">(Get)</text>
</a>
</g>
</g>
<!-- /factorial/to_number -->
<g id="node2" class="node">
<title>/factorial/to_number</title>
<g id="a_node2"><a xlink:href="../../flowstdlib/fmt/to_number/to_number.toml" xlink:title="to_number\n(ToNumber)">
<ellipse fill="#ff7f50" stroke="#000000" cx="408.4867" cy="-613.3107" rx="72.25" ry="26.7407"/>
<text text-anchor="middle" x="408.4867" y="-617.1107" font-family="Times,serif" font-size="14.00" fill="#000000">to_number</text>
<text text-anchor="middle" x="408.4867" y="-602.1107" font-family="Times,serif" font-size="14.00" fill="#000000">(ToNumber)</text>
</a>
</g>
</g>
<!-- /factorial/args&#45;&gt;/factorial/to_number -->
<g id="edge4" class="edge">
<title>/factorial/args:e&#45;&gt;/factorial/to_number:w</title>
<path fill="none" stroke="#000000" d="M336.4867,-704.0509C352.8704,-704.0509 329.3189,-644.1482 330.7269,-621.6847"/>
<polygon fill="#000000" stroke="#000000" points="333.7033,-623.5334 336.4867,-613.3107 327.9358,-619.5664 333.7033,-623.5334"/>
<text text-anchor="middle" x="326.4424" y="-662.2814" font-family="Times,serif" font-size="14.00" fill="#000000">[1]</text>
</g>
<!-- /factorial/multiply -->
<g id="node3" class="node">
<title>/factorial/multiply</title>
<g id="a_node3"><a xlink:href="../../flowstdlib/math/multiply/multiply.toml" xlink:title="multiply\n(Multiply)">
<ellipse fill="#ff7f50" stroke="#000000" cx="529.4867" cy="-208.3503" rx="61.5366" ry="26.7407"/>
<text text-anchor="middle" x="529.4867" y="-212.1503" font-family="Times,serif" font-size="14.00" fill="#000000">multiply</text>
<text text-anchor="middle" x="529.4867" y="-197.1503" font-family="Times,serif" font-size="14.00" fill="#000000">(Multiply)</text>
</a>
</g>
</g>
<!-- /factorial/to_number&#45;&gt;/factorial/multiply -->
<g id="edge5" class="edge">
<title>/factorial/to_number:e&#45;&gt;/factorial/multiply:w</title>
<path fill="none" stroke="#000000" d="M480.4867,-613.3107C527.0379,-613.3107 480.4867,-555.1218 480.4867,-508.5706 480.4867,-508.5706 480.4867,-508.5706 480.4867,-313.0904 480.4867,-303.6996 464.6305,-242.1841 464.3346,-218.0467"/>
<polygon fill="#000000" stroke="#000000" points="467.7237,-218.9425 467.4867,-208.3503 461.0666,-216.7783 467.7237,-218.9425"/>
<text text-anchor="middle" x="460.4867" y="-212.1503" font-family="Times,serif" font-size="14.00" fill="#000000">i2</text>
</g>
<!-- /factorial/sub -->
<g id="node5" class="node">
<title>/factorial/sub</title>
<g id="a_node5"><a xlink:href="../../flowstdlib/math/subtract/subtract.toml" xlink:title="sub\n(Subtract)">
<ellipse fill="#ff7f50" stroke="#000000" cx="379.4867" cy="-508.5706" rx="62.8651" ry="26.7407"/>
<text text-anchor="middle" x="379.4867" y="-512.3706" font-family="Times,serif" font-size="14.00" fill="#000000">sub</text>
<text text-anchor="middle" x="379.4867" y="-497.3706" font-family="Times,serif" font-size="14.00" fill="#000000">(Subtract)</text>
</a>
</g>
</g>
<!-- /factorial/to_number&#45;&gt;/factorial/sub -->
<g id="edge6" class="edge">
<title>/factorial/to_number:e&#45;&gt;/factorial/sub:ne</title>
<path fill="none" stroke="#000000" d="M480.4867,-613.3107C492.429,-613.3107 486.0172,-597.0251 480.4867,-586.4407 472.2616,-570.6993 432.4401,-553.5765 412.3456,-539.8292"/>
<polygon fill="#000000" stroke="#000000" points="414.4897,-537.0624 404.4867,-533.5706 410.1289,-542.5382 414.4897,-537.0624"/>
<text text-anchor="middle" x="397.4867" y="-537.3706" font-family="Times,serif" font-size="14.00" fill="#000000">i1</text>
</g>
<!-- /factorial/multiply&#45;&gt;/factorial/multiply -->
<g id="edge7" class="edge">
<title>/factorial/multiply:e&#45;&gt;/factorial/multiply:ne</title>
<path fill="none" stroke="#000000" d="M591.4867,-208.3503C597.005,-197.3503 609.005,-197.3503 609.005,-220.8503 609.005,-241.5046 587.3663,-244.0057 564.1297,-236.8403"/>
<polygon fill="#000000" stroke="#000000" points="565.081,-233.4624 554.4867,-233.3503 562.6987,-240.0446 565.081,-233.4624"/>
<text text-anchor="middle" x="547.4867" y="-237.1503" font-family="Times,serif" font-size="14.00" fill="#000000">i1</text>
</g>
<!-- /factorial/result&#45;tap -->
<g id="node10" class="node">
<title>/factorial/result&#45;tap</title>
<g id="a_node10"><a xlink:href="../../flowstdlib/control/tap/tap.toml" xlink:title="result&#45;tap\n(Tap)">
<ellipse fill="#ff7f50" stroke="#000000" cx="372.4867" cy="-117.6102" rx="60.623" ry="26.7407"/>
<text text-anchor="middle" x="372.4867" y="-121.4102" font-family="Times,serif" font-size="14.00" fill="#000000">result&#45;tap</text>
<text text-anchor="middle" x="372.4867" y="-106.4102" font-family="Times,serif" font-size="14.00" fill="#000000">(Tap)</text>
</a>
</g>
</g>
<!-- /factorial/multiply&#45;&gt;/factorial/result&#45;tap -->
<g id="edge14" class="edge">
<title>/factorial/multiply:e&#45;&gt;/factorial/result&#45;tap:nw</title>
<path fill="none" stroke="#000000" d="M591.4867,-208.3503C603.429,-208.3503 599.2385,-190.5647 591.4867,-181.4802 559.4666,-143.9554 356.6897,-173.8211 343.9867,-152.1188"/>
<polygon fill="#000000" stroke="#000000" points="347.3169,-153.2037 347.4867,-142.6102 340.7478,-150.7856 347.3169,-153.2037"/>
<text text-anchor="middle" x="331.4867" y="-146.4102" font-family="Times,serif" font-size="14.00" fill="#000000">data</text>
</g>
<!-- initializer/factorial/multiply_0 -->
<!-- initializer/factorial/multiply_0&#45;&gt;/factorial/multiply -->
<g id="edge1" class="edge">
<title>initializer/factorial/multiply_0&#45;&gt;/factorial/multiply:ne</title>
<path fill="none" stroke="#0000ff" stroke-dasharray="1,5" d="M630.3365,-295.3557C611.0205,-281.7031 584.3036,-261.6482 561.9016,-240.541"/>
<polygon fill="#0000ff" stroke="#0000ff" points="564.1021,-237.7995 554.4867,-233.3503 559.2289,-242.8246 564.1021,-237.7995"/>
<text text-anchor="middle" x="597.4867" y="-257.0203" font-family="Times,serif" font-size="14.00" fill="#000000">1</text>
</g>
<!-- /factorial/compare -->
<g id="node7" class="node">
<title>/factorial/compare</title>
<g id="a_node7"><a xlink:href="../../flowstdlib/math/compare/compare.toml" xlink:title="compare\n(Compare)">
<ellipse fill="#ff7f50" stroke="#000000" cx="311.4867" cy="-403.8305" rx="65.1077" ry="26.7407"/>
<text text-anchor="middle" x="311.4867" y="-407.6305" font-family="Times,serif" font-size="14.00" fill="#000000">compare</text>
<text text-anchor="middle" x="311.4867" y="-392.6305" font-family="Times,serif" font-size="14.00" fill="#000000">(Compare)</text>
</a>
</g>
</g>
<!-- /factorial/sub&#45;&gt;/factorial/compare -->
<g id="edge9" class="edge">
<title>/factorial/sub:e&#45;&gt;/factorial/compare:ne</title>
<path fill="none" stroke="#000000" d="M442.4867,-508.5706C454.429,-508.5706 449.4137,-491.4286 442.4867,-481.7006 428.301,-461.7785 412.4732,-474.4112 390.4867,-463.7006 368.2143,-452.8507 359.1535,-449.7874 343.9656,-435.9911"/>
<polygon fill="#000000" stroke="#000000" points="346.1303,-433.2182 336.4867,-428.8305 341.2893,-438.2744 346.1303,-433.2182"/>
<text text-anchor="middle" x="323.9867" y="-432.6305" font-family="Times,serif" font-size="14.00" fill="#000000">left</text>
</g>
<!-- /factorial/n&#45;tap -->
<g id="node9" class="node">
<title>/factorial/n&#45;tap</title>
<g id="a_node9"><a xlink:href="../../flowstdlib/control/tap/tap.toml" xlink:title="n&#45;tap\n(Tap)">
<ellipse fill="#ff7f50" stroke="#000000" cx="410.4867" cy="-313.0904" rx="37.4533" ry="26.7407"/>
<text text-anchor="middle" x="410.4867" y="-316.8904" font-family="Times,serif" font-size="14.00" fill="#000000">n&#45;tap</text>
<text text-anchor="middle" x="410.4867" y="-301.8904" font-family="Times,serif" font-size="14.00" fill="#000000">(Tap)</text>
</a>
</g>
</g>
<!-- /factorial/sub&#45;&gt;/factorial/n&#45;tap -->
<g id="edge8" class="edge">
<title>/factorial/sub:e&#45;&gt;/factorial/n&#45;tap:nw</title>
<path fill="none" stroke="#000000" d="M442.4867,-508.5706C452.7204,-508.5706 457.9239,-421.4955 418.4867,-357.9605 413.375,-349.7252 400.1845,-347.3305 392.2555,-344.4849"/>
<polygon fill="#000000" stroke="#000000" points="395.4584,-343.0683 388.4867,-335.0904 388.9617,-345.6746 395.4584,-343.0683"/>
<text text-anchor="middle" x="372.4867" y="-338.8904" font-family="Times,serif" font-size="14.00" fill="#000000">data</text>
</g>
<!-- initializer/factorial/sub_1 -->
<!-- initializer/factorial/sub_1&#45;&gt;/factorial/sub -->
<g id="edge2" class="edge">
<title>initializer/factorial/sub_1&#45;&gt;/factorial/sub:w</title>
<path fill="none" stroke="#0000ff" d="M229.893,-596.1093C255.0578,-582.7974 287.2199,-562.1341 307.4867,-535.4407 311.7706,-529.7984 310.0979,-522.0018 310.0558,-516.2598"/>
<polygon fill="#0000ff" stroke="#0000ff" points="312.7559,-518.4869 316.4867,-508.5706 307.3864,-513.996 312.7559,-518.4869"/>
<text text-anchor="middle" x="295.4867" y="-557.2407" font-family="Times,serif" font-size="14.00" fill="#000000">1</text>
</g>
<!-- /factorial/compare&#45;&gt;/factorial/n&#45;tap -->
<g id="edge10" class="edge">
<title>/factorial/compare:sw&#45;&gt;/factorial/n&#45;tap:nw</title>
<path fill="none" stroke="#000000" d="M286.4867,-378.8305C253.9925,-346.3362 340.3025,-366.6965 380.4581,-341.4284"/>
<polygon fill="#000000" stroke="#000000" points="382.8064,-344.0338 388.4867,-335.0904 378.469,-338.5395 382.8064,-344.0338"/>
<text text-anchor="middle" x="329.4287" y="-358.1642" font-family="Times,serif" font-size="14.00" fill="#000000">gt</text>
<text text-anchor="middle" x="413.9867" y="-338.8904" font-family="Times,serif" font-size="14.00" fill="#000000">control</text>
</g>
<!-- /factorial/compare&#45;&gt;/factorial/result&#45;tap -->
<g id="edge13" class="edge">
<title>/factorial/compare:s&#45;&gt;/factorial/result&#45;tap:nw</title>
<path fill="none" stroke="#000000" d="M311.4867,-376.9605C311.4867,-275.0819 275.4887,-220.7959 340.4328,-149.9687"/>
<polygon fill="#000000" stroke="#000000" points="343.0932,-152.2511 347.4867,-142.6102 338.04,-147.407 343.0932,-152.2511"/>
<text text-anchor="middle" x="292.1051" y="-255.5945" font-family="Times,serif" font-size="14.00" fill="#000000">lte</text>
<text text-anchor="middle" x="372.9867" y="-146.4102" font-family="Times,serif" font-size="14.00" fill="#000000">control</text>
</g>
<!-- initializer/factorial/compare_1 -->
<!-- initializer/factorial/compare_1&#45;&gt;/factorial/compare -->
<g id="edge3" class="edge">
<title>initializer/factorial/compare_1&#45;&gt;/factorial/compare:ne</title>
<path fill="none" stroke="#0000ff" d="M253.0269,-495.5027C308.5666,-484.8742 362.0615,-466.6083 342.9523,-436.6903"/>
<polygon fill="#0000ff" stroke="#0000ff" points="345.5426,-434.3298 336.4867,-428.8305 340.1366,-438.7768 345.5426,-434.3298"/>
<text text-anchor="middle" x="352.4867" y="-452.5006" font-family="Times,serif" font-size="14.00" fill="#000000">1</text>
</g>
<!-- /factorial/n&#45;tap&#45;&gt;/factorial/multiply -->
<g id="edge11" class="edge">
<title>/factorial/n&#45;tap:e&#45;&gt;/factorial/multiply:w</title>
<path fill="none" stroke="#000000" d="M448.4867,-313.0904C491.547,-313.0904 432.7718,-226.3253 457.5336,-210.7347"/>
<polygon fill="#000000" stroke="#000000" points="458.5773,-214.0838 467.4867,-208.3503 456.9465,-207.2764 458.5773,-214.0838"/>
<text text-anchor="middle" x="460.4867" y="-197.1503" font-family="Times,serif" font-size="14.00" fill="#000000">i2</text>
</g>
<!-- /factorial/n&#45;tap&#45;&gt;/factorial/sub -->
<g id="edge12" class="edge">
<title>/factorial/n&#45;tap:e&#45;&gt;/factorial/sub:ne</title>
<path fill="none" stroke="#000000" d="M448.4867,-313.0904C460.429,-313.0904 454.3707,-329.5683 448.4867,-339.9605 440.8257,-353.4914 426.1478,-344.4295 418.4867,-357.9605 390.8883,-406.7045 433.4796,-426.4038 442.4192,-481.7006 446.0984,-504.4585 458.7204,-517.2694 442.4192,-533.5706 433.1059,-542.8839 422.4685,-544.9212 412.5759,-539.6825"/>
<polygon fill="#000000" stroke="#000000" points="414.5754,-536.8065 404.4867,-533.5706 410.3555,-542.3916 414.5754,-536.8065"/>
<text text-anchor="middle" x="411.4867" y="-537.3706" font-family="Times,serif" font-size="14.00" fill="#000000">i1</text>
</g>
<!-- /factorial/print -->
<g id="node11" class="node">
<title>/factorial/print</title>
<g id="a_node11"><a xlink:href="../../flowruntime/stdio/stdout.toml" xlink:title="print\n(Stdout)">
<ellipse fill="#ff7f50" stroke="#000000" cx="486.4867" cy="-26.8701" rx="53.066" ry="26.7407"/>
<text text-anchor="middle" x="486.4867" y="-30.6701" font-family="Times,serif" font-size="14.00" fill="#000000">print</text>
<text text-anchor="middle" x="486.4867" y="-15.6701" font-family="Times,serif" font-size="14.00" fill="#000000">(Stdout)</text>
</a>
</g>
</g>
<!-- /factorial/result&#45;tap&#45;&gt;/factorial/print -->
<g id="edge15" class="edge">
<title>/factorial/result&#45;tap:e&#45;&gt;/factorial/print:w</title>
<path fill="none" stroke="#000000" d="M433.4867,-117.6102C469.0896,-117.6102 410.4005,-46.8911 423.9037,-30.3164"/>
<polygon fill="#000000" stroke="#000000" points="425.2612,-33.5477 433.4867,-26.8701 422.8923,-26.9607 425.2612,-33.5477"/>
</g>
</g>
</svg>
