<?xml version="1.0" encoding="UTF-8" standalone="no"?>
<!DOCTYPE svg PUBLIC "-//W3C//DTD SVG 1.1//EN"
 "http://www.w3.org/Graphics/SVG/1.1/DTD/svg11.dtd">
<!-- Generated by graphviz version 2.42.4 (0)
 -->
<!-- Title: factorial Pages: 1 -->
<svg width="870pt" height="820pt"
 viewBox="28.80 28.80 841.47 790.72" xmlns="http://www.w3.org/2000/svg" xmlns:xlink="http://www.w3.org/1999/xlink">
<g id="graph0" class="graph" transform="scale(1 1) rotate(0) translate(32.8 786.72)">
<title>factorial</title>
<polygon fill="white" stroke="transparent" points="-4,4 -4,-757.92 808.67,-757.92 808.67,4 -4,4"/>
<text text-anchor="middle" x="402.34" y="-738.72" font-family="Times,serif" font-size="14.00">factorial</text>
<!-- /factorial/args -->
<g id="node1" class="node">
<title>/factorial/args</title>
<g id="a_node1"><a xlink:href="../../flowruntime/args/get.html" xlink:title="args\n(Get)">
<ellipse fill="coral" stroke="black" cx="298.49" cy="-704.05" rx="37.45" ry="26.74"/>
<text text-anchor="middle" x="298.49" y="-707.85" font-family="Times,serif" font-size="14.00">args</text>
<text text-anchor="middle" x="298.49" y="-692.85" font-family="Times,serif" font-size="14.00">(Get)</text>
</a>
</g>
</g>
<!-- /factorial/to_number -->
<g id="node2" class="node">
<title>/factorial/to_number</title>
<g id="a_node2"><a xlink:href="../../flowstdlib/fmt/to_number/to_number.html" xlink:title="to_number\n(ToNumber)">
<ellipse fill="coral" stroke="black" cx="408.49" cy="-613.31" rx="72.25" ry="26.74"/>
<text text-anchor="middle" x="408.49" y="-617.11" font-family="Times,serif" font-size="14.00">to_number</text>
<text text-anchor="middle" x="408.49" y="-602.11" font-family="Times,serif" font-size="14.00">(ToNumber)</text>
</a>
</g>
</g>
<!-- /factorial/args&#45;&gt;/factorial/to_number -->
<g id="edge4" class="edge">
<title>/factorial/args:e&#45;&gt;/factorial/to_number:w</title>
<path fill="none" stroke="black" d="M337.49,-704.05C353.87,-704.05 329,-644.15 329.91,-621.68"/>
<polygon fill="black" stroke="black" points="332.86,-623.57 335.49,-613.31 327.03,-619.69 332.86,-623.57"/>
<text text-anchor="middle" x="326.44" y="-662.28" font-family="Times,serif" font-size="14.00">[1]</text>
</g>
<!-- /factorial/multiply -->
<g id="node3" class="node">
<title>/factorial/multiply</title>
<g id="a_node3"><a xlink:href="../../flowstdlib/math/multiply/multiply.html" xlink:title="multiply\n(Multiply)">
<ellipse fill="coral" stroke="black" cx="529.49" cy="-208.35" rx="61.54" ry="26.74"/>
<text text-anchor="middle" x="529.49" y="-212.15" font-family="Times,serif" font-size="14.00">multiply</text>
<text text-anchor="middle" x="529.49" y="-197.15" font-family="Times,serif" font-size="14.00">(Multiply)</text>
</a>
</g>
</g>
<!-- /factorial/to_number&#45;&gt;/factorial/multiply -->
<g id="edge5" class="edge">
<title>/factorial/to_number:e&#45;&gt;/factorial/multiply:w</title>
<path fill="none" stroke="black" d="M481.49,-613.31C527.6,-613.31 480.49,-555.68 480.49,-509.57 480.49,-509.57 480.49,-509.57 480.49,-312.09 480.49,-302.78 464.05,-241.86 463.47,-217.95"/>
<polygon fill="black" stroke="black" points="466.83,-218.94 466.49,-208.35 460.15,-216.84 466.83,-218.94"/>
<text text-anchor="middle" x="459.49" y="-212.15" font-family="Times,serif" font-size="14.00">i2</text>
</g>
<!-- /factorial/sub -->
<g id="node5" class="node">
<title>/factorial/sub</title>
<g id="a_node5"><a xlink:href="../../flowstdlib/math/subtract/subtract.html" xlink:title="sub\n(Subtract)">
<ellipse fill="coral" stroke="black" cx="379.49" cy="-508.57" rx="62.87" ry="26.74"/>
<text text-anchor="middle" x="379.49" y="-512.37" font-family="Times,serif" font-size="14.00">sub</text>
<text text-anchor="middle" x="379.49" y="-497.37" font-family="Times,serif" font-size="14.00">(Subtract)</text>
</a>
</g>
</g>
<!-- /factorial/to_number&#45;&gt;/factorial/sub -->
<g id="edge6" class="edge">
<title>/factorial/to_number:e&#45;&gt;/factorial/sub:ne</title>
<path fill="none" stroke="black" d="M481.49,-613.31C493.44,-613.31 486.26,-596.9 480.49,-586.44 462.49,-553.86 438.25,-561.57 412.24,-541.42"/>
<polygon fill="black" stroke="black" points="414.3,-538.57 404.49,-534.57 409.66,-543.81 414.3,-538.57"/>
<text text-anchor="middle" x="397.49" y="-538.37" font-family="Times,serif" font-size="14.00">i1</text>
</g>
<!-- /factorial/multiply&#45;&gt;/factorial/multiply -->
<g id="edge7" class="edge">
<title>/factorial/multiply:e&#45;&gt;/factorial/multiply:ne</title>
<path fill="none" stroke="black" d="M591.49,-208.35C597.01,-197.35 609.01,-197.35 609.01,-220.85 609.01,-241.5 587.37,-244.01 564.13,-236.84"/>
<polygon fill="black" stroke="black" points="565.08,-233.46 554.49,-233.35 562.7,-240.04 565.08,-233.46"/>
<text text-anchor="middle" x="547.49" y="-237.15" font-family="Times,serif" font-size="14.00">i1</text>
</g>
<!-- /factorial/result&#45;tap -->
<g id="node10" class="node">
<title>/factorial/result&#45;tap</title>
<g id="a_node10"><a xlink:href="../../flowstdlib/control/tap/tap.html" xlink:title="result&#45;tap\n(Tap)">
<ellipse fill="coral" stroke="black" cx="372.49" cy="-117.61" rx="60.62" ry="26.74"/>
<text text-anchor="middle" x="372.49" y="-121.41" font-family="Times,serif" font-size="14.00">result&#45;tap</text>
<text text-anchor="middle" x="372.49" y="-106.41" font-family="Times,serif" font-size="14.00">(Tap)</text>
</a>
</g>
</g>
<!-- /factorial/multiply&#45;&gt;/factorial/result&#45;tap -->
<g id="edge14" class="edge">
<title>/factorial/multiply:e&#45;&gt;/factorial/result&#45;tap:nw</title>
<path fill="none" stroke="black" d="M592.49,-208.35C604.44,-208.35 599.43,-190.41 591.49,-181.48 558.72,-144.65 356.56,-174.75 343.97,-153.11"/>
<polygon fill="black" stroke="black" points="347.3,-154.2 347.49,-143.61 340.73,-151.77 347.3,-154.2"/>
<text text-anchor="middle" x="331.49" y="-147.41" font-family="Times,serif" font-size="14.00">data</text>
</g>
<!-- initializer/factorial/multiply_0 -->
<!-- initializer/factorial/multiply_0&#45;&gt;/factorial/multiply -->
<g id="edge1" class="edge">
<title>initializer/factorial/multiply_0&#45;&gt;/factorial/multiply:ne</title>
<path fill="none" stroke="blue" stroke-dasharray="1,5" d="M630.65,-295.29C611.26,-282.09 584.29,-262.48 561.89,-241.51"/>
<polygon fill="blue" stroke="blue" points="564.11,-238.78 554.49,-234.35 559.24,-243.82 564.11,-238.78"/>
<text text-anchor="middle" x="597.49" y="-257.02" font-family="Times,serif" font-size="14.00">1</text>
</g>
<!-- /factorial/compare -->
<g id="node7" class="node">
<title>/factorial/compare</title>
<g id="a_node7"><a xlink:href="../../flowstdlib/math/compare/compare.html" xlink:title="compare\n(Compare)">
<ellipse fill="coral" stroke="black" cx="311.49" cy="-403.83" rx="65.11" ry="26.74"/>
<text text-anchor="middle" x="311.49" y="-407.63" font-family="Times,serif" font-size="14.00">compare</text>
<text text-anchor="middle" x="311.49" y="-392.63" font-family="Times,serif" font-size="14.00">(Compare)</text>
</a>
</g>
</g>
<!-- /factorial/sub&#45;&gt;/factorial/compare -->
<g id="edge9" class="edge">
<title>/factorial/sub:e&#45;&gt;/factorial/compare:ne</title>
<path fill="none" stroke="black" d="M443.49,-508.57C455.44,-508.57 449.6,-491.3 442.49,-481.7 427.93,-462.05 412.54,-474.27 390.49,-463.7 368.33,-453.09 359.06,-450.48 343.92,-436.9"/>
<polygon fill="black" stroke="black" points="346.14,-434.19 336.49,-429.83 341.32,-439.26 346.14,-434.19"/>
<text text-anchor="middle" x="323.99" y="-433.63" font-family="Times,serif" font-size="14.00">left</text>
</g>
<!-- /factorial/n&#45;tap -->
<g id="node9" class="node">
<title>/factorial/n&#45;tap</title>
<g id="a_node9"><a xlink:href="../../flowstdlib/control/tap/tap.html" xlink:title="n&#45;tap\n(Tap)">
<ellipse fill="coral" stroke="black" cx="410.49" cy="-313.09" rx="37.45" ry="26.74"/>
<text text-anchor="middle" x="410.49" y="-316.89" font-family="Times,serif" font-size="14.00">n&#45;tap</text>
<text text-anchor="middle" x="410.49" y="-301.89" font-family="Times,serif" font-size="14.00">(Tap)</text>
</a>
</g>
</g>
<!-- /factorial/sub&#45;&gt;/factorial/n&#45;tap -->
<g id="edge8" class="edge">
<title>/factorial/sub:e&#45;&gt;/factorial/n&#45;tap:nw</title>
<path fill="none" stroke="black" d="M443.49,-508.57C453.06,-508.57 458.8,-421.37 418.49,-357.96 413.44,-350.02 400.6,-347.82 392.66,-345.23"/>
<polygon fill="black" stroke="black" points="395.82,-343.74 388.49,-336.09 389.45,-346.64 395.82,-343.74"/>
<text text-anchor="middle" x="372.49" y="-339.89" font-family="Times,serif" font-size="14.00">data</text>
</g>
<!-- initializer/factorial/sub_1 -->
<!-- initializer/factorial/sub_1&#45;&gt;/factorial/sub -->
<g id="edge2" class="edge">
<title>initializer/factorial/sub_1&#45;&gt;/factorial/sub:w</title>
<path fill="none" stroke="blue" d="M229.36,-596.07C254.78,-583.1 287.46,-562.6 307.49,-535.44 311.53,-529.96 309.82,-522.43 309.47,-516.74"/>
<polygon fill="blue" stroke="blue" points="312.38,-518.7 315.49,-508.57 306.74,-514.55 312.38,-518.7"/>
<text text-anchor="middle" x="295.49" y="-557.24" font-family="Times,serif" font-size="14.00">1</text>
</g>
<!-- /factorial/compare&#45;&gt;/factorial/n&#45;tap -->
<g id="edge10" class="edge">
<title>/factorial/compare:sw&#45;&gt;/factorial/n&#45;tap:nw</title>
<path fill="none" stroke="black" d="M286.49,-377.83C254.22,-345.56 340.54,-367.25 380.5,-342.36"/>
<polygon fill="black" stroke="black" points="382.79,-345.02 388.49,-336.09 378.46,-339.52 382.79,-345.02"/>
<text text-anchor="middle" x="329.59" y="-358.57" font-family="Times,serif" font-size="14.00">gt</text>
<text text-anchor="middle" x="413.99" y="-339.89" font-family="Times,serif" font-size="14.00">control</text>
</g>
<!-- /factorial/compare&#45;&gt;/factorial/result&#45;tap -->
<g id="edge13" class="edge">
<title>/factorial/compare:s&#45;&gt;/factorial/result&#45;tap:nw</title>
<path fill="none" stroke="black" d="M311.49,-376.96C311.49,-275.51 275.78,-221.47 340.46,-150.94"/>
<polygon fill="black" stroke="black" points="343.09,-153.25 347.49,-143.61 338.04,-148.41 343.09,-153.25"/>
<text text-anchor="middle" x="292.22" y="-256.13" font-family="Times,serif" font-size="14.00">lte</text>
<text text-anchor="middle" x="372.99" y="-147.41" font-family="Times,serif" font-size="14.00">control</text>
</g>
<!-- initializer/factorial/compare_1 -->
<!-- initializer/factorial/compare_1&#45;&gt;/factorial/compare -->
<g id="edge3" class="edge">
<title>initializer/factorial/compare_1&#45;&gt;/factorial/compare:ne</title>
<path fill="none" stroke="blue" d="M213.61,-492.27C265.74,-478.6 331.8,-457.97 339,-439.69"/>
<polygon fill="blue" stroke="blue" points="342.35,-438.65 336.49,-429.83 335.57,-440.39 342.35,-438.65"/>
<text text-anchor="middle" x="334.49" y="-452.5" font-family="Times,serif" font-size="14.00">1</text>
</g>
<!-- /factorial/n&#45;tap&#45;&gt;/factorial/multiply -->
<g id="edge11" class="edge">
<title>/factorial/n&#45;tap:e&#45;&gt;/factorial/multiply:w</title>
<path fill="none" stroke="black" d="M449.49,-313.09C492.41,-313.09 432.22,-226.33 456.61,-210.73"/>
<polygon fill="black" stroke="black" points="457.59,-214.1 466.49,-208.35 455.94,-207.29 457.59,-214.1"/>
<text text-anchor="middle" x="459.49" y="-197.15" font-family="Times,serif" font-size="14.00">i2</text>
</g>
<!-- /factorial/n&#45;tap&#45;&gt;/factorial/sub -->
<g id="edge12" class="edge">
<title>/factorial/n&#45;tap:e&#45;&gt;/factorial/sub:ne</title>
<path fill="none" stroke="black" d="M449.49,-313.09C461.44,-313.09 454.57,-329.67 448.49,-339.96 440.58,-353.35 426.15,-344.43 418.49,-357.96 379.68,-426.51 497.38,-477.14 442.42,-533.57 433.23,-543.01 422.52,-545.59 412.59,-540.58"/>
<polygon fill="black" stroke="black" points="414.6,-537.71 404.49,-534.57 410.44,-543.34 414.6,-537.71"/>
<text text-anchor="middle" x="411.49" y="-538.37" font-family="Times,serif" font-size="14.00">i1</text>
</g>
<!-- /factorial/print -->
<g id="node11" class="node">
<title>/factorial/print</title>
<g id="a_node11"><a xlink:href="../../flowruntime/stdio/stdout.html" xlink:title="print\n(Stdout)">
<ellipse fill="coral" stroke="black" cx="486.49" cy="-26.87" rx="53.07" ry="26.74"/>
<text text-anchor="middle" x="486.49" y="-30.67" font-family="Times,serif" font-size="14.00">print</text>
<text text-anchor="middle" x="486.49" y="-15.67" font-family="Times,serif" font-size="14.00">(Stdout)</text>
</a>
</g>
</g>
<!-- /factorial/result&#45;tap&#45;&gt;/factorial/print -->
<g id="edge15" class="edge">
<title>/factorial/result&#45;tap:e&#45;&gt;/factorial/print:w</title>
<path fill="none" stroke="black" d="M434.49,-117.61C470.1,-117.61 409.84,-46.89 422.98,-30.32"/>
<polygon fill="black" stroke="black" points="424.28,-33.57 432.49,-26.87 421.89,-26.99 424.28,-33.57"/>
</g>
</g>
</svg>
