<?xml version="1.0" encoding="UTF-8" standalone="no"?>
<!DOCTYPE svg PUBLIC "-//W3C//DTD SVG 1.1//EN"
 "http://www.w3.org/Graphics/SVG/1.1/DTD/svg11.dtd">
<!-- Generated by graphviz version 2.40.1 (20161225.0304)
 -->
<!-- Title: factorial Pages: 1 -->
<svg width="877pt" height="693pt"
 viewBox="28.80 28.80 847.72 664.50" xmlns="http://www.w3.org/2000/svg" xmlns:xlink="http://www.w3.org/1999/xlink">
<g id="graph0" class="graph" transform="scale(1 1) rotate(0) translate(32.8 660.5006)">
<title>factorial</title>
<polygon fill="#ffffff" stroke="transparent" points="-4,4 -4,-631.7006 814.9233,-631.7006 814.9233,4 -4,4"/>
<text text-anchor="middle" x="405.4616" y="-612.5006" font-family="Times,serif" font-size="14.00" fill="#000000">factorial</text>
<!-- /factorial/args -->
<g id="node1" class="node">
<title>/factorial/args</title>
<g id="a_node1"><a xlink:href="../../flowr/src/lib/flowruntime/args/get.html" xlink:title="args\n(get)">
<ellipse fill="#ff7f50" stroke="#000000" cx="448.4366" cy="-577.8305" rx="35.2113" ry="26.7407"/>
<text text-anchor="middle" x="448.4366" y="-581.6305" font-family="Times,serif" font-size="14.00" fill="#000000">args</text>
<text text-anchor="middle" x="448.4366" y="-566.6305" font-family="Times,serif" font-size="14.00" fill="#000000">(get)</text>
</a>
</g>
</g>
<!-- /factorial/multiply -->
<g id="node2" class="node">
<title>/factorial/multiply</title>
<g id="a_node2"><a xlink:href="../../flowstdlib/math/multiply/multiply.html" xlink:title="multiply">
<ellipse fill="#ff7f50" stroke="#000000" cx="517.4366" cy="-199.4802" rx="49.2915" ry="18"/>
<text text-anchor="middle" x="517.4366" y="-195.7802" font-family="Times,serif" font-size="14.00" fill="#000000">multiply</text>
</a>
</g>
</g>
<!-- /factorial/args&#45;&gt;/factorial/multiply -->
<g id="edge4" class="edge">
<title>/factorial/args:e&#45;&gt;/factorial/multiply:w</title>
<path fill="none" stroke="#000000" d="M484.4366,-577.8305C530.9877,-577.8305 484.4366,-519.6416 484.4366,-473.0904 484.4366,-473.0904 484.4366,-473.0904 484.4366,-295.3503 484.4366,-259.9262 471.2363,-252.6999 467.4366,-217.4802 467.155,-214.8704 466.1969,-212.0352 465.3191,-209.4037"/>
<polygon fill="#000000" stroke="#000000" points="468.7726,-209.9905 467.4366,-199.4802 461.9268,-208.5297 468.7726,-209.9905"/>
<text text-anchor="middle" x="508.9366" y="-454.6749" font-family="Times,serif" font-size="14.00" fill="#000000">json[1]</text>
<text text-anchor="middle" x="460.4366" y="-203.2802" font-family="Times,serif" font-size="14.00" fill="#000000">i2</text>
</g>
<!-- /factorial/sub -->
<g id="node4" class="node">
<title>/factorial/sub</title>
<g id="a_node4"><a xlink:href="../../flowstdlib/math/subtract/subtract.html" xlink:title="sub\n(subtract)">
<ellipse fill="#ff7f50" stroke="#000000" cx="383.4366" cy="-473.0904" rx="62.4516" ry="26.7407"/>
<text text-anchor="middle" x="383.4366" y="-476.8904" font-family="Times,serif" font-size="14.00" fill="#000000">sub</text>
<text text-anchor="middle" x="383.4366" y="-461.8904" font-family="Times,serif" font-size="14.00" fill="#000000">(subtract)</text>
</a>
</g>
</g>
<!-- /factorial/args&#45;&gt;/factorial/sub -->
<g id="edge5" class="edge">
<title>/factorial/args:e&#45;&gt;/factorial/sub:ne</title>
<path fill="none" stroke="#000000" d="M484.4366,-577.8305C496.3788,-577.8305 489.9671,-561.5449 484.4366,-550.9605 476.2115,-535.219 436.3899,-518.0963 416.2955,-504.349"/>
<polygon fill="#000000" stroke="#000000" points="418.4395,-501.5822 408.4366,-498.0904 414.0787,-507.058 418.4395,-501.5822"/>
<text text-anchor="middle" x="430.3961" y="-530.7536" font-family="Times,serif" font-size="14.00" fill="#000000">json[1]</text>
<text text-anchor="middle" x="401.4366" y="-501.8904" font-family="Times,serif" font-size="14.00" fill="#000000">i1</text>
</g>
<!-- /factorial/multiply&#45;&gt;/factorial/multiply -->
<g id="edge6" class="edge">
<title>/factorial/multiply:e&#45;&gt;/factorial/multiply:ne</title>
<path fill="none" stroke="#000000" d="M567.4366,-199.4802C572.8322,-190.4802 584.8322,-190.4802 584.8322,-207.9802 584.8322,-223.0193 564.2049,-225.1342 544.1454,-219.7195"/>
<polygon fill="#000000" stroke="#000000" points="545.0303,-216.3251 534.4366,-216.4802 542.8148,-222.9653 545.0303,-216.3251"/>
<text text-anchor="middle" x="527.4366" y="-220.2802" font-family="Times,serif" font-size="14.00" fill="#000000">i1</text>
</g>
<!-- /factorial/result&#45;tap -->
<g id="node9" class="node">
<title>/factorial/result&#45;tap</title>
<g id="a_node9"><a xlink:href="../../flowstdlib/control/tap/tap.html" xlink:title="result&#45;tap\n(tap)">
<ellipse fill="#ff7f50" stroke="#000000" cx="381.4366" cy="-117.6102" rx="60.623" ry="26.7407"/>
<text text-anchor="middle" x="381.4366" y="-121.4102" font-family="Times,serif" font-size="14.00" fill="#000000">result&#45;tap</text>
<text text-anchor="middle" x="381.4366" y="-106.4102" font-family="Times,serif" font-size="14.00" fill="#000000">(tap)</text>
</a>
</g>
</g>
<!-- /factorial/multiply&#45;&gt;/factorial/result&#45;tap -->
<g id="edge13" class="edge">
<title>/factorial/multiply:e&#45;&gt;/factorial/result&#45;tap:nw</title>
<path fill="none" stroke="#000000" d="M567.4366,-199.4802C575.4366,-199.4802 572.5554,-187.6282 567.4366,-181.4802 540.743,-149.42 373.4045,-169.5171 354.5723,-152.457"/>
<polygon fill="#000000" stroke="#000000" points="358.0152,-153.0867 356.4366,-142.6102 351.1373,-151.7845 358.0152,-153.0867"/>
<text text-anchor="middle" x="340.4366" y="-146.4102" font-family="Times,serif" font-size="14.00" fill="#000000">data</text>
</g>
<!-- initializer/factorial/multiply_0 -->
<!-- initializer/factorial/multiply_0&#45;&gt;/factorial/multiply -->
<g id="edge1" class="edge">
<title>initializer/factorial/multiply_0&#45;&gt;/factorial/multiply:ne</title>
<path fill="none" stroke="#0000ff" stroke-dasharray="1,5" d="M623.8167,-277.863C599.1562,-265.2064 566.9326,-246.3284 541.6929,-223.3898"/>
<polygon fill="#0000ff" stroke="#0000ff" points="544.0921,-220.8415 534.4366,-216.4802 539.2649,-225.9109 544.0921,-220.8415"/>
<text text-anchor="middle" x="581.4366" y="-239.2802" font-family="Times,serif" font-size="14.00" fill="#000000">1</text>
</g>
<!-- /factorial/compare -->
<g id="node6" class="node">
<title>/factorial/compare</title>
<g id="a_node6"><a xlink:href="../../flowstdlib/math/compare/compare.html" xlink:title="compare">
<ellipse fill="#ff7f50" stroke="#000000" cx="329.4366" cy="-377.2203" rx="51.1914" ry="18"/>
<text text-anchor="middle" x="329.4366" y="-373.5203" font-family="Times,serif" font-size="14.00" fill="#000000">compare</text>
</a>
</g>
</g>
<!-- /factorial/sub&#45;&gt;/factorial/compare -->
<g id="edge8" class="edge">
<title>/factorial/sub:e&#45;&gt;/factorial/compare:ne</title>
<path fill="none" stroke="#000000" d="M445.4366,-473.0904C457.3788,-473.0904 452.3341,-455.9693 445.4366,-446.2203 431.5534,-426.598 415.7817,-439.2731 394.4366,-428.2203 374.6673,-417.9836 367.1652,-413.9311 353.9582,-401.5382"/>
<polygon fill="#000000" stroke="#000000" points="356.0447,-398.6851 346.4366,-394.2203 351.1634,-403.7023 356.0447,-398.6851"/>
<text text-anchor="middle" x="381.9076" y="-432.0054" font-family="Times,serif" font-size="14.00" fill="#000000">diff</text>
<text text-anchor="middle" x="333.9366" y="-398.0203" font-family="Times,serif" font-size="14.00" fill="#000000">left</text>
</g>
<!-- /factorial/n&#45;tap -->
<g id="node8" class="node">
<title>/factorial/n&#45;tap</title>
<g id="a_node8"><a xlink:href="../../flowstdlib/control/tap/tap.html" xlink:title="n&#45;tap\n(tap)">
<ellipse fill="#ff7f50" stroke="#000000" cx="410.4366" cy="-295.3503" rx="37.4533" ry="26.7407"/>
<text text-anchor="middle" x="410.4366" y="-299.1503" font-family="Times,serif" font-size="14.00" fill="#000000">n&#45;tap</text>
<text text-anchor="middle" x="410.4366" y="-284.1503" font-family="Times,serif" font-size="14.00" fill="#000000">(tap)</text>
</a>
</g>
</g>
<!-- /factorial/sub&#45;&gt;/factorial/n&#45;tap -->
<g id="edge7" class="edge">
<title>/factorial/sub:e&#45;&gt;/factorial/n&#45;tap:nw</title>
<path fill="none" stroke="#000000" d="M445.4366,-473.0904C465.1992,-473.0904 485.6129,-433.3289 422.4366,-340.2203 416.3653,-331.2725 400.9775,-329.4275 392.1724,-326.7096"/>
<polygon fill="#000000" stroke="#000000" points="395.3944,-325.3402 388.4366,-317.3503 388.8932,-327.9353 395.3944,-325.3402"/>
<text text-anchor="middle" x="409.9343" y="-344.0171" font-family="Times,serif" font-size="14.00" fill="#000000">diff</text>
<text text-anchor="middle" x="372.4366" y="-321.1503" font-family="Times,serif" font-size="14.00" fill="#000000">data</text>
</g>
<!-- initializer/factorial/sub_1 -->
<!-- initializer/factorial/sub_1&#45;&gt;/factorial/sub -->
<g id="edge2" class="edge">
<title>initializer/factorial/sub_1&#45;&gt;/factorial/sub:w</title>
<path fill="none" stroke="#0000ff" d="M278.7687,-559.6975C288.1967,-544.1849 301.6147,-521.0803 311.4366,-499.9605 314.543,-493.2807 313.141,-485.3437 313.8674,-479.8357"/>
<polygon fill="#0000ff" stroke="#0000ff" points="316.2994,-482.3565 321.4366,-473.0904 311.6422,-477.1305 316.2994,-482.3565"/>
<text text-anchor="middle" x="307.4366" y="-521.7605" font-family="Times,serif" font-size="14.00" fill="#000000">1</text>
</g>
<!-- /factorial/compare&#45;&gt;/factorial/n&#45;tap -->
<g id="edge9" class="edge">
<title>/factorial/compare:sw&#45;&gt;/factorial/n&#45;tap:nw</title>
<path fill="none" stroke="#000000" d="M312.4366,-360.2203C287.3708,-335.1546 348.7155,-343.0054 380.3869,-323.5972"/>
<polygon fill="#000000" stroke="#000000" points="382.6823,-326.2463 388.4366,-317.3503 378.3906,-320.7162 382.6823,-326.2463"/>
<text text-anchor="middle" x="341.6644" y="-338.539" font-family="Times,serif" font-size="14.00" fill="#000000">gt</text>
<text text-anchor="middle" x="362.4366" y="-306.1503" font-family="Times,serif" font-size="14.00" fill="#000000">control</text>
</g>
<!-- /factorial/compare&#45;&gt;/factorial/result&#45;tap -->
<g id="edge12" class="edge">
<title>/factorial/compare:s&#45;&gt;/factorial/result&#45;tap:nw</title>
<path fill="none" stroke="#000000" d="M329.4366,-359.2203C329.4366,-265.8044 290.866,-215.059 349.2469,-150.1779"/>
<polygon fill="#000000" stroke="#000000" points="352.0863,-152.2707 356.4366,-142.6102 347.0114,-147.4493 352.0863,-152.2707"/>
<text text-anchor="middle" x="307.9472" y="-247.7748" font-family="Times,serif" font-size="14.00" fill="#000000">lte</text>
<text text-anchor="middle" x="382.4366" y="-146.4102" font-family="Times,serif" font-size="14.00" fill="#000000">control</text>
</g>
<!-- initializer/factorial/compare_1 -->
<!-- initializer/factorial/compare_1&#45;&gt;/factorial/compare -->
<g id="edge3" class="edge">
<title>initializer/factorial/compare_1&#45;&gt;/factorial/compare:ne</title>
<path fill="none" stroke="#0000ff" d="M220.9533,-457.0795C275.2373,-443.2487 342.5681,-422.6125 349.1822,-404.0051"/>
<polygon fill="#0000ff" stroke="#0000ff" points="352.5082,-402.9029 346.4366,-394.2203 345.7685,-404.7941 352.5082,-402.9029"/>
<text text-anchor="middle" x="344.4366" y="-417.0203" font-family="Times,serif" font-size="14.00" fill="#000000">1</text>
</g>
<!-- /factorial/n&#45;tap&#45;&gt;/factorial/multiply -->
<g id="edge10" class="edge">
<title>/factorial/n&#45;tap:e&#45;&gt;/factorial/multiply:w</title>
<path fill="none" stroke="#000000" d="M448.4366,-295.3503C487.6322,-295.3503 436.1943,-217.2906 457.688,-202.0445"/>
<polygon fill="#000000" stroke="#000000" points="458.6559,-205.4091 467.4366,-199.4802 456.8752,-198.6394 458.6559,-205.4091"/>
<text text-anchor="middle" x="460.4366" y="-188.2802" font-family="Times,serif" font-size="14.00" fill="#000000">i2</text>
</g>
<!-- /factorial/n&#45;tap&#45;&gt;/factorial/sub -->
<g id="edge11" class="edge">
<title>/factorial/n&#45;tap:e&#45;&gt;/factorial/sub:ne</title>
<path fill="none" stroke="#000000" d="M448.4366,-295.3503C460.3788,-295.3503 453.979,-311.6422 448.4366,-322.2203 441.9137,-334.6696 428.9594,-327.7711 422.4366,-340.2203 389.5223,-403.0396 495.8098,-447.9426 445.662,-498.0904 436.6137,-507.1387 426.2918,-509.1887 416.6664,-504.2404"/>
<polygon fill="#000000" stroke="#000000" points="418.5422,-501.2728 408.4366,-498.0904 414.3519,-506.8802 418.5422,-501.2728"/>
<text text-anchor="middle" x="415.4366" y="-501.8904" font-family="Times,serif" font-size="14.00" fill="#000000">i1</text>
</g>
<!-- /factorial/print -->
<g id="node10" class="node">
<title>/factorial/print</title>
<g id="a_node10"><a xlink:href="../../flowr/src/lib/flowruntime/stdio/stdout.html" xlink:title="print\n(stdout)">
<ellipse fill="#ff7f50" stroke="#000000" cx="494.4366" cy="-26.8701" rx="51.7379" ry="26.7407"/>
<text text-anchor="middle" x="494.4366" y="-30.6701" font-family="Times,serif" font-size="14.00" fill="#000000">print</text>
<text text-anchor="middle" x="494.4366" y="-15.6701" font-family="Times,serif" font-size="14.00" fill="#000000">(stdout)</text>
</a>
</g>
</g>
<!-- /factorial/result&#45;tap&#45;&gt;/factorial/print -->
<g id="edge14" class="edge">
<title>/factorial/result&#45;tap:e&#45;&gt;/factorial/print:w</title>
<path fill="none" stroke="#000000" d="M442.4366,-117.6102C478.0395,-117.6102 419.3503,-46.8911 432.8535,-30.3164"/>
<polygon fill="#000000" stroke="#000000" points="434.211,-33.5477 442.4366,-26.8701 431.8421,-26.9607 434.211,-33.5477"/>
</g>
</g>
</svg>
