<?xml version="1.0" encoding="UTF-8" standalone="no"?>
<!DOCTYPE svg PUBLIC "-//W3C//DTD SVG 1.1//EN"
 "http://www.w3.org/Graphics/SVG/1.1/DTD/svg11.dtd">
<!-- Generated by graphviz version 2.42.3 (20191010.1750)
 -->
<!-- Title: factorial Pages: 1 -->
<svg width="726pt" height="793pt"
 viewBox="28.80 28.80 697.63 764.09" xmlns="http://www.w3.org/2000/svg" xmlns:xlink="http://www.w3.org/1999/xlink">
<g id="graph0" class="graph" transform="scale(1 1) rotate(0) translate(32.8 760.09)">
<title>factorial</title>
<polygon fill="white" stroke="transparent" points="-4,4 -4,-731.29 664.83,-731.29 664.83,4 -4,4"/>
<text text-anchor="middle" x="330.41" y="-712.09" font-family="Times,serif" font-size="14.00">factorial</text>
<!-- /factorial/args -->
<g id="node1" class="node">
<title>/factorial/args</title>
<ellipse fill="coral" stroke="black" cx="243.65" cy="-679.84" rx="32.4" ry="25.41"/>
<text text-anchor="middle" x="243.65" y="-682.64" font-family="Times,serif" font-size="14.00">args</text>
<text text-anchor="middle" x="243.65" y="-668.64" font-family="Times,serif" font-size="14.00">(Get)</text>
</g>
<!-- /factorial/to_number -->
<g id="node2" class="node">
<title>/factorial/to_number</title>
<ellipse fill="coral" stroke="black" cx="337.65" cy="-591.93" rx="60.8" ry="25.41"/>
<text text-anchor="middle" x="337.65" y="-594.73" font-family="Times,serif" font-size="14.00">to_number</text>
<text text-anchor="middle" x="337.65" y="-580.73" font-family="Times,serif" font-size="14.00">(ToNumber)</text>
</g>
<!-- /factorial/args&#45;&gt;/factorial/to_number -->
<g id="edge4" class="edge">
<title>/factorial/args:e&#45;&gt;/factorial/to_number:w</title>
<path fill="none" stroke="black" d="M277.65,-679.84C293.45,-679.84 269.61,-622.36 270.24,-600.36"/>
<polygon fill="black" stroke="black" points="273.19,-602.23 275.65,-591.93 267.3,-598.45 273.19,-602.23"/>
<text text-anchor="middle" x="268.52" y="-638.81" font-family="Times,serif" font-size="14.00">[1]</text>
</g>
<!-- /factorial/multiply -->
<g id="node3" class="node">
<title>/factorial/multiply</title>
<ellipse fill="coral" stroke="black" cx="438.65" cy="-201.28" rx="52.62" ry="25.41"/>
<text text-anchor="middle" x="438.65" y="-204.08" font-family="Times,serif" font-size="14.00">multiply</text>
<text text-anchor="middle" x="438.65" y="-190.08" font-family="Times,serif" font-size="14.00">(Multiply)</text>
</g>
<!-- /factorial/to_number&#45;&gt;/factorial/multiply -->
<g id="edge5" class="edge">
<title>/factorial/to_number:e&#45;&gt;/factorial/multiply:w</title>
<path fill="none" stroke="black" d="M399.65,-591.93C444.06,-591.93 398.65,-536.42 398.65,-492.01 398.65,-492.01 398.65,-492.01 398.65,-301.19 398.65,-292.3 382.8,-234.69 381.82,-211.21"/>
<polygon fill="black" stroke="black" points="385.28,-211.86 384.65,-201.28 378.55,-209.94 385.28,-211.86"/>
<text text-anchor="middle" x="379.2" y="-204.08" font-family="Times,serif" font-size="14.00">i2</text>
</g>
<!-- /factorial/sub -->
<g id="node5" class="node">
<title>/factorial/sub</title>
<ellipse fill="coral" stroke="black" cx="304.65" cy="-491.01" rx="50.79" ry="25.41"/>
<text text-anchor="middle" x="304.65" y="-493.81" font-family="Times,serif" font-size="14.00">sub</text>
<text text-anchor="middle" x="304.65" y="-479.81" font-family="Times,serif" font-size="14.00">(Subtract)</text>
</g>
<!-- /factorial/to_number&#45;&gt;/factorial/sub -->
<g id="edge6" class="edge">
<title>/factorial/to_number:e&#45;&gt;/factorial/sub:ne</title>
<path fill="none" stroke="black" d="M399.65,-591.93C410.97,-591.93 403.99,-576.45 398.65,-566.47 381.98,-535.33 359.84,-541 335.33,-521.83"/>
<polygon fill="black" stroke="black" points="337.45,-519.03 327.65,-515.01 332.81,-524.27 337.45,-519.03"/>
<text text-anchor="middle" x="322.2" y="-517.81" font-family="Times,serif" font-size="14.00">i1</text>
</g>
<!-- /factorial/multiply&#45;&gt;/factorial/multiply -->
<g id="edge7" class="edge">
<title>/factorial/multiply:e&#45;&gt;/factorial/multiply:ne</title>
<path fill="none" stroke="black" d="M491.65,-201.28C497.21,-190.78 509.21,-190.78 509.21,-212.78 509.21,-231.86 491.13,-234.39 470.99,-227.88"/>
<polygon fill="black" stroke="black" points="472.24,-224.61 461.65,-224.28 469.72,-231.14 472.24,-224.61"/>
<text text-anchor="middle" x="456.2" y="-227.08" font-family="Times,serif" font-size="14.00">i1</text>
</g>
<!-- /factorial/result&#45;tap -->
<g id="node10" class="node">
<title>/factorial/result&#45;tap</title>
<ellipse fill="coral" stroke="black" cx="299.65" cy="-113.37" rx="48.9" ry="25.41"/>
<text text-anchor="middle" x="299.65" y="-116.17" font-family="Times,serif" font-size="14.00">result&#45;tap</text>
<text text-anchor="middle" x="299.65" y="-102.17" font-family="Times,serif" font-size="14.00">(Tap)</text>
</g>
<!-- /factorial/multiply&#45;&gt;/factorial/result&#45;tap -->
<g id="edge14" class="edge">
<title>/factorial/multiply:e&#45;&gt;/factorial/result&#45;tap:nw</title>
<path fill="none" stroke="black" d="M492.65,-201.28C503.97,-201.28 499.09,-184.36 491.65,-175.82 463.76,-143.8 293.79,-164.65 274.73,-147.37"/>
<polygon fill="black" stroke="black" points="278.2,-147.85 276.65,-137.37 271.32,-146.53 278.2,-147.85"/>
<text text-anchor="middle" x="264.99" y="-140.17" font-family="Times,serif" font-size="14.00">data</text>
</g>
<!-- initializer/factorial/multiply_0 -->
<!-- initializer/factorial/multiply_0&#45;&gt;/factorial/multiply -->
<g id="edge1" class="edge">
<title>initializer/factorial/multiply_0&#45;&gt;/factorial/multiply:ne</title>
<path fill="none" stroke="blue" stroke-dasharray="1,5" d="M524.7,-284.41C509.74,-271 488.24,-251.38 468.93,-232.48"/>
<polygon fill="blue" stroke="blue" points="471.22,-229.82 461.65,-225.28 466.3,-234.8 471.22,-229.82"/>
<text text-anchor="middle" x="499.15" y="-247.54" font-family="Times,serif" font-size="14.00">1</text>
</g>
<!-- /factorial/compare -->
<g id="node7" class="node">
<title>/factorial/compare</title>
<ellipse fill="coral" stroke="black" cx="240.65" cy="-390.1" rx="54.39" ry="25.41"/>
<text text-anchor="middle" x="240.65" y="-392.9" font-family="Times,serif" font-size="14.00">compare</text>
<text text-anchor="middle" x="240.65" y="-378.9" font-family="Times,serif" font-size="14.00">(Compare)</text>
</g>
<!-- /factorial/sub&#45;&gt;/factorial/compare -->
<g id="edge9" class="edge">
<title>/factorial/sub:e&#45;&gt;/factorial/compare:ne</title>
<path fill="none" stroke="black" d="M356.65,-491.01C367.97,-491.01 362.25,-474.76 355.65,-465.56 342.61,-447.38 328.25,-458.33 308.65,-447.56 290.05,-437.34 283.27,-433.04 270.79,-421.11"/>
<polygon fill="black" stroke="black" points="273.24,-418.61 263.65,-414.1 268.34,-423.6 273.24,-418.61"/>
<text text-anchor="middle" x="254.32" y="-416.9" font-family="Times,serif" font-size="14.00">left</text>
</g>
<!-- /factorial/n&#45;tap -->
<g id="node9" class="node">
<title>/factorial/n&#45;tap</title>
<ellipse fill="coral" stroke="black" cx="333.65" cy="-302.19" rx="32.71" ry="25.41"/>
<text text-anchor="middle" x="333.65" y="-304.99" font-family="Times,serif" font-size="14.00">n&#45;tap</text>
<text text-anchor="middle" x="333.65" y="-290.99" font-family="Times,serif" font-size="14.00">(Tap)</text>
</g>
<!-- /factorial/sub&#45;&gt;/factorial/n&#45;tap -->
<g id="edge8" class="edge">
<title>/factorial/sub:e&#45;&gt;/factorial/n&#45;tap:nw</title>
<path fill="none" stroke="black" d="M356.65,-491.01C371.2,-491.01 400.68,-469.47 336.65,-345.65 333.06,-338.71 323.5,-335.66 317.22,-332.68"/>
<polygon fill="black" stroke="black" points="320.45,-331.32 313.65,-323.19 313.9,-333.78 320.45,-331.32"/>
<text text-anchor="middle" x="301.99" y="-325.99" font-family="Times,serif" font-size="14.00">data</text>
</g>
<!-- initializer/factorial/sub_1 -->
<!-- initializer/factorial/sub_1&#45;&gt;/factorial/sub -->
<g id="edge2" class="edge">
<title>initializer/factorial/sub_1&#45;&gt;/factorial/sub:w</title>
<path fill="none" stroke="blue" d="M184.97,-574.51C203.9,-561.02 229.11,-540.3 244.65,-516.47 248.09,-511.19 246.79,-504.34 246.59,-499.07"/>
<polygon fill="blue" stroke="blue" points="249.43,-501.11 252.65,-491.01 243.84,-496.9 249.43,-501.11"/>
<text text-anchor="middle" x="233.15" y="-537.27" font-family="Times,serif" font-size="14.00">1</text>
</g>
<!-- /factorial/compare&#45;&gt;/factorial/n&#45;tap -->
<g id="edge10" class="edge">
<title>/factorial/compare:sw&#45;&gt;/factorial/n&#45;tap:nw</title>
<path fill="none" stroke="black" d="M217.65,-366.1C187.05,-335.51 267.06,-353.11 305.33,-329.67"/>
<polygon fill="black" stroke="black" points="307.91,-332.09 313.65,-323.19 303.61,-326.57 307.91,-332.09"/>
<text text-anchor="middle" x="259.92" y="-344.66" font-family="Times,serif" font-size="14.00">gt</text>
<text text-anchor="middle" x="333.48" y="-325.99" font-family="Times,serif" font-size="14.00">control</text>
</g>
<!-- /factorial/compare&#45;&gt;/factorial/result&#45;tap -->
<g id="edge13" class="edge">
<title>/factorial/compare:s&#45;&gt;/factorial/result&#45;tap:nw</title>
<path fill="none" stroke="black" d="M240.65,-364.65C240.65,-265.97 206.84,-213.45 269.42,-144.92"/>
<polygon fill="black" stroke="black" points="272.26,-147.01 276.65,-137.37 267.21,-142.17 272.26,-147.01"/>
<text text-anchor="middle" x="224.57" y="-246.25" font-family="Times,serif" font-size="14.00">lte</text>
<text text-anchor="middle" x="296.48" y="-140.17" font-family="Times,serif" font-size="14.00">control</text>
</g>
<!-- initializer/factorial/compare_1 -->
<!-- initializer/factorial/compare_1&#45;&gt;/factorial/compare -->
<g id="edge3" class="edge">
<title>initializer/factorial/compare_1&#45;&gt;/factorial/compare:ne</title>
<path fill="none" stroke="blue" d="M189.9,-476.78C235.54,-465.77 283.54,-447.75 269.92,-422.26"/>
<polygon fill="blue" stroke="blue" points="272.52,-419.89 263.65,-414.1 266.97,-424.16 272.52,-419.89"/>
<text text-anchor="middle" x="276.15" y="-436.36" font-family="Times,serif" font-size="14.00">1</text>
</g>
<!-- /factorial/n&#45;tap&#45;&gt;/factorial/multiply -->
<g id="edge11" class="edge">
<title>/factorial/n&#45;tap:e&#45;&gt;/factorial/multiply:w</title>
<path fill="none" stroke="black" d="M367.65,-302.19C408.87,-302.19 351.99,-219.31 374.81,-203.77"/>
<polygon fill="black" stroke="black" points="375.82,-207.13 384.65,-201.28 374.1,-200.34 375.82,-207.13"/>
<text text-anchor="middle" x="379.2" y="-190.08" font-family="Times,serif" font-size="14.00">i2</text>
</g>
<!-- /factorial/n&#45;tap&#45;&gt;/factorial/sub -->
<g id="edge12" class="edge">
<title>/factorial/n&#45;tap:e&#45;&gt;/factorial/sub:ne</title>
<path fill="none" stroke="black" d="M367.65,-302.19C378.97,-302.19 372.42,-317.91 366.65,-327.65 358.72,-341.02 344.31,-332.12 336.65,-345.65 299.55,-411.17 407.83,-459.82 355.55,-514.01 349.62,-520.15 342.81,-522.47 336.27,-520.47"/>
<polygon fill="black" stroke="black" points="337.97,-517.4 327.65,-515.01 334.23,-523.32 337.97,-517.4"/>
<text text-anchor="middle" x="333.09" y="-517.81" font-family="Times,serif" font-size="14.00">i1</text>
</g>
<!-- /factorial/print -->
<g id="node11" class="node">
<title>/factorial/print</title>
<ellipse fill="coral" stroke="black" cx="392.65" cy="-25.46" rx="43.53" ry="25.41"/>
<text text-anchor="middle" x="392.65" y="-28.26" font-family="Times,serif" font-size="14.00">print</text>
<text text-anchor="middle" x="392.65" y="-14.26" font-family="Times,serif" font-size="14.00">(Stdout)</text>
</g>
<!-- /factorial/result&#45;tap&#45;&gt;/factorial/print -->
<g id="edge15" class="edge">
<title>/factorial/result&#45;tap:e&#45;&gt;/factorial/print:w</title>
<path fill="none" stroke="black" d="M349.65,-113.37C383.85,-113.37 326.74,-46.06 338.12,-29.23"/>
<polygon fill="black" stroke="black" points="339.64,-32.39 347.65,-25.46 337.06,-25.89 339.64,-32.39"/>
</g>
</g>
</svg>
