<?xml version="1.0" encoding="UTF-8" standalone="no"?>
<!DOCTYPE svg PUBLIC "-//W3C//DTD SVG 1.1//EN"
 "http://www.w3.org/Graphics/SVG/1.1/DTD/svg11.dtd">
<!-- Generated by graphviz version 2.42.3 (20191010.1750)
 -->
<!-- Title: factorial Pages: 1 -->
<svg width="665pt" height="616pt"
 viewBox="0.00 0.00 664.57 616.00" xmlns="http://www.w3.org/2000/svg" xmlns:xlink="http://www.w3.org/1999/xlink">
<g id="graph0" class="graph" transform="scale(1 1) rotate(0) translate(4 612)">
<title>factorial</title>
<polygon fill="white" stroke="transparent" points="-4,4 -4,-612 660.57,-612 660.57,4 -4,4"/>
<text text-anchor="middle" x="328.28" y="-592.8" font-family="Times,serif" font-size="14.00">/factorial</text>
<!-- r0 -->
<g id="node1" class="node">
<title>r0</title>
<g id="a_node1"><a xlink:href="file:///Users/andrew/workspace/flow/flowruntime/args/get.toml" xlink:title="args (#0)">
<ellipse fill="coral" stroke="black" cx="82.37" cy="-568" rx="41.76" ry="18"/>
<text text-anchor="middle" x="82.37" y="-563.8" font-family="Times,serif" font-size="14.00">args (#0)</text>
</a>
</g>
</g>
<!-- r1 -->
<g id="node2" class="node">
<title>r1</title>
<g id="a_node2"><a xlink:href="file:///Users/andrew/workspace/flow/flowstdlib/fmt/to_number/to_number.toml" xlink:title="to_number (#1)">
<ellipse fill="coral" stroke="black" cx="65.37" cy="-495" rx="65.23" ry="18"/>
<text text-anchor="middle" x="65.37" y="-490.8" font-family="Times,serif" font-size="14.00">to_number (#1)</text>
</a>
</g>
</g>
<!-- r0&#45;&gt;r1 -->
<g id="edge1" class="edge">
<title>r0:sw&#45;&gt;r1:n</title>
<path fill="none" stroke="black" d="M65.37,-550C56.37,-541.01 61.29,-533.63 63.98,-523.14"/>
<polygon fill="black" stroke="black" points="67.48,-523.38 65.37,-513 60.54,-522.43 67.48,-523.38"/>
<text text-anchor="middle" x="59.92" y="-538.8" font-family="Times,serif" font-size="14.00">/1</text>
</g>
<!-- r2 -->
<g id="node3" class="node">
<title>r2</title>
<g id="a_node3"><a xlink:href="file:///Users/andrew/workspace/flow/flowstdlib/math/multiply/multiply.toml" xlink:title="multiply (#2)">
<ellipse fill="coral" stroke="black" cx="344.37" cy="-164" rx="57.05" ry="18"/>
<text text-anchor="middle" x="344.37" y="-159.8" font-family="Times,serif" font-size="14.00">multiply (#2)</text>
</a>
</g>
</g>
<!-- r1&#45;&gt;r2 -->
<g id="edge2" class="edge">
<title>r1:e&#45;&gt;r2:ne</title>
<path fill="none" stroke="black" d="M132.37,-495C140.38,-495 133.49,-484.73 131.37,-477 122.45,-444.61 96.37,-443.6 96.37,-410 96.37,-410 96.37,-410 96.37,-249 96.37,-222.51 313.58,-207.74 356.28,-190.17"/>
<polygon fill="black" stroke="black" points="359.2,-192.11 362.37,-182 353.59,-187.93 359.2,-192.11"/>
<text text-anchor="middle" x="356.92" y="-184.8" font-family="Times,serif" font-size="14.00">i2</text>
</g>
<!-- r3 -->
<g id="node4" class="node">
<title>r3</title>
<g id="a_node4"><a xlink:href="file:///Users/andrew/workspace/flow/flowstdlib/math/subtract/subtract.toml" xlink:title="sub (#3)">
<ellipse fill="coral" stroke="black" cx="345.37" cy="-409" rx="39.17" ry="18"/>
<text text-anchor="middle" x="345.37" y="-404.8" font-family="Times,serif" font-size="14.00">sub (#3)</text>
</a>
</g>
</g>
<!-- r1&#45;&gt;r3 -->
<g id="edge3" class="edge">
<title>r1:e&#45;&gt;r3:n</title>
<path fill="none" stroke="black" d="M132.37,-495C198.02,-495 208.49,-463.9 271.37,-445 284.28,-441.12 323.6,-442.74 339.04,-434.99"/>
<polygon fill="black" stroke="black" points="341.91,-437.02 345.37,-427 336.42,-432.67 341.91,-437.02"/>
<text text-anchor="middle" x="339.92" y="-429.8" font-family="Times,serif" font-size="14.00">i1</text>
</g>
<!-- r2&#45;&gt;r2 -->
<g id="edge5" class="edge">
<title>r2:e&#45;&gt;r2:n</title>
<path fill="none" stroke="black" d="M401.37,-164C425.39,-155 473.39,-155 473.39,-173 473.39,-189.7 399.36,-190.91 354.31,-183.81"/>
<polygon fill="black" stroke="black" points="354.83,-180.34 344.37,-182 353.58,-187.23 354.83,-180.34"/>
<text text-anchor="middle" x="338.92" y="-184.8" font-family="Times,serif" font-size="14.00">i1</text>
</g>
<!-- r6 -->
<g id="node6" class="node">
<title>r6</title>
<g id="a_node6"><a xlink:href="file:///Users/andrew/workspace/flow/flowstdlib/control/tap/tap.toml" xlink:title="result&#45;tap (#6)">
<ellipse fill="coral" stroke="black" cx="519.37" cy="-91" rx="60.39" ry="18"/>
<text text-anchor="middle" x="519.37" y="-86.8" font-family="Times,serif" font-size="14.00">result&#45;tap (#6)</text>
</a>
</g>
</g>
<!-- r2&#45;&gt;r6 -->
<g id="edge6" class="edge">
<title>r2:e&#45;&gt;r6:n</title>
<path fill="none" stroke="black" d="M402.37,-164C427.84,-164 500.13,-143.34 516.18,-118.63"/>
<polygon fill="black" stroke="black" points="519.55,-119.59 519.37,-109 512.9,-117.4 519.55,-119.59"/>
<text text-anchor="middle" x="507.71" y="-111.8" font-family="Times,serif" font-size="14.00">data</text>
</g>
<!-- r5 -->
<g id="node8" class="node">
<title>r5</title>
<g id="a_node8"><a xlink:href="file:///Users/andrew/workspace/flow/flowstdlib/control/tap/tap.toml" xlink:title="n&#45;tap (#5)">
<ellipse fill="coral" stroke="black" cx="250.37" cy="-250" rx="45.44" ry="18"/>
<text text-anchor="middle" x="250.37" y="-245.8" font-family="Times,serif" font-size="14.00">n&#45;tap (#5)</text>
</a>
</g>
</g>
<!-- r3&#45;&gt;r5 -->
<g id="edge8" class="edge">
<title>r3:e&#45;&gt;r5:n</title>
<path fill="none" stroke="black" d="M386.37,-409C411.67,-409 469.52,-405.46 301.37,-286 285.6,-274.8 262.18,-285.53 253.64,-277.63"/>
<polygon fill="black" stroke="black" points="256.9,-276.34 250.37,-268 250.27,-278.59 256.9,-276.34"/>
<text text-anchor="middle" x="238.71" y="-270.8" font-family="Times,serif" font-size="14.00">data</text>
</g>
<!-- r4 -->
<g id="node9" class="node">
<title>r4</title>
<g id="a_node9"><a xlink:href="file:///Users/andrew/workspace/flow/flowstdlib/math/compare/compare.toml" xlink:title="compare (#4)">
<ellipse fill="coral" stroke="black" cx="579.37" cy="-323" rx="57.49" ry="18"/>
<text text-anchor="middle" x="579.37" y="-318.8" font-family="Times,serif" font-size="14.00">compare (#4)</text>
</a>
</g>
</g>
<!-- r3&#45;&gt;r4 -->
<g id="edge9" class="edge">
<title>r3:e&#45;&gt;r4:n</title>
<path fill="none" stroke="black" d="M386.37,-409C406.53,-409 542.68,-373.41 573.27,-349.5"/>
<polygon fill="black" stroke="black" points="576.38,-351.17 579.37,-341 570.69,-347.09 576.38,-351.17"/>
<text text-anchor="middle" x="570.04" y="-343.8" font-family="Times,serif" font-size="14.00">left</text>
</g>
<!-- initializerr2_0 -->
<!-- initializerr2_0&#45;&gt;r2 -->
<g id="edge4" class="edge">
<title>initializerr2_0&#45;&gt;r2:ne</title>
<path fill="none" stroke="blue" stroke-dasharray="1,5" d="M411.48,-232.34C400.24,-220.62 384.57,-204.39 369.62,-189.3"/>
<polygon fill="blue" stroke="blue" points="371.9,-186.62 362.37,-182 366.94,-191.56 371.9,-186.62"/>
<text text-anchor="middle" x="395.87" y="-202.8" font-family="Times,serif" font-size="14.00">1</text>
</g>
<!-- r7 -->
<g id="node11" class="node">
<title>r7</title>
<g id="a_node11"><a xlink:href="file:///Users/andrew/workspace/flow/flowruntime/stdio/stdout.toml" xlink:title="print (#7)">
<ellipse fill="coral" stroke="black" cx="580.37" cy="-18" rx="43.51" ry="18"/>
<text text-anchor="middle" x="580.37" y="-13.8" font-family="Times,serif" font-size="14.00">print (#7)</text>
</a>
</g>
</g>
<!-- r6&#45;&gt;r7 -->
<g id="edge15" class="edge">
<title>r6:e&#45;&gt;r7:n</title>
<path fill="none" stroke="black" d="M581.37,-91C602.57,-91 586.25,-68.02 581.54,-45.98"/>
<polygon fill="black" stroke="black" points="585.01,-45.52 580.37,-36 578.05,-46.34 585.01,-45.52"/>
</g>
<!-- initializerr3_1 -->
<!-- initializerr3_1&#45;&gt;r3 -->
<g id="edge7" class="edge">
<title>initializerr3_1&#45;&gt;r3:w</title>
<path fill="none" stroke="blue" d="M298.43,-476.8C290.76,-455.84 281.14,-421.98 294.45,-411.91"/>
<polygon fill="blue" stroke="blue" points="295.76,-415.18 304.37,-409 293.78,-408.46 295.76,-415.18"/>
<text text-anchor="middle" x="294.87" y="-447.8" font-family="Times,serif" font-size="14.00">1</text>
</g>
<!-- r5&#45;&gt;r2 -->
<g id="edge13" class="edge">
<title>r5:e&#45;&gt;r2:ne</title>
<path fill="none" stroke="black" d="M297.37,-250C305.74,-250 347.12,-211.13 359.48,-191.85"/>
<polygon fill="black" stroke="black" points="362.92,-192.58 362.37,-182 356.2,-190.62 362.92,-192.58"/>
<text text-anchor="middle" x="367.81" y="-184.8" font-family="Times,serif" font-size="14.00">i2</text>
</g>
<!-- r5&#45;&gt;r3 -->
<g id="edge14" class="edge">
<title>r5:e&#45;&gt;r3:n</title>
<path fill="none" stroke="black" d="M297.37,-250C305.38,-250 298.42,-260.26 296.37,-268 293.97,-277.03 285.29,-277.89 287.37,-287 293.29,-312.97 296.12,-320.7 313.37,-341 338.43,-370.51 366.83,-356.65 384.7,-391 392.09,-405.19 395.87,-415.54 384.7,-427 380.65,-431.16 364.63,-434.09 354.33,-433.03"/>
<polygon fill="black" stroke="black" points="355.8,-429.84 345.37,-428 352.37,-435.95 355.8,-429.84"/>
<text text-anchor="middle" x="350.81" y="-430.8" font-family="Times,serif" font-size="14.00">i1</text>
</g>
<!-- r4&#45;&gt;r6 -->
<g id="edge12" class="edge">
<title>r4:se&#45;&gt;r6:ne</title>
<path fill="none" stroke="black" d="M596.37,-305C653.77,-247.6 595.66,-197.48 555.37,-127 551.67,-120.53 548.29,-118.34 544.17,-115.44"/>
<polygon fill="black" stroke="black" points="546.31,-112.66 536.37,-109 541.85,-118.06 546.31,-112.66"/>
<text text-anchor="middle" x="556.19" y="-111.8" font-family="Times,serif" font-size="14.00">control</text>
<text text-anchor="middle" x="587.42" y="-293.8" font-family="Times,serif" font-size="14.00">/lte</text>
</g>
<!-- r4&#45;&gt;r5 -->
<g id="edge11" class="edge">
<title>r4:e&#45;&gt;r5:ne</title>
<path fill="none" stroke="black" d="M638.37,-323C646.38,-323 642.9,-310.79 637.37,-305 636.56,-304.16 336.69,-275.45 277.46,-269.18"/>
<polygon fill="black" stroke="black" points="277.71,-265.69 267.37,-268 276.89,-272.64 277.71,-265.69"/>
<text text-anchor="middle" x="287.19" y="-270.8" font-family="Times,serif" font-size="14.00">control</text>
<text text-anchor="middle" x="645.76" y="-325.8" font-family="Times,serif" font-size="14.00">/gt</text>
</g>
<!-- initializerr4_1 -->
<!-- initializerr4_1&#45;&gt;r4 -->
<g id="edge10" class="edge">
<title>initializerr4_1&#45;&gt;r4:ne</title>
<path fill="none" stroke="blue" d="M602.32,-390.9C605.62,-378.6 608.01,-362.04 602.17,-349.4"/>
<polygon fill="blue" stroke="blue" points="604.93,-347.23 596.37,-341 599.18,-351.22 604.93,-347.23"/>
<text text-anchor="middle" x="608.87" y="-361.8" font-family="Times,serif" font-size="14.00">1</text>
</g>
</g>
</svg>
