<?xml version="1.0" encoding="UTF-8" standalone="no"?>
<!DOCTYPE svg PUBLIC "-//W3C//DTD SVG 1.1//EN"
 "http://www.w3.org/Graphics/SVG/1.1/DTD/svg11.dtd">
<!-- Generated by graphviz version 2.44.0 (20200408.0750)
 -->
<!-- Title: factorial Pages: 1 -->
<svg width="644pt" height="620pt"
 viewBox="0.00 0.00 644.39 620.00" xmlns="http://www.w3.org/2000/svg" xmlns:xlink="http://www.w3.org/1999/xlink">
<g id="graph0" class="graph" transform="scale(1 1) rotate(0) translate(4 616)">
<title>factorial</title>
<polygon fill="white" stroke="transparent" points="-4,4 -4,-616 640.39,-616 640.39,4 -4,4"/>
<text text-anchor="middle" x="318.19" y="-596.8" font-family="Times,serif" font-size="14.00">/factorial</text>
<!-- r0 -->
<g id="node1" class="node">
<title>r0</title>
<g id="a_node1"><a xlink:href="file:///Users/andrew/workspace/flow/flowruntime/args/get.html" xlink:title="args (#0)">
<ellipse fill="coral" stroke="black" cx="70.95" cy="-571" rx="42.49" ry="18"/>
<text text-anchor="middle" x="70.95" y="-567.3" font-family="Times,serif" font-size="14.00">args (#0)</text>
</a>
</g>
</g>
<!-- r1 -->
<g id="node2" class="node">
<title>r1</title>
<g id="a_node2"><a xlink:href="file:///Users/andrew/workspace/flow/flowstdlib/fmt/to_json/to_json.html" xlink:title="to_json (#1)">
<ellipse fill="coral" stroke="black" cx="53.95" cy="-498" rx="53.89" ry="18"/>
<text text-anchor="middle" x="53.95" y="-494.3" font-family="Times,serif" font-size="14.00">to_json (#1)</text>
</a>
</g>
</g>
<!-- r0&#45;&gt;r1 -->
<g id="edge1" class="edge">
<title>r0:sw&#45;&gt;r1:n</title>
<path fill="none" stroke="black" d="M53.95,-553C44.95,-544.01 49.87,-536.63 52.56,-526.14"/>
<polygon fill="black" stroke="black" points="56.06,-526.38 53.95,-516 49.12,-525.43 56.06,-526.38"/>
<text text-anchor="middle" x="48.45" y="-541.8" font-family="Times,serif" font-size="14.00">/1</text>
</g>
<!-- r2 -->
<g id="node3" class="node">
<title>r2</title>
<g id="a_node3"><a xlink:href="file:///Users/andrew/workspace/flow/flowstdlib/math/multiply/multiply.html" xlink:title="multiply (#2)">
<ellipse fill="coral" stroke="black" cx="323.95" cy="-164" rx="57.69" ry="18"/>
<text text-anchor="middle" x="323.95" y="-160.3" font-family="Times,serif" font-size="14.00">multiply (#2)</text>
</a>
</g>
</g>
<!-- r1&#45;&gt;r2 -->
<g id="edge2" class="edge">
<title>r1:e&#45;&gt;r2:ne</title>
<path fill="none" stroke="black" d="M108.95,-498C116.96,-498 110.05,-487.73 107.95,-480 99.03,-447.2 72.95,-445.99 72.95,-412 72.95,-412 72.95,-412 72.95,-250 72.95,-223.24 292.79,-207.99 335.11,-190.14"/>
<polygon fill="black" stroke="black" points="337.96,-192.17 340.95,-182 332.27,-188.09 337.96,-192.17"/>
<text text-anchor="middle" x="335.45" y="-185.8" font-family="Times,serif" font-size="14.00">i2</text>
</g>
<!-- r3 -->
<g id="node4" class="node">
<title>r3</title>
<g id="a_node4"><a xlink:href="file:///Users/andrew/workspace/flow/flowstdlib/math/subtract/subtract.html" xlink:title="sub (#3)">
<ellipse fill="coral" stroke="black" cx="321.95" cy="-411" rx="40.09" ry="18"/>
<text text-anchor="middle" x="321.95" y="-407.3" font-family="Times,serif" font-size="14.00">sub (#3)</text>
</a>
</g>
</g>
<!-- r1&#45;&gt;r3 -->
<g id="edge3" class="edge">
<title>r1:e&#45;&gt;r3:n</title>
<path fill="none" stroke="black" d="M108.95,-498C174.33,-498 184.38,-466 246.95,-447 260.01,-443.03 299.88,-444.84 315.54,-437.07"/>
<polygon fill="black" stroke="black" points="318.47,-439.01 321.95,-429 312.98,-434.65 318.47,-439.01"/>
<text text-anchor="middle" x="316.45" y="-432.8" font-family="Times,serif" font-size="14.00">i1</text>
</g>
<!-- r2&#45;&gt;r2 -->
<g id="edge5" class="edge">
<title>r2:e&#45;&gt;r2:n</title>
<path fill="none" stroke="black" d="M381.95,-164C405.79,-155 453.79,-155 453.79,-173 453.79,-189.7 379.29,-190.91 333.96,-183.81"/>
<polygon fill="black" stroke="black" points="334.41,-180.33 323.95,-182 333.16,-187.22 334.41,-180.33"/>
<text text-anchor="middle" x="318.45" y="-185.8" font-family="Times,serif" font-size="14.00">i1</text>
</g>
<!-- r6 -->
<g id="node6" class="node">
<title>r6</title>
<g id="a_node6"><a xlink:href="file:///Users/andrew/workspace/flow/flowstdlib/control/tap/tap.html" xlink:title="result&#45;tap (#6)">
<ellipse fill="coral" stroke="black" cx="498.95" cy="-91" rx="61.19" ry="18"/>
<text text-anchor="middle" x="498.95" y="-87.3" font-family="Times,serif" font-size="14.00">result&#45;tap (#6)</text>
</a>
</g>
</g>
<!-- r2&#45;&gt;r6 -->
<g id="edge6" class="edge">
<title>r2:e&#45;&gt;r6:n</title>
<path fill="none" stroke="black" d="M382.95,-164C408.24,-164 479.88,-143.19 495.79,-118.58"/>
<polygon fill="black" stroke="black" points="499.14,-119.59 498.95,-109 492.49,-117.4 499.14,-119.59"/>
<text text-anchor="middle" x="487.45" y="-112.8" font-family="Times,serif" font-size="14.00">data</text>
</g>
<!-- r5 -->
<g id="node8" class="node">
<title>r5</title>
<g id="a_node8"><a xlink:href="file:///Users/andrew/workspace/flow/flowstdlib/control/tap/tap.html" xlink:title="n&#45;tap (#5)">
<ellipse fill="coral" stroke="black" cx="227.95" cy="-251" rx="46.29" ry="18"/>
<text text-anchor="middle" x="227.95" y="-247.3" font-family="Times,serif" font-size="14.00">n&#45;tap (#5)</text>
</a>
</g>
</g>
<!-- r3&#45;&gt;r5 -->
<g id="edge8" class="edge">
<title>r3:e&#45;&gt;r5:n</title>
<path fill="none" stroke="black" d="M363.95,-411C389.35,-411 448.66,-408.93 277.95,-287 262.48,-275.95 239.53,-286.32 231.15,-278.49"/>
<polygon fill="black" stroke="black" points="234.46,-277.35 227.95,-269 227.83,-279.59 234.46,-277.35"/>
<text text-anchor="middle" x="216.45" y="-272.8" font-family="Times,serif" font-size="14.00">data</text>
</g>
<!-- r4 -->
<g id="node9" class="node">
<title>r4</title>
<g id="a_node9"><a xlink:href="file:///Users/andrew/workspace/flow/flowstdlib/math/compare/compare.html" xlink:title="compare (#4)">
<ellipse fill="coral" stroke="black" cx="558.95" cy="-324" rx="58.49" ry="18"/>
<text text-anchor="middle" x="558.95" y="-320.3" font-family="Times,serif" font-size="14.00">compare (#4)</text>
</a>
</g>
</g>
<!-- r3&#45;&gt;r4 -->
<g id="edge9" class="edge">
<title>r3:e&#45;&gt;r4:n</title>
<path fill="none" stroke="black" d="M363.95,-411C384.41,-411 523.1,-374.5 553.19,-350.28"/>
<polygon fill="black" stroke="black" points="556.11,-352.21 558.95,-342 550.36,-348.21 556.11,-352.21"/>
<text text-anchor="middle" x="549.45" y="-345.8" font-family="Times,serif" font-size="14.00">left</text>
</g>
<!-- initializerr2_0 -->
<!-- initializerr2_0&#45;&gt;r2 -->
<g id="edge4" class="edge">
<title>initializerr2_0&#45;&gt;r2:ne</title>
<path fill="none" stroke="blue" stroke-dasharray="1,5" d="M391.08,-233.38C379.66,-221.47 363.64,-204.89 348.36,-189.46"/>
<polygon fill="blue" stroke="blue" points="350.48,-186.62 340.95,-182 345.52,-191.56 350.48,-186.62"/>
<text text-anchor="middle" x="374.45" y="-203.8" font-family="Times,serif" font-size="14.00">1</text>
</g>
<!-- r7 -->
<g id="node11" class="node">
<title>r7</title>
<g id="a_node11"><a xlink:href="file:///Users/andrew/workspace/flow/flowruntime/stdio/stdout.html" xlink:title="print (#7)">
<ellipse fill="coral" stroke="black" cx="559.95" cy="-18" rx="44.39" ry="18"/>
<text text-anchor="middle" x="559.95" y="-14.3" font-family="Times,serif" font-size="14.00">print (#7)</text>
</a>
</g>
</g>
<!-- r6&#45;&gt;r7 -->
<g id="edge15" class="edge">
<title>r6:e&#45;&gt;r7:n</title>
<path fill="none" stroke="black" d="M560.95,-91C582.15,-91 565.82,-68.02 561.12,-45.98"/>
<polygon fill="black" stroke="black" points="564.59,-45.52 559.95,-36 557.63,-46.34 564.59,-45.52"/>
</g>
<!-- initializerr3_1 -->
<!-- initializerr3_1&#45;&gt;r3 -->
<g id="edge7" class="edge">
<title>initializerr3_1&#45;&gt;r3:w</title>
<path fill="none" stroke="blue" d="M274.08,-480.01C266.24,-458.67 256.19,-423.63 270.25,-413.7"/>
<polygon fill="blue" stroke="blue" points="271.25,-417.05 279.95,-411 269.37,-410.31 271.25,-417.05"/>
<text text-anchor="middle" x="271.45" y="-450.8" font-family="Times,serif" font-size="14.00">1</text>
</g>
<!-- r5&#45;&gt;r2 -->
<g id="edge13" class="edge">
<title>r5:e&#45;&gt;r2:ne</title>
<path fill="none" stroke="black" d="M275.95,-251C293.55,-251 337.55,-213.19 342.82,-192.09"/>
<polygon fill="black" stroke="black" points="346.21,-191.19 340.95,-182 339.33,-192.47 346.21,-191.19"/>
<text text-anchor="middle" x="346.45" y="-185.8" font-family="Times,serif" font-size="14.00">i2</text>
</g>
<!-- r5&#45;&gt;r3 -->
<g id="edge14" class="edge">
<title>r5:e&#45;&gt;r3:n</title>
<path fill="none" stroke="black" d="M275.95,-251C283.96,-251 277.33,-261.35 274.95,-269 272.16,-277.95 266.48,-277.97 263.95,-287 256.81,-312.34 269.3,-321.6 285.95,-342 311.73,-373.61 343.02,-357.03 362.24,-393 369.78,-407.11 373.41,-417.55 362.24,-429 358.04,-433.31 341.29,-436.32 330.76,-435.12"/>
<polygon fill="black" stroke="black" points="332.35,-432 321.95,-430 328.83,-438.05 332.35,-432"/>
<text text-anchor="middle" x="327.45" y="-433.8" font-family="Times,serif" font-size="14.00">i1</text>
</g>
<!-- r4&#45;&gt;r6 -->
<g id="edge12" class="edge">
<title>r4:se&#45;&gt;r6:ne</title>
<path fill="none" stroke="black" d="M575.95,-306C633.66,-248.29 574.45,-198.42 534.95,-127 531.52,-120.81 528.47,-118.45 524.71,-115.6"/>
<polygon fill="black" stroke="black" points="526.83,-112.81 516.95,-109 522.3,-118.14 526.83,-112.81"/>
<text text-anchor="middle" x="536.45" y="-112.8" font-family="Times,serif" font-size="14.00">control</text>
<text text-anchor="middle" x="566.95" y="-294.8" font-family="Times,serif" font-size="14.00">/lte</text>
</g>
<!-- r4&#45;&gt;r5 -->
<g id="edge11" class="edge">
<title>r4:e&#45;&gt;r5:ne</title>
<path fill="none" stroke="black" d="M618.95,-324C626.96,-324 623.49,-311.79 617.95,-306 604.7,-292.16 312.63,-284.93 254.48,-272.4"/>
<polygon fill="black" stroke="black" points="255.54,-269.06 244.95,-269 253.19,-275.66 255.54,-269.06"/>
<text text-anchor="middle" x="264.45" y="-272.8" font-family="Times,serif" font-size="14.00">control</text>
<text text-anchor="middle" x="626.45" y="-327.8" font-family="Times,serif" font-size="14.00">/gt</text>
</g>
<!-- initializerr4_1 -->
<!-- initializerr4_1&#45;&gt;r4 -->
<g id="edge10" class="edge">
<title>initializerr4_1&#45;&gt;r4:ne</title>
<path fill="none" stroke="blue" d="M581.91,-392.94C585.33,-380.33 587.85,-363.18 581.69,-350.21"/>
<polygon fill="blue" stroke="blue" points="584.55,-348.18 575.95,-342 578.81,-352.2 584.55,-348.18"/>
<text text-anchor="middle" x="588.45" y="-363.8" font-family="Times,serif" font-size="14.00">1</text>
</g>
</g>
</svg>
