<?xml version="1.0" encoding="UTF-8" standalone="no"?>
<!DOCTYPE svg PUBLIC "-//W3C//DTD SVG 1.1//EN"
 "http://www.w3.org/Graphics/SVG/1.1/DTD/svg11.dtd">
<!-- Generated by graphviz version 2.42.4 (0)
 -->
<!-- Title: factorial Pages: 1 -->
<svg width="778pt" height="620pt"
 viewBox="0.00 0.00 777.84 620.00" xmlns="http://www.w3.org/2000/svg" xmlns:xlink="http://www.w3.org/1999/xlink">
<g id="graph0" class="graph" transform="scale(1 1) rotate(0) translate(4 616)">
<title>factorial</title>
<polygon fill="white" stroke="transparent" points="-4,4 -4,-616 773.84,-616 773.84,4 -4,4"/>
<text text-anchor="middle" x="384.92" y="-596.8" font-family="Times,serif" font-size="14.00">/factorial</text>
<!-- r0 -->
<g id="node1" class="node">
<title>r0</title>
<g id="a_node1"><a xlink:href="file:///home/andrew/workspace/flow/flowruntime/args/get.html" xlink:title="args (#0)">
<ellipse fill="coral" stroke="black" cx="100.84" cy="-571" rx="54.69" ry="18"/>
<text text-anchor="middle" x="100.84" y="-567.3" font-family="Times,serif" font-size="14.00">args (#0)</text>
</a>
</g>
</g>
<!-- r1 -->
<g id="node2" class="node">
<title>r1</title>
<g id="a_node2"><a xlink:href="file:///home/andrew/workspace/flow/flowstdlib/fmt/to_number/to_number.html" xlink:title="to_number (#1)">
<ellipse fill="coral" stroke="black" cx="83.84" cy="-498" rx="83.69" ry="18"/>
<text text-anchor="middle" x="83.84" y="-494.3" font-family="Times,serif" font-size="14.00">to_number (#1)</text>
</a>
</g>
</g>
<!-- r0&#45;&gt;r1 -->
<g id="edge1" class="edge">
<title>r0:sw&#45;&gt;r1:n</title>
<path fill="none" stroke="black" d="M83.84,-553C74.85,-544.01 79.77,-536.63 82.46,-526.14"/>
<polygon fill="black" stroke="black" points="85.96,-526.38 83.84,-516 79.02,-525.43 85.96,-526.38"/>
<text text-anchor="middle" x="76.84" y="-541.8" font-family="Times,serif" font-size="14.00">/1</text>
</g>
<!-- r2 -->
<g id="node3" class="node">
<title>r2</title>
<g id="a_node3"><a xlink:href="file:///home/andrew/workspace/flow/flowstdlib/math/multiply/multiply.html" xlink:title="multiply (#2)">
<ellipse fill="coral" stroke="black" cx="417.84" cy="-164" rx="72.59" ry="18"/>
<text text-anchor="middle" x="417.84" y="-160.3" font-family="Times,serif" font-size="14.00">multiply (#2)</text>
</a>
</g>
</g>
<!-- r1&#45;&gt;r2 -->
<g id="edge2" class="edge">
<title>r1:e&#45;&gt;r2:ne</title>
<path fill="none" stroke="black" d="M168.84,-498C176.85,-498 169.76,-487.78 167.84,-480 159.9,-447.75 136.84,-445.21 136.84,-412 136.84,-412 136.84,-412 136.84,-250 136.84,-220.12 385.32,-208.88 430.21,-190.32"/>
<polygon fill="black" stroke="black" points="433.14,-192.24 435.84,-182 427.34,-188.32 433.14,-192.24"/>
<text text-anchor="middle" x="428.84" y="-185.8" font-family="Times,serif" font-size="14.00">i2</text>
</g>
<!-- r3 -->
<g id="node4" class="node">
<title>r3</title>
<g id="a_node4"><a xlink:href="file:///home/andrew/workspace/flow/flowstdlib/math/subtract/subtract.html" xlink:title="sub (#3)">
<ellipse fill="coral" stroke="black" cx="403.84" cy="-411" rx="50.89" ry="18"/>
<text text-anchor="middle" x="403.84" y="-407.3" font-family="Times,serif" font-size="14.00">sub (#3)</text>
</a>
</g>
</g>
<!-- r1&#45;&gt;r3 -->
<g id="edge3" class="edge">
<title>r1:e&#45;&gt;r3:n</title>
<path fill="none" stroke="black" d="M168.84,-498C204.05,-498 284.89,-456.33 318.84,-447 333.97,-442.84 380.63,-446.3 397.59,-437.39"/>
<polygon fill="black" stroke="black" points="400.68,-439.11 403.84,-429 395.06,-434.93 400.68,-439.11"/>
<text text-anchor="middle" x="396.84" y="-432.8" font-family="Times,serif" font-size="14.00">i1</text>
</g>
<!-- r2&#45;&gt;r2 -->
<g id="edge5" class="edge">
<title>r2:e&#45;&gt;r2:n</title>
<path fill="none" stroke="black" d="M490.84,-164C514.64,-155 562.64,-155 562.64,-173 562.64,-189.84 478.15,-190.93 427.74,-183.63"/>
<polygon fill="black" stroke="black" points="428.28,-180.17 417.84,-182 427.14,-187.07 428.28,-180.17"/>
<text text-anchor="middle" x="410.84" y="-185.8" font-family="Times,serif" font-size="14.00">i1</text>
</g>
<!-- r6 -->
<g id="node6" class="node">
<title>r6</title>
<g id="a_node6"><a xlink:href="file:///home/andrew/workspace/flow/flowstdlib/control/tap/tap.html" xlink:title="result&#45;tap (#6)">
<ellipse fill="coral" stroke="black" cx="613.84" cy="-91" rx="79.09" ry="18"/>
<text text-anchor="middle" x="613.84" y="-87.3" font-family="Times,serif" font-size="14.00">result&#45;tap (#6)</text>
</a>
</g>
</g>
<!-- r2&#45;&gt;r6 -->
<g id="edge6" class="edge">
<title>r2:e&#45;&gt;r6:n</title>
<path fill="none" stroke="black" d="M491.84,-164C518.33,-164 594.41,-143.96 610.73,-118.57"/>
<polygon fill="black" stroke="black" points="614.08,-119.59 613.84,-109 607.42,-117.43 614.08,-119.59"/>
<text text-anchor="middle" x="597.84" y="-112.8" font-family="Times,serif" font-size="14.00">data</text>
</g>
<!-- r5 -->
<g id="node8" class="node">
<title>r5</title>
<g id="a_node8"><a xlink:href="file:///home/andrew/workspace/flow/flowstdlib/control/tap/tap.html" xlink:title="n&#45;tap (#5)">
<ellipse fill="coral" stroke="black" cx="303.84" cy="-251" rx="57.69" ry="18"/>
<text text-anchor="middle" x="303.84" y="-247.3" font-family="Times,serif" font-size="14.00">n&#45;tap (#5)</text>
</a>
</g>
</g>
<!-- r3&#45;&gt;r5 -->
<g id="edge8" class="edge">
<title>r3:e&#45;&gt;r5:n</title>
<path fill="none" stroke="black" d="M455.84,-411C483.04,-411 554.41,-407.68 370.84,-287 348.9,-272.58 315.74,-292.02 306.38,-279.08"/>
<polygon fill="black" stroke="black" points="309.68,-277.84 303.84,-269 302.89,-279.55 309.68,-277.84"/>
<text text-anchor="middle" x="287.84" y="-272.8" font-family="Times,serif" font-size="14.00">data</text>
</g>
<!-- r4 -->
<g id="node9" class="node">
<title>r4</title>
<g id="a_node9"><a xlink:href="file:///home/andrew/workspace/flow/flowstdlib/math/compare/compare.html" xlink:title="compare (#4)">
<ellipse fill="coral" stroke="black" cx="674.84" cy="-324" rx="74.19" ry="18"/>
<text text-anchor="middle" x="674.84" y="-320.3" font-family="Times,serif" font-size="14.00">compare (#4)</text>
</a>
</g>
</g>
<!-- r3&#45;&gt;r4 -->
<g id="edge9" class="edge">
<title>r3:e&#45;&gt;r4:n</title>
<path fill="none" stroke="black" d="M455.84,-411C478.66,-411 635.9,-376.2 668.81,-350.6"/>
<polygon fill="black" stroke="black" points="671.97,-352.2 674.84,-342 666.23,-348.18 671.97,-352.2"/>
<text text-anchor="middle" x="662.34" y="-345.8" font-family="Times,serif" font-size="14.00">left</text>
</g>
<!-- initializerr2_0 -->
<!-- initializerr2_0&#45;&gt;r2 -->
<g id="edge4" class="edge">
<title>initializerr2_0&#45;&gt;r2:ne</title>
<path fill="none" stroke="blue" stroke-dasharray="1,5" d="M490.2,-233.31C477.23,-221.55 459.42,-205.14 443.17,-189.25"/>
<polygon fill="blue" stroke="blue" points="445.41,-186.54 435.84,-182 440.49,-191.52 445.41,-186.54"/>
<text text-anchor="middle" x="473.84" y="-203.8" font-family="Times,serif" font-size="14.00">1</text>
</g>
<!-- r7 -->
<g id="node11" class="node">
<title>r7</title>
<g id="a_node11"><a xlink:href="file:///home/andrew/workspace/flow/flowruntime/stdio/stdout.html" xlink:title="print (#7)">
<ellipse fill="coral" stroke="black" cx="693.84" cy="-18" rx="57.39" ry="18"/>
<text text-anchor="middle" x="693.84" y="-14.3" font-family="Times,serif" font-size="14.00">print (#7)</text>
</a>
</g>
</g>
<!-- r6&#45;&gt;r7 -->
<g id="edge15" class="edge">
<title>r6:e&#45;&gt;r7:n</title>
<path fill="none" stroke="black" d="M694.84,-91C716.04,-91 699.72,-68.02 695.01,-45.98"/>
<polygon fill="black" stroke="black" points="698.48,-45.52 693.84,-36 691.53,-46.34 698.48,-45.52"/>
</g>
<!-- initializerr3_1 -->
<!-- initializerr3_1&#45;&gt;r3 -->
<g id="edge7" class="edge">
<title>initializerr3_1&#45;&gt;r3:w</title>
<path fill="none" stroke="blue" d="M345.98,-480.01C338.14,-458.67 328.09,-423.63 342.15,-413.7"/>
<polygon fill="blue" stroke="blue" points="343.15,-417.05 351.84,-411 341.27,-410.31 343.15,-417.05"/>
<text text-anchor="middle" x="344.84" y="-450.8" font-family="Times,serif" font-size="14.00">1</text>
</g>
<!-- r5&#45;&gt;r2 -->
<g id="edge13" class="edge">
<title>r5:e&#45;&gt;r2:ne</title>
<path fill="none" stroke="black" d="M362.84,-251C371.87,-251 419.19,-211.05 432.8,-191.58"/>
<polygon fill="black" stroke="black" points="436.15,-192.59 435.84,-182 429.48,-190.47 436.15,-192.59"/>
<text text-anchor="middle" x="442.84" y="-185.8" font-family="Times,serif" font-size="14.00">i2</text>
</g>
<!-- r5&#45;&gt;r3 -->
<g id="edge14" class="edge">
<title>r5:e&#45;&gt;r3:n</title>
<path fill="none" stroke="black" d="M362.84,-251C370.85,-251 363.14,-261.09 361.84,-269 360.42,-277.62 355.03,-279.46 356.84,-288 362.29,-313.69 364.09,-321.77 380.84,-342 406.25,-372.67 436.05,-357.72 454.54,-393 461.97,-407.17 465.74,-417.58 454.54,-429 448.81,-434.85 424.64,-438.67 411.86,-436.01"/>
<polygon fill="black" stroke="black" points="413.94,-433.2 403.84,-430 409.74,-438.8 413.94,-433.2"/>
<text text-anchor="middle" x="410.84" y="-433.8" font-family="Times,serif" font-size="14.00">i1</text>
</g>
<!-- r4&#45;&gt;r6 -->
<g id="edge12" class="edge">
<title>r4:se&#45;&gt;r6:ne</title>
<path fill="none" stroke="black" d="M692.84,-306C750.55,-248.29 693.21,-197.35 651.84,-127 647.86,-120.23 644.14,-118.24 639.65,-115.28"/>
<polygon fill="black" stroke="black" points="641.83,-112.54 631.84,-109 637.45,-117.99 641.83,-112.54"/>
<text text-anchor="middle" x="657.34" y="-112.8" font-family="Times,serif" font-size="14.00">control</text>
<text text-anchor="middle" x="680.84" y="-294.8" font-family="Times,serif" font-size="14.00">/lte</text>
</g>
<!-- r4&#45;&gt;r5 -->
<g id="edge11" class="edge">
<title>r4:e&#45;&gt;r5:ne</title>
<path fill="none" stroke="black" d="M749.84,-324C757.85,-324 754.42,-311.75 748.84,-306 733.46,-290.14 394.2,-286.4 330.53,-272.54"/>
<polygon fill="black" stroke="black" points="331.44,-269.14 320.84,-269 329.03,-275.72 331.44,-269.14"/>
<text text-anchor="middle" x="346.34" y="-272.8" font-family="Times,serif" font-size="14.00">control</text>
<text text-anchor="middle" x="759.84" y="-327.8" font-family="Times,serif" font-size="14.00">/gt</text>
</g>
<!-- initializerr4_1 -->
<!-- initializerr4_1&#45;&gt;r4 -->
<g id="edge10" class="edge">
<title>initializerr4_1&#45;&gt;r4:ne</title>
<path fill="none" stroke="blue" d="M698.8,-392.94C702.23,-380.33 704.75,-363.18 698.59,-350.21"/>
<polygon fill="blue" stroke="blue" points="701.45,-348.18 692.84,-342 695.71,-352.2 701.45,-348.18"/>
<text text-anchor="middle" x="706.84" y="-363.8" font-family="Times,serif" font-size="14.00">1</text>
</g>
</g>
</svg>
