<?xml version="1.0" encoding="UTF-8" standalone="no"?>
<!DOCTYPE svg PUBLIC "-//W3C//DTD SVG 1.1//EN"
 "http://www.w3.org/Graphics/SVG/1.1/DTD/svg11.dtd">
<!-- Generated by graphviz version 2.40.1 (0)
 -->
<!-- Title: factorial Pages: 1 -->
<svg width="777pt" height="620pt"
 viewBox="0.00 0.00 776.84 620.00" xmlns="http://www.w3.org/2000/svg" xmlns:xlink="http://www.w3.org/1999/xlink">
<g id="graph0" class="graph" transform="scale(1 1) rotate(0) translate(4 616)">
<title>factorial</title>
<polygon fill="#ffffff" stroke="transparent" points="-4,4 -4,-616 772.8426,-616 772.8426,4 -4,4"/>
<text text-anchor="middle" x="384.4213" y="-596.8" font-family="Times,serif" font-size="14.00" fill="#000000">/factorial</text>
<!-- r0 -->
<g id="node1" class="node">
<title>r0</title>
<g id="a_node1"><a xlink:href="file:///home/andrew/workspace/flow/flowruntime/args/get.toml" xlink:title="args (#0)">
<ellipse fill="#ff7f50" stroke="#000000" cx="100.8426" cy="-571" rx="54.6905" ry="18"/>
<text text-anchor="middle" x="100.8426" y="-567.3" font-family="Times,serif" font-size="14.00" fill="#000000">args (#0)</text>
</a>
</g>
</g>
<!-- r1 -->
<g id="node2" class="node">
<title>r1</title>
<g id="a_node2"><a xlink:href="file:///home/andrew/workspace/flow/flowstdlib/fmt/to_number/to_number.toml" xlink:title="to_number (#1)">
<ellipse fill="#ff7f50" stroke="#000000" cx="83.8426" cy="-498" rx="83.6854" ry="18"/>
<text text-anchor="middle" x="83.8426" y="-494.3" font-family="Times,serif" font-size="14.00" fill="#000000">to_number (#1)</text>
</a>
</g>
</g>
<!-- r0&#45;&gt;r1 -->
<g id="edge1" class="edge">
<title>r0:sw&#45;&gt;r1:n</title>
<path fill="none" stroke="#000000" d="M83.8426,-554C74.5127,-544.6701 79.7607,-537.033 82.5032,-526.0849"/>
<polygon fill="#000000" stroke="#000000" points="85.9955,-526.3738 83.8426,-516 79.0564,-525.4522 85.9955,-526.3738"/>
<text text-anchor="middle" x="76.8426" y="-542.8" font-family="Times,serif" font-size="14.00" fill="#000000">/1</text>
</g>
<!-- r2 -->
<g id="node3" class="node">
<title>r2</title>
<g id="a_node3"><a xlink:href="file:///home/andrew/workspace/flow/flowstdlib/math/multiply/multiply.toml" xlink:title="multiply (#2)">
<ellipse fill="#ff7f50" stroke="#000000" cx="417.8426" cy="-164" rx="72.5877" ry="18"/>
<text text-anchor="middle" x="417.8426" y="-160.3" font-family="Times,serif" font-size="14.00" fill="#000000">multiply (#2)</text>
</a>
</g>
</g>
<!-- r1&#45;&gt;r2 -->
<g id="edge2" class="edge">
<title>r1:e&#45;&gt;r2:ne</title>
<path fill="none" stroke="#000000" d="M167.8426,-498C175.8426,-498 169.519,-487.8224 167.8426,-480 160.7972,-447.127 136.8426,-444.6195 136.8426,-411 136.8426,-411 136.8426,-411 136.8426,-251 136.8426,-221.1 385.3285,-209.1186 430.2198,-190.3631"/>
<polygon fill="#000000" stroke="#000000" points="433.1676,-192.2516 435.8426,-182 427.3585,-188.3459 433.1676,-192.2516"/>
<text text-anchor="middle" x="428.8426" y="-185.8" font-family="Times,serif" font-size="14.00" fill="#000000">i2</text>
</g>
<!-- r3 -->
<g id="node4" class="node">
<title>r3</title>
<g id="a_node4"><a xlink:href="file:///home/andrew/workspace/flow/flowstdlib/math/subtract/subtract.toml" xlink:title="sub (#3)">
<ellipse fill="#ff7f50" stroke="#000000" cx="403.8426" cy="-411" rx="50.8918" ry="18"/>
<text text-anchor="middle" x="403.8426" y="-407.3" font-family="Times,serif" font-size="14.00" fill="#000000">sub (#3)</text>
</a>
</g>
</g>
<!-- r1&#45;&gt;r3 -->
<g id="edge3" class="edge">
<title>r1:e&#45;&gt;r3:n</title>
<path fill="none" stroke="#000000" d="M167.8426,-498C203.2603,-498 284.6816,-456.3514 318.8426,-447 333.9734,-442.858 380.6299,-446.3101 397.5942,-437.394"/>
<polygon fill="#000000" stroke="#000000" points="400.6789,-439.1115 403.8426,-429 395.0638,-434.9316 400.6789,-439.1115"/>
<text text-anchor="middle" x="396.8426" y="-432.8" font-family="Times,serif" font-size="14.00" fill="#000000">i1</text>
</g>
<!-- r2&#45;&gt;r2 -->
<g id="edge5" class="edge">
<title>r2:e&#45;&gt;r2:n</title>
<path fill="none" stroke="#000000" d="M490.8426,-164C514.6361,-155 562.6361,-155 562.6361,-173 562.6361,-189.8398 478.1493,-190.9252 427.7377,-183.6257"/>
<polygon fill="#000000" stroke="#000000" points="428.2777,-180.1675 417.8426,-182 427.1428,-187.0749 428.2777,-180.1675"/>
<text text-anchor="middle" x="410.8426" y="-185.8" font-family="Times,serif" font-size="14.00" fill="#000000">i1</text>
</g>
<!-- r6 -->
<g id="node6" class="node">
<title>r6</title>
<g id="a_node6"><a xlink:href="file:///home/andrew/workspace/flow/flowstdlib/control/tap/tap.toml" xlink:title="result&#45;tap (#6)">
<ellipse fill="#ff7f50" stroke="#000000" cx="613.8426" cy="-91" rx="79.0865" ry="18"/>
<text text-anchor="middle" x="613.8426" y="-87.3" font-family="Times,serif" font-size="14.00" fill="#000000">result&#45;tap (#6)</text>
</a>
</g>
</g>
<!-- r2&#45;&gt;r6 -->
<g id="edge6" class="edge">
<title>r2:e&#45;&gt;r6:n</title>
<path fill="none" stroke="#000000" d="M490.8426,-164C517.5092,-164 594.2411,-144.1233 610.7072,-118.6229"/>
<polygon fill="#000000" stroke="#000000" points="614.0723,-119.5923 613.8426,-109 607.4167,-117.4237 614.0723,-119.5923"/>
<text text-anchor="middle" x="597.8426" y="-112.8" font-family="Times,serif" font-size="14.00" fill="#000000">data</text>
</g>
<!-- r5 -->
<g id="node8" class="node">
<title>r5</title>
<g id="a_node8"><a xlink:href="file:///home/andrew/workspace/flow/flowstdlib/control/tap/tap.toml" xlink:title="n&#45;tap (#5)">
<ellipse fill="#ff7f50" stroke="#000000" cx="303.8426" cy="-251" rx="57.6901" ry="18"/>
<text text-anchor="middle" x="303.8426" y="-247.3" font-family="Times,serif" font-size="14.00" fill="#000000">n&#45;tap (#5)</text>
</a>
</g>
</g>
<!-- r3&#45;&gt;r5 -->
<g id="edge8" class="edge">
<title>r3:e&#45;&gt;r5:n</title>
<path fill="none" stroke="#000000" d="M454.8426,-411C483.2494,-411 555.0432,-408.0954 370.8426,-287 348.9023,-272.5762 315.7434,-292.0244 306.3828,-279.0755"/>
<polygon fill="#000000" stroke="#000000" points="309.6811,-277.8409 303.8426,-269 302.8935,-279.5522 309.6811,-277.8409"/>
<text text-anchor="middle" x="287.8426" y="-272.8" font-family="Times,serif" font-size="14.00" fill="#000000">data</text>
</g>
<!-- r4 -->
<g id="node9" class="node">
<title>r4</title>
<g id="a_node9"><a xlink:href="file:///home/andrew/workspace/flow/flowstdlib/math/compare/compare.toml" xlink:title="compare (#4)">
<ellipse fill="#ff7f50" stroke="#000000" cx="674.8426" cy="-324" rx="74.187" ry="18"/>
<text text-anchor="middle" x="674.8426" y="-320.3" font-family="Times,serif" font-size="14.00" fill="#000000">compare (#4)</text>
</a>
</g>
</g>
<!-- r3&#45;&gt;r4 -->
<g id="edge9" class="edge">
<title>r3:e&#45;&gt;r4:n</title>
<path fill="none" stroke="#000000" d="M454.8426,-411C477.8592,-411 637.0996,-375.9829 669.2079,-350.2913"/>
<polygon fill="#000000" stroke="#000000" points="672.1165,-352.2381 674.8426,-342 666.3269,-348.3036 672.1165,-352.2381"/>
<text text-anchor="middle" x="662.3426" y="-345.8" font-family="Times,serif" font-size="14.00" fill="#000000">left</text>
</g>
<!-- initializerr2_0 -->
<!-- initializerr2_0&#45;&gt;r2 -->
<g id="edge4" class="edge">
<title>initializerr2_0&#45;&gt;r2:ne</title>
<path fill="none" stroke="#0000ff" stroke-dasharray="1,5" d="M489.656,-233.4173C476.7451,-221.4715 459.2044,-205.0239 443.1124,-189.2053"/>
<polygon fill="#0000ff" stroke="#0000ff" points="445.4089,-186.5536 435.8426,-182 440.4813,-191.5254 445.4089,-186.5536"/>
<text text-anchor="middle" x="473.8426" y="-203.8" font-family="Times,serif" font-size="14.00" fill="#000000">1</text>
</g>
<!-- r7 -->
<g id="node11" class="node">
<title>r7</title>
<g id="a_node11"><a xlink:href="file:///home/andrew/workspace/flow/flowruntime/stdio/stdout.toml" xlink:title="print (#7)">
<ellipse fill="#ff7f50" stroke="#000000" cx="693.8426" cy="-18" rx="57.3905" ry="18"/>
<text text-anchor="middle" x="693.8426" y="-14.3" font-family="Times,serif" font-size="14.00" fill="#000000">print (#7)</text>
</a>
</g>
</g>
<!-- r6&#45;&gt;r7 -->
<g id="edge15" class="edge">
<title>r6:e&#45;&gt;r7:n</title>
<path fill="none" stroke="#000000" d="M693.8426,-91C715.0405,-91 699.4733,-68.0218 694.9643,-45.9771"/>
<polygon fill="#000000" stroke="#000000" points="698.438,-45.5463 693.8426,-36 691.4818,-46.3285 698.438,-45.5463"/>
</g>
<!-- initializerr3_1 -->
<!-- initializerr3_1&#45;&gt;r3 -->
<g id="edge7" class="edge">
<title>initializerr3_1&#45;&gt;r3:w</title>
<path fill="none" stroke="#0000ff" d="M345.8031,-479.9735C338.1567,-458.2733 328.813,-423.5145 343.0896,-413.6736"/>
<polygon fill="#0000ff" stroke="#0000ff" points="344.1237,-417.0194 352.8426,-411 342.273,-410.2684 344.1237,-417.0194"/>
<text text-anchor="middle" x="343.8426" y="-450.8" font-family="Times,serif" font-size="14.00" fill="#000000">1</text>
</g>
<!-- r5&#45;&gt;r2 -->
<g id="edge13" class="edge">
<title>r5:e&#45;&gt;r2:ne</title>
<path fill="none" stroke="#000000" d="M361.8426,-251C370.9328,-251 418.9028,-211.0836 432.7307,-191.6005"/>
<polygon fill="#000000" stroke="#000000" points="436.0885,-192.592 435.8426,-182 429.4296,-190.4335 436.0885,-192.592"/>
<text text-anchor="middle" x="442.8426" y="-185.8" font-family="Times,serif" font-size="14.00" fill="#000000">i2</text>
</g>
<!-- r5&#45;&gt;r3 -->
<g id="edge14" class="edge">
<title>r5:e&#45;&gt;r3:n</title>
<path fill="none" stroke="#000000" d="M361.8426,-251C369.8426,-251 362.923,-261.0733 361.8426,-269 360.6632,-277.6519 355.0299,-279.4583 356.8426,-288 362.2947,-313.6915 364.0878,-321.7749 380.8426,-342 406.2532,-372.6737 436.0486,-357.7195 454.5381,-393 454.5381,-393 426.6128,-412.8303 412.2139,-423.0553"/>
<polygon fill="#000000" stroke="#000000" points="409.9695,-420.3564 403.8426,-429 414.0224,-426.0638 409.9695,-420.3564"/>
<text text-anchor="middle" x="410.8426" y="-432.8" font-family="Times,serif" font-size="14.00" fill="#000000">i1</text>
</g>
<!-- r4&#45;&gt;r6 -->
<g id="edge12" class="edge">
<title>r4:se&#45;&gt;r6:ne</title>
<path fill="none" stroke="#000000" d="M692.8426,-306C750.5536,-248.2889 693.2128,-197.3537 651.8426,-127 647.8645,-120.235 644.1361,-118.2389 639.653,-115.276"/>
<polygon fill="#000000" stroke="#000000" points="641.8301,-112.5355 631.8426,-109 637.4455,-117.9921 641.8301,-112.5355"/>
<text text-anchor="middle" x="657.3426" y="-112.8" font-family="Times,serif" font-size="14.00" fill="#000000">control</text>
<text text-anchor="middle" x="680.8426" y="-294.8" font-family="Times,serif" font-size="14.00" fill="#000000">/lte</text>
</g>
<!-- r4&#45;&gt;r5 -->
<g id="edge11" class="edge">
<title>r4:e&#45;&gt;r5:ne</title>
<path fill="none" stroke="#000000" d="M748.8426,-324C756.8426,-324 754.2435,-311.9017 748.8426,-306 718.4364,-272.7746 394.5526,-298.4621 329.6186,-273.1371"/>
<polygon fill="#000000" stroke="#000000" points="331.2409,-270.0312 320.8426,-268 327.7046,-276.0723 331.2409,-270.0312"/>
<text text-anchor="middle" x="346.3426" y="-271.8" font-family="Times,serif" font-size="14.00" fill="#000000">control</text>
<text text-anchor="middle" x="758.8426" y="-327.8" font-family="Times,serif" font-size="14.00" fill="#000000">/gt</text>
</g>
<!-- initializerr4_1 -->
<!-- initializerr4_1&#45;&gt;r4 -->
<g id="edge10" class="edge">
<title>initializerr4_1&#45;&gt;r4:ne</title>
<path fill="none" stroke="#0000ff" d="M699.1364,-392.7728C702.4637,-380.141 704.7526,-363.3538 698.7669,-350.5254"/>
<polygon fill="#0000ff" stroke="#0000ff" points="701.4233,-348.2146 692.8426,-342 695.6749,-352.2092 701.4233,-348.2146"/>
<text text-anchor="middle" x="706.8426" y="-363.8" font-family="Times,serif" font-size="14.00" fill="#000000">1</text>
</g>
</g>
</svg>
