<?xml version="1.0" encoding="UTF-8" standalone="no"?>
<!DOCTYPE svg PUBLIC "-//W3C//DTD SVG 1.1//EN"
 "http://www.w3.org/Graphics/SVG/1.1/DTD/svg11.dtd">
<!-- Generated by graphviz version 2.44.1 (20200629.0846)
 -->
<!-- Title: factorial Pages: 1 -->
<svg width="622pt" height="547pt"
 viewBox="0.00 0.00 621.69 547.00" xmlns="http://www.w3.org/2000/svg" xmlns:xlink="http://www.w3.org/1999/xlink">
<g id="graph0" class="graph" transform="scale(1 1) rotate(0) translate(4 543)">
<title>factorial</title>
<polygon fill="white" stroke="transparent" points="-4,4 -4,-543 617.69,-543 617.69,4 -4,4"/>
<text text-anchor="middle" x="306.85" y="-523.8" font-family="Times,serif" font-size="14.00">/factorial</text>
<!-- r6 -->
<g id="node1" class="node">
<title>r6</title>
<g id="a_node1"><a xlink:href="file:///Users/andrew/workspace/flow/flowr/src/lib/flowruntime/args/get.html" xlink:title="args (#6)">
<ellipse fill="coral" stroke="black" cx="42.25" cy="-498" rx="42.49" ry="18"/>
<text text-anchor="middle" x="42.25" y="-494.3" font-family="Times,serif" font-size="14.00">args (#6)</text>
</a>
</g>
</g>
<!-- r5 -->
<g id="node2" class="node">
<title>r5</title>
<g id="a_node2"><a xlink:href="file:///Users/andrew/workspace/flow/flowstdlib/math/multiply/multiply.html" xlink:title="multiply (#5)">
<ellipse fill="coral" stroke="black" cx="301.25" cy="-164" rx="57.69" ry="18"/>
<text text-anchor="middle" x="301.25" y="-160.3" font-family="Times,serif" font-size="14.00">multiply (#5)</text>
</a>
</g>
</g>
<!-- r6&#45;&gt;r5 -->
<g id="edge1" class="edge">
<title>r6:e&#45;&gt;r5:ne</title>
<path fill="none" stroke="black" d="M86.25,-498C94.26,-498 87.35,-487.73 85.25,-480 76.33,-447.2 50.25,-445.99 50.25,-412 50.25,-412 50.25,-412 50.25,-250 50.25,-223.24 270.09,-207.99 312.41,-190.14"/>
<polygon fill="black" stroke="black" points="315.26,-192.17 318.25,-182 309.57,-188.09 315.26,-192.17"/>
<text text-anchor="middle" x="312.75" y="-185.8" font-family="Times,serif" font-size="14.00">i2</text>
<text text-anchor="middle" x="104.75" y="-501.8" font-family="Times,serif" font-size="14.00">/json/1</text>
</g>
<!-- r2 -->
<g id="node3" class="node">
<title>r2</title>
<g id="a_node3"><a xlink:href="file:///Users/andrew/workspace/flow/flowstdlib/math/subtract/subtract.html" xlink:title="sub (#2)">
<ellipse fill="coral" stroke="black" cx="311.25" cy="-411" rx="40.09" ry="18"/>
<text text-anchor="middle" x="311.25" y="-407.3" font-family="Times,serif" font-size="14.00">sub (#2)</text>
</a>
</g>
</g>
<!-- r6&#45;&gt;r2 -->
<g id="edge2" class="edge">
<title>r6:e&#45;&gt;r2:n</title>
<path fill="none" stroke="black" d="M86.25,-498C156.66,-498 168.61,-466.57 236.25,-447 249.37,-443.2 289.2,-444.91 304.84,-437.09"/>
<polygon fill="black" stroke="black" points="307.78,-439.01 311.25,-429 302.3,-434.67 307.78,-439.01"/>
<text text-anchor="middle" x="305.75" y="-432.8" font-family="Times,serif" font-size="14.00">i1</text>
<text text-anchor="middle" x="104.75" y="-486.8" font-family="Times,serif" font-size="14.00">/json/1</text>
</g>
<!-- r5&#45;&gt;r5 -->
<g id="edge4" class="edge">
<title>r5:e&#45;&gt;r5:n</title>
<path fill="none" stroke="black" d="M359.25,-164C383.09,-155 431.09,-155 431.09,-173 431.09,-189.7 356.59,-190.91 311.26,-183.81"/>
<polygon fill="black" stroke="black" points="311.71,-180.33 301.25,-182 310.47,-187.22 311.71,-180.33"/>
<text text-anchor="middle" x="295.75" y="-185.8" font-family="Times,serif" font-size="14.00">i1</text>
</g>
<!-- r4 -->
<g id="node5" class="node">
<title>r4</title>
<g id="a_node5"><a xlink:href="file:///Users/andrew/workspace/flow/flowstdlib/control/tap/tap.html" xlink:title="result&#45;tap (#4)">
<ellipse fill="coral" stroke="black" cx="476.25" cy="-91" rx="61.19" ry="18"/>
<text text-anchor="middle" x="476.25" y="-87.3" font-family="Times,serif" font-size="14.00">result&#45;tap (#4)</text>
</a>
</g>
</g>
<!-- r5&#45;&gt;r4 -->
<g id="edge5" class="edge">
<title>r5:e&#45;&gt;r4:n</title>
<path fill="none" stroke="black" d="M360.25,-164C385.54,-164 457.18,-143.19 473.09,-118.58"/>
<polygon fill="black" stroke="black" points="476.44,-119.59 476.25,-109 469.79,-117.4 476.44,-119.59"/>
<text text-anchor="middle" x="464.75" y="-112.8" font-family="Times,serif" font-size="14.00">data</text>
</g>
<!-- r3 -->
<g id="node7" class="node">
<title>r3</title>
<g id="a_node7"><a xlink:href="file:///Users/andrew/workspace/flow/flowstdlib/control/tap/tap.html" xlink:title="n&#45;tap (#3)">
<ellipse fill="coral" stroke="black" cx="205.25" cy="-251" rx="46.29" ry="18"/>
<text text-anchor="middle" x="205.25" y="-247.3" font-family="Times,serif" font-size="14.00">n&#45;tap (#3)</text>
</a>
</g>
</g>
<!-- r2&#45;&gt;r3 -->
<g id="edge7" class="edge">
<title>r2:se&#45;&gt;r3:n</title>
<path fill="none" stroke="black" d="M328.25,-393C368.69,-352.55 300.55,-321.92 255.25,-287 240.34,-275.51 217.44,-285.9 208.75,-278.64"/>
<polygon fill="black" stroke="black" points="211.95,-277.2 205.25,-269 205.37,-279.59 211.95,-277.2"/>
<text text-anchor="middle" x="193.75" y="-272.8" font-family="Times,serif" font-size="14.00">data</text>
<text text-anchor="middle" x="316.25" y="-381.8" font-family="Times,serif" font-size="14.00">/diff</text>
</g>
<!-- r0 -->
<g id="node8" class="node">
<title>r0</title>
<g id="a_node8"><a xlink:href="file:///Users/andrew/workspace/flow/flowstdlib/math/compare/compare.html" xlink:title="compare (#0)">
<ellipse fill="coral" stroke="black" cx="536.25" cy="-324" rx="58.49" ry="18"/>
<text text-anchor="middle" x="536.25" y="-320.3" font-family="Times,serif" font-size="14.00">compare (#0)</text>
</a>
</g>
</g>
<!-- r2&#45;&gt;r0 -->
<g id="edge8" class="edge">
<title>r2:se&#45;&gt;r0:n</title>
<path fill="none" stroke="black" d="M328.25,-393C359.27,-361.98 509.86,-385.26 533.2,-351.8"/>
<polygon fill="black" stroke="black" points="536.62,-352.59 536.25,-342 529.94,-350.51 536.62,-352.59"/>
<text text-anchor="middle" x="526.75" y="-345.8" font-family="Times,serif" font-size="14.00">left</text>
<text text-anchor="middle" x="340.25" y="-381.8" font-family="Times,serif" font-size="14.00">/diff</text>
</g>
<!-- initializerr5_0 -->
<!-- initializerr5_0&#45;&gt;r5 -->
<g id="edge3" class="edge">
<title>initializerr5_0&#45;&gt;r5:ne</title>
<path fill="none" stroke="blue" stroke-dasharray="1,5" d="M368.38,-233.38C356.96,-221.47 340.95,-204.89 325.66,-189.46"/>
<polygon fill="blue" stroke="blue" points="327.78,-186.62 318.25,-182 322.82,-191.56 327.78,-186.62"/>
<text text-anchor="middle" x="351.75" y="-203.8" font-family="Times,serif" font-size="14.00">1</text>
</g>
<!-- r1 -->
<g id="node10" class="node">
<title>r1</title>
<g id="a_node10"><a xlink:href="file:///Users/andrew/workspace/flow/flowr/src/lib/flowruntime/stdio/stdout.html" xlink:title="print (#1)">
<ellipse fill="coral" stroke="black" cx="537.25" cy="-18" rx="44.39" ry="18"/>
<text text-anchor="middle" x="537.25" y="-14.3" font-family="Times,serif" font-size="14.00">print (#1)</text>
</a>
</g>
</g>
<!-- r4&#45;&gt;r1 -->
<g id="edge14" class="edge">
<title>r4:e&#45;&gt;r1:n</title>
<path fill="none" stroke="black" d="M538.25,-91C559.45,-91 543.13,-68.02 538.42,-45.98"/>
<polygon fill="black" stroke="black" points="541.89,-45.52 537.25,-36 534.93,-46.34 541.89,-45.52"/>
</g>
<!-- initializerr2_1 -->
<!-- initializerr2_1&#45;&gt;r2 -->
<g id="edge6" class="edge">
<title>initializerr2_1&#45;&gt;r2:w</title>
<path fill="none" stroke="blue" d="M263.38,-480.01C255.54,-458.67 245.49,-423.63 259.55,-413.7"/>
<polygon fill="blue" stroke="blue" points="260.55,-417.05 269.25,-411 258.67,-410.31 260.55,-417.05"/>
<text text-anchor="middle" x="260.75" y="-450.8" font-family="Times,serif" font-size="14.00">1</text>
</g>
<!-- r3&#45;&gt;r5 -->
<g id="edge12" class="edge">
<title>r3:e&#45;&gt;r5:ne</title>
<path fill="none" stroke="black" d="M253.25,-251C270.86,-251 314.85,-213.19 320.12,-192.09"/>
<polygon fill="black" stroke="black" points="323.51,-191.19 318.25,-182 316.63,-192.47 323.51,-191.19"/>
<text text-anchor="middle" x="323.75" y="-185.8" font-family="Times,serif" font-size="14.00">i2</text>
</g>
<!-- r3&#45;&gt;r2 -->
<g id="edge13" class="edge">
<title>r3:e&#45;&gt;r2:n</title>
<path fill="none" stroke="black" d="M253.25,-251C261.26,-251 254.63,-261.35 252.25,-269 249.46,-277.95 243.79,-277.97 241.25,-287 234.07,-312.51 246.73,-322.12 264.25,-342 265.17,-343.05 350.84,-391.78 351.54,-393 359.51,-406.88 362.72,-417.55 351.54,-429 347.34,-433.31 330.59,-436.32 320.06,-435.12"/>
<polygon fill="black" stroke="black" points="321.65,-432 311.25,-430 318.13,-438.05 321.65,-432"/>
<text text-anchor="middle" x="316.75" y="-433.8" font-family="Times,serif" font-size="14.00">i1</text>
</g>
<!-- r0&#45;&gt;r4 -->
<g id="edge11" class="edge">
<title>r0:se&#45;&gt;r4:ne</title>
<path fill="none" stroke="black" d="M553.25,-306C610.96,-248.29 551.75,-198.42 512.25,-127 508.82,-120.81 505.77,-118.45 502.01,-115.6"/>
<polygon fill="black" stroke="black" points="504.13,-112.81 494.25,-109 499.6,-118.14 504.13,-112.81"/>
<text text-anchor="middle" x="513.75" y="-112.8" font-family="Times,serif" font-size="14.00">control</text>
<text text-anchor="middle" x="544.25" y="-294.8" font-family="Times,serif" font-size="14.00">/lte</text>
</g>
<!-- r0&#45;&gt;r3 -->
<g id="edge10" class="edge">
<title>r0:e&#45;&gt;r3:ne</title>
<path fill="none" stroke="black" d="M596.25,-324C604.26,-324 600.79,-311.79 595.25,-306 582,-292.16 289.93,-284.93 231.78,-272.4"/>
<polygon fill="black" stroke="black" points="232.84,-269.06 222.25,-269 230.49,-275.66 232.84,-269.06"/>
<text text-anchor="middle" x="241.75" y="-272.8" font-family="Times,serif" font-size="14.00">control</text>
<text text-anchor="middle" x="603.75" y="-327.8" font-family="Times,serif" font-size="14.00">/gt</text>
</g>
<!-- initializerr0_1 -->
<!-- initializerr0_1&#45;&gt;r0 -->
<g id="edge9" class="edge">
<title>initializerr0_1&#45;&gt;r0:ne</title>
<path fill="none" stroke="blue" d="M559.21,-392.94C562.63,-380.33 565.15,-363.18 558.99,-350.21"/>
<polygon fill="blue" stroke="blue" points="561.85,-348.18 553.25,-342 556.12,-352.2 561.85,-348.18"/>
<text text-anchor="middle" x="565.75" y="-363.8" font-family="Times,serif" font-size="14.00">1</text>
</g>
</g>
</svg>
