<?xml version="1.0" encoding="UTF-8" standalone="no"?>
<!DOCTYPE svg PUBLIC "-//W3C//DTD SVG 1.1//EN"
 "http://www.w3.org/Graphics/SVG/1.1/DTD/svg11.dtd">
<!-- Generated by graphviz version 2.44.0 (20200408.0750)
 -->
<!-- Title: factorial Pages: 1 -->
<svg width="670pt" height="620pt"
 viewBox="0.00 0.00 669.74 620.00" xmlns="http://www.w3.org/2000/svg" xmlns:xlink="http://www.w3.org/1999/xlink">
<g id="graph0" class="graph" transform="scale(1 1) rotate(0) translate(4 616)">
<title>factorial</title>
<polygon fill="white" stroke="transparent" points="-4,4 -4,-616 665.74,-616 665.74,4 -4,4"/>
<text text-anchor="middle" x="330.87" y="-596.8" font-family="Times,serif" font-size="14.00">/factorial</text>
<!-- r0 -->
<g id="node1" class="node">
<title>r0</title>
<g id="a_node1"><a xlink:href="file:///Users/andrew/workspace/flow/flowruntime/args/get.toml" xlink:title="args (#0)">
<ellipse fill="coral" stroke="black" cx="83.29" cy="-571" rx="42.49" ry="18"/>
<text text-anchor="middle" x="83.29" y="-567.3" font-family="Times,serif" font-size="14.00">args (#0)</text>
</a>
</g>
</g>
<!-- r1 -->
<g id="node2" class="node">
<title>r1</title>
<g id="a_node2"><a xlink:href="file:///Users/andrew/workspace/flow/flowstdlib/fmt/to_number/to_number.toml" xlink:title="to_number (#1)">
<ellipse fill="coral" stroke="black" cx="66.29" cy="-498" rx="66.09" ry="18"/>
<text text-anchor="middle" x="66.29" y="-494.3" font-family="Times,serif" font-size="14.00">to_number (#1)</text>
</a>
</g>
</g>
<!-- r0&#45;&gt;r1 -->
<g id="edge1" class="edge">
<title>r0:sw&#45;&gt;r1:n</title>
<path fill="none" stroke="black" d="M66.29,-553C57.3,-544.01 62.22,-536.63 64.91,-526.14"/>
<polygon fill="black" stroke="black" points="68.41,-526.38 66.29,-516 61.47,-525.43 68.41,-526.38"/>
<text text-anchor="middle" x="60.79" y="-541.8" font-family="Times,serif" font-size="14.00">/1</text>
</g>
<!-- r2 -->
<g id="node3" class="node">
<title>r2</title>
<g id="a_node3"><a xlink:href="file:///Users/andrew/workspace/flow/flowstdlib/math/multiply/multiply.toml" xlink:title="multiply (#2)">
<ellipse fill="coral" stroke="black" cx="349.29" cy="-164" rx="57.69" ry="18"/>
<text text-anchor="middle" x="349.29" y="-160.3" font-family="Times,serif" font-size="14.00">multiply (#2)</text>
</a>
</g>
</g>
<!-- r1&#45;&gt;r2 -->
<g id="edge2" class="edge">
<title>r1:e&#45;&gt;r2:ne</title>
<path fill="none" stroke="black" d="M134.29,-498C142.31,-498 135.4,-487.73 133.29,-480 124.38,-447.2 98.29,-445.99 98.29,-412 98.29,-412 98.29,-412 98.29,-250 98.29,-223.24 318.14,-207.99 360.46,-190.14"/>
<polygon fill="black" stroke="black" points="363.31,-192.17 366.29,-182 357.62,-188.09 363.31,-192.17"/>
<text text-anchor="middle" x="360.79" y="-185.8" font-family="Times,serif" font-size="14.00">i2</text>
</g>
<!-- r3 -->
<g id="node4" class="node">
<title>r3</title>
<g id="a_node4"><a xlink:href="file:///Users/andrew/workspace/flow/flowstdlib/math/subtract/subtract.toml" xlink:title="sub (#3)">
<ellipse fill="coral" stroke="black" cx="347.29" cy="-411" rx="40.09" ry="18"/>
<text text-anchor="middle" x="347.29" y="-407.3" font-family="Times,serif" font-size="14.00">sub (#3)</text>
</a>
</g>
</g>
<!-- r1&#45;&gt;r3 -->
<g id="edge3" class="edge">
<title>r1:e&#45;&gt;r3:n</title>
<path fill="none" stroke="black" d="M134.29,-498C199.68,-498 209.73,-466 272.29,-447 285.36,-443.03 325.23,-444.84 340.89,-437.07"/>
<polygon fill="black" stroke="black" points="343.81,-439.01 347.29,-429 338.33,-434.65 343.81,-439.01"/>
<text text-anchor="middle" x="341.79" y="-432.8" font-family="Times,serif" font-size="14.00">i1</text>
</g>
<!-- r2&#45;&gt;r2 -->
<g id="edge5" class="edge">
<title>r2:e&#45;&gt;r2:n</title>
<path fill="none" stroke="black" d="M407.29,-164C431.14,-155 479.14,-155 479.14,-173 479.14,-189.7 404.63,-190.91 359.31,-183.81"/>
<polygon fill="black" stroke="black" points="359.76,-180.33 349.29,-182 358.51,-187.22 359.76,-180.33"/>
<text text-anchor="middle" x="343.79" y="-185.8" font-family="Times,serif" font-size="14.00">i1</text>
</g>
<!-- r6 -->
<g id="node6" class="node">
<title>r6</title>
<g id="a_node6"><a xlink:href="file:///Users/andrew/workspace/flow/flowstdlib/control/tap/tap.toml" xlink:title="result&#45;tap (#6)">
<ellipse fill="coral" stroke="black" cx="524.29" cy="-91" rx="61.19" ry="18"/>
<text text-anchor="middle" x="524.29" y="-87.3" font-family="Times,serif" font-size="14.00">result&#45;tap (#6)</text>
</a>
</g>
</g>
<!-- r2&#45;&gt;r6 -->
<g id="edge6" class="edge">
<title>r2:e&#45;&gt;r6:n</title>
<path fill="none" stroke="black" d="M408.29,-164C433.59,-164 505.23,-143.19 521.14,-118.58"/>
<polygon fill="black" stroke="black" points="524.49,-119.59 524.29,-109 517.84,-117.4 524.49,-119.59"/>
<text text-anchor="middle" x="512.79" y="-112.8" font-family="Times,serif" font-size="14.00">data</text>
</g>
<!-- r5 -->
<g id="node8" class="node">
<title>r5</title>
<g id="a_node8"><a xlink:href="file:///Users/andrew/workspace/flow/flowstdlib/control/tap/tap.toml" xlink:title="n&#45;tap (#5)">
<ellipse fill="coral" stroke="black" cx="253.29" cy="-251" rx="46.29" ry="18"/>
<text text-anchor="middle" x="253.29" y="-247.3" font-family="Times,serif" font-size="14.00">n&#45;tap (#5)</text>
</a>
</g>
</g>
<!-- r3&#45;&gt;r5 -->
<g id="edge8" class="edge">
<title>r3:e&#45;&gt;r5:n</title>
<path fill="none" stroke="black" d="M389.29,-411C414.7,-411 474,-408.93 303.29,-287 287.83,-275.95 264.88,-286.32 256.5,-278.49"/>
<polygon fill="black" stroke="black" points="259.81,-277.35 253.29,-269 253.18,-279.59 259.81,-277.35"/>
<text text-anchor="middle" x="241.79" y="-272.8" font-family="Times,serif" font-size="14.00">data</text>
</g>
<!-- r4 -->
<g id="node9" class="node">
<title>r4</title>
<g id="a_node9"><a xlink:href="file:///Users/andrew/workspace/flow/flowstdlib/math/compare/compare.toml" xlink:title="compare (#4)">
<ellipse fill="coral" stroke="black" cx="584.29" cy="-324" rx="58.49" ry="18"/>
<text text-anchor="middle" x="584.29" y="-320.3" font-family="Times,serif" font-size="14.00">compare (#4)</text>
</a>
</g>
</g>
<!-- r3&#45;&gt;r4 -->
<g id="edge9" class="edge">
<title>r3:e&#45;&gt;r4:n</title>
<path fill="none" stroke="black" d="M389.29,-411C409.76,-411 548.45,-374.5 578.54,-350.28"/>
<polygon fill="black" stroke="black" points="581.46,-352.21 584.29,-342 575.71,-348.21 581.46,-352.21"/>
<text text-anchor="middle" x="574.79" y="-345.8" font-family="Times,serif" font-size="14.00">left</text>
</g>
<!-- initializerr2_0 -->
<!-- initializerr2_0&#45;&gt;r2 -->
<g id="edge4" class="edge">
<title>initializerr2_0&#45;&gt;r2:ne</title>
<path fill="none" stroke="blue" stroke-dasharray="1,5" d="M416.43,-233.38C405.01,-221.47 388.99,-204.89 373.71,-189.46"/>
<polygon fill="blue" stroke="blue" points="375.83,-186.62 366.29,-182 370.87,-191.56 375.83,-186.62"/>
<text text-anchor="middle" x="399.79" y="-203.8" font-family="Times,serif" font-size="14.00">1</text>
</g>
<!-- r7 -->
<g id="node11" class="node">
<title>r7</title>
<g id="a_node11"><a xlink:href="file:///Users/andrew/workspace/flow/flowruntime/stdio/stdout.toml" xlink:title="print (#7)">
<ellipse fill="coral" stroke="black" cx="585.29" cy="-18" rx="44.39" ry="18"/>
<text text-anchor="middle" x="585.29" y="-14.3" font-family="Times,serif" font-size="14.00">print (#7)</text>
</a>
</g>
</g>
<!-- r6&#45;&gt;r7 -->
<g id="edge15" class="edge">
<title>r6:e&#45;&gt;r7:n</title>
<path fill="none" stroke="black" d="M586.29,-91C607.5,-91 591.17,-68.02 586.46,-45.98"/>
<polygon fill="black" stroke="black" points="589.94,-45.52 585.29,-36 582.98,-46.34 589.94,-45.52"/>
</g>
<!-- initializerr3_1 -->
<!-- initializerr3_1&#45;&gt;r3 -->
<g id="edge7" class="edge">
<title>initializerr3_1&#45;&gt;r3:w</title>
<path fill="none" stroke="blue" d="M299.43,-480.01C291.59,-458.67 281.54,-423.63 295.6,-413.7"/>
<polygon fill="blue" stroke="blue" points="296.6,-417.05 305.29,-411 294.72,-410.31 296.6,-417.05"/>
<text text-anchor="middle" x="296.79" y="-450.8" font-family="Times,serif" font-size="14.00">1</text>
</g>
<!-- r5&#45;&gt;r2 -->
<g id="edge13" class="edge">
<title>r5:e&#45;&gt;r2:ne</title>
<path fill="none" stroke="black" d="M301.29,-251C318.9,-251 362.9,-213.19 368.16,-192.09"/>
<polygon fill="black" stroke="black" points="371.56,-191.19 366.29,-182 364.68,-192.47 371.56,-191.19"/>
<text text-anchor="middle" x="371.79" y="-185.8" font-family="Times,serif" font-size="14.00">i2</text>
</g>
<!-- r5&#45;&gt;r3 -->
<g id="edge14" class="edge">
<title>r5:e&#45;&gt;r3:n</title>
<path fill="none" stroke="black" d="M301.29,-251C309.31,-251 302.68,-261.35 300.29,-269 297.51,-277.95 291.83,-277.97 289.29,-287 282.16,-312.34 294.65,-321.6 311.29,-342 337.07,-373.61 368.37,-357.03 387.59,-393 395.13,-407.11 398.76,-417.55 387.59,-429 383.39,-433.31 366.64,-436.32 356.11,-435.12"/>
<polygon fill="black" stroke="black" points="357.7,-432 347.29,-430 354.18,-438.05 357.7,-432"/>
<text text-anchor="middle" x="352.79" y="-433.8" font-family="Times,serif" font-size="14.00">i1</text>
</g>
<!-- r4&#45;&gt;r6 -->
<g id="edge12" class="edge">
<title>r4:se&#45;&gt;r6:ne</title>
<path fill="none" stroke="black" d="M601.29,-306C659.01,-248.29 599.8,-198.42 560.29,-127 556.87,-120.81 553.82,-118.45 550.06,-115.6"/>
<polygon fill="black" stroke="black" points="552.18,-112.81 542.29,-109 547.65,-118.14 552.18,-112.81"/>
<text text-anchor="middle" x="561.79" y="-112.8" font-family="Times,serif" font-size="14.00">control</text>
<text text-anchor="middle" x="592.29" y="-294.8" font-family="Times,serif" font-size="14.00">/lte</text>
</g>
<!-- r4&#45;&gt;r5 -->
<g id="edge11" class="edge">
<title>r4:e&#45;&gt;r5:ne</title>
<path fill="none" stroke="black" d="M644.29,-324C652.31,-324 648.84,-311.79 643.29,-306 630.05,-292.16 337.98,-284.93 279.83,-272.4"/>
<polygon fill="black" stroke="black" points="280.89,-269.06 270.29,-269 278.54,-275.66 280.89,-269.06"/>
<text text-anchor="middle" x="289.79" y="-272.8" font-family="Times,serif" font-size="14.00">control</text>
<text text-anchor="middle" x="651.79" y="-327.8" font-family="Times,serif" font-size="14.00">/gt</text>
</g>
<!-- initializerr4_1 -->
<!-- initializerr4_1&#45;&gt;r4 -->
<g id="edge10" class="edge">
<title>initializerr4_1&#45;&gt;r4:ne</title>
<path fill="none" stroke="blue" d="M607.26,-392.94C610.68,-380.33 613.2,-363.18 607.04,-350.21"/>
<polygon fill="blue" stroke="blue" points="609.9,-348.18 601.29,-342 604.16,-352.2 609.9,-348.18"/>
<text text-anchor="middle" x="613.79" y="-363.8" font-family="Times,serif" font-size="14.00">1</text>
</g>
</g>
</svg>
