<?xml version="1.0" encoding="UTF-8" standalone="no"?>
<!DOCTYPE svg PUBLIC "-//W3C//DTD SVG 1.1//EN"
 "http://www.w3.org/Graphics/SVG/1.1/DTD/svg11.dtd">
<!-- Generated by graphviz version 2.44.1 (20200629.0846)
 -->
<!-- Title: arrays Pages: 1 -->
<svg width="739pt" height="515pt"
 viewBox="28.80 28.80 710.29 486.28" xmlns="http://www.w3.org/2000/svg" xmlns:xlink="http://www.w3.org/1999/xlink">
<g id="graph0" class="graph" transform="scale(1 1) rotate(0) translate(32.8 482.28)">
<title>arrays</title>
<polygon fill="white" stroke="transparent" points="-4,4 -4,-453.48 677.49,-453.48 677.49,4 -4,4"/>
<text text-anchor="middle" x="336.74" y="-434.28" font-family="Times,serif" font-size="14.00">arrays</text>
<!-- /arrays/sequence -->
<g id="node1" class="node">
<title>/arrays/sequence</title>
<g id="a_node1"><a xlink:href="lib://flowstdlib/math/sequence.dot.svg" xlink:title="sequence">
<ellipse fill="aquamarine" stroke="black" cx="72" cy="-354.48" rx="72" ry="72"/>
<text text-anchor="middle" x="72" y="-350.78" font-family="Times,serif" font-size="14.00">sequence</text>
</a>
</g>
</g>
<!-- /arrays/accumulator -->
<g id="node2" class="node">
<title>/arrays/accumulator</title>
<g id="a_node2"><a xlink:href="../../flowstdlib/data/accumulate/accumulate.html" xlink:title="accumulator\n(accumulate)">
<ellipse fill="coral" stroke="black" cx="285" cy="-204.61" rx="62.45" ry="26.74"/>
<text text-anchor="middle" x="285" y="-208.41" font-family="Times,serif" font-size="14.00">accumulator</text>
<text text-anchor="middle" x="285" y="-193.41" font-family="Times,serif" font-size="14.00">(accumulate)</text>
</a>
</g>
</g>
<!-- /arrays/sequence&#45;&gt;/arrays/accumulator -->
<g id="edge4" class="edge">
<title>/arrays/sequence:s&#45;&gt;/arrays/accumulator:w</title>
<path fill="none" stroke="black" d="M72,-282.48C72,-210.74 140.31,-205 211.89,-204.63"/>
<polygon fill="black" stroke="black" points="212.01,-208.13 222,-204.61 211.99,-201.13 212.01,-208.13"/>
<text text-anchor="middle" x="115.43" y="-213.45" font-family="Times,serif" font-size="14.00">sequence</text>
<text text-anchor="middle" x="204.5" y="-208.41" font-family="Times,serif" font-size="14.00">values</text>
</g>
<!-- /arrays/accumulator&#45;&gt;/arrays/accumulator -->
<g id="edge5" class="edge">
<title>/arrays/accumulator:s&#45;&gt;/arrays/accumulator:n</title>
<path fill="none" stroke="black" d="M285,-177.61C311.74,-164.61 365.23,-164.61 365.23,-204.61 365.23,-240.24 322.8,-244.13 294.63,-235.37"/>
<polygon fill="black" stroke="black" points="295.59,-231.99 285,-231.61 293.04,-238.51 295.59,-231.99"/>
<text text-anchor="middle" x="267.51" y="-166.41" font-family="Times,serif" font-size="14.00">partial</text>
<text text-anchor="middle" x="267.5" y="-235.41" font-family="Times,serif" font-size="14.00">partial</text>
</g>
<!-- /arrays/add -->
<g id="node5" class="node">
<title>/arrays/add</title>
<g id="a_node5"><a xlink:href="../../flowstdlib/math/add/add.html" xlink:title="add">
<ellipse fill="coral" stroke="black" cx="432" cy="-108.74" rx="27" ry="18"/>
<text text-anchor="middle" x="432" y="-105.04" font-family="Times,serif" font-size="14.00">add</text>
</a>
</g>
</g>
<!-- /arrays/accumulator&#45;&gt;/arrays/add -->
<g id="edge6" class="edge">
<title>/arrays/accumulator:se&#45;&gt;/arrays/add:ne</title>
<path fill="none" stroke="black" d="M310,-178.61C314.79,-173.82 409.57,-143.99 438.72,-130.59"/>
<polygon fill="black" stroke="black" points="440.85,-133.37 447,-124.74 436.81,-127.65 440.85,-133.37"/>
<text text-anchor="middle" x="362.13" y="-156.77" font-family="Times,serif" font-size="14.00">chunk</text>
<text text-anchor="middle" x="441.5" y="-128.54" font-family="Times,serif" font-size="14.00">i1</text>
</g>
<!-- initializer/arrays/accumulator_1 -->
<!-- initializer/arrays/accumulator_1&#45;&gt;/arrays/accumulator -->
<g id="edge1" class="edge">
<title>initializer/arrays/accumulator_1&#45;&gt;/arrays/accumulator:n</title>
<path fill="none" stroke="blue" stroke-dasharray="1,5" d="M285,-336.11C285,-314.57 285,-276.45 285,-241.66"/>
<polygon fill="blue" stroke="blue" points="288.5,-241.48 285,-231.48 281.5,-241.48 288.5,-241.48"/>
<text text-anchor="middle" x="290" y="-253.28" font-family="Times,serif" font-size="14.00">[]</text>
</g>
<!-- initializer/arrays/accumulator_2 -->
<!-- initializer/arrays/accumulator_2&#45;&gt;/arrays/accumulator -->
<g id="edge2" class="edge">
<title>initializer/arrays/accumulator_2&#45;&gt;/arrays/accumulator:n</title>
<path fill="none" stroke="blue" d="M521.45,-336.94C494.86,-321.84 453.89,-299.38 417,-282.48 391.54,-270.82 306.73,-264.42 288.48,-240.94"/>
<polygon fill="blue" stroke="blue" points="291.73,-239.66 285,-231.48 285.16,-242.07 291.73,-239.66"/>
<text text-anchor="middle" x="344.5" y="-253.28" font-family="Times,serif" font-size="14.00">4</text>
</g>
<!-- /arrays/print -->
<g id="node7" class="node">
<title>/arrays/print</title>
<g id="a_node7"><a xlink:href="../../flowr/src/lib/flowruntime/stdio/stdout.html" xlink:title="print\n(stdout)">
<ellipse fill="coral" stroke="black" cx="459" cy="-26.87" rx="41.94" ry="26.74"/>
<text text-anchor="middle" x="459" y="-30.67" font-family="Times,serif" font-size="14.00">print</text>
<text text-anchor="middle" x="459" y="-15.67" font-family="Times,serif" font-size="14.00">(stdout)</text>
</a>
</g>
</g>
<!-- /arrays/add&#45;&gt;/arrays/print -->
<g id="edge7" class="edge">
<title>/arrays/add:sw&#45;&gt;/arrays/print:w</title>
<path fill="none" stroke="black" d="M417,-92.74C399.21,-74.95 389.63,-39.09 405.88,-29.36"/>
<polygon fill="black" stroke="black" points="407.12,-32.65 416,-26.87 405.45,-25.86 407.12,-32.65"/>
<text text-anchor="middle" x="386.67" y="-61.79" font-family="Times,serif" font-size="14.00">sum</text>
</g>
<!-- initializer/arrays/add_1 -->
<!-- initializer/arrays/add_1&#45;&gt;/arrays/add -->
<g id="edge3" class="edge">
<title>initializer/arrays/add_1&#45;&gt;/arrays/add:w</title>
<path fill="none" stroke="blue" d="M454.97,-186.87C425.75,-162.82 378.18,-120.34 394.11,-110.72"/>
<polygon fill="blue" stroke="blue" points="394.88,-114.13 404,-108.74 393.51,-107.27 394.88,-114.13"/>
<text text-anchor="middle" x="427.5" y="-148.54" font-family="Times,serif" font-size="14.00">1</text>
</g>
</g>
</svg>
