<?xml version="1.0" encoding="UTF-8" standalone="no"?>
<!DOCTYPE svg PUBLIC "-//W3C//DTD SVG 1.1//EN"
 "http://www.w3.org/Graphics/SVG/1.1/DTD/svg11.dtd">
<!-- Generated by graphviz version 2.40.1 (20161225.0304)
 -->
<!-- Title: arrays Pages: 1 -->
<svg width="885pt" height="515pt"
 viewBox="28.80 28.80 856.69 486.28" xmlns="http://www.w3.org/2000/svg" xmlns:xlink="http://www.w3.org/1999/xlink">
<g id="graph0" class="graph" transform="scale(1 1) rotate(0) translate(32.8 482.2802)">
<title>arrays</title>
<polygon fill="#ffffff" stroke="transparent" points="-4,4 -4,-453.4802 823.8858,-453.4802 823.8858,4 -4,4"/>
<text text-anchor="middle" x="409.9429" y="-434.2802" font-family="Times,serif" font-size="14.00" fill="#000000">arrays</text>
<!-- /arrays/sequence -->
<g id="node1" class="node">
<title>/arrays/sequence</title>
<g id="a_node1"><a xlink:href="lib://flowstdlib/math/sequence.dot.svg" xlink:title="sequence">
<ellipse fill="#7fffd4" stroke="#000000" cx="72" cy="-354.4802" rx="72" ry="72"/>
<text text-anchor="middle" x="72" y="-350.7802" font-family="Times,serif" font-size="14.00" fill="#000000">sequence</text>
</a>
</g>
</g>
<!-- /arrays/accumulator -->
<g id="node2" class="node">
<title>/arrays/accumulator</title>
<g id="a_node2"><a xlink:href="../../flowstdlib/data/accumulate/accumulate.html" xlink:title="accumulator\n(accumulate)">
<ellipse fill="#ff7f50" stroke="#000000" cx="322" cy="-204.6102" rx="77.5641" ry="26.7407"/>
<text text-anchor="middle" x="322" y="-208.4102" font-family="Times,serif" font-size="14.00" fill="#000000">accumulator</text>
<text text-anchor="middle" x="322" y="-193.4102" font-family="Times,serif" font-size="14.00" fill="#000000">(accumulate)</text>
</a>
</g>
</g>
<!-- /arrays/sequence&#45;&gt;/arrays/accumulator -->
<g id="edge4" class="edge">
<title>/arrays/sequence:s&#45;&gt;/arrays/accumulator:w</title>
<path fill="none" stroke="#000000" d="M72,-282.4802C72,-243.4734 184.3987,-209.6903 233.9191,-205.1324"/>
<polygon fill="#000000" stroke="#000000" points="234.1945,-208.623 244,-204.6102 233.8323,-201.6323 234.1945,-208.623"/>
<text text-anchor="middle" x="117.2509" y="-228.3573" font-family="Times,serif" font-size="14.00" fill="#000000">sequence</text>
<text text-anchor="middle" x="221" y="-208.4102" font-family="Times,serif" font-size="14.00" fill="#000000">values</text>
</g>
<!-- /arrays/accumulator&#45;&gt;/arrays/accumulator -->
<g id="edge5" class="edge">
<title>/arrays/accumulator:s&#45;&gt;/arrays/accumulator:n</title>
<path fill="none" stroke="#000000" d="M322,-177.6102C353.9272,-164.6102 417.7817,-164.6102 417.7817,-204.6102 417.7817,-240.8602 365.3387,-244.2586 331.7424,-234.9014"/>
<polygon fill="#000000" stroke="#000000" points="332.5942,-231.4949 322,-231.6102 330.3538,-238.1267 332.5942,-231.4949"/>
<text text-anchor="middle" x="298.0117" y="-166.4054" font-family="Times,serif" font-size="14.00" fill="#000000">partial</text>
<text text-anchor="middle" x="298" y="-235.4102" font-family="Times,serif" font-size="14.00" fill="#000000">partial</text>
</g>
<!-- /arrays/add -->
<g id="node5" class="node">
<title>/arrays/add</title>
<g id="a_node5"><a xlink:href="../../flowstdlib/math/add/add.html" xlink:title="add">
<ellipse fill="#ff7f50" stroke="#000000" cx="500" cy="-108.7401" rx="27.8951" ry="18"/>
<text text-anchor="middle" x="500" y="-105.0401" font-family="Times,serif" font-size="14.00" fill="#000000">add</text>
</a>
</g>
</g>
<!-- /arrays/accumulator&#45;&gt;/arrays/add -->
<g id="edge6" class="edge">
<title>/arrays/accumulator:se&#45;&gt;/arrays/add:ne</title>
<path fill="none" stroke="#000000" d="M347,-179.6102C358.6699,-167.9403 478.6802,-147.1935 509.5897,-132.5453"/>
<polygon fill="#000000" stroke="#000000" points="512.358,-134.6893 516,-124.7401 506.9485,-130.2466 512.358,-134.6893"/>
<text text-anchor="middle" x="409.3916" y="-158.4024" font-family="Times,serif" font-size="14.00" fill="#000000">chunk</text>
<text text-anchor="middle" x="523" y="-128.5401" font-family="Times,serif" font-size="14.00" fill="#000000">i1</text>
</g>
<!-- initializer/arrays/accumulator_1 -->
<!-- initializer/arrays/accumulator_1&#45;&gt;/arrays/accumulator -->
<g id="edge1" class="edge">
<title>initializer/arrays/accumulator_1&#45;&gt;/arrays/accumulator:n</title>
<path fill="none" stroke="#0000ff" stroke-dasharray="1,5" d="M322,-336.1421C322,-314.2658 322,-276.2906 322,-241.6292"/>
<polygon fill="#0000ff" stroke="#0000ff" points="325.5001,-241.4802 322,-231.4802 318.5001,-241.4803 325.5001,-241.4802"/>
<text text-anchor="middle" x="327.5" y="-253.2802" font-family="Times,serif" font-size="14.00" fill="#000000">[]</text>
</g>
<!-- initializer/arrays/accumulator_2 -->
<!-- initializer/arrays/accumulator_2&#45;&gt;/arrays/accumulator -->
<g id="edge2" class="edge">
<title>initializer/arrays/accumulator_2&#45;&gt;/arrays/accumulator:n</title>
<path fill="none" stroke="#0000ff" d="M622.2181,-336.9722C588.2777,-321.585 536.8713,-299.1163 491,-282.4802 474.9379,-276.655 358.6211,-257.1627 328.9,-239.2694"/>
<polygon fill="#0000ff" stroke="#0000ff" points="331.2508,-236.6448 322,-231.4802 326.0111,-241.2865 331.2508,-236.6448"/>
<text text-anchor="middle" x="415" y="-253.2802" font-family="Times,serif" font-size="14.00" fill="#000000">4</text>
</g>
<!-- /arrays/print -->
<g id="node7" class="node">
<title>/arrays/print</title>
<g id="a_node7"><a xlink:href="../../flowr/src/lib/flowruntime/stdio/stdout.html" xlink:title="print\n(stdout)">
<ellipse fill="#ff7f50" stroke="#000000" cx="536" cy="-26.8701" rx="51.7379" ry="26.7407"/>
<text text-anchor="middle" x="536" y="-30.6701" font-family="Times,serif" font-size="14.00" fill="#000000">print</text>
<text text-anchor="middle" x="536" y="-15.6701" font-family="Times,serif" font-size="14.00" fill="#000000">(stdout)</text>
</a>
</g>
</g>
<!-- /arrays/add&#45;&gt;/arrays/print -->
<g id="edge7" class="edge">
<title>/arrays/add:sw&#45;&gt;/arrays/print:w</title>
<path fill="none" stroke="#000000" d="M484,-92.7401C466.2101,-74.9502 457.3758,-39.09 473.8233,-29.3561"/>
<polygon fill="#000000" stroke="#000000" points="475.1163,-32.6433 484,-26.8701 473.455,-25.8432 475.1163,-32.6433"/>
<text text-anchor="middle" x="450.5657" y="-61.7908" font-family="Times,serif" font-size="14.00" fill="#000000">sum</text>
</g>
<!-- initializer/arrays/add_1 -->
<!-- initializer/arrays/add_1&#45;&gt;/arrays/add -->
<g id="edge3" class="edge">
<title>initializer/arrays/add_1&#45;&gt;/arrays/add:w</title>
<path fill="none" stroke="#0000ff" d="M529.5249,-186.8024C496.9957,-162.3265 445.4046,-120.2274 461.7128,-110.6966"/>
<polygon fill="#0000ff" stroke="#0000ff" points="462.83,-114.0469 472,-108.7401 461.5221,-107.1702 462.83,-114.0469"/>
<text text-anchor="middle" x="501" y="-148.5401" font-family="Times,serif" font-size="14.00" fill="#000000">1</text>
</g>
</g>
</svg>
