<?xml version="1.0" encoding="UTF-8" standalone="no"?>
<!DOCTYPE svg PUBLIC "-//W3C//DTD SVG 1.1//EN"
 "http://www.w3.org/Graphics/SVG/1.1/DTD/svg11.dtd">
<!-- Generated by graphviz version 2.40.1 (0)
 -->
<!-- Title: arrays Pages: 1 -->
<svg width="880pt" height="533pt"
 viewBox="28.80 28.80 851.39 504.02" xmlns="http://www.w3.org/2000/svg" xmlns:xlink="http://www.w3.org/1999/xlink">
<g id="graph0" class="graph" transform="scale(1 1) rotate(0) translate(32.8 500.0203)">
<title>arrays</title>
<polygon fill="#ffffff" stroke="transparent" points="-4,4 -4,-471.2203 818.5859,-471.2203 818.5859,4 -4,4"/>
<text text-anchor="middle" x="407.293" y="-452.0203" font-family="Times,serif" font-size="14.00" fill="#000000">arrays</text>
<!-- /arrays/sequence -->
<g id="node1" class="node">
<title>/arrays/sequence</title>
<g id="a_node1"><a xlink:href="../../flowstdlib/math/sequence.dot.svg" xlink:title="sequence">
<ellipse fill="#7fffd4" stroke="#000000" cx="72" cy="-372.2203" rx="72" ry="72"/>
<text text-anchor="middle" x="72" y="-368.5203" font-family="Times,serif" font-size="14.00" fill="#000000">sequence</text>
</a>
</g>
</g>
<!-- /arrays/accumulator -->
<g id="node2" class="node">
<title>/arrays/accumulator</title>
<g id="a_node2"><a xlink:href="../../flowstdlib/data/accumulate/accumulate.toml" xlink:title="accumulator\n(Accumulate)">
<ellipse fill="#ff7f50" stroke="#000000" cx="321" cy="-222.3503" rx="77.5641" ry="26.7407"/>
<text text-anchor="middle" x="321" y="-226.1503" font-family="Times,serif" font-size="14.00" fill="#000000">accumulator</text>
<text text-anchor="middle" x="321" y="-211.1503" font-family="Times,serif" font-size="14.00" fill="#000000">(Accumulate)</text>
</a>
</g>
</g>
<!-- /arrays/sequence&#45;&gt;/arrays/accumulator -->
<g id="edge4" class="edge">
<title>/arrays/sequence:s&#45;&gt;/arrays/accumulator:w</title>
<path fill="none" stroke="#000000" d="M72,-300.2203C72,-261.4016 183.7093,-227.4569 232.9701,-222.8753"/>
<polygon fill="#000000" stroke="#000000" points="233.1967,-226.3684 243,-222.3503 232.8307,-219.3779 233.1967,-226.3684"/>
<text text-anchor="middle" x="117.2734" y="-246.1669" font-family="Times,serif" font-size="14.00" fill="#000000">sequence</text>
<text text-anchor="middle" x="220" y="-226.1503" font-family="Times,serif" font-size="14.00" fill="#000000">values</text>
</g>
<!-- /arrays/accumulator&#45;&gt;/arrays/accumulator -->
<g id="edge5" class="edge">
<title>/arrays/accumulator:s&#45;&gt;/arrays/accumulator:n</title>
<path fill="none" stroke="#000000" d="M321,-195.3503C352.9272,-182.3503 416.7817,-182.3503 416.7817,-222.3503 416.7817,-258.6003 364.3387,-261.9987 330.7424,-252.6415"/>
<polygon fill="#000000" stroke="#000000" points="331.5942,-249.235 321,-249.3503 329.3538,-255.8668 331.5942,-249.235"/>
<text text-anchor="middle" x="297.0117" y="-184.1455" font-family="Times,serif" font-size="14.00" fill="#000000">partial</text>
<text text-anchor="middle" x="297" y="-253.1503" font-family="Times,serif" font-size="14.00" fill="#000000">partial</text>
</g>
<!-- /arrays/add -->
<g id="node5" class="node">
<title>/arrays/add</title>
<g id="a_node5"><a xlink:href="../../flowstdlib/math/add/add.toml" xlink:title="add\n(Add)">
<ellipse fill="#ff7f50" stroke="#000000" cx="501" cy="-117.6102" rx="38.7821" ry="26.7407"/>
<text text-anchor="middle" x="501" y="-121.4102" font-family="Times,serif" font-size="14.00" fill="#000000">add</text>
<text text-anchor="middle" x="501" y="-106.4102" font-family="Times,serif" font-size="14.00" fill="#000000">(Add)</text>
</a>
</g>
</g>
<!-- /arrays/accumulator&#45;&gt;/arrays/add -->
<g id="edge6" class="edge">
<title>/arrays/accumulator:se&#45;&gt;/arrays/add:ne</title>
<path fill="none" stroke="#000000" d="M346,-197.3503C358.285,-185.0653 485.0972,-163.0064 516.7366,-147.5908"/>
<polygon fill="#000000" stroke="#000000" points="519.5794,-149.6376 523,-139.6102 514.0728,-145.3159 519.5794,-149.6376"/>
<text text-anchor="middle" x="413.5518" y="-174.8052" font-family="Times,serif" font-size="14.00" fill="#000000">chunk</text>
<text text-anchor="middle" x="516" y="-143.4102" font-family="Times,serif" font-size="14.00" fill="#000000">i1</text>
</g>
<!-- initializer/arrays/accumulator_1 -->
<!-- initializer/arrays/accumulator_1&#45;&gt;/arrays/accumulator -->
<g id="edge1" class="edge">
<title>initializer/arrays/accumulator_1&#45;&gt;/arrays/accumulator:n</title>
<path fill="none" stroke="#0000ff" stroke-dasharray="1,5" d="M321,-353.8822C321,-332.006 321,-294.0307 321,-259.3693"/>
<polygon fill="#0000ff" stroke="#0000ff" points="324.5001,-259.2203 321,-249.2203 317.5001,-259.2204 324.5001,-259.2203"/>
<text text-anchor="middle" x="326.5" y="-271.0203" font-family="Times,serif" font-size="14.00" fill="#000000">[]</text>
</g>
<!-- initializer/arrays/accumulator_2 -->
<!-- initializer/arrays/accumulator_2&#45;&gt;/arrays/accumulator -->
<g id="edge2" class="edge">
<title>initializer/arrays/accumulator_2&#45;&gt;/arrays/accumulator:n</title>
<path fill="none" stroke="#0000ff" d="M618.682,-354.6971C585.1543,-339.2999 534.363,-316.8251 489,-300.2203 473.0423,-294.3792 357.4068,-274.818 327.8597,-256.9775"/>
<polygon fill="#0000ff" stroke="#0000ff" points="330.2464,-254.3929 321,-249.2203 325.0025,-259.0301 330.2464,-254.3929"/>
<text text-anchor="middle" x="413" y="-271.0203" font-family="Times,serif" font-size="14.00" fill="#000000">4</text>
</g>
<!-- /arrays/print -->
<g id="node7" class="node">
<title>/arrays/print</title>
<g id="a_node7"><a xlink:href="../../flowruntime/stdio/stdout.toml" xlink:title="print\n(Stdout)">
<ellipse fill="#ff7f50" stroke="#000000" cx="532" cy="-26.8701" rx="53.066" ry="26.7407"/>
<text text-anchor="middle" x="532" y="-30.6701" font-family="Times,serif" font-size="14.00" fill="#000000">print</text>
<text text-anchor="middle" x="532" y="-15.6701" font-family="Times,serif" font-size="14.00" fill="#000000">(Stdout)</text>
</a>
</g>
</g>
<!-- /arrays/add&#45;&gt;/arrays/print -->
<g id="edge7" class="edge">
<title>/arrays/add:sw&#45;&gt;/arrays/print:w</title>
<path fill="none" stroke="#000000" d="M479,-95.6102C460.2662,-76.8764 451.0489,-38.9405 468.8546,-29.1942"/>
<polygon fill="#000000" stroke="#000000" points="470.0341,-32.5147 479,-26.8701 468.4709,-25.6915 470.0341,-32.5147"/>
<text text-anchor="middle" x="444.7179" y="-62.7937" font-family="Times,serif" font-size="14.00" fill="#000000">sum</text>
</g>
<!-- initializer/arrays/add_1 -->
<!-- initializer/arrays/add_1&#45;&gt;/arrays/add -->
<g id="edge3" class="edge">
<title>initializer/arrays/add_1&#45;&gt;/arrays/add:w</title>
<path fill="none" stroke="#0000ff" d="M528.2077,-204.5826C491.7187,-177.618 430.1036,-128.501 451.8668,-119.165"/>
<polygon fill="#0000ff" stroke="#0000ff" points="452.6465,-122.5864 462,-117.6102 451.5848,-115.6674 452.6465,-122.5864"/>
<text text-anchor="middle" x="497" y="-166.2802" font-family="Times,serif" font-size="14.00" fill="#000000">1</text>
</g>
</g>
</svg>
