<?xml version="1.0" encoding="UTF-8" standalone="no"?>
<!DOCTYPE svg PUBLIC "-//W3C//DTD SVG 1.1//EN"
 "http://www.w3.org/Graphics/SVG/1.1/DTD/svg11.dtd">
<!-- Generated by graphviz version 2.43.0 (0)
 -->
<!-- Title: arrays Pages: 1 -->
<svg width="880pt" height="515pt"
 viewBox="28.80 28.80 851.39 486.28" xmlns="http://www.w3.org/2000/svg" xmlns:xlink="http://www.w3.org/1999/xlink">
<g id="graph0" class="graph" transform="scale(1 1) rotate(0) translate(32.8 482.28)">
<title>arrays</title>
<polygon fill="white" stroke="transparent" points="-4,4 -4,-453.48 818.59,-453.48 818.59,4 -4,4"/>
<text text-anchor="middle" x="407.29" y="-434.28" font-family="Times,serif" font-size="14.00">arrays</text>
<!-- /arrays/sequence -->
<g id="node1" class="node">
<title>/arrays/sequence</title>
<g id="a_node1"><a xlink:href="lib://flowstdlib/math/sequence.dot.svg" xlink:title="sequence">
<ellipse fill="aquamarine" stroke="black" cx="72" cy="-354.48" rx="72" ry="72"/>
<text text-anchor="middle" x="72" y="-350.78" font-family="Times,serif" font-size="14.00">sequence</text>
</a>
</g>
</g>
<!-- /arrays/accumulator -->
<g id="node2" class="node">
<title>/arrays/accumulator</title>
<g id="a_node2"><a xlink:href="../../flowstdlib/data/accumulate/accumulate.html" xlink:title="accumulator\n(accumulate)">
<ellipse fill="coral" stroke="black" cx="321" cy="-204.61" rx="77.15" ry="26.74"/>
<text text-anchor="middle" x="321" y="-208.41" font-family="Times,serif" font-size="14.00">accumulator</text>
<text text-anchor="middle" x="321" y="-193.41" font-family="Times,serif" font-size="14.00">(accumulate)</text>
</a>
</g>
</g>
<!-- /arrays/sequence&#45;&gt;/arrays/accumulator -->
<g id="edge4" class="edge">
<title>/arrays/sequence:s&#45;&gt;/arrays/accumulator:w</title>
<path fill="none" stroke="black" d="M72,-282.48C72,-243.66 183.71,-209.72 232.97,-205.14"/>
<polygon fill="black" stroke="black" points="233.2,-208.63 243,-204.61 232.83,-201.64 233.2,-208.63"/>
<text text-anchor="middle" x="117.27" y="-228.43" font-family="Times,serif" font-size="14.00">sequence</text>
<text text-anchor="middle" x="220" y="-208.41" font-family="Times,serif" font-size="14.00">values</text>
</g>
<!-- /arrays/accumulator&#45;&gt;/arrays/accumulator -->
<g id="edge5" class="edge">
<title>/arrays/accumulator:s&#45;&gt;/arrays/accumulator:n</title>
<path fill="none" stroke="black" d="M321,-177.61C352.69,-164.61 416.07,-164.61 416.07,-204.61 416.07,-240.86 364.02,-244.26 330.67,-234.9"/>
<polygon fill="black" stroke="black" points="331.59,-231.52 321,-231.61 329.34,-238.15 331.59,-231.52"/>
<text text-anchor="middle" x="297.01" y="-166.41" font-family="Times,serif" font-size="14.00">partial</text>
<text text-anchor="middle" x="297" y="-235.41" font-family="Times,serif" font-size="14.00">partial</text>
</g>
<!-- /arrays/add -->
<g id="node5" class="node">
<title>/arrays/add</title>
<g id="a_node5"><a xlink:href="../../flowstdlib/math/add/add.html" xlink:title="add">
<ellipse fill="coral" stroke="black" cx="498" cy="-108.74" rx="27.9" ry="18"/>
<text text-anchor="middle" x="498" y="-105.04" font-family="Times,serif" font-size="14.00">add</text>
</a>
</g>
</g>
<!-- /arrays/accumulator&#45;&gt;/arrays/add -->
<g id="edge6" class="edge">
<title>/arrays/accumulator:se&#45;&gt;/arrays/add:ne</title>
<path fill="none" stroke="black" d="M346,-178.61C357.51,-167.1 475.75,-147.72 507.17,-133.57"/>
<polygon fill="black" stroke="black" points="510.06,-135.58 514,-125.74 504.79,-130.98 510.06,-135.58"/>
<text text-anchor="middle" x="409.14" y="-158.23" font-family="Times,serif" font-size="14.00">chunk</text>
<text text-anchor="middle" x="521" y="-129.54" font-family="Times,serif" font-size="14.00">i1</text>
</g>
<!-- initializer/arrays/accumulator_1 -->
<!-- initializer/arrays/accumulator_1&#45;&gt;/arrays/accumulator -->
<g id="edge1" class="edge">
<title>initializer/arrays/accumulator_1&#45;&gt;/arrays/accumulator:n</title>
<path fill="none" stroke="blue" stroke-dasharray="1,5" d="M321,-336.11C321,-314.57 321,-276.45 321,-241.66"/>
<polygon fill="blue" stroke="blue" points="324.5,-241.48 321,-231.48 317.5,-241.48 324.5,-241.48"/>
<text text-anchor="middle" x="326.5" y="-253.28" font-family="Times,serif" font-size="14.00">[]</text>
</g>
<!-- initializer/arrays/accumulator_2 -->
<!-- initializer/arrays/accumulator_2&#45;&gt;/arrays/accumulator -->
<g id="edge2" class="edge">
<title>initializer/arrays/accumulator_2&#45;&gt;/arrays/accumulator:n</title>
<path fill="none" stroke="blue" d="M619.96,-336.83C586.44,-321.66 534.9,-299.15 489,-282.48 473.03,-276.68 357.4,-257.09 327.86,-239.24"/>
<polygon fill="blue" stroke="blue" points="330.25,-236.65 321,-231.48 325,-241.29 330.25,-236.65"/>
<text text-anchor="middle" x="413" y="-253.28" font-family="Times,serif" font-size="14.00">4</text>
</g>
<!-- /arrays/print -->
<g id="node7" class="node">
<title>/arrays/print</title>
<g id="a_node7"><a xlink:href="../../flowr/src/lib/flowruntime/stdio/stdout.html" xlink:title="print\n(stdout)">
<ellipse fill="coral" stroke="black" cx="578" cy="-26.87" rx="51.74" ry="26.74"/>
<text text-anchor="middle" x="578" y="-30.67" font-family="Times,serif" font-size="14.00">print</text>
<text text-anchor="middle" x="578" y="-15.67" font-family="Times,serif" font-size="14.00">(stdout)</text>
</a>
</g>
</g>
<!-- /arrays/add&#45;&gt;/arrays/print -->
<g id="edge7" class="edge">
<title>/arrays/add:e&#45;&gt;/arrays/print:w</title>
<path fill="none" stroke="black" d="M527,-108.74C558.28,-108.74 507.44,-48.28 515.62,-31.27"/>
<polygon fill="black" stroke="black" points="517.43,-34.29 525,-26.87 514.46,-27.95 517.43,-34.29"/>
</g>
<!-- initializer/arrays/add_1 -->
<!-- initializer/arrays/add_1&#45;&gt;/arrays/add -->
<g id="edge3" class="edge">
<title>initializer/arrays/add_1&#45;&gt;/arrays/add:w</title>
<path fill="none" stroke="blue" d="M528.54,-186.87C495.61,-162.61 441.56,-119.59 459.12,-110.47"/>
<polygon fill="blue" stroke="blue" points="459.75,-113.91 469,-108.74 458.55,-107.02 459.75,-113.91"/>
<text text-anchor="middle" x="498" y="-148.54" font-family="Times,serif" font-size="14.00">1</text>
</g>
</g>
</svg>
