<?xml version="1.0" encoding="UTF-8" standalone="no"?>
<!DOCTYPE svg PUBLIC "-//W3C//DTD SVG 1.1//EN"
 "http://www.w3.org/Graphics/SVG/1.1/DTD/svg11.dtd">
<!-- Generated by graphviz version 2.42.4 (0)
 -->
<!-- Title: arrays Pages: 1 -->
<svg width="880pt" height="533pt"
 viewBox="28.80 28.80 851.39 504.02" xmlns="http://www.w3.org/2000/svg" xmlns:xlink="http://www.w3.org/1999/xlink">
<g id="graph0" class="graph" transform="scale(1 1) rotate(0) translate(32.8 500.02)">
<title>arrays</title>
<polygon fill="white" stroke="transparent" points="-4,4 -4,-471.22 818.59,-471.22 818.59,4 -4,4"/>
<text text-anchor="middle" x="407.29" y="-452.02" font-family="Times,serif" font-size="14.00">arrays</text>
<!-- /arrays/sequence -->
<g id="node1" class="node">
<title>/arrays/sequence</title>
<g id="a_node1"><a xlink:href="../../flowstdlib/math/sequence.dot.svg" xlink:title="sequence">
<ellipse fill="aquamarine" stroke="black" cx="72" cy="-372.22" rx="72" ry="72"/>
<text text-anchor="middle" x="72" y="-368.52" font-family="Times,serif" font-size="14.00">sequence</text>
</a>
</g>
</g>
<!-- /arrays/accumulator -->
<g id="node2" class="node">
<title>/arrays/accumulator</title>
<g id="a_node2"><a xlink:href="../../flowstdlib/data/accumulate/accumulate.html" xlink:title="accumulator\n(Accumulate)">
<ellipse fill="coral" stroke="black" cx="321" cy="-222.35" rx="77.56" ry="26.74"/>
<text text-anchor="middle" x="321" y="-226.15" font-family="Times,serif" font-size="14.00">accumulator</text>
<text text-anchor="middle" x="321" y="-211.15" font-family="Times,serif" font-size="14.00">(Accumulate)</text>
</a>
</g>
</g>
<!-- /arrays/sequence&#45;&gt;/arrays/accumulator -->
<g id="edge4" class="edge">
<title>/arrays/sequence:s&#45;&gt;/arrays/accumulator:w</title>
<path fill="none" stroke="black" d="M72,-300.22C72,-261.67 182.55,-227.63 231.71,-222.91"/>
<polygon fill="black" stroke="black" points="232.2,-226.39 242,-222.35 231.83,-219.4 232.2,-226.39"/>
<text text-anchor="middle" x="116.95" y="-246.18" font-family="Times,serif" font-size="14.00">sequence</text>
<text text-anchor="middle" x="219" y="-226.15" font-family="Times,serif" font-size="14.00">values</text>
</g>
<!-- /arrays/accumulator&#45;&gt;/arrays/accumulator -->
<g id="edge5" class="edge">
<title>/arrays/accumulator:s&#45;&gt;/arrays/accumulator:n</title>
<path fill="none" stroke="black" d="M321,-195.35C352.93,-182.35 416.78,-182.35 416.78,-222.35 416.78,-258.6 364.34,-262 330.74,-252.64"/>
<polygon fill="black" stroke="black" points="331.59,-249.23 321,-249.35 329.35,-255.87 331.59,-249.23"/>
<text text-anchor="middle" x="297.01" y="-184.15" font-family="Times,serif" font-size="14.00">partial</text>
<text text-anchor="middle" x="297" y="-253.15" font-family="Times,serif" font-size="14.00">partial</text>
</g>
<!-- /arrays/add -->
<g id="node5" class="node">
<title>/arrays/add</title>
<g id="a_node5"><a xlink:href="../../flowstdlib/math/add/add.html" xlink:title="add\n(Add)">
<ellipse fill="coral" stroke="black" cx="501" cy="-117.61" rx="38.78" ry="26.74"/>
<text text-anchor="middle" x="501" y="-121.41" font-family="Times,serif" font-size="14.00">add</text>
<text text-anchor="middle" x="501" y="-106.41" font-family="Times,serif" font-size="14.00">(Add)</text>
</a>
</g>
</g>
<!-- /arrays/accumulator&#45;&gt;/arrays/add -->
<g id="edge6" class="edge">
<title>/arrays/accumulator:se&#45;&gt;/arrays/add:ne</title>
<path fill="none" stroke="black" d="M346,-196.35C358.24,-184.11 485.05,-163.4 516.72,-148.44"/>
<polygon fill="black" stroke="black" points="519.47,-150.6 523,-140.61 514.01,-146.22 519.47,-150.6"/>
<text text-anchor="middle" x="413.52" y="-174.69" font-family="Times,serif" font-size="14.00">chunk</text>
<text text-anchor="middle" x="516" y="-144.41" font-family="Times,serif" font-size="14.00">i1</text>
</g>
<!-- initializer/arrays/accumulator_1 -->
<!-- initializer/arrays/accumulator_1&#45;&gt;/arrays/accumulator -->
<g id="edge1" class="edge">
<title>initializer/arrays/accumulator_1&#45;&gt;/arrays/accumulator:n</title>
<path fill="none" stroke="blue" stroke-dasharray="1,5" d="M321,-353.85C321,-332.31 321,-294.19 321,-259.4"/>
<polygon fill="blue" stroke="blue" points="324.5,-259.22 321,-249.22 317.5,-259.22 324.5,-259.22"/>
<text text-anchor="middle" x="326.5" y="-271.02" font-family="Times,serif" font-size="14.00">[]</text>
</g>
<!-- initializer/arrays/accumulator_2 -->
<!-- initializer/arrays/accumulator_2&#45;&gt;/arrays/accumulator -->
<g id="edge2" class="edge">
<title>initializer/arrays/accumulator_2&#45;&gt;/arrays/accumulator:n</title>
<path fill="none" stroke="blue" d="M619.96,-354.57C586.44,-339.4 534.9,-316.89 489,-300.22 473.03,-294.42 357.4,-274.83 327.86,-256.98"/>
<polygon fill="blue" stroke="blue" points="330.25,-254.39 321,-249.22 325,-259.03 330.25,-254.39"/>
<text text-anchor="middle" x="413" y="-271.02" font-family="Times,serif" font-size="14.00">4</text>
</g>
<!-- /arrays/print -->
<g id="node7" class="node">
<title>/arrays/print</title>
<g id="a_node7"><a xlink:href="../../flowruntime/stdio/stdout.html" xlink:title="print\n(Stdout)">
<ellipse fill="coral" stroke="black" cx="532" cy="-26.87" rx="53.07" ry="26.74"/>
<text text-anchor="middle" x="532" y="-30.67" font-family="Times,serif" font-size="14.00">print</text>
<text text-anchor="middle" x="532" y="-15.67" font-family="Times,serif" font-size="14.00">(Stdout)</text>
</a>
</g>
</g>
<!-- /arrays/add&#45;&gt;/arrays/print -->
<g id="edge7" class="edge">
<title>/arrays/add:sw&#45;&gt;/arrays/print:w</title>
<path fill="none" stroke="black" d="M479,-94.61C460.54,-76.15 450.7,-38.76 468.05,-29.16"/>
<polygon fill="black" stroke="black" points="469.04,-32.52 478,-26.87 467.47,-25.7 469.04,-32.52"/>
<text text-anchor="middle" x="444.59" y="-62.33" font-family="Times,serif" font-size="14.00">sum</text>
</g>
<!-- initializer/arrays/add_1 -->
<!-- initializer/arrays/add_1&#45;&gt;/arrays/add -->
<g id="edge3" class="edge">
<title>initializer/arrays/add_1&#45;&gt;/arrays/add:w</title>
<path fill="none" stroke="blue" d="M529.33,-204.68C492.66,-178.11 428.57,-128.19 451.1,-119.06"/>
<polygon fill="blue" stroke="blue" points="451.61,-122.52 461,-117.61 450.6,-115.6 451.61,-122.52"/>
<text text-anchor="middle" x="497" y="-166.28" font-family="Times,serif" font-size="14.00">1</text>
</g>
</g>
</svg>
