<?xml version="1.0" encoding="UTF-8" standalone="no"?>
<!DOCTYPE svg PUBLIC "-//W3C//DTD SVG 1.1//EN"
 "http://www.w3.org/Graphics/SVG/1.1/DTD/svg11.dtd">
<!-- Generated by graphviz version 2.44.0 (20200408.0750)
 -->
<!-- Title: arrays Pages: 1 -->
<svg width="739pt" height="533pt"
 viewBox="28.80 28.80 710.29 504.02" xmlns="http://www.w3.org/2000/svg" xmlns:xlink="http://www.w3.org/1999/xlink">
<g id="graph0" class="graph" transform="scale(1 1) rotate(0) translate(32.8 500.02)">
<title>arrays</title>
<polygon fill="white" stroke="transparent" points="-4,4 -4,-471.22 677.49,-471.22 677.49,4 -4,4"/>
<text text-anchor="middle" x="336.74" y="-452.02" font-family="Times,serif" font-size="14.00">arrays</text>
<!-- /arrays/sequence -->
<g id="node1" class="node">
<title>/arrays/sequence</title>
<g id="a_node1"><a xlink:href="../../flowstdlib/math/sequence.dot.svg" xlink:title="sequence">
<ellipse fill="aquamarine" stroke="black" cx="72" cy="-372.22" rx="72" ry="72"/>
<text text-anchor="middle" x="72" y="-368.52" font-family="Times,serif" font-size="14.00">sequence</text>
</a>
</g>
</g>
<!-- /arrays/accumulator -->
<g id="node2" class="node">
<title>/arrays/accumulator</title>
<g id="a_node2"><a xlink:href="../../flowstdlib/data/accumulate/accumulate.html" xlink:title="accumulator\n(Accumulate)">
<ellipse fill="coral" stroke="black" cx="285" cy="-222.35" rx="65.11" ry="26.74"/>
<text text-anchor="middle" x="285" y="-226.15" font-family="Times,serif" font-size="14.00">accumulator</text>
<text text-anchor="middle" x="285" y="-211.15" font-family="Times,serif" font-size="14.00">(Accumulate)</text>
</a>
</g>
</g>
<!-- /arrays/sequence&#45;&gt;/arrays/accumulator -->
<g id="edge4" class="edge">
<title>/arrays/sequence:s&#45;&gt;/arrays/accumulator:w</title>
<path fill="none" stroke="black" d="M72,-300.22C72,-229.75 138.38,-222.87 208.62,-222.38"/>
<polygon fill="black" stroke="black" points="209.01,-225.88 219,-222.35 208.99,-218.88 209.01,-225.88"/>
<text text-anchor="middle" x="113.68" y="-231.55" font-family="Times,serif" font-size="14.00">sequence</text>
<text text-anchor="middle" x="201.5" y="-226.15" font-family="Times,serif" font-size="14.00">values</text>
</g>
<!-- /arrays/accumulator&#45;&gt;/arrays/accumulator -->
<g id="edge5" class="edge">
<title>/arrays/accumulator:s&#45;&gt;/arrays/accumulator:n</title>
<path fill="none" stroke="black" d="M285,-195.35C312.68,-182.35 368.05,-182.35 368.05,-222.35 368.05,-258.13 323.75,-261.91 294.59,-253"/>
<polygon fill="black" stroke="black" points="295.59,-249.64 285,-249.35 293.1,-256.18 295.59,-249.64"/>
<text text-anchor="middle" x="267.51" y="-184.15" font-family="Times,serif" font-size="14.00">partial</text>
<text text-anchor="middle" x="267.5" y="-253.15" font-family="Times,serif" font-size="14.00">partial</text>
</g>
<!-- /arrays/add -->
<g id="node5" class="node">
<title>/arrays/add</title>
<g id="a_node5"><a xlink:href="../../flowstdlib/math/add/add.html" xlink:title="add\n(Add)">
<ellipse fill="coral" stroke="black" cx="435" cy="-117.61" rx="34.8" ry="26.74"/>
<text text-anchor="middle" x="435" y="-121.41" font-family="Times,serif" font-size="14.00">add</text>
<text text-anchor="middle" x="435" y="-106.41" font-family="Times,serif" font-size="14.00">(Add)</text>
</a>
</g>
</g>
<!-- /arrays/accumulator&#45;&gt;/arrays/add -->
<g id="edge6" class="edge">
<title>/arrays/accumulator:se&#45;&gt;/arrays/add:ne</title>
<path fill="none" stroke="black" d="M310,-196.35C315.12,-191.23 417.05,-159.61 447.61,-145.59"/>
<polygon fill="black" stroke="black" points="449.88,-148.26 456,-139.61 445.82,-142.56 449.88,-148.26"/>
<text text-anchor="middle" x="366.45" y="-173.22" font-family="Times,serif" font-size="14.00">chunk</text>
<text text-anchor="middle" x="450.5" y="-143.41" font-family="Times,serif" font-size="14.00">i1</text>
</g>
<!-- initializer/arrays/accumulator_1 -->
<!-- initializer/arrays/accumulator_1&#45;&gt;/arrays/accumulator -->
<g id="edge1" class="edge">
<title>initializer/arrays/accumulator_1&#45;&gt;/arrays/accumulator:n</title>
<path fill="none" stroke="blue" stroke-dasharray="1,5" d="M285,-353.85C285,-332.31 285,-294.19 285,-259.4"/>
<polygon fill="blue" stroke="blue" points="288.5,-259.22 285,-249.22 281.5,-259.22 288.5,-259.22"/>
<text text-anchor="middle" x="290" y="-271.02" font-family="Times,serif" font-size="14.00">[]</text>
</g>
<!-- initializer/arrays/accumulator_2 -->
<!-- initializer/arrays/accumulator_2&#45;&gt;/arrays/accumulator -->
<g id="edge2" class="edge">
<title>initializer/arrays/accumulator_2&#45;&gt;/arrays/accumulator:n</title>
<path fill="none" stroke="blue" d="M521.45,-354.68C494.86,-339.58 453.89,-317.12 417,-300.22 391.54,-288.56 306.73,-282.16 288.48,-258.68"/>
<polygon fill="blue" stroke="blue" points="291.73,-257.4 285,-249.22 285.16,-259.81 291.73,-257.4"/>
<text text-anchor="middle" x="344.5" y="-271.02" font-family="Times,serif" font-size="14.00">4</text>
</g>
<!-- /arrays/print -->
<g id="node7" class="node">
<title>/arrays/print</title>
<g id="a_node7"><a xlink:href="../../flowruntime/stdio/stdout.html" xlink:title="print\n(Stdout)">
<ellipse fill="coral" stroke="black" cx="458" cy="-26.87" rx="43.27" ry="26.74"/>
<text text-anchor="middle" x="458" y="-30.67" font-family="Times,serif" font-size="14.00">print</text>
<text text-anchor="middle" x="458" y="-15.67" font-family="Times,serif" font-size="14.00">(Stdout)</text>
</a>
</g>
</g>
<!-- /arrays/add&#45;&gt;/arrays/print -->
<g id="edge7" class="edge">
<title>/arrays/add:sw&#45;&gt;/arrays/print:w</title>
<path fill="none" stroke="black" d="M414,-95.61C395.26,-76.87 385.29,-38.94 402.9,-29.19"/>
<polygon fill="black" stroke="black" points="404.04,-32.52 413,-26.87 402.47,-25.7 404.04,-32.52"/>
<text text-anchor="middle" x="382.81" y="-62.79" font-family="Times,serif" font-size="14.00">sum</text>
</g>
<!-- initializer/arrays/add_1 -->
<!-- initializer/arrays/add_1&#45;&gt;/arrays/add -->
<g id="edge3" class="edge">
<title>initializer/arrays/add_1&#45;&gt;/arrays/add:w</title>
<path fill="none" stroke="blue" d="M456.94,-204.68C424.67,-178.34 368.71,-129.05 389.04,-119.31"/>
<polygon fill="blue" stroke="blue" points="389.73,-122.74 399,-117.61 388.55,-115.84 389.73,-122.74"/>
<text text-anchor="middle" x="427.5" y="-166.28" font-family="Times,serif" font-size="14.00">1</text>
</g>
</g>
</svg>
