<?xml version="1.0" encoding="UTF-8" standalone="no"?>
<!DOCTYPE svg PUBLIC "-//W3C//DTD SVG 1.1//EN"
 "http://www.w3.org/Graphics/SVG/1.1/DTD/svg11.dtd">
<!-- Generated by graphviz version 2.42.3 (20191010.1750)
 -->
<!-- Title: arrays Pages: 1 -->
<svg width="738pt" height="521pt"
 viewBox="28.80 28.80 708.86 492.54" xmlns="http://www.w3.org/2000/svg" xmlns:xlink="http://www.w3.org/1999/xlink">
<g id="graph0" class="graph" transform="scale(1 1) rotate(0) translate(32.8 488.54)">
<title>arrays</title>
<polygon fill="white" stroke="transparent" points="-4,4 -4,-459.74 676.06,-459.74 676.06,4 -4,4"/>
<text text-anchor="middle" x="336.03" y="-440.54" font-family="Times,serif" font-size="14.00">arrays</text>
<!-- /arrays/sequence -->
<g id="node1" class="node">
<title>/arrays/sequence</title>
<g id="a_node1"><a xlink:href="../../flowstdlib/math/sequence.dot.svg" xlink:title="sequence">
<ellipse fill="aquamarine" stroke="black" cx="72" cy="-361.74" rx="72" ry="72"/>
<text text-anchor="middle" x="72" y="-357.54" font-family="Times,serif" font-size="14.00">sequence</text>
</a>
</g>
</g>
<!-- /arrays/accumulator -->
<g id="node2" class="node">
<title>/arrays/accumulator</title>
<g id="a_node2"><a xlink:href="../../flowstdlib/data/accumulate/accumulate.toml" xlink:title="accumulator\n(Accumulate)">
<ellipse fill="coral" stroke="black" cx="285" cy="-214.28" rx="65.96" ry="25.41"/>
<text text-anchor="middle" x="285" y="-217.08" font-family="Times,serif" font-size="14.00">accumulator</text>
<text text-anchor="middle" x="285" y="-203.08" font-family="Times,serif" font-size="14.00">(Accumulate)</text>
</a>
</g>
</g>
<!-- /arrays/sequence&#45;&gt;/arrays/accumulator -->
<g id="edge4" class="edge">
<title>/arrays/sequence:s&#45;&gt;/arrays/accumulator:w</title>
<path fill="none" stroke="black" d="M72,-289.74C72,-220.12 138.28,-214.66 207.74,-214.3"/>
<polygon fill="black" stroke="black" points="208.01,-217.8 218,-214.28 207.99,-210.8 208.01,-217.8"/>
<text text-anchor="middle" x="113.45" y="-221.81" font-family="Times,serif" font-size="14.00">sequence</text>
<text text-anchor="middle" x="200.12" y="-217.08" font-family="Times,serif" font-size="14.00">values</text>
</g>
<!-- /arrays/accumulator&#45;&gt;/arrays/accumulator -->
<g id="edge5" class="edge">
<title>/arrays/accumulator:s&#45;&gt;/arrays/accumulator:n</title>
<path fill="none" stroke="black" d="M285,-188.28C312.91,-175.78 368.73,-175.78 368.73,-214.28 368.73,-248.72 324.06,-252.35 294.66,-243.79"/>
<polygon fill="black" stroke="black" points="295.59,-240.4 285,-240.28 293.21,-246.98 295.59,-240.4"/>
<text text-anchor="middle" x="267.14" y="-177.07" font-family="Times,serif" font-size="14.00">partial</text>
<text text-anchor="middle" x="267.12" y="-243.08" font-family="Times,serif" font-size="14.00">partial</text>
</g>
<!-- /arrays/add -->
<g id="node5" class="node">
<title>/arrays/add</title>
<g id="a_node5"><a xlink:href="../../flowstdlib/math/add/add.toml" xlink:title="add\n(Add)">
<ellipse fill="coral" stroke="black" cx="435" cy="-113.37" rx="34.91" ry="25.41"/>
<text text-anchor="middle" x="435" y="-116.17" font-family="Times,serif" font-size="14.00">add</text>
<text text-anchor="middle" x="435" y="-102.17" font-family="Times,serif" font-size="14.00">(Add)</text>
</a>
</g>
</g>
<!-- /arrays/accumulator&#45;&gt;/arrays/add -->
<g id="edge6" class="edge">
<title>/arrays/accumulator:se&#45;&gt;/arrays/add:ne</title>
<path fill="none" stroke="black" d="M309,-189.28C314.12,-184.16 416.74,-154.5 447.53,-141.13"/>
<polygon fill="black" stroke="black" points="449.7,-143.89 456,-135.37 445.76,-138.1 449.7,-143.89"/>
<text text-anchor="middle" x="365.82" y="-166.48" font-family="Times,serif" font-size="14.00">chunk</text>
<text text-anchor="middle" x="450.56" y="-138.17" font-family="Times,serif" font-size="14.00">i1</text>
</g>
<!-- initializer/arrays/accumulator_1 -->
<!-- initializer/arrays/accumulator_1&#45;&gt;/arrays/accumulator -->
<g id="edge1" class="edge">
<title>initializer/arrays/accumulator_1&#45;&gt;/arrays/accumulator:n</title>
<path fill="none" stroke="blue" stroke-dasharray="1,5" d="M285,-343.5C285,-322.14 285,-284.33 285,-249.84"/>
<polygon fill="blue" stroke="blue" points="288.5,-249.74 285,-239.74 281.5,-249.74 288.5,-249.74"/>
<text text-anchor="middle" x="289.66" y="-260.54" font-family="Times,serif" font-size="14.00">[]</text>
</g>
<!-- initializer/arrays/accumulator_2 -->
<!-- initializer/arrays/accumulator_2&#45;&gt;/arrays/accumulator -->
<g id="edge2" class="edge">
<title>initializer/arrays/accumulator_2&#45;&gt;/arrays/accumulator:n</title>
<path fill="none" stroke="blue" d="M520.71,-344.11C494.35,-328.97 453.7,-306.47 417,-289.74 391.58,-278.15 306.74,-272.42 288.48,-249.15"/>
<polygon fill="blue" stroke="blue" points="291.75,-247.9 285,-239.74 285.18,-250.33 291.75,-247.9"/>
<text text-anchor="middle" x="344.5" y="-260.54" font-family="Times,serif" font-size="14.00">4</text>
</g>
<!-- /arrays/print -->
<g id="node7" class="node">
<title>/arrays/print</title>
<g id="a_node7"><a xlink:href="../../flowruntime/stdio/stdout.toml" xlink:title="print\n(Stdout)">
<ellipse fill="coral" stroke="black" cx="458" cy="-25.46" rx="43.53" ry="25.41"/>
<text text-anchor="middle" x="458" y="-28.26" font-family="Times,serif" font-size="14.00">print</text>
<text text-anchor="middle" x="458" y="-14.26" font-family="Times,serif" font-size="14.00">(Stdout)</text>
</a>
</g>
</g>
<!-- /arrays/add&#45;&gt;/arrays/print -->
<g id="edge7" class="edge">
<title>/arrays/add:sw&#45;&gt;/arrays/print:w</title>
<path fill="none" stroke="black" d="M414,-91.37C396.2,-73.56 386.62,-37.68 402.87,-27.94"/>
<polygon fill="black" stroke="black" points="404.12,-31.24 413,-25.46 402.45,-24.44 404.12,-31.24"/>
<text text-anchor="middle" x="383.99" y="-59.4" font-family="Times,serif" font-size="14.00">sum</text>
</g>
<!-- initializer/arrays/add_1 -->
<!-- initializer/arrays/add_1&#45;&gt;/arrays/add -->
<g id="edge3" class="edge">
<title>initializer/arrays/add_1&#45;&gt;/arrays/add:w</title>
<path fill="none" stroke="blue" d="M457.37,-196.78C425.24,-171.51 370.55,-125.09 388.8,-115.24"/>
<polygon fill="blue" stroke="blue" points="389.79,-118.61 399,-113.37 388.53,-111.73 389.79,-118.61"/>
<text text-anchor="middle" x="428.5" y="-159.62" font-family="Times,serif" font-size="14.00">1</text>
</g>
</g>
</svg>
