<?xml version="1.0" encoding="UTF-8" standalone="no"?>
<!DOCTYPE svg PUBLIC "-//W3C//DTD SVG 1.1//EN"
 "http://www.w3.org/Graphics/SVG/1.1/DTD/svg11.dtd">
<!-- Generated by graphviz version 2.42.4 (0)
 -->
<!-- Title: arrays Pages: 1 -->
<svg width="842pt" height="440pt"
 viewBox="0.00 0.00 841.79 440.00" xmlns="http://www.w3.org/2000/svg" xmlns:xlink="http://www.w3.org/1999/xlink">
<g id="graph0" class="graph" transform="scale(1 1) rotate(0) translate(4 436)">
<title>arrays</title>
<polygon fill="white" stroke="transparent" points="-4,4 -4,-436 837.79,-436 837.79,4 -4,4"/>
<text text-anchor="middle" x="416.89" y="-416.8" font-family="Times,serif" font-size="14.00">/arrays</text>
<g id="clust1" class="cluster">
<title>cluster_sequence</title>
<polygon fill="none" stroke="black" points="215.39,-152 215.39,-401 625.39,-401 625.39,-152 215.39,-152"/>
<text text-anchor="middle" x="420.39" y="-385.8" font-family="Times,serif" font-size="14.00">/arrays/sequence</text>
</g>
<!-- r0 -->
<g id="node1" class="node">
<title>r0</title>
<g id="a_node1"><a xlink:href="file:///home/andrew/workspace/flow/flowstdlib/control/compare_switch/compare_switch.html" xlink:title="compare (#0)">
<ellipse fill="coral" stroke="black" cx="519.39" cy="-265" rx="74.19" ry="18"/>
<text text-anchor="middle" x="519.39" y="-261.3" font-family="Times,serif" font-size="14.00">compare (#0)</text>
</a>
</g>
</g>
<!-- r0&#45;&gt;r0 -->
<g id="edge4" class="edge">
<title>r0:s&#45;&gt;r0:n</title>
<path fill="none" stroke="black" d="M519.39,-247C568.09,-236.5 665.49,-236.5 665.49,-265 665.49,-291.66 580.24,-293.38 529.38,-284.89"/>
<polygon fill="black" stroke="black" points="529.87,-281.43 519.39,-283 528.57,-288.3 529.87,-281.43"/>
<text text-anchor="middle" x="506.89" y="-286.8" font-family="Times,serif" font-size="14.00">left</text>
<text text-anchor="middle" x="494.89" y="-235.8" font-family="Times,serif" font-size="14.00">/left&#45;gt</text>
</g>
<!-- r2 -->
<g id="node4" class="node">
<title>r2</title>
<g id="a_node4"><a xlink:href="file:///home/andrew/workspace/flow/flowstdlib/data/accumulate/accumulate.html" xlink:title="accumulator (#2)">
<ellipse fill="coral" stroke="black" cx="507.39" cy="-178" rx="91.78" ry="18"/>
<text text-anchor="middle" x="507.39" y="-174.3" font-family="Times,serif" font-size="14.00">accumulator (#2)</text>
</a>
</g>
</g>
<!-- r0&#45;&gt;r2 -->
<g id="edge3" class="edge">
<title>r0:e&#45;&gt;r2:n</title>
<path fill="none" stroke="black" d="M594.39,-265C602.41,-265 597.55,-253.85 593.39,-247 583.58,-230.83 528.12,-221.33 511.87,-205.14"/>
<polygon fill="black" stroke="black" points="514.93,-203.44 507.39,-196 508.64,-206.52 514.93,-203.44"/>
<text text-anchor="middle" x="484.39" y="-199.8" font-family="Times,serif" font-size="14.00">values</text>
<text text-anchor="middle" x="626.39" y="-268.8" font-family="Times,serif" font-size="14.00">/right&#45;lte</text>
</g>
<!-- r1 -->
<g id="node5" class="node">
<title>r1</title>
<g id="a_node5"><a xlink:href="file:///home/andrew/workspace/flow/flowstdlib/math/add/add.html" xlink:title="add (#1)">
<ellipse fill="coral" stroke="black" cx="274.39" cy="-178" rx="51.19" ry="18"/>
<text text-anchor="middle" x="274.39" y="-174.3" font-family="Times,serif" font-size="14.00">add (#1)</text>
</a>
</g>
</g>
<!-- r0&#45;&gt;r1 -->
<g id="edge5" class="edge">
<title>r0:e&#45;&gt;r1:n</title>
<path fill="none" stroke="black" d="M594.39,-265C602.41,-265 598.77,-252.94 593.39,-247 575.88,-227.67 503.16,-233.09 477.39,-229 435.96,-222.42 299.53,-238.62 277.43,-205.97"/>
<polygon fill="black" stroke="black" points="280.65,-204.55 274.39,-196 273.96,-206.59 280.65,-204.55"/>
<text text-anchor="middle" x="267.39" y="-199.8" font-family="Times,serif" font-size="14.00">i1</text>
<text text-anchor="middle" x="621.89" y="-253.8" font-family="Times,serif" font-size="14.00">/right&#45;lt</text>
</g>
<!-- initializerr0_0 -->
<!-- initializerr0_0&#45;&gt;r0 -->
<g id="edge1" class="edge">
<title>initializerr0_0&#45;&gt;r0:ne</title>
<path fill="none" stroke="blue" stroke-dasharray="1,5" d="M545.34,-333.95C548.06,-321.34 549.72,-304.19 543.25,-291.21"/>
<polygon fill="blue" stroke="blue" points="546.05,-289.11 537.39,-283 540.35,-293.17 546.05,-289.11"/>
<text text-anchor="middle" x="556.89" y="-304.8" font-family="Times,serif" font-size="14.00">20</text>
</g>
<!-- initializerr0_1 -->
<!-- initializerr0_1&#45;&gt;r0 -->
<g id="edge2" class="edge">
<title>initializerr0_1&#45;&gt;r0:ne</title>
<path fill="none" stroke="blue" stroke-dasharray="1,5" d="M370.6,-339.21C426.42,-326.35 509.21,-305.73 532.24,-291.68"/>
<polygon fill="blue" stroke="blue" points="535.3,-293.39 537.39,-283 529.28,-289.81 535.3,-293.39"/>
<text text-anchor="middle" x="512.39" y="-304.8" font-family="Times,serif" font-size="14.00">1</text>
</g>
<!-- r2&#45;&gt;r2 -->
<g id="edge11" class="edge">
<title>r2:e&#45;&gt;r2:ne</title>
<path fill="none" stroke="black" d="M599.39,-178C623.04,-167.5 671.04,-167.5 671.04,-187 671.04,-205.36 590.3,-206.43 535.33,-197.74"/>
<polygon fill="black" stroke="black" points="535.85,-194.27 525.39,-196 534.64,-201.17 535.85,-194.27"/>
<text text-anchor="middle" x="549.39" y="-199.8" font-family="Times,serif" font-size="14.00">partial</text>
<text text-anchor="middle" x="625.39" y="-181.8" font-family="Times,serif" font-size="14.00">/partial</text>
</g>
<!-- r3 -->
<g id="node9" class="node">
<title>r3</title>
<g id="a_node9"><a xlink:href="file:///home/andrew/workspace/flow/flowstdlib/math/add/add.html" xlink:title="add (#3)">
<ellipse fill="coral" stroke="black" cx="127.39" cy="-91" rx="51.19" ry="18"/>
<text text-anchor="middle" x="127.39" y="-87.3" font-family="Times,serif" font-size="14.00">add (#3)</text>
</a>
</g>
</g>
<!-- r2&#45;&gt;r3 -->
<g id="edge12" class="edge">
<title>r2:s&#45;&gt;r3:n</title>
<path fill="none" stroke="black" d="M507.39,-159C507.39,-77.49 159.35,-184.21 129.44,-118.87"/>
<polygon fill="black" stroke="black" points="132.85,-118.08 127.39,-109 125.99,-119.5 132.85,-118.08"/>
<text text-anchor="middle" x="120.39" y="-112.8" font-family="Times,serif" font-size="14.00">i1</text>
<text text-anchor="middle" x="483.39" y="-147.8" font-family="Times,serif" font-size="14.00">/chunk</text>
</g>
<!-- r1&#45;&gt;r0 -->
<g id="edge8" class="edge">
<title>r1:se&#45;&gt;r0:ne</title>
<path fill="none" stroke="black" d="M291.39,-160C302.19,-149.2 311.15,-156.5 325.74,-161 353.3,-169.51 353.96,-184.45 380.39,-196 433.83,-219.35 450.61,-215.7 507.39,-229 545.45,-237.92 568.84,-216.66 593.49,-247 603.58,-259.42 604.7,-271.59 593.49,-283 586.66,-289.95 561.64,-292.03 546.82,-288.41"/>
<polygon fill="black" stroke="black" points="547.93,-285.06 537.39,-284 544.97,-291.4 547.93,-285.06"/>
<text text-anchor="middle" x="555.39" y="-287.8" font-family="Times,serif" font-size="14.00">right</text>
<text text-anchor="middle" x="273.89" y="-148.8" font-family="Times,serif" font-size="14.00">/sum</text>
</g>
<!-- r1&#45;&gt;r1 -->
<g id="edge7" class="edge">
<title>r1:se&#45;&gt;r1:ne</title>
<path fill="none" stroke="black" d="M291.39,-161C332.51,-150.5 397.74,-150.5 397.74,-178 397.74,-203.41 342.07,-205.34 301.17,-197.21"/>
<polygon fill="black" stroke="black" points="301.92,-193.79 291.39,-195 300.38,-200.62 301.92,-193.79"/>
<text text-anchor="middle" x="284.39" y="-198.8" font-family="Times,serif" font-size="14.00">i2</text>
<text text-anchor="middle" x="300.89" y="-149.8" font-family="Times,serif" font-size="14.00">/i2</text>
</g>
<!-- initializerr1_1 -->
<!-- initializerr1_1&#45;&gt;r1 -->
<g id="edge6" class="edge">
<title>initializerr1_1&#45;&gt;r1:w</title>
<path fill="none" stroke="blue" stroke-dasharray="1,5" d="M275.35,-247.82C245.6,-226.22 198.99,-189.58 211.31,-180.22"/>
<polygon fill="blue" stroke="blue" points="212.38,-183.57 221.39,-178 210.87,-176.74 212.38,-183.57"/>
<text text-anchor="middle" x="254.39" y="-217.8" font-family="Times,serif" font-size="14.00">1</text>
</g>
<!-- initializerr2_1 -->
<!-- initializerr2_1&#45;&gt;r2 -->
<g id="edge9" class="edge">
<title>initializerr2_1&#45;&gt;r2:n</title>
<path fill="none" stroke="blue" stroke-dasharray="1,5" d="M107.13,-248.62C132.95,-236.9 170.65,-221.53 205.39,-214 220.09,-210.82 450.15,-212.37 498.51,-200.71"/>
<polygon fill="blue" stroke="blue" points="500.2,-203.78 507.39,-196 496.92,-197.59 500.2,-203.78"/>
<text text-anchor="middle" x="210.89" y="-217.8" font-family="Times,serif" font-size="14.00">[]</text>
</g>
<!-- initializerr2_2 -->
<!-- initializerr2_2&#45;&gt;r2 -->
<g id="edge10" class="edge">
<title>initializerr2_2&#45;&gt;r2:n</title>
<path fill="none" stroke="blue" d="M707.9,-251.6C646.34,-236.34 546.76,-211.12 516.44,-200.39"/>
<polygon fill="blue" stroke="blue" points="517.92,-197.22 507.39,-196 514.86,-203.52 517.92,-197.22"/>
<text text-anchor="middle" x="622.39" y="-217.8" font-family="Times,serif" font-size="14.00">4</text>
</g>
<!-- r4 -->
<g id="node11" class="node">
<title>r4</title>
<g id="a_node11"><a xlink:href="file:///home/andrew/workspace/flow/flowruntime/stdio/stdout.html" xlink:title="print (#4)">
<ellipse fill="coral" stroke="black" cx="144.39" cy="-18" rx="57.39" ry="18"/>
<text text-anchor="middle" x="144.39" y="-14.3" font-family="Times,serif" font-size="14.00">print (#4)</text>
</a>
</g>
</g>
<!-- r3&#45;&gt;r4 -->
<g id="edge14" class="edge">
<title>r3:se&#45;&gt;r4:n</title>
<path fill="none" stroke="black" d="M144.39,-73C153.39,-64.01 148.47,-56.63 145.78,-46.14"/>
<polygon fill="black" stroke="black" points="149.21,-45.43 144.39,-36 142.28,-46.38 149.21,-45.43"/>
<text text-anchor="middle" x="126.89" y="-61.8" font-family="Times,serif" font-size="14.00">/sum</text>
</g>
<!-- initializerr3_1 -->
<!-- initializerr3_1&#45;&gt;r3 -->
<g id="edge13" class="edge">
<title>initializerr3_1&#45;&gt;r3:w</title>
<path fill="none" stroke="blue" d="M68.53,-160.01C60.69,-138.67 50.64,-103.63 64.7,-93.7"/>
<polygon fill="blue" stroke="blue" points="65.7,-97.05 74.39,-91 63.82,-90.31 65.7,-97.05"/>
<text text-anchor="middle" x="68.39" y="-130.8" font-family="Times,serif" font-size="14.00">1</text>
</g>
</g>
</svg>
