<?xml version="1.0" encoding="UTF-8" standalone="no"?>
<!DOCTYPE svg PUBLIC "-//W3C//DTD SVG 1.1//EN"
 "http://www.w3.org/Graphics/SVG/1.1/DTD/svg11.dtd">
<!-- Generated by graphviz version 2.44.0 (20200408.0750)
 -->
<!-- Title: arrays Pages: 1 -->
<svg width="722pt" height="440pt"
 viewBox="0.00 0.00 721.89 440.00" xmlns="http://www.w3.org/2000/svg" xmlns:xlink="http://www.w3.org/1999/xlink">
<g id="graph0" class="graph" transform="scale(1 1) rotate(0) translate(4 436)">
<title>arrays</title>
<polygon fill="white" stroke="transparent" points="-4,4 -4,-436 717.89,-436 717.89,4 -4,4"/>
<text text-anchor="middle" x="356.94" y="-416.8" font-family="Times,serif" font-size="14.00">/arrays</text>
<g id="clust1" class="cluster">
<title>cluster_sequence</title>
<polygon fill="none" stroke="black" points="185.44,-152 185.44,-401 532.44,-401 532.44,-152 185.44,-152"/>
<text text-anchor="middle" x="358.94" y="-385.8" font-family="Times,serif" font-size="14.00">/arrays/sequence</text>
</g>
<!-- r0 -->
<g id="node1" class="node">
<title>r0</title>
<g id="a_node1"><a xlink:href="file:///Users/andrew/workspace/flow/flowstdlib/control/compare_switch/compare_switch.toml" xlink:title="compare (#0)">
<ellipse fill="coral" stroke="black" cx="444.44" cy="-265" rx="58.49" ry="18"/>
<text text-anchor="middle" x="444.44" y="-261.3" font-family="Times,serif" font-size="14.00">compare (#0)</text>
</a>
</g>
</g>
<!-- r0&#45;&gt;r0 -->
<g id="edge4" class="edge">
<title>r0:s&#45;&gt;r0:n</title>
<path fill="none" stroke="black" d="M444.44,-247C487.94,-236.5 574.94,-236.5 574.94,-265 574.94,-291.44 500.06,-293.35 454.51,-285.11"/>
<polygon fill="black" stroke="black" points="454.95,-281.62 444.44,-283 453.52,-288.47 454.95,-281.62"/>
<text text-anchor="middle" x="434.94" y="-286.8" font-family="Times,serif" font-size="14.00">left</text>
<text text-anchor="middle" x="425.94" y="-235.8" font-family="Times,serif" font-size="14.00">/left&#45;gt</text>
</g>
<!-- r2 -->
<g id="node4" class="node">
<title>r2</title>
<g id="a_node4"><a xlink:href="file:///Users/andrew/workspace/flow/flowstdlib/data/accumulate/accumulate.toml" xlink:title="accumulator (#2)">
<ellipse fill="coral" stroke="black" cx="435.44" cy="-178" rx="71.49" ry="18"/>
<text text-anchor="middle" x="435.44" y="-174.3" font-family="Times,serif" font-size="14.00">accumulator (#2)</text>
</a>
</g>
</g>
<!-- r0&#45;&gt;r2 -->
<g id="edge3" class="edge">
<title>r0:e&#45;&gt;r2:n</title>
<path fill="none" stroke="black" d="M504.44,-265C512.46,-265 507.23,-254.06 503.44,-247 495.99,-233.08 453.48,-219.99 439.73,-205.04"/>
<polygon fill="black" stroke="black" points="442.89,-203.53 435.44,-196 436.57,-206.54 442.89,-203.53"/>
<text text-anchor="middle" x="417.94" y="-199.8" font-family="Times,serif" font-size="14.00">values</text>
<text text-anchor="middle" x="528.44" y="-268.8" font-family="Times,serif" font-size="14.00">/right&#45;lte</text>
</g>
<!-- r1 -->
<g id="node5" class="node">
<title>r1</title>
<g id="a_node5"><a xlink:href="file:///Users/andrew/workspace/flow/flowstdlib/math/add/add.toml" xlink:title="add (#1)">
<ellipse fill="coral" stroke="black" cx="233.44" cy="-178" rx="40.09" ry="18"/>
<text text-anchor="middle" x="233.44" y="-174.3" font-family="Times,serif" font-size="14.00">add (#1)</text>
</a>
</g>
</g>
<!-- r0&#45;&gt;r1 -->
<g id="edge5" class="edge">
<title>r0:e&#45;&gt;r1:n</title>
<path fill="none" stroke="black" d="M504.44,-265C512.46,-265 508.73,-253.02 503.44,-247 489.12,-230.69 428.77,-233.02 407.44,-229 372.4,-222.39 257.97,-232.98 236.82,-205.73"/>
<polygon fill="black" stroke="black" points="240.03,-204.3 233.44,-196 233.42,-206.59 240.03,-204.3"/>
<text text-anchor="middle" x="227.94" y="-199.8" font-family="Times,serif" font-size="14.00">i1</text>
<text text-anchor="middle" x="525.44" y="-253.8" font-family="Times,serif" font-size="14.00">/right&#45;lt</text>
</g>
<!-- initializerr0_0 -->
<!-- initializerr0_0&#45;&gt;r0 -->
<g id="edge1" class="edge">
<title>initializerr0_0&#45;&gt;r0:ne</title>
<path fill="none" stroke="blue" stroke-dasharray="1,5" d="M468.73,-333.94C471.68,-321.34 473.63,-304.19 467.27,-291.21"/>
<polygon fill="blue" stroke="blue" points="470.08,-289.13 461.44,-283 464.37,-293.18 470.08,-289.13"/>
<text text-anchor="middle" x="478.44" y="-304.8" font-family="Times,serif" font-size="14.00">20</text>
</g>
<!-- initializerr0_1 -->
<!-- initializerr0_1&#45;&gt;r0 -->
<g id="edge2" class="edge">
<title>initializerr0_1&#45;&gt;r0:ne</title>
<path fill="none" stroke="blue" stroke-dasharray="1,5" d="M314.16,-339.47C362.03,-326.43 434.85,-305.24 456.22,-291.56"/>
<polygon fill="blue" stroke="blue" points="459.23,-293.36 461.44,-283 453.25,-289.72 459.23,-293.36"/>
<text text-anchor="middle" x="438.94" y="-304.8" font-family="Times,serif" font-size="14.00">1</text>
</g>
<!-- r2&#45;&gt;r2 -->
<g id="edge11" class="edge">
<title>r2:e&#45;&gt;r2:ne</title>
<path fill="none" stroke="black" d="M507.44,-178C530.94,-167.5 578.94,-167.5 578.94,-186.5 578.94,-204.24 510.38,-205.42 462.35,-196.95"/>
<polygon fill="black" stroke="black" points="462.93,-193.5 452.44,-195 461.58,-200.37 462.93,-193.5"/>
<text text-anchor="middle" x="469.94" y="-198.8" font-family="Times,serif" font-size="14.00">partial</text>
<text text-anchor="middle" x="526.94" y="-181.8" font-family="Times,serif" font-size="14.00">/partial</text>
</g>
<!-- r3 -->
<g id="node9" class="node">
<title>r3</title>
<g id="a_node9"><a xlink:href="file:///Users/andrew/workspace/flow/flowstdlib/math/add/add.toml" xlink:title="add (#3)">
<ellipse fill="coral" stroke="black" cx="105.44" cy="-91" rx="40.09" ry="18"/>
<text text-anchor="middle" x="105.44" y="-87.3" font-family="Times,serif" font-size="14.00">add (#3)</text>
</a>
</g>
</g>
<!-- r2&#45;&gt;r3 -->
<g id="edge12" class="edge">
<title>r2:s&#45;&gt;r3:n</title>
<path fill="none" stroke="black" d="M435.44,-159C435.44,-88.6 138.11,-173.63 107.91,-119.01"/>
<polygon fill="black" stroke="black" points="111.24,-117.87 105.44,-109 104.44,-119.55 111.24,-117.87"/>
<text text-anchor="middle" x="99.94" y="-112.8" font-family="Times,serif" font-size="14.00">i1</text>
<text text-anchor="middle" x="416.94" y="-147.8" font-family="Times,serif" font-size="14.00">/chunk</text>
</g>
<!-- r1&#45;&gt;r0 -->
<g id="edge8" class="edge">
<title>r1:se&#45;&gt;r0:ne</title>
<path fill="none" stroke="black" d="M250.44,-160C277.73,-132.72 294.44,-179.77 329.44,-196 373.44,-216.4 386.84,-215.58 433.44,-229 464.1,-237.83 483.41,-221.77 502.94,-247 512.46,-259.3 513.81,-270.87 502.94,-282 498.26,-286.8 481.92,-288.59 470.83,-286.72"/>
<polygon fill="black" stroke="black" points="472.03,-283.43 461.44,-283 469.45,-289.94 472.03,-283.43"/>
<text text-anchor="middle" x="474.44" y="-286.8" font-family="Times,serif" font-size="14.00">right</text>
<text text-anchor="middle" x="236.44" y="-148.8" font-family="Times,serif" font-size="14.00">/sum</text>
</g>
<!-- r1&#45;&gt;r1 -->
<g id="edge7" class="edge">
<title>r1:se&#45;&gt;r1:ne</title>
<path fill="none" stroke="black" d="M250.44,-161C287.88,-150.5 345.74,-150.5 345.74,-178 345.74,-203.14 297.39,-205.3 260.5,-197.46"/>
<polygon fill="black" stroke="black" points="260.99,-193.98 250.44,-195 259.32,-200.78 260.99,-193.98"/>
<text text-anchor="middle" x="244.94" y="-198.8" font-family="Times,serif" font-size="14.00">i2</text>
<text text-anchor="middle" x="257.94" y="-149.8" font-family="Times,serif" font-size="14.00">/i2</text>
</g>
<!-- initializerr1_1 -->
<!-- initializerr1_1&#45;&gt;r1 -->
<g id="edge6" class="edge">
<title>initializerr1_1&#45;&gt;r1:w</title>
<path fill="none" stroke="blue" stroke-dasharray="1,5" d="M233.93,-247.82C209.01,-226.42 170.4,-190.24 181.64,-180.48"/>
<polygon fill="blue" stroke="blue" points="182.61,-183.85 191.44,-178 180.89,-177.06 182.61,-183.85"/>
<text text-anchor="middle" x="215.94" y="-217.8" font-family="Times,serif" font-size="14.00">1</text>
</g>
<!-- initializerr2_1 -->
<!-- initializerr2_1&#45;&gt;r2 -->
<g id="edge9" class="edge">
<title>initializerr2_1&#45;&gt;r2:n</title>
<path fill="none" stroke="blue" stroke-dasharray="1,5" d="M87.29,-248.63C109.18,-236.92 141.31,-221.56 171.44,-214 197.07,-207.58 389.75,-221.9 428.62,-203.55"/>
<polygon fill="blue" stroke="blue" points="431.34,-205.77 435.44,-196 426.14,-201.07 431.34,-205.77"/>
<text text-anchor="middle" x="176.44" y="-217.8" font-family="Times,serif" font-size="14.00">[]</text>
</g>
<!-- initializerr2_2 -->
<!-- initializerr2_2&#45;&gt;r2 -->
<g id="edge10" class="edge">
<title>initializerr2_2&#45;&gt;r2:n</title>
<path fill="none" stroke="blue" d="M611.41,-251.97C558.95,-236.83 472.7,-211.51 444.6,-200.66"/>
<polygon fill="blue" stroke="blue" points="445.94,-197.42 435.44,-196 442.77,-203.66 445.94,-197.42"/>
<text text-anchor="middle" x="533.94" y="-217.8" font-family="Times,serif" font-size="14.00">4</text>
</g>
<!-- r4 -->
<g id="node11" class="node">
<title>r4</title>
<g id="a_node11"><a xlink:href="file:///Users/andrew/workspace/flow/flowruntime/stdio/stdout.toml" xlink:title="print (#4)">
<ellipse fill="coral" stroke="black" cx="122.44" cy="-18" rx="44.39" ry="18"/>
<text text-anchor="middle" x="122.44" y="-14.3" font-family="Times,serif" font-size="14.00">print (#4)</text>
</a>
</g>
</g>
<!-- r3&#45;&gt;r4 -->
<g id="edge14" class="edge">
<title>r3:se&#45;&gt;r4:n</title>
<path fill="none" stroke="black" d="M122.44,-73C131.44,-64.01 126.52,-56.63 123.83,-46.14"/>
<polygon fill="black" stroke="black" points="127.27,-45.43 122.44,-36 120.33,-46.38 127.27,-45.43"/>
<text text-anchor="middle" x="108.44" y="-61.8" font-family="Times,serif" font-size="14.00">/sum</text>
</g>
<!-- initializerr3_1 -->
<!-- initializerr3_1&#45;&gt;r3 -->
<g id="edge13" class="edge">
<title>initializerr3_1&#45;&gt;r3:w</title>
<path fill="none" stroke="blue" d="M54.37,-160.01C47.51,-138.67 39.09,-103.63 53.62,-93.7"/>
<polygon fill="blue" stroke="blue" points="54.73,-97.02 63.44,-91 52.87,-90.28 54.73,-97.02"/>
<text text-anchor="middle" x="52.94" y="-130.8" font-family="Times,serif" font-size="14.00">1</text>
</g>
</g>
</svg>
