<?xml version="1.0" encoding="UTF-8" standalone="no"?>
<!DOCTYPE svg PUBLIC "-//W3C//DTD SVG 1.1//EN"
 "http://www.w3.org/Graphics/SVG/1.1/DTD/svg11.dtd">
<!-- Generated by graphviz version 2.40.1 (0)
 -->
<!-- Title: arrays Pages: 1 -->
<svg width="804pt" height="551pt"
 viewBox="0.00 0.00 803.79 551.00" xmlns="http://www.w3.org/2000/svg" xmlns:xlink="http://www.w3.org/1999/xlink">
<g id="graph0" class="graph" transform="scale(1 1) rotate(0) translate(4 547)">
<title>arrays</title>
<polygon fill="#ffffff" stroke="transparent" points="-4,4 -4,-547 799.7866,-547 799.7866,4 -4,4"/>
<text text-anchor="middle" x="397.8933" y="-527.8" font-family="Times,serif" font-size="14.00" fill="#000000">/arrays</text>
<g id="clust1" class="cluster">
<title>cluster_sequence</title>
<polygon fill="none" stroke="#000000" points="214.3933,-152 214.3933,-512 624.3933,-512 624.3933,-152 214.3933,-152"/>
<text text-anchor="middle" x="419.3933" y="-496.8" font-family="Times,serif" font-size="14.00" fill="#000000">/arrays/sequence</text>
</g>
<!-- r0 -->
<g id="node1" class="node">
<title>r0</title>
<g id="a_node1"><a xlink:href="file:///home/andrew/workspace/flow/flowstdlib/control/compare_switch/compare_switch.toml" xlink:title="compare (#0)">
<ellipse fill="#ff7f50" stroke="#000000" cx="519.3933" cy="-338" rx="74.187" ry="18"/>
<text text-anchor="middle" x="519.3933" y="-334.3" font-family="Times,serif" font-size="14.00" fill="#000000">compare (#0)</text>
</a>
</g>
</g>
<!-- r0&#45;&gt;r0 -->
<g id="edge4" class="edge">
<title>r0:s&#45;&gt;r0:n</title>
<path fill="none" stroke="#000000" d="M519.3933,-320C568.0911,-311 665.4867,-311 665.4867,-338 665.4867,-363.2598 580.2414,-364.8878 529.3773,-357.6233"/>
<polygon fill="#000000" stroke="#000000" points="529.8254,-354.1502 519.3933,-356 528.702,-361.0595 529.8254,-354.1502"/>
<text text-anchor="middle" x="506.8933" y="-359.8" font-family="Times,serif" font-size="14.00" fill="#000000">left</text>
<text text-anchor="middle" x="494.8933" y="-308.8" font-family="Times,serif" font-size="14.00" fill="#000000">/left&#45;gt</text>
</g>
<!-- r2 -->
<g id="node4" class="node">
<title>r2</title>
<g id="a_node4"><a xlink:href="file:///home/andrew/workspace/flow/flowstdlib/data/accumulate/accumulate.toml" xlink:title="accumulator (#2)">
<ellipse fill="#ff7f50" stroke="#000000" cx="314.3933" cy="-178" rx="91.784" ry="18"/>
<text text-anchor="middle" x="314.3933" y="-174.3" font-family="Times,serif" font-size="14.00" fill="#000000">accumulator (#2)</text>
</a>
</g>
</g>
<!-- r0&#45;&gt;r2 -->
<g id="edge3" class="edge">
<title>r0:e&#45;&gt;r2:n</title>
<path fill="none" stroke="#000000" d="M593.3933,-338C601.3933,-338 598.1383,-326.4409 593.3933,-320 577.3844,-298.2696 560.5174,-311.8626 535.3933,-302 512.5183,-293.0203 350.982,-236.113 319.6501,-205.0748"/>
<polygon fill="#000000" stroke="#000000" points="322.4344,-202.8987 314.3933,-196 316.3772,-206.4074 322.4344,-202.8987"/>
<text text-anchor="middle" x="291.3933" y="-199.8" font-family="Times,serif" font-size="14.00" fill="#000000">values</text>
<text text-anchor="middle" x="625.3933" y="-341.8" font-family="Times,serif" font-size="14.00" fill="#000000">/right&#45;lte</text>
</g>
<!-- r1 -->
<g id="node5" class="node">
<title>r1</title>
<g id="a_node5"><a xlink:href="file:///home/andrew/workspace/flow/flowstdlib/math/add/add.toml" xlink:title="add (#1)">
<ellipse fill="#ff7f50" stroke="#000000" cx="547.3933" cy="-178" rx="51.1914" ry="18"/>
<text text-anchor="middle" x="547.3933" y="-174.3" font-family="Times,serif" font-size="14.00" fill="#000000">add (#1)</text>
</a>
</g>
</g>
<!-- r0&#45;&gt;r1 -->
<g id="edge5" class="edge">
<title>r0:e&#45;&gt;r1:n</title>
<path fill="none" stroke="#000000" d="M593.3933,-338C601.3933,-338 597.7371,-326.718 593.3933,-320 582.8082,-303.6292 564.437,-318.0651 553.3933,-302 528.6464,-266.0011 544.5775,-246.2491 547.0786,-206.0748"/>
<polygon fill="#000000" stroke="#000000" points="550.5793,-206.1044 547.3933,-196 543.5827,-205.8858 550.5793,-206.1044"/>
<text text-anchor="middle" x="540.3933" y="-199.8" font-family="Times,serif" font-size="14.00" fill="#000000">i1</text>
<text text-anchor="middle" x="620.8933" y="-326.8" font-family="Times,serif" font-size="14.00" fill="#000000">/right&#45;lt</text>
</g>
<!-- initializerr0_0 -->
<!-- initializerr0_0&#45;&gt;r0 -->
<g id="edge1" class="edge">
<title>initializerr0_0&#45;&gt;r0:ne</title>
<path fill="none" stroke="#0000ff" stroke-dasharray="1,5" d="M545.7036,-444.9573C552.0428,-423.5498 558.8933,-387.7616 543.7169,-363.8997"/>
<polygon fill="#0000ff" stroke="#0000ff" points="546.375,-361.6196 537.3933,-356 540.9102,-365.9941 546.375,-361.6196"/>
<text text-anchor="middle" x="561.8933" y="-396.8" font-family="Times,serif" font-size="14.00" fill="#000000">20</text>
</g>
<!-- initializerr0_1 -->
<!-- initializerr0_1&#45;&gt;r0 -->
<g id="edge2" class="edge">
<title>initializerr0_1&#45;&gt;r0:ne</title>
<path fill="none" stroke="#0000ff" stroke-dasharray="1,5" d="M356.8096,-447.7756C413.3028,-426.0419 511.4894,-386.4648 533.8665,-365.7438"/>
<polygon fill="#0000ff" stroke="#0000ff" points="537.2808,-366.5942 537.3933,-356 530.6987,-364.2118 537.2808,-366.5942"/>
<text text-anchor="middle" x="489.3933" y="-396.8" font-family="Times,serif" font-size="14.00" fill="#000000">1</text>
</g>
<!-- r2&#45;&gt;r2 -->
<g id="edge11" class="edge">
<title>r2:e&#45;&gt;r2:ne</title>
<path fill="none" stroke="#000000" d="M406.3933,-178C430.0352,-167.5 478.0352,-167.5 478.0352,-187 478.0352,-205.3574 397.303,-206.4331 342.3324,-197.7357"/>
<polygon fill="#000000" stroke="#000000" points="342.8464,-194.2726 332.3933,-196 341.6421,-201.1682 342.8464,-194.2726"/>
<text text-anchor="middle" x="356.3933" y="-199.8" font-family="Times,serif" font-size="14.00" fill="#000000">partial</text>
<text text-anchor="middle" x="432.3933" y="-181.8" font-family="Times,serif" font-size="14.00" fill="#000000">/partial</text>
</g>
<!-- r3 -->
<g id="node9" class="node">
<title>r3</title>
<g id="a_node9"><a xlink:href="file:///home/andrew/workspace/flow/flowstdlib/math/add/add.toml" xlink:title="add (#3)">
<ellipse fill="#ff7f50" stroke="#000000" cx="220.3933" cy="-91" rx="51.1914" ry="18"/>
<text text-anchor="middle" x="220.3933" y="-87.3" font-family="Times,serif" font-size="14.00" fill="#000000">add (#3)</text>
</a>
</g>
</g>
<!-- r2&#45;&gt;r3 -->
<g id="edge12" class="edge">
<title>r2:s&#45;&gt;r3:n</title>
<path fill="none" stroke="#000000" d="M314.3933,-160C314.3933,-116.3684 235.1826,-149.9182 222.1871,-118.9491"/>
<polygon fill="#000000" stroke="#000000" points="225.6123,-118.2202 220.3933,-109 218.7233,-119.4624 225.6123,-118.2202"/>
<text text-anchor="middle" x="213.3933" y="-112.8" font-family="Times,serif" font-size="14.00" fill="#000000">i1</text>
<text text-anchor="middle" x="290.3933" y="-148.8" font-family="Times,serif" font-size="14.00" fill="#000000">/chunk</text>
</g>
<!-- r1&#45;&gt;r0 -->
<g id="edge8" class="edge">
<title>r1:se&#45;&gt;r0:ne</title>
<path fill="none" stroke="#000000" d="M564.3933,-161C575.187,-150.2063 587.945,-150.2063 598.7388,-161 609.7382,-171.9994 605.2956,-181.8939 598.7388,-196 593.5079,-207.2534 582.6241,-202.7466 577.3933,-214 574.5832,-220.0455 576.8106,-222.3588 577.3933,-229 582.8234,-290.885 605.0467,-344.4401 593.4867,-356 586.6006,-362.8861 561.6171,-364.3925 546.8134,-360.519"/>
<polygon fill="#000000" stroke="#000000" points="547.9234,-357.1696 537.3933,-356 544.8957,-363.481 547.9234,-357.1696"/>
<text text-anchor="middle" x="555.3933" y="-359.8" font-family="Times,serif" font-size="14.00" fill="#000000">right</text>
<text text-anchor="middle" x="581.8933" y="-149.8" font-family="Times,serif" font-size="14.00" fill="#000000">/sum</text>
</g>
<!-- r1&#45;&gt;r1 -->
<g id="edge7" class="edge">
<title>r1:se&#45;&gt;r1:ne</title>
<path fill="none" stroke="#000000" d="M564.3933,-161C605.5085,-150.5 670.7388,-150.5 670.7388,-178 670.7388,-203.4053 615.0674,-205.3404 574.169,-197.2091"/>
<polygon fill="#000000" stroke="#000000" points="574.9189,-193.7904 564.3933,-195 573.3758,-200.6182 574.9189,-193.7904"/>
<text text-anchor="middle" x="557.3933" y="-198.8" font-family="Times,serif" font-size="14.00" fill="#000000">i2</text>
<text text-anchor="middle" x="554.8933" y="-149.8" font-family="Times,serif" font-size="14.00" fill="#000000">/i2</text>
</g>
<!-- initializerr1_1 -->
<!-- initializerr1_1&#45;&gt;r1 -->
<g id="edge6" class="edge">
<title>initializerr1_1&#45;&gt;r1:w</title>
<path fill="none" stroke="#0000ff" stroke-dasharray="1,5" d="M317.3532,-320.2659C357.5247,-283.0015 450.3993,-198.5662 485.5489,-181.1702"/>
<polygon fill="#0000ff" stroke="#0000ff" points="486.9476,-184.3969 495.3933,-178 484.8018,-177.7338 486.9476,-184.3969"/>
<text text-anchor="middle" x="403.3933" y="-261.3" font-family="Times,serif" font-size="14.00" fill="#000000">1</text>
</g>
<!-- initializerr2_1 -->
<!-- initializerr2_1&#45;&gt;r2 -->
<g id="edge9" class="edge">
<title>initializerr2_1&#45;&gt;r2:n</title>
<path fill="none" stroke="#0000ff" stroke-dasharray="1,5" d="M173.5936,-251.7629C221.1393,-238.8512 287.5842,-219.0326 308.1066,-204.1224"/>
<polygon fill="#0000ff" stroke="#0000ff" points="311.0403,-206.0503 314.3933,-196 305.5047,-201.7658 311.0403,-206.0503"/>
<text text-anchor="middle" x="291.8933" y="-217.8" font-family="Times,serif" font-size="14.00" fill="#000000">[]</text>
</g>
<!-- initializerr2_2 -->
<!-- initializerr2_2&#45;&gt;r2 -->
<g id="edge10" class="edge">
<title>initializerr2_2&#45;&gt;r2:n</title>
<path fill="none" stroke="#0000ff" d="M666.5135,-252.2785C658.1217,-250.4259 649.5361,-248.6048 641.3933,-247 553.8631,-229.7496 531.58,-227.499 443.3933,-214 431.4348,-212.1695 349.3253,-210.9342 322.705,-202.1242"/>
<polygon fill="#0000ff" stroke="#0000ff" points="324.5201,-199.1142 314.3933,-196 320.3678,-204.7496 324.5201,-199.1142"/>
<text text-anchor="middle" x="543.3933" y="-217.8" font-family="Times,serif" font-size="14.00" fill="#000000">4</text>
</g>
<!-- r4 -->
<g id="node11" class="node">
<title>r4</title>
<g id="a_node11"><a xlink:href="file:///home/andrew/workspace/flow/flowruntime/stdio/stdout.toml" xlink:title="print (#4)">
<ellipse fill="#ff7f50" stroke="#000000" cx="237.3933" cy="-18" rx="57.3905" ry="18"/>
<text text-anchor="middle" x="237.3933" y="-14.3" font-family="Times,serif" font-size="14.00" fill="#000000">print (#4)</text>
</a>
</g>
</g>
<!-- r3&#45;&gt;r4 -->
<g id="edge14" class="edge">
<title>r3:se&#45;&gt;r4:n</title>
<path fill="none" stroke="#000000" d="M237.3933,-74C246.7232,-64.6701 241.4751,-57.033 238.7327,-46.0849"/>
<polygon fill="#000000" stroke="#000000" points="242.1794,-45.4522 237.3933,-36 235.2404,-46.3738 242.1794,-45.4522"/>
<text text-anchor="middle" x="254.8933" y="-62.8" font-family="Times,serif" font-size="14.00" fill="#000000">/sum</text>
</g>
<!-- initializerr3_1 -->
<!-- initializerr3_1&#45;&gt;r3 -->
<g id="edge13" class="edge">
<title>initializerr3_1&#45;&gt;r3:w</title>
<path fill="none" stroke="#0000ff" d="M84.3587,-159.9735C97.2438,-136.6806 123.3497,-98.342 158.3035,-91.9245"/>
<polygon fill="#0000ff" stroke="#0000ff" points="158.7544,-95.398 168.3933,-91 158.1156,-88.4272 158.7544,-95.398"/>
<text text-anchor="middle" x="110.3933" y="-130.8" font-family="Times,serif" font-size="14.00" fill="#000000">1</text>
</g>
</g>
</svg>
