<?xml version="1.0" encoding="UTF-8" standalone="no"?>
<!DOCTYPE svg PUBLIC "-//W3C//DTD SVG 1.1//EN"
 "http://www.w3.org/Graphics/SVG/1.1/DTD/svg11.dtd">
<!-- Generated by graphviz version 2.42.3 (20191010.1750)
 -->
<!-- Title: arrays Pages: 1 -->
<svg width="718pt" height="435pt"
 viewBox="0.00 0.00 718.40 435.00" xmlns="http://www.w3.org/2000/svg" xmlns:xlink="http://www.w3.org/1999/xlink">
<g id="graph0" class="graph" transform="scale(1 1) rotate(0) translate(4 431)">
<title>arrays</title>
<polygon fill="white" stroke="transparent" points="-4,4 -4,-431 714.4,-431 714.4,4 -4,4"/>
<text text-anchor="middle" x="355.2" y="-411.8" font-family="Times,serif" font-size="14.00">/arrays</text>
<g id="clust1" class="cluster">
<title>cluster_sequence</title>
<polygon fill="none" stroke="black" points="184.2,-151 184.2,-397 530.2,-397 530.2,-151 184.2,-151"/>
<text text-anchor="middle" x="357.2" y="-381.8" font-family="Times,serif" font-size="14.00">/arrays/sequence</text>
</g>
<!-- r0 -->
<g id="node1" class="node">
<title>r0</title>
<ellipse fill="coral" stroke="black" cx="442.2" cy="-263" rx="57.49" ry="18"/>
<text text-anchor="middle" x="442.2" y="-258.8" font-family="Times,serif" font-size="14.00">compare (#0)</text>
</g>
<!-- r0&#45;&gt;r0 -->
<g id="edge4" class="edge">
<title>r0:s&#45;&gt;r0:n</title>
<path fill="none" stroke="black" d="M442.2,-245C485.37,-234.5 571.69,-234.5 571.69,-263 571.69,-289.44 497.39,-291.35 452.19,-283.11"/>
<polygon fill="black" stroke="black" points="452.71,-279.64 442.2,-281 451.26,-286.49 452.71,-279.64"/>
<text text-anchor="middle" x="432.87" y="-283.8" font-family="Times,serif" font-size="14.00">left</text>
<text text-anchor="middle" x="423.15" y="-233.8" font-family="Times,serif" font-size="14.00">/left&#45;gt</text>
</g>
<!-- r2 -->
<g id="node4" class="node">
<title>r2</title>
<ellipse fill="coral" stroke="black" cx="433.2" cy="-177" rx="70.51" ry="18"/>
<text text-anchor="middle" x="433.2" y="-172.8" font-family="Times,serif" font-size="14.00">accumulator (#2)</text>
</g>
<!-- r0&#45;&gt;r2 -->
<g id="edge3" class="edge">
<title>r0:e&#45;&gt;r2:n</title>
<path fill="none" stroke="black" d="M501.2,-263C509.21,-263 503.99,-252.06 500.2,-245 492.93,-231.44 451.75,-218.79 437.81,-204.29"/>
<polygon fill="black" stroke="black" points="440.78,-202.4 433.2,-195 434.51,-205.51 440.78,-202.4"/>
<text text-anchor="middle" x="415.32" y="-197.8" font-family="Times,serif" font-size="14.00">values</text>
<text text-anchor="middle" x="525.69" y="-265.8" font-family="Times,serif" font-size="14.00">/right&#45;lte</text>
</g>
<!-- r1 -->
<g id="node5" class="node">
<title>r1</title>
<ellipse fill="coral" stroke="black" cx="232.2" cy="-177" rx="39.64" ry="18"/>
<text text-anchor="middle" x="232.2" y="-172.8" font-family="Times,serif" font-size="14.00">add (#1)</text>
</g>
<!-- r0&#45;&gt;r1 -->
<g id="edge5" class="edge">
<title>r0:e&#45;&gt;r1:n</title>
<path fill="none" stroke="black" d="M501.2,-263C509.21,-263 505.49,-251.02 500.2,-245 482.12,-224.42 277.58,-224.94 238.6,-202.83"/>
<polygon fill="black" stroke="black" points="241.24,-200.53 232.2,-195 235.82,-204.96 241.24,-200.53"/>
<text text-anchor="middle" x="226.76" y="-197.8" font-family="Times,serif" font-size="14.00">i1</text>
<text text-anchor="middle" x="522.59" y="-251.8" font-family="Times,serif" font-size="14.00">/right&#45;lt</text>
</g>
<!-- initializerr0_0 -->
<!-- initializerr0_0&#45;&gt;r0 -->
<g id="edge1" class="edge">
<title>initializerr0_0&#45;&gt;r0:ne</title>
<path fill="none" stroke="blue" stroke-dasharray="1,5" d="M466.47,-330.9C469.31,-318.61 471.13,-302.05 465.09,-289.4"/>
<polygon fill="blue" stroke="blue" points="467.81,-287.18 459.2,-281 462.07,-291.2 467.81,-287.18"/>
<text text-anchor="middle" x="475.2" y="-301.8" font-family="Times,serif" font-size="14.00">20</text>
</g>
<!-- initializerr0_1 -->
<!-- initializerr0_1&#45;&gt;r0 -->
<g id="edge2" class="edge">
<title>initializerr0_1&#45;&gt;r0:ne</title>
<path fill="none" stroke="blue" stroke-dasharray="1,5" d="M312.93,-336.6C360.34,-323.83 432.12,-303.15 453.71,-289.66"/>
<polygon fill="blue" stroke="blue" points="456.8,-291.32 459.2,-281 450.89,-287.57 456.8,-291.32"/>
<text text-anchor="middle" x="432.7" y="-301.8" font-family="Times,serif" font-size="14.00">1</text>
</g>
<!-- r2&#45;&gt;r2 -->
<g id="edge11" class="edge">
<title>r2:e&#45;&gt;r2:ne</title>
<path fill="none" stroke="black" d="M504.2,-177C527.96,-166.5 575.96,-166.5 575.96,-186 575.96,-204.21 508.69,-205.41 461.04,-196.95"/>
<polygon fill="black" stroke="black" points="461.69,-193.51 451.2,-195 460.33,-200.38 461.69,-193.51"/>
<text text-anchor="middle" x="469.08" y="-197.8" font-family="Times,serif" font-size="14.00">partial</text>
<text text-anchor="middle" x="524.03" y="-179.8" font-family="Times,serif" font-size="14.00">/partial</text>
</g>
<!-- r3 -->
<g id="node9" class="node">
<title>r3</title>
<ellipse fill="coral" stroke="black" cx="104.2" cy="-91" rx="39.64" ry="18"/>
<text text-anchor="middle" x="104.2" y="-86.8" font-family="Times,serif" font-size="14.00">add (#3)</text>
</g>
<!-- r2&#45;&gt;r3 -->
<g id="edge12" class="edge">
<title>r2:s&#45;&gt;r3:n</title>
<path fill="none" stroke="black" d="M433.2,-158C433.2,-87.84 136.77,-173.33 106.66,-118.97"/>
<polygon fill="black" stroke="black" points="109.99,-117.87 104.2,-109 103.2,-119.55 109.99,-117.87"/>
<text text-anchor="middle" x="98.76" y="-111.8" font-family="Times,serif" font-size="14.00">i1</text>
<text text-anchor="middle" x="414.15" y="-146.8" font-family="Times,serif" font-size="14.00">/chunk</text>
</g>
<!-- r1&#45;&gt;r0 -->
<g id="edge8" class="edge">
<title>r1:se&#45;&gt;r0:ne</title>
<path fill="none" stroke="black" d="M248.2,-160C275.36,-132.85 292.2,-179.2 327.2,-195 371.67,-215.07 385.29,-213.6 432.2,-227 462.05,-235.53 480.78,-220.38 499.69,-245 509.17,-257.34 510.56,-268.87 499.69,-280 495.18,-284.63 479.52,-286.41 468.71,-284.68"/>
<polygon fill="black" stroke="black" points="469.79,-281.35 459.2,-281 467.26,-287.87 469.79,-281.35"/>
<text text-anchor="middle" x="472.42" y="-283.8" font-family="Times,serif" font-size="14.00">right</text>
<text text-anchor="middle" x="261.81" y="-148.8" font-family="Times,serif" font-size="14.00">/sum</text>
</g>
<!-- r1&#45;&gt;r1 -->
<g id="edge7" class="edge">
<title>r1:se&#45;&gt;r1:ne</title>
<path fill="none" stroke="black" d="M248.2,-161C285.47,-150.5 344.02,-150.5 344.02,-177 344.02,-201.22 295.1,-203.3 258.23,-195.46"/>
<polygon fill="black" stroke="black" points="258.75,-191.99 248.2,-193 257.08,-198.78 258.75,-191.99"/>
<text text-anchor="middle" x="253.65" y="-195.8" font-family="Times,serif" font-size="14.00">i2</text>
<text text-anchor="middle" x="240.81" y="-149.8" font-family="Times,serif" font-size="14.00">/i2</text>
</g>
<!-- initializerr1_1 -->
<!-- initializerr1_1&#45;&gt;r1 -->
<g id="edge6" class="edge">
<title>initializerr1_1&#45;&gt;r1:w</title>
<path fill="none" stroke="blue" stroke-dasharray="1,5" d="M232.51,-245.61C208.16,-224.58 171.09,-189.61 181.26,-179.7"/>
<polygon fill="blue" stroke="blue" points="182.47,-183 191.2,-177 180.63,-176.24 182.47,-183"/>
<text text-anchor="middle" x="212.7" y="-215.8" font-family="Times,serif" font-size="14.00">1</text>
</g>
<!-- initializerr2_1 -->
<!-- initializerr2_1&#45;&gt;r2 -->
<g id="edge9" class="edge">
<title>initializerr2_1&#45;&gt;r2:n</title>
<path fill="none" stroke="blue" stroke-dasharray="1,5" d="M87.71,-246.72C109.76,-235.28 141.86,-220.38 171.88,-213 197.27,-206.76 387.97,-220.7 426.45,-202.48"/>
<polygon fill="blue" stroke="blue" points="429.1,-204.77 433.2,-195 423.9,-200.08 429.1,-204.77"/>
<text text-anchor="middle" x="175.86" y="-215.8" font-family="Times,serif" font-size="14.00">[]</text>
</g>
<!-- initializerr2_2 -->
<!-- initializerr2_2&#45;&gt;r2 -->
<g id="edge10" class="edge">
<title>initializerr2_2&#45;&gt;r2:n</title>
<path fill="none" stroke="blue" d="M608.1,-250.08C555.85,-235.17 470.19,-210.29 442.29,-199.6"/>
<polygon fill="blue" stroke="blue" points="443.7,-196.39 433.2,-195 440.54,-202.64 443.7,-196.39"/>
<text text-anchor="middle" x="525.7" y="-215.8" font-family="Times,serif" font-size="14.00">4</text>
</g>
<!-- r4 -->
<g id="node11" class="node">
<title>r4</title>
<ellipse fill="coral" stroke="black" cx="120.2" cy="-18" rx="43.51" ry="18"/>
<text text-anchor="middle" x="120.2" y="-13.8" font-family="Times,serif" font-size="14.00">print (#4)</text>
</g>
<!-- r3&#45;&gt;r4 -->
<g id="edge14" class="edge">
<title>r3:se&#45;&gt;r4:n</title>
<path fill="none" stroke="black" d="M120.2,-74C129.53,-64.67 124.28,-57.03 121.54,-46.08"/>
<polygon fill="black" stroke="black" points="124.99,-45.45 120.2,-36 118.05,-46.37 124.99,-45.45"/>
<text text-anchor="middle" x="133.81" y="-62.8" font-family="Times,serif" font-size="14.00">/sum</text>
</g>
<!-- initializerr3_1 -->
<!-- initializerr3_1&#45;&gt;r3 -->
<g id="edge13" class="edge">
<title>initializerr3_1&#45;&gt;r3:w</title>
<path fill="none" stroke="blue" d="M54.07,-158.8C47.32,-137.65 39.2,-103.35 53.53,-93.64"/>
<polygon fill="blue" stroke="blue" points="54.48,-97.01 63.2,-91 52.63,-90.26 54.48,-97.01"/>
<text text-anchor="middle" x="52.7" y="-129.8" font-family="Times,serif" font-size="14.00">1</text>
</g>
</g>
</svg>
