<?xml version="1.0" encoding="UTF-8" standalone="no"?>
<!DOCTYPE svg PUBLIC "-//W3C//DTD SVG 1.1//EN"
 "http://www.w3.org/Graphics/SVG/1.1/DTD/svg11.dtd">
<!-- Generated by graphviz version 2.40.1 (20161225.0304)
 -->
<!-- Title: sequence Pages: 1 -->
<svg width="1274pt" height="424pt"
 viewBox="28.80 28.80 1245.37 395.54" xmlns="http://www.w3.org/2000/svg" xmlns:xlink="http://www.w3.org/1999/xlink">
<g id="page0,1_graph0" class="graph" transform="scale(1 1) rotate(0) translate(32.8 391.5401)">
<title>sequence</title>
<polygon fill="#ffffff" stroke="transparent" points="-4,4 -4,-362.7401 1212.5686,-362.7401 1212.5686,4 -4,4"/>
<text text-anchor="middle" x="604.2843" y="-343.5401" font-family="Times,serif" font-size="14.00" fill="#000000">sequence</text>
<!-- /arrays/sequence/start -->
<g id="node1" class="node">
<title>/arrays/sequence/start</title>
<polygon fill="#ffffff" stroke="#000000" points="778.0294,-323.3024 737.0854,-335.7401 696.1413,-323.3024 696.1795,-303.1778 777.9912,-303.1778 778.0294,-323.3024"/>
<text text-anchor="middle" x="737.0854" y="-314.0401" font-family="Times,serif" font-size="14.00" fill="#000000">start</text>
</g>
<!-- /arrays/sequence/compare -->
<g id="node6" class="node">
<title>/arrays/sequence/compare</title>
<g id="a_node6"><a xlink:href="../../flowstdlib/control/compare_switch/compare_switch.html" xlink:title="compare\n(compare_switch)">
<ellipse fill="#ff7f50" stroke="#000000" cx="704.0854" cy="-167.8701" rx="101.6471" ry="26.7407"/>
<text text-anchor="middle" x="704.0854" y="-171.6701" font-family="Times,serif" font-size="14.00" fill="#000000">compare</text>
<text text-anchor="middle" x="704.0854" y="-156.6701" font-family="Times,serif" font-size="14.00" fill="#000000">(compare_switch)</text>
</a>
</g>
</g>
<!-- /arrays/sequence/start&#45;&gt;/arrays/sequence/compare -->
<g id="edge4" class="edge">
<title>/arrays/sequence/start:s&#45;&gt;/arrays/sequence/compare:ne</title>
<path fill="none" stroke="#000000" d="M737.0854,-302.7401C737.0854,-257.8521 760.4707,-232.1525 736.738,-201.3811"/>
<polygon fill="#000000" stroke="#000000" points="739.3358,-199.0353 730.0854,-193.8701 734.0957,-203.6766 739.3358,-199.0353"/>
<text text-anchor="middle" x="712.0854" y="-197.6701" font-family="Times,serif" font-size="14.00" fill="#000000">right</text>
</g>
<!-- /arrays/sequence/end -->
<g id="node2" class="node">
<title>/arrays/sequence/end</title>
<polygon fill="#ffffff" stroke="#000000" points="865.6755,-323.3024 831.0854,-335.7401 796.4952,-323.3024 796.5275,-303.1778 865.6432,-303.1778 865.6755,-323.3024"/>
<text text-anchor="middle" x="831.0854" y="-314.0401" font-family="Times,serif" font-size="14.00" fill="#000000">end</text>
</g>
<!-- /arrays/sequence/end&#45;&gt;/arrays/sequence/compare -->
<g id="edge5" class="edge">
<title>/arrays/sequence/end:s&#45;&gt;/arrays/sequence/compare:ne</title>
<path fill="none" stroke="#000000" d="M831.0854,-302.7401C831.0854,-251.5151 797.0355,-247.1463 759.0854,-212.7401 750.7192,-205.1552 744.865,-204.398 738.0388,-200.2244"/>
<polygon fill="#000000" stroke="#000000" points="740.0828,-197.3775 730.0854,-193.8701 735.7134,-202.8465 740.0828,-197.3775"/>
<text text-anchor="middle" x="742.5854" y="-197.6701" font-family="Times,serif" font-size="14.00" fill="#000000">left</text>
</g>
<!-- /arrays/sequence/step -->
<g id="node3" class="node">
<title>/arrays/sequence/step</title>
<polygon fill="#ffffff" stroke="#000000" points="382.6039,-323.3024 345.0854,-335.7401 307.5668,-323.3024 307.6018,-303.1778 382.5689,-303.1778 382.6039,-323.3024"/>
<text text-anchor="middle" x="345.0854" y="-314.0401" font-family="Times,serif" font-size="14.00" fill="#000000">step</text>
</g>
<!-- /arrays/sequence/add -->
<g id="node9" class="node">
<title>/arrays/sequence/add</title>
<g id="a_node9"><a xlink:href="../../flowstdlib/math/add/add.html" xlink:title="add">
<ellipse fill="#ff7f50" stroke="#000000" cx="456.0854" cy="-72" rx="27.8951" ry="18"/>
<text text-anchor="middle" x="456.0854" y="-68.3" font-family="Times,serif" font-size="14.00" fill="#000000">add</text>
</a>
</g>
</g>
<!-- /arrays/sequence/step&#45;&gt;/arrays/sequence/add -->
<g id="edge6" class="edge">
<title>/arrays/sequence/step:s&#45;&gt;/arrays/sequence/add:w</title>
<path fill="none" stroke="#000000" d="M345.0854,-302.7401C345.0854,-235.0467 393.8782,-105.9793 419.535,-77.6061"/>
<polygon fill="#000000" stroke="#000000" points="421.6417,-80.4101 428.0854,-72 417.8035,-74.5562 421.6417,-80.4101"/>
<text text-anchor="middle" x="421.0854" y="-75.8" font-family="Times,serif" font-size="14.00" fill="#000000">i2</text>
</g>
<!-- /arrays/sequence/sequence -->
<g id="node4" class="node">
<title>/arrays/sequence/sequence</title>
<polygon fill="#000000" stroke="#000000" points="510.6187,-12.4377 578.0854,0 645.552,-12.4377 645.489,-32.5623 510.6817,-32.5623 510.6187,-12.4377"/>
<text text-anchor="middle" x="578.0854" y="-14.3" font-family="Times,serif" font-size="14.00" fill="#ffffff">sequence</text>
</g>
<!-- /arrays/sequence/last -->
<g id="node5" class="node">
<title>/arrays/sequence/last</title>
<polygon fill="#000000" stroke="#000000" points="663.4952,-12.4377 698.0854,0 732.6755,-12.4377 732.6432,-32.5623 663.5275,-32.5623 663.4952,-12.4377"/>
<text text-anchor="middle" x="698.0854" y="-14.3" font-family="Times,serif" font-size="14.00" fill="#ffffff">last</text>
</g>
<!-- /arrays/sequence/compare&#45;&gt;/arrays/sequence/sequence -->
<g id="edge8" class="edge">
<title>/arrays/sequence/compare:s&#45;&gt;/arrays/sequence/sequence:n</title>
<path fill="none" stroke="#000000" d="M704.0854,-141C704.0854,-107.4351 599.7089,-76.0526 580.9538,-42.8798"/>
<polygon fill="#000000" stroke="#000000" points="584.2348,-41.6276 578.0854,-33 577.5124,-43.5793 584.2348,-41.6276"/>
<text text-anchor="middle" x="611.3402" y="-90.6616" font-family="Times,serif" font-size="14.00" fill="#000000">right&#45;lte</text>
</g>
<!-- /arrays/sequence/compare&#45;&gt;/arrays/sequence/last -->
<g id="edge12" class="edge">
<title>/arrays/sequence/compare:s&#45;&gt;/arrays/sequence/last:n</title>
<path fill="none" stroke="#000000" d="M704.0854,-141C704.0854,-96.494 698.9429,-83.0328 698.1796,-43.135"/>
<polygon fill="#000000" stroke="#000000" points="701.6783,-42.967 698.0854,-33 694.6786,-43.0321 701.6783,-42.967"/>
<text text-anchor="middle" x="733.0939" y="-90.885" font-family="Times,serif" font-size="14.00" fill="#000000">right&#45;gte</text>
</g>
<!-- /arrays/sequence/compare&#45;&gt;/arrays/sequence/compare -->
<g id="edge9" class="edge">
<title>/arrays/sequence/compare:s&#45;&gt;/arrays/sequence/compare:ne</title>
<path fill="none" stroke="#000000" d="M704.0854,-140.8701C744.0265,-127.8701 823.9087,-127.8701 823.9087,-167.3701 823.9087,-203.6298 778.504,-206.6043 740.1586,-196.7922"/>
<polygon fill="#000000" stroke="#000000" points="740.6646,-193.2947 730.0854,-193.8701 738.7143,-200.0176 740.6646,-193.2947"/>
<text text-anchor="middle" x="687.4457" y="-128.0684" font-family="Times,serif" font-size="14.00" fill="#000000">left&#45;gt</text>
<text text-anchor="middle" x="717.5854" y="-182.6701" font-family="Times,serif" font-size="14.00" fill="#000000">left</text>
</g>
<!-- /arrays/sequence/compare&#45;&gt;/arrays/sequence/add -->
<g id="edge10" class="edge">
<title>/arrays/sequence/compare:sw&#45;&gt;/arrays/sequence/add:ne</title>
<path fill="none" stroke="#000000" d="M678.0854,-141.8701C641.7711,-105.5558 613.6651,-136.3903 564.0854,-123 525.3153,-112.5291 506.2667,-117.8562 479.4734,-94.8716"/>
<polygon fill="#000000" stroke="#000000" points="481.7914,-92.2477 472.0854,-88 477.0241,-97.3734 481.7914,-92.2477"/>
<text text-anchor="middle" x="538.5712" y="-126.7962" font-family="Times,serif" font-size="14.00" fill="#000000">right&#45;lt</text>
<text text-anchor="middle" x="479.0854" y="-91.8" font-family="Times,serif" font-size="14.00" fill="#000000">i1</text>
</g>
<!-- initializer/arrays/sequence/compare_0 -->
<!-- initializer/arrays/sequence/compare_0&#45;&gt;/arrays/sequence/compare -->
<g id="edge1" class="edge">
<title>initializer/arrays/sequence/compare_0&#45;&gt;/arrays/sequence/compare:ne</title>
<path fill="none" stroke="#0000ff" stroke-dasharray="1,5" d="M961.221,-246.5724C924.0777,-236.0593 874.9906,-222.7489 831.0854,-212.7401 790.2143,-203.423 766.4807,-222.5205 737.8839,-200.7383"/>
<polygon fill="#0000ff" stroke="#0000ff" points="739.9031,-197.8528 730.0854,-193.8701 735.2766,-203.1059 739.9031,-197.8528"/>
<text text-anchor="middle" x="897.5854" y="-216.5401" font-family="Times,serif" font-size="14.00" fill="#000000">20</text>
</g>
<!-- initializer/arrays/sequence/compare_1 -->
<!-- initializer/arrays/sequence/compare_1&#45;&gt;/arrays/sequence/compare -->
<g id="edge2" class="edge">
<title>initializer/arrays/sequence/compare_1&#45;&gt;/arrays/sequence/compare:ne</title>
<path fill="none" stroke="#0000ff" stroke-dasharray="1,5" d="M623.9411,-247.239C671.2287,-235.5595 724.5198,-219.2879 732.1704,-203.8433"/>
<polygon fill="#0000ff" stroke="#0000ff" points="735.5577,-202.9422 730.0854,-193.8701 728.7058,-204.3747 735.5577,-202.9422"/>
<text text-anchor="middle" x="727.0854" y="-216.5401" font-family="Times,serif" font-size="14.00" fill="#000000">1</text>
</g>
<!-- /arrays/sequence/add&#45;&gt;/arrays/sequence/compare -->
<g id="edge11" class="edge">
<title>/arrays/sequence/add:sw&#45;&gt;/arrays/sequence/compare:ne</title>
<path fill="none" stroke="#000000" d="M440.0854,-56C440.0854,-56 428.1378,-90 428.1378,-90 435.1064,-97.9726 798.9401,-133.0274 805.9087,-141 805.9087,-141 758.231,-174.2447 738.4895,-188.01"/>
<polygon fill="#000000" stroke="#000000" points="736.2863,-185.2794 730.0854,-193.8701 740.29,-191.0214 736.2863,-185.2794"/>
<text text-anchor="middle" x="601.6858" y="-115.7167" font-family="Times,serif" font-size="14.00" fill="#000000">sum</text>
<text text-anchor="middle" x="748.0854" y="-182.6701" font-family="Times,serif" font-size="14.00" fill="#000000">right</text>
</g>
<!-- /arrays/sequence/add&#45;&gt;/arrays/sequence/add -->
<g id="edge7" class="edge">
<title>/arrays/sequence/add:e&#45;&gt;/arrays/sequence/add:w</title>
<path fill="none" stroke="#000000" d="M484.0854,-72C502.0329,-85 502.0329,-111 456.0854,-111 417.6761,-111 411.3746,-92.8314 420.8247,-79.276"/>
<polygon fill="#000000" stroke="#000000" points="423.4992,-81.5508 428.0854,-72 418.5442,-76.6063 423.4992,-81.5508"/>
<text text-anchor="middle" x="491.0919" y="-75.8048" font-family="Times,serif" font-size="14.00" fill="#000000">i2</text>
<text text-anchor="middle" x="421.0854" y="-60.8" font-family="Times,serif" font-size="14.00" fill="#000000">i2</text>
</g>
<!-- initializer/arrays/sequence/add_1 -->
<!-- initializer/arrays/sequence/add_1&#45;&gt;/arrays/sequence/add -->
<g id="edge3" class="edge">
<title>initializer/arrays/sequence/add_1&#45;&gt;/arrays/sequence/add:w</title>
<path fill="none" stroke="#0000ff" stroke-dasharray="1,5" d="M193.4262,-150.0623C238.6006,-123.3663 330.7613,-75.7048 418.0213,-72.2042"/>
<polygon fill="#0000ff" stroke="#0000ff" points="418.1585,-75.7023 428.0854,-72 418.0164,-68.7037 418.1585,-75.7023"/>
<text text-anchor="middle" x="281.0854" y="-111.8" font-family="Times,serif" font-size="14.00" fill="#000000">1</text>
</g>
</g>
</svg>
