<?xml version="1.0" encoding="UTF-8" standalone="no"?>
<!DOCTYPE svg PUBLIC "-//W3C//DTD SVG 1.1//EN"
 "http://www.w3.org/Graphics/SVG/1.1/DTD/svg11.dtd">
<!-- Generated by graphviz version 2.44.0 (20200408.0750)
 -->
<!-- Title: sequence Pages: 1 -->
<svg width="1017pt" height="442pt"
 viewBox="28.80 28.80 988.48 413.28" xmlns="http://www.w3.org/2000/svg" xmlns:xlink="http://www.w3.org/1999/xlink">
<g id="graph0" class="graph" transform="scale(1 1) rotate(0) translate(32.8 409.28)">
<title>sequence</title>
<polygon fill="white" stroke="transparent" points="-4,4 -4,-380.48 955.68,-380.48 955.68,4 -4,4"/>
<text text-anchor="middle" x="475.84" y="-361.28" font-family="Times,serif" font-size="14.00">sequence</text>
<!-- /arrays/sequence/start -->
<g id="node1" class="node">
<title>/arrays/sequence/start</title>
<polygon fill="white" stroke="black" points="610.01,-341.04 577.74,-353.48 545.47,-341.04 545.5,-320.92 609.98,-320.92 610.01,-341.04"/>
<text text-anchor="middle" x="577.74" y="-331.78" font-family="Times,serif" font-size="14.00">start</text>
</g>
<!-- /arrays/sequence/compare -->
<g id="node6" class="node">
<title>/arrays/sequence/compare</title>
<g id="a_node6"><a xlink:href="../../flowstdlib/control/compare_switch/compare_switch.toml" xlink:title="compare\n(CompareSwitch)">
<ellipse fill="coral" stroke="black" cx="551.74" cy="-185.61" rx="79.81" ry="26.74"/>
<text text-anchor="middle" x="551.74" y="-189.41" font-family="Times,serif" font-size="14.00">compare</text>
<text text-anchor="middle" x="551.74" y="-174.41" font-family="Times,serif" font-size="14.00">(CompareSwitch)</text>
</a>
</g>
</g>
<!-- /arrays/sequence/start&#45;&gt;/arrays/sequence/compare -->
<g id="edge4" class="edge">
<title>/arrays/sequence/start:s&#45;&gt;/arrays/sequence/compare:ne</title>
<path fill="none" stroke="black" d="M577.74,-319.48C577.74,-275.64 606.32,-250.27 584.44,-220.23"/>
<polygon fill="black" stroke="black" points="586.92,-217.76 577.74,-212.48 581.63,-222.34 586.92,-217.76"/>
<text text-anchor="middle" x="564.74" y="-216.28" font-family="Times,serif" font-size="14.00">right</text>
</g>
<!-- /arrays/sequence/end -->
<g id="node2" class="node">
<title>/arrays/sequence/end</title>
<polygon fill="white" stroke="black" points="685.58,-341.04 656.74,-353.48 627.9,-341.04 627.92,-320.92 685.55,-320.92 685.58,-341.04"/>
<text text-anchor="middle" x="656.74" y="-331.78" font-family="Times,serif" font-size="14.00">end</text>
</g>
<!-- /arrays/sequence/end&#45;&gt;/arrays/sequence/compare -->
<g id="edge5" class="edge">
<title>/arrays/sequence/end:s&#45;&gt;/arrays/sequence/compare:ne</title>
<path fill="none" stroke="black" d="M656.74,-319.48C656.74,-273.67 636.16,-263.82 604.74,-230.48 597.63,-222.94 592.06,-222.21 585.7,-218.61"/>
<polygon fill="black" stroke="black" points="587.8,-215.8 577.74,-212.48 583.53,-221.35 587.8,-215.8"/>
<text text-anchor="middle" x="587.24" y="-216.28" font-family="Times,serif" font-size="14.00">left</text>
</g>
<!-- /arrays/sequence/step -->
<g id="node3" class="node">
<title>/arrays/sequence/step</title>
<polygon fill="white" stroke="black" points="299.3,-341.04 268.74,-353.48 238.18,-341.04 238.21,-320.92 299.27,-320.92 299.3,-341.04"/>
<text text-anchor="middle" x="268.74" y="-331.78" font-family="Times,serif" font-size="14.00">step</text>
</g>
<!-- /arrays/sequence/add -->
<g id="node9" class="node">
<title>/arrays/sequence/add</title>
<g id="a_node9"><a xlink:href="../../flowstdlib/math/add/add.toml" xlink:title="add\n(Add)">
<ellipse fill="coral" stroke="black" cx="347.74" cy="-80.87" rx="34.8" ry="26.74"/>
<text text-anchor="middle" x="347.74" y="-84.67" font-family="Times,serif" font-size="14.00">add</text>
<text text-anchor="middle" x="347.74" y="-69.67" font-family="Times,serif" font-size="14.00">(Add)</text>
</a>
</g>
</g>
<!-- /arrays/sequence/step&#45;&gt;/arrays/sequence/add -->
<g id="edge6" class="edge">
<title>/arrays/sequence/step:s&#45;&gt;/arrays/sequence/add:w</title>
<path fill="none" stroke="black" d="M268.74,-319.48C268.74,-269.18 259.26,-104.83 301.84,-83.22"/>
<polygon fill="black" stroke="black" points="302.82,-86.59 311.74,-80.87 301.2,-79.78 302.82,-86.59"/>
<text text-anchor="middle" x="306.24" y="-84.67" font-family="Times,serif" font-size="14.00">i2</text>
</g>
<!-- /arrays/sequence/sequence -->
<g id="node4" class="node">
<title>/arrays/sequence/sequence</title>
<polygon fill="black" stroke="black" points="393.69,-12.44 446.74,0 499.78,-12.44 499.73,-32.56 393.74,-32.56 393.69,-12.44"/>
<text text-anchor="middle" x="446.74" y="-14.3" font-family="Times,serif" font-size="14.00" fill="white">sequence</text>
</g>
<!-- /arrays/sequence/last -->
<g id="node5" class="node">
<title>/arrays/sequence/last</title>
<polygon fill="black" stroke="black" points="517.5,-12.44 545.74,0 573.98,-12.44 573.95,-32.56 517.53,-32.56 517.5,-12.44"/>
<text text-anchor="middle" x="545.74" y="-14.3" font-family="Times,serif" font-size="14.00" fill="white">last</text>
</g>
<!-- /arrays/sequence/compare&#45;&gt;/arrays/sequence/sequence -->
<g id="edge8" class="edge">
<title>/arrays/sequence/compare:s&#45;&gt;/arrays/sequence/sequence:n</title>
<path fill="none" stroke="black" d="M551.74,-158.74C551.74,-125.76 464.76,-79.5 449.13,-44.13"/>
<polygon fill="black" stroke="black" points="452.44,-42.93 446.74,-34 445.63,-44.54 452.44,-42.93"/>
<text text-anchor="middle" x="477.03" y="-100" font-family="Times,serif" font-size="14.00">right&#45;lte</text>
</g>
<!-- /arrays/sequence/compare&#45;&gt;/arrays/sequence/last -->
<g id="edge12" class="edge">
<title>/arrays/sequence/compare:s&#45;&gt;/arrays/sequence/last:n</title>
<path fill="none" stroke="black" d="M551.74,-158.74C551.74,-106.81 546.49,-91.45 545.81,-44.23"/>
<polygon fill="black" stroke="black" points="549.31,-43.98 545.74,-34 542.31,-44.02 549.31,-43.98"/>
<text text-anchor="middle" x="525.23" y="-100.1" font-family="Times,serif" font-size="14.00">right&#45;gte</text>
</g>
<!-- /arrays/sequence/compare&#45;&gt;/arrays/sequence/compare -->
<g id="edge9" class="edge">
<title>/arrays/sequence/compare:s&#45;&gt;/arrays/sequence/compare:ne</title>
<path fill="none" stroke="black" d="M551.74,-158.61C584.37,-145.61 649.64,-145.61 649.64,-185.11 649.64,-220.75 617.67,-224.23 587.45,-215.02"/>
<polygon fill="black" stroke="black" points="588.33,-211.62 577.74,-211.61 586.01,-218.23 588.33,-211.62"/>
<text text-anchor="middle" x="537.89" y="-146.23" font-family="Times,serif" font-size="14.00">left&#45;gt</text>
<text text-anchor="middle" x="568.24" y="-200.41" font-family="Times,serif" font-size="14.00">left</text>
</g>
<!-- /arrays/sequence/compare&#45;&gt;/arrays/sequence/add -->
<g id="edge10" class="edge">
<title>/arrays/sequence/compare:sw&#45;&gt;/arrays/sequence/add:ne</title>
<path fill="none" stroke="black" d="M525.74,-158.74C495.97,-128.97 472.1,-155.68 432.74,-140.74 405.22,-130.29 394.49,-126.95 375.96,-109.84"/>
<polygon fill="black" stroke="black" points="378.37,-107.29 368.74,-102.87 373.51,-112.33 378.37,-107.29"/>
<text text-anchor="middle" x="413.72" y="-144.53" font-family="Times,serif" font-size="14.00">right&#45;lt</text>
<text text-anchor="middle" x="363.24" y="-106.67" font-family="Times,serif" font-size="14.00">i1</text>
</g>
<!-- initializer/arrays/sequence/compare_0 -->
<!-- initializer/arrays/sequence/compare_0&#45;&gt;/arrays/sequence/compare -->
<g id="edge1" class="edge">
<title>initializer/arrays/sequence/compare_0&#45;&gt;/arrays/sequence/compare:ne</title>
<path fill="none" stroke="blue" stroke-dasharray="1,5" d="M763.71,-264.27C734.85,-253.76 695.84,-240.26 660.74,-230.48 627.93,-221.34 608.48,-235.77 585.39,-219.07"/>
<polygon fill="blue" stroke="blue" points="587.6,-216.35 577.74,-212.48 583.03,-221.66 587.6,-216.35"/>
<text text-anchor="middle" x="715.74" y="-234.28" font-family="Times,serif" font-size="14.00">20</text>
</g>
<!-- initializer/arrays/sequence/compare_1 -->
<!-- initializer/arrays/sequence/compare_1&#45;&gt;/arrays/sequence/compare -->
<g id="edge2" class="edge">
<title>initializer/arrays/sequence/compare_1&#45;&gt;/arrays/sequence/compare:ne</title>
<path fill="none" stroke="blue" stroke-dasharray="1,5" d="M474.13,-264.27C509.8,-251.07 556.08,-232.77 572.43,-221.11"/>
<polygon fill="blue" stroke="blue" points="575.48,-222.83 577.74,-212.48 569.52,-219.17 575.48,-222.83"/>
<text text-anchor="middle" x="558.24" y="-234.28" font-family="Times,serif" font-size="14.00">1</text>
</g>
<!-- /arrays/sequence/add&#45;&gt;/arrays/sequence/compare -->
<g id="edge11" class="edge">
<title>/arrays/sequence/add:sw&#45;&gt;/arrays/sequence/compare:ne</title>
<path fill="none" stroke="black" d="M326.74,-58.87C322.44,-54.57 317.23,-55.41 313.09,-59.87 298.61,-75.45 299.25,-91.58 313.09,-107.74 330.01,-127.49 403.05,-121.65 428.74,-125.74 518.97,-140.1 572.45,-89.14 631.64,-158.74 646.87,-176.64 648.1,-194.84 631.64,-211.61 625.15,-218.22 601.52,-220.27 587.23,-216.94"/>
<polygon fill="black" stroke="black" points="588.29,-213.58 577.74,-212.61 585.38,-219.95 588.29,-213.58"/>
<text text-anchor="middle" x="440.69" y="-116.99" font-family="Times,serif" font-size="14.00">sum</text>
<text text-anchor="middle" x="590.74" y="-216.41" font-family="Times,serif" font-size="14.00">right</text>
</g>
<!-- /arrays/sequence/add&#45;&gt;/arrays/sequence/add -->
<g id="edge7" class="edge">
<title>/arrays/sequence/add:e&#45;&gt;/arrays/sequence/add:w</title>
<path fill="none" stroke="black" d="M382.74,-80.87C400.39,-98.49 400.39,-133.74 347.74,-133.74 302.29,-133.74 296.07,-107.47 306.58,-88.95"/>
<polygon fill="black" stroke="black" points="309.46,-90.95 312.74,-80.87 303.89,-86.7 309.46,-90.95"/>
<text text-anchor="middle" x="388.25" y="-84.68" font-family="Times,serif" font-size="14.00">i2</text>
<text text-anchor="middle" x="307.24" y="-69.67" font-family="Times,serif" font-size="14.00">i2</text>
</g>
<!-- initializer/arrays/sequence/add_1 -->
<!-- initializer/arrays/sequence/add_1&#45;&gt;/arrays/sequence/add -->
<g id="edge3" class="edge">
<title>initializer/arrays/sequence/add_1&#45;&gt;/arrays/sequence/add:w</title>
<path fill="none" stroke="blue" stroke-dasharray="1,5" d="M143.34,-167.48C172.27,-139.45 235.22,-86.38 301.51,-81.27"/>
<polygon fill="blue" stroke="blue" points="301.88,-84.76 311.74,-80.87 301.61,-77.76 301.88,-84.76"/>
<text text-anchor="middle" x="196.24" y="-129.54" font-family="Times,serif" font-size="14.00">1</text>
</g>
</g>
</svg>
