<?xml version="1.0" encoding="UTF-8" standalone="no"?>
<!DOCTYPE svg PUBLIC "-//W3C//DTD SVG 1.1//EN"
 "http://www.w3.org/Graphics/SVG/1.1/DTD/svg11.dtd">
<!-- Generated by graphviz version 2.44.1 (20200629.0846)
 -->
<!-- Title: sequence Pages: 1 -->
<svg width="1017pt" height="424pt"
 viewBox="28.80 28.80 988.48 395.54" xmlns="http://www.w3.org/2000/svg" xmlns:xlink="http://www.w3.org/1999/xlink">
<g id="graph0" class="graph" transform="scale(1 1) rotate(0) translate(32.8 391.54)">
<title>sequence</title>
<polygon fill="white" stroke="transparent" points="-4,4 -4,-362.74 955.68,-362.74 955.68,4 -4,4"/>
<text text-anchor="middle" x="475.84" y="-343.54" font-family="Times,serif" font-size="14.00">sequence</text>
<!-- /arrays/sequence/start -->
<g id="node1" class="node">
<title>/arrays/sequence/start</title>
<polygon fill="white" stroke="black" points="610.01,-323.3 577.74,-335.74 545.47,-323.3 545.5,-303.18 609.98,-303.18 610.01,-323.3"/>
<text text-anchor="middle" x="577.74" y="-314.04" font-family="Times,serif" font-size="14.00">start</text>
</g>
<!-- /arrays/sequence/compare -->
<g id="node6" class="node">
<title>/arrays/sequence/compare</title>
<g id="a_node6"><a xlink:href="../../flowstdlib/control/compare_switch/compare_switch.html" xlink:title="compare\n(compare_switch)">
<ellipse fill="coral" stroke="black" cx="549.74" cy="-167.87" rx="81.13" ry="26.74"/>
<text text-anchor="middle" x="549.74" y="-171.67" font-family="Times,serif" font-size="14.00">compare</text>
<text text-anchor="middle" x="549.74" y="-156.67" font-family="Times,serif" font-size="14.00">(compare_switch)</text>
</a>
</g>
</g>
<!-- /arrays/sequence/start&#45;&gt;/arrays/sequence/compare -->
<g id="edge4" class="edge">
<title>/arrays/sequence/start:s&#45;&gt;/arrays/sequence/compare:ne</title>
<path fill="none" stroke="black" d="M577.74,-301.74C577.74,-257.89 604.62,-232.54 582.47,-202.49"/>
<polygon fill="black" stroke="black" points="584.94,-200 575.74,-194.74 579.65,-204.59 584.94,-200"/>
<text text-anchor="middle" x="562.74" y="-198.54" font-family="Times,serif" font-size="14.00">right</text>
</g>
<!-- /arrays/sequence/end -->
<g id="node2" class="node">
<title>/arrays/sequence/end</title>
<polygon fill="white" stroke="black" points="685.58,-323.3 656.74,-335.74 627.9,-323.3 627.92,-303.18 685.55,-303.18 685.58,-323.3"/>
<text text-anchor="middle" x="656.74" y="-314.04" font-family="Times,serif" font-size="14.00">end</text>
</g>
<!-- /arrays/sequence/end&#45;&gt;/arrays/sequence/compare -->
<g id="edge5" class="edge">
<title>/arrays/sequence/end:s&#45;&gt;/arrays/sequence/compare:ne</title>
<path fill="none" stroke="black" d="M656.74,-301.74C656.74,-255.7 635.73,-245.85 603.74,-212.74 596.35,-205.09 590.52,-204.54 583.94,-200.96"/>
<polygon fill="black" stroke="black" points="585.82,-197.99 575.74,-194.74 581.6,-203.57 585.82,-197.99"/>
<text text-anchor="middle" x="585.24" y="-198.54" font-family="Times,serif" font-size="14.00">left</text>
</g>
<!-- /arrays/sequence/step -->
<g id="node3" class="node">
<title>/arrays/sequence/step</title>
<polygon fill="white" stroke="black" points="299.3,-323.3 268.74,-335.74 238.18,-323.3 238.21,-303.18 299.27,-303.18 299.3,-323.3"/>
<text text-anchor="middle" x="268.74" y="-314.04" font-family="Times,serif" font-size="14.00">step</text>
</g>
<!-- /arrays/sequence/add -->
<g id="node9" class="node">
<title>/arrays/sequence/add</title>
<g id="a_node9"><a xlink:href="../../flowstdlib/math/add/add.html" xlink:title="add">
<ellipse fill="coral" stroke="black" cx="346.74" cy="-72" rx="27" ry="18"/>
<text text-anchor="middle" x="346.74" y="-68.3" font-family="Times,serif" font-size="14.00">add</text>
</a>
</g>
</g>
<!-- /arrays/sequence/step&#45;&gt;/arrays/sequence/add -->
<g id="edge6" class="edge">
<title>/arrays/sequence/step:s&#45;&gt;/arrays/sequence/add:w</title>
<path fill="none" stroke="black" d="M268.74,-301.74C268.74,-253.06 266.79,-95.68 308.77,-74.39"/>
<polygon fill="black" stroke="black" points="309.83,-77.74 318.74,-72 308.2,-70.93 309.83,-77.74"/>
<text text-anchor="middle" x="313.24" y="-75.8" font-family="Times,serif" font-size="14.00">i2</text>
</g>
<!-- /arrays/sequence/sequence -->
<g id="node4" class="node">
<title>/arrays/sequence/sequence</title>
<polygon fill="black" stroke="black" points="391.69,-12.44 444.74,0 497.78,-12.44 497.73,-32.56 391.74,-32.56 391.69,-12.44"/>
<text text-anchor="middle" x="444.74" y="-14.3" font-family="Times,serif" font-size="14.00" fill="white">sequence</text>
</g>
<!-- /arrays/sequence/last -->
<g id="node5" class="node">
<title>/arrays/sequence/last</title>
<polygon fill="black" stroke="black" points="515.5,-12.44 543.74,0 571.98,-12.44 571.95,-32.56 515.53,-32.56 515.5,-12.44"/>
<text text-anchor="middle" x="543.74" y="-14.3" font-family="Times,serif" font-size="14.00" fill="white">last</text>
</g>
<!-- /arrays/sequence/compare&#45;&gt;/arrays/sequence/sequence -->
<g id="edge8" class="edge">
<title>/arrays/sequence/compare:s&#45;&gt;/arrays/sequence/sequence:n</title>
<path fill="none" stroke="black" d="M549.74,-141C549.74,-110.94 464.25,-75.13 447.55,-43.95"/>
<polygon fill="black" stroke="black" points="450.82,-42.67 444.74,-34 444.09,-44.57 450.82,-42.67"/>
<text text-anchor="middle" x="475.16" y="-91.24" font-family="Times,serif" font-size="14.00">right&#45;lte</text>
</g>
<!-- /arrays/sequence/compare&#45;&gt;/arrays/sequence/last -->
<g id="edge12" class="edge">
<title>/arrays/sequence/compare:s&#45;&gt;/arrays/sequence/last:n</title>
<path fill="none" stroke="black" d="M549.74,-141C549.74,-96.9 544.6,-83.57 543.83,-44.04"/>
<polygon fill="black" stroke="black" points="547.33,-43.97 543.74,-34 540.33,-44.03 547.33,-43.97"/>
<text text-anchor="middle" x="523.25" y="-91.38" font-family="Times,serif" font-size="14.00">right&#45;gte</text>
</g>
<!-- /arrays/sequence/compare&#45;&gt;/arrays/sequence/compare -->
<g id="edge9" class="edge">
<title>/arrays/sequence/compare:s&#45;&gt;/arrays/sequence/compare:ne</title>
<path fill="none" stroke="black" d="M549.74,-140.87C582.84,-127.87 649.06,-127.87 649.06,-167.37 649.06,-203.17 616.03,-206.52 585.2,-197.16"/>
<polygon fill="black" stroke="black" points="586.33,-193.85 575.74,-193.87 584.03,-200.46 586.33,-193.85"/>
<text text-anchor="middle" x="536.35" y="-128.35" font-family="Times,serif" font-size="14.00">left&#45;gt</text>
<text text-anchor="middle" x="566.24" y="-182.67" font-family="Times,serif" font-size="14.00">left</text>
</g>
<!-- /arrays/sequence/compare&#45;&gt;/arrays/sequence/add -->
<g id="edge10" class="edge">
<title>/arrays/sequence/compare:sw&#45;&gt;/arrays/sequence/add:ne</title>
<path fill="none" stroke="black" d="M523.74,-141C493.97,-111.23 470.56,-136.65 430.74,-123 401.64,-113.02 388.84,-112.35 369.06,-94.91"/>
<polygon fill="black" stroke="black" points="371.42,-92.31 361.74,-88 366.61,-97.41 371.42,-92.31"/>
<text text-anchor="middle" x="411.72" y="-126.79" font-family="Times,serif" font-size="14.00">right&#45;lt</text>
<text text-anchor="middle" x="356.24" y="-91.8" font-family="Times,serif" font-size="14.00">i1</text>
</g>
<!-- initializer/arrays/sequence/compare_0 -->
<!-- initializer/arrays/sequence/compare_0&#45;&gt;/arrays/sequence/compare -->
<g id="edge1" class="edge">
<title>initializer/arrays/sequence/compare_0&#45;&gt;/arrays/sequence/compare:ne</title>
<path fill="none" stroke="blue" stroke-dasharray="1,5" d="M763.73,-246.47C734.87,-235.94 695.86,-222.44 660.74,-212.74 627.15,-203.47 607.2,-218.51 583.56,-201.47"/>
<polygon fill="blue" stroke="blue" points="585.6,-198.61 575.74,-194.74 581.04,-203.91 585.6,-198.61"/>
<text text-anchor="middle" x="715.74" y="-216.54" font-family="Times,serif" font-size="14.00">20</text>
</g>
<!-- initializer/arrays/sequence/compare_1 -->
<!-- initializer/arrays/sequence/compare_1&#45;&gt;/arrays/sequence/compare -->
<g id="edge2" class="edge">
<title>initializer/arrays/sequence/compare_1&#45;&gt;/arrays/sequence/compare:ne</title>
<path fill="none" stroke="blue" stroke-dasharray="1,5" d="M473.53,-246.5C508.54,-233.34 553.92,-215.14 570.26,-203.5"/>
<polygon fill="blue" stroke="blue" points="573.41,-205.08 575.74,-194.74 567.47,-201.37 573.41,-205.08"/>
<text text-anchor="middle" x="556.24" y="-216.54" font-family="Times,serif" font-size="14.00">1</text>
</g>
<!-- /arrays/sequence/add&#45;&gt;/arrays/sequence/compare -->
<g id="edge11" class="edge">
<title>/arrays/sequence/add:sw&#45;&gt;/arrays/sequence/compare:ne</title>
<path fill="none" stroke="black" d="M331.74,-56C327.95,-52.22 323.36,-53.06 319.74,-57 309.81,-67.79 310.24,-78.82 319.74,-90 325.41,-96.68 625.38,-134.32 631.06,-141 646.27,-158.91 647.52,-177.11 631.06,-193.87 624.33,-200.72 599.65,-202.78 585.04,-199.21"/>
<polygon fill="black" stroke="black" points="586.28,-195.93 575.74,-194.87 583.32,-202.27 586.28,-195.93"/>
<text text-anchor="middle" x="443.3" y="-116.38" font-family="Times,serif" font-size="14.00">sum</text>
<text text-anchor="middle" x="588.74" y="-198.67" font-family="Times,serif" font-size="14.00">right</text>
</g>
<!-- /arrays/sequence/add&#45;&gt;/arrays/sequence/add -->
<g id="edge7" class="edge">
<title>/arrays/sequence/add:e&#45;&gt;/arrays/sequence/add:w</title>
<path fill="none" stroke="black" d="M373.74,-72C391.74,-85 391.74,-111 346.74,-111 309.12,-111 302.95,-92.83 312.45,-79.28"/>
<polygon fill="black" stroke="black" points="315.14,-81.54 319.74,-72 310.19,-76.59 315.14,-81.54"/>
<text text-anchor="middle" x="379.25" y="-75.8" font-family="Times,serif" font-size="14.00">i2</text>
<text text-anchor="middle" x="314.24" y="-60.8" font-family="Times,serif" font-size="14.00">i2</text>
</g>
<!-- initializer/arrays/sequence/add_1 -->
<!-- initializer/arrays/sequence/add_1&#45;&gt;/arrays/sequence/add -->
<g id="edge3" class="edge">
<title>initializer/arrays/sequence/add_1&#45;&gt;/arrays/sequence/add:w</title>
<path fill="none" stroke="blue" stroke-dasharray="1,5" d="M145.91,-149.91C177.2,-123.95 242.43,-76.89 308.55,-72.35"/>
<polygon fill="blue" stroke="blue" points="308.87,-75.84 318.74,-72 308.62,-68.85 308.87,-75.84"/>
<text text-anchor="middle" x="209.24" y="-111.8" font-family="Times,serif" font-size="14.00">1</text>
</g>
</g>
</svg>
