<?xml version="1.0" encoding="UTF-8" standalone="no"?>
<!DOCTYPE svg PUBLIC "-//W3C//DTD SVG 1.1//EN"
 "http://www.w3.org/Graphics/SVG/1.1/DTD/svg11.dtd">
<!-- Generated by graphviz version 2.42.4 (0)
 -->
<!-- Title: sequence Pages: 1 -->
<svg width="1268pt" height="442pt"
 viewBox="28.80 28.80 1239.42 413.28" xmlns="http://www.w3.org/2000/svg" xmlns:xlink="http://www.w3.org/1999/xlink">
<g id="graph0" class="graph" transform="scale(1 1) rotate(0) translate(32.8 409.28)">
<title>sequence</title>
<polygon fill="white" stroke="transparent" points="-4,4 -4,-380.48 1206.62,-380.48 1206.62,4 -4,4"/>
<text text-anchor="middle" x="601.31" y="-361.28" font-family="Times,serif" font-size="14.00">sequence</text>
<!-- /arrays/sequence/start -->
<g id="node1" class="node">
<title>/arrays/sequence/start</title>
<polygon fill="white" stroke="black" points="774.38,-341.04 733.44,-353.48 692.49,-341.04 692.53,-320.92 774.34,-320.92 774.38,-341.04"/>
<text text-anchor="middle" x="733.44" y="-331.78" font-family="Times,serif" font-size="14.00">start</text>
</g>
<!-- /arrays/sequence/compare -->
<g id="node6" class="node">
<title>/arrays/sequence/compare</title>
<g id="a_node6"><a xlink:href="../../flowstdlib/control/compare_switch/compare_switch.html" xlink:title="compare\n(CompareSwitch)">
<ellipse fill="coral" stroke="black" cx="703.44" cy="-185.61" rx="98.99" ry="26.74"/>
<text text-anchor="middle" x="703.44" y="-189.41" font-family="Times,serif" font-size="14.00">compare</text>
<text text-anchor="middle" x="703.44" y="-174.41" font-family="Times,serif" font-size="14.00">(CompareSwitch)</text>
</a>
</g>
</g>
<!-- /arrays/sequence/start&#45;&gt;/arrays/sequence/compare -->
<g id="edge4" class="edge">
<title>/arrays/sequence/start:s&#45;&gt;/arrays/sequence/compare:ne</title>
<path fill="none" stroke="black" d="M733.44,-319.48C733.44,-275.61 758.63,-250.29 736.21,-220.24"/>
<polygon fill="black" stroke="black" points="738.65,-217.71 729.44,-212.48 733.38,-222.32 738.65,-217.71"/>
<text text-anchor="middle" x="711.44" y="-216.28" font-family="Times,serif" font-size="14.00">right</text>
</g>
<!-- /arrays/sequence/end -->
<g id="node2" class="node">
<title>/arrays/sequence/end</title>
<polygon fill="white" stroke="black" points="862.03,-341.04 827.44,-353.48 792.85,-341.04 792.88,-320.92 861.99,-320.92 862.03,-341.04"/>
<text text-anchor="middle" x="827.44" y="-331.78" font-family="Times,serif" font-size="14.00">end</text>
</g>
<!-- /arrays/sequence/end&#45;&gt;/arrays/sequence/compare -->
<g id="edge5" class="edge">
<title>/arrays/sequence/end:s&#45;&gt;/arrays/sequence/compare:ne</title>
<path fill="none" stroke="black" d="M827.44,-319.48C827.44,-269.16 794.67,-264.33 757.44,-230.48 749.57,-223.33 743.95,-222.56 737.53,-218.81"/>
<polygon fill="black" stroke="black" points="739.47,-215.89 729.44,-212.48 735.15,-221.4 739.47,-215.89"/>
<text text-anchor="middle" x="741.94" y="-216.28" font-family="Times,serif" font-size="14.00">left</text>
</g>
<!-- /arrays/sequence/step -->
<g id="node3" class="node">
<title>/arrays/sequence/step</title>
<polygon fill="white" stroke="black" points="380.95,-341.04 343.44,-353.48 305.92,-341.04 305.95,-320.92 380.92,-320.92 380.95,-341.04"/>
<text text-anchor="middle" x="343.44" y="-331.78" font-family="Times,serif" font-size="14.00">step</text>
</g>
<!-- /arrays/sequence/add -->
<g id="node9" class="node">
<title>/arrays/sequence/add</title>
<g id="a_node9"><a xlink:href="../../flowstdlib/math/add/add.html" xlink:title="add\n(Add)">
<ellipse fill="coral" stroke="black" cx="456.44" cy="-80.87" rx="38.78" ry="26.74"/>
<text text-anchor="middle" x="456.44" y="-84.67" font-family="Times,serif" font-size="14.00">add</text>
<text text-anchor="middle" x="456.44" y="-69.67" font-family="Times,serif" font-size="14.00">(Add)</text>
</a>
</g>
</g>
<!-- /arrays/sequence/step&#45;&gt;/arrays/sequence/add -->
<g id="edge6" class="edge">
<title>/arrays/sequence/step:s&#45;&gt;/arrays/sequence/add:w</title>
<path fill="none" stroke="black" d="M343.44,-319.48C343.44,-248.65 367.85,-105.63 406.35,-83.71"/>
<polygon fill="black" stroke="black" points="407.76,-86.95 416.44,-80.87 405.86,-80.22 407.76,-86.95"/>
<text text-anchor="middle" x="409.44" y="-84.67" font-family="Times,serif" font-size="14.00">i2</text>
</g>
<!-- /arrays/sequence/sequence -->
<g id="node4" class="node">
<title>/arrays/sequence/sequence</title>
<polygon fill="black" stroke="black" points="511.58,-12.44 578.44,0 645.3,-12.44 645.23,-32.56 511.64,-32.56 511.58,-12.44"/>
<text text-anchor="middle" x="578.44" y="-14.3" font-family="Times,serif" font-size="14.00" fill="white">sequence</text>
</g>
<!-- /arrays/sequence/last -->
<g id="node5" class="node">
<title>/arrays/sequence/last</title>
<polygon fill="black" stroke="black" points="662.85,-12.44 697.44,0 732.03,-12.44 731.99,-32.56 662.88,-32.56 662.85,-12.44"/>
<text text-anchor="middle" x="697.44" y="-14.3" font-family="Times,serif" font-size="14.00" fill="white">last</text>
</g>
<!-- /arrays/sequence/compare&#45;&gt;/arrays/sequence/sequence -->
<g id="edge8" class="edge">
<title>/arrays/sequence/compare:s&#45;&gt;/arrays/sequence/sequence:n</title>
<path fill="none" stroke="black" d="M703.44,-158.74C703.44,-122.72 598.1,-80.78 580.82,-43.79"/>
<polygon fill="black" stroke="black" points="584.2,-42.89 578.44,-34 577.4,-44.54 584.2,-42.89"/>
<text text-anchor="middle" x="611.39" y="-100.14" font-family="Times,serif" font-size="14.00">right&#45;lte</text>
</g>
<!-- /arrays/sequence/compare&#45;&gt;/arrays/sequence/last -->
<g id="edge12" class="edge">
<title>/arrays/sequence/compare:s&#45;&gt;/arrays/sequence/last:n</title>
<path fill="none" stroke="black" d="M703.44,-158.74C703.44,-106.81 698.18,-91.45 697.51,-44.23"/>
<polygon fill="black" stroke="black" points="701.01,-43.98 697.44,-34 694.01,-44.02 701.01,-43.98"/>
<text text-anchor="middle" x="668.43" y="-85.1" font-family="Times,serif" font-size="14.00">right&#45;gte</text>
</g>
<!-- /arrays/sequence/compare&#45;&gt;/arrays/sequence/compare -->
<g id="edge9" class="edge">
<title>/arrays/sequence/compare:s&#45;&gt;/arrays/sequence/compare:ne</title>
<path fill="none" stroke="black" d="M703.44,-158.61C742.43,-145.61 820.43,-145.61 820.43,-185.11 820.43,-221.37 776.61,-224.34 739.26,-214.53"/>
<polygon fill="black" stroke="black" points="740.02,-211.11 729.44,-211.61 738.02,-217.82 740.02,-211.11"/>
<text text-anchor="middle" x="686.67" y="-145.81" font-family="Times,serif" font-size="14.00">left&#45;gt</text>
<text text-anchor="middle" x="716.94" y="-200.41" font-family="Times,serif" font-size="14.00">left</text>
</g>
<!-- /arrays/sequence/compare&#45;&gt;/arrays/sequence/add -->
<g id="edge10" class="edge">
<title>/arrays/sequence/compare:sw&#45;&gt;/arrays/sequence/add:ne</title>
<path fill="none" stroke="black" d="M677.44,-158.74C641.48,-122.78 613.29,-154.87 564.44,-140.74 527.92,-130.18 510.87,-132.69 485.76,-110.74"/>
<polygon fill="black" stroke="black" points="488.12,-108.16 478.44,-103.87 483.33,-113.27 488.12,-108.16"/>
<text text-anchor="middle" x="538.92" y="-144.54" font-family="Times,serif" font-size="14.00">right&#45;lt</text>
<text text-anchor="middle" x="471.44" y="-107.67" font-family="Times,serif" font-size="14.00">i1</text>
</g>
<!-- initializer/arrays/sequence/compare_0 -->
<!-- initializer/arrays/sequence/compare_0&#45;&gt;/arrays/sequence/compare -->
<g id="edge1" class="edge">
<title>initializer/arrays/sequence/compare_0&#45;&gt;/arrays/sequence/compare:ne</title>
<path fill="none" stroke="blue" stroke-dasharray="1,5" d="M958.95,-264.22C921.77,-253.82 871.92,-240.47 827.44,-230.48 787.77,-221.58 764.73,-240.24 737,-219.14"/>
<polygon fill="blue" stroke="blue" points="739.25,-216.46 729.44,-212.48 734.63,-221.71 739.25,-216.46"/>
<text text-anchor="middle" x="893.94" y="-234.28" font-family="Times,serif" font-size="14.00">20</text>
</g>
<!-- initializer/arrays/sequence/compare_1 -->
<!-- initializer/arrays/sequence/compare_1&#45;&gt;/arrays/sequence/compare -->
<g id="edge2" class="edge">
<title>initializer/arrays/sequence/compare_1&#45;&gt;/arrays/sequence/compare:ne</title>
<path fill="none" stroke="blue" stroke-dasharray="1,5" d="M603.21,-264.35C647.96,-251.3 705.39,-233.17 724.1,-221.1"/>
<polygon fill="blue" stroke="blue" points="727.14,-222.82 729.44,-212.48 721.19,-219.14 727.14,-222.82"/>
<text text-anchor="middle" x="705.44" y="-234.28" font-family="Times,serif" font-size="14.00">1</text>
</g>
<!-- /arrays/sequence/add&#45;&gt;/arrays/sequence/compare -->
<g id="edge11" class="edge">
<title>/arrays/sequence/add:sw&#45;&gt;/arrays/sequence/compare:ne</title>
<path fill="none" stroke="black" d="M434.44,-57.87C429.12,-52.55 422.7,-53.4 417.54,-58.87 402.65,-74.68 403.23,-91.4 417.54,-107.74 419.32,-109.77 800.65,-156.71 802.43,-158.74 817.92,-176.41 818.93,-194.88 802.43,-211.61 793,-221.17 756.99,-223.45 738.38,-217.44"/>
<polygon fill="black" stroke="black" points="739.9,-214.28 729.44,-212.61 736.58,-220.44 739.9,-214.28"/>
<text text-anchor="middle" x="567.07" y="-118.53" font-family="Times,serif" font-size="14.00">sum</text>
<text text-anchor="middle" x="747.44" y="-216.41" font-family="Times,serif" font-size="14.00">right</text>
</g>
<!-- /arrays/sequence/add&#45;&gt;/arrays/sequence/add -->
<g id="edge7" class="edge">
<title>/arrays/sequence/add:e&#45;&gt;/arrays/sequence/add:w</title>
<path fill="none" stroke="black" d="M495.44,-80.87C513.33,-98.49 513.33,-133.74 456.44,-133.74 407.32,-133.74 400.61,-107.47 411.2,-88.95"/>
<polygon fill="black" stroke="black" points="414.1,-90.93 417.44,-80.87 408.56,-86.65 414.1,-90.93"/>
<text text-anchor="middle" x="502.44" y="-84.67" font-family="Times,serif" font-size="14.00">i2</text>
<text text-anchor="middle" x="410.44" y="-69.67" font-family="Times,serif" font-size="14.00">i2</text>
</g>
<!-- initializer/arrays/sequence/add_1 -->
<!-- initializer/arrays/sequence/add_1&#45;&gt;/arrays/sequence/add -->
<g id="edge3" class="edge">
<title>initializer/arrays/sequence/add_1&#45;&gt;/arrays/sequence/add:w</title>
<path fill="none" stroke="blue" stroke-dasharray="1,5" d="M187.78,-167.71C229.18,-139.41 319.29,-85.09 406.38,-81.1"/>
<polygon fill="blue" stroke="blue" points="406.52,-84.6 416.44,-80.87 406.36,-77.6 406.52,-84.6"/>
<text text-anchor="middle" x="262.44" y="-129.54" font-family="Times,serif" font-size="14.00">1</text>
</g>
</g>
</svg>
