<?xml version="1.0" encoding="UTF-8" standalone="no"?>
<!DOCTYPE svg PUBLIC "-//W3C//DTD SVG 1.1//EN"
 "http://www.w3.org/Graphics/SVG/1.1/DTD/svg11.dtd">
<!-- Generated by graphviz version 2.42.3 (20191010.1750)
 -->
<!-- Title: sequence Pages: 1 -->
<svg width="1017pt" height="433pt"
 viewBox="28.80 28.80 988.44 404.62" xmlns="http://www.w3.org/2000/svg" xmlns:xlink="http://www.w3.org/1999/xlink">
<g id="graph0" class="graph" transform="scale(1 1) rotate(0) translate(32.8 400.62)">
<title>sequence</title>
<polygon fill="white" stroke="transparent" points="-4,4 -4,-371.82 955.64,-371.82 955.64,4 -4,4"/>
<text text-anchor="middle" x="475.82" y="-352.62" font-family="Times,serif" font-size="14.00">sequence</text>
<!-- /arrays/sequence/start -->
<g id="node1" class="node">
<title>/arrays/sequence/start</title>
<polygon fill="white" stroke="black" points="610.11,-333.39 578.98,-345.82 547.86,-333.39 547.89,-313.26 610.08,-313.26 610.11,-333.39"/>
<text text-anchor="middle" x="578.98" y="-323.62" font-family="Times,serif" font-size="14.00">start</text>
</g>
<!-- /arrays/sequence/compare -->
<g id="node6" class="node">
<title>/arrays/sequence/compare</title>
<ellipse fill="coral" stroke="black" cx="552.98" cy="-180.37" rx="81.89" ry="25.41"/>
<text text-anchor="middle" x="552.98" y="-183.17" font-family="Times,serif" font-size="14.00">compare</text>
<text text-anchor="middle" x="552.98" y="-169.17" font-family="Times,serif" font-size="14.00">(CompareSwitch)</text>
</g>
<!-- /arrays/sequence/start&#45;&gt;/arrays/sequence/compare -->
<g id="edge4" class="edge">
<title>/arrays/sequence/start:s&#45;&gt;/arrays/sequence/compare:ne</title>
<path fill="none" stroke="black" d="M578.98,-311.82C578.98,-268.39 606.45,-243.26 584.64,-213.5"/>
<polygon fill="black" stroke="black" points="587.18,-211.09 577.98,-205.82 581.89,-215.67 587.18,-211.09"/>
<text text-anchor="middle" x="564.76" y="-208.62" font-family="Times,serif" font-size="14.00">right</text>
</g>
<!-- /arrays/sequence/end -->
<g id="node2" class="node">
<title>/arrays/sequence/end</title>
<polygon fill="white" stroke="black" points="685.04,-333.39 656.98,-345.82 628.93,-333.39 628.96,-313.26 685.01,-313.26 685.04,-333.39"/>
<text text-anchor="middle" x="656.98" y="-323.62" font-family="Times,serif" font-size="14.00">end</text>
</g>
<!-- /arrays/sequence/end&#45;&gt;/arrays/sequence/compare -->
<g id="edge5" class="edge">
<title>/arrays/sequence/end:s&#45;&gt;/arrays/sequence/compare:ne</title>
<path fill="none" stroke="black" d="M656.98,-311.82C656.98,-266.39 636.22,-256.81 604.98,-223.82 597.86,-216.3 592.3,-215.56 585.94,-211.95"/>
<polygon fill="black" stroke="black" points="588.04,-209.15 577.98,-205.82 583.77,-214.7 588.04,-209.15"/>
<text text-anchor="middle" x="587.31" y="-208.62" font-family="Times,serif" font-size="14.00">left</text>
</g>
<!-- /arrays/sequence/step -->
<g id="node3" class="node">
<title>/arrays/sequence/step</title>
<polygon fill="white" stroke="black" points="299.19,-333.39 268.98,-345.82 238.78,-333.39 238.81,-313.26 299.16,-313.26 299.19,-333.39"/>
<text text-anchor="middle" x="268.98" y="-323.62" font-family="Times,serif" font-size="14.00">step</text>
</g>
<!-- /arrays/sequence/add -->
<g id="node9" class="node">
<title>/arrays/sequence/add</title>
<ellipse fill="coral" stroke="black" cx="348.98" cy="-79.46" rx="34.91" ry="25.41"/>
<text text-anchor="middle" x="348.98" y="-82.26" font-family="Times,serif" font-size="14.00">add</text>
<text text-anchor="middle" x="348.98" y="-68.26" font-family="Times,serif" font-size="14.00">(Add)</text>
</g>
<!-- /arrays/sequence/step&#45;&gt;/arrays/sequence/add -->
<g id="edge6" class="edge">
<title>/arrays/sequence/step:s&#45;&gt;/arrays/sequence/add:w</title>
<path fill="none" stroke="black" d="M268.98,-311.82C268.98,-262.86 261.56,-103.44 303.04,-81.88"/>
<polygon fill="black" stroke="black" points="304.1,-85.22 312.98,-79.46 302.44,-78.42 304.1,-85.22"/>
<text text-anchor="middle" x="307.54" y="-82.26" font-family="Times,serif" font-size="14.00">i2</text>
</g>
<!-- /arrays/sequence/sequence -->
<g id="node4" class="node">
<title>/arrays/sequence/sequence</title>
<polygon fill="black" stroke="black" points="395.38,-12.44 447.98,0 500.59,-12.44 500.54,-32.56 395.43,-32.56 395.38,-12.44"/>
<text text-anchor="middle" x="447.98" y="-13.8" font-family="Times,serif" font-size="14.00" fill="white">sequence</text>
</g>
<!-- /arrays/sequence/last -->
<g id="node5" class="node">
<title>/arrays/sequence/last</title>
<polygon fill="black" stroke="black" points="518.14,-12.44 545.98,0 573.83,-12.44 573.8,-32.56 518.16,-32.56 518.14,-12.44"/>
<text text-anchor="middle" x="545.98" y="-13.8" font-family="Times,serif" font-size="14.00" fill="white">last</text>
</g>
<!-- /arrays/sequence/compare&#45;&gt;/arrays/sequence/sequence -->
<g id="edge8" class="edge">
<title>/arrays/sequence/compare:s&#45;&gt;/arrays/sequence/sequence:n</title>
<path fill="none" stroke="black" d="M552.98,-154.91C552.98,-122.52 466,-78.41 450.38,-43.91"/>
<polygon fill="black" stroke="black" points="453.73,-42.9 447.98,-34 446.93,-44.54 453.73,-42.9"/>
<text text-anchor="middle" x="477.73" y="-97.09" font-family="Times,serif" font-size="14.00">right&#45;lte</text>
</g>
<!-- /arrays/sequence/compare&#45;&gt;/arrays/sequence/last -->
<g id="edge12" class="edge">
<title>/arrays/sequence/compare:s&#45;&gt;/arrays/sequence/last:n</title>
<path fill="none" stroke="black" d="M552.98,-154.91C552.98,-104.66 546.88,-89.77 546.07,-44.21"/>
<polygon fill="black" stroke="black" points="549.57,-43.97 545.98,-34 542.57,-44.03 549.57,-43.97"/>
<text text-anchor="middle" x="525.35" y="-96.93" font-family="Times,serif" font-size="14.00">right&#45;gte</text>
</g>
<!-- /arrays/sequence/compare&#45;&gt;/arrays/sequence/compare -->
<g id="edge9" class="edge">
<title>/arrays/sequence/compare:s&#45;&gt;/arrays/sequence/compare:ne</title>
<path fill="none" stroke="black" d="M552.98,-154.37C586.22,-141.87 652.68,-141.87 652.68,-179.87 652.68,-214.31 618.63,-217.53 587.51,-208.53"/>
<polygon fill="black" stroke="black" points="588.58,-205.2 577.98,-205.37 586.37,-211.84 588.58,-205.2"/>
<text text-anchor="middle" x="539.92" y="-141.76" font-family="Times,serif" font-size="14.00">left&#45;gt</text>
<text text-anchor="middle" x="587.31" y="-208.17" font-family="Times,serif" font-size="14.00">left</text>
</g>
<!-- /arrays/sequence/compare&#45;&gt;/arrays/sequence/add -->
<g id="edge10" class="edge">
<title>/arrays/sequence/compare:sw&#45;&gt;/arrays/sequence/add:ne</title>
<path fill="none" stroke="black" d="M527.98,-154.91C497.91,-124.83 473.98,-151.4 433.98,-136.91 406.99,-127.13 395.7,-124.91 377.6,-108.7"/>
<polygon fill="black" stroke="black" points="379.64,-105.81 369.98,-101.46 374.82,-110.88 379.64,-105.81"/>
<text text-anchor="middle" x="414.52" y="-139.7" font-family="Times,serif" font-size="14.00">right&#45;lt</text>
<text text-anchor="middle" x="364.54" y="-104.26" font-family="Times,serif" font-size="14.00">i1</text>
</g>
<!-- initializer/arrays/sequence/compare_0 -->
<!-- initializer/arrays/sequence/compare_0&#45;&gt;/arrays/sequence/compare -->
<g id="edge1" class="edge">
<title>initializer/arrays/sequence/compare_0&#45;&gt;/arrays/sequence/compare:ne</title>
<path fill="none" stroke="blue" stroke-dasharray="1,5" d="M762.97,-256.64C734.2,-246.41 695.66,-233.37 660.98,-223.82 628.15,-214.78 608.72,-229.13 585.63,-212.41"/>
<polygon fill="blue" stroke="blue" points="587.85,-209.7 577.98,-205.82 583.28,-215 587.85,-209.7"/>
<text text-anchor="middle" x="711.98" y="-226.62" font-family="Times,serif" font-size="14.00">20</text>
</g>
<!-- initializer/arrays/sequence/compare_1 -->
<!-- initializer/arrays/sequence/compare_1&#45;&gt;/arrays/sequence/compare -->
<g id="edge2" class="edge">
<title>initializer/arrays/sequence/compare_1&#45;&gt;/arrays/sequence/compare:ne</title>
<path fill="none" stroke="blue" stroke-dasharray="1,5" d="M474.79,-256.73C510.25,-243.82 555.99,-226.01 572.46,-214.53"/>
<polygon fill="blue" stroke="blue" points="575.58,-216.14 577.98,-205.82 569.67,-212.39 575.58,-216.14"/>
<text text-anchor="middle" x="558.48" y="-226.62" font-family="Times,serif" font-size="14.00">1</text>
</g>
<!-- /arrays/sequence/add&#45;&gt;/arrays/sequence/compare -->
<g id="edge11" class="edge">
<title>/arrays/sequence/add:sw&#45;&gt;/arrays/sequence/compare:ne</title>
<path fill="none" stroke="black" d="M327.98,-57.46C323.59,-53.06 318.27,-53.9 314.03,-58.46 299.96,-73.57 300.6,-89.23 314.03,-104.91 331,-124.71 404.22,-118.9 429.98,-122.91 520.97,-137.09 574.81,-84.95 634.68,-154.91 649.26,-171.95 650.39,-189.37 634.68,-205.37 627.71,-212.46 601.99,-214.53 587.07,-210.71"/>
<polygon fill="black" stroke="black" points="588.52,-207.52 577.98,-206.37 585.5,-213.84 588.52,-207.52"/>
<text text-anchor="middle" x="441.47" y="-114.04" font-family="Times,serif" font-size="14.00">sum</text>
<text text-anchor="middle" x="564.76" y="-209.17" font-family="Times,serif" font-size="14.00">right</text>
</g>
<!-- /arrays/sequence/add&#45;&gt;/arrays/sequence/add -->
<g id="edge7" class="edge">
<title>/arrays/sequence/add:e&#45;&gt;/arrays/sequence/add:w</title>
<path fill="none" stroke="black" d="M383.98,-79.46C401.94,-96.27 401.94,-129.91 348.98,-129.91 303.48,-129.91 297.08,-105.07 307.57,-87.41"/>
<polygon fill="black" stroke="black" points="310.43,-89.44 313.98,-79.46 304.98,-85.04 310.43,-89.44"/>
<text text-anchor="middle" x="389.44" y="-82.26" font-family="Times,serif" font-size="14.00">i2</text>
<text text-anchor="middle" x="308.54" y="-68.26" font-family="Times,serif" font-size="14.00">i2</text>
</g>
<!-- initializer/arrays/sequence/add_1 -->
<!-- initializer/arrays/sequence/add_1&#45;&gt;/arrays/sequence/add -->
<g id="edge3" class="edge">
<title>initializer/arrays/sequence/add_1&#45;&gt;/arrays/sequence/add:w</title>
<path fill="none" stroke="blue" stroke-dasharray="1,5" d="M144.3,-162.42C173.82,-135.31 237.12,-84.71 302.85,-79.84"/>
<polygon fill="blue" stroke="blue" points="303.12,-83.33 312.98,-79.46 302.86,-76.33 303.12,-83.33"/>
<text text-anchor="middle" x="197.48" y="-125.71" font-family="Times,serif" font-size="14.00">1</text>
</g>
</g>
</svg>
