<?xml version="1.0" encoding="UTF-8" standalone="no"?>
<!DOCTYPE svg PUBLIC "-//W3C//DTD SVG 1.1//EN"
 "http://www.w3.org/Graphics/SVG/1.1/DTD/svg11.dtd">
<!-- Generated by graphviz version 2.40.1 (0)
 -->
<!-- Title: sequence Pages: 1 -->
<svg width="1268pt" height="442pt"
 viewBox="28.80 28.80 1239.42 413.28" xmlns="http://www.w3.org/2000/svg" xmlns:xlink="http://www.w3.org/1999/xlink">
<g id="graph0" class="graph" transform="scale(1 1) rotate(0) translate(32.8 409.2802)">
<title>sequence</title>
<polygon fill="#ffffff" stroke="transparent" points="-4,4 -4,-380.4802 1206.6188,-380.4802 1206.6188,4 -4,4"/>
<text text-anchor="middle" x="601.3094" y="-361.2802" font-family="Times,serif" font-size="14.00" fill="#000000">sequence</text>
<!-- /arrays/sequence/start -->
<g id="node1" class="node">
<title>/arrays/sequence/start</title>
<polygon fill="#ffffff" stroke="#000000" points="774.3795,-341.0425 733.4354,-353.4802 692.4914,-341.0425 692.5296,-320.9179 774.3412,-320.9179 774.3795,-341.0425"/>
<text text-anchor="middle" x="733.4354" y="-331.7802" font-family="Times,serif" font-size="14.00" fill="#000000">start</text>
</g>
<!-- /arrays/sequence/compare -->
<g id="node6" class="node">
<title>/arrays/sequence/compare</title>
<g id="a_node6"><a xlink:href="../../flowstdlib/control/compare_switch/compare_switch.toml" xlink:title="compare\n(CompareSwitch)">
<ellipse fill="#ff7f50" stroke="#000000" cx="703.4354" cy="-185.6102" rx="98.9899" ry="26.7407"/>
<text text-anchor="middle" x="703.4354" y="-189.4102" font-family="Times,serif" font-size="14.00" fill="#000000">compare</text>
<text text-anchor="middle" x="703.4354" y="-174.4102" font-family="Times,serif" font-size="14.00" fill="#000000">(CompareSwitch)</text>
</a>
</g>
</g>
<!-- /arrays/sequence/start&#45;&gt;/arrays/sequence/compare -->
<g id="edge4" class="edge">
<title>/arrays/sequence/start:s&#45;&gt;/arrays/sequence/compare:ne</title>
<path fill="none" stroke="#000000" d="M733.4354,-320.4802C733.4354,-275.8437 759.133,-250.0791 736.3244,-219.5021"/>
<polygon fill="#000000" stroke="#000000" points="738.6484,-216.842 729.4354,-211.6102 733.3749,-221.4454 738.6484,-216.842"/>
<text text-anchor="middle" x="711.4354" y="-215.4102" font-family="Times,serif" font-size="14.00" fill="#000000">right</text>
</g>
<!-- /arrays/sequence/end -->
<g id="node2" class="node">
<title>/arrays/sequence/end</title>
<polygon fill="#ffffff" stroke="#000000" points="862.0255,-341.0425 827.4354,-353.4802 792.8453,-341.0425 792.8776,-320.9179 861.9933,-320.9179 862.0255,-341.0425"/>
<text text-anchor="middle" x="827.4354" y="-331.7802" font-family="Times,serif" font-size="14.00" fill="#000000">end</text>
</g>
<!-- /arrays/sequence/end&#45;&gt;/arrays/sequence/compare -->
<g id="edge5" class="edge">
<title>/arrays/sequence/end:s&#45;&gt;/arrays/sequence/compare:ne</title>
<path fill="none" stroke="#000000" d="M827.4354,-320.4802C827.4354,-269.8058 794.4655,-265.0732 757.4354,-230.4802 749.5536,-223.1171 744.0189,-222.072 737.589,-218.1265"/>
<polygon fill="#000000" stroke="#000000" points="739.4323,-215.1192 729.4354,-211.6102 735.0621,-220.5875 739.4323,-215.1192"/>
<text text-anchor="middle" x="741.9354" y="-215.4102" font-family="Times,serif" font-size="14.00" fill="#000000">left</text>
</g>
<!-- /arrays/sequence/step -->
<g id="node3" class="node">
<title>/arrays/sequence/step</title>
<polygon fill="#ffffff" stroke="#000000" points="380.954,-341.0425 343.4354,-353.4802 305.9168,-341.0425 305.9518,-320.9179 380.919,-320.9179 380.954,-341.0425"/>
<text text-anchor="middle" x="343.4354" y="-331.7802" font-family="Times,serif" font-size="14.00" fill="#000000">step</text>
</g>
<!-- /arrays/sequence/add -->
<g id="node9" class="node">
<title>/arrays/sequence/add</title>
<g id="a_node9"><a xlink:href="../../flowstdlib/math/add/add.toml" xlink:title="add\n(Add)">
<ellipse fill="#ff7f50" stroke="#000000" cx="456.4354" cy="-80.8701" rx="38.7821" ry="26.7407"/>
<text text-anchor="middle" x="456.4354" y="-84.6701" font-family="Times,serif" font-size="14.00" fill="#000000">add</text>
<text text-anchor="middle" x="456.4354" y="-69.6701" font-family="Times,serif" font-size="14.00" fill="#000000">(Add)</text>
</a>
</g>
</g>
<!-- /arrays/sequence/step&#45;&gt;/arrays/sequence/add -->
<g id="edge6" class="edge">
<title>/arrays/sequence/step:s&#45;&gt;/arrays/sequence/add:w</title>
<path fill="none" stroke="#000000" d="M343.4354,-320.4802C343.4354,-249.7536 372.3229,-106.9651 407.7865,-84.0148"/>
<polygon fill="#000000" stroke="#000000" points="409.0122,-87.2966 417.4354,-80.8701 406.843,-80.6412 409.0122,-87.2966"/>
<text text-anchor="middle" x="410.4354" y="-84.6701" font-family="Times,serif" font-size="14.00" fill="#000000">i2</text>
</g>
<!-- /arrays/sequence/sequence -->
<g id="node4" class="node">
<title>/arrays/sequence/sequence</title>
<polygon fill="#000000" stroke="#000000" points="511.575,-12.4377 578.4354,0 645.2958,-12.4377 645.2334,-32.5623 511.6374,-32.5623 511.575,-12.4377"/>
<text text-anchor="middle" x="578.4354" y="-14.3" font-family="Times,serif" font-size="14.00" fill="#ffffff">sequence</text>
</g>
<!-- /arrays/sequence/last -->
<g id="node5" class="node">
<title>/arrays/sequence/last</title>
<polygon fill="#000000" stroke="#000000" points="662.8453,-12.4377 697.4354,0 732.0255,-12.4377 731.9933,-32.5623 662.8776,-32.5623 662.8453,-12.4377"/>
<text text-anchor="middle" x="697.4354" y="-14.3" font-family="Times,serif" font-size="14.00" fill="#ffffff">last</text>
</g>
<!-- /arrays/sequence/compare&#45;&gt;/arrays/sequence/sequence -->
<g id="edge8" class="edge">
<title>/arrays/sequence/compare:s&#45;&gt;/arrays/sequence/sequence:n</title>
<path fill="none" stroke="#000000" d="M703.4354,-158.7401C703.4354,-122.572 598.1021,-80.0505 580.8208,-42.84"/>
<polygon fill="#000000" stroke="#000000" points="584.1929,-41.8939 578.4354,-33 577.39,-43.5431 584.1929,-41.8939"/>
<text text-anchor="middle" x="611.3939" y="-99.6414" font-family="Times,serif" font-size="14.00" fill="#000000">right&#45;lte</text>
</g>
<!-- /arrays/sequence/compare&#45;&gt;/arrays/sequence/last -->
<g id="edge12" class="edge">
<title>/arrays/sequence/compare:s&#45;&gt;/arrays/sequence/last:n</title>
<path fill="none" stroke="#000000" d="M703.4354,-158.7401C703.4354,-106.2888 698.162,-90.843 697.5028,-43.0174"/>
<polygon fill="#000000" stroke="#000000" points="701.0027,-42.9762 697.4354,-33 694.0029,-43.0234 701.0027,-42.9762"/>
<text text-anchor="middle" x="668.42" y="-84.4911" font-family="Times,serif" font-size="14.00" fill="#000000">right&#45;gte</text>
</g>
<!-- /arrays/sequence/compare&#45;&gt;/arrays/sequence/compare -->
<g id="edge9" class="edge">
<title>/arrays/sequence/compare:s&#45;&gt;/arrays/sequence/compare:ne</title>
<path fill="none" stroke="#000000" d="M703.4354,-158.6102C742.4337,-145.6102 820.4304,-145.6102 820.4304,-185.1102 820.4304,-221.3699 776.6145,-224.3444 739.2592,-214.5323"/>
<polygon fill="#000000" stroke="#000000" points="740.0183,-211.1066 729.4354,-211.6102 738.0224,-217.8161 740.0183,-211.1066"/>
<text text-anchor="middle" x="686.6693" y="-145.8085" font-family="Times,serif" font-size="14.00" fill="#000000">left&#45;gt</text>
<text text-anchor="middle" x="716.9354" y="-200.4102" font-family="Times,serif" font-size="14.00" fill="#000000">left</text>
</g>
<!-- /arrays/sequence/compare&#45;&gt;/arrays/sequence/add -->
<g id="edge10" class="edge">
<title>/arrays/sequence/compare:sw&#45;&gt;/arrays/sequence/add:ne</title>
<path fill="none" stroke="#000000" d="M677.4354,-159.6102C641.4312,-123.6059 613.225,-155.3066 564.4354,-140.7401 527.856,-129.8191 510.9684,-131.8962 485.7824,-109.7803"/>
<polygon fill="#000000" stroke="#000000" points="488.1177,-107.1718 478.4354,-102.8701 483.3218,-112.2708 488.1177,-107.1718"/>
<text text-anchor="middle" x="538.922" y="-144.5361" font-family="Times,serif" font-size="14.00" fill="#000000">right&#45;lt</text>
<text text-anchor="middle" x="471.4354" y="-106.6701" font-family="Times,serif" font-size="14.00" fill="#000000">i1</text>
</g>
<!-- initializer/arrays/sequence/compare_0 -->
<!-- initializer/arrays/sequence/compare_0&#45;&gt;/arrays/sequence/compare -->
<g id="edge1" class="edge">
<title>initializer/arrays/sequence/compare_0&#45;&gt;/arrays/sequence/compare:ne</title>
<path fill="none" stroke="#0000ff" stroke-dasharray="1,5" d="M956.8695,-264.3826C919.9178,-253.8963 871.0897,-240.5894 827.4354,-230.4802 787.768,-221.2943 764.7757,-239.5015 737.0089,-218.289"/>
<polygon fill="#0000ff" stroke="#0000ff" points="739.2506,-215.5993 729.4354,-211.6102 734.6207,-220.8494 739.2506,-215.5993"/>
<text text-anchor="middle" x="893.9354" y="-234.2802" font-family="Times,serif" font-size="14.00" fill="#000000">20</text>
</g>
<!-- initializer/arrays/sequence/compare_1 -->
<!-- initializer/arrays/sequence/compare_1&#45;&gt;/arrays/sequence/compare -->
<g id="edge2" class="edge">
<title>initializer/arrays/sequence/compare_1&#45;&gt;/arrays/sequence/compare:ne</title>
<path fill="none" stroke="#0000ff" stroke-dasharray="1,5" d="M622.4015,-264.996C670.1472,-253.3621 723.8397,-237.1462 731.5408,-221.6412"/>
<polygon fill="#0000ff" stroke="#0000ff" points="734.915,-220.678 729.4354,-211.6102 728.0642,-222.1159 734.915,-220.678"/>
<text text-anchor="middle" x="726.4354" y="-234.2802" font-family="Times,serif" font-size="14.00" fill="#000000">1</text>
</g>
<!-- /arrays/sequence/add&#45;&gt;/arrays/sequence/compare -->
<g id="edge11" class="edge">
<title>/arrays/sequence/add:sw&#45;&gt;/arrays/sequence/compare:ne</title>
<path fill="none" stroke="#000000" d="M434.4354,-58.8701C434.4354,-58.8701 417.5445,-107.7401 417.5445,-107.7401 418.433,-108.754 801.5419,-157.7262 802.4304,-158.7401 802.4304,-158.7401 756.9823,-191.6581 737.8089,-205.5453"/>
<polygon fill="#000000" stroke="#000000" points="735.4811,-202.9096 729.4354,-211.6102 739.5873,-208.5788 735.4811,-202.9096"/>
<text text-anchor="middle" x="567.0089" y="-118.4628" font-family="Times,serif" font-size="14.00" fill="#000000">sum</text>
<text text-anchor="middle" x="747.4354" y="-200.4102" font-family="Times,serif" font-size="14.00" fill="#000000">right</text>
</g>
<!-- /arrays/sequence/add&#45;&gt;/arrays/sequence/add -->
<g id="edge7" class="edge">
<title>/arrays/sequence/add:e&#45;&gt;/arrays/sequence/add:w</title>
<path fill="none" stroke="#000000" d="M495.4354,-80.8701C513.3263,-98.4934 513.3263,-133.7401 456.4354,-133.7401 407.3226,-133.7401 400.6079,-107.4723 411.2003,-88.9515"/>
<polygon fill="#000000" stroke="#000000" points="414.0979,-90.9255 417.4354,-80.8701 408.5557,-86.6495 414.0979,-90.9255"/>
<text text-anchor="middle" x="502.4387" y="-84.6733" font-family="Times,serif" font-size="14.00" fill="#000000">i2</text>
<text text-anchor="middle" x="410.4354" y="-69.6701" font-family="Times,serif" font-size="14.00" fill="#000000">i2</text>
</g>
<!-- initializer/arrays/sequence/add_1 -->
<!-- initializer/arrays/sequence/add_1&#45;&gt;/arrays/sequence/add -->
<g id="edge3" class="edge">
<title>initializer/arrays/sequence/add_1&#45;&gt;/arrays/sequence/add:w</title>
<path fill="none" stroke="#0000ff" stroke-dasharray="1,5" d="M189.2377,-167.6047C231.3414,-138.7985 320.6764,-85.1568 407.1771,-81.1126"/>
<polygon fill="#0000ff" stroke="#0000ff" points="407.521,-84.6055 417.4354,-80.8701 407.3555,-77.6075 407.521,-84.6055"/>
<text text-anchor="middle" x="262.4354" y="-129.5401" font-family="Times,serif" font-size="14.00" fill="#000000">1</text>
</g>
</g>
</svg>
