<?xml version="1.0" encoding="UTF-8" standalone="no"?>
<!DOCTYPE svg PUBLIC "-//W3C//DTD SVG 1.1//EN"
 "http://www.w3.org/Graphics/SVG/1.1/DTD/svg11.dtd">
<!-- Generated by graphviz version 2.43.0 (0)
 -->
<!-- Title: matrix_mult Pages: 1 -->
<svg width="928pt" height="676pt"
 viewBox="0.00 0.00 927.72 676.00" xmlns="http://www.w3.org/2000/svg" xmlns:xlink="http://www.w3.org/1999/xlink">
<g id="graph0" class="graph" transform="scale(1 1) rotate(0) translate(4 672)">
<title>matrix_mult</title>
<polygon fill="white" stroke="transparent" points="-4,4 -4,-672 923.72,-672 923.72,4 -4,4"/>
<text text-anchor="middle" x="459.86" y="-652.8" font-family="Times,serif" font-size="14.00">/matrix_mult</text>
<g id="clust1" class="cluster">
<title>cluster_select_0</title>
<polygon fill="none" stroke="black" points="457,-296 457,-526 877,-526 877,-296 457,-296"/>
<text text-anchor="middle" x="667" y="-510.8" font-family="Times,serif" font-size="14.00">/matrix_mult/select_0</text>
</g>
<g id="clust2" class="cluster">
<title>cluster_select_1</title>
<polygon fill="none" stroke="black" points="28,-379 28,-601 440,-601 440,-379 28,-379"/>
<text text-anchor="middle" x="234" y="-585.8" font-family="Times,serif" font-size="14.00">/matrix_mult/select_1</text>
</g>
<g id="clust3" class="cluster">
<title>cluster_multiply</title>
<polygon fill="none" stroke="black" points="8,-8 8,-371 449,-371 449,-8 8,-8"/>
<text text-anchor="middle" x="228.5" y="-355.8" font-family="Times,serif" font-size="14.00">/matrix_mult/multiply</text>
</g>
<!-- r8 -->
<g id="node1" class="node">
<title>r8</title>
<g id="a_node1"><a xlink:href="file:///home/runner/work/flow/flow/flowr/src/bin/flowrcli/context/stdio/readline.html" xlink:title="readline (#8)">
<ellipse fill="coral" stroke="black" cx="778" cy="-552" rx="72.29" ry="18"/>
<text text-anchor="middle" x="778" y="-548.3" font-family="Times,serif" font-size="14.00">readline (#8)</text>
</a>
</g>
</g>
<!-- r9 -->
<g id="node3" class="node">
<title>r9</title>
<g id="a_node3"><a xlink:href="file:///home/runner/.flow/lib/flowstdlib/control/index/index.html" xlink:title="index (#9)">
<ellipse fill="coral" stroke="black" cx="760" cy="-405" rx="59.59" ry="18"/>
<text text-anchor="middle" x="760" y="-401.3" font-family="Times,serif" font-size="14.00">index (#9)</text>
</a>
</g>
</g>
<!-- r8&#45;&gt;r9 -->
<g id="edge2" class="edge">
<title>r8:sw&#45;&gt;r9:n</title>
<path fill="none" stroke="black" d="M760,-534C739.69,-513.69 869.33,-546.93 889,-526 978.41,-430.87 806.23,-445.73 767.5,-430.31"/>
<polygon fill="black" stroke="black" points="769.6,-427.47 760,-423 764.72,-432.49 769.6,-427.47"/>
<text text-anchor="middle" x="740.5" y="-426.8" font-family="Times,serif" font-size="14.00">value</text>
<text text-anchor="middle" x="777" y="-522.8" font-family="Times,serif" font-size="14.00">/json</text>
</g>
<!-- r10 -->
<g id="node4" class="node">
<title>r10</title>
<g id="a_node4"><a xlink:href="file:///home/runner/.flow/lib/flowstdlib/control/index/index.html" xlink:title="index (#10)">
<ellipse fill="coral" stroke="black" cx="324" cy="-477" rx="65.79" ry="18"/>
<text text-anchor="middle" x="324" y="-473.3" font-family="Times,serif" font-size="14.00">index (#10)</text>
</a>
</g>
</g>
<!-- r8&#45;&gt;r10 -->
<g id="edge3" class="edge">
<title>r8:sw&#45;&gt;r10:n</title>
<path fill="none" stroke="black" d="M760,-534C747.39,-521.39 456.66,-528.49 439,-526 390.58,-519.17 333.25,-544.55 325.01,-506.44"/>
<polygon fill="black" stroke="black" points="328.44,-505.62 324,-496 321.48,-506.29 328.44,-505.62"/>
<text text-anchor="middle" x="304.5" y="-499.8" font-family="Times,serif" font-size="14.00">value</text>
<text text-anchor="middle" x="743" y="-522.8" font-family="Times,serif" font-size="14.00">/json</text>
</g>
<!-- initializerr8_0 -->
<!-- initializerr8_0&#45;&gt;r8 -->
<g id="edge1" class="edge">
<title>initializerr8_0&#45;&gt;r8:n</title>
<path fill="none" stroke="blue" d="M778,-608.66C778,-600.71 778,-590.92 778,-581.29"/>
<polygon fill="blue" stroke="blue" points="781.5,-581 778,-571 774.5,-581 781.5,-581"/>
<text text-anchor="middle" x="771" y="-597.46" font-family="Times,serif" font-size="14.00">&quot;&quot;</text>
</g>
<!-- r9&#45;&gt;r9 -->
<g id="edge6" class="edge">
<title>r9:s&#45;&gt;r9:ne</title>
<path fill="none" stroke="black" d="M760,-387C803.93,-369 891.79,-369 891.79,-405 891.79,-438.47 831.41,-440.82 787.62,-426.52"/>
<polygon fill="black" stroke="black" points="788.59,-423.15 778,-423 786.19,-429.73 788.59,-423.15"/>
<text text-anchor="middle" x="831.5" y="-426.8" font-family="Times,serif" font-size="14.00">previous_value</text>
<text text-anchor="middle" x="781.5" y="-375.8" font-family="Times,serif" font-size="14.00">/value</text>
</g>
<!-- r9&#45;&gt;r9 -->
<g id="edge7" class="edge">
<title>r9:e&#45;&gt;r9:nw</title>
<path fill="none" stroke="black" d="M820,-405C891.79,-423 891.79,-459 781,-459 675.62,-459 670.47,-437.29 732,-424.84"/>
<polygon fill="black" stroke="black" points="732.8,-428.25 742,-423 731.53,-421.37 732.8,-428.25"/>
<text text-anchor="middle" x="688" y="-426.8" font-family="Times,serif" font-size="14.00">previous_index</text>
<text text-anchor="middle" x="842" y="-408.8" font-family="Times,serif" font-size="14.00">/index</text>
</g>
<!-- r0 -->
<g id="node7" class="node">
<title>r0</title>
<g id="a_node7"><a xlink:href="file:///home/runner/.flow/lib/flowstdlib/data/info/info.html" xlink:title="a_info (#0)">
<ellipse fill="coral" stroke="black" cx="807" cy="-322" rx="61.99" ry="18"/>
<text text-anchor="middle" x="807" y="-318.3" font-family="Times,serif" font-size="14.00">a_info (#0)</text>
</a>
</g>
</g>
<!-- r9&#45;&gt;r0 -->
<g id="edge8" class="edge">
<title>r9:sw&#45;&gt;r0:n</title>
<path fill="none" stroke="black" d="M742,-386C719.87,-363.87 788.72,-373.34 804.04,-350.85"/>
<polygon fill="black" stroke="black" points="807.48,-351.58 807,-341 800.77,-349.57 807.48,-351.58"/>
<text text-anchor="middle" x="687.5" y="-374.8" font-family="Times,serif" font-size="14.00">/selected_value</text>
</g>
<!-- r5 -->
<g id="node8" class="node">
<title>r5</title>
<g id="a_node8"><a xlink:href="file:///home/runner/.flow/lib/flowstdlib/data/duplicate_rows/duplicate_rows.html" xlink:title="duplicate_rows (#5)">
<ellipse fill="coral" stroke="black" cx="569" cy="-322" rx="103.98" ry="18"/>
<text text-anchor="middle" x="569" y="-318.3" font-family="Times,serif" font-size="14.00">duplicate_rows (#5)</text>
</a>
</g>
</g>
<!-- r9&#45;&gt;r5 -->
<g id="edge9" class="edge">
<title>r9:sw&#45;&gt;r5:n</title>
<path fill="none" stroke="black" d="M742,-386C716.54,-360.54 595.14,-376.89 572.61,-350.62"/>
<polygon fill="black" stroke="black" points="575.79,-349.14 569,-341 569.23,-351.59 575.79,-349.14"/>
<text text-anchor="middle" x="687.5" y="-389.8" font-family="Times,serif" font-size="14.00">/selected_value</text>
</g>
<!-- r10&#45;&gt;r10 -->
<g id="edge12" class="edge">
<title>r10:s&#45;&gt;r10:ne</title>
<path fill="none" stroke="black" d="M324,-459C369.88,-441 461.64,-441 461.64,-477 461.64,-510.61 397.35,-512.84 351.48,-498.34"/>
<polygon fill="black" stroke="black" points="352.59,-495.02 342,-495 350.27,-501.63 352.59,-495.02"/>
<text text-anchor="middle" x="395.5" y="-498.8" font-family="Times,serif" font-size="14.00">previous_value</text>
<text text-anchor="middle" x="302.5" y="-447.8" font-family="Times,serif" font-size="14.00">/value</text>
</g>
<!-- r10&#45;&gt;r10 -->
<g id="edge13" class="edge">
<title>r10:e&#45;&gt;r10:nw</title>
<path fill="none" stroke="black" d="M390,-477C461.64,-495 461.64,-531 348,-531 239.9,-531 234.63,-509.29 296.02,-496.84"/>
<polygon fill="black" stroke="black" points="296.8,-500.26 306,-495 295.53,-493.37 296.8,-500.26"/>
<text text-anchor="middle" x="252" y="-498.8" font-family="Times,serif" font-size="14.00">previous_index</text>
<text text-anchor="middle" x="412" y="-480.8" font-family="Times,serif" font-size="14.00">/index</text>
</g>
<!-- r1 -->
<g id="node11" class="node">
<title>r1</title>
<g id="a_node11"><a xlink:href="file:///home/runner/.flow/lib/flowstdlib/data/info/info.html" xlink:title="b_info (#1)">
<ellipse fill="coral" stroke="black" cx="350" cy="-405" rx="61.99" ry="18"/>
<text text-anchor="middle" x="350" y="-401.3" font-family="Times,serif" font-size="14.00">b_info (#1)</text>
</a>
</g>
</g>
<!-- r10&#45;&gt;r1 -->
<g id="edge14" class="edge">
<title>r10:sw&#45;&gt;r1:n</title>
<path fill="none" stroke="black" d="M306,-459C290.93,-443.93 332.61,-446.65 346.01,-432.69"/>
<polygon fill="black" stroke="black" points="349.43,-433.58 350,-423 342.96,-430.91 349.43,-433.58"/>
<text text-anchor="middle" x="360.5" y="-447.8" font-family="Times,serif" font-size="14.00">/selected_value</text>
</g>
<!-- r7 -->
<g id="node12" class="node">
<title>r7</title>
<g id="a_node12"><a xlink:href="file:///home/runner/.flow/lib/flowstdlib/data/transpose/transpose.html" xlink:title="transpose (#7)">
<ellipse fill="coral" stroke="black" cx="136" cy="-405" rx="79.89" ry="18"/>
<text text-anchor="middle" x="136" y="-401.3" font-family="Times,serif" font-size="14.00">transpose (#7)</text>
</a>
</g>
</g>
<!-- r10&#45;&gt;r7 -->
<g id="edge15" class="edge">
<title>r10:sw&#45;&gt;r7:n</title>
<path fill="none" stroke="black" d="M306,-459C254.06,-407.06 147.12,-491.23 136.8,-433.11"/>
<polygon fill="black" stroke="black" points="140.28,-432.69 136,-423 133.3,-433.25 140.28,-432.69"/>
<text text-anchor="middle" x="251.5" y="-447.8" font-family="Times,serif" font-size="14.00">/selected_value</text>
</g>
<!-- initializerr9_1 -->
<!-- initializerr9_1&#45;&gt;r9 -->
<g id="edge4" class="edge">
<title>initializerr9_1&#45;&gt;r9:nw</title>
<path fill="none" stroke="blue" stroke-dasharray="1,5" d="M614.01,-465.75C656.16,-457.42 709.55,-444.57 733.92,-429.23"/>
<polygon fill="blue" stroke="blue" points="736.22,-431.88 742,-423 731.94,-426.34 736.22,-431.88"/>
<text text-anchor="middle" x="623.51" y="-454.55" font-family="Times,serif" font-size="14.00">42</text>
</g>
<!-- initializerr9_2 -->
<!-- initializerr9_2&#45;&gt;r9 -->
<g id="edge5" class="edge">
<title>initializerr9_2&#45;&gt;r9:ne</title>
<path fill="none" stroke="blue" stroke-dasharray="1,5" d="M783.61,-458.83C785.53,-450.31 786.51,-440.07 783.4,-431.61"/>
<polygon fill="blue" stroke="blue" points="786.28,-429.61 778,-423 780.35,-433.33 786.28,-429.61"/>
<text text-anchor="middle" x="776.61" y="-447.63" font-family="Times,serif" font-size="14.00">&#45;1</text>
</g>
<!-- r2 -->
<g id="node15" class="node">
<title>r2</title>
<g id="a_node15"><a xlink:href="file:///home/runner/.flow/lib/flowstdlib/data/accumulate/accumulate.html" xlink:title="compose_matrix (#2)">
<ellipse fill="coral" stroke="black" cx="296" cy="-106" rx="109.68" ry="18"/>
<text text-anchor="middle" x="296" y="-102.3" font-family="Times,serif" font-size="14.00">compose_matrix (#2)</text>
</a>
</g>
</g>
<!-- r0&#45;&gt;r2 -->
<g id="edge19" class="edge">
<title>r0:e&#45;&gt;r2:nw</title>
<path fill="none" stroke="black" d="M870,-322C1058.92,-322 659.3,-209.57 477,-160 394,-137.43 229.39,-183.3 271.11,-131.57"/>
<polygon fill="black" stroke="black" points="273.86,-133.75 278,-124 268.68,-129.04 273.86,-133.75"/>
<text text-anchor="middle" x="239" y="-127.8" font-family="Times,serif" font-size="14.00">chunk_size</text>
<text text-anchor="middle" x="890" y="-325.8" font-family="Times,serif" font-size="14.00">/rows</text>
</g>
<!-- r6 -->
<g id="node16" class="node">
<title>r6</title>
<g id="a_node16"><a xlink:href="file:///home/runner/.flow/lib/flowstdlib/data/multiply_row/multiply_row.html" xlink:title="multiply (#6)">
<ellipse fill="coral" stroke="black" cx="368" cy="-250" rx="72.59" ry="18"/>
<text text-anchor="middle" x="368" y="-246.3" font-family="Times,serif" font-size="14.00">multiply (#6)</text>
</a>
</g>
</g>
<!-- r5&#45;&gt;r6 -->
<g id="edge20" class="edge">
<title>r5:e&#45;&gt;r6:n</title>
<path fill="none" stroke="black" d="M674,-322C682.01,-322 678.49,-309.84 673,-304 651.73,-281.37 416.52,-298.38 374.43,-275.89"/>
<polygon fill="black" stroke="black" points="377.03,-273.54 368,-268 371.6,-277.96 377.03,-273.54"/>
<text text-anchor="middle" x="363.5" y="-271.8" font-family="Times,serif" font-size="14.00">a</text>
</g>
<!-- initializerr10_1 -->
<!-- initializerr10_1&#45;&gt;r10 -->
<g id="edge10" class="edge">
<title>initializerr10_1&#45;&gt;r10:nw</title>
<path fill="none" stroke="blue" stroke-dasharray="1,5" d="M177.58,-539.94C220.05,-531.16 273.45,-517.81 297.89,-502.29"/>
<polygon fill="blue" stroke="blue" points="300.24,-504.89 306,-496 295.95,-499.36 300.24,-504.89"/>
<text text-anchor="middle" x="168.08" y="-528.74" font-family="Times,serif" font-size="14.00">42</text>
</g>
<!-- initializerr10_2 -->
<!-- initializerr10_2&#45;&gt;r10 -->
<g id="edge11" class="edge">
<title>initializerr10_2&#45;&gt;r10:ne</title>
<path fill="none" stroke="blue" stroke-dasharray="1,5" d="M353.02,-533.77C353.32,-524.62 352.44,-513.42 347.88,-504.29"/>
<polygon fill="blue" stroke="blue" points="350.64,-502.13 342,-496 344.93,-506.18 350.64,-502.13"/>
<text text-anchor="middle" x="346.02" y="-522.57" font-family="Times,serif" font-size="14.00">&#45;1</text>
</g>
<!-- r1&#45;&gt;r5 -->
<g id="edge17" class="edge">
<title>r1:e&#45;&gt;r5:ne</title>
<path fill="none" stroke="black" d="M413,-405C429.34,-405 424.8,-387.1 439,-379 463.54,-365 566.32,-364.61 586.33,-351.05"/>
<polygon fill="black" stroke="black" points="589.83,-351.21 587,-341 582.84,-350.74 589.83,-351.21"/>
<text text-anchor="middle" x="565.5" y="-344.8" font-family="Times,serif" font-size="14.00">factor</text>
<text text-anchor="middle" x="445" y="-408.8" font-family="Times,serif" font-size="14.00">/columns</text>
</g>
<!-- r4 -->
<g id="node13" class="node">
<title>r4</title>
<g id="a_node13"><a xlink:href="file:///home/runner/.flow/lib/flowstdlib/data/duplicate/duplicate.html" xlink:title="duplicate (#4)">
<ellipse fill="coral" stroke="black" cx="308" cy="-322" rx="77.19" ry="18"/>
<text text-anchor="middle" x="308" y="-318.3" font-family="Times,serif" font-size="14.00">duplicate (#4)</text>
</a>
</g>
</g>
<!-- r1&#45;&gt;r4 -->
<g id="edge16" class="edge">
<title>r1:e&#45;&gt;r4:ne</title>
<path fill="none" stroke="black" d="M413,-405C421.01,-405 416.31,-393.76 412,-387 390.61,-353.45 361.85,-368.56 333.57,-347.56"/>
<polygon fill="black" stroke="black" points="335.85,-344.9 326,-341 331.26,-350.19 335.85,-344.9"/>
<text text-anchor="middle" x="347.5" y="-344.8" font-family="Times,serif" font-size="14.00">factor</text>
<text text-anchor="middle" x="445" y="-393.8" font-family="Times,serif" font-size="14.00">/columns</text>
</g>
<!-- r3 -->
<g id="node14" class="node">
<title>r3</title>
<g id="a_node14"><a xlink:href="file:///home/runner/.flow/lib/flowstdlib/data/accumulate/accumulate.html" xlink:title="compose_rows (#3)">
<ellipse fill="coral" stroke="black" cx="340" cy="-178" rx="101.28" ry="18"/>
<text text-anchor="middle" x="340" y="-174.3" font-family="Times,serif" font-size="14.00">compose_rows (#3)</text>
</a>
</g>
</g>
<!-- r1&#45;&gt;r3 -->
<g id="edge18" class="edge">
<title>r1:e&#45;&gt;r3:nw</title>
<path fill="none" stroke="black" d="M413,-405C421.01,-405 417.61,-392.72 412,-387 395.06,-369.75 217.91,-378.73 195,-371 115.58,-344.18 76.93,-341.7 37,-268 29.38,-253.93 26.42,-244 37,-232 119.12,-138.85 225.71,-278.26 314.55,-202.88"/>
<polygon fill="black" stroke="black" points="317.03,-205.35 322,-196 312.28,-200.21 317.03,-205.35"/>
<text text-anchor="middle" x="283" y="-199.8" font-family="Times,serif" font-size="14.00">chunk_size</text>
<text text-anchor="middle" x="381" y="-408.8" font-family="Times,serif" font-size="14.00">/columns</text>
</g>
<!-- r7&#45;&gt;r4 -->
<g id="edge21" class="edge">
<title>r7:e&#45;&gt;r4:n</title>
<path fill="none" stroke="black" d="M217,-405C236.38,-405 236.2,-390.22 252,-379 273.27,-363.9 299.76,-369.03 306.42,-351.05"/>
<polygon fill="black" stroke="black" points="309.91,-351.42 308,-341 302.99,-350.34 309.91,-351.42"/>
<text text-anchor="middle" x="288.5" y="-344.8" font-family="Times,serif" font-size="14.00">value</text>
</g>
<!-- r4&#45;&gt;r6 -->
<g id="edge22" class="edge">
<title>r4:e&#45;&gt;r6:ne</title>
<path fill="none" stroke="black" d="M387,-322C407.72,-322 404.57,-294.41 392.4,-275.94"/>
<polygon fill="black" stroke="black" points="395,-273.59 386,-268 389.55,-277.98 395,-273.59"/>
<text text-anchor="middle" x="381" y="-271.8" font-family="Times,serif" font-size="14.00">b</text>
</g>
<!-- r3&#45;&gt;r3 -->
<g id="edge25" class="edge">
<title>r3:sw&#45;&gt;r3:ne</title>
<path fill="none" stroke="black" d="M322,-160C166.61,-178 166.61,-232 340,-232 509.5,-232 513.3,-209.07 368.24,-196.83"/>
<polygon fill="black" stroke="black" points="368.25,-193.32 358,-196 367.69,-200.29 368.25,-193.32"/>
<text text-anchor="middle" x="382" y="-199.8" font-family="Times,serif" font-size="14.00">partial</text>
<text text-anchor="middle" x="296" y="-148.8" font-family="Times,serif" font-size="14.00">/partial</text>
</g>
<!-- r3&#45;&gt;r3 -->
<g id="edge26" class="edge">
<title>r3:s&#45;&gt;r3:nw</title>
<path fill="none" stroke="black" d="M340,-160C282.2,-142 166.61,-142 166.61,-178 166.61,-212.03 253.82,-213.89 312.18,-198.79"/>
<polygon fill="black" stroke="black" points="313.34,-202.1 322,-196 311.42,-195.37 313.34,-202.1"/>
<text text-anchor="middle" x="361" y="-199.8" font-family="Times,serif" font-size="14.00">chunk_size</text>
<text text-anchor="middle" x="381" y="-148.8" font-family="Times,serif" font-size="14.00">/chunk_size</text>
</g>
<!-- r3&#45;&gt;r2 -->
<g id="edge27" class="edge">
<title>r3:e&#45;&gt;r2:n</title>
<path fill="none" stroke="black" d="M443,-178C451.01,-178 447.11,-166.17 442,-160 401.76,-111.47 307.51,-181.94 296.96,-133.97"/>
<polygon fill="black" stroke="black" points="300.45,-133.62 296,-124 293.48,-134.29 300.45,-133.62"/>
<text text-anchor="middle" x="319" y="-127.8" font-family="Times,serif" font-size="14.00">values</text>
<text text-anchor="middle" x="467" y="-181.8" font-family="Times,serif" font-size="14.00">/chunk</text>
</g>
<!-- r2&#45;&gt;r2 -->
<g id="edge29" class="edge">
<title>r2:sw&#45;&gt;r2:ne</title>
<path fill="none" stroke="black" d="M278,-88C114.16,-106 114.16,-160 296,-160 473.93,-160 477.76,-137.02 324.33,-124.79"/>
<polygon fill="black" stroke="black" points="324.24,-121.27 314,-124 323.7,-128.25 324.24,-121.27"/>
<text text-anchor="middle" x="338" y="-127.8" font-family="Times,serif" font-size="14.00">partial</text>
<text text-anchor="middle" x="252" y="-76.8" font-family="Times,serif" font-size="14.00">/partial</text>
</g>
<!-- r2&#45;&gt;r2 -->
<g id="edge30" class="edge">
<title>r2:s&#45;&gt;r2:nw</title>
<path fill="none" stroke="black" d="M296,-88C235.39,-70 114.16,-70 114.16,-106 114.16,-140.1 206.79,-141.9 268.08,-126.69"/>
<polygon fill="black" stroke="black" points="269.27,-130 278,-124 267.43,-123.24 269.27,-130"/>
<text text-anchor="middle" x="239" y="-127.8" font-family="Times,serif" font-size="14.00">chunk_size</text>
<text text-anchor="middle" x="337" y="-76.8" font-family="Times,serif" font-size="14.00">/chunk_size</text>
</g>
<!-- r11 -->
<g id="node19" class="node">
<title>r11</title>
<g id="a_node19"><a xlink:href="file:///home/runner/work/flow/flow/flowr/src/bin/flowrcli/context/stdio/stdout.html" xlink:title="stdout (#11)">
<ellipse fill="coral" stroke="black" cx="371" cy="-34" rx="69.59" ry="18"/>
<text text-anchor="middle" x="371" y="-30.3" font-family="Times,serif" font-size="14.00">stdout (#11)</text>
</a>
</g>
</g>
<!-- r2&#45;&gt;r11 -->
<g id="edge31" class="edge">
<title>r2:e&#45;&gt;r11:n</title>
<path fill="none" stroke="black" d="M407,-106C415.01,-106 409.22,-95.34 406,-88 398.72,-71.4 380.16,-72.74 373.46,-61.86"/>
<polygon fill="black" stroke="black" points="376.82,-60.85 371,-52 370.03,-62.55 376.82,-60.85"/>
<text text-anchor="middle" x="431" y="-109.8" font-family="Times,serif" font-size="14.00">/chunk</text>
</g>
<!-- r6&#45;&gt;r3 -->
<g id="edge23" class="edge">
<title>r6:e&#45;&gt;r3:n</title>
<path fill="none" stroke="black" d="M442,-250C450.01,-250 445.8,-238.42 441,-232 414.92,-197.11 352.13,-235.74 341.53,-206.24"/>
<polygon fill="black" stroke="black" points="344.94,-205.37 340,-196 338.02,-206.41 344.94,-205.37"/>
<text text-anchor="middle" x="317" y="-184.8" font-family="Times,serif" font-size="14.00">values</text>
</g>
<!-- initializerr3_1 -->
<!-- initializerr3_1&#45;&gt;r3 -->
<g id="edge24" class="edge">
<title>initializerr3_1&#45;&gt;r3:n</title>
<path fill="none" stroke="blue" stroke-dasharray="1,5" d="M206.39,-238.53C252.95,-229.49 313.52,-215.99 333.38,-203.67"/>
<polygon fill="blue" stroke="blue" points="336.12,-205.86 340,-196 330.82,-201.28 336.12,-205.86"/>
<text text-anchor="middle" x="200.89" y="-227.33" font-family="Times,serif" font-size="14.00">[]</text>
</g>
<!-- initializerr2_1 -->
<!-- initializerr2_1&#45;&gt;r2 -->
<g id="edge28" class="edge">
<title>initializerr2_1&#45;&gt;r2:n</title>
<path fill="none" stroke="blue" stroke-dasharray="1,5" d="M151.4,-167.22C201.71,-158.37 268.4,-144.76 289.39,-131.76"/>
<polygon fill="blue" stroke="blue" points="292.18,-133.88 296,-124 286.85,-129.34 292.18,-133.88"/>
<text text-anchor="middle" x="145.9" y="-156.02" font-family="Times,serif" font-size="14.00">[]</text>
</g>
</g>
</svg>
