<?xml version="1.0" encoding="UTF-8" standalone="no"?>
<!DOCTYPE svg PUBLIC "-//W3C//DTD SVG 1.1//EN"
 "http://www.w3.org/Graphics/SVG/1.1/DTD/svg11.dtd">
<!-- Generated by graphviz version 2.43.0 (0)
 -->
<!-- Title: matrix_mult Pages: 1 -->
<svg width="934pt" height="640pt"
 viewBox="0.00 0.00 933.93 640.00" xmlns="http://www.w3.org/2000/svg" xmlns:xlink="http://www.w3.org/1999/xlink">
<g id="graph0" class="graph" transform="scale(1 1) rotate(0) translate(4 636)">
<title>matrix_mult</title>
<polygon fill="white" stroke="transparent" points="-4,4 -4,-636 929.93,-636 929.93,4 -4,4"/>
<text text-anchor="middle" x="462.97" y="-616.8" font-family="Times,serif" font-size="14.00">/matrix_mult</text>
<g id="clust1" class="cluster">
<title>cluster_select_0</title>
<polygon fill="none" stroke="black" points="457,-296 457,-526 877,-526 877,-296 457,-296"/>
<text text-anchor="middle" x="667" y="-510.8" font-family="Times,serif" font-size="14.00">/matrix_mult/select_0</text>
</g>
<g id="clust2" class="cluster">
<title>cluster_select_1</title>
<polygon fill="none" stroke="black" points="23,-379 23,-601 435,-601 435,-379 23,-379"/>
<text text-anchor="middle" x="229" y="-585.8" font-family="Times,serif" font-size="14.00">/matrix_mult/select_1</text>
</g>
<g id="clust3" class="cluster">
<title>cluster_multiply</title>
<polygon fill="none" stroke="black" points="8,-8 8,-371 449,-371 449,-8 8,-8"/>
<text text-anchor="middle" x="228.5" y="-355.8" font-family="Times,serif" font-size="14.00">/matrix_mult/multiply</text>
</g>
<!-- r9 -->
<g id="node1" class="node">
<title>r9</title>
<g id="a_node1"><a xlink:href="file:///home/runner/work/flow/flow/flowr/src/cli/stdio/readline.html" xlink:title="readline (#9)">
<ellipse fill="coral" stroke="black" cx="781" cy="-552" rx="72.29" ry="18"/>
<text text-anchor="middle" x="781" y="-548.3" font-family="Times,serif" font-size="14.00">readline (#9)</text>
</a>
</g>
</g>
<!-- r10 -->
<g id="node2" class="node">
<title>r10</title>
<g id="a_node2"><a xlink:href="file:///home/runner/work/flow/flow/target/flowstdlib/control/index/index.html" xlink:title="index (#10)">
<ellipse fill="coral" stroke="black" cx="766" cy="-405" rx="65.79" ry="18"/>
<text text-anchor="middle" x="766" y="-401.3" font-family="Times,serif" font-size="14.00">index (#10)</text>
</a>
</g>
</g>
<!-- r9&#45;&gt;r10 -->
<g id="edge1" class="edge">
<title>r9:sw&#45;&gt;r10:n</title>
<path fill="none" stroke="black" d="M763,-534C741.28,-512.28 879.92,-548.34 901,-526 992.12,-429.44 805.54,-455.54 771.28,-431.69"/>
<polygon fill="black" stroke="black" points="774.18,-429.73 766,-423 768.2,-433.36 774.18,-429.73"/>
<text text-anchor="middle" x="746.5" y="-426.8" font-family="Times,serif" font-size="14.00">value</text>
<text text-anchor="middle" x="780" y="-522.8" font-family="Times,serif" font-size="14.00">/json</text>
</g>
<!-- r11 -->
<g id="node3" class="node">
<title>r11</title>
<g id="a_node3"><a xlink:href="file:///home/runner/work/flow/flow/target/flowstdlib/control/index/index.html" xlink:title="index (#11)">
<ellipse fill="coral" stroke="black" cx="313" cy="-477" rx="65.79" ry="18"/>
<text text-anchor="middle" x="313" y="-473.3" font-family="Times,serif" font-size="14.00">index (#11)</text>
</a>
</g>
</g>
<!-- r9&#45;&gt;r11 -->
<g id="edge2" class="edge">
<title>r9:sw&#45;&gt;r11:n</title>
<path fill="none" stroke="black" d="M763,-534C750.27,-521.27 456.86,-528.32 439,-526 385.59,-519.06 321.83,-549.23 313.84,-506.01"/>
<polygon fill="black" stroke="black" points="317.32,-505.67 313,-496 310.35,-506.26 317.32,-505.67"/>
<text text-anchor="middle" x="293.5" y="-499.8" font-family="Times,serif" font-size="14.00">value</text>
<text text-anchor="middle" x="746" y="-522.8" font-family="Times,serif" font-size="14.00">/json</text>
</g>
<!-- r10&#45;&gt;r10 -->
<g id="edge5" class="edge">
<title>r10:s&#45;&gt;r10:ne</title>
<path fill="none" stroke="black" d="M766,-387C811.88,-369 903.64,-369 903.64,-405 903.64,-438.61 839.35,-440.84 793.48,-426.34"/>
<polygon fill="black" stroke="black" points="794.59,-423.02 784,-423 792.27,-429.63 794.59,-423.02"/>
<text text-anchor="middle" x="837.5" y="-426.8" font-family="Times,serif" font-size="14.00">previous_value</text>
<text text-anchor="middle" x="787.5" y="-375.8" font-family="Times,serif" font-size="14.00">/value</text>
</g>
<!-- r10&#45;&gt;r10 -->
<g id="edge6" class="edge">
<title>r10:e&#45;&gt;r10:nw</title>
<path fill="none" stroke="black" d="M832,-405C903.64,-423 903.64,-459 790,-459 681.9,-459 676.63,-437.29 738.02,-424.84"/>
<polygon fill="black" stroke="black" points="738.8,-428.26 748,-423 737.53,-421.37 738.8,-428.26"/>
<text text-anchor="middle" x="694" y="-426.8" font-family="Times,serif" font-size="14.00">previous_index</text>
<text text-anchor="middle" x="854" y="-408.8" font-family="Times,serif" font-size="14.00">/index</text>
</g>
<!-- r0 -->
<g id="node6" class="node">
<title>r0</title>
<g id="a_node6"><a xlink:href="file:///home/runner/work/flow/flow/target/flowstdlib/data/info/info.html" xlink:title="a_info (#0)">
<ellipse fill="coral" stroke="black" cx="807" cy="-322" rx="61.99" ry="18"/>
<text text-anchor="middle" x="807" y="-318.3" font-family="Times,serif" font-size="14.00">a_info (#0)</text>
</a>
</g>
</g>
<!-- r10&#45;&gt;r0 -->
<g id="edge7" class="edge">
<title>r10:sw&#45;&gt;r0:n</title>
<path fill="none" stroke="black" d="M748,-386C727.32,-365.32 789.71,-371.86 804.1,-350.62"/>
<polygon fill="black" stroke="black" points="807.47,-351.58 807,-341 800.77,-349.57 807.47,-351.58"/>
<text text-anchor="middle" x="693.5" y="-374.8" font-family="Times,serif" font-size="14.00">/selected_value</text>
</g>
<!-- r5 -->
<g id="node7" class="node">
<title>r5</title>
<g id="a_node7"><a xlink:href="file:///home/runner/work/flow/flow/target/flowstdlib/data/duplicate_rows/duplicate_rows.html" xlink:title="duplicate_rows (#5)">
<ellipse fill="coral" stroke="black" cx="569" cy="-322" rx="103.98" ry="18"/>
<text text-anchor="middle" x="569" y="-318.3" font-family="Times,serif" font-size="14.00">duplicate_rows (#5)</text>
</a>
</g>
</g>
<!-- r10&#45;&gt;r5 -->
<g id="edge8" class="edge">
<title>r10:sw&#45;&gt;r5:n</title>
<path fill="none" stroke="black" d="M748,-386C721.6,-359.6 594.98,-377.96 572.44,-350.54"/>
<polygon fill="black" stroke="black" points="575.68,-349.22 569,-341 569.09,-351.59 575.68,-349.22"/>
<text text-anchor="middle" x="802.5" y="-374.8" font-family="Times,serif" font-size="14.00">/selected_value</text>
</g>
<!-- r11&#45;&gt;r11 -->
<g id="edge11" class="edge">
<title>r11:s&#45;&gt;r11:ne</title>
<path fill="none" stroke="black" d="M313,-459C358.88,-441 450.64,-441 450.64,-477 450.64,-510.61 386.35,-512.84 340.48,-498.34"/>
<polygon fill="black" stroke="black" points="341.59,-495.02 331,-495 339.27,-501.63 341.59,-495.02"/>
<text text-anchor="middle" x="384.5" y="-498.8" font-family="Times,serif" font-size="14.00">previous_value</text>
<text text-anchor="middle" x="291.5" y="-447.8" font-family="Times,serif" font-size="14.00">/value</text>
</g>
<!-- r11&#45;&gt;r11 -->
<g id="edge12" class="edge">
<title>r11:e&#45;&gt;r11:nw</title>
<path fill="none" stroke="black" d="M379,-477C450.64,-495 450.64,-531 337,-531 228.9,-531 223.63,-509.29 285.02,-496.84"/>
<polygon fill="black" stroke="black" points="285.8,-500.26 295,-495 284.53,-493.37 285.8,-500.26"/>
<text text-anchor="middle" x="241" y="-498.8" font-family="Times,serif" font-size="14.00">previous_index</text>
<text text-anchor="middle" x="401" y="-480.8" font-family="Times,serif" font-size="14.00">/index</text>
</g>
<!-- r1 -->
<g id="node10" class="node">
<title>r1</title>
<g id="a_node10"><a xlink:href="file:///home/runner/work/flow/flow/target/flowstdlib/data/info/info.html" xlink:title="b_info (#1)">
<ellipse fill="coral" stroke="black" cx="345" cy="-405" rx="61.99" ry="18"/>
<text text-anchor="middle" x="345" y="-401.3" font-family="Times,serif" font-size="14.00">b_info (#1)</text>
</a>
</g>
</g>
<!-- r11&#45;&gt;r1 -->
<g id="edge13" class="edge">
<title>r11:sw&#45;&gt;r1:n</title>
<path fill="none" stroke="black" d="M295,-459C278.36,-442.36 327.25,-447.96 341.32,-432.48"/>
<polygon fill="black" stroke="black" points="344.65,-433.59 345,-423 338.12,-431.06 344.65,-433.59"/>
<text text-anchor="middle" x="349.5" y="-447.8" font-family="Times,serif" font-size="14.00">/selected_value</text>
</g>
<!-- r7 -->
<g id="node11" class="node">
<title>r7</title>
<g id="a_node11"><a xlink:href="file:///home/runner/work/flow/flow/target/flowstdlib/data/transpose/transpose.html" xlink:title="transpose (#7)">
<ellipse fill="coral" stroke="black" cx="131" cy="-405" rx="79.89" ry="18"/>
<text text-anchor="middle" x="131" y="-401.3" font-family="Times,serif" font-size="14.00">transpose (#7)</text>
</a>
</g>
</g>
<!-- r11&#45;&gt;r7 -->
<g id="edge14" class="edge">
<title>r11:sw&#45;&gt;r7:n</title>
<path fill="none" stroke="black" d="M295,-459C244.91,-408.91 142.15,-488.71 131.84,-433.12"/>
<polygon fill="black" stroke="black" points="135.31,-432.68 131,-423 128.34,-433.25 135.31,-432.68"/>
<text text-anchor="middle" x="240.5" y="-447.8" font-family="Times,serif" font-size="14.00">/selected_value</text>
</g>
<!-- initializerr10_1 -->
<!-- initializerr10_1&#45;&gt;r10 -->
<g id="edge3" class="edge">
<title>initializerr10_1&#45;&gt;r10:nw</title>
<path fill="none" stroke="blue" stroke-dasharray="1,5" d="M614.27,-465.93C658.91,-457.81 714.72,-445.15 739.92,-429.25"/>
<polygon fill="blue" stroke="blue" points="742.23,-431.89 748,-423 737.95,-426.35 742.23,-431.89"/>
<text text-anchor="middle" x="623.77" y="-454.73" font-family="Times,serif" font-size="14.00">42</text>
</g>
<!-- initializerr10_2 -->
<!-- initializerr10_2&#45;&gt;r10 -->
<g id="edge4" class="edge">
<title>initializerr10_2&#45;&gt;r10:ne</title>
<path fill="none" stroke="blue" stroke-dasharray="1,5" d="M789.61,-458.83C791.53,-450.31 792.51,-440.07 789.4,-431.61"/>
<polygon fill="blue" stroke="blue" points="792.28,-429.61 784,-423 786.35,-433.33 792.28,-429.61"/>
<text text-anchor="middle" x="782.61" y="-447.63" font-family="Times,serif" font-size="14.00">&#45;1</text>
</g>
<!-- r2 -->
<g id="node14" class="node">
<title>r2</title>
<g id="a_node14"><a xlink:href="file:///home/runner/work/flow/flow/target/flowstdlib/data/accumulate/accumulate.html" xlink:title="compose_matrix (#2)">
<ellipse fill="coral" stroke="black" cx="302" cy="-106" rx="109.68" ry="18"/>
<text text-anchor="middle" x="302" y="-102.3" font-family="Times,serif" font-size="14.00">compose_matrix (#2)</text>
</a>
</g>
</g>
<!-- r0&#45;&gt;r2 -->
<g id="edge18" class="edge">
<title>r0:e&#45;&gt;r2:nw</title>
<path fill="none" stroke="black" d="M870,-322C1058.92,-322 659.17,-210.07 477,-160 396.64,-137.91 237.45,-181.46 277.06,-131.66"/>
<polygon fill="black" stroke="black" points="279.88,-133.76 284,-124 274.69,-129.06 279.88,-133.76"/>
<text text-anchor="middle" x="245" y="-127.8" font-family="Times,serif" font-size="14.00">chunk_size</text>
<text text-anchor="middle" x="890" y="-325.8" font-family="Times,serif" font-size="14.00">/rows</text>
</g>
<!-- r6 -->
<g id="node15" class="node">
<title>r6</title>
<g id="a_node15"><a xlink:href="file:///home/runner/work/flow/flow/target/flowstdlib/data/multiply_row/multiply_row.html" xlink:title="multiply (#6)">
<ellipse fill="coral" stroke="black" cx="368" cy="-250" rx="72.59" ry="18"/>
<text text-anchor="middle" x="368" y="-246.3" font-family="Times,serif" font-size="14.00">multiply (#6)</text>
</a>
</g>
</g>
<!-- r5&#45;&gt;r6 -->
<g id="edge19" class="edge">
<title>r5:e&#45;&gt;r6:n</title>
<path fill="none" stroke="black" d="M674,-322C682.01,-322 678.49,-309.84 673,-304 651.73,-281.37 416.52,-298.38 374.43,-275.89"/>
<polygon fill="black" stroke="black" points="377.03,-273.54 368,-268 371.6,-277.96 377.03,-273.54"/>
<text text-anchor="middle" x="363.5" y="-271.8" font-family="Times,serif" font-size="14.00">a</text>
</g>
<!-- initializerr11_1 -->
<!-- initializerr11_1&#45;&gt;r11 -->
<g id="edge9" class="edge">
<title>initializerr11_1&#45;&gt;r11:nw</title>
<path fill="none" stroke="blue" stroke-dasharray="1,5" d="M171.09,-539.57C211.97,-530.68 263.12,-517.35 286.85,-502.31"/>
<polygon fill="blue" stroke="blue" points="289.23,-504.89 295,-496 284.95,-499.35 289.23,-504.89"/>
<text text-anchor="middle" x="161.59" y="-528.37" font-family="Times,serif" font-size="14.00">42</text>
</g>
<!-- initializerr11_2 -->
<!-- initializerr11_2&#45;&gt;r11 -->
<g id="edge10" class="edge">
<title>initializerr11_2&#45;&gt;r11:ne</title>
<path fill="none" stroke="blue" stroke-dasharray="1,5" d="M345.64,-533.91C344.75,-524.71 342.51,-513.39 337.15,-504.12"/>
<polygon fill="blue" stroke="blue" points="339.83,-501.86 331,-496 334.25,-506.09 339.83,-501.86"/>
<text text-anchor="middle" x="338.64" y="-522.71" font-family="Times,serif" font-size="14.00">&#45;1</text>
</g>
<!-- r1&#45;&gt;r5 -->
<g id="edge16" class="edge">
<title>r1:e&#45;&gt;r5:ne</title>
<path fill="none" stroke="black" d="M408,-405C425.98,-405 423.01,-387.22 439,-379 495.87,-349.78 619.39,-384.46 593.6,-348.56"/>
<polygon fill="black" stroke="black" points="596.22,-346.23 587,-341 590.94,-350.83 596.22,-346.23"/>
<text text-anchor="middle" x="565.5" y="-344.8" font-family="Times,serif" font-size="14.00">factor</text>
<text text-anchor="middle" x="440" y="-408.8" font-family="Times,serif" font-size="14.00">/columns</text>
</g>
<!-- r4 -->
<g id="node12" class="node">
<title>r4</title>
<g id="a_node12"><a xlink:href="file:///home/runner/work/flow/flow/target/flowstdlib/data/duplicate/duplicate.html" xlink:title="duplicate (#4)">
<ellipse fill="coral" stroke="black" cx="308" cy="-322" rx="77.19" ry="18"/>
<text text-anchor="middle" x="308" y="-318.3" font-family="Times,serif" font-size="14.00">duplicate (#4)</text>
</a>
</g>
</g>
<!-- r1&#45;&gt;r4 -->
<g id="edge15" class="edge">
<title>r1:e&#45;&gt;r4:ne</title>
<path fill="none" stroke="black" d="M408,-405C416.01,-405 411.22,-393.81 407,-387 387.06,-354.84 360.36,-367.5 333.56,-347.55"/>
<polygon fill="black" stroke="black" points="335.85,-344.91 326,-341 331.26,-350.2 335.85,-344.91"/>
<text text-anchor="middle" x="347.5" y="-344.8" font-family="Times,serif" font-size="14.00">factor</text>
<text text-anchor="middle" x="440" y="-393.8" font-family="Times,serif" font-size="14.00">/columns</text>
</g>
<!-- r3 -->
<g id="node13" class="node">
<title>r3</title>
<g id="a_node13"><a xlink:href="file:///home/runner/work/flow/flow/target/flowstdlib/data/accumulate/accumulate.html" xlink:title="compose_rows (#3)">
<ellipse fill="coral" stroke="black" cx="340" cy="-178" rx="101.28" ry="18"/>
<text text-anchor="middle" x="340" y="-174.3" font-family="Times,serif" font-size="14.00">compose_rows (#3)</text>
</a>
</g>
</g>
<!-- r1&#45;&gt;r3 -->
<g id="edge17" class="edge">
<title>r1:e&#45;&gt;r3:nw</title>
<path fill="none" stroke="black" d="M408,-405C416.01,-405 412.61,-392.72 407,-387 373.93,-353.26 239.75,-386.15 195,-371 115.6,-344.11 76.93,-341.7 37,-268 29.38,-253.93 26.42,-244 37,-232 119.12,-138.85 225.71,-278.26 314.55,-202.88"/>
<polygon fill="black" stroke="black" points="317.03,-205.35 322,-196 312.28,-200.21 317.03,-205.35"/>
<text text-anchor="middle" x="283" y="-199.8" font-family="Times,serif" font-size="14.00">chunk_size</text>
<text text-anchor="middle" x="376" y="-408.8" font-family="Times,serif" font-size="14.00">/columns</text>
</g>
<!-- r7&#45;&gt;r4 -->
<g id="edge20" class="edge">
<title>r7:e&#45;&gt;r4:n</title>
<path fill="none" stroke="black" d="M212,-405C231.38,-405 230.99,-389.91 247,-379 270.1,-363.26 299.48,-370.43 306.46,-351.07"/>
<polygon fill="black" stroke="black" points="309.95,-351.41 308,-341 303.03,-350.36 309.95,-351.41"/>
<text text-anchor="middle" x="288.5" y="-344.8" font-family="Times,serif" font-size="14.00">value</text>
</g>
<!-- r4&#45;&gt;r6 -->
<g id="edge21" class="edge">
<title>r4:e&#45;&gt;r6:ne</title>
<path fill="none" stroke="black" d="M387,-322C407.72,-322 404.57,-294.41 392.4,-275.94"/>
<polygon fill="black" stroke="black" points="395,-273.59 386,-268 389.55,-277.98 395,-273.59"/>
<text text-anchor="middle" x="381" y="-271.8" font-family="Times,serif" font-size="14.00">b</text>
</g>
<!-- r3&#45;&gt;r3 -->
<g id="edge24" class="edge">
<title>r3:sw&#45;&gt;r3:ne</title>
<path fill="none" stroke="black" d="M322,-160C166.61,-178 166.61,-232 340,-232 509.5,-232 513.3,-209.07 368.24,-196.83"/>
<polygon fill="black" stroke="black" points="368.25,-193.32 358,-196 367.69,-200.29 368.25,-193.32"/>
<text text-anchor="middle" x="382" y="-199.8" font-family="Times,serif" font-size="14.00">partial</text>
<text text-anchor="middle" x="296" y="-148.8" font-family="Times,serif" font-size="14.00">/partial</text>
</g>
<!-- r3&#45;&gt;r3 -->
<g id="edge25" class="edge">
<title>r3:s&#45;&gt;r3:nw</title>
<path fill="none" stroke="black" d="M340,-160C282.2,-142 166.61,-142 166.61,-178 166.61,-212.03 253.82,-213.89 312.18,-198.79"/>
<polygon fill="black" stroke="black" points="313.34,-202.1 322,-196 311.42,-195.37 313.34,-202.1"/>
<text text-anchor="middle" x="361" y="-199.8" font-family="Times,serif" font-size="14.00">chunk_size</text>
<text text-anchor="middle" x="381" y="-148.8" font-family="Times,serif" font-size="14.00">/chunk_size</text>
</g>
<!-- r3&#45;&gt;r2 -->
<g id="edge26" class="edge">
<title>r3:e&#45;&gt;r2:n</title>
<path fill="none" stroke="black" d="M443,-178C451.01,-178 447.08,-166.19 442,-160 403.71,-113.35 313.8,-179.28 303.06,-134.17"/>
<polygon fill="black" stroke="black" points="306.51,-133.58 302,-124 299.55,-134.31 306.51,-133.58"/>
<text text-anchor="middle" x="325" y="-127.8" font-family="Times,serif" font-size="14.00">values</text>
<text text-anchor="middle" x="467" y="-181.8" font-family="Times,serif" font-size="14.00">/chunk</text>
</g>
<!-- r2&#45;&gt;r2 -->
<g id="edge28" class="edge">
<title>r2:sw&#45;&gt;r2:ne</title>
<path fill="none" stroke="black" d="M284,-88C120.16,-106 120.16,-160 302,-160 479.93,-160 483.76,-137.02 330.33,-124.79"/>
<polygon fill="black" stroke="black" points="330.24,-121.27 320,-124 329.7,-128.25 330.24,-121.27"/>
<text text-anchor="middle" x="344" y="-127.8" font-family="Times,serif" font-size="14.00">partial</text>
<text text-anchor="middle" x="258" y="-76.8" font-family="Times,serif" font-size="14.00">/partial</text>
</g>
<!-- r2&#45;&gt;r2 -->
<g id="edge29" class="edge">
<title>r2:s&#45;&gt;r2:nw</title>
<path fill="none" stroke="black" d="M302,-88C241.39,-70 120.16,-70 120.16,-106 120.16,-140.1 212.79,-141.9 274.08,-126.69"/>
<polygon fill="black" stroke="black" points="275.27,-130 284,-124 273.43,-123.24 275.27,-130"/>
<text text-anchor="middle" x="245" y="-127.8" font-family="Times,serif" font-size="14.00">chunk_size</text>
<text text-anchor="middle" x="343" y="-76.8" font-family="Times,serif" font-size="14.00">/chunk_size</text>
</g>
<!-- r8 -->
<g id="node18" class="node">
<title>r8</title>
<g id="a_node18"><a xlink:href="file:///home/runner/work/flow/flow/flowr/src/cli/stdio/stdout.html" xlink:title="print (#8)">
<ellipse fill="coral" stroke="black" cx="384" cy="-34" rx="57.39" ry="18"/>
<text text-anchor="middle" x="384" y="-30.3" font-family="Times,serif" font-size="14.00">print (#8)</text>
</a>
</g>
</g>
<!-- r2&#45;&gt;r8 -->
<g id="edge30" class="edge">
<title>r2:e&#45;&gt;r8:n</title>
<path fill="none" stroke="black" d="M413,-106C421.01,-106 414.81,-95.5 412,-88 406.34,-72.87 391.92,-71.87 386.3,-61.82"/>
<polygon fill="black" stroke="black" points="389.68,-60.94 384,-52 382.87,-62.53 389.68,-60.94"/>
<text text-anchor="middle" x="437" y="-109.8" font-family="Times,serif" font-size="14.00">/chunk</text>
</g>
<!-- r6&#45;&gt;r3 -->
<g id="edge22" class="edge">
<title>r6:e&#45;&gt;r3:n</title>
<path fill="none" stroke="black" d="M442,-250C450.01,-250 445.8,-238.42 441,-232 414.92,-197.11 352.13,-235.74 341.53,-206.24"/>
<polygon fill="black" stroke="black" points="344.94,-205.37 340,-196 338.02,-206.41 344.94,-205.37"/>
<text text-anchor="middle" x="317" y="-184.8" font-family="Times,serif" font-size="14.00">values</text>
</g>
<!-- initializerr3_1 -->
<!-- initializerr3_1&#45;&gt;r3 -->
<g id="edge23" class="edge">
<title>initializerr3_1&#45;&gt;r3:n</title>
<path fill="none" stroke="blue" stroke-dasharray="1,5" d="M206.39,-238.53C252.95,-229.49 313.52,-215.99 333.38,-203.67"/>
<polygon fill="blue" stroke="blue" points="336.12,-205.86 340,-196 330.82,-201.28 336.12,-205.86"/>
<text text-anchor="middle" x="200.89" y="-227.33" font-family="Times,serif" font-size="14.00">[]</text>
</g>
<!-- initializerr2_1 -->
<!-- initializerr2_1&#45;&gt;r2 -->
<g id="edge27" class="edge">
<title>initializerr2_1&#45;&gt;r2:n</title>
<path fill="none" stroke="blue" stroke-dasharray="1,5" d="M152.6,-167.48C204.66,-158.71 274.08,-145.07 295.46,-131.76"/>
<polygon fill="blue" stroke="blue" points="298.23,-133.9 302,-124 292.88,-129.39 298.23,-133.9"/>
<text text-anchor="middle" x="147.1" y="-156.28" font-family="Times,serif" font-size="14.00">[]</text>
</g>
</g>
</svg>
