<?xml version="1.0" encoding="UTF-8" standalone="no"?>
<!DOCTYPE svg PUBLIC "-//W3C//DTD SVG 1.1//EN"
 "http://www.w3.org/Graphics/SVG/1.1/DTD/svg11.dtd">
<!-- Generated by graphviz version 2.43.0 (0)
 -->
<!-- Title: matrix_mult Pages: 1 -->
<svg width="1003pt" height="731pt"
 viewBox="0.00 0.00 1003.00 731.00" xmlns="http://www.w3.org/2000/svg" xmlns:xlink="http://www.w3.org/1999/xlink">
<g id="graph0" class="graph" transform="scale(1 1) rotate(0) translate(4 727)">
<title>matrix_mult</title>
<polygon fill="white" stroke="transparent" points="-4,4 -4,-727 999,-727 999,4 -4,4"/>
<text text-anchor="middle" x="497.5" y="-707.8" font-family="Times,serif" font-size="14.00">/matrix_mult</text>
<g id="clust1" class="cluster">
<title>cluster_select_0</title>
<polygon fill="none" stroke="black" points="8,-328 8,-584 428,-584 428,-328 8,-328"/>
<text text-anchor="middle" x="218" y="-568.8" font-family="Times,serif" font-size="14.00">/matrix_mult/select_0</text>
</g>
<g id="clust2" class="cluster">
<title>cluster_select_1</title>
<polygon fill="none" stroke="black" points="566,-422 566,-692 978,-692 978,-422 566,-422"/>
<text text-anchor="middle" x="772" y="-676.8" font-family="Times,serif" font-size="14.00">/matrix_mult/select_1</text>
</g>
<g id="clust3" class="cluster">
<title>cluster_multiply</title>
<polygon fill="none" stroke="black" points="442,-8 442,-403 883,-403 883,-8 442,-8"/>
<text text-anchor="middle" x="662.5" y="-387.8" font-family="Times,serif" font-size="14.00">/matrix_mult/multiply</text>
</g>
<!-- r9 -->
<g id="node1" class="node">
<title>r9</title>
<g id="a_node1"><a xlink:href="file:///home/runner/work/flow/flow/flowr/src/cli/stdio/readline.html" xlink:title="readline (#9)">
<ellipse fill="coral" stroke="black" cx="430" cy="-643" rx="72.29" ry="18"/>
<text text-anchor="middle" x="430" y="-639.3" font-family="Times,serif" font-size="14.00">readline (#9)</text>
</a>
</g>
</g>
<!-- r10 -->
<g id="node2" class="node">
<title>r10</title>
<g id="a_node2"><a xlink:href="file:///home/runner/work/flow/flow/target/flowstdlib/control/index/index.html" xlink:title="index (#10)">
<ellipse fill="coral" stroke="black" cx="313" cy="-448" rx="65.79" ry="18"/>
<text text-anchor="middle" x="313" y="-444.3" font-family="Times,serif" font-size="14.00">index (#10)</text>
</a>
</g>
</g>
<!-- r9&#45;&gt;r10 -->
<g id="edge1" class="edge">
<title>r9:sw&#45;&gt;r10:n</title>
<path fill="none" stroke="black" d="M412,-625C394.85,-607.85 439.45,-606.69 448,-584 458.5,-556.13 464.33,-541.9 448,-517 427.8,-486.21 406.56,-496.73 372,-484 350.29,-476.01 323.21,-488.2 315.28,-475.74"/>
<polygon fill="black" stroke="black" points="318.69,-474.94 313,-466 311.87,-476.53 318.69,-474.94"/>
<text text-anchor="middle" x="293.5" y="-469.8" font-family="Times,serif" font-size="14.00">value</text>
<text text-anchor="middle" x="395" y="-613.8" font-family="Times,serif" font-size="14.00">/json</text>
</g>
<!-- r11 -->
<g id="node3" class="node">
<title>r11</title>
<g id="a_node3"><a xlink:href="file:///home/runner/work/flow/flow/target/flowstdlib/control/index/index.html" xlink:title="index (#11)">
<ellipse fill="coral" stroke="black" cx="732" cy="-535" rx="65.79" ry="18"/>
<text text-anchor="middle" x="732" y="-531.3" font-family="Times,serif" font-size="14.00">index (#11)</text>
</a>
</g>
</g>
<!-- r9&#45;&gt;r11 -->
<g id="edge2" class="edge">
<title>r9:sw&#45;&gt;r11:n</title>
<path fill="none" stroke="black" d="M412,-625C388.73,-601.73 526.81,-613.85 559,-607 576.21,-603.34 695.75,-580.9 725.37,-561.88"/>
<polygon fill="black" stroke="black" points="728.24,-563.91 732,-554 722.88,-559.4 728.24,-563.91"/>
<text text-anchor="middle" x="712.5" y="-557.8" font-family="Times,serif" font-size="14.00">value</text>
<text text-anchor="middle" x="429" y="-613.8" font-family="Times,serif" font-size="14.00">/json</text>
</g>
<!-- r10&#45;&gt;r10 -->
<g id="edge5" class="edge">
<title>r10:s&#45;&gt;r10:ne</title>
<path fill="none" stroke="black" d="M313,-430C358.88,-421 450.64,-421 450.64,-448 450.64,-473.1 386.89,-474.87 341.06,-467.76"/>
<polygon fill="black" stroke="black" points="341.45,-464.28 331,-466 340.25,-471.17 341.45,-464.28"/>
<text text-anchor="middle" x="384.5" y="-469.8" font-family="Times,serif" font-size="14.00">previous_value</text>
<text text-anchor="middle" x="334.5" y="-418.8" font-family="Times,serif" font-size="14.00">/value</text>
</g>
<!-- r10&#45;&gt;r10 -->
<g id="edge6" class="edge">
<title>r10:e&#45;&gt;r10:nw</title>
<path fill="none" stroke="black" d="M379,-448C450.64,-460 450.64,-484 337,-484 228.9,-484 223.63,-473.14 285.02,-466.92"/>
<polygon fill="black" stroke="black" points="285.36,-470.4 295,-466 284.72,-463.43 285.36,-470.4"/>
<text text-anchor="middle" x="241" y="-469.8" font-family="Times,serif" font-size="14.00">previous_index</text>
<text text-anchor="middle" x="401" y="-451.8" font-family="Times,serif" font-size="14.00">/index</text>
</g>
<!-- r0 -->
<g id="node6" class="node">
<title>r0</title>
<g id="a_node6"><a xlink:href="file:///home/runner/work/flow/flow/target/flowstdlib/data/info/info.html" xlink:title="a_info (#0)">
<ellipse fill="coral" stroke="black" cx="78" cy="-354" rx="61.99" ry="18"/>
<text text-anchor="middle" x="78" y="-350.3" font-family="Times,serif" font-size="14.00">a_info (#0)</text>
</a>
</g>
</g>
<!-- r10&#45;&gt;r0 -->
<g id="edge7" class="edge">
<title>r10:sw&#45;&gt;r0:n</title>
<path fill="none" stroke="black" d="M295,-429C227.18,-361.18 88.77,-464.39 78.59,-383.23"/>
<polygon fill="black" stroke="black" points="82.07,-382.78 78,-373 75.09,-383.19 82.07,-382.78"/>
<text text-anchor="middle" x="240.5" y="-417.8" font-family="Times,serif" font-size="14.00">/selected_value</text>
</g>
<!-- r5 -->
<g id="node7" class="node">
<title>r5</title>
<g id="a_node7"><a xlink:href="file:///home/runner/work/flow/flow/target/flowstdlib/data/duplicate_rows/duplicate_rows.html" xlink:title="duplicate_rows (#5)">
<ellipse fill="coral" stroke="black" cx="316" cy="-354" rx="103.98" ry="18"/>
<text text-anchor="middle" x="316" y="-350.3" font-family="Times,serif" font-size="14.00">duplicate_rows (#5)</text>
</a>
</g>
</g>
<!-- r10&#45;&gt;r5 -->
<g id="edge8" class="edge">
<title>r10:sw&#45;&gt;r5:n</title>
<path fill="none" stroke="black" d="M295,-429C278.77,-412.77 306.21,-402.64 314.02,-383.07"/>
<polygon fill="black" stroke="black" points="317.5,-383.49 316,-373 310.64,-382.14 317.5,-383.49"/>
<text text-anchor="middle" x="349.5" y="-417.8" font-family="Times,serif" font-size="14.00">/selected_value</text>
</g>
<!-- r11&#45;&gt;r11 -->
<g id="edge11" class="edge">
<title>r11:s&#45;&gt;r11:ne</title>
<path fill="none" stroke="black" d="M732,-517C777.88,-506.5 869.64,-506.5 869.64,-535 869.64,-561.5 805.89,-563.36 760.06,-555.05"/>
<polygon fill="black" stroke="black" points="760.5,-551.57 750,-553 759.1,-558.43 760.5,-551.57"/>
<text text-anchor="middle" x="803.5" y="-556.8" font-family="Times,serif" font-size="14.00">previous_value</text>
<text text-anchor="middle" x="710.5" y="-505.8" font-family="Times,serif" font-size="14.00">/value</text>
</g>
<!-- r11&#45;&gt;r11 -->
<g id="edge12" class="edge">
<title>r11:e&#45;&gt;r11:nw</title>
<path fill="none" stroke="black" d="M798,-535C869.64,-548 869.64,-574 756,-574 647.9,-574 642.63,-561.33 704.02,-554.07"/>
<polygon fill="black" stroke="black" points="704.43,-557.55 714,-553 703.68,-550.59 704.43,-557.55"/>
<text text-anchor="middle" x="660" y="-556.8" font-family="Times,serif" font-size="14.00">previous_index</text>
<text text-anchor="middle" x="820" y="-538.8" font-family="Times,serif" font-size="14.00">/index</text>
</g>
<!-- r1 -->
<g id="node10" class="node">
<title>r1</title>
<g id="a_node10"><a xlink:href="file:///home/runner/work/flow/flow/target/flowstdlib/data/info/info.html" xlink:title="b_info (#1)">
<ellipse fill="coral" stroke="black" cx="868" cy="-448" rx="61.99" ry="18"/>
<text text-anchor="middle" x="868" y="-444.3" font-family="Times,serif" font-size="14.00">b_info (#1)</text>
</a>
</g>
</g>
<!-- r11&#45;&gt;r1 -->
<g id="edge13" class="edge">
<title>r11:sw&#45;&gt;r1:n</title>
<path fill="none" stroke="black" d="M714,-517C665.61,-468.61 847.84,-531.1 866.47,-475.9"/>
<polygon fill="black" stroke="black" points="869.94,-476.42 868,-466 863.02,-475.35 869.94,-476.42"/>
<text text-anchor="middle" x="768.5" y="-505.8" font-family="Times,serif" font-size="14.00">/selected_value</text>
</g>
<!-- r7 -->
<g id="node11" class="node">
<title>r7</title>
<g id="a_node11"><a xlink:href="file:///home/runner/work/flow/flow/target/flowstdlib/data/transpose/transpose.html" xlink:title="transpose (#7)">
<ellipse fill="coral" stroke="black" cx="654" cy="-448" rx="79.89" ry="18"/>
<text text-anchor="middle" x="654" y="-444.3" font-family="Times,serif" font-size="14.00">transpose (#7)</text>
</a>
</g>
</g>
<!-- r11&#45;&gt;r7 -->
<g id="edge14" class="edge">
<title>r11:sw&#45;&gt;r7:n</title>
<path fill="none" stroke="black" d="M714,-517C691.96,-494.96 661.59,-499.49 655.21,-476.01"/>
<polygon fill="black" stroke="black" points="658.67,-475.51 654,-466 651.72,-476.35 658.67,-475.51"/>
<text text-anchor="middle" x="659.5" y="-505.8" font-family="Times,serif" font-size="14.00">/selected_value</text>
</g>
<!-- initializerr10_1 -->
<!-- initializerr10_1&#45;&gt;r10 -->
<g id="edge3" class="edge">
<title>initializerr10_1&#45;&gt;r10:nw</title>
<path fill="none" stroke="blue" stroke-dasharray="1,5" d="M166.53,-525.66C205.75,-517.8 253.54,-502.53 287.53,-472.96"/>
<polygon fill="blue" stroke="blue" points="290.07,-475.38 295,-466 285.3,-470.26 290.07,-475.38"/>
<text text-anchor="middle" x="277.5" y="-487.8" font-family="Times,serif" font-size="14.00">42</text>
</g>
<!-- initializerr10_2 -->
<!-- initializerr10_2&#45;&gt;r10 -->
<g id="edge4" class="edge">
<title>initializerr10_2&#45;&gt;r10:ne</title>
<path fill="none" stroke="blue" stroke-dasharray="1,5" d="M336.96,-516.94C340.38,-504.33 342.91,-487.18 336.75,-474.21"/>
<polygon fill="blue" stroke="blue" points="339.6,-472.18 331,-466 333.87,-476.2 339.6,-472.18"/>
<text text-anchor="middle" x="347" y="-487.8" font-family="Times,serif" font-size="14.00">&#45;1</text>
</g>
<!-- r2 -->
<g id="node14" class="node">
<title>r2</title>
<g id="a_node14"><a xlink:href="file:///home/runner/work/flow/flow/target/flowstdlib/data/accumulate/accumulate.html" xlink:title="compose_matrix (#2)">
<ellipse fill="coral" stroke="black" cx="560" cy="-107" rx="109.68" ry="18"/>
<text text-anchor="middle" x="560" y="-103.3" font-family="Times,serif" font-size="14.00">compose_matrix (#2)</text>
</a>
</g>
</g>
<!-- r0&#45;&gt;r2 -->
<g id="edge18" class="edge">
<title>r0:e&#45;&gt;r2:nw</title>
<path fill="none" stroke="black" d="M141,-354C160.38,-354 160.05,-339 176,-328 279.33,-256.76 302.31,-233.26 414,-176 465.3,-149.7 495.08,-166.1 534.52,-131.98"/>
<polygon fill="black" stroke="black" points="537.07,-134.38 542,-125 532.3,-129.26 537.07,-134.38"/>
<text text-anchor="middle" x="503" y="-128.8" font-family="Times,serif" font-size="14.00">chunk_size</text>
<text text-anchor="middle" x="161" y="-357.8" font-family="Times,serif" font-size="14.00">/rows</text>
</g>
<!-- r6 -->
<g id="node15" class="node">
<title>r6</title>
<g id="a_node15"><a xlink:href="file:///home/runner/work/flow/flow/target/flowstdlib/data/multiply_row/multiply_row.html" xlink:title="multiply (#6)">
<ellipse fill="coral" stroke="black" cx="745" cy="-281" rx="72.59" ry="18"/>
<text text-anchor="middle" x="745" y="-277.3" font-family="Times,serif" font-size="14.00">multiply (#6)</text>
</a>
</g>
</g>
<!-- r5&#45;&gt;r6 -->
<g id="edge19" class="edge">
<title>r5:e&#45;&gt;r6:n</title>
<path fill="none" stroke="black" d="M421,-354C426.82,-354 419.84,-332.06 424,-328 472.57,-280.62 717.16,-361.25 742.82,-309.01"/>
<polygon fill="black" stroke="black" points="746.29,-309.52 745,-299 739.45,-308.03 746.29,-309.52"/>
<text text-anchor="middle" x="740.5" y="-302.8" font-family="Times,serif" font-size="14.00">a</text>
</g>
<!-- initializerr11_1 -->
<!-- initializerr11_1&#45;&gt;r11 -->
<g id="edge9" class="edge">
<title>initializerr11_1&#45;&gt;r11:nw</title>
<path fill="none" stroke="blue" stroke-dasharray="1,5" d="M663.74,-625.02C672.89,-608.24 688.48,-582.14 707.04,-561.38"/>
<polygon fill="blue" stroke="blue" points="709.68,-563.68 714,-554 704.59,-558.87 709.68,-563.68"/>
<text text-anchor="middle" x="692.5" y="-595.8" font-family="Times,serif" font-size="14.00">42</text>
</g>
<!-- initializerr11_2 -->
<!-- initializerr11_2&#45;&gt;r11 -->
<g id="edge10" class="edge">
<title>initializerr11_2&#45;&gt;r11:ne</title>
<path fill="none" stroke="blue" stroke-dasharray="1,5" d="M856.07,-626.48C828.3,-612.33 788.28,-589.36 757.59,-561.25"/>
<polygon fill="blue" stroke="blue" points="759.65,-558.38 750,-554 754.81,-563.44 759.65,-558.38"/>
<text text-anchor="middle" x="824" y="-595.8" font-family="Times,serif" font-size="14.00">&#45;1</text>
</g>
<!-- r1&#45;&gt;r5 -->
<g id="edge16" class="edge">
<title>r1:e&#45;&gt;r5:ne</title>
<path fill="none" stroke="black" d="M931,-448C939.01,-448 935.67,-435.66 930,-430 910.07,-410.12 451.66,-408.25 424,-403 386.14,-395.81 367.21,-401.61 341.46,-379.89"/>
<polygon fill="black" stroke="black" points="343.72,-377.21 334,-373 338.97,-382.35 343.72,-377.21"/>
<text text-anchor="middle" x="312.5" y="-376.8" font-family="Times,serif" font-size="14.00">factor</text>
<text text-anchor="middle" x="963" y="-451.8" font-family="Times,serif" font-size="14.00">/columns</text>
</g>
<!-- r4 -->
<g id="node12" class="node">
<title>r4</title>
<g id="a_node12"><a xlink:href="file:///home/runner/work/flow/flow/target/flowstdlib/data/duplicate/duplicate.html" xlink:title="duplicate (#4)">
<ellipse fill="coral" stroke="black" cx="693" cy="-354" rx="77.19" ry="18"/>
<text text-anchor="middle" x="693" y="-350.3" font-family="Times,serif" font-size="14.00">duplicate (#4)</text>
</a>
</g>
</g>
<!-- r1&#45;&gt;r4 -->
<g id="edge15" class="edge">
<title>r1:e&#45;&gt;r4:ne</title>
<path fill="none" stroke="black" d="M931,-448C939.01,-448 935.07,-436.2 930,-430 915.54,-412.33 761.37,-394.41 719.87,-377.94"/>
<polygon fill="black" stroke="black" points="721.44,-374.81 711,-373 718.03,-380.93 721.44,-374.81"/>
<text text-anchor="middle" x="732.5" y="-376.8" font-family="Times,serif" font-size="14.00">factor</text>
<text text-anchor="middle" x="963" y="-436.8" font-family="Times,serif" font-size="14.00">/columns</text>
</g>
<!-- r3 -->
<g id="node13" class="node">
<title>r3</title>
<g id="a_node13"><a xlink:href="file:///home/runner/work/flow/flow/target/flowstdlib/data/accumulate/accumulate.html" xlink:title="compose_rows (#3)">
<ellipse fill="coral" stroke="black" cx="774" cy="-194" rx="101.28" ry="18"/>
<text text-anchor="middle" x="774" y="-190.3" font-family="Times,serif" font-size="14.00">compose_rows (#3)</text>
</a>
</g>
</g>
<!-- r1&#45;&gt;r3 -->
<g id="edge17" class="edge">
<title>r1:e&#45;&gt;r3:nw</title>
<path fill="none" stroke="black" d="M931,-448C939.88,-448 938.72,-368.37 854,-263 838.68,-243.95 831.65,-241.34 810,-230 795.12,-222.2 768.3,-224.71 757.2,-222.04"/>
<polygon fill="black" stroke="black" points="760.66,-221.51 756,-212 753.71,-222.34 760.66,-221.51"/>
<text text-anchor="middle" x="717" y="-215.8" font-family="Times,serif" font-size="14.00">chunk_size</text>
<text text-anchor="middle" x="899" y="-451.8" font-family="Times,serif" font-size="14.00">/columns</text>
</g>
<!-- r7&#45;&gt;r4 -->
<g id="edge20" class="edge">
<title>r7:e&#45;&gt;r4:n</title>
<path fill="none" stroke="black" d="M735,-448C743.01,-448 736.67,-437.55 734,-430 724.87,-404.14 700.12,-403.81 694.26,-382.92"/>
<polygon fill="black" stroke="black" points="697.73,-382.48 693,-373 690.78,-383.36 697.73,-382.48"/>
<text text-anchor="middle" x="673.5" y="-376.8" font-family="Times,serif" font-size="14.00">value</text>
</g>
<!-- r4&#45;&gt;r6 -->
<g id="edge21" class="edge">
<title>r4:e&#45;&gt;r6:ne</title>
<path fill="none" stroke="black" d="M772,-354C787.65,-354 790.97,-332.05 769.95,-306.62"/>
<polygon fill="black" stroke="black" points="772.33,-304.03 763,-299 767.15,-308.75 772.33,-304.03"/>
<text text-anchor="middle" x="758" y="-302.8" font-family="Times,serif" font-size="14.00">b</text>
</g>
<!-- r3&#45;&gt;r3 -->
<g id="edge24" class="edge">
<title>r3:sw&#45;&gt;r3:ne</title>
<path fill="none" stroke="black" d="M756,-176C600.61,-189 600.61,-233 774,-233 943.5,-233 947.3,-219.62 802.24,-212.48"/>
<polygon fill="black" stroke="black" points="802.15,-208.97 792,-212 801.82,-215.97 802.15,-208.97"/>
<text text-anchor="middle" x="816" y="-215.8" font-family="Times,serif" font-size="14.00">partial</text>
<text text-anchor="middle" x="730" y="-164.8" font-family="Times,serif" font-size="14.00">/partial</text>
</g>
<!-- r3&#45;&gt;r3 -->
<g id="edge25" class="edge">
<title>r3:s&#45;&gt;r3:nw</title>
<path fill="none" stroke="black" d="M774,-176C716.2,-165.5 600.61,-165.5 600.61,-194 600.61,-220.89 687.46,-222.41 745.82,-213.68"/>
<polygon fill="black" stroke="black" points="746.7,-217.08 756,-212 745.56,-210.18 746.7,-217.08"/>
<text text-anchor="middle" x="795" y="-215.8" font-family="Times,serif" font-size="14.00">chunk_size</text>
<text text-anchor="middle" x="815" y="-164.8" font-family="Times,serif" font-size="14.00">/chunk_size</text>
</g>
<!-- r3&#45;&gt;r2 -->
<g id="edge26" class="edge">
<title>r3:e&#45;&gt;r2:n</title>
<path fill="none" stroke="black" d="M877,-194C885.01,-194 881.36,-181.95 876,-176 854.24,-151.84 608.24,-158.95 566.12,-133.19"/>
<polygon fill="black" stroke="black" points="568.79,-130.92 560,-125 563.18,-135.11 568.79,-130.92"/>
<text text-anchor="middle" x="583" y="-128.8" font-family="Times,serif" font-size="14.00">values</text>
<text text-anchor="middle" x="901" y="-197.8" font-family="Times,serif" font-size="14.00">/chunk</text>
</g>
<!-- r2&#45;&gt;r2 -->
<g id="edge28" class="edge">
<title>r2:sw&#45;&gt;r2:ne</title>
<path fill="none" stroke="black" d="M542,-89C378.16,-101 378.16,-143 560,-143 737.93,-143 741.76,-131.51 588.33,-125.39"/>
<polygon fill="black" stroke="black" points="588.13,-121.88 578,-125 587.86,-128.88 588.13,-121.88"/>
<text text-anchor="middle" x="602" y="-128.8" font-family="Times,serif" font-size="14.00">partial</text>
<text text-anchor="middle" x="516" y="-77.8" font-family="Times,serif" font-size="14.00">/partial</text>
</g>
<!-- r2&#45;&gt;r2 -->
<g id="edge29" class="edge">
<title>r2:s&#45;&gt;r2:nw</title>
<path fill="none" stroke="black" d="M560,-89C499.39,-80 378.16,-80 378.16,-107 378.16,-132.58 470.79,-133.92 532.08,-126.35"/>
<polygon fill="black" stroke="black" points="532.56,-129.81 542,-125 531.62,-122.88 532.56,-129.81"/>
<text text-anchor="middle" x="503" y="-128.8" font-family="Times,serif" font-size="14.00">chunk_size</text>
<text text-anchor="middle" x="601" y="-77.8" font-family="Times,serif" font-size="14.00">/chunk_size</text>
</g>
<!-- r8 -->
<g id="node18" class="node">
<title>r8</title>
<g id="a_node18"><a xlink:href="file:///home/runner/work/flow/flow/flowr/src/cli/stdio/stdout.html" xlink:title="print (#8)">
<ellipse fill="coral" stroke="black" cx="670" cy="-34" rx="57.39" ry="18"/>
<text text-anchor="middle" x="670" y="-30.3" font-family="Times,serif" font-size="14.00">print (#8)</text>
</a>
</g>
</g>
<!-- r2&#45;&gt;r8 -->
<g id="edge30" class="edge">
<title>r2:e&#45;&gt;r8:n</title>
<path fill="none" stroke="black" d="M671,-107C692.2,-107 675.88,-84.02 671.17,-61.98"/>
<polygon fill="black" stroke="black" points="674.64,-61.52 670,-52 667.69,-62.34 674.64,-61.52"/>
<text text-anchor="middle" x="695" y="-110.8" font-family="Times,serif" font-size="14.00">/chunk</text>
</g>
<!-- r6&#45;&gt;r3 -->
<g id="edge22" class="edge">
<title>r6:e&#45;&gt;r3:n</title>
<path fill="none" stroke="black" d="M819,-281C827.01,-281 821,-270.43 818,-263 808.28,-238.93 782.33,-240.77 775.61,-222.16"/>
<polygon fill="black" stroke="black" points="779.02,-221.33 774,-212 772.11,-222.42 779.02,-221.33"/>
<text text-anchor="middle" x="751" y="-200.8" font-family="Times,serif" font-size="14.00">values</text>
</g>
<!-- initializerr3_1 -->
<!-- initializerr3_1&#45;&gt;r3 -->
<g id="edge23" class="edge">
<title>initializerr3_1&#45;&gt;r3:n</title>
<path fill="none" stroke="blue" stroke-dasharray="1,5" d="M584.01,-269.77C647.58,-258.04 742.98,-238.12 767.88,-220.28"/>
<polygon fill="blue" stroke="blue" points="770.87,-222.12 774,-212 765.24,-217.96 770.87,-222.12"/>
<text text-anchor="middle" x="753.5" y="-233.8" font-family="Times,serif" font-size="14.00">[]</text>
</g>
<!-- initializerr2_1 -->
<!-- initializerr2_1&#45;&gt;r2 -->
<g id="edge27" class="edge">
<title>initializerr2_1&#45;&gt;r2:n</title>
<path fill="none" stroke="blue" stroke-dasharray="1,5" d="M539.24,-176.32C547.18,-165.59 556.06,-150.8 559,-135.27"/>
<polygon fill="blue" stroke="blue" points="562.51,-135.29 560,-125 555.55,-134.61 562.51,-135.29"/>
<text text-anchor="middle" x="562.5" y="-146.8" font-family="Times,serif" font-size="14.00">[]</text>
</g>
</g>
</svg>
