<?xml version="1.0" encoding="UTF-8" standalone="no"?>
<!DOCTYPE svg PUBLIC "-//W3C//DTD SVG 1.1//EN"
 "http://www.w3.org/Graphics/SVG/1.1/DTD/svg11.dtd">
<!-- Generated by graphviz version 2.43.0 (0)
 -->
<!-- Title: select_1 Pages: 1 -->
<svg width="1145pt" height="320pt"
 viewBox="28.80 28.80 1115.78 290.80" xmlns="http://www.w3.org/2000/svg" xmlns:xlink="http://www.w3.org/1999/xlink">
<g id="graph0" class="graph" transform="scale(1 1) rotate(0) translate(32.8 286.8)">
<title>select_1</title>
<polygon fill="white" stroke="transparent" points="-4,4 -4,-258 1082.98,-258 1082.98,4 -4,4"/>
<text text-anchor="middle" x="539.49" y="-238.8" font-family="Times,serif" font-size="14.00">select_1</text>
<!-- /matrix_mult/select_1/value -->
<g id="node1" class="node">
<title>/matrix_mult/select_1/value</title>
<polygon fill="white" stroke="black" points="238.05,-218.56 193.68,-231 149.31,-218.56 149.35,-198.44 238.01,-198.44 238.05,-218.56"/>
<text text-anchor="middle" x="193.68" y="-209.3" font-family="Times,serif" font-size="14.00">value</text>
</g>
<!-- /matrix_mult/select_1/select_index -->
<g id="node2" class="node">
<title>/matrix_mult/select_1/select_index</title>
<polygon fill="white" stroke="black" points="423.28,-218.56 339.68,-231 256.08,-218.56 256.16,-198.44 423.21,-198.44 423.28,-218.56"/>
<text text-anchor="middle" x="339.68" y="-209.3" font-family="Times,serif" font-size="14.00">select_index</text>
</g>
<!-- /matrix_mult/select_1/selected_value -->
<g id="node3" class="node">
<title>/matrix_mult/select_1/selected_value</title>
<polygon fill="black" stroke="black" points="292.27,-12.44 389.68,0 487.1,-12.44 487.01,-32.56 292.36,-32.56 292.27,-12.44"/>
<text text-anchor="middle" x="389.68" y="-14.3" font-family="Times,serif" font-size="14.00" fill="white">selected_value</text>
</g>
<!-- /matrix_mult/select_1/index -->
<g id="node4" class="node">
<title>/matrix_mult/select_1/index</title>
<g id="a_node4"><a xlink:href="../../../target/flowstdlib/control/index/index.html" xlink:title="index">
<ellipse fill="coral" stroke="black" cx="389.68" cy="-72" rx="36.29" ry="18"/>
<text text-anchor="middle" x="389.68" y="-68.3" font-family="Times,serif" font-size="14.00">index</text>
</a>
</g>
</g>
<!-- initializer/matrix_mult/select_1/index_1 -->
<!-- initializer/matrix_mult/select_1/index_1&#45;&gt;/matrix_mult/select_1/index -->
<g id="edge1" class="edge">
<title>initializer/matrix_mult/select_1/index_1&#45;&gt;/matrix_mult/select_1/index:nw</title>
<path fill="none" stroke="blue" stroke-dasharray="1,5" d="M274.4,-142.5C305.65,-133.23 340.11,-118.67 366.21,-95.96"/>
<polygon fill="blue" stroke="blue" points="368.75,-98.38 373.68,-89 363.98,-93.26 368.75,-98.38"/>
<text text-anchor="middle" x="359.18" y="-111.8" font-family="Times,serif" font-size="14.00">42</text>
</g>
<!-- initializer/matrix_mult/select_1/index_2 -->
<!-- initializer/matrix_mult/select_1/index_2&#45;&gt;/matrix_mult/select_1/index -->
<g id="edge2" class="edge">
<title>initializer/matrix_mult/select_1/index_2&#45;&gt;/matrix_mult/select_1/index:ne</title>
<path fill="none" stroke="blue" stroke-dasharray="1,5" d="M504.97,-142.5C473.71,-133.23 439.26,-118.67 413.16,-95.96"/>
<polygon fill="blue" stroke="blue" points="415.39,-93.26 405.68,-89 410.61,-98.38 415.39,-93.26"/>
<text text-anchor="middle" x="458.68" y="-111.8" font-family="Times,serif" font-size="14.00">&#45;1</text>
</g>
<!-- /matrix_mult/select_1/ -->
<g id="node7" class="node">
<title>/matrix_mult/select_1/</title>
<ellipse fill="none" stroke="black" cx="897.68" cy="-159" rx="113.98" ry="18"/>
<text text-anchor="middle" x="897.68" y="-155.3" font-family="Times,serif" font-size="14.00">/matrix_mult/select_1/</text>
</g>
<!-- /matrix_mult/select_1/index/ -->
<g id="node8" class="node">
<title>/matrix_mult/select_1/index/</title>
<ellipse fill="none" stroke="black" cx="897.68" cy="-72" rx="141.88" ry="18"/>
<text text-anchor="middle" x="897.68" y="-68.3" font-family="Times,serif" font-size="14.00">/matrix_mult/select_1/index/</text>
</g>
<!-- /matrix_mult/select_1/&#45;&gt;/matrix_mult/select_1/index/ -->
<g id="edge3" class="edge">
<title>/matrix_mult/select_1/:s&#45;&gt;/matrix_mult/select_1/index/:n</title>
<path fill="none" stroke="black" d="M897.68,-141C897.68,-122.23 897.68,-115.12 897.68,-100.35"/>
<polygon fill="black" stroke="black" points="901.18,-100 897.68,-90 894.18,-100 901.18,-100"/>
<text text-anchor="middle" x="878.18" y="-119.1" font-family="Times,serif" font-size="14.00">value</text>
<text text-anchor="middle" x="878.18" y="-93.8" font-family="Times,serif" font-size="14.00">value</text>
</g>
<!-- /matrix_mult/select_1/&#45;&gt;/matrix_mult/select_1/index/ -->
<g id="edge4" class="edge">
<title>/matrix_mult/select_1/:s&#45;&gt;/matrix_mult/select_1/index/:n</title>
<path fill="none" stroke="black" d="M897.68,-141C897.68,-122.23 897.68,-115.12 897.68,-100.35"/>
<polygon fill="black" stroke="black" points="901.18,-100 897.68,-90 894.18,-100 901.18,-100"/>
<text text-anchor="middle" x="941.68" y="-119.1" font-family="Times,serif" font-size="14.00">select_index</text>
<text text-anchor="middle" x="941.68" y="-93.8" font-family="Times,serif" font-size="14.00">select_index</text>
</g>
<!-- /matrix_mult/select_1/index/&#45;&gt;/matrix_mult/select_1/ -->
<g id="edge7" class="edge">
<title>/matrix_mult/select_1/index/:e&#45;&gt;/matrix_mult/select_1/:n</title>
<path fill="none" stroke="black" d="M1040.68,-72C1089.13,-72 1050.49,-148.35 1011.42,-177 1003.06,-183.13 931.88,-188.38 906.57,-183.09"/>
<polygon fill="black" stroke="black" points="908.1,-179.94 897.68,-178 904.62,-186.01 908.1,-179.94"/>
<text text-anchor="middle" x="1026.48" y="-187.49" font-family="Times,serif" font-size="14.00">selected_value</text>
<text text-anchor="middle" x="845.18" y="-181.8" font-family="Times,serif" font-size="14.00">selected_value</text>
</g>
<!-- /matrix_mult/select_1/index/&#45;&gt;/matrix_mult/select_1/index/ -->
<g id="edge5" class="edge">
<title>/matrix_mult/select_1/index/:s&#45;&gt;/matrix_mult/select_1/index/:nw</title>
<path fill="none" stroke="black" d="M897.68,-54C844.45,-43.5 738,-43.5 738,-72 738,-98.77 816.07,-100.4 869.65,-91.79"/>
<polygon fill="black" stroke="black" points="870.45,-95.2 879.68,-90 869.22,-88.31 870.45,-95.2"/>
<text text-anchor="middle" x="872.38" y="-41.73" font-family="Times,serif" font-size="14.00">value</text>
<text text-anchor="middle" x="826.18" y="-93.8" font-family="Times,serif" font-size="14.00">previous_value</text>
</g>
<!-- /matrix_mult/select_1/index/&#45;&gt;/matrix_mult/select_1/index/ -->
<g id="edge6" class="edge">
<title>/matrix_mult/select_1/index/:sw&#45;&gt;/matrix_mult/select_1/index/:ne</title>
<path fill="none" stroke="black" d="M879.68,-54C738,-67 738,-111 897.68,-111 1053.47,-111 1057.28,-97.68 925.81,-90.52"/>
<polygon fill="black" stroke="black" points="925.85,-87.02 915.68,-90 925.49,-94.01 925.85,-87.02"/>
<text text-anchor="middle" x="899.67" y="-42.8" font-family="Times,serif" font-size="14.00">index</text>
<text text-anchor="middle" x="969.68" y="-93.8" font-family="Times,serif" font-size="14.00">previous_index</text>
</g>
</g>
</svg>
