<?xml version="1.0" encoding="UTF-8" standalone="no"?>
<!DOCTYPE svg PUBLIC "-//W3C//DTD SVG 1.1//EN"
 "http://www.w3.org/Graphics/SVG/1.1/DTD/svg11.dtd">
<!-- Generated by graphviz version 2.43.0 (0)
 -->
<!-- Title: select_1 Pages: 1 -->
<svg width="1362pt" height="339pt"
 viewBox="28.80 28.80 1333.03 309.80" xmlns="http://www.w3.org/2000/svg" xmlns:xlink="http://www.w3.org/1999/xlink">
<g id="page0,1_graph0" class="graph" transform="scale(1 1) rotate(0) translate(32.8 305.8)">
<title>select_1</title>
<polygon fill="white" stroke="transparent" points="-4,4 -4,-277 1300.23,-277 1300.23,4 -4,4"/>
<text text-anchor="middle" x="648.12" y="-257.8" font-family="Times,serif" font-size="14.00">select_1</text>
<!-- /matrix_mult/select_1/value -->
<g id="node1" class="node">
<title>/matrix_mult/select_1/value</title>
<polygon fill="white" stroke="black" points="937.92,-237.56 893.55,-250 849.18,-237.56 849.22,-217.44 937.88,-217.44 937.92,-237.56"/>
<text text-anchor="middle" x="893.55" y="-228.3" font-family="Times,serif" font-size="14.00">value</text>
</g>
<!-- /matrix_mult/select_1/index -->
<g id="node4" class="node">
<title>/matrix_mult/select_1/index</title>
<g id="a_node4"><a xlink:href="../../flowstdlib/control/index/index.html" xlink:title="index">
<ellipse fill="coral" stroke="black" cx="700.55" cy="-91" rx="36.29" ry="18"/>
<text text-anchor="middle" x="700.55" y="-87.3" font-family="Times,serif" font-size="14.00">index</text>
</a>
</g>
</g>
<!-- /matrix_mult/select_1/value&#45;&gt;/matrix_mult/select_1/index -->
<g id="edge4" class="edge">
<title>/matrix_mult/select_1/value:s&#45;&gt;/matrix_mult/select_1/index:n</title>
<path fill="none" stroke="black" d="M893.55,-216C893.55,-190.35 897.39,-178.43 879.55,-160 824.6,-103.23 711.33,-183.84 701.27,-119.12"/>
<polygon fill="black" stroke="black" points="704.75,-118.73 700.55,-109 697.77,-119.22 704.75,-118.73"/>
<text text-anchor="middle" x="681.05" y="-112.8" font-family="Times,serif" font-size="14.00">value</text>
</g>
<!-- /matrix_mult/select_1/select_index -->
<g id="node2" class="node">
<title>/matrix_mult/select_1/select_index</title>
<polygon fill="white" stroke="black" points="167.15,-237.56 83.55,-250 -0.05,-237.56 0.03,-217.44 167.07,-217.44 167.15,-237.56"/>
<text text-anchor="middle" x="83.55" y="-228.3" font-family="Times,serif" font-size="14.00">select_index</text>
</g>
<!-- /matrix_mult/select_1/select_index&#45;&gt;/matrix_mult/select_1/index -->
<g id="edge5" class="edge">
<title>/matrix_mult/select_1/select_index:s&#45;&gt;/matrix_mult/select_1/index:n</title>
<path fill="none" stroke="black" d="M83.55,-216C83.55,-190.35 78.01,-176.63 97.55,-160 109.4,-149.91 616.12,-129.2 691.27,-112.84"/>
<polygon fill="black" stroke="black" points="692.65,-116.06 700.55,-109 689.97,-109.59 692.65,-116.06"/>
<text text-anchor="middle" x="744.55" y="-112.8" font-family="Times,serif" font-size="14.00">select_index</text>
</g>
<!-- /matrix_mult/select_1/selected_value -->
<g id="node3" class="node">
<title>/matrix_mult/select_1/selected_value</title>
<polygon fill="black" stroke="black" points="640.13,-12.44 737.55,0 834.97,-12.44 834.88,-32.56 640.23,-32.56 640.13,-12.44"/>
<text text-anchor="middle" x="737.55" y="-14.3" font-family="Times,serif" font-size="14.00" fill="white">selected_value</text>
</g>
<!-- /matrix_mult/select_1/index&#45;&gt;/matrix_mult/select_1/selected_value -->
<g id="edge8" class="edge">
<title>/matrix_mult/select_1/index:e&#45;&gt;/matrix_mult/select_1/selected_value:n</title>
<path fill="none" stroke="black" d="M738.55,-91C760.62,-91 743.48,-66.97 738.7,-44.03"/>
<polygon fill="black" stroke="black" points="742.16,-43.54 737.55,-34 735.21,-44.33 742.16,-43.54"/>
<text text-anchor="middle" x="691.39" y="-50.11" font-family="Times,serif" font-size="14.00">selected_value</text>
</g>
<!-- /matrix_mult/select_1/index&#45;&gt;/matrix_mult/select_1/index -->
<g id="edge6" class="edge">
<title>/matrix_mult/select_1/index:s&#45;&gt;/matrix_mult/select_1/index:nw</title>
<path fill="none" stroke="black" d="M700.55,-73C682.42,-64 646.15,-64 646.15,-90 646.15,-111.53 660.05,-115.23 675.13,-110.76"/>
<polygon fill="black" stroke="black" points="676.56,-113.95 684.55,-107 673.97,-107.45 676.56,-113.95"/>
<text text-anchor="middle" x="680.84" y="-61.69" font-family="Times,serif" font-size="14.00">value</text>
<text text-anchor="middle" x="631.05" y="-95.8" font-family="Times,serif" font-size="14.00">previous_value</text>
</g>
<!-- /matrix_mult/select_1/index&#45;&gt;/matrix_mult/select_1/index -->
<g id="edge7" class="edge">
<title>/matrix_mult/select_1/index:sw&#45;&gt;/matrix_mult/select_1/index:ne</title>
<path fill="none" stroke="black" d="M684.55,-75C646.15,-87 646.15,-127 700.55,-127 749.85,-127 754.47,-117.14 726.32,-109.34"/>
<polygon fill="black" stroke="black" points="727.09,-105.93 716.55,-107 725.46,-112.73 727.09,-105.93"/>
<text text-anchor="middle" x="664.54" y="-78.8" font-family="Times,serif" font-size="14.00">index</text>
<text text-anchor="middle" x="770.55" y="-95.8" font-family="Times,serif" font-size="14.00">previous_index</text>
</g>
<!-- initializer/matrix_mult/select_1/index_1 -->
<!-- initializer/matrix_mult/select_1/index_1&#45;&gt;/matrix_mult/select_1/index -->
<g id="edge1" class="edge">
<title>initializer/matrix_mult/select_1/index_1&#45;&gt;/matrix_mult/select_1/index:nw</title>
<path fill="none" stroke="blue" stroke-dasharray="1,5" d="M678.58,-159.99C675.07,-147.19 672.43,-129.65 678.69,-116.39"/>
<polygon fill="blue" stroke="blue" points="681.69,-118.2 684.55,-108 675.95,-114.19 681.69,-118.2"/>
<text text-anchor="middle" x="684.05" y="-130.8" font-family="Times,serif" font-size="14.00">42</text>
</g>
<!-- initializer/matrix_mult/select_1/index_2 -->
<!-- initializer/matrix_mult/select_1/index_2&#45;&gt;/matrix_mult/select_1/index -->
<g id="edge2" class="edge">
<title>initializer/matrix_mult/select_1/index_2&#45;&gt;/matrix_mult/select_1/index:ne</title>
<path fill="none" stroke="blue" stroke-dasharray="1,5" d="M1047.98,-160.64C1009.15,-149.58 955.56,-135.49 907.55,-127 868.67,-120.12 763.93,-135.54 724.66,-113.94"/>
<polygon fill="blue" stroke="blue" points="726.69,-111.08 716.55,-108 722.55,-116.73 726.69,-111.08"/>
<text text-anchor="middle" x="978.55" y="-130.8" font-family="Times,serif" font-size="14.00">&#45;1</text>
</g>
<!-- initializer/matrix_mult/select_1/index_3 -->
<!-- initializer/matrix_mult/select_1/index_3&#45;&gt;/matrix_mult/select_1/index -->
<g id="edge3" class="edge">
<title>initializer/matrix_mult/select_1/index_3&#45;&gt;/matrix_mult/select_1/index:n</title>
<path fill="none" stroke="blue" d="M406.74,-163.43C511.89,-150.24 656.79,-130.09 692.4,-115.21"/>
<polygon fill="blue" stroke="blue" points="694.72,-117.85 700.55,-109 690.48,-112.28 694.72,-117.85"/>
<text text-anchor="middle" x="645.55" y="-130.8" font-family="Times,serif" font-size="14.00">1</text>
</g>
</g>
</svg>
