<?xml version="1.0" encoding="UTF-8" standalone="no"?>
<!DOCTYPE svg PUBLIC "-//W3C//DTD SVG 1.1//EN"
 "http://www.w3.org/Graphics/SVG/1.1/DTD/svg11.dtd">
<!-- Generated by graphviz version 2.43.0 (0)
 -->
<!-- Title: select_1 Pages: 1 -->
<svg width="989pt" height="341pt"
 viewBox="28.80 28.80 960.17 311.80" xmlns="http://www.w3.org/2000/svg" xmlns:xlink="http://www.w3.org/1999/xlink">
<g id="graph0" class="graph" transform="scale(1 1) rotate(0) translate(32.8 307.8)">
<title>select_1</title>
<polygon fill="white" stroke="transparent" points="-4,4 -4,-279 927.37,-279 927.37,4 -4,4"/>
<text text-anchor="middle" x="461.68" y="-259.8" font-family="Times,serif" font-size="14.00">select_1</text>
<!-- /matrix_mult/select_1/value -->
<g id="node1" class="node">
<title>/matrix_mult/select_1/value</title>
<polygon fill="white" stroke="black" points="433.05,-239.56 388.68,-252 344.31,-239.56 344.35,-219.44 433.01,-219.44 433.05,-239.56"/>
<text text-anchor="middle" x="388.68" y="-230.3" font-family="Times,serif" font-size="14.00">value</text>
</g>
<!-- /matrix_mult/select_1/index -->
<g id="node4" class="node">
<title>/matrix_mult/select_1/index</title>
<g id="a_node4"><a xlink:href="index/index.html" xlink:title="index">
<ellipse fill="coral" stroke="black" cx="461.68" cy="-90" rx="36.29" ry="18"/>
<text text-anchor="middle" x="461.68" y="-86.3" font-family="Times,serif" font-size="14.00">index</text>
</a>
</g>
</g>
<!-- /matrix_mult/select_1/value&#45;&gt;/matrix_mult/select_1/index -->
<g id="edge3" class="edge">
<title>/matrix_mult/select_1/value:s&#45;&gt;/matrix_mult/select_1/index:n</title>
<path fill="none" stroke="black" d="M388.68,-218C388.68,-162.99 452.84,-166.01 460.86,-118.26"/>
<polygon fill="black" stroke="black" points="464.38,-118.25 461.68,-108 457.4,-117.69 464.38,-118.25"/>
<text text-anchor="middle" x="442.18" y="-111.8" font-family="Times,serif" font-size="14.00">value</text>
</g>
<!-- /matrix_mult/select_1/select_index -->
<g id="node2" class="node">
<title>/matrix_mult/select_1/select_index</title>
<polygon fill="white" stroke="black" points="618.28,-239.56 534.68,-252 451.08,-239.56 451.16,-219.44 618.21,-219.44 618.28,-239.56"/>
<text text-anchor="middle" x="534.68" y="-230.3" font-family="Times,serif" font-size="14.00">select_index</text>
</g>
<!-- /matrix_mult/select_1/select_index&#45;&gt;/matrix_mult/select_1/index -->
<g id="edge4" class="edge">
<title>/matrix_mult/select_1/select_index:s&#45;&gt;/matrix_mult/select_1/index:n</title>
<path fill="none" stroke="black" d="M534.68,-218C534.68,-162.99 470.52,-166.01 462.5,-118.26"/>
<polygon fill="black" stroke="black" points="465.97,-117.69 461.68,-108 458.99,-118.25 465.97,-117.69"/>
<text text-anchor="middle" x="505.68" y="-111.8" font-family="Times,serif" font-size="14.00">select_index</text>
</g>
<!-- /matrix_mult/select_1/selected_value -->
<g id="node3" class="node">
<title>/matrix_mult/select_1/selected_value</title>
<polygon fill="black" stroke="black" points="401.27,-12.44 498.68,0 596.1,-12.44 596.01,-32.56 401.36,-32.56 401.27,-12.44"/>
<text text-anchor="middle" x="498.68" y="-14.3" font-family="Times,serif" font-size="14.00" fill="white">selected_value</text>
</g>
<!-- /matrix_mult/select_1/index&#45;&gt;/matrix_mult/select_1/selected_value -->
<g id="edge7" class="edge">
<title>/matrix_mult/select_1/index:e&#45;&gt;/matrix_mult/select_1/selected_value:n</title>
<path fill="none" stroke="black" d="M499.68,-90C521.27,-90 504.66,-66.61 499.87,-44.16"/>
<polygon fill="black" stroke="black" points="503.32,-43.52 498.68,-34 496.37,-44.34 503.32,-43.52"/>
<text text-anchor="middle" x="452.44" y="-49.72" font-family="Times,serif" font-size="14.00">selected_value</text>
</g>
<!-- /matrix_mult/select_1/index&#45;&gt;/matrix_mult/select_1/index -->
<g id="edge5" class="edge">
<title>/matrix_mult/select_1/index:s&#45;&gt;/matrix_mult/select_1/index:nw</title>
<path fill="none" stroke="black" d="M461.68,-72C443.55,-54 407.29,-54 407.29,-89 407.29,-119.08 422.25,-123.31 437.97,-112.48"/>
<polygon fill="black" stroke="black" points="440.28,-115.11 445.68,-106 435.77,-109.75 440.28,-115.11"/>
<text text-anchor="middle" x="442.16" y="-60.77" font-family="Times,serif" font-size="14.00">value</text>
<text text-anchor="middle" x="392.18" y="-94.8" font-family="Times,serif" font-size="14.00">previous_value</text>
</g>
<!-- /matrix_mult/select_1/index&#45;&gt;/matrix_mult/select_1/index -->
<g id="edge6" class="edge">
<title>/matrix_mult/select_1/index:sw&#45;&gt;/matrix_mult/select_1/index:ne</title>
<path fill="none" stroke="black" d="M445.68,-74C407.29,-92 407.29,-144 461.68,-144 511.19,-144 515.64,-124.12 487.09,-109.99"/>
<polygon fill="black" stroke="black" points="488.26,-106.68 477.68,-106 485.52,-113.13 488.26,-106.68"/>
<text text-anchor="middle" x="425.65" y="-77.81" font-family="Times,serif" font-size="14.00">index</text>
<text text-anchor="middle" x="531.68" y="-94.8" font-family="Times,serif" font-size="14.00">previous_index</text>
</g>
<!-- initializer/matrix_mult/select_1/index_1 -->
<!-- initializer/matrix_mult/select_1/index_1&#45;&gt;/matrix_mult/select_1/index -->
<g id="edge1" class="edge">
<title>initializer/matrix_mult/select_1/index_1&#45;&gt;/matrix_mult/select_1/index:nw</title>
<path fill="none" stroke="blue" stroke-dasharray="1,5" d="M313.7,-147.81C362.7,-140.27 413.49,-129.1 437.75,-113.29"/>
<polygon fill="blue" stroke="blue" points="440.02,-115.95 445.68,-107 435.67,-110.47 440.02,-115.95"/>
<text text-anchor="middle" x="304.2" y="-136.61" font-family="Times,serif" font-size="14.00">42</text>
</g>
<!-- initializer/matrix_mult/select_1/index_2 -->
<!-- initializer/matrix_mult/select_1/index_2&#45;&gt;/matrix_mult/select_1/index -->
<g id="edge2" class="edge">
<title>initializer/matrix_mult/select_1/index_2&#45;&gt;/matrix_mult/select_1/index:ne</title>
<path fill="none" stroke="blue" stroke-dasharray="1,5" d="M609.67,-147.81C560.67,-140.27 509.87,-129.1 485.62,-113.29"/>
<polygon fill="blue" stroke="blue" points="487.69,-110.47 477.68,-107 483.35,-115.95 487.69,-110.47"/>
<text text-anchor="middle" x="602.67" y="-136.61" font-family="Times,serif" font-size="14.00">&#45;1</text>
</g>
</g>
</svg>
