<?xml version="1.0" encoding="UTF-8" standalone="no"?>
<!DOCTYPE svg PUBLIC "-//W3C//DTD SVG 1.1//EN"
 "http://www.w3.org/Graphics/SVG/1.1/DTD/svg11.dtd">
<!-- Generated by graphviz version 2.43.0 (0)
 -->
<!-- Title: multiply Pages: 1 -->
<svg width="2222pt" height="665pt"
 viewBox="28.80 28.80 2193.68 636.02" xmlns="http://www.w3.org/2000/svg" xmlns:xlink="http://www.w3.org/1999/xlink">
<g id="graph0" class="graph" transform="scale(1 1) rotate(0) translate(32.8 632.02)">
<title>multiply</title>
<polygon fill="white" stroke="transparent" points="-4,4 -4,-603.22 2160.88,-603.22 2160.88,4 -4,4"/>
<text text-anchor="middle" x="1078.44" y="-584.02" font-family="Times,serif" font-size="14.00">multiply</text>
<!-- /matrix_mult/multiply/a -->
<g id="node1" class="node">
<title>/matrix_mult/multiply/a</title>
<polygon fill="white" stroke="black" points="111.85,-563.78 84.85,-576.22 57.85,-563.78 57.88,-543.66 111.83,-543.66 111.85,-563.78"/>
<text text-anchor="middle" x="84.85" y="-554.52" font-family="Times,serif" font-size="14.00">a</text>
</g>
<!-- /matrix_mult/multiply/b -->
<g id="node2" class="node">
<title>/matrix_mult/multiply/b</title>
<polygon fill="white" stroke="black" points="183.85,-563.78 156.85,-576.22 129.85,-563.78 129.88,-543.66 183.83,-543.66 183.85,-563.78"/>
<text text-anchor="middle" x="156.85" y="-554.52" font-family="Times,serif" font-size="14.00">b</text>
</g>
<!-- /matrix_mult/multiply/product -->
<g id="node3" class="node">
<title>/matrix_mult/multiply/product</title>
<polygon fill="black" stroke="black" points="706.17,-12.44 763.85,0 821.54,-12.44 821.49,-32.56 706.22,-32.56 706.17,-12.44"/>
<text text-anchor="middle" x="763.85" y="-14.3" font-family="Times,serif" font-size="14.00" fill="white">product</text>
</g>
<!-- /matrix_mult/multiply/b_info -->
<g id="node4" class="node">
<title>/matrix_mult/multiply/b_info</title>
<g id="a_node4"><a xlink:href="../../../target/flowstdlib/data/info/info.html" xlink:title="b_info\n(info)">
<ellipse fill="coral" stroke="black" cx="339.85" cy="-153.87" rx="41.94" ry="26.74"/>
<text text-anchor="middle" x="339.85" y="-157.67" font-family="Times,serif" font-size="14.00">b_info</text>
<text text-anchor="middle" x="339.85" y="-142.67" font-family="Times,serif" font-size="14.00">(info)</text>
</a>
</g>
</g>
<!-- /matrix_mult/multiply/a_info -->
<g id="node5" class="node">
<title>/matrix_mult/multiply/a_info</title>
<g id="a_node5"><a xlink:href="../../../target/flowstdlib/data/info/info.html" xlink:title="a_info\n(info)">
<ellipse fill="coral" stroke="black" cx="427.85" cy="-153.87" rx="41.94" ry="26.74"/>
<text text-anchor="middle" x="427.85" y="-157.67" font-family="Times,serif" font-size="14.00">a_info</text>
<text text-anchor="middle" x="427.85" y="-142.67" font-family="Times,serif" font-size="14.00">(info)</text>
</a>
</g>
</g>
<!-- /matrix_mult/multiply/duplicate_rows -->
<g id="node6" class="node">
<title>/matrix_mult/multiply/duplicate_rows</title>
<g id="a_node6"><a xlink:href="../../../target/flowstdlib/data/duplicate_rows/duplicate_rows.html" xlink:title="duplicate_rows">
<ellipse fill="coral" stroke="black" cx="554.85" cy="-153.87" rx="80.69" ry="18"/>
<text text-anchor="middle" x="554.85" y="-150.17" font-family="Times,serif" font-size="14.00">duplicate_rows</text>
</a>
</g>
</g>
<!-- /matrix_mult/multiply/multiply/ -->
<g id="node18" class="node">
<title>/matrix_mult/multiply/multiply/</title>
<ellipse fill="none" stroke="black" cx="763.85" cy="-72" rx="155.97" ry="18"/>
<text text-anchor="middle" x="763.85" y="-68.3" font-family="Times,serif" font-size="14.00">/matrix_mult/multiply/multiply/</text>
</g>
<!-- /matrix_mult/multiply/duplicate_rows&#45;&gt;/matrix_mult/multiply/multiply/ -->
<g id="edge10" class="edge">
<title>/matrix_mult/multiply/duplicate_rows:e&#45;&gt;/matrix_mult/multiply/multiply/:w</title>
<path fill="none" stroke="black" d="M636.85,-153.87C640.86,-153.87 637.04,-139.7 635.85,-135.87 628.32,-111.68 593.3,-84.64 597.16,-75.34"/>
<polygon fill="black" stroke="black" points="598.54,-78.57 606.85,-72 596.26,-71.95 598.54,-78.57"/>
<text text-anchor="middle" x="602.35" y="-75.8" font-family="Times,serif" font-size="14.00">a</text>
</g>
<!-- /matrix_mult/multiply/transpose -->
<g id="node7" class="node">
<title>/matrix_mult/multiply/transpose</title>
<g id="a_node7"><a xlink:href="../../../target/flowstdlib/data/transpose/transpose.html" xlink:title="transpose">
<ellipse fill="coral" stroke="black" cx="820.85" cy="-153.87" rx="56.59" ry="18"/>
<text text-anchor="middle" x="820.85" y="-150.17" font-family="Times,serif" font-size="14.00">transpose</text>
</a>
</g>
</g>
<!-- /matrix_mult/multiply/duplicate/ -->
<g id="node15" class="node">
<title>/matrix_mult/multiply/duplicate/</title>
<ellipse fill="none" stroke="black" cx="1085.85" cy="-72" rx="160.57" ry="18"/>
<text text-anchor="middle" x="1085.85" y="-68.3" font-family="Times,serif" font-size="14.00">/matrix_mult/multiply/duplicate/</text>
</g>
<!-- /matrix_mult/multiply/transpose&#45;&gt;/matrix_mult/multiply/duplicate/ -->
<g id="edge7" class="edge">
<title>/matrix_mult/multiply/transpose:e&#45;&gt;/matrix_mult/multiply/duplicate/:n</title>
<path fill="none" stroke="black" d="M878.85,-153.87C903.21,-153.87 888.04,-120.66 908.85,-108 939.33,-89.46 1058.92,-121.91 1081.99,-99.38"/>
<polygon fill="black" stroke="black" points="1085.28,-100.58 1085.85,-90 1078.81,-97.91 1085.28,-100.58"/>
<text text-anchor="middle" x="1066.35" y="-93.8" font-family="Times,serif" font-size="14.00">value</text>
</g>
<!-- /matrix_mult/multiply/duplicate -->
<g id="node8" class="node">
<title>/matrix_mult/multiply/duplicate</title>
<g id="a_node8"><a xlink:href="../../../target/flowstdlib/data/duplicate/duplicate.html" xlink:title="duplicate">
<ellipse fill="coral" stroke="black" cx="694.85" cy="-153.87" rx="53.89" ry="18"/>
<text text-anchor="middle" x="694.85" y="-150.17" font-family="Times,serif" font-size="14.00">duplicate</text>
</a>
</g>
</g>
<!-- /matrix_mult/multiply/duplicate&#45;&gt;/matrix_mult/multiply/multiply/ -->
<g id="edge11" class="edge">
<title>/matrix_mult/multiply/duplicate:e&#45;&gt;/matrix_mult/multiply/multiply/:nw</title>
<path fill="none" stroke="black" d="M749.85,-153.87C761.35,-153.87 745.06,-118.69 743.72,-99.9"/>
<polygon fill="black" stroke="black" points="747.17,-100.51 745.85,-90 740.33,-99.04 747.17,-100.51"/>
<text text-anchor="middle" x="740.85" y="-93.8" font-family="Times,serif" font-size="14.00">b</text>
</g>
<!-- /matrix_mult/multiply/multiply -->
<g id="node9" class="node">
<title>/matrix_mult/multiply/multiply</title>
<g id="a_node9"><a xlink:href="../../../target/flowstdlib/data/multiply_row/multiply_row.html" xlink:title="multiply\n(multiply_row)">
<ellipse fill="coral" stroke="black" cx="84.85" cy="-495.35" rx="84.71" ry="26.74"/>
<text text-anchor="middle" x="84.85" y="-499.15" font-family="Times,serif" font-size="14.00">multiply</text>
<text text-anchor="middle" x="84.85" y="-484.15" font-family="Times,serif" font-size="14.00">(multiply_row)</text>
</a>
</g>
</g>
<!-- /matrix_mult/multiply/compose_rows/ -->
<g id="node19" class="node">
<title>/matrix_mult/multiply/compose_rows/</title>
<ellipse fill="none" stroke="black" cx="354.85" cy="-390.61" rx="184.67" ry="18"/>
<text text-anchor="middle" x="354.85" y="-386.91" font-family="Times,serif" font-size="14.00">/matrix_mult/multiply/compose_rows/</text>
</g>
<!-- /matrix_mult/multiply/multiply&#45;&gt;/matrix_mult/multiply/compose_rows/ -->
<g id="edge14" class="edge">
<title>/matrix_mult/multiply/multiply:e&#45;&gt;/matrix_mult/multiply/compose_rows/:w</title>
<path fill="none" stroke="black" d="M170.85,-495.35C212.68,-495.35 140.15,-410.81 158.75,-393.63"/>
<polygon fill="black" stroke="black" points="160.28,-396.83 168.85,-390.61 158.27,-390.12 160.28,-396.83"/>
<text text-anchor="middle" x="145.85" y="-394.41" font-family="Times,serif" font-size="14.00">values</text>
</g>
<!-- /matrix_mult/multiply/compose_rows -->
<g id="node10" class="node">
<title>/matrix_mult/multiply/compose_rows</title>
<g id="a_node10"><a xlink:href="../../../target/flowstdlib/data/accumulate/accumulate.html" xlink:title="compose_rows\n(accumulate)">
<ellipse fill="coral" stroke="black" cx="1424.85" cy="-390.61" rx="84.71" ry="26.74"/>
<text text-anchor="middle" x="1424.85" y="-394.41" font-family="Times,serif" font-size="14.00">compose_rows</text>
<text text-anchor="middle" x="1424.85" y="-379.41" font-family="Times,serif" font-size="14.00">(accumulate)</text>
</a>
</g>
</g>
<!-- initializer/matrix_mult/multiply/compose_rows_1 -->
<!-- initializer/matrix_mult/multiply/compose_rows_1&#45;&gt;/matrix_mult/multiply/compose_rows -->
<g id="edge1" class="edge">
<title>initializer/matrix_mult/multiply/compose_rows_1&#45;&gt;/matrix_mult/multiply/compose_rows:n</title>
<path fill="none" stroke="blue" stroke-dasharray="1,5" d="M1424.85,-477.25C1424.85,-464.23 1424.85,-445.57 1424.85,-427.8"/>
<polygon fill="blue" stroke="blue" points="1428.35,-427.48 1424.85,-417.48 1421.35,-427.48 1428.35,-427.48"/>
<text text-anchor="middle" x="1430.35" y="-439.28" font-family="Times,serif" font-size="14.00">[]</text>
</g>
<!-- /matrix_mult/multiply/compose_matrix -->
<g id="node12" class="node">
<title>/matrix_mult/multiply/compose_matrix</title>
<g id="a_node12"><a xlink:href="../../../target/flowstdlib/data/accumulate/accumulate.html" xlink:title="compose_matrix\n(accumulate)">
<ellipse fill="coral" stroke="black" cx="1911.85" cy="-390.61" rx="94.09" ry="26.74"/>
<text text-anchor="middle" x="1911.85" y="-394.41" font-family="Times,serif" font-size="14.00">compose_matrix</text>
<text text-anchor="middle" x="1911.85" y="-379.41" font-family="Times,serif" font-size="14.00">(accumulate)</text>
</a>
</g>
</g>
<!-- initializer/matrix_mult/multiply/compose_matrix_1 -->
<!-- initializer/matrix_mult/multiply/compose_matrix_1&#45;&gt;/matrix_mult/multiply/compose_matrix -->
<g id="edge2" class="edge">
<title>initializer/matrix_mult/multiply/compose_matrix_1&#45;&gt;/matrix_mult/multiply/compose_matrix:n</title>
<path fill="none" stroke="blue" stroke-dasharray="1,5" d="M1911.85,-477.25C1911.85,-464.23 1911.85,-445.57 1911.85,-427.8"/>
<polygon fill="blue" stroke="blue" points="1915.35,-427.48 1911.85,-417.48 1908.35,-427.48 1915.35,-427.48"/>
<text text-anchor="middle" x="1917.35" y="-439.28" font-family="Times,serif" font-size="14.00">[]</text>
</g>
<!-- /matrix_mult/multiply/ -->
<g id="node14" class="node">
<title>/matrix_mult/multiply/</title>
<ellipse fill="none" stroke="black" cx="473.85" cy="-235.74" rx="114.28" ry="18"/>
<text text-anchor="middle" x="473.85" y="-232.04" font-family="Times,serif" font-size="14.00">/matrix_mult/multiply/</text>
</g>
<!-- /matrix_mult/multiply/&#45;&gt;/matrix_mult/multiply/b_info -->
<g id="edge3" class="edge">
<title>/matrix_mult/multiply/:s&#45;&gt;/matrix_mult/multiply/b_info:w</title>
<path fill="none" stroke="black" d="M473.85,-217.74C473.85,-197.76 310.73,-196.02 297.85,-180.74 293.4,-175.46 289.77,-167.3 289.8,-161.36"/>
<polygon fill="black" stroke="black" points="292.55,-163.55 296.85,-153.87 287.45,-158.75 292.55,-163.55"/>
<text text-anchor="middle" x="379.22" y="-200.54" font-family="Times,serif" font-size="14.00">b</text>
</g>
<!-- /matrix_mult/multiply/&#45;&gt;/matrix_mult/multiply/a_info -->
<g id="edge4" class="edge">
<title>/matrix_mult/multiply/:s&#45;&gt;/matrix_mult/multiply/a_info:w</title>
<path fill="none" stroke="black" d="M473.85,-217.74C473.85,-196.53 397.92,-198.19 385.85,-180.74 384.9,-179.36 383.75,-171.03 383.47,-164.01"/>
<polygon fill="black" stroke="black" points="386.97,-164.25 384.85,-153.87 380.03,-163.31 386.97,-164.25"/>
<text text-anchor="middle" x="422.64" y="-200.09" font-family="Times,serif" font-size="14.00">a</text>
</g>
<!-- /matrix_mult/multiply/&#45;&gt;/matrix_mult/multiply/duplicate_rows -->
<g id="edge5" class="edge">
<title>/matrix_mult/multiply/:s&#45;&gt;/matrix_mult/multiply/duplicate_rows:w</title>
<path fill="none" stroke="black" d="M473.85,-217.74C473.85,-212.5 469.44,-180.18 469.99,-163.63"/>
<polygon fill="black" stroke="black" points="473.39,-164.45 472.85,-153.87 466.68,-162.48 473.39,-164.45"/>
<text text-anchor="middle" x="466.43" y="-189.92" font-family="Times,serif" font-size="14.00">a</text>
</g>
<!-- /matrix_mult/multiply/&#45;&gt;/matrix_mult/multiply/transpose -->
<g id="edge6" class="edge">
<title>/matrix_mult/multiply/:s&#45;&gt;/matrix_mult/multiply/transpose:w</title>
<path fill="none" stroke="black" d="M473.85,-217.74C473.85,-185.92 734.75,-202.62 757.85,-180.74 762.54,-176.3 760.23,-169 758.85,-163.12"/>
<polygon fill="black" stroke="black" points="762.1,-164.44 762.85,-153.87 755.67,-161.66 762.1,-164.44"/>
<text text-anchor="middle" x="613.78" y="-198.89" font-family="Times,serif" font-size="14.00">b</text>
</g>
<!-- /matrix_mult/multiply/b_info/ -->
<g id="node16" class="node">
<title>/matrix_mult/multiply/b_info/</title>
<ellipse fill="none" stroke="black" cx="922.85" cy="-495.35" rx="145.67" ry="18"/>
<text text-anchor="middle" x="922.85" y="-491.65" font-family="Times,serif" font-size="14.00">/matrix_mult/multiply/b_info/</text>
</g>
<!-- /matrix_mult/multiply/b_info/&#45;&gt;/matrix_mult/multiply/duplicate/ -->
<g id="edge8" class="edge">
<title>/matrix_mult/multiply/b_info/:s&#45;&gt;/matrix_mult/multiply/duplicate/:w</title>
<path fill="none" stroke="black" d="M922.85,-476.35C922.85,-438.69 922.85,-429.27 922.85,-391.61 922.85,-391.61 922.85,-391.61 922.85,-152.87 922.85,-149.39 920.76,-102.92 921.9,-82.04"/>
<polygon fill="black" stroke="black" points="925.37,-82.49 923.85,-72 918.5,-81.15 925.37,-82.49"/>
<text text-anchor="middle" x="892.85" y="-350.57" font-family="Times,serif" font-size="14.00">columns</text>
<text text-anchor="middle" x="913.1" y="-60.8" font-family="Times,serif" font-size="14.00">factor</text>
</g>
<!-- /matrix_mult/multiply/duplicate_rows/ -->
<g id="node17" class="node">
<title>/matrix_mult/multiply/duplicate_rows/</title>
<ellipse fill="none" stroke="black" cx="1147.85" cy="-390.61" rx="187.37" ry="18"/>
<text text-anchor="middle" x="1147.85" y="-386.91" font-family="Times,serif" font-size="14.00">/matrix_mult/multiply/duplicate_rows/</text>
</g>
<!-- /matrix_mult/multiply/b_info/&#45;&gt;/matrix_mult/multiply/duplicate_rows/ -->
<g id="edge9" class="edge">
<title>/matrix_mult/multiply/b_info/:s&#45;&gt;/matrix_mult/multiply/duplicate_rows/:w</title>
<path fill="none" stroke="black" d="M922.85,-476.35C922.85,-463.28 931.39,-462.36 936.85,-450.48 947,-428.43 935.87,-400.52 949.95,-392.72"/>
<polygon fill="black" stroke="black" points="950.8,-396.12 959.85,-390.61 949.34,-389.27 950.8,-396.12"/>
<text text-anchor="middle" x="911.23" y="-436.78" font-family="Times,serif" font-size="14.00">columns</text>
<text text-anchor="middle" x="938.35" y="-394.41" font-family="Times,serif" font-size="14.00">factor</text>
</g>
<!-- /matrix_mult/multiply/b_info/&#45;&gt;/matrix_mult/multiply/compose_rows/ -->
<g id="edge15" class="edge">
<title>/matrix_mult/multiply/b_info/:s&#45;&gt;/matrix_mult/multiply/compose_rows/:n</title>
<path fill="none" stroke="black" d="M922.85,-476.35C922.85,-416.16 413.18,-467.13 359.42,-418.67"/>
<polygon fill="black" stroke="black" points="362.48,-416.96 354.85,-409.61 356.24,-420.11 362.48,-416.96"/>
<text text-anchor="middle" x="608.86" y="-446.78" font-family="Times,serif" font-size="14.00">columns</text>
<text text-anchor="middle" x="315.85" y="-413.41" font-family="Times,serif" font-size="14.00">chunk_size</text>
</g>
<!-- /matrix_mult/multiply/compose_rows/&#45;&gt;/matrix_mult/multiply/compose_rows/ -->
<g id="edge12" class="edge">
<title>/matrix_mult/multiply/compose_rows/:s&#45;&gt;/matrix_mult/multiply/compose_rows/:n</title>
<path fill="none" stroke="black" d="M354.85,-372.61C422.38,-367.11 557.44,-367.11 557.44,-390.61 557.44,-412.96 435.25,-414.05 365.2,-409.37"/>
<polygon fill="black" stroke="black" points="365.08,-405.86 354.85,-408.61 364.57,-412.84 365.08,-405.86"/>
<text text-anchor="middle" x="378.95" y="-361.4" font-family="Times,serif" font-size="14.00">partial</text>
<text text-anchor="middle" x="378.85" y="-412.41" font-family="Times,serif" font-size="14.00">partial</text>
</g>
<!-- /matrix_mult/multiply/compose_rows/&#45;&gt;/matrix_mult/multiply/compose_rows/ -->
<g id="edge13" class="edge">
<title>/matrix_mult/multiply/compose_rows/:s&#45;&gt;/matrix_mult/multiply/compose_rows/:n</title>
<path fill="none" stroke="black" d="M354.85,-372.61C428.38,-361.61 575.44,-361.61 575.44,-390.61 575.44,-418.31 441.3,-419.55 365.19,-410.02"/>
<polygon fill="black" stroke="black" points="365.24,-406.5 354.85,-408.61 364.29,-413.43 365.24,-406.5"/>
<text text-anchor="middle" x="315.91" y="-361.4" font-family="Times,serif" font-size="14.00">chunk_size</text>
<text text-anchor="middle" x="393.85" y="-412.41" font-family="Times,serif" font-size="14.00">chunk_size</text>
</g>
<!-- /matrix_mult/multiply/compose_matrix/ -->
<g id="node20" class="node">
<title>/matrix_mult/multiply/compose_matrix/</title>
<ellipse fill="none" stroke="black" cx="565.85" cy="-308.74" rx="193.07" ry="18"/>
<text text-anchor="middle" x="565.85" y="-305.04" font-family="Times,serif" font-size="14.00">/matrix_mult/multiply/compose_matrix/</text>
</g>
<!-- /matrix_mult/multiply/compose_rows/&#45;&gt;/matrix_mult/multiply/compose_matrix/ -->
<g id="edge18" class="edge">
<title>/matrix_mult/multiply/compose_rows/:se&#45;&gt;/matrix_mult/multiply/compose_matrix/:w</title>
<path fill="none" stroke="black" d="M372.85,-371.61C388.45,-356.02 361.41,-325.89 363.04,-313.87"/>
<polygon fill="black" stroke="black" points="364.97,-316.8 371.85,-308.74 361.45,-310.75 364.97,-316.8"/>
<text text-anchor="middle" x="351.02" y="-343.66" font-family="Times,serif" font-size="14.00">chunk</text>
<text text-anchor="middle" x="348.85" y="-312.54" font-family="Times,serif" font-size="14.00">values</text>
</g>
<!-- /matrix_mult/multiply/compose_matrix/&#45;&gt;/matrix_mult/multiply/ -->
<g id="edge20" class="edge">
<title>/matrix_mult/multiply/compose_matrix/:se&#45;&gt;/matrix_mult/multiply/:n</title>
<path fill="none" stroke="black" d="M583.85,-290.74C617.62,-256.97 494.59,-298.22 476.14,-263.61"/>
<polygon fill="black" stroke="black" points="479.52,-262.69 473.85,-253.74 472.7,-264.27 479.52,-262.69"/>
<text text-anchor="middle" x="507.85" y="-267.26" font-family="Times,serif" font-size="14.00">chunk</text>
<text text-anchor="middle" x="445.85" y="-257.54" font-family="Times,serif" font-size="14.00">product</text>
</g>
<!-- /matrix_mult/multiply/compose_matrix/&#45;&gt;/matrix_mult/multiply/compose_matrix/ -->
<g id="edge16" class="edge">
<title>/matrix_mult/multiply/compose_matrix/:s&#45;&gt;/matrix_mult/multiply/compose_matrix/:n</title>
<path fill="none" stroke="black" d="M565.85,-290.74C636.2,-286.24 776.89,-286.24 776.89,-308.74 776.89,-330.19 649.08,-331.19 576.19,-327.34"/>
<polygon fill="black" stroke="black" points="576.04,-323.83 565.85,-326.74 575.63,-330.82 576.04,-323.83"/>
<text text-anchor="middle" x="589.96" y="-279.53" font-family="Times,serif" font-size="14.00">partial</text>
<text text-anchor="middle" x="541.85" y="-330.54" font-family="Times,serif" font-size="14.00">partial</text>
</g>
<!-- /matrix_mult/multiply/compose_matrix/&#45;&gt;/matrix_mult/multiply/compose_matrix/ -->
<g id="edge17" class="edge">
<title>/matrix_mult/multiply/compose_matrix/:s&#45;&gt;/matrix_mult/multiply/compose_matrix/:n</title>
<path fill="none" stroke="black" d="M565.85,-290.74C642.2,-281.74 794.89,-281.74 794.89,-308.74 794.89,-334.58 655.04,-335.69 576.1,-327.85"/>
<polygon fill="black" stroke="black" points="576.17,-324.34 565.85,-326.74 575.42,-331.3 576.17,-324.34"/>
<text text-anchor="middle" x="526.96" y="-279.53" font-family="Times,serif" font-size="14.00">chunk_size</text>
<text text-anchor="middle" x="604.85" y="-330.54" font-family="Times,serif" font-size="14.00">chunk_size</text>
</g>
<!-- /matrix_mult/multiply/a_info/ -->
<g id="node21" class="node">
<title>/matrix_mult/multiply/a_info/</title>
<ellipse fill="none" stroke="black" cx="725.85" cy="-390.61" rx="144.87" ry="18"/>
<text text-anchor="middle" x="725.85" y="-386.91" font-family="Times,serif" font-size="14.00">/matrix_mult/multiply/a_info/</text>
</g>
<!-- /matrix_mult/multiply/a_info/&#45;&gt;/matrix_mult/multiply/compose_matrix/ -->
<g id="edge19" class="edge">
<title>/matrix_mult/multiply/a_info/:s&#45;&gt;/matrix_mult/multiply/compose_matrix/:n</title>
<path fill="none" stroke="black" d="M725.85,-371.61C725.85,-301.51 581.69,-390.61 567.05,-336.67"/>
<polygon fill="black" stroke="black" points="570.52,-336.25 565.85,-326.74 563.57,-337.09 570.52,-336.25"/>
<text text-anchor="middle" x="628.22" y="-353" font-family="Times,serif" font-size="14.00">rows</text>
<text text-anchor="middle" x="526.85" y="-330.54" font-family="Times,serif" font-size="14.00">chunk_size</text>
</g>
</g>
</svg>
