<?xml version="1.0" encoding="UTF-8" standalone="no"?>
<!DOCTYPE svg PUBLIC "-//W3C//DTD SVG 1.1//EN"
 "http://www.w3.org/Graphics/SVG/1.1/DTD/svg11.dtd">
<!-- Generated by graphviz version 2.43.0 (0)
 -->
<!-- Title: multiply Pages: 1 -->
<svg width="1272pt" height="645pt"
 viewBox="28.80 28.80 1243.50 616.50" xmlns="http://www.w3.org/2000/svg" xmlns:xlink="http://www.w3.org/1999/xlink">
<g id="graph0" class="graph" transform="scale(1 1) rotate(0) translate(32.8 612.5)">
<title>multiply</title>
<polygon fill="white" stroke="transparent" points="-4,4 -4,-583.7 1210.7,-583.7 1210.7,4 -4,4"/>
<text text-anchor="middle" x="603.35" y="-564.5" font-family="Times,serif" font-size="14.00">multiply</text>
<!-- /matrix_mult/multiply/a -->
<g id="node1" class="node">
<title>/matrix_mult/multiply/a</title>
<polygon fill="white" stroke="black" points="95.67,-544.26 68.67,-556.7 41.67,-544.26 41.69,-524.14 95.64,-524.14 95.67,-544.26"/>
<text text-anchor="middle" x="68.67" y="-535" font-family="Times,serif" font-size="14.00">a</text>
</g>
<!-- /matrix_mult/multiply/a_info -->
<g id="node5" class="node">
<title>/matrix_mult/multiply/a_info</title>
<g id="a_node5"><a xlink:href="../../../../../.flow/lib/flowstdlib/data/info/info.html" xlink:title="a_info\n(info)">
<ellipse fill="coral" stroke="black" cx="66.67" cy="-368.09" rx="41.94" ry="26.74"/>
<text text-anchor="middle" x="66.67" y="-371.89" font-family="Times,serif" font-size="14.00">a_info</text>
<text text-anchor="middle" x="66.67" y="-356.89" font-family="Times,serif" font-size="14.00">(info)</text>
</a>
</g>
</g>
<!-- /matrix_mult/multiply/a&#45;&gt;/matrix_mult/multiply/a_info -->
<g id="edge4" class="edge">
<title>/matrix_mult/multiply/a:s&#45;&gt;/matrix_mult/multiply/a_info:w</title>
<path fill="none" stroke="black" d="M68.67,-522.7C68.67,-455.05 -35.5,-377.14 13.57,-368.82"/>
<polygon fill="black" stroke="black" points="13.95,-372.3 23.67,-368.09 13.44,-365.32 13.95,-372.3"/>
</g>
<!-- /matrix_mult/multiply/duplicate_rows -->
<g id="node6" class="node">
<title>/matrix_mult/multiply/duplicate_rows</title>
<g id="a_node6"><a xlink:href="../../../../../.flow/lib/flowstdlib/data/duplicate_rows/duplicate_rows.html" xlink:title="duplicate_rows">
<ellipse fill="coral" stroke="black" cx="206.67" cy="-368.09" rx="80.69" ry="18"/>
<text text-anchor="middle" x="206.67" y="-364.39" font-family="Times,serif" font-size="14.00">duplicate_rows</text>
</a>
</g>
</g>
<!-- /matrix_mult/multiply/a&#45;&gt;/matrix_mult/multiply/duplicate_rows -->
<g id="edge5" class="edge">
<title>/matrix_mult/multiply/a:s&#45;&gt;/matrix_mult/multiply/duplicate_rows:w</title>
<path fill="none" stroke="black" d="M68.67,-522.7C68.67,-461.89 99.09,-452.86 117.67,-394.96 119.73,-388.53 117.94,-381.1 117.91,-375.68"/>
<polygon fill="black" stroke="black" points="120.64,-377.89 124.67,-368.09 115.41,-373.23 120.64,-377.89"/>
</g>
<!-- /matrix_mult/multiply/b -->
<g id="node2" class="node">
<title>/matrix_mult/multiply/b</title>
<polygon fill="white" stroke="black" points="205.67,-544.26 178.67,-556.7 151.67,-544.26 151.69,-524.14 205.64,-524.14 205.67,-544.26"/>
<text text-anchor="middle" x="178.67" y="-535" font-family="Times,serif" font-size="14.00">b</text>
</g>
<!-- /matrix_mult/multiply/b_info -->
<g id="node4" class="node">
<title>/matrix_mult/multiply/b_info</title>
<g id="a_node4"><a xlink:href="../../../../../.flow/lib/flowstdlib/data/info/info.html" xlink:title="b_info\n(info)">
<ellipse fill="coral" stroke="black" cx="197.67" cy="-457.83" rx="41.94" ry="26.74"/>
<text text-anchor="middle" x="197.67" y="-461.63" font-family="Times,serif" font-size="14.00">b_info</text>
<text text-anchor="middle" x="197.67" y="-446.63" font-family="Times,serif" font-size="14.00">(info)</text>
</a>
</g>
</g>
<!-- /matrix_mult/multiply/b&#45;&gt;/matrix_mult/multiply/b_info -->
<g id="edge3" class="edge">
<title>/matrix_mult/multiply/b:s&#45;&gt;/matrix_mult/multiply/b_info:w</title>
<path fill="none" stroke="black" d="M178.67,-522.7C178.67,-502.96 161.33,-503.61 155.67,-484.7 153.9,-478.8 150.51,-471.84 149.29,-466.48"/>
<polygon fill="black" stroke="black" points="152.36,-468.17 154.67,-457.83 146.41,-464.47 152.36,-468.17"/>
</g>
<!-- /matrix_mult/multiply/transpose -->
<g id="node7" class="node">
<title>/matrix_mult/multiply/transpose</title>
<g id="a_node7"><a xlink:href="../../../../../.flow/lib/flowstdlib/data/transpose/transpose.html" xlink:title="transpose">
<ellipse fill="coral" stroke="black" cx="313.67" cy="-457.83" rx="56.59" ry="18"/>
<text text-anchor="middle" x="313.67" y="-454.13" font-family="Times,serif" font-size="14.00">transpose</text>
</a>
</g>
</g>
<!-- /matrix_mult/multiply/b&#45;&gt;/matrix_mult/multiply/transpose -->
<g id="edge6" class="edge">
<title>/matrix_mult/multiply/b:s&#45;&gt;/matrix_mult/multiply/transpose:w</title>
<path fill="none" stroke="black" d="M178.67,-522.7C178.67,-487.3 226.85,-512.58 248.67,-484.7 252.71,-479.54 250.95,-472.28 250.26,-466.6"/>
<polygon fill="black" stroke="black" points="253.4,-468.18 255.67,-457.83 247.44,-464.51 253.4,-468.18"/>
</g>
<!-- /matrix_mult/multiply/product -->
<g id="node3" class="node">
<title>/matrix_mult/multiply/product</title>
<polygon fill="black" stroke="black" points="665.98,-12.44 723.67,0 781.36,-12.44 781.3,-32.56 666.04,-32.56 665.98,-12.44"/>
<text text-anchor="middle" x="723.67" y="-14.3" font-family="Times,serif" font-size="14.00" fill="white">product</text>
</g>
<!-- /matrix_mult/multiply/b_info&#45;&gt;/matrix_mult/multiply/duplicate_rows -->
<g id="edge9" class="edge">
<title>/matrix_mult/multiply/b_info:s&#45;&gt;/matrix_mult/multiply/duplicate_rows:w</title>
<path fill="none" stroke="black" d="M197.67,-430.96C197.67,-393.26 144.88,-418.54 125.67,-386.09 124.2,-383.61 122.63,-380.59 121.58,-377.74"/>
<polygon fill="black" stroke="black" points="124.95,-378.68 124.67,-368.09 118.29,-376.55 124.95,-378.68"/>
<text text-anchor="middle" x="130.29" y="-409.01" font-family="Times,serif" font-size="14.00">columns</text>
<text text-anchor="middle" x="113.92" y="-356.89" font-family="Times,serif" font-size="14.00">factor</text>
</g>
<!-- /matrix_mult/multiply/duplicate -->
<g id="node8" class="node">
<title>/matrix_mult/multiply/duplicate</title>
<g id="a_node8"><a xlink:href="../../../../../.flow/lib/flowstdlib/data/duplicate/duplicate.html" xlink:title="duplicate">
<ellipse fill="coral" stroke="black" cx="359.67" cy="-368.09" rx="53.89" ry="18"/>
<text text-anchor="middle" x="359.67" y="-364.39" font-family="Times,serif" font-size="14.00">duplicate</text>
</a>
</g>
</g>
<!-- /matrix_mult/multiply/b_info&#45;&gt;/matrix_mult/multiply/duplicate -->
<g id="edge8" class="edge">
<title>/matrix_mult/multiply/b_info:s&#45;&gt;/matrix_mult/multiply/duplicate:w</title>
<path fill="none" stroke="black" d="M197.67,-430.96C197.67,-384.14 264.56,-429.03 296.67,-394.96 301.34,-390 299.57,-382.43 299.04,-376.59"/>
<polygon fill="black" stroke="black" points="302.07,-378.36 304.67,-368.09 296.23,-374.5 302.07,-378.36"/>
<text text-anchor="middle" x="220.72" y="-412.77" font-family="Times,serif" font-size="14.00">columns</text>
<text text-anchor="middle" x="293.92" y="-356.89" font-family="Times,serif" font-size="14.00">factor</text>
</g>
<!-- /matrix_mult/multiply/compose_rows -->
<g id="node10" class="node">
<title>/matrix_mult/multiply/compose_rows</title>
<g id="a_node10"><a xlink:href="../../../../../.flow/lib/flowstdlib/data/accumulate/accumulate.html" xlink:title="compose_rows\n(accumulate)">
<ellipse fill="coral" stroke="black" cx="577.67" cy="-188.61" rx="84.71" ry="26.74"/>
<text text-anchor="middle" x="577.67" y="-192.41" font-family="Times,serif" font-size="14.00">compose_rows</text>
<text text-anchor="middle" x="577.67" y="-177.41" font-family="Times,serif" font-size="14.00">(accumulate)</text>
</a>
</g>
</g>
<!-- /matrix_mult/multiply/b_info&#45;&gt;/matrix_mult/multiply/compose_rows -->
<g id="edge15" class="edge">
<title>/matrix_mult/multiply/b_info:s&#45;&gt;/matrix_mult/multiply/compose_rows:n</title>
<path fill="none" stroke="black" d="M197.67,-430.96C197.67,-380.32 372.77,-403.56 422.67,-394.96 639.13,-357.66 768.16,-474.05 908.67,-305.22 923.95,-286.86 924.62,-269.26 908.67,-251.48 861.77,-199.2 605.67,-280.4 579.78,-225.5"/>
<polygon fill="black" stroke="black" points="583.16,-224.54 577.67,-215.48 576.31,-225.99 583.16,-224.54"/>
<text text-anchor="middle" x="392.68" y="-398.76" font-family="Times,serif" font-size="14.00">columns</text>
<text text-anchor="middle" x="538.67" y="-219.28" font-family="Times,serif" font-size="14.00">chunk_size</text>
</g>
<!-- /matrix_mult/multiply/compose_matrix -->
<g id="node12" class="node">
<title>/matrix_mult/multiply/compose_matrix</title>
<g id="a_node12"><a xlink:href="../../../../../.flow/lib/flowstdlib/data/accumulate/accumulate.html" xlink:title="compose_matrix\n(accumulate)">
<ellipse fill="coral" stroke="black" cx="697.67" cy="-98.87" rx="94.09" ry="26.74"/>
<text text-anchor="middle" x="697.67" y="-102.67" font-family="Times,serif" font-size="14.00">compose_matrix</text>
<text text-anchor="middle" x="697.67" y="-87.67" font-family="Times,serif" font-size="14.00">(accumulate)</text>
</a>
</g>
</g>
<!-- /matrix_mult/multiply/a_info&#45;&gt;/matrix_mult/multiply/compose_matrix -->
<g id="edge19" class="edge">
<title>/matrix_mult/multiply/a_info:s&#45;&gt;/matrix_mult/multiply/compose_matrix:n</title>
<path fill="none" stroke="black" d="M66.67,-341.22C66.67,-274.41 433.82,-174.64 483.67,-161.74 526.71,-150.61 672.26,-170.39 694.74,-135.77"/>
<polygon fill="black" stroke="black" points="698.23,-136.32 697.67,-125.74 691.51,-134.36 698.23,-136.32"/>
<text text-anchor="middle" x="379.99" y="-189.63" font-family="Times,serif" font-size="14.00">rows</text>
<text text-anchor="middle" x="658.67" y="-129.54" font-family="Times,serif" font-size="14.00">chunk_size</text>
</g>
<!-- /matrix_mult/multiply/multiply -->
<g id="node9" class="node">
<title>/matrix_mult/multiply/multiply</title>
<g id="a_node9"><a xlink:href="../../../../../.flow/lib/flowstdlib/data/multiply_row/multiply_row.html" xlink:title="multiply\n(multiply_row)">
<ellipse fill="coral" stroke="black" cx="323.67" cy="-278.35" rx="84.71" ry="26.74"/>
<text text-anchor="middle" x="323.67" y="-282.15" font-family="Times,serif" font-size="14.00">multiply</text>
<text text-anchor="middle" x="323.67" y="-267.15" font-family="Times,serif" font-size="14.00">(multiply_row)</text>
</a>
</g>
</g>
<!-- /matrix_mult/multiply/duplicate_rows&#45;&gt;/matrix_mult/multiply/multiply -->
<g id="edge10" class="edge">
<title>/matrix_mult/multiply/duplicate_rows:e&#45;&gt;/matrix_mult/multiply/multiply:w</title>
<path fill="none" stroke="black" d="M288.67,-368.09C296.68,-368.09 291.1,-357.33 287.67,-350.09 275.03,-323.4 251.07,-332.02 238.67,-305.22 236,-299.46 232.52,-292.23 231.62,-286.73"/>
<polygon fill="black" stroke="black" points="234.66,-288.51 237.67,-278.35 228.98,-284.41 234.66,-288.51"/>
<text text-anchor="middle" x="233.17" y="-282.15" font-family="Times,serif" font-size="14.00">a</text>
</g>
<!-- /matrix_mult/multiply/transpose&#45;&gt;/matrix_mult/multiply/duplicate -->
<g id="edge7" class="edge">
<title>/matrix_mult/multiply/transpose:e&#45;&gt;/matrix_mult/multiply/duplicate:n</title>
<path fill="none" stroke="black" d="M371.67,-457.83C379.68,-457.83 371.71,-447.77 370.67,-439.83 368.06,-419.98 362.13,-413.2 360.25,-397.52"/>
<polygon fill="black" stroke="black" points="363.72,-396.88 359.67,-387.09 356.73,-397.27 363.72,-396.88"/>
<text text-anchor="middle" x="340.17" y="-390.89" font-family="Times,serif" font-size="14.00">value</text>
</g>
<!-- /matrix_mult/multiply/duplicate&#45;&gt;/matrix_mult/multiply/multiply -->
<g id="edge11" class="edge">
<title>/matrix_mult/multiply/duplicate:e&#45;&gt;/matrix_mult/multiply/multiply:nw</title>
<path fill="none" stroke="black" d="M414.67,-368.09C422.68,-368.09 418.38,-356.57 413.67,-350.09 383.7,-308.87 277.19,-338.74 291.35,-313.03"/>
<polygon fill="black" stroke="black" points="294.1,-315.2 297.67,-305.22 288.66,-310.79 294.1,-315.2"/>
<text text-anchor="middle" x="292.67" y="-309.02" font-family="Times,serif" font-size="14.00">b</text>
</g>
<!-- /matrix_mult/multiply/multiply&#45;&gt;/matrix_mult/multiply/compose_rows -->
<g id="edge14" class="edge">
<title>/matrix_mult/multiply/multiply:e&#45;&gt;/matrix_mult/multiply/compose_rows:w</title>
<path fill="none" stroke="black" d="M409.67,-278.35C422.01,-278.35 410.07,-261.91 416.67,-251.48 438.01,-217.74 446.72,-192.97 481.65,-189.13"/>
<polygon fill="black" stroke="black" points="481.86,-192.62 491.67,-188.61 481.5,-185.63 481.86,-192.62"/>
<text text-anchor="middle" x="468.67" y="-192.41" font-family="Times,serif" font-size="14.00">values</text>
</g>
<!-- /matrix_mult/multiply/compose_rows&#45;&gt;/matrix_mult/multiply/compose_rows -->
<g id="edge12" class="edge">
<title>/matrix_mult/multiply/compose_rows:s&#45;&gt;/matrix_mult/multiply/compose_rows:n</title>
<path fill="none" stroke="black" d="M577.67,-161.61C611.95,-150.61 680.52,-150.61 680.52,-188.61 680.52,-223.2 623.72,-226.3 587.67,-218.29"/>
<polygon fill="black" stroke="black" points="588.23,-214.82 577.67,-215.61 586.42,-221.58 588.23,-214.82"/>
<text text-anchor="middle" x="601.69" y="-150.4" font-family="Times,serif" font-size="14.00">partial</text>
<text text-anchor="middle" x="601.67" y="-219.41" font-family="Times,serif" font-size="14.00">partial</text>
</g>
<!-- /matrix_mult/multiply/compose_rows&#45;&gt;/matrix_mult/multiply/compose_rows -->
<g id="edge13" class="edge">
<title>/matrix_mult/multiply/compose_rows:s&#45;&gt;/matrix_mult/multiply/compose_rows:n</title>
<path fill="none" stroke="black" d="M577.67,-161.61C617.95,-139.61 698.52,-139.61 698.52,-188.61 698.52,-234.16 628.89,-237.37 586.72,-219.92"/>
<polygon fill="black" stroke="black" points="588.2,-216.74 577.67,-215.61 585.2,-223.07 588.2,-216.74"/>
<text text-anchor="middle" x="538.68" y="-150.4" font-family="Times,serif" font-size="14.00">chunk_size</text>
<text text-anchor="middle" x="616.67" y="-219.41" font-family="Times,serif" font-size="14.00">chunk_size</text>
</g>
<!-- /matrix_mult/multiply/compose_rows&#45;&gt;/matrix_mult/multiply/compose_matrix -->
<g id="edge18" class="edge">
<title>/matrix_mult/multiply/compose_rows:se&#45;&gt;/matrix_mult/multiply/compose_matrix:w</title>
<path fill="none" stroke="black" d="M603.67,-161.74C619.26,-146.15 592.22,-116.02 593.85,-104"/>
<polygon fill="black" stroke="black" points="595.79,-106.93 602.67,-98.87 592.27,-100.88 595.79,-106.93"/>
<text text-anchor="middle" x="581.84" y="-133.79" font-family="Times,serif" font-size="14.00">chunk</text>
<text text-anchor="middle" x="579.67" y="-102.67" font-family="Times,serif" font-size="14.00">values</text>
</g>
<!-- initializer/matrix_mult/multiply/compose_rows_1 -->
<!-- initializer/matrix_mult/multiply/compose_rows_1&#45;&gt;/matrix_mult/multiply/compose_rows -->
<g id="edge1" class="edge">
<title>initializer/matrix_mult/multiply/compose_rows_1&#45;&gt;/matrix_mult/multiply/compose_rows:n</title>
<path fill="none" stroke="blue" stroke-dasharray="1,5" d="M613.22,-260.57C597.74,-252.51 583.52,-241.15 579.09,-225.66"/>
<polygon fill="blue" stroke="blue" points="582.51,-224.9 577.67,-215.48 575.58,-225.87 582.51,-224.9"/>
<text text-anchor="middle" x="607.72" y="-249.37" font-family="Times,serif" font-size="14.00">[]</text>
</g>
<!-- /matrix_mult/multiply/compose_matrix&#45;&gt;/matrix_mult/multiply/product -->
<g id="edge20" class="edge">
<title>/matrix_mult/multiply/compose_matrix:se&#45;&gt;/matrix_mult/multiply/product:n</title>
<path fill="none" stroke="black" d="M723.67,-72C733,-62.67 727.75,-55.03 725.01,-44.08"/>
<polygon fill="black" stroke="black" points="728.46,-43.45 723.67,-34 721.52,-44.37 728.46,-43.45"/>
<text text-anchor="middle" x="705.9" y="-56" font-family="Times,serif" font-size="14.00">chunk</text>
</g>
<!-- /matrix_mult/multiply/compose_matrix&#45;&gt;/matrix_mult/multiply/compose_matrix -->
<g id="edge16" class="edge">
<title>/matrix_mult/multiply/compose_matrix:s&#45;&gt;/matrix_mult/multiply/compose_matrix:n</title>
<path fill="none" stroke="black" d="M697.67,-71.87C735.02,-61.87 809.71,-61.87 809.71,-98.87 809.71,-132.83 746.77,-135.62 707.55,-128.11"/>
<polygon fill="black" stroke="black" points="708.2,-124.67 697.67,-125.87 706.65,-131.5 708.2,-124.67"/>
<text text-anchor="middle" x="673.7" y="-60.66" font-family="Times,serif" font-size="14.00">partial</text>
<text text-anchor="middle" x="721.67" y="-129.67" font-family="Times,serif" font-size="14.00">partial</text>
</g>
<!-- /matrix_mult/multiply/compose_matrix&#45;&gt;/matrix_mult/multiply/compose_matrix -->
<g id="edge17" class="edge">
<title>/matrix_mult/multiply/compose_matrix:s&#45;&gt;/matrix_mult/multiply/compose_matrix:n</title>
<path fill="none" stroke="black" d="M697.67,-71.87C741.02,-51.87 827.71,-51.87 827.71,-98.87 827.71,-142.66 752.47,-145.65 707.13,-129.68"/>
<polygon fill="black" stroke="black" points="708.25,-126.36 697.67,-125.87 705.63,-132.86 708.25,-126.36"/>
<text text-anchor="middle" x="736.69" y="-60.66" font-family="Times,serif" font-size="14.00">chunk_size</text>
<text text-anchor="middle" x="736.67" y="-129.67" font-family="Times,serif" font-size="14.00">chunk_size</text>
</g>
<!-- initializer/matrix_mult/multiply/compose_matrix_1 -->
<!-- initializer/matrix_mult/multiply/compose_matrix_1&#45;&gt;/matrix_mult/multiply/compose_matrix -->
<g id="edge2" class="edge">
<title>initializer/matrix_mult/multiply/compose_matrix_1&#45;&gt;/matrix_mult/multiply/compose_matrix:n</title>
<path fill="none" stroke="blue" stroke-dasharray="1,5" d="M799.74,-175.09C752.56,-167.49 710.77,-155.27 700.23,-135.64"/>
<polygon fill="blue" stroke="blue" points="703.56,-134.55 697.67,-125.74 696.78,-136.3 703.56,-134.55"/>
<text text-anchor="middle" x="805.24" y="-163.89" font-family="Times,serif" font-size="14.00">[]</text>
</g>
</g>
</svg>
