<?xml version="1.0" encoding="UTF-8" standalone="no"?>
<!DOCTYPE svg PUBLIC "-//W3C//DTD SVG 1.1//EN"
 "http://www.w3.org/Graphics/SVG/1.1/DTD/svg11.dtd">
<!-- Generated by graphviz version 2.43.0 (0)
 -->
<!-- Title: matrix_mult Pages: 1 -->
<svg width="1560pt" height="557pt"
 viewBox="28.80 28.80 1531.57 527.80" xmlns="http://www.w3.org/2000/svg" xmlns:xlink="http://www.w3.org/1999/xlink">
<g id="graph0" class="graph" transform="scale(1 1) rotate(0) translate(32.8 523.8)">
<title>matrix_mult</title>
<polygon fill="white" stroke="transparent" points="-4,4 -4,-495 1498.77,-495 1498.77,4 -4,4"/>
<text text-anchor="middle" x="747.39" y="-475.8" font-family="Times,serif" font-size="14.00">matrix_mult</text>
<!-- /matrix_mult/readline -->
<g id="node1" class="node">
<title>/matrix_mult/readline</title>
<g id="a_node1"><a xlink:href="../../flowr/src/cli/stdio/readline.html" xlink:title="readline">
<polygon fill="white" stroke="black" points="165.43,-444.44 225.44,-432 285.44,-444.44 285.39,-464.56 165.49,-464.56 165.43,-444.44"/>
<text text-anchor="middle" x="225.44" y="-446.3" font-family="Times,serif" font-size="14.00">readline</text>
</a>
</g>
</g>
<!-- /matrix_mult/select_0/value -->
<g id="node6" class="node">
<title>/matrix_mult/select_0/value</title>
<ellipse fill="none" stroke="black" cx="138.44" cy="-324" rx="138.38" ry="18"/>
<text text-anchor="middle" x="138.44" y="-320.3" font-family="Times,serif" font-size="14.00">/matrix_mult/select_0/value</text>
</g>
<!-- /matrix_mult/readline&#45;&gt;/matrix_mult/select_0/value -->
<g id="edge1" class="edge">
<title>/matrix_mult/readline:e&#45;&gt;/matrix_mult/select_0/value:n</title>
<path fill="none" stroke="black" d="M286.44,-450C294.45,-450 289.56,-438.87 285.44,-432 248.03,-369.73 148.79,-414.5 139.19,-353.29"/>
<polygon fill="black" stroke="black" points="142.65,-352.72 138.44,-343 135.67,-353.23 142.65,-352.72"/>
<text text-anchor="middle" x="197.79" y="-397.58" font-family="Times,serif" font-size="14.00">json</text>
</g>
<!-- /matrix_mult/select_1/value -->
<g id="node7" class="node">
<title>/matrix_mult/select_1/value</title>
<ellipse fill="none" stroke="black" cx="433.44" cy="-324" rx="138.38" ry="18"/>
<text text-anchor="middle" x="433.44" y="-320.3" font-family="Times,serif" font-size="14.00">/matrix_mult/select_1/value</text>
</g>
<!-- /matrix_mult/readline&#45;&gt;/matrix_mult/select_1/value -->
<g id="edge2" class="edge">
<title>/matrix_mult/readline:e&#45;&gt;/matrix_mult/select_1/value:n</title>
<path fill="none" stroke="black" d="M286.44,-450C363.77,-450 427.72,-426.01 433.08,-353.12"/>
<polygon fill="black" stroke="black" points="436.58,-353.12 433.44,-343 429.58,-352.87 436.58,-353.12"/>
<text text-anchor="middle" x="371.77" y="-432.68" font-family="Times,serif" font-size="14.00">json</text>
</g>
<!-- /matrix_mult/select_0 -->
<g id="node2" class="node">
<title>/matrix_mult/select_0</title>
<g id="a_node2"><a xlink:href="../../../../../.flow/lib/flowstdlib/control/index_f.toml.dot.svg" xlink:title="select_0">
<ellipse fill="aquamarine" stroke="black" cx="240.44" cy="-144" rx="72" ry="72"/>
<text text-anchor="middle" x="240.44" y="-140.3" font-family="Times,serif" font-size="14.00">select_0</text>
</a>
</g>
</g>
<!-- /matrix_mult/select_1 -->
<g id="node3" class="node">
<title>/matrix_mult/select_1</title>
<g id="a_node3"><a xlink:href="../../../../../.flow/lib/flowstdlib/control/index_f.toml.dot.svg" xlink:title="select_1">
<ellipse fill="aquamarine" stroke="black" cx="402.44" cy="-144" rx="72" ry="72"/>
<text text-anchor="middle" x="402.44" y="-140.3" font-family="Times,serif" font-size="14.00">select_1</text>
</a>
</g>
</g>
<!-- /matrix_mult/multiply -->
<g id="node4" class="node">
<title>/matrix_mult/multiply</title>
<g id="a_node4"><a xlink:href="multiply.toml.dot.svg" xlink:title="multiply">
<ellipse fill="aquamarine" stroke="black" cx="661.44" cy="-324" rx="72" ry="72"/>
<text text-anchor="middle" x="661.44" y="-320.3" font-family="Times,serif" font-size="14.00">multiply</text>
</a>
</g>
</g>
<!-- /matrix_mult/stdout -->
<g id="node5" class="node">
<title>/matrix_mult/stdout</title>
<g id="a_node5"><a xlink:href="../../flowr/src/cli/stdio/stdout.html" xlink:title="stdout">
<polygon fill="black" stroke="black" points="743.06,-23.56 693.44,-36 643.82,-23.56 643.87,-3.44 743.01,-3.44 743.06,-23.56"/>
<text text-anchor="middle" x="693.44" y="-14.3" font-family="Times,serif" font-size="14.00" fill="white">stdout</text>
</a>
</g>
</g>
<!-- /matrix_mult/select_0/selected_value -->
<g id="node8" class="node">
<title>/matrix_mult/select_0/selected_value</title>
<ellipse fill="none" stroke="black" cx="932.44" cy="-324" rx="181.17" ry="18"/>
<text text-anchor="middle" x="932.44" y="-320.3" font-family="Times,serif" font-size="14.00">/matrix_mult/select_0/selected_value</text>
</g>
<!-- /matrix_mult/multiply/a -->
<g id="node9" class="node">
<title>/matrix_mult/multiply/a</title>
<ellipse fill="none" stroke="black" cx="932.44" cy="-144" rx="120.48" ry="18"/>
<text text-anchor="middle" x="932.44" y="-140.3" font-family="Times,serif" font-size="14.00">/matrix_mult/multiply/a</text>
</g>
<!-- /matrix_mult/select_0/selected_value&#45;&gt;/matrix_mult/multiply/a -->
<g id="edge3" class="edge">
<title>/matrix_mult/select_0/selected_value:s&#45;&gt;/matrix_mult/multiply/a:n</title>
<path fill="none" stroke="black" d="M932.44,-305C932.44,-245.46 932.44,-228.05 932.44,-173.29"/>
<polygon fill="black" stroke="black" points="935.94,-173 932.44,-163 928.94,-173 935.94,-173"/>
</g>
<!-- /matrix_mult/select_1/selected_value -->
<g id="node10" class="node">
<title>/matrix_mult/select_1/selected_value</title>
<ellipse fill="none" stroke="black" cx="1313.44" cy="-324" rx="181.17" ry="18"/>
<text text-anchor="middle" x="1313.44" y="-320.3" font-family="Times,serif" font-size="14.00">/matrix_mult/select_1/selected_value</text>
</g>
<!-- /matrix_mult/multiply/b -->
<g id="node11" class="node">
<title>/matrix_mult/multiply/b</title>
<ellipse fill="none" stroke="black" cx="1313.44" cy="-144" rx="120.48" ry="18"/>
<text text-anchor="middle" x="1313.44" y="-140.3" font-family="Times,serif" font-size="14.00">/matrix_mult/multiply/b</text>
</g>
<!-- /matrix_mult/select_1/selected_value&#45;&gt;/matrix_mult/multiply/b -->
<g id="edge4" class="edge">
<title>/matrix_mult/select_1/selected_value:s&#45;&gt;/matrix_mult/multiply/b:n</title>
<path fill="none" stroke="black" d="M1313.44,-305C1313.44,-245.46 1313.44,-228.05 1313.44,-173.29"/>
<polygon fill="black" stroke="black" points="1316.94,-173 1313.44,-163 1309.94,-173 1316.94,-173"/>
</g>
<!-- /matrix_mult/multiply/product -->
<g id="node12" class="node">
<title>/matrix_mult/multiply/product</title>
<ellipse fill="none" stroke="black" cx="643.44" cy="-144" rx="150.57" ry="18"/>
<text text-anchor="middle" x="643.44" y="-140.3" font-family="Times,serif" font-size="14.00">/matrix_mult/multiply/product</text>
</g>
<!-- /matrix_mult/multiply/product&#45;&gt;/matrix_mult/stdout -->
<g id="edge5" class="edge">
<title>/matrix_mult/multiply/product:s&#45;&gt;/matrix_mult/stdout:w</title>
<path fill="none" stroke="black" d="M643.44,-125C643.44,-81.53 602.87,-28.13 632.21,-19.27"/>
<polygon fill="black" stroke="black" points="632.95,-22.71 642.44,-18 632.08,-15.76 632.95,-22.71"/>
</g>
</g>
</svg>
