<?xml version="1.0" encoding="UTF-8" standalone="no"?>
<!DOCTYPE svg PUBLIC "-//W3C//DTD SVG 1.1//EN"
 "http://www.w3.org/Graphics/SVG/1.1/DTD/svg11.dtd">
<!-- Generated by graphviz version 2.43.0 (0)
 -->
<!-- Title: matrix_mult Pages: 1 -->
<svg width="1560pt" height="587pt"
 viewBox="28.80 28.80 1531.57 558.23" xmlns="http://www.w3.org/2000/svg" xmlns:xlink="http://www.w3.org/1999/xlink">
<g id="graph0" class="graph" transform="scale(1 1) rotate(0) translate(32.8 554.23)">
<title>matrix_mult</title>
<polygon fill="white" stroke="transparent" points="-4,4 -4,-525.43 1498.77,-525.43 1498.77,4 -4,4"/>
<text text-anchor="middle" x="747.39" y="-506.23" font-family="Times,serif" font-size="14.00">matrix_mult</text>
<!-- /matrix_mult/readline -->
<g id="node1" class="node">
<title>/matrix_mult/readline</title>
<g id="a_node1"><a xlink:href="../../flowr/src/cli/stdio/readline.html" xlink:title="readline">
<polygon fill="white" stroke="black" points="165.43,-474.86 225.44,-462.43 285.44,-474.86 285.39,-494.99 165.49,-494.99 165.43,-474.86"/>
<text text-anchor="middle" x="225.44" y="-476.73" font-family="Times,serif" font-size="14.00">readline</text>
</a>
</g>
</g>
<!-- /matrix_mult/select_0/value -->
<g id="node6" class="node">
<title>/matrix_mult/select_0/value</title>
<ellipse fill="none" stroke="black" cx="138.44" cy="-354.43" rx="138.38" ry="18"/>
<text text-anchor="middle" x="138.44" y="-350.73" font-family="Times,serif" font-size="14.00">/matrix_mult/select_0/value</text>
</g>
<!-- /matrix_mult/readline&#45;&gt;/matrix_mult/select_0/value -->
<g id="edge1" class="edge">
<title>/matrix_mult/readline:e&#45;&gt;/matrix_mult/select_0/value:n</title>
<path fill="none" stroke="black" d="M286.44,-480.43C294.45,-480.43 289.56,-469.29 285.44,-462.43 248.03,-400.15 148.79,-444.92 139.19,-383.72"/>
<polygon fill="black" stroke="black" points="142.65,-383.15 138.44,-373.43 135.67,-383.65 142.65,-383.15"/>
<text text-anchor="middle" x="197.79" y="-428.01" font-family="Times,serif" font-size="14.00">json</text>
</g>
<!-- /matrix_mult/select_1/value -->
<g id="node7" class="node">
<title>/matrix_mult/select_1/value</title>
<ellipse fill="none" stroke="black" cx="433.44" cy="-354.43" rx="138.38" ry="18"/>
<text text-anchor="middle" x="433.44" y="-350.73" font-family="Times,serif" font-size="14.00">/matrix_mult/select_1/value</text>
</g>
<!-- /matrix_mult/readline&#45;&gt;/matrix_mult/select_1/value -->
<g id="edge2" class="edge">
<title>/matrix_mult/readline:e&#45;&gt;/matrix_mult/select_1/value:n</title>
<path fill="none" stroke="black" d="M286.44,-480.43C363.77,-480.43 427.72,-456.44 433.08,-383.54"/>
<polygon fill="black" stroke="black" points="436.58,-383.55 433.44,-373.43 429.58,-383.29 436.58,-383.55"/>
<text text-anchor="middle" x="371.77" y="-463.11" font-family="Times,serif" font-size="14.00">json</text>
</g>
<!-- /matrix_mult/select_0 -->
<g id="node2" class="node">
<title>/matrix_mult/select_0</title>
<g id="a_node2"><a xlink:href="../../target/flowstdlib/control/index_f.toml.dot.svg" xlink:title="select_0">
<ellipse fill="aquamarine" stroke="black" cx="240.44" cy="-174.43" rx="72" ry="72"/>
<text text-anchor="middle" x="240.44" y="-170.73" font-family="Times,serif" font-size="14.00">select_0</text>
</a>
</g>
</g>
<!-- /matrix_mult/select_1 -->
<g id="node3" class="node">
<title>/matrix_mult/select_1</title>
<g id="a_node3"><a xlink:href="../../target/flowstdlib/control/index_f.toml.dot.svg" xlink:title="select_1">
<ellipse fill="aquamarine" stroke="black" cx="402.44" cy="-174.43" rx="72" ry="72"/>
<text text-anchor="middle" x="402.44" y="-170.73" font-family="Times,serif" font-size="14.00">select_1</text>
</a>
</g>
</g>
<!-- /matrix_mult/multiply -->
<g id="node4" class="node">
<title>/matrix_mult/multiply</title>
<g id="a_node4"><a xlink:href="multiply.toml.dot.svg" xlink:title="multiply">
<ellipse fill="aquamarine" stroke="black" cx="661.44" cy="-354.43" rx="72" ry="72"/>
<text text-anchor="middle" x="661.44" y="-350.73" font-family="Times,serif" font-size="14.00">multiply</text>
</a>
</g>
</g>
<!-- /matrix_mult/print -->
<g id="node5" class="node">
<title>/matrix_mult/print</title>
<g id="a_node5"><a xlink:href="../../flowr/src/cli/stdio/stdout.html" xlink:title="print\n(stdout)">
<polygon fill="black" stroke="black" points="771.05,-43.54 707.44,-66.64 643.83,-43.54 643.89,-6.17 770.99,-6.17 771.05,-43.54"/>
<text text-anchor="middle" x="707.44" y="-37.01" font-family="Times,serif" font-size="14.00" fill="white">print</text>
<text text-anchor="middle" x="707.44" y="-22.01" font-family="Times,serif" font-size="14.00" fill="white">(stdout)</text>
</a>
</g>
</g>
<!-- /matrix_mult/select_0/selected_value -->
<g id="node8" class="node">
<title>/matrix_mult/select_0/selected_value</title>
<ellipse fill="none" stroke="black" cx="932.44" cy="-354.43" rx="181.17" ry="18"/>
<text text-anchor="middle" x="932.44" y="-350.73" font-family="Times,serif" font-size="14.00">/matrix_mult/select_0/selected_value</text>
</g>
<!-- /matrix_mult/multiply/a -->
<g id="node9" class="node">
<title>/matrix_mult/multiply/a</title>
<ellipse fill="none" stroke="black" cx="932.44" cy="-174.43" rx="120.48" ry="18"/>
<text text-anchor="middle" x="932.44" y="-170.73" font-family="Times,serif" font-size="14.00">/matrix_mult/multiply/a</text>
</g>
<!-- /matrix_mult/select_0/selected_value&#45;&gt;/matrix_mult/multiply/a -->
<g id="edge3" class="edge">
<title>/matrix_mult/select_0/selected_value:s&#45;&gt;/matrix_mult/multiply/a:n</title>
<path fill="none" stroke="black" d="M932.44,-335.43C932.44,-275.89 932.44,-258.48 932.44,-203.71"/>
<polygon fill="black" stroke="black" points="935.94,-203.43 932.44,-193.43 928.94,-203.43 935.94,-203.43"/>
</g>
<!-- /matrix_mult/select_1/selected_value -->
<g id="node10" class="node">
<title>/matrix_mult/select_1/selected_value</title>
<ellipse fill="none" stroke="black" cx="1313.44" cy="-354.43" rx="181.17" ry="18"/>
<text text-anchor="middle" x="1313.44" y="-350.73" font-family="Times,serif" font-size="14.00">/matrix_mult/select_1/selected_value</text>
</g>
<!-- /matrix_mult/multiply/b -->
<g id="node11" class="node">
<title>/matrix_mult/multiply/b</title>
<ellipse fill="none" stroke="black" cx="1313.44" cy="-174.43" rx="120.48" ry="18"/>
<text text-anchor="middle" x="1313.44" y="-170.73" font-family="Times,serif" font-size="14.00">/matrix_mult/multiply/b</text>
</g>
<!-- /matrix_mult/select_1/selected_value&#45;&gt;/matrix_mult/multiply/b -->
<g id="edge4" class="edge">
<title>/matrix_mult/select_1/selected_value:s&#45;&gt;/matrix_mult/multiply/b:n</title>
<path fill="none" stroke="black" d="M1313.44,-335.43C1313.44,-275.89 1313.44,-258.48 1313.44,-203.71"/>
<polygon fill="black" stroke="black" points="1316.94,-203.43 1313.44,-193.43 1309.94,-203.43 1316.94,-203.43"/>
</g>
<!-- /matrix_mult/multiply/product -->
<g id="node12" class="node">
<title>/matrix_mult/multiply/product</title>
<ellipse fill="none" stroke="black" cx="643.44" cy="-174.43" rx="150.57" ry="18"/>
<text text-anchor="middle" x="643.44" y="-170.73" font-family="Times,serif" font-size="14.00">/matrix_mult/multiply/product</text>
</g>
<!-- /matrix_mult/multiply/product&#45;&gt;/matrix_mult/print -->
<g id="edge5" class="edge">
<title>/matrix_mult/multiply/product:s&#45;&gt;/matrix_mult/print:w</title>
<path fill="none" stroke="black" d="M643.44,-155.43C643.44,-105.14 596.03,-43.22 632.09,-34.3"/>
<polygon fill="black" stroke="black" points="632.86,-37.74 642.44,-33.21 632.13,-30.78 632.86,-37.74"/>
</g>
</g>
</svg>
