<?xml version="1.0" encoding="UTF-8" standalone="no"?>
<!DOCTYPE svg PUBLIC "-//W3C//DTD SVG 1.1//EN"
 "http://www.w3.org/Graphics/SVG/1.1/DTD/svg11.dtd">
<!-- Generated by graphviz version 2.43.0 (0)
 -->
<!-- Title: matrix_mult Pages: 1 -->
<svg width="2007pt" height="377pt"
 viewBox="28.80 28.80 1977.87 347.80" xmlns="http://www.w3.org/2000/svg" xmlns:xlink="http://www.w3.org/1999/xlink">
<g id="graph0" class="graph" transform="scale(1 1) rotate(0) translate(32.8 343.8)">
<title>matrix_mult</title>
<polygon fill="white" stroke="transparent" points="-4,4 -4,-315 1945.07,-315 1945.07,4 -4,4"/>
<text text-anchor="middle" x="970.53" y="-295.8" font-family="Times,serif" font-size="14.00">matrix_mult</text>
<!-- /matrix_mult/readline -->
<g id="node1" class="node">
<title>/matrix_mult/readline</title>
<g id="a_node1"><a xlink:href="../../flowr/src/bin/flowrcli/cli/stdio/readline.html" xlink:title="readline">
<polygon fill="black" stroke="black" points="487.74,-23.56 427.74,-36 367.73,-23.56 367.78,-3.44 487.69,-3.44 487.74,-23.56"/>
<text text-anchor="middle" x="427.74" y="-14.3" font-family="Times,serif" font-size="14.00" fill="white">readline</text>
</a>
</g>
</g>
<!-- /matrix_mult/select_0/value -->
<g id="node7" class="node">
<title>/matrix_mult/select_0/value</title>
<ellipse fill="none" stroke="black" cx="487.74" cy="-90" rx="138.38" ry="18"/>
<text text-anchor="middle" x="487.74" y="-86.3" font-family="Times,serif" font-size="14.00">/matrix_mult/select_0/value</text>
</g>
<!-- /matrix_mult/readline&#45;&gt;/matrix_mult/select_0/value -->
<g id="edge2" class="edge">
<title>/matrix_mult/readline:e&#45;&gt;/matrix_mult/select_0/value:n</title>
<path fill="none" stroke="black" d="M488.74,-18C521.55,-18 607.69,-44.88 626.17,-72 635.18,-85.22 637.45,-96.65 626.17,-108 617.03,-117.21 524.76,-122.54 496.15,-114.74"/>
<polygon fill="black" stroke="black" points="497.97,-111.75 487.74,-109 494.02,-117.53 497.97,-111.75"/>
<text text-anchor="middle" x="504.12" y="-21.8" font-family="Times,serif" font-size="14.00">json</text>
</g>
<!-- /matrix_mult/select_1/value -->
<g id="node8" class="node">
<title>/matrix_mult/select_1/value</title>
<ellipse fill="none" stroke="black" cx="782.74" cy="-90" rx="138.38" ry="18"/>
<text text-anchor="middle" x="782.74" y="-86.3" font-family="Times,serif" font-size="14.00">/matrix_mult/select_1/value</text>
</g>
<!-- /matrix_mult/readline&#45;&gt;/matrix_mult/select_1/value -->
<g id="edge3" class="edge">
<title>/matrix_mult/readline:e&#45;&gt;/matrix_mult/select_1/value:n</title>
<path fill="none" stroke="black" d="M488.74,-18C537.16,-18 889.13,-35.7 921.17,-72 931.76,-83.99 932.45,-96.65 921.17,-108 912.03,-117.21 819.76,-122.54 791.15,-114.74"/>
<polygon fill="black" stroke="black" points="792.97,-111.75 782.74,-109 789.02,-117.53 792.97,-111.75"/>
<text text-anchor="middle" x="623.11" y="-29.3" font-family="Times,serif" font-size="14.00">json</text>
</g>
<!-- initializer/matrix_mult/readline_0 -->
<!-- initializer/matrix_mult/readline_0&#45;&gt;/matrix_mult/readline -->
<g id="edge1" class="edge">
<title>initializer/matrix_mult/readline_0&#45;&gt;/matrix_mult/readline:n</title>
<path fill="none" stroke="blue" d="M276.09,-76.53C335.66,-68.5 401.08,-57.14 421.38,-44.09"/>
<polygon fill="blue" stroke="blue" points="424.31,-46.03 427.74,-36 418.81,-41.7 424.31,-46.03"/>
<text text-anchor="middle" x="269.09" y="-65.33" font-family="Times,serif" font-size="14.00">&quot;&quot;</text>
</g>
<!-- /matrix_mult/select_0 -->
<g id="node3" class="node">
<title>/matrix_mult/select_0</title>
<g id="a_node3"><a xlink:href="../../../../../.flow/lib/flowstdlib/control/index_f.toml.dot.svg" xlink:title="select_0">
<ellipse fill="aquamarine" stroke="black" cx="783.74" cy="-216" rx="72" ry="72"/>
<text text-anchor="middle" x="783.74" y="-212.3" font-family="Times,serif" font-size="14.00">select_0</text>
</a>
</g>
</g>
<!-- /matrix_mult/select_1 -->
<g id="node4" class="node">
<title>/matrix_mult/select_1</title>
<g id="a_node4"><a xlink:href="../../../../../.flow/lib/flowstdlib/control/index_f.toml.dot.svg" xlink:title="select_1">
<ellipse fill="aquamarine" stroke="black" cx="945.74" cy="-216" rx="72" ry="72"/>
<text text-anchor="middle" x="945.74" y="-212.3" font-family="Times,serif" font-size="14.00">select_1</text>
</a>
</g>
</g>
<!-- /matrix_mult/multiply -->
<g id="node5" class="node">
<title>/matrix_mult/multiply</title>
<g id="a_node5"><a xlink:href="multiply.toml.dot.svg" xlink:title="multiply">
<ellipse fill="aquamarine" stroke="black" cx="1107.74" cy="-216" rx="72" ry="72"/>
<text text-anchor="middle" x="1107.74" y="-212.3" font-family="Times,serif" font-size="14.00">multiply</text>
</a>
</g>
</g>
<!-- /matrix_mult/stdout -->
<g id="node6" class="node">
<title>/matrix_mult/stdout</title>
<g id="a_node6"><a xlink:href="../../flowr/src/bin/flowrcli/cli/stdio/stdout.html" xlink:title="stdout">
<polygon fill="black" stroke="black" points="1189.35,-23.56 1139.74,-36 1090.12,-23.56 1090.16,-3.44 1189.31,-3.44 1189.35,-23.56"/>
<text text-anchor="middle" x="1139.74" y="-14.3" font-family="Times,serif" font-size="14.00" fill="white">stdout</text>
</a>
</g>
</g>
<!-- /matrix_mult/select_0/selected_value -->
<g id="node9" class="node">
<title>/matrix_mult/select_0/selected_value</title>
<ellipse fill="none" stroke="black" cx="1378.74" cy="-216" rx="181.17" ry="18"/>
<text text-anchor="middle" x="1378.74" y="-212.3" font-family="Times,serif" font-size="14.00">/matrix_mult/select_0/selected_value</text>
</g>
<!-- /matrix_mult/multiply/a -->
<g id="node10" class="node">
<title>/matrix_mult/multiply/a</title>
<ellipse fill="none" stroke="black" cx="1378.74" cy="-90" rx="120.48" ry="18"/>
<text text-anchor="middle" x="1378.74" y="-86.3" font-family="Times,serif" font-size="14.00">/matrix_mult/multiply/a</text>
</g>
<!-- /matrix_mult/select_0/selected_value&#45;&gt;/matrix_mult/multiply/a -->
<g id="edge4" class="edge">
<title>/matrix_mult/select_0/selected_value:s&#45;&gt;/matrix_mult/multiply/a:n</title>
<path fill="none" stroke="black" d="M1378.74,-197C1378.74,-161.15 1378.74,-149.67 1378.74,-118.39"/>
<polygon fill="black" stroke="black" points="1382.24,-118 1378.74,-108 1375.24,-118 1382.24,-118"/>
</g>
<!-- /matrix_mult/select_1/selected_value -->
<g id="node11" class="node">
<title>/matrix_mult/select_1/selected_value</title>
<ellipse fill="none" stroke="black" cx="1759.74" cy="-216" rx="181.17" ry="18"/>
<text text-anchor="middle" x="1759.74" y="-212.3" font-family="Times,serif" font-size="14.00">/matrix_mult/select_1/selected_value</text>
</g>
<!-- /matrix_mult/multiply/b -->
<g id="node12" class="node">
<title>/matrix_mult/multiply/b</title>
<ellipse fill="none" stroke="black" cx="1759.74" cy="-90" rx="120.48" ry="18"/>
<text text-anchor="middle" x="1759.74" y="-86.3" font-family="Times,serif" font-size="14.00">/matrix_mult/multiply/b</text>
</g>
<!-- /matrix_mult/select_1/selected_value&#45;&gt;/matrix_mult/multiply/b -->
<g id="edge5" class="edge">
<title>/matrix_mult/select_1/selected_value:s&#45;&gt;/matrix_mult/multiply/b:n</title>
<path fill="none" stroke="black" d="M1759.74,-197C1759.74,-161.15 1759.74,-149.67 1759.74,-118.39"/>
<polygon fill="black" stroke="black" points="1763.24,-118 1759.74,-108 1756.24,-118 1763.24,-118"/>
</g>
<!-- /matrix_mult/multiply/product -->
<g id="node13" class="node">
<title>/matrix_mult/multiply/product</title>
<ellipse fill="none" stroke="black" cx="1089.74" cy="-90" rx="150.57" ry="18"/>
<text text-anchor="middle" x="1089.74" y="-86.3" font-family="Times,serif" font-size="14.00">/matrix_mult/multiply/product</text>
</g>
<!-- /matrix_mult/multiply/product&#45;&gt;/matrix_mult/stdout -->
<g id="edge6" class="edge">
<title>/matrix_mult/multiply/product:s&#45;&gt;/matrix_mult/stdout:w</title>
<path fill="none" stroke="black" d="M1089.74,-72C1089.74,-53.06 1074.17,-30.39 1079.39,-21.67"/>
<polygon fill="black" stroke="black" points="1080.7,-24.91 1088.74,-18 1078.15,-18.39 1080.7,-24.91"/>
</g>
</g>
</svg>
