<?xml version="1.0" encoding="UTF-8" standalone="no"?>
<!DOCTYPE svg PUBLIC "-//W3C//DTD SVG 1.1//EN"
 "http://www.w3.org/Graphics/SVG/1.1/DTD/svg11.dtd">
<!-- Generated by graphviz version 2.43.0 (0)
 -->
<!-- Title: matrix_mult Pages: 1 -->
<svg width="1133pt" height="466pt"
 viewBox="28.80 28.80 1104.29 437.54" xmlns="http://www.w3.org/2000/svg" xmlns:xlink="http://www.w3.org/1999/xlink">
<g id="graph0" class="graph" transform="scale(1 1) rotate(0) translate(32.8 433.54)">
<title>matrix_mult</title>
<polygon fill="white" stroke="transparent" points="-4,4 -4,-404.74 1071.49,-404.74 1071.49,4 -4,4"/>
<text text-anchor="middle" x="533.74" y="-385.54" font-family="Times,serif" font-size="14.00">matrix_mult</text>
<!-- /matrix_mult/readline -->
<g id="node1" class="node">
<title>/matrix_mult/readline</title>
<g id="a_node1"><a xlink:href="../../../flowr/src/cli/stdio/readline.html" xlink:title="readline">
<ellipse fill="coral" stroke="black" cx="48.75" cy="-305.74" rx="48.99" ry="18"/>
<text text-anchor="middle" x="48.75" y="-302.04" font-family="Times,serif" font-size="14.00">readline</text>
</a>
</g>
</g>
<!-- /matrix_mult/select_0 -->
<g id="node2" class="node">
<title>/matrix_mult/select_0</title>
<g id="a_node2"><a xlink:href="lib://flowstdlib/control/index_f.dot.svg" xlink:title="select_0">
<ellipse fill="aquamarine" stroke="black" cx="187.75" cy="-305.74" rx="72" ry="72"/>
<text text-anchor="middle" x="187.75" y="-302.04" font-family="Times,serif" font-size="14.00">select_0</text>
</a>
</g>
</g>
<!-- /matrix_mult/select_1 -->
<g id="node3" class="node">
<title>/matrix_mult/select_1</title>
<g id="a_node3"><a xlink:href="lib://flowstdlib/control/index_f.dot.svg" xlink:title="select_1">
<ellipse fill="aquamarine" stroke="black" cx="349.75" cy="-305.74" rx="72" ry="72"/>
<text text-anchor="middle" x="349.75" y="-302.04" font-family="Times,serif" font-size="14.00">select_1</text>
</a>
</g>
</g>
<!-- /matrix_mult/multiply -->
<g id="node4" class="node">
<title>/matrix_mult/multiply</title>
<g id="a_node4"><a xlink:href="multiply.dot.svg" xlink:title="multiply">
<ellipse fill="aquamarine" stroke="black" cx="511.75" cy="-305.74" rx="72" ry="72"/>
<text text-anchor="middle" x="511.75" y="-302.04" font-family="Times,serif" font-size="14.00">multiply</text>
</a>
</g>
</g>
<!-- /matrix_mult/print -->
<g id="node5" class="node">
<title>/matrix_mult/print</title>
<g id="a_node5"><a xlink:href="../../../flowr/src/cli/stdio/stdout.html" xlink:title="print\n(stdout)">
<ellipse fill="coral" stroke="black" cx="882.75" cy="-26.87" rx="51.74" ry="26.74"/>
<text text-anchor="middle" x="882.75" y="-30.67" font-family="Times,serif" font-size="14.00">print</text>
<text text-anchor="middle" x="882.75" y="-15.67" font-family="Times,serif" font-size="14.00">(stdout)</text>
</a>
</g>
</g>
<!-- /matrix_mult/readline/ -->
<g id="node6" class="node">
<title>/matrix_mult/readline/</title>
<ellipse fill="none" stroke="black" cx="715.75" cy="-305.74" rx="114.28" ry="18"/>
<text text-anchor="middle" x="715.75" y="-302.04" font-family="Times,serif" font-size="14.00">/matrix_mult/readline/</text>
</g>
<!-- /matrix_mult/select_0/ -->
<g id="node7" class="node">
<title>/matrix_mult/select_0/</title>
<ellipse fill="none" stroke="black" cx="708.75" cy="-179.74" rx="113.98" ry="18"/>
<text text-anchor="middle" x="708.75" y="-176.04" font-family="Times,serif" font-size="14.00">/matrix_mult/select_0/</text>
</g>
<!-- /matrix_mult/readline/&#45;&gt;/matrix_mult/select_0/ -->
<g id="edge1" class="edge">
<title>/matrix_mult/readline/:e&#45;&gt;/matrix_mult/select_0/:n</title>
<path fill="none" stroke="black" d="M831.75,-305.74C839.76,-305.74 834.55,-294.79 830.75,-287.74 800.47,-231.7 718.41,-261.4 709.53,-207.89"/>
<polygon fill="black" stroke="black" points="713,-207.44 708.75,-197.74 706.03,-207.98 713,-207.44"/>
<text text-anchor="middle" x="756.13" y="-252.92" font-family="Times,serif" font-size="14.00">json</text>
<text text-anchor="middle" x="689.25" y="-201.54" font-family="Times,serif" font-size="14.00">value</text>
</g>
<!-- /matrix_mult/select_1/ -->
<g id="node8" class="node">
<title>/matrix_mult/select_1/</title>
<ellipse fill="none" stroke="black" cx="953.75" cy="-179.74" rx="113.98" ry="18"/>
<text text-anchor="middle" x="953.75" y="-176.04" font-family="Times,serif" font-size="14.00">/matrix_mult/select_1/</text>
</g>
<!-- /matrix_mult/readline/&#45;&gt;/matrix_mult/select_1/ -->
<g id="edge2" class="edge">
<title>/matrix_mult/readline/:e&#45;&gt;/matrix_mult/select_1/:n</title>
<path fill="none" stroke="black" d="M831.75,-305.74C900.63,-305.74 948.85,-273.55 953.39,-208.08"/>
<polygon fill="black" stroke="black" points="956.9,-207.85 953.75,-197.74 949.91,-207.62 956.9,-207.85"/>
<text text-anchor="middle" x="901.82" y="-285.17" font-family="Times,serif" font-size="14.00">json</text>
<text text-anchor="middle" x="934.25" y="-201.54" font-family="Times,serif" font-size="14.00">value</text>
</g>
<!-- /matrix_mult/multiply/ -->
<g id="node9" class="node">
<title>/matrix_mult/multiply/</title>
<ellipse fill="none" stroke="black" cx="830.75" cy="-107.74" rx="114.28" ry="18"/>
<text text-anchor="middle" x="830.75" y="-104.04" font-family="Times,serif" font-size="14.00">/matrix_mult/multiply/</text>
</g>
<!-- /matrix_mult/select_0/&#45;&gt;/matrix_mult/multiply/ -->
<g id="edge3" class="edge">
<title>/matrix_mult/select_0/:s&#45;&gt;/matrix_mult/multiply/:n</title>
<path fill="none" stroke="black" d="M708.75,-161.74C708.75,-109.18 814.19,-172.1 829.02,-135.78"/>
<polygon fill="black" stroke="black" points="832.5,-136.19 830.75,-125.74 825.6,-135 832.5,-136.19"/>
<text text-anchor="middle" x="717.13" y="-147.52" font-family="Times,serif" font-size="14.00">selected_value</text>
<text text-anchor="middle" x="826.25" y="-129.54" font-family="Times,serif" font-size="14.00">a</text>
</g>
<!-- /matrix_mult/select_1/&#45;&gt;/matrix_mult/multiply/ -->
<g id="edge4" class="edge">
<title>/matrix_mult/select_1/:s&#45;&gt;/matrix_mult/multiply/:n</title>
<path fill="none" stroke="black" d="M953.75,-161.74C953.75,-108.79 847.43,-172.41 832.48,-135.85"/>
<polygon fill="black" stroke="black" points="835.89,-135 830.75,-125.74 828.99,-136.19 835.89,-135"/>
<text text-anchor="middle" x="839.87" y="-147.52" font-family="Times,serif" font-size="14.00">selected_value</text>
<text text-anchor="middle" x="835.75" y="-129.54" font-family="Times,serif" font-size="14.00">b</text>
</g>
<!-- /matrix_mult/multiply/&#45;&gt;/matrix_mult/print -->
<g id="edge5" class="edge">
<title>/matrix_mult/multiply/:s&#45;&gt;/matrix_mult/print:w</title>
<path fill="none" stroke="black" d="M830.75,-89.74C830.75,-66.6 810.89,-38.67 819.94,-29.75"/>
<polygon fill="black" stroke="black" points="821.14,-33.05 829.75,-26.87 819.16,-26.33 821.14,-33.05"/>
<text text-anchor="middle" x="793.94" y="-58.18" font-family="Times,serif" font-size="14.00">product</text>
</g>
</g>
</svg>
