<?xml version="1.0" encoding="UTF-8" standalone="no"?>
<!DOCTYPE svg PUBLIC "-//W3C//DTD SVG 1.1//EN"
 "http://www.w3.org/Graphics/SVG/1.1/DTD/svg11.dtd">
<!-- Generated by graphviz version 2.44.1 (20200629.0846)
 -->
<!-- Title: pipeline Pages: 1 -->
<svg width="583pt" height="742pt"
 viewBox="28.80 28.80 554.58 713.50" xmlns="http://www.w3.org/2000/svg" xmlns:xlink="http://www.w3.org/1999/xlink">
<g id="graph0" class="graph" transform="scale(1 1) rotate(0) translate(32.8 709.5)">
<title>pipeline</title>
<polygon fill="white" stroke="transparent" points="-4,4 -4,-680.7 521.78,-680.7 521.78,4 -4,4"/>
<text text-anchor="middle" x="258.89" y="-661.5" font-family="Times,serif" font-size="14.00">pipeline</text>
<!-- /pipeline/range -->
<g id="node1" class="node">
<title>/pipeline/range</title>
<g id="a_node1"><a xlink:href="lib://flowstdlib/math/sequence.dot.svg" xlink:title="range">
<ellipse fill="aquamarine" stroke="black" cx="296.34" cy="-581.7" rx="72" ry="72"/>
<text text-anchor="middle" x="296.34" y="-578" font-family="Times,serif" font-size="14.00">range</text>
</a>
</g>
</g>
<!-- /pipeline/add1 -->
<g id="node2" class="node">
<title>/pipeline/add1</title>
<g id="a_node2"><a xlink:href="../../flowstdlib/math/add/add.html" xlink:title="add1\n(add)">
<ellipse fill="coral" stroke="black" cx="205.34" cy="-431.83" rx="31.64" ry="26.74"/>
<text text-anchor="middle" x="205.34" y="-435.63" font-family="Times,serif" font-size="14.00">add1</text>
<text text-anchor="middle" x="205.34" y="-420.63" font-family="Times,serif" font-size="14.00">(add)</text>
</a>
</g>
</g>
<!-- /pipeline/range&#45;&gt;/pipeline/add1 -->
<g id="edge5" class="edge">
<title>/pipeline/range:s&#45;&gt;/pipeline/add1:ne</title>
<path fill="none" stroke="black" d="M296.34,-509.7C296.34,-473.47 261.67,-480.23 234.22,-460.51"/>
<polygon fill="black" stroke="black" points="236.23,-457.63 226.34,-453.83 231.71,-462.97 236.23,-457.63"/>
<text text-anchor="middle" x="239.03" y="-478.31" font-family="Times,serif" font-size="14.00">sequence</text>
<text text-anchor="middle" x="231.84" y="-457.63" font-family="Times,serif" font-size="14.00">i1</text>
</g>
<!-- /pipeline/divide2 -->
<g id="node4" class="node">
<title>/pipeline/divide2</title>
<g id="a_node4"><a xlink:href="../../flowstdlib/math/divide/divide.html" xlink:title="divide2\n(divide)">
<ellipse fill="coral" stroke="black" cx="308.34" cy="-327.09" rx="41.94" ry="26.74"/>
<text text-anchor="middle" x="308.34" y="-330.89" font-family="Times,serif" font-size="14.00">divide2</text>
<text text-anchor="middle" x="308.34" y="-315.89" font-family="Times,serif" font-size="14.00">(divide)</text>
</a>
</g>
</g>
<!-- /pipeline/add1&#45;&gt;/pipeline/divide2 -->
<g id="edge6" class="edge">
<title>/pipeline/add1:sw&#45;&gt;/pipeline/divide2:w</title>
<path fill="none" stroke="black" d="M184.34,-409.83C155.45,-380.94 234.16,-387.6 257.34,-353.96 261.21,-348.35 259.51,-340.84 259.22,-335.19"/>
<polygon fill="black" stroke="black" points="262.1,-337.18 265.34,-327.09 256.52,-332.95 262.1,-337.18"/>
<text text-anchor="middle" x="215.26" y="-378.66" font-family="Times,serif" font-size="14.00">sum</text>
<text text-anchor="middle" x="241.34" y="-330.89" font-family="Times,serif" font-size="14.00">dividend</text>
</g>
<!-- initializer/pipeline/add1_1 -->
<!-- initializer/pipeline/add1_1&#45;&gt;/pipeline/add1 -->
<g id="edge1" class="edge">
<title>initializer/pipeline/add1_1&#45;&gt;/pipeline/add1:w</title>
<path fill="none" stroke="blue" d="M103.57,-563.62C105.01,-526.96 113.62,-443.21 162.1,-432.88"/>
<polygon fill="blue" stroke="blue" points="162.75,-436.33 172.34,-431.83 162.04,-429.37 162.75,-436.33"/>
<text text-anchor="middle" x="120.84" y="-480.5" font-family="Times,serif" font-size="14.00">1</text>
</g>
<!-- /pipeline/add2 -->
<g id="node6" class="node">
<title>/pipeline/add2</title>
<g id="a_node6"><a xlink:href="../../flowstdlib/math/add/add.html" xlink:title="add2\n(add)">
<ellipse fill="coral" stroke="black" cx="243.34" cy="-222.35" rx="31.64" ry="26.74"/>
<text text-anchor="middle" x="243.34" y="-226.15" font-family="Times,serif" font-size="14.00">add2</text>
<text text-anchor="middle" x="243.34" y="-211.15" font-family="Times,serif" font-size="14.00">(add)</text>
</a>
</g>
</g>
<!-- /pipeline/divide2&#45;&gt;/pipeline/add2 -->
<g id="edge7" class="edge">
<title>/pipeline/divide2:se&#45;&gt;/pipeline/add2:ne</title>
<path fill="none" stroke="black" d="M331.34,-303.09C356.94,-277.49 303.16,-273.01 272.34,-251.04"/>
<polygon fill="black" stroke="black" points="274.26,-248.08 264.34,-244.35 269.76,-253.45 274.26,-248.08"/>
<text text-anchor="middle" x="285.6" y="-269.91" font-family="Times,serif" font-size="14.00">result</text>
<text text-anchor="middle" x="269.84" y="-248.15" font-family="Times,serif" font-size="14.00">i1</text>
</g>
<!-- initializer/pipeline/divide2_1 -->
<!-- initializer/pipeline/divide2_1&#45;&gt;/pipeline/divide2 -->
<g id="edge2" class="edge">
<title>initializer/pipeline/divide2_1&#45;&gt;/pipeline/divide2:nw</title>
<path fill="none" stroke="blue" d="M331.33,-414.78C303.96,-400.77 272.18,-379.61 279.62,-359.58"/>
<polygon fill="blue" stroke="blue" points="282.66,-361.34 285.34,-351.09 276.85,-357.43 282.66,-361.34"/>
<text text-anchor="middle" x="291.84" y="-375.76" font-family="Times,serif" font-size="14.00">2</text>
</g>
<!-- /pipeline/divide4 -->
<g id="node8" class="node">
<title>/pipeline/divide4</title>
<g id="a_node8"><a xlink:href="../../flowstdlib/math/divide/divide.html" xlink:title="divide4\n(divide)">
<ellipse fill="coral" stroke="black" cx="387.34" cy="-117.61" rx="41.94" ry="26.74"/>
<text text-anchor="middle" x="387.34" y="-121.41" font-family="Times,serif" font-size="14.00">divide4</text>
<text text-anchor="middle" x="387.34" y="-106.41" font-family="Times,serif" font-size="14.00">(divide)</text>
</a>
</g>
</g>
<!-- /pipeline/add2&#45;&gt;/pipeline/divide4 -->
<g id="edge8" class="edge">
<title>/pipeline/add2:sw&#45;&gt;/pipeline/divide4:w</title>
<path fill="none" stroke="black" d="M222.34,-200.35C178.37,-156.38 268.77,-121.33 334.1,-117.89"/>
<polygon fill="black" stroke="black" points="334.44,-121.38 344.34,-117.61 334.25,-114.38 334.44,-121.38"/>
<text text-anchor="middle" x="262.23" y="-132.28" font-family="Times,serif" font-size="14.00">sum</text>
<text text-anchor="middle" x="320.34" y="-121.41" font-family="Times,serif" font-size="14.00">dividend</text>
</g>
<!-- initializer/pipeline/add2_1 -->
<!-- initializer/pipeline/add2_1&#45;&gt;/pipeline/add2 -->
<g id="edge3" class="edge">
<title>initializer/pipeline/add2_1&#45;&gt;/pipeline/add2:w</title>
<path fill="none" stroke="blue" d="M148.02,-308.96C153.2,-282.14 167.12,-232.4 200.03,-223.67"/>
<polygon fill="blue" stroke="blue" points="200.87,-227.09 210.34,-222.35 199.98,-220.15 200.87,-227.09"/>
<text text-anchor="middle" x="162.84" y="-271.02" font-family="Times,serif" font-size="14.00">2</text>
</g>
<!-- /pipeline/print -->
<g id="node10" class="node">
<title>/pipeline/print</title>
<g id="a_node10"><a xlink:href="../../flowr/src/lib/flowruntime/stdio/stdout.html" xlink:title="print\n(stdout)">
<ellipse fill="coral" stroke="black" cx="452.34" cy="-26.87" rx="41.94" ry="26.74"/>
<text text-anchor="middle" x="452.34" y="-30.67" font-family="Times,serif" font-size="14.00">print</text>
<text text-anchor="middle" x="452.34" y="-15.67" font-family="Times,serif" font-size="14.00">(stdout)</text>
</a>
</g>
</g>
<!-- /pipeline/divide4&#45;&gt;/pipeline/print -->
<g id="edge9" class="edge">
<title>/pipeline/divide4:se&#45;&gt;/pipeline/print:w</title>
<path fill="none" stroke="black" d="M410.34,-93.61C427.38,-76.57 396.49,-43.16 400.21,-31.23"/>
<polygon fill="black" stroke="black" points="401.83,-34.34 409.34,-26.87 398.81,-28.02 401.83,-34.34"/>
<text text-anchor="middle" x="394.53" y="-63.74" font-family="Times,serif" font-size="14.00">result</text>
</g>
<!-- initializer/pipeline/divide4_1 -->
<!-- initializer/pipeline/divide4_1&#45;&gt;/pipeline/divide4 -->
<g id="edge4" class="edge">
<title>initializer/pipeline/divide4_1&#45;&gt;/pipeline/divide4:nw</title>
<path fill="none" stroke="blue" d="M385.94,-204.53C370.6,-189.58 352.71,-167.48 358.82,-150.16"/>
<polygon fill="blue" stroke="blue" points="361.86,-151.91 364.34,-141.61 355.98,-148.11 361.86,-151.91"/>
<text text-anchor="middle" x="365.84" y="-166.28" font-family="Times,serif" font-size="14.00">2</text>
</g>
</g>
</svg>
