<?xml version="1.0" encoding="UTF-8" standalone="no"?>
<!DOCTYPE svg PUBLIC "-//W3C//DTD SVG 1.1//EN"
 "http://www.w3.org/Graphics/SVG/1.1/DTD/svg11.dtd">
<!-- Generated by graphviz version 2.44.0 (20200408.0750)
 -->
<!-- Title: pipeline Pages: 1 -->
<svg width="592pt" height="742pt"
 viewBox="28.80 28.80 563.58 713.50" xmlns="http://www.w3.org/2000/svg" xmlns:xlink="http://www.w3.org/1999/xlink">
<g id="graph0" class="graph" transform="scale(1 1) rotate(0) translate(32.8 709.5)">
<title>pipeline</title>
<polygon fill="white" stroke="transparent" points="-4,4 -4,-680.7 530.78,-680.7 530.78,4 -4,4"/>
<text text-anchor="middle" x="263.39" y="-661.5" font-family="Times,serif" font-size="14.00">pipeline</text>
<!-- /pipeline/range -->
<g id="node1" class="node">
<title>/pipeline/range</title>
<g id="a_node1"><a xlink:href="../../flowstdlib/math/sequence.dot.svg" xlink:title="range">
<ellipse fill="aquamarine" stroke="black" cx="296.34" cy="-581.7" rx="72" ry="72"/>
<text text-anchor="middle" x="296.34" y="-578" font-family="Times,serif" font-size="14.00">range</text>
</a>
</g>
</g>
<!-- /pipeline/add1 -->
<g id="node2" class="node">
<title>/pipeline/add1</title>
<g id="a_node2"><a xlink:href="../../flowstdlib/math/add/add.html" xlink:title="add1\n(Add)">
<ellipse fill="coral" stroke="black" cx="207.34" cy="-431.83" rx="34.8" ry="26.74"/>
<text text-anchor="middle" x="207.34" y="-435.63" font-family="Times,serif" font-size="14.00">add1</text>
<text text-anchor="middle" x="207.34" y="-420.63" font-family="Times,serif" font-size="14.00">(Add)</text>
</a>
</g>
</g>
<!-- /pipeline/range&#45;&gt;/pipeline/add1 -->
<g id="edge5" class="edge">
<title>/pipeline/range:s&#45;&gt;/pipeline/add1:ne</title>
<path fill="none" stroke="black" d="M296.34,-509.7C296.34,-474.1 262.92,-479.93 236.06,-460.42"/>
<polygon fill="black" stroke="black" points="238.22,-457.66 228.34,-453.83 233.68,-462.98 238.22,-457.66"/>
<text text-anchor="middle" x="240.09" y="-478.3" font-family="Times,serif" font-size="14.00">sequence</text>
<text text-anchor="middle" x="222.84" y="-457.63" font-family="Times,serif" font-size="14.00">i1</text>
</g>
<!-- /pipeline/divide2 -->
<g id="node4" class="node">
<title>/pipeline/divide2</title>
<g id="a_node4"><a xlink:href="../../flowstdlib/math/divide/divide.html" xlink:title="divide2\n(Divide)">
<ellipse fill="coral" stroke="black" cx="313.34" cy="-327.09" rx="43.68" ry="26.74"/>
<text text-anchor="middle" x="313.34" y="-330.89" font-family="Times,serif" font-size="14.00">divide2</text>
<text text-anchor="middle" x="313.34" y="-315.89" font-family="Times,serif" font-size="14.00">(Divide)</text>
</a>
</g>
</g>
<!-- /pipeline/add1&#45;&gt;/pipeline/divide2 -->
<g id="edge6" class="edge">
<title>/pipeline/add1:sw&#45;&gt;/pipeline/divide2:w</title>
<path fill="none" stroke="black" d="M186.34,-409.83C157.2,-380.69 236.84,-387.82 260.34,-353.96 264.23,-348.36 262.53,-340.85 262.23,-335.19"/>
<polygon fill="black" stroke="black" points="265.11,-337.18 268.34,-327.09 259.52,-332.97 265.11,-337.18"/>
<text text-anchor="middle" x="217.87" y="-378.71" font-family="Times,serif" font-size="14.00">sum</text>
<text text-anchor="middle" x="244.34" y="-330.89" font-family="Times,serif" font-size="14.00">dividend</text>
</g>
<!-- initializer/pipeline/add1_1 -->
<!-- initializer/pipeline/add1_1&#45;&gt;/pipeline/add1 -->
<g id="edge1" class="edge">
<title>initializer/pipeline/add1_1&#45;&gt;/pipeline/add1:w</title>
<path fill="none" stroke="blue" d="M103.48,-563.62C104.71,-526.96 112.83,-443.21 161.13,-432.88"/>
<polygon fill="blue" stroke="blue" points="161.75,-436.34 171.34,-431.83 161.04,-429.37 161.75,-436.34"/>
<text text-anchor="middle" x="120.84" y="-480.5" font-family="Times,serif" font-size="14.00">1</text>
</g>
<!-- /pipeline/add2 -->
<g id="node6" class="node">
<title>/pipeline/add2</title>
<g id="a_node6"><a xlink:href="../../flowstdlib/math/add/add.html" xlink:title="add2\n(Add)">
<ellipse fill="coral" stroke="black" cx="249.34" cy="-222.35" rx="34.8" ry="26.74"/>
<text text-anchor="middle" x="249.34" y="-226.15" font-family="Times,serif" font-size="14.00">add2</text>
<text text-anchor="middle" x="249.34" y="-211.15" font-family="Times,serif" font-size="14.00">(Add)</text>
</a>
</g>
</g>
<!-- /pipeline/divide2&#45;&gt;/pipeline/add2 -->
<g id="edge7" class="edge">
<title>/pipeline/divide2:se&#45;&gt;/pipeline/add2:ne</title>
<path fill="none" stroke="black" d="M336.34,-303.09C361.72,-277.71 308.76,-272.85 278.26,-251"/>
<polygon fill="black" stroke="black" points="280.25,-248.1 270.34,-244.35 275.75,-253.46 280.25,-248.1"/>
<text text-anchor="middle" x="291.17" y="-269.86" font-family="Times,serif" font-size="14.00">result</text>
<text text-anchor="middle" x="264.84" y="-248.15" font-family="Times,serif" font-size="14.00">i1</text>
</g>
<!-- initializer/pipeline/divide2_1 -->
<!-- initializer/pipeline/divide2_1&#45;&gt;/pipeline/divide2 -->
<g id="edge2" class="edge">
<title>initializer/pipeline/divide2_1&#45;&gt;/pipeline/divide2:nw</title>
<path fill="none" stroke="blue" d="M336.33,-414.78C308.96,-400.77 277.18,-379.61 284.62,-359.58"/>
<polygon fill="blue" stroke="blue" points="287.66,-361.34 290.34,-351.09 281.85,-357.43 287.66,-361.34"/>
<text text-anchor="middle" x="296.84" y="-375.76" font-family="Times,serif" font-size="14.00">2</text>
</g>
<!-- /pipeline/divide4 -->
<g id="node8" class="node">
<title>/pipeline/divide4</title>
<g id="a_node8"><a xlink:href="../../flowstdlib/math/divide/divide.html" xlink:title="divide4\n(Divide)">
<ellipse fill="coral" stroke="black" cx="395.34" cy="-117.61" rx="43.68" ry="26.74"/>
<text text-anchor="middle" x="395.34" y="-121.41" font-family="Times,serif" font-size="14.00">divide4</text>
<text text-anchor="middle" x="395.34" y="-106.41" font-family="Times,serif" font-size="14.00">(Divide)</text>
</a>
</g>
</g>
<!-- /pipeline/add2&#45;&gt;/pipeline/divide4 -->
<g id="edge8" class="edge">
<title>/pipeline/add2:sw&#45;&gt;/pipeline/divide4:w</title>
<path fill="none" stroke="black" d="M228.34,-200.35C184.37,-156.38 274.77,-121.33 340.1,-117.89"/>
<polygon fill="black" stroke="black" points="340.44,-121.38 350.34,-117.61 340.25,-114.38 340.44,-121.38"/>
<text text-anchor="middle" x="268.23" y="-132.28" font-family="Times,serif" font-size="14.00">sum</text>
<text text-anchor="middle" x="326.34" y="-121.41" font-family="Times,serif" font-size="14.00">dividend</text>
</g>
<!-- initializer/pipeline/add2_1 -->
<!-- initializer/pipeline/add2_1&#45;&gt;/pipeline/add2 -->
<g id="edge3" class="edge">
<title>initializer/pipeline/add2_1&#45;&gt;/pipeline/add2:w</title>
<path fill="none" stroke="blue" d="M151.02,-308.96C156.2,-282.14 170.12,-232.4 203.03,-223.67"/>
<polygon fill="blue" stroke="blue" points="203.87,-227.09 213.34,-222.35 202.98,-220.15 203.87,-227.09"/>
<text text-anchor="middle" x="165.84" y="-271.02" font-family="Times,serif" font-size="14.00">2</text>
</g>
<!-- /pipeline/print -->
<g id="node10" class="node">
<title>/pipeline/print</title>
<g id="a_node10"><a xlink:href="../../flowruntime/stdio/stdout.html" xlink:title="print\n(Stdout)">
<ellipse fill="coral" stroke="black" cx="462.34" cy="-26.87" rx="43.27" ry="26.74"/>
<text text-anchor="middle" x="462.34" y="-30.67" font-family="Times,serif" font-size="14.00">print</text>
<text text-anchor="middle" x="462.34" y="-15.67" font-family="Times,serif" font-size="14.00">(Stdout)</text>
</a>
</g>
</g>
<!-- /pipeline/divide4&#45;&gt;/pipeline/print -->
<g id="edge9" class="edge">
<title>/pipeline/divide4:se&#45;&gt;/pipeline/print:w</title>
<path fill="none" stroke="black" d="M418.34,-93.61C435.38,-76.57 404.49,-43.16 408.21,-31.23"/>
<polygon fill="black" stroke="black" points="409.83,-34.34 417.34,-26.87 406.81,-28.02 409.83,-34.34"/>
<text text-anchor="middle" x="402.53" y="-63.74" font-family="Times,serif" font-size="14.00">result</text>
</g>
<!-- initializer/pipeline/divide4_1 -->
<!-- initializer/pipeline/divide4_1&#45;&gt;/pipeline/divide4 -->
<g id="edge4" class="edge">
<title>initializer/pipeline/divide4_1&#45;&gt;/pipeline/divide4:nw</title>
<path fill="none" stroke="blue" d="M394.6,-204.57C378.99,-189.64 360.75,-167.56 366.81,-150.2"/>
<polygon fill="blue" stroke="blue" points="369.87,-151.91 372.34,-141.61 363.98,-148.12 369.87,-151.91"/>
<text text-anchor="middle" x="373.84" y="-166.28" font-family="Times,serif" font-size="14.00">2</text>
</g>
</g>
</svg>
