<?xml version="1.0" encoding="UTF-8" standalone="no"?>
<!DOCTYPE svg PUBLIC "-//W3C//DTD SVG 1.1//EN"
 "http://www.w3.org/Graphics/SVG/1.1/DTD/svg11.dtd">
<!-- Generated by graphviz version 2.42.4 (0)
 -->
<!-- Title: pipeline Pages: 1 -->
<svg width="751pt" height="742pt"
 viewBox="28.80 28.80 722.43 713.50" xmlns="http://www.w3.org/2000/svg" xmlns:xlink="http://www.w3.org/1999/xlink">
<g id="graph0" class="graph" transform="scale(1 1) rotate(0) translate(32.8 709.5)">
<title>pipeline</title>
<polygon fill="white" stroke="transparent" points="-4,4 -4,-680.7 689.63,-680.7 689.63,4 -4,4"/>
<text text-anchor="middle" x="342.81" y="-661.5" font-family="Times,serif" font-size="14.00">pipeline</text>
<!-- /pipeline/range -->
<g id="node1" class="node">
<title>/pipeline/range</title>
<g id="a_node1"><a xlink:href="../../flowstdlib/math/sequence.dot.svg" xlink:title="range">
<ellipse fill="aquamarine" stroke="black" cx="352.29" cy="-581.7" rx="72" ry="72"/>
<text text-anchor="middle" x="352.29" y="-578" font-family="Times,serif" font-size="14.00">range</text>
</a>
</g>
</g>
<!-- /pipeline/add1 -->
<g id="node2" class="node">
<title>/pipeline/add1</title>
<g id="a_node2"><a xlink:href="../../flowstdlib/math/add/add.html" xlink:title="add1\n(Add)">
<ellipse fill="coral" stroke="black" cx="250.29" cy="-431.83" rx="38.78" ry="26.74"/>
<text text-anchor="middle" x="250.29" y="-435.63" font-family="Times,serif" font-size="14.00">add1</text>
<text text-anchor="middle" x="250.29" y="-420.63" font-family="Times,serif" font-size="14.00">(Add)</text>
</a>
</g>
</g>
<!-- /pipeline/range&#45;&gt;/pipeline/add1 -->
<g id="edge5" class="edge">
<title>/pipeline/range:s&#45;&gt;/pipeline/add1:ne</title>
<path fill="none" stroke="black" d="M352.29,-509.7C352.29,-470.12 310.57,-482.66 280.14,-461.4"/>
<polygon fill="black" stroke="black" points="282.2,-458.57 272.29,-454.83 277.71,-463.93 282.2,-458.57"/>
<text text-anchor="middle" x="280.61" y="-478.82" font-family="Times,serif" font-size="14.00">sequence</text>
<text text-anchor="middle" x="265.29" y="-458.63" font-family="Times,serif" font-size="14.00">i1</text>
</g>
<!-- /pipeline/divide2 -->
<g id="node4" class="node">
<title>/pipeline/divide2</title>
<g id="a_node4"><a xlink:href="../../flowstdlib/math/divide/divide.html" xlink:title="divide2\n(Divide)">
<ellipse fill="coral" stroke="black" cx="424.29" cy="-327.09" rx="51.74" ry="26.74"/>
<text text-anchor="middle" x="424.29" y="-330.89" font-family="Times,serif" font-size="14.00">divide2</text>
<text text-anchor="middle" x="424.29" y="-315.89" font-family="Times,serif" font-size="14.00">(Divide)</text>
</a>
</g>
</g>
<!-- /pipeline/add1&#45;&gt;/pipeline/divide2 -->
<g id="edge6" class="edge">
<title>/pipeline/add1:sw&#45;&gt;/pipeline/divide2:w</title>
<path fill="none" stroke="black" d="M228.29,-408.83C182.49,-363.03 319.76,-401.92 363.29,-353.96 367.87,-348.91 366.1,-341.35 365.6,-335.53"/>
<polygon fill="black" stroke="black" points="368.61,-337.34 371.29,-327.09 362.8,-333.43 368.61,-337.34"/>
<text text-anchor="middle" x="285.76" y="-382.81" font-family="Times,serif" font-size="14.00">sum</text>
<text text-anchor="middle" x="340.29" y="-330.89" font-family="Times,serif" font-size="14.00">dividend</text>
</g>
<!-- initializer/pipeline/add1_1 -->
<!-- initializer/pipeline/add1_1&#45;&gt;/pipeline/add1 -->
<g id="edge1" class="edge">
<title>initializer/pipeline/add1_1&#45;&gt;/pipeline/add1:w</title>
<path fill="none" stroke="blue" d="M132.46,-563.62C135.94,-526.89 149.41,-442.86 200.03,-432.82"/>
<polygon fill="blue" stroke="blue" points="200.67,-436.27 210.29,-431.83 200,-429.3 200.67,-436.27"/>
<text text-anchor="middle" x="157.29" y="-480.5" font-family="Times,serif" font-size="14.00">1</text>
</g>
<!-- /pipeline/add2 -->
<g id="node6" class="node">
<title>/pipeline/add2</title>
<g id="a_node6"><a xlink:href="../../flowstdlib/math/add/add.html" xlink:title="add2\n(Add)">
<ellipse fill="coral" stroke="black" cx="344.29" cy="-222.35" rx="38.78" ry="26.74"/>
<text text-anchor="middle" x="344.29" y="-226.15" font-family="Times,serif" font-size="14.00">add2</text>
<text text-anchor="middle" x="344.29" y="-211.15" font-family="Times,serif" font-size="14.00">(Add)</text>
</a>
</g>
</g>
<!-- /pipeline/divide2&#45;&gt;/pipeline/add2 -->
<g id="edge7" class="edge">
<title>/pipeline/divide2:se&#45;&gt;/pipeline/add2:ne</title>
<path fill="none" stroke="black" d="M448.29,-302.09C477.3,-273.08 409.17,-276.01 374.04,-251.74"/>
<polygon fill="black" stroke="black" points="376.23,-249.01 366.29,-245.35 371.77,-254.41 376.23,-249.01"/>
<text text-anchor="middle" x="387.63" y="-271.04" font-family="Times,serif" font-size="14.00">result</text>
<text text-anchor="middle" x="359.29" y="-249.15" font-family="Times,serif" font-size="14.00">i1</text>
</g>
<!-- initializer/pipeline/divide2_1 -->
<!-- initializer/pipeline/divide2_1&#45;&gt;/pipeline/divide2 -->
<g id="edge2" class="edge">
<title>initializer/pipeline/divide2_1&#45;&gt;/pipeline/divide2:nw</title>
<path fill="none" stroke="blue" d="M426.48,-413.92C409.1,-399.37 389.03,-378.06 394.78,-360.73"/>
<polygon fill="blue" stroke="blue" points="397.86,-362.4 400.29,-352.09 391.96,-358.64 397.86,-362.4"/>
<text text-anchor="middle" x="405.29" y="-375.76" font-family="Times,serif" font-size="14.00">2</text>
</g>
<!-- /pipeline/divide4 -->
<g id="node8" class="node">
<title>/pipeline/divide4</title>
<g id="a_node8"><a xlink:href="../../flowstdlib/math/divide/divide.html" xlink:title="divide4\n(Divide)">
<ellipse fill="coral" stroke="black" cx="517.29" cy="-117.61" rx="51.74" ry="26.74"/>
<text text-anchor="middle" x="517.29" y="-121.41" font-family="Times,serif" font-size="14.00">divide4</text>
<text text-anchor="middle" x="517.29" y="-106.41" font-family="Times,serif" font-size="14.00">(Divide)</text>
</a>
</g>
</g>
<!-- /pipeline/add2&#45;&gt;/pipeline/divide4 -->
<g id="edge8" class="edge">
<title>/pipeline/add2:sw&#45;&gt;/pipeline/divide4:w</title>
<path fill="none" stroke="black" d="M322.29,-199.35C273.11,-150.17 380.97,-120.37 454.2,-117.79"/>
<polygon fill="black" stroke="black" points="454.35,-121.29 464.29,-117.61 454.23,-114.29 454.35,-121.29"/>
<text text-anchor="middle" x="370.24" y="-130.67" font-family="Times,serif" font-size="14.00">sum</text>
<text text-anchor="middle" x="433.29" y="-121.41" font-family="Times,serif" font-size="14.00">dividend</text>
</g>
<!-- initializer/pipeline/add2_1 -->
<!-- initializer/pipeline/add2_1&#45;&gt;/pipeline/add2 -->
<g id="edge3" class="edge">
<title>initializer/pipeline/add2_1&#45;&gt;/pipeline/add2:w</title>
<path fill="none" stroke="blue" d="M228.01,-308.96C236.52,-281.91 257.1,-231.54 294,-223.46"/>
<polygon fill="blue" stroke="blue" points="294.72,-226.9 304.29,-222.35 293.97,-219.94 294.72,-226.9"/>
<text text-anchor="middle" x="249.29" y="-271.02" font-family="Times,serif" font-size="14.00">2</text>
</g>
<!-- /pipeline/print -->
<g id="node10" class="node">
<title>/pipeline/print</title>
<g id="a_node10"><a xlink:href="../../flowruntime/stdio/stdout.html" xlink:title="print\n(Stdout)">
<ellipse fill="coral" stroke="black" cx="594.29" cy="-26.87" rx="53.07" ry="26.74"/>
<text text-anchor="middle" x="594.29" y="-30.67" font-family="Times,serif" font-size="14.00">print</text>
<text text-anchor="middle" x="594.29" y="-15.67" font-family="Times,serif" font-size="14.00">(Stdout)</text>
</a>
</g>
</g>
<!-- /pipeline/divide4&#45;&gt;/pipeline/print -->
<g id="edge9" class="edge">
<title>/pipeline/divide4:se&#45;&gt;/pipeline/print:w</title>
<path fill="none" stroke="black" d="M541.29,-92.61C557.92,-75.98 528.21,-43.55 531.2,-31.51"/>
<polygon fill="black" stroke="black" points="532.98,-34.54 540.29,-26.87 529.79,-28.3 532.98,-34.54"/>
<text text-anchor="middle" x="519.63" y="-63.59" font-family="Times,serif" font-size="14.00">result</text>
</g>
<!-- initializer/pipeline/divide4_1 -->
<!-- initializer/pipeline/divide4_1&#45;&gt;/pipeline/divide4 -->
<g id="edge4" class="edge">
<title>initializer/pipeline/divide4_1&#45;&gt;/pipeline/divide4:nw</title>
<path fill="none" stroke="blue" d="M520.13,-204.48C502.46,-189.97 482.05,-168.67 487.77,-151.29"/>
<polygon fill="blue" stroke="blue" points="490.87,-152.93 493.29,-142.61 484.97,-149.17 490.87,-152.93"/>
<text text-anchor="middle" x="498.29" y="-166.28" font-family="Times,serif" font-size="14.00">2</text>
</g>
</g>
</svg>
