<?xml version="1.0" encoding="UTF-8" standalone="no"?>
<!DOCTYPE svg PUBLIC "-//W3C//DTD SVG 1.1//EN"
 "http://www.w3.org/Graphics/SVG/1.1/DTD/svg11.dtd">
<!-- Generated by graphviz version 2.40.1 (0)
 -->
<!-- Title: pipeline Pages: 1 -->
<svg width="751pt" height="742pt"
 viewBox="28.80 28.80 722.43 713.50" xmlns="http://www.w3.org/2000/svg" xmlns:xlink="http://www.w3.org/1999/xlink">
<g id="graph0" class="graph" transform="scale(1 1) rotate(0) translate(32.8 709.5006)">
<title>pipeline</title>
<polygon fill="#ffffff" stroke="transparent" points="-4,4 -4,-680.7006 689.6257,-680.7006 689.6257,4 -4,4"/>
<text text-anchor="middle" x="342.8129" y="-661.5006" font-family="Times,serif" font-size="14.00" fill="#000000">pipeline</text>
<!-- /pipeline/range -->
<g id="node1" class="node">
<title>/pipeline/range</title>
<g id="a_node1"><a xlink:href="../../flowstdlib/math/sequence.dot.svg" xlink:title="range">
<ellipse fill="#7fffd4" stroke="#000000" cx="352.2884" cy="-581.7006" rx="72" ry="72"/>
<text text-anchor="middle" x="352.2884" y="-578.0006" font-family="Times,serif" font-size="14.00" fill="#000000">range</text>
</a>
</g>
</g>
<!-- /pipeline/add1 -->
<g id="node2" class="node">
<title>/pipeline/add1</title>
<g id="a_node2"><a xlink:href="../../flowstdlib/math/add/add.toml" xlink:title="add1\n(Add)">
<ellipse fill="#ff7f50" stroke="#000000" cx="250.2884" cy="-431.8305" rx="38.7821" ry="26.7407"/>
<text text-anchor="middle" x="250.2884" y="-435.6305" font-family="Times,serif" font-size="14.00" fill="#000000">add1</text>
<text text-anchor="middle" x="250.2884" y="-420.6305" font-family="Times,serif" font-size="14.00" fill="#000000">(Add)</text>
</a>
</g>
</g>
<!-- /pipeline/range&#45;&gt;/pipeline/add1 -->
<g id="edge5" class="edge">
<title>/pipeline/range:s&#45;&gt;/pipeline/add1:ne</title>
<path fill="none" stroke="#000000" d="M352.2884,-509.7006C352.2884,-469.8901 310.7161,-481.9304 280.1743,-460.4524"/>
<polygon fill="#000000" stroke="#000000" points="282.1973,-457.5807 272.2884,-453.8305 277.6959,-462.9415 282.1973,-457.5807"/>
<text text-anchor="middle" x="280.6906" y="-478.1862" font-family="Times,serif" font-size="14.00" fill="#000000">sequence</text>
<text text-anchor="middle" x="265.2884" y="-457.6305" font-family="Times,serif" font-size="14.00" fill="#000000">i1</text>
</g>
<!-- /pipeline/divide2 -->
<g id="node4" class="node">
<title>/pipeline/divide2</title>
<g id="a_node4"><a xlink:href="../../flowstdlib/math/divide/divide.toml" xlink:title="divide2\n(Divide)">
<ellipse fill="#ff7f50" stroke="#000000" cx="424.2884" cy="-327.0904" rx="51.7379" ry="26.7407"/>
<text text-anchor="middle" x="424.2884" y="-330.8904" font-family="Times,serif" font-size="14.00" fill="#000000">divide2</text>
<text text-anchor="middle" x="424.2884" y="-315.8904" font-family="Times,serif" font-size="14.00" fill="#000000">(Divide)</text>
</a>
</g>
</g>
<!-- /pipeline/add1&#45;&gt;/pipeline/divide2 -->
<g id="edge6" class="edge">
<title>/pipeline/add1:sw&#45;&gt;/pipeline/divide2:w</title>
<path fill="none" stroke="#000000" d="M228.2884,-409.8305C182.3722,-363.9144 318.9878,-401.4373 363.2884,-353.9605 368.1215,-348.7808 366.38,-340.9264 366.1727,-335.0452"/>
<polygon fill="#000000" stroke="#000000" points="368.9682,-337.1516 372.2884,-327.0904 363.4186,-332.8851 368.9682,-337.1516"/>
<text text-anchor="middle" x="286.2771" y="-382.6946" font-family="Times,serif" font-size="14.00" fill="#000000">sum</text>
<text text-anchor="middle" x="341.2884" y="-330.8904" font-family="Times,serif" font-size="14.00" fill="#000000">dividend</text>
</g>
<!-- initializer/pipeline/add1_1 -->
<!-- initializer/pipeline/add1_1&#45;&gt;/pipeline/add1 -->
<g id="edge1" class="edge">
<title>initializer/pipeline/add1_1&#45;&gt;/pipeline/add1:w</title>
<path fill="none" stroke="#0000ff" d="M132.6,-563.6227C136.3343,-526.1753 150.3091,-442.7719 201.0189,-432.8096"/>
<polygon fill="#0000ff" stroke="#0000ff" points="201.6657,-436.2639 211.2884,-431.8305 201.0013,-429.2955 201.6657,-436.2639"/>
<text text-anchor="middle" x="158.2884" y="-480.5006" font-family="Times,serif" font-size="14.00" fill="#000000">1</text>
</g>
<!-- /pipeline/add2 -->
<g id="node6" class="node">
<title>/pipeline/add2</title>
<g id="a_node6"><a xlink:href="../../flowstdlib/math/add/add.toml" xlink:title="add2\n(Add)">
<ellipse fill="#ff7f50" stroke="#000000" cx="344.2884" cy="-222.3503" rx="38.7821" ry="26.7407"/>
<text text-anchor="middle" x="344.2884" y="-226.1503" font-family="Times,serif" font-size="14.00" fill="#000000">add2</text>
<text text-anchor="middle" x="344.2884" y="-211.1503" font-family="Times,serif" font-size="14.00" fill="#000000">(Add)</text>
</a>
</g>
</g>
<!-- /pipeline/divide2&#45;&gt;/pipeline/add2 -->
<g id="edge7" class="edge">
<title>/pipeline/divide2:se&#45;&gt;/pipeline/add2:ne</title>
<path fill="none" stroke="#000000" d="M448.2884,-303.0904C477.6355,-273.7433 409.5337,-275.5587 374.1107,-250.8373"/>
<polygon fill="#000000" stroke="#000000" points="376.2201,-248.0397 366.2884,-244.3503 371.7516,-253.4279 376.2201,-248.0397"/>
<text text-anchor="middle" x="387.8684" y="-270.6502" font-family="Times,serif" font-size="14.00" fill="#000000">result</text>
<text text-anchor="middle" x="359.2884" y="-248.1503" font-family="Times,serif" font-size="14.00" fill="#000000">i1</text>
</g>
<!-- initializer/pipeline/divide2_1 -->
<!-- initializer/pipeline/divide2_1&#45;&gt;/pipeline/divide2 -->
<g id="edge2" class="edge">
<title>initializer/pipeline/divide2_1&#45;&gt;/pipeline/divide2:nw</title>
<path fill="none" stroke="#0000ff" d="M425.5746,-413.7795C408.2416,-398.8152 388.7241,-377.2457 394.6956,-359.788"/>
<polygon fill="#0000ff" stroke="#0000ff" points="397.8237,-361.3946 400.2884,-351.0904 391.9359,-357.6086 397.8237,-361.3946"/>
<text text-anchor="middle" x="404.2884" y="-375.7605" font-family="Times,serif" font-size="14.00" fill="#000000">2</text>
</g>
<!-- /pipeline/divide4 -->
<g id="node8" class="node">
<title>/pipeline/divide4</title>
<g id="a_node8"><a xlink:href="../../flowstdlib/math/divide/divide.toml" xlink:title="divide4\n(Divide)">
<ellipse fill="#ff7f50" stroke="#000000" cx="517.2884" cy="-117.6102" rx="51.7379" ry="26.7407"/>
<text text-anchor="middle" x="517.2884" y="-121.4102" font-family="Times,serif" font-size="14.00" fill="#000000">divide4</text>
<text text-anchor="middle" x="517.2884" y="-106.4102" font-family="Times,serif" font-size="14.00" fill="#000000">(Divide)</text>
</a>
</g>
</g>
<!-- /pipeline/add2&#45;&gt;/pipeline/divide4 -->
<g id="edge8" class="edge">
<title>/pipeline/add2:sw&#45;&gt;/pipeline/divide4:w</title>
<path fill="none" stroke="#000000" d="M322.2884,-200.3503C272.6997,-150.7616 381.2954,-120.4217 455.1219,-117.7959"/>
<polygon fill="#000000" stroke="#000000" points="455.354,-121.2923 465.2884,-117.6102 455.2261,-114.2935 455.354,-121.2923"/>
<text text-anchor="middle" x="370.6345" y="-130.827" font-family="Times,serif" font-size="14.00" fill="#000000">sum</text>
<text text-anchor="middle" x="434.2884" y="-121.4102" font-family="Times,serif" font-size="14.00" fill="#000000">dividend</text>
</g>
<!-- initializer/pipeline/add2_1 -->
<!-- initializer/pipeline/add2_1&#45;&gt;/pipeline/add2 -->
<g id="edge3" class="edge">
<title>initializer/pipeline/add2_1&#45;&gt;/pipeline/add2:w</title>
<path fill="none" stroke="#0000ff" d="M228.3817,-308.8461C237.2112,-281.299 258.0514,-231.4395 294.9955,-223.4448"/>
<polygon fill="#0000ff" stroke="#0000ff" points="295.7145,-226.8882 305.2884,-222.3503 294.9743,-219.9274 295.7145,-226.8882"/>
<text text-anchor="middle" x="250.2884" y="-271.0203" font-family="Times,serif" font-size="14.00" fill="#000000">2</text>
</g>
<!-- /pipeline/print -->
<g id="node10" class="node">
<title>/pipeline/print</title>
<g id="a_node10"><a xlink:href="../../flowruntime/stdio/stdout.toml" xlink:title="print\n(Stdout)">
<ellipse fill="#ff7f50" stroke="#000000" cx="594.2884" cy="-26.8701" rx="53.066" ry="26.7407"/>
<text text-anchor="middle" x="594.2884" y="-30.6701" font-family="Times,serif" font-size="14.00" fill="#000000">print</text>
<text text-anchor="middle" x="594.2884" y="-15.6701" font-family="Times,serif" font-size="14.00" fill="#000000">(Stdout)</text>
</a>
</g>
</g>
<!-- /pipeline/divide4&#45;&gt;/pipeline/print -->
<g id="edge9" class="edge">
<title>/pipeline/divide4:se&#45;&gt;/pipeline/print:w</title>
<path fill="none" stroke="#000000" d="M541.2884,-93.6102C558.33,-76.5685 528.0973,-43.1606 532.071,-31.2318"/>
<polygon fill="#000000" stroke="#000000" points="533.7464,-34.3111 541.2884,-26.8701 530.7522,-27.9838 533.7464,-34.3111"/>
<text text-anchor="middle" x="519.8478" y="-63.7429" font-family="Times,serif" font-size="14.00" fill="#000000">result</text>
</g>
<!-- initializer/pipeline/divide4_1 -->
<!-- initializer/pipeline/divide4_1&#45;&gt;/pipeline/divide4 -->
<g id="edge4" class="edge">
<title>initializer/pipeline/divide4_1&#45;&gt;/pipeline/divide4:nw</title>
<path fill="none" stroke="#0000ff" d="M519.2088,-204.3432C501.5984,-189.4073 481.7421,-167.8599 487.6821,-150.3453"/>
<polygon fill="#0000ff" stroke="#0000ff" points="490.8325,-151.9165 493.2884,-141.6102 484.9414,-148.1355 490.8325,-151.9165"/>
<text text-anchor="middle" x="498.2884" y="-166.2802" font-family="Times,serif" font-size="14.00" fill="#000000">2</text>
</g>
</g>
</svg>
