<?xml version="1.0" encoding="UTF-8" standalone="no"?>
<!DOCTYPE svg PUBLIC "-//W3C//DTD SVG 1.1//EN"
 "http://www.w3.org/Graphics/SVG/1.1/DTD/svg11.dtd">
<!-- Generated by graphviz version 2.40.1 (20161225.0304)
 -->
<!-- Title: pipeline Pages: 1 -->
<svg width="750pt" height="742pt"
 viewBox="28.80 28.80 720.73 713.50" xmlns="http://www.w3.org/2000/svg" xmlns:xlink="http://www.w3.org/1999/xlink">
<g id="graph0" class="graph" transform="scale(1 1) rotate(0) translate(32.8 709.5006)">
<title>pipeline</title>
<polygon fill="#ffffff" stroke="transparent" points="-4,4 -4,-680.7006 687.9256,-680.7006 687.9256,4 -4,4"/>
<text text-anchor="middle" x="341.9628" y="-661.5006" font-family="Times,serif" font-size="14.00" fill="#000000">pipeline</text>
<!-- /pipeline/range -->
<g id="node1" class="node">
<title>/pipeline/range</title>
<g id="a_node1"><a xlink:href="lib://flowstdlib/math/sequence.dot.svg" xlink:title="range">
<ellipse fill="#7fffd4" stroke="#000000" cx="353.9383" cy="-581.7006" rx="72" ry="72"/>
<text text-anchor="middle" x="353.9383" y="-578.0006" font-family="Times,serif" font-size="14.00" fill="#000000">range</text>
</a>
</g>
</g>
<!-- /pipeline/add1 -->
<g id="node2" class="node">
<title>/pipeline/add1</title>
<g id="a_node2"><a xlink:href="../../flowstdlib/math/add/add.html" xlink:title="add1\n(add)">
<ellipse fill="#ff7f50" stroke="#000000" cx="250.9383" cy="-431.8305" rx="37.4533" ry="26.7407"/>
<text text-anchor="middle" x="250.9383" y="-435.6305" font-family="Times,serif" font-size="14.00" fill="#000000">add1</text>
<text text-anchor="middle" x="250.9383" y="-420.6305" font-family="Times,serif" font-size="14.00" fill="#000000">(add)</text>
</a>
</g>
</g>
<!-- /pipeline/range&#45;&gt;/pipeline/add1 -->
<g id="edge5" class="edge">
<title>/pipeline/range:s&#45;&gt;/pipeline/add1:ne</title>
<path fill="none" stroke="#000000" d="M353.9383,-509.7006C353.9383,-469.5549 311.7409,-482.093 280.8969,-460.4991"/>
<polygon fill="#000000" stroke="#000000" points="282.8511,-457.5704 272.9383,-453.8305 278.3553,-462.9358 282.8511,-457.5704"/>
<text text-anchor="middle" x="281.3105" y="-478.1905" font-family="Times,serif" font-size="14.00" fill="#000000">sequence</text>
<text text-anchor="middle" x="265.9383" y="-457.6305" font-family="Times,serif" font-size="14.00" fill="#000000">i1</text>
</g>
<!-- /pipeline/divide2 -->
<g id="node4" class="node">
<title>/pipeline/divide2</title>
<g id="a_node4"><a xlink:href="../../flowstdlib/math/divide/divide.html" xlink:title="divide2\n(divide)">
<ellipse fill="#ff7f50" stroke="#000000" cx="422.9383" cy="-327.0904" rx="50.41" ry="26.7407"/>
<text text-anchor="middle" x="422.9383" y="-330.8904" font-family="Times,serif" font-size="14.00" fill="#000000">divide2</text>
<text text-anchor="middle" x="422.9383" y="-315.8904" font-family="Times,serif" font-size="14.00" fill="#000000">(divide)</text>
</a>
</g>
</g>
<!-- /pipeline/add1&#45;&gt;/pipeline/divide2 -->
<g id="edge6" class="edge">
<title>/pipeline/add1:sw&#45;&gt;/pipeline/divide2:w</title>
<path fill="none" stroke="#000000" d="M228.9383,-409.8305C183.0221,-363.9144 319.6378,-401.4373 363.9383,-353.9605 368.7714,-348.7808 367.03,-340.9264 366.8227,-335.0452"/>
<polygon fill="#000000" stroke="#000000" points="369.6181,-337.1516 372.9383,-327.0904 364.0686,-332.8851 369.6181,-337.1516"/>
<text text-anchor="middle" x="286.927" y="-382.6946" font-family="Times,serif" font-size="14.00" fill="#000000">sum</text>
<text text-anchor="middle" x="388.4383" y="-315.8904" font-family="Times,serif" font-size="14.00" fill="#000000">dividend</text>
</g>
<!-- initializer/pipeline/add1_1 -->
<!-- initializer/pipeline/add1_1&#45;&gt;/pipeline/add1 -->
<g id="edge1" class="edge">
<title>initializer/pipeline/add1_1&#45;&gt;/pipeline/add1:w</title>
<path fill="none" stroke="#0000ff" d="M133.3473,-563.6227C137.2945,-526.0975 151.7925,-442.425 202.9531,-432.7484"/>
<polygon fill="#0000ff" stroke="#0000ff" points="203.3007,-436.2313 212.9383,-431.8305 202.6599,-429.2607 203.3007,-436.2313"/>
<text text-anchor="middle" x="158.9383" y="-480.5006" font-family="Times,serif" font-size="14.00" fill="#000000">1</text>
</g>
<!-- /pipeline/add2 -->
<g id="node6" class="node">
<title>/pipeline/add2</title>
<g id="a_node6"><a xlink:href="../../flowstdlib/math/add/add.html" xlink:title="add2\n(add)">
<ellipse fill="#ff7f50" stroke="#000000" cx="342.9383" cy="-222.3503" rx="37.4533" ry="26.7407"/>
<text text-anchor="middle" x="342.9383" y="-226.1503" font-family="Times,serif" font-size="14.00" fill="#000000">add2</text>
<text text-anchor="middle" x="342.9383" y="-211.1503" font-family="Times,serif" font-size="14.00" fill="#000000">(add)</text>
</a>
</g>
</g>
<!-- /pipeline/divide2&#45;&gt;/pipeline/add2 -->
<g id="edge7" class="edge">
<title>/pipeline/divide2:se&#45;&gt;/pipeline/add2:ne</title>
<path fill="none" stroke="#000000" d="M446.9383,-303.0904C476.2854,-273.7433 408.1837,-275.5587 372.7606,-250.8373"/>
<polygon fill="#000000" stroke="#000000" points="374.87,-248.0397 364.9383,-244.3503 370.4016,-253.4279 374.87,-248.0397"/>
<text text-anchor="middle" x="386.5184" y="-270.6502" font-family="Times,serif" font-size="14.00" fill="#000000">result</text>
<text text-anchor="middle" x="357.9383" y="-248.1503" font-family="Times,serif" font-size="14.00" fill="#000000">i1</text>
</g>
<!-- initializer/pipeline/divide2_1 -->
<!-- initializer/pipeline/divide2_1&#45;&gt;/pipeline/divide2 -->
<g id="edge2" class="edge">
<title>initializer/pipeline/divide2_1&#45;&gt;/pipeline/divide2:nw</title>
<path fill="none" stroke="#0000ff" d="M424.8587,-413.8235C407.2483,-398.8875 387.392,-377.3402 393.3321,-359.8255"/>
<polygon fill="#0000ff" stroke="#0000ff" points="396.4825,-361.3967 398.9383,-351.0904 390.5914,-357.6157 396.4825,-361.3967"/>
<text text-anchor="middle" x="403.9383" y="-375.7605" font-family="Times,serif" font-size="14.00" fill="#000000">2</text>
</g>
<!-- /pipeline/divide4 -->
<g id="node8" class="node">
<title>/pipeline/divide4</title>
<g id="a_node8"><a xlink:href="../../flowstdlib/math/divide/divide.html" xlink:title="divide4\n(divide)">
<ellipse fill="#ff7f50" stroke="#000000" cx="514.9383" cy="-117.6102" rx="50.41" ry="26.7407"/>
<text text-anchor="middle" x="514.9383" y="-121.4102" font-family="Times,serif" font-size="14.00" fill="#000000">divide4</text>
<text text-anchor="middle" x="514.9383" y="-106.4102" font-family="Times,serif" font-size="14.00" fill="#000000">(divide)</text>
</a>
</g>
</g>
<!-- /pipeline/add2&#45;&gt;/pipeline/divide4 -->
<g id="edge8" class="edge">
<title>/pipeline/add2:sw&#45;&gt;/pipeline/divide4:w</title>
<path fill="none" stroke="#000000" d="M320.9383,-200.3503C271.0896,-150.5016 380.4829,-120.3983 454.7171,-117.7943"/>
<polygon fill="#000000" stroke="#000000" points="455.003,-121.2898 464.9383,-117.6102 454.8768,-114.2909 455.003,-121.2898"/>
<text text-anchor="middle" x="369.8074" y="-130.7688" font-family="Times,serif" font-size="14.00" fill="#000000">sum</text>
<text text-anchor="middle" x="433.9383" y="-121.4102" font-family="Times,serif" font-size="14.00" fill="#000000">dividend</text>
</g>
<!-- initializer/pipeline/add2_1 -->
<!-- initializer/pipeline/add2_1&#45;&gt;/pipeline/add2 -->
<g id="edge3" class="edge">
<title>initializer/pipeline/add2_1&#45;&gt;/pipeline/add2:w</title>
<path fill="none" stroke="#0000ff" d="M228.0316,-308.8461C236.8611,-281.299 257.7013,-231.4395 294.6454,-223.4448"/>
<polygon fill="#0000ff" stroke="#0000ff" points="295.3645,-226.8882 304.9383,-222.3503 294.6242,-219.9274 295.3645,-226.8882"/>
<text text-anchor="middle" x="249.9383" y="-271.0203" font-family="Times,serif" font-size="14.00" fill="#000000">2</text>
</g>
<!-- /pipeline/print -->
<g id="node10" class="node">
<title>/pipeline/print</title>
<g id="a_node10"><a xlink:href="../../flowr/src/lib/flowruntime/stdio/stdout.html" xlink:title="print\n(stdout)">
<ellipse fill="#ff7f50" stroke="#000000" cx="590.9383" cy="-26.8701" rx="51.7379" ry="26.7407"/>
<text text-anchor="middle" x="590.9383" y="-30.6701" font-family="Times,serif" font-size="14.00" fill="#000000">print</text>
<text text-anchor="middle" x="590.9383" y="-15.6701" font-family="Times,serif" font-size="14.00" fill="#000000">(stdout)</text>
</a>
</g>
</g>
<!-- /pipeline/divide4&#45;&gt;/pipeline/print -->
<g id="edge9" class="edge">
<title>/pipeline/divide4:se&#45;&gt;/pipeline/print:w</title>
<path fill="none" stroke="#000000" d="M538.9383,-93.6102C555.98,-76.5685 525.7472,-43.1606 529.7209,-31.2318"/>
<polygon fill="#000000" stroke="#000000" points="531.3963,-34.3111 538.9383,-26.8701 528.4022,-27.9838 531.3963,-34.3111"/>
<text text-anchor="middle" x="517.4978" y="-63.7429" font-family="Times,serif" font-size="14.00" fill="#000000">result</text>
</g>
<!-- initializer/pipeline/divide4_1 -->
<!-- initializer/pipeline/divide4_1&#45;&gt;/pipeline/divide4 -->
<g id="edge4" class="edge">
<title>initializer/pipeline/divide4_1&#45;&gt;/pipeline/divide4:nw</title>
<path fill="none" stroke="#0000ff" d="M516.8587,-204.3432C499.2483,-189.4073 479.392,-167.8599 485.3321,-150.3453"/>
<polygon fill="#0000ff" stroke="#0000ff" points="488.4825,-151.9165 490.9383,-141.6102 482.5914,-148.1355 488.4825,-151.9165"/>
<text text-anchor="middle" x="495.9383" y="-166.2802" font-family="Times,serif" font-size="14.00" fill="#000000">2</text>
</g>
</g>
</svg>
