<?xml version="1.0" encoding="UTF-8" standalone="no"?>
<!DOCTYPE svg PUBLIC "-//W3C//DTD SVG 1.1//EN"
 "http://www.w3.org/Graphics/SVG/1.1/DTD/svg11.dtd">
<!-- Generated by graphviz version 2.42.3 (20191010.1750)
 -->
<!-- Title: pipeline Pages: 1 -->
<svg width="741pt" height="607pt"
 viewBox="0.00 0.00 740.69 607.00" xmlns="http://www.w3.org/2000/svg" xmlns:xlink="http://www.w3.org/1999/xlink">
<g id="graph0" class="graph" transform="scale(1 1) rotate(0) translate(4 603)">
<title>pipeline</title>
<polygon fill="white" stroke="transparent" points="-4,4 -4,-603 736.69,-603 736.69,4 -4,4"/>
<text text-anchor="middle" x="366.35" y="-583.8" font-family="Times,serif" font-size="14.00">/pipeline</text>
<g id="clust1" class="cluster">
<title>cluster_range</title>
<polygon fill="none" stroke="black" points="345.2,-323 345.2,-569 686.2,-569 686.2,-323 345.2,-323"/>
<text text-anchor="middle" x="515.7" y="-553.8" font-family="Times,serif" font-size="14.00">/pipeline/range</text>
</g>
<!-- r0 -->
<g id="node1" class="node">
<title>r0</title>
<g id="a_node1"><a xlink:href="compare" xlink:title="compare (#0)">
<ellipse fill="coral" stroke="black" cx="603.2" cy="-435" rx="57.49" ry="18"/>
<text text-anchor="middle" x="603.2" y="-430.8" font-family="Times,serif" font-size="14.00">compare (#0)</text>
</a>
</g>
</g>
<!-- r0&#45;&gt;r0 -->
<g id="edge4" class="edge">
<title>r0:s&#45;&gt;r0:n</title>
<path fill="none" stroke="black" d="M603.2,-417C646.37,-406.5 732.69,-406.5 732.69,-435 732.69,-461.44 658.39,-463.35 613.19,-455.11"/>
<polygon fill="black" stroke="black" points="613.71,-451.64 603.2,-453 612.26,-458.49 613.71,-451.64"/>
<text text-anchor="middle" x="593.87" y="-455.8" font-family="Times,serif" font-size="14.00">left</text>
<text text-anchor="middle" x="584.15" y="-405.8" font-family="Times,serif" font-size="14.00">/left&#45;gt</text>
</g>
<!-- r2 -->
<g id="node4" class="node">
<title>r2</title>
<g id="a_node4"><a xlink:href="add1" xlink:title="add1 (#2)">
<ellipse fill="coral" stroke="black" cx="443.2" cy="-349" rx="44.48" ry="18"/>
<text text-anchor="middle" x="443.2" y="-344.8" font-family="Times,serif" font-size="14.00">add1 (#2)</text>
</a>
</g>
</g>
<!-- r0&#45;&gt;r2 -->
<g id="edge3" class="edge">
<title>r0:e&#45;&gt;r2:n</title>
<path fill="none" stroke="black" d="M662.2,-435C670.21,-435 666.37,-423.13 661.2,-417 657.71,-412.85 494.15,-382.57 452.68,-370.82"/>
<polygon fill="black" stroke="black" points="453.78,-367.49 443.2,-367 451.17,-373.98 453.78,-367.49"/>
<text text-anchor="middle" x="437.76" y="-369.8" font-family="Times,serif" font-size="14.00">i1</text>
<text text-anchor="middle" x="686.69" y="-437.8" font-family="Times,serif" font-size="14.00">/right&#45;lte</text>
</g>
<!-- r1 -->
<g id="node5" class="node">
<title>r1</title>
<g id="a_node5"><a xlink:href="add" xlink:title="add (#1)">
<ellipse fill="coral" stroke="black" cx="604.2" cy="-349" rx="39.64" ry="18"/>
<text text-anchor="middle" x="604.2" y="-344.8" font-family="Times,serif" font-size="14.00">add (#1)</text>
</a>
</g>
</g>
<!-- r0&#45;&gt;r1 -->
<g id="edge5" class="edge">
<title>r0:e&#45;&gt;r1:n</title>
<path fill="none" stroke="black" d="M662.2,-435C670.21,-435 665.95,-423.46 661.2,-417 647.71,-398.64 628.62,-415.78 613.2,-399 605.86,-391.01 604.45,-385.47 604.21,-377.23"/>
<polygon fill="black" stroke="black" points="607.71,-377 604.2,-367 600.71,-377 607.71,-377"/>
<text text-anchor="middle" x="598.76" y="-369.8" font-family="Times,serif" font-size="14.00">i1</text>
<text text-anchor="middle" x="683.59" y="-423.8" font-family="Times,serif" font-size="14.00">/right&#45;lt</text>
</g>
<!-- initializerr0_0 -->
<!-- initializerr0_0&#45;&gt;r0 -->
<g id="edge1" class="edge">
<title>initializerr0_0&#45;&gt;r0:ne</title>
<path fill="none" stroke="blue" stroke-dasharray="1,5" d="M624.85,-502.9C628.62,-490.61 631.57,-474.05 625.93,-461.4"/>
<polygon fill="blue" stroke="blue" points="628.73,-459.29 620.2,-453 622.95,-463.23 628.73,-459.29"/>
<text text-anchor="middle" x="635.2" y="-473.8" font-family="Times,serif" font-size="14.00">20</text>
</g>
<!-- initializerr0_1 -->
<!-- initializerr0_1&#45;&gt;r0 -->
<g id="edge2" class="edge">
<title>initializerr0_1&#45;&gt;r0:ne</title>
<path fill="none" stroke="blue" stroke-dasharray="1,5" d="M470.59,-508.72C519.21,-495.95 593.16,-475.16 614.88,-461.57"/>
<polygon fill="blue" stroke="blue" points="617.9,-463.34 620.2,-453 611.95,-459.65 617.9,-463.34"/>
<text text-anchor="middle" x="597.7" y="-473.8" font-family="Times,serif" font-size="14.00">1</text>
</g>
<!-- r3 -->
<g id="node8" class="node">
<title>r3</title>
<g id="a_node8"><a xlink:href="divide2" xlink:title="divide2 (#3)">
<ellipse fill="coral" stroke="black" cx="336.2" cy="-263" rx="53.65" ry="18"/>
<text text-anchor="middle" x="336.2" y="-258.8" font-family="Times,serif" font-size="14.00">divide2 (#3)</text>
</a>
</g>
</g>
<!-- r2&#45;&gt;r3 -->
<g id="edge10" class="edge">
<title>r2:se&#45;&gt;r3:n</title>
<path fill="none" stroke="black" d="M460.2,-331C499.59,-291.61 356.14,-334.36 338.06,-290.89"/>
<polygon fill="black" stroke="black" points="341.48,-290.18 336.2,-281 334.6,-291.47 341.48,-290.18"/>
<text text-anchor="middle" x="311.7" y="-283.8" font-family="Times,serif" font-size="14.00">dividend</text>
<text text-anchor="middle" x="446.59" y="-319.8" font-family="Times,serif" font-size="14.00">/sum</text>
</g>
<!-- r1&#45;&gt;r0 -->
<g id="edge8" class="edge">
<title>r1:se&#45;&gt;r0:ne</title>
<path fill="none" stroke="black" d="M620.2,-332C660,-292.2 700,-411.71 660.69,-452 656.18,-456.63 640.52,-458.41 629.71,-456.68"/>
<polygon fill="black" stroke="black" points="630.79,-453.35 620.2,-453 628.26,-459.87 630.79,-453.35"/>
<text text-anchor="middle" x="633.42" y="-455.8" font-family="Times,serif" font-size="14.00">right</text>
<text text-anchor="middle" x="633.81" y="-320.8" font-family="Times,serif" font-size="14.00">/sum</text>
</g>
<!-- r1&#45;&gt;r1 -->
<g id="edge7" class="edge">
<title>r1:se&#45;&gt;r1:ne</title>
<path fill="none" stroke="black" d="M620.2,-333C657.47,-322.5 716.02,-322.5 716.02,-349 716.02,-373.22 667.1,-375.3 630.23,-367.46"/>
<polygon fill="black" stroke="black" points="630.75,-363.99 620.2,-365 629.08,-370.78 630.75,-363.99"/>
<text text-anchor="middle" x="625.65" y="-367.8" font-family="Times,serif" font-size="14.00">i2</text>
<text text-anchor="middle" x="612.81" y="-321.8" font-family="Times,serif" font-size="14.00">/i2</text>
</g>
<!-- initializerr1_1 -->
<!-- initializerr1_1&#45;&gt;r1 -->
<g id="edge6" class="edge">
<title>initializerr1_1&#45;&gt;r1:w</title>
<path fill="none" stroke="blue" stroke-dasharray="1,5" d="M438.82,-418.61C472.6,-398.42 530.45,-364.22 553.65,-352.82"/>
<polygon fill="blue" stroke="blue" points="555.22,-355.97 563.2,-349 552.62,-349.47 555.22,-355.97"/>
<text text-anchor="middle" x="496.7" y="-387.8" font-family="Times,serif" font-size="14.00">1</text>
</g>
<!-- initializerr2_1 -->
<!-- initializerr2_1&#45;&gt;r2 -->
<g id="edge9" class="edge">
<title>initializerr2_1&#45;&gt;r2:w</title>
<path fill="none" stroke="blue" d="M252.7,-419.64C281.61,-406.35 325.54,-385.84 363.2,-367 374.79,-361.2 378.52,-353.85 387.09,-350.64"/>
<polygon fill="blue" stroke="blue" points="387.89,-354.05 397.2,-349 386.77,-347.14 387.89,-354.05"/>
<text text-anchor="middle" x="327.7" y="-387.8" font-family="Times,serif" font-size="14.00">1</text>
</g>
<!-- r4 -->
<g id="node10" class="node">
<title>r4</title>
<g id="a_node10"><a xlink:href="add2" xlink:title="add2 (#4)">
<ellipse fill="coral" stroke="black" cx="236.2" cy="-177" rx="44.48" ry="18"/>
<text text-anchor="middle" x="236.2" y="-172.8" font-family="Times,serif" font-size="14.00">add2 (#4)</text>
</a>
</g>
</g>
<!-- r3&#45;&gt;r4 -->
<g id="edge12" class="edge">
<title>r3:se&#45;&gt;r4:n</title>
<path fill="none" stroke="black" d="M353.2,-245C390.53,-207.67 256.18,-245.75 238.17,-204.96"/>
<polygon fill="black" stroke="black" points="241.58,-204.13 236.2,-195 234.71,-205.49 241.58,-204.13"/>
<text text-anchor="middle" x="230.76" y="-197.8" font-family="Times,serif" font-size="14.00">i1</text>
<text text-anchor="middle" x="335.7" y="-233.8" font-family="Times,serif" font-size="14.00">/result</text>
</g>
<!-- initializerr3_1 -->
<!-- initializerr3_1&#45;&gt;r3 -->
<g id="edge11" class="edge">
<title>initializerr3_1&#45;&gt;r3:nw</title>
<path fill="none" stroke="blue" d="M278.53,-331.08C286.95,-319.04 299.2,-302.51 312.29,-288.23"/>
<polygon fill="blue" stroke="blue" points="314.82,-290.65 319.2,-281 309.76,-285.81 314.82,-290.65"/>
<text text-anchor="middle" x="304.7" y="-301.8" font-family="Times,serif" font-size="14.00">2</text>
</g>
<!-- r5 -->
<g id="node12" class="node">
<title>r5</title>
<g id="a_node12"><a xlink:href="divide4" xlink:title="divide4 (#5)">
<ellipse fill="coral" stroke="black" cx="93.2" cy="-91" rx="53.65" ry="18"/>
<text text-anchor="middle" x="93.2" y="-86.8" font-family="Times,serif" font-size="14.00">divide4 (#5)</text>
</a>
</g>
</g>
<!-- r4&#45;&gt;r5 -->
<g id="edge14" class="edge">
<title>r4:se&#45;&gt;r5:n</title>
<path fill="none" stroke="black" d="M253.2,-159C303.21,-108.99 114.12,-176 94.78,-119.21"/>
<polygon fill="black" stroke="black" points="98.19,-118.35 93.2,-109 91.27,-119.42 98.19,-118.35"/>
<text text-anchor="middle" x="68.7" y="-111.8" font-family="Times,serif" font-size="14.00">dividend</text>
<text text-anchor="middle" x="239.59" y="-147.8" font-family="Times,serif" font-size="14.00">/sum</text>
</g>
<!-- initializerr4_1 -->
<!-- initializerr4_1&#45;&gt;r4 -->
<g id="edge13" class="edge">
<title>initializerr4_1&#45;&gt;r4:w</title>
<path fill="none" stroke="blue" d="M150.86,-244.8C152.59,-222.97 158.74,-187.14 180.36,-178.78"/>
<polygon fill="blue" stroke="blue" points="180.98,-182.22 190.2,-177 179.74,-175.34 180.98,-182.22"/>
<text text-anchor="middle" x="158.7" y="-215.8" font-family="Times,serif" font-size="14.00">2</text>
</g>
<!-- r6 -->
<g id="node14" class="node">
<title>r6</title>
<g id="a_node14"><a xlink:href="print" xlink:title="print (#6)">
<ellipse fill="coral" stroke="black" cx="110.2" cy="-18" rx="43.51" ry="18"/>
<text text-anchor="middle" x="110.2" y="-13.8" font-family="Times,serif" font-size="14.00">print (#6)</text>
</a>
</g>
</g>
<!-- r5&#45;&gt;r6 -->
<g id="edge16" class="edge">
<title>r5:se&#45;&gt;r6:n</title>
<path fill="none" stroke="black" d="M110.2,-73C119.19,-64.01 114.28,-56.63 111.59,-46.14"/>
<polygon fill="black" stroke="black" points="115.02,-45.43 110.2,-36 108.09,-46.38 115.02,-45.43"/>
<text text-anchor="middle" x="92.7" y="-61.8" font-family="Times,serif" font-size="14.00">/result</text>
</g>
<!-- initializerr5_1 -->
<!-- initializerr5_1&#45;&gt;r5 -->
<g id="edge15" class="edge">
<title>initializerr5_1&#45;&gt;r5:nw</title>
<path fill="none" stroke="blue" d="M59.59,-158.77C59.95,-146.46 62.09,-129.9 69.87,-117.13"/>
<polygon fill="blue" stroke="blue" points="72.82,-119.04 76.2,-109 67.3,-114.74 72.82,-119.04"/>
<text text-anchor="middle" x="67.7" y="-129.8" font-family="Times,serif" font-size="14.00">2</text>
</g>
</g>
</svg>
