<?xml version="1.0" encoding="UTF-8" standalone="no"?>
<!DOCTYPE svg PUBLIC "-//W3C//DTD SVG 1.1//EN"
 "http://www.w3.org/Graphics/SVG/1.1/DTD/svg11.dtd">
<!-- Generated by graphviz version 2.44.1 (20200629.0846)
 -->
<!-- Title: pipeline Pages: 1 -->
<svg width="745pt" height="614pt"
 viewBox="0.00 0.00 744.94 614.00" xmlns="http://www.w3.org/2000/svg" xmlns:xlink="http://www.w3.org/1999/xlink">
<g id="graph0" class="graph" transform="scale(1 1) rotate(0) translate(4 610)">
<title>pipeline</title>
<polygon fill="white" stroke="transparent" points="-4,4 -4,-610 740.94,-610 740.94,4 -4,4"/>
<text text-anchor="middle" x="368.47" y="-590.8" font-family="Times,serif" font-size="14.00">/pipeline</text>
<g id="clust1" class="cluster">
<title>cluster_range</title>
<polygon fill="none" stroke="black" points="347.44,-326 347.44,-575 690.44,-575 690.44,-326 347.44,-326"/>
<text text-anchor="middle" x="518.94" y="-559.8" font-family="Times,serif" font-size="14.00">/pipeline/range</text>
</g>
<!-- r5 -->
<g id="node1" class="node">
<title>r5</title>
<g id="a_node1"><a xlink:href="file:///Users/andrew/workspace/flow/flowstdlib/control/compare_switch/compare_switch.html" xlink:title="compare (#5)">
<ellipse fill="coral" stroke="black" cx="606.44" cy="-439" rx="58.49" ry="18"/>
<text text-anchor="middle" x="606.44" y="-435.3" font-family="Times,serif" font-size="14.00">compare (#5)</text>
</a>
</g>
</g>
<!-- r5&#45;&gt;r5 -->
<g id="edge4" class="edge">
<title>r5:s&#45;&gt;r5:n</title>
<path fill="none" stroke="black" d="M606.44,-421C649.94,-410.5 736.94,-410.5 736.94,-439 736.94,-465.44 662.06,-467.35 616.51,-459.11"/>
<polygon fill="black" stroke="black" points="616.95,-455.62 606.44,-457 615.52,-462.47 616.95,-455.62"/>
<text text-anchor="middle" x="596.94" y="-460.8" font-family="Times,serif" font-size="14.00">left</text>
<text text-anchor="middle" x="587.94" y="-409.8" font-family="Times,serif" font-size="14.00">/left&#45;gt</text>
</g>
<!-- r0 -->
<g id="node4" class="node">
<title>r0</title>
<g id="a_node4"><a xlink:href="file:///Users/andrew/workspace/flow/flowstdlib/math/add/add.html" xlink:title="add1 (#0)">
<ellipse fill="coral" stroke="black" cx="445.44" cy="-352" rx="44.69" ry="18"/>
<text text-anchor="middle" x="445.44" y="-348.3" font-family="Times,serif" font-size="14.00">add1 (#0)</text>
</a>
</g>
</g>
<!-- r5&#45;&gt;r0 -->
<g id="edge3" class="edge">
<title>r5:e&#45;&gt;r0:n</title>
<path fill="none" stroke="black" d="M666.44,-439C674.46,-439 670.6,-427.13 665.44,-421 661.91,-416.8 496.12,-385.71 454.73,-373.8"/>
<polygon fill="black" stroke="black" points="456.03,-370.54 445.44,-370 453.38,-377.02 456.03,-370.54"/>
<text text-anchor="middle" x="439.94" y="-373.8" font-family="Times,serif" font-size="14.00">i1</text>
<text text-anchor="middle" x="690.44" y="-442.8" font-family="Times,serif" font-size="14.00">/right&#45;lte</text>
</g>
<!-- r4 -->
<g id="node5" class="node">
<title>r4</title>
<g id="a_node5"><a xlink:href="file:///Users/andrew/workspace/flow/flowstdlib/math/add/add.html" xlink:title="add (#4)">
<ellipse fill="coral" stroke="black" cx="606.44" cy="-352" rx="40.09" ry="18"/>
<text text-anchor="middle" x="606.44" y="-348.3" font-family="Times,serif" font-size="14.00">add (#4)</text>
</a>
</g>
</g>
<!-- r5&#45;&gt;r4 -->
<g id="edge5" class="edge">
<title>r5:e&#45;&gt;r4:n</title>
<path fill="none" stroke="black" d="M666.44,-439C674.46,-439 670.21,-427.44 665.44,-421 651.64,-402.35 632.37,-419.87 616.44,-403 608.56,-394.64 606.88,-388.88 606.53,-380.05"/>
<polygon fill="black" stroke="black" points="610.03,-379.97 606.44,-370 603.03,-380.03 610.03,-379.97"/>
<text text-anchor="middle" x="600.94" y="-373.8" font-family="Times,serif" font-size="14.00">i1</text>
<text text-anchor="middle" x="687.44" y="-427.8" font-family="Times,serif" font-size="14.00">/right&#45;lt</text>
</g>
<!-- initializerr5_0 -->
<!-- initializerr5_0&#45;&gt;r5 -->
<g id="edge1" class="edge">
<title>initializerr5_0&#45;&gt;r5:ne</title>
<path fill="none" stroke="blue" stroke-dasharray="1,5" d="M628.75,-507.94C632.37,-495.46 635.16,-478.51 629.33,-465.58"/>
<polygon fill="blue" stroke="blue" points="631.99,-463.27 623.44,-457 626.21,-467.23 631.99,-463.27"/>
<text text-anchor="middle" x="639.44" y="-478.8" font-family="Times,serif" font-size="14.00">20</text>
</g>
<!-- initializerr5_1 -->
<!-- initializerr5_1&#45;&gt;r5 -->
<g id="edge2" class="edge">
<title>initializerr5_1&#45;&gt;r5:ne</title>
<path fill="none" stroke="blue" stroke-dasharray="1,5" d="M473.59,-513.58C522.19,-500.59 596.33,-479.41 618.11,-465.65"/>
<polygon fill="blue" stroke="blue" points="621.17,-467.35 623.44,-457 615.22,-463.67 621.17,-467.35"/>
<text text-anchor="middle" x="600.94" y="-478.8" font-family="Times,serif" font-size="14.00">1</text>
</g>
<!-- r2 -->
<g id="node8" class="node">
<title>r2</title>
<g id="a_node8"><a xlink:href="file:///Users/andrew/workspace/flow/flowstdlib/math/divide/divide.html" xlink:title="divide2 (#2)">
<ellipse fill="coral" stroke="black" cx="337.44" cy="-265" rx="53.89" ry="18"/>
<text text-anchor="middle" x="337.44" y="-261.3" font-family="Times,serif" font-size="14.00">divide2 (#2)</text>
</a>
</g>
</g>
<!-- r0&#45;&gt;r2 -->
<g id="edge10" class="edge">
<title>r0:se&#45;&gt;r2:n</title>
<path fill="none" stroke="black" d="M462.44,-334C502.22,-294.22 357.55,-336.94 339.31,-292.99"/>
<polygon fill="black" stroke="black" points="342.72,-292.19 337.44,-283 335.84,-293.47 342.72,-292.19"/>
<text text-anchor="middle" x="313.44" y="-286.8" font-family="Times,serif" font-size="14.00">dividend</text>
<text text-anchor="middle" x="448.44" y="-322.8" font-family="Times,serif" font-size="14.00">/sum</text>
</g>
<!-- r4&#45;&gt;r5 -->
<g id="edge8" class="edge">
<title>r4:se&#45;&gt;r5:ne</title>
<path fill="none" stroke="black" d="M623.44,-334C663.94,-293.5 704.95,-415.02 664.94,-456 660.26,-460.8 643.92,-462.59 632.83,-460.72"/>
<polygon fill="black" stroke="black" points="634.03,-457.43 623.44,-457 631.45,-463.94 634.03,-457.43"/>
<text text-anchor="middle" x="636.44" y="-460.8" font-family="Times,serif" font-size="14.00">right</text>
<text text-anchor="middle" x="609.44" y="-322.8" font-family="Times,serif" font-size="14.00">/sum</text>
</g>
<!-- r4&#45;&gt;r4 -->
<g id="edge7" class="edge">
<title>r4:se&#45;&gt;r4:ne</title>
<path fill="none" stroke="black" d="M623.44,-335C660.88,-324.5 718.74,-324.5 718.74,-352 718.74,-377.14 670.39,-379.3 633.5,-371.46"/>
<polygon fill="black" stroke="black" points="633.99,-367.98 623.44,-369 632.32,-374.78 633.99,-367.98"/>
<text text-anchor="middle" x="617.94" y="-372.8" font-family="Times,serif" font-size="14.00">i2</text>
<text text-anchor="middle" x="630.94" y="-323.8" font-family="Times,serif" font-size="14.00">/i2</text>
</g>
<!-- initializerr4_1 -->
<!-- initializerr4_1&#45;&gt;r4 -->
<g id="edge6" class="edge">
<title>initializerr4_1&#45;&gt;r4:w</title>
<path fill="none" stroke="blue" stroke-dasharray="1,5" d="M440.56,-422.62C474.04,-402.24 531.75,-367.48 554.91,-355.89"/>
<polygon fill="blue" stroke="blue" points="556.51,-359.02 564.44,-352 553.86,-352.54 556.51,-359.02"/>
<text text-anchor="middle" x="497.94" y="-391.8" font-family="Times,serif" font-size="14.00">1</text>
</g>
<!-- initializerr0_1 -->
<!-- initializerr0_1&#45;&gt;r0 -->
<g id="edge9" class="edge">
<title>initializerr0_1&#45;&gt;r0:w</title>
<path fill="none" stroke="blue" d="M253.59,-423.4C282.45,-409.79 326.5,-388.84 364.44,-370 376.44,-364.04 380.33,-356.66 389.35,-353.52"/>
<polygon fill="blue" stroke="blue" points="390.08,-356.95 399.44,-352 389.03,-350.03 390.08,-356.95"/>
<text text-anchor="middle" x="328.94" y="-391.8" font-family="Times,serif" font-size="14.00">1</text>
</g>
<!-- r3 -->
<g id="node10" class="node">
<title>r3</title>
<g id="a_node10"><a xlink:href="file:///Users/andrew/workspace/flow/flowstdlib/math/add/add.html" xlink:title="add2 (#3)">
<ellipse fill="coral" stroke="black" cx="237.44" cy="-178" rx="44.69" ry="18"/>
<text text-anchor="middle" x="237.44" y="-174.3" font-family="Times,serif" font-size="14.00">add2 (#3)</text>
</a>
</g>
</g>
<!-- r2&#45;&gt;r3 -->
<g id="edge12" class="edge">
<title>r2:se&#45;&gt;r3:n</title>
<path fill="none" stroke="black" d="M354.44,-247C391.89,-209.55 257.44,-247.02 239.42,-206"/>
<polygon fill="black" stroke="black" points="242.82,-205.13 237.44,-196 235.95,-206.49 242.82,-205.13"/>
<text text-anchor="middle" x="231.94" y="-199.8" font-family="Times,serif" font-size="14.00">i1</text>
<text text-anchor="middle" x="337.44" y="-235.8" font-family="Times,serif" font-size="14.00">/result</text>
</g>
<!-- initializerr2_1 -->
<!-- initializerr2_1&#45;&gt;r2 -->
<g id="edge11" class="edge">
<title>initializerr2_1&#45;&gt;r2:nw</title>
<path fill="none" stroke="blue" d="M279.5,-334.07C287.88,-321.81 300.17,-304.9 313.44,-290.36"/>
<polygon fill="blue" stroke="blue" points="316.08,-292.65 320.44,-283 311.01,-287.83 316.08,-292.65"/>
<text text-anchor="middle" x="305.94" y="-304.8" font-family="Times,serif" font-size="14.00">2</text>
</g>
<!-- r6 -->
<g id="node12" class="node">
<title>r6</title>
<g id="a_node12"><a xlink:href="file:///Users/andrew/workspace/flow/flowstdlib/math/divide/divide.html" xlink:title="divide4 (#6)">
<ellipse fill="coral" stroke="black" cx="93.44" cy="-91" rx="53.89" ry="18"/>
<text text-anchor="middle" x="93.44" y="-87.3" font-family="Times,serif" font-size="14.00">divide4 (#6)</text>
</a>
</g>
</g>
<!-- r3&#45;&gt;r6 -->
<g id="edge14" class="edge">
<title>r3:se&#45;&gt;r6:n</title>
<path fill="none" stroke="black" d="M254.44,-160C304.93,-109.52 113.71,-176.84 94.92,-118.94"/>
<polygon fill="black" stroke="black" points="98.37,-118.38 93.44,-109 91.45,-119.41 98.37,-118.38"/>
<text text-anchor="middle" x="69.44" y="-112.8" font-family="Times,serif" font-size="14.00">dividend</text>
<text text-anchor="middle" x="240.44" y="-148.8" font-family="Times,serif" font-size="14.00">/sum</text>
</g>
<!-- initializerr3_1 -->
<!-- initializerr3_1&#45;&gt;r3 -->
<g id="edge13" class="edge">
<title>initializerr3_1&#45;&gt;r3:w</title>
<path fill="none" stroke="blue" d="M152.03,-246.6C153.67,-224.51 159.72,-188.26 181.51,-179.8"/>
<polygon fill="blue" stroke="blue" points="182.23,-183.23 191.44,-178 180.98,-176.34 182.23,-183.23"/>
<text text-anchor="middle" x="159.94" y="-217.8" font-family="Times,serif" font-size="14.00">2</text>
</g>
<!-- r1 -->
<g id="node14" class="node">
<title>r1</title>
<g id="a_node14"><a xlink:href="file:///Users/andrew/workspace/flow/flowr/src/lib/flowruntime/stdio/stdout.html" xlink:title="print (#1)">
<ellipse fill="coral" stroke="black" cx="110.44" cy="-18" rx="44.39" ry="18"/>
<text text-anchor="middle" x="110.44" y="-14.3" font-family="Times,serif" font-size="14.00">print (#1)</text>
</a>
</g>
</g>
<!-- r6&#45;&gt;r1 -->
<g id="edge16" class="edge">
<title>r6:se&#45;&gt;r1:n</title>
<path fill="none" stroke="black" d="M110.44,-73C119.44,-64.01 114.52,-56.63 111.83,-46.14"/>
<polygon fill="black" stroke="black" points="115.27,-45.43 110.44,-36 108.33,-46.38 115.27,-45.43"/>
<text text-anchor="middle" x="93.44" y="-61.8" font-family="Times,serif" font-size="14.00">/result</text>
</g>
<!-- initializerr6_1 -->
<!-- initializerr6_1&#45;&gt;r6 -->
<g id="edge15" class="edge">
<title>initializerr6_1&#45;&gt;r6:nw</title>
<path fill="none" stroke="blue" d="M59.74,-159.81C60.03,-147.18 62.14,-130.03 70.23,-116.93"/>
<polygon fill="blue" stroke="blue" points="73.03,-119.03 76.44,-109 67.52,-114.71 73.03,-119.03"/>
<text text-anchor="middle" x="67.94" y="-130.8" font-family="Times,serif" font-size="14.00">2</text>
</g>
</g>
</svg>
