<?xml version="1.0" encoding="UTF-8" standalone="no"?>
<!DOCTYPE svg PUBLIC "-//W3C//DTD SVG 1.1//EN"
 "http://www.w3.org/Graphics/SVG/1.1/DTD/svg11.dtd">
<!-- Generated by graphviz version 2.40.1 (20161225.0304)
 -->
<!-- Title: pipeline Pages: 1 -->
<svg width="897pt" height="725pt"
 viewBox="0.00 0.00 896.79 725.00" xmlns="http://www.w3.org/2000/svg" xmlns:xlink="http://www.w3.org/1999/xlink">
<g id="graph0" class="graph" transform="scale(1 1) rotate(0) translate(4 721)">
<title>pipeline</title>
<polygon fill="#ffffff" stroke="transparent" points="-4,4 -4,-721 892.7866,-721 892.7866,4 -4,4"/>
<text text-anchor="middle" x="444.3933" y="-701.8" font-family="Times,serif" font-size="14.00" fill="#000000">/pipeline</text>
<g id="clust1" class="cluster">
<title>cluster_range</title>
<polygon fill="none" stroke="#000000" points="435.0433,-326 435.0433,-686 843.0433,-686 843.0433,-326 435.0433,-326"/>
<text text-anchor="middle" x="639.0433" y="-670.8" font-family="Times,serif" font-size="14.00" fill="#000000">/pipeline/range</text>
</g>
<!-- r0 -->
<g id="node1" class="node">
<title>r0</title>
<g id="a_node1"><a xlink:href="file:///home/travis/build/andrewdavidmackenzie/flow/flowstdlib/control/compare_switch/compare_switch.html" xlink:title="compare (#0)">
<ellipse fill="#ff7f50" stroke="#000000" cx="742.0433" cy="-512" rx="74.9875" ry="18"/>
<text text-anchor="middle" x="742.0433" y="-508.3" font-family="Times,serif" font-size="14.00" fill="#000000">compare (#0)</text>
</a>
</g>
</g>
<!-- r0&#45;&gt;r0 -->
<g id="edge4" class="edge">
<title>r0:s&#45;&gt;r0:n</title>
<path fill="none" stroke="#000000" d="M742.0433,-494C790.9577,-485 888.7866,-485 888.7866,-512 888.7866,-537.2598 803.1621,-538.8878 752.0716,-531.6233"/>
<polygon fill="#000000" stroke="#000000" points="752.4741,-528.1429 742.0433,-530 751.3555,-535.053 752.4741,-528.1429"/>
<text text-anchor="middle" x="729.5433" y="-533.8" font-family="Times,serif" font-size="14.00" fill="#000000">left</text>
<text text-anchor="middle" x="717.5433" y="-482.8" font-family="Times,serif" font-size="14.00" fill="#000000">/left&#45;gt</text>
</g>
<!-- r2 -->
<g id="node4" class="node">
<title>r2</title>
<g id="a_node4"><a xlink:href="file:///home/travis/build/andrewdavidmackenzie/flow/flowstdlib/math/add/add.html" xlink:title="add1 (#2)">
<ellipse fill="#ff7f50" stroke="#000000" cx="524.0433" cy="-352" rx="57.3905" ry="18"/>
<text text-anchor="middle" x="524.0433" y="-348.3" font-family="Times,serif" font-size="14.00" fill="#000000">add1 (#2)</text>
</a>
</g>
</g>
<!-- r0&#45;&gt;r2 -->
<g id="edge3" class="edge">
<title>r0:e&#45;&gt;r2:n</title>
<path fill="none" stroke="#000000" d="M817.0433,-512C825.0433,-512 821.9767,-500.2977 817.0433,-494 796.4361,-467.6944 775.8363,-486.2881 744.0433,-476 722.6065,-469.0632 717.5694,-466.2914 697.0433,-457 679.6624,-449.1324 557.0807,-403.7294 529.5313,-378.5428"/>
<polygon fill="#000000" stroke="#000000" points="532.393,-376.5217 524.0433,-370 526.5036,-380.3052 532.393,-376.5217"/>
<text text-anchor="middle" x="517.0433" y="-373.8" font-family="Times,serif" font-size="14.00" fill="#000000">i1</text>
<text text-anchor="middle" x="849.0433" y="-515.8" font-family="Times,serif" font-size="14.00" fill="#000000">/right&#45;lte</text>
</g>
<!-- r1 -->
<g id="node5" class="node">
<title>r1</title>
<g id="a_node5"><a xlink:href="file:///home/travis/build/andrewdavidmackenzie/flow/flowstdlib/math/add/add.html" xlink:title="add (#1)">
<ellipse fill="#ff7f50" stroke="#000000" cx="707.0433" cy="-352" rx="51.1914" ry="18"/>
<text text-anchor="middle" x="707.0433" y="-348.3" font-family="Times,serif" font-size="14.00" fill="#000000">add (#1)</text>
</a>
</g>
</g>
<!-- r0&#45;&gt;r1 -->
<g id="edge5" class="edge">
<title>r0:e&#45;&gt;r1:n</title>
<path fill="none" stroke="#000000" d="M817.0433,-512C825.0433,-512 821.7386,-500.4771 817.0433,-494 801.9474,-473.1758 781.645,-492.6524 762.0433,-476 724.28,-443.9186 709.09,-425.6102 707.2391,-380.1317"/>
<polygon fill="#000000" stroke="#000000" points="710.7359,-379.9305 707.0433,-370 703.7372,-380.0658 710.7359,-379.9305"/>
<text text-anchor="middle" x="700.0433" y="-373.8" font-family="Times,serif" font-size="14.00" fill="#000000">i1</text>
<text text-anchor="middle" x="844.5433" y="-500.8" font-family="Times,serif" font-size="14.00" fill="#000000">/right&#45;lt</text>
</g>
<!-- initializerr0_0 -->
<!-- initializerr0_0&#45;&gt;r0 -->
<g id="edge1" class="edge">
<title>initializerr0_0&#45;&gt;r0:ne</title>
<path fill="none" stroke="#0000ff" stroke-dasharray="1,5" d="M766.0485,-618.9564C773.1795,-597.548 781.2473,-561.7588 766.321,-537.8989"/>
<polygon fill="#0000ff" stroke="#0000ff" points="769.0052,-535.651 760.0433,-530 763.5252,-540.0064 769.0052,-535.651"/>
<text text-anchor="middle" x="783.5433" y="-570.8" font-family="Times,serif" font-size="14.00" fill="#000000">20</text>
</g>
<!-- initializerr0_1 -->
<!-- initializerr0_1&#45;&gt;r0 -->
<g id="edge2" class="edge">
<title>initializerr0_1&#45;&gt;r0:ne</title>
<path fill="none" stroke="#0000ff" stroke-dasharray="1,5" d="M576.1811,-621.8186C633.9526,-600.0392 734.5642,-560.2726 756.7488,-539.5327"/>
<polygon fill="#0000ff" stroke="#0000ff" points="760.0848,-540.5948 760.0433,-530 753.4687,-538.3082 760.0848,-540.5948"/>
<text text-anchor="middle" x="711.0433" y="-570.8" font-family="Times,serif" font-size="14.00" fill="#000000">1</text>
</g>
<!-- r3 -->
<g id="node8" class="node">
<title>r3</title>
<g id="a_node8"><a xlink:href="file:///home/travis/build/andrewdavidmackenzie/flow/flowstdlib/math/divide/divide.html" xlink:title="divide2 (#3)">
<ellipse fill="#ff7f50" stroke="#000000" cx="396.0433" cy="-265" rx="68.4888" ry="18"/>
<text text-anchor="middle" x="396.0433" y="-261.3" font-family="Times,serif" font-size="14.00" fill="#000000">divide2 (#3)</text>
</a>
</g>
</g>
<!-- r2&#45;&gt;r3 -->
<g id="edge10" class="edge">
<title>r2:se&#45;&gt;r3:n</title>
<path fill="none" stroke="#000000" d="M541.0433,-335C586.8066,-289.2367 416.4743,-344.7064 397.7074,-293.0763"/>
<polygon fill="#000000" stroke="#000000" points="401.126,-292.296 396.0433,-283 394.2196,-293.4367 401.126,-292.296"/>
<text text-anchor="middle" x="365.0433" y="-286.8" font-family="Times,serif" font-size="14.00" fill="#000000">dividend</text>
<text text-anchor="middle" x="523.5433" y="-323.8" font-family="Times,serif" font-size="14.00" fill="#000000">/sum</text>
</g>
<!-- r1&#45;&gt;r0 -->
<g id="edge8" class="edge">
<title>r1:se&#45;&gt;r0:ne</title>
<path fill="none" stroke="#000000" d="M724.0433,-335C734.837,-324.2063 745.8719,-326.2628 758.3887,-335 820.1193,-378.09 803.6057,-419.8806 816.7866,-494 816.7866,-494 784.8685,-514.25 768.9094,-524.375"/>
<polygon fill="#000000" stroke="#000000" points="766.6122,-521.6874 760.0433,-530 770.3623,-527.5982 766.6122,-521.6874"/>
<text text-anchor="middle" x="778.0433" y="-533.8" font-family="Times,serif" font-size="14.00" fill="#000000">right</text>
<text text-anchor="middle" x="741.5433" y="-323.8" font-family="Times,serif" font-size="14.00" fill="#000000">/sum</text>
</g>
<!-- r1&#45;&gt;r1 -->
<g id="edge7" class="edge">
<title>r1:se&#45;&gt;r1:ne</title>
<path fill="none" stroke="#000000" d="M724.0433,-335C765.1584,-324.5 830.3887,-324.5 830.3887,-352 830.3887,-377.4053 774.7174,-379.3404 733.819,-371.2091"/>
<polygon fill="#000000" stroke="#000000" points="734.5688,-367.7904 724.0433,-369 733.0258,-374.6182 734.5688,-367.7904"/>
<text text-anchor="middle" x="717.0433" y="-372.8" font-family="Times,serif" font-size="14.00" fill="#000000">i2</text>
<text text-anchor="middle" x="714.5433" y="-323.8" font-family="Times,serif" font-size="14.00" fill="#000000">/i2</text>
</g>
<!-- initializerr1_1 -->
<!-- initializerr1_1&#45;&gt;r1 -->
<g id="edge6" class="edge">
<title>initializerr1_1&#45;&gt;r1:w</title>
<path fill="none" stroke="#0000ff" stroke-dasharray="1,5" d="M529.5434,-493.957C552.3727,-455.7089 607.4829,-368.7766 644.9767,-354.1176"/>
<polygon fill="#0000ff" stroke="#0000ff" points="645.9779,-357.4836 655.0433,-352 644.5369,-350.6335 645.9779,-357.4836"/>
<text text-anchor="middle" x="582.0433" y="-435.3" font-family="Times,serif" font-size="14.00" fill="#000000">1</text>
</g>
<!-- initializerr2_1 -->
<!-- initializerr2_1&#45;&gt;r2 -->
<g id="edge9" class="edge">
<title>initializerr2_1&#45;&gt;r2:w</title>
<path fill="none" stroke="#0000ff" d="M355.5378,-421.8116C386.4163,-401.1121 436.9007,-367.6802 457.9043,-356.1022"/>
<polygon fill="#0000ff" stroke="#0000ff" points="459.3534,-359.2882 467.0433,-352 456.4869,-352.902 459.3534,-359.2882"/>
<text text-anchor="middle" x="408.0433" y="-391.8" font-family="Times,serif" font-size="14.00" fill="#000000">1</text>
</g>
<!-- r4 -->
<g id="node10" class="node">
<title>r4</title>
<g id="a_node10"><a xlink:href="file:///home/travis/build/andrewdavidmackenzie/flow/flowstdlib/math/add/add.html" xlink:title="add2 (#4)">
<ellipse fill="#ff7f50" stroke="#000000" cx="281.0433" cy="-178" rx="57.3905" ry="18"/>
<text text-anchor="middle" x="281.0433" y="-174.3" font-family="Times,serif" font-size="14.00" fill="#000000">add2 (#4)</text>
</a>
</g>
</g>
<!-- r3&#45;&gt;r4 -->
<g id="edge12" class="edge">
<title>r3:se&#45;&gt;r4:n</title>
<path fill="none" stroke="#000000" d="M413.0433,-248C455.0172,-206.026 300.9776,-252.8784 282.782,-205.9054"/>
<polygon fill="#000000" stroke="#000000" points="286.2196,-205.2442 281.0433,-196 279.325,-206.4546 286.2196,-205.2442"/>
<text text-anchor="middle" x="274.0433" y="-199.8" font-family="Times,serif" font-size="14.00" fill="#000000">i1</text>
<text text-anchor="middle" x="389.5433" y="-236.8" font-family="Times,serif" font-size="14.00" fill="#000000">/result</text>
</g>
<!-- initializerr3_1 -->
<!-- initializerr3_1&#45;&gt;r3 -->
<g id="edge11" class="edge">
<title>initializerr3_1&#45;&gt;r3:nw</title>
<path fill="none" stroke="#0000ff" d="M333.1254,-334.0802C343.2065,-321.5756 357.5014,-304.4716 371.9536,-289.2772"/>
<polygon fill="#0000ff" stroke="#0000ff" points="374.572,-291.6052 379.0433,-282 369.5581,-286.7204 374.572,-291.6052"/>
<text text-anchor="middle" x="364.0433" y="-304.8" font-family="Times,serif" font-size="14.00" fill="#000000">2</text>
</g>
<!-- r5 -->
<g id="node12" class="node">
<title>r5</title>
<g id="a_node12"><a xlink:href="file:///home/travis/build/andrewdavidmackenzie/flow/flowstdlib/math/divide/divide.html" xlink:title="divide4 (#5)">
<ellipse fill="#ff7f50" stroke="#000000" cx="110.0433" cy="-91" rx="68.4888" ry="18"/>
<text text-anchor="middle" x="110.0433" y="-87.3" font-family="Times,serif" font-size="14.00" fill="#000000">divide4 (#5)</text>
</a>
</g>
</g>
<!-- r4&#45;&gt;r5 -->
<g id="edge14" class="edge">
<title>r4:se&#45;&gt;r5:n</title>
<path fill="none" stroke="#000000" d="M298.0433,-161C356.7103,-102.3329 130.8941,-187.7338 111.3797,-119.1903"/>
<polygon fill="#000000" stroke="#000000" points="114.814,-118.4599 110.0433,-109 107.8734,-119.3702 114.814,-118.4599"/>
<text text-anchor="middle" x="79.0433" y="-112.8" font-family="Times,serif" font-size="14.00" fill="#000000">dividend</text>
<text text-anchor="middle" x="280.5433" y="-149.8" font-family="Times,serif" font-size="14.00" fill="#000000">/sum</text>
</g>
<!-- initializerr4_1 -->
<!-- initializerr4_1&#45;&gt;r4 -->
<g id="edge13" class="edge">
<title>initializerr4_1&#45;&gt;r4:w</title>
<path fill="none" stroke="#0000ff" d="M181.2716,-246.9735C183.766,-224.477 191.3142,-187.9458 214.1275,-179.6928"/>
<polygon fill="#0000ff" stroke="#0000ff" points="214.7749,-183.133 224.0433,-178 213.5968,-176.2328 214.7749,-183.133"/>
<text text-anchor="middle" x="192.0433" y="-217.8" font-family="Times,serif" font-size="14.00" fill="#000000">2</text>
</g>
<!-- r6 -->
<g id="node14" class="node">
<title>r6</title>
<g id="a_node14"><a xlink:href="file:///home/travis/build/andrewdavidmackenzie/flow/flowr/src/lib/flowruntime/stdio/stdout.html" xlink:title="print (#6)">
<ellipse fill="#ff7f50" stroke="#000000" cx="127.0433" cy="-18" rx="57.3905" ry="18"/>
<text text-anchor="middle" x="127.0433" y="-14.3" font-family="Times,serif" font-size="14.00" fill="#000000">print (#6)</text>
</a>
</g>
</g>
<!-- r5&#45;&gt;r6 -->
<g id="edge16" class="edge">
<title>r5:se&#45;&gt;r6:n</title>
<path fill="none" stroke="#000000" d="M127.0433,-74C136.3731,-64.6701 131.1251,-57.033 128.3826,-46.0849"/>
<polygon fill="#000000" stroke="#000000" points="131.8294,-45.4522 127.0433,-36 124.8903,-46.3738 131.8294,-45.4522"/>
<text text-anchor="middle" x="103.5433" y="-62.8" font-family="Times,serif" font-size="14.00" fill="#000000">/result</text>
</g>
<!-- initializerr5_1 -->
<!-- initializerr5_1&#45;&gt;r5 -->
<g id="edge15" class="edge">
<title>initializerr5_1&#45;&gt;r5:nw</title>
<path fill="none" stroke="#0000ff" d="M75.514,-159.6942C75.9812,-146.7305 78.3731,-129.3542 86.6861,-116.0596"/>
<polygon fill="#0000ff" stroke="#0000ff" points="89.5982,-118.0191 93.0433,-108 84.1021,-113.684 89.5982,-118.0191"/>
<text text-anchor="middle" x="86.0433" y="-130.8" font-family="Times,serif" font-size="14.00" fill="#000000">2</text>
</g>
</g>
</svg>
