<?xml version="1.0" encoding="UTF-8" standalone="no"?>
<!DOCTYPE svg PUBLIC "-//W3C//DTD SVG 1.1//EN"
 "http://www.w3.org/Graphics/SVG/1.1/DTD/svg11.dtd">
<!-- Generated by graphviz version 2.42.4 (0)
 -->
<!-- Title: pipeline Pages: 1 -->
<svg width="870pt" height="614pt"
 viewBox="0.00 0.00 870.49 614.00" xmlns="http://www.w3.org/2000/svg" xmlns:xlink="http://www.w3.org/1999/xlink">
<g id="graph0" class="graph" transform="scale(1 1) rotate(0) translate(4 610)">
<title>pipeline</title>
<polygon fill="white" stroke="transparent" points="-4,4 -4,-610 866.49,-610 866.49,4 -4,4"/>
<text text-anchor="middle" x="431.24" y="-590.8" font-family="Times,serif" font-size="14.00">/pipeline</text>
<g id="clust1" class="cluster">
<title>cluster_range</title>
<polygon fill="none" stroke="black" points="412.39,-326 412.39,-575 816.39,-575 816.39,-326 412.39,-326"/>
<text text-anchor="middle" x="614.39" y="-559.8" font-family="Times,serif" font-size="14.00">/pipeline/range</text>
</g>
<!-- r0 -->
<g id="node1" class="node">
<title>r0</title>
<g id="a_node1"><a xlink:href="file:///home/andrew/workspace/flow/flowstdlib/control/compare_switch/compare_switch.html" xlink:title="compare (#0)">
<ellipse fill="coral" stroke="black" cx="716.39" cy="-439" rx="74.19" ry="18"/>
<text text-anchor="middle" x="716.39" y="-435.3" font-family="Times,serif" font-size="14.00">compare (#0)</text>
</a>
</g>
</g>
<!-- r0&#45;&gt;r0 -->
<g id="edge4" class="edge">
<title>r0:s&#45;&gt;r0:n</title>
<path fill="none" stroke="black" d="M716.39,-421C765.09,-410.5 862.49,-410.5 862.49,-439 862.49,-465.66 777.24,-467.38 726.38,-458.89"/>
<polygon fill="black" stroke="black" points="726.87,-455.43 716.39,-457 725.57,-462.3 726.87,-455.43"/>
<text text-anchor="middle" x="703.89" y="-460.8" font-family="Times,serif" font-size="14.00">left</text>
<text text-anchor="middle" x="691.89" y="-409.8" font-family="Times,serif" font-size="14.00">/left&#45;gt</text>
</g>
<!-- r2 -->
<g id="node4" class="node">
<title>r2</title>
<g id="a_node4"><a xlink:href="file:///home/andrew/workspace/flow/flowstdlib/math/add/add.html" xlink:title="add1 (#2)">
<ellipse fill="coral" stroke="black" cx="523.39" cy="-352" rx="57.39" ry="18"/>
<text text-anchor="middle" x="523.39" y="-348.3" font-family="Times,serif" font-size="14.00">add1 (#2)</text>
</a>
</g>
</g>
<!-- r0&#45;&gt;r2 -->
<g id="edge3" class="edge">
<title>r0:e&#45;&gt;r2:n</title>
<path fill="none" stroke="black" d="M791.39,-439C799.41,-439 795.67,-427.03 790.39,-421 781.54,-410.88 576.67,-390.31 531.96,-375.26"/>
<polygon fill="black" stroke="black" points="533.75,-372.25 523.39,-370 530.08,-378.22 533.75,-372.25"/>
<text text-anchor="middle" x="516.39" y="-373.8" font-family="Times,serif" font-size="14.00">i1</text>
<text text-anchor="middle" x="823.39" y="-442.8" font-family="Times,serif" font-size="14.00">/right&#45;lte</text>
</g>
<!-- r1 -->
<g id="node5" class="node">
<title>r1</title>
<g id="a_node5"><a xlink:href="file:///home/andrew/workspace/flow/flowstdlib/math/add/add.html" xlink:title="add (#1)">
<ellipse fill="coral" stroke="black" cx="717.39" cy="-352" rx="51.19" ry="18"/>
<text text-anchor="middle" x="717.39" y="-348.3" font-family="Times,serif" font-size="14.00">add (#1)</text>
</a>
</g>
</g>
<!-- r0&#45;&gt;r1 -->
<g id="edge5" class="edge">
<title>r0:e&#45;&gt;r1:n</title>
<path fill="none" stroke="black" d="M791.39,-439C799.41,-439 795.39,-427.26 790.39,-421 772.22,-398.25 748.15,-423.43 727.39,-403 719.2,-394.94 717.67,-389.03 717.42,-380.11"/>
<polygon fill="black" stroke="black" points="720.92,-379.99 717.39,-370 713.92,-380.01 720.92,-379.99"/>
<text text-anchor="middle" x="710.39" y="-373.8" font-family="Times,serif" font-size="14.00">i1</text>
<text text-anchor="middle" x="818.89" y="-427.8" font-family="Times,serif" font-size="14.00">/right&#45;lt</text>
</g>
<!-- initializerr0_0 -->
<!-- initializerr0_0&#45;&gt;r0 -->
<g id="edge1" class="edge">
<title>initializerr0_0&#45;&gt;r0:ne</title>
<path fill="none" stroke="blue" stroke-dasharray="1,5" d="M739.69,-507.94C743.32,-495.46 746.11,-478.51 740.28,-465.58"/>
<polygon fill="blue" stroke="blue" points="742.93,-463.27 734.39,-457 737.16,-467.23 742.93,-463.27"/>
<text text-anchor="middle" x="752.89" y="-478.8" font-family="Times,serif" font-size="14.00">20</text>
</g>
<!-- initializerr0_1 -->
<!-- initializerr0_1&#45;&gt;r0 -->
<g id="edge2" class="edge">
<title>initializerr0_1&#45;&gt;r0:ne</title>
<path fill="none" stroke="blue" stroke-dasharray="1,5" d="M564.26,-513.34C621.08,-500.54 705.59,-479.94 729.11,-465.78"/>
<polygon fill="blue" stroke="blue" points="732.24,-467.37 734.39,-457 726.24,-463.77 732.24,-467.37"/>
<text text-anchor="middle" x="709.39" y="-478.8" font-family="Times,serif" font-size="14.00">1</text>
</g>
<!-- r3 -->
<g id="node8" class="node">
<title>r3</title>
<g id="a_node8"><a xlink:href="file:///home/andrew/workspace/flow/flowstdlib/math/divide/divide.html" xlink:title="divide2 (#3)">
<ellipse fill="coral" stroke="black" cx="395.39" cy="-265" rx="68.49" ry="18"/>
<text text-anchor="middle" x="395.39" y="-261.3" font-family="Times,serif" font-size="14.00">divide2 (#3)</text>
</a>
</g>
</g>
<!-- r2&#45;&gt;r3 -->
<g id="edge10" class="edge">
<title>r2:se&#45;&gt;r3:n</title>
<path fill="none" stroke="black" d="M540.39,-334C586.06,-288.34 415.81,-344.48 397.06,-293.05"/>
<polygon fill="black" stroke="black" points="400.48,-292.29 395.39,-283 393.57,-293.44 400.48,-292.29"/>
<text text-anchor="middle" x="364.39" y="-286.8" font-family="Times,serif" font-size="14.00">dividend</text>
<text text-anchor="middle" x="522.89" y="-322.8" font-family="Times,serif" font-size="14.00">/sum</text>
</g>
<!-- r1&#45;&gt;r0 -->
<g id="edge8" class="edge">
<title>r1:se&#45;&gt;r0:ne</title>
<path fill="none" stroke="black" d="M734.39,-334C776.88,-291.51 832.59,-414.14 790.49,-457 783.66,-463.95 758.64,-466.03 743.82,-462.41"/>
<polygon fill="black" stroke="black" points="744.93,-459.06 734.39,-458 741.97,-465.4 744.93,-459.06"/>
<text text-anchor="middle" x="752.39" y="-461.8" font-family="Times,serif" font-size="14.00">right</text>
<text text-anchor="middle" x="716.89" y="-322.8" font-family="Times,serif" font-size="14.00">/sum</text>
</g>
<!-- r1&#45;&gt;r1 -->
<g id="edge7" class="edge">
<title>r1:se&#45;&gt;r1:ne</title>
<path fill="none" stroke="black" d="M734.39,-335C775.51,-324.5 840.74,-324.5 840.74,-352 840.74,-377.41 785.07,-379.34 744.17,-371.21"/>
<polygon fill="black" stroke="black" points="744.92,-367.79 734.39,-369 743.38,-374.62 744.92,-367.79"/>
<text text-anchor="middle" x="727.39" y="-372.8" font-family="Times,serif" font-size="14.00">i2</text>
<text text-anchor="middle" x="743.89" y="-323.8" font-family="Times,serif" font-size="14.00">/i2</text>
</g>
<!-- initializerr1_1 -->
<!-- initializerr1_1&#45;&gt;r1 -->
<g id="edge6" class="edge">
<title>initializerr1_1&#45;&gt;r1:w</title>
<path fill="none" stroke="blue" stroke-dasharray="1,5" d="M522.96,-422.23C560.81,-400.79 627.31,-364.03 654.63,-354.38"/>
<polygon fill="blue" stroke="blue" points="655.5,-357.77 664.39,-352 653.85,-350.96 655.5,-357.77"/>
<text text-anchor="middle" x="586.39" y="-391.8" font-family="Times,serif" font-size="14.00">1</text>
</g>
<!-- initializerr2_1 -->
<!-- initializerr2_1&#45;&gt;r2 -->
<g id="edge9" class="edge">
<title>initializerr2_1&#45;&gt;r2:w</title>
<path fill="none" stroke="blue" d="M308.5,-423.03C340.48,-409.61 388.34,-389.14 429.39,-370 441.93,-364.15 445.91,-356.58 455.34,-353.45"/>
<polygon fill="blue" stroke="blue" points="456,-356.9 465.39,-352 455,-349.97 456,-356.9"/>
<text text-anchor="middle" x="391.39" y="-391.8" font-family="Times,serif" font-size="14.00">1</text>
</g>
<!-- r4 -->
<g id="node10" class="node">
<title>r4</title>
<g id="a_node10"><a xlink:href="file:///home/andrew/workspace/flow/flowstdlib/math/add/add.html" xlink:title="add2 (#4)">
<ellipse fill="coral" stroke="black" cx="280.39" cy="-178" rx="57.39" ry="18"/>
<text text-anchor="middle" x="280.39" y="-174.3" font-family="Times,serif" font-size="14.00">add2 (#4)</text>
</a>
</g>
</g>
<!-- r3&#45;&gt;r4 -->
<g id="edge12" class="edge">
<title>r3:se&#45;&gt;r4:n</title>
<path fill="none" stroke="black" d="M412.39,-247C454.26,-205.13 300.32,-252.63 282.13,-205.87"/>
<polygon fill="black" stroke="black" points="285.57,-205.24 280.39,-196 278.68,-206.46 285.57,-205.24"/>
<text text-anchor="middle" x="273.39" y="-199.8" font-family="Times,serif" font-size="14.00">i1</text>
<text text-anchor="middle" x="388.89" y="-235.8" font-family="Times,serif" font-size="14.00">/result</text>
</g>
<!-- initializerr3_1 -->
<!-- initializerr3_1&#45;&gt;r3 -->
<g id="edge11" class="edge">
<title>initializerr3_1&#45;&gt;r3:nw</title>
<path fill="none" stroke="blue" d="M332.15,-334.27C342.3,-322.16 356.82,-305.33 371.31,-290.24"/>
<polygon fill="blue" stroke="blue" points="373.9,-292.59 378.39,-283 368.9,-287.7 373.9,-292.59"/>
<text text-anchor="middle" x="365.39" y="-304.8" font-family="Times,serif" font-size="14.00">2</text>
</g>
<!-- r5 -->
<g id="node12" class="node">
<title>r5</title>
<g id="a_node12"><a xlink:href="file:///home/andrew/workspace/flow/flowstdlib/math/divide/divide.html" xlink:title="divide4 (#5)">
<ellipse fill="coral" stroke="black" cx="109.39" cy="-91" rx="68.49" ry="18"/>
<text text-anchor="middle" x="109.39" y="-87.3" font-family="Times,serif" font-size="14.00">divide4 (#5)</text>
</a>
</g>
</g>
<!-- r4&#45;&gt;r5 -->
<g id="edge14" class="edge">
<title>r4:se&#45;&gt;r5:n</title>
<path fill="none" stroke="black" d="M297.39,-160C355.98,-101.41 130.24,-187.55 110.73,-119.17"/>
<polygon fill="black" stroke="black" points="114.17,-118.46 109.39,-109 107.23,-119.37 114.17,-118.46"/>
<text text-anchor="middle" x="78.39" y="-112.8" font-family="Times,serif" font-size="14.00">dividend</text>
<text text-anchor="middle" x="279.89" y="-148.8" font-family="Times,serif" font-size="14.00">/sum</text>
</g>
<!-- initializerr4_1 -->
<!-- initializerr4_1&#45;&gt;r4 -->
<g id="edge13" class="edge">
<title>initializerr4_1&#45;&gt;r4:w</title>
<path fill="none" stroke="blue" d="M180.48,-246.6C182.78,-224.51 189.95,-188.26 212.27,-179.8"/>
<polygon fill="blue" stroke="blue" points="213.16,-183.2 222.39,-178 211.93,-176.31 213.16,-183.2"/>
<text text-anchor="middle" x="190.39" y="-217.8" font-family="Times,serif" font-size="14.00">2</text>
</g>
<!-- r6 -->
<g id="node14" class="node">
<title>r6</title>
<g id="a_node14"><a xlink:href="file:///home/andrew/workspace/flow/flowruntime/stdio/stdout.html" xlink:title="print (#6)">
<ellipse fill="coral" stroke="black" cx="126.39" cy="-18" rx="57.39" ry="18"/>
<text text-anchor="middle" x="126.39" y="-14.3" font-family="Times,serif" font-size="14.00">print (#6)</text>
</a>
</g>
</g>
<!-- r5&#45;&gt;r6 -->
<g id="edge16" class="edge">
<title>r5:se&#45;&gt;r6:n</title>
<path fill="none" stroke="black" d="M126.39,-73C135.39,-64.01 130.47,-56.63 127.78,-46.14"/>
<polygon fill="black" stroke="black" points="131.21,-45.43 126.39,-36 124.28,-46.38 131.21,-45.43"/>
<text text-anchor="middle" x="102.89" y="-61.8" font-family="Times,serif" font-size="14.00">/result</text>
</g>
<!-- initializerr5_1 -->
<!-- initializerr5_1&#45;&gt;r5 -->
<g id="edge15" class="edge">
<title>initializerr5_1&#45;&gt;r5:nw</title>
<path fill="none" stroke="blue" d="M75.02,-159.83C75.53,-147.21 77.92,-130.07 86.12,-116.95"/>
<polygon fill="blue" stroke="blue" points="88.95,-119.02 92.39,-109 83.45,-114.68 88.95,-119.02"/>
<text text-anchor="middle" x="85.39" y="-130.8" font-family="Times,serif" font-size="14.00">2</text>
</g>
</g>
</svg>
