<?xml version="1.0" encoding="UTF-8" standalone="no"?>
<!DOCTYPE svg PUBLIC "-//W3C//DTD SVG 1.1//EN"
 "http://www.w3.org/Graphics/SVG/1.1/DTD/svg11.dtd">
<!-- Generated by graphviz version 2.40.1 (0)
 -->
<!-- Title: pipeline Pages: 1 -->
<svg width="893pt" height="725pt"
 viewBox="0.00 0.00 893.49 725.00" xmlns="http://www.w3.org/2000/svg" xmlns:xlink="http://www.w3.org/1999/xlink">
<g id="graph0" class="graph" transform="scale(1 1) rotate(0) translate(4 721)">
<title>pipeline</title>
<polygon fill="#ffffff" stroke="transparent" points="-4,4 -4,-721 889.4867,-721 889.4867,4 -4,4"/>
<text text-anchor="middle" x="442.7434" y="-701.8" font-family="Times,serif" font-size="14.00" fill="#000000">/pipeline</text>
<g id="clust1" class="cluster">
<title>cluster_range</title>
<polygon fill="none" stroke="#000000" points="435.3933,-326 435.3933,-686 839.3933,-686 839.3933,-326 435.3933,-326"/>
<text text-anchor="middle" x="637.3933" y="-670.8" font-family="Times,serif" font-size="14.00" fill="#000000">/pipeline/range</text>
</g>
<!-- r0 -->
<g id="node1" class="node">
<title>r0</title>
<g id="a_node1"><a xlink:href="file:///home/andrew/workspace/flow/flowstdlib/control/compare_switch/compare_switch.toml" xlink:title="compare (#0)">
<ellipse fill="#ff7f50" stroke="#000000" cx="739.3933" cy="-512" rx="74.187" ry="18"/>
<text text-anchor="middle" x="739.3933" y="-508.3" font-family="Times,serif" font-size="14.00" fill="#000000">compare (#0)</text>
</a>
</g>
</g>
<!-- r0&#45;&gt;r0 -->
<g id="edge4" class="edge">
<title>r0:s&#45;&gt;r0:n</title>
<path fill="none" stroke="#000000" d="M739.3933,-494C788.0911,-485 885.4867,-485 885.4867,-512 885.4867,-537.2598 800.2414,-538.8878 749.3773,-531.6233"/>
<polygon fill="#000000" stroke="#000000" points="749.8254,-528.1502 739.3933,-530 748.702,-535.0595 749.8254,-528.1502"/>
<text text-anchor="middle" x="726.8933" y="-533.8" font-family="Times,serif" font-size="14.00" fill="#000000">left</text>
<text text-anchor="middle" x="714.8933" y="-482.8" font-family="Times,serif" font-size="14.00" fill="#000000">/left&#45;gt</text>
</g>
<!-- r2 -->
<g id="node4" class="node">
<title>r2</title>
<g id="a_node4"><a xlink:href="file:///home/andrew/workspace/flow/flowstdlib/math/add/add.toml" xlink:title="add1 (#2)">
<ellipse fill="#ff7f50" stroke="#000000" cx="523.3933" cy="-352" rx="57.3905" ry="18"/>
<text text-anchor="middle" x="523.3933" y="-348.3" font-family="Times,serif" font-size="14.00" fill="#000000">add1 (#2)</text>
</a>
</g>
</g>
<!-- r0&#45;&gt;r2 -->
<g id="edge3" class="edge">
<title>r0:e&#45;&gt;r2:n</title>
<path fill="none" stroke="#000000" d="M813.3933,-512C821.3933,-512 818.3062,-500.3138 813.3933,-494 793.4018,-468.3077 773.333,-486.1238 742.3933,-476 720.9793,-468.9931 715.9087,-466.3153 695.3933,-457 678.1017,-449.1485 556.2372,-403.655 528.8492,-378.5169"/>
<polygon fill="#000000" stroke="#000000" points="531.7346,-376.5325 523.3933,-370 525.8403,-380.3084 531.7346,-376.5325"/>
<text text-anchor="middle" x="516.3933" y="-373.8" font-family="Times,serif" font-size="14.00" fill="#000000">i1</text>
<text text-anchor="middle" x="845.3933" y="-515.8" font-family="Times,serif" font-size="14.00" fill="#000000">/right&#45;lte</text>
</g>
<!-- r1 -->
<g id="node5" class="node">
<title>r1</title>
<g id="a_node5"><a xlink:href="file:///home/andrew/workspace/flow/flowstdlib/math/add/add.toml" xlink:title="add (#1)">
<ellipse fill="#ff7f50" stroke="#000000" cx="705.3933" cy="-352" rx="51.1914" ry="18"/>
<text text-anchor="middle" x="705.3933" y="-348.3" font-family="Times,serif" font-size="14.00" fill="#000000">add (#1)</text>
</a>
</g>
</g>
<!-- r0&#45;&gt;r1 -->
<g id="edge5" class="edge">
<title>r0:e&#45;&gt;r1:n</title>
<path fill="none" stroke="#000000" d="M813.3933,-512C821.3933,-512 818.0526,-500.5031 813.3933,-494 798.9046,-473.7777 779.2626,-492.2116 760.3933,-476 722.8089,-443.7092 707.4638,-425.5824 705.5915,-380.129"/>
<polygon fill="#000000" stroke="#000000" points="709.0884,-379.9296 705.3933,-370 702.0897,-380.0666 709.0884,-379.9296"/>
<text text-anchor="middle" x="698.3933" y="-373.8" font-family="Times,serif" font-size="14.00" fill="#000000">i1</text>
<text text-anchor="middle" x="840.8933" y="-500.8" font-family="Times,serif" font-size="14.00" fill="#000000">/right&#45;lt</text>
</g>
<!-- initializerr0_0 -->
<!-- initializerr0_0&#45;&gt;r0 -->
<g id="edge1" class="edge">
<title>initializerr0_0&#45;&gt;r0:ne</title>
<path fill="none" stroke="#0000ff" stroke-dasharray="1,5" d="M763.3985,-618.9564C770.5295,-597.548 778.5973,-561.7588 763.6711,-537.8989"/>
<polygon fill="#0000ff" stroke="#0000ff" points="766.3553,-535.651 757.3933,-530 760.8752,-540.0064 766.3553,-535.651"/>
<text text-anchor="middle" x="780.8933" y="-570.8" font-family="Times,serif" font-size="14.00" fill="#000000">20</text>
</g>
<!-- initializerr0_1 -->
<!-- initializerr0_1&#45;&gt;r0 -->
<g id="edge2" class="edge">
<title>initializerr0_1&#45;&gt;r0:ne</title>
<path fill="none" stroke="#0000ff" stroke-dasharray="1,5" d="M574.3508,-621.8078C631.8687,-600.0144 732.0376,-560.228 754.1179,-539.5132"/>
<polygon fill="#0000ff" stroke="#0000ff" points="757.4471,-540.5947 757.3933,-530 750.8284,-538.3158 757.4471,-540.5947"/>
<text text-anchor="middle" x="709.3933" y="-570.8" font-family="Times,serif" font-size="14.00" fill="#000000">1</text>
</g>
<!-- r3 -->
<g id="node8" class="node">
<title>r3</title>
<g id="a_node8"><a xlink:href="file:///home/andrew/workspace/flow/flowstdlib/math/divide/divide.toml" xlink:title="divide2 (#3)">
<ellipse fill="#ff7f50" stroke="#000000" cx="395.3933" cy="-265" rx="68.4888" ry="18"/>
<text text-anchor="middle" x="395.3933" y="-261.3" font-family="Times,serif" font-size="14.00" fill="#000000">divide2 (#3)</text>
</a>
</g>
</g>
<!-- r2&#45;&gt;r3 -->
<g id="edge10" class="edge">
<title>r2:se&#45;&gt;r3:n</title>
<path fill="none" stroke="#000000" d="M540.3933,-335C586.1566,-289.2367 415.8244,-344.7064 397.0574,-293.0763"/>
<polygon fill="#000000" stroke="#000000" points="400.4761,-292.296 395.3933,-283 393.5696,-293.4367 400.4761,-292.296"/>
<text text-anchor="middle" x="364.3933" y="-286.8" font-family="Times,serif" font-size="14.00" fill="#000000">dividend</text>
<text text-anchor="middle" x="522.8933" y="-323.8" font-family="Times,serif" font-size="14.00" fill="#000000">/sum</text>
</g>
<!-- r1&#45;&gt;r0 -->
<g id="edge8" class="edge">
<title>r1:se&#45;&gt;r0:ne</title>
<path fill="none" stroke="#000000" d="M722.3933,-335C733.187,-324.2063 744.2621,-326.2055 756.7388,-335 818.067,-378.2289 800.6885,-420.0669 813.4867,-494 813.4867,-494 781.9342,-514.25 766.1579,-524.375"/>
<polygon fill="#000000" stroke="#000000" points="763.9188,-521.6532 757.3933,-530 767.6996,-527.5443 763.9188,-521.6532"/>
<text text-anchor="middle" x="775.3933" y="-533.8" font-family="Times,serif" font-size="14.00" fill="#000000">right</text>
<text text-anchor="middle" x="739.8933" y="-323.8" font-family="Times,serif" font-size="14.00" fill="#000000">/sum</text>
</g>
<!-- r1&#45;&gt;r1 -->
<g id="edge7" class="edge">
<title>r1:se&#45;&gt;r1:ne</title>
<path fill="none" stroke="#000000" d="M722.3933,-335C763.5085,-324.5 828.7388,-324.5 828.7388,-352 828.7388,-377.4053 773.0674,-379.3404 732.169,-371.2091"/>
<polygon fill="#000000" stroke="#000000" points="732.9189,-367.7904 722.3933,-369 731.3758,-374.6182 732.9189,-367.7904"/>
<text text-anchor="middle" x="715.3933" y="-372.8" font-family="Times,serif" font-size="14.00" fill="#000000">i2</text>
<text text-anchor="middle" x="712.8933" y="-323.8" font-family="Times,serif" font-size="14.00" fill="#000000">/i2</text>
</g>
<!-- initializerr1_1 -->
<!-- initializerr1_1&#45;&gt;r1 -->
<g id="edge6" class="edge">
<title>initializerr1_1&#45;&gt;r1:w</title>
<path fill="none" stroke="#0000ff" stroke-dasharray="1,5" d="M528.7956,-493.957C551.4156,-455.7089 606.0403,-368.7766 643.3654,-354.1176"/>
<polygon fill="#0000ff" stroke="#0000ff" points="644.3322,-357.4907 653.3933,-352 642.8859,-350.6417 644.3322,-357.4907"/>
<text text-anchor="middle" x="580.3933" y="-435.3" font-family="Times,serif" font-size="14.00" fill="#000000">1</text>
</g>
<!-- initializerr2_1 -->
<!-- initializerr2_1&#45;&gt;r2 -->
<g id="edge9" class="edge">
<title>initializerr2_1&#45;&gt;r2:w</title>
<path fill="none" stroke="#0000ff" d="M353.3156,-421.8116C383.314,-400.5178 433.5905,-365.7502 456.561,-355.1599"/>
<polygon fill="#0000ff" stroke="#0000ff" points="457.9438,-358.3919 466.3933,-352 455.802,-351.7276 457.9438,-358.3919"/>
<text text-anchor="middle" x="403.3933" y="-391.8" font-family="Times,serif" font-size="14.00" fill="#000000">1</text>
</g>
<!-- r4 -->
<g id="node10" class="node">
<title>r4</title>
<g id="a_node10"><a xlink:href="file:///home/andrew/workspace/flow/flowstdlib/math/add/add.toml" xlink:title="add2 (#4)">
<ellipse fill="#ff7f50" stroke="#000000" cx="280.3933" cy="-178" rx="57.3905" ry="18"/>
<text text-anchor="middle" x="280.3933" y="-174.3" font-family="Times,serif" font-size="14.00" fill="#000000">add2 (#4)</text>
</a>
</g>
</g>
<!-- r3&#45;&gt;r4 -->
<g id="edge12" class="edge">
<title>r3:se&#45;&gt;r4:n</title>
<path fill="none" stroke="#000000" d="M412.3933,-248C454.3673,-206.026 300.3277,-252.8784 282.1321,-205.9054"/>
<polygon fill="#000000" stroke="#000000" points="285.5696,-205.2442 280.3933,-196 278.675,-206.4546 285.5696,-205.2442"/>
<text text-anchor="middle" x="273.3933" y="-199.8" font-family="Times,serif" font-size="14.00" fill="#000000">i1</text>
<text text-anchor="middle" x="388.8933" y="-236.8" font-family="Times,serif" font-size="14.00" fill="#000000">/result</text>
</g>
<!-- initializerr3_1 -->
<!-- initializerr3_1&#45;&gt;r3 -->
<g id="edge11" class="edge">
<title>initializerr3_1&#45;&gt;r3:nw</title>
<path fill="none" stroke="#0000ff" d="M332.4755,-334.0802C342.5565,-321.5756 356.8514,-304.4716 371.3037,-289.2772"/>
<polygon fill="#0000ff" stroke="#0000ff" points="373.9221,-291.6052 378.3933,-282 368.9081,-286.7204 373.9221,-291.6052"/>
<text text-anchor="middle" x="363.3933" y="-304.8" font-family="Times,serif" font-size="14.00" fill="#000000">2</text>
</g>
<!-- r5 -->
<g id="node12" class="node">
<title>r5</title>
<g id="a_node12"><a xlink:href="file:///home/andrew/workspace/flow/flowstdlib/math/divide/divide.toml" xlink:title="divide4 (#5)">
<ellipse fill="#ff7f50" stroke="#000000" cx="109.3933" cy="-91" rx="68.4888" ry="18"/>
<text text-anchor="middle" x="109.3933" y="-87.3" font-family="Times,serif" font-size="14.00" fill="#000000">divide4 (#5)</text>
</a>
</g>
</g>
<!-- r4&#45;&gt;r5 -->
<g id="edge14" class="edge">
<title>r4:se&#45;&gt;r5:n</title>
<path fill="none" stroke="#000000" d="M297.3933,-161C356.0604,-102.3329 130.2442,-187.7338 110.7298,-119.1903"/>
<polygon fill="#000000" stroke="#000000" points="114.164,-118.4599 109.3933,-109 107.2235,-119.3702 114.164,-118.4599"/>
<text text-anchor="middle" x="78.3933" y="-112.8" font-family="Times,serif" font-size="14.00" fill="#000000">dividend</text>
<text text-anchor="middle" x="279.8933" y="-149.8" font-family="Times,serif" font-size="14.00" fill="#000000">/sum</text>
</g>
<!-- initializerr4_1 -->
<!-- initializerr4_1&#45;&gt;r4 -->
<g id="edge13" class="edge">
<title>initializerr4_1&#45;&gt;r4:w</title>
<path fill="none" stroke="#0000ff" d="M180.6216,-246.9735C183.1161,-224.477 190.6643,-187.9458 213.4776,-179.6928"/>
<polygon fill="#0000ff" stroke="#0000ff" points="214.1249,-183.133 223.3933,-178 212.9469,-176.2328 214.1249,-183.133"/>
<text text-anchor="middle" x="191.3933" y="-217.8" font-family="Times,serif" font-size="14.00" fill="#000000">2</text>
</g>
<!-- r6 -->
<g id="node14" class="node">
<title>r6</title>
<g id="a_node14"><a xlink:href="file:///home/andrew/workspace/flow/flowruntime/stdio/stdout.toml" xlink:title="print (#6)">
<ellipse fill="#ff7f50" stroke="#000000" cx="126.3933" cy="-18" rx="57.3905" ry="18"/>
<text text-anchor="middle" x="126.3933" y="-14.3" font-family="Times,serif" font-size="14.00" fill="#000000">print (#6)</text>
</a>
</g>
</g>
<!-- r5&#45;&gt;r6 -->
<g id="edge16" class="edge">
<title>r5:se&#45;&gt;r6:n</title>
<path fill="none" stroke="#000000" d="M126.3933,-74C135.7232,-64.6701 130.4751,-57.033 127.7327,-46.0849"/>
<polygon fill="#000000" stroke="#000000" points="131.1794,-45.4522 126.3933,-36 124.2404,-46.3738 131.1794,-45.4522"/>
<text text-anchor="middle" x="102.8933" y="-62.8" font-family="Times,serif" font-size="14.00" fill="#000000">/result</text>
</g>
<!-- initializerr5_1 -->
<!-- initializerr5_1&#45;&gt;r5 -->
<g id="edge15" class="edge">
<title>initializerr5_1&#45;&gt;r5:nw</title>
<path fill="none" stroke="#0000ff" d="M74.864,-159.6942C75.3313,-146.7305 77.7232,-129.3542 86.0362,-116.0596"/>
<polygon fill="#0000ff" stroke="#0000ff" points="88.9483,-118.0191 92.3933,-108 83.4522,-113.684 88.9483,-118.0191"/>
<text text-anchor="middle" x="85.3933" y="-130.8" font-family="Times,serif" font-size="14.00" fill="#000000">2</text>
</g>
</g>
</svg>
