<?xml version="1.0" encoding="UTF-8" standalone="no"?>
<!DOCTYPE svg PUBLIC "-//W3C//DTD SVG 1.1//EN"
 "http://www.w3.org/Graphics/SVG/1.1/DTD/svg11.dtd">
<!-- Generated by graphviz version 2.42.3 (20191010.1750)
 -->
<!-- Title: pipeline Pages: 1 -->
<svg width="632pt" height="723pt"
 viewBox="28.80 28.80 602.99 694.36" xmlns="http://www.w3.org/2000/svg" xmlns:xlink="http://www.w3.org/1999/xlink">
<g id="graph0" class="graph" transform="scale(1 1) rotate(0) translate(32.8 690.36)">
<title>pipeline</title>
<polygon fill="white" stroke="transparent" points="-4,4 -4,-661.56 570.19,-661.56 570.19,4 -4,4"/>
<text text-anchor="middle" x="283.09" y="-642.36" font-family="Times,serif" font-size="14.00">pipeline</text>
<!-- /pipeline/range -->
<g id="node1" class="node">
<title>/pipeline/range</title>
<g id="a_node1"><a xlink:href="lib://flowstdlib/math/sequence.dot" xlink:title="range">
<ellipse fill="aquamarine" stroke="black" cx="296.43" cy="-563.56" rx="72" ry="72"/>
<text text-anchor="middle" x="296.43" y="-559.36" font-family="Times,serif" font-size="14.00">range</text>
</a>
</g>
</g>
<!-- /pipeline/add1 -->
<g id="node2" class="node">
<title>/pipeline/add1</title>
<ellipse fill="coral" stroke="black" cx="207.43" cy="-416.1" rx="34.91" ry="25.41"/>
<text text-anchor="middle" x="207.43" y="-418.9" font-family="Times,serif" font-size="14.00">add1</text>
<text text-anchor="middle" x="207.43" y="-404.9" font-family="Times,serif" font-size="14.00">(Add)</text>
</g>
<!-- /pipeline/range&#45;&gt;/pipeline/add1 -->
<g id="edge5" class="edge">
<title>/pipeline/range:s&#45;&gt;/pipeline/add1:ne</title>
<path fill="none" stroke="black" d="M296.43,-491.56C296.43,-456.72 262.9,-463.45 236.39,-444.78"/>
<polygon fill="black" stroke="black" points="238.33,-441.85 228.43,-438.1 233.83,-447.21 238.33,-441.85"/>
<text text-anchor="middle" x="239.54" y="-460.76" font-family="Times,serif" font-size="14.00">sequence</text>
<text text-anchor="middle" x="233.87" y="-440.9" font-family="Times,serif" font-size="14.00">i1</text>
</g>
<!-- /pipeline/divide2 -->
<g id="node4" class="node">
<title>/pipeline/divide2</title>
<ellipse fill="coral" stroke="black" cx="352.43" cy="-315.19" rx="44.7" ry="25.41"/>
<text text-anchor="middle" x="352.43" y="-317.99" font-family="Times,serif" font-size="14.00">divide2</text>
<text text-anchor="middle" x="352.43" y="-303.99" font-family="Times,serif" font-size="14.00">(Divide)</text>
</g>
<!-- /pipeline/add1&#45;&gt;/pipeline/divide2 -->
<g id="edge6" class="edge">
<title>/pipeline/add1:sw&#45;&gt;/pipeline/divide2:w</title>
<path fill="none" stroke="black" d="M186.43,-394.1C147.42,-355.1 262.26,-382.3 298.43,-340.65 302.56,-335.89 301.21,-329 300.82,-323.59"/>
<polygon fill="black" stroke="black" points="303.78,-325.45 306.43,-315.19 297.96,-321.56 303.78,-325.45"/>
<text text-anchor="middle" x="236.17" y="-366.58" font-family="Times,serif" font-size="14.00">sum</text>
<text text-anchor="middle" x="281.93" y="-317.99" font-family="Times,serif" font-size="14.00">dividend</text>
</g>
<!-- initializer/pipeline/add1_1 -->
<!-- initializer/pipeline/add1_1&#45;&gt;/pipeline/add1 -->
<g id="edge1" class="edge">
<title>initializer/pipeline/add1_1&#45;&gt;/pipeline/add1:w</title>
<path fill="none" stroke="blue" d="M103.68,-545.47C105.15,-509.25 113.76,-427.24 161.37,-417.13"/>
<polygon fill="blue" stroke="blue" points="161.83,-420.6 171.43,-416.1 161.12,-413.64 161.83,-420.6"/>
<text text-anchor="middle" x="121.93" y="-462.36" font-family="Times,serif" font-size="14.00">1</text>
</g>
<!-- /pipeline/add2 -->
<g id="node6" class="node">
<title>/pipeline/add2</title>
<ellipse fill="coral" stroke="black" cx="287.43" cy="-214.28" rx="34.91" ry="25.41"/>
<text text-anchor="middle" x="287.43" y="-217.08" font-family="Times,serif" font-size="14.00">add2</text>
<text text-anchor="middle" x="287.43" y="-203.08" font-family="Times,serif" font-size="14.00">(Add)</text>
</g>
<!-- /pipeline/divide2&#45;&gt;/pipeline/add2 -->
<g id="edge7" class="edge">
<title>/pipeline/divide2:se&#45;&gt;/pipeline/add2:ne</title>
<path fill="none" stroke="black" d="M374.43,-292.19C399.27,-267.34 346.26,-263.92 316.21,-242.75"/>
<polygon fill="black" stroke="black" points="318.35,-239.98 308.43,-236.28 313.88,-245.36 318.35,-239.98"/>
<text text-anchor="middle" x="328.81" y="-259.9" font-family="Times,serif" font-size="14.00">result</text>
<text text-anchor="middle" x="313.87" y="-239.08" font-family="Times,serif" font-size="14.00">i1</text>
</g>
<!-- initializer/pipeline/divide2_1 -->
<!-- initializer/pipeline/divide2_1&#45;&gt;/pipeline/divide2 -->
<g id="edge2" class="edge">
<title>initializer/pipeline/divide2_1&#45;&gt;/pipeline/divide2:nw</title>
<path fill="none" stroke="blue" d="M352.86,-398.38C337.37,-384.17 319.65,-363.49 324.95,-346.91"/>
<polygon fill="blue" stroke="blue" points="328.07,-348.52 330.43,-338.19 322.14,-344.8 328.07,-348.52"/>
<text text-anchor="middle" x="332.93" y="-361.45" font-family="Times,serif" font-size="14.00">2</text>
</g>
<!-- /pipeline/divide4 -->
<g id="node8" class="node">
<title>/pipeline/divide4</title>
<ellipse fill="coral" stroke="black" cx="431.43" cy="-113.37" rx="44.7" ry="25.41"/>
<text text-anchor="middle" x="431.43" y="-116.17" font-family="Times,serif" font-size="14.00">divide4</text>
<text text-anchor="middle" x="431.43" y="-102.17" font-family="Times,serif" font-size="14.00">(Divide)</text>
</g>
<!-- /pipeline/add2&#45;&gt;/pipeline/divide4 -->
<g id="edge8" class="edge">
<title>/pipeline/add2:sw&#45;&gt;/pipeline/divide4:w</title>
<path fill="none" stroke="black" d="M266.43,-192.28C223.92,-149.77 311.78,-116.99 375.1,-113.65"/>
<polygon fill="black" stroke="black" points="375.52,-117.14 385.43,-113.37 375.33,-110.14 375.52,-117.14"/>
<text text-anchor="middle" x="305.73" y="-126.36" font-family="Times,serif" font-size="14.00">sum</text>
<text text-anchor="middle" x="360.93" y="-116.17" font-family="Times,serif" font-size="14.00">dividend</text>
</g>
<!-- initializer/pipeline/add2_1 -->
<!-- initializer/pipeline/add2_1&#45;&gt;/pipeline/add2 -->
<g id="edge3" class="edge">
<title>initializer/pipeline/add2_1&#45;&gt;/pipeline/add2:w</title>
<path fill="none" stroke="blue" d="M189.51,-296.79C195.15,-270.73 209.59,-223.76 241.47,-215.53"/>
<polygon fill="blue" stroke="blue" points="241.94,-218.99 251.43,-214.28 241.07,-212.05 241.94,-218.99"/>
<text text-anchor="middle" x="204.93" y="-260.54" font-family="Times,serif" font-size="14.00">2</text>
</g>
<!-- /pipeline/print -->
<g id="node10" class="node">
<title>/pipeline/print</title>
<ellipse fill="coral" stroke="black" cx="497.43" cy="-25.46" rx="43.53" ry="25.41"/>
<text text-anchor="middle" x="497.43" y="-28.26" font-family="Times,serif" font-size="14.00">print</text>
<text text-anchor="middle" x="497.43" y="-14.26" font-family="Times,serif" font-size="14.00">(Stdout)</text>
</g>
<!-- /pipeline/divide4&#45;&gt;/pipeline/print -->
<g id="edge9" class="edge">
<title>/pipeline/divide4:se&#45;&gt;/pipeline/print:w</title>
<path fill="none" stroke="black" d="M453.43,-90.37C469.84,-73.95 440.51,-41.92 443.46,-30.04"/>
<polygon fill="black" stroke="black" points="445.11,-33.12 452.43,-25.46 441.93,-26.89 445.11,-33.12"/>
<text text-anchor="middle" x="437.71" y="-60.76" font-family="Times,serif" font-size="14.00">result</text>
</g>
<!-- initializer/pipeline/divide4_1 -->
<!-- initializer/pipeline/divide4_1&#45;&gt;/pipeline/divide4 -->
<g id="edge4" class="edge">
<title>initializer/pipeline/divide4_1&#45;&gt;/pipeline/divide4:nw</title>
<path fill="none" stroke="blue" d="M432.16,-196.29C416.47,-182.09 398.68,-161.58 403.96,-145.07"/>
<polygon fill="blue" stroke="blue" points="407.07,-146.7 409.43,-136.37 401.14,-142.97 407.07,-146.7"/>
<text text-anchor="middle" x="411.93" y="-159.62" font-family="Times,serif" font-size="14.00">2</text>
</g>
</g>
</svg>
