<?xml version="1.0" encoding="UTF-8" standalone="no"?>
<!DOCTYPE svg PUBLIC "-//W3C//DTD SVG 1.1//EN"
 "http://www.w3.org/Graphics/SVG/1.1/DTD/svg11.dtd">
<!-- Generated by graphviz version 2.42.3 (20191010.1750)
 -->
<!-- Title: range Pages: 1 -->
<svg width="981pt" height="433pt"
 viewBox="28.80 28.80 952.67 404.62" xmlns="http://www.w3.org/2000/svg" xmlns:xlink="http://www.w3.org/1999/xlink">
<g id="graph0" class="graph" transform="scale(1 1) rotate(0) translate(32.8 400.62)">
<title>range</title>
<polygon fill="white" stroke="transparent" points="-4,4 -4,-371.82 919.87,-371.82 919.87,4 -4,4"/>
<text text-anchor="middle" x="457.94" y="-352.62" font-family="Times,serif" font-size="14.00">range</text>
<!-- /pipeline/range/start -->
<g id="node1" class="node">
<title>/pipeline/range/start</title>
<polygon fill="white" stroke="black" points="586.23,-333.39 555.1,-345.82 523.97,-333.39 524,-313.26 586.2,-313.26 586.23,-333.39"/>
<text text-anchor="middle" x="555.1" y="-323.62" font-family="Times,serif" font-size="14.00">start</text>
</g>
<!-- /pipeline/range/compare -->
<g id="node6" class="node">
<title>/pipeline/range/compare</title>
<ellipse fill="coral" stroke="black" cx="530.1" cy="-180.37" rx="81.89" ry="25.41"/>
<text text-anchor="middle" x="530.1" y="-183.17" font-family="Times,serif" font-size="14.00">compare</text>
<text text-anchor="middle" x="530.1" y="-169.17" font-family="Times,serif" font-size="14.00">(CompareSwitch)</text>
</g>
<!-- /pipeline/range/start&#45;&gt;/pipeline/range/compare -->
<g id="edge4" class="edge">
<title>/pipeline/range/start:s&#45;&gt;/pipeline/range/compare:ne</title>
<path fill="none" stroke="black" d="M555.1,-311.82C555.1,-268.39 583.41,-243.26 561.73,-213.5"/>
<polygon fill="black" stroke="black" points="564.29,-211.1 555.1,-205.82 558.99,-215.68 564.29,-211.1"/>
<text text-anchor="middle" x="541.88" y="-208.62" font-family="Times,serif" font-size="14.00">right</text>
</g>
<!-- /pipeline/range/end -->
<g id="node2" class="node">
<title>/pipeline/range/end</title>
<polygon fill="white" stroke="black" points="661.15,-333.39 633.1,-345.82 605.05,-333.39 605.07,-313.26 661.13,-313.26 661.15,-333.39"/>
<text text-anchor="middle" x="633.1" y="-323.62" font-family="Times,serif" font-size="14.00">end</text>
</g>
<!-- /pipeline/range/end&#45;&gt;/pipeline/range/compare -->
<g id="edge5" class="edge">
<title>/pipeline/range/end:s&#45;&gt;/pipeline/range/compare:ne</title>
<path fill="none" stroke="black" d="M633.1,-311.82C633.1,-266.62 613.05,-256.77 582.1,-223.82 575,-216.27 569.43,-215.54 563.07,-211.95"/>
<polygon fill="black" stroke="black" points="565.16,-209.14 555.1,-205.82 560.9,-214.69 565.16,-209.14"/>
<text text-anchor="middle" x="564.43" y="-208.62" font-family="Times,serif" font-size="14.00">left</text>
</g>
<!-- /pipeline/range/step -->
<g id="node3" class="node">
<title>/pipeline/range/step</title>
<polygon fill="white" stroke="black" points="287.3,-333.39 257.1,-345.82 226.9,-333.39 226.93,-313.26 287.27,-313.26 287.3,-333.39"/>
<text text-anchor="middle" x="257.1" y="-323.62" font-family="Times,serif" font-size="14.00">step</text>
</g>
<!-- /pipeline/range/add -->
<g id="node9" class="node">
<title>/pipeline/range/add</title>
<ellipse fill="coral" stroke="black" cx="331.1" cy="-79.46" rx="34.91" ry="25.41"/>
<text text-anchor="middle" x="331.1" y="-82.26" font-family="Times,serif" font-size="14.00">add</text>
<text text-anchor="middle" x="331.1" y="-68.26" font-family="Times,serif" font-size="14.00">(Add)</text>
</g>
<!-- /pipeline/range/step&#45;&gt;/pipeline/range/add -->
<g id="edge6" class="edge">
<title>/pipeline/range/step:s&#45;&gt;/pipeline/range/add:w</title>
<path fill="none" stroke="black" d="M257.1,-311.82C257.1,-263.08 244.67,-103.47 285.28,-81.88"/>
<polygon fill="black" stroke="black" points="286.23,-85.25 295.1,-79.46 284.55,-78.46 286.23,-85.25"/>
<text text-anchor="middle" x="289.65" y="-82.26" font-family="Times,serif" font-size="14.00">i2</text>
</g>
<!-- /pipeline/range/sequence -->
<g id="node4" class="node">
<title>/pipeline/range/sequence</title>
<polygon fill="black" stroke="black" points="372.5,-12.44 425.1,0 477.7,-12.44 477.65,-32.56 372.55,-32.56 372.5,-12.44"/>
<text text-anchor="middle" x="425.1" y="-13.8" font-family="Times,serif" font-size="14.00" fill="white">sequence</text>
</g>
<!-- /pipeline/range/last -->
<g id="node5" class="node">
<title>/pipeline/range/last</title>
<polygon fill="black" stroke="black" points="495.25,-12.44 523.1,0 550.95,-12.44 550.92,-32.56 495.28,-32.56 495.25,-12.44"/>
<text text-anchor="middle" x="523.1" y="-13.8" font-family="Times,serif" font-size="14.00" fill="white">last</text>
</g>
<!-- /pipeline/range/compare&#45;&gt;/pipeline/range/sequence -->
<g id="edge8" class="edge">
<title>/pipeline/range/compare:s&#45;&gt;/pipeline/range/sequence:n</title>
<path fill="none" stroke="black" d="M530.1,-154.91C530.1,-122.52 443.12,-78.41 427.49,-43.91"/>
<polygon fill="black" stroke="black" points="430.85,-42.9 425.1,-34 424.04,-44.54 430.85,-42.9"/>
<text text-anchor="middle" x="454.85" y="-97.09" font-family="Times,serif" font-size="14.00">right&#45;lte</text>
</g>
<!-- /pipeline/range/compare&#45;&gt;/pipeline/range/last -->
<g id="edge12" class="edge">
<title>/pipeline/range/compare:s&#45;&gt;/pipeline/range/last:n</title>
<path fill="none" stroke="black" d="M530.1,-154.91C530.1,-104.66 524,-89.77 523.19,-44.21"/>
<polygon fill="black" stroke="black" points="526.69,-43.97 523.1,-34 519.69,-44.03 526.69,-43.97"/>
<text text-anchor="middle" x="502.46" y="-96.93" font-family="Times,serif" font-size="14.00">right&#45;gte</text>
</g>
<!-- /pipeline/range/compare&#45;&gt;/pipeline/range/compare -->
<g id="edge9" class="edge">
<title>/pipeline/range/compare:s&#45;&gt;/pipeline/range/compare:ne</title>
<path fill="none" stroke="black" d="M530.1,-154.37C563.33,-141.87 629.79,-141.87 629.79,-179.87 629.79,-214.31 595.74,-217.53 564.62,-208.53"/>
<polygon fill="black" stroke="black" points="565.69,-205.2 555.1,-205.37 563.48,-211.84 565.69,-205.2"/>
<text text-anchor="middle" x="517.04" y="-141.76" font-family="Times,serif" font-size="14.00">left&#45;gt</text>
<text text-anchor="middle" x="564.43" y="-208.17" font-family="Times,serif" font-size="14.00">left</text>
</g>
<!-- /pipeline/range/compare&#45;&gt;/pipeline/range/add -->
<g id="edge10" class="edge">
<title>/pipeline/range/compare:sw&#45;&gt;/pipeline/range/add:ne</title>
<path fill="none" stroke="black" d="M505.1,-154.91C475.02,-124.83 450.83,-152.1 411.1,-136.91 386.1,-127.35 376.24,-123.94 359.67,-108.74"/>
<polygon fill="black" stroke="black" points="361.73,-105.87 352.1,-101.46 356.88,-110.91 361.73,-105.87"/>
<text text-anchor="middle" x="391.65" y="-139.71" font-family="Times,serif" font-size="14.00">right&#45;lt</text>
<text text-anchor="middle" x="346.65" y="-104.26" font-family="Times,serif" font-size="14.00">i1</text>
</g>
<!-- initializer/pipeline/range/compare_0 -->
<!-- initializer/pipeline/range/compare_0&#45;&gt;/pipeline/range/compare -->
<g id="edge1" class="edge">
<title>initializer/pipeline/range/compare_0&#45;&gt;/pipeline/range/compare:ne</title>
<path fill="none" stroke="blue" stroke-dasharray="1,5" d="M734.94,-256.57C707.37,-246.32 670.42,-233.27 637.1,-223.82 604.85,-214.68 585.66,-228.73 562.96,-212.55"/>
<polygon fill="blue" stroke="blue" points="564.97,-209.67 555.1,-205.82 560.42,-214.99 564.97,-209.67"/>
<text text-anchor="middle" x="686.1" y="-226.62" font-family="Times,serif" font-size="14.00">20</text>
</g>
<!-- initializer/pipeline/range/compare_1 -->
<!-- initializer/pipeline/range/compare_1&#45;&gt;/pipeline/range/compare -->
<g id="edge2" class="edge">
<title>initializer/pipeline/range/compare_1&#45;&gt;/pipeline/range/compare:ne</title>
<path fill="none" stroke="blue" stroke-dasharray="1,5" d="M455.39,-256.65C489.66,-243.68 533.89,-225.81 549.78,-214.41"/>
<polygon fill="blue" stroke="blue" points="552.81,-216.17 555.1,-205.82 546.86,-212.48 552.81,-216.17"/>
<text text-anchor="middle" x="535.6" y="-226.62" font-family="Times,serif" font-size="14.00">1</text>
</g>
<!-- /pipeline/range/add&#45;&gt;/pipeline/range/compare -->
<g id="edge11" class="edge">
<title>/pipeline/range/add:sw&#45;&gt;/pipeline/range/compare:ne</title>
<path fill="none" stroke="black" d="M310.1,-57.46C305.7,-53.06 300.38,-53.9 296.14,-58.46 282.08,-73.57 282.73,-89.21 296.14,-104.91 297.59,-106.6 610.35,-153.22 611.79,-154.91 626.36,-171.96 627.51,-189.37 611.79,-205.37 604.82,-212.46 579.1,-214.53 564.18,-210.71"/>
<polygon fill="black" stroke="black" points="565.63,-207.52 555.1,-206.37 562.61,-213.84 565.63,-207.52"/>
<text text-anchor="middle" x="421.64" y="-115.53" font-family="Times,serif" font-size="14.00">sum</text>
<text text-anchor="middle" x="541.88" y="-209.17" font-family="Times,serif" font-size="14.00">right</text>
</g>
<!-- /pipeline/range/add&#45;&gt;/pipeline/range/add -->
<g id="edge7" class="edge">
<title>/pipeline/range/add:e&#45;&gt;/pipeline/range/add:w</title>
<path fill="none" stroke="black" d="M366.1,-79.46C384.05,-96.27 384.05,-129.91 331.1,-129.91 285.59,-129.91 279.19,-105.07 289.69,-87.41"/>
<polygon fill="black" stroke="black" points="292.55,-89.44 296.1,-79.46 287.1,-85.04 292.55,-89.44"/>
<text text-anchor="middle" x="371.55" y="-82.26" font-family="Times,serif" font-size="14.00">i2</text>
<text text-anchor="middle" x="290.65" y="-68.26" font-family="Times,serif" font-size="14.00">i2</text>
</g>
<!-- initializer/pipeline/range/add_1 -->
<!-- initializer/pipeline/range/add_1&#45;&gt;/pipeline/range/add -->
<g id="edge3" class="edge">
<title>initializer/pipeline/range/add_1&#45;&gt;/pipeline/range/add:w</title>
<path fill="none" stroke="blue" stroke-dasharray="1,5" d="M137.09,-162.42C164.34,-135.36 222.91,-84.92 285.09,-79.87"/>
<polygon fill="blue" stroke="blue" points="285.25,-83.36 295.1,-79.46 284.96,-76.37 285.25,-83.36"/>
<text text-anchor="middle" x="186.6" y="-125.71" font-family="Times,serif" font-size="14.00">1</text>
</g>
</g>
</svg>
