<?xml version="1.0" encoding="UTF-8" standalone="no"?>
<!DOCTYPE svg PUBLIC "-//W3C//DTD SVG 1.1//EN"
 "http://www.w3.org/Graphics/SVG/1.1/DTD/svg11.dtd">
<!-- Generated by graphviz version 2.43.0 (0)
 -->
<!-- Title: sequence Pages: 1 -->
<svg width="1024pt" height="424pt"
 viewBox="28.80 28.80 994.89 395.54" xmlns="http://www.w3.org/2000/svg" xmlns:xlink="http://www.w3.org/1999/xlink">
<g id="page0,1_graph0" class="graph" transform="scale(1 1) rotate(0) translate(32.8 391.54)">
<title>sequence</title>
<polygon fill="white" stroke="transparent" points="-4,4 -4,-362.74 962.09,-362.74 962.09,4 -4,4"/>
<text text-anchor="middle" x="479.05" y="-343.54" font-family="Times,serif" font-size="14.00">sequence</text>
<!-- /pipeline/sequence/start -->
<g id="node1" class="node">
<title>/pipeline/sequence/start</title>
<polygon fill="white" stroke="black" points="520.7,-323.3 479.76,-335.74 438.81,-323.3 438.85,-303.18 520.66,-303.18 520.7,-323.3"/>
<text text-anchor="middle" x="479.76" y="-314.04" font-family="Times,serif" font-size="14.00">start</text>
</g>
<!-- /pipeline/sequence/compare -->
<g id="node6" class="node">
<title>/pipeline/sequence/compare</title>
<g id="a_node6"><a xlink:href="../../flowstdlib/control/compare_switch/compare_switch.html" xlink:title="compare\n(compare_switch)">
<ellipse fill="coral" stroke="black" cx="501.76" cy="-167.87" rx="100.32" ry="26.74"/>
<text text-anchor="middle" x="501.76" y="-171.67" font-family="Times,serif" font-size="14.00">compare</text>
<text text-anchor="middle" x="501.76" y="-156.67" font-family="Times,serif" font-size="14.00">(compare_switch)</text>
</a>
</g>
</g>
<!-- /pipeline/sequence/start&#45;&gt;/pipeline/sequence/compare -->
<g id="edge4" class="edge">
<title>/pipeline/sequence/start:s&#45;&gt;/pipeline/sequence/compare:ne</title>
<path fill="none" stroke="black" d="M479.76,-301.74C479.76,-279.14 529.71,-229.13 530.96,-204.23"/>
<polygon fill="black" stroke="black" points="534.28,-203.09 527.76,-194.74 527.64,-205.33 534.28,-203.09"/>
<text text-anchor="middle" x="509.76" y="-198.54" font-family="Times,serif" font-size="14.00">right</text>
</g>
<!-- /pipeline/sequence/end -->
<g id="node2" class="node">
<title>/pipeline/sequence/end</title>
<polygon fill="white" stroke="black" points="608.35,-323.3 573.76,-335.74 539.17,-323.3 539.2,-303.18 608.32,-303.18 608.35,-323.3"/>
<text text-anchor="middle" x="573.76" y="-314.04" font-family="Times,serif" font-size="14.00">end</text>
</g>
<!-- /pipeline/sequence/end&#45;&gt;/pipeline/sequence/compare -->
<g id="edge5" class="edge">
<title>/pipeline/sequence/end:s&#45;&gt;/pipeline/sequence/compare:ne</title>
<path fill="none" stroke="black" d="M573.76,-301.74C573.76,-291.11 543.49,-222.25 538.76,-212.74 536.67,-208.54 535.58,-205.7 534.18,-203.08"/>
<polygon fill="black" stroke="black" points="536.63,-200.53 527.76,-194.74 531.09,-204.8 536.63,-200.53"/>
<text text-anchor="middle" x="540.26" y="-198.54" font-family="Times,serif" font-size="14.00">left</text>
</g>
<!-- /pipeline/sequence/step -->
<g id="node3" class="node">
<title>/pipeline/sequence/step</title>
<polygon fill="white" stroke="black" points="75.28,-323.3 37.76,-335.74 0.24,-323.3 0.27,-303.18 75.24,-303.18 75.28,-323.3"/>
<text text-anchor="middle" x="37.76" y="-314.04" font-family="Times,serif" font-size="14.00">step</text>
</g>
<!-- /pipeline/sequence/add -->
<g id="node9" class="node">
<title>/pipeline/sequence/add</title>
<g id="a_node9"><a xlink:href="../../flowstdlib/math/add/add.html" xlink:title="add">
<ellipse fill="coral" stroke="black" cx="313.76" cy="-72" rx="27.9" ry="18"/>
<text text-anchor="middle" x="313.76" y="-68.3" font-family="Times,serif" font-size="14.00">add</text>
</a>
</g>
</g>
<!-- /pipeline/sequence/step&#45;&gt;/pipeline/sequence/add -->
<g id="edge6" class="edge">
<title>/pipeline/sequence/step:s&#45;&gt;/pipeline/sequence/add:w</title>
<path fill="none" stroke="black" d="M37.76,-301.74C37.76,-230.03 6.4,-196.54 51.76,-141 83.98,-101.55 214.71,-75.13 274.75,-72.26"/>
<polygon fill="black" stroke="black" points="274.85,-75.76 284.76,-72 274.67,-68.76 274.85,-75.76"/>
<text text-anchor="middle" x="277.76" y="-75.8" font-family="Times,serif" font-size="14.00">i2</text>
</g>
<!-- /pipeline/sequence/sequence -->
<g id="node4" class="node">
<title>/pipeline/sequence/sequence</title>
<polygon fill="black" stroke="black" points="357.9,-12.44 424.76,0 491.62,-12.44 491.56,-32.56 357.96,-32.56 357.9,-12.44"/>
<text text-anchor="middle" x="424.76" y="-14.3" font-family="Times,serif" font-size="14.00" fill="white">sequence</text>
</g>
<!-- /pipeline/sequence/last -->
<g id="node5" class="node">
<title>/pipeline/sequence/last</title>
<polygon fill="black" stroke="black" points="509.17,-12.44 543.76,0 578.35,-12.44 578.32,-32.56 509.2,-32.56 509.17,-12.44"/>
<text text-anchor="middle" x="543.76" y="-14.3" font-family="Times,serif" font-size="14.00" fill="white">last</text>
</g>
<!-- /pipeline/sequence/compare&#45;&gt;/pipeline/sequence/sequence -->
<g id="edge8" class="edge">
<title>/pipeline/sequence/compare:s&#45;&gt;/pipeline/sequence/sequence:n</title>
<path fill="none" stroke="black" d="M501.76,-141C501.76,-86.07 434.08,-91.59 425.62,-44.21"/>
<polygon fill="black" stroke="black" points="429.09,-43.67 424.76,-34 422.11,-44.26 429.09,-43.67"/>
<text text-anchor="middle" x="433.56" y="-91.18" font-family="Times,serif" font-size="14.00">right&#45;lte</text>
</g>
<!-- /pipeline/sequence/compare&#45;&gt;/pipeline/sequence/last -->
<g id="edge12" class="edge">
<title>/pipeline/sequence/compare:s&#45;&gt;/pipeline/sequence/last:n</title>
<path fill="none" stroke="black" d="M501.76,-141C501.76,-129.69 514.09,-132.79 519.76,-123 538.43,-90.72 542.99,-77.41 543.66,-44.39"/>
<polygon fill="black" stroke="black" points="547.17,-44.03 543.76,-34 540.17,-43.97 547.17,-44.03"/>
<text text-anchor="middle" x="503.46" y="-96.17" font-family="Times,serif" font-size="14.00">right&#45;gte</text>
</g>
<!-- /pipeline/sequence/compare&#45;&gt;/pipeline/sequence/compare -->
<g id="edge9" class="edge">
<title>/pipeline/sequence/compare:s&#45;&gt;/pipeline/sequence/compare:ne</title>
<path fill="none" stroke="black" d="M501.76,-140.87C541.23,-127.87 620.17,-127.87 620.17,-167.37 620.17,-203.63 575.56,-206.6 537.71,-196.79"/>
<polygon fill="black" stroke="black" points="538.34,-193.33 527.76,-193.87 536.37,-200.05 538.34,-193.33"/>
<text text-anchor="middle" x="485.06" y="-128.07" font-family="Times,serif" font-size="14.00">left&#45;gt</text>
<text text-anchor="middle" x="515.26" y="-182.67" font-family="Times,serif" font-size="14.00">left</text>
</g>
<!-- /pipeline/sequence/compare&#45;&gt;/pipeline/sequence/add -->
<g id="edge10" class="edge">
<title>/pipeline/sequence/compare:sw&#45;&gt;/pipeline/sequence/add:ne</title>
<path fill="none" stroke="black" d="M475.76,-141C454.56,-119.8 439.08,-132.82 410.76,-123 377.33,-111.41 360.64,-115.58 337.26,-95.91"/>
<polygon fill="black" stroke="black" points="339.48,-93.2 329.76,-89 334.74,-98.35 339.48,-93.2"/>
<text text-anchor="middle" x="375.57" y="-123.71" font-family="Times,serif" font-size="14.00">right&#45;lt</text>
<text text-anchor="middle" x="336.76" y="-92.8" font-family="Times,serif" font-size="14.00">i1</text>
</g>
<!-- initializer/pipeline/sequence/compare_0 -->
<!-- initializer/pipeline/sequence/compare_0&#45;&gt;/pipeline/sequence/compare -->
<g id="edge1" class="edge">
<title>initializer/pipeline/sequence/compare_0&#45;&gt;/pipeline/sequence/compare:ne</title>
<path fill="none" stroke="blue" stroke-dasharray="1,5" d="M696.3,-246.83C639.63,-232.99 563.67,-213.15 536.54,-200.17"/>
<polygon fill="blue" stroke="blue" points="538.1,-197.02 527.76,-194.74 534.42,-202.98 538.1,-197.02"/>
<text text-anchor="middle" x="628.26" y="-216.54" font-family="Times,serif" font-size="14.00">20</text>
</g>
<!-- initializer/pipeline/sequence/compare_1 -->
<!-- initializer/pipeline/sequence/compare_1&#45;&gt;/pipeline/sequence/compare -->
<g id="edge2" class="edge">
<title>initializer/pipeline/sequence/compare_1&#45;&gt;/pipeline/sequence/compare:ne</title>
<path fill="none" stroke="blue" stroke-dasharray="1,5" d="M351.61,-246.63C409.26,-231.22 490.98,-208.93 518.43,-199.24"/>
<polygon fill="blue" stroke="blue" points="520.27,-202.24 527.76,-194.74 517.23,-195.93 520.27,-202.24"/>
<text text-anchor="middle" x="476.76" y="-216.54" font-family="Times,serif" font-size="14.00">1</text>
</g>
<!-- /pipeline/sequence/add&#45;&gt;/pipeline/sequence/compare -->
<g id="edge11" class="edge">
<title>/pipeline/sequence/add:e&#45;&gt;/pipeline/sequence/compare:ne</title>
<path fill="none" stroke="black" d="M342.76,-72C428.91,-72 446.4,-101.27 529.76,-123 561.85,-131.36 581.74,-114.88 602.17,-141 616.64,-159.51 618.67,-177.14 602.17,-193.87 592.5,-203.66 555.5,-205.95 536.61,-199.7"/>
<polygon fill="black" stroke="black" points="538.21,-196.59 527.76,-194.87 534.86,-202.73 538.21,-196.59"/>
<text text-anchor="middle" x="545.76" y="-198.67" font-family="Times,serif" font-size="14.00">right</text>
</g>
<!-- /pipeline/sequence/add&#45;&gt;/pipeline/sequence/add -->
<g id="edge7" class="edge">
<title>/pipeline/sequence/add:e&#45;&gt;/pipeline/sequence/add:w</title>
<path fill="none" stroke="black" d="M341.76,-72C359.71,-85 359.71,-111 313.76,-111 275.35,-111 269.05,-92.83 278.5,-79.28"/>
<polygon fill="black" stroke="black" points="281.17,-81.55 285.76,-72 276.22,-76.61 281.17,-81.55"/>
<text text-anchor="middle" x="348.77" y="-75.8" font-family="Times,serif" font-size="14.00">i2</text>
<text text-anchor="middle" x="278.76" y="-60.8" font-family="Times,serif" font-size="14.00">i2</text>
</g>
<!-- initializer/pipeline/sequence/add_1 -->
<!-- initializer/pipeline/sequence/add_1&#45;&gt;/pipeline/sequence/add -->
<g id="edge3" class="edge">
<title>initializer/pipeline/sequence/add_1&#45;&gt;/pipeline/sequence/add:w</title>
<path fill="none" stroke="blue" stroke-dasharray="1,5" d="M227.63,-149.47C232.71,-124.76 245.62,-81.57 274.73,-73.37"/>
<polygon fill="blue" stroke="blue" points="275.32,-76.82 284.76,-72 274.38,-69.88 275.32,-76.82"/>
<text text-anchor="middle" x="245.76" y="-111.8" font-family="Times,serif" font-size="14.00">1</text>
</g>
</g>
</svg>
