<?xml version="1.0" encoding="UTF-8" standalone="no"?>
<!DOCTYPE svg PUBLIC "-//W3C//DTD SVG 1.1//EN"
 "http://www.w3.org/Graphics/SVG/1.1/DTD/svg11.dtd">
<!-- Generated by graphviz version 2.40.1 (0)
 -->
<!-- Title: range Pages: 1 -->
<svg width="1214pt" height="442pt"
 viewBox="28.80 28.80 1185.22 413.28" xmlns="http://www.w3.org/2000/svg" xmlns:xlink="http://www.w3.org/1999/xlink">
<g id="graph0" class="graph" transform="scale(1 1) rotate(0) translate(32.8 409.2802)">
<title>range</title>
<polygon fill="#ffffff" stroke="transparent" points="-4,4 -4,-380.4802 1152.4204,-380.4802 1152.4204,4 -4,4"/>
<text text-anchor="middle" x="574.2102" y="-361.2802" font-family="Times,serif" font-size="14.00" fill="#000000">range</text>
<!-- /pipeline/range/start -->
<g id="node1" class="node">
<title>/pipeline/range/start</title>
<polygon fill="#ffffff" stroke="#000000" points="738.2803,-341.0425 697.3362,-353.4802 656.3922,-341.0425 656.4304,-320.9179 738.2421,-320.9179 738.2803,-341.0425"/>
<text text-anchor="middle" x="697.3362" y="-331.7802" font-family="Times,serif" font-size="14.00" fill="#000000">start</text>
</g>
<!-- /pipeline/range/compare -->
<g id="node6" class="node">
<title>/pipeline/range/compare</title>
<g id="a_node6"><a xlink:href="../../flowstdlib/control/compare_switch/compare_switch.toml" xlink:title="compare\n(CompareSwitch)">
<ellipse fill="#ff7f50" stroke="#000000" cx="669.3362" cy="-185.6102" rx="98.9899" ry="26.7407"/>
<text text-anchor="middle" x="669.3362" y="-189.4102" font-family="Times,serif" font-size="14.00" fill="#000000">compare</text>
<text text-anchor="middle" x="669.3362" y="-174.4102" font-family="Times,serif" font-size="14.00" fill="#000000">(CompareSwitch)</text>
</a>
</g>
</g>
<!-- /pipeline/range/start&#45;&gt;/pipeline/range/compare -->
<g id="edge4" class="edge">
<title>/pipeline/range/start:s&#45;&gt;/pipeline/range/compare:ne</title>
<path fill="none" stroke="#000000" d="M697.3362,-320.4802C697.3362,-275.8662 724.7188,-250.068 702.1871,-219.4991"/>
<polygon fill="#000000" stroke="#000000" points="704.5357,-216.8656 695.3362,-211.6102 699.2505,-221.4554 704.5357,-216.8656"/>
<text text-anchor="middle" x="677.3362" y="-215.4102" font-family="Times,serif" font-size="14.00" fill="#000000">right</text>
</g>
<!-- /pipeline/range/end -->
<g id="node2" class="node">
<title>/pipeline/range/end</title>
<polygon fill="#ffffff" stroke="#000000" points="825.9263,-341.0425 791.3362,-353.4802 756.7461,-341.0425 756.7784,-320.9179 825.8941,-320.9179 825.9263,-341.0425"/>
<text text-anchor="middle" x="791.3362" y="-331.7802" font-family="Times,serif" font-size="14.00" fill="#000000">end</text>
</g>
<!-- /pipeline/range/end&#45;&gt;/pipeline/range/compare -->
<g id="edge5" class="edge">
<title>/pipeline/range/end:s&#45;&gt;/pipeline/range/compare:ne</title>
<path fill="none" stroke="#000000" d="M791.3362,-320.4802C791.3362,-270.3466 759.7307,-264.9595 723.3362,-230.4802 715.5061,-223.0621 709.9488,-222.0411 703.5021,-218.1135"/>
<polygon fill="#000000" stroke="#000000" points="705.3391,-215.1021 695.3362,-211.6102 700.9782,-220.5778 705.3391,-215.1021"/>
<text text-anchor="middle" x="707.8362" y="-215.4102" font-family="Times,serif" font-size="14.00" fill="#000000">left</text>
</g>
<!-- /pipeline/range/step -->
<g id="node3" class="node">
<title>/pipeline/range/step</title>
<polygon fill="#ffffff" stroke="#000000" points="362.8548,-341.0425 325.3362,-353.4802 287.8176,-341.0425 287.8526,-320.9179 362.8198,-320.9179 362.8548,-341.0425"/>
<text text-anchor="middle" x="325.3362" y="-331.7802" font-family="Times,serif" font-size="14.00" fill="#000000">step</text>
</g>
<!-- /pipeline/range/add -->
<g id="node9" class="node">
<title>/pipeline/range/add</title>
<g id="a_node9"><a xlink:href="../../flowstdlib/math/add/add.toml" xlink:title="add\n(Add)">
<ellipse fill="#ff7f50" stroke="#000000" cx="429.3362" cy="-80.8701" rx="38.7821" ry="26.7407"/>
<text text-anchor="middle" x="429.3362" y="-84.6701" font-family="Times,serif" font-size="14.00" fill="#000000">add</text>
<text text-anchor="middle" x="429.3362" y="-69.6701" font-family="Times,serif" font-size="14.00" fill="#000000">(Add)</text>
</a>
</g>
</g>
<!-- /pipeline/range/step&#45;&gt;/pipeline/range/add -->
<g id="edge6" class="edge">
<title>/pipeline/range/step:s&#45;&gt;/pipeline/range/add:w</title>
<path fill="none" stroke="#000000" d="M325.3362,-320.4802C325.3362,-250.9041 338.1746,-102.9972 380.5295,-83.1007"/>
<polygon fill="#000000" stroke="#000000" points="381.3616,-86.5009 390.3362,-80.8701 379.809,-79.6752 381.3616,-86.5009"/>
<text text-anchor="middle" x="383.3362" y="-84.6701" font-family="Times,serif" font-size="14.00" fill="#000000">i2</text>
</g>
<!-- /pipeline/range/sequence -->
<g id="node4" class="node">
<title>/pipeline/range/sequence</title>
<polygon fill="#000000" stroke="#000000" points="477.4758,-12.4377 544.3362,0 611.1966,-12.4377 611.1342,-32.5623 477.5382,-32.5623 477.4758,-12.4377"/>
<text text-anchor="middle" x="544.3362" y="-14.3" font-family="Times,serif" font-size="14.00" fill="#ffffff">sequence</text>
</g>
<!-- /pipeline/range/last -->
<g id="node5" class="node">
<title>/pipeline/range/last</title>
<polygon fill="#000000" stroke="#000000" points="628.7461,-12.4377 663.3362,0 697.9263,-12.4377 697.8941,-32.5623 628.7784,-32.5623 628.7461,-12.4377"/>
<text text-anchor="middle" x="663.3362" y="-14.3" font-family="Times,serif" font-size="14.00" fill="#ffffff">last</text>
</g>
<!-- /pipeline/range/compare&#45;&gt;/pipeline/range/sequence -->
<g id="edge8" class="edge">
<title>/pipeline/range/compare:s&#45;&gt;/pipeline/range/sequence:n</title>
<path fill="none" stroke="#000000" d="M669.3362,-158.7401C669.3362,-122.572 564.0029,-80.0505 546.7216,-42.84"/>
<polygon fill="#000000" stroke="#000000" points="550.0937,-41.8939 544.3362,-33 543.2908,-43.5431 550.0937,-41.8939"/>
<text text-anchor="middle" x="577.2947" y="-99.6414" font-family="Times,serif" font-size="14.00" fill="#000000">right&#45;lte</text>
</g>
<!-- /pipeline/range/compare&#45;&gt;/pipeline/range/last -->
<g id="edge12" class="edge">
<title>/pipeline/range/compare:s&#45;&gt;/pipeline/range/last:n</title>
<path fill="none" stroke="#000000" d="M669.3362,-158.7401C669.3362,-106.2888 664.0628,-90.843 663.4036,-43.0174"/>
<polygon fill="#000000" stroke="#000000" points="666.9035,-42.9762 663.3362,-33 659.9037,-43.0234 666.9035,-42.9762"/>
<text text-anchor="middle" x="634.3208" y="-84.4911" font-family="Times,serif" font-size="14.00" fill="#000000">right&#45;gte</text>
</g>
<!-- /pipeline/range/compare&#45;&gt;/pipeline/range/compare -->
<g id="edge9" class="edge">
<title>/pipeline/range/compare:s&#45;&gt;/pipeline/range/compare:ne</title>
<path fill="none" stroke="#000000" d="M669.3362,-158.6102C708.3345,-145.6102 786.3312,-145.6102 786.3312,-185.1102 786.3312,-221.3699 742.5153,-224.3444 705.16,-214.5323"/>
<polygon fill="#000000" stroke="#000000" points="705.9191,-211.1066 695.3362,-211.6102 703.9232,-217.8161 705.9191,-211.1066"/>
<text text-anchor="middle" x="652.5701" y="-145.8085" font-family="Times,serif" font-size="14.00" fill="#000000">left&#45;gt</text>
<text text-anchor="middle" x="682.8362" y="-200.4102" font-family="Times,serif" font-size="14.00" fill="#000000">left</text>
</g>
<!-- /pipeline/range/compare&#45;&gt;/pipeline/range/add -->
<g id="edge10" class="edge">
<title>/pipeline/range/compare:sw&#45;&gt;/pipeline/range/add:ne</title>
<path fill="none" stroke="#000000" d="M643.3362,-159.6102C607.332,-123.6059 578.8849,-156.0903 530.3362,-140.7401 496.6914,-130.1022 481.7581,-130.2554 458.7616,-109.8854"/>
<polygon fill="#000000" stroke="#000000" points="461.0088,-107.1935 451.3362,-102.8701 456.2015,-112.2817 461.0088,-107.1935"/>
<text text-anchor="middle" x="504.8239" y="-144.5362" font-family="Times,serif" font-size="14.00" fill="#000000">right&#45;lt</text>
<text text-anchor="middle" x="444.3362" y="-106.6701" font-family="Times,serif" font-size="14.00" fill="#000000">i1</text>
</g>
<!-- initializer/pipeline/range/compare_0 -->
<!-- initializer/pipeline/range/compare_0&#45;&gt;/pipeline/range/compare -->
<g id="edge1" class="edge">
<title>initializer/pipeline/range/compare_0&#45;&gt;/pipeline/range/compare:ne</title>
<path fill="none" stroke="#0000ff" stroke-dasharray="1,5" d="M914.6197,-264.3088C879.4543,-253.7943 832.9661,-240.4837 791.3362,-230.4802 752.69,-221.1937 730.1745,-238.8076 703.1082,-218.4217"/>
<polygon fill="#0000ff" stroke="#0000ff" points="705.1636,-215.5691 695.3362,-211.6102 700.5498,-220.8335 705.1636,-215.5691"/>
<text text-anchor="middle" x="854.8362" y="-234.2802" font-family="Times,serif" font-size="14.00" fill="#000000">20</text>
</g>
<!-- initializer/pipeline/range/compare_1 -->
<!-- initializer/pipeline/range/compare_1&#45;&gt;/pipeline/range/compare -->
<g id="edge2" class="edge">
<title>initializer/pipeline/range/compare_1&#45;&gt;/pipeline/range/compare:ne</title>
<path fill="none" stroke="#0000ff" stroke-dasharray="1,5" d="M574.9567,-264.366C617.7355,-250.8816 672.0558,-232.4003 690.0627,-220.307"/>
<polygon fill="#0000ff" stroke="#0000ff" points="693.144,-221.9757 695.3362,-211.6102 687.1585,-218.3463 693.144,-221.9757"/>
<text text-anchor="middle" x="672.3362" y="-234.2802" font-family="Times,serif" font-size="14.00" fill="#000000">1</text>
</g>
<!-- /pipeline/range/add&#45;&gt;/pipeline/range/compare -->
<g id="edge11" class="edge">
<title>/pipeline/range/add:sw&#45;&gt;/pipeline/range/compare:ne</title>
<path fill="none" stroke="#000000" d="M407.3362,-58.8701C407.3362,-58.8701 390.4453,-107.7401 390.4453,-107.7401 392.1881,-109.7338 766.5885,-156.7464 768.3312,-158.7401 768.3312,-158.7401 722.8831,-191.6581 703.7097,-205.5453"/>
<polygon fill="#000000" stroke="#000000" points="701.3819,-202.9096 695.3362,-211.6102 705.4881,-208.5788 701.3819,-202.9096"/>
<text text-anchor="middle" x="536.4255" y="-118.4613" font-family="Times,serif" font-size="14.00" fill="#000000">sum</text>
<text text-anchor="middle" x="713.3362" y="-200.4102" font-family="Times,serif" font-size="14.00" fill="#000000">right</text>
</g>
<!-- /pipeline/range/add&#45;&gt;/pipeline/range/add -->
<g id="edge7" class="edge">
<title>/pipeline/range/add:e&#45;&gt;/pipeline/range/add:w</title>
<path fill="none" stroke="#000000" d="M468.3362,-80.8701C486.2271,-98.4934 486.2271,-133.7401 429.3362,-133.7401 380.2234,-133.7401 373.5087,-107.4723 384.1011,-88.9515"/>
<polygon fill="#000000" stroke="#000000" points="386.9987,-90.9255 390.3362,-80.8701 381.4565,-86.6495 386.9987,-90.9255"/>
<text text-anchor="middle" x="475.3395" y="-84.6733" font-family="Times,serif" font-size="14.00" fill="#000000">i2</text>
<text text-anchor="middle" x="383.3362" y="-69.6701" font-family="Times,serif" font-size="14.00" fill="#000000">i2</text>
</g>
<!-- initializer/pipeline/range/add_1 -->
<!-- initializer/pipeline/range/add_1&#45;&gt;/pipeline/range/add -->
<g id="edge3" class="edge">
<title>initializer/pipeline/range/add_1&#45;&gt;/pipeline/range/add:w</title>
<path fill="none" stroke="#0000ff" stroke-dasharray="1,5" d="M178.173,-167.6047C216.8677,-138.8862 299.0303,-85.4833 379.9621,-81.1509"/>
<polygon fill="#0000ff" stroke="#0000ff" points="380.4346,-84.6395 390.3362,-80.8701 380.2451,-77.642 380.4346,-84.6395"/>
<text text-anchor="middle" x="246.3362" y="-129.5401" font-family="Times,serif" font-size="14.00" fill="#000000">1</text>
</g>
</g>
</svg>
