<?xml version="1.0" encoding="UTF-8" standalone="no"?>
<!DOCTYPE svg PUBLIC "-//W3C//DTD SVG 1.1//EN"
 "http://www.w3.org/Graphics/SVG/1.1/DTD/svg11.dtd">
<!-- Generated by graphviz version 2.44.0 (20200408.0750)
 -->
<!-- Title: range Pages: 1 -->
<svg width="982pt" height="442pt"
 viewBox="28.80 28.80 952.78 413.28" xmlns="http://www.w3.org/2000/svg" xmlns:xlink="http://www.w3.org/1999/xlink">
<g id="graph0" class="graph" transform="scale(1 1) rotate(0) translate(32.8 409.28)">
<title>range</title>
<polygon fill="white" stroke="transparent" points="-4,4 -4,-380.48 919.98,-380.48 919.98,4 -4,4"/>
<text text-anchor="middle" x="457.99" y="-361.28" font-family="Times,serif" font-size="14.00">range</text>
<!-- /pipeline/range/start -->
<g id="node1" class="node">
<title>/pipeline/range/start</title>
<polygon fill="white" stroke="black" points="586.16,-341.04 553.89,-353.48 521.62,-341.04 521.65,-320.92 586.13,-320.92 586.16,-341.04"/>
<text text-anchor="middle" x="553.89" y="-331.78" font-family="Times,serif" font-size="14.00">start</text>
</g>
<!-- /pipeline/range/compare -->
<g id="node6" class="node">
<title>/pipeline/range/compare</title>
<g id="a_node6"><a xlink:href="../../flowstdlib/control/compare_switch/compare_switch.toml" xlink:title="compare\n(CompareSwitch)">
<ellipse fill="coral" stroke="black" cx="528.89" cy="-185.61" rx="79.81" ry="26.74"/>
<text text-anchor="middle" x="528.89" y="-189.41" font-family="Times,serif" font-size="14.00">compare</text>
<text text-anchor="middle" x="528.89" y="-174.41" font-family="Times,serif" font-size="14.00">(CompareSwitch)</text>
</a>
</g>
</g>
<!-- /pipeline/range/start&#45;&gt;/pipeline/range/compare -->
<g id="edge4" class="edge">
<title>/pipeline/range/start:s&#45;&gt;/pipeline/range/compare:ne</title>
<path fill="none" stroke="black" d="M553.89,-319.48C553.89,-275.64 583.32,-250.27 561.57,-220.23"/>
<polygon fill="black" stroke="black" points="564.07,-217.77 554.89,-212.48 558.77,-222.34 564.07,-217.77"/>
<text text-anchor="middle" x="541.89" y="-216.28" font-family="Times,serif" font-size="14.00">right</text>
</g>
<!-- /pipeline/range/end -->
<g id="node2" class="node">
<title>/pipeline/range/end</title>
<polygon fill="white" stroke="black" points="661.73,-341.04 632.89,-353.48 604.05,-341.04 604.07,-320.92 661.71,-320.92 661.73,-341.04"/>
<text text-anchor="middle" x="632.89" y="-331.78" font-family="Times,serif" font-size="14.00">end</text>
</g>
<!-- /pipeline/range/end&#45;&gt;/pipeline/range/compare -->
<g id="edge5" class="edge">
<title>/pipeline/range/end:s&#45;&gt;/pipeline/range/compare:ne</title>
<path fill="none" stroke="black" d="M632.89,-319.48C632.89,-273.89 613.02,-263.79 581.89,-230.48 574.81,-222.91 569.23,-222.19 562.86,-218.6"/>
<polygon fill="black" stroke="black" points="564.95,-215.79 554.89,-212.48 560.69,-221.35 564.95,-215.79"/>
<text text-anchor="middle" x="564.39" y="-216.28" font-family="Times,serif" font-size="14.00">left</text>
</g>
<!-- /pipeline/range/step -->
<g id="node3" class="node">
<title>/pipeline/range/step</title>
<polygon fill="white" stroke="black" points="287.45,-341.04 256.89,-353.48 226.33,-341.04 226.36,-320.92 287.42,-320.92 287.45,-341.04"/>
<text text-anchor="middle" x="256.89" y="-331.78" font-family="Times,serif" font-size="14.00">step</text>
</g>
<!-- /pipeline/range/add -->
<g id="node9" class="node">
<title>/pipeline/range/add</title>
<g id="a_node9"><a xlink:href="../../flowstdlib/math/add/add.toml" xlink:title="add\n(Add)">
<ellipse fill="coral" stroke="black" cx="329.89" cy="-80.87" rx="34.8" ry="26.74"/>
<text text-anchor="middle" x="329.89" y="-84.67" font-family="Times,serif" font-size="14.00">add</text>
<text text-anchor="middle" x="329.89" y="-69.67" font-family="Times,serif" font-size="14.00">(Add)</text>
</a>
</g>
</g>
<!-- /pipeline/range/step&#45;&gt;/pipeline/range/add -->
<g id="edge6" class="edge">
<title>/pipeline/range/step:s&#45;&gt;/pipeline/range/add:w</title>
<path fill="none" stroke="black" d="M256.89,-319.48C256.89,-269.39 242.37,-104.86 284.1,-83.22"/>
<polygon fill="black" stroke="black" points="284.99,-86.61 293.89,-80.87 283.35,-79.81 284.99,-86.61"/>
<text text-anchor="middle" x="288.39" y="-84.67" font-family="Times,serif" font-size="14.00">i2</text>
</g>
<!-- /pipeline/range/sequence -->
<g id="node4" class="node">
<title>/pipeline/range/sequence</title>
<polygon fill="black" stroke="black" points="370.84,-12.44 423.89,0 476.93,-12.44 476.88,-32.56 370.89,-32.56 370.84,-12.44"/>
<text text-anchor="middle" x="423.89" y="-14.3" font-family="Times,serif" font-size="14.00" fill="white">sequence</text>
</g>
<!-- /pipeline/range/last -->
<g id="node5" class="node">
<title>/pipeline/range/last</title>
<polygon fill="black" stroke="black" points="494.65,-12.44 522.89,0 551.13,-12.44 551.1,-32.56 494.68,-32.56 494.65,-12.44"/>
<text text-anchor="middle" x="522.89" y="-14.3" font-family="Times,serif" font-size="14.00" fill="white">last</text>
</g>
<!-- /pipeline/range/compare&#45;&gt;/pipeline/range/sequence -->
<g id="edge8" class="edge">
<title>/pipeline/range/compare:s&#45;&gt;/pipeline/range/sequence:n</title>
<path fill="none" stroke="black" d="M528.89,-158.74C528.89,-125.76 441.91,-79.5 426.28,-44.13"/>
<polygon fill="black" stroke="black" points="429.59,-42.93 423.89,-34 422.78,-44.54 429.59,-42.93"/>
<text text-anchor="middle" x="454.18" y="-100" font-family="Times,serif" font-size="14.00">right&#45;lte</text>
</g>
<!-- /pipeline/range/compare&#45;&gt;/pipeline/range/last -->
<g id="edge12" class="edge">
<title>/pipeline/range/compare:s&#45;&gt;/pipeline/range/last:n</title>
<path fill="none" stroke="black" d="M528.89,-158.74C528.89,-106.81 523.64,-91.45 522.96,-44.23"/>
<polygon fill="black" stroke="black" points="526.46,-43.98 522.89,-34 519.46,-44.02 526.46,-43.98"/>
<text text-anchor="middle" x="502.38" y="-100.1" font-family="Times,serif" font-size="14.00">right&#45;gte</text>
</g>
<!-- /pipeline/range/compare&#45;&gt;/pipeline/range/compare -->
<g id="edge9" class="edge">
<title>/pipeline/range/compare:s&#45;&gt;/pipeline/range/compare:ne</title>
<path fill="none" stroke="black" d="M528.89,-158.61C561.52,-145.61 626.79,-145.61 626.79,-185.11 626.79,-220.75 594.82,-224.23 564.6,-215.02"/>
<polygon fill="black" stroke="black" points="565.48,-211.62 554.89,-211.61 563.16,-218.23 565.48,-211.62"/>
<text text-anchor="middle" x="515.04" y="-146.23" font-family="Times,serif" font-size="14.00">left&#45;gt</text>
<text text-anchor="middle" x="545.39" y="-200.41" font-family="Times,serif" font-size="14.00">left</text>
</g>
<!-- /pipeline/range/compare&#45;&gt;/pipeline/range/add -->
<g id="edge10" class="edge">
<title>/pipeline/range/compare:sw&#45;&gt;/pipeline/range/add:ne</title>
<path fill="none" stroke="black" d="M502.89,-158.74C473.12,-128.97 448.97,-156.39 409.89,-140.74 384.35,-130.51 375.09,-126 358.11,-109.92"/>
<polygon fill="black" stroke="black" points="360.49,-107.35 350.89,-102.87 355.6,-112.36 360.49,-107.35"/>
<text text-anchor="middle" x="390.87" y="-144.53" font-family="Times,serif" font-size="14.00">right&#45;lt</text>
<text text-anchor="middle" x="345.39" y="-106.67" font-family="Times,serif" font-size="14.00">i1</text>
</g>
<!-- initializer/pipeline/range/compare_0 -->
<!-- initializer/pipeline/range/compare_0&#45;&gt;/pipeline/range/compare -->
<g id="edge1" class="edge">
<title>initializer/pipeline/range/compare_0&#45;&gt;/pipeline/range/compare:ne</title>
<path fill="none" stroke="blue" stroke-dasharray="1,5" d="M735.68,-264.21C708.03,-253.67 670.63,-240.17 636.89,-230.48 604.67,-221.23 585.45,-235.37 562.75,-219.2"/>
<polygon fill="blue" stroke="blue" points="564.76,-216.32 554.89,-212.48 560.21,-221.64 564.76,-216.32"/>
<text text-anchor="middle" x="689.89" y="-234.28" font-family="Times,serif" font-size="14.00">20</text>
</g>
<!-- initializer/pipeline/range/compare_1 -->
<!-- initializer/pipeline/range/compare_1&#45;&gt;/pipeline/range/compare -->
<g id="edge2" class="edge">
<title>initializer/pipeline/range/compare_1&#45;&gt;/pipeline/range/compare:ne</title>
<path fill="none" stroke="blue" stroke-dasharray="1,5" d="M454.37,-264.34C488.7,-251.15 533.4,-232.84 549.49,-221.21"/>
<polygon fill="blue" stroke="blue" points="552.61,-222.83 554.89,-212.48 546.65,-219.14 552.61,-222.83"/>
<text text-anchor="middle" x="535.39" y="-234.28" font-family="Times,serif" font-size="14.00">1</text>
</g>
<!-- /pipeline/range/add&#45;&gt;/pipeline/range/compare -->
<g id="edge11" class="edge">
<title>/pipeline/range/add:sw&#45;&gt;/pipeline/range/compare:ne</title>
<path fill="none" stroke="black" d="M308.89,-58.87C304.59,-54.57 299.38,-55.41 295.24,-59.87 280.76,-75.45 281.43,-91.55 295.24,-107.74 311.69,-127.03 382.87,-121.69 407.89,-125.74 497.21,-140.21 550.22,-89.77 608.79,-158.74 624,-176.65 625.25,-194.84 608.79,-211.61 602.3,-218.22 578.67,-220.27 564.38,-216.94"/>
<polygon fill="black" stroke="black" points="565.44,-213.58 554.89,-212.61 562.53,-219.95 565.44,-213.58"/>
<text text-anchor="middle" x="420.57" y="-117.07" font-family="Times,serif" font-size="14.00">sum</text>
<text text-anchor="middle" x="567.89" y="-216.41" font-family="Times,serif" font-size="14.00">right</text>
</g>
<!-- /pipeline/range/add&#45;&gt;/pipeline/range/add -->
<g id="edge7" class="edge">
<title>/pipeline/range/add:e&#45;&gt;/pipeline/range/add:w</title>
<path fill="none" stroke="black" d="M364.89,-80.87C382.54,-98.49 382.54,-133.74 329.89,-133.74 284.44,-133.74 278.23,-107.47 288.73,-88.95"/>
<polygon fill="black" stroke="black" points="291.61,-90.95 294.89,-80.87 286.04,-86.7 291.61,-90.95"/>
<text text-anchor="middle" x="370.4" y="-84.68" font-family="Times,serif" font-size="14.00">i2</text>
<text text-anchor="middle" x="289.39" y="-69.67" font-family="Times,serif" font-size="14.00">i2</text>
</g>
<!-- initializer/pipeline/range/add_1 -->
<!-- initializer/pipeline/range/add_1&#45;&gt;/pipeline/range/add -->
<g id="edge3" class="edge">
<title>initializer/pipeline/range/add_1&#45;&gt;/pipeline/range/add:w</title>
<path fill="none" stroke="blue" stroke-dasharray="1,5" d="M136.19,-167.48C162.86,-139.51 221.03,-86.6 283.78,-81.3"/>
<polygon fill="blue" stroke="blue" points="284.05,-84.79 293.89,-80.87 283.75,-77.8 284.05,-84.79"/>
<text text-anchor="middle" x="185.39" y="-129.54" font-family="Times,serif" font-size="14.00">1</text>
</g>
</g>
</svg>
