<?xml version="1.0" encoding="UTF-8" standalone="no"?>
<!DOCTYPE svg PUBLIC "-//W3C//DTD SVG 1.1//EN"
 "http://www.w3.org/Graphics/SVG/1.1/DTD/svg11.dtd">
<!-- Generated by graphviz version 2.43.0 (0)
 -->
<!-- Title: range Pages: 1 -->
<svg width="958pt" height="424pt"
 viewBox="28.80 28.80 929.64 395.54" xmlns="http://www.w3.org/2000/svg" xmlns:xlink="http://www.w3.org/1999/xlink">
<g id="page0,1_graph0" class="graph" transform="scale(1 1) rotate(0) translate(32.8 391.54)">
<title>range</title>
<polygon fill="white" stroke="transparent" points="-4,4 -4,-362.74 896.84,-362.74 896.84,4 -4,4"/>
<text text-anchor="middle" x="446.42" y="-343.54" font-family="Times,serif" font-size="14.00">range</text>
<!-- /pipeline/range/start -->
<g id="node1" class="node">
<title>/pipeline/range/start</title>
<polygon fill="white" stroke="black" points="488.7,-323.3 447.76,-335.74 406.81,-323.3 406.85,-303.18 488.66,-303.18 488.7,-323.3"/>
<text text-anchor="middle" x="447.76" y="-314.04" font-family="Times,serif" font-size="14.00">start</text>
</g>
<!-- /pipeline/range/compare -->
<g id="node6" class="node">
<title>/pipeline/range/compare</title>
<g id="a_node6"><a xlink:href="../../flowstdlib/control/compare_switch/compare_switch.html" xlink:title="compare\n(compare_switch)">
<ellipse fill="coral" stroke="black" cx="468.76" cy="-167.87" rx="100.32" ry="26.74"/>
<text text-anchor="middle" x="468.76" y="-171.67" font-family="Times,serif" font-size="14.00">compare</text>
<text text-anchor="middle" x="468.76" y="-156.67" font-family="Times,serif" font-size="14.00">(compare_switch)</text>
</a>
</g>
</g>
<!-- /pipeline/range/start&#45;&gt;/pipeline/range/compare -->
<g id="edge4" class="edge">
<title>/pipeline/range/start:s&#45;&gt;/pipeline/range/compare:ne</title>
<path fill="none" stroke="black" d="M447.76,-301.74C447.76,-279.22 496.91,-229.1 497.99,-204.21"/>
<polygon fill="black" stroke="black" points="501.3,-203.07 494.76,-194.74 494.68,-205.33 501.3,-203.07"/>
<text text-anchor="middle" x="476.76" y="-198.54" font-family="Times,serif" font-size="14.00">right</text>
</g>
<!-- /pipeline/range/end -->
<g id="node2" class="node">
<title>/pipeline/range/end</title>
<polygon fill="white" stroke="black" points="576.35,-323.3 541.76,-335.74 507.17,-323.3 507.2,-303.18 576.32,-303.18 576.35,-323.3"/>
<text text-anchor="middle" x="541.76" y="-314.04" font-family="Times,serif" font-size="14.00">end</text>
</g>
<!-- /pipeline/range/end&#45;&gt;/pipeline/range/compare -->
<g id="edge5" class="edge">
<title>/pipeline/range/end:s&#45;&gt;/pipeline/range/compare:ne</title>
<path fill="none" stroke="black" d="M541.76,-301.74C541.76,-291.07 510.56,-222.27 505.76,-212.74 503.65,-208.55 502.56,-205.71 501.16,-203.09"/>
<polygon fill="black" stroke="black" points="503.62,-200.54 494.76,-194.74 498.07,-204.8 503.62,-200.54"/>
<text text-anchor="middle" x="507.26" y="-198.54" font-family="Times,serif" font-size="14.00">left</text>
</g>
<!-- /pipeline/range/step -->
<g id="node3" class="node">
<title>/pipeline/range/step</title>
<polygon fill="white" stroke="black" points="75.28,-323.3 37.76,-335.74 0.24,-323.3 0.27,-303.18 75.24,-303.18 75.28,-323.3"/>
<text text-anchor="middle" x="37.76" y="-314.04" font-family="Times,serif" font-size="14.00">step</text>
</g>
<!-- /pipeline/range/add -->
<g id="node9" class="node">
<title>/pipeline/range/add</title>
<g id="a_node9"><a xlink:href="../../flowstdlib/math/add/add.html" xlink:title="add">
<ellipse fill="coral" stroke="black" cx="292.76" cy="-72" rx="27.9" ry="18"/>
<text text-anchor="middle" x="292.76" y="-68.3" font-family="Times,serif" font-size="14.00">add</text>
</a>
</g>
</g>
<!-- /pipeline/range/step&#45;&gt;/pipeline/range/add -->
<g id="edge6" class="edge">
<title>/pipeline/range/step:s&#45;&gt;/pipeline/range/add:w</title>
<path fill="none" stroke="black" d="M37.76,-301.74C37.76,-230.03 7.14,-197.14 51.76,-141 80.66,-104.64 198.15,-75.81 253.55,-72.35"/>
<polygon fill="black" stroke="black" points="253.88,-75.84 263.76,-72 253.64,-68.84 253.88,-75.84"/>
<text text-anchor="middle" x="256.76" y="-75.8" font-family="Times,serif" font-size="14.00">i2</text>
</g>
<!-- /pipeline/range/sequence -->
<g id="node4" class="node">
<title>/pipeline/range/sequence</title>
<polygon fill="black" stroke="black" points="324.9,-12.44 391.76,0 458.62,-12.44 458.56,-32.56 324.96,-32.56 324.9,-12.44"/>
<text text-anchor="middle" x="391.76" y="-14.3" font-family="Times,serif" font-size="14.00" fill="white">sequence</text>
</g>
<!-- /pipeline/range/last -->
<g id="node5" class="node">
<title>/pipeline/range/last</title>
<polygon fill="black" stroke="black" points="476.17,-12.44 510.76,0 545.35,-12.44 545.32,-32.56 476.2,-32.56 476.17,-12.44"/>
<text text-anchor="middle" x="510.76" y="-14.3" font-family="Times,serif" font-size="14.00" fill="white">last</text>
</g>
<!-- /pipeline/range/compare&#45;&gt;/pipeline/range/sequence -->
<g id="edge8" class="edge">
<title>/pipeline/range/compare:s&#45;&gt;/pipeline/range/sequence:n</title>
<path fill="none" stroke="black" d="M468.76,-141C468.76,-86.07 401.08,-91.59 392.62,-44.21"/>
<polygon fill="black" stroke="black" points="396.09,-43.67 391.76,-34 389.11,-44.26 396.09,-43.67"/>
<text text-anchor="middle" x="400.56" y="-91.18" font-family="Times,serif" font-size="14.00">right&#45;lte</text>
</g>
<!-- /pipeline/range/compare&#45;&gt;/pipeline/range/last -->
<g id="edge12" class="edge">
<title>/pipeline/range/compare:s&#45;&gt;/pipeline/range/last:n</title>
<path fill="none" stroke="black" d="M468.76,-141C468.76,-129.04 482.61,-133.26 488.76,-123 507.83,-91.19 510.41,-77.31 510.72,-44.35"/>
<polygon fill="black" stroke="black" points="514.22,-44.01 510.76,-34 507.22,-43.99 514.22,-44.01"/>
<text text-anchor="middle" x="472.11" y="-96.35" font-family="Times,serif" font-size="14.00">right&#45;gte</text>
</g>
<!-- /pipeline/range/compare&#45;&gt;/pipeline/range/compare -->
<g id="edge9" class="edge">
<title>/pipeline/range/compare:s&#45;&gt;/pipeline/range/compare:ne</title>
<path fill="none" stroke="black" d="M468.76,-140.87C508.23,-127.87 587.17,-127.87 587.17,-167.37 587.17,-203.63 542.56,-206.6 504.71,-196.79"/>
<polygon fill="black" stroke="black" points="505.34,-193.33 494.76,-193.87 503.37,-200.05 505.34,-193.33"/>
<text text-anchor="middle" x="452.06" y="-128.07" font-family="Times,serif" font-size="14.00">left&#45;gt</text>
<text text-anchor="middle" x="482.26" y="-197.67" font-family="Times,serif" font-size="14.00">left</text>
</g>
<!-- /pipeline/range/compare&#45;&gt;/pipeline/range/add -->
<g id="edge10" class="edge">
<title>/pipeline/range/compare:sw&#45;&gt;/pipeline/range/add:ne</title>
<path fill="none" stroke="black" d="M442.76,-141C421.56,-119.8 405.77,-133.67 377.76,-123 349.31,-112.16 335.98,-112.83 316.33,-96.03"/>
<polygon fill="black" stroke="black" points="318.47,-93.25 308.76,-89 313.7,-98.37 318.47,-93.25"/>
<text text-anchor="middle" x="347.72" y="-125.12" font-family="Times,serif" font-size="14.00">right&#45;lt</text>
<text text-anchor="middle" x="315.76" y="-92.8" font-family="Times,serif" font-size="14.00">i1</text>
</g>
<!-- initializer/pipeline/range/compare_0 -->
<!-- initializer/pipeline/range/compare_0&#45;&gt;/pipeline/range/compare -->
<g id="edge1" class="edge">
<title>initializer/pipeline/range/compare_0&#45;&gt;/pipeline/range/compare:ne</title>
<path fill="none" stroke="blue" stroke-dasharray="1,5" d="M653.03,-246.82C600.39,-232.82 529.26,-212.75 503.39,-200.13"/>
<polygon fill="blue" stroke="blue" points="505.1,-197.06 494.76,-194.74 501.39,-203 505.1,-197.06"/>
<text text-anchor="middle" x="589.26" y="-216.54" font-family="Times,serif" font-size="14.00">20</text>
</g>
<!-- initializer/pipeline/range/compare_1 -->
<!-- initializer/pipeline/range/compare_1&#45;&gt;/pipeline/range/compare -->
<g id="edge2" class="edge">
<title>initializer/pipeline/range/compare_1&#45;&gt;/pipeline/range/compare:ne</title>
<path fill="none" stroke="blue" stroke-dasharray="1,5" d="M329.05,-246.58C382.13,-230.72 458.72,-207.62 485.28,-198.54"/>
<polygon fill="blue" stroke="blue" points="486.78,-201.71 494.76,-194.74 484.17,-195.21 486.78,-201.71"/>
<text text-anchor="middle" x="441.76" y="-216.54" font-family="Times,serif" font-size="14.00">1</text>
</g>
<!-- /pipeline/range/add&#45;&gt;/pipeline/range/compare -->
<g id="edge11" class="edge">
<title>/pipeline/range/add:e&#45;&gt;/pipeline/range/compare:ne</title>
<path fill="none" stroke="black" d="M321.76,-72C402.77,-72 418.54,-101.89 496.76,-123 528.77,-131.64 548.74,-114.88 569.17,-141 583.64,-159.51 585.67,-177.14 569.17,-193.87 559.5,-203.66 522.5,-205.95 503.61,-199.7"/>
<polygon fill="black" stroke="black" points="505.21,-196.59 494.76,-194.87 501.86,-202.73 505.21,-196.59"/>
<text text-anchor="middle" x="512.76" y="-198.67" font-family="Times,serif" font-size="14.00">right</text>
</g>
<!-- /pipeline/range/add&#45;&gt;/pipeline/range/add -->
<g id="edge7" class="edge">
<title>/pipeline/range/add:e&#45;&gt;/pipeline/range/add:w</title>
<path fill="none" stroke="black" d="M320.76,-72C338.71,-85 338.71,-111 292.76,-111 254.35,-111 248.05,-92.83 257.5,-79.28"/>
<polygon fill="black" stroke="black" points="260.17,-81.55 264.76,-72 255.22,-76.61 260.17,-81.55"/>
<text text-anchor="middle" x="327.77" y="-75.8" font-family="Times,serif" font-size="14.00">i2</text>
<text text-anchor="middle" x="257.76" y="-60.8" font-family="Times,serif" font-size="14.00">i2</text>
</g>
<!-- initializer/pipeline/range/add_1 -->
<!-- initializer/pipeline/range/add_1&#45;&gt;/pipeline/range/add -->
<g id="edge3" class="edge">
<title>initializer/pipeline/range/add_1&#45;&gt;/pipeline/range/add:w</title>
<path fill="none" stroke="blue" stroke-dasharray="1,5" d="M210.05,-149.47C214.27,-124.86 225.54,-81.94 253.59,-73.47"/>
<polygon fill="blue" stroke="blue" points="254.36,-76.9 263.76,-72 253.36,-69.97 254.36,-76.9"/>
<text text-anchor="middle" x="226.76" y="-111.8" font-family="Times,serif" font-size="14.00">1</text>
</g>
</g>
</svg>
