<?xml version="1.0" encoding="UTF-8" standalone="no"?>
<!DOCTYPE svg PUBLIC "-//W3C//DTD SVG 1.1//EN"
 "http://www.w3.org/Graphics/SVG/1.1/DTD/svg11.dtd">
<!-- Generated by graphviz version 2.42.4 (0)
 -->
<!-- Title: range Pages: 1 -->
<svg width="1214pt" height="442pt"
 viewBox="28.80 28.80 1185.22 413.28" xmlns="http://www.w3.org/2000/svg" xmlns:xlink="http://www.w3.org/1999/xlink">
<g id="graph0" class="graph" transform="scale(1 1) rotate(0) translate(32.8 409.28)">
<title>range</title>
<polygon fill="white" stroke="transparent" points="-4,4 -4,-380.48 1152.42,-380.48 1152.42,4 -4,4"/>
<text text-anchor="middle" x="574.21" y="-361.28" font-family="Times,serif" font-size="14.00">range</text>
<!-- /pipeline/range/start -->
<g id="node1" class="node">
<title>/pipeline/range/start</title>
<polygon fill="white" stroke="black" points="738.28,-341.04 697.34,-353.48 656.39,-341.04 656.43,-320.92 738.24,-320.92 738.28,-341.04"/>
<text text-anchor="middle" x="697.34" y="-331.78" font-family="Times,serif" font-size="14.00">start</text>
</g>
<!-- /pipeline/range/compare -->
<g id="node6" class="node">
<title>/pipeline/range/compare</title>
<g id="a_node6"><a xlink:href="../../flowstdlib/control/compare_switch/compare_switch.html" xlink:title="compare\n(CompareSwitch)">
<ellipse fill="coral" stroke="black" cx="669.34" cy="-185.61" rx="98.99" ry="26.74"/>
<text text-anchor="middle" x="669.34" y="-189.41" font-family="Times,serif" font-size="14.00">compare</text>
<text text-anchor="middle" x="669.34" y="-174.41" font-family="Times,serif" font-size="14.00">(CompareSwitch)</text>
</a>
</g>
</g>
<!-- /pipeline/range/start&#45;&gt;/pipeline/range/compare -->
<g id="edge4" class="edge">
<title>/pipeline/range/start:s&#45;&gt;/pipeline/range/compare:ne</title>
<path fill="none" stroke="black" d="M697.34,-319.48C697.34,-275.63 724.22,-250.28 702.07,-220.23"/>
<polygon fill="black" stroke="black" points="704.54,-217.74 695.34,-212.48 699.25,-222.33 704.54,-217.74"/>
<text text-anchor="middle" x="677.34" y="-216.28" font-family="Times,serif" font-size="14.00">right</text>
</g>
<!-- /pipeline/range/end -->
<g id="node2" class="node">
<title>/pipeline/range/end</title>
<polygon fill="white" stroke="black" points="825.93,-341.04 791.34,-353.48 756.75,-341.04 756.78,-320.92 825.89,-320.92 825.93,-341.04"/>
<text text-anchor="middle" x="791.34" y="-331.78" font-family="Times,serif" font-size="14.00">end</text>
</g>
<!-- /pipeline/range/end&#45;&gt;/pipeline/range/compare -->
<g id="edge5" class="edge">
<title>/pipeline/range/end:s&#45;&gt;/pipeline/range/compare:ne</title>
<path fill="none" stroke="black" d="M791.34,-319.48C791.34,-269.7 759.93,-264.22 723.34,-230.48 715.52,-223.27 709.88,-222.53 703.44,-218.8"/>
<polygon fill="black" stroke="black" points="705.37,-215.87 695.34,-212.48 701.07,-221.39 705.37,-215.87"/>
<text text-anchor="middle" x="707.84" y="-216.28" font-family="Times,serif" font-size="14.00">left</text>
</g>
<!-- /pipeline/range/step -->
<g id="node3" class="node">
<title>/pipeline/range/step</title>
<polygon fill="white" stroke="black" points="362.85,-341.04 325.34,-353.48 287.82,-341.04 287.85,-320.92 362.82,-320.92 362.85,-341.04"/>
<text text-anchor="middle" x="325.34" y="-331.78" font-family="Times,serif" font-size="14.00">step</text>
</g>
<!-- /pipeline/range/add -->
<g id="node9" class="node">
<title>/pipeline/range/add</title>
<g id="a_node9"><a xlink:href="../../flowstdlib/math/add/add.html" xlink:title="add\n(Add)">
<ellipse fill="coral" stroke="black" cx="429.34" cy="-80.87" rx="38.78" ry="26.74"/>
<text text-anchor="middle" x="429.34" y="-84.67" font-family="Times,serif" font-size="14.00">add</text>
<text text-anchor="middle" x="429.34" y="-69.67" font-family="Times,serif" font-size="14.00">(Add)</text>
</a>
</g>
</g>
<!-- /pipeline/range/step&#45;&gt;/pipeline/range/add -->
<g id="edge6" class="edge">
<title>/pipeline/range/step:s&#45;&gt;/pipeline/range/add:w</title>
<path fill="none" stroke="black" d="M325.34,-319.48C325.34,-249.76 333.45,-101.65 379.31,-82.85"/>
<polygon fill="black" stroke="black" points="380.2,-86.24 389.34,-80.87 378.85,-79.37 380.2,-86.24"/>
<text text-anchor="middle" x="382.34" y="-84.67" font-family="Times,serif" font-size="14.00">i2</text>
</g>
<!-- /pipeline/range/sequence -->
<g id="node4" class="node">
<title>/pipeline/range/sequence</title>
<polygon fill="black" stroke="black" points="477.48,-12.44 544.34,0 611.2,-12.44 611.13,-32.56 477.54,-32.56 477.48,-12.44"/>
<text text-anchor="middle" x="544.34" y="-14.3" font-family="Times,serif" font-size="14.00" fill="white">sequence</text>
</g>
<!-- /pipeline/range/last -->
<g id="node5" class="node">
<title>/pipeline/range/last</title>
<polygon fill="black" stroke="black" points="628.75,-12.44 663.34,0 697.93,-12.44 697.89,-32.56 628.78,-32.56 628.75,-12.44"/>
<text text-anchor="middle" x="663.34" y="-14.3" font-family="Times,serif" font-size="14.00" fill="white">last</text>
</g>
<!-- /pipeline/range/compare&#45;&gt;/pipeline/range/sequence -->
<g id="edge8" class="edge">
<title>/pipeline/range/compare:s&#45;&gt;/pipeline/range/sequence:n</title>
<path fill="none" stroke="black" d="M669.34,-158.74C669.34,-122.72 564,-80.78 546.72,-43.79"/>
<polygon fill="black" stroke="black" points="550.1,-42.89 544.34,-34 543.3,-44.54 550.1,-42.89"/>
<text text-anchor="middle" x="577.29" y="-100.14" font-family="Times,serif" font-size="14.00">right&#45;lte</text>
</g>
<!-- /pipeline/range/compare&#45;&gt;/pipeline/range/last -->
<g id="edge12" class="edge">
<title>/pipeline/range/compare:s&#45;&gt;/pipeline/range/last:n</title>
<path fill="none" stroke="black" d="M669.34,-158.74C669.34,-106.81 664.08,-91.45 663.41,-44.23"/>
<polygon fill="black" stroke="black" points="666.91,-43.98 663.34,-34 659.91,-44.02 666.91,-43.98"/>
<text text-anchor="middle" x="634.33" y="-85.1" font-family="Times,serif" font-size="14.00">right&#45;gte</text>
</g>
<!-- /pipeline/range/compare&#45;&gt;/pipeline/range/compare -->
<g id="edge9" class="edge">
<title>/pipeline/range/compare:s&#45;&gt;/pipeline/range/compare:ne</title>
<path fill="none" stroke="black" d="M669.34,-158.61C708.33,-145.61 786.33,-145.61 786.33,-185.11 786.33,-221.37 742.52,-224.34 705.16,-214.53"/>
<polygon fill="black" stroke="black" points="705.92,-211.11 695.34,-211.61 703.92,-217.82 705.92,-211.11"/>
<text text-anchor="middle" x="652.57" y="-145.81" font-family="Times,serif" font-size="14.00">left&#45;gt</text>
<text text-anchor="middle" x="682.84" y="-200.41" font-family="Times,serif" font-size="14.00">left</text>
</g>
<!-- /pipeline/range/compare&#45;&gt;/pipeline/range/add -->
<g id="edge10" class="edge">
<title>/pipeline/range/compare:sw&#45;&gt;/pipeline/range/add:ne</title>
<path fill="none" stroke="black" d="M643.34,-158.74C607.38,-122.78 578.96,-155.64 530.34,-140.74 496.76,-130.45 481.66,-131.03 458.73,-110.84"/>
<polygon fill="black" stroke="black" points="461.01,-108.18 451.34,-103.87 456.21,-113.28 461.01,-108.18"/>
<text text-anchor="middle" x="504.82" y="-144.54" font-family="Times,serif" font-size="14.00">right&#45;lt</text>
<text text-anchor="middle" x="444.34" y="-107.67" font-family="Times,serif" font-size="14.00">i1</text>
</g>
<!-- initializer/pipeline/range/compare_0 -->
<!-- initializer/pipeline/range/compare_0&#45;&gt;/pipeline/range/compare -->
<g id="edge1" class="edge">
<title>initializer/pipeline/range/compare_0&#45;&gt;/pipeline/range/compare:ne</title>
<path fill="none" stroke="blue" stroke-dasharray="1,5" d="M917,-264.27C881.57,-253.83 833.92,-240.4 791.34,-230.48 752.69,-221.48 730.13,-239.54 703.1,-219.27"/>
<polygon fill="blue" stroke="blue" points="705.17,-216.43 695.34,-212.48 700.56,-221.7 705.17,-216.43"/>
<text text-anchor="middle" x="854.84" y="-234.28" font-family="Times,serif" font-size="14.00">20</text>
</g>
<!-- initializer/pipeline/range/compare_1 -->
<!-- initializer/pipeline/range/compare_1&#45;&gt;/pipeline/range/compare -->
<g id="edge2" class="edge">
<title>initializer/pipeline/range/compare_1&#45;&gt;/pipeline/range/compare:ne</title>
<path fill="none" stroke="blue" stroke-dasharray="1,5" d="M573.68,-264.3C616.54,-251.23 671.6,-233.1 689.92,-221.13"/>
<polygon fill="blue" stroke="blue" points="693,-222.81 695.34,-212.48 687.07,-219.1 693,-222.81"/>
<text text-anchor="middle" x="672.34" y="-234.28" font-family="Times,serif" font-size="14.00">1</text>
</g>
<!-- /pipeline/range/add&#45;&gt;/pipeline/range/compare -->
<g id="edge11" class="edge">
<title>/pipeline/range/add:sw&#45;&gt;/pipeline/range/compare:ne</title>
<path fill="none" stroke="black" d="M407.34,-57.87C402.02,-52.55 395.6,-53.4 390.45,-58.87 375.55,-74.68 376.15,-91.39 390.45,-107.74 393.93,-111.73 764.85,-154.75 768.33,-158.74 783.8,-176.43 784.83,-194.88 768.33,-211.61 758.9,-221.17 722.9,-223.45 704.28,-217.44"/>
<polygon fill="black" stroke="black" points="705.8,-214.28 695.34,-212.61 702.48,-220.44 705.8,-214.28"/>
<text text-anchor="middle" x="536.55" y="-118.61" font-family="Times,serif" font-size="14.00">sum</text>
<text text-anchor="middle" x="713.34" y="-216.41" font-family="Times,serif" font-size="14.00">right</text>
</g>
<!-- /pipeline/range/add&#45;&gt;/pipeline/range/add -->
<g id="edge7" class="edge">
<title>/pipeline/range/add:e&#45;&gt;/pipeline/range/add:w</title>
<path fill="none" stroke="black" d="M468.34,-80.87C486.23,-98.49 486.23,-133.74 429.34,-133.74 380.22,-133.74 373.51,-107.47 384.1,-88.95"/>
<polygon fill="black" stroke="black" points="387,-90.93 390.34,-80.87 381.46,-86.65 387,-90.93"/>
<text text-anchor="middle" x="475.34" y="-84.67" font-family="Times,serif" font-size="14.00">i2</text>
<text text-anchor="middle" x="383.34" y="-69.67" font-family="Times,serif" font-size="14.00">i2</text>
</g>
<!-- initializer/pipeline/range/add_1 -->
<!-- initializer/pipeline/range/add_1&#45;&gt;/pipeline/range/add -->
<g id="edge3" class="edge">
<title>initializer/pipeline/range/add_1&#45;&gt;/pipeline/range/add:w</title>
<path fill="none" stroke="blue" stroke-dasharray="1,5" d="M176.83,-167.71C214.82,-139.52 297.52,-85.54 378.91,-81.15"/>
<polygon fill="blue" stroke="blue" points="379.44,-84.64 389.34,-80.87 379.24,-77.64 379.44,-84.64"/>
<text text-anchor="middle" x="246.34" y="-129.54" font-family="Times,serif" font-size="14.00">1</text>
</g>
</g>
</svg>
