<?xml version="1.0" encoding="UTF-8" standalone="no"?>
<!DOCTYPE svg PUBLIC "-//W3C//DTD SVG 1.1//EN"
 "http://www.w3.org/Graphics/SVG/1.1/DTD/svg11.dtd">
<!-- Generated by graphviz version 2.44.1 (20200629.0846)
 -->
<!-- Title: range Pages: 1 -->
<svg width="982pt" height="424pt"
 viewBox="28.80 28.80 952.78 395.54" xmlns="http://www.w3.org/2000/svg" xmlns:xlink="http://www.w3.org/1999/xlink">
<g id="graph0" class="graph" transform="scale(1 1) rotate(0) translate(32.8 391.54)">
<title>range</title>
<polygon fill="white" stroke="transparent" points="-4,4 -4,-362.74 919.98,-362.74 919.98,4 -4,4"/>
<text text-anchor="middle" x="457.99" y="-343.54" font-family="Times,serif" font-size="14.00">range</text>
<!-- /pipeline/range/start -->
<g id="node1" class="node">
<title>/pipeline/range/start</title>
<polygon fill="white" stroke="black" points="586.16,-323.3 553.89,-335.74 521.62,-323.3 521.65,-303.18 586.13,-303.18 586.16,-323.3"/>
<text text-anchor="middle" x="553.89" y="-314.04" font-family="Times,serif" font-size="14.00">start</text>
</g>
<!-- /pipeline/range/compare -->
<g id="node6" class="node">
<title>/pipeline/range/compare</title>
<g id="a_node6"><a xlink:href="../../flowstdlib/control/compare_switch/compare_switch.html" xlink:title="compare\n(compare_switch)">
<ellipse fill="coral" stroke="black" cx="527.89" cy="-167.87" rx="81.13" ry="26.74"/>
<text text-anchor="middle" x="527.89" y="-171.67" font-family="Times,serif" font-size="14.00">compare</text>
<text text-anchor="middle" x="527.89" y="-156.67" font-family="Times,serif" font-size="14.00">(compare_switch)</text>
</a>
</g>
</g>
<!-- /pipeline/range/start&#45;&gt;/pipeline/range/compare -->
<g id="edge4" class="edge">
<title>/pipeline/range/start:s&#45;&gt;/pipeline/range/compare:ne</title>
<path fill="none" stroke="black" d="M553.89,-301.74C553.89,-257.9 582.47,-232.53 560.59,-202.49"/>
<polygon fill="black" stroke="black" points="563.08,-200.02 553.89,-194.74 557.78,-204.6 563.08,-200.02"/>
<text text-anchor="middle" x="540.89" y="-198.54" font-family="Times,serif" font-size="14.00">right</text>
</g>
<!-- /pipeline/range/end -->
<g id="node2" class="node">
<title>/pipeline/range/end</title>
<polygon fill="white" stroke="black" points="661.73,-323.3 632.89,-335.74 604.05,-323.3 604.07,-303.18 661.71,-303.18 661.73,-323.3"/>
<text text-anchor="middle" x="632.89" y="-314.04" font-family="Times,serif" font-size="14.00">end</text>
</g>
<!-- /pipeline/range/end&#45;&gt;/pipeline/range/compare -->
<g id="edge5" class="edge">
<title>/pipeline/range/end:s&#45;&gt;/pipeline/range/compare:ne</title>
<path fill="none" stroke="black" d="M632.89,-301.74C632.89,-255.93 612.31,-246.08 580.89,-212.74 573.78,-205.2 568.21,-204.47 561.85,-200.87"/>
<polygon fill="black" stroke="black" points="563.95,-198.06 553.89,-194.74 559.68,-203.61 563.95,-198.06"/>
<text text-anchor="middle" x="563.39" y="-198.54" font-family="Times,serif" font-size="14.00">left</text>
</g>
<!-- /pipeline/range/step -->
<g id="node3" class="node">
<title>/pipeline/range/step</title>
<polygon fill="white" stroke="black" points="287.45,-323.3 256.89,-335.74 226.33,-323.3 226.36,-303.18 287.42,-303.18 287.45,-323.3"/>
<text text-anchor="middle" x="256.89" y="-314.04" font-family="Times,serif" font-size="14.00">step</text>
</g>
<!-- /pipeline/range/add -->
<g id="node9" class="node">
<title>/pipeline/range/add</title>
<g id="a_node9"><a xlink:href="../../flowstdlib/math/add/add.html" xlink:title="add">
<ellipse fill="coral" stroke="black" cx="328.89" cy="-72" rx="27" ry="18"/>
<text text-anchor="middle" x="328.89" y="-68.3" font-family="Times,serif" font-size="14.00">add</text>
</a>
</g>
</g>
<!-- /pipeline/range/step&#45;&gt;/pipeline/range/add -->
<g id="edge6" class="edge">
<title>/pipeline/range/step:s&#45;&gt;/pipeline/range/add:w</title>
<path fill="none" stroke="black" d="M256.89,-301.74C256.89,-253.31 249.96,-95.72 291.05,-74.4"/>
<polygon fill="black" stroke="black" points="292,-77.77 300.89,-72 290.35,-70.96 292,-77.77"/>
<text text-anchor="middle" x="295.39" y="-75.8" font-family="Times,serif" font-size="14.00">i2</text>
</g>
<!-- /pipeline/range/sequence -->
<g id="node4" class="node">
<title>/pipeline/range/sequence</title>
<polygon fill="black" stroke="black" points="369.84,-12.44 422.89,0 475.93,-12.44 475.88,-32.56 369.89,-32.56 369.84,-12.44"/>
<text text-anchor="middle" x="422.89" y="-14.3" font-family="Times,serif" font-size="14.00" fill="white">sequence</text>
</g>
<!-- /pipeline/range/last -->
<g id="node5" class="node">
<title>/pipeline/range/last</title>
<polygon fill="black" stroke="black" points="493.65,-12.44 521.89,0 550.13,-12.44 550.1,-32.56 493.68,-32.56 493.65,-12.44"/>
<text text-anchor="middle" x="521.89" y="-14.3" font-family="Times,serif" font-size="14.00" fill="white">last</text>
</g>
<!-- /pipeline/range/compare&#45;&gt;/pipeline/range/sequence -->
<g id="edge8" class="edge">
<title>/pipeline/range/compare:s&#45;&gt;/pipeline/range/sequence:n</title>
<path fill="none" stroke="black" d="M527.89,-141C527.89,-110.94 442.4,-75.13 425.7,-43.95"/>
<polygon fill="black" stroke="black" points="428.97,-42.67 422.89,-34 422.24,-44.57 428.97,-42.67"/>
<text text-anchor="middle" x="453.31" y="-91.24" font-family="Times,serif" font-size="14.00">right&#45;lte</text>
</g>
<!-- /pipeline/range/compare&#45;&gt;/pipeline/range/last -->
<g id="edge12" class="edge">
<title>/pipeline/range/compare:s&#45;&gt;/pipeline/range/last:n</title>
<path fill="none" stroke="black" d="M527.89,-141C527.89,-96.9 522.75,-83.57 521.98,-44.04"/>
<polygon fill="black" stroke="black" points="525.48,-43.97 521.89,-34 518.48,-44.03 525.48,-43.97"/>
<text text-anchor="middle" x="501.4" y="-91.38" font-family="Times,serif" font-size="14.00">right&#45;gte</text>
</g>
<!-- /pipeline/range/compare&#45;&gt;/pipeline/range/compare -->
<g id="edge9" class="edge">
<title>/pipeline/range/compare:s&#45;&gt;/pipeline/range/compare:ne</title>
<path fill="none" stroke="black" d="M527.89,-140.87C561,-127.87 627.21,-127.87 627.21,-167.37 627.21,-203.17 594.18,-206.52 563.35,-197.16"/>
<polygon fill="black" stroke="black" points="564.48,-193.85 553.89,-193.87 562.18,-200.46 564.48,-193.85"/>
<text text-anchor="middle" x="514.5" y="-128.35" font-family="Times,serif" font-size="14.00">left&#45;gt</text>
<text text-anchor="middle" x="544.39" y="-182.67" font-family="Times,serif" font-size="14.00">left</text>
</g>
<!-- /pipeline/range/compare&#45;&gt;/pipeline/range/add -->
<g id="edge10" class="edge">
<title>/pipeline/range/compare:sw&#45;&gt;/pipeline/range/add:ne</title>
<path fill="none" stroke="black" d="M501.89,-141C472.12,-111.23 448.54,-137.14 408.89,-123 381.61,-113.27 369.92,-111.52 351.59,-95.29"/>
<polygon fill="black" stroke="black" points="353.56,-92.33 343.89,-88 348.75,-97.41 353.56,-92.33"/>
<text text-anchor="middle" x="389.87" y="-126.79" font-family="Times,serif" font-size="14.00">right&#45;lt</text>
<text text-anchor="middle" x="338.39" y="-91.8" font-family="Times,serif" font-size="14.00">i1</text>
</g>
<!-- initializer/pipeline/range/compare_0 -->
<!-- initializer/pipeline/range/compare_0&#45;&gt;/pipeline/range/compare -->
<g id="edge1" class="edge">
<title>initializer/pipeline/range/compare_0&#45;&gt;/pipeline/range/compare:ne</title>
<path fill="none" stroke="blue" stroke-dasharray="1,5" d="M735.69,-246.44C708.04,-235.89 670.64,-222.38 636.89,-212.74 604.14,-203.38 584.64,-217.99 561.54,-201.32"/>
<polygon fill="blue" stroke="blue" points="563.75,-198.61 553.89,-194.74 559.19,-203.91 563.75,-198.61"/>
<text text-anchor="middle" x="689.89" y="-216.54" font-family="Times,serif" font-size="14.00">20</text>
</g>
<!-- initializer/pipeline/range/compare_1 -->
<!-- initializer/pipeline/range/compare_1&#45;&gt;/pipeline/range/compare -->
<g id="edge2" class="edge">
<title>initializer/pipeline/range/compare_1&#45;&gt;/pipeline/range/compare:ne</title>
<path fill="none" stroke="blue" stroke-dasharray="1,5" d="M454.07,-246.58C488.16,-233.38 532.55,-215.06 548.54,-203.44"/>
<polygon fill="blue" stroke="blue" points="551.63,-205.09 553.89,-194.74 545.67,-201.42 551.63,-205.09"/>
<text text-anchor="middle" x="535.39" y="-216.54" font-family="Times,serif" font-size="14.00">1</text>
</g>
<!-- /pipeline/range/add&#45;&gt;/pipeline/range/compare -->
<g id="edge11" class="edge">
<title>/pipeline/range/add:sw&#45;&gt;/pipeline/range/compare:ne</title>
<path fill="none" stroke="black" d="M313.89,-56C310.1,-52.22 305.51,-53.06 301.89,-57 291.96,-67.79 292.41,-78.81 301.89,-90 307.48,-96.6 603.61,-134.4 609.21,-141 624.4,-158.92 625.67,-177.11 609.21,-193.87 602.48,-200.72 577.81,-202.78 563.19,-199.21"/>
<polygon fill="black" stroke="black" points="564.43,-195.93 553.89,-194.87 561.47,-202.27 564.43,-195.93"/>
<text text-anchor="middle" x="423.71" y="-116.38" font-family="Times,serif" font-size="14.00">sum</text>
<text text-anchor="middle" x="566.89" y="-198.67" font-family="Times,serif" font-size="14.00">right</text>
</g>
<!-- /pipeline/range/add&#45;&gt;/pipeline/range/add -->
<g id="edge7" class="edge">
<title>/pipeline/range/add:e&#45;&gt;/pipeline/range/add:w</title>
<path fill="none" stroke="black" d="M355.89,-72C373.89,-85 373.89,-111 328.89,-111 291.27,-111 285.1,-92.83 294.6,-79.28"/>
<polygon fill="black" stroke="black" points="297.29,-81.54 301.89,-72 292.34,-76.59 297.29,-81.54"/>
<text text-anchor="middle" x="361.4" y="-75.8" font-family="Times,serif" font-size="14.00">i2</text>
<text text-anchor="middle" x="296.39" y="-60.8" font-family="Times,serif" font-size="14.00">i2</text>
</g>
<!-- initializer/pipeline/range/add_1 -->
<!-- initializer/pipeline/range/add_1&#45;&gt;/pipeline/range/add -->
<g id="edge3" class="edge">
<title>initializer/pipeline/range/add_1&#45;&gt;/pipeline/range/add:w</title>
<path fill="none" stroke="blue" stroke-dasharray="1,5" d="M138.67,-149.91C167.68,-124.01 228.26,-77.08 290.83,-72.38"/>
<polygon fill="blue" stroke="blue" points="291.03,-75.88 300.89,-72 290.76,-68.88 291.03,-75.88"/>
<text text-anchor="middle" x="198.39" y="-111.8" font-family="Times,serif" font-size="14.00">1</text>
</g>
</g>
</svg>
