<?xml version="1.0" encoding="UTF-8" standalone="no"?>
<!DOCTYPE svg PUBLIC "-//W3C//DTD SVG 1.1//EN"
 "http://www.w3.org/Graphics/SVG/1.1/DTD/svg11.dtd">
<!-- Generated by graphviz version 2.40.1 (20161225.0304)
 -->
<!-- Title: range Pages: 1 -->
<svg width="1218pt" height="424pt"
 viewBox="28.80 28.80 1188.87 395.54" xmlns="http://www.w3.org/2000/svg" xmlns:xlink="http://www.w3.org/1999/xlink">
<g id="page0,1_graph0" class="graph" transform="scale(1 1) rotate(0) translate(32.8 391.5401)">
<title>range</title>
<polygon fill="#ffffff" stroke="transparent" points="-4,4 -4,-362.7401 1156.0704,-362.7401 1156.0704,4 -4,4"/>
<text text-anchor="middle" x="576.0352" y="-343.5401" font-family="Times,serif" font-size="14.00" fill="#000000">range</text>
<!-- /pipeline/range/start -->
<g id="node1" class="node">
<title>/pipeline/range/start</title>
<polygon fill="#ffffff" stroke="#000000" points="740.2803,-323.3024 699.3362,-335.7401 658.3922,-323.3024 658.4304,-303.1778 740.2421,-303.1778 740.2803,-323.3024"/>
<text text-anchor="middle" x="699.3362" y="-314.0401" font-family="Times,serif" font-size="14.00" fill="#000000">start</text>
</g>
<!-- /pipeline/range/compare -->
<g id="node6" class="node">
<title>/pipeline/range/compare</title>
<g id="a_node6"><a xlink:href="../../flowstdlib/control/compare_switch/compare_switch.html" xlink:title="compare\n(compare_switch)">
<ellipse fill="#ff7f50" stroke="#000000" cx="669.3362" cy="-167.8701" rx="101.6471" ry="26.7407"/>
<text text-anchor="middle" x="669.3362" y="-171.6701" font-family="Times,serif" font-size="14.00" fill="#000000">compare</text>
<text text-anchor="middle" x="669.3362" y="-156.6701" font-family="Times,serif" font-size="14.00" fill="#000000">(compare_switch)</text>
</a>
</g>
</g>
<!-- /pipeline/range/start&#45;&gt;/pipeline/range/compare -->
<g id="edge4" class="edge">
<title>/pipeline/range/start:s&#45;&gt;/pipeline/range/compare:ne</title>
<path fill="none" stroke="#000000" d="M699.3362,-302.7401C699.3362,-258.1035 725.0338,-232.339 702.2252,-201.762"/>
<polygon fill="#000000" stroke="#000000" points="704.5492,-199.1019 695.3362,-193.8701 699.2757,-203.7053 704.5492,-199.1019"/>
<text text-anchor="middle" x="677.3362" y="-197.6701" font-family="Times,serif" font-size="14.00" fill="#000000">right</text>
</g>
<!-- /pipeline/range/end -->
<g id="node2" class="node">
<title>/pipeline/range/end</title>
<polygon fill="#ffffff" stroke="#000000" points="827.9263,-323.3024 793.3362,-335.7401 758.7461,-323.3024 758.7784,-303.1778 827.8941,-303.1778 827.9263,-323.3024"/>
<text text-anchor="middle" x="793.3362" y="-314.0401" font-family="Times,serif" font-size="14.00" fill="#000000">end</text>
</g>
<!-- /pipeline/range/end&#45;&gt;/pipeline/range/compare -->
<g id="edge5" class="edge">
<title>/pipeline/range/end:s&#45;&gt;/pipeline/range/compare:ne</title>
<path fill="none" stroke="#000000" d="M793.3362,-302.7401C793.3362,-252.0657 760.3663,-247.3331 723.3362,-212.7401 715.4544,-205.377 709.9197,-204.3319 703.4898,-200.3864"/>
<polygon fill="#000000" stroke="#000000" points="705.3331,-197.3791 695.3362,-193.8701 700.9629,-202.8473 705.3331,-197.3791"/>
<text text-anchor="middle" x="707.8362" y="-197.6701" font-family="Times,serif" font-size="14.00" fill="#000000">left</text>
</g>
<!-- /pipeline/range/step -->
<g id="node3" class="node">
<title>/pipeline/range/step</title>
<polygon fill="#ffffff" stroke="#000000" points="362.8548,-323.3024 325.3362,-335.7401 287.8176,-323.3024 287.8526,-303.1778 362.8198,-303.1778 362.8548,-323.3024"/>
<text text-anchor="middle" x="325.3362" y="-314.0401" font-family="Times,serif" font-size="14.00" fill="#000000">step</text>
</g>
<!-- /pipeline/range/add -->
<g id="node9" class="node">
<title>/pipeline/range/add</title>
<g id="a_node9"><a xlink:href="../../flowstdlib/math/add/add.html" xlink:title="add">
<ellipse fill="#ff7f50" stroke="#000000" cx="427.3362" cy="-72" rx="27.8951" ry="18"/>
<text text-anchor="middle" x="427.3362" y="-68.3" font-family="Times,serif" font-size="14.00" fill="#000000">add</text>
</a>
</g>
</g>
<!-- /pipeline/range/step&#45;&gt;/pipeline/range/add -->
<g id="edge6" class="edge">
<title>/pipeline/range/step:s&#45;&gt;/pipeline/range/add:w</title>
<path fill="none" stroke="#000000" d="M325.3362,-302.7401C325.3362,-236.4276 360.377,-101.9143 389.9706,-76.2745"/>
<polygon fill="#000000" stroke="#000000" points="391.6922,-79.3362 399.3362,-72 388.7857,-72.9681 391.6922,-79.3362"/>
<text text-anchor="middle" x="392.3362" y="-75.8" font-family="Times,serif" font-size="14.00" fill="#000000">i2</text>
</g>
<!-- /pipeline/range/sequence -->
<g id="node4" class="node">
<title>/pipeline/range/sequence</title>
<polygon fill="#000000" stroke="#000000" points="475.8696,-12.4377 543.3362,0 610.8029,-12.4377 610.7399,-32.5623 475.9325,-32.5623 475.8696,-12.4377"/>
<text text-anchor="middle" x="543.3362" y="-14.3" font-family="Times,serif" font-size="14.00" fill="#ffffff">sequence</text>
</g>
<!-- /pipeline/range/last -->
<g id="node5" class="node">
<title>/pipeline/range/last</title>
<polygon fill="#000000" stroke="#000000" points="628.7461,-12.4377 663.3362,0 697.9263,-12.4377 697.8941,-32.5623 628.7784,-32.5623 628.7461,-12.4377"/>
<text text-anchor="middle" x="663.3362" y="-14.3" font-family="Times,serif" font-size="14.00" fill="#ffffff">last</text>
</g>
<!-- /pipeline/range/compare&#45;&gt;/pipeline/range/sequence -->
<g id="edge8" class="edge">
<title>/pipeline/range/compare:s&#45;&gt;/pipeline/range/sequence:n</title>
<path fill="none" stroke="#000000" d="M669.3362,-141C669.3362,-107.4351 564.9598,-76.0526 546.2046,-42.8798"/>
<polygon fill="#000000" stroke="#000000" points="549.4857,-41.6276 543.3362,-33 542.7633,-43.5793 549.4857,-41.6276"/>
<text text-anchor="middle" x="576.5911" y="-90.6616" font-family="Times,serif" font-size="14.00" fill="#000000">right&#45;lte</text>
</g>
<!-- /pipeline/range/compare&#45;&gt;/pipeline/range/last -->
<g id="edge12" class="edge">
<title>/pipeline/range/compare:s&#45;&gt;/pipeline/range/last:n</title>
<path fill="none" stroke="#000000" d="M669.3362,-141C669.3362,-96.494 664.1938,-83.0328 663.4305,-43.135"/>
<polygon fill="#000000" stroke="#000000" points="666.9291,-42.967 663.3362,-33 659.9295,-43.0321 666.9291,-42.967"/>
<text text-anchor="middle" x="698.3447" y="-90.885" font-family="Times,serif" font-size="14.00" fill="#000000">right&#45;gte</text>
</g>
<!-- /pipeline/range/compare&#45;&gt;/pipeline/range/compare -->
<g id="edge9" class="edge">
<title>/pipeline/range/compare:s&#45;&gt;/pipeline/range/compare:ne</title>
<path fill="none" stroke="#000000" d="M669.3362,-140.8701C709.2773,-127.8701 789.1596,-127.8701 789.1596,-167.3701 789.1596,-203.6298 743.7548,-206.6043 705.4095,-196.7922"/>
<polygon fill="#000000" stroke="#000000" points="705.9154,-193.2947 695.3362,-193.8701 703.9651,-200.0176 705.9154,-193.2947"/>
<text text-anchor="middle" x="652.6966" y="-128.0684" font-family="Times,serif" font-size="14.00" fill="#000000">left&#45;gt</text>
<text text-anchor="middle" x="682.8362" y="-182.6701" font-family="Times,serif" font-size="14.00" fill="#000000">left</text>
</g>
<!-- /pipeline/range/compare&#45;&gt;/pipeline/range/add -->
<g id="edge10" class="edge">
<title>/pipeline/range/compare:sw&#45;&gt;/pipeline/range/add:ne</title>
<path fill="none" stroke="#000000" d="M643.3362,-141.8701C607.022,-105.5558 578.7588,-136.9591 529.3362,-123 493.1914,-112.7911 475.7724,-116.3442 450.9339,-95.0647"/>
<polygon fill="#000000" stroke="#000000" points="453.0429,-92.2464 443.3362,-88 448.2762,-97.3727 453.0429,-92.2464"/>
<text text-anchor="middle" x="503.823" y="-126.7963" font-family="Times,serif" font-size="14.00" fill="#000000">right&#45;lt</text>
<text text-anchor="middle" x="450.3362" y="-91.8" font-family="Times,serif" font-size="14.00" fill="#000000">i1</text>
</g>
<!-- initializer/pipeline/range/compare_0 -->
<!-- initializer/pipeline/range/compare_0&#45;&gt;/pipeline/range/compare -->
<g id="edge1" class="edge">
<title>initializer/pipeline/range/compare_0&#45;&gt;/pipeline/range/compare:ne</title>
<path fill="none" stroke="#0000ff" stroke-dasharray="1,5" d="M917.3148,-246.5269C881.9555,-235.9964 835.2079,-222.6838 793.3362,-212.7401 753.7209,-203.3323 730.685,-221.725 702.9108,-200.5444"/>
<polygon fill="#0000ff" stroke="#0000ff" points="705.153,-197.8552 695.3362,-193.8701 700.5252,-203.1072 705.153,-197.8552"/>
<text text-anchor="middle" x="856.8362" y="-216.5401" font-family="Times,serif" font-size="14.00" fill="#000000">20</text>
</g>
<!-- initializer/pipeline/range/compare_1 -->
<!-- initializer/pipeline/range/compare_1&#45;&gt;/pipeline/range/compare -->
<g id="edge2" class="edge">
<title>initializer/pipeline/range/compare_1&#45;&gt;/pipeline/range/compare:ne</title>
<path fill="none" stroke="#0000ff" stroke-dasharray="1,5" d="M591.6236,-247.2628C637.5778,-235.4452 689.8164,-218.9757 697.3536,-203.6862"/>
<polygon fill="#0000ff" stroke="#0000ff" points="700.7778,-202.9607 695.3362,-193.8701 693.9211,-204.37 700.7778,-202.9607"/>
<text text-anchor="middle" x="690.3362" y="-216.5401" font-family="Times,serif" font-size="14.00" fill="#000000">1</text>
</g>
<!-- /pipeline/range/add&#45;&gt;/pipeline/range/compare -->
<g id="edge11" class="edge">
<title>/pipeline/range/add:sw&#45;&gt;/pipeline/range/compare:ne</title>
<path fill="none" stroke="#000000" d="M411.3362,-56C411.3362,-56 399.3887,-90 399.3887,-90 406.2402,-97.8556 764.3081,-133.1444 771.1596,-141 771.1596,-141 723.4819,-174.2447 703.7404,-188.01"/>
<polygon fill="#000000" stroke="#000000" points="701.5371,-185.2794 695.3362,-193.8701 705.5409,-191.0214 701.5371,-185.2794"/>
<text text-anchor="middle" x="570.426" y="-115.7071" font-family="Times,serif" font-size="14.00" fill="#000000">sum</text>
<text text-anchor="middle" x="713.3362" y="-182.6701" font-family="Times,serif" font-size="14.00" fill="#000000">right</text>
</g>
<!-- /pipeline/range/add&#45;&gt;/pipeline/range/add -->
<g id="edge7" class="edge">
<title>/pipeline/range/add:e&#45;&gt;/pipeline/range/add:w</title>
<path fill="none" stroke="#000000" d="M455.3362,-72C473.2837,-85 473.2837,-111 427.3362,-111 388.927,-111 382.6254,-92.8314 392.0756,-79.276"/>
<polygon fill="#000000" stroke="#000000" points="394.7501,-81.5508 399.3362,-72 389.7951,-76.6063 394.7501,-81.5508"/>
<text text-anchor="middle" x="462.3428" y="-75.8048" font-family="Times,serif" font-size="14.00" fill="#000000">i2</text>
<text text-anchor="middle" x="392.3362" y="-60.8" font-family="Times,serif" font-size="14.00" fill="#000000">i2</text>
</g>
<!-- initializer/pipeline/range/add_1 -->
<!-- initializer/pipeline/range/add_1&#45;&gt;/pipeline/range/add -->
<g id="edge3" class="edge">
<title>initializer/pipeline/range/add_1&#45;&gt;/pipeline/range/add:w</title>
<path fill="none" stroke="#0000ff" stroke-dasharray="1,5" d="M181.4499,-150.0623C222.9459,-123.4746 307.5892,-76.0912 388.9222,-72.249"/>
<polygon fill="#0000ff" stroke="#0000ff" points="389.4228,-75.7381 399.3362,-72 389.2554,-68.7401 389.4228,-75.7381"/>
<text text-anchor="middle" x="262.3362" y="-111.8" font-family="Times,serif" font-size="14.00" fill="#000000">1</text>
</g>
</g>
</svg>
