<?xml version="1.0" encoding="UTF-8" standalone="no"?>
<!DOCTYPE svg PUBLIC "-//W3C//DTD SVG 1.1//EN"
 "http://www.w3.org/Graphics/SVG/1.1/DTD/svg11.dtd">
<!-- Generated by graphviz version 2.44.0 (20200408.0750)
 -->
<!-- Title: range_of_ranges Pages: 1 -->
<svg width="756pt" height="404pt"
 viewBox="0.00 0.00 756.49 404.00" xmlns="http://www.w3.org/2000/svg" xmlns:xlink="http://www.w3.org/1999/xlink">
<g id="graph0" class="graph" transform="scale(1 1) rotate(0) translate(4 400)">
<title>range_of_ranges</title>
<polygon fill="white" stroke="transparent" points="-4,4 -4,-400 752.49,-400 752.49,4 -4,4"/>
<text text-anchor="middle" x="374.25" y="-380.8" font-family="Times,serif" font-size="14.00">/range&#45;of&#45;ranges</text>
<g id="clust2" class="cluster">
<title>cluster_sequence_of_sequences</title>
<polygon fill="none" stroke="black" points="8,-8 8,-170 351,-170 351,-8 8,-8"/>
<text text-anchor="middle" x="179.5" y="-154.8" font-family="Times,serif" font-size="14.00">/range&#45;of&#45;ranges/sequence&#45;of&#45;sequences</text>
</g>
<g id="clust1" class="cluster">
<title>cluster_limit_sequence</title>
<polygon fill="none" stroke="black" points="359,-95 359,-365 702,-365 702,-95 359,-95"/>
<text text-anchor="middle" x="530.5" y="-349.8" font-family="Times,serif" font-size="14.00">/range&#45;of&#45;ranges/limit&#45;sequence</text>
</g>
<!-- r0 -->
<g id="node1" class="node">
<title>r0</title>
<g id="a_node1"><a xlink:href="file:///Users/andrew/workspace/flow/flowstdlib/control/compare_switch/compare_switch.html" xlink:title="compare (#0)">
<ellipse fill="coral" stroke="black" cx="618" cy="-229" rx="58.49" ry="18"/>
<text text-anchor="middle" x="618" y="-225.3" font-family="Times,serif" font-size="14.00">compare (#0)</text>
</a>
</g>
</g>
<!-- r0&#45;&gt;r0 -->
<g id="edge4" class="edge">
<title>r0:s&#45;&gt;r0:n</title>
<path fill="none" stroke="black" d="M618,-211C661.5,-200.5 748.49,-200.5 748.49,-229 748.49,-255.44 673.62,-257.35 628.06,-249.11"/>
<polygon fill="black" stroke="black" points="628.5,-245.62 618,-247 627.07,-252.47 628.5,-245.62"/>
<text text-anchor="middle" x="608.5" y="-250.8" font-family="Times,serif" font-size="14.00">left</text>
<text text-anchor="middle" x="599.5" y="-199.8" font-family="Times,serif" font-size="14.00">/left&#45;gt</text>
</g>
<!-- r3 -->
<g id="node4" class="node">
<title>r3</title>
<g id="a_node4"><a xlink:href="file:///Users/andrew/workspace/flow/flowstdlib/control/compare_switch/compare_switch.html" xlink:title="compare (#3)">
<ellipse fill="coral" stroke="black" cx="267" cy="-121" rx="58.49" ry="18"/>
<text text-anchor="middle" x="267" y="-117.3" font-family="Times,serif" font-size="14.00">compare (#3)</text>
</a>
</g>
</g>
<!-- r0&#45;&gt;r3 -->
<g id="edge3" class="edge">
<title>r0:e&#45;&gt;r3:n</title>
<path fill="none" stroke="black" d="M678,-229C686.01,-229 682.59,-216.74 677,-211 659.64,-193.2 478.61,-196.49 454,-193 403.25,-185.81 390.07,-184.8 341,-170 310.74,-160.87 275.68,-172.36 268.38,-149.91"/>
<polygon fill="black" stroke="black" points="271.84,-149.42 267,-140 264.91,-150.39 271.84,-149.42"/>
<text text-anchor="middle" x="257.5" y="-143.8" font-family="Times,serif" font-size="14.00">left</text>
<text text-anchor="middle" x="702" y="-232.8" font-family="Times,serif" font-size="14.00">/right&#45;lte</text>
</g>
<!-- r1 -->
<g id="node5" class="node">
<title>r1</title>
<g id="a_node5"><a xlink:href="file:///Users/andrew/workspace/flow/flowstdlib/math/add/add.html" xlink:title="add (#1)">
<ellipse fill="coral" stroke="black" cx="618" cy="-121" rx="40.09" ry="18"/>
<text text-anchor="middle" x="618" y="-117.3" font-family="Times,serif" font-size="14.00">add (#1)</text>
</a>
</g>
</g>
<!-- r0&#45;&gt;r1 -->
<g id="edge5" class="edge">
<title>r0:e&#45;&gt;r1:n</title>
<path fill="none" stroke="black" d="M678,-229C686.01,-229 681.77,-217.44 677,-211 663.2,-192.35 642.99,-210.71 628,-193 614.93,-177.56 616.8,-167.51 617.7,-150.35"/>
<polygon fill="black" stroke="black" points="621.21,-150.1 618,-140 614.21,-149.89 621.21,-150.1"/>
<text text-anchor="middle" x="612.5" y="-143.8" font-family="Times,serif" font-size="14.00">i1</text>
<text text-anchor="middle" x="699" y="-217.8" font-family="Times,serif" font-size="14.00">/right&#45;lt</text>
</g>
<!-- initializerr0_0 -->
<!-- initializerr0_0&#45;&gt;r0 -->
<g id="edge1" class="edge">
<title>initializerr0_0&#45;&gt;r0:ne</title>
<path fill="none" stroke="blue" stroke-dasharray="1,5" d="M640.3,-297.94C643.92,-285.46 646.72,-268.51 640.88,-255.58"/>
<polygon fill="blue" stroke="blue" points="643.54,-253.27 635,-247 637.77,-257.23 643.54,-253.27"/>
<text text-anchor="middle" x="647.5" y="-268.8" font-family="Times,serif" font-size="14.00">9</text>
</g>
<!-- initializerr0_1 -->
<!-- initializerr0_1&#45;&gt;r0 -->
<g id="edge2" class="edge">
<title>initializerr0_1&#45;&gt;r0:ne</title>
<path fill="none" stroke="blue" stroke-dasharray="1,5" d="M485.15,-303.58C533.74,-290.59 607.88,-269.41 629.67,-255.65"/>
<polygon fill="blue" stroke="blue" points="632.73,-257.35 635,-247 626.77,-253.67 632.73,-257.35"/>
<text text-anchor="middle" x="612.5" y="-268.8" font-family="Times,serif" font-size="14.00">1</text>
</g>
<!-- r3&#45;&gt;r3 -->
<g id="edge12" class="edge">
<title>r3:s&#45;&gt;r3:n</title>
<path fill="none" stroke="black" d="M267,-103C310.5,-92.5 397.49,-92.5 397.49,-121 397.49,-147.44 322.62,-149.35 277.06,-141.11"/>
<polygon fill="black" stroke="black" points="277.5,-137.62 267,-139 276.07,-144.47 277.5,-137.62"/>
<text text-anchor="middle" x="276.5" y="-142.8" font-family="Times,serif" font-size="14.00">left</text>
<text text-anchor="middle" x="248.5" y="-91.8" font-family="Times,serif" font-size="14.00">/left&#45;gt</text>
</g>
<!-- r5 -->
<g id="node9" class="node">
<title>r5</title>
<g id="a_node9"><a xlink:href="file:///Users/andrew/workspace/flow/flowruntime/stdio/stdout.html" xlink:title="print (#5)">
<ellipse fill="coral" stroke="black" cx="122" cy="-34" rx="44.39" ry="18"/>
<text text-anchor="middle" x="122" y="-30.3" font-family="Times,serif" font-size="14.00">print (#5)</text>
</a>
</g>
</g>
<!-- r3&#45;&gt;r5 -->
<g id="edge11" class="edge">
<title>r3:e&#45;&gt;r5:n</title>
<path fill="none" stroke="black" d="M327,-121C335.01,-121 331.1,-109.18 326,-103 325.6,-102.51 172.48,-65.07 131.82,-54.65"/>
<polygon fill="black" stroke="black" points="132.57,-51.23 122,-52 130.74,-57.99 132.57,-51.23"/>
<text text-anchor="middle" x="351" y="-124.8" font-family="Times,serif" font-size="14.00">/right&#45;lte</text>
</g>
<!-- r4 -->
<g id="node10" class="node">
<title>r4</title>
<g id="a_node10"><a xlink:href="file:///Users/andrew/workspace/flow/flowstdlib/math/add/add.html" xlink:title="add (#4)">
<ellipse fill="coral" stroke="black" cx="278" cy="-34" rx="40.09" ry="18"/>
<text text-anchor="middle" x="278" y="-30.3" font-family="Times,serif" font-size="14.00">add (#4)</text>
</a>
</g>
</g>
<!-- r3&#45;&gt;r4 -->
<g id="edge13" class="edge">
<title>r3:e&#45;&gt;r4:n</title>
<path fill="none" stroke="black" d="M327,-121C335.01,-121 330.57,-109.58 326,-103 314.66,-86.65 297.56,-100.44 285,-85 277.98,-76.37 277.52,-70.63 277.76,-62.12"/>
<polygon fill="black" stroke="black" points="281.26,-62.08 278,-52 274.26,-61.91 281.26,-62.08"/>
<text text-anchor="middle" x="272.5" y="-55.8" font-family="Times,serif" font-size="14.00">i1</text>
<text text-anchor="middle" x="348" y="-109.8" font-family="Times,serif" font-size="14.00">/right&#45;lt</text>
</g>
<!-- r1&#45;&gt;r0 -->
<g id="edge8" class="edge">
<title>r1:se&#45;&gt;r0:ne</title>
<path fill="none" stroke="black" d="M635,-103C642.33,-95.67 650.52,-97.15 658.3,-104 715.36,-154.32 703.56,-218.27 676.49,-246 671.81,-250.8 655.47,-252.59 644.39,-250.72"/>
<polygon fill="black" stroke="black" points="645.59,-247.43 635,-247 643.01,-253.94 645.59,-247.43"/>
<text text-anchor="middle" x="648" y="-250.8" font-family="Times,serif" font-size="14.00">right</text>
<text text-anchor="middle" x="621" y="-91.8" font-family="Times,serif" font-size="14.00">/sum</text>
</g>
<!-- r1&#45;&gt;r1 -->
<g id="edge7" class="edge">
<title>r1:se&#45;&gt;r1:ne</title>
<path fill="none" stroke="black" d="M635,-104C672.43,-93.5 730.3,-93.5 730.3,-121 730.3,-146.14 681.95,-148.3 645.05,-140.46"/>
<polygon fill="black" stroke="black" points="645.55,-136.98 635,-138 643.88,-143.78 645.55,-136.98"/>
<text text-anchor="middle" x="629.5" y="-141.8" font-family="Times,serif" font-size="14.00">i2</text>
<text text-anchor="middle" x="642.5" y="-92.8" font-family="Times,serif" font-size="14.00">/i2</text>
</g>
<!-- initializerr1_1 -->
<!-- initializerr1_1&#45;&gt;r1 -->
<g id="edge6" class="edge">
<title>initializerr1_1&#45;&gt;r1:w</title>
<path fill="none" stroke="blue" stroke-dasharray="1,5" d="M438.82,-211.28C460.32,-182.89 508.92,-127.72 565.69,-121.56"/>
<polygon fill="blue" stroke="blue" points="566.21,-125.04 576,-121 565.82,-118.05 566.21,-125.04"/>
<text text-anchor="middle" x="468.5" y="-181.8" font-family="Times,serif" font-size="14.00">1</text>
</g>
<!-- r2 -->
<g id="node7" class="node">
<title>r2</title>
<g id="a_node7"><a xlink:href="file:///Users/andrew/workspace/flow/flowstdlib/data/buffer/buffer.html" xlink:title="start&#45;of&#45;each (#2)">
<ellipse fill="coral" stroke="black" cx="212" cy="-229" rx="72.29" ry="18"/>
<text text-anchor="middle" x="212" y="-225.3" font-family="Times,serif" font-size="14.00">start&#45;of&#45;each (#2)</text>
</a>
</g>
</g>
<!-- r2&#45;&gt;r3 -->
<g id="edge10" class="edge">
<title>r2:e&#45;&gt;r3:ne</title>
<path fill="none" stroke="black" d="M285,-229C321.72,-229 314.02,-177 290.63,-146.58"/>
<polygon fill="black" stroke="black" points="293.22,-144.23 284,-139 287.94,-148.83 293.22,-144.23"/>
<text text-anchor="middle" x="297" y="-142.8" font-family="Times,serif" font-size="14.00">right</text>
</g>
<!-- initializerr2_0 -->
<!-- initializerr2_0&#45;&gt;r2 -->
<g id="edge9" class="edge">
<title>initializerr2_0&#45;&gt;r2:w</title>
<path fill="none" stroke="blue" d="M133.14,-298.01C125.29,-276.67 115.25,-241.63 129.31,-231.7"/>
<polygon fill="blue" stroke="blue" points="130.31,-235.05 139,-229 128.43,-228.31 130.31,-235.05"/>
<text text-anchor="middle" x="130.5" y="-268.8" font-family="Times,serif" font-size="14.00">0</text>
</g>
<!-- r4&#45;&gt;r3 -->
<g id="edge16" class="edge">
<title>r4:se&#45;&gt;r3:ne</title>
<path fill="none" stroke="black" d="M295,-16C302.33,-8.67 310.82,-9.82 318.3,-17 335.51,-33.53 334.68,-128.59 325.49,-138 320.81,-142.8 304.47,-144.59 293.39,-142.72"/>
<polygon fill="black" stroke="black" points="294.59,-139.43 284,-139 292.01,-145.94 294.59,-139.43"/>
<text text-anchor="middle" x="271" y="-127.8" font-family="Times,serif" font-size="14.00">right</text>
<text text-anchor="middle" x="281" y="-4.8" font-family="Times,serif" font-size="14.00">/sum</text>
</g>
<!-- r4&#45;&gt;r4 -->
<g id="edge15" class="edge">
<title>r4:se&#45;&gt;r4:ne</title>
<path fill="none" stroke="black" d="M295,-17C332.43,-6.5 390.3,-6.5 390.3,-34 390.3,-59.14 341.95,-61.3 305.05,-53.46"/>
<polygon fill="black" stroke="black" points="305.55,-49.98 295,-51 303.88,-56.78 305.55,-49.98"/>
<text text-anchor="middle" x="289.5" y="-54.8" font-family="Times,serif" font-size="14.00">i2</text>
<text text-anchor="middle" x="302.5" y="-5.8" font-family="Times,serif" font-size="14.00">/i2</text>
</g>
<!-- initializerr4_1 -->
<!-- initializerr4_1&#45;&gt;r4 -->
<g id="edge14" class="edge">
<title>initializerr4_1&#45;&gt;r4:w</title>
<path fill="none" stroke="blue" stroke-dasharray="1,5" d="M104.14,-104.82C140.98,-84.96 203.61,-51.2 226.92,-38.78"/>
<polygon fill="blue" stroke="blue" points="228.78,-41.75 236,-34 225.52,-35.56 228.78,-41.75"/>
<text text-anchor="middle" x="168.5" y="-73.8" font-family="Times,serif" font-size="14.00">1</text>
</g>
</g>
</svg>
