<?xml version="1.0" encoding="UTF-8" standalone="no"?>
<!DOCTYPE svg PUBLIC "-//W3C//DTD SVG 1.1//EN"
 "http://www.w3.org/Graphics/SVG/1.1/DTD/svg11.dtd">
<!-- Generated by graphviz version 2.44.0 (20200408.0750)
 -->
<!-- Title: range_of_ranges Pages: 1 -->
<svg width="828pt" height="404pt"
 viewBox="0.00 0.00 828.49 404.00" xmlns="http://www.w3.org/2000/svg" xmlns:xlink="http://www.w3.org/1999/xlink">
<g id="graph0" class="graph" transform="scale(1 1) rotate(0) translate(4 400)">
<title>range_of_ranges</title>
<polygon fill="white" stroke="transparent" points="-4,4 -4,-400 824.49,-400 824.49,4 -4,4"/>
<text text-anchor="middle" x="410.25" y="-380.8" font-family="Times,serif" font-size="14.00">/range&#45;of&#45;ranges</text>
<g id="clust1" class="cluster">
<title>cluster_limit_sequence</title>
<polygon fill="none" stroke="black" points="431,-95 431,-365 774,-365 774,-95 431,-95"/>
<text text-anchor="middle" x="602.5" y="-349.8" font-family="Times,serif" font-size="14.00">/range&#45;of&#45;ranges/limit&#45;sequence</text>
</g>
<g id="clust2" class="cluster">
<title>cluster_sequence_of_sequences</title>
<polygon fill="none" stroke="black" points="8,-8 8,-170 305,-170 305,-8 8,-8"/>
<text text-anchor="middle" x="156.5" y="-154.8" font-family="Times,serif" font-size="14.00">/range&#45;of&#45;ranges/sequence&#45;of&#45;sequences</text>
</g>
<!-- r0 -->
<g id="node1" class="node">
<title>r0</title>
<g id="a_node1"><a xlink:href="file:///Users/andrew/workspace/flow/flowstdlib/control/compare_switch/compare_switch.html" xlink:title="compare (#0)">
<ellipse fill="coral" stroke="black" cx="690" cy="-229" rx="58.49" ry="18"/>
<text text-anchor="middle" x="690" y="-225.3" font-family="Times,serif" font-size="14.00">compare (#0)</text>
</a>
</g>
</g>
<!-- r0&#45;&gt;r0 -->
<g id="edge4" class="edge">
<title>r0:s&#45;&gt;r0:n</title>
<path fill="none" stroke="black" d="M690,-211C733.5,-200.5 820.49,-200.5 820.49,-229 820.49,-255.44 745.62,-257.35 700.06,-249.11"/>
<polygon fill="black" stroke="black" points="700.5,-245.62 690,-247 699.07,-252.47 700.5,-245.62"/>
<text text-anchor="middle" x="680.5" y="-250.8" font-family="Times,serif" font-size="14.00">left</text>
<text text-anchor="middle" x="671.5" y="-199.8" font-family="Times,serif" font-size="14.00">/left&#45;gt</text>
</g>
<!-- r3 -->
<g id="node4" class="node">
<title>r3</title>
<g id="a_node4"><a xlink:href="file:///Users/andrew/workspace/flow/flowstdlib/control/compare_switch/compare_switch.html" xlink:title="compare (#3)">
<ellipse fill="coral" stroke="black" cx="499" cy="-121" rx="58.49" ry="18"/>
<text text-anchor="middle" x="499" y="-117.3" font-family="Times,serif" font-size="14.00">compare (#3)</text>
</a>
</g>
</g>
<!-- r0&#45;&gt;r3 -->
<g id="edge3" class="edge">
<title>r0:e&#45;&gt;r3:n</title>
<path fill="none" stroke="black" d="M750,-229C758.01,-229 754.14,-217.14 749,-211 726.72,-184.38 706.51,-202.06 673,-193 664.58,-190.72 541.02,-160.41 507.4,-145.66"/>
<polygon fill="black" stroke="black" points="509.25,-142.69 499,-140 505.33,-148.49 509.25,-142.69"/>
<text text-anchor="middle" x="489.5" y="-143.8" font-family="Times,serif" font-size="14.00">left</text>
<text text-anchor="middle" x="774" y="-232.8" font-family="Times,serif" font-size="14.00">/right&#45;lte</text>
</g>
<!-- r1 -->
<g id="node5" class="node">
<title>r1</title>
<g id="a_node5"><a xlink:href="file:///Users/andrew/workspace/flow/flowstdlib/math/add/add.html" xlink:title="add (#1)">
<ellipse fill="coral" stroke="black" cx="690" cy="-121" rx="40.09" ry="18"/>
<text text-anchor="middle" x="690" y="-117.3" font-family="Times,serif" font-size="14.00">add (#1)</text>
</a>
</g>
</g>
<!-- r0&#45;&gt;r1 -->
<g id="edge5" class="edge">
<title>r0:e&#45;&gt;r1:n</title>
<path fill="none" stroke="black" d="M750,-229C758.01,-229 753.77,-217.44 749,-211 735.2,-192.35 714.99,-210.71 700,-193 686.93,-177.56 688.8,-167.51 689.7,-150.35"/>
<polygon fill="black" stroke="black" points="693.21,-150.1 690,-140 686.21,-149.89 693.21,-150.1"/>
<text text-anchor="middle" x="684.5" y="-143.8" font-family="Times,serif" font-size="14.00">i1</text>
<text text-anchor="middle" x="771" y="-217.8" font-family="Times,serif" font-size="14.00">/right&#45;lt</text>
</g>
<!-- initializerr0_0 -->
<!-- initializerr0_0&#45;&gt;r0 -->
<g id="edge1" class="edge">
<title>initializerr0_0&#45;&gt;r0:ne</title>
<path fill="none" stroke="blue" stroke-dasharray="1,5" d="M712.3,-297.94C715.92,-285.46 718.72,-268.51 712.88,-255.58"/>
<polygon fill="blue" stroke="blue" points="715.54,-253.27 707,-247 709.77,-257.23 715.54,-253.27"/>
<text text-anchor="middle" x="719.5" y="-268.8" font-family="Times,serif" font-size="14.00">9</text>
</g>
<!-- initializerr0_1 -->
<!-- initializerr0_1&#45;&gt;r0 -->
<g id="edge2" class="edge">
<title>initializerr0_1&#45;&gt;r0:ne</title>
<path fill="none" stroke="blue" stroke-dasharray="1,5" d="M557.15,-303.58C605.74,-290.59 679.88,-269.41 701.67,-255.65"/>
<polygon fill="blue" stroke="blue" points="704.73,-257.35 707,-247 698.77,-253.67 704.73,-257.35"/>
<text text-anchor="middle" x="684.5" y="-268.8" font-family="Times,serif" font-size="14.00">1</text>
</g>
<!-- r3&#45;&gt;r3 -->
<g id="edge12" class="edge">
<title>r3:s&#45;&gt;r3:n</title>
<path fill="none" stroke="black" d="M499,-103C542.5,-92.5 629.49,-92.5 629.49,-121 629.49,-147.44 554.62,-149.35 509.06,-141.11"/>
<polygon fill="black" stroke="black" points="509.5,-137.62 499,-139 508.07,-144.47 509.5,-137.62"/>
<text text-anchor="middle" x="508.5" y="-142.8" font-family="Times,serif" font-size="14.00">left</text>
<text text-anchor="middle" x="480.5" y="-91.8" font-family="Times,serif" font-size="14.00">/left&#45;gt</text>
</g>
<!-- r5 -->
<g id="node9" class="node">
<title>r5</title>
<g id="a_node9"><a xlink:href="file:///Users/andrew/workspace/flow/flowruntime/stdio/stdout.html" xlink:title="print (#5)">
<ellipse fill="coral" stroke="black" cx="253" cy="-121" rx="44.39" ry="18"/>
<text text-anchor="middle" x="253" y="-117.3" font-family="Times,serif" font-size="14.00">print (#5)</text>
</a>
</g>
</g>
<!-- r3&#45;&gt;r5 -->
<g id="edge11" class="edge">
<title>r3:e&#45;&gt;r5:n</title>
<path fill="none" stroke="black" d="M559,-121C567.01,-121 563.81,-133.48 558,-139 535.58,-160.28 300.32,-171.77 259.13,-147.91"/>
<polygon fill="black" stroke="black" points="261.9,-145.75 253,-140 256.37,-150.05 261.9,-145.75"/>
<text text-anchor="middle" x="583" y="-124.8" font-family="Times,serif" font-size="14.00">/right&#45;lte</text>
</g>
<!-- r4 -->
<g id="node10" class="node">
<title>r4</title>
<g id="a_node10"><a xlink:href="file:///Users/andrew/workspace/flow/flowstdlib/math/add/add.html" xlink:title="add (#4)">
<ellipse fill="coral" stroke="black" cx="239" cy="-34" rx="40.09" ry="18"/>
<text text-anchor="middle" x="239" y="-30.3" font-family="Times,serif" font-size="14.00">add (#4)</text>
</a>
</g>
</g>
<!-- r3&#45;&gt;r4 -->
<g id="edge13" class="edge">
<title>r3:e&#45;&gt;r4:n</title>
<path fill="none" stroke="black" d="M559,-121C567.01,-121 563.56,-108.77 558,-103 527.63,-71.52 405.06,-92.69 362,-85 309.98,-75.7 247.89,-104.33 239.87,-62.12"/>
<polygon fill="black" stroke="black" points="243.34,-61.66 239,-52 236.37,-62.26 243.34,-61.66"/>
<text text-anchor="middle" x="233.5" y="-55.8" font-family="Times,serif" font-size="14.00">i1</text>
<text text-anchor="middle" x="580" y="-109.8" font-family="Times,serif" font-size="14.00">/right&#45;lt</text>
</g>
<!-- r1&#45;&gt;r0 -->
<g id="edge8" class="edge">
<title>r1:se&#45;&gt;r0:ne</title>
<path fill="none" stroke="black" d="M707,-103C714.33,-95.67 722.52,-97.15 730.3,-104 787.36,-154.32 775.56,-218.27 748.49,-246 743.81,-250.8 727.47,-252.59 716.39,-250.72"/>
<polygon fill="black" stroke="black" points="717.59,-247.43 707,-247 715.01,-253.94 717.59,-247.43"/>
<text text-anchor="middle" x="720" y="-250.8" font-family="Times,serif" font-size="14.00">right</text>
<text text-anchor="middle" x="693" y="-91.8" font-family="Times,serif" font-size="14.00">/sum</text>
</g>
<!-- r1&#45;&gt;r1 -->
<g id="edge7" class="edge">
<title>r1:se&#45;&gt;r1:ne</title>
<path fill="none" stroke="black" d="M707,-104C744.43,-93.5 802.3,-93.5 802.3,-121 802.3,-146.14 753.95,-148.3 717.05,-140.46"/>
<polygon fill="black" stroke="black" points="717.55,-136.98 707,-138 715.88,-143.78 717.55,-136.98"/>
<text text-anchor="middle" x="701.5" y="-141.8" font-family="Times,serif" font-size="14.00">i2</text>
<text text-anchor="middle" x="714.5" y="-92.8" font-family="Times,serif" font-size="14.00">/i2</text>
</g>
<!-- initializerr1_1 -->
<!-- initializerr1_1&#45;&gt;r1 -->
<g id="edge6" class="edge">
<title>initializerr1_1&#45;&gt;r1:w</title>
<path fill="none" stroke="blue" stroke-dasharray="1,5" d="M534.75,-214.38C558.05,-204.37 588.24,-189.21 611,-170 628.76,-155.01 623.31,-130.02 638.16,-122.93"/>
<polygon fill="blue" stroke="blue" points="638.86,-126.36 648,-121 637.51,-119.49 638.86,-126.36"/>
<text text-anchor="middle" x="602.5" y="-181.8" font-family="Times,serif" font-size="14.00">1</text>
</g>
<!-- r2 -->
<g id="node7" class="node">
<title>r2</title>
<g id="a_node7"><a xlink:href="file:///Users/andrew/workspace/flow/flowstdlib/data/buffer/buffer.html" xlink:title="start&#45;of&#45;each (#2)">
<ellipse fill="coral" stroke="black" cx="294" cy="-229" rx="72.29" ry="18"/>
<text text-anchor="middle" x="294" y="-225.3" font-family="Times,serif" font-size="14.00">start&#45;of&#45;each (#2)</text>
</a>
</g>
</g>
<!-- r2&#45;&gt;r3 -->
<g id="edge10" class="edge">
<title>r2:e&#45;&gt;r3:ne</title>
<path fill="none" stroke="black" d="M367,-229C383.47,-229 489.86,-173.65 512.63,-148.78"/>
<polygon fill="black" stroke="black" points="516.05,-149.59 516,-139 509.43,-147.31 516.05,-149.59"/>
<text text-anchor="middle" x="529" y="-142.8" font-family="Times,serif" font-size="14.00">right</text>
</g>
<!-- initializerr2_0 -->
<!-- initializerr2_0&#45;&gt;r2 -->
<g id="edge9" class="edge">
<title>initializerr2_0&#45;&gt;r2:w</title>
<path fill="none" stroke="blue" d="M215.14,-298.01C207.29,-276.67 197.25,-241.63 211.31,-231.7"/>
<polygon fill="blue" stroke="blue" points="212.31,-235.05 221,-229 210.43,-228.31 212.31,-235.05"/>
<text text-anchor="middle" x="212.5" y="-268.8" font-family="Times,serif" font-size="14.00">0</text>
</g>
<!-- r4&#45;&gt;r3 -->
<g id="edge16" class="edge">
<title>r4:se&#45;&gt;r3:ne</title>
<path fill="none" stroke="black" d="M256,-16C280.65,8.65 536.8,-74.94 557.49,-103 566.73,-115.52 568.36,-126.87 557.49,-138 552.81,-142.8 536.47,-144.59 525.39,-142.72"/>
<polygon fill="black" stroke="black" points="526.59,-139.43 516,-139 524.01,-145.94 526.59,-139.43"/>
<text text-anchor="middle" x="503" y="-142.8" font-family="Times,serif" font-size="14.00">right</text>
<text text-anchor="middle" x="242" y="-4.8" font-family="Times,serif" font-size="14.00">/sum</text>
</g>
<!-- r4&#45;&gt;r4 -->
<g id="edge15" class="edge">
<title>r4:se&#45;&gt;r4:ne</title>
<path fill="none" stroke="black" d="M256,-17C293.43,-6.5 351.3,-6.5 351.3,-34 351.3,-59.14 302.95,-61.3 266.05,-53.46"/>
<polygon fill="black" stroke="black" points="266.55,-49.98 256,-51 264.88,-56.78 266.55,-49.98"/>
<text text-anchor="middle" x="250.5" y="-54.8" font-family="Times,serif" font-size="14.00">i2</text>
<text text-anchor="middle" x="263.5" y="-5.8" font-family="Times,serif" font-size="14.00">/i2</text>
</g>
<!-- initializerr4_1 -->
<!-- initializerr4_1&#45;&gt;r4 -->
<g id="edge14" class="edge">
<title>initializerr4_1&#45;&gt;r4:w</title>
<path fill="none" stroke="blue" stroke-dasharray="1,5" d="M88.4,-103.01C106.84,-79.76 143.94,-40.25 186.87,-34.66"/>
<polygon fill="blue" stroke="blue" points="187.25,-38.15 197,-34 186.79,-31.16 187.25,-38.15"/>
<text text-anchor="middle" x="121.5" y="-73.8" font-family="Times,serif" font-size="14.00">1</text>
</g>
</g>
</svg>
