<?xml version="1.0" encoding="UTF-8" standalone="no"?>
<!DOCTYPE svg PUBLIC "-//W3C//DTD SVG 1.1//EN"
 "http://www.w3.org/Graphics/SVG/1.1/DTD/svg11.dtd">
<!-- Generated by graphviz version 2.42.3 (20191010.1750)
 -->
<!-- Title: range_of_ranges Pages: 1 -->
<svg width="823pt" height="398pt"
 viewBox="0.00 0.00 823.49 398.00" xmlns="http://www.w3.org/2000/svg" xmlns:xlink="http://www.w3.org/1999/xlink">
<g id="graph0" class="graph" transform="scale(1 1) rotate(0) translate(4 394)">
<title>range_of_ranges</title>
<polygon fill="white" stroke="transparent" points="-4,4 -4,-394 819.49,-394 819.49,4 -4,4"/>
<text text-anchor="middle" x="407.75" y="-374.8" font-family="Times,serif" font-size="14.00">/range&#45;of&#45;ranges</text>
<g id="clust1" class="cluster">
<title>cluster_limit_sequence</title>
<polygon fill="none" stroke="black" points="428,-94 428,-360 769,-360 769,-94 428,-94"/>
<text text-anchor="middle" x="598.5" y="-344.8" font-family="Times,serif" font-size="14.00">/range&#45;of&#45;ranges/limit&#45;sequence</text>
</g>
<g id="clust2" class="cluster">
<title>cluster_sequence_of_sequences</title>
<polygon fill="none" stroke="black" points="8,-8 8,-168 304,-168 304,-8 8,-8"/>
<text text-anchor="middle" x="156" y="-152.8" font-family="Times,serif" font-size="14.00">/range&#45;of&#45;ranges/sequence&#45;of&#45;sequences</text>
</g>
<!-- r0 -->
<g id="node1" class="node">
<title>r0</title>
<g id="a_node1"><a xlink:href="compare" xlink:title="compare (#0)">
<ellipse fill="coral" stroke="black" cx="686" cy="-226" rx="57.49" ry="18"/>
<text text-anchor="middle" x="686" y="-221.8" font-family="Times,serif" font-size="14.00">compare (#0)</text>
</a>
</g>
</g>
<!-- r0&#45;&gt;r0 -->
<g id="edge4" class="edge">
<title>r0:s&#45;&gt;r0:n</title>
<path fill="none" stroke="black" d="M686,-208C729.16,-197.5 815.49,-197.5 815.49,-226 815.49,-252.44 741.19,-254.35 695.99,-246.11"/>
<polygon fill="black" stroke="black" points="696.51,-242.64 686,-244 695.06,-249.49 696.51,-242.64"/>
<text text-anchor="middle" x="676.67" y="-246.8" font-family="Times,serif" font-size="14.00">left</text>
<text text-anchor="middle" x="666.95" y="-196.8" font-family="Times,serif" font-size="14.00">/left&#45;gt</text>
</g>
<!-- r3 -->
<g id="node4" class="node">
<title>r3</title>
<g id="a_node4"><a xlink:href="compare" xlink:title="compare (#3)">
<ellipse fill="coral" stroke="black" cx="497" cy="-120" rx="57.49" ry="18"/>
<text text-anchor="middle" x="497" y="-115.8" font-family="Times,serif" font-size="14.00">compare (#3)</text>
</a>
</g>
</g>
<!-- r0&#45;&gt;r3 -->
<g id="edge3" class="edge">
<title>r0:e&#45;&gt;r3:n</title>
<path fill="none" stroke="black" d="M745,-226C753.01,-226 749.13,-214.15 744,-208 722.04,-181.68 702.11,-198.88 669,-190 660.73,-187.78 539.65,-159.07 505.76,-144.72"/>
<polygon fill="black" stroke="black" points="507.29,-141.54 497,-139 503.46,-147.4 507.29,-141.54"/>
<text text-anchor="middle" x="487.67" y="-141.8" font-family="Times,serif" font-size="14.00">left</text>
<text text-anchor="middle" x="769.49" y="-228.8" font-family="Times,serif" font-size="14.00">/right&#45;lte</text>
</g>
<!-- r1 -->
<g id="node5" class="node">
<title>r1</title>
<g id="a_node5"><a xlink:href="add" xlink:title="add (#1)">
<ellipse fill="coral" stroke="black" cx="687" cy="-120" rx="39.64" ry="18"/>
<text text-anchor="middle" x="687" y="-115.8" font-family="Times,serif" font-size="14.00">add (#1)</text>
</a>
</g>
</g>
<!-- r0&#45;&gt;r1 -->
<g id="edge5" class="edge">
<title>r0:e&#45;&gt;r1:n</title>
<path fill="none" stroke="black" d="M745,-226C753.01,-226 748.74,-214.46 744,-208 730.51,-189.64 710.56,-207.52 696,-190 683.7,-175.2 685.68,-165.59 686.65,-149.39"/>
<polygon fill="black" stroke="black" points="690.17,-149.11 687,-139 683.17,-148.88 690.17,-149.11"/>
<text text-anchor="middle" x="681.56" y="-141.8" font-family="Times,serif" font-size="14.00">i1</text>
<text text-anchor="middle" x="766.39" y="-214.8" font-family="Times,serif" font-size="14.00">/right&#45;lt</text>
</g>
<!-- initializerr0_0 -->
<!-- initializerr0_0&#45;&gt;r0 -->
<g id="edge1" class="edge">
<title>initializerr0_0&#45;&gt;r0:ne</title>
<path fill="none" stroke="blue" stroke-dasharray="1,5" d="M707.64,-293.9C711.42,-281.61 714.37,-265.05 708.73,-252.4"/>
<polygon fill="blue" stroke="blue" points="711.53,-250.29 703,-244 705.75,-254.23 711.53,-250.29"/>
<text text-anchor="middle" x="714.5" y="-264.8" font-family="Times,serif" font-size="14.00">9</text>
</g>
<!-- initializerr0_1 -->
<!-- initializerr0_1&#45;&gt;r0 -->
<g id="edge2" class="edge">
<title>initializerr0_1&#45;&gt;r0:ne</title>
<path fill="none" stroke="blue" stroke-dasharray="1,5" d="M553.39,-299.72C602.01,-286.95 675.96,-266.16 697.68,-252.57"/>
<polygon fill="blue" stroke="blue" points="700.7,-254.34 703,-244 694.75,-250.65 700.7,-254.34"/>
<text text-anchor="middle" x="680.5" y="-264.8" font-family="Times,serif" font-size="14.00">1</text>
</g>
<!-- r3&#45;&gt;r3 -->
<g id="edge12" class="edge">
<title>r3:s&#45;&gt;r3:n</title>
<path fill="none" stroke="black" d="M497,-102C540.16,-91.5 626.49,-91.5 626.49,-120 626.49,-146.44 552.19,-148.35 506.99,-140.11"/>
<polygon fill="black" stroke="black" points="507.51,-136.64 497,-138 506.06,-143.49 507.51,-136.64"/>
<text text-anchor="middle" x="506.33" y="-140.8" font-family="Times,serif" font-size="14.00">left</text>
<text text-anchor="middle" x="477.95" y="-90.8" font-family="Times,serif" font-size="14.00">/left&#45;gt</text>
</g>
<!-- r5 -->
<g id="node9" class="node">
<title>r5</title>
<g id="a_node9"><a xlink:href="print" xlink:title="print (#5)">
<ellipse fill="coral" stroke="black" cx="252" cy="-120" rx="43.51" ry="18"/>
<text text-anchor="middle" x="252" y="-115.8" font-family="Times,serif" font-size="14.00">print (#5)</text>
</a>
</g>
</g>
<!-- r3&#45;&gt;r5 -->
<g id="edge11" class="edge">
<title>r3:e&#45;&gt;r5:n</title>
<path fill="none" stroke="black" d="M556,-120C564.01,-120 560.81,-132.48 555,-138 532.77,-159.09 300.01,-170.51 258.36,-147.01"/>
<polygon fill="black" stroke="black" points="260.96,-144.65 252,-139 255.48,-149.01 260.96,-144.65"/>
<text text-anchor="middle" x="580.49" y="-122.8" font-family="Times,serif" font-size="14.00">/right&#45;lte</text>
</g>
<!-- r4 -->
<g id="node10" class="node">
<title>r4</title>
<g id="a_node10"><a xlink:href="add" xlink:title="add (#4)">
<ellipse fill="coral" stroke="black" cx="238" cy="-34" rx="39.64" ry="18"/>
<text text-anchor="middle" x="238" y="-29.8" font-family="Times,serif" font-size="14.00">add (#4)</text>
</a>
</g>
</g>
<!-- r3&#45;&gt;r4 -->
<g id="edge13" class="edge">
<title>r3:e&#45;&gt;r4:n</title>
<path fill="none" stroke="black" d="M556,-120C564.01,-120 560.56,-107.77 555,-102 524.96,-70.82 403.65,-91.48 361,-84 309.06,-74.9 246.89,-104.13 238.87,-62.09"/>
<polygon fill="black" stroke="black" points="242.34,-61.66 238,-52 235.37,-62.26 242.34,-61.66"/>
<text text-anchor="middle" x="232.56" y="-54.8" font-family="Times,serif" font-size="14.00">i1</text>
<text text-anchor="middle" x="577.39" y="-108.8" font-family="Times,serif" font-size="14.00">/right&#45;lt</text>
</g>
<!-- r1&#45;&gt;r0 -->
<g id="edge8" class="edge">
<title>r1:se&#45;&gt;r0:ne</title>
<path fill="none" stroke="black" d="M703,-103C748.8,-57.2 788.73,-196.64 743.49,-243 738.98,-247.63 723.32,-249.41 712.51,-247.68"/>
<polygon fill="black" stroke="black" points="713.59,-244.35 703,-244 711.06,-250.87 713.59,-244.35"/>
<text text-anchor="middle" x="716.22" y="-246.8" font-family="Times,serif" font-size="14.00">right</text>
<text text-anchor="middle" x="716.61" y="-91.8" font-family="Times,serif" font-size="14.00">/sum</text>
</g>
<!-- r1&#45;&gt;r1 -->
<g id="edge7" class="edge">
<title>r1:se&#45;&gt;r1:ne</title>
<path fill="none" stroke="black" d="M703,-104C740.27,-93.5 798.82,-93.5 798.82,-120 798.82,-144.22 749.9,-146.3 713.03,-138.46"/>
<polygon fill="black" stroke="black" points="713.55,-134.99 703,-136 711.88,-141.78 713.55,-134.99"/>
<text text-anchor="middle" x="708.44" y="-138.8" font-family="Times,serif" font-size="14.00">i2</text>
<text text-anchor="middle" x="695.61" y="-92.8" font-family="Times,serif" font-size="14.00">/i2</text>
</g>
<!-- initializerr1_1 -->
<!-- initializerr1_1&#45;&gt;r1 -->
<g id="edge6" class="edge">
<title>initializerr1_1&#45;&gt;r1:w</title>
<path fill="none" stroke="blue" stroke-dasharray="1,5" d="M531.88,-211.45C555.09,-201.6 585.12,-186.73 608,-168 625.93,-153.32 621.15,-128.84 636.14,-121.89"/>
<polygon fill="blue" stroke="blue" points="636.84,-125.32 646,-120 635.52,-118.44 636.84,-125.32"/>
<text text-anchor="middle" x="599.5" y="-178.8" font-family="Times,serif" font-size="14.00">1</text>
</g>
<!-- r2 -->
<g id="node7" class="node">
<title>r2</title>
<g id="a_node7"><a xlink:href="start-of-each" xlink:title="start&#45;of&#45;each (#2)">
<ellipse fill="coral" stroke="black" cx="292" cy="-226" rx="71.96" ry="18"/>
<text text-anchor="middle" x="292" y="-221.8" font-family="Times,serif" font-size="14.00">start&#45;of&#45;each (#2)</text>
</a>
</g>
</g>
<!-- r2&#45;&gt;r3 -->
<g id="edge10" class="edge">
<title>r2:e&#45;&gt;r3:ne</title>
<path fill="none" stroke="black" d="M365,-226C373.15,-226 479.43,-167.65 507.48,-145.74"/>
<polygon fill="black" stroke="black" points="510.23,-147.9 514,-138 504.88,-143.39 510.23,-147.9"/>
<text text-anchor="middle" x="527.22" y="-140.8" font-family="Times,serif" font-size="14.00">right</text>
</g>
<!-- initializerr2_0 -->
<!-- initializerr2_0&#45;&gt;r2 -->
<g id="edge9" class="edge">
<title>initializerr2_0&#45;&gt;r2:w</title>
<path fill="none" stroke="blue" d="M213.06,-293.8C205.4,-272.84 195.77,-238.98 209.09,-228.91"/>
<polygon fill="blue" stroke="blue" points="210.39,-232.18 219,-226 208.42,-225.46 210.39,-232.18"/>
<text text-anchor="middle" x="209.5" y="-264.8" font-family="Times,serif" font-size="14.00">0</text>
</g>
<!-- r4&#45;&gt;r3 -->
<g id="edge16" class="edge">
<title>r4:se&#45;&gt;r3:ne</title>
<path fill="none" stroke="black" d="M254,-17C278.54,7.54 533.83,-74.13 554.49,-102 563.76,-114.5 565.36,-125.87 554.49,-137 549.98,-141.63 534.32,-143.41 523.51,-141.68"/>
<polygon fill="black" stroke="black" points="524.59,-138.35 514,-138 522.06,-144.87 524.59,-138.35"/>
<text text-anchor="middle" x="527.22" y="-126.8" font-family="Times,serif" font-size="14.00">right</text>
<text text-anchor="middle" x="267.61" y="-5.8" font-family="Times,serif" font-size="14.00">/sum</text>
</g>
<!-- r4&#45;&gt;r4 -->
<g id="edge15" class="edge">
<title>r4:se&#45;&gt;r4:ne</title>
<path fill="none" stroke="black" d="M254,-18C291.27,-7.5 349.82,-7.5 349.82,-34 349.82,-58.22 300.9,-60.3 264.03,-52.46"/>
<polygon fill="black" stroke="black" points="264.55,-48.99 254,-50 262.88,-55.78 264.55,-48.99"/>
<text text-anchor="middle" x="259.44" y="-52.8" font-family="Times,serif" font-size="14.00">i2</text>
<text text-anchor="middle" x="246.61" y="-6.8" font-family="Times,serif" font-size="14.00">/i2</text>
</g>
<!-- initializerr4_1 -->
<!-- initializerr4_1&#45;&gt;r4 -->
<g id="edge14" class="edge">
<title>initializerr4_1&#45;&gt;r4:w</title>
<path fill="none" stroke="blue" stroke-dasharray="1,5" d="M88.45,-102.21C106.94,-79.23 144.11,-40.18 186.9,-34.66"/>
<polygon fill="blue" stroke="blue" points="187.25,-38.14 197,-34 186.79,-31.16 187.25,-38.14"/>
<text text-anchor="middle" x="121.5" y="-72.8" font-family="Times,serif" font-size="14.00">1</text>
</g>
</g>
</svg>
