<?xml version="1.0" encoding="UTF-8" standalone="no"?>
<!DOCTYPE svg PUBLIC "-//W3C//DTD SVG 1.1//EN"
 "http://www.w3.org/Graphics/SVG/1.1/DTD/svg11.dtd">
<!-- Generated by graphviz version 2.44.1 (20200629.0846)
 -->
<!-- Title: range_of_ranges Pages: 1 -->
<svg width="1021pt" height="450pt"
 viewBox="0.00 0.00 1021.49 450.00" xmlns="http://www.w3.org/2000/svg" xmlns:xlink="http://www.w3.org/1999/xlink">
<g id="graph0" class="graph" transform="scale(1 1) rotate(0) translate(4 446)">
<title>range_of_ranges</title>
<polygon fill="white" stroke="transparent" points="-4,4 -4,-446 1017.49,-446 1017.49,4 -4,4"/>
<text text-anchor="middle" x="506.75" y="-426.8" font-family="Times,serif" font-size="14.00">/range&#45;of&#45;ranges</text>
<g id="clust1" class="cluster">
<title>cluster_limit_sequence</title>
<polygon fill="none" stroke="black" points="624,-95 624,-411 967,-411 967,-95 624,-95"/>
<text text-anchor="middle" x="795.5" y="-395.8" font-family="Times,serif" font-size="14.00">/range&#45;of&#45;ranges/limit&#45;sequence</text>
</g>
<g id="clust2" class="cluster">
<title>cluster_sequence_of_sequences</title>
<polygon fill="none" stroke="black" points="8,-8 8,-193 498,-193 498,-8 8,-8"/>
<text text-anchor="middle" x="253" y="-177.8" font-family="Times,serif" font-size="14.00">/range&#45;of&#45;ranges/sequence&#45;of&#45;sequences</text>
</g>
<!-- r1 -->
<g id="node1" class="node">
<title>r1</title>
<g id="a_node1"><a xlink:href="file:///Users/andrew/workspace/flow/flowstdlib/control/compare_switch/compare_switch.html" xlink:title="compare (#1)">
<ellipse fill="coral" stroke="black" cx="883" cy="-252" rx="58.49" ry="18"/>
<text text-anchor="middle" x="883" y="-248.3" font-family="Times,serif" font-size="14.00">compare (#1)</text>
</a>
</g>
</g>
<!-- r1&#45;&gt;r1 -->
<g id="edge4" class="edge">
<title>r1:s&#45;&gt;r1:n</title>
<path fill="none" stroke="black" d="M883,-234C926.5,-223.5 1013.49,-223.5 1013.49,-252 1013.49,-278.44 938.62,-280.35 893.06,-272.11"/>
<polygon fill="black" stroke="black" points="893.5,-268.62 883,-270 892.07,-275.47 893.5,-268.62"/>
<text text-anchor="middle" x="873.5" y="-273.8" font-family="Times,serif" font-size="14.00">left</text>
<text text-anchor="middle" x="864.5" y="-222.8" font-family="Times,serif" font-size="14.00">/left&#45;gt</text>
</g>
<!-- r3 -->
<g id="node4" class="node">
<title>r3</title>
<g id="a_node4"><a xlink:href="file:///Users/andrew/workspace/flow/flowstdlib/control/compare_switch/compare_switch.html" xlink:title="compare (#3)">
<ellipse fill="coral" stroke="black" cx="692" cy="-121" rx="58.49" ry="18"/>
<text text-anchor="middle" x="692" y="-117.3" font-family="Times,serif" font-size="14.00">compare (#3)</text>
</a>
</g>
</g>
<!-- r1&#45;&gt;r3 -->
<g id="edge3" class="edge">
<title>r1:e&#45;&gt;r3:n</title>
<path fill="none" stroke="black" d="M943,-252C951.01,-252 947.15,-240.14 942,-234 919.4,-207.08 898.54,-226.51 865,-216 847.31,-210.46 726.03,-171.83 697.84,-148.41"/>
<polygon fill="black" stroke="black" points="700.58,-146.22 692,-140 694.83,-150.21 700.58,-146.22"/>
<text text-anchor="middle" x="682.5" y="-143.8" font-family="Times,serif" font-size="14.00">left</text>
<text text-anchor="middle" x="967" y="-255.8" font-family="Times,serif" font-size="14.00">/right&#45;lte</text>
</g>
<!-- r0 -->
<g id="node5" class="node">
<title>r0</title>
<g id="a_node5"><a xlink:href="file:///Users/andrew/workspace/flow/flowstdlib/math/add/add.html" xlink:title="add (#0)">
<ellipse fill="coral" stroke="black" cx="883" cy="-121" rx="40.09" ry="18"/>
<text text-anchor="middle" x="883" y="-117.3" font-family="Times,serif" font-size="14.00">add (#0)</text>
</a>
</g>
</g>
<!-- r1&#45;&gt;r0 -->
<g id="edge5" class="edge">
<title>r1:e&#45;&gt;r0:n</title>
<path fill="none" stroke="black" d="M943,-252C951.01,-252 946.77,-240.44 942,-234 928.2,-215.35 907.49,-234.12 893,-216 873.96,-192.2 880.98,-177.43 882.67,-150.19"/>
<polygon fill="black" stroke="black" points="886.18,-150.11 883,-140 879.18,-149.88 886.18,-150.11"/>
<text text-anchor="middle" x="877.5" y="-143.8" font-family="Times,serif" font-size="14.00">i1</text>
<text text-anchor="middle" x="964" y="-240.8" font-family="Times,serif" font-size="14.00">/right&#45;lt</text>
</g>
<!-- initializerr1_0 -->
<!-- initializerr1_0&#45;&gt;r1 -->
<g id="edge1" class="edge">
<title>initializerr1_0&#45;&gt;r1:ne</title>
<path fill="none" stroke="blue" stroke-dasharray="1,5" d="M905.3,-320.94C908.92,-308.46 911.72,-291.51 905.88,-278.58"/>
<polygon fill="blue" stroke="blue" points="908.54,-276.27 900,-270 902.77,-280.23 908.54,-276.27"/>
<text text-anchor="middle" x="912.5" y="-291.8" font-family="Times,serif" font-size="14.00">9</text>
</g>
<!-- initializerr1_1 -->
<!-- initializerr1_1&#45;&gt;r1 -->
<g id="edge2" class="edge">
<title>initializerr1_1&#45;&gt;r1:ne</title>
<path fill="none" stroke="blue" stroke-dasharray="1,5" d="M750.15,-326.58C798.74,-313.59 872.88,-292.41 894.67,-278.65"/>
<polygon fill="blue" stroke="blue" points="897.73,-280.35 900,-270 891.77,-276.67 897.73,-280.35"/>
<text text-anchor="middle" x="877.5" y="-291.8" font-family="Times,serif" font-size="14.00">1</text>
</g>
<!-- r3&#45;&gt;r3 -->
<g id="edge13" class="edge">
<title>r3:s&#45;&gt;r3:n</title>
<path fill="none" stroke="black" d="M692,-103C735.5,-92.5 822.49,-92.5 822.49,-121 822.49,-147.44 747.62,-149.35 702.06,-141.11"/>
<polygon fill="black" stroke="black" points="702.5,-137.62 692,-139 701.07,-144.47 702.5,-137.62"/>
<text text-anchor="middle" x="701.5" y="-142.8" font-family="Times,serif" font-size="14.00">left</text>
<text text-anchor="middle" x="673.5" y="-91.8" font-family="Times,serif" font-size="14.00">/left&#45;gt</text>
</g>
<!-- r4 -->
<g id="node10" class="node">
<title>r4</title>
<g id="a_node10"><a xlink:href="file:///Users/andrew/workspace/flow/flowr/src/lib/flowruntime/stdio/stdout.html" xlink:title="print (#4)">
<ellipse fill="coral" stroke="black" cx="446" cy="-121" rx="44.39" ry="18"/>
<text text-anchor="middle" x="446" y="-117.3" font-family="Times,serif" font-size="14.00">print (#4)</text>
</a>
</g>
</g>
<!-- r3&#45;&gt;r4 -->
<g id="edge12" class="edge">
<title>r3:e&#45;&gt;r4:n</title>
<path fill="none" stroke="black" d="M752,-121C760.01,-121 756.81,-133.48 751,-139 728.58,-160.28 493.32,-171.77 452.13,-147.91"/>
<polygon fill="black" stroke="black" points="454.9,-145.75 446,-140 449.37,-150.05 454.9,-145.75"/>
<text text-anchor="middle" x="776" y="-124.8" font-family="Times,serif" font-size="14.00">/right&#45;lte</text>
</g>
<!-- r2 -->
<g id="node11" class="node">
<title>r2</title>
<g id="a_node11"><a xlink:href="file:///Users/andrew/workspace/flow/flowstdlib/math/add/add.html" xlink:title="add (#2)">
<ellipse fill="coral" stroke="black" cx="432" cy="-34" rx="40.09" ry="18"/>
<text text-anchor="middle" x="432" y="-30.3" font-family="Times,serif" font-size="14.00">add (#2)</text>
</a>
</g>
</g>
<!-- r3&#45;&gt;r2 -->
<g id="edge14" class="edge">
<title>r3:e&#45;&gt;r2:n</title>
<path fill="none" stroke="black" d="M752,-121C760.01,-121 756.56,-108.77 751,-103 720.63,-71.52 598.06,-92.69 555,-85 502.98,-75.7 440.89,-104.33 432.87,-62.12"/>
<polygon fill="black" stroke="black" points="436.34,-61.66 432,-52 429.37,-62.26 436.34,-61.66"/>
<text text-anchor="middle" x="426.5" y="-55.8" font-family="Times,serif" font-size="14.00">i1</text>
<text text-anchor="middle" x="773" y="-109.8" font-family="Times,serif" font-size="14.00">/right&#45;lt</text>
</g>
<!-- r0&#45;&gt;r1 -->
<g id="edge8" class="edge">
<title>r0:se&#45;&gt;r1:ne</title>
<path fill="none" stroke="black" d="M900,-103C907.33,-95.67 915.62,-97.03 923.3,-104 1015.42,-187.66 973.1,-236.62 941.49,-269 936.81,-273.8 920.47,-275.59 909.39,-273.72"/>
<polygon fill="black" stroke="black" points="910.59,-270.43 900,-270 908.01,-276.94 910.59,-270.43"/>
<text text-anchor="middle" x="913" y="-273.8" font-family="Times,serif" font-size="14.00">right</text>
<text text-anchor="middle" x="886" y="-91.8" font-family="Times,serif" font-size="14.00">/sum</text>
</g>
<!-- r0&#45;&gt;r0 -->
<g id="edge7" class="edge">
<title>r0:se&#45;&gt;r0:ne</title>
<path fill="none" stroke="black" d="M900,-104C937.43,-93.5 995.3,-93.5 995.3,-121 995.3,-146.14 946.95,-148.3 910.05,-140.46"/>
<polygon fill="black" stroke="black" points="910.55,-136.98 900,-138 908.88,-143.78 910.55,-136.98"/>
<text text-anchor="middle" x="894.5" y="-141.8" font-family="Times,serif" font-size="14.00">i2</text>
<text text-anchor="middle" x="907.5" y="-92.8" font-family="Times,serif" font-size="14.00">/i2</text>
</g>
<!-- initializerr0_1 -->
<!-- initializerr0_1&#45;&gt;r0 -->
<g id="edge6" class="edge">
<title>initializerr0_1&#45;&gt;r0:w</title>
<path fill="none" stroke="blue" stroke-dasharray="1,5" d="M730.48,-237.98C754.01,-228.47 783.44,-213.63 804,-193 826.52,-170.41 809.91,-131.27 830.94,-122.69"/>
<polygon fill="blue" stroke="blue" points="831.72,-126.11 841,-121 830.56,-119.21 831.72,-126.11"/>
<text text-anchor="middle" x="796.5" y="-204.8" font-family="Times,serif" font-size="14.00">1</text>
</g>
<!-- r5 -->
<g id="node7" class="node">
<title>r5</title>
<g id="a_node7"><a xlink:href="file:///Users/andrew/workspace/flow/flowstdlib/data/buffer/buffer.html" xlink:title="start&#45;of&#45;each (#5)">
<ellipse fill="coral" stroke="black" cx="487" cy="-252" rx="72.29" ry="18"/>
<text text-anchor="middle" x="487" y="-248.3" font-family="Times,serif" font-size="14.00">start&#45;of&#45;each (#5)</text>
</a>
</g>
</g>
<!-- r5&#45;&gt;r3 -->
<g id="edge10" class="edge">
<title>r5:e&#45;&gt;r3:ne</title>
<path fill="none" stroke="black" d="M560,-252C578.02,-252 687.89,-178.07 707.17,-148.85"/>
<polygon fill="black" stroke="black" points="710.61,-149.47 709,-139 703.73,-148.19 710.61,-149.47"/>
<text text-anchor="middle" x="722" y="-142.8" font-family="Times,serif" font-size="14.00">right</text>
</g>
<!-- initializerr5_0 -->
<!-- initializerr5_0&#45;&gt;r5 -->
<g id="edge9" class="edge">
<title>initializerr5_0&#45;&gt;r5:w</title>
<path fill="none" stroke="blue" d="M408.14,-321.01C400.29,-299.67 390.25,-264.63 404.31,-254.7"/>
<polygon fill="blue" stroke="blue" points="405.31,-258.05 414,-252 403.43,-251.31 405.31,-258.05"/>
<text text-anchor="middle" x="405.5" y="-291.8" font-family="Times,serif" font-size="14.00">0</text>
</g>
<!-- initializerr3_1 -->
<!-- initializerr3_1&#45;&gt;r3 -->
<g id="edge11" class="edge">
<title>initializerr3_1&#45;&gt;r3:ne</title>
<path fill="none" stroke="blue" stroke-dasharray="1,5" d="M285.6,-138.63C303.49,-156.25 333.78,-182.22 366,-193 435.32,-216.19 730.05,-195.95 714.56,-147.37"/>
<polygon fill="blue" stroke="blue" points="717.45,-145.39 709,-139 711.62,-149.27 717.45,-145.39"/>
<text text-anchor="middle" x="509" y="-204.8" font-family="Times,serif" font-size="14.00">0</text>
</g>
<!-- r2&#45;&gt;r3 -->
<g id="edge17" class="edge">
<title>r2:se&#45;&gt;r3:ne</title>
<path fill="none" stroke="black" d="M449,-16C473.65,8.65 729.8,-74.94 750.49,-103 759.73,-115.52 761.36,-126.87 750.49,-138 745.81,-142.8 729.47,-144.59 718.39,-142.72"/>
<polygon fill="black" stroke="black" points="719.59,-139.43 709,-139 717.01,-145.94 719.59,-139.43"/>
<text text-anchor="middle" x="696" y="-142.8" font-family="Times,serif" font-size="14.00">right</text>
<text text-anchor="middle" x="435" y="-4.8" font-family="Times,serif" font-size="14.00">/sum</text>
</g>
<!-- r2&#45;&gt;r2 -->
<g id="edge16" class="edge">
<title>r2:se&#45;&gt;r2:ne</title>
<path fill="none" stroke="black" d="M449,-17C486.43,-6.5 544.3,-6.5 544.3,-34 544.3,-59.14 495.95,-61.3 459.05,-53.46"/>
<polygon fill="black" stroke="black" points="459.55,-49.98 449,-51 457.88,-56.78 459.55,-49.98"/>
<text text-anchor="middle" x="443.5" y="-54.8" font-family="Times,serif" font-size="14.00">i2</text>
<text text-anchor="middle" x="456.5" y="-5.8" font-family="Times,serif" font-size="14.00">/i2</text>
</g>
<!-- initializerr2_1 -->
<!-- initializerr2_1&#45;&gt;r2 -->
<g id="edge15" class="edge">
<title>initializerr2_1&#45;&gt;r2:w</title>
<path fill="none" stroke="blue" stroke-dasharray="1,5" d="M107.31,-105.41C161.2,-81.64 275.72,-36.91 379.95,-34.14"/>
<polygon fill="blue" stroke="blue" points="380.05,-37.63 390,-34 379.95,-30.63 380.05,-37.63"/>
<text text-anchor="middle" x="197.5" y="-73.8" font-family="Times,serif" font-size="14.00">1</text>
</g>
</g>
</svg>
