<?xml version="1.0" encoding="UTF-8" standalone="no"?>
<!DOCTYPE svg PUBLIC "-//W3C//DTD SVG 1.1//EN"
 "http://www.w3.org/Graphics/SVG/1.1/DTD/svg11.dtd">
<!-- Generated by graphviz version 2.40.1 (0)
 -->
<!-- Title: range_of_ranges Pages: 1 -->
<svg width="1063pt" height="501pt"
 viewBox="0.00 0.00 1063.17 501.00" xmlns="http://www.w3.org/2000/svg" xmlns:xlink="http://www.w3.org/1999/xlink">
<g id="graph0" class="graph" transform="scale(1 1) rotate(0) translate(4 497)">
<title>range_of_ranges</title>
<polygon fill="#ffffff" stroke="transparent" points="-4,4 -4,-497 1059.1747,-497 1059.1747,4 -4,4"/>
<text text-anchor="middle" x="527.5874" y="-477.8" font-family="Times,serif" font-size="14.00" fill="#000000">/range&#45;of&#45;ranges</text>
<g id="clust1" class="cluster">
<title>cluster_limit_sequence</title>
<polygon fill="none" stroke="#000000" points="369,-81 369,-462 773,-462 773,-81 369,-81"/>
<text text-anchor="middle" x="571" y="-446.8" font-family="Times,serif" font-size="14.00" fill="#000000">/range&#45;of&#45;ranges/limit&#45;sequence</text>
</g>
<g id="clust2" class="cluster">
<title>cluster_sequence_of_sequences</title>
<polygon fill="none" stroke="#000000" points="8,-8 8,-229 361,-229 361,-8 8,-8"/>
<text text-anchor="middle" x="184.5" y="-213.8" font-family="Times,serif" font-size="14.00" fill="#000000">/range&#45;of&#45;ranges/sequence&#45;of&#45;sequences</text>
</g>
<!-- r0 -->
<g id="node1" class="node">
<title>r0</title>
<g id="a_node1"><a xlink:href="file:///home/andrew/workspace/flow/flowstdlib/control/compare_switch/compare_switch.toml" xlink:title="compare (#0)">
<ellipse fill="#ff7f50" stroke="#000000" cx="673" cy="-288" rx="74.187" ry="18"/>
<text text-anchor="middle" x="673" y="-284.3" font-family="Times,serif" font-size="14.00" fill="#000000">compare (#0)</text>
</a>
</g>
</g>
<!-- r0&#45;&gt;r0 -->
<g id="edge4" class="edge">
<title>r0:s&#45;&gt;r0:n</title>
<path fill="none" stroke="#000000" d="M673,-270C721.6978,-261 819.0934,-261 819.0934,-288 819.0934,-313.2598 733.8481,-314.8878 682.984,-307.6233"/>
<polygon fill="#000000" stroke="#000000" points="683.4321,-304.1502 673,-306 682.3087,-311.0595 683.4321,-304.1502"/>
<text text-anchor="middle" x="660.5" y="-309.8" font-family="Times,serif" font-size="14.00" fill="#000000">left</text>
<text text-anchor="middle" x="648.5" y="-258.8" font-family="Times,serif" font-size="14.00" fill="#000000">/left&#45;gt</text>
</g>
<!-- r3 -->
<g id="node4" class="node">
<title>r3</title>
<g id="a_node4"><a xlink:href="file:///home/andrew/workspace/flow/flowstdlib/control/compare_switch/compare_switch.toml" xlink:title="compare (#3)">
<ellipse fill="#ff7f50" stroke="#000000" cx="673" cy="-107" rx="74.187" ry="18"/>
<text text-anchor="middle" x="673" y="-103.3" font-family="Times,serif" font-size="14.00" fill="#000000">compare (#3)</text>
</a>
</g>
</g>
<!-- r0&#45;&gt;r3 -->
<g id="edge3" class="edge">
<title>r0:e&#45;&gt;r3:n</title>
<path fill="none" stroke="#000000" d="M747,-288C755,-288 748.7511,-277.806 747,-270 733.3353,-209.0873 719.6935,-196.181 687,-143 684.1803,-138.4133 680.4053,-136.4802 677.4859,-134.1562"/>
<polygon fill="#000000" stroke="#000000" points="680.5427,-132.4403 673,-125 674.2566,-135.5201 680.5427,-132.4403"/>
<text text-anchor="middle" x="660.5" y="-128.8" font-family="Times,serif" font-size="14.00" fill="#000000">left</text>
<text text-anchor="middle" x="779" y="-291.8" font-family="Times,serif" font-size="14.00" fill="#000000">/right&#45;lte</text>
</g>
<!-- r1 -->
<g id="node5" class="node">
<title>r1</title>
<g id="a_node5"><a xlink:href="file:///home/andrew/workspace/flow/flowstdlib/math/add/add.toml" xlink:title="add (#1)">
<ellipse fill="#ff7f50" stroke="#000000" cx="458" cy="-107" rx="51.1914" ry="18"/>
<text text-anchor="middle" x="458" y="-103.3" font-family="Times,serif" font-size="14.00" fill="#000000">add (#1)</text>
</a>
</g>
</g>
<!-- r0&#45;&gt;r1 -->
<g id="edge5" class="edge">
<title>r0:e&#45;&gt;r1:n</title>
<path fill="none" stroke="#000000" d="M747,-288C755,-288 750.8637,-277.0051 747,-270 742.876,-262.5229 688.4673,-234.5757 682,-229 643.8093,-196.0745 652.4948,-166.7241 608,-143 581.7313,-128.9939 484.108,-152.0709 462.3273,-134.0723"/>
<polygon fill="#000000" stroke="#000000" points="465.4642,-132.519 458,-125 459.1461,-135.5327 465.4642,-132.519"/>
<text text-anchor="middle" x="451" y="-128.8" font-family="Times,serif" font-size="14.00" fill="#000000">i1</text>
<text text-anchor="middle" x="774.5" y="-276.8" font-family="Times,serif" font-size="14.00" fill="#000000">/right&#45;lt</text>
</g>
<!-- initializerr0_0 -->
<!-- initializerr0_0&#45;&gt;r0 -->
<g id="edge1" class="edge">
<title>initializerr0_0&#45;&gt;r0:ne</title>
<path fill="none" stroke="#0000ff" stroke-dasharray="1,5" d="M697.0052,-394.9564C704.1362,-373.548 712.204,-337.7588 697.2778,-313.8989"/>
<polygon fill="#0000ff" stroke="#0000ff" points="699.962,-311.651 691,-306 694.4819,-316.0064 699.962,-311.651"/>
<text text-anchor="middle" x="711" y="-346.8" font-family="Times,serif" font-size="14.00" fill="#000000">9</text>
</g>
<!-- initializerr0_1 -->
<!-- initializerr0_1&#45;&gt;r0 -->
<g id="edge2" class="edge">
<title>initializerr0_1&#45;&gt;r0:ne</title>
<path fill="none" stroke="#0000ff" stroke-dasharray="1,5" d="M507.9575,-397.8078C565.4754,-376.0144 665.6443,-336.228 687.7246,-315.5132"/>
<polygon fill="#0000ff" stroke="#0000ff" points="691.0538,-316.5947 691,-306 684.4351,-314.3158 691.0538,-316.5947"/>
<text text-anchor="middle" x="644" y="-346.8" font-family="Times,serif" font-size="14.00" fill="#000000">1</text>
</g>
<!-- r3&#45;&gt;r3 -->
<g id="edge12" class="edge">
<title>r3:s&#45;&gt;r3:n</title>
<path fill="none" stroke="#000000" d="M673,-89C721.6978,-80 819.0934,-80 819.0934,-107 819.0934,-132.2598 733.8481,-133.8878 682.984,-126.6233"/>
<polygon fill="#000000" stroke="#000000" points="683.4321,-123.1502 673,-125 682.3087,-130.0595 683.4321,-123.1502"/>
<text text-anchor="middle" x="685.5" y="-128.8" font-family="Times,serif" font-size="14.00" fill="#000000">left</text>
<text text-anchor="middle" x="648.5" y="-77.8" font-family="Times,serif" font-size="14.00" fill="#000000">/left&#45;gt</text>
</g>
<!-- r5 -->
<g id="node9" class="node">
<title>r5</title>
<g id="a_node9"><a xlink:href="file:///home/andrew/workspace/flow/flowruntime/stdio/stdout.toml" xlink:title="print (#5)">
<ellipse fill="#ff7f50" stroke="#000000" cx="296" cy="-180" rx="57.3905" ry="18"/>
<text text-anchor="middle" x="296" y="-176.3" font-family="Times,serif" font-size="14.00" fill="#000000">print (#5)</text>
</a>
</g>
</g>
<!-- r3&#45;&gt;r5 -->
<g id="edge11" class="edge">
<title>r3:e&#45;&gt;r5:n</title>
<path fill="none" stroke="#000000" d="M747,-107C755,-107 752.3824,-119.0814 747,-125 688.5779,-189.2426 420.5526,-101.7719 358,-162 346.3719,-173.1959 365.3406,-187.3678 353.1949,-198 346.0224,-204.2788 317.4365,-208.2888 303.5919,-204.5393"/>
<polygon fill="#000000" stroke="#000000" points="305.861,-201.8745 296,-198 301.2926,-207.1782 305.861,-201.8745"/>
<text text-anchor="middle" x="779" y="-110.8" font-family="Times,serif" font-size="14.00" fill="#000000">/right&#45;lte</text>
</g>
<!-- r4 -->
<g id="node10" class="node">
<title>r4</title>
<g id="a_node10"><a xlink:href="file:///home/andrew/workspace/flow/flowstdlib/math/add/add.toml" xlink:title="add (#4)">
<ellipse fill="#ff7f50" stroke="#000000" cx="284" cy="-34" rx="51.1914" ry="18"/>
<text text-anchor="middle" x="284" y="-30.3" font-family="Times,serif" font-size="14.00" fill="#000000">add (#4)</text>
</a>
</g>
</g>
<!-- r3&#45;&gt;r4 -->
<g id="edge13" class="edge">
<title>r3:e&#45;&gt;r4:n</title>
<path fill="none" stroke="#000000" d="M747,-107C755,-107 752.4269,-94.8778 747,-89 714.2474,-53.5256 337.5382,-97.2131 289.1141,-60.7333"/>
<polygon fill="#000000" stroke="#000000" points="292.0735,-58.8607 284,-52 286.033,-62.398 292.0735,-58.8607"/>
<text text-anchor="middle" x="277" y="-55.8" font-family="Times,serif" font-size="14.00" fill="#000000">i1</text>
<text text-anchor="middle" x="774.5" y="-95.8" font-family="Times,serif" font-size="14.00" fill="#000000">/right&#45;lt</text>
</g>
<!-- r1&#45;&gt;r0 -->
<g id="edge8" class="edge">
<title>r1:se&#45;&gt;r0:ne</title>
<path fill="none" stroke="#000000" d="M475,-90C485.7937,-79.2063 495.6551,-83.2485 509.3454,-90 579.1829,-124.4408 553.3463,-182.7619 616,-229 639.648,-246.4521 649.9663,-243.1731 678,-252 708.2682,-261.5305 727.6882,-244.8917 747.0934,-270 747.0934,-270 715.5409,-290.25 699.7646,-300.375"/>
<polygon fill="#000000" stroke="#000000" points="697.5255,-297.6532 691,-306 701.3063,-303.5443 697.5255,-297.6532"/>
<text text-anchor="middle" x="709" y="-309.8" font-family="Times,serif" font-size="14.00" fill="#000000">right</text>
<text text-anchor="middle" x="457.5" y="-78.8" font-family="Times,serif" font-size="14.00" fill="#000000">/sum</text>
</g>
<!-- r1&#45;&gt;r1 -->
<g id="edge7" class="edge">
<title>r1:se&#45;&gt;r1:ne</title>
<path fill="none" stroke="#000000" d="M475,-90C516.1151,-81 581.3454,-81 581.3454,-107 581.3454,-130.9688 525.9092,-132.8413 485.0353,-125.9365"/>
<polygon fill="#000000" stroke="#000000" points="485.482,-122.4582 475,-124 484.1557,-129.3314 485.482,-122.4582"/>
<text text-anchor="middle" x="468" y="-127.8" font-family="Times,serif" font-size="14.00" fill="#000000">i2</text>
<text text-anchor="middle" x="484.5" y="-78.8" font-family="Times,serif" font-size="14.00" fill="#000000">/i2</text>
</g>
<!-- initializerr1_1 -->
<!-- initializerr1_1&#45;&gt;r1 -->
<g id="edge6" class="edge">
<title>initializerr1_1&#45;&gt;r1:w</title>
<path fill="none" stroke="#0000ff" stroke-dasharray="1,5" d="M443.5994,-269.9833C425.3483,-229.9242 384.6814,-135.1844 397.172,-112.1254"/>
<polygon fill="#0000ff" stroke="#0000ff" points="399.1092,-115.0479 406,-107 395.5945,-108.9942 399.1092,-115.0479"/>
<text text-anchor="middle" x="431" y="-176.3" font-family="Times,serif" font-size="14.00" fill="#000000">1</text>
</g>
<!-- r2 -->
<g id="node7" class="node">
<title>r2</title>
<g id="a_node7"><a xlink:href="file:///home/andrew/workspace/flow/flowstdlib/data/buffer/buffer.toml" xlink:title="start&#45;of&#45;each (#2)">
<ellipse fill="#ff7f50" stroke="#000000" cx="957" cy="-180" rx="92.0841" ry="18"/>
<text text-anchor="middle" x="957" y="-176.3" font-family="Times,serif" font-size="14.00" fill="#000000">start&#45;of&#45;each (#2)</text>
</a>
</g>
</g>
<!-- r2&#45;&gt;r3 -->
<g id="edge10" class="edge">
<title>r2:e&#45;&gt;r3:ne</title>
<path fill="none" stroke="#000000" d="M1050,-180C1058,-180 1055.359,-167.9398 1050,-162 1024.869,-134.1458 757.3642,-150.843 699.7674,-129.8929"/>
<polygon fill="#000000" stroke="#000000" points="701.4379,-126.8171 691,-125 698.0265,-132.9296 701.4379,-126.8171"/>
<text text-anchor="middle" x="709" y="-128.8" font-family="Times,serif" font-size="14.00" fill="#000000">right</text>
</g>
<!-- initializerr2_0 -->
<!-- initializerr2_0&#45;&gt;r2 -->
<g id="edge9" class="edge">
<title>initializerr2_0&#45;&gt;r2:w</title>
<path fill="none" stroke="#0000ff" d="M896.3001,-270.166C873.1783,-242.846 834.6979,-192.6689 854.0981,-182.0195"/>
<polygon fill="#0000ff" stroke="#0000ff" points="854.9012,-185.4279 864,-180 853.5022,-178.5691 854.9012,-185.4279"/>
<text text-anchor="middle" x="884" y="-240.8" font-family="Times,serif" font-size="14.00" fill="#000000">0</text>
</g>
<!-- r4&#45;&gt;r3 -->
<g id="edge16" class="edge">
<title>r4:se&#45;&gt;r3:ne</title>
<path fill="none" stroke="#000000" d="M301,-17C336.502,18.502 714.7935,-50.5618 747.0934,-89 747.0934,-89 715.5409,-109.25 699.7646,-119.375"/>
<polygon fill="#000000" stroke="#000000" points="697.5255,-116.6532 691,-125 701.3063,-122.5443 697.5255,-116.6532"/>
<text text-anchor="middle" x="673" y="-128.8" font-family="Times,serif" font-size="14.00" fill="#000000">right</text>
<text text-anchor="middle" x="283.5" y="-5.8" font-family="Times,serif" font-size="14.00" fill="#000000">/sum</text>
</g>
<!-- r4&#45;&gt;r4 -->
<g id="edge15" class="edge">
<title>r4:se&#45;&gt;r4:ne</title>
<path fill="none" stroke="#000000" d="M301,-17C342.1151,-8 407.3454,-8 407.3454,-34 407.3454,-57.9688 351.9092,-59.8413 311.0353,-52.9365"/>
<polygon fill="#000000" stroke="#000000" points="311.482,-49.4582 301,-51 310.1557,-56.3314 311.482,-49.4582"/>
<text text-anchor="middle" x="294" y="-54.8" font-family="Times,serif" font-size="14.00" fill="#000000">i2</text>
<text text-anchor="middle" x="310.5" y="-5.8" font-family="Times,serif" font-size="14.00" fill="#000000">/i2</text>
</g>
<!-- initializerr4_1 -->
<!-- initializerr4_1&#45;&gt;r4 -->
<g id="edge14" class="edge">
<title>initializerr4_1&#45;&gt;r4:w</title>
<path fill="none" stroke="#0000ff" stroke-dasharray="1,5" d="M98.2998,-161.8042C114.5075,-124.5774 157.2428,-42.5407 221.874,-34.6181"/>
<polygon fill="#0000ff" stroke="#0000ff" points="222.2319,-38.1029 232,-34 221.8053,-31.1159 222.2319,-38.1029"/>
<text text-anchor="middle" x="152" y="-103.3" font-family="Times,serif" font-size="14.00" fill="#000000">1</text>
</g>
</g>
</svg>
