<?xml version="1.0" encoding="UTF-8" standalone="no"?>
<!DOCTYPE svg PUBLIC "-//W3C//DTD SVG 1.1//EN"
 "http://www.w3.org/Graphics/SVG/1.1/DTD/svg11.dtd">
<!-- Generated by graphviz version 2.42.4 (0)
 -->
<!-- Title: range_of_ranges Pages: 1 -->
<svg width="943pt" height="404pt"
 viewBox="0.00 0.00 943.09 404.00" xmlns="http://www.w3.org/2000/svg" xmlns:xlink="http://www.w3.org/1999/xlink">
<g id="graph0" class="graph" transform="scale(1 1) rotate(0) translate(4 400)">
<title>range_of_ranges</title>
<polygon fill="white" stroke="transparent" points="-4,4 -4,-400 939.09,-400 939.09,4 -4,4"/>
<text text-anchor="middle" x="467.55" y="-380.8" font-family="Times,serif" font-size="14.00">/range&#45;of&#45;ranges</text>
<g id="clust1" class="cluster">
<title>cluster_limit_sequence</title>
<polygon fill="none" stroke="black" points="485,-95 485,-365 889,-365 889,-95 485,-95"/>
<text text-anchor="middle" x="687" y="-349.8" font-family="Times,serif" font-size="14.00">/range&#45;of&#45;ranges/limit&#45;sequence</text>
</g>
<g id="clust2" class="cluster">
<title>cluster_sequence_of_sequences</title>
<polygon fill="none" stroke="black" points="8,-8 8,-170 361,-170 361,-8 8,-8"/>
<text text-anchor="middle" x="184.5" y="-154.8" font-family="Times,serif" font-size="14.00">/range&#45;of&#45;ranges/sequence&#45;of&#45;sequences</text>
</g>
<!-- r0 -->
<g id="node1" class="node">
<title>r0</title>
<g id="a_node1"><a xlink:href="file:///home/andrew/workspace/flow/flowstdlib/control/compare_switch/compare_switch.html" xlink:title="compare (#0)">
<ellipse fill="coral" stroke="black" cx="789" cy="-229" rx="74.19" ry="18"/>
<text text-anchor="middle" x="789" y="-225.3" font-family="Times,serif" font-size="14.00">compare (#0)</text>
</a>
</g>
</g>
<!-- r0&#45;&gt;r0 -->
<g id="edge4" class="edge">
<title>r0:s&#45;&gt;r0:n</title>
<path fill="none" stroke="black" d="M789,-211C837.7,-200.5 935.09,-200.5 935.09,-229 935.09,-255.66 849.85,-257.38 798.98,-248.89"/>
<polygon fill="black" stroke="black" points="799.48,-245.43 789,-247 798.17,-252.3 799.48,-245.43"/>
<text text-anchor="middle" x="776.5" y="-250.8" font-family="Times,serif" font-size="14.00">left</text>
<text text-anchor="middle" x="764.5" y="-199.8" font-family="Times,serif" font-size="14.00">/left&#45;gt</text>
</g>
<!-- r3 -->
<g id="node4" class="node">
<title>r3</title>
<g id="a_node4"><a xlink:href="file:///home/andrew/workspace/flow/flowstdlib/control/compare_switch/compare_switch.html" xlink:title="compare (#3)">
<ellipse fill="coral" stroke="black" cx="571" cy="-121" rx="74.19" ry="18"/>
<text text-anchor="middle" x="571" y="-117.3" font-family="Times,serif" font-size="14.00">compare (#3)</text>
</a>
</g>
</g>
<!-- r0&#45;&gt;r3 -->
<g id="edge3" class="edge">
<title>r0:e&#45;&gt;r3:n</title>
<path fill="none" stroke="black" d="M864,-229C872.01,-229 868.26,-217.05 863,-211 835.95,-179.88 812.17,-202.26 772,-193 752.04,-188.4 609.44,-168.45 577.39,-147.88"/>
<polygon fill="black" stroke="black" points="580.01,-145.57 571,-140 574.58,-149.97 580.01,-145.57"/>
<text text-anchor="middle" x="558.5" y="-143.8" font-family="Times,serif" font-size="14.00">left</text>
<text text-anchor="middle" x="896" y="-232.8" font-family="Times,serif" font-size="14.00">/right&#45;lte</text>
</g>
<!-- r1 -->
<g id="node5" class="node">
<title>r1</title>
<g id="a_node5"><a xlink:href="file:///home/andrew/workspace/flow/flowstdlib/math/add/add.html" xlink:title="add (#1)">
<ellipse fill="coral" stroke="black" cx="790" cy="-121" rx="51.19" ry="18"/>
<text text-anchor="middle" x="790" y="-117.3" font-family="Times,serif" font-size="14.00">add (#1)</text>
</a>
</g>
</g>
<!-- r0&#45;&gt;r1 -->
<g id="edge5" class="edge">
<title>r0:e&#45;&gt;r1:n</title>
<path fill="none" stroke="black" d="M864,-229C872.01,-229 868,-217.26 863,-211 844.83,-188.25 819.62,-214.51 800,-193 786.37,-178.06 788.62,-167.66 789.66,-150.38"/>
<polygon fill="black" stroke="black" points="793.17,-150.11 790,-140 786.17,-149.88 793.17,-150.11"/>
<text text-anchor="middle" x="783" y="-143.8" font-family="Times,serif" font-size="14.00">i1</text>
<text text-anchor="middle" x="891.5" y="-217.8" font-family="Times,serif" font-size="14.00">/right&#45;lt</text>
</g>
<!-- initializerr0_0 -->
<!-- initializerr0_0&#45;&gt;r0 -->
<g id="edge1" class="edge">
<title>initializerr0_0&#45;&gt;r0:ne</title>
<path fill="none" stroke="blue" stroke-dasharray="1,5" d="M812.3,-297.94C815.92,-285.46 818.72,-268.51 812.88,-255.58"/>
<polygon fill="blue" stroke="blue" points="815.54,-253.27 807,-247 809.77,-257.23 815.54,-253.27"/>
<text text-anchor="middle" x="821" y="-268.8" font-family="Times,serif" font-size="14.00">9</text>
</g>
<!-- initializerr0_1 -->
<!-- initializerr0_1&#45;&gt;r0 -->
<g id="edge2" class="edge">
<title>initializerr0_1&#45;&gt;r0:ne</title>
<path fill="none" stroke="blue" stroke-dasharray="1,5" d="M636.87,-303.34C693.68,-290.54 778.19,-269.94 801.72,-255.78"/>
<polygon fill="blue" stroke="blue" points="804.85,-257.37 807,-247 798.85,-253.77 804.85,-257.37"/>
<text text-anchor="middle" x="782" y="-268.8" font-family="Times,serif" font-size="14.00">1</text>
</g>
<!-- r3&#45;&gt;r3 -->
<g id="edge12" class="edge">
<title>r3:s&#45;&gt;r3:n</title>
<path fill="none" stroke="black" d="M571,-103C619.7,-92.5 717.09,-92.5 717.09,-121 717.09,-147.66 631.85,-149.38 580.98,-140.89"/>
<polygon fill="black" stroke="black" points="581.48,-137.43 571,-139 580.17,-144.3 581.48,-137.43"/>
<text text-anchor="middle" x="583.5" y="-142.8" font-family="Times,serif" font-size="14.00">left</text>
<text text-anchor="middle" x="546.5" y="-91.8" font-family="Times,serif" font-size="14.00">/left&#45;gt</text>
</g>
<!-- r5 -->
<g id="node9" class="node">
<title>r5</title>
<g id="a_node9"><a xlink:href="file:///home/andrew/workspace/flow/flowruntime/stdio/stdout.html" xlink:title="print (#5)">
<ellipse fill="coral" stroke="black" cx="296" cy="-121" rx="57.39" ry="18"/>
<text text-anchor="middle" x="296" y="-117.3" font-family="Times,serif" font-size="14.00">print (#5)</text>
</a>
</g>
</g>
<!-- r3&#45;&gt;r5 -->
<g id="edge11" class="edge">
<title>r3:e&#45;&gt;r5:n</title>
<path fill="none" stroke="black" d="M646,-121C654.01,-121 650.81,-133.49 645,-139 619.12,-163.55 345.51,-176.59 301.86,-148.34"/>
<polygon fill="black" stroke="black" points="304.61,-146.17 296,-140 298.88,-150.19 304.61,-146.17"/>
<text text-anchor="middle" x="678" y="-124.8" font-family="Times,serif" font-size="14.00">/right&#45;lte</text>
</g>
<!-- r4 -->
<g id="node10" class="node">
<title>r4</title>
<g id="a_node10"><a xlink:href="file:///home/andrew/workspace/flow/flowstdlib/math/add/add.html" xlink:title="add (#4)">
<ellipse fill="coral" stroke="black" cx="284" cy="-34" rx="51.19" ry="18"/>
<text text-anchor="middle" x="284" y="-30.3" font-family="Times,serif" font-size="14.00">add (#4)</text>
</a>
</g>
</g>
<!-- r3&#45;&gt;r4 -->
<g id="edge13" class="edge">
<title>r3:e&#45;&gt;r4:n</title>
<path fill="none" stroke="black" d="M646,-121C654.01,-121 650.52,-108.81 645,-103 619.14,-75.78 514.19,-90.17 477,-85 437.61,-79.53 308.98,-92.84 287.16,-61.94"/>
<polygon fill="black" stroke="black" points="290.36,-60.47 284,-52 283.69,-62.59 290.36,-60.47"/>
<text text-anchor="middle" x="277" y="-55.8" font-family="Times,serif" font-size="14.00">i1</text>
<text text-anchor="middle" x="673.5" y="-109.8" font-family="Times,serif" font-size="14.00">/right&#45;lt</text>
</g>
<!-- r1&#45;&gt;r0 -->
<g id="edge8" class="edge">
<title>r1:se&#45;&gt;r0:ne</title>
<path fill="none" stroke="black" d="M807,-103C817.8,-92.2 829.66,-94.17 841.35,-104 896.01,-150.01 891.73,-217.85 863.09,-247 856.27,-253.95 831.25,-256.03 816.43,-252.41"/>
<polygon fill="black" stroke="black" points="817.54,-249.06 807,-248 814.58,-255.4 817.54,-249.06"/>
<text text-anchor="middle" x="825" y="-251.8" font-family="Times,serif" font-size="14.00">right</text>
<text text-anchor="middle" x="789.5" y="-91.8" font-family="Times,serif" font-size="14.00">/sum</text>
</g>
<!-- r1&#45;&gt;r1 -->
<g id="edge7" class="edge">
<title>r1:se&#45;&gt;r1:ne</title>
<path fill="none" stroke="black" d="M807,-104C848.12,-93.5 913.35,-93.5 913.35,-121 913.35,-146.41 857.67,-148.34 816.78,-140.21"/>
<polygon fill="black" stroke="black" points="817.53,-136.79 807,-138 815.98,-143.62 817.53,-136.79"/>
<text text-anchor="middle" x="800" y="-141.8" font-family="Times,serif" font-size="14.00">i2</text>
<text text-anchor="middle" x="816.5" y="-92.8" font-family="Times,serif" font-size="14.00">/i2</text>
</g>
<!-- initializerr1_1 -->
<!-- initializerr1_1&#45;&gt;r1 -->
<g id="edge6" class="edge">
<title>initializerr1_1&#45;&gt;r1:w</title>
<path fill="none" stroke="blue" stroke-dasharray="1,5" d="M612.84,-214.38C639.64,-204.8 673.34,-190.08 699,-170 717.48,-155.54 712.06,-130.17 727.06,-122.96"/>
<polygon fill="blue" stroke="blue" points="727.87,-126.37 737,-121 726.51,-119.5 727.87,-126.37"/>
<text text-anchor="middle" x="690" y="-181.8" font-family="Times,serif" font-size="14.00">1</text>
</g>
<!-- r2 -->
<g id="node7" class="node">
<title>r2</title>
<g id="a_node7"><a xlink:href="file:///home/andrew/workspace/flow/flowstdlib/data/buffer/buffer.html" xlink:title="start&#45;of&#45;each (#2)">
<ellipse fill="coral" stroke="black" cx="328" cy="-229" rx="92.08" ry="18"/>
<text text-anchor="middle" x="328" y="-225.3" font-family="Times,serif" font-size="14.00">start&#45;of&#45;each (#2)</text>
</a>
</g>
</g>
<!-- r2&#45;&gt;r3 -->
<g id="edge10" class="edge">
<title>r2:e&#45;&gt;r3:ne</title>
<path fill="none" stroke="black" d="M422,-229C430.95,-229 551.15,-169.85 582.05,-147.7"/>
<polygon fill="black" stroke="black" points="584.9,-149.77 589,-140 579.7,-145.08 584.9,-149.77"/>
<text text-anchor="middle" x="607" y="-143.8" font-family="Times,serif" font-size="14.00">right</text>
</g>
<!-- initializerr2_0 -->
<!-- initializerr2_0&#45;&gt;r2 -->
<g id="edge9" class="edge">
<title>initializerr2_0&#45;&gt;r2:w</title>
<path fill="none" stroke="blue" d="M228.14,-298.01C220.29,-276.67 210.25,-241.63 224.31,-231.7"/>
<polygon fill="blue" stroke="blue" points="225.31,-235.05 234,-229 223.43,-228.31 225.31,-235.05"/>
<text text-anchor="middle" x="227" y="-268.8" font-family="Times,serif" font-size="14.00">0</text>
</g>
<!-- r4&#45;&gt;r3 -->
<g id="edge16" class="edge">
<title>r4:se&#45;&gt;r3:ne</title>
<path fill="none" stroke="black" d="M301,-16C328.89,11.89 621.23,-71.61 645.09,-103 654.78,-115.74 656.31,-127.59 645.09,-139 638.27,-145.95 613.25,-148.03 598.43,-144.41"/>
<polygon fill="black" stroke="black" points="599.54,-141.06 589,-140 596.58,-147.4 599.54,-141.06"/>
<text text-anchor="middle" x="607" y="-128.8" font-family="Times,serif" font-size="14.00">right</text>
<text text-anchor="middle" x="283.5" y="-4.8" font-family="Times,serif" font-size="14.00">/sum</text>
</g>
<!-- r4&#45;&gt;r4 -->
<g id="edge15" class="edge">
<title>r4:se&#45;&gt;r4:ne</title>
<path fill="none" stroke="black" d="M301,-17C342.12,-6.5 407.35,-6.5 407.35,-34 407.35,-59.41 351.67,-61.34 310.78,-53.21"/>
<polygon fill="black" stroke="black" points="311.53,-49.79 301,-51 309.98,-56.62 311.53,-49.79"/>
<text text-anchor="middle" x="294" y="-54.8" font-family="Times,serif" font-size="14.00">i2</text>
<text text-anchor="middle" x="310.5" y="-5.8" font-family="Times,serif" font-size="14.00">/i2</text>
</g>
<!-- initializerr4_1 -->
<!-- initializerr4_1&#45;&gt;r4 -->
<g id="edge14" class="edge">
<title>initializerr4_1&#45;&gt;r4:w</title>
<path fill="none" stroke="blue" stroke-dasharray="1,5" d="M105.93,-103.01C128.16,-79.56 172.57,-39.59 220.95,-34.53"/>
<polygon fill="blue" stroke="blue" points="221.2,-38.02 231,-34 220.83,-31.03 221.2,-38.02"/>
<text text-anchor="middle" x="145" y="-73.8" font-family="Times,serif" font-size="14.00">1</text>
</g>
</g>
</svg>
