<?xml version="1.0" encoding="UTF-8" standalone="no"?>
<!DOCTYPE svg PUBLIC "-//W3C//DTD SVG 1.1//EN"
 "http://www.w3.org/Graphics/SVG/1.1/DTD/svg11.dtd">
<!-- Generated by graphviz version 2.42.3 (20191010.1750)
 -->
<!-- Title: limit_sequence Pages: 1 -->
<svg width="1341pt" height="433pt"
 viewBox="28.80 28.80 1312.49 404.62" xmlns="http://www.w3.org/2000/svg" xmlns:xlink="http://www.w3.org/1999/xlink">
<g id="graph0" class="graph" transform="scale(1 1) rotate(0) translate(32.8 400.62)">
<title>limit_sequence</title>
<polygon fill="white" stroke="transparent" points="-4,4 -4,-371.82 1279.69,-371.82 1279.69,4 -4,4"/>
<text text-anchor="middle" x="637.85" y="-352.62" font-family="Times,serif" font-size="14.00">limit&#45;sequence</text>
<!-- /range&#45;of&#45;ranges/limit&#45;sequence/start -->
<g id="node1" class="node">
<title>/range&#45;of&#45;ranges/limit&#45;sequence/start</title>
<polygon fill="white" stroke="black" points="826.13,-333.39 795.01,-345.82 763.88,-333.39 763.91,-313.26 826.11,-313.26 826.13,-333.39"/>
<text text-anchor="middle" x="795.01" y="-323.62" font-family="Times,serif" font-size="14.00">start</text>
</g>
<!-- /range&#45;of&#45;ranges/limit&#45;sequence/compare -->
<g id="node6" class="node">
<title>/range&#45;of&#45;ranges/limit&#45;sequence/compare</title>
<ellipse fill="coral" stroke="black" cx="755.01" cy="-180.37" rx="81.89" ry="25.41"/>
<text text-anchor="middle" x="755.01" y="-183.17" font-family="Times,serif" font-size="14.00">compare</text>
<text text-anchor="middle" x="755.01" y="-169.17" font-family="Times,serif" font-size="14.00">(CompareSwitch)</text>
</g>
<!-- /range&#45;of&#45;ranges/limit&#45;sequence/start&#45;&gt;/range&#45;of&#45;ranges/limit&#45;sequence/compare -->
<g id="edge4" class="edge">
<title>/range&#45;of&#45;ranges/limit&#45;sequence/start:s&#45;&gt;/range&#45;of&#45;ranges/limit&#45;sequence/compare:ne</title>
<path fill="none" stroke="black" d="M795.01,-311.82C795.01,-267.96 810.85,-243.48 786.97,-213.56"/>
<polygon fill="black" stroke="black" points="789.3,-210.92 780.01,-205.82 784.09,-215.6 789.3,-210.92"/>
<text text-anchor="middle" x="766.79" y="-208.62" font-family="Times,serif" font-size="14.00">right</text>
</g>
<!-- /range&#45;of&#45;ranges/limit&#45;sequence/end -->
<g id="node2" class="node">
<title>/range&#45;of&#45;ranges/limit&#45;sequence/end</title>
<polygon fill="white" stroke="black" points="901.06,-333.39 873.01,-345.82 844.96,-333.39 844.98,-313.26 901.04,-313.26 901.06,-333.39"/>
<text text-anchor="middle" x="873.01" y="-323.62" font-family="Times,serif" font-size="14.00">end</text>
</g>
<!-- /range&#45;of&#45;ranges/limit&#45;sequence/end&#45;&gt;/range&#45;of&#45;ranges/limit&#45;sequence/compare -->
<g id="edge5" class="edge">
<title>/range&#45;of&#45;ranges/limit&#45;sequence/end:s&#45;&gt;/range&#45;of&#45;ranges/limit&#45;sequence/compare:ne</title>
<path fill="none" stroke="black" d="M873.01,-311.82C873.01,-263.72 845.37,-256.43 810.01,-223.82 801.61,-216.08 795.3,-215.93 788.18,-212.05"/>
<polygon fill="black" stroke="black" points="790.09,-209.1 780.01,-205.82 785.85,-214.67 790.09,-209.1"/>
<text text-anchor="middle" x="789.34" y="-208.62" font-family="Times,serif" font-size="14.00">left</text>
</g>
<!-- /range&#45;of&#45;ranges/limit&#45;sequence/step -->
<g id="node3" class="node">
<title>/range&#45;of&#45;ranges/limit&#45;sequence/step</title>
<polygon fill="white" stroke="black" points="407.21,-333.39 377.01,-345.82 346.81,-333.39 346.83,-313.26 407.18,-313.26 407.21,-333.39"/>
<text text-anchor="middle" x="377.01" y="-323.62" font-family="Times,serif" font-size="14.00">step</text>
</g>
<!-- /range&#45;of&#45;ranges/limit&#45;sequence/add -->
<g id="node9" class="node">
<title>/range&#45;of&#45;ranges/limit&#45;sequence/add</title>
<ellipse fill="coral" stroke="black" cx="511.01" cy="-79.46" rx="34.91" ry="25.41"/>
<text text-anchor="middle" x="511.01" y="-82.26" font-family="Times,serif" font-size="14.00">add</text>
<text text-anchor="middle" x="511.01" y="-68.26" font-family="Times,serif" font-size="14.00">(Add)</text>
</g>
<!-- /range&#45;of&#45;ranges/limit&#45;sequence/step&#45;&gt;/range&#45;of&#45;ranges/limit&#45;sequence/add -->
<g id="edge6" class="edge">
<title>/range&#45;of&#45;ranges/limit&#45;sequence/step:s&#45;&gt;/range&#45;of&#45;ranges/limit&#45;sequence/add:w</title>
<path fill="none" stroke="black" d="M377.01,-311.82C377.01,-239.9 442.72,-116.96 467.2,-86.46"/>
<polygon fill="black" stroke="black" points="469.9,-88.74 475.01,-79.46 465.23,-83.52 469.9,-88.74"/>
<text text-anchor="middle" x="469.56" y="-82.26" font-family="Times,serif" font-size="14.00">i2</text>
</g>
<!-- /range&#45;of&#45;ranges/limit&#45;sequence/sequence -->
<g id="node4" class="node">
<title>/range&#45;of&#45;ranges/limit&#45;sequence/sequence</title>
<polygon fill="black" stroke="black" points="597.41,-12.44 650.01,0 702.61,-12.44 702.56,-32.56 597.46,-32.56 597.41,-12.44"/>
<text text-anchor="middle" x="650.01" y="-13.8" font-family="Times,serif" font-size="14.00" fill="white">sequence</text>
</g>
<!-- /range&#45;of&#45;ranges/limit&#45;sequence/last -->
<g id="node5" class="node">
<title>/range&#45;of&#45;ranges/limit&#45;sequence/last</title>
<polygon fill="black" stroke="black" points="720.16,-12.44 748.01,0 775.85,-12.44 775.83,-32.56 720.19,-32.56 720.16,-12.44"/>
<text text-anchor="middle" x="748.01" y="-13.8" font-family="Times,serif" font-size="14.00" fill="white">last</text>
</g>
<!-- /range&#45;of&#45;ranges/limit&#45;sequence/compare&#45;&gt;/range&#45;of&#45;ranges/limit&#45;sequence/sequence -->
<g id="edge8" class="edge">
<title>/range&#45;of&#45;ranges/limit&#45;sequence/compare:s&#45;&gt;/range&#45;of&#45;ranges/limit&#45;sequence/sequence:n</title>
<path fill="none" stroke="black" d="M755.01,-154.91C755.01,-122.52 668.03,-78.41 652.4,-43.91"/>
<polygon fill="black" stroke="black" points="655.76,-42.9 650.01,-34 648.95,-44.54 655.76,-42.9"/>
<text text-anchor="middle" x="679.76" y="-97.09" font-family="Times,serif" font-size="14.00">right&#45;lte</text>
</g>
<!-- /range&#45;of&#45;ranges/limit&#45;sequence/compare&#45;&gt;/range&#45;of&#45;ranges/limit&#45;sequence/last -->
<g id="edge12" class="edge">
<title>/range&#45;of&#45;ranges/limit&#45;sequence/compare:s&#45;&gt;/range&#45;of&#45;ranges/limit&#45;sequence/last:n</title>
<path fill="none" stroke="black" d="M755.01,-154.91C755.01,-104.66 748.91,-89.77 748.1,-44.21"/>
<polygon fill="black" stroke="black" points="751.6,-43.97 748.01,-34 744.6,-44.03 751.6,-43.97"/>
<text text-anchor="middle" x="727.37" y="-96.93" font-family="Times,serif" font-size="14.00">right&#45;gte</text>
</g>
<!-- /range&#45;of&#45;ranges/limit&#45;sequence/compare&#45;&gt;/range&#45;of&#45;ranges/limit&#45;sequence/compare -->
<g id="edge9" class="edge">
<title>/range&#45;of&#45;ranges/limit&#45;sequence/compare:s&#45;&gt;/range&#45;of&#45;ranges/limit&#45;sequence/compare:ne</title>
<path fill="none" stroke="black" d="M755.01,-154.37C788.24,-141.87 854.7,-141.87 854.7,-179.87 854.7,-214.31 820.65,-217.53 789.53,-208.53"/>
<polygon fill="black" stroke="black" points="790.6,-205.2 780.01,-205.37 788.39,-211.84 790.6,-205.2"/>
<text text-anchor="middle" x="741.95" y="-141.76" font-family="Times,serif" font-size="14.00">left&#45;gt</text>
<text text-anchor="middle" x="789.34" y="-208.17" font-family="Times,serif" font-size="14.00">left</text>
</g>
<!-- /range&#45;of&#45;ranges/limit&#45;sequence/compare&#45;&gt;/range&#45;of&#45;ranges/limit&#45;sequence/add -->
<g id="edge10" class="edge">
<title>/range&#45;of&#45;ranges/limit&#45;sequence/compare:sw&#45;&gt;/range&#45;of&#45;ranges/limit&#45;sequence/add:ne</title>
<path fill="none" stroke="black" d="M730.01,-154.91C699.93,-124.83 677.13,-147.8 636.01,-136.91 592.3,-125.34 569.98,-134.4 539.51,-108.41"/>
<polygon fill="black" stroke="black" points="541.72,-105.69 532.01,-101.46 536.96,-110.82 541.72,-105.69"/>
<text text-anchor="middle" x="610.07" y="-138.1" font-family="Times,serif" font-size="14.00">right&#45;lt</text>
<text text-anchor="middle" x="526.56" y="-104.26" font-family="Times,serif" font-size="14.00">i1</text>
</g>
<!-- initializer/range&#45;of&#45;ranges/limit&#45;sequence/compare_0 -->
<!-- initializer/range&#45;of&#45;ranges/limit&#45;sequence/compare_0&#45;&gt;/range&#45;of&#45;ranges/limit&#45;sequence/compare -->
<g id="edge1" class="edge">
<title>initializer/range&#45;of&#45;ranges/limit&#45;sequence/compare_0&#45;&gt;/range&#45;of&#45;ranges/limit&#45;sequence/compare:ne</title>
<path fill="none" stroke="blue" stroke-dasharray="1,5" d="M1015.06,-256.68C975.66,-246.66 923.49,-233.82 877.01,-223.82 837.83,-215.4 815.13,-233.24 787.84,-212.69"/>
<polygon fill="blue" stroke="blue" points="789.84,-209.78 780.01,-205.82 785.22,-215.05 789.84,-209.78"/>
<text text-anchor="middle" x="940.51" y="-226.62" font-family="Times,serif" font-size="14.00">9</text>
</g>
<!-- initializer/range&#45;of&#45;ranges/limit&#45;sequence/compare_1 -->
<!-- initializer/range&#45;of&#45;ranges/limit&#45;sequence/compare_1&#45;&gt;/range&#45;of&#45;ranges/limit&#45;sequence/compare -->
<g id="edge2" class="edge">
<title>initializer/range&#45;of&#45;ranges/limit&#45;sequence/compare_1&#45;&gt;/range&#45;of&#45;ranges/limit&#45;sequence/compare:ne</title>
<path fill="none" stroke="blue" stroke-dasharray="1,5" d="M671.18,-257.3C719.95,-246.43 774.34,-231.16 782.14,-215.85"/>
<polygon fill="blue" stroke="blue" points="785.51,-214.88 780.01,-205.82 778.67,-216.33 785.51,-214.88"/>
<text text-anchor="middle" x="775.51" y="-226.62" font-family="Times,serif" font-size="14.00">1</text>
</g>
<!-- /range&#45;of&#45;ranges/limit&#45;sequence/add&#45;&gt;/range&#45;of&#45;ranges/limit&#45;sequence/compare -->
<g id="edge11" class="edge">
<title>/range&#45;of&#45;ranges/limit&#45;sequence/add:sw&#45;&gt;/range&#45;of&#45;ranges/limit&#45;sequence/compare:ne</title>
<path fill="none" stroke="black" d="M490.01,-57.46C485.61,-53.06 480.29,-53.9 476.05,-58.46 461.98,-73.57 462.43,-89.4 476.05,-104.91 496.45,-128.14 583.38,-118.71 614.01,-122.91 713.07,-136.49 771.22,-79.35 836.7,-154.91 851.39,-171.86 852.42,-189.37 836.7,-205.37 829.73,-212.46 804.01,-214.53 789.09,-210.71"/>
<polygon fill="black" stroke="black" points="790.54,-207.52 780.01,-206.37 787.52,-213.84 790.54,-207.52"/>
<text text-anchor="middle" x="623.74" y="-113.65" font-family="Times,serif" font-size="14.00">sum</text>
<text text-anchor="middle" x="766.79" y="-209.17" font-family="Times,serif" font-size="14.00">right</text>
</g>
<!-- /range&#45;of&#45;ranges/limit&#45;sequence/add&#45;&gt;/range&#45;of&#45;ranges/limit&#45;sequence/add -->
<g id="edge7" class="edge">
<title>/range&#45;of&#45;ranges/limit&#45;sequence/add:e&#45;&gt;/range&#45;of&#45;ranges/limit&#45;sequence/add:w</title>
<path fill="none" stroke="black" d="M546.01,-79.46C563.96,-96.27 563.96,-129.91 511.01,-129.91 465.5,-129.91 459.1,-105.07 469.6,-87.41"/>
<polygon fill="black" stroke="black" points="472.46,-89.44 476.01,-79.46 467.01,-85.04 472.46,-89.44"/>
<text text-anchor="middle" x="551.46" y="-82.26" font-family="Times,serif" font-size="14.00">i2</text>
<text text-anchor="middle" x="470.56" y="-68.26" font-family="Times,serif" font-size="14.00">i2</text>
</g>
<!-- initializer/range&#45;of&#45;ranges/limit&#45;sequence/add_1 -->
<!-- initializer/range&#45;of&#45;ranges/limit&#45;sequence/add_1&#45;&gt;/range&#45;of&#45;ranges/limit&#45;sequence/add -->
<g id="edge3" class="edge">
<title>initializer/range&#45;of&#45;ranges/limit&#45;sequence/add_1&#45;&gt;/range&#45;of&#45;ranges/limit&#45;sequence/add:w</title>
<path fill="none" stroke="blue" stroke-dasharray="1,5" d="M209.94,-162.42C259.72,-134.86 365.77,-83.04 464.83,-79.63"/>
<polygon fill="blue" stroke="blue" points="465.07,-83.13 475.01,-79.46 464.95,-76.13 465.07,-83.13"/>
<text text-anchor="middle" x="294.51" y="-125.71" font-family="Times,serif" font-size="14.00">1</text>
</g>
</g>
</svg>
