<?xml version="1.0" encoding="UTF-8" standalone="no"?>
<!DOCTYPE svg PUBLIC "-//W3C//DTD SVG 1.1//EN"
 "http://www.w3.org/Graphics/SVG/1.1/DTD/svg11.dtd">
<!-- Generated by graphviz version 2.44.1 (20200629.0846)
 -->
<!-- Title: sequence_of_sequences Pages: 1 -->
<svg width="1126pt" height="424pt"
 viewBox="28.80 28.80 1097.21 395.54" xmlns="http://www.w3.org/2000/svg" xmlns:xlink="http://www.w3.org/1999/xlink">
<g id="graph0" class="graph" transform="scale(1 1) rotate(0) translate(32.8 391.54)">
<title>sequence_of_sequences</title>
<polygon fill="white" stroke="transparent" points="-4,4 -4,-362.74 1064.41,-362.74 1064.41,4 -4,4"/>
<text text-anchor="middle" x="530.21" y="-343.54" font-family="Times,serif" font-size="14.00">sequence&#45;of&#45;sequences</text>
<!-- /range&#45;of&#45;ranges/sequence&#45;of&#45;sequences/start -->
<g id="node1" class="node">
<title>/range&#45;of&#45;ranges/sequence&#45;of&#45;sequences/start</title>
<polygon fill="white" stroke="black" points="548.2,-323.3 515.93,-335.74 483.66,-323.3 483.69,-303.18 548.17,-303.18 548.2,-323.3"/>
<text text-anchor="middle" x="515.93" y="-314.04" font-family="Times,serif" font-size="14.00">start</text>
</g>
<!-- /range&#45;of&#45;ranges/sequence&#45;of&#45;sequences/compare -->
<g id="node6" class="node">
<title>/range&#45;of&#45;ranges/sequence&#45;of&#45;sequences/compare</title>
<g id="a_node6"><a xlink:href="../../flowstdlib/control/compare_switch/compare_switch.html" xlink:title="compare\n(compare_switch)">
<ellipse fill="coral" stroke="black" cx="560.93" cy="-167.87" rx="81.13" ry="26.74"/>
<text text-anchor="middle" x="560.93" y="-171.67" font-family="Times,serif" font-size="14.00">compare</text>
<text text-anchor="middle" x="560.93" y="-156.67" font-family="Times,serif" font-size="14.00">(compare_switch)</text>
</a>
</g>
</g>
<!-- /range&#45;of&#45;ranges/sequence&#45;of&#45;sequences/start&#45;&gt;/range&#45;of&#45;ranges/sequence&#45;of&#45;sequences/compare -->
<g id="edge3" class="edge">
<title>/range&#45;of&#45;ranges/sequence&#45;of&#45;sequences/start:s&#45;&gt;/range&#45;of&#45;ranges/sequence&#45;of&#45;sequences/compare:ne</title>
<path fill="none" stroke="black" d="M515.93,-301.74C515.93,-248.68 612.18,-236.68 593.29,-202.82"/>
<polygon fill="black" stroke="black" points="595.86,-200.44 586.93,-194.74 590.36,-204.76 595.86,-200.44"/>
<text text-anchor="middle" x="573.93" y="-198.54" font-family="Times,serif" font-size="14.00">right</text>
</g>
<!-- /range&#45;of&#45;ranges/sequence&#45;of&#45;sequences/end -->
<g id="node2" class="node">
<title>/range&#45;of&#45;ranges/sequence&#45;of&#45;sequences/end</title>
<polygon fill="white" stroke="black" points="623.77,-323.3 594.93,-335.74 566.09,-323.3 566.12,-303.18 623.75,-303.18 623.77,-323.3"/>
<text text-anchor="middle" x="594.93" y="-314.04" font-family="Times,serif" font-size="14.00">end</text>
</g>
<!-- /range&#45;of&#45;ranges/sequence&#45;of&#45;sequences/end&#45;&gt;/range&#45;of&#45;ranges/sequence&#45;of&#45;sequences/compare -->
<g id="edge4" class="edge">
<title>/range&#45;of&#45;ranges/sequence&#45;of&#45;sequences/end:s&#45;&gt;/range&#45;of&#45;ranges/sequence&#45;of&#45;sequences/compare:ne</title>
<path fill="none" stroke="black" d="M594.93,-301.74C594.93,-257.78 616.79,-232.59 593.79,-202.51"/>
<polygon fill="black" stroke="black" points="596.17,-199.92 586.93,-194.74 590.92,-204.55 596.17,-199.92"/>
<text text-anchor="middle" x="596.43" y="-198.54" font-family="Times,serif" font-size="14.00">left</text>
</g>
<!-- /range&#45;of&#45;ranges/sequence&#45;of&#45;sequences/step -->
<g id="node3" class="node">
<title>/range&#45;of&#45;ranges/sequence&#45;of&#45;sequences/step</title>
<polygon fill="white" stroke="black" points="465.49,-323.3 434.93,-335.74 404.38,-323.3 404.4,-303.18 465.46,-303.18 465.49,-323.3"/>
<text text-anchor="middle" x="434.93" y="-314.04" font-family="Times,serif" font-size="14.00">step</text>
</g>
<!-- /range&#45;of&#45;ranges/sequence&#45;of&#45;sequences/add -->
<g id="node8" class="node">
<title>/range&#45;of&#45;ranges/sequence&#45;of&#45;sequences/add</title>
<g id="a_node8"><a xlink:href="../../flowstdlib/math/add/add.html" xlink:title="add">
<ellipse fill="coral" stroke="black" cx="461.93" cy="-72" rx="27" ry="18"/>
<text text-anchor="middle" x="461.93" y="-68.3" font-family="Times,serif" font-size="14.00">add</text>
</a>
</g>
</g>
<!-- /range&#45;of&#45;ranges/sequence&#45;of&#45;sequences/step&#45;&gt;/range&#45;of&#45;ranges/sequence&#45;of&#45;sequences/add -->
<g id="edge5" class="edge">
<title>/range&#45;of&#45;ranges/sequence&#45;of&#45;sequences/step:s&#45;&gt;/range&#45;of&#45;ranges/sequence&#45;of&#45;sequences/add:w</title>
<path fill="none" stroke="black" d="M434.93,-301.74C434.93,-279.2 414.26,-117.41 426.98,-79.8"/>
<polygon fill="black" stroke="black" points="429.89,-81.79 433.93,-72 424.66,-77.13 429.89,-81.79"/>
<text text-anchor="middle" x="428.43" y="-75.8" font-family="Times,serif" font-size="14.00">i2</text>
</g>
<!-- /range&#45;of&#45;ranges/sequence&#45;of&#45;sequences/sequence -->
<g id="node4" class="node">
<title>/range&#45;of&#45;ranges/sequence&#45;of&#45;sequences/sequence</title>
<polygon fill="black" stroke="black" points="435.89,-12.44 488.93,0 541.98,-12.44 541.93,-32.56 435.94,-32.56 435.89,-12.44"/>
<text text-anchor="middle" x="488.93" y="-14.3" font-family="Times,serif" font-size="14.00" fill="white">sequence</text>
</g>
<!-- /range&#45;of&#45;ranges/sequence&#45;of&#45;sequences/last -->
<g id="node5" class="node">
<title>/range&#45;of&#45;ranges/sequence&#45;of&#45;sequences/last</title>
<polygon fill="black" stroke="black" points="559.69,-12.44 587.93,0 616.17,-12.44 616.14,-32.56 559.72,-32.56 559.69,-12.44"/>
<text text-anchor="middle" x="587.93" y="-14.3" font-family="Times,serif" font-size="14.00" fill="white">last</text>
</g>
<!-- /range&#45;of&#45;ranges/sequence&#45;of&#45;sequences/compare&#45;&gt;/range&#45;of&#45;ranges/sequence&#45;of&#45;sequences/sequence -->
<g id="edge7" class="edge">
<title>/range&#45;of&#45;ranges/sequence&#45;of&#45;sequences/compare:s&#45;&gt;/range&#45;of&#45;ranges/sequence&#45;of&#45;sequences/sequence:n</title>
<path fill="none" stroke="black" d="M560.93,-141C560.93,-128.69 507.76,-69.1 492.8,-43.49"/>
<polygon fill="black" stroke="black" points="495.95,-41.94 488.93,-34 489.47,-44.58 495.95,-41.94"/>
<text text-anchor="middle" x="546.91" y="-91.27" font-family="Times,serif" font-size="14.00">right&#45;lte</text>
</g>
<!-- /range&#45;of&#45;ranges/sequence&#45;of&#45;sequences/compare&#45;&gt;/range&#45;of&#45;ranges/sequence&#45;of&#45;sequences/last -->
<g id="edge11" class="edge">
<title>/range&#45;of&#45;ranges/sequence&#45;of&#45;sequences/compare:s&#45;&gt;/range&#45;of&#45;ranges/sequence&#45;of&#45;sequences/last:n</title>
<path fill="none" stroke="black" d="M560.93,-141C560.93,-95.5 584.17,-84.54 587.53,-44.03"/>
<polygon fill="black" stroke="black" points="591.03,-44.13 587.93,-34 584.03,-43.85 591.03,-44.13"/>
<text text-anchor="middle" x="550.94" y="-76.29" font-family="Times,serif" font-size="14.00">right&#45;gte</text>
</g>
<!-- /range&#45;of&#45;ranges/sequence&#45;of&#45;sequences/compare&#45;&gt;/range&#45;of&#45;ranges/sequence&#45;of&#45;sequences/compare -->
<g id="edge8" class="edge">
<title>/range&#45;of&#45;ranges/sequence&#45;of&#45;sequences/compare:s&#45;&gt;/range&#45;of&#45;ranges/sequence&#45;of&#45;sequences/compare:ne</title>
<path fill="none" stroke="black" d="M560.93,-140.87C594.04,-127.87 660.25,-127.87 660.25,-167.37 660.25,-203.17 627.22,-206.52 596.39,-197.16"/>
<polygon fill="black" stroke="black" points="597.53,-193.85 586.93,-193.87 595.23,-200.46 597.53,-193.85"/>
<text text-anchor="middle" x="547.54" y="-128.35" font-family="Times,serif" font-size="14.00">left&#45;gt</text>
<text text-anchor="middle" x="577.43" y="-197.67" font-family="Times,serif" font-size="14.00">left</text>
</g>
<!-- /range&#45;of&#45;ranges/sequence&#45;of&#45;sequences/compare&#45;&gt;/range&#45;of&#45;ranges/sequence&#45;of&#45;sequences/add -->
<g id="edge9" class="edge">
<title>/range&#45;of&#45;ranges/sequence&#45;of&#45;sequences/compare:sw&#45;&gt;/range&#45;of&#45;ranges/sequence&#45;of&#45;sequences/add:ne</title>
<path fill="none" stroke="black" d="M534.93,-141C522.84,-128.91 513.69,-134.38 500.93,-123 489.82,-113.09 489.61,-105.33 483.46,-95.95"/>
<polygon fill="black" stroke="black" points="485.98,-93.51 476.93,-88 480.57,-97.95 485.98,-93.51"/>
<text text-anchor="middle" x="480.44" y="-125.42" font-family="Times,serif" font-size="14.00">right&#45;lt</text>
<text text-anchor="middle" x="471.43" y="-91.8" font-family="Times,serif" font-size="14.00">i1</text>
</g>
<!-- initializer/range&#45;of&#45;ranges/sequence&#45;of&#45;sequences/compare_1 -->
<!-- initializer/range&#45;of&#45;ranges/sequence&#45;of&#45;sequences/compare_1&#45;&gt;/range&#45;of&#45;ranges/sequence&#45;of&#45;sequences/compare -->
<g id="edge1" class="edge">
<title>initializer/range&#45;of&#45;ranges/sequence&#45;of&#45;sequences/compare_1&#45;&gt;/range&#45;of&#45;ranges/sequence&#45;of&#45;sequences/compare:ne</title>
<path fill="none" stroke="blue" stroke-dasharray="1,5" d="M692.02,-249.53C656.98,-240.47 621.69,-225.69 594.41,-201.74"/>
<polygon fill="blue" stroke="blue" points="596.62,-199.02 586.93,-194.74 591.84,-204.13 596.62,-199.02"/>
<text text-anchor="middle" x="635.43" y="-216.54" font-family="Times,serif" font-size="14.00">0</text>
</g>
<!-- /range&#45;of&#45;ranges/sequence&#45;of&#45;sequences/add&#45;&gt;/range&#45;of&#45;ranges/sequence&#45;of&#45;sequences/compare -->
<g id="edge10" class="edge">
<title>/range&#45;of&#45;ranges/sequence&#45;of&#45;sequences/add:sw&#45;&gt;/range&#45;of&#45;ranges/sequence&#45;of&#45;sequences/compare:ne</title>
<path fill="none" stroke="black" d="M446.93,-56C443.15,-52.22 438.56,-53.06 434.93,-57 425,-67.79 425.85,-78.48 434.93,-90 456.15,-116.92 476.63,-99.85 509.93,-108 568.8,-122.41 604.94,-93.24 642.25,-141 656.71,-159.52 658.71,-177.11 642.25,-193.87 635.52,-200.72 610.85,-202.78 596.23,-199.21"/>
<polygon fill="black" stroke="black" points="597.47,-195.93 586.93,-194.87 594.51,-202.27 597.47,-195.93"/>
<text text-anchor="middle" x="507.72" y="-98.85" font-family="Times,serif" font-size="14.00">sum</text>
<text text-anchor="middle" x="599.93" y="-198.67" font-family="Times,serif" font-size="14.00">right</text>
</g>
<!-- /range&#45;of&#45;ranges/sequence&#45;of&#45;sequences/add&#45;&gt;/range&#45;of&#45;ranges/sequence&#45;of&#45;sequences/add -->
<g id="edge6" class="edge">
<title>/range&#45;of&#45;ranges/sequence&#45;of&#45;sequences/add:e&#45;&gt;/range&#45;of&#45;ranges/sequence&#45;of&#45;sequences/add:w</title>
<path fill="none" stroke="black" d="M488.93,-72C506.93,-85 506.93,-111 461.93,-111 424.31,-111 418.14,-92.83 427.64,-79.28"/>
<polygon fill="black" stroke="black" points="430.33,-81.54 434.93,-72 425.38,-76.59 430.33,-81.54"/>
<text text-anchor="middle" x="494.44" y="-75.8" font-family="Times,serif" font-size="14.00">i2</text>
<text text-anchor="middle" x="429.43" y="-60.8" font-family="Times,serif" font-size="14.00">i2</text>
</g>
<!-- initializer/range&#45;of&#45;ranges/sequence&#45;of&#45;sequences/add_1 -->
<!-- initializer/range&#45;of&#45;ranges/sequence&#45;of&#45;sequences/add_1&#45;&gt;/range&#45;of&#45;ranges/sequence&#45;of&#45;sequences/add -->
<g id="edge2" class="edge">
<title>initializer/range&#45;of&#45;ranges/sequence&#45;of&#45;sequences/add_1&#45;&gt;/range&#45;of&#45;ranges/sequence&#45;of&#45;sequences/add:w</title>
<path fill="none" stroke="blue" stroke-dasharray="1,5" d="M232.77,-149.91C270.16,-123.79 347.89,-76.31 423.73,-72.27"/>
<polygon fill="blue" stroke="blue" points="424.03,-75.77 433.93,-72 423.84,-68.77 424.03,-75.77"/>
<text text-anchor="middle" x="306.43" y="-111.8" font-family="Times,serif" font-size="14.00">1</text>
</g>
</g>
</svg>
