<?xml version="1.0" encoding="UTF-8" standalone="no"?>
<!DOCTYPE svg PUBLIC "-//W3C//DTD SVG 1.1//EN"
 "http://www.w3.org/Graphics/SVG/1.1/DTD/svg11.dtd">
<!-- Generated by graphviz version 2.43.0 (0)
 -->
<!-- Title: sequence_of_sequences Pages: 1 -->
<svg width="1389pt" height="424pt"
 viewBox="28.80 28.80 1360.03 395.54" xmlns="http://www.w3.org/2000/svg" xmlns:xlink="http://www.w3.org/1999/xlink">
<g id="page0,1_graph0" class="graph" transform="scale(1 1) rotate(0) translate(32.8 391.54)">
<title>sequence_of_sequences</title>
<polygon fill="white" stroke="transparent" points="-4,4 -4,-362.74 1327.23,-362.74 1327.23,4 -4,4"/>
<text text-anchor="middle" x="661.62" y="-343.54" font-family="Times,serif" font-size="14.00">sequence&#45;of&#45;sequences</text>
<!-- /range&#45;of&#45;ranges/sequence&#45;of&#45;sequences/start -->
<g id="node1" class="node">
<title>/range&#45;of&#45;ranges/sequence&#45;of&#45;sequences/start</title>
<polygon fill="white" stroke="black" points="670.7,-323.3 629.76,-335.74 588.81,-323.3 588.85,-303.18 670.66,-303.18 670.7,-323.3"/>
<text text-anchor="middle" x="629.76" y="-314.04" font-family="Times,serif" font-size="14.00">start</text>
</g>
<!-- /range&#45;of&#45;ranges/sequence&#45;of&#45;sequences/compare -->
<g id="node6" class="node">
<title>/range&#45;of&#45;ranges/sequence&#45;of&#45;sequences/compare</title>
<g id="a_node6"><a xlink:href="../../flowstdlib/control/compare_switch/compare_switch.html" xlink:title="compare\n(compare_switch)">
<ellipse fill="coral" stroke="black" cx="697.76" cy="-167.87" rx="100.32" ry="26.74"/>
<text text-anchor="middle" x="697.76" y="-171.67" font-family="Times,serif" font-size="14.00">compare</text>
<text text-anchor="middle" x="697.76" y="-156.67" font-family="Times,serif" font-size="14.00">(compare_switch)</text>
</a>
</g>
</g>
<!-- /range&#45;of&#45;ranges/sequence&#45;of&#45;sequences/start&#45;&gt;/range&#45;of&#45;ranges/sequence&#45;of&#45;sequences/compare -->
<g id="edge3" class="edge">
<title>/range&#45;of&#45;ranges/sequence&#45;of&#45;sequences/start:s&#45;&gt;/range&#45;of&#45;ranges/sequence&#45;of&#45;sequences/compare:ne</title>
<path fill="none" stroke="black" d="M629.76,-301.74C629.76,-242.4 751.72,-239.62 730.08,-202.62"/>
<polygon fill="black" stroke="black" points="732.74,-200.35 723.76,-194.74 727.28,-204.73 732.74,-200.35"/>
<text text-anchor="middle" x="705.76" y="-198.54" font-family="Times,serif" font-size="14.00">right</text>
</g>
<!-- /range&#45;of&#45;ranges/sequence&#45;of&#45;sequences/end -->
<g id="node2" class="node">
<title>/range&#45;of&#45;ranges/sequence&#45;of&#45;sequences/end</title>
<polygon fill="white" stroke="black" points="758.35,-323.3 723.76,-335.74 689.17,-323.3 689.2,-303.18 758.32,-303.18 758.35,-323.3"/>
<text text-anchor="middle" x="723.76" y="-314.04" font-family="Times,serif" font-size="14.00">end</text>
</g>
<!-- /range&#45;of&#45;ranges/sequence&#45;of&#45;sequences/end&#45;&gt;/range&#45;of&#45;ranges/sequence&#45;of&#45;sequences/compare -->
<g id="edge4" class="edge">
<title>/range&#45;of&#45;ranges/sequence&#45;of&#45;sequences/end:s&#45;&gt;/range&#45;of&#45;ranges/sequence&#45;of&#45;sequences/compare:ne</title>
<path fill="none" stroke="black" d="M723.76,-301.74C723.76,-257.9 752.34,-232.53 730.46,-202.49"/>
<polygon fill="black" stroke="black" points="732.94,-200.02 723.76,-194.74 727.65,-204.6 732.94,-200.02"/>
<text text-anchor="middle" x="736.26" y="-198.54" font-family="Times,serif" font-size="14.00">left</text>
</g>
<!-- /range&#45;of&#45;ranges/sequence&#45;of&#45;sequences/step -->
<g id="node3" class="node">
<title>/range&#45;of&#45;ranges/sequence&#45;of&#45;sequences/step</title>
<polygon fill="white" stroke="black" points="75.28,-323.3 37.76,-335.74 0.24,-323.3 0.27,-303.18 75.24,-303.18 75.28,-323.3"/>
<text text-anchor="middle" x="37.76" y="-314.04" font-family="Times,serif" font-size="14.00">step</text>
</g>
<!-- /range&#45;of&#45;ranges/sequence&#45;of&#45;sequences/add -->
<g id="node8" class="node">
<title>/range&#45;of&#45;ranges/sequence&#45;of&#45;sequences/add</title>
<g id="a_node8"><a xlink:href="../../flowstdlib/math/add/add.html" xlink:title="add">
<ellipse fill="coral" stroke="black" cx="436.76" cy="-72" rx="27.9" ry="18"/>
<text text-anchor="middle" x="436.76" y="-68.3" font-family="Times,serif" font-size="14.00">add</text>
</a>
</g>
</g>
<!-- /range&#45;of&#45;ranges/sequence&#45;of&#45;sequences/step&#45;&gt;/range&#45;of&#45;ranges/sequence&#45;of&#45;sequences/add -->
<g id="edge5" class="edge">
<title>/range&#45;of&#45;ranges/sequence&#45;of&#45;sequences/step:s&#45;&gt;/range&#45;of&#45;ranges/sequence&#45;of&#45;sequences/add:w</title>
<path fill="none" stroke="black" d="M37.76,-301.74C37.76,-230.03 3.77,-194.29 51.76,-141 103.58,-83.46 310.13,-72.79 397.69,-72.04"/>
<polygon fill="black" stroke="black" points="397.77,-75.54 407.76,-72 397.74,-68.54 397.77,-75.54"/>
<text text-anchor="middle" x="400.76" y="-75.8" font-family="Times,serif" font-size="14.00">i2</text>
</g>
<!-- /range&#45;of&#45;ranges/sequence&#45;of&#45;sequences/sequence -->
<g id="node4" class="node">
<title>/range&#45;of&#45;ranges/sequence&#45;of&#45;sequences/sequence</title>
<polygon fill="black" stroke="black" points="553.9,-12.44 620.76,0 687.62,-12.44 687.56,-32.56 553.96,-32.56 553.9,-12.44"/>
<text text-anchor="middle" x="620.76" y="-14.3" font-family="Times,serif" font-size="14.00" fill="white">sequence</text>
</g>
<!-- /range&#45;of&#45;ranges/sequence&#45;of&#45;sequences/last -->
<g id="node5" class="node">
<title>/range&#45;of&#45;ranges/sequence&#45;of&#45;sequences/last</title>
<polygon fill="black" stroke="black" points="705.17,-12.44 739.76,0 774.35,-12.44 774.32,-32.56 705.2,-32.56 705.17,-12.44"/>
<text text-anchor="middle" x="739.76" y="-14.3" font-family="Times,serif" font-size="14.00" fill="white">last</text>
</g>
<!-- /range&#45;of&#45;ranges/sequence&#45;of&#45;sequences/compare&#45;&gt;/range&#45;of&#45;ranges/sequence&#45;of&#45;sequences/sequence -->
<g id="edge7" class="edge">
<title>/range&#45;of&#45;ranges/sequence&#45;of&#45;sequences/compare:s&#45;&gt;/range&#45;of&#45;ranges/sequence&#45;of&#45;sequences/sequence:n</title>
<path fill="none" stroke="black" d="M697.76,-141C697.76,-86.07 630.08,-91.59 621.62,-44.21"/>
<polygon fill="black" stroke="black" points="625.09,-43.67 620.76,-34 618.11,-44.26 625.09,-43.67"/>
<text text-anchor="middle" x="629.56" y="-91.18" font-family="Times,serif" font-size="14.00">right&#45;lte</text>
</g>
<!-- /range&#45;of&#45;ranges/sequence&#45;of&#45;sequences/compare&#45;&gt;/range&#45;of&#45;ranges/sequence&#45;of&#45;sequences/last -->
<g id="edge11" class="edge">
<title>/range&#45;of&#45;ranges/sequence&#45;of&#45;sequences/compare:s&#45;&gt;/range&#45;of&#45;ranges/sequence&#45;of&#45;sequences/last:n</title>
<path fill="none" stroke="black" d="M697.76,-141C697.76,-93.5 734.06,-86 739.16,-44.12"/>
<polygon fill="black" stroke="black" points="742.67,-44.19 739.76,-34 735.68,-43.78 742.67,-44.19"/>
<text text-anchor="middle" x="750.83" y="-91.2" font-family="Times,serif" font-size="14.00">right&#45;gte</text>
</g>
<!-- /range&#45;of&#45;ranges/sequence&#45;of&#45;sequences/compare&#45;&gt;/range&#45;of&#45;ranges/sequence&#45;of&#45;sequences/compare -->
<g id="edge8" class="edge">
<title>/range&#45;of&#45;ranges/sequence&#45;of&#45;sequences/compare:s&#45;&gt;/range&#45;of&#45;ranges/sequence&#45;of&#45;sequences/compare:ne</title>
<path fill="none" stroke="black" d="M697.76,-140.87C737.23,-127.87 816.17,-127.87 816.17,-167.37 816.17,-203.63 771.56,-206.6 733.71,-196.79"/>
<polygon fill="black" stroke="black" points="734.34,-193.33 723.76,-193.87 732.37,-200.05 734.34,-193.33"/>
<text text-anchor="middle" x="681.06" y="-128.07" font-family="Times,serif" font-size="14.00">left&#45;gt</text>
<text text-anchor="middle" x="711.26" y="-182.67" font-family="Times,serif" font-size="14.00">left</text>
</g>
<!-- /range&#45;of&#45;ranges/sequence&#45;of&#45;sequences/compare&#45;&gt;/range&#45;of&#45;ranges/sequence&#45;of&#45;sequences/add -->
<g id="edge9" class="edge">
<title>/range&#45;of&#45;ranges/sequence&#45;of&#45;sequences/compare:sw&#45;&gt;/range&#45;of&#45;ranges/sequence&#45;of&#45;sequences/add:ne</title>
<path fill="none" stroke="black" d="M671.76,-141C663.88,-133.12 503.34,-105.04 462.06,-92.75"/>
<polygon fill="black" stroke="black" points="463.34,-89.49 452.76,-89 460.73,-95.98 463.34,-89.49"/>
<text text-anchor="middle" x="537" y="-118.85" font-family="Times,serif" font-size="14.00">right&#45;lt</text>
<text text-anchor="middle" x="459.76" y="-92.8" font-family="Times,serif" font-size="14.00">i1</text>
</g>
<!-- initializer/range&#45;of&#45;ranges/sequence&#45;of&#45;sequences/compare_1 -->
<!-- initializer/range&#45;of&#45;ranges/sequence&#45;of&#45;sequences/compare_1&#45;&gt;/range&#45;of&#45;ranges/sequence&#45;of&#45;sequences/compare -->
<g id="edge1" class="edge">
<title>initializer/range&#45;of&#45;ranges/sequence&#45;of&#45;sequences/compare_1&#45;&gt;/range&#45;of&#45;ranges/sequence&#45;of&#45;sequences/compare:ne</title>
<path fill="none" stroke="blue" stroke-dasharray="1,5" d="M898.27,-247.65C833.42,-237.81 762.76,-222.76 731.74,-201.29"/>
<polygon fill="blue" stroke="blue" points="733.71,-198.38 723.76,-194.74 729.27,-203.79 733.71,-198.38"/>
<text text-anchor="middle" x="801.76" y="-216.54" font-family="Times,serif" font-size="14.00">0</text>
</g>
<!-- /range&#45;of&#45;ranges/sequence&#45;of&#45;sequences/add&#45;&gt;/range&#45;of&#45;ranges/sequence&#45;of&#45;sequences/compare -->
<g id="edge10" class="edge">
<title>/range&#45;of&#45;ranges/sequence&#45;of&#45;sequences/add:e&#45;&gt;/range&#45;of&#45;ranges/sequence&#45;of&#45;sequences/compare:ne</title>
<path fill="none" stroke="black" d="M465.76,-72C470.47,-72 795.19,-137.34 798.17,-141 813,-159.23 814.67,-177.14 798.17,-193.87 788.5,-203.66 751.5,-205.95 732.61,-199.7"/>
<polygon fill="black" stroke="black" points="734.21,-196.59 723.76,-194.87 730.86,-202.73 734.21,-196.59"/>
<text text-anchor="middle" x="741.76" y="-198.67" font-family="Times,serif" font-size="14.00">right</text>
</g>
<!-- /range&#45;of&#45;ranges/sequence&#45;of&#45;sequences/add&#45;&gt;/range&#45;of&#45;ranges/sequence&#45;of&#45;sequences/add -->
<g id="edge6" class="edge">
<title>/range&#45;of&#45;ranges/sequence&#45;of&#45;sequences/add:e&#45;&gt;/range&#45;of&#45;ranges/sequence&#45;of&#45;sequences/add:w</title>
<path fill="none" stroke="black" d="M464.76,-72C482.71,-85 482.71,-111 436.76,-111 398.35,-111 392.05,-92.83 401.5,-79.28"/>
<polygon fill="black" stroke="black" points="404.17,-81.55 408.76,-72 399.22,-76.61 404.17,-81.55"/>
<text text-anchor="middle" x="471.77" y="-75.8" font-family="Times,serif" font-size="14.00">i2</text>
<text text-anchor="middle" x="401.76" y="-60.8" font-family="Times,serif" font-size="14.00">i2</text>
</g>
<!-- initializer/range&#45;of&#45;ranges/sequence&#45;of&#45;sequences/add_1 -->
<!-- initializer/range&#45;of&#45;ranges/sequence&#45;of&#45;sequences/add_1&#45;&gt;/range&#45;of&#45;ranges/sequence&#45;of&#45;sequences/add -->
<g id="edge2" class="edge">
<title>initializer/range&#45;of&#45;ranges/sequence&#45;of&#45;sequences/add_1&#45;&gt;/range&#45;of&#45;ranges/sequence&#45;of&#45;sequences/add:w</title>
<path fill="none" stroke="blue" stroke-dasharray="1,5" d="M329.12,-149.47C339.42,-124.43 362.23,-80.44 397.48,-73.06"/>
<polygon fill="blue" stroke="blue" points="398.17,-76.51 407.76,-72 397.45,-69.55 398.17,-76.51"/>
<text text-anchor="middle" x="356.76" y="-111.8" font-family="Times,serif" font-size="14.00">1</text>
</g>
</g>
</svg>
