<?xml version="1.0" encoding="UTF-8" standalone="no"?>
<!DOCTYPE svg PUBLIC "-//W3C//DTD SVG 1.1//EN"
 "http://www.w3.org/Graphics/SVG/1.1/DTD/svg11.dtd">
<!-- Generated by graphviz version 2.44.0 (20200408.0750)
 -->
<!-- Title: sequence_of_sequences Pages: 1 -->
<svg width="731pt" height="374pt"
 viewBox="28.80 28.80 702.63 345.28" xmlns="http://www.w3.org/2000/svg" xmlns:xlink="http://www.w3.org/1999/xlink">
<g id="graph0" class="graph" transform="scale(1 1) rotate(0) translate(32.8 341.28)">
<title>sequence_of_sequences</title>
<polygon fill="white" stroke="transparent" points="-4,4 -4,-312.48 669.83,-312.48 669.83,4 -4,4"/>
<text text-anchor="middle" x="332.92" y="-293.28" font-family="Times,serif" font-size="14.00">sequence&#45;of&#45;sequences</text>
<!-- /range&#45;of&#45;ranges/sequence&#45;of&#45;sequences/start -->
<g id="node1" class="node">
<title>/range&#45;of&#45;ranges/sequence&#45;of&#45;sequences/start</title>
<polygon fill="white" stroke="black" points="638.2,-273.04 605.93,-285.48 573.66,-273.04 573.69,-252.92 638.17,-252.92 638.2,-273.04"/>
<text text-anchor="middle" x="605.93" y="-263.78" font-family="Times,serif" font-size="14.00">start</text>
</g>
<!-- /range&#45;of&#45;ranges/sequence&#45;of&#45;sequences/compare -->
<g id="node6" class="node">
<title>/range&#45;of&#45;ranges/sequence&#45;of&#45;sequences/compare</title>
<g id="a_node6"><a xlink:href="../../flowstdlib/control/compare_switch/compare_switch.html" xlink:title="compare\n(CompareSwitch)">
<ellipse fill="coral" stroke="black" cx="567.93" cy="-185.61" rx="79.81" ry="26.74"/>
<text text-anchor="middle" x="567.93" y="-189.41" font-family="Times,serif" font-size="14.00">compare</text>
<text text-anchor="middle" x="567.93" y="-174.41" font-family="Times,serif" font-size="14.00">(CompareSwitch)</text>
</a>
</g>
</g>
<!-- /range&#45;of&#45;ranges/sequence&#45;of&#45;sequences/start&#45;&gt;/range&#45;of&#45;ranges/sequence&#45;of&#45;sequences/compare -->
<g id="edge2" class="edge">
<title>/range&#45;of&#45;ranges/sequence&#45;of&#45;sequences/start:s&#45;&gt;/range&#45;of&#45;ranges/sequence&#45;of&#45;sequences/compare:ne</title>
<path fill="none" stroke="black" d="M605.93,-251.48C605.93,-237.31 606.43,-229.3 600.54,-220.36"/>
<polygon fill="black" stroke="black" points="603.04,-217.9 593.93,-212.48 597.67,-222.39 603.04,-217.9"/>
<text text-anchor="middle" x="580.93" y="-216.28" font-family="Times,serif" font-size="14.00">right</text>
</g>
<!-- /range&#45;of&#45;ranges/sequence&#45;of&#45;sequences/end -->
<g id="node2" class="node">
<title>/range&#45;of&#45;ranges/sequence&#45;of&#45;sequences/end</title>
<polygon fill="white" stroke="black" points="555.77,-273.04 526.93,-285.48 498.09,-273.04 498.12,-252.92 555.75,-252.92 555.77,-273.04"/>
<text text-anchor="middle" x="526.93" y="-263.78" font-family="Times,serif" font-size="14.00">end</text>
</g>
<!-- /range&#45;of&#45;ranges/sequence&#45;of&#45;sequences/end&#45;&gt;/range&#45;of&#45;ranges/sequence&#45;of&#45;sequences/compare -->
<g id="edge3" class="edge">
<title>/range&#45;of&#45;ranges/sequence&#45;of&#45;sequences/end:s&#45;&gt;/range&#45;of&#45;ranges/sequence&#45;of&#45;sequences/compare:ne</title>
<path fill="none" stroke="black" d="M526.93,-251.48C526.93,-223.49 587.25,-231.32 596.8,-222.17"/>
<polygon fill="black" stroke="black" points="600.12,-221.08 593.93,-212.48 593.41,-223.06 600.12,-221.08"/>
<text text-anchor="middle" x="603.43" y="-216.28" font-family="Times,serif" font-size="14.00">left</text>
</g>
<!-- /range&#45;of&#45;ranges/sequence&#45;of&#45;sequences/step -->
<g id="node3" class="node">
<title>/range&#45;of&#45;ranges/sequence&#45;of&#45;sequences/step</title>
<polygon fill="white" stroke="black" points="478.49,-273.04 447.93,-285.48 417.38,-273.04 417.4,-252.92 478.46,-252.92 478.49,-273.04"/>
<text text-anchor="middle" x="447.93" y="-263.78" font-family="Times,serif" font-size="14.00">step</text>
</g>
<!-- /range&#45;of&#45;ranges/sequence&#45;of&#45;sequences/add -->
<g id="node7" class="node">
<title>/range&#45;of&#45;ranges/sequence&#45;of&#45;sequences/add</title>
<g id="a_node7"><a xlink:href="../../flowstdlib/math/add/add.html" xlink:title="add\n(Add)">
<ellipse fill="coral" stroke="black" cx="474.93" cy="-80.87" rx="34.8" ry="26.74"/>
<text text-anchor="middle" x="474.93" y="-84.67" font-family="Times,serif" font-size="14.00">add</text>
<text text-anchor="middle" x="474.93" y="-69.67" font-family="Times,serif" font-size="14.00">(Add)</text>
</a>
</g>
</g>
<!-- /range&#45;of&#45;ranges/sequence&#45;of&#45;sequences/step&#45;&gt;/range&#45;of&#45;ranges/sequence&#45;of&#45;sequences/add -->
<g id="edge4" class="edge">
<title>/range&#45;of&#45;ranges/sequence&#45;of&#45;sequences/step:s&#45;&gt;/range&#45;of&#45;ranges/sequence&#45;of&#45;sequences/add:w</title>
<path fill="none" stroke="black" d="M447.93,-251.48C447.93,-217.52 410.35,-107.8 429.6,-85.03"/>
<polygon fill="black" stroke="black" points="431.22,-88.14 438.93,-80.87 428.37,-81.74 431.22,-88.14"/>
<text text-anchor="middle" x="433.43" y="-84.67" font-family="Times,serif" font-size="14.00">i2</text>
</g>
<!-- /range&#45;of&#45;ranges/sequence&#45;of&#45;sequences/sequence -->
<g id="node4" class="node">
<title>/range&#45;of&#45;ranges/sequence&#45;of&#45;sequences/sequence</title>
<polygon fill="black" stroke="black" points="460.89,-12.44 513.93,0 566.98,-12.44 566.93,-32.56 460.94,-32.56 460.89,-12.44"/>
<text text-anchor="middle" x="513.93" y="-14.3" font-family="Times,serif" font-size="14.00" fill="white">sequence</text>
</g>
<!-- /range&#45;of&#45;ranges/sequence&#45;of&#45;sequences/last -->
<g id="node5" class="node">
<title>/range&#45;of&#45;ranges/sequence&#45;of&#45;sequences/last</title>
<polygon fill="black" stroke="black" points="571.69,-12.44 599.93,0 628.17,-12.44 628.14,-32.56 571.72,-32.56 571.69,-12.44"/>
<text text-anchor="middle" x="599.93" y="-14.3" font-family="Times,serif" font-size="14.00" fill="white">last</text>
</g>
<!-- /range&#45;of&#45;ranges/sequence&#45;of&#45;sequences/compare&#45;&gt;/range&#45;of&#45;ranges/sequence&#45;of&#45;sequences/sequence -->
<g id="edge6" class="edge">
<title>/range&#45;of&#45;ranges/sequence&#45;of&#45;sequences/compare:s&#45;&gt;/range&#45;of&#45;ranges/sequence&#45;of&#45;sequences/sequence:n</title>
<path fill="none" stroke="black" d="M567.93,-158.74C567.93,-145.64 527.32,-72.81 516.54,-43.85"/>
<polygon fill="black" stroke="black" points="519.87,-42.77 513.93,-34 513.1,-44.56 519.87,-42.77"/>
<text text-anchor="middle" x="563.1" y="-100.51" font-family="Times,serif" font-size="14.00">right&#45;lte</text>
</g>
<!-- /range&#45;of&#45;ranges/sequence&#45;of&#45;sequences/compare&#45;&gt;/range&#45;of&#45;ranges/sequence&#45;of&#45;sequences/last -->
<g id="edge10" class="edge">
<title>/range&#45;of&#45;ranges/sequence&#45;of&#45;sequences/compare:s&#45;&gt;/range&#45;of&#45;ranges/sequence&#45;of&#45;sequences/last:n</title>
<path fill="none" stroke="black" d="M567.93,-158.74C567.93,-105.08 596.06,-92.7 599.57,-44.2"/>
<polygon fill="black" stroke="black" points="603.08,-44.12 599.93,-34 596.08,-43.87 603.08,-44.12"/>
<text text-anchor="middle" x="560.51" y="-85" font-family="Times,serif" font-size="14.00">right&#45;gte</text>
</g>
<!-- /range&#45;of&#45;ranges/sequence&#45;of&#45;sequences/compare&#45;&gt;/range&#45;of&#45;ranges/sequence&#45;of&#45;sequences/compare -->
<g id="edge7" class="edge">
<title>/range&#45;of&#45;ranges/sequence&#45;of&#45;sequences/compare:s&#45;&gt;/range&#45;of&#45;ranges/sequence&#45;of&#45;sequences/compare:ne</title>
<path fill="none" stroke="black" d="M567.93,-158.61C600.57,-147.61 665.83,-147.61 665.83,-185.11 665.83,-218.95 633.86,-222.25 603.64,-214.49"/>
<polygon fill="black" stroke="black" points="604.51,-211.1 593.93,-211.61 602.52,-217.81 604.51,-211.1"/>
<text text-anchor="middle" x="556.56" y="-145.71" font-family="Times,serif" font-size="14.00">left&#45;gt</text>
<text text-anchor="middle" x="584.43" y="-215.41" font-family="Times,serif" font-size="14.00">left</text>
</g>
<!-- /range&#45;of&#45;ranges/sequence&#45;of&#45;sequences/compare&#45;&gt;/range&#45;of&#45;ranges/sequence&#45;of&#45;sequences/add -->
<g id="edge8" class="edge">
<title>/range&#45;of&#45;ranges/sequence&#45;of&#45;sequences/compare:sw&#45;&gt;/range&#45;of&#45;ranges/sequence&#45;of&#45;sequences/add:ne</title>
<path fill="none" stroke="black" d="M541.93,-158.74C533.93,-150.74 531.31,-149.31 523.93,-140.74 512.83,-127.85 511.06,-120.68 502.84,-110.5"/>
<polygon fill="black" stroke="black" points="505.24,-107.93 495.93,-102.87 500.05,-112.63 505.24,-107.93"/>
<text text-anchor="middle" x="497.94" y="-135.56" font-family="Times,serif" font-size="14.00">right&#45;lt</text>
<text text-anchor="middle" x="490.43" y="-106.67" font-family="Times,serif" font-size="14.00">i1</text>
</g>
<!-- /range&#45;of&#45;ranges/sequence&#45;of&#45;sequences/add&#45;&gt;/range&#45;of&#45;ranges/sequence&#45;of&#45;sequences/compare -->
<g id="edge9" class="edge">
<title>/range&#45;of&#45;ranges/sequence&#45;of&#45;sequences/add:sw&#45;&gt;/range&#45;of&#45;ranges/sequence&#45;of&#45;sequences/compare:ne</title>
<path fill="none" stroke="black" d="M453.93,-58.87C449.63,-54.57 444.42,-55.41 440.28,-59.87 425.8,-75.45 426.77,-91.31 440.28,-107.74 466.66,-139.8 491.57,-116.05 531.93,-125.74 584.01,-138.25 615.56,-116 647.83,-158.74 661.99,-177.49 664.3,-194.84 647.83,-211.61 641.34,-218.22 617.72,-220.27 603.42,-216.94"/>
<polygon fill="black" stroke="black" points="604.48,-213.58 593.93,-212.61 601.58,-219.95 604.48,-213.58"/>
<text text-anchor="middle" x="519.97" y="-114.55" font-family="Times,serif" font-size="14.00">sum</text>
<text text-anchor="middle" x="606.93" y="-216.41" font-family="Times,serif" font-size="14.00">right</text>
</g>
<!-- /range&#45;of&#45;ranges/sequence&#45;of&#45;sequences/add&#45;&gt;/range&#45;of&#45;ranges/sequence&#45;of&#45;sequences/add -->
<g id="edge5" class="edge">
<title>/range&#45;of&#45;ranges/sequence&#45;of&#45;sequences/add:e&#45;&gt;/range&#45;of&#45;ranges/sequence&#45;of&#45;sequences/add:w</title>
<path fill="none" stroke="black" d="M509.93,-80.87C527.58,-98.49 527.58,-133.74 474.93,-133.74 429.48,-133.74 423.27,-107.47 433.77,-88.95"/>
<polygon fill="black" stroke="black" points="436.65,-90.95 439.93,-80.87 431.09,-86.7 436.65,-90.95"/>
<text text-anchor="middle" x="515.44" y="-84.68" font-family="Times,serif" font-size="14.00">i2</text>
<text text-anchor="middle" x="434.43" y="-69.67" font-family="Times,serif" font-size="14.00">i2</text>
</g>
<!-- initializer/range&#45;of&#45;ranges/sequence&#45;of&#45;sequences/add_1 -->
<!-- initializer/range&#45;of&#45;ranges/sequence&#45;of&#45;sequences/add_1&#45;&gt;/range&#45;of&#45;ranges/sequence&#45;of&#45;sequences/add -->
<g id="edge1" class="edge">
<title>initializer/range&#45;of&#45;ranges/sequence&#45;of&#45;sequences/add_1&#45;&gt;/range&#45;of&#45;ranges/sequence&#45;of&#45;sequences/add:w</title>
<path fill="none" stroke="blue" stroke-dasharray="1,5" d="M231.21,-167.48C268.44,-139.22 349.03,-85.51 428.72,-81.15"/>
<polygon fill="blue" stroke="blue" points="429.03,-84.65 438.93,-80.87 428.84,-77.65 429.03,-84.65"/>
<text text-anchor="middle" x="297.43" y="-129.54" font-family="Times,serif" font-size="14.00">1</text>
</g>
</g>
</svg>
