<?xml version="1.0" encoding="UTF-8" standalone="no"?>
<!DOCTYPE svg PUBLIC "-//W3C//DTD SVG 1.1//EN"
 "http://www.w3.org/Graphics/SVG/1.1/DTD/svg11.dtd">
<!-- Generated by graphviz version 2.43.0 (0)
 -->
<!-- Title: limit_sequence Pages: 1 -->
<svg width="1263pt" height="424pt"
 viewBox="28.80 28.80 1234.34 395.54" xmlns="http://www.w3.org/2000/svg" xmlns:xlink="http://www.w3.org/1999/xlink">
<g id="page0,1_graph0" class="graph" transform="scale(1 1) rotate(0) translate(32.8 391.54)">
<title>limit_sequence</title>
<polygon fill="white" stroke="transparent" points="-4,4 -4,-362.74 1201.54,-362.74 1201.54,4 -4,4"/>
<text text-anchor="middle" x="598.77" y="-343.54" font-family="Times,serif" font-size="14.00">limit&#45;sequence</text>
<!-- /range&#45;of&#45;ranges/limit&#45;sequence/start -->
<g id="node1" class="node">
<title>/range&#45;of&#45;ranges/limit&#45;sequence/start</title>
<polygon fill="white" stroke="black" points="639.7,-323.3 598.76,-335.74 557.81,-323.3 557.85,-303.18 639.66,-303.18 639.7,-323.3"/>
<text text-anchor="middle" x="598.76" y="-314.04" font-family="Times,serif" font-size="14.00">start</text>
</g>
<!-- /range&#45;of&#45;ranges/limit&#45;sequence/compare -->
<g id="node6" class="node">
<title>/range&#45;of&#45;ranges/limit&#45;sequence/compare</title>
<g id="a_node6"><a xlink:href="../../flowstdlib/control/compare_switch/compare_switch.html" xlink:title="compare\n(compare_switch)">
<ellipse fill="coral" stroke="black" cx="620.76" cy="-167.87" rx="100.32" ry="26.74"/>
<text text-anchor="middle" x="620.76" y="-171.67" font-family="Times,serif" font-size="14.00">compare</text>
<text text-anchor="middle" x="620.76" y="-156.67" font-family="Times,serif" font-size="14.00">(compare_switch)</text>
</a>
</g>
</g>
<!-- /range&#45;of&#45;ranges/limit&#45;sequence/start&#45;&gt;/range&#45;of&#45;ranges/limit&#45;sequence/compare -->
<g id="edge4" class="edge">
<title>/range&#45;of&#45;ranges/limit&#45;sequence/start:s&#45;&gt;/range&#45;of&#45;ranges/limit&#45;sequence/compare:ne</title>
<path fill="none" stroke="black" d="M598.76,-301.74C598.76,-279.14 648.71,-229.13 649.96,-204.23"/>
<polygon fill="black" stroke="black" points="653.28,-203.09 646.76,-194.74 646.64,-205.33 653.28,-203.09"/>
<text text-anchor="middle" x="628.76" y="-198.54" font-family="Times,serif" font-size="14.00">right</text>
</g>
<!-- /range&#45;of&#45;ranges/limit&#45;sequence/end -->
<g id="node2" class="node">
<title>/range&#45;of&#45;ranges/limit&#45;sequence/end</title>
<polygon fill="white" stroke="black" points="727.35,-323.3 692.76,-335.74 658.17,-323.3 658.2,-303.18 727.32,-303.18 727.35,-323.3"/>
<text text-anchor="middle" x="692.76" y="-314.04" font-family="Times,serif" font-size="14.00">end</text>
</g>
<!-- /range&#45;of&#45;ranges/limit&#45;sequence/end&#45;&gt;/range&#45;of&#45;ranges/limit&#45;sequence/compare -->
<g id="edge5" class="edge">
<title>/range&#45;of&#45;ranges/limit&#45;sequence/end:s&#45;&gt;/range&#45;of&#45;ranges/limit&#45;sequence/compare:ne</title>
<path fill="none" stroke="black" d="M692.76,-301.74C692.76,-296.43 660.12,-217.5 657.76,-212.74 655.67,-208.54 654.58,-205.7 653.18,-203.08"/>
<polygon fill="black" stroke="black" points="655.63,-200.53 646.76,-194.74 650.09,-204.8 655.63,-200.53"/>
<text text-anchor="middle" x="659.26" y="-198.54" font-family="Times,serif" font-size="14.00">left</text>
</g>
<!-- /range&#45;of&#45;ranges/limit&#45;sequence/step -->
<g id="node3" class="node">
<title>/range&#45;of&#45;ranges/limit&#45;sequence/step</title>
<polygon fill="white" stroke="black" points="75.28,-323.3 37.76,-335.74 0.24,-323.3 0.27,-303.18 75.24,-303.18 75.28,-323.3"/>
<text text-anchor="middle" x="37.76" y="-314.04" font-family="Times,serif" font-size="14.00">step</text>
</g>
<!-- /range&#45;of&#45;ranges/limit&#45;sequence/add -->
<g id="node9" class="node">
<title>/range&#45;of&#45;ranges/limit&#45;sequence/add</title>
<g id="a_node9"><a xlink:href="../../flowstdlib/math/add/add.html" xlink:title="add">
<ellipse fill="coral" stroke="black" cx="387.76" cy="-72" rx="27.9" ry="18"/>
<text text-anchor="middle" x="387.76" y="-68.3" font-family="Times,serif" font-size="14.00">add</text>
</a>
</g>
</g>
<!-- /range&#45;of&#45;ranges/limit&#45;sequence/step&#45;&gt;/range&#45;of&#45;ranges/limit&#45;sequence/add -->
<g id="edge6" class="edge">
<title>/range&#45;of&#45;ranges/limit&#45;sequence/step:s&#45;&gt;/range&#45;of&#45;ranges/limit&#45;sequence/add:w</title>
<path fill="none" stroke="black" d="M37.76,-301.74C37.76,-230.03 4.57,-194.99 51.76,-141 95.71,-90.72 271.96,-73.54 348.63,-72.1"/>
<polygon fill="black" stroke="black" points="348.79,-75.6 358.76,-72 348.72,-68.6 348.79,-75.6"/>
<text text-anchor="middle" x="351.76" y="-75.8" font-family="Times,serif" font-size="14.00">i2</text>
</g>
<!-- /range&#45;of&#45;ranges/limit&#45;sequence/sequence -->
<g id="node4" class="node">
<title>/range&#45;of&#45;ranges/limit&#45;sequence/sequence</title>
<polygon fill="black" stroke="black" points="476.9,-12.44 543.76,0 610.62,-12.44 610.56,-32.56 476.96,-32.56 476.9,-12.44"/>
<text text-anchor="middle" x="543.76" y="-14.3" font-family="Times,serif" font-size="14.00" fill="white">sequence</text>
</g>
<!-- /range&#45;of&#45;ranges/limit&#45;sequence/last -->
<g id="node5" class="node">
<title>/range&#45;of&#45;ranges/limit&#45;sequence/last</title>
<polygon fill="black" stroke="black" points="628.17,-12.44 662.76,0 697.35,-12.44 697.32,-32.56 628.2,-32.56 628.17,-12.44"/>
<text text-anchor="middle" x="662.76" y="-14.3" font-family="Times,serif" font-size="14.00" fill="white">last</text>
</g>
<!-- /range&#45;of&#45;ranges/limit&#45;sequence/compare&#45;&gt;/range&#45;of&#45;ranges/limit&#45;sequence/sequence -->
<g id="edge8" class="edge">
<title>/range&#45;of&#45;ranges/limit&#45;sequence/compare:s&#45;&gt;/range&#45;of&#45;ranges/limit&#45;sequence/sequence:n</title>
<path fill="none" stroke="black" d="M620.76,-141C620.76,-86.07 553.08,-91.59 544.62,-44.21"/>
<polygon fill="black" stroke="black" points="548.09,-43.67 543.76,-34 541.11,-44.26 548.09,-43.67"/>
<text text-anchor="middle" x="552.56" y="-91.18" font-family="Times,serif" font-size="14.00">right&#45;lte</text>
</g>
<!-- /range&#45;of&#45;ranges/limit&#45;sequence/compare&#45;&gt;/range&#45;of&#45;ranges/limit&#45;sequence/last -->
<g id="edge12" class="edge">
<title>/range&#45;of&#45;ranges/limit&#45;sequence/compare:s&#45;&gt;/range&#45;of&#45;ranges/limit&#45;sequence/last:n</title>
<path fill="none" stroke="black" d="M620.76,-141C620.76,-135.69 649.83,-69.56 659.6,-43.82"/>
<polygon fill="black" stroke="black" points="663.03,-44.59 662.76,-34 656.37,-42.45 663.03,-44.59"/>
<text text-anchor="middle" x="673.79" y="-91.22" font-family="Times,serif" font-size="14.00">right&#45;gte</text>
</g>
<!-- /range&#45;of&#45;ranges/limit&#45;sequence/compare&#45;&gt;/range&#45;of&#45;ranges/limit&#45;sequence/compare -->
<g id="edge9" class="edge">
<title>/range&#45;of&#45;ranges/limit&#45;sequence/compare:s&#45;&gt;/range&#45;of&#45;ranges/limit&#45;sequence/compare:ne</title>
<path fill="none" stroke="black" d="M620.76,-140.87C660.23,-127.87 739.17,-127.87 739.17,-167.37 739.17,-203.63 694.56,-206.6 656.71,-196.79"/>
<polygon fill="black" stroke="black" points="657.34,-193.33 646.76,-193.87 655.37,-200.05 657.34,-193.33"/>
<text text-anchor="middle" x="604.06" y="-128.07" font-family="Times,serif" font-size="14.00">left&#45;gt</text>
<text text-anchor="middle" x="634.26" y="-197.67" font-family="Times,serif" font-size="14.00">left</text>
</g>
<!-- /range&#45;of&#45;ranges/limit&#45;sequence/compare&#45;&gt;/range&#45;of&#45;ranges/limit&#45;sequence/add -->
<g id="edge10" class="edge">
<title>/range&#45;of&#45;ranges/limit&#45;sequence/compare:sw&#45;&gt;/range&#45;of&#45;ranges/limit&#45;sequence/add:ne</title>
<path fill="none" stroke="black" d="M594.76,-141C593.07,-139.31 452.14,-102.91 413.46,-92"/>
<polygon fill="black" stroke="black" points="414.35,-88.61 403.76,-89 412.28,-95.3 414.35,-88.61"/>
<text text-anchor="middle" x="473.86" y="-118.83" font-family="Times,serif" font-size="14.00">right&#45;lt</text>
<text text-anchor="middle" x="410.76" y="-92.8" font-family="Times,serif" font-size="14.00">i1</text>
</g>
<!-- initializer/range&#45;of&#45;ranges/limit&#45;sequence/compare_0 -->
<!-- initializer/range&#45;of&#45;ranges/limit&#45;sequence/compare_0&#45;&gt;/range&#45;of&#45;ranges/limit&#45;sequence/compare -->
<g id="edge1" class="edge">
<title>initializer/range&#45;of&#45;ranges/limit&#45;sequence/compare_0&#45;&gt;/range&#45;of&#45;ranges/limit&#45;sequence/compare:ne</title>
<path fill="none" stroke="blue" stroke-dasharray="1,5" d="M851.92,-246.88C779.99,-233.61 686.63,-214.59 655.62,-200.2"/>
<polygon fill="blue" stroke="blue" points="657.11,-197.01 646.76,-194.74 653.43,-202.97 657.11,-197.01"/>
<text text-anchor="middle" x="757.76" y="-216.54" font-family="Times,serif" font-size="14.00">9</text>
</g>
<!-- initializer/range&#45;of&#45;ranges/limit&#45;sequence/compare_1 -->
<!-- initializer/range&#45;of&#45;ranges/limit&#45;sequence/compare_1&#45;&gt;/range&#45;of&#45;ranges/limit&#45;sequence/compare -->
<g id="edge2" class="edge">
<title>initializer/range&#45;of&#45;ranges/limit&#45;sequence/compare_1&#45;&gt;/range&#45;of&#45;ranges/limit&#45;sequence/compare:ne</title>
<path fill="none" stroke="blue" stroke-dasharray="1,5" d="M427.57,-246.55C501.54,-230.97 606.06,-208.4 637.53,-198.84"/>
<polygon fill="blue" stroke="blue" points="639.04,-202 646.76,-194.74 636.2,-195.6 639.04,-202"/>
<text text-anchor="middle" x="581.76" y="-216.54" font-family="Times,serif" font-size="14.00">1</text>
</g>
<!-- /range&#45;of&#45;ranges/limit&#45;sequence/add&#45;&gt;/range&#45;of&#45;ranges/limit&#45;sequence/compare -->
<g id="edge11" class="edge">
<title>/range&#45;of&#45;ranges/limit&#45;sequence/add:e&#45;&gt;/range&#45;of&#45;ranges/limit&#45;sequence/compare:ne</title>
<path fill="none" stroke="black" d="M416.76,-72C421.09,-72 718.46,-137.61 721.17,-141 735.83,-159.36 737.67,-177.14 721.17,-193.87 711.5,-203.66 674.5,-205.95 655.61,-199.7"/>
<polygon fill="black" stroke="black" points="657.21,-196.59 646.76,-194.87 653.86,-202.73 657.21,-196.59"/>
<text text-anchor="middle" x="664.76" y="-198.67" font-family="Times,serif" font-size="14.00">right</text>
</g>
<!-- /range&#45;of&#45;ranges/limit&#45;sequence/add&#45;&gt;/range&#45;of&#45;ranges/limit&#45;sequence/add -->
<g id="edge7" class="edge">
<title>/range&#45;of&#45;ranges/limit&#45;sequence/add:e&#45;&gt;/range&#45;of&#45;ranges/limit&#45;sequence/add:w</title>
<path fill="none" stroke="black" d="M415.76,-72C433.71,-85 433.71,-111 387.76,-111 349.35,-111 343.05,-92.83 352.5,-79.28"/>
<polygon fill="black" stroke="black" points="355.17,-81.55 359.76,-72 350.22,-76.61 355.17,-81.55"/>
<text text-anchor="middle" x="422.77" y="-75.8" font-family="Times,serif" font-size="14.00">i2</text>
<text text-anchor="middle" x="352.76" y="-60.8" font-family="Times,serif" font-size="14.00">i2</text>
</g>
<!-- initializer/range&#45;of&#45;ranges/limit&#45;sequence/add_1 -->
<!-- initializer/range&#45;of&#45;ranges/limit&#45;sequence/add_1&#45;&gt;/range&#45;of&#45;ranges/limit&#45;sequence/add -->
<g id="edge3" class="edge">
<title>initializer/range&#45;of&#45;ranges/limit&#45;sequence/add_1&#45;&gt;/range&#45;of&#45;ranges/limit&#45;sequence/add:w</title>
<path fill="none" stroke="blue" stroke-dasharray="1,5" d="M288.76,-149.47C297,-124.54 315.88,-80.82 348.65,-73.16"/>
<polygon fill="blue" stroke="blue" points="349.22,-76.62 358.76,-72 348.42,-69.66 349.22,-76.62"/>
<text text-anchor="middle" x="312.76" y="-111.8" font-family="Times,serif" font-size="14.00">1</text>
</g>
</g>
</svg>
