<?xml version="1.0" encoding="UTF-8" standalone="no"?>
<!DOCTYPE svg PUBLIC "-//W3C//DTD SVG 1.1//EN"
 "http://www.w3.org/Graphics/SVG/1.1/DTD/svg11.dtd">
<!-- Generated by graphviz version 2.40.1 (20161225.0304)
 -->
<!-- Title: sequence_of_sequences Pages: 1 -->
<svg width="1405pt" height="424pt"
 viewBox="28.80 28.80 1376.25 395.54" xmlns="http://www.w3.org/2000/svg" xmlns:xlink="http://www.w3.org/1999/xlink">
<g id="graph0" class="graph" transform="scale(1 1) rotate(0) translate(32.8 391.5401)">
<title>sequence_of_sequences</title>
<polygon fill="#ffffff" stroke="transparent" points="-4,4 -4,-362.7401 1343.4498,-362.7401 1343.4498,4 -4,4"/>
<text text-anchor="middle" x="669.7249" y="-343.5401" font-family="Times,serif" font-size="14.00" fill="#000000">sequence&#45;of&#45;sequences</text>
<!-- /range&#45;of&#45;ranges/sequence&#45;of&#45;sequences/start -->
<g id="node1" class="node">
<title>/range&#45;of&#45;ranges/sequence&#45;of&#45;sequences/start</title>
<polygon fill="#ffffff" stroke="#000000" points="694.97,-323.3024 654.026,-335.7401 613.0819,-323.3024 613.1201,-303.1778 694.9318,-303.1778 694.97,-323.3024"/>
<text text-anchor="middle" x="654.026" y="-314.0401" font-family="Times,serif" font-size="14.00" fill="#000000">start</text>
</g>
<!-- /range&#45;of&#45;ranges/sequence&#45;of&#45;sequences/compare -->
<g id="node6" class="node">
<title>/range&#45;of&#45;ranges/sequence&#45;of&#45;sequences/compare</title>
<g id="a_node6"><a xlink:href="../../flowstdlib/control/compare_switch/compare_switch.html" xlink:title="compare\n(compare_switch)">
<ellipse fill="#ff7f50" stroke="#000000" cx="699.026" cy="-167.8701" rx="101.6471" ry="26.7407"/>
<text text-anchor="middle" x="699.026" y="-171.6701" font-family="Times,serif" font-size="14.00" fill="#000000">compare</text>
<text text-anchor="middle" x="699.026" y="-156.6701" font-family="Times,serif" font-size="14.00" fill="#000000">(compare_switch)</text>
</a>
</g>
</g>
<!-- /range&#45;of&#45;ranges/sequence&#45;of&#45;sequences/start&#45;&gt;/range&#45;of&#45;ranges/sequence&#45;of&#45;sequences/compare -->
<g id="edge3" class="edge">
<title>/range&#45;of&#45;ranges/sequence&#45;of&#45;sequences/start:s&#45;&gt;/range&#45;of&#45;ranges/sequence&#45;of&#45;sequences/compare:ne</title>
<path fill="none" stroke="#000000" d="M654.026,-302.7401C654.026,-290.6113 711.3077,-229.2678 723.6066,-203.8805"/>
<polygon fill="#000000" stroke="#000000" points="727.0873,-204.2624 725.026,-193.8701 720.1567,-203.2796 727.0873,-204.2624"/>
<text text-anchor="middle" x="707.026" y="-197.6701" font-family="Times,serif" font-size="14.00" fill="#000000">right</text>
</g>
<!-- /range&#45;of&#45;ranges/sequence&#45;of&#45;sequences/end -->
<g id="node2" class="node">
<title>/range&#45;of&#45;ranges/sequence&#45;of&#45;sequences/end</title>
<polygon fill="#ffffff" stroke="#000000" points="782.6161,-323.3024 748.026,-335.7401 713.4358,-323.3024 713.4681,-303.1778 782.5838,-303.1778 782.6161,-323.3024"/>
<text text-anchor="middle" x="748.026" y="-314.0401" font-family="Times,serif" font-size="14.00" fill="#000000">end</text>
</g>
<!-- /range&#45;of&#45;ranges/sequence&#45;of&#45;sequences/end&#45;&gt;/range&#45;of&#45;ranges/sequence&#45;of&#45;sequences/compare -->
<g id="edge4" class="edge">
<title>/range&#45;of&#45;ranges/sequence&#45;of&#45;sequences/end:s&#45;&gt;/range&#45;of&#45;ranges/sequence&#45;of&#45;sequences/compare:ne</title>
<path fill="none" stroke="#000000" d="M748.026,-302.7401C748.026,-256.9559 758.2849,-232.6062 732.0606,-201.4969"/>
<polygon fill="#000000" stroke="#000000" points="734.3787,-198.8478 725.026,-193.8701 729.2332,-203.5938 734.3787,-198.8478"/>
<text text-anchor="middle" x="737.526" y="-197.6701" font-family="Times,serif" font-size="14.00" fill="#000000">left</text>
</g>
<!-- /range&#45;of&#45;ranges/sequence&#45;of&#45;sequences/step -->
<g id="node3" class="node">
<title>/range&#45;of&#45;ranges/sequence&#45;of&#45;sequences/step</title>
<polygon fill="#ffffff" stroke="#000000" points="594.5445,-323.3024 557.026,-335.7401 519.5074,-323.3024 519.5424,-303.1778 594.5095,-303.1778 594.5445,-323.3024"/>
<text text-anchor="middle" x="557.026" y="-314.0401" font-family="Times,serif" font-size="14.00" fill="#000000">step</text>
</g>
<!-- /range&#45;of&#45;ranges/sequence&#45;of&#45;sequences/add -->
<g id="node8" class="node">
<title>/range&#45;of&#45;ranges/sequence&#45;of&#45;sequences/add</title>
<g id="a_node8"><a xlink:href="../../flowstdlib/math/add/add.html" xlink:title="add">
<ellipse fill="#ff7f50" stroke="#000000" cx="585.026" cy="-72" rx="27.8951" ry="18"/>
<text text-anchor="middle" x="585.026" y="-68.3" font-family="Times,serif" font-size="14.00" fill="#000000">add</text>
</a>
</g>
</g>
<!-- /range&#45;of&#45;ranges/sequence&#45;of&#45;sequences/step&#45;&gt;/range&#45;of&#45;ranges/sequence&#45;of&#45;sequences/add -->
<g id="edge5" class="edge">
<title>/range&#45;of&#45;ranges/sequence&#45;of&#45;sequences/step:s&#45;&gt;/range&#45;of&#45;ranges/sequence&#45;of&#45;sequences/add:w</title>
<path fill="none" stroke="#000000" d="M557.026,-302.7401C557.026,-280.0066 536.8677,-116.1655 550.1753,-79.337"/>
<polygon fill="#000000" stroke="#000000" points="552.7595,-81.6978 557.026,-72 547.643,-76.9205 552.7595,-81.6978"/>
<text text-anchor="middle" x="550.026" y="-75.8" font-family="Times,serif" font-size="14.00" fill="#000000">i2</text>
</g>
<!-- /range&#45;of&#45;ranges/sequence&#45;of&#45;sequences/sequence -->
<g id="node4" class="node">
<title>/range&#45;of&#45;ranges/sequence&#45;of&#45;sequences/sequence</title>
<polygon fill="#000000" stroke="#000000" points="541.5593,-12.4377 609.026,0 676.4926,-12.4377 676.4296,-32.5623 541.6223,-32.5623 541.5593,-12.4377"/>
<text text-anchor="middle" x="609.026" y="-14.3" font-family="Times,serif" font-size="14.00" fill="#ffffff">sequence</text>
</g>
<!-- /range&#45;of&#45;ranges/sequence&#45;of&#45;sequences/last -->
<g id="node5" class="node">
<title>/range&#45;of&#45;ranges/sequence&#45;of&#45;sequences/last</title>
<polygon fill="#000000" stroke="#000000" points="694.4358,-12.4377 729.026,0 763.6161,-12.4377 763.5838,-32.5623 694.4681,-32.5623 694.4358,-12.4377"/>
<text text-anchor="middle" x="729.026" y="-14.3" font-family="Times,serif" font-size="14.00" fill="#ffffff">last</text>
</g>
<!-- /range&#45;of&#45;ranges/sequence&#45;of&#45;sequences/compare&#45;&gt;/range&#45;of&#45;ranges/sequence&#45;of&#45;sequences/sequence -->
<g id="edge7" class="edge">
<title>/range&#45;of&#45;ranges/sequence&#45;of&#45;sequences/compare:s&#45;&gt;/range&#45;of&#45;ranges/sequence&#45;of&#45;sequences/sequence:n</title>
<path fill="none" stroke="#000000" d="M699.026,-141C699.026,-127.4541 631.3447,-67.9312 613.3668,-42.1726"/>
<polygon fill="#000000" stroke="#000000" points="616.4672,-40.5417 609.026,-33 610.14,-43.5361 616.4672,-40.5417"/>
<text text-anchor="middle" x="683.5733" y="-90.8486" font-family="Times,serif" font-size="14.00" fill="#000000">right&#45;lte</text>
</g>
<!-- /range&#45;of&#45;ranges/sequence&#45;of&#45;sequences/compare&#45;&gt;/range&#45;of&#45;ranges/sequence&#45;of&#45;sequences/last -->
<g id="edge11" class="edge">
<title>/range&#45;of&#45;ranges/sequence&#45;of&#45;sequences/compare:s&#45;&gt;/range&#45;of&#45;ranges/sequence&#45;of&#45;sequences/last:n</title>
<path fill="none" stroke="#000000" d="M699.026,-141C699.026,-94.7826 724.8467,-84.2429 728.5786,-43.1821"/>
<polygon fill="#000000" stroke="#000000" points="732.0835,-43.144 729.026,-33 725.0903,-42.8367 732.0835,-43.144"/>
<text text-anchor="middle" x="682.0308" y="-75.7907" font-family="Times,serif" font-size="14.00" fill="#000000">right&#45;gte</text>
</g>
<!-- /range&#45;of&#45;ranges/sequence&#45;of&#45;sequences/compare&#45;&gt;/range&#45;of&#45;ranges/sequence&#45;of&#45;sequences/compare -->
<g id="edge8" class="edge">
<title>/range&#45;of&#45;ranges/sequence&#45;of&#45;sequences/compare:s&#45;&gt;/range&#45;of&#45;ranges/sequence&#45;of&#45;sequences/compare:ne</title>
<path fill="none" stroke="#000000" d="M699.026,-140.8701C738.9671,-127.8701 818.8493,-127.8701 818.8493,-167.3701 818.8493,-203.6298 773.4446,-206.6043 735.0992,-196.7922"/>
<polygon fill="#000000" stroke="#000000" points="735.6052,-193.2947 725.026,-193.8701 733.6549,-200.0176 735.6052,-193.2947"/>
<text text-anchor="middle" x="682.3863" y="-128.0684" font-family="Times,serif" font-size="14.00" fill="#000000">left&#45;gt</text>
<text text-anchor="middle" x="712.526" y="-182.6701" font-family="Times,serif" font-size="14.00" fill="#000000">left</text>
</g>
<!-- /range&#45;of&#45;ranges/sequence&#45;of&#45;sequences/compare&#45;&gt;/range&#45;of&#45;ranges/sequence&#45;of&#45;sequences/add -->
<g id="edge9" class="edge">
<title>/range&#45;of&#45;ranges/sequence&#45;of&#45;sequences/compare:sw&#45;&gt;/range&#45;of&#45;ranges/sequence&#45;of&#45;sequences/add:ne</title>
<path fill="none" stroke="#000000" d="M673.026,-141.8701C656.8172,-125.6613 642.9626,-137.2731 625.026,-123 613.3803,-113.733 613.474,-105.6027 607.4794,-96.0328"/>
<polygon fill="#000000" stroke="#000000" points="610.0176,-93.6037 601.026,-88 604.5605,-97.9879 610.0176,-93.6037"/>
<text text-anchor="middle" x="599.4919" y="-126.7729" font-family="Times,serif" font-size="14.00" fill="#000000">right&#45;lt</text>
<text text-anchor="middle" x="608.026" y="-91.8" font-family="Times,serif" font-size="14.00" fill="#000000">i1</text>
</g>
<!-- initializer/range&#45;of&#45;ranges/sequence&#45;of&#45;sequences/compare_1 -->
<!-- initializer/range&#45;of&#45;ranges/sequence&#45;of&#45;sequences/compare_1&#45;&gt;/range&#45;of&#45;ranges/sequence&#45;of&#45;sequences/compare -->
<g id="edge1" class="edge">
<title>initializer/range&#45;of&#45;ranges/sequence&#45;of&#45;sequences/compare_1&#45;&gt;/range&#45;of&#45;ranges/sequence&#45;of&#45;sequences/compare:ne</title>
<path fill="none" stroke="#0000ff" stroke-dasharray="1,5" d="M903.0326,-247.9109C836.1156,-237.8156 764.1798,-222.399 732.772,-200.2858"/>
<polygon fill="#0000ff" stroke="#0000ff" points="734.9599,-197.5534 725.026,-193.8701 730.4948,-202.9444 734.9599,-197.5534"/>
<text text-anchor="middle" x="806.026" y="-216.5401" font-family="Times,serif" font-size="14.00" fill="#000000">0</text>
</g>
<!-- /range&#45;of&#45;ranges/sequence&#45;of&#45;sequences/add&#45;&gt;/range&#45;of&#45;ranges/sequence&#45;of&#45;sequences/compare -->
<g id="edge10" class="edge">
<title>/range&#45;of&#45;ranges/sequence&#45;of&#45;sequences/add:sw&#45;&gt;/range&#45;of&#45;ranges/sequence&#45;of&#45;sequences/compare:ne</title>
<path fill="none" stroke="#000000" d="M569.026,-56C569.026,-56 557.0784,-90 557.0784,-90 565.8029,-100.7387 792.1248,-130.2613 800.8493,-141 800.8493,-141 753.1716,-174.2447 733.4301,-188.01"/>
<polygon fill="#000000" stroke="#000000" points="731.2269,-185.2794 725.026,-193.8701 735.2306,-191.0214 731.2269,-185.2794"/>
<text text-anchor="middle" x="634.1113" y="-99.2503" font-family="Times,serif" font-size="14.00" fill="#000000">sum</text>
<text text-anchor="middle" x="743.026" y="-182.6701" font-family="Times,serif" font-size="14.00" fill="#000000">right</text>
</g>
<!-- /range&#45;of&#45;ranges/sequence&#45;of&#45;sequences/add&#45;&gt;/range&#45;of&#45;ranges/sequence&#45;of&#45;sequences/add -->
<g id="edge6" class="edge">
<title>/range&#45;of&#45;ranges/sequence&#45;of&#45;sequences/add:e&#45;&gt;/range&#45;of&#45;ranges/sequence&#45;of&#45;sequences/add:w</title>
<path fill="none" stroke="#000000" d="M613.026,-72C630.9735,-85 630.9735,-111 585.026,-111 546.6167,-111 540.3152,-92.8314 549.7653,-79.276"/>
<polygon fill="#000000" stroke="#000000" points="552.4398,-81.5508 557.026,-72 547.4848,-76.6063 552.4398,-81.5508"/>
<text text-anchor="middle" x="620.0325" y="-75.8048" font-family="Times,serif" font-size="14.00" fill="#000000">i2</text>
<text text-anchor="middle" x="550.026" y="-60.8" font-family="Times,serif" font-size="14.00" fill="#000000">i2</text>
</g>
<!-- initializer/range&#45;of&#45;ranges/sequence&#45;of&#45;sequences/add_1 -->
<!-- initializer/range&#45;of&#45;ranges/sequence&#45;of&#45;sequences/add_1&#45;&gt;/range&#45;of&#45;ranges/sequence&#45;of&#45;sequences/add -->
<g id="edge2" class="edge">
<title>initializer/range&#45;of&#45;ranges/sequence&#45;of&#45;sequences/add_1&#45;&gt;/range&#45;of&#45;ranges/sequence&#45;of&#45;sequences/add:w</title>
<path fill="none" stroke="#0000ff" stroke-dasharray="1,5" d="M302.4642,-149.8376C352.1195,-123.0427 452.7442,-75.4927 546.7762,-72.1825"/>
<polygon fill="#0000ff" stroke="#0000ff" points="547.0899,-75.6776 557.026,-72 546.9652,-68.6787 547.0899,-75.6776"/>
<text text-anchor="middle" x="397.026" y="-111.8" font-family="Times,serif" font-size="14.00" fill="#000000">1</text>
</g>
</g>
</svg>
