<?xml version="1.0" encoding="UTF-8" standalone="no"?>
<!DOCTYPE svg PUBLIC "-//W3C//DTD SVG 1.1//EN"
 "http://www.w3.org/Graphics/SVG/1.1/DTD/svg11.dtd">
<!-- Generated by graphviz version 2.40.1 (0)
 -->
<!-- Title: sequence_of_sequences Pages: 1 -->
<svg width="893pt" height="374pt"
 viewBox="28.80 28.80 864.50 345.28" xmlns="http://www.w3.org/2000/svg" xmlns:xlink="http://www.w3.org/1999/xlink">
<g id="graph0" class="graph" transform="scale(1 1) rotate(0) translate(32.8 341.2802)">
<title>sequence_of_sequences</title>
<polygon fill="#ffffff" stroke="transparent" points="-4,4 -4,-312.4802 831.6981,-312.4802 831.6981,4 -4,4"/>
<text text-anchor="middle" x="413.849" y="-293.2802" font-family="Times,serif" font-size="14.00" fill="#000000">sequence&#45;of&#45;sequences</text>
<!-- /range&#45;of&#45;ranges/sequence&#45;of&#45;sequences/start -->
<g id="node1" class="node">
<title>/range&#45;of&#45;ranges/sequence&#45;of&#45;sequences/start</title>
<polygon fill="#ffffff" stroke="#000000" points="827.6701,-273.0425 786.7261,-285.4802 745.782,-273.0425 745.8202,-252.9179 827.6319,-252.9179 827.6701,-273.0425"/>
<text text-anchor="middle" x="786.7261" y="-263.7802" font-family="Times,serif" font-size="14.00" fill="#000000">start</text>
</g>
<!-- /range&#45;of&#45;ranges/sequence&#45;of&#45;sequences/compare -->
<g id="node6" class="node">
<title>/range&#45;of&#45;ranges/sequence&#45;of&#45;sequences/compare</title>
<g id="a_node6"><a xlink:href="../../flowstdlib/control/compare_switch/compare_switch.toml" xlink:title="compare\n(CompareSwitch)">
<ellipse fill="#ff7f50" stroke="#000000" cx="698.7261" cy="-185.6102" rx="98.9899" ry="26.7407"/>
<text text-anchor="middle" x="698.7261" y="-189.4102" font-family="Times,serif" font-size="14.00" fill="#000000">compare</text>
<text text-anchor="middle" x="698.7261" y="-174.4102" font-family="Times,serif" font-size="14.00" fill="#000000">(CompareSwitch)</text>
</a>
</g>
</g>
<!-- /range&#45;of&#45;ranges/sequence&#45;of&#45;sequences/start&#45;&gt;/range&#45;of&#45;ranges/sequence&#45;of&#45;sequences/compare -->
<g id="edge2" class="edge">
<title>/range&#45;of&#45;ranges/sequence&#45;of&#45;sequences/start:s&#45;&gt;/range&#45;of&#45;ranges/sequence&#45;of&#45;sequences/compare:ne</title>
<path fill="none" stroke="#000000" d="M786.7261,-252.4802C786.7261,-223.0861 756.0583,-232.143 732.863,-217.9891"/>
<polygon fill="#000000" stroke="#000000" points="734.7554,-215.0254 724.7261,-211.6102 730.4366,-220.5343 734.7554,-215.0254"/>
<text text-anchor="middle" x="706.7261" y="-215.4102" font-family="Times,serif" font-size="14.00" fill="#000000">right</text>
</g>
<!-- /range&#45;of&#45;ranges/sequence&#45;of&#45;sequences/end -->
<g id="node2" class="node">
<title>/range&#45;of&#45;ranges/sequence&#45;of&#45;sequences/end</title>
<polygon fill="#ffffff" stroke="#000000" points="727.3162,-273.0425 692.7261,-285.4802 658.1359,-273.0425 658.1682,-252.9179 727.2839,-252.9179 727.3162,-273.0425"/>
<text text-anchor="middle" x="692.7261" y="-263.7802" font-family="Times,serif" font-size="14.00" fill="#000000">end</text>
</g>
<!-- /range&#45;of&#45;ranges/sequence&#45;of&#45;sequences/end&#45;&gt;/range&#45;of&#45;ranges/sequence&#45;of&#45;sequences/compare -->
<g id="edge3" class="edge">
<title>/range&#45;of&#45;ranges/sequence&#45;of&#45;sequences/end:s&#45;&gt;/range&#45;of&#45;ranges/sequence&#45;of&#45;sequences/compare:ne</title>
<path fill="none" stroke="#000000" d="M692.7261,-252.4802C692.7261,-235.1778 719.9021,-230.0156 726.6081,-221.6339"/>
<polygon fill="#000000" stroke="#000000" points="730.0113,-220.7926 724.7261,-211.6102 723.1315,-222.0843 730.0113,-220.7926"/>
<text text-anchor="middle" x="737.2261" y="-215.4102" font-family="Times,serif" font-size="14.00" fill="#000000">left</text>
</g>
<!-- /range&#45;of&#45;ranges/sequence&#45;of&#45;sequences/step -->
<g id="node3" class="node">
<title>/range&#45;of&#45;ranges/sequence&#45;of&#45;sequences/step</title>
<polygon fill="#ffffff" stroke="#000000" points="605.2447,-273.0425 567.7261,-285.4802 530.2075,-273.0425 530.2425,-252.9179 605.2096,-252.9179 605.2447,-273.0425"/>
<text text-anchor="middle" x="567.7261" y="-263.7802" font-family="Times,serif" font-size="14.00" fill="#000000">step</text>
</g>
<!-- /range&#45;of&#45;ranges/sequence&#45;of&#45;sequences/add -->
<g id="node7" class="node">
<title>/range&#45;of&#45;ranges/sequence&#45;of&#45;sequences/add</title>
<g id="a_node7"><a xlink:href="../../flowstdlib/math/add/add.toml" xlink:title="add\n(Add)">
<ellipse fill="#ff7f50" stroke="#000000" cx="598.7261" cy="-80.8701" rx="38.7821" ry="26.7407"/>
<text text-anchor="middle" x="598.7261" y="-84.6701" font-family="Times,serif" font-size="14.00" fill="#000000">add</text>
<text text-anchor="middle" x="598.7261" y="-69.6701" font-family="Times,serif" font-size="14.00" fill="#000000">(Add)</text>
</a>
</g>
</g>
<!-- /range&#45;of&#45;ranges/sequence&#45;of&#45;sequences/step&#45;&gt;/range&#45;of&#45;ranges/sequence&#45;of&#45;sequences/add -->
<g id="edge4" class="edge">
<title>/range&#45;of&#45;ranges/sequence&#45;of&#45;sequences/step:s&#45;&gt;/range&#45;of&#45;ranges/sequence&#45;of&#45;sequences/add:w</title>
<path fill="none" stroke="#000000" d="M567.7261,-252.4802C567.7261,-218.3297 530.7759,-107.9565 550.3085,-85.0546"/>
<polygon fill="#000000" stroke="#000000" points="552.0087,-88.1291 559.7261,-80.8701 549.1664,-81.7321 552.0087,-88.1291"/>
<text text-anchor="middle" x="552.7261" y="-84.6701" font-family="Times,serif" font-size="14.00" fill="#000000">i2</text>
</g>
<!-- /range&#45;of&#45;ranges/sequence&#45;of&#45;sequences/sequence -->
<g id="node4" class="node">
<title>/range&#45;of&#45;ranges/sequence&#45;of&#45;sequences/sequence</title>
<polygon fill="#000000" stroke="#000000" points="564.8657,-12.4377 631.7261,0 698.5865,-12.4377 698.524,-32.5623 564.9281,-32.5623 564.8657,-12.4377"/>
<text text-anchor="middle" x="631.7261" y="-14.3" font-family="Times,serif" font-size="14.00" fill="#ffffff">sequence</text>
</g>
<!-- /range&#45;of&#45;ranges/sequence&#45;of&#45;sequences/last -->
<g id="node5" class="node">
<title>/range&#45;of&#45;ranges/sequence&#45;of&#45;sequences/last</title>
<polygon fill="#000000" stroke="#000000" points="703.1359,-12.4377 737.7261,0 772.3162,-12.4377 772.2839,-32.5623 703.1682,-32.5623 703.1359,-12.4377"/>
<text text-anchor="middle" x="737.7261" y="-14.3" font-family="Times,serif" font-size="14.00" fill="#ffffff">last</text>
</g>
<!-- /range&#45;of&#45;ranges/sequence&#45;of&#45;sequences/compare&#45;&gt;/range&#45;of&#45;ranges/sequence&#45;of&#45;sequences/sequence -->
<g id="edge6" class="edge">
<title>/range&#45;of&#45;ranges/sequence&#45;of&#45;sequences/compare:s&#45;&gt;/range&#45;of&#45;ranges/sequence&#45;of&#45;sequences/sequence:n</title>
<path fill="none" stroke="#000000" d="M698.7261,-158.7401C698.7261,-132.7539 660.0984,-76.2815 646.7261,-54 643.2216,-48.1607 638.5906,-45.8958 635.4063,-42.6184"/>
<polygon fill="#000000" stroke="#000000" points="638.5686,-41.0889 631.7261,-33 632.0308,-43.5905 638.5686,-41.0889"/>
<text text-anchor="middle" x="700.1974" y="-81.626" font-family="Times,serif" font-size="14.00" fill="#000000">right&#45;lte</text>
</g>
<!-- /range&#45;of&#45;ranges/sequence&#45;of&#45;sequences/compare&#45;&gt;/range&#45;of&#45;ranges/sequence&#45;of&#45;sequences/last -->
<g id="edge10" class="edge">
<title>/range&#45;of&#45;ranges/sequence&#45;of&#45;sequences/compare:s&#45;&gt;/range&#45;of&#45;ranges/sequence&#45;of&#45;sequences/last:n</title>
<path fill="none" stroke="#000000" d="M698.7261,-158.7401C698.7261,-103.7719 733.1464,-92.7491 737.3145,-43.1024"/>
<polygon fill="#000000" stroke="#000000" points="740.816,-43.1342 737.7261,-33 733.8218,-42.8492 740.816,-43.1342"/>
<text text-anchor="middle" x="686.3872" y="-99.3923" font-family="Times,serif" font-size="14.00" fill="#000000">right&#45;gte</text>
</g>
<!-- /range&#45;of&#45;ranges/sequence&#45;of&#45;sequences/compare&#45;&gt;/range&#45;of&#45;ranges/sequence&#45;of&#45;sequences/compare -->
<g id="edge7" class="edge">
<title>/range&#45;of&#45;ranges/sequence&#45;of&#45;sequences/compare:s&#45;&gt;/range&#45;of&#45;ranges/sequence&#45;of&#45;sequences/compare:ne</title>
<path fill="none" stroke="#000000" d="M698.7261,-158.6102C737.7244,-147.6102 815.721,-147.6102 815.721,-185.1102 815.721,-219.534 771.9052,-222.3578 734.5498,-214.0805"/>
<polygon fill="#000000" stroke="#000000" points="735.2777,-210.6547 724.7261,-211.6102 733.5706,-217.4433 735.2777,-210.6547"/>
<text text-anchor="middle" x="683.455" y="-145.7085" font-family="Times,serif" font-size="14.00" fill="#000000">left&#45;gt</text>
<text text-anchor="middle" x="712.2261" y="-200.4102" font-family="Times,serif" font-size="14.00" fill="#000000">left</text>
</g>
<!-- /range&#45;of&#45;ranges/sequence&#45;of&#45;sequences/compare&#45;&gt;/range&#45;of&#45;ranges/sequence&#45;of&#45;sequences/add -->
<g id="edge8" class="edge">
<title>/range&#45;of&#45;ranges/sequence&#45;of&#45;sequences/compare:sw&#45;&gt;/range&#45;of&#45;ranges/sequence&#45;of&#45;sequences/add:ne</title>
<path fill="none" stroke="#000000" d="M672.7261,-159.6102C663.8534,-150.7375 660.3921,-149.8147 651.7261,-140.7401 639.4032,-127.8362 636.7869,-120.9692 627.7546,-110.4281"/>
<polygon fill="#000000" stroke="#000000" points="630.099,-107.8095 620.7261,-102.8701 624.973,-112.5765 630.099,-107.8095"/>
<text text-anchor="middle" x="618.4529" y="-135.7196" font-family="Times,serif" font-size="14.00" fill="#000000">right&#45;lt</text>
<text text-anchor="middle" x="613.7261" y="-106.6701" font-family="Times,serif" font-size="14.00" fill="#000000">i1</text>
</g>
<!-- /range&#45;of&#45;ranges/sequence&#45;of&#45;sequences/add&#45;&gt;/range&#45;of&#45;ranges/sequence&#45;of&#45;sequences/compare -->
<g id="edge9" class="edge">
<title>/range&#45;of&#45;ranges/sequence&#45;of&#45;sequences/add:sw&#45;&gt;/range&#45;of&#45;ranges/sequence&#45;of&#45;sequences/compare:ne</title>
<path fill="none" stroke="#000000" d="M576.7261,-58.8701C576.7261,-58.8701 559.8352,-107.7401 559.8352,-107.7401 574.4566,-125.201 638.4355,-121.0713 660.7261,-125.7401 722.0241,-138.5791 758.967,-109.5423 797.721,-158.7401 797.721,-158.7401 752.2729,-191.6581 733.0995,-205.5453"/>
<polygon fill="#000000" stroke="#000000" points="730.7718,-202.9096 724.7261,-211.6102 734.878,-208.5788 730.7718,-202.9096"/>
<text text-anchor="middle" x="645.2485" y="-114.5448" font-family="Times,serif" font-size="14.00" fill="#000000">sum</text>
<text text-anchor="middle" x="742.7261" y="-200.4102" font-family="Times,serif" font-size="14.00" fill="#000000">right</text>
</g>
<!-- /range&#45;of&#45;ranges/sequence&#45;of&#45;sequences/add&#45;&gt;/range&#45;of&#45;ranges/sequence&#45;of&#45;sequences/add -->
<g id="edge5" class="edge">
<title>/range&#45;of&#45;ranges/sequence&#45;of&#45;sequences/add:e&#45;&gt;/range&#45;of&#45;ranges/sequence&#45;of&#45;sequences/add:w</title>
<path fill="none" stroke="#000000" d="M637.7261,-80.8701C655.6169,-98.4934 655.6169,-133.7401 598.7261,-133.7401 549.6132,-133.7401 542.8986,-107.4723 553.4909,-88.9515"/>
<polygon fill="#000000" stroke="#000000" points="556.3886,-90.9255 559.7261,-80.8701 550.8464,-86.6495 556.3886,-90.9255"/>
<text text-anchor="middle" x="644.7293" y="-84.6733" font-family="Times,serif" font-size="14.00" fill="#000000">i2</text>
<text text-anchor="middle" x="552.7261" y="-69.6701" font-family="Times,serif" font-size="14.00" fill="#000000">i2</text>
</g>
<!-- initializer/range&#45;of&#45;ranges/sequence&#45;of&#45;sequences/add_1 -->
<!-- initializer/range&#45;of&#45;ranges/sequence&#45;of&#45;sequences/add_1&#45;&gt;/range&#45;of&#45;ranges/sequence&#45;of&#45;sequences/add -->
<g id="edge1" class="edge">
<title>initializer/range&#45;of&#45;ranges/sequence&#45;of&#45;sequences/add_1&#45;&gt;/range&#45;of&#45;ranges/sequence&#45;of&#45;sequences/add:w</title>
<path fill="none" stroke="#0000ff" stroke-dasharray="1,5" d="M298.5333,-167.6047C347.5976,-138.6523 451.612,-84.6115 549.6489,-81.0548"/>
<polygon fill="#0000ff" stroke="#0000ff" points="549.7919,-84.5529 559.7261,-80.8701 549.6636,-77.5541 549.7919,-84.5529"/>
<text text-anchor="middle" x="382.7261" y="-129.5401" font-family="Times,serif" font-size="14.00" fill="#000000">1</text>
</g>
</g>
</svg>
