<?xml version="1.0" encoding="UTF-8" standalone="no"?>
<!DOCTYPE svg PUBLIC "-//W3C//DTD SVG 1.1//EN"
 "http://www.w3.org/Graphics/SVG/1.1/DTD/svg11.dtd">
<!-- Generated by graphviz version 2.40.1 (20161225.0304)
 -->
<!-- Title: limit_sequence Pages: 1 -->
<svg width="1681pt" height="424pt"
 viewBox="28.80 28.80 1652.56 395.54" xmlns="http://www.w3.org/2000/svg" xmlns:xlink="http://www.w3.org/1999/xlink">
<g id="graph0" class="graph" transform="scale(1 1) rotate(0) translate(32.8 391.5401)">
<title>limit_sequence</title>
<polygon fill="#ffffff" stroke="transparent" points="-4,4 -4,-362.7401 1619.7566,-362.7401 1619.7566,4 -4,4"/>
<text text-anchor="middle" x="807.8783" y="-343.5401" font-family="Times,serif" font-size="14.00" fill="#000000">limit&#45;sequence</text>
<!-- /range&#45;of&#45;ranges/limit&#45;sequence/start -->
<g id="node1" class="node">
<title>/range&#45;of&#45;ranges/limit&#45;sequence/start</title>
<polygon fill="#ffffff" stroke="#000000" points="1049.6234,-323.3024 1008.6794,-335.7401 967.7353,-323.3024 967.7735,-303.1778 1049.5852,-303.1778 1049.6234,-323.3024"/>
<text text-anchor="middle" x="1008.6794" y="-314.0401" font-family="Times,serif" font-size="14.00" fill="#000000">start</text>
</g>
<!-- /range&#45;of&#45;ranges/limit&#45;sequence/compare -->
<g id="node6" class="node">
<title>/range&#45;of&#45;ranges/limit&#45;sequence/compare</title>
<g id="a_node6"><a xlink:href="../../flowstdlib/control/compare_switch/compare_switch.html" xlink:title="compare\n(compare_switch)">
<ellipse fill="#ff7f50" stroke="#000000" cx="958.6794" cy="-167.8701" rx="101.6471" ry="26.7407"/>
<text text-anchor="middle" x="958.6794" y="-171.6701" font-family="Times,serif" font-size="14.00" fill="#000000">compare</text>
<text text-anchor="middle" x="958.6794" y="-156.6701" font-family="Times,serif" font-size="14.00" fill="#000000">(compare_switch)</text>
</a>
</g>
</g>
<!-- /range&#45;of&#45;ranges/limit&#45;sequence/start&#45;&gt;/range&#45;of&#45;ranges/limit&#45;sequence/compare -->
<g id="edge4" class="edge">
<title>/range&#45;of&#45;ranges/limit&#45;sequence/start:s&#45;&gt;/range&#45;of&#45;ranges/limit&#45;sequence/compare:ne</title>
<path fill="none" stroke="#000000" d="M1008.6794,-302.7401C1008.6794,-256.8691 1018.138,-232.6502 991.7423,-201.5081"/>
<polygon fill="#000000" stroke="#000000" points="994.0384,-198.8359 984.6794,-193.8701 988.8989,-203.5884 994.0384,-198.8359"/>
<text text-anchor="middle" x="966.6794" y="-197.6701" font-family="Times,serif" font-size="14.00" fill="#000000">right</text>
</g>
<!-- /range&#45;of&#45;ranges/limit&#45;sequence/end -->
<g id="node2" class="node">
<title>/range&#45;of&#45;ranges/limit&#45;sequence/end</title>
<polygon fill="#ffffff" stroke="#000000" points="1137.2695,-323.3024 1102.6794,-335.7401 1068.0892,-323.3024 1068.1215,-303.1778 1137.2372,-303.1778 1137.2695,-323.3024"/>
<text text-anchor="middle" x="1102.6794" y="-314.0401" font-family="Times,serif" font-size="14.00" fill="#000000">end</text>
</g>
<!-- /range&#45;of&#45;ranges/limit&#45;sequence/end&#45;&gt;/range&#45;of&#45;ranges/limit&#45;sequence/compare -->
<g id="edge5" class="edge">
<title>/range&#45;of&#45;ranges/limit&#45;sequence/end:s&#45;&gt;/range&#45;of&#45;ranges/limit&#45;sequence/compare:ne</title>
<path fill="none" stroke="#000000" d="M1102.6794,-302.7401C1102.6794,-247.7205 1060.9174,-246.7641 1017.6794,-212.7401 1007.5139,-204.7409 1000.5732,-204.9321 992.5166,-200.0996"/>
<polygon fill="#000000" stroke="#000000" points="994.6855,-197.3526 984.6794,-193.8701 990.3298,-202.8324 994.6855,-197.3526"/>
<text text-anchor="middle" x="997.1794" y="-197.6701" font-family="Times,serif" font-size="14.00" fill="#000000">left</text>
</g>
<!-- /range&#45;of&#45;ranges/limit&#45;sequence/step -->
<g id="node3" class="node">
<title>/range&#45;of&#45;ranges/limit&#45;sequence/step</title>
<polygon fill="#ffffff" stroke="#000000" points="518.1979,-323.3024 480.6794,-335.7401 443.1608,-323.3024 443.1958,-303.1778 518.1629,-303.1778 518.1979,-323.3024"/>
<text text-anchor="middle" x="480.6794" y="-314.0401" font-family="Times,serif" font-size="14.00" fill="#000000">step</text>
</g>
<!-- /range&#45;of&#45;ranges/limit&#45;sequence/add -->
<g id="node9" class="node">
<title>/range&#45;of&#45;ranges/limit&#45;sequence/add</title>
<g id="a_node9"><a xlink:href="../../flowstdlib/math/add/add.html" xlink:title="add">
<ellipse fill="#ff7f50" stroke="#000000" cx="659.6794" cy="-72" rx="27.8951" ry="18"/>
<text text-anchor="middle" x="659.6794" y="-68.3" font-family="Times,serif" font-size="14.00" fill="#000000">add</text>
</a>
</g>
</g>
<!-- /range&#45;of&#45;ranges/limit&#45;sequence/step&#45;&gt;/range&#45;of&#45;ranges/limit&#45;sequence/add -->
<g id="edge6" class="edge">
<title>/range&#45;of&#45;ranges/limit&#45;sequence/step:s&#45;&gt;/range&#45;of&#45;ranges/limit&#45;sequence/add:w</title>
<path fill="none" stroke="#000000" d="M480.6794,-302.7401C480.6794,-183.6523 507.5325,-78.139 621.4916,-72.2582"/>
<polygon fill="#000000" stroke="#000000" points="621.7713,-75.7523 631.6794,-72 621.5939,-68.7545 621.7713,-75.7523"/>
<text text-anchor="middle" x="624.6794" y="-75.8" font-family="Times,serif" font-size="14.00" fill="#000000">i2</text>
</g>
<!-- /range&#45;of&#45;ranges/limit&#45;sequence/sequence -->
<g id="node4" class="node">
<title>/range&#45;of&#45;ranges/limit&#45;sequence/sequence</title>
<polygon fill="#000000" stroke="#000000" points="765.2127,-12.4377 832.6794,0 900.146,-12.4377 900.083,-32.5623 765.2757,-32.5623 765.2127,-12.4377"/>
<text text-anchor="middle" x="832.6794" y="-14.3" font-family="Times,serif" font-size="14.00" fill="#ffffff">sequence</text>
</g>
<!-- /range&#45;of&#45;ranges/limit&#45;sequence/last -->
<g id="node5" class="node">
<title>/range&#45;of&#45;ranges/limit&#45;sequence/last</title>
<polygon fill="#000000" stroke="#000000" points="918.0892,-12.4377 952.6794,0 987.2695,-12.4377 987.2372,-32.5623 918.1215,-32.5623 918.0892,-12.4377"/>
<text text-anchor="middle" x="952.6794" y="-14.3" font-family="Times,serif" font-size="14.00" fill="#ffffff">last</text>
</g>
<!-- /range&#45;of&#45;ranges/limit&#45;sequence/compare&#45;&gt;/range&#45;of&#45;ranges/limit&#45;sequence/sequence -->
<g id="edge8" class="edge">
<title>/range&#45;of&#45;ranges/limit&#45;sequence/compare:s&#45;&gt;/range&#45;of&#45;ranges/limit&#45;sequence/sequence:n</title>
<path fill="none" stroke="#000000" d="M958.6794,-141C958.6794,-107.4351 854.3029,-76.0526 835.5478,-42.8798"/>
<polygon fill="#000000" stroke="#000000" points="838.8288,-41.6276 832.6794,-33 832.1064,-43.5793 838.8288,-41.6276"/>
<text text-anchor="middle" x="865.9342" y="-90.6616" font-family="Times,serif" font-size="14.00" fill="#000000">right&#45;lte</text>
</g>
<!-- /range&#45;of&#45;ranges/limit&#45;sequence/compare&#45;&gt;/range&#45;of&#45;ranges/limit&#45;sequence/last -->
<g id="edge12" class="edge">
<title>/range&#45;of&#45;ranges/limit&#45;sequence/compare:s&#45;&gt;/range&#45;of&#45;ranges/limit&#45;sequence/last:n</title>
<path fill="none" stroke="#000000" d="M958.6794,-141C958.6794,-96.494 953.5369,-83.0328 952.7736,-43.135"/>
<polygon fill="#000000" stroke="#000000" points="956.2723,-42.967 952.6794,-33 949.2726,-43.0321 956.2723,-42.967"/>
<text text-anchor="middle" x="987.6879" y="-90.885" font-family="Times,serif" font-size="14.00" fill="#000000">right&#45;gte</text>
</g>
<!-- /range&#45;of&#45;ranges/limit&#45;sequence/compare&#45;&gt;/range&#45;of&#45;ranges/limit&#45;sequence/compare -->
<g id="edge9" class="edge">
<title>/range&#45;of&#45;ranges/limit&#45;sequence/compare:s&#45;&gt;/range&#45;of&#45;ranges/limit&#45;sequence/compare:ne</title>
<path fill="none" stroke="#000000" d="M958.6794,-140.8701C998.6205,-127.8701 1078.5027,-127.8701 1078.5027,-167.3701 1078.5027,-203.6298 1033.098,-206.6043 994.7526,-196.7922"/>
<polygon fill="#000000" stroke="#000000" points="995.2586,-193.2947 984.6794,-193.8701 993.3083,-200.0176 995.2586,-193.2947"/>
<text text-anchor="middle" x="942.0397" y="-128.0684" font-family="Times,serif" font-size="14.00" fill="#000000">left&#45;gt</text>
<text text-anchor="middle" x="972.1794" y="-182.6701" font-family="Times,serif" font-size="14.00" fill="#000000">left</text>
</g>
<!-- /range&#45;of&#45;ranges/limit&#45;sequence/compare&#45;&gt;/range&#45;of&#45;ranges/limit&#45;sequence/add -->
<g id="edge10" class="edge">
<title>/range&#45;of&#45;ranges/limit&#45;sequence/compare:sw&#45;&gt;/range&#45;of&#45;ranges/limit&#45;sequence/add:ne</title>
<path fill="none" stroke="#000000" d="M932.6794,-141.8701C914.5222,-123.7129 843.8351,-128.1527 818.6794,-123 758.0842,-110.5881 725.6097,-131.7109 683.1551,-94.9744"/>
<polygon fill="#000000" stroke="#000000" points="685.379,-92.2624 675.6794,-88 680.6038,-97.3809 685.379,-92.2624"/>
<text text-anchor="middle" x="777.8279" y="-124.2424" font-family="Times,serif" font-size="14.00" fill="#000000">right&#45;lt</text>
<text text-anchor="middle" x="682.6794" y="-91.8" font-family="Times,serif" font-size="14.00" fill="#000000">i1</text>
</g>
<!-- initializer/range&#45;of&#45;ranges/limit&#45;sequence/compare_0 -->
<!-- initializer/range&#45;of&#45;ranges/limit&#45;sequence/compare_0&#45;&gt;/range&#45;of&#45;ranges/limit&#45;sequence/compare -->
<g id="edge1" class="edge">
<title>initializer/range&#45;of&#45;ranges/limit&#45;sequence/compare_0&#45;&gt;/range&#45;of&#45;ranges/limit&#45;sequence/compare:ne</title>
<path fill="none" stroke="#0000ff" stroke-dasharray="1,5" d="M1277.6501,-246.651C1227.2575,-236.3547 1161.3353,-223.2463 1102.6794,-212.7401 1079.6032,-208.6068 1019.941,-211.6992 993.3552,-199.5614"/>
<polygon fill="#0000ff" stroke="#0000ff" points="994.9606,-196.4287 984.6794,-193.8701 991.121,-202.2817 994.9606,-196.4287"/>
<text text-anchor="middle" x="1184.6794" y="-216.5401" font-family="Times,serif" font-size="14.00" fill="#000000">9</text>
</g>
<!-- initializer/range&#45;of&#45;ranges/limit&#45;sequence/compare_1 -->
<!-- initializer/range&#45;of&#45;ranges/limit&#45;sequence/compare_1&#45;&gt;/range&#45;of&#45;ranges/limit&#45;sequence/compare -->
<g id="edge2" class="edge">
<title>initializer/range&#45;of&#45;ranges/limit&#45;sequence/compare_1&#45;&gt;/range&#45;of&#45;ranges/limit&#45;sequence/compare:ne</title>
<path fill="none" stroke="#0000ff" stroke-dasharray="1,5" d="M860.2748,-247.3981C919.8025,-236.5326 982.6428,-221.0955 988.0019,-203.7115"/>
<polygon fill="#0000ff" stroke="#0000ff" points="991.1942,-202.2251 984.6794,-193.8701 984.562,-204.4642 991.1942,-202.2251"/>
<text text-anchor="middle" x="982.6794" y="-216.5401" font-family="Times,serif" font-size="14.00" fill="#000000">1</text>
</g>
<!-- /range&#45;of&#45;ranges/limit&#45;sequence/add&#45;&gt;/range&#45;of&#45;ranges/limit&#45;sequence/compare -->
<g id="edge11" class="edge">
<title>/range&#45;of&#45;ranges/limit&#45;sequence/add:sw&#45;&gt;/range&#45;of&#45;ranges/limit&#45;sequence/compare:ne</title>
<path fill="none" stroke="#000000" d="M643.6794,-56C643.6794,-56 631.7318,-90 631.7318,-90 635.7141,-94.4841 1056.5204,-136.5159 1060.5027,-141 1060.5027,-141 1012.825,-174.2447 993.0835,-188.01"/>
<polygon fill="#000000" stroke="#000000" points="990.8803,-185.2794 984.6794,-193.8701 994.884,-191.0214 990.8803,-185.2794"/>
<text text-anchor="middle" x="800.2184" y="-100.9694" font-family="Times,serif" font-size="14.00" fill="#000000">sum</text>
<text text-anchor="middle" x="1002.6794" y="-182.6701" font-family="Times,serif" font-size="14.00" fill="#000000">right</text>
</g>
<!-- /range&#45;of&#45;ranges/limit&#45;sequence/add&#45;&gt;/range&#45;of&#45;ranges/limit&#45;sequence/add -->
<g id="edge7" class="edge">
<title>/range&#45;of&#45;ranges/limit&#45;sequence/add:e&#45;&gt;/range&#45;of&#45;ranges/limit&#45;sequence/add:w</title>
<path fill="none" stroke="#000000" d="M687.6794,-72C705.6269,-85 705.6269,-111 659.6794,-111 621.2701,-111 614.9686,-92.8314 624.4187,-79.276"/>
<polygon fill="#000000" stroke="#000000" points="627.0932,-81.5508 631.6794,-72 622.1382,-76.6063 627.0932,-81.5508"/>
<text text-anchor="middle" x="694.6859" y="-75.8048" font-family="Times,serif" font-size="14.00" fill="#000000">i2</text>
<text text-anchor="middle" x="624.6794" y="-60.8" font-family="Times,serif" font-size="14.00" fill="#000000">i2</text>
</g>
<!-- initializer/range&#45;of&#45;ranges/limit&#45;sequence/add_1 -->
<!-- initializer/range&#45;of&#45;ranges/limit&#45;sequence/add_1&#45;&gt;/range&#45;of&#45;ranges/limit&#45;sequence/add -->
<g id="edge3" class="edge">
<title>initializer/range&#45;of&#45;ranges/limit&#45;sequence/add_1&#45;&gt;/range&#45;of&#45;ranges/limit&#45;sequence/add:w</title>
<path fill="none" stroke="#0000ff" stroke-dasharray="1,5" d="M276.4319,-150.1743C347.1457,-123.1765 491.7614,-74.5484 621.566,-72.0964"/>
<polygon fill="#0000ff" stroke="#0000ff" points="621.7132,-75.5953 631.6794,-72 621.6464,-68.5956 621.7132,-75.5953"/>
<text text-anchor="middle" x="407.6794" y="-111.8" font-family="Times,serif" font-size="14.00" fill="#000000">1</text>
</g>
</g>
</svg>
