<?xml version="1.0" encoding="UTF-8" standalone="no"?>
<!DOCTYPE svg PUBLIC "-//W3C//DTD SVG 1.1//EN"
 "http://www.w3.org/Graphics/SVG/1.1/DTD/svg11.dtd">
<!-- Generated by graphviz version 2.42.3 (20191010.1750)
 -->
<!-- Title: sequence_of_sequences Pages: 1 -->
<svg width="735pt" height="366pt"
 viewBox="28.80 28.80 705.96 337.62" xmlns="http://www.w3.org/2000/svg" xmlns:xlink="http://www.w3.org/1999/xlink">
<g id="graph0" class="graph" transform="scale(1 1) rotate(0) translate(32.8 333.62)">
<title>sequence_of_sequences</title>
<polygon fill="white" stroke="transparent" points="-4,4 -4,-304.82 673.16,-304.82 673.16,4 -4,4"/>
<text text-anchor="middle" x="334.58" y="-285.62" font-family="Times,serif" font-size="14.00">sequence&#45;of&#45;sequences</text>
<!-- /range&#45;of&#45;ranges/sequence&#45;of&#45;sequences/start -->
<g id="node1" class="node">
<title>/range&#45;of&#45;ranges/sequence&#45;of&#45;sequences/start</title>
<polygon fill="white" stroke="black" points="636.59,-266.39 605.46,-278.82 574.34,-266.39 574.36,-246.26 636.56,-246.26 636.59,-266.39"/>
<text text-anchor="middle" x="605.46" y="-256.62" font-family="Times,serif" font-size="14.00">start</text>
</g>
<!-- /range&#45;of&#45;ranges/sequence&#45;of&#45;sequences/compare -->
<g id="node6" class="node">
<title>/range&#45;of&#45;ranges/sequence&#45;of&#45;sequences/compare</title>
<g id="a_node6"><a xlink:href="../../flowstdlib/control/compare_switch/compare_switch.toml" xlink:title="compare\n(CompareSwitch)">
<ellipse fill="coral" stroke="black" cx="569.46" cy="-180.37" rx="81.89" ry="25.41"/>
<text text-anchor="middle" x="569.46" y="-183.17" font-family="Times,serif" font-size="14.00">compare</text>
<text text-anchor="middle" x="569.46" y="-169.17" font-family="Times,serif" font-size="14.00">(CompareSwitch)</text>
</a>
</g>
</g>
<!-- /range&#45;of&#45;ranges/sequence&#45;of&#45;sequences/start&#45;&gt;/range&#45;of&#45;ranges/sequence&#45;of&#45;sequences/compare -->
<g id="edge2" class="edge">
<title>/range&#45;of&#45;ranges/sequence&#45;of&#45;sequences/start:s&#45;&gt;/range&#45;of&#45;ranges/sequence&#45;of&#45;sequences/compare:ne</title>
<path fill="none" stroke="black" d="M605.46,-244.82C605.46,-230.75 606.52,-222.64 600.91,-213.69"/>
<polygon fill="black" stroke="black" points="603.51,-211.34 594.46,-205.82 598.1,-215.77 603.51,-211.34"/>
<text text-anchor="middle" x="581.24" y="-208.62" font-family="Times,serif" font-size="14.00">right</text>
</g>
<!-- /range&#45;of&#45;ranges/sequence&#45;of&#45;sequences/end -->
<g id="node2" class="node">
<title>/range&#45;of&#45;ranges/sequence&#45;of&#45;sequences/end</title>
<polygon fill="white" stroke="black" points="555.52,-266.39 527.46,-278.82 499.41,-266.39 499.44,-246.26 555.49,-246.26 555.52,-266.39"/>
<text text-anchor="middle" x="527.46" y="-256.62" font-family="Times,serif" font-size="14.00">end</text>
</g>
<!-- /range&#45;of&#45;ranges/sequence&#45;of&#45;sequences/end&#45;&gt;/range&#45;of&#45;ranges/sequence&#45;of&#45;sequences/compare -->
<g id="edge3" class="edge">
<title>/range&#45;of&#45;ranges/sequence&#45;of&#45;sequences/end:s&#45;&gt;/range&#45;of&#45;ranges/sequence&#45;of&#45;sequences/compare:ne</title>
<path fill="none" stroke="black" d="M527.46,-244.82C527.46,-216.83 587.78,-224.66 597.33,-215.52"/>
<polygon fill="black" stroke="black" points="600.65,-214.42 594.46,-205.82 593.94,-216.41 600.65,-214.42"/>
<text text-anchor="middle" x="603.79" y="-208.62" font-family="Times,serif" font-size="14.00">left</text>
</g>
<!-- /range&#45;of&#45;ranges/sequence&#45;of&#45;sequences/step -->
<g id="node3" class="node">
<title>/range&#45;of&#45;ranges/sequence&#45;of&#45;sequences/step</title>
<polygon fill="white" stroke="black" points="478.66,-266.39 448.46,-278.82 418.26,-266.39 418.29,-246.26 478.64,-246.26 478.66,-266.39"/>
<text text-anchor="middle" x="448.46" y="-256.62" font-family="Times,serif" font-size="14.00">step</text>
</g>
<!-- /range&#45;of&#45;ranges/sequence&#45;of&#45;sequences/add -->
<g id="node7" class="node">
<title>/range&#45;of&#45;ranges/sequence&#45;of&#45;sequences/add</title>
<g id="a_node7"><a xlink:href="../../flowstdlib/math/add/add.toml" xlink:title="add\n(Add)">
<ellipse fill="coral" stroke="black" cx="475.46" cy="-79.46" rx="34.91" ry="25.41"/>
<text text-anchor="middle" x="475.46" y="-82.26" font-family="Times,serif" font-size="14.00">add</text>
<text text-anchor="middle" x="475.46" y="-68.26" font-family="Times,serif" font-size="14.00">(Add)</text>
</a>
</g>
</g>
<!-- /range&#45;of&#45;ranges/sequence&#45;of&#45;sequences/step&#45;&gt;/range&#45;of&#45;ranges/sequence&#45;of&#45;sequences/add -->
<g id="edge4" class="edge">
<title>/range&#45;of&#45;ranges/sequence&#45;of&#45;sequences/step:s&#45;&gt;/range&#45;of&#45;ranges/sequence&#45;of&#45;sequences/add:w</title>
<path fill="none" stroke="black" d="M448.46,-244.82C448.46,-212.05 412.13,-106.48 430.18,-83.78"/>
<polygon fill="black" stroke="black" points="431.88,-86.85 439.46,-79.46 428.92,-80.51 431.88,-86.85"/>
<text text-anchor="middle" x="434.02" y="-82.26" font-family="Times,serif" font-size="14.00">i2</text>
</g>
<!-- /range&#45;of&#45;ranges/sequence&#45;of&#45;sequences/sequence -->
<g id="node4" class="node">
<title>/range&#45;of&#45;ranges/sequence&#45;of&#45;sequences/sequence</title>
<polygon fill="black" stroke="black" points="461.86,-12.44 514.46,0 567.06,-12.44 567.01,-32.56 461.91,-32.56 461.86,-12.44"/>
<text text-anchor="middle" x="514.46" y="-13.8" font-family="Times,serif" font-size="14.00" fill="white">sequence</text>
</g>
<!-- /range&#45;of&#45;ranges/sequence&#45;of&#45;sequences/last -->
<g id="node5" class="node">
<title>/range&#45;of&#45;ranges/sequence&#45;of&#45;sequences/last</title>
<polygon fill="black" stroke="black" points="571.62,-12.44 599.46,0 627.31,-12.44 627.28,-32.56 571.64,-32.56 571.62,-12.44"/>
<text text-anchor="middle" x="599.46" y="-13.8" font-family="Times,serif" font-size="14.00" fill="white">last</text>
</g>
<!-- /range&#45;of&#45;ranges/sequence&#45;of&#45;sequences/compare&#45;&gt;/range&#45;of&#45;ranges/sequence&#45;of&#45;sequences/sequence -->
<g id="edge6" class="edge">
<title>/range&#45;of&#45;ranges/sequence&#45;of&#45;sequences/compare:s&#45;&gt;/range&#45;of&#45;ranges/sequence&#45;of&#45;sequences/sequence:n</title>
<path fill="none" stroke="black" d="M569.46,-154.91C569.46,-128.39 525.07,-75.75 516.05,-43.93"/>
<polygon fill="black" stroke="black" points="519.5,-43.32 514.46,-34 512.58,-44.43 519.5,-43.32"/>
<text text-anchor="middle" x="564.36" y="-83" font-family="Times,serif" font-size="14.00">right&#45;lte</text>
</g>
<!-- /range&#45;of&#45;ranges/sequence&#45;of&#45;sequences/compare&#45;&gt;/range&#45;of&#45;ranges/sequence&#45;of&#45;sequences/last -->
<g id="edge10" class="edge">
<title>/range&#45;of&#45;ranges/sequence&#45;of&#45;sequences/compare:s&#45;&gt;/range&#45;of&#45;ranges/sequence&#45;of&#45;sequences/last:n</title>
<path fill="none" stroke="black" d="M569.46,-154.91C569.46,-103.11 595.72,-90.87 599.1,-44.17"/>
<polygon fill="black" stroke="black" points="602.61,-44.12 599.46,-34 595.61,-43.87 602.61,-44.12"/>
<text text-anchor="middle" x="560.39" y="-97.19" font-family="Times,serif" font-size="14.00">right&#45;gte</text>
</g>
<!-- /range&#45;of&#45;ranges/sequence&#45;of&#45;sequences/compare&#45;&gt;/range&#45;of&#45;ranges/sequence&#45;of&#45;sequences/compare -->
<g id="edge7" class="edge">
<title>/range&#45;of&#45;ranges/sequence&#45;of&#45;sequences/compare:s&#45;&gt;/range&#45;of&#45;ranges/sequence&#45;of&#45;sequences/compare:ne</title>
<path fill="none" stroke="black" d="M569.46,-154.37C602.69,-143.87 669.16,-143.87 669.16,-179.87 669.16,-212.35 635.4,-215.52 604.39,-208.12"/>
<polygon fill="black" stroke="black" points="605.03,-204.67 594.46,-205.37 603.16,-211.41 605.03,-204.67"/>
<text text-anchor="middle" x="558.09" y="-141.54" font-family="Times,serif" font-size="14.00">left&#45;gt</text>
<text text-anchor="middle" x="603.79" y="-208.17" font-family="Times,serif" font-size="14.00">left</text>
</g>
<!-- /range&#45;of&#45;ranges/sequence&#45;of&#45;sequences/compare&#45;&gt;/range&#45;of&#45;ranges/sequence&#45;of&#45;sequences/add -->
<g id="edge8" class="edge">
<title>/range&#45;of&#45;ranges/sequence&#45;of&#45;sequences/compare:sw&#45;&gt;/range&#45;of&#45;ranges/sequence&#45;of&#45;sequences/add:ne</title>
<path fill="none" stroke="black" d="M544.46,-154.91C536.01,-146.46 532.64,-145.64 524.46,-136.91 513.41,-125.12 511.21,-118.54 503.37,-109.02"/>
<polygon fill="black" stroke="black" points="505.79,-106.48 496.46,-101.46 500.62,-111.2 505.79,-106.48"/>
<text text-anchor="middle" x="498.89" y="-132.64" font-family="Times,serif" font-size="14.00">right&#45;lt</text>
<text text-anchor="middle" x="491.02" y="-104.26" font-family="Times,serif" font-size="14.00">i1</text>
</g>
<!-- /range&#45;of&#45;ranges/sequence&#45;of&#45;sequences/add&#45;&gt;/range&#45;of&#45;ranges/sequence&#45;of&#45;sequences/compare -->
<g id="edge9" class="edge">
<title>/range&#45;of&#45;ranges/sequence&#45;of&#45;sequences/add:sw&#45;&gt;/range&#45;of&#45;ranges/sequence&#45;of&#45;sequences/compare:ne</title>
<path fill="none" stroke="black" d="M454.46,-57.46C450.07,-53.06 444.74,-53.9 440.51,-58.46 426.44,-73.57 427.38,-88.97 440.51,-104.91 466.97,-137.06 491.9,-113.49 532.46,-122.91 585.68,-135.28 617.93,-111.54 651.16,-154.91 664.79,-172.71 666.87,-189.37 651.16,-205.37 644.19,-212.46 618.46,-214.53 603.55,-210.71"/>
<polygon fill="black" stroke="black" points="604.99,-207.52 594.46,-206.37 601.97,-213.84 604.99,-207.52"/>
<text text-anchor="middle" x="520.83" y="-111.72" font-family="Times,serif" font-size="14.00">sum</text>
<text text-anchor="middle" x="581.24" y="-209.17" font-family="Times,serif" font-size="14.00">right</text>
</g>
<!-- /range&#45;of&#45;ranges/sequence&#45;of&#45;sequences/add&#45;&gt;/range&#45;of&#45;ranges/sequence&#45;of&#45;sequences/add -->
<g id="edge5" class="edge">
<title>/range&#45;of&#45;ranges/sequence&#45;of&#45;sequences/add:e&#45;&gt;/range&#45;of&#45;ranges/sequence&#45;of&#45;sequences/add:w</title>
<path fill="none" stroke="black" d="M510.46,-79.46C528.42,-96.27 528.42,-129.91 475.46,-129.91 429.95,-129.91 423.55,-105.07 434.05,-87.41"/>
<polygon fill="black" stroke="black" points="436.91,-89.44 440.46,-79.46 431.46,-85.04 436.91,-89.44"/>
<text text-anchor="middle" x="515.91" y="-82.26" font-family="Times,serif" font-size="14.00">i2</text>
<text text-anchor="middle" x="435.02" y="-68.26" font-family="Times,serif" font-size="14.00">i2</text>
</g>
<!-- initializer/range&#45;of&#45;ranges/sequence&#45;of&#45;sequences/add_1 -->
<!-- initializer/range&#45;of&#45;ranges/sequence&#45;of&#45;sequences/add_1&#45;&gt;/range&#45;of&#45;ranges/sequence&#45;of&#45;sequences/add -->
<g id="edge1" class="edge">
<title>initializer/range&#45;of&#45;ranges/sequence&#45;of&#45;sequences/add_1&#45;&gt;/range&#45;of&#45;ranges/sequence&#45;of&#45;sequences/add:w</title>
<path fill="none" stroke="blue" stroke-dasharray="1,5" d="M232.46,-162.42C270.12,-135.08 350.53,-83.88 429.36,-79.73"/>
<polygon fill="blue" stroke="blue" points="429.56,-83.22 439.46,-79.46 429.37,-76.22 429.56,-83.22"/>
<text text-anchor="middle" x="297.96" y="-125.71" font-family="Times,serif" font-size="14.00">1</text>
</g>
</g>
</svg>
