<?xml version="1.0" encoding="UTF-8" standalone="no"?>
<!DOCTYPE svg PUBLIC "-//W3C//DTD SVG 1.1//EN"
 "http://www.w3.org/Graphics/SVG/1.1/DTD/svg11.dtd">
<!-- Generated by graphviz version 2.42.4 (0)
 -->
<!-- Title: sequence_of_sequences Pages: 1 -->
<svg width="893pt" height="374pt"
 viewBox="28.80 28.80 864.50 345.28" xmlns="http://www.w3.org/2000/svg" xmlns:xlink="http://www.w3.org/1999/xlink">
<g id="graph0" class="graph" transform="scale(1 1) rotate(0) translate(32.8 341.28)">
<title>sequence_of_sequences</title>
<polygon fill="white" stroke="transparent" points="-4,4 -4,-312.48 831.7,-312.48 831.7,4 -4,4"/>
<text text-anchor="middle" x="413.85" y="-293.28" font-family="Times,serif" font-size="14.00">sequence&#45;of&#45;sequences</text>
<!-- /range&#45;of&#45;ranges/sequence&#45;of&#45;sequences/start -->
<g id="node1" class="node">
<title>/range&#45;of&#45;ranges/sequence&#45;of&#45;sequences/start</title>
<polygon fill="white" stroke="black" points="827.67,-273.04 786.73,-285.48 745.78,-273.04 745.82,-252.92 827.63,-252.92 827.67,-273.04"/>
<text text-anchor="middle" x="786.73" y="-263.78" font-family="Times,serif" font-size="14.00">start</text>
</g>
<!-- /range&#45;of&#45;ranges/sequence&#45;of&#45;sequences/compare -->
<g id="node6" class="node">
<title>/range&#45;of&#45;ranges/sequence&#45;of&#45;sequences/compare</title>
<g id="a_node6"><a xlink:href="../../flowstdlib/control/compare_switch/compare_switch.html" xlink:title="compare\n(CompareSwitch)">
<ellipse fill="coral" stroke="black" cx="698.73" cy="-185.61" rx="98.99" ry="26.74"/>
<text text-anchor="middle" x="698.73" y="-189.41" font-family="Times,serif" font-size="14.00">compare</text>
<text text-anchor="middle" x="698.73" y="-174.41" font-family="Times,serif" font-size="14.00">(CompareSwitch)</text>
</a>
</g>
</g>
<!-- /range&#45;of&#45;ranges/sequence&#45;of&#45;sequences/start&#45;&gt;/range&#45;of&#45;ranges/sequence&#45;of&#45;sequences/compare -->
<g id="edge2" class="edge">
<title>/range&#45;of&#45;ranges/sequence&#45;of&#45;sequences/start:s&#45;&gt;/range&#45;of&#45;ranges/sequence&#45;of&#45;sequences/compare:ne</title>
<path fill="none" stroke="black" d="M786.73,-251.48C786.73,-222.49 755.81,-232.46 732.78,-218.73"/>
<polygon fill="black" stroke="black" points="734.77,-215.84 724.73,-212.48 730.48,-221.38 734.77,-215.84"/>
<text text-anchor="middle" x="706.73" y="-216.28" font-family="Times,serif" font-size="14.00">right</text>
</g>
<!-- /range&#45;of&#45;ranges/sequence&#45;of&#45;sequences/end -->
<g id="node2" class="node">
<title>/range&#45;of&#45;ranges/sequence&#45;of&#45;sequences/end</title>
<polygon fill="white" stroke="black" points="727.32,-273.04 692.73,-285.48 658.14,-273.04 658.17,-252.92 727.28,-252.92 727.32,-273.04"/>
<text text-anchor="middle" x="692.73" y="-263.78" font-family="Times,serif" font-size="14.00">end</text>
</g>
<!-- /range&#45;of&#45;ranges/sequence&#45;of&#45;sequences/end&#45;&gt;/range&#45;of&#45;ranges/sequence&#45;of&#45;sequences/compare -->
<g id="edge3" class="edge">
<title>/range&#45;of&#45;ranges/sequence&#45;of&#45;sequences/end:s&#45;&gt;/range&#45;of&#45;ranges/sequence&#45;of&#45;sequences/compare:ne</title>
<path fill="none" stroke="black" d="M692.73,-251.48C692.73,-235.01 718.53,-230.25 725.97,-222.6"/>
<polygon fill="black" stroke="black" points="729.42,-221.98 724.73,-212.48 722.47,-222.83 729.42,-221.98"/>
<text text-anchor="middle" x="737.23" y="-216.28" font-family="Times,serif" font-size="14.00">left</text>
</g>
<!-- /range&#45;of&#45;ranges/sequence&#45;of&#45;sequences/step -->
<g id="node3" class="node">
<title>/range&#45;of&#45;ranges/sequence&#45;of&#45;sequences/step</title>
<polygon fill="white" stroke="black" points="605.24,-273.04 567.73,-285.48 530.21,-273.04 530.24,-252.92 605.21,-252.92 605.24,-273.04"/>
<text text-anchor="middle" x="567.73" y="-263.78" font-family="Times,serif" font-size="14.00">step</text>
</g>
<!-- /range&#45;of&#45;ranges/sequence&#45;of&#45;sequences/add -->
<g id="node7" class="node">
<title>/range&#45;of&#45;ranges/sequence&#45;of&#45;sequences/add</title>
<g id="a_node7"><a xlink:href="../../flowstdlib/math/add/add.html" xlink:title="add\n(Add)">
<ellipse fill="coral" stroke="black" cx="598.73" cy="-80.87" rx="38.78" ry="26.74"/>
<text text-anchor="middle" x="598.73" y="-84.67" font-family="Times,serif" font-size="14.00">add</text>
<text text-anchor="middle" x="598.73" y="-69.67" font-family="Times,serif" font-size="14.00">(Add)</text>
</a>
</g>
</g>
<!-- /range&#45;of&#45;ranges/sequence&#45;of&#45;sequences/step&#45;&gt;/range&#45;of&#45;ranges/sequence&#45;of&#45;sequences/add -->
<g id="edge4" class="edge">
<title>/range&#45;of&#45;ranges/sequence&#45;of&#45;sequences/step:s&#45;&gt;/range&#45;of&#45;ranges/sequence&#45;of&#45;sequences/add:w</title>
<path fill="none" stroke="black" d="M567.73,-251.48C567.73,-217.52 530.14,-107.8 549.39,-85.03"/>
<polygon fill="black" stroke="black" points="551.02,-88.14 558.73,-80.87 548.17,-81.74 551.02,-88.14"/>
<text text-anchor="middle" x="551.73" y="-84.67" font-family="Times,serif" font-size="14.00">i2</text>
</g>
<!-- /range&#45;of&#45;ranges/sequence&#45;of&#45;sequences/sequence -->
<g id="node4" class="node">
<title>/range&#45;of&#45;ranges/sequence&#45;of&#45;sequences/sequence</title>
<polygon fill="black" stroke="black" points="564.87,-12.44 631.73,0 698.59,-12.44 698.52,-32.56 564.93,-32.56 564.87,-12.44"/>
<text text-anchor="middle" x="631.73" y="-14.3" font-family="Times,serif" font-size="14.00" fill="white">sequence</text>
</g>
<!-- /range&#45;of&#45;ranges/sequence&#45;of&#45;sequences/last -->
<g id="node5" class="node">
<title>/range&#45;of&#45;ranges/sequence&#45;of&#45;sequences/last</title>
<polygon fill="black" stroke="black" points="703.14,-12.44 737.73,0 772.32,-12.44 772.28,-32.56 703.17,-32.56 703.14,-12.44"/>
<text text-anchor="middle" x="737.73" y="-14.3" font-family="Times,serif" font-size="14.00" fill="white">last</text>
</g>
<!-- /range&#45;of&#45;ranges/sequence&#45;of&#45;sequences/compare&#45;&gt;/range&#45;of&#45;ranges/sequence&#45;of&#45;sequences/sequence -->
<g id="edge6" class="edge">
<title>/range&#45;of&#45;ranges/sequence&#45;of&#45;sequences/compare:s&#45;&gt;/range&#45;of&#45;ranges/sequence&#45;of&#45;sequences/sequence:n</title>
<path fill="none" stroke="black" d="M698.73,-158.74C698.73,-132.75 660.36,-76.12 646.73,-54 643.36,-48.53 638.87,-46.41 635.68,-43.46"/>
<polygon fill="black" stroke="black" points="638.82,-41.87 631.73,-34 632.36,-44.58 638.82,-41.87"/>
<text text-anchor="middle" x="700.58" y="-82.02" font-family="Times,serif" font-size="14.00">right&#45;lte</text>
</g>
<!-- /range&#45;of&#45;ranges/sequence&#45;of&#45;sequences/compare&#45;&gt;/range&#45;of&#45;ranges/sequence&#45;of&#45;sequences/last -->
<g id="edge10" class="edge">
<title>/range&#45;of&#45;ranges/sequence&#45;of&#45;sequences/compare:s&#45;&gt;/range&#45;of&#45;ranges/sequence&#45;of&#45;sequences/last:n</title>
<path fill="none" stroke="black" d="M698.73,-158.74C698.73,-104.17 733.15,-93.31 737.31,-44.03"/>
<polygon fill="black" stroke="black" points="740.81,-44.14 737.73,-34 733.82,-43.85 740.81,-44.14"/>
<text text-anchor="middle" x="686.39" y="-99.89" font-family="Times,serif" font-size="14.00">right&#45;gte</text>
</g>
<!-- /range&#45;of&#45;ranges/sequence&#45;of&#45;sequences/compare&#45;&gt;/range&#45;of&#45;ranges/sequence&#45;of&#45;sequences/compare -->
<g id="edge7" class="edge">
<title>/range&#45;of&#45;ranges/sequence&#45;of&#45;sequences/compare:s&#45;&gt;/range&#45;of&#45;ranges/sequence&#45;of&#45;sequences/compare:ne</title>
<path fill="none" stroke="black" d="M698.73,-158.61C737.72,-147.61 815.72,-147.61 815.72,-185.11 815.72,-219.53 771.91,-222.36 734.55,-214.08"/>
<polygon fill="black" stroke="black" points="735.28,-210.65 724.73,-211.61 733.57,-217.44 735.28,-210.65"/>
<text text-anchor="middle" x="683.45" y="-145.71" font-family="Times,serif" font-size="14.00">left&#45;gt</text>
<text text-anchor="middle" x="712.23" y="-200.41" font-family="Times,serif" font-size="14.00">left</text>
</g>
<!-- /range&#45;of&#45;ranges/sequence&#45;of&#45;sequences/compare&#45;&gt;/range&#45;of&#45;ranges/sequence&#45;of&#45;sequences/add -->
<g id="edge8" class="edge">
<title>/range&#45;of&#45;ranges/sequence&#45;of&#45;sequences/compare:sw&#45;&gt;/range&#45;of&#45;ranges/sequence&#45;of&#45;sequences/add:ne</title>
<path fill="none" stroke="black" d="M672.73,-158.74C664.03,-150.05 660.38,-149.47 651.73,-140.74 639.37,-128.26 636.61,-121.63 627.66,-111.3"/>
<polygon fill="black" stroke="black" points="630.11,-108.79 620.73,-103.87 624.99,-113.57 630.11,-108.79"/>
<text text-anchor="middle" x="618.41" y="-136.01" font-family="Times,serif" font-size="14.00">right&#45;lt</text>
<text text-anchor="middle" x="613.73" y="-107.67" font-family="Times,serif" font-size="14.00">i1</text>
</g>
<!-- /range&#45;of&#45;ranges/sequence&#45;of&#45;sequences/add&#45;&gt;/range&#45;of&#45;ranges/sequence&#45;of&#45;sequences/compare -->
<g id="edge9" class="edge">
<title>/range&#45;of&#45;ranges/sequence&#45;of&#45;sequences/add:sw&#45;&gt;/range&#45;of&#45;ranges/sequence&#45;of&#45;sequences/compare:ne</title>
<path fill="none" stroke="black" d="M576.73,-57.87C571.41,-52.55 564.99,-53.4 559.84,-58.87 544.94,-74.68 545.91,-91.08 559.84,-107.74 574.3,-125.05 637.65,-121.12 659.73,-125.74 721.45,-138.67 758.66,-109.24 797.72,-158.74 812.28,-177.19 814.22,-194.88 797.72,-211.61 788.29,-221.17 752.29,-223.45 733.67,-217.44"/>
<polygon fill="black" stroke="black" points="735.19,-214.28 724.73,-212.61 731.87,-220.44 735.19,-214.28"/>
<text text-anchor="middle" x="675.25" y="-129.54" font-family="Times,serif" font-size="14.00">sum</text>
<text text-anchor="middle" x="742.73" y="-216.41" font-family="Times,serif" font-size="14.00">right</text>
</g>
<!-- /range&#45;of&#45;ranges/sequence&#45;of&#45;sequences/add&#45;&gt;/range&#45;of&#45;ranges/sequence&#45;of&#45;sequences/add -->
<g id="edge5" class="edge">
<title>/range&#45;of&#45;ranges/sequence&#45;of&#45;sequences/add:e&#45;&gt;/range&#45;of&#45;ranges/sequence&#45;of&#45;sequences/add:w</title>
<path fill="none" stroke="black" d="M637.73,-80.87C655.62,-98.49 655.62,-133.74 598.73,-133.74 549.61,-133.74 542.9,-107.47 553.49,-88.95"/>
<polygon fill="black" stroke="black" points="556.39,-90.93 559.73,-80.87 550.85,-86.65 556.39,-90.93"/>
<text text-anchor="middle" x="644.73" y="-84.67" font-family="Times,serif" font-size="14.00">i2</text>
<text text-anchor="middle" x="552.73" y="-69.67" font-family="Times,serif" font-size="14.00">i2</text>
</g>
<!-- initializer/range&#45;of&#45;ranges/sequence&#45;of&#45;sequences/add_1 -->
<!-- initializer/range&#45;of&#45;ranges/sequence&#45;of&#45;sequences/add_1&#45;&gt;/range&#45;of&#45;ranges/sequence&#45;of&#45;sequences/add -->
<g id="edge1" class="edge">
<title>initializer/range&#45;of&#45;ranges/sequence&#45;of&#45;sequences/add_1&#45;&gt;/range&#45;of&#45;ranges/sequence&#45;of&#45;sequences/add:w</title>
<path fill="none" stroke="blue" stroke-dasharray="1,5" d="M297.25,-167.48C345.65,-138.99 450.19,-84.63 548.61,-81.06"/>
<polygon fill="blue" stroke="blue" points="548.79,-84.55 558.73,-80.87 548.66,-77.55 548.79,-84.55"/>
<text text-anchor="middle" x="381.73" y="-129.54" font-family="Times,serif" font-size="14.00">1</text>
</g>
</g>
</svg>
